<svg width="178" height="60" viewBox="0 0 178 60" fill="none" xmlns="http://www.w3.org/2000/svg">
<g clip-path="url(#clip0_411_378699)">
<path d="M171.746 0.49707H6.70646C3.32808 0.49707 0.589355 2.7836 0.589355 5.60417V54.0789C0.589355 56.8995 3.32808 59.186 6.70646 59.186H171.746C175.124 59.186 177.863 56.8995 177.863 54.0789V5.60417C177.863 2.7836 175.124 0.49707 171.746 0.49707Z" fill="#FBFBFB"/>
<path d="M8.02783 32.7627L20.8127 19.9779H14.3477V17.4243H25.1768V28.2534H22.6317V21.7884L9.83837 34.5732L8.03637 32.7712L8.02783 32.7627Z" fill="#765BA7"/>
<path d="M35.9873 23.3418C35.9873 23.4316 35.9717 23.5117 35.9404 23.582C35.9092 23.6523 35.8662 23.7109 35.8115 23.7578C35.7607 23.8047 35.6982 23.8398 35.624 23.8633C35.5537 23.8828 35.4814 23.8926 35.4072 23.8926H34.751C34.6143 23.8926 34.4951 23.8789 34.3936 23.8516C34.2959 23.8242 34.2041 23.7754 34.1182 23.7051C34.0361 23.6309 33.9561 23.5332 33.8779 23.4121C33.7998 23.2871 33.7119 23.127 33.6143 22.9316L31.7275 19.3867C31.6182 19.1758 31.5068 18.9492 31.3936 18.707C31.2803 18.4609 31.1787 18.2227 31.0889 17.9922H31.0771C31.0928 18.2734 31.1045 18.5547 31.1123 18.8359C31.1201 19.1133 31.124 19.4004 31.124 19.6973V23.6641C31.124 23.7031 31.1123 23.7383 31.0889 23.7695C31.0693 23.8008 31.0322 23.8281 30.9775 23.8516C30.9268 23.8711 30.8564 23.8867 30.7666 23.8984C30.6768 23.9102 30.5615 23.916 30.4209 23.916C30.2842 23.916 30.1709 23.9102 30.0811 23.8984C29.9912 23.8867 29.9209 23.8711 29.8701 23.8516C29.8193 23.8281 29.7842 23.8008 29.7646 23.7695C29.7451 23.7383 29.7354 23.7031 29.7354 23.6641V16.8496C29.7354 16.666 29.7881 16.5293 29.8936 16.4395C30.0029 16.3457 30.1357 16.2988 30.292 16.2988H31.1182C31.2666 16.2988 31.3916 16.3125 31.4932 16.3398C31.5947 16.3633 31.6846 16.4043 31.7627 16.4629C31.8447 16.5215 31.9209 16.6035 31.9912 16.709C32.0615 16.8105 32.1338 16.9375 32.208 17.0898L33.6846 19.8613C33.7705 20.0293 33.8545 20.1953 33.9365 20.3594C34.0225 20.5195 34.1045 20.6816 34.1826 20.8457C34.2607 21.0059 34.3369 21.1641 34.4111 21.3203C34.4854 21.4766 34.5576 21.6328 34.6279 21.7891H34.6338C34.6221 21.5156 34.6123 21.2305 34.6045 20.9336C34.6006 20.6367 34.5986 20.3535 34.5986 20.084V16.5273C34.5986 16.4883 34.6104 16.4531 34.6338 16.4219C34.6572 16.3906 34.6963 16.3633 34.751 16.3398C34.8057 16.3164 34.8779 16.3008 34.9678 16.293C35.0576 16.2812 35.1729 16.2754 35.3135 16.2754C35.4463 16.2754 35.5576 16.2812 35.6475 16.293C35.7373 16.3008 35.8057 16.3164 35.8525 16.3398C35.9033 16.3633 35.9385 16.3906 35.958 16.4219C35.9775 16.4531 35.9873 16.4883 35.9873 16.5273V23.3418ZM42.3857 20.916C42.3857 21.0957 42.3447 21.2285 42.2627 21.3145C42.1846 21.4004 42.0752 21.4434 41.9346 21.4434H38.7529C38.7529 21.666 38.7783 21.8691 38.8291 22.0527C38.8838 22.2324 38.9678 22.3867 39.0811 22.5156C39.1982 22.6406 39.3467 22.7363 39.5264 22.8027C39.71 22.8691 39.9287 22.9023 40.1826 22.9023C40.4404 22.9023 40.667 22.8848 40.8623 22.8496C41.0576 22.8105 41.2256 22.7695 41.3662 22.7266C41.5107 22.6797 41.6299 22.6387 41.7236 22.6035C41.8174 22.5645 41.8936 22.5449 41.9521 22.5449C41.9873 22.5449 42.0166 22.5527 42.04 22.5684C42.0635 22.5801 42.083 22.6035 42.0986 22.6387C42.1143 22.6738 42.124 22.7246 42.1279 22.791C42.1357 22.8535 42.1396 22.9336 42.1396 23.0312C42.1396 23.1172 42.1377 23.1914 42.1338 23.2539C42.1299 23.3125 42.124 23.3633 42.1162 23.4062C42.1084 23.4492 42.0967 23.4863 42.0811 23.5176C42.0654 23.5449 42.0439 23.5723 42.0166 23.5996C41.9932 23.627 41.9248 23.6641 41.8115 23.7109C41.6982 23.7578 41.5537 23.8047 41.3779 23.8516C41.2021 23.8945 41.001 23.9316 40.7744 23.9629C40.5479 23.998 40.3057 24.0156 40.0479 24.0156C39.583 24.0156 39.1748 23.957 38.8232 23.8398C38.4756 23.7227 38.1846 23.5449 37.9502 23.3066C37.7158 23.0684 37.54 22.7676 37.4229 22.4043C37.3096 22.041 37.2529 21.6152 37.2529 21.127C37.2529 20.6621 37.3135 20.2441 37.4346 19.873C37.5557 19.498 37.7314 19.1816 37.9619 18.9238C38.1924 18.6621 38.4717 18.4629 38.7998 18.3262C39.1318 18.1895 39.5049 18.1211 39.9189 18.1211C40.3564 18.1211 40.7295 18.1855 41.0381 18.3145C41.3506 18.4434 41.6064 18.623 41.8057 18.8535C42.0049 19.0801 42.1514 19.3496 42.2451 19.6621C42.3389 19.9746 42.3857 20.3145 42.3857 20.6816V20.916ZM40.9561 20.4941C40.9678 20.0801 40.8838 19.7559 40.7041 19.5215C40.5283 19.2832 40.2549 19.1641 39.8838 19.1641C39.6963 19.1641 39.5322 19.1992 39.3916 19.2695C39.2549 19.3398 39.1396 19.4355 39.0459 19.5566C38.9561 19.6738 38.8857 19.8145 38.835 19.9785C38.7881 20.1387 38.7607 20.3105 38.7529 20.4941H40.9561ZM51.5439 18.4434C51.5439 18.4863 51.5381 18.5391 51.5264 18.6016C51.5146 18.6641 51.4932 18.7539 51.4619 18.8711L50.0674 23.5996C50.0479 23.666 50.0225 23.7207 49.9912 23.7637C49.96 23.8027 49.9111 23.834 49.8447 23.8574C49.7822 23.8809 49.6904 23.8965 49.5693 23.9043C49.4521 23.9121 49.2979 23.916 49.1064 23.916C48.915 23.916 48.7588 23.9102 48.6377 23.8984C48.5166 23.8906 48.4209 23.875 48.3506 23.8516C48.2842 23.8281 48.2354 23.7969 48.2041 23.7578C48.1729 23.7148 48.1494 23.6621 48.1338 23.5996L47.2549 20.4238L47.2432 20.3711L47.2314 20.4238L46.4229 23.5996C46.4072 23.666 46.3838 23.7207 46.3525 23.7637C46.3252 23.8027 46.2764 23.834 46.2061 23.8574C46.1357 23.8809 46.04 23.8965 45.9189 23.9043C45.7979 23.9121 45.6416 23.916 45.4502 23.916C45.2549 23.916 45.0967 23.9102 44.9756 23.8984C44.8584 23.8906 44.7646 23.875 44.6943 23.8516C44.6279 23.8281 44.5791 23.7969 44.5479 23.7578C44.5166 23.7148 44.4932 23.6621 44.4775 23.5996L43.0947 18.8711C43.0596 18.7578 43.0361 18.6699 43.0244 18.6074C43.0166 18.541 43.0127 18.4863 43.0127 18.4434C43.0127 18.4043 43.0225 18.3711 43.042 18.3438C43.0654 18.3125 43.1045 18.2891 43.1592 18.2734C43.2178 18.2539 43.2939 18.2402 43.3877 18.2324C43.4854 18.2246 43.6064 18.2207 43.751 18.2207C43.9072 18.2207 44.0342 18.2246 44.1318 18.2324C44.2295 18.2402 44.3057 18.2539 44.3604 18.2734C44.415 18.293 44.4521 18.3203 44.4717 18.3555C44.4951 18.3867 44.5127 18.4258 44.5244 18.4727L45.5615 22.3105L45.5732 22.3809L45.585 22.3105L46.5576 18.4727C46.5693 18.4258 46.5869 18.3867 46.6104 18.3555C46.6377 18.3203 46.6768 18.293 46.7275 18.2734C46.7783 18.2539 46.8486 18.2402 46.9385 18.2324C47.0322 18.2246 47.1514 18.2207 47.2959 18.2207C47.4404 18.2207 47.5576 18.2266 47.6475 18.2383C47.7373 18.2461 47.8076 18.2598 47.8584 18.2793C47.9131 18.2949 47.9502 18.3184 47.9697 18.3496C47.9932 18.377 48.0107 18.4102 48.0225 18.4492L49.0654 22.3164L49.083 22.3809L49.0947 22.3105L50.0908 18.4727C50.0986 18.4258 50.1143 18.3867 50.1377 18.3555C50.1611 18.3203 50.2002 18.293 50.2549 18.2734C50.3096 18.2539 50.3838 18.2402 50.4775 18.2324C50.5713 18.2246 50.6904 18.2207 50.835 18.2207C50.9795 18.2207 51.0967 18.2246 51.1865 18.2324C51.2803 18.2402 51.3525 18.2539 51.4033 18.2734C51.458 18.2891 51.4951 18.3125 51.5146 18.3438C51.5342 18.3711 51.5439 18.4043 51.5439 18.4434ZM61.5928 19.9785C61.5928 20.6738 61.501 21.2695 61.3174 21.7656C61.1377 22.2578 60.8779 22.6602 60.5381 22.9727C60.1982 23.2852 59.7842 23.5156 59.2959 23.6641C58.8115 23.8086 58.2334 23.8809 57.5615 23.8809H55.751C55.6221 23.8809 55.5127 23.8438 55.4229 23.7695C55.3369 23.6914 55.2939 23.5664 55.2939 23.3945V16.7852C55.2939 16.6133 55.3369 16.4902 55.4229 16.416C55.5127 16.3379 55.6221 16.2988 55.751 16.2988H57.6963C58.3721 16.2988 58.9443 16.3789 59.4131 16.5391C59.8857 16.6953 60.2822 16.9297 60.6025 17.2422C60.9268 17.5508 61.1729 17.9336 61.3408 18.3906C61.5088 18.8477 61.5928 19.377 61.5928 19.9785ZM59.999 20.0312C59.999 19.6719 59.9561 19.3379 59.8701 19.0293C59.7881 18.7207 59.6533 18.4531 59.4658 18.2266C59.2822 18 59.0439 17.8242 58.751 17.6992C58.4619 17.5703 58.0811 17.5059 57.6084 17.5059H56.8291V22.6621H57.6318C58.0537 22.6621 58.4092 22.6074 58.6982 22.498C58.9873 22.3887 59.2275 22.2246 59.4189 22.0059C59.6143 21.7832 59.7588 21.5078 59.8525 21.1797C59.9502 20.8516 59.999 20.4688 59.999 20.0312ZM67.6045 20.916C67.6045 21.0957 67.5635 21.2285 67.4814 21.3145C67.4033 21.4004 67.2939 21.4434 67.1533 21.4434H63.9717C63.9717 21.666 63.9971 21.8691 64.0479 22.0527C64.1025 22.2324 64.1865 22.3867 64.2998 22.5156C64.417 22.6406 64.5654 22.7363 64.7451 22.8027C64.9287 22.8691 65.1475 22.9023 65.4014 22.9023C65.6592 22.9023 65.8857 22.8848 66.0811 22.8496C66.2764 22.8105 66.4443 22.7695 66.585 22.7266C66.7295 22.6797 66.8486 22.6387 66.9424 22.6035C67.0361 22.5645 67.1123 22.5449 67.1709 22.5449C67.2061 22.5449 67.2354 22.5527 67.2588 22.5684C67.2822 22.5801 67.3018 22.6035 67.3174 22.6387C67.333 22.6738 67.3428 22.7246 67.3467 22.791C67.3545 22.8535 67.3584 22.9336 67.3584 23.0312C67.3584 23.1172 67.3564 23.1914 67.3525 23.2539C67.3486 23.3125 67.3428 23.3633 67.335 23.4062C67.3271 23.4492 67.3154 23.4863 67.2998 23.5176C67.2842 23.5449 67.2627 23.5723 67.2354 23.5996C67.2119 23.627 67.1436 23.6641 67.0303 23.7109C66.917 23.7578 66.7725 23.8047 66.5967 23.8516C66.4209 23.8945 66.2197 23.9316 65.9932 23.9629C65.7666 23.998 65.5244 24.0156 65.2666 24.0156C64.8018 24.0156 64.3936 23.957 64.042 23.8398C63.6943 23.7227 63.4033 23.5449 63.1689 23.3066C62.9346 23.0684 62.7588 22.7676 62.6416 22.4043C62.5283 22.041 62.4717 21.6152 62.4717 21.127C62.4717 20.6621 62.5322 20.2441 62.6533 19.873C62.7744 19.498 62.9502 19.1816 63.1807 18.9238C63.4111 18.6621 63.6904 18.4629 64.0186 18.3262C64.3506 18.1895 64.7236 18.1211 65.1377 18.1211C65.5752 18.1211 65.9482 18.1855 66.2568 18.3145C66.5693 18.4434 66.8252 18.623 67.0244 18.8535C67.2236 19.0801 67.3701 19.3496 67.4639 19.6621C67.5576 19.9746 67.6045 20.3145 67.6045 20.6816V20.916ZM66.1748 20.4941C66.1865 20.0801 66.1025 19.7559 65.9229 19.5215C65.7471 19.2832 65.4736 19.1641 65.1025 19.1641C64.915 19.1641 64.751 19.1992 64.6104 19.2695C64.4736 19.3398 64.3584 19.4355 64.2646 19.5566C64.1748 19.6738 64.1045 19.8145 64.0537 19.9785C64.0068 20.1387 63.9795 20.3105 63.9717 20.4941H66.1748ZM73.5752 18.4492C73.5752 18.4688 73.5732 18.4922 73.5693 18.5195C73.5693 18.5469 73.5654 18.5781 73.5576 18.6133C73.5537 18.6445 73.5459 18.6816 73.5342 18.7246C73.5264 18.7676 73.5146 18.8164 73.499 18.8711L71.9287 23.5996C71.9092 23.666 71.8818 23.7207 71.8467 23.7637C71.8154 23.8027 71.7607 23.834 71.6826 23.8574C71.6084 23.8809 71.5049 23.8965 71.3721 23.9043C71.2432 23.9121 71.0732 23.916 70.8623 23.916C70.6553 23.916 70.4854 23.9102 70.3525 23.8984C70.2236 23.8906 70.1221 23.875 70.0479 23.8516C69.9736 23.8281 69.9189 23.7969 69.8838 23.7578C69.8525 23.7148 69.8271 23.6621 69.8076 23.5996L68.2373 18.8711C68.2139 18.793 68.1943 18.7227 68.1787 18.6602C68.167 18.5977 68.1592 18.5527 68.1553 18.5254C68.1553 18.498 68.1553 18.4727 68.1553 18.4492C68.1553 18.4102 68.165 18.377 68.1846 18.3496C68.208 18.3184 68.2471 18.293 68.3018 18.2734C68.3564 18.2539 68.4307 18.2402 68.5244 18.2324C68.6221 18.2246 68.7432 18.2207 68.8877 18.2207C69.0479 18.2207 69.1768 18.2266 69.2744 18.2383C69.3721 18.2461 69.4482 18.2598 69.5029 18.2793C69.5615 18.2949 69.6025 18.3203 69.626 18.3555C69.6494 18.3867 69.6689 18.4258 69.6846 18.4727L70.874 22.3105L70.9092 22.457L70.9443 22.3105L72.1162 18.4727C72.1279 18.4258 72.1455 18.3867 72.1689 18.3555C72.1963 18.3203 72.2373 18.2949 72.292 18.2793C72.3467 18.2598 72.4189 18.2461 72.5088 18.2383C72.6025 18.2266 72.7236 18.2207 72.8721 18.2207C73.0166 18.2207 73.1338 18.2246 73.2236 18.2324C73.3174 18.2402 73.3896 18.2539 73.4404 18.2734C73.4912 18.293 73.5264 18.3184 73.5459 18.3496C73.5654 18.377 73.5752 18.4102 73.5752 18.4492ZM75.9248 23.6816C75.9248 23.7207 75.9131 23.7559 75.8896 23.7871C75.8662 23.8145 75.8252 23.8379 75.7666 23.8574C75.7119 23.877 75.6377 23.8906 75.5439 23.8984C75.4502 23.9102 75.3311 23.916 75.1865 23.916C75.042 23.916 74.9229 23.9102 74.8291 23.8984C74.7354 23.8906 74.6592 23.877 74.6006 23.8574C74.5459 23.8379 74.5068 23.8145 74.4834 23.7871C74.46 23.7559 74.4482 23.7207 74.4482 23.6816V18.4668C74.4482 18.4277 74.46 18.3945 74.4834 18.3672C74.5068 18.3359 74.5459 18.3105 74.6006 18.291C74.6592 18.2676 74.7354 18.25 74.8291 18.2383C74.9229 18.2266 75.042 18.2207 75.1865 18.2207C75.3311 18.2207 75.4502 18.2266 75.5439 18.2383C75.6377 18.25 75.7119 18.2676 75.7666 18.291C75.8252 18.3105 75.8662 18.3359 75.8896 18.3672C75.9131 18.3945 75.9248 18.4277 75.9248 18.4668V23.6816ZM76.0361 16.6855C76.0361 16.9824 75.9756 17.1875 75.8545 17.3008C75.7334 17.4141 75.5088 17.4707 75.1807 17.4707C74.8486 17.4707 74.624 17.416 74.5068 17.3066C74.3936 17.1973 74.3369 17 74.3369 16.7148C74.3369 16.418 74.3955 16.2129 74.5127 16.0996C74.6338 15.9824 74.8604 15.9238 75.1924 15.9238C75.5205 15.9238 75.7432 15.9805 75.8604 16.0938C75.9775 16.2031 76.0361 16.4004 76.0361 16.6855ZM81.3564 22.8496C81.3564 22.9512 81.3525 23.0371 81.3447 23.1074C81.3408 23.1738 81.333 23.2305 81.3213 23.2773C81.3135 23.3242 81.3018 23.3633 81.2861 23.3945C81.2744 23.4219 81.2451 23.459 81.1982 23.5059C81.1514 23.5488 81.0713 23.6035 80.958 23.6699C80.8447 23.7324 80.7158 23.7891 80.5713 23.8398C80.4268 23.8906 80.2686 23.9316 80.0967 23.9629C79.9287 23.9941 79.7549 24.0098 79.5752 24.0098C79.1729 24.0098 78.8154 23.9473 78.5029 23.8223C78.1943 23.6973 77.9346 23.5137 77.7236 23.2715C77.5127 23.0254 77.3525 22.7266 77.2432 22.375C77.1377 22.0234 77.085 21.6211 77.085 21.168C77.085 20.6445 77.1494 20.1934 77.2783 19.8145C77.4111 19.4316 77.5947 19.1152 77.8291 18.8652C78.0635 18.6152 78.3408 18.4297 78.6611 18.3086C78.9814 18.1875 79.333 18.127 79.7158 18.127C79.8721 18.127 80.0244 18.1406 80.1729 18.168C80.3252 18.1953 80.4658 18.2324 80.5947 18.2793C80.7275 18.3262 80.8447 18.3789 80.9463 18.4375C81.0518 18.4961 81.126 18.5469 81.1689 18.5898C81.2119 18.6328 81.2412 18.6699 81.2568 18.7012C81.2764 18.7285 81.29 18.7656 81.2979 18.8125C81.3096 18.8594 81.3174 18.918 81.3213 18.9883C81.3291 19.0547 81.333 19.1367 81.333 19.2344C81.333 19.4609 81.3135 19.6211 81.2744 19.7148C81.2354 19.8047 81.1846 19.8496 81.1221 19.8496C81.0557 19.8496 80.9854 19.8223 80.9111 19.7676C80.8369 19.7129 80.749 19.6523 80.6475 19.5859C80.5459 19.5195 80.4248 19.459 80.2842 19.4043C80.1436 19.3496 79.9756 19.3223 79.7803 19.3223C79.3975 19.3223 79.1045 19.4707 78.9014 19.7676C78.6982 20.0605 78.5967 20.4922 78.5967 21.0625C78.5967 21.3438 78.6221 21.5918 78.6729 21.8066C78.7236 22.0215 78.7979 22.2012 78.8955 22.3457C78.9971 22.4902 79.1221 22.5996 79.2705 22.6738C79.4229 22.7441 79.5986 22.7793 79.7979 22.7793C80.001 22.7793 80.1748 22.75 80.3193 22.6914C80.4678 22.6289 80.5967 22.5605 80.7061 22.4863C80.8154 22.4121 80.9072 22.3457 80.9814 22.2871C81.0557 22.2246 81.1182 22.1934 81.1689 22.1934C81.2041 22.1934 81.2334 22.2031 81.2568 22.2227C81.2803 22.2422 81.2979 22.2793 81.3096 22.334C81.3252 22.3848 81.3369 22.4512 81.3447 22.5332C81.3525 22.6152 81.3564 22.7207 81.3564 22.8496ZM87.2568 20.916C87.2568 21.0957 87.2158 21.2285 87.1338 21.3145C87.0557 21.4004 86.9463 21.4434 86.8057 21.4434H83.624C83.624 21.666 83.6494 21.8691 83.7002 22.0527C83.7549 22.2324 83.8389 22.3867 83.9521 22.5156C84.0693 22.6406 84.2178 22.7363 84.3975 22.8027C84.5811 22.8691 84.7998 22.9023 85.0537 22.9023C85.3115 22.9023 85.5381 22.8848 85.7334 22.8496C85.9287 22.8105 86.0967 22.7695 86.2373 22.7266C86.3818 22.6797 86.501 22.6387 86.5947 22.6035C86.6885 22.5645 86.7646 22.5449 86.8232 22.5449C86.8584 22.5449 86.8877 22.5527 86.9111 22.5684C86.9346 22.5801 86.9541 22.6035 86.9697 22.6387C86.9854 22.6738 86.9951 22.7246 86.999 22.791C87.0068 22.8535 87.0107 22.9336 87.0107 23.0312C87.0107 23.1172 87.0088 23.1914 87.0049 23.2539C87.001 23.3125 86.9951 23.3633 86.9873 23.4062C86.9795 23.4492 86.9678 23.4863 86.9521 23.5176C86.9365 23.5449 86.915 23.5723 86.8877 23.5996C86.8643 23.627 86.7959 23.6641 86.6826 23.7109C86.5693 23.7578 86.4248 23.8047 86.249 23.8516C86.0732 23.8945 85.8721 23.9316 85.6455 23.9629C85.4189 23.998 85.1768 24.0156 84.9189 24.0156C84.4541 24.0156 84.0459 23.957 83.6943 23.8398C83.3467 23.7227 83.0557 23.5449 82.8213 23.3066C82.5869 23.0684 82.4111 22.7676 82.2939 22.4043C82.1807 22.041 82.124 21.6152 82.124 21.127C82.124 20.6621 82.1846 20.2441 82.3057 19.873C82.4268 19.498 82.6025 19.1816 82.833 18.9238C83.0635 18.6621 83.3428 18.4629 83.6709 18.3262C84.0029 18.1895 84.376 18.1211 84.79 18.1211C85.2275 18.1211 85.6006 18.1855 85.9092 18.3145C86.2217 18.4434 86.4775 18.623 86.6768 18.8535C86.876 19.0801 87.0225 19.3496 87.1162 19.6621C87.21 19.9746 87.2568 20.3145 87.2568 20.6816V20.916ZM85.8271 20.4941C85.8389 20.0801 85.7549 19.7559 85.5752 19.5215C85.3994 19.2832 85.126 19.1641 84.7549 19.1641C84.5674 19.1641 84.4033 19.1992 84.2627 19.2695C84.126 19.3398 84.0107 19.4355 83.917 19.5566C83.8271 19.6738 83.7568 19.8145 83.7061 19.9785C83.6592 20.1387 83.6318 20.3105 83.624 20.4941H85.8271Z" fill="#765BA7"/>
<path d="M96.2803 20.2559C96.2803 20.2845 96.2764 20.3197 96.2686 20.3613C96.2607 20.403 96.2464 20.4629 96.2256 20.541L95.2959 23.6934C95.2829 23.7376 95.266 23.7741 95.2451 23.8027C95.2243 23.8288 95.1917 23.8496 95.1475 23.8652C95.1058 23.8809 95.0446 23.8913 94.9639 23.8965C94.8857 23.9017 94.7829 23.9043 94.6553 23.9043C94.5277 23.9043 94.4235 23.9004 94.3428 23.8926C94.262 23.8874 94.1982 23.877 94.1514 23.8613C94.1071 23.8457 94.0745 23.8249 94.0537 23.7988C94.0329 23.7702 94.0173 23.735 94.0068 23.6934L93.4209 21.5762L93.4131 21.541L93.4053 21.5762L92.8662 23.6934C92.8558 23.7376 92.8402 23.7741 92.8193 23.8027C92.8011 23.8288 92.7686 23.8496 92.7217 23.8652C92.6748 23.8809 92.611 23.8913 92.5303 23.8965C92.4495 23.9017 92.3454 23.9043 92.2178 23.9043C92.0876 23.9043 91.9821 23.9004 91.9014 23.8926C91.8232 23.8874 91.7607 23.877 91.7139 23.8613C91.6696 23.8457 91.637 23.8249 91.6162 23.7988C91.5954 23.7702 91.5798 23.735 91.5693 23.6934L90.6475 20.541C90.624 20.4655 90.6084 20.4069 90.6006 20.3652C90.5954 20.321 90.5928 20.2845 90.5928 20.2559C90.5928 20.2298 90.5993 20.2077 90.6123 20.1895C90.6279 20.1686 90.654 20.153 90.6904 20.1426C90.7295 20.1296 90.7803 20.1204 90.8428 20.1152C90.9079 20.11 90.9886 20.1074 91.085 20.1074C91.1891 20.1074 91.2738 20.11 91.3389 20.1152C91.404 20.1204 91.4548 20.1296 91.4912 20.1426C91.5277 20.1556 91.5524 20.1738 91.5654 20.1973C91.5811 20.2181 91.5928 20.2441 91.6006 20.2754L92.292 22.834L92.2998 22.8809L92.3076 22.834L92.9561 20.2754C92.9639 20.2441 92.9756 20.2181 92.9912 20.1973C93.0094 20.1738 93.0355 20.1556 93.0693 20.1426C93.1032 20.1296 93.1501 20.1204 93.21 20.1152C93.2725 20.11 93.3519 20.1074 93.4482 20.1074C93.5446 20.1074 93.6227 20.1113 93.6826 20.1191C93.7425 20.1243 93.7894 20.1335 93.8232 20.1465C93.8597 20.1569 93.8844 20.1725 93.8975 20.1934C93.9131 20.2116 93.9248 20.2337 93.9326 20.2598L94.6279 22.8379L94.6396 22.8809L94.6475 22.834L95.3115 20.2754C95.3167 20.2441 95.3271 20.2181 95.3428 20.1973C95.3584 20.1738 95.3844 20.1556 95.4209 20.1426C95.4574 20.1296 95.5068 20.1204 95.5693 20.1152C95.6318 20.11 95.7113 20.1074 95.8076 20.1074C95.904 20.1074 95.9821 20.11 96.042 20.1152C96.1045 20.1204 96.1527 20.1296 96.1865 20.1426C96.223 20.153 96.2477 20.1686 96.2607 20.1895C96.2738 20.2077 96.2803 20.2298 96.2803 20.2559ZM97.8936 23.748C97.8936 23.7741 97.8857 23.7975 97.8701 23.8184C97.8545 23.8366 97.8271 23.8522 97.7881 23.8652C97.7516 23.8783 97.7021 23.8874 97.6396 23.8926C97.5771 23.9004 97.4977 23.9043 97.4014 23.9043C97.305 23.9043 97.2256 23.9004 97.1631 23.8926C97.1006 23.8874 97.0498 23.8783 97.0107 23.8652C96.9743 23.8522 96.9482 23.8366 96.9326 23.8184C96.917 23.7975 96.9092 23.7741 96.9092 23.748V20.2715C96.9092 20.2454 96.917 20.2233 96.9326 20.2051C96.9482 20.1842 96.9743 20.1673 97.0107 20.1543C97.0498 20.1387 97.1006 20.127 97.1631 20.1191C97.2256 20.1113 97.305 20.1074 97.4014 20.1074C97.4977 20.1074 97.5771 20.1113 97.6396 20.1191C97.7021 20.127 97.7516 20.1387 97.7881 20.1543C97.8271 20.1673 97.8545 20.1842 97.8701 20.2051C97.8857 20.2233 97.8936 20.2454 97.8936 20.2715V23.748ZM97.9678 19.084C97.9678 19.2819 97.9274 19.4186 97.8467 19.4941C97.766 19.5697 97.6162 19.6074 97.3975 19.6074C97.1761 19.6074 97.0264 19.571 96.9482 19.498C96.8727 19.4251 96.835 19.2936 96.835 19.1035C96.835 18.9056 96.874 18.7689 96.9521 18.6934C97.0329 18.6152 97.1839 18.5762 97.4053 18.5762C97.624 18.5762 97.7725 18.6139 97.8506 18.6895C97.9287 18.7624 97.9678 18.8939 97.9678 19.084ZM100.94 23.4043C100.94 23.5189 100.933 23.6074 100.917 23.6699C100.904 23.7298 100.886 23.7728 100.862 23.7988C100.839 23.8223 100.804 23.8444 100.757 23.8652C100.713 23.8835 100.659 23.8991 100.597 23.9121C100.537 23.9277 100.47 23.9395 100.397 23.9473C100.327 23.9551 100.256 23.959 100.183 23.959C99.9873 23.959 99.818 23.9342 99.6748 23.8848C99.5316 23.8353 99.4131 23.7598 99.3193 23.6582C99.2256 23.554 99.1566 23.4238 99.1123 23.2676C99.068 23.1113 99.0459 22.9264 99.0459 22.7129V20.9277H98.6279C98.5785 20.9277 98.5407 20.8978 98.5146 20.8379C98.4886 20.7754 98.4756 20.6725 98.4756 20.5293C98.4756 20.4538 98.4782 20.39 98.4834 20.3379C98.4912 20.2858 98.5016 20.2454 98.5146 20.2168C98.5277 20.1855 98.5433 20.1634 98.5615 20.1504C98.5824 20.1374 98.6058 20.1309 98.6318 20.1309H99.0459V19.3535C99.0459 19.3275 99.0524 19.304 99.0654 19.2832C99.0811 19.2624 99.1071 19.2454 99.1436 19.2324C99.1826 19.2168 99.2334 19.2064 99.2959 19.2012C99.361 19.1934 99.4404 19.1895 99.5342 19.1895C99.6305 19.1895 99.71 19.1934 99.7725 19.2012C99.8376 19.2064 99.8883 19.2168 99.9248 19.2324C99.9613 19.2454 99.9873 19.2624 100.003 19.2832C100.019 19.304 100.026 19.3275 100.026 19.3535V20.1309H100.784C100.81 20.1309 100.832 20.1374 100.851 20.1504C100.871 20.1634 100.888 20.1855 100.901 20.2168C100.914 20.2454 100.924 20.2858 100.929 20.3379C100.937 20.39 100.94 20.4538 100.94 20.5293C100.94 20.6725 100.927 20.7754 100.901 20.8379C100.875 20.8978 100.838 20.9277 100.788 20.9277H100.026V22.5645C100.026 22.7546 100.056 22.8978 100.116 22.9941C100.176 23.0879 100.283 23.1348 100.437 23.1348C100.489 23.1348 100.535 23.1309 100.577 23.123C100.619 23.1126 100.655 23.1022 100.687 23.0918C100.72 23.0788 100.748 23.0684 100.769 23.0605C100.792 23.0501 100.813 23.0449 100.831 23.0449C100.847 23.0449 100.861 23.0501 100.874 23.0605C100.89 23.0684 100.901 23.0866 100.909 23.1152C100.917 23.1413 100.924 23.1777 100.929 23.2246C100.937 23.2715 100.94 23.3314 100.94 23.4043ZM104.979 23.748C104.979 23.7741 104.972 23.7975 104.956 23.8184C104.94 23.8366 104.914 23.8522 104.878 23.8652C104.841 23.8783 104.791 23.8874 104.726 23.8926C104.663 23.9004 104.585 23.9043 104.491 23.9043C104.395 23.9043 104.314 23.9004 104.249 23.8926C104.187 23.8874 104.137 23.8783 104.101 23.8652C104.064 23.8522 104.038 23.8366 104.022 23.8184C104.007 23.7975 103.999 23.7741 103.999 23.748V21.7598C103.999 21.5905 103.986 21.4577 103.96 21.3613C103.937 21.265 103.901 21.1829 103.854 21.1152C103.808 21.0449 103.746 20.9915 103.671 20.9551C103.598 20.916 103.512 20.8965 103.413 20.8965C103.288 20.8965 103.162 20.9421 103.034 21.0332C102.907 21.1243 102.774 21.2572 102.636 21.4316V23.748C102.636 23.7741 102.628 23.7975 102.612 23.8184C102.597 23.8366 102.569 23.8522 102.53 23.8652C102.494 23.8783 102.444 23.8874 102.382 23.8926C102.319 23.9004 102.24 23.9043 102.144 23.9043C102.047 23.9043 101.968 23.9004 101.905 23.8926C101.843 23.8874 101.792 23.8783 101.753 23.8652C101.716 23.8522 101.69 23.8366 101.675 23.8184C101.659 23.7975 101.651 23.7741 101.651 23.748V18.6113C101.651 18.5853 101.659 18.5618 101.675 18.541C101.69 18.5202 101.716 18.5033 101.753 18.4902C101.792 18.4746 101.843 18.4629 101.905 18.4551C101.968 18.4473 102.047 18.4434 102.144 18.4434C102.24 18.4434 102.319 18.4473 102.382 18.4551C102.444 18.4629 102.494 18.4746 102.53 18.4902C102.569 18.5033 102.597 18.5202 102.612 18.541C102.628 18.5618 102.636 18.5853 102.636 18.6113V20.5371C102.805 20.3704 102.977 20.2467 103.151 20.166C103.328 20.0827 103.512 20.041 103.702 20.041C103.939 20.041 104.138 20.0801 104.3 20.1582C104.464 20.2363 104.595 20.3431 104.694 20.4785C104.796 20.6139 104.869 20.7728 104.913 20.9551C104.957 21.1348 104.979 21.3535 104.979 21.6113V23.748ZM109.78 23.8809L109.358 25.1152C109.335 25.1803 109.271 25.2272 109.167 25.2559C109.063 25.2845 108.91 25.2988 108.71 25.2988C108.606 25.2988 108.522 25.2936 108.46 25.2832C108.397 25.2754 108.351 25.2611 108.319 25.2402C108.288 25.2194 108.271 25.1934 108.269 25.1621C108.266 25.1309 108.274 25.0931 108.292 25.0488L108.757 23.8809C108.723 23.8652 108.692 23.8418 108.663 23.8105C108.637 23.7767 108.618 23.7415 108.604 23.7051L107.405 20.502C107.371 20.4108 107.354 20.3418 107.354 20.2949C107.354 20.2454 107.37 20.2077 107.401 20.1816C107.433 20.153 107.485 20.1335 107.558 20.123C107.633 20.1126 107.732 20.1074 107.854 20.1074C107.966 20.1074 108.055 20.11 108.12 20.1152C108.185 20.1178 108.236 20.127 108.272 20.1426C108.309 20.1582 108.336 20.1829 108.354 20.2168C108.373 20.248 108.391 20.2936 108.409 20.3535L109.229 22.6855H109.241L109.991 20.3066C110.007 20.2389 110.026 20.1947 110.05 20.1738C110.076 20.1504 110.118 20.1335 110.175 20.123C110.232 20.1126 110.332 20.1074 110.476 20.1074C110.588 20.1074 110.68 20.1126 110.753 20.123C110.828 20.1335 110.883 20.153 110.917 20.1816C110.953 20.2103 110.972 20.2493 110.972 20.2988C110.972 20.3457 110.961 20.4017 110.94 20.4668L109.78 23.8809ZM114.987 21.9707C114.987 22.2676 114.948 22.5384 114.87 22.7832C114.792 23.028 114.674 23.2389 114.515 23.416C114.356 23.5931 114.157 23.7298 113.917 23.8262C113.677 23.9225 113.397 23.9707 113.077 23.9707C112.767 23.9707 112.498 23.9277 112.269 23.8418C112.039 23.7559 111.849 23.6309 111.698 23.4668C111.547 23.3027 111.435 23.1009 111.362 22.8613C111.289 22.6217 111.253 22.3483 111.253 22.041C111.253 21.7441 111.292 21.4733 111.37 21.2285C111.451 20.9811 111.571 20.7702 111.729 20.5957C111.888 20.4186 112.086 20.2819 112.323 20.1855C112.563 20.0892 112.843 20.041 113.163 20.041C113.476 20.041 113.746 20.084 113.976 20.1699C114.205 20.2533 114.394 20.377 114.542 20.541C114.693 20.7051 114.805 20.9069 114.878 21.1465C114.951 21.3861 114.987 21.6608 114.987 21.9707ZM113.976 22.0098C113.976 21.8379 113.961 21.6803 113.933 21.5371C113.907 21.3913 113.861 21.265 113.796 21.1582C113.731 21.0514 113.644 20.9681 113.534 20.9082C113.427 20.8483 113.292 20.8184 113.128 20.8184C112.982 20.8184 112.854 20.8457 112.745 20.9004C112.636 20.9525 112.546 21.0306 112.476 21.1348C112.405 21.2363 112.352 21.36 112.315 21.5059C112.282 21.6491 112.265 21.8132 112.265 21.998C112.265 22.1699 112.279 22.3288 112.308 22.4746C112.336 22.6178 112.382 22.7428 112.444 22.8496C112.509 22.9564 112.597 23.0397 112.706 23.0996C112.815 23.1569 112.951 23.1855 113.112 23.1855C113.261 23.1855 113.39 23.1595 113.499 23.1074C113.608 23.0527 113.698 22.9746 113.769 22.873C113.839 22.7715 113.891 22.6491 113.925 22.5059C113.959 22.36 113.976 22.1947 113.976 22.0098ZM119.073 23.748C119.073 23.7741 119.067 23.7975 119.054 23.8184C119.041 23.8366 119.017 23.8522 118.983 23.8652C118.952 23.8783 118.909 23.8874 118.854 23.8926C118.802 23.9004 118.736 23.9043 118.655 23.9043C118.569 23.9043 118.499 23.9004 118.444 23.8926C118.392 23.8874 118.351 23.8783 118.319 23.8652C118.288 23.8522 118.266 23.8366 118.253 23.8184C118.24 23.7975 118.233 23.7741 118.233 23.748V23.3457C118.041 23.554 117.844 23.7103 117.644 23.8145C117.446 23.9186 117.24 23.9707 117.026 23.9707C116.787 23.9707 116.585 23.9316 116.421 23.8535C116.259 23.7754 116.128 23.6686 116.026 23.5332C115.927 23.3978 115.856 23.2415 115.812 23.0645C115.77 22.8848 115.749 22.6621 115.749 22.3965V20.2637C115.749 20.2376 115.756 20.2155 115.769 20.1973C115.784 20.1764 115.81 20.1595 115.847 20.1465C115.886 20.1335 115.937 20.1243 115.999 20.1191C116.064 20.1113 116.144 20.1074 116.237 20.1074C116.334 20.1074 116.413 20.1113 116.476 20.1191C116.538 20.1243 116.588 20.1335 116.624 20.1465C116.663 20.1595 116.69 20.1764 116.706 20.1973C116.722 20.2155 116.729 20.2376 116.729 20.2637V22.2324C116.729 22.4147 116.741 22.554 116.765 22.6504C116.788 22.7467 116.823 22.8301 116.87 22.9004C116.92 22.9681 116.981 23.0215 117.054 23.0605C117.129 23.097 117.216 23.1152 117.315 23.1152C117.44 23.1152 117.565 23.0697 117.69 22.9785C117.818 22.8874 117.953 22.7546 118.097 22.5801V20.2637C118.097 20.2376 118.103 20.2155 118.116 20.1973C118.132 20.1764 118.158 20.1595 118.194 20.1465C118.233 20.1335 118.284 20.1243 118.347 20.1191C118.409 20.1113 118.489 20.1074 118.585 20.1074C118.681 20.1074 118.761 20.1113 118.823 20.1191C118.886 20.1243 118.935 20.1335 118.972 20.1465C119.008 20.1595 119.034 20.1764 119.05 20.1973C119.065 20.2155 119.073 20.2376 119.073 20.2637V23.748ZM122.304 20.5879C122.304 20.6816 122.301 20.7585 122.296 20.8184C122.291 20.8783 122.283 20.9251 122.272 20.959C122.262 20.9928 122.248 21.0163 122.229 21.0293C122.214 21.0423 122.193 21.0488 122.167 21.0488C122.146 21.0488 122.123 21.0449 122.097 21.0371C122.071 21.0267 122.041 21.0163 122.007 21.0059C121.976 20.9954 121.94 20.9863 121.901 20.9785C121.862 20.9681 121.819 20.9629 121.772 20.9629C121.718 20.9629 121.663 20.9746 121.608 20.998C121.554 21.0189 121.496 21.0527 121.437 21.0996C121.379 21.1465 121.318 21.209 121.253 21.2871C121.19 21.3652 121.123 21.4616 121.05 21.5762V23.748C121.05 23.7741 121.042 23.7975 121.026 23.8184C121.011 23.8366 120.983 23.8522 120.944 23.8652C120.908 23.8783 120.858 23.8874 120.796 23.8926C120.733 23.9004 120.654 23.9043 120.558 23.9043C120.461 23.9043 120.382 23.9004 120.319 23.8926C120.257 23.8874 120.206 23.8783 120.167 23.8652C120.131 23.8522 120.104 23.8366 120.089 23.8184C120.073 23.7975 120.065 23.7741 120.065 23.748V20.2637C120.065 20.2376 120.072 20.2155 120.085 20.1973C120.098 20.1764 120.121 20.1595 120.155 20.1465C120.189 20.1335 120.232 20.1243 120.284 20.1191C120.339 20.1113 120.407 20.1074 120.487 20.1074C120.571 20.1074 120.64 20.1113 120.694 20.1191C120.749 20.1243 120.791 20.1335 120.819 20.1465C120.851 20.1595 120.873 20.1764 120.886 20.1973C120.899 20.2155 120.905 20.2376 120.905 20.2637V20.6973C120.996 20.5671 121.082 20.4603 121.163 20.377C121.244 20.291 121.321 20.2233 121.394 20.1738C121.466 20.1243 121.539 20.0905 121.612 20.0723C121.685 20.0514 121.758 20.041 121.831 20.041C121.865 20.041 121.901 20.0436 121.94 20.0488C121.979 20.0514 122.02 20.0579 122.062 20.0684C122.103 20.0762 122.14 20.0866 122.171 20.0996C122.202 20.11 122.224 20.1217 122.237 20.1348C122.253 20.1478 122.263 20.1621 122.269 20.1777C122.276 20.1934 122.283 20.2155 122.288 20.2441C122.293 20.2702 122.297 20.3105 122.3 20.3652C122.302 20.4199 122.304 20.4941 122.304 20.5879Z" fill="#090909"/>
<path d="M35.7153 36.3584C35.7153 36.8232 35.647 37.2393 35.5103 37.6064C35.3735 37.9736 35.1724 38.2842 34.9067 38.5381C34.6411 38.792 34.313 38.9854 33.9224 39.1182C33.5317 39.251 33.0825 39.3174 32.5747 39.3174C32.0981 39.3174 31.6704 39.2588 31.2915 39.1416C30.9126 39.0205 30.5923 38.8389 30.3306 38.5967C30.0688 38.3545 29.8677 38.0537 29.7271 37.6943C29.5903 37.3311 29.522 36.9072 29.522 36.4229V31.8115C29.522 31.7725 29.5337 31.7373 29.5571 31.7061C29.5806 31.6748 29.6216 31.6494 29.6802 31.6299C29.7427 31.6104 29.8228 31.5947 29.9204 31.583C30.0181 31.5713 30.1431 31.5654 30.2954 31.5654C30.4438 31.5654 30.5669 31.5713 30.6646 31.583C30.7622 31.5947 30.8403 31.6104 30.8989 31.6299C30.9575 31.6494 30.9985 31.6748 31.022 31.7061C31.0493 31.7373 31.063 31.7725 31.063 31.8115V36.2881C31.063 36.5889 31.1001 36.8506 31.1743 37.0732C31.2485 37.292 31.354 37.4736 31.4907 37.6182C31.6313 37.7627 31.7974 37.8721 31.9888 37.9463C32.1841 38.0166 32.4009 38.0518 32.6392 38.0518C32.8813 38.0518 33.0981 38.0146 33.2896 37.9404C33.481 37.8662 33.6431 37.7588 33.7759 37.6182C33.9087 37.4736 34.0103 37.2979 34.0806 37.0908C34.1548 36.8799 34.1919 36.6416 34.1919 36.376V31.8115C34.1919 31.7725 34.2036 31.7373 34.2271 31.7061C34.2505 31.6748 34.2915 31.6494 34.3501 31.6299C34.4087 31.6104 34.4868 31.5947 34.5845 31.583C34.686 31.5713 34.811 31.5654 34.9595 31.5654C35.1079 31.5654 35.229 31.5713 35.3228 31.583C35.4204 31.5947 35.4985 31.6104 35.5571 31.6299C35.6157 31.6494 35.6567 31.6748 35.6802 31.7061C35.7036 31.7373 35.7153 31.7725 35.7153 31.8115V36.3584ZM42.272 38.9834C42.272 39.0225 42.2603 39.0576 42.2368 39.0889C42.2134 39.1162 42.1743 39.1396 42.1196 39.1592C42.0649 39.1787 41.9888 39.1924 41.8911 39.2002C41.7974 39.2119 41.6802 39.2178 41.5396 39.2178C41.395 39.2178 41.2739 39.2119 41.1763 39.2002C41.0825 39.1924 41.0083 39.1787 40.9536 39.1592C40.8989 39.1396 40.8599 39.1162 40.8364 39.0889C40.813 39.0576 40.8013 39.0225 40.8013 38.9834V36.001C40.8013 35.7471 40.7817 35.5479 40.7427 35.4033C40.7075 35.2588 40.6548 35.1357 40.5845 35.0342C40.5142 34.9287 40.4224 34.8486 40.3091 34.7939C40.1997 34.7354 40.0708 34.7061 39.9224 34.7061C39.7349 34.7061 39.5454 34.7744 39.354 34.9111C39.1626 35.0479 38.9634 35.2471 38.7563 35.5088V38.9834C38.7563 39.0225 38.7446 39.0576 38.7212 39.0889C38.6978 39.1162 38.6567 39.1396 38.5981 39.1592C38.5435 39.1787 38.4692 39.1924 38.3755 39.2002C38.2817 39.2119 38.1626 39.2178 38.0181 39.2178C37.8735 39.2178 37.7544 39.2119 37.6606 39.2002C37.5669 39.1924 37.4907 39.1787 37.4321 39.1592C37.3774 39.1396 37.3384 39.1162 37.3149 39.0889C37.2915 39.0576 37.2798 39.0225 37.2798 38.9834V33.7568C37.2798 33.7178 37.2896 33.6846 37.3091 33.6572C37.3286 33.626 37.3638 33.6006 37.4146 33.5811C37.4653 33.5615 37.5298 33.5479 37.6079 33.54C37.6899 33.5283 37.7915 33.5225 37.9126 33.5225C38.0376 33.5225 38.1411 33.5283 38.2231 33.54C38.3052 33.5479 38.3677 33.5615 38.4106 33.5811C38.4575 33.6006 38.4907 33.626 38.5103 33.6572C38.5298 33.6846 38.5396 33.7178 38.5396 33.7568V34.3604C38.8286 34.0479 39.1216 33.8135 39.4185 33.6572C39.7192 33.501 40.0317 33.4229 40.356 33.4229C40.7114 33.4229 41.0103 33.4814 41.2524 33.5986C41.4985 33.7158 41.6958 33.876 41.8442 34.0791C41.9966 34.2783 42.106 34.5127 42.1724 34.7822C42.2388 35.0518 42.272 35.376 42.272 35.7549V38.9834ZM45.2017 38.9834C45.2017 39.0225 45.1899 39.0576 45.1665 39.0889C45.1431 39.1162 45.1021 39.1396 45.0435 39.1592C44.9888 39.1787 44.9146 39.1924 44.8208 39.2002C44.7271 39.2119 44.6079 39.2178 44.4634 39.2178C44.3188 39.2178 44.1997 39.2119 44.106 39.2002C44.0122 39.1924 43.936 39.1787 43.8774 39.1592C43.8228 39.1396 43.7837 39.1162 43.7603 39.0889C43.7368 39.0576 43.7251 39.0225 43.7251 38.9834V31.2783C43.7251 31.2393 43.7368 31.2041 43.7603 31.1729C43.7837 31.1416 43.8228 31.1162 43.8774 31.0967C43.936 31.0732 44.0122 31.0557 44.106 31.0439C44.1997 31.0322 44.3188 31.0264 44.4634 31.0264C44.6079 31.0264 44.7271 31.0322 44.8208 31.0439C44.9146 31.0557 44.9888 31.0732 45.0435 31.0967C45.1021 31.1162 45.1431 31.1416 45.1665 31.1729C45.1899 31.2041 45.2017 31.2393 45.2017 31.2783V38.9834ZM48.1548 38.9834C48.1548 39.0225 48.1431 39.0576 48.1196 39.0889C48.0962 39.1162 48.0552 39.1396 47.9966 39.1592C47.9419 39.1787 47.8677 39.1924 47.7739 39.2002C47.6802 39.2119 47.561 39.2178 47.4165 39.2178C47.272 39.2178 47.1528 39.2119 47.0591 39.2002C46.9653 39.1924 46.8892 39.1787 46.8306 39.1592C46.7759 39.1396 46.7368 39.1162 46.7134 39.0889C46.6899 39.0576 46.6782 39.0225 46.6782 38.9834V33.7686C46.6782 33.7295 46.6899 33.6963 46.7134 33.6689C46.7368 33.6377 46.7759 33.6123 46.8306 33.5928C46.8892 33.5693 46.9653 33.5518 47.0591 33.54C47.1528 33.5283 47.272 33.5225 47.4165 33.5225C47.561 33.5225 47.6802 33.5283 47.7739 33.54C47.8677 33.5518 47.9419 33.5693 47.9966 33.5928C48.0552 33.6123 48.0962 33.6377 48.1196 33.6689C48.1431 33.6963 48.1548 33.7295 48.1548 33.7686V38.9834ZM48.2661 31.9873C48.2661 32.2842 48.2056 32.4893 48.0845 32.6025C47.9634 32.7158 47.7388 32.7725 47.4106 32.7725C47.0786 32.7725 46.854 32.7178 46.7368 32.6084C46.6235 32.499 46.5669 32.3018 46.5669 32.0166C46.5669 31.7197 46.6255 31.5146 46.7427 31.4014C46.8638 31.2842 47.0903 31.2256 47.4224 31.2256C47.7505 31.2256 47.9731 31.2822 48.0903 31.3955C48.2075 31.5049 48.2661 31.7021 48.2661 31.9873ZM57.9458 38.9834C57.9458 39.0225 57.9341 39.0576 57.9106 39.0889C57.8872 39.1162 57.8481 39.1396 57.7935 39.1592C57.7388 39.1787 57.6646 39.1924 57.5708 39.2002C57.4771 39.2119 57.3579 39.2178 57.2134 39.2178C57.0649 39.2178 56.9438 39.2119 56.8501 39.2002C56.7563 39.1924 56.6802 39.1787 56.6216 39.1592C56.5669 39.1396 56.5278 39.1162 56.5044 39.0889C56.4849 39.0576 56.4751 39.0225 56.4751 38.9834V35.8838C56.4751 35.708 56.4575 35.5479 56.4224 35.4033C56.3911 35.2588 56.3403 35.1357 56.27 35.0342C56.2036 34.9287 56.1177 34.8486 56.0122 34.7939C55.9106 34.7354 55.7876 34.7061 55.6431 34.7061C55.4673 34.7061 55.2896 34.7744 55.1099 34.9111C54.9302 35.0479 54.7349 35.2471 54.5239 35.5088V38.9834C54.5239 39.0225 54.5122 39.0576 54.4888 39.0889C54.4653 39.1162 54.4243 39.1396 54.3657 39.1592C54.311 39.1787 54.2368 39.1924 54.1431 39.2002C54.0493 39.2119 53.9321 39.2178 53.7915 39.2178C53.647 39.2178 53.5278 39.2119 53.4341 39.2002C53.3403 39.1924 53.2642 39.1787 53.2056 39.1592C53.1509 39.1396 53.1118 39.1162 53.0884 39.0889C53.0649 39.0576 53.0532 39.0225 53.0532 38.9834V35.8838C53.0532 35.708 53.0356 35.5479 53.0005 35.4033C52.9692 35.2588 52.9204 35.1357 52.854 35.0342C52.7876 34.9287 52.7017 34.8486 52.5962 34.7939C52.4907 34.7354 52.3677 34.7061 52.2271 34.7061C52.0474 34.7061 51.8677 34.7744 51.688 34.9111C51.5083 35.0479 51.3149 35.2471 51.1079 35.5088V38.9834C51.1079 39.0225 51.0962 39.0576 51.0728 39.0889C51.0493 39.1162 51.0083 39.1396 50.9497 39.1592C50.895 39.1787 50.8208 39.1924 50.7271 39.2002C50.6333 39.2119 50.5142 39.2178 50.3696 39.2178C50.2251 39.2178 50.106 39.2119 50.0122 39.2002C49.9185 39.1924 49.8423 39.1787 49.7837 39.1592C49.729 39.1396 49.6899 39.1162 49.6665 39.0889C49.6431 39.0576 49.6313 39.0225 49.6313 38.9834V33.7568C49.6313 33.7178 49.6411 33.6846 49.6606 33.6572C49.6802 33.626 49.7153 33.6006 49.7661 33.5811C49.8169 33.5615 49.8813 33.5479 49.9595 33.54C50.0415 33.5283 50.1431 33.5225 50.2642 33.5225C50.3892 33.5225 50.4927 33.5283 50.5747 33.54C50.6567 33.5479 50.7192 33.5615 50.7622 33.5811C50.8091 33.6006 50.8423 33.626 50.8618 33.6572C50.8813 33.6846 50.8911 33.7178 50.8911 33.7568V34.3604C51.1802 34.0479 51.4673 33.8135 51.7524 33.6572C52.0415 33.501 52.3423 33.4229 52.6548 33.4229C52.8696 33.4229 53.063 33.4463 53.2349 33.4932C53.4067 33.5361 53.5591 33.6006 53.6919 33.6865C53.8286 33.7686 53.9458 33.8682 54.0435 33.9854C54.1411 34.1025 54.2231 34.2334 54.2896 34.3779C54.4458 34.21 54.5981 34.0654 54.7466 33.9443C54.8989 33.8232 55.0474 33.7256 55.1919 33.6514C55.3403 33.5732 55.4868 33.5166 55.6313 33.4814C55.7798 33.4424 55.9302 33.4229 56.0825 33.4229C56.4302 33.4229 56.7231 33.4814 56.9614 33.5986C57.1997 33.7158 57.3911 33.876 57.5356 34.0791C57.6841 34.2783 57.7896 34.5127 57.8521 34.7822C57.9146 35.0518 57.9458 35.3369 57.9458 35.6377V38.9834ZM60.8696 38.9834C60.8696 39.0225 60.8579 39.0576 60.8345 39.0889C60.811 39.1162 60.77 39.1396 60.7114 39.1592C60.6567 39.1787 60.5825 39.1924 60.4888 39.2002C60.395 39.2119 60.2759 39.2178 60.1313 39.2178C59.9868 39.2178 59.8677 39.2119 59.7739 39.2002C59.6802 39.1924 59.604 39.1787 59.5454 39.1592C59.4907 39.1396 59.4517 39.1162 59.4282 39.0889C59.4048 39.0576 59.3931 39.0225 59.3931 38.9834V33.7686C59.3931 33.7295 59.4048 33.6963 59.4282 33.6689C59.4517 33.6377 59.4907 33.6123 59.5454 33.5928C59.604 33.5693 59.6802 33.5518 59.7739 33.54C59.8677 33.5283 59.9868 33.5225 60.1313 33.5225C60.2759 33.5225 60.395 33.5283 60.4888 33.54C60.5825 33.5518 60.6567 33.5693 60.7114 33.5928C60.77 33.6123 60.811 33.6377 60.8345 33.6689C60.8579 33.6963 60.8696 33.7295 60.8696 33.7686V38.9834ZM60.981 31.9873C60.981 32.2842 60.9204 32.4893 60.7993 32.6025C60.6782 32.7158 60.4536 32.7725 60.1255 32.7725C59.7935 32.7725 59.5688 32.7178 59.4517 32.6084C59.3384 32.499 59.2817 32.3018 59.2817 32.0166C59.2817 31.7197 59.3403 31.5146 59.4575 31.4014C59.5786 31.2842 59.8052 31.2256 60.1372 31.2256C60.4653 31.2256 60.688 31.2822 60.8052 31.3955C60.9224 31.5049 60.981 31.7021 60.981 31.9873ZM65.4399 38.4678C65.4399 38.6396 65.4282 38.7725 65.4048 38.8662C65.3853 38.9561 65.3579 39.0205 65.3228 39.0596C65.2876 39.0947 65.2349 39.1279 65.1646 39.1592C65.0981 39.1865 65.0181 39.21 64.9243 39.2295C64.8345 39.2529 64.7349 39.2705 64.6255 39.2822C64.52 39.2939 64.4126 39.2998 64.3032 39.2998C64.0103 39.2998 63.7563 39.2627 63.5415 39.1885C63.3267 39.1143 63.1489 39.001 63.0083 38.8486C62.8677 38.6924 62.7642 38.4971 62.6978 38.2627C62.6313 38.0283 62.5981 37.751 62.5981 37.4307V34.7529H61.9712C61.897 34.7529 61.8403 34.708 61.8013 34.6182C61.7622 34.5244 61.7427 34.3701 61.7427 34.1553C61.7427 34.042 61.7466 33.9463 61.7544 33.8682C61.7661 33.79 61.7817 33.7295 61.8013 33.6865C61.8208 33.6396 61.8442 33.6064 61.8716 33.5869C61.9028 33.5674 61.938 33.5576 61.9771 33.5576H62.5981V32.3916C62.5981 32.3525 62.6079 32.3174 62.6274 32.2861C62.6509 32.2549 62.6899 32.2295 62.7446 32.21C62.8032 32.1865 62.8794 32.1709 62.9731 32.1631C63.0708 32.1514 63.1899 32.1455 63.3306 32.1455C63.4751 32.1455 63.5942 32.1514 63.688 32.1631C63.7856 32.1709 63.8618 32.1865 63.9165 32.21C63.9712 32.2295 64.0103 32.2549 64.0337 32.2861C64.0571 32.3174 64.0688 32.3525 64.0688 32.3916V33.5576H65.2056C65.2446 33.5576 65.2778 33.5674 65.3052 33.5869C65.3364 33.6064 65.3618 33.6396 65.3813 33.6865C65.4009 33.7295 65.4146 33.79 65.4224 33.8682C65.4341 33.9463 65.4399 34.042 65.4399 34.1553C65.4399 34.3701 65.4204 34.5244 65.3813 34.6182C65.3423 34.708 65.2856 34.7529 65.2114 34.7529H64.0688V37.208C64.0688 37.4932 64.1138 37.708 64.2036 37.8525C64.2935 37.9932 64.4536 38.0635 64.6841 38.0635C64.7622 38.0635 64.8325 38.0576 64.895 38.0459C64.9575 38.0303 65.0122 38.0146 65.0591 37.999C65.1099 37.9795 65.1509 37.9639 65.1821 37.9521C65.2173 37.9365 65.2485 37.9287 65.2759 37.9287C65.2993 37.9287 65.3208 37.9365 65.3403 37.9521C65.3638 37.9639 65.3813 37.9912 65.3931 38.0342C65.4048 38.0732 65.4146 38.1279 65.4224 38.1982C65.4341 38.2686 65.4399 38.3584 65.4399 38.4678ZM71.1821 36.2178C71.1821 36.3975 71.1411 36.5303 71.0591 36.6162C70.981 36.7021 70.8716 36.7451 70.731 36.7451H67.5493C67.5493 36.9678 67.5747 37.1709 67.6255 37.3545C67.6802 37.5342 67.7642 37.6885 67.8774 37.8174C67.9946 37.9424 68.1431 38.0381 68.3228 38.1045C68.5063 38.1709 68.7251 38.2041 68.979 38.2041C69.2368 38.2041 69.4634 38.1865 69.6587 38.1514C69.854 38.1123 70.022 38.0713 70.1626 38.0283C70.3071 37.9814 70.4263 37.9404 70.52 37.9053C70.6138 37.8662 70.6899 37.8467 70.7485 37.8467C70.7837 37.8467 70.813 37.8545 70.8364 37.8701C70.8599 37.8818 70.8794 37.9053 70.895 37.9404C70.9106 37.9756 70.9204 38.0264 70.9243 38.0928C70.9321 38.1553 70.936 38.2354 70.936 38.333C70.936 38.4189 70.9341 38.4932 70.9302 38.5557C70.9263 38.6143 70.9204 38.665 70.9126 38.708C70.9048 38.751 70.8931 38.7881 70.8774 38.8193C70.8618 38.8467 70.8403 38.874 70.813 38.9014C70.7896 38.9287 70.7212 38.9658 70.6079 39.0127C70.4946 39.0596 70.3501 39.1064 70.1743 39.1533C69.9985 39.1963 69.7974 39.2334 69.5708 39.2646C69.3442 39.2998 69.1021 39.3174 68.8442 39.3174C68.3794 39.3174 67.9712 39.2588 67.6196 39.1416C67.272 39.0244 66.981 38.8467 66.7466 38.6084C66.5122 38.3701 66.3364 38.0693 66.2192 37.7061C66.106 37.3428 66.0493 36.917 66.0493 36.4287C66.0493 35.9639 66.1099 35.5459 66.231 35.1748C66.3521 34.7998 66.5278 34.4834 66.7583 34.2256C66.9888 33.9639 67.2681 33.7646 67.5962 33.6279C67.9282 33.4912 68.3013 33.4229 68.7153 33.4229C69.1528 33.4229 69.5259 33.4873 69.8345 33.6162C70.147 33.7451 70.4028 33.9248 70.6021 34.1553C70.8013 34.3818 70.9478 34.6514 71.0415 34.9639C71.1353 35.2764 71.1821 35.6162 71.1821 35.9834V36.2178ZM69.7524 35.7959C69.7642 35.3818 69.6802 35.0576 69.5005 34.8232C69.3247 34.585 69.0513 34.4658 68.6802 34.4658C68.4927 34.4658 68.3286 34.501 68.188 34.5713C68.0513 34.6416 67.936 34.7373 67.8423 34.8584C67.7524 34.9756 67.6821 35.1162 67.6313 35.2803C67.5845 35.4404 67.5571 35.6123 67.5493 35.7959H69.7524ZM77.3579 38.9834C77.3579 39.0264 77.3481 39.0635 77.3286 39.0947C77.3091 39.1221 77.2759 39.1455 77.229 39.165C77.1821 39.1846 77.1177 39.1982 77.0356 39.2061C76.9575 39.2139 76.8599 39.2178 76.7427 39.2178C76.6177 39.2178 76.5161 39.2139 76.438 39.2061C76.3599 39.1982 76.2954 39.1846 76.2446 39.165C76.1978 39.1455 76.1626 39.1221 76.1392 39.0947C76.1196 39.0635 76.1099 39.0264 76.1099 38.9834V38.4033C75.8403 38.6924 75.5571 38.917 75.2603 39.0771C74.9673 39.2373 74.6411 39.3174 74.2817 39.3174C73.8833 39.3174 73.5454 39.2412 73.2681 39.0889C72.9946 38.9326 72.77 38.7236 72.5942 38.4619C72.4224 38.2002 72.2974 37.8955 72.2192 37.5479C72.1411 37.1963 72.1021 36.8271 72.1021 36.4404C72.1021 35.9756 72.1509 35.5576 72.2485 35.1865C72.3501 34.8154 72.4966 34.499 72.688 34.2373C72.8794 33.9756 73.1177 33.7744 73.4028 33.6338C73.688 33.4932 74.0161 33.4229 74.3872 33.4229C74.6802 33.4229 74.9458 33.4834 75.1841 33.6045C75.4224 33.7217 75.6587 33.8955 75.8931 34.126V31.2959C75.8931 31.2568 75.9028 31.2217 75.9224 31.1904C75.9458 31.1592 75.9849 31.1338 76.0396 31.1143C76.0981 31.0908 76.1743 31.0732 76.2681 31.0615C76.3618 31.0498 76.481 31.0439 76.6255 31.0439C76.77 31.0439 76.8892 31.0498 76.9829 31.0615C77.0767 31.0732 77.1509 31.0908 77.2056 31.1143C77.2603 31.1338 77.2993 31.1592 77.3228 31.1904C77.3462 31.2217 77.3579 31.2568 77.3579 31.2959V38.9834ZM75.8931 35.4912C75.6821 35.2256 75.479 35.0225 75.2837 34.8818C75.0923 34.7412 74.8911 34.6709 74.6802 34.6709C74.4888 34.6709 74.3228 34.7197 74.1821 34.8174C74.0454 34.9111 73.9341 35.0381 73.8481 35.1982C73.7661 35.3584 73.7036 35.5381 73.6606 35.7373C73.6216 35.9326 73.6021 36.1338 73.6021 36.3408C73.6021 36.5596 73.6196 36.7725 73.6548 36.9795C73.6899 37.1865 73.7466 37.3721 73.8247 37.5361C73.9067 37.6963 74.0142 37.8252 74.147 37.9229C74.2798 38.0205 74.4478 38.0693 74.6509 38.0693C74.7524 38.0693 74.8501 38.0557 74.9438 38.0283C75.0415 37.9971 75.1392 37.9482 75.2368 37.8818C75.3384 37.8154 75.4419 37.7295 75.5474 37.624C75.6528 37.5146 75.7681 37.3818 75.8931 37.2256V35.4912ZM85.9067 32.2334C85.9067 32.3506 85.9009 32.4502 85.8892 32.5322C85.8813 32.6104 85.8657 32.6729 85.8423 32.7197C85.8228 32.7666 85.7993 32.8018 85.772 32.8252C85.7446 32.8486 85.7134 32.8604 85.6782 32.8604H83.1997V34.8994H85.5259C85.561 34.8994 85.5923 34.9092 85.6196 34.9287C85.647 34.9482 85.6704 34.9814 85.6899 35.0283C85.7134 35.0752 85.729 35.1377 85.7368 35.2158C85.7485 35.2939 85.7544 35.3916 85.7544 35.5088C85.7544 35.626 85.7485 35.7236 85.7368 35.8018C85.729 35.8799 85.7134 35.9443 85.6899 35.9951C85.6704 36.0459 85.647 36.083 85.6196 36.1064C85.5923 36.126 85.561 36.1357 85.5259 36.1357H83.1997V38.96C83.1997 39.0029 83.188 39.04 83.1646 39.0713C83.1411 39.1025 83.0981 39.1299 83.0356 39.1533C82.9771 39.1729 82.8989 39.1885 82.8013 39.2002C82.7036 39.2119 82.5786 39.2178 82.4263 39.2178C82.2778 39.2178 82.1528 39.2119 82.0513 39.2002C81.9536 39.1885 81.8755 39.1729 81.8169 39.1533C81.7583 39.1299 81.7153 39.1025 81.688 39.0713C81.6646 39.04 81.6528 39.0029 81.6528 38.96V32.0869C81.6528 31.915 81.6958 31.792 81.7817 31.7178C81.8716 31.6396 81.981 31.6006 82.1099 31.6006H85.6782C85.7134 31.6006 85.7446 31.6123 85.772 31.6357C85.7993 31.6553 85.8228 31.6904 85.8423 31.7412C85.8657 31.7881 85.8813 31.8525 85.8892 31.9346C85.9009 32.0166 85.9067 32.1162 85.9067 32.2334ZM90.4302 34.2432C90.4302 34.3838 90.4263 34.499 90.4185 34.5889C90.4106 34.6787 90.3989 34.749 90.3833 34.7998C90.3677 34.8506 90.3462 34.8857 90.3188 34.9053C90.2954 34.9248 90.2642 34.9346 90.2251 34.9346C90.1938 34.9346 90.1587 34.9287 90.1196 34.917C90.0806 34.9014 90.0356 34.8857 89.9849 34.8701C89.938 34.8545 89.8853 34.8408 89.8267 34.8291C89.7681 34.8135 89.7036 34.8057 89.6333 34.8057C89.5513 34.8057 89.4692 34.8232 89.3872 34.8584C89.3052 34.8896 89.2192 34.9404 89.1294 35.0107C89.0435 35.0811 88.9517 35.1748 88.854 35.292C88.7603 35.4092 88.6587 35.5537 88.5493 35.7256V38.9834C88.5493 39.0225 88.5376 39.0576 88.5142 39.0889C88.4907 39.1162 88.4497 39.1396 88.3911 39.1592C88.3364 39.1787 88.2622 39.1924 88.1685 39.2002C88.0747 39.2119 87.9556 39.2178 87.811 39.2178C87.6665 39.2178 87.5474 39.2119 87.4536 39.2002C87.3599 39.1924 87.2837 39.1787 87.2251 39.1592C87.1704 39.1396 87.1313 39.1162 87.1079 39.0889C87.0845 39.0576 87.0728 39.0225 87.0728 38.9834V33.7568C87.0728 33.7178 87.0825 33.6846 87.1021 33.6572C87.1216 33.626 87.1567 33.6006 87.2075 33.5811C87.2583 33.5615 87.3228 33.5479 87.4009 33.54C87.4829 33.5283 87.5845 33.5225 87.7056 33.5225C87.8306 33.5225 87.9341 33.5283 88.0161 33.54C88.0981 33.5479 88.1606 33.5615 88.2036 33.5811C88.2505 33.6006 88.2837 33.626 88.3032 33.6572C88.3228 33.6846 88.3325 33.7178 88.3325 33.7568V34.4072C88.4692 34.2119 88.5981 34.0518 88.7192 33.9268C88.8403 33.7979 88.9556 33.6963 89.0649 33.6221C89.1743 33.5479 89.2837 33.4971 89.3931 33.4697C89.5024 33.4385 89.6118 33.4229 89.7212 33.4229C89.772 33.4229 89.8267 33.4268 89.8853 33.4346C89.9438 33.4385 90.0044 33.4482 90.0669 33.4639C90.1294 33.4756 90.1841 33.4912 90.231 33.5107C90.2778 33.5264 90.311 33.5439 90.3306 33.5635C90.354 33.583 90.3696 33.6045 90.3774 33.6279C90.3892 33.6514 90.3989 33.6846 90.4067 33.7275C90.4146 33.7666 90.4204 33.8271 90.4243 33.9092C90.4282 33.9912 90.4302 34.1025 90.4302 34.2432ZM96.0259 36.2178C96.0259 36.3975 95.9849 36.5303 95.9028 36.6162C95.8247 36.7021 95.7153 36.7451 95.5747 36.7451H92.3931C92.3931 36.9678 92.4185 37.1709 92.4692 37.3545C92.5239 37.5342 92.6079 37.6885 92.7212 37.8174C92.8384 37.9424 92.9868 38.0381 93.1665 38.1045C93.3501 38.1709 93.5688 38.2041 93.8228 38.2041C94.0806 38.2041 94.3071 38.1865 94.5024 38.1514C94.6978 38.1123 94.8657 38.0713 95.0063 38.0283C95.1509 37.9814 95.27 37.9404 95.3638 37.9053C95.4575 37.8662 95.5337 37.8467 95.5923 37.8467C95.6274 37.8467 95.6567 37.8545 95.6802 37.8701C95.7036 37.8818 95.7231 37.9053 95.7388 37.9404C95.7544 37.9756 95.7642 38.0264 95.7681 38.0928C95.7759 38.1553 95.7798 38.2354 95.7798 38.333C95.7798 38.4189 95.7778 38.4932 95.7739 38.5557C95.77 38.6143 95.7642 38.665 95.7563 38.708C95.7485 38.751 95.7368 38.7881 95.7212 38.8193C95.7056 38.8467 95.6841 38.874 95.6567 38.9014C95.6333 38.9287 95.5649 38.9658 95.4517 39.0127C95.3384 39.0596 95.1938 39.1064 95.0181 39.1533C94.8423 39.1963 94.6411 39.2334 94.4146 39.2646C94.188 39.2998 93.9458 39.3174 93.688 39.3174C93.2231 39.3174 92.8149 39.2588 92.4634 39.1416C92.1157 39.0244 91.8247 38.8467 91.5903 38.6084C91.356 38.3701 91.1802 38.0693 91.063 37.7061C90.9497 37.3428 90.8931 36.917 90.8931 36.4287C90.8931 35.9639 90.9536 35.5459 91.0747 35.1748C91.1958 34.7998 91.3716 34.4834 91.6021 34.2256C91.8325 33.9639 92.1118 33.7646 92.4399 33.6279C92.772 33.4912 93.145 33.4229 93.5591 33.4229C93.9966 33.4229 94.3696 33.4873 94.6782 33.6162C94.9907 33.7451 95.2466 33.9248 95.4458 34.1553C95.645 34.3818 95.7915 34.6514 95.8853 34.9639C95.979 35.2764 96.0259 35.6162 96.0259 35.9834V36.2178ZM94.5962 35.7959C94.6079 35.3818 94.5239 35.0576 94.3442 34.8232C94.1685 34.585 93.895 34.4658 93.5239 34.4658C93.3364 34.4658 93.1724 34.501 93.0317 34.5713C92.895 34.6416 92.7798 34.7373 92.686 34.8584C92.5962 34.9756 92.5259 35.1162 92.4751 35.2803C92.4282 35.4404 92.4009 35.6123 92.3931 35.7959H94.5962ZM102.073 36.2178C102.073 36.3975 102.032 36.5303 101.95 36.6162C101.872 36.7021 101.762 36.7451 101.622 36.7451H98.4399C98.4399 36.9678 98.4653 37.1709 98.5161 37.3545C98.5708 37.5342 98.6548 37.6885 98.7681 37.8174C98.8853 37.9424 99.0337 38.0381 99.2134 38.1045C99.397 38.1709 99.6157 38.2041 99.8696 38.2041C100.127 38.2041 100.354 38.1865 100.549 38.1514C100.745 38.1123 100.913 38.0713 101.053 38.0283C101.198 37.9814 101.317 37.9404 101.411 37.9053C101.504 37.8662 101.581 37.8467 101.639 37.8467C101.674 37.8467 101.704 37.8545 101.727 37.8701C101.75 37.8818 101.77 37.9053 101.786 37.9404C101.801 37.9756 101.811 38.0264 101.815 38.0928C101.823 38.1553 101.827 38.2354 101.827 38.333C101.827 38.4189 101.825 38.4932 101.821 38.5557C101.817 38.6143 101.811 38.665 101.803 38.708C101.795 38.751 101.784 38.7881 101.768 38.8193C101.752 38.8467 101.731 38.874 101.704 38.9014C101.68 38.9287 101.612 38.9658 101.499 39.0127C101.385 39.0596 101.241 39.1064 101.065 39.1533C100.889 39.1963 100.688 39.2334 100.461 39.2646C100.235 39.2998 99.9927 39.3174 99.7349 39.3174C99.27 39.3174 98.8618 39.2588 98.5103 39.1416C98.1626 39.0244 97.8716 38.8467 97.6372 38.6084C97.4028 38.3701 97.2271 38.0693 97.1099 37.7061C96.9966 37.3428 96.9399 36.917 96.9399 36.4287C96.9399 35.9639 97.0005 35.5459 97.1216 35.1748C97.2427 34.7998 97.4185 34.4834 97.6489 34.2256C97.8794 33.9639 98.1587 33.7646 98.4868 33.6279C98.8188 33.4912 99.1919 33.4229 99.606 33.4229C100.043 33.4229 100.417 33.4873 100.725 33.6162C101.038 33.7451 101.293 33.9248 101.493 34.1553C101.692 34.3818 101.838 34.6514 101.932 34.9639C102.026 35.2764 102.073 35.6162 102.073 35.9834V36.2178ZM100.643 35.7959C100.655 35.3818 100.571 35.0576 100.391 34.8232C100.215 34.585 99.9419 34.4658 99.5708 34.4658C99.3833 34.4658 99.2192 34.501 99.0786 34.5713C98.9419 34.6416 98.8267 34.7373 98.7329 34.8584C98.6431 34.9756 98.5728 35.1162 98.522 35.2803C98.4751 35.4404 98.4478 35.6123 98.4399 35.7959H100.643ZM110.592 36.9092C110.592 37.3076 110.518 37.6572 110.37 37.958C110.221 38.2588 110.02 38.5107 109.766 38.7139C109.512 38.9131 109.215 39.0635 108.875 39.165C108.536 39.2666 108.172 39.3174 107.786 39.3174C107.524 39.3174 107.28 39.2959 107.053 39.2529C106.831 39.21 106.633 39.1592 106.461 39.1006C106.29 39.0381 106.145 38.9736 106.028 38.9072C105.915 38.8408 105.833 38.7822 105.782 38.7314C105.731 38.6807 105.694 38.6084 105.67 38.5146C105.651 38.417 105.641 38.2783 105.641 38.0986C105.641 37.9775 105.645 37.876 105.653 37.7939C105.661 37.7119 105.672 37.6455 105.688 37.5947C105.708 37.5439 105.731 37.5088 105.758 37.4893C105.79 37.4658 105.825 37.4541 105.864 37.4541C105.918 37.4541 105.995 37.4873 106.092 37.5537C106.194 37.6162 106.323 37.6865 106.479 37.7646C106.635 37.8428 106.821 37.915 107.036 37.9814C107.254 38.0439 107.506 38.0752 107.792 38.0752C107.979 38.0752 108.147 38.0537 108.295 38.0107C108.444 37.9639 108.569 37.8994 108.67 37.8174C108.776 37.7354 108.856 37.6338 108.911 37.5127C108.965 37.3916 108.993 37.2568 108.993 37.1084C108.993 36.9365 108.946 36.79 108.852 36.6689C108.758 36.5439 108.635 36.4346 108.483 36.3408C108.334 36.2432 108.165 36.1533 107.973 36.0713C107.782 35.9854 107.584 35.8955 107.381 35.8018C107.178 35.708 106.981 35.6025 106.79 35.4854C106.598 35.3643 106.426 35.2217 106.274 35.0576C106.125 34.8896 106.004 34.6924 105.911 34.4658C105.817 34.2393 105.77 33.9678 105.77 33.6514C105.77 33.2881 105.836 32.9697 105.969 32.6963C106.106 32.4189 106.288 32.1904 106.514 32.0107C106.745 31.8271 107.014 31.6904 107.323 31.6006C107.635 31.5107 107.965 31.4658 108.313 31.4658C108.493 31.4658 108.672 31.4795 108.852 31.5068C109.032 31.5342 109.2 31.5713 109.356 31.6182C109.512 31.665 109.651 31.7178 109.772 31.7764C109.893 31.835 109.973 31.8838 110.012 31.9229C110.051 31.9619 110.077 31.9951 110.088 32.0225C110.104 32.0498 110.116 32.0869 110.124 32.1338C110.135 32.1768 110.143 32.2334 110.147 32.3037C110.151 32.3701 110.153 32.4541 110.153 32.5557C110.153 32.6689 110.149 32.7646 110.141 32.8428C110.137 32.9209 110.127 32.9854 110.112 33.0361C110.1 33.0869 110.081 33.124 110.053 33.1475C110.03 33.1709 109.997 33.1826 109.954 33.1826C109.911 33.1826 109.842 33.1553 109.749 33.1006C109.655 33.0459 109.54 32.9873 109.403 32.9248C109.266 32.8584 109.108 32.7998 108.928 32.749C108.749 32.6943 108.551 32.667 108.336 32.667C108.168 32.667 108.022 32.6885 107.897 32.7314C107.772 32.7705 107.667 32.8271 107.581 32.9014C107.499 32.9717 107.436 33.0576 107.393 33.1592C107.354 33.2607 107.334 33.3682 107.334 33.4814C107.334 33.6494 107.379 33.7959 107.469 33.9209C107.563 34.042 107.686 34.1514 107.838 34.249C107.995 34.3428 108.17 34.4326 108.366 34.5186C108.561 34.6006 108.76 34.6885 108.963 34.7822C109.167 34.876 109.366 34.9834 109.561 35.1045C109.756 35.2217 109.93 35.3643 110.083 35.5322C110.235 35.6963 110.358 35.8916 110.452 36.1182C110.545 36.3408 110.592 36.6045 110.592 36.9092ZM116.51 36.2178C116.51 36.3975 116.469 36.5303 116.387 36.6162C116.309 36.7021 116.2 36.7451 116.059 36.7451H112.877C112.877 36.9678 112.903 37.1709 112.954 37.3545C113.008 37.5342 113.092 37.6885 113.206 37.8174C113.323 37.9424 113.471 38.0381 113.651 38.1045C113.834 38.1709 114.053 38.2041 114.307 38.2041C114.565 38.2041 114.792 38.1865 114.987 38.1514C115.182 38.1123 115.35 38.0713 115.491 38.0283C115.635 37.9814 115.754 37.9404 115.848 37.9053C115.942 37.8662 116.018 37.8467 116.077 37.8467C116.112 37.8467 116.141 37.8545 116.165 37.8701C116.188 37.8818 116.208 37.9053 116.223 37.9404C116.239 37.9756 116.249 38.0264 116.252 38.0928C116.26 38.1553 116.264 38.2354 116.264 38.333C116.264 38.4189 116.262 38.4932 116.258 38.5557C116.254 38.6143 116.249 38.665 116.241 38.708C116.233 38.751 116.221 38.7881 116.206 38.8193C116.19 38.8467 116.168 38.874 116.141 38.9014C116.118 38.9287 116.049 38.9658 115.936 39.0127C115.823 39.0596 115.678 39.1064 115.502 39.1533C115.327 39.1963 115.125 39.2334 114.899 39.2646C114.672 39.2998 114.43 39.3174 114.172 39.3174C113.708 39.3174 113.299 39.2588 112.948 39.1416C112.6 39.0244 112.309 38.8467 112.075 38.6084C111.84 38.3701 111.665 38.0693 111.547 37.7061C111.434 37.3428 111.377 36.917 111.377 36.4287C111.377 35.9639 111.438 35.5459 111.559 35.1748C111.68 34.7998 111.856 34.4834 112.086 34.2256C112.317 33.9639 112.596 33.7646 112.924 33.6279C113.256 33.4912 113.629 33.4229 114.043 33.4229C114.481 33.4229 114.854 33.4873 115.163 33.6162C115.475 33.7451 115.731 33.9248 115.93 34.1553C116.129 34.3818 116.276 34.6514 116.37 34.9639C116.463 35.2764 116.51 35.6162 116.51 35.9834V36.2178ZM115.081 35.7959C115.092 35.3818 115.008 35.0576 114.829 34.8232C114.653 34.585 114.379 34.4658 114.008 34.4658C113.821 34.4658 113.657 34.501 113.516 34.5713C113.379 34.6416 113.264 34.7373 113.17 34.8584C113.081 34.9756 113.01 35.1162 112.959 35.2803C112.913 35.4404 112.885 35.6123 112.877 35.7959H115.081ZM121.086 34.2432C121.086 34.3838 121.083 34.499 121.075 34.5889C121.067 34.6787 121.055 34.749 121.04 34.7998C121.024 34.8506 121.002 34.8857 120.975 34.9053C120.952 34.9248 120.92 34.9346 120.881 34.9346C120.85 34.9346 120.815 34.9287 120.776 34.917C120.737 34.9014 120.692 34.8857 120.641 34.8701C120.594 34.8545 120.542 34.8408 120.483 34.8291C120.424 34.8135 120.36 34.8057 120.29 34.8057C120.208 34.8057 120.125 34.8232 120.043 34.8584C119.961 34.8896 119.875 34.9404 119.786 35.0107C119.7 35.0811 119.608 35.1748 119.51 35.292C119.417 35.4092 119.315 35.5537 119.206 35.7256V38.9834C119.206 39.0225 119.194 39.0576 119.17 39.0889C119.147 39.1162 119.106 39.1396 119.047 39.1592C118.993 39.1787 118.918 39.1924 118.825 39.2002C118.731 39.2119 118.612 39.2178 118.467 39.2178C118.323 39.2178 118.204 39.2119 118.11 39.2002C118.016 39.1924 117.94 39.1787 117.881 39.1592C117.827 39.1396 117.788 39.1162 117.764 39.0889C117.741 39.0576 117.729 39.0225 117.729 38.9834V33.7568C117.729 33.7178 117.739 33.6846 117.758 33.6572C117.778 33.626 117.813 33.6006 117.864 33.5811C117.915 33.5615 117.979 33.5479 118.057 33.54C118.139 33.5283 118.241 33.5225 118.362 33.5225C118.487 33.5225 118.59 33.5283 118.672 33.54C118.754 33.5479 118.817 33.5615 118.86 33.5811C118.907 33.6006 118.94 33.626 118.959 33.6572C118.979 33.6846 118.989 33.7178 118.989 33.7568V34.4072C119.125 34.2119 119.254 34.0518 119.375 33.9268C119.497 33.7979 119.612 33.6963 119.721 33.6221C119.831 33.5479 119.94 33.4971 120.049 33.4697C120.159 33.4385 120.268 33.4229 120.377 33.4229C120.428 33.4229 120.483 33.4268 120.542 33.4346C120.6 33.4385 120.661 33.4482 120.723 33.4639C120.786 33.4756 120.84 33.4912 120.887 33.5107C120.934 33.5264 120.967 33.5439 120.987 33.5635C121.01 33.583 121.026 33.6045 121.034 33.6279C121.045 33.6514 121.055 33.6846 121.063 33.7275C121.071 33.7666 121.077 33.8271 121.081 33.9092C121.084 33.9912 121.086 34.1025 121.086 34.2432ZM126.911 33.751C126.911 33.7705 126.909 33.7939 126.905 33.8213C126.905 33.8486 126.901 33.8799 126.893 33.915C126.889 33.9463 126.881 33.9834 126.87 34.0264C126.862 34.0693 126.85 34.1182 126.834 34.1729L125.264 38.9014C125.245 38.9678 125.217 39.0225 125.182 39.0654C125.151 39.1045 125.096 39.1357 125.018 39.1592C124.944 39.1826 124.84 39.1982 124.708 39.2061C124.579 39.2139 124.409 39.2178 124.198 39.2178C123.991 39.2178 123.821 39.2119 123.688 39.2002C123.559 39.1924 123.458 39.1768 123.383 39.1533C123.309 39.1299 123.254 39.0986 123.219 39.0596C123.188 39.0166 123.163 38.9639 123.143 38.9014L121.573 34.1729C121.549 34.0947 121.53 34.0244 121.514 33.9619C121.502 33.8994 121.495 33.8545 121.491 33.8271C121.491 33.7998 121.491 33.7744 121.491 33.751C121.491 33.7119 121.5 33.6787 121.52 33.6514C121.543 33.6201 121.583 33.5947 121.637 33.5752C121.692 33.5557 121.766 33.542 121.86 33.5342C121.958 33.5264 122.079 33.5225 122.223 33.5225C122.383 33.5225 122.512 33.5283 122.61 33.54C122.708 33.5479 122.784 33.5615 122.838 33.5811C122.897 33.5967 122.938 33.6221 122.961 33.6572C122.985 33.6885 123.004 33.7275 123.02 33.7744L124.209 37.6123L124.245 37.7588L124.28 37.6123L125.452 33.7744C125.463 33.7275 125.481 33.6885 125.504 33.6572C125.532 33.6221 125.573 33.5967 125.627 33.5811C125.682 33.5615 125.754 33.5479 125.844 33.54C125.938 33.5283 126.059 33.5225 126.208 33.5225C126.352 33.5225 126.469 33.5264 126.559 33.5342C126.653 33.542 126.725 33.5557 126.776 33.5752C126.827 33.5947 126.862 33.6201 126.881 33.6514C126.901 33.6787 126.911 33.7119 126.911 33.751ZM129.26 38.9834C129.26 39.0225 129.249 39.0576 129.225 39.0889C129.202 39.1162 129.161 39.1396 129.102 39.1592C129.047 39.1787 128.973 39.1924 128.879 39.2002C128.786 39.2119 128.667 39.2178 128.522 39.2178C128.377 39.2178 128.258 39.2119 128.165 39.2002C128.071 39.1924 127.995 39.1787 127.936 39.1592C127.881 39.1396 127.842 39.1162 127.819 39.0889C127.795 39.0576 127.784 39.0225 127.784 38.9834V33.7686C127.784 33.7295 127.795 33.6963 127.819 33.6689C127.842 33.6377 127.881 33.6123 127.936 33.5928C127.995 33.5693 128.071 33.5518 128.165 33.54C128.258 33.5283 128.377 33.5225 128.522 33.5225C128.667 33.5225 128.786 33.5283 128.879 33.54C128.973 33.5518 129.047 33.5693 129.102 33.5928C129.161 33.6123 129.202 33.6377 129.225 33.6689C129.249 33.6963 129.26 33.7295 129.26 33.7686V38.9834ZM129.372 31.9873C129.372 32.2842 129.311 32.4893 129.19 32.6025C129.069 32.7158 128.844 32.7725 128.516 32.7725C128.184 32.7725 127.959 32.7178 127.842 32.6084C127.729 32.499 127.672 32.3018 127.672 32.0166C127.672 31.7197 127.731 31.5146 127.848 31.4014C127.969 31.2842 128.196 31.2256 128.528 31.2256C128.856 31.2256 129.079 31.2822 129.196 31.3955C129.313 31.5049 129.372 31.7021 129.372 31.9873ZM134.692 38.1514C134.692 38.2529 134.688 38.3389 134.68 38.4092C134.676 38.4756 134.668 38.5322 134.657 38.5791C134.649 38.626 134.637 38.665 134.622 38.6963C134.61 38.7236 134.581 38.7607 134.534 38.8076C134.487 38.8506 134.407 38.9053 134.293 38.9717C134.18 39.0342 134.051 39.0908 133.907 39.1416C133.762 39.1924 133.604 39.2334 133.432 39.2646C133.264 39.2959 133.09 39.3115 132.911 39.3115C132.508 39.3115 132.151 39.249 131.838 39.124C131.53 38.999 131.27 38.8154 131.059 38.5732C130.848 38.3271 130.688 38.0283 130.579 37.6768C130.473 37.3252 130.42 36.9229 130.42 36.4697C130.42 35.9463 130.485 35.4951 130.614 35.1162C130.747 34.7334 130.93 34.417 131.165 34.167C131.399 33.917 131.676 33.7314 131.997 33.6104C132.317 33.4893 132.668 33.4287 133.051 33.4287C133.208 33.4287 133.36 33.4424 133.508 33.4697C133.661 33.4971 133.801 33.5342 133.93 33.5811C134.063 33.6279 134.18 33.6807 134.282 33.7393C134.387 33.7979 134.461 33.8486 134.504 33.8916C134.547 33.9346 134.577 33.9717 134.592 34.0029C134.612 34.0303 134.625 34.0674 134.633 34.1143C134.645 34.1611 134.653 34.2197 134.657 34.29C134.665 34.3564 134.668 34.4385 134.668 34.5361C134.668 34.7627 134.649 34.9229 134.61 35.0166C134.571 35.1064 134.52 35.1514 134.458 35.1514C134.391 35.1514 134.321 35.124 134.247 35.0693C134.172 35.0146 134.084 34.9541 133.983 34.8877C133.881 34.8213 133.76 34.7607 133.62 34.7061C133.479 34.6514 133.311 34.624 133.116 34.624C132.733 34.624 132.44 34.7725 132.237 35.0693C132.034 35.3623 131.932 35.7939 131.932 36.3643C131.932 36.6455 131.958 36.8936 132.008 37.1084C132.059 37.3232 132.133 37.5029 132.231 37.6475C132.333 37.792 132.458 37.9014 132.606 37.9756C132.758 38.0459 132.934 38.0811 133.133 38.0811C133.336 38.0811 133.51 38.0518 133.655 37.9932C133.803 37.9307 133.932 37.8623 134.042 37.7881C134.151 37.7139 134.243 37.6475 134.317 37.5889C134.391 37.5264 134.454 37.4951 134.504 37.4951C134.54 37.4951 134.569 37.5049 134.592 37.5244C134.616 37.5439 134.633 37.5811 134.645 37.6357C134.661 37.6865 134.672 37.7529 134.68 37.835C134.688 37.917 134.692 38.0225 134.692 38.1514ZM140.592 36.2178C140.592 36.3975 140.551 36.5303 140.469 36.6162C140.391 36.7021 140.282 36.7451 140.141 36.7451H136.959C136.959 36.9678 136.985 37.1709 137.036 37.3545C137.09 37.5342 137.174 37.6885 137.288 37.8174C137.405 37.9424 137.553 38.0381 137.733 38.1045C137.917 38.1709 138.135 38.2041 138.389 38.2041C138.647 38.2041 138.874 38.1865 139.069 38.1514C139.264 38.1123 139.432 38.0713 139.573 38.0283C139.717 37.9814 139.836 37.9404 139.93 37.9053C140.024 37.8662 140.1 37.8467 140.159 37.8467C140.194 37.8467 140.223 37.8545 140.247 37.8701C140.27 37.8818 140.29 37.9053 140.305 37.9404C140.321 37.9756 140.331 38.0264 140.334 38.0928C140.342 38.1553 140.346 38.2354 140.346 38.333C140.346 38.4189 140.344 38.4932 140.34 38.5557C140.336 38.6143 140.331 38.665 140.323 38.708C140.315 38.751 140.303 38.7881 140.288 38.8193C140.272 38.8467 140.25 38.874 140.223 38.9014C140.2 38.9287 140.131 38.9658 140.018 39.0127C139.905 39.0596 139.76 39.1064 139.584 39.1533C139.409 39.1963 139.208 39.2334 138.981 39.2646C138.754 39.2998 138.512 39.3174 138.254 39.3174C137.79 39.3174 137.381 39.2588 137.03 39.1416C136.682 39.0244 136.391 38.8467 136.157 38.6084C135.922 38.3701 135.747 38.0693 135.629 37.7061C135.516 37.3428 135.459 36.917 135.459 36.4287C135.459 35.9639 135.52 35.5459 135.641 35.1748C135.762 34.7998 135.938 34.4834 136.168 34.2256C136.399 33.9639 136.678 33.7646 137.006 33.6279C137.338 33.4912 137.711 33.4229 138.125 33.4229C138.563 33.4229 138.936 33.4873 139.245 33.6162C139.557 33.7451 139.813 33.9248 140.012 34.1553C140.211 34.3818 140.358 34.6514 140.452 34.9639C140.545 35.2764 140.592 35.6162 140.592 35.9834V36.2178ZM139.163 35.7959C139.174 35.3818 139.09 35.0576 138.911 34.8232C138.735 34.585 138.461 34.4658 138.09 34.4658C137.903 34.4658 137.739 34.501 137.598 34.5713C137.461 34.6416 137.346 34.7373 137.252 34.8584C137.163 34.9756 137.092 35.1162 137.042 35.2803C136.995 35.4404 136.967 35.6123 136.959 35.7959H139.163ZM149.809 33.9033C149.809 34.3291 149.743 34.7061 149.61 35.0342C149.477 35.3623 149.284 35.6396 149.03 35.8662C148.776 36.0889 148.463 36.2588 148.092 36.376C147.725 36.4932 147.292 36.5518 146.792 36.5518H146.159V38.9717C146.159 39.0107 146.145 39.0459 146.118 39.0771C146.094 39.1084 146.053 39.1338 145.995 39.1533C145.936 39.1729 145.858 39.1885 145.76 39.2002C145.663 39.2119 145.538 39.2178 145.385 39.2178C145.237 39.2178 145.112 39.2119 145.01 39.2002C144.913 39.1885 144.834 39.1729 144.776 39.1533C144.717 39.1338 144.676 39.1084 144.653 39.0771C144.629 39.0459 144.618 39.0107 144.618 38.9717V32.1514C144.618 31.9678 144.665 31.8311 144.758 31.7412C144.856 31.6475 144.983 31.6006 145.139 31.6006H146.926C147.106 31.6006 147.276 31.6084 147.436 31.624C147.6 31.6357 147.795 31.665 148.022 31.7119C148.249 31.7549 148.477 31.8369 148.708 31.958C148.942 32.0791 149.141 32.2334 149.305 32.4209C149.469 32.6045 149.594 32.8213 149.68 33.0713C149.766 33.3174 149.809 33.5947 149.809 33.9033ZM148.198 34.0146C148.198 33.749 148.151 33.5303 148.057 33.3584C147.963 33.1865 147.848 33.0596 147.711 32.9775C147.575 32.8955 147.43 32.8447 147.278 32.8252C147.129 32.8018 146.975 32.79 146.815 32.79H146.159V35.3623H146.85C147.096 35.3623 147.301 35.3291 147.465 35.2627C147.633 35.1963 147.77 35.1045 147.875 34.9873C147.981 34.8662 148.061 34.7236 148.116 34.5596C148.17 34.3916 148.198 34.21 148.198 34.0146ZM152.393 38.9834C152.393 39.0225 152.381 39.0576 152.358 39.0889C152.334 39.1162 152.293 39.1396 152.235 39.1592C152.18 39.1787 152.106 39.1924 152.012 39.2002C151.918 39.2119 151.799 39.2178 151.655 39.2178C151.51 39.2178 151.391 39.2119 151.297 39.2002C151.204 39.1924 151.127 39.1787 151.069 39.1592C151.014 39.1396 150.975 39.1162 150.952 39.0889C150.928 39.0576 150.917 39.0225 150.917 38.9834V31.2783C150.917 31.2393 150.928 31.2041 150.952 31.1729C150.975 31.1416 151.014 31.1162 151.069 31.0967C151.127 31.0732 151.204 31.0557 151.297 31.0439C151.391 31.0322 151.51 31.0264 151.655 31.0264C151.799 31.0264 151.918 31.0322 152.012 31.0439C152.106 31.0557 152.18 31.0732 152.235 31.0967C152.293 31.1162 152.334 31.1416 152.358 31.1729C152.381 31.2041 152.393 31.2393 152.393 31.2783V38.9834ZM158.323 39.001C158.323 39.0557 158.303 39.0986 158.264 39.1299C158.225 39.1611 158.163 39.1826 158.077 39.1943C157.995 39.21 157.872 39.2178 157.708 39.2178C157.532 39.2178 157.403 39.21 157.321 39.1943C157.243 39.1826 157.186 39.1611 157.151 39.1299C157.12 39.0986 157.104 39.0557 157.104 39.001V38.585C156.889 38.8154 156.643 38.9951 156.366 39.124C156.092 39.2529 155.788 39.3174 155.452 39.3174C155.174 39.3174 154.918 39.2803 154.684 39.2061C154.454 39.1357 154.252 39.0303 154.081 38.8896C153.913 38.7451 153.782 38.5674 153.688 38.3564C153.594 38.1455 153.547 37.8994 153.547 37.6182C153.547 37.3135 153.606 37.0498 153.723 36.8271C153.844 36.6006 154.022 36.415 154.256 36.2705C154.495 36.1221 154.79 36.0127 155.141 35.9424C155.493 35.8721 155.901 35.8369 156.366 35.8369H156.875V35.5205C156.875 35.3564 156.858 35.2139 156.823 35.0928C156.792 34.9678 156.737 34.8643 156.659 34.7822C156.584 34.7002 156.483 34.6396 156.354 34.6006C156.229 34.5615 156.073 34.542 155.885 34.542C155.639 34.542 155.418 34.5693 155.223 34.624C155.032 34.6787 154.862 34.7393 154.713 34.8057C154.565 34.8721 154.44 34.9326 154.338 34.9873C154.241 35.042 154.161 35.0693 154.098 35.0693C154.055 35.0693 154.016 35.0557 153.981 35.0283C153.95 35.001 153.922 34.9619 153.899 34.9111C153.879 34.8604 153.864 34.7979 153.852 34.7236C153.84 34.6494 153.834 34.5674 153.834 34.4775C153.834 34.3564 153.844 34.2607 153.864 34.1904C153.883 34.1201 153.92 34.0576 153.975 34.0029C154.03 33.9443 154.125 33.8818 154.262 33.8154C154.399 33.7451 154.559 33.6807 154.743 33.6221C154.926 33.5635 155.125 33.5166 155.34 33.4814C155.559 33.4424 155.784 33.4229 156.014 33.4229C156.424 33.4229 156.774 33.4639 157.063 33.5459C157.356 33.624 157.596 33.7471 157.784 33.915C157.971 34.0791 158.108 34.292 158.194 34.5537C158.28 34.8154 158.323 35.126 158.323 35.4854V39.001ZM156.875 36.7627H156.313C156.075 36.7627 155.872 36.7803 155.704 36.8154C155.536 36.8506 155.399 36.9033 155.293 36.9736C155.188 37.0439 155.11 37.1299 155.059 37.2314C155.012 37.3291 154.989 37.4424 154.989 37.5713C154.989 37.79 155.057 37.9619 155.194 38.0869C155.334 38.2119 155.528 38.2744 155.774 38.2744C155.981 38.2744 156.17 38.2217 156.342 38.1162C156.518 38.0107 156.696 37.8564 156.875 37.6533V36.7627ZM164.792 38.9834C164.792 39.0225 164.78 39.0576 164.756 39.0889C164.733 39.1162 164.694 39.1396 164.639 39.1592C164.584 39.1787 164.508 39.1924 164.411 39.2002C164.317 39.2119 164.2 39.2178 164.059 39.2178C163.915 39.2178 163.793 39.2119 163.696 39.2002C163.602 39.1924 163.528 39.1787 163.473 39.1592C163.418 39.1396 163.379 39.1162 163.356 39.0889C163.333 39.0576 163.321 39.0225 163.321 38.9834V36.001C163.321 35.7471 163.301 35.5479 163.262 35.4033C163.227 35.2588 163.174 35.1357 163.104 35.0342C163.034 34.9287 162.942 34.8486 162.829 34.7939C162.719 34.7354 162.59 34.7061 162.442 34.7061C162.254 34.7061 162.065 34.7744 161.874 34.9111C161.682 35.0479 161.483 35.2471 161.276 35.5088V38.9834C161.276 39.0225 161.264 39.0576 161.241 39.0889C161.217 39.1162 161.176 39.1396 161.118 39.1592C161.063 39.1787 160.989 39.1924 160.895 39.2002C160.801 39.2119 160.682 39.2178 160.538 39.2178C160.393 39.2178 160.274 39.2119 160.18 39.2002C160.086 39.1924 160.01 39.1787 159.952 39.1592C159.897 39.1396 159.858 39.1162 159.834 39.0889C159.811 39.0576 159.799 39.0225 159.799 38.9834V33.7568C159.799 33.7178 159.809 33.6846 159.829 33.6572C159.848 33.626 159.883 33.6006 159.934 33.5811C159.985 33.5615 160.049 33.5479 160.127 33.54C160.209 33.5283 160.311 33.5225 160.432 33.5225C160.557 33.5225 160.661 33.5283 160.743 33.54C160.825 33.5479 160.887 33.5615 160.93 33.5811C160.977 33.6006 161.01 33.626 161.03 33.6572C161.049 33.6846 161.059 33.7178 161.059 33.7568V34.3604C161.348 34.0479 161.641 33.8135 161.938 33.6572C162.239 33.501 162.551 33.4229 162.875 33.4229C163.231 33.4229 163.53 33.4814 163.772 33.5986C164.018 33.7158 164.215 33.876 164.364 34.0791C164.516 34.2783 164.625 34.5127 164.692 34.7822C164.758 35.0518 164.792 35.376 164.792 35.7549V38.9834Z" fill="#090909"/>
</g>
<defs>
<clipPath id="clip0_411_378699">
<rect width="177.273" height="58.6889" fill="white" transform="translate(0.589355 0.49707)"/>
</clipPath>
</defs>
</svg>
