<svg width="112" height="106" viewBox="0 0 112 106" fill="none" xmlns="http://www.w3.org/2000/svg">
<g clip-path="url(#clip0_890_452321)">
<path d="M58.6782 99.0239C84.392 99.0239 105.237 78.1788 105.237 52.4651C105.237 26.7514 84.392 5.90625 58.6782 5.90625C32.9645 5.90625 12.1194 26.7514 12.1194 52.4651C12.1194 78.1788 32.9645 99.0239 58.6782 99.0239Z" fill="#EAEAEA" fill-opacity="0.6"/>
<path d="M82.4039 27.7611H82.2676V27.7065L82.4039 27.7611Z" fill="white"/>
<path d="M84.3036 31.8882H36.0832C34.8681 31.8882 33.8831 32.8732 33.8831 34.0883V72.3305C33.8831 73.5456 34.8681 74.5306 36.0832 74.5306H84.3036C85.5187 74.5306 86.5037 73.5456 86.5037 72.3305V34.0883C86.5037 32.8732 85.5187 31.8882 84.3036 31.8882Z" fill="white"/>
<path d="M40.9584 54.0263C42.8794 54.0263 44.4367 52.469 44.4367 50.548C44.4367 48.6271 42.8794 47.0698 40.9584 47.0698C39.0375 47.0698 37.4802 48.6271 37.4802 50.548C37.4802 52.469 39.0375 54.0263 40.9584 54.0263Z" fill="#005895"/>
<path d="M40.3741 51.972C40.2919 51.972 40.2098 51.9446 40.1459 51.8807L39.1051 50.84C38.9773 50.7122 38.9773 50.5113 39.1051 50.3927C39.2329 50.274 39.4338 50.2649 39.5525 50.3927L40.365 51.2052L42.3551 49.215C42.4829 49.0872 42.6838 49.0872 42.8025 49.215C42.9211 49.3428 42.9303 49.5436 42.8025 49.6623L40.5841 51.8807C40.5202 51.9446 40.438 51.972 40.3558 51.972H40.3741Z" fill="white"/>
<g style="mix-blend-mode:hard-light" opacity="0.19">
<g style="mix-blend-mode:hard-light">
<path d="M44.4383 50.5479C44.4383 52.465 42.8772 54.0261 40.9601 54.0261C40.741 54.0261 40.531 54.0078 40.321 53.9713C41.9369 53.67 43.1602 52.255 43.1602 50.557C43.1602 48.859 41.9369 47.4348 40.321 47.1427C40.531 47.1062 40.741 47.0879 40.9601 47.0879C42.8772 47.0879 44.4383 48.6399 44.4383 50.5661V50.5479Z" fill="#005895"/>
</g>
</g>
<path d="M40.7563 65.6386C42.6773 65.6386 44.2345 64.0813 44.2345 62.1604C44.2345 60.2394 42.6773 58.6821 40.7563 58.6821C38.8353 58.6821 37.2781 60.2394 37.2781 62.1604C37.2781 64.0813 38.8353 65.6386 40.7563 65.6386Z" fill="#005895"/>
<path d="M40.1719 63.5843C40.0898 63.5843 40.0076 63.5569 39.9437 63.493L38.903 62.4523C38.7752 62.3245 38.7752 62.1236 38.903 62.005C39.0308 61.8863 39.2316 61.8772 39.3503 62.005L40.1628 62.8175L42.153 60.8273C42.2808 60.6995 42.4816 60.6995 42.6003 60.8273C42.719 60.9551 42.7281 61.156 42.6003 61.2746L40.3819 63.493C40.318 63.5569 40.2358 63.5843 40.1537 63.5843H40.1719Z" fill="white"/>
<g style="mix-blend-mode:hard-light" opacity="0.19">
<g style="mix-blend-mode:hard-light">
<path d="M44.2347 62.1602C44.2347 64.0773 42.6736 65.6384 40.7565 65.6384C40.5374 65.6384 40.3274 65.6201 40.1174 65.5836C41.7333 65.2823 42.9566 63.8673 42.9566 62.1693C42.9566 60.4713 41.7333 59.0471 40.1174 58.755C40.3274 58.7185 40.5374 58.7002 40.7565 58.7002C42.6736 58.7002 44.2347 60.2522 44.2347 62.1784V62.1602Z" fill="#005895"/>
</g>
</g>
<path d="M84.0937 75.443H35.6907C34.0292 75.443 32.6689 74.0919 32.6689 72.4213V34.6082C32.6689 32.9467 34.0201 31.5864 35.6907 31.5864H84.0937C85.7552 31.5864 87.1154 32.9375 87.1154 34.6082V72.4213C87.1154 74.0828 85.7643 75.443 84.0937 75.443ZM35.6907 33.4123C35.0334 33.4123 34.4948 33.9509 34.4948 34.6082V72.4213C34.4948 73.0786 35.0334 73.6172 35.6907 73.6172H84.0937C84.751 73.6172 85.2896 73.0786 85.2896 72.4213V34.6082C85.2896 33.9509 84.751 33.4123 84.0937 33.4123H35.6907Z" fill="#005895"/>
<path d="M86.2022 41.3364H33.5815V43.1623H86.2022V41.3364Z" fill="#005895"/>
<path d="M74.4808 48.9959H49.8776C49.622 48.9959 49.4211 48.7951 49.4211 48.5395C49.4211 48.2838 49.622 48.083 49.8776 48.083H74.4808C74.7364 48.083 74.9372 48.2838 74.9372 48.5395C74.9372 48.7951 74.7364 48.9959 74.4808 48.9959Z" fill="#005895"/>
<path d="M67.8892 53.013H49.5578C49.3022 53.013 49.1013 52.8122 49.1013 52.5566C49.1013 52.3009 49.3022 52.1001 49.5578 52.1001H67.8892C68.1448 52.1001 68.3456 52.3009 68.3456 52.5566C68.3456 52.8122 68.1448 53.013 67.8892 53.013Z" fill="#005895"/>
<path d="M62.2747 60.9095H49.5578C49.3022 60.9095 49.1013 60.7087 49.1013 60.453C49.1013 60.1974 49.3022 59.9966 49.5578 59.9966H62.2747C62.5304 59.9966 62.7312 60.1974 62.7312 60.453C62.7312 60.7087 62.5304 60.9095 62.2747 60.9095Z" fill="#005895"/>
<path d="M55.2544 64.3241H49.5578C49.3022 64.3241 49.1013 64.1232 49.1013 63.8676C49.1013 63.612 49.3022 63.4111 49.5578 63.4111H55.2544C55.51 63.4111 55.7109 63.612 55.7109 63.8676C55.7109 64.1232 55.51 64.3241 55.2544 64.3241Z" fill="#005895"/>
<path d="M40.2545 38.6799C41.0158 38.6799 41.633 38.0627 41.633 37.3014C41.633 36.54 41.0158 35.9229 40.2545 35.9229C39.4932 35.9229 38.876 36.54 38.876 37.3014C38.876 38.0627 39.4932 38.6799 40.2545 38.6799Z" fill="#005895"/>
<path d="M44.8468 38.6799C45.6081 38.6799 46.2253 38.0627 46.2253 37.3014C46.2253 36.54 45.6081 35.9229 44.8468 35.9229C44.0854 35.9229 43.4683 36.54 43.4683 37.3014C43.4683 38.0627 44.0854 38.6799 44.8468 38.6799Z" fill="#005895"/>
<path d="M49.4493 38.6799C50.2106 38.6799 50.8278 38.0627 50.8278 37.3014C50.8278 36.54 50.2106 35.9229 49.4493 35.9229C48.688 35.9229 48.0708 36.54 48.0708 37.3014C48.0708 38.0627 48.688 38.6799 49.4493 38.6799Z" fill="#005895"/>
<g opacity="0.1">
<path d="M40.994 53.9714C42.8847 53.9714 44.4174 52.4387 44.4174 50.548C44.4174 48.6572 42.8847 47.1245 40.994 47.1245C39.1033 47.1245 37.5706 48.6572 37.5706 50.548C37.5706 52.4387 39.1033 53.9714 40.994 53.9714Z" fill="#005895"/>
</g>
<path d="M40.4187 51.9537C40.3366 51.9537 40.2544 51.9263 40.1996 51.8624L39.1771 50.8399C39.0585 50.7213 39.0585 50.5204 39.1771 50.3926C39.2958 50.2648 39.4967 50.2739 39.6245 50.3926L40.4278 51.196L42.3815 49.2423C42.5002 49.1237 42.701 49.1237 42.8288 49.2423C42.9566 49.361 42.9475 49.5619 42.8288 49.6897L40.6469 51.8715C40.583 51.9354 40.5009 51.9628 40.4278 51.9628L40.4187 51.9537Z" fill="white"/>
<g style="mix-blend-mode:hard-light" opacity="0.19">
<g style="mix-blend-mode:hard-light">
<path d="M44.4179 50.5483C44.4179 52.438 42.8842 53.9717 40.9944 53.9717C40.7844 53.9717 40.5745 53.9534 40.3645 53.9169C41.953 53.6248 43.158 52.228 43.158 50.5574C43.158 48.8867 41.953 47.49 40.3645 47.1978C40.5653 47.1613 40.7753 47.1431 40.9944 47.1431C42.8842 47.1431 44.4179 48.6768 44.4179 50.5665V50.5483Z" fill="#005895"/>
</g>
</g>
<g opacity="0.1">
<path d="M40.7941 65.5837C42.6848 65.5837 44.2175 64.051 44.2175 62.1603C44.2175 60.2695 42.6848 58.7368 40.7941 58.7368C38.9033 58.7368 37.3706 60.2695 37.3706 62.1603C37.3706 64.051 38.9033 65.5837 40.7941 65.5837Z" fill="#005895"/>
</g>
<path d="M40.2185 63.566C40.1364 63.566 40.0542 63.5386 39.9994 63.4747L38.9769 62.4522C38.8583 62.3336 38.8583 62.1327 38.9769 62.0049C39.0956 61.8771 39.2965 61.8862 39.4243 62.0049L40.2276 62.8083L42.1813 60.8546C42.3 60.736 42.5008 60.736 42.6286 60.8546C42.7564 60.9733 42.7473 61.1742 42.6286 61.302L40.4467 63.4838C40.3828 63.5477 40.3007 63.5751 40.2276 63.5751L40.2185 63.566Z" fill="white"/>
<g style="mix-blend-mode:hard-light" opacity="0.19">
<g style="mix-blend-mode:hard-light">
<path d="M44.2094 62.1601C44.2094 64.0498 42.6757 65.5835 40.7859 65.5835C40.5759 65.5835 40.366 65.5653 40.156 65.5287C41.7445 65.2366 42.9495 63.8398 42.9495 62.1692C42.9495 60.4986 41.7445 59.1018 40.156 58.8097C40.3568 58.7731 40.5668 58.7549 40.7859 58.7549C42.6757 58.7549 44.2094 60.2886 44.2094 62.1783V62.1601Z" fill="#005895"/>
</g>
</g>
<path d="M68.036 69.4359C68.1181 69.2898 68.2094 69.162 68.3281 69.0433C68.6567 68.7238 69.0949 68.5229 69.5788 68.5229C70.3274 68.5229 70.9755 69.0068 71.2312 69.6732C71.3042 69.5819 71.3772 69.4998 71.4503 69.4176C71.7789 69.0981 72.2171 68.8972 72.701 68.8972C73.4039 68.8972 74.0064 69.3081 74.2894 69.9106L74.5542 69.8741H75.8414C77.3386 69.8741 78.5528 71.0974 78.5528 72.6037V77.6613C78.5528 80.5552 76.2248 82.9106 73.34 82.9106H65.4159C63.2796 82.9106 61.5086 81.2856 61.2712 79.2041C61.2347 78.8846 61.1891 78.5559 61.0886 78.2455L60.3035 75.8628C60.3035 75.8628 58.9068 71.0791 58.5051 70.6774C58.1034 70.2758 58.5964 68.9794 60.2853 69.4724L63.7818 71.5082L64.503 71.3986" fill="white"/>
<g opacity="0.4">
<path d="M78.6626 72.6222V77.6798C78.6626 80.5738 76.4351 82.9291 73.6781 82.9291H66.1009C64.0559 82.9291 62.367 81.3041 62.1388 79.2226C62.1023 78.9031 62.0658 78.5745 61.9653 78.2641L61.2076 75.8813C61.2076 75.8813 59.8748 71.0977 59.4913 70.696C59.1079 70.2943 59.5735 68.9979 61.1894 69.4909L64.5398 71.5267L64.4485 62.5254C64.4485 62.0324 64.6402 61.5942 64.9415 61.2655C65.2792 60.9186 65.7357 60.7178 66.2469 60.7452C67.1599 60.7999 67.8354 61.6672 67.8354 62.6258L68.0089 69.8378C68.091 69.6918 68.7849 69.1714 68.9035 69.0527C69.2139 68.7332 69.643 68.5324 70.0995 68.5324C70.8207 68.5324 71.4323 69.0162 71.6788 69.6826C71.7518 69.5913 71.8157 69.5092 71.8888 69.427C72.1992 69.1075 72.6282 68.9067 73.0847 68.9067C73.7511 68.9067 74.3354 69.3175 74.6001 69.92L74.8558 69.8835H76.0882C77.5215 69.8835 78.6809 71.1068 78.6809 72.6131L78.6626 72.6222Z" fill="#F58520" fill-opacity="0.6"/>
</g>
<path d="M73.3411 83.5956H65.7365C63.4724 83.5956 61.5644 81.8245 61.3088 79.4783C61.2723 79.177 61.2358 78.8849 61.1536 78.611L60.3959 76.2192C59.766 73.9917 58.99 71.5177 58.7618 71.1981C58.4879 70.9151 58.4514 70.4495 58.6796 70.0296C58.9718 69.5001 59.7021 69.0163 60.898 69.2445C62.5869 69.564 64.9422 70.4495 65.8186 74.3751C65.8734 74.6216 65.7182 74.8681 65.4717 74.9228C65.2252 74.9776 64.9788 74.8224 64.924 74.5759C64.1754 71.2164 62.2856 70.4404 60.7337 70.1483C60.2133 70.0479 59.7842 70.1392 59.556 70.3765C59.4556 70.4861 59.4465 70.5774 59.4465 70.6047C59.839 71.0064 60.7611 74.1377 61.2723 75.9636L62.0209 78.3372C62.1305 78.6841 62.1761 79.0401 62.2126 79.3779C62.4226 81.2585 63.938 82.6827 65.7365 82.6827H73.3411C75.8516 82.6827 77.8874 80.5282 77.8874 77.8898V72.8323C77.8874 71.5816 76.9289 70.5591 75.7421 70.5591H74.5096C74.254 70.5591 74.0532 70.3583 74.0532 70.1026C74.0532 69.847 74.254 69.6462 74.5096 69.6462H75.7421C77.431 69.6462 78.8003 71.0703 78.8003 72.8323V77.8898C78.8003 81.0394 76.3537 83.5956 73.3411 83.5956Z" fill="#765BA7"/>
<path d="M74.445 74.5851C74.1894 74.5851 73.9886 74.3842 73.9886 74.1286V70.7234C73.9886 70.057 73.4865 69.5184 72.8748 69.5184C72.2632 69.5184 71.7611 70.057 71.7611 70.7234V73.5078C71.7611 73.7635 71.5602 73.9643 71.3046 73.9643C71.049 73.9643 70.8481 73.7635 70.8481 73.5078V70.7234C70.8481 69.5549 71.7611 68.6055 72.8748 68.6055C73.9886 68.6055 74.9015 69.5549 74.9015 70.7234V74.1286C74.9015 74.3842 74.7007 74.5851 74.445 74.5851Z" fill="#765BA7"/>
<path d="M67.9635 74.9957C67.7079 74.9957 67.5071 74.7948 67.5071 74.5392V70.1663C67.5071 68.9978 68.4565 68.0483 69.6342 68.0483C70.8118 68.0483 71.7613 68.9978 71.7613 70.1663V73.8454C71.7613 74.101 71.5604 74.3018 71.3048 74.3018C71.0492 74.3018 70.8484 74.101 70.8484 73.8454V70.1663C70.8484 69.4999 70.3097 68.9613 69.6342 68.9613C68.9586 68.9613 68.42 69.4999 68.42 70.1663V74.5392C68.42 74.7948 68.2192 74.9957 67.9635 74.9957Z" fill="#765BA7"/>
<path d="M79.5192 36.0962H64.0088C63.3432 36.0962 62.8037 36.6357 62.8037 37.3012C62.8037 37.9668 63.3432 38.5063 64.0088 38.5063H79.5192C80.1848 38.5063 80.7243 37.9668 80.7243 37.3012C80.7243 36.6357 80.1848 36.0962 79.5192 36.0962Z" fill="#005895"/>
<path d="M67.9625 73.1153C67.7069 73.1153 67.5061 72.9145 67.5061 72.6588V62.7811C67.5061 62.0051 66.8761 61.366 66.091 61.366C65.3059 61.366 64.6851 61.996 64.6851 62.7811V71.399C64.6851 71.6546 64.4843 71.8555 64.2287 71.8555C63.9731 71.8555 63.7722 71.6546 63.7722 71.399V62.7811C63.7722 61.503 64.8129 60.4531 66.091 60.4531C67.3691 60.4531 68.419 61.4939 68.419 62.7811V72.6588C68.419 72.9145 68.2181 73.1153 67.9625 73.1153Z" fill="#765BA7"/>
<g opacity="0.1">
<path d="M85.5457 32.4995H82.0583V73.9369H85.5457V32.4995Z" fill="#005895"/>
</g>
<g opacity="0.41">
<path d="M74.8912 70.5594H75.7858C75.7858 70.5594 76.0049 70.5594 76.2149 70.6142C76.2149 70.6142 76.854 70.6872 77.4017 71.3811C77.4017 71.3811 77.9129 71.9562 77.8856 72.8965V78.0454C77.8856 78.0454 77.9129 79.5882 76.8631 80.9028C76.8631 80.9028 76.078 82.0257 74.7451 82.4365C74.7451 82.4365 78.342 77.0594 74.8912 70.5503V70.5594Z" fill="#F58520" fill-opacity="0.6"/>
</g>
</g>
<rect x="0.0332031" y="7.94971" width="28.2667" height="28.2667" rx="14.1333" fill="#005895"/>
<path d="M12.5741 29.5288V17.158H11.0418V16.0445L15.2812 14.6144V29.5288H12.5741Z" fill="white"/>
<defs>
<clipPath id="clip0_890_452321">
<rect width="94.8421" height="94.8421" fill="white" transform="translate(10.9121 5.57861)"/>
</clipPath>
</defs>
</svg>
