<svg width="112" height="106" viewBox="0 0 112 106" fill="none" xmlns="http://www.w3.org/2000/svg">
<g clip-path="url(#clip0_460_122829)">
<path d="M58.9997 100.421C85.1896 100.421 106.421 79.1898 106.421 52.9999C106.421 26.81 85.1896 5.57886 58.9997 5.57886C32.8097 5.57886 11.5786 26.81 11.5786 52.9999C11.5786 79.1898 32.8097 100.421 58.9997 100.421Z" fill="#F3F3F3"/>
<path d="M83.1556 27.8385H83.026V27.783L83.1556 27.8385Z" fill="#FBFBFB"/>
<path d="M58.9991 80.2809C74.066 80.2809 86.2801 68.0667 86.2801 52.9998C86.2801 37.9329 74.066 25.7188 58.9991 25.7188C43.9322 25.7188 31.718 37.9329 31.718 52.9998C31.718 68.0667 43.9322 80.2809 58.9991 80.2809Z" fill="#F58E25"/>
<path d="M54.3963 64.1952C53.7547 64.1952 53.1131 63.9535 52.6203 63.4606L44.4565 55.2968C43.4802 54.3205 43.4802 52.7305 44.4565 51.7542C45.4328 50.7778 47.0228 50.7778 47.9991 51.7542L54.3963 58.1513L69.9988 42.5489C70.9751 41.5726 72.5651 41.5726 73.5414 42.5489C74.5177 43.5252 74.5177 45.1152 73.5414 46.0915L56.163 63.4699C55.6702 63.9627 55.0286 64.2045 54.387 64.2045L54.3963 64.1952Z" fill="#FBFBFB"/>
<g style="mix-blend-mode:darken">
<path d="M86.2798 52.9998C86.2798 68.0723 74.062 80.2809 58.9988 80.2809C57.2879 80.2809 55.6142 80.1228 53.9963 79.8159C66.6698 77.4728 76.2656 66.3614 76.2656 52.9998C76.2656 39.6382 66.6698 28.5268 53.9963 26.1837C55.6142 25.8768 57.2879 25.7188 58.9988 25.7188C74.062 25.7188 86.2798 37.9273 86.2798 52.9998V52.9998Z" fill="#F7A551"/>
</g>
</g>
<rect x="0.699951" y="7.94995" width="28.2667" height="28.2667" rx="14.1333" fill="#765BA7"/>
<path d="M10.0381 14.8501C11.4001 14.4415 12.8303 14.2372 14.3285 14.2372C17.972 14.2372 19.7937 15.5651 19.7937 18.2211C19.7937 19.8284 19.1536 20.935 17.8733 21.5411C19.1536 22.12 19.7937 23.2267 19.7937 24.8611C19.7937 27.6533 17.972 29.0494 14.3285 29.0494C12.8303 29.0494 11.4001 28.8451 10.0381 28.4365V25.9848C11.4001 26.4615 12.8303 26.6999 14.3285 26.6999C16.1673 26.6999 17.0867 25.9848 17.0867 24.5547C17.0867 23.3288 16.4329 22.7159 15.1253 22.7159H11.5704V20.3664H15.0947C16.4227 20.3664 17.0867 19.7534 17.0867 18.5276C17.0867 17.2337 16.1673 16.5867 14.3285 16.5867C12.8303 16.5867 11.4001 16.825 10.0381 17.3018V14.8501Z" fill="#FBFBFB"/>
<defs>
<clipPath id="clip0_460_122829">
<rect width="94.8421" height="94.8421" fill="white" transform="translate(11.5789 5.57886)"/>
</clipPath>
</defs>
</svg>
