<svg width="112" height="106" viewBox="0 0 112 106" fill="none" xmlns="http://www.w3.org/2000/svg">
<g clip-path="url(#clip0_8722_468535)">
<path d="M58.678 99.0239C84.3917 99.0239 105.237 78.1788 105.237 52.4651C105.237 26.7514 84.3917 5.90625 58.678 5.90625C32.9642 5.90625 12.1191 26.7514 12.1191 52.4651C12.1191 78.1788 32.9642 99.0239 58.678 99.0239Z" fill="#EAEAEA" fill-opacity="0.6"/>
<path d="M82.4039 27.7611H82.2676V27.7065L82.4039 27.7611Z" fill="white"/>
<path d="M84.3033 31.8882H36.0829C34.8678 31.8882 33.8828 32.8732 33.8828 34.0883V72.3305C33.8828 73.5456 34.8678 74.5306 36.0829 74.5306H84.3033C85.5184 74.5306 86.5034 73.5456 86.5034 72.3305V34.0883C86.5034 32.8732 85.5184 31.8882 84.3033 31.8882Z" fill="white"/>
<path d="M40.9577 54.0263C42.8787 54.0263 44.4359 52.469 44.4359 50.548C44.4359 48.6271 42.8787 47.0698 40.9577 47.0698C39.0367 47.0698 37.4795 48.6271 37.4795 50.548C37.4795 52.469 39.0367 54.0263 40.9577 54.0263Z" fill="#863399"/>
<path d="M40.3736 51.972C40.2914 51.972 40.2093 51.9446 40.1454 51.8807L39.1046 50.84C38.9768 50.7122 38.9768 50.5113 39.1046 50.3927C39.2325 50.274 39.4333 50.2649 39.552 50.3927L40.3645 51.2052L42.3546 49.215C42.4824 49.0872 42.6833 49.0872 42.802 49.215C42.9206 49.3428 42.9298 49.5436 42.802 49.6623L40.5836 51.8807C40.5197 51.9446 40.4375 51.972 40.3553 51.972H40.3736Z" fill="white"/>
<g style="mix-blend-mode:hard-light" opacity="0.19">
<g style="mix-blend-mode:hard-light">
<path d="M44.4376 50.5479C44.4376 52.465 42.8765 54.0261 40.9594 54.0261C40.7403 54.0261 40.5303 54.0078 40.3203 53.9713C41.9362 53.67 43.1595 52.255 43.1595 50.557C43.1595 48.859 41.9362 47.4348 40.3203 47.1427C40.5303 47.1062 40.7403 47.0879 40.9594 47.0879C42.8765 47.0879 44.4376 48.6399 44.4376 50.5661V50.5479Z" fill="#592266"/>
</g>
</g>
<path d="M40.7556 65.6386C42.6765 65.6386 44.2338 64.0813 44.2338 62.1604C44.2338 60.2394 42.6765 58.6821 40.7556 58.6821C38.8346 58.6821 37.2773 60.2394 37.2773 62.1604C37.2773 64.0813 38.8346 65.6386 40.7556 65.6386Z" fill="#863399"/>
<path d="M40.1715 63.5843C40.0893 63.5843 40.0071 63.5569 39.9432 63.493L38.9025 62.4523C38.7747 62.3245 38.7747 62.1236 38.9025 62.005C39.0303 61.8863 39.2311 61.8772 39.3498 62.005L40.1623 62.8175L42.1525 60.8273C42.2803 60.6995 42.4811 60.6995 42.5998 60.8273C42.7185 60.9551 42.7276 61.156 42.5998 61.2746L40.3814 63.493C40.3175 63.5569 40.2354 63.5843 40.1532 63.5843H40.1715Z" fill="white"/>
<g style="mix-blend-mode:hard-light" opacity="0.19">
<g style="mix-blend-mode:hard-light">
<path d="M44.2335 62.1602C44.2335 64.0773 42.6724 65.6384 40.7553 65.6384C40.5362 65.6384 40.3262 65.6201 40.1162 65.5836C41.7321 65.2823 42.9554 63.8673 42.9554 62.1693C42.9554 60.4713 41.7321 59.0471 40.1162 58.755C40.3262 58.7185 40.5362 58.7002 40.7553 58.7002C42.6724 58.7002 44.2335 60.2522 44.2335 62.1784V62.1602Z" fill="#592266"/>
</g>
</g>
<path d="M84.0937 75.443H35.6907C34.0292 75.443 32.6689 74.0919 32.6689 72.4213V34.6082C32.6689 32.9467 34.0201 31.5864 35.6907 31.5864H84.0937C85.7552 31.5864 87.1154 32.9375 87.1154 34.6082V72.4213C87.1154 74.0828 85.7643 75.443 84.0937 75.443ZM35.6907 33.4123C35.0334 33.4123 34.4948 33.9509 34.4948 34.6082V72.4213C34.4948 73.0786 35.0334 73.6172 35.6907 73.6172H84.0937C84.751 73.6172 85.2896 73.0786 85.2896 72.4213V34.6082C85.2896 33.9509 84.751 33.4123 84.0937 33.4123H35.6907Z" fill="#863399"/>
<path d="M86.2017 41.3364H33.5811V43.1623H86.2017V41.3364Z" fill="#863399"/>
<path d="M74.4805 48.9959H49.8774C49.6217 48.9959 49.4209 48.7951 49.4209 48.5395C49.4209 48.2838 49.6217 48.083 49.8774 48.083H74.4805C74.7361 48.083 74.937 48.2838 74.937 48.5395C74.937 48.7951 74.7361 48.9959 74.4805 48.9959Z" fill="#863399"/>
<path d="M67.8885 53.013H49.557C49.3014 53.013 49.1006 52.8122 49.1006 52.5566C49.1006 52.3009 49.3014 52.1001 49.557 52.1001H67.8885C68.1441 52.1001 68.3449 52.3009 68.3449 52.5566C68.3449 52.8122 68.1441 53.013 67.8885 53.013Z" fill="#863399"/>
<path d="M62.274 60.9095H49.557C49.3014 60.9095 49.1006 60.7087 49.1006 60.453C49.1006 60.1974 49.3014 59.9966 49.557 59.9966H62.274C62.5296 59.9966 62.7305 60.1974 62.7305 60.453C62.7305 60.7087 62.5296 60.9095 62.274 60.9095Z" fill="#863399"/>
<path d="M55.2537 64.3241H49.557C49.3014 64.3241 49.1006 64.1232 49.1006 63.8676C49.1006 63.612 49.3014 63.4111 49.557 63.4111H55.2537C55.5093 63.4111 55.7101 63.612 55.7101 63.8676C55.7101 64.1232 55.5093 64.3241 55.2537 64.3241Z" fill="#863399"/>
<path d="M40.2545 38.6799C41.0158 38.6799 41.633 38.0627 41.633 37.3014C41.633 36.54 41.0158 35.9229 40.2545 35.9229C39.4932 35.9229 38.876 36.54 38.876 37.3014C38.876 38.0627 39.4932 38.6799 40.2545 38.6799Z" fill="#863399"/>
<path d="M44.8463 38.6799C45.6076 38.6799 46.2248 38.0627 46.2248 37.3014C46.2248 36.54 45.6076 35.9229 44.8463 35.9229C44.085 35.9229 43.4678 36.54 43.4678 37.3014C43.4678 38.0627 44.085 38.6799 44.8463 38.6799Z" fill="#863399"/>
<path d="M49.4488 38.6799C50.2101 38.6799 50.8273 38.0627 50.8273 37.3014C50.8273 36.54 50.2101 35.9229 49.4488 35.9229C48.6875 35.9229 48.0703 36.54 48.0703 37.3014C48.0703 38.0627 48.6875 38.6799 49.4488 38.6799Z" fill="#863399"/>
<g opacity="0.1">
<path d="M40.9938 53.9714C42.8845 53.9714 44.4172 52.4387 44.4172 50.548C44.4172 48.6572 42.8845 47.1245 40.9938 47.1245C39.103 47.1245 37.5703 48.6572 37.5703 50.548C37.5703 52.4387 39.103 53.9714 40.9938 53.9714Z" fill="#863399"/>
</g>
<path d="M40.4185 51.9537C40.3363 51.9537 40.2541 51.9263 40.1994 51.8624L39.1769 50.8399C39.0582 50.7213 39.0582 50.5204 39.1769 50.3926C39.2956 50.2648 39.4964 50.2739 39.6242 50.3926L40.4276 51.196L42.3812 49.2423C42.4999 49.1237 42.7008 49.1237 42.8286 49.2423C42.9564 49.361 42.9473 49.5619 42.8286 49.6897L40.6467 51.8715C40.5828 51.9354 40.5006 51.9628 40.4276 51.9628L40.4185 51.9537Z" fill="white"/>
<g style="mix-blend-mode:hard-light" opacity="0.19">
<g style="mix-blend-mode:hard-light">
<path d="M44.4176 50.5483C44.4176 52.438 42.8839 53.9717 40.9942 53.9717C40.7842 53.9717 40.5742 53.9534 40.3643 53.9169C41.9527 53.6248 43.1578 52.228 43.1578 50.5574C43.1578 48.8867 41.9527 47.49 40.3643 47.1978C40.5651 47.1613 40.7751 47.1431 40.9942 47.1431C42.8839 47.1431 44.4176 48.6768 44.4176 50.5665V50.5483Z" fill="#592266"/>
</g>
</g>
<g opacity="0.1">
<path d="M40.7936 65.5837C42.6843 65.5837 44.217 64.051 44.217 62.1603C44.217 60.2695 42.6843 58.7368 40.7936 58.7368C38.9028 58.7368 37.3701 60.2695 37.3701 62.1603C37.3701 64.051 38.9028 65.5837 40.7936 65.5837Z" fill="#863399"/>
</g>
<path d="M40.2183 63.566C40.1361 63.566 40.0539 63.5386 39.9992 63.4747L38.9767 62.4522C38.858 62.3336 38.858 62.1327 38.9767 62.0049C39.0954 61.8771 39.2962 61.8862 39.424 62.0049L40.2274 62.8083L42.181 60.8546C42.2997 60.736 42.5006 60.736 42.6284 60.8546C42.7562 60.9733 42.7471 61.1742 42.6284 61.302L40.4465 63.4838C40.3826 63.5477 40.3004 63.5751 40.2274 63.5751L40.2183 63.566Z" fill="white"/>
<g style="mix-blend-mode:hard-light" opacity="0.19">
<g style="mix-blend-mode:hard-light">
<path d="M44.2086 62.1601C44.2086 64.0498 42.6749 65.5835 40.7852 65.5835C40.5752 65.5835 40.3652 65.5653 40.1553 65.5287C41.7438 65.2366 42.9488 63.8398 42.9488 62.1692C42.9488 60.4986 41.7438 59.1018 40.1553 58.8097C40.3561 58.7731 40.5661 58.7549 40.7852 58.7549C42.6749 58.7549 44.2086 60.2886 44.2086 62.1783V62.1601Z" fill="#592266"/>
</g>
</g>
<path d="M68.036 69.4359C68.1181 69.2898 68.2094 69.162 68.3281 69.0433C68.6567 68.7238 69.0949 68.5229 69.5788 68.5229C70.3274 68.5229 70.9755 69.0068 71.2312 69.6732C71.3042 69.5819 71.3772 69.4998 71.4503 69.4176C71.7789 69.0981 72.2171 68.8972 72.701 68.8972C73.4039 68.8972 74.0064 69.3081 74.2894 69.9106L74.5542 69.8741H75.8414C77.3386 69.8741 78.5528 71.0974 78.5528 72.6037V77.6613C78.5528 80.5552 76.2248 82.9106 73.34 82.9106H65.4159C63.2796 82.9106 61.5086 81.2856 61.2712 79.2041C61.2347 78.8846 61.1891 78.5559 61.0886 78.2455L60.3035 75.8628C60.3035 75.8628 58.9068 71.0791 58.5051 70.6774C58.1034 70.2758 58.5964 68.9794 60.2853 69.4724L63.7818 71.5082L64.503 71.3986" fill="white"/>
<g opacity="0.4">
<path d="M78.6621 72.6222V77.6798C78.6621 80.5738 76.4346 82.9291 73.6776 82.9291H66.1004C64.0554 82.9291 62.3665 81.3041 62.1383 79.2226C62.1018 78.9031 62.0653 78.5745 61.9649 78.2641L61.2071 75.8813C61.2071 75.8813 59.8743 71.0977 59.4909 70.696C59.1074 70.2943 59.573 68.9979 61.1889 69.4909L64.5393 71.5267L64.448 62.5254C64.448 62.0324 64.6397 61.5942 64.941 61.2655C65.2788 60.9186 65.7352 60.7178 66.2465 60.7452C67.1594 60.7999 67.8349 61.6672 67.8349 62.6258L68.0084 69.8378C68.0905 69.6918 68.7844 69.1714 68.903 69.0527C69.2134 68.7332 69.6425 68.5324 70.099 68.5324C70.8202 68.5324 71.4318 69.0162 71.6783 69.6826C71.7514 69.5913 71.8153 69.5092 71.8883 69.427C72.1987 69.1075 72.6278 68.9067 73.0842 68.9067C73.7506 68.9067 74.3349 69.3175 74.5997 69.92L74.8553 69.8835H76.0877C77.521 69.8835 78.6804 71.1068 78.6804 72.6131L78.6621 72.6222Z" fill="#F58520" fill-opacity="0.6"/>
</g>
<path d="M73.3406 83.5956H65.736C63.472 83.5956 61.564 81.8245 61.3083 79.4783C61.2718 79.177 61.2353 78.8849 61.1531 78.611L60.3954 76.2192C59.7655 73.9917 58.9895 71.5177 58.7613 71.1981C58.4874 70.9151 58.4509 70.4495 58.6791 70.0296C58.9713 69.5001 59.7016 69.0163 60.8975 69.2445C62.5864 69.564 64.9418 70.4495 65.8182 74.3751C65.8729 74.6216 65.7177 74.8681 65.4712 74.9228C65.2248 74.9776 64.9783 74.8224 64.9235 74.5759C64.1749 71.2164 62.2852 70.4404 60.7332 70.1483C60.2128 70.0479 59.7838 70.1392 59.5555 70.3765C59.4551 70.4861 59.446 70.5774 59.446 70.6047C59.8385 71.0064 60.7606 74.1377 61.2718 75.9636L62.0204 78.3372C62.13 78.6841 62.1756 79.0401 62.2121 79.3779C62.4221 81.2585 63.9375 82.6827 65.736 82.6827H73.3406C75.8511 82.6827 77.8869 80.5282 77.8869 77.8898V72.8323C77.8869 71.5816 76.9284 70.5591 75.7416 70.5591H74.5091C74.2535 70.5591 74.0527 70.3583 74.0527 70.1026C74.0527 69.847 74.2535 69.6462 74.5091 69.6462H75.7416C77.4305 69.6462 78.7999 71.0703 78.7999 72.8323V77.8898C78.7999 81.0394 76.3532 83.5956 73.3406 83.5956Z" fill="#F58520"/>
<path d="M74.4446 74.5851C74.1889 74.5851 73.9881 74.3842 73.9881 74.1286V70.7234C73.9881 70.057 73.486 69.5184 72.8743 69.5184C72.2627 69.5184 71.7606 70.057 71.7606 70.7234V73.5078C71.7606 73.7635 71.5597 73.9643 71.3041 73.9643C71.0485 73.9643 70.8477 73.7635 70.8477 73.5078V70.7234C70.8477 69.5549 71.7606 68.6055 72.8743 68.6055C73.9881 68.6055 74.901 69.5549 74.901 70.7234V74.1286C74.901 74.3842 74.7002 74.5851 74.4446 74.5851Z" fill="#F58520"/>
<path d="M67.9633 74.9957C67.7077 74.9957 67.5068 74.7948 67.5068 74.5392V70.1663C67.5068 68.9978 68.4563 68.0483 69.6339 68.0483C70.8116 68.0483 71.761 68.9978 71.761 70.1663V73.8454C71.761 74.101 71.5602 74.3018 71.3046 74.3018C71.049 74.3018 70.8481 74.101 70.8481 73.8454V70.1663C70.8481 69.4999 70.3095 68.9613 69.6339 68.9613C68.9584 68.9613 68.4198 69.4999 68.4198 70.1663V74.5392C68.4198 74.7948 68.2189 74.9957 67.9633 74.9957Z" fill="#F58520"/>
<path d="M79.5192 36.0962H64.0088C63.3432 36.0962 62.8037 36.6357 62.8037 37.3012C62.8037 37.9668 63.3432 38.5063 64.0088 38.5063H79.5192C80.1848 38.5063 80.7243 37.9668 80.7243 37.3012C80.7243 36.6357 80.1848 36.0962 79.5192 36.0962Z" fill="#863399"/>
<path d="M67.9628 73.1153C67.7071 73.1153 67.5063 72.9145 67.5063 72.6588V62.7811C67.5063 62.0051 66.8764 61.366 66.0913 61.366C65.3062 61.366 64.6854 61.996 64.6854 62.7811V71.399C64.6854 71.6546 64.4845 71.8555 64.2289 71.8555C63.9733 71.8555 63.7725 71.6546 63.7725 71.399V62.7811C63.7725 61.503 64.8132 60.4531 66.0913 60.4531C67.3694 60.4531 68.4192 61.4939 68.4192 62.7811V72.6588C68.4192 72.9145 68.2184 73.1153 67.9628 73.1153Z" fill="#F58520"/>
<g opacity="0.1">
<path d="M85.545 32.4995H82.0576V73.9369H85.545V32.4995Z" fill="#863399"/>
</g>
<g opacity="0.41">
<path d="M74.8912 70.5594H75.7858C75.7858 70.5594 76.0049 70.5594 76.2149 70.6142C76.2149 70.6142 76.854 70.6872 77.4017 71.3811C77.4017 71.3811 77.9129 71.9562 77.8856 72.8965V78.0454C77.8856 78.0454 77.9129 79.5882 76.8631 80.9028C76.8631 80.9028 76.078 82.0257 74.7451 82.4365C74.7451 82.4365 78.342 77.0594 74.8912 70.5503V70.5594Z" fill="#F58520" fill-opacity="0.6"/>
</g>
</g>
<rect x="0.0332031" y="7.94971" width="28.2667" height="28.2667" rx="14.1333" fill="#863399"/>
<path d="M12.5739 29.5288V17.158H11.0416V16.0445L15.281 14.6144V29.5288H12.5739Z" fill="white"/>
<defs>
<clipPath id="clip0_8722_468535">
<rect width="94.8421" height="94.8421" fill="white" transform="translate(10.9121 5.57861)"/>
</clipPath>
</defs>
</svg>
