<svg width="46" height="45" viewBox="0 0 46 45" fill="none" xmlns="http://www.w3.org/2000/svg">
<path d="M35.9 1.83055C36.84 2.05055 37.65 2.48055 38.04 3.40055C38.24 3.88055 38.35 4.44055 38.35 4.97055C38.37 11.5205 38.36 18.0805 38.36 24.6305C38.36 29.9005 38.36 35.1605 38.36 40.4305C38.36 41.6805 37.91 42.6605 36.76 43.2105C36.36 43.4005 35.87 43.5105 35.43 43.5105C27.22 43.5305 19.01 43.5305 10.8 43.5105C9.08998 43.5105 7.90998 42.3305 7.87998 40.6205C7.85998 39.7905 7.87998 38.9605 7.87998 38.1405C7.87998 27.0805 7.87998 16.0205 7.87998 4.96055C7.87998 3.92055 8.14998 3.01055 9.01998 2.40055C9.40998 2.13055 9.89998 2.00055 10.34 1.81055C18.86 1.81055 27.39 1.81055 35.91 1.81055L35.9 1.83055ZM10.76 5.26055V37.6105H35.48V5.26055H10.76ZM23.11 42.4605C24.03 42.4605 24.8 41.7005 24.8 40.7805C24.8 39.8705 24.06 39.1305 23.15 39.1205C22.21 39.1105 21.46 39.8405 21.44 40.7705C21.43 41.6805 22.19 42.4605 23.11 42.4705V42.4605Z" fill="#090909"/>
<path d="M10.76 5.25977H35.48V37.6098H10.76V5.25977Z" fill="#FBFBFB"/>
<path d="M23.1098 42.4595C22.1898 42.4595 21.4198 41.6795 21.4398 40.7595C21.4498 39.8295 22.2098 39.0995 23.1498 39.1095C24.0598 39.1195 24.7998 39.8595 24.7998 40.7695C24.7998 41.6895 24.0298 42.4595 23.1098 42.4495V42.4595Z" fill="#FBFBFB"/>
</svg>
