<svg width="212" height="46" viewBox="0 0 212 46" fill="none" xmlns="http://www.w3.org/2000/svg">
<g clip-path="url(#clip0_411_378697)">
<path d="M6.1112 0.582031H206.697C209.567 0.582031 211.898 1.73497 211.898 3.1612V43.181C211.898 44.6073 209.567 45.7602 206.697 45.7602H6.1112C3.24166 45.7602 0.910156 44.6073 0.910156 43.181V3.16974C0.910156 1.74351 3.24166 0.590572 6.1112 0.590572V0.582031Z" fill="#FBFBFB"/>
<mask id="mask0_411_378697" style="mask-type:luminance" maskUnits="userSpaceOnUse" x="15" y="5" width="180" height="31">
<path d="M194.63 5.86914H15.9922V35.299H194.63V5.86914Z" fill="white"/>
</mask>
<g mask="url(#mask0_411_378697)">
<mask id="mask1_411_378697" style="mask-type:luminance" maskUnits="userSpaceOnUse" x="15" y="5" width="23" height="31">
<path d="M37.8981 5.86914H15.9922V35.299H37.8981V5.86914Z" fill="white"/>
</mask>
<g mask="url(#mask1_411_378697)">
<path d="M28.1456 19.8672H27.4453V26.5799H28.1456V19.8672Z" fill="#090909"/>
<path d="M29.3326 19.8672H28.6323V26.5799H29.3326V19.8672Z" fill="#090909"/>
<path d="M30.4601 19.8672H29.7598V26.5799H30.4601V19.8672Z" fill="#090909"/>
<path d="M30.8613 26.6824H31.4933V20.1149L30.8613 19.9697V26.6824Z" fill="#090909"/>
<path d="M31.8691 26.93H32.3559V20.3625L31.8691 20.2173V26.93Z" fill="#090909"/>
<path d="M32.6118 27.1433H33.0218V20.6698L32.6118 20.4307V27.1433Z" fill="#090909"/>
<path d="M33.2441 27.4246H33.5857V20.951L33.2441 20.7119V27.4246Z" fill="#090909"/>
<path d="M33.7651 27.8006H34.0299V21.327L33.7651 21.0879V27.8006Z" fill="#090909"/>
<path d="M26.9581 19.8672H26.2578V26.7763H26.9581V19.8672Z" fill="#090909"/>
<path d="M25.105 26.9471H25.8053V19.9355L25.1306 20.0295L25.105 26.9471Z" fill="#090909"/>
<path d="M24.0889 27.0743H24.7892V20.0713L24.1145 20.1652L24.0889 27.0829V27.0743Z" fill="#090909"/>
<path d="M23.2944 27.2963H23.7556V20.2847L23.303 20.3786V27.2963H23.2944Z" fill="#090909"/>
<path d="M22.6025 27.5619H22.9527V20.5503L22.6196 20.6869L22.6025 27.5533V27.5619Z" fill="#090909"/>
<path d="M22.0732 27.8519L22.3636 27.8092V20.8062L22.0989 20.977L22.0732 27.8519Z" fill="#090909"/>
<path d="M21.6123 27.8006L21.8429 27.7664V21.1392L21.6294 21.3697L21.6123 27.8091V27.8006Z" fill="white"/>
<path d="M21.6121 21.2332C21.6121 21.2332 21.3217 20.9685 21.5096 20.7123C21.5096 20.7123 22.7394 19.1665 28.5126 19.3202C28.5126 19.3202 32.7657 19.3373 34.0296 20.7123V21.0966L34.1834 21.0112V20.5586C34.1834 20.5586 33.3977 19.4483 29.2642 18.9444C27.9148 18.9017 26.5569 18.9615 25.2161 19.1152C25.2161 19.1152 31.4419 18.1246 33.9101 20.0803C33.9101 20.0803 32.9365 18.6797 28.6407 18.5601C28.6407 18.5601 24.1485 18.3552 22.0818 19.7302C22.0818 19.7302 21.7572 19.9351 21.7402 20.0632C21.7316 20.1059 21.7231 20.1486 21.7231 20.1999L21.6206 21.2247L21.6121 21.2332Z" fill="#090909"/>
<path d="M22.7478 18.586C22.7478 18.586 22.5087 18.3383 22.6624 18.0992C22.6624 18.0992 23.6701 16.6473 28.3929 16.7925C28.3929 16.7925 31.8688 16.8011 32.9107 18.0992V18.4579L33.0388 18.381V17.954C33.0388 17.954 32.4069 16.9377 29.1103 16.4595C29.042 16.4509 28.9822 16.4424 28.9139 16.4424C27.8378 16.4082 26.7617 16.468 25.7027 16.6046C25.7027 16.6046 30.7927 15.6738 32.8083 17.5099C32.8083 17.5099 32.014 16.1947 28.5039 16.0837C28.5039 16.0837 24.8316 15.8958 23.1406 17.1939C23.1406 17.1939 22.8759 17.3818 22.8588 17.5099C22.8417 17.638 22.8417 17.638 22.8417 17.638L22.7649 18.6031L22.7478 18.586Z" fill="#090909"/>
<path d="M23.1919 17.2795C23.1919 17.2795 22.9784 17.0916 23.115 16.9122C23.115 16.9122 24.0288 15.8105 28.3246 15.9216C28.3246 15.9216 31.4845 15.9301 32.4239 16.9122V17.1855L32.535 17.1258V16.8012C32.535 16.8012 31.9628 16.0411 28.9907 15.6739C28.9139 15.6654 28.837 15.6568 28.7601 15.6568C27.7951 15.6312 26.83 15.6739 25.865 15.7764C25.865 15.7764 30.4938 15.0761 32.3215 16.4596C32.3215 16.4596 31.5955 15.4604 28.41 15.3835C28.41 15.3835 25.0707 15.2384 23.5335 16.2205C23.5335 16.2205 23.2944 16.3657 23.2773 16.4596L23.2602 16.5536L23.1919 17.2795Z" fill="#090909"/>
<path d="M28.4019 18.4151H28.7605V17.2707C28.7605 17.2707 28.7435 17.1938 28.7178 17.1682C28.6922 17.1426 28.6495 17.1255 28.6154 17.1255H28.547C28.547 17.1255 28.4702 17.1426 28.4446 17.1682C28.4189 17.1938 28.4019 17.2365 28.4019 17.2707V18.4151Z" fill="#090909"/>
<path d="M29.3413 18.4492H29.7V17.2878C29.7 17.2878 29.6829 17.2109 29.6573 17.1853C29.6317 17.1597 29.589 17.1426 29.5548 17.1426H29.495C29.495 17.1426 29.4182 17.1597 29.3926 17.1853C29.3669 17.2109 29.3499 17.2536 29.3499 17.2878V18.4492H29.3413Z" fill="#090909"/>
<path d="M30.1953 18.5513L30.5198 18.5855V17.4069C30.5198 17.4069 30.5028 17.33 30.4771 17.3044C30.4515 17.2788 30.4088 17.2617 30.3747 17.2617H30.3405C30.3405 17.2617 30.2636 17.2788 30.238 17.3044C30.2124 17.33 30.1953 17.3727 30.1953 17.4069V18.5513Z" fill="#090909"/>
<path d="M27.5303 18.4234H27.8548V17.279C27.8548 17.279 27.8377 17.2021 27.8121 17.1765C27.7865 17.1509 27.7438 17.1338 27.7096 17.1338H27.6755C27.6755 17.1338 27.5986 17.1509 27.573 17.1765C27.5474 17.2021 27.5303 17.2448 27.5303 17.279V18.4234Z" fill="#090909"/>
<path d="M26.5654 18.4917L26.8643 18.4575V17.2704C26.8643 17.2704 26.8643 17.2363 26.8643 17.2192C26.8643 17.2021 26.8473 17.185 26.8387 17.1679C26.8302 17.1509 26.8131 17.1423 26.796 17.1338C26.7789 17.1338 26.7619 17.1167 26.7448 17.1167H26.7106C26.7106 17.1167 26.6765 17.1167 26.6594 17.1338C26.6423 17.1338 26.6252 17.1509 26.6167 17.1679C26.6081 17.185 26.591 17.2021 26.591 17.2192C26.591 17.2363 26.591 17.2533 26.591 17.2704V18.4917H26.5654Z" fill="#090909"/>
<path d="M25.6177 18.5515L25.9166 18.5174V17.3901C25.9166 17.3901 25.9166 17.3559 25.908 17.3388C25.908 17.3217 25.891 17.3047 25.8824 17.2961C25.8739 17.279 25.8568 17.2705 25.8397 17.262C25.8226 17.262 25.8056 17.2534 25.7885 17.2534H25.7543C25.7543 17.2534 25.686 17.2705 25.6604 17.2961C25.6348 17.3217 25.6177 17.3559 25.6262 17.3986V18.5601L25.6177 18.5515Z" fill="#090909"/>
<path d="M24.7637 18.6797L25.0626 18.6456V17.5268C25.0626 17.5268 25.0626 17.4926 25.054 17.4755C25.054 17.4585 25.037 17.4414 25.0284 17.4328C25.0199 17.4158 25.0028 17.4072 24.9857 17.3987C24.9686 17.3987 24.9516 17.3901 24.9345 17.3901H24.9003C24.9003 17.3901 24.8662 17.3901 24.8491 17.3987C24.832 17.3987 24.8149 17.4158 24.8064 17.4328C24.7978 17.4499 24.7808 17.4585 24.7808 17.4755C24.7808 17.4926 24.7722 17.5097 24.7722 17.5268V18.6883L24.7637 18.6797Z" fill="#090909"/>
<path d="M24.1313 18.8082L24.3705 18.7655L24.3363 17.7492C24.3363 17.7492 24.3278 17.6894 24.3021 17.6638C24.2851 17.6382 24.2509 17.6296 24.2253 17.6211H24.1997C24.1997 17.6211 24.1399 17.6467 24.1228 17.6638C24.1057 17.6894 24.0972 17.7236 24.0972 17.7492L24.1399 18.7911L24.1313 18.8082Z" fill="#090909"/>
<path d="M23.5764 18.961L23.8155 18.9183L23.7814 17.9191C23.7814 17.9191 23.7728 17.8593 23.7472 17.8337C23.7301 17.8081 23.696 17.7996 23.6703 17.791H23.6533C23.6533 17.791 23.5935 17.8081 23.5764 17.8337C23.5593 17.8593 23.5508 17.885 23.5508 17.9191L23.5849 18.9525L23.5764 18.961Z" fill="#090909"/>
<path d="M30.9722 18.6965L31.2625 18.7307V17.5521C31.2625 17.5521 31.2625 17.5094 31.2625 17.4838C31.2625 17.4582 31.2455 17.4411 31.2369 17.424C31.2198 17.407 31.2028 17.3899 31.1857 17.3813C31.1686 17.3728 31.143 17.3643 31.1174 17.3643C31.0917 17.3643 31.0747 17.3643 31.049 17.3813C31.032 17.3899 31.0063 17.407 30.9978 17.424C30.9807 17.4411 30.9722 17.4667 30.9722 17.4838C30.9722 17.5094 30.9722 17.5265 30.9722 17.5521V18.6965Z" fill="#090909"/>
<path d="M31.6128 18.7997L31.8348 18.8765V17.7834C31.8348 17.7834 31.8348 17.7492 31.8348 17.7321C31.8348 17.7151 31.8263 17.698 31.8092 17.6894C31.8007 17.6809 31.7836 17.6638 31.7665 17.6638C31.7494 17.6638 31.7323 17.6553 31.7153 17.6553C31.6982 17.6553 31.6811 17.6553 31.664 17.6638C31.6469 17.6638 31.6384 17.6809 31.6213 17.6894C31.6128 17.698 31.6042 17.7151 31.5957 17.7321C31.5957 17.7492 31.5957 17.7663 31.5957 17.7834V18.7997H31.6128Z" fill="#090909"/>
<path d="M32.168 18.9784L32.39 19.0553V18.0134C32.39 18.0134 32.3815 17.9536 32.3559 17.9365C32.3388 17.9194 32.3046 17.9023 32.279 17.9023C32.2534 17.9023 32.2192 17.9109 32.2021 17.9365C32.1851 17.9536 32.168 17.9877 32.168 18.0134V18.987V18.9784Z" fill="#090909"/>
<path d="M32.5352 19.1154L32.706 19.1837V18.1845C32.706 18.1247 32.6633 18.0649 32.6206 18.0649C32.5779 18.0649 32.5352 18.1162 32.5352 18.1845V19.1154Z" fill="#090909"/>
<path d="M23.115 19.1322L23.2858 19.0724L23.2431 18.0732C23.2431 18.0049 23.2004 17.9536 23.1577 17.9536C23.115 17.9536 23.0723 18.0049 23.0723 18.0732L23.115 19.1322Z" fill="#090909"/>
<path d="M31.9375 16.2117C31.7069 12.9493 27.4111 11.728 25.1138 13.735C24.7294 14.051 24.4049 14.4438 24.1743 14.8965C23.9437 15.3405 23.7986 15.8273 23.7644 16.3312H23.7388C23.7388 15.8103 23.8583 15.2978 24.0718 14.8281C24.2854 14.3584 24.6013 13.9399 24.9857 13.5983C26.5229 12.1977 29.0765 12.1806 30.665 13.5044C31.4421 14.1364 32.0314 15.2295 31.9375 16.2117Z" fill="#090909"/>
<path d="M26.2666 13.0002C25.2076 13.487 24.866 14.6827 24.533 15.7075C24.4903 15.8612 24.439 16.015 24.3792 16.1601H24.3536C24.3451 15.6648 24.4305 15.1695 24.6184 14.7083C24.8062 14.2471 25.0795 13.8286 25.4297 13.487C25.6603 13.2564 25.9421 13.0771 26.2581 12.9746C26.2581 12.9831 26.2581 12.9917 26.2581 13.0002H26.2666Z" fill="#090909"/>
<path d="M26.497 12.872C25.5234 13.4015 25.4294 14.6399 25.2159 15.6135C25.1903 15.7672 25.1561 15.9209 25.1134 16.0661H25.0878C25.0195 15.6049 25.0366 15.1267 25.1561 14.6655C25.2672 14.2129 25.4721 13.7773 25.754 13.4016C25.9418 13.1453 26.1895 12.9489 26.4799 12.8379C26.4799 12.8464 26.4884 12.855 26.497 12.8635V12.872Z" fill="#090909"/>
<path d="M26.8131 12.6841C25.9932 13.3758 25.9847 14.5544 25.7883 15.5365C25.7627 15.6903 25.737 15.8269 25.6943 15.9806H25.6687C25.5064 15.0754 25.7456 14.1359 26.1811 13.3331C26.3263 13.0598 26.5398 12.8378 26.796 12.667V12.6841H26.8131Z" fill="#090909"/>
<path d="M27.1974 12.6675C26.9924 12.8212 26.8558 13.0432 26.8131 13.2995C26.6167 14.0681 26.8473 14.8367 26.7704 15.6224H26.7448C26.4544 14.8623 26.4373 14.0254 26.7021 13.2653C26.8046 13.0176 26.9412 12.7614 27.1974 12.6504V12.676V12.6675Z" fill="#090909"/>
<path d="M27.5473 12.8638C27.5644 13.3164 27.5815 13.769 27.59 14.2131C27.6157 14.4523 27.59 15.4429 27.4363 15.554C27.3424 15.1099 27.3253 14.6572 27.3936 14.2046C27.4278 13.752 27.4705 13.3079 27.5217 12.8638H27.5473Z" fill="#090909"/>
<path d="M28.1797 13.1543C28.2224 13.5472 28.2566 13.94 28.2908 14.3414C28.3591 14.7343 28.342 15.1442 28.2395 15.5285H28.2139C28.0943 15.1442 28.0516 14.7428 28.1029 14.3414C28.1114 13.9485 28.1285 13.5472 28.1541 13.1543H28.1797Z" fill="#090909"/>
<path d="M31.4165 15.084C31.4848 15.3573 31.6727 15.7416 31.5275 15.9978C31.4592 15.8612 31.4165 15.3573 31.4165 15.084Z" fill="#090909"/>
<path d="M30.7756 14.6484C30.8525 14.9388 30.8952 15.2377 30.9294 15.5366C30.9208 15.6135 30.9294 15.7928 30.861 15.8355C30.8354 15.7416 30.8183 15.6391 30.8098 15.5452C30.8013 15.3402 30.7842 14.8534 30.7671 14.657H30.7756V14.6484Z" fill="#090909"/>
<path d="M30.2036 14.3159C30.2463 14.7429 30.4341 15.3066 30.2377 15.6994C30.195 15.2383 30.1865 14.7771 30.2036 14.3159Z" fill="#090909"/>
<path d="M29.623 13.9824C29.7255 14.4863 29.8536 15.1012 29.6401 15.5795C29.606 15.05 29.6743 14.4948 29.623 13.9824Z" fill="#090909"/>
<path d="M28.8967 13.6238C28.9224 14.2472 29.1102 15.0329 28.8797 15.5966C28.8797 15.2635 28.8626 14.939 28.8797 14.6059V13.6152H28.8967V13.6238Z" fill="#090909"/>
<path d="M29.4098 14.1274H29.1274V14.6408H29.4098V14.1274Z" fill="#090909"/>
<path d="M28.7013 14.0425H28.4189V14.5558H28.7013V14.0425Z" fill="#090909"/>
<path d="M27.9752 14.0342H27.6929V14.5475H27.9752V14.0342Z" fill="#090909"/>
<path d="M27.2324 14.085V14.2133H27.0185V14.5812H26.8901V14.0935H27.2324V14.085Z" fill="#090909"/>
<path d="M26.3951 14.2983V14.4267H26.2155V14.7946H26.1128V14.3069H26.4037L26.3951 14.2983Z" fill="#090909"/>
<path d="M29.7681 14.2134V14.3332H29.9477V14.701H30.0504V14.2134H29.7681Z" fill="#090909"/>
<path d="M30.4087 14.4009V14.5207H30.5884V14.8885H30.6996V14.4009H30.4087Z" fill="#090909"/>
<path d="M25.4297 14.7864H25.5666L25.6607 14.3501H25.5495L25.4382 14.7864H25.4297Z" fill="#090909"/>
<path d="M26.3435 12.6754V12.5046C26.3435 12.5046 28.0174 11.6164 29.3411 12.5046L29.3753 12.684C29.3326 12.6242 29.2814 12.5815 29.2216 12.5302C29.0081 12.3594 28.4615 12.2057 27.616 12.2484C27.2146 12.2911 26.8218 12.4021 26.4545 12.5815L26.335 12.6754H26.3435Z" fill="#090909"/>
<path d="M26.4629 12.4198V12.2405C26.4629 12.2405 27.9147 11.3523 29.2129 12.2405L29.247 12.4198C29.2043 12.3686 29.1616 12.3173 29.1104 12.2661C28.914 12.0867 28.4101 11.933 27.6329 11.9672C27.2571 12.0099 26.8984 12.1294 26.5654 12.3088L26.4629 12.4198Z" fill="#090909"/>
<path d="M28.1628 10.3953C28.1628 10.3953 28.1884 10.3953 28.2055 10.3953C28.2226 10.3953 28.2311 10.4123 28.2396 10.4209C28.2482 10.4294 28.2567 10.4465 28.2653 10.455C28.2653 10.4721 28.2653 10.4807 28.2653 10.4977V11.7702H28.0518V10.4977C28.0518 10.4977 28.0603 10.438 28.0859 10.4209C28.103 10.4038 28.1372 10.3867 28.1628 10.3867V10.3953Z" fill="#090909"/>
<path d="M27.7951 10.396C27.7951 10.396 27.8207 10.396 27.8378 10.396C27.8549 10.396 27.8634 10.4131 27.872 10.4216C27.8805 10.4302 27.889 10.4472 27.8976 10.4558C27.8976 10.4729 27.8976 10.4814 27.8976 10.4985V11.7454H27.6841V10.507C27.6841 10.507 27.6841 10.4729 27.6841 10.4643C27.6841 10.4472 27.7012 10.4387 27.7097 10.4302C27.7182 10.4216 27.7353 10.4131 27.7439 10.4045C27.7609 10.4045 27.7695 10.396 27.7866 10.396H27.7951Z" fill="#090909"/>
<path d="M27.3852 10.4292C27.3852 10.4292 27.445 10.4377 27.4621 10.4634C27.4791 10.4804 27.4962 10.5146 27.4962 10.5402V11.7786H27.2827V10.5402C27.2827 10.5402 27.2827 10.5146 27.2827 10.4975C27.2827 10.4804 27.2998 10.4719 27.3083 10.4634C27.3169 10.4548 27.334 10.4463 27.3425 10.4377C27.3596 10.4377 27.3681 10.4292 27.3852 10.4292Z" fill="#090909"/>
<path d="M27.1379 10.6177H27.0098V11.8902H27.1379V10.6177Z" fill="#090909"/>
<path d="M28.5383 10.541H28.4102V11.8306H28.5383V10.541Z" fill="#090909"/>
<path d="M26.9242 10.6692C26.9242 10.6692 26.6936 10.5411 26.873 10.1995C27.0523 9.85789 28.47 9.57606 28.7775 10.3532C28.7945 10.3874 28.8031 10.4215 28.8031 10.4557C28.8031 10.4899 28.8031 10.524 28.786 10.5582C28.7689 10.5924 28.7518 10.618 28.7262 10.6436C28.7006 10.6692 28.6664 10.6778 28.6323 10.6863C28.6323 10.6863 28.6579 10.2422 27.8039 10.1995C27.8039 10.191 27.1036 10.1653 26.9328 10.6778L26.9242 10.6692Z" fill="#090909"/>
<path d="M28.5468 9.84887L28.3248 9.80617C28.0002 9.73785 27.6672 9.73785 27.3512 9.80617L27.0864 9.85741C27.1547 9.71223 27.2572 9.59266 27.3853 9.5158C27.5134 9.43039 27.6672 9.3877 27.8209 9.3877C27.9746 9.3877 28.1283 9.43039 28.2564 9.5158C28.3846 9.6012 28.487 9.72077 28.5554 9.85741L28.5468 9.84887Z" fill="#090909"/>
<path d="M28.1029 9.08913C28.1029 9.14891 28.0859 9.2087 28.0517 9.2514C28.0517 9.2087 28.0517 9.17454 28.0261 9.13183C28.0005 9.08913 27.9748 9.06351 27.9407 9.04643C27.9663 9.08913 27.9748 9.14037 27.9834 9.18307C27.9834 9.23432 27.9834 9.27702 27.9578 9.32826C27.9151 9.35388 27.8638 9.37096 27.804 9.37096C27.7442 9.37096 27.693 9.35388 27.6418 9.31972C27.5905 9.28556 27.5564 9.24286 27.5393 9.19162C27.5137 9.14037 27.5137 9.08059 27.5222 9.02081C27.5307 8.96103 27.5649 8.90978 27.5991 8.87562C27.6418 8.83292 27.693 8.8073 27.7442 8.79876C27.804 8.79022 27.8553 8.79876 27.9151 8.81584C27.9663 8.84146 28.009 8.87562 28.0432 8.92687C28.0773 8.97811 28.0944 9.02935 28.0944 9.08913H28.1029Z" fill="#090909"/>
<path d="M27.9403 8.31201H27.6841V8.91838H27.9403V8.31201Z" fill="#090909"/>
<path d="M27.5645 8.34633H28.1025L28.0171 7.69727H27.6926L27.573 8.34633H27.5645Z" fill="#090909"/>
<path d="M27.9837 7.52637H27.7612V7.75736H27.9837V7.52637Z" fill="#090909"/>
<path d="M27.8728 7.56929H27.6675L27.7701 7.38962L27.8728 7.20996L27.9755 7.38962L28.0781 7.56929H27.8728Z" fill="#090909"/>
<path d="M22.7225 19.1578C22.7225 19.1578 18.1278 22.9839 30.5112 24.4613C30.5112 24.4613 34.2604 26.4427 51.4777 26.8782V34.0863C51.4777 34.0863 14.2163 31.4815 17.4787 22.2836C18.0595 20.6438 18.9135 19.9521 20.0835 19.3713C20.8265 18.9955 21.6379 18.9016 22.7225 19.1578Z" fill="white"/>
<path d="M22.2443 19.8587C21.6806 20.6103 21.0145 23.1894 30.5113 24.4705L28.863 29.347C28.863 29.347 24.0292 28.3905 20.8266 26.4006C16.4284 23.6762 19.1527 18.9364 22.7311 19.1584C22.7567 19.1584 22.6969 19.167 22.7311 19.1584L22.6799 19.2524C22.5176 19.4915 22.4151 19.6367 22.2528 19.8587H22.2443Z" fill="#212F64"/>
<path d="M30.8528 24.6152L30.5112 25.9048C30.5112 25.9048 36.8396 27.6897 51.4777 28.168V26.887C51.4777 26.887 35.0547 26.0671 30.8528 24.6152Z" fill="#BD2032"/>
<path d="M30.3062 26.4001L29.9219 27.6812C29.9219 27.6812 36.3186 29.449 51.4776 29.9273V28.6462C51.4776 28.6462 34.6703 27.8349 30.3147 26.3916L30.3062 26.4001Z" fill="#BD2032"/>
<path d="M29.8108 28.1504L29.418 29.4314C29.418 29.4314 36.0965 31.2164 51.4776 31.6946V30.4136C51.4776 30.4136 34.2262 29.5937 29.8108 28.1504Z" fill="#BD2032"/>
<path d="M18.3753 20.6438C18.3753 20.6438 14.6005 26.6903 28.7432 29.799C28.7432 29.799 36.9419 31.9426 51.4689 32.6344V34.0777C51.4689 34.0777 30.6648 32.4636 24.3877 29.7392C17.9141 26.9295 15.7107 23.9574 18.3667 20.6353L18.3753 20.6438Z" fill="#BD2032"/>
<path d="M28.3162 28.0058L28.5126 27.9887L28.3931 28.1595L28.4614 28.3559L28.265 28.2961L28.1027 28.4243V28.2193L27.9404 28.1083L28.1283 28.0485L28.1881 27.8521L28.3077 28.0058H28.3162Z" fill="white"/>
<path d="M28.9397 27.0407H29.1447L29.0081 27.2029L29.0508 27.3994L28.8629 27.3225L28.6921 27.4335L28.7177 27.2286L28.564 27.1005L28.7604 27.0492L28.8373 26.8613L28.9312 27.0407H28.9397Z" fill="white"/>
<path d="M28.6917 25.7851H28.8967L28.7771 25.9473L28.8454 26.1352L28.6575 26.0754L28.4953 26.2035V25.9986L28.333 25.879L28.5209 25.8107L28.5807 25.6143L28.7002 25.7765L28.6917 25.7851Z" fill="white"/>
<path d="M29.4949 24.974H29.6999L29.5803 25.1363L29.6486 25.3327L29.4608 25.2729L29.2985 25.4011V25.1961L29.1362 25.0851L29.3241 25.0167L29.3839 24.8203L29.5035 24.974H29.4949Z" fill="white"/>
<path d="M26.856 27.6554H27.061L26.95 27.8092L27.0183 28.0056L26.8304 27.9458L26.6681 28.0739V27.8689L26.5059 27.7579L26.6937 27.6896L26.7535 27.4932L26.8646 27.6554H26.856Z" fill="white"/>
<path d="M27.4793 26.6901H27.6757L27.5391 26.8524L27.5818 27.0488L27.4024 26.9719L27.2316 27.0829L27.2572 26.878L27.1035 26.7499L27.2999 26.6986L27.3853 26.5107L27.4793 26.6901Z" fill="white"/>
<path d="M27.2488 25.4267H27.4452L27.3257 25.5889L27.3855 25.7768L27.1976 25.717L27.0353 25.8451V25.6402L26.873 25.5206L27.0695 25.4523L27.1293 25.2559L27.2488 25.4181V25.4267Z" fill="white"/>
<path d="M28.0345 24.6239H28.2309L28.1113 24.7862L28.1711 24.9826L27.9832 24.9228L27.821 25.051V24.846L27.6587 24.735L27.8551 24.6666L27.9149 24.4702L28.0345 24.6325V24.6239Z" fill="white"/>
<path d="M25.2588 27.297L25.4553 27.28L25.3357 27.4508L25.404 27.6472L25.2161 27.5874L25.0539 27.7155V27.5105L24.8916 27.3995L25.088 27.3312L25.1393 27.1348L25.2588 27.297Z" fill="white"/>
<path d="M25.8821 26.3317H26.0785L25.9419 26.494L25.9846 26.6904L25.8053 26.6135L25.6345 26.7245L25.6601 26.5196L25.5063 26.3915L25.7028 26.3402L25.7882 26.1523L25.8821 26.3317Z" fill="white"/>
<path d="M25.6346 25.0768H25.831L25.7114 25.2391L25.7712 25.427L25.5833 25.3672L25.4211 25.4953V25.2903L25.2588 25.1793L25.4552 25.111L25.515 24.9146L25.6346 25.0768Z" fill="white"/>
<path d="M26.4373 24.2651H26.6337L26.5142 24.4273L26.5739 24.6237L26.3861 24.564L26.2238 24.6921V24.4871L26.0615 24.3761L26.2579 24.3078L26.3177 24.1113L26.4373 24.2736V24.2651Z" fill="white"/>
<path d="M23.8924 26.8781H24.0888L23.9692 27.0403L24.029 27.2282L23.8411 27.1685L23.6789 27.2966V27.0916L23.5166 26.9806L23.713 26.9122L23.7728 26.7158L23.8924 26.8781Z" fill="white"/>
<path d="M24.5157 25.9137H24.7206L24.584 26.076L24.6267 26.2724L24.4473 26.1956L24.2765 26.3066L24.3022 26.1016L24.1484 25.9735L24.3449 25.9223L24.4217 25.7344L24.5157 25.9137Z" fill="white"/>
<path d="M24.2681 24.6579H24.4731L24.3535 24.8201L24.4218 25.008L24.2254 24.9482L24.0631 25.0763V24.8714L23.9009 24.7604L24.0888 24.692L24.1485 24.4956L24.2681 24.6579Z" fill="white"/>
<path d="M25.0708 23.8551L25.2673 23.8381L25.1477 24.0089L25.216 24.2053L25.0281 24.1455L24.8659 24.2736V24.0686L24.7036 23.9576L24.8915 23.8893L24.9513 23.6929L25.0708 23.8551Z" fill="white"/>
<path d="M22.4661 26.2978H22.6711L22.5515 26.46L22.6198 26.6565L22.4234 26.5967L22.2697 26.7248V26.5198L22.1074 26.4088L22.2953 26.3405L22.3551 26.144L22.4661 26.3063V26.2978Z" fill="white"/>
<path d="M23.0896 25.3322L23.2861 25.3493L23.1494 25.503L23.1921 25.6994L23.0128 25.614L22.842 25.725L22.8676 25.5201L22.7139 25.392L22.9103 25.3493L22.9872 25.1528L23.0896 25.3322Z" fill="white"/>
<path d="M22.8418 24.0768L23.0383 24.0597L22.9187 24.2305L22.987 24.427L22.7991 24.3672L22.6369 24.4953V24.2903L22.4746 24.1793L22.671 24.111L22.7308 23.9146L22.8504 24.0768H22.8418Z" fill="white"/>
<path d="M23.6446 23.2655H23.841L23.7214 23.4278L23.7898 23.6157L23.6019 23.5559L23.4396 23.684V23.479L23.2773 23.3595L23.4652 23.2912L23.525 23.0947L23.6446 23.257V23.2655Z" fill="white"/>
<path d="M21.014 25.2902H21.2104L21.0908 25.4525L21.1506 25.6403L20.9627 25.5806L20.8004 25.7087V25.5037L20.6382 25.3927L20.8346 25.3244L20.8944 25.1279L21.014 25.2902Z" fill="white"/>
<path d="M21.638 24.3244L21.8344 24.3415L21.6978 24.4952L21.7405 24.6916L21.5611 24.6147L21.3903 24.7343L21.4159 24.5293L21.2622 24.4012L21.4586 24.35L21.5355 24.1621L21.6294 24.3329L21.638 24.3244Z" fill="white"/>
<path d="M21.3902 23.0693H21.5951L21.4756 23.2315L21.5439 23.4279L21.3475 23.3682L21.1852 23.4963V23.2913L21.0229 23.1803L21.2108 23.112L21.2706 22.9155L21.3902 23.0778V23.0693Z" fill="white"/>
<path d="M22.1929 22.2668L22.3893 22.2497L22.2698 22.4205L22.3381 22.6169L22.1502 22.5571L21.9879 22.6852V22.4803L21.8257 22.3692L22.0136 22.3009L22.0734 22.1045L22.1929 22.2668Z" fill="white"/>
<path d="M19.8873 23.7782H20.0922L19.9727 23.9405L20.041 24.1369L19.8446 24.0771L19.6823 24.2053V24.0003L19.52 23.8893L19.7079 23.8209L19.7677 23.6245L19.8873 23.7868V23.7782Z" fill="white"/>
<path d="M20.5103 22.8126L20.7067 22.8297L20.5701 22.9835L20.6128 23.1799L20.4249 23.0945L20.2541 23.2055L20.2797 23.0005L20.126 22.8724L20.3224 22.8297L20.3993 22.6333L20.5018 22.8126H20.5103Z" fill="white"/>
<path d="M20.2715 21.5575L20.468 21.5404L20.3484 21.7027L20.4167 21.8991L20.2288 21.8394L20.0666 21.9675V21.7625L19.9043 21.6515L20.0922 21.5831L20.152 21.3867L20.2715 21.5575Z" fill="white"/>
<path d="M21.0657 20.747H21.2707L21.1511 20.9092L21.2195 21.0971L21.0316 21.0373L20.8693 21.1655V20.9605L20.707 20.8409L20.8949 20.7726L20.9547 20.5762L21.0743 20.7384L21.0657 20.747Z" fill="white"/>
</g>
<path d="M49.8877 21.8408C49.8877 21.9541 49.8818 22.0518 49.8701 22.1338C49.8623 22.2158 49.8486 22.2822 49.8291 22.333C49.8135 22.3799 49.792 22.4131 49.7646 22.4326C49.7412 22.4521 49.7119 22.4619 49.6768 22.4619C49.626 22.4619 49.5439 22.4268 49.4307 22.3564C49.3174 22.2861 49.167 22.21 48.9795 22.1279C48.792 22.0459 48.5674 21.9697 48.3057 21.8994C48.0479 21.8291 47.7471 21.7939 47.4033 21.7939C47.0361 21.7939 46.7041 21.8584 46.4072 21.9873C46.1104 22.1123 45.8564 22.292 45.6455 22.5264C45.4346 22.7568 45.2725 23.0361 45.1592 23.3643C45.0459 23.6885 44.9893 24.0479 44.9893 24.4424C44.9893 24.876 45.0459 25.2588 45.1592 25.5908C45.2764 25.9189 45.4385 26.1943 45.6455 26.417C45.8525 26.6396 46.1006 26.8076 46.3896 26.9209C46.6826 27.0342 47.0049 27.0908 47.3564 27.0908C47.5283 27.0908 47.6982 27.0713 47.8662 27.0322C48.0342 26.9932 48.1904 26.9346 48.335 26.8564V25.0986H46.8994C46.8291 25.0986 46.7744 25.0557 46.7354 24.9697C46.6963 24.8799 46.6768 24.7295 46.6768 24.5186C46.6768 24.4092 46.6807 24.3174 46.6885 24.2432C46.7002 24.1689 46.7158 24.1104 46.7354 24.0674C46.7549 24.0205 46.7783 23.9873 46.8057 23.9678C46.833 23.9443 46.8643 23.9326 46.8994 23.9326H49.46C49.5225 23.9326 49.5771 23.9443 49.624 23.9678C49.6748 23.9873 49.7178 24.0186 49.7529 24.0615C49.792 24.1045 49.8213 24.1572 49.8408 24.2197C49.8604 24.2783 49.8701 24.3467 49.8701 24.4248V27.4424C49.8701 27.5596 49.8486 27.6631 49.8057 27.7529C49.7666 27.8389 49.6826 27.9072 49.5537 27.958C49.4287 28.0088 49.2725 28.0615 49.085 28.1162C48.8975 28.1709 48.7021 28.2178 48.499 28.2568C48.2998 28.2959 48.0967 28.3252 47.8896 28.3447C47.6865 28.3643 47.4814 28.374 47.2744 28.374C46.6689 28.374 46.126 28.2881 45.6455 28.1162C45.1689 27.9404 44.7646 27.6885 44.4326 27.3604C44.1006 27.0283 43.8467 26.626 43.6709 26.1533C43.4951 25.6768 43.4072 25.1377 43.4072 24.5361C43.4072 23.915 43.501 23.3584 43.6885 22.8662C43.876 22.3701 44.1416 21.9502 44.4854 21.6064C44.8291 21.2588 45.2432 20.9932 45.7275 20.8096C46.2158 20.626 46.7588 20.5342 47.3564 20.5342C47.6846 20.5342 47.9834 20.5576 48.2529 20.6045C48.5225 20.6475 48.7568 20.7021 48.9561 20.7686C49.1592 20.8311 49.3271 20.8994 49.46 20.9736C49.5928 21.0479 49.6846 21.1123 49.7354 21.167C49.79 21.2217 49.8291 21.2998 49.8525 21.4014C49.876 21.499 49.8877 21.6455 49.8877 21.8408ZM56.6553 25.3799C56.6553 25.8252 56.5967 26.2314 56.4795 26.5986C56.3623 26.9658 56.1846 27.2822 55.9463 27.5479C55.708 27.8135 55.4092 28.0186 55.0498 28.1631C54.6904 28.3076 54.2705 28.3799 53.79 28.3799C53.3252 28.3799 52.9209 28.3154 52.5771 28.1865C52.2334 28.0576 51.9482 27.8701 51.7217 27.624C51.4951 27.3779 51.3271 27.0752 51.2178 26.7158C51.1084 26.3564 51.0537 25.9463 51.0537 25.4854C51.0537 25.04 51.1123 24.6338 51.2295 24.2666C51.3506 23.8955 51.5303 23.5791 51.7686 23.3174C52.0068 23.0518 52.3037 22.8467 52.6592 22.7021C53.0186 22.5576 53.4385 22.4854 53.9189 22.4854C54.3877 22.4854 54.7939 22.5498 55.1377 22.6787C55.4814 22.8037 55.7646 22.9893 55.9873 23.2354C56.2139 23.4814 56.3818 23.7842 56.4912 24.1436C56.6006 24.5029 56.6553 24.915 56.6553 25.3799ZM55.1377 25.4385C55.1377 25.1807 55.1162 24.9443 55.0732 24.7295C55.0342 24.5107 54.9658 24.3213 54.8682 24.1611C54.7705 24.001 54.6396 23.876 54.4756 23.7861C54.3154 23.6963 54.1123 23.6514 53.8662 23.6514C53.6475 23.6514 53.4561 23.6924 53.292 23.7744C53.1279 23.8525 52.9932 23.9697 52.8877 24.126C52.7822 24.2783 52.7021 24.4639 52.6475 24.6826C52.5967 24.8975 52.5713 25.1436 52.5713 25.4209C52.5713 25.6787 52.5928 25.917 52.6357 26.1357C52.6787 26.3506 52.7471 26.5381 52.8408 26.6982C52.9385 26.8584 53.0693 26.9834 53.2334 27.0732C53.3975 27.1592 53.6006 27.2021 53.8428 27.2021C54.0654 27.2021 54.2588 27.1631 54.4229 27.085C54.5869 27.0029 54.7217 26.8857 54.8271 26.7334C54.9326 26.5811 55.0107 26.3975 55.0615 26.1826C55.1123 25.9639 55.1377 25.7158 55.1377 25.4385ZM62.6025 22.8135C62.6025 22.833 62.6006 22.8564 62.5967 22.8838C62.5967 22.9111 62.5928 22.9424 62.585 22.9775C62.5811 23.0088 62.5732 23.0459 62.5615 23.0889C62.5537 23.1318 62.542 23.1807 62.5264 23.2354L60.9561 27.9639C60.9365 28.0303 60.9092 28.085 60.874 28.1279C60.8428 28.167 60.7881 28.1982 60.71 28.2217C60.6357 28.2451 60.5322 28.2607 60.3994 28.2686C60.2705 28.2764 60.1006 28.2803 59.8896 28.2803C59.6826 28.2803 59.5127 28.2744 59.3799 28.2627C59.251 28.2549 59.1494 28.2393 59.0752 28.2158C59.001 28.1924 58.9463 28.1611 58.9111 28.1221C58.8799 28.0791 58.8545 28.0264 58.835 27.9639L57.2646 23.2354C57.2412 23.1572 57.2217 23.0869 57.2061 23.0244C57.1943 22.9619 57.1865 22.917 57.1826 22.8896C57.1826 22.8623 57.1826 22.8369 57.1826 22.8135C57.1826 22.7744 57.1924 22.7412 57.2119 22.7139C57.2354 22.6826 57.2744 22.6572 57.3291 22.6377C57.3838 22.6182 57.458 22.6045 57.5518 22.5967C57.6494 22.5889 57.7705 22.585 57.915 22.585C58.0752 22.585 58.2041 22.5908 58.3018 22.6025C58.3994 22.6104 58.4756 22.624 58.5303 22.6436C58.5889 22.6592 58.6299 22.6846 58.6533 22.7197C58.6768 22.751 58.6963 22.79 58.7119 22.8369L59.9014 26.6748L59.9365 26.8213L59.9717 26.6748L61.1436 22.8369C61.1553 22.79 61.1729 22.751 61.1963 22.7197C61.2236 22.6846 61.2646 22.6592 61.3193 22.6436C61.374 22.624 61.4463 22.6104 61.5361 22.6025C61.6299 22.5908 61.751 22.585 61.8994 22.585C62.0439 22.585 62.1611 22.5889 62.251 22.5967C62.3447 22.6045 62.417 22.6182 62.4678 22.6377C62.5186 22.6572 62.5537 22.6826 62.5732 22.7139C62.5928 22.7412 62.6025 22.7744 62.6025 22.8135ZM68.1865 25.2803C68.1865 25.46 68.1455 25.5928 68.0635 25.6787C67.9854 25.7646 67.876 25.8076 67.7354 25.8076H64.5537C64.5537 26.0303 64.5791 26.2334 64.6299 26.417C64.6846 26.5967 64.7686 26.751 64.8818 26.8799C64.999 27.0049 65.1475 27.1006 65.3271 27.167C65.5107 27.2334 65.7295 27.2666 65.9834 27.2666C66.2412 27.2666 66.4678 27.249 66.6631 27.2139C66.8584 27.1748 67.0264 27.1338 67.167 27.0908C67.3115 27.0439 67.4307 27.0029 67.5244 26.9678C67.6182 26.9287 67.6943 26.9092 67.7529 26.9092C67.7881 26.9092 67.8174 26.917 67.8408 26.9326C67.8643 26.9443 67.8838 26.9678 67.8994 27.0029C67.915 27.0381 67.9248 27.0889 67.9287 27.1553C67.9365 27.2178 67.9404 27.2979 67.9404 27.3955C67.9404 27.4814 67.9385 27.5557 67.9346 27.6182C67.9307 27.6768 67.9248 27.7275 67.917 27.7705C67.9092 27.8135 67.8975 27.8506 67.8818 27.8818C67.8662 27.9092 67.8447 27.9365 67.8174 27.9639C67.7939 27.9912 67.7256 28.0283 67.6123 28.0752C67.499 28.1221 67.3545 28.1689 67.1787 28.2158C67.0029 28.2588 66.8018 28.2959 66.5752 28.3271C66.3486 28.3623 66.1064 28.3799 65.8486 28.3799C65.3838 28.3799 64.9756 28.3213 64.624 28.2041C64.2764 28.0869 63.9854 27.9092 63.751 27.6709C63.5166 27.4326 63.3408 27.1318 63.2236 26.7686C63.1104 26.4053 63.0537 25.9795 63.0537 25.4912C63.0537 25.0264 63.1143 24.6084 63.2354 24.2373C63.3564 23.8623 63.5322 23.5459 63.7627 23.2881C63.9932 23.0264 64.2725 22.8271 64.6006 22.6904C64.9326 22.5537 65.3057 22.4854 65.7197 22.4854C66.1572 22.4854 66.5303 22.5498 66.8389 22.6787C67.1514 22.8076 67.4072 22.9873 67.6064 23.2178C67.8057 23.4443 67.9521 23.7139 68.0459 24.0264C68.1396 24.3389 68.1865 24.6787 68.1865 25.0459V25.2803ZM66.7568 24.8584C66.7686 24.4443 66.6846 24.1201 66.5049 23.8857C66.3291 23.6475 66.0557 23.5283 65.6846 23.5283C65.4971 23.5283 65.333 23.5635 65.1924 23.6338C65.0557 23.7041 64.9404 23.7998 64.8467 23.9209C64.7568 24.0381 64.6865 24.1787 64.6357 24.3428C64.5889 24.5029 64.5615 24.6748 64.5537 24.8584H66.7568ZM72.7627 23.3057C72.7627 23.4463 72.7588 23.5615 72.751 23.6514C72.7432 23.7412 72.7314 23.8115 72.7158 23.8623C72.7002 23.9131 72.6787 23.9482 72.6514 23.9678C72.6279 23.9873 72.5967 23.9971 72.5576 23.9971C72.5264 23.9971 72.4912 23.9912 72.4521 23.9795C72.4131 23.9639 72.3682 23.9482 72.3174 23.9326C72.2705 23.917 72.2178 23.9033 72.1592 23.8916C72.1006 23.876 72.0361 23.8682 71.9658 23.8682C71.8838 23.8682 71.8018 23.8857 71.7197 23.9209C71.6377 23.9521 71.5518 24.0029 71.4619 24.0732C71.376 24.1436 71.2842 24.2373 71.1865 24.3545C71.0928 24.4717 70.9912 24.6162 70.8818 24.7881V28.0459C70.8818 28.085 70.8701 28.1201 70.8467 28.1514C70.8232 28.1787 70.7822 28.2021 70.7236 28.2217C70.6689 28.2412 70.5947 28.2549 70.501 28.2627C70.4072 28.2744 70.2881 28.2803 70.1436 28.2803C69.999 28.2803 69.8799 28.2744 69.7861 28.2627C69.6924 28.2549 69.6162 28.2412 69.5576 28.2217C69.5029 28.2021 69.4639 28.1787 69.4404 28.1514C69.417 28.1201 69.4053 28.085 69.4053 28.0459V22.8193C69.4053 22.7803 69.415 22.7471 69.4346 22.7197C69.4541 22.6885 69.4893 22.6631 69.54 22.6436C69.5908 22.624 69.6553 22.6104 69.7334 22.6025C69.8154 22.5908 69.917 22.585 70.0381 22.585C70.1631 22.585 70.2666 22.5908 70.3486 22.6025C70.4307 22.6104 70.4932 22.624 70.5361 22.6436C70.583 22.6631 70.6162 22.6885 70.6357 22.7197C70.6553 22.7471 70.665 22.7803 70.665 22.8193V23.4697C70.8018 23.2744 70.9307 23.1143 71.0518 22.9893C71.1729 22.8604 71.2881 22.7588 71.3975 22.6846C71.5068 22.6104 71.6162 22.5596 71.7256 22.5322C71.835 22.501 71.9443 22.4854 72.0537 22.4854C72.1045 22.4854 72.1592 22.4893 72.2178 22.4971C72.2764 22.501 72.3369 22.5107 72.3994 22.5264C72.4619 22.5381 72.5166 22.5537 72.5635 22.5732C72.6104 22.5889 72.6436 22.6064 72.6631 22.626C72.6865 22.6455 72.7021 22.667 72.71 22.6904C72.7217 22.7139 72.7314 22.7471 72.7393 22.79C72.7471 22.8291 72.7529 22.8896 72.7568 22.9717C72.7607 23.0537 72.7627 23.165 72.7627 23.3057ZM78.6631 28.0459C78.6631 28.085 78.6514 28.1201 78.6279 28.1514C78.6045 28.1787 78.5654 28.2021 78.5107 28.2217C78.4561 28.2412 78.3799 28.2549 78.2822 28.2627C78.1885 28.2744 78.0713 28.2803 77.9307 28.2803C77.7861 28.2803 77.665 28.2744 77.5674 28.2627C77.4736 28.2549 77.3994 28.2412 77.3447 28.2217C77.29 28.2021 77.251 28.1787 77.2275 28.1514C77.2041 28.1201 77.1924 28.085 77.1924 28.0459V25.0635C77.1924 24.8096 77.1729 24.6104 77.1338 24.4658C77.0986 24.3213 77.0459 24.1982 76.9756 24.0967C76.9053 23.9912 76.8135 23.9111 76.7002 23.8564C76.5908 23.7979 76.4619 23.7686 76.3135 23.7686C76.126 23.7686 75.9365 23.8369 75.7451 23.9736C75.5537 24.1104 75.3545 24.3096 75.1475 24.5713V28.0459C75.1475 28.085 75.1357 28.1201 75.1123 28.1514C75.0889 28.1787 75.0479 28.2021 74.9893 28.2217C74.9346 28.2412 74.8604 28.2549 74.7666 28.2627C74.6729 28.2744 74.5537 28.2803 74.4092 28.2803C74.2646 28.2803 74.1455 28.2744 74.0518 28.2627C73.958 28.2549 73.8818 28.2412 73.8232 28.2217C73.7686 28.2021 73.7295 28.1787 73.7061 28.1514C73.6826 28.1201 73.6709 28.085 73.6709 28.0459V22.8193C73.6709 22.7803 73.6807 22.7471 73.7002 22.7197C73.7197 22.6885 73.7549 22.6631 73.8057 22.6436C73.8564 22.624 73.9209 22.6104 73.999 22.6025C74.0811 22.5908 74.1826 22.585 74.3037 22.585C74.4287 22.585 74.5322 22.5908 74.6143 22.6025C74.6963 22.6104 74.7588 22.624 74.8018 22.6436C74.8486 22.6631 74.8818 22.6885 74.9014 22.7197C74.9209 22.7471 74.9307 22.7803 74.9307 22.8193V23.4229C75.2197 23.1104 75.5127 22.876 75.8096 22.7197C76.1104 22.5635 76.4229 22.4854 76.7471 22.4854C77.1025 22.4854 77.4014 22.5439 77.6436 22.6611C77.8896 22.7783 78.0869 22.9385 78.2354 23.1416C78.3877 23.3408 78.4971 23.5752 78.5635 23.8447C78.6299 24.1143 78.6631 24.4385 78.6631 24.8174V28.0459ZM88.4307 28.0459C88.4307 28.085 88.4189 28.1201 88.3955 28.1514C88.3721 28.1787 88.333 28.2021 88.2783 28.2217C88.2236 28.2412 88.1494 28.2549 88.0557 28.2627C87.9619 28.2744 87.8428 28.2803 87.6982 28.2803C87.5498 28.2803 87.4287 28.2744 87.335 28.2627C87.2412 28.2549 87.165 28.2412 87.1064 28.2217C87.0518 28.2021 87.0127 28.1787 86.9893 28.1514C86.9697 28.1201 86.96 28.085 86.96 28.0459V24.9463C86.96 24.7705 86.9424 24.6104 86.9072 24.4658C86.876 24.3213 86.8252 24.1982 86.7549 24.0967C86.6885 23.9912 86.6025 23.9111 86.4971 23.8564C86.3955 23.7979 86.2725 23.7686 86.1279 23.7686C85.9521 23.7686 85.7744 23.8369 85.5947 23.9736C85.415 24.1104 85.2197 24.3096 85.0088 24.5713V28.0459C85.0088 28.085 84.9971 28.1201 84.9736 28.1514C84.9502 28.1787 84.9092 28.2021 84.8506 28.2217C84.7959 28.2412 84.7217 28.2549 84.6279 28.2627C84.5342 28.2744 84.417 28.2803 84.2764 28.2803C84.1318 28.2803 84.0127 28.2744 83.9189 28.2627C83.8252 28.2549 83.749 28.2412 83.6904 28.2217C83.6357 28.2021 83.5967 28.1787 83.5732 28.1514C83.5498 28.1201 83.5381 28.085 83.5381 28.0459V24.9463C83.5381 24.7705 83.5205 24.6104 83.4854 24.4658C83.4541 24.3213 83.4053 24.1982 83.3389 24.0967C83.2725 23.9912 83.1865 23.9111 83.0811 23.8564C82.9756 23.7979 82.8525 23.7686 82.7119 23.7686C82.5322 23.7686 82.3525 23.8369 82.1729 23.9736C81.9932 24.1104 81.7998 24.3096 81.5928 24.5713V28.0459C81.5928 28.085 81.5811 28.1201 81.5576 28.1514C81.5342 28.1787 81.4932 28.2021 81.4346 28.2217C81.3799 28.2412 81.3057 28.2549 81.2119 28.2627C81.1182 28.2744 80.999 28.2803 80.8545 28.2803C80.71 28.2803 80.5908 28.2744 80.4971 28.2627C80.4033 28.2549 80.3271 28.2412 80.2686 28.2217C80.2139 28.2021 80.1748 28.1787 80.1514 28.1514C80.1279 28.1201 80.1162 28.085 80.1162 28.0459V22.8193C80.1162 22.7803 80.126 22.7471 80.1455 22.7197C80.165 22.6885 80.2002 22.6631 80.251 22.6436C80.3018 22.624 80.3662 22.6104 80.4443 22.6025C80.5264 22.5908 80.6279 22.585 80.749 22.585C80.874 22.585 80.9775 22.5908 81.0596 22.6025C81.1416 22.6104 81.2041 22.624 81.2471 22.6436C81.2939 22.6631 81.3271 22.6885 81.3467 22.7197C81.3662 22.7471 81.376 22.7803 81.376 22.8193V23.4229C81.665 23.1104 81.9521 22.876 82.2373 22.7197C82.5264 22.5635 82.8271 22.4854 83.1396 22.4854C83.3545 22.4854 83.5479 22.5088 83.7197 22.5557C83.8916 22.5986 84.0439 22.6631 84.1768 22.749C84.3135 22.8311 84.4307 22.9307 84.5283 23.0479C84.626 23.165 84.708 23.2959 84.7744 23.4404C84.9307 23.2725 85.083 23.1279 85.2314 23.0068C85.3838 22.8857 85.5322 22.7881 85.6768 22.7139C85.8252 22.6357 85.9717 22.5791 86.1162 22.5439C86.2646 22.5049 86.415 22.4854 86.5674 22.4854C86.915 22.4854 87.208 22.5439 87.4463 22.6611C87.6846 22.7783 87.876 22.9385 88.0205 23.1416C88.1689 23.3408 88.2744 23.5752 88.3369 23.8447C88.3994 24.1143 88.4307 24.3994 88.4307 24.7002V28.0459ZM94.7061 25.2803C94.7061 25.46 94.665 25.5928 94.583 25.6787C94.5049 25.7646 94.3955 25.8076 94.2549 25.8076H91.0732C91.0732 26.0303 91.0986 26.2334 91.1494 26.417C91.2041 26.5967 91.2881 26.751 91.4014 26.8799C91.5186 27.0049 91.667 27.1006 91.8467 27.167C92.0303 27.2334 92.249 27.2666 92.5029 27.2666C92.7607 27.2666 92.9873 27.249 93.1826 27.2139C93.3779 27.1748 93.5459 27.1338 93.6865 27.0908C93.8311 27.0439 93.9502 27.0029 94.0439 26.9678C94.1377 26.9287 94.2139 26.9092 94.2725 26.9092C94.3076 26.9092 94.3369 26.917 94.3604 26.9326C94.3838 26.9443 94.4033 26.9678 94.4189 27.0029C94.4346 27.0381 94.4443 27.0889 94.4482 27.1553C94.4561 27.2178 94.46 27.2979 94.46 27.3955C94.46 27.4814 94.458 27.5557 94.4541 27.6182C94.4502 27.6768 94.4443 27.7275 94.4365 27.7705C94.4287 27.8135 94.417 27.8506 94.4014 27.8818C94.3857 27.9092 94.3643 27.9365 94.3369 27.9639C94.3135 27.9912 94.2451 28.0283 94.1318 28.0752C94.0186 28.1221 93.874 28.1689 93.6982 28.2158C93.5225 28.2588 93.3213 28.2959 93.0947 28.3271C92.8682 28.3623 92.626 28.3799 92.3682 28.3799C91.9033 28.3799 91.4951 28.3213 91.1436 28.2041C90.7959 28.0869 90.5049 27.9092 90.2705 27.6709C90.0361 27.4326 89.8604 27.1318 89.7432 26.7686C89.6299 26.4053 89.5732 25.9795 89.5732 25.4912C89.5732 25.0264 89.6338 24.6084 89.7549 24.2373C89.876 23.8623 90.0518 23.5459 90.2822 23.2881C90.5127 23.0264 90.792 22.8271 91.1201 22.6904C91.4521 22.5537 91.8252 22.4854 92.2393 22.4854C92.6768 22.4854 93.0498 22.5498 93.3584 22.6787C93.6709 22.8076 93.9268 22.9873 94.126 23.2178C94.3252 23.4443 94.4717 23.7139 94.5654 24.0264C94.6592 24.3389 94.7061 24.6787 94.7061 25.0459V25.2803ZM93.2764 24.8584C93.2881 24.4443 93.2041 24.1201 93.0244 23.8857C92.8486 23.6475 92.5752 23.5283 92.2041 23.5283C92.0166 23.5283 91.8525 23.5635 91.7119 23.6338C91.5752 23.7041 91.46 23.7998 91.3662 23.9209C91.2764 24.0381 91.2061 24.1787 91.1553 24.3428C91.1084 24.5029 91.0811 24.6748 91.0732 24.8584H93.2764ZM100.917 28.0459C100.917 28.085 100.905 28.1201 100.882 28.1514C100.858 28.1787 100.819 28.2021 100.765 28.2217C100.71 28.2412 100.634 28.2549 100.536 28.2627C100.442 28.2744 100.325 28.2803 100.185 28.2803C100.04 28.2803 99.9189 28.2744 99.8213 28.2627C99.7275 28.2549 99.6533 28.2412 99.5986 28.2217C99.5439 28.2021 99.5049 28.1787 99.4814 28.1514C99.458 28.1201 99.4463 28.085 99.4463 28.0459V25.0635C99.4463 24.8096 99.4268 24.6104 99.3877 24.4658C99.3525 24.3213 99.2998 24.1982 99.2295 24.0967C99.1592 23.9912 99.0674 23.9111 98.9541 23.8564C98.8447 23.7979 98.7158 23.7686 98.5674 23.7686C98.3799 23.7686 98.1904 23.8369 97.999 23.9736C97.8076 24.1104 97.6084 24.3096 97.4014 24.5713V28.0459C97.4014 28.085 97.3896 28.1201 97.3662 28.1514C97.3428 28.1787 97.3018 28.2021 97.2432 28.2217C97.1885 28.2412 97.1143 28.2549 97.0205 28.2627C96.9268 28.2744 96.8076 28.2803 96.6631 28.2803C96.5186 28.2803 96.3994 28.2744 96.3057 28.2627C96.2119 28.2549 96.1357 28.2412 96.0771 28.2217C96.0225 28.2021 95.9834 28.1787 95.96 28.1514C95.9365 28.1201 95.9248 28.085 95.9248 28.0459V22.8193C95.9248 22.7803 95.9346 22.7471 95.9541 22.7197C95.9736 22.6885 96.0088 22.6631 96.0596 22.6436C96.1104 22.624 96.1748 22.6104 96.2529 22.6025C96.335 22.5908 96.4365 22.585 96.5576 22.585C96.6826 22.585 96.7861 22.5908 96.8682 22.6025C96.9502 22.6104 97.0127 22.624 97.0557 22.6436C97.1025 22.6631 97.1357 22.6885 97.1553 22.7197C97.1748 22.7471 97.1846 22.7803 97.1846 22.8193V23.4229C97.4736 23.1104 97.7666 22.876 98.0635 22.7197C98.3643 22.5635 98.6768 22.4854 99.001 22.4854C99.3564 22.4854 99.6553 22.5439 99.8975 22.6611C100.144 22.7783 100.341 22.9385 100.489 23.1416C100.642 23.3408 100.751 23.5752 100.817 23.8447C100.884 24.1143 100.917 24.4385 100.917 24.8174V28.0459ZM105.347 27.5303C105.347 27.7021 105.335 27.835 105.312 27.9287C105.292 28.0186 105.265 28.083 105.229 28.1221C105.194 28.1572 105.142 28.1904 105.071 28.2217C105.005 28.249 104.925 28.2725 104.831 28.292C104.741 28.3154 104.642 28.333 104.532 28.3447C104.427 28.3564 104.319 28.3623 104.21 28.3623C103.917 28.3623 103.663 28.3252 103.448 28.251C103.233 28.1768 103.056 28.0635 102.915 27.9111C102.774 27.7549 102.671 27.5596 102.604 27.3252C102.538 27.0908 102.505 26.8135 102.505 26.4932V23.8154H101.878C101.804 23.8154 101.747 23.7705 101.708 23.6807C101.669 23.5869 101.649 23.4326 101.649 23.2178C101.649 23.1045 101.653 23.0088 101.661 22.9307C101.673 22.8525 101.688 22.792 101.708 22.749C101.728 22.7021 101.751 22.6689 101.778 22.6494C101.81 22.6299 101.845 22.6201 101.884 22.6201H102.505V21.4541C102.505 21.415 102.515 21.3799 102.534 21.3486C102.558 21.3174 102.597 21.292 102.651 21.2725C102.71 21.249 102.786 21.2334 102.88 21.2256C102.978 21.2139 103.097 21.208 103.237 21.208C103.382 21.208 103.501 21.2139 103.595 21.2256C103.692 21.2334 103.769 21.249 103.823 21.2725C103.878 21.292 103.917 21.3174 103.94 21.3486C103.964 21.3799 103.976 21.415 103.976 21.4541V22.6201H105.112C105.151 22.6201 105.185 22.6299 105.212 22.6494C105.243 22.6689 105.269 22.7021 105.288 22.749C105.308 22.792 105.321 22.8525 105.329 22.9307C105.341 23.0088 105.347 23.1045 105.347 23.2178C105.347 23.4326 105.327 23.5869 105.288 23.6807C105.249 23.7705 105.192 23.8154 105.118 23.8154H103.976V26.2705C103.976 26.5557 104.021 26.7705 104.11 26.915C104.2 27.0557 104.36 27.126 104.591 27.126C104.669 27.126 104.739 27.1201 104.802 27.1084C104.864 27.0928 104.919 27.0771 104.966 27.0615C105.017 27.042 105.058 27.0264 105.089 27.0146C105.124 26.999 105.155 26.9912 105.183 26.9912C105.206 26.9912 105.228 26.999 105.247 27.0146C105.271 27.0264 105.288 27.0537 105.3 27.0967C105.312 27.1357 105.321 27.1904 105.329 27.2607C105.341 27.3311 105.347 27.4209 105.347 27.5303ZM114.71 25.9717C114.71 26.2412 114.673 26.4854 114.599 26.7041C114.524 26.9229 114.421 27.1162 114.288 27.2842C114.159 27.4521 114.003 27.5967 113.819 27.7178C113.64 27.8389 113.44 27.9385 113.222 28.0166C113.003 28.0947 112.769 28.1533 112.519 28.1924C112.272 28.2275 111.997 28.2451 111.692 28.2451H109.677C109.548 28.2451 109.438 28.208 109.349 28.1338C109.263 28.0557 109.22 27.9307 109.22 27.7588V21.1494C109.22 20.9775 109.263 20.8545 109.349 20.7803C109.438 20.7021 109.548 20.6631 109.677 20.6631H111.581C112.046 20.6631 112.438 20.7021 112.759 20.7803C113.083 20.8584 113.354 20.9775 113.573 21.1377C113.796 21.2939 113.966 21.4932 114.083 21.7354C114.2 21.9775 114.259 22.2627 114.259 22.5908C114.259 22.7744 114.235 22.9482 114.188 23.1123C114.142 23.2725 114.073 23.4189 113.983 23.5518C113.894 23.6846 113.782 23.8018 113.649 23.9033C113.521 24.0049 113.372 24.0869 113.204 24.1494C113.419 24.1885 113.616 24.2568 113.796 24.3545C113.979 24.4521 114.138 24.5791 114.271 24.7354C114.407 24.8877 114.515 25.0674 114.593 25.2744C114.671 25.4814 114.71 25.7139 114.71 25.9717ZM112.718 22.7783C112.718 22.626 112.694 22.4893 112.647 22.3682C112.601 22.2471 112.53 22.1475 112.437 22.0693C112.343 21.9873 112.224 21.9248 112.079 21.8818C111.938 21.8389 111.749 21.8174 111.511 21.8174H110.731V23.7861H111.593C111.815 23.7861 111.993 23.7607 112.126 23.71C112.259 23.6553 112.368 23.583 112.454 23.4932C112.544 23.3994 112.61 23.292 112.653 23.1709C112.696 23.0459 112.718 22.915 112.718 22.7783ZM113.11 26.0244C113.11 25.8486 113.081 25.6924 113.022 25.5557C112.964 25.415 112.878 25.2979 112.765 25.2041C112.651 25.1104 112.507 25.0381 112.331 24.9873C112.155 24.9365 111.927 24.9111 111.646 24.9111H110.731V27.0674H111.845C112.06 27.0674 112.239 27.0459 112.384 27.0029C112.532 26.9561 112.659 26.8896 112.765 26.8037C112.874 26.7139 112.958 26.6045 113.017 26.4756C113.079 26.3428 113.11 26.1924 113.11 26.0244ZM120.687 25.2803C120.687 25.46 120.646 25.5928 120.563 25.6787C120.485 25.7646 120.376 25.8076 120.235 25.8076H117.054C117.054 26.0303 117.079 26.2334 117.13 26.417C117.185 26.5967 117.269 26.751 117.382 26.8799C117.499 27.0049 117.647 27.1006 117.827 27.167C118.011 27.2334 118.229 27.2666 118.483 27.2666C118.741 27.2666 118.968 27.249 119.163 27.2139C119.358 27.1748 119.526 27.1338 119.667 27.0908C119.812 27.0439 119.931 27.0029 120.024 26.9678C120.118 26.9287 120.194 26.9092 120.253 26.9092C120.288 26.9092 120.317 26.917 120.341 26.9326C120.364 26.9443 120.384 26.9678 120.399 27.0029C120.415 27.0381 120.425 27.0889 120.429 27.1553C120.437 27.2178 120.44 27.2979 120.44 27.3955C120.44 27.4814 120.438 27.5557 120.435 27.6182C120.431 27.6768 120.425 27.7275 120.417 27.7705C120.409 27.8135 120.397 27.8506 120.382 27.8818C120.366 27.9092 120.345 27.9365 120.317 27.9639C120.294 27.9912 120.226 28.0283 120.112 28.0752C119.999 28.1221 119.854 28.1689 119.679 28.2158C119.503 28.2588 119.302 28.2959 119.075 28.3271C118.849 28.3623 118.606 28.3799 118.349 28.3799C117.884 28.3799 117.476 28.3213 117.124 28.2041C116.776 28.0869 116.485 27.9092 116.251 27.6709C116.017 27.4326 115.841 27.1318 115.724 26.7686C115.61 26.4053 115.554 25.9795 115.554 25.4912C115.554 25.0264 115.614 24.6084 115.735 24.2373C115.856 23.8623 116.032 23.5459 116.263 23.2881C116.493 23.0264 116.772 22.8271 117.101 22.6904C117.433 22.5537 117.806 22.4854 118.22 22.4854C118.657 22.4854 119.03 22.5498 119.339 22.6787C119.651 22.8076 119.907 22.9873 120.106 23.2178C120.306 23.4443 120.452 23.7139 120.546 24.0264C120.64 24.3389 120.687 24.6787 120.687 25.0459V25.2803ZM119.257 24.8584C119.269 24.4443 119.185 24.1201 119.005 23.8857C118.829 23.6475 118.556 23.5283 118.185 23.5283C117.997 23.5283 117.833 23.5635 117.692 23.6338C117.556 23.7041 117.44 23.7998 117.347 23.9209C117.257 24.0381 117.187 24.1787 117.136 24.3428C117.089 24.5029 117.062 24.6748 117.054 24.8584H119.257ZM126.897 28.0459C126.897 28.085 126.886 28.1201 126.862 28.1514C126.839 28.1787 126.8 28.2021 126.745 28.2217C126.69 28.2412 126.614 28.2549 126.517 28.2627C126.423 28.2744 126.306 28.2803 126.165 28.2803C126.021 28.2803 125.899 28.2744 125.802 28.2627C125.708 28.2549 125.634 28.2412 125.579 28.2217C125.524 28.2021 125.485 28.1787 125.462 28.1514C125.438 28.1201 125.427 28.085 125.427 28.0459V25.0635C125.427 24.8096 125.407 24.6104 125.368 24.4658C125.333 24.3213 125.28 24.1982 125.21 24.0967C125.14 23.9912 125.048 23.9111 124.935 23.8564C124.825 23.7979 124.696 23.7686 124.548 23.7686C124.36 23.7686 124.171 23.8369 123.979 23.9736C123.788 24.1104 123.589 24.3096 123.382 24.5713V28.0459C123.382 28.085 123.37 28.1201 123.347 28.1514C123.323 28.1787 123.282 28.2021 123.224 28.2217C123.169 28.2412 123.095 28.2549 123.001 28.2627C122.907 28.2744 122.788 28.2803 122.644 28.2803C122.499 28.2803 122.38 28.2744 122.286 28.2627C122.192 28.2549 122.116 28.2412 122.058 28.2217C122.003 28.2021 121.964 28.1787 121.94 28.1514C121.917 28.1201 121.905 28.085 121.905 28.0459V22.8193C121.905 22.7803 121.915 22.7471 121.935 22.7197C121.954 22.6885 121.989 22.6631 122.04 22.6436C122.091 22.624 122.155 22.6104 122.233 22.6025C122.315 22.5908 122.417 22.585 122.538 22.585C122.663 22.585 122.767 22.5908 122.849 22.6025C122.931 22.6104 122.993 22.624 123.036 22.6436C123.083 22.6631 123.116 22.6885 123.136 22.7197C123.155 22.7471 123.165 22.7803 123.165 22.8193V23.4229C123.454 23.1104 123.747 22.876 124.044 22.7197C124.345 22.5635 124.657 22.4854 124.981 22.4854C125.337 22.4854 125.636 22.5439 125.878 22.6611C126.124 22.7783 126.321 22.9385 126.47 23.1416C126.622 23.3408 126.731 23.5752 126.798 23.8447C126.864 24.1143 126.897 24.4385 126.897 24.8174V28.0459ZM133.179 25.2803C133.179 25.46 133.138 25.5928 133.056 25.6787C132.978 25.7646 132.868 25.8076 132.728 25.8076H129.546C129.546 26.0303 129.571 26.2334 129.622 26.417C129.677 26.5967 129.761 26.751 129.874 26.8799C129.991 27.0049 130.14 27.1006 130.319 27.167C130.503 27.2334 130.722 27.2666 130.976 27.2666C131.233 27.2666 131.46 27.249 131.655 27.2139C131.851 27.1748 132.019 27.1338 132.159 27.0908C132.304 27.0439 132.423 27.0029 132.517 26.9678C132.61 26.9287 132.687 26.9092 132.745 26.9092C132.78 26.9092 132.81 26.917 132.833 26.9326C132.856 26.9443 132.876 26.9678 132.892 27.0029C132.907 27.0381 132.917 27.0889 132.921 27.1553C132.929 27.2178 132.933 27.2979 132.933 27.3955C132.933 27.4814 132.931 27.5557 132.927 27.6182C132.923 27.6768 132.917 27.7275 132.909 27.7705C132.901 27.8135 132.89 27.8506 132.874 27.8818C132.858 27.9092 132.837 27.9365 132.81 27.9639C132.786 27.9912 132.718 28.0283 132.604 28.0752C132.491 28.1221 132.347 28.1689 132.171 28.2158C131.995 28.2588 131.794 28.2959 131.567 28.3271C131.341 28.3623 131.099 28.3799 130.841 28.3799C130.376 28.3799 129.968 28.3213 129.616 28.2041C129.269 28.0869 128.978 27.9092 128.743 27.6709C128.509 27.4326 128.333 27.1318 128.216 26.7686C128.103 26.4053 128.046 25.9795 128.046 25.4912C128.046 25.0264 128.106 24.6084 128.228 24.2373C128.349 23.8623 128.524 23.5459 128.755 23.2881C128.985 23.0264 129.265 22.8271 129.593 22.6904C129.925 22.5537 130.298 22.4854 130.712 22.4854C131.149 22.4854 131.522 22.5498 131.831 22.6787C132.144 22.8076 132.399 22.9873 132.599 23.2178C132.798 23.4443 132.944 23.7139 133.038 24.0264C133.132 24.3389 133.179 24.6787 133.179 25.0459V25.2803ZM131.749 24.8584C131.761 24.4443 131.677 24.1201 131.497 23.8857C131.321 23.6475 131.048 23.5283 130.677 23.5283C130.489 23.5283 130.325 23.5635 130.185 23.6338C130.048 23.7041 129.933 23.7998 129.839 23.9209C129.749 24.0381 129.679 24.1787 129.628 24.3428C129.581 24.5029 129.554 24.6748 129.546 24.8584H131.749ZM139.583 21.0615C139.583 21.2061 139.569 21.3291 139.542 21.4307C139.519 21.5283 139.476 21.6084 139.413 21.6709C139.351 21.7295 139.265 21.7725 139.155 21.7998C139.05 21.8232 138.917 21.835 138.757 21.835C138.597 21.835 138.462 21.8232 138.353 21.7998C138.243 21.7725 138.155 21.7295 138.089 21.6709C138.026 21.6084 137.981 21.5283 137.954 21.4307C137.931 21.3291 137.919 21.2061 137.919 21.0615C137.919 20.9209 137.931 20.8018 137.954 20.7041C137.981 20.6064 138.026 20.5264 138.089 20.4639C138.155 20.4014 138.243 20.3564 138.353 20.3291C138.462 20.3018 138.597 20.2881 138.757 20.2881C138.917 20.2881 139.05 20.3018 139.155 20.3291C139.265 20.3564 139.351 20.4014 139.413 20.4639C139.476 20.5264 139.519 20.6064 139.542 20.7041C139.569 20.8018 139.583 20.9209 139.583 21.0615ZM139.472 28.0459C139.472 28.085 139.46 28.1201 139.437 28.1514C139.413 28.1787 139.374 28.2021 139.319 28.2217C139.265 28.2412 139.188 28.2549 139.091 28.2627C138.997 28.2744 138.88 28.2803 138.739 28.2803C138.595 28.2803 138.474 28.2744 138.376 28.2627C138.282 28.2549 138.208 28.2412 138.153 28.2217C138.099 28.2021 138.06 28.1787 138.036 28.1514C138.013 28.1201 138.001 28.085 138.001 28.0459V23.8154H136.062V28.0459C136.062 28.085 136.05 28.1201 136.026 28.1514C136.003 28.1787 135.964 28.2021 135.909 28.2217C135.854 28.2412 135.778 28.2549 135.681 28.2627C135.587 28.2744 135.468 28.2803 135.323 28.2803C135.183 28.2803 135.063 28.2744 134.966 28.2627C134.872 28.2549 134.796 28.2412 134.737 28.2217C134.683 28.2021 134.644 28.1787 134.62 28.1514C134.601 28.1201 134.591 28.085 134.591 28.0459V23.8154H133.935C133.86 23.8154 133.804 23.7705 133.765 23.6807C133.729 23.5869 133.712 23.4326 133.712 23.2178C133.712 23.1045 133.716 23.0088 133.724 22.9307C133.735 22.8525 133.749 22.792 133.765 22.749C133.784 22.7021 133.808 22.6689 133.835 22.6494C133.866 22.6299 133.901 22.6201 133.94 22.6201H134.591V22.1572C134.591 21.8018 134.626 21.4912 134.696 21.2256C134.771 20.96 134.882 20.7393 135.03 20.5635C135.179 20.3838 135.366 20.251 135.593 20.165C135.819 20.0752 136.087 20.0303 136.396 20.0303C136.481 20.0303 136.567 20.0342 136.653 20.042C136.743 20.0498 136.827 20.0615 136.905 20.0771C136.983 20.0928 137.052 20.1104 137.11 20.1299C137.169 20.1494 137.208 20.1709 137.228 20.1943C137.251 20.2139 137.269 20.2373 137.28 20.2646C137.296 20.292 137.308 20.3271 137.315 20.3701C137.327 20.4131 137.335 20.4697 137.339 20.54C137.343 20.6064 137.345 20.6904 137.345 20.792C137.345 20.9795 137.333 21.1123 137.31 21.1904C137.29 21.2646 137.249 21.3018 137.187 21.3018C137.163 21.3018 137.136 21.2979 137.104 21.29C137.077 21.2822 137.042 21.2725 136.999 21.2607C136.96 21.249 136.913 21.2393 136.858 21.2314C136.804 21.2197 136.735 21.2139 136.653 21.2139C136.446 21.2139 136.296 21.2842 136.202 21.4248C136.108 21.5654 136.062 21.7979 136.062 22.1221V22.6201H139.026C139.175 22.6201 139.286 22.6533 139.36 22.7197C139.435 22.7822 139.472 22.8838 139.472 23.0244V28.0459ZM144.054 27.5303C144.054 27.7021 144.042 27.835 144.019 27.9287C143.999 28.0186 143.972 28.083 143.937 28.1221C143.901 28.1572 143.849 28.1904 143.778 28.2217C143.712 28.249 143.632 28.2725 143.538 28.292C143.448 28.3154 143.349 28.333 143.239 28.3447C143.134 28.3564 143.026 28.3623 142.917 28.3623C142.624 28.3623 142.37 28.3252 142.155 28.251C141.94 28.1768 141.763 28.0635 141.622 27.9111C141.481 27.7549 141.378 27.5596 141.312 27.3252C141.245 27.0908 141.212 26.8135 141.212 26.4932V23.8154H140.585C140.511 23.8154 140.454 23.7705 140.415 23.6807C140.376 23.5869 140.356 23.4326 140.356 23.2178C140.356 23.1045 140.36 23.0088 140.368 22.9307C140.38 22.8525 140.396 22.792 140.415 22.749C140.435 22.7021 140.458 22.6689 140.485 22.6494C140.517 22.6299 140.552 22.6201 140.591 22.6201H141.212V21.4541C141.212 21.415 141.222 21.3799 141.241 21.3486C141.265 21.3174 141.304 21.292 141.358 21.2725C141.417 21.249 141.493 21.2334 141.587 21.2256C141.685 21.2139 141.804 21.208 141.944 21.208C142.089 21.208 142.208 21.2139 142.302 21.2256C142.399 21.2334 142.476 21.249 142.53 21.2725C142.585 21.292 142.624 21.3174 142.647 21.3486C142.671 21.3799 142.683 21.415 142.683 21.4541V22.6201H143.819C143.858 22.6201 143.892 22.6299 143.919 22.6494C143.95 22.6689 143.976 22.7021 143.995 22.749C144.015 22.792 144.028 22.8525 144.036 22.9307C144.048 23.0088 144.054 23.1045 144.054 23.2178C144.054 23.4326 144.034 23.5869 143.995 23.6807C143.956 23.7705 143.899 23.8154 143.825 23.8154H142.683V26.2705C142.683 26.5557 142.728 26.7705 142.817 26.915C142.907 27.0557 143.067 27.126 143.298 27.126C143.376 27.126 143.446 27.1201 143.509 27.1084C143.571 27.0928 143.626 27.0771 143.673 27.0615C143.724 27.042 143.765 27.0264 143.796 27.0146C143.831 26.999 143.862 26.9912 143.89 26.9912C143.913 26.9912 143.935 26.999 143.954 27.0146C143.978 27.0264 143.995 27.0537 144.007 27.0967C144.019 27.1357 144.028 27.1904 144.036 27.2607C144.048 27.3311 144.054 27.4209 144.054 27.5303ZM153.118 22.9658C153.118 23.3916 153.052 23.7686 152.919 24.0967C152.786 24.4248 152.593 24.7021 152.339 24.9287C152.085 25.1514 151.772 25.3213 151.401 25.4385C151.034 25.5557 150.601 25.6143 150.101 25.6143H149.468V28.0342C149.468 28.0732 149.454 28.1084 149.427 28.1396C149.403 28.1709 149.362 28.1963 149.304 28.2158C149.245 28.2354 149.167 28.251 149.069 28.2627C148.972 28.2744 148.847 28.2803 148.694 28.2803C148.546 28.2803 148.421 28.2744 148.319 28.2627C148.222 28.251 148.144 28.2354 148.085 28.2158C148.026 28.1963 147.985 28.1709 147.962 28.1396C147.938 28.1084 147.927 28.0732 147.927 28.0342V21.2139C147.927 21.0303 147.974 20.8936 148.067 20.8037C148.165 20.71 148.292 20.6631 148.448 20.6631H150.235C150.415 20.6631 150.585 20.6709 150.745 20.6865C150.909 20.6982 151.104 20.7275 151.331 20.7744C151.558 20.8174 151.786 20.8994 152.017 21.0205C152.251 21.1416 152.45 21.2959 152.614 21.4834C152.778 21.667 152.903 21.8838 152.989 22.1338C153.075 22.3799 153.118 22.6572 153.118 22.9658ZM151.507 23.0771C151.507 22.8115 151.46 22.5928 151.366 22.4209C151.272 22.249 151.157 22.1221 151.021 22.04C150.884 21.958 150.739 21.9072 150.587 21.8877C150.438 21.8643 150.284 21.8525 150.124 21.8525H149.468V24.4248H150.159C150.405 24.4248 150.61 24.3916 150.774 24.3252C150.942 24.2588 151.079 24.167 151.185 24.0498C151.29 23.9287 151.37 23.7861 151.425 23.6221C151.479 23.4541 151.507 23.2725 151.507 23.0771ZM157.583 23.3057C157.583 23.4463 157.579 23.5615 157.571 23.6514C157.563 23.7412 157.552 23.8115 157.536 23.8623C157.521 23.9131 157.499 23.9482 157.472 23.9678C157.448 23.9873 157.417 23.9971 157.378 23.9971C157.347 23.9971 157.312 23.9912 157.272 23.9795C157.233 23.9639 157.188 23.9482 157.138 23.9326C157.091 23.917 157.038 23.9033 156.979 23.8916C156.921 23.876 156.856 23.8682 156.786 23.8682C156.704 23.8682 156.622 23.8857 156.54 23.9209C156.458 23.9521 156.372 24.0029 156.282 24.0732C156.196 24.1436 156.104 24.2373 156.007 24.3545C155.913 24.4717 155.812 24.6162 155.702 24.7881V28.0459C155.702 28.085 155.69 28.1201 155.667 28.1514C155.644 28.1787 155.603 28.2021 155.544 28.2217C155.489 28.2412 155.415 28.2549 155.321 28.2627C155.228 28.2744 155.108 28.2803 154.964 28.2803C154.819 28.2803 154.7 28.2744 154.606 28.2627C154.513 28.2549 154.437 28.2412 154.378 28.2217C154.323 28.2021 154.284 28.1787 154.261 28.1514C154.237 28.1201 154.226 28.085 154.226 28.0459V22.8193C154.226 22.7803 154.235 22.7471 154.255 22.7197C154.274 22.6885 154.31 22.6631 154.36 22.6436C154.411 22.624 154.476 22.6104 154.554 22.6025C154.636 22.5908 154.737 22.585 154.858 22.585C154.983 22.585 155.087 22.5908 155.169 22.6025C155.251 22.6104 155.313 22.624 155.356 22.6436C155.403 22.6631 155.437 22.6885 155.456 22.7197C155.476 22.7471 155.485 22.7803 155.485 22.8193V23.4697C155.622 23.2744 155.751 23.1143 155.872 22.9893C155.993 22.8604 156.108 22.7588 156.218 22.6846C156.327 22.6104 156.437 22.5596 156.546 22.5322C156.655 22.501 156.765 22.4854 156.874 22.4854C156.925 22.4854 156.979 22.4893 157.038 22.4971C157.097 22.501 157.157 22.5107 157.22 22.5264C157.282 22.5381 157.337 22.5537 157.384 22.5732C157.431 22.5889 157.464 22.6064 157.483 22.626C157.507 22.6455 157.522 22.667 157.53 22.6904C157.542 22.7139 157.552 22.7471 157.56 22.79C157.567 22.8291 157.573 22.8896 157.577 22.9717C157.581 23.0537 157.583 23.165 157.583 23.3057ZM163.624 25.3799C163.624 25.8252 163.565 26.2314 163.448 26.5986C163.331 26.9658 163.153 27.2822 162.915 27.5479C162.677 27.8135 162.378 28.0186 162.019 28.1631C161.659 28.3076 161.239 28.3799 160.759 28.3799C160.294 28.3799 159.89 28.3154 159.546 28.1865C159.202 28.0576 158.917 27.8701 158.69 27.624C158.464 27.3779 158.296 27.0752 158.187 26.7158C158.077 26.3564 158.022 25.9463 158.022 25.4854C158.022 25.04 158.081 24.6338 158.198 24.2666C158.319 23.8955 158.499 23.5791 158.737 23.3174C158.976 23.0518 159.272 22.8467 159.628 22.7021C159.987 22.5576 160.407 22.4854 160.888 22.4854C161.356 22.4854 161.763 22.5498 162.106 22.6787C162.45 22.8037 162.733 22.9893 162.956 23.2354C163.183 23.4814 163.351 23.7842 163.46 24.1436C163.569 24.5029 163.624 24.915 163.624 25.3799ZM162.106 25.4385C162.106 25.1807 162.085 24.9443 162.042 24.7295C162.003 24.5107 161.935 24.3213 161.837 24.1611C161.739 24.001 161.608 23.876 161.444 23.7861C161.284 23.6963 161.081 23.6514 160.835 23.6514C160.616 23.6514 160.425 23.6924 160.261 23.7744C160.097 23.8525 159.962 23.9697 159.856 24.126C159.751 24.2783 159.671 24.4639 159.616 24.6826C159.565 24.8975 159.54 25.1436 159.54 25.4209C159.54 25.6787 159.562 25.917 159.604 26.1357C159.647 26.3506 159.716 26.5381 159.81 26.6982C159.907 26.8584 160.038 26.9834 160.202 27.0732C160.366 27.1592 160.569 27.2021 160.812 27.2021C161.034 27.2021 161.228 27.1631 161.392 27.085C161.556 27.0029 161.69 26.8857 161.796 26.7334C161.901 26.5811 161.979 26.3975 162.03 26.1826C162.081 25.9639 162.106 25.7158 162.106 25.4385ZM169.507 23.1826C169.507 23.3701 169.485 23.5088 169.442 23.5986C169.399 23.6885 169.347 23.7334 169.284 23.7334H168.669C168.755 23.8271 168.815 23.9346 168.851 24.0557C168.89 24.1729 168.909 24.2959 168.909 24.4248C168.909 24.7295 168.858 25.001 168.757 25.2393C168.655 25.4736 168.509 25.6729 168.317 25.8369C168.13 25.9971 167.901 26.1201 167.632 26.2061C167.366 26.2881 167.069 26.3291 166.741 26.3291C166.573 26.3291 166.413 26.3096 166.261 26.2705C166.108 26.2275 165.991 26.1787 165.909 26.124C165.862 26.1748 165.819 26.2354 165.78 26.3057C165.745 26.376 165.728 26.4541 165.728 26.54C165.728 26.6533 165.776 26.7471 165.874 26.8213C165.976 26.8916 166.116 26.9307 166.296 26.9385L167.567 26.9854C167.864 26.9971 168.128 27.04 168.358 27.1143C168.593 27.1846 168.788 27.2861 168.944 27.4189C169.104 27.5479 169.226 27.7041 169.308 27.8877C169.394 28.0713 169.437 28.2803 169.437 28.5146C169.437 28.7725 169.38 29.0146 169.267 29.2412C169.153 29.4717 168.983 29.6709 168.757 29.8389C168.53 30.0068 168.245 30.1396 167.901 30.2373C167.562 30.335 167.163 30.3838 166.706 30.3838C166.261 30.3838 165.88 30.3486 165.563 30.2783C165.251 30.208 164.993 30.1104 164.79 29.9854C164.591 29.8604 164.444 29.71 164.351 29.5342C164.261 29.3623 164.216 29.1729 164.216 28.9658C164.216 28.8369 164.231 28.7139 164.263 28.5967C164.298 28.4795 164.347 28.3662 164.409 28.2568C164.476 28.1514 164.556 28.0498 164.649 27.9521C164.743 27.8545 164.851 27.7607 164.972 27.6709C164.804 27.5811 164.673 27.46 164.579 27.3076C164.489 27.1514 164.444 26.9814 164.444 26.7979C164.444 26.5674 164.497 26.3584 164.603 26.1709C164.708 25.9795 164.845 25.8076 165.013 25.6553C164.876 25.5186 164.767 25.3545 164.685 25.1631C164.603 24.9717 164.562 24.7334 164.562 24.4482C164.562 24.1436 164.614 23.8721 164.72 23.6338C164.829 23.3916 164.979 23.1885 165.171 23.0244C165.362 22.8564 165.591 22.7295 165.856 22.6436C166.122 22.5537 166.415 22.5088 166.735 22.5088C166.899 22.5088 167.056 22.5186 167.204 22.5381C167.356 22.5576 167.497 22.585 167.626 22.6201H169.284C169.351 22.6201 169.403 22.6631 169.442 22.749C169.485 22.835 169.507 22.9795 169.507 23.1826ZM167.614 24.4189C167.614 24.1377 167.536 23.9189 167.38 23.7627C167.224 23.6064 167.003 23.5283 166.718 23.5283C166.573 23.5283 166.446 23.5537 166.337 23.6045C166.228 23.6514 166.136 23.7178 166.062 23.8037C165.991 23.8857 165.938 23.9834 165.903 24.0967C165.868 24.2061 165.851 24.3213 165.851 24.4424C165.851 24.708 165.929 24.9189 166.085 25.0752C166.241 25.2275 166.458 25.3037 166.735 25.3037C166.884 25.3037 167.013 25.2803 167.122 25.2334C167.231 25.1865 167.321 25.1221 167.392 25.04C167.466 24.958 167.521 24.8643 167.556 24.7588C167.595 24.6494 167.614 24.5361 167.614 24.4189ZM167.96 28.5908C167.96 28.415 167.89 28.2803 167.749 28.1865C167.608 28.0928 167.415 28.042 167.169 28.0342L166.12 28.0049C166.019 28.0791 165.937 28.1514 165.874 28.2217C165.815 28.2881 165.767 28.3525 165.728 28.415C165.692 28.4775 165.669 28.5381 165.657 28.5967C165.646 28.6553 165.64 28.7158 165.64 28.7783C165.64 28.9736 165.737 29.1221 165.933 29.2236C166.132 29.3252 166.411 29.376 166.771 29.376C166.993 29.376 167.181 29.3525 167.333 29.3057C167.485 29.2627 167.608 29.2041 167.702 29.1299C167.796 29.0557 167.862 28.9717 167.901 28.8779C167.94 28.7881 167.96 28.6924 167.96 28.5908ZM173.849 23.3057C173.849 23.4463 173.845 23.5615 173.837 23.6514C173.829 23.7412 173.817 23.8115 173.802 23.8623C173.786 23.9131 173.765 23.9482 173.737 23.9678C173.714 23.9873 173.683 23.9971 173.644 23.9971C173.612 23.9971 173.577 23.9912 173.538 23.9795C173.499 23.9639 173.454 23.9482 173.403 23.9326C173.356 23.917 173.304 23.9033 173.245 23.8916C173.187 23.876 173.122 23.8682 173.052 23.8682C172.97 23.8682 172.888 23.8857 172.806 23.9209C172.724 23.9521 172.638 24.0029 172.548 24.0732C172.462 24.1436 172.37 24.2373 172.272 24.3545C172.179 24.4717 172.077 24.6162 171.968 24.7881V28.0459C171.968 28.085 171.956 28.1201 171.933 28.1514C171.909 28.1787 171.868 28.2021 171.81 28.2217C171.755 28.2412 171.681 28.2549 171.587 28.2627C171.493 28.2744 171.374 28.2803 171.229 28.2803C171.085 28.2803 170.966 28.2744 170.872 28.2627C170.778 28.2549 170.702 28.2412 170.644 28.2217C170.589 28.2021 170.55 28.1787 170.526 28.1514C170.503 28.1201 170.491 28.085 170.491 28.0459V22.8193C170.491 22.7803 170.501 22.7471 170.521 22.7197C170.54 22.6885 170.575 22.6631 170.626 22.6436C170.677 22.624 170.741 22.6104 170.819 22.6025C170.901 22.5908 171.003 22.585 171.124 22.585C171.249 22.585 171.353 22.5908 171.435 22.6025C171.517 22.6104 171.579 22.624 171.622 22.6436C171.669 22.6631 171.702 22.6885 171.722 22.7197C171.741 22.7471 171.751 22.7803 171.751 22.8193V23.4697C171.888 23.2744 172.017 23.1143 172.138 22.9893C172.259 22.8604 172.374 22.7588 172.483 22.6846C172.593 22.6104 172.702 22.5596 172.812 22.5322C172.921 22.501 173.03 22.4854 173.14 22.4854C173.19 22.4854 173.245 22.4893 173.304 22.4971C173.362 22.501 173.423 22.5107 173.485 22.5264C173.548 22.5381 173.603 22.5537 173.649 22.5732C173.696 22.5889 173.729 22.6064 173.749 22.626C173.772 22.6455 173.788 22.667 173.796 22.6904C173.808 22.7139 173.817 22.7471 173.825 22.79C173.833 22.8291 173.839 22.8896 173.843 22.9717C173.847 23.0537 173.849 23.165 173.849 23.3057ZM178.94 28.0635C178.94 28.1182 178.921 28.1611 178.882 28.1924C178.843 28.2236 178.78 28.2451 178.694 28.2568C178.612 28.2725 178.489 28.2803 178.325 28.2803C178.149 28.2803 178.021 28.2725 177.938 28.2568C177.86 28.2451 177.804 28.2236 177.769 28.1924C177.737 28.1611 177.722 28.1182 177.722 28.0635V27.6475C177.507 27.8779 177.261 28.0576 176.983 28.1865C176.71 28.3154 176.405 28.3799 176.069 28.3799C175.792 28.3799 175.536 28.3428 175.302 28.2686C175.071 28.1982 174.87 28.0928 174.698 27.9521C174.53 27.8076 174.399 27.6299 174.306 27.4189C174.212 27.208 174.165 26.9619 174.165 26.6807C174.165 26.376 174.224 26.1123 174.341 25.8896C174.462 25.6631 174.64 25.4775 174.874 25.333C175.112 25.1846 175.407 25.0752 175.759 25.0049C176.11 24.9346 176.519 24.8994 176.983 24.8994H177.493V24.583C177.493 24.4189 177.476 24.2764 177.44 24.1553C177.409 24.0303 177.354 23.9268 177.276 23.8447C177.202 23.7627 177.101 23.7021 176.972 23.6631C176.847 23.624 176.69 23.6045 176.503 23.6045C176.257 23.6045 176.036 23.6318 175.841 23.6865C175.649 23.7412 175.479 23.8018 175.331 23.8682C175.183 23.9346 175.058 23.9951 174.956 24.0498C174.858 24.1045 174.778 24.1318 174.716 24.1318C174.673 24.1318 174.634 24.1182 174.599 24.0908C174.567 24.0635 174.54 24.0244 174.517 23.9736C174.497 23.9229 174.481 23.8604 174.47 23.7861C174.458 23.7119 174.452 23.6299 174.452 23.54C174.452 23.4189 174.462 23.3232 174.481 23.2529C174.501 23.1826 174.538 23.1201 174.593 23.0654C174.647 23.0068 174.743 22.9443 174.88 22.8779C175.017 22.8076 175.177 22.7432 175.36 22.6846C175.544 22.626 175.743 22.5791 175.958 22.5439C176.177 22.5049 176.401 22.4854 176.632 22.4854C177.042 22.4854 177.392 22.5264 177.681 22.6084C177.974 22.6865 178.214 22.8096 178.401 22.9775C178.589 23.1416 178.726 23.3545 178.812 23.6162C178.897 23.8779 178.94 24.1885 178.94 24.5479V28.0635ZM177.493 25.8252H176.931C176.692 25.8252 176.489 25.8428 176.321 25.8779C176.153 25.9131 176.017 25.9658 175.911 26.0361C175.806 26.1064 175.728 26.1924 175.677 26.2939C175.63 26.3916 175.606 26.5049 175.606 26.6338C175.606 26.8525 175.675 27.0244 175.812 27.1494C175.952 27.2744 176.146 27.3369 176.392 27.3369C176.599 27.3369 176.788 27.2842 176.96 27.1787C177.136 27.0732 177.313 26.9189 177.493 26.7158V25.8252ZM188.731 28.0459C188.731 28.085 188.72 28.1201 188.696 28.1514C188.673 28.1787 188.634 28.2021 188.579 28.2217C188.524 28.2412 188.45 28.2549 188.356 28.2627C188.263 28.2744 188.144 28.2803 187.999 28.2803C187.851 28.2803 187.729 28.2744 187.636 28.2627C187.542 28.2549 187.466 28.2412 187.407 28.2217C187.353 28.2021 187.313 28.1787 187.29 28.1514C187.271 28.1201 187.261 28.085 187.261 28.0459V24.9463C187.261 24.7705 187.243 24.6104 187.208 24.4658C187.177 24.3213 187.126 24.1982 187.056 24.0967C186.989 23.9912 186.903 23.9111 186.798 23.8564C186.696 23.7979 186.573 23.7686 186.429 23.7686C186.253 23.7686 186.075 23.8369 185.896 23.9736C185.716 24.1104 185.521 24.3096 185.31 24.5713V28.0459C185.31 28.085 185.298 28.1201 185.274 28.1514C185.251 28.1787 185.21 28.2021 185.151 28.2217C185.097 28.2412 185.022 28.2549 184.929 28.2627C184.835 28.2744 184.718 28.2803 184.577 28.2803C184.433 28.2803 184.313 28.2744 184.22 28.2627C184.126 28.2549 184.05 28.2412 183.991 28.2217C183.937 28.2021 183.897 28.1787 183.874 28.1514C183.851 28.1201 183.839 28.085 183.839 28.0459V24.9463C183.839 24.7705 183.821 24.6104 183.786 24.4658C183.755 24.3213 183.706 24.1982 183.64 24.0967C183.573 23.9912 183.487 23.9111 183.382 23.8564C183.276 23.7979 183.153 23.7686 183.013 23.7686C182.833 23.7686 182.653 23.8369 182.474 23.9736C182.294 24.1104 182.101 24.3096 181.894 24.5713V28.0459C181.894 28.085 181.882 28.1201 181.858 28.1514C181.835 28.1787 181.794 28.2021 181.735 28.2217C181.681 28.2412 181.606 28.2549 181.513 28.2627C181.419 28.2744 181.3 28.2803 181.155 28.2803C181.011 28.2803 180.892 28.2744 180.798 28.2627C180.704 28.2549 180.628 28.2412 180.569 28.2217C180.515 28.2021 180.476 28.1787 180.452 28.1514C180.429 28.1201 180.417 28.085 180.417 28.0459V22.8193C180.417 22.7803 180.427 22.7471 180.446 22.7197C180.466 22.6885 180.501 22.6631 180.552 22.6436C180.603 22.624 180.667 22.6104 180.745 22.6025C180.827 22.5908 180.929 22.585 181.05 22.585C181.175 22.585 181.278 22.5908 181.36 22.6025C181.442 22.6104 181.505 22.624 181.548 22.6436C181.595 22.6631 181.628 22.6885 181.647 22.7197C181.667 22.7471 181.677 22.7803 181.677 22.8193V23.4229C181.966 23.1104 182.253 22.876 182.538 22.7197C182.827 22.5635 183.128 22.4854 183.44 22.4854C183.655 22.4854 183.849 22.5088 184.021 22.5557C184.192 22.5986 184.345 22.6631 184.478 22.749C184.614 22.8311 184.731 22.9307 184.829 23.0479C184.927 23.165 185.009 23.2959 185.075 23.4404C185.231 23.2725 185.384 23.1279 185.532 23.0068C185.685 22.8857 185.833 22.7881 185.978 22.7139C186.126 22.6357 186.272 22.5791 186.417 22.5439C186.565 22.5049 186.716 22.4854 186.868 22.4854C187.216 22.4854 187.509 22.5439 187.747 22.6611C187.985 22.7783 188.177 22.9385 188.321 23.1416C188.47 23.3408 188.575 23.5752 188.638 23.8447C188.7 24.1143 188.731 24.3994 188.731 24.7002V28.0459Z" fill="#090909"/>
</g>
</g>
<defs>
<clipPath id="clip0_411_378697">
<rect width="210.988" height="45.1782" fill="white" transform="translate(0.910156 0.582031)"/>
</clipPath>
</defs>
</svg>
