<svg width="112" height="107" viewBox="0 0 112 107" fill="none" xmlns="http://www.w3.org/2000/svg">
<path d="M82.8104 28.9676H82.673V28.9126L82.8104 28.9676Z" fill="#FBFBFB"/>
<path d="M58.9999 100.483C84.8047 100.483 105.724 79.5636 105.724 53.7588C105.724 27.9541 84.8047 7.03516 58.9999 7.03516C33.1952 7.03516 12.2762 27.9541 12.2762 53.7588C12.2762 79.5636 33.1952 100.483 58.9999 100.483Z" fill="#F3F3F3"/>
<path d="M59.0273 81.4176C62.8221 81.4176 65.8984 78.3412 65.8984 74.5464C65.8984 70.7516 62.8221 67.6753 59.0273 67.6753C55.2324 67.6753 52.1561 70.7516 52.1561 74.5464C52.1561 78.3412 55.2324 81.4176 59.0273 81.4176Z" fill="#F58E25"/>
<path d="M57.8634 77.3681C57.6985 77.3681 57.5427 77.3039 57.4145 77.1848L55.3531 75.1235C55.1058 74.8761 55.1058 74.473 55.3531 74.2348C55.6005 73.9966 56.0036 73.9875 56.2418 74.2348L57.8542 75.8473L61.7845 71.917C62.0319 71.6696 62.435 71.6696 62.6732 71.917C62.9114 72.1643 62.9205 72.5674 62.6732 72.8056L58.294 77.1848C58.1749 77.3039 58.01 77.3681 57.8451 77.3681H57.8634Z" fill="#FBFBFB"/>
<g style="mix-blend-mode:hard-light" opacity="0.19">
<g style="mix-blend-mode:hard-light">
<path d="M65.8996 74.5464C65.8996 78.3393 62.8213 81.4176 59.0284 81.4176C58.5979 81.4176 58.1764 81.3809 57.7642 81.2985C60.9524 80.7121 63.371 77.9087 63.371 74.5464C63.371 71.1842 60.9524 68.3807 57.7642 67.7944C58.1673 67.7211 58.5979 67.6753 59.0284 67.6753C62.8213 67.6753 65.8996 70.7536 65.8996 74.5464Z" fill="#6E1E00"/>
</g>
</g>
<path d="M83.2964 33.3103H34.9053C33.6859 33.3103 32.6974 34.2988 32.6974 35.5182V42.8749C32.6974 44.0943 33.6859 45.0828 34.9053 45.0828H83.2964C84.5158 45.0828 85.5043 44.0943 85.5043 42.8749V35.5182C85.5043 34.2988 84.5158 33.3103 83.2964 33.3103Z" fill="#FBFBFB"/>
<path d="M84.5641 33.4475H80.2127C80.1494 33.4475 80.098 34.0367 80.098 34.7634V43.1254C80.098 43.8522 80.1494 44.4413 80.2127 44.4413H84.5641C84.6274 44.4413 84.6788 43.8522 84.6788 43.1254V34.7634C84.6788 34.0367 84.6274 33.4475 84.5641 33.4475Z" fill="#F1EFF6"/>
<path d="M83.0939 45.5684H34.5196C32.8522 45.5684 31.4872 44.2125 31.4872 42.5359V34.9136C31.4872 33.2462 32.8431 31.8811 34.5196 31.8811H83.0939C84.7613 31.8811 86.1264 33.237 86.1264 34.9136V42.5359C86.1264 44.2033 84.7705 45.5684 83.0939 45.5684V45.5684ZM34.5196 33.7134C33.86 33.7134 33.3195 34.2539 33.3195 34.9136V42.5359C33.3195 43.1956 33.86 43.7361 34.5196 43.7361H83.0939C83.7536 43.7361 84.2941 43.1956 84.2941 42.5359V34.9136C84.2941 34.2539 83.7536 33.7134 83.0939 33.7134H34.5196V33.7134Z" fill="#765BA7"/>
<path d="M68.747 40.2731H50.3507C50.0941 40.2731 49.8926 40.0715 49.8926 39.815C49.8926 39.5585 50.0941 39.3569 50.3507 39.3569H68.747C69.0035 39.3569 69.205 39.5585 69.205 39.815C69.205 40.0715 69.0035 40.2731 68.747 40.2731Z" fill="#765BA7"/>
<path d="M56.059 37.2406H50.3422C50.0857 37.2406 49.8842 37.0391 49.8842 36.7825C49.8842 36.526 50.0857 36.3245 50.3422 36.3245H56.059C56.3155 36.3245 56.5171 36.526 56.5171 36.7825C56.5171 37.0391 56.3155 37.2406 56.059 37.2406Z" fill="#765BA7"/>
<path d="M38.406 38.7432C39.2055 38.7432 39.8535 38.0951 39.8535 37.2957C39.8535 36.4962 39.2055 35.8481 38.406 35.8481C37.6066 35.8481 36.9585 36.4962 36.9585 37.2957C36.9585 38.0951 37.6066 38.7432 38.406 38.7432Z" fill="#765BA7"/>
<path d="M41.1807 41.6014H35.9037C36.0136 40.2363 37.1497 39.1736 38.5422 39.1736C39.9347 39.1736 41.0708 40.2363 41.1807 41.6014V41.6014Z" fill="#765BA7"/>
<path d="M83.4517 49.645H35.0606C33.8412 49.645 32.8527 50.6335 32.8527 51.8529V59.2096C32.8527 60.429 33.8412 61.4176 35.0606 61.4176H83.4517C84.6711 61.4176 85.6596 60.429 85.6596 59.2096V51.8529C85.6596 50.6335 84.6711 49.645 83.4517 49.645Z" fill="#FBFBFB"/>
<path d="M84.4667 50H80.114C80.0511 50 80 50.5891 80 51.3159V59.6779C80 60.4047 80.0511 60.9938 80.114 60.9938H84.4667C84.5297 60.9938 84.5808 60.4047 84.5808 59.6779V51.3159C84.5808 50.5891 84.5297 50 84.4667 50Z" fill="#FEF4E9"/>
<path d="M83.241 61.9031H34.6667C32.9993 61.9031 31.6343 60.5472 31.6343 58.8707V51.2483C31.6343 49.5809 32.9902 48.2158 34.6667 48.2158H83.241C84.9084 48.2158 86.2735 49.5717 86.2735 51.2483V58.8707C86.2735 60.538 84.9176 61.9031 83.241 61.9031ZM34.6667 50.0573C34.0071 50.0573 33.4666 50.5978 33.4666 51.2574V58.8798C33.4666 59.5394 34.0071 60.08 34.6667 60.08H83.241C83.9007 60.08 84.4412 59.5394 84.4412 58.8798V51.2574C84.4412 50.5978 83.9007 50.0573 83.241 50.0573H34.6667V50.0573Z" fill="#F58E25"/>
<path d="M68.8941 56.6173H50.4977C50.2412 56.6173 50.0397 56.4158 50.0397 56.1592C50.0397 55.9027 50.2412 55.7012 50.4977 55.7012H68.8941C69.1506 55.7012 69.3521 55.9027 69.3521 56.1592C69.3521 56.4158 69.1506 56.6173 68.8941 56.6173Z" fill="#F58E25"/>
<path d="M56.2145 53.5753H50.4977C50.2412 53.5753 50.0397 53.3738 50.0397 53.1173C50.0397 52.8607 50.2412 52.6592 50.4977 52.6592H56.2145C56.4711 52.6592 56.6726 52.8607 56.6726 53.1173C56.6726 53.3738 56.4711 53.5753 56.2145 53.5753Z" fill="#F58E25"/>
<path d="M41.5197 52.6501H36.5083C36.1744 52.6501 35.9037 52.9209 35.9037 53.2548V56.9561C35.9037 57.29 36.1744 57.5607 36.5083 57.5607H41.5197C41.8536 57.5607 42.1243 57.29 42.1243 56.9561V53.2548C42.1243 52.9209 41.8536 52.6501 41.5197 52.6501Z" fill="#F58E25"/>
<path d="M39.0092 55.8843C38.881 55.8843 38.7619 55.8385 38.6702 55.7468L35.8668 53.0075L36.1875 52.6777L38.9909 55.417L40.3285 54.1527L41.8035 52.7144L42.1241 53.0442L39.3574 55.7468C39.2657 55.8385 39.1375 55.8843 39.0092 55.8843V55.8843Z" fill="#FBFBFB"/>
<path d="M41.8953 52.7786C41.8953 52.7786 41.9869 52.8427 42.0419 52.9526L42.0144 52.9801L41.8586 52.8061L41.8861 52.7786H41.8953Z" fill="#FBFBFB"/>
<rect x="0.699951" y="8.70874" width="28.2667" height="28.2667" rx="14.1333" fill="#765BA7"/>
<path d="M9.71119 30.0088V27.9657C14.5805 24.581 17.0152 21.8569 17.0152 19.7934C17.0152 18.3633 16.1298 17.6482 14.3592 17.6482C12.8609 17.6482 11.4478 18.0228 10.1198 18.7719V16.3202C11.4478 15.6392 12.8609 15.2987 14.3592 15.2987C17.9346 15.2987 19.7222 16.7288 19.7222 19.5891C19.7222 22.1089 17.7711 24.799 13.8688 27.6593H19.7222V30.0088H9.71119Z" fill="#FBFBFB"/>
</svg>
