<svg width="112" height="106" viewBox="0 0 112 106" fill="none" xmlns="http://www.w3.org/2000/svg">
<g clip-path="url(#clip0_890_452421)">
<path d="M58.6662 100.421C84.8561 100.421 106.087 79.1896 106.087 52.9997C106.087 26.8097 84.8561 5.57861 58.6662 5.57861C32.4762 5.57861 11.2451 26.8097 11.2451 52.9997C11.2451 79.1896 32.4762 100.421 58.6662 100.421Z" fill="#EAEAEA" fill-opacity="0.6"/>
<path d="M82.8222 27.8382H82.6926V27.7827L82.8222 27.8382Z" fill="white"/>
<path d="M58.6656 80.2809C73.7325 80.2809 85.9466 68.0667 85.9466 52.9998C85.9466 37.9329 73.7325 25.7188 58.6656 25.7188C43.5987 25.7188 31.3845 37.9329 31.3845 52.9998C31.3845 68.0667 43.5987 80.2809 58.6656 80.2809Z" fill="#765BA7"/>
<path d="M54.0629 64.195C53.4214 64.195 52.7798 63.9532 52.287 63.4604L44.1231 55.2965C43.1468 54.3202 43.1468 52.7302 44.1231 51.7539C45.0994 50.7776 46.6894 50.7776 47.6657 51.7539L54.0629 58.1511L69.6654 42.5486C70.6417 41.5723 72.2317 41.5723 73.208 42.5486C74.1843 43.525 74.1843 45.115 73.208 46.0913L55.8296 63.4697C55.3368 63.9625 54.6952 64.2043 54.0536 64.2043L54.0629 64.195Z" fill="white"/>
<g style="mix-blend-mode:darken">
<path d="M85.9464 52.9998C85.9464 68.0723 73.7285 80.2809 58.6653 80.2809C56.9544 80.2809 55.2807 80.1228 53.6628 79.8159C66.3364 77.4728 75.9321 66.3614 75.9321 52.9998C75.9321 39.6382 66.3364 28.5268 53.6628 26.1837C55.2807 25.8768 56.9544 25.7188 58.6653 25.7188C73.7285 25.7188 85.9464 37.9273 85.9464 52.9998Z" fill="#804511" fill-opacity="0.07" style="mix-blend-mode:multiply"/>
</g>
</g>
<rect x="0.366455" y="7.94971" width="28.2667" height="28.2667" rx="14.1333" fill="#005895"/>
<path d="M9.70471 14.8501C11.0668 14.4415 12.4969 14.2372 13.9952 14.2372C17.6386 14.2372 19.4604 15.5651 19.4604 18.2211C19.4604 19.8284 18.8202 20.935 17.5399 21.5411C18.8202 22.12 19.4604 23.2267 19.4604 24.8611C19.4604 27.6533 17.6386 29.0494 13.9952 29.0494C12.4969 29.0494 11.0668 28.8451 9.70471 28.4365V25.9848C11.0668 26.4615 12.4969 26.6999 13.9952 26.6999C15.8339 26.6999 16.7533 25.9848 16.7533 24.5547C16.7533 23.3288 16.0995 22.7159 14.792 22.7159H11.237V20.3664H14.7613C16.0893 20.3664 16.7533 19.7534 16.7533 18.5276C16.7533 17.2337 15.8339 16.5867 13.9952 16.5867C12.4969 16.5867 11.0668 16.825 9.70471 17.3018V14.8501Z" fill="white"/>
<defs>
<clipPath id="clip0_890_452421">
<rect width="94.8421" height="94.8421" fill="white" transform="translate(11.2454 5.57861)"/>
</clipPath>
</defs>
</svg>
