<svg width="88" height="88" viewBox="0 0 88 88" fill="none" xmlns="http://www.w3.org/2000/svg">
<g clip-path="url(#clip0_304_297054)">
<path d="M43.9971 88C68.2976 88 87.9971 68.3005 87.9971 44C87.9971 19.6995 68.2976 0 43.9971 0C19.6965 0 -0.00292969 19.6995 -0.00292969 44C-0.00292969 68.3005 19.6965 88 43.9971 88Z" fill="#F3F3F3"/>
<path d="M66.4059 20.6485H66.2886V20.5898L66.4059 20.6485Z" fill="white"/>
<path d="M69.6379 25.5586H18.3632C16.646 25.5586 15.2539 26.9507 15.2539 28.6679V59.3506C15.2539 61.0678 16.646 62.4599 18.3632 62.4599H69.6379C71.3551 62.4599 72.7472 61.0678 72.7472 59.3506V28.6679C72.7472 26.9507 71.3551 25.5586 69.6379 25.5586Z" fill="white"/>
<path d="M69.6379 25.5586H18.3632C16.646 25.5586 15.2539 26.9507 15.2539 28.6679V59.3506C15.2539 61.0678 16.646 62.4599 18.3632 62.4599H69.6379C71.3551 62.4599 72.7472 61.0678 72.7472 59.3506V28.6679C72.7472 26.9507 71.3551 25.5586 69.6379 25.5586Z" stroke="#765BA7" stroke-width="1.95556" stroke-miterlimit="10"/>
<g opacity="0.1">
<path d="M72.2826 25.1445H67.5684V61.2874H72.2826V25.1445Z" fill="#765BA7" style="mix-blend-mode:multiply"/>
</g>
<path d="M22.9836 52.1445L28.9456 36.7885H32.4216L38.4276 52.1445H35.0176L33.7196 48.6245H27.4936L26.1736 52.1445H22.9836ZM32.8616 46.2045L30.6396 39.8685L28.3736 46.2045H32.8616ZM51.4016 49.3505L51.5336 51.9245C50.947 52.0565 50.353 52.1665 49.7516 52.2545C49.165 52.3572 48.6003 52.4085 48.0576 52.4085C45.491 52.4085 43.445 51.7559 41.9196 50.4505C40.409 49.1452 39.6536 47.2385 39.6536 44.7305C39.6536 42.1199 40.387 40.1032 41.8536 38.6805C43.3203 37.2432 45.3883 36.5245 48.0576 36.5245C48.6296 36.5245 49.1356 36.5685 49.5756 36.6565C50.0156 36.7299 50.353 36.8032 50.5876 36.8765C50.8223 36.9352 51.1303 37.0305 51.5116 37.1625L51.2916 39.7585C50.749 39.4359 50.2283 39.2232 49.7296 39.1205C49.2456 39.0032 48.6663 38.9445 47.9916 38.9445C46.4516 38.9445 45.205 39.4725 44.2516 40.5285C43.313 41.5699 42.8436 42.8972 42.8436 44.5105C42.8436 46.1385 43.3056 47.4585 44.2296 48.4705C45.1683 49.4825 46.4443 49.9885 48.0576 49.9885C48.6443 49.9885 49.2603 49.9372 49.9056 49.8345C50.551 49.7172 51.0496 49.5559 51.4016 49.3505ZM53.5439 52.1445V36.7885H57.4159C59.3372 36.7885 60.8772 37.1405 62.0359 37.8445C63.2092 38.5485 63.7959 39.7439 63.7959 41.4305C63.7959 43.1172 63.2605 44.3565 62.1899 45.1485C61.1192 45.9259 59.6892 46.3145 57.8999 46.3145H56.6019V52.1445H53.5439ZM56.6019 39.2085V43.8945H57.6799C58.5745 43.8945 59.2859 43.7259 59.8139 43.3885C60.3419 43.0365 60.6059 42.4425 60.6059 41.6065C60.6059 40.7705 60.3345 40.1619 59.7919 39.7805C59.2492 39.3992 58.5452 39.2085 57.6799 39.2085H56.6019Z" fill="#F58E25"/>
</g>
<defs>
<clipPath id="clip0_304_297054">
<rect width="88" height="88" fill="white"/>
</clipPath>
</defs>
</svg>
