<svg width="250" height="54" viewBox="0 0 250 54" fill="none" xmlns="http://www.w3.org/2000/svg">
<g clip-path="url(#clip0_411_378565)">
<path d="M6.97534 0.737305H243.336C246.718 0.737305 249.465 2.09588 249.465 3.77648V50.934C249.465 52.6146 246.718 53.9731 243.336 53.9731H6.97534C3.59401 53.9731 0.84668 52.6146 0.84668 50.934V3.78654C0.84668 2.10594 3.59401 0.747368 6.97534 0.747368V0.737305Z" fill="#FBFBFB"/>
<mask id="mask0_411_378565" style="mask-type:luminance" maskUnits="userSpaceOnUse" x="18" y="6" width="212" height="36">
<path d="M229.117 6.9668H18.6191V41.6456H229.117V6.9668Z" fill="white"/>
</mask>
<g mask="url(#mask0_411_378565)">
<mask id="mask1_411_378565" style="mask-type:luminance" maskUnits="userSpaceOnUse" x="18" y="6" width="27" height="36">
<path d="M44.432 6.96582H18.6191V41.6446H44.432V6.96582Z" fill="white"/>
</mask>
<g mask="url(#mask1_411_378565)">
<path d="M32.94 23.46H32.1147V31.3699H32.94V23.46Z" fill="#090909"/>
<path d="M34.3389 23.46H33.5137V31.3699H34.3389V23.46Z" fill="#090909"/>
<path d="M35.667 23.46H34.8418V31.3699H35.667V23.46Z" fill="#090909"/>
<path d="M36.1401 31.491H36.8848V23.7521L36.1401 23.5811V31.491Z" fill="#090909"/>
<path d="M37.3276 31.7829H37.9013V24.0441L37.3276 23.873V31.7829Z" fill="#090909"/>
<path d="M38.2026 32.0339H38.6857V24.4058L38.2026 24.124V32.0339Z" fill="#090909"/>
<path d="M38.9478 32.3655H39.3503V24.7373L38.9478 24.4556V32.3655Z" fill="#090909"/>
<path d="M39.5615 32.8083H39.8735V25.1802L39.5615 24.8984V32.8083Z" fill="#090909"/>
<path d="M31.541 23.46H30.7158V31.6013H31.541V23.46Z" fill="#090909"/>
<path d="M29.3574 31.8026H30.1826V23.5405L29.3876 23.6512L29.3574 31.8026Z" fill="#090909"/>
<path d="M28.1597 31.9527H28.9849V23.7007L28.1899 23.8114L28.1597 31.9628V31.9527Z" fill="#090909"/>
<path d="M27.2236 32.2148H27.7671V23.9526L27.2337 24.0633V32.2148H27.2236Z" fill="#090909"/>
<path d="M26.4087 32.5268H26.8213V24.2646L26.4288 24.4257L26.4087 32.5167V32.5268Z" fill="#090909"/>
<path d="M25.7847 32.8693L26.1268 32.819V24.5669L25.8149 24.7682L25.7847 32.8693Z" fill="#090909"/>
<path d="M25.2412 32.808L25.5129 32.7678V24.9585L25.2613 25.2302L25.2412 32.8181V32.808Z" fill="white"/>
<path d="M25.2412 25.0703C25.2412 25.0703 24.8991 24.7584 25.1205 24.4565C25.1205 24.4565 26.5696 22.635 33.3725 22.8161C33.3725 22.8161 38.3841 22.8362 39.8735 24.4565V24.9093L40.0547 24.8087V24.2753C40.0547 24.2753 39.1288 22.9671 34.2581 22.3733C32.6681 22.323 31.068 22.3934 29.488 22.5746C29.488 22.5746 36.8243 21.4072 39.7326 23.7118C39.7326 23.7118 38.5854 22.0613 33.5235 21.9205C33.5235 21.9205 28.2301 21.6789 25.7947 23.2992C25.7947 23.2992 25.4123 23.5407 25.3922 23.6916C25.3821 23.7419 25.372 23.7923 25.372 23.8526L25.2513 25.0603L25.2412 25.0703Z" fill="#090909"/>
<path d="M26.5798 21.9505C26.5798 21.9505 26.298 21.6586 26.4792 21.3769C26.4792 21.3769 27.6667 19.6661 33.2318 19.8371C33.2318 19.8371 37.3276 19.8472 38.5554 21.3769V21.7995L38.7063 21.709V21.2058C38.7063 21.2058 37.9616 20.0082 34.0771 19.4447C33.9966 19.4346 33.9262 19.4245 33.8457 19.4245C32.5777 19.3843 31.3097 19.4547 30.0618 19.6158C30.0618 19.6158 36.0596 18.5188 38.4346 20.6825C38.4346 20.6825 37.4987 19.1327 33.3626 19.0019C33.3626 19.0019 29.0353 18.7805 27.0427 20.3101C27.0427 20.3101 26.7308 20.5315 26.7107 20.6825C26.6905 20.8334 26.6905 20.8334 26.6905 20.8334L26.6 21.9706L26.5798 21.9505Z" fill="#090909"/>
<path d="M27.1029 20.411C27.1029 20.411 26.8513 20.1896 27.0123 19.9782C27.0123 19.9782 28.0891 18.68 33.151 18.8109C33.151 18.8109 36.8745 18.8209 37.9815 19.9782V20.3003L38.1123 20.2298V19.8474C38.1123 19.8474 37.4381 18.9518 33.936 18.519C33.8454 18.509 33.7548 18.4989 33.6643 18.4989C32.5271 18.4687 31.3899 18.519 30.2528 18.6398C30.2528 18.6398 35.7072 17.8146 37.8608 19.4449C37.8608 19.4449 37.0054 18.2674 33.2517 18.1769C33.2517 18.1769 29.3169 18.0058 27.5054 19.1631C27.5054 19.1631 27.2237 19.3342 27.2035 19.4449L27.1834 19.5556L27.1029 20.411Z" fill="#090909"/>
<path d="M33.2417 21.7496H33.6644V20.4011C33.6644 20.4011 33.6442 20.3105 33.614 20.2803C33.5839 20.2501 33.5335 20.23 33.4933 20.23H33.4128C33.4128 20.23 33.3222 20.2501 33.292 20.2803C33.2618 20.3105 33.2417 20.3608 33.2417 20.4011V21.7496Z" fill="#090909"/>
<path d="M34.3486 21.7892H34.7713V20.4206C34.7713 20.4206 34.7512 20.33 34.721 20.2998C34.6908 20.2696 34.6405 20.2495 34.6002 20.2495H34.5298C34.5298 20.2495 34.4392 20.2696 34.409 20.2998C34.3788 20.33 34.3587 20.3803 34.3587 20.4206V21.7892H34.3486Z" fill="#090909"/>
<path d="M35.355 21.9097L35.7374 21.95V20.5612C35.7374 20.5612 35.7173 20.4706 35.6871 20.4405C35.6569 20.4103 35.6066 20.3901 35.5663 20.3901H35.5261C35.5261 20.3901 35.4355 20.4103 35.4053 20.4405C35.3751 20.4706 35.355 20.521 35.355 20.5612V21.9097Z" fill="#090909"/>
<path d="M32.2153 21.7588H32.5977V20.4103C32.5977 20.4103 32.5776 20.3198 32.5474 20.2896C32.5172 20.2594 32.4669 20.2393 32.4267 20.2393H32.3864C32.3864 20.2393 32.2958 20.2594 32.2656 20.2896C32.2355 20.3198 32.2153 20.3701 32.2153 20.4103V21.7588Z" fill="#090909"/>
<path d="M31.0781 21.8385L31.4303 21.7982V20.3994C31.4303 20.3994 31.4303 20.3591 31.4303 20.339C31.4303 20.3189 31.4102 20.2988 31.4002 20.2786C31.3901 20.2585 31.37 20.2485 31.3498 20.2384C31.3297 20.2384 31.3096 20.2183 31.2895 20.2183H31.2492C31.2492 20.2183 31.209 20.2183 31.1888 20.2384C31.1687 20.2384 31.1486 20.2585 31.1385 20.2786C31.1284 20.2988 31.1083 20.3189 31.1083 20.339C31.1083 20.3591 31.1083 20.3793 31.1083 20.3994V21.8385H31.0781Z" fill="#090909"/>
<path d="M29.9609 21.909L30.3132 21.8688V20.5404C30.3132 20.5404 30.3132 20.5002 30.3031 20.48C30.3031 20.4599 30.283 20.4398 30.2729 20.4297C30.2628 20.4096 30.2427 20.3995 30.2226 20.3895C30.2025 20.3895 30.1823 20.3794 30.1622 20.3794H30.122C30.122 20.3794 30.0414 20.3995 30.0113 20.4297C29.9811 20.4599 29.9609 20.5002 29.971 20.5505V21.9191L29.9609 21.909Z" fill="#090909"/>
<path d="M28.9546 22.0601L29.3068 22.0199V20.7015C29.3068 20.7015 29.3068 20.6613 29.2967 20.6412C29.2967 20.621 29.2766 20.6009 29.2666 20.5908C29.2565 20.5707 29.2364 20.5607 29.2162 20.5506C29.1961 20.5506 29.176 20.5405 29.1559 20.5405H29.1156C29.1156 20.5405 29.0754 20.5405 29.0552 20.5506C29.0351 20.5506 29.015 20.5707 29.0049 20.5908C28.9948 20.611 28.9747 20.621 28.9747 20.6412C28.9747 20.6613 28.9647 20.6814 28.9647 20.7015V22.0702L28.9546 22.0601Z" fill="#090909"/>
<path d="M28.2097 22.2123L28.4915 22.162L28.4512 20.9644C28.4512 20.9644 28.4411 20.894 28.411 20.8638C28.3908 20.8336 28.3506 20.8235 28.3204 20.8135H28.2902C28.2902 20.8135 28.2197 20.8437 28.1996 20.8638C28.1795 20.894 28.1694 20.9342 28.1694 20.9644L28.2198 22.1922L28.2097 22.2123Z" fill="#090909"/>
<path d="M27.5561 22.3924L27.8378 22.3421L27.7976 21.1646C27.7976 21.1646 27.7875 21.0942 27.7573 21.064C27.7372 21.0338 27.697 21.0237 27.6668 21.0137H27.6466C27.6466 21.0137 27.5762 21.0338 27.5561 21.064C27.5359 21.0942 27.5259 21.1244 27.5259 21.1646L27.5661 22.3823L27.5561 22.3924Z" fill="#090909"/>
<path d="M36.271 22.0806L36.6132 22.1209V20.7321C36.6132 20.7321 36.6132 20.6818 36.6132 20.6516C36.6132 20.6214 36.593 20.6013 36.583 20.5812C36.5628 20.5611 36.5427 20.5409 36.5226 20.5309C36.5025 20.5208 36.4723 20.5107 36.4421 20.5107C36.4119 20.5107 36.3918 20.5107 36.3616 20.5309C36.3414 20.5409 36.3112 20.5611 36.3012 20.5812C36.2811 20.6013 36.271 20.6315 36.271 20.6516C36.271 20.6818 36.271 20.7019 36.271 20.7321V22.0806Z" fill="#090909"/>
<path d="M37.0255 22.202L37.2872 22.2926V21.0045C37.2872 21.0045 37.2872 20.9642 37.2872 20.9441C37.2872 20.924 37.2771 20.9038 37.257 20.8938C37.2469 20.8837 37.2268 20.8636 37.2066 20.8636C37.1865 20.8636 37.1664 20.8535 37.1463 20.8535C37.1261 20.8535 37.106 20.8535 37.0859 20.8636C37.0658 20.8636 37.0557 20.8837 37.0356 20.8938C37.0255 20.9038 37.0154 20.924 37.0054 20.9441C37.0054 20.9642 37.0054 20.9843 37.0054 21.0045V22.202H37.0255Z" fill="#090909"/>
<path d="M37.6797 22.413L37.9413 22.5036V21.2758C37.9413 21.2758 37.9313 21.2054 37.9011 21.1853C37.881 21.1651 37.8407 21.145 37.8105 21.145C37.7803 21.145 37.7401 21.1551 37.7199 21.1853C37.6998 21.2054 37.6797 21.2457 37.6797 21.2758V22.4231V22.413Z" fill="#090909"/>
<path d="M38.1123 22.5737L38.3136 22.6543V21.4768C38.3136 21.4064 38.2633 21.3359 38.2129 21.3359C38.1626 21.3359 38.1123 21.3963 38.1123 21.4768V22.5737Z" fill="#090909"/>
<path d="M27.0127 22.5943L27.214 22.5239L27.1637 21.3465C27.1637 21.2659 27.1134 21.2056 27.063 21.2056C27.0127 21.2056 26.9624 21.2659 26.9624 21.3465L27.0127 22.5943Z" fill="#090909"/>
<path d="M37.408 19.1526C37.1363 15.3083 32.0744 13.8693 29.3673 16.2342C28.9144 16.6065 28.532 17.0695 28.2603 17.6028C27.9886 18.1261 27.8175 18.6997 27.7773 19.2935H27.7471C27.7471 18.6796 27.888 18.0758 28.1395 17.5223C28.3911 16.9688 28.7635 16.4757 29.2163 16.0732C31.0278 14.4228 34.0367 14.4026 35.9086 15.9625C36.8243 16.7072 37.5187 17.9953 37.408 19.1526Z" fill="#090909"/>
<path d="M30.7256 15.3686C29.4777 15.9422 29.0752 17.3511 28.6827 18.5587C28.6324 18.7398 28.572 18.921 28.5016 19.0921H28.4714C28.4613 18.5084 28.562 17.9247 28.7834 17.3813C29.0048 16.8378 29.3268 16.3447 29.7394 15.9422C30.0111 15.6705 30.3432 15.4591 30.7155 15.3384C30.7155 15.3484 30.7155 15.3585 30.7155 15.3686H30.7256Z" fill="#090909"/>
<path d="M30.9976 15.2175C29.8504 15.8414 29.7397 17.3006 29.4881 18.4479C29.4579 18.629 29.4176 18.8102 29.3673 18.9812H29.3371C29.2566 18.4378 29.2767 17.8743 29.4176 17.3308C29.5485 16.7975 29.79 16.2842 30.1221 15.8414C30.3435 15.5395 30.6353 15.3081 30.9775 15.1772C30.9775 15.1873 30.9875 15.1974 30.9976 15.2074V15.2175Z" fill="#090909"/>
<path d="M31.3701 14.9957C30.404 15.8109 30.3939 17.1996 30.1625 18.3569C30.1323 18.5381 30.1021 18.6991 30.0518 18.8802H30.0216C29.8304 17.8135 30.1121 16.7065 30.6254 15.7605C30.7965 15.4385 31.048 15.1769 31.3499 14.9756V14.9957H31.3701Z" fill="#090909"/>
<path d="M31.8226 14.9762C31.5811 15.1573 31.4201 15.419 31.3697 15.7209C31.1383 16.6266 31.41 17.5323 31.3194 18.4581H31.2892C30.9471 17.5625 30.9269 16.5763 31.2389 15.6806C31.3597 15.3888 31.5207 15.0869 31.8226 14.9561V14.9862V14.9762Z" fill="#090909"/>
<path d="M32.2355 15.208C32.2556 15.7414 32.2757 16.2747 32.2858 16.798C32.316 17.0798 32.2858 18.2472 32.1047 18.378C31.994 17.8547 31.9738 17.3213 32.0543 16.788C32.0946 16.2546 32.1449 15.7313 32.2053 15.208H32.2355Z" fill="#090909"/>
<path d="M32.98 15.5498C33.0303 16.0127 33.0705 16.4756 33.1108 16.9486C33.1913 17.4115 33.1712 17.8946 33.0504 18.3475H33.0202C32.8793 17.8946 32.829 17.4216 32.8894 16.9486C32.8994 16.4857 32.9196 16.0127 32.9498 15.5498H32.98Z" fill="#090909"/>
<path d="M36.7939 17.8237C36.8745 18.1458 37.0959 18.5986 36.9248 18.9005C36.8443 18.7395 36.7939 18.1458 36.7939 17.8237Z" fill="#090909"/>
<path d="M36.0394 17.3105C36.1299 17.6527 36.1802 18.0049 36.2205 18.3571C36.2104 18.4477 36.2205 18.6591 36.14 18.7094C36.1098 18.5987 36.0897 18.4779 36.0796 18.3672C36.0696 18.1257 36.0494 17.5521 36.0293 17.3206H36.0394V17.3105Z" fill="#090909"/>
<path d="M35.3652 16.918C35.4155 17.4211 35.6369 18.0853 35.4054 18.5483C35.3551 18.0048 35.3451 17.4614 35.3652 16.918Z" fill="#090909"/>
<path d="M34.6807 16.5259C34.8014 17.1196 34.9524 17.8442 34.7008 18.4077C34.6605 17.7838 34.741 17.1297 34.6807 16.5259Z" fill="#090909"/>
<path d="M33.8255 16.1033C33.8556 16.838 34.077 17.7638 33.8053 18.428C33.8053 18.0355 33.7852 17.6531 33.8053 17.2606V16.0933H33.8255V16.1033Z" fill="#090909"/>
<path d="M34.4299 16.6963H34.0972V17.3012H34.4299V16.6963Z" fill="#090909"/>
<path d="M33.5944 16.5962H33.2617V17.2011H33.5944V16.5962Z" fill="#090909"/>
<path d="M32.7389 16.5869H32.4062V17.1918H32.7389V16.5869Z" fill="#090909"/>
<path d="M31.8637 16.6465V16.7977H31.6117V17.2312H31.4604V16.6566H31.8637V16.6465Z" fill="#090909"/>
<path d="M30.8776 16.8984V17.0497H30.6659V17.4831H30.5449V16.9085H30.8877L30.8776 16.8984Z" fill="#090909"/>
<path d="M34.8521 16.7974V16.9385H35.0638V17.372H35.1847V16.7974H34.8521Z" fill="#090909"/>
<path d="M35.6069 17.0195V17.1607H35.8186V17.5942H35.9497V17.0195H35.6069Z" fill="#090909"/>
<path d="M29.7397 17.4726H29.901L30.0119 16.9585H29.8809L29.7498 17.4726H29.7397Z" fill="#090909"/>
<path d="M30.8167 14.9863V14.785C30.8167 14.785 32.7891 13.7384 34.349 14.785L34.3892 14.9963C34.3389 14.9259 34.2785 14.8756 34.2081 14.8152C33.9565 14.6139 33.3124 14.4328 32.3162 14.4831C31.8432 14.5334 31.3803 14.6642 30.9475 14.8756L30.8066 14.9863H30.8167Z" fill="#090909"/>
<path d="M30.957 14.6843V14.473C30.957 14.473 32.6678 13.4264 34.1975 14.473L34.2377 14.6843C34.1874 14.6239 34.1371 14.5635 34.0767 14.5032C33.8452 14.2918 33.2515 14.1107 32.3357 14.1509C31.8929 14.2013 31.4703 14.3421 31.0778 14.5535L30.957 14.6843Z" fill="#090909"/>
<path d="M32.9599 12.2986C32.9599 12.2986 32.9901 12.2986 33.0102 12.2986C33.0304 12.2986 33.0404 12.3188 33.0505 12.3288C33.0606 12.3389 33.0706 12.359 33.0807 12.3691C33.0807 12.3892 33.0807 12.3993 33.0807 12.4194V13.9189H32.8291V12.4194C32.8291 12.4194 32.8392 12.349 32.8694 12.3288C32.8895 12.3087 32.9297 12.2886 32.9599 12.2886V12.2986Z" fill="#090909"/>
<path d="M32.5273 12.3003C32.5273 12.3003 32.5575 12.3003 32.5776 12.3003C32.5978 12.3003 32.6078 12.3204 32.6179 12.3305C32.6279 12.3405 32.638 12.3607 32.6481 12.3707C32.6481 12.3909 32.6481 12.4009 32.6481 12.4211V13.8903H32.3965V12.4311C32.3965 12.4311 32.3965 12.3909 32.3965 12.3808C32.3965 12.3607 32.4166 12.3506 32.4267 12.3405C32.4367 12.3305 32.4569 12.3204 32.4669 12.3104C32.4871 12.3104 32.4971 12.3003 32.5172 12.3003H32.5273Z" fill="#090909"/>
<path d="M32.0441 12.3394C32.0441 12.3394 32.1145 12.3494 32.1347 12.3796C32.1548 12.3997 32.1749 12.44 32.1749 12.4702V13.9294H31.9233V12.4702C31.9233 12.4702 31.9233 12.44 31.9233 12.4199C31.9233 12.3997 31.9435 12.3897 31.9535 12.3796C31.9636 12.3695 31.9837 12.3595 31.9938 12.3494C32.0139 12.3494 32.024 12.3394 32.0441 12.3394Z" fill="#090909"/>
<path d="M31.7525 12.5615H31.6016V14.061H31.7525V12.5615Z" fill="#090909"/>
<path d="M33.4029 12.4707H33.252V13.9903H33.4029V12.4707Z" fill="#090909"/>
<path d="M31.5007 12.6215C31.5007 12.6215 31.229 12.4705 31.4403 12.068C31.6517 11.6654 33.3222 11.3334 33.6845 12.2491C33.7046 12.2894 33.7147 12.3296 33.7147 12.3699C33.7147 12.4101 33.7147 12.4504 33.6946 12.4907C33.6744 12.5309 33.6543 12.5611 33.6241 12.5913C33.5939 12.6215 33.5537 12.6315 33.5134 12.6416C33.5134 12.6416 33.5436 12.1183 32.5373 12.068C32.5373 12.0579 31.7121 12.0277 31.5108 12.6315L31.5007 12.6215Z" fill="#090909"/>
<path d="M33.4127 11.6548L33.1511 11.6044C32.7687 11.5239 32.3762 11.5239 32.0039 11.6044L31.6919 11.6648C31.7724 11.4937 31.8932 11.3528 32.0441 11.2623C32.1951 11.1616 32.3762 11.1113 32.5574 11.1113C32.7385 11.1113 32.9196 11.1616 33.0706 11.2623C33.2215 11.3629 33.3423 11.5038 33.4228 11.6648L33.4127 11.6548Z" fill="#090909"/>
<path d="M32.8896 10.7602C32.8896 10.8306 32.8694 10.9011 32.8292 10.9514C32.8292 10.9011 32.8292 10.8608 32.799 10.8105C32.7688 10.7602 32.7386 10.73 32.6983 10.7099C32.7285 10.7602 32.7386 10.8206 32.7487 10.8709C32.7487 10.9312 32.7487 10.9816 32.7185 11.0419C32.6682 11.0721 32.6078 11.0923 32.5373 11.0923C32.4669 11.0923 32.4065 11.0721 32.3461 11.0319C32.2857 10.9916 32.2455 10.9413 32.2254 10.8809C32.1952 10.8206 32.1952 10.7501 32.2052 10.6797C32.2153 10.6092 32.2556 10.5488 32.2958 10.5086C32.3461 10.4583 32.4065 10.4281 32.4669 10.418C32.5373 10.4079 32.5977 10.418 32.6682 10.4381C32.7285 10.4683 32.7789 10.5086 32.8191 10.569C32.8594 10.6293 32.8795 10.6897 32.8795 10.7602H32.8896Z" fill="#090909"/>
<path d="M32.6984 9.84326H32.3965V10.5578H32.6984V9.84326Z" fill="#090909"/>
<path d="M32.2554 9.88445H32.8894L32.7887 9.11963H32.4063L32.2654 9.88445H32.2554Z" fill="#090909"/>
<path d="M32.7489 8.91846H32.4868V9.19065H32.7489V8.91846Z" fill="#090909"/>
<path d="M32.6184 8.96882H32.3765L32.4974 8.75712L32.6184 8.54541L32.7394 8.75712L32.8604 8.96882H32.6184Z" fill="#090909"/>
<path d="M26.5498 22.624C26.5498 22.624 21.1356 27.1324 35.7277 28.8734C35.7277 28.8734 40.1455 31.2081 60.4335 31.7213V40.2149C60.4335 40.2149 16.5265 37.1456 20.3708 26.3072C21.0551 24.375 22.0615 23.5599 23.4402 22.8755C24.3157 22.4327 25.2717 22.322 26.5498 22.624Z" fill="white"/>
<path d="M25.9863 23.4493C25.3221 24.3349 24.5371 27.3741 35.7277 28.8836L33.7855 34.6298C33.7855 34.6298 28.0895 33.5027 24.3157 31.1579C19.133 27.9477 22.3433 22.3625 26.5599 22.6241C26.5901 22.6241 26.5196 22.6342 26.5599 22.6241L26.4995 22.7348C26.3083 23.0166 26.1875 23.1877 25.9963 23.4493H25.9863Z" fill="#212F64"/>
<path d="M36.1301 29.0552L35.7275 30.5748C35.7275 30.5748 43.1846 32.678 60.4334 33.2416V31.7321C60.4334 31.7321 41.0813 30.766 36.1301 29.0552Z" fill="#BD2032"/>
<path d="M35.4861 31.158L35.0332 32.6675C35.0332 32.6675 42.5708 34.7507 60.4334 35.3142V33.8047C60.4334 33.8047 40.6285 32.8487 35.4961 31.1479L35.4861 31.158Z" fill="#BD2032"/>
<path d="M34.9024 33.2207L34.4395 34.7302C34.4395 34.7302 42.3091 36.8335 60.4334 37.397V35.8875C60.4334 35.8875 40.1052 34.9214 34.9024 33.2207Z" fill="#BD2032"/>
<path d="M21.4272 24.3748C21.4272 24.3748 16.9791 31.4998 33.6443 35.1629C33.6443 35.1629 43.3052 37.6888 60.4232 38.5039V40.2047C60.4232 40.2047 35.9086 38.3027 28.5119 35.0924C20.8838 31.7815 18.2874 28.2794 21.4171 24.3647L21.4272 24.3748Z" fill="#BD2032"/>
<path d="M33.141 33.0498L33.3725 33.0297L33.2316 33.2309L33.3121 33.4624L33.0807 33.392L32.8894 33.5429V33.3014L32.6982 33.1706L32.9196 33.1001L32.9901 32.8687L33.131 33.0498H33.141Z" fill="white"/>
<path d="M33.8754 31.913H34.1169L33.9559 32.1042L34.0062 32.3357L33.7848 32.2451L33.5836 32.3759L33.6138 32.1344L33.4326 31.9834L33.6641 31.9231L33.7546 31.7017L33.8653 31.913H33.8754Z" fill="white"/>
<path d="M33.5838 30.4332H33.8253L33.6844 30.6244L33.7649 30.8458L33.5435 30.7754L33.3523 30.9263V30.6848L33.1611 30.5439L33.3825 30.4634L33.453 30.2319L33.5939 30.4231L33.5838 30.4332Z" fill="white"/>
<path d="M34.5301 29.4775H34.7716L34.6307 29.6687L34.7112 29.9002L34.4898 29.8298L34.2986 29.9807V29.7392L34.1074 29.6084L34.3288 29.5278L34.3993 29.2964L34.5401 29.4775H34.5301Z" fill="white"/>
<path d="M31.4204 32.6375H31.6619L31.5311 32.8186L31.6116 33.0501L31.3902 32.9797L31.199 33.1306V32.8891L31.0078 32.7583L31.2292 32.6777L31.2997 32.4463L31.4305 32.6375H31.4204Z" fill="white"/>
<path d="M32.1547 31.4999H32.3862L32.2251 31.6911L32.2755 31.9226L32.0641 31.832L31.8629 31.9628L31.8931 31.7213L31.7119 31.5704L31.9434 31.51L32.044 31.2886L32.1547 31.4999Z" fill="white"/>
<path d="M31.8832 30.0113H32.1147L31.9738 30.2025L32.0442 30.4239L31.8228 30.3535L31.6316 30.5044V30.2629L31.4404 30.122L31.6719 30.0415L31.7423 29.8101L31.8832 30.0013V30.0113Z" fill="white"/>
<path d="M32.809 29.0644H33.0405L32.8996 29.2556L32.97 29.4871L32.7486 29.4167L32.5574 29.5676V29.3261L32.3662 29.1953L32.5977 29.1148L32.6681 28.8833L32.809 29.0745V29.0644Z" fill="white"/>
<path d="M29.5387 32.2151L29.7701 32.195L29.6293 32.3963L29.7098 32.6277L29.4884 32.5573L29.2972 32.7082V32.4667L29.106 32.3359L29.3374 32.2554L29.3978 32.0239L29.5387 32.2151Z" fill="white"/>
<path d="M30.2734 31.0775H30.5048L30.3438 31.2687L30.3941 31.5002L30.1828 31.4096L29.9815 31.5405L30.0117 31.2989L29.8306 31.148L30.062 31.0876L30.1627 30.8662L30.2734 31.0775Z" fill="white"/>
<path d="M29.9814 29.5984H30.2128L30.0719 29.7896L30.1424 30.011L29.921 29.9406L29.7298 30.0915V29.85L29.5386 29.7192L29.77 29.6387L29.8405 29.4072L29.9814 29.5984Z" fill="white"/>
<path d="M30.9272 28.6421H31.1586L31.0177 28.8333L31.0882 29.0647L30.8668 28.9943L30.6756 29.1453V28.9037L30.4844 28.7729L30.7158 28.6924L30.7863 28.4609L30.9272 28.6521V28.6421Z" fill="white"/>
<path d="M27.9281 31.7215H28.1596L28.0187 31.9127L28.0892 32.1341L27.8678 32.0636L27.6766 32.2146V31.9731L27.4854 31.8422L27.7168 31.7617L27.7873 31.5303L27.9281 31.7215Z" fill="white"/>
<path d="M28.6632 30.5849H28.9047L28.7437 30.7761L28.794 31.0075L28.5827 30.917L28.3814 31.0478L28.4116 30.8063L28.2305 30.6553L28.4619 30.5949L28.5525 30.3735L28.6632 30.5849Z" fill="white"/>
<path d="M28.3712 29.1058H28.6127L28.4718 29.297L28.5523 29.5184L28.3209 29.4479L28.1297 29.5989V29.3573L27.9385 29.2265L28.1599 29.146L28.2303 28.9146L28.3712 29.1058Z" fill="white"/>
<path d="M29.317 28.1585L29.5485 28.1384L29.4076 28.3396L29.4881 28.5711L29.2667 28.5006L29.0755 28.6516V28.4101L28.8843 28.2793L29.1057 28.1987L29.1761 27.9673L29.317 28.1585Z" fill="white"/>
<path d="M26.2479 31.0371H26.4894L26.3485 31.2283L26.429 31.4598L26.1975 31.3893L26.0164 31.5403V31.2987L25.8252 31.1679L26.0466 31.0874L26.117 30.856L26.2479 31.0472V31.0371Z" fill="white"/>
<path d="M26.9823 29.9003L27.2138 29.9204L27.0528 30.1016L27.1031 30.333L26.8918 30.2324L26.6905 30.3632L26.7207 30.1217L26.5396 29.9707L26.771 29.9204L26.8616 29.689L26.9823 29.9003Z" fill="white"/>
<path d="M26.6905 28.4197L26.922 28.3996L26.7811 28.6009L26.8616 28.8323L26.6402 28.7619L26.449 28.9128V28.6713L26.2578 28.5405L26.4893 28.46L26.5597 28.2285L26.7006 28.4197H26.6905Z" fill="white"/>
<path d="M27.6363 27.4645H27.8678L27.7269 27.6557L27.8074 27.8771L27.586 27.8066L27.3948 27.9576V27.716L27.2036 27.5752L27.425 27.4946L27.4955 27.2632L27.6363 27.4544V27.4645Z" fill="white"/>
<path d="M24.5365 29.8504H24.768L24.6271 30.0416L24.6976 30.263L24.4762 30.1925L24.285 30.3435V30.102L24.0938 29.9711L24.3252 29.8906L24.3957 29.6592L24.5365 29.8504Z" fill="white"/>
<path d="M25.2714 28.7122L25.5029 28.7323L25.3418 28.9135L25.3922 29.1449L25.1808 29.0544L24.9796 29.1953L25.0098 28.9537L24.8286 28.8028L25.0601 28.7424L25.1506 28.521L25.2613 28.7223L25.2714 28.7122Z" fill="white"/>
<path d="M24.9796 27.2329H25.2211L25.0802 27.4241L25.1607 27.6556L24.9293 27.5851L24.7381 27.7361V27.4945L24.5469 27.3637L24.7683 27.2832L24.8387 27.0518L24.9796 27.243V27.2329Z" fill="white"/>
<path d="M25.9259 26.2874L26.1574 26.2673L26.0165 26.4685L26.097 26.7L25.8756 26.6296L25.6844 26.7805V26.539L25.4932 26.4082L25.7146 26.3277L25.785 26.0962L25.9259 26.2874Z" fill="white"/>
<path d="M23.2086 28.0679H23.4501L23.3092 28.2591L23.3898 28.4905L23.1583 28.4201L22.9671 28.571V28.3295L22.7759 28.1987L22.9973 28.1182L23.0677 27.8867L23.2086 28.0779V28.0679Z" fill="white"/>
<path d="M23.9431 26.9316L24.1746 26.9517L24.0135 27.1328L24.0639 27.3643L23.8425 27.2636L23.6412 27.3945L23.6714 27.1529L23.4902 27.002L23.7217 26.9517L23.8123 26.7202L23.933 26.9316H23.9431Z" fill="white"/>
<path d="M23.6612 25.4518L23.8927 25.4316L23.7518 25.6228L23.8323 25.8543L23.6109 25.7839L23.4197 25.9348V25.6933L23.2285 25.5625L23.4499 25.4819L23.5204 25.2505L23.6612 25.4518Z" fill="white"/>
<path d="M24.597 24.4967H24.8385L24.6976 24.6879L24.7781 24.9093L24.5567 24.8388L24.3655 24.9898V24.7483L24.1743 24.6074L24.3957 24.5269L24.4662 24.2954L24.607 24.4866L24.597 24.4967Z" fill="white"/>
</g>
<path d="M58.5602 24.8251C58.5602 24.9585 58.5533 25.0736 58.5395 25.1703C58.5303 25.2669 58.5142 25.3452 58.4912 25.405C58.4728 25.4603 58.4474 25.4994 58.4152 25.5224C58.3876 25.5454 58.3531 25.5569 58.3117 25.5569C58.2518 25.5569 58.1552 25.5155 58.0217 25.4327C57.8882 25.3498 57.711 25.26 57.49 25.1634C57.2691 25.0667 57.0044 24.977 56.696 24.8941C56.3922 24.8113 56.0378 24.7698 55.6328 24.7698C55.2001 24.7698 54.8088 24.8458 54.459 24.9977C54.1092 25.145 53.81 25.3567 53.5614 25.6329C53.3129 25.9045 53.1218 26.2336 52.9884 26.6202C52.8549 27.0023 52.7881 27.4257 52.7881 27.8906C52.7881 28.4015 52.8549 28.8526 52.9884 29.2439C53.1264 29.6305 53.3175 29.955 53.5614 30.2174C53.8054 30.4798 54.0977 30.6777 54.4383 30.8112C54.7835 30.9447 55.1633 31.0114 55.5775 31.0114C55.78 31.0114 55.9803 30.9884 56.1782 30.9424C56.3761 30.8963 56.5602 30.8273 56.7306 30.7352V28.6639H55.039C54.9561 28.6639 54.8917 28.6133 54.8456 28.512C54.7996 28.4062 54.7766 28.2289 54.7766 27.9804C54.7766 27.8515 54.7812 27.7433 54.7904 27.6559C54.8042 27.5684 54.8226 27.4994 54.8456 27.4487C54.8687 27.3935 54.8963 27.3544 54.9285 27.3314C54.9607 27.3037 54.9975 27.2899 55.039 27.2899H58.0562C58.1298 27.2899 58.1943 27.3037 58.2495 27.3314C58.3094 27.3544 58.36 27.3912 58.4014 27.4418C58.4474 27.4925 58.482 27.5546 58.505 27.6283C58.528 27.6973 58.5395 27.7778 58.5395 27.8699V31.4257C58.5395 31.5638 58.5142 31.6857 58.4636 31.7916C58.4175 31.8929 58.3186 31.9734 58.1667 32.0333C58.0194 32.0931 57.8353 32.1552 57.6143 32.2197C57.3934 32.2841 57.1632 32.3394 56.9239 32.3854C56.6891 32.4314 56.4498 32.4659 56.2058 32.489C55.9665 32.512 55.7248 32.5235 55.4809 32.5235C54.7674 32.5235 54.1276 32.4222 53.5614 32.2197C52.9999 32.0126 52.5235 31.7157 52.1322 31.329C51.741 30.9378 51.4418 30.4637 51.2346 29.9067C51.0275 29.3451 50.9239 28.7099 50.9239 28.0011C50.9239 27.2692 51.0344 26.6133 51.2554 26.0333C51.4763 25.4488 51.7893 24.9539 52.1944 24.5489C52.5994 24.1392 53.0873 23.8262 53.6581 23.6099C54.2335 23.3935 54.8733 23.2854 55.5775 23.2854C55.9642 23.2854 56.3163 23.313 56.6339 23.3682C56.9515 23.4189 57.2277 23.4833 57.4624 23.5616C57.7018 23.6352 57.8997 23.7158 58.0562 23.8032C58.2127 23.8907 58.3209 23.9666 58.3807 24.0311C58.4451 24.0955 58.4912 24.1876 58.5188 24.3072C58.5464 24.4223 58.5602 24.5949 58.5602 24.8251ZM66.5348 28.9953C66.5348 29.5201 66.4658 29.9988 66.3277 30.4314C66.1896 30.8641 65.9802 31.237 65.6994 31.55C65.4186 31.863 65.0665 32.1046 64.643 32.2749C64.2195 32.4452 63.7247 32.5304 63.1586 32.5304C62.6108 32.5304 62.1344 32.4544 61.7293 32.3025C61.3243 32.1506 60.9883 31.9297 60.7213 31.6397C60.4543 31.3497 60.2564 30.993 60.1275 30.5695C59.9986 30.1461 59.9342 29.6628 59.9342 29.1196C59.9342 28.5949 60.0032 28.1162 60.1413 27.6835C60.284 27.2462 60.4958 26.8734 60.7765 26.565C61.0573 26.252 61.4071 26.0103 61.826 25.84C62.2495 25.6697 62.7443 25.5845 63.3105 25.5845C63.8628 25.5845 64.3415 25.6605 64.7466 25.8124C65.1516 25.9597 65.4853 26.1783 65.7477 26.4683C66.0147 26.7583 66.2126 27.115 66.3415 27.5385C66.4704 27.962 66.5348 28.4476 66.5348 28.9953ZM64.7466 29.0644C64.7466 28.7606 64.7213 28.4821 64.6706 28.2289C64.6246 27.9712 64.544 27.7479 64.429 27.5592C64.3139 27.3705 64.1597 27.2232 63.9664 27.1173C63.7777 27.0115 63.5383 26.9585 63.2483 26.9585C62.9905 26.9585 62.765 27.0069 62.5717 27.1035C62.3784 27.1956 62.2196 27.3337 62.0953 27.5178C61.971 27.6973 61.8766 27.9159 61.8122 28.1737C61.7524 28.4269 61.7224 28.7168 61.7224 29.0437C61.7224 29.3475 61.7478 29.6282 61.7984 29.886C61.849 30.1392 61.9296 30.3601 62.04 30.5488C62.1551 30.7375 62.3093 30.8848 62.5026 30.9907C62.696 31.092 62.9353 31.1426 63.2207 31.1426C63.4831 31.1426 63.7109 31.0966 63.9042 31.0045C64.0976 30.9078 64.2564 30.7698 64.3806 30.5902C64.5049 30.4107 64.597 30.1944 64.6568 29.9412C64.7167 29.6835 64.7466 29.3912 64.7466 29.0644ZM73.5428 25.9712C73.5428 25.9942 73.5405 26.0218 73.5359 26.054C73.5359 26.0863 73.5313 26.1231 73.5221 26.1645C73.5175 26.2013 73.5083 26.2451 73.4945 26.2957C73.4852 26.3463 73.4714 26.4039 73.453 26.4683L71.6026 32.0402C71.5796 32.1184 71.5474 32.1829 71.506 32.2335C71.4692 32.2795 71.4047 32.3163 71.3127 32.344C71.2252 32.3716 71.1032 32.39 70.9467 32.3992C70.7948 32.4084 70.5946 32.413 70.346 32.413C70.1021 32.413 69.9019 32.4061 69.7454 32.3923C69.5935 32.3831 69.4738 32.3647 69.3863 32.3371C69.2989 32.3094 69.2344 32.2726 69.193 32.2266C69.1562 32.176 69.1263 32.1138 69.1033 32.0402L67.2529 26.4683C67.2253 26.3763 67.2022 26.2934 67.1838 26.2198C67.17 26.1461 67.1608 26.0932 67.1562 26.061C67.1562 26.0287 67.1562 25.9988 67.1562 25.9712C67.1562 25.9252 67.1677 25.886 67.1907 25.8538C67.2183 25.817 67.2644 25.7871 67.3288 25.7641C67.3933 25.741 67.4807 25.7249 67.5912 25.7157C67.7063 25.7065 67.8489 25.7019 68.0193 25.7019C68.208 25.7019 68.3599 25.7088 68.4749 25.7226C68.59 25.7318 68.6798 25.748 68.7442 25.771C68.8133 25.7894 68.8616 25.8193 68.8892 25.8607C68.9168 25.8975 68.9398 25.9436 68.9583 25.9988L70.3599 30.5212L70.4013 30.6938L70.4427 30.5212L71.8236 25.9988C71.8374 25.9436 71.8581 25.8975 71.8857 25.8607C71.9179 25.8193 71.9663 25.7894 72.0307 25.771C72.0952 25.748 72.1803 25.7318 72.2862 25.7226C72.3967 25.7088 72.5393 25.7019 72.7143 25.7019C72.8846 25.7019 73.0227 25.7065 73.1285 25.7157C73.239 25.7249 73.3241 25.741 73.384 25.7641C73.4438 25.7871 73.4852 25.817 73.5083 25.8538C73.5313 25.886 73.5428 25.9252 73.5428 25.9712ZM80.1227 28.878C80.1227 29.0897 80.0744 29.2462 79.9777 29.3475C79.8856 29.4487 79.7568 29.4993 79.591 29.4993H75.842C75.842 29.7617 75.8719 30.0011 75.9317 30.2174C75.9962 30.4291 76.0951 30.611 76.2286 30.7629C76.3667 30.9101 76.5416 31.0229 76.7533 31.1012C76.9697 31.1794 77.2274 31.2185 77.5266 31.2185C77.8304 31.2185 78.0974 31.1978 78.3275 31.1564C78.5577 31.1104 78.7556 31.062 78.9213 31.0114C79.0916 30.9562 79.232 30.9078 79.3425 30.8664C79.453 30.8204 79.5427 30.7974 79.6118 30.7974C79.6532 30.7974 79.6877 30.8066 79.7153 30.825C79.7429 30.8388 79.766 30.8664 79.7844 30.9078C79.8028 30.9493 79.8143 31.0091 79.8189 31.0874C79.8281 31.161 79.8327 31.2554 79.8327 31.3704C79.8327 31.4717 79.8304 31.5592 79.8258 31.6328C79.8212 31.7019 79.8143 31.7617 79.8051 31.8123C79.7959 31.863 79.7821 31.9067 79.7637 31.9435C79.7452 31.9757 79.7199 32.0079 79.6877 32.0402C79.6601 32.0724 79.5795 32.1161 79.4461 32.1714C79.3126 32.2266 79.1423 32.2818 78.9351 32.3371C78.728 32.3877 78.4909 32.4314 78.224 32.4682C77.957 32.5097 77.6716 32.5304 77.3678 32.5304C76.8201 32.5304 76.3391 32.4613 75.9248 32.3233C75.5151 32.1852 75.1722 31.9757 74.8961 31.695C74.6199 31.4142 74.4127 31.0597 74.2747 30.6317C74.1412 30.2036 74.0744 29.7019 74.0744 29.1265C74.0744 28.5788 74.1458 28.0862 74.2885 27.649C74.4312 27.2071 74.6383 26.8342 74.9099 26.5305C75.1814 26.2221 75.5105 25.9873 75.8972 25.8262C76.2884 25.6651 76.728 25.5845 77.2159 25.5845C77.7315 25.5845 78.171 25.6605 78.5347 25.8124C78.9029 25.9643 79.2044 26.176 79.4392 26.4476C79.6739 26.7146 79.8465 27.0322 79.957 27.4004C80.0675 27.7686 80.1227 28.1691 80.1227 28.6018V28.878ZM78.438 28.3808C78.4518 27.8929 78.3529 27.5109 78.1411 27.2347C77.934 26.9539 77.6118 26.8135 77.1745 26.8135C76.9536 26.8135 76.7602 26.855 76.5945 26.9378C76.4334 27.0207 76.2976 27.1334 76.1872 27.2761C76.0813 27.4142 75.9985 27.5799 75.9386 27.7732C75.8834 27.962 75.8512 28.1645 75.842 28.3808H78.438ZM85.515 26.5512C85.515 26.7169 85.5104 26.8527 85.5012 26.9585C85.492 27.0644 85.4782 27.1472 85.4598 27.2071C85.4414 27.2669 85.4161 27.3083 85.3838 27.3314C85.3562 27.3544 85.3194 27.3659 85.2734 27.3659C85.2366 27.3659 85.1951 27.359 85.1491 27.3452C85.1031 27.3268 85.0501 27.3083 84.9903 27.2899C84.9351 27.2715 84.8729 27.2554 84.8039 27.2416C84.7348 27.2232 84.6589 27.214 84.576 27.214C84.4794 27.214 84.3827 27.2347 84.286 27.2761C84.1894 27.313 84.0881 27.3728 83.9823 27.4556C83.881 27.5385 83.7728 27.649 83.6577 27.7871C83.5473 27.9251 83.4276 28.0955 83.2987 28.298V32.1368C83.2987 32.1829 83.2849 32.2243 83.2573 32.2611C83.2297 32.2933 83.1813 32.3209 83.1123 32.344C83.0479 32.367 82.9604 32.3831 82.8499 32.3923C82.7395 32.4061 82.5991 32.413 82.4288 32.413C82.2585 32.413 82.1181 32.4061 82.0076 32.3923C81.8971 32.3831 81.8074 32.367 81.7383 32.344C81.6739 32.3209 81.6278 32.2933 81.6002 32.2611C81.5726 32.2243 81.5588 32.1829 81.5588 32.1368V25.9781C81.5588 25.9321 81.5703 25.8929 81.5933 25.8607C81.6163 25.8239 81.6578 25.794 81.7176 25.771C81.7774 25.748 81.8534 25.7318 81.9455 25.7226C82.0421 25.7088 82.1618 25.7019 82.3045 25.7019C82.4518 25.7019 82.5738 25.7088 82.6704 25.7226C82.7671 25.7318 82.8407 25.748 82.8914 25.771C82.9466 25.794 82.9857 25.8239 83.0087 25.8607C83.0317 25.8929 83.0433 25.9321 83.0433 25.9781V26.7445C83.2044 26.5143 83.3563 26.3256 83.4989 26.1783C83.6416 26.0264 83.7774 25.9068 83.9063 25.8193C84.0352 25.7318 84.1641 25.672 84.2929 25.6398C84.4218 25.603 84.5507 25.5845 84.6796 25.5845C84.7394 25.5845 84.8039 25.5892 84.8729 25.5984C84.942 25.603 85.0133 25.6145 85.087 25.6329C85.1606 25.6467 85.225 25.6651 85.2803 25.6881C85.3355 25.7065 85.3746 25.7272 85.3977 25.7503C85.4253 25.7733 85.4437 25.7986 85.4529 25.8262C85.4667 25.8538 85.4782 25.8929 85.4874 25.9436C85.4966 25.9896 85.5035 26.061 85.5081 26.1576C85.5127 26.2543 85.515 26.3855 85.515 26.5512ZM92.4678 32.1368C92.4678 32.1829 92.454 32.2243 92.4263 32.2611C92.3987 32.2933 92.3527 32.3209 92.2883 32.344C92.2238 32.367 92.1341 32.3831 92.019 32.3923C91.9085 32.4061 91.7704 32.413 91.6047 32.413C91.4344 32.413 91.2917 32.4061 91.1766 32.3923C91.0662 32.3831 90.9787 32.367 90.9143 32.344C90.8498 32.3209 90.8038 32.2933 90.7762 32.2611C90.7486 32.2243 90.7348 32.1829 90.7348 32.1368V28.6225C90.7348 28.3233 90.7117 28.0885 90.6657 27.9182C90.6243 27.7479 90.5622 27.6029 90.4793 27.4833C90.3964 27.359 90.2883 27.2646 90.1548 27.2002C90.0259 27.1311 89.874 27.0966 89.6991 27.0966C89.4782 27.0966 89.2549 27.1772 89.0294 27.3383C88.8038 27.4994 88.5691 27.7341 88.3251 28.0425V32.1368C88.3251 32.1829 88.3113 32.2243 88.2837 32.2611C88.2561 32.2933 88.2077 32.3209 88.1387 32.344C88.0743 32.367 87.9868 32.3831 87.8763 32.3923C87.7659 32.4061 87.6255 32.413 87.4552 32.413C87.2849 32.413 87.1445 32.4061 87.034 32.3923C86.9235 32.3831 86.8338 32.367 86.7647 32.344C86.7003 32.3209 86.6543 32.2933 86.6266 32.2611C86.599 32.2243 86.5852 32.1829 86.5852 32.1368V25.9781C86.5852 25.9321 86.5967 25.8929 86.6197 25.8607C86.6427 25.8239 86.6842 25.794 86.744 25.771C86.8039 25.748 86.8798 25.7318 86.9719 25.7226C87.0685 25.7088 87.1882 25.7019 87.3309 25.7019C87.4782 25.7019 87.6002 25.7088 87.6968 25.7226C87.7935 25.7318 87.8671 25.748 87.9178 25.771C87.973 25.794 88.0121 25.8239 88.0351 25.8607C88.0582 25.8929 88.0697 25.9321 88.0697 25.9781V26.6893C88.4103 26.321 88.7555 26.0448 89.1053 25.8607C89.4597 25.6766 89.828 25.5845 90.21 25.5845C90.6289 25.5845 90.981 25.6536 91.2664 25.7917C91.5564 25.9298 91.7888 26.1185 91.9637 26.3578C92.1433 26.5926 92.2721 26.8688 92.3504 27.1864C92.4286 27.504 92.4678 27.886 92.4678 28.3325V32.1368ZM103.977 32.1368C103.977 32.1829 103.964 32.2243 103.936 32.2611C103.908 32.2933 103.862 32.3209 103.798 32.344C103.733 32.367 103.646 32.3831 103.536 32.3923C103.425 32.4061 103.285 32.413 103.114 32.413C102.939 32.413 102.797 32.4061 102.686 32.3923C102.576 32.3831 102.486 32.367 102.417 32.344C102.353 32.3209 102.307 32.2933 102.279 32.2611C102.256 32.2243 102.244 32.1829 102.244 32.1368V28.4844C102.244 28.2773 102.224 28.0885 102.182 27.9182C102.145 27.7479 102.086 27.6029 102.003 27.4833C101.925 27.359 101.823 27.2646 101.699 27.2002C101.579 27.1311 101.434 27.0966 101.264 27.0966C101.057 27.0966 100.847 27.1772 100.636 27.3383C100.424 27.4994 100.194 27.7341 99.9452 28.0425V32.1368C99.9452 32.1829 99.9314 32.2243 99.9038 32.2611C99.8762 32.2933 99.8279 32.3209 99.7588 32.344C99.6944 32.367 99.6069 32.3831 99.4965 32.3923C99.386 32.4061 99.2479 32.413 99.0822 32.413C98.9119 32.413 98.7715 32.4061 98.661 32.3923C98.5506 32.3831 98.4608 32.367 98.3918 32.344C98.3273 32.3209 98.2813 32.2933 98.2537 32.2611C98.226 32.2243 98.2122 32.1829 98.2122 32.1368V28.4844C98.2122 28.2773 98.1915 28.0885 98.1501 27.9182C98.1133 27.7479 98.0557 27.6029 97.9775 27.4833C97.8992 27.359 97.798 27.2646 97.6737 27.2002C97.5494 27.1311 97.4044 27.0966 97.2387 27.0966C97.027 27.0966 96.8152 27.1772 96.6035 27.3383C96.3918 27.4994 96.1639 27.7341 95.92 28.0425V32.1368C95.92 32.1829 95.9062 32.2243 95.8785 32.2611C95.8509 32.2933 95.8026 32.3209 95.7336 32.344C95.6691 32.367 95.5817 32.3831 95.4712 32.3923C95.3607 32.4061 95.2203 32.413 95.05 32.413C94.8797 32.413 94.7393 32.4061 94.6289 32.3923C94.5184 32.3831 94.4286 32.367 94.3596 32.344C94.2951 32.3209 94.2491 32.2933 94.2215 32.2611C94.1939 32.2243 94.1801 32.1829 94.1801 32.1368V25.9781C94.1801 25.9321 94.1916 25.8929 94.2146 25.8607C94.2376 25.8239 94.279 25.794 94.3389 25.771C94.3987 25.748 94.4747 25.7318 94.5667 25.7226C94.6634 25.7088 94.783 25.7019 94.9257 25.7019C95.073 25.7019 95.195 25.7088 95.2917 25.7226C95.3883 25.7318 95.462 25.748 95.5126 25.771C95.5678 25.794 95.607 25.8239 95.63 25.8607C95.653 25.8929 95.6645 25.9321 95.6645 25.9781V26.6893C96.0051 26.321 96.3434 26.0448 96.6795 25.8607C97.0201 25.6766 97.3745 25.5845 97.7427 25.5845C97.9959 25.5845 98.2237 25.6122 98.4263 25.6674C98.6288 25.718 98.8083 25.794 98.9648 25.8952C99.1259 25.9919 99.264 26.1093 99.3791 26.2474C99.4942 26.3855 99.5908 26.5397 99.6691 26.71C99.8532 26.512 100.033 26.3417 100.208 26.199C100.387 26.0563 100.562 25.9413 100.732 25.8538C100.907 25.7618 101.08 25.695 101.25 25.6536C101.425 25.6076 101.602 25.5845 101.782 25.5845C102.191 25.5845 102.537 25.6536 102.817 25.7917C103.098 25.9298 103.324 26.1185 103.494 26.3578C103.669 26.5926 103.793 26.8688 103.867 27.1864C103.941 27.504 103.977 27.84 103.977 28.1944V32.1368ZM111.372 28.878C111.372 29.0897 111.324 29.2462 111.227 29.3475C111.135 29.4487 111.006 29.4993 110.84 29.4993H107.091C107.091 29.7617 107.121 30.0011 107.181 30.2174C107.246 30.4291 107.344 30.611 107.478 30.7629C107.616 30.9101 107.791 31.0229 108.003 31.1012C108.219 31.1794 108.477 31.2185 108.776 31.2185C109.08 31.2185 109.347 31.1978 109.577 31.1564C109.807 31.1104 110.005 31.062 110.171 31.0114C110.341 30.9562 110.481 30.9078 110.592 30.8664C110.702 30.8204 110.792 30.7974 110.861 30.7974C110.903 30.7974 110.937 30.8066 110.965 30.825C110.992 30.8388 111.015 30.8664 111.034 30.9078C111.052 30.9493 111.064 31.0091 111.068 31.0874C111.077 31.161 111.082 31.2554 111.082 31.3704C111.082 31.4717 111.08 31.5592 111.075 31.6328C111.071 31.7019 111.064 31.7617 111.054 31.8123C111.045 31.863 111.031 31.9067 111.013 31.9435C110.995 31.9757 110.969 32.0079 110.937 32.0402C110.909 32.0724 110.829 32.1161 110.695 32.1714C110.562 32.2266 110.392 32.2818 110.184 32.3371C109.977 32.3877 109.74 32.4314 109.473 32.4682C109.206 32.5097 108.921 32.5304 108.617 32.5304C108.069 32.5304 107.588 32.4613 107.174 32.3233C106.764 32.1852 106.422 31.9757 106.145 31.695C105.869 31.4142 105.662 31.0597 105.524 30.6317C105.391 30.2036 105.324 29.7019 105.324 29.1265C105.324 28.5788 105.395 28.0862 105.538 27.649C105.681 27.2071 105.888 26.8342 106.159 26.5305C106.431 26.2221 106.76 25.9873 107.147 25.8262C107.538 25.6651 107.977 25.5845 108.465 25.5845C108.981 25.5845 109.42 25.6605 109.784 25.8124C110.152 25.9643 110.454 26.176 110.689 26.4476C110.923 26.7146 111.096 27.0322 111.206 27.4004C111.317 27.7686 111.372 28.1691 111.372 28.6018V28.878ZM109.687 28.3808C109.701 27.8929 109.602 27.5109 109.39 27.2347C109.183 26.9539 108.861 26.8135 108.424 26.8135C108.203 26.8135 108.01 26.855 107.844 26.9378C107.683 27.0207 107.547 27.1334 107.437 27.2761C107.331 27.4142 107.248 27.5799 107.188 27.7732C107.133 27.962 107.101 28.1645 107.091 28.3808H109.687ZM118.691 32.1368C118.691 32.1829 118.677 32.2243 118.649 32.2611C118.622 32.2933 118.576 32.3209 118.511 32.344C118.447 32.367 118.357 32.3831 118.242 32.3923C118.131 32.4061 117.993 32.413 117.828 32.413C117.657 32.413 117.515 32.4061 117.4 32.3923C117.289 32.3831 117.202 32.367 117.137 32.344C117.073 32.3209 117.027 32.2933 116.999 32.2611C116.972 32.2243 116.958 32.1829 116.958 32.1368V28.6225C116.958 28.3233 116.935 28.0885 116.889 27.9182C116.847 27.7479 116.785 27.6029 116.702 27.4833C116.619 27.359 116.511 27.2646 116.378 27.2002C116.249 27.1311 116.097 27.0966 115.922 27.0966C115.701 27.0966 115.478 27.1772 115.252 27.3383C115.027 27.4994 114.792 27.7341 114.548 28.0425V32.1368C114.548 32.1829 114.534 32.2243 114.507 32.2611C114.479 32.2933 114.431 32.3209 114.362 32.344C114.297 32.367 114.21 32.3831 114.099 32.3923C113.989 32.4061 113.848 32.413 113.678 32.413C113.508 32.413 113.367 32.4061 113.257 32.3923C113.146 32.3831 113.057 32.367 112.988 32.344C112.923 32.3209 112.877 32.2933 112.85 32.2611C112.822 32.2243 112.808 32.1829 112.808 32.1368V25.9781C112.808 25.9321 112.82 25.8929 112.843 25.8607C112.866 25.8239 112.907 25.794 112.967 25.771C113.027 25.748 113.103 25.7318 113.195 25.7226C113.291 25.7088 113.411 25.7019 113.554 25.7019C113.701 25.7019 113.823 25.7088 113.92 25.7226C114.016 25.7318 114.09 25.748 114.141 25.771C114.196 25.794 114.235 25.8239 114.258 25.8607C114.281 25.8929 114.293 25.9321 114.293 25.9781V26.6893C114.633 26.321 114.978 26.0448 115.328 25.8607C115.683 25.6766 116.051 25.5845 116.433 25.5845C116.852 25.5845 117.204 25.6536 117.489 25.7917C117.779 25.9298 118.012 26.1185 118.187 26.3578C118.366 26.5926 118.495 26.8688 118.573 27.1864C118.652 27.504 118.691 27.886 118.691 28.3325V32.1368ZM123.91 31.5292C123.91 31.7318 123.897 31.8883 123.869 31.9987C123.846 32.1046 123.814 32.1806 123.772 32.2266C123.731 32.268 123.669 32.3071 123.586 32.344C123.508 32.3762 123.413 32.4038 123.303 32.4268C123.197 32.4544 123.08 32.4751 122.951 32.489C122.826 32.5028 122.7 32.5097 122.571 32.5097C122.226 32.5097 121.927 32.4659 121.673 32.3785C121.42 32.291 121.211 32.1575 121.045 31.978C120.879 31.7939 120.757 31.5638 120.679 31.2876C120.601 31.0114 120.562 30.6846 120.562 30.3072V27.1518H119.823C119.736 27.1518 119.669 27.0989 119.623 26.993C119.577 26.8826 119.554 26.7008 119.554 26.4476C119.554 26.3141 119.558 26.2013 119.568 26.1093C119.581 26.0172 119.6 25.9459 119.623 25.8952C119.646 25.84 119.673 25.8009 119.706 25.7779C119.742 25.7549 119.784 25.7434 119.83 25.7434H120.562V24.3694C120.562 24.3233 120.573 24.2819 120.596 24.2451C120.624 24.2083 120.67 24.1784 120.734 24.1553C120.803 24.1277 120.893 24.1093 121.004 24.1001C121.119 24.0863 121.259 24.0794 121.425 24.0794C121.595 24.0794 121.736 24.0863 121.846 24.1001C121.961 24.1093 122.051 24.1277 122.115 24.1553C122.18 24.1784 122.226 24.2083 122.253 24.2451C122.281 24.2819 122.295 24.3233 122.295 24.3694V25.7434H123.634C123.68 25.7434 123.719 25.7549 123.752 25.7779C123.788 25.8009 123.818 25.84 123.841 25.8952C123.864 25.9459 123.881 26.0172 123.89 26.1093C123.904 26.2013 123.91 26.3141 123.91 26.4476C123.91 26.7008 123.887 26.8826 123.841 26.993C123.795 27.0989 123.729 27.1518 123.641 27.1518H122.295V30.0448C122.295 30.3808 122.348 30.634 122.454 30.8043C122.559 30.97 122.748 31.0528 123.02 31.0528C123.112 31.0528 123.195 31.0459 123.268 31.0321C123.342 31.0137 123.406 30.9953 123.462 30.9769C123.521 30.9539 123.57 30.9355 123.607 30.9217C123.648 30.9032 123.685 30.894 123.717 30.894C123.745 30.894 123.77 30.9032 123.793 30.9217C123.821 30.9355 123.841 30.9677 123.855 31.0183C123.869 31.0643 123.881 31.1288 123.89 31.2116C123.904 31.2945 123.91 31.4004 123.91 31.5292ZM134.944 29.6927C134.944 30.0103 134.9 30.298 134.813 30.5557C134.725 30.8135 134.603 31.0413 134.447 31.2393C134.295 31.4372 134.111 31.6075 133.894 31.7502C133.682 31.8929 133.448 32.0103 133.19 32.1023C132.932 32.1944 132.656 32.2634 132.361 32.3094C132.071 32.3509 131.747 32.3716 131.388 32.3716H129.013C128.861 32.3716 128.732 32.3279 128.626 32.2404C128.525 32.1483 128.474 32.001 128.474 31.7985V24.0103C128.474 23.8078 128.525 23.6628 128.626 23.5754C128.732 23.4833 128.861 23.4373 129.013 23.4373H131.257C131.804 23.4373 132.267 23.4833 132.645 23.5754C133.027 23.6674 133.346 23.8078 133.604 23.9965C133.867 24.1807 134.067 24.4154 134.205 24.7008C134.343 24.9862 134.412 25.3222 134.412 25.7088C134.412 25.9252 134.384 26.13 134.329 26.3233C134.274 26.512 134.193 26.6847 134.088 26.8412C133.982 26.9977 133.85 27.1357 133.694 27.2554C133.542 27.3751 133.367 27.4718 133.169 27.5454C133.422 27.5914 133.655 27.672 133.867 27.7871C134.083 27.9021 134.269 28.0517 134.426 28.2358C134.587 28.4154 134.714 28.6271 134.806 28.871C134.898 29.115 134.944 29.3889 134.944 29.6927ZM132.596 25.9298C132.596 25.7503 132.569 25.5892 132.513 25.4465C132.458 25.3038 132.375 25.1864 132.265 25.0943C132.154 24.9977 132.014 24.924 131.844 24.8734C131.678 24.8228 131.455 24.7974 131.174 24.7974H130.256V27.1173H131.271C131.533 27.1173 131.742 27.0874 131.899 27.0276C132.055 26.9631 132.184 26.878 132.285 26.7721C132.391 26.6616 132.47 26.5351 132.52 26.3924C132.571 26.2451 132.596 26.0909 132.596 25.9298ZM133.059 29.7548C133.059 29.5477 133.024 29.3636 132.955 29.2025C132.886 29.0368 132.785 28.8987 132.651 28.7882C132.518 28.6777 132.348 28.5926 132.141 28.5327C131.933 28.4729 131.664 28.443 131.333 28.443H130.256V30.9838H131.567C131.821 30.9838 132.032 30.9585 132.203 30.9078C132.378 30.8526 132.527 30.7744 132.651 30.6731C132.78 30.5672 132.879 30.4383 132.948 30.2865C133.022 30.13 133.059 29.9527 133.059 29.7548ZM141.986 28.878C141.986 29.0897 141.938 29.2462 141.841 29.3475C141.749 29.4487 141.62 29.4993 141.455 29.4993H137.705C137.705 29.7617 137.735 30.0011 137.795 30.2174C137.86 30.4291 137.959 30.611 138.092 30.7629C138.23 30.9101 138.405 31.0229 138.617 31.1012C138.833 31.1794 139.091 31.2185 139.39 31.2185C139.694 31.2185 139.961 31.1978 140.191 31.1564C140.421 31.1104 140.619 31.062 140.785 31.0114C140.955 30.9562 141.096 30.9078 141.206 30.8664C141.316 30.8204 141.406 30.7974 141.475 30.7974C141.517 30.7974 141.551 30.8066 141.579 30.825C141.606 30.8388 141.629 30.8664 141.648 30.9078C141.666 30.9493 141.678 31.0091 141.682 31.0874C141.692 31.161 141.696 31.2554 141.696 31.3704C141.696 31.4717 141.694 31.5592 141.689 31.6328C141.685 31.7019 141.678 31.7617 141.669 31.8123C141.659 31.863 141.646 31.9067 141.627 31.9435C141.609 31.9757 141.583 32.0079 141.551 32.0402C141.524 32.0724 141.443 32.1161 141.31 32.1714C141.176 32.2266 141.006 32.2818 140.799 32.3371C140.591 32.3877 140.354 32.4314 140.087 32.4682C139.821 32.5097 139.535 32.5304 139.231 32.5304C138.684 32.5304 138.203 32.4613 137.788 32.3233C137.379 32.1852 137.036 31.9757 136.76 31.695C136.483 31.4142 136.276 31.0597 136.138 30.6317C136.005 30.2036 135.938 29.7019 135.938 29.1265C135.938 28.5788 136.009 28.0862 136.152 27.649C136.295 27.2071 136.502 26.8342 136.773 26.5305C137.045 26.2221 137.374 25.9873 137.761 25.8262C138.152 25.6651 138.592 25.5845 139.079 25.5845C139.595 25.5845 140.035 25.6605 140.398 25.8124C140.766 25.9643 141.068 26.176 141.303 26.4476C141.537 26.7146 141.71 27.0322 141.82 27.4004C141.931 27.7686 141.986 28.1691 141.986 28.6018V28.878ZM140.302 28.3808C140.315 27.8929 140.216 27.5109 140.005 27.2347C139.797 26.9539 139.475 26.8135 139.038 26.8135C138.817 26.8135 138.624 26.855 138.458 26.9378C138.297 27.0207 138.161 27.1334 138.051 27.2761C137.945 27.4142 137.862 27.5799 137.802 27.7732C137.747 27.962 137.715 28.1645 137.705 28.3808H140.302ZM149.305 32.1368C149.305 32.1829 149.291 32.2243 149.263 32.2611C149.236 32.2933 149.19 32.3209 149.125 32.344C149.061 32.367 148.971 32.3831 148.856 32.3923C148.746 32.4061 148.608 32.413 148.442 32.413C148.271 32.413 148.129 32.4061 148.014 32.3923C147.903 32.3831 147.816 32.367 147.751 32.344C147.687 32.3209 147.641 32.2933 147.613 32.2611C147.586 32.2243 147.572 32.1829 147.572 32.1368V28.6225C147.572 28.3233 147.549 28.0885 147.503 27.9182C147.461 27.7479 147.399 27.6029 147.316 27.4833C147.234 27.359 147.125 27.2646 146.992 27.2002C146.863 27.1311 146.711 27.0966 146.536 27.0966C146.315 27.0966 146.092 27.1772 145.866 27.3383C145.641 27.4994 145.406 27.7341 145.162 28.0425V32.1368C145.162 32.1829 145.148 32.2243 145.121 32.2611C145.093 32.2933 145.045 32.3209 144.976 32.344C144.911 32.367 144.824 32.3831 144.713 32.3923C144.603 32.4061 144.463 32.413 144.292 32.413C144.122 32.413 143.982 32.4061 143.871 32.3923C143.761 32.3831 143.671 32.367 143.602 32.344C143.537 32.3209 143.491 32.2933 143.464 32.2611C143.436 32.2243 143.422 32.1829 143.422 32.1368V25.9781C143.422 25.9321 143.434 25.8929 143.457 25.8607C143.48 25.8239 143.521 25.794 143.581 25.771C143.641 25.748 143.717 25.7318 143.809 25.7226C143.906 25.7088 144.025 25.7019 144.168 25.7019C144.315 25.7019 144.437 25.7088 144.534 25.7226C144.631 25.7318 144.704 25.748 144.755 25.771C144.81 25.794 144.849 25.8239 144.872 25.8607C144.895 25.8929 144.907 25.9321 144.907 25.9781V26.6893C145.247 26.321 145.593 26.0448 145.942 25.8607C146.297 25.6766 146.665 25.5845 147.047 25.5845C147.466 25.5845 147.818 25.6536 148.103 25.7917C148.393 25.9298 148.626 26.1185 148.801 26.3578C148.98 26.5926 149.109 26.8688 149.187 27.1864C149.266 27.504 149.305 27.886 149.305 28.3325V32.1368ZM156.706 28.878C156.706 29.0897 156.658 29.2462 156.561 29.3475C156.469 29.4487 156.34 29.4993 156.175 29.4993H152.426C152.426 29.7617 152.456 30.0011 152.515 30.2174C152.58 30.4291 152.679 30.611 152.812 30.7629C152.95 30.9101 153.125 31.0229 153.337 31.1012C153.553 31.1794 153.811 31.2185 154.11 31.2185C154.414 31.2185 154.681 31.1978 154.911 31.1564C155.141 31.1104 155.339 31.062 155.505 31.0114C155.675 30.9562 155.816 30.9078 155.926 30.8664C156.037 30.8204 156.126 30.7974 156.195 30.7974C156.237 30.7974 156.271 30.8066 156.299 30.825C156.327 30.8388 156.35 30.8664 156.368 30.9078C156.386 30.9493 156.398 31.0091 156.403 31.0874C156.412 31.161 156.416 31.2554 156.416 31.3704C156.416 31.4717 156.414 31.5592 156.409 31.6328C156.405 31.7019 156.398 31.7617 156.389 31.8123C156.38 31.863 156.366 31.9067 156.347 31.9435C156.329 31.9757 156.304 32.0079 156.271 32.0402C156.244 32.0724 156.163 32.1161 156.03 32.1714C155.896 32.2266 155.726 32.2818 155.519 32.3371C155.312 32.3877 155.075 32.4314 154.808 32.4682C154.541 32.5097 154.255 32.5304 153.952 32.5304C153.404 32.5304 152.923 32.4613 152.509 32.3233C152.099 32.1852 151.756 31.9757 151.48 31.695C151.204 31.4142 150.996 31.0597 150.858 30.6317C150.725 30.2036 150.658 29.7019 150.658 29.1265C150.658 28.5788 150.729 28.0862 150.872 27.649C151.015 27.2071 151.222 26.8342 151.494 26.5305C151.765 26.2221 152.094 25.9873 152.481 25.8262C152.872 25.6651 153.312 25.5845 153.8 25.5845C154.315 25.5845 154.755 25.6605 155.118 25.8124C155.487 25.9643 155.788 26.176 156.023 26.4476C156.258 26.7146 156.43 27.0322 156.541 27.4004C156.651 27.7686 156.706 28.1691 156.706 28.6018V28.878ZM155.022 28.3808C155.036 27.8929 154.937 27.5109 154.725 27.2347C154.518 26.9539 154.195 26.8135 153.758 26.8135C153.537 26.8135 153.344 26.855 153.178 26.9378C153.017 27.0207 152.881 27.1334 152.771 27.2761C152.665 27.4142 152.582 27.5799 152.522 27.7732C152.467 27.962 152.435 28.1645 152.426 28.3808H155.022ZM164.253 23.9068C164.253 24.0771 164.237 24.2221 164.205 24.3418C164.177 24.4568 164.126 24.5512 164.053 24.6248C163.979 24.6939 163.878 24.7445 163.749 24.7767C163.625 24.8044 163.468 24.8182 163.279 24.8182C163.091 24.8182 162.932 24.8044 162.803 24.7767C162.674 24.7445 162.571 24.6939 162.492 24.6248C162.419 24.5512 162.366 24.4568 162.333 24.3418C162.306 24.2221 162.292 24.0771 162.292 23.9068C162.292 23.7411 162.306 23.6007 162.333 23.4856C162.366 23.3705 162.419 23.2762 162.492 23.2025C162.571 23.1289 162.674 23.0759 162.803 23.0437C162.932 23.0115 163.091 22.9954 163.279 22.9954C163.468 22.9954 163.625 23.0115 163.749 23.0437C163.878 23.0759 163.979 23.1289 164.053 23.2025C164.126 23.2762 164.177 23.3705 164.205 23.4856C164.237 23.6007 164.253 23.7411 164.253 23.9068ZM164.122 32.1368C164.122 32.1829 164.108 32.2243 164.08 32.2611C164.053 32.2933 164.007 32.3209 163.942 32.344C163.878 32.367 163.788 32.3831 163.673 32.3923C163.562 32.4061 163.424 32.413 163.259 32.413C163.088 32.413 162.946 32.4061 162.831 32.3923C162.72 32.3831 162.633 32.367 162.568 32.344C162.504 32.3209 162.458 32.2933 162.43 32.2611C162.403 32.2243 162.389 32.1829 162.389 32.1368V27.1518H160.103V32.1368C160.103 32.1829 160.09 32.2243 160.062 32.2611C160.034 32.2933 159.988 32.3209 159.924 32.344C159.859 32.367 159.77 32.3831 159.655 32.3923C159.544 32.4061 159.404 32.413 159.233 32.413C159.068 32.413 158.927 32.4061 158.812 32.3923C158.702 32.3831 158.612 32.367 158.543 32.344C158.479 32.3209 158.432 32.2933 158.405 32.2611C158.382 32.2243 158.37 32.1829 158.37 32.1368V27.1518H157.597C157.51 27.1518 157.443 27.0989 157.397 26.993C157.355 26.8826 157.335 26.7008 157.335 26.4476C157.335 26.3141 157.339 26.2013 157.348 26.1093C157.362 26.0172 157.378 25.9459 157.397 25.8952C157.42 25.84 157.447 25.8009 157.48 25.7779C157.517 25.7549 157.558 25.7434 157.604 25.7434H158.37V25.1979C158.37 24.779 158.412 24.4131 158.495 24.1001C158.582 23.7871 158.713 23.527 158.888 23.3199C159.063 23.1082 159.284 22.9517 159.551 22.8504C159.818 22.7445 160.133 22.6916 160.497 22.6916C160.598 22.6916 160.699 22.6962 160.801 22.7054C160.907 22.7146 161.006 22.7284 161.098 22.7468C161.19 22.7652 161.27 22.786 161.339 22.809C161.408 22.832 161.454 22.8573 161.477 22.8849C161.505 22.9079 161.526 22.9356 161.539 22.9678C161.558 23 161.572 23.0414 161.581 23.0921C161.595 23.1427 161.604 23.2094 161.609 23.2923C161.613 23.3705 161.615 23.4695 161.615 23.5892C161.615 23.8101 161.602 23.9666 161.574 24.0587C161.551 24.1461 161.503 24.1899 161.429 24.1899C161.401 24.1899 161.369 24.1853 161.332 24.176C161.3 24.1668 161.259 24.1553 161.208 24.1415C161.162 24.1277 161.107 24.1162 161.042 24.107C160.978 24.0932 160.897 24.0863 160.801 24.0863C160.557 24.0863 160.38 24.1691 160.269 24.3349C160.159 24.5006 160.103 24.7744 160.103 25.1565V25.7434H163.597C163.772 25.7434 163.903 25.7825 163.991 25.8607C164.078 25.9344 164.122 26.054 164.122 26.2198V32.1368ZM169.521 31.5292C169.521 31.7318 169.507 31.8883 169.48 31.9987C169.457 32.1046 169.424 32.1806 169.383 32.2266C169.341 32.268 169.279 32.3071 169.196 32.344C169.118 32.3762 169.024 32.4038 168.913 32.4268C168.808 32.4544 168.69 32.4751 168.561 32.489C168.437 32.5028 168.31 32.5097 168.182 32.5097C167.836 32.5097 167.537 32.4659 167.284 32.3785C167.031 32.291 166.821 32.1575 166.656 31.978C166.49 31.7939 166.368 31.5638 166.29 31.2876C166.211 31.0114 166.172 30.6846 166.172 30.3072V27.1518H165.434C165.346 27.1518 165.279 27.0989 165.233 26.993C165.187 26.8826 165.164 26.7008 165.164 26.4476C165.164 26.3141 165.169 26.2013 165.178 26.1093C165.192 26.0172 165.21 25.9459 165.233 25.8952C165.256 25.84 165.284 25.8009 165.316 25.7779C165.353 25.7549 165.394 25.7434 165.44 25.7434H166.172V24.3694C166.172 24.3233 166.184 24.2819 166.207 24.2451C166.234 24.2083 166.28 24.1784 166.345 24.1553C166.414 24.1277 166.504 24.1093 166.614 24.1001C166.729 24.0863 166.87 24.0794 167.035 24.0794C167.206 24.0794 167.346 24.0863 167.457 24.1001C167.572 24.1093 167.661 24.1277 167.726 24.1553C167.79 24.1784 167.836 24.2083 167.864 24.2451C167.892 24.2819 167.905 24.3233 167.905 24.3694V25.7434H169.245C169.291 25.7434 169.33 25.7549 169.362 25.7779C169.399 25.8009 169.429 25.84 169.452 25.8952C169.475 25.9459 169.491 26.0172 169.5 26.1093C169.514 26.2013 169.521 26.3141 169.521 26.4476C169.521 26.7008 169.498 26.8826 169.452 26.993C169.406 27.0989 169.339 27.1518 169.252 27.1518H167.905V30.0448C167.905 30.3808 167.958 30.634 168.064 30.8043C168.17 30.97 168.359 31.0528 168.63 31.0528C168.722 31.0528 168.805 31.0459 168.879 31.0321C168.953 31.0137 169.017 30.9953 169.072 30.9769C169.132 30.9539 169.18 30.9355 169.217 30.9217C169.259 30.9032 169.295 30.894 169.328 30.894C169.355 30.894 169.381 30.9032 169.404 30.9217C169.431 30.9355 169.452 30.9677 169.466 31.0183C169.48 31.0643 169.491 31.1288 169.5 31.2116C169.514 31.2945 169.521 31.4004 169.521 31.5292ZM180.202 26.1507C180.202 26.6524 180.124 27.0966 179.967 27.4833C179.811 27.8699 179.583 28.1967 179.284 28.4637C178.985 28.7261 178.616 28.9263 178.179 29.0644C177.746 29.2025 177.235 29.2715 176.646 29.2715H175.901V32.123C175.901 32.1691 175.885 32.2105 175.852 32.2473C175.825 32.2841 175.776 32.314 175.707 32.3371C175.638 32.3601 175.546 32.3785 175.431 32.3923C175.316 32.4061 175.169 32.413 174.989 32.413C174.814 32.413 174.667 32.4061 174.547 32.3923C174.432 32.3785 174.34 32.3601 174.271 32.3371C174.202 32.314 174.154 32.2841 174.126 32.2473C174.099 32.2105 174.085 32.1691 174.085 32.123V24.0863C174.085 23.87 174.14 23.7089 174.25 23.603C174.366 23.4925 174.515 23.4373 174.699 23.4373H176.805C177.017 23.4373 177.217 23.4465 177.406 23.4649C177.599 23.4787 177.829 23.5132 178.096 23.5685C178.363 23.6191 178.632 23.7158 178.904 23.8584C179.18 24.0011 179.415 24.183 179.608 24.4039C179.802 24.6202 179.949 24.8757 180.05 25.1703C180.151 25.4603 180.202 25.7871 180.202 26.1507ZM178.303 26.2819C178.303 25.9689 178.248 25.7111 178.138 25.5086C178.027 25.3061 177.891 25.1565 177.73 25.0598C177.569 24.9632 177.399 24.9033 177.219 24.8803C177.044 24.8527 176.863 24.8389 176.674 24.8389H175.901V27.8699H176.715C177.005 27.8699 177.247 27.8308 177.44 27.7525C177.638 27.6743 177.799 27.5661 177.924 27.428C178.048 27.2853 178.142 27.1173 178.207 26.924C178.271 26.7261 178.303 26.512 178.303 26.2819ZM185.463 26.5512C185.463 26.7169 185.459 26.8527 185.449 26.9585C185.44 27.0644 185.426 27.1472 185.408 27.2071C185.39 27.2669 185.364 27.3083 185.332 27.3314C185.304 27.3544 185.268 27.3659 185.222 27.3659C185.185 27.3659 185.143 27.359 185.097 27.3452C185.051 27.3268 184.998 27.3083 184.939 27.2899C184.883 27.2715 184.821 27.2554 184.752 27.2416C184.683 27.2232 184.607 27.214 184.524 27.214C184.428 27.214 184.331 27.2347 184.234 27.2761C184.138 27.313 184.036 27.3728 183.93 27.4556C183.829 27.5385 183.721 27.649 183.606 27.7871C183.495 27.9251 183.376 28.0955 183.247 28.298V32.1368C183.247 32.1829 183.233 32.2243 183.206 32.2611C183.178 32.2933 183.13 32.3209 183.061 32.344C182.996 32.367 182.909 32.3831 182.798 32.3923C182.688 32.4061 182.547 32.413 182.377 32.413C182.207 32.413 182.066 32.4061 181.956 32.3923C181.845 32.3831 181.756 32.367 181.687 32.344C181.622 32.3209 181.576 32.2933 181.548 32.2611C181.521 32.2243 181.507 32.1829 181.507 32.1368V25.9781C181.507 25.9321 181.519 25.8929 181.542 25.8607C181.565 25.8239 181.606 25.794 181.666 25.771C181.726 25.748 181.802 25.7318 181.894 25.7226C181.99 25.7088 182.11 25.7019 182.253 25.7019C182.4 25.7019 182.522 25.7088 182.619 25.7226C182.715 25.7318 182.789 25.748 182.84 25.771C182.895 25.794 182.934 25.8239 182.957 25.8607C182.98 25.8929 182.991 25.9321 182.991 25.9781V26.7445C183.153 26.5143 183.304 26.3256 183.447 26.1783C183.59 26.0264 183.726 25.9068 183.855 25.8193C183.983 25.7318 184.112 25.672 184.241 25.6398C184.37 25.603 184.499 25.5845 184.628 25.5845C184.688 25.5845 184.752 25.5892 184.821 25.5984C184.89 25.603 184.962 25.6145 185.035 25.6329C185.109 25.6467 185.173 25.6651 185.229 25.6881C185.284 25.7065 185.323 25.7272 185.346 25.7503C185.373 25.7733 185.392 25.7986 185.401 25.8262C185.415 25.8538 185.426 25.8929 185.436 25.9436C185.445 25.9896 185.452 26.061 185.456 26.1576C185.461 26.2543 185.463 26.3855 185.463 26.5512ZM192.582 28.9953C192.582 29.5201 192.513 29.9988 192.375 30.4314C192.236 30.8641 192.027 31.237 191.746 31.55C191.465 31.863 191.113 32.1046 190.69 32.2749C190.266 32.4452 189.772 32.5304 189.205 32.5304C188.658 32.5304 188.181 32.4544 187.776 32.3025C187.371 32.1506 187.035 31.9297 186.768 31.6397C186.501 31.3497 186.303 30.993 186.174 30.5695C186.046 30.1461 185.981 29.6628 185.981 29.1196C185.981 28.5949 186.05 28.1162 186.188 27.6835C186.331 27.2462 186.543 26.8734 186.823 26.565C187.104 26.252 187.454 26.0103 187.873 25.84C188.296 25.6697 188.791 25.5845 189.357 25.5845C189.91 25.5845 190.388 25.6605 190.793 25.8124C191.199 25.9597 191.532 26.1783 191.795 26.4683C192.062 26.7583 192.259 27.115 192.388 27.5385C192.517 27.962 192.582 28.4476 192.582 28.9953ZM190.793 29.0644C190.793 28.7606 190.768 28.4821 190.718 28.2289C190.671 27.9712 190.591 27.7479 190.476 27.5592C190.361 27.3705 190.207 27.2232 190.013 27.1173C189.825 27.0115 189.585 26.9585 189.295 26.9585C189.037 26.9585 188.812 27.0069 188.619 27.1035C188.425 27.1956 188.266 27.3337 188.142 27.5178C188.018 27.6973 187.924 27.9159 187.859 28.1737C187.799 28.4269 187.769 28.7168 187.769 29.0437C187.769 29.3475 187.795 29.6282 187.845 29.886C187.896 30.1392 187.976 30.3601 188.087 30.5488C188.202 30.7375 188.356 30.8848 188.55 30.9907C188.743 31.092 188.982 31.1426 189.268 31.1426C189.53 31.1426 189.758 31.0966 189.951 31.0045C190.144 30.9078 190.303 30.7698 190.428 30.5902C190.552 30.4107 190.644 30.1944 190.704 29.9412C190.764 29.6835 190.793 29.3912 190.793 29.0644ZM199.514 26.4062C199.514 26.6271 199.488 26.7905 199.438 26.8964C199.387 27.0023 199.325 27.0552 199.251 27.0552H198.526C198.628 27.1657 198.699 27.2922 198.74 27.4349C198.786 27.573 198.809 27.718 198.809 27.8699C198.809 28.2289 198.75 28.5488 198.63 28.8296C198.51 29.1058 198.338 29.3405 198.112 29.5339C197.891 29.7226 197.622 29.8676 197.304 29.9688C196.991 30.0655 196.641 30.1138 196.255 30.1138C196.057 30.1138 195.868 30.0908 195.689 30.0448C195.509 29.9942 195.371 29.9366 195.274 29.8722C195.219 29.932 195.169 30.0034 195.123 30.0862C195.081 30.1691 195.06 30.2611 195.06 30.3624C195.06 30.4959 195.118 30.6064 195.233 30.6938C195.353 30.7767 195.518 30.8227 195.73 30.8319L197.228 30.8871C197.578 30.9009 197.889 30.9516 198.16 31.039C198.437 31.1219 198.667 31.2416 198.851 31.3981C199.04 31.55 199.182 31.7341 199.279 31.9504C199.38 32.1668 199.431 32.413 199.431 32.6892C199.431 32.993 199.364 33.2784 199.231 33.5453C199.097 33.8169 198.897 34.0517 198.63 34.2496C198.363 34.4475 198.027 34.604 197.622 34.7191C197.221 34.8342 196.752 34.8917 196.213 34.8917C195.689 34.8917 195.24 34.8503 194.867 34.7674C194.499 34.6846 194.195 34.5695 193.956 34.4222C193.721 34.2749 193.548 34.0977 193.438 33.8906C193.332 33.688 193.279 33.4648 193.279 33.2208C193.279 33.0689 193.297 32.9239 193.334 32.7858C193.376 32.6478 193.433 32.5143 193.507 32.3854C193.585 32.2611 193.679 32.1414 193.79 32.0264C193.9 31.9113 194.027 31.8008 194.17 31.695C193.972 31.5891 193.818 31.4464 193.707 31.2669C193.601 31.0828 193.548 30.8825 193.548 30.6662C193.548 30.3946 193.61 30.1484 193.735 29.9274C193.859 29.7019 194.02 29.4993 194.218 29.3198C194.057 29.1587 193.928 28.9654 193.831 28.7399C193.735 28.5143 193.686 28.2335 193.686 27.8975C193.686 27.5385 193.749 27.2186 193.873 26.9378C194.002 26.6524 194.179 26.4131 194.404 26.2198C194.63 26.0218 194.899 25.8722 195.212 25.771C195.525 25.6651 195.87 25.6122 196.248 25.6122C196.441 25.6122 196.625 25.6237 196.8 25.6467C196.98 25.6697 197.146 25.7019 197.297 25.7434H199.251C199.33 25.7434 199.392 25.794 199.438 25.8952C199.488 25.9965 199.514 26.1668 199.514 26.4062ZM197.284 27.863C197.284 27.5316 197.192 27.2738 197.007 27.0897C196.823 26.9056 196.563 26.8135 196.227 26.8135C196.057 26.8135 195.907 26.8435 195.778 26.9033C195.65 26.9585 195.541 27.0368 195.454 27.138C195.371 27.2347 195.309 27.3498 195.268 27.4833C195.226 27.6121 195.205 27.7479 195.205 27.8906C195.205 28.2036 195.297 28.4522 195.482 28.6363C195.666 28.8158 195.921 28.9056 196.248 28.9056C196.423 28.9056 196.575 28.878 196.704 28.8227C196.833 28.7675 196.938 28.6915 197.021 28.5949C197.109 28.4982 197.173 28.3877 197.215 28.2635C197.261 28.1346 197.284 28.0011 197.284 27.863ZM197.691 32.7789C197.691 32.5718 197.608 32.413 197.442 32.3025C197.277 32.1921 197.049 32.1322 196.759 32.123L195.523 32.0885C195.403 32.176 195.307 32.2611 195.233 32.344C195.164 32.4222 195.106 32.4982 195.06 32.5718C195.019 32.6455 194.991 32.7168 194.978 32.7858C194.964 32.8549 194.957 32.9262 194.957 32.9999C194.957 33.23 195.072 33.4049 195.302 33.5246C195.537 33.6443 195.866 33.7041 196.289 33.7041C196.552 33.7041 196.773 33.6765 196.952 33.6213C197.132 33.5706 197.277 33.5016 197.387 33.4141C197.498 33.3267 197.576 33.2277 197.622 33.1173C197.668 33.0114 197.691 32.8986 197.691 32.7789ZM204.63 26.5512C204.63 26.7169 204.625 26.8527 204.616 26.9585C204.607 27.0644 204.593 27.1472 204.575 27.2071C204.556 27.2669 204.531 27.3083 204.499 27.3314C204.471 27.3544 204.434 27.3659 204.388 27.3659C204.351 27.3659 204.31 27.359 204.264 27.3452C204.218 27.3268 204.165 27.3083 204.105 27.2899C204.05 27.2715 203.988 27.2554 203.919 27.2416C203.85 27.2232 203.774 27.214 203.691 27.214C203.594 27.214 203.498 27.2347 203.401 27.2761C203.304 27.313 203.203 27.3728 203.097 27.4556C202.996 27.5385 202.888 27.649 202.773 27.7871C202.662 27.9251 202.542 28.0955 202.414 28.298V32.1368C202.414 32.1829 202.4 32.2243 202.372 32.2611C202.345 32.2933 202.296 32.3209 202.227 32.344C202.163 32.367 202.075 32.3831 201.965 32.3923C201.854 32.4061 201.714 32.413 201.544 32.413C201.373 32.413 201.233 32.4061 201.122 32.3923C201.012 32.3831 200.922 32.367 200.853 32.344C200.789 32.3209 200.743 32.2933 200.715 32.2611C200.687 32.2243 200.674 32.1829 200.674 32.1368V25.9781C200.674 25.9321 200.685 25.8929 200.708 25.8607C200.731 25.8239 200.773 25.794 200.832 25.771C200.892 25.748 200.968 25.7318 201.06 25.7226C201.157 25.7088 201.277 25.7019 201.419 25.7019C201.567 25.7019 201.689 25.7088 201.785 25.7226C201.882 25.7318 201.956 25.748 202.006 25.771C202.061 25.794 202.101 25.8239 202.124 25.8607C202.147 25.8929 202.158 25.9321 202.158 25.9781V26.7445C202.319 26.5143 202.471 26.3256 202.614 26.1783C202.756 26.0264 202.892 25.9068 203.021 25.8193C203.15 25.7318 203.279 25.672 203.408 25.6398C203.537 25.603 203.666 25.5845 203.794 25.5845C203.854 25.5845 203.919 25.5892 203.988 25.5984C204.057 25.603 204.128 25.6145 204.202 25.6329C204.275 25.6467 204.34 25.6651 204.395 25.6881C204.45 25.7065 204.489 25.7272 204.513 25.7503C204.54 25.7733 204.559 25.7986 204.568 25.8262C204.582 25.8538 204.593 25.8929 204.602 25.9436C204.611 25.9896 204.618 26.061 204.623 26.1576C204.628 26.2543 204.63 26.3855 204.63 26.5512ZM210.63 32.1575C210.63 32.222 210.607 32.2726 210.561 32.3094C210.515 32.3463 210.441 32.3716 210.34 32.3854C210.243 32.4038 210.098 32.413 209.905 32.413C209.698 32.413 209.546 32.4038 209.449 32.3854C209.357 32.3716 209.29 32.3463 209.249 32.3094C209.212 32.2726 209.194 32.222 209.194 32.1575V31.6673C208.941 31.9389 208.651 32.1506 208.324 32.3025C208.002 32.4544 207.643 32.5304 207.247 32.5304C206.92 32.5304 206.618 32.4867 206.342 32.3992C206.071 32.3163 205.834 32.1921 205.631 32.0264C205.433 31.8561 205.279 31.6466 205.168 31.3981C205.058 31.1495 205.003 30.8595 205.003 30.5281C205.003 30.1691 205.072 29.8584 205.21 29.596C205.353 29.329 205.562 29.1104 205.838 28.9401C206.119 28.7652 206.466 28.6363 206.881 28.5534C207.295 28.4706 207.776 28.4292 208.324 28.4292H208.924V28.0563C208.924 27.863 208.904 27.695 208.862 27.5523C208.825 27.405 208.761 27.283 208.669 27.1864C208.582 27.0897 208.462 27.0184 208.31 26.9723C208.163 26.9263 207.979 26.9033 207.758 26.9033C207.468 26.9033 207.208 26.9355 206.977 27C206.752 27.0644 206.552 27.1357 206.377 27.214C206.202 27.2922 206.054 27.3636 205.935 27.428C205.82 27.4925 205.725 27.5247 205.652 27.5247C205.601 27.5247 205.555 27.5086 205.514 27.4764C205.477 27.4441 205.445 27.3981 205.417 27.3383C205.394 27.2784 205.376 27.2048 205.362 27.1173C205.348 27.0299 205.341 26.9332 205.341 26.8273C205.341 26.6847 205.353 26.5719 205.376 26.489C205.399 26.4062 205.442 26.3325 205.507 26.2681C205.571 26.199 205.684 26.1254 205.845 26.0471C206.006 25.9643 206.195 25.8883 206.411 25.8193C206.628 25.7503 206.862 25.695 207.115 25.6536C207.373 25.6076 207.638 25.5845 207.909 25.5845C208.393 25.5845 208.805 25.6329 209.145 25.7295C209.491 25.8216 209.774 25.9666 209.995 26.1645C210.216 26.3578 210.377 26.6087 210.478 26.9171C210.579 27.2255 210.63 27.5914 210.63 28.0149V32.1575ZM208.924 29.5201H208.262C207.981 29.5201 207.741 29.5408 207.544 29.5822C207.346 29.6236 207.185 29.6858 207.06 29.7686C206.936 29.8515 206.844 29.9527 206.784 30.0724C206.729 30.1875 206.701 30.321 206.701 30.4729C206.701 30.7306 206.782 30.9332 206.943 31.0805C207.109 31.2278 207.336 31.3014 207.626 31.3014C207.87 31.3014 208.094 31.2393 208.296 31.115C208.503 30.9907 208.713 30.8089 208.924 30.5695V29.5201ZM222.167 32.1368C222.167 32.1829 222.153 32.2243 222.126 32.2611C222.098 32.2933 222.052 32.3209 221.988 32.344C221.923 32.367 221.836 32.3831 221.725 32.3923C221.615 32.4061 221.474 32.413 221.304 32.413C221.129 32.413 220.986 32.4061 220.876 32.3923C220.765 32.3831 220.676 32.367 220.607 32.344C220.542 32.3209 220.496 32.2933 220.469 32.2611C220.446 32.2243 220.434 32.1829 220.434 32.1368V28.4844C220.434 28.2773 220.413 28.0885 220.372 27.9182C220.335 27.7479 220.275 27.6029 220.192 27.4833C220.114 27.359 220.013 27.2646 219.889 27.2002C219.769 27.1311 219.624 27.0966 219.454 27.0966C219.247 27.0966 219.037 27.1772 218.825 27.3383C218.614 27.4994 218.383 27.7341 218.135 28.0425V32.1368C218.135 32.1829 218.121 32.2243 218.093 32.2611C218.066 32.2933 218.018 32.3209 217.948 32.344C217.884 32.367 217.797 32.3831 217.686 32.3923C217.576 32.4061 217.438 32.413 217.272 32.413C217.102 32.413 216.961 32.4061 216.851 32.3923C216.74 32.3831 216.65 32.367 216.581 32.344C216.517 32.3209 216.471 32.2933 216.443 32.2611C216.416 32.2243 216.402 32.1829 216.402 32.1368V28.4844C216.402 28.2773 216.381 28.0885 216.34 27.9182C216.303 27.7479 216.245 27.6029 216.167 27.4833C216.089 27.359 215.988 27.2646 215.863 27.2002C215.739 27.1311 215.594 27.0966 215.428 27.0966C215.217 27.0966 215.005 27.1772 214.793 27.3383C214.581 27.4994 214.354 27.7341 214.11 28.0425V32.1368C214.11 32.1829 214.096 32.2243 214.068 32.2611C214.041 32.2933 213.992 32.3209 213.923 32.344C213.859 32.367 213.771 32.3831 213.661 32.3923C213.55 32.4061 213.41 32.413 213.24 32.413C213.069 32.413 212.929 32.4061 212.819 32.3923C212.708 32.3831 212.618 32.367 212.549 32.344C212.485 32.3209 212.439 32.2933 212.411 32.2611C212.384 32.2243 212.37 32.1829 212.37 32.1368V25.9781C212.37 25.9321 212.381 25.8929 212.404 25.8607C212.427 25.8239 212.469 25.794 212.529 25.771C212.588 25.748 212.664 25.7318 212.756 25.7226C212.853 25.7088 212.973 25.7019 213.115 25.7019C213.263 25.7019 213.385 25.7088 213.481 25.7226C213.578 25.7318 213.652 25.748 213.702 25.771C213.758 25.794 213.797 25.8239 213.82 25.8607C213.843 25.8929 213.854 25.9321 213.854 25.9781V26.6893C214.195 26.321 214.533 26.0448 214.869 25.8607C215.21 25.6766 215.564 25.5845 215.932 25.5845C216.186 25.5845 216.413 25.6122 216.616 25.6674C216.818 25.718 216.998 25.794 217.154 25.8952C217.316 25.9919 217.454 26.1093 217.569 26.2474C217.684 26.3855 217.78 26.5397 217.859 26.71C218.043 26.512 218.222 26.3417 218.397 26.199C218.577 26.0563 218.752 25.9413 218.922 25.8538C219.097 25.7618 219.27 25.695 219.44 25.6536C219.615 25.6076 219.792 25.5845 219.971 25.5845C220.381 25.5845 220.726 25.6536 221.007 25.7917C221.288 25.9298 221.513 26.1185 221.684 26.3578C221.859 26.5926 221.983 26.8688 222.057 27.1864C222.13 27.504 222.167 27.84 222.167 28.1944V32.1368Z" fill="#090909"/>
</g>
</g>
<defs>
<clipPath id="clip0_411_378565">
<rect width="248.618" height="53.2358" fill="white" transform="translate(0.84668 0.737305)"/>
</clipPath>
</defs>
</svg>
