<svg width="210" height="70" viewBox="0 0 210 70" fill="none" xmlns="http://www.w3.org/2000/svg">
<g clip-path="url(#clip0_411_378566)">
<path d="M202.423 0.162598H7.64561C3.65848 0.162598 0.42627 2.86113 0.42627 6.18993V63.3992C0.42627 66.7281 3.65848 69.4266 7.64561 69.4266H202.423C206.41 69.4266 209.642 66.7281 209.642 63.3992V6.18993C209.642 2.86113 206.41 0.162598 202.423 0.162598Z" fill="#FBFBFB"/>
<path d="M9.20508 38.2423L24.2936 23.1538H16.6637V20.1401H29.444V32.9205H26.4404V25.2906L11.3419 40.3791L9.21516 38.2524L9.20508 38.2423Z" fill="#765BA7"/>
<path d="M42.1064 26.1489C42.1064 26.2537 42.0882 26.3472 42.0518 26.4292C42.0153 26.5112 41.9652 26.5796 41.9014 26.6343C41.8421 26.689 41.7692 26.73 41.6826 26.7573C41.6006 26.7801 41.5163 26.7915 41.4297 26.7915H40.6641C40.5046 26.7915 40.3656 26.7756 40.2471 26.7437C40.1331 26.7118 40.026 26.6548 39.9258 26.5728C39.8301 26.4862 39.7367 26.3722 39.6455 26.231C39.5544 26.0851 39.4518 25.8983 39.3379 25.6704L37.1367 21.5347C37.0091 21.2886 36.8792 21.0243 36.7471 20.7417C36.6149 20.4546 36.4964 20.1766 36.3916 19.9077H36.3779C36.3962 20.2358 36.4098 20.564 36.4189 20.8921C36.4281 21.2157 36.4326 21.5506 36.4326 21.897V26.5249C36.4326 26.5705 36.4189 26.6115 36.3916 26.6479C36.3688 26.6844 36.3255 26.7163 36.2617 26.7437C36.2025 26.7664 36.1204 26.7847 36.0156 26.7983C35.9108 26.812 35.7764 26.8188 35.6123 26.8188C35.4528 26.8188 35.3206 26.812 35.2158 26.7983C35.111 26.7847 35.029 26.7664 34.9697 26.7437C34.9105 26.7163 34.8695 26.6844 34.8467 26.6479C34.8239 26.6115 34.8125 26.5705 34.8125 26.5249V18.5747C34.8125 18.3605 34.874 18.201 34.9971 18.0962C35.1247 17.9868 35.2796 17.9321 35.4619 17.9321H36.4258C36.599 17.9321 36.7448 17.9481 36.8633 17.98C36.9818 18.0073 37.0866 18.0552 37.1777 18.1235C37.2734 18.1919 37.3623 18.2876 37.4443 18.4106C37.5264 18.5291 37.6107 18.6772 37.6973 18.855L39.4199 22.0884C39.5202 22.2843 39.6182 22.478 39.7139 22.6694C39.8141 22.8563 39.9098 23.0454 40.001 23.2368C40.0921 23.4237 40.181 23.6082 40.2676 23.7905C40.3542 23.9728 40.4385 24.1551 40.5205 24.3374H40.5273C40.5137 24.0184 40.5023 23.6857 40.4932 23.3394C40.4886 22.993 40.4863 22.6626 40.4863 22.3481V18.1987C40.4863 18.1532 40.5 18.1121 40.5273 18.0757C40.5547 18.0392 40.6003 18.0073 40.6641 17.98C40.7279 17.9526 40.8122 17.9344 40.917 17.9253C41.0218 17.9116 41.1562 17.9048 41.3203 17.9048C41.4753 17.9048 41.6051 17.9116 41.71 17.9253C41.8148 17.9344 41.8945 17.9526 41.9492 17.98C42.0085 18.0073 42.0495 18.0392 42.0723 18.0757C42.0951 18.1121 42.1064 18.1532 42.1064 18.1987V26.1489ZM49.5713 23.3188C49.5713 23.5285 49.5234 23.6834 49.4277 23.7837C49.3366 23.884 49.209 23.9341 49.0449 23.9341H45.333C45.333 24.1938 45.3626 24.4308 45.4219 24.645C45.4857 24.8547 45.5837 25.0347 45.7158 25.1851C45.8525 25.3309 46.0257 25.4425 46.2354 25.52C46.4495 25.5975 46.7048 25.6362 47.001 25.6362C47.3018 25.6362 47.5661 25.6157 47.7939 25.5747C48.0218 25.5291 48.2178 25.4813 48.3818 25.4312C48.5505 25.3765 48.6895 25.3286 48.7988 25.2876C48.9082 25.242 48.9971 25.2192 49.0654 25.2192C49.1064 25.2192 49.1406 25.2284 49.168 25.2466C49.1953 25.2603 49.2181 25.2876 49.2363 25.3286C49.2546 25.3696 49.266 25.4289 49.2705 25.5063C49.2796 25.5793 49.2842 25.6727 49.2842 25.7866C49.2842 25.8869 49.2819 25.9735 49.2773 26.0464C49.2728 26.1147 49.266 26.174 49.2568 26.2241C49.2477 26.2743 49.234 26.3175 49.2158 26.354C49.1976 26.3859 49.1725 26.4178 49.1406 26.4497C49.1133 26.4816 49.0335 26.5249 48.9014 26.5796C48.7692 26.6343 48.6006 26.689 48.3955 26.7437C48.1904 26.7938 47.9557 26.8371 47.6914 26.8735C47.4271 26.9146 47.1445 26.9351 46.8438 26.9351C46.3014 26.9351 45.8252 26.8667 45.415 26.73C45.0094 26.5933 44.6699 26.3859 44.3965 26.1079C44.123 25.8299 43.918 25.479 43.7812 25.0552C43.6491 24.6313 43.583 24.1346 43.583 23.5649C43.583 23.0226 43.6536 22.535 43.7949 22.1021C43.9362 21.6646 44.1413 21.2954 44.4102 20.9946C44.679 20.6893 45.0049 20.4569 45.3877 20.2974C45.7751 20.1379 46.2103 20.0581 46.6934 20.0581C47.2038 20.0581 47.639 20.1333 47.999 20.2837C48.3636 20.4341 48.6621 20.6437 48.8945 20.9126C49.127 21.1769 49.2979 21.4914 49.4072 21.856C49.5166 22.2205 49.5713 22.617 49.5713 23.0454V23.3188ZM47.9033 22.8267C47.917 22.3436 47.819 21.9653 47.6094 21.6919C47.4043 21.4139 47.0853 21.2749 46.6523 21.2749C46.4336 21.2749 46.2422 21.3159 46.0781 21.3979C45.9186 21.48 45.7842 21.5916 45.6748 21.7329C45.57 21.8696 45.488 22.0337 45.4287 22.2251C45.374 22.4119 45.3421 22.6125 45.333 22.8267H47.9033ZM60.2559 20.4341C60.2559 20.4842 60.249 20.5457 60.2354 20.6187C60.2217 20.6916 60.1966 20.7964 60.1602 20.9331L58.5332 26.4497C58.5104 26.5272 58.4808 26.591 58.4443 26.6411C58.4079 26.6867 58.3509 26.7231 58.2734 26.7505C58.2005 26.7778 58.0934 26.7961 57.9521 26.8052C57.8154 26.8143 57.6354 26.8188 57.4121 26.8188C57.1888 26.8188 57.0065 26.812 56.8652 26.7983C56.724 26.7892 56.6123 26.771 56.5303 26.7437C56.4528 26.7163 56.3958 26.6799 56.3594 26.6343C56.3229 26.5841 56.2956 26.5226 56.2773 26.4497L55.252 22.7446L55.2383 22.6831L55.2246 22.7446L54.2812 26.4497C54.263 26.5272 54.2357 26.591 54.1992 26.6411C54.1673 26.6867 54.1104 26.7231 54.0283 26.7505C53.9463 26.7778 53.8346 26.7961 53.6934 26.8052C53.5521 26.8143 53.3698 26.8188 53.1465 26.8188C52.9186 26.8188 52.734 26.812 52.5928 26.7983C52.4561 26.7892 52.3467 26.771 52.2646 26.7437C52.1872 26.7163 52.1302 26.6799 52.0938 26.6343C52.0573 26.5841 52.0299 26.5226 52.0117 26.4497L50.3984 20.9331C50.3574 20.8009 50.3301 20.6984 50.3164 20.6255C50.3073 20.548 50.3027 20.4842 50.3027 20.4341C50.3027 20.3885 50.3141 20.3498 50.3369 20.3179C50.3643 20.2814 50.4098 20.2541 50.4736 20.2358C50.542 20.2131 50.6309 20.1971 50.7402 20.188C50.8542 20.1789 50.9954 20.1743 51.1641 20.1743C51.3464 20.1743 51.4945 20.1789 51.6084 20.188C51.7223 20.1971 51.8112 20.2131 51.875 20.2358C51.9388 20.2586 51.9821 20.2905 52.0049 20.3315C52.0322 20.368 52.0527 20.4136 52.0664 20.4683L53.2764 24.9458L53.29 25.0278L53.3037 24.9458L54.4385 20.4683C54.4521 20.4136 54.4727 20.368 54.5 20.3315C54.5319 20.2905 54.5775 20.2586 54.6367 20.2358C54.696 20.2131 54.778 20.1971 54.8828 20.188C54.9922 20.1789 55.1312 20.1743 55.2998 20.1743C55.4684 20.1743 55.6051 20.1812 55.71 20.1948C55.8148 20.2039 55.8968 20.2199 55.9561 20.2427C56.0199 20.2609 56.0632 20.2882 56.0859 20.3247C56.1133 20.3566 56.1338 20.3953 56.1475 20.4409L57.3643 24.9526L57.3848 25.0278L57.3984 24.9458L58.5605 20.4683C58.5697 20.4136 58.5879 20.368 58.6152 20.3315C58.6426 20.2905 58.6882 20.2586 58.752 20.2358C58.8158 20.2131 58.9023 20.1971 59.0117 20.188C59.1211 20.1789 59.2601 20.1743 59.4287 20.1743C59.5973 20.1743 59.734 20.1789 59.8389 20.188C59.9482 20.1971 60.0326 20.2131 60.0918 20.2358C60.1556 20.2541 60.1989 20.2814 60.2217 20.3179C60.2445 20.3498 60.2559 20.3885 60.2559 20.4341ZM71.9795 22.2251C71.9795 23.0363 71.8724 23.7313 71.6582 24.3101C71.4486 24.8843 71.1455 25.3537 70.749 25.7183C70.3525 26.0828 69.8695 26.3517 69.2998 26.5249C68.7347 26.6935 68.0602 26.7778 67.2764 26.7778H65.1641C65.0137 26.7778 64.8861 26.7345 64.7812 26.6479C64.681 26.5568 64.6309 26.411 64.6309 26.2104V18.4995C64.6309 18.299 64.681 18.1554 64.7812 18.0688C64.8861 17.9777 65.0137 17.9321 65.1641 17.9321H67.4336C68.222 17.9321 68.8896 18.0256 69.4365 18.2124C69.988 18.3947 70.4505 18.6681 70.8242 19.0327C71.2025 19.3927 71.4896 19.8394 71.6855 20.3726C71.8815 20.9058 71.9795 21.5233 71.9795 22.2251ZM70.1201 22.2866C70.1201 21.8674 70.07 21.4777 69.9697 21.1177C69.874 20.7576 69.7168 20.4455 69.498 20.1812C69.2839 19.9168 69.0059 19.7118 68.6641 19.5659C68.3268 19.4155 67.8825 19.3403 67.3311 19.3403H66.4219V25.356H67.3584C67.8506 25.356 68.2653 25.2922 68.6025 25.1646C68.9398 25.0369 69.2201 24.8455 69.4434 24.5903C69.6712 24.3306 69.8398 24.0093 69.9492 23.6265C70.0632 23.2437 70.1201 22.797 70.1201 22.2866ZM78.9932 23.3188C78.9932 23.5285 78.9453 23.6834 78.8496 23.7837C78.7585 23.884 78.6309 23.9341 78.4668 23.9341H74.7549C74.7549 24.1938 74.7845 24.4308 74.8438 24.645C74.9076 24.8547 75.0055 25.0347 75.1377 25.1851C75.2744 25.3309 75.4476 25.4425 75.6572 25.52C75.8714 25.5975 76.1266 25.6362 76.4229 25.6362C76.7236 25.6362 76.988 25.6157 77.2158 25.5747C77.4437 25.5291 77.6396 25.4813 77.8037 25.4312C77.9723 25.3765 78.1113 25.3286 78.2207 25.2876C78.3301 25.242 78.4189 25.2192 78.4873 25.2192C78.5283 25.2192 78.5625 25.2284 78.5898 25.2466C78.6172 25.2603 78.64 25.2876 78.6582 25.3286C78.6764 25.3696 78.6878 25.4289 78.6924 25.5063C78.7015 25.5793 78.7061 25.6727 78.7061 25.7866C78.7061 25.8869 78.7038 25.9735 78.6992 26.0464C78.6947 26.1147 78.6878 26.174 78.6787 26.2241C78.6696 26.2743 78.6559 26.3175 78.6377 26.354C78.6195 26.3859 78.5944 26.4178 78.5625 26.4497C78.5352 26.4816 78.4554 26.5249 78.3232 26.5796C78.1911 26.6343 78.0225 26.689 77.8174 26.7437C77.6123 26.7938 77.3776 26.8371 77.1133 26.8735C76.849 26.9146 76.5664 26.9351 76.2656 26.9351C75.7233 26.9351 75.2471 26.8667 74.8369 26.73C74.4313 26.5933 74.0918 26.3859 73.8184 26.1079C73.5449 25.8299 73.3398 25.479 73.2031 25.0552C73.071 24.6313 73.0049 24.1346 73.0049 23.5649C73.0049 23.0226 73.0755 22.535 73.2168 22.1021C73.3581 21.6646 73.5632 21.2954 73.832 20.9946C74.1009 20.6893 74.4268 20.4569 74.8096 20.2974C75.1969 20.1379 75.6322 20.0581 76.1152 20.0581C76.6257 20.0581 77.0609 20.1333 77.4209 20.2837C77.7855 20.4341 78.084 20.6437 78.3164 20.9126C78.5488 21.1769 78.7197 21.4914 78.8291 21.856C78.9385 22.2205 78.9932 22.617 78.9932 23.0454V23.3188ZM77.3252 22.8267C77.3389 22.3436 77.2409 21.9653 77.0312 21.6919C76.8262 21.4139 76.5072 21.2749 76.0742 21.2749C75.8555 21.2749 75.6641 21.3159 75.5 21.3979C75.3405 21.48 75.2061 21.5916 75.0967 21.7329C74.9919 21.8696 74.9098 22.0337 74.8506 22.2251C74.7959 22.4119 74.764 22.6125 74.7549 22.8267H77.3252ZM85.959 20.4409C85.959 20.4637 85.9567 20.491 85.9521 20.5229C85.9521 20.5549 85.9476 20.5913 85.9385 20.6323C85.9339 20.6688 85.9248 20.7121 85.9111 20.7622C85.902 20.8123 85.8883 20.8693 85.8701 20.9331L84.0381 26.4497C84.0153 26.5272 83.9834 26.591 83.9424 26.6411C83.9059 26.6867 83.8421 26.7231 83.751 26.7505C83.6644 26.7778 83.5436 26.7961 83.3887 26.8052C83.2383 26.8143 83.04 26.8188 82.7939 26.8188C82.5524 26.8188 82.3542 26.812 82.1992 26.7983C82.0488 26.7892 81.9303 26.771 81.8438 26.7437C81.7572 26.7163 81.6934 26.6799 81.6523 26.6343C81.6159 26.5841 81.5863 26.5226 81.5635 26.4497L79.7314 20.9331C79.7041 20.842 79.6813 20.7599 79.6631 20.687C79.6494 20.6141 79.6403 20.5617 79.6357 20.5298C79.6357 20.4979 79.6357 20.4683 79.6357 20.4409C79.6357 20.3953 79.6471 20.3566 79.6699 20.3247C79.6973 20.2882 79.7428 20.2586 79.8066 20.2358C79.8704 20.2131 79.957 20.1971 80.0664 20.188C80.1803 20.1789 80.3216 20.1743 80.4902 20.1743C80.6771 20.1743 80.8275 20.1812 80.9414 20.1948C81.0553 20.2039 81.1442 20.2199 81.208 20.2427C81.2764 20.2609 81.3242 20.2905 81.3516 20.3315C81.3789 20.368 81.4017 20.4136 81.4199 20.4683L82.8076 24.9458L82.8486 25.1167L82.8896 24.9458L84.2568 20.4683C84.2705 20.4136 84.291 20.368 84.3184 20.3315C84.3503 20.2905 84.3981 20.2609 84.4619 20.2427C84.5257 20.2199 84.61 20.2039 84.7148 20.1948C84.8242 20.1812 84.9655 20.1743 85.1387 20.1743C85.3073 20.1743 85.444 20.1789 85.5488 20.188C85.6582 20.1971 85.7425 20.2131 85.8018 20.2358C85.861 20.2586 85.902 20.2882 85.9248 20.3247C85.9476 20.3566 85.959 20.3953 85.959 20.4409ZM88.7002 26.5454C88.7002 26.591 88.6865 26.632 88.6592 26.6685C88.6318 26.7004 88.584 26.7277 88.5156 26.7505C88.4518 26.7733 88.3652 26.7892 88.2559 26.7983C88.1465 26.812 88.0075 26.8188 87.8389 26.8188C87.6702 26.8188 87.5312 26.812 87.4219 26.7983C87.3125 26.7892 87.2236 26.7733 87.1553 26.7505C87.0915 26.7277 87.0459 26.7004 87.0186 26.6685C86.9912 26.632 86.9775 26.591 86.9775 26.5454V20.4614C86.9775 20.4159 86.9912 20.3771 87.0186 20.3452C87.0459 20.3088 87.0915 20.2791 87.1553 20.2563C87.2236 20.229 87.3125 20.2085 87.4219 20.1948C87.5312 20.1812 87.6702 20.1743 87.8389 20.1743C88.0075 20.1743 88.1465 20.1812 88.2559 20.1948C88.3652 20.2085 88.4518 20.229 88.5156 20.2563C88.584 20.2791 88.6318 20.3088 88.6592 20.3452C88.6865 20.3771 88.7002 20.4159 88.7002 20.4614V26.5454ZM88.8301 18.3833C88.8301 18.7297 88.7594 18.9689 88.6182 19.1011C88.4769 19.2332 88.2148 19.2993 87.832 19.2993C87.4447 19.2993 87.1826 19.2355 87.0459 19.1079C86.9137 18.9803 86.8477 18.7502 86.8477 18.4175C86.8477 18.0711 86.916 17.8319 87.0527 17.6997C87.194 17.563 87.4583 17.4946 87.8457 17.4946C88.2285 17.4946 88.4883 17.5607 88.625 17.6929C88.7617 17.8205 88.8301 18.0506 88.8301 18.3833ZM95.0371 25.5747C95.0371 25.6932 95.0326 25.7935 95.0234 25.8755C95.0189 25.953 95.0098 26.019 94.9961 26.0737C94.987 26.1284 94.9733 26.174 94.9551 26.2104C94.9414 26.2424 94.9072 26.2856 94.8525 26.3403C94.7979 26.3905 94.7044 26.4543 94.5723 26.5317C94.4401 26.6047 94.2897 26.6707 94.1211 26.73C93.9525 26.7892 93.7679 26.8371 93.5674 26.8735C93.3714 26.91 93.1686 26.9282 92.959 26.9282C92.4896 26.9282 92.0726 26.8553 91.708 26.7095C91.348 26.5636 91.0449 26.3494 90.7988 26.0669C90.5527 25.7798 90.3659 25.4312 90.2383 25.021C90.1152 24.6108 90.0537 24.1414 90.0537 23.6128C90.0537 23.0021 90.1289 22.4757 90.2793 22.0337C90.4342 21.5871 90.6484 21.2179 90.9219 20.9263C91.1953 20.6346 91.5189 20.4181 91.8926 20.2769C92.2663 20.1356 92.6764 20.0649 93.123 20.0649C93.3053 20.0649 93.4831 20.0809 93.6562 20.1128C93.834 20.1447 93.998 20.188 94.1484 20.2427C94.3034 20.2974 94.4401 20.3589 94.5586 20.4272C94.6816 20.4956 94.7682 20.5549 94.8184 20.605C94.8685 20.6551 94.9027 20.6984 94.9209 20.7349C94.9437 20.7668 94.9596 20.8101 94.9688 20.8647C94.9824 20.9194 94.9915 20.9878 94.9961 21.0698C95.0052 21.1473 95.0098 21.243 95.0098 21.3569C95.0098 21.6213 94.987 21.8081 94.9414 21.9175C94.8958 22.0223 94.8366 22.0747 94.7637 22.0747C94.6862 22.0747 94.6042 22.0428 94.5176 21.979C94.431 21.9152 94.3285 21.8446 94.21 21.7671C94.0915 21.6896 93.9502 21.619 93.7861 21.5552C93.6221 21.4914 93.4261 21.4595 93.1982 21.4595C92.7516 21.4595 92.4098 21.6326 92.1729 21.979C91.9359 22.3208 91.8174 22.8244 91.8174 23.4897C91.8174 23.8179 91.847 24.1073 91.9062 24.3579C91.9655 24.6086 92.0521 24.8182 92.166 24.9868C92.2845 25.1554 92.4303 25.283 92.6035 25.3696C92.7812 25.4517 92.9863 25.4927 93.2188 25.4927C93.4557 25.4927 93.6585 25.4585 93.8271 25.3901C94.0003 25.3172 94.1507 25.2375 94.2783 25.1509C94.4059 25.0643 94.513 24.9868 94.5996 24.9185C94.6862 24.8455 94.7591 24.8091 94.8184 24.8091C94.8594 24.8091 94.8936 24.8205 94.9209 24.8433C94.9482 24.866 94.9688 24.9093 94.9824 24.9731C95.0007 25.0324 95.0143 25.1099 95.0234 25.2056C95.0326 25.3013 95.0371 25.4243 95.0371 25.5747ZM101.921 23.3188C101.921 23.5285 101.873 23.6834 101.777 23.7837C101.686 23.884 101.559 23.9341 101.395 23.9341H97.6826C97.6826 24.1938 97.7122 24.4308 97.7715 24.645C97.8353 24.8547 97.9333 25.0347 98.0654 25.1851C98.2021 25.3309 98.3753 25.4425 98.585 25.52C98.7992 25.5975 99.0544 25.6362 99.3506 25.6362C99.6514 25.6362 99.9157 25.6157 100.144 25.5747C100.371 25.5291 100.567 25.4813 100.731 25.4312C100.9 25.3765 101.039 25.3286 101.148 25.2876C101.258 25.242 101.347 25.2192 101.415 25.2192C101.456 25.2192 101.49 25.2284 101.518 25.2466C101.545 25.2603 101.568 25.2876 101.586 25.3286C101.604 25.3696 101.616 25.4289 101.62 25.5063C101.629 25.5793 101.634 25.6727 101.634 25.7866C101.634 25.8869 101.632 25.9735 101.627 26.0464C101.622 26.1147 101.616 26.174 101.606 26.2241C101.597 26.2743 101.584 26.3175 101.565 26.354C101.547 26.3859 101.522 26.4178 101.49 26.4497C101.463 26.4816 101.383 26.5249 101.251 26.5796C101.119 26.6343 100.95 26.689 100.745 26.7437C100.54 26.7938 100.305 26.8371 100.041 26.8735C99.7767 26.9146 99.4941 26.9351 99.1934 26.9351C98.651 26.9351 98.1748 26.8667 97.7646 26.73C97.359 26.5933 97.0195 26.3859 96.7461 26.1079C96.4727 25.8299 96.2676 25.479 96.1309 25.0552C95.9987 24.6313 95.9326 24.1346 95.9326 23.5649C95.9326 23.0226 96.0033 22.535 96.1445 22.1021C96.2858 21.6646 96.4909 21.2954 96.7598 20.9946C97.0286 20.6893 97.3545 20.4569 97.7373 20.2974C98.1247 20.1379 98.5599 20.0581 99.043 20.0581C99.5534 20.0581 99.9886 20.1333 100.349 20.2837C100.713 20.4341 101.012 20.6437 101.244 20.9126C101.477 21.1769 101.647 21.4914 101.757 21.856C101.866 22.2205 101.921 22.617 101.921 23.0454V23.3188ZM100.253 22.8267C100.267 22.3436 100.169 21.9653 99.959 21.6919C99.7539 21.4139 99.4349 21.2749 99.002 21.2749C98.7832 21.2749 98.5918 21.3159 98.4277 21.3979C98.2682 21.48 98.1338 21.5916 98.0244 21.7329C97.9196 21.8696 97.8376 22.0337 97.7783 22.2251C97.7236 22.4119 97.6917 22.6125 97.6826 22.8267H100.253Z" fill="#765BA7"/>
<path d="M112.242 22.6997C112.242 22.7319 112.238 22.7715 112.229 22.8184C112.22 22.8652 112.204 22.9326 112.181 23.0205L111.135 26.5669C111.12 26.6167 111.101 26.6577 111.078 26.6899C111.054 26.7192 111.018 26.7427 110.968 26.7603C110.921 26.7778 110.852 26.7896 110.761 26.7954C110.673 26.8013 110.558 26.8042 110.414 26.8042C110.271 26.8042 110.153 26.7998 110.063 26.791C109.972 26.7852 109.9 26.7734 109.847 26.7559C109.798 26.7383 109.761 26.7148 109.737 26.6855C109.714 26.6533 109.696 26.6138 109.685 26.5669L109.026 24.1851L109.017 24.1455L109.008 24.1851L108.402 26.5669C108.39 26.6167 108.372 26.6577 108.349 26.6899C108.328 26.7192 108.292 26.7427 108.239 26.7603C108.186 26.7778 108.114 26.7896 108.024 26.7954C107.933 26.8013 107.816 26.8042 107.672 26.8042C107.526 26.8042 107.407 26.7998 107.316 26.791C107.228 26.7852 107.158 26.7734 107.105 26.7559C107.055 26.7383 107.019 26.7148 106.995 26.6855C106.972 26.6533 106.954 26.6138 106.943 26.5669L105.905 23.0205C105.879 22.9355 105.861 22.8696 105.853 22.8228C105.847 22.7729 105.844 22.7319 105.844 22.6997C105.844 22.6704 105.851 22.6455 105.866 22.625C105.883 22.6016 105.913 22.584 105.954 22.5723C105.998 22.5576 106.055 22.5474 106.125 22.5415C106.198 22.5356 106.289 22.5327 106.398 22.5327C106.515 22.5327 106.61 22.5356 106.683 22.5415C106.756 22.5474 106.814 22.5576 106.855 22.5723C106.896 22.5869 106.923 22.6074 106.938 22.6338C106.956 22.6572 106.969 22.6865 106.978 22.7217L107.756 25.6001L107.764 25.6528L107.773 25.6001L108.503 22.7217C108.511 22.6865 108.525 22.6572 108.542 22.6338C108.563 22.6074 108.592 22.5869 108.63 22.5723C108.668 22.5576 108.721 22.5474 108.788 22.5415C108.859 22.5356 108.948 22.5327 109.056 22.5327C109.165 22.5327 109.253 22.5371 109.32 22.5459C109.387 22.5518 109.44 22.562 109.478 22.5767C109.519 22.5884 109.547 22.606 109.562 22.6294C109.579 22.6499 109.592 22.6748 109.601 22.7041L110.383 25.6045L110.397 25.6528L110.405 25.6001L111.152 22.7217C111.158 22.6865 111.17 22.6572 111.188 22.6338C111.205 22.6074 111.235 22.5869 111.276 22.5723C111.317 22.5576 111.372 22.5474 111.443 22.5415C111.513 22.5356 111.602 22.5327 111.711 22.5327C111.819 22.5327 111.907 22.5356 111.974 22.5415C112.045 22.5474 112.099 22.5576 112.137 22.5723C112.178 22.584 112.206 22.6016 112.22 22.625C112.235 22.6455 112.242 22.6704 112.242 22.6997ZM114.057 26.6284C114.057 26.6577 114.048 26.6841 114.031 26.7075C114.013 26.728 113.983 26.7456 113.939 26.7603C113.898 26.7749 113.842 26.7852 113.772 26.791C113.701 26.7998 113.612 26.8042 113.504 26.8042C113.395 26.8042 113.306 26.7998 113.235 26.791C113.165 26.7852 113.108 26.7749 113.064 26.7603C113.023 26.7456 112.994 26.728 112.976 26.7075C112.959 26.6841 112.95 26.6577 112.95 26.6284V22.7173C112.95 22.688 112.959 22.6631 112.976 22.6426C112.994 22.6191 113.023 22.6001 113.064 22.5854C113.108 22.5679 113.165 22.5547 113.235 22.5459C113.306 22.5371 113.395 22.5327 113.504 22.5327C113.612 22.5327 113.701 22.5371 113.772 22.5459C113.842 22.5547 113.898 22.5679 113.939 22.5854C113.983 22.6001 114.013 22.6191 114.031 22.6426C114.048 22.6631 114.057 22.688 114.057 22.7173V26.6284ZM114.141 21.3813C114.141 21.604 114.095 21.7578 114.005 21.8428C113.914 21.9277 113.745 21.9702 113.499 21.9702C113.25 21.9702 113.082 21.9292 112.994 21.8472C112.909 21.7651 112.866 21.6172 112.866 21.4033C112.866 21.1807 112.91 21.0269 112.998 20.9419C113.089 20.854 113.259 20.8101 113.508 20.8101C113.754 20.8101 113.921 20.8525 114.009 20.9375C114.097 21.0195 114.141 21.1675 114.141 21.3813ZM117.485 26.2417C117.485 26.3706 117.476 26.4702 117.459 26.5405C117.444 26.6079 117.423 26.6562 117.397 26.6855C117.371 26.7119 117.331 26.7368 117.278 26.7603C117.229 26.7808 117.169 26.7983 117.098 26.813C117.031 26.8306 116.956 26.8438 116.874 26.8525C116.795 26.8613 116.714 26.8657 116.632 26.8657C116.413 26.8657 116.222 26.8379 116.061 26.7822C115.9 26.7266 115.767 26.6416 115.661 26.5273C115.556 26.4102 115.478 26.2637 115.428 26.0879C115.379 25.9121 115.354 25.7041 115.354 25.4639V23.4556H114.883C114.828 23.4556 114.785 23.4219 114.756 23.3545C114.727 23.2842 114.712 23.1685 114.712 23.0073C114.712 22.9224 114.715 22.8506 114.721 22.792C114.73 22.7334 114.741 22.688 114.756 22.6558C114.771 22.6206 114.788 22.5957 114.809 22.5811C114.832 22.5664 114.859 22.5591 114.888 22.5591H115.354V21.6846C115.354 21.6553 115.361 21.6289 115.376 21.6055C115.393 21.582 115.423 21.563 115.464 21.5483C115.507 21.5308 115.565 21.519 115.635 21.5132C115.708 21.5044 115.798 21.5 115.903 21.5C116.011 21.5 116.101 21.5044 116.171 21.5132C116.244 21.519 116.301 21.5308 116.342 21.5483C116.383 21.563 116.413 21.582 116.43 21.6055C116.448 21.6289 116.457 21.6553 116.457 21.6846V22.5591H117.309C117.339 22.5591 117.363 22.5664 117.384 22.5811C117.407 22.5957 117.426 22.6206 117.441 22.6558C117.456 22.688 117.466 22.7334 117.472 22.792C117.481 22.8506 117.485 22.9224 117.485 23.0073C117.485 23.1685 117.47 23.2842 117.441 23.3545C117.412 23.4219 117.369 23.4556 117.314 23.4556H116.457V25.2969C116.457 25.5107 116.49 25.6719 116.558 25.7803C116.625 25.8857 116.745 25.9385 116.918 25.9385C116.977 25.9385 117.029 25.9341 117.076 25.9253C117.123 25.9136 117.164 25.9019 117.199 25.8901C117.237 25.8755 117.268 25.8638 117.292 25.855C117.318 25.8433 117.341 25.8374 117.362 25.8374C117.38 25.8374 117.396 25.8433 117.41 25.855C117.428 25.8638 117.441 25.8843 117.45 25.9165C117.459 25.9458 117.466 25.9868 117.472 26.0396C117.481 26.0923 117.485 26.1597 117.485 26.2417ZM122.029 26.6284C122.029 26.6577 122.02 26.6841 122.003 26.7075C121.985 26.728 121.956 26.7456 121.915 26.7603C121.874 26.7749 121.817 26.7852 121.743 26.791C121.673 26.7998 121.585 26.8042 121.48 26.8042C121.371 26.8042 121.28 26.7998 121.207 26.791C121.137 26.7852 121.081 26.7749 121.04 26.7603C120.999 26.7456 120.97 26.728 120.952 26.7075C120.935 26.6841 120.926 26.6577 120.926 26.6284V24.3916C120.926 24.2012 120.911 24.0518 120.882 23.9434C120.856 23.835 120.816 23.7427 120.763 23.6665C120.711 23.5874 120.642 23.5273 120.557 23.4863C120.475 23.4424 120.378 23.4204 120.267 23.4204C120.126 23.4204 119.984 23.4717 119.84 23.5742C119.697 23.6768 119.548 23.8262 119.392 24.0225V26.6284C119.392 26.6577 119.383 26.6841 119.366 26.7075C119.348 26.728 119.318 26.7456 119.274 26.7603C119.233 26.7749 119.177 26.7852 119.107 26.791C119.036 26.7998 118.947 26.8042 118.839 26.8042C118.73 26.8042 118.641 26.7998 118.57 26.791C118.5 26.7852 118.443 26.7749 118.399 26.7603C118.358 26.7456 118.329 26.728 118.311 26.7075C118.294 26.6841 118.285 26.6577 118.285 26.6284V20.8496C118.285 20.8203 118.294 20.7939 118.311 20.7705C118.329 20.7471 118.358 20.728 118.399 20.7134C118.443 20.6958 118.5 20.6826 118.57 20.6738C118.641 20.665 118.73 20.6606 118.839 20.6606C118.947 20.6606 119.036 20.665 119.107 20.6738C119.177 20.6826 119.233 20.6958 119.274 20.7134C119.318 20.728 119.348 20.7471 119.366 20.7705C119.383 20.7939 119.392 20.8203 119.392 20.8496V23.0161C119.583 22.8286 119.776 22.6895 119.972 22.5986C120.172 22.5049 120.378 22.458 120.592 22.458C120.859 22.458 121.083 22.502 121.264 22.5898C121.449 22.6777 121.597 22.7979 121.708 22.9502C121.822 23.1025 121.904 23.2812 121.954 23.4863C122.004 23.6885 122.029 23.9346 122.029 24.2246V26.6284ZM127.43 26.7778L126.955 28.1665C126.929 28.2397 126.857 28.2925 126.74 28.3247C126.623 28.3569 126.451 28.373 126.226 28.373C126.109 28.373 126.015 28.3672 125.944 28.3555C125.874 28.3467 125.821 28.3306 125.786 28.3071C125.751 28.2837 125.732 28.2544 125.729 28.2192C125.726 28.1841 125.735 28.1416 125.756 28.0918L126.278 26.7778C126.24 26.7603 126.205 26.7339 126.173 26.6987C126.144 26.6606 126.122 26.6211 126.107 26.5801L124.758 22.9766C124.72 22.874 124.701 22.7964 124.701 22.7437C124.701 22.688 124.718 22.6455 124.754 22.6162C124.789 22.584 124.847 22.562 124.929 22.5503C125.014 22.5386 125.126 22.5327 125.263 22.5327C125.389 22.5327 125.489 22.5356 125.562 22.5415C125.635 22.5444 125.693 22.5547 125.734 22.5723C125.775 22.5898 125.805 22.6177 125.826 22.6558C125.846 22.6909 125.867 22.7422 125.887 22.8096L126.81 25.4331H126.823L127.667 22.7568C127.685 22.6807 127.707 22.6309 127.733 22.6074C127.762 22.5811 127.809 22.562 127.874 22.5503C127.938 22.5386 128.051 22.5327 128.212 22.5327C128.338 22.5327 128.442 22.5386 128.524 22.5503C128.609 22.562 128.671 22.584 128.709 22.6162C128.75 22.6484 128.77 22.6924 128.77 22.748C128.77 22.8008 128.758 22.8638 128.735 22.937L127.43 26.7778ZM133.288 24.6289C133.288 24.9629 133.244 25.2676 133.156 25.543C133.068 25.8184 132.935 26.0557 132.756 26.2549C132.577 26.4541 132.353 26.6079 132.084 26.7163C131.814 26.8247 131.499 26.8789 131.139 26.8789C130.79 26.8789 130.487 26.8306 130.229 26.7339C129.971 26.6372 129.757 26.4966 129.588 26.312C129.418 26.1274 129.292 25.9004 129.21 25.6309C129.128 25.3613 129.087 25.0537 129.087 24.708C129.087 24.374 129.131 24.0693 129.218 23.7939C129.309 23.5156 129.444 23.2783 129.623 23.082C129.801 22.8828 130.024 22.729 130.291 22.6206C130.56 22.5122 130.875 22.458 131.235 22.458C131.587 22.458 131.892 22.5063 132.15 22.603C132.407 22.6968 132.62 22.8359 132.787 23.0205C132.957 23.2051 133.083 23.4321 133.165 23.7017C133.247 23.9712 133.288 24.2803 133.288 24.6289ZM132.15 24.6729C132.15 24.4795 132.133 24.3022 132.101 24.1411C132.072 23.9771 132.021 23.835 131.947 23.7148C131.874 23.5947 131.776 23.501 131.653 23.4336C131.533 23.3662 131.381 23.3325 131.196 23.3325C131.032 23.3325 130.888 23.3633 130.765 23.4248C130.642 23.4834 130.541 23.5713 130.462 23.6885C130.383 23.8027 130.323 23.9419 130.282 24.106C130.244 24.2671 130.225 24.4517 130.225 24.6597C130.225 24.853 130.241 25.0317 130.273 25.1958C130.305 25.3569 130.357 25.4976 130.427 25.6177C130.5 25.7378 130.598 25.8315 130.721 25.8989C130.844 25.9634 130.997 25.9956 131.178 25.9956C131.345 25.9956 131.49 25.9663 131.613 25.9077C131.736 25.8462 131.838 25.7583 131.917 25.644C131.996 25.5298 132.054 25.3921 132.092 25.231C132.131 25.0669 132.15 24.8809 132.15 24.6729ZM137.884 26.6284C137.884 26.6577 137.877 26.6841 137.862 26.7075C137.848 26.728 137.821 26.7456 137.783 26.7603C137.748 26.7749 137.7 26.7852 137.638 26.791C137.58 26.7998 137.505 26.8042 137.414 26.8042C137.318 26.8042 137.238 26.7998 137.177 26.791C137.118 26.7852 137.071 26.7749 137.036 26.7603C137.001 26.7456 136.976 26.728 136.962 26.7075C136.947 26.6841 136.94 26.6577 136.94 26.6284V26.1758C136.723 26.4102 136.502 26.5859 136.276 26.7031C136.053 26.8203 135.822 26.8789 135.582 26.8789C135.312 26.8789 135.085 26.835 134.901 26.7471C134.719 26.6592 134.571 26.5391 134.457 26.3867C134.345 26.2344 134.265 26.0586 134.215 25.8594C134.168 25.6572 134.145 25.4067 134.145 25.1079V22.7085C134.145 22.6792 134.152 22.6543 134.167 22.6338C134.184 22.6104 134.214 22.5913 134.255 22.5767C134.298 22.562 134.356 22.5518 134.426 22.5459C134.499 22.5371 134.589 22.5327 134.694 22.5327C134.802 22.5327 134.892 22.5371 134.962 22.5459C135.032 22.5518 135.088 22.562 135.129 22.5767C135.173 22.5913 135.204 22.6104 135.221 22.6338C135.239 22.6543 135.248 22.6792 135.248 22.7085V24.9233C135.248 25.1284 135.261 25.2852 135.287 25.3936C135.314 25.502 135.353 25.5957 135.406 25.6748C135.462 25.751 135.53 25.811 135.612 25.855C135.697 25.896 135.796 25.9165 135.907 25.9165C136.048 25.9165 136.188 25.8652 136.329 25.7627C136.472 25.6602 136.625 25.5107 136.786 25.3145V22.7085C136.786 22.6792 136.793 22.6543 136.808 22.6338C136.825 22.6104 136.855 22.5913 136.896 22.5767C136.94 22.562 136.997 22.5518 137.067 22.5459C137.137 22.5371 137.227 22.5327 137.335 22.5327C137.443 22.5327 137.533 22.5371 137.603 22.5459C137.673 22.5518 137.729 22.562 137.77 22.5767C137.811 22.5913 137.84 22.6104 137.858 22.6338C137.876 22.6543 137.884 22.6792 137.884 22.7085V26.6284ZM141.519 23.0732C141.519 23.1787 141.516 23.2651 141.51 23.3325C141.504 23.3999 141.495 23.4526 141.484 23.4907C141.472 23.5288 141.456 23.5552 141.435 23.5698C141.418 23.5845 141.394 23.5918 141.365 23.5918C141.341 23.5918 141.315 23.5874 141.286 23.5786C141.256 23.5669 141.223 23.5552 141.185 23.5435C141.15 23.5317 141.11 23.5215 141.066 23.5127C141.022 23.501 140.974 23.4951 140.921 23.4951C140.86 23.4951 140.798 23.5083 140.736 23.5347C140.675 23.5581 140.61 23.5962 140.543 23.6489C140.479 23.7017 140.41 23.772 140.337 23.8599C140.266 23.9478 140.19 24.0562 140.108 24.1851V26.6284C140.108 26.6577 140.099 26.6841 140.082 26.7075C140.064 26.728 140.033 26.7456 139.989 26.7603C139.948 26.7749 139.893 26.7852 139.822 26.791C139.752 26.7998 139.663 26.8042 139.554 26.8042C139.446 26.8042 139.357 26.7998 139.286 26.791C139.216 26.7852 139.159 26.7749 139.115 26.7603C139.074 26.7456 139.045 26.728 139.027 26.7075C139.009 26.6841 139.001 26.6577 139.001 26.6284V22.7085C139.001 22.6792 139.008 22.6543 139.023 22.6338C139.037 22.6104 139.064 22.5913 139.102 22.5767C139.14 22.562 139.188 22.5518 139.247 22.5459C139.308 22.5371 139.384 22.5327 139.475 22.5327C139.569 22.5327 139.647 22.5371 139.708 22.5459C139.77 22.5518 139.817 22.562 139.849 22.5767C139.884 22.5913 139.909 22.6104 139.923 22.6338C139.938 22.6543 139.945 22.6792 139.945 22.7085V23.1963C140.048 23.0498 140.145 22.9297 140.235 22.8359C140.326 22.7393 140.413 22.6631 140.495 22.6074C140.577 22.5518 140.659 22.5137 140.741 22.4932C140.823 22.4697 140.905 22.458 140.987 22.458C141.025 22.458 141.066 22.4609 141.11 22.4668C141.154 22.4697 141.199 22.4771 141.246 22.4888C141.293 22.4976 141.334 22.5093 141.369 22.5239C141.404 22.5356 141.429 22.5488 141.444 22.5635C141.462 22.5781 141.473 22.5942 141.479 22.6118C141.488 22.6294 141.495 22.6543 141.501 22.6865C141.507 22.7158 141.511 22.7612 141.514 22.8228C141.517 22.8843 141.519 22.9678 141.519 23.0732Z" fill="#090909"/>
<path d="M41.7866 41.542C41.7866 42.0843 41.7069 42.5697 41.5474 42.998C41.3879 43.4264 41.1532 43.7887 40.8433 44.085C40.5334 44.3812 40.1506 44.6068 39.6948 44.7617C39.2391 44.9167 38.715 44.9941 38.1226 44.9941C37.5666 44.9941 37.0675 44.9258 36.6255 44.7891C36.1834 44.6478 35.8097 44.4359 35.5044 44.1533C35.1991 43.8708 34.9644 43.5199 34.8003 43.1006C34.6408 42.6768 34.561 42.1823 34.561 41.6172V36.2373C34.561 36.1917 34.5747 36.1507 34.6021 36.1143C34.6294 36.0778 34.6772 36.0482 34.7456 36.0254C34.8185 36.0026 34.9119 35.9844 35.0259 35.9707C35.1398 35.957 35.2856 35.9502 35.4634 35.9502C35.6366 35.9502 35.7801 35.957 35.894 35.9707C36.008 35.9844 36.0991 36.0026 36.1675 36.0254C36.2358 36.0482 36.2837 36.0778 36.311 36.1143C36.3429 36.1507 36.3589 36.1917 36.3589 36.2373V41.46C36.3589 41.8109 36.4022 42.1162 36.4888 42.376C36.5754 42.6312 36.6984 42.8431 36.8579 43.0117C37.022 43.1803 37.2157 43.3079 37.439 43.3945C37.6668 43.4766 37.9198 43.5176 38.1978 43.5176C38.4803 43.5176 38.7332 43.4743 38.9565 43.3877C39.1799 43.3011 39.369 43.1758 39.5239 43.0117C39.6789 42.8431 39.7974 42.638 39.8794 42.3965C39.966 42.1504 40.0093 41.8724 40.0093 41.5625V36.2373C40.0093 36.1917 40.0229 36.1507 40.0503 36.1143C40.0776 36.0778 40.1255 36.0482 40.1938 36.0254C40.2622 36.0026 40.3534 35.9844 40.4673 35.9707C40.5858 35.957 40.7316 35.9502 40.9048 35.9502C41.078 35.9502 41.2192 35.957 41.3286 35.9707C41.4425 35.9844 41.5337 36.0026 41.6021 36.0254C41.6704 36.0482 41.7183 36.0778 41.7456 36.1143C41.7729 36.1507 41.7866 36.1917 41.7866 36.2373V41.542ZM49.436 44.6045C49.436 44.6501 49.4224 44.6911 49.395 44.7275C49.3677 44.7594 49.3221 44.7868 49.2583 44.8096C49.1945 44.8324 49.1056 44.8483 48.9917 44.8574C48.8823 44.8711 48.7456 44.8779 48.5815 44.8779C48.4129 44.8779 48.2716 44.8711 48.1577 44.8574C48.0483 44.8483 47.9618 44.8324 47.8979 44.8096C47.8341 44.7868 47.7886 44.7594 47.7612 44.7275C47.7339 44.6911 47.7202 44.6501 47.7202 44.6045V41.125C47.7202 40.8288 47.6974 40.5964 47.6519 40.4277C47.6108 40.2591 47.5493 40.1156 47.4673 39.9971C47.3853 39.874 47.2782 39.7806 47.146 39.7168C47.0184 39.6484 46.868 39.6143 46.6948 39.6143C46.4761 39.6143 46.255 39.694 46.0317 39.8535C45.8084 40.013 45.576 40.2454 45.3345 40.5508V44.6045C45.3345 44.6501 45.3208 44.6911 45.2935 44.7275C45.2661 44.7594 45.2183 44.7868 45.1499 44.8096C45.0861 44.8324 44.9995 44.8483 44.8901 44.8574C44.7808 44.8711 44.6418 44.8779 44.4731 44.8779C44.3045 44.8779 44.1655 44.8711 44.0562 44.8574C43.9468 44.8483 43.8579 44.8324 43.7896 44.8096C43.7257 44.7868 43.6802 44.7594 43.6528 44.7275C43.6255 44.6911 43.6118 44.6501 43.6118 44.6045V38.5068C43.6118 38.4613 43.6232 38.4225 43.646 38.3906C43.6688 38.3542 43.7098 38.3245 43.769 38.3018C43.8283 38.279 43.9035 38.263 43.9946 38.2539C44.0903 38.2402 44.2088 38.2334 44.3501 38.2334C44.4959 38.2334 44.6167 38.2402 44.7124 38.2539C44.8081 38.263 44.881 38.279 44.9312 38.3018C44.9858 38.3245 45.0246 38.3542 45.0474 38.3906C45.0701 38.4225 45.0815 38.4613 45.0815 38.5068V39.2109C45.4188 38.8464 45.7606 38.5729 46.1069 38.3906C46.4578 38.2083 46.8224 38.1172 47.2007 38.1172C47.6154 38.1172 47.964 38.1855 48.2466 38.3223C48.5337 38.459 48.7638 38.6458 48.937 38.8828C49.1147 39.1152 49.2424 39.3887 49.3198 39.7031C49.3973 40.0176 49.436 40.3958 49.436 40.8379V44.6045ZM52.854 44.6045C52.854 44.6501 52.8403 44.6911 52.813 44.7275C52.7856 44.7594 52.7378 44.7868 52.6694 44.8096C52.6056 44.8324 52.519 44.8483 52.4097 44.8574C52.3003 44.8711 52.1613 44.8779 51.9927 44.8779C51.8241 44.8779 51.6851 44.8711 51.5757 44.8574C51.4663 44.8483 51.3774 44.8324 51.3091 44.8096C51.2453 44.7868 51.1997 44.7594 51.1724 44.7275C51.145 44.6911 51.1313 44.6501 51.1313 44.6045V35.6152C51.1313 35.5697 51.145 35.5286 51.1724 35.4922C51.1997 35.4557 51.2453 35.4261 51.3091 35.4033C51.3774 35.376 51.4663 35.3555 51.5757 35.3418C51.6851 35.3281 51.8241 35.3213 51.9927 35.3213C52.1613 35.3213 52.3003 35.3281 52.4097 35.3418C52.519 35.3555 52.6056 35.376 52.6694 35.4033C52.7378 35.4261 52.7856 35.4557 52.813 35.4922C52.8403 35.5286 52.854 35.5697 52.854 35.6152V44.6045ZM56.2993 44.6045C56.2993 44.6501 56.2856 44.6911 56.2583 44.7275C56.231 44.7594 56.1831 44.7868 56.1147 44.8096C56.0509 44.8324 55.9644 44.8483 55.855 44.8574C55.7456 44.8711 55.6066 44.8779 55.438 44.8779C55.2694 44.8779 55.1304 44.8711 55.021 44.8574C54.9116 44.8483 54.8228 44.8324 54.7544 44.8096C54.6906 44.7868 54.645 44.7594 54.6177 44.7275C54.5903 44.6911 54.5767 44.6501 54.5767 44.6045V38.5205C54.5767 38.4749 54.5903 38.4362 54.6177 38.4043C54.645 38.3678 54.6906 38.3382 54.7544 38.3154C54.8228 38.2881 54.9116 38.2676 55.021 38.2539C55.1304 38.2402 55.2694 38.2334 55.438 38.2334C55.6066 38.2334 55.7456 38.2402 55.855 38.2539C55.9644 38.2676 56.0509 38.2881 56.1147 38.3154C56.1831 38.3382 56.231 38.3678 56.2583 38.4043C56.2856 38.4362 56.2993 38.4749 56.2993 38.5205V44.6045ZM56.4292 36.4424C56.4292 36.7887 56.3586 37.028 56.2173 37.1602C56.076 37.2923 55.814 37.3584 55.4312 37.3584C55.0438 37.3584 54.7817 37.2946 54.645 37.167C54.5129 37.0394 54.4468 36.8092 54.4468 36.4766C54.4468 36.1302 54.5151 35.891 54.6519 35.7588C54.7931 35.6221 55.0575 35.5537 55.4448 35.5537C55.8276 35.5537 56.0874 35.6198 56.2241 35.752C56.3608 35.8796 56.4292 36.1097 56.4292 36.4424ZM67.7222 44.6045C67.7222 44.6501 67.7085 44.6911 67.6812 44.7275C67.6538 44.7594 67.6082 44.7868 67.5444 44.8096C67.4806 44.8324 67.394 44.8483 67.2847 44.8574C67.1753 44.8711 67.0363 44.8779 66.8677 44.8779C66.6945 44.8779 66.5532 44.8711 66.4438 44.8574C66.3345 44.8483 66.2456 44.8324 66.1772 44.8096C66.1134 44.7868 66.0679 44.7594 66.0405 44.7275C66.0177 44.6911 66.0063 44.6501 66.0063 44.6045V40.9883C66.0063 40.7832 65.9858 40.5964 65.9448 40.4277C65.9084 40.2591 65.8491 40.1156 65.7671 39.9971C65.6896 39.874 65.5894 39.7806 65.4663 39.7168C65.3478 39.6484 65.2043 39.6143 65.0356 39.6143C64.8306 39.6143 64.6232 39.694 64.4136 39.8535C64.2039 40.013 63.9761 40.2454 63.73 40.5508V44.6045C63.73 44.6501 63.7163 44.6911 63.689 44.7275C63.6616 44.7594 63.6138 44.7868 63.5454 44.8096C63.4816 44.8324 63.395 44.8483 63.2856 44.8574C63.1763 44.8711 63.0396 44.8779 62.8755 44.8779C62.7069 44.8779 62.5679 44.8711 62.4585 44.8574C62.3491 44.8483 62.2603 44.8324 62.1919 44.8096C62.1281 44.7868 62.0825 44.7594 62.0552 44.7275C62.0278 44.6911 62.0142 44.6501 62.0142 44.6045V40.9883C62.0142 40.7832 61.9937 40.5964 61.9526 40.4277C61.9162 40.2591 61.8592 40.1156 61.7817 39.9971C61.7043 39.874 61.604 39.7806 61.481 39.7168C61.3579 39.6484 61.2144 39.6143 61.0503 39.6143C60.8407 39.6143 60.631 39.694 60.4214 39.8535C60.2118 40.013 59.9862 40.2454 59.7446 40.5508V44.6045C59.7446 44.6501 59.731 44.6911 59.7036 44.7275C59.6763 44.7594 59.6284 44.7868 59.5601 44.8096C59.4963 44.8324 59.4097 44.8483 59.3003 44.8574C59.1909 44.8711 59.0519 44.8779 58.8833 44.8779C58.7147 44.8779 58.5757 44.8711 58.4663 44.8574C58.3569 44.8483 58.2681 44.8324 58.1997 44.8096C58.1359 44.7868 58.0903 44.7594 58.063 44.7275C58.0356 44.6911 58.022 44.6501 58.022 44.6045V38.5068C58.022 38.4613 58.0334 38.4225 58.0562 38.3906C58.0789 38.3542 58.12 38.3245 58.1792 38.3018C58.2384 38.279 58.3136 38.263 58.4048 38.2539C58.5005 38.2402 58.619 38.2334 58.7603 38.2334C58.9061 38.2334 59.0269 38.2402 59.1226 38.2539C59.2183 38.263 59.2912 38.279 59.3413 38.3018C59.396 38.3245 59.4347 38.3542 59.4575 38.3906C59.4803 38.4225 59.4917 38.4613 59.4917 38.5068V39.2109C59.8289 38.8464 60.1639 38.5729 60.4966 38.3906C60.8338 38.2083 61.1847 38.1172 61.5493 38.1172C61.8 38.1172 62.0256 38.1445 62.2261 38.1992C62.4266 38.2493 62.6043 38.3245 62.7593 38.4248C62.9188 38.5205 63.0555 38.6367 63.1694 38.7734C63.2834 38.9102 63.3791 39.0628 63.4565 39.2314C63.6388 39.0355 63.8166 38.8669 63.9897 38.7256C64.1675 38.5843 64.3407 38.4704 64.5093 38.3838C64.6825 38.2926 64.8534 38.2266 65.022 38.1855C65.1951 38.14 65.3706 38.1172 65.5483 38.1172C65.9539 38.1172 66.2957 38.1855 66.5737 38.3223C66.8517 38.459 67.075 38.6458 67.2437 38.8828C67.4168 39.1152 67.5399 39.3887 67.6128 39.7031C67.6857 40.0176 67.7222 40.3503 67.7222 40.7012V44.6045ZM71.1333 44.6045C71.1333 44.6501 71.1196 44.6911 71.0923 44.7275C71.0649 44.7594 71.0171 44.7868 70.9487 44.8096C70.8849 44.8324 70.7983 44.8483 70.689 44.8574C70.5796 44.8711 70.4406 44.8779 70.272 44.8779C70.1034 44.8779 69.9644 44.8711 69.855 44.8574C69.7456 44.8483 69.6567 44.8324 69.5884 44.8096C69.5246 44.7868 69.479 44.7594 69.4517 44.7275C69.4243 44.6911 69.4106 44.6501 69.4106 44.6045V38.5205C69.4106 38.4749 69.4243 38.4362 69.4517 38.4043C69.479 38.3678 69.5246 38.3382 69.5884 38.3154C69.6567 38.2881 69.7456 38.2676 69.855 38.2539C69.9644 38.2402 70.1034 38.2334 70.272 38.2334C70.4406 38.2334 70.5796 38.2402 70.689 38.2539C70.7983 38.2676 70.8849 38.2881 70.9487 38.3154C71.0171 38.3382 71.0649 38.3678 71.0923 38.4043C71.1196 38.4362 71.1333 38.4749 71.1333 38.5205V44.6045ZM71.2632 36.4424C71.2632 36.7887 71.1925 37.028 71.0513 37.1602C70.91 37.2923 70.6479 37.3584 70.2651 37.3584C69.8778 37.3584 69.6157 37.2946 69.479 37.167C69.3468 37.0394 69.2808 36.8092 69.2808 36.4766C69.2808 36.1302 69.3491 35.891 69.4858 35.7588C69.6271 35.6221 69.8914 35.5537 70.2788 35.5537C70.6616 35.5537 70.9214 35.6198 71.0581 35.752C71.1948 35.8796 71.2632 36.1097 71.2632 36.4424ZM76.4653 44.0029C76.4653 44.2035 76.4517 44.3584 76.4243 44.4678C76.4015 44.5726 76.3696 44.6478 76.3286 44.6934C76.2876 44.7344 76.2261 44.7731 76.144 44.8096C76.0666 44.8415 75.9731 44.8688 75.8638 44.8916C75.759 44.9189 75.6427 44.9395 75.5151 44.9531C75.3921 44.9668 75.2668 44.9736 75.1392 44.9736C74.7974 44.9736 74.5011 44.9303 74.2505 44.8438C73.9998 44.7572 73.7925 44.625 73.6284 44.4473C73.4644 44.265 73.3436 44.0371 73.2661 43.7637C73.1886 43.4902 73.1499 43.1667 73.1499 42.793V39.6689H72.4185C72.3319 39.6689 72.2658 39.6165 72.2202 39.5117C72.1746 39.4023 72.1519 39.2223 72.1519 38.9717C72.1519 38.8395 72.1564 38.7279 72.1655 38.6367C72.1792 38.5456 72.1974 38.4749 72.2202 38.4248C72.243 38.3701 72.2703 38.3314 72.3022 38.3086C72.3387 38.2858 72.3797 38.2744 72.4253 38.2744H73.1499V36.9141C73.1499 36.8685 73.1613 36.8275 73.1841 36.791C73.2114 36.7546 73.257 36.7249 73.3208 36.7021C73.3892 36.6748 73.478 36.6566 73.5874 36.6475C73.7013 36.6338 73.8403 36.627 74.0044 36.627C74.173 36.627 74.312 36.6338 74.4214 36.6475C74.5353 36.6566 74.6242 36.6748 74.688 36.7021C74.7518 36.7249 74.7974 36.7546 74.8247 36.791C74.8521 36.8275 74.8657 36.8685 74.8657 36.9141V38.2744H76.1919C76.2375 38.2744 76.2762 38.2858 76.3081 38.3086C76.3446 38.3314 76.3742 38.3701 76.397 38.4248C76.4198 38.4749 76.4357 38.5456 76.4448 38.6367C76.4585 38.7279 76.4653 38.8395 76.4653 38.9717C76.4653 39.2223 76.4425 39.4023 76.397 39.5117C76.3514 39.6165 76.2853 39.6689 76.1987 39.6689H74.8657V42.5332C74.8657 42.8659 74.9181 43.1165 75.0229 43.2852C75.1278 43.4492 75.3146 43.5312 75.5835 43.5312C75.6746 43.5312 75.7567 43.5244 75.8296 43.5107C75.9025 43.4925 75.9663 43.4743 76.021 43.4561C76.0802 43.4333 76.1281 43.415 76.1646 43.4014C76.2056 43.3831 76.242 43.374 76.2739 43.374C76.3013 43.374 76.3263 43.3831 76.3491 43.4014C76.3765 43.415 76.397 43.4469 76.4106 43.4971C76.4243 43.5426 76.4357 43.6064 76.4448 43.6885C76.4585 43.7705 76.4653 43.8753 76.4653 44.0029ZM83.1646 41.3779C83.1646 41.5876 83.1167 41.7425 83.021 41.8428C82.9299 41.943 82.8022 41.9932 82.6382 41.9932H78.9263C78.9263 42.2529 78.9559 42.4899 79.0151 42.7041C79.0789 42.9137 79.1769 43.0938 79.3091 43.2441C79.4458 43.39 79.619 43.5016 79.8286 43.5791C80.0428 43.6566 80.298 43.6953 80.5942 43.6953C80.895 43.6953 81.1593 43.6748 81.3872 43.6338C81.6151 43.5882 81.811 43.5404 81.9751 43.4902C82.1437 43.4355 82.2827 43.3877 82.3921 43.3467C82.5015 43.3011 82.5903 43.2783 82.6587 43.2783C82.6997 43.2783 82.7339 43.2874 82.7612 43.3057C82.7886 43.3193 82.8114 43.3467 82.8296 43.3877C82.8478 43.4287 82.8592 43.488 82.8638 43.5654C82.8729 43.6383 82.8774 43.7318 82.8774 43.8457C82.8774 43.946 82.8752 44.0326 82.8706 44.1055C82.866 44.1738 82.8592 44.2331 82.8501 44.2832C82.841 44.3333 82.8273 44.3766 82.8091 44.4131C82.7909 44.445 82.7658 44.4769 82.7339 44.5088C82.7065 44.5407 82.6268 44.584 82.4946 44.6387C82.3625 44.6934 82.1938 44.748 81.9888 44.8027C81.7837 44.8529 81.549 44.8962 81.2847 44.9326C81.0203 44.9736 80.7378 44.9941 80.437 44.9941C79.8947 44.9941 79.4185 44.9258 79.0083 44.7891C78.6027 44.6523 78.2632 44.445 77.9897 44.167C77.7163 43.889 77.5112 43.5381 77.3745 43.1143C77.2424 42.6904 77.1763 42.1937 77.1763 41.624C77.1763 41.0817 77.2469 40.5941 77.3882 40.1611C77.5295 39.7236 77.7345 39.3545 78.0034 39.0537C78.2723 38.7484 78.5981 38.516 78.981 38.3564C79.3683 38.1969 79.8035 38.1172 80.2866 38.1172C80.797 38.1172 81.2323 38.1924 81.5923 38.3428C81.9569 38.4932 82.2554 38.7028 82.4878 38.9717C82.7202 39.236 82.8911 39.5505 83.0005 39.915C83.1099 40.2796 83.1646 40.6761 83.1646 41.1045V41.3779ZM81.4966 40.8857C81.5103 40.4027 81.4123 40.0244 81.2026 39.751C80.9976 39.473 80.6785 39.334 80.2456 39.334C80.0269 39.334 79.8354 39.375 79.6714 39.457C79.5119 39.5391 79.3774 39.6507 79.2681 39.792C79.1632 39.9287 79.0812 40.0928 79.022 40.2842C78.9673 40.471 78.9354 40.6715 78.9263 40.8857H81.4966ZM90.3696 44.6045C90.3696 44.6546 90.3582 44.6979 90.3354 44.7344C90.3127 44.7663 90.2739 44.7936 90.2192 44.8164C90.1646 44.8392 90.0894 44.8551 89.9937 44.8643C89.9025 44.8734 89.7886 44.8779 89.6519 44.8779C89.506 44.8779 89.3875 44.8734 89.2964 44.8643C89.2052 44.8551 89.13 44.8392 89.0708 44.8164C89.0161 44.7936 88.9751 44.7663 88.9478 44.7344C88.925 44.6979 88.9136 44.6546 88.9136 44.6045V43.9277C88.5991 44.265 88.2687 44.527 87.9224 44.7139C87.5806 44.9007 87.2 44.9941 86.7808 44.9941C86.3159 44.9941 85.9217 44.9053 85.5981 44.7275C85.2791 44.5452 85.0171 44.3014 84.812 43.9961C84.6115 43.6908 84.4657 43.3353 84.3745 42.9297C84.2834 42.5195 84.2378 42.0889 84.2378 41.6377C84.2378 41.0954 84.2948 40.6077 84.4087 40.1748C84.5272 39.7419 84.6981 39.3727 84.9214 39.0674C85.1447 38.762 85.4227 38.5273 85.7554 38.3633C86.0881 38.1992 86.4709 38.1172 86.9038 38.1172C87.2456 38.1172 87.5555 38.1878 87.8335 38.3291C88.1115 38.4658 88.3872 38.6686 88.6606 38.9375V35.6357C88.6606 35.5902 88.672 35.5492 88.6948 35.5127C88.7222 35.4762 88.7677 35.4466 88.8315 35.4238C88.8999 35.3965 88.9888 35.376 89.0981 35.3623C89.2075 35.3486 89.3465 35.3418 89.5151 35.3418C89.6838 35.3418 89.8228 35.3486 89.9321 35.3623C90.0415 35.376 90.1281 35.3965 90.1919 35.4238C90.2557 35.4466 90.3013 35.4762 90.3286 35.5127C90.356 35.5492 90.3696 35.5902 90.3696 35.6357V44.6045ZM88.6606 40.5303C88.4146 40.2204 88.1776 39.9834 87.9497 39.8193C87.7264 39.6553 87.4917 39.5732 87.2456 39.5732C87.0223 39.5732 86.8286 39.6302 86.6646 39.7441C86.505 39.8535 86.3752 40.0016 86.2749 40.1885C86.1792 40.3753 86.1063 40.585 86.0562 40.8174C86.0106 41.0452 85.9878 41.2799 85.9878 41.5215C85.9878 41.7767 86.0083 42.0251 86.0493 42.2666C86.0903 42.5081 86.1564 42.7246 86.2476 42.916C86.3433 43.1029 86.4686 43.2533 86.6235 43.3672C86.7785 43.4811 86.9744 43.5381 87.2114 43.5381C87.3299 43.5381 87.4438 43.5221 87.5532 43.4902C87.6672 43.4538 87.7811 43.3968 87.895 43.3193C88.0135 43.2419 88.1343 43.1416 88.2573 43.0186C88.3804 42.891 88.5148 42.736 88.6606 42.5537V40.5303ZM100.343 36.7295C100.343 36.8662 100.336 36.9824 100.323 37.0781C100.314 37.1693 100.295 37.2422 100.268 37.2969C100.245 37.3516 100.218 37.3926 100.186 37.4199C100.154 37.4473 100.118 37.4609 100.077 37.4609H97.1851V39.8398H99.8989C99.9399 39.8398 99.9764 39.8512 100.008 39.874C100.04 39.8968 100.068 39.9355 100.09 39.9902C100.118 40.0449 100.136 40.1178 100.145 40.209C100.159 40.3001 100.166 40.4141 100.166 40.5508C100.166 40.6875 100.159 40.8014 100.145 40.8926C100.136 40.9837 100.118 41.0589 100.09 41.1182C100.068 41.1774 100.04 41.2207 100.008 41.248C99.9764 41.2708 99.9399 41.2822 99.8989 41.2822H97.1851V44.5771C97.1851 44.6273 97.1714 44.6706 97.144 44.707C97.1167 44.7435 97.0666 44.7754 96.9937 44.8027C96.9253 44.8255 96.8341 44.8438 96.7202 44.8574C96.6063 44.8711 96.4604 44.8779 96.2827 44.8779C96.1095 44.8779 95.9637 44.8711 95.8452 44.8574C95.7313 44.8438 95.6401 44.8255 95.5718 44.8027C95.5034 44.7754 95.4533 44.7435 95.4214 44.707C95.394 44.6706 95.3804 44.6273 95.3804 44.5771V36.5586C95.3804 36.3581 95.4305 36.2145 95.5308 36.1279C95.6356 36.0368 95.7632 35.9912 95.9136 35.9912H100.077C100.118 35.9912 100.154 36.0049 100.186 36.0322C100.218 36.055 100.245 36.096 100.268 36.1553C100.295 36.21 100.314 36.2852 100.323 36.3809C100.336 36.4766 100.343 36.5928 100.343 36.7295ZM105.621 39.0742C105.621 39.2383 105.616 39.3727 105.607 39.4775C105.598 39.5824 105.584 39.6644 105.566 39.7236C105.548 39.7829 105.523 39.8239 105.491 39.8467C105.463 39.8695 105.427 39.8809 105.381 39.8809C105.345 39.8809 105.304 39.874 105.258 39.8604C105.213 39.8421 105.16 39.8239 105.101 39.8057C105.046 39.7874 104.985 39.7715 104.917 39.7578C104.848 39.7396 104.773 39.7305 104.691 39.7305C104.595 39.7305 104.5 39.751 104.404 39.792C104.308 39.8285 104.208 39.8877 104.103 39.9697C104.003 40.0518 103.896 40.1611 103.782 40.2979C103.672 40.4346 103.554 40.6032 103.426 40.8037V44.6045C103.426 44.6501 103.413 44.6911 103.385 44.7275C103.358 44.7594 103.31 44.7868 103.242 44.8096C103.178 44.8324 103.091 44.8483 102.982 44.8574C102.873 44.8711 102.734 44.8779 102.565 44.8779C102.396 44.8779 102.257 44.8711 102.148 44.8574C102.039 44.8483 101.95 44.8324 101.881 44.8096C101.818 44.7868 101.772 44.7594 101.745 44.7275C101.717 44.6911 101.704 44.6501 101.704 44.6045V38.5068C101.704 38.4613 101.715 38.4225 101.738 38.3906C101.761 38.3542 101.802 38.3245 101.861 38.3018C101.92 38.279 101.995 38.263 102.086 38.2539C102.182 38.2402 102.301 38.2334 102.442 38.2334C102.588 38.2334 102.708 38.2402 102.804 38.2539C102.9 38.263 102.973 38.279 103.023 38.3018C103.078 38.3245 103.116 38.3542 103.139 38.3906C103.162 38.4225 103.173 38.4613 103.173 38.5068V39.2656C103.333 39.0378 103.483 38.8509 103.625 38.7051C103.766 38.5547 103.9 38.4362 104.028 38.3496C104.155 38.263 104.283 38.2038 104.411 38.1719C104.538 38.1354 104.666 38.1172 104.793 38.1172C104.853 38.1172 104.917 38.1217 104.985 38.1309C105.053 38.1354 105.124 38.1468 105.197 38.165C105.27 38.1787 105.333 38.1969 105.388 38.2197C105.443 38.238 105.482 38.2585 105.504 38.2812C105.532 38.304 105.55 38.3291 105.559 38.3564C105.573 38.3838 105.584 38.4225 105.593 38.4727C105.602 38.5182 105.609 38.5889 105.614 38.6846C105.618 38.7803 105.621 38.9102 105.621 39.0742ZM112.149 41.3779C112.149 41.5876 112.101 41.7425 112.005 41.8428C111.914 41.943 111.787 41.9932 111.623 41.9932H107.911C107.911 42.2529 107.94 42.4899 108 42.7041C108.063 42.9137 108.161 43.0938 108.293 43.2441C108.43 43.39 108.603 43.5016 108.813 43.5791C109.027 43.6566 109.282 43.6953 109.579 43.6953C109.879 43.6953 110.144 43.6748 110.372 43.6338C110.599 43.5882 110.795 43.5404 110.959 43.4902C111.128 43.4355 111.267 43.3877 111.376 43.3467C111.486 43.3011 111.575 43.2783 111.643 43.2783C111.684 43.2783 111.718 43.2874 111.746 43.3057C111.773 43.3193 111.796 43.3467 111.814 43.3877C111.832 43.4287 111.844 43.488 111.848 43.5654C111.857 43.6383 111.862 43.7318 111.862 43.8457C111.862 43.946 111.86 44.0326 111.855 44.1055C111.85 44.1738 111.844 44.2331 111.834 44.2832C111.825 44.3333 111.812 44.3766 111.793 44.4131C111.775 44.445 111.75 44.4769 111.718 44.5088C111.691 44.5407 111.611 44.584 111.479 44.6387C111.347 44.6934 111.178 44.748 110.973 44.8027C110.768 44.8529 110.533 44.8962 110.269 44.9326C110.005 44.9736 109.722 44.9941 109.421 44.9941C108.879 44.9941 108.403 44.9258 107.993 44.7891C107.587 44.6523 107.248 44.445 106.974 44.167C106.701 43.889 106.496 43.5381 106.359 43.1143C106.227 42.6904 106.161 42.1937 106.161 41.624C106.161 41.0817 106.231 40.5941 106.373 40.1611C106.514 39.7236 106.719 39.3545 106.988 39.0537C107.257 38.7484 107.583 38.516 107.965 38.3564C108.353 38.1969 108.788 38.1172 109.271 38.1172C109.781 38.1172 110.217 38.1924 110.577 38.3428C110.941 38.4932 111.24 38.7028 111.472 38.9717C111.705 39.236 111.875 39.5505 111.985 39.915C112.094 40.2796 112.149 40.6761 112.149 41.1045V41.3779ZM110.481 40.8857C110.495 40.4027 110.397 40.0244 110.187 39.751C109.982 39.473 109.663 39.334 109.23 39.334C109.011 39.334 108.82 39.375 108.656 39.457C108.496 39.5391 108.362 39.6507 108.252 39.792C108.148 39.9287 108.066 40.0928 108.006 40.2842C107.952 40.471 107.92 40.6715 107.911 40.8857H110.481ZM119.204 41.3779C119.204 41.5876 119.156 41.7425 119.06 41.8428C118.969 41.943 118.841 41.9932 118.677 41.9932H114.965C114.965 42.2529 114.995 42.4899 115.054 42.7041C115.118 42.9137 115.216 43.0938 115.348 43.2441C115.485 43.39 115.658 43.5016 115.868 43.5791C116.082 43.6566 116.337 43.6953 116.633 43.6953C116.934 43.6953 117.198 43.6748 117.426 43.6338C117.654 43.5882 117.85 43.5404 118.014 43.4902C118.183 43.4355 118.322 43.3877 118.431 43.3467C118.541 43.3011 118.629 43.2783 118.698 43.2783C118.739 43.2783 118.773 43.2874 118.8 43.3057C118.828 43.3193 118.85 43.3467 118.869 43.3877C118.887 43.4287 118.898 43.488 118.903 43.5654C118.912 43.6383 118.917 43.7318 118.917 43.8457C118.917 43.946 118.914 44.0326 118.91 44.1055C118.905 44.1738 118.898 44.2331 118.889 44.2832C118.88 44.3333 118.866 44.3766 118.848 44.4131C118.83 44.445 118.805 44.4769 118.773 44.5088C118.746 44.5407 118.666 44.584 118.534 44.6387C118.402 44.6934 118.233 44.748 118.028 44.8027C117.823 44.8529 117.588 44.8962 117.324 44.9326C117.059 44.9736 116.777 44.9941 116.476 44.9941C115.934 44.9941 115.458 44.9258 115.047 44.7891C114.642 44.6523 114.302 44.445 114.029 44.167C113.755 43.889 113.55 43.5381 113.414 43.1143C113.281 42.6904 113.215 42.1937 113.215 41.624C113.215 41.0817 113.286 40.5941 113.427 40.1611C113.569 39.7236 113.774 39.3545 114.042 39.0537C114.311 38.7484 114.637 38.516 115.02 38.3564C115.407 38.1969 115.843 38.1172 116.326 38.1172C116.836 38.1172 117.271 38.1924 117.631 38.3428C117.996 38.4932 118.294 38.7028 118.527 38.9717C118.759 39.236 118.93 39.5505 119.04 39.915C119.149 40.2796 119.204 40.6761 119.204 41.1045V41.3779ZM117.536 40.8857C117.549 40.4027 117.451 40.0244 117.242 39.751C117.037 39.473 116.718 39.334 116.285 39.334C116.066 39.334 115.875 39.375 115.71 39.457C115.551 39.5391 115.417 39.6507 115.307 39.792C115.202 39.9287 115.12 40.0928 115.061 40.2842C115.006 40.471 114.974 40.6715 114.965 40.8857H117.536ZM129.143 42.1846C129.143 42.6494 129.056 43.0573 128.883 43.4082C128.71 43.7591 128.475 44.0531 128.179 44.29C127.883 44.5225 127.537 44.6979 127.14 44.8164C126.744 44.9349 126.32 44.9941 125.869 44.9941C125.563 44.9941 125.278 44.9691 125.014 44.9189C124.754 44.8688 124.524 44.8096 124.324 44.7412C124.123 44.6683 123.955 44.5931 123.818 44.5156C123.686 44.4382 123.59 44.3698 123.531 44.3105C123.472 44.2513 123.428 44.167 123.401 44.0576C123.378 43.9437 123.367 43.7819 123.367 43.5723C123.367 43.431 123.371 43.3125 123.38 43.2168C123.389 43.1211 123.403 43.0436 123.421 42.9844C123.444 42.9251 123.472 42.8841 123.503 42.8613C123.54 42.834 123.581 42.8203 123.626 42.8203C123.69 42.8203 123.779 42.859 123.893 42.9365C124.012 43.0094 124.162 43.0915 124.344 43.1826C124.527 43.2738 124.743 43.3581 124.994 43.4355C125.249 43.5085 125.543 43.5449 125.875 43.5449C126.094 43.5449 126.29 43.5199 126.463 43.4697C126.637 43.415 126.782 43.3398 126.901 43.2441C127.024 43.1484 127.117 43.0299 127.181 42.8887C127.245 42.7474 127.277 42.5902 127.277 42.417C127.277 42.2165 127.222 42.0456 127.113 41.9043C127.003 41.7585 126.86 41.6309 126.682 41.5215C126.509 41.4076 126.311 41.3027 126.087 41.207C125.864 41.1068 125.634 41.002 125.397 40.8926C125.16 40.7832 124.93 40.6602 124.707 40.5234C124.483 40.3822 124.283 40.2158 124.105 40.0244C123.932 39.8285 123.791 39.5983 123.681 39.334C123.572 39.0697 123.517 38.7529 123.517 38.3838C123.517 37.96 123.595 37.5885 123.75 37.2695C123.909 36.946 124.121 36.6794 124.385 36.4697C124.654 36.2555 124.969 36.096 125.329 35.9912C125.693 35.8864 126.078 35.834 126.484 35.834C126.694 35.834 126.903 35.8499 127.113 35.8818C127.322 35.9137 127.518 35.957 127.701 36.0117C127.883 36.0664 128.045 36.1279 128.186 36.1963C128.327 36.2646 128.421 36.3216 128.466 36.3672C128.512 36.4128 128.542 36.4515 128.555 36.4834C128.573 36.5153 128.587 36.5586 128.596 36.6133C128.61 36.6634 128.619 36.7295 128.624 36.8115C128.628 36.889 128.63 36.987 128.63 37.1055C128.63 37.2376 128.626 37.3493 128.617 37.4404C128.612 37.5316 128.601 37.6068 128.583 37.666C128.569 37.7253 128.546 37.7686 128.514 37.7959C128.487 37.8232 128.448 37.8369 128.398 37.8369C128.348 37.8369 128.268 37.805 128.159 37.7412C128.049 37.6774 127.915 37.609 127.755 37.5361C127.596 37.4587 127.411 37.3903 127.202 37.3311C126.992 37.2673 126.762 37.2354 126.511 37.2354C126.315 37.2354 126.144 37.2604 125.999 37.3105C125.853 37.3561 125.73 37.4222 125.629 37.5088C125.534 37.5908 125.461 37.6911 125.411 37.8096C125.365 37.9281 125.342 38.0534 125.342 38.1855C125.342 38.3815 125.395 38.5524 125.5 38.6982C125.609 38.8395 125.752 38.9671 125.93 39.0811C126.112 39.1904 126.318 39.2952 126.545 39.3955C126.773 39.4912 127.006 39.5938 127.243 39.7031C127.48 39.8125 127.712 39.9378 127.94 40.0791C128.168 40.2158 128.371 40.3822 128.548 40.5781C128.726 40.7695 128.87 40.9974 128.979 41.2617C129.088 41.5215 129.143 41.8291 129.143 42.1846ZM136.047 41.3779C136.047 41.5876 136 41.7425 135.904 41.8428C135.813 41.943 135.685 41.9932 135.521 41.9932H131.809C131.809 42.2529 131.839 42.4899 131.898 42.7041C131.962 42.9137 132.06 43.0938 132.192 43.2441C132.329 43.39 132.502 43.5016 132.711 43.5791C132.926 43.6566 133.181 43.6953 133.477 43.6953C133.778 43.6953 134.042 43.6748 134.27 43.6338C134.498 43.5882 134.694 43.5404 134.858 43.4902C135.027 43.4355 135.166 43.3877 135.275 43.3467C135.384 43.3011 135.473 43.2783 135.542 43.2783C135.583 43.2783 135.617 43.2874 135.644 43.3057C135.671 43.3193 135.694 43.3467 135.712 43.3877C135.731 43.4287 135.742 43.488 135.747 43.5654C135.756 43.6383 135.76 43.7318 135.76 43.8457C135.76 43.946 135.758 44.0326 135.753 44.1055C135.749 44.1738 135.742 44.2331 135.733 44.2832C135.724 44.3333 135.71 44.3766 135.692 44.4131C135.674 44.445 135.649 44.4769 135.617 44.5088C135.589 44.5407 135.51 44.584 135.377 44.6387C135.245 44.6934 135.077 44.748 134.872 44.8027C134.667 44.8529 134.432 44.8962 134.167 44.9326C133.903 44.9736 133.621 44.9941 133.32 44.9941C132.778 44.9941 132.301 44.9258 131.891 44.7891C131.486 44.6523 131.146 44.445 130.873 44.167C130.599 43.889 130.394 43.5381 130.257 43.1143C130.125 42.6904 130.059 42.1937 130.059 41.624C130.059 41.0817 130.13 40.5941 130.271 40.1611C130.412 39.7236 130.617 39.3545 130.886 39.0537C131.155 38.7484 131.481 38.516 131.864 38.3564C132.251 38.1969 132.686 38.1172 133.169 38.1172C133.68 38.1172 134.115 38.1924 134.475 38.3428C134.84 38.4932 135.138 38.7028 135.371 38.9717C135.603 39.236 135.774 39.5505 135.883 39.915C135.993 40.2796 136.047 40.6761 136.047 41.1045V41.3779ZM134.379 40.8857C134.393 40.4027 134.295 40.0244 134.085 39.751C133.88 39.473 133.561 39.334 133.128 39.334C132.91 39.334 132.718 39.375 132.554 39.457C132.395 39.5391 132.26 39.6507 132.151 39.792C132.046 39.9287 131.964 40.0928 131.905 40.2842C131.85 40.471 131.818 40.6715 131.809 40.8857H134.379ZM141.386 39.0742C141.386 39.2383 141.382 39.3727 141.373 39.4775C141.363 39.5824 141.35 39.6644 141.332 39.7236C141.313 39.7829 141.288 39.8239 141.256 39.8467C141.229 39.8695 141.193 39.8809 141.147 39.8809C141.111 39.8809 141.069 39.874 141.024 39.8604C140.978 39.8421 140.926 39.8239 140.867 39.8057C140.812 39.7874 140.75 39.7715 140.682 39.7578C140.614 39.7396 140.539 39.7305 140.457 39.7305C140.361 39.7305 140.265 39.751 140.169 39.792C140.074 39.8285 139.973 39.8877 139.869 39.9697C139.768 40.0518 139.661 40.1611 139.547 40.2979C139.438 40.4346 139.319 40.6032 139.192 40.8037V44.6045C139.192 44.6501 139.178 44.6911 139.151 44.7275C139.124 44.7594 139.076 44.7868 139.007 44.8096C138.944 44.8324 138.857 44.8483 138.748 44.8574C138.638 44.8711 138.499 44.8779 138.331 44.8779C138.162 44.8779 138.023 44.8711 137.914 44.8574C137.804 44.8483 137.715 44.8324 137.647 44.8096C137.583 44.7868 137.538 44.7594 137.51 44.7275C137.483 44.6911 137.469 44.6501 137.469 44.6045V38.5068C137.469 38.4613 137.481 38.4225 137.503 38.3906C137.526 38.3542 137.567 38.3245 137.626 38.3018C137.686 38.279 137.761 38.263 137.852 38.2539C137.948 38.2402 138.066 38.2334 138.208 38.2334C138.353 38.2334 138.474 38.2402 138.57 38.2539C138.666 38.263 138.738 38.279 138.789 38.3018C138.843 38.3245 138.882 38.3542 138.905 38.3906C138.928 38.4225 138.939 38.4613 138.939 38.5068V39.2656C139.098 39.0378 139.249 38.8509 139.39 38.7051C139.531 38.5547 139.666 38.4362 139.793 38.3496C139.921 38.263 140.049 38.2038 140.176 38.1719C140.304 38.1354 140.431 38.1172 140.559 38.1172C140.618 38.1172 140.682 38.1217 140.75 38.1309C140.819 38.1354 140.889 38.1468 140.962 38.165C141.035 38.1787 141.099 38.1969 141.154 38.2197C141.208 38.238 141.247 38.2585 141.27 38.2812C141.297 38.304 141.316 38.3291 141.325 38.3564C141.338 38.3838 141.35 38.4225 141.359 38.4727C141.368 38.5182 141.375 38.5889 141.379 38.6846C141.384 38.7803 141.386 38.9102 141.386 39.0742ZM148.181 38.5C148.181 38.5228 148.179 38.5501 148.174 38.582C148.174 38.6139 148.17 38.6504 148.161 38.6914C148.156 38.7279 148.147 38.7712 148.133 38.8213C148.124 38.8714 148.111 38.9284 148.092 38.9922L146.26 44.5088C146.237 44.5863 146.206 44.6501 146.165 44.7002C146.128 44.7458 146.064 44.7822 145.973 44.8096C145.887 44.8369 145.766 44.8551 145.611 44.8643C145.46 44.8734 145.262 44.8779 145.016 44.8779C144.775 44.8779 144.576 44.8711 144.421 44.8574C144.271 44.8483 144.153 44.8301 144.066 44.8027C143.979 44.7754 143.916 44.7389 143.875 44.6934C143.838 44.6432 143.808 44.5817 143.786 44.5088L141.954 38.9922C141.926 38.901 141.903 38.819 141.885 38.7461C141.872 38.6732 141.862 38.6208 141.858 38.5889C141.858 38.557 141.858 38.5273 141.858 38.5C141.858 38.4544 141.869 38.4157 141.892 38.3838C141.919 38.3473 141.965 38.3177 142.029 38.2949C142.093 38.2721 142.179 38.2562 142.289 38.2471C142.403 38.238 142.544 38.2334 142.712 38.2334C142.899 38.2334 143.05 38.2402 143.164 38.2539C143.278 38.263 143.366 38.279 143.43 38.3018C143.499 38.32 143.546 38.3496 143.574 38.3906C143.601 38.4271 143.624 38.4727 143.642 38.5273L145.03 43.0049L145.071 43.1758L145.112 43.0049L146.479 38.5273C146.493 38.4727 146.513 38.4271 146.541 38.3906C146.572 38.3496 146.62 38.32 146.684 38.3018C146.748 38.279 146.832 38.263 146.937 38.2539C147.046 38.2402 147.188 38.2334 147.361 38.2334C147.529 38.2334 147.666 38.238 147.771 38.2471C147.88 38.2562 147.965 38.2721 148.024 38.2949C148.083 38.3177 148.124 38.3473 148.147 38.3838C148.17 38.4157 148.181 38.4544 148.181 38.5ZM150.922 44.6045C150.922 44.6501 150.909 44.6911 150.881 44.7275C150.854 44.7594 150.806 44.7868 150.738 44.8096C150.674 44.8324 150.587 44.8483 150.478 44.8574C150.369 44.8711 150.23 44.8779 150.061 44.8779C149.892 44.8779 149.753 44.8711 149.644 44.8574C149.535 44.8483 149.446 44.8324 149.377 44.8096C149.314 44.7868 149.268 44.7594 149.241 44.7275C149.213 44.6911 149.2 44.6501 149.2 44.6045V38.5205C149.2 38.4749 149.213 38.4362 149.241 38.4043C149.268 38.3678 149.314 38.3382 149.377 38.3154C149.446 38.2881 149.535 38.2676 149.644 38.2539C149.753 38.2402 149.892 38.2334 150.061 38.2334C150.23 38.2334 150.369 38.2402 150.478 38.2539C150.587 38.2676 150.674 38.2881 150.738 38.3154C150.806 38.3382 150.854 38.3678 150.881 38.4043C150.909 38.4362 150.922 38.4749 150.922 38.5205V44.6045ZM151.052 36.4424C151.052 36.7887 150.982 37.028 150.84 37.1602C150.699 37.2923 150.437 37.3584 150.054 37.3584C149.667 37.3584 149.405 37.2946 149.268 37.167C149.136 37.0394 149.07 36.8092 149.07 36.4766C149.07 36.1302 149.138 35.891 149.275 35.7588C149.416 35.6221 149.681 35.5537 150.068 35.5537C150.451 35.5537 150.71 35.6198 150.847 35.752C150.984 35.8796 151.052 36.1097 151.052 36.4424ZM157.259 43.6338C157.259 43.7523 157.255 43.8525 157.246 43.9346C157.241 44.012 157.232 44.0781 157.218 44.1328C157.209 44.1875 157.195 44.2331 157.177 44.2695C157.164 44.3014 157.129 44.3447 157.075 44.3994C157.02 44.4495 156.927 44.5133 156.794 44.5908C156.662 44.6637 156.512 44.7298 156.343 44.7891C156.175 44.8483 155.99 44.8962 155.79 44.9326C155.594 44.9691 155.391 44.9873 155.181 44.9873C154.712 44.9873 154.295 44.9144 153.93 44.7686C153.57 44.6227 153.267 44.4085 153.021 44.126C152.775 43.8389 152.588 43.4902 152.46 43.0801C152.337 42.6699 152.276 42.2005 152.276 41.6719C152.276 41.0612 152.351 40.5348 152.501 40.0928C152.656 39.6462 152.871 39.277 153.144 38.9854C153.417 38.6937 153.741 38.4772 154.115 38.3359C154.488 38.1947 154.899 38.124 155.345 38.124C155.528 38.124 155.705 38.14 155.878 38.1719C156.056 38.2038 156.22 38.2471 156.371 38.3018C156.526 38.3564 156.662 38.418 156.781 38.4863C156.904 38.5547 156.99 38.6139 157.041 38.6641C157.091 38.7142 157.125 38.7575 157.143 38.7939C157.166 38.8258 157.182 38.8691 157.191 38.9238C157.205 38.9785 157.214 39.0469 157.218 39.1289C157.227 39.2064 157.232 39.3021 157.232 39.416C157.232 39.6803 157.209 39.8672 157.164 39.9766C157.118 40.0814 157.059 40.1338 156.986 40.1338C156.908 40.1338 156.826 40.1019 156.74 40.0381C156.653 39.9743 156.551 39.9036 156.432 39.8262C156.314 39.7487 156.172 39.6781 156.008 39.6143C155.844 39.5505 155.648 39.5186 155.42 39.5186C154.974 39.5186 154.632 39.6917 154.395 40.0381C154.158 40.3799 154.04 40.8835 154.04 41.5488C154.04 41.877 154.069 42.1663 154.128 42.417C154.188 42.6676 154.274 42.8773 154.388 43.0459C154.507 43.2145 154.653 43.3421 154.826 43.4287C155.003 43.5107 155.208 43.5518 155.441 43.5518C155.678 43.5518 155.881 43.5176 156.049 43.4492C156.222 43.3763 156.373 43.2965 156.5 43.21C156.628 43.1234 156.735 43.0459 156.822 42.9775C156.908 42.9046 156.981 42.8682 157.041 42.8682C157.082 42.8682 157.116 42.8796 157.143 42.9023C157.17 42.9251 157.191 42.9684 157.205 43.0322C157.223 43.0915 157.236 43.1689 157.246 43.2646C157.255 43.3604 157.259 43.4834 157.259 43.6338ZM164.143 41.3779C164.143 41.5876 164.095 41.7425 164 41.8428C163.908 41.943 163.781 41.9932 163.617 41.9932H159.905C159.905 42.2529 159.934 42.4899 159.994 42.7041C160.057 42.9137 160.155 43.0938 160.288 43.2441C160.424 43.39 160.597 43.5016 160.807 43.5791C161.021 43.6566 161.277 43.6953 161.573 43.6953C161.874 43.6953 162.138 43.6748 162.366 43.6338C162.594 43.5882 162.79 43.5404 162.954 43.4902C163.122 43.4355 163.261 43.3877 163.371 43.3467C163.48 43.3011 163.569 43.2783 163.637 43.2783C163.678 43.2783 163.712 43.2874 163.74 43.3057C163.767 43.3193 163.79 43.3467 163.808 43.3877C163.826 43.4287 163.838 43.488 163.842 43.5654C163.851 43.6383 163.856 43.7318 163.856 43.8457C163.856 43.946 163.854 44.0326 163.849 44.1055C163.845 44.1738 163.838 44.2331 163.829 44.2832C163.819 44.3333 163.806 44.3766 163.788 44.4131C163.769 44.445 163.744 44.4769 163.712 44.5088C163.685 44.5407 163.605 44.584 163.473 44.6387C163.341 44.6934 163.172 44.748 162.967 44.8027C162.762 44.8529 162.528 44.8962 162.263 44.9326C161.999 44.9736 161.716 44.9941 161.416 44.9941C160.873 44.9941 160.397 44.9258 159.987 44.7891C159.581 44.6523 159.242 44.445 158.968 44.167C158.695 43.889 158.49 43.5381 158.353 43.1143C158.221 42.6904 158.155 42.1937 158.155 41.624C158.155 41.0817 158.225 40.5941 158.367 40.1611C158.508 39.7236 158.713 39.3545 158.982 39.0537C159.251 38.7484 159.577 38.516 159.959 38.3564C160.347 38.1969 160.782 38.1172 161.265 38.1172C161.776 38.1172 162.211 38.1924 162.571 38.3428C162.935 38.4932 163.234 38.7028 163.466 38.9717C163.699 39.236 163.87 39.5505 163.979 39.915C164.088 40.2796 164.143 40.6761 164.143 41.1045V41.3779ZM162.475 40.8857C162.489 40.4027 162.391 40.0244 162.181 39.751C161.976 39.473 161.657 39.334 161.224 39.334C161.005 39.334 160.814 39.375 160.65 39.457C160.49 39.5391 160.356 39.6507 160.247 39.792C160.142 39.9287 160.06 40.0928 160 40.2842C159.946 40.471 159.914 40.6715 159.905 40.8857H162.475ZM174.896 38.6777C174.896 39.1745 174.819 39.6143 174.664 39.9971C174.509 40.3799 174.283 40.7035 173.987 40.9678C173.691 41.2275 173.326 41.4258 172.893 41.5625C172.465 41.6992 171.959 41.7676 171.375 41.7676H170.637V44.5908C170.637 44.6364 170.621 44.6774 170.589 44.7139C170.562 44.7503 170.514 44.7799 170.446 44.8027C170.377 44.8255 170.286 44.8438 170.172 44.8574C170.058 44.8711 169.913 44.8779 169.735 44.8779C169.562 44.8779 169.416 44.8711 169.297 44.8574C169.183 44.8438 169.092 44.8255 169.024 44.8027C168.956 44.7799 168.908 44.7503 168.88 44.7139C168.853 44.6774 168.839 44.6364 168.839 44.5908V36.6338C168.839 36.4196 168.894 36.2601 169.003 36.1553C169.117 36.0459 169.265 35.9912 169.448 35.9912H171.533C171.742 35.9912 171.941 36.0003 172.127 36.0186C172.319 36.0322 172.547 36.0664 172.811 36.1211C173.075 36.1712 173.342 36.2669 173.611 36.4082C173.884 36.5495 174.117 36.7295 174.308 36.9482C174.5 37.1624 174.645 37.4154 174.746 37.707C174.846 37.9941 174.896 38.3177 174.896 38.6777ZM173.016 38.8076C173.016 38.4977 172.961 38.2425 172.852 38.042C172.743 37.8415 172.608 37.6934 172.449 37.5977C172.289 37.502 172.121 37.4427 171.943 37.4199C171.77 37.3926 171.59 37.3789 171.403 37.3789H170.637V40.3799H171.444C171.731 40.3799 171.97 40.3411 172.162 40.2637C172.358 40.1862 172.517 40.0791 172.64 39.9424C172.763 39.8011 172.857 39.6348 172.92 39.4434C172.984 39.2474 173.016 39.0355 173.016 38.8076ZM177.911 44.6045C177.911 44.6501 177.897 44.6911 177.87 44.7275C177.842 44.7594 177.794 44.7868 177.726 44.8096C177.662 44.8324 177.576 44.8483 177.466 44.8574C177.357 44.8711 177.218 44.8779 177.049 44.8779C176.881 44.8779 176.742 44.8711 176.632 44.8574C176.523 44.8483 176.434 44.8324 176.366 44.8096C176.302 44.7868 176.256 44.7594 176.229 44.7275C176.202 44.6911 176.188 44.6501 176.188 44.6045V35.6152C176.188 35.5697 176.202 35.5286 176.229 35.4922C176.256 35.4557 176.302 35.4261 176.366 35.4033C176.434 35.376 176.523 35.3555 176.632 35.3418C176.742 35.3281 176.881 35.3213 177.049 35.3213C177.218 35.3213 177.357 35.3281 177.466 35.3418C177.576 35.3555 177.662 35.376 177.726 35.4033C177.794 35.4261 177.842 35.4557 177.87 35.4922C177.897 35.5286 177.911 35.5697 177.911 35.6152V44.6045ZM184.829 44.625C184.829 44.6888 184.806 44.7389 184.76 44.7754C184.715 44.8118 184.642 44.8369 184.542 44.8506C184.446 44.8688 184.302 44.8779 184.111 44.8779C183.906 44.8779 183.755 44.8688 183.66 44.8506C183.569 44.8369 183.502 44.8118 183.461 44.7754C183.425 44.7389 183.407 44.6888 183.407 44.625V44.1396C183.156 44.4085 182.869 44.6182 182.545 44.7686C182.226 44.9189 181.871 44.9941 181.479 44.9941C181.155 44.9941 180.857 44.9508 180.583 44.8643C180.315 44.7822 180.08 44.6592 179.879 44.4951C179.683 44.3265 179.531 44.1191 179.421 43.873C179.312 43.627 179.257 43.3398 179.257 43.0117C179.257 42.6562 179.326 42.3486 179.462 42.0889C179.604 41.8245 179.811 41.6081 180.084 41.4395C180.362 41.2663 180.707 41.1387 181.117 41.0566C181.527 40.9746 182.003 40.9336 182.545 40.9336H183.14V40.5645C183.14 40.373 183.12 40.2067 183.079 40.0654C183.042 39.9196 182.978 39.7988 182.887 39.7031C182.801 39.6074 182.682 39.5368 182.532 39.4912C182.386 39.4456 182.204 39.4229 181.985 39.4229C181.698 39.4229 181.44 39.4548 181.212 39.5186C180.989 39.5824 180.791 39.653 180.618 39.7305C180.444 39.8079 180.299 39.8786 180.18 39.9424C180.066 40.0062 179.973 40.0381 179.9 40.0381C179.85 40.0381 179.804 40.0221 179.763 39.9902C179.727 39.9583 179.695 39.9128 179.667 39.8535C179.645 39.7943 179.626 39.7214 179.613 39.6348C179.599 39.5482 179.592 39.4525 179.592 39.3477C179.592 39.2064 179.604 39.0947 179.626 39.0127C179.649 38.9307 179.693 38.8577 179.756 38.7939C179.82 38.7256 179.932 38.6527 180.091 38.5752C180.251 38.4932 180.438 38.418 180.652 38.3496C180.866 38.2812 181.098 38.2266 181.349 38.1855C181.604 38.14 181.866 38.1172 182.135 38.1172C182.614 38.1172 183.022 38.165 183.359 38.2607C183.701 38.3519 183.981 38.4954 184.2 38.6914C184.418 38.8828 184.578 39.1312 184.678 39.4365C184.778 39.7419 184.829 40.1042 184.829 40.5234V44.625ZM183.14 42.0137H182.484C182.206 42.0137 181.969 42.0342 181.773 42.0752C181.577 42.1162 181.417 42.1777 181.294 42.2598C181.171 42.3418 181.08 42.4421 181.021 42.5605C180.966 42.6745 180.939 42.8066 180.939 42.957C180.939 43.2122 181.019 43.4128 181.178 43.5586C181.342 43.7044 181.568 43.7773 181.855 43.7773C182.097 43.7773 182.318 43.7158 182.518 43.5928C182.723 43.4697 182.931 43.2897 183.14 43.0527V42.0137ZM192.375 44.6045C192.375 44.6501 192.362 44.6911 192.334 44.7275C192.307 44.7594 192.262 44.7868 192.198 44.8096C192.134 44.8324 192.045 44.8483 191.931 44.8574C191.822 44.8711 191.685 44.8779 191.521 44.8779C191.352 44.8779 191.211 44.8711 191.097 44.8574C190.988 44.8483 190.901 44.8324 190.837 44.8096C190.774 44.7868 190.728 44.7594 190.701 44.7275C190.673 44.6911 190.66 44.6501 190.66 44.6045V41.125C190.66 40.8288 190.637 40.5964 190.591 40.4277C190.55 40.2591 190.489 40.1156 190.407 39.9971C190.325 39.874 190.218 39.7806 190.085 39.7168C189.958 39.6484 189.807 39.6143 189.634 39.6143C189.416 39.6143 189.194 39.694 188.971 39.8535C188.748 40.013 188.515 40.2454 188.274 40.5508V44.6045C188.274 44.6501 188.26 44.6911 188.233 44.7275C188.206 44.7594 188.158 44.7868 188.089 44.8096C188.026 44.8324 187.939 44.8483 187.83 44.8574C187.72 44.8711 187.581 44.8779 187.413 44.8779C187.244 44.8779 187.105 44.8711 186.996 44.8574C186.886 44.8483 186.797 44.8324 186.729 44.8096C186.665 44.7868 186.62 44.7594 186.592 44.7275C186.565 44.6911 186.551 44.6501 186.551 44.6045V38.5068C186.551 38.4613 186.563 38.4225 186.585 38.3906C186.608 38.3542 186.649 38.3245 186.708 38.3018C186.768 38.279 186.843 38.263 186.934 38.2539C187.03 38.2402 187.148 38.2334 187.29 38.2334C187.435 38.2334 187.556 38.2402 187.652 38.2539C187.748 38.263 187.82 38.279 187.871 38.3018C187.925 38.3245 187.964 38.3542 187.987 38.3906C188.01 38.4225 188.021 38.4613 188.021 38.5068V39.2109C188.358 38.8464 188.7 38.5729 189.046 38.3906C189.397 38.2083 189.762 38.1172 190.14 38.1172C190.555 38.1172 190.903 38.1855 191.186 38.3223C191.473 38.459 191.703 38.6458 191.876 38.8828C192.054 39.1152 192.182 39.3887 192.259 39.7031C192.337 40.0176 192.375 40.3958 192.375 40.8379V44.6045Z" fill="#090909"/>
</g>
<defs>
<clipPath id="clip0_411_378566">
<rect width="209.216" height="69.264" fill="white" transform="translate(0.42627 0.162598)"/>
</clipPath>
</defs>
</svg>
