<svg width="112" height="106" viewBox="0 0 112 106" fill="none" xmlns="http://www.w3.org/2000/svg">
<g clip-path="url(#clip0_8722_468550)">
<path d="M58.6662 100.421C84.8561 100.421 106.087 79.1896 106.087 52.9997C106.087 26.8097 84.8561 5.57861 58.6662 5.57861C32.4762 5.57861 11.2451 26.8097 11.2451 52.9997C11.2451 79.1896 32.4762 100.421 58.6662 100.421Z" fill="#EAEAEA" fill-opacity="0.6"/>
<path d="M82.8219 27.8382H82.6924V27.7827L82.8219 27.8382Z" fill="white"/>
<path d="M58.6658 80.2809C73.7327 80.2809 85.9469 68.0667 85.9469 52.9998C85.9469 37.9329 73.7327 25.7188 58.6658 25.7188C43.5989 25.7188 31.3848 37.9329 31.3848 52.9998C31.3848 68.0667 43.5989 80.2809 58.6658 80.2809Z" fill="#F58520"/>
<path d="M54.0627 64.195C53.4211 64.195 52.7795 63.9532 52.2867 63.4604L44.1229 55.2965C43.1465 54.3202 43.1465 52.7302 44.1229 51.7539C45.0992 50.7776 46.6892 50.7776 47.6655 51.7539L54.0627 58.1511L69.6651 42.5486C70.6415 41.5723 72.2315 41.5723 73.2078 42.5486C74.1841 43.525 74.1841 45.115 73.2078 46.0913L55.8294 63.4697C55.3365 63.9625 54.695 64.2043 54.0534 64.2043L54.0627 64.195Z" fill="white"/>
<g style="mix-blend-mode:darken">
<path d="M85.9466 52.9998C85.9466 68.0723 73.7287 80.2809 58.6655 80.2809C56.9547 80.2809 55.281 80.1228 53.6631 79.8159C66.3366 77.4728 75.9324 66.3614 75.9324 52.9998C75.9324 39.6382 66.3366 28.5268 53.6631 26.1837C55.281 25.8768 56.9547 25.7188 58.6655 25.7188C73.7287 25.7188 85.9466 37.9273 85.9466 52.9998V52.9998Z" fill="#804511" fill-opacity="0.07" style="mix-blend-mode:multiply"/>
</g>
</g>
<rect x="0.366211" y="7.94971" width="28.2667" height="28.2667" rx="14.1333" fill="#863399"/>
<path d="M9.70397 14.8501C11.066 14.4415 12.4962 14.2372 13.9944 14.2372C17.6379 14.2372 19.4596 15.5651 19.4596 18.2211C19.4596 19.8284 18.8195 20.935 17.5392 21.5411C18.8195 22.12 19.4596 23.2267 19.4596 24.8611C19.4596 27.6533 17.6379 29.0494 13.9944 29.0494C12.4962 29.0494 11.066 28.8451 9.70397 28.4365V25.9848C11.066 26.4615 12.4962 26.6999 13.9944 26.6999C15.8332 26.6999 16.7526 25.9848 16.7526 24.5547C16.7526 23.3288 16.0988 22.7159 14.7912 22.7159H11.2363V20.3664H14.7606C16.0886 20.3664 16.7526 19.7534 16.7526 18.5276C16.7526 17.2337 15.8332 16.5867 13.9944 16.5867C12.4962 16.5867 11.066 16.825 9.70397 17.3018V14.8501Z" fill="white"/>
<defs>
<clipPath id="clip0_8722_468550">
<rect width="94.8421" height="94.8421" fill="white" transform="translate(11.2451 5.57861)"/>
</clipPath>
</defs>
</svg>
