<svg width="310" height="202" viewBox="0 0 310 202" fill="none" xmlns="http://www.w3.org/2000/svg">
<g clip-path="url(#clip0_25_27188)">
<path d="M253.227 74.1401C253.227 74.1401 278.598 71.6519 292.505 95.9617C306.412 120.271 309.457 156.913 309.457 156.913C309.457 156.913 259.081 160.487 258.766 156.913C258.452 153.338 253.227 74.1401 253.227 74.1401Z" fill="#4A2521"/>
<path d="M96.7598 0.1953L81.4641 9.38058L83.7296 53.7102L119.335 52.9285C119.518 52.9242 119.698 52.8829 119.864 52.8067C120.031 52.7306 120.18 52.6213 120.305 52.4853C120.429 52.3493 120.525 52.1894 120.587 52.015C120.65 51.8405 120.677 51.6552 120.667 51.4699L118.411 10.0813C118.393 9.72346 118.238 9.38694 117.98 9.1431C117.722 8.89926 117.38 8.76731 117.028 8.77522L99.1661 9.14225L98.8143 1.31069C98.802 1.0729 98.7296 0.842361 98.6039 0.641407C98.4782 0.440453 98.3035 0.275902 98.0969 0.163699C97.8902 0.0514965 97.6585 -0.00455238 97.4243 0.000984146C97.19 0.00652067 96.9612 0.0734548 96.7598 0.1953V0.1953Z" fill="#3B4A73"/>
<path d="M92.1265 19.3812L110.419 19.1905C110.544 19.1905 110.663 19.1403 110.751 19.0509C110.839 18.9615 110.889 18.8403 110.889 18.7138C110.889 18.5874 110.839 18.4662 110.751 18.3768C110.663 18.2874 110.544 18.2372 110.419 18.2372L92.1265 18.4278C92.0021 18.4278 91.8828 18.4781 91.7949 18.5675C91.7069 18.6569 91.6575 18.7781 91.6575 18.9045C91.6575 19.0309 91.7069 19.1522 91.7949 19.2416C91.8828 19.331 92.0021 19.3812 92.1265 19.3812Z" fill="#FFF8F5"/>
<path d="M92.2903 24.0954L110.583 23.9047C110.708 23.9047 110.827 23.8545 110.915 23.7651C111.003 23.6757 111.052 23.5545 111.052 23.4281C111.052 23.3017 111.003 23.1804 110.915 23.091C110.827 23.0016 110.708 22.9514 110.583 22.9514L92.2903 23.1421C92.1659 23.1421 92.0466 23.1923 91.9587 23.2817C91.8707 23.3711 91.8213 23.4923 91.8213 23.6187C91.8213 23.7452 91.8707 23.8664 91.9587 23.9558C92.0466 24.0452 92.1659 24.0954 92.2903 24.0954Z" fill="#FFF8F5"/>
<path d="M98.2573 9.13763L83.6135 9.32829L96.625 1.51579C96.7555 1.43741 96.9037 1.39471 97.0552 1.39187C97.2068 1.38904 97.3564 1.42616 97.4897 1.49961C97.6229 1.57306 97.7351 1.68034 97.8154 1.81099C97.8957 1.94164 97.9412 2.0912 97.9477 2.24509L98.2573 9.13763Z" fill="#FBFBFB"/>
<path d="M189.099 17.3268C186.587 20.2557 184.755 23.7205 183.737 27.4654C182.19 33.4761 183.01 40.4115 179.46 43.7434C175.909 47.0753 170.815 50.2165 169.905 57.9861C168.995 65.7557 176.913 69.8264 176.913 69.8264L204.587 67.791L189.099 17.3268Z" fill="#4A2521"/>
<path d="M285.69 118.356C279.123 106.401 267.35 83.2112 262.885 75.8086C258.419 68.4061 251.787 66.2086 251.787 66.2086L215.961 60.2504L197.766 60.9129C197.766 60.9129 188.32 60.9129 179.853 61.5755C172.611 62.1427 168.338 63.8349 163.23 68.3536C147.339 79.7649 110.95 101.777 110.95 101.777L103.027 70.5463C103.027 70.5463 92.1502 72.5054 75.1565 75.9373C75.1565 75.9373 83.4305 113.293 87.2392 128.756C91.8219 147.394 105.781 150.33 118.333 145.072C121.063 143.838 123.712 142.428 126.264 140.849V140.849C160.768 122.34 170.13 115.109 170.13 115.109L175.566 152.961L222.541 152.056L223.381 154.396C223.381 154.396 266.717 152.995 275.216 151.703C290.127 149.434 291.609 129.176 285.69 118.356Z" fill="#FCE7D8"/>
<path d="M216.232 82.2005L218.507 65.1836C218.544 64.8786 218.085 64.7451 218.038 65.0549C217.281 70.7272 216.524 76.3995 215.768 82.0718C215.725 82.3769 216.185 82.5103 216.237 82.2005H216.232Z" fill="#2E1616"/>
<path d="M74.9264 76.0181C77.7407 89.1073 80.4096 102.235 84.3074 115.062C84.4012 115.357 84.8609 115.228 84.7765 114.933C80.8552 102.125 78.2098 88.9786 75.3955 75.8894C75.3298 75.5844 74.8654 75.7131 74.9264 76.0181Z" fill="#2E1616"/>
<path d="M172.301 130.896C172.751 138.455 173.893 145.956 175.711 153.3C175.728 153.363 175.769 153.417 175.824 153.449C175.88 153.482 175.947 153.491 176.009 153.474C176.071 153.456 176.124 153.415 176.156 153.358C176.188 153.301 176.197 153.234 176.18 153.171C174.37 145.865 173.235 138.403 172.789 130.882C172.789 130.572 172.296 130.568 172.32 130.882L172.301 130.896Z" fill="#2E1616"/>
<path d="M166.584 65.3551C167.8 64.6147 169.095 64.0182 170.444 63.5771C170.735 63.4818 170.608 63.0099 170.317 63.1005C168.929 63.5561 167.597 64.1702 166.345 64.9309C166.082 65.0929 166.321 65.5124 166.584 65.3503V65.3551Z" fill="#2E1616"/>
<path d="M250.74 66.3658C255.792 67.2381 259.394 70.6986 262.063 74.9457C262.227 75.2126 262.64 74.9695 262.476 74.7026C259.746 70.3411 256.036 66.7757 250.867 65.8843C250.567 65.8319 250.435 66.299 250.74 66.361V66.3658Z" fill="#2E1616"/>
<path d="M205.946 74.4976C209.192 77.2082 212.507 79.8235 215.89 82.3435C216.139 82.5294 216.359 82.1099 216.134 81.924C212.776 79.4263 209.492 76.8364 206.284 74.1544C206.045 73.959 205.707 74.3022 205.946 74.4976V74.4976Z" fill="#2E1616"/>
<path d="M196.43 81.8431C199.765 79.3502 203.071 76.8191 206.406 74.3262C206.65 74.1403 206.406 73.7208 206.167 73.9067C202.832 76.3996 199.525 78.9307 196.19 81.4237C195.942 81.6096 196.19 82.029 196.43 81.8431Z" fill="#2E1616"/>
<path d="M205.364 70.2028C207.462 89.9239 209.856 109.605 212.545 129.247C212.588 129.557 213.047 129.423 213.014 129.118C210.332 109.518 207.944 89.8794 205.852 70.2028C205.819 69.8977 205.341 69.8929 205.383 70.2028H205.364Z" fill="#2E1616"/>
<path d="M188.014 21.8931C187.315 23.938 186.171 32.3796 186.171 32.3796C186.171 32.3796 185.359 37.866 185.158 39.4009C184.22 46.6795 184.398 51.3794 190.2 53.4672C197.705 56.1746 207.977 49.7826 212.381 41.3314C216.786 32.8801 216.767 21.6357 214.225 17.2599C211.683 12.8841 206.42 11.416 201.035 12.0166C195.65 12.6172 190.744 13.9185 188.014 21.8931Z" fill="#FFB687"/>
<path d="M195.748 51.88L197.704 61.2226L205.87 74.9361L215.5 60.5743L210.401 43.0045L195.748 51.88Z" fill="#FFB687"/>
<path d="M200.848 11.2825C197.471 11.5542 191.373 12.8698 189.098 17.3266C186.823 21.7834 190.904 32.6942 203.568 32.6942C203.568 32.6942 204.975 35.8021 206.504 38.6668C208.034 41.5315 206.504 38.8336 205.867 40.6592C202.372 50.9742 204.22 57.8191 207.982 62.2378C212.203 67.1903 216.312 69.6403 231.965 68.6203C231.965 68.6203 236.064 73.3392 242.34 72.7815C248.616 72.2238 251.06 65.9748 251.06 65.9748C251.06 65.9748 248.677 63.8298 242.26 61.7659C240.384 61.17 238.011 60.0451 236.918 57.7333C235.107 53.92 234.329 51.5367 230.445 48.7148C224.145 44.1579 219.047 44.3295 219.361 37.5991C219.675 30.8686 220.37 20.668 215.271 15.9062C210.172 11.1443 205.444 10.9107 200.848 11.2825Z" fill="#4A2521"/>
<path d="M199.886 37.0796C199.886 38.1223 200.19 39.1416 200.76 40.0085C201.33 40.8755 202.14 41.5512 203.088 41.9502C204.036 42.3492 205.079 42.4536 206.086 42.2502C207.092 42.0468 208.016 41.5447 208.742 40.8074C209.467 40.0701 209.961 39.1308 210.161 38.1081C210.362 37.0855 210.259 36.0255 209.866 35.0622C209.474 34.0988 208.809 33.2755 207.956 32.6962C207.102 32.1169 206.099 31.8077 205.073 31.8077C203.698 31.8077 202.378 32.3632 201.405 33.3518C200.432 34.3405 199.886 35.6814 199.886 37.0796V37.0796Z" fill="#FFB687"/>
<path d="M220.975 127.927C224.668 136.564 228.242 145.254 231.698 153.996C231.81 154.282 232.275 154.158 232.167 153.867C228.696 145.087 225.1 136.357 221.379 127.679C221.257 127.393 220.844 127.641 220.966 127.927H220.975Z" fill="#2E1616"/>
<path d="M213.418 128.904C226.889 127.383 240.379 126.044 253.855 124.585C254.155 124.557 254.16 124.071 253.855 124.109C240.379 125.567 226.889 126.907 213.418 128.427C213.113 128.461 213.113 128.947 213.418 128.904V128.904Z" fill="#2E1616"/>
<path d="M244.375 107.897C246.974 113.449 249.574 119 252.176 124.552C252.307 124.833 252.72 124.59 252.588 124.309C249.99 118.754 247.39 113.203 244.788 107.654C244.657 107.373 244.244 107.616 244.375 107.897Z" fill="#2E1616"/>
<path d="M193.652 60.9557C194.44 67.853 195.205 74.7503 196.068 81.6333C196.11 81.9431 196.588 81.9431 196.537 81.6333C195.674 74.7503 194.909 67.853 194.121 60.9557C194.088 60.6506 193.61 60.6459 193.652 60.9557Z" fill="#2E1616"/>
<path d="M168.029 103.212C168.615 108.045 169.323 112.864 170.027 117.683C170.074 117.988 170.533 117.86 170.496 117.554C169.802 112.788 169.089 108.021 168.512 103.212C168.474 102.907 167.996 102.902 168.043 103.212H168.029Z" fill="#2E1616"/>
<path d="M77.2301 84.517C86.4375 82.3958 95.6497 80.2794 104.904 78.4157C105.204 78.3537 105.078 77.8866 104.777 77.939C95.5184 79.8028 86.3062 81.9192 77.1034 84.0403C76.8033 84.1118 76.9299 84.5789 77.2301 84.517Z" fill="#2E1616"/>
<path d="M206.72 50.4976C205.708 50.4985 204.717 50.1943 203.875 49.6233C203.032 49.0524 202.375 48.2403 201.986 47.2899C201.597 46.3394 201.495 45.2931 201.691 44.2834C201.887 43.2736 202.374 42.3457 203.089 41.6169C203.804 40.8881 204.716 40.3911 205.709 40.1888C206.702 39.9865 207.732 40.088 208.668 40.4803C209.605 40.8727 210.406 41.5383 210.97 42.3932C211.534 43.248 211.836 44.2536 211.838 45.2829C211.839 46.6638 211.301 47.9888 210.341 48.9666C209.382 49.9444 208.079 50.4951 206.72 50.4976V50.4976ZM206.72 41.0644C205.896 41.0635 205.09 41.3113 204.404 41.7765C203.718 42.2416 203.183 42.9032 202.868 43.6774C202.552 44.4516 202.47 45.3035 202.631 46.1253C202.792 46.9471 203.19 47.7017 203.774 48.2936C204.358 48.8855 205.101 49.2879 205.91 49.45C206.719 49.6121 207.557 49.5265 208.318 49.2041C209.08 48.8817 209.729 48.3369 210.186 47.6389C210.642 46.9408 210.884 46.1209 210.881 45.2829C210.876 44.164 210.436 43.0925 209.656 42.3022C208.877 41.5119 207.822 41.0669 206.72 41.0644Z" fill="#FFE100"/>
<path d="M192.31 31.026C192.282 32.7658 194.107 32.089 195.8 33.2044C197.352 34.2292 198.572 34.4628 198.91 33.5619C199.313 32.4751 198.131 30.6399 195.669 29.8153C193.347 29.0431 192.31 29.7533 192.31 31.026Z" fill="#4A2521"/>
<path d="M194.107 33.4666C192.991 33.1758 192.7 34.8346 192.742 35.5401C192.742 36.0167 192.902 36.5744 193.404 36.6984C194.14 36.8795 194.454 35.8833 194.567 35.3303C194.68 34.7774 194.834 33.6572 194.107 33.4666Z" fill="#332323"/>
<path d="M189.778 30.4587C189.239 32.0221 187.902 30.9353 186.063 31.2118C185.238 31.1069 185.397 28.4805 186.509 28.1421H187.039C189.464 28.2279 190.196 29.267 189.778 30.4587Z" fill="#4A2521"/>
<path d="M187.152 32.1224C188.291 32.2225 188.015 33.886 187.757 34.539C187.588 34.968 187.288 35.4638 186.753 35.4066C185.998 35.3303 186.031 34.2816 186.101 33.7287C186.171 33.1758 186.396 32.0556 187.152 32.1224Z" fill="#332323"/>
<path d="M188.015 38.9243C188.959 37.4011 189.604 35.7063 189.914 33.9336C189.971 33.6286 189.511 33.4951 189.445 33.8049C189.136 35.5383 188.499 37.1943 187.569 38.6812C187.405 38.9434 187.818 39.1865 187.982 38.9243H188.015Z" fill="#2E1616"/>
<path d="M187.62 39.0337C188.188 39.987 189.3 40.1205 190.303 39.9203C190.608 39.8583 190.477 39.3912 190.177 39.4436C189.394 39.6009 188.484 39.5485 188.033 38.7763C188.001 38.7207 187.948 38.6804 187.887 38.6643C187.825 38.6482 187.76 38.6576 187.705 38.6905C187.65 38.7234 187.611 38.777 187.595 38.8396C187.579 38.9021 187.588 38.9685 187.62 39.0242V39.0337Z" fill="#2E1616"/>
<path d="M190.359 43.5574C191.462 43.2121 192.402 42.4697 193.005 41.4697C193.169 41.2027 192.751 40.9596 192.592 41.2218C192.055 42.1047 191.222 42.7601 190.247 43.0665C189.956 43.157 190.082 43.6289 190.378 43.5431L190.359 43.5574Z" fill="#2E1616"/>
<path d="M206.007 34.2863C207.279 35.3111 208.081 36.803 207.574 38.4666C207.485 38.7669 207.945 38.8956 208.043 38.5953C208.592 36.7792 207.752 35.0728 206.35 33.9431C206.111 33.7524 205.768 34.0908 206.012 34.2863H206.007Z" fill="#2E1616"/>
<path d="M196.237 54.2348C198.635 53.6336 200.827 52.3814 202.578 50.6122C202.804 50.3977 202.466 50.0545 202.241 50.269C200.548 51.9797 198.429 53.1893 196.11 53.7677C195.81 53.8392 195.937 54.3111 196.237 54.2443V54.2348Z" fill="#2E1616"/>
<path d="M76.8641 75.613C76.8641 75.613 74.228 65.3171 75.8321 56.9326C77.4363 48.5481 86.7751 28.3996 89.1203 27.5178C91.4656 26.636 92.6007 29.0956 91.9862 32.8088C91.3718 36.522 89.5894 44.4584 89.5894 44.4584C89.5894 44.4584 98.4169 41.403 101.316 40.7928C104.214 40.1827 104.285 43.8387 103.117 45.5595C101.949 47.2802 98.7077 49.3728 98.7077 49.3728C98.7077 49.3728 103.576 49.7732 105.861 50.0973C108.145 50.4214 108.717 55.1642 104.055 56.3892C102.474 56.8087 99.022 57.4617 99.022 57.4617C99.022 57.4617 101.316 62.0615 103.028 70.5461L76.8641 75.613Z" fill="#FFB687"/>
<path d="M85.6012 46.0408C86.9521 45.5641 88.317 45.0874 89.6772 44.6108C89.9681 44.5107 89.8461 44.0388 89.5506 44.1341C88.1904 44.6108 86.8254 45.0588 85.4746 45.5641C85.1884 45.669 85.3104 46.1361 85.6012 46.0408Z" fill="#2E1616"/>
<path d="M88.121 49.4393C91.6717 49.5108 95.2225 49.5632 98.7732 49.63C98.8273 49.6189 98.8761 49.5891 98.9111 49.5457C98.9461 49.5022 98.9652 49.4478 98.9652 49.3916C98.9652 49.3355 98.9461 49.2811 98.9111 49.2376C98.8761 49.1942 98.8273 49.1644 98.7732 49.1533C95.2225 49.0866 91.6717 49.0341 88.121 48.9626C88.0669 48.9737 88.0181 49.0035 87.9831 49.0469C87.9481 49.0904 87.929 49.1448 87.929 49.201C87.929 49.2571 87.9481 49.3116 87.9831 49.355C88.0181 49.3985 88.0669 49.4282 88.121 49.4393Z" fill="#2E1616"/>
<path d="M75.2215 76.1899C75.7234 76.0803 76.23 75.9897 76.7319 75.8801C77.0321 75.8133 76.9054 75.3462 76.6052 75.4034C76.1034 75.513 75.5968 75.6084 75.0949 75.718C74.7947 75.78 74.9213 76.2519 75.2215 76.1947V76.1899Z" fill="#2E1616"/>
<path d="M64.9971 152.222H305.212C309.902 152.222 311.778 158.381 307.918 161.083L252.856 199.526C250.545 201.138 247.808 202 245.005 202H4.78976C0.0992608 202 -1.77694 195.842 2.08334 193.139L57.1499 154.696C59.4596 153.085 62.1955 152.222 64.9971 152.222V152.222Z" fill="#CDC5BC"/>
<path d="M245.004 196.809H0.394469C0.340291 196.798 0.291555 196.768 0.25654 196.725C0.221525 196.681 0.202393 196.627 0.202393 196.571C0.202393 196.515 0.221525 196.46 0.25654 196.417C0.291555 196.373 0.340291 196.344 0.394469 196.333H245.004C247.76 196.336 250.451 195.486 252.72 193.897L308.959 154.701C309.011 154.664 309.076 154.65 309.138 154.662C309.201 154.673 309.256 154.71 309.292 154.763C309.328 154.816 309.342 154.881 309.331 154.945C309.319 155.008 309.284 155.065 309.231 155.101L252.987 194.288C250.641 195.934 247.856 196.813 245.004 196.809Z" fill="#2E1616"/>
<path d="M183.558 131.192H99.4386C98.8073 131.191 98.1929 130.984 97.6863 130.601C97.1796 130.218 96.8073 129.68 96.6243 129.066L76.6052 61.6135C76.5176 61.3162 76.4994 61.0021 76.5523 60.6964C76.6052 60.3907 76.7277 60.1018 76.9099 59.8527C77.0922 59.6036 77.3292 59.4012 77.602 59.2617C77.8748 59.1222 78.176 59.0494 78.4814 59.0491H162.624C163.256 59.0486 163.871 59.2552 164.378 59.6382C164.885 60.0212 165.257 60.5601 165.439 61.175L185.434 128.623C185.523 128.92 185.542 129.235 185.489 129.541C185.437 129.848 185.314 130.137 185.132 130.387C184.95 130.637 184.712 130.839 184.439 130.979C184.166 131.119 183.864 131.192 183.558 131.192Z" fill="#FBFBFB"/>
<path d="M156.939 96.6004H104.692C104.482 96.5998 104.277 96.531 104.109 96.4041C103.94 96.2772 103.816 96.0988 103.754 95.895L101.615 88.6592C101.57 88.5108 101.56 88.3536 101.586 88.2005C101.612 88.0475 101.673 87.9028 101.764 87.7783C101.856 87.6538 101.975 87.553 102.112 87.4841C102.249 87.4152 102.4 87.3801 102.553 87.3818H154.786C154.996 87.3817 155.201 87.4502 155.37 87.5772C155.539 87.7042 155.663 87.883 155.724 88.0872L157.873 95.3325C157.915 95.4799 157.923 95.6353 157.896 95.7863C157.868 95.9374 157.807 96.08 157.717 96.2029C157.626 96.3258 157.509 96.4257 157.374 96.4947C157.239 96.5637 157.09 96.5999 156.939 96.6004V96.6004Z" fill="#74C0EB"/>
<path d="M163.985 118.184H111.738C111.527 118.184 111.323 118.115 111.154 117.988C110.985 117.861 110.861 117.682 110.799 117.478L108.661 110.257C108.616 110.108 108.606 109.951 108.632 109.798C108.658 109.645 108.719 109.5 108.81 109.376C108.902 109.251 109.021 109.15 109.158 109.081C109.295 109.013 109.446 108.978 109.599 108.979H161.823C162.033 108.979 162.237 109.048 162.406 109.175C162.575 109.302 162.699 109.48 162.761 109.685L164.9 116.906C164.944 117.053 164.954 117.208 164.93 117.359C164.905 117.51 164.846 117.653 164.757 117.777C164.668 117.901 164.552 118.003 164.418 118.073C164.284 118.144 164.136 118.181 163.985 118.184V118.184Z" fill="#74C0EB"/>
<path d="M160.279 107.344H108.026C107.816 107.346 107.611 107.278 107.442 107.151C107.272 107.024 107.148 106.844 107.088 106.639L104.945 99.4176C104.901 99.2689 104.892 99.1119 104.918 98.9591C104.945 98.8062 105.006 98.6618 105.097 98.5372C105.188 98.4127 105.307 98.3115 105.443 98.2417C105.58 98.1719 105.73 98.1355 105.883 98.1354H158.135C158.345 98.1345 158.55 98.2027 158.719 98.3299C158.888 98.457 159.013 98.6362 159.073 98.8408L161.217 106.067C161.261 106.215 161.27 106.372 161.244 106.525C161.217 106.678 161.156 106.822 161.065 106.946C160.973 107.07 160.855 107.171 160.718 107.24C160.582 107.309 160.431 107.345 160.279 107.344V107.344Z" fill="#765BA7"/>
<path d="M152.076 91.9959C152.47 93.259 151.78 94.2838 150.537 94.2838C149.875 94.2436 149.24 94.0047 148.711 93.5975C148.183 93.1902 147.785 92.6329 147.568 91.9959C147.174 90.7327 147.864 89.7079 149.111 89.7079C149.773 89.7491 150.407 89.9884 150.935 90.3955C151.462 90.8027 151.859 91.3596 152.076 91.9959V91.9959Z" fill="#FFF1DE"/>
<path d="M128.098 91.5192H108.994C108.869 91.5192 108.75 91.5694 108.662 91.6588C108.574 91.7482 108.525 91.8694 108.525 91.9958C108.525 92.1222 108.574 92.2435 108.662 92.3329C108.75 92.4223 108.869 92.4725 108.994 92.4725H128.098C128.223 92.4725 128.342 92.4223 128.43 92.3329C128.518 92.2435 128.567 92.1222 128.567 91.9958C128.567 91.8694 128.518 91.7482 128.43 91.6588C128.342 91.5694 128.223 91.5192 128.098 91.5192Z" fill="#FFF8F5"/>
<path d="M144.665 91.5193H132.643C132.519 91.5193 132.399 91.5695 132.311 91.6589C132.223 91.7483 132.174 91.8695 132.174 91.9959C132.174 92.1224 132.223 92.2436 132.311 92.333C132.399 92.4224 132.519 92.4726 132.643 92.4726H144.665C144.789 92.4726 144.909 92.4224 144.997 92.333C145.085 92.2436 145.134 92.1224 145.134 91.9959C145.134 91.8695 145.085 91.7483 144.997 91.6589C144.909 91.5695 144.789 91.5193 144.665 91.5193Z" fill="#FFF8F5"/>
<path d="M155.964 102.959C156.358 104.222 155.668 105.247 154.42 105.247C153.759 105.206 153.125 104.967 152.597 104.559C152.07 104.152 151.673 103.595 151.456 102.959C151.062 101.691 151.752 100.666 152.995 100.666C153.657 100.708 154.293 100.947 154.821 101.356C155.349 101.764 155.747 102.322 155.964 102.959V102.959Z" fill="#FFF1DE"/>
<path d="M119.726 102.483H112.882C112.758 102.483 112.639 102.533 112.551 102.622C112.463 102.712 112.413 102.833 112.413 102.959C112.413 103.086 112.463 103.207 112.551 103.296C112.639 103.386 112.758 103.436 112.882 103.436H119.726C119.85 103.436 119.97 103.386 120.057 103.296C120.145 103.207 120.195 103.086 120.195 102.959C120.195 102.833 120.145 102.712 120.057 102.622C119.97 102.533 119.85 102.483 119.726 102.483Z" fill="#FFF8F5"/>
<path d="M148.548 102.483H124.228C124.104 102.483 123.984 102.533 123.896 102.622C123.808 102.712 123.759 102.833 123.759 102.959C123.759 103.086 123.808 103.207 123.896 103.296C123.984 103.386 124.104 103.436 124.228 103.436H148.548C148.673 103.436 148.792 103.386 148.88 103.296C148.968 103.207 149.017 103.086 149.017 102.959C149.017 102.833 148.968 102.712 148.88 102.622C148.792 102.533 148.673 102.483 148.548 102.483Z" fill="#FFF8F5"/>
<path d="M159.726 113.579C160.12 114.847 159.435 115.872 158.188 115.872C157.526 115.83 156.891 115.59 156.364 115.182C155.836 114.774 155.439 114.216 155.223 113.579C154.829 112.316 155.519 111.291 156.762 111.291C157.423 111.332 158.058 111.572 158.585 111.979C159.113 112.386 159.51 112.943 159.726 113.579V113.579Z" fill="#FFF1DE"/>
<path d="M132.15 113.093H116.648C116.524 113.093 116.405 113.143 116.317 113.233C116.229 113.322 116.179 113.443 116.179 113.57C116.179 113.696 116.229 113.817 116.317 113.907C116.405 113.996 116.524 114.046 116.648 114.046H132.15C132.275 114.046 132.394 113.996 132.482 113.907C132.57 113.817 132.619 113.696 132.619 113.57C132.619 113.443 132.57 113.322 132.482 113.233C132.394 113.143 132.275 113.093 132.15 113.093Z" fill="#FFF8F5"/>
<path d="M152.315 113.093H136.813C136.689 113.093 136.569 113.143 136.481 113.233C136.393 113.322 136.344 113.443 136.344 113.57C136.344 113.696 136.393 113.817 136.481 113.907C136.569 113.996 136.689 114.046 136.813 114.046H152.315C152.44 114.046 152.559 113.996 152.647 113.907C152.735 113.817 152.784 113.696 152.784 113.57C152.784 113.443 152.735 113.322 152.647 113.233C152.559 113.143 152.44 113.093 152.315 113.093Z" fill="#FFF8F5"/>
<path d="M157.133 83.5352H97.4883C97.2484 83.5362 97.0146 83.4583 96.8219 83.3131C96.6291 83.1679 96.4877 82.9632 96.4189 82.7296L93.9752 74.4834C93.9246 74.3144 93.9137 74.1358 93.9433 73.9618C93.9729 73.7878 94.0423 73.6232 94.1458 73.4814C94.2494 73.3396 94.3842 73.2244 94.5395 73.1451C94.6947 73.0658 94.8661 73.0246 95.0399 73.0248H154.698C154.938 73.0253 155.171 73.1038 155.364 73.2488C155.556 73.3938 155.698 73.5976 155.768 73.8303L158.212 82.0766C158.263 82.2467 158.273 82.4266 158.243 82.6018C158.213 82.7769 158.142 82.9422 158.037 83.0844C157.932 83.2265 157.795 83.3414 157.638 83.4198C157.481 83.4981 157.308 83.5376 157.133 83.5352Z" fill="#74C0EB"/>
<path d="M132.272 79.822H119.894C119.77 79.822 119.65 79.8722 119.562 79.9616C119.474 80.051 119.425 80.1723 119.425 80.2987C119.425 80.4251 119.474 80.5463 119.562 80.6357C119.65 80.7251 119.77 80.7753 119.894 80.7753H132.272C132.397 80.7753 132.516 80.7251 132.604 80.6357C132.692 80.5463 132.741 80.4251 132.741 80.2987C132.741 80.1723 132.692 80.051 132.604 79.9616C132.516 79.8722 132.397 79.822 132.272 79.822Z" fill="#FFF8F5"/>
<path d="M167.489 68.082H78.5241L76.6057 61.6184C76.5171 61.3208 76.4983 61.0062 76.5508 60.6999C76.6033 60.3936 76.7256 60.104 76.9079 59.8543C77.0903 59.6046 77.3276 59.4017 77.6009 59.2619C77.8742 59.1221 78.1759 59.0493 78.4819 59.0492H162.625C163.257 59.048 163.872 59.2543 164.379 59.6374C164.886 60.0205 165.258 60.5599 165.439 61.1751L167.489 68.082Z" fill="#DDDDDD"/>
<path d="M94.2083 63.8727C94.5788 65.0595 93.9315 66.0224 92.7589 66.0224C92.1375 65.9837 91.5413 65.759 91.0454 65.3764C90.5496 64.9938 90.1764 64.4705 89.9728 63.8727C89.6022 62.681 90.2495 61.7181 91.4221 61.7181C92.0441 61.7572 92.6407 61.9827 93.1366 62.3661C93.6325 62.7496 94.0055 63.2739 94.2083 63.8727Z" fill="#FFE100"/>
<path d="M86.094 63.8727C86.4646 65.0595 85.8173 66.0224 84.6447 66.0224C84.0233 65.9837 83.427 65.759 82.9312 65.3764C82.4353 64.9938 82.0621 64.4705 81.8585 63.8727C81.488 62.681 82.1352 61.7181 83.3079 61.7181C83.9298 61.7572 84.5265 61.9827 85.0224 62.3661C85.5183 62.7496 85.8912 63.2739 86.094 63.8727Z" fill="#CC3345"/>
<path d="M142.512 76.1659C131.499 76.2422 120.487 76.2533 109.477 76.1993C109.352 76.1993 109.233 76.2495 109.145 76.3389C109.057 76.4283 109.008 76.5495 109.008 76.6759C109.008 76.8023 109.057 76.9236 109.145 77.013C109.233 77.1024 109.352 77.1526 109.477 77.1526C120.487 77.2034 131.499 77.1923 142.512 77.1192C142.636 77.1192 142.756 77.069 142.844 76.9796C142.932 76.8902 142.981 76.769 142.981 76.6426C142.981 76.5161 142.932 76.3949 142.844 76.3055C142.756 76.2161 142.636 76.1659 142.512 76.1659Z" fill="#FFF8F5"/>
<path d="M166.87 178.219L194.107 159.758C194.449 159.528 194.709 159.191 194.847 158.799C194.986 158.406 194.997 157.979 194.878 157.58C194.759 157.181 194.517 156.831 194.187 156.583C193.857 156.335 193.458 156.202 193.047 156.202H147.212L144.271 178.219H166.87Z" fill="#DDDDDD"/>
<path d="M166.869 178.219H81.7555C81.2421 178.22 80.7422 178.053 80.3298 177.742C79.9175 177.431 79.6148 176.993 79.4665 176.494L61.8443 117.054C61.7588 116.764 61.7412 116.457 61.793 116.158C61.8449 115.86 61.9646 115.578 62.1428 115.335C62.321 115.092 62.5526 114.894 62.8192 114.758C63.0858 114.622 63.38 114.551 63.6783 114.552H146.231C146.745 114.552 147.245 114.72 147.657 115.032C148.069 115.344 148.372 115.782 148.52 116.282L166.869 178.219Z" fill="#DDDDDD"/>
<path d="M162.194 178.205C162.143 178.205 162.094 178.188 162.053 178.157C162.012 178.126 161.983 178.083 161.969 178.033L144.529 119.218C144.399 118.766 144.128 118.37 143.756 118.089C143.385 117.808 142.933 117.657 142.47 117.659H62.2626C62.2085 117.648 62.1597 117.619 62.1247 117.575C62.0897 117.532 62.0706 117.477 62.0706 117.421C62.0706 117.365 62.0897 117.311 62.1247 117.267C62.1597 117.224 62.2085 117.194 62.2626 117.183H142.47C143.037 117.181 143.588 117.366 144.042 117.709C144.496 118.053 144.829 118.537 144.989 119.089L162.424 177.89C162.433 177.921 162.436 177.953 162.433 177.985C162.43 178.017 162.421 178.048 162.406 178.077C162.392 178.105 162.371 178.13 162.347 178.151C162.323 178.171 162.294 178.186 162.264 178.196L162.194 178.205Z" fill="#C2A394"/>
<path d="M160.106 156.45C161.912 162.423 163.675 168.405 165.476 174.377C165.57 174.673 166.03 174.549 165.945 174.249C164.14 168.276 162.376 162.294 160.57 156.321C160.481 156.021 160.017 156.15 160.101 156.45H160.106Z" fill="#C2A394"/>
<path d="M165.828 174.521C174.984 168.6 184.106 162.625 193.193 156.593C193.446 156.426 193.193 156.002 192.949 156.174C183.862 162.212 174.742 168.187 165.589 174.101C165.331 174.268 165.589 174.692 165.828 174.521Z" fill="#C2A394"/>
<path d="M113.478 141.569C115.654 144.205 114.983 147.522 111.972 148.981C108.961 150.439 104.758 149.491 102.591 146.86C100.424 144.229 101.085 140.906 104.097 139.448C107.108 137.989 111.297 138.942 113.478 141.569Z" fill="#9D9D9D"/>
<path d="M222.542 151.917C222.542 151.917 214.305 155.144 208.236 152.818C208.236 152.818 207.082 155.073 202.757 156.155C198.433 157.237 196.683 155.201 196.683 155.201C196.683 155.201 192.532 157.751 189.671 152.646C189.671 152.646 187.278 156.374 184.399 158.452C181.748 160.359 178.746 158.648 179.478 156.474C180.21 154.3 183.526 147.008 183.526 147.008C183.526 147.008 180.632 147.289 179.971 145.625C179.309 143.962 179.971 142.965 181.19 142.041C182.41 141.116 190.928 135.148 194.732 133.566C205.374 129.133 213.189 128.351 213.189 128.351C213.189 128.351 221.285 148.514 222.542 151.917Z" fill="#FFB687"/>
<path d="M189.928 153.009C189.68 150.006 189.562 146.698 191.832 144.429C192.053 144.209 191.715 143.866 191.495 144.085C189.149 146.469 189.187 149.882 189.45 153.028C189.478 153.337 189.956 153.342 189.919 153.028L189.928 153.009Z" fill="#2E1616"/>
<path d="M196.94 155.182C195.916 153.834 195.316 152.202 195.218 150.502C195.12 148.801 195.529 147.11 196.392 145.649C196.424 145.593 196.433 145.527 196.417 145.464C196.402 145.402 196.362 145.348 196.307 145.315C196.252 145.282 196.187 145.273 196.126 145.289C196.064 145.305 196.011 145.345 195.979 145.401C195.072 146.936 194.64 148.712 194.739 150.5C194.837 152.287 195.462 154.003 196.532 155.425C196.715 155.673 197.128 155.425 196.945 155.182H196.94Z" fill="#2E1616"/>
<path d="M203.198 149.195C203.761 148.801 204.42 148.574 205.103 148.54C205.786 148.505 206.464 148.665 207.063 149C207.724 149.396 208.212 150.034 208.427 150.783C208.642 151.532 208.569 152.336 208.221 153.032C208.085 153.314 208.498 153.557 208.634 153.275C209.017 152.526 209.124 151.662 208.936 150.84C208.747 150.018 208.276 149.291 207.607 148.79C206.923 148.31 206.111 148.053 205.28 148.053C204.449 148.053 203.638 148.31 202.954 148.79C202.696 148.952 202.954 149.376 203.198 149.21V149.195Z" fill="#2E1616"/>
<path d="M203.24 149.324C203.77 148.371 204.314 147.441 204.873 146.507C205.032 146.24 204.619 145.997 204.46 146.264C203.903 147.192 203.359 148.131 202.828 149.081C202.677 149.353 203.09 149.6 203.24 149.324Z" fill="#2E1616"/>
<path d="M183.779 147.122C184.852 145.002 186.093 142.974 187.489 141.059C188.976 139.023 190.665 136.807 192.696 135.31C192.944 135.124 192.696 134.705 192.457 134.891C190.58 136.283 188.995 138.27 187.574 140.134C185.971 142.244 184.558 144.497 183.352 146.864C183.212 147.141 183.624 147.389 183.765 147.112L183.779 147.122Z" fill="#2E1616"/>
<path d="M45.1319 159.892H23.7385C23.7385 159.892 27.1438 177.809 28.3211 183.153C29.4985 188.496 34.3156 192.209 45.1319 192.209C55.9482 192.209 60.7654 188.515 61.938 183.153C63.1106 177.79 66.5253 159.892 66.5253 159.892H45.1319Z" fill="#FFF8F5"/>
<path d="M45.1319 163.634C56.9472 163.634 66.5253 161.937 66.5253 159.844C66.5253 157.751 56.9472 156.055 45.1319 156.055C33.3167 156.055 23.7385 157.751 23.7385 159.844C23.7385 161.937 33.3167 163.634 45.1319 163.634Z" fill="#FFF8F5"/>
<path d="M29.1651 159.777C40.0845 157.37 51.6279 157.332 62.4676 160.078C62.5298 160.095 62.5961 160.086 62.652 160.053C62.7079 160.021 62.7487 159.967 62.7655 159.904C62.7823 159.84 62.7737 159.773 62.7416 159.716C62.7095 159.659 62.6565 159.618 62.5943 159.601C51.5731 156.902 40.0906 156.799 29.0243 159.301C28.7242 159.367 28.8508 159.835 29.151 159.777H29.1651Z" fill="#2E1616"/>
<path d="M30.7372 122.197C29.3863 118.93 27.9088 115.724 26.3047 112.578C24.8366 109.718 23.4106 106.382 21.2061 103.998C17.3693 99.8799 12.3457 103.336 12.9274 108.241C13.5418 113.393 16.8439 122.264 21.4875 127.555C23.3074 129.652 25.6574 132.512 28.3169 133.466C30.4136 134.228 32.332 133.065 32.9089 130.915C33.6688 128.055 31.7926 124.752 30.7372 122.197Z" fill="#53962F"/>
<path d="M69.368 109.418C68.397 105.347 63.1671 108.665 61.5536 110.228C58.5986 113.088 52.6416 120.176 55.1651 124.733C57.6558 129.204 62.4635 124.733 64.0161 122.112C65.8735 118.98 70.2826 113.269 69.368 109.418Z" fill="#53962F"/>
<path d="M49.8553 141.473C53.3921 128.994 59.8118 117.555 68.5798 108.107C68.7908 107.878 68.4531 107.535 68.2374 107.764C59.4196 117.267 52.9602 128.771 49.3956 141.321C49.3788 141.384 49.3874 141.452 49.4195 141.508C49.4516 141.565 49.5046 141.607 49.5668 141.624C49.629 141.641 49.6953 141.632 49.7512 141.599C49.807 141.567 49.8479 141.513 49.8647 141.45L49.8553 141.473Z" fill="#2E1616"/>
<path d="M46.3235 112.492C43.3591 110.905 40.4322 112.254 38.8187 115.057C35.6761 120.524 36.6282 127.822 36.3093 133.88C36.1982 135.844 36.3322 137.814 36.708 139.743C37.2333 142.532 38.0776 147.031 40.9998 148.237C42.6227 148.905 44.5223 148.318 45.9389 147.284C53.1153 141.998 53.514 124.161 50.0947 116.835C49.3512 115.085 48.0991 113.608 46.5064 112.602L46.3235 112.492Z" fill="#53962F"/>
<path d="M71.7327 133.428C71.0573 131.283 68.8387 130.591 66.8171 130.858C59.9267 131.75 51.071 143.437 50.8693 150.359C50.8178 152.265 51.8075 154.301 53.7962 154.649C58.4023 155.521 62.7082 149.882 65.1941 146.745C67.6801 143.609 73.107 137.803 71.7327 133.428Z" fill="#53962F"/>
<path d="M35.2492 146.812C32.2239 141.659 22.8663 136.12 19.6205 136.43C16.8765 136.692 15.4366 138.909 16.4544 141.521C18.2462 146.126 30.4696 158.514 35.4932 151.927C36.6095 150.473 36.3374 148.671 35.2492 146.812Z" fill="#53962F"/>
<path d="M46.9056 164.139C49.1758 157.675 53.0642 151.898 57.3466 146.641C61.5991 141.518 66.1992 136.705 71.1132 132.236C71.3431 132.026 71.0007 131.683 70.7755 131.893C65.6493 136.543 60.872 141.577 56.4836 146.95C52.3653 152.098 48.6504 157.723 46.4459 164.01C46.3427 164.306 46.8024 164.434 46.9149 164.139H46.9056Z" fill="#2E1616"/>
<path d="M43.4723 112.087C41.8143 129.343 42.0345 146.732 44.129 163.939C44.1665 164.248 44.6449 164.248 44.598 163.939C42.5014 146.732 42.2811 129.343 43.9414 112.087C43.9695 111.777 43.4723 111.777 43.4723 112.087Z" fill="#2E1616"/>
<path d="M14.8604 103.307C19.5509 109.761 23.6457 116.825 27.4263 123.875C29.3869 127.526 31.0708 131.321 32.8063 135.091C34.5418 138.861 36.3054 142.761 37.9189 146.66C40.0437 151.803 41.9668 157.022 43.8243 162.27C43.9275 162.561 44.3918 162.432 44.2933 162.137C38.388 145.516 31.4273 129.176 22.3699 114.061C20.1232 110.324 17.8248 106.582 15.2732 103.064C15.0903 102.816 14.6775 103.064 14.8604 103.307V103.307Z" fill="#2E1616"/>
<path d="M16.9564 138.27C29.269 142.265 37.6603 152.894 43.575 164.062C43.7204 164.339 44.1332 164.091 43.9878 163.819C37.9933 152.532 29.5129 141.836 17.0831 137.803C16.7876 137.708 16.6656 138.18 16.9564 138.28V138.27Z" fill="#2E1616"/>
<path d="M23.9547 160.502C25.6573 161.855 27.815 162.542 29.8882 163.018C32.5868 163.613 35.3262 163.997 38.0825 164.167C44.3449 164.703 50.6488 164.432 56.8445 163.362C60.1229 162.829 63.316 161.851 66.3381 160.454C66.6148 160.321 66.3709 159.901 66.0942 160.035C59.0584 163.481 50.6155 164.072 42.9231 163.905C39.5459 163.862 36.1753 163.59 32.8338 163.09C29.9492 162.637 26.633 162.037 24.2783 160.158C24.0391 159.968 23.6967 160.311 23.9359 160.502H23.9547Z" fill="#2E1616"/>
<path d="M253.227 162.208V168.619H229.479L200.942 188.539C200.853 188.603 200.786 188.694 200.751 188.799C200.715 188.904 200.714 189.018 200.746 189.123C200.778 189.229 200.843 189.322 200.93 189.389C201.018 189.455 201.124 189.491 201.233 189.493H234.296L264.203 168.615V162.208H253.227Z" fill="#870016"/>
<path d="M233.601 182.905H202.841V188.458H233.601V182.905Z" fill="#FFF8F5"/>
<path d="M230.459 162.208H264.203L234.296 183.086H201.223C201.114 183.085 201.008 183.049 200.921 182.982C200.833 182.916 200.769 182.823 200.736 182.717C200.704 182.611 200.706 182.498 200.741 182.393C200.776 182.288 200.843 182.197 200.932 182.133L228.658 162.776C229.188 162.406 229.816 162.208 230.459 162.208V162.208Z" fill="#EA505B"/>
<path d="M234.935 182.49L263.429 162.504C263.683 162.327 263.429 161.903 263.19 162.084L234.695 182.085C234.442 182.261 234.695 182.681 234.935 182.504V182.49Z" fill="#2E1616"/>
<path d="M235.05 188.877V182.28C235.039 182.225 235.01 182.176 234.967 182.14C234.925 182.105 234.871 182.085 234.816 182.085C234.761 182.085 234.707 182.105 234.664 182.14C234.621 182.176 234.592 182.225 234.581 182.28V188.877C234.592 188.932 234.621 188.982 234.664 189.018C234.707 189.053 234.761 189.073 234.816 189.073C234.871 189.073 234.925 189.053 234.967 189.018C235.01 188.982 235.039 188.932 235.05 188.877V188.877Z" fill="#2E1616"/>
<path d="M261.261 156.245V160.116H234.112L205.575 180.036C205.486 180.099 205.419 180.19 205.383 180.295C205.348 180.4 205.347 180.514 205.379 180.62C205.411 180.726 205.476 180.819 205.563 180.885C205.651 180.951 205.757 180.988 205.866 180.989H238.929L268.836 160.111V156.241L261.261 156.245Z" fill="#E68215"/>
<path d="M238.236 176.661H207.476V179.954H238.236V176.661Z" fill="#FFF8F5"/>
<path d="M235.092 156.245H268.836L238.929 177.123H205.866C205.757 177.122 205.651 177.086 205.563 177.019C205.476 176.953 205.411 176.86 205.379 176.754C205.347 176.648 205.348 176.535 205.383 176.43C205.419 176.325 205.486 176.234 205.575 176.17L233.301 156.822C233.827 156.451 234.452 156.25 235.092 156.245V156.245Z" fill="#FFAC45"/>
<path d="M239.216 177.409L268.705 156.722C268.953 156.546 268.705 156.126 268.461 156.303L238.972 176.99C238.723 177.166 238.972 177.586 239.216 177.409Z" fill="#2E1616"/>
<path d="M239.314 180.584V177.199C239.303 177.144 239.274 177.095 239.231 177.059C239.188 177.024 239.135 177.004 239.079 177.004C239.024 177.004 238.971 177.024 238.928 177.059C238.885 177.095 238.856 177.144 238.845 177.199V180.584C238.856 180.639 238.885 180.688 238.928 180.724C238.971 180.759 239.024 180.779 239.079 180.779C239.135 180.779 239.188 180.759 239.231 180.724C239.274 180.688 239.303 180.639 239.314 180.584Z" fill="#2E1616"/>
</g>
<defs>
<clipPath id="clip0_25_27188">
<rect width="310" height="202" fill="white"/>
</clipPath>
</defs>
</svg>
