<svg width="112" height="106" viewBox="0 0 112 106" fill="none" xmlns="http://www.w3.org/2000/svg">
<g clip-path="url(#clip0_460_122874)">
<path d="M59.345 99.0242C85.0587 99.0242 105.904 78.1791 105.904 52.4653C105.904 26.7516 85.0587 5.90649 59.345 5.90649C33.6312 5.90649 12.7861 26.7516 12.7861 52.4653C12.7861 78.1791 33.6312 99.0242 59.345 99.0242Z" fill="#F3F3F3"/>
<path d="M83.0705 27.7615H82.9342V27.707L83.0705 27.7615Z" fill="#FBFBFB"/>
<path d="M84.9703 31.8882H36.7499C35.5348 31.8882 34.5498 32.8732 34.5498 34.0883V72.3305C34.5498 73.5456 35.5348 74.5306 36.7499 74.5306H84.9703C86.1854 74.5306 87.1704 73.5456 87.1704 72.3305V34.0883C87.1704 32.8732 86.1854 31.8882 84.9703 31.8882Z" fill="#FBFBFB"/>
<path d="M41.6252 54.0265C43.5462 54.0265 45.1034 52.4693 45.1034 50.5483C45.1034 48.6273 43.5462 47.0701 41.6252 47.0701C39.7042 47.0701 38.147 48.6273 38.147 50.5483C38.147 52.4693 39.7042 54.0265 41.6252 54.0265Z" fill="#765BA7"/>
<path d="M41.0408 51.9725C40.9587 51.9725 40.8765 51.9451 40.8126 51.8812L39.7719 50.8405C39.6441 50.7127 39.6441 50.5118 39.7719 50.3931C39.8997 50.2745 40.1005 50.2653 40.2192 50.3931L41.0317 51.2056L43.0219 49.2155C43.1497 49.0877 43.3505 49.0877 43.4692 49.2155C43.5879 49.3433 43.597 49.5441 43.4692 49.6628L41.2508 51.8812C41.1869 51.9451 41.1047 51.9725 41.0226 51.9725H41.0408Z" fill="#FBFBFB"/>
<g style="mix-blend-mode:hard-light" opacity="0.19">
<g style="mix-blend-mode:hard-light">
<path d="M45.1051 50.5483C45.1051 52.4655 43.544 54.0266 41.6268 54.0266C41.4077 54.0266 41.1978 54.0083 40.9878 53.9718C42.6037 53.6705 43.827 52.2555 43.827 50.5575C43.827 48.8594 42.6037 47.4353 40.9878 47.1432C41.1978 47.1066 41.4077 47.0884 41.6268 47.0884C43.544 47.0884 45.1051 48.6403 45.1051 50.5666V50.5483Z" fill="#412B71"/>
</g>
</g>
<path d="M41.423 65.6388C43.344 65.6388 44.9013 64.0816 44.9013 62.1606C44.9013 60.2396 43.344 58.6824 41.423 58.6824C39.5021 58.6824 37.9448 60.2396 37.9448 62.1606C37.9448 64.0816 39.5021 65.6388 41.423 65.6388Z" fill="#765BA7"/>
<path d="M40.8387 63.5848C40.7565 63.5848 40.6744 63.5574 40.6105 63.4935L39.5697 62.4528C39.4419 62.325 39.4419 62.1241 39.5697 62.0055C39.6975 61.8868 39.8984 61.8776 40.0171 62.0055L40.8296 62.818L42.8197 60.8278C42.9475 60.7 43.1484 60.7 43.2671 60.8278C43.3857 60.9556 43.3949 61.1564 43.2671 61.2751L41.0487 63.4935C40.9848 63.5574 40.9026 63.5848 40.8204 63.5848H40.8387Z" fill="#FBFBFB"/>
<g style="mix-blend-mode:hard-light" opacity="0.19">
<g style="mix-blend-mode:hard-light">
<path d="M44.9014 62.1604C44.9014 64.0775 43.3404 65.6386 41.4232 65.6386C41.2041 65.6386 40.9942 65.6204 40.7842 65.5838C42.4 65.2826 43.6234 63.8676 43.6234 62.1695C43.6234 60.4715 42.4 59.0473 40.7842 58.7552C40.9942 58.7187 41.2041 58.7004 41.4232 58.7004C43.3404 58.7004 44.9014 60.2524 44.9014 62.1787V62.1604Z" fill="#412B71"/>
</g>
</g>
<path d="M84.7604 75.4435H36.3575C34.6959 75.4435 33.3357 74.0924 33.3357 72.4218V34.6087C33.3357 32.9472 34.6868 31.5869 36.3575 31.5869H84.7604C86.4219 31.5869 87.7822 32.938 87.7822 34.6087V72.4218C87.7822 74.0833 86.431 75.4435 84.7604 75.4435ZM36.3575 33.4128C35.7002 33.4128 35.1615 33.9514 35.1615 34.6087V72.4218C35.1615 73.0791 35.7002 73.6177 36.3575 73.6177H84.7604C85.4177 73.6177 85.9563 73.0791 85.9563 72.4218V34.6087C85.9563 33.9514 85.4177 33.4128 84.7604 33.4128H36.3575Z" fill="#765BA7"/>
<path d="M86.8689 41.3367H34.2483V43.1625H86.8689V41.3367Z" fill="#765BA7"/>
<path d="M75.1475 48.9962H50.5443C50.2887 48.9962 50.0879 48.7953 50.0879 48.5397C50.0879 48.2841 50.2887 48.0833 50.5443 48.0833H75.1475C75.4031 48.0833 75.604 48.2841 75.604 48.5397C75.604 48.7953 75.4031 48.9962 75.1475 48.9962Z" fill="#765BA7"/>
<path d="M68.5559 53.013H50.2245C49.9689 53.013 49.7681 52.8122 49.7681 52.5566C49.7681 52.3009 49.9689 52.1001 50.2245 52.1001H68.5559C68.8116 52.1001 69.0124 52.3009 69.0124 52.5566C69.0124 52.8122 68.8116 53.013 68.5559 53.013Z" fill="#765BA7"/>
<path d="M62.9415 60.91H50.2245C49.9689 60.91 49.7681 60.7091 49.7681 60.4535C49.7681 60.1979 49.9689 59.9971 50.2245 59.9971H62.9415C63.1971 59.9971 63.3979 60.1979 63.3979 60.4535C63.3979 60.7091 63.1971 60.91 62.9415 60.91Z" fill="#765BA7"/>
<path d="M55.9211 64.3243H50.2245C49.9689 64.3243 49.7681 64.1235 49.7681 63.8678C49.7681 63.6122 49.9689 63.4114 50.2245 63.4114H55.9211C56.1768 63.4114 56.3776 63.6122 56.3776 63.8678C56.3776 64.1235 56.1768 64.3243 55.9211 64.3243Z" fill="#765BA7"/>
<path d="M40.9212 38.6804C41.6826 38.6804 42.2997 38.0632 42.2997 37.3018C42.2997 36.5405 41.6826 35.9233 40.9212 35.9233C40.1599 35.9233 39.5427 36.5405 39.5427 37.3018C39.5427 38.0632 40.1599 38.6804 40.9212 38.6804Z" fill="#765BA7"/>
<path d="M45.5135 38.6804C46.2748 38.6804 46.892 38.0632 46.892 37.3018C46.892 36.5405 46.2748 35.9233 45.5135 35.9233C44.7522 35.9233 44.135 36.5405 44.135 37.3018C44.135 38.0632 44.7522 38.6804 45.5135 38.6804Z" fill="#765BA7"/>
<path d="M50.1161 38.6804C50.8774 38.6804 51.4946 38.0632 51.4946 37.3018C51.4946 36.5405 50.8774 35.9233 50.1161 35.9233C49.3547 35.9233 48.7375 36.5405 48.7375 37.3018C48.7375 38.0632 49.3547 38.6804 50.1161 38.6804Z" fill="#765BA7"/>
<g opacity="0.1">
<path d="M41.6607 53.9716C43.5515 53.9716 45.0842 52.4389 45.0842 50.5482C45.0842 48.6575 43.5515 47.1248 41.6607 47.1248C39.77 47.1248 38.2373 48.6575 38.2373 50.5482C38.2373 52.4389 39.77 53.9716 41.6607 53.9716Z" fill="#765BA7"/>
</g>
<path d="M41.0855 51.9542C41.0033 51.9542 40.9211 51.9268 40.8664 51.8629L39.8439 50.8404C39.7252 50.7217 39.7252 50.5209 39.8439 50.3931C39.9626 50.2653 40.1634 50.2744 40.2912 50.3931L41.0946 51.1965L43.0482 49.2428C43.1669 49.1241 43.3678 49.1241 43.4956 49.2428C43.6234 49.3615 43.6142 49.5623 43.4956 49.6901L41.3137 51.872C41.2498 51.9359 41.1676 51.9633 41.0946 51.9633L41.0855 51.9542Z" fill="#FBFBFB"/>
<g style="mix-blend-mode:hard-light" opacity="0.19">
<g style="mix-blend-mode:hard-light">
<path d="M45.0846 50.5485C45.0846 52.4382 43.5509 53.9719 41.6612 53.9719C41.4512 53.9719 41.2412 53.9537 41.0312 53.9172C42.6197 53.625 43.8248 52.2283 43.8248 50.5576C43.8248 48.887 42.6197 47.4902 41.0312 47.1981C41.2321 47.1616 41.4421 47.1433 41.6612 47.1433C43.5509 47.1433 45.0846 48.677 45.0846 50.5668V50.5485Z" fill="#412B71"/>
</g>
</g>
<g opacity="0.1">
<path d="M41.4608 65.5839C43.3515 65.5839 44.8842 64.0512 44.8842 62.1605C44.8842 60.2698 43.3515 58.7371 41.4608 58.7371C39.5701 58.7371 38.0374 60.2698 38.0374 62.1605C38.0374 64.0512 39.5701 65.5839 41.4608 65.5839Z" fill="#765BA7"/>
</g>
<path d="M40.8853 63.5665C40.8031 63.5665 40.7209 63.5391 40.6662 63.4752L39.6437 62.4527C39.525 62.3341 39.525 62.1332 39.6437 62.0054C39.7624 61.8776 39.9632 61.8867 40.091 62.0054L40.8944 62.8088L42.848 60.8551C42.9667 60.7364 43.1676 60.7364 43.2954 60.8551C43.4232 60.9738 43.414 61.1746 43.2954 61.3025L41.1135 63.4843C41.0496 63.5482 40.9674 63.5756 40.8944 63.5756L40.8853 63.5665Z" fill="#FBFBFB"/>
<g style="mix-blend-mode:hard-light" opacity="0.19">
<g style="mix-blend-mode:hard-light">
<path d="M44.8761 62.1606C44.8761 64.0503 43.3424 65.584 41.4527 65.584C41.2427 65.584 41.0327 65.5657 40.8228 65.5292C42.4112 65.2371 43.6163 63.8403 43.6163 62.1697C43.6163 60.499 42.4112 59.1023 40.8228 58.8101C41.0236 58.7736 41.2336 58.7554 41.4527 58.7554C43.3424 58.7554 44.8761 60.2891 44.8761 62.1788V62.1606Z" fill="#412B71"/>
</g>
</g>
<path d="M68.7027 69.4366C68.7849 69.2905 68.8762 69.1627 68.9948 69.044C69.3235 68.7245 69.7617 68.5237 70.2455 68.5237C70.9941 68.5237 71.6423 69.0075 71.8979 69.674C71.9709 69.5827 72.044 69.5005 72.117 69.4183C72.4457 69.0988 72.8839 68.898 73.3677 68.898C74.0707 68.898 74.6732 69.3088 74.9562 69.9113L75.2209 69.8748H76.5082C78.0053 69.8748 79.2195 71.0981 79.2195 72.6044V77.662C79.2195 80.556 76.8916 82.9113 74.0068 82.9113H66.0826C63.9464 82.9113 62.1753 81.2863 61.938 79.2048C61.9015 78.8853 61.8558 78.5567 61.7554 78.2463L60.9703 75.8635C60.9703 75.8635 59.5735 71.0799 59.1718 70.6782C58.7701 70.2765 59.2631 68.9801 60.952 69.4731L64.4485 71.5089L65.1697 71.3994" fill="#FBFBFB"/>
<g opacity="0.4">
<path d="M79.3294 72.6227V77.6803C79.3294 80.5742 77.1019 82.9296 74.3448 82.9296H66.7676C64.7227 82.9296 63.0338 81.3046 62.8056 79.2231C62.769 78.9036 62.7325 78.5749 62.6321 78.2646L61.8744 75.8818C61.8744 75.8818 60.5415 71.0981 60.1581 70.6965C59.7747 70.2948 60.2403 68.9984 61.8561 69.4914L65.2065 71.5272L65.1152 62.5258C65.1152 62.0329 65.307 61.5947 65.6082 61.266C65.946 60.9191 66.4025 60.7183 66.9137 60.7456C67.8266 60.8004 68.5022 61.6677 68.5022 62.6263L68.6756 69.8383C68.7578 69.6923 69.4516 69.1719 69.5703 69.0532C69.8807 68.7337 70.3097 68.5328 70.7662 68.5328C71.4874 68.5328 72.0991 69.0167 72.3456 69.6831C72.4186 69.5918 72.4825 69.5097 72.5555 69.4275C72.8659 69.108 73.295 68.9071 73.7514 68.9071C74.4179 68.9071 75.0021 69.318 75.2669 69.9205L75.5225 69.884H76.7549C78.1882 69.884 79.3476 71.1073 79.3476 72.6136L79.3294 72.6227Z" fill="#F9BB7C"/>
</g>
<path d="M74.0078 83.5961H66.4032C64.1392 83.5961 62.2312 81.825 61.9756 79.4788C61.9391 79.1775 61.9025 78.8854 61.8204 78.6115L61.0627 76.2197C60.4327 73.9922 59.6568 71.5181 59.4285 71.1986C59.1547 70.9156 59.1181 70.45 59.3464 70.0301C59.6385 69.5006 60.3688 69.0168 61.5648 69.245C63.2537 69.5645 65.609 70.45 66.4854 74.3756C66.5402 74.6221 66.385 74.8686 66.1385 74.9233C65.892 74.9781 65.6455 74.8229 65.5907 74.5764C64.8421 71.2169 62.9524 70.4409 61.4004 70.1488C60.8801 70.0483 60.451 70.1396 60.2228 70.377C60.1223 70.4865 60.1132 70.5778 60.1132 70.6052C60.5058 71.0069 61.4278 74.1382 61.9391 75.9641L62.6876 78.3377C62.7972 78.6846 62.8428 79.0406 62.8794 79.3784C63.0893 81.259 64.6048 82.6831 66.4032 82.6831H74.0078C76.5184 82.6831 78.5542 80.5287 78.5542 77.8903V72.8328C78.5542 71.5821 77.5956 70.5596 76.4088 70.5596H75.1764C74.9208 70.5596 74.7199 70.3587 74.7199 70.1031C74.7199 69.8475 74.9208 69.6467 75.1764 69.6467H76.4088C78.0977 69.6467 79.4671 71.0708 79.4671 72.8328V77.8903C79.4671 81.0399 77.0205 83.5961 74.0078 83.5961Z" fill="#F58E25"/>
<path d="M75.1118 74.5853C74.8562 74.5853 74.6553 74.3845 74.6553 74.1289V70.7237C74.6553 70.0573 74.1532 69.5186 73.5416 69.5186C72.9299 69.5186 72.4278 70.0573 72.4278 70.7237V73.5081C72.4278 73.7637 72.227 73.9645 71.9714 73.9645C71.7157 73.9645 71.5149 73.7637 71.5149 73.5081V70.7237C71.5149 69.5551 72.4278 68.6057 73.5416 68.6057C74.6553 68.6057 75.5683 69.5551 75.5683 70.7237V74.1289C75.5683 74.3845 75.3674 74.5853 75.1118 74.5853Z" fill="#F58E25"/>
<path d="M68.6303 74.9961C68.3747 74.9961 68.1738 74.7953 68.1738 74.5397V70.1668C68.1738 68.9983 69.1233 68.0488 70.3009 68.0488C71.4786 68.0488 72.428 68.9983 72.428 70.1668V73.8459C72.428 74.1015 72.2272 74.3023 71.9716 74.3023C71.716 74.3023 71.5151 74.1015 71.5151 73.8459V70.1668C71.5151 69.5004 70.9765 68.9617 70.3009 68.9617C69.6254 68.9617 69.0867 69.5004 69.0867 70.1668V74.5397C69.0867 74.7953 68.8859 74.9961 68.6303 74.9961V74.9961Z" fill="#F58E25"/>
<path d="M80.1862 36.0967H64.6758C64.0102 36.0967 63.4707 36.6362 63.4707 37.3017C63.4707 37.9673 64.0102 38.5068 64.6758 38.5068H80.1862C80.8518 38.5068 81.3913 37.9673 81.3913 37.3017C81.3913 36.6362 80.8518 36.0967 80.1862 36.0967Z" fill="#765BA7"/>
<path d="M68.6293 73.1156C68.3736 73.1156 68.1728 72.9147 68.1728 72.6591V62.7813C68.1728 62.0053 67.5429 61.3663 66.7578 61.3663C65.9727 61.3663 65.3519 61.9962 65.3519 62.7813V71.3993C65.3519 71.6549 65.151 71.8557 64.8954 71.8557C64.6398 71.8557 64.439 71.6549 64.439 71.3993V62.7813C64.439 61.5032 65.4797 60.4534 66.7578 60.4534C68.0359 60.4534 69.0857 61.4941 69.0857 62.7813V72.6591C69.0857 72.9147 68.8849 73.1156 68.6293 73.1156Z" fill="#F58E25"/>
<g opacity="0.1">
<path d="M86.2123 32.4998H82.725V73.9371H86.2123V32.4998Z" fill="#765BA7"/>
</g>
<g opacity="0.41">
<path d="M75.5579 70.5594H76.4526C76.4526 70.5594 76.6717 70.5594 76.8817 70.6142C76.8817 70.6142 77.5207 70.6872 78.0685 71.3811C78.0685 71.3811 78.5797 71.9562 78.5523 72.8965V78.0454C78.5523 78.0454 78.5797 79.5882 77.5298 80.9028C77.5298 80.9028 76.7447 82.0257 75.4119 82.4365C75.4119 82.4365 79.0088 77.0594 75.5579 70.5503V70.5594Z" fill="#F9BB7C"/>
</g>
</g>
<rect x="0.699951" y="7.94995" width="28.2667" height="28.2667" rx="14.1333" fill="#765BA7"/>
<path d="M13.2409 29.5288V17.158H11.7086V16.0445L15.948 14.6144V29.5288H13.2409Z" fill="#FBFBFB"/>
<defs>
<clipPath id="clip0_460_122874">
<rect width="94.8421" height="94.8421" fill="white" transform="translate(11.5789 5.57886)"/>
</clipPath>
</defs>
</svg>
