<svg width="106" height="100" viewBox="0 0 106 100" fill="none" xmlns="http://www.w3.org/2000/svg">
<path d="M54.5 95.5C80.1812 95.5 101 74.6812 101 49C101 23.3188 80.1812 2.5 54.5 2.5C28.8188 2.5 8 23.3188 8 49C8 74.6812 28.8188 95.5 54.5 95.5Z" fill="#EAE6F2"/>
<path d="M69.4747 24H39.5253C37.8545 24 36.5 25.358 36.5 27.0332V70.9415C36.5 72.6167 37.8545 73.9747 39.5253 73.9747H69.4747C71.1455 73.9747 72.5 72.6167 72.5 70.9415V27.0332C72.5 25.358 71.1455 24 69.4747 24Z" fill="white"/>
<path d="M52.207 55.6367C51.5818 55.6367 50.9818 55.3897 50.5397 54.9465L44.3376 48.7281C43.4155 47.8036 43.4155 46.3092 44.3376 45.3846C45.2597 44.4601 46.7502 44.4601 47.6723 45.3846L52.1944 49.9186L63.2028 38.7674C64.1186 37.8365 65.6155 37.8302 66.5376 38.7484C67.466 39.6666 67.4723 41.1673 66.5565 42.0918L53.8807 54.9338C53.4386 55.3834 52.8386 55.6303 52.2134 55.6367H52.207Z" fill="#82C55B"/>
<path d="M36.5 67.4966H72.5V71.2453C72.5 72.7651 71.2684 73.9999 69.7526 73.9999H39.0832C37.6558 73.9999 36.5 72.8411 36.5 71.41V67.4966Z" fill="#6A509B"/>
<g style="mix-blend-mode:multiply" opacity="0.12">
<path d="M71.2367 25.2412H66.8157V67.6678H71.2367V25.2412Z" fill="#6A509B"/>
</g>
<path d="M69.4747 24H39.5253C37.8545 24 36.5 25.358 36.5 27.0332V70.9415C36.5 72.6167 37.8545 73.9747 39.5253 73.9747H69.4747C71.1455 73.9747 72.5 72.6167 72.5 70.9415V27.0332C72.5 25.358 71.1455 24 69.4747 24Z" stroke="#6A509B" stroke-width="3.16616" stroke-miterlimit="10"/>
<path d="M54.1843 72.734C55.2307 72.734 56.079 71.8834 56.079 70.8343C56.079 69.7851 55.2307 68.9346 54.1843 68.9346C53.1379 68.9346 52.2896 69.7851 52.2896 70.8343C52.2896 71.8834 53.1379 72.734 54.1843 72.734Z" fill="white"/>
<rect x="0.5" width="28" height="28" rx="14" fill="#005895"/>
<path d="M10.4598 20.0437L10.6038 17.9017C10.7958 17.9737 11.0118 18.0517 11.2518 18.1357C11.5038 18.2077 11.8038 18.2857 12.1518 18.3697C12.5118 18.4417 12.9198 18.4777 13.3758 18.4777C14.0358 18.4777 14.6418 18.3277 15.1938 18.0277C15.7458 17.7277 16.0218 17.2837 16.0218 16.6957C16.0218 15.9997 15.7758 15.5017 15.2838 15.2017C14.8038 14.8897 14.1258 14.7337 13.2498 14.7337H12.0438V12.7537H13.1778C14.0418 12.7537 14.7198 12.6157 15.2118 12.3397C15.7158 12.0517 15.9678 11.6377 15.9678 11.0977C15.9678 10.5217 15.7698 10.0957 15.3738 9.8197C14.9538 9.5677 14.4318 9.4417 13.8078 9.4417C12.8358 9.4417 11.8998 9.6637 10.9998 10.1077L10.8558 8.0917C11.9358 7.6717 13.0998 7.4617 14.3478 7.4617C15.4038 7.4617 16.3578 7.7017 17.2098 8.1817C18.0618 8.6617 18.4878 9.4957 18.4878 10.6837C18.4878 11.4877 18.2778 12.1237 17.8578 12.5917C17.4498 13.0597 16.8798 13.4257 16.1478 13.6897C16.9278 13.8217 17.5218 14.1577 17.9298 14.6977C18.3378 15.2377 18.5418 15.9097 18.5418 16.7137C18.5418 18.0577 18.0618 19.0177 17.1018 19.5937C16.1418 20.1697 15.0198 20.4577 13.7358 20.4577C13.2078 20.4577 12.6498 20.4217 12.0618 20.3497C11.4738 20.2777 10.9398 20.1757 10.4598 20.0437Z" fill="white"/>
<path d="M77.2642 24.6244L75.7629 20.9544L72.1597 19.2084L75.5627 17.5959L77.3532 13.8926L78.8768 17.5514L82.1797 19.0305L78.9324 20.7876L77.2642 24.6244Z" fill="white"/>
<path d="M82.8945 31.5605C81.5934 31.5605 80.5369 30.504 80.5369 29.2029C80.5369 27.9017 81.5934 26.8452 82.8945 26.8452C84.1957 26.8452 85.2522 27.9017 85.2522 29.2029C85.2522 30.504 84.1957 31.5605 82.8945 31.5605ZM82.8945 27.6682C82.0493 27.6682 81.3598 28.3577 81.3598 29.2029C81.3598 30.0481 82.0493 30.7376 82.8945 30.7376C83.7397 30.7376 84.4292 30.0481 84.4292 29.2029C84.4292 28.3577 83.7397 27.6682 82.8945 27.6682Z" fill="white"/>
</svg>
