<svg width="112" height="106" viewBox="0 0 112 106" fill="none" xmlns="http://www.w3.org/2000/svg">
<path d="M82.8103 28.2083H82.6729V28.1533L82.8103 28.2083Z" fill="white"/>
<path d="M59 99.7232C84.8048 99.7232 105.724 78.8043 105.724 52.9996C105.724 27.1948 84.8048 6.27588 59 6.27588C33.1953 6.27588 12.2764 27.1948 12.2764 52.9996C12.2764 78.8043 33.1953 99.7232 59 99.7232Z" fill="#EAEAEA" fill-opacity="0.6"/>
<path d="M59.0274 80.6583C62.8222 80.6583 65.8985 77.582 65.8985 73.7871C65.8985 69.9923 62.8222 66.916 59.0274 66.916C55.2326 66.916 52.1562 69.9923 52.1562 73.7871C52.1562 77.582 55.2326 80.6583 59.0274 80.6583Z" fill="#F58520"/>
<path d="M57.8637 76.6088C57.6988 76.6088 57.5431 76.5447 57.4148 76.4256L55.3535 74.3642C55.1061 74.1169 55.1061 73.7137 55.3535 73.4755C55.6008 73.2373 56.004 73.2282 56.2422 73.4755L57.8546 75.088L61.7849 71.1577C62.0322 70.9103 62.4353 70.9103 62.6735 71.1577C62.9117 71.405 62.9209 71.8082 62.6735 72.0464L58.2943 76.4256C58.1752 76.5447 58.0103 76.6088 57.8454 76.6088H57.8637Z" fill="white"/>
<g style="mix-blend-mode:hard-light" opacity="0.19">
<g style="mix-blend-mode:hard-light">
<path d="M65.9001 73.7871C65.9001 77.58 62.8218 80.6583 59.0289 80.6583C58.5983 80.6583 58.1769 80.6216 57.7646 80.5392C60.9529 79.9528 63.3715 77.1494 63.3715 73.7871C63.3715 70.4249 60.9529 67.6214 57.7646 67.0351C58.1678 66.9618 58.5983 66.916 59.0289 66.916C62.8218 66.916 65.9001 69.9943 65.9001 73.7871Z" fill="#402308"/>
</g>
</g>
<path d="M83.2963 32.5508H34.9052C33.6858 32.5508 32.6973 33.5393 32.6973 34.7587V42.1154C32.6973 43.3348 33.6858 44.3233 34.9052 44.3233H83.2963C84.5157 44.3233 85.5042 43.3348 85.5042 42.1154V34.7587C85.5042 33.5393 84.5157 32.5508 83.2963 32.5508Z" fill="white"/>
<path d="M83.0941 44.8089H34.5198C32.8524 44.8089 31.4873 43.453 31.4873 41.7764V34.154C31.4873 32.4866 32.8432 31.1216 34.5198 31.1216H83.0941C84.7615 31.1216 86.1265 32.4775 86.1265 34.154V41.7764C86.1265 43.4438 84.7706 44.8089 83.0941 44.8089ZM34.5198 32.9539C33.8601 32.9539 33.3196 33.4944 33.3196 34.154V41.7764C33.3196 42.436 33.8601 42.9766 34.5198 42.9766H83.0941C83.7537 42.9766 84.2942 42.436 84.2942 41.7764V34.154C84.2942 33.4944 83.7537 32.9539 83.0941 32.9539H34.5198Z" fill="#863399"/>
<path d="M68.747 39.5133H50.3507C50.0941 39.5133 49.8926 39.3118 49.8926 39.0552C49.8926 38.7987 50.0941 38.5972 50.3507 38.5972H68.747C69.0035 38.5972 69.205 38.7987 69.205 39.0552C69.205 39.3118 69.0035 39.5133 68.747 39.5133Z" fill="#863399"/>
<path d="M56.0596 36.4811H50.3428C50.0863 36.4811 49.8848 36.2795 49.8848 36.023C49.8848 35.7665 50.0863 35.5649 50.3428 35.5649H56.0596C56.3161 35.5649 56.5177 35.7665 56.5177 36.023C56.5177 36.2795 56.3161 36.4811 56.0596 36.4811Z" fill="#863399"/>
<path d="M84.5637 32.688H80.2124C80.149 32.688 80.0977 33.2771 80.0977 34.0039V42.3659C80.0977 43.0926 80.149 43.6818 80.2124 43.6818H84.5637C84.6271 43.6818 84.6784 43.0926 84.6784 42.3659V34.0039C84.6784 33.2771 84.6271 32.688 84.5637 32.688Z" fill="#863399" fill-opacity="0.1"/>
<path d="M38.4055 37.9834C39.205 37.9834 39.853 37.3353 39.853 36.5359C39.853 35.7365 39.205 35.0884 38.4055 35.0884C37.6061 35.0884 36.958 35.7365 36.958 36.5359C36.958 37.3353 37.6061 37.9834 38.4055 37.9834Z" fill="#863399"/>
<path d="M41.1803 40.8419H35.9033C36.0133 39.4768 37.1493 38.4141 38.5418 38.4141C39.9344 38.4141 41.0704 39.4768 41.1803 40.8419Z" fill="#863399"/>
<path d="M83.4515 48.8857H35.0605C33.8411 48.8857 32.8525 49.8743 32.8525 51.0937V58.4504C32.8525 59.6698 33.8411 60.6583 35.0605 60.6583H83.4515C84.6709 60.6583 85.6595 59.6698 85.6595 58.4504V51.0937C85.6595 49.8743 84.6709 48.8857 83.4515 48.8857Z" fill="white"/>
<path d="M83.2415 61.1438H34.6672C32.9998 61.1438 31.6348 59.7879 31.6348 58.1114V50.489C31.6348 48.8216 32.9907 47.4565 34.6672 47.4565H83.2415C84.9089 47.4565 86.274 48.8124 86.274 50.489V58.1114C86.274 59.7788 84.9181 61.1438 83.2415 61.1438ZM34.6672 49.298C34.0076 49.298 33.4671 49.8385 33.4671 50.4982V58.1205C33.4671 58.7802 34.0076 59.3207 34.6672 59.3207H83.2415C83.9012 59.3207 84.4417 58.7802 84.4417 58.1205V50.4982C84.4417 49.8385 83.9012 49.298 83.2415 49.298H34.6672Z" fill="#F58520"/>
<path d="M68.8944 55.8576H50.4981C50.2416 55.8576 50.04 55.656 50.04 55.3995C50.04 55.143 50.2416 54.9414 50.4981 54.9414H68.8944C69.1509 54.9414 69.3525 55.143 69.3525 55.3995C69.3525 55.656 69.1509 55.8576 68.8944 55.8576Z" fill="#F58520"/>
<path d="M56.2149 52.8161H50.4981C50.2416 52.8161 50.04 52.6145 50.04 52.358C50.04 52.1015 50.2416 51.8999 50.4981 51.8999H56.2149C56.4714 51.8999 56.673 52.1015 56.673 52.358C56.673 52.6145 56.4714 52.8161 56.2149 52.8161Z" fill="#F58520"/>
<path d="M84.5644 49.1787H80.2117C80.1487 49.1787 80.0977 49.7679 80.0977 50.4946V58.8566C80.0977 59.5834 80.1487 60.1725 80.2117 60.1725H84.5644C84.6274 60.1725 84.6784 59.5834 84.6784 58.8566V50.4946C84.6784 49.7679 84.6274 49.1787 84.5644 49.1787Z" fill="#F58520" fill-opacity="0.1"/>
<path d="M41.5193 51.8906H36.508C36.174 51.8906 35.9033 52.1613 35.9033 52.4953V56.1965C35.9033 56.5305 36.174 56.8012 36.508 56.8012H41.5193C41.8533 56.8012 42.124 56.5305 42.124 56.1965V52.4953C42.124 52.1613 41.8533 51.8906 41.5193 51.8906Z" fill="#F58520"/>
<path d="M39.0096 55.1245C38.8813 55.1245 38.7622 55.0787 38.6706 54.9871L35.8672 52.2478L36.1878 51.918L38.9913 54.6573L40.3288 53.393L41.8038 51.9546L42.1245 52.2844L39.3577 54.9871C39.2661 55.0787 39.1378 55.1245 39.0096 55.1245Z" fill="white"/>
<path d="M41.895 52.019C41.895 52.019 41.9867 52.0832 42.0416 52.1931L42.0141 52.2206L41.8584 52.0465L41.8859 52.019H41.895Z" fill="white"/>
<rect x="0.700195" y="7.94971" width="28.2667" height="28.2667" rx="14.1333" fill="#863399"/>
<path d="M9.71107 29.25V27.2069C14.5804 23.8222 17.015 21.0981 17.015 19.0346C17.015 17.6045 16.1297 16.8894 14.3591 16.8894C12.8608 16.8894 11.4477 17.264 10.1197 18.0131V15.5614C11.4477 14.8804 12.8608 14.5399 14.3591 14.5399C17.9344 14.5399 19.7221 15.97 19.7221 18.8303C19.7221 21.3501 17.771 24.0402 13.8687 26.9005H19.7221V29.25H9.71107Z" fill="white"/>
</svg>
