<svg width="106" height="100" viewBox="0 0 106 100" fill="none" xmlns="http://www.w3.org/2000/svg">
<path d="M55.5 96.5C81.1812 96.5 102 75.6812 102 50C102 24.3188 81.1812 3.5 55.5 3.5C29.8188 3.5 9 24.3188 9 50C9 75.6812 29.8188 96.5 55.5 96.5Z" fill="#EAE6F2"/>
<mask id="mask0_520_25566" style="mask-type:luminance" maskUnits="userSpaceOnUse" x="8" y="1" width="95" height="96">
<path d="M55.4999 96.7151C81.3579 96.7151 102.32 75.3524 102.32 49.0002C102.32 22.6479 81.3579 1.28516 55.4999 1.28516C29.642 1.28516 8.67993 22.6479 8.67993 49.0002C8.67993 75.3524 29.642 96.7151 55.4999 96.7151Z" fill="white"/>
</mask>
<g mask="url(#mask0_520_25566)">
<path d="M40.5796 61.4349C41.3496 63.6249 42.7946 66.3099 45.0046 67.5099C46.8796 68.5299 48.5596 68.5999 50.0996 70.0799C51.1546 71.0949 52.2646 72.3099 53.1846 73.6499C54.5696 75.6599 57.2046 76.3699 59.3896 75.2799L70.0946 69.9549C72.1196 68.9449 73.1746 66.6849 72.6646 64.4799C72.0196 61.6649 71.5946 56.7449 72.5396 48.3499C72.5696 48.0649 72.5796 47.7749 72.5596 47.4849C72.4346 45.7349 71.7296 39.3399 67.8596 34.7949C67.2046 34.0249 67.0796 32.7849 66.8046 31.8249C66.0346 29.1499 65.5196 24.0849 62.6296 26.2199C61.9346 26.7299 61.4496 27.4649 61.1446 28.2749C60.5746 29.7799 59.7596 32.7199 60.3146 36.2049L37.3146 22.2549L34.0046 53.2399C34.0046 53.2399 39.1096 57.2449 40.5846 61.4299L40.5796 61.4349Z" fill="#FCE7D2"/>
<path d="M54.3696 78.1947C54.0496 78.1947 53.7546 77.9797 53.6646 77.6547C52.0396 71.7847 47.4396 69.5697 47.3946 69.5497C40.6246 67.2647 38.9996 59.5797 38.9346 59.2547C38.8546 58.8597 39.1096 58.4697 39.5096 58.3897C39.9096 58.3047 40.2946 58.5647 40.3746 58.9597C40.3896 59.0297 41.9096 66.1447 47.9446 68.1897C48.2296 68.3147 53.2746 70.7147 55.0846 77.2597C55.1946 77.6497 54.9646 78.0547 54.5746 78.1597C54.5096 78.1797 54.4446 78.1847 54.3796 78.1847L54.3696 78.1947Z" fill="#F48D25"/>
<path d="M73.2347 67.1197C72.9197 67.1197 72.6247 66.9147 72.5297 66.5947C72.3547 66.0097 72.1947 65.3747 72.0447 64.7097C71.2647 61.2047 71.1047 57.4397 71.5747 53.5247C72.5497 45.3847 71.5347 39.5247 68.5547 36.1097C67.2647 34.6297 66.2297 30.6697 66.1147 30.2197C66.1047 30.1797 66.0997 30.1447 66.0947 30.1047C66.0147 29.2197 65.8747 28.4447 65.6697 27.8047C65.4847 27.2197 65.0497 26.7697 64.4697 26.5647C63.9147 26.3697 63.3247 26.4347 62.8447 26.7547C57.8497 30.0397 62.9947 39.5097 63.0447 39.6047C63.2397 39.9597 63.1097 40.4047 62.7597 40.5997C62.4047 40.7947 61.9597 40.6647 61.7647 40.3147C61.5247 39.8747 55.9197 29.5547 62.0397 25.5297C62.9097 24.9597 63.9747 24.8347 64.9647 25.1847C65.9797 25.5447 66.7447 26.3397 67.0697 27.3697C67.2997 28.0947 67.4597 28.9547 67.5497 29.9197C67.8547 31.0847 68.7747 34.1397 69.6547 35.1447C70.8747 36.5447 74.5747 40.7897 73.0297 53.6997C72.5797 57.4497 72.7297 61.0447 73.4747 64.3897C73.6097 64.9897 73.7597 65.5947 73.9347 66.1797C74.0497 66.5697 73.8297 66.9747 73.4397 67.0897C73.3697 67.1097 73.2997 67.1197 73.2297 67.1197H73.2347Z" fill="#F48D25"/>
<path d="M86.7797 84.6496L80.8147 71.8646C78.6747 67.6896 74.3247 65.6396 71.0997 67.2946L56.4347 74.3896C53.2047 76.0396 52.3197 80.7696 54.4597 84.9446L64.8497 104.195C64.8497 104.195 72.5947 101.725 78.9697 96.3296C87.2697 89.3046 86.7847 84.6546 86.7847 84.6546L86.7797 84.6496Z" fill="#3379A9"/>
<path d="M61.9547 99.7649C61.5997 99.7649 61.2547 99.5699 61.0847 99.2349L52.3297 82.1799C50.8947 79.1549 52.2147 75.5349 55.2647 74.0899L72.2947 66.0099C73.7697 65.3099 75.4197 65.2149 76.9497 65.7449C78.4847 66.2749 79.7097 67.3699 80.3997 68.8249L88.4097 84.2049C88.6597 84.6849 88.4747 85.2749 87.9947 85.5249C87.5147 85.7749 86.9247 85.5899 86.6747 85.1099L78.6497 69.6999C78.1697 68.6899 77.3447 67.9549 76.3097 67.5949C75.2697 67.2349 74.1397 67.2999 73.1297 67.7749L56.0997 75.8549C54.0247 76.8399 53.1197 79.2849 54.0797 81.3099L62.8247 98.3399C63.0697 98.8199 62.8797 99.4099 62.3997 99.6549C62.2547 99.7299 62.1047 99.7649 61.9547 99.7649Z" fill="#3379A9"/>
<g style="mix-blend-mode:multiply">
<path d="M63.4346 26.5098C63.4346 26.5098 64.6596 26.2448 65.2696 27.0298C65.2696 27.0298 65.9646 27.4298 66.1646 30.1548L67.1646 33.2948C67.1646 33.2948 67.9346 35.4148 68.8646 36.3298C68.8646 36.3298 70.6696 38.3998 71.1946 40.7998C71.1946 40.7998 71.6946 42.6248 71.8346 43.9348C71.9746 45.2448 72.4196 49.6648 71.7196 53.4798C71.7196 53.4798 71.0446 59.4398 71.9546 63.3948C71.9546 63.3948 72.4696 65.7398 72.5596 65.9498L67.0746 68.5048C67.0746 68.5048 69.1496 55.2098 65.9546 47.2498C59.3596 30.8148 61.4796 36.2098 62.1796 27.3348C62.1796 27.3348 62.5496 26.7748 63.4396 26.5148L63.4346 26.5098Z" fill="#FCE7D2"/>
</g>
<g style="mix-blend-mode:multiply">
<path d="M64.6194 69.6899C64.6194 69.6899 68.9844 87.9799 75.7744 92.0499C75.7744 92.0499 82.7444 88.6449 87.9444 83.3549L79.9394 68.0649C79.9394 68.0649 77.3494 64.1499 72.5244 66.0899L64.6194 69.6899Z" fill="#E2F1FA"/>
</g>
</g>
<path d="M61.0447 19.085H37.2897C36.6076 19.085 36.0547 19.6379 36.0547 20.32V65.755C36.0547 66.437 36.6076 66.99 37.2897 66.99H61.0447C61.7268 66.99 62.2797 66.437 62.2797 65.755V20.32C62.2797 19.6379 61.7268 19.085 61.0447 19.085Z" fill="white"/>
<path d="M60.8147 68.1749H37.5147C36.0547 68.1749 34.8647 66.9849 34.8647 65.5249V20.5499C34.8647 19.0899 36.0547 17.8999 37.5147 17.8999H60.8147C62.2747 17.8999 63.4647 19.0899 63.4647 20.5499V65.5299C63.4647 66.9899 62.2747 68.1799 60.8147 68.1799V68.1749ZM37.5147 20.2749C37.3597 20.2749 37.2397 20.3999 37.2397 20.5499V65.5299C37.2397 65.6849 37.3647 65.8049 37.5147 65.8049H60.8147C60.9697 65.8049 61.0897 65.6799 61.0897 65.5299V20.5499C61.0897 20.3949 60.9647 20.2749 60.8147 20.2749H37.5147Z" fill="#6A509B"/>
<path d="M55.2998 18.585H43.9948C43.865 18.585 43.7598 18.6902 43.7598 18.82V21.655C43.7598 21.7847 43.865 21.89 43.9948 21.89H55.2998C55.4296 21.89 55.5348 21.7847 55.5348 21.655V18.82C55.5348 18.6902 55.4296 18.585 55.2998 18.585Z" fill="#6A509B"/>
<g style="mix-blend-mode:multiply" opacity="0.15">
<path d="M58.0298 20.1695H60.4798C60.8848 20.1695 61.2148 20.4996 61.2148 20.9046V65.1646C61.2148 65.5796 60.8798 65.9146 60.4648 65.9146H58.0298C57.9448 65.9146 57.8748 65.8446 57.8748 65.7596V20.3195C57.8748 20.2345 57.9448 20.1646 58.0298 20.1646V20.1695Z" fill="#6A509B"/>
</g>
<path d="M43.0091 25.4039L34.5827 20.5389C33.6739 20.0142 32.5119 20.3256 31.9873 21.2343L30.1673 24.3866C29.6426 25.2954 29.9539 26.4574 30.8627 26.9821L39.2891 31.8471C40.1979 32.3718 41.3599 32.0604 41.8846 31.1516L43.7046 27.9993C44.2293 27.0906 43.9179 25.9285 43.0091 25.4039Z" fill="white"/>
<g opacity="0.6">
<path d="M36.1609 21.45C34.3816 20.4227 32.1065 21.0323 31.0792 22.8116C30.052 24.5908 30.6616 26.866 32.4409 27.8932L37.7149 30.9382C39.4942 31.9655 41.7693 31.3558 42.7966 29.5766C43.8238 27.7973 43.2142 25.5222 41.4349 24.495L36.1609 21.45Z" fill="#FAD1A7"/>
</g>
<path d="M39.5649 32.1652C38.8099 32.1652 38.0449 31.9752 37.3449 31.5702L32.0699 28.5252C29.9449 27.2952 29.2149 24.5702 30.4399 22.4452C31.0299 21.4202 31.9949 20.6852 33.1449 20.3752C34.2949 20.0652 35.4949 20.2202 36.5199 20.8152L41.7949 23.8602C42.8199 24.4502 43.5549 25.4152 43.8649 26.5652C44.1749 27.7152 44.0149 28.9152 43.4249 29.9402C42.5999 31.3652 41.0999 32.1652 39.5599 32.1652H39.5649ZM32.8049 27.2552L38.0799 30.3002C39.5049 31.1252 41.3349 30.6352 42.1599 29.2052C42.5549 28.5202 42.6599 27.7152 42.4549 26.9402C42.2499 26.1652 41.7549 25.5252 41.0699 25.1252L35.7949 22.0802C35.1099 21.6852 34.3049 21.5802 33.5299 21.7852C32.7549 21.9902 32.1149 22.4852 31.7149 23.1702C30.8899 24.5952 31.3799 26.4252 32.8099 27.2502L32.8049 27.2552Z" fill="#F48D25"/>
<g style="mix-blend-mode:multiply">
<path d="M38.1197 30.3352L32.7197 27.2102C32.3647 26.9552 32.1247 26.7602 31.9197 26.4902C30.6247 24.7652 31.8297 22.9902 31.8297 22.9902L32.0247 23.3802C32.7097 24.7452 33.7797 25.8802 35.1047 26.6452L37.5947 28.0852C38.9947 28.8902 40.6047 29.2452 42.2147 29.1002C42.2147 29.1002 42.0597 29.4252 41.7397 29.7602C41.1247 30.4102 39.9097 31.1952 38.1147 30.3352H38.1197Z" fill="#FCE7D2"/>
</g>
<path d="M42.2442 50.0084L36.7709 46.8484C35.8622 46.3238 34.7002 46.6351 34.1755 47.5439L32.3555 50.6962C31.8308 51.605 32.1422 52.767 33.0509 53.2917L38.5242 56.4517C39.433 56.9763 40.595 56.665 41.1197 55.7562L42.9397 52.6039C43.4643 51.6951 43.153 50.5331 42.2442 50.0084Z" fill="white"/>
<g opacity="0.6">
<path d="M38.3503 47.7532C36.5711 46.7259 34.2959 47.3356 33.2687 49.1148C32.2414 50.8941 32.8511 53.1692 34.6303 54.1964L36.9513 55.5364C38.7305 56.5637 41.0056 55.9541 42.0329 54.1748C43.0601 52.3956 42.4505 50.1204 40.6713 49.0932L38.3503 47.7532Z" fill="#FAD1A7"/>
</g>
<path d="M38.805 56.7698C38.05 56.7698 37.285 56.5798 36.585 56.1748L34.26 54.8348C33.235 54.2398 32.5 53.2848 32.19 52.1298C31.88 50.9798 32.04 49.7798 32.63 48.7498C33.855 46.6248 36.585 45.8898 38.71 47.1198L41.035 48.4598C42.06 49.0498 42.795 50.0098 43.105 51.1648C43.415 52.3148 43.255 53.5148 42.665 54.5398C41.84 55.9648 40.34 56.7648 38.8 56.7648L38.805 56.7698ZM36.495 47.9898C35.46 47.9898 34.455 48.5248 33.905 49.4798C33.51 50.1648 33.405 50.9698 33.61 51.7448C33.815 52.5198 34.31 53.1598 34.995 53.5598L37.32 54.8998C38.745 55.7198 40.575 55.2298 41.4 53.8048C41.795 53.1198 41.9 52.3148 41.695 51.5398C41.49 50.7648 40.995 50.1248 40.31 49.7248L37.985 48.3848C37.515 48.1148 37.005 47.9848 36.5 47.9848L36.495 47.9898Z" fill="#F48D25"/>
<g style="mix-blend-mode:multiply">
<path d="M38.1602 55.3997L34.1202 53.0597C33.8602 52.8597 33.6852 52.7047 33.5502 52.4697C32.6852 50.9947 33.8602 49.1997 33.8602 49.1997L33.9752 49.5447C34.3802 50.7497 35.1252 51.6947 36.1152 52.2697L37.9802 53.3447C39.0252 53.9497 40.2952 54.1047 41.6152 53.7947C41.6152 53.7947 41.4502 54.1147 41.1602 54.4647C40.5902 55.1447 39.5202 56.0047 38.1602 55.3947V55.3997Z" fill="#FCE7D2"/>
</g>
<path d="M44.6097 43.6539L36.1833 38.7889C35.2745 38.2642 34.1125 38.5756 33.5878 39.4843L31.7678 42.6366C31.2432 43.5454 31.5545 44.7074 32.4633 45.2321L40.8897 50.0971C41.7985 50.6218 42.9605 50.3104 43.4852 49.4016L45.3052 46.2493C45.8298 45.3406 45.5185 44.1785 44.6097 43.6539Z" fill="white"/>
<g opacity="0.6">
<path d="M37.761 39.699C35.9817 38.6717 33.7066 39.2814 32.6793 41.0606C31.6521 42.8399 32.2617 45.115 34.041 46.1422L39.315 49.1872C41.0943 50.2145 43.3694 49.6049 44.3967 47.8256C45.4239 46.0464 44.8143 43.7712 43.035 42.744L37.761 39.699Z" fill="#FAD1A7"/>
</g>
<path d="M41.1551 50.4201C40.3851 50.4201 39.6251 50.2201 38.9451 49.8251L33.6701 46.7801C32.6451 46.1901 31.9101 45.2301 31.6001 44.0751C31.2901 42.9251 31.4501 41.7251 32.0401 40.7001C32.6301 39.6751 33.5951 38.9401 34.7451 38.6301C35.8951 38.3251 37.0951 38.4801 38.1201 39.0701L43.3951 42.1151C45.5201 43.3451 46.2501 46.0701 45.0251 48.2001C44.4301 49.2251 43.4701 49.9601 42.3201 50.2701C41.9351 50.3751 41.5451 50.4251 41.1551 50.4251V50.4201ZM35.9051 39.9401C35.6451 39.9401 35.3801 39.9751 35.1201 40.0451C34.3451 40.2501 33.7051 40.7451 33.3051 41.4301C32.9101 42.1151 32.8051 42.9201 33.0101 43.6951C33.2151 44.4701 33.7101 45.1101 34.3951 45.5101L39.6701 48.5551C40.3601 48.9501 41.1601 49.0551 41.9351 48.8501C42.7101 48.6451 43.3551 48.1501 43.7501 47.4651C44.5751 46.0401 44.0801 44.2101 42.6551 43.3851L37.3801 40.3401C36.9251 40.0751 36.4151 39.9401 35.9001 39.9401H35.9051Z" fill="#F48D25"/>
<g style="mix-blend-mode:multiply">
<path d="M39.7198 48.5847L34.3198 45.4597C33.9648 45.2047 33.7248 45.0097 33.5198 44.7397C32.2248 43.0147 33.4298 41.2397 33.4298 41.2397L33.6248 41.6297C34.3098 42.9947 35.3798 44.1297 36.7048 44.8947L39.1948 46.3347C40.5948 47.1397 42.2048 47.4947 43.8148 47.3497C43.8148 47.3497 43.6598 47.6747 43.3398 48.0097C42.7248 48.6597 41.5098 49.4447 39.7148 48.5847H39.7198Z" fill="#FCE7D2"/>
</g>
<path d="M45.2538 35.3751L36.8273 30.5101C35.9186 29.9854 34.7566 30.2968 34.2319 31.2055L32.4119 34.3578C31.8872 35.2666 32.1986 36.4286 33.1073 36.9533L41.5338 41.8183C42.4425 42.343 43.6045 42.0316 44.1292 41.1228L45.9492 37.9705C46.4739 37.0618 46.1625 35.8997 45.2538 35.3751Z" fill="white"/>
<g opacity="0.6">
<path d="M38.4033 31.4202C36.624 30.3929 34.3489 31.0026 33.3217 32.7818C32.2944 34.5611 32.904 36.8362 34.6833 37.8634L39.9574 40.9084C41.7366 41.9357 44.0117 41.3261 45.039 39.5468C46.0662 37.7676 45.4566 35.4924 43.6774 34.4652L38.4033 31.4202Z" fill="#FAD1A7"/>
</g>
<path d="M41.8004 42.1398C41.0304 42.1398 40.2704 41.9398 39.5904 41.5448L34.3154 38.4998C33.2904 37.9098 32.5554 36.9448 32.2454 35.7948C31.9354 34.6448 32.0954 33.4448 32.6854 32.4198C33.9154 30.2948 36.6404 29.5598 38.7654 30.7898L44.0404 33.8348C46.1654 35.0648 46.8954 37.7898 45.6704 39.9148C45.0804 40.9398 44.1154 41.6748 42.9654 41.9848C42.5804 42.0898 42.1854 42.1398 41.8004 42.1398ZM36.5454 31.6598C35.5104 31.6598 34.5054 32.1948 33.9554 33.1498C33.5604 33.8348 33.4554 34.6398 33.6604 35.4148C33.8654 36.1898 34.3604 36.8298 35.0454 37.2298L40.3204 40.2748C41.7454 41.0998 43.5754 40.6048 44.4004 39.1798C45.2254 37.7548 44.7354 35.9248 43.3054 35.0998L38.0304 32.0548C37.5604 31.7848 37.0504 31.6548 36.5454 31.6548V31.6598Z" fill="#F48D25"/>
<g style="mix-blend-mode:multiply">
<path d="M40.3602 40.3045L34.9602 37.1795C34.6052 36.9245 34.3652 36.7295 34.1602 36.4595C32.8652 34.7345 34.0702 32.9595 34.0702 32.9595L34.2652 33.3495C34.9502 34.7145 36.0202 35.8495 37.3452 36.6145L39.8352 38.0545C41.2352 38.8595 42.8452 39.2145 44.4552 39.0695C44.4552 39.0695 44.3002 39.3945 43.9802 39.7295C43.3652 40.3795 42.1502 41.1645 40.3552 40.3045H40.3602Z" fill="#FCE7D2"/>
</g>
<path d="M72.3233 34.8909V46.4506C72.3233 47.5838 71.4059 48.5072 70.2667 48.5072L60.6856 48.4952C60.4817 48.5312 60.3078 48.6511 60.2239 48.693L57.0761 50.3419L53.9344 51.9907C53.7005 52.1106 53.4247 51.9367 53.4367 51.6729L53.5626 48.5132H53.047C51.9138 48.5132 50.9905 47.5958 50.9905 46.4566V34.8969C50.9905 33.7637 51.9078 32.8403 53.047 32.8403H70.2727C71.4059 32.8403 72.3293 33.7577 72.3293 34.8969L72.3233 34.8909Z" fill="#FAFBFC"/>
<path d="M53.7778 52.6084C53.6039 52.6084 53.4301 52.5605 53.2802 52.4645C52.9984 52.2847 52.8365 51.9789 52.8545 51.6431L52.9564 49.0889C51.5414 49.041 50.4082 47.8778 50.4082 46.4508V34.8911C50.4082 33.4401 51.5894 32.2529 53.0463 32.2529H70.2721C71.729 32.2529 72.9102 33.4341 72.9102 34.8911V46.4508C72.9102 47.9078 71.729 49.0889 70.2721 49.0889L60.7568 49.0769C60.7029 49.0949 60.6309 49.1369 60.583 49.1609L60.493 49.2089L54.2095 52.5005C54.0776 52.5725 53.9277 52.6084 53.7778 52.6084ZM53.0463 33.4221C52.2369 33.4221 51.5714 34.0816 51.5714 34.897V46.4568C51.5714 47.2662 52.2309 47.9318 53.0463 47.9318H54.1735L54.0356 51.2834L59.9594 48.1836C60.1153 48.0936 60.3311 47.9737 60.5949 47.9258H70.2721C71.0815 47.9258 71.747 47.2662 71.747 46.4568V34.897C71.747 34.0876 71.0875 33.4221 70.2721 33.4221H53.0463Z" fill="#005894"/>
<g style="mix-blend-mode:multiply">
<path d="M70.1654 32.277C71.6404 32.277 72.8335 33.4701 72.8335 34.9451V46.5348C72.8335 48.0098 71.6404 49.2029 70.1654 49.2029C69.9975 49.2029 69.8596 49.065 69.8596 48.8972V32.5768C69.8596 32.4089 69.9975 32.271 70.1654 32.271V32.277Z" fill="#D4E1EB"/>
</g>
<rect x="0.5" width="28" height="28" rx="14" fill="#005895"/>
<path d="M18.7038 20.2417H10.3878V18.1357L12.5838 16.0477C13.4238 15.2437 14.1678 14.4037 14.8158 13.5277C15.4758 12.6397 15.8058 11.8417 15.8058 11.1337C15.8058 10.5817 15.6018 10.1617 15.1938 9.8737C14.7858 9.5857 14.3058 9.4417 13.7538 9.4417C13.2498 9.4417 12.7698 9.5317 12.3138 9.7117C11.8578 9.8797 11.3778 10.1257 10.8738 10.4497L10.6758 8.3617C11.8518 7.7617 13.0878 7.4617 14.3838 7.4617C15.6078 7.4617 16.5678 7.7737 17.2638 8.3977C17.9718 9.0097 18.3258 9.9217 18.3258 11.1337C18.3258 11.9737 18.0978 12.7897 17.6418 13.5817C17.1978 14.3737 16.7298 15.0337 16.2378 15.5617C15.7458 16.0897 15.2478 16.6057 14.7438 17.1097C14.2398 17.6137 13.8558 17.9977 13.5918 18.2617H18.7038V20.2417Z" fill="white"/>
<path d="M64.1408 45.4152C63.6792 45.3664 63.2772 45.2469 62.8862 45.0894C62.0878 44.7635 61.3763 44.291 60.7191 43.7315C59.8175 42.9657 59.0517 42.0858 58.4705 41.0485C58.1664 40.5053 57.9328 39.9296 57.8188 39.3104C57.7862 39.1258 57.8025 38.9628 57.9165 38.8053C58.2913 38.2676 58.7041 37.7571 59.1875 37.3117C59.2418 37.2628 59.2961 37.2194 59.3558 37.1814C59.4645 37.1108 59.5459 37.1108 59.6491 37.2031C59.698 37.2465 59.7469 37.2954 59.7849 37.3497C60.1651 37.882 60.5127 38.4306 60.7897 39.0226C60.9364 39.3322 60.9201 39.3919 60.6594 39.6255C60.491 39.7721 60.3226 39.9242 60.1542 40.0708C60.0836 40.1306 60.0782 40.1903 60.1054 40.2718C60.3606 41.0756 60.8169 41.7491 61.4578 42.2868C61.9031 42.6616 62.4028 42.944 62.9622 43.1015C63.022 43.1178 63.06 43.1124 63.098 43.0635C63.2447 42.8951 63.3913 42.7322 63.538 42.5638C63.7987 42.2651 63.853 42.2488 64.206 42.4226C64.7763 42.6996 65.3086 43.0309 65.8245 43.4002C66.1233 43.6175 66.1341 43.737 65.8843 44.0085C65.4172 44.5191 64.8903 44.9536 64.3092 45.3283C64.244 45.3718 64.168 45.3935 64.1245 45.4098L64.1408 45.4152Z" fill="#005894"/>
<path d="M66.0695 40.9772H65.4883C65.4666 40.0919 65.1625 39.3206 64.5379 38.6852C63.9078 38.0551 63.1366 37.7401 62.2458 37.7238V37.1481C64.212 37.0775 66.1021 38.7992 66.0749 40.9772H66.0695Z" fill="#005894"/>
<path d="M64.5918 40.9719H64.0106C63.9943 40.4885 63.8314 40.0703 63.4892 39.7282C63.147 39.386 62.7288 39.2176 62.24 39.2013V38.6256C63.3969 38.5713 64.608 39.5924 64.5918 40.9774V40.9719Z" fill="#005894"/>
</svg>
