<svg width="112" height="106" viewBox="0 0 112 106" fill="none" xmlns="http://www.w3.org/2000/svg">
<path d="M82.8105 28.2083H82.6731V28.1533L82.8105 28.2083Z" fill="white"/>
<path d="M59 99.7232C84.8048 99.7232 105.724 78.8043 105.724 52.9996C105.724 27.1948 84.8048 6.27588 59 6.27588C33.1953 6.27588 12.2764 27.1948 12.2764 52.9996C12.2764 78.8043 33.1953 99.7232 59 99.7232Z" fill="#EAEAEA" fill-opacity="0.6"/>
<path d="M59.0274 80.6583C62.8222 80.6583 65.8985 77.582 65.8985 73.7871C65.8985 69.9923 62.8222 66.916 59.0274 66.916C55.2326 66.916 52.1562 69.9923 52.1562 73.7871C52.1562 77.582 55.2326 80.6583 59.0274 80.6583Z" fill="#765BA7"/>
<path d="M57.8635 76.6088C57.6986 76.6088 57.5428 76.5447 57.4146 76.4256L55.3532 74.3642C55.1059 74.1169 55.1059 73.7137 55.3532 73.4755C55.6006 73.2373 56.0037 73.2282 56.2419 73.4755L57.8543 75.088L61.7846 71.1577C62.032 70.9103 62.4351 70.9103 62.6733 71.1577C62.9115 71.405 62.9206 71.8082 62.6733 72.0464L58.2941 76.4256C58.175 76.5447 58.0101 76.6088 57.8452 76.6088H57.8635Z" fill="white"/>
<g style="mix-blend-mode:hard-light" opacity="0.19">
<g style="mix-blend-mode:hard-light">
<path d="M65.8996 73.7871C65.8996 77.58 62.8213 80.6583 59.0284 80.6583C58.5979 80.6583 58.1764 80.6216 57.7642 80.5392C60.9524 79.9528 63.371 77.1494 63.371 73.7871C63.371 70.4249 60.9524 67.6214 57.7642 67.0351C58.1673 66.9618 58.5979 66.916 59.0284 66.916C62.8213 66.916 65.8996 69.9943 65.8996 73.7871Z" fill="#402308"/>
</g>
</g>
<path d="M83.2965 32.5508H34.9054C33.686 32.5508 32.6975 33.5393 32.6975 34.7587V42.1154C32.6975 43.3348 33.686 44.3233 34.9054 44.3233H83.2965C84.5159 44.3233 85.5044 43.3348 85.5044 42.1154V34.7587C85.5044 33.5393 84.5159 32.5508 83.2965 32.5508Z" fill="white"/>
<path d="M83.0941 44.8089H34.5198C32.8524 44.8089 31.4873 43.453 31.4873 41.7764V34.154C31.4873 32.4866 32.8432 31.1216 34.5198 31.1216H83.0941C84.7615 31.1216 86.1265 32.4775 86.1265 34.154V41.7764C86.1265 43.4438 84.7706 44.8089 83.0941 44.8089ZM34.5198 32.9539C33.8601 32.9539 33.3196 33.4944 33.3196 34.154V41.7764C33.3196 42.436 33.8601 42.9766 34.5198 42.9766H83.0941C83.7537 42.9766 84.2942 42.436 84.2942 41.7764V34.154C84.2942 33.4944 83.7537 32.9539 83.0941 32.9539H34.5198Z" fill="#005895"/>
<path d="M68.747 39.5133H50.3507C50.0941 39.5133 49.8926 39.3118 49.8926 39.0552C49.8926 38.7987 50.0941 38.5972 50.3507 38.5972H68.747C69.0035 38.5972 69.205 38.7987 69.205 39.0552C69.205 39.3118 69.0035 39.5133 68.747 39.5133Z" fill="#005895"/>
<path d="M56.0591 36.4811H50.3424C50.0858 36.4811 49.8843 36.2795 49.8843 36.023C49.8843 35.7665 50.0858 35.5649 50.3424 35.5649H56.0591C56.3157 35.5649 56.5172 35.7665 56.5172 36.023C56.5172 36.2795 56.3157 36.4811 56.0591 36.4811Z" fill="#005895"/>
<path d="M84.5642 32.688H80.2128C80.1495 32.688 80.0981 33.2771 80.0981 34.0039V42.3659C80.0981 43.0926 80.1495 43.6818 80.2128 43.6818H84.5642C84.6275 43.6818 84.6789 43.0926 84.6789 42.3659V34.0039C84.6789 33.2771 84.6275 32.688 84.5642 32.688Z" fill="#863399" fill-opacity="0.1"/>
<path d="M38.4063 37.9834C39.2057 37.9834 39.8538 37.3353 39.8538 36.5359C39.8538 35.7365 39.2057 35.0884 38.4063 35.0884C37.6068 35.0884 36.9587 35.7365 36.9587 36.5359C36.9587 37.3353 37.6068 37.9834 38.4063 37.9834Z" fill="#005895"/>
<path d="M41.1808 40.8419H35.9038C36.0137 39.4768 37.1498 38.4141 38.5423 38.4141C39.9349 38.4141 41.0709 39.4768 41.1808 40.8419Z" fill="#005895"/>
<path d="M83.4518 48.8857H35.0607C33.8413 48.8857 32.8528 49.8743 32.8528 51.0937V58.4504C32.8528 59.6698 33.8413 60.6583 35.0607 60.6583H83.4518C84.6712 60.6583 85.6597 59.6698 85.6597 58.4504V51.0937C85.6597 49.8743 84.6712 48.8857 83.4518 48.8857Z" fill="white"/>
<path d="M83.2413 61.1438H34.667C32.9996 61.1438 31.6345 59.7879 31.6345 58.1114V50.489C31.6345 48.8216 32.9904 47.4565 34.667 47.4565H83.2413C84.9087 47.4565 86.2737 48.8124 86.2737 50.489V58.1114C86.2737 59.7788 84.9178 61.1438 83.2413 61.1438ZM34.667 49.298C34.0074 49.298 33.4668 49.8385 33.4668 50.4982V58.1205C33.4668 58.7802 34.0074 59.3207 34.667 59.3207H83.2413C83.9009 59.3207 84.4414 58.7802 84.4414 58.1205V50.4982C84.4414 49.8385 83.9009 49.298 83.2413 49.298H34.667Z" fill="#765BA7"/>
<path d="M68.8942 55.8576H50.4979C50.2413 55.8576 50.0398 55.656 50.0398 55.3995C50.0398 55.143 50.2413 54.9414 50.4979 54.9414H68.8942C69.1507 54.9414 69.3523 55.143 69.3523 55.3995C69.3523 55.656 69.1507 55.8576 68.8942 55.8576Z" fill="#765BA7"/>
<path d="M56.2147 52.8161H50.4979C50.2413 52.8161 50.0398 52.6145 50.0398 52.358C50.0398 52.1015 50.2413 51.8999 50.4979 51.8999H56.2147C56.4712 51.8999 56.6727 52.1015 56.6727 52.358C56.6727 52.6145 56.4712 52.8161 56.2147 52.8161Z" fill="#765BA7"/>
<path d="M84.5649 49.1787H80.2122C80.1492 49.1787 80.0981 49.7679 80.0981 50.4946V58.8566C80.0981 59.5834 80.1492 60.1725 80.2122 60.1725H84.5649C84.6278 60.1725 84.6789 59.5834 84.6789 58.8566V50.4946C84.6789 49.7679 84.6278 49.1787 84.5649 49.1787Z" fill="#F58520" fill-opacity="0.1"/>
<path d="M41.5198 51.8906H36.5085C36.1745 51.8906 35.9038 52.1613 35.9038 52.4953V56.1965C35.9038 56.5305 36.1745 56.8012 36.5085 56.8012H41.5198C41.8538 56.8012 42.1245 56.5305 42.1245 56.1965V52.4953C42.1245 52.1613 41.8538 51.8906 41.5198 51.8906Z" fill="#765BA7"/>
<path d="M39.0093 55.1245C38.8811 55.1245 38.762 55.0787 38.6704 54.9871L35.8669 52.2478L36.1876 51.918L38.991 54.6573L40.3286 53.393L41.8036 51.9546L42.1243 52.2844L39.3575 54.9871C39.2659 55.0787 39.1376 55.1245 39.0093 55.1245Z" fill="white"/>
<path d="M41.8955 52.019C41.8955 52.019 41.9871 52.0832 42.0421 52.1931L42.0146 52.2206L41.8589 52.0465L41.8864 52.019H41.8955Z" fill="white"/>
<rect x="0.699951" y="7.94971" width="28.2667" height="28.2667" rx="14.1333" fill="#005895"/>
<path d="M9.71131 29.25V27.2069C14.5806 23.8222 17.0153 21.0981 17.0153 19.0346C17.0153 17.6045 16.13 16.8894 14.3593 16.8894C12.861 16.8894 11.4479 17.264 10.1199 18.0131V15.5614C11.4479 14.8804 12.861 14.5399 14.3593 14.5399C17.9347 14.5399 19.7224 15.97 19.7224 18.8303C19.7224 21.3501 17.7712 24.0402 13.869 26.9005H19.7224V29.25H9.71131Z" fill="white"/>
</svg>
