<svg width="105" height="100" viewBox="0 0 105 100" fill="none" xmlns="http://www.w3.org/2000/svg">
<path d="M55 96.5C80.6812 96.5 101.5 75.6812 101.5 50C101.5 24.3188 80.6812 3.5 55 3.5C29.3188 3.5 8.5 24.3188 8.5 50C8.5 75.6812 29.3188 96.5 55 96.5Z" fill="#EAE6F2"/>
<path d="M27.2149 22.48H81.9849C82.9749 22.48 83.7849 23.285 83.7849 24.28V67.55C83.7849 68.065 83.3649 68.48 82.8549 68.48H27.2149C26.6999 68.48 26.2849 68.06 26.2849 67.55V23.415C26.2849 22.9 26.7049 22.485 27.2149 22.485V22.48Z" fill="white"/>
<path d="M83.7849 31.875H26.2849V34.795H83.7849V31.875Z" fill="#6A509B"/>
<path d="M79.0649 28.5501H59.5099C59.2399 28.5501 59.0249 28.3301 59.0249 28.0651C59.0249 27.8001 59.2449 27.5801 59.5099 27.5801H79.0649C79.3349 27.5801 79.5499 27.8001 79.5499 28.0651C79.5499 28.3301 79.3299 28.5501 79.0649 28.5501Z" fill="#6A509B"/>
<path d="M33.9149 29.535C34.7296 29.535 35.3899 28.8746 35.3899 28.06C35.3899 27.2453 34.7296 26.585 33.9149 26.585C33.1003 26.585 32.4399 27.2453 32.4399 28.06C32.4399 28.8746 33.1003 29.535 33.9149 29.535Z" fill="#D10000"/>
<path d="M38.81 29.535C39.6246 29.535 40.285 28.8746 40.285 28.06C40.285 27.2453 39.6246 26.585 38.81 26.585C37.9953 26.585 37.335 27.2453 37.335 28.06C37.335 28.8746 37.9953 29.535 38.81 29.535Z" fill="#FFE100"/>
<path d="M43.7099 29.535C44.5245 29.535 45.1849 28.8746 45.1849 28.06C45.1849 27.2453 44.5245 26.585 43.7099 26.585C42.8952 26.585 42.2349 27.2453 42.2349 28.06C42.2349 28.8746 42.8952 29.535 43.7099 29.535Z" fill="#82C55B"/>
<path d="M71.8699 42.2852H37.3149C36.5334 42.2852 35.8999 42.9187 35.8999 43.7002V56.6402C35.8999 57.4216 36.5334 58.0552 37.3149 58.0552H71.8699C72.6514 58.0552 73.2849 57.4216 73.2849 56.6402V43.7002C73.2849 42.9187 72.6514 42.2852 71.8699 42.2852Z" fill="#74C0EB"/>
<g style="mix-blend-mode:multiply" opacity="0.4">
<path d="M71.5295 42.2853H71.8995C72.6645 42.2853 73.2845 42.9053 73.2845 43.6703V56.6503C73.2845 57.4253 72.6545 58.0503 71.8845 58.0503H71.5295V42.2803V42.2853Z" fill="#74C0EB"/>
</g>
<g style="mix-blend-mode:multiply" opacity="0.12">
<path d="M80.1945 22.48H82.8645C83.3745 22.48 83.7845 22.895 83.7845 23.4V67.565C83.7845 68.07 83.3745 68.475 82.8745 68.475H80.1945C80.1045 68.475 80.0295 68.4 80.0295 68.31V22.65C80.0295 22.56 80.1045 22.485 80.1945 22.485V22.48Z" fill="#6A509B"/>
</g>
<path d="M82.8649 21.48H27.2049C26.1445 21.48 25.2849 22.3396 25.2849 23.4V67.56C25.2849 68.6204 26.1445 69.48 27.2049 69.48H82.8649C83.9253 69.48 84.7849 68.6204 84.7849 67.56V23.4C84.7849 22.3396 83.9253 21.48 82.8649 21.48Z" stroke="#6A509B" stroke-width="2.5" stroke-miterlimit="10"/>
<path d="M46.6721 53.1095C46.7258 53.2708 46.7594 53.3985 46.7729 53.4926C46.7863 53.5866 46.7684 53.6583 46.7191 53.7076C46.6698 53.7524 46.5825 53.7793 46.457 53.7882C46.3316 53.8017 46.1591 53.8084 45.9396 53.8084C45.7112 53.8084 45.532 53.8039 45.4021 53.7949C45.2766 53.7905 45.1803 53.7793 45.1131 53.7613C45.0459 53.7389 44.9989 53.7098 44.972 53.674C44.9451 53.6382 44.9227 53.5911 44.9048 53.5329L44.3202 51.7858H41.0545L40.5035 53.4858C40.4855 53.5486 40.4609 53.6023 40.4295 53.6471C40.4027 53.6874 40.3556 53.721 40.2884 53.7479C40.2257 53.7703 40.1339 53.786 40.0129 53.7949C39.8965 53.8039 39.7419 53.8084 39.5493 53.8084C39.3432 53.8084 39.1819 53.8017 39.0655 53.7882C38.949 53.7748 38.8684 53.7434 38.8236 53.6942C38.7788 53.6404 38.7631 53.5665 38.7765 53.4724C38.79 53.3783 38.8236 53.2529 38.8773 53.0961L41.5584 45.382C41.5853 45.3058 41.6167 45.2453 41.6525 45.2005C41.6884 45.1513 41.7444 45.1154 41.8205 45.093C41.9011 45.0662 42.0109 45.0505 42.1498 45.046C42.2886 45.037 42.4723 45.0326 42.7008 45.0326C42.9651 45.0326 43.1756 45.037 43.3324 45.046C43.4892 45.0505 43.6102 45.0662 43.6953 45.093C43.7849 45.1154 43.8476 45.1513 43.8834 45.2005C43.9237 45.2498 43.9573 45.317 43.9842 45.4021L46.6721 53.1095ZM42.6806 46.7326H42.6739L41.4442 50.4284H43.9103L42.6806 46.7326ZM53.8285 50.4553C53.8285 50.9884 53.7702 51.47 53.6538 51.9C53.5418 52.3256 53.376 52.6884 53.1565 52.9886C52.937 53.2887 52.6637 53.5194 52.3367 53.6807C52.0097 53.842 51.6356 53.9226 51.2145 53.9226C51.0398 53.9226 50.8786 53.9047 50.7307 53.8689C50.5874 53.8375 50.4463 53.7882 50.3074 53.721C50.173 53.6494 50.0386 53.562 49.9042 53.459C49.7698 53.3559 49.6309 53.235 49.4876 53.0961V55.9183C49.4876 55.9631 49.4742 56.0035 49.4473 56.0393C49.4204 56.0751 49.3734 56.1043 49.3062 56.1267C49.2434 56.1535 49.1583 56.1737 49.0508 56.1871C48.9433 56.2006 48.8067 56.2073 48.6409 56.2073C48.4752 56.2073 48.3385 56.2006 48.231 56.1871C48.1235 56.1737 48.0362 56.1535 47.969 56.1267C47.9062 56.1043 47.8614 56.0751 47.8346 56.0393C47.8077 56.0035 47.7943 55.9631 47.7943 55.9183V47.5457C47.7943 47.5009 47.8055 47.4628 47.8278 47.4315C47.8502 47.3956 47.8883 47.3665 47.9421 47.3441C48.0003 47.3217 48.0742 47.306 48.1638 47.2971C48.2579 47.2836 48.3744 47.2769 48.5133 47.2769C48.6476 47.2769 48.7596 47.2836 48.8492 47.2971C48.9433 47.306 49.0172 47.3217 49.071 47.3441C49.1292 47.3665 49.1695 47.3956 49.1919 47.4315C49.2143 47.4628 49.2255 47.5009 49.2255 47.5457V48.2513C49.4002 48.0721 49.5705 47.9153 49.7362 47.7809C49.9065 47.642 50.0789 47.5278 50.2536 47.4382C50.4283 47.3441 50.6075 47.2747 50.7912 47.2299C50.9794 47.1851 51.1787 47.1627 51.3892 47.1627C51.8283 47.1627 52.2023 47.25 52.5114 47.4247C52.8205 47.595 53.0714 47.8302 53.264 48.1303C53.4611 48.4304 53.6045 48.7799 53.6941 49.1786C53.7837 49.5773 53.8285 50.0028 53.8285 50.4553ZM52.0679 50.5762C52.0679 50.3209 52.0478 50.0768 52.0075 49.8438C51.9716 49.6064 51.9067 49.3958 51.8126 49.2122C51.723 49.0285 51.602 48.8829 51.4497 48.7754C51.3019 48.6634 51.116 48.6074 50.892 48.6074C50.78 48.6074 50.668 48.6253 50.556 48.6612C50.4485 48.6925 50.3365 48.7463 50.22 48.8224C50.108 48.8986 49.9916 48.9971 49.8706 49.1181C49.7497 49.239 49.622 49.3891 49.4876 49.5683V51.5439C49.725 51.844 49.9513 52.077 50.1663 52.2427C50.3813 52.404 50.6053 52.4846 50.8382 52.4846C51.0577 52.4846 51.2437 52.4286 51.396 52.3166C51.5528 52.2046 51.6804 52.059 51.779 51.8799C51.8775 51.6962 51.9492 51.4901 51.994 51.2616C52.0433 51.0332 52.0679 50.8047 52.0679 50.5762ZM61.2201 50.4553C61.2201 50.9884 61.1618 51.47 61.0453 51.9C60.9334 52.3256 60.7676 52.6884 60.5481 52.9886C60.3286 53.2887 60.0553 53.5194 59.7283 53.6807C59.4013 53.842 59.0272 53.9226 58.6061 53.9226C58.4314 53.9226 58.2701 53.9047 58.1223 53.8689C57.979 53.8375 57.8378 53.7882 57.699 53.721C57.5646 53.6494 57.4302 53.562 57.2958 53.459C57.1614 53.3559 57.0225 53.235 56.8792 53.0961V55.9183C56.8792 55.9631 56.8657 56.0035 56.8389 56.0393C56.812 56.0751 56.7649 56.1043 56.6978 56.1267C56.635 56.1535 56.5499 56.1737 56.4424 56.1871C56.3349 56.2006 56.1983 56.2073 56.0325 56.2073C55.8668 56.2073 55.7301 56.2006 55.6226 56.1871C55.5151 56.1737 55.4277 56.1535 55.3605 56.1267C55.2978 56.1043 55.253 56.0751 55.2262 56.0393C55.1993 56.0035 55.1858 55.9631 55.1858 55.9183V47.5457C55.1858 47.5009 55.197 47.4628 55.2194 47.4315C55.2418 47.3956 55.2799 47.3665 55.3337 47.3441C55.3919 47.3217 55.4658 47.306 55.5554 47.2971C55.6495 47.2836 55.766 47.2769 55.9048 47.2769C56.0392 47.2769 56.1512 47.2836 56.2408 47.2971C56.3349 47.306 56.4088 47.3217 56.4626 47.3441C56.5208 47.3665 56.5611 47.3956 56.5835 47.4315C56.6059 47.4628 56.6171 47.5009 56.6171 47.5457V48.2513C56.7918 48.0721 56.9621 47.9153 57.1278 47.7809C57.298 47.642 57.4705 47.5278 57.6452 47.4382C57.8199 47.3441 57.9991 47.2747 58.1828 47.2299C58.3709 47.1851 58.5703 47.1627 58.7808 47.1627C59.2199 47.1627 59.5939 47.25 59.903 47.4247C60.2121 47.595 60.463 47.8302 60.6556 48.1303C60.8527 48.4304 60.9961 48.7799 61.0857 49.1786C61.1753 49.5773 61.2201 50.0028 61.2201 50.4553ZM59.4595 50.5762C59.4595 50.3209 59.4394 50.0768 59.399 49.8438C59.3632 49.6064 59.2982 49.3958 59.2042 49.2122C59.1146 49.0285 58.9936 48.8829 58.8413 48.7754C58.6935 48.6634 58.5076 48.6074 58.2836 48.6074C58.1716 48.6074 58.0596 48.6253 57.9476 48.6612C57.8401 48.6925 57.7281 48.7463 57.6116 48.8224C57.4996 48.8986 57.3832 48.9971 57.2622 49.1181C57.1412 49.239 57.0136 49.3891 56.8792 49.5683V51.5439C57.1166 51.844 57.3428 52.077 57.5579 52.2427C57.7729 52.404 57.9969 52.4846 58.2298 52.4846C58.4493 52.4846 58.6352 52.4286 58.7876 52.3166C58.9443 52.2046 59.072 52.059 59.1706 51.8799C59.2691 51.6962 59.3408 51.4901 59.3856 51.2616C59.4349 51.0332 59.4595 50.8047 59.4595 50.5762ZM64.2708 53.5396C64.2708 53.5844 64.2573 53.6247 64.2304 53.6606C64.2036 53.6919 64.1565 53.7188 64.0893 53.7412C64.0266 53.7636 63.9415 53.7793 63.834 53.7882C63.7265 53.8017 63.5898 53.8084 63.4241 53.8084C63.2583 53.8084 63.1217 53.8017 63.0142 53.7882C62.9067 53.7793 62.8193 53.7636 62.7521 53.7412C62.6894 53.7188 62.6446 53.6919 62.6177 53.6606C62.5909 53.6247 62.5774 53.5844 62.5774 53.5396V44.7033C62.5774 44.6585 62.5909 44.6182 62.6177 44.5823C62.6446 44.5465 62.6894 44.5174 62.7521 44.495C62.8193 44.4681 62.9067 44.4479 63.0142 44.4345C63.1217 44.4211 63.2583 44.4144 63.4241 44.4144C63.5898 44.4144 63.7265 44.4211 63.834 44.4345C63.9415 44.4479 64.0266 44.4681 64.0893 44.495C64.1565 44.5174 64.2036 44.5465 64.2304 44.5823C64.2573 44.6182 64.2708 44.6585 64.2708 44.7033V53.5396ZM69.4382 53.7681L68.7124 55.8915C68.6721 56.0035 68.5624 56.0841 68.3832 56.1334C68.204 56.1827 67.9419 56.2073 67.597 56.2073C67.4178 56.2073 67.2744 56.1983 67.1669 56.1804C67.0594 56.167 66.9788 56.1423 66.925 56.1065C66.8713 56.0707 66.8421 56.0259 66.8377 55.9721C66.8332 55.9183 66.8466 55.8534 66.878 55.7772L67.6776 53.7681C67.6194 53.7412 67.5656 53.7009 67.5163 53.6471C67.4715 53.5889 67.4379 53.5284 67.4156 53.4657L65.3526 47.9556C65.2944 47.7988 65.2653 47.6801 65.2653 47.5995C65.2653 47.5143 65.2921 47.4494 65.3459 47.4046C65.3997 47.3553 65.4893 47.3217 65.6147 47.3038C65.7446 47.2859 65.9148 47.2769 66.1254 47.2769C66.318 47.2769 66.4703 47.2814 66.5823 47.2903C66.6943 47.2948 66.7817 47.3105 66.8444 47.3374C66.9071 47.3643 66.9541 47.4068 66.9855 47.4651C67.0169 47.5188 67.0482 47.5972 67.0796 47.7002L68.4907 51.7119H68.5108L69.801 47.6196C69.8279 47.5031 69.8615 47.427 69.9018 47.3911C69.9466 47.3508 70.0183 47.3217 70.1168 47.3038C70.2154 47.2859 70.3879 47.2769 70.6342 47.2769C70.8269 47.2769 70.9859 47.2859 71.1113 47.3038C71.2413 47.3217 71.3353 47.3553 71.3936 47.4046C71.4563 47.4539 71.4876 47.5211 71.4876 47.6062C71.4876 47.6868 71.4697 47.7831 71.4339 47.8951L69.4382 53.7681Z" fill="white"/>
<path d="M64.6497 68.0204L63.7897 66.9404C63.1897 66.1854 61.0297 64.6754 59.9297 65.5454C59.9297 65.5454 58.1497 66.8654 59.8797 68.8554C60.5347 69.6104 62.8097 71.5654 62.8097 71.5654C63.0597 71.7954 63.2947 72.0454 63.4997 72.3204C64.2997 73.3704 65.0197 74.4854 65.7797 75.5654C67.8347 78.4904 71.6747 79.8004 75.1997 78.5104L75.4597 78.4154C79.6697 76.8804 81.8397 72.2154 80.2947 68.0104L78.3697 63.8954L77.3147 61.0504C76.8247 59.8904 75.8297 59.4604 75.0347 59.7604C74.5947 59.9254 73.7597 60.3904 74.2997 61.9854C74.1147 61.4454 74.3447 62.1154 74.2997 61.9854L75.1297 64.1804L75.0147 64.2254L73.4297 60.0454C73.1447 59.1104 72.1847 58.4654 71.2347 58.7104C70.7197 58.8404 70.3297 59.1804 70.1047 59.6054C69.8897 60.0054 69.8247 60.4854 69.9697 60.9654L71.6497 65.4654L71.5247 65.5054L69.2297 59.5504C68.9397 58.6004 67.9447 58.0704 66.9997 58.3654C66.5297 58.5004 66.1597 58.8204 65.9397 59.2304C65.7197 59.6404 65.6697 60.1154 65.8147 60.5954L68.1647 66.7354L68.0447 66.7904L63.6747 55.4204C63.3897 54.4804 62.3897 53.9554 61.4447 54.2354C60.9797 54.3854 60.6097 54.7054 60.3947 55.1054C60.1797 55.5054 60.1197 56.0004 60.2597 56.4654L64.6797 68.0004" fill="#FCE7D2"/>
<g style="mix-blend-mode:multiply" opacity="0.6">
<path d="M64.6497 68.0204L63.7897 66.9404C63.1897 66.1854 61.0297 64.6754 59.9297 65.5454C59.9297 65.5454 58.1497 66.8654 59.8797 68.8554C60.5347 69.6104 62.8097 71.5654 62.8097 71.5654C63.0597 71.7954 63.2947 72.0454 63.4997 72.3204C64.2997 73.3704 65.0197 74.4854 65.7797 75.5654C67.8347 78.4904 71.6747 79.8004 75.1997 78.5104L75.4597 78.4154C79.6697 76.8804 81.8397 72.2154 80.2947 68.0104L78.3697 63.8954L77.3147 61.0504C76.8247 59.8904 75.8297 59.4604 75.0347 59.7604C74.5947 59.9254 73.7597 60.3904 74.2997 61.9854C74.1147 61.4454 74.3447 62.1154 74.2997 61.9854L75.1297 64.1804L75.0147 64.2254L73.4297 60.0454C73.1447 59.1104 72.1847 58.4654 71.2347 58.7104C70.7197 58.8404 70.3297 59.1804 70.1047 59.6054C69.8897 60.0054 69.8247 60.4854 69.9697 60.9654L71.6497 65.4654L71.5247 65.5054L69.2297 59.5504C68.9397 58.6004 67.9447 58.0704 66.9997 58.3654C66.5297 58.5004 66.1597 58.8204 65.9397 59.2304C65.7197 59.6404 65.6697 60.1154 65.8147 60.5954L68.1647 66.7354L68.0447 66.7904L63.6747 55.4204C63.3897 54.4804 62.3897 53.9554 61.4447 54.2354C60.9797 54.3854 60.6097 54.7054 60.3947 55.1054C60.1797 55.5054 60.1197 56.0004 60.2597 56.4654L64.6797 68.0004" fill="#FCE7D2"/>
</g>
<g style="mix-blend-mode:multiply">
<path d="M74.5601 60.0099C74.5601 60.0099 81.1251 73.0749 75.9801 77.3349C75.9801 77.3349 79.8651 75.9249 80.2851 70.9199C80.2851 70.9199 80.5801 68.8949 79.2801 66.6849C79.2801 66.6849 77.6451 63.2999 77.4751 62.5849C77.4751 62.5849 76.4601 58.1749 74.5651 60.0149L74.5601 60.0099Z" fill="#FCE7D2"/>
</g>
<path d="M64.595 67.6598L63.735 66.5848C63.135 65.8348 60.97 64.3298 59.87 65.1998C59.87 65.1998 58.095 66.5198 59.83 68.5098C60.485 69.2598 62.77 71.2148 62.77 71.2148C63.02 71.4448 63.255 71.6948 63.465 71.9648C64.27 73.0148 64.99 74.1248 65.755 75.2048C67.815 78.1248 71.665 79.4248 75.185 78.1248L75.445 78.0298C79.655 76.4848 81.805 71.8148 80.255 67.6098L78.315 63.4998L77.255 60.6548C76.76 59.4948 75.765 59.0698 74.97 59.3698C74.53 59.5348 73.695 60.0048 74.24 61.5948M74.24 61.5948C74.055 61.0548 74.285 61.7248 74.24 61.5948ZM74.24 61.5948L75.075 63.7898L74.96 63.8348L73.365 59.6598C73.075 58.7248 72.115 58.0848 71.17 58.3298C70.655 58.4648 70.265 58.8048 70.04 59.2298C69.825 59.6348 69.76 60.1148 69.91 60.5898L71.605 65.0848L71.48 65.1248L69.17 59.1748C68.875 58.2248 67.88 57.6998 66.935 57.9948C66.465 58.1348 66.095 58.4548 65.88 58.8648C65.665 59.2748 65.61 59.7498 65.755 60.2298L68.12 66.3598L68 66.4148L63.6 55.0598C63.31 54.1248 62.315 53.5948 61.365 53.8798C60.9 54.0298 60.53 54.3498 60.32 54.7548C60.11 55.1598 60.045 55.6498 60.19 56.1148L64.64 67.6398" stroke="#F48D25" stroke-width="1.25" stroke-miterlimit="10"/>
<rect width="28" height="28" rx="14" fill="#005895"/>
<path d="M10.5718 10.6297L14.2258 7.6777H16.4578V20.2417H13.9378V10.5397L11.8318 12.2677L10.5718 10.6297Z" fill="white"/>
</svg>
