<svg width="64" height="64" viewBox="0 0 64 64" fill="none" xmlns="http://www.w3.org/2000/svg">
<path d="M32 64.0003C49.6732 64.0003 64.0002 49.6734 64.0002 32.0002C64.0002 14.327 49.6732 0 32 0C14.3268 0 -0.000183105 14.327 -0.000183105 32.0002C-0.000183105 49.6734 14.3268 64.0003 32 64.0003Z" fill="#E6F7EE"/>
<path d="M37.1715 14.9242H27.3038V18.5771H37.1715V14.9242Z" fill="white"/>
<path d="M39.3055 18.583H24.6948C23.5396 18.583 22.6032 19.5194 22.6032 20.6746V46.9546C22.6032 48.1097 23.5396 49.0462 24.6948 49.0462H39.3055C40.4606 49.0462 41.3971 48.1097 41.3971 46.9546V20.6746C41.3971 19.5194 40.4606 18.583 39.3055 18.583Z" fill="white"/>
<path d="M39.7995 50.0285H24.1942C22.8742 50.0285 21.8013 48.9556 21.8013 47.6355V20.1199C21.8013 18.7998 22.8742 17.7269 24.1942 17.7269H39.7995C41.1195 17.7269 42.1924 18.7998 42.1924 20.1199V47.6416C42.1924 48.9616 41.1195 50.0345 39.7995 50.0345V50.0285ZM24.2002 19.2338C23.712 19.2338 23.3142 19.6316 23.3142 20.1199V47.6416C23.3142 48.1298 23.712 48.5276 24.2002 48.5276H39.8055C40.2937 48.5276 40.6916 48.1298 40.6916 47.6416V20.1199C40.6916 19.6316 40.2937 19.2338 39.8055 19.2338H24.2002Z" fill="#863399"/>
<path d="M37.2446 19.0473H27.1177C26.7018 19.0473 26.3643 18.7098 26.3643 18.2939V15.6657C26.3643 14.7314 27.1238 13.9658 28.0641 13.9658H36.3043C37.2386 13.9658 38.0041 14.7253 38.0041 15.6657V18.2939C38.0041 18.7098 37.6666 19.0473 37.2506 19.0473H37.2446ZM27.8712 17.5404H36.4911V15.6657C36.4911 15.5632 36.4067 15.4728 36.2982 15.4728H28.0581C27.9556 15.4728 27.8652 15.5572 27.8652 15.6657V17.5404H27.8712Z" fill="#863399"/>
<path d="M37.0936 33.4534L33.507 37.5584L29.5888 42.1698C29.4261 42.3626 29.1488 42.4169 28.9258 42.2903C28.7509 42.1939 28.6485 42.0191 28.6485 41.8262C28.6485 41.7538 28.6666 41.6694 28.7027 41.5971L31.4695 35.7139H27.7985C27.3766 35.7078 27.1536 35.2075 27.4308 34.8941L31.0174 30.7891L34.9356 26.1777C35.0983 25.9848 35.3756 25.9366 35.5986 26.0572C35.7734 26.1536 35.8759 26.3345 35.8759 26.5213C35.8759 26.5997 35.8578 26.6781 35.8217 26.7504L33.0549 32.6336H36.7259C37.1418 32.6396 37.3708 33.14 37.0936 33.4534Z" fill="#6BCB43"/>
<g opacity="0.1">
<path d="M38.5517 18.7395V48.9133C38.5517 49.0338 38.6482 49.1303 38.7687 49.1303H40.6071C41.2942 49.1303 41.8488 48.5757 41.8488 47.8886L41.8789 19.6978C41.8789 19.0469 41.3545 18.5225 40.7035 18.5225H38.7627C38.6421 18.5225 38.5457 18.6189 38.5457 18.7395H38.5517Z" fill="#863399"/>
</g>
<g opacity="0.1">
<path d="M36.7686 14.8817H34.2905V17.7396H36.7686V14.8817Z" fill="#863399"/>
</g>
</svg>
