<svg width="41" height="40" viewBox="0 0 41 40" fill="none" xmlns="http://www.w3.org/2000/svg">
<g clip-path="url(#clip0_384_10867)">
<path d="M20.99 40C32.0357 40 40.99 31.0457 40.99 20C40.99 8.95431 32.0357 0 20.99 0C9.94433 0 0.990021 8.95431 0.990021 20C0.990021 31.0457 9.94433 40 20.99 40Z" fill="#383838" fill-opacity="0.05"/>
<path d="M24.2222 9.32812H18.0549V11.6112H24.2222V9.32812Z" fill="white"/>
<path d="M25.556 11.6133H16.4243C15.7023 11.6133 15.1171 12.1985 15.1171 12.9205V29.3454C15.1171 30.0674 15.7023 30.6526 16.4243 30.6526H25.556C26.2779 30.6526 26.8632 30.0674 26.8632 29.3454V12.9205C26.8632 12.1985 26.2779 11.6133 25.556 11.6133Z" fill="white"/>
<path d="M25.8647 31.2665H16.1114C15.2864 31.2665 14.6159 30.5959 14.6159 29.7709V12.5737C14.6159 11.7487 15.2864 11.0781 16.1114 11.0781H25.8647C26.6897 11.0781 27.3603 11.7487 27.3603 12.5737V29.7747C27.3603 30.5997 26.6897 31.2703 25.8647 31.2703V31.2665ZM16.1152 12.0199C15.8101 12.0199 15.5614 12.2686 15.5614 12.5737V29.7747C15.5614 30.0798 15.8101 30.3285 16.1152 30.3285H25.8685C26.1736 30.3285 26.4222 30.0798 26.4222 29.7747V12.5737C26.4222 12.2686 26.1736 12.0199 25.8685 12.0199H16.1152Z" fill="#863399"/>
<path d="M24.2679 11.9025H17.9386C17.6787 11.9025 17.4677 11.6915 17.4677 11.4316V9.78897C17.4677 9.20502 17.9424 8.72656 18.5301 8.72656H23.6802C24.2641 8.72656 24.7426 9.20126 24.7426 9.78897V11.4316C24.7426 11.6915 24.5316 11.9025 24.2717 11.9025H24.2679ZM18.4096 10.9606H23.797V9.78897C23.797 9.72493 23.7442 9.66842 23.6764 9.66842H18.5264C18.4623 9.66842 18.4058 9.72116 18.4058 9.78897V10.9606H18.4096Z" fill="#863399"/>
<path d="M24.1735 20.9098L21.9319 23.4754L19.483 26.3575C19.3813 26.478 19.208 26.5119 19.0686 26.4328C18.9594 26.3725 18.8953 26.2633 18.8953 26.1427C18.8953 26.0975 18.9066 26.0448 18.9292 25.9996L20.6585 22.3226H18.3641C18.1004 22.3188 17.961 22.0061 18.1343 21.8102L20.3759 19.2446L22.8247 16.3625C22.9265 16.242 23.0998 16.2118 23.2392 16.2872C23.3484 16.3475 23.4125 16.4605 23.4125 16.5773C23.4125 16.6262 23.4012 16.6752 23.3786 16.7204L21.6493 20.3974H23.9437C24.2036 20.4012 24.3468 20.7139 24.1735 20.9098Z" fill="#6BCB43"/>
<g opacity="0.1">
<path d="M25.0848 11.7137V30.5723C25.0848 30.6476 25.1451 30.7079 25.2204 30.7079H26.3694C26.7989 30.7079 27.1455 30.3613 27.1455 29.9319L27.1643 12.3127C27.1643 11.9059 26.8366 11.5781 26.4297 11.5781H25.2167C25.1413 11.5781 25.0811 11.6384 25.0811 11.7137H25.0848Z" fill="#863399"/>
</g>
<g opacity="0.1">
<path d="M23.9704 9.30078H22.4216V11.087H23.9704V9.30078Z" fill="#863399"/>
</g>
</g>
<defs>
<clipPath id="clip0_384_10867">
<rect width="40" height="40" fill="white" transform="translate(0.990021)"/>
</clipPath>
</defs>
</svg>
