<svg xmlns="http://www.w3.org/2000/svg" xmlns:xlink="http://www.w3.org/1999/xlink" width="132" height="88" viewBox="0 0 132 88">
  <defs>
    <clipPath id="clip-Badge_in_plans">
      <rect width="132" height="88"/>
    </clipPath>
  </defs>
  <g id="Badge_in_plans" data-name="Badge in plans" clip-path="url(#clip-Badge_in_plans)">
    <rect width="132" height="88" fill="#fff"/>
    <text id="Perfect_for_a_First_Phone_" data-name="Perfect for
a First Phone!" transform="matrix(0.974, 0.225, -0.225, 0.974, 59.976, 51.858)" fill="#863399" font-size="16" font-family="Cookiesandcream"><tspan x="-30.064" y="0">Perfect for</tspan><tspan x="-35.736" y="17">a First Phone!</tspan></text>
    <line id="Line_395" data-name="Line 395" x2="11.938" y2="11.938" transform="matrix(0.995, 0.105, -0.105, 0.995, 14.644, 15.173)" fill="none" stroke="#863399" stroke-width="2"/>
    <line id="Line_396" data-name="Line 396" y2="16.713" transform="matrix(0.995, 0.105, -0.105, 0.995, 51.093, 11)" fill="none" stroke="#863399" stroke-width="2"/>
    <line id="Line_398" data-name="Line 398" y1="15.121" x2="7.959" transform="matrix(0.995, 0.105, -0.105, 0.995, 78.296, 18.661)" fill="none" stroke="#863399" stroke-width="2"/>
    <line id="Line_400" data-name="Line 400" y1="9.55" x2="11.938" transform="matrix(0.995, 0.105, -0.105, 0.995, 108.127, 39.403)" fill="none" stroke="#863399" stroke-width="2"/>
    <line id="Line_399" data-name="Line 399" x2="11.938" transform="matrix(0.995, 0.105, -0.105, 0.995, 105.299, 66.314)" fill="none" stroke="#863399" stroke-width="2"/>
    <line id="Line_397" data-name="Line 397" x2="11.142" y2="4.775" transform="matrix(0.995, 0.105, -0.105, 0.995, 8.981, 38.584)" fill="none" stroke="#863399" stroke-width="2"/>
  </g>
</svg>
