<svg width="639" height="255" viewBox="0 0 639 255" fill="none" xmlns="http://www.w3.org/2000/svg">
<g clip-path="url(#clip0_349_143917)">
<rect width="639" height="255" transform="translate(-1)" fill="url(#paint0_linear_349_143917)"/>
<g opacity="0.5">
<mask id="mask0_349_143917" style="mask-type:alpha" maskUnits="userSpaceOnUse" x="20" y="-436" width="777" height="777">
<path d="M425.58 -9.14107C422.854 0.119573 416.952 5.60006 407.312 5.16443C397.672 4.7288 392.304 -1.31378 390.322 -10.6306C390.022 -8.2197 389.234 -5.89509 388.007 -3.79819C386.779 -1.70129 385.138 0.124079 383.184 1.56698C379.908 3.99381 375.865 5.15199 371.801 4.82719C367.786 4.51795 364.007 2.81228 361.119 0.00643736C358.231 -2.79941 356.417 -6.52817 355.992 -10.5323C355.079 -19.5118 360.531 -26.5944 371 -29.5314C366.55 -30.2012 362.489 -32.4509 359.561 -35.869C356.758 -39.1737 355.303 -43.4137 355.486 -47.7435C355.823 -56.0204 360.826 -61.6415 370.312 -64.6065C368.045 -65.4224 365.854 -66.4332 363.763 -67.6278C361.845 -69.0261 360.136 -70.6919 358.69 -72.5744C357.112 -74.507 356.178 -76.8854 356.02 -79.3758C355.8 -81.7232 355.923 -84.0902 356.386 -86.4021C357.25 -90.0355 359.296 -93.2792 362.203 -95.6241C365.11 -97.9691 368.713 -99.2825 372.448 -99.3585C380.977 -99.6255 387.175 -94.7915 390.322 -85.1233C392.388 -93.077 397.194 -97.9673 405.513 -99.9347C399.667 -101.34 395.522 -104.221 393.006 -109.111C391.127 -112.721 390.627 -116.893 391.601 -120.845C392.527 -124.679 394.755 -128.073 397.906 -130.448C401.056 -132.822 404.932 -134.029 408.873 -133.863C412.814 -133.697 416.576 -132.169 419.515 -129.538C422.454 -126.908 424.39 -123.338 424.99 -119.44C425.974 -112.68 423.163 -103.251 410.938 -99.8925C418.442 -98.1079 423.29 -93.7797 425.721 -86.0086C427.295 -91.0956 429.838 -94.7915 433.942 -97.1242C435.862 -98.3218 438.002 -99.125 440.236 -99.4869C442.47 -99.8488 444.754 -99.7622 446.954 -99.2321C450.532 -98.3447 453.747 -96.374 456.162 -93.5896C458.577 -90.8051 460.073 -87.3427 460.445 -83.6759C460.89 -79.4529 459.726 -75.2175 457.185 -71.8155C454.66 -68.4169 451.107 -65.9233 447.053 -64.7049C450.539 -63.6669 453.689 -61.728 456.187 -59.0839C458.562 -56.378 460.177 -53.0902 460.866 -49.5563C462.117 -54.4606 464.436 -58.6202 468.792 -61.3604C470.859 -62.7243 473.206 -63.6076 475.66 -63.9456C478.114 -64.2837 480.612 -64.0677 482.971 -63.3137C486.681 -62.1789 489.892 -59.8105 492.072 -56.6009C494.251 -53.3914 495.269 -49.5333 494.956 -45.6662C494.643 -41.7991 493.017 -38.1552 490.349 -35.3382C487.682 -32.5213 484.131 -30.7006 480.287 -30.1778C471.083 -29.0676 464.562 -33.9298 460.81 -44.9751C460.313 -41.2115 458.663 -37.6941 456.086 -34.9062C453.51 -32.1182 450.133 -30.1965 446.42 -29.4049C452.041 -27.7326 455.99 -24.8378 458.435 -20.1161C459.705 -17.6123 460.347 -14.8377 460.308 -12.0307C460.269 -9.22371 459.548 -6.46822 458.209 -4.00104C456.87 -1.53386 454.951 0.57127 452.619 2.13349C450.286 3.69571 447.61 4.66831 444.818 4.96772C435.684 5.75466 429.403 1.20162 425.58 -9.14107ZM403.096 -29.2362C395.606 -32.5807 394.173 -34.0563 390.069 -42.3894C387.638 -35.3632 382.804 -31.0771 375.075 -29.4892C383.943 -27.4516 388.875 -22.3364 390.322 -13.7784C390.772 -17.3034 392.214 -20.6281 394.48 -23.3649C396.747 -26.1017 399.745 -28.1379 403.124 -29.2362L403.096 -29.2362ZM375.89 -64.7189C379.198 -64.0445 382.262 -62.4901 384.76 -60.2197C387.258 -57.9493 389.097 -55.047 390.084 -51.8187C390.911 -53.7312 391.883 -55.5775 392.992 -57.3413C394.254 -59.0573 395.743 -60.5937 397.419 -61.9084C399.13 -63.0621 400.919 -64.0952 402.773 -65C396.042 -67.4171 392.121 -72.1247 390.266 -79.2774C388.201 -71.1831 383.409 -66.6582 375.89 -64.7189ZM412.891 -29.2784C416.01 -28.2952 418.821 -26.5221 421.052 -24.1311C423.283 -21.7401 424.857 -18.8127 425.622 -15.6333C427.576 -22.7439 432.002 -27.2548 439.394 -29.433C436.266 -30.1611 433.373 -31.6673 430.983 -33.812C428.593 -35.9566 426.783 -38.6701 425.721 -41.7009C424.722 -38.7605 423.037 -36.1002 420.806 -33.94C418.575 -31.7799 415.862 -30.1819 412.891 -29.2784V-29.2784ZM413.776 -65.0843C416.303 -63.6029 418.701 -61.9106 420.943 -60.0254C422.828 -57.836 424.516 -55.4848 425.988 -52.9991C427.049 -55.8497 428.776 -58.4056 431.025 -60.4539C433.274 -62.5022 435.979 -63.9838 438.916 -64.7752C432.157 -66.8128 427.899 -71.1129 425.665 -78.1673C424.919 -75.1738 423.442 -72.412 421.368 -70.1288C419.293 -67.8457 416.685 -66.1125 413.776 -65.0843V-65.0843Z" fill="#ACD9F3"/>
<path d="M477.982 4.41806C474.675 4.42908 471.438 3.46007 468.681 1.63333C465.925 -0.193415 463.771 -2.79598 462.492 -5.84582C461.213 -8.89567 460.866 -12.2561 461.495 -15.5028C462.124 -18.7496 463.701 -21.7372 466.027 -24.0884C468.353 -26.4396 471.323 -28.0491 474.563 -28.7137C477.803 -29.3782 481.167 -29.0681 484.23 -27.8224C487.294 -26.5767 489.92 -24.4513 491.776 -21.7144C493.633 -18.9776 494.637 -15.7521 494.662 -12.445C494.675 -10.2423 494.254 -8.05851 493.422 -6.01865C492.591 -3.97879 491.366 -2.1228 489.817 -0.556726C488.267 1.00935 486.425 2.25479 484.394 3.1084C482.364 3.962 480.185 4.40702 477.982 4.41806Z" fill="#ACD9F3"/>
<path d="M408.085 39.4678C403.728 39.3415 399.592 37.5222 396.555 34.3959C393.518 31.2696 391.819 27.0827 391.819 22.7241C391.819 18.3656 393.518 14.1787 396.555 11.0524C399.592 7.92615 403.728 6.10677 408.085 5.98054C410.324 5.91565 412.554 6.3007 414.642 7.11296C416.731 7.92522 418.635 9.14814 420.242 10.7093C421.849 12.2705 423.126 14.1383 423.999 16.2021C424.871 18.2658 425.321 20.4836 425.321 22.7241C425.321 24.9647 424.871 27.1825 423.999 29.2463C423.126 31.31 421.849 33.1777 420.242 34.7389C418.635 36.3001 416.731 37.5231 414.642 38.3353C412.554 39.1476 410.324 39.5327 408.085 39.4678V39.4678Z" fill="#ACD9F3"/>
<path d="M426.353 22.6743C426.394 18.2764 428.181 14.075 431.319 10.9943C434.458 7.91353 438.692 6.20582 443.09 6.24682C447.488 6.28781 451.689 8.07414 454.77 11.2129C457.851 14.3516 459.558 18.5856 459.517 22.9834C459.497 25.161 459.048 27.3132 458.196 29.3173C457.344 31.3213 456.105 33.1379 454.551 34.6634C451.413 37.7441 447.179 39.4518 442.781 39.4108C438.383 39.3698 434.181 37.5835 431.101 34.4448C428.02 31.3061 426.312 27.0721 426.353 22.6743V22.6743Z" fill="#ACD9F3"/>
<path d="M372.955 38.9904C369.692 38.9876 366.503 38.0163 363.792 36.1996C361.081 34.3829 358.971 31.8025 357.728 28.7854C356.485 25.7682 356.166 22.45 356.81 19.2512C357.455 16.0523 359.034 13.1167 361.348 10.8162C363.662 8.51573 366.608 6.95392 369.81 6.32859C373.013 5.70326 376.329 6.04254 379.339 7.30349C382.348 8.56445 384.916 10.6903 386.717 13.4118C388.517 16.1333 389.469 19.3279 389.452 22.591C389.43 26.9506 387.682 31.1238 384.59 34.1972C381.498 37.2707 377.314 38.9942 372.955 38.9904V38.9904Z" fill="#ACD9F3"/>
<path d="M321.816 -12.248C321.931 -16.535 323.713 -20.6082 326.783 -23.6028C329.853 -26.5974 333.969 -28.2777 338.258 -28.2868C342.547 -28.2959 346.67 -26.6333 349.753 -23.6518C352.835 -20.6703 354.635 -16.6048 354.769 -12.3183C354.838 -10.1143 354.464 -7.91886 353.669 -5.862C352.874 -3.80515 351.675 -1.92867 350.142 -0.343646C348.609 1.24138 346.773 2.50272 344.744 3.36569C342.715 4.22867 340.533 4.67576 338.328 4.68046C336.123 4.68516 333.94 4.24737 331.907 3.39305C329.874 2.53874 328.033 1.28526 326.494 -0.293213C324.954 -1.87168 323.746 -3.74303 322.943 -5.79648C322.139 -7.84992 321.756 -10.0437 321.816 -12.248V-12.248Z" fill="#ACD9F3"/>
<path d="M461.849 22.7608C461.855 19.5759 462.804 16.464 464.576 13.8179C466.349 11.1719 468.866 9.11038 471.809 7.8935C474.752 6.67662 477.99 6.35896 481.114 6.98065C484.237 7.60234 487.107 9.13549 489.36 11.3866C491.613 13.6377 493.148 16.5058 493.773 19.6289C494.397 22.752 494.082 25.99 492.868 28.9344C491.654 31.8787 489.594 34.3973 486.95 36.1722C484.305 37.9471 481.194 38.8988 478.01 38.9071C475.883 38.9259 473.775 38.5211 471.806 37.7165C469.838 36.9119 468.05 35.7234 466.546 34.2205C465.041 32.7176 463.852 30.9304 463.045 28.9629C462.239 26.9954 461.832 24.887 461.849 22.7608V22.7608Z" fill="#ACD9F3"/>
<path d="M338.341 38.441C335.189 38.4548 332.103 37.5343 329.474 35.7957C326.845 34.0572 324.789 31.5785 323.568 28.6727C322.346 25.7669 322.013 22.5643 322.61 19.4693C323.208 16.3743 324.709 13.5256 326.924 11.283C329.139 9.04048 331.969 7.50458 335.056 6.86924C338.144 6.23389 341.35 6.52759 344.271 7.7133C347.191 8.89901 349.695 10.9236 351.466 13.5313C353.237 16.139 354.195 19.2129 354.22 22.3649C354.244 24.4662 353.851 26.5514 353.064 28.4999C352.277 30.4484 351.112 32.2215 349.635 33.7165C348.158 35.2116 346.4 36.399 344.461 37.2099C342.522 38.0209 340.442 38.4393 338.341 38.441V38.441Z" fill="#ACD9F3"/>
<path d="M512.845 -28.2218C515.997 -28.1995 519.072 -27.2439 521.681 -25.4753C524.291 -23.7068 526.317 -21.2048 527.506 -18.2852C528.694 -15.3657 528.991 -12.1595 528.358 -9.07148C527.725 -5.98348 526.192 -3.15217 523.951 -0.935074C521.711 1.28203 518.863 2.7855 515.769 3.38551C512.674 3.98551 509.471 3.65515 506.565 2.43612C503.658 1.21708 501.177 -0.83596 499.436 -3.46375C497.696 -6.09153 496.772 -9.17623 496.783 -12.3283C496.785 -14.4292 497.203 -16.509 498.013 -18.4475C498.823 -20.386 500.009 -22.1448 501.502 -23.6225C502.995 -25.1002 504.767 -26.2675 506.714 -27.0569C508.661 -27.8463 510.745 -28.2422 512.845 -28.2218V-28.2218Z" fill="#ACD9F3"/>
<path d="M392.306 57.5416C392.306 53.3413 393.974 49.313 396.944 46.343C399.914 43.3729 403.943 41.7043 408.143 41.7043C412.343 41.7043 416.371 43.3729 419.342 46.343C422.312 49.313 423.98 53.3413 423.98 57.5416C423.98 61.7419 422.312 65.7702 419.342 68.7402C416.371 71.7103 412.343 73.3788 408.143 73.3788C403.943 73.3788 399.914 71.7103 396.944 68.7402C393.974 65.7702 392.306 61.7419 392.306 57.5416V57.5416Z" fill="#ACD9F3"/>
<path d="M458.675 57.6086C458.666 60.7324 457.73 63.7832 455.985 66.374C454.24 68.9648 451.764 70.9789 448.873 72.1607C445.981 73.3424 442.803 73.6387 439.743 73.0118C436.683 72.3848 433.878 70.863 431.684 68.6394C429.49 66.4158 428.006 63.5906 427.42 60.5223C426.835 57.4539 427.173 54.2807 428.394 51.4053C429.614 48.5298 431.661 46.0817 434.275 44.3715C436.889 42.6613 439.953 41.7661 443.076 41.7995C447.235 41.8476 451.206 43.5354 454.127 46.4957C457.048 49.4561 458.682 53.4498 458.675 57.6086V57.6086Z" fill="#ACD9F3"/>
<path d="M388.693 57.4372C388.712 60.5305 387.814 63.5601 386.111 66.1429C384.409 68.7257 381.979 70.7456 379.129 71.9473C376.278 73.149 373.135 73.4785 370.098 72.8941C367.06 72.3096 364.264 70.8376 362.063 68.6641C359.862 66.4905 358.355 63.7131 357.732 60.683C357.11 57.6529 357.4 54.5063 358.565 51.641C359.731 48.7757 361.72 46.3204 364.281 44.5857C366.843 42.8509 369.861 41.9146 372.954 41.8951C375.01 41.8747 377.05 42.2613 378.956 43.0327C380.861 43.8041 382.596 44.945 384.059 46.3897C385.522 47.8344 386.684 49.5544 387.48 51.4504C388.275 53.3464 388.687 55.3811 388.693 57.4372V57.4372Z" fill="#ACD9F3"/>
<path d="M319.09 -11.922C319.02 -8.83148 318.036 -5.83099 316.262 -3.29953C314.488 -0.76807 312.003 1.18082 309.122 2.30108C306.241 3.42134 303.092 3.66271 300.074 2.99466C297.056 2.32661 294.303 0.779091 292.164 -1.45239C290.024 -3.68386 288.594 -6.49921 288.054 -9.54295C287.514 -12.5867 287.888 -15.7222 289.128 -18.5536C290.369 -21.385 292.421 -23.7853 295.025 -25.4512C297.629 -27.1172 300.668 -27.9741 303.759 -27.9138C305.818 -27.8773 307.849 -27.434 309.736 -26.6093C311.623 -25.7845 313.328 -24.5947 314.753 -23.1083C316.178 -21.6219 317.295 -19.8683 318.039 -17.9485C318.783 -16.0286 319.141 -13.9805 319.09 -11.922V-11.922Z" fill="#ACD9F3"/>
<path d="M512.845 7.31367C514.875 7.32659 516.882 7.73924 518.753 8.528C520.623 9.31676 522.32 10.4662 523.746 11.9107C525.172 13.3553 526.3 15.0666 527.065 16.9469C527.83 18.8273 528.217 20.8399 528.204 22.8699C528.191 24.8998 527.778 26.9073 526.99 28.7778C526.201 30.6483 525.052 32.3451 523.607 33.7714C522.162 35.1976 520.451 36.3254 518.571 37.0903C516.69 37.8552 514.678 38.2422 512.648 38.2293C508.548 38.2032 504.627 36.5496 501.746 33.6323C498.866 30.7149 497.262 26.7728 497.288 22.6732C497.314 18.5735 498.968 14.6521 501.885 11.7716C504.803 8.89115 508.745 7.28758 512.845 7.31367Z" fill="#ACD9F3"/>
<path d="M478.067 42.2352C482.061 42.383 485.839 44.0813 488.6 46.9693C491.362 49.8574 492.889 53.7079 492.858 57.7036C492.827 61.6994 491.24 65.5257 488.434 68.3704C485.628 71.2151 481.823 72.8543 477.829 72.94C475.774 72.9841 473.732 72.6155 471.823 71.8561C469.913 71.0967 468.176 69.9619 466.713 68.5189C465.25 67.0759 464.092 65.354 463.306 63.4552C462.521 61.5564 462.124 59.5194 462.14 57.4646C462.156 55.4099 462.584 53.3792 463.399 51.4929C464.214 49.6066 465.399 47.9029 466.884 46.4829C468.369 45.0628 470.124 43.9551 472.045 43.2255C473.966 42.4959 476.014 42.1592 478.067 42.2352V42.2352Z" fill="#ACD9F3"/>
<path d="M353.462 57.5246C353.473 60.5364 352.591 63.4838 350.926 65.9936C349.261 68.5034 346.889 70.4628 344.11 71.6237C341.331 72.7846 338.269 73.0949 335.314 72.5152C332.358 71.9354 329.641 70.4918 327.507 68.3671C325.372 66.2423 323.916 63.532 323.323 60.5792C322.729 57.6264 323.025 54.564 324.173 51.7796C325.322 48.9951 327.27 46.614 329.772 44.9375C332.274 43.261 335.217 42.3647 338.229 42.3619C342.257 42.3618 346.121 43.9571 348.976 46.7986C351.83 49.6402 353.444 53.4968 353.462 57.5246V57.5246Z" fill="#ACD9F3"/>
<path d="M318.413 22.6739C318.385 25.6855 317.464 28.6211 315.767 31.109C314.069 33.597 311.672 35.5254 308.878 36.6501C306.084 37.7749 303.02 38.0454 300.072 37.4274C297.124 36.8094 294.426 35.3308 292.319 33.1787C290.212 31.0265 288.791 28.2977 288.236 25.3375C287.681 22.3774 288.017 19.3191 289.201 16.5498C290.385 13.7805 292.364 11.4248 294.887 9.78076C297.411 8.13676 300.365 7.27842 303.377 7.31444C307.406 7.36264 311.251 9.00662 314.07 11.8859C316.888 14.7652 318.45 18.6448 318.413 22.6739V22.6739Z" fill="#ACD9F3"/>
<path d="M547.515 -27.2823C550.489 -27.2961 553.4 -26.4278 555.88 -24.7872C558.361 -23.1465 560.299 -20.8072 561.45 -18.0651C562.601 -15.3229 562.912 -12.3011 562.346 -9.38168C561.779 -6.46227 560.36 -3.7764 558.267 -1.66375C556.174 0.448896 553.501 1.89345 550.587 2.48726C547.673 3.08106 544.649 2.79746 541.896 1.67227C539.143 0.547086 536.786 -1.36915 535.122 -3.83408C533.458 -6.299 532.563 -9.20193 532.549 -12.1758C532.54 -14.1504 532.92 -16.1075 533.667 -17.9353C534.414 -19.7631 535.514 -21.4259 536.903 -22.8286C538.293 -24.2314 539.945 -25.3467 541.766 -26.1109C543.587 -26.875 545.54 -27.2731 547.515 -27.2823Z" fill="#ACD9F3"/>
<path d="M408.224 107.185C406.235 107.253 404.252 106.921 402.393 106.209C400.534 105.496 398.837 104.418 397.403 103.037C395.969 101.657 394.827 100.002 394.044 98.1718C393.262 96.3415 392.854 94.3727 392.847 92.3821C392.839 90.3915 393.232 88.4196 394 86.5835C394.769 84.7473 395.899 83.0843 397.323 81.6929C398.746 80.3016 400.435 79.2103 402.288 78.4838C404.141 77.7573 406.122 77.4104 408.112 77.4636C411.975 77.5668 415.646 79.1703 418.347 81.9342C421.048 84.698 422.567 88.405 422.582 92.2696C422.596 96.1342 421.106 99.8526 418.426 102.637C415.745 105.421 412.086 107.052 408.224 107.185Z" fill="#ACD9F3"/>
<path d="M457.675 92.3871C457.557 96.2345 455.945 99.8846 453.181 102.564C450.418 105.244 446.72 106.742 442.871 106.742C439.022 106.742 435.323 105.244 432.56 102.564C429.797 99.8846 428.185 96.2345 428.066 92.3871C428.092 88.4398 429.677 84.6626 432.474 81.878C435.272 79.0933 439.057 77.5268 443.004 77.5195C446.918 77.5566 450.658 79.1411 453.407 81.9269C456.156 84.7127 457.69 88.4733 457.675 92.3871V92.3871Z" fill="#ACD9F3"/>
<path d="M498.021 57.5531C498.139 53.7057 499.751 50.0555 502.514 47.3759C505.278 44.6964 508.976 43.1979 512.825 43.1979C516.674 43.1979 520.372 44.6964 523.136 47.3759C525.899 50.0555 527.511 53.7057 527.629 57.5531C527.691 59.5356 527.353 61.5102 526.636 63.3597C525.92 65.2092 524.839 66.896 523.458 68.32C522.078 69.7439 520.425 70.876 518.598 71.6492C516.772 72.4223 514.809 72.8207 512.825 72.8207C510.842 72.8207 508.878 72.4223 507.052 71.6492C505.225 70.876 503.573 69.7439 502.192 68.32C500.811 66.896 499.73 65.2092 499.014 63.3597C498.297 61.5102 497.96 59.5356 498.021 57.5531V57.5531Z" fill="#ACD9F3"/>
<path d="M373.163 107.044C370.255 107.063 367.407 106.221 364.977 104.622C362.548 103.023 360.647 100.74 359.514 98.062C358.382 95.3835 358.068 92.4294 358.613 89.5728C359.159 86.7163 360.538 84.0854 362.578 82.0125C364.618 79.9395 367.226 78.5175 370.073 77.926C372.92 77.3345 375.879 77.6 378.576 78.6891C381.272 79.7782 383.585 81.642 385.223 84.045C386.861 86.4481 387.75 89.2826 387.778 92.1906C387.802 94.1278 387.442 96.0506 386.719 97.848C385.996 99.6454 384.925 101.282 383.566 102.663C382.207 104.044 380.588 105.142 378.803 105.894C377.017 106.646 375.101 107.037 373.163 107.044Z" fill="#ACD9F3"/>
<path d="M268.29 2.45369C265.382 2.42864 262.547 1.54235 260.142 -0.0932122C257.738 -1.72877 255.872 -4.04022 254.78 -6.73568C253.688 -9.43113 253.42 -12.3897 254.009 -15.2376C254.598 -18.0855 256.017 -20.695 258.088 -22.7366C260.159 -24.7782 262.789 -26.1603 265.645 -26.7083C268.501 -27.2563 271.455 -26.9456 274.135 -25.8154C276.814 -24.6853 279.099 -22.7864 280.7 -20.3587C282.301 -17.9309 283.147 -15.0831 283.13 -12.175C283.125 -10.2377 282.735 -8.32065 281.985 -6.5345C281.235 -4.74835 280.138 -3.12846 278.759 -1.76839C277.379 -0.408317 275.743 0.665004 273.947 1.38967C272.15 2.11433 270.228 2.47596 268.29 2.45369V2.45369Z" fill="#ACD9F3"/>
<path d="M532.929 22.3921C533.006 19.4917 533.943 16.6795 535.621 14.3124C537.299 11.9454 539.642 10.1302 542.353 9.09724C545.065 8.06426 548.022 7.86008 550.849 8.51058C553.677 9.16107 556.248 10.6369 558.235 12.7509C560.222 14.8648 561.537 17.5215 562.012 20.3838C562.487 23.2461 562.101 26.185 560.902 28.8275C559.704 31.47 557.748 33.6969 555.282 35.2258C552.816 36.7546 549.951 37.5163 547.052 37.4143C545.137 37.3598 543.251 36.9275 541.504 36.1422C539.756 35.3569 538.181 34.234 536.869 32.8381C535.556 31.4422 534.533 29.8008 533.857 28.0082C533.18 26.2155 532.865 24.307 532.929 22.3921V22.3921Z" fill="#ACD9F3"/>
<path d="M303.14 72.0698C301.225 72.0719 299.329 71.6926 297.562 70.9539C295.796 70.2153 294.194 69.1322 292.85 67.7677C291.507 66.4033 290.449 64.7849 289.737 63.0071C289.026 61.2292 288.676 59.3275 288.708 57.4129C288.73 54.5364 289.605 51.7312 291.222 49.3519C292.838 46.9725 295.124 45.126 297.79 44.0458C300.456 42.9656 303.383 42.7002 306.2 43.2832C309.017 43.8662 311.597 45.2714 313.616 47.3211C315.634 49.3708 316.999 51.973 317.538 54.7985C318.078 57.6241 317.767 60.5461 316.646 63.1952C315.525 65.8442 313.643 68.1013 311.239 69.6809C308.835 71.2606 306.017 72.0919 303.14 72.0698V72.0698Z" fill="#ACD9F3"/>
<path d="M463.48 92.2766C463.5 88.4303 465.048 84.7497 467.782 82.0445C470.516 79.3393 474.213 77.8311 478.059 77.8516C481.905 77.8721 485.586 79.4197 488.291 82.1539C490.996 84.888 492.505 88.5849 492.484 92.4311C492.474 94.3356 492.089 96.2194 491.351 97.975C490.612 99.7306 489.536 101.324 488.182 102.663C486.828 104.003 485.224 105.062 483.46 105.782C481.697 106.501 479.809 106.866 477.905 106.856C476 106.846 474.116 106.461 472.361 105.723C470.605 104.984 469.012 103.908 467.673 102.554C466.333 101.2 465.273 99.5956 464.554 97.8322C463.835 96.0688 463.47 94.181 463.48 92.2766V92.2766Z" fill="#ACD9F3"/>
<path d="M352.562 92.2756C352.588 94.1684 352.236 96.0473 351.524 97.8016C350.813 99.5558 349.757 101.15 348.42 102.49C347.083 103.829 345.491 104.888 343.738 105.603C341.985 106.318 340.107 106.674 338.214 106.651C334.427 106.648 330.796 105.146 328.113 102.473C325.43 99.8006 323.913 96.1749 323.895 92.388C323.885 90.5057 324.245 88.6398 324.956 86.8969C325.667 85.154 326.714 83.5682 328.038 82.23C329.362 80.8918 330.937 79.8275 332.672 79.0978C334.407 78.3681 336.269 77.9873 338.151 77.9771C340.033 77.967 341.899 78.3277 343.642 79.0386C345.385 79.7496 346.971 80.7969 348.309 82.1207C349.647 83.4446 350.712 85.019 351.441 86.7541C352.171 88.4893 352.552 90.3512 352.562 92.2335L352.562 92.2756Z" fill="#ACD9F3"/>
<path d="M254.124 22.631C254.092 18.8294 255.572 15.1711 258.237 12.4606C260.903 9.75012 264.536 8.20961 268.338 8.17793C272.139 8.14625 275.798 9.626 278.508 12.2917C281.219 14.9573 282.759 18.5906 282.791 22.3921C282.795 26.2163 281.285 29.8866 278.591 32.6013C275.898 35.3159 272.239 36.8543 268.415 36.8803C264.634 36.8729 261.01 35.3706 258.332 32.7011C255.655 30.0317 254.142 26.4117 254.124 22.631Z" fill="#ACD9F3"/>
<path d="M568.566 -12.2485C568.566 -15.9755 570.047 -19.5498 572.682 -22.1852C575.318 -24.8206 578.892 -26.3011 582.619 -26.3011C586.346 -26.3011 589.92 -24.8206 592.556 -22.1852C595.191 -19.5498 596.672 -15.9755 596.672 -12.2485C596.628 -8.53515 595.133 -4.9862 592.507 -2.36027C589.881 0.265669 586.332 1.76026 582.619 1.80404C578.892 1.80404 575.318 0.323473 572.682 -2.31189C570.047 -4.94726 568.566 -8.52155 568.566 -12.2485V-12.2485Z" fill="#ACD9F3"/>
<path d="M547.656 71.5921C545.811 71.5976 543.982 71.2396 542.275 70.5385C540.568 69.8375 539.016 68.807 537.707 67.506C536.398 66.205 535.359 64.659 534.647 62.9562C533.936 61.2534 533.567 59.4271 533.562 57.5817C533.556 55.7363 533.914 53.9078 534.615 52.2008C535.316 50.4937 536.347 48.9415 537.648 47.6327C538.949 46.3238 540.495 45.2841 542.198 44.5728C543.9 43.8615 545.727 43.4925 547.572 43.487C551.264 43.53 554.794 45.0071 557.417 47.6059C560.039 50.2048 561.548 53.7217 561.625 57.413C561.641 59.262 561.293 61.096 560.599 62.8101C559.906 64.5242 558.881 66.0845 557.583 67.4018C556.286 68.719 554.741 69.7671 553.037 70.4862C551.334 71.2052 549.505 71.5811 547.656 71.5921V71.5921Z" fill="#ACD9F3"/>
<path d="M526.744 92.5152C526.718 95.3032 525.864 98.0205 524.289 100.321C522.714 102.622 520.491 104.403 517.901 105.436C515.312 106.47 512.473 106.71 509.747 106.125C507.021 105.541 504.53 104.159 502.592 102.155C500.653 100.151 499.355 97.6155 498.861 94.8714C498.368 92.1273 498.702 89.2984 499.821 86.7447C500.94 84.191 502.794 82.0279 505.145 80.5306C507.497 79.0332 510.242 78.2694 513.029 78.3362C516.719 78.4246 520.226 79.9615 522.793 82.6146C525.359 85.2678 526.778 88.8241 526.744 92.5152V92.5152Z" fill="#ACD9F3"/>
<path d="M408.086 141.208C406.273 141.213 404.477 140.859 402.802 140.165C401.127 139.471 399.607 138.451 398.33 137.164C397.053 135.878 396.044 134.35 395.361 132.671C394.679 130.991 394.338 129.193 394.356 127.38C394.353 124.637 395.166 121.955 396.69 119.674C398.214 117.394 400.382 115.618 402.917 114.571C405.453 113.525 408.242 113.255 410.931 113.797C413.62 114.339 416.088 115.667 418.02 117.614C419.953 119.56 421.264 122.037 421.786 124.73C422.309 127.423 422.019 130.21 420.955 132.738C419.89 135.266 418.099 137.421 415.807 138.929C413.516 140.437 410.828 141.23 408.086 141.208V141.208Z" fill="#ACD9F3"/>
<path d="M456.663 127.521C456.659 129.333 456.296 131.125 455.594 132.794C454.892 134.464 453.866 135.977 452.574 137.247C451.282 138.516 449.751 139.517 448.07 140.189C446.388 140.862 444.59 141.194 442.779 141.166C439.119 141.137 435.62 139.657 433.049 137.052C430.478 134.447 429.045 130.929 429.064 127.269C429.155 123.617 430.664 120.145 433.272 117.588C435.879 115.03 439.38 113.588 443.032 113.567C446.689 113.612 450.18 115.106 452.736 117.723C455.292 120.34 456.704 123.864 456.663 127.521V127.521Z" fill="#ACD9F3"/>
<path d="M268.445 43.7942C272.102 43.7979 275.609 45.2506 278.198 47.8343C280.787 50.4179 282.247 53.9222 282.258 57.5798C282.218 61.2405 280.742 64.7391 278.148 67.3226C275.554 69.906 272.049 71.3678 268.388 71.3934C264.729 71.3934 261.219 69.9395 258.631 67.3516C256.043 64.7636 254.589 61.2537 254.589 57.5938C254.589 53.9339 256.043 50.4239 258.631 47.836C261.219 45.248 264.729 43.7942 268.388 43.7942L268.445 43.7942Z" fill="#ACD9F3"/>
<path d="M303.156 106.116C301.344 106.113 299.55 105.752 297.878 105.055C296.205 104.358 294.686 103.339 293.407 102.055C292.128 100.771 291.115 99.2474 290.424 97.5718C289.734 95.8961 289.381 94.1009 289.385 92.2887C289.436 88.6304 290.921 85.1384 293.52 82.5632C296.119 79.988 299.624 78.5353 303.283 78.5172C306.942 78.5469 310.439 80.027 313.008 82.6325C315.576 85.2381 317.006 88.7564 316.984 92.4152C316.988 94.2262 316.632 96.0199 315.937 97.6923C315.242 99.3646 314.221 100.882 312.935 102.157C311.648 103.432 310.121 104.438 308.443 105.118C306.764 105.797 304.967 106.137 303.156 106.116V106.116Z" fill="#ACD9F3"/>
<path d="M596.289 22.7876C596.284 25.4998 595.473 28.1494 593.96 30.4006C592.448 32.6518 590.301 34.4035 587.792 35.4337C585.283 36.4639 582.525 36.7262 579.867 36.1875C577.208 35.6488 574.77 34.3333 572.86 32.4076C570.95 30.4819 569.655 28.0326 569.138 25.3701C568.621 22.7076 568.906 19.9515 569.957 17.4511C571.008 14.9507 572.777 12.8184 575.04 11.3243C577.304 9.83023 579.96 9.04159 582.672 9.05827C586.296 9.08057 589.764 10.5378 592.316 13.1109C594.868 15.6841 596.297 19.1635 596.289 22.7876V22.7876Z" fill="#ACD9F3"/>
<path d="M372.954 141.096C370.244 141.068 367.603 140.236 365.366 138.705C363.129 137.174 361.397 135.013 360.39 132.497C359.382 129.981 359.145 127.222 359.707 124.57C360.269 121.919 361.606 119.494 363.548 117.603C365.491 115.712 367.95 114.44 370.616 113.949C373.282 113.458 376.033 113.769 378.522 114.844C381.01 115.918 383.124 117.707 384.594 119.984C386.065 122.261 386.826 124.924 386.782 127.634C386.719 131.248 385.23 134.691 382.64 137.213C380.05 139.734 376.569 141.13 372.954 141.096V141.096Z" fill="#ACD9F3"/>
<path d="M233.522 1.3985C230.812 1.37881 228.169 0.555133 225.928 -0.9682C223.687 -2.49153 221.948 -4.64593 220.932 -7.15839C219.917 -9.67086 219.67 -12.4283 220.223 -15.0813C220.776 -17.7343 222.104 -20.1634 224.039 -22.0608C225.973 -23.9582 228.428 -25.2386 231.091 -25.7396C233.755 -26.2406 236.507 -25.9397 238.999 -24.8751C241.491 -23.8105 243.611 -22.03 245.09 -19.7593C246.569 -17.4886 247.341 -14.8299 247.308 -12.1201C247.271 -8.49984 245.798 -5.04246 243.213 -2.5076C240.628 0.0272599 237.143 1.43221 233.522 1.3985V1.3985Z" fill="#ACD9F3"/>
<path d="M491.193 127.521C491.188 130.2 490.386 132.816 488.891 135.039C487.396 137.261 485.275 138.989 482.796 140.004C480.317 141.018 477.592 141.274 474.968 140.737C472.344 140.201 469.938 138.897 468.056 136.991C466.174 135.086 464.9 132.664 464.397 130.033C463.894 127.402 464.183 124.681 465.229 122.215C466.274 119.749 468.029 117.65 470.27 116.182C472.511 114.715 475.137 113.947 477.815 113.975C481.379 114.019 484.781 115.466 487.285 118.001C489.79 120.537 491.194 123.958 491.193 127.521V127.521Z" fill="#ACD9F3"/>
<path d="M246.986 22.4203C247.008 25.0761 246.24 27.6785 244.78 29.8968C243.319 32.1151 241.232 33.849 238.784 34.8783C236.336 35.9075 233.637 36.1855 231.03 35.6769C228.423 35.1684 226.027 33.8962 224.145 32.0222C222.263 30.1482 220.98 27.757 220.461 25.1524C219.941 22.5479 220.208 19.8477 221.227 17.395C222.246 14.9424 223.971 12.848 226.183 11.3782C228.395 9.90846 230.994 9.12963 233.65 9.14068C237.176 9.14434 240.557 10.5428 243.056 13.0309C245.555 15.5189 246.967 18.8943 246.986 22.4203V22.4203Z" fill="#ACD9F3"/>
<path d="M338.273 140.731C335.624 140.742 333.032 139.966 330.825 138.5C328.618 137.035 326.896 134.947 325.879 132.501C324.861 130.055 324.593 127.362 325.11 124.764C325.626 122.165 326.903 119.779 328.778 117.908C330.653 116.036 333.042 114.765 335.641 114.254C338.241 113.743 340.933 114.017 343.377 115.04C345.821 116.062 347.905 117.788 349.366 119.998C350.827 122.208 351.598 124.803 351.581 127.452C351.57 130.975 350.164 134.351 347.669 136.839C345.175 139.328 341.797 140.728 338.273 140.731V140.731Z" fill="#ACD9F3"/>
<path d="M560.808 92.5576C560.817 94.3076 560.481 96.0422 559.819 97.6622C559.157 99.2821 558.182 100.756 556.95 101.998C555.718 103.241 554.253 104.228 552.638 104.904C551.024 105.58 549.292 105.93 547.543 105.936C544.006 105.899 540.626 104.472 538.134 101.963C535.641 99.4547 534.235 96.066 534.221 92.5296C534.221 89.0038 535.621 85.6225 538.114 83.1295C540.607 80.6364 543.989 79.2358 547.514 79.2358C551.04 79.2358 554.421 80.6364 556.915 83.1295C559.408 85.6225 560.808 89.0038 560.808 92.5296L560.808 92.5576Z" fill="#ACD9F3"/>
<path d="M582.521 70.7052C579.917 70.6884 577.376 69.8999 575.22 68.4392C573.064 66.9785 571.39 64.9113 570.409 62.499C569.428 60.0866 569.184 57.4376 569.708 54.8867C570.233 52.3358 571.502 49.9977 573.355 48.1681C575.208 46.3385 577.562 45.0995 580.12 44.6078C582.677 44.116 585.323 44.3937 587.722 45.4057C590.122 46.4176 592.167 48.1184 593.6 50.2929C595.033 52.4675 595.789 55.0181 595.773 57.6222C595.773 59.3546 595.429 61.0697 594.761 62.6681C594.093 64.2665 593.114 65.7163 591.881 66.9334C590.649 68.1505 589.186 69.1106 587.58 69.7581C585.973 70.4056 584.253 70.7275 582.521 70.7052V70.7052Z" fill="#ACD9F3"/>
<path d="M281.443 92.2887C281.469 95.7403 280.129 99.0623 277.715 101.529C275.301 103.996 272.008 105.408 268.557 105.456C265.061 105.456 261.706 104.073 259.226 101.609C256.746 99.1443 255.342 95.7989 255.319 92.3027C255.345 88.8513 256.736 85.5503 259.187 83.1202C261.638 80.6902 264.951 79.3284 268.402 79.3322C270.112 79.3173 271.807 79.6417 273.391 80.2865C274.974 80.9313 276.414 81.8838 277.627 83.0888C278.84 84.2937 279.801 85.7273 280.456 87.3065C281.112 88.8856 281.447 90.579 281.443 92.2887Z" fill="#ACD9F3"/>
<path d="M512.749 114.381C514.459 114.368 516.154 114.694 517.737 115.34C519.319 115.987 520.758 116.941 521.97 118.147C523.181 119.353 524.141 120.788 524.795 122.368C525.448 123.948 525.782 125.642 525.776 127.351C525.799 130.805 524.453 134.128 522.033 136.592C519.613 139.057 516.316 140.464 512.862 140.504C509.368 140.497 506.019 139.109 503.544 136.642C501.07 134.176 499.671 130.831 499.652 127.337C499.678 123.884 501.071 120.583 503.526 118.155C505.98 115.726 509.297 114.369 512.749 114.381V114.381Z" fill="#ACD9F3"/>
<path d="M630.385 -12.373C630.407 -9.79763 629.665 -7.27364 628.252 -5.12055C626.839 -2.96746 624.818 -1.28214 622.447 -0.277976C620.075 0.726194 617.459 1.00403 614.929 0.520372C612.4 0.0367098 610.07 -1.1867 608.237 -2.99495C606.403 -4.80321 605.147 -7.11495 604.628 -9.6375C604.108 -12.1601 604.349 -14.78 605.32 -17.1655C606.291 -19.5509 607.948 -21.5947 610.081 -23.038C612.214 -24.4813 614.727 -25.2593 617.302 -25.2733C620.745 -25.2883 624.054 -23.9397 626.505 -21.5224C628.957 -19.1052 630.352 -15.8157 630.385 -12.373Z" fill="#ACD9F3"/>
<path d="M316.055 127.421C316.068 129.106 315.746 130.778 315.107 132.338C314.469 133.897 313.526 135.315 312.335 136.507C311.144 137.7 309.728 138.644 308.169 139.284C306.609 139.924 304.938 140.248 303.253 140.237C301.566 140.25 299.893 139.93 298.33 139.297C296.767 138.663 295.344 137.728 294.142 136.545C292.94 135.361 291.983 133.952 291.326 132.399C290.668 130.846 290.323 129.178 290.311 127.491C290.311 124.044 291.68 120.737 294.118 118.3C296.555 115.862 299.862 114.493 303.309 114.493C306.713 114.519 309.968 115.895 312.358 118.319C314.747 120.743 316.077 124.017 316.055 127.421V127.421Z" fill="#ACD9F3"/>
<path d="M233.539 44.7099C235.266 44.6529 236.987 44.9437 238.599 45.5653C240.212 46.1868 241.683 47.1264 242.925 48.3279C244.166 49.5295 245.154 50.9686 245.829 52.5596C246.503 54.1506 246.851 55.861 246.851 57.5891C246.851 59.3171 246.503 61.0275 245.829 62.6185C245.154 64.2095 244.166 65.6486 242.925 66.8502C241.683 68.0518 240.212 68.9913 238.599 69.6129C236.987 70.2344 235.266 70.5253 233.539 70.4682C230.197 70.3578 227.028 68.9526 224.703 66.5493C222.378 64.1461 221.078 60.933 221.078 57.5891C221.078 54.2451 222.378 51.0321 224.703 48.6288C227.028 46.2256 230.197 44.8203 233.539 44.7099V44.7099Z" fill="#ACD9F3"/>
<path d="M395.438 162.104C395.57 158.79 396.987 155.657 399.387 153.369C401.787 151.08 404.984 149.815 408.3 149.841C411.616 149.866 414.793 151.18 417.158 153.506C419.522 155.831 420.89 158.985 420.971 162.3C421.014 164.012 420.711 165.715 420.082 167.307C419.453 168.899 418.51 170.349 417.31 171.57C416.109 172.791 414.676 173.758 413.094 174.414C411.512 175.069 409.815 175.401 408.103 175.387C406.391 175.374 404.699 175.017 403.128 174.337C401.556 173.657 400.138 172.668 398.956 171.429C397.775 170.189 396.855 168.725 396.25 167.123C395.646 165.521 395.37 163.814 395.438 162.104Z" fill="#ACD9F3"/>
<path d="M455.61 162.09C455.61 164.585 454.872 167.023 453.49 169.099C452.107 171.175 450.142 172.796 447.841 173.758C445.54 174.72 443.005 174.98 440.557 174.506C438.108 174.031 435.854 172.843 434.079 171.091C432.304 169.339 431.086 167.102 430.579 164.66C430.072 162.217 430.299 159.68 431.23 157.366C432.162 155.052 433.757 153.066 435.814 151.656C437.872 150.246 440.3 149.476 442.794 149.443C444.469 149.421 446.132 149.731 447.686 150.357C449.24 150.983 450.654 151.911 451.846 153.087C453.039 154.264 453.985 155.666 454.631 157.211C455.278 158.757 455.61 160.415 455.61 162.09Z" fill="#ACD9F3"/>
<path d="M630.114 22.8281C630.089 25.324 629.326 27.7566 627.922 29.8198C626.517 31.8829 624.533 33.4842 622.22 34.4221C619.907 35.36 617.368 35.5925 614.923 35.0903C612.478 34.5881 610.236 33.3737 608.48 31.6C606.724 29.8263 605.532 27.5727 605.054 25.1228C604.576 22.673 604.834 20.1366 605.795 17.8329C606.756 15.5293 608.377 13.5615 610.454 12.1773C612.531 10.7931 614.971 10.0544 617.467 10.0543C619.139 10.0542 620.794 10.3855 622.336 11.029C623.879 11.6724 625.279 12.6154 626.455 13.8032C627.631 14.9911 628.56 16.4003 629.188 17.9493C629.816 19.4984 630.131 21.1566 630.114 22.8281V22.8281Z" fill="#ACD9F3"/>
<path d="M385.599 162.201C385.611 163.848 385.295 165.481 384.671 167.006C384.047 168.531 383.127 169.917 381.964 171.084C380.801 172.251 379.418 173.176 377.895 173.805C376.372 174.434 374.74 174.755 373.093 174.749C369.738 174.749 366.521 173.417 364.15 171.045C361.778 168.673 360.445 165.456 360.445 162.102C360.508 158.783 361.865 155.62 364.229 153.288C366.592 150.956 369.773 149.641 373.093 149.624C376.41 149.66 379.581 150.999 381.92 153.352C384.26 155.705 385.581 158.883 385.599 162.201V162.201Z" fill="#ACD9F3"/>
<path d="M198.52 -24.8387C201.838 -24.8392 205.023 -23.5357 207.389 -21.2093C209.755 -18.8828 211.112 -15.7198 211.167 -12.4022C211.167 -9.04014 209.837 -5.81449 207.468 -3.42926C205.099 -1.04402 201.882 0.307136 198.52 0.329401C195.195 0.285065 192.021 -1.06693 189.686 -3.43397C187.35 -5.80101 186.041 -8.99264 186.041 -12.3179C186.032 -13.9612 186.348 -15.5901 186.971 -17.1106C187.595 -18.6311 188.513 -20.0133 189.673 -21.1772C190.833 -22.3412 192.212 -23.264 193.73 -23.8924C195.249 -24.5208 196.877 -24.8425 198.52 -24.8387V-24.8387Z" fill="#ACD9F3"/>
<path d="M582.617 105.039C580.147 105.045 577.73 104.316 575.675 102.945C573.619 101.575 572.017 99.6239 571.072 97.3411C570.128 95.0582 569.883 92.5461 570.368 90.1237C570.854 87.7013 572.049 85.4779 573.801 83.7358C575.553 81.9938 577.783 80.8116 580.208 80.3396C582.633 79.8675 585.144 80.1268 587.421 81.0845C589.699 82.0422 591.64 83.6551 592.999 85.7184C594.358 87.7817 595.073 90.2024 595.054 92.6729C595.024 95.9557 593.702 99.0945 591.374 101.409C589.046 103.724 585.9 105.028 582.617 105.039V105.039Z" fill="#ACD9F3"/>
<path d="M477.772 149.778C480.235 149.789 482.639 150.531 484.68 151.911C486.721 153.291 488.306 155.245 489.234 157.527C490.163 159.808 490.393 162.314 489.895 164.727C489.397 167.139 488.194 169.35 486.439 171.078C484.683 172.805 482.454 173.973 480.034 174.432C477.614 174.892 475.112 174.622 472.845 173.658C470.579 172.693 468.65 171.077 467.303 169.015C465.956 166.953 465.251 164.537 465.279 162.074C465.292 160.446 465.625 158.837 466.26 157.338C466.895 155.839 467.819 154.48 468.979 153.338C470.139 152.196 471.512 151.294 473.021 150.683C474.53 150.072 476.144 149.765 477.772 149.778Z" fill="#ACD9F3"/>
<path d="M559.855 127.365C559.747 130.578 558.394 133.624 556.083 135.859C553.772 138.093 550.683 139.342 547.468 139.342C544.253 139.342 541.164 138.093 538.852 135.859C536.541 133.624 535.189 130.578 535.08 127.365C535.024 125.704 535.303 124.047 535.901 122.496C536.498 120.944 537.401 119.528 538.557 118.333C539.713 117.137 541.097 116.187 542.628 115.537C544.159 114.888 545.805 114.554 547.468 114.554C549.13 114.554 550.776 114.888 552.307 115.537C553.838 116.187 555.222 117.137 556.378 118.333C557.534 119.528 558.437 120.944 559.035 122.496C559.632 124.047 559.911 125.704 559.855 127.365Z" fill="#ACD9F3"/>
<path d="M350.471 162.189C350.478 165.436 349.201 168.553 346.919 170.862C344.636 173.171 341.533 174.483 338.287 174.513C334.997 174.506 331.845 173.193 329.521 170.865C327.198 168.536 325.893 165.38 325.893 162.091C326.012 158.903 327.366 155.887 329.668 153.679C331.97 151.471 335.04 150.244 338.229 150.257C341.419 150.269 344.479 151.521 346.763 153.747C349.047 155.974 350.376 159.001 350.471 162.189V162.189Z" fill="#ACD9F3"/>
<path d="M210.831 22.5191C210.816 25.7428 209.538 28.8322 207.27 31.1235C205.003 33.4148 201.927 34.7251 198.703 34.7729C195.415 34.7544 192.267 33.434 189.95 31.1007C187.632 28.7673 186.333 25.6111 186.337 22.3224C186.356 19.065 187.667 15.9484 189.984 13.6583C192.3 11.3681 195.432 10.0921 198.689 10.1107C201.946 10.1293 205.063 11.4412 207.353 13.7576C209.643 16.0741 210.919 19.2055 210.901 22.4629L210.831 22.5191Z" fill="#ACD9F3"/>
<path d="M629.568 57.4981C629.579 59.9088 628.875 62.2686 627.546 64.2796C626.217 66.2907 624.322 67.8628 622.1 68.7974C619.878 69.7321 617.428 69.9874 615.061 69.531C612.694 69.0746 610.516 67.9271 608.8 66.2333C607.085 64.5396 605.91 62.3755 605.424 60.0144C604.937 57.6533 605.162 55.2011 606.068 52.9674C606.974 50.7336 608.522 48.8186 610.517 47.464C612.511 46.1095 614.861 45.3762 617.272 45.3567C618.88 45.3343 620.476 45.632 621.968 46.2323C623.46 46.8326 624.817 47.7236 625.962 48.8535C627.106 49.9834 628.014 51.3295 628.633 52.8135C629.252 54.2976 629.57 55.8901 629.568 57.4981V57.4981Z" fill="#ACD9F3"/>
<path d="M221.508 92.3028C221.523 89.0826 222.817 86.0004 225.104 83.7339C227.392 81.4675 230.486 80.2026 233.706 80.2175C236.926 80.2324 240.008 81.5259 242.275 83.8134C244.541 86.1009 245.806 89.195 245.791 92.4152C245.758 95.6152 244.473 98.6751 242.212 100.939C239.95 103.204 236.892 104.492 233.692 104.528C232.086 104.538 230.494 104.228 229.009 103.616C227.523 103.005 226.175 102.104 225.041 100.966C223.907 99.8283 223.011 98.4765 222.405 96.9892C221.798 95.5019 221.493 93.9089 221.508 92.3028Z" fill="#ACD9F3"/>
<path d="M268.373 115.281C269.958 115.263 271.531 115.558 273.001 116.15C274.471 116.742 275.81 117.619 276.94 118.731C278.07 119.842 278.969 121.166 279.584 122.627C280.2 124.087 280.521 125.655 280.529 127.24C280.565 129.648 279.884 132.013 278.573 134.033C277.261 136.053 275.379 137.638 273.165 138.585C270.95 139.533 268.504 139.8 266.138 139.354C263.771 138.907 261.59 137.767 259.874 136.078C258.157 134.389 256.981 132.227 256.496 129.868C256.011 127.509 256.238 125.059 257.149 122.829C258.061 120.6 259.614 118.692 261.613 117.348C263.611 116.004 265.965 115.285 268.373 115.281Z" fill="#ACD9F3"/>
<path d="M524.723 162.412C524.684 165.603 523.379 168.647 521.095 170.875C518.812 173.103 515.737 174.333 512.546 174.294C509.356 174.255 506.312 172.95 504.084 170.666C501.856 168.383 500.626 165.307 500.665 162.117C500.684 160.538 501.015 158.977 501.637 157.525C502.26 156.073 503.162 154.758 504.293 153.655C505.423 152.551 506.76 151.682 508.227 151.095C509.694 150.508 511.262 150.216 512.842 150.236C514.421 150.255 515.982 150.585 517.434 151.208C518.886 151.83 520.201 152.733 521.304 153.863C522.407 154.994 523.277 156.331 523.864 157.798C524.45 159.265 524.742 160.833 524.723 162.412V162.412Z" fill="#ACD9F3"/>
<path d="M315.013 162.302C314.994 165.419 313.748 168.404 311.543 170.608C309.339 172.813 306.354 174.059 303.237 174.078C301.648 174.116 300.068 173.835 298.591 173.251C297.113 172.666 295.768 171.791 294.636 170.676C293.504 169.561 292.608 168.23 292.001 166.762C291.393 165.294 291.088 163.718 291.102 162.129C291.116 160.541 291.45 158.971 292.083 157.514C292.716 156.056 293.636 154.742 294.788 153.647C295.94 152.553 297.3 151.701 298.788 151.143C300.275 150.585 301.86 150.332 303.447 150.399C304.99 150.416 306.514 150.737 307.932 151.345C309.35 151.953 310.633 152.836 311.708 153.943C312.783 155.049 313.629 156.357 314.196 157.792C314.763 159.226 315.041 160.759 315.013 162.302V162.302Z" fill="#ACD9F3"/>
<path d="M210.364 57.527C210.372 59.0891 210.07 60.6372 209.476 62.082C208.882 63.5269 208.008 64.8397 206.904 65.945C205.8 67.0502 204.488 67.926 203.044 68.5216C201.6 69.1173 200.052 69.421 198.49 69.4155C195.376 69.361 192.406 68.0971 190.208 65.8913C188.01 63.6855 186.757 60.7109 186.714 57.5973C186.716 56.0351 187.027 54.4888 187.629 53.0474C188.232 51.6061 189.114 50.2984 190.224 49.1997C191.335 48.101 192.652 47.2331 194.099 46.646C195.547 46.0589 197.096 45.7642 198.659 45.779C200.2 45.7772 201.726 46.0801 203.15 46.6703C204.574 47.2606 205.867 48.1265 206.955 49.2183C208.043 50.3102 208.904 51.6063 209.489 53.0323C210.074 54.4582 210.372 55.9857 210.364 57.527V57.527Z" fill="#ACD9F3"/>
<path d="M570.996 127.393C570.981 125.87 571.269 124.359 571.844 122.949C572.418 121.538 573.268 120.256 574.343 119.177C575.418 118.098 576.697 117.244 578.106 116.664C579.514 116.084 581.024 115.79 582.547 115.8C585.624 115.774 588.586 116.969 590.784 119.124C592.981 121.279 594.233 124.218 594.267 127.295C594.269 128.839 593.966 130.369 593.377 131.797C592.787 133.225 591.923 134.522 590.832 135.616C589.741 136.709 588.445 137.577 587.019 138.17C585.593 138.763 584.063 139.069 582.519 139.071C580.995 139.062 579.488 138.752 578.084 138.16C576.68 137.568 575.407 136.705 574.337 135.621C573.266 134.536 572.42 133.251 571.847 131.84C571.274 130.428 570.985 128.917 570.996 127.393V127.393Z" fill="#ACD9F3"/>
<path d="M628.895 92.6153C628.79 95.5999 627.531 98.4275 625.383 100.502C623.235 102.577 620.365 103.736 617.379 103.736C614.392 103.736 611.522 102.577 609.374 100.502C607.226 98.4275 605.967 95.5999 605.862 92.6153C605.808 91.0691 606.066 89.5279 606.621 88.0836C607.175 86.6392 608.015 85.3213 609.09 84.2084C610.164 83.0955 611.452 82.2104 612.876 81.6059C614.3 81.0014 615.831 80.6898 617.379 80.6898C618.926 80.6898 620.457 81.0014 621.881 81.6059C623.305 82.2104 624.593 83.0955 625.668 84.2084C626.742 85.3213 627.582 86.6392 628.136 88.0836C628.691 89.5279 628.949 91.0691 628.895 92.6153V92.6153Z" fill="#ACD9F3"/>
<path d="M408.084 208.746C405.808 208.735 403.586 208.05 401.699 206.778C399.812 205.505 398.344 203.703 397.48 201.597C396.616 199.491 396.395 197.177 396.844 194.946C397.294 192.714 398.395 190.666 400.007 189.06C401.619 187.453 403.671 186.36 405.904 185.919C408.137 185.477 410.451 185.707 412.553 186.578C414.656 187.45 416.453 188.925 417.718 190.816C418.984 192.708 419.661 194.933 419.663 197.209C419.665 198.728 419.367 200.232 418.785 201.636C418.203 203.039 417.35 204.314 416.273 205.386C415.197 206.458 413.92 207.307 412.514 207.884C411.109 208.46 409.603 208.753 408.084 208.746Z" fill="#ACD9F3"/>
<path d="M454.332 197.194C454.346 199.457 453.688 201.674 452.442 203.564C451.195 205.453 449.416 206.93 447.33 207.808C445.243 208.686 442.943 208.925 440.721 208.495C438.499 208.065 436.454 206.985 434.845 205.392C433.237 203.8 432.137 201.765 431.685 199.547C431.233 197.329 431.45 195.027 432.307 192.932C433.164 190.837 434.624 189.044 436.501 187.779C438.378 186.514 440.588 185.834 442.851 185.825C445.88 185.814 448.79 187.005 450.942 189.136C453.095 191.267 454.314 194.165 454.332 197.194V197.194Z" fill="#ACD9F3"/>
<path d="M558.938 162.256C558.933 164.518 558.256 166.727 556.994 168.603C555.732 170.48 553.942 171.939 551.85 172.798C549.758 173.656 547.458 173.874 545.242 173.424C543.025 172.975 540.992 171.877 539.4 170.272C537.808 168.666 536.728 166.623 536.298 164.403C535.867 162.183 536.105 159.885 536.982 157.801C537.858 155.716 539.333 153.938 541.22 152.693C543.108 151.447 545.322 150.79 547.584 150.803C549.082 150.809 550.564 151.11 551.945 151.688C553.327 152.267 554.581 153.112 555.635 154.176C556.69 155.24 557.524 156.501 558.091 157.887C558.658 159.274 558.946 160.758 558.938 162.256Z" fill="#ACD9F3"/>
<path d="M373.092 185.908C376.087 185.908 378.961 187.088 381.091 189.192C383.222 191.297 384.438 194.156 384.474 197.15C384.467 200.189 383.259 203.103 381.114 205.255C378.969 207.408 376.061 208.627 373.022 208.645C370.035 208.616 367.18 207.41 365.075 205.29C362.971 203.17 361.787 200.306 361.78 197.319C361.757 195.823 362.034 194.337 362.593 192.949C363.152 191.56 363.983 190.298 365.037 189.235C366.09 188.172 367.346 187.331 368.729 186.759C370.112 186.188 371.595 185.899 373.092 185.908Z" fill="#ACD9F3"/>
<path d="M244.905 127.425C244.905 130.406 243.721 133.266 241.613 135.374C239.504 137.482 236.645 138.667 233.663 138.667C230.674 138.686 227.798 137.522 225.663 135.429C223.528 133.336 222.307 130.484 222.267 127.495C222.274 124.462 223.481 121.556 225.624 119.41C227.767 117.264 230.673 116.053 233.705 116.042C236.697 116.076 239.554 117.291 241.653 119.424C243.751 121.557 244.92 124.433 244.905 127.425V127.425Z" fill="#ACD9F3"/>
<path d="M466.472 197.306C466.472 195.088 467.128 192.919 468.359 191.073C469.589 189.226 471.338 187.785 473.386 186.931C475.434 186.077 477.688 185.848 479.866 186.273C482.044 186.698 484.047 187.757 485.623 189.318C487.2 190.879 488.28 192.872 488.726 195.045C489.172 197.218 488.966 199.475 488.132 201.531C487.298 203.587 485.875 205.351 484.041 206.599C482.207 207.848 480.045 208.526 477.826 208.548C476.34 208.563 474.866 208.284 473.489 207.725C472.113 207.167 470.86 206.341 469.804 205.296C468.748 204.25 467.91 203.006 467.338 201.635C466.766 200.263 466.472 198.792 466.472 197.306Z" fill="#ACD9F3"/>
<path d="M279.561 162.131C279.496 165.029 278.308 167.787 276.248 169.825C274.187 171.863 271.416 173.021 268.518 173.054C265.62 173.086 262.823 171.992 260.717 170.001C258.611 168.011 257.361 165.279 257.231 162.384C257.164 160.887 257.398 159.392 257.921 157.987C258.443 156.582 259.243 155.297 260.273 154.208C261.302 153.119 262.54 152.248 263.913 151.647C265.286 151.047 266.766 150.728 268.265 150.711C269.764 150.694 271.25 150.979 272.637 151.549C274.023 152.118 275.28 152.961 276.334 154.026C277.388 155.092 278.217 156.358 278.771 157.751C279.326 159.143 279.594 160.633 279.561 162.131V162.131Z" fill="#ACD9F3"/>
<path d="M187.458 92.388C187.53 89.4921 188.724 86.7372 190.788 84.7046C192.852 82.672 195.625 81.5205 198.521 81.4932C201.418 81.4658 204.212 82.5647 206.314 84.558C208.416 86.5513 209.662 89.2831 209.788 92.1772C209.853 93.675 209.617 95.1707 209.092 96.5751C208.567 97.9795 207.765 99.2639 206.733 100.352C205.702 101.44 204.462 102.309 203.087 102.907C201.712 103.506 200.231 103.822 198.732 103.836C197.233 103.85 195.746 103.562 194.361 102.99C192.975 102.417 191.719 101.572 190.667 100.503C189.615 99.4352 188.789 98.1662 188.238 96.7719C187.686 95.3777 187.421 93.8868 187.458 92.388V92.388Z" fill="#ACD9F3"/>
<path d="M163.64 33.579C162.178 33.5662 160.734 33.2649 159.389 32.6925C158.044 32.12 156.826 31.2877 155.803 30.2432C154.781 29.1987 153.975 27.9626 153.432 26.6058C152.888 25.2491 152.618 23.7984 152.637 22.337C152.717 19.4262 153.923 16.6601 156.001 14.6209C158.08 12.5817 160.869 11.4285 163.78 11.4041C165.247 11.4077 166.699 11.7022 168.051 12.2707C169.403 12.8392 170.629 13.6703 171.657 14.716C172.686 15.7616 173.497 17.0009 174.043 18.3622C174.589 19.7234 174.86 21.1795 174.84 22.6461C174.838 24.1041 174.546 25.547 173.979 26.8903C173.412 28.2336 172.583 29.4501 171.539 30.4685C170.496 31.4869 169.26 32.2866 167.903 32.8208C166.547 33.3549 165.097 33.6127 163.64 33.579Z" fill="#ACD9F3"/>
<path d="M338.132 208.322C336.672 208.317 335.227 208.02 333.883 207.449C332.539 206.879 331.322 206.045 330.303 204.998C329.285 203.951 328.486 202.712 327.953 201.352C327.42 199.992 327.164 198.54 327.2 197.08C327.24 194.167 328.424 191.387 330.495 189.339C332.567 187.291 335.36 186.14 338.273 186.133C341.235 186.162 344.066 187.36 346.15 189.465C348.234 191.57 349.403 194.413 349.403 197.375C349.354 200.319 348.141 203.125 346.029 205.176C343.917 207.228 341.077 208.359 338.132 208.322Z" fill="#ACD9F3"/>
<path d="M501.97 197.333C501.949 195.914 502.211 194.504 502.74 193.186C503.269 191.868 504.054 190.668 505.05 189.657C506.046 188.645 507.234 187.841 508.543 187.291C509.852 186.742 511.258 186.458 512.678 186.457C515.543 186.438 518.299 187.553 520.345 189.56C522.391 191.566 523.56 194.3 523.597 197.165C523.586 200.032 522.454 202.781 520.442 204.825C518.431 206.868 515.699 208.043 512.833 208.098C509.966 208.105 507.214 206.977 505.178 204.959C503.142 202.942 501.988 200.2 501.97 197.333V197.333Z" fill="#ACD9F3"/>
<path d="M617.301 116.739C620.133 116.698 622.866 117.784 624.898 119.758C626.93 121.732 628.094 124.432 628.135 127.264C628.176 130.097 627.091 132.83 625.117 134.861C623.143 136.893 620.443 138.058 617.61 138.099C616.208 138.119 614.815 137.863 613.511 137.345C612.208 136.827 611.019 136.057 610.013 135.08C607.981 133.106 606.817 130.406 606.776 127.573C606.735 124.741 607.82 122.008 609.794 119.976C611.768 117.944 614.468 116.78 617.301 116.739Z" fill="#ACD9F3"/>
<path d="M174.366 57.5101C174.386 58.9098 174.126 60.2994 173.601 61.5968C173.075 62.8942 172.294 64.0731 171.305 65.0636C170.316 66.0541 169.138 66.8361 167.842 67.3635C166.545 67.8909 165.156 68.1528 163.756 68.1338C162.356 68.1395 160.968 67.8671 159.674 67.3326C158.38 66.798 157.204 66.0119 156.216 65.0198C155.228 64.0277 154.447 62.8494 153.917 61.553C153.388 60.2567 153.121 58.8682 153.132 57.468C153.182 54.6858 154.308 52.0312 156.273 50.061C158.238 48.0908 160.89 46.9581 163.672 46.9004C165.071 46.8912 166.459 47.1587 167.755 47.6876C169.052 48.2164 170.23 48.9962 171.224 49.9822C172.218 50.9681 173.007 52.1407 173.546 53.4326C174.085 54.7245 174.364 56.1102 174.366 57.5101V57.5101Z" fill="#ACD9F3"/>
<path d="M582.519 172.783C581.12 172.788 579.734 172.511 578.443 171.971C577.152 171.431 575.982 170.638 575.002 169.639C574.022 168.64 573.253 167.454 572.739 166.153C572.224 164.852 571.976 163.46 572.008 162.061C572.033 159.277 573.153 156.614 575.125 154.647C577.096 152.681 579.762 151.568 582.547 151.55C585.374 151.565 588.081 152.692 590.083 154.689C592.084 156.685 593.219 159.389 593.241 162.216C593.236 163.615 592.953 165 592.411 166.289C591.868 167.579 591.076 168.749 590.079 169.731C589.082 170.713 587.901 171.488 586.604 172.012C585.306 172.536 583.918 172.798 582.519 172.783V172.783Z" fill="#ACD9F3"/>
<path d="M303.154 207.832C301.754 207.838 300.367 207.563 299.075 207.024C297.783 206.485 296.613 205.692 295.633 204.692C294.653 203.692 293.883 202.506 293.37 201.204C292.856 199.901 292.609 198.509 292.643 197.11C292.665 194.326 293.781 191.664 295.751 189.697C297.72 187.73 300.385 186.617 303.168 186.599C305.995 186.61 308.704 187.734 310.708 189.727C312.712 191.721 313.85 194.424 313.876 197.25C313.871 198.65 313.589 200.035 313.046 201.326C312.503 202.616 311.711 203.787 310.715 204.77C309.718 205.754 308.538 206.53 307.24 207.056C305.942 207.581 304.554 207.845 303.154 207.832V207.832Z" fill="#ACD9F3"/>
<path d="M223.069 162.116C223.071 160.76 223.342 159.419 223.866 158.169C224.391 156.919 225.158 155.786 226.125 154.836C227.091 153.885 228.236 153.136 229.495 152.632C230.753 152.128 232.098 151.879 233.454 151.9C236.194 151.914 238.817 153.016 240.746 154.964C242.674 156.911 243.751 159.544 243.74 162.284C243.689 165.022 242.567 167.63 240.615 169.551C238.663 171.471 236.037 172.55 233.299 172.557C230.558 172.527 227.942 171.411 226.023 169.453C224.105 167.496 223.043 164.856 223.069 162.116Z" fill="#ACD9F3"/>
<path d="M208.875 127.408C208.887 128.763 208.628 130.106 208.114 131.361C207.6 132.615 206.842 133.754 205.883 134.711C204.924 135.669 203.784 136.426 202.529 136.938C201.274 137.45 199.93 137.707 198.575 137.694C195.834 137.701 193.203 136.621 191.258 134.69C189.314 132.758 188.215 130.134 188.204 127.393C188.237 124.654 189.341 122.037 191.279 120.102C193.217 118.166 195.836 117.066 198.575 117.037C201.316 117.048 203.94 118.146 205.871 120.091C207.802 122.035 208.883 124.667 208.875 127.408V127.408Z" fill="#ACD9F3"/>
<path d="M557.788 197.191C557.796 199.217 557.203 201.2 556.083 202.888C554.963 204.576 553.368 205.894 551.498 206.674C549.629 207.455 547.57 207.662 545.582 207.271C543.595 206.88 541.768 205.908 540.333 204.477C538.899 203.047 537.922 201.223 537.525 199.236C537.129 197.25 537.331 195.19 538.106 193.319C538.881 191.447 540.194 189.848 541.88 188.724C543.565 187.599 545.546 187.001 547.571 187.003C550.276 187.003 552.87 188.076 554.785 189.986C556.701 191.895 557.78 194.487 557.788 197.191V197.191Z" fill="#ACD9F3"/>
<path d="M418.22 232.058C418.225 233.396 417.966 234.723 417.455 235.961C416.945 237.199 416.195 238.323 415.247 239.269C414.3 240.215 413.175 240.964 411.936 241.473C410.697 241.981 409.37 242.239 408.032 242.232C405.329 242.187 402.753 241.08 400.862 239.149C398.971 237.218 397.916 234.62 397.928 231.917C397.965 229.254 399.049 226.713 400.945 224.843C402.841 222.974 405.397 221.925 408.06 221.926C409.397 221.905 410.726 222.153 411.966 222.654C413.206 223.156 414.333 223.901 415.28 224.845C416.227 225.79 416.976 226.915 417.481 228.154C417.985 229.392 418.237 230.72 418.22 232.058V232.058Z" fill="#ACD9F3"/>
<path d="M442.933 221.966C445.591 221.97 448.142 223.018 450.034 224.884C451.927 226.75 453.01 229.286 453.051 231.944C453.044 234.644 451.974 237.233 450.072 239.15C448.171 241.067 445.591 242.159 442.891 242.188C441.553 242.179 440.231 241.905 438.999 241.382C437.768 240.859 436.652 240.098 435.717 239.141C434.782 238.185 434.045 237.053 433.549 235.81C433.054 234.568 432.809 233.239 432.829 231.902C432.837 230.585 433.104 229.282 433.617 228.069C434.129 226.856 434.876 225.756 435.815 224.833C436.754 223.91 437.866 223.181 439.088 222.689C440.31 222.197 441.616 221.952 442.933 221.966V221.966Z" fill="#ACD9F3"/>
<path d="M383.085 232.029C383.094 234.018 382.511 235.965 381.413 237.623C380.314 239.281 378.747 240.575 376.912 241.342C375.077 242.109 373.055 242.314 371.104 241.931C369.152 241.548 367.357 240.594 365.948 239.191C364.539 237.787 363.578 235.997 363.186 234.047C362.795 232.097 362.992 230.074 363.751 228.236C364.51 226.398 365.798 224.826 367.451 223.72C369.104 222.614 371.049 222.024 373.038 222.024C375.695 222.024 378.244 223.076 380.128 224.952C382.011 226.827 383.074 229.372 383.085 232.029V232.029Z" fill="#ACD9F3"/>
<path d="M163.825 102.224C161.187 102.235 158.652 101.198 156.778 99.3397C154.904 97.4818 153.845 94.9556 153.834 92.3169C153.823 89.6782 154.86 87.1432 156.718 85.2694C158.576 83.3957 161.102 82.3367 163.741 82.3255C166.38 82.3143 168.915 83.3518 170.789 85.2098C172.662 87.0677 173.721 89.5939 173.733 92.2326C173.744 94.8713 172.706 97.4063 170.848 99.2801C168.99 101.154 166.464 102.213 163.825 102.224V102.224Z" fill="#ACD9F3"/>
<path d="M268.149 206.916C265.558 206.778 263.123 205.634 261.364 203.726C259.604 201.819 258.66 199.3 258.731 196.706C258.803 194.113 259.885 191.65 261.746 189.842C263.608 188.035 266.102 187.026 268.697 187.031C270.025 187.034 271.339 187.302 272.561 187.821C273.784 188.339 274.89 189.097 275.815 190.05C276.74 191.003 277.465 192.131 277.947 193.369C278.429 194.606 278.659 195.927 278.622 197.255C278.586 198.582 278.284 199.889 277.734 201.098C277.185 202.307 276.399 203.393 275.423 204.294C274.446 205.194 273.3 205.89 272.051 206.34C270.801 206.791 269.475 206.986 268.149 206.916V206.916Z" fill="#ACD9F3"/>
<path d="M477.645 241.88C476.343 241.893 475.053 241.646 473.848 241.152C472.644 240.657 471.552 239.927 470.634 239.003C469.717 238.08 468.995 236.982 468.509 235.774C468.024 234.567 467.786 233.274 467.808 231.973C467.808 229.364 468.844 226.862 470.689 225.017C472.534 223.172 475.036 222.136 477.645 222.136C480.264 222.18 482.762 223.25 484.601 225.115C486.44 226.981 487.475 229.494 487.482 232.113C487.463 234.71 486.419 237.194 484.576 239.024C482.733 240.853 480.242 241.88 477.645 241.88V241.88Z" fill="#ACD9F3"/>
<path d="M338.228 241.767C336.312 241.742 334.446 241.151 332.866 240.068C331.285 238.984 330.06 237.458 329.345 235.68C328.631 233.902 328.458 231.952 328.849 230.076C329.24 228.2 330.177 226.482 331.543 225.137C332.909 223.793 334.642 222.883 336.524 222.522C338.406 222.16 340.352 222.364 342.119 223.107C343.885 223.85 345.393 225.098 346.451 226.696C347.509 228.294 348.071 230.169 348.065 232.085C348.063 233.369 347.807 234.64 347.31 235.824C346.813 237.008 346.086 238.082 345.171 238.982C344.256 239.883 343.171 240.593 341.979 241.071C340.787 241.549 339.512 241.786 338.228 241.767V241.767Z" fill="#ACD9F3"/>
<path d="M128.608 12.7808C130.527 12.7615 132.409 13.3114 134.016 14.3609C135.623 15.4105 136.883 16.9128 137.636 18.6779C138.39 20.4431 138.603 22.3919 138.25 24.2784C137.897 26.1648 136.992 27.9043 135.651 29.277C134.309 30.6497 132.591 31.5941 130.714 31.991C128.836 32.3879 126.883 32.2194 125.1 31.5069C123.318 30.7943 121.787 29.5696 120.701 27.9874C119.614 26.4053 119.021 24.5367 118.996 22.6176C118.978 21.3395 119.212 20.0704 119.686 18.8833C120.159 17.6961 120.863 16.6143 121.756 15.7001C122.65 14.7859 123.715 14.0573 124.891 13.5563C126.067 13.0553 127.33 12.7917 128.608 12.7808Z" fill="#ACD9F3"/>
<path d="M617.06 171.857C615.787 171.821 614.534 171.533 613.373 171.011C612.211 170.488 611.165 169.741 610.294 168.812C609.423 167.884 608.744 166.792 608.296 165.6C607.849 164.407 607.642 163.138 607.687 161.866C607.73 160.594 608.023 159.344 608.55 158.186C609.077 157.028 609.826 155.985 610.756 155.116C611.686 154.248 612.777 153.571 613.969 153.125C615.16 152.678 616.428 152.471 617.699 152.514C618.971 152.557 620.221 152.851 621.379 153.377C622.537 153.904 623.58 154.654 624.449 155.583C625.317 156.513 625.994 157.605 626.44 158.796C626.887 159.987 627.094 161.255 627.051 162.526C627.021 163.799 626.736 165.053 626.215 166.215C625.694 167.376 624.946 168.422 624.016 169.291C623.085 170.16 621.991 170.835 620.796 171.275C619.602 171.716 618.332 171.914 617.06 171.857V171.857Z" fill="#ACD9F3"/>
<path d="M582.564 187.819C583.802 187.8 585.031 188.028 586.179 188.49C587.328 188.952 588.373 189.637 589.253 190.507C590.134 191.377 590.832 192.414 591.307 193.557C591.783 194.7 592.025 195.926 592.022 197.164C592.044 199.039 591.508 200.878 590.483 202.448C589.457 204.018 587.988 205.248 586.262 205.981C584.536 206.714 582.631 206.918 580.789 206.565C578.947 206.213 577.251 205.322 575.918 204.003C574.584 202.685 573.672 201.001 573.298 199.163C572.923 197.325 573.104 195.418 573.816 193.684C574.529 191.949 575.741 190.465 577.298 189.421C578.856 188.377 580.689 187.819 582.564 187.819Z" fill="#ACD9F3"/>
<path d="M522.221 232.03C522.221 233.902 521.666 235.732 520.625 237.288C519.583 238.844 518.104 240.057 516.373 240.771C514.643 241.486 512.739 241.671 510.903 241.302C509.068 240.934 507.383 240.029 506.062 238.702C504.741 237.375 503.843 235.686 503.483 233.849C503.123 232.011 503.316 230.109 504.039 228.381C504.761 226.654 505.98 225.18 507.541 224.146C509.101 223.112 510.934 222.564 512.806 222.572C514.046 222.572 515.274 222.817 516.419 223.293C517.564 223.769 518.604 224.466 519.479 225.345C520.354 226.224 521.046 227.267 521.517 228.414C521.988 229.561 522.227 230.79 522.221 232.03Z" fill="#ACD9F3"/>
<path d="M207.876 162.356C207.832 164.808 206.828 167.145 205.082 168.865C203.335 170.586 200.983 171.554 198.531 171.561C196.04 171.516 193.666 170.493 191.922 168.713C190.179 166.933 189.206 164.539 189.214 162.047C189.243 160.812 189.516 159.596 190.017 158.467C190.518 157.338 191.237 156.319 192.132 155.469C193.028 154.619 194.083 153.954 195.237 153.513C196.39 153.072 197.62 152.863 198.854 152.899C201.303 152.961 203.627 153.992 205.318 155.764C207.009 157.537 207.929 159.907 207.876 162.356V162.356Z" fill="#ACD9F3"/>
<path d="M137.952 57.4833C137.963 59.3087 137.433 61.0964 136.428 62.6204C135.424 64.1445 133.99 65.3366 132.308 66.046C130.626 66.7554 128.772 66.9503 126.979 66.6061C125.186 66.2619 123.536 65.394 122.236 64.1122C120.937 62.8303 120.046 61.1919 119.678 59.4041C119.309 57.6163 119.478 55.7593 120.165 54.0679C120.851 52.3764 122.023 50.9264 123.534 49.901C125.044 48.8756 126.824 48.3209 128.649 48.307C129.865 48.2921 131.071 48.5183 132.198 48.9727C133.325 49.427 134.351 50.1003 135.216 50.9537C136.081 51.8071 136.768 52.8237 137.238 53.9445C137.708 55.0652 137.95 56.2681 137.952 57.4833V57.4833Z" fill="#ACD9F3"/>
<path d="M303.098 222.824C304.925 222.799 306.717 223.317 308.25 224.311C309.782 225.305 310.985 226.732 311.706 228.41C312.428 230.088 312.635 231.942 312.302 233.738C311.969 235.534 311.111 237.191 309.836 238.499C308.562 239.807 306.928 240.708 305.141 241.087C303.354 241.466 301.495 241.307 299.799 240.63C298.103 239.952 296.646 238.786 295.612 237.28C294.578 235.774 294.015 233.996 293.992 232.169C293.974 230.957 294.195 229.753 294.643 228.626C295.091 227.5 295.757 226.473 296.603 225.604C297.45 224.736 298.459 224.043 299.574 223.566C300.688 223.089 301.886 222.837 303.098 222.824Z" fill="#ACD9F3"/>
<path d="M242.462 197.109C242.447 199.52 241.478 201.828 239.766 203.527C238.055 205.225 235.74 206.177 233.328 206.173C230.918 206.129 228.619 205.151 226.917 203.444C225.216 201.737 224.244 199.435 224.208 197.025C224.208 195.809 224.45 194.606 224.922 193.485C225.393 192.365 226.084 191.35 226.953 190.5C227.823 189.65 228.853 188.983 229.984 188.537C231.115 188.092 232.324 187.877 233.539 187.905C234.733 187.912 235.913 188.157 237.011 188.625C238.108 189.094 239.102 189.777 239.933 190.634C240.764 191.491 241.415 192.505 241.85 193.617C242.284 194.728 242.492 195.916 242.462 197.109V197.109Z" fill="#ACD9F3"/>
<path d="M163.84 118.315C165.033 118.307 166.216 118.537 167.32 118.992C168.423 119.447 169.425 120.118 170.266 120.964C171.107 121.811 171.771 122.816 172.22 123.923C172.668 125.029 172.891 126.213 172.876 127.407C172.887 129.818 171.943 132.136 170.249 133.853C168.556 135.57 166.251 136.547 163.84 136.569C161.386 136.554 159.038 135.569 157.308 133.828C155.578 132.088 154.607 129.734 154.607 127.28C154.648 124.869 155.642 122.571 157.373 120.891C159.103 119.211 161.428 118.285 163.84 118.315V118.315Z" fill="#ACD9F3"/>
<path d="M547.517 240.839C545.189 240.831 542.957 239.907 541.305 238.266C539.653 236.624 538.715 234.398 538.692 232.07C538.714 229.74 539.641 227.511 541.278 225.853C542.914 224.195 545.132 223.24 547.461 223.189C548.635 223.181 549.799 223.407 550.884 223.854C551.969 224.301 552.955 224.96 553.783 225.792C554.611 226.624 555.265 227.613 555.707 228.7C556.149 229.788 556.37 230.952 556.356 232.126C556.353 233.28 556.121 234.421 555.674 235.485C555.227 236.549 554.573 237.513 553.752 238.323C552.93 239.133 551.956 239.773 550.886 240.204C549.816 240.636 548.671 240.852 547.517 240.839V240.839Z" fill="#ACD9F3"/>
<path d="M276.962 232.145C276.921 234.415 275.983 236.576 274.353 238.156C272.723 239.736 270.534 240.607 268.264 240.576C266.026 240.511 263.9 239.585 262.329 237.991C260.758 236.396 259.864 234.257 259.832 232.018C259.836 230.889 260.062 229.771 260.497 228.729C260.933 227.687 261.57 226.741 262.371 225.945C263.172 225.149 264.122 224.519 265.167 224.09C266.212 223.661 267.331 223.443 268.46 223.446C269.594 223.446 270.715 223.672 271.76 224.112C272.804 224.551 273.751 225.195 274.543 226.006C275.335 226.816 275.957 227.777 276.372 228.831C276.788 229.885 276.988 231.012 276.962 232.145V232.145Z" fill="#ACD9F3"/>
<path d="M128.803 83.8177C131.014 83.9073 133.106 84.8489 134.639 86.4454C136.172 88.0418 137.028 90.1694 137.028 92.3828C137.028 94.5962 136.172 96.7238 134.639 98.3202C133.106 99.9167 131.014 100.858 128.803 100.948C126.526 100.941 124.343 100.04 122.724 98.4392C121.105 96.8386 120.18 94.6662 120.146 92.3898C120.146 91.257 120.371 90.1354 120.807 89.0899C121.243 88.0443 121.882 87.0955 122.687 86.2984C123.492 85.5013 124.447 84.8717 125.497 84.4459C126.546 84.0201 127.67 83.8066 128.803 83.8177V83.8177Z" fill="#ACD9F3"/>
<path d="M609.039 197.335C609.018 196.232 609.218 195.136 609.628 194.111C610.037 193.086 610.647 192.153 611.422 191.368C612.197 190.582 613.122 189.959 614.141 189.536C615.16 189.113 616.254 188.898 617.358 188.904C618.465 188.889 619.564 189.092 620.593 189.503C621.622 189.913 622.559 190.521 623.353 191.294C624.146 192.066 624.78 192.988 625.217 194.005C625.654 195.022 625.887 196.116 625.902 197.223C625.905 199.471 625.022 201.629 623.443 203.229C621.864 204.829 619.718 205.741 617.47 205.767C615.234 205.767 613.089 204.879 611.508 203.297C609.927 201.716 609.039 199.572 609.039 197.335V197.335Z" fill="#ACD9F3"/>
<path d="M94.0261 30.5591C92.9577 30.5797 91.896 30.3864 90.9035 29.9904C89.9109 29.5945 89.0077 29.004 88.2469 28.2536C87.4861 27.5033 86.8831 26.6083 86.4734 25.6214C86.0637 24.6345 85.8557 23.5755 85.8615 22.507C85.8541 21.4381 86.0584 20.3784 86.4628 19.3889C86.8671 18.3995 87.4634 17.4999 88.2173 16.7421C88.9711 15.9843 89.8676 15.3834 90.8549 14.9739C91.8423 14.5644 92.901 14.3546 93.9699 14.3565C96.0874 14.3882 98.111 15.2358 99.619 16.7228C101.127 18.2098 102.003 20.2214 102.064 22.3383C102.079 23.4067 101.883 24.4674 101.486 25.4596C101.09 26.4518 100.501 27.3558 99.7541 28.1197C99.0071 28.8837 98.1165 29.4925 97.1335 29.9111C96.1505 30.3297 95.0945 30.5499 94.0261 30.5591V30.5591Z" fill="#ACD9F3"/>
<path d="M198.7 188.945C200.82 188.96 202.85 189.806 204.353 191.301C205.856 192.796 206.712 194.821 206.738 196.941C206.727 199.106 205.861 201.178 204.329 202.707C202.798 204.236 200.724 205.098 198.559 205.106C197.489 205.091 196.433 204.865 195.45 204.439C194.468 204.013 193.581 203.397 192.838 202.626C192.096 201.855 191.514 200.944 191.126 199.947C190.738 198.949 190.551 197.885 190.578 196.815C190.615 194.695 191.49 192.677 193.013 191.202C194.535 189.727 196.58 188.915 198.7 188.945V188.945Z" fill="#ACD9F3"/>
<path d="M171.833 162.271C171.826 164.391 170.979 166.421 169.477 167.917C167.976 169.413 165.943 170.253 163.823 170.253C162.752 170.261 161.69 170.055 160.699 169.649C159.708 169.243 158.807 168.644 158.049 167.888C157.29 167.131 156.69 166.231 156.282 165.24C155.874 164.25 155.667 163.188 155.673 162.117C155.723 159.997 156.591 157.979 158.094 156.484C159.597 154.989 161.619 154.132 163.739 154.093C164.809 154.093 165.869 154.305 166.856 154.717C167.844 155.129 168.74 155.733 169.493 156.493C170.245 157.254 170.84 158.156 171.242 159.148C171.643 160.14 171.845 161.201 171.833 162.271V162.271Z" fill="#ACD9F3"/>
<path d="M582.7 240.037C581.115 240.062 579.558 239.616 578.227 238.755C576.895 237.895 575.849 236.658 575.221 235.203C574.592 233.748 574.41 232.138 574.697 230.579C574.983 229.02 575.726 227.581 576.831 226.444C577.937 225.308 579.354 224.524 580.905 224.194C582.455 223.863 584.069 224.001 585.542 224.588C587.014 225.175 588.279 226.186 589.177 227.493C590.074 228.8 590.564 230.343 590.584 231.929C590.61 234.048 589.795 236.092 588.317 237.612C586.84 239.131 584.82 240.004 582.7 240.037Z" fill="#ACD9F3"/>
<path d="M128.804 119.762C129.816 119.756 130.818 119.954 131.752 120.344C132.686 120.734 133.531 121.308 134.238 122.032C134.945 122.756 135.499 123.615 135.867 124.558C136.234 125.501 136.408 126.508 136.378 127.519C136.374 128.529 136.171 129.529 135.781 130.46C135.39 131.391 134.819 132.236 134.101 132.946C133.383 133.657 132.532 134.218 131.596 134.599C130.661 134.979 129.659 135.171 128.649 135.164C126.61 135.12 124.669 134.279 123.243 132.821C121.817 131.363 121.018 129.404 121.019 127.365C121.026 126.353 121.234 125.353 121.63 124.422C122.026 123.491 122.602 122.647 123.326 121.94C124.05 121.234 124.907 120.677 125.847 120.303C126.787 119.929 127.792 119.745 128.804 119.762V119.762Z" fill="#ACD9F3"/>
<path d="M233.48 224.399C234.489 224.397 235.488 224.598 236.417 224.989C237.347 225.381 238.188 225.956 238.891 226.68C239.594 227.404 240.144 228.262 240.508 229.203C240.873 230.143 241.044 231.148 241.012 232.156C241.004 233.166 240.798 234.164 240.403 235.093C240.009 236.022 239.435 236.864 238.714 237.57C237.993 238.277 237.14 238.834 236.203 239.21C235.266 239.585 234.264 239.772 233.255 239.759C231.219 239.704 229.286 238.857 227.866 237.397C226.446 235.938 225.652 233.982 225.652 231.946C225.669 230.936 225.885 229.939 226.287 229.012C226.69 228.086 227.271 227.248 227.999 226.547C228.726 225.846 229.584 225.295 230.525 224.927C231.466 224.558 232.47 224.379 233.48 224.399Z" fill="#ACD9F3"/>
<path d="M93.9523 65.1245C91.9631 65.1432 90.0476 64.3729 88.6253 62.9822C87.203 61.5915 86.3898 59.6938 86.3639 57.7047C86.3434 56.6975 86.5229 55.6961 86.8921 54.7587C87.2613 53.8214 87.8128 52.9666 88.5147 52.2438C89.2165 51.521 90.0548 50.9447 90.9809 50.5481C91.9071 50.1516 92.9027 49.9427 93.9101 49.9337C95.9429 49.9558 97.885 50.778 99.3159 52.222C100.747 53.666 101.551 55.6156 101.555 57.6485C101.514 59.6405 100.696 61.5377 99.2759 62.9346C97.8553 64.3316 95.9446 65.1175 93.9523 65.1245Z" fill="#ACD9F3"/>
<path d="M624.385 231.977C624.407 233.806 623.707 235.57 622.436 236.886C621.165 238.202 619.426 238.962 617.597 239.003C616.674 239.045 615.752 238.899 614.888 238.573C614.023 238.248 613.233 237.75 612.567 237.11C611.9 236.47 611.371 235.701 611.011 234.85C610.651 233.999 610.468 233.083 610.473 232.159C610.471 230.346 611.171 228.602 612.425 227.293C613.68 225.983 615.392 225.209 617.204 225.133C619.063 225.092 620.862 225.789 622.208 227.071C623.554 228.354 624.337 230.118 624.385 231.977V231.977Z" fill="#ACD9F3"/>
<path d="M100.755 92.2627C100.776 93.1662 100.615 94.0648 100.283 94.9054C99.9511 95.7461 99.4542 96.5118 98.8217 97.1574C98.1892 97.803 97.4338 98.3155 96.6002 98.6647C95.7665 99.0139 94.8714 99.1927 93.9676 99.1906C92.1499 99.2018 90.4018 98.4924 89.106 97.2177C87.8102 95.9429 87.0723 94.2067 87.0537 92.3891C87.0948 90.6073 87.8115 88.9076 89.0586 87.6344C90.3058 86.3611 91.9902 85.6094 93.7708 85.5315C95.5886 85.5013 97.3443 86.1928 98.6533 87.4544C99.9623 88.716 100.718 90.445 100.755 92.2627V92.2627Z" fill="#ACD9F3"/>
<path d="M163.822 203.755C162.036 203.751 160.323 203.047 159.051 201.794C157.779 200.54 157.05 198.837 157.021 197.052C157.015 196.169 157.184 195.293 157.517 194.475C157.85 193.657 158.342 192.913 158.963 192.285C159.584 191.657 160.324 191.158 161.138 190.816C161.952 190.474 162.826 190.296 163.71 190.293C164.595 190.274 165.475 190.432 166.298 190.759C167.121 191.086 167.87 191.574 168.501 192.195C169.132 192.815 169.633 193.556 169.973 194.374C170.314 195.191 170.487 196.068 170.483 196.953C170.494 197.838 170.33 198.716 170.001 199.537C169.672 200.358 169.184 201.106 168.565 201.738C167.947 202.37 167.209 202.873 166.395 203.219C165.581 203.566 164.707 203.748 163.822 203.755V203.755Z" fill="#ACD9F3"/>
<path d="M128.775 168.721C127.909 168.726 127.051 168.559 126.251 168.228C125.451 167.897 124.725 167.41 124.116 166.795C123.507 166.179 123.028 165.448 122.706 164.645C122.383 163.841 122.225 162.982 122.24 162.116C122.264 160.39 122.973 158.745 124.21 157.542C125.448 156.339 127.112 155.677 128.838 155.701C130.564 155.725 132.209 156.434 133.412 157.671C134.615 158.909 135.277 160.573 135.253 162.299C135.213 163.999 134.516 165.618 133.308 166.815C132.1 168.013 130.475 168.696 128.775 168.721V168.721Z" fill="#ACD9F3"/>
<path d="M205.054 231.973C204.997 233.647 204.296 235.234 203.098 236.404C201.9 237.574 200.297 238.237 198.622 238.255C196.948 238.273 195.331 237.645 194.108 236.501C192.884 235.357 192.15 233.786 192.056 232.114C192.05 231.249 192.216 230.392 192.543 229.591C192.871 228.791 193.354 228.064 193.964 227.451C194.574 226.838 195.299 226.352 196.098 226.021C196.897 225.691 197.754 225.521 198.618 225.523C200.324 225.534 201.957 226.218 203.162 227.425C204.367 228.633 205.047 230.267 205.054 231.973V231.973Z" fill="#ACD9F3"/>
<path d="M65.2013 22.4511C65.2219 23.2522 65.0825 24.0493 64.7914 24.7958C64.5003 25.5424 64.0633 26.2235 63.5059 26.7992C62.9485 27.3749 62.2819 27.8337 61.5452 28.1488C60.8084 28.4638 60.0162 28.6289 59.2149 28.6342C58.3918 28.653 57.5733 28.5068 56.8076 28.2043C56.0419 27.9018 55.3445 27.4491 54.7565 26.8729C54.1685 26.2967 53.7018 25.6086 53.3839 24.8491C53.0659 24.0897 52.9032 23.2744 52.9053 22.4511C52.9587 20.8334 53.6289 19.2975 54.7786 18.1582C55.9283 17.019 57.4703 16.3628 59.0884 16.3242C60.7075 16.3389 62.2559 16.9896 63.3996 18.1358C64.5432 19.282 65.1903 20.832 65.2013 22.4511V22.4511Z" fill="#ACD9F3"/>
<path d="M99.7165 127.128C99.7203 127.891 99.572 128.646 99.2803 129.351C98.9886 130.055 98.5593 130.694 98.0175 131.231C97.4758 131.767 96.8325 132.19 96.1253 132.475C95.418 132.76 94.6611 132.901 93.8987 132.89C93.1535 132.901 92.4135 132.764 91.7217 132.487C91.03 132.209 90.4004 131.797 89.8694 131.274C89.3385 130.751 88.9169 130.127 88.6292 129.44C88.3414 128.752 88.1933 128.014 88.1934 127.269C88.169 126.51 88.2957 125.754 88.5659 125.045C88.8361 124.335 89.2445 123.686 89.7674 123.136C90.2903 122.586 90.9173 122.145 91.612 121.839C92.3068 121.532 93.0554 121.367 93.8144 121.353C94.5819 121.342 95.3441 121.483 96.0569 121.767C96.7698 122.052 97.4192 122.475 97.9679 123.012C98.5165 123.549 98.9534 124.189 99.2536 124.895C99.5537 125.602 99.711 126.361 99.7165 127.128Z" fill="#ACD9F3"/>
<path d="M59.0318 52.1012C60.4868 52.0672 61.8958 52.6119 62.9496 53.6157C64.0034 54.6194 64.616 56.0003 64.6528 57.4552C64.654 58.9079 64.0927 60.3045 63.0867 61.3525C62.0807 62.4004 60.7081 63.0182 59.2566 63.0763C58.5317 63.0968 57.81 62.9729 57.1334 62.7118C56.4569 62.4507 55.8391 62.0576 55.3159 61.5554C54.7928 61.0532 54.3748 60.4519 54.0863 59.7866C53.7978 59.1213 53.6446 58.4052 53.6356 57.68C53.6051 56.9547 53.7224 56.2307 53.9804 55.5521C54.2385 54.8735 54.6318 54.2545 55.1365 53.7327C55.6413 53.2109 56.2469 52.7971 56.9165 52.5166C57.5861 52.2362 58.3058 52.0948 59.0318 52.1012V52.1012Z" fill="#ACD9F3"/>
<path d="M163.697 236.922C163.042 236.923 162.393 236.79 161.792 236.531C161.19 236.272 160.648 235.893 160.199 235.416C159.75 234.939 159.404 234.375 159.181 233.76C158.958 233.144 158.864 232.489 158.905 231.835C158.952 230.555 159.497 229.344 160.423 228.46C161.35 227.576 162.584 227.087 163.865 227.099C165.144 227.155 166.355 227.691 167.256 228.6C168.157 229.509 168.683 230.724 168.727 232.004C168.726 232.659 168.593 233.307 168.339 233.91C168.084 234.513 167.711 235.06 167.243 235.518C166.775 235.975 166.22 236.335 165.611 236.576C165.002 236.818 164.351 236.935 163.697 236.922V236.922Z" fill="#ACD9F3"/>
<path d="M123.926 196.702C123.961 196.062 124.124 195.436 124.405 194.86C124.685 194.284 125.077 193.77 125.559 193.347C126.04 192.925 126.601 192.602 127.209 192.399C127.816 192.196 128.458 192.115 129.097 192.163C130.331 192.294 131.466 192.897 132.265 193.845C133.064 194.793 133.466 196.014 133.386 197.252C133.306 198.489 132.751 199.648 131.836 200.486C130.922 201.324 129.719 201.776 128.479 201.747C127.209 201.674 126.019 201.104 125.166 200.16C124.314 199.215 123.868 197.973 123.926 196.702V196.702Z" fill="#ACD9F3"/>
<path d="M58.8082 96.7478C57.6558 96.7299 56.5552 96.2661 55.7376 95.4537C54.9201 94.6414 54.4491 93.5438 54.4238 92.3915C54.462 91.2308 54.9383 90.1275 55.7569 89.3037C56.5756 88.4798 57.6758 87.9965 58.8363 87.9509C59.4322 87.9525 60.0216 88.0736 60.5698 88.307C61.118 88.5405 61.6138 88.8815 62.0278 89.31C62.4419 89.7385 62.7658 90.2456 62.9803 90.8015C63.1949 91.3574 63.2957 91.9506 63.2769 92.5461C63.2643 93.1169 63.1381 93.6796 62.9058 94.2011C62.6734 94.7227 62.3395 95.1927 61.9235 95.5839C61.5075 95.975 61.0178 96.2794 60.4829 96.4792C59.9481 96.6791 59.3788 96.7704 58.8082 96.7478V96.7478Z" fill="#ACD9F3"/>
<path d="M93.8396 166.403C93.29 166.406 92.7456 166.297 92.2386 166.085C91.7317 165.872 91.2725 165.56 90.8885 165.167C90.5045 164.774 90.2033 164.308 90.003 163.796C89.8027 163.284 89.7072 162.737 89.7222 162.188C89.7222 161.07 90.1664 159.997 90.957 159.207C91.7476 158.416 92.8199 157.972 93.938 157.972C95.0811 158.001 96.166 158.482 96.9559 159.309C97.7458 160.135 98.1764 161.241 98.1538 162.384C98.1027 163.485 97.6225 164.522 96.8162 165.274C96.0098 166.025 94.9414 166.43 93.8396 166.403V166.403Z" fill="#ACD9F3"/>
<path d="M24.156 19.3162C24.5799 19.327 24.9973 19.4221 25.384 19.5961C25.7706 19.7701 26.1187 20.0195 26.4079 20.3296C26.697 20.6397 26.9215 21.0043 27.0681 21.4021C27.2147 21.8 27.2805 22.223 27.2616 22.6466C27.2578 23.0751 27.1648 23.4981 26.9888 23.8888C26.8127 24.2795 26.5573 24.6293 26.2389 24.916C25.9204 25.2028 25.5458 25.4202 25.1389 25.5545C24.732 25.6887 24.3015 25.737 23.875 25.696C23.051 25.6564 22.2737 25.3019 21.7036 24.7056C21.1335 24.1094 20.8142 23.317 20.8115 22.4921C20.8582 21.6358 21.2306 20.8298 21.8524 20.2393C22.4743 19.6488 23.2985 19.3185 24.156 19.3162V19.3162Z" fill="#ACD9F3"/>
<path d="M61.9294 127.1C61.937 127.51 61.8619 127.918 61.7087 128.299C61.5555 128.68 61.3273 129.026 61.0376 129.317C60.7478 129.608 60.4026 129.838 60.0223 129.993C59.642 130.148 59.2344 130.225 58.8238 130.219C58.0378 130.195 57.2907 129.871 56.7346 129.315C56.1785 128.759 55.8552 128.012 55.8306 127.226C55.8229 126.815 55.8985 126.406 56.0527 126.025C56.2069 125.644 56.4367 125.298 56.7281 125.008C57.0195 124.718 57.3666 124.49 57.7485 124.337C58.1304 124.185 58.5392 124.111 58.9503 124.12C59.7393 124.124 60.4949 124.439 61.0528 124.997C61.6107 125.555 61.9257 126.311 61.9294 127.1Z" fill="#ACD9F3"/>
<path d="M129.058 229.373C129.398 229.401 129.728 229.497 130.031 229.654C130.333 229.811 130.601 230.026 130.819 230.288C131.038 230.549 131.202 230.851 131.303 231.177C131.403 231.502 131.438 231.844 131.405 232.184C131.39 232.551 131.299 232.912 131.14 233.244C130.981 233.575 130.755 233.871 130.478 234.113C130.201 234.355 129.877 234.538 129.526 234.651C129.176 234.764 128.806 234.804 128.44 234.769C127.745 234.672 127.111 234.318 126.664 233.777C126.217 233.236 125.988 232.547 126.023 231.846C126.108 231.12 126.472 230.456 127.039 229.994C127.606 229.532 128.33 229.31 129.058 229.373Z" fill="#ACD9F3"/>
<path d="M23.3773 60.0685L22.1406 56.3024C22.2801 56.0452 22.4694 55.8183 22.6974 55.6349C22.9254 55.4514 23.1877 55.3152 23.4688 55.2341C23.75 55.1531 24.0445 55.1287 24.3352 55.1626C24.6258 55.1964 24.9069 55.2877 25.1619 55.4312C25.6276 55.6218 26.0175 55.9604 26.2715 56.3947C26.5255 56.829 26.6294 57.3349 26.5672 57.8342C26.4267 59.0286 25.6397 59.6048 23.3773 60.0685Z" fill="#ACD9F3"/>
<path d="M94.9648 199.189L92.1543 195.676C93.7001 194.341 94.754 194.27 95.7377 195.437C96.7214 196.603 96.4965 197.587 94.9648 199.189Z" fill="#ACD9F3"/>
</mask>
<g mask="url(#mask0_349_143917)">
<rect x="-527.474" y="10.475" width="1396.61" height="269.057" fill="url(#paint1_linear_349_143917)" fill-opacity="0.16"/>
</g>
</g>
</g>
<defs>
<linearGradient id="paint0_linear_349_143917" x1="319.5" y1="0" x2="319.5" y2="255" gradientUnits="userSpaceOnUse">
<stop stop-color="#D6E1FF"/>
<stop offset="1" stop-color="#E3EFFF"/>
</linearGradient>
<linearGradient id="paint1_linear_349_143917" x1="242.363" y1="279.533" x2="242.363" y2="10.475" gradientUnits="userSpaceOnUse">
<stop stop-color="#9385B3"/>
<stop offset="1" stop-color="#F8FCFE"/>
</linearGradient>
<clipPath id="clip0_349_143917">
<rect width="639" height="255" fill="white"/>
</clipPath>
</defs>
</svg>
