<svg width="68" height="100" viewBox="0 0 68 100" fill="none" xmlns="http://www.w3.org/2000/svg">
<path d="M45.6091 26.979C44.9984 25.7599 44.0007 24.958 43.1033 23.972C42.6396 23.5161 42.3404 22.9193 42.2524 22.275C42.1755 21.4802 42.4063 20.6853 42.5112 19.9044C42.6657 18.6938 42.4201 17.4659 41.8119 16.4079C41.2338 15.3193 40.4296 14.3356 40.0007 13.1701C39.017 10.4941 40.5485 7.57573 39.348 4.90674C38.7718 3.65231 37.7553 2.65285 36.4914 2.09778C35.2274 1.54271 33.8038 1.47059 32.4902 1.89508C32.2804 1.96501 31.383 1.53611 31.0916 1.48949C30.5448 1.39864 29.9887 1.37749 29.4366 1.42655C28.3552 1.51934 27.3108 1.86509 26.3876 2.43587C25.4675 2.99809 24.7174 3.79977 24.2175 4.75522C23.6207 5.92072 23.2851 6.96501 22.2128 7.8368C20.9587 8.85778 20.2804 9.92072 19.6907 11.4941C19.4125 12.1995 19.3257 12.9659 19.4389 13.7156C19.5718 14.5128 20.0543 15.1142 20.3364 15.8624C20.6674 16.7249 20.1895 17.3753 19.6371 18.007C19.1213 18.5513 18.6885 19.1686 18.3527 19.8391C18.0397 20.5328 17.8691 21.2822 17.8511 22.043C17.8331 22.8037 17.968 23.5604 18.2478 24.268C18.5462 25.0163 19.0986 25.8321 18.8562 26.669C18.6464 27.3846 18.0054 27.9231 17.5555 28.4895C16.4762 29.8555 16.327 31.6177 16.9214 33.2307C17.3993 34.5291 18.2664 35.5874 19.2361 36.5501C19.2278 36.5642 19.2207 36.579 19.2151 36.5944C19.104 36.951 19.1004 37.3325 19.2049 37.6911C19.3094 38.0497 19.5173 38.3696 19.8026 38.6107C20.4506 39.1958 21.3643 39.31 22.1942 39.3823C24.1404 39.552 26.1007 39.4579 28.0217 39.1025C29.9328 38.7524 31.7792 38.1125 33.4972 37.2051C35.2524 36.2727 36.7443 34.9161 38.5135 34.0093C40.1848 33.1515 42.4972 32.8042 43.9401 34.2774C44.3527 34.6993 44.9727 34.1515 44.7466 33.6993C46.5089 31.9161 46.7117 29.1771 45.6091 26.979Z" fill="#47221B"/>
<path d="M26.196 15.0956C26.0538 14.6154 25.2636 12.2564 24.3941 13.2634C24.0585 13.4965 24.1494 14.2891 24.2216 14.5828C24.3592 15.1539 24.7321 16.4033 25.4734 16.5618C26.4221 16.7646 26.3405 15.5781 26.196 15.0956Z" fill="#AB5946"/>
<path d="M38.9841 28.7366C38.0517 28.3753 36.9794 28.4266 36.3407 27.6294C35.3501 26.3916 35.3408 23.8182 35.2592 22.296C35.2125 21.4103 35.2125 20.5221 35.2289 19.6364C35.2289 19.331 35.061 17.958 35.2638 17.7366C35.2997 17.6989 35.3198 17.6488 35.3198 17.5967C35.3198 17.5447 35.2997 17.4946 35.2638 17.4569C34.2428 16.3333 32.6997 16.0443 31.2452 16.2331C30.3902 16.3606 29.549 16.5674 28.7324 16.8508C28.2195 17.0163 27.772 17.2168 27.5389 17.7086C27.5104 17.6969 27.4793 17.6927 27.4487 17.6965C27.4181 17.7002 27.389 17.7118 27.3642 17.73C27.3394 17.7483 27.3197 17.7727 27.307 17.8008C27.2943 17.8288 27.2891 17.8597 27.2918 17.8904C27.448 21.2657 27.7207 24.5897 26.9095 26.6224C26.4433 27.7879 25.6927 28.331 24.1333 28.7203C23.8839 28.7832 25.6461 30.3217 26.5855 30.5454C28.1294 30.8983 29.6981 31.1321 31.2778 31.2447C32.804 31.4052 34.3459 31.3234 35.8466 31.0023C36.9934 30.7273 38.5482 30.2517 39.0494 29.0653C39.0628 29.0329 39.0676 28.9975 39.0634 28.9627C39.0793 28.9218 39.0801 28.8765 39.0655 28.835C39.051 28.7935 39.0221 28.7586 38.9841 28.7366Z" fill="#AB5946"/>
<path d="M35.2219 20.951C35.2219 20.5128 35.2219 20.0746 35.2219 19.6364C35.2219 19.331 35.0541 17.958 35.2569 17.7366C35.2928 17.6989 35.3128 17.6488 35.3128 17.5967C35.3128 17.5447 35.2928 17.4946 35.2569 17.4569C34.2359 16.3333 32.6928 16.0443 31.2383 16.2331C30.3833 16.3606 29.5421 16.5674 28.7254 16.8508C28.2126 17.0163 27.7651 17.2168 27.532 17.7086C27.5035 17.6969 27.4724 17.6927 27.4418 17.6965C27.4112 17.7002 27.3821 17.7118 27.3573 17.73C27.3325 17.7483 27.3128 17.7727 27.3001 17.8008C27.2874 17.8288 27.2822 17.8597 27.2849 17.8904C27.3595 19.4918 27.4574 21.0816 27.4574 22.5268C29.8723 23.711 33.8886 23.0956 35.2219 20.951Z" fill="#853C31"/>
<path d="M37.0639 14.0746C37.1642 12.3053 37.1036 10.4895 36.6677 8.83914C36.2924 7.42423 35.4113 5.90674 34.029 5.34264C33.1649 5.01883 32.2476 4.86067 31.325 4.87644C30.6426 4.87708 29.9643 4.98162 29.3134 5.18646C28.7959 5.34497 28.381 5.65266 27.9008 5.88576C27.0894 6.27169 26.4147 6.89524 25.966 7.67364C24.9987 9.30534 25.1572 12.0862 25.2038 13.9394C25.2248 14.7249 25.2901 15.5081 25.3833 16.289C25.6164 18.2284 26.4742 19.352 27.691 20.4172C28.8565 21.4312 30.4253 21.7739 31.9264 21.6527C33.1603 21.5798 34.3318 21.0862 35.2458 20.2541C36.2411 19.3007 36.7003 17.7669 36.8565 16.4312C36.9544 15.655 37.029 14.8694 37.0639 14.0746Z" fill="#AB5946"/>
<path d="M30.8489 13.4638C30.7369 13.6393 30.6387 13.8232 30.5552 14.014C30.4632 14.1876 30.4106 14.3794 30.4014 14.5757C30.42 14.9091 30.7091 15.1305 30.9608 15.3053C31.0354 15.3543 31.103 15.2354 31.0307 15.1865C30.7976 15.0326 30.5179 14.8205 30.5412 14.5151C30.5689 14.3341 30.6273 14.1591 30.7137 13.9976C30.7868 13.8362 30.8717 13.6804 30.9678 13.5314C31.0144 13.4569 30.8955 13.3869 30.8489 13.4615V13.4638Z" fill="#7A3025"/>
<path d="M31.9354 15.1981C31.9636 15.1423 32.0048 15.0941 32.0555 15.0576C32.1062 15.0211 32.165 14.9973 32.2268 14.9883C32.289 14.9813 32.352 14.9897 32.4102 15.0129C32.4683 15.0361 32.5198 15.0733 32.5602 15.1212C32.6208 15.1888 32.7163 15.0909 32.6581 15.0233C32.6031 14.96 32.5335 14.9112 32.4552 14.8812C32.3769 14.8512 32.2925 14.8409 32.2093 14.8513C32.1262 14.8616 32.0468 14.8923 31.9783 14.9406C31.9098 14.9889 31.8543 15.0533 31.8166 15.1282C31.7769 15.2074 31.8958 15.2774 31.9354 15.1981Z" fill="#7A3025"/>
<path d="M34.9402 11.9394C34.1523 11.6853 33.9518 12.7529 34.0078 13.2285C34.0225 13.4708 34.1263 13.6991 34.2992 13.8695C34.409 13.9592 34.5473 14.0068 34.6891 14.0038C34.8309 14.0008 34.967 13.9474 35.0731 13.8532C35.2506 13.6783 35.3674 13.4512 35.4064 13.2052C35.4903 12.7926 35.4577 12.1073 34.9402 11.9394Z" fill="#090909"/>
<path d="M28.7019 11.6947C27.9117 11.4942 27.7695 12.5408 27.8581 12.9977C27.8856 13.2328 28.0014 13.4486 28.1821 13.6014C28.2961 13.6822 28.4349 13.7203 28.5742 13.7092C28.7135 13.6982 28.8445 13.6386 28.9443 13.5408C29.1083 13.3618 29.2097 13.1344 29.2334 12.8928C29.294 12.4872 29.2217 11.8252 28.7019 11.6947Z" fill="#090909"/>
<path d="M33.6716 16.648C33.7555 16.4616 32.5947 16.3893 32.2543 16.3473C31.879 16.3031 31.5923 16.4616 31.1914 16.3473C30.9233 16.2611 29.3103 16.1445 29.3383 16.4243C29.3616 16.6574 30.0818 17.3567 31.4222 17.4499C32.13 17.519 32.839 17.3312 33.4198 16.9208C33.5141 16.84 33.5986 16.7484 33.6716 16.648Z" fill="#732C26"/>
<path d="M40.2916 62.2005C40.2916 62.1795 40.2916 62.1585 40.3102 62.1352C40.6832 60.8042 40.5643 50.3613 40.6039 48.7016L40.7578 41.8741C40.8067 39.7086 40.9559 37.5198 40.8184 35.3473C40.6808 33.1583 40.0334 31.0318 38.9279 29.1375C38.8956 29.0879 38.848 29.0502 38.7924 29.03C38.7367 29.0099 38.676 29.0083 38.6194 29.0257C38.5628 29.0431 38.5134 29.0784 38.4787 29.1263C38.4439 29.1742 38.4257 29.2322 38.4268 29.2914C38.4198 29.2902 38.4127 29.2902 38.4058 29.2914C33.1307 30.9883 28.9303 30.4359 24.3475 29.0746C24.2979 29.0567 24.2436 29.0562 24.1937 29.0731C24.1437 29.0901 24.101 29.1234 24.0725 29.1678C24.0202 29.16 23.9668 29.1673 23.9186 29.1888C23.2007 29.5081 22.8347 30.1841 22.5736 30.8951C22.1983 31.9161 21.9139 32.979 21.6202 34.0256C20.9986 36.2525 20.4804 38.5058 20.0655 40.7855C19.2415 45.2708 18.8125 49.8197 18.7834 54.3799C18.7694 56.9099 18.8798 59.4351 19.1144 61.9557L19.0445 61.9394C18.7065 61.8694 21.9349 63.7762 31.7158 63.648C33.8633 63.6105 36.0064 63.4408 38.1331 63.1398C38.5853 63.0792 39.2007 63.0886 39.6226 62.9067C40.3265 62.5991 40.1121 62.8741 40.2916 62.2005Z" fill="#FBFBFB"/>
<path d="M24.2802 50.9767C23.7628 49.0023 23.2802 47.0699 23.0844 45.028C22.91 43.0415 22.8695 41.0455 22.9632 39.0536C23.0121 37.8352 23.128 36.6205 23.3105 35.4149C23.4126 34.8679 23.4533 34.3112 23.4318 33.7552C23.4178 33.5874 23.4038 33.2075 23.166 33.2028C23.1124 33.3986 23.0565 33.5967 23.0028 33.7902C22.3828 36.014 21.863 38.2681 21.4481 40.5385C20.623 45.0236 20.194 49.5726 20.166 54.1329V54.2261C21.7558 53.5245 23.0635 52.2704 24.2802 50.9767Z" fill="#3A3A3A"/>
<path d="M36.2291 61.1445C35.3131 61.8019 33.2734 62.8601 32.7163 61.2774C32.4086 60.4033 32.1942 59.9091 31.1382 59.8298C29.9448 59.7413 28.714 60.049 27.5648 60.345C25.5866 60.8464 23.7188 61.7111 22.0566 62.8951C24.073 63.3077 27.1848 63.683 31.714 63.6247C33.8615 63.5872 36.0046 63.4175 38.1312 63.1165C38.5834 63.0559 39.1988 63.0653 39.6207 62.8834C40.3364 62.5897 40.1126 62.8648 40.2921 62.1841C40.2921 62.1632 40.2921 62.1422 40.3107 62.1189C40.4622 61.5758 40.5438 59.5221 40.5671 57.1655C39.1755 58.5664 37.8072 60.014 36.2291 61.1445Z" fill="#3A3A3A"/>
<path d="M48.1894 89.5734C47.8467 86.31 47.4505 83.0466 47.1544 79.7692C46.7255 75.035 46.3013 70.2261 44.5227 65.7832C44.3938 65.4582 44.3274 65.1118 44.3269 64.7622C44.3176 63.7552 44.2904 62.7498 44.2453 61.7459C42.404 62.2267 40.5359 62.5987 38.6509 62.8601C32.8747 63.7343 26.4761 63.1212 23.9889 63.0583C22.3968 63.0163 20.7139 63.007 19.1964 62.4615C19.0433 63.9139 18.9834 65.3745 19.0169 66.8345C18.3549 69.1468 17.7045 71.4639 17.2174 73.8275C16.7142 76.3801 16.3964 78.9657 16.2663 81.5641C16.0845 84.6457 15.8001 87.7226 15.6556 90.8065C15.5903 92.3077 15.3852 97.1049 15.6183 97.669C16.0682 98.6783 20.1498 98.5851 21.0285 98.6713C24.4528 99.0023 27.8747 98.7529 31.3525 98.6713C31.4655 98.6689 31.5731 98.6225 31.6523 98.5419C31.7315 98.4614 31.7762 98.3531 31.7768 98.2401C31.7581 95.7352 31.9672 93.2339 32.4015 90.7669C32.4036 90.7516 32.4093 90.737 32.4182 90.7243C32.427 90.7116 32.4388 90.7012 32.4524 90.6939C32.466 90.6866 32.4812 90.6827 32.4967 90.6824C32.5121 90.6821 32.5275 90.6855 32.5414 90.6923C32.5562 90.6725 32.5767 90.6577 32.6001 90.6497C32.6235 90.6417 32.6488 90.641 32.6726 90.6475C32.6965 90.654 32.7178 90.6675 32.7339 90.6863C32.75 90.7051 32.7601 90.7283 32.7628 90.7529C33.1078 93.3543 33.1241 95.6853 33.5693 98.2121C33.59 98.3314 33.653 98.4393 33.7468 98.5159C33.8405 98.5925 33.9588 98.6328 34.0798 98.6294C38.0146 98.5408 42.1358 98.5851 45.9959 98.3613C46.6719 98.3217 47.4295 98.3613 48.0938 98.2238C48.2267 98.1958 48.5833 98.2587 48.6929 98.1725C49.3246 97.6527 48.3735 91.324 48.1894 89.5734Z" fill="#CCDEEA"/>
<path d="M16.5669 90.4173C16.2719 90.392 15.9785 90.35 15.6882 90.2914C15.6882 90.4592 15.6718 90.6247 15.6625 90.7925C15.6369 91.3357 15.5926 92.303 15.5576 93.3566C15.888 93.43 16.2228 93.4814 16.5599 93.5105C17.1579 93.5583 17.7592 93.5466 18.3548 93.4755C19.0261 93.3939 19.849 93.2075 20.2406 92.5967C20.6322 91.986 20.3968 91.0793 20.166 90.373C20.1507 90.3767 20.1347 90.3767 20.1194 90.373C18.9381 90.4786 17.7505 90.4934 16.5669 90.4173Z" fill="#3A3A3A"/>
<path d="M32.0147 66.718C32.073 68.4359 32.1546 70.1515 32.1896 71.8695C32.2199 73.2494 32.1593 74.6294 32.1756 76.0117C32.2043 76.4258 32.1681 76.8418 32.0684 77.2448C32.0171 77.4103 31.9332 77.5991 31.735 77.6084C31.5687 77.5837 31.4096 77.5232 31.2688 77.4312C31.1057 77.3497 30.9425 77.2657 30.7863 77.1725C30.4901 77.0068 30.225 76.7907 30.0031 76.5338C29.7273 76.1534 29.5736 75.6982 29.5625 75.2285C29.4833 74.3706 29.439 73.5105 29.404 72.6504C29.3279 70.6877 29.3465 68.7257 29.46 66.7646C29.46 66.676 29.3271 66.676 29.3224 66.7646C29.2106 68.725 29.1872 70.6877 29.2665 72.6504C29.3038 73.5828 29.3341 74.5338 29.4483 75.4616C29.4796 75.7866 29.5813 76.1009 29.7464 76.3827C29.9114 76.6645 30.1358 76.907 30.404 77.0933C30.7167 77.3119 31.051 77.4978 31.4017 77.648C31.4702 77.6916 31.5468 77.721 31.6268 77.7346C31.7069 77.7482 31.7888 77.7457 31.8679 77.7273C32.1639 77.6177 32.2315 77.2005 32.2688 76.9324C32.3096 76.5181 32.3213 76.1013 32.3038 75.6853C32.3038 74.8671 32.3434 74.0536 32.3411 73.2285C32.3411 71.0583 32.2199 68.8905 32.1499 66.7226C32.1499 66.634 32.0078 66.634 32.0101 66.7226L32.0147 66.718Z" fill="#3A3A3A"/>
<path d="M43.5901 64.8951C43.378 64.1329 42.6577 63.8438 41.9351 63.9627C38.1579 64.5819 34.3403 64.9224 30.5132 64.9814C28.5878 65.014 26.6608 64.9751 24.7323 64.8648C22.9048 64.7599 21.047 64.6737 19.2964 64.0932C17.6507 63.5501 16.9141 66.035 18.5505 66.5758C20.4362 67.2005 22.4689 67.3054 24.4386 67.4242C26.4502 67.5455 28.5085 67.6993 30.5248 67.669C34.5872 67.5947 38.6387 67.2207 42.646 66.5501C43.371 66.4336 43.7649 65.5385 43.5901 64.8951Z" fill="#6E1E00"/>
<path d="M36.2122 64.0373C35.7297 64.0956 35.2449 64.1492 34.7623 64.1772C34.7342 64.2936 34.7342 64.415 34.7623 64.5315C34.995 65.6566 35.0006 66.8168 34.7787 67.9441C34.6994 68.3566 35.0957 68.7529 35.478 68.7879C35.6815 68.8019 35.8826 68.7371 36.0397 68.6069C36.1967 68.4767 36.2977 68.2912 36.3218 68.0886C36.562 66.8221 36.5501 65.5206 36.2868 64.2587C36.2729 64.1817 36.2478 64.1071 36.2122 64.0373Z" fill="#CCDEEA"/>
<path d="M25.1146 64.0373C25.5971 64.0956 26.0796 64.1492 26.5645 64.1772C26.5914 64.2937 26.5914 64.4149 26.5645 64.5315C26.3314 65.6566 26.3267 66.8171 26.5505 67.9441C26.6297 68.3566 26.2311 68.7529 25.8512 68.7879C25.6479 68.8018 25.4471 68.7369 25.2904 68.6067C25.1337 68.4765 25.0332 68.291 25.0097 68.0886C24.7675 66.8223 24.7786 65.5207 25.0423 64.2587C25.0566 64.1821 25.0809 64.1076 25.1146 64.0373Z" fill="#CCDEEA"/>
<path d="M23.2754 64.7343C24.1659 63.8019 22.7439 62.366 21.8512 63.3077C21.1868 64.007 21.04 65.0606 20.9188 65.9837C20.8012 67.0241 20.8476 68.0765 21.0563 69.1026C21.2894 70.373 23.2451 69.8345 23.0004 68.5664C22.87 67.8792 22.83 67.1778 22.8815 66.4802C22.9234 66.0303 22.9514 65.0746 23.2754 64.7343Z" fill="#765BA7"/>
<path d="M20.5137 85.4079C22.4531 84.7086 22.1267 82.4079 22.234 80.7599C22.3831 78.4825 22.6652 76.2145 22.9822 73.9557C23.3109 71.6247 24.3062 69.2308 23.9146 66.8998C23.6815 65.5012 23.4041 63.972 23.9146 61.6201C22.7465 61.6145 21.5862 61.4297 20.4741 61.0723C20.3203 62.5253 20.2596 63.9867 20.2922 65.4476C19.6302 67.7599 18.9822 70.0769 18.495 72.4406C17.99 74.9921 17.6714 77.577 17.5417 80.1748C17.4438 81.8601 17.3086 83.5431 17.1943 85.2261C18.2643 85.6084 19.4694 85.7809 20.5137 85.4079Z" fill="#3A3A3A"/>
<path d="M39.7931 73.1538C40.0472 76.3706 40.3526 79.5874 40.299 82.8158C40.278 84.1445 40.2826 85.4778 40.229 86.8065C40.1456 87.8933 40.1573 88.9852 40.264 90.0699C40.4248 91.2587 40.919 92.1981 42.1638 92.4895C43.222 92.7412 44.4388 92.6736 45.5181 92.5897C46.5276 92.5069 47.5237 92.3042 48.4854 91.986C48.3619 90.9674 48.2523 90.0792 48.1917 89.5734C47.8491 86.31 47.4528 83.0466 47.1568 79.7692C46.7279 75.035 46.3036 70.2261 44.5251 65.7832C44.3962 65.4582 44.3298 65.1118 44.3293 64.7622C44.3199 63.7552 44.2927 62.7498 44.2477 61.7459C42.6018 62.1784 40.9334 62.52 39.25 62.7692C39.2733 66.2354 39.5227 69.697 39.7931 73.1538Z" fill="#3A3A3A"/>
<path d="M26.9163 26.8695C27.0842 26.383 27.2105 25.8831 27.2939 25.3753C27.2403 25.296 24.4408 26.6317 23.0538 27.4732C21.9466 28.1515 19.4221 29.9068 18.9862 30.4569C18.9303 30.5291 18.8907 30.6573 18.8207 30.7389C17.9303 31.1538 16.5946 31.7413 16.0468 31.9907C15.1004 32.4242 12.6179 33.648 11.8394 34.3566C11.0608 35.0653 10.6412 36.0676 10.4408 37.0979C9.97457 39.6107 11.259 41.5268 11.5387 44.042C11.5387 44.1212 11.555 44.1981 11.5643 44.2751C11.7974 46.2727 12.0515 48.2704 12.1168 50.2867C12.189 52.4872 11.5643 63.5734 11.1587 68.0443C10.7065 73.0256 10.6925 86.7995 10.8604 87.5012C11.3126 89.352 13.7042 90.5315 15.3196 91.2517C16.2728 91.6818 17.2782 91.9851 18.3102 92.1538C19.1587 92.289 20.851 91.4895 21.1424 90.4662C21.2037 90.1516 21.2271 89.8307 21.2123 89.5105C21.3592 86.3403 21.6552 81.0606 21.541 79.0443C21.3872 76.3613 22.583 55.1142 23.5224 43.7995C23.7741 40.7692 23.5946 36.4499 24.1191 32.6107C24.4501 30.1888 25.8557 28.0513 26.4361 27.7482C26.6388 27.4807 26.8007 27.1846 26.9163 26.8695Z" fill="#7F64B1"/>
<path d="M15.7792 69.2308C17.2594 68.683 21.25 68.0163 22.5927 67.1492C22.7419 64.2797 22.9214 61.4009 22.9517 58.8671C21.3526 59.5664 16.9587 60.5385 15.3596 61.2238C14.2407 61.7016 12.5624 61.6527 11.4552 62.1562C11.3899 64.4872 11.2943 66.648 11.1661 68.0723C11.0985 68.8275 11.0333 69.613 10.9727 70.4172C12.6175 70.2209 14.2319 69.8224 15.7792 69.2308Z" fill="#3A3A3A"/>
<path d="M35.9983 10.2774C35.614 10.0608 35.1897 9.92445 34.7512 9.87647C34.1358 9.81586 33.3526 10.0163 33.1428 10.725C32.933 11.4336 33.4622 11.5804 33.975 11.5478C34.4697 11.5157 34.9642 11.6146 35.4085 11.8345C35.6662 12.0025 35.9533 12.1203 36.2547 12.1818C36.982 12.2401 37.0542 11.4103 36.7372 10.9371C36.5444 10.6638 36.2916 10.4381 35.9983 10.2774Z" fill="#47221B"/>
<path d="M26.3403 10.1818C25.9324 10.6177 25.8601 11.4872 26.6131 11.5408C26.9357 11.522 27.2519 11.443 27.5455 11.3077C28.0384 11.1687 28.5566 11.1439 29.0606 11.2355C29.5897 11.2984 30.1049 11.0956 30.0583 10.5198C29.993 9.76692 29.2844 9.56413 28.6457 9.53382C28.1185 9.49599 27.5888 9.55283 27.0816 9.70166C26.796 9.79246 26.54 9.9583 26.3403 10.1818Z" fill="#47221B"/>
<path d="M49.7836 73.0653C49.4642 68.9091 48.744 64.3054 48.8652 60.1352C48.9817 56.0909 49.1682 52.2937 49.3314 48.2074C49.4969 44.2121 50.9491 40.8508 50.3174 36.8858C50.0213 35.021 50.7649 34.1095 48.3477 32.5874C47.0214 31.7529 43.8349 30.3776 42.5482 29.9114C41.8022 29.0932 40.2521 27.606 39.3244 27.0233C38.1589 26.2844 35.4433 25.2494 35.4969 25.5128C35.5855 25.9604 35.991 27.4242 36.4712 27.7972C37.7696 31.6107 37.4339 35.275 37.3314 39.2377C37.2265 43.4336 37.0423 47.6294 36.9584 51.8252C36.7789 60.1466 37.1683 68.4706 38.1239 76.7389C38.4922 79.8578 38.9405 82.9658 39.4689 86.0629C39.8815 88.4802 39.702 92.5897 43.1985 90.9743C44.9556 90.1968 46.6677 89.3213 48.3267 88.352C49.7253 87.5035 49.9584 87.1235 50.2172 85.3986C50.3371 84.5776 50.408 83.7502 50.4293 82.9207C50.5318 79.662 50.0237 76.1632 49.7836 73.0653Z" fill="#7F64B1"/>
<path d="M49.2685 49.8368C49.1629 49.794 49.0478 49.7803 48.9351 49.7972C48.2195 49.9301 47.7254 51.331 47.4923 51.9138C46.8069 53.6224 46.5995 56.0793 46.8745 57.8858C47.2475 60.352 48.061 62.1585 48.9841 64.5012C48.8815 63.0186 48.8233 61.5524 48.8652 60.1352C48.9655 56.6434 49.1193 53.3147 49.2685 49.8368Z" fill="#3A3A3A"/>
<path d="M45.2731 21.9417C44.9771 21.387 44.6275 20.8532 44.3407 20.324C43.9002 19.5746 43.7353 18.6949 43.8745 17.8368C43.9398 17.4359 44.033 17.042 44.1286 16.6504C44.2522 16.2915 44.3404 15.9215 44.392 15.5455C44.5482 14.4522 44.6251 13.4079 44.2708 12.331C43.9165 11.2541 43.3011 10.7483 42.4316 10.1609C41.8489 9.76458 41.6601 9.19115 41.6484 8.5105C41.6321 7.46388 41.9142 6.46854 41.4153 5.4802C40.969 4.69031 40.3595 4.00455 39.6275 3.46854C38.2848 2.42425 36.8302 2.47787 35.4316 3.03731C34.3617 2.54547 33.1006 2.7133 31.9794 3.014C31.949 3.02112 31.9203 3.03428 31.8951 3.0527C31.8699 3.07112 31.8486 3.09442 31.8326 3.12122C31.7822 3.12905 31.7348 3.14995 31.6951 3.18183C29.7044 2.51516 26.9608 3.94174 26.1752 5.78556C25.994 6.30237 25.8461 6.83025 25.7323 7.36598C25.4829 8.25642 24.9981 8.683 24.1193 8.94407C22.8606 9.32169 21.9981 10.0676 21.3221 11.1912C20.5948 12.3846 20.6694 13.4336 21.3594 14.6037C21.7836 15.3287 22.0867 15.9907 21.8256 16.8485C21.5762 17.662 20.9957 18.31 20.4689 18.9464C19.6251 19.9814 18.9002 21.1352 18.5529 22.4429C18.3238 23.1671 18.2789 23.9371 18.4223 24.683C18.5212 24.9699 18.5171 25.2823 18.4107 25.5664C18.3183 25.7181 18.2062 25.8569 18.0773 25.979C17.6111 26.4965 17.4456 27.2098 17.4177 27.8905C17.4012 28.2353 17.4294 28.5808 17.5016 28.9184C17.5272 29.035 17.8512 29.7063 17.8279 29.7599C18.2498 28.8275 18.5505 27.6923 19.4223 27.1958C19.9841 26.8765 20.6787 26.9417 21.2545 26.6597C21.2814 25.7938 21.5808 24.9586 22.11 24.2727C22.7463 23.394 23.6694 22.7902 24.3198 21.9417C24.9701 21.0933 24.8419 20.0933 24.6391 19.0886C24.378 17.7972 24.5179 15.9907 25.6438 15.0979C25.6438 15.5641 25.4736 16.0303 25.5552 16.5175C25.6414 17.0536 26.0214 17.3427 26.2545 17.7926C26.5172 18.3324 26.5895 18.9453 26.4596 19.5315C26.2918 20.5968 25.7603 21.6457 26.0144 22.7436C26.0576 22.9349 26.1233 23.1203 26.2102 23.2961C26.3987 23.2482 26.5735 23.1572 26.7207 23.0301C26.868 22.9031 26.9837 22.7436 27.0587 22.5641C26.9495 21.8472 26.9582 21.1174 27.0843 20.4033C27.2211 19.8348 27.313 19.2565 27.3594 18.6737C27.3702 18.144 27.2064 17.6255 26.8932 17.1981C26.7305 16.9892 26.5935 16.7615 26.4853 16.5198C26.3602 16.163 26.3727 15.7724 26.5202 15.4243C26.7323 14.8415 27.1473 14.3567 27.3361 13.7599C27.5011 13.2301 27.5125 12.6642 27.3687 12.1282C27.2172 11.5548 26.9025 11.035 26.7696 10.4546C26.6446 9.87726 26.7411 9.27404 27.04 8.76458C27.4097 8.24705 27.874 7.80415 28.4083 7.45922C29.364 6.85316 30.6811 6.58276 31.7393 7.0816C32.1822 7.28906 32.2778 7.11889 32.6904 7.02565C33.8559 6.75992 33.8978 7.89045 33.7323 8.71563C33.6298 9.22612 33.6368 9.75059 34.033 10.1375C34.2768 10.3372 34.5456 10.5041 34.8326 10.634C35.268 10.8678 35.6266 11.2223 35.8652 11.655C36.3897 12.6247 36.0587 13.5664 35.7673 14.5455C35.5622 15.2308 35.413 15.9977 35.6951 16.6877C35.9515 17.3124 36.5249 17.6737 37.0564 18.0466C37.4295 18.2677 37.7313 18.5913 37.9258 18.979C38.1263 19.4452 38.0843 19.9464 38.0727 20.4359C38.0179 21.1748 38.1731 21.9142 38.5202 22.5688C39.1589 23.6993 40.8792 24.8811 41.3174 26.2424C42.0797 26.9417 43.1426 27.1562 44.0494 26.6107C44.5319 26.3194 44.9654 26.3194 45.3617 25.8345C45.7077 25.3944 45.9045 24.8555 45.9235 24.296C45.9701 23.4429 45.6671 22.6737 45.2731 21.9417Z" fill="#47221B"/>
<path d="M39.7577 45.1632C39.5828 44.648 39.0211 44.5361 38.5315 44.5105C37.5991 44.4615 35.718 44.7086 34.8742 44.8765C32.7569 45.3373 30.682 45.9752 28.6714 46.7832C26.6667 47.5618 24.8812 48.7086 23.0164 49.7576C22.4103 50.0979 23.1259 52.5548 23.2285 53.1468C23.422 54.2541 24.5339 56.6713 24.5688 56.6247C25.3629 56.0567 26.2164 55.5768 27.1143 55.1935C27.3474 55.0792 29.8556 55.2354 32.07 54.7785C32.1455 54.7628 32.2242 54.7742 32.292 54.8109C32.3599 54.8476 32.4125 54.9072 32.4406 54.979C32.5315 55.2121 32.6364 55.2121 32.8928 55.2611C34.6528 55.6364 36.9325 54.2378 36.2611 52.627C36.2574 52.618 36.2527 52.6094 36.2472 52.6014C36.8322 52.0629 37.781 50.9207 37.2681 50.1608C37.3637 49.9837 37.4523 49.8019 37.5315 49.6154C37.5443 49.5954 37.5552 49.5743 37.5642 49.5524C37.5642 49.5291 37.5782 49.5105 37.5852 49.4872C37.5858 49.4786 37.5858 49.4701 37.5852 49.4615C38.3264 47.1725 35.0047 47.4942 33.1329 47.7552C33.1166 47.69 33.1329 47.7133 33.1073 47.648C33.8905 47.3869 34.6924 47.1818 35.4989 46.9883C36.3054 46.7949 38.408 46.5221 39.1586 46.2098C39.5828 46.021 39.9185 45.6434 39.7577 45.1632Z" fill="#AB5946"/>
<path d="M17.2312 46.8275C16.5762 44.4219 17.103 42.951 16.2149 40.69C15.2965 38.359 14.0004 36.0117 12.8559 33.7809C12.8559 33.7809 11.9398 34.5431 11.9235 34.5455C10.1356 35.1049 8.31747 40.2331 7.5459 42.3054C5.48996 47.8345 5.31047 53.1422 4.78134 59C4.66712 60.2587 4.448 62.4289 4.59719 63.6876C4.83029 65.7599 7.48763 67.7086 9.6508 67.9068C11.2382 68.0536 12.9608 67.0793 13.5879 65.6364C15.4527 61.3263 16.2615 56.1049 17.6322 51.6177C18.1287 50.0047 17.6345 48.303 17.2312 46.8275Z" fill="#7F64B1"/>
<path d="M29.5017 58.4243C29.0961 54.9487 28.8747 52.9184 27.7558 49.6037C27.1754 47.8835 26.9259 47.2727 26.7698 47.3194C25.1567 47.9021 23.3036 49.0513 21.8747 49.9674C20.4458 50.8835 18.9586 51.69 17.4458 52.4755C14.7534 53.8741 11.4061 54.4592 9.57162 56.9464C9.53666 56.972 10.1497 57.9464 10.1287 57.9953L10.1008 58.0326C10.0807 58.0593 10.0665 58.0899 10.0593 58.1225C10.052 58.1551 10.0519 58.1888 10.0588 58.2214C9.48305 60.1492 7.97955 67.4569 8.62291 67.6713C9.90496 68.1049 11.215 67.9208 12.6789 67.4615C14.1427 67.0023 16.5506 65.8648 17.9492 65.2284C19.9889 64.296 22.1311 63.5967 24.1567 62.641C26.3991 61.5804 29.5203 58.5944 29.5017 58.4243Z" fill="#7F64B1"/>
<path d="M36.746 18.1655C37.2062 18.408 37.5946 18.7671 37.8724 19.2069C38.1501 19.6466 38.3075 20.1516 38.3288 20.6713C38.34 20.9335 38.3125 21.1958 38.2472 21.4499C38.1656 21.7669 38.0421 22.0746 37.9861 22.3986C37.9278 22.6956 37.9628 23.0034 38.0864 23.2797C38.223 23.533 38.3846 23.772 38.5689 23.993C38.9943 24.5546 39.1969 25.2537 39.1376 25.9557C39.1376 26.0443 39.2682 26.0443 39.2752 25.9557C39.3313 25.3291 39.1833 24.7011 38.8533 24.1655C38.6947 23.9091 38.492 23.6993 38.3288 23.4336C38.1473 23.1723 38.0647 22.855 38.0957 22.5385C38.1564 22.2013 38.2429 21.8694 38.3544 21.5455C38.4282 21.2854 38.4643 21.0162 38.4616 20.7459C38.4517 20.2214 38.3106 19.7078 38.0514 19.2518C37.7648 18.7364 37.3315 18.3177 36.8066 18.049C36.7297 18.0093 36.6598 18.1282 36.739 18.1678L36.746 18.1655Z" fill="#090909"/>
<path d="M32.555 6.17952C33.2963 5.41495 34.4991 5.06763 35.4804 5.57345C35.9201 5.79431 36.2712 6.1586 36.4758 6.60609C36.7089 7.11425 36.6436 7.67602 36.5574 8.20982C36.4711 8.74362 36.3522 9.2914 36.4618 9.82753C36.5865 10.3123 36.8665 10.743 37.259 11.0536C37.6615 11.3646 38.0316 11.7152 38.3639 12.1003C38.6942 12.5521 38.8803 13.0932 38.8977 13.6527C38.9326 14.8182 38.0399 15.9161 38.3965 17.0956C38.4357 17.222 38.4897 17.3432 38.5574 17.4569C38.568 17.4696 38.5828 17.4781 38.5991 17.4809C38.6154 17.4837 38.6321 17.4806 38.6464 17.4722C38.6606 17.4638 38.6715 17.4507 38.6769 17.4351C38.6824 17.4195 38.6821 17.4024 38.6762 17.387C38.3686 16.8742 38.4315 16.2401 38.5807 15.6853C38.7438 15.0863 39.0003 14.5035 39.0329 13.8742C39.0597 13.3155 38.9245 12.761 38.6436 12.2774C38.3532 11.8387 37.9888 11.4539 37.5667 11.1399C37.1797 10.8112 36.7858 10.4406 36.6343 9.95108C36.4688 9.39863 36.5993 8.81355 36.6879 8.2611C36.7765 7.70865 36.8394 7.1632 36.6389 6.64338C36.4561 6.18556 36.1287 5.80002 35.7065 5.54548C34.7741 4.96973 33.5923 5.1562 32.7555 5.80889C32.6485 5.89293 32.5473 5.98405 32.4525 6.08161C32.4424 6.09508 32.4375 6.11174 32.4387 6.12853C32.4398 6.14532 32.4471 6.16112 32.459 6.17302C32.4709 6.18492 32.4867 6.19213 32.5035 6.19333C32.5202 6.19452 32.5369 6.18962 32.5504 6.17952H32.555Z" fill="#090909"/>
<path d="M26.6811 10.0233C26.7167 10.4002 26.8227 10.767 26.9934 11.1049C27.0331 11.1841 27.152 11.1049 27.1123 11.0349C26.9525 10.7189 26.8529 10.3758 26.8186 10.0233C26.8186 9.9347 26.6718 9.9347 26.6811 10.0233Z" fill="#090909"/>
<path d="M31.8326 5.8578C31.1123 5.37528 30.2195 5.324 29.3897 5.48251C28.9612 5.56488 28.5431 5.69385 28.1426 5.86712C27.7342 6.03674 27.3437 6.2468 26.9771 6.49416C26.2284 6.96396 25.6885 7.70322 25.469 8.55943C25.3741 8.98666 25.3983 9.43172 25.5389 9.84614C25.6927 10.2937 25.9515 10.6946 26.117 11.1375C26.4873 12.1433 26.4505 13.254 26.0144 14.2331C25.9771 14.3123 26.096 14.3823 26.1333 14.303C26.5035 13.4769 26.6023 12.5547 26.4154 11.669C26.3074 11.2269 26.1445 10.8002 25.9305 10.3986C25.6995 9.99915 25.5647 9.55145 25.5366 9.0909C25.5366 8.20046 26.0401 7.40092 26.7021 6.84848C27.0474 6.57142 27.4246 6.33665 27.8256 6.14918C28.2143 5.95472 28.6211 5.79858 29.0401 5.68298C29.9422 5.44988 30.9538 5.41957 31.758 5.95803C31.8326 6.00932 31.9002 5.8881 31.8279 5.83915L31.8326 5.8578Z" fill="#090909"/>
<path d="M18.3664 25.7156C18.4727 26.0058 18.5507 26.3056 18.5995 26.6107C18.6322 26.8941 18.5995 27.1812 18.5039 27.4499C18.3221 27.9557 17.9888 28.3986 17.8932 28.9347C17.8333 29.2121 17.8669 29.5014 17.9888 29.7576C18.0307 29.8368 18.1496 29.7576 18.1077 29.6877C17.8559 29.1912 18.1077 28.6224 18.3244 28.1678C18.4468 27.942 18.5543 27.7084 18.6461 27.4685C18.7374 27.2069 18.7693 26.9282 18.7394 26.6527C18.6967 26.3243 18.6186 26.0015 18.5063 25.69C18.4783 25.6061 18.3454 25.641 18.3734 25.725L18.3664 25.7156Z" fill="#090909"/>
<path d="M32.7512 4.72259C33.292 3.98367 34.1941 3.63635 35.0822 3.57108C36.0716 3.50713 37.0589 3.72366 37.9307 4.19579C38.3976 4.43437 38.8126 4.76326 39.1515 5.16339C39.4904 5.56353 39.7465 6.02694 39.905 6.52679C40.0522 7.07155 40.061 7.64443 39.9307 8.19346C39.8071 8.75756 39.6207 9.30534 39.5204 9.87411C39.4175 10.4056 39.3994 10.95 39.4668 11.4872C39.5428 12.0055 39.7357 12.4997 40.0309 12.9324C40.602 13.7879 41.4645 14.4802 41.637 15.5478C41.7025 16.0964 41.65 16.6527 41.4831 17.1795C41.3363 17.7273 41.1545 18.2657 41.0169 18.8112C40.8687 19.3426 40.7904 19.8912 40.7838 20.4429C40.7933 20.9786 40.8837 21.5099 41.0519 22.0186C41.2219 22.5238 41.4397 23.0116 41.7022 23.4755C41.8351 23.7086 41.989 23.9417 42.1148 24.1981C42.235 24.4332 42.3348 24.678 42.4132 24.9301C42.7325 25.958 42.7116 27.0559 42.63 28.1189C42.6113 28.3753 42.588 28.6294 42.5647 28.8834C42.5647 28.972 42.6952 28.972 42.7022 28.8834C42.8025 27.8112 42.8957 26.7226 42.7209 25.6527C42.6413 25.1224 42.4768 24.6084 42.2337 24.1305C42.1078 23.8834 41.954 23.648 41.8211 23.4056C41.6883 23.1632 41.56 22.9137 41.4458 22.6597C41.2123 22.1466 41.0507 21.6038 40.9656 21.0466C40.8904 20.459 40.9173 19.8628 41.0449 19.2844C41.1591 18.7226 41.3386 18.1771 41.4994 17.627C41.6807 17.1008 41.7859 16.5513 41.8118 15.9953C41.8127 15.4865 41.6775 14.9867 41.4202 14.5478C41.1297 14.1056 40.8088 13.6842 40.4598 13.2867C40.1014 12.8648 39.8354 12.3725 39.6789 11.8415C39.5458 11.2743 39.5275 10.6862 39.6253 10.1119C39.7862 8.99299 40.3246 7.92306 40.1078 6.77154C39.9966 6.26539 39.7866 5.78616 39.4898 5.36135C39.193 4.93655 38.8153 4.57451 38.3782 4.29602C37.5329 3.74189 36.5495 3.43509 35.5391 3.41024C34.6524 3.35888 33.7769 3.62865 33.0729 4.17015C32.9073 4.31564 32.7601 4.48081 32.6346 4.66199C32.5834 4.73425 32.7022 4.80418 32.7535 4.73192L32.7512 4.72259Z" fill="#090909"/>
<path d="M32.1408 4.61771C31.8842 4.04006 31.4333 3.57056 30.8665 3.29078C30.2997 3.011 29.6528 2.93863 29.0382 3.08624C28.952 3.10489 28.9893 3.23776 29.0755 3.21911C29.6609 3.07916 30.2768 3.1496 30.8155 3.41808C31.3542 3.68656 31.7812 4.13598 32.0219 4.68764C32.0569 4.76689 32.1758 4.68764 32.1408 4.61771Z" fill="#090909"/>
<path d="M32.0125 3.63635C31.9658 3.42831 31.8756 3.2325 31.7478 3.06176C31.6201 2.89103 31.4577 2.74924 31.2713 2.64567C31.1943 2.60371 31.1244 2.7226 31.2013 2.76455C31.372 2.85924 31.5207 2.989 31.6376 3.14529C31.7545 3.30157 31.837 3.48085 31.8797 3.67131C31.8983 3.75756 32.0312 3.7226 32.0125 3.63635Z" fill="#090909"/>
<path d="M24.6297 16.4872C24.3046 17.1111 24.0309 17.7605 23.8115 18.4289C23.5895 19.0628 23.4394 19.7196 23.364 20.3869C23.2815 21.0048 23.4035 21.6327 23.7113 22.1748C23.8885 22.4522 24.1285 22.6783 24.3267 22.9417C24.5055 23.1796 24.6354 23.4506 24.709 23.7389C24.7913 24.0615 24.8042 24.3979 24.7467 24.7258C24.6893 25.0537 24.5628 25.3657 24.3756 25.641C24.3267 25.7133 24.4456 25.7832 24.4968 25.7086C24.8213 25.23 24.9658 24.6519 24.9048 24.0769C24.8743 23.7922 24.7954 23.5147 24.6717 23.2564C24.5231 22.9809 24.339 22.7262 24.1239 22.4988C23.9043 22.2611 23.7326 21.9833 23.6181 21.6806C23.5188 21.3801 23.4723 21.0646 23.4805 20.7482C23.5096 20.0858 23.6312 19.4306 23.8418 18.8019C24.071 18.0321 24.3731 17.2859 24.7439 16.5734C24.7836 16.4965 24.6647 16.4266 24.6251 16.5058L24.6297 16.4872Z" fill="#090909"/>
<path d="M24.287 7.90675C23.702 8.83915 23.0796 9.89277 23.3733 11.028C23.5351 11.5203 23.7395 11.9976 23.984 12.4545C24.2337 12.9338 24.3305 13.478 24.2614 14.014C24.0656 15.1795 23.1612 16.021 22.5365 16.9627C21.9826 17.7877 21.7043 18.7669 21.7416 19.7599C21.7757 20.7226 22.1008 21.6524 22.674 22.4266C22.7439 22.5198 22.8162 22.6107 22.8931 22.6993C22.97 22.7879 23.0493 22.6667 22.991 22.6014C22.3649 21.8675 21.9835 20.9564 21.8999 19.9953C21.8163 19.0343 22.0348 18.0711 22.5248 17.2401C23.1076 16.282 23.9817 15.4965 24.315 14.3963C24.4729 13.8895 24.4648 13.3456 24.2917 12.8438C24.1262 12.3613 23.8628 11.9231 23.667 11.4452C23.5664 11.2117 23.4952 10.9666 23.4549 10.7156C23.4191 10.438 23.4325 10.1564 23.4945 9.88344C23.6359 9.33135 23.8683 8.80667 24.1822 8.33099C24.2567 8.20978 24.3313 8.0979 24.4153 7.96736C24.4619 7.89277 24.343 7.82284 24.2964 7.89743L24.287 7.90675Z" fill="#090909"/>
<path d="M20.6394 16.7273C20.6138 17.3916 20.8166 18.0303 20.9285 18.6783C20.9928 19.0052 21.0085 19.3398 20.9751 19.6713C20.9325 19.966 20.8403 20.2513 20.7024 20.5152C20.4436 21.0373 20.0823 21.5035 19.8329 22.0303C19.5659 22.5999 19.4726 23.2355 19.5648 23.8578C19.6859 24.5921 19.9286 25.3012 20.2828 25.9557C20.3224 26.035 20.4436 25.9557 20.4017 25.8858C19.8259 24.7413 19.362 23.38 19.9355 22.1399C20.1686 21.6177 20.5322 21.1585 20.7956 20.648C20.9265 20.4002 21.0237 20.136 21.0846 19.8625C21.1407 19.5547 21.1478 19.24 21.1056 18.9301C21.0147 18.1981 20.7513 17.4849 20.7793 16.7413C20.7793 16.6504 20.6441 16.6527 20.6418 16.7413L20.6394 16.7273Z" fill="#090909"/>
<path d="M41.8184 10.4196C42.1004 11.62 42.8626 12.7319 42.7508 14.007C42.7267 14.3374 42.6235 14.6571 42.4501 14.9394C42.4442 14.9548 42.4439 14.9719 42.4494 14.9875C42.4549 15.0031 42.4657 15.0162 42.4799 15.0246C42.4942 15.033 42.5109 15.0361 42.5272 15.0333C42.5435 15.0304 42.5583 15.022 42.5689 15.0093C43.2682 13.9021 42.7274 12.5687 42.3055 11.4732C42.1658 11.1184 42.0498 10.7547 41.9582 10.3846C41.9559 10.3759 41.9519 10.3677 41.9465 10.3605C41.941 10.3533 41.9342 10.3473 41.9264 10.3427C41.9186 10.3382 41.91 10.3352 41.9011 10.334C41.8921 10.3328 41.883 10.3333 41.8743 10.3356C41.8656 10.3379 41.8574 10.3419 41.8502 10.3474C41.843 10.3528 41.837 10.3597 41.8325 10.3675C41.8279 10.3752 41.8249 10.3839 41.8237 10.3928C41.8225 10.4017 41.8231 10.4108 41.8254 10.4196H41.8184Z" fill="#090909"/>
<path d="M42.7258 20.014C42.5293 20.8246 42.5913 21.6763 42.903 22.4499C43.2293 23.2587 43.8563 23.8648 44.3249 24.5874C44.6038 24.9849 44.7763 25.4471 44.826 25.9301C44.826 26.0187 44.9682 26.0187 44.9636 25.9301C44.9123 25.0793 44.3738 24.387 43.8703 23.7413C43.5944 23.4079 43.3524 23.0479 43.1477 22.6667C42.9613 22.2858 42.8377 21.8773 42.7818 21.4569C42.7218 20.9899 42.7479 20.5159 42.8587 20.0583C42.8797 19.972 42.7468 19.9347 42.7258 20.021V20.014Z" fill="#090909"/>
<path d="M11.171 36.1702C11.6363 36.6287 12.0679 37.1203 12.4624 37.641C12.9349 38.2416 13.37 38.8706 13.7654 39.5245C14.0788 40.0308 14.3389 40.5683 14.5416 41.1282C14.7025 41.5944 14.854 42.0606 15.0078 42.5152C15.3963 43.7366 15.7693 44.9627 16.1267 46.1935C16.4297 47.2354 16.7351 48.2914 16.9822 49.3357C17.0171 49.4872 17.0521 49.6387 17.0801 49.8019C17.1075 49.9925 17.1208 50.185 17.1197 50.3776C17.1489 51.0184 17.1302 51.6604 17.0638 52.2984C17.0506 52.4237 17.0303 52.5482 17.0032 52.6713C16.9845 52.7576 17.1174 52.7949 17.136 52.7086C17.1942 52.4236 17.2293 52.1344 17.2409 51.8438C17.2619 51.5082 17.2689 51.1725 17.2666 50.8392C17.2796 50.4153 17.2491 49.9911 17.1756 49.5734C16.9659 48.5851 16.6768 47.6131 16.3971 46.641C16.0366 45.3823 15.6589 44.1282 15.2642 42.8788C14.9472 41.8741 14.6582 40.8438 14.15 39.9161C13.781 39.254 13.3675 38.6177 12.9122 38.0117C12.4964 37.4405 12.0457 36.8955 11.5626 36.38C11.467 36.2797 11.3715 36.1842 11.2736 36.0909C11.1756 35.9977 11.1127 36.1259 11.1756 36.1865L11.171 36.1702Z" fill="#412B71"/>
<path d="M22.1918 49.7296C21.7769 49.951 21.3666 50.1818 20.9564 50.4079C20.2307 50.8089 19.5065 51.2106 18.7839 51.6131C18.0893 51.9969 17.3954 52.3854 16.7023 52.7786C16.2011 53.0559 15.7046 53.3357 15.2011 53.6084C14.6976 53.8811 14.1429 54.1702 13.6277 54.4755C13.0836 54.7995 12.5612 55.1585 12.0636 55.5501L11.637 55.8998C11.5694 55.9557 11.6673 56.0536 11.7349 55.9977C12.2505 55.5596 12.7957 55.1577 13.3666 54.7949C13.8631 54.4825 14.3783 54.2028 14.8958 53.9254C15.4599 53.6224 16.0217 53.31 16.5834 52.993L18.5834 51.8835L20.7932 50.6597C21.2594 50.4009 21.7256 50.1422 22.1918 49.8904L22.2571 49.8531C22.3363 49.8112 22.2571 49.6923 22.1895 49.7343L22.1918 49.7296Z" fill="#412B71"/>
<path d="M16.6367 52.1422C15.1112 51.6487 13.4908 51.5217 11.9071 51.7716C11.8208 51.7855 11.8558 51.9184 11.9444 51.9044C13.5059 51.6592 15.1032 51.7862 16.6064 52.275C16.6903 52.303 16.7276 52.1702 16.6437 52.1422H16.6367Z" fill="#412B71"/>
<path d="M26.807 52.3753C26.6136 55.5967 25.1404 58.5338 23.5739 61.2914C23.568 61.3068 23.5678 61.3239 23.5733 61.3395C23.5787 61.3551 23.5896 61.3682 23.6038 61.3766C23.6181 61.385 23.6348 61.3881 23.6511 61.3853C23.6674 61.3825 23.6822 61.374 23.6928 61.3613C25.2709 58.5804 26.7511 55.6224 26.9446 52.3753C26.9446 52.2867 26.8117 52.2867 26.807 52.3753Z" fill="#412B71"/>
<path d="M26.9045 20.4709C26.7188 20.9068 26.623 21.3758 26.623 21.8497C26.623 22.3235 26.7188 22.7925 26.9045 23.2285C26.9395 23.31 27.0584 23.2285 27.0234 23.1609C26.848 22.7464 26.7576 22.3009 26.7576 21.8508C26.7576 21.4008 26.848 20.9553 27.0234 20.5408C27.0584 20.4592 26.9395 20.3893 26.9045 20.4709Z" fill="#090909"/>
<path d="M26.0612 20.4755L25.7185 21.3753C25.6033 21.6428 25.5166 21.9218 25.4598 22.2075C25.3759 22.7716 25.6486 23.2587 25.926 23.7203C25.9726 23.7972 26.0915 23.7203 26.0449 23.6527C25.7581 23.1865 25.4854 22.7203 25.5996 22.1515C25.6668 21.8766 25.7565 21.6076 25.8677 21.3473L26.1847 20.5128C26.2174 20.4289 26.0845 20.3939 26.0518 20.4755H26.0612Z" fill="#090909"/>
<path d="M37.8609 6.35664C38.3132 6.82284 38.2106 7.52214 38.115 8.0909L37.7794 10.0816C37.7654 10.1678 37.8982 10.2051 37.9122 10.1189C38.0311 9.41958 38.1453 8.70163 38.2689 7.993C38.3644 7.40326 38.4134 6.72261 37.9588 6.25874C37.9454 6.24864 37.9287 6.24373 37.9119 6.24493C37.8951 6.24612 37.8793 6.25333 37.8674 6.26523C37.8555 6.27714 37.8483 6.29293 37.8471 6.30972C37.8459 6.32651 37.8508 6.34317 37.8609 6.35664Z" fill="#090909"/>
<path d="M37.187 49.9953C36.1567 49.622 35.0573 49.478 33.9656 49.5734C33.6624 49.5999 33.3611 49.645 33.0635 49.7086C32.9749 49.7273 33.0122 49.8601 33.0985 49.8415C34.147 49.62 35.2312 49.6295 36.2756 49.8695C36.5721 49.9372 36.8641 50.0236 37.1497 50.1282C37.2337 50.1585 37.2686 50.0256 37.187 49.9953Z" fill="#7A3025"/>
<path d="M36.159 52.5828C36.0257 52.4073 35.8307 52.289 35.6135 52.2517C35.343 52.1867 35.0679 52.1423 34.7907 52.1189C34.2122 52.0659 33.6291 52.095 33.0587 52.2051C32.9725 52.2214 33.0098 52.3543 33.096 52.338C33.622 52.2375 34.159 52.2077 34.6928 52.2494C34.9593 52.2687 35.2242 52.3068 35.4853 52.3636C35.7008 52.3842 35.8998 52.4878 36.0401 52.6527C36.089 52.7273 36.2079 52.6527 36.159 52.5828Z" fill="#7A3025"/>
<path d="M34.6019 54.1982C33.9149 54.3859 33.213 54.5145 32.504 54.5828C32.4178 54.5828 32.4155 54.7273 32.504 54.7203C33.2232 54.6513 33.9352 54.521 34.6322 54.331C34.6473 54.324 34.6593 54.3119 34.6662 54.2968C34.6731 54.2817 34.6745 54.2647 34.67 54.2487C34.6655 54.2328 34.6555 54.2189 34.6418 54.2097C34.628 54.2004 34.6114 54.1963 34.5949 54.1982H34.6019Z" fill="#7A3025"/>
<path d="M20.6575 50.042C20.3125 48.3194 19.9582 46.5991 19.6295 44.8741C19.3707 43.5268 19.1237 42.1772 18.9022 40.8229C18.7787 40.0816 18.6691 39.338 18.5526 38.5968L18.4617 37.9954C18.4453 37.8951 18.4314 37.7949 18.4174 37.6947C18.4174 37.6434 18.401 37.5921 18.3941 37.5408C18.3945 37.4926 18.3874 37.4446 18.3731 37.3986C18.3731 37.4173 18.3544 37.4266 18.3731 37.3986L18.415 37.366C18.4719 37.3268 18.5319 37.2925 18.5945 37.2634C19.1364 37.0024 19.6911 36.769 20.2565 36.5641C20.7064 36.3893 21.1633 36.2285 21.6108 36.0466C21.6704 36.0169 21.7167 35.966 21.7409 35.904C21.765 35.8419 21.7652 35.7731 21.7414 35.711C21.7087 35.6317 21.6178 35.6014 21.5502 35.5641L21.1866 35.3776C20.2705 34.9114 19.3101 34.5525 18.4127 34.056C18.3171 34.0047 18.2589 33.9651 18.2728 33.8508C18.2868 33.7366 18.3031 33.683 18.3171 33.5991C18.3521 33.38 18.3917 33.1585 18.436 32.9371C18.523 32.5082 18.6295 32.0824 18.7554 31.6597C18.8253 31.4266 18.9022 31.1935 18.9885 30.9487C19.0164 30.8648 18.8836 30.8275 18.8556 30.9114C18.6994 31.3776 18.5572 31.8438 18.4407 32.31C18.3358 32.7389 18.2589 33.1725 18.1819 33.6061C18.1586 33.7459 18.0864 33.9301 18.1819 34.056C18.2431 34.123 18.3177 34.1762 18.401 34.2121C18.5199 34.2774 18.6341 34.3403 18.7647 34.4033C19.2309 34.6364 19.6971 34.8415 20.1633 35.0513C20.6295 35.2611 21.0957 35.4825 21.5619 35.7296C21.6085 35.7529 21.6318 35.7553 21.6341 35.8089C21.6358 35.8423 21.6277 35.8755 21.6108 35.9044C21.5829 35.9417 21.5106 35.9534 21.4686 35.9697L21.2612 36.0466L20.5619 36.31C19.9325 36.5431 19.2962 36.7879 18.6831 37.0723C18.5466 37.1253 18.418 37.1967 18.3008 37.2844C18.2683 37.3106 18.2466 37.348 18.2402 37.3893C18.2454 37.4796 18.2587 37.5694 18.2798 37.6574L18.3288 37.9907C18.443 38.7646 18.5619 39.5385 18.6831 40.31C18.9022 41.6713 19.1493 43.0303 19.401 44.3846C19.7157 46.0303 20.0467 47.6713 20.3754 49.3147L20.5293 50.0769C20.5456 50.1632 20.6784 50.1282 20.6621 50.0396L20.6575 50.042Z" fill="#412B71"/>
<path d="M37.6303 57.9208C38.4295 55.8692 39.1151 53.7751 39.6839 51.648C40.3272 49.352 40.903 47.0373 41.4764 44.725C41.9846 42.6783 42.4811 40.6271 43.0592 38.5967C43.1773 38.1818 43.3016 37.7669 43.4321 37.352C43.4601 37.2611 43.4881 37.1702 43.5184 37.0793C43.5347 37.028 43.5603 36.9814 43.537 36.9277C43.4987 36.8747 43.445 36.8348 43.3832 36.8135C43.087 36.6805 42.7826 36.5668 42.4718 36.4732C41.9123 36.2844 41.3552 36.1002 40.7981 35.9068L40.551 35.8205C40.5207 35.8205 40.4438 35.7995 40.4228 35.7762C40.3552 35.704 40.4228 35.6993 40.4648 35.6713L40.931 35.4103C41.22 35.2494 41.5137 35.0933 41.8051 34.9441C42.3948 34.6224 42.9706 34.2727 43.5324 33.9184C43.6116 33.8718 43.6955 33.8252 43.7118 33.7273C43.7168 33.6742 43.7062 33.6207 43.6816 33.5734C43.6419 33.4685 43.6186 33.3567 43.5883 33.2471C43.4951 32.9021 43.4018 32.5478 43.3063 32.2121C43.1617 31.6923 43.0172 31.1725 42.8401 30.6597C42.7911 30.5128 42.7398 30.366 42.6792 30.2238C42.6443 30.1422 42.5254 30.2121 42.5603 30.2914C42.7137 30.6801 42.843 31.0779 42.9473 31.4825C43.1314 32.1142 43.3063 32.7529 43.4764 33.3893C43.4951 33.4616 43.5137 33.5338 43.5394 33.6037C43.5836 33.718 43.5394 33.7436 43.4578 33.7995C43.3016 33.8951 43.1501 34 42.9916 34.0956C42.7095 34.2727 42.4205 34.4382 42.1291 34.6014C41.558 34.9208 40.9776 35.2238 40.4065 35.5478C40.3226 35.5967 40.227 35.6434 40.2223 35.7529C40.2177 35.8625 40.3319 35.9044 40.4251 35.9371L41.4135 36.2774C41.8797 36.4359 42.3459 36.5874 42.8121 36.7436C43.0181 36.7959 43.2147 36.8801 43.3948 36.993C43.3785 36.9767 43.3948 36.9487 43.3785 36.993C43.3622 37.0373 43.3505 37.0839 43.3366 37.1282C43.3063 37.2261 43.2736 37.3217 43.2433 37.4196C43.1804 37.6224 43.1198 37.8252 43.0592 38.0303C42.4811 39.9884 41.9962 41.972 41.5044 43.9534C40.9356 46.2471 40.3715 48.5408 39.7491 50.8205C39.1617 52.972 38.5324 55.1189 37.7398 57.2051C37.6559 57.4382 37.5673 57.6527 37.4787 57.8741C37.4461 57.9557 37.579 57.993 37.6116 57.9114L37.6303 57.9208Z" fill="#412B71"/>
<path d="M58.8978 54.2191C57.9351 50.5501 55.5482 46.5455 54.4689 42.9068C53.8186 40.7016 53.3501 38.4173 52.3454 36.3357C51.2825 34.1375 49.6508 32.9534 47.4107 32.0513C47.364 31.9744 46.8512 33.7203 46.7603 34.4056C46.6041 35.5711 46.5272 36.7576 46.434 37.9371C46.2545 40.3683 46.3547 50.4056 46.5832 51.641C47.0074 53.9464 46.9398 56.6177 47.8862 58.8671C48.8326 61.1166 51.5459 65.1795 53.8326 65.4499C57.9864 65.9394 60.1449 62.8858 60.082 59.8765C60.0517 58.3683 59.2755 55.6574 58.8978 54.2191Z" fill="#7F64B1"/>
<path d="M51.3269 36.289C50.5973 36.8601 50.1731 37.8508 49.8048 38.6713C49.2871 39.8514 48.8327 41.0583 48.4435 42.2867C48.1101 43.3007 47.8071 44.3217 47.5111 45.345C47.1031 46.7552 46.6999 48.1772 46.6206 49.6503C46.5507 50.965 46.7745 52.31 46.919 53.6131C46.919 53.6993 47.0682 53.7016 47.0565 53.6131C46.9423 52.5641 46.8024 51.5152 46.7558 50.4569C46.6812 48.8089 47.1195 47.1935 47.574 45.627C48.1578 43.4803 48.8621 41.3682 49.6836 39.3007C49.9288 38.694 50.213 38.1038 50.5344 37.5338C50.7566 37.0991 51.0596 36.7107 51.4271 36.3893C51.4971 36.3357 51.3992 36.2378 51.3293 36.2914L51.3269 36.289Z" fill="#412B71"/>
<path d="M61.3361 51.7063C60.4918 50.1076 59.1868 48.7994 57.5902 47.9511C57.2773 47.8522 56.9529 47.7943 56.6252 47.7786C54.7604 47.69 52.0354 48.5361 51.6508 50.2005C51.5762 50.5198 51.5902 50.352 51.6904 50.6667C51.8168 51.0633 51.9831 51.446 52.1869 51.8089C52.5723 52.5013 53.0848 53.115 53.6974 53.6177C54.333 54.1175 55.0519 54.5011 55.821 54.7506C56.6298 55.0303 57.5156 55.2448 58.3618 55C59.2079 54.7552 60.1496 55.1981 60.5319 54.4289C60.7417 54.0047 61.6135 53.9627 61.7837 53.5338C61.8513 53.38 61.4946 52.014 61.3361 51.7063Z" fill="#765BA7"/>
<path d="M58.912 51.4126C58.5901 50.939 58.2041 50.5123 57.7652 50.1445C57.4062 50.6364 57.1521 51.2098 56.8095 51.7133C56.4241 52.2489 56.0685 52.8053 55.7442 53.38C55.5289 53.7452 55.3761 54.1439 55.292 54.5595C55.4668 54.6317 55.6416 54.697 55.8211 54.7599C56.63 55.0396 57.5158 55.2541 58.3619 55.0093C59.2081 54.7646 60.0566 55.1608 60.4598 54.5431C60.3418 54.1557 60.1946 53.7777 60.0193 53.4126C59.7329 52.7034 59.3611 52.0317 58.912 51.4126Z" fill="#3A3A3A"/>
<path d="M62.8188 41.2051C62.507 41.3006 62.2132 41.4471 61.9493 41.6387C61.9027 41.6713 61.8537 41.6037 61.898 41.5641C62.7302 40.8112 64.201 40.2471 63.961 38.8531C63.884 38.4173 63.4948 37.9394 63.0099 38.1096C62.9838 38.1202 62.9549 38.1221 62.9275 38.115C62.9002 38.1078 62.876 38.092 62.8584 38.0699L62.7745 38.1399C62.4225 38.4382 62.1544 39.2005 61.9959 39.3217C61.919 39.38 61.8048 39.4942 61.7045 39.4849C61.6906 39.4545 61.7045 39.4312 61.7279 39.4056C62.3945 38.662 62.5227 38.1305 63.1265 37.4406C63.4481 36.8951 63.7465 36.3147 63.7698 35.669C63.7736 35.5474 63.7666 35.4257 63.7488 35.3054C63.6625 34.9214 63.5456 34.5449 63.3992 34.1795C62.3712 34.8485 61.3013 36.4242 60.919 36.8228C60.6859 37.0559 60.4784 37.289 60.2616 37.5385C60.1871 37.6224 60.0006 37.9184 59.898 37.9441C59.8419 37.9488 59.7855 37.9388 59.7344 37.9151C59.6833 37.8914 59.6393 37.8548 59.6066 37.8089C59.5507 37.662 59.8188 37.4196 59.905 37.31C60.6323 36.3776 61.4062 35.4849 62.1964 34.6131C63.2873 33.4103 64.1334 32.7716 63.4948 31.1865C63.0286 30.021 60.7232 32.9837 59.9983 33.7086C59.4356 34.2703 58.9078 34.8658 58.4178 35.4918C57.9306 36.1119 57.5297 36.8135 57.0192 37.4009L56.7861 37.6737C56.1101 38.4429 55.4878 39.4522 54.4388 38.6783C54.2943 38.4009 54.1428 38.1282 54.0192 37.8625C53.6603 37.0979 53.7162 36.4825 53.5344 35.69L53.4947 35.7133C53.3269 35.8019 52.9003 36.0117 52.6906 35.8788C52.4662 35.9961 52.2133 36.0478 51.961 36.028C51.8747 36.028 51.9097 35.8228 51.905 35.7436C51.618 36.1383 51.4152 36.5878 51.3093 37.0642C51.2034 37.5406 51.1967 38.0337 51.2896 38.5128C51.4194 39.2833 51.6041 40.0436 51.8421 40.7879C52.0402 41.4709 52.2034 44.1399 53.0239 45.1981C53.164 45.3712 53.2376 45.5886 53.2313 45.8112C53.0868 48.6084 51.2057 52.4079 51.2477 53.0979C51.2617 53.331 56.3526 57.7063 57.3712 57.5734C57.6882 57.5175 58.1661 53.7949 58.2337 53.4546C58.6672 51.2238 59.1055 48.9907 59.4365 46.7436C59.4459 46.6388 59.4752 46.5368 59.5227 46.4429C59.9814 45.9023 60.4677 45.3857 60.9796 44.8951C61.6439 44.2797 63.5973 43.0979 63.7372 41.9277C63.8094 41.0909 63.2943 40.9977 62.8188 41.2051Z" fill="#AB5946"/>
<path d="M30.0032 83.1096C30.3552 83.373 30.6186 83.8089 30.896 84.1352C31.3738 84.711 31.7887 85.2681 31.9846 86C32.1459 86.7318 32.2549 87.4742 32.3109 88.2215C32.3901 88.8998 32.4601 89.5758 32.523 90.2541C32.523 90.3427 32.6675 90.3427 32.6605 90.2541C32.5906 89.5152 32.516 88.7762 32.4274 88.0373C32.3389 87.2984 32.2946 86.4755 32.0568 85.7483C31.8268 85.131 31.4793 84.5642 31.0335 84.0793C30.7328 83.7203 30.4554 83.2681 30.0755 82.986C30.0055 82.9324 29.9356 83.0536 30.0055 83.1049L30.0032 83.1096Z" fill="#3A3A3A"/>
<path d="M32.7159 64.9907C32.3056 64.5245 31.5644 64.5571 31.0003 64.5385C30.9332 64.5447 30.8708 64.5758 30.8255 64.6256C30.7801 64.6754 30.7549 64.7403 30.7549 64.8077C30.7549 64.8751 30.7801 64.94 30.8255 64.9898C30.8708 65.0396 30.9332 65.0707 31.0003 65.0769C31.4059 65.0886 31.8814 65.0606 32.2077 65.31C32.3827 65.4515 32.5017 65.6506 32.5434 65.8718C32.399 65.8625 32.2542 65.8625 32.1098 65.8718C32.0391 65.8735 31.9716 65.9023 31.9214 65.9521C31.8711 66.0019 31.8418 66.0691 31.8394 66.1398C31.84 66.2114 31.8687 66.2798 31.9193 66.3304C31.9699 66.381 32.0383 66.4096 32.1098 66.4102C32.2651 66.4012 32.4207 66.4012 32.576 66.4102C32.576 66.4545 32.576 66.4988 32.576 66.5408C32.4758 67.5198 31.5923 67.5524 30.8021 67.4499C30.4595 67.4056 30.4641 67.9441 30.8021 67.9883C31.9793 68.1399 33.0376 67.8158 33.1331 66.4802C33.1494 65.9907 33.0562 65.3753 32.7159 64.9907Z" fill="#F2D8C9"/>
<path d="M42.9051 63.7949C44.4729 66.0374 45.927 68.3574 47.2618 70.7459C47.2707 70.7617 47.2856 70.7733 47.3031 70.7781C47.3206 70.7829 47.3393 70.7805 47.355 70.7716C47.3708 70.7626 47.3823 70.7477 47.3872 70.7303C47.392 70.7128 47.3896 70.6941 47.3807 70.6783C46.0469 68.2897 44.5936 65.9697 43.0263 63.7273C42.9751 63.655 42.8562 63.7273 42.9051 63.7949Z" fill="#412B71"/>
<path d="M61.8748 52.8275C61.9121 52.1935 60.9424 51.0396 60.6067 50.5361C60.8119 51.0023 60.9952 51.4841 61.1568 51.9813C61.2431 52.2494 61.3224 52.5548 61.1825 52.7995C61.0513 52.9841 60.8615 53.1189 60.644 53.1818C59.2347 53.7934 57.6477 53.8566 56.1941 53.359C54.4226 52.8042 52.8748 51.2144 52.2035 49.5128C52.1102 49.2797 52.1592 48.8508 51.9937 48.9394C50.6813 49.6387 49.045 54.5058 49.1429 55.5408C49.2361 56.5105 50.5578 58.7529 51.024 59.5897C51.4902 60.4266 52.6114 64.8182 52.9471 64.951C54.3014 65.5012 55.9098 65.1725 57.2617 64.7319C58.5042 64.3287 59.3596 63.1002 59.8258 61.8438C60.3993 60.373 61.7839 54.3123 61.8748 52.8275Z" fill="#7F64B1"/>
<path d="M49.292 54.331C49.6411 53.3166 50.0698 52.3315 50.574 51.3846C50.9074 50.7343 51.2593 50.0956 51.623 49.4616C51.7445 49.2188 51.9451 49.0248 52.1917 48.9114L52.595 48.7226C52.6766 48.683 52.6067 48.5641 52.5251 48.6037C52.2524 48.7319 51.8934 48.8368 51.6952 49.0699C51.4507 49.4174 51.2385 49.7864 51.0612 50.1725C50.8724 50.5152 50.6859 50.8718 50.5064 51.2098C49.9744 52.1971 49.5238 53.2261 49.1591 54.2867C49.1311 54.3706 49.264 54.4079 49.292 54.324V54.331Z" fill="#412B71"/>
<path d="M35.6413 31.359C32.9935 32.274 30.1671 32.5512 27.3919 32.1678C27.3057 32.1562 27.2684 32.289 27.3546 32.3007C30.1541 32.691 33.0062 32.4147 35.6786 31.4942C35.7602 31.4662 35.7253 31.3333 35.6413 31.3613V31.359Z" fill="#3A3A3A"/>
<path d="M50.7902 49.8229C49.9913 49.9646 49.2528 50.3411 48.669 50.9044C48.6037 50.9674 48.7016 51.0653 48.7669 51.0023C49.335 50.4572 50.0522 50.0929 50.8275 49.9557C50.9161 49.9394 50.8788 49.8065 50.7902 49.8229Z" fill="#412B71"/>
<path d="M62.5808 45.021C62.6321 44.3356 62.5063 30.5687 62.3291 28.9021C62.2836 28.7882 62.2071 28.6893 62.1081 28.6168C62.0092 28.5443 61.892 28.501 61.7697 28.4918C59.9888 28.5384 54.3221 28.5967 53.7487 28.6666C53.448 28.7016 52.9445 28.7016 52.6881 28.9277C52.3454 29.2308 52.3874 29.4895 52.3874 29.9184C52.3874 33.979 52.5785 43.2307 52.6018 43.8834C52.5899 44.3804 52.6156 44.8775 52.6787 45.3706C52.7883 45.9254 53.3034 45.9883 53.7417 46.0559C54.0937 46.1072 60.4387 45.9883 62.1659 45.7785C62.5016 45.7389 62.5435 45.5198 62.5808 45.021Z" fill="#003C75"/>
<path d="M61.8767 44.5221C61.893 43.5571 61.8324 32.4009 61.6553 29.7459C61.6553 29.6173 61.6047 29.4938 61.5144 29.4022C61.4241 29.3106 61.3014 29.2582 61.1727 29.2564C60.5993 29.2704 59.3662 29.2914 58.2916 29.3054C58.2452 29.307 58.1998 29.3196 58.1592 29.3423C58.1187 29.365 58.0842 29.3971 58.0585 29.4359C57.8977 29.669 57.8254 29.8601 57.5457 29.9021C57.1727 29.9627 56.6739 29.9417 56.5317 29.4545C56.5106 29.412 56.4769 29.3768 56.4353 29.3539C56.3936 29.331 56.3459 29.3214 56.2986 29.3263C55.1331 29.3427 54.4152 29.3543 54.2007 29.38C53.9327 29.4149 53.4874 29.4126 53.2683 29.6131C52.9653 29.8904 53.0003 30.1282 53.0003 30.5221C52.9863 34.2517 53.1355 42.8928 53.1541 43.4918C53.1488 43.8937 53.1776 44.2953 53.2403 44.6923C53.3359 45.2028 53.7928 45.2611 54.1727 45.3217C54.4828 45.3706 60.0259 45.3473 61.5574 45.1562C61.8278 45.1282 61.8721 44.7552 61.8767 44.5221Z" fill="#F2F7FA"/>
<path d="M54.4338 40.1702C54.3965 40.1702 54.3662 40.1282 54.3662 40.0769C54.3662 40.0256 54.3942 39.979 54.4338 39.979L60.4804 39.8182C60.5177 39.8182 60.5504 39.8601 60.5504 39.9137C60.5504 39.9674 60.5201 40.0093 60.4828 40.0116L54.4361 40.1702H54.4338Z" fill="#3A3A3A"/>
<path d="M54.4713 41.3823C54.434 41.3823 54.4014 41.3403 54.4014 41.289C54.4014 41.2378 54.4317 41.1935 54.469 41.1911L60.5156 41.0303C60.5529 41.0303 60.5832 41.0723 60.5832 41.1259C60.5866 41.1477 60.5816 41.1701 60.569 41.1883C60.5564 41.2066 60.5373 41.2193 60.5156 41.2238L54.469 41.3823H54.4713Z" fill="#3A3A3A"/>
<path d="M54.5318 42.6037C54.4945 42.6037 54.4619 42.5618 54.4619 42.5105C54.4619 42.4592 54.4922 42.4126 54.5295 42.4126L60.5761 42.2517C60.6204 42.2517 60.6461 42.2937 60.6461 42.345C60.6461 42.3963 60.6181 42.4429 60.5785 42.4429L54.5318 42.6037Z" fill="#3A3A3A"/>
<path d="M55.6922 32.7576C53.8997 33.944 53.7039 36.7925 55.4778 38.0816C57.1491 39.2937 59.5827 38.5058 60.3729 36.683C61.5687 33.9067 58.3379 31.0023 55.6922 32.7576Z" fill="#085900"/>
<path d="M56.096 35.2797C56.4068 35.9355 56.7082 36.5905 57.0004 37.2448C57.0134 37.2737 57.032 37.2998 57.0551 37.3215C57.0782 37.3433 57.1053 37.3602 57.135 37.3715C57.1646 37.3828 57.1962 37.3881 57.2279 37.3871C57.2596 37.3862 57.2908 37.379 57.3197 37.366C57.3487 37.353 57.3748 37.3344 57.3965 37.3113C57.4182 37.2882 57.4352 37.2611 57.4465 37.2314C57.4577 37.2017 57.4631 37.1702 57.4621 37.1385C57.4612 37.1068 57.454 37.0755 57.441 37.0466C57.1379 36.3939 56.8365 35.7397 56.5365 35.0839C56.5237 35.055 56.5052 35.0289 56.4823 35.0071C56.4593 34.9853 56.4323 34.9682 56.4028 34.9568C56.3732 34.9455 56.3417 34.94 56.3101 34.9408C56.2785 34.9417 56.2473 34.9487 56.2183 34.9615C56.1894 34.9744 56.1633 34.9928 56.1415 35.0158C56.1197 35.0387 56.1026 35.0657 56.0913 35.0953C56.0799 35.1248 56.0745 35.1563 56.0753 35.188C56.0761 35.2196 56.0831 35.2508 56.096 35.2797Z" fill="#FBFBFB"/>
<path d="M58.376 33.5198L57.8562 34.8578C57.6604 35.3566 57.4646 35.8578 57.2711 36.3566C57.1779 36.5897 57.087 36.8228 56.9961 37.0559C56.9839 37.0855 56.9779 37.1173 56.9786 37.1493C56.9792 37.1813 56.9864 37.2128 56.9997 37.2419C57.0131 37.271 57.0323 37.297 57.0561 37.3183C57.0799 37.3397 57.1079 37.3559 57.1383 37.366C57.1983 37.3864 57.2639 37.3828 57.3213 37.3558C57.3787 37.3289 57.4234 37.2807 57.446 37.2214C57.6216 36.777 57.7956 36.331 57.9681 35.8834C58.1639 35.3846 58.3574 34.8834 58.5532 34.3846L58.8282 33.6853C58.8401 33.6558 58.8457 33.6243 58.8449 33.5926C58.8441 33.5608 58.8368 33.5296 58.8235 33.5008C58.8102 33.472 58.7911 33.4462 58.7675 33.425C58.7438 33.4038 58.7161 33.3877 58.6861 33.3776C58.6565 33.3654 58.6247 33.3595 58.5927 33.3601C58.5607 33.3607 58.5292 33.3679 58.5001 33.3813C58.471 33.3946 58.445 33.4138 58.4237 33.4376C58.4023 33.4615 58.3861 33.4894 58.376 33.5198Z" fill="#FBFBFB"/>
<path d="M34.4128 10.5128C35.0189 10.7463 35.5138 11.2012 35.7974 11.7855C35.8347 11.8648 35.9536 11.7855 35.9163 11.7156C35.6154 11.1 35.091 10.6223 34.4501 10.3799C34.3685 10.3473 34.3312 10.4825 34.4128 10.5128Z" fill="#090909"/>
<path d="M63.4855 35.2424C63.5467 35.1959 63.5915 35.131 63.6133 35.0572C63.6351 34.9834 63.6328 34.9046 63.6067 34.8322C63.5111 34.5291 63.306 33.8065 62.9563 33.5198C63.0141 33.517 63.0704 33.5006 63.1206 33.4718C63.1708 33.443 63.2135 33.4027 63.2451 33.3543C63.2767 33.3058 63.2964 33.2506 63.3025 33.193C63.3087 33.1355 63.3011 33.0773 63.2803 33.0233C63.2803 32.9977 63.2617 32.972 63.2547 32.9464C63.3666 32.8835 63.6253 32.6131 63.623 32.4429C63.623 31.9767 63.5158 30.1539 62.4831 30.7086C62.1009 30.9138 62.1335 31.3753 62.1615 31.7483C62.203 32.2582 62.3111 32.7606 62.4831 33.2424C62.5036 33.3038 62.5379 33.3596 62.5834 33.4056C62.5264 33.4154 62.4713 33.4343 62.4202 33.4615C61.7652 33.7995 61.954 34.9301 62.0962 35.4849C62.2081 35.9301 62.6533 37.0839 63.3176 36.6014C63.6137 36.387 63.5507 35.9767 63.5321 35.669C63.5204 35.5198 63.5041 35.3823 63.4855 35.2424Z" fill="#AB5946"/>
<path d="M63.9517 38.7879C63.8165 38.3217 63.2104 37.0373 62.4971 37.331C61.8351 37.6037 62.0309 38.627 62.1755 39.1445C62.2455 39.4256 62.3716 39.6896 62.5461 39.9208C62.5129 39.9238 62.4801 39.93 62.4482 39.9394C61.8258 40.1166 61.996 41.338 62.2151 41.7879C62.4086 42.1981 62.9144 42.8718 63.4901 42.5128C63.6976 42.3846 63.8701 41.5991 63.6789 41.1002C63.5532 40.7492 63.36 40.4261 63.1102 40.1492C63.1712 40.1393 63.2295 40.1168 63.2813 40.0831C63.333 40.0494 63.3772 40.0052 63.4109 39.9534C63.5136 39.7279 63.531 39.4728 63.4598 39.2354C63.637 39.1608 64.0216 39.028 63.9517 38.7879Z" fill="#AB5946"/>
<path d="M52.215 35.5594C52.1429 35.5601 52.0723 35.5794 52.0098 35.6153C51.9473 35.6512 51.8952 35.7026 51.8583 35.7646C51.6252 36.1212 51.6532 36.6061 51.7162 37.0047C51.7225 37.0853 51.7589 37.1606 51.8179 37.2158C51.877 37.271 51.9546 37.3021 52.0355 37.303C51.9959 37.5804 51.9399 37.8555 51.877 38.1305C51.8001 38.4569 52.0215 38.9674 52.3315 38.7879C52.7604 38.5431 52.891 37.4242 52.9213 36.9977C52.9586 36.4546 52.9353 35.6037 52.215 35.5594Z" fill="#AB5946"/>
</svg>
