<svg width="64" height="64" viewBox="0 0 64 64" fill="none" xmlns="http://www.w3.org/2000/svg">
<path opacity="0.05" d="M32 64C49.6731 64 64 49.6731 64 32C64 14.3269 49.6731 0 32 0C14.3269 0 0 14.3269 0 32C0 49.6731 14.3269 64 32 64Z" fill="#383838"/>
<path d="M44.9109 40.2457C44.9109 40.2457 41.9635 38.4314 43.2112 27.7627C43.2112 27.7627 43.2112 22.4284 40.2637 18.5708C40.2637 18.5708 40.0347 11.4222 36.9727 14.9422C36.9727 14.9422 34.7064 18.4623 37.8829 22.4284L23.019 34.1157C23.019 34.1157 24.4958 37.7443 27.3287 39.6731C27.3287 39.6731 31.8674 42.735 32.7776 46.2551L44.917 40.2397L44.9109 40.2457Z" fill="white"/>
<path opacity="0.4" d="M44.9108 40.366C44.9108 40.366 42.6866 38.377 43.9343 27.6601C43.9343 27.6601 43.7836 21.9279 40.2575 18.5947C40.2575 18.5947 40.0285 10.9398 36.9665 14.4719C36.9665 14.4719 35.2005 17.7509 36.4904 21.6627L23.0068 34.2059C23.0068 34.2059 23.8627 38.7025 26.4063 40.0828C27.5998 40.7277 28.6667 40.7759 29.6431 41.7162C30.9089 42.9338 32.3012 44.6094 32.7654 46.4056L44.9047 40.366H44.9108Z" fill="#FFAA64"/>
<path d="M23.0132 34.7485C23.0132 34.7485 23.9836 39.5585 28.1305 40.9569C28.1305 40.9569 31.2588 42.4035 32.3679 46.4057" stroke="#863399" stroke-width="0.906384" stroke-miterlimit="10"/>
<path d="M37.8767 22.4282C37.8767 22.4282 32.7412 14.4418 38.6783 13.9957C38.6783 13.9957 40.0647 13.0313 40.2575 18.5706C40.2575 18.5706 42.1381 20.198 43.9343 26.0688L37.8767 22.4282Z" fill="white"/>
<path opacity="0.4" d="M37.8766 22.4283C37.8766 22.4283 32.5182 13.6643 38.4553 13.2183C38.4553 13.2183 40.1128 13.1158 40.4624 17.1602C40.5287 17.9318 40.806 18.6249 41.2581 19.2578C41.9693 20.2523 43.217 21.9822 43.9343 26.0629L37.8766 22.4222V22.4283Z" fill="#FFAA64"/>
<path d="M37.4732 22.5791C37.4732 22.5791 33.7121 15.7681 37.8349 13.6042C38.5763 13.2184 39.5105 13.5379 39.842 14.3034C40.0349 14.7554 40.2037 15.3883 40.282 16.2804C40.282 16.2804 40.9631 18.9506 41.7286 19.8246C42.4278 20.6323 44.7062 23.2241 43.772 31.1744C43.4887 33.5612 43.5429 35.9964 44.0854 38.3411C44.1637 38.6846 44.2542 39.0342 44.3566 39.3718" stroke="#863399" stroke-width="0.906384" stroke-linecap="round" stroke-linejoin="round"/>
<path d="M50.6432 46.8577L48.2864 41.5475C47.4064 39.8296 45.0677 39.2691 43.0666 40.2937L34.3328 44.7661C32.3316 45.7908 31.4215 48.015 32.2955 49.7328L36.3279 57.6107C36.3279 57.6107 41.0052 55.8326 45.1461 52.837C50.5347 48.9372 50.6492 46.8637 50.6492 46.8637L50.6432 46.8577Z" fill="#F58520" stroke="#F58520" stroke-width="1.20851" stroke-linecap="round" stroke-linejoin="round"/>
<path d="M33.8566 6.5459H22.1692C20.8776 6.5459 19.8306 7.59296 19.8306 8.88457V34.4532C19.8306 35.7448 20.8776 36.7919 22.1692 36.7919H33.8566C35.1482 36.7919 36.1952 35.7448 36.1952 34.4532V8.88457C36.1952 7.59296 35.1482 6.5459 33.8566 6.5459Z" fill="white"/>
<g opacity="0.1">
<path d="M36.1651 6.5459H19.8306V11.7054H36.1651V6.5459Z" fill="#863399"/>
</g>
<path d="M35.918 11.7051H20.3067C20.1503 11.7051 20.0234 11.8319 20.0234 11.9884V30.9027C20.0234 31.0591 20.1503 31.186 20.3067 31.186H35.918C36.0744 31.186 36.2013 31.0591 36.2013 30.9027V11.9884C36.2013 11.8319 36.0744 11.7051 35.918 11.7051Z" fill="white"/>
<path d="M36.1892 11.2473H19.8306V12.1575H36.1892V11.2473Z" fill="#863399"/>
<path d="M36.1711 30.3904H20.0234V31.3005H36.1711V30.3904Z" fill="#863399"/>
<g opacity="0.1">
<path d="M20.1139 31.0112H35.8818C36.0385 31.0112 36.1651 31.1378 36.1651 31.2945V34.9532C36.1651 35.9658 35.3454 36.7856 34.3327 36.7856H21.5303C20.59 36.7856 19.8306 36.0261 19.8306 35.0858V31.2945C19.8306 31.1378 19.9571 31.0112 20.1139 31.0112Z" fill="#863399"/>
</g>
<g opacity="0.12">
<path d="M32.9043 6.75686V36.5749C32.9043 36.6955 33.0007 36.7919 33.1213 36.7919H34.9416C35.6167 36.7919 36.1652 36.2434 36.1712 35.5683L36.2013 7.70921C36.2013 7.07029 35.683 6.5459 35.0441 6.5459H33.1273C33.0068 6.5459 32.9103 6.64234 32.9103 6.76289L32.9043 6.75686Z" fill="#383838"/>
</g>
<path d="M30.9573 8.50464H25.6471C25.3941 8.50464 25.189 8.70973 25.189 8.96273V9.24602C25.189 9.49902 25.3941 9.70411 25.6471 9.70411H30.9573C31.2103 9.70411 31.4154 9.49902 31.4154 9.24602V8.96273C31.4154 8.70973 31.2103 8.50464 30.9573 8.50464Z" fill="#863399"/>
<path d="M28.1303 35.3089C28.8826 35.3089 29.4925 34.699 29.4925 33.9467C29.4925 33.1944 28.8826 32.5845 28.1303 32.5845C27.3779 32.5845 26.7681 33.1944 26.7681 33.9467C26.7681 34.699 27.3779 35.3089 28.1303 35.3089Z" fill="#863399"/>
<path d="M34.4353 37.2438H21.5907C20.3671 37.2438 19.3726 36.2493 19.3726 35.0257V8.30577C19.3726 7.08218 20.3671 6.08765 21.5907 6.08765H34.4353C35.6589 6.08765 36.6534 7.08218 36.6534 8.30577V35.0257C36.6534 36.2493 35.6589 37.2438 34.4353 37.2438ZM21.5907 6.9978C20.8674 6.9978 20.2827 7.58247 20.2827 8.30577V35.0257C20.2827 35.749 20.8674 36.3336 21.5907 36.3336H34.4353C35.1586 36.3336 35.7432 35.749 35.7432 35.0257V8.30577C35.7432 7.58247 35.1586 6.9978 34.4353 6.9978H21.5907Z" fill="#863399"/>
<path d="M20.2837 11.5374L16.9325 9.60253C15.8024 8.95007 14.3573 9.33727 13.7048 10.4674C13.0524 11.5975 13.4396 13.0425 14.5697 13.695L17.9209 15.6298C19.051 16.2823 20.4961 15.8951 21.1485 14.765C21.801 13.6349 21.4138 12.1898 20.2837 11.5374Z" fill="white"/>
<path opacity="0.4" d="M20.2837 11.5374L16.9325 9.60253C15.8024 8.95007 14.3573 9.33727 13.7048 10.4674C13.0524 11.5975 13.4396 13.0425 14.5697 13.695L17.9209 15.6298C19.051 16.2823 20.4961 15.8951 21.1485 14.765C21.801 13.6349 21.4138 12.1898 20.2837 11.5374Z" fill="#FFAA64"/>
<path d="M20.2837 11.5374L16.9325 9.60253C15.8024 8.95007 14.3573 9.33727 13.7048 10.4674C13.0524 11.5975 13.4396 13.0425 14.5697 13.695L17.9209 15.6298C19.051 16.2823 20.4961 15.8951 21.1485 14.765C21.801 13.6349 21.4138 12.1898 20.2837 11.5374Z" stroke="#863399" stroke-width="0.906384" stroke-miterlimit="10"/>
<path d="M21.7212 17.8867L18.37 15.9519C17.2399 15.2994 15.7948 15.6866 15.1423 16.8167C14.4899 17.9468 14.8771 19.3919 16.0072 20.0444L19.3584 21.9792C20.4885 22.6316 21.9336 22.2444 22.586 21.1143C23.2385 19.9842 22.8513 18.5392 21.7212 17.8867Z" fill="white"/>
<path opacity="0.4" d="M21.7212 17.8867L18.37 15.9519C17.2399 15.2994 15.7948 15.6866 15.1423 16.8167C14.4899 17.9468 14.8771 19.3919 16.0072 20.0444L19.3584 21.9792C20.4885 22.6316 21.9336 22.2444 22.586 21.1143C23.2385 19.9842 22.8513 18.5392 21.7212 17.8867Z" fill="#FFAA64"/>
<path d="M21.2964 23.093L17.9452 21.1582C16.8151 20.5057 15.37 20.8929 14.7175 22.023C14.0651 23.1531 14.4523 24.5982 15.5824 25.2507L18.9336 27.1855C20.0637 27.8379 21.5087 27.4507 22.1612 26.3206C22.8137 25.1905 22.4265 23.7455 21.2964 23.093Z" fill="white"/>
<path opacity="0.4" d="M21.2964 23.093L17.9452 21.1582C16.8151 20.5057 15.37 20.8929 14.7175 22.023C14.0651 23.1531 14.4523 24.5982 15.5824 25.2507L18.9336 27.1855C20.0637 27.8379 21.5087 27.4507 22.1612 26.3206C22.8137 25.1905 22.4265 23.7455 21.2964 23.093Z" fill="#FFAA64"/>
<path d="M19.6915 26.8206L18.7049 26.251C17.5748 25.5985 16.1298 25.9857 15.4773 27.1158C14.8248 28.2459 15.212 29.691 16.3421 30.3434L17.3287 30.913C18.4588 31.5655 19.9039 31.1783 20.5563 30.0482C21.2088 28.9181 20.8216 27.473 19.6915 26.8206Z" fill="white"/>
<path opacity="0.4" d="M19.6915 26.8206L18.7049 26.251C17.5748 25.5985 16.1298 25.9857 15.4773 27.1158C14.8248 28.2459 15.212 29.691 16.3421 30.3434L17.3287 30.913C18.4588 31.5655 19.9039 31.1783 20.5563 30.0482C21.2088 28.9181 20.8216 27.473 19.6915 26.8206Z" fill="#FFAA64"/>
<path d="M21.7212 17.8867L18.37 15.9519C17.2399 15.2994 15.7948 15.6866 15.1423 16.8167C14.4899 17.9468 14.8771 19.3919 16.0072 20.0444L19.3584 21.9792C20.4885 22.6316 21.9336 22.2444 22.586 21.1143C23.2385 19.9842 22.8513 18.5392 21.7212 17.8867Z" stroke="#863399" stroke-width="0.906384" stroke-miterlimit="10"/>
<path d="M21.2964 23.093L17.9452 21.1582C16.8151 20.5057 15.37 20.8929 14.7175 22.023C14.0651 23.1531 14.4523 24.5982 15.5824 25.2507L18.9336 27.1855C20.0637 27.8379 21.5087 27.4507 22.1612 26.3206C22.8137 25.1905 22.4265 23.7455 21.2964 23.093Z" stroke="#863399" stroke-width="0.906384" stroke-miterlimit="10"/>
<path d="M17.8002 26.4964L19.9351 27.729C20.7494 28.1991 21.0274 29.2366 20.5573 30.0509C19.9063 31.1784 18.4572 31.5667 17.3297 30.9157L16.3431 30.3461C15.2156 29.6952 14.8273 28.246 15.4782 27.1185C15.9484 26.3042 16.9858 26.0262 17.8002 26.4964V26.4964Z" stroke="#863399" stroke-width="0.906384" stroke-miterlimit="10"/>
<path d="M35.2428 44.0427C35.2789 44.0246 35.3151 44.0065 35.3693 43.9824C35.3693 43.9824 33.0487 45.9293 33.8745 47.3156L38.0697 55.5191C38.2203 55.8144 37.7683 56.3448 37.045 56.7185C36.3217 57.0922 35.6647 57.1284 35.514 56.8331L31.1862 48.3825C30.6558 47.3458 32.5002 45.3145 35.2367 44.0487L35.2428 44.0427Z" fill="#C96A23"/>
<path d="M53.4339 50.9746L48.3346 41.1859C47.5752 39.5887 45.6403 38.9196 44.0129 39.6911L33.1936 44.8266C31.5661 45.5981 30.8609 47.5208 31.6143 49.1181L37.1777 59.9556" stroke="#863399" stroke-width="0.906384" stroke-linecap="round" stroke-linejoin="round"/>
</svg>
