<svg width="1024" height="269" viewBox="0 0 1024 269" fill="none" xmlns="http://www.w3.org/2000/svg">
<g clip-path="url(#clip0_351_99683)">
<path d="M0 0H1024V261C1024 265.418 1020.42 269 1016 269H8C3.58172 269 0 265.418 0 261V0Z" fill="url(#paint0_linear_351_99683)"/>
<g opacity="0.5">
<mask id="mask0_351_99683" style="mask-type:alpha" maskUnits="userSpaceOnUse" x="156" y="-414" width="924" height="924">
<path d="M638.52 94.3274C635.279 105.336 628.264 111.85 616.804 111.332C605.345 110.815 598.964 103.632 596.609 92.5567C596.251 95.4226 595.315 98.1859 593.856 100.679C592.397 103.171 590.447 105.341 588.123 107.056C584.229 109.941 579.423 111.318 574.592 110.932C569.82 110.564 565.327 108.536 561.894 105.201C558.461 101.866 556.305 97.4334 555.8 92.6737C554.714 81.9996 561.195 73.5805 573.64 70.0893C568.35 69.2931 563.523 66.6188 560.043 62.5557C556.71 58.6273 554.981 53.5873 555.199 48.4404C555.599 38.6015 561.546 31.9198 572.822 28.3951C570.128 27.4254 567.523 26.2237 565.037 24.8037C562.757 23.1415 560.726 21.1614 559.007 18.9237C557.131 16.6264 556.021 13.7991 555.833 10.8388C555.571 8.04843 555.718 5.23477 556.268 2.48661C557.295 -1.83252 559.728 -5.6883 563.183 -8.47573C566.639 -11.2632 570.922 -12.8245 575.361 -12.9149C585.5 -13.2322 592.867 -7.48594 596.609 4.00669C599.064 -5.448 604.777 -11.2611 614.666 -13.5997C607.717 -15.2702 602.789 -18.6946 599.799 -24.5077C597.565 -28.7993 596.971 -33.7581 598.129 -38.4559C599.23 -43.0138 601.878 -47.0484 605.623 -49.8707C609.367 -52.693 613.975 -54.128 618.66 -53.9309C623.345 -53.7337 627.816 -51.9165 631.31 -48.7896C634.804 -45.6626 637.105 -41.4198 637.818 -36.7855C638.988 -28.7506 635.647 -17.542 621.114 -13.5496C630.034 -11.4282 635.797 -6.28321 638.687 2.95433C640.558 -3.09267 643.582 -7.48593 648.459 -10.2589C650.742 -11.6825 653.286 -12.6373 655.941 -13.0675C658.597 -13.4977 661.312 -13.3947 663.927 -12.7645C668.18 -11.7097 672.002 -9.36715 674.873 -6.05722C677.743 -2.74729 679.521 1.36847 679.964 5.72727C680.493 10.7471 679.109 15.7818 676.088 19.8258C673.088 23.8657 668.864 26.8299 664.044 28.2782C668.188 29.5121 671.933 31.8168 674.902 34.9599C677.726 38.1765 679.645 42.0847 680.465 46.2855C681.952 40.4557 684.708 35.5112 689.886 32.2538C692.344 30.6326 695.133 29.5825 698.05 29.1807C700.967 28.7789 703.936 29.0356 706.741 29.932C711.151 31.2808 714.968 34.0962 717.559 37.9115C720.15 41.7267 721.36 46.3128 720.987 50.9096C720.615 55.5065 718.683 59.8381 715.512 63.1866C712.34 66.5351 708.12 68.6994 703.55 69.3209C692.609 70.6406 684.858 64.8608 680.398 51.7312C679.807 56.205 677.846 60.3861 674.783 63.7002C671.72 67.0143 667.706 69.2987 663.293 70.2396C669.974 72.2275 674.668 75.6686 677.575 81.2813C679.084 84.2576 679.848 87.5558 679.801 90.8925C679.754 94.2292 678.898 97.5046 677.306 100.437C675.714 103.37 673.434 105.873 670.661 107.73C667.888 109.587 664.706 110.743 661.388 111.099C650.531 112.034 643.064 106.622 638.52 94.3274ZM611.793 70.4401C602.89 66.4645 601.186 64.7105 596.308 54.8048C593.418 63.157 587.672 68.2518 578.484 70.1394C589.025 72.5616 594.888 78.642 596.609 88.815C597.143 84.6248 598.857 80.6727 601.551 77.4194C604.246 74.1661 607.809 71.7457 611.826 70.4401L611.793 70.4401ZM579.453 28.2615C583.385 29.0632 587.028 30.9109 589.997 33.6098C592.966 36.3087 595.152 39.7587 596.325 43.5961C597.308 41.3227 598.464 39.128 599.783 37.0313C601.282 34.9916 603.053 33.1652 605.044 31.6024C607.078 30.231 609.205 29.003 611.409 27.9274C603.407 25.0542 598.747 19.4583 596.542 10.9557C594.086 20.5775 588.39 25.9563 579.453 28.2615ZM623.436 70.39C627.143 71.5587 630.485 73.6665 633.137 76.5086C635.789 79.3508 637.661 82.8306 638.57 86.61C640.892 78.1576 646.154 72.7954 654.941 70.2062C651.223 69.3407 647.783 67.5502 644.942 65.0009C642.101 62.4516 639.949 59.226 638.687 55.6233C637.5 59.1185 635.497 62.2809 632.845 64.8487C630.193 67.4165 626.968 69.316 623.436 70.39V70.39ZM624.488 27.8272C627.492 29.5881 630.342 31.5998 633.008 33.8408C635.248 36.4433 637.255 39.2382 639.004 42.193C640.266 38.8044 642.319 35.7663 644.992 33.3314C647.665 30.8966 650.881 29.1354 654.373 28.1947C646.338 25.7725 641.276 20.661 638.62 12.2754C637.734 15.8337 635.979 19.1167 633.513 21.8307C631.046 24.5447 627.946 26.605 624.488 27.8272V27.8272Z" fill="#ACD9F3"/>
<path d="M701.144 -12.4459C706.461 -12.3462 711.52 -10.1387 715.208 -6.30899C718.897 -2.47928 720.914 2.6589 720.814 7.97524C720.714 13.2916 718.507 18.3506 714.677 22.0393C710.847 25.728 705.709 27.7443 700.393 27.6447C695.076 27.545 690.017 25.3375 686.329 21.5078C682.64 17.6781 680.624 12.5399 680.723 7.22355C680.823 1.90721 683.03 -3.15178 686.86 -6.84051C690.69 -10.5292 695.828 -12.5456 701.144 -12.4459V-12.4459Z" fill="#ACD9F3"/>
<path d="M700.81 110.445C696.879 110.458 693.032 109.306 689.755 107.135C686.478 104.964 683.917 101.87 682.397 98.2445C680.877 94.6191 680.465 90.6246 681.213 86.7651C681.961 82.9057 683.835 79.3543 686.6 76.5594C689.364 73.7645 692.895 71.8513 696.746 71.0613C700.597 70.2713 704.596 70.64 708.238 72.1208C711.88 73.6016 715.001 76.1281 717.208 79.3813C719.415 82.6346 720.609 86.4688 720.638 90.4C720.654 93.0184 720.153 95.6143 719.165 98.0391C718.176 100.464 716.72 102.67 714.878 104.532C713.037 106.393 710.847 107.874 708.433 108.888C706.019 109.903 703.429 110.432 700.81 110.445Z" fill="#ACD9F3"/>
<path d="M617.724 152.109C612.545 151.959 607.628 149.796 604.018 146.08C600.408 142.364 598.389 137.387 598.389 132.206C598.389 127.025 600.408 122.048 604.018 118.332C607.628 114.615 612.545 112.453 617.724 112.303C620.386 112.225 623.037 112.683 625.519 113.649C628.001 114.614 630.264 116.068 632.175 117.924C634.085 119.78 635.604 122 636.641 124.453C637.678 126.906 638.212 129.542 638.212 132.206C638.212 134.869 637.678 137.506 636.641 139.959C635.604 142.412 634.085 144.632 632.175 146.488C630.264 148.344 628.001 149.797 625.519 150.763C623.037 151.729 620.386 152.186 617.724 152.109V152.109Z" fill="#ACD9F3"/>
<path d="M554.58 49.1414C554.604 53.0814 553.455 56.9394 551.281 60.2255C549.108 63.5116 546.006 66.0776 542.371 67.5976C538.736 69.1176 534.731 69.5231 530.865 68.7626C526.999 68.002 523.447 66.1097 520.658 63.326C517.87 60.5424 515.972 56.9928 515.205 53.1281C514.438 49.2635 514.836 45.258 516.35 41.6204C517.864 37.9828 520.425 34.8772 523.707 32.6978C526.99 30.5184 530.846 29.3636 534.786 29.3801C540.019 29.415 545.029 31.5072 548.732 35.2047C552.436 38.9021 554.537 43.9082 554.58 49.1414V49.1414Z" fill="#ACD9F3"/>
<path d="M534.834 27.244C529.607 27.244 524.593 25.1672 520.896 21.4707C517.2 17.7741 515.123 12.7605 515.123 7.53277C515.123 2.30503 517.2 -2.70858 520.896 -6.40515C524.593 -10.1017 529.607 -12.1784 534.834 -12.1784C540.062 -12.1784 545.076 -10.1017 548.772 -6.40515C552.469 -2.70858 554.545 2.30503 554.545 7.53277C554.545 12.7605 552.469 17.7741 548.772 21.4707C545.076 25.1672 540.062 27.244 534.834 27.244Z" fill="#ACD9F3"/>
<path d="M639.439 132.147C639.488 126.919 641.611 121.925 645.342 118.263C649.073 114.6 654.106 112.57 659.334 112.619C664.562 112.668 669.556 114.791 673.218 118.522C676.88 122.253 678.91 127.286 678.861 132.514C678.837 135.103 678.303 137.661 677.291 140.043C676.278 142.426 674.805 144.585 672.958 146.398C669.227 150.06 664.194 152.09 658.966 152.042C653.739 151.993 648.744 149.869 645.082 146.138C641.42 142.407 639.39 137.374 639.439 132.147V132.147Z" fill="#ACD9F3"/>
<path d="M575.964 151.542C572.085 151.538 568.294 150.384 565.072 148.224C561.85 146.065 559.341 142.997 557.864 139.411C556.386 135.824 556.007 131.88 556.773 128.078C557.539 124.275 559.416 120.785 562.167 118.051C564.918 115.316 568.419 113.46 572.226 112.716C576.033 111.973 579.975 112.376 583.553 113.875C587.13 115.374 590.183 117.901 592.323 121.136C594.463 124.371 595.595 128.169 595.575 132.048C595.548 137.23 593.47 142.191 589.795 145.844C586.119 149.497 581.146 151.546 575.964 151.542V151.542Z" fill="#ACD9F3"/>
<path d="M515.175 90.6342C515.312 85.5382 517.43 80.6963 521.08 77.1366C524.729 73.5769 529.622 71.5796 534.72 71.5687C539.818 71.5579 544.719 73.5343 548.384 77.0784C552.048 80.6225 554.187 85.4552 554.346 90.5507C554.428 93.1706 553.984 95.7803 553.039 98.2253C552.094 100.67 550.669 102.901 548.846 104.785C547.024 106.669 544.842 108.168 542.43 109.194C540.018 110.22 537.425 110.752 534.804 110.757C532.182 110.763 529.587 110.242 527.17 109.227C524.754 108.211 522.566 106.721 520.735 104.845C518.905 102.969 517.47 100.744 516.515 98.3032C515.56 95.8622 515.104 93.2545 515.175 90.6342V90.6342Z" fill="#ACD9F3"/>
<path d="M681.633 132.249C681.64 128.464 682.768 124.764 684.875 121.619C686.982 118.474 689.974 116.023 693.473 114.577C696.971 113.13 700.82 112.752 704.533 113.491C708.246 114.231 711.657 116.053 714.336 118.729C717.014 121.405 718.839 124.814 719.581 128.527C720.324 132.239 719.949 136.088 718.506 139.588C717.062 143.088 714.614 146.082 711.471 148.192C708.327 150.302 704.629 151.433 700.843 151.443C698.316 151.465 695.809 150.984 693.47 150.027C691.13 149.071 689.004 147.658 687.216 145.872C685.428 144.085 684.014 141.961 683.055 139.622C682.097 137.283 681.613 134.777 681.633 132.249V132.249Z" fill="#ACD9F3"/>
<path d="M761.284 49.2093C761.284 53 760.161 56.7056 758.056 59.8581C755.951 63.0106 752.959 65.4685 749.457 66.9214C745.956 68.3743 742.103 68.757 738.385 68.0211C734.666 67.2852 731.249 65.4638 728.565 62.7869C725.881 60.11 724.051 56.6977 723.305 52.9811C722.56 49.2645 722.932 45.4104 724.376 41.9054C725.82 38.4005 728.27 35.402 731.417 33.2889C734.564 31.1757 738.267 30.0426 742.057 30.0327C744.584 30.0105 747.09 30.491 749.43 31.4462C751.769 32.4015 753.895 33.8124 755.684 35.5968C757.473 37.3813 758.89 39.5038 759.851 41.8408C760.813 44.1777 761.3 46.6824 761.284 49.2093V49.2093Z" fill="#ACD9F3"/>
<path d="M742.056 26.5911C738.276 26.5842 734.583 25.4545 731.446 23.3454C728.31 21.2362 725.87 18.2427 724.437 14.7446C723.005 11.2466 722.644 7.40185 723.4 3.69824C724.156 -0.00537381 725.996 -3.40083 728.685 -6.0572C731.374 -8.71358 734.792 -10.5111 738.505 -11.2217C742.217 -11.9323 746.057 -11.5238 749.537 -10.0482C753.018 -8.57263 755.981 -6.09642 758.051 -2.9338C760.122 0.228824 761.206 3.93524 761.166 7.71506C761.113 12.7454 759.075 17.5513 755.496 21.0865C751.917 24.6217 747.087 26.6001 742.056 26.5911V26.5911Z" fill="#ACD9F3"/>
<path d="M534.819 150.889C531.072 150.905 527.404 149.811 524.279 147.744C521.153 145.678 518.71 142.731 517.258 139.277C515.806 135.823 515.41 132.016 516.12 128.337C516.83 124.658 518.614 121.272 521.247 118.606C523.88 115.94 527.244 114.114 530.914 113.359C534.584 112.604 538.396 112.953 541.868 114.362C545.339 115.772 548.316 118.178 550.421 121.278C552.526 124.378 553.665 128.032 553.695 131.779C553.723 134.277 553.257 136.755 552.321 139.072C551.385 141.388 550 143.495 548.244 145.273C546.489 147.05 544.399 148.461 542.094 149.425C539.79 150.389 537.317 150.887 534.819 150.889V150.889Z" fill="#ACD9F3"/>
<path d="M742.252 71.6461C745.999 71.6725 749.654 72.8086 752.756 74.9108C755.858 77.0131 758.267 79.9872 759.679 83.4578C761.092 86.9283 761.444 90.7395 760.692 94.4102C759.94 98.081 758.118 101.447 755.454 104.082C752.791 106.718 749.406 108.505 745.728 109.218C742.049 109.931 738.242 109.538 734.786 108.089C731.331 106.64 728.382 104.2 726.313 101.076C724.244 97.9525 723.146 94.2857 723.159 90.5388C723.161 88.0414 723.658 85.5692 724.621 83.2649C725.584 80.9606 726.993 78.8698 728.768 77.1133C730.544 75.3567 732.649 73.9692 734.964 73.0308C737.278 72.0924 739.755 71.6218 742.252 71.6461V71.6461Z" fill="#ACD9F3"/>
<path d="M598.966 173.594C598.966 168.601 600.95 163.812 604.48 160.282C608.011 156.751 612.799 154.768 617.792 154.768C622.785 154.768 627.574 156.751 631.104 160.282C634.635 163.812 636.618 168.601 636.618 173.594C636.618 178.587 634.635 183.375 631.104 186.906C627.574 190.436 622.785 192.42 617.792 192.42C612.799 192.42 608.011 190.436 604.48 186.906C600.95 183.375 598.966 178.587 598.966 173.594V173.594Z" fill="#ACD9F3"/>
<path d="M474.615 49.1935C474.615 44.2094 476.595 39.4295 480.12 35.9052C483.644 32.381 488.424 30.4011 493.408 30.4011C498.392 30.4011 503.172 32.381 506.696 35.9052C510.22 39.4295 512.2 44.2094 512.2 49.1935C512.165 54.1728 510.173 58.9384 506.654 62.4609C503.134 65.9834 498.37 67.98 493.391 68.0194C490.921 68.0216 488.474 67.5358 486.192 66.5898C483.909 65.6439 481.837 64.2565 480.092 62.5073C478.347 60.758 476.965 58.6814 476.026 56.3967C475.086 54.1119 474.607 51.664 474.615 49.1935V49.1935Z" fill="#ACD9F3"/>
<path d="M677.86 173.673C677.849 177.387 676.737 181.013 674.662 184.093C672.588 187.173 669.645 189.567 666.208 190.971C662.771 192.376 658.994 192.728 655.356 191.983C651.718 191.238 648.384 189.429 645.776 186.786C643.168 184.143 641.404 180.784 640.708 177.137C640.011 173.489 640.414 169.717 641.865 166.299C643.316 162.881 645.749 159.971 648.856 157.938C651.964 155.905 655.605 154.841 659.318 154.881C664.261 154.938 668.982 156.944 672.454 160.463C675.926 163.982 677.869 168.73 677.86 173.673V173.673Z" fill="#ACD9F3"/>
<path d="M474.701 7.54645C474.686 2.58896 476.64 -2.17164 480.135 -5.68807C483.629 -9.20451 488.378 -11.1887 493.335 -11.2043C498.293 -11.2198 503.053 -9.26527 506.57 -5.77076C510.086 -2.27625 512.07 2.47202 512.086 7.4295C512.093 9.8842 511.617 12.3164 510.685 14.5872C509.753 16.858 508.383 18.9229 506.652 20.664C504.922 22.4052 502.866 23.7885 500.601 24.735C498.336 25.6814 495.907 26.1725 493.452 26.1802C490.997 26.1879 488.565 25.712 486.294 24.7797C484.024 23.8474 481.959 22.477 480.217 20.7467C478.476 19.0164 477.093 16.9601 476.146 14.6952C475.2 12.4303 474.709 10.0011 474.701 7.54645V7.54645Z" fill="#ACD9F3"/>
<path d="M594.671 173.47C594.694 177.147 593.627 180.748 591.603 183.818C589.579 186.888 586.691 189.289 583.302 190.718C579.914 192.146 576.178 192.538 572.567 191.843C568.956 191.149 565.633 189.399 563.016 186.815C560.4 184.231 558.608 180.93 557.868 177.328C557.128 173.726 557.473 169.986 558.859 166.58C560.244 163.174 562.609 160.255 565.653 158.193C568.698 156.131 572.285 155.018 575.962 154.995C578.406 154.97 580.831 155.43 583.097 156.347C585.362 157.264 587.424 158.62 589.163 160.337C590.902 162.055 592.284 164.099 593.229 166.353C594.175 168.607 594.665 171.025 594.671 173.47V173.47Z" fill="#ACD9F3"/>
<path d="M511.935 91.0217C511.852 94.6955 510.682 98.2622 508.573 101.271C506.464 104.281 503.51 106.597 500.085 107.929C496.661 109.26 492.918 109.547 489.33 108.753C485.742 107.959 482.47 106.12 479.927 103.467C477.384 100.814 475.684 97.4678 475.042 93.8497C474.4 90.2316 474.844 86.5043 476.319 83.1386C477.794 79.7729 480.233 76.9197 483.328 74.9394C486.424 72.9591 490.037 71.9405 493.711 72.0122C496.158 72.0555 498.572 72.5825 500.815 73.5629C503.058 74.5432 505.085 75.9576 506.779 77.7245C508.473 79.4914 509.8 81.5759 510.685 83.858C511.57 86.1402 511.995 88.5748 511.935 91.0217V91.0217Z" fill="#ACD9F3"/>
<path d="M742.252 113.887C744.665 113.903 747.052 114.393 749.275 115.331C751.499 116.268 753.516 117.635 755.211 119.352C756.907 121.069 758.247 123.103 759.156 125.339C760.066 127.574 760.526 129.966 760.51 132.379C760.495 134.792 760.004 137.179 759.067 139.402C758.129 141.625 756.763 143.642 755.046 145.338C753.329 147.033 751.294 148.374 749.059 149.283C746.824 150.192 744.432 150.652 742.019 150.637C737.145 150.606 732.484 148.64 729.06 145.173C725.636 141.705 723.73 137.019 723.761 132.145C723.792 127.272 725.757 122.611 729.225 119.187C732.693 115.763 737.379 113.856 742.252 113.887Z" fill="#ACD9F3"/>
<path d="M700.912 155.399C705.659 155.575 710.15 157.593 713.433 161.026C716.715 164.459 718.531 169.037 718.494 173.786C718.457 178.536 716.57 183.084 713.235 186.466C709.899 189.848 705.377 191.796 700.628 191.898C698.186 191.95 695.758 191.512 693.489 190.61C691.219 189.707 689.154 188.358 687.415 186.643C685.676 184.927 684.299 182.88 683.365 180.623C682.431 178.366 681.96 175.945 681.979 173.502C681.998 171.06 682.507 168.646 683.476 166.404C684.444 164.161 685.853 162.136 687.618 160.448C689.384 158.76 691.47 157.443 693.754 156.576C696.037 155.709 698.471 155.308 700.912 155.399V155.399Z" fill="#ACD9F3"/>
<path d="M552.792 173.574C552.806 177.154 551.756 180.657 549.777 183.641C547.798 186.624 544.978 188.953 541.675 190.333C538.371 191.713 534.733 192.082 531.22 191.393C527.706 190.704 524.477 188.988 521.939 186.462C519.402 183.936 517.671 180.715 516.965 177.205C516.26 173.695 516.612 170.054 517.977 166.744C519.341 163.435 521.658 160.604 524.632 158.611C527.606 156.618 531.105 155.553 534.685 155.549C539.473 155.549 544.066 157.446 547.459 160.824C550.853 164.201 552.77 168.786 552.792 173.574V173.574Z" fill="#ACD9F3"/>
<path d="M801.57 49.3093C801.557 52.8895 800.481 56.3851 798.48 59.3538C796.479 62.3225 793.642 64.6308 790.329 65.9862C787.015 67.3417 783.374 67.6836 779.866 66.9685C776.358 66.2534 773.141 64.5135 770.622 61.9691C768.103 59.4247 766.396 56.1902 765.717 52.6751C765.038 49.16 765.416 45.5224 766.805 42.2228C768.195 38.9231 770.532 36.1098 773.52 34.139C776.509 32.1682 780.016 31.1285 783.596 31.1517C788.384 31.187 792.963 33.1172 796.331 36.52C799.7 39.9229 801.583 44.5213 801.57 49.3093V49.3093Z" fill="#ACD9F3"/>
<path d="M511.129 132.146C511.096 135.726 510.001 139.216 507.984 142.173C505.966 145.131 503.116 147.423 499.795 148.76C496.474 150.097 492.831 150.418 489.327 149.684C485.823 148.949 482.616 147.192 480.112 144.633C477.607 142.075 475.918 138.831 475.258 135.313C474.598 131.794 474.997 128.158 476.405 124.866C477.812 121.575 480.164 118.774 483.164 116.82C486.164 114.866 489.676 113.845 493.256 113.888C498.045 113.946 502.616 115.9 505.967 119.322C509.317 122.745 511.174 127.357 511.129 132.146V132.146Z" fill="#ACD9F3"/>
<path d="M801.704 7.64817C801.562 12.3137 799.609 16.7405 796.258 19.9904C792.908 23.2402 788.423 25.0578 783.756 25.0578C779.088 25.0578 774.604 23.2402 771.253 19.9904C767.902 16.7405 765.949 12.3137 765.807 7.64817C765.733 5.24502 766.143 2.85162 767.012 0.609898C767.881 -1.63182 769.192 -3.67621 770.866 -5.40201C772.54 -7.12782 774.543 -8.4999 776.757 -9.43688C778.972 -10.3739 781.351 -10.8567 783.756 -10.8567C786.16 -10.8567 788.54 -10.3739 790.754 -9.43688C792.968 -8.4999 794.971 -7.12782 796.645 -5.40201C798.319 -3.67621 799.63 -1.63182 800.499 0.609898C801.368 2.85162 801.778 5.24502 801.704 7.64817V7.64817Z" fill="#ACD9F3"/>
<path d="M783.466 72.7628C787.001 72.7463 790.461 73.7785 793.41 75.7288C796.358 77.679 798.662 80.4598 800.03 83.7194C801.398 86.979 801.769 90.5711 801.095 94.0414C800.422 97.5117 798.734 100.704 796.247 103.216C793.759 105.727 790.582 107.444 787.118 108.15C783.654 108.856 780.059 108.519 776.786 107.181C773.514 105.844 770.712 103.566 768.734 100.636C766.756 97.7058 765.692 94.2551 765.675 90.7201C765.664 88.3728 766.116 86.0464 767.004 83.8737C767.892 81.7009 769.199 79.7244 770.851 78.0569C772.503 76.3894 774.468 75.0636 776.632 74.1553C778.796 73.2469 781.118 72.7738 783.466 72.7628Z" fill="#ACD9F3"/>
<path d="M617.889 232.605C615.524 232.686 613.167 232.291 610.957 231.444C608.748 230.598 606.731 229.316 605.026 227.674C603.321 226.033 601.963 224.067 601.033 221.891C600.102 219.715 599.618 217.375 599.61 215.009C599.601 212.643 600.067 210.299 600.981 208.116C601.895 205.933 603.238 203.956 604.93 202.303C606.622 200.649 608.629 199.351 610.832 198.488C613.036 197.624 615.39 197.212 617.755 197.275C622.347 197.398 626.711 199.304 629.922 202.589C633.133 205.875 634.938 210.281 634.956 214.875C634.973 219.469 633.201 223.889 630.015 227.199C626.829 230.508 622.48 232.447 617.889 232.605Z" fill="#ACD9F3"/>
<path d="M434.091 49.2099C434.032 46.8469 434.447 44.4961 435.314 42.2967C436.18 40.0974 437.479 38.0944 439.133 36.4064C440.788 34.7185 442.765 33.3799 444.946 32.4702C447.128 31.5604 449.47 31.098 451.834 31.1103C454.198 31.1226 456.535 31.6094 458.707 32.5418C460.879 33.4742 462.842 34.8332 464.479 36.5383C466.116 38.2435 467.394 40.2599 468.237 42.4681C469.08 44.6764 469.471 47.0314 469.387 49.3937C469.224 53.9809 467.281 58.3243 463.97 61.5033C460.659 64.6822 456.24 66.4468 451.65 66.4229C447.06 66.399 442.66 64.5885 439.382 61.3753C436.104 58.162 434.206 53.7986 434.091 49.2099V49.2099Z" fill="#ACD9F3"/>
<path d="M451.663 -9.99028C453.988 -10.0036 456.292 -9.55553 458.442 -8.67207C460.593 -7.78862 462.546 -6.48733 464.19 -4.84356C465.834 -3.1998 467.135 -1.24622 468.018 0.904002C468.902 3.05422 469.35 5.35838 469.337 7.68298C469.393 10.0391 468.976 12.3826 468.11 14.5746C467.244 16.7666 465.947 18.7624 464.296 20.4437C462.644 22.1251 460.672 23.4577 458.495 24.3626C456.319 25.2675 453.983 25.7263 451.627 25.7117C449.27 25.6972 446.94 25.2096 444.775 24.2779C442.61 23.3462 440.655 21.9894 439.024 20.2878C437.393 18.5862 436.121 16.5746 435.282 14.3721C434.443 12.1696 434.055 9.82108 434.141 7.46581C434.141 5.16781 434.594 2.89242 435.476 0.770186C436.357 -1.35205 437.649 -3.27937 439.277 -4.9012C440.905 -6.52302 442.837 -7.80743 444.963 -8.68074C447.088 -9.55405 449.365 -9.99908 451.663 -9.99028V-9.99028Z" fill="#ACD9F3"/>
<path d="M676.672 215.015C676.531 219.588 674.615 223.927 671.33 227.112C668.045 230.298 663.649 232.079 659.074 232.079C654.498 232.079 650.102 230.298 646.817 227.112C643.532 223.927 641.617 219.588 641.476 215.015C641.506 210.323 643.39 205.833 646.715 202.523C650.041 199.212 654.54 197.35 659.232 197.342C663.884 197.386 668.33 199.269 671.598 202.581C674.865 205.892 676.69 210.363 676.672 215.015V215.015Z" fill="#ACD9F3"/>
<path d="M724.631 173.607C724.772 169.034 726.688 164.695 729.973 161.51C733.257 158.324 737.653 156.543 742.229 156.543C746.805 156.543 751.201 158.324 754.485 161.51C757.77 164.695 759.686 169.034 759.827 173.607C759.9 175.964 759.498 178.311 758.647 180.51C757.795 182.708 756.51 184.713 754.869 186.406C753.228 188.099 751.263 189.444 749.092 190.364C746.92 191.283 744.587 191.756 742.229 191.756C739.871 191.756 737.537 191.283 735.366 190.364C733.195 189.444 731.23 188.099 729.589 186.406C727.948 184.713 726.663 182.708 725.811 180.51C724.96 178.311 724.558 175.964 724.631 173.607V173.607Z" fill="#ACD9F3"/>
<path d="M576.212 232.438C572.755 232.461 569.369 231.459 566.481 229.558C563.593 227.658 561.333 224.945 559.987 221.761C558.641 218.577 558.268 215.065 558.916 211.67C559.564 208.274 561.204 205.147 563.629 202.682C566.053 200.218 569.154 198.528 572.538 197.825C575.923 197.122 579.44 197.437 582.645 198.732C585.851 200.027 588.6 202.242 590.547 205.099C592.494 207.955 593.551 211.325 593.584 214.781C593.613 217.084 593.185 219.37 592.326 221.506C591.466 223.643 590.192 225.588 588.577 227.23C586.962 228.871 585.038 230.177 582.915 231.071C580.793 231.965 578.515 232.429 576.212 232.438Z" fill="#ACD9F3"/>
<path d="M451.548 108.11C448.092 108.08 444.721 107.027 441.863 105.083C439.004 103.138 436.786 100.391 435.489 97.1867C434.191 93.9826 433.872 90.4658 434.572 87.0804C435.272 83.6951 436.959 80.5931 439.421 78.1663C441.883 75.7394 445.008 74.0965 448.403 73.4451C451.798 72.7937 455.31 73.1631 458.496 74.5065C461.681 75.8499 464.396 78.1071 466.3 80.993C468.203 83.8789 469.208 87.264 469.188 90.7209C469.182 93.0238 468.719 95.3027 467.827 97.4259C466.935 99.5491 465.632 101.475 463.992 103.091C462.352 104.708 460.408 105.984 458.272 106.845C456.136 107.707 453.851 108.137 451.548 108.11V108.11Z" fill="#ACD9F3"/>
<path d="M766.127 131.811C766.219 128.363 767.332 125.021 769.327 122.207C771.322 119.393 774.107 117.235 777.33 116.007C780.553 114.78 784.068 114.537 787.429 115.31C790.791 116.083 793.846 117.838 796.209 120.351C798.571 122.863 800.134 126.021 800.698 129.424C801.263 132.826 800.804 136.32 799.38 139.461C797.955 142.602 795.63 145.249 792.699 147.067C789.767 148.884 786.362 149.789 782.915 149.668C780.639 149.603 778.397 149.09 776.32 148.156C774.243 147.223 772.37 145.888 770.81 144.228C769.25 142.569 768.034 140.618 767.23 138.487C766.426 136.356 766.052 134.087 766.127 131.811V131.811Z" fill="#ACD9F3"/>
<path d="M492.975 190.863C490.698 190.866 488.445 190.415 486.345 189.537C484.245 188.659 482.34 187.371 480.743 185.75C479.146 184.128 477.888 182.204 477.043 180.091C476.198 177.977 475.782 175.717 475.819 173.441C475.846 170.021 476.886 166.687 478.807 163.858C480.729 161.03 483.446 158.835 486.615 157.551C489.785 156.267 493.263 155.952 496.612 156.645C499.96 157.338 503.028 159.008 505.427 161.445C507.826 163.881 509.449 166.974 510.09 170.333C510.731 173.692 510.362 177.165 509.029 180.314C507.696 183.463 505.46 186.146 502.602 188.024C499.744 189.902 496.394 190.89 492.975 190.863V190.863Z" fill="#ACD9F3"/>
<path d="M683.572 214.883C683.596 210.311 685.435 205.936 688.686 202.721C691.936 199.505 696.33 197.712 700.902 197.736C705.474 197.761 709.849 199.6 713.065 202.85C716.281 206.101 718.074 210.495 718.049 215.067C718.037 217.331 717.579 219.57 716.702 221.657C715.825 223.744 714.545 225.638 712.935 227.23C711.326 228.822 709.419 230.082 707.323 230.937C705.227 231.792 702.982 232.226 700.719 232.214C698.455 232.202 696.215 231.744 694.129 230.867C692.042 229.989 690.148 228.709 688.556 227.1C686.963 225.491 685.704 223.584 684.849 221.487C683.993 219.391 683.559 217.147 683.572 214.883V214.883Z" fill="#ACD9F3"/>
<path d="M551.723 214.882C551.755 217.132 551.335 219.366 550.49 221.451C549.644 223.536 548.389 225.431 546.8 227.024C545.21 228.617 543.318 229.875 541.234 230.724C539.151 231.574 536.918 231.998 534.668 231.971C530.166 231.967 525.85 230.181 522.66 227.004C519.471 223.827 517.668 219.518 517.646 215.016C517.634 212.778 518.063 210.56 518.908 208.489C519.753 206.417 520.998 204.532 522.572 202.941C524.145 201.35 526.017 200.085 528.08 199.218C530.142 198.35 532.355 197.898 534.593 197.886C536.83 197.874 539.048 198.302 541.12 199.147C543.192 199.993 545.077 201.238 546.668 202.811C548.259 204.385 549.524 206.256 550.391 208.319C551.259 210.381 551.711 212.595 551.723 214.832L551.723 214.882Z" fill="#ACD9F3"/>
<path d="M434.708 132.095C434.67 127.576 436.429 123.227 439.598 120.006C442.767 116.784 447.086 114.952 451.605 114.915C456.123 114.877 460.472 116.636 463.694 119.805C466.916 122.973 468.747 127.292 468.785 131.811C468.79 136.357 466.995 140.72 463.793 143.947C460.591 147.174 456.242 149.002 451.696 149.033C447.202 149.025 442.894 147.239 439.711 144.066C436.529 140.892 434.73 136.589 434.708 132.095Z" fill="#ACD9F3"/>
<path d="M825.308 32.3561C828.638 32.3858 831.885 33.4004 834.64 35.2722C837.395 37.144 839.534 39.7892 840.788 42.8746C842.041 45.9599 842.354 49.3474 841.686 52.6102C841.018 55.8729 839.4 58.8651 837.035 61.2096C834.669 63.5541 831.663 65.1461 828.394 65.785C825.126 66.4239 821.741 66.0811 818.667 64.7998C815.593 63.5186 812.967 61.3562 811.119 58.585C809.272 55.8139 808.286 52.558 808.286 49.2275C808.284 46.9986 808.724 44.7913 809.58 42.7335C810.437 40.6757 811.693 38.8082 813.276 37.2391C814.859 35.6701 816.737 34.4306 818.803 33.5924C820.868 32.7542 823.079 32.334 825.308 32.3561V32.3561Z" fill="#ACD9F3"/>
<path d="M825.057 24.3024C822.854 24.2882 820.676 23.8402 818.647 22.9842C816.617 22.1282 814.777 20.8809 813.229 19.3135C811.682 17.746 810.459 15.8892 809.629 13.849C808.799 11.8087 808.38 9.62508 808.394 7.42265C808.408 5.22022 808.856 3.04215 809.712 1.01283C810.568 -1.01649 811.815 -2.85734 813.383 -4.40461C814.95 -5.95188 816.807 -7.17526 818.847 -8.00491C820.888 -8.83457 823.071 -9.25426 825.274 -9.24C829.722 -9.21121 833.976 -7.41664 837.101 -4.25106C840.226 -1.08549 841.965 3.19178 841.936 7.63979C841.908 12.0878 840.113 16.3422 836.947 19.467C833.782 22.5919 829.505 24.3312 825.057 24.3024Z" fill="#ACD9F3"/>
<path d="M808.489 90.6336C808.489 86.2033 810.249 81.9545 813.382 78.8218C816.515 75.6891 820.763 73.9292 825.194 73.9292C829.624 73.9292 833.873 75.6891 837.005 78.8218C840.138 81.9545 841.898 86.2033 841.898 90.6336C841.846 95.0477 840.069 99.2664 836.948 102.388C833.826 105.509 829.608 107.286 825.194 107.338C820.763 107.338 816.515 105.578 813.382 102.445C810.249 99.3127 808.489 95.0639 808.489 90.6336V90.6336Z" fill="#ACD9F3"/>
<path d="M783.633 190.296C781.439 190.302 779.265 189.877 777.236 189.043C775.207 188.21 773.362 186.985 771.806 185.438C770.25 183.892 769.014 182.054 768.169 180.03C767.323 178.006 766.885 175.835 766.878 173.641C766.871 171.448 767.297 169.274 768.13 167.245C768.964 165.216 770.189 163.371 771.735 161.815C773.282 160.259 775.119 159.023 777.144 158.178C779.168 157.332 781.339 156.893 783.532 156.887C787.921 156.938 792.117 158.694 795.235 161.783C798.352 164.872 800.146 169.053 800.237 173.441C800.257 175.639 799.842 177.819 799.018 179.856C798.194 181.894 796.975 183.749 795.433 185.315C793.89 186.88 792.054 188.126 790.029 188.981C788.004 189.836 785.83 190.283 783.633 190.296V190.296Z" fill="#ACD9F3"/>
<path d="M758.775 215.167C758.744 218.481 757.728 221.711 755.856 224.446C753.984 227.181 751.341 229.298 748.263 230.526C745.185 231.755 741.811 232.04 738.57 231.345C735.33 230.651 732.369 229.008 730.065 226.626C727.76 224.244 726.217 221.23 725.63 217.968C725.044 214.706 725.441 211.343 726.771 208.308C728.101 205.272 730.304 202.701 733.1 200.921C735.896 199.141 739.158 198.233 742.471 198.312C746.858 198.418 751.027 200.244 754.078 203.398C757.128 206.552 758.816 210.78 758.775 215.167V215.167Z" fill="#ACD9F3"/>
<path d="M426.76 49.1902C426.777 52.4548 425.823 55.6507 424.019 58.372C422.216 61.0934 419.644 63.2174 416.631 64.4743C413.618 65.7313 410.3 66.0645 407.097 65.4316C403.894 64.7988 400.952 63.2284 398.643 60.9199C396.335 58.6115 394.765 55.669 394.132 52.4663C393.499 49.2636 393.832 45.945 395.089 42.932C396.346 39.919 398.47 37.3476 401.191 35.5441C403.913 33.7407 407.109 32.7867 410.373 32.8032C412.529 32.7899 414.666 33.2046 416.66 34.0235C418.654 34.8423 420.466 36.0488 421.99 37.5731C423.515 39.0975 424.721 40.9093 425.54 42.9034C426.359 44.8976 426.774 47.0345 426.76 49.1902V49.1902Z" fill="#ACD9F3"/>
<path d="M617.724 273.048C615.569 273.055 613.435 272.633 611.444 271.808C609.453 270.983 607.646 269.771 606.128 268.242C604.609 266.712 603.41 264.897 602.599 262.9C601.788 260.904 601.382 258.766 601.404 256.611C601.401 253.35 602.367 250.162 604.179 247.451C605.99 244.741 608.567 242.629 611.581 241.385C614.595 240.141 617.911 239.821 621.107 240.465C624.304 241.109 627.237 242.688 629.534 245.002C631.831 247.316 633.39 250.26 634.011 253.461C634.632 256.662 634.288 259.975 633.022 262.98C631.757 265.985 629.627 268.547 626.903 270.339C624.18 272.132 620.985 273.075 617.724 273.048V273.048Z" fill="#ACD9F3"/>
<path d="M675.468 256.779C675.464 258.932 675.032 261.063 674.197 263.047C673.363 265.032 672.143 266.831 670.607 268.34C669.072 269.849 667.252 271.038 665.253 271.838C663.254 272.638 661.116 273.033 658.964 272.999C654.613 272.964 650.454 271.205 647.398 268.108C644.342 265.012 642.638 260.83 642.66 256.479C642.769 252.139 644.563 248.011 647.662 244.971C650.762 241.931 654.923 240.217 659.265 240.192C663.612 240.245 667.761 242.022 670.799 245.132C673.838 248.242 675.517 252.432 675.468 256.779V256.779Z" fill="#ACD9F3"/>
<path d="M410.588 -8.82179C414.851 -8.64521 418.877 -6.81492 421.812 -3.71919C424.748 -0.623466 426.362 3.49412 426.312 7.76006C426.262 12.026 424.552 16.1047 421.544 19.1308C418.537 22.1569 414.469 23.8923 410.204 23.969C408.009 24.0084 405.829 23.6069 403.792 22.7883C401.755 21.9697 399.903 20.7506 398.346 19.2033C396.789 17.6559 395.559 15.8118 394.727 13.7802C393.896 11.7485 393.481 9.57069 393.506 7.37569C393.532 5.18069 393.998 3.01319 394.877 1.00158C395.756 -1.01002 397.029 -2.8248 398.622 -4.33523C400.215 -5.84567 402.095 -7.02104 404.15 -7.79171C406.206 -8.56237 408.395 -8.91264 410.588 -8.82179V-8.82179Z" fill="#ACD9F3"/>
<path d="M451.732 157.252C456.08 157.256 460.249 158.983 463.327 162.055C466.404 165.126 468.139 169.291 468.153 173.639C468.105 177.991 466.35 182.149 463.267 185.22C460.183 188.291 456.017 190.029 451.665 190.059C447.315 190.059 443.143 188.331 440.066 185.255C436.99 182.179 435.262 178.006 435.262 173.656C435.262 169.305 436.99 165.133 440.066 162.057C443.143 158.98 447.315 157.252 451.665 157.252L451.732 157.252Z" fill="#ACD9F3"/>
<path d="M492.994 231.335C490.84 231.331 488.708 230.902 486.719 230.074C484.731 229.245 482.925 228.033 481.405 226.507C479.885 224.981 478.68 223.17 477.86 221.178C477.04 219.186 476.62 217.052 476.624 214.898C476.685 210.549 478.45 206.398 481.539 203.337C484.629 200.276 488.796 198.549 493.145 198.528C497.494 198.563 501.651 200.322 504.705 203.42C507.758 206.517 509.458 210.699 509.431 215.048C509.436 217.201 509.013 219.333 508.187 221.321C507.36 223.309 506.147 225.113 504.618 226.628C503.089 228.144 501.274 229.34 499.278 230.148C497.283 230.956 495.147 231.359 492.994 231.335V231.335Z" fill="#ACD9F3"/>
<path d="M841.444 132.281C841.437 135.505 840.474 138.655 838.676 141.331C836.877 144.007 834.326 146.089 831.343 147.314C828.361 148.538 825.082 148.85 821.922 148.21C818.762 147.57 815.864 146.006 813.593 143.717C811.323 141.428 809.783 138.516 809.169 135.351C808.554 132.186 808.893 128.91 810.142 125.938C811.391 122.966 813.494 120.431 816.185 118.655C818.876 116.879 822.033 115.941 825.257 115.961C829.565 115.988 833.687 117.72 836.721 120.779C839.754 123.837 841.453 127.973 841.444 132.281V132.281Z" fill="#ACD9F3"/>
<path d="M575.964 272.916C572.742 272.883 569.602 271.893 566.943 270.073C564.285 268.253 562.226 265.685 561.028 262.694C559.831 259.703 559.548 256.423 560.217 253.271C560.885 250.119 562.475 247.237 564.783 244.989C567.092 242.741 570.016 241.23 573.185 240.646C576.353 240.062 579.624 240.432 582.582 241.71C585.54 242.987 588.053 245.113 589.801 247.82C591.549 250.527 592.454 253.692 592.401 256.913C592.326 261.209 590.557 265.302 587.478 268.3C584.399 271.297 580.26 272.956 575.964 272.916V272.916Z" fill="#ACD9F3"/>
<path d="M410.219 106.856C406.998 106.833 403.856 105.853 401.192 104.043C398.528 102.232 396.461 99.6708 395.253 96.6843C394.046 93.6977 393.752 90.4199 394.41 87.2663C395.067 84.1126 396.646 81.2251 398.946 78.9696C401.246 76.7141 404.164 75.1921 407.33 74.5966C410.495 74.001 413.767 74.3587 416.729 75.6243C419.692 76.8898 422.212 79.0063 423.97 81.7055C425.728 84.4047 426.646 87.5651 426.606 90.7863C426.562 95.0897 424.811 99.1995 421.739 102.213C418.666 105.226 414.523 106.896 410.219 106.856V106.856Z" fill="#ACD9F3"/>
<path d="M716.516 256.779C716.509 259.963 715.556 263.073 713.779 265.715C712.002 268.357 709.48 270.411 706.533 271.617C703.587 272.823 700.348 273.127 697.229 272.489C694.109 271.852 691.249 270.302 689.012 268.036C686.775 265.771 685.261 262.892 684.663 259.765C684.064 256.638 684.409 253.403 685.651 250.472C686.894 247.541 688.98 245.045 691.644 243.3C694.308 241.556 697.429 240.643 700.613 240.676C704.849 240.729 708.894 242.449 711.87 245.463C714.847 248.477 716.516 252.543 716.516 256.779V256.779Z" fill="#ACD9F3"/>
<path d="M426.224 131.845C426.25 135.002 425.337 138.095 423.601 140.732C421.865 143.369 419.385 145.43 416.474 146.654C413.564 147.877 410.355 148.208 407.257 147.603C404.158 146.999 401.309 145.486 399.072 143.259C396.835 141.031 395.311 138.189 394.693 135.092C394.076 131.996 394.393 128.787 395.604 125.871C396.815 122.956 398.866 120.466 401.495 118.719C404.125 116.972 407.214 116.046 410.371 116.059C414.563 116.064 418.582 117.726 421.552 120.683C424.522 123.641 426.202 127.653 426.224 131.845V131.845Z" fill="#ACD9F3"/>
<path d="M534.738 272.482C531.589 272.495 528.507 271.572 525.884 269.83C523.26 268.088 521.214 265.606 520.004 262.699C518.795 259.791 518.477 256.59 519.09 253.501C519.704 250.412 521.221 247.576 523.45 245.351C525.679 243.127 528.519 241.615 531.609 241.008C534.699 240.401 537.9 240.726 540.805 241.942C543.71 243.158 546.188 245.21 547.924 247.837C549.66 250.464 550.577 253.547 550.557 256.696C550.544 260.885 548.872 264.897 545.907 267.856C542.942 270.814 538.926 272.478 534.738 272.482V272.482Z" fill="#ACD9F3"/>
<path d="M799.267 215.218C799.278 217.298 798.878 219.36 798.091 221.285C797.305 223.211 796.146 224.963 794.681 226.44C793.216 227.917 791.474 229.091 789.555 229.894C787.637 230.697 785.578 231.114 783.498 231.12C779.294 231.076 775.277 229.38 772.313 226.398C769.35 223.416 767.679 219.388 767.662 215.184C767.662 210.993 769.327 206.974 772.29 204.01C775.254 201.047 779.273 199.382 783.464 199.382C787.656 199.382 791.675 201.047 794.638 204.01C797.602 206.974 799.267 210.993 799.267 215.184L799.267 215.218Z" fill="#ACD9F3"/>
<path d="M825.076 189.241C821.981 189.221 818.961 188.284 816.398 186.548C813.835 184.811 811.845 182.354 810.678 179.487C809.512 176.619 809.222 173.47 809.846 170.438C810.469 167.406 811.977 164.626 814.18 162.451C816.383 160.276 819.182 158.804 822.222 158.219C825.262 157.635 828.407 157.965 831.259 159.168C834.111 160.371 836.543 162.392 838.246 164.977C839.95 167.562 840.848 170.594 840.829 173.69C840.829 175.749 840.42 177.788 839.626 179.688C838.832 181.588 837.668 183.311 836.203 184.758C834.738 186.205 832.999 187.346 831.089 188.116C829.179 188.885 827.135 189.268 825.076 189.241V189.241Z" fill="#ACD9F3"/>
<path d="M882.069 49.2591C882.083 51.3113 881.686 53.3456 880.902 55.2424C880.119 57.1391 878.964 58.8602 877.506 60.3043C876.048 61.7485 874.316 62.8866 872.411 63.6519C870.507 64.4172 868.469 64.7942 866.417 64.7608C863.334 64.7475 860.324 63.8201 857.768 62.0959C855.212 60.3716 853.225 57.928 852.058 55.0742C850.891 52.2204 850.597 49.0846 851.213 46.0635C851.829 43.0425 853.326 40.2719 855.517 38.1023C857.708 35.9327 860.493 34.4616 863.519 33.8751C866.546 33.2886 869.679 33.6131 872.522 34.8074C875.364 36.0018 877.788 38.0124 879.488 40.5848C881.187 43.1573 882.086 46.176 882.069 49.2591Z" fill="#ACD9F3"/>
<path d="M866.616 23.0482C862.513 23.093 858.559 21.5125 855.617 18.652C852.675 15.7915 850.984 11.8832 850.914 7.78044C850.892 3.62744 852.515 -0.365239 855.43 -3.32372C858.345 -6.28221 862.313 -7.96552 866.466 -8.00522C870.497 -7.89395 874.327 -6.21932 877.146 -3.33535C879.965 -0.451378 881.552 3.41586 881.572 7.44875C881.591 11.4816 880.042 15.3641 877.251 18.2752C874.46 21.1863 870.646 22.8979 866.616 23.0482V23.0482Z" fill="#ACD9F3"/>
<path d="M467.183 214.898C467.214 219.001 465.621 222.95 462.751 225.882C459.881 228.815 455.968 230.493 451.865 230.55C447.709 230.55 443.722 228.906 440.774 225.977C437.825 223.047 436.156 219.071 436.129 214.915C436.16 210.812 437.813 206.888 440.727 203.999C443.64 201.111 447.578 199.492 451.681 199.496C453.713 199.479 455.729 199.864 457.611 200.631C459.493 201.397 461.205 202.53 462.646 203.962C464.088 205.394 465.231 207.098 466.01 208.975C466.789 210.853 467.187 212.866 467.183 214.898Z" fill="#ACD9F3"/>
<path d="M742.139 241.159C744.172 241.143 746.187 241.531 748.068 242.3C749.949 243.068 751.66 244.202 753.1 245.636C754.54 247.07 755.681 248.775 756.458 250.653C757.235 252.531 757.631 254.545 757.624 256.577C757.651 260.683 756.051 264.632 753.175 267.562C750.298 270.492 746.379 272.164 742.273 272.212C738.12 272.203 734.139 270.553 731.197 267.621C728.256 264.689 726.593 260.713 726.571 256.56C726.602 252.456 728.257 248.531 731.175 245.645C734.093 242.758 738.035 241.145 742.139 241.159V241.159Z" fill="#ACD9F3"/>
<path d="M881.974 90.4856C882 93.547 881.117 96.5473 879.438 99.1067C877.758 101.666 875.356 103.669 872.537 104.863C869.718 106.057 866.608 106.387 863.601 105.812C860.594 105.237 857.825 103.783 855.645 101.633C853.465 99.4839 851.972 96.7359 851.355 93.7373C850.738 90.7387 851.025 87.6244 852.178 84.7888C853.332 81.9531 855.302 79.5236 857.837 77.808C860.373 76.0923 863.36 75.1676 866.422 75.151C870.514 75.1331 874.447 76.7361 877.362 79.6096C880.276 82.483 881.934 86.3933 881.974 90.4856Z" fill="#ACD9F3"/>
<path d="M508.327 256.66C508.342 258.663 507.959 260.65 507.2 262.504C506.441 264.358 505.321 266.043 503.905 267.461C502.489 268.878 500.805 270 498.952 270.761C497.099 271.522 495.112 271.908 493.109 271.894C491.104 271.91 489.115 271.53 487.257 270.777C485.399 270.024 483.707 268.912 482.279 267.505C480.85 266.098 479.712 264.424 478.931 262.577C478.149 260.731 477.739 258.748 477.724 256.743C477.724 252.645 479.352 248.715 482.25 245.817C485.148 242.92 489.078 241.292 493.176 241.292C497.222 241.323 501.091 242.959 503.932 245.84C506.773 248.722 508.353 252.613 508.327 256.66V256.66Z" fill="#ACD9F3"/>
<path d="M410.24 158.341C412.293 158.273 414.339 158.619 416.255 159.357C418.172 160.096 419.92 161.213 421.397 162.641C422.873 164.07 424.047 165.78 424.849 167.672C425.65 169.563 426.064 171.596 426.064 173.65C426.064 175.704 425.65 177.738 424.849 179.629C424.047 181.52 422.873 183.231 421.397 184.659C419.92 186.087 418.172 187.204 416.255 187.943C414.339 188.682 412.293 189.028 410.24 188.96C406.267 188.829 402.501 187.158 399.737 184.301C396.973 181.445 395.428 177.625 395.428 173.65C395.428 169.675 396.973 165.856 399.737 162.999C402.501 160.142 406.267 158.472 410.24 158.341V158.341Z" fill="#ACD9F3"/>
<path d="M383.859 48.826C383.859 51.7915 382.981 54.6908 381.337 57.159C379.693 59.6271 377.356 61.554 374.62 62.6971C371.883 63.8402 368.87 64.1484 365.959 63.5831C363.048 63.0177 360.369 61.604 358.259 59.5198C356.149 57.4356 354.703 54.7741 354.103 51.87C353.502 48.9659 353.774 45.949 354.883 43.1989C355.993 40.4488 357.891 38.0884 360.339 36.4145C362.788 34.7407 365.676 33.8283 368.641 33.792C370.631 33.7677 372.606 34.1386 374.451 34.8832C376.296 35.6278 377.975 36.7314 379.391 38.1299C380.806 39.5283 381.93 41.1939 382.697 43.03C383.464 44.866 383.859 46.8361 383.859 48.826Z" fill="#ACD9F3"/>
<path d="M881.652 132.329C881.622 135.296 880.716 138.188 879.046 140.641C877.376 143.093 875.018 144.997 872.268 146.111C869.518 147.226 866.5 147.503 863.594 146.906C860.688 146.309 858.023 144.865 855.936 142.757C853.848 140.648 852.431 137.969 851.863 135.057C851.295 132.145 851.601 129.13 852.744 126.392C853.886 123.653 855.813 121.314 858.282 119.669C860.751 118.023 863.651 117.145 866.618 117.145C868.605 117.145 870.572 117.539 872.406 118.304C874.24 119.069 875.904 120.19 877.302 121.602C878.7 123.014 879.805 124.689 880.551 126.53C881.298 128.371 881.672 130.343 881.652 132.329V132.329Z" fill="#ACD9F3"/>
<path d="M368.825 22.5499C364.838 22.5499 361.014 20.9659 358.194 18.1465C355.375 15.3271 353.791 11.5032 353.791 7.5159C353.791 3.52864 355.375 -0.295292 358.194 -3.11471C361.014 -5.93412 364.838 -7.51807 368.825 -7.51807C372.812 -7.51807 376.636 -5.93412 379.456 -3.11471C382.275 -0.295292 383.859 3.52864 383.859 7.5159C383.859 11.5032 382.275 15.3271 379.456 18.1465C376.636 20.9659 372.812 22.5499 368.825 22.5499Z" fill="#ACD9F3"/>
<path d="M368.611 75.6675C372.555 75.6669 376.342 77.2164 379.154 79.9819C381.966 82.7473 383.579 86.5072 383.645 90.4509C383.645 94.4474 382.064 98.2818 379.248 101.117C376.431 103.952 372.608 105.559 368.611 105.585C364.659 105.532 360.886 103.925 358.11 101.111C355.334 98.2978 353.777 94.5039 353.778 90.5511C353.767 88.5977 354.142 86.6614 354.883 84.854C355.624 83.0465 356.716 81.4036 358.095 80.0199C359.474 78.6363 361.113 77.5394 362.918 76.7924C364.723 76.0454 366.658 75.663 368.611 75.6675V75.6675Z" fill="#ACD9F3"/>
<path d="M825.191 230.054C822.254 230.061 819.382 229.195 816.938 227.565C814.495 225.936 812.591 223.617 811.467 220.904C810.344 218.19 810.053 215.204 810.631 212.324C811.208 209.445 812.628 206.802 814.711 204.731C816.793 202.66 819.444 201.255 822.327 200.694C825.21 200.133 828.194 200.441 830.902 201.579C833.609 202.718 835.917 204.635 837.532 207.088C839.148 209.54 839.998 212.418 839.974 215.355C839.939 219.257 838.368 222.988 835.601 225.74C832.833 228.491 829.093 230.041 825.191 230.054V230.054Z" fill="#ACD9F3"/>
<path d="M798.134 256.594C798.005 260.413 796.398 264.033 793.65 266.69C790.903 269.346 787.231 270.831 783.409 270.831C779.587 270.831 775.915 269.346 773.168 266.69C770.421 264.033 768.813 260.413 768.684 256.594C768.618 254.618 768.949 252.65 769.659 250.805C770.369 248.961 771.443 247.278 772.817 245.857C774.191 244.436 775.837 243.306 777.656 242.534C779.476 241.762 781.433 241.365 783.409 241.365C785.386 241.365 787.342 241.762 789.162 242.534C790.981 243.306 792.627 244.436 794.001 245.857C795.375 247.278 796.449 248.961 797.159 250.805C797.869 252.65 798.201 254.618 798.134 256.594Z" fill="#ACD9F3"/>
<path d="M383.245 131.962C383.228 135.794 381.709 139.467 379.013 142.19C376.317 144.914 372.661 146.472 368.829 146.528C364.92 146.506 361.179 144.937 358.424 142.163C355.669 139.389 354.125 135.638 354.129 131.728C354.152 127.856 355.711 124.151 358.465 121.429C361.218 118.707 364.941 117.19 368.813 117.212C372.685 117.234 376.389 118.794 379.112 121.547C381.834 124.301 383.351 128.023 383.329 131.895L383.245 131.962Z" fill="#ACD9F3"/>
<path d="M881.003 173.542C881.016 176.408 880.179 179.213 878.599 181.603C877.019 183.994 874.766 185.863 872.125 186.974C869.484 188.085 866.572 188.388 863.758 187.846C860.945 187.303 858.355 185.939 856.316 183.926C854.277 181.912 852.88 179.34 852.302 176.533C851.724 173.727 851.991 170.812 853.068 168.156C854.146 165.501 855.986 163.225 858.356 161.614C860.726 160.004 863.521 159.133 866.386 159.109C868.298 159.083 870.195 159.437 871.968 160.15C873.742 160.864 875.355 161.923 876.716 163.266C878.076 164.609 879.155 166.209 879.891 167.973C880.627 169.738 881.005 171.631 881.003 173.542V173.542Z" fill="#ACD9F3"/>
<path d="M395.939 214.915C395.957 211.087 397.494 207.423 400.214 204.729C402.933 202.035 406.611 200.531 410.439 200.549C414.266 200.567 417.93 202.104 420.624 204.823C423.318 207.542 424.822 211.22 424.804 215.048C424.765 218.852 423.238 222.489 420.55 225.181C417.861 227.872 414.226 229.404 410.422 229.447C408.513 229.459 406.62 229.09 404.855 228.363C403.089 227.636 401.486 226.565 400.138 225.213C398.791 223.86 397.725 222.253 397.004 220.485C396.283 218.717 395.921 216.824 395.939 214.915Z" fill="#ACD9F3"/>
<path d="M451.648 242.23C453.532 242.208 455.401 242.559 457.149 243.262C458.897 243.966 460.488 245.008 461.831 246.33C463.174 247.651 464.243 249.225 464.975 250.961C465.707 252.697 466.088 254.561 466.097 256.445C466.14 259.308 465.331 262.119 463.772 264.52C462.213 266.921 459.976 268.805 457.343 269.931C454.711 271.057 451.804 271.375 448.99 270.845C446.177 270.314 443.585 268.958 441.544 266.951C439.503 264.943 438.106 262.373 437.529 259.569C436.953 256.765 437.223 253.852 438.306 251.202C439.389 248.552 441.236 246.284 443.612 244.686C445.988 243.088 448.785 242.233 451.648 242.23Z" fill="#ACD9F3"/>
<path d="M908.098 35.0443C910.911 35.0211 913.668 35.8341 916.018 37.3801C918.368 38.9262 920.206 41.1355 921.299 43.7279C922.392 46.3202 922.69 49.1787 922.155 51.9407C921.62 54.7026 920.277 57.2435 918.296 59.2409C916.315 61.2384 913.786 62.6023 911.028 63.1598C908.271 63.7172 905.41 63.4429 902.809 62.3717C900.207 61.3006 897.983 59.4808 896.417 57.1434C894.852 54.806 894.016 52.0562 894.016 49.243C894.007 45.4948 895.484 41.8958 898.124 39.2344C900.763 36.5731 904.35 35.0664 908.098 35.0443V35.0443Z" fill="#ACD9F3"/>
<path d="M908.147 21.9644C904.481 21.828 901.011 20.273 898.47 17.6274C895.928 14.9817 894.514 11.4524 894.524 7.78379C894.535 4.11521 895.971 0.594255 898.528 -2.03632C901.085 -4.66689 904.564 -6.20139 908.231 -6.31613C911.983 -6.28534 915.573 -4.77513 918.219 -2.1135C920.865 0.548139 922.354 4.14624 922.362 7.89931C922.356 9.75719 921.983 11.5955 921.264 13.3088C920.545 15.0221 919.496 16.5767 918.175 17.8834C916.854 19.1902 915.289 20.2233 913.568 20.9236C911.847 21.6239 910.005 21.9776 908.147 21.9644V21.9644Z" fill="#ACD9F3"/>
<path d="M908.098 104.618C906.263 104.622 904.445 104.263 902.75 103.561C901.054 102.86 899.514 101.829 898.219 100.529C896.924 99.2294 895.899 97.686 895.203 95.9879C894.508 94.2899 894.155 92.4709 894.166 90.636C894.153 88.7763 894.509 86.9324 895.213 85.2111C895.917 83.4898 896.955 81.9251 898.268 80.6077C899.581 79.2904 901.142 78.2465 902.86 77.5363C904.579 76.8262 906.422 76.464 908.282 76.4706C911.988 76.5312 915.526 78.034 918.142 80.6601C920.759 83.2862 922.249 86.8288 922.297 90.5358C922.299 92.3955 921.932 94.2372 921.218 95.9544C920.504 97.6716 919.456 99.23 918.136 100.54C916.815 101.849 915.248 102.884 913.525 103.584C911.802 104.284 909.958 104.635 908.098 104.618V104.618Z" fill="#ACD9F3"/>
<path d="M382.692 173.576C382.701 175.433 382.342 177.274 381.636 178.991C380.93 180.708 379.891 182.269 378.579 183.583C377.266 184.897 375.707 185.938 373.99 186.646C372.274 187.354 370.434 187.715 368.577 187.708C364.876 187.644 361.345 186.141 358.733 183.519C356.12 180.897 354.63 177.361 354.579 173.66C354.581 171.803 354.951 169.965 355.667 168.251C356.383 166.538 357.431 164.984 358.751 163.678C360.071 162.372 361.637 161.34 363.358 160.642C365.079 159.944 366.92 159.594 368.777 159.611C370.61 159.609 372.424 159.969 374.117 160.671C375.809 161.373 377.346 162.402 378.639 163.7C379.932 164.998 380.956 166.538 381.652 168.233C382.347 169.928 382.701 171.744 382.692 173.576V173.576Z" fill="#ACD9F3"/>
<path d="M811.378 256.627C811.36 254.816 811.703 253.021 812.386 251.344C813.069 249.667 814.079 248.143 815.357 246.86C816.635 245.578 818.155 244.562 819.829 243.873C821.503 243.184 823.298 242.835 825.109 242.846C828.767 242.815 832.288 244.236 834.9 246.797C837.511 249.359 839 252.852 839.04 256.51C839.042 258.346 838.683 260.165 837.982 261.862C837.282 263.559 836.254 265.101 834.957 266.401C833.66 267.701 832.12 268.733 830.424 269.438C828.729 270.142 826.911 270.506 825.075 270.508C823.264 270.497 821.473 270.129 819.804 269.426C818.135 268.722 816.621 267.696 815.349 266.407C814.077 265.118 813.071 263.59 812.39 261.912C811.708 260.234 811.364 258.438 811.378 256.627V256.627Z" fill="#ACD9F3"/>
<path d="M880.202 215.286C880.078 218.834 878.581 222.195 876.028 224.661C873.474 227.127 870.063 228.505 866.513 228.505C862.963 228.505 859.551 227.127 856.998 224.661C854.444 222.195 852.947 218.834 852.823 215.286C852.759 213.448 853.066 211.616 853.725 209.899C854.384 208.182 855.382 206.616 856.659 205.293C857.937 203.97 859.468 202.918 861.16 202.199C862.853 201.481 864.674 201.11 866.513 201.11C868.352 201.11 870.172 201.481 871.865 202.199C873.558 202.918 875.088 203.97 876.366 205.293C877.643 206.616 878.641 208.182 879.3 209.899C879.959 211.616 880.266 213.448 880.202 215.286V215.286Z" fill="#ACD9F3"/>
<path d="M327.33 35.2584C330.878 35.3823 334.239 36.8788 336.705 39.4325C339.171 41.9862 340.55 45.3976 340.55 48.9476C340.55 52.4976 339.171 55.909 336.705 58.4627C334.239 61.0164 330.878 62.5129 327.33 62.6368C325.492 62.7011 323.66 62.3945 321.943 61.7355C320.226 61.0764 318.66 60.0784 317.337 58.8009C316.014 57.5234 314.962 55.9926 314.243 54.2997C313.525 52.6069 313.154 50.7866 313.154 48.9476C313.154 47.1085 313.525 45.2883 314.243 43.5955C314.962 41.9026 316.014 40.3718 317.337 39.0943C318.66 37.8168 320.226 36.8187 321.943 36.1597C323.66 35.5007 325.492 35.1941 327.33 35.2584V35.2584Z" fill="#ACD9F3"/>
<path d="M921.859 132.161C921.881 134.866 921.103 137.518 919.62 139.781C918.138 142.044 916.019 143.818 913.529 144.878C911.04 145.938 908.293 146.238 905.634 145.738C902.975 145.239 900.523 143.964 898.588 142.073C896.653 140.182 895.322 137.761 894.761 135.114C894.201 132.467 894.436 129.713 895.439 127.201C896.441 124.688 898.166 122.528 900.394 120.994C902.623 119.459 905.255 118.62 907.961 118.58C909.765 118.558 911.556 118.892 913.232 119.563C914.907 120.233 916.434 121.228 917.725 122.489C919.016 123.75 920.045 125.254 920.755 126.913C921.464 128.573 921.839 130.356 921.859 132.161V132.161Z" fill="#ACD9F3"/>
<path d="M327.301 21.2477C324.613 21.2411 321.987 20.438 319.756 18.9399C317.524 17.4418 315.786 15.3159 314.762 12.8308C313.738 10.3456 313.474 7.61265 314.002 4.97722C314.531 2.34179 315.828 -0.0778898 317.731 -1.97618C319.634 -3.87446 322.057 -5.16619 324.694 -5.68815C327.33 -6.21011 330.063 -5.93888 332.545 -4.90875C335.028 -3.87862 337.15 -2.13581 338.642 0.0995364C340.135 2.33488 340.932 4.96248 340.932 7.65037C340.934 9.43944 340.582 11.2113 339.898 12.8642C339.213 14.5171 338.209 16.0184 336.942 17.2819C335.676 18.5454 334.172 19.5462 332.517 20.2268C330.863 20.9074 329.09 21.2544 327.301 21.2477V21.2477Z" fill="#ACD9F3"/>
<path d="M327.202 104.066C325.415 104.067 323.647 103.709 322.001 103.015C320.355 102.32 318.866 101.303 317.62 100.023C316.374 98.7429 315.397 97.226 314.748 95.562C314.098 93.898 313.789 92.1206 313.838 90.335C313.878 86.7625 315.33 83.3511 317.879 80.8468C320.427 78.3426 323.863 76.9492 327.435 76.9715C330.981 77.0578 334.356 78.5161 336.848 81.0397C339.34 83.5633 340.757 86.9554 340.799 90.5021C340.806 92.288 340.458 94.0576 339.777 95.7084C339.095 97.3592 338.094 98.8587 336.829 100.12C335.565 101.381 334.063 102.379 332.41 103.057C330.758 103.734 328.987 104.077 327.202 104.066V104.066Z" fill="#ACD9F3"/>
<path d="M423.751 256.664C423.751 260.209 422.343 263.608 419.837 266.114C417.33 268.62 413.931 270.028 410.387 270.028C406.833 270.05 403.415 268.667 400.877 266.179C398.34 263.692 396.888 260.301 396.84 256.748C396.849 253.143 398.284 249.688 400.831 247.137C403.379 244.586 406.832 243.147 410.437 243.134C413.994 243.174 417.39 244.619 419.884 247.154C422.378 249.689 423.769 253.108 423.751 256.664V256.664Z" fill="#ACD9F3"/>
<path d="M355.463 215.016C355.548 211.573 356.967 208.299 359.42 205.883C361.874 203.466 365.17 202.098 368.613 202.065C372.056 202.033 375.378 203.339 377.876 205.708C380.375 208.078 381.856 211.325 382.006 214.765C382.084 216.546 381.802 218.324 381.178 219.993C380.554 221.662 379.601 223.189 378.375 224.482C377.148 225.776 375.674 226.809 374.04 227.52C372.406 228.232 370.646 228.607 368.864 228.624C367.082 228.641 365.315 228.299 363.667 227.618C362.02 226.938 360.527 225.933 359.277 224.663C358.026 223.393 357.044 221.884 356.389 220.227C355.733 218.57 355.418 216.797 355.463 215.016V215.016Z" fill="#ACD9F3"/>
<path d="M327.149 145.109C325.412 145.094 323.695 144.736 322.097 144.055C320.498 143.375 319.05 142.385 317.834 141.144C316.619 139.902 315.661 138.433 315.015 136.82C314.369 135.207 314.048 133.483 314.07 131.746C314.165 128.286 315.599 124.998 318.07 122.573C320.54 120.149 323.855 118.779 327.317 118.75C329.06 118.754 330.785 119.104 332.393 119.78C334 120.456 335.457 121.444 336.68 122.686C337.903 123.929 338.867 125.403 339.516 127.021C340.165 128.639 340.487 130.37 340.463 132.113C340.461 133.846 340.113 135.561 339.44 137.158C338.766 138.755 337.78 140.201 336.54 141.412C335.3 142.622 333.83 143.573 332.218 144.208C330.605 144.843 328.882 145.149 327.149 145.109Z" fill="#ACD9F3"/>
<path d="M921.291 173.509C921.199 176.915 919.787 180.153 917.354 182.538C914.921 184.924 911.657 186.272 908.25 186.298C904.843 186.324 901.559 185.026 899.09 182.678C896.621 180.329 895.16 177.114 895.015 173.71C894.94 171.946 895.221 170.186 895.841 168.534C896.461 166.881 897.408 165.371 898.624 164.092C899.84 162.813 901.302 161.792 902.921 161.09C904.54 160.388 906.285 160.019 908.05 160.006C909.814 159.992 911.564 160.335 913.194 161.012C914.824 161.689 916.3 162.687 917.536 163.947C918.772 165.208 919.741 166.704 920.386 168.346C921.031 169.989 921.339 171.745 921.291 173.509V173.509Z" fill="#ACD9F3"/>
<path d="M866.42 243.962C869.787 243.913 873.036 245.204 875.451 247.551C877.866 249.897 879.25 253.107 879.299 256.474C879.348 259.841 878.057 263.089 875.711 265.504C873.364 267.92 870.155 269.304 866.788 269.353C865.12 269.377 863.465 269.072 861.915 268.457C860.366 267.841 858.953 266.926 857.757 265.764C855.342 263.418 853.957 260.208 853.909 256.841C853.86 253.474 855.151 250.226 857.497 247.81C859.843 245.395 863.053 244.011 866.42 243.962Z" fill="#ACD9F3"/>
<path d="M339.899 173.556C339.924 175.22 339.615 176.872 338.99 178.414C338.365 179.956 337.437 181.358 336.262 182.535C335.086 183.713 333.686 184.642 332.144 185.269C330.603 185.896 328.951 186.207 327.288 186.185C325.623 186.191 323.974 185.868 322.435 185.232C320.897 184.597 319.5 183.662 318.325 182.483C317.151 181.304 316.222 179.903 315.592 178.362C314.963 176.821 314.646 175.171 314.659 173.506C314.719 170.199 316.057 167.044 318.393 164.702C320.728 162.36 323.88 161.013 327.187 160.944C328.851 160.933 330.501 161.251 332.042 161.88C333.583 162.509 334.984 163.436 336.165 164.608C337.347 165.78 338.285 167.174 338.925 168.709C339.566 170.245 339.897 171.892 339.899 173.556V173.556Z" fill="#ACD9F3"/>
<path d="M949.488 61.8022C947.826 61.8093 946.18 61.4838 944.645 60.8449C943.111 60.206 941.72 59.2667 940.554 58.0822C939.388 56.8977 938.471 55.4919 937.857 53.9476C937.243 52.4034 936.943 50.7519 936.977 49.0902C936.994 45.7787 938.315 42.6072 940.654 40.2624C942.992 37.9177 946.16 36.5882 949.472 36.5619C952.832 36.5705 956.054 37.9024 958.439 40.2691C960.825 42.6359 962.182 45.8469 962.217 49.2071C962.215 50.8718 961.883 52.5196 961.241 54.0555C960.599 55.5914 959.659 56.9849 958.476 58.1558C957.293 59.3267 955.889 60.2517 954.347 60.8776C952.804 61.5034 951.153 61.8177 949.488 61.8022V61.8022Z" fill="#ACD9F3"/>
<path d="M937.046 7.46287C937.272 4.24135 938.733 1.2314 941.123 -0.940439C943.513 -3.11228 946.649 -4.27869 949.877 -4.1969C953.106 -4.11511 956.178 -2.79142 958.455 -0.501341C960.733 1.78874 962.039 4.86877 962.102 8.09764C962.006 11.4122 960.617 14.5576 958.232 16.8613C955.847 19.1651 952.656 20.4443 949.34 20.4255C947.679 20.391 946.041 20.0272 944.521 19.3553C943.001 18.6833 941.63 17.7165 940.486 16.5109C939.343 15.3053 938.45 13.8848 937.859 12.3317C937.269 10.7785 936.992 9.12366 937.046 7.46287V7.46287Z" fill="#ACD9F3"/>
<path d="M937.062 90.5825C937.052 88.9373 937.366 87.3062 937.987 85.7824C938.607 84.2586 939.522 82.872 940.678 81.7016C943.013 79.338 946.192 77.999 949.515 77.979C952.838 77.9591 956.032 79.2599 958.396 81.5954C960.759 83.9308 962.098 87.1095 962.118 90.4322C962.128 92.0774 961.814 93.7085 961.193 95.2323C960.573 96.7561 959.658 98.1427 958.502 99.313C956.167 101.677 952.988 103.016 949.665 103.036C946.342 103.056 943.148 101.755 940.784 99.4193C938.421 97.0839 937.082 93.9053 937.062 90.5825V90.5825Z" fill="#ACD9F3"/>
<path d="M908.215 202.956C911.481 202.947 914.617 204.232 916.936 206.53C919.256 208.828 920.571 211.951 920.593 215.217C920.587 216.859 920.257 218.484 919.622 219.998C918.986 221.513 918.059 222.887 916.892 224.043C915.726 225.199 914.343 226.113 912.822 226.734C911.302 227.355 909.674 227.67 908.032 227.661C904.766 227.613 901.653 226.273 899.374 223.934C897.095 221.595 895.835 218.449 895.871 215.183C895.864 213.566 896.18 211.963 896.799 210.469C897.418 208.974 898.329 207.619 899.479 206.48C900.628 205.342 901.992 204.444 903.492 203.839C904.992 203.234 906.598 202.933 908.215 202.956Z" fill="#ACD9F3"/>
<path d="M380.922 256.644C380.936 258.255 380.628 259.852 380.017 261.343C379.406 262.834 378.505 264.188 377.365 265.326C376.225 266.464 374.87 267.364 373.378 267.973C371.887 268.582 370.289 268.887 368.678 268.872C365.42 268.88 362.292 267.596 359.981 265.3C357.669 263.004 356.363 259.885 356.35 256.627C356.389 253.371 357.701 250.26 360.005 247.959C362.309 245.658 365.422 244.351 368.678 244.316C371.936 244.329 375.055 245.635 377.351 247.947C379.647 250.258 380.931 253.386 380.922 256.644V256.644Z" fill="#ACD9F3"/>
<path d="M961.716 132.363C961.696 134.772 960.961 137.12 959.605 139.11C958.248 141.101 956.331 142.643 954.097 143.543C951.862 144.442 949.411 144.658 947.054 144.162C944.697 143.667 942.54 142.482 940.857 140.759C939.174 139.036 938.04 136.852 937.6 134.484C937.16 132.116 937.433 129.671 938.384 127.458C939.336 125.245 940.923 123.365 942.944 122.055C944.966 120.746 947.331 120.066 949.739 120.102C952.949 120.155 956.007 121.473 958.25 123.769C960.493 126.065 961.739 129.153 961.716 132.363V132.363Z" fill="#ACD9F3"/>
<path d="M297.684 48.8069C297.708 50.3984 297.417 51.9788 296.827 53.4569C296.236 54.9351 295.359 56.2815 294.245 57.4186C293.132 58.5556 291.804 59.4606 290.338 60.0812C288.872 60.7019 287.298 61.0259 285.707 61.0346C282.506 61.004 279.445 59.7177 277.183 57.4527C274.921 55.1876 273.639 52.1249 273.613 48.9239C273.617 45.76 274.868 42.7252 277.094 40.4771C279.32 38.2289 282.343 36.9486 285.506 36.9134C287.093 36.8732 288.671 37.1513 290.148 37.7312C291.625 38.3111 292.97 39.1811 294.106 40.2898C295.241 41.3984 296.142 42.7233 296.757 44.1862C297.371 45.649 297.687 47.2202 297.684 48.8069V48.8069Z" fill="#ACD9F3"/>
<path d="M297.6 7.58173C297.623 9.15447 297.331 10.7158 296.742 12.1745C296.154 13.6331 295.28 14.9597 294.173 16.0766C293.065 17.1934 291.746 18.0781 290.292 18.6789C288.839 19.2797 287.28 19.5845 285.707 19.5755C282.531 19.5934 279.478 18.3547 277.212 16.1297C274.946 13.9047 273.652 10.8739 273.613 7.69865C273.622 4.48187 274.901 1.39886 277.172 -0.878878C279.444 -3.15661 282.523 -4.44454 285.74 -4.46216C288.907 -4.4269 291.931 -3.14085 294.152 -0.884562C296.374 1.37172 297.614 4.41513 297.6 7.58173Z" fill="#ACD9F3"/>
<path d="M285.755 78.6763C288.845 78.8149 291.76 80.1462 293.887 82.3902C296.015 84.6343 297.189 87.616 297.163 90.7082C297.137 93.8004 295.913 96.762 293.748 98.97C291.583 101.178 288.646 102.46 285.555 102.547C283.951 102.592 282.353 102.313 280.859 101.727C279.365 101.141 278.004 100.26 276.858 99.1359C275.712 98.0121 274.804 96.6689 274.189 95.1864C273.573 93.7039 273.263 92.1126 273.277 90.5076C273.29 88.9025 273.627 87.3167 274.267 85.8447C274.907 84.3728 275.838 83.045 277.002 81.9407C278.167 80.8363 279.543 79.978 281.046 79.4172C282.55 78.8563 284.152 78.6043 285.755 78.6763Z" fill="#ACD9F3"/>
<path d="M327.37 226.708C324.233 226.721 321.22 225.488 318.992 223.28C316.765 221.071 315.506 218.068 315.493 214.931C315.479 211.795 316.713 208.781 318.921 206.554C321.13 204.327 324.133 203.068 327.269 203.055C330.406 203.041 333.419 204.275 335.647 206.483C337.874 208.692 339.133 211.695 339.146 214.831C339.16 217.968 337.926 220.981 335.718 223.209C333.509 225.436 330.506 226.695 327.37 226.708V226.708Z" fill="#ACD9F3"/>
<path d="M949.537 162.046C952.598 162.046 955.534 163.262 957.699 165.427C959.864 167.592 961.08 170.528 961.08 173.589C961.08 176.65 959.864 179.586 957.699 181.751C955.534 183.916 952.598 185.132 949.537 185.132C946.476 185.132 943.54 183.916 941.375 181.751C939.21 179.586 937.994 176.65 937.994 173.589C937.994 170.528 939.21 167.592 941.375 165.427C943.54 163.262 946.476 162.046 949.537 162.046V162.046Z" fill="#ACD9F3"/>
<path d="M285.507 120.386C287.788 120.363 290.025 121.017 291.935 122.264C293.845 123.512 295.343 125.298 296.238 127.396C297.134 129.494 297.388 131.811 296.968 134.053C296.548 136.296 295.473 138.364 293.878 139.995C292.284 141.627 290.242 142.75 288.009 143.221C285.777 143.693 283.455 143.493 281.337 142.646C279.219 141.799 277.399 140.343 276.107 138.462C274.816 136.582 274.111 134.36 274.081 132.079C274.059 130.56 274.337 129.051 274.9 127.64C275.463 126.229 276.3 124.943 277.362 123.856C278.424 122.77 279.69 121.904 281.088 121.308C282.486 120.712 283.987 120.399 285.507 120.386Z" fill="#ACD9F3"/>
<path d="M919.54 256.779C919.509 259.796 918.284 262.678 916.134 264.795C913.983 266.911 911.081 268.089 908.064 268.071C905.049 267.997 902.182 266.75 900.073 264.594C897.964 262.438 896.78 259.544 896.772 256.529C896.913 253.583 898.19 250.806 900.336 248.783C902.481 246.76 905.328 245.647 908.277 245.68C911.226 245.712 914.047 246.887 916.148 248.957C918.248 251.027 919.464 253.831 919.54 256.779Z" fill="#ACD9F3"/>
<path d="M296.614 173.524C296.628 175.694 295.997 177.819 294.803 179.631C293.609 181.443 291.904 182.86 289.905 183.703C287.906 184.546 285.701 184.778 283.57 184.369C281.439 183.96 279.478 182.928 277.933 181.404C276.388 179.88 275.33 177.933 274.891 175.808C274.453 173.683 274.654 171.475 275.47 169.464C276.286 167.454 277.68 165.73 279.475 164.511C281.27 163.292 283.386 162.633 285.556 162.616C287.001 162.599 288.434 162.868 289.774 163.408C291.114 163.948 292.333 164.748 293.362 165.763C294.39 166.777 295.207 167.985 295.765 169.318C296.324 170.65 296.612 172.08 296.614 173.524V173.524Z" fill="#ACD9F3"/>
<path d="M327.387 245.835C328.806 245.826 330.212 246.1 331.523 246.641C332.835 247.182 334.026 247.978 335.026 248.985C336.026 249.991 336.815 251.187 337.348 252.501C337.88 253.816 338.146 255.224 338.128 256.643C338.141 259.51 337.019 262.265 335.006 264.306C332.993 266.347 330.253 267.508 327.387 267.534C324.47 267.516 321.679 266.345 319.622 264.277C317.566 262.208 316.412 259.409 316.412 256.492C316.46 253.626 317.642 250.895 319.699 248.898C321.756 246.901 324.52 245.799 327.387 245.835V245.835Z" fill="#ACD9F3"/>
<path d="M991.132 60.0334C989.712 60.0424 988.306 59.7679 986.994 59.2259C985.682 58.6838 984.492 57.8853 983.493 56.877C982.494 55.8687 981.706 54.671 981.177 53.3542C980.647 52.0374 980.385 50.6281 980.408 49.2089C980.394 46.3422 981.517 43.587 983.53 41.5459C985.543 39.5049 988.282 38.3441 991.148 38.3176C994.064 38.3441 996.851 39.5208 998.903 41.5918C1000.96 43.6628 1002.11 46.4604 1002.11 49.3759C1002.05 52.2411 1000.87 54.9692 998.815 56.9656C996.759 58.962 993.997 60.0647 991.132 60.0334V60.0334Z" fill="#ACD9F3"/>
<path d="M949.689 226.023C948.274 226.054 946.867 225.803 945.55 225.285C944.233 224.766 943.033 223.99 942.019 223.003C941.005 222.016 940.198 220.836 939.645 219.533C939.092 218.231 938.804 216.831 938.797 215.416C938.757 212.553 939.852 209.792 941.844 207.735C943.835 205.678 946.559 204.494 949.421 204.441C952.282 204.44 955.029 205.558 957.077 207.555C959.125 209.553 960.31 212.272 960.38 215.132C960.393 216.549 960.127 217.955 959.597 219.269C959.066 220.583 958.283 221.78 957.29 222.792C956.297 223.803 955.115 224.609 953.811 225.163C952.507 225.718 951.106 226.01 949.689 226.023Z" fill="#ACD9F3"/>
<path d="M991.101 -2.90804C993.96 -2.93934 996.716 -1.83785 998.766 0.155851C1000.82 2.14955 1001.99 4.87346 1002.04 7.73268C1002.04 10.5948 1000.92 13.3422 998.917 15.3893C996.917 17.4364 994.196 18.6211 991.335 18.6908C988.474 18.7042 985.724 17.5862 983.683 15.5805C981.643 13.5748 980.479 10.844 980.443 7.98323C980.419 6.56592 980.676 5.1579 981.2 3.84081C981.725 2.52372 982.505 1.32378 983.496 0.310619C984.488 -0.702537 985.67 -1.50876 986.976 -2.06128C988.281 -2.6138 989.683 -2.90162 991.101 -2.90804V-2.90804Z" fill="#ACD9F3"/>
<path d="M991.235 79.8959C993.353 79.8993 995.422 80.5317 997.18 81.7129C998.938 82.8941 1000.31 84.571 1001.11 86.5306C1001.91 88.4902 1002.12 90.6443 1001.69 92.7197C1001.27 94.7951 1000.24 96.6982 998.736 98.1876C997.23 99.677 995.315 100.686 993.236 101.085C991.156 101.485 989.004 101.258 987.053 100.433C985.103 99.608 983.441 98.2222 982.279 96.4513C981.117 94.6805 980.507 92.6044 980.527 90.4865C980.545 87.6629 981.683 84.9617 983.69 82.976C985.698 80.9903 988.411 79.8825 991.235 79.8959Z" fill="#ACD9F3"/>
<path d="M980.908 132.363C980.875 131.019 981.109 129.682 981.596 128.428C982.083 127.175 982.813 126.03 983.745 125.061C984.677 124.092 985.792 123.317 987.026 122.781C988.259 122.245 989.586 121.959 990.931 121.94C992.985 121.877 995.011 122.427 996.751 123.521C998.49 124.614 999.865 126.201 1000.7 128.079C1001.53 129.957 1001.79 132.041 1001.43 134.065C1001.08 136.089 1000.13 137.961 998.701 139.442C997.277 140.923 995.444 141.946 993.436 142.381C991.427 142.816 989.335 142.642 987.426 141.883C985.517 141.123 983.877 139.812 982.716 138.117C981.555 136.421 980.926 134.418 980.908 132.363V132.363Z" fill="#ACD9F3"/>
<path d="M234.142 48.6556C234.195 45.9575 235.318 43.3911 237.263 41.5209C239.209 39.6507 241.817 38.6299 244.515 38.683C247.213 38.7362 249.78 39.859 251.65 41.8044C253.52 43.7498 254.541 46.3584 254.488 49.0565C254.418 51.7564 253.289 54.3205 251.345 56.1956C249.401 58.0707 246.798 59.1063 244.098 59.0791C242.759 59.0509 241.439 58.7587 240.213 58.2191C238.987 57.6795 237.88 56.9033 236.955 55.9348C236.03 54.9664 235.305 53.8249 234.823 52.5757C234.34 51.3266 234.109 49.9944 234.142 48.6556V48.6556Z" fill="#ACD9F3"/>
<path d="M285.739 204.828C288.368 204.935 290.853 206.054 292.676 207.952C294.498 209.85 295.516 212.379 295.516 215.01C295.516 217.641 294.498 220.17 292.676 222.068C290.853 223.965 288.368 225.085 285.739 225.191C283.032 225.183 280.438 224.112 278.513 222.209C276.589 220.306 275.488 217.724 275.449 215.018C275.449 213.671 275.716 212.338 276.234 211.095C276.752 209.853 277.512 208.725 278.469 207.777C279.425 206.83 280.561 206.081 281.808 205.575C283.056 205.069 284.392 204.815 285.739 204.828V204.828Z" fill="#ACD9F3"/>
<path d="M244.163 17.7016C242.16 17.6785 240.208 17.0633 238.553 15.9334C236.898 14.8035 235.615 13.2093 234.864 11.3516C234.113 9.49387 233.929 7.45557 234.334 5.49321C234.739 3.53085 235.715 1.73213 237.14 0.323422C238.565 -1.08529 240.375 -2.04102 242.342 -2.42352C244.308 -2.80601 246.344 -2.59818 248.193 -1.82616C250.042 -1.05414 251.622 0.247564 252.733 1.91513C253.844 3.58269 254.436 5.5416 254.437 7.54532C254.441 8.89023 254.178 10.2226 253.662 11.4645C253.145 12.7065 252.387 13.8331 251.431 14.7786C250.474 15.7242 249.339 16.4696 248.091 16.9715C246.843 17.4734 245.508 17.7216 244.163 17.7016V17.7016Z" fill="#ACD9F3"/>
<path d="M254.267 90.4995C254.292 91.8126 254.053 93.1174 253.566 94.3368C253.078 95.5562 252.351 96.6656 251.428 97.5997C250.505 98.5338 249.404 99.2736 248.19 99.7756C246.977 100.277 245.675 100.531 244.362 100.522C243.046 100.538 241.739 100.294 240.517 99.8042C239.295 99.3147 238.182 98.5894 237.24 97.6695C236.299 96.7497 235.548 95.6533 235.03 94.4432C234.512 93.233 234.237 91.9327 234.222 90.6165C234.222 87.9474 235.274 85.386 237.151 83.4877C239.027 81.5895 241.576 80.5077 244.245 80.4769C246.903 80.4769 249.452 81.5328 251.332 83.4125C253.211 85.2921 254.267 87.8414 254.267 90.4995V90.4995Z" fill="#ACD9F3"/>
<path d="M939.868 256.596C939.852 255.324 940.091 254.061 940.571 252.883C941.051 251.704 941.761 250.634 942.661 249.734C943.561 248.834 944.631 248.123 945.81 247.644C946.988 247.164 948.251 246.925 949.523 246.941C952.094 246.923 954.569 247.923 956.406 249.722C958.243 251.522 959.293 253.975 959.329 256.546C959.329 257.843 959.073 259.127 958.575 260.325C958.078 261.523 957.349 262.611 956.43 263.527C955.511 264.442 954.421 265.168 953.221 265.661C952.022 266.154 950.737 266.406 949.44 266.402C948.167 266.386 946.91 266.121 945.741 265.619C944.571 265.118 943.512 264.392 942.623 263.481C941.734 262.571 941.033 261.494 940.56 260.313C940.088 259.131 939.852 257.868 939.868 256.596V256.596Z" fill="#ACD9F3"/>
<path d="M1000.61 173.707C1000.61 174.98 1000.37 176.242 999.879 177.418C999.392 178.594 998.674 179.661 997.768 180.556C996.862 181.45 995.787 182.155 994.605 182.629C993.423 183.102 992.159 183.334 990.886 183.312C988.314 183.312 985.847 182.295 984.023 180.483C982.198 178.671 981.165 176.211 981.147 173.64C981.154 172.344 981.416 171.062 981.92 169.867C982.423 168.673 983.158 167.589 984.082 166.68C985.005 165.77 986.1 165.052 987.302 164.567C988.504 164.081 989.79 163.838 991.086 163.851C992.358 163.873 993.614 164.145 994.781 164.652C995.948 165.16 997.004 165.892 997.888 166.807C998.773 167.722 999.468 168.802 999.934 169.986C1000.4 171.17 1000.63 172.435 1000.61 173.707V173.707Z" fill="#ACD9F3"/>
<path d="M244.399 141.519C243.129 141.544 241.867 141.314 240.687 140.843C239.507 140.373 238.433 139.671 237.529 138.779C236.625 137.887 235.908 136.823 235.421 135.65C234.934 134.477 234.687 133.218 234.694 131.948C234.685 130.677 234.928 129.417 235.408 128.241C235.889 127.065 236.598 125.996 237.494 125.095C238.39 124.194 239.456 123.48 240.629 122.993C241.803 122.506 243.061 122.257 244.332 122.259C246.849 122.297 249.255 123.304 251.047 125.072C252.84 126.84 253.881 129.231 253.954 131.747C253.971 133.017 253.738 134.278 253.267 135.458C252.795 136.637 252.096 137.712 251.208 138.62C250.32 139.528 249.261 140.251 248.093 140.749C246.924 141.247 245.669 141.508 244.399 141.519V141.519Z" fill="#ACD9F3"/>
<path d="M285.74 247.556C286.942 247.549 288.134 247.784 289.244 248.247C290.354 248.711 291.359 249.393 292.2 250.254C293.04 251.115 293.698 252.136 294.135 253.256C294.572 254.377 294.779 255.574 294.743 256.777C294.739 257.977 294.498 259.165 294.033 260.272C293.569 261.379 292.89 262.384 292.036 263.228C291.183 264.072 290.171 264.74 289.059 265.192C287.947 265.644 286.756 265.873 285.556 265.864C283.132 265.811 280.825 264.812 279.129 263.079C277.434 261.346 276.485 259.017 276.485 256.593C276.494 255.39 276.741 254.201 277.212 253.095C277.683 251.988 278.368 250.985 279.228 250.145C280.089 249.305 281.107 248.643 282.225 248.199C283.342 247.755 284.537 247.536 285.74 247.556V247.556Z" fill="#ACD9F3"/>
<path d="M244.311 182.608C241.947 182.63 239.67 181.714 237.979 180.061C236.288 178.408 235.322 176.152 235.291 173.788C235.267 172.59 235.48 171.4 235.919 170.286C236.358 169.171 237.013 168.155 237.848 167.296C238.682 166.437 239.678 165.752 240.779 165.281C241.88 164.809 243.064 164.561 244.261 164.55C246.678 164.576 248.986 165.554 250.687 167.27C252.388 168.987 253.344 171.304 253.348 173.721C253.3 176.089 252.328 178.344 250.64 180.004C248.951 181.665 246.68 182.599 244.311 182.608Z" fill="#ACD9F3"/>
<path d="M990.998 206.413C992.173 206.415 993.336 206.651 994.42 207.108C995.503 207.564 996.484 208.231 997.307 209.071C998.13 209.911 998.777 210.906 999.211 211.998C999.644 213.091 999.857 214.258 999.834 215.434C999.778 217.752 998.827 219.958 997.179 221.59C995.532 223.222 993.316 224.153 990.998 224.187C989.822 224.198 988.657 223.975 987.569 223.531C986.48 223.087 985.491 222.43 984.66 221.6C983.828 220.77 983.169 219.782 982.723 218.695C982.277 217.607 982.052 216.442 982.061 215.267C982.045 214.092 982.266 212.927 982.71 211.84C983.155 210.753 983.814 209.767 984.648 208.941C985.482 208.114 986.474 207.465 987.565 207.03C988.656 206.596 989.824 206.386 990.998 206.413V206.413Z" fill="#ACD9F3"/>
<path d="M1023.84 49.1234C1023.84 47.9781 1024.06 46.8434 1024.5 45.7858C1024.94 44.7283 1025.59 43.7692 1026.4 42.9648C1027.22 42.1604 1028.18 41.527 1029.25 41.1015C1030.31 40.676 1031.45 40.4672 1032.59 40.4872C1034.91 40.4783 1037.14 41.3869 1038.79 43.0145C1040.44 44.6421 1041.37 46.8563 1041.4 49.1735C1041.37 51.5381 1040.41 53.7966 1038.73 55.4577C1037.04 57.1188 1034.77 58.0481 1032.41 58.0436C1030.09 57.9866 1027.89 57.0174 1026.29 55.3469C1024.68 53.6764 1023.8 51.4396 1023.84 49.1234V49.1234Z" fill="#ACD9F3"/>
<path d="M1032.51 -0.802995C1034.22 -0.819006 1035.89 -0.329241 1037.33 0.604731C1038.76 1.5387 1039.88 2.87517 1040.56 4.44611C1041.23 6.01705 1041.43 7.75232 1041.12 9.43373C1040.81 11.1151 1040.01 12.6676 1038.82 13.896C1037.63 15.1244 1036.1 15.9738 1034.43 16.3374C1032.76 16.701 1031.02 16.5627 1029.43 15.9397C1027.84 15.3168 1026.47 14.237 1025.49 12.8362C1024.51 11.4354 1023.96 9.77617 1023.92 8.06704C1023.9 6.91877 1024.1 5.77667 1024.52 4.70707C1024.94 3.63746 1025.56 2.66167 1026.36 1.83641C1027.16 1.01114 1028.11 0.352838 1029.17 -0.100266C1030.23 -0.55337 1031.36 -0.792238 1032.51 -0.802995V-0.802995Z" fill="#ACD9F3"/>
<path d="M252.398 214.867C252.423 215.941 252.232 217.009 251.837 218.008C251.443 219.008 250.852 219.918 250.1 220.685C249.348 221.453 248.45 222.062 247.459 222.477C246.468 222.892 245.404 223.105 244.33 223.102C242.169 223.116 240.091 222.272 238.551 220.757C237.011 219.242 236.133 217.178 236.111 215.017C236.16 212.899 237.012 210.879 238.495 209.365C239.977 207.852 241.979 206.958 244.096 206.866C246.257 206.83 248.344 207.652 249.9 209.151C251.456 210.651 252.354 212.706 252.398 214.867V214.867Z" fill="#ACD9F3"/>
<path d="M210.772 48.9914C210.755 51.0698 209.922 53.0584 208.454 54.5296C206.986 56.0009 204.999 56.8374 202.921 56.8592C200.846 56.8171 198.866 55.9785 197.392 54.5169C195.918 53.0554 195.063 51.083 195.003 49.0081C195.001 47.9563 195.208 46.9146 195.614 45.9442C196.019 44.9737 196.614 44.0939 197.364 43.3564C198.114 42.619 199.004 42.0386 199.981 41.6495C200.958 41.2603 202.003 41.0702 203.054 41.0902C204.082 41.0967 205.097 41.3068 206.043 41.7085C206.988 42.1101 207.844 42.6953 208.562 43.4301C209.28 44.1649 209.845 45.0348 210.224 45.9894C210.603 46.944 210.79 47.9643 210.772 48.9914Z" fill="#ACD9F3"/>
<path d="M202.787 15.3335C201.25 15.307 199.755 14.826 198.491 13.951C197.227 13.0761 196.25 11.8464 195.684 10.417C195.118 8.9877 194.987 7.42273 195.309 5.91947C195.632 4.41622 196.392 3.04199 197.494 1.97012C198.596 0.898247 199.991 0.176712 201.502 -0.103479C203.014 -0.383671 204.575 -0.209977 205.988 0.395695C207.401 1.00137 208.603 2.0119 209.442 3.29985C210.282 4.5878 210.721 6.09549 210.705 7.63278C210.696 8.65997 210.484 9.67524 210.08 10.6198C209.677 11.5644 209.089 12.4195 208.353 13.1357C207.617 13.8519 206.746 14.415 205.79 14.7922C204.835 15.1695 203.814 15.3534 202.787 15.3335Z" fill="#ACD9F3"/>
<path d="M203.035 98.2858C202.032 98.3124 201.033 98.1406 200.097 97.7802C199.16 97.4197 198.304 96.8778 197.578 96.1855C196.851 95.4932 196.269 94.6642 195.864 93.7461C195.458 92.8279 195.239 91.8389 195.217 90.8356C195.161 89.2987 195.564 87.7798 196.375 86.4732C197.186 85.1665 198.368 84.1313 199.771 83.4999C201.173 82.8685 202.732 82.6695 204.248 82.9284C205.764 83.1872 207.168 83.8923 208.282 84.9533C209.395 86.0143 210.167 87.3832 210.498 88.885C210.83 90.3868 210.706 91.9533 210.143 93.3845C209.58 94.8156 208.603 96.0463 207.336 96.9194C206.07 97.7924 204.573 98.2681 203.035 98.2858Z" fill="#ACD9F3"/>
<path d="M998.668 256.778C998.654 258.313 998.184 259.81 997.316 261.077C996.449 262.344 995.225 263.324 993.799 263.893C992.373 264.461 990.81 264.593 989.309 264.27C987.808 263.948 986.437 263.186 985.371 262.081C984.304 260.977 983.59 259.58 983.32 258.069C983.05 256.558 983.236 255 983.854 253.595C984.472 252.19 985.495 251 986.791 250.178C988.087 249.355 989.599 248.937 991.134 248.977C993.165 249.021 995.096 249.865 996.507 251.326C997.918 252.788 998.695 254.747 998.668 256.778V256.778Z" fill="#ACD9F3"/>
<path d="M210.135 131.881C210.159 132.834 209.994 133.781 209.648 134.669C209.302 135.556 208.782 136.366 208.12 137.05C207.457 137.734 206.665 138.28 205.789 138.654C204.913 139.029 203.971 139.225 203.019 139.231C202.04 139.254 201.068 139.08 200.157 138.72C199.247 138.361 198.418 137.823 197.719 137.138C197.02 136.453 196.465 135.635 196.087 134.732C195.71 133.829 195.516 132.86 195.519 131.881C195.582 129.958 196.379 128.133 197.745 126.778C199.112 125.424 200.945 124.644 202.869 124.598C204.793 124.616 206.634 125.389 207.993 126.752C209.353 128.114 210.122 129.957 210.135 131.881V131.881Z" fill="#ACD9F3"/>
<path d="M251.164 256.312C251.169 257.219 250.992 258.117 250.646 258.954C250.299 259.791 249.788 260.551 249.144 261.189C248.5 261.827 247.736 262.33 246.895 262.668C246.054 263.007 245.155 263.174 244.248 263.161C243.363 263.174 242.483 263.011 241.661 262.681C240.838 262.352 240.09 261.862 239.459 261.24C238.828 260.618 238.326 259.877 237.984 259.06C237.642 258.242 237.466 257.365 237.466 256.479C237.437 255.577 237.588 254.679 237.909 253.835C238.23 252.992 238.716 252.221 239.337 251.566C239.959 250.912 240.704 250.388 241.53 250.024C242.356 249.66 243.246 249.464 244.148 249.447C245.061 249.433 245.966 249.601 246.814 249.939C247.661 250.278 248.433 250.781 249.085 251.419C249.738 252.057 250.257 252.818 250.614 253.658C250.97 254.498 251.157 255.4 251.164 256.312Z" fill="#ACD9F3"/>
<path d="M202.801 167.127C204.531 167.086 206.205 167.734 207.458 168.927C208.711 170.12 209.439 171.762 209.483 173.491C209.484 175.218 208.817 176.878 207.621 178.124C206.425 179.369 204.794 180.104 203.068 180.173C202.207 180.197 201.349 180.05 200.544 179.74C199.74 179.429 199.006 178.962 198.384 178.365C197.762 177.768 197.265 177.053 196.922 176.262C196.579 175.471 196.397 174.62 196.386 173.758C196.35 172.896 196.49 172.035 196.796 171.229C197.103 170.422 197.571 169.686 198.171 169.066C198.771 168.446 199.491 167.954 200.287 167.62C201.083 167.287 201.938 167.119 202.801 167.127V167.127Z" fill="#ACD9F3"/>
<path d="M202.536 220.198C201.166 220.177 199.857 219.626 198.885 218.66C197.914 217.695 197.354 216.39 197.324 215.02C197.369 213.64 197.935 212.329 198.908 211.35C199.882 210.37 201.189 209.796 202.569 209.742C203.277 209.743 203.978 209.887 204.63 210.165C205.281 210.442 205.871 210.848 206.363 211.357C206.855 211.866 207.24 212.469 207.495 213.13C207.75 213.791 207.87 214.496 207.848 215.204C207.833 215.882 207.683 216.551 207.406 217.171C207.13 217.791 206.733 218.35 206.239 218.815C205.744 219.28 205.162 219.642 204.526 219.879C203.89 220.117 203.214 220.225 202.536 220.198V220.198Z" fill="#ACD9F3"/>
<path d="M161.342 53.5207C160.733 53.5364 160.126 53.4293 159.559 53.2059C158.992 52.9825 158.476 52.6473 158.041 52.2203C157.606 51.7932 157.262 51.2831 157.028 50.7202C156.795 50.1572 156.677 49.5531 156.681 48.9436C156.679 48.3332 156.798 47.7284 157.03 47.1639C157.263 46.5995 157.605 46.0867 158.037 45.655C158.468 45.2234 158.981 44.8814 159.545 44.6488C160.11 44.4162 160.715 44.2976 161.325 44.2998C162.509 44.3397 163.636 44.8212 164.483 45.6497C165.33 46.4782 165.836 47.5936 165.902 48.7766C165.915 49.3879 165.808 49.9957 165.586 50.5653C165.363 51.1349 165.031 51.655 164.607 52.0958C164.184 52.5366 163.677 52.8893 163.117 53.1338C162.556 53.3784 161.953 53.5098 161.342 53.5207V53.5207Z" fill="#ACD9F3"/>
<path d="M165.653 7.66116C165.654 8.24964 165.534 8.83211 165.301 9.37238C165.068 9.91265 164.726 10.3992 164.297 10.8018C163.867 11.2044 163.36 11.5144 162.806 11.7127C162.252 11.9109 161.663 11.9931 161.076 11.9542C159.938 11.9115 158.86 11.4337 158.064 10.6193C157.268 9.80491 156.816 8.71614 156.799 7.57765C156.817 6.39286 157.296 5.26169 158.136 4.42539C158.975 3.58909 160.108 3.1138 161.293 3.10086C161.88 3.10945 162.459 3.23476 162.998 3.46948C163.536 3.7042 164.022 4.04363 164.428 4.46803C164.833 4.89244 165.151 5.39332 165.361 5.94152C165.571 6.48972 165.67 7.07427 165.653 7.66116V7.66116Z" fill="#ACD9F3"/>
<path d="M161.206 86.2589C161.766 86.2411 162.324 86.3344 162.847 86.5334C163.371 86.7323 163.85 87.0331 164.257 87.4182C164.664 87.8034 164.991 88.2654 165.218 88.7774C165.445 89.2894 165.569 89.8414 165.582 90.4015C165.609 90.9854 165.519 91.5688 165.318 92.1175C165.116 92.6661 164.807 93.1691 164.409 93.5969C164.011 94.0247 163.531 94.3687 162.998 94.6088C162.465 94.849 161.89 94.9803 161.306 94.9953C160.125 94.9694 159.001 94.4867 158.169 93.6486C157.337 92.8105 156.863 91.6825 156.846 90.5018C156.893 89.3713 157.37 88.3018 158.181 87.5127C158.992 86.7236 160.074 86.275 161.206 86.2589V86.2589Z" fill="#ACD9F3"/>
<path d="M161.344 128.155C161.848 128.168 162.344 128.281 162.803 128.488C163.263 128.694 163.677 128.991 164.021 129.359C164.364 129.728 164.631 130.161 164.805 130.634C164.98 131.107 165.058 131.61 165.035 132.114C165.031 132.623 164.92 133.126 164.711 133.59C164.502 134.055 164.198 134.471 163.82 134.811C163.441 135.152 162.996 135.411 162.512 135.57C162.028 135.73 161.517 135.787 161.01 135.739C160.03 135.691 159.106 135.27 158.429 134.561C157.751 133.853 157.371 132.911 157.368 131.93C157.424 130.912 157.866 129.954 158.606 129.252C159.345 128.55 160.324 128.158 161.344 128.155V128.155Z" fill="#ACD9F3"/>
<path d="M206.246 256.278C206.255 256.766 206.166 257.251 205.984 257.704C205.802 258.157 205.531 258.568 205.186 258.914C204.842 259.26 204.431 259.533 203.979 259.717C203.527 259.902 203.043 259.993 202.555 259.986C201.62 259.957 200.732 259.573 200.071 258.912C199.41 258.251 199.026 257.363 198.997 256.428C198.988 255.939 199.077 255.454 199.261 255.001C199.444 254.548 199.717 254.136 200.064 253.791C200.41 253.447 200.823 253.175 201.277 252.994C201.73 252.813 202.216 252.725 202.705 252.736C203.643 252.741 204.541 253.115 205.204 253.779C205.868 254.442 206.242 255.34 206.246 256.278Z" fill="#ACD9F3"/>
<path d="M160.419 176.598L158.949 172.121C159.115 171.815 159.34 171.545 159.611 171.327C159.882 171.109 160.193 170.947 160.528 170.851C160.862 170.754 161.212 170.726 161.557 170.766C161.903 170.806 162.237 170.915 162.54 171.085C163.094 171.312 163.557 171.714 163.859 172.23C164.161 172.747 164.285 173.348 164.211 173.942C164.044 175.361 163.108 176.046 160.419 176.598Z" fill="#ACD9F3"/>
</mask>
<g mask="url(#mask0_351_99683)">
<rect x="48.8882" y="27.3858" width="1396.61" height="269.057" fill="url(#paint1_linear_351_99683)" fill-opacity="0.16"/>
</g>
</g>
</g>
<defs>
<linearGradient id="paint0_linear_351_99683" x1="512" y1="0" x2="512" y2="269" gradientUnits="userSpaceOnUse">
<stop stop-color="#D6E1FF"/>
<stop offset="1" stop-color="#E3EFFF"/>
</linearGradient>
<linearGradient id="paint1_linear_351_99683" x1="818.725" y1="296.443" x2="818.725" y2="27.3858" gradientUnits="userSpaceOnUse">
<stop stop-color="#9385B3"/>
<stop offset="1" stop-color="#F8FCFE"/>
</linearGradient>
<clipPath id="clip0_351_99683">
<path d="M0 0H1024V261C1024 265.418 1020.42 269 1016 269H8C3.58172 269 0 265.418 0 261V0Z" fill="white"/>
</clipPath>
</defs>
</svg>
