<svg width="1922" height="270" viewBox="0 0 1922 270" fill="none" xmlns="http://www.w3.org/2000/svg">
<path d="M0 1H1920V262C1920 266.418 1916.42 270 1912 270H7.99999C3.58171 270 0 266.418 0 262V1Z" fill="url(#paint0_linear_342_99904)"/>
<g opacity="0.5">
<mask id="mask0_342_99904" style="mask-type:alpha" maskUnits="userSpaceOnUse" x="632" y="-441" width="1315" height="1315">
<path d="M1318.54 282.176C1313.93 297.846 1303.94 307.119 1287.63 306.382C1271.32 305.645 1262.24 295.42 1258.88 279.656C1258.38 283.735 1257.04 287.669 1254.97 291.217C1252.89 294.765 1250.11 297.853 1246.8 300.295C1241.26 304.401 1234.42 306.361 1227.55 305.811C1220.75 305.288 1214.36 302.402 1209.47 297.654C1204.58 292.907 1201.51 286.598 1200.8 279.822C1199.25 264.629 1208.48 252.645 1226.19 247.675C1218.66 246.542 1211.79 242.735 1206.84 236.952C1202.09 231.36 1199.63 224.186 1199.94 216.86C1200.51 202.855 1208.98 193.344 1225.02 188.327C1221.19 186.947 1217.48 185.236 1213.94 183.215C1210.7 180.849 1207.81 178.03 1205.36 174.845C1202.69 171.575 1201.11 167.551 1200.84 163.337C1200.47 159.365 1200.68 155.36 1201.46 151.448C1202.92 145.3 1206.39 139.812 1211.31 135.844C1216.22 131.876 1222.32 129.654 1228.64 129.525C1243.07 129.074 1253.56 137.253 1258.88 153.612C1262.38 140.154 1270.51 131.879 1284.59 128.55C1274.7 126.173 1267.68 121.298 1263.43 113.024C1260.24 106.915 1259.4 99.8567 1261.05 93.1697C1262.61 86.6818 1266.38 80.939 1271.71 76.9216C1277.04 72.9043 1283.6 70.8616 1290.27 71.1423C1296.94 71.4229 1303.31 74.0095 1308.28 78.4605C1313.25 82.9115 1316.53 88.9508 1317.54 95.5474C1319.21 106.984 1314.45 122.939 1293.77 128.622C1306.46 131.642 1314.67 138.965 1318.78 152.114C1321.44 143.506 1325.75 137.253 1332.69 133.306C1335.94 131.28 1339.56 129.92 1343.34 129.308C1347.12 128.696 1350.98 128.842 1354.71 129.739C1360.76 131.241 1366.2 134.575 1370.29 139.287C1374.37 143.998 1376.9 149.857 1377.53 156.061C1378.29 163.206 1376.32 170.373 1372.02 176.129C1367.75 181.88 1361.73 186.099 1354.87 188.16C1360.77 189.917 1366.1 193.197 1370.33 197.671C1374.35 202.25 1377.08 207.813 1378.25 213.793C1380.36 205.494 1384.29 198.456 1391.66 193.819C1395.16 191.512 1399.13 190.017 1403.28 189.445C1407.43 188.873 1411.66 189.239 1415.65 190.514C1421.93 192.434 1427.36 196.442 1431.05 201.873C1434.74 207.303 1436.46 213.831 1435.93 220.375C1435.4 226.918 1432.65 233.084 1428.13 237.85C1423.62 242.616 1417.61 245.697 1411.11 246.582C1395.53 248.46 1384.5 240.233 1378.15 221.544C1377.31 227.912 1374.52 233.864 1370.16 238.581C1365.8 243.298 1360.09 246.55 1353.8 247.889C1363.31 250.719 1370 255.617 1374.13 263.606C1376.28 267.843 1377.37 272.537 1377.3 277.287C1377.24 282.037 1376.02 286.699 1373.75 290.873C1371.48 295.048 1368.24 298.61 1364.29 301.253C1360.34 303.897 1355.82 305.542 1351.09 306.049C1335.64 307.38 1325.01 299.677 1318.54 282.176ZM1280.5 248.175C1267.82 242.516 1265.4 240.019 1258.46 225.919C1254.34 237.808 1246.16 245.06 1233.09 247.747C1248.09 251.194 1256.43 259.849 1258.88 274.33C1259.64 268.365 1262.08 262.74 1265.92 258.109C1269.75 253.478 1274.83 250.033 1280.55 248.175L1280.5 248.175ZM1234.46 188.137C1240.06 189.278 1245.25 191.908 1249.47 195.75C1253.7 199.591 1256.81 204.502 1258.48 209.964C1259.88 206.728 1261.52 203.604 1263.4 200.62C1265.54 197.716 1268.06 195.117 1270.89 192.892C1273.79 190.94 1276.81 189.192 1279.95 187.661C1268.56 183.571 1261.93 175.606 1258.79 163.503C1255.29 177.199 1247.19 184.855 1234.46 188.137ZM1297.07 248.103C1302.35 249.767 1307.1 252.767 1310.88 256.813C1314.65 260.858 1317.32 265.812 1318.61 271.191C1321.92 259.16 1329.41 251.527 1341.91 247.842C1336.62 246.61 1331.73 244.061 1327.68 240.432C1323.64 236.804 1320.58 232.212 1318.78 227.084C1317.09 232.059 1314.24 236.561 1310.46 240.216C1306.69 243.871 1302.1 246.575 1297.07 248.103V248.103ZM1298.57 187.518C1302.84 190.025 1306.9 192.889 1310.69 196.078C1313.88 199.783 1316.74 203.761 1319.23 207.967C1321.03 203.144 1323.95 198.819 1327.75 195.353C1331.56 191.888 1336.14 189.381 1341.11 188.042C1329.67 184.594 1322.46 177.318 1318.68 165.382C1317.42 170.447 1314.92 175.12 1311.41 178.983C1307.9 182.846 1303.49 185.779 1298.57 187.518V187.518Z" fill="#ACD9F3"/>
<path d="M1407.68 130.193C1415.25 130.335 1422.45 133.477 1427.7 138.928C1432.95 144.38 1435.82 151.693 1435.68 159.261C1435.54 166.828 1432.4 174.029 1426.94 179.28C1421.49 184.531 1414.18 187.401 1406.61 187.259C1399.04 187.117 1391.84 183.975 1386.59 178.523C1381.34 173.072 1378.47 165.758 1378.61 158.191C1378.76 150.623 1381.9 143.422 1387.35 138.172C1392.8 132.921 1400.11 130.051 1407.68 130.193V130.193Z" fill="#ACD9F3"/>
<path d="M1376.35 100.276C1376.23 105.923 1374.43 111.408 1371.19 116.035C1367.95 120.663 1363.41 124.225 1358.15 126.27C1352.88 128.314 1347.13 128.75 1341.62 127.522C1336.1 126.294 1331.08 123.457 1327.18 119.37C1323.28 115.284 1320.68 110.132 1319.71 104.567C1318.74 99.0019 1319.45 93.2745 1321.73 88.1103C1324.02 82.9462 1327.79 78.5776 1332.57 75.558C1337.34 72.5384 1342.9 71.0037 1348.55 71.1484C1356.09 71.3416 1363.25 74.5147 1368.46 79.9734C1373.67 85.4321 1376.51 92.732 1376.35 100.276Z" fill="#ACD9F3"/>
<path d="M1407.21 305.119C1401.61 305.138 1396.13 303.498 1391.47 300.407C1386.81 297.316 1383.16 292.913 1381 287.752C1378.83 282.592 1378.25 276.906 1379.31 271.412C1380.38 265.918 1383.04 260.863 1386.98 256.885C1390.91 252.907 1395.94 250.183 1401.42 249.059C1406.9 247.934 1412.6 248.459 1417.78 250.567C1422.96 252.675 1427.41 256.271 1430.55 260.902C1433.69 265.533 1435.39 270.99 1435.43 276.586C1435.45 280.313 1434.74 284.008 1433.33 287.46C1431.93 290.911 1429.85 294.052 1427.23 296.701C1424.61 299.351 1421.49 301.459 1418.06 302.903C1414.62 304.347 1410.93 305.1 1407.21 305.119Z" fill="#ACD9F3"/>
<path d="M1199.06 217.858C1199.09 223.466 1197.46 228.958 1194.36 233.635C1191.27 238.313 1186.86 241.965 1181.68 244.129C1176.51 246.292 1170.81 246.869 1165.3 245.787C1159.8 244.704 1154.74 242.011 1150.77 238.048C1146.81 234.086 1144.1 229.034 1143.01 223.532C1141.92 218.031 1142.49 212.33 1144.64 207.152C1146.8 201.974 1150.44 197.554 1155.11 194.451C1159.79 191.349 1165.28 189.705 1170.88 189.729C1178.33 189.779 1185.46 192.757 1190.74 198.02C1196.01 203.283 1199 210.409 1199.06 217.858V217.858Z" fill="#ACD9F3"/>
<path d="M1229.75 128.031C1222.26 128.054 1215.06 125.096 1209.74 119.81C1204.42 114.523 1201.42 107.341 1201.4 99.8433C1201.38 92.3453 1204.33 85.1456 1209.62 79.8281C1214.91 74.5106 1222.09 71.5108 1229.59 71.4887C1237.08 71.4667 1244.28 74.4241 1249.6 79.7104C1254.92 84.9967 1257.92 92.1788 1257.94 99.6769C1257.96 107.175 1255.01 114.375 1249.72 119.692C1244.43 125.01 1237.25 128.009 1229.75 128.031V128.031Z" fill="#ACD9F3"/>
<path d="M1170.95 186.688C1163.51 186.688 1156.37 183.732 1151.11 178.471C1145.85 173.209 1142.9 166.072 1142.9 158.631C1142.9 151.19 1145.85 144.053 1151.11 138.791C1156.37 133.53 1163.51 130.574 1170.95 130.574C1178.39 130.574 1185.53 133.53 1190.79 138.791C1196.05 144.053 1199.01 151.19 1199.01 158.631C1199.01 166.072 1196.05 173.209 1190.79 178.471C1185.53 183.732 1178.39 186.688 1170.95 186.688Z" fill="#ACD9F3"/>
<path d="M1142.97 276.919C1143.16 269.666 1146.18 262.774 1151.37 257.707C1156.57 252.64 1163.53 249.797 1170.79 249.781C1178.05 249.766 1185.02 252.579 1190.24 257.624C1195.46 262.669 1198.5 269.548 1198.73 276.801C1198.84 280.53 1198.21 284.244 1196.87 287.725C1195.52 291.205 1193.49 294.38 1190.9 297.062C1188.3 299.744 1185.2 301.878 1181.76 303.338C1178.33 304.798 1174.64 305.555 1170.91 305.563C1167.18 305.571 1163.48 304.83 1160.04 303.385C1156.6 301.939 1153.49 299.818 1150.88 297.147C1148.28 294.476 1146.24 291.31 1144.88 287.836C1143.52 284.361 1142.87 280.649 1142.97 276.919V276.919Z" fill="#ACD9F3"/>
<path d="M1434.79 99.6855C1434.78 103.32 1434.05 106.917 1432.65 110.27C1431.25 113.623 1429.2 116.667 1426.62 119.228C1424.04 121.789 1420.98 123.818 1417.62 125.197C1414.26 126.576 1410.65 127.28 1407.02 127.267C1403.38 127.255 1399.79 126.527 1396.43 125.124C1393.08 123.722 1390.04 121.673 1387.48 119.094C1384.92 116.515 1382.89 113.457 1381.51 110.094C1380.13 106.731 1379.42 103.13 1379.44 99.4953C1379.46 92.1549 1382.4 85.1252 1387.61 79.9526C1392.82 74.78 1399.87 71.8883 1407.21 71.9135C1414.55 71.9387 1421.58 74.8789 1426.75 80.0871C1431.92 85.2954 1434.82 92.3451 1434.79 99.6855V99.6855Z" fill="#ACD9F3"/>
<path d="M1143.54 99.8052C1143.54 94.4095 1145.14 89.1349 1148.14 84.6475C1151.13 80.1602 1155.39 76.6615 1160.38 74.5934C1165.36 72.5253 1170.84 71.9806 1176.14 73.0281C1181.43 74.0756 1186.29 76.6683 1190.11 80.4786C1193.93 84.289 1196.54 89.146 1197.6 94.4363C1198.66 99.7266 1198.13 105.213 1196.08 110.202C1194.02 115.191 1190.53 119.459 1186.05 122.467C1181.57 125.475 1176.3 127.088 1170.91 127.102C1167.31 127.133 1163.74 126.449 1160.41 125.09C1157.08 123.73 1154.06 121.722 1151.51 119.182C1148.97 116.641 1146.95 113.62 1145.58 110.294C1144.21 106.967 1143.52 103.402 1143.54 99.8052V99.8052Z" fill="#ACD9F3"/>
<path d="M1288.94 13.2562C1294.33 13.2329 1299.6 14.8072 1304.1 17.7803C1308.59 20.7534 1312.11 24.9919 1314.2 29.9607C1316.28 34.9296 1316.85 40.4059 1315.83 45.6981C1314.81 50.9903 1312.24 55.8611 1308.46 59.6956C1304.67 63.53 1299.83 66.156 1294.55 67.242C1289.27 68.3281 1283.79 67.8254 1278.79 65.7975C1273.8 63.7697 1269.52 60.3075 1266.49 55.8483C1263.46 51.3891 1261.82 46.1327 1261.78 40.743C1261.74 37.1492 1262.41 33.5824 1263.75 30.2494C1265.1 26.9164 1267.09 23.8836 1269.62 21.3268C1272.14 18.7699 1275.15 16.74 1278.47 15.3546C1281.78 13.9692 1285.34 13.256 1288.94 13.2562V13.2562Z" fill="#ACD9F3"/>
<path d="M1493.29 217.954C1493.29 223.35 1491.69 228.625 1488.69 233.112C1485.69 237.599 1481.44 241.098 1476.45 243.166C1471.47 245.234 1465.98 245.779 1460.69 244.731C1455.4 243.684 1450.53 241.091 1446.71 237.281C1442.89 233.471 1440.29 228.613 1439.23 223.323C1438.16 218.033 1438.7 212.547 1440.75 207.558C1442.81 202.569 1446.29 198.301 1450.77 195.293C1455.25 192.285 1460.52 190.672 1465.92 190.658C1469.51 190.626 1473.08 191.31 1476.41 192.67C1479.74 194.03 1482.77 196.038 1485.32 198.578C1487.86 201.118 1489.88 204.139 1491.25 207.466C1492.61 210.792 1493.31 214.357 1493.29 217.954V217.954Z" fill="#ACD9F3"/>
<path d="M1465.92 185.759C1460.54 185.749 1455.28 184.141 1450.81 181.139C1446.35 178.137 1442.88 173.876 1440.84 168.897C1438.8 163.917 1438.28 158.445 1439.36 153.173C1440.44 147.901 1443.06 143.068 1446.88 139.287C1450.71 135.506 1455.58 132.947 1460.86 131.935C1466.15 130.924 1471.61 131.505 1476.57 133.606C1481.52 135.706 1485.74 139.231 1488.68 143.733C1491.63 148.234 1493.17 153.51 1493.12 158.89C1493.04 166.051 1490.14 172.892 1485.05 177.924C1479.95 182.956 1473.08 185.772 1465.92 185.759V185.759Z" fill="#ACD9F3"/>
<path d="M1347.79 13.4241C1353.17 13.3958 1358.44 14.9668 1362.92 17.9375C1367.41 20.9082 1370.91 25.1447 1372.99 30.1094C1375.06 35.0741 1375.61 40.5432 1374.57 45.8224C1373.53 51.1017 1370.95 55.9533 1367.15 59.7613C1363.35 63.5693 1358.5 66.1621 1353.22 67.2107C1347.94 68.2593 1342.47 67.7163 1337.51 65.6508C1332.54 63.5852 1328.3 60.0902 1325.32 55.6092C1322.34 51.1282 1320.76 45.8634 1320.78 40.4828C1320.81 33.3242 1323.66 26.467 1328.72 21.4006C1333.78 16.3342 1340.63 13.4679 1347.79 13.4241V13.4241Z" fill="#ACD9F3"/>
<path d="M1466.2 249.891C1471.53 249.929 1476.73 251.546 1481.15 254.538C1485.56 257.531 1488.99 261.764 1491 266.704C1493.01 271.644 1493.51 277.069 1492.44 282.294C1491.37 287.519 1488.78 292.31 1484.99 296.061C1481.2 299.813 1476.38 302.357 1471.14 303.372C1465.91 304.387 1460.49 303.828 1455.57 301.765C1450.65 299.703 1446.45 296.229 1443.51 291.783C1440.56 287.336 1439 282.117 1439.02 276.784C1439.02 273.229 1439.73 269.71 1441.1 266.43C1442.47 263.15 1444.48 260.174 1447 257.673C1449.53 255.173 1452.53 253.198 1455.82 251.862C1459.12 250.527 1462.64 249.857 1466.2 249.891V249.891Z" fill="#ACD9F3"/>
<path d="M1229.81 13.5862C1235.12 13.6097 1240.31 15.2064 1244.72 18.1751C1249.13 21.1438 1252.56 25.3514 1254.58 30.2676C1256.61 35.1837 1257.13 40.5882 1256.08 45.7996C1255.03 51.011 1252.47 55.796 1248.71 59.5512C1244.94 63.3064 1240.15 65.8638 1234.94 66.9008C1229.73 67.9378 1224.32 67.408 1219.41 65.3783C1214.5 63.3485 1210.3 59.9097 1207.34 55.4954C1204.38 51.0811 1202.79 45.8889 1202.77 40.5736C1202.76 37.0229 1203.46 33.5054 1204.81 30.2238C1206.17 26.9421 1208.16 23.9612 1210.67 21.4527C1213.19 18.9442 1216.17 16.9577 1219.46 15.6076C1222.74 14.2575 1226.26 13.5705 1229.81 13.5862V13.5862Z" fill="#ACD9F3"/>
<path d="M1085.24 217.932C1085.24 210.837 1088.05 204.033 1093.07 199.017C1098.09 194 1104.89 191.182 1111.99 191.182C1119.08 191.182 1125.88 194 1130.9 199.017C1135.92 204.033 1138.74 210.837 1138.74 217.932C1138.69 225.019 1135.85 231.803 1130.84 236.817C1125.83 241.831 1119.05 244.673 1111.96 244.729C1108.45 244.732 1104.96 244.041 1101.71 242.694C1098.47 241.348 1095.51 239.373 1093.03 236.883C1090.55 234.393 1088.58 231.437 1087.24 228.185C1085.91 224.933 1085.22 221.448 1085.24 217.932V217.932Z" fill="#ACD9F3"/>
<path d="M1085.36 158.65C1085.34 151.594 1088.12 144.817 1093.09 139.812C1098.07 134.807 1104.83 131.982 1111.88 131.96C1118.94 131.938 1125.71 134.72 1130.72 139.694C1135.73 144.669 1138.55 151.427 1138.57 158.484C1138.58 161.978 1137.91 165.44 1136.58 168.672C1135.25 171.905 1133.3 174.844 1130.84 177.322C1128.37 179.801 1125.45 181.77 1122.22 183.117C1119 184.464 1115.54 185.163 1112.05 185.174C1108.55 185.185 1105.09 184.508 1101.86 183.181C1098.63 181.854 1095.69 179.903 1093.21 177.44C1090.73 174.977 1088.76 172.05 1087.42 168.826C1086.07 165.602 1085.37 162.145 1085.36 158.65V158.65Z" fill="#ACD9F3"/>
<path d="M1465.96 126.29C1460.73 126.281 1455.62 124.722 1451.27 121.811C1446.92 118.9 1443.53 114.767 1441.53 109.933C1439.53 105.099 1439.01 99.7806 1440.03 94.6488C1441.04 89.517 1443.56 84.8016 1447.25 81.0972C1450.95 77.3929 1455.66 74.8655 1460.78 73.8339C1465.91 72.8024 1471.23 73.3127 1476.07 75.3007C1480.91 77.2887 1485.05 80.6653 1487.98 85.0045C1490.9 89.3438 1492.47 94.4513 1492.5 99.683C1492.51 103.175 1491.83 106.634 1490.5 109.863C1489.17 113.092 1487.22 116.027 1484.76 118.5C1482.29 120.972 1479.36 122.933 1476.13 124.27C1472.91 125.607 1469.45 126.293 1465.96 126.29V126.29Z" fill="#ACD9F3"/>
<path d="M1138.36 277.471C1138.24 282.7 1136.57 287.777 1133.57 292.061C1130.57 296.344 1126.37 299.641 1121.49 301.537C1116.62 303.432 1111.29 303.841 1106.18 302.711C1101.07 301.58 1096.42 298.962 1092.8 295.186C1089.18 291.41 1086.76 286.647 1085.84 281.496C1084.93 276.346 1085.56 271.041 1087.66 266.25C1089.76 261.459 1093.23 257.398 1097.64 254.579C1102.04 251.76 1107.19 250.31 1112.42 250.412C1115.9 250.474 1119.34 251.224 1122.53 252.62C1125.72 254.015 1128.61 256.028 1131.02 258.543C1133.43 261.058 1135.32 264.026 1136.58 267.274C1137.84 270.522 1138.44 273.988 1138.36 277.471V277.471Z" fill="#ACD9F3"/>
<path d="M1380.8 40.6209C1380.97 33.7526 1383.81 27.2219 1388.72 22.4141C1393.63 17.6064 1400.21 14.9 1407.08 14.8691C1413.96 14.8381 1420.57 17.4851 1425.52 22.2484C1430.47 27.0118 1433.37 33.5167 1433.61 40.3831C1433.73 43.9161 1433.14 47.4374 1431.87 50.7383C1430.61 54.0393 1428.69 57.0528 1426.24 59.6003C1423.79 62.1478 1420.85 64.1775 1417.6 65.5691C1414.35 66.9608 1410.86 67.686 1407.32 67.702C1403.79 67.7179 1400.29 67.0241 1397.02 65.6618C1393.76 64.2995 1390.81 62.2963 1388.33 59.771C1385.86 57.2457 1383.92 54.2495 1382.62 50.9601C1381.33 47.6707 1380.71 44.1548 1380.8 40.6209V40.6209Z" fill="#ACD9F3"/>
<path d="M1170.86 14.3686C1176.05 14.3689 1181.11 15.911 1185.42 18.7989C1189.73 21.6868 1193.08 25.79 1195.05 30.5873C1197.02 35.3845 1197.52 40.6592 1196.49 45.7411C1195.45 50.823 1192.93 55.4826 1189.24 59.1278C1185.55 62.7731 1180.86 65.2394 1175.77 66.2135C1170.68 67.1875 1165.41 66.6252 1160.63 64.5981C1155.86 62.571 1151.8 59.1706 1148.96 54.8289C1146.12 50.4873 1144.64 45.4004 1144.7 40.2146C1144.79 33.3316 1147.58 26.758 1152.47 21.9196C1157.37 17.0812 1163.98 14.3681 1170.86 14.3686V14.3686Z" fill="#ACD9F3"/>
<path d="M1111.87 125.837C1105.11 125.618 1098.71 122.777 1094.02 117.917C1089.32 113.057 1086.71 106.559 1086.72 99.8024C1086.74 93.0455 1089.38 86.5603 1094.1 81.7217C1098.82 76.8831 1105.23 74.0716 1111.99 73.8833C1115.46 73.7863 1118.93 74.3885 1122.17 75.6542C1125.41 76.9199 1128.36 78.8233 1130.85 81.2515C1133.34 83.6798 1135.32 86.5835 1136.67 89.7905C1138.02 92.9975 1138.71 96.4425 1138.7 99.9214C1138.69 103.4 1137.99 106.842 1136.62 110.043C1135.26 113.244 1133.27 116.138 1130.77 118.555C1128.26 120.972 1125.3 122.862 1122.06 124.113C1118.81 125.363 1115.34 125.95 1111.87 125.837V125.837Z" fill="#ACD9F3"/>
<path d="M1263.26 -18.5856C1263.28 -21.9672 1263.98 -25.3105 1265.3 -28.4246C1266.61 -31.5387 1268.53 -34.3626 1270.94 -36.7351C1273.35 -39.1075 1276.21 -40.982 1279.34 -42.2516C1282.48 -43.5212 1285.83 -44.1609 1289.21 -44.1344C1292.59 -44.1079 1295.94 -43.4155 1299.05 -42.0969C1302.16 -40.7782 1304.99 -38.8592 1307.36 -36.4492C1309.73 -34.0393 1311.61 -31.1856 1312.88 -28.0512C1314.15 -24.9168 1314.79 -21.563 1314.76 -18.1814C1314.71 -11.3518 1311.94 -4.82323 1307.07 -0.031898C1302.21 4.75944 1295.64 7.42109 1288.81 7.36749C1281.98 7.31388 1275.45 4.54942 1270.66 -0.317723C1265.87 -5.18486 1263.2 -11.756 1263.26 -18.5856Z" fill="#ACD9F3"/>
<path d="M1550.63 218.097C1550.61 223.193 1549.08 228.169 1546.23 232.394C1543.38 236.62 1539.35 239.905 1534.63 241.835C1529.91 243.764 1524.73 244.251 1519.74 243.233C1514.74 242.215 1510.16 239.739 1506.58 236.117C1502.99 232.495 1500.56 227.891 1499.6 222.888C1498.63 217.884 1499.17 212.706 1501.15 208.009C1503.12 203.313 1506.45 199.308 1510.7 196.503C1514.96 193.698 1519.95 192.218 1525.05 192.251C1531.86 192.301 1538.38 195.048 1543.17 199.892C1547.97 204.736 1550.65 211.281 1550.63 218.097V218.097Z" fill="#ACD9F3"/>
<path d="M1347.79 7.12238C1344.37 7.20006 1340.97 6.59056 1337.79 5.33004C1334.61 4.06952 1331.72 2.18362 1329.28 -0.215981C1326.84 -2.61558 1324.91 -5.48003 1323.6 -8.63963C1322.29 -11.7992 1321.63 -15.1897 1321.65 -18.6102C1321.67 -22.0306 1322.38 -25.4115 1323.74 -28.5525C1325.09 -31.6935 1327.06 -34.5307 1329.53 -36.8961C1332.01 -39.2614 1334.93 -41.1067 1338.12 -42.3228C1341.32 -43.5388 1344.73 -44.1007 1348.15 -43.9753C1354.79 -43.7316 1361.08 -40.9093 1365.67 -36.1072C1370.27 -31.305 1372.82 -24.9009 1372.77 -18.2533C1372.72 -11.6058 1370.09 -5.23784 1365.43 -0.500355C1360.76 4.23713 1354.44 6.97141 1347.79 7.12238V7.12238Z" fill="#ACD9F3"/>
<path d="M1550.82 158.795C1550.62 165.436 1547.84 171.737 1543.07 176.363C1538.3 180.989 1531.92 183.576 1525.27 183.576C1518.63 183.576 1512.25 180.989 1507.48 176.363C1502.71 171.737 1499.93 165.436 1499.72 158.795C1499.62 155.375 1500.2 151.968 1501.44 148.777C1502.68 145.586 1504.54 142.676 1506.92 140.219C1509.31 137.763 1512.16 135.81 1515.31 134.476C1518.46 133.142 1521.85 132.455 1525.27 132.455C1528.69 132.455 1532.08 133.142 1535.23 134.476C1538.39 135.81 1541.24 137.763 1543.62 140.219C1546 142.676 1547.87 145.586 1549.11 148.777C1550.34 151.968 1550.93 155.375 1550.82 158.795V158.795Z" fill="#ACD9F3"/>
<path d="M1465.58 66.3923C1460.56 66.3118 1455.67 64.7426 1451.53 61.8833C1447.4 59.024 1444.2 55.0029 1442.35 50.3285C1440.5 45.6541 1440.08 40.5363 1441.14 35.6222C1442.2 30.7081 1444.69 26.2184 1448.3 22.7208C1451.91 19.2231 1456.48 16.8747 1461.43 15.9723C1466.37 15.07 1471.47 15.6543 1476.09 17.6513C1480.7 19.6484 1484.62 22.9685 1487.34 27.1919C1490.07 31.4152 1491.48 36.3522 1491.4 41.3785C1491.29 48.118 1488.51 54.5374 1483.67 59.2273C1478.83 63.9171 1472.32 66.4941 1465.58 66.3923Z" fill="#ACD9F3"/>
<path d="M1230.18 6.95258C1223.44 6.95258 1216.98 4.27462 1212.21 -0.492192C1207.44 -5.259 1204.77 -11.7242 1204.77 -18.4655C1204.77 -25.2068 1207.44 -31.672 1212.21 -36.4388C1216.98 -41.2056 1223.44 -43.8835 1230.18 -43.8835C1236.9 -43.8283 1243.32 -41.147 1248.08 -36.414C1252.84 -31.6809 1255.56 -25.2723 1255.65 -18.5606C1255.66 -15.2106 1255.01 -11.8912 1253.74 -8.79328C1252.46 -5.69532 1250.59 -2.87991 1248.22 -0.508918C1245.86 1.86208 1243.04 3.74186 1239.95 5.02237C1236.85 6.30289 1233.53 6.95887 1230.18 6.95258Z" fill="#ACD9F3"/>
<path d="M1524.86 251.481C1529.89 251.457 1534.82 252.927 1539.01 255.703C1543.21 258.479 1546.49 262.437 1548.44 267.077C1550.39 271.716 1550.91 276.83 1549.95 281.769C1549 286.709 1546.59 291.254 1543.05 294.828C1539.51 298.403 1534.99 300.847 1530.06 301.852C1525.13 302.857 1520.01 302.377 1515.35 300.473C1510.69 298.569 1506.71 295.327 1503.89 291.156C1501.08 286.985 1499.56 282.073 1499.54 277.042C1499.52 273.701 1500.16 270.389 1501.43 267.296C1502.69 264.204 1504.55 261.39 1506.9 259.017C1509.26 256.643 1512.05 254.756 1515.13 253.463C1518.21 252.17 1521.52 251.496 1524.86 251.481Z" fill="#ACD9F3"/>
<path d="M1027.55 217.955C1027.47 214.592 1028.06 211.245 1029.29 208.115C1030.53 204.984 1032.37 202.133 1034.73 199.73C1037.08 197.328 1039.9 195.422 1043 194.127C1046.11 192.832 1049.44 192.174 1052.81 192.192C1056.17 192.209 1059.5 192.902 1062.59 194.229C1065.68 195.557 1068.48 197.491 1070.81 199.918C1073.14 202.345 1074.96 205.216 1076.16 208.359C1077.36 211.502 1077.91 214.854 1077.79 218.217C1077.56 224.746 1074.8 230.929 1070.08 235.454C1065.37 239.979 1059.08 242.491 1052.55 242.457C1046.01 242.422 1039.75 239.845 1035.08 235.272C1030.42 230.698 1027.72 224.487 1027.55 217.955V217.955Z" fill="#ACD9F3"/>
<path d="M1111.82 65.4966C1105.31 65.2701 1099.15 62.5174 1094.63 57.8221C1090.12 53.1267 1087.61 46.8576 1087.63 40.3433C1087.66 33.829 1090.22 27.5816 1094.78 22.9249C1099.34 18.2683 1105.53 15.5685 1112.04 15.3976C1115.39 15.3096 1118.73 15.896 1121.85 17.1222C1124.98 18.3483 1127.82 20.1893 1130.22 22.5357C1132.62 24.8822 1134.52 27.6864 1135.82 30.7821C1137.11 33.8778 1137.77 37.202 1137.76 40.5574C1137.74 43.9128 1137.05 47.2312 1135.73 50.3157C1134.41 53.4002 1132.48 56.1881 1130.07 58.514C1127.65 60.8399 1124.79 62.6564 1121.65 63.8559C1118.52 65.0553 1115.18 65.6132 1111.82 65.4966V65.4966Z" fill="#ACD9F3"/>
<path d="M1052.57 133.688C1055.87 133.669 1059.15 134.307 1062.21 135.565C1065.28 136.822 1068.06 138.674 1070.4 141.014C1072.74 143.354 1074.59 146.135 1075.85 149.195C1077.1 152.256 1077.74 155.536 1077.72 158.845C1077.8 162.199 1077.21 165.534 1075.98 168.654C1074.74 171.775 1072.9 174.615 1070.55 177.009C1068.2 179.402 1065.39 181.299 1062.29 182.587C1059.19 183.875 1055.87 184.528 1052.51 184.507C1049.16 184.487 1045.84 183.793 1042.76 182.466C1039.68 181.14 1036.9 179.209 1034.57 176.787C1032.25 174.365 1030.44 171.501 1029.25 168.366C1028.05 165.231 1027.5 161.888 1027.62 158.536C1027.62 155.265 1028.27 152.026 1029.52 149.005C1030.78 145.984 1032.62 143.241 1034.93 140.932C1037.25 138.624 1040 136.795 1043.03 135.552C1046.05 134.309 1049.29 133.676 1052.57 133.688V133.688Z" fill="#ACD9F3"/>
<path d="M1432.15 -18.444C1432.18 -13.4722 1430.73 -8.60451 1427.98 -4.45991C1425.24 -0.315302 1421.32 2.91883 1416.73 4.83116C1412.14 6.74348 1407.09 7.24756 1402.21 6.27926C1397.33 5.31096 1392.86 2.91407 1389.35 -0.606562C1385.83 -4.1272 1383.45 -8.61245 1382.5 -13.4918C1381.54 -18.3712 1382.06 -23.4241 1383.99 -28.008C1385.91 -32.5918 1389.16 -36.4993 1393.31 -39.2335C1397.46 -41.9678 1402.33 -43.4051 1407.31 -43.3627C1410.58 -43.369 1413.82 -42.7283 1416.84 -41.4773C1419.86 -40.2264 1422.6 -38.39 1424.91 -36.0739C1427.22 -33.7578 1429.05 -31.0077 1430.29 -27.982C1431.54 -24.9563 1432.17 -21.7147 1432.15 -18.444V-18.444Z" fill="#ACD9F3"/>
<path d="M1525.45 124.798C1522.18 124.836 1518.93 124.226 1515.9 123.004C1512.86 121.783 1510.1 119.973 1507.76 117.679C1505.43 115.386 1503.57 112.653 1502.3 109.639C1501.03 106.625 1500.36 103.389 1500.34 100.117C1500.27 95.147 1501.67 90.2667 1504.38 86.0967C1507.08 81.9267 1510.97 78.6553 1515.53 76.6987C1520.1 74.742 1525.15 74.1884 1530.04 75.1081C1534.92 76.0279 1539.42 78.3795 1542.97 81.864C1546.51 85.3485 1548.94 89.8084 1549.95 94.6768C1550.95 99.5451 1550.48 104.602 1548.6 109.204C1546.73 113.807 1543.52 117.747 1539.4 120.523C1535.28 123.3 1530.42 124.788 1525.45 124.798V124.798Z" fill="#ACD9F3"/>
<path d="M1052.4 301.795C1047.48 301.753 1042.68 300.253 1038.62 297.486C1034.55 294.718 1031.39 290.807 1029.54 286.246C1027.69 281.686 1027.24 276.68 1028.24 271.861C1029.23 267.042 1031.63 262.627 1035.14 259.172C1038.64 255.718 1043.09 253.379 1047.93 252.452C1052.76 251.525 1057.76 252.051 1062.29 253.963C1066.82 255.875 1070.69 259.088 1073.4 263.196C1076.11 267.304 1077.54 272.122 1077.51 277.043C1077.5 280.321 1076.84 283.565 1075.57 286.587C1074.3 289.609 1072.45 292.35 1070.11 294.651C1067.78 296.953 1065.01 298.769 1061.97 299.995C1058.93 301.221 1055.68 301.833 1052.4 301.795V301.795Z" fill="#ACD9F3"/>
<path d="M1170.93 6.35936C1167.68 6.37653 1164.45 5.75269 1161.44 4.52344C1158.43 3.29419 1155.68 1.4836 1153.37 -0.804927C1148.7 -5.42682 1146.06 -11.7149 1146.02 -18.2859C1145.99 -24.857 1148.57 -31.1726 1153.19 -35.8436C1157.81 -40.5145 1164.1 -43.1581 1170.67 -43.1928C1177.24 -43.2275 1183.55 -40.6504 1188.23 -36.0285C1192.9 -31.4066 1195.54 -25.1185 1195.57 -18.5475C1195.61 -11.9765 1193.03 -5.66079 1188.41 -0.989853C1183.79 3.68109 1177.5 6.32467 1170.93 6.35936V6.35936Z" fill="#ACD9F3"/>
<path d="M1077.11 99.8261C1077.12 104.692 1075.67 109.45 1072.97 113.495C1070.26 117.539 1066.41 120.687 1061.91 122.54C1057.41 124.392 1052.46 124.864 1047.69 123.897C1042.92 122.929 1038.55 120.566 1035.13 117.106C1031.71 113.647 1029.39 109.248 1028.47 104.469C1027.56 99.6893 1028.08 94.7455 1029.98 90.2656C1031.88 85.7857 1035.07 81.972 1039.15 79.3093C1043.22 76.6465 1047.99 75.255 1052.86 75.3116C1059.31 75.3866 1065.48 78.0018 1070.02 82.5903C1074.56 87.1789 1077.1 93.3714 1077.11 99.8261V99.8261Z" fill="#ACD9F3"/>
<path d="M1525.33 16.7952C1530.12 16.7811 1534.81 18.1885 1538.79 20.8391C1542.78 23.4897 1545.89 27.2642 1547.73 31.6844C1549.57 36.1045 1550.06 40.9713 1549.13 45.6681C1548.2 50.3648 1545.9 54.6802 1542.51 58.0673C1539.13 61.4544 1534.82 63.7608 1530.12 64.6943C1525.42 65.6277 1520.56 65.1462 1516.13 63.3108C1511.71 61.4754 1507.94 58.3686 1505.28 54.3842C1502.63 50.3998 1501.21 45.717 1501.22 40.9292C1501.24 34.5384 1503.79 28.4143 1508.3 23.893C1512.82 19.3718 1518.94 16.8203 1525.33 16.7952V16.7952Z" fill="#ACD9F3"/>
<path d="M1465.93 -42.5021C1470.72 -42.5351 1475.41 -41.1461 1479.41 -38.5112C1483.41 -35.8763 1486.53 -32.1141 1488.39 -27.7012C1490.25 -23.2884 1490.75 -18.4236 1489.84 -13.7232C1488.93 -9.02282 1486.65 -4.69847 1483.28 -1.29806C1479.9 2.10234 1475.6 4.42574 1470.91 5.37773C1466.22 6.32971 1461.35 5.86746 1456.92 4.0495C1452.49 2.23154 1448.7 -0.860292 1446.03 -4.8342C1443.36 -8.8081 1441.93 -13.4852 1441.92 -18.2729C1441.92 -24.662 1444.44 -30.7926 1448.94 -35.3303C1453.44 -39.8681 1459.55 -42.4457 1465.93 -42.5021V-42.5021Z" fill="#ACD9F3"/>
<path d="M1584.42 193.965C1589.16 194.007 1593.78 195.452 1597.7 198.116C1601.62 200.78 1604.67 204.546 1606.45 208.937C1608.24 213.329 1608.68 218.151 1607.73 222.795C1606.78 227.439 1604.48 231.699 1601.11 235.036C1597.74 238.373 1593.46 240.639 1588.81 241.548C1584.16 242.458 1579.34 241.97 1574.97 240.146C1570.59 238.322 1566.85 235.244 1564.22 231.3C1561.59 227.355 1560.19 222.721 1560.19 217.98C1560.19 214.808 1560.81 211.666 1562.03 208.737C1563.25 205.807 1565.04 203.149 1567.29 200.916C1569.55 198.682 1572.22 196.918 1575.16 195.725C1578.1 194.532 1581.25 193.934 1584.42 193.965V193.965Z" fill="#ACD9F3"/>
<path d="M1584.06 182.501C1580.93 182.481 1577.83 181.843 1574.94 180.625C1572.05 179.406 1569.43 177.631 1567.23 175.4C1565.02 173.169 1563.28 170.526 1562.1 167.622C1560.92 164.717 1560.32 161.609 1560.34 158.474C1560.36 155.339 1561 152.239 1562.22 149.35C1563.44 146.462 1565.21 143.841 1567.44 141.639C1569.68 139.437 1572.32 137.695 1575.22 136.514C1578.13 135.333 1581.24 134.736 1584.37 134.756C1590.7 134.797 1596.76 137.352 1601.21 141.858C1605.65 146.364 1608.13 152.452 1608.09 158.783C1608.05 165.115 1605.49 171.17 1600.99 175.618C1596.48 180.066 1590.39 182.542 1584.06 182.501Z" fill="#ACD9F3"/>
<path d="M1560.48 276.919C1560.48 270.612 1562.98 264.564 1567.44 260.105C1571.9 255.646 1577.95 253.141 1584.26 253.141C1590.56 253.141 1596.61 255.646 1601.07 260.105C1605.53 264.564 1608.03 270.612 1608.03 276.919C1607.96 283.202 1605.43 289.207 1600.99 293.65C1596.54 298.093 1590.54 300.622 1584.26 300.696C1577.95 300.696 1571.9 298.191 1567.44 293.732C1562.98 289.273 1560.48 283.225 1560.48 276.919V276.919Z" fill="#ACD9F3"/>
<path d="M1135.64 -18.5563C1135.7 -15.4231 1135.12 -12.3113 1133.95 -9.40346C1132.78 -6.49559 1131.05 -3.85014 1128.84 -1.62222C1126.64 0.605701 1124.01 2.37123 1121.12 3.57085C1118.22 4.77048 1115.12 5.38005 1111.99 5.36381C1108.85 5.38577 1105.74 4.78693 1102.84 3.60184C1099.93 2.41675 1097.29 0.668815 1095.06 -1.54131C1092.84 -3.75144 1091.07 -6.38008 1089.87 -9.27579C1088.66 -12.1715 1088.04 -15.2771 1088.04 -18.4136C1088.11 -24.6644 1090.62 -30.6414 1095.02 -35.0794C1099.42 -39.5174 1105.38 -42.0679 1111.63 -42.191C1114.76 -42.2224 1117.87 -41.6352 1120.77 -40.4633C1123.67 -39.2913 1126.31 -37.5576 1128.55 -35.3616C1130.78 -33.1657 1132.55 -30.5508 1133.77 -27.6669C1134.99 -24.7829 1135.63 -21.6868 1135.64 -18.5563V-18.5563Z" fill="#ACD9F3"/>
<path d="M1052.71 16.8908C1057.38 16.9191 1061.94 18.3323 1065.81 20.9517C1069.68 23.5711 1072.69 27.2791 1074.45 31.6071C1076.22 35.9351 1076.66 40.6888 1075.72 45.2672C1074.78 49.8457 1072.51 54.0433 1069.19 57.3296C1065.86 60.616 1061.64 62.8434 1057.05 63.7303C1052.46 64.6173 1047.71 64.1241 1043.41 62.3129C1039.1 60.5017 1035.42 57.4539 1032.85 53.5547C1030.27 49.6556 1028.91 45.0802 1028.93 40.4067C1028.94 37.2992 1029.56 34.224 1030.77 31.3581C1031.97 28.4921 1033.72 25.8919 1035.93 23.7066C1038.14 21.5214 1040.76 19.7944 1043.64 18.6247C1046.52 17.455 1049.6 16.8658 1052.71 16.8908V16.8908Z" fill="#ACD9F3"/>
<path d="M1584.23 123.155C1578.04 123.187 1572.08 120.758 1567.68 116.402C1563.27 112.046 1560.78 106.119 1560.74 99.9244C1560.74 93.7128 1563.21 87.7556 1567.6 83.3634C1571.99 78.9711 1577.95 76.5036 1584.16 76.5036C1590.37 76.5036 1596.33 78.9711 1600.72 83.3634C1605.11 87.7556 1607.58 93.7128 1607.58 99.9244C1607.59 102.988 1606.99 106.023 1605.82 108.853C1604.65 111.684 1602.93 114.254 1600.76 116.414C1598.59 118.575 1596.01 120.283 1593.17 121.44C1590.33 122.597 1587.3 123.18 1584.23 123.155V123.155Z" fill="#ACD9F3"/>
<path d="M1017.12 217.927C1017.14 222.574 1015.78 227.123 1013.22 230.997C1010.65 234.87 1006.99 237.894 1002.7 239.683C998.411 241.472 993.688 241.946 989.129 241.045C984.57 240.145 980.382 237.909 977.096 234.623C973.81 231.338 971.575 227.149 970.674 222.59C969.773 218.032 970.247 213.308 972.036 209.019C973.826 204.73 976.849 201.07 980.723 198.503C984.596 195.936 989.145 194.578 993.792 194.601C996.861 194.583 999.902 195.173 1002.74 196.338C1005.58 197.504 1008.16 199.221 1010.33 201.391C1012.5 203.561 1014.22 206.14 1015.38 208.978C1016.55 211.817 1017.14 214.859 1017.12 217.927V217.927Z" fill="#ACD9F3"/>
<path d="M994.098 135.352C1000.17 135.603 1005.9 138.208 1010.07 142.615C1014.25 147.021 1016.55 152.882 1016.48 158.955C1016.41 165.027 1013.97 170.832 1009.69 175.14C1005.41 179.447 999.623 181.918 993.551 182.027C990.427 182.083 987.323 181.511 984.424 180.346C981.525 179.181 978.889 177.446 976.673 175.243C974.456 173.04 972.705 170.416 971.521 167.524C970.338 164.632 969.747 161.532 969.784 158.407C969.82 155.283 970.484 152.198 971.735 149.334C972.985 146.471 974.798 143.888 977.065 141.738C979.333 139.588 982.009 137.915 984.934 136.818C987.86 135.721 990.976 135.222 994.098 135.352V135.352Z" fill="#ACD9F3"/>
<path d="M993.573 300.01C988.988 299.976 984.516 298.583 980.723 296.005C976.931 293.428 973.989 289.782 972.27 285.531C970.552 281.28 970.134 276.614 971.069 272.125C972.005 267.636 974.252 263.526 977.526 260.316C980.8 257.105 984.953 254.939 989.46 254.091C993.966 253.243 998.623 253.752 1002.84 255.554C1007.06 257.355 1010.64 260.368 1013.15 264.21C1015.65 268.052 1016.96 272.551 1016.9 277.136C1016.84 283.261 1014.34 289.111 1009.97 293.4C1005.6 297.69 999.699 300.067 993.573 300.01V300.01Z" fill="#ACD9F3"/>
<path d="M1548.23 -18.0335C1548.21 -15.0003 1547.58 -12.0025 1546.38 -9.21639C1545.18 -6.43024 1543.43 -3.91197 1541.25 -1.80964C1539.06 0.292697 1536.48 1.93666 1533.64 3.02559C1530.81 4.11453 1527.79 4.62645 1524.76 4.53127C1520.22 4.43193 1515.82 2.99067 1512.1 0.389381C1508.38 -2.21191 1505.52 -5.85663 1503.87 -10.0847C1502.22 -14.3128 1501.86 -18.9348 1502.83 -23.3672C1503.81 -27.7996 1506.07 -31.8438 1509.34 -34.9893C1512.62 -38.1349 1516.75 -40.2407 1521.21 -41.0411C1525.68 -41.8415 1530.28 -41.3006 1534.45 -39.4866C1538.61 -37.6726 1542.13 -34.6668 1544.59 -30.8487C1547.04 -27.0306 1548.31 -22.5712 1548.23 -18.0335V-18.0335Z" fill="#ACD9F3"/>
<path d="M970.917 99.8722C970.917 93.8056 973.327 87.9876 977.617 83.6979C981.907 79.4082 987.725 76.9983 993.791 76.9983C999.858 76.9983 1005.68 79.4082 1009.97 83.6979C1014.26 87.9876 1016.67 93.8056 1016.67 99.8722C1016.67 105.939 1014.26 111.757 1009.97 116.046C1005.68 120.336 999.858 122.746 993.791 122.746C987.725 122.746 981.907 120.336 977.617 116.046C973.327 111.757 970.917 105.939 970.917 99.8722V99.8722Z" fill="#ACD9F3"/>
<path d="M1584.14 18.2961C1590.15 18.2772 1595.92 20.6464 1600.18 24.8826C1604.44 29.1188 1606.85 34.8749 1606.87 40.8847C1606.89 46.8945 1604.52 52.6656 1600.28 56.9285C1596.05 61.1915 1590.29 63.597 1584.28 63.6159C1581.3 63.6253 1578.35 63.0484 1575.6 61.9183C1572.85 60.7882 1570.35 59.1269 1568.24 57.0294C1566.12 54.9318 1564.45 52.4391 1563.3 49.6935C1562.15 46.9478 1561.56 44.0031 1561.55 41.0273C1561.54 38.0516 1562.12 35.1031 1563.25 32.3503C1564.38 29.5975 1566.04 27.0943 1568.13 24.9835C1570.23 22.8727 1572.72 21.1957 1575.47 20.0483C1578.22 18.9009 1581.16 18.3055 1584.14 18.2961V18.2961Z" fill="#ACD9F3"/>
<path d="M1052.43 -40.8156C1055.39 -40.847 1058.33 -40.2933 1061.08 -39.1861C1063.83 -38.079 1066.33 -36.4402 1068.44 -34.3638C1070.56 -32.2874 1072.24 -29.8142 1073.4 -27.0859C1074.55 -24.3576 1075.16 -21.428 1075.18 -18.4649C1075.14 -12.4852 1072.76 -6.75996 1068.53 -2.52495C1064.31 1.71007 1058.6 4.11517 1052.62 4.17123C1046.65 4.19646 1040.92 1.85079 1036.68 -2.34971C1032.45 -6.55021 1030.05 -12.2615 1030.03 -18.2271C1030 -24.1927 1032.35 -29.924 1036.55 -34.1602C1040.75 -38.3964 1046.46 -40.7904 1052.43 -40.8156V-40.8156Z" fill="#ACD9F3"/>
<path d="M1665.21 218.025C1665.23 220.946 1664.67 223.842 1663.55 226.542C1662.44 229.242 1660.79 231.692 1658.72 233.747C1656.64 235.803 1654.18 237.423 1651.47 238.512C1648.76 239.602 1645.86 240.138 1642.94 240.091C1638.55 240.072 1634.26 238.752 1630.62 236.297C1626.99 233.843 1624.16 230.365 1622.5 226.302C1620.84 222.24 1620.42 217.777 1621.29 213.476C1622.17 209.176 1624.3 205.233 1627.42 202.144C1630.54 199.056 1634.5 196.962 1638.81 196.127C1643.12 195.292 1647.58 195.754 1651.62 197.454C1655.67 199.154 1659.12 202.016 1661.54 205.678C1663.96 209.34 1665.24 213.637 1665.21 218.025Z" fill="#ACD9F3"/>
<path d="M1643.22 180.716C1637.38 180.78 1631.75 178.53 1627.56 174.458C1623.37 170.387 1620.97 164.823 1620.87 158.984C1620.84 153.072 1623.15 147.389 1627.3 143.178C1631.44 138.966 1637.09 136.57 1643 136.514C1648.74 136.672 1654.19 139.056 1658.21 143.161C1662.22 147.266 1664.48 152.771 1664.51 158.511C1664.53 164.252 1662.33 169.778 1658.36 173.922C1654.38 178.066 1648.95 180.502 1643.22 180.716V180.716Z" fill="#ACD9F3"/>
<path d="M971.7 40.6477C971.603 37.6844 972.103 34.7317 973.17 31.9654C974.237 29.199 975.849 26.6755 977.911 24.5449C979.973 22.4143 982.442 20.7201 985.172 19.563C987.902 18.406 990.837 17.8097 993.801 17.8097C996.766 17.8097 999.701 18.406 1002.43 19.563C1005.16 20.7201 1007.63 22.4143 1009.69 24.5449C1011.75 26.6755 1013.37 29.199 1014.43 31.9654C1015.5 34.7317 1016 37.6844 1015.9 40.6477C1015.83 46.4891 1013.48 52.0717 1009.35 56.2003C1005.22 60.3289 999.631 62.6752 993.79 62.7369C987.933 62.7307 982.318 60.4014 978.177 56.2602C974.036 52.119 971.707 46.5042 971.7 40.6477V40.6477Z" fill="#ACD9F3"/>
<path d="M1665.08 276.708C1665.12 281.065 1663.86 285.336 1661.47 288.979C1659.08 292.622 1655.66 295.474 1651.65 297.173C1647.63 298.872 1643.21 299.342 1638.93 298.524C1634.65 297.706 1630.71 295.635 1627.6 292.576C1624.5 289.516 1622.37 285.605 1621.5 281.336C1620.62 277.068 1621.02 272.635 1622.67 268.599C1624.31 264.563 1627.11 261.104 1630.72 258.662C1634.33 256.22 1638.58 254.904 1642.94 254.88C1648.77 254.855 1654.37 257.137 1658.51 261.227C1662.66 265.317 1665.02 270.883 1665.08 276.708Z" fill="#ACD9F3"/>
<path d="M1643.06 121.439C1640.2 121.465 1637.36 120.917 1634.72 119.828C1632.07 118.739 1629.67 117.13 1627.66 115.097C1625.65 113.065 1624.06 110.649 1623 107.993C1621.94 105.337 1621.42 102.495 1621.47 99.6351C1621.5 93.9491 1623.76 88.5015 1627.76 84.4609C1631.76 80.4203 1637.18 78.1085 1642.87 78.0215C1648.65 78.0208 1654.19 80.2923 1658.31 84.3453C1662.42 88.3982 1664.78 93.9074 1664.86 99.6827C1664.87 102.545 1664.3 105.379 1663.21 108.023C1662.11 110.667 1660.51 113.069 1658.48 115.091C1656.46 117.112 1654.05 118.714 1651.4 119.803C1648.76 120.892 1645.92 121.448 1643.06 121.439V121.439Z" fill="#ACD9F3"/>
<path d="M1584.38 -39.8819C1588.6 -39.8349 1592.71 -38.5401 1596.2 -36.1604C1599.69 -33.7806 1602.39 -30.4223 1603.98 -26.5081C1605.56 -22.5939 1605.95 -18.2988 1605.1 -14.1635C1604.25 -10.0281 1602.19 -6.23734 1599.19 -3.26828C1596.18 -0.299224 1592.37 1.71539 1588.23 2.52202C1584.08 3.32864 1579.79 2.8912 1575.9 1.26476C1572 -0.361688 1568.67 -3.10444 1566.33 -6.61826C1563.99 -10.1321 1562.74 -14.2599 1562.74 -18.4822C1562.74 -21.3125 1563.3 -24.1148 1564.39 -26.7268C1565.48 -29.3387 1567.08 -31.7085 1569.09 -33.6987C1571.1 -35.689 1573.49 -37.2603 1576.11 -38.3217C1578.74 -39.383 1581.55 -39.9133 1584.38 -39.8819V-39.8819Z" fill="#ACD9F3"/>
<path d="M956.051 217.409C956.05 221.63 954.802 225.757 952.462 229.27C950.122 232.783 946.795 235.526 942.9 237.153C939.005 238.78 934.715 239.219 930.572 238.414C926.428 237.61 922.614 235.597 919.611 232.631C916.609 229.664 914.55 225.875 913.695 221.742C912.84 217.608 913.227 213.313 914.806 209.399C916.386 205.484 919.088 202.124 922.573 199.742C926.057 197.359 930.169 196.061 934.39 196.009C937.222 195.974 940.033 196.502 942.659 197.562C945.286 198.622 947.676 200.193 949.691 202.184C951.706 204.174 953.305 206.545 954.397 209.158C955.489 211.772 956.051 214.576 956.051 217.409Z" fill="#ACD9F3"/>
<path d="M934.651 180.007C928.976 180.007 923.533 177.752 919.519 173.739C915.506 169.726 913.251 164.282 913.251 158.607C913.251 152.931 915.506 147.488 919.519 143.475C923.533 139.462 928.976 137.207 934.651 137.207C940.327 137.207 945.77 139.462 949.783 143.475C953.796 147.488 956.051 152.931 956.051 158.607C956.051 164.282 953.796 169.726 949.783 173.739C945.77 177.752 940.327 180.007 934.651 180.007Z" fill="#ACD9F3"/>
<path d="M934.347 255.615C939.961 255.615 945.351 257.82 949.354 261.757C953.357 265.693 955.653 271.045 955.747 276.658C955.747 282.347 953.497 287.805 949.488 291.841C945.479 295.877 940.036 298.163 934.347 298.201C928.721 298.126 923.351 295.838 919.399 291.833C915.448 287.828 913.232 282.428 913.233 276.801C913.217 274.021 913.752 271.264 914.807 268.692C915.861 266.119 917.415 263.78 919.378 261.811C921.34 259.841 923.674 258.28 926.243 257.217C928.812 256.153 931.567 255.609 934.347 255.615V255.615Z" fill="#ACD9F3"/>
<path d="M993.764 -39.2955C999.2 -39.1123 1004.35 -36.8239 1008.13 -32.9131C1011.92 -29.0024 1014.03 -23.7755 1014.03 -18.3357C1014.03 -12.8959 1011.92 -7.66895 1008.13 -3.75823C1004.35 0.152493 999.2 2.44094 993.764 2.62408C990.952 2.7188 988.15 2.24679 985.524 1.2361C982.898 0.225411 980.503 -1.30327 978.48 -3.25892C976.458 -5.21457 974.849 -7.5572 973.751 -10.1474C972.652 -12.7375 972.086 -15.5222 972.086 -18.3357C972.086 -21.1492 972.652 -23.9339 973.751 -26.524C974.849 -29.1142 976.458 -31.4568 978.48 -33.4125C980.503 -35.3681 982.898 -36.8968 985.524 -37.9075C988.15 -38.9182 990.952 -39.3902 993.764 -39.2955V-39.2955Z" fill="#ACD9F3"/>
<path d="M955.362 99.6832C955.383 102.437 954.86 105.168 953.825 107.721C952.79 110.273 951.262 112.596 949.329 114.558C947.396 116.519 945.096 118.081 942.559 119.154C940.022 120.227 937.299 120.789 934.545 120.809C928.983 120.85 923.633 118.68 919.671 114.776C915.709 110.872 913.46 105.554 913.419 99.9924C913.378 94.4303 915.548 89.0798 919.452 85.1179C923.356 81.1559 928.674 78.9071 934.236 78.8661C939.798 78.8251 945.149 80.9953 949.111 84.8993C953.073 88.8032 955.321 94.1212 955.362 99.6832Z" fill="#ACD9F3"/>
<path d="M1622.27 40.9303C1622.25 38.1798 1622.77 35.452 1623.82 32.9071C1624.86 30.3622 1626.4 28.0516 1628.35 26.111C1630.3 24.1705 1632.62 22.6392 1635.17 21.6072C1637.72 20.5751 1640.45 20.0631 1643.2 20.1013C1645.95 20.1043 1648.67 20.6515 1651.21 21.7112C1653.75 22.771 1656.05 24.3224 1657.99 26.2761C1659.92 28.2298 1661.45 30.5472 1662.49 33.0948C1663.53 35.6425 1664.05 38.3701 1664.03 41.1205C1663.93 46.6051 1661.7 51.8362 1657.81 55.7062C1653.93 59.5761 1648.68 61.7811 1643.2 61.8544C1640.45 61.8638 1637.72 61.329 1635.18 60.2808C1632.64 59.2326 1630.33 57.6917 1628.38 55.7469C1626.44 53.802 1624.9 51.4916 1623.85 48.9487C1622.8 46.4058 1622.27 43.6807 1622.27 40.9303Z" fill="#ACD9F3"/>
<path d="M914.206 40.6735C914.173 36.6676 915.33 32.742 917.53 29.3942C919.73 26.0464 922.875 23.4271 926.565 21.8679C930.255 20.3088 934.325 19.8802 938.259 20.6363C942.193 21.3924 945.814 23.2992 948.664 26.1151C951.513 28.9311 953.462 32.5295 954.265 36.4543C955.067 40.3792 954.686 44.4539 953.171 48.1622C951.655 51.8705 949.073 55.0455 945.751 57.2849C942.43 59.5243 938.518 60.7273 934.512 60.7416C929.164 60.7544 924.028 58.6517 920.223 54.8922C916.419 51.1328 914.256 46.0215 914.206 40.6735V40.6735Z" fill="#ACD9F3"/>
<path d="M1702.26 197.791C1706.27 197.758 1710.19 198.916 1713.54 201.116C1716.88 203.317 1719.5 206.462 1721.05 210.152C1722.61 213.842 1723.03 217.911 1722.27 221.842C1721.51 225.774 1719.6 229.39 1716.78 232.234C1713.96 235.077 1710.36 237.018 1706.44 237.812C1702.51 238.605 1698.44 238.215 1694.74 236.69C1691.03 235.165 1687.87 232.575 1685.64 229.248C1683.41 225.921 1682.22 222.007 1682.22 218.002C1682.21 212.667 1684.31 207.544 1688.07 203.756C1691.82 199.968 1696.93 197.823 1702.26 197.791V197.791Z" fill="#ACD9F3"/>
<path d="M1702.33 179.173C1697.12 178.979 1692.18 176.766 1688.56 173C1684.94 169.234 1682.93 164.21 1682.94 158.988C1682.96 153.766 1685 148.755 1688.64 145.01C1692.28 141.266 1697.23 139.081 1702.45 138.918C1707.79 138.962 1712.9 141.112 1716.67 144.9C1720.44 148.689 1722.56 153.811 1722.57 159.153C1722.56 161.797 1722.03 164.414 1721.01 166.853C1719.98 169.291 1718.49 171.504 1716.61 173.364C1714.73 175.224 1712.5 176.695 1710.05 177.692C1707.6 178.689 1704.98 179.192 1702.33 179.173V179.173Z" fill="#ACD9F3"/>
<path d="M1702.26 296.824C1699.65 296.83 1697.06 296.319 1694.65 295.32C1692.24 294.321 1690.05 292.855 1688.2 291.004C1686.36 289.154 1684.9 286.957 1683.91 284.54C1682.92 282.123 1682.42 279.534 1682.43 276.922C1682.41 274.275 1682.92 271.65 1683.92 269.2C1684.93 266.75 1686.4 264.523 1688.27 262.648C1690.14 260.772 1692.36 259.286 1694.81 258.276C1697.26 257.265 1699.88 256.749 1702.53 256.759C1707.8 256.845 1712.84 258.984 1716.56 262.722C1720.29 266.46 1722.41 271.503 1722.47 276.779C1722.48 279.427 1721.96 282.048 1720.94 284.492C1719.92 286.937 1718.43 289.155 1716.55 291.019C1714.67 292.883 1712.44 294.356 1709.99 295.352C1707.54 296.349 1704.91 296.849 1702.26 296.824V296.824Z" fill="#ACD9F3"/>
<path d="M1623.2 -18.3445C1623.19 -20.9596 1623.69 -23.5518 1624.68 -25.9717C1625.67 -28.3916 1627.13 -30.5913 1628.98 -32.4437C1630.82 -34.2962 1633.02 -35.7647 1635.44 -36.7647C1637.85 -37.7647 1640.44 -38.2763 1643.06 -38.27C1647 -38.2841 1650.86 -37.1275 1654.15 -34.9467C1657.43 -32.7659 1660 -29.6589 1661.52 -26.0192C1663.04 -22.3796 1663.44 -18.371 1662.68 -14.5012C1661.92 -10.6313 1660.03 -7.07426 1657.24 -4.2805C1654.46 -1.48673 1650.91 0.418078 1647.04 1.19271C1643.17 1.96733 1639.16 1.57691 1635.52 0.0709193C1631.87 -1.43507 1628.76 -3.98889 1626.57 -7.26715C1624.37 -10.5454 1623.2 -14.4006 1623.2 -18.3445V-18.3445Z" fill="#ACD9F3"/>
<path d="M1722.03 99.9992C1722 105.204 1719.91 110.186 1716.22 113.851C1712.52 117.515 1707.52 119.563 1702.31 119.544C1697.11 119.488 1692.13 117.392 1688.46 113.706C1684.78 110.02 1682.69 105.039 1682.65 99.8328C1682.65 97.2202 1683.17 94.6337 1684.18 92.2244C1685.19 89.8151 1686.67 87.6314 1688.54 85.8006C1690.4 83.9699 1692.61 82.529 1695.04 81.562C1697.46 80.5951 1700.06 80.1214 1702.67 80.1688C1705.25 80.1777 1707.8 80.7003 1710.18 81.706C1712.55 82.7116 1714.7 84.1803 1716.51 86.0262C1718.31 87.8722 1719.72 90.0585 1720.67 92.4575C1721.62 94.8565 1722.08 97.4203 1722.03 99.9992V99.9992Z" fill="#ACD9F3"/>
<path d="M875.586 198.096C880.637 198.273 885.421 200.403 888.931 204.038C892.441 207.673 894.403 212.529 894.403 217.582C894.403 222.635 892.441 227.491 888.931 231.126C885.421 234.761 880.637 236.891 875.586 237.067C872.97 237.159 870.363 236.722 867.919 235.784C865.475 234.846 863.245 233.426 861.362 231.607C859.479 229.789 857.981 227.61 856.958 225.2C855.935 222.79 855.408 220.199 855.408 217.582C855.408 214.964 855.935 212.373 856.958 209.963C857.981 207.554 859.479 205.375 861.362 203.556C863.245 201.738 865.475 200.317 867.919 199.379C870.363 198.441 872.97 198.005 875.586 198.096V198.096Z" fill="#ACD9F3"/>
<path d="M875.545 178.153C871.719 178.144 867.982 177.001 864.805 174.868C861.628 172.736 859.155 169.71 857.697 166.172C856.24 162.635 855.863 158.745 856.616 154.993C857.368 151.242 859.215 147.798 861.923 145.096C864.632 142.394 868.081 140.555 871.834 139.812C875.587 139.069 879.476 139.455 883.01 140.921C886.544 142.388 889.564 144.869 891.689 148.05C893.813 151.232 894.947 154.972 894.947 158.798C894.951 161.345 894.451 163.867 893.476 166.22C892.501 168.573 891.072 170.71 889.269 172.508C887.466 174.307 885.325 175.731 882.97 176.7C880.615 177.669 878.092 178.163 875.545 178.153V178.153Z" fill="#ACD9F3"/>
<path d="M953.671 -18.2753C953.665 -13.2168 951.665 -8.36484 948.103 -4.77241C944.542 -1.17998 939.708 0.862998 934.649 0.913078C929.507 0.900521 924.58 -1.14769 920.944 -4.78362C917.308 -8.41955 915.26 -13.3473 915.247 -18.4893C915.272 -21.0306 915.8 -23.5418 916.802 -25.8774C917.804 -28.213 919.259 -30.3266 921.084 -32.0958C922.908 -33.865 925.066 -35.2546 927.431 -36.1842C929.796 -37.1138 932.323 -37.5648 934.863 -37.5112C937.361 -37.4833 939.83 -36.9636 942.127 -35.9817C944.424 -34.9999 946.505 -33.5751 948.252 -31.7889C949.998 -30.0026 951.376 -27.8898 952.306 -25.5711C953.236 -23.2525 953.7 -20.7734 953.671 -18.2753V-18.2753Z" fill="#ACD9F3"/>
<path d="M875.404 296.039C872.861 296.04 870.344 295.531 868.001 294.542C865.659 293.554 863.538 292.106 861.765 290.284C859.991 288.461 858.601 286.302 857.677 283.934C856.752 281.565 856.312 279.035 856.382 276.494C856.438 271.408 858.506 266.553 862.133 262.988C865.76 259.423 870.651 257.44 875.737 257.472C880.784 257.594 885.587 259.67 889.135 263.262C892.682 266.855 894.698 271.683 894.758 276.731C894.768 279.273 894.273 281.792 893.304 284.142C892.334 286.492 890.908 288.626 889.108 290.422C887.308 292.217 885.17 293.638 882.818 294.602C880.466 295.566 877.946 296.054 875.404 296.039V296.039Z" fill="#ACD9F3"/>
<path d="M1683.4 41.0245C1683.38 37.2503 1684.47 33.553 1686.55 30.4031C1688.63 27.2532 1691.6 24.793 1695.08 23.3357C1698.56 21.8783 1702.4 21.4896 1706.1 22.219C1709.81 22.9484 1713.21 24.763 1715.88 27.4318C1718.55 30.1006 1720.36 33.5031 1721.09 37.2062C1721.82 40.9093 1721.43 44.7458 1719.97 48.2273C1718.52 51.7089 1716.06 54.6782 1712.91 56.7575C1709.76 58.8367 1706.06 59.9319 1702.28 59.9037C1697.29 59.8664 1692.51 57.8654 1688.98 54.3329C1685.44 50.8004 1683.44 46.02 1683.4 41.0245Z" fill="#ACD9F3"/>
<path d="M875.381 118.706C871.625 118.678 867.962 117.539 864.852 115.431C861.743 113.324 859.327 110.344 857.909 106.866C856.491 103.387 856.135 99.5672 856.885 95.8867C857.635 92.2063 859.458 88.8303 862.124 86.1843C864.79 83.5383 868.179 81.7407 871.865 81.0182C875.551 80.2958 879.368 80.6807 882.836 82.1245C886.303 83.5683 889.266 86.0064 891.35 89.1314C893.434 92.2564 894.546 95.9283 894.546 99.6844C894.546 102.194 894.049 104.68 893.084 106.997C892.12 109.314 890.706 111.417 888.924 113.186C887.143 114.954 885.029 116.352 882.704 117.3C880.38 118.247 877.891 118.725 875.381 118.706Z" fill="#ACD9F3"/>
<path d="M875.612 58.7388C873.211 58.7641 870.828 58.3117 868.603 57.408C866.378 56.5043 864.355 55.1673 862.652 53.4748C860.948 51.7822 859.598 49.7679 858.68 47.5489C857.762 45.3299 857.294 42.9505 857.303 40.5491C857.284 35.6953 859.191 31.032 862.605 27.5819C866.02 24.1319 870.663 22.1768 875.517 22.1454C880.364 22.1883 885.002 24.1247 888.441 27.5412C891.88 30.9577 893.846 35.5834 893.921 40.4302C893.908 45.2821 891.975 49.9317 888.544 53.3625C885.113 56.7933 880.464 58.7263 875.612 58.7388V58.7388Z" fill="#ACD9F3"/>
<path d="M1761.18 235.879C1758.81 235.889 1756.47 235.426 1754.29 234.517C1752.1 233.607 1750.12 232.27 1748.46 230.584C1746.8 228.898 1745.5 226.897 1744.62 224.699C1743.75 222.501 1743.32 220.15 1743.37 217.785C1743.4 213.071 1745.28 208.557 1748.61 205.219C1751.93 201.882 1756.44 199.989 1761.16 199.952C1765.94 199.964 1770.53 201.86 1773.92 205.229C1777.32 208.598 1779.25 213.168 1779.3 217.951C1779.3 220.321 1778.82 222.666 1777.91 224.852C1777 227.039 1775.66 229.022 1773.97 230.689C1772.29 232.356 1770.29 233.672 1768.1 234.563C1765.9 235.454 1763.55 235.901 1761.18 235.879V235.879Z" fill="#ACD9F3"/>
<path d="M1743.47 158.531C1743.79 153.946 1745.87 149.661 1749.27 146.57C1752.68 143.479 1757.14 141.818 1761.73 141.935C1766.33 142.051 1770.7 143.935 1773.94 147.195C1777.19 150.455 1779.05 154.839 1779.14 159.435C1779 164.153 1777.02 168.63 1773.63 171.909C1770.23 175.189 1765.69 177.01 1760.97 176.983C1758.6 176.934 1756.27 176.416 1754.11 175.459C1751.95 174.503 1749.99 173.127 1748.37 171.411C1746.74 169.695 1745.47 167.673 1744.63 165.462C1743.79 163.251 1743.39 160.895 1743.47 158.531V158.531Z" fill="#ACD9F3"/>
<path d="M1743.49 276.846C1743.48 274.504 1743.93 272.182 1744.81 270.013C1745.69 267.844 1746.99 265.871 1748.64 264.205C1751.96 260.84 1756.49 258.934 1761.22 258.906C1765.95 258.877 1770.49 260.729 1773.86 264.053C1777.22 267.378 1779.13 271.902 1779.16 276.632C1779.17 278.974 1778.72 281.295 1777.84 283.464C1776.96 285.633 1775.66 287.607 1774.01 289.273C1770.69 292.637 1766.16 294.544 1761.43 294.572C1756.7 294.6 1752.16 292.749 1748.79 289.424C1745.43 286.1 1743.52 281.575 1743.49 276.846V276.846Z" fill="#ACD9F3"/>
<path d="M1778.76 99.9204C1778.76 102.216 1778.3 104.488 1777.41 106.606C1776.53 108.723 1775.23 110.643 1773.59 112.254C1771.96 113.865 1770.02 115.134 1767.89 115.989C1765.76 116.843 1763.48 117.265 1761.18 117.23C1756.55 117.193 1752.12 115.324 1748.86 112.032C1745.6 108.74 1743.77 104.292 1743.78 99.6589C1743.87 95.0247 1745.76 90.6087 1749.07 87.3558C1752.37 84.1029 1756.81 82.2716 1761.45 82.2538C1766.08 82.304 1770.51 84.1928 1773.76 87.5053C1777 90.8178 1778.8 95.2831 1778.76 99.9204Z" fill="#ACD9F3"/>
<path d="M833.387 217.382C833.422 219.647 833.007 221.896 832.167 224C831.327 226.104 830.078 228.021 828.493 229.639C826.908 231.258 825.017 232.546 822.931 233.43C820.845 234.313 818.604 234.774 816.339 234.787C811.783 234.743 807.426 232.912 804.206 229.688C800.986 226.464 799.161 222.104 799.124 217.548C799.13 213.044 800.91 208.725 804.079 205.525C807.248 202.325 811.55 200.502 816.054 200.452C818.311 200.395 820.558 200.791 822.66 201.616C824.762 202.442 826.678 203.68 828.294 205.258C829.91 206.836 831.193 208.722 832.068 210.804C832.942 212.886 833.391 215.123 833.387 217.382V217.382Z" fill="#ACD9F3"/>
<path d="M833.268 158.701C833.3 160.939 832.885 163.162 832.047 165.238C831.209 167.314 829.966 169.203 828.389 170.792C826.813 172.382 824.935 173.641 822.866 174.497C820.797 175.352 818.578 175.786 816.339 175.773C811.819 175.798 807.472 174.035 804.247 170.868C801.022 167.701 799.18 163.387 799.124 158.867C799.136 154.288 800.958 149.9 804.191 146.658C807.424 143.415 811.808 141.582 816.386 141.557C820.894 141.607 825.198 143.438 828.361 146.65C831.523 149.861 833.288 154.193 833.268 158.701Z" fill="#ACD9F3"/>
<path d="M816.408 259.898C820.806 260.096 824.955 261.991 827.983 265.185C831.012 268.379 832.684 272.623 832.647 277.025C832.61 281.426 830.867 285.642 827.785 288.785C824.704 291.928 820.523 293.753 816.123 293.876C813.839 293.94 811.566 293.543 809.439 292.709C807.312 291.875 805.375 290.62 803.744 289.021C802.112 287.421 800.82 285.509 799.944 283.399C799.068 281.289 798.627 279.024 798.646 276.739C798.665 274.455 799.145 272.197 800.056 270.102C800.967 268.007 802.291 266.117 803.949 264.545C805.607 262.973 807.565 261.751 809.706 260.953C811.846 260.154 814.126 259.796 816.408 259.898Z" fill="#ACD9F3"/>
<path d="M1761.32 24.1668C1765.74 24.1668 1769.97 25.9203 1773.09 29.0417C1776.21 32.1631 1777.97 36.3966 1777.97 40.811C1777.98 43.0123 1777.57 45.1952 1776.74 47.235C1775.91 49.2748 1774.69 51.1315 1773.14 52.6991C1771.6 54.2668 1769.76 55.5147 1767.73 56.3715C1765.7 57.2284 1763.53 57.6773 1761.32 57.6929C1759.09 57.6929 1756.88 57.2521 1754.82 56.3956C1752.76 55.5392 1750.89 54.284 1749.31 52.7022C1747.74 51.1204 1746.49 49.243 1745.64 47.1779C1744.79 45.1128 1744.36 42.9006 1744.37 40.6683C1744.39 38.4683 1744.84 36.2938 1745.71 34.2706C1746.57 32.2474 1747.83 30.4155 1749.41 28.881C1750.98 27.3465 1752.85 26.1397 1754.89 25.3306C1756.94 24.5214 1759.12 24.1258 1761.32 24.1668V24.1668Z" fill="#ACD9F3"/>
<path d="M833.293 99.9017C833.303 102.083 832.878 104.245 832.043 106.261C831.208 108.277 829.98 110.106 828.431 111.642C826.882 113.178 825.042 114.39 823.019 115.208C820.996 116.025 818.831 116.432 816.649 116.403C812.235 116.403 808.001 114.65 804.88 111.528C801.758 108.407 800.005 104.173 800.005 99.759C800.103 95.3387 801.918 91.1302 805.064 88.0238C808.21 84.9174 812.442 83.1569 816.863 83.1148C821.265 83.1712 825.465 84.9693 828.545 88.1154C831.624 91.2616 833.331 95.4995 833.293 99.9017Z" fill="#ACD9F3"/>
<path d="M832.529 40.668C832.53 42.7561 832.113 44.8232 831.303 46.748C830.494 48.6727 829.307 50.4162 827.814 51.8759C826.321 53.3357 824.552 54.4824 822.609 55.2486C820.667 56.0147 818.591 56.3849 816.503 56.3374C814.408 56.3219 812.337 55.8926 810.408 55.0744C808.479 54.2561 806.731 53.0649 805.264 51.5691C803.797 50.0734 802.64 48.3026 801.86 46.3584C801.079 44.4142 800.69 42.335 800.715 40.24C800.802 36.0224 802.539 32.007 805.553 29.0553C808.567 26.1036 812.618 24.4509 816.836 24.4518C818.932 24.4828 821.002 24.9272 822.926 25.7595C824.85 26.5919 826.591 27.7958 828.049 29.3023C829.507 30.8088 830.653 32.5883 831.422 34.5386C832.191 36.489 832.567 38.5719 832.529 40.668Z" fill="#ACD9F3"/>
<path d="M1820.46 233.361C1818.44 233.374 1816.43 232.984 1814.57 232.212C1812.7 231.441 1811 230.304 1809.58 228.869C1808.16 227.433 1807.04 225.729 1806.29 223.854C1805.53 221.98 1805.16 219.974 1805.19 217.954C1805.17 213.873 1806.77 209.951 1809.64 207.046C1812.5 204.141 1816.4 202.488 1820.48 202.451C1824.63 202.488 1828.6 204.163 1831.52 207.111C1834.44 210.059 1836.08 214.041 1836.08 218.191C1836 222.27 1834.32 226.153 1831.39 228.995C1828.47 231.836 1824.54 233.406 1820.46 233.361V233.361Z" fill="#ACD9F3"/>
<path d="M1820.41 143.769C1824.48 143.725 1828.41 145.293 1831.32 148.131C1834.24 150.968 1835.92 154.846 1835.99 158.916C1835.98 162.989 1834.39 166.9 1831.54 169.814C1828.69 172.728 1824.82 174.414 1820.75 174.514C1816.67 174.533 1812.76 172.941 1809.85 170.086C1806.95 167.231 1805.29 163.344 1805.24 159.272C1805.21 157.255 1805.57 155.251 1806.32 153.376C1807.07 151.501 1808.18 149.793 1809.59 148.351C1811 146.909 1812.68 145.761 1814.54 144.975C1816.4 144.188 1818.39 143.778 1820.41 143.769V143.769Z" fill="#ACD9F3"/>
<path d="M1820.6 261.634C1823.62 261.639 1826.56 262.539 1829.07 264.221C1831.57 265.902 1833.51 268.289 1834.66 271.078C1835.8 273.868 1836.09 276.934 1835.49 279.888C1834.89 282.842 1833.42 285.551 1831.28 287.671C1829.14 289.791 1826.41 291.227 1823.45 291.796C1820.49 292.365 1817.43 292.042 1814.65 290.867C1811.87 289.693 1809.51 287.72 1807.86 285.2C1806.2 282.679 1805.33 279.724 1805.36 276.709C1805.39 272.69 1807.01 268.845 1809.86 266.019C1812.72 263.192 1816.58 261.615 1820.6 261.634Z" fill="#ACD9F3"/>
<path d="M1835.46 99.6853C1835.48 101.635 1835.11 103.568 1834.37 105.374C1833.64 107.18 1832.56 108.824 1831.19 110.212C1829.82 111.599 1828.19 112.702 1826.39 113.458C1824.6 114.214 1822.67 114.608 1820.72 114.617C1818.73 114.64 1816.76 114.266 1814.92 113.518C1813.08 112.771 1811.41 111.664 1810 110.263C1808.59 108.862 1807.48 107.194 1806.72 105.358C1805.97 103.521 1805.58 101.552 1805.6 99.5664C1805.68 95.6278 1807.3 91.8779 1810.11 89.1123C1812.91 86.3467 1816.68 84.783 1820.62 84.7531C1824.57 84.7844 1828.34 86.3707 1831.11 89.1669C1833.89 91.9632 1835.45 95.7433 1835.46 99.6853V99.6853Z" fill="#ACD9F3"/>
<path d="M742.94 217.166C743.016 213.326 744.614 209.672 747.383 207.01C750.152 204.348 753.865 202.895 757.706 202.971C761.546 203.047 765.199 204.645 767.861 207.414C770.524 210.183 771.977 213.896 771.901 217.737C771.801 221.58 770.195 225.23 767.428 227.899C764.661 230.568 760.956 232.042 757.111 232.003C755.206 231.963 753.326 231.547 751.582 230.779C749.837 230.011 748.261 228.906 746.945 227.528C745.628 226.149 744.596 224.524 743.909 222.746C743.222 220.968 742.893 219.072 742.94 217.166V217.166Z" fill="#ACD9F3"/>
<path d="M757.205 173.106C754.353 173.073 751.575 172.197 749.219 170.589C746.864 168.98 745.037 166.711 743.968 164.067C742.9 161.422 742.637 158.521 743.213 155.728C743.79 152.935 745.18 150.374 747.208 148.369C749.236 146.364 751.812 145.003 754.612 144.459C757.412 143.915 760.31 144.21 762.942 145.309C765.574 146.408 767.822 148.261 769.403 150.635C770.984 153.008 771.828 155.797 771.828 158.649C771.835 160.563 771.46 162.46 770.725 164.228C769.991 165.995 768.911 167.599 767.55 168.945C766.188 170.291 764.572 171.352 762.796 172.066C761.02 172.781 759.119 173.134 757.205 173.106V173.106Z" fill="#ACD9F3"/>
<path d="M771.588 276.728C771.623 278.597 771.283 280.454 770.589 282.19C769.895 283.925 768.86 285.505 767.546 286.834C766.232 288.164 764.665 289.217 762.937 289.931C761.21 290.646 759.357 291.007 757.488 290.994C755.614 291.016 753.755 290.669 752.015 289.972C750.276 289.275 748.691 288.243 747.351 286.934C746.01 285.624 744.941 284.064 744.204 282.341C743.467 280.619 743.076 278.768 743.055 276.894C743.054 273.095 744.552 269.449 747.223 266.747C749.894 264.045 753.522 262.505 757.321 262.461C761.105 262.461 764.734 263.964 767.409 266.64C770.085 269.315 771.588 272.944 771.588 276.728V276.728Z" fill="#ACD9F3"/>
<path d="M1834.69 40.9831C1834.69 44.7139 1833.23 48.2965 1830.62 50.9633C1828.01 53.6301 1824.46 55.1687 1820.73 55.2496C1816.96 55.2063 1813.35 53.6894 1810.69 51.0232C1808.02 48.357 1806.5 44.7534 1806.46 40.9831C1806.49 39.1075 1806.89 37.2558 1807.63 35.534C1808.38 33.8122 1809.45 32.2541 1810.8 30.9489C1812.15 29.6437 1813.74 28.6169 1815.48 27.9274C1817.23 27.2379 1819.09 26.8992 1820.97 26.9307C1824.64 26.987 1828.15 28.4962 1830.72 31.1289C1833.29 33.7616 1834.72 37.3039 1834.69 40.9831V40.9831Z" fill="#ACD9F3"/>
<path d="M757.445 113.786C754.689 113.799 751.99 112.998 749.688 111.483C747.386 109.967 745.584 107.805 744.507 105.268C743.43 102.732 743.127 99.933 743.635 97.2244C744.144 94.5158 745.442 92.0179 747.366 90.0446C749.29 88.0713 751.754 86.7107 754.449 86.1337C757.144 85.5566 759.949 85.7889 762.512 86.8013C765.075 87.8137 767.282 89.561 768.856 91.8239C770.429 94.0867 771.298 96.7639 771.354 99.5193C771.399 101.375 771.072 103.221 770.393 104.948C769.714 106.676 768.697 108.25 767.401 109.579C766.105 110.908 764.557 111.965 762.847 112.687C761.138 113.41 759.301 113.783 757.445 113.786V113.786Z" fill="#ACD9F3"/>
<path d="M770.591 40.7651C770.535 43.3646 769.71 45.8892 768.222 48.0209C766.733 50.1526 764.647 51.7961 762.226 52.7443C759.805 53.6925 757.157 53.903 754.617 53.3494C752.076 52.7957 749.756 51.5026 747.95 49.6329C746.143 47.7633 744.93 45.4008 744.463 42.8429C743.996 40.285 744.297 37.6463 745.327 35.2591C746.358 32.8718 748.071 30.8429 750.253 29.4278C752.434 28.0128 754.985 27.2749 757.585 27.3071C759.327 27.3223 761.049 27.6842 762.649 28.3715C764.25 29.0589 765.698 30.058 766.908 31.3106C768.119 32.5633 769.068 34.0444 769.7 35.6676C770.333 37.2908 770.636 39.0237 770.591 40.7651V40.7651Z" fill="#ACD9F3"/>
<path d="M1867.01 217.832C1867.01 216.202 1867.33 214.587 1867.95 213.081C1868.58 211.576 1869.5 210.211 1870.66 209.066C1871.82 207.921 1873.2 207.019 1874.71 206.413C1876.22 205.808 1877.84 205.511 1879.47 205.539C1882.77 205.526 1885.94 206.82 1888.29 209.136C1890.64 211.453 1891.97 214.605 1892 217.903C1891.97 221.269 1890.6 224.484 1888.21 226.848C1885.81 229.213 1882.58 230.536 1879.21 230.529C1875.92 230.448 1872.78 229.068 1870.5 226.691C1868.22 224.313 1866.96 221.129 1867.01 217.832V217.832Z" fill="#ACD9F3"/>
<path d="M1879.35 146.766C1881.79 146.743 1884.17 147.44 1886.21 148.769C1888.25 150.099 1889.85 152.001 1890.81 154.237C1891.77 156.473 1892.05 158.943 1891.61 161.337C1891.17 163.73 1890.03 165.94 1888.34 167.689C1886.64 169.437 1884.47 170.646 1882.09 171.164C1879.72 171.681 1877.24 171.484 1874.97 170.598C1872.71 169.711 1870.75 168.174 1869.36 166.18C1867.96 164.186 1867.19 161.824 1867.13 159.391C1867.09 157.757 1867.38 156.131 1867.98 154.609C1868.57 153.086 1869.47 151.697 1870.6 150.523C1871.74 149.348 1873.1 148.411 1874.6 147.766C1876.1 147.121 1877.72 146.781 1879.35 146.766V146.766Z" fill="#ACD9F3"/>
<path d="M1879.28 264.724C1880.88 264.67 1882.47 264.937 1883.96 265.51C1885.45 266.083 1886.8 266.951 1887.95 268.06C1889.1 269.169 1890.01 270.498 1890.63 271.968C1891.26 273.437 1891.58 275.017 1891.58 276.613C1891.63 279.83 1890.41 282.938 1888.19 285.26C1885.96 287.581 1882.9 288.926 1879.69 289.001C1876.45 289.002 1873.35 287.739 1871.03 285.482C1868.72 283.226 1867.38 280.154 1867.3 276.922C1867.3 273.724 1868.55 270.653 1870.8 268.372C1873.04 266.09 1876.08 264.78 1879.28 264.724V264.724Z" fill="#ACD9F3"/>
<path d="M1891.32 99.9977C1891.23 103.147 1889.91 106.135 1887.62 108.306C1885.34 110.478 1882.29 111.654 1879.14 111.577C1877.58 111.557 1876.04 111.222 1874.61 110.592C1873.18 109.963 1871.89 109.051 1870.82 107.913C1869.75 106.774 1868.92 105.432 1868.38 103.966C1867.84 102.5 1867.6 100.94 1867.68 99.3795C1867.8 96.3054 1869.1 93.3963 1871.32 91.2635C1873.54 89.1307 1876.49 87.9403 1879.57 87.9426C1881.13 87.9612 1882.68 88.288 1884.11 88.9042C1885.55 89.5204 1886.85 90.414 1887.94 91.5337C1889.03 92.6535 1889.89 93.9775 1890.47 95.4298C1891.05 96.8822 1891.34 98.4345 1891.32 99.9977V99.9977Z" fill="#ACD9F3"/>
<path d="M709.675 217.644C709.65 220.602 708.466 223.433 706.376 225.527C704.286 227.622 701.458 228.812 698.5 228.843C695.545 228.783 692.728 227.59 690.63 225.509C688.531 223.429 687.314 220.621 687.229 217.668C687.226 216.171 687.521 214.688 688.098 213.307C688.675 211.925 689.522 210.673 690.59 209.623C691.657 208.573 692.924 207.747 694.315 207.193C695.705 206.64 697.193 206.369 698.69 206.397C700.152 206.407 701.598 206.706 702.943 207.277C704.289 207.849 705.508 208.682 706.53 209.728C707.551 210.774 708.355 212.012 708.895 213.371C709.435 214.73 709.7 216.182 709.675 217.644Z" fill="#ACD9F3"/>
<path d="M698.309 169.735C696.121 169.697 693.993 169.012 692.194 167.767C690.394 166.521 689.004 164.771 688.198 162.737C687.392 160.702 687.207 158.474 687.665 156.335C688.124 154.195 689.206 152.239 690.774 150.713C692.343 149.187 694.329 148.16 696.48 147.761C698.632 147.363 700.854 147.61 702.865 148.472C704.876 149.334 706.587 150.772 707.782 152.606C708.977 154.439 709.603 156.585 709.579 158.773C709.567 160.235 709.265 161.681 708.69 163.025C708.116 164.37 707.28 165.587 706.232 166.606C705.184 167.626 703.944 168.427 702.584 168.964C701.224 169.501 699.771 169.763 698.309 169.735Z" fill="#ACD9F3"/>
<path d="M1879.42 51.9397C1877.96 51.9372 1876.51 51.6414 1875.16 51.0699C1873.82 50.4984 1872.6 49.6627 1871.58 48.6122C1870.56 47.5617 1869.76 46.3177 1869.23 44.9535C1868.7 43.5893 1868.45 42.1325 1868.49 40.6692C1868.5 39.2413 1868.8 37.8305 1869.36 36.5178C1869.92 35.2052 1870.74 34.0165 1871.76 33.0201C1872.79 32.0236 1874 31.2391 1875.32 30.7115C1876.65 30.1839 1878.07 29.9236 1879.5 29.9456C1880.98 29.8765 1882.47 30.1097 1883.86 30.6311C1885.26 31.1526 1886.53 31.9514 1887.61 32.9794C1888.69 34.0074 1889.54 35.2431 1890.13 36.6118C1890.71 37.9806 1891.02 39.4539 1891.02 40.9427C1891.02 42.4315 1890.71 43.9048 1890.13 45.2735C1889.54 46.6423 1888.69 47.878 1887.61 48.906C1886.53 49.9339 1885.26 50.7328 1883.86 51.2543C1882.47 51.7757 1880.98 52.0089 1879.5 51.9397L1879.42 51.9397Z" fill="#ACD9F3"/>
<path d="M698.662 287.811C697.234 287.849 695.812 287.604 694.479 287.091C693.146 286.578 691.928 285.807 690.894 284.821C689.86 283.836 689.03 282.656 688.454 281.349C687.877 280.042 687.565 278.634 687.534 277.206C687.454 275.018 688.027 272.856 689.182 270.996C690.336 269.137 692.019 267.663 694.016 266.764C696.012 265.865 698.231 265.582 700.388 265.951C702.546 266.319 704.545 267.323 706.13 268.833C707.715 270.343 708.814 272.292 709.285 274.429C709.757 276.567 709.581 278.797 708.779 280.834C707.978 282.871 706.587 284.623 704.785 285.866C702.982 287.109 700.851 287.786 698.662 287.811Z" fill="#ACD9F3"/>
<path d="M698.617 89.2234C701.34 89.3795 703.899 90.5792 705.761 92.5731C707.623 94.5671 708.645 97.2018 708.614 99.9298C708.583 102.658 707.503 105.269 705.596 107.221C703.69 109.172 701.105 110.314 698.379 110.409C696.946 110.459 695.518 110.218 694.181 109.7C692.844 109.182 691.626 108.399 690.6 107.397C689.575 106.396 688.763 105.196 688.214 103.872C687.665 102.547 687.39 101.125 687.406 99.6917C687.422 98.2581 687.729 96.8427 688.307 95.531C688.886 94.2192 689.724 93.0384 690.772 92.0599C691.82 91.0814 693.056 90.3255 694.404 89.838C695.752 89.3505 697.185 89.1414 698.617 89.2234V89.2234Z" fill="#ACD9F3"/>
<path d="M698.428 30.9695C699.67 30.9506 700.904 31.1789 702.057 31.6412C703.21 32.1035 704.26 32.7906 705.145 33.6624C706.03 34.5342 706.733 35.5734 707.212 36.7194C707.692 37.8654 707.939 39.0954 707.939 40.3377C707.98 41.5927 707.772 42.8435 707.328 44.0178C706.883 45.1921 706.21 46.2667 705.348 47.1797C704.486 48.0926 703.452 48.8258 702.305 49.337C701.158 49.8481 699.921 50.1271 698.666 50.1578C696.069 50.1707 693.572 49.1595 691.716 47.3435C689.86 45.5275 688.794 43.053 688.75 40.4566C688.753 39.1955 689.007 37.9476 689.497 36.7854C689.987 35.6233 690.703 34.5701 691.603 33.6873C692.504 32.8044 693.571 32.1095 694.743 31.6429C695.914 31.1763 697.167 30.9474 698.428 30.9695V30.9695Z" fill="#ACD9F3"/>
<path d="M639.315 224.091C638.448 224.114 637.585 223.961 636.778 223.643C635.971 223.325 635.236 222.848 634.617 222.24C633.998 221.632 633.508 220.906 633.175 220.105C632.843 219.304 632.675 218.444 632.681 217.576C632.678 216.707 632.847 215.846 633.178 215.043C633.509 214.239 633.996 213.51 634.61 212.895C635.225 212.281 635.955 211.794 636.758 211.463C637.562 211.132 638.423 210.963 639.291 210.966C640.977 211.023 642.58 211.708 643.786 212.887C644.992 214.067 645.712 215.655 645.806 217.338C645.825 218.208 645.672 219.074 645.356 219.884C645.04 220.695 644.566 221.436 643.963 222.063C643.36 222.69 642.639 223.193 641.842 223.541C641.044 223.889 640.185 224.076 639.315 224.091V224.091Z" fill="#ACD9F3"/>
<path d="M645.452 158.814C645.453 159.651 645.283 160.48 644.951 161.25C644.619 162.019 644.132 162.711 643.521 163.284C642.91 163.857 642.188 164.299 641.399 164.581C640.611 164.863 639.772 164.98 638.937 164.925C637.317 164.864 635.783 164.184 634.65 163.024C633.517 161.865 632.873 160.315 632.85 158.695C632.874 157.008 633.557 155.398 634.752 154.208C635.947 153.017 637.559 152.341 639.246 152.323C640.081 152.335 640.906 152.513 641.672 152.847C642.438 153.181 643.13 153.664 643.708 154.269C644.286 154.873 644.737 155.586 645.036 156.366C645.336 157.146 645.477 157.978 645.452 158.814V158.814Z" fill="#ACD9F3"/>
<path d="M645.095 99.8772C644.923 101.398 644.183 102.799 643.024 103.799C641.866 104.799 640.372 105.326 638.842 105.275C638.051 105.213 637.281 104.992 636.577 104.626C635.874 104.259 635.251 103.754 634.747 103.142C634.243 102.529 633.868 101.821 633.644 101.06C633.421 100.299 633.353 99.5001 633.445 98.7121C633.515 97.954 633.737 97.2179 634.099 96.5478C634.46 95.8777 634.953 95.2874 635.548 94.8123C636.143 94.3373 636.828 93.9871 637.561 93.7829C638.295 93.5787 639.062 93.5245 639.817 93.6238C641.337 93.7747 642.739 94.5122 643.725 95.6798C644.71 96.8474 645.202 98.353 645.095 99.8772V99.8772Z" fill="#ACD9F3"/>
<path d="M643.742 40.622C643.692 41.7942 643.21 42.9063 642.389 43.7447C641.568 44.583 640.466 45.0884 639.296 45.1635C638.034 45.1635 636.825 44.6625 635.933 43.7706C635.041 42.8788 634.54 41.6693 634.54 40.408C634.561 39.7874 634.707 39.1772 634.969 38.6143C635.231 38.0513 635.604 37.5472 636.066 37.1319C636.528 36.7167 637.069 36.399 637.657 36.1979C638.244 35.9969 638.866 35.9165 639.486 35.9616C640.074 35.9797 640.653 36.1156 641.187 36.3613C641.722 36.6069 642.202 36.9575 642.599 37.392C642.996 37.8266 643.302 38.3364 643.498 38.8912C643.694 39.446 643.777 40.0346 643.742 40.622V40.622Z" fill="#ACD9F3"/>
</mask>
<g mask="url(#mask0_342_99904)">
<rect x="524.888" y="0.385803" width="1396.61" height="269.057" fill="url(#paint1_linear_342_99904)" fill-opacity="0.16"/>
</g>
</g>
<defs>
<linearGradient id="paint0_linear_342_99904" x1="960" y1="1" x2="960" y2="270" gradientUnits="userSpaceOnUse">
<stop stop-color="#D6E1FF"/>
<stop offset="1" stop-color="#E3EFFF"/>
</linearGradient>
<linearGradient id="paint1_linear_342_99904" x1="1294.72" y1="269.443" x2="1294.72" y2="0.3858" gradientUnits="userSpaceOnUse">
<stop stop-color="#9385B3"/>
<stop offset="1" stop-color="#F8FCFE"/>
</linearGradient>
</defs>
</svg>
