<svg width="44" height="29" viewBox="0 0 44 29" fill="none" xmlns="http://www.w3.org/2000/svg">
<rect x="0.152381" y="0.152381" width="43.6952" height="28.6952" rx="2.28571" fill="white"/>
<path fill-rule="evenodd" clip-rule="evenodd" d="M22 8.25C22.5523 8.25 23 8.69772 23 9.25V10.75C23 11.3023 22.5523 11.75 22 11.75C21.4477 11.75 21 11.3023 21 10.75V9.25C21 8.69772 21.4477 8.25 22 8.25Z" fill="#005895"/>
<path fill-rule="evenodd" clip-rule="evenodd" d="M22 17.25C22.5523 17.25 23 17.6977 23 18.25V19.75C23 20.3023 22.5523 20.75 22 20.75C21.4477 20.75 21 20.3023 21 19.75V18.25C21 17.6977 21.4477 17.25 22 17.25Z" fill="#005895"/>
<path fill-rule="evenodd" clip-rule="evenodd" d="M22 6.5C17.5817 6.5 14 10.0817 14 14.5C14 18.9183 17.5817 22.5 22 22.5C26.4183 22.5 30 18.9183 30 14.5C30 10.0817 26.4183 6.5 22 6.5ZM12 14.5C12 8.97715 16.4772 4.5 22 4.5C27.5228 4.5 32 8.97715 32 14.5C32 20.0228 27.5228 24.5 22 24.5C16.4772 24.5 12 20.0228 12 14.5Z" fill="#005895"/>
<path fill-rule="evenodd" clip-rule="evenodd" d="M20.875 11.75C20.6429 11.75 20.4204 11.8422 20.2563 12.0063C20.0922 12.1704 20 12.3929 20 12.625C20 12.8571 20.0922 13.0796 20.2563 13.2437C20.4204 13.4078 20.6429 13.5 20.875 13.5H23.125C23.8875 13.5 24.6188 13.8029 25.1579 14.3421C25.6971 14.8812 26 15.6125 26 16.375C26 17.1375 25.6971 17.8688 25.1579 18.4079C24.6188 18.9471 23.8875 19.25 23.125 19.25H19.75C19.1977 19.25 18.75 18.8023 18.75 18.25C18.75 17.6977 19.1977 17.25 19.75 17.25H23.125C23.3571 17.25 23.5796 17.1578 23.7437 16.9937C23.9078 16.8296 24 16.6071 24 16.375C24 16.1429 23.9078 15.9204 23.7437 15.7563C23.5796 15.5922 23.3571 15.5 23.125 15.5H20.875C20.1125 15.5 19.3812 15.1971 18.8421 14.6579C18.3029 14.1188 18 13.3875 18 12.625C18 11.8625 18.3029 11.1312 18.8421 10.5921C19.3812 10.0529 20.1125 9.75 20.875 9.75H24.25C24.8023 9.75 25.25 10.1977 25.25 10.75C25.25 11.3023 24.8023 11.75 24.25 11.75H20.875Z" fill="#005895"/>
<rect x="0.152381" y="0.152381" width="43.6952" height="28.6952" rx="2.28571" stroke="#CCCCCC" stroke-width="0.304762"/>
</svg>
