<svg width="80" height="80" viewBox="0 0 80 80" fill="none" xmlns="http://www.w3.org/2000/svg">
<path d="M80 40C80 62.0914 62.0914 80 40 80C17.9086 80 0 62.0914 0 40C0 17.9086 17.9086 0 40 0C62.0914 0 80 17.9086 80 40ZM4 40C4 59.8823 20.1177 76 40 76C59.8823 76 76 59.8823 76 40C76 20.1177 59.8823 4 40 4C20.1177 4 4 20.1177 4 40Z" fill="#E5E5E5"/>
<rect x="10" y="10" width="60" height="60" rx="30" fill="#E6F7EE"/>
<path fill-rule="evenodd" clip-rule="evenodd" d="M51.9414 32.058C52.4621 32.5787 52.4621 33.4229 51.9414 33.9436L37.9414 47.9436C37.4207 48.4643 36.5765 48.4643 36.0558 47.9436L29.0558 40.9436C28.5351 40.4229 28.5351 39.5787 29.0558 39.058C29.5765 38.5373 30.4207 38.5373 30.9414 39.058L36.9986 45.1152L50.0558 32.058C50.5765 31.5373 51.4207 31.5373 51.9414 32.058Z" fill="#0EB864"/>
<path d="M80 40C80 62.0914 62.0914 80 40 80C17.9086 80 0 62.0914 0 40C0 17.9086 17.9086 0 40 0C62.0914 0 80 17.9086 80 40ZM4 40C4 59.8823 20.1177 76 40 76C59.8823 76 76 59.8823 76 40C76 20.1177 59.8823 4 40 4C20.1177 4 4 20.1177 4 40Z" fill="#0EB864" fill-opacity="0.8"/>
</svg>
