<svg width="373" height="175" viewBox="0 0 373 175" fill="none" xmlns="http://www.w3.org/2000/svg">
<g clip-path="url(#clip0_200_65194)">
<path d="M47.5413 85.2388C60.6996 74.2794 57.9122 58.514 42.9591 44.979C33.0618 57.2392 30.5822 77.2858 47.5413 85.2388Z" fill="#99BCD5"/>
<path d="M48.5554 87.9769C46.1841 67.5501 28.4684 59.963 4.98755 66.058C10.818 84.0668 29.3762 99.7606 48.5554 87.9769Z" fill="#E6F2FF"/>
<path d="M48.555 88.4014C48.499 88.4014 48.4416 88.3897 48.3855 88.3662C44.7594 86.7947 38.9316 83.6567 32.7633 80.3338C25.305 76.3169 16.8516 71.7636 10.2777 68.8809C10.0624 68.7871 9.96461 68.5358 10.0598 68.321C10.1537 68.1061 10.4055 68.0085 10.6207 68.1035C17.2259 70.9993 25.695 75.5617 33.1676 79.5864C39.3203 82.9002 45.1324 86.0303 48.7246 87.5876C48.9398 87.6814 49.039 87.9314 48.945 88.1462C48.8759 88.3063 48.7194 88.4014 48.555 88.4014V88.4014Z" fill="#99BCD5"/>
<path d="M60.6139 78.1918C60.593 78.197 60.5722 78.2009 60.55 78.2035C60.3165 78.227 60.1078 78.0564 60.0843 77.8233C59.3004 70.0123 57.4652 51.7209 67.8139 31.7745C67.9222 31.5662 68.1791 31.4855 68.3865 31.5923C68.5952 31.7003 68.6761 31.9568 68.5691 32.1639C58.3365 51.8862 60.1548 70.0018 60.9308 77.7387C60.9517 77.9496 60.8148 78.141 60.6139 78.1918V78.1918Z" fill="#B4DC9D"/>
<path d="M70.7732 42.0191C70.7341 42.0295 70.6937 42.0334 70.6519 42.0321C67.0037 41.898 64.3493 43.1819 63.7063 43.6428C63.5172 43.7795 63.2498 43.7365 63.1128 43.5451C62.9759 43.355 63.0189 43.0894 63.2106 42.9527C63.9659 42.4123 66.7793 41.0413 70.6832 41.1845C70.918 41.1936 71.1019 41.3902 71.0928 41.6246C71.0863 41.8173 70.9519 41.9748 70.7732 42.0204V42.0191Z" fill="#B4DC9D"/>
<path d="M64.3835 41.3109C64.1787 41.363 63.9635 41.2575 63.8826 41.057C63.0218 38.9047 61.617 36.0154 60.5644 34.7576C60.4144 34.5779 60.4379 34.3097 60.6179 34.16C60.7992 34.0089 61.0666 34.0337 61.2166 34.2147C62.4935 35.742 63.9896 39.0375 64.6718 40.7432C64.7592 40.9607 64.6522 41.2081 64.4344 41.2953C64.4174 41.3018 64.3992 41.3083 64.3822 41.3122L64.3835 41.3109Z" fill="#B4DC9D"/>
<path d="M61.4679 51.7561C61.2631 51.8082 61.0466 51.7015 60.967 51.4996C60.3162 49.8473 58.2996 46.4619 57.3031 45.7758C57.1101 45.6429 57.0605 45.3786 57.1948 45.1846C57.3279 44.9919 57.5927 44.9424 57.787 45.0765C59.0275 45.9307 61.1353 49.6025 61.7601 51.1897C61.8461 51.4072 61.7392 51.6546 61.5201 51.7405C61.5031 51.747 61.4862 51.7522 61.4692 51.7561H61.4679Z" fill="#B4DC9D"/>
<path d="M60.7646 55.8601C60.6329 55.8939 60.4868 55.864 60.3772 55.7676C60.2011 55.6127 60.1842 55.3444 60.3394 55.1687C60.4281 55.0684 60.5233 54.9538 60.6276 54.8301C61.6907 53.5671 63.6694 51.2169 67.8029 51.1349C68.0376 51.1297 68.232 51.3159 68.2372 51.5502C68.2411 51.7846 68.0533 51.9786 67.8198 51.9825C64.0737 52.058 62.3233 54.1348 61.2798 55.3757C61.1703 55.5059 61.0698 55.6244 60.9772 55.7299C60.9185 55.7963 60.8442 55.8392 60.7646 55.8601Z" fill="#B4DC9D"/>
<path d="M60.0949 62.7533C59.8966 62.8041 59.684 62.7051 59.5993 62.5124L59.4023 62.058C58.6132 60.2221 57.5332 57.7078 55.4997 57.493C55.2662 57.4682 55.0966 57.2586 55.1214 57.0255C55.1462 56.7924 55.3562 56.6232 55.5897 56.6479C58.1175 56.9161 59.3123 59.6947 60.1836 61.7234L60.3779 62.1726C60.4719 62.3874 60.374 62.6374 60.1588 62.7312C60.1379 62.7403 60.1158 62.7481 60.0936 62.7533H60.0949Z" fill="#B4DC9D"/>
<path d="M59.9904 65.9095C59.8795 65.9381 59.7569 65.9212 59.6526 65.8535C59.4556 65.7259 59.4008 65.4629 59.5287 65.2662C60.5904 63.6426 61.913 61.6166 65.6839 60.808C65.9135 60.7585 66.1391 60.9043 66.1887 61.1335C66.2382 61.3627 66.1 61.5996 65.8626 61.6387C62.4426 62.377 61.2687 64.1595 60.2408 65.7311C60.1808 65.8235 60.0895 65.8847 59.9904 65.9108V65.9095Z" fill="#B4DC9D"/>
<path d="M60.0362 70.1881C59.8667 70.2324 59.6801 70.166 59.5771 70.0123C58.1032 67.8106 56.1845 66.2337 54.8019 66.0879C54.5684 66.0632 54.3988 65.8536 54.4236 65.6205C54.4484 65.3874 54.6584 65.2181 54.8919 65.2429C56.8888 65.4538 58.9862 67.6009 60.2841 69.541C60.4145 69.7363 60.3623 69.9993 60.1667 70.1295C60.1262 70.1569 60.0819 70.1764 60.0362 70.1881V70.1881Z" fill="#B4DC9D"/>
<path d="M60.4689 76.7113C60.3776 76.7348 60.2798 76.7283 60.1872 76.6866C59.9733 76.5902 59.878 76.3376 59.9759 76.1241C60.662 74.6137 62.6446 71.0513 66.2172 70.5513C66.4493 70.5187 66.6646 70.6815 66.6972 70.9132C66.7298 71.145 66.5733 71.3559 66.3346 71.3924C63.1859 71.8286 61.3806 75.0929 60.7506 76.4744C60.6959 76.5967 60.5889 76.6788 60.4689 76.71V76.7113Z" fill="#B4DC9D"/>
<path d="M70.9966 29.9556C70.8153 28.7981 69.7275 28.0051 68.5679 28.1861C67.4084 28.3671 66.614 29.453 66.7953 30.6106C66.9766 31.7681 68.0644 32.5611 69.224 32.3801C70.3849 32.1991 71.1779 31.1132 70.9966 29.9556V29.9556Z" fill="#FFAC45"/>
<path d="M62.4129 33.9334C62.2747 33.0467 61.4412 32.4387 60.5516 32.578C59.6634 32.716 59.0542 33.548 59.1938 34.436C59.3321 35.3227 60.1655 35.9308 61.0551 35.7915C61.9447 35.6522 62.5525 34.8214 62.4129 33.9334Z" fill="#FFAC45"/>
<path d="M73.2453 41.3526C73.1071 40.4646 72.2736 39.8579 71.384 39.9972C70.4958 40.1352 69.8866 40.9672 70.0262 41.8552C70.1645 42.7419 70.9979 43.35 71.8875 43.2107C72.7758 43.0727 73.3849 42.2407 73.2453 41.3526Z" fill="#FFAC45"/>
<path d="M58.2833 44.721C58.145 43.8343 57.3115 43.2263 56.422 43.3656C55.5337 43.5036 54.9246 44.3356 55.0642 45.2236C55.2024 46.1103 56.0359 46.7184 56.9255 46.5791C57.8137 46.4411 58.4229 45.609 58.2833 44.721Z" fill="#FFAC45"/>
<path d="M67.8048 60.5306C67.6665 59.6439 66.833 59.0358 65.9435 59.1751C65.0552 59.3132 64.4461 60.1452 64.5856 61.0332C64.7239 61.9199 65.5574 62.528 66.447 62.3886C67.3352 62.2506 67.9443 61.4186 67.8048 60.5306Z" fill="#FFAC45"/>
<path d="M55.6182 65.1685C55.48 64.2818 54.6465 63.6738 53.7569 63.8131C52.8674 63.9524 52.2595 64.7831 52.3991 65.6711C52.5374 66.5578 53.3708 67.1659 54.2604 67.0266C55.1487 66.8886 55.7578 66.0565 55.6182 65.1685Z" fill="#FFAC45"/>
<path d="M69.8432 51.4437C69.688 50.4489 68.7528 49.7679 67.7562 49.9229C66.7597 50.0778 66.0776 51.0114 66.2328 52.0062C66.388 53.0009 67.3232 53.6819 68.3197 53.527C69.3162 53.372 69.9984 52.4384 69.8432 51.4437Z" fill="#FFAC45"/>
<path d="M56.822 56.4605C56.6668 55.4657 55.7316 54.7848 54.7351 54.9397C53.7385 55.0946 53.0564 56.0282 53.2116 57.023C53.3668 58.0178 54.302 58.6988 55.2985 58.5438C56.2951 58.3889 56.9772 57.4553 56.822 56.4605Z" fill="#FFAC45"/>
<path d="M68.9981 70.6736C68.8429 69.6789 67.9077 68.9979 66.9112 69.1528C65.9146 69.3078 65.2325 70.2414 65.3877 71.2361C65.5429 72.2309 66.4781 72.9119 67.4746 72.7569C68.4712 72.602 69.1533 71.6684 68.9981 70.6736Z" fill="#FFAC45"/>
<path d="M16.152 173.912C1.28246 157.376 0.750289 121.577 21.7607 106.595C32.7172 98.7829 42.4998 90.9705 51.8911 83.5487C58.1011 78.6412 68.2907 66.1974 71.7172 59.0699C84.2859 32.9258 95.1811 23.9155 106.543 15.1904C113.326 9.98211 132.847 3.61372 152.848 8.15922C168.891 11.805 170.978 19.6174 187.022 24.8256C205.792 30.9193 216.302 33.2734 226.413 32.7682C238.751 32.1511 251.456 28.7318 261.761 27.9506C288.517 25.922 310.329 37.8033 314.587 61.5439C316.121 70.101 314.315 84.2323 315.899 92.7804C317.541 101.647 322.222 109.926 328.98 115.909C337.19 123.178 348.455 127.319 354.256 136.62C361.314 147.936 357.724 162.361 351.789 174.303L16.152 173.912V173.912Z" fill="#C7E6F7"/>
<path d="M372.239 174.172H0.76087C0.617391 174.172 0.5 174.055 0.5 173.912C0.5 173.769 0.617391 173.651 0.76087 173.651H372.239C372.383 173.651 372.5 173.769 372.5 173.912C372.5 174.055 372.383 174.172 372.239 174.172Z" fill="#C7E6F7"/>
<path d="M80.1159 44.7862C82.7246 37.4829 86.3285 30.5091 90.5715 24.0196C92.7355 20.7084 95.2216 17.6043 97.9698 14.758C100.524 12.1122 103.32 9.64218 106.445 7.68518C112.807 3.70087 120.619 1.72954 128.075 1.47824C131.932 1.34804 135.804 1.68787 139.576 2.50166C143.313 3.30634 146.822 4.63184 150.296 6.19953C156.891 9.17474 163.759 11.9794 169.563 16.3778C170.27 16.9129 170.953 17.4793 171.613 18.0718C171.986 18.4077 172.542 17.8569 172.166 17.5197C166.636 12.5575 159.599 9.51719 152.887 6.51072C149.432 4.96257 146.025 3.38967 142.361 2.38188C138.605 1.34804 134.717 0.779032 130.824 0.685284C123.026 0.496484 115.194 2.23344 108.239 5.77115C105.071 7.38311 102.232 9.60833 99.6394 12.0211C96.7059 14.7502 94.0555 17.7866 91.6946 21.0209C87.1268 27.2799 83.4055 34.3215 80.5255 41.4998C80.1159 42.5193 79.7285 43.5466 79.3594 44.5805C79.1898 45.0544 79.9463 45.2588 80.1146 44.7875L80.1159 44.7862Z" fill="#C7E6F7"/>
<path d="M314.015 83.9784C315.878 91.1996 318.495 98.3102 323.283 104.137C328.147 110.055 334.704 114.211 341.145 118.207C347.476 122.135 354.422 126.15 358.838 132.325C360.901 135.209 362.236 138.519 362.723 142.032C363.341 146.497 362.703 151.119 361.531 155.442C360.507 159.221 358.922 162.821 356.762 166.09C355.394 168.162 353.758 170.004 352.244 171.964C352.001 172.279 351.764 172.598 351.551 172.935C351.281 173.361 351.958 173.754 352.227 173.33C353.371 171.521 354.925 169.968 356.2 168.251C358.298 165.42 359.99 162.318 361.212 159.012C364.032 151.386 365.09 142.248 361.255 134.782C357.893 128.234 351.512 123.861 345.466 119.999C338.728 115.695 331.612 111.772 325.988 105.991C320.817 100.675 317.723 94.0329 315.65 86.9887C315.336 85.9223 315.045 84.8494 314.766 83.7726C314.641 83.2857 313.885 83.4927 314.011 83.9797L314.015 83.9784Z" fill="#C7E6F7"/>
<path d="M263.901 62.3534C260.82 61.9394 257.213 63.4706 255.871 66.3885C255.27 67.6958 255.212 69.2687 255.793 70.5968C256.339 71.8455 257.349 73.3506 258.774 73.6462C259.02 73.697 259.125 73.3207 258.879 73.2699C257.564 72.9965 256.624 71.559 256.131 70.3989C255.578 69.0968 255.688 67.5513 256.344 66.3104C257.704 63.7388 260.976 62.3508 263.796 62.7297C264.043 62.7623 264.148 62.386 263.901 62.3534V62.3534Z" fill="#AE4C30"/>
<path d="M290.534 72.158L294.521 86.5354C295.06 88.4781 293.92 90.4885 291.974 91.0262C290.13 91.5366 288.217 90.5249 287.567 88.7646L282.424 74.7569C281.614 72.5499 282.748 70.106 284.959 69.2974C287.17 68.4888 289.618 69.6216 290.428 71.8286C290.467 71.9354 290.504 72.05 290.534 72.158Z" fill="#F9BB7C"/>
<path d="M262.414 172.61C268.389 172.763 269.327 172.61 269.327 172.61C269.256 172.61 269.392 172.317 269.196 170.787C268.96 168.943 268.654 166.844 268.643 166.766C268.418 165.107 269.032 163.572 268.936 161.933C266.997 162.153 264.599 161.932 262.675 161.933C262.936 163.756 263.353 165.295 263.453 167.079C263.456 167.124 263.063 168.822 262.712 170.481C262.379 172.059 262.299 172.556 262.412 172.61H262.414Z" fill="#F9BB7C"/>
<path d="M262.153 173.652C267.965 173.801 269.588 173.652 269.588 173.652C269.52 173.652 269.588 172.219 269.196 170.657C267.892 170.917 264.511 171.02 262.674 170.527C262.348 172.063 262.042 173.599 262.153 173.652Z" fill="#722F26"/>
<path d="M297.37 160.631C297.37 160.631 297.543 164.506 300.37 167.662C301.473 168.895 303.292 169.816 305.196 170.657C304.975 171.649 302.196 172.219 302.196 172.219L292.713 170.208C292.713 170.208 291.014 165.044 289.935 162.584C293.234 161.523 297.37 160.631 297.37 160.631Z" fill="#F9BB7C"/>
<path d="M263.719 93.7178C263.719 93.7178 256.022 101.387 255.892 108.418C255.761 115.449 262.152 137.063 262.152 137.063C262.152 137.063 259.544 146.829 261.239 154.511C262.181 158.777 262.935 163.886 262.935 163.886L268.805 164.016L276.109 95.2672L263.719 93.7178Z" fill="#917CB9"/>
<path d="M291.762 173.652C291.81 173.667 309.248 173.606 309.248 173.606C309.248 173.606 310.028 172.918 306.518 171.317C305.824 171.001 305.203 170.702 304.646 170.415C304.458 170.481 302.662 171.122 302.042 171.534C301.388 171.971 292.444 169.493 292.414 169.484C292.179 170.103 291.584 171.872 291.762 173.65V173.652Z" fill="#722F26"/>
<path d="M286.283 94.8765C286.283 94.8765 279.24 95.2671 274.153 95.0067L272.196 115.579C272.196 115.579 282.501 134.459 283.674 135.891C282.892 140.579 286.544 156.464 290.457 164.016C295.283 163.495 297.892 162.454 297.892 162.454C297.892 162.454 294.439 139.94 293.327 134.069C291.501 124.433 286.415 99.7071 286.283 94.8765Z" fill="#917CB9"/>
<path d="M292.947 163.55C291.289 160.024 289.837 155.574 288.636 151.684C287.726 148.737 287.393 145.838 287.072 143.034C286.776 140.445 286.47 137.769 285.709 135.044C283.861 128.419 279.613 120.13 276.199 113.469C275.835 112.758 275.482 112.069 275.144 111.405L275.376 111.287C275.714 111.951 276.067 112.639 276.431 113.349C279.85 120.02 284.103 128.323 285.96 134.972C286.725 137.716 287.033 140.403 287.33 143.002C287.65 145.794 287.981 148.681 288.884 151.605C290.083 155.485 291.53 159.925 293.182 163.437L292.946 163.548L292.947 163.55Z" fill="#63719C"/>
<path d="M273.824 118.276L273.568 118.221C273.713 117.553 273.85 116.914 273.984 116.293C274.798 112.509 275.5 109.242 276.961 103.633L277.214 103.698C275.754 109.302 275.053 112.566 274.24 116.347C274.107 116.969 273.969 117.608 273.824 118.276Z" fill="#63719C"/>
<path d="M273.892 49.8251C271.283 49.4345 269.492 50.855 268.672 52.1727C267.85 53.4917 267.778 55.243 268.486 56.6245C267.169 55.9734 265.403 56.4838 264.455 57.6049C263.506 58.726 263.213 60.2833 263.325 61.7468C263.353 62.1101 263.419 62.5046 263.689 62.7507C260.457 63.1048 258.139 64.64 257.251 67.1217C256.481 69.2727 257.353 71.7571 258.933 73.4094C260.514 75.0617 262.841 76.477 265.023 77.1671C268.841 78.3741 272.789 78.4392 276.721 77.6736C280.652 76.908 284.217 75.0409 286.415 71.6985C287.188 70.5214 288.209 68.5449 288.11 67.1412C288.011 65.7376 287.692 64.5749 286.545 63.7559C285.877 63.278 285.25 63.0163 284.458 63.235C284.662 63.3067 287.067 61.5424 286.284 59.1986C285.532 56.9448 283.327 56.7299 282.502 57.1153C281.197 46.4384 274.154 48.7821 273.893 49.8238L273.892 49.8251Z" fill="#AE4C30"/>
<path d="M267.498 69.7206C266.186 69.2128 265.036 69.0878 263.979 69.6164C262.921 70.1451 261.536 70.8052 260.326 71.4393C256.21 73.5968 249.277 76.5512 249.516 82.2452C249.666 85.8349 252.37 87.3245 254.864 89.8648C255.913 90.9325 256.998 92.081 258.24 93.1851C259.291 94.1187 261.207 96.2619 262.819 95.4103C264.575 94.482 263.225 92.5809 262.608 91.426C261.696 89.7203 260.779 88.0159 259.856 86.3154C259.226 85.154 258.379 83.9756 257.911 82.7399C261.374 81.1345 264.776 78.9496 268.073 77.0356C270.974 75.3585 270.619 70.9289 267.499 69.7219L267.498 69.7206Z" fill="#F9BB7C"/>
<path d="M281.196 67.4029C281.196 67.4029 285.761 67.2727 289.283 69.6164C289.5 69.761 286.413 95.7879 286.413 95.7879C286.413 95.7879 280.138 97.9767 275.457 97.6108C268.805 97.09 263.848 93.8348 263.848 93.8348C263.848 93.8348 263.718 75.9965 263.979 69.6164C268.283 67.4029 271.544 67.4029 271.544 67.4029H281.196Z" fill="#FBFBFB"/>
<path d="M281.196 67.4028C281.066 69.4861 278.848 71.4392 276.761 71.4392C274.674 71.4392 272.457 70.0069 271.544 67.4028C272.327 67.2726 273.122 66.9796 273.5 66.3611C273.975 65.5838 274.031 64.4809 274.029 63.6671C274.029 63.6059 274.029 63.5487 274.027 63.4992C274.026 63.3338 274.022 63.2362 274.022 63.2362C274.022 63.2362 277.414 63.2362 279.761 63.106C279.761 63.1645 279.763 63.2414 279.765 63.3312C279.777 63.6802 279.815 64.2401 279.926 64.8455C280.104 65.8129 280.467 66.8924 281.196 67.4028Z" fill="#F9BB7C"/>
<g style="mix-blend-mode:overlay" opacity="0.31">
<path d="M279.926 64.8456C278.91 65.3404 278.306 65.6828 277.153 65.58C276.061 65.4836 274.757 64.5761 274.029 63.6672C274.029 63.606 274.029 63.5487 274.028 63.4993C275.033 63.9172 275.864 64.1568 276.892 64.1477C277.912 64.1386 278.945 63.925 279.765 63.3313C279.777 63.6803 279.815 64.2401 279.926 64.8456Z" fill="#090909"/>
</g>
<path d="M280.935 57.1167C281.684 61.0059 280.204 64.2546 277.451 64.5553C274.699 64.8561 272.132 62.5254 271.397 58.7599C270.685 55.1128 273.096 52.2079 275.848 51.9084C278.601 51.6076 280.283 53.7313 280.935 57.1167Z" fill="#F9BB7C"/>
<path d="M297.643 71.9614C297.643 71.9614 298.712 69.8702 300.695 68.8221C302.678 67.7726 303.16 68.0994 303.16 68.0994C303.16 68.0994 301.108 69.6645 301.625 69.7335C302.141 69.8025 306.452 69.063 307.883 68.2036C309.314 67.3429 308.598 69.7439 307.702 70.5434C306.806 71.3429 304.176 72.3064 302.831 72.5212C301.487 72.7361 300.883 73.3129 300.883 73.3129L297.643 71.9614V71.9614Z" fill="#F9BB7C"/>
<path d="M304.345 44.6167H298.351C294.351 44.6167 291.109 47.8533 291.109 51.8458V52.6218C291.109 56.6143 294.351 59.8508 298.351 59.8508H304.345C308.345 59.8508 311.587 56.6143 311.587 52.6218V51.8458C311.587 47.8533 308.345 44.6167 304.345 44.6167Z" fill="#FBFBFB"/>
<path d="M293.456 56.8562L291.761 62.3249L296.587 59.0697L293.456 56.8562Z" fill="#FBFBFB"/>
<path d="M304.462 49.791C304.234 49.5449 303.917 49.3496 303.477 49.3197C301.997 49.2181 301.399 50.8522 301.399 50.8522C301.399 50.8522 300.763 49.2012 299.281 49.2624C298.841 49.2806 298.519 49.4668 298.284 49.7077C297.81 50.1934 297.692 50.9251 297.95 51.5527C298.441 52.7454 299.945 54.9394 301.248 55.9433C302.827 54.7324 304.313 52.8014 304.78 51.6387C305.032 51.0124 304.921 50.2871 304.462 49.791V49.791Z" fill="#E85939"/>
<path d="M275.267 57.3339C274.999 57.3014 274.544 57.0969 273.927 57.5761C273.642 57.7974 273.442 57.6464 273.442 57.6464C273.442 57.6464 273.63 57.5071 273.756 57.317C273.904 57.0969 274.309 56.886 274.681 56.942C274.912 56.9758 275.297 57.3391 275.267 57.3352V57.3339Z" fill="#422821"/>
<path d="M274.734 57.6335C274.807 57.9304 274.744 58.2012 274.593 58.2377C274.442 58.2754 274.259 58.0645 274.186 57.7689C274.113 57.4721 274.176 57.2012 274.327 57.1648C274.478 57.127 274.661 57.3379 274.734 57.6335Z" fill="#422821"/>
<path d="M277.991 56.7468C278.211 56.5932 278.517 56.1987 279.287 56.3328C279.644 56.394 279.749 56.1674 279.749 56.1674C279.749 56.1674 279.517 56.1322 279.316 56.0229C279.083 55.8966 278.626 55.9018 278.322 56.1244C278.134 56.2638 277.965 56.7637 277.991 56.7455V56.7468Z" fill="#422821"/>
<path d="M278.487 56.8223C278.562 57.1192 278.744 57.3275 278.896 57.2897C279.047 57.252 279.108 56.9811 279.034 56.6843C278.959 56.3874 278.777 56.1791 278.626 56.2168C278.474 56.2546 278.413 56.5254 278.487 56.8223Z" fill="#422821"/>
<path d="M277.636 60.0711C277.586 60.0711 277.535 60.0594 277.487 60.0347C277.455 60.0177 277.442 59.9787 277.459 59.9461C277.476 59.9149 277.515 59.9019 277.548 59.9188C277.66 59.9774 277.811 59.9058 277.872 59.8016C277.935 59.6948 277.939 59.5451 277.883 59.3927C277.839 59.2717 277.767 59.1636 277.691 59.049L277.652 58.9904C277.257 58.3876 276.991 57.6909 276.885 56.9787C276.88 56.9436 276.905 56.9097 276.94 56.9045C276.975 56.8993 277.009 56.924 277.014 56.9592C277.117 57.6545 277.376 58.3316 277.762 58.9188L277.799 58.9761C277.876 59.092 277.956 59.2118 278.005 59.3472C278.075 59.536 278.067 59.7248 277.985 59.8667C277.917 59.9839 277.779 60.0711 277.638 60.0711H277.636Z" fill="#72342B"/>
<path d="M276.376 61.1269C276.619 61.1152 276.859 61.1178 277.082 61.1035C277.306 61.0905 277.519 61.067 277.729 61.0254C277.938 60.9824 278.146 60.9277 278.352 60.8392C278.461 60.804 278.56 60.748 278.672 60.7025C278.783 60.6543 278.885 60.5892 279.011 60.541L279.033 60.5332C279.105 60.5058 279.185 60.541 279.212 60.6126C279.226 60.6504 279.224 60.6894 279.207 60.7233C279.146 60.8483 279.075 60.972 278.986 61.084C278.894 61.1907 278.8 61.3027 278.682 61.3873C278.458 61.5735 278.182 61.6998 277.895 61.7715C277.608 61.8431 277.305 61.8535 277.021 61.7936C276.95 61.778 276.88 61.7584 276.811 61.7389C276.743 61.7129 276.675 61.6907 276.61 61.6595C276.478 61.5983 276.359 61.5254 276.242 61.4186C276.174 61.3561 276.169 61.2506 276.232 61.1829C276.263 61.1491 276.305 61.1308 276.346 61.1282H276.376V61.1269Z" fill="#FBFBFB"/>
<path d="M275.207 55.7338C275.505 56.2142 274.815 56.3679 274.136 56.6205C273.456 56.8731 272.636 57.1257 272.745 56.6478C272.821 56.3171 273.137 56.0137 273.816 55.7611C274.496 55.5085 275.041 55.4668 275.207 55.7338Z" fill="#AE4C30"/>
<path d="M277.329 55.3901C277.327 55.9552 277.994 55.726 278.706 55.5867C279.417 55.4461 280.25 55.2326 279.905 54.8836C279.667 54.6414 279.24 54.5477 278.528 54.687C277.817 54.8276 277.33 55.0763 277.329 55.3901Z" fill="#AE4C30"/>
<path d="M272.327 59.4605C272.603 60.4982 272.702 61.1636 272.196 61.2834C271.69 61.4032 270.707 60.8277 270.306 59.8199C269.861 58.7027 270.297 57.7457 271.138 57.9175C271.56 58.0035 272.033 58.3563 272.328 59.4605H272.327Z" fill="#F9BB7C"/>
<path d="M271.283 57.8979C273.85 56.5021 275.033 53.3928 275.43 51.1923C274.799 51.1402 272.812 50.7757 271.289 53.4787C270.75 54.4345 270.819 56.2014 271.283 57.8966V57.8979Z" fill="#AE4C30"/>
<path d="M280.152 53.9879C278.779 54.0295 277.472 53.4436 276.254 52.8121C275.805 52.579 275.331 52.3056 275.13 51.8421C276.125 51.458 277.146 51.3694 278.106 51.8343C279.066 52.2991 279.84 52.9697 280.152 53.9879Z" fill="#AE4C30"/>
<path d="M273.813 49.6806C271.636 48.8616 268.998 49.5478 267.837 51.6559C266.899 53.359 266.941 55.6806 268.794 56.7222C269.013 56.8459 269.212 56.5087 268.991 56.385C267.279 55.4227 267.345 53.2483 268.246 51.7275C269.36 49.8486 271.747 49.3187 273.71 50.0569C273.946 50.1455 274.048 49.7679 273.815 49.6806H273.813Z" fill="#AE4C30"/>
<path d="M282.279 57.1713C282.695 56.6102 283.965 56.618 284.59 56.7352C285.624 56.9292 286.644 57.7729 287.016 58.756C287.705 60.5802 286.577 62.8757 284.945 63.7832C284.724 63.9056 284.921 64.2429 285.142 64.1205C287.078 63.0424 288.354 60.1453 287.135 58.1153C286.577 57.187 285.51 56.4227 284.414 56.3211C283.647 56.2495 282.443 56.2938 281.94 56.9747C281.79 57.1766 282.129 57.3719 282.278 57.1713H282.279Z" fill="#AE4C30"/>
<path d="M263.266 92.7463C263.773 93.1916 264.54 93.4234 265.153 93.7047C265.921 94.0575 266.463 94.1539 267.24 94.4859C268.018 94.8179 268.864 95.5575 269.285 96.2906C269.675 96.9702 269.734 97.7827 269.849 98.5575C269.442 99.2124 268.537 99.3869 267.781 99.2254C267.026 99.064 265.997 98.9442 265.284 98.6525C264.26 98.2332 263.493 97.7697 262.508 97.2645C261.523 96.7593 260.66 95.7476 260.828 94.6552L263.266 92.7463V92.7463Z" fill="#F9BB7C"/>
<path d="M271.808 60.3093C271.808 60.3093 271.803 60.3093 271.802 60.3093C271.528 60.2806 271.392 59.9811 271.38 59.7129C271.378 59.6465 271.38 59.5801 271.38 59.5124C271.384 59.3431 271.39 59.183 271.322 59.0437C271.224 58.8418 270.951 58.7325 270.741 58.8119C270.708 58.8236 270.67 58.8067 270.658 58.7741C270.645 58.7403 270.663 58.7025 270.696 58.6908C270.971 58.5892 271.311 58.7246 271.439 58.9877C271.52 59.1556 271.516 59.3392 271.511 59.5163C271.509 59.5801 271.507 59.6452 271.511 59.7077C271.52 59.9278 271.627 60.1595 271.815 60.1791C271.85 60.183 271.876 60.2142 271.873 60.2507C271.869 60.2845 271.842 60.3093 271.808 60.3093Z" fill="#EF6848"/>
<path d="M300.896 73.5565C300.558 75.0201 300.134 76.4393 299.675 77.839C299.216 79.2401 298.719 80.6202 298.19 81.9848C297.924 82.6658 297.656 83.3455 297.373 84.0186C297.086 84.6892 296.792 85.3558 296.478 86.0121C296.164 86.6683 295.836 87.3181 295.487 87.9548C295.136 88.5915 294.772 89.2217 294.354 89.8245C293.22 91.4638 290.968 91.8753 289.326 90.7425C287.937 89.7842 287.43 88.0251 287.993 86.5147C288.249 85.8285 288.559 85.1697 288.881 84.5173C289.205 83.8663 289.55 83.2257 289.91 82.5929C290.27 81.9601 290.649 81.3377 291.036 80.7192C291.427 80.1033 291.832 79.494 292.239 78.8859C293.057 77.6724 293.906 76.4745 294.794 75.2974C295.681 74.1203 296.604 72.9602 297.613 71.8469C298.321 71.0644 299.53 71.0032 300.314 71.7102C300.846 72.1907 301.044 72.9042 300.896 73.5552V73.5565Z" fill="#F9BB7C"/>
<path d="M263.979 69.6165C263.848 69.6165 260.457 71.0487 259.544 71.5696C259.37 73.3495 262.153 77.9497 263.805 79.5994C263.979 79.7726 269.587 77.2986 268.022 71.9602C267.156 69.0071 263.979 69.6165 263.979 69.6165Z" fill="#FBFBFB"/>
<path d="M288.24 79.2518C288.24 79.2518 291.631 78.2101 292.414 77.1685C292.022 75.2154 290.457 70.528 289.283 69.6165C288.109 68.7051 287.327 68.7051 287.327 68.7051L288.24 79.2518Z" fill="#FBFBFB"/>
<path d="M271.805 61.674C272.093 61.674 272.326 61.4408 272.326 61.1531C272.326 60.8655 272.093 60.6323 271.805 60.6323C271.517 60.6323 271.283 60.8655 271.283 61.1531C271.283 61.4408 271.517 61.674 271.805 61.674Z" fill="#FBFBFB"/>
<path d="M151.995 45.1258C152.342 43.8081 153.32 43.1531 154.149 43.0633C155.988 42.8641 156.369 44.325 156.524 45.4838C156.837 45.0945 159.539 43.7378 161.645 45.8406C162.792 46.9877 162.55 49.3445 161.778 49.9161C162.941 49.9681 164.231 50.9629 164.573 51.489C165.161 52.3965 165.611 54.0163 164.975 55.0957C164.36 56.1386 163.576 56.8834 162.457 56.8873C162.815 57.5201 163.805 61.0227 160.022 62.9758C156.101 65.0005 152.832 60.9654 152.457 59.8508C149.587 63.2362 144.037 61.244 143.326 58.2883C142.544 55.0332 145.016 53.3027 145.016 53.3027C145.016 53.3027 142.934 52.9499 143.066 50.476C143.123 49.3861 143.979 47.2208 147.109 47.8718C146.633 46.2013 146.89 45.1323 147.657 44.5594C149.776 42.9748 151.994 45.1297 151.995 45.1258Z" fill="#722F26"/>
<path d="M140.447 129.733C140.447 130.082 139.749 138.447 139.574 140.713C139.399 142.979 139.224 154.308 139.749 156.748C140.273 159.188 141.892 171.047 141.892 171.047C141.892 171.047 137.16 171.922 135.24 170.005C135.589 166.171 135.854 163.196 135.33 160.407C134.805 157.618 131.488 149.601 131.663 143.675C131.838 137.749 133.41 136.006 133.235 133.393C133.06 130.779 131.838 127.932 131.838 127.932L140.447 129.733V129.733Z" fill="#FFB687"/>
<path d="M148.425 129.384C148.425 129.384 148.774 133.218 150.52 136.704C151.927 139.514 156.804 155.665 157.152 160.37C157.489 164.903 157.283 170.787 157.283 170.787C157.283 170.787 160.052 171.965 163.544 170.396C162.631 165.579 162.501 164.289 162.239 160.891C161.997 157.744 162.741 145.593 160.384 138.535C158.952 134.246 157.888 130.918 157.54 128.826C154.048 128.477 148.425 129.385 148.425 129.385V129.384Z" fill="#FFB687"/>
<path d="M136.935 84.9807C136.935 84.9807 123.688 105.713 132.24 129.642C138.592 131.947 153.241 130.8 157.544 128.86C158.979 116.36 158.327 99.3034 155.718 87.9755C145.9 87.2072 136.935 84.9807 136.935 84.9807Z" fill="#917CB9"/>
<path d="M135.371 168.711C135.371 168.711 134.718 172.02 134.718 173.521C134.718 173.912 139.805 173.782 142.283 173.651C142.117 171.498 141.648 169.292 141.648 169.292C141.648 169.292 138.194 170.701 135.371 168.713V168.711Z" fill="#722F26"/>
<path d="M157.283 168.964L157.185 170.446C157.163 170.586 157.15 170.727 157.144 170.869L157.022 173.782C157.022 173.782 160.022 173.912 164.066 173.782C163.935 171.698 163.283 169.094 163.283 169.094C163.283 169.094 160.544 170.787 157.283 168.964Z" fill="#722F26"/>
<path d="M137.386 47.1388C139.283 44.1792 140.648 41.5868 142.544 38.6272C143.498 37.1403 146.327 33.0283 143.327 32.1169C141.042 31.4229 138.494 35.7419 137.327 37.195C135.146 39.9085 132.999 43.0009 130.957 45.8198C129.007 48.5112 129.553 50.877 130.505 53.8575C131.605 57.304 132.6 60.7779 133.767 64.2024C134.622 66.7075 135.569 70.1085 138.494 70.9353C141.03 71.6528 143.135 69.3286 142.989 66.8859C142.883 65.1268 141.793 63.3118 141.12 61.7206C140.352 59.9043 139.583 58.0879 138.815 56.2702C138.089 54.5528 137.387 52.8236 136.636 51.1179C136.358 50.4851 135.938 49.8888 136.049 49.2156C136.145 48.6206 137.07 47.631 137.387 47.1375L137.386 47.1388Z" fill="#FFB687"/>
<path d="M164.696 73.8534C165.513 79.1789 167.246 85.8962 169.153 90.9704C170.718 95.137 175.935 106.595 175.935 106.595C175.269 107.216 172.805 108.548 172.805 108.548C172.677 108.522 164.59 97.6304 162.892 93.7047C160.481 88.1345 159.396 82.365 157.593 76.632C156.992 74.7206 156.637 72.7063 158.543 71.3496C160.849 69.709 164.256 71.1295 164.696 73.8521V73.8534Z" fill="#FFB687"/>
<path d="M145.414 63.8873C145.414 63.8873 144.501 63.8873 142.487 63.3769C142.07 63.2714 135.762 69.0956 136.936 84.9807C139.439 87.6708 149.294 90.0341 155.718 87.9755C160.414 85.3714 161.979 73.9861 162.631 69.6164C159.552 67.1177 157.527 66.3261 155.497 66.0383C152.224 65.6542 145.414 63.8873 145.414 63.8873Z" fill="#917CB9"/>
<path d="M145.414 63.8875C145.125 63.9838 141.501 62.0646 138.37 54.2522C135.631 55.5543 133.805 56.5959 130.283 58.549C132.109 66.2312 136.969 74.3222 137.718 73.7832C138.296 72.8222 145.414 63.8875 145.414 63.8875Z" fill="#917CB9"/>
<path d="M139.544 34.2004C139.351 33.8163 137.457 29.6432 137.457 29.6432C137.457 29.6432 137.736 26.2448 138.892 25.4766C140.048 24.7083 141.501 26.1276 141.501 26.1276C141.501 26.1276 144.631 31.4726 144.631 31.8567C144.631 32.2408 145.153 34.591 143.718 36.6743C141.023 35.7134 139.544 34.2004 139.544 34.2004Z" fill="#FFB687"/>
<path d="M154.237 28.3932L122.913 33.3931C121.42 33.6314 120.015 32.6157 119.776 31.1249L118.12 20.7852C117.881 19.2943 118.899 17.892 120.392 17.6537L151.716 12.6538C153.209 12.4155 154.614 13.4311 154.853 14.922L156.509 25.2617C156.748 26.7525 155.731 28.1549 154.237 28.3932V28.3932Z" fill="#FBFBFB"/>
<path d="M152.227 28.3997L153.071 34.9373L146.697 29.2825L152.227 28.3997Z" fill="#FBFBFB"/>
<path d="M123.306 21.4167L124.429 22.9988L126.371 22.9714L125.211 24.5261L125.839 26.362L123.998 25.7422L122.444 26.9036L122.466 24.9649L120.878 23.8477L122.732 23.2696L123.306 21.4167Z" fill="#FFC25B"/>
<path d="M129.991 20.5208L131.114 22.1015L133.056 22.0741L131.897 23.6301L132.524 25.4647L130.684 24.8449L129.129 26.0063L129.151 24.0676L127.564 22.9504L129.417 22.3723L129.991 20.5208Z" fill="#FFC25B"/>
<path d="M136.676 19.6238L137.799 21.2058L139.741 21.1784L138.583 22.7331L139.209 24.569L137.368 23.9479L135.813 25.1107L135.836 23.1719L134.248 22.0547L136.102 21.4766L136.676 19.6238Z" fill="#FFC25B"/>
<path d="M143.361 18.728L144.485 20.3087L146.426 20.2814L145.268 21.8374L145.894 23.672L144.053 23.0522L142.498 24.2136L142.521 22.2749L140.933 21.1577L142.787 20.5796L143.361 18.728Z" fill="#FFC25B"/>
<path d="M150.045 17.8308L151.17 19.4128L153.111 19.3855L151.952 20.9401L152.579 22.776L150.738 22.155L149.183 23.3177L149.205 21.3789L147.618 20.2618L149.472 19.6836L150.045 17.8308Z" fill="#FFC25B"/>
<path d="M142.787 30.466C142.817 30.0832 142.756 28.1704 143.378 26.9126C143.744 26.1718 144.373 26.19 144.373 26.19C144.373 26.19 144.454 29.0858 144.653 30.4699C144.938 32.4542 144.631 34.199 144.631 34.199L142.787 30.4647V30.466Z" fill="#FFB687"/>
<path d="M175.805 106.335C175.805 106.335 177.24 108.027 179.718 109.72C180.862 110.501 182.542 113.405 183.109 114.538C183.24 114.798 182.664 114.935 182.196 114.668C181.283 114.147 179.655 112.186 178.153 111.543C177.24 111.152 176.718 111.673 176.718 111.673C177.052 112.34 178.492 114.069 178.153 114.408C177.562 114.997 175.317 112.816 174.631 112.064C173.953 111.319 173.196 110.501 172.805 108.548C174.37 107.246 175.805 106.335 175.805 106.335Z" fill="#FFB687"/>
<path d="M162.631 69.6165C162.631 69.6165 163.413 70.0071 165.5 73.9133C168.136 78.8468 169.413 84.3298 169.413 84.3298C169.413 84.3298 165.5 87.3245 160.022 88.6266C159.757 88.6891 158.326 82.5069 158.326 82.5069L162.631 69.6165Z" fill="#917CB9"/>
<path d="M158.457 66.8822C148.283 72.7415 145.413 63.8875 145.413 63.8875C147.909 64.1362 148.884 62.1088 149.321 60.7742C149.341 60.713 149.359 60.6531 149.377 60.5958C149.393 60.5477 149.407 60.4995 149.42 60.4513C149.505 60.1649 149.573 59.8966 149.625 59.6597C149.75 59.105 149.799 58.7261 149.799 58.7261C149.799 58.7261 152.219 59.1219 155.527 59.5841C155.406 59.924 155.303 60.2482 155.217 60.5594C155.139 60.8393 155.081 61.1102 155.028 61.368C155.019 61.4122 155.009 61.4565 155 61.4995C154.882 62.0672 154.897 62.5945 155.004 63.0789C155.549 65.5215 158.457 66.8822 158.457 66.8822V66.8822Z" fill="#FFB687"/>
<g style="mix-blend-mode:overlay" opacity="0.31">
<path d="M155.005 63.0787C154.098 63.5253 152.483 63.7141 151.38 63.1686C150.615 62.791 149.744 61.5631 149.321 60.7741C149.341 60.7129 149.359 60.653 149.378 60.5957C149.393 60.5475 149.408 60.4993 149.421 60.4512C150.048 60.9928 150.991 61.5397 151.959 61.7441C153.182 62.0019 154.192 61.8418 155.028 61.3678C155.019 61.4121 155.01 61.4564 155.001 61.4993C154.882 62.067 154.898 62.5944 155.005 63.0787Z" fill="#090909"/>
</g>
<path d="M158.147 55.9916C157.248 59.7689 155.168 62.5462 152.027 62.0202C148.886 61.4942 147.833 58.032 148.508 54.1948C149.182 50.3576 151.768 47.5998 154.621 48.0998C157.474 48.5985 159.049 52.2026 158.148 55.9929L158.147 55.9916Z" fill="#FFB687"/>
<path d="M149.106 54.6895C149.156 55.7208 148.831 56.5788 148.35 56.6088C147.868 56.6387 147.292 55.5658 147.122 54.5424C146.936 53.4096 147.515 52.5724 148.244 52.8745C148.609 53.0255 149.053 53.5932 149.105 54.6895H149.106Z" fill="#FFB687"/>
<path d="M157.552 56.1087C157.205 57.0814 157.266 57.9967 157.719 58.1647C158.172 58.3326 159.035 57.472 159.493 56.5423C160 55.5111 159.689 54.5423 158.903 54.6218C158.509 54.6608 157.921 55.0749 157.552 56.11V56.1087Z" fill="#FFB687"/>
<path d="M148.147 51.5047C148.078 51.769 148.333 52.032 148.604 52.0711C148.875 52.1101 149.143 51.9903 149.383 51.8562C149.99 51.519 150.54 51.0776 150.999 50.5568C150.786 51.4669 150.962 52.1271 151.828 52.4825C152.694 52.838 154.374 52.0398 154.569 51.1245C154.805 52.1674 155.979 52.9487 156.965 53.0737C157.753 53.1739 159.371 52.6882 159.335 52.4825C159.208 51.756 158.757 49.8068 158.388 49.1675C157.814 48.1701 156.842 47.4396 155.773 47.0099C154.176 46.368 152.469 46.7899 150.96 47.618C149.45 48.4461 148.582 49.8393 148.147 51.5034V51.5047Z" fill="#722F26"/>
<path d="M151.786 54.3811C151.522 54.2131 151.146 53.7717 150.258 53.967C149.847 54.0569 149.713 53.799 149.713 53.799C149.713 53.799 149.98 53.7457 150.208 53.6089C150.473 53.4501 151.005 53.4319 151.368 53.6753C151.593 53.8264 151.815 54.3993 151.785 54.3811H151.786Z" fill="#422821"/>
<path d="M151.154 54.4303C151.081 54.778 150.877 55.0293 150.7 54.9928C150.523 54.9551 150.438 54.6439 150.512 54.2962C150.585 53.9486 150.789 53.6973 150.966 53.7337C151.143 53.7715 151.228 54.0827 151.154 54.4303Z" fill="#422821"/>
<path d="M154.62 54.9097C154.912 54.8654 155.405 54.6271 156.096 55.1336C156.417 55.368 156.63 55.1961 156.63 55.1961C156.63 55.1961 156.42 55.049 156.275 54.8446C156.107 54.6076 155.655 54.3889 155.248 54.4618C154.995 54.506 154.586 54.9162 154.618 54.911L154.62 54.9097Z" fill="#422821"/>
<path d="M155.147 55.1936C155.077 55.5217 155.157 55.8159 155.324 55.8511C155.491 55.8863 155.682 55.6493 155.752 55.3212C155.821 54.993 155.741 54.6988 155.574 54.6636C155.407 54.6285 155.216 54.8654 155.147 55.1936Z" fill="#422821"/>
<path d="M152.441 57.3888C152.435 57.3888 152.427 57.3888 152.42 57.3848C152.268 57.3315 152.135 57.2039 152.055 57.0333C151.972 56.8536 151.959 56.6583 152.02 56.4968C152.096 56.2976 152.213 56.0489 152.338 55.7872C152.573 55.2911 152.839 54.7299 152.852 54.4266C152.853 54.3901 152.886 54.3628 152.92 54.3641C152.956 54.3654 152.984 54.3953 152.982 54.4318C152.968 54.7612 152.709 55.3107 152.457 55.8432C152.333 56.1036 152.217 56.3497 152.143 56.5437C152.094 56.67 152.106 56.8341 152.174 56.9799C152.239 57.1192 152.345 57.2221 152.465 57.2638C152.499 57.2755 152.517 57.3132 152.505 57.3471C152.496 57.3744 152.47 57.3914 152.444 57.3914L152.441 57.3888Z" fill="#72342B"/>
<path d="M148.442 55.7C148.421 55.7 148.399 55.6896 148.387 55.67C148.36 55.6284 148.326 55.5893 148.29 55.5489C148.256 55.5125 148.222 55.4734 148.192 55.4304C148.009 55.17 148.046 54.8315 148.078 54.5333L148.084 54.4891C148.125 54.0893 148.063 53.8276 147.889 53.6896C147.862 53.6675 147.857 53.6258 147.879 53.5984C147.901 53.5711 147.943 53.5659 147.97 53.588C148.18 53.7573 148.26 54.0568 148.213 54.5034L148.208 54.5477C148.176 54.8367 148.145 55.1362 148.299 55.3562C148.325 55.3927 148.355 55.4265 148.387 55.4617C148.425 55.5047 148.466 55.5476 148.498 55.5984C148.518 55.6284 148.509 55.6687 148.479 55.6883C148.468 55.6948 148.455 55.6987 148.444 55.6987L148.442 55.7Z" fill="#72342B"/>
<path d="M158.125 57.058C158.102 57.058 158.08 57.0463 158.068 57.0255C158.05 56.9942 158.062 56.9551 158.093 56.9369C158.277 56.8314 158.366 56.6101 158.407 56.4421C158.428 56.3575 158.444 56.269 158.458 56.183C158.481 56.0554 158.503 55.9239 158.544 55.7963C158.633 55.532 158.803 55.3458 159.009 55.2859C159.044 55.2755 159.079 55.2963 159.089 55.3302C159.1 55.3653 159.079 55.4005 159.045 55.4109C158.882 55.4578 158.741 55.6166 158.668 55.8367C158.629 55.9539 158.608 56.0749 158.586 56.2039C158.572 56.2924 158.556 56.3835 158.534 56.4721C158.466 56.7468 158.336 56.946 158.158 57.0489C158.148 57.0541 158.138 57.058 158.126 57.058H158.125Z" fill="#72342B"/>
<path d="M157.686 54.4526C157.635 54.1454 157.39 53.8628 157.124 53.6988C156.391 53.2456 154.976 53.1753 154.614 53.3159C154.614 53.3159 154.133 53.8381 154.942 53.8693C155.371 53.8863 155.801 53.9514 156.118 53.9943C156.776 54.0829 157.687 54.4526 157.687 54.4526H157.686Z" fill="#722F26"/>
<path d="M149.143 52.8198C149.312 52.5581 149.65 52.3966 149.959 52.3524C150.812 52.2287 152.138 52.7274 152.414 52.9995C152.414 52.9995 152.646 53.6688 151.894 53.3771C151.493 53.2222 151.072 53.1102 150.765 53.0229C150.128 52.8433 149.144 52.8185 149.144 52.8185L149.143 52.8198Z" fill="#722F26"/>
<path d="M150.735 58.032C150.731 58.5567 151.176 59.5099 152.066 59.7026C153.077 59.9226 153.846 59.0307 154.063 58.7078C154.082 58.6778 153.064 58.2755 152.224 58.4695C151.729 58.0789 150.734 58.0307 150.735 58.032Z" fill="#722F26"/>
<path d="M151.067 58.364C151.09 58.5645 151.425 58.7963 152.018 58.976C152.645 59.1674 153.392 58.9955 153.675 58.7781C153.279 58.8887 152.385 58.7598 152.076 58.7012C151.6 58.6114 151.067 58.3627 151.068 58.364H151.067Z" fill="#FBFBFB"/>
<path d="M158.211 60.959H156.674L157.826 57.5515L158.209 60.959H158.211ZM157.038 60.6986H157.918L157.698 58.7442L157.037 60.6986H157.038Z" fill="#FBFBFB"/>
<path d="M148.257 59.9109L146.745 59.0724L148.257 56.0542V59.9109ZM147.091 58.9656L147.996 59.4682V57.1584L147.091 58.9669V58.9656Z" fill="#FBFBFB"/>
<path d="M155.888 45.7575C157.018 44.1248 159.953 43.9203 161.525 44.9776C163.343 46.2015 163.204 48.7549 161.972 50.3382C161.82 50.5348 162.095 50.8135 162.249 50.6142C163.6 48.876 163.783 46.1482 161.854 44.7328C160.098 43.4451 156.834 43.7068 155.55 45.5596C155.406 45.7667 155.745 45.962 155.888 45.7562V45.7575Z" fill="#722F26"/>
<path d="M147.573 47.799C145.903 46.368 143.287 47.1427 142.55 49.187C141.866 51.0867 142.676 53.6504 145.022 53.5359C145.273 53.5241 145.274 53.1335 145.022 53.1452C142.991 53.2442 142.357 51.0697 142.88 49.4317C143.465 47.6036 145.789 46.7833 147.297 48.075C147.487 48.2378 147.765 47.963 147.573 47.799V47.799Z" fill="#722F26"/>
<path d="M162.102 56.4734C163.645 58.3705 163.56 61.584 161.348 62.9655C160.382 63.5683 159.112 63.6399 158.015 63.4511C157.078 63.291 155.918 62.9186 155.431 62.0306C155.31 61.8092 154.972 62.0071 155.093 62.2272C155.629 63.2076 156.872 63.6477 157.911 63.8274C159.156 64.0423 160.596 63.9537 161.668 63.222C163.993 61.6374 164.054 58.2572 162.378 56.196C162.219 56.0007 161.944 56.2781 162.102 56.4721V56.4734Z" fill="#722F26"/>
<path d="M158.848 84.3296C158.776 84.3296 158.718 84.271 158.718 84.1994C158.718 82.6291 158.791 81.0003 158.883 78.9378C158.913 78.2646 158.946 77.5459 158.978 76.7725C158.981 76.7008 159.041 76.6409 159.114 76.6475C159.186 76.6501 159.242 76.7113 159.239 76.7829C159.207 77.5563 159.174 78.275 159.144 78.9495C159.051 81.0081 158.978 82.6357 158.978 84.1994C158.978 84.271 158.92 84.3296 158.848 84.3296Z" fill="#63719C"/>
<path d="M160.283 77.5591C160.283 77.5591 160.274 77.5591 160.268 77.5591C160.197 77.5513 160.146 77.4862 160.154 77.4159C160.289 76.1959 160.426 75.1581 160.837 73.8287C160.858 73.7597 160.932 73.7219 161 73.7428C161.069 73.7636 161.107 73.8365 161.086 73.9055C160.68 75.2128 160.546 76.2388 160.412 77.4445C160.404 77.511 160.348 77.5604 160.283 77.5604V77.5591Z" fill="#63719C"/>
<path d="M149.196 74.8246C149.484 74.8246 149.718 74.5914 149.718 74.3038C149.718 74.0161 149.484 73.783 149.196 73.783C148.908 73.783 148.675 74.0161 148.675 74.3038C148.675 74.5914 148.908 74.8246 149.196 74.8246Z" fill="#FBFBFB"/>
<path d="M140.978 81.2047C141.266 81.2047 141.5 80.9716 141.5 80.6839C141.5 80.3963 141.266 80.1631 140.978 80.1631C140.69 80.1631 140.457 80.3963 140.457 80.6839C140.457 80.9716 140.69 81.2047 140.978 81.2047Z" fill="#FBFBFB"/>
<path d="M141.109 68.3144C141.397 68.3144 141.631 68.0812 141.631 67.7935C141.631 67.5059 141.397 67.2727 141.109 67.2727C140.821 67.2727 140.588 67.5059 140.588 67.7935C140.588 68.0812 140.821 68.3144 141.109 68.3144Z" fill="#FBFBFB"/>
<path d="M133.805 60.5019C134.093 60.5019 134.326 60.2687 134.326 59.981C134.326 59.6934 134.093 59.4602 133.805 59.4602C133.517 59.4602 133.283 59.6934 133.283 59.981C133.283 60.2687 133.517 60.5019 133.805 60.5019Z" fill="#FBFBFB"/>
<path d="M151.414 85.6317C151.702 85.6317 151.935 85.3986 151.935 85.1109C151.935 84.8233 151.702 84.5901 151.414 84.5901C151.126 84.5901 150.892 84.8233 150.892 85.1109C150.892 85.3986 151.126 85.6317 151.414 85.6317Z" fill="#FBFBFB"/>
<path d="M155.196 99.5639C155.484 99.5639 155.718 99.3307 155.718 99.043C155.718 98.7554 155.484 98.5222 155.196 98.5222C154.908 98.5222 154.674 98.7554 154.674 99.043C154.674 99.3307 154.908 99.5639 155.196 99.5639Z" fill="#FBFBFB"/>
<path d="M142.805 91.6212C143.093 91.6212 143.326 91.3881 143.326 91.1004C143.326 90.8128 143.093 90.5796 142.805 90.5796C142.517 90.5796 142.283 90.8128 142.283 91.1004C142.283 91.3881 142.517 91.6212 142.805 91.6212Z" fill="#FBFBFB"/>
<path d="M154.152 120.788C154.44 120.788 154.674 120.554 154.674 120.267C154.674 119.979 154.44 119.746 154.152 119.746C153.864 119.746 153.631 119.979 153.631 120.267C153.631 120.554 153.864 120.788 154.152 120.788Z" fill="#FBFBFB"/>
<path d="M134.978 125.735C135.266 125.735 135.5 125.502 135.5 125.215C135.5 124.927 135.266 124.694 134.978 124.694C134.69 124.694 134.457 124.927 134.457 125.215C134.457 125.502 134.69 125.735 134.978 125.735Z" fill="#FBFBFB"/>
<path d="M146.196 105.293C146.484 105.293 146.718 105.06 146.718 104.772C146.718 104.484 146.484 104.251 146.196 104.251C145.908 104.251 145.674 104.484 145.674 104.772C145.674 105.06 145.908 105.293 146.196 105.293Z" fill="#FBFBFB"/>
<path d="M139.804 114.147C140.092 114.147 140.326 113.914 140.326 113.626C140.326 113.339 140.092 113.105 139.804 113.105C139.516 113.105 139.283 113.339 139.283 113.626C139.283 113.914 139.516 114.147 139.804 114.147Z" fill="#FBFBFB"/>
<path d="M135.63 101.387C135.918 101.387 136.152 101.154 136.152 100.866C136.152 100.578 135.918 100.345 135.63 100.345C135.342 100.345 135.109 100.578 135.109 100.866C135.109 101.154 135.342 101.387 135.63 101.387Z" fill="#FBFBFB"/>
<path d="M159.501 71.83C159.789 71.83 160.022 71.5968 160.022 71.3092C160.022 71.0215 159.789 70.7883 159.501 70.7883C159.213 70.7883 158.979 71.0215 158.979 71.3092C158.979 71.5968 159.213 71.83 159.501 71.83Z" fill="#FBFBFB"/>
<path d="M164.587 81.986C164.875 81.986 165.109 81.7528 165.109 81.4652C165.109 81.1775 164.875 80.9443 164.587 80.9443C164.299 80.9443 164.066 81.1775 164.066 81.4652C164.066 81.7528 164.299 81.986 164.587 81.986Z" fill="#FBFBFB"/>
<path d="M137.587 73.7829C137.532 73.7829 137.482 73.7491 137.463 73.6944C136.801 71.7361 136.802 69.5603 136.805 67.4562V67.1424C136.805 67.0708 136.863 67.0122 136.935 67.0122C137.007 67.0122 137.066 67.0708 137.066 67.1424V67.4562C137.064 69.5395 137.062 71.6931 137.711 73.6111C137.734 73.6788 137.698 73.753 137.629 73.7764C137.614 73.7816 137.601 73.7829 137.587 73.7829Z" fill="#63719C"/>
<path d="M61.4542 90.6164C61.312 90.5786 61.1711 90.5382 61.0315 90.4953L61.0068 90.4875L60.9937 90.4823L60.9689 90.4718L60.9194 90.4523L60.8189 90.4132L60.425 90.257L59.6659 89.9497L58.162 89.3351L55.1672 88.1021L49.1828 85.6425C48.1328 85.2115 47.6333 84.0123 48.065 82.9641C48.4263 82.0879 49.325 81.5957 50.2224 81.709H50.2276L56.6398 82.5253L59.8459 82.9212L61.4437 83.1152L62.2368 83.2089L62.6189 83.2506L62.7129 83.261L62.7598 83.2662L62.7833 83.2688H62.795C62.7846 83.2571 62.7742 83.2467 62.7624 83.2389C64.8037 83.5996 66.1655 85.5435 65.8041 87.5813C65.4428 89.619 63.4955 90.9783 61.4542 90.6177V90.6164Z" fill="#F9BB7C"/>
<path d="M59.8096 71.4396L59.807 71.4487L57.2831 81.2715L43.4583 77.7298L45.9835 67.9045L45.9861 67.8979L59.8096 71.4396Z" fill="#FFAC45"/>
<path d="M59.8099 71.4395L59.8073 71.4499C59.8073 71.4499 59.8034 71.4525 59.8021 71.4525L52.3086 74.5801C52.0973 74.6634 51.8703 74.6725 51.6603 74.6191C51.4516 74.5657 51.2586 74.4485 51.1138 74.2767L46.0021 67.9317C46.0021 67.9317 45.9903 67.9174 45.9838 67.9057L45.9864 67.8992L59.8099 71.4408V71.4395Z" fill="#FFD971"/>
<path d="M48.0486 84.5058C48.0486 84.5058 46.3868 81.1973 46.7703 78.7976C47.0207 77.2338 49.8029 74.976 50.3429 74.7547C50.8829 74.5333 51.1033 75.0724 51.1033 75.0724C51.1033 75.0724 51.4125 74.4422 51.9329 74.4812C52.4533 74.5203 52.2459 75.5489 52.2459 75.5489C52.2459 75.5489 52.9307 75.8341 52.5016 76.7924C52.3946 77.0307 53.0442 77.1765 52.6933 78.3236C52.1377 80.1361 51.6903 81.252 51.6903 81.252L51.8625 82.4395C51.8625 82.4395 51.972 84.5345 48.0498 84.5032L48.0486 84.5058Z" fill="#F9BB7C"/>
<path d="M51.0656 75.1391L48.6737 78.325L48.7781 78.403L51.1699 75.2172L51.0656 75.1391Z" fill="#AE4C30"/>
<path d="M52.0597 75.5032L49.4495 79.2732L49.5568 79.3472L52.167 75.5772L52.0597 75.5032Z" fill="#AE4C30"/>
<path d="M50.6167 80.1713L50.5097 80.097C51.2349 79.0658 51.8819 77.9682 52.431 76.8328L52.5484 76.8901C51.9967 78.032 51.3471 79.1361 50.6167 80.1726V80.1713Z" fill="#AE4C30"/>
<path d="M51.4986 83.5254L51.3812 83.4682C51.7124 82.7911 51.805 82.0137 51.6394 81.2794L51.7672 81.2507C51.938 82.015 51.8428 82.8223 51.4986 83.5254V83.5254Z" fill="#AE4C30"/>
<path d="M74.4575 66.1011C74.4575 66.1011 71.7183 66.4917 68.7183 71.3093C65.327 77.1686 61.5444 83.1581 61.5444 83.1581C61.5444 83.1581 64.5444 85.632 64.414 90.0591C69.1097 86.6737 73.1531 79.1217 73.1531 79.1217L73.7414 73.2468L74.4575 66.1011Z" fill="#FBFBFB"/>
<path d="M85.4139 164.277C85.4139 164.277 86.3269 165.709 86.4574 168.183C90.5008 170.397 93.6313 168.053 93.6313 168.053L92.5878 163.886L85.4139 164.277Z" fill="#F9BB7C"/>
<path d="M52.8342 165.071C52.722 165.295 52.4142 167.173 52.4142 168.183C46.6751 171.568 44.849 167.923 44.849 167.923C44.849 167.923 45.8168 166.274 46.1533 164.928C48.0642 164.816 52.8342 165.071 52.8342 165.071Z" fill="#F9BB7C"/>
<path d="M67.8051 99.9548C67.8051 99.9548 55.0225 126.517 52.9355 131.204C50.8486 135.892 43.9355 165.058 43.9355 165.058L54.8921 165.449C54.8921 165.449 63.2399 137.194 64.5442 135.371C65.8486 133.548 75.1095 117.793 75.1095 117.793C75.1095 117.793 70.8051 134.069 70.8051 135.892C70.8051 140.84 83.3268 164.798 83.3268 164.798L93.5008 165.058C93.5008 165.058 85.4138 138.236 83.5877 135.371C84.6312 131.465 94.8051 116.1 90.5008 101.387C79.5442 101.648 67.8051 99.9548 67.8051 99.9548Z" fill="#9B9B9B"/>
<path d="M93.6313 167.923L94.9356 173.652H82.4139C82.4139 173.652 82.2143 171.887 83.5878 170.917C84.9613 169.947 86.0295 169.462 86.1965 168.443C86.6686 167.527 88.4139 167.402 89.9791 168.313C91.543 169.223 93.6313 167.923 93.6313 167.923Z" fill="#393939"/>
<path d="M52.414 168.183C52.5027 168.101 53.4575 171.308 53.4575 173.652C50.841 173.652 43.8823 173.782 40.1532 173.782C38.1105 173.782 36.2401 173.391 36.2401 173.391C36.2401 173.391 36.4984 170.646 39.7619 170.396C43.1532 170.136 44.8488 167.923 44.8488 167.923C45.5988 167.756 46.3827 167.906 47.0192 168.333C47.7836 168.844 48.7162 169.355 49.6749 169.094L52.414 168.183Z" fill="#393939"/>
<path d="M86.9797 55.4242C87.8275 52.8851 88.284 49.3045 85.284 48.1326C85.4732 46.6964 83.214 45.6587 81.2406 45.6587C78.371 45.6587 76.4145 47.091 76.0232 50.2159C76.0036 50.3683 74.5884 50.7367 74.5884 52.9503C74.5884 54.0948 75.9488 57.1012 77.0666 57.6377C77.0666 57.6377 86.9588 55.4854 86.9797 55.4242Z" fill="#AE4C30"/>
<path d="M86.754 55.3408C87.1088 57.6611 87.1479 59.1168 87.054 59.9345C86.9875 60.5126 85.2201 62.7873 83.5427 63.1988C81.624 63.6688 78.9918 62.1571 78.6031 61.5738C77.8009 60.3707 77.6835 59.1194 77.1814 57.3486C76.6127 55.3408 76.6362 53.3903 77.4592 52.169C78.1296 51.1755 79.4066 50.751 80.7201 50.4763C81.7218 50.2667 83.2635 50.2745 84.1114 50.6065C85.7405 51.2445 86.3836 52.9099 86.7553 55.3421L86.754 55.3408Z" fill="#F9BB7C"/>
<path d="M79.8338 56.044C79.9303 56.5036 79.8195 56.9164 79.5847 56.9646C79.35 57.014 79.0827 56.6807 78.9862 56.2211C78.8897 55.7615 79.0006 55.3487 79.2353 55.3005C79.47 55.251 79.7373 55.5844 79.8338 56.044Z" fill="#422821"/>
<path d="M84.6845 55.1573C84.781 55.6169 84.6702 56.0297 84.4355 56.0778C84.2007 56.1273 83.9334 55.794 83.8369 55.3344C83.7404 54.8747 83.8513 54.462 84.086 54.4138C84.3207 54.3643 84.588 54.6977 84.6845 55.1573Z" fill="#422821"/>
<path d="M78.7623 65.45C76.6805 65.5867 74.4475 65.7885 72.6318 66.8822C69.8705 68.545 69.1844 75.7102 68.9966 78.7961C68.8688 80.9028 68.9066 83.02 68.677 85.1176C68.2036 89.4561 66.5575 93.6969 66.7531 98.1031C66.9018 101.46 68.9979 101.604 71.9379 102.119C77.7123 103.129 84.9566 103.666 90.5014 101.387L95.3275 68.5749C95.3275 68.5749 93.1101 67.1426 88.4144 66.101C85.9362 66.101 78.7623 65.45 78.7623 65.45Z" fill="#63719C"/>
<path d="M79.4141 62.5857C79.4141 62.5857 80.4576 65.0596 78.7828 65.4671C80.0663 66.1012 81.1136 66.7783 82.5445 66.8825C83.9754 66.9866 87.158 67.1846 88.4141 66.1012C86.4576 65.0596 86.588 62.3253 86.4276 61.0623C84.6706 61.8487 79.4141 62.5857 79.4141 62.5857Z" fill="#F9BB7C"/>
<path d="M95.618 68.8067C96.8258 69.9838 97.5954 71.959 98.3271 73.7832C99.338 76.304 100.371 78.9602 101.066 81.5956C104.458 92.2725 101.718 93.9652 98.588 92.6632C97.414 91.6215 95.4575 89.3351 94.414 87.4549C93.8701 86.4745 91.0384 81.3001 90.2401 78.2103C89.1967 74.1739 90.2401 69.4864 92.8488 68.3146C93.9706 67.8107 94.9736 68.1778 95.618 68.8067Z" fill="#FBFBFB"/>
<path d="M81.727 58.2276C81.727 58.2276 81.7165 58.2276 81.7126 58.2263C81.5288 58.1833 81.3658 58.0297 81.2862 57.8239C81.2119 57.6299 81.2145 57.419 81.225 57.2575C81.2419 57.001 81.2876 56.7458 81.3332 56.4984C81.3658 56.3162 81.3997 56.1287 81.4219 55.9425C81.4831 55.419 81.4232 55.0102 81.2406 54.6925C81.2224 54.6612 81.2328 54.6222 81.2641 54.6039C81.2954 54.5857 81.3345 54.5961 81.3527 54.6274C81.5496 54.9698 81.6148 55.4047 81.5496 55.9568C81.5275 56.1469 81.4936 56.337 81.4597 56.5206C81.4153 56.7641 81.3697 57.0154 81.354 57.2641C81.3436 57.4125 81.341 57.6052 81.4075 57.7758C81.4714 57.9411 81.5992 58.0648 81.7413 58.0987C81.7765 58.1065 81.7987 58.1416 81.7896 58.1768C81.7831 58.2068 81.7557 58.2276 81.7257 58.2276H81.727Z" fill="#72342B"/>
<path d="M80.7195 60.0125C82.0225 60.1115 82.8495 59.8328 84.0573 59.4565C83.5669 60.7912 81.5282 61.2859 80.7195 60.0125Z" fill="#FBFBFB"/>
<path d="M75.7701 58.0621C76.2345 58.8603 77.081 59.3915 77.6014 59.1285C77.6014 59.1285 77.2323 57.6233 76.9388 56.7418C76.8071 56.3434 76.2397 55.7119 75.761 56.0752C75.2406 56.471 75.2745 57.2119 75.7688 58.0621H75.7701Z" fill="#F9BB7C"/>
<path d="M88.3056 55.3642C88.1895 56.2796 87.6169 57.0986 87.0352 57.0595C87.0352 57.0595 86.7873 55.5296 86.713 54.6038C86.6791 54.1859 86.9556 53.3838 87.5373 53.5322C88.1712 53.6937 88.4295 54.3903 88.3056 55.3655V55.3642Z" fill="#F9BB7C"/>
<path d="M79.8016 53.5974C79.9659 54.0375 79.4103 54.264 78.7125 54.5401C78.0133 54.8174 77.369 54.8434 77.2711 54.5986C77.1746 54.3552 77.6625 53.932 78.3603 53.656C79.0594 53.3786 79.6868 53.2914 79.8016 53.5974Z" fill="#AE4C30"/>
<path d="M82.7089 53.1469C82.7533 53.6143 83.352 53.5753 84.102 53.5193C84.852 53.4633 85.4428 53.2055 85.4233 52.9438C85.4037 52.6821 84.7802 52.5154 84.0302 52.5714C83.2802 52.6274 82.6776 52.8227 82.7089 53.1469Z" fill="#AE4C30"/>
<path d="M51.6314 165.318C51.621 165.318 51.6105 165.318 51.6001 165.314C51.5296 165.298 51.4879 165.226 51.5049 165.157C52.5366 161.033 53.5957 156.735 54.6196 152.579C55.6436 148.428 56.7014 144.135 57.7318 140.014C58.1375 138.393 58.5562 136.716 59.2201 135.143C60.2218 132.768 61.7596 130.661 63.2466 128.624C64.9879 126.238 66.8779 123.646 68.7666 121.055C70.6566 118.464 72.5453 115.871 74.2866 113.486C74.3296 113.427 74.4105 113.415 74.4692 113.457C74.5279 113.5 74.5396 113.581 74.4979 113.639C72.7566 116.025 70.8666 118.617 68.9779 121.208C67.0879 123.799 65.1992 126.392 63.4579 128.777C61.9801 130.803 60.4514 132.897 59.4614 135.245C58.8066 136.799 58.3892 138.466 57.9862 140.078C56.9557 144.198 55.8979 148.491 54.874 152.641C53.8501 156.798 52.7896 161.094 51.7592 165.219C51.7449 165.278 51.6914 165.318 51.6327 165.318H51.6314Z" fill="#5E5E5E"/>
<path d="M75.1754 117.988C75.1141 117.988 75.0593 117.945 75.0476 117.883C74.1528 113.162 73.8724 111.015 73.7406 105.883C73.7393 105.812 73.7954 105.752 73.8671 105.749C73.935 105.749 73.9989 105.804 74.0002 105.875C74.1319 111.028 74.3967 113.055 75.3019 117.833C75.315 117.904 75.2693 117.973 75.1976 117.986C75.1898 117.987 75.1806 117.988 75.1728 117.988H75.1754Z" fill="#5E5E5E"/>
<path d="M91.5443 164.928C91.4895 164.928 91.44 164.894 91.4204 164.841C89.9634 160.609 88.3278 156.441 86.7469 152.41C85.1647 148.376 83.5278 144.205 82.0695 139.969C81.5765 138.535 81.0169 136.909 81.0652 135.271C81.1056 133.904 81.5491 132.618 82.0382 131.314C82.6604 129.655 83.3426 127.987 84.0039 126.375C85.2195 123.408 86.4769 120.339 87.3965 117.216C89.0478 111.611 89.2852 106.629 88.1021 102.409C88.0826 102.34 88.123 102.269 88.1921 102.249C88.2626 102.23 88.333 102.27 88.3526 102.339C89.5487 106.607 89.31 111.637 87.6456 117.289C86.7221 120.425 85.4621 123.5 84.2439 126.474C83.5839 128.085 82.9017 129.75 82.2808 131.405C81.7995 132.689 81.3639 133.95 81.3247 135.279C81.2778 136.87 81.8047 138.402 82.3147 139.884C83.7717 144.116 85.4074 148.284 86.9882 152.315C88.5704 156.349 90.2073 160.519 91.6656 164.756C91.6891 164.824 91.6526 164.898 91.5847 164.921C91.5704 164.927 91.556 164.928 91.5417 164.928H91.5443Z" fill="#5E5E5E"/>
<path d="M88.5285 112.345C88.5024 112.345 88.475 112.337 88.4516 112.321C85.9159 110.477 84.2385 107.513 83.9672 104.394C83.9607 104.322 84.0142 104.258 84.0859 104.253C84.159 104.246 84.2216 104.3 84.2268 104.371C84.4929 107.417 86.1298 110.31 88.6055 112.11C88.6642 112.153 88.6759 112.233 88.6342 112.292C88.6081 112.327 88.569 112.345 88.5285 112.345V112.345Z" fill="#5E5E5E"/>
<path d="M79.6754 63.6272C79.6754 63.6272 78.5014 64.4084 78.2406 65.5803C78.0684 66.3537 78.2367 66.7352 78.371 67.4032C78.6319 68.7052 79.2841 70.0073 79.2841 70.0073L81.7623 66.7522C81.7623 66.7522 80.0667 64.7991 79.6754 63.6272Z" fill="#FBFBFB"/>
<path d="M86.7189 63.4971C86.7189 63.4971 88.2841 64.9293 88.4146 66.1012C88.502 66.8889 83.3276 70.2678 83.3276 70.2678L81.7624 66.7522C81.7624 66.7522 85.2841 65.5804 86.7189 63.4971Z" fill="#FBFBFB"/>
<path d="M79.4793 58.0283C78.5089 58.0283 77.7184 57.2392 77.7184 56.2705C77.7184 55.3017 78.5089 54.5127 79.4793 54.5127C80.4497 54.5127 81.2402 55.3017 81.2402 56.2705C81.2402 57.2392 80.4497 58.0283 79.4793 58.0283ZM79.4793 54.7731C78.6524 54.7731 77.9793 55.445 77.9793 56.2705C77.9793 57.096 78.6524 57.7679 79.4793 57.7679C80.3063 57.7679 80.9793 57.096 80.9793 56.2705C80.9793 55.445 80.3063 54.7731 79.4793 54.7731Z" fill="#FBFBFB"/>
<path d="M84.4358 57.1169C83.4654 57.1169 82.6749 56.3278 82.6749 55.3591C82.6749 54.3904 83.4654 53.6013 84.4358 53.6013C85.4062 53.6013 86.1967 54.3904 86.1967 55.3591C86.1967 56.3278 85.4062 57.1169 84.4358 57.1169ZM84.4358 53.8617C83.6088 53.8617 82.9358 54.5336 82.9358 55.3591C82.9358 56.1846 83.6088 56.8565 84.4358 56.8565C85.2628 56.8565 85.9358 56.1846 85.9358 55.3591C85.9358 54.5336 85.2628 53.8617 84.4358 53.8617Z" fill="#FBFBFB"/>
<path d="M81.214 56.023L81.0053 55.8667C81.4449 55.2821 82.444 55.2873 82.877 55.5764L82.7323 55.7925C82.3866 55.562 81.5505 55.5738 81.2127 56.023H81.214Z" fill="#FBFBFB"/>
<path d="M97.1792 88.2882C97.2314 88.1645 97.2862 88.0408 97.3436 87.9184L97.431 87.7361L97.4766 87.6463L97.4988 87.6033L97.5092 87.5851L97.6775 87.3012L98.0101 86.744L98.6662 85.6593L99.9771 83.5083L102.603 79.2219L107.853 70.657C108.442 69.696 109.701 69.3927 110.664 69.9812C111.526 70.5085 111.86 71.571 111.496 72.4785V72.4825L107.769 81.8013L105.921 86.464L105.004 88.7921L104.551 89.9496L104.335 90.516L104.229 90.7947L104.223 90.8116C104.223 90.8116 104.227 90.8064 104.228 90.8038L104.241 90.7843C104.249 90.7712 104.257 90.7582 104.263 90.7439C104.278 90.7166 104.288 90.6879 104.297 90.658C103.641 92.6215 101.516 93.6827 99.5492 93.0277C97.5823 92.3728 96.5192 90.2517 97.1753 88.2882H97.1792Z" fill="#F9BB7C"/>
<path d="M120.388 56.0518V56.0622L121.037 66.1818L106.794 67.092L106.146 56.9697L106.144 56.9619L120.388 56.0518Z" fill="#FF972F"/>
<path d="M120.388 56.0516V56.062C120.388 56.062 120.385 56.0659 120.384 56.0659L114.231 61.3575C114.055 61.502 113.844 61.5815 113.627 61.5945C113.412 61.6088 113.193 61.5567 113.001 61.4369L106.172 56.9865C106.172 56.9865 106.157 56.9761 106.147 56.9682V56.9604L120.389 56.0503L120.388 56.0516Z" fill="#FFD971"/>
<path d="M111.11 73.1322C111.893 71.5697 116.197 67.6636 116.719 67.0125C117.241 66.3615 117.632 60.6324 117.632 60.6324C117.632 60.6324 117.261 60.6246 116.98 60.7626C116.733 60.8837 116.579 61.1532 116.458 61.1532C114.845 61.1532 113.98 65.5802 113.98 65.5802L113.197 65.9709L113.588 62.0647C113.588 62.0647 113.067 62.1949 112.675 62.5855C112.057 63.2027 111.632 66.3615 111.632 66.3615C111.632 66.3615 110.98 66.6219 109.675 67.4031C108.371 68.1844 107.98 70.6583 107.98 70.6583L111.11 73.1322Z" fill="#F9BB7C"/>
<path d="M115.48 65.9708C115.48 65.9708 115.469 65.9708 115.464 65.9682C115.429 65.9591 115.408 65.9239 115.417 65.8888C115.617 65.0984 115.787 64.2951 115.952 63.5177C116.116 62.7391 116.287 61.9344 116.488 61.1428C116.497 61.1076 116.532 61.0868 116.567 61.0959C116.602 61.105 116.623 61.1402 116.614 61.1753C116.415 61.9644 116.244 62.7677 116.079 63.5451C115.915 64.3237 115.744 65.1284 115.544 65.9213C115.536 65.9513 115.51 65.9708 115.481 65.9708H115.48Z" fill="#AE4C30"/>
<path d="M85.0232 59.07C84.7624 58.0283 83.2963 58.07 82.0232 58.2888C81.4767 58.3825 79.8058 58.6794 79.545 60.2419C78.645 59.7653 77.458 57.6377 76.9363 56.5961C76.9363 56.5961 77.745 60.1533 78.2654 61.2444C79.1537 63.1064 81.2954 64.3342 83.1006 63.9566C85.1432 63.5283 86.398 61.8903 86.9798 60.5023C87.5302 59.1859 86.5885 53.9919 86.5885 53.9919C86.7189 56.4659 85.8058 58.6794 85.0232 59.07V59.07ZM82.6754 61.1533C81.7754 61.3525 80.458 60.8929 80.458 59.9814C80.458 59.5492 81.3593 59.2757 82.2841 59.07C83.458 58.8096 84.2406 59.07 84.3711 59.5908C84.5015 60.1116 83.8493 60.8929 82.6754 61.1533Z" fill="#AE4C30"/>
<path d="M85.9359 54.6431C85.8916 54.6431 85.8486 54.6209 85.8238 54.5793C85.7873 54.5181 85.8068 54.4374 85.8681 54.4009L86.5201 54.0103C86.5814 53.9738 86.6622 53.9933 86.6987 54.0545C86.7352 54.1157 86.7157 54.1965 86.6544 54.2329L86.0024 54.6235C85.9816 54.6366 85.9581 54.6418 85.9359 54.6418V54.6431Z" fill="#FBFBFB"/>
<path d="M77.8488 56.4658C77.8488 56.4658 77.8384 56.4658 77.8319 56.4658L76.7887 56.3356C76.717 56.3265 76.6661 56.2614 76.6753 56.1898C76.6844 56.1182 76.7496 56.0674 76.8213 56.0765L77.8645 56.2067C77.9362 56.2158 77.987 56.2809 77.9779 56.3525C77.9701 56.4189 77.914 56.4671 77.8488 56.4671V56.4658Z" fill="#FBFBFB"/>
<path d="M77.1142 58.8525C77.1024 58.8525 77.0907 58.8499 77.079 58.8421C76.8729 58.7132 76.7178 58.5075 76.6513 58.2783C76.5991 58.0934 76.603 57.902 76.6082 57.7171V57.6481C76.6135 57.4645 76.6109 57.2536 76.5235 57.0778C76.4492 56.9268 76.2797 56.7874 76.101 56.8135C76.0658 56.8187 76.0319 56.7939 76.0267 56.7588C76.0215 56.7236 76.0463 56.6898 76.0815 56.6846C76.3318 56.6481 76.547 56.833 76.6395 57.0205C76.7399 57.2236 76.7439 57.4528 76.7399 57.652V57.721C76.7334 57.8968 76.7295 58.0778 76.7765 58.2431C76.8325 58.4423 76.9681 58.6207 77.1481 58.7327C77.1781 58.7522 77.1872 58.7926 77.1689 58.8226C77.1559 58.8421 77.135 58.8525 77.1142 58.8525V58.8525Z" fill="#EF6848"/>
<path d="M87.4149 56.4228C87.4019 56.4228 87.3875 56.4189 87.3758 56.4098C87.3471 56.389 87.3406 56.3473 87.3628 56.3186C87.5192 56.1103 87.4775 55.816 87.4149 55.6051C87.3915 55.5244 87.3628 55.445 87.3341 55.3668C87.2715 55.1937 87.2076 55.014 87.192 54.8226C87.1685 54.5348 87.2989 54.1937 87.591 54.1025C87.6249 54.0921 87.6614 54.1103 87.6731 54.1455C87.6835 54.1793 87.6653 54.2158 87.6301 54.2275C87.4058 54.2978 87.3041 54.583 87.3223 54.8135C87.3367 54.9866 87.3954 55.1507 87.4566 55.3239C87.4853 55.4059 87.5153 55.4866 87.5388 55.57C87.6092 55.8082 87.6535 56.1468 87.4658 56.3981C87.4527 56.415 87.4332 56.4241 87.4136 56.4241L87.4149 56.4228Z" fill="#EF6848"/>
<path d="M193.543 165.904C193.543 165.904 194.065 164.798 194.326 163.756C195.761 163.756 201.109 164.016 201.109 164.016V166.36L193.543 165.904Z" fill="#C25A3C"/>
<path d="M201.091 165.872L201.594 173.719C201.594 173.719 197.489 173.679 194.848 173.782C192.288 173.881 187.158 174.124 184.641 172.758C185.558 168.782 186.642 169.574 188.461 168.934C190.282 168.295 193.181 166.868 193.769 165.408C196.051 165.579 199.524 165.989 201.09 165.873L201.091 165.872Z" fill="#004064"/>
<path d="M218.586 163.495V166.099L225.891 165.448C225.891 165.448 225.369 163.626 225.369 162.323C224.195 162.584 218.586 163.495 218.586 163.495Z" fill="#C25A3C"/>
<path d="M218.539 165.872L218.037 173.719C218.037 173.719 221.814 173.679 224.456 173.782C227.015 173.881 232.472 174.124 234.988 172.758C234.071 168.782 232.987 169.574 231.168 168.934C229.347 168.295 226.449 166.868 225.86 165.408C223.578 165.579 220.106 165.989 218.539 165.873V165.872Z" fill="#004064"/>
<path d="M198.437 94.3271C198.437 94.3271 197.065 126.026 196.152 134.83C195.146 144.531 193.673 163.778 193.673 163.778C193.673 163.778 197.978 164.114 202.543 164.146C204.63 152.941 206.543 140.781 206.672 138.76C206.8 136.739 210.54 113.18 212.417 113.031C214.292 112.881 216.966 135.134 216.631 138.032C216.295 140.931 217.544 164.146 217.544 164.146C217.544 164.146 222.37 164.429 226.936 163.778C227.348 154.268 227.37 99.4911 226.99 94.0654C217.281 93.9768 198.438 94.3271 198.438 94.3271H198.437Z" fill="#3B4A73"/>
<path d="M209.065 55.9448C209.065 55.9448 206.462 56.9253 203.79 55.9761C202.678 61.6674 199.562 98.9012 199.562 98.9012C199.562 98.9012 207.137 101.47 213.369 100.996C219.602 100.522 225.38 99.1382 227.606 98.1903C226.938 92.7359 225.603 55.2651 225.603 55.2651C225.603 55.2651 222.509 56.1037 220.282 55.9448C218.057 55.7873 209.065 55.9448 209.065 55.9448Z" fill="#FBFBFB"/>
<path d="M209.065 55.9448L200.897 101.984C200.897 101.984 193.329 100.798 191.326 98.9012C192.216 93.4468 198.449 67.3599 198.449 67.3599L202.021 51.2573C202.021 51.2573 205.804 56.5958 209.065 55.9448V55.9448Z" fill="#7885B2"/>
<path d="M220.282 55.9449L224.978 101.985C224.978 101.985 230.978 100.606 234.891 97.6109C233.334 89.5472 230.276 65.6999 230.276 65.6999L228.5 52.6897C228.5 52.6897 223.804 56.3355 220.282 55.9449Z" fill="#7885B2"/>
<path d="M220.282 55.9448C219.614 57.6049 217.803 59.851 214.543 59.851C211.639 59.851 209.716 57.4083 209.064 55.976C211.412 55.4552 211.543 52.95 211.543 52.95C211.543 52.95 216.337 53.0568 217.673 52.8198C217.673 52.9826 217.685 53.161 217.709 53.3459C217.771 53.8016 217.916 54.3029 218.174 54.7417C218.57 55.4161 219.236 55.9448 220.282 55.9448Z" fill="#C25A3C"/>
<path d="M183.76 16.5926L243.59 25.2591C246.33 25.6549 248.839 23.8867 249.196 21.3047C249.204 21.2526 249.21 21.2006 249.215 21.1485C249.234 20.9649 249.242 20.7839 249.238 20.6042C249.195 18.3009 247.374 16.2749 244.886 15.9142L185.055 7.24634L183.76 16.5913V16.5926Z" fill="#FFD971"/>
<path d="M175.282 9.6449L176.828 10.9131L183.76 16.5927L185.054 7.2478L177.219 9.16965L175.282 9.6449Z" fill="#FFFCE5"/>
<path d="M175.282 9.64469L176.828 10.9129C177.057 10.6395 177.214 10.3061 177.264 9.93245C177.301 9.67073 177.283 9.41292 177.219 9.16943L175.282 9.64469Z" fill="#DD9B6B"/>
<path d="M187.412 24.8255C187.437 24.8398 187.46 24.8385 187.484 24.8242H187.412V24.8255Z" fill="#C25A3C"/>
<path d="M192.63 21.3099C192.63 19.4871 192.761 17.4806 191.565 16.2306C191.02 15.6603 190.274 15.3712 189.547 15.116C188.041 14.5874 186.511 14.133 184.964 13.758C184.801 14.6616 185.704 15.3478 186.512 15.6642C187.321 15.9806 188.287 16.3048 188.554 17.1772C186.77 17.1876 184.987 16.8491 183.32 16.1811C182.31 15.215 181.38 14.6343 180.101 13.4741C179.869 14.4025 180.799 15.9116 181.59 17.3543C182.987 18.5339 185.003 19.4727 186.63 20.53C186.656 20.5469 186.687 20.5639 186.722 20.5795C187.987 22.0065 187.794 24.6315 187.484 24.8242C188.076 24.8086 192.275 24.6953 192.76 24.6953C192.76 24.1745 192.63 21.3099 192.63 21.3099Z" fill="#BF604D"/>
<path d="M238.718 29.3826C238.718 27.5597 238.586 25.5532 239.782 24.3033C240.327 23.7329 241.074 23.4439 241.8 23.1887C243.307 22.66 244.837 22.2056 246.384 21.8306C246.547 22.7343 245.644 23.4205 244.835 23.7369C244.027 24.052 243.244 24.2134 242.978 25.0858C244.761 25.0962 245.615 25.1014 247.282 24.4348C248.293 23.4686 248.717 22.4817 249.239 20.9192C249.891 21.7004 249.507 23.9035 248.717 25.3462C247.413 26.7785 246.344 27.5441 244.718 28.6014C244.692 28.6183 244.661 28.6352 244.625 28.6508C243.36 30.0779 243.553 32.7029 243.864 32.8956C243.271 32.8799 239.073 32.7667 238.587 32.7667C238.587 32.2458 238.718 29.3813 238.718 29.3813V29.3826Z" fill="#BF604D"/>
<path d="M228.369 52.8201C228.369 52.8201 236.717 46.44 237.5 30.4246C242.978 30.8152 245.326 30.8152 245.326 30.8152C245.326 30.8152 244.324 55.419 230.079 68.2248C228.299 60.1611 228.369 52.8201 228.369 52.8201Z" fill="#7885B2"/>
<path d="M204.239 81.7258C204.176 81.7258 204.12 81.6802 204.109 81.6151C203.503 77.7311 203.847 63.9813 203.978 58.8056V58.734L204.042 58.6975C206.097 57.4671 207.181 56.8525 208.874 55.9593C208.938 55.9254 209.016 55.9502 209.05 56.014C209.084 56.0778 209.059 56.1559 208.996 56.1897C207.325 57.0712 206.249 57.6806 204.237 58.8837C204.107 64.1076 203.768 77.7324 204.368 81.5748C204.378 81.6464 204.33 81.7128 204.259 81.7232C204.253 81.7232 204.246 81.7245 204.239 81.7245V81.7258Z" fill="#1A619F"/>
<path d="M223.282 82.1164C223.282 82.1164 223.273 82.1164 223.269 82.1164C223.197 82.1099 223.145 82.0461 223.152 81.9745C223.442 78.998 223.907 73.6087 224.315 68.8523C224.633 65.1492 224.935 61.648 225.102 59.911C223.937 59.0165 222.969 58.2535 221.851 57.3733C221.375 56.9983 220.877 56.6051 220.332 56.178C220.275 56.1337 220.265 56.0517 220.309 55.9957C220.354 55.9397 220.436 55.9293 220.492 55.9736C221.037 56.4006 221.535 56.7939 222.012 57.1689C223.148 58.0634 224.127 58.8355 225.317 59.7482L225.374 59.7925L225.368 59.8641C225.203 61.5737 224.898 65.1206 224.575 68.8744C224.165 73.6309 223.702 79.0227 223.411 81.9992C223.405 82.0669 223.347 82.1164 223.282 82.1164Z" fill="#1A619F"/>
<path d="M200.195 82.8977C200.627 82.8977 200.978 82.5479 200.978 82.1164C200.978 81.685 200.627 81.3352 200.195 81.3352C199.763 81.3352 199.412 81.685 199.412 82.1164C199.412 82.5479 199.763 82.8977 200.195 82.8977Z" fill="#1A619F"/>
<path d="M198.238 91.8818C198.671 91.8818 199.021 91.532 199.021 91.1006C199.021 90.6691 198.671 90.3193 198.238 90.3193C197.806 90.3193 197.456 90.6691 197.456 91.1006C197.456 91.532 197.806 91.8818 198.238 91.8818Z" fill="#1A619F"/>
<path d="M209.461 46.117C209.237 45.8058 208.943 45.5258 208.784 45.1574C208.526 44.5558 208.737 44.3227 208.856 43.8149C209.084 42.8371 208.455 42.1926 208.51 41.2473C208.577 40.0871 209.494 40.1952 209.833 39.1496C209.991 38.6627 210.064 38.2265 210.379 37.8163C210.855 37.1979 211.032 37.4101 211.637 37.4309C212.512 37.4622 213.184 36.3411 214.075 36.5755C214.527 36.6939 214.754 37.1575 215.288 37.1744C215.73 37.1887 216.208 36.9999 216.645 36.9244C217.18 36.832 217.57 36.789 217.932 37.2799C218.297 37.776 218.147 37.9635 218.79 38.0937C219.188 38.1744 219.824 38.1301 220.037 38.6523C220.281 39.2499 219.819 39.4361 220.339 40.0038C220.735 40.4348 221.324 40.6783 221.174 41.4426C221.112 41.7603 220.822 41.9608 220.745 42.2681C220.65 42.6496 220.818 42.8163 220.861 43.1574C221.029 44.5167 220.412 45.1665 220.285 46.4386L209.464 46.117H209.461Z" fill="#72342B"/>
<path d="M219.918 45.7014C219.936 47.7301 219.326 51.4357 218.716 52.299C218.107 53.1623 216.185 54.7729 214.673 54.7729C213.256 54.7729 211.629 53.338 211.021 52.6896C209.836 51.4279 209.573 47.8564 209.579 45.7014C209.583 44.2809 209.873 42.8043 210.89 42.0127C211.769 41.3291 213.272 41.2314 214.673 41.2314C216.074 41.2314 217.666 41.3434 218.586 42.0127C219.597 42.7484 219.903 44.1103 219.918 45.7014Z" fill="#C25A3C"/>
<path d="M213.239 44.7471C213.369 45.0075 213.365 45.307 213.239 45.3981C212.982 45.583 212.302 45.4893 211.759 45.4815C210.949 45.4711 210.108 45.3981 210.108 45.2679C210.108 44.889 210.965 44.4151 211.774 44.458C212.325 44.4867 213.082 44.4333 213.239 44.7471Z" fill="#72342B"/>
<path d="M216.109 44.7471C215.978 45.0075 215.982 45.307 216.109 45.3981C216.366 45.583 217.045 45.4893 217.588 45.4815C218.398 45.4711 219.239 45.3981 219.239 45.2679C219.239 44.889 218.382 44.4151 217.573 44.458C217.022 44.4867 216.265 44.4333 216.109 44.7471Z" fill="#72342B"/>
<path d="M217.972 46.8876C217.972 47.3577 217.777 47.7378 217.539 47.7378C217.299 47.7378 217.106 47.3577 217.106 46.8876C217.106 46.4176 217.3 46.0374 217.539 46.0374C217.777 46.0374 217.972 46.4176 217.972 46.8876Z" fill="#422821"/>
<path d="M212.233 46.8876C212.233 47.3577 212.039 47.7378 211.8 47.7378C211.56 47.7378 211.367 47.3577 211.367 46.8876C211.367 46.4176 211.561 46.0374 211.8 46.0374C212.039 46.0374 212.233 46.4176 212.233 46.8876Z" fill="#422821"/>
<path d="M212.995 51.1611C213.3 51.2939 213.572 51.3903 213.836 51.4489C214.1 51.5088 214.349 51.5283 214.605 51.5218C214.733 51.5088 214.862 51.5062 214.993 51.4788C215.128 51.4697 215.258 51.4255 215.4 51.4033C215.54 51.3734 215.68 51.3278 215.832 51.3005C215.978 51.2575 216.131 51.2158 216.304 51.1911C216.223 51.3382 216.12 51.4697 216.012 51.5973C215.891 51.708 215.766 51.8226 215.623 51.9137C215.336 52.0934 214.996 52.2132 214.636 52.2327C214.276 52.2471 213.907 52.1546 213.607 51.9684C213.308 51.7822 213.068 51.5088 212.972 51.1768C212.969 51.1689 212.974 51.1598 212.982 51.1572C212.986 51.1572 212.99 51.1572 212.993 51.1572H212.994L212.995 51.1611Z" fill="#FBFBFB"/>
<path d="M214.533 50.2354C214.207 50.2354 213.914 49.9632 213.807 49.6625C213.682 49.3109 213.744 48.9151 213.795 48.5961L214.15 46.363L214.279 46.3839L213.924 48.6169C213.873 48.9359 213.816 49.2979 213.929 49.6182C214.034 49.9112 214.349 50.1703 214.653 50.0882L214.687 50.2132C214.635 50.2276 214.584 50.2341 214.533 50.2341V50.2354Z" fill="#72342B"/>
<path d="M210.256 47.3409C210.5 48.3435 210.345 49.2484 209.878 49.3682C209.411 49.488 208.64 48.544 208.282 47.5714C207.884 46.4932 208.293 45.5623 209.067 45.7211C209.454 45.8005 209.997 46.2732 210.256 47.3409V47.3409Z" fill="#C25A3C"/>
<path d="M219.431 47.0804C219.187 48.083 219.343 48.9879 219.81 49.1077C220.276 49.2275 221.047 48.2835 221.406 47.3109C221.804 46.2327 221.394 45.3018 220.621 45.4606C220.233 45.54 219.691 46.0127 219.431 47.0804V47.0804Z" fill="#C25A3C"/>
<path d="M204.369 54.3825C204.369 54.3825 194.064 42.7941 193.543 22.8726H186.499C186.499 22.8726 184.646 54.5961 198.89 67.4032C202.412 60.2418 204.369 54.3825 204.369 54.3825Z" fill="#7885B2"/>
<path d="M209.541 48.5362C209.532 48.5362 209.523 48.5349 209.514 48.5297C209.23 48.3995 209.137 48.0597 209.145 47.7849C209.149 47.6638 209.167 47.5427 209.184 47.4256C209.206 47.2758 209.229 47.1339 209.221 46.9894C209.209 46.7485 209.077 46.4816 208.849 46.436C208.814 46.4295 208.79 46.3943 208.798 46.3592C208.805 46.324 208.84 46.3006 208.875 46.3084C209.183 46.3696 209.338 46.7016 209.351 46.9842C209.359 47.1404 209.335 47.2954 209.313 47.4451C209.296 47.5584 209.279 47.6756 209.275 47.7888C209.269 48.0115 209.342 48.3084 209.568 48.4112C209.6 48.4255 209.614 48.4646 209.6 48.4972C209.59 48.5206 209.565 48.5349 209.541 48.5349V48.5362Z" fill="#72342B"/>
<path d="M220.185 48.5269C220.152 48.5269 220.123 48.5022 220.119 48.4696C220.116 48.4345 220.142 48.4019 220.177 48.398L220.234 48.3915C220.382 48.1376 220.331 47.8069 220.267 47.4866C220.194 47.1298 220.139 46.7561 220.327 46.4592C220.422 46.3082 220.607 46.1936 220.774 46.2678C220.807 46.2822 220.822 46.3212 220.807 46.3538C220.792 46.3863 220.753 46.4019 220.721 46.3863C220.625 46.3433 220.502 46.4254 220.436 46.5282C220.275 46.7848 220.324 47.1155 220.395 47.4605C220.466 47.8173 220.521 48.1897 220.328 48.4865L220.311 48.5126L220.192 48.5269C220.192 48.5269 220.187 48.5269 220.185 48.5269Z" fill="#72342B"/>
<g style="mix-blend-mode:overlay" opacity="0.31">
<path d="M218.174 54.7417C217.38 55.325 216.42 55.8146 215.587 55.8146C214.17 55.8146 212.542 54.3797 211.934 53.7313C211.8 53.5881 211.677 53.4123 211.565 53.2144C212.344 53.9058 213.571 54.7729 214.674 54.7729C215.671 54.7729 216.849 54.0711 217.71 53.3459C217.771 53.8016 217.916 54.3029 218.174 54.7417Z" fill="#090909"/>
</g>
</g>
<defs>
<clipPath id="clip0_200_65194">
<rect width="373" height="175" fill="white"/>
</clipPath>
</defs>
</svg>
