<svg width="45" height="45" viewBox="0 0 45 45" fill="none" xmlns="http://www.w3.org/2000/svg">
<g clip-path="url(#clip0_801_26381)">
<path d="M22.5039 45C34.9303 45 45.0039 34.9264 45.0039 22.5C45.0039 10.0736 34.9303 0 22.5039 0C10.0775 0 0.00390625 10.0736 0.00390625 22.5C0.00390625 34.9264 10.0775 45 22.5039 45Z" fill="#E3F2FB"/>
<path d="M33.9623 10.5603H33.9023V10.5303L33.9623 10.5603Z" fill="#FBFBFB"/>
<path d="M30.4067 1.81966L8.59277 18.6787L18.763 31.838L40.577 14.979L30.4067 1.81966Z" fill="#FBFBFB"/>
<path d="M30.4067 1.81966L8.59277 18.6787L18.763 31.838L40.577 14.979L30.4067 1.81966Z" fill="#69AC43"/>
<path d="M26.4314 19.7699C28.3201 18.7989 29.064 16.4806 28.093 14.5919C27.1219 12.7031 24.8037 11.9592 22.9149 12.9303C21.0262 13.9013 20.2823 16.2196 21.2533 18.1083C22.2244 19.997 24.5427 20.7409 26.4314 19.7699Z" fill="#FBFBFB"/>
<path d="M32.8219 11.9315C33.4759 11.5953 33.7335 10.7925 33.3973 10.1384C33.061 9.48438 32.2582 9.22676 31.6042 9.56302C30.9501 9.89928 30.6925 10.7021 31.0288 11.3561C31.365 12.0102 32.1678 12.2678 32.8219 11.9315Z" fill="#FBFBFB"/>
<path d="M17.0992 23.162C17.7533 22.8257 18.0109 22.0229 17.6746 21.3689C17.3384 20.7148 16.5356 20.4572 15.8815 20.7935C15.2275 21.1298 14.9699 21.9326 15.3061 22.5866C15.6424 23.2406 16.4452 23.4983 17.0992 23.162Z" fill="#FBFBFB"/>
<path d="M24.8858 15.8129L24.118 16.1618C23.8821 16.2678 23.6322 16.1977 23.472 16.005C23.287 15.764 23.3378 15.4171 23.5667 15.2382L23.874 15.0039C24.0909 14.8313 24.4012 14.8703 24.5738 15.0872C24.7095 15.2619 24.9529 15.2895 25.1276 15.1539C25.3023 15.0182 25.3299 14.7748 25.1943 14.6001C24.7935 14.0881 24.0872 13.9623 23.5378 14.2906L23.4391 14.158C23.3035 13.9833 23.0601 13.9556 22.8854 14.0913C22.7107 14.2269 22.683 14.4703 22.8187 14.645L22.9236 14.7897C22.4913 15.2564 22.4387 15.9862 22.8457 16.5104C23.2157 16.9924 23.8737 17.143 24.4424 16.9117L25.2102 16.5628C25.4461 16.4568 25.696 16.527 25.8562 16.7196C26.0412 16.9606 25.9904 17.3076 25.7615 17.4864L25.4542 17.7208C25.2374 17.8934 24.927 17.8543 24.7544 17.6375C24.6187 17.4628 24.3753 17.4351 24.2006 17.5708C24.0259 17.7064 23.9983 17.9498 24.1339 18.1245C24.5347 18.6366 25.241 18.7623 25.7904 18.4341L25.8891 18.5667C26.0247 18.7414 26.2681 18.769 26.4428 18.6334C26.6175 18.4977 26.6452 18.2543 26.5095 18.0796L26.4046 17.9349C26.8369 17.4682 26.8895 16.7384 26.4825 16.2143C26.0755 15.6901 25.4482 15.5696 24.8858 15.8129Z" fill="#69AC43"/>
<path d="M30.0383 4.01315L10.9336 18.7783L19.2593 29.5509L38.3639 14.7857L30.0383 4.01315Z" stroke="#FBFBFB" stroke-width="0.679386" stroke-miterlimit="10"/>
<path d="M26.4158 0.451649L4.71875 17.4609L14.9797 30.5497L36.6767 13.5404L26.4158 0.451649Z" fill="#FBFBFB"/>
<path d="M26.4158 0.451649L4.71875 17.4609L14.9797 30.5497L36.6767 13.5404L26.4158 0.451649Z" fill="#7FC258"/>
<path d="M22.564 18.4279C24.4459 17.4439 25.1738 15.1205 24.1898 13.2385C23.2057 11.3566 20.8823 10.6287 19.0004 11.6127C17.1184 12.5968 16.3905 14.9202 17.3746 16.8021C18.3586 18.6841 20.682 19.412 22.564 18.4279Z" fill="#FBFBFB"/>
<path d="M28.8994 10.5458C29.5511 10.205 29.8032 9.40042 29.4624 8.74872C29.1216 8.09701 28.3171 7.84495 27.6654 8.18572C27.0137 8.52649 26.7616 9.33105 27.1024 9.98275C27.4431 10.6345 28.2477 10.8865 28.8994 10.5458Z" fill="#FBFBFB"/>
<path d="M13.2549 21.8846C13.9066 21.5439 14.1586 20.7393 13.8179 20.0876C13.4771 19.4359 12.6725 19.1838 12.0208 19.5246C11.3691 19.8654 11.1171 20.6699 11.4578 21.3216C11.7986 21.9733 12.6032 22.2254 13.2549 21.8846Z" fill="#FBFBFB"/>
<path d="M20.9917 14.4823L20.2262 14.8365C19.9912 14.9441 19.7407 14.8757 19.5792 14.6842C19.3926 14.4445 19.441 14.0972 19.6686 13.9168L19.9743 13.6803C20.1899 13.5062 20.5006 13.5431 20.6746 13.7587C20.8115 13.9325 21.0551 13.9585 21.2289 13.8216C21.4026 13.6848 21.4286 13.4412 21.2917 13.2674C20.8874 12.7582 20.1802 12.6373 19.6332 12.9693L19.5336 12.8374C19.3967 12.6637 19.1531 12.6377 18.9794 12.7745C18.8056 12.9114 18.7796 13.155 18.9165 13.3287L19.0224 13.4727C18.5934 13.9424 18.5458 14.6725 18.9564 15.1939C19.3298 15.6733 19.9888 15.8193 20.5558 15.5842L21.3213 15.23C21.5563 15.1224 21.8068 15.1908 21.9682 15.3823C22.1549 15.622 22.1065 15.9693 21.8789 16.1497L21.5732 16.3862C21.3576 16.5603 21.0469 16.5234 20.8728 16.3077C20.736 16.134 20.4924 16.108 20.3186 16.2449C20.1449 16.3817 20.1189 16.6253 20.2558 16.7991C20.66 17.3083 21.3672 17.4292 21.9143 17.0972L22.0139 17.2291C22.1508 17.4028 22.3944 17.4288 22.5681 17.292C22.7419 17.1551 22.7679 16.9115 22.631 16.7377L22.5251 16.5938C22.9541 16.1241 23.0017 15.3939 22.5911 14.8726C22.1805 14.3513 21.5524 14.2351 20.9917 14.4823Z" fill="#69AC43"/>
<path d="M26.0618 2.64817L7.05957 17.5449L15.4594 28.2598L34.4617 13.363L26.0618 2.64817Z" stroke="#FBFBFB" stroke-width="0.679386" stroke-miterlimit="10"/>
<path d="M35.2899 17.2764L9.08425 18.1428C8.2066 18.1718 7.51864 18.9068 7.54766 19.7844L8.06612 35.4659C8.09514 36.3435 8.83014 37.0315 9.7078 37.0025L35.9135 36.1361C36.7911 36.107 37.4791 35.372 37.4501 34.4944L36.9316 18.8129C36.9026 17.9353 36.1676 17.2473 35.2899 17.2764Z" fill="#FBFBFB"/>
<path d="M36.9316 18.8129C36.9026 17.9353 36.1676 17.2473 35.2899 17.2764L22.1871 17.7096L9.08425 18.1428C8.2066 18.1718 7.51864 18.9068 7.54766 19.7844L8.06612 35.4659C8.09514 36.3435 8.83014 37.0315 9.7078 37.0025L35.9135 36.1361C36.7911 36.107 37.4791 35.372 37.4501 34.4944L36.9316 18.8129Z" stroke="#765BA7" stroke-width="0.939898" stroke-miterlimit="10"/>
<path d="M8.17904 24.6565L8.12682 23.0772L36.5714 22.1368L36.6236 23.716L8.17904 24.6565Z" fill="#765BA7" stroke="#765BA7" stroke-width="0.939898"/>
<path d="M34.258 32.8688L29.6805 33.0202C29.2831 33.0333 28.9716 33.3661 28.9847 33.7636C28.9979 34.161 29.3307 34.4725 29.7281 34.4594L34.3056 34.308C34.7031 34.2949 35.0146 33.9621 35.0014 33.5646C34.9883 33.1672 34.6555 32.8557 34.258 32.8688Z" fill="#F58E25"/>
<path d="M27.2326 33.1014L25.6434 33.1539C25.246 33.1671 24.9345 33.4999 24.9476 33.8973C24.9608 34.2948 25.2936 34.6063 25.691 34.5932L27.2802 34.5406C27.6776 34.5275 27.9891 34.1946 27.976 33.7972C27.9628 33.3998 27.63 33.0883 27.2326 33.1014Z" fill="#F58E25"/>
<g opacity="0.1">
<path d="M36.8824 17.2235L35.1934 17.2793L35.8001 35.6293L37.4891 35.5734L36.8824 17.2235Z" fill="#765BA7"/>
</g>
</g>
<defs>
<clipPath id="clip0_801_26381">
<rect width="45" height="45" fill="white"/>
</clipPath>
</defs>
</svg>
