<svg width="64" height="64" viewBox="0 0 64 64" fill="none" xmlns="http://www.w3.org/2000/svg">
<g clip-path="url(#clip0_95_39945)">
<path d="M32.1943 55.7053C44.1099 55.7053 53.7694 45.9836 53.7694 33.9913C53.7694 21.999 44.1099 12.2773 32.1943 12.2773C20.2787 12.2773 10.6191 21.999 10.6191 33.9913C10.6191 45.9836 20.2787 55.7053 32.1943 55.7053Z" stroke="#6A509B" stroke-width="3.7023" stroke-miterlimit="10"/>
<path d="M51.7607 12.9441L50.4741 10.0007L47.54 8.66792L50.2427 7.28881L51.6033 4.25293L52.9084 7.17774L55.6018 8.30695L53.0194 9.80638L51.7607 12.9441Z" fill="#F58E25"/>
<path d="M56.6574 17.7574L55.954 15.9618L54.2231 15.101L55.8707 14.342L56.75 12.5557L57.4719 14.3328L59.0546 15.064L57.4719 15.9062L56.6574 17.7574Z" fill="#F58E25"/>
<path d="M58.4172 12.2779L57.7137 10.4915L55.9829 9.63076L57.6397 8.87179L58.5097 7.07617L59.2317 8.86253L60.8144 9.59374L59.2409 10.4268L58.4172 12.2779Z" fill="#F58E25"/>
<g style="mix-blend-mode:multiply" opacity="0.1">
<path d="M51.6521 34.0844C51.6521 44.3903 43.6411 52.8182 33.5149 53.496C40.5415 50.2797 45.423 43.195 45.423 34.9544C45.423 24.988 38.2634 16.6857 28.8105 14.9217C29.9109 14.7287 31.0418 14.6288 32.1965 14.6288C42.9368 14.6288 51.6521 23.3441 51.6521 34.0844Z" fill="#6A509A"/>
<path d="M51.6521 34.0844C51.6521 44.3903 43.6411 52.8182 33.5149 53.496C40.5415 50.2797 45.423 43.195 45.423 34.9544C45.423 24.988 38.2634 16.6857 28.8105 14.9217C29.9109 14.7287 31.0418 14.6288 32.1965 14.6288C42.9368 14.6288 51.6521 23.3441 51.6521 34.0844Z" stroke="#6A509B" stroke-width="0.925575"/>
</g>
<path d="M40.4121 42.7801C40.4121 43.1181 40.394 43.4078 40.3578 43.6492C40.3216 43.8785 40.2673 44.0656 40.1948 44.2105C40.1345 44.3433 40.0621 44.4398 39.9776 44.5002C39.8931 44.5605 39.7965 44.5907 39.6879 44.5907H26.7604C26.6639 44.5907 26.5733 44.5605 26.4889 44.5002C26.4044 44.4398 26.3259 44.3433 26.2535 44.2105C26.1931 44.0656 26.1448 43.8785 26.1086 43.6492C26.0724 43.4078 26.0543 43.1181 26.0543 42.7801C26.0543 42.4301 26.0664 42.1404 26.0905 41.9111C26.1267 41.6697 26.175 41.4765 26.2354 41.3317C26.3078 41.1868 26.3863 41.0842 26.4707 41.0239C26.5552 40.9515 26.6518 40.9153 26.7604 40.9153H31.1239V25.6703L27.3579 27.7524C27.0803 27.8852 26.851 27.9697 26.6699 28.0059C26.5009 28.0301 26.3621 27.9938 26.2535 27.8973C26.1569 27.7886 26.0905 27.6076 26.0543 27.3541C26.0181 27.1006 26 26.7446 26 26.2859C26 25.9962 26.006 25.7608 26.0181 25.5798C26.0302 25.3866 26.0604 25.2237 26.1086 25.0909C26.1569 24.9581 26.2233 24.8495 26.3078 24.765C26.3923 24.6805 26.507 24.59 26.6518 24.4934L31.6852 21.2344C31.7455 21.1861 31.818 21.1499 31.9024 21.1258C31.999 21.0896 32.1197 21.0654 32.2646 21.0533C32.4094 21.0292 32.5965 21.0171 32.8258 21.0171C33.0672 21.0051 33.375 20.999 33.7492 20.999C34.2079 20.999 34.5761 21.0111 34.8537 21.0352C35.1434 21.0473 35.3606 21.0775 35.5055 21.1258C35.6503 21.162 35.7469 21.2163 35.7952 21.2887C35.8434 21.3611 35.8676 21.4517 35.8676 21.5603V40.9153H39.6879C39.7965 40.9153 39.8931 40.9515 39.9776 41.0239C40.0741 41.0842 40.1526 41.1868 40.2129 41.3317C40.2854 41.4765 40.3337 41.6697 40.3578 41.9111C40.394 42.1404 40.4121 42.4301 40.4121 42.7801Z" fill="#6A509B"/>
</g>
<defs>
<clipPath id="clip0_95_39945">
<rect width="73" height="73" fill="white" transform="translate(-2 -5)"/>
</clipPath>
</defs>
</svg>
