<svg width="64" height="64" viewBox="0 0 64 64" fill="none" xmlns="http://www.w3.org/2000/svg">
<path d="M32.1943 55.7053C44.1099 55.7053 53.7694 45.9836 53.7694 33.9913C53.7694 21.999 44.1099 12.2773 32.1943 12.2773C20.2787 12.2773 10.6191 21.999 10.6191 33.9913C10.6191 45.9836 20.2787 55.7053 32.1943 55.7053Z" stroke="#6A509B" stroke-width="3.7023" stroke-miterlimit="10"/>
<path d="M51.7607 12.9441L50.4741 10.0007L47.54 8.66792L50.2427 7.28881L51.6033 4.25293L52.9084 7.17774L55.6018 8.30695L53.0194 9.80638L51.7607 12.9441Z" fill="#F58E25"/>
<path d="M56.6574 17.7574L55.954 15.9618L54.2231 15.101L55.8707 14.342L56.75 12.5557L57.4719 14.3328L59.0546 15.064L57.4719 15.9062L56.6574 17.7574Z" fill="#F58E25"/>
<path d="M58.4172 12.2779L57.7137 10.4915L55.9829 9.63076L57.6397 8.87179L58.5097 7.07617L59.2317 8.86253L60.8144 9.59374L59.2409 10.4268L58.4172 12.2779Z" fill="#F58E25"/>
<g style="mix-blend-mode:multiply" opacity="0.1">
<path d="M51.6521 34.0844C51.6521 44.3903 43.6411 52.8182 33.5149 53.496C40.5415 50.2797 45.423 43.195 45.423 34.9544C45.423 24.988 38.2634 16.6857 28.8105 14.9217C29.9109 14.7287 31.0418 14.6288 32.1965 14.6288C42.9368 14.6288 51.6521 23.3441 51.6521 34.0844Z" fill="#6A509A"/>
<path d="M51.6521 34.0844C51.6521 44.3903 43.6411 52.8182 33.5149 53.496C40.5415 50.2797 45.423 43.195 45.423 34.9544C45.423 24.988 38.2634 16.6857 28.8105 14.9217C29.9109 14.7287 31.0418 14.6288 32.1965 14.6288C42.9368 14.6288 51.6521 23.3441 51.6521 34.0844Z" stroke="#6A509B" stroke-width="0.925575"/>
</g>
<path d="M40.9554 43.05C40.9554 43.4023 40.9372 43.706 40.9007 43.9612C40.8764 44.2041 40.8339 44.4046 40.7731 44.5625C40.7124 44.7205 40.6334 44.8359 40.5362 44.9088C40.4391 44.9695 40.3297 44.9999 40.2082 44.9999H26.6502C26.3829 44.9999 26.1521 44.9756 25.9577 44.927C25.7634 44.8784 25.6054 44.7873 25.4839 44.6536C25.3624 44.5078 25.2713 44.3013 25.2106 44.034C25.162 43.7668 25.1377 43.4205 25.1377 42.9953C25.1377 42.5944 25.1559 42.2543 25.1924 41.9748C25.2288 41.6833 25.2956 41.4281 25.3928 41.2095C25.49 40.9786 25.6115 40.76 25.7573 40.5534C25.9152 40.3347 26.1157 40.0978 26.3586 39.8427L30.4406 35.4692C31.2546 34.6188 31.9106 33.8473 32.4087 33.1548C32.9068 32.4502 33.2956 31.8124 33.575 31.2414C33.8544 30.6583 34.0427 30.1237 34.1399 29.6378C34.2493 29.1518 34.3039 28.6902 34.3039 28.2528C34.3039 27.8519 34.2371 27.4753 34.1035 27.123C33.982 26.7585 33.7937 26.4426 33.5386 26.1754C33.2956 25.9081 32.9858 25.7016 32.6092 25.5558C32.2326 25.3979 31.7891 25.3189 31.2789 25.3189C30.5621 25.3189 29.9243 25.41 29.3655 25.5922C28.8188 25.7745 28.3328 25.981 27.9076 26.2118C27.4946 26.4305 27.1483 26.637 26.8689 26.8314C26.5895 27.0136 26.3708 27.1048 26.2129 27.1048C26.1035 27.1048 26.0063 27.0683 25.9213 26.9954C25.8484 26.9225 25.7877 26.801 25.7391 26.6309C25.6905 26.4609 25.6479 26.2361 25.6115 25.9567C25.5872 25.6651 25.5751 25.3128 25.5751 24.8998C25.5751 24.6203 25.5811 24.3895 25.5933 24.2073C25.6176 24.0129 25.6479 23.8489 25.6844 23.7152C25.7208 23.5695 25.7694 23.448 25.8302 23.3508C25.8909 23.2414 25.9942 23.1139 26.14 22.9681C26.2979 22.8223 26.5773 22.6401 26.9782 22.4214C27.3913 22.1906 27.8955 21.9719 28.4908 21.7654C29.086 21.5467 29.7421 21.3645 30.4589 21.2187C31.1756 21.0729 31.9228 21 32.7003 21C33.9273 21 34.9964 21.1579 35.9076 21.4738C36.8309 21.7775 37.5962 22.2088 38.2037 22.7676C38.8111 23.3143 39.2606 23.9704 39.5522 24.7357C39.8559 25.489 40.0078 26.3029 40.0078 27.1776C40.0078 27.943 39.9349 28.6962 39.7891 29.4373C39.6433 30.1784 39.3396 30.9802 38.8779 31.8428C38.4163 32.6932 37.7663 33.6408 36.9281 34.6856C36.0898 35.7182 34.9782 36.9209 33.5932 38.2938L30.8415 41.1183H40.1353C40.2568 41.1183 40.3662 41.1548 40.4634 41.2277C40.5727 41.3006 40.6638 41.416 40.7367 41.5739C40.8096 41.7197 40.8643 41.9202 40.9007 42.1753C40.9372 42.4183 40.9554 42.7098 40.9554 43.05Z" fill="#6A509B"/>
</svg>
