<svg width="72" height="72" viewBox="0 0 72 72" fill="none" xmlns="http://www.w3.org/2000/svg">
<g clip-path="url(#clip0_194_16600)">
<circle cx="36.0005" cy="36" r="35.939" fill="#EAE6F2"/>
<path d="M42.6414 50.4803L40.5054 52.9079L37.9354 50.1548L35.1688 52.9485L32.2326 50.4125L29.1405 52.6095L26.6655 50.7786L23.8311 52.4264V17.2944H48.5408L48.5544 48.446L46.3709 52.8265L42.6685 50.365" fill="#FAFBFC"/>
<path d="M30.7675 28.0693C30.7675 27.3302 30.9031 26.7063 31.1743 26.1978C31.4456 25.6892 31.8931 25.4315 32.5169 25.4315C33.1883 25.4315 33.6155 25.6282 33.8053 26.0147C33.9952 26.4012 34.124 26.747 34.1851 27.0522C34.2461 27.3573 34.28 27.6964 34.28 28.0761C34.28 28.7949 34.1512 29.4051 33.8935 29.9205C33.6358 30.4291 33.1747 30.6867 32.5102 30.6867C32.0287 30.6867 31.6558 30.5511 31.3981 30.2799C31.1404 30.0087 30.9709 29.6832 30.8827 29.3102C30.7946 28.9373 30.7539 28.5236 30.7539 28.0761L30.7675 28.0693ZM33.2764 28.0693C33.2764 27.5404 33.2357 27.0928 33.1476 26.7335C33.0594 26.3673 32.8492 26.191 32.5237 26.191C32.1982 26.191 32.0016 26.3741 31.9134 26.7335C31.8253 27.0928 31.7846 27.5404 31.7846 28.0761C31.7846 28.6118 31.8253 29.039 31.9067 29.3984C31.988 29.7578 32.1982 29.9341 32.5237 29.9341C32.8492 29.9341 33.0594 29.7578 33.1476 29.3984C33.2357 29.039 33.2764 28.5982 33.2764 28.0829V28.0693Z" fill="#005894" stroke="#005894" stroke-width="0.341195" stroke-miterlimit="10"/>
<path d="M35.3174 26.7674C35.3174 26.347 35.4259 26.0215 35.6361 25.7841C35.8463 25.5468 36.1447 25.4247 36.538 25.4247C36.9312 25.4247 37.216 25.54 37.4263 25.7706C37.6365 26.0011 37.745 26.3334 37.745 26.7606C37.745 27.1878 37.6432 27.5201 37.433 27.7506C37.2228 27.9812 36.9245 28.1032 36.538 28.1032C36.1514 28.1032 35.8463 27.9879 35.6361 27.7506C35.4259 27.5133 35.3242 27.1878 35.3242 26.7674H35.3174ZM36.9855 26.7674C36.9855 26.5572 36.9516 26.3809 36.8906 26.2317C36.8295 26.0825 36.7075 26.0079 36.5312 26.0079C36.3549 26.0079 36.226 26.0825 36.165 26.2385C36.0972 26.3944 36.0701 26.5707 36.0701 26.7606C36.0701 26.9505 36.104 27.1268 36.1718 27.2827C36.2396 27.4387 36.3616 27.5201 36.538 27.5201C36.7143 27.5201 36.8295 27.4455 36.8973 27.2963C36.9584 27.1471 36.9923 26.9708 36.9923 26.7606L36.9855 26.7674ZM36.321 30.7546L39.4538 25.3569H40.0505L36.9177 30.7546H36.321ZM38.6129 29.3441C38.6129 28.9305 38.7214 28.5982 38.9384 28.3609C39.1554 28.1236 39.4538 28.0015 39.8403 28.0015C40.2268 28.0015 40.5251 28.1168 40.7286 28.3473C40.932 28.5779 41.0405 28.9101 41.0405 29.3373C41.0405 29.7645 40.9388 30.0968 40.7286 30.3274C40.5251 30.5579 40.2268 30.68 39.8403 30.68C39.4538 30.68 39.1486 30.5647 38.9384 30.3274C38.7214 30.09 38.6197 29.7645 38.6197 29.3441H38.6129ZM40.2878 29.3441C40.2878 29.1339 40.2539 28.9576 40.1929 28.8084C40.1318 28.6592 40.0098 28.5847 39.8335 28.5847C39.6572 28.5847 39.5283 28.6593 39.4673 28.8152C39.3995 28.9712 39.3724 29.1475 39.3724 29.3373C39.3724 29.5272 39.4063 29.7035 39.4741 29.8595C39.5419 30.0154 39.664 30.0968 39.8403 30.0968C40.0166 30.0968 40.1318 30.0222 40.1997 29.873C40.2675 29.7239 40.2946 29.5476 40.2946 29.3373L40.2878 29.3441Z" fill="#005894" stroke="#005894" stroke-width="0.341195" stroke-miterlimit="10"/>
<path d="M28.8896 39.3256V34.2467H31.7037V35.0469H29.9V36.3013H31.6156V37.1015H29.9V39.3256H28.8896Z" fill="#005894" stroke="#005894" stroke-width="0.341195" stroke-miterlimit="10"/>
<path d="M32.5107 39.3256V34.2467H35.5011V35.0469H33.5211V36.3013H35.3316V37.1015H33.5211V38.5255H35.5147V39.3256H32.5107Z" fill="#005894" stroke="#005894" stroke-width="0.341195" stroke-miterlimit="10"/>
<path d="M36.5449 39.3256V34.2467H39.5353V35.0469H37.5553V36.3013H39.3658V37.1015H37.5553V38.5255H39.5489V39.3256H36.5449Z" fill="#005894" stroke="#005894" stroke-width="0.341195" stroke-miterlimit="10"/>
<path d="M43.3869 34.3417L43.2919 35.1757C42.9597 35.0333 42.6139 34.9587 42.2612 34.9587C42.0443 34.9587 41.8544 35.013 41.6984 35.1215C41.5425 35.23 41.4611 35.413 41.4611 35.6639C41.4611 35.8877 41.712 36.1047 42.2002 36.3149C42.6952 36.5251 43.0614 36.715 43.3123 36.8845C43.5564 37.054 43.6785 37.3863 43.6785 37.8745C43.6785 38.4034 43.5022 38.79 43.1495 39.0408C42.7969 39.285 42.3426 39.4138 41.7798 39.4138C41.4747 39.4138 41.2509 39.3935 41.1085 39.3595L40.4846 39.2172L40.5796 38.3017C40.6881 38.356 40.7762 38.3967 40.8576 38.4306C40.939 38.4645 41.0542 38.5052 41.2034 38.5458C41.3526 38.5865 41.5289 38.6136 41.7188 38.6136C41.9425 38.6136 42.146 38.5594 42.3358 38.4441C42.5257 38.3288 42.6206 38.1729 42.6206 37.9559C42.6206 37.6982 42.424 37.4812 42.0307 37.3049C41.6374 37.1286 41.3526 36.9998 41.1831 36.9049C41.0135 36.8099 40.8372 36.7082 40.6609 36.5929C40.4846 36.4777 40.3965 36.1793 40.3965 35.7046C40.3965 35.1825 40.566 34.7892 40.9051 34.5383C41.2441 34.2806 41.6645 34.1586 42.1663 34.1586C42.6206 34.1586 43.0207 34.2196 43.3801 34.3417H43.3869Z" fill="#005894" stroke="#005894" stroke-width="0.341195" stroke-miterlimit="10"/>
<g style="mix-blend-mode:multiply" opacity="0.1">
<path d="M46.3839 17.8572H48.4996V49.4767H46.3839C46.194 49.4767 46.0381 49.3207 46.0381 49.1309V18.203C46.0381 18.0131 46.194 17.8572 46.3839 17.8572Z" fill="#6A509B"/>
</g>
<path d="M51.2464 52.5621C55.6168 52.5621 59.1597 49.0191 59.1597 44.6487C59.1597 40.2783 55.6168 36.7354 51.2464 36.7354C46.8759 36.7354 43.333 40.2783 43.333 44.6487C43.333 49.0191 46.8759 52.5621 51.2464 52.5621Z" fill="#B0D899"/>
<path d="M49.6939 49.0631C49.4702 49.0631 49.2464 48.9749 49.0701 48.8054L46.2018 45.9371C45.8559 45.5912 45.8559 45.0352 46.2018 44.6894C46.5476 44.3435 47.1036 44.3435 47.4494 44.6894L49.6939 46.9339L55.1729 41.4549C55.5188 41.109 56.0748 41.109 56.4206 41.4549C56.7665 41.8007 56.7665 42.3567 56.4206 42.7026L50.3178 48.8054C50.1483 48.9749 49.9177 49.0631 49.6939 49.0631Z" fill="white"/>
<g style="mix-blend-mode:multiply" opacity="0.18">
<path d="M59.1594 44.6487C59.1594 49.0224 55.613 52.5621 51.246 52.5621C50.751 52.5621 50.2628 52.5146 49.7949 52.4264C53.4702 51.7484 56.2504 48.5274 56.2504 44.6487C56.2504 40.77 53.4702 37.5491 49.7949 36.871C50.2628 36.7828 50.751 36.7354 51.246 36.7354C55.613 36.7354 59.1594 40.275 59.1594 44.6487Z" fill="#80C15B"/>
</g>
<path d="M45.6796 53.6877C45.5168 53.6877 45.3541 53.6267 45.2252 53.5114L42.757 51.2737L40.7498 53.4233C40.621 53.5657 40.3836 53.6809 40.2073 53.6538C39.9971 53.6538 39.8005 53.5589 39.6649 53.3961L37.678 51.0771L35.359 53.3555C35.1081 53.6063 34.647 53.6199 34.3757 53.3894L31.9346 51.3415L29.446 53.4436C29.1883 53.6606 28.7476 53.6538 28.4967 53.43L26.3403 51.4839L23.906 53.0435C23.6958 53.1791 23.3838 53.1859 23.1668 53.0707C22.9363 52.9418 22.7871 52.6977 22.7871 52.4332L22.9634 18.5014C22.9634 17.4233 23.8517 16.5485 24.9299 16.5485H47.6121C48.6971 16.5485 49.5786 17.43 49.5786 18.515V35.3792C49.5786 35.7521 49.2734 36.0573 48.9005 36.0573C48.5275 36.0573 48.2224 35.7521 48.2224 35.3792V18.515C48.2224 18.1827 47.9512 17.9047 47.6121 17.9047H24.9299C24.5976 17.9047 24.3264 18.1759 24.3196 18.5082L24.1501 51.2737L26.0148 50.0803C26.2793 49.9107 26.6794 49.9514 26.9099 50.1684L28.9984 52.0535L31.4735 49.965C31.7244 49.7548 32.1584 49.7548 32.4093 49.965L34.8165 51.9925L37.2034 49.6395C37.339 49.5107 37.556 49.4361 37.7459 49.4293C37.9425 49.4361 38.1324 49.531 38.2612 49.6802L40.2345 51.9857L42.167 49.9107C42.445 49.6124 42.9129 49.592 43.2181 49.87L46.1271 52.5146C46.4051 52.7655 46.4255 53.1927 46.1746 53.4707C46.0389 53.6199 45.8559 53.6945 45.6728 53.6945L45.6796 53.6877ZM39.7666 52.4943L39.753 52.5078L39.7666 52.4943Z" fill="#6A509B"/>
</g>
<defs>
<clipPath id="clip0_194_16600">
<rect width="72" height="72" fill="white"/>
</clipPath>
</defs>
</svg>
