<svg xmlns="http://www.w3.org/2000/svg" xmlns:xlink="http://www.w3.org/1999/xlink" width="95" height="98" viewBox="0 0 95 98">
  <defs>
    <clipPath id="clip-check">
      <rect width="95" height="98"/>
    </clipPath>
  </defs>
  <g id="check" clip-path="url(#clip-check)">
    <rect width="95" height="98" fill="#fff"/>
    <path id="Path_5631" data-name="Path 5631" d="M-15394.589-13379.757s.381-2.863,1.635-3.312,6.111.319,6.588,1.221.639,3.381,0,4.176a13.146,13.146,0,0,1-1.557,1.563s2.633,1.255,2.662,2.428.787,2.66,0,3.552a10.676,10.676,0,0,1-2.662,1.792s2.4,1.258,2.662,2.98-.5,3.449-1.105,3.8-1.557.8-1.557.8,1.334,3.629.689,4.689a5.343,5.343,0,0,1-3.811,2.346c-1.5.049-4.66-1.253-4.844-2.346s.254-5.6,1.932-5.953,0-.681,0-.681-3.285-1.187-3.285-2.654,2.322-4.327,3.285-4.247-2.672-1.583-2.672-1.583-.85-5.142.74-5.535,1.932-.95,1.932-.95Z" transform="translate(15411.123 13421.2)" fill="#fff"/>
    <path id="Path_5632" data-name="Path 5632" d="M-15344.848-13359.033s-3.324-1.594-3.547-3.121-1.92-15.25-3.383-18.285-4.02-5.452-4.375-6.84-2.643-5.643-3.865-5.588-4.219,5.14-3.955,7.231,2.49,5.693,2.49,5.693a3.935,3.935,0,0,0,0,2.632,4.146,4.146,0,0,0,1.465,1.86l-2.568,3.931v23.37s-.566,2.281-1.943,2.636a8.624,8.624,0,0,1-3.189,0v3.506s3.484,1.713,6.236,1.061,2.818-1.942,4.85-1.65a21.249,21.249,0,0,1,4.855,1.65Z" transform="translate(15415.895 13419.639)" fill="#fff"/>
    <g id="Data_setup_icon" data-name="Data setup icon" transform="translate(13 15)">
      <path id="Path_5576" data-name="Path 5576" d="M527.882,371.351l-11.168-3.786a1.026,1.026,0,0,0-1.3.643l-.316.933-.226-.095a3.523,3.523,0,0,1-1.809-2.473,32.907,32.907,0,0,1-.7-4.109c-.128-1.017-.261-2.07-.482-3.252l-.016-.1c-.392-2.5-1.907-10.95-4.969-14.5a15.567,15.567,0,0,1-2.473-4.443c-.66-1.6-1.229-2.974-2.425-3.639a3.273,3.273,0,0,0-3.058-.115c-1.735.824-2.834,3-3.154,4.791a10.757,10.757,0,0,0,2.143,8.692l.045.062v.076a11.482,11.482,0,0,0,.73,4.467,1.031,1.031,0,0,0,.938.6,1.028,1.028,0,0,0,.935-1.452,10.185,10.185,0,0,1-.534-3.957,1.03,1.03,0,0,0-.211-.691,8.76,8.76,0,0,1-2.02-7.439,4.705,4.705,0,0,1,2.013-3.3,1.179,1.179,0,0,1,1.177.055c.568.316,1.011,1.386,1.523,2.625a17.476,17.476,0,0,0,2.817,5c1.7,1.969,3.182,6.335,4.4,12.977.242,1.266.4,2.488.56,3.669a39.445,39.445,0,0,0,.763,4.47A5.522,5.522,0,0,0,514.232,371l.2.078-5.652,16.671L505,386.47a4.608,4.608,0,0,0-1.591-.278,4.549,4.549,0,0,0-1.607.29,8.1,8.1,0,0,0-.829.377,6.975,6.975,0,0,1-3.429.9,14.219,14.219,0,0,1-4.488-.884,1.028,1.028,0,1,0-.66,1.947,16.089,16.089,0,0,0,5.106.991,8.9,8.9,0,0,0,4.068-1c.326-.148.634-.288.943-.4a2.565,2.565,0,0,1,.9-.162,2.475,2.475,0,0,1,.822.132.5.5,0,0,0,.049.019l.021.007,3.811,1.292-.711,2.1a1.027,1.027,0,0,0,.643,1.3l11.169,3.786a1.026,1.026,0,0,0,1.3-.643l8-23.587A1.029,1.029,0,0,0,527.882,371.351Zm-8.97,23.257-9.222-3.126,7.336-21.64,9.221,3.126Z" transform="translate(-457.345 -325.068)" fill="#863399" stroke="#863399" stroke-width="1.6"/>
      <path id="Path_5577" data-name="Path 5577" d="M639.414,682.553a1.417,1.417,0,1,0-.887-1.8A1.416,1.416,0,0,0,639.414,682.553Z" transform="translate(-581.792 -616.536)" fill="#863399" stroke="#863399" stroke-width="1.6"/>
      <path id="Path_5578" data-name="Path 5578" d="M314.155,282.633a1.029,1.029,0,0,0,1.028-1.028V268.392A2.816,2.816,0,0,1,318,265.579H342.32a2.816,2.816,0,0,1,2.812,2.813v3.421a1.028,1.028,0,0,0,2.056,0v-3.421a4.874,4.874,0,0,0-4.868-4.868H318a4.874,4.874,0,0,0-4.869,4.868v13.214A1.029,1.029,0,0,0,314.155,282.633Z" transform="translate(-305.906 -263.523)" fill="#863399" stroke="#863399" stroke-width="1.6"/>
      <path id="Path_5579" data-name="Path 5579" d="M347.188,494.172v-23.21a1.028,1.028,0,0,0-2.056,0v23.21a2.815,2.815,0,0,1-2.812,2.812H318a2.816,2.816,0,0,1-2.813-2.812,1.028,1.028,0,1,0-2.056,0A4.874,4.874,0,0,0,318,499.04H342.32A4.874,4.874,0,0,0,347.188,494.172Z" transform="translate(-305.906 -438.567)" fill="#863399" stroke="#863399" stroke-width="1.6"/>
      <path id="Path_5580" data-name="Path 5580" d="M327.286,586.835c0-.008,0-.017.006-.026a.349.349,0,0,0-.038.116c.007-.017.014-.034.02-.051Z" transform="translate(-317.887 -537.681)" fill="#863399" stroke="#863399" stroke-width="1.6"/>
      <path id="Path_5581" data-name="Path 5581" d="M273.1,435.382h.081a4.589,4.589,0,0,0,3.937-6.813l-.119-.216.225-.1a4.592,4.592,0,0,0,1.237-.824l.1-.091.014,0a4.575,4.575,0,0,0-.511-6.969l-.237-.173.226-.187a4.573,4.573,0,0,0-.638-7.479l-.275-.158.238-.21a4.573,4.573,0,0,0-1.561-7.76l-1.831-.579-.049-.015-.253-.08a4.661,4.661,0,0,0-.554-.106l-.1-.013-.07-.007c-.146-.014-.294-.021-.44-.021a4.576,4.576,0,0,0-4.338,3.106,1.036,1.036,0,0,0-.042.18l-.007.03a4.563,4.563,0,0,0,.378,3.475l.119.218-.227.1a4.6,4.6,0,0,0-1.29.847l-.1.092-.014,0a4.575,4.575,0,0,0,.512,6.968l.237.173-.226.187a4.573,4.573,0,0,0,.638,7.479l.275.158-.238.21a4.573,4.573,0,0,0,1.561,7.76l1.831.578a4.568,4.568,0,0,0,1.46.243Zm-2.987-27.954a2.532,2.532,0,0,1,2.635-1.777l.056,0,.048.007.021,0a2.5,2.5,0,0,1,.446.105l1.831.579a2.52,2.52,0,1,1-1.614,4.775l-.143-.048-1.688-.53c-.082-.028-.159-.049-.237-.071l-.038-.014A2.553,2.553,0,0,1,270.109,407.428Zm-2.36,6.855.021-.053a1.039,1.039,0,0,0,.071-.16,2.475,2.475,0,0,1,3.076-1.59c.112.04,3.54,1.176,5.339,1.771l.034.014a2.519,2.519,0,0,1-1.172,4.75,2.511,2.511,0,0,1-.807-.134l-.142-.048-4.748-1.568c-.087-.029-.167-.052-.244-.072l-.038-.014A2.519,2.519,0,0,1,267.749,414.283Zm.3,7.377a2.52,2.52,0,0,1,3.2-1.578l.142.048,4.749,1.568c.087.029.167.053.244.073l.038.014a2.52,2.52,0,0,1,1.388,2.9l-.02.053a1.049,1.049,0,0,0-.071.16,2.483,2.483,0,0,1-2.879,1.641l-.037-.011c-.14-.052-4.017-1.325-5.5-1.811l-.035-.015A2.506,2.506,0,0,1,268.052,421.66Zm4.508,11.627-.246-.073c-.024-.006-.047-.013-.071-.021l-1.83-.579a2.52,2.52,0,1,1,1.614-4.776c.653.21,1.728.553,1.817.575a2.488,2.488,0,0,1,1.61,3.149.381.381,0,0,1-.014.053,2.519,2.519,0,0,1-2.191,1.7l-.024,0c-.052,0-.1,0-.157,0h-.017a2.584,2.584,0,0,1-.486-.055Z" transform="translate(-265.613 -382.299)" fill="#863399" stroke="#863399" stroke-width="1.6"/>
      <path id="Path_5582" data-name="Path 5582" d="M328.745,587.715v.022l.009-.023h-.009Z" transform="translate(-319.151 -538.449)" fill="#863399" stroke="#863399" stroke-width="1.6"/>
      <path id="Path_5583" data-name="Path 5583" d="M328.9,587.4v0Z" transform="translate(-319.281 -538.179)" fill="#863399" stroke="#863399" stroke-width="1.6"/>
      <path id="Path_5584" data-name="Path 5584" d="M328.742,587.445h0a.086.086,0,0,0,.016-.022c0-.008,0-.016.006-.025v0A.123.123,0,0,0,328.742,587.445Z" transform="translate(-319.148 -538.179)" fill="#863399" stroke="#863399" stroke-width="1.6"/>
      <path id="Path_5585" data-name="Path 5585" d="M328.262,588.071v-.206c-.026.071-.055.139-.086.206Z" transform="translate(-318.668 -538.577)" fill="#863399" stroke="#863399" stroke-width="1.6"/>
      <path id="Path_5586" data-name="Path 5586" d="M328.8,586.82h.015V586.8l.138-.137-.138.136v-.021a.132.132,0,0,1-.006.023Z" transform="translate(-319.199 -537.555)" fill="#863399" stroke="#863399" stroke-width="1.6"/>
      <path id="Path_5587" data-name="Path 5587" d="M388.177,296.937a.749.749,0,1,0-.749.749A.75.75,0,0,0,388.177,296.937Z" transform="translate(-368.28 -291.224)" fill="#863399" stroke="#863399" stroke-width="1.6"/>
      <path id="Path_5588" data-name="Path 5588" d="M418.2,297.688a.749.749,0,1,0,0-1.5h-7.291a.749.749,0,0,0,0,1.5Z" transform="translate(-388.191 -291.226)" fill="#863399" stroke="#863399" stroke-width="1.6"/>
      <path id="Path_5589" data-name="Path 5589" d="M413.01,613.24a1.852,1.852,0,1,0,1.852-1.851A1.854,1.854,0,0,0,413.01,613.24Z" transform="translate(-390.61 -558.526)" fill="#863399" stroke="#863399" stroke-width="1.6"/>
      <path id="Path_5590" data-name="Path 5590" d="M378.041,587.469a1.029,1.029,0,0,0-1.028-1.028H355.672a1.028,1.028,0,1,0,0,2.056h21.341A1.029,1.029,0,0,0,378.041,587.469Z" transform="translate(-341.114 -537.369)" fill="#863399" stroke="#863399" stroke-width="1.6"/>
      <path id="Path_5591" data-name="Path 5591" d="M366.108,324.3h-23.3a1.028,1.028,0,1,0,0,2.056h23.3a1.028,1.028,0,1,0,0-2.056Z" transform="translate(-330.209 -315.062)" fill="#863399" stroke="#863399" stroke-width="1.6"/>
    </g>
    <path id="check-2" data-name="check" d="M3.219,6.1,6.25,9.313l6.7-6.713" transform="translate(29.434 38.733)" fill="none" stroke="#7cbadb" stroke-linecap="round" stroke-linejoin="round" stroke-miterlimit="10" stroke-width="3"/>
  </g>
</svg>
