<svg width="32" height="43" viewBox="0 0 32 43" fill="none" xmlns="http://www.w3.org/2000/svg">
<g clip-path="url(#clip0_235_151916)">
<path d="M17.7534 20.4614H16.7299V30.272H17.7534V20.4614Z" fill="#090909"/>
<path d="M19.4915 20.4614H18.4679V30.272H19.4915V20.4614Z" fill="#090909"/>
<path d="M21.131 20.4614H20.1096V30.272H21.131V20.4614Z" fill="#090909"/>
<path d="M21.7184 30.4109H22.6367V20.812L21.7184 20.6047V30.4109Z" fill="#090909"/>
<path d="M23.1956 30.7794H23.9035V21.1804L23.1956 20.9731V30.7794Z" fill="#090909"/>
<path d="M24.2827 31.0923H24.8767V21.6323L24.2827 21.2839V31.0923Z" fill="#090909"/>
<path d="M25.2054 31.4981H25.6986V22.0381L25.2054 21.6919V31.4981Z" fill="#090909"/>
<path d="M25.9639 32.0538H26.354V22.5938L25.9639 22.2476V32.0538Z" fill="#090909"/>
<path d="M16.0219 20.4614H14.9983V30.5521H16.0219V20.4614Z" fill="#090909"/>
<path d="M13.3173 30.7992H14.3386V20.5586L13.3589 20.6953L13.3173 30.7992Z" fill="#090909"/>
<path d="M11.8225 30.993H12.8439V20.7568L11.8642 20.8891L11.8225 30.993Z" fill="#090909"/>
<path d="M10.663 31.3129H11.3358V21.0657L10.6783 21.2024L10.663 31.3129Z" fill="#090909"/>
<path d="M9.65479 31.6989H10.1655V21.4583L9.67452 21.6633L9.65479 31.6989Z" fill="#090909"/>
<path d="M8.8811 32.1266L9.30631 32.0626V21.8308L8.91617 22.0756L8.8811 32.1266Z" fill="#090909"/>
<path d="M8.20825 32.045L8.55017 31.9898V22.3093L8.23236 22.6401L8.20825 32.045Z" fill="white"/>
<path d="M8.20817 22.4483C8.20817 22.4483 7.78734 22.0624 8.05255 21.692C8.05255 21.692 9.85419 19.4295 18.2882 19.6632C18.2882 19.6632 24.5041 19.6831 26.3539 21.692V22.2477L26.5731 22.1286V21.467C26.5731 21.467 25.4246 19.8463 19.3841 19.1142C17.4081 19.054 15.4304 19.1365 13.4662 19.3611C13.4662 19.3611 22.5578 17.919 26.1654 20.7746C26.1654 20.7746 24.743 18.7261 18.4723 18.5519C18.4723 18.5519 11.9101 18.2564 8.88981 20.2675C8.88981 20.2675 8.41858 20.5629 8.3857 20.757C8.37056 20.8208 8.3603 20.8857 8.35501 20.951L8.20817 22.4483Z" fill="#090909"/>
<path d="M9.86302 18.5872C9.86302 18.5872 9.51672 18.2211 9.7337 17.8749C9.7337 17.8749 11.2088 15.7492 18.1063 15.9675C18.1063 15.9675 23.189 15.9851 24.7036 17.8749V18.3953L24.8877 18.2873V17.6588C24.8877 17.6588 23.9649 16.1726 19.143 15.4735C19.0488 15.4603 18.9523 15.4537 18.8603 15.4493C17.2909 15.4028 15.7203 15.4817 14.1633 15.6852C14.1633 15.6852 21.6 14.3313 24.5501 17.0083C24.5501 17.0083 23.3863 15.081 18.2553 14.9201C18.2553 14.9201 12.8877 14.6422 10.4153 16.5364C10.4153 16.5364 10.0274 16.8143 10.0033 16.9973C9.97918 17.1803 9.97699 17.1825 9.97699 17.1825L9.86302 18.5872Z" fill="#090909"/>
<path d="M10.5205 16.6798C10.5205 16.6798 10.2049 16.4041 10.4066 16.1417C10.4066 16.1417 11.7457 14.532 18.012 14.6996C18.012 14.6996 22.6301 14.7128 24.0044 16.1417V16.5387L24.1666 16.4571V15.9808C24.1666 15.9808 23.3359 14.865 18.9852 14.3335C18.8756 14.3203 18.766 14.3137 18.6542 14.3093C17.2418 14.276 15.8287 14.3364 14.4241 14.4901C14.4241 14.4901 21.1813 13.4647 23.8597 15.4934C23.8597 15.4934 22.8033 14.038 18.1435 13.9168C18.1435 13.9168 13.2646 13.7095 11.0202 15.1362C11.0202 15.1362 10.6718 15.3435 10.6476 15.4824L10.6235 15.6213L10.5205 16.6798Z" fill="#090909"/>
<path d="M18.1347 18.329H18.6542V16.6509C18.6542 16.5924 18.6311 16.5364 18.59 16.495C18.5489 16.4536 18.4931 16.4304 18.435 16.4304H18.3386C18.2804 16.4304 18.2247 16.4536 18.1836 16.495C18.1425 16.5364 18.1194 16.5924 18.1194 16.6509V18.329H18.1347Z" fill="#090909"/>
<path d="M19.5068 18.3909H20.0285V16.6973C20.0285 16.6388 20.0054 16.5827 19.9643 16.5414C19.9232 16.5 19.8674 16.4768 19.8093 16.4768H19.726C19.6679 16.4768 19.6121 16.5 19.571 16.5414C19.5299 16.5827 19.5068 16.6388 19.5068 16.6973V18.3909Z" fill="#090909"/>
<path d="M20.754 18.5341L21.223 18.587V16.8626C21.223 16.8041 21.1999 16.748 21.1588 16.7067C21.1177 16.6653 21.062 16.6421 21.0038 16.6421H20.9556C20.8975 16.6421 20.8418 16.6653 20.8006 16.7067C20.7595 16.748 20.7365 16.8041 20.7365 16.8626L20.754 18.5341Z" fill="#090909"/>
<path d="M16.857 18.3534H17.3261V16.6819C17.3261 16.6235 17.303 16.5674 17.2619 16.526C17.2208 16.4847 17.165 16.4614 17.1069 16.4614H17.0587C17.0005 16.4614 16.9448 16.4847 16.9037 16.526C16.8626 16.5674 16.8395 16.6235 16.8395 16.6819L16.857 18.3534Z" fill="#090909"/>
<path d="M15.441 18.4437L15.8794 18.3886V16.6575C15.8812 16.6303 15.8776 16.603 15.8689 16.5771C15.8601 16.5513 15.8464 16.5274 15.8285 16.507C15.8106 16.4865 15.7888 16.4697 15.7644 16.4577C15.7401 16.4457 15.7136 16.4387 15.6865 16.437H15.6427C15.6156 16.4387 15.5891 16.4457 15.5648 16.4577C15.5404 16.4697 15.5186 16.4865 15.5007 16.507C15.4828 16.5274 15.4691 16.5513 15.4603 16.5771C15.4516 16.603 15.448 16.6303 15.4498 16.6575V18.4437H15.441Z" fill="#090909"/>
<path d="M14.0603 18.5341L14.4987 18.4812V16.8384C14.4995 16.812 14.4952 16.7858 14.486 16.7611C14.4768 16.7364 14.4628 16.7138 14.4449 16.6945C14.427 16.6753 14.4055 16.6598 14.3816 16.6489C14.3578 16.638 14.332 16.632 14.3058 16.6311H14.2619C14.2089 16.6328 14.1586 16.6556 14.122 16.6944C14.0855 16.7332 14.0657 16.7849 14.0669 16.8384V18.5341H14.0603Z" fill="#090909"/>
<path d="M12.8109 18.7282L13.2493 18.6775V17.0369C13.2501 17.0105 13.2458 16.9842 13.2366 16.9596C13.2274 16.9349 13.2134 16.9123 13.1955 16.893C13.1776 16.8738 13.1561 16.8583 13.1322 16.8474C13.1084 16.8365 13.0826 16.8304 13.0564 16.8296H13.0082C12.982 16.8304 12.9562 16.8365 12.9323 16.8474C12.9085 16.8583 12.8869 16.8738 12.869 16.893C12.8511 16.9123 12.8371 16.9349 12.8279 16.9596C12.8187 16.9842 12.8144 17.0105 12.8153 17.0369L12.8109 18.7282Z" fill="#090909"/>
<path d="M11.8926 18.909L12.2367 18.8494L12.1819 17.3698C12.1837 17.3243 12.1677 17.2799 12.1374 17.2461C12.1071 17.2123 12.0648 17.1918 12.0197 17.189H11.9846C11.9394 17.1961 11.8987 17.2204 11.8709 17.257C11.8432 17.2936 11.8305 17.3395 11.8356 17.3852L11.8926 18.909Z" fill="#090909"/>
<path d="M11.0773 19.1384L11.4214 19.0788L11.3666 17.6234C11.3684 17.578 11.3524 17.5336 11.3221 17.4998C11.2918 17.466 11.2495 17.4455 11.2044 17.4426H11.1781C11.1337 17.4492 11.0935 17.4729 11.0661 17.5087C11.0387 17.5445 11.0262 17.5896 11.0312 17.6345L11.0773 19.1384Z" fill="#090909"/>
<path d="M21.8827 18.7438L22.3035 18.7945V17.0723C22.313 17.0394 22.3148 17.0048 22.3087 16.9711C22.3026 16.9374 22.2888 16.9056 22.2684 16.8782C22.248 16.8509 22.2215 16.8286 22.1911 16.8133C22.1607 16.798 22.1271 16.79 22.0931 16.79C22.0591 16.79 22.0255 16.798 21.9951 16.8133C21.9646 16.8286 21.9382 16.8509 21.9177 16.8782C21.8973 16.9056 21.8835 16.9374 21.8774 16.9711C21.8714 17.0048 21.8731 17.0394 21.8827 17.0723V18.7438Z" fill="#090909"/>
<path d="M22.8164 18.8915L23.1408 19.0061V17.4052C23.1447 17.3815 23.1434 17.3573 23.137 17.3341C23.1307 17.311 23.1194 17.2896 23.1039 17.2713C23.0885 17.253 23.0693 17.2383 23.0477 17.2282C23.026 17.2181 23.0024 17.2129 22.9786 17.2129C22.9547 17.2129 22.9312 17.2181 22.9095 17.2282C22.8879 17.2383 22.8687 17.253 22.8532 17.2713C22.8378 17.2896 22.8265 17.311 22.8202 17.3341C22.8138 17.3573 22.8125 17.3815 22.8164 17.4052V18.8915Z" fill="#090909"/>
<path d="M23.6339 19.156L23.9583 19.2663V17.7381C23.9583 17.6949 23.9412 17.6533 23.9108 17.6227C23.8804 17.5921 23.8391 17.575 23.7961 17.575C23.7531 17.575 23.7118 17.5921 23.6814 17.6227C23.651 17.6533 23.6339 17.6949 23.6339 17.7381V19.156Z" fill="#090909"/>
<path d="M24.1622 19.3568L24.4165 19.4626V18.0028C24.4165 17.9102 24.3595 17.8286 24.2894 17.8286C24.2192 17.8286 24.1622 17.9058 24.1622 18.0028V19.3568Z" fill="#090909"/>
<path d="M10.4 19.3787L10.6498 19.2905L10.5863 17.8329C10.5863 17.7381 10.5271 17.6587 10.4592 17.6587C10.3912 17.6587 10.332 17.7359 10.332 17.8329L10.4 19.3787Z" fill="#090909"/>
<path d="M23.292 15.1163C22.9501 10.3444 16.6838 8.57144 13.3216 11.4998C12.7561 11.9655 12.2899 12.5413 11.9509 13.1927C11.6119 13.844 11.4072 14.5576 11.349 15.2905H11.314C11.3201 14.5331 11.486 13.7856 11.8008 13.0975C12.1155 12.4095 12.5719 11.7965 13.1397 11.2992C15.3907 9.25062 19.1145 9.22196 21.4378 11.1669C22.5753 12.0952 23.4323 13.6895 23.292 15.1163Z" fill="#090909"/>
<path d="M15.0049 10.4303C13.4553 11.136 12.9578 12.889 12.4778 14.3841C12.4162 14.6083 12.343 14.8291 12.2586 15.0457H12.2235C12.2057 14.3211 12.336 13.6007 12.6064 12.9289C12.8767 12.2571 13.2813 11.6484 13.795 11.1404C14.1352 10.8017 14.5474 10.5454 15.0005 10.3906C15.0029 10.4037 15.0044 10.417 15.0049 10.4303V10.4303Z" fill="#090909"/>
<path d="M15.3425 10.2428C13.9178 11.0168 13.7797 12.8206 13.4751 14.2518C13.4404 14.475 13.3921 14.696 13.3304 14.9133H13.2954C13.1922 14.2335 13.2242 13.5398 13.3893 12.8725C13.5545 12.2052 13.8496 11.5774 14.2575 11.0256C14.5277 10.6556 14.8962 10.3698 15.3206 10.2009C15.3293 10.2141 15.3367 10.2281 15.3425 10.2428V10.2428Z" fill="#090909"/>
<path d="M15.8137 9.96495C14.6126 10.9749 14.6082 12.6993 14.3189 14.1304C14.2816 14.3509 14.2422 14.5604 14.1852 14.7787H14.1501C13.9178 13.4557 14.2597 12.0775 14.9019 10.9109C15.1167 10.5163 15.4255 10.1814 15.8005 9.93628L15.8137 9.96495Z" fill="#090909"/>
<path d="M16.3704 9.93422C16.0707 10.1579 15.8676 10.4885 15.8027 10.8582C15.5178 11.9762 15.8509 13.1096 15.7413 14.2474H15.7063C15.2783 13.1421 15.255 11.9197 15.6405 10.7986C15.7852 10.4414 15.989 10.0599 16.3638 9.89673L16.3704 9.93422Z" fill="#090909"/>
<path d="M16.8767 10.2253C16.9074 10.8869 16.9249 11.5484 16.9337 12.1945C16.9753 12.5451 16.9337 13.9939 16.7145 14.1549C16.5712 13.5082 16.5511 12.84 16.6553 12.1857C16.7079 11.5242 16.7671 10.8781 16.8394 10.2231L16.8767 10.2253Z" fill="#090909"/>
<path d="M17.7995 10.6531C17.8652 11.2286 17.9156 11.8064 17.9639 12.3819C18.061 12.9584 18.0356 13.5492 17.8893 14.1151H17.8543C17.6789 13.557 17.6221 12.968 17.6877 12.3863C17.7052 11.8086 17.7293 11.2286 17.7644 10.6531H17.7995Z" fill="#090909"/>
<path d="M22.5293 13.469C22.6323 13.8703 22.9019 14.4282 22.6937 14.8031C22.5885 14.609 22.5359 13.8703 22.5293 13.469Z" fill="#090909"/>
<path d="M21.6 12.8384C21.7071 13.2648 21.7804 13.6991 21.8192 14.1372C21.8039 14.2475 21.8192 14.5165 21.725 14.5782C21.6885 14.437 21.6621 14.2933 21.6461 14.1482C21.6285 13.8549 21.6088 13.1427 21.5869 12.845C21.5825 12.8406 21.6 12.8384 21.6 12.8384Z" fill="#090909"/>
<path d="M20.7649 12.3489C20.8306 12.9773 21.0959 13.7954 20.8087 14.3688C20.7517 13.6971 20.7371 13.0224 20.7649 12.3489V12.3489Z" fill="#090909"/>
<path d="M19.9146 11.8616C20.0636 12.6025 20.2499 13.5022 19.9365 14.1968C19.8904 13.425 19.9847 12.6091 19.9146 11.8616Z" fill="#090909"/>
<path d="M18.8493 11.3345C18.8887 12.243 19.1671 13.3897 18.8186 14.221C18.8186 13.7381 18.7923 13.2618 18.8186 12.7788V11.3301L18.8493 11.3345Z" fill="#090909"/>
<path d="M19.601 12.0776H19.1912V12.8318H19.601V12.0776Z" fill="#090909"/>
<path d="M18.5666 11.9519H18.1545V12.7061H18.5666V11.9519Z" fill="#090909"/>
<path d="M17.5057 11.9343H17.0958V12.6885H17.5079L17.5057 11.9343Z" fill="#090909"/>
<path d="M16.4187 12.0115V12.1945H16.1031V12.7259H15.9167V12.0115H16.4187Z" fill="#090909"/>
<path d="M15.1956 12.3267V12.5119H14.9326V13.0433H14.777V12.3267H15.1956Z" fill="#090909"/>
<path d="M20.1227 12.199V12.3798H20.3835V12.9112H20.5369V12.199H20.1227Z" fill="#090909"/>
<path d="M21.0586 12.4722V12.653H21.3194V13.1888H21.4794V12.4722H21.0586Z" fill="#090909"/>
<path d="M13.7906 13.0279H13.9901L14.1216 12.395H13.9572L13.7906 13.0279Z" fill="#090909"/>
<path d="M15.1233 9.95191V9.70273C15.1233 9.70273 17.5627 8.41053 19.5069 9.70273L19.5551 9.96073C19.4908 9.87889 19.4172 9.80488 19.3359 9.74022C19.0269 9.48663 18.2225 9.27053 16.9929 9.32345C16.4027 9.38622 15.8279 9.55188 15.2942 9.81299L15.1233 9.95191Z" fill="#090909"/>
<path d="M15.2964 9.57916V9.31675C15.2964 9.31675 17.4224 8.02014 19.3139 9.31675L19.3599 9.57916C19.2995 9.49966 19.232 9.42586 19.1583 9.35865C18.8734 9.09624 18.1347 8.87573 17.0038 8.91762C16.4569 8.98345 15.9277 9.15492 15.4454 9.4226L15.2964 9.57916Z" fill="#090909"/>
<path d="M17.782 6.61548C17.8029 6.61548 17.8236 6.61965 17.8429 6.62777C17.8621 6.63589 17.8796 6.64778 17.8943 6.66276C17.909 6.67773 17.9206 6.6955 17.9284 6.71502C17.9362 6.73454 17.94 6.75542 17.9398 6.77645V8.63758H17.6219V6.77645C17.6225 6.73394 17.6396 6.69332 17.6694 6.66326C17.6993 6.63319 17.7397 6.61605 17.782 6.61548V6.61548Z" fill="#090909"/>
<path d="M17.2406 6.61548C17.2615 6.61548 17.2822 6.61965 17.3015 6.62777C17.3208 6.63589 17.3383 6.64778 17.353 6.66276C17.3676 6.67773 17.3792 6.6955 17.387 6.71502C17.3948 6.73454 17.3987 6.75542 17.3984 6.77645V8.60009H17.0806V6.78748C17.0791 6.76543 17.0821 6.74331 17.0895 6.72249C17.0968 6.70166 17.1084 6.68259 17.1234 6.66646C17.1384 6.65032 17.1565 6.63747 17.1767 6.6287C17.1969 6.61993 17.2186 6.61543 17.2406 6.61548V6.61548Z" fill="#090909"/>
<path d="M16.6422 6.66846C16.6846 6.66846 16.7253 6.68542 16.7553 6.7156C16.7853 6.74579 16.8022 6.78674 16.8022 6.82943V8.64205H16.4844V6.83605C16.4835 6.81454 16.4869 6.79308 16.4944 6.77292C16.5019 6.75277 16.5134 6.73433 16.5281 6.71871C16.5428 6.70308 16.5605 6.69058 16.5801 6.68195C16.5997 6.67332 16.6208 6.66873 16.6422 6.66846V6.66846Z" fill="#090909"/>
<path d="M16.2828 6.94629H16.1008V8.80521H16.2828V6.94629Z" fill="#090909"/>
<path d="M18.3277 6.83594H18.1436V8.72353H18.3277V6.83594Z" fill="#090909"/>
<path d="M15.9737 7.01234C15.9737 7.01234 15.6318 6.82491 15.8992 6.32214C16.1666 5.81937 18.2334 5.40701 18.6784 6.54265C18.7022 6.588 18.7153 6.63824 18.7167 6.6895C18.7182 6.74076 18.708 6.79168 18.6868 6.83832C18.6656 6.88497 18.6341 6.92611 18.5946 6.95857C18.5552 6.99104 18.5088 7.01396 18.4592 7.02557C18.4592 7.02557 18.5008 6.37506 17.2471 6.31332C17.2406 6.30009 16.2192 6.25819 15.9737 7.01234Z" fill="#090909"/>
<path d="M18.3386 5.82378L18.0099 5.75983C17.539 5.6639 17.0538 5.6639 16.583 5.75983L16.1929 5.83701C16.2874 5.63073 16.4387 5.45601 16.6288 5.33355C16.8189 5.21108 17.04 5.146 17.2657 5.146C17.4915 5.146 17.7126 5.21108 17.9027 5.33355C18.0928 5.45601 18.2441 5.63073 18.3386 5.83701V5.82378Z" fill="#090909"/>
<path d="M17.6877 4.70367C17.6885 4.78899 17.6624 4.87237 17.6132 4.94183C17.6172 4.88296 17.6042 4.82419 17.5758 4.77255C17.5474 4.72092 17.5049 4.67863 17.4532 4.65075C17.4878 4.71313 17.5083 4.78244 17.5133 4.85373C17.5182 4.92501 17.5074 4.99651 17.4817 5.06311C17.4166 5.10605 17.3403 5.12833 17.2625 5.12706C17.1787 5.12706 17.0969 5.10204 17.0272 5.05518C16.9576 5.00831 16.9034 4.94172 16.8715 4.86382C16.8395 4.78593 16.8313 4.70024 16.8478 4.61763C16.8643 4.53501 16.9048 4.45918 16.9642 4.39975C17.0235 4.34032 17.0991 4.29996 17.1813 4.28379C17.2635 4.26762 17.3486 4.27636 17.4259 4.30891C17.5031 4.34146 17.5691 4.39635 17.6153 4.46663C17.6615 4.53691 17.6859 4.61941 17.6855 4.70367H17.6877Z" fill="#090909"/>
<path d="M17.4597 3.5769H17.0806V4.45896H17.4597V3.5769Z" fill="#090909"/>
<path d="M16.9073 3.62521H17.6876L17.5583 2.677H17.0805L16.9073 3.62521Z" fill="#090909"/>
<path d="M17.5168 2.42578H17.188V2.75655H17.5168V2.42578Z" fill="#090909"/>
<path d="M17.3545 2.48747H17.0542L17.2011 2.22285L17.3545 1.96265L17.5013 2.22285L17.6547 2.48747H17.3545Z" fill="#090909"/>
<path d="M9.83668 19.4251C9.83668 19.4251 3.12326 25.0196 21.212 27.1784C21.212 27.1784 26.6915 30.0671 51.8422 30.7066V41.2361C51.8422 41.2361 -2.59291 37.43 2.16545 23.9964C3.01148 21.6038 4.26079 20.5961 5.97476 19.7361C7.06189 19.1848 8.24107 19.0481 9.83668 19.4251Z" fill="white"/>
<path d="M9.13747 20.4394C8.31117 21.542 7.33802 25.3105 21.2186 27.1783L18.8076 34.3074C18.8076 34.3074 11.7501 32.9072 7.06405 30.003C0.642131 26.0206 4.62241 19.0987 9.84542 19.4184C9.88706 19.4184 9.80158 19.4316 9.84542 19.4184L9.76651 19.5529C9.53199 19.8991 9.38295 20.113 9.13747 20.4394Z" fill="#212F64"/>
<path d="M21.714 27.3899L21.2186 29.2731C21.2186 29.2731 30.4636 31.8773 51.8488 32.5808V30.7064C51.8488 30.7064 27.8532 29.5068 21.714 27.3899Z" fill="#BD2032"/>
<path d="M20.9162 30.0032L20.3507 31.8775C20.3507 31.8775 29.6943 34.4619 51.8422 35.1654V33.2976C51.8422 33.2976 27.2811 32.1135 20.9162 30.0032Z" fill="#BD2032"/>
<path d="M20.1885 32.561L19.6165 34.4354C19.6165 34.4354 29.3699 37.0485 51.8488 37.7431V35.8687C51.8488 35.8687 26.6455 34.6691 20.1885 32.561Z" fill="#BD2032"/>
<path d="M3.47615 21.5972C3.47615 21.5972 -2.04275 30.4309 18.6301 34.9735C18.6301 34.9735 30.606 38.1048 51.8356 39.1213V41.236C51.8356 41.236 21.4378 38.8788 12.274 34.8963C2.82081 30.7859 -0.405493 26.4462 3.47615 21.5972Z" fill="#BD2032"/>
<path d="M18.0077 32.3538L18.297 32.334L18.1282 32.581L18.2269 32.8654L17.9441 32.7794L17.7118 32.9713V32.667L17.4729 32.5038L17.7534 32.4156L17.8389 32.1245L18.0077 32.3538Z" fill="white"/>
<path d="M18.9194 30.9401L19.2153 30.9556L19.018 31.1761L19.0816 31.4672L18.812 31.3525L18.5578 31.5091L18.595 31.2114L18.3759 31.0261L18.6652 30.9556L18.777 30.6777L18.9194 30.9401Z" fill="white"/>
<path d="M18.5578 29.1078L18.8558 29.0946L18.6783 29.3437L18.7769 29.6194L18.503 29.5356L18.2684 29.7274V29.4275L18.0295 29.2577L18.3057 29.1585L18.389 28.8674L18.5578 29.1078Z" fill="white"/>
<path d="M19.726 27.9237L20.0219 27.9104L19.8465 28.1574L19.9452 28.4463L19.669 28.3603L19.4367 28.5455V28.2478L19.1978 28.0846L19.4717 27.9854L19.5572 27.6943L19.726 27.9237Z" fill="white"/>
<path d="M15.8706 31.8356L16.1665 31.8223L16 32.0627L16.0986 32.3472L15.8246 32.2612L15.5923 32.453V32.1487L15.3512 31.9855L15.6274 31.8863L15.7106 31.5952L15.8706 31.8356Z" fill="white"/>
<path d="M16.7869 30.4309L17.0762 30.4463L16.8789 30.6668L16.9425 30.9579L16.6751 30.8432L16.4274 31.0064L16.4625 30.7021L16.2433 30.5169L16.5326 30.4463L16.6532 30.1685L16.7869 30.4309Z" fill="white"/>
<path d="M16.4384 28.5829L16.7277 28.5697L16.5589 28.8188L16.651 29.0945L16.3748 29.0107L16.1425 29.2025V28.9026L15.9014 28.7328L16.1841 28.6336L16.2696 28.3425L16.4384 28.5829Z" fill="white"/>
<path d="M17.5978 27.4054L17.8893 27.3899L17.7183 27.6391L17.8104 27.9236L17.5364 27.8376L17.3019 28.0228V27.7251L17.063 27.5619L17.3457 27.4627L17.429 27.1716L17.5978 27.4054Z" fill="white"/>
<path d="M13.5408 31.3129L13.8301 31.2908L13.6547 31.54L13.7534 31.8245L13.4772 31.7385L13.2449 31.9303V31.626L13.0038 31.4628L13.2865 31.3636L13.3654 31.0725L13.5408 31.3129Z" fill="white"/>
<path d="M14.4504 29.9038L14.7397 29.9192L14.5425 30.1397L14.606 30.4308L14.3386 30.3161L14.091 30.4727L14.126 30.175L13.9069 29.9898L14.1896 29.9192L14.3101 29.6414L14.4504 29.9038Z" fill="white"/>
<path d="M14.0909 28.0648L14.3803 28.0516L14.2115 28.3008L14.3035 28.5764L14.0274 28.4926L13.7951 28.6823V28.378L13.554 28.2148L13.8367 28.1155L13.9222 27.8245L14.0909 28.0648Z" fill="white"/>
<path d="M15.2636 26.8873L15.5529 26.8719L15.3819 27.1211L15.474 27.4055L15.2 27.3195L14.9655 27.5047V27.2071L14.7266 27.0439L15.0093 26.9446L15.0926 26.6536L15.2636 26.8873Z" fill="white"/>
<path d="M11.5441 30.7064L11.8334 30.6932L11.6646 30.9402L11.7567 31.218L11.4805 31.132L11.2482 31.3239V31.0196L11.0071 30.8564L11.2898 30.7571L11.3753 30.4661L11.5441 30.7064Z" fill="white"/>
<path d="M12.4537 29.2929L12.7496 29.3084L12.5458 29.5289L12.6093 29.82L12.3485 29.7053L12.0943 29.8685L12.1293 29.5708L11.9102 29.3789L12.1995 29.3084L12.3134 29.0305L12.4537 29.2929Z" fill="white"/>
<path d="M12.0942 27.454L12.3901 27.4408L12.2148 27.6899L12.3134 27.9656L12.0307 27.8818L11.7984 28.0736V27.7737L11.5594 27.6105L11.8334 27.5047L11.9189 27.2136L12.0942 27.454Z" fill="white"/>
<path d="M13.2668 26.2831L13.5562 26.261L13.3852 26.5102L13.4838 26.7947L13.2033 26.7087L12.9688 26.8939V26.5962L12.7277 26.433L13.0038 26.3338L13.0871 26.0427L13.2668 26.2831Z" fill="white"/>
<path d="M9.45536 29.8487L9.75124 29.8333L9.5759 30.0825L9.67454 30.3669L9.39179 30.2809L9.17262 30.4662V30.1663L8.93152 30.0031L9.20769 29.9039L9.29097 29.6128L9.45536 29.8487Z" fill="white"/>
<path d="M10.3716 28.4462L10.6609 28.4661L10.4636 28.6866L10.5272 28.9777L10.2598 28.8586L10.0055 29.0218L10.0406 28.7241L9.82141 28.5323L10.1107 28.4683L10.2247 28.1838L10.3716 28.4462Z" fill="white"/>
<path d="M10.0121 26.6027L10.3014 26.5806L10.1261 26.8298L10.2247 27.1143L9.94852 27.0283L9.71619 27.2135V26.9158L9.4751 26.7526L9.75783 26.6534L9.84332 26.3623L10.0121 26.6027Z" fill="white"/>
<path d="M11.1781 25.4252L11.4674 25.4097L11.2899 25.6589L11.3885 25.9346L11.1145 25.8508L10.88 26.0426V25.7427L10.6411 25.5729L10.9151 25.4737L11.0006 25.1826L11.1781 25.4252Z" fill="white"/>
<path d="M7.33801 28.3844L7.62732 28.3712L7.45856 28.6181L7.54842 28.896L7.27445 28.81L7.04212 29.0018V28.6975L6.80103 28.5343L7.08377 28.4351L7.16924 28.144L7.33801 28.3844Z" fill="white"/>
<path d="M8.24767 26.9711L8.53699 26.9931L8.33972 27.2136L8.40328 27.5047L8.14246 27.3901L7.89041 27.5643L7.92548 27.2644L7.7063 27.0725L7.99562 27.002L8.10959 26.7263L8.24767 26.9711Z" fill="white"/>
<path d="M7.89039 25.1385L8.18628 25.1253L8.01093 25.3745L8.10956 25.6589L7.82682 25.5663L7.59449 25.7582V25.4583L7.35559 25.2951L7.62956 25.1959L7.71505 24.9048L7.89039 25.1385Z" fill="white"/>
<path d="M9.06078 23.9611L9.3501 23.9412L9.17914 24.1882L9.27777 24.4727L8.99722 24.3866L8.7627 24.5785V24.2742L8.52161 24.111L8.79777 24.0118L8.88106 23.7207L9.06078 23.9611Z" fill="white"/>
<path d="M5.68543 26.1705L5.98351 26.1551L5.80598 26.4043L5.90461 26.6887L5.62187 26.6027L5.38954 26.788V26.4903L5.15063 26.3249L5.42461 26.2256L5.51009 25.9346L5.68543 26.1705Z" fill="white"/>
<path d="M6.60385 24.757L6.89316 24.7791L6.6959 24.9996L6.75946 25.2907L6.48988 25.1694L6.23782 25.3326L6.27289 25.0349L6.05371 24.843L6.34303 24.7791L6.45481 24.4946L6.60385 24.757Z" fill="white"/>
<path d="M6.24439 22.9335L6.5337 22.9114L6.35617 23.154L6.4548 23.4385L6.18082 23.3525L5.9463 23.5377V23.24L5.7074 23.0768L5.98356 22.9776L6.06685 22.6865L6.24439 22.9335Z" fill="white"/>
<path d="M7.40822 21.747L7.70411 21.7315L7.52877 21.9807L7.6274 22.2563L7.35124 22.1725L7.11891 22.3644V22.0667L6.88 21.8947L7.15398 21.7955L7.23946 21.5044L7.40822 21.747Z" fill="white"/>
</g>
<defs>
<clipPath id="clip0_235_151916">
<rect width="32" height="43" fill="white"/>
</clipPath>
</defs>
</svg>
