<svg width="61" height="60" viewBox="0 0 61 60" fill="none" xmlns="http://www.w3.org/2000/svg">
<path d="M60.5 30C60.5 46.5685 47.0685 60 30.5 60C13.9315 60 0.5 46.5685 0.5 30C0.5 13.4315 13.9315 0 30.5 0C47.0685 0 60.5 13.4315 60.5 30ZM3.5 30C3.5 44.9117 15.5883 57 30.5 57C45.4117 57 57.5 44.9117 57.5 30C57.5 15.0883 45.4117 3 30.5 3C15.5883 3 3.5 15.0883 3.5 30Z" fill="#E2E2E2"/>
<circle cx="30.5" cy="30" r="24" fill="#EAEAEA"/>
<path fill-rule="evenodd" clip-rule="evenodd" d="M22.667 26.9998C22.667 26.2635 23.2639 25.6665 24.0003 25.6665H37.0003C37.7367 25.6665 38.3337 26.2635 38.3337 26.9998C38.3337 27.7362 37.7367 28.3332 37.0003 28.3332H24.0003C23.2639 28.3332 22.667 27.7362 22.667 26.9998Z" fill="#A5A3A3"/>
<path fill-rule="evenodd" clip-rule="evenodd" d="M22.667 30.9998C22.667 30.2635 23.2639 29.6665 24.0003 29.6665H37.0003C37.7367 29.6665 38.3337 30.2635 38.3337 30.9998C38.3337 31.7362 37.7367 32.3332 37.0003 32.3332H24.0003C23.2639 32.3332 22.667 31.7362 22.667 30.9998Z" fill="#A5A3A3"/>
<path fill-rule="evenodd" clip-rule="evenodd" d="M19.8337 21.3332V37.8425L21.904 36.8073C22.2794 36.6196 22.7212 36.6196 23.0966 36.8073L26.5003 38.5091L29.904 36.8073C30.2794 36.6196 30.7212 36.6196 31.0966 36.8073L34.5003 38.5091L37.904 36.8073C38.2794 36.6196 38.7212 36.6196 39.0966 36.8073L41.167 37.8425V21.3332H19.8337ZM17.8504 19.3499C18.288 18.9123 18.8815 18.6665 19.5003 18.6665H41.5003C42.1192 18.6665 42.7127 18.9123 43.1502 19.3499C43.5878 19.7875 43.8337 20.381 43.8337 20.9998V39.9998C43.8337 40.4619 43.5944 40.8911 43.2013 41.134C42.8082 41.377 42.3174 41.3991 41.904 41.1924L38.5003 39.4906L35.0966 41.1924C34.7212 41.3801 34.2794 41.3801 33.904 41.1924L30.5003 39.4906L27.0966 41.1924C26.7212 41.3801 26.2794 41.3801 25.904 41.1924L22.5003 39.4906L19.0966 41.1924C18.6833 41.3991 18.1924 41.377 17.7994 41.134C17.4063 40.8911 17.167 40.4619 17.167 39.9998V20.9998C17.167 20.381 17.4128 19.7875 17.8504 19.3499Z" fill="#A5A3A3"/>
</svg>
