<svg width="60" height="60" viewBox="0 0 60 60" fill="none" xmlns="http://www.w3.org/2000/svg">
<path d="M60 30C60 46.5685 46.5685 60 30 60C13.4315 60 0 46.5685 0 30C0 13.4315 13.4315 0 30 0C46.5685 0 60 13.4315 60 30ZM3 30C3 44.9117 15.0883 57 30 57C44.9117 57 57 44.9117 57 30C57 15.0883 44.9117 3 30 3C15.0883 3 3 15.0883 3 30Z" fill="#E2E2E2"/>
<circle cx="30" cy="30" r="24" fill="#EAEAEA"/>
<path fill-rule="evenodd" clip-rule="evenodd" d="M24.667 32.9998C24.667 32.2635 25.2639 31.6665 26.0003 31.6665H34.0003C34.7367 31.6665 35.3337 32.2635 35.3337 32.9998C35.3337 33.7362 34.7367 34.3332 34.0003 34.3332H26.0003C25.2639 34.3332 24.667 33.7362 24.667 32.9998Z" fill="#A5A3A3"/>
<path fill-rule="evenodd" clip-rule="evenodd" d="M24.667 28.9998C24.667 28.2635 25.2639 27.6665 26.0003 27.6665H34.0003C34.7367 27.6665 35.3337 28.2635 35.3337 28.9998C35.3337 29.7362 34.7367 30.3332 34.0003 30.3332H26.0003C25.2639 30.3332 24.667 29.7362 24.667 28.9998Z" fill="#A5A3A3"/>
<path fill-rule="evenodd" clip-rule="evenodd" d="M21.3337 20.3332H26.0003C26.7367 20.3332 27.3337 19.7362 27.3337 18.9998C27.3337 18.2635 26.7367 17.6665 26.0003 17.6665H21.0003C20.3815 17.6665 19.788 17.9123 19.3504 18.3499C18.9128 18.7875 18.667 19.381 18.667 19.9998V40.9998C18.667 41.6187 18.9128 42.2122 19.3504 42.6498C19.788 43.0873 20.3815 43.3332 21.0003 43.3332H39.0003C39.6192 43.3332 40.2127 43.0873 40.6502 42.6498C41.0878 42.2122 41.3337 41.6187 41.3337 40.9998V19.9998C41.3337 19.381 41.0878 18.7875 40.6502 18.3499C40.2127 17.9123 39.6192 17.6665 39.0003 17.6665H34.0003C33.2639 17.6665 32.667 18.2635 32.667 18.9998C32.667 19.7362 33.2639 20.3332 34.0003 20.3332H38.667V40.6665H21.3337V20.3332Z" fill="#A5A3A3"/>
<path fill-rule="evenodd" clip-rule="evenodd" d="M30.0003 18.3332C29.0279 18.3332 28.0952 18.7195 27.4076 19.4071C26.799 20.0157 26.4264 20.8163 26.3488 21.6665H33.6518C33.5742 20.8163 33.2017 20.0157 32.5931 19.4071C31.9054 18.7195 30.9728 18.3332 30.0003 18.3332ZM25.522 17.5215C26.7097 16.3338 28.3206 15.6665 30.0003 15.6665C31.68 15.6665 33.2909 16.3338 34.4787 17.5215C35.6664 18.7092 36.3337 20.3201 36.3337 21.9998V22.9998C36.3337 23.7362 35.7367 24.3332 35.0003 24.3332H25.0003C24.2639 24.3332 23.667 23.7362 23.667 22.9998V21.9998C23.667 20.3201 24.3343 18.7092 25.522 17.5215Z" fill="#A5A3A3"/>
</svg>
