<svg width="57" height="58" viewBox="0 0 57 58" fill="none" xmlns="http://www.w3.org/2000/svg">
<circle cx="28.3226" cy="29.6709" r="20" fill="#863399" fill-opacity="0.2"/>
<path d="M22.848 32.8905C23.0613 32.8905 23.2293 32.9518 23.352 33.0745C23.48 33.1918 23.544 33.3491 23.544 33.5465V34.7305H15.608V34.0745C15.608 33.9411 15.6347 33.8025 15.688 33.6585C15.7467 33.5091 15.8373 33.3758 15.96 33.2585L19.472 29.7385C19.7653 29.4398 20.0267 29.1545 20.256 28.8825C20.4907 28.6105 20.6853 28.3411 20.84 28.0745C20.9947 27.8078 21.112 27.5385 21.192 27.2665C21.2773 26.9891 21.32 26.6985 21.32 26.3945C21.32 26.1171 21.28 25.8745 21.2 25.6665C21.12 25.4531 21.0053 25.2745 20.856 25.1305C20.712 24.9865 20.536 24.8798 20.328 24.8105C20.1253 24.7358 19.896 24.6985 19.64 24.6985C19.4053 24.6985 19.1867 24.7331 18.984 24.8025C18.7867 24.8665 18.6107 24.9598 18.456 25.0825C18.3013 25.1998 18.1707 25.3385 18.064 25.4985C17.9573 25.6585 17.8773 25.8345 17.824 26.0265C17.7333 26.2718 17.616 26.4345 17.472 26.5145C17.328 26.5945 17.12 26.6131 16.848 26.5705L15.808 26.3865C15.888 25.8318 16.0427 25.3465 16.272 24.9305C16.5013 24.5091 16.7867 24.1598 17.128 23.8825C17.4747 23.5998 17.8693 23.3891 18.312 23.2505C18.76 23.1065 19.24 23.0345 19.752 23.0345C20.2853 23.0345 20.7733 23.1145 21.216 23.2745C21.6587 23.4291 22.0373 23.6505 22.352 23.9385C22.6667 24.2265 22.912 24.5731 23.088 24.9785C23.264 25.3838 23.352 25.8345 23.352 26.3305C23.352 26.7571 23.288 27.1518 23.16 27.5145C23.0373 27.8771 22.8693 28.2238 22.656 28.5545C22.448 28.8851 22.2027 29.2051 21.92 29.5145C21.6373 29.8238 21.3413 30.1385 21.032 30.4585L18.424 33.1225C18.6747 33.0478 18.9227 32.9918 19.168 32.9545C19.4187 32.9118 19.656 32.8905 19.88 32.8905H22.848ZM26.6332 34.7545C26.5426 34.9998 26.3959 35.1838 26.1933 35.3065C25.9959 35.4291 25.7933 35.4905 25.5853 35.4905H24.7453L29.4173 23.5385C29.5026 23.3145 29.6333 23.1438 29.8093 23.0265C29.9853 22.9038 30.1906 22.8425 30.4253 22.8425H31.2733L26.6332 34.7545ZM34.9824 27.3625C35.2384 27.3091 35.4837 27.2718 35.7184 27.2505C35.953 27.2238 36.1797 27.2105 36.3984 27.2105C37.0064 27.2105 37.5424 27.3011 38.0064 27.4825C38.4704 27.6638 38.8597 27.9145 39.1744 28.2345C39.489 28.5545 39.7264 28.9305 39.8864 29.3625C40.0464 29.7891 40.1264 30.2505 40.1264 30.7465C40.1264 31.3598 40.017 31.9198 39.7984 32.4265C39.585 32.9331 39.2864 33.3678 38.9024 33.7305C38.5184 34.0878 38.0624 34.3651 37.5344 34.5625C37.0117 34.7598 36.441 34.8585 35.8224 34.8585C35.4597 34.8585 35.1157 34.8211 34.7904 34.7465C34.465 34.6718 34.1584 34.5731 33.8704 34.4505C33.5877 34.3225 33.3237 34.1785 33.0784 34.0185C32.8384 33.8531 32.6224 33.6798 32.4304 33.4985L33.0384 32.6585C33.1664 32.4771 33.3344 32.3865 33.5424 32.3865C33.6757 32.3865 33.8117 32.4291 33.9504 32.5145C34.089 32.5998 34.2464 32.6931 34.4224 32.7945C34.6037 32.8958 34.8144 32.9891 35.0544 33.0745C35.2997 33.1598 35.593 33.2025 35.9344 33.2025C36.297 33.2025 36.617 33.1438 36.8944 33.0265C37.1717 32.9091 37.401 32.7465 37.5824 32.5385C37.769 32.3251 37.9077 32.0745 37.9984 31.7865C38.0944 31.4931 38.1424 31.1758 38.1424 30.8345C38.1424 30.2051 37.9584 29.7145 37.5904 29.3625C37.2277 29.0051 36.689 28.8265 35.9744 28.8265C35.425 28.8265 34.8624 28.9278 34.2864 29.1305L33.0544 28.7785L34.0144 23.1625H39.7264V24.0025C39.7264 24.2851 39.6384 24.5145 39.4624 24.6905C39.2864 24.8665 38.9877 24.9545 38.5664 24.9545H35.3904L34.9824 27.3625Z" fill="#863399"/>
<circle cx="28" cy="29.2305" r="26.5" stroke="#E5E5E5" stroke-width="3"/>
<path d="M28.548 1.20103L27.0488 1.15307L26.9528 4.15153L28.4521 4.19949L28.548 1.20103ZM44.0367 48.3502C43.4017 48.8822 43.3182 49.8283 43.8502 50.4633C44.3823 51.0983 45.3283 51.1818 45.9634 50.6498L44.0367 48.3502ZM28.4521 4.19949C52.0618 4.95476 61.4915 33.726 44.0367 48.3502L45.9634 50.6498C65.5085 34.2741 54.9382 2.04524 28.548 1.20103L28.4521 4.19949Z" fill="#863399"/>
</svg>
