<svg width="56" height="58" viewBox="0 0 56 58" fill="none" xmlns="http://www.w3.org/2000/svg">
<circle cx="28.3226" cy="29.6709" r="20" fill="#863399" fill-opacity="0.2"/>
<path d="M15.864 26.3865C15.944 25.8318 16.0987 25.3465 16.328 24.9305C16.5573 24.5091 16.8427 24.1598 17.184 23.8825C17.5307 23.5998 17.9253 23.3891 18.368 23.2505C18.816 23.1065 19.296 23.0345 19.808 23.0345C20.3413 23.0345 20.8213 23.1118 21.248 23.2665C21.68 23.4158 22.048 23.6265 22.352 23.8985C22.656 24.1651 22.888 24.4798 23.048 24.8425C23.2133 25.2051 23.296 25.5971 23.296 26.0185C23.296 26.3865 23.2533 26.7118 23.168 26.9945C23.088 27.2718 22.9707 27.5145 22.816 27.7225C22.6613 27.9305 22.4693 28.1065 22.24 28.2505C22.0107 28.3945 21.752 28.5145 21.464 28.6105C22.1573 28.8291 22.6747 29.1625 23.016 29.6105C23.3573 30.0585 23.528 30.6211 23.528 31.2985C23.528 31.8745 23.4213 32.3838 23.208 32.8265C22.9947 33.2691 22.7067 33.6425 22.344 33.9465C21.9813 34.2451 21.56 34.4718 21.08 34.6265C20.6053 34.7811 20.1013 34.8585 19.568 34.8585C18.9867 34.8585 18.48 34.7918 18.048 34.6585C17.616 34.5251 17.24 34.3278 16.92 34.0665C16.6 33.8051 16.328 33.4851 16.104 33.1065C15.88 32.7278 15.688 32.2905 15.528 31.7945L16.4 31.4345C16.6293 31.3385 16.8427 31.3145 17.04 31.3625C17.2427 31.4051 17.3893 31.5118 17.48 31.6825C17.576 31.8691 17.68 32.0531 17.792 32.2345C17.9093 32.4158 18.048 32.5785 18.208 32.7225C18.368 32.8611 18.5547 32.9758 18.768 33.0665C18.9867 33.1518 19.2453 33.1945 19.544 33.1945C19.88 33.1945 20.1733 33.1411 20.424 33.0345C20.6747 32.9225 20.8827 32.7785 21.048 32.6025C21.2187 32.4265 21.344 32.2318 21.424 32.0185C21.5093 31.7998 21.552 31.5811 21.552 31.3625C21.552 31.0851 21.5227 30.8345 21.464 30.6105C21.4053 30.3811 21.2827 30.1865 21.096 30.0265C20.9093 29.8665 20.64 29.7411 20.288 29.6505C19.9413 29.5598 19.4747 29.5145 18.888 29.5145V28.1065C19.3733 28.1011 19.776 28.0558 20.096 27.9705C20.416 27.8851 20.6693 27.7678 20.856 27.6185C21.048 27.4638 21.1813 27.2798 21.256 27.0665C21.3307 26.8531 21.368 26.6185 21.368 26.3625C21.368 25.8185 21.216 25.4051 20.912 25.1225C20.608 24.8398 20.2027 24.6985 19.696 24.6985C19.4613 24.6985 19.2453 24.7331 19.048 24.8025C18.8507 24.8665 18.672 24.9598 18.512 25.0825C18.3573 25.1998 18.2267 25.3385 18.12 25.4985C18.0133 25.6585 17.9333 25.8345 17.88 26.0265C17.7893 26.2718 17.6693 26.4345 17.52 26.5145C17.376 26.5945 17.1707 26.6131 16.904 26.5705L15.864 26.3865ZM26.6332 34.7545C26.5426 34.9998 26.3959 35.1838 26.1933 35.3065C25.9959 35.4291 25.7933 35.4905 25.5853 35.4905H24.7453L29.4173 23.5385C29.5026 23.3145 29.6333 23.1438 29.8093 23.0265C29.9853 22.9038 30.1906 22.8425 30.4253 22.8425H31.2733L26.6332 34.7545ZM34.9824 27.3625C35.2384 27.3091 35.4837 27.2718 35.7184 27.2505C35.953 27.2238 36.1797 27.2105 36.3984 27.2105C37.0064 27.2105 37.5424 27.3011 38.0064 27.4825C38.4704 27.6638 38.8597 27.9145 39.1744 28.2345C39.489 28.5545 39.7264 28.9305 39.8864 29.3625C40.0464 29.7891 40.1264 30.2505 40.1264 30.7465C40.1264 31.3598 40.017 31.9198 39.7984 32.4265C39.585 32.9331 39.2864 33.3678 38.9024 33.7305C38.5184 34.0878 38.0624 34.3651 37.5344 34.5625C37.0117 34.7598 36.441 34.8585 35.8224 34.8585C35.4597 34.8585 35.1157 34.8211 34.7904 34.7465C34.465 34.6718 34.1584 34.5731 33.8704 34.4505C33.5877 34.3225 33.3237 34.1785 33.0784 34.0185C32.8384 33.8531 32.6224 33.6798 32.4304 33.4985L33.0384 32.6585C33.1664 32.4771 33.3344 32.3865 33.5424 32.3865C33.6757 32.3865 33.8117 32.4291 33.9504 32.5145C34.089 32.5998 34.2464 32.6931 34.4224 32.7945C34.6037 32.8958 34.8144 32.9891 35.0544 33.0745C35.2997 33.1598 35.593 33.2025 35.9344 33.2025C36.297 33.2025 36.617 33.1438 36.8944 33.0265C37.1717 32.9091 37.401 32.7465 37.5824 32.5385C37.769 32.3251 37.9077 32.0745 37.9984 31.7865C38.0944 31.4931 38.1424 31.1758 38.1424 30.8345C38.1424 30.2051 37.9584 29.7145 37.5904 29.3625C37.2277 29.0051 36.689 28.8265 35.9744 28.8265C35.425 28.8265 34.8624 28.9278 34.2864 29.1305L33.0544 28.7785L34.0144 23.1625H39.7264V24.0025C39.7264 24.2851 39.6384 24.5145 39.4624 24.6905C39.2864 24.8665 38.9877 24.9545 38.5664 24.9545H35.3904L34.9824 27.3625Z" fill="#863399"/>
<circle cx="28" cy="29.2305" r="26.5" stroke="#E5E5E5" stroke-width="3"/>
<path d="M28.5894 1.233L27.0921 1.14358L26.9133 4.13825L28.4106 4.22767L28.5894 1.233ZM19.4076 52.5565C18.6104 52.3314 17.7816 52.7952 17.5565 53.5925C17.3314 54.3897 17.7952 55.2185 18.5924 55.4436L19.4076 52.5565ZM28.4106 4.22767C37.4701 4.76872 43.8642 8.78599 47.806 14.2624C51.7735 19.7746 53.3122 26.8474 52.4498 33.5242C51.5879 40.1983 48.3461 46.3554 42.9018 50.1391C37.4879 53.9017 29.6894 55.4596 19.4076 52.5565L18.5924 55.4436C29.5607 58.5406 38.3246 56.9736 44.6139 52.6026C50.8726 48.2529 54.4746 41.2681 55.4251 33.9084C56.3753 26.5514 54.6953 18.6986 50.2409 12.5099C45.7608 6.28548 38.5299 1.82666 28.5894 1.233L28.4106 4.22767Z" fill="#863399"/>
</svg>
