<svg width="56" height="58" viewBox="0 0 56 58" fill="none" xmlns="http://www.w3.org/2000/svg">
<circle cx="28.3225" cy="29.6709" r="20" fill="#863399" fill-opacity="0.2"/>
<path d="M20.696 30.3705V26.5865C20.696 26.2291 20.72 25.8345 20.768 25.4025L17.176 30.3705H20.696ZM23.872 30.3705V31.5145C23.872 31.6211 23.8373 31.7145 23.768 31.7945C23.6987 31.8691 23.6 31.9065 23.472 31.9065H22.416V34.7305H20.696V31.9065H15.816C15.6827 31.9065 15.5653 31.8665 15.464 31.7865C15.3627 31.7011 15.2987 31.5971 15.272 31.4745L15.064 30.4745L20.544 23.1545H22.416V30.3705H23.872ZM26.6332 34.7545C26.5426 34.9998 26.3959 35.1838 26.1933 35.3065C25.9959 35.4291 25.7933 35.4905 25.5853 35.4905H24.7453L29.4173 23.5385C29.5026 23.3145 29.6333 23.1438 29.8093 23.0265C29.9853 22.9038 30.1906 22.8425 30.4253 22.8425H31.2733L26.6332 34.7545ZM34.9824 27.3625C35.2384 27.3091 35.4837 27.2718 35.7184 27.2505C35.953 27.2238 36.1797 27.2105 36.3984 27.2105C37.0064 27.2105 37.5424 27.3011 38.0064 27.4825C38.4704 27.6638 38.8597 27.9145 39.1744 28.2345C39.489 28.5545 39.7264 28.9305 39.8864 29.3625C40.0464 29.7891 40.1264 30.2505 40.1264 30.7465C40.1264 31.3598 40.017 31.9198 39.7984 32.4265C39.585 32.9331 39.2864 33.3678 38.9024 33.7305C38.5184 34.0878 38.0624 34.3651 37.5344 34.5625C37.0117 34.7598 36.441 34.8585 35.8224 34.8585C35.4597 34.8585 35.1157 34.8211 34.7904 34.7465C34.465 34.6718 34.1584 34.5731 33.8704 34.4505C33.5877 34.3225 33.3237 34.1785 33.0784 34.0185C32.8384 33.8531 32.6224 33.6798 32.4304 33.4985L33.0384 32.6585C33.1664 32.4771 33.3344 32.3865 33.5424 32.3865C33.6757 32.3865 33.8117 32.4291 33.9504 32.5145C34.089 32.5998 34.2464 32.6931 34.4224 32.7945C34.6037 32.8958 34.8144 32.9891 35.0544 33.0745C35.2997 33.1598 35.593 33.2025 35.9344 33.2025C36.297 33.2025 36.617 33.1438 36.8944 33.0265C37.1717 32.9091 37.401 32.7465 37.5824 32.5385C37.769 32.3251 37.9077 32.0745 37.9984 31.7865C38.0944 31.4931 38.1424 31.1758 38.1424 30.8345C38.1424 30.2051 37.9584 29.7145 37.5904 29.3625C37.2277 29.0051 36.689 28.8265 35.9744 28.8265C35.425 28.8265 34.8624 28.9278 34.2864 29.1305L33.0544 28.7785L34.0144 23.1625H39.7264V24.0025C39.7264 24.2851 39.6384 24.5145 39.4624 24.6905C39.2864 24.8665 38.9877 24.9545 38.5664 24.9545H35.3904L34.9824 27.3625Z" fill="#863399"/>
<circle cx="28" cy="29.2305" r="26.5" stroke="#E5E5E5" stroke-width="3"/>
<path d="M29.7362 1.21893L28.2549 0.982667L27.7824 3.94522L29.2637 4.18148L29.7362 1.21893ZM27.1999 55.7L27.2919 54.2028L27.246 54.2L27.1999 54.2L27.1999 55.7ZM6.8363 15.1813C7.21256 14.4433 6.91927 13.54 6.18122 13.1637C5.44317 12.7874 4.53984 13.0807 4.16358 13.8188L6.8363 15.1813ZM29.2637 4.18148C38.819 5.70553 45.0597 9.74576 48.7112 14.7738C52.3737 19.817 53.5427 26.0062 52.6656 32.0212C50.8989 44.1376 40.9762 55.0435 27.2919 54.2028L27.108 57.1972C42.7237 58.1565 53.701 45.7126 55.6342 32.4541C56.6072 25.7817 55.3262 18.7772 51.1386 13.011C46.9401 7.22973 39.9309 2.84495 29.7362 1.21893L29.2637 4.18148ZM27.1999 54.2C21.61 54.2 13.3554 50.5276 8.08457 43.7423C2.91845 37.0918 0.598892 27.4163 6.8363 15.1813L4.16358 13.8188C-2.59895 27.0838 -0.168481 38.0082 5.7154 45.5827C11.4945 53.0224 20.5899 57.2 27.1999 57.2L27.1999 54.2Z" fill="#863399"/>
</svg>
