<svg width="56" height="58" viewBox="0 0 56 58" fill="none" xmlns="http://www.w3.org/2000/svg">
<circle cx="28.3225" cy="29.6709" r="20" fill="#863399" fill-opacity="0.2"/>
<path d="M18.248 27.3625C18.504 27.3091 18.7493 27.2718 18.984 27.2505C19.2187 27.2238 19.4453 27.2105 19.664 27.2105C20.272 27.2105 20.808 27.3011 21.272 27.4825C21.736 27.6638 22.1253 27.9145 22.44 28.2345C22.7547 28.5545 22.992 28.9305 23.152 29.3625C23.312 29.7891 23.392 30.2505 23.392 30.7465C23.392 31.3598 23.2827 31.9198 23.064 32.4265C22.8507 32.9331 22.552 33.3678 22.168 33.7305C21.784 34.0878 21.328 34.3651 20.8 34.5625C20.2773 34.7598 19.7067 34.8585 19.088 34.8585C18.7253 34.8585 18.3813 34.8211 18.056 34.7465C17.7307 34.6718 17.424 34.5731 17.136 34.4505C16.8533 34.3225 16.5893 34.1785 16.344 34.0185C16.104 33.8531 15.888 33.6798 15.696 33.4985L16.304 32.6585C16.432 32.4771 16.6 32.3865 16.808 32.3865C16.9413 32.3865 17.0773 32.4291 17.216 32.5145C17.3547 32.5998 17.512 32.6931 17.688 32.7945C17.8693 32.8958 18.08 32.9891 18.32 33.0745C18.5653 33.1598 18.8587 33.2025 19.2 33.2025C19.5627 33.2025 19.8827 33.1438 20.16 33.0265C20.4373 32.9091 20.6667 32.7465 20.848 32.5385C21.0347 32.3251 21.1733 32.0745 21.264 31.7865C21.36 31.4931 21.408 31.1758 21.408 30.8345C21.408 30.2051 21.224 29.7145 20.856 29.3625C20.4933 29.0051 19.9547 28.8265 19.24 28.8265C18.6907 28.8265 18.128 28.9278 17.552 29.1305L16.32 28.7785L17.28 23.1625H22.992V24.0025C22.992 24.2851 22.904 24.5145 22.728 24.6905C22.552 24.8665 22.2533 24.9545 21.832 24.9545H18.656L18.248 27.3625ZM26.6332 34.7545C26.5426 34.9998 26.3959 35.1838 26.1933 35.3065C25.9959 35.4291 25.7933 35.4905 25.5853 35.4905H24.7453L29.4173 23.5385C29.5026 23.3145 29.6333 23.1438 29.8093 23.0265C29.9853 22.9038 30.1906 22.8425 30.4253 22.8425H31.2733L26.6332 34.7545ZM34.9824 27.3625C35.2384 27.3091 35.4837 27.2718 35.7184 27.2505C35.953 27.2238 36.1797 27.2105 36.3984 27.2105C37.0064 27.2105 37.5424 27.3011 38.0064 27.4825C38.4704 27.6638 38.8597 27.9145 39.1744 28.2345C39.489 28.5545 39.7264 28.9305 39.8864 29.3625C40.0464 29.7891 40.1264 30.2505 40.1264 30.7465C40.1264 31.3598 40.017 31.9198 39.7984 32.4265C39.585 32.9331 39.2864 33.3678 38.9024 33.7305C38.5184 34.0878 38.0624 34.3651 37.5344 34.5625C37.0117 34.7598 36.441 34.8585 35.8224 34.8585C35.4597 34.8585 35.1157 34.8211 34.7904 34.7465C34.465 34.6718 34.1584 34.5731 33.8704 34.4505C33.5877 34.3225 33.3237 34.1785 33.0784 34.0185C32.8384 33.8531 32.6224 33.6798 32.4304 33.4985L33.0384 32.6585C33.1664 32.4771 33.3344 32.3865 33.5424 32.3865C33.6757 32.3865 33.8117 32.4291 33.9504 32.5145C34.089 32.5998 34.2464 32.6931 34.4224 32.7945C34.6037 32.8958 34.8144 32.9891 35.0544 33.0745C35.2997 33.1598 35.593 33.2025 35.9344 33.2025C36.297 33.2025 36.617 33.1438 36.8944 33.0265C37.1717 32.9091 37.401 32.7465 37.5824 32.5385C37.769 32.3251 37.9077 32.0745 37.9984 31.7865C38.0944 31.4931 38.1424 31.1758 38.1424 30.8345C38.1424 30.2051 37.9584 29.7145 37.5904 29.3625C37.2277 29.0051 36.689 28.8265 35.9744 28.8265C35.425 28.8265 34.8624 28.9278 34.2864 29.1305L33.0544 28.7785L34.0144 23.1625H39.7264V24.0025C39.7264 24.2851 39.6384 24.5145 39.4624 24.6905C39.2864 24.8665 38.9877 24.9545 38.5664 24.9545H35.3904L34.9824 27.3625Z" fill="#863399"/>
<circle cx="28" cy="29.2305" r="26.5" stroke="#863399" stroke-width="3"/>
</svg>
