<svg width="56" height="58" viewBox="0 0 56 58" fill="none" xmlns="http://www.w3.org/2000/svg">
<circle cx="28.3226" cy="29.6709" r="20" fill="#863399" fill-opacity="0.2"/>
<path d="M23.28 33.2505V34.7305H16.88V33.2505H19.224V26.5065C19.224 26.2398 19.232 25.9651 19.248 25.6825L17.584 27.0745C17.488 27.1491 17.392 27.1971 17.296 27.2185C17.2053 27.2345 17.1173 27.2345 17.032 27.2185C16.952 27.2025 16.88 27.1758 16.816 27.1385C16.752 27.0958 16.704 27.0505 16.672 27.0025L16.048 26.1465L19.576 23.1465H21.2V33.2505H23.28ZM26.6332 34.7545C26.5426 34.9998 26.3959 35.1838 26.1933 35.3065C25.9959 35.4291 25.7933 35.4905 25.5853 35.4905H24.7453L29.4173 23.5385C29.5026 23.3145 29.6333 23.1438 29.8093 23.0265C29.9853 22.9038 30.1906 22.8425 30.4253 22.8425H31.2733L26.6332 34.7545ZM34.9824 27.3625C35.2384 27.3091 35.4837 27.2718 35.7184 27.2505C35.953 27.2238 36.1797 27.2105 36.3984 27.2105C37.0064 27.2105 37.5424 27.3011 38.0064 27.4825C38.4704 27.6638 38.8597 27.9145 39.1744 28.2345C39.489 28.5545 39.7264 28.9305 39.8864 29.3625C40.0464 29.7891 40.1264 30.2505 40.1264 30.7465C40.1264 31.3598 40.017 31.9198 39.7984 32.4265C39.585 32.9331 39.2864 33.3678 38.9024 33.7305C38.5184 34.0878 38.0624 34.3651 37.5344 34.5625C37.0117 34.7598 36.441 34.8585 35.8224 34.8585C35.4597 34.8585 35.1157 34.8211 34.7904 34.7465C34.465 34.6718 34.1584 34.5731 33.8704 34.4505C33.5877 34.3225 33.3237 34.1785 33.0784 34.0185C32.8384 33.8531 32.6224 33.6798 32.4304 33.4985L33.0384 32.6585C33.1664 32.4771 33.3344 32.3865 33.5424 32.3865C33.6757 32.3865 33.8117 32.4291 33.9504 32.5145C34.089 32.5998 34.2464 32.6931 34.4224 32.7945C34.6037 32.8958 34.8144 32.9891 35.0544 33.0745C35.2997 33.1598 35.593 33.2025 35.9344 33.2025C36.297 33.2025 36.617 33.1438 36.8944 33.0265C37.1717 32.9091 37.401 32.7465 37.5824 32.5385C37.769 32.3251 37.9077 32.0745 37.9984 31.7865C38.0944 31.4931 38.1424 31.1758 38.1424 30.8345C38.1424 30.2051 37.9584 29.7145 37.5904 29.3625C37.2277 29.0051 36.689 28.8265 35.9744 28.8265C35.425 28.8265 34.8624 28.9278 34.2864 29.1305L33.0544 28.7785L34.0144 23.1625H39.7264V24.0025C39.7264 24.2851 39.6384 24.5145 39.4624 24.6905C39.2864 24.8665 38.9877 24.9545 38.5664 24.9545H35.3904L34.9824 27.3625Z" fill="#863399"/>
<circle cx="28" cy="29.2305" r="26.5" stroke="#E5E5E5" stroke-width="3"/>
<path d="M28.5599 1.23155L27.0611 1.1716L26.9412 4.1692L28.44 4.22915L28.5599 1.23155ZM51.4181 20.3138C51.7403 21.077 52.6202 21.4345 53.3834 21.1122C54.1466 20.79 54.5041 19.9101 54.1818 19.1469L51.4181 20.3138ZM28.44 4.22915C40.2603 4.70197 47.8029 11.7516 51.4181 20.3138L54.1818 19.1469C50.197 9.70913 41.7397 1.75874 28.5599 1.23155L28.44 4.22915Z" fill="#863399"/>
</svg>
