<svg width="82" height="82" viewBox="0 0 82 82" fill="none" xmlns="http://www.w3.org/2000/svg">
<rect width="82" height="82" rx="41" fill="#FFEFEE"/>
<path d="M40.8293 42.6795H31.1788C30.7573 42.6795 30.353 42.5123 30.0549 42.2147C29.7569 41.9171 29.5894 41.5135 29.5894 41.0926C29.5894 40.6717 29.7569 40.2681 30.0549 39.9705C30.353 39.6729 30.7573 39.5057 31.1788 39.5057H39.2185V28.2265C39.2185 27.8057 39.386 27.4021 39.6841 27.1045C39.9821 26.8069 40.3864 26.6397 40.8079 26.6397H40.8293C41.2509 26.6397 41.6551 26.8069 41.9532 27.1045C42.2513 27.4021 42.4187 27.8057 42.4187 28.2265V41.0926C42.4187 41.5135 42.2513 41.9171 41.9532 42.2147C41.6551 42.5123 41.2509 42.6795 40.8293 42.6795Z" fill="#D22119"/>
<path d="M56.1164 49.1239C56.1164 48.2585 55.4141 47.557 54.5477 47.557C53.6813 47.557 52.979 48.2585 52.979 49.1239V55.316C52.979 56.1813 53.6813 56.8829 54.5477 56.8829C55.4141 56.8829 56.1164 56.1813 56.1164 55.316V49.1239Z" fill="#D22119"/>
<path d="M54.554 58.8504H54.5368C53.6669 58.8504 52.9617 59.5545 52.9617 60.423C52.9617 61.2916 53.6669 61.9956 54.5368 61.9956H54.554C55.4239 61.9956 56.1291 61.2916 56.1291 60.423C56.1291 59.5545 55.4239 58.8504 54.554 58.8504Z" fill="#D22119"/>
<path d="M54.4869 41.0028C51.7633 41.0028 49.1009 41.8092 46.8363 43.32C44.5718 44.8307 42.8068 46.9781 41.7646 49.4904C40.7224 52.0027 40.4498 54.7671 40.9812 57.4341C41.5127 60.1011 42.8243 62.5509 44.7503 64.4736C46.6762 66.3963 49.13 67.7057 51.8013 68.236C54.4726 68.7663 57.2414 68.4939 59.7575 67.453C62.2737 66.4122 64.4243 64.6498 65.9372 62.3887C67.4501 60.1275 68.2575 57.4692 68.2572 54.75C68.2572 52.9445 67.901 51.1568 67.209 49.4888C66.5169 47.8209 65.5026 46.3053 64.2239 45.0288C62.9452 43.7522 61.4271 42.7396 59.7564 42.0488C58.0857 41.3581 56.2951 41.0026 54.4869 41.0028ZM54.5725 65.3063C52.4825 65.3063 50.4394 64.6875 48.7017 63.5282C46.9639 62.3689 45.6094 60.7211 44.8096 58.7932C44.0098 56.8653 43.8005 54.744 44.2083 52.6974C44.616 50.6507 45.6225 48.7708 47.1003 47.2953C48.5782 45.8197 50.4611 44.8149 52.511 44.4078C54.5608 44.0007 56.6856 44.2096 58.6165 45.0082C60.5474 45.8067 62.1978 47.159 63.3589 48.8941C64.5201 50.6291 65.1399 52.669 65.1399 54.7557C65.1399 57.5539 64.0265 60.2375 62.0448 62.2161C60.063 64.1947 57.3752 65.3063 54.5725 65.3063Z" fill="#D22119"/>
<path d="M67.6518 47.7467C68.2168 45.5277 68.5018 43.2469 68.5 40.9573C68.5 25.7929 56.1876 13.5 41.0007 13.5C25.8138 13.5 13.5 25.7929 13.5 40.9573C13.5 56.1216 25.8123 68.4131 41.0007 68.4131C43.0332 68.414 45.0595 68.1902 47.0426 67.7458C45.8025 67.0463 44.6783 66.1594 43.7097 65.1167C42.7889 65.221 41.8631 65.2733 40.9364 65.2736C36.1579 65.2736 31.4867 63.8588 27.5135 61.2082C23.5404 58.5576 20.4436 54.7902 18.615 50.3824C16.7863 45.9746 16.3079 41.1244 17.2401 36.4451C18.1723 31.7658 20.4734 27.4676 23.8523 24.094C27.2313 20.7205 31.5363 18.423 36.223 17.4923C40.9096 16.5615 45.7675 17.0392 50.1823 18.865C54.5971 20.6907 58.3704 23.7826 61.0252 27.7495C63.68 31.7164 65.097 36.3802 65.097 41.1512C65.0972 42.1631 65.0342 43.174 64.9085 44.1781C66.0018 45.2192 66.9272 46.423 67.6518 47.7467Z" fill="#D22119"/>
</svg>
