<svg xmlns="http://www.w3.org/2000/svg" viewBox="0 0 183.809 205.371">
  <defs>
    <style>
      .cls-1 {
        fill: #fdc68b;
      }

      .cls-2 {
        opacity: 0.1;
      }

      .cls-3 {
        fill: #965136;
      }

      .cls-4 {
        fill: #7cbadb;
      }

      .cls-5 {
        fill: #7bbfde;
      }

      .cls-6 {
        fill: #248bb9;
      }

      .cls-45, .cls-7 {
        fill: #853694;
      }

      .cls-8 {
        fill: #d0a46f;
      }

      .cls-9 {
        fill: #eda567;
      }

      .cls-10 {
        fill: #fbb477;
      }

      .cls-11 {
        fill: #d17e54;
      }

      .cls-12 {
        fill: #814a28;
      }

      .cls-13 {
        fill: #cb8253;
      }

      .cls-14 {
        fill: #bf8144;
      }

      .cls-15 {
        fill: #ffd89e;
      }

      .cls-16 {
        fill: #f6a2b2;
      }

      .cls-17 {
        fill: #de7967;
      }

      .cls-18, .cls-34 {
        fill: #fff;
      }

      .cls-19 {
        fill: #ccdde7;
      }

      .cls-20 {
        fill: #7c9dad;
      }

      .cls-21 {
        fill: #d09a41;
      }

      .cls-22 {
        fill: #f9a66b;
      }

      .cls-23 {
        fill: #f58520;
      }

      .cls-24 {
        fill: #d0a062;
      }

      .cls-25 {
        fill: #aa7028;
      }

      .cls-26 {
        fill: #bdc1c4;
      }

      .cls-27 {
        fill: #b77e37;
      }

      .cls-28 {
        fill: #814e1e;
      }

      .cls-29 {
        fill: #af6c33;
      }

      .cls-30 {
        fill: #d48657;
      }

      .cls-31 {
        fill: #9cb4c0;
      }

      .cls-32, .cls-41 {
        fill: #b45f17;
      }

      .cls-33, .cls-48 {
        fill: #f0ac73;
      }

      .cls-33, .cls-34, .cls-35, .cls-38, .cls-39, .cls-41, .cls-43, .cls-44, .cls-45 {
        fill-rule: evenodd;
      }

      .cls-35, .cls-36 {
        fill: #8e522e;
      }

      .cls-37 {
        fill: #fffcdd;
      }

      .cls-38 {
        fill: #35a4bc;
      }

      .cls-39 {
        fill: #76b4e3;
      }

      .cls-40 {
        fill: #c17437;
      }

      .cls-42 {
        fill: #bd8e59;
      }

      .cls-43 {
        fill: #b8e1dc;
      }

      .cls-44 {
        fill: #dff3fd;
      }

      .cls-46 {
        fill: #df9168;
      }

      .cls-47 {
        fill: #643717;
      }
    </style>
  </defs>
  <g id="family_illustration" data-name="family illustration" transform="translate(-0.004 0.011)">
    <g id="Group_676" data-name="Group 676" transform="translate(46.367 9.231)">
      <rect id="Rectangle_1052" data-name="Rectangle 1052" class="cls-1" width="19.721" height="20.883" transform="translate(16.806 71.208)"/>
      <g id="Group_671" data-name="Group 671" transform="translate(0 81.83)">
        <path id="Path_439" data-name="Path 439" class="cls-2" d="M122.9,496.574c.04,2.245,10.782,3.768,23.929,3.367s23.769-2.525,23.729-4.77-10.782-3.768-23.929-3.367S122.86,494.329,122.9,496.574Z" transform="translate(-120.003 -385.706)"/>
        <path id="Path_440" data-name="Path 440" class="cls-3" d="M190.74,482.8l-.24,5.091s7.014,1.363,12.385,2.445c.481.08,5.371-.321,5.932-.281.361,0,.08-1,.08-1s-13.788-5.732-13.267-5.732C196.192,483.321,190.74,482.8,190.74,482.8Z" transform="translate(-160.507 -380.349)"/>
        <path id="Path_441" data-name="Path 441" class="cls-1" d="M205.453,484.134a7.011,7.011,0,0,1-4.088.561c-4.249-.4-10.421-2-10.5-2.445-.12-.721.24-5.05.24-5.05S202.728,483.052,205.453,484.134Z" transform="translate(-160.71 -376.994)"/>
        <path id="Path_442" data-name="Path 442" class="cls-3" d="M133.881,485.2l.24,3.006.08,2.245s-7.014,1.363-12.426,2.4c-.481.08-5.371-.361-5.932-.321-.361,0-.04-1.122-.04-1.122s13.788-5.571,13.227-5.571C128.51,485.841,133.881,485.2,133.881,485.2Z" transform="translate(-115.672 -381.787)"/>
        <path id="Path_443" data-name="Path 443" class="cls-1" d="M125.185,486.674a10.967,10.967,0,0,0,4.569.24c4.169-.361,10.021-1.724,10.021-2,0-.762-.24-5.01-.24-5.01S127.911,485.592,125.185,486.674Z" transform="translate(-121.366 -378.612)"/>
        <path id="Path_444" data-name="Path 444" class="cls-1" d="M192.5,452.4c-.6.08-1.2.2-1.8.281l.361,13.388c1.363.4,2.525,1.2,3.728.2l1.243-13.748Z" transform="translate(-160.627 -362.134)"/>
        <path id="Path_445" data-name="Path 445" class="cls-1" d="M150.5,456.261l.361,12.666a4.95,4.95,0,0,0,3.808-.361l1.283-12.666C154.107,456.06,152.3,456.181,150.5,456.261Z" transform="translate(-136.54 -364.231)"/>
        <path id="Path_446" data-name="Path 446" class="cls-4" d="M197.56,246.239a37.31,37.31,0,0,0-7.816-19.039,54.92,54.92,0,0,1-9.259.922c-.441,0-.922,0-1.363-.04L178,250.688a5.012,5.012,0,0,1,3.848,3.567l-.12,31.705,1.2,38.2a19.681,19.681,0,0,0,5.251.681c.08-.321,1.4.441,1.443.16.641-2.445-.2,1.363.361-1.122,1.082-4.97,2.044-18.959,2.766-24.009,1.443-9.78,2.565-17.917,3.728-27.777C197.48,263.515,198.161,251.049,197.56,246.239Z" transform="translate(-153.018 -227.2)"/>
        <path id="Path_447" data-name="Path 447" class="cls-4" d="M159.015,228.541c-2.645,0-5.291-.2-7.936-.361a18.63,18.63,0,0,1-3.006-.281c-2.766,6.654-3.728,13.949-4.128,21.2-.521,9.62-.681,19.24-.842,28.859-.2,10.1-.08,20.2-.641,30.3-.2,3.327.2,12.866,0,16.193l-.361.24a14.768,14.768,0,0,0,3.768.922,13.72,13.72,0,0,0,4.609-.04l4.489-35.914,4.69-33.028a8.246,8.246,0,0,1,2.966-4.489L160.3,228.5C159.816,228.541,159.416,228.541,159.015,228.541Z" transform="translate(-131.507 -227.619)"/>
        <path id="Path_448" data-name="Path 448" class="cls-5" d="M171.967,240.131c.441,1.8,1.523,3.968,3.207,4.569a10.691,10.691,0,0,0,3.888.321c-.12-.361-.2-.762-.321-1.122a9.488,9.488,0,0,1-3.407-.361c-1.122-.321-1.884-2.044-2.285-3.768a18.5,18.5,0,0,1-.441-2.846c.842-.2,1.8-.521,2.766-.842a13.81,13.81,0,0,0-.8-1.283,50.171,50.171,0,0,1-9.66,1.563l-.681-.04v.04c-.321,0-.962.08-1.323.08-3.768,0-7.175-.641-10.181-.882h0a5.982,5.982,0,0,0-.842-.08v.16s-.08-.16-.08-.12a6.278,6.278,0,0,1-.8-.12c-.12.4-.241.8-.361,1.243a11.87,11.87,0,0,0,1.243.12v1.483a6.966,6.966,0,0,1-1.964,4.369,2.37,2.37,0,0,1-.721.361c-.08.4-.12.762-.2,1.162a6.808,6.808,0,0,0,1.523-.721,7.92,7.92,0,0,0,2.285-5.05,9.627,9.627,0,0,0,0-1.523c2.164.16,4.65.721,7.335.8.04.561.08,1.323.12,2.2.16,2.084.08,4.85.4,6.974.842,5.411,3.287,6.734,3.327,6.774l.481.281.4-16.193c2.365-.04,4.329-.441,6.413-.561C171.366,237.646,171.687,238.848,171.967,240.131Zm-8.377,11.544c-.6-.561-1.042-1.483-1.683-3.928a56.646,56.646,0,0,1-.641-7.856c-.04-.842,0-1.683,0-2.245,1.2.04,1.323,0,1.8,0,.281,0,.561.04.842.04Z" transform="translate(-135.641 -231.754)"/>
        <path id="Path_449" data-name="Path 449" class="cls-6" d="M181.783,231.6h-.441a1.12,1.12,0,0,0,.241,2.2,1.079,1.079,0,0,0,1.042-1.122A1.166,1.166,0,0,0,181.783,231.6Z" transform="translate(-154.515 -229.836)"/>
        <path id="Path_450" data-name="Path 450" class="cls-5" d="M205.583,334.712a3.583,3.583,0,0,0,1.844-1.4,21.71,21.71,0,0,0-2.285,0,19.822,19.822,0,0,1,1.8-1.4c-.922-.08-1.844.361-2.806.321.8-1.082,1.8-2,2.565-3.126-1.4.6-2.806,1.283-4.128,2-1.363.721-4.008,1.8-4.89,3.006.04,0,.04-.04.08-.04l-.16.16c.04-.04.04-.08.08-.12a1.587,1.587,0,0,0-.8,1.483,4.641,4.641,0,0,1,1.964.2c-.441.4-1.082.8-1.243,1.363.521,0,1.042,0,1.563.04a11.718,11.718,0,0,0-.842,2.445c2.686-2,6.253-3.207,9.179-4.97C206.905,334.671,206.224,334.712,205.583,334.712Z" transform="translate(-164.327 -288.256)"/>
        <path id="Path_451" data-name="Path 451" class="cls-5" d="M154,397.7c1.323,1,3.086,1.162,4.529,2.044a11.368,11.368,0,0,0-3.447.8,7.323,7.323,0,0,0,3.607,1.082c-1,.681-2.485.561-3.607,1.082,1.924.04,3.728.4,5.612.361.281-2,.4-4.008.6-5.612v-.16C159.531,398.182,155.924,396.619,154,397.7Z" transform="translate(-138.637 -329.12)"/>
        <path id="Path_452" data-name="Path 452" class="cls-5" d="M141.2,462.493c-.4-.16-.2,4.128.521,4.569a35.984,35.984,0,0,0,8.016.8c.361-.241.641-4.289.561-4.569C150.214,463.055,144.643,463.776,141.2,462.493Z" transform="translate(-130.843 -368.179)"/>
        <path id="Path_453" data-name="Path 453" class="cls-5" d="M198.458,465.037c.441-.12-.12,4.169-.842,4.489a36.3,36.3,0,0,1-8.057.08c-.361-.281-.321-4.369-.24-4.569C189.4,464.756,194.89,466,198.458,465.037Z" transform="translate(-159.767 -369.68)"/>
      </g>
      <path id="Path_454" data-name="Path 454" class="cls-7" d="M129.073,173.784c-1.563.521-2.645.842-3.848.281a8.375,8.375,0,0,1-2.325-2c1.964-11.063,5.451-26.174,5.732-27.176a6.522,6.522,0,0,1,5.451-5.09c2.686-.24,2.645,9.82,2.926,11.544-.681,1.443-4.169,13.428-6.574,21.925C129.914,173.463,129.474,173.663,129.073,173.784Z" transform="translate(-120.003 -92.996)"/>
      <path id="Path_455" data-name="Path 455" class="cls-8" d="M135.383,48.608c-.561.561-4.73,1.2-4.008,5.291a94.744,94.744,0,0,1,.882,14.55c-.16,2.485-.681,8.5,1.643,11.143,2.325,2.605,14.55.922,16.995.281,2.445-.681,9.78-1.844,13.668-.4s8.137-7.255,7.175-9.94C170.736,66.886,146.606,37.385,135.383,48.608Z" transform="translate(-125.031 -36.842)"/>
      <path id="Path_456" data-name="Path 456" class="cls-7" d="M174.458,137.348a41.616,41.616,0,0,0-8.938-2.645c-4.289-.641-5.451-1.2-8.057-1.2-1.724,0-12.1,2.605-12.987,3.247s-.561,11.023-.561,11.023,1.6,20.963,2.285,21.083c8.377,1.162,26.014-.04,27.136-.361.441-.12,1.162-21.043,1.162-21.043Z" transform="translate(-132.561 -89.227)"/>
      <path id="Path_457" data-name="Path 457" class="cls-9" d="M175.754,134.818s-8.177-1.643-9.459-1.443c-1.523.2-7.3,1.6-7.3,1.6s7.5,7.135,8.337,6.934C168.139,141.672,176.556,136.541,175.754,134.818Z" transform="translate(-141.633 -89.142)"/>
      <path id="Path_458" data-name="Path 458" class="cls-7" d="M215.644,174.52c.24-1.6,1.6-.12,2.846-.6.922-.361,1.483-1.764,2.245-2.445-.962-11.183-6.734-24.25-7.095-25.292a6.691,6.691,0,0,0-4.369-4.409c-2.645-.481-4.77,8.5-5.171,10.181.521,1.483,6.293,11.143,7.976,19.841C212.6,172.034,215.443,176.123,215.644,174.52Z" transform="translate(-168.656 -94.173)"/>
      <path id="Path_459" data-name="Path 459" class="cls-9" d="M174.065,111.482c-1-.361-2.245.16-2.565-.842l1-19.44,7.215.6L180,110.2C178.755,111.682,177.272,112.6,174.065,111.482Z" transform="translate(-149.123 -63.882)"/>
      <path id="Path_460" data-name="Path 460" class="cls-10" d="M204.03,78.563c-.8,2.605-.6,4.529,1.2,5.01,1.8.521,5.531-.922,6.333-3.527s0-5.131-1.8-5.652C207.918,73.914,204.832,75.958,204.03,78.563Z" transform="translate(-168.346 -53.77)"/>
      <path id="Path_461" data-name="Path 461" class="cls-10" d="M167.751,44.506c1.844,9.94-2.485,23.288-11.223,24.931-11.584,2.2-19.56-9.219-21.4-19.159-1.924-9.94,5.09-18.518,14.991-20.362C159.975,28.032,165.867,34.566,167.751,44.506Z" transform="translate(-127.136 -26.968)"/>
      <path id="Path_462" data-name="Path 462" class="cls-11" d="M174.508,91.9c-.2.04.361,0,.481.16-1.643,1-3.327,2.565-3.126,3.287.321,1.122,1.8,1.042,3.728.962-.04.08-.12.16-.16.16-.8.321-4.088.882-4.489-.641C170.46,94.1,174.549,91.9,174.508,91.9Z" transform="translate(-148.764 -64.302)"/>
      <path id="Path_463" data-name="Path 463" class="cls-12" d="M156.9,87.563c.04,1.283.762,2.285,1.563,2.245s1.443-1.082,1.363-2.365c-.04-1.283-.762-2.285-1.563-2.245S156.857,86.321,156.9,87.563Z" transform="translate(-140.372 -60.285)"/>
      <path id="Path_464" data-name="Path 464" class="cls-12" d="M193.49,86.163c.04,1.283.762,2.285,1.563,2.245s1.443-1.082,1.363-2.365c-.04-1.283-.762-2.285-1.563-2.245S193.41,84.921,193.49,86.163Z" transform="translate(-162.295 -59.446)"/>
      <path id="Path_465" data-name="Path 465" class="cls-13" d="M157.174,75.2a22.048,22.048,0,0,0-3.808-.08,18.568,18.568,0,0,0-2.966.681l.481.8a11.218,11.218,0,0,0,2.325-.12,15.455,15.455,0,0,1,3.728.24Z" transform="translate(-136.48 -54.213)"/>
      <path id="Path_466" data-name="Path 466" class="cls-13" d="M189.6,73.837a18.212,18.212,0,0,1,3.768-.441,20.323,20.323,0,0,1,3.046.361l-.4.842a10.023,10.023,0,0,1-2.325.12,17.236,17.236,0,0,0-3.688.6Z" transform="translate(-159.968 -53.213)"/>
      <path id="Path_467" data-name="Path 467" class="cls-14" d="M139.4,49.4h.08c.04.04.12.08.16.12Z" transform="translate(-129.889 -38.837)"/>
      <path id="Path_468" data-name="Path 468" class="cls-14" d="M140,49.7l1.042.561A4.192,4.192,0,0,1,140,49.7Z" transform="translate(-130.249 -39.016)"/>
      <path id="Path_469" data-name="Path 469" class="cls-10" d="M137.283,84.5c1.4,2.365,1.643,4.249,0,5.171s-5.571.361-6.974-1.964c-1.4-2.365-1.2-5.01.481-5.932C132.393,80.893,135.88,82.136,137.283,84.5Z" transform="translate(-123.884 -58.065)"/>
      <path id="Path_470" data-name="Path 470" class="cls-15" d="M169.32,43.55c-.842-2.525-1.122-5.892-1.844-8.337a5.2,5.2,0,0,0-.321-1.363c-1.764-5.571-5.371-9.339-11.985-10.381-6.934-1.082-13.187-.12-16.113,3.287a.3.3,0,0,0-.04.2,8.789,8.789,0,0,0-5.732,3.086c-1.884,2.044-2.686,5.411-2.686,9.94,0,0,.04,6.293,1.2,6.774a9,9,0,0,1,2.966,2.726s1.6-8.137,4.81-11.864c3.207-3.768,1.964-2.485,2.766-3.928a2.013,2.013,0,0,0,.2-.521,2.49,2.49,0,0,0,.4.12,5.913,5.913,0,0,0,1.162,1.283c1.8,1.443,13.668,10.181,20.562,14.229a26.762,26.762,0,0,1-.762,6.814c-.962,2.766-1.082,11.263-.2,12.866s9.86-5.692,10.1-11.424C174.09,51.246,170.6,47.317,169.32,43.55Z" transform="translate(-124.617 -23.046)"/>
      <path id="Path_471" data-name="Path 471" class="cls-10" d="M154.7,39.8l2.605,6.052,1.243-.8Z" transform="translate(-139.057 -33.084)"/>
      <g id="Group_672" data-name="Group 672" transform="translate(2.008 54.623)">
        <path id="Path_472" data-name="Path 472" class="cls-1" d="M122.359,177.631l10.822-18.278c1.323-.321,3.046,1.924,2.766,2.605l-4.69,18.238c-1.082,3.247-4.169,8.738-7.014,6.974C120.235,184.645,122.359,177.631,122.359,177.631Z" transform="translate(-121.349 -159.322)"/>
        <path id="Path_473" data-name="Path 473" class="cls-7" d="M133.074,192.391a13.139,13.139,0,0,1-5.291-2.044,10.734,10.734,0,0,1-2.966-3.247l-3.768,6.774s-1.724,8.538,2.285,11.023c2.846,1.764,7.215-3.808,8.3-7.055Z" transform="translate(-120.681 -175.966)"/>
        <path id="Path_474" data-name="Path 474" class="cls-16" d="M130.346,181.779c-.12-.281-3.046,3.688-3.046,4.088a11.968,11.968,0,0,0,4.489,4.65,16.129,16.129,0,0,0,4.81,1.2,46.2,46.2,0,0,0,1.4-5.211C137.882,186.148,132.07,185.306,130.346,181.779Z" transform="translate(-124.647 -172.769)"/>
      </g>
      <g id="Group_673" data-name="Group 673" transform="translate(38.009 55.776)">
        <path id="Path_475" data-name="Path 475" class="cls-1" d="M223.246,178.874,213.266,162.2c-.2,2.806-.361,1.884-2.766,3.046l4.85,16.474c1.082,2.926,4.048,7.816,6.533,6.012C225.411,185.167,223.246,178.874,223.246,178.874Z" transform="translate(-210.5 -162.2)"/>
        <path id="Path_476" data-name="Path 476" class="cls-7" d="M217.5,194.771A14.614,14.614,0,0,0,222.43,192a5.729,5.729,0,0,0,2.124-2.4l4.048,5.251s1.844,7.736-1.683,10.261c-2.485,1.8-7.014-3.126-8.1-6.052Z" transform="translate(-214.694 -178.617)"/>
        <path id="Path_477" data-name="Path 477" class="cls-16" d="M220.849,182.882c.12-.241,2.886,3.287,2.926,3.688,0,.4-2.605,3.447-4.529,4.569a11.3,11.3,0,0,1-3.607,1.323,44.727,44.727,0,0,1-1.443-4.73C214.316,187.372,219.446,186.249,220.849,182.882Z" transform="translate(-212.712 -174.585)"/>
      </g>
      <g id="Group_674" data-name="Group 674" transform="translate(21.495 35.575)">
        <path id="Path_478" data-name="Path 478" class="cls-17" d="M176.555,111.92a7.94,7.94,0,0,1-2.285.561,8.348,8.348,0,0,1-4.249-.681l-.721,1.283a9.438,9.438,0,0,0,5.05.882h0a9.279,9.279,0,0,0,2.525-.6C176.755,112.882,176.635,112.4,176.555,111.92Z" transform="translate(-169.3 -111.8)"/>
      </g>
      <g id="Group_675" data-name="Group 675" transform="translate(27.399 46.344)">
        <path id="Path_479" data-name="Path 479" class="cls-1" d="M184.418,138.681c.361.12,5.09,2.164,5.692,2.4a40.26,40.26,0,0,1,4.69,2.806c.441.4,3.447,5.571,4.249,6.974.441,1.443-.882,1.483-.882,1.483.04.4-1.443,1.724-1.443,1.724-.4-.2-6.253-3.407-6.694-3.647-.281-.16-2.044-1.4-3.367-2.445a6.833,6.833,0,0,1-.521-1.6c.842.521,2,1.162,2,1.162s-.962-.762-2.044-1.563a11.208,11.208,0,0,1-.12-1.6v-.16a2.375,2.375,0,0,1,.24.16c.321.16,2.605,1.4,2.645,1.4.521.12-1.6-1.4-2.445-2a5.084,5.084,0,0,0-.641-.441,2.519,2.519,0,0,1-.08-1.523c.04-.04.04-.08.04-.16a6.741,6.741,0,0,1,.721.4c.361.2,3.607,1.764,3.848,1.884a22.349,22.349,0,0,0-2.4-2.044c-.361-.24-3.808-2.4-3.848-2.445C183.977,139.322,184.058,138.561,184.418,138.681Z" transform="translate(-184.029 -138.668)"/>
      </g>
      <path id="Path_480" data-name="Path 480" class="cls-18" d="M174.362,130.287a2.344,2.344,0,0,1-2.044,2.605l-6.694,1.363c-1.162.04-2.886-2.285-2.926-3.688V112.731a2.344,2.344,0,0,1,2-2.605l7.215-.04c1.523-.12,3.287.922,3.367,2.325Z" transform="translate(-143.848 -75.192)"/>
      <path id="Path_481" data-name="Path 481" class="cls-19" d="M176.962,133.48a2.344,2.344,0,0,1-2.044,2.605l-7.375.12a2.4,2.4,0,0,1-2.245-2.445V115.924a2.344,2.344,0,0,1,2.044-2.605l7.375-.12a2.4,2.4,0,0,1,2.245,2.445Z" transform="translate(-145.406 -77.062)"/>
      <path id="Path_482" data-name="Path 482" class="cls-20" d="M179.121,122.3a1.125,1.125,0,0,1-1,1.283,1.165,1.165,0,0,1-1.122-1.2,1.125,1.125,0,0,1,1-1.283A1.165,1.165,0,0,1,179.121,122.3Z" transform="translate(-152.415 -81.794)"/>
      <path id="Path_483" data-name="Path 483" class="cls-1" d="M152.025,149.141a5.256,5.256,0,0,1-2.044-.842,1.413,1.413,0,0,1-.481-1.122,50.448,50.448,0,0,1,1.964-4.93,42.556,42.556,0,0,1,3.207-3.607c.24-.12.16,2.525.16,2.806.04.281,3.367-.721,4.088-.882.681-.16,3.487-1.563,4.088-1.8a16.712,16.712,0,0,1,2.806-.962c.281.04.681.6.521.721s-3.447,1.844-3.447,1.844-3.247,1.443-3.247,1.563a32.1,32.1,0,0,0,3.487-.8c.281-.04,3.367-1.283,3.607-1.283s.281.521.16.721a24.048,24.048,0,0,1-3.207,1.643c-.281.12-2.926,1.4-2.926,1.4s2.966-.6,3.247-.681c.281-.04,2.285-.842,2.445-.842s.361.681.16.8c-.16.12-1.323.721-1.323.721l-1.243.561s.882-.321.882-.16a2.581,2.581,0,0,1-.481,1.082c-.481.321-2.726,1.243-3.086,1.4C161.124,146.7,153.789,148.82,152.025,149.141Z" transform="translate(-135.941 -91.801)"/>
    </g>
    <g id="Group_680" data-name="Group 680" transform="translate(116.202 -0.011)">
      <path id="Path_484" data-name="Path 484" class="cls-21" d="M321.857,114.813c.721-1.844,23.248-2.4,28.058-1.042s10.421,39.842,4.569,48.3c-5.01,7.255-34.03,7.255-37.637-1.082C312.838,151.769,316.445,128.521,321.857,114.813Z" transform="translate(-305.022 -67.712)"/>
      <path id="Path_485" data-name="Path 485" class="cls-22" d="M400.423,131.259c.441.721,11.424,17.6,12.947,20.282,1.122,2,7.936,1.6,8.417-1.243.641-3.968-12.666-25.212-15.592-29.02C403.99,118.432,398.138,127.371,400.423,131.259Z" transform="translate(-355.811 -72.333)"/>
      <path id="Path_486" data-name="Path 486" class="cls-22" d="M308.664,137.823c-.241.762-6.333,16.394-7.175,19.24-.6,2.084-9.58.882-8.938-1.844,2.605-10.742,6.093-24.049,8.417-25.893C303.654,127.081,309.907,133.735,308.664,137.823Z" transform="translate(-291.469 -77.214)"/>
      <path id="Path_487" data-name="Path 487" class="cls-23" d="M411.309,130.949c-1.724-3.367-5.331-11.945-8.618-14.029-2.605-1.683-10.822,8.457-9.059,11.945.16.321,3.086,3.848,6.293,7.736C403.773,134.877,407.581,133.034,411.309,130.949Z" transform="translate(-351.907 -69.939)"/>
      <path id="Path_488" data-name="Path 488" class="cls-23" d="M420.109,149.4c-.281-.16-11.223,6.654-11.584,6.814-.321.16,1,2.044,1,2.044s11.864-3.808,11.985-4.409C421.632,153.2,420.83,149.757,420.109,149.4Z" transform="translate(-360.947 -89.508)"/>
      <path id="Path_489" data-name="Path 489" class="cls-2" d="M346.653,485.645c.04,3.086-12.225,5.812-27.376,6.052-15.191.24-27.537-2.084-27.577-5.171s12.225-5.812,27.376-6.052C334.267,480.234,346.613,482.559,346.653,485.645Z" transform="translate(-290.978 -287.874)"/>
      <path id="Path_490" data-name="Path 490" class="cls-23" d="M341.359,107.188c0,.08-5.291-.922-5.291-.8-2.966-1-3.247.16-3.768.04-.481-.12-3.086-.24-7.455,1v-.04c-.481.12-16.193,5.852-16.474,7.5a65.67,65.67,0,0,0,2.445,18.558c3.848,14.109,8.738,34.752,9.66,34.11.641-.441,26.855,5.251,25.893,5.251.842-4.169,3.688-45.854,4.529-50.825a65.422,65.422,0,0,0,.922-9.5C351.941,112.238,346.009,108.15,341.359,107.188Z" transform="translate(-300.956 -63.493)"/>
      <path id="Path_491" data-name="Path 491" class="cls-10" d="M322.349,472.947a28.8,28.8,0,0,0-.882-3.247s-16.314,4.73-18.839,6.654c-1.8,1.323-.4.922-.321.922a18.878,18.878,0,0,1-4.008,1.243A19.682,19.682,0,0,0,301.466,480c.641-.12,7.455-1.443,8.016-1.6,6.173-1.764,12.867-3.327,12.867-3.327Z" transform="translate(-294.933 -281.428)"/>
      <path id="Path_492" data-name="Path 492" class="cls-24" d="M320.944,474c-.361.762.24.681-2.325,1.6a12.574,12.574,0,0,1-3.327.842c-.281.04-1.243-2.084-2.164-2.445-2.124.882-2.124.882-16.033,6.093,0,0-.842,2.124-.641,2.565.281.561,1.483.721,2.285.641,1.042-.12,9.94-1.964,10.5-2.084,9.7-2.365,12.345-3.527,12.345-3.527l-.04-1.2A19.574,19.574,0,0,0,320.944,474Z" transform="translate(-293.808 -284.004)"/>
      <path id="Path_493" data-name="Path 493" class="cls-10" d="M386.3,466.107c.04-.8.681-3.607.681-3.607a8.1,8.1,0,0,1,4.209,2.525c2.325,2.766,9.219,7.9,10.021,8.578,1.283,1.8-2.124,2.966-2.645,2.846-5.932-1.162-12.265-6.734-12.265-6.734Z" transform="translate(-347.66 -277.114)"/>
      <path id="Path_494" data-name="Path 494" class="cls-24" d="M385.713,476.512c-.12-.561-.321,3.046-.241,3.607.04.561,10.341,6.133,11.1,6.093s6.734-1.323,6.854-2.164c.12-.882-7.616-6.894-8.618-7.455-1-.521-5.411,1-5.411,1l-.321,2.044C389.08,479.6,385.994,477.634,385.713,476.512Z" transform="translate(-347.154 -285.474)"/>
      <path id="Path_495" data-name="Path 495" class="cls-10" d="M338.429,401.369a5.888,5.888,0,0,0,2.565.882,30.841,30.841,0,0,0,3.567-.441s1.844-30.222,1.683-32.787.04-15.432-.641-16.113c-.681-.641-8.337-.521-8.818,2C336.265,357.479,338.59,393.834,338.429,401.369Z" transform="translate(-317.947 -211.254)"/>
      <path id="Path_496" data-name="Path 496" class="cls-10" d="M381.7,369.7c.561,11.985,1.964,28.5,1.884,33.268a5.887,5.887,0,0,0,2.565.882,15.487,15.487,0,0,0,3.607-1s.922-26.735,1.243-32.226c.16-2.565.441-15.432-.241-16.113-.681-.641-8.337-.521-8.818,2A76.55,76.55,0,0,0,381.7,369.7Z" transform="translate(-344.822 -212.212)"/>
      <path id="Path_497" data-name="Path 497" class="cls-12" d="M360.425,229.1s-5.612.6-13.748,1.162a130.354,130.354,0,0,1-17.676-.4l1.6,54.151a17.883,17.883,0,0,0,8.057.561c1.523-.281,2.926-.641,4.369-.842l.922-17.957c.241-3.567.561-8.457.6-8.818.04-.721,1-.521,1.2.241l2.2,26.695c3.046.6,5.892,1.283,9.1,1a23.556,23.556,0,0,0,4.369-.681l-.16-40.4C361.146,236.676,360.425,229.1,360.425,229.1Z" transform="translate(-313.328 -137.266)"/>
      <path id="Path_498" data-name="Path 498" class="cls-25" d="M328.9,235.082l.04,4.89a175.707,175.707,0,0,0,18.879.281c9.419-.481,12.626-1,13.067-1.483a44.635,44.635,0,0,0-.321-4.77s-6.493.8-13.989,1.2C339.041,235.563,328.9,235.082,328.9,235.082Z" transform="translate(-313.268 -140.202)"/>
      <g id="Group_677" data-name="Group 677" transform="translate(28.371 94.226)">
        <path id="Path_499" data-name="Path 499" class="cls-26" d="M360.729,235.723s-.281,5.531.521,6.213c.8.721,6.493-.2,6.493-.2l.24-1.162-4.77-.241s0-3.327.04-3.607c0-.281,4.93-.922,4.93-.922l-.08-.6C368.1,235.282,361.17,234.6,360.729,235.723Z" transform="translate(-360.681 -235.07)"/>
        <path id="Path_500" data-name="Path 500" class="cls-26" d="M366.723,243.422l-1.523-.08.04-.842,1.483.04Z" transform="translate(-363.389 -239.522)"/>
      </g>
      <path id="Path_501" data-name="Path 501" class="cls-23" d="M293.1,140.5a35.608,35.608,0,0,0,6.934,2.966c2.926.762,3.968.922,3.968.922s2.445-4.209,2.686-4.89c.24-.641-2.2-9.459-3.848-11.143s-2.565-2.605-3.607-1.243C298.15,128.48,294.984,135.414,293.1,140.5Z" transform="translate(-291.817 -75.767)"/>
      <path id="Path_502" data-name="Path 502" class="cls-23" d="M291.7,156.589c-.521-.2-1.8,3.768-1.8,3.928a20.066,20.066,0,0,0,5.972,2.645c2.726.641,4.169,1.2,4.69,1s1.964-2.4,1.964-2.4S295.191,157.992,291.7,156.589Z" transform="translate(-289.9 -93.815)"/>
      <path id="Path_503" data-name="Path 503" class="cls-27" d="M393.577,110.055s-.16,13.949.561,17.316c.8,3.888,7.816,4.569,7.976-1.563.12-3.648.962-13.107.962-13.107S395.9,109.694,393.577,110.055Z" transform="translate(-352.012 -65.92)"/>
      <path id="Path_504" data-name="Path 504" class="cls-28" d="M398.644,110.5c-.641-.04-1.042,8.217-.561,15.312,1.4,20.883,2.686,17.316,3.768,30.463l.922-9.54s.361-13.788.2-22.687a94.2,94.2,0,0,1,.6-12.546A17.657,17.657,0,0,0,398.644,110.5Z" transform="translate(-354.593 -66.204)"/>
      <path id="Path_505" data-name="Path 505" class="cls-27" d="M318.04,114.287s0,13.027-.04,15.833c-.04,3.808,7.535,3.968,8.658-1,.8-3.487.561-18.117.561-18.117S320.124,113.4,318.04,114.287Z" transform="translate(-306.737 -66.504)"/>
      <path id="Path_506" data-name="Path 506" class="cls-28" d="M322.751,113.9c-.561.281-.2,9.54-.8,16.634a132.875,132.875,0,0,0-.16,17.276l2.485,10.9s.842-18.438,2.164-27.256a137.749,137.749,0,0,0,1.162-19.079A14.611,14.611,0,0,0,322.751,113.9Z" transform="translate(-308.883 -67.317)"/>
      <path id="Path_507" data-name="Path 507" class="cls-22" d="M346.5,108.025c.08.361,9.459,10.7,9.459,10.7l9.259-11.383-4.129-1.844-10.421.2S346.418,107.464,346.5,108.025Z" transform="translate(-323.812 -63.208)"/>
      <path id="Path_508" data-name="Path 508" class="cls-23" d="M384.682,101.767l1.884,9.66-6.574-1.964-5.892,3.167,7.055-9.3-3.527-1,.361-3.728S384.241,100.2,384.682,101.767Z" transform="translate(-340.351 -59.074)"/>
      <path id="Path_509" data-name="Path 509" class="cls-23" d="M338.722,102.97l-.922,8.658,5.612-2.686,6.774,3.848-7.014-9.139,4.249-1.924-.481-3.527C346.939,98.28,338.882,100.685,338.722,102.97Z" transform="translate(-318.6 -58.834)"/>
      <path id="Path_510" data-name="Path 510" class="cls-22" d="M365.886,91.826,365.445,79.4l-12.345.24.521,12.466C357.228,94.391,362.6,94.631,365.886,91.826Z" transform="translate(-327.768 -47.57)"/>
      <path id="Path_511" data-name="Path 511" class="cls-18" d="M376.781,85.061c-.2-.04-.441-.12-.681-.16.04-.2.08-.361.04-.4Z" transform="translate(-341.549 -50.626)"/>
      <path id="Path_512" data-name="Path 512" class="cls-1" d="M392.75,58.919c-1,2.445-1.042,4.329.6,5.01a5.58,5.58,0,0,0,6.253-2.766c1-2.445.521-5.01-1.122-5.692S393.752,56.474,392.75,58.919Z" transform="translate(-351.104 -33.142)"/>
      <path id="Path_513" data-name="Path 513" class="cls-1" d="M360.6,35.832c0,13.388-9.66,17.757-12.746,17.957-8.9.521-15.632-9.419-16.193-18.157-.641-9.86.12-18.879,11.3-18.638C357.789,17.354,360.555,17.354,360.6,35.832Z" transform="translate(-314.821 -10.174)"/>
      <path id="Path_514" data-name="Path 514" class="cls-1" d="M332.044,58.167c1.082,2.445,1.122,4.329-.521,5.01a5.517,5.517,0,0,1-6.293-2.645c-1.082-2.445-.6-4.97,1-5.692C327.916,54.119,331,55.722,332.044,58.167Z" transform="translate(-310.721 -32.75)"/>
      <path id="Path_515" data-name="Path 515" class="cls-12" d="M349.8,60.824c0,1.162.561,2.124,1.323,2.164.762,0,1.4-.922,1.4-2.124.04-1.162-.561-2.124-1.323-2.164C350.441,58.7,349.8,59.662,349.8,60.824Z" transform="translate(-325.791 -35.167)"/>
      <path id="Path_516" data-name="Path 516" class="cls-12" d="M383.7,59.824c0,1.162.561,2.124,1.323,2.164.762,0,1.363-.922,1.4-2.124,0-1.162-.561-2.124-1.323-2.164C384.381,57.7,383.74,58.662,383.7,59.824Z" transform="translate(-346.103 -34.568)"/>
      <path id="Path_517" data-name="Path 517" class="cls-29" d="M350.773,43a20.113,20.113,0,0,0-4.048.561,12.767,12.767,0,0,0-2.525,1.122l.962,1.483a17.99,17.99,0,0,1,2.485-.762,16.7,16.7,0,0,1,3.207-.281Z" transform="translate(-322.435 -25.76)"/>
      <path id="Path_518" data-name="Path 518" class="cls-29" d="M379.7,49.1a11.252,11.252,0,0,1,6.734.681l-.721,1.6a9.284,9.284,0,0,0-2.164-.361,18.516,18.516,0,0,0-3.648.2Z" transform="translate(-343.706 -29.291)"/>
      <path id="Path_519" data-name="Path 519" class="cls-12" d="M344.023,24.441c-.08-.08-.2-.16-.281-.24A9.545,9.545,0,0,0,342.7,24Z" transform="translate(-321.536 -14.376)"/>
      <path id="Path_520" data-name="Path 520" class="cls-12" d="M359.1,17.89c0-.08-.04-.16-.04-.24a10.9,10.9,0,0,0-.762-4.569s-2.846-3.367-5.692-4.209c-5.211-1.523-8.818-.561-15.191-.04-.882.08-6.493,2.686-6.854,2.766-.24.08-3.327.12-4.209,2.966-1.563,5.09.882,10.782,2.445,17.636a8.209,8.209,0,0,1,.962-.2c-.361-6.333.681-11.023,1.8-17.957,1.2.521,22.246-4.409,25.011,7.736a84.652,84.652,0,0,1,.16,8.7l.521.762s1-4.489,1.924-3.968A66.88,66.88,0,0,0,359.1,17.89Z" transform="translate(-311.439 -4.818)"/>
      <path id="Path_521" data-name="Path 521" class="cls-30" d="M367.563,66.052c-.16-.08-.281,0-.4.12,1.483.441,4.329,2.325,3.728,4.128-.361,1.082-3.126.281-4.69.08.04.08.08.16.12.16.6.4,4.93,1.523,5.411.04C372.573,68.216,367.643,66.092,367.563,66.052Z" transform="translate(-335.617 -39.553)"/>
      <path id="Path_522" data-name="Path 522" class="cls-12" d="M360.216,1.837c-1.643-.521-2.966.12-3.848.12-2.806-.04-2.2-.321-3.728-1.082C348.993-.969,347.47.314,344.5,2.438c-2.164,1.563-7.936.04-8.217,5.171-.08,1.283.4,3.527.4,4.529l1.483-.842c1.042,2.846,5.892,1.643,8.1.962,1.683-.521,2.886-1.844,4.73-2.084,2.485-.321,3.848,1.122,5.612,2.2,1.684,1,3.647,2.164,6.453.681,1.643-.882,4.088-1.884,4.329-4.409C363.1,9.533,364.024,3.04,360.216,1.837Z" transform="translate(-317.688 0.011)"/>
      <path id="Path_523" data-name="Path 523" class="cls-1" d="M291.545,162.954,309.5,146.6c1.483,0,2.605,2.926,2.164,3.567l-10.782,17.8c-1.563,2.445-7.095,6.574-9.179,5.211C288.5,171.01,291.545,162.954,291.545,162.954Z" transform="translate(-290.102 -87.835)"/>
      <path id="Path_524" data-name="Path 524" class="cls-1" d="M425.216,160.469,409.544,146.2c.561,2.886.16,2-2.044,3.888l9.419,16.273c2.285,3.247,8.3,5.211,10.061,3.808C429.986,167.684,425.216,160.469,425.216,160.469Z" transform="translate(-360.363 -87.595)"/>
      <g id="Group_678" data-name="Group 678" transform="translate(33.497 49.821)">
        <path id="Path_525" data-name="Path 525" class="cls-1" d="M373.883,124.292c.4.08,5.972,1.563,6.694,1.724a41.735,41.735,0,0,1,5.571,2.285c.521.361,4.129,5.692,5.171,7.014.641,1.443-1.042,2.124-1.042,2.124.08.441-.882,1.2-.882,1.2-.481-.16-7.175-2.565-7.7-2.766-.321-.12-2.726-1.323-4.369-2.2a7.065,7.065,0,0,1-.762-1.563c1,.4,2.365.962,2.365.962s-1.2-.641-2.485-1.363a13.167,13.167,0,0,1-.321-1.643.3.3,0,0,0-.04-.16.958.958,0,0,1,.281.12c.361.16,3.086,1.082,3.167,1.082.6.04-1.964-1.243-3.006-1.764-.12-.08-.4-.2-.762-.4a2.512,2.512,0,0,1-.241-1.563c0-.04.04-.12.04-.16.4.16.762.281.882.321.441.16,4.249,1.363,4.569,1.443a26.368,26.368,0,0,0-2.926-1.844c-.4-.2-4.569-2-4.609-2.044C373.442,125.013,373.482,124.211,373.883,124.292Z" transform="translate(-373.469 -124.286)"/>
      </g>
      <path id="Path_526" data-name="Path 526" class="cls-18" d="M365.626,115.8a2.488,2.488,0,0,1-2.245,2.686l-7.255,1.323c-1.283.04-3.086-2.445-3.126-3.888l.281-18.638a2.488,2.488,0,0,1,2.245-2.686l7.816.08c1.643-.08,3.567,1,3.607,2.445Z" transform="translate(-327.708 -56.677)"/>
      <path id="Path_527" data-name="Path 527" class="cls-19" d="M368.386,119.242a2.488,2.488,0,0,1-2.245,2.686h-7.976a2.482,2.482,0,0,1-2.365-2.605l.281-18.638A2.488,2.488,0,0,1,358.325,98H366.3a2.482,2.482,0,0,1,2.365,2.605Z" transform="translate(-329.386 -58.713)"/>
      <path id="Path_528" data-name="Path 528" class="cls-1" d="M339.408,137.684a6.028,6.028,0,0,1-2.124-1.122c-.441-.6-.8-1.122-.641-1.363.361-.481,3.086-5.892,3.367-6.173A21.98,21.98,0,0,1,343.3,125.9c.08,0-.04,3.086,0,3.407,0,.321,3.648-.521,4.409-.641s3.928-1.443,4.569-1.643a15.313,15.313,0,0,1,3.086-.8c.321.08.681.762.481.882s-3.888,1.764-3.888,1.764a34.817,34.817,0,0,0-3.648,1.483c0,.12,3.527-.521,3.848-.561s3.768-1.162,4.008-1.122.281.6.12.842a24.362,24.362,0,0,1-3.607,1.523c-.321.08-3.287,1.323-3.287,1.323s3.247-.441,3.567-.441c.321-.04,2.525-.721,2.726-.721s.321.8.12.882c-.2.12-1.523.681-1.523.681l-1.363.521s.962-.281.962-.12a2.94,2.94,0,0,1-.6,1.162c-.521.321-3.367,1.643-3.768,1.8C349.148,136.281,341.332,137.484,339.408,137.684Z" transform="translate(-317.883 -75.432)"/>
      <g id="Group_679" data-name="Group 679" transform="translate(28.218 34.195)">
        <path id="Path_529" data-name="Path 529" class="cls-17" d="M360.3,87.064l.04-.24-.04.24.04-1.563c.16,0,.241.04.441.04h0c.2.04.441.04.721.08h0c.6.04,1.443.12,2.4.12h0a26.225,26.225,0,0,0,5.01-.441h0l.281,1.523a26.756,26.756,0,0,1-5.331.481h-.04a30.837,30.837,0,0,1-3.527-.241Z" transform="translate(-360.3 -85.3)"/>
      </g>
      <path id="Path_530" data-name="Path 530" class="cls-31" d="M371.6,107.519a1.207,1.207,0,0,1-1.283,1.122,1.22,1.22,0,0,1-1.122-1.323,1.207,1.207,0,0,1,1.283-1.122A1.244,1.244,0,0,1,371.6,107.519Z" transform="translate(-337.411 -63.624)"/>
    </g>
    <g id="Group_690" data-name="Group 690" transform="translate(0.004 78.546)">
      <path id="Path_531" data-name="Path 531" class="cls-2" d="M4.3,491.989c-.04,2.645,7.9,4.81,17.716,4.85s17.8-2.044,17.837-4.69-7.9-4.81-17.716-4.85S4.34,489.343,4.3,491.989Z" transform="translate(-2.578 -370.53)"/>
      <path id="Path_532" data-name="Path 532" class="cls-32" d="M14.879,256.617s-2.245,5.692-2.2,7.095c.04,1.082-5.05-5.171-2.525-11.5C11.191,249.523,15.159,253.691,14.879,256.617Z" transform="translate(-5.661 -229.152)"/>
      <path id="Path_533" data-name="Path 533" class="cls-32" d="M20.109,263.06s.04,6.093.6,7.415c.441,1-5.01-1.4-5.01-8.217C15.659,259.373,19.267,260.295,20.109,263.06Z" transform="translate(-9.408 -234.633)"/>
      <path id="Path_534" data-name="Path 534" class="cls-32" d="M70.3,264.072s1.122,6.012.721,7.415c-.281,1.082,5.211-2.605,3.968-9.3C74.469,259.382,70.7,261.146,70.3,264.072Z" transform="translate(-42.124 -234.802)"/>
      <path id="Path_535" data-name="Path 535" class="cls-33" d="M78.862,322.713c-.12-.762-2.2-4.81-4.369-8.417-2.044-3.407-4.209-8.738-5.692-7.135-1.443,1.6-2.245,3.247-.962,4.89a130.583,130.583,0,0,1,7.215,13.508C75.415,326.6,79.183,324.517,78.862,322.713Z" transform="translate(-40.264 -262.42)"/>
      <path id="Path_536" data-name="Path 536" class="cls-34" d="M59.9,488.388s6.413,1.683,6.493,3.848c.08,1.483-1.243,2.084-4.128,1.924-1.323-.08-6.373-2.686-6.774-3.407-.441-.721.281-3.167.281-3.167S59.054,487.145,59.9,488.388Z" transform="translate(-33.162 -370.657)"/>
      <path id="Path_537" data-name="Path 537" class="cls-23" d="M59.438,437.823s.4-12.065.521-18.278c.12-5.531.762-14.149-.882-14.55-2.726-.681-4.529,1.042-5.01,8.337-.4,6.333.681,23.769.681,24.45C54.748,439.186,59.157,439.547,59.438,437.823Z" transform="translate(-32.344 -321.134)"/>
      <path id="Path_538" data-name="Path 538" class="cls-23" d="M57.818,385.676s1.683-19.2,1.844-24.731c.2-5.612-.08-7.175-1.764-7.335-1.643-.12-7.816-1.964-6.774,4.609.8,5.211,1,24.691,1.082,25.292C52.286,384.153,57.5,387.239,57.818,385.676Z" transform="translate(-30.563 -290.23)"/>
      <path id="Path_539" data-name="Path 539" class="cls-35" d="M56.76,488.281a4.13,4.13,0,0,0,3.607-.681c1.483.481,5.491,2.2,5.892,3.688.361,1.443-1,2-3.888,1.844-1.323-.08-6.533-2.645-6.974-3.367a3.832,3.832,0,0,1,.04-2.124A3.385,3.385,0,0,0,56.76,488.281Z" transform="translate(-33.112 -370.71)"/>
      <path id="Path_540" data-name="Path 540" class="cls-36" d="M64.419,485.031s.641-1.764.16-1.844a8.033,8.033,0,0,0-2.886.681c-.281.281-.08,1.884.12,2.2C62.014,486.354,63.817,485.552,64.419,485.031Z" transform="translate(-36.883 -368.061)"/>
      <path id="Path_541" data-name="Path 541" class="cls-36" d="M57.418,486.386a7.993,7.993,0,0,0-2.365-1.6c-.561-.16-.16,1.363-.16,1.363S57.7,487.508,57.418,486.386Z" transform="translate(-32.809 -369.015)"/>
      <g id="Group_681" data-name="Group 681" transform="translate(27.703 117.758)">
        <path id="Path_542" data-name="Path 542" class="cls-37" d="M69.272,491.463c-.12-.08-.2-.2-.12-.281h0a6.759,6.759,0,0,1,.681-.8h0a1.886,1.886,0,0,1,1.764-.561h0c.12.04.24.16.2.281h0c-.04.12-.16.16-.321.12h0a1.5,1.5,0,0,0-1.283.481h0a3.055,3.055,0,0,0-.641.721h0a.291.291,0,0,1-.321.08h0c.08-.04.08-.04.04-.04Z" transform="translate(-69.119 -489.766)"/>
      </g>
      <g id="Group_682" data-name="Group 682" transform="translate(26.603 117.108)">
        <path id="Path_543" data-name="Path 543" class="cls-37" d="M66.545,489.891a.228.228,0,0,1-.16-.281h0a5.847,5.847,0,0,1,.6-.8h0a2.007,2.007,0,0,1,1.724-.641h0q.24.06.24.241h0c0,.12-.16.16-.281.12h0a1.39,1.39,0,0,0-1.2.521h0a3.658,3.658,0,0,0-.561.721h0a.23.23,0,0,1-.281.08h0l-.08.04Z" transform="translate(-66.374 -488.146)"/>
      </g>
      <g id="Group_685" data-name="Group 685" transform="translate(12.426 65.056)">
        <path id="Path_544" data-name="Path 544" class="cls-34" d="M39.9,493.388s6.413,1.683,6.493,3.848c.08,1.483-1.243,2.084-4.128,1.924-1.323-.08-6.373-2.686-6.774-3.407-.441-.721.281-3.167.281-3.167S39.054,492.146,39.9,493.388Z" transform="translate(-33.605 -438.709)"/>
        <path id="Path_545" data-name="Path 545" class="cls-23" d="M39.42,442.646s.321-11.985.521-18.278c.16-5.531,1.042-14.269-.6-14.67-2.726-.681-4.97,1.082-5.331,8.417-.321,6.694.721,23.849.721,24.53C34.73,444.009,39.139,444.37,39.42,442.646Z" transform="translate(-32.768 -389.009)"/>
        <path id="Path_546" data-name="Path 546" class="cls-23" d="M37.818,390.676s1.683-19.2,1.844-24.731c.2-5.612-.08-7.175-1.764-7.335-1.643-.12-7.816-1.964-6.774,4.609.8,5.211,1,24.691,1.082,25.292C32.286,389.153,37.5,392.239,37.818,390.676Z" transform="translate(-31.006 -358.282)"/>
        <path id="Path_547" data-name="Path 547" class="cls-35" d="M36.76,493.281a4.13,4.13,0,0,0,3.607-.681c1.483.481,5.491,2.2,5.892,3.688.361,1.443-1,2-3.888,1.844-1.323-.08-6.533-2.645-6.974-3.367a3.832,3.832,0,0,1,.04-2.124A3.385,3.385,0,0,0,36.76,493.281Z" transform="translate(-33.555 -438.762)"/>
        <path id="Path_548" data-name="Path 548" class="cls-36" d="M44.419,490.031s.641-1.764.16-1.844a8.034,8.034,0,0,0-2.886.681c-.281.281-.08,1.884.12,2.2C42.014,491.354,43.817,490.552,44.419,490.031Z" transform="translate(-37.326 -436.113)"/>
        <path id="Path_549" data-name="Path 549" class="cls-36" d="M37.918,492.386a7.993,7.993,0,0,0-2.365-1.6c-.561-.16-.16,1.363-.16,1.363S38.2,493.508,37.918,492.386Z" transform="translate(-33.551 -437.666)"/>
        <g id="Group_683" data-name="Group 683" transform="translate(7.26 54.706)">
          <path id="Path_550" data-name="Path 550" class="cls-37" d="M49.272,496.463c-.12-.08-.2-.2-.12-.281h0a6.76,6.76,0,0,1,.681-.8h0a1.886,1.886,0,0,1,1.764-.561h0c.12.04.24.16.2.281h0c-.04.12-.16.16-.321.12h0a1.5,1.5,0,0,0-1.283.481h0a3.056,3.056,0,0,0-.641.722h0a.29.29,0,0,1-.321.08h0c.08-.04.08-.04.04-.04Z" transform="translate(-49.119 -494.766)"/>
        </g>
        <g id="Group_684" data-name="Group 684" transform="translate(6.16 54.057)">
          <path id="Path_551" data-name="Path 551" class="cls-37" d="M46.545,494.891a.228.228,0,0,1-.16-.281h0a5.847,5.847,0,0,1,.6-.8h0a2.008,2.008,0,0,1,1.724-.641h0q.24.06.24.241h0c0,.12-.16.16-.281.12h0a1.39,1.39,0,0,0-1.2.521h0a3.658,3.658,0,0,0-.561.721h0a.23.23,0,0,1-.281.08h0l-.08.04Z" transform="translate(-46.374 -493.146)"/>
        </g>
      </g>
      <path id="Path_552" data-name="Path 552" class="cls-38" d="M66.58,307.737s-4.609-9.339-5.451-9.981c-3.086-2.245-8.137-4.088-9.179-2.525-1.042,1.6,3.086,4.609,4.048,6.093s4.409,9.54,4.409,9.54S66.82,308.378,66.58,307.737Z" transform="translate(-31.028 -255.099)"/>
      <path id="Path_553" data-name="Path 553" class="cls-39" d="M42.329,295.053c-.12-.561-6.333-1.8-7.776-1.964s-7.616,2.445-8.538,3.327c-.481.441-1.243,7.295-1.323,13.748-.08,6.533.8,19.119.8,19.24,0,1.162,19.039.281,19.52-.521C45.295,328.362,44.493,305.154,42.329,295.053Z" transform="translate(-14.794 -254.16)"/>
      <path id="Path_554" data-name="Path 554" class="cls-33" d="M48.831,286.132a54.857,54.857,0,0,0,.12-5.692l-5.291-.04-.16,5.852S46.667,287.775,48.831,286.132Z" transform="translate(-26.066 -246.561)"/>
      <path id="Path_555" data-name="Path 555" class="cls-1" d="M43.874,232.32c.16,7.7-6.974,15.151-12.987,15.231-8.257.08-15.031-8.257-15.191-15.953s6.774-13.267,15.151-13.508C39.184,217.85,43.674,224.624,43.874,232.32Z" transform="translate(-9.405 -209.223)"/>
      <path id="Path_556" data-name="Path 556" class="cls-40" d="M63.9,247.9a16.33,16.33,0,0,1,3.126.321,21.837,21.837,0,0,1,2.4.842l-.481.561a9.862,9.862,0,0,1-1.884-.321,14.067,14.067,0,0,0-3.086-.2Z" transform="translate(-38.289 -227.088)"/>
      <path id="Path_557" data-name="Path 557" class="cls-41" d="M4.462,227.009a27.037,27.037,0,0,1,5.211-11.343c3.367-4.008,5.371-6.894,5.371-6.894s.08-6.052-.321-5.972C13.64,203,7.828,204,4.7,211.417,2.177,217.429,3.459,225.085,4.462,227.009Z" transform="translate(-1.938 -200.064)"/>
      <g id="Group_686" data-name="Group 686" transform="translate(26.373 17.362)">
        <path id="Path_558" data-name="Path 558" class="cls-42" d="M66.2,240.138a.43.43,0,0,1-.24-.08h0a.5.5,0,0,1-.16-.321h0a.439.439,0,0,1,.4-.441h0a2.8,2.8,0,0,1,1.724.441h0a.387.387,0,0,1,.04.561h0a.366.366,0,0,1-.561.08h0l-.08-.04h0a3.438,3.438,0,0,0-1.122-.2Zm1.2.321Z" transform="translate(-65.8 -239.294)"/>
      </g>
      <path id="Path_559" data-name="Path 559" class="cls-32" d="M4.2,241.158s.882,6.413.24,7.816c-.521,1.082,8.978-4.289,7.976-11.464C11.976,234.5,5.042,238.112,4.2,241.158Z" transform="translate(-2.518 -220.186)"/>
      <path id="Path_560" data-name="Path 560" class="cls-41" d="M27.566,201.315c3.287-1.724,16.033-3.567,21.484,5.892,4.008,6.934,1.363,11.143,4.529,15.752-.16-.281-3.648-.481-8.738-4.128a43.194,43.194,0,0,0-5.732-3.207l5.652,4.85c.361.481-10.3-2.766-12.746-8.1-2.4-1.042-4.169-1.764-4.169-1.764S26.163,202.076,27.566,201.315Z" transform="translate(-16.184 -198.34)"/>
      <path id="Path_561" data-name="Path 561" class="cls-43" d="M24.627,197.429c1.764-1.8,5.01-1.884,6.453-.481l-6.734,1.924A1.839,1.839,0,0,1,24.627,197.429Z" transform="translate(-14.568 -195.977)"/>
      <path id="Path_562" data-name="Path 562" class="cls-44" d="M35.836,211.859c-9.62-1.483-28.418,2.926-34.752,7.415-.721-3.928-5.451-16.995,12.786-21.164C33.551,193.622,34.914,207.931,35.836,211.859Z" transform="translate(-0.004 -196.739)"/>
      <path id="Path_563" data-name="Path 563" class="cls-45" d="M48.342,221.049s5.01-2.285,4.85-4.97-2.445-2.846-3.407-3.207c-2.084-.8-11.824-.08-15.632.6-4.369.762-7.415,2.285-10.5,6.894-3.126,4.609-2.445,4.609-2.445,4.609S40.726,219.366,48.342,221.049Z" transform="translate(-12.67 -205.889)"/>
      <path id="Path_564" data-name="Path 564" class="cls-1" d="M18.038,257.717c.16,1.683-.24,2.846-1.523,3.046-1.323.2-3.607-.922-3.768-2.605s.2-3.086,1.523-3.287C15.513,254.67,17.877,256.033,18.038,257.717Z" transform="translate(-7.618 -231.253)"/>
      <path id="Path_565" data-name="Path 565" class="cls-40" d="M39.331,247.4a18.6,18.6,0,0,0-3.126.281,17.238,17.238,0,0,0-2.4.8l.441.561a11.834,11.834,0,0,0,1.884-.281,13.2,13.2,0,0,1,3.086-.16Z" transform="translate(-20.254 -226.788)"/>
      <path id="Path_566" data-name="Path 566" class="cls-46" d="M55.743,262.958c.12.04-.281-.08-.4,0,1.082.762,2.124,1.4,1.844,1.8-.4.641-1.483.882-2.886.641l.12.12c.521.281,2.886.481,3.367-.361C58.428,264.16,55.7,262.958,55.743,262.958Z" transform="translate(-32.537 -236.093)"/>
      <path id="Path_567" data-name="Path 567" class="cls-47" d="M69.122,258.061c-.04.962-.641,1.724-1.323,1.684-.681,0-1.243-.8-1.2-1.764s.641-1.724,1.323-1.684A1.549,1.549,0,0,1,69.122,258.061Z" transform="translate(-39.904 -232.119)"/>
      <path id="Path_568" data-name="Path 568" class="cls-47" d="M42.325,258.081c0,.962-.521,1.724-1.243,1.764-.681.04-1.283-.721-1.283-1.683s.521-1.724,1.243-1.764C41.724,256.358,42.325,257.119,42.325,258.081Z" transform="translate(-23.849 -232.179)"/>
      <path id="Path_569" data-name="Path 569" class="cls-1" d="M90.012,324.765l-.8-13.067c-.441-1.2-2.325-.08-2.645.441L84.961,324c-.16,2.164.4,5.772,2.445,5.451C90.333,328.974,90.012,324.765,90.012,324.765Z" transform="translate(-50.893 -264.993)"/>
      <g id="Group_687" data-name="Group 687" transform="translate(26.693 31.233)">
        <path id="Path_570" data-name="Path 570" class="cls-17" d="M71.931,274.181a6.681,6.681,0,0,1-1.683.361,5.767,5.767,0,0,1-3.086-.641l-.561.922a7.165,7.165,0,0,0,3.688.8h0a7.816,7.816,0,0,0,1.884-.361A5.249,5.249,0,0,1,71.931,274.181Z" transform="translate(-66.6 -273.9)"/>
      </g>
      <g id="Group_688" data-name="Group 688" transform="translate(27.896 38.43)">
        <path id="Path_571" data-name="Path 571" class="cls-1" d="M69.961,291.873c.24.08,3.567,1.483,4.008,1.643a26.289,26.289,0,0,1,3.247,1.884c.281.281,2.285,3.648,2.806,4.529a.678.678,0,0,1-.681.922c0,.281-1.122,1.082-1.122,1.082-.281-.12-4.369-2.285-4.69-2.445-.2-.12-1.4-.962-2.365-1.6a3.152,3.152,0,0,1-.321-1.042c.6.321,1.4.8,1.4.8s-.681-.481-1.4-1.042a9.412,9.412,0,0,1-.04-1.042v-.08c.08.04.12.08.16.08.2.12,1.8.922,1.844.922.361.08-1.122-.922-1.683-1.323a3.541,3.541,0,0,1-.441-.321,1.432,1.432,0,0,1,0-1,.14.14,0,0,1,.04-.08c.241.12.441.24.521.281.24.16,2.525,1.2,2.686,1.283a15.321,15.321,0,0,0-1.643-1.363c-.241-.16-2.645-1.6-2.686-1.643C69.6,292.274,69.68,291.753,69.961,291.873Z" transform="translate(-69.6 -291.855)"/>
      </g>
      <path id="Path_572" data-name="Path 572" class="cls-48" d="M23.3,317.153s2.686,13.909,4.008,14.43,4.449.8,3.688-3.808c-.521-3.327-3.046-11.424-3.046-11.424S23.861,316.07,23.3,317.153Z" transform="translate(-13.962 -268.083)"/>
      <path id="Path_573" data-name="Path 573" class="cls-1" d="M32.045,320.78,39.3,308.274c.922-.2,2.044,1.4,1.844,1.884l-3.688,12.426c-.842,2.2-3.086,5.932-5.01,4.609C29.76,325.349,32.045,320.78,32.045,320.78Z" transform="translate(-18.659 -263.252)"/>
      <path id="Path_574" data-name="Path 574" class="cls-39" d="M20.982,314.221c-.561.08-1.323-10.021.281-11.9a7.8,7.8,0,0,1,3.487-2.726c.882-.321,3.327,11.624,3.327,11.624S22.986,313.94,20.982,314.221Z" transform="translate(-12.165 -258.056)"/>
      <g id="Group_689" data-name="Group 689" transform="translate(19.398 32.236)">
        <path id="Path_575" data-name="Path 575" class="cls-17" d="M48.4,277.442l.04-.16-.04.16.08-1.042c.12,0,.16.04.281.04h0c.12.04.281.04.481.08h0c.4.08.962.12,1.6.2h0a13.989,13.989,0,0,0,3.367-.12h0l.12,1.042a18.54,18.54,0,0,1-3.567.12h0c-1.283-.12-2.2-.321-2.365-.321Z" transform="translate(-48.4 -276.4)"/>
      </g>
      <path id="Path_576" data-name="Path 576" class="cls-18" d="M70.06,286.914a1.868,1.868,0,0,1-1.764,2l-5.571.842c-.962,0-2.325-1.924-2.325-3.006l.521-14.149a1.868,1.868,0,0,1,1.764-2l5.972.2c1.243-.04,2.686.842,2.726,1.924Z" transform="translate(-36.192 -240.689)"/>
      <path id="Path_577" data-name="Path 577" class="cls-19" d="M72.22,289.614a1.868,1.868,0,0,1-1.764,2l-6.093-.16a1.92,1.92,0,0,1-1.764-2l.521-14.149a1.868,1.868,0,0,1,1.764-2l6.093.16a1.92,1.92,0,0,1,1.764,2Z" transform="translate(-37.51 -242.307)"/>
      <path id="Path_578" data-name="Path 578" class="cls-20" d="M75.064,280.6a.889.889,0,1,1-.882-1A.921.921,0,0,1,75.064,280.6Z" transform="translate(-43.921 -246.082)"/>
      <path id="Path_579" data-name="Path 579" class="cls-1" d="M51.928,302.514s-.922-.441-1.122-.842a.811.811,0,0,1-.08-.721,31.806,31.806,0,0,1,1.844-3.447c.521-.521,2.084-2.365,2.245-2.4a8.748,8.748,0,0,1-.08,2.245c-.04.2,2.164-.12,2.605-.16s2.365-.721,2.726-.8a10.482,10.482,0,0,1,1.844-.361c.16.08.321.521.2.6-.12.04-2.365.922-2.365.922s-2.2.681-2.2.762,2.044-.16,2.245-.16,2.245-.521,2.365-.521c.16.04.12.4,0,.561a12.653,12.653,0,0,1-2.164.8c-.2.04-1.964.681-1.964.681s1.884-.08,2.084-.12c.2,0,1.483-.321,1.6-.321.12.04.12.521,0,.6s-.922.361-.922.361l-.842.24s.561-.12.561,0a1.952,1.952,0,0,1-.441.721,17.339,17.339,0,0,1-2.084.641C57.82,301.793,53.05,302.474,51.928,302.514Z" transform="translate(-30.365 -255.368)"/>
    </g>
  </g>
</svg>
