<svg xmlns="http://www.w3.org/2000/svg" viewBox="0 0 113.759 127.103">
    <defs>
        <style>
            .cls-1{fill:#fdc68b}.cls-2{opacity:.1}.cls-3{fill:#965136}.cls-4{fill:#7cbadb}.cls-5{fill:#7bbfde}.cls-6{fill:#248bb9}.cls-45,.cls-7{fill:#853694}.cls-8{fill:#d0a46f}.cls-9{fill:#eda567}.cls-10{fill:#fbb477}.cls-11{fill:#d17e54}.cls-12{fill:#814a28}.cls-13{fill:#cb8253}.cls-14{fill:#bf8144}.cls-15{fill:#ffd89e}.cls-16{fill:#f6a2b2}.cls-17{fill:#de7967}.cls-18,.cls-34{fill:#fff}.cls-19{fill:#ccdde7}.cls-20{fill:#7c9dad}.cls-21{fill:#d09a41}.cls-22{fill:#f9a66b}.cls-23{fill:#f58520}.cls-24{fill:#d0a062}.cls-25{fill:#aa7028}.cls-26{fill:#bdc1c4}.cls-27{fill:#b77e37}.cls-28{fill:#814e1e}.cls-29{fill:#af6c33}.cls-30{fill:#d48657}.cls-31{fill:#9cb4c0}.cls-32,.cls-41{fill:#b45f17}.cls-33,.cls-48{fill:#f0ac73}.cls-33,.cls-34,.cls-35,.cls-38,.cls-39,.cls-41,.cls-43,.cls-44,.cls-45{fill-rule:evenodd}.cls-35,.cls-36{fill:#8e522e}.cls-37{fill:#fffcdd}.cls-38{fill:#35a4bc}.cls-39{fill:#76b4e3}.cls-40{fill:#c17437}.cls-42{fill:#bd8e59}.cls-43{fill:#b8e1dc}.cls-44{fill:#dff3fd}.cls-46{fill:#df9168}.cls-47{fill:#643717}
        </style>
    </defs>
    <g id="family_vector" data-name="family vector" transform="translate(-.004 .011)">
        <g id="Group_676" data-name="Group 676" transform="translate(28.698 5.708)">
            <path id="Rectangle_1052" d="M0 0h12.205v12.924H0z" class="cls-1" data-name="Rectangle 1052" transform="translate(10.401 44.071)"/>
            <g id="Group_671" data-name="Group 671" transform="translate(0 50.644)">
                <path id="Path_439" d="M122.9 494.732c.025 1.389 6.673 2.332 14.81 2.084s14.71-1.563 14.686-2.952-6.673-2.332-14.81-2.084-14.711 1.563-14.686 2.952z" class="cls-2" data-name="Path 439" transform="translate(-121.107 -426.116)"/>
                <path id="Path_440" d="M190.649 482.8l-.149 3.151s4.341.843 7.665 1.513c.3.05 3.324-.2 3.671-.174.223 0 .05-.62.05-.62s-8.534-3.547-8.211-3.547c.348-.001-3.026-.323-3.026-.323z" class="cls-3" data-name="Path 440" transform="translate(-171.938 -419.393)"/>
                <path id="Path_441" d="M199.884 481.492a4.339 4.339 0 0 1-2.53.347c-2.63-.248-6.45-1.24-6.5-1.513-.074-.447.149-3.126.149-3.126s7.197 3.622 8.881 4.292z" class="cls-1" data-name="Path 441" transform="translate(-172.192 -415.183)"/>
                <path id="Path_442" d="M126.942 485.2l.149 1.861.05 1.389s-4.341.843-7.69 1.488c-.3.05-3.324-.223-3.671-.2-.223 0-.025-.695-.025-.695s8.534-3.448 8.186-3.448c-.324.005 3.001-.395 3.001-.395z" class="cls-3" data-name="Path 442" transform="translate(-115.672 -421.198)"/>
                <path id="Path_443" d="M125.181 484.092a6.787 6.787 0 0 0 2.828.149 26.614 26.614 0 0 0 6.2-1.24c0-.471-.149-3.1-.149-3.1s-7.192 3.522-8.879 4.191z" class="cls-1" data-name="Path 443" transform="translate(-122.818 -417.213)"/>
                <path id="Path_444" d="M191.816 452.4c-.372.05-.744.124-1.116.174l.223 8.285c.843.248 1.563.744 2.307.124l.769-8.509z" class="cls-1" data-name="Path 444" transform="translate(-172.088 -396.535)"/>
                <path id="Path_445" d="M150.5 456.123l.223 7.839a3.064 3.064 0 0 0 2.357-.223l.794-7.839c-1.141.1-2.258.174-3.374.223z" class="cls-1" data-name="Path 445" transform="translate(-141.86 -399.167)"/>
                <path id="Path_446" d="M190.106 238.983a23.091 23.091 0 0 0-4.837-11.783 33.988 33.988 0 0 1-5.73.571c-.273 0-.571 0-.843-.025L178 241.737a3.1 3.1 0 0 1 2.381 2.208l-.074 19.622.744 23.641a12.18 12.18 0 0 0 3.25.422c.05-.2.868.273.893.1.4-1.513-.124.843.223-.695.67-3.076 1.265-11.734 1.712-14.859.893-6.053 1.588-11.089 2.307-17.191.62-5.31 1.042-13.025.67-16.002z" class="cls-4" data-name="Path 446" transform="translate(-162.538 -227.2)"/>
                <path id="Path_447" d="M152.569 228.3c-1.637 0-3.275-.124-4.912-.223a11.529 11.529 0 0 1-1.861-.174 39.8 39.8 0 0 0-2.555 13.123c-.322 5.954-.422 11.907-.521 17.861-.124 6.251-.05 12.5-.4 18.754-.124 2.059.124 7.963 0 10.022l-.223.149a9.136 9.136 0 0 0 2.332.571 8.492 8.492 0 0 0 2.853-.025l2.778-22.227 2.9-20.441a5.1 5.1 0 0 1 1.836-2.778l-1.439-14.636c-.292.024-.54.024-.788.024z" class="cls-4" data-name="Path 447" transform="translate(-135.544 -227.726)"/>
                <path id="Path_448" d="M163.214 238.1a3.958 3.958 0 0 0 1.985 2.828 6.617 6.617 0 0 0 2.406.2c-.074-.223-.124-.471-.2-.695a5.873 5.873 0 0 1-2.109-.223c-.695-.2-1.166-1.265-1.414-2.332a11.451 11.451 0 0 1-.273-1.761c.521-.124 1.116-.322 1.712-.521a8.548 8.548 0 0 0-.5-.794 31.052 31.052 0 0 1-5.978.967l-.422-.025v.025c-.2 0-.6.05-.819.05-2.332 0-4.44-.4-6.3-.546a3.7 3.7 0 0 0-.521-.05v.1s-.05-.1-.05-.074a3.88 3.88 0 0 1-.5-.074c-.074.248-.149.5-.223.769a7.342 7.342 0 0 0 .769.074v.918a4.311 4.311 0 0 1-1.216 2.7 1.467 1.467 0 0 1-.447.223c-.05.248-.074.471-.124.719a4.214 4.214 0 0 0 .943-.447 4.9 4.9 0 0 0 1.414-3.126 5.958 5.958 0 0 0 0-.943c1.34.1 2.878.447 4.54.5.025.347.05.819.074 1.364.1 1.29.05 3 .248 4.316.521 3.349 2.034 4.168 2.059 4.192l.3.174.248-10.022c1.464-.025 2.679-.273 3.969-.347.057.322.256 1.066.429 1.861zm-5.185 7.144a4.939 4.939 0 0 1-1.042-2.431 35.057 35.057 0 0 1-.4-4.862c-.025-.521 0-1.042 0-1.389.744.025.819 0 1.116 0 .174 0 .347.025.521.025z" class="cls-5" data-name="Path 448" transform="translate(-140.732 -232.915)"/>
                <path id="Path_449" d="M181.294 231.6h-.273a.693.693 0 0 0 .149 1.364.668.668 0 0 0 .645-.695.721.721 0 0 0-.521-.669z" class="cls-6" data-name="Path 449" transform="translate(-164.418 -230.508)"/>
                <path id="Path_450" d="M202.264 332.573a2.218 2.218 0 0 0 1.141-.868 13.424 13.424 0 0 0-1.414 0 12.256 12.256 0 0 1 1.116-.868c-.571-.05-1.141.223-1.736.2.5-.67 1.116-1.24 1.588-1.935-.868.372-1.736.794-2.555 1.24-.843.447-2.481 1.116-3.026 1.861.025 0 .025-.025.05-.025l-.1.1c.025-.025.025-.05.05-.074a.982.982 0 0 0-.5.918 2.872 2.872 0 0 1 1.216.124c-.273.248-.67.5-.769.843.322 0 .645 0 .967.025a7.251 7.251 0 0 0-.521 1.513c1.662-1.24 3.87-1.985 5.681-3.076-.37-.003-.791.022-1.188.022z" class="cls-5" data-name="Path 450" transform="translate(-176.731 -303.822)"/>
                <path id="Path_451" d="M154 397.548c.819.62 1.91.719 2.8 1.265a7.036 7.036 0 0 0-2.133.5 4.531 4.531 0 0 0 2.233.67c-.62.422-1.538.347-2.233.67 1.191.025 2.307.248 3.473.223.174-1.24.248-2.481.372-3.473v-.1c-1.089.543-3.321-.425-4.512.245z" class="cls-5" data-name="Path 451" transform="translate(-144.492 -355.103)"/>
                <path id="Path_452" d="M141.118 462.492c-.248-.1-.124 2.555.323 2.828a22.273 22.273 0 0 0 4.961.5 9.932 9.932 0 0 0 .347-2.828c-.049-.153-3.497.294-5.631-.5z" class="cls-5" data-name="Path 452" transform="translate(-134.711 -404.121)"/>
                <path id="Path_453" d="M194.954 465.021c.273-.074-.074 2.58-.521 2.778a22.463 22.463 0 0 1-4.986.05 9.953 9.953 0 0 1-.149-2.828c.05-.174 3.448.595 5.656 0z" class="cls-5" data-name="Path 453" transform="translate(-171.009 -406.005)"/>
            </g>
            <path id="Path_454" d="M126.72 160.828a3.019 3.019 0 0 1-2.381.174 5.183 5.183 0 0 1-1.439-1.24c1.216-6.847 3.374-16.2 3.547-16.819a4.036 4.036 0 0 1 3.374-3.15c1.662-.149 1.637 6.078 1.811 7.144-.422.893-2.58 8.31-4.068 13.569-.323.124-.596.248-.844.322z" class="cls-7" data-name="Path 454" transform="translate(-121.107 -110.829)"/>
            <path id="Path_455" d="M133.824 47.642c-.347.347-2.927.744-2.481 3.275a58.638 58.638 0 0 1 .546 9c-.1 1.538-.422 5.259 1.017 6.9 1.439 1.612 9 .571 10.518.174 1.513-.422 6.053-1.141 8.459-.248s5.036-4.49 4.44-6.152c-.623-1.637-15.553-19.891-22.499-12.949z" class="cls-8" data-name="Path 455" transform="translate(-127.417 -40.36)"/>
            <path id="Path_456" d="M162.8 135.881a25.755 25.755 0 0 0-5.532-1.637c-2.654-.4-3.374-.744-4.986-.744a44.77 44.77 0 0 0-8.037 2.009c-.546.4-.347 6.822-.347 6.822s.992 12.974 1.414 13.048c5.185.719 16.1-.025 16.794-.223.273-.074.719-13.024.719-13.024z" class="cls-7" data-name="Path 456" transform="translate(-136.866 -106.1)"/>
            <path id="Path_457" d="M169.369 134.261a47.839 47.839 0 0 0-5.854-.893c-.943.124-4.515.992-4.515.992s4.639 4.416 5.16 4.292c.496-.152 5.705-3.324 5.209-4.391z" class="cls-9" data-name="Path 457" transform="translate(-148.252 -105.993)"/>
            <path id="Path_458" d="M211.244 162.032c.149-.992.992-.074 1.761-.372.571-.223.918-1.092 1.389-1.513-.6-6.921-4.168-15.008-4.391-15.653a4.141 4.141 0 0 0-2.7-2.729c-1.637-.3-2.952 5.259-3.2 6.3.323.918 3.895 6.9 4.937 12.279.319.15 2.08 2.681 2.204 1.688z" class="cls-7" data-name="Path 458" transform="translate(-182.164 -112.306)"/>
            <path id="Path_459" d="M173.088 103.752c-.62-.223-1.389.1-1.588-.521l.62-12.031 4.465.372.174 11.386c-.769.918-1.687 1.489-3.671.794z" class="cls-9" data-name="Path 459" transform="translate(-157.651 -74.293)"/>
            <path id="Path_460" d="M203.859 76.948c-.5 1.612-.372 2.8.744 3.1a3.729 3.729 0 0 0 3.919-2.183c.5-1.612 0-3.175-1.116-3.5-1.14-.295-3.051.97-3.547 2.583z" class="cls-10" data-name="Path 460" transform="translate(-181.774 -61.604)"/>
            <path id="Path_461" d="M155.2 38.823c1.141 6.152-1.538 14.413-6.946 15.43-7.174 1.364-12.111-5.706-13.254-11.858-1.191-6.152 3.15-11.461 9.278-12.6 6.105-1.168 9.751 2.876 10.922 9.028z" class="cls-10" data-name="Path 461" transform="translate(-130.059 -27.969)"/>
            <path id="Path_462" d="M173.134 91.9c-.124.025.223 0 .3.1-1.017.62-2.059 1.588-1.935 2.034.2.695 1.116.645 2.307.6-.025.05-.074.1-.1.1-.5.2-2.53.546-2.778-.4-.3-1.07 2.231-2.434 2.206-2.434z" class="cls-11" data-name="Path 462" transform="translate(-157.201 -74.819)"/>
            <path id="Path_463" d="M156.9 86.661c.025.794.471 1.414.967 1.389s.893-.67.843-1.464c-.025-.794-.471-1.414-.967-1.389s-.871.695-.843 1.464z" class="cls-12" data-name="Path 463" transform="translate(-146.669 -69.779)"/>
            <path id="Path_464" d="M193.487 85.261c.025.794.471 1.414.967 1.389s.893-.67.843-1.464c-.025-.794-.471-1.414-.967-1.389s-.892.695-.843 1.464z" class="cls-12" data-name="Path 464" transform="translate(-174.181 -68.727)"/>
            <path id="Path_465" d="M154.592 75.146a13.646 13.646 0 0 0-2.357-.05 11.492 11.492 0 0 0-1.836.422l.3.5a6.943 6.943 0 0 0 1.439-.074 9.565 9.565 0 0 1 2.307.149z" class="cls-13" data-name="Path 465" transform="translate(-141.785 -62.159)"/>
            <path id="Path_466" d="M189.6 73.668a11.271 11.271 0 0 1 2.332-.273 12.577 12.577 0 0 1 1.885.223l-.248.521a6.2 6.2 0 0 1-1.439.074 10.667 10.667 0 0 0-2.282.372z" class="cls-13" data-name="Path 466" transform="translate(-171.261 -60.904)"/>
            <path id="Path_467" d="M139.4 49.4h.05c.025.025.074.05.1.074z" class="cls-14" data-name="Path 467" transform="translate(-133.514 -42.862)"/>
            <path id="Path_468" d="M140 49.7l.645.347A2.594 2.594 0 0 1 140 49.7z" class="cls-14" data-name="Path 468" transform="translate(-133.965 -43.088)"/>
            <path id="Path_469" d="M134.27 83.354c.868 1.464 1.017 2.63 0 3.2a3.753 3.753 0 0 1-4.316-1.216c-.868-1.464-.744-3.1.3-3.671.989-.546 3.146.223 4.016 1.687z" class="cls-10" data-name="Path 469" transform="translate(-125.978 -66.992)"/>
            <path id="Path_470" d="M154.563 35.736c-.521-1.563-.695-3.647-1.141-5.16a3.217 3.217 0 0 0-.2-.843 8.618 8.618 0 0 0-7.417-6.425c-4.292-.67-8.161-.074-9.972 2.034a.186.186 0 0 0-.025.124 5.439 5.439 0 0 0-3.547 1.91c-1.166 1.265-1.662 3.349-1.662 6.152 0 0 .025 3.895.744 4.192a5.569 5.569 0 0 1 1.836 1.687s.992-5.036 2.977-7.343c1.985-2.332 1.216-1.538 1.712-2.431a1.246 1.246 0 0 0 .124-.322 1.541 1.541 0 0 0 .248.074 3.659 3.659 0 0 0 .719.794c1.116.893 8.459 6.3 12.726 8.806a16.563 16.563 0 0 1-.471 4.217c-.6 1.712-.67 6.971-.124 7.963s6.1-3.523 6.251-7.07c.175-3.595-1.984-6.028-2.778-8.359z" class="cls-15" data-name="Path 470" transform="translate(-126.897 -23.046)"/>
            <path id="Path_471" d="M154.7 39.8l1.612 3.746.769-.5z" class="cls-10" data-name="Path 471" transform="translate(-145.018 -35.644)"/>
            <g id="Group_672" data-name="Group 672" transform="translate(1.242 33.806)">
                <path id="Path_472" d="M122.145 170.654l6.7-11.312c.819-.2 1.885 1.191 1.712 1.612l-2.9 11.287c-.67 2.009-2.58 5.408-4.341 4.316-2.486-1.562-1.171-5.903-1.171-5.903z" class="cls-1" data-name="Path 472" transform="translate(-121.52 -159.322)"/>
                <path id="Path_473" d="M128.351 190.375a8.132 8.132 0 0 1-3.274-1.265 6.643 6.643 0 0 1-1.836-2.009l-2.332 4.192s-1.067 5.284 1.414 6.822c1.761 1.092 4.465-2.357 5.135-4.366z" class="cls-7" data-name="Path 473" transform="translate(-120.681 -180.209)"/>
                <path id="Path_474" d="M129.185 181.773a10.656 10.656 0 0 0-1.885 2.53 7.407 7.407 0 0 0 2.778 2.878 9.982 9.982 0 0 0 2.977.744 28.586 28.586 0 0 0 .868-3.225c-.074-.223-3.671-.744-4.738-2.927z" class="cls-16" data-name="Path 474" transform="translate(-125.658 -176.197)"/>
            </g>
            <g id="Group_673" data-name="Group 673" transform="translate(23.524 34.52)">
                <path id="Path_475" d="M218.389 172.52l-6.177-10.32c-.124 1.736-.223 1.166-1.712 1.885l3 10.2c.67 1.811 2.505 4.837 4.044 3.721 2.184-1.592.845-5.486.845-5.486z" class="cls-1" data-name="Path 475" transform="translate(-210.5 -162.2)"/>
                <path id="Path_476" d="M217.5 192.8a9.044 9.044 0 0 0 3.051-1.712 3.546 3.546 0 0 0 1.315-1.488l2.506 3.25s1.141 4.788-1.042 6.351c-1.538 1.116-4.341-1.935-5.011-3.746z" class="cls-7" data-name="Path 476" transform="translate(-215.764 -182.803)"/>
                <path id="Path_477" d="M218.312 182.878a9.91 9.91 0 0 1 1.811 2.282 9.585 9.585 0 0 1-2.8 2.828 6.992 6.992 0 0 1-2.233.819 27.678 27.678 0 0 1-.893-2.927c.072-.224 3.247-.918 4.115-3.002z" class="cls-16" data-name="Path 477" transform="translate(-213.276 -177.743)"/>
            </g>
            <g id="Group_674" data-name="Group 674" transform="translate(13.303 22.017)">
                <path id="Path_478" d="M173.79 111.874a4.914 4.914 0 0 1-1.414.347 5.167 5.167 0 0 1-2.63-.422l-.447.794a5.841 5.841 0 0 0 3.126.546 5.743 5.743 0 0 0 1.563-.372 11.798 11.798 0 0 1-.198-.893z" class="cls-17" data-name="Path 478" transform="translate(-169.3 -111.8)"/>
            </g>
            <g id="Group_675" data-name="Group 675" transform="translate(16.957 28.682)">
                <path id="Path_479" d="M184.27 138.676c.223.074 3.15 1.34 3.523 1.488a24.92 24.92 0 0 1 2.9 1.736c.273.248 2.133 3.448 2.63 4.316.273.893-.546.918-.546.918.025.248-.893 1.067-.893 1.067-.248-.124-3.87-2.109-4.143-2.257-.174-.1-1.265-.868-2.084-1.513a4.23 4.23 0 0 1-.322-.992c.521.323 1.24.719 1.24.719s-.6-.471-1.265-.967a6.935 6.935 0 0 1-.074-.992v-.1a1.472 1.472 0 0 1 .149.1c.2.1 1.612.868 1.637.868.322.074-.992-.868-1.513-1.24a3.149 3.149 0 0 0-.4-.273 1.559 1.559 0 0 1-.05-.943c.025-.025.025-.05.025-.1a4.183 4.183 0 0 1 .447.248c.223.124 2.233 1.092 2.381 1.166a13.826 13.826 0 0 0-1.488-1.265c-.223-.149-2.357-1.488-2.381-1.513-.043-.074.004-.547.227-.471z" class="cls-1" data-name="Path 479" transform="translate(-184.029 -138.668)"/>
            </g>
            <path id="Path_480" d="M169.916 122.585a1.451 1.451 0 0 1-1.265 1.612l-4.143.843c-.719.025-1.786-1.414-1.811-2.282V111.72a1.451 1.451 0 0 1 1.24-1.612l4.465-.025c.943-.074 2.034.571 2.084 1.439z" class="cls-18" data-name="Path 480" transform="translate(-151.031 -88.487)"/>
            <path id="Path_481" d="M172.516 125.75a1.451 1.451 0 0 1-1.265 1.612l-4.564.074a1.482 1.482 0 0 1-1.389-1.513v-11.038a1.451 1.451 0 0 1 1.265-1.612l4.564-.074a1.482 1.482 0 0 1 1.389 1.513z" class="cls-19" data-name="Path 481" transform="translate(-152.986 -90.834)"/>
            <path id="Path_482" d="M178.31 121.84a.7.7 0 0 1-.62.794.721.721 0 0 1-.695-.744.7.7 0 0 1 .62-.794.721.721 0 0 1 .695.744z" class="cls-20" data-name="Path 482" transform="translate(-161.782 -96.772)"/>
            <path id="Path_483" d="M151.063 144.817a3.253 3.253 0 0 1-1.265-.521.875.875 0 0 1-.3-.695 31.221 31.221 0 0 1 1.216-3.051 26.335 26.335 0 0 1 1.985-2.233c.149-.074.1 1.563.1 1.736a12.363 12.363 0 0 0 2.53-.546c.422-.1 2.158-.967 2.53-1.116a10.344 10.344 0 0 1 1.736-.6c.174.025.422.372.322.447s-2.133 1.141-2.133 1.141-2.009.893-2.009.967a19.861 19.861 0 0 0 2.158-.5c.174-.025 2.084-.794 2.233-.794s.174.323.1.447a14.885 14.885 0 0 1-1.985 1.017c-.174.074-1.811.868-1.811.868s1.836-.372 2.009-.422c.174-.025 1.414-.521 1.513-.521s.223.422.1.5c-.1.074-.819.447-.819.447l-.769.347s.546-.2.546-.1a1.6 1.6 0 0 1-.3.67c-.3.2-1.687.769-1.91.868-.146.127-4.686 1.446-5.777 1.644z" class="cls-1" data-name="Path 483" transform="translate(-141.108 -109.33)"/>
        </g>
        <g id="Group_680" data-name="Group 680" transform="translate(71.918 -.011)">
            <path id="Path_484" d="M319.3 114.128c.447-1.141 14.388-1.488 17.365-.645s6.45 24.658 2.828 29.892c-3.1 4.49-21.061 4.49-23.294-.67-2.484-5.705-.252-20.093 3.101-28.577z" class="cls-21" data-name="Path 484" transform="translate(-308.877 -84.977)"/>
            <path id="Path_485" d="M400.224 127.246c.273.447 7.07 10.89 8.013 12.552.695 1.24 4.912.992 5.209-.769.4-2.456-7.839-15.6-9.65-17.96-1.364-1.762-4.986 3.77-3.572 6.177z" class="cls-22" data-name="Path 485" transform="translate(-372.614 -90.777)"/>
            <path id="Path_486" d="M302.511 134.413c-.149.471-3.92 10.146-4.44 11.907-.372 1.29-5.929.546-5.532-1.141 1.612-6.648 3.771-14.884 5.209-16.025 1.662-1.389 5.532 2.729 4.763 5.259z" class="cls-22" data-name="Path 486" transform="translate(-291.869 -96.902)"/>
            <path id="Path_487" d="M404.479 125.532c-1.067-2.084-3.3-7.392-5.333-8.682-1.612-1.042-6.7 5.234-5.606 7.392.1.2 1.91 2.381 3.895 4.788 2.38-1.067 4.737-2.209 7.044-3.498z" class="cls-23" data-name="Path 487" transform="translate(-367.715 -87.773)"/>
            <path id="Path_488" d="M415.675 149.395c-.174-.1-6.946 4.118-7.169 4.217-.2.1.62 1.265.62 1.265s7.343-2.357 7.417-2.729c.075-.397-.421-2.53-.868-2.753z" class="cls-23" data-name="Path 488" transform="translate(-379.06 -112.33)"/>
            <path id="Path_489" d="M325.71 483.668c.025 1.91-7.566 3.6-16.943 3.746-9.4.149-17.042-1.29-17.067-3.2s7.566-3.6 16.943-3.746c9.402-.149 17.042 1.29 17.067 3.2z" class="cls-2" data-name="Path 489" transform="translate(-291.253 -361.268)"/>
            <path id="Path_490" d="M328.78 106.726c0 .05-3.274-.571-3.274-.5-1.836-.62-2.009.1-2.332.025a11.883 11.883 0 0 0-4.614.62v-.025c-.3.074-10.022 3.622-10.2 4.639a40.643 40.643 0 0 0 1.513 11.486c2.381 8.732 5.408 21.508 5.978 21.111.4-.273 16.621 3.25 16.025 3.25.521-2.58 2.282-28.379 2.8-31.455a40.492 40.492 0 0 0 .571-5.879 17.384 17.384 0 0 0-6.467-3.272z" class="cls-23" data-name="Path 490" transform="translate(-303.774 -79.683)"/>
            <path id="Path_491" d="M313.184 471.709a17.821 17.821 0 0 0-.546-2.009s-10.1 2.927-11.659 4.118c-1.116.819-.248.571-.2.571a11.686 11.686 0 0 1-2.481.769 12.184 12.184 0 0 0 1.96.918c.4-.074 4.614-.893 4.961-.992a194.12 194.12 0 0 1 7.963-2.059z" class="cls-10" data-name="Path 491" transform="translate(-296.216 -353.179)"/>
            <path id="Path_492" d="M311.6 474c-.223.471.149.422-1.439.992a7.782 7.782 0 0 1-2.059.521c-.174.025-.769-1.29-1.34-1.513-1.315.546-1.315.546-9.923 3.771 0 0-.521 1.315-.4 1.588.174.347.918.446 1.414.4.645-.074 6.152-1.216 6.5-1.29a57.551 57.551 0 0 0 7.647-2.187l-.025-.744A12.108 12.108 0 0 0 311.6 474z" class="cls-24" data-name="Path 492" transform="translate(-294.805 -356.412)"/>
            <path id="Path_493" d="M386.3 464.733c.025-.5.422-2.233.422-2.233a5.015 5.015 0 0 1 2.6 1.563c1.439 1.712 5.706 4.887 6.2 5.309.794 1.116-1.315 1.836-1.637 1.761-3.671-.719-7.591-4.168-7.591-4.168z" class="cls-10" data-name="Path 493" transform="translate(-362.386 -347.765)"/>
            <path id="Path_494" d="M385.614 476.489a9.341 9.341 0 0 0-.149 2.233c.025.347 6.4 3.8 6.872 3.771s4.168-.819 4.242-1.34c.074-.546-4.713-4.267-5.333-4.614-.62-.322-3.349.62-3.349.62l-.2 1.265c.003-.024-1.909-1.24-2.083-1.935z" class="cls-24" data-name="Path 494" transform="translate(-361.75 -358.257)"/>
            <path id="Path_495" d="M337.774 382.776a3.645 3.645 0 0 0 1.588.546 19.085 19.085 0 0 0 2.208-.273s1.141-18.7 1.042-20.292.025-9.551-.4-9.972c-.422-.4-5.16-.323-5.458 1.24-.32 1.588 1.119 24.088 1.02 28.751z" class="cls-10" data-name="Path 495" transform="translate(-325.098 -265.114)"/>
            <path id="Path_496" d="M381.647 363.786c.347 7.417 1.216 17.638 1.166 20.59a3.644 3.644 0 0 0 1.588.546 9.586 9.586 0 0 0 2.233-.62s.571-16.546.769-19.945c.1-1.588.273-9.551-.149-9.972-.422-.4-5.16-.322-5.458 1.24a47.379 47.379 0 0 0-.149 8.161z" class="cls-10" data-name="Path 496" transform="translate(-358.825 -266.317)"/>
            <path id="Path_497" d="M348.449 229.1s-3.473.372-8.509.719a80.676 80.676 0 0 1-10.94-.248l.992 33.514a11.068 11.068 0 0 0 4.986.347c.943-.174 1.811-.4 2.7-.521l.571-11.113c.149-2.208.347-5.234.372-5.458.025-.447.62-.322.744.149l1.364 16.521a19.435 19.435 0 0 0 5.631.62 14.572 14.572 0 0 0 2.7-.422l-.1-25.005c-.06-4.414-.511-9.103-.511-9.103z" class="cls-12" data-name="Path 497" transform="translate(-319.3 -172.265)"/>
            <path id="Path_498" d="M328.9 234.67l.025 3.026a108.752 108.752 0 0 0 11.684.174c5.83-.3 7.814-.62 8.087-.918a27.625 27.625 0 0 0-.2-2.952s-4.019.5-8.658.744c-4.662.223-10.938-.074-10.938-.074z" class="cls-25" data-name="Path 498" transform="translate(-319.225 -175.949)"/>
            <g id="Group_677" data-name="Group 677" transform="translate(17.559 58.316)">
                <path id="Path_499" d="M360.711 235.474s-.174 3.423.323 3.845c.5.447 4.019-.124 4.019-.124l.149-.719-2.952-.149s0-2.059.025-2.233a18.847 18.847 0 0 1 3.051-.571l-.05-.372c-.001.049-4.292-.372-4.565.323z" class="cls-26" data-name="Path 499" transform="translate(-360.681 -235.07)"/>
                <path id="Path_500" d="M366.143 243.071l-.943-.05.025-.521.918.025z" class="cls-26" data-name="Path 500" transform="translate(-364.079 -240.657)"/>
            </g>
            <path id="Path_501" d="M293.1 135.152a22.037 22.037 0 0 0 4.292 1.836c1.811.471 2.456.571 2.456.571s1.513-2.6 1.662-3.026c.149-.4-1.364-5.854-2.381-6.9s-1.588-1.612-2.233-.769a52.461 52.461 0 0 0-3.796 8.288z" class="cls-23" data-name="Path 501" transform="translate(-292.306 -95.086)"/>
            <path id="Path_502" d="M291.016 156.586c-.322-.124-1.116 2.332-1.116 2.431a12.419 12.419 0 0 0 3.7 1.637c1.687.4 2.58.744 2.9.62s1.216-1.488 1.216-1.488-4.541-2.332-6.7-3.2z" class="cls-23" data-name="Path 502" transform="translate(-289.9 -117.736)"/>
            <path id="Path_503" d="M393.572 110.044s-.1 8.633.347 10.717c.5 2.406 4.837 2.828 4.937-.967.074-2.257.6-8.112.6-8.112s-4.446-1.862-5.884-1.638z" class="cls-27" data-name="Path 503" transform="translate(-367.847 -82.728)"/>
            <path id="Path_504" d="M398.349 110.5c-.4-.025-.645 5.085-.347 9.476.868 12.924 1.662 10.717 2.332 18.853l.571-5.9s.223-8.534.124-14.041a58.3 58.3 0 0 1 .372-7.765 10.927 10.927 0 0 0-3.052-.623z" class="cls-28" data-name="Path 504" transform="translate(-371.086 -83.085)"/>
            <path id="Path_505" d="M318.025 113.034s0 8.062-.025 9.8c-.025 2.357 4.664 2.456 5.358-.62.5-2.158.347-11.213.347-11.213s-4.391 1.487-5.68 2.033z" class="cls-27" data-name="Path 505" transform="translate(-311.029 -83.462)"/>
            <path id="Path_506" d="M322.305 113.311c-.347.174-.124 5.9-.5 10.295a82.242 82.242 0 0 0-.1 10.692l1.538 6.747s.521-11.411 1.34-16.869a85.255 85.255 0 0 0 .719-11.808 9.043 9.043 0 0 0-2.997.943z" class="cls-28" data-name="Path 506" transform="translate(-313.722 -84.482)"/>
            <path id="Path_507" d="M346.5 107.063c.05.223 5.854 6.623 5.854 6.623l5.73-7.045-2.555-1.141-6.45.124s-2.631 1.092-2.579 1.439z" class="cls-22" data-name="Path 507" transform="translate(-332.457 -79.326)"/>
            <path id="Path_508" d="M380.649 100.56l1.166 5.978-4.068-1.216-3.647 1.96 4.366-5.755-2.183-.62.223-2.307s3.87.992 4.143 1.96z" class="cls-23" data-name="Path 508" transform="translate(-353.213 -74.138)"/>
            <path id="Path_509" d="M338.371 101.152l-.571 5.358 3.473-1.662 4.192 2.381-4.341-5.656 2.63-1.191-.3-2.183c.002.051-4.984 1.539-5.083 2.953z" class="cls-23" data-name="Path 509" transform="translate(-325.917 -73.837)"/>
            <path id="Path_510" d="M361.013 87.09l-.273-7.69-7.641.149.322 7.715c2.234 1.414 5.558 1.563 7.592-.174z" class="cls-22" data-name="Path 510" transform="translate(-337.422 -59.701)"/>
            <path id="Path_511" d="M376.522 84.847c-.124-.025-.273-.074-.422-.1.025-.124.05-.223.025-.248z" class="cls-18" data-name="Path 511" transform="translate(-354.716 -63.535)"/>
            <path id="Path_512" d="M392.482 57.547c-.62 1.513-.645 2.679.372 3.1a3.454 3.454 0 0 0 3.87-1.712c.62-1.513.322-3.1-.695-3.523s-2.929.622-3.547 2.135z" class="cls-1" data-name="Path 512" transform="translate(-366.707 -41.594)"/>
            <path id="Path_513" d="M349.5 28.65c0 8.286-5.978 10.989-7.889 11.113-5.507.322-9.675-5.83-10.022-11.238-.4-6.1.074-11.684 7-11.535 9.178.224 10.89.224 10.911 11.66z" class="cls-1" data-name="Path 513" transform="translate(-321.174 -12.771)"/>
            <path id="Path_514" d="M329.226 56.833c.67 1.513.695 2.679-.323 3.1a3.414 3.414 0 0 1-3.895-1.637c-.67-1.513-.372-3.076.62-3.523 1.043-.446 2.953.546 3.598 2.06z" class="cls-1" data-name="Path 514" transform="translate(-316.029 -41.102)"/>
            <path id="Path_515" d="M349.8 60.015c0 .719.347 1.315.819 1.34.471 0 .868-.571.868-1.315.025-.719-.347-1.315-.819-1.34-.468 0-.868.6-.868 1.315z" class="cls-12" data-name="Path 515" transform="translate(-334.941 -44.136)"/>
            <path id="Path_516" d="M383.7 59.015c0 .719.347 1.315.819 1.34.471 0 .843-.571.868-1.315 0-.719-.347-1.315-.819-1.34-.446 0-.843.6-.868 1.315z" class="cls-12" data-name="Path 516" transform="translate(-360.431 -43.384)"/>
            <path id="Path_517" d="M348.268 43a12.448 12.448 0 0 0-2.506.347 7.9 7.9 0 0 0-1.563.695l.6.918a11.136 11.136 0 0 1 1.538-.471 10.334 10.334 0 0 1 1.985-.174z" class="cls-29" data-name="Path 517" transform="translate(-330.73 -32.33)"/>
            <path id="Path_518" d="M379.7 49.019a6.964 6.964 0 0 1 4.168.422l-.447.992a5.746 5.746 0 0 0-1.34-.223 11.46 11.46 0 0 0-2.257.124z" class="cls-29" data-name="Path 518" transform="translate(-357.423 -36.762)"/>
            <path id="Path_519" d="M343.519 24.273c-.05-.05-.124-.1-.174-.149A5.906 5.906 0 0 0 342.7 24z" class="cls-12" data-name="Path 519" transform="translate(-329.602 -18.044)"/>
            <path id="Path_520" d="M346.425 14.139c0-.05-.025-.1-.025-.149a6.745 6.745 0 0 0-.471-2.828 9.434 9.434 0 0 0-3.523-2.6c-3.225-.943-5.457-.347-9.4-.025-.546.05-4.019 1.662-4.242 1.712a2.878 2.878 0 0 0-2.6 1.836c-.967 3.15.546 6.673 1.513 10.915a5.08 5.08 0 0 1 .6-.124c-.223-3.919.422-6.822 1.116-11.113.744.322 13.768-2.729 15.48 4.788a52.393 52.393 0 0 1 .1 5.383l.322.471s.62-2.778 1.191-2.456a41.392 41.392 0 0 0-.061-5.81z" class="cls-12" data-name="Path 520" transform="translate(-316.93 -6.049)"/>
            <path id="Path_521" d="M367.043 66.039c-.1-.05-.174 0-.248.074.918.273 2.679 1.439 2.307 2.555-.223.67-1.935.174-2.9.05.025.05.05.1.074.1.372.248 3.051.943 3.349.025.519-1.464-2.532-2.779-2.582-2.804z" class="cls-30" data-name="Path 521" transform="translate(-347.272 -49.639)"/>
            <path id="Path_522" d="M351.093 1.133a5.562 5.562 0 0 0-2.381.074c-1.736-.025-1.364-.2-2.307-.67C344.147-.6 343.2.19 341.369 1.5c-1.34.967-4.912.025-5.085 3.2-.05.794.248 2.183.248 2.8l.918-.521c.645 1.761 3.647 1.017 5.011.6 1.042-.322 1.786-1.141 2.927-1.29 1.538-.2 2.382.695 3.473 1.364 1.042.62 2.257 1.34 3.994.422 1.017-.546 2.53-1.166 2.679-2.729-2.655.554-2.085-3.469-4.441-4.213z" class="cls-12" data-name="Path 522" transform="translate(-324.773 .011)"/>
            <path id="Path_523" d="M291.047 156.721l11.114-10.121c.918 0 1.612 1.811 1.34 2.208l-6.673 11.014c-.967 1.513-4.391 4.068-5.681 3.225-1.985-1.34-.1-6.326-.1-6.326z" class="cls-1" data-name="Path 523" transform="translate(-290.154 -110.23)"/>
            <path id="Path_524" d="M418.465 155.031l-9.7-8.831c.347 1.786.1 1.24-1.265 2.406l5.83 10.072c1.414 2.009 5.135 3.225 6.227 2.357 1.86-1.535-1.092-6.004-1.092-6.004z" class="cls-1" data-name="Path 524" transform="translate(-378.327 -109.93)"/>
            <g id="Group_678" data-name="Group 678" transform="translate(20.731 30.834)">
                <path id="Path_525" d="M373.725 124.289c.248.05 3.7.967 4.143 1.067a25.833 25.833 0 0 1 3.448 1.414c.323.223 2.555 3.523 3.2 4.341.4.893-.645 1.315-.645 1.315.05.273-.546.744-.546.744-.3-.1-4.44-1.588-4.763-1.712-.2-.074-1.687-.819-2.7-1.364a4.37 4.37 0 0 1-.471-.967c.62.248 1.464.6 1.464.6s-.744-.4-1.538-.843a8.148 8.148 0 0 1-.2-1.017.188.188 0 0 0-.025-.1.593.593 0 0 1 .174.074c.223.1 1.91.67 1.96.67.372.025-1.216-.769-1.861-1.091-.074-.05-.248-.124-.471-.248a1.555 1.555 0 0 1-.149-.967c0-.025.025-.074.025-.1.248.1.471.174.546.2.273.1 2.63.843 2.828.893a16.313 16.313 0 0 0-1.811-1.141c-.248-.124-2.828-1.24-2.853-1.265-.028-.056-.003-.552.245-.503z" class="cls-1" data-name="Path 525" transform="translate(-373.469 -124.286)"/>
            </g>
            <path id="Path_526" d="M360.814 107.723a1.54 1.54 0 0 1-1.389 1.662l-4.49.819c-.794.025-1.91-1.513-1.935-2.406l.174-11.535a1.54 1.54 0 0 1 1.389-1.662l4.837.05c1.017-.05 2.208.62 2.233 1.513z" class="cls-18" data-name="Path 526" transform="translate(-337.347 -71.13)"/>
            <path id="Path_527" d="M363.589 111.146a1.54 1.54 0 0 1-1.389 1.662h-4.937a1.536 1.536 0 0 1-1.463-1.608l.174-11.535A1.54 1.54 0 0 1 357.363 98h4.937a1.536 1.536 0 0 1 1.464 1.612z" class="cls-19" data-name="Path 527" transform="translate(-339.452 -73.685)"/>
            <path id="Path_528" d="M338.339 133.193a3.731 3.731 0 0 1-1.315-.695c-.273-.372-.5-.695-.4-.843.223-.3 1.91-3.647 2.084-3.82a13.6 13.6 0 0 1 2.034-1.935c.05 0-.025 1.91 0 2.109 0 .2 2.257-.322 2.729-.4s2.431-.893 2.828-1.017a9.48 9.48 0 0 1 1.91-.5c.2.05.422.471.3.546s-2.406 1.092-2.406 1.092a21.549 21.549 0 0 0-2.257.918c0 .074 2.183-.322 2.381-.347s2.332-.719 2.481-.695.174.372.074.521a15.074 15.074 0 0 1-2.233.943c-.2.05-2.034.819-2.034.819s2.009-.273 2.208-.273c.2-.025 1.563-.447 1.687-.447s.2.5.074.546c-.124.074-.943.422-.943.422l-.843.323s.6-.174.6-.074a1.819 1.819 0 0 1-.372.719c-.322.2-2.084 1.017-2.332 1.116-.227.104-5.064.848-6.255.972z" class="cls-1" data-name="Path 528" transform="translate(-325.018 -94.665)"/>
            <g id="Group_679" data-name="Group 679" transform="translate(17.464 21.163)">
                <path id="Path_529" d="M360.3 86.392l.025-.149-.025.149.025-.967c.1 0 .149.025.273.025.124.025.273.025.447.05.372.025.893.074 1.488.074a16.23 16.23 0 0 0 3.1-.273l.174.943a16.558 16.558 0 0 1-3.3.3h-.025a19.087 19.087 0 0 1-2.183-.149z" class="cls-17" data-name="Path 529" transform="translate(-360.3 -85.3)"/>
            </g>
            <path id="Path_530" d="M370.684 107.014a.747.747 0 0 1-.794.695.755.755 0 0 1-.695-.819.747.747 0 0 1 .794-.695.77.77 0 0 1 .695.819z" class="cls-31" data-name="Path 530" transform="translate(-349.524 -79.848)"/>
        </g>
        <g id="Group_690" data-name="Group 690" transform="translate(.004 48.607)">
            <path id="Path_531" d="M4.3 490.2c-.025 1.637 4.887 2.977 10.965 3s11.014-1.265 11.039-2.9-4.887-2.977-10.965-3-11.014 1.264-11.039 2.9z" class="cls-2" data-name="Path 531" transform="translate(-3.234 -415.031)"/>
            <path id="Path_532" d="M12.808 254.608A24.652 24.652 0 0 0 11.444 259c.025.67-3.126-3.2-1.563-7.12.645-1.663 3.101.92 2.927 2.728z" class="cls-32" data-name="Path 532" transform="translate(-7.103 -237.609)"/>
            <path id="Path_533" d="M18.428 262.081a24.816 24.816 0 0 0 .372 4.589c.273.62-3.1-.868-3.1-5.085-.025-1.785 2.207-1.215 2.728.496z" class="cls-32" data-name="Path 533" transform="translate(-11.806 -244.488)"/>
            <path id="Path_534" d="M70.3 262.815s.695 3.721.447 4.589c-.174.67 3.225-1.612 2.456-5.755-.323-1.736-2.655-.649-2.903 1.166z" class="cls-32" data-name="Path 534" transform="translate(-52.862 -244.7)"/>
            <path id="Path_535" d="M74.416 316.674a34.158 34.158 0 0 0-2.7-5.209c-1.265-2.109-2.6-5.408-3.523-4.416-.893.992-1.389 2.009-.6 3.026a80.821 80.821 0 0 1 4.465 8.36c.225.646 2.557-.644 2.358-1.761z" class="cls-33" data-name="Path 535" transform="translate(-50.528 -279.359)"/>
            <path id="Path_536" d="M58.161 488.054s3.969 1.042 4.019 2.381c.05.918-.769 1.29-2.555 1.191a12.1 12.1 0 0 1-4.192-2.109c-.273-.446.174-1.96.174-1.96s2.033-.272 2.554.497z" class="cls-34" data-name="Path 536" transform="translate(-41.616 -415.19)"/>
            <path id="Path_537" d="M57.357 425.26s.248-7.467.322-11.312c.074-3.423.471-8.757-.546-9-1.687-.422-2.8.645-3.1 5.16-.248 3.919.422 14.711.422 15.132 0 .86 2.728 1.087 2.902.02z" class="cls-23" data-name="Path 537" transform="translate(-40.589 -353.042)"/>
            <path id="Path_538" d="M55.222 373.331s1.042-11.883 1.141-15.306c.124-3.473-.05-4.44-1.092-4.54-1.017-.074-4.837-1.216-4.192 2.853.5 3.225.62 15.281.67 15.653.051.397 3.274 2.309 3.473 1.34z" class="cls-23" data-name="Path 538" transform="translate(-38.354 -314.26)"/>
            <path id="Path_539" d="M56.188 488.022a2.556 2.556 0 0 0 2.233-.422c.918.3 3.4 1.364 3.647 2.282.223.893-.62 1.24-2.406 1.141a12.956 12.956 0 0 1-4.316-2.084 2.371 2.371 0 0 1 .025-1.315 2.1 2.1 0 0 0 .817.398z" class="cls-35" data-name="Path 539" transform="translate(-41.553 -415.257)"/>
            <path id="Path_540" d="M63.327 484.326s.4-1.092.1-1.141a4.972 4.972 0 0 0-1.786.422c-.174.174-.05 1.166.074 1.364.124.173 1.24-.323 1.612-.645z" class="cls-36" data-name="Path 540" transform="translate(-46.286 -411.933)"/>
            <path id="Path_541" d="M56.4 485.77a4.947 4.947 0 0 0-1.464-.992c-.347-.1-.1.843-.1.843s1.74.844 1.564.149z" class="cls-36" data-name="Path 541" transform="translate(-41.172 -413.13)"/>
            <g id="Group_681" data-name="Group 681" transform="translate(17.145 72.88)">
                <path id="Path_542" d="M69.214 490.817c-.074-.05-.124-.124-.074-.174a4.187 4.187 0 0 1 .422-.5 1.167 1.167 0 0 1 1.092-.347c.074.025.149.1.124.174-.025.074-.1.1-.2.074a.928.928 0 0 0-.794.3 1.891 1.891 0 0 0-.4.447.18.18 0 0 1-.2.05c.05-.025.05-.025.025-.025z" class="cls-37" data-name="Path 542" transform="translate(-69.119 -489.766)"/>
            </g>
            <g id="Group_682" data-name="Group 682" transform="translate(16.464 72.478)">
                <path id="Path_543" d="M66.48 489.226a.141.141 0 0 1-.1-.174 3.623 3.623 0 0 1 .372-.5 1.242 1.242 0 0 1 1.067-.4q.149.037.149.149c0 .074-.1.1-.174.074a.86.86 0 0 0-.744.323 2.263 2.263 0 0 0-.347.446.142.142 0 0 1-.174.05l-.05.025z" class="cls-37" data-name="Path 543" transform="translate(-66.374 -488.146)"/>
            </g>
            <g id="Group_685" data-name="Group 685" transform="translate(7.691 40.263)">
                <path id="Path_544" d="M38.161 493.054s3.969 1.042 4.019 2.381c.05.918-.769 1.29-2.555 1.191a12.1 12.1 0 0 1-4.192-2.109c-.273-.447.174-1.96.174-1.96s2.033-.272 2.554.497z" class="cls-34" data-name="Path 544" transform="translate(-34.268 -459.213)"/>
                <path id="Path_545" d="M37.334 430.038s.2-7.417.322-11.312c.1-3.423.645-8.831-.372-9.079-1.687-.422-3.076.67-3.3 5.209-.2 4.143.447 14.76.447 15.182.001.844 2.729 1.062 2.903 0z" class="cls-23" data-name="Path 545" transform="translate(-33.218 -396.842)"/>
                <path id="Path_546" d="M35.222 378.331s1.042-11.883 1.141-15.306c.124-3.473-.05-4.44-1.092-4.54-1.017-.074-4.837-1.216-4.192 2.853.5 3.225.62 15.281.67 15.653.051.397 3.274 2.309 3.473 1.34z" class="cls-23" data-name="Path 546" transform="translate(-31.006 -358.282)"/>
                <path id="Path_547" d="M36.188 493.022a2.556 2.556 0 0 0 2.233-.422c.918.3 3.4 1.364 3.647 2.282.223.893-.62 1.24-2.406 1.141a12.957 12.957 0 0 1-4.316-2.084 2.371 2.371 0 0 1 .025-1.315 2.1 2.1 0 0 0 .817.398z" class="cls-35" data-name="Path 547" transform="translate(-34.205 -459.28)"/>
                <path id="Path_548" d="M43.327 489.325s.4-1.091.1-1.141a4.975 4.975 0 0 0-1.786.422c-.174.174-.05 1.166.074 1.364.124.174 1.24-.322 1.612-.645z" class="cls-36" data-name="Path 548" transform="translate(-38.938 -455.956)"/>
                <path id="Path_549" d="M36.9 491.77a4.947 4.947 0 0 0-1.464-.992c-.347-.1-.1.843-.1.843s1.74.844 1.564.149z" class="cls-36" data-name="Path 549" transform="translate(-34.2 -457.904)"/>
                <g id="Group_683" data-name="Group 683" transform="translate(4.493 33.857)">
                    <path id="Path_550" d="M49.214 495.817c-.074-.05-.124-.124-.074-.174a4.178 4.178 0 0 1 .422-.5 1.167 1.167 0 0 1 1.092-.347c.074.025.149.1.124.174-.025.074-.1.1-.2.074a.928.928 0 0 0-.794.3 1.891 1.891 0 0 0-.4.447.18.18 0 0 1-.2.05c.05-.025.05-.025.025-.025z" class="cls-37" data-name="Path 550" transform="translate(-49.119 -494.766)"/>
                </g>
                <g id="Group_684" data-name="Group 684" transform="translate(3.812 33.455)">
                    <path id="Path_551" d="M46.48 494.226a.141.141 0 0 1-.1-.174 3.622 3.622 0 0 1 .372-.5 1.242 1.242 0 0 1 1.067-.4q.149.037.149.149c0 .074-.1.1-.174.074a.86.86 0 0 0-.744.322 2.265 2.265 0 0 0-.347.446.142.142 0 0 1-.174.05l-.05.025z" class="cls-37" data-name="Path 551" transform="translate(-46.374 -493.146)"/>
                </g>
            </g>
            <path id="Path_552" d="M60.941 302.749s-2.853-5.78-3.374-6.177c-1.91-1.389-5.036-2.53-5.681-1.563-.645.992 1.91 2.853 2.506 3.771s2.729 5.9 2.729 5.9 3.968-1.534 3.82-1.931z" class="cls-38" data-name="Path 552" transform="translate(-38.938 -270.172)"/>
            <path id="Path_553" d="M35.605 294.3c-.074-.347-3.919-1.116-4.813-1.216s-4.713 1.513-5.284 2.059c-.3.273-.769 4.515-.819 8.509-.05 4.044.5 11.833.5 11.907 0 .719 11.783.174 12.081-.323.171-.319-.325-14.682-1.665-20.936z" class="cls-39" data-name="Path 553" transform="translate(-18.564 -268.993)"/>
            <path id="Path_554" d="M46.8 283.947a33.952 33.952 0 0 0 .074-3.523L43.6 280.4l-.1 3.622s1.96.942 3.3-.075z" class="cls-33" data-name="Path 554" transform="translate(-32.71 -259.457)"/>
            <path id="Path_555" d="M33.134 226.895c.1 4.763-4.316 9.377-8.037 9.427-5.11.05-9.3-5.11-9.4-9.873s4.192-8.211 9.377-8.36c5.158-.15 7.936 4.043 8.06 8.806z" class="cls-1" data-name="Path 555" transform="translate(-11.801 -212.6)"/>
            <path id="Path_556" d="M63.9 247.9a10.109 10.109 0 0 1 1.935.2 13.515 13.515 0 0 1 1.488.521l-.3.347a6.1 6.1 0 0 1-1.166-.2 8.707 8.707 0 0 0-1.91-.124z" class="cls-40" data-name="Path 556" transform="translate(-48.049 -235.019)"/>
            <path id="Path_557" d="M3.993 217.782a16.733 16.733 0 0 1 3.225-7.02c2.084-2.481 3.324-4.267 3.324-4.267s.05-3.746-.2-3.7a8.222 8.222 0 0 0-6.2 5.334 14.342 14.342 0 0 0-.149 9.653z" class="cls-41" data-name="Path 557" transform="translate(-2.431 -201.106)"/>
            <g id="Group_686" data-name="Group 686" transform="translate(16.322 10.746)">
                <path id="Path_558" d="M66.048 239.816a.266.266 0 0 1-.149-.05.306.306 0 0 1-.1-.2.272.272 0 0 1 .248-.273 1.733 1.733 0 0 1 1.067.273.24.24 0 0 1 .025.347.227.227 0 0 1-.347.05l-.05-.025a2.128 2.128 0 0 0-.695-.124zm.744.2z" class="cls-42" data-name="Path 558" transform="translate(-65.8 -239.294)"/>
            </g>
            <path id="Path_559" d="M4.2 239.337s.546 3.969.149 4.837c-.322.67 5.557-2.654 4.937-7.095-.273-1.86-4.565.373-5.086 2.258z" class="cls-32" data-name="Path 559" transform="translate(-3.159 -226.358)"/>
            <path id="Path_560" d="M27.353 200.783c2.034-1.067 9.923-2.208 13.3 3.647 2.481 4.292.843 6.9 2.8 9.749a16.4 16.4 0 0 1-5.408-2.555 26.732 26.732 0 0 0-3.547-1.985l3.5 3c.223.3-6.375-1.712-7.889-5.011-1.488-.645-2.58-1.091-2.58-1.091s-1.044-5.282-.176-5.754z" class="cls-41" data-name="Path 560" transform="translate(-20.309 -198.942)"/>
            <path id="Path_561" d="M24.507 196.876a3.082 3.082 0 0 1 3.994-.3l-4.168 1.191a1.138 1.138 0 0 1 .174-.891z" class="cls-43" data-name="Path 561" transform="translate(-18.281 -195.977)"/>
            <path id="Path_562" d="M22.18 206.291c-5.953-.918-17.588 1.809-21.507 4.589-.447-2.431-3.374-10.518 7.913-13.1 12.18-2.78 13.024 6.08 13.594 8.511z" class="cls-44" data-name="Path 562" transform="translate(-.004 -196.933)"/>
            <path id="Path_563" d="M37.976 217.8s3.1-1.414 3-3.076-1.513-1.761-2.109-1.985c-1.29-.5-7.318-.05-9.675.372a8.73 8.73 0 0 0-6.5 4.267c-1.935 2.853-1.513 2.853-1.513 2.853s12.084-3.475 16.797-2.431z" class="cls-45" data-name="Path 563" transform="translate(-15.899 -208.416)"/>
            <path id="Path_564" d="M16.008 256.625c.1 1.042-.149 1.761-.943 1.885a2.214 2.214 0 0 1-2.332-1.612c-.1-1.042.124-1.91.943-2.034a2.381 2.381 0 0 1 2.332 1.761z" class="cls-1" data-name="Path 564" transform="translate(-9.559 -240.246)"/>
            <path id="Path_565" d="M37.223 247.4a11.509 11.509 0 0 0-1.935.174 10.672 10.672 0 0 0-1.488.5l.273.347a7.327 7.327 0 0 0 1.166-.174 8.171 8.171 0 0 1 1.91-.1z" class="cls-40" data-name="Path 565" transform="translate(-25.416 -234.644)"/>
            <path id="Path_566" d="M55.193 262.947c.074.025-.174-.05-.248 0 .67.471 1.315.868 1.141 1.116-.248.4-.918.546-1.786.4l.074.074c.322.174 1.786.3 2.084-.223.397-.623-1.29-1.367-1.265-1.367z" class="cls-46" data-name="Path 566" transform="translate(-40.831 -246.321)"/>
            <path id="Path_567" d="M68.159 257.389c-.025.6-.4 1.067-.819 1.042-.422 0-.769-.5-.744-1.092s.4-1.067.819-1.042a.959.959 0 0 1 .744 1.092z" class="cls-47" data-name="Path 567" transform="translate(-50.076 -241.333)"/>
            <path id="Path_568" d="M41.363 257.439c0 .6-.322 1.067-.769 1.091-.422.025-.794-.447-.794-1.042s.322-1.067.769-1.091c.422-.025.794.447.794 1.042z" class="cls-47" data-name="Path 568" transform="translate(-29.928 -241.408)"/>
            <path id="Path_569" d="M88.077 319.581l-.5-8.087c-.273-.744-1.439-.05-1.637.273l-.992 7.343c-.1 1.34.248 3.572 1.513 3.374 1.815-.298 1.616-2.903 1.616-2.903z" class="cls-1" data-name="Path 569" transform="translate(-63.867 -282.588)"/>
            <g id="Group_687" data-name="Group 687" transform="translate(16.52 19.33)">
                <path id="Path_570" d="M69.9 274.074a4.135 4.135 0 0 1-1.042.223 3.569 3.569 0 0 1-1.91-.4l-.347.571a4.435 4.435 0 0 0 2.282.5 4.84 4.84 0 0 0 1.166-.223 3.247 3.247 0 0 1-.149-.671z" class="cls-17" data-name="Path 570" transform="translate(-66.6 -273.9)"/>
            </g>
            <g id="Group_688" data-name="Group 688" transform="translate(17.265 23.784)">
                <path id="Path_571" d="M69.823 291.866c.149.05 2.208.918 2.481 1.017a16.267 16.267 0 0 1 2.009 1.166c.174.174 1.414 2.257 1.736 2.8a.419.419 0 0 1-.422.571c0 .174-.695.67-.695.67-.174-.074-2.7-1.414-2.9-1.513-.124-.074-.868-.6-1.464-.992a1.951 1.951 0 0 1-.2-.645c.372.2.868.5.868.5s-.422-.3-.868-.645a5.827 5.827 0 0 1-.025-.645v-.05c.05.025.074.05.1.05.124.074 1.116.571 1.141.571.223.05-.695-.571-1.042-.819a2.2 2.2 0 0 1-.273-.2.886.886 0 0 1 0-.62.087.087 0 0 1 .025-.05c.149.074.273.149.323.174.149.1 1.563.744 1.662.794a9.485 9.485 0 0 0-1.017-.843c-.149-.1-1.637-.992-1.662-1.017 0-.026.05-.348.223-.274z" class="cls-1" data-name="Path 571" transform="translate(-69.6 -291.855)"/>
            </g>
            <path id="Path_572" d="M23.3 316.835s1.662 8.608 2.481 8.931 2.754.5 2.282-2.357c-.322-2.059-1.885-7.07-1.885-7.07s-2.531-.174-2.878.496z" class="cls-48" data-name="Path 572" transform="translate(-17.521 -286.465)"/>
            <path id="Path_573" d="M31.7 316.007l4.49-7.74c.571-.124 1.265.868 1.141 1.166l-2.282 7.69c-.521 1.364-1.91 3.671-3.1 2.853-1.663-1.141-.249-3.969-.249-3.969z" class="cls-1" data-name="Path 573" transform="translate(-23.415 -280.404)"/>
            <path id="Path_574" d="M20.722 308.643c-.347.05-.819-6.2.174-7.368a4.826 4.826 0 0 1 2.158-1.687c.546-.2 2.059 7.194 2.059 7.194a22.614 22.614 0 0 1-4.391 1.861z" class="cls-39" data-name="Path 574" transform="translate(-15.266 -273.882)"/>
            <g id="Group_689" data-name="Group 689" transform="translate(12.006 19.95)">
                <path id="Path_575" d="M48.4 277.045l.025-.1-.025.1.05-.645c.074 0 .1.025.174.025.074.025.174.025.3.05.248.05.6.074.992.124a8.658 8.658 0 0 0 2.084-.075l.074.645a11.471 11.471 0 0 1-2.208.074c-.794-.074-1.364-.2-1.464-.2z" class="cls-17" data-name="Path 575" transform="translate(-48.4 -276.4)"/>
            </g>
            <path id="Path_576" d="M66.378 280.7a1.156 1.156 0 0 1-1.092 1.24l-3.448.521c-.6 0-1.439-1.191-1.439-1.861l.322-8.757a1.156 1.156 0 0 1 1.092-1.24l3.7.124c.769-.025 1.662.521 1.687 1.191z" class="cls-18" data-name="Path 576" transform="translate(-45.418 -252.088)"/>
            <path id="Path_577" d="M68.554 283.4a1.156 1.156 0 0 1-1.091 1.24l-3.771-.1a1.188 1.188 0 0 1-1.092-1.24l.322-8.757a1.156 1.156 0 0 1 1.092-1.24l3.771.1a1.188 1.188 0 0 1 1.091 1.24z" class="cls-19" data-name="Path 577" transform="translate(-47.072 -254.119)"/>
            <path id="Path_578" d="M74.392 280.22a.55.55 0 1 1-.546-.62.57.57 0 0 1 .546.62z" class="cls-20" data-name="Path 578" transform="translate(-55.118 -258.856)"/>
            <path id="Path_579" d="M51.45 299.688s-.571-.273-.695-.521a.5.5 0 0 1-.05-.447 19.687 19.687 0 0 1 1.141-2.133c.322-.322 1.29-1.464 1.389-1.488a5.414 5.414 0 0 1-.05 1.389c-.025.124 1.34-.074 1.612-.1s1.464-.447 1.687-.5a6.487 6.487 0 0 1 1.141-.223c.1.05.2.322.124.372-.074.025-1.464.571-1.464.571s-1.364.422-1.364.471 1.265-.1 1.389-.1 1.389-.322 1.464-.322c.1.025.074.248 0 .347a7.836 7.836 0 0 1-1.34.5c-.124.025-1.216.422-1.216.422s1.166-.05 1.29-.074c.124 0 .918-.2.992-.2.074.025.074.322 0 .372s-.571.223-.571.223l-.521.149s.347-.074.347 0a1.207 1.207 0 0 1-.273.447 10.732 10.732 0 0 1-1.29.4c-.092-.001-3.047.42-3.742.445z" class="cls-1" data-name="Path 579" transform="translate(-38.105 -270.51)"/>
        </g>
    </g>
</svg>
