<svg xmlns="http://www.w3.org/2000/svg" width="75.992" height="74.241" viewBox="0 0 75.992 74.241">
    <g id="prefix__FAQ_icon" data-name="FAQ icon" transform="translate(-1530 -909)">
        <g id="prefix__Group_1356" data-name="Group 1356" transform="translate(1086.967 850.521)">
            <path id="prefix__Path_5612" d="M517.906 127.9c-5.084-3.594-8.025-7.743-8.97-12.3 6.356-4.61 10.09-11.034 10.09-18.04 0-8.855-5.794-16.871-15.185-21.18-3.97-10.595-15.968-17.906-29.71-17.906-17.146 0-31.1 11.373-31.1 25.35 0 7.32 3.907 14.038 10.56 18.844-.98 4.84-4.078 9.235-9.443 13.04a2.652 2.652 0 0 0 1.534 4.814c9.868 0 17.423-2.056 22.1-5.969a33.392 33.392 0 0 0 21.37 7.327l2.078-.129c3.124 7.071 11.888 10.968 25.143 10.963a2.651 2.651 0 0 0 1.531-4.815zm-50.159-23l-.183.7a9.189 9.189 0 0 1-1.947 3.687c-.083.1-2.286 1.969-2.45 2.077a25.325 25.325 0 0 1-10.058 3.324c.336-.377.652-.761.962-1.149a22.281 22.281 0 0 0 5.113-11.586s.073-.687.073-.754a1.76 1.76 0 0 0-.828-1.5l-.466-.293c-6.118-3.849-9.625-9.527-9.625-15.583 0-11.056 11.569-20.047 25.794-20.047a51.116 51.116 0 0 1 10.083 1.6 24.412 24.412 0 0 1 13.651 10.6 17.26 17.26 0 0 1 2.06 7.846c0 11.054-11.571 20.049-25.794 20.049l-4.563-.292a1.767 1.767 0 0 0-1.822 1.321zm27.805 13.423a2.793 2.793 0 0 0-2.861-1.959l-3.538.221c-7.607 0-14.622-2.672-19.328-7.323a12.887 12.887 0 0 0 .89-2.063l3.3.207c16.283 0 29.441-10.575 29.441-23.577 0-.593-.059-1.178-.11-1.762 6.459 3.55 10.375 9.289 10.375 15.5 0 5.739-3.338 11.124-9.156 14.774a2.644 2.644 0 0 0-1.243 2.244 2.476 2.476 0 0 0 .019.305 21.98 21.98 0 0 0 5.652 12c-5.905-.877-12.006-3.097-13.441-8.568z" data-name="Path 5612" style="fill:#863399;fill-rule:evenodd"/>
        </g>
        <text id="prefix___" data-name="?" transform="translate(1561 942)" style="fill:#7cbadb;stroke:#7cbadb;font-size:25px;font-family:BryantPro-Bold,Bryant Pro;font-weight:700">
            <tspan x="-5.912" y="0">?</tspan>
        </text>
    </g>
</svg>
