<svg width="60" height="60" viewBox="0 0 60 60" fill="none" xmlns="http://www.w3.org/2000/svg">
<path d="M30 60C46.5685 60 60 46.5685 60 30C60 13.4315 46.5685 0 30 0C13.4315 0 0 13.4315 0 30C0 46.5685 13.4315 60 30 60Z" fill="#EAEAEA" fill-opacity="0.6"/>
<g opacity="0.1">
<path opacity="0.1" d="M37.5765 16.5177V26.7236C37.5734 27.9223 37.0958 29.0711 36.2481 29.9187C35.4005 30.7664 34.2517 31.244 33.053 31.2471H21.6118L16.9059 35.1647L16.2765 35.8294V30.9824C15.3994 30.6668 14.6408 30.0887 14.104 29.3267C13.5672 28.5646 13.2783 27.6557 13.2765 26.7236V16.5177C13.2796 15.3189 13.7572 14.1701 14.6048 13.3225C15.4525 12.4748 16.6013 11.9972 17.8 11.9941H33.053C34.2517 11.9972 35.4005 12.4748 36.2481 13.3225C37.0958 14.1701 37.5734 15.3189 37.5765 16.5177Z" fill="white"/>
</g>
<path d="M37.5765 16.5177V26.7236C37.5734 27.9223 37.0958 29.0711 36.2481 29.9187C35.4005 30.7664 34.2517 31.244 33.053 31.2471H21.6118L16.9059 35.1647L16.2765 35.8294V30.9824C15.3994 30.6668 14.6408 30.0887 14.104 29.3267C13.5672 28.5646 13.2783 27.6557 13.2765 26.7236V16.5177C13.2796 15.3189 13.7572 14.1701 14.6048 13.3225C15.4525 12.4748 16.6013 11.9972 17.8 11.9941H33.053C34.2517 11.9972 35.4005 12.4748 36.2481 13.3225C37.0958 14.1701 37.5734 15.3189 37.5765 16.5177Z" fill="#F58520"/>
<path d="M16.3059 36.5823C16.1062 36.5823 15.9147 36.503 15.7735 36.3618C15.6323 36.2206 15.553 36.0291 15.553 35.8294V31.4823C14.6563 31.0512 13.8992 30.3761 13.3686 29.5344C12.838 28.6927 12.5553 27.7185 12.553 26.7235V16.5176C12.553 15.1135 13.1108 13.767 14.1036 12.7741C15.0964 11.7813 16.443 11.2235 17.8471 11.2235H33.053C34.4571 11.2235 35.8036 11.7813 36.7965 12.7741C37.7893 13.767 38.3471 15.1135 38.3471 16.5176V26.7235C38.3471 28.1276 37.7893 29.4742 36.7965 30.467C35.8036 31.4599 34.4571 32.0176 33.053 32.0176H21.8765L17.4471 35.7294L16.8589 36.3647C16.7859 36.436 16.6994 36.492 16.6044 36.5294C16.5094 36.5668 16.4079 36.5848 16.3059 36.5823ZM17.8294 12.747C16.8299 12.7486 15.8717 13.1464 15.165 13.8531C14.4582 14.5599 14.0604 15.5181 14.0589 16.5176V26.7235C14.0669 27.4971 14.3112 28.2498 14.7591 28.8806C15.207 29.5114 15.837 29.9903 16.5647 30.2529C16.7104 30.3044 16.8363 30.4001 16.9249 30.5267C17.0135 30.6532 17.0603 30.8043 17.0589 30.9588V34.047L21.1236 30.647C21.2594 30.5308 21.433 30.4681 21.6118 30.4706H33.053C34.0525 30.469 35.0107 30.0713 35.7175 29.3645C36.4243 28.6577 36.822 27.6995 36.8236 26.7V16.5176C36.822 15.5181 36.4243 14.5599 35.7175 13.8531C35.0107 13.1464 34.0525 12.7486 33.053 12.747H17.8294Z" fill="#F58520"/>
<path opacity="0.56" d="M22.047 11.9941H18.2705C17.075 12.0094 15.9326 12.4906 15.0866 13.3355C14.2406 14.1804 13.7579 15.3222 13.7411 16.5177V26.7236C13.7411 26.7236 15.2529 13.2765 22.047 11.9941Z" fill="#E57920"/>
<path d="M38.1648 22.4824H26.6412C24.5361 22.4824 22.8295 24.1889 22.8295 26.2941V38.2588C22.8295 40.364 24.5361 42.0706 26.6412 42.0706H38.1648C40.2699 42.0706 41.9765 40.364 41.9765 38.2588V26.2941C41.9765 24.1889 40.2699 22.4824 38.1648 22.4824Z" fill="white"/>
<path d="M38.1648 22.4824H26.6412C24.5361 22.4824 22.8295 24.1889 22.8295 26.2941V38.2588C22.8295 40.364 24.5361 42.0706 26.6412 42.0706H38.1648C40.2699 42.0706 41.9765 40.364 41.9765 38.2588V26.2941C41.9765 24.1889 40.2699 22.4824 38.1648 22.4824Z" fill="#EAEAEA" fill-opacity="0.6"/>
<g opacity="0.1">
<path opacity="0.1" d="M25.4412 29.6588V39.8647C25.4443 41.0635 25.9219 42.2123 26.7695 43.0599C27.6172 43.9076 28.7659 44.3852 29.9647 44.3883H41.4118L46.0882 48.3L46.7118 48.9706V44.1177C47.5884 43.8014 48.3465 43.2231 48.8831 42.4612C49.4198 41.6993 49.7091 40.7908 49.7118 39.8588V29.6588C49.7086 28.4601 49.2311 27.3113 48.3834 26.4637C47.5358 25.616 46.387 25.1384 45.1882 25.1353H29.9647C28.7659 25.1384 27.6172 25.616 26.7695 26.4637C25.9219 27.3113 25.4443 28.4601 25.4412 29.6588Z" fill="white"/>
</g>
<path d="M25.4412 29.6588V39.8647C25.4443 41.0635 25.9219 42.2123 26.7695 43.0599C27.6172 43.9076 28.7659 44.3852 29.9647 44.3883H41.4118L46.0882 48.3L46.7118 48.9706V44.1177C47.5884 43.8014 48.3465 43.2231 48.8831 42.4612C49.4198 41.6993 49.7091 40.7908 49.7118 39.8588V29.6588C49.7086 28.4601 49.2311 27.3113 48.3834 26.4637C47.5358 25.616 46.387 25.1384 45.1882 25.1353H29.9647C28.7659 25.1384 27.6172 25.616 26.7695 26.4637C25.9219 27.3113 25.4443 28.4601 25.4412 29.6588Z" fill="#863399"/>
<path d="M46.7117 49.7235C46.6087 49.7242 46.5066 49.7031 46.4123 49.6615C46.318 49.62 46.2336 49.5589 46.1647 49.4823L45.5764 48.847L41.1411 45.1412H29.9647C28.5606 45.1412 27.214 44.5834 26.2211 43.5905C25.2283 42.5977 24.6705 41.2511 24.6705 39.847V29.6588C24.6705 28.2547 25.2283 26.9081 26.2211 25.9153C27.214 24.9225 28.5606 24.3647 29.9647 24.3647H45.1882C46.5923 24.3647 47.9389 24.9225 48.9317 25.9153C49.9245 26.9081 50.4823 28.2547 50.4823 29.6588V39.8647C50.4794 40.8603 50.1959 41.8349 49.6642 42.6767C49.1325 43.5184 48.3742 44.1932 47.4764 44.6235V48.9706C47.4756 49.1214 47.4298 49.2685 47.3449 49.3932C47.26 49.5179 47.1399 49.6144 47 49.6706C46.9083 49.7071 46.8103 49.7251 46.7117 49.7235ZM29.9647 25.8823C28.9651 25.8839 28.0069 26.2816 27.3002 26.9884C26.5934 27.6952 26.1956 28.6534 26.1941 29.6529V39.8647C26.1956 40.8642 26.5934 41.8224 27.3002 42.5292C28.0069 43.236 28.9651 43.6337 29.9647 43.6353H41.4117C41.5875 43.6341 41.7581 43.6944 41.8941 43.8059L45.9588 47.2117V44.1176C45.9612 43.9616 46.0116 43.8102 46.1032 43.6838C46.1947 43.5575 46.323 43.4625 46.4705 43.4117C47.1976 43.1489 47.8269 42.6698 48.2737 42.0389C48.7206 41.408 48.9638 40.6554 48.9705 39.8823V29.6588C48.9713 29.1622 48.874 28.6702 48.6841 28.2113C48.4942 27.7524 48.2155 27.3355 47.8641 26.9846C47.5126 26.6337 47.0953 26.3557 46.6361 26.1665C46.1769 25.9774 45.6848 25.8808 45.1882 25.8823H29.9647Z" fill="#863399"/>
<path d="M40.9062 33.7353C40.6506 34.169 40.3359 34.565 39.9709 34.9118L39.3827 35.5C39.2062 35.6765 39.0474 35.8588 38.8945 36.0412C38.7375 36.2282 38.5921 36.4246 38.4592 36.6294C38.3239 36.8412 38.1827 37.0882 38.0415 37.3647C37.9211 37.6367 37.7627 37.8902 37.5709 38.1176C37.4616 38.2225 37.3309 38.3026 37.1877 38.3523C37.0446 38.4021 36.8924 38.4204 36.7415 38.4059C36.6197 38.4066 36.4991 38.3806 36.3884 38.3298C36.2776 38.279 36.1793 38.2046 36.1004 38.1118C35.9288 37.9308 35.8339 37.6905 35.8356 37.4412C35.8305 37.0551 35.9067 36.6723 36.0592 36.3176C36.2032 35.9966 36.3827 35.6928 36.5945 35.4118C36.8172 35.1253 37.061 34.8559 37.3239 34.6059C37.5886 34.3529 37.8298 34.1118 38.0474 33.8706C38.2655 33.6503 38.4625 33.41 38.6356 33.1529C38.7869 32.9161 38.8647 32.6398 38.8592 32.3588C38.8613 32.1467 38.7931 31.9398 38.6651 31.7706C38.5397 31.612 38.3756 31.4885 38.1886 31.4118C37.9816 31.326 37.7639 31.2686 37.5415 31.2412C37.327 31.2119 37.1109 31.1962 36.8945 31.1941C36.6725 31.1907 36.4505 31.2005 36.2298 31.2235C36.0487 31.241 35.8696 31.2745 35.6945 31.3235C35.5239 31.3765 35.3474 31.4353 35.1768 31.5059L34.5886 31.7412C34.4159 31.8159 34.2297 31.854 34.0415 31.8529C33.7671 31.859 33.5012 31.7577 33.3004 31.5706C33.2024 31.479 33.125 31.3677 33.0733 31.244C33.0216 31.1203 32.9967 30.987 33.0004 30.8529C33.0006 30.6797 33.0417 30.5089 33.1204 30.3546C33.1991 30.2002 33.3132 30.0666 33.4533 29.9647C33.7758 29.7085 34.1399 29.5095 34.5298 29.3765C34.9448 29.2376 35.3723 29.1391 35.8062 29.0824C36.1534 29.035 36.503 29.0075 36.8533 29C37.3737 28.9997 37.8925 29.0569 38.4004 29.1706C38.905 29.2717 39.3885 29.4587 39.8298 29.7235C40.2461 29.9792 40.5999 30.3249 40.8651 30.7353C41.1474 31.1943 41.2886 31.7261 41.2709 32.2647C41.2777 32.7781 41.1521 33.2846 40.9062 33.7353ZM37.818 41.5529C37.6983 41.6764 37.5546 41.774 37.3958 41.8397C37.237 41.9055 37.0664 41.938 36.8945 41.9353C36.7283 41.9349 36.5638 41.9008 36.4112 41.8351C36.2585 41.7694 36.1208 41.6734 36.0062 41.5529C35.8823 41.4337 35.7843 41.2901 35.7185 41.1312C35.6527 40.9722 35.6205 40.8014 35.6239 40.6294C35.6206 40.4583 35.6529 40.2884 35.7187 40.1304C35.7845 39.9725 35.8824 39.8299 36.0062 39.7118C36.1253 39.5937 36.2668 39.5006 36.4224 39.438C36.5779 39.3754 36.7444 39.3444 36.9121 39.3471C37.0825 39.3437 37.2519 39.3743 37.4104 39.4369C37.569 39.4995 37.7135 39.5929 37.8356 39.7118C37.9587 39.8302 38.0557 39.9729 38.1205 40.1309C38.1853 40.2889 38.2165 40.4587 38.2121 40.6294C38.2144 40.8023 38.1805 40.9738 38.1126 41.1328C38.0447 41.2918 37.9444 41.435 37.818 41.5529Z" fill="white"/>
<g opacity="0.1">
<path opacity="0.1" d="M41.0177 25.1294H44.7942C45.9891 25.1446 47.1309 25.6261 47.9759 26.4712C48.821 27.3162 49.3025 28.4579 49.3177 29.6529V39.8588C49.3177 39.8588 47.8118 26.4117 41.0177 25.1294Z" fill="#863399"/>
</g>
<path opacity="0.25" d="M40.5293 25.1294H44.3117C45.5046 25.1477 46.6433 25.6305 47.4859 26.4752C48.3284 27.3199 48.8082 28.46 48.8234 29.6529V39.8588C48.8234 39.8588 47.3293 26.4117 40.5293 25.1294Z" fill="#592266"/>
</svg>
