<svg width="24" height="24" viewBox="0 0 24 24" fill="none" xmlns="http://www.w3.org/2000/svg">
<g clip-path="url(#clip0_46_116118)">
<path d="M21.4118 17.6389C19.9302 19.1304 17.9222 19.9669 15.8296 19.9641C13.7369 19.9614 11.7311 19.1198 10.2533 17.6243C8.77547 16.1289 7.94677 14.1022 7.94947 11.9901C7.95217 9.87792 8.78605 7.85337 10.2677 6.3618C10.9985 5.62163 11.8669 5.03435 12.8231 4.63364C13.7793 4.23292 14.8044 4.02665 15.8398 4.02665C16.8751 4.02665 17.9002 4.23292 18.8564 4.63364C19.8126 5.03435 20.681 5.62163 21.4118 6.3618C21.7177 6.67367 21.9983 7.00985 22.2509 7.36708L24 6.06143C23.0716 4.75151 21.847 3.68396 20.4279 2.94738C19.0089 2.2108 17.4362 1.82643 15.8405 1.82617C10.6502 1.82617 6.3816 5.80466 5.84352 10.912H2.02416V4.25628H6.78048L8.50848 1.82617H0V22.174L2.02416 20.6721V13.0897H5.84352C6.3816 18.196 10.6502 22.174 15.8405 22.174C17.4363 22.1743 19.0092 21.7902 20.4284 21.0537C21.8477 20.3172 23.0723 19.2494 24.0005 17.9392L22.2514 16.6312C21.9987 16.9892 21.718 17.3262 21.4118 17.6389Z" fill="#FBFBFB"/>
<path d="M15.8412 8.34818C16.4268 8.34962 17.0032 8.49481 17.5209 8.77123C18.0385 9.04764 18.4817 9.44699 18.8124 9.93483L20.5634 8.62675C20.0311 7.86142 19.3242 7.23665 18.5023 6.80524C17.6803 6.37383 16.7676 6.14847 15.8412 6.14819C12.6468 6.14819 10.0586 8.76773 10.0586 12.0001C10.0586 15.2325 12.6468 17.8501 15.8412 17.8511C16.7676 17.8511 17.6804 17.6259 18.5024 17.1946C19.3243 16.7633 20.0313 16.1384 20.5634 15.373L18.8124 14.065C18.459 14.5807 17.9798 14.9958 17.421 15.2699C16.8623 15.544 16.2429 15.668 15.6228 15.6298C15.0026 15.5916 14.4028 15.3926 13.8811 15.0519C13.3595 14.7113 12.9339 14.2406 12.6452 13.6853C12.3566 13.13 12.2149 12.5089 12.2337 11.8821C12.2525 11.2553 12.4312 10.6441 12.7526 10.1074C13.0739 9.57073 13.527 9.12685 14.0681 8.81866C14.6092 8.51048 15.2199 8.34843 15.8412 8.34818Z" fill="#FBFBFB"/>
</g>
<defs>
<clipPath id="clip0_46_116118">
<rect width="24" height="24" fill="white"/>
</clipPath>
</defs>
</svg>
