<svg width="235" height="181" viewBox="0 0 235 181" fill="none" xmlns="http://www.w3.org/2000/svg">
<g opacity="0.6">
<mask id="mask0_178_32484" style="mask-type:alpha" maskUnits="userSpaceOnUse" x="-119" y="0" width="354" height="355">
<g opacity="0.7">
<path d="M65.5242 194.818C64.2832 199.034 61.5964 201.529 57.208 201.33C52.8196 201.132 50.3758 198.381 49.4739 194.14C49.337 195.238 48.9783 196.296 48.4196 197.25C47.861 198.205 47.114 199.036 46.2241 199.693C44.7331 200.797 42.8923 201.325 41.0425 201.177C39.2149 201.036 37.4943 200.26 36.1796 198.982C34.8649 197.705 34.0392 196.008 33.8457 194.185C33.4299 190.097 35.912 186.873 40.6778 185.536C38.6519 185.231 36.8034 184.207 35.4706 182.651C34.1943 181.146 33.5319 179.216 33.6154 177.245C33.769 173.477 36.0463 170.918 40.3644 169.569C39.3328 169.197 38.3354 168.737 37.3833 168.193C36.51 167.557 35.7324 166.798 35.074 165.942C34.3554 165.062 33.9303 163.979 33.8585 162.845C33.7582 161.777 33.8142 160.699 34.0248 159.647C34.4184 157.993 35.3499 156.516 36.6732 155.449C37.9966 154.381 39.6369 153.783 41.3367 153.749C45.2198 153.627 48.0409 155.828 49.4739 160.229C50.4142 156.608 52.6021 154.382 56.3891 153.486C53.7279 152.847 51.8408 151.535 50.6957 149.309C49.84 147.666 49.6126 145.767 50.056 143.967C50.4775 142.222 51.4919 140.677 52.9259 139.596C54.3599 138.515 56.1246 137.966 57.9187 138.041C59.7128 138.117 61.425 138.813 62.7631 140.01C64.1012 141.208 64.9821 142.832 65.2555 144.607C65.7033 147.684 64.4239 151.977 58.8584 153.506C62.2745 154.318 64.4815 156.288 65.5882 159.826C66.3047 157.51 67.4625 155.828 69.3305 154.766C70.2047 154.221 71.1788 153.855 72.1958 153.69C73.2129 153.525 74.2526 153.565 75.2542 153.806C76.8827 154.21 78.3466 155.107 79.4459 156.375C80.5451 157.642 81.226 159.219 81.3955 160.888C81.5982 162.81 81.0682 164.738 79.9113 166.287C78.7622 167.834 77.1447 168.969 75.299 169.524C76.8859 169.996 78.3202 170.879 79.4571 172.083C80.5384 173.315 81.2735 174.811 81.5874 176.42C82.1567 174.187 83.2122 172.294 85.1953 171.046C86.1365 170.426 87.2048 170.023 88.3218 169.87C89.4388 169.716 90.576 169.814 91.65 170.157C93.339 170.674 94.8007 171.752 95.7929 173.213C96.7852 174.674 97.2484 176.43 97.1058 178.191C96.9632 179.951 96.2234 181.61 95.0089 182.892C93.7944 184.175 92.1782 185.004 90.4282 185.242C86.2381 185.747 83.2698 183.534 81.5618 178.505C81.3355 180.219 80.5843 181.82 79.4114 183.089C78.2384 184.358 76.7013 185.233 75.0111 185.593C77.57 186.355 79.3676 187.673 80.4806 189.822C81.0586 190.962 81.3511 192.225 81.3332 193.503C81.3152 194.78 80.9873 196.035 80.3776 197.158C79.7679 198.281 78.8947 199.239 77.8329 199.951C76.7711 200.662 75.5525 201.104 74.2819 201.241C70.1237 201.599 67.2642 199.526 65.5242 194.818ZM55.2888 185.67C51.8792 184.148 51.2267 183.476 49.3587 179.683C48.252 182.881 46.0514 184.832 42.533 185.555C46.5696 186.483 48.815 188.811 49.4739 192.707C49.6784 191.102 50.3349 189.589 51.3667 188.343C52.3985 187.097 53.7632 186.17 55.3016 185.67L55.2888 185.67ZM42.904 169.518C44.4097 169.825 45.8046 170.532 46.9418 171.566C48.0789 172.599 48.9161 173.92 49.3651 175.39C49.7416 174.519 50.1843 173.679 50.6893 172.876C51.2637 172.095 51.9416 171.395 52.7044 170.797C53.4831 170.272 54.2976 169.801 55.1417 169.39C52.0775 168.289 50.2927 166.146 49.4483 162.89C48.5079 166.575 46.3265 168.635 42.904 169.518ZM59.7476 185.651C61.1674 186.099 62.4473 186.906 63.4628 187.994C64.4784 189.083 65.1952 190.415 65.5434 191.863C66.4326 188.626 68.4477 186.572 71.8126 185.581C70.3888 185.249 69.0717 184.564 67.9836 183.587C66.8955 182.611 66.0715 181.376 65.5882 179.996C65.1334 181.335 64.3665 182.546 63.3509 183.529C62.3353 184.512 61.1001 185.24 59.7476 185.651ZM60.1506 169.351C61.3011 170.026 62.3925 170.796 63.4132 171.654C64.2711 172.651 65.0396 173.721 65.7097 174.853C66.1929 173.555 66.9791 172.392 68.0028 171.459C69.0264 170.527 70.2581 169.852 71.5951 169.492C68.5181 168.564 66.5797 166.607 65.5626 163.395C65.2231 164.758 64.551 166.015 63.6066 167.055C62.6621 168.094 61.4747 168.883 60.1506 169.351Z" fill="#90CDEF"/>
<path d="M89.5064 153.928C91.5423 153.966 93.4797 154.812 94.8924 156.278C96.305 157.745 97.0772 159.713 97.039 161.749C97.0008 163.785 96.1554 165.722 94.6888 167.135C93.2222 168.547 91.2545 169.319 89.2185 169.281C87.1826 169.243 85.2452 168.398 83.8325 166.931C82.4199 165.464 81.6477 163.497 81.6859 161.461C81.7241 159.425 82.5695 157.487 84.0361 156.075C85.5027 154.662 87.4704 153.89 89.5064 153.928Z" fill="#90CDEF"/>
<path d="M81.0769 145.879C81.0448 147.398 80.5624 148.874 79.6908 150.119C78.8192 151.364 77.5978 152.322 76.1811 152.872C74.7645 153.422 73.2164 153.54 71.733 153.209C70.2497 152.879 68.8977 152.116 67.8485 151.016C66.7994 149.917 66.1001 148.531 65.8394 147.033C65.5787 145.536 65.7682 143.995 66.384 142.606C66.9998 141.217 68.0142 140.041 69.2985 139.229C70.5829 138.416 72.0795 138.004 73.5987 138.042C75.6281 138.094 77.5542 138.948 78.9557 140.417C80.3572 141.885 81.1199 143.849 81.0769 145.879Z" fill="#90CDEF"/>
<path d="M33.3793 177.514C33.3882 179.023 32.9484 180.5 32.1159 181.759C31.2834 183.017 30.0957 184 28.7037 184.582C27.3116 185.164 25.7779 185.319 24.2974 185.028C22.8169 184.737 21.4564 184.012 20.3885 182.946C19.3207 181.88 18.5937 180.521 18.3 179.041C18.0062 177.561 18.1589 176.027 18.7386 174.634C19.3184 173.241 20.2991 172.051 21.5561 171.217C22.8131 170.382 24.2899 169.94 25.7987 169.946C27.8029 169.96 29.7213 170.761 31.1397 172.177C32.5581 173.593 33.3625 175.51 33.3793 177.514Z" fill="#90CDEF"/>
<path d="M41.6384 153.346C39.6211 153.351 37.6841 152.556 36.2534 151.134C34.8228 149.711 34.0157 147.779 34.0098 145.762C34.0039 143.744 34.7995 141.807 36.2218 140.377C37.644 138.946 39.5763 138.139 41.5936 138.133C43.6109 138.127 45.5479 138.923 46.9785 140.345C48.4091 141.767 49.2162 143.7 49.2221 145.717C49.2281 147.734 48.4324 149.671 47.0102 151.102C45.5879 152.533 43.6556 153.34 41.6384 153.346Z" fill="#90CDEF"/>
<path d="M25.8171 169.128C23.8151 169.128 21.8951 168.333 20.4795 166.917C19.0638 165.502 18.2686 163.582 18.2686 161.58C18.2686 159.578 19.0638 157.658 20.4795 156.242C21.8951 154.827 23.8151 154.031 25.8171 154.031C27.8192 154.031 29.7392 154.827 31.1548 156.242C32.5704 157.658 33.3657 159.578 33.3657 161.58C33.3657 163.582 32.5704 165.502 31.1548 166.917C29.7392 168.333 27.8192 169.128 25.8171 169.128Z" fill="#90CDEF"/>
<path d="M96.7997 145.72C96.7964 146.698 96.6005 147.666 96.2231 148.568C95.8458 149.47 95.2945 150.289 94.6007 150.978C93.9069 151.667 93.0841 152.213 92.1794 152.584C91.2747 152.955 90.3058 153.144 89.3279 153.141C88.3501 153.137 87.3825 152.941 86.4803 152.564C85.5782 152.187 84.7592 151.636 84.0701 150.942C83.3811 150.248 82.8354 149.425 82.4643 148.52C82.0932 147.616 81.9039 146.647 81.9073 145.669C81.9141 143.694 82.7051 141.803 84.1063 140.411C85.5076 139.019 87.4042 138.241 89.3791 138.248C91.354 138.255 93.2453 139.046 94.6369 140.447C96.0285 141.849 96.8065 143.745 96.7997 145.72Z" fill="#90CDEF"/>
<path d="M18.4415 145.752C18.4416 144.3 18.8718 142.881 19.6779 141.674C20.484 140.467 21.6298 139.526 22.9706 138.969C24.3114 138.413 25.7871 138.266 27.2111 138.548C28.6351 138.83 29.9437 139.527 30.9715 140.552C31.9994 141.578 32.7003 142.884 32.9858 144.308C33.2714 145.731 33.1287 147.207 32.5758 148.549C32.0229 149.891 31.0846 151.04 29.8794 151.849C28.6742 152.658 27.2563 153.092 25.8046 153.096C24.8369 153.105 23.8772 152.92 22.9813 152.555C22.0854 152.189 21.2712 151.649 20.586 150.965C19.9008 150.282 19.3584 149.469 18.9902 148.574C18.6221 147.679 18.4356 146.72 18.4415 145.752Z" fill="#90CDEF"/>
<path d="M57.56 122.467C59.0101 122.46 60.4295 122.884 61.6391 123.684C62.8486 124.484 63.794 125.624 64.356 126.961C64.9179 128.298 65.071 129.771 64.7962 131.195C64.5213 132.619 63.8307 133.929 62.8116 134.961C61.7925 135.992 60.4906 136.699 59.0702 136.991C57.6498 137.283 56.1747 137.148 54.8311 136.603C53.4876 136.057 52.3358 135.125 51.5212 133.926C50.7067 132.726 50.2658 131.312 50.2545 129.862C50.2426 128.895 50.4228 127.935 50.7846 127.039C51.1465 126.142 51.6827 125.326 52.3623 124.638C53.0418 123.95 53.8512 123.404 54.7434 123.031C55.6357 122.659 56.593 122.467 57.56 122.467Z" fill="#90CDEF"/>
<path d="M112.537 177.539C112.537 178.991 112.107 180.41 111.301 181.617C110.495 182.825 109.349 183.766 108.008 184.322C106.667 184.879 105.192 185.025 103.768 184.743C102.344 184.462 101.035 183.764 100.007 182.739C98.9796 181.714 98.2786 180.407 97.9931 178.984C97.7075 177.56 97.8502 176.084 98.4031 174.742C98.956 173.4 99.8943 172.252 101.099 171.442C102.305 170.633 103.723 170.199 105.174 170.195C106.142 170.187 107.102 170.371 107.998 170.737C108.894 171.103 109.708 171.643 110.393 172.326C111.078 173.01 111.621 173.823 111.989 174.717C112.357 175.612 112.543 176.572 112.537 177.539Z" fill="#90CDEF"/>
<path d="M105.173 168.878C103.726 168.875 102.311 168.443 101.11 167.635C99.9088 166.827 98.9745 165.681 98.4259 164.341C97.8772 163.002 97.7389 161.529 98.0286 160.111C98.3182 158.693 99.0226 157.392 100.052 156.375C101.082 155.358 102.391 154.669 103.813 154.397C105.235 154.125 106.705 154.282 108.038 154.847C109.371 155.412 110.506 156.36 111.299 157.571C112.091 158.782 112.507 160.202 112.491 161.649C112.471 163.576 111.691 165.416 110.32 166.77C108.95 168.124 107.1 168.881 105.173 168.878Z" fill="#90CDEF"/>
<path d="M73.3922 122.512C74.8397 122.505 76.257 122.927 77.4639 123.727C78.6709 124.526 79.6132 125.666 80.1713 127.001C80.7294 128.337 80.878 129.809 80.5984 131.229C80.3188 132.649 79.6235 133.955 78.6008 134.979C77.5781 136.004 76.2741 136.701 74.8542 136.983C73.4344 137.265 71.9627 137.119 70.626 136.564C69.2893 136.008 68.1478 135.068 67.3465 133.862C66.5451 132.656 66.12 131.24 66.125 129.792C66.1334 127.866 66.9014 126.022 68.262 124.658C69.6227 123.295 71.4662 122.524 73.3922 122.512Z" fill="#90CDEF"/>
<path d="M41.6515 122.557C43.0815 122.563 44.4777 122.993 45.6639 123.791C46.8501 124.59 47.7733 125.722 48.3171 127.045C48.8608 128.367 49.0008 129.821 48.7193 131.223C48.4379 132.625 47.7476 133.913 46.7355 134.923C45.7234 135.933 44.4348 136.621 43.0322 136.9C41.6297 137.179 40.1759 137.037 38.8542 136.491C37.5325 135.945 36.4021 135.02 35.6055 133.832C34.8089 132.644 34.3818 131.247 34.378 129.817C34.3754 128.862 34.5619 127.916 34.9267 127.033C35.2915 126.15 35.8274 125.348 36.5034 124.673C37.1795 123.998 37.9825 123.464 38.866 123.1C39.7495 122.737 40.6962 122.552 41.6515 122.557Z" fill="#90CDEF"/>
<path d="M2.7559 177.533C2.7559 175.624 3.51413 173.794 4.86378 172.444C6.21343 171.095 8.04396 170.336 9.95265 170.336C11.8614 170.336 13.6919 171.095 15.0415 172.444C16.3912 173.794 17.1494 175.624 17.1494 177.533C17.136 179.44 16.373 181.265 15.0252 182.614C13.6775 183.963 11.8531 184.728 9.94626 184.743C9.00015 184.743 8.06319 184.557 7.18919 184.195C6.31518 183.833 5.52133 183.302 4.85323 182.632C4.18512 181.962 3.65591 181.167 3.29599 180.292C2.93607 179.417 2.75253 178.479 2.7559 177.533Z" fill="#90CDEF"/>
<path d="M2.78812 161.585C2.78218 159.686 3.53066 157.863 4.86892 156.516C6.20717 155.17 8.02558 154.41 9.9241 154.404C11.8226 154.398 13.6457 155.146 14.9924 156.485C16.339 157.823 17.0989 159.641 17.1048 161.54C17.1078 162.48 16.9255 163.411 16.5685 164.281C16.2115 165.151 15.6867 165.941 15.024 166.608C14.3614 167.275 13.5739 167.805 12.7066 168.167C11.8392 168.53 10.9089 168.718 9.96887 168.721C9.02882 168.724 8.0974 168.541 7.22779 168.184C6.35817 167.827 5.56738 167.302 4.90058 166.64C4.23379 165.977 3.70404 165.19 3.34158 164.322C2.97912 163.455 2.79106 162.525 2.78812 161.585Z" fill="#90CDEF"/>
<path d="M105.187 152.878C103.779 152.875 102.404 152.456 101.234 151.673C100.065 150.89 99.1534 149.778 98.6151 148.477C98.0767 147.177 97.9356 145.746 98.2094 144.365C98.4832 142.984 99.1598 141.716 100.154 140.719C101.148 139.723 102.415 139.043 103.794 138.765C105.174 138.487 106.606 138.625 107.908 139.16C109.21 139.695 110.324 140.603 111.11 141.77C111.897 142.938 112.32 144.312 112.326 145.72C112.329 146.659 112.147 147.59 111.79 148.458C111.432 149.327 110.907 150.117 110.244 150.782C109.58 151.447 108.792 151.975 107.924 152.334C107.056 152.694 106.126 152.879 105.187 152.878Z" fill="#90CDEF"/>
<path d="M82.2728 129.83C82.3193 127.982 83.0839 126.225 84.4043 124.932C85.7248 123.638 87.4973 122.91 89.3457 122.902C91.1941 122.893 92.9731 123.606 94.3051 124.887C95.6372 126.169 96.4176 127.919 96.4807 129.766C96.5132 130.717 96.3546 131.664 96.0143 132.552C95.674 133.44 95.1588 134.251 94.4995 134.936C93.8401 135.622 93.0498 136.168 92.1756 136.542C91.3013 136.917 90.3608 137.112 89.4097 137.116C88.4586 137.12 87.5164 136.934 86.6388 136.567C85.7612 136.201 84.966 135.662 84.3005 134.982C83.635 134.303 83.1126 133.497 82.7643 132.612C82.416 131.727 82.2488 130.781 82.2728 129.83Z" fill="#90CDEF"/>
<path d="M25.7922 122.767C27.1875 122.767 28.5512 123.182 29.7102 123.959C30.8691 124.736 31.7709 125.84 32.3009 127.131C32.831 128.421 32.9654 129.84 32.6871 131.208C32.4088 132.575 31.7303 133.828 30.7378 134.809C29.7454 135.79 28.4838 136.453 27.1133 136.715C25.7429 136.978 24.3255 136.826 23.0412 136.281C21.7569 135.735 20.6638 134.821 19.9007 133.653C19.1375 132.484 18.7389 131.116 18.7554 129.721C18.7773 127.869 19.5283 126.1 20.8456 124.799C22.1629 123.497 23.9402 122.767 25.7922 122.767Z" fill="#90CDEF"/>
<path d="M9.92241 152.758C8.10548 152.699 6.38294 151.934 5.12002 150.627C3.8571 149.319 3.15308 147.571 3.15724 145.753C3.1614 143.935 3.87341 142.191 5.14231 140.889C6.4112 139.587 8.13721 138.831 9.9544 138.78C10.89 138.754 11.8213 138.916 12.6931 139.257C13.5649 139.597 14.3595 140.109 15.0297 140.762C15.7 141.416 16.2322 142.197 16.5949 143.06C16.9576 143.923 17.1434 144.849 17.1413 145.785C17.1391 146.721 16.9491 147.647 16.5825 148.508C16.2158 149.37 15.68 150.148 15.0068 150.799C14.3335 151.449 13.5366 151.957 12.6633 152.294C11.7899 152.63 10.8579 152.788 9.92241 152.758Z" fill="#90CDEF"/>
<path d="M50.6526 113.9C50.6597 112.99 50.846 112.091 51.2007 111.253C51.5555 110.415 52.0718 109.655 52.7202 109.017C53.3686 108.379 54.1363 107.875 54.9796 107.533C55.8229 107.191 56.7252 107.019 57.635 107.026C58.5448 107.034 59.4443 107.22 60.2821 107.575C61.1199 107.929 61.8797 108.446 62.518 109.094C63.1562 109.742 63.6606 110.51 64.0021 111.354C64.3437 112.197 64.5158 113.099 64.5087 114.009C64.4943 115.846 63.7505 117.603 62.4411 118.892C61.1316 120.181 59.3637 120.897 57.5262 120.883C55.6888 120.868 53.9323 120.124 52.6433 118.815C51.3542 117.505 50.6381 115.738 50.6526 113.9Z" fill="#90CDEF"/>
<path d="M127.966 177.578C127.961 178.949 127.55 180.287 126.783 181.424C126.017 182.561 124.93 183.445 123.661 183.964C122.393 184.483 120.998 184.614 119.655 184.34C118.311 184.067 117.079 183.4 116.115 182.426C115.15 181.451 114.496 180.213 114.236 178.867C113.976 177.521 114.121 176.127 114.653 174.864C115.185 173.6 116.08 172.523 117.225 171.768C118.369 171.013 119.712 170.615 121.083 170.624C122.917 170.638 124.67 171.377 125.96 172.68C127.25 173.983 127.972 175.744 127.966 177.578Z" fill="#90CDEF"/>
<path d="M73.3934 120.816C72.4734 120.837 71.5585 120.673 70.703 120.334C69.8475 119.995 69.0688 119.487 68.413 118.842C67.7571 118.196 67.2375 117.426 66.885 116.575C66.5324 115.725 66.3541 114.813 66.3605 113.893C66.3669 112.973 66.558 112.063 66.9224 111.218C67.2868 110.373 67.8171 109.61 68.4818 108.973C69.1466 108.337 69.9323 107.84 70.7925 107.513C71.6527 107.186 72.5697 107.035 73.4894 107.069C75.2767 107.134 76.9681 107.894 78.2049 109.186C79.4417 110.478 80.1265 112.201 80.114 113.989C80.1015 115.777 79.3927 117.491 78.138 118.765C76.8833 120.04 75.1815 120.775 73.3934 120.816Z" fill="#90CDEF"/>
<path d="M128.018 161.624C127.964 163.41 127.216 165.106 125.932 166.35C124.649 167.595 122.932 168.291 121.144 168.291C119.357 168.291 117.64 167.595 116.356 166.35C115.073 165.106 114.325 163.41 114.271 161.624C114.243 160.703 114.4 159.787 114.733 158.928C115.065 158.07 115.567 157.287 116.208 156.626C116.849 155.965 117.616 155.44 118.464 155.081C119.312 154.722 120.224 154.537 121.144 154.537C122.065 154.537 122.977 154.722 123.825 155.081C124.672 155.44 125.44 155.965 126.081 156.626C126.722 157.287 127.224 158.07 127.556 158.928C127.889 159.787 128.046 160.703 128.018 161.624Z" fill="#90CDEF"/>
<path d="M105.083 136.765C103.731 136.743 102.416 136.321 101.303 135.551C100.191 134.782 99.3316 133.7 98.8341 132.443C98.3365 131.185 98.2231 129.808 98.508 128.486C98.793 127.164 99.4635 125.956 100.435 125.015C101.406 124.074 102.635 123.442 103.965 123.2C105.296 122.957 106.669 123.114 107.91 123.651C109.151 124.189 110.205 125.082 110.938 126.218C111.672 127.354 112.052 128.683 112.031 130.035C112 131.848 111.252 133.575 109.949 134.837C108.647 136.099 106.897 136.792 105.083 136.765Z" fill="#90CDEF"/>
<path d="M41.7516 120.771C39.9379 120.771 38.1985 120.051 36.916 118.768C35.6336 117.486 34.9131 115.746 34.9131 113.933C34.9131 112.119 35.6336 110.38 36.916 109.097C38.1985 107.815 39.9379 107.094 41.7516 107.094C43.5574 107.109 45.2857 107.83 46.5663 109.104C47.8468 110.377 48.5779 112.101 48.6029 113.907C48.6063 114.808 48.4315 115.701 48.0885 116.535C47.7455 117.368 47.2412 118.126 46.6045 118.764C45.9678 119.402 45.2113 119.907 44.3784 120.252C43.5456 120.596 42.6529 120.773 41.7516 120.771Z" fill="#90CDEF"/>
<path d="M-12.7635 177.539C-12.7862 176.634 -12.627 175.734 -12.2953 174.892C-11.9636 174.05 -11.4662 173.283 -10.8325 172.636C-10.1988 171.99 -9.44179 171.477 -8.60631 171.129C-7.77082 170.78 -6.87389 170.603 -5.96868 170.608C-5.06348 170.613 -4.16843 170.799 -3.33662 171.156C-2.5048 171.513 -1.75316 172.034 -1.12624 172.687C-0.499321 173.34 -0.00989722 174.112 0.313013 174.957C0.635923 175.803 0.785744 176.705 0.753595 177.61C0.691167 179.366 -0.052926 181.03 -1.32096 182.247C-2.58899 183.465 -4.28127 184.14 -6.03908 184.131C-7.79689 184.122 -9.48205 183.429 -10.7373 182.198C-11.9926 180.968 -12.7194 179.297 -12.7635 177.539Z" fill="#90CDEF"/>
<path d="M9.90948 136.521C8.15791 136.46 6.49891 135.72 5.28405 134.456C4.06918 133.193 3.39394 131.506 3.40143 129.754C3.40892 128.001 4.09853 126.32 5.32414 125.068C6.54975 123.815 8.21503 123.088 9.96706 123.042C10.8695 123.019 11.7675 123.176 12.6078 123.506C13.4481 123.836 14.2137 124.332 14.859 124.963C15.5043 125.594 16.0163 126.349 16.3645 127.181C16.7128 128.014 16.8903 128.909 16.8864 129.811C16.8826 130.714 16.6975 131.607 16.3421 132.437C15.9867 133.267 15.4683 134.017 14.8176 134.642C14.167 135.268 13.3972 135.757 12.5541 136.08C11.711 136.402 10.8117 136.552 9.90948 136.521Z" fill="#90CDEF"/>
<path d="M-6.03303 154.868C-5.1428 154.863 -4.26041 155.034 -3.43696 155.373C-2.61351 155.711 -1.86538 156.209 -1.23588 156.839C-0.606383 157.468 -0.108034 158.216 0.230293 159.04C0.568621 159.863 0.740206 160.746 0.735114 161.636C0.756783 162.538 0.597076 163.436 0.265453 164.275C-0.0661697 165.115 -0.562954 165.879 -1.19545 166.523C-1.82794 167.167 -2.58328 167.677 -3.41667 168.023C-4.25006 168.37 -5.14454 168.546 -6.0471 168.54C-6.94965 168.535 -7.8419 168.348 -8.67095 167.991C-9.5 167.634 -10.249 167.115 -10.8735 166.463C-11.498 165.811 -11.9853 165.041 -12.3065 164.198C-12.6278 163.354 -12.7764 162.455 -12.7436 161.553C-12.7436 160.673 -12.5699 159.801 -12.2323 158.989C-11.8947 158.176 -11.4 157.438 -10.7766 156.817C-10.1531 156.196 -9.41313 155.704 -8.59912 155.369C-7.7851 155.035 -6.91307 154.864 -6.03303 154.868Z" fill="#90CDEF"/>
<path d="M96.0905 113.939C96.098 115.277 95.7076 116.586 94.9688 117.701C94.2299 118.816 93.1761 119.687 91.9414 120.201C90.7067 120.716 89.3469 120.851 88.0349 120.591C86.7228 120.33 85.518 119.685 84.5735 118.738C83.629 117.791 82.9876 116.584 82.7308 115.271C82.4741 113.959 82.6136 112.599 83.1316 111.366C83.6497 110.133 84.5228 109.081 85.64 108.346C86.7572 107.61 88.0679 107.223 89.4055 107.235C90.2855 107.233 91.1571 107.406 91.9702 107.742C92.7832 108.079 93.5217 108.573 94.1431 109.196C94.7644 109.819 95.2564 110.559 95.5906 111.373C95.9248 112.187 96.0947 113.059 96.0905 113.939Z" fill="#90CDEF"/>
<path d="M121.193 152.476C120.312 152.486 119.439 152.322 118.622 151.993C117.805 151.665 117.062 151.178 116.434 150.561C115.806 149.943 115.307 149.208 114.964 148.397C114.621 147.586 114.442 146.716 114.437 145.836C114.417 144.498 114.795 143.185 115.523 142.063C116.251 140.942 117.296 140.061 118.525 139.535C119.754 139.009 121.112 138.86 122.427 139.107C123.741 139.355 124.952 139.987 125.906 140.925C126.859 141.862 127.513 143.062 127.783 144.372C128.053 145.682 127.927 147.042 127.422 148.28C126.917 149.519 126.055 150.579 124.946 151.326C123.836 152.073 122.53 152.473 121.193 152.476Z" fill="#90CDEF"/>
<path d="M25.8104 120.612C24.9351 120.616 24.0674 120.449 23.2569 120.118C22.4464 119.787 21.709 119.3 21.0867 118.684C19.83 117.441 19.1188 115.749 19.1095 113.981C19.1001 112.213 19.7935 110.514 21.0369 109.257C22.2804 108.001 23.9722 107.29 25.7401 107.28C27.5079 107.271 29.2071 107.964 30.4638 109.208C31.7205 110.451 32.4317 112.143 32.441 113.911C32.4504 115.679 31.757 117.378 30.5136 118.635C29.2701 119.891 27.5783 120.602 25.8104 120.612Z" fill="#90CDEF"/>
<path d="M0.567898 145.759C0.569078 147.068 0.180952 148.348 -0.547146 149.436C-1.27524 150.525 -2.31043 151.372 -3.52112 151.87C-4.73182 152.368 -6.06334 152.495 -7.34645 152.235C-8.62955 151.975 -9.80629 151.339 -10.7271 150.408C-11.6479 149.477 -12.2711 148.294 -12.5177 147.008C-12.7642 145.722 -12.6228 144.392 -12.1115 143.187C-11.6002 141.982 -10.7421 140.956 -9.64628 140.239C-8.55042 139.523 -7.2663 139.148 -5.95715 139.164C-4.22069 139.184 -2.56211 139.887 -1.34076 141.122C-0.119414 142.356 0.566333 144.022 0.567898 145.759Z" fill="#90CDEF"/>
<path d="M121.161 123.42C122.449 123.417 123.709 123.795 124.782 124.508C125.854 125.221 126.691 126.237 127.186 127.426C127.681 128.615 127.812 129.925 127.562 131.188C127.312 132.452 126.693 133.613 125.782 134.524C124.872 135.435 123.712 136.056 122.448 136.307C121.185 136.558 119.875 136.429 118.686 135.935C117.496 135.441 116.48 134.605 115.765 133.533C115.051 132.461 114.671 131.201 114.674 129.913C114.679 128.194 115.364 126.546 116.579 125.33C117.794 124.114 119.441 123.427 121.161 123.42Z" fill="#90CDEF"/>
<path d="M105.18 107.465C106.468 107.456 107.73 107.83 108.805 108.539C109.881 109.247 110.721 110.26 111.221 111.447C111.721 112.634 111.857 113.943 111.612 115.208C111.367 116.472 110.752 117.636 109.845 118.55C108.939 119.465 107.781 120.09 106.518 120.347C105.256 120.603 103.946 120.478 102.754 119.989C101.563 119.5 100.543 118.668 99.8246 117.599C99.1062 116.53 98.7213 115.272 98.7188 113.984C98.7187 112.265 99.3976 110.615 100.608 109.394C101.818 108.174 103.461 107.48 105.18 107.465Z" fill="#90CDEF"/>
<path d="M137.057 171.085C138.332 171.096 139.576 171.484 140.631 172.201C141.685 172.918 142.505 173.931 142.985 175.113C143.465 176.294 143.585 177.592 143.329 178.841C143.073 180.091 142.453 181.236 141.548 182.134C140.642 183.032 139.49 183.642 138.239 183.886C136.987 184.131 135.691 184 134.514 183.509C133.336 183.019 132.331 182.19 131.623 181.129C130.916 180.068 130.538 178.821 130.538 177.546C130.537 176.692 130.706 175.847 131.034 175.059C131.362 174.271 131.843 173.555 132.449 172.955C133.055 172.354 133.775 171.879 134.566 171.558C135.356 171.237 136.203 171.076 137.057 171.085Z" fill="#90CDEF"/>
<path d="M57.5153 104.568C56.2424 104.557 55.001 104.171 53.9475 103.456C52.894 102.742 52.0755 101.732 51.5951 100.553C51.1147 99.3744 50.9939 98.0798 51.2479 96.8325C51.5019 95.5852 52.1194 94.441 53.0226 93.5441C53.9258 92.6471 55.0742 92.0375 56.3232 91.7921C57.5722 91.5467 58.866 91.6765 60.0414 92.165C61.2168 92.6535 62.2213 93.479 62.9284 94.5375C63.6354 95.5959 64.0134 96.8399 64.0147 98.1128C64.0148 98.9643 63.8463 99.8073 63.5192 100.593C63.192 101.379 62.7125 102.093 62.1084 102.693C61.5043 103.293 60.7874 103.767 59.9991 104.089C59.2108 104.411 58.3667 104.573 57.5153 104.568Z" fill="#90CDEF"/>
<path d="M136.961 168.001C136.118 167.995 135.284 167.824 134.507 167.496C133.729 167.168 133.025 166.691 132.432 166.09C131.839 165.49 131.371 164.779 131.053 163.998C130.735 163.216 130.575 162.38 130.58 161.537C130.586 160.693 130.757 159.859 131.085 159.082C131.413 158.305 131.891 157.6 132.491 157.007C133.091 156.415 133.802 155.946 134.583 155.628C135.365 155.311 136.201 155.15 137.044 155.155C138.748 155.166 140.377 155.854 141.574 157.066C142.771 158.278 143.437 159.916 143.426 161.62C143.415 163.323 142.727 164.952 141.515 166.149C140.303 167.346 138.665 168.012 136.961 168.001Z" fill="#90CDEF"/>
<path d="M73.3739 91.7036C74.6367 91.7037 75.8712 92.0774 76.9219 92.7779C77.9726 93.4783 78.7925 94.474 79.2784 95.6395C79.7642 96.8051 79.8942 98.0884 79.652 99.3277C79.4098 100.567 78.8062 101.707 77.9173 102.604C77.0284 103.501 75.894 104.115 74.6569 104.368C73.4198 104.621 72.1354 104.503 70.9655 104.027C69.7956 103.552 68.7926 102.741 68.0828 101.697C67.373 100.652 66.9882 99.421 66.9768 98.1583C66.9692 97.3134 67.1291 96.4753 67.4472 95.6925C67.7652 94.9098 68.2352 94.1977 68.83 93.5976C69.4248 92.9975 70.1326 92.5211 70.9125 92.196C71.6924 91.8709 72.529 91.7036 73.3739 91.7036Z" fill="#90CDEF"/>
<path d="M41.7722 91.7284C42.6172 91.7284 43.4538 91.8957 44.2337 92.2208C45.0136 92.5459 45.7213 93.0223 46.3161 93.6224C46.9109 94.2225 47.3809 94.9346 47.699 95.7173C48.0171 96.5001 48.1769 97.3382 48.1693 98.1831C48.1379 99.8657 47.4524 101.47 46.2582 102.656C45.064 103.842 43.455 104.516 41.7722 104.535C40.9289 104.535 40.0939 104.369 39.3153 104.045C38.5366 103.721 37.8297 103.246 37.2352 102.648C36.6406 102.05 36.1702 101.34 35.851 100.56C35.5318 99.7792 35.3701 98.9432 35.3751 98.0999C35.3708 97.2599 35.5336 96.4273 35.8539 95.6507C36.1742 94.874 36.6456 94.1688 37.2408 93.576C37.836 92.9831 38.5432 92.5145 39.3211 92.1973C40.099 91.8802 40.9322 91.7208 41.7722 91.7284Z" fill="#90CDEF"/>
<path d="M16.3178 113.907C16.3314 114.75 16.1766 115.587 15.8624 116.37C15.5483 117.152 15.0811 117.864 14.4882 118.463C13.8954 119.063 13.1888 119.538 12.41 119.86C11.6311 120.183 10.7957 120.347 9.95264 120.343C9.1088 120.349 8.27212 120.188 7.49081 119.869C6.7095 119.55 5.999 119.08 5.40022 118.485C4.80144 117.89 4.32623 117.183 4.00195 116.404C3.67766 115.625 3.51072 114.79 3.51074 113.946C3.53036 112.264 4.20367 110.656 5.38812 109.462C6.57256 108.268 8.17517 107.582 9.85668 107.549C10.6989 107.54 11.5345 107.698 12.3155 108.013C13.0966 108.329 13.8076 108.795 14.4079 109.386C15.0083 109.977 15.486 110.68 15.8137 111.456C16.1415 112.232 16.3127 113.065 16.3178 113.907Z" fill="#90CDEF"/>
<path d="M-5.99539 123.445C-4.73805 123.453 -3.51119 123.833 -2.46989 124.538C-1.42859 125.242 -0.619596 126.24 -0.145161 127.404C0.329276 128.569 0.447848 129.848 0.195575 131.079C-0.0566997 132.311 -0.66849 133.441 -1.56248 134.325C-2.45647 135.209 -3.59252 135.808 -4.82702 136.047C-6.06152 136.285 -7.33906 136.153 -8.49815 135.665C-9.65725 135.178 -10.6459 134.358 -11.339 133.309C-12.0322 132.26 -12.3988 131.029 -12.3925 129.772C-12.39 128.936 -12.2223 128.108 -11.8991 127.337C-11.5758 126.566 -11.1034 125.867 -10.509 125.279C-9.9145 124.691 -9.20974 124.226 -8.43515 123.912C-7.66057 123.597 -6.83143 123.438 -5.99539 123.445Z" fill="#90CDEF"/>
<path d="M137.006 152.034C135.339 152.043 133.737 151.389 132.552 150.217C131.367 149.046 130.696 147.451 130.686 145.784C130.686 144.113 131.349 142.51 132.531 141.329C133.713 140.147 135.316 139.483 136.987 139.483C138.658 139.483 140.261 140.147 141.442 141.329C142.624 142.51 143.288 144.113 143.288 145.784C143.29 146.609 143.129 147.425 142.814 148.187C142.499 148.948 142.036 149.64 141.452 150.221C140.867 150.802 140.174 151.262 139.41 151.573C138.647 151.884 137.83 152.041 137.006 152.034Z" fill="#90CDEF"/>
<path d="M89.3407 104.402C87.6739 104.4 86.0757 103.738 84.896 102.561C83.7162 101.383 83.051 99.7866 83.0459 98.1199C83.0488 97.2924 83.2147 96.4736 83.5341 95.7102C83.8535 94.9469 84.3201 94.2539 84.9073 93.6708C85.4945 93.0878 86.1908 92.6261 86.9564 92.3122C87.722 91.9982 88.542 91.8382 89.3694 91.8411C90.1969 91.844 91.0157 92.0099 91.7791 92.3293C92.5424 92.6487 93.2354 93.1153 93.8185 93.7025C94.4015 94.2897 94.8632 94.986 95.1771 95.7516C95.4911 96.5172 95.6512 97.3372 95.6482 98.1647C95.6483 98.9897 95.4846 99.8065 95.1668 100.568C94.849 101.329 94.3832 102.02 93.7966 102.6C93.2099 103.18 92.514 103.638 91.7491 103.947C90.9843 104.257 90.1656 104.411 89.3407 104.402Z" fill="#90CDEF"/>
<path d="M32.0042 98.1769C31.9926 99.4093 31.6156 100.61 30.9207 101.628C30.2258 102.646 29.2444 103.435 28.1009 103.894C26.9574 104.354 25.7032 104.463 24.4973 104.21C23.2914 103.956 22.188 103.349 21.3269 102.468C20.4659 101.586 19.8859 100.468 19.6606 99.2568C19.4353 98.0452 19.5747 96.794 20.0612 95.6617C20.5476 94.5293 21.3593 93.5669 22.3933 92.8964C23.4273 92.2258 24.6371 91.8773 25.8693 91.895C27.5135 91.9219 29.0805 92.5971 30.2295 93.7735C31.3784 94.95 32.0162 96.5326 32.0042 98.1769Z" fill="#90CDEF"/>
<path d="M127.32 114.048C127.314 114.864 127.144 115.67 126.822 116.42C126.499 117.169 126.03 117.847 125.442 118.413C124.853 118.978 124.158 119.42 123.396 119.713C122.634 120.006 121.822 120.144 121.006 120.118C119.786 120.092 118.6 119.704 117.6 119.004C116.599 118.304 115.828 117.324 115.384 116.186C114.941 115.049 114.844 113.805 115.106 112.613C115.369 111.42 115.978 110.332 116.858 109.486C117.739 108.64 118.85 108.073 120.052 107.858C121.254 107.642 122.492 107.788 123.612 108.276C124.731 108.764 125.68 109.573 126.34 110.6C127 111.627 127.341 112.827 127.32 114.048Z" fill="#90CDEF"/>
<path d="M136.982 123.823C138.598 123.818 140.151 124.455 141.298 125.595C142.445 126.735 143.092 128.283 143.097 129.9C143.102 131.517 142.465 133.07 141.325 134.217C140.185 135.364 138.637 136.011 137.02 136.016C136.219 136.018 135.426 135.863 134.685 135.559C133.945 135.255 133.271 134.808 132.704 134.244C132.136 133.68 131.684 133.009 131.376 132.27C131.067 131.532 130.907 130.739 130.904 129.939C130.902 129.138 131.057 128.345 131.361 127.604C131.665 126.864 132.112 126.19 132.676 125.622C133.241 125.054 133.911 124.603 134.65 124.294C135.389 123.986 136.181 123.826 136.982 123.823Z" fill="#90CDEF"/>
<path d="M105.199 104.203C103.616 104.152 102.114 103.487 101.012 102.349C99.9101 101.21 99.2939 99.6882 99.2939 98.1038C99.2939 96.5195 99.9101 94.9972 101.012 93.8589C102.114 92.7206 103.616 92.0555 105.199 92.0042C106.017 91.9777 106.831 92.1159 107.595 92.4105C108.358 92.7051 109.054 93.1501 109.642 93.7192C110.229 94.2882 110.697 94.9696 111.016 95.7228C111.335 96.476 111.5 97.2858 111.5 98.1038C111.5 98.9219 111.335 99.7316 111.016 100.485C110.697 101.238 110.229 101.919 109.642 102.488C109.054 103.057 108.358 103.503 107.595 103.797C106.831 104.092 106.017 104.23 105.199 104.203Z" fill="#90CDEF"/>
<path d="M-6.07152 107.919C-5.27436 107.911 -4.48336 108.06 -3.74388 108.357C-3.00441 108.655 -2.33099 109.096 -1.76225 109.655C-1.19351 110.213 -0.740613 110.879 -0.429542 111.613C-0.118469 112.347 0.0446673 113.135 0.0505152 113.932C0.0405102 115.541 -0.601711 117.081 -1.73752 118.221C-2.87332 119.36 -4.41161 120.007 -6.02035 120.022C-7.62535 120.029 -9.16731 119.398 -10.307 118.268C-11.4467 117.138 -12.0908 115.601 -12.0976 113.996C-12.1044 112.391 -11.4733 110.849 -10.3432 109.71C-9.21309 108.57 -7.67653 107.926 -6.07152 107.919Z" fill="#90CDEF"/>
<path d="M9.95966 103.986C8.77334 103.992 7.61183 103.646 6.62219 102.992C5.63255 102.338 4.85929 101.404 4.40033 100.311C3.94138 99.2166 3.81736 98.011 4.04398 96.8465C4.27061 95.6821 4.83768 94.611 5.6734 93.769C6.50912 92.927 7.57589 92.3519 8.73865 92.1166C9.9014 91.8813 11.1078 91.9963 12.2052 92.447C13.3026 92.8978 14.2415 93.664 14.9031 94.6488C15.5647 95.6335 15.9192 96.7924 15.9218 97.9787C15.9269 99.5656 15.3018 101.09 14.1839 102.216C13.0659 103.342 11.5466 103.979 9.95966 103.986Z" fill="#90CDEF"/>
<path d="M158.794 177.558C158.8 178.344 158.648 179.123 158.348 179.85C158.047 180.576 157.605 181.235 157.047 181.788C156.488 182.341 155.825 182.777 155.096 183.07C154.367 183.363 153.586 183.508 152.8 183.495C151.62 183.49 150.467 183.135 149.488 182.474C148.509 181.814 147.748 180.878 147.301 179.785C146.855 178.692 146.742 177.491 146.978 176.335C147.213 175.178 147.787 174.117 148.626 173.286C149.465 172.455 150.531 171.891 151.691 171.667C152.85 171.442 154.049 171.566 155.138 172.024C156.227 172.481 157.155 173.251 157.806 174.236C158.457 175.222 158.801 176.378 158.794 177.558Z" fill="#90CDEF"/>
<path d="M63.5229 82.166C63.5255 83.3464 63.1779 84.5011 62.5242 85.484C61.8704 86.4669 60.9399 87.2339 59.8503 87.688C58.7607 88.1421 57.5609 88.2629 56.4026 88.035C55.2443 87.8072 54.1796 87.2411 53.3431 86.4081C52.5066 85.5752 51.9359 84.513 51.7031 83.3557C51.4704 82.1984 51.586 80.9981 52.0354 79.9065C52.4848 78.815 53.2478 77.8812 54.2279 77.2232C55.208 76.5653 56.3612 76.2128 57.5416 76.2102C58.328 76.1991 59.1087 76.3454 59.8377 76.6404C60.5668 76.9355 61.2294 77.3733 61.7867 77.9282C62.3441 78.4832 62.7848 79.144 63.0829 79.8717C63.3811 80.5995 63.5307 81.3795 63.5229 82.166Z" fill="#90CDEF"/>
<path d="M152.877 167.521C151.305 167.538 149.791 166.933 148.664 165.838C147.538 164.742 146.89 163.245 146.863 161.674C146.855 160.084 147.477 158.555 148.593 157.422C149.709 156.289 151.229 155.644 152.819 155.629C154.363 155.672 155.83 156.313 156.909 157.417C157.989 158.522 158.597 160.003 158.604 161.547C158.612 163.092 158.018 164.578 156.949 165.693C155.881 166.808 154.42 167.464 152.877 167.521Z" fill="#90CDEF"/>
<path d="M67.4827 82.1969C67.4565 81.3996 67.591 80.6052 67.878 79.861C68.1651 79.1167 68.5989 78.4378 69.1536 77.8645C69.7083 77.2913 70.3727 76.8355 71.1071 76.5242C71.8416 76.2129 72.6311 76.0525 73.4288 76.0525C74.2265 76.0525 75.016 76.2129 75.7505 76.5242C76.4849 76.8355 77.1493 77.2913 77.704 77.8645C78.2587 78.4378 78.6925 79.1167 78.9796 79.861C79.2666 80.6052 79.4011 81.3996 79.3749 82.1969C79.3549 83.7684 78.7204 85.2697 77.6073 86.3793C76.4941 87.4888 74.9908 88.1185 73.4192 88.1334C71.8458 88.13 70.3378 87.5035 69.2252 86.3909C68.1126 85.2783 67.4861 83.7703 67.4827 82.1969Z" fill="#90CDEF"/>
<path d="M41.7274 76.2469C42.9 76.2444 44.0471 76.59 45.0232 77.2399C45.9993 77.8898 46.7606 78.8149 47.2105 79.8978C47.6604 80.9807 47.7788 82.1729 47.5507 83.3231C47.3225 84.4734 46.7581 85.5301 45.9288 86.3593C45.0996 87.1885 44.0429 87.753 42.8927 87.9811C41.7424 88.2093 40.5503 88.0909 39.4673 87.641C38.3844 87.191 37.4594 86.4298 36.8094 85.4537C36.1595 84.4776 35.8139 83.3305 35.8164 82.1578C35.8215 80.5917 36.4459 79.0912 37.5533 77.9838C38.6607 76.8763 40.1612 76.252 41.7274 76.2469Z" fill="#90CDEF"/>
<path d="M152.832 151.574C152.062 151.581 151.299 151.434 150.588 151.141C149.876 150.848 149.23 150.415 148.689 149.868C148.147 149.321 147.721 148.671 147.435 147.957C147.149 147.242 147.009 146.477 147.023 145.708C147.032 144.178 147.639 142.713 148.715 141.625C149.792 140.538 151.251 139.916 152.781 139.893C154.335 139.893 155.827 140.504 156.934 141.594C158.041 142.685 158.675 144.167 158.698 145.721C158.699 146.491 158.548 147.253 158.253 147.965C157.958 148.676 157.526 149.322 156.981 149.866C156.436 150.41 155.789 150.841 155.077 151.134C154.365 151.427 153.602 151.577 152.832 151.574Z" fill="#90CDEF"/>
<path d="M95.17 82.158C95.17 83.7002 94.5573 85.1793 93.4668 86.2698C92.3763 87.3603 90.8973 87.973 89.355 87.973C87.8128 87.973 86.3337 87.3603 85.2432 86.2698C84.1527 85.1793 83.54 83.7002 83.54 82.158C83.54 80.6158 84.1527 79.1367 85.2432 78.0462C86.3337 76.9557 87.8128 76.343 89.355 76.343C90.8973 76.343 92.3763 76.9557 93.4668 78.0462C94.5573 79.1367 95.17 80.6158 95.17 82.158Z" fill="#90CDEF"/>
<path d="M137.046 108.169C138.182 108.181 139.289 108.53 140.227 109.17C141.165 109.81 141.893 110.714 142.319 111.767C142.745 112.82 142.85 113.976 142.621 115.088C142.392 116.201 141.838 117.221 141.031 118.019C140.223 118.818 139.197 119.36 138.082 119.577C136.967 119.794 135.813 119.677 134.764 119.239C133.716 118.801 132.82 118.063 132.191 117.118C131.561 116.173 131.225 115.062 131.225 113.926C131.225 113.165 131.376 112.411 131.669 111.708C131.962 111.005 132.392 110.368 132.933 109.832C133.475 109.297 134.117 108.874 134.823 108.589C135.529 108.303 136.285 108.16 137.046 108.169Z" fill="#90CDEF"/>
<path d="M126.937 98.2224C126.912 99.3591 126.55 100.463 125.899 101.394C125.247 102.326 124.334 103.044 123.275 103.457C122.215 103.871 121.058 103.961 119.947 103.717C118.836 103.474 117.823 102.907 117.034 102.088C116.246 101.269 115.717 100.234 115.515 99.1155C115.313 97.9966 115.448 96.843 115.9 95.8001C116.353 94.7573 117.105 93.8719 118.06 93.2556C119.016 92.6393 120.133 92.3197 121.269 92.3371C122.029 92.3487 122.778 92.5105 123.475 92.813C124.172 93.1156 124.801 93.553 125.328 94.1001C125.855 94.6471 126.268 95.293 126.545 96.0005C126.821 96.708 126.954 97.4631 126.937 98.2224Z" fill="#90CDEF"/>
<path d="M20.0352 82.1326C20.0352 80.6057 20.6417 79.1413 21.7215 78.0615C22.8012 76.9818 24.2656 76.3752 25.7926 76.3752C27.3195 76.3752 28.7839 76.9818 29.8637 78.0615C30.9434 79.1413 31.55 80.6057 31.55 82.1326C31.55 83.6596 30.9434 85.124 29.8637 86.2037C28.7839 87.2835 27.3195 87.89 25.7926 87.89C24.2656 87.89 22.8012 87.2835 21.7215 86.2037C20.6417 85.124 20.0352 83.6596 20.0352 82.1326Z" fill="#90CDEF"/>
<path d="M147.241 129.912C147.235 129.172 147.376 128.438 147.656 127.754C147.937 127.069 148.352 126.447 148.877 125.925C149.401 125.403 150.025 124.991 150.71 124.714C151.396 124.436 152.131 124.298 152.871 124.308C153.611 124.309 154.343 124.456 155.026 124.742C155.709 125.027 156.329 125.444 156.85 125.97C157.371 126.495 157.782 127.119 158.061 127.804C158.34 128.49 158.481 129.223 158.475 129.963C158.448 131.439 157.849 132.846 156.803 133.888C155.757 134.929 154.347 135.522 152.871 135.542C152.131 135.544 151.398 135.4 150.714 135.118C150.029 134.836 149.408 134.422 148.885 133.899C148.361 133.375 147.947 132.754 147.665 132.07C147.383 131.385 147.239 130.652 147.241 129.912Z" fill="#90CDEF"/>
<path d="M105.161 87.7623C104.422 87.7624 103.69 87.6149 103.008 87.3283C102.326 87.0416 101.709 86.6217 101.191 86.0932C100.674 85.5646 100.268 84.9381 99.996 84.2503C99.7242 83.5625 99.5926 82.8274 99.6088 82.088C99.6205 80.6118 100.214 79.1998 101.261 78.1589C102.308 77.118 103.724 76.5323 105.2 76.5289C106.694 76.539 108.124 77.1376 109.181 78.1949C110.237 79.2522 110.834 80.6832 110.842 82.1776C110.838 82.9179 110.687 83.6501 110.399 84.332C110.111 85.014 109.691 85.6322 109.163 86.1512C108.635 86.6702 108.01 87.0798 107.323 87.3562C106.636 87.6327 105.902 87.7707 105.161 87.7623Z" fill="#90CDEF"/>
<path d="M9.96535 76.6323C10.6869 76.6306 11.4016 76.7716 12.0683 77.0474C12.7351 77.3231 13.3407 77.728 13.8502 78.2387C14.3598 78.7495 14.7633 79.3561 15.0375 80.0235C15.3116 80.6908 15.451 81.4059 15.4477 82.1274C15.454 83.2238 15.1341 84.2973 14.5286 85.2114C13.9231 86.1254 13.0595 86.8388 12.0475 87.2607C11.0355 87.6826 9.92091 87.794 8.84544 87.5807C7.76997 87.3674 6.78223 86.8391 6.00785 86.0629C5.23347 85.2867 4.70745 84.2977 4.49666 83.2218C4.28587 82.1458 4.39986 81.0315 4.82412 80.0205C5.24838 79.0095 5.96375 78.1475 6.87924 77.5441C7.79473 76.9408 8.86897 76.6234 9.96535 76.6323Z" fill="#90CDEF"/>
<path d="M57.5607 71.7635C56.4844 71.766 55.4316 71.4491 54.5356 70.8529C53.6396 70.2567 52.9407 69.4079 52.5273 68.4142C52.114 67.4205 52.0049 66.3264 52.2137 65.2707C52.4226 64.2149 52.9401 63.2448 53.7007 62.4833C54.4613 61.7218 55.4307 61.2032 56.4863 60.9931C57.5418 60.7829 58.636 60.8908 59.6302 61.3029C60.6244 61.7151 61.474 62.413 62.0713 63.3084C62.6685 64.2037 62.9867 65.2561 62.9854 66.3324C62.9854 67.7717 62.4141 69.1521 61.397 70.1705C60.3798 71.1888 59 71.7618 57.5607 71.7635Z" fill="#90CDEF"/>
<path d="M142.431 98.0682C142.439 99.1452 142.128 100.201 141.536 101.101C140.945 102 140.099 102.704 139.107 103.123C138.114 103.542 137.02 103.656 135.962 103.452C134.905 103.248 133.932 102.734 133.166 101.976C132.401 101.218 131.878 100.25 131.664 99.1943C131.45 98.1387 131.554 97.0433 131.963 96.047C132.373 95.0507 133.069 94.1984 133.963 93.5981C134.857 92.9979 135.91 92.6767 136.987 92.6754C137.699 92.6704 138.405 92.806 139.064 93.0746C139.723 93.3432 140.323 93.7394 140.829 94.2405C141.335 94.7416 141.737 95.3377 142.012 95.9946C142.287 96.6515 142.429 97.3562 142.431 98.0682Z" fill="#90CDEF"/>
<path d="M168.761 172.114C169.838 172.106 170.894 172.417 171.794 173.009C172.694 173.601 173.398 174.447 173.816 175.44C174.235 176.433 174.349 177.527 174.144 178.585C173.939 179.643 173.425 180.616 172.667 181.381C171.908 182.146 170.939 182.668 169.883 182.882C168.827 183.095 167.732 182.99 166.735 182.58C165.739 182.17 164.887 181.473 164.288 180.578C163.688 179.682 163.368 178.629 163.368 177.552C163.365 176.117 163.93 174.738 164.941 173.719C165.952 172.7 167.326 172.123 168.761 172.114Z" fill="#90CDEF"/>
<path d="M168.781 167.105C167.377 167.053 166.049 166.458 165.075 165.445C164.102 164.431 163.56 163.08 163.564 161.675C163.569 160.27 164.118 158.922 165.098 157.914C166.077 156.907 167.409 156.319 168.813 156.275C170.251 156.287 171.625 156.865 172.638 157.885C173.652 158.904 174.222 160.282 174.225 161.719C174.223 162.431 174.08 163.135 173.805 163.791C173.529 164.447 173.127 165.042 172.622 165.543C172.116 166.043 171.516 166.439 170.857 166.707C170.198 166.975 169.493 167.111 168.781 167.105Z" fill="#90CDEF"/>
<path d="M73.3923 60.9261C74.105 60.9158 74.8126 61.0485 75.4731 61.3165C76.1336 61.5845 76.7336 61.9823 77.2376 62.4863C77.7417 62.9903 78.1394 63.5904 78.4074 64.2509C78.6754 64.9114 78.8082 65.6189 78.7978 66.3317C78.8014 67.7515 78.2455 69.1156 77.2505 70.1286C76.2555 71.1415 74.9015 71.7217 73.4818 71.7436C72.0471 71.7523 70.6666 71.1963 69.6384 70.1957C68.6102 69.195 68.0169 67.83 67.9867 66.3956C67.9782 65.6804 68.1118 64.9706 68.3797 64.3074C68.6475 63.6441 69.0444 63.0406 69.5472 62.5319C70.05 62.0232 70.6487 61.6193 71.3088 61.3436C71.9688 61.068 72.677 60.926 73.3923 60.9261Z" fill="#90CDEF"/>
<path d="M41.6835 60.9515C42.3849 60.9405 43.0816 61.0681 43.7335 61.3269C44.3855 61.5858 44.98 61.9709 45.4828 62.46C45.9856 62.9492 46.3869 63.5328 46.6636 64.1774C46.9404 64.822 47.0871 65.5148 47.0954 66.2163C47.109 66.9275 46.9819 67.6343 46.7214 68.2962C46.461 68.9581 46.0723 69.562 45.5777 70.0733C45.0831 70.5845 44.4924 70.9929 43.8395 71.2752C43.1865 71.5574 42.4843 71.7078 41.773 71.7178C40.3374 71.7128 38.9614 71.1429 37.9426 70.1314C36.9238 69.1198 36.3442 67.7478 36.3291 66.3122C36.3391 64.8947 36.9063 63.5379 37.9081 62.5349C38.9099 61.5319 40.2659 60.9632 41.6835 60.9515Z" fill="#90CDEF"/>
<path d="M147.491 113.965C147.487 113.262 147.622 112.564 147.889 111.913C148.156 111.262 148.549 110.67 149.045 110.172C149.542 109.673 150.132 109.278 150.782 109.009C151.432 108.74 152.129 108.603 152.833 108.604C153.894 108.6 154.932 108.912 155.816 109.498C156.7 110.085 157.391 110.921 157.799 111.9C158.208 112.879 158.317 113.958 158.112 114.999C157.908 116.04 157.398 116.997 156.65 117.749C155.901 118.501 154.945 119.013 153.905 119.221C152.865 119.43 151.786 119.325 150.805 118.92C149.824 118.514 148.986 117.827 148.396 116.945C147.806 116.063 147.491 115.026 147.491 113.965Z" fill="#90CDEF"/>
<path d="M115.813 82.0882C115.826 81.0273 116.153 79.994 116.753 79.1192C117.354 78.2444 118.2 77.5674 119.186 77.1741C120.171 76.7807 121.251 76.6886 122.289 76.9095C123.327 77.1303 124.276 77.6541 125.016 78.4147C125.755 79.1752 126.253 80.1381 126.445 81.1816C126.637 82.2251 126.516 83.3021 126.095 84.2764C125.675 85.2506 124.975 86.0782 124.084 86.6544C123.193 87.2305 122.151 87.5294 121.09 87.513C119.673 87.4877 118.323 86.9034 117.335 85.8873C116.346 84.8713 115.799 83.5057 115.813 82.0882Z" fill="#90CDEF"/>
<path d="M174.077 145.804C174.07 147.204 173.508 148.544 172.514 149.53C171.519 150.516 170.174 151.067 168.774 151.062C167.373 151.047 166.034 150.483 165.045 149.491C164.056 148.5 163.495 147.16 163.483 145.759C163.483 145.056 163.623 144.36 163.895 143.712C164.167 143.064 164.565 142.476 165.067 141.984C165.568 141.491 166.163 141.104 166.816 140.843C167.469 140.583 168.167 140.456 168.87 140.469C169.564 140.471 170.25 140.612 170.889 140.882C171.528 141.153 172.107 141.548 172.592 142.044C173.077 142.541 173.458 143.129 173.713 143.775C173.968 144.42 174.091 145.11 174.077 145.804Z" fill="#90CDEF"/>
<path d="M89.3667 71.6035C87.9619 71.5958 86.6177 71.0304 85.6298 70.0317C84.6418 69.033 84.0911 67.6827 84.0987 66.2779C84.1063 64.8731 84.6717 63.5288 85.6705 62.5409C86.6692 61.5529 88.0195 61.0022 89.4243 61.0098C90.8243 61.0333 92.1591 61.6056 93.1414 62.6034C94.1237 63.6012 94.6749 64.9448 94.6763 66.345C94.673 67.0389 94.533 67.7254 94.2644 68.3652C93.9957 69.005 93.6037 69.5856 93.1106 70.0739C92.6176 70.5622 92.0332 70.9486 91.3908 71.211C90.7484 71.4735 90.0606 71.6068 89.3667 71.6035Z" fill="#90CDEF"/>
<path d="M25.812 71.551C24.4522 71.5145 23.1598 70.9513 22.2074 69.9801C21.255 69.009 20.7171 67.7059 20.7072 66.3457C20.6972 64.9855 21.216 63.6746 22.1541 62.6896C23.0921 61.7046 24.3761 61.1225 25.7352 61.0662C26.4385 61.037 27.1405 61.1497 27.7994 61.3975C28.4583 61.6453 29.0605 62.0232 29.5703 62.5087C30.0801 62.9942 30.4869 63.5773 30.7666 64.2233C31.0462 64.8693 31.193 65.565 31.1982 66.2689C31.2033 66.9728 31.0667 67.6706 30.7966 68.3206C30.5264 68.9706 30.1281 69.5596 29.6255 70.0525C29.1229 70.5454 28.5263 70.9321 27.8711 71.1895C27.2159 71.447 26.5156 71.5699 25.812 71.551Z" fill="#90CDEF"/>
<path d="M163.689 129.938C163.681 128.923 163.976 127.928 164.535 127.081C165.095 126.233 165.893 125.571 166.83 125.179C167.767 124.787 168.799 124.682 169.795 124.879C170.791 125.075 171.707 125.563 172.425 126.281C173.143 126.999 173.631 127.915 173.827 128.911C174.024 129.907 173.919 130.939 173.527 131.876C173.135 132.813 172.473 133.612 171.626 134.171C170.778 134.73 169.783 135.025 168.768 135.017C167.424 135.007 166.138 134.469 165.187 133.519C164.237 132.568 163.699 131.282 163.689 129.938Z" fill="#90CDEF"/>
<path d="M100.095 66.3C100.095 65.2891 100.394 64.301 100.955 63.4601C101.516 62.6192 102.313 61.9632 103.247 61.575C104.18 61.1867 105.207 61.0835 106.199 61.2784C107.191 61.4733 108.103 61.9575 108.82 62.6701C109.537 63.3826 110.027 64.2915 110.228 65.2821C110.429 66.2727 110.332 67.3007 109.95 68.2364C109.567 69.172 108.916 69.9735 108.079 70.5397C107.241 71.1058 106.255 71.4113 105.244 71.4176C104.57 71.4219 103.901 71.2926 103.276 71.0373C102.652 70.782 102.084 70.4057 101.605 69.9301C101.126 69.4544 100.747 68.8888 100.487 68.2658C100.228 67.6428 100.095 66.9747 100.095 66.3Z" fill="#90CDEF"/>
<path d="M9.9271 71.3345C8.60338 71.3329 7.33338 70.8107 6.3914 69.8807C5.44942 68.9507 4.91106 67.6875 4.89258 66.3639C4.89245 65.0187 5.42196 63.7276 6.36655 62.7698C7.31114 61.8121 8.59483 61.2647 9.9399 61.2462C11.2734 61.2462 12.5524 61.776 13.4953 62.7189C14.4383 63.6619 14.968 64.9408 14.968 66.2743C14.968 67.6079 14.4383 68.8868 13.4953 69.8298C12.5524 70.7727 11.2734 71.3025 9.9399 71.3025L9.9271 71.3345Z" fill="#90CDEF"/>
<path d="M157.835 98.1263C157.831 99.1129 157.535 100.076 156.984 100.894C156.433 101.713 155.651 102.349 154.738 102.724C153.826 103.098 152.822 103.193 151.855 102.998C150.888 102.802 150.001 102.324 149.306 101.624C148.61 100.924 148.138 100.034 147.948 99.0656C147.759 98.0974 147.861 97.0947 148.241 96.1843C148.621 95.2739 149.263 94.4966 150.084 93.9507C150.906 93.4048 151.871 93.1148 152.858 93.1173C153.514 93.1173 154.164 93.2471 154.77 93.4992C155.376 93.7513 155.926 94.1208 156.389 94.5863C156.851 95.0519 157.217 95.6043 157.465 96.2118C157.714 96.8194 157.839 97.47 157.835 98.1263Z" fill="#90CDEF"/>
<path d="M132.003 82.1587C132.002 81.1703 132.294 80.2037 132.842 79.3813C133.39 78.5588 134.17 77.9175 135.083 77.5383C135.996 77.1592 137 77.0594 137.97 77.2514C138.939 77.4435 139.83 77.9188 140.53 78.6173C141.229 79.3157 141.705 80.2059 141.899 81.1753C142.092 82.1446 141.993 83.1495 141.616 84.0628C141.238 84.9761 140.597 85.7568 139.775 86.306C138.954 86.8553 137.987 87.1485 136.999 87.1485C135.676 87.1451 134.408 86.6185 133.472 85.6837C132.536 84.7488 132.008 83.4816 132.003 82.1587Z" fill="#90CDEF"/>
<path d="M57.4649 55.182C56.1968 55.1602 54.9883 54.6397 54.1011 53.7334C53.2139 52.827 52.7194 51.6077 52.7247 50.3394C52.7431 49.0537 53.2669 47.827 54.1826 46.9244C55.0984 46.0218 56.3326 45.5159 57.6184 45.516C58.2554 45.5243 58.8845 45.6586 59.4694 45.911C60.0543 46.1635 60.5835 46.5292 61.0265 46.987C61.4695 47.4449 61.8175 47.9858 62.0505 48.5787C62.2836 49.1717 62.397 49.8048 62.3843 50.4418C62.3812 51.0786 62.2505 51.7084 61.9999 52.2938C61.7494 52.8793 61.384 53.4086 60.9254 53.8505C60.4668 54.2924 59.9243 54.6379 59.3299 54.8666C58.7356 55.0953 58.1014 55.2025 57.4649 55.182Z" fill="#90CDEF"/>
<path d="M173.61 113.984C173.614 114.621 173.49 115.252 173.245 115.84C173 116.428 172.64 116.961 172.185 117.408C171.731 117.854 171.191 118.204 170.598 118.438C170.006 118.672 169.373 118.785 168.736 118.769C167.469 118.758 166.257 118.249 165.361 117.353C164.465 116.457 163.956 115.245 163.944 113.978C163.951 112.69 164.464 111.457 165.373 110.545C166.281 109.633 167.512 109.115 168.8 109.103C169.437 109.106 170.067 109.234 170.654 109.481C171.241 109.728 171.774 110.089 172.221 110.543C172.668 110.996 173.021 111.534 173.259 112.125C173.498 112.715 173.617 113.347 173.61 113.984Z" fill="#90CDEF"/>
<path d="M121.16 71.1361C120.523 71.1387 119.891 71.0152 119.302 70.7728C118.713 70.5304 118.178 70.1739 117.727 69.7238C117.277 69.2737 116.92 68.7389 116.676 68.1502C116.433 67.5615 116.309 66.9305 116.311 66.2935C116.331 65.0072 116.856 63.7805 117.773 62.8781C118.689 61.9756 119.924 61.4699 121.211 61.4701C122.478 61.4869 123.689 62.0014 124.58 62.9026C125.472 63.8038 125.973 65.0194 125.977 66.2871C125.988 66.9243 125.871 67.5572 125.633 68.1484C125.396 68.7397 125.042 69.2773 124.593 69.7294C124.143 70.1814 123.608 70.5389 123.019 70.7805C122.429 71.0221 121.797 71.1431 121.16 71.1361Z" fill="#90CDEF"/>
<path d="M184.614 182.363C183.977 182.366 183.347 182.241 182.759 181.997C182.172 181.752 181.639 181.392 181.192 180.939C180.746 180.485 180.395 179.947 180.159 179.355C179.924 178.764 179.809 178.132 179.822 177.495C179.829 176.227 180.335 175.012 181.23 174.115C182.126 173.217 183.339 172.707 184.607 172.697C185.894 172.701 187.128 173.211 188.042 174.117C188.955 175.023 189.475 176.253 189.488 177.54C189.487 178.177 189.36 178.809 189.115 179.397C188.869 179.985 188.509 180.519 188.056 180.967C187.602 181.415 187.065 181.77 186.474 182.009C185.884 182.249 185.251 182.369 184.614 182.363Z" fill="#90CDEF"/>
<path d="M179.847 161.553C179.934 160.319 180.493 159.167 181.409 158.335C182.324 157.503 183.525 157.056 184.761 157.088C185.998 157.119 187.174 157.626 188.046 158.503C188.918 159.38 189.419 160.56 189.443 161.796C189.406 163.065 188.874 164.27 187.961 165.152C187.048 166.034 185.825 166.524 184.555 166.517C183.919 166.504 183.292 166.365 182.71 166.107C182.128 165.85 181.603 165.48 181.165 165.018C180.727 164.556 180.385 164.012 180.159 163.418C179.933 162.823 179.827 162.189 179.847 161.553Z" fill="#90CDEF"/>
<path d="M73.4634 55.1566C72.8357 55.1676 72.2121 55.0543 71.6283 54.8232C71.0446 54.5922 70.5124 54.2479 70.0622 53.8103C69.6121 53.3726 69.253 52.8503 69.0056 52.2733C68.7583 51.6963 68.6275 51.076 68.6208 50.4483C68.6098 49.8103 68.7256 49.1766 68.9616 48.5838C69.1975 47.991 69.5489 47.451 69.9952 46.9951C70.4416 46.5392 70.9741 46.1765 71.5618 45.9281C72.1495 45.6797 72.7806 45.5505 73.4187 45.5481C74.6871 45.5613 75.9002 46.0698 76.7989 46.965C77.6977 47.8601 78.211 49.0711 78.2293 50.3395C78.231 51.6088 77.7311 52.8273 76.8384 53.7295C75.9457 54.6318 74.7326 55.1447 73.4634 55.1566Z" fill="#90CDEF"/>
<path d="M41.6891 45.6059C42.6306 45.5984 43.5532 45.8699 44.3405 46.3862C45.1278 46.9024 45.7445 47.6403 46.1129 48.5067C46.4813 49.3731 46.5848 50.3293 46.4104 51.2544C46.236 52.1796 45.7915 53.0324 45.1329 53.7052C44.4744 54.3781 43.6313 54.8408 42.7101 55.0349C41.7888 55.2291 40.8307 55.1461 39.9566 54.7963C39.0825 54.4466 38.3316 53.8458 37.7986 53.0697C37.2655 52.2936 36.9743 51.3771 36.9617 50.4357C36.9506 49.807 37.0646 49.1824 37.297 48.5981C37.5294 48.0138 37.8756 47.4816 38.3154 47.0322C38.7553 46.5829 39.28 46.2254 39.8592 45.9805C40.4383 45.7357 41.0603 45.6083 41.6891 45.6059Z" fill="#90CDEF"/>
<path d="M189.341 145.783C189.341 146.401 189.218 147.012 188.98 147.582C188.741 148.152 188.392 148.668 187.952 149.102C187.512 149.535 186.99 149.877 186.417 150.106C185.844 150.336 185.231 150.45 184.613 150.44C183.367 150.43 182.175 149.928 181.298 149.042C180.42 148.156 179.929 146.96 179.931 145.713C179.954 144.466 180.465 143.278 181.353 142.403C182.241 141.528 183.437 141.035 184.684 141.03C185.931 141.044 187.123 141.552 187.996 142.443C188.869 143.334 189.353 144.536 189.341 145.783Z" fill="#90CDEF"/>
<path d="M94.0557 50.346C94.0625 51.5931 93.5749 52.7921 92.6997 53.6805C91.8244 54.569 90.6328 55.0744 89.3858 55.0862C88.1415 55.0765 86.9501 54.5818 86.0649 53.7073C85.1797 52.8329 84.6705 51.6476 84.6455 50.4036C84.6455 49.1565 85.1396 47.9602 86.0196 47.0765C86.8996 46.1929 88.0939 45.694 89.341 45.6889C89.9572 45.6821 90.5686 45.7975 91.1399 46.0285C91.7112 46.2594 92.231 46.6013 92.6694 47.0343C93.1078 47.4674 93.4561 47.983 93.694 48.5514C93.9319 49.1198 94.0548 49.7298 94.0557 50.346Z" fill="#90CDEF"/>
<path d="M25.8114 54.9837C24.583 54.9931 23.4013 54.514 22.5261 53.6521C21.6509 52.7901 21.154 51.6158 21.1447 50.3874C21.1353 49.159 21.6144 47.9773 22.4763 47.1021C23.3383 46.227 24.5126 45.73 25.741 45.7207C26.9696 45.7189 28.1495 46.2014 29.0248 47.0635C29.9001 47.9257 30.4005 49.0981 30.4173 50.3266C30.4223 50.9353 30.307 51.539 30.078 52.103C29.8489 52.6669 29.5107 53.1801 29.0826 53.6129C28.6546 54.0456 28.1452 54.3896 27.5838 54.6248C27.0224 54.8601 26.4201 54.9821 25.8114 54.9837Z" fill="#90CDEF"/>
<path d="M152.999 77.5983C153.905 77.6047 154.788 77.8799 155.537 78.3889C156.286 78.8979 156.867 79.6178 157.207 80.4575C157.546 81.2972 157.629 82.2187 157.444 83.1054C157.259 83.992 156.816 84.8039 156.169 85.438C155.522 86.0721 154.702 86.4999 153.812 86.6673C152.922 86.8347 152.002 86.734 151.169 86.378C150.336 86.0221 149.628 85.4269 149.134 84.6679C148.639 83.9089 148.382 83.0203 148.393 82.1147C148.411 80.9071 148.906 79.7556 149.768 78.91C150.63 78.0644 151.791 77.5931 152.999 77.5983Z" fill="#90CDEF"/>
<path d="M184.651 125.404C185.839 125.404 186.978 125.876 187.817 126.715C188.657 127.555 189.129 128.694 189.129 129.882C189.133 130.474 189.021 131.061 188.798 131.61C188.575 132.159 188.247 132.659 187.831 133.08C187.415 133.502 186.92 133.838 186.374 134.068C185.829 134.299 185.243 134.42 184.651 134.424C184.05 134.424 183.456 134.305 182.901 134.075C182.346 133.844 181.843 133.507 181.419 133.081C180.995 132.656 180.66 132.15 180.432 131.595C180.203 131.039 180.087 130.444 180.09 129.843C180.095 129.252 180.217 128.667 180.45 128.122C180.682 127.578 181.02 127.085 181.444 126.672C181.868 126.259 182.37 125.935 182.921 125.717C183.471 125.499 184.059 125.393 184.651 125.404Z" fill="#90CDEF"/>
<path d="M100.703 50.34C100.703 49.7493 100.819 49.1643 101.047 48.6189C101.274 48.0736 101.606 47.5785 102.025 47.1622C102.445 46.746 102.942 46.4168 103.489 46.1937C104.036 45.9705 104.622 45.8578 105.213 45.862C105.804 45.8561 106.391 45.9676 106.94 46.19C107.488 46.4124 107.987 46.7413 108.408 47.1577C108.829 47.5741 109.162 48.0697 109.39 48.616C109.618 49.1622 109.735 49.7482 109.735 50.34C109.734 50.9392 109.614 51.5322 109.383 52.085C109.151 52.6378 108.813 53.1396 108.388 53.5615C107.962 53.9834 107.458 54.3173 106.903 54.5438C106.348 54.7704 105.754 54.8853 105.155 54.882C104.564 54.8786 103.979 54.7582 103.434 54.5277C102.89 54.2972 102.396 53.9611 101.982 53.5388C101.568 53.1165 101.242 52.6164 101.023 52.0674C100.803 51.5184 100.694 50.9313 100.703 50.34Z" fill="#90CDEF"/>
<path d="M168.806 102.584C168.216 102.592 167.631 102.482 167.084 102.259C166.537 102.037 166.04 101.708 165.623 101.29C165.205 100.873 164.876 100.376 164.654 99.8293C164.431 99.2825 164.321 98.6967 164.329 98.1065C164.324 97.5158 164.437 96.93 164.66 96.383C164.883 95.8361 165.212 95.3386 165.629 94.9194C166.045 94.5002 166.54 94.1675 167.085 93.9405C167.631 93.7134 168.216 93.5965 168.806 93.5966C169.994 93.6096 171.129 94.0844 171.972 94.9203C172.815 95.7562 173.3 96.8875 173.323 98.0745C173.327 98.6685 173.213 99.2574 172.988 99.8069C172.762 100.356 172.429 100.856 172.009 101.275C171.589 101.695 171.089 102.027 170.539 102.252C169.99 102.476 169.4 102.59 168.806 102.584Z" fill="#90CDEF"/>
<path d="M141.471 66.2744C141.481 66.8641 141.373 67.4498 141.156 67.9979C140.938 68.546 140.614 69.0457 140.203 69.4683C139.792 69.8909 139.301 70.2282 138.759 70.4606C138.217 70.693 137.634 70.8161 137.045 70.8228C135.852 70.818 134.708 70.3469 133.858 69.5101C133.009 68.6733 132.52 67.5373 132.496 66.3448C132.491 65.7535 132.603 65.1671 132.826 64.6194C133.049 64.0716 133.378 63.5734 133.794 63.1536C134.21 62.7337 134.706 62.4004 135.252 62.1729C135.797 61.9455 136.383 61.8284 136.974 61.8284C137.563 61.8191 138.148 61.9273 138.694 62.1468C139.241 62.3662 139.738 62.6926 140.157 63.1066C140.576 63.5206 140.908 64.0141 141.133 64.558C141.359 65.102 141.474 65.6855 141.471 66.2744Z" fill="#90CDEF"/>
<path d="M9.97321 45.9248C10.8463 45.9362 11.6965 46.2059 12.4164 46.6999C13.1364 47.1939 13.694 47.89 14.0187 48.7006C14.3435 49.5111 14.421 50.3996 14.2414 51.2541C14.0618 52.1086 13.6331 52.8907 13.0095 53.5019C12.3859 54.113 11.5952 54.5258 10.7373 54.6881C9.87932 54.8505 8.99253 54.7551 8.18874 54.414C7.38496 54.0729 6.70019 53.5014 6.22083 52.7716C5.74147 52.0417 5.48899 51.1863 5.49523 50.3132C5.4977 49.73 5.61586 49.1531 5.84289 48.616C6.06991 48.0788 6.40128 47.592 6.81779 47.1838C7.2343 46.7757 7.72766 46.4542 8.26931 46.2381C8.81095 46.0219 9.39011 45.9154 9.97321 45.9248Z" fill="#90CDEF"/>
<path d="M188.868 114.023C188.853 115.138 188.399 116.203 187.606 116.987C186.812 117.771 185.742 118.211 184.627 118.213C183.492 118.196 182.41 117.732 181.615 116.923C180.819 116.113 180.375 115.023 180.379 113.888C180.391 113.326 180.515 112.773 180.742 112.259C180.969 111.745 181.296 111.281 181.703 110.894C182.111 110.507 182.59 110.204 183.115 110.003C183.64 109.803 184.199 109.708 184.761 109.724C185.313 109.735 185.858 109.856 186.363 110.078C186.869 110.301 187.325 110.621 187.707 111.02C188.089 111.42 188.388 111.891 188.587 112.406C188.786 112.921 188.881 113.47 188.868 114.023Z" fill="#90CDEF"/>
<path d="M116.932 50.3454C116.974 49.2499 117.439 48.2134 118.23 47.4534C119.02 46.6933 120.073 46.2688 121.17 46.2688C122.266 46.2688 123.32 46.6933 124.11 47.4534C124.9 48.2134 125.365 49.2499 125.408 50.3454C125.403 51.4822 124.948 52.5707 124.142 53.3728C123.336 54.1748 122.246 54.6251 121.109 54.6251C119.99 54.6049 118.923 54.1443 118.141 53.3431C117.359 52.542 116.925 51.4649 116.932 50.3454Z" fill="#90CDEF"/>
<path d="M61.7118 34.5319C61.7135 35.6292 61.2814 36.6827 60.5097 37.4628C59.738 38.2429 58.6893 38.6863 57.592 38.6965C56.475 38.688 55.4067 38.2379 54.6204 37.4444C53.8342 36.651 53.3938 35.5786 53.3955 34.4616C53.414 33.3632 53.8677 32.3172 54.657 31.5531C55.4462 30.7891 56.5065 30.3695 57.6048 30.3866C58.1479 30.3849 58.6859 30.4912 59.1874 30.6994C59.689 30.9076 60.1442 31.2134 60.5264 31.5992C60.9086 31.985 61.2102 32.443 61.4137 32.9465C61.6172 33.45 61.7185 33.9889 61.7118 34.5319Z" fill="#90CDEF"/>
<path d="M200.561 181.685C200.017 181.689 199.478 181.583 198.976 181.376C198.474 181.168 198.018 180.862 197.635 180.476C197.253 180.09 196.951 179.632 196.748 179.127C196.545 178.623 196.445 178.083 196.454 177.54C196.449 176.442 196.878 175.387 197.649 174.605C198.42 173.824 199.469 173.379 200.567 173.369C201.683 173.379 202.751 173.83 203.537 174.623C204.323 175.416 204.764 176.487 204.763 177.604C204.743 178.701 204.29 179.746 203.503 180.51C202.716 181.275 201.658 181.697 200.561 181.685Z" fill="#90CDEF"/>
<path d="M200.549 157.581C201.644 157.569 202.699 157.99 203.484 158.754C204.269 159.517 204.72 160.561 204.739 161.655C204.738 162.752 204.308 163.804 203.542 164.588C202.776 165.372 201.734 165.825 200.638 165.852C199.543 165.857 198.489 165.429 197.708 164.661C196.927 163.893 196.481 162.847 196.467 161.751C196.458 161.209 196.557 160.669 196.757 160.165C196.958 159.661 197.257 159.201 197.637 158.813C198.016 158.425 198.469 158.116 198.969 157.905C199.469 157.693 200.006 157.583 200.549 157.581Z" fill="#90CDEF"/>
<path d="M77.634 34.532C77.634 35.3466 77.3925 36.1428 76.9401 36.8202C76.4877 37.4975 75.8447 38.0256 75.0923 38.3376C74.3399 38.6496 73.5119 38.7315 72.7129 38.5731C71.9139 38.4146 71.1799 38.0229 70.6034 37.4474C70.027 36.8719 69.6342 36.1384 69.4745 35.3397C69.3148 34.5409 69.3955 33.7128 69.7063 32.9599C70.0171 32.207 70.5442 31.5632 71.2208 31.1097C71.8975 30.6562 72.6933 30.4136 73.5079 30.4123C74.0506 30.4072 74.5889 30.5102 75.0914 30.7153C75.5939 30.9205 76.0505 31.2237 76.4346 31.6071C76.8187 31.9906 77.1226 32.4468 77.3285 32.949C77.5344 33.4511 77.6383 33.9893 77.634 34.532Z" fill="#90CDEF"/>
<path d="M45.8139 34.577C45.8214 35.1263 45.7182 35.6715 45.5106 36.18C45.3029 36.6886 44.9951 37.1502 44.6053 37.5373C44.2156 37.9245 43.7519 38.2292 43.242 38.4334C42.732 38.6376 42.1861 38.7371 41.6369 38.7259C41.0877 38.7147 40.5463 38.5932 40.0451 38.3684C39.5438 38.1437 39.0929 37.8203 38.7192 37.4177C38.3455 37.015 38.0567 36.5413 37.8699 36.0247C37.6831 35.5081 37.6022 34.9592 37.632 34.4107C37.6896 33.3504 38.1568 32.354 38.935 31.6317C39.7133 30.9094 40.7418 30.5177 41.8033 30.5393C42.8649 30.5609 43.8766 30.994 44.6249 31.7474C45.3731 32.5007 45.7995 33.5153 45.8139 34.577Z" fill="#90CDEF"/>
<path d="M168.762 86.1823C168.229 86.1851 167.701 86.0806 167.209 85.8749C166.717 85.6693 166.271 85.3667 165.899 84.9853C165.526 84.6038 165.235 84.1513 165.041 83.6547C164.847 83.1581 164.755 82.6275 164.77 82.0946C164.784 81.0367 165.211 80.0263 165.961 79.28C166.711 78.5337 167.723 78.1111 168.781 78.1028C169.857 78.1144 170.886 78.5466 171.648 79.3069C172.409 80.0672 172.843 81.0953 172.856 82.1713C172.853 82.7042 172.744 83.231 172.536 83.7216C172.328 84.2122 172.025 84.6567 171.645 85.0296C171.264 85.4025 170.813 85.6963 170.319 85.8942C169.824 86.092 169.295 86.1899 168.762 86.1823Z" fill="#90CDEF"/>
<path d="M156.979 66.313C156.982 66.8461 156.88 67.3746 156.678 67.868C156.476 68.3615 156.179 68.8102 155.803 69.1884C155.428 69.5665 154.981 69.8666 154.489 70.0714C153.996 70.2761 153.469 70.3816 152.936 70.3816C151.859 70.3599 150.834 69.9182 150.078 69.1509C149.323 68.3836 148.897 67.3513 148.893 66.2746C148.911 65.2173 149.342 64.2091 150.094 63.4656C150.846 62.722 151.859 62.3021 152.916 62.2956C153.45 62.2827 153.98 62.3774 154.476 62.5741C154.971 62.7709 155.422 63.0656 155.802 63.4406C156.181 63.8157 156.481 64.2633 156.683 64.7569C156.885 65.2504 156.986 65.7797 156.979 66.313Z" fill="#90CDEF"/>
<path d="M93.3844 34.5514C93.3844 35.6169 92.9611 36.6387 92.2077 37.3921C91.4543 38.1455 90.4325 38.5688 89.367 38.5688C88.3015 38.5688 87.2797 38.1455 86.5263 37.3921C85.7729 36.6387 85.3496 35.6169 85.3496 34.5514C85.3564 33.4734 85.7894 32.4418 86.554 31.6819C87.3187 30.9221 88.3529 30.4956 89.431 30.4956C90.492 30.5125 91.5033 30.9484 92.244 31.7083C92.9847 32.4682 93.3947 33.4903 93.3844 34.5514Z" fill="#90CDEF"/>
<path d="M204.598 145.72C204.603 146.244 204.503 146.764 204.306 147.25C204.109 147.736 203.818 148.179 203.449 148.552C203.081 148.925 202.642 149.222 202.159 149.425C201.675 149.629 201.157 149.735 200.632 149.737C200.098 149.743 199.568 149.643 199.073 149.442C198.578 149.24 198.127 148.943 197.749 148.566C197.37 148.189 197.07 147.74 196.867 147.246C196.663 146.752 196.56 146.222 196.564 145.688C196.587 144.628 197.022 143.619 197.777 142.875C198.532 142.131 199.547 141.711 200.607 141.703C201.667 141.711 202.681 142.138 203.429 142.89C204.176 143.642 204.597 144.659 204.598 145.72Z" fill="#90CDEF"/>
<path d="M25.8053 30.5721C26.8461 30.5754 27.8435 30.9891 28.5813 31.7232C29.319 32.4573 29.7375 33.4528 29.7459 34.4935C29.7383 35.5437 29.3138 36.5479 28.5657 37.2851C27.8177 38.0223 26.8075 38.4322 25.7573 38.4246C24.7071 38.4169 23.7029 37.9924 22.9657 37.2444C22.2285 36.4964 21.8186 35.4862 21.8263 34.436C21.8312 33.9202 21.9384 33.4106 22.1416 32.9365C22.3447 32.4625 22.6398 32.0334 23.0098 31.6741C23.3799 31.3148 23.8174 31.0324 24.2972 30.8432C24.7771 30.6541 25.2896 30.5619 25.8053 30.5721Z" fill="#90CDEF"/>
<path d="M184.594 94.236C185.366 94.2271 186.123 94.4484 186.768 94.8717C187.414 95.2949 187.918 95.9009 188.218 96.6122C188.517 97.3236 188.598 98.108 188.449 98.8654C188.301 99.6228 187.93 100.319 187.385 100.864C186.839 101.41 186.143 101.781 185.386 101.929C184.628 102.078 183.844 101.997 183.132 101.698C182.421 101.398 181.815 100.894 181.392 100.248C180.969 99.6028 180.747 98.846 180.756 98.0742C180.768 97.0599 181.176 96.0903 181.893 95.373C182.61 94.6557 183.58 94.2476 184.594 94.236Z" fill="#90CDEF"/>
<path d="M133.123 50.4608C133.128 49.6953 133.359 48.9483 133.788 48.3138C134.216 47.6794 134.822 47.1856 135.531 46.8947C136.239 46.6038 137.017 46.5287 137.768 46.6789C138.518 46.829 139.208 47.1977 139.75 47.7385C140.291 48.2794 140.661 48.9683 140.813 49.7188C140.964 50.4692 140.89 51.2476 140.6 51.9562C140.311 52.6648 139.818 53.2719 139.184 53.7013C138.55 54.1306 137.804 54.3631 137.038 54.3694C136.523 54.3745 136.012 54.277 135.535 54.0824C135.059 53.8879 134.625 53.6003 134.261 53.2364C133.896 52.8725 133.608 52.4396 133.413 51.9631C133.217 51.4865 133.119 50.9758 133.123 50.4608Z" fill="#90CDEF"/>
<path d="M105.168 38.3252C104.672 38.3252 104.18 38.2271 103.722 38.0364C103.264 37.8458 102.849 37.5664 102.499 37.2144C102.149 36.8624 101.873 36.4447 101.685 35.9854C101.498 35.5261 101.403 35.0342 101.406 34.5381C101.406 33.5201 101.811 32.5438 102.531 31.824C103.25 31.1042 104.227 30.6998 105.245 30.6998C106.25 30.7246 107.207 31.1385 107.913 31.8545C108.619 32.5704 109.02 33.5324 109.032 34.5381C109.018 35.5516 108.604 36.5187 107.88 37.2282C107.157 37.9377 106.181 38.332 105.168 38.3252Z" fill="#90CDEF"/>
<path d="M204.386 129.926C204.387 130.93 203.994 131.894 203.292 132.611C202.59 133.329 201.635 133.743 200.631 133.764C199.617 133.753 198.647 133.345 197.93 132.627C197.213 131.91 196.805 130.94 196.793 129.926C196.8 129.421 196.907 128.923 197.108 128.46C197.308 127.997 197.598 127.578 197.96 127.226C198.322 126.875 198.751 126.599 199.22 126.414C199.689 126.228 200.191 126.137 200.695 126.145C201.685 126.161 202.629 126.567 203.32 127.275C204.012 127.983 204.395 128.936 204.386 129.926Z" fill="#90CDEF"/>
<path d="M9.96615 30.8154C10.4534 30.8119 10.9364 30.9059 11.3868 31.0919C11.8372 31.278 12.2458 31.5522 12.5885 31.8986C12.9313 32.2449 13.2013 32.6563 13.3827 33.1086C13.564 33.5609 13.653 34.0449 13.6445 34.5321C13.6445 35.5134 13.2564 36.4549 12.5649 37.1512C11.8734 37.8475 10.9346 38.242 9.95335 38.2488C9.4536 38.2463 8.95929 38.1448 8.49903 37.9501C8.03876 37.7553 7.62168 37.4713 7.27188 37.1144C6.92209 36.7574 6.64653 36.3347 6.46115 35.8706C6.27576 35.4065 6.18423 34.9102 6.19185 34.4105C6.22361 33.436 6.63708 32.5129 7.34311 31.8404C8.04915 31.1679 8.99119 30.7997 9.96615 30.8154Z" fill="#90CDEF"/>
<path d="M200.568 117.452C200.108 117.456 199.653 117.368 199.228 117.193C198.804 117.018 198.418 116.76 198.095 116.434C197.771 116.108 197.516 115.72 197.344 115.294C197.172 114.868 197.087 114.412 197.094 113.953C197.091 113.495 197.178 113.04 197.35 112.615C197.523 112.19 197.777 111.803 198.099 111.476C198.421 111.149 198.804 110.889 199.227 110.71C199.649 110.532 200.103 110.438 200.561 110.435C201.03 110.435 201.494 110.527 201.926 110.708C202.358 110.888 202.751 111.151 203.081 111.484C203.411 111.816 203.672 112.211 203.849 112.644C204.026 113.078 204.115 113.542 204.112 114.011C204.097 114.937 203.715 115.819 203.051 116.464C202.387 117.109 201.494 117.464 200.568 117.452Z" fill="#90CDEF"/>
<path d="M121.142 31.0266C121.6 31.0181 122.056 31.1012 122.482 31.2711C122.909 31.4409 123.297 31.6941 123.624 32.0158C123.951 32.3376 124.21 32.7213 124.387 33.1446C124.564 33.5679 124.655 34.0223 124.654 34.481C124.664 34.9491 124.58 35.4144 124.407 35.8493C124.233 36.2842 123.974 36.6797 123.645 37.0122C123.315 37.3448 122.922 37.6075 122.489 37.7848C122.055 37.9621 121.591 38.0504 121.123 38.0442C120.197 38.0292 119.313 37.6516 118.663 36.9925C118.012 36.3335 117.646 35.4455 117.643 34.5194C117.643 34.0602 117.733 33.6055 117.909 33.1813C118.085 32.7571 118.343 32.3718 118.668 32.0474C118.993 31.7229 119.379 31.4658 119.803 31.2906C120.228 31.1155 120.683 31.0258 121.142 31.0266Z" fill="#90CDEF"/>
<path d="M172.273 66.3963C172.275 66.8553 172.183 67.3099 172.005 67.733C171.828 68.1561 171.567 68.5392 171.238 68.8596C170.909 69.18 170.519 69.4311 170.092 69.598C169.664 69.765 169.208 69.8444 168.749 69.8316C168.289 69.8282 167.834 69.7341 167.411 69.5547C166.988 69.3753 166.604 69.114 166.282 68.7859C165.96 68.4579 165.705 68.0694 165.534 67.6429C165.362 67.2163 165.276 66.7601 165.281 66.3003C165.298 65.3626 165.685 64.4694 166.357 63.8153C167.029 63.1611 167.932 62.7989 168.87 62.8075C169.33 62.8174 169.783 62.9184 170.204 63.1046C170.624 63.2907 171.004 63.5584 171.32 63.8921C171.637 64.2258 171.884 64.619 172.048 65.0488C172.211 65.4786 172.288 65.9366 172.273 66.3963Z" fill="#90CDEF"/>
<path d="M188.022 82.3123C188.008 82.7617 187.903 83.2035 187.714 83.6116C187.525 84.0196 187.257 84.3855 186.924 84.6875C186.591 84.9895 186.2 85.2215 185.776 85.3695C185.351 85.5175 184.901 85.5787 184.453 85.5493C183.565 85.5061 182.73 85.1169 182.126 84.4652C181.522 83.8134 181.198 82.951 181.222 82.0629C181.254 81.155 181.644 80.2967 182.307 79.6757C182.97 79.0547 183.852 78.7215 184.76 78.7491C185.209 78.7647 185.651 78.8696 186.06 79.058C186.468 79.2463 186.835 79.5142 187.139 79.8459C187.443 80.1777 187.677 80.5667 187.829 80.9902C187.98 81.4137 188.046 81.8632 188.022 82.3123Z" fill="#90CDEF"/>
<path d="M156.345 50.6021C156.291 51.4841 155.896 52.3105 155.243 52.9065C154.591 53.5025 153.732 53.8213 152.849 53.7956C151.966 53.7698 151.127 53.4015 150.51 52.7685C149.894 52.1355 149.548 51.2874 149.545 50.4038C149.57 49.4971 149.953 48.6372 150.609 48.0116C151.266 47.386 152.144 47.0455 153.051 47.0645C153.5 47.0776 153.942 47.1799 154.352 47.3654C154.762 47.5508 155.131 47.8158 155.437 48.1449C155.743 48.4739 155.982 48.8606 156.137 49.2824C156.293 49.7042 156.364 50.1528 156.345 50.6021Z" fill="#90CDEF"/>
<path d="M213.087 177.507C213.086 177.069 213.171 176.634 213.34 176.229C213.508 175.824 213.756 175.457 214.068 175.149C214.38 174.841 214.751 174.598 215.158 174.435C215.565 174.272 216.001 174.192 216.439 174.2C217.327 174.197 218.18 174.545 218.811 175.168C219.443 175.791 219.802 176.639 219.811 177.526C219.801 178.432 219.433 179.297 218.789 179.933C218.144 180.569 217.275 180.925 216.369 180.923C215.482 180.902 214.64 180.53 214.025 179.891C213.411 179.251 213.074 178.394 213.087 177.507Z" fill="#90CDEF"/>
<path d="M57.5616 21.8906C57.1222 21.8949 56.6864 21.8114 56.2796 21.6451C55.8729 21.4787 55.5035 21.2328 55.1931 20.9217C54.8827 20.6107 54.6375 20.2408 54.4719 19.8338C54.3063 19.4268 54.2236 18.9908 54.2287 18.5514C54.23 17.8924 54.4266 17.2487 54.7935 16.7014C55.1605 16.1542 55.6815 15.728 56.2906 15.4767C56.8997 15.2254 57.5697 15.1604 58.2157 15.2897C58.8618 15.419 59.4551 15.7369 59.9206 16.2033C60.3861 16.6697 60.7029 17.2635 60.8309 17.9099C60.959 18.5562 60.8926 19.226 60.6402 19.8347C60.3878 20.4433 59.9606 20.9635 59.4126 21.3294C58.8647 21.6953 58.2205 21.8906 57.5616 21.8906Z" fill="#90CDEF"/>
<path d="M216.407 158.387C217.062 158.38 217.704 158.568 218.252 158.926C218.8 159.283 219.231 159.795 219.489 160.397C219.747 160.998 219.822 161.663 219.704 162.307C219.585 162.951 219.279 163.545 218.824 164.016C218.368 164.486 217.784 164.811 217.144 164.951C216.505 165.09 215.838 165.037 215.228 164.798C214.619 164.56 214.093 164.146 213.718 163.61C213.343 163.073 213.134 162.438 213.119 161.783C213.109 161.344 213.186 160.906 213.346 160.497C213.507 160.087 213.747 159.713 214.053 159.397C214.359 159.081 214.724 158.829 215.129 158.656C215.533 158.482 215.967 158.391 216.407 158.387Z" fill="#90CDEF"/>
<path d="M76.8414 18.6985C76.8388 19.3529 76.6429 19.992 76.2782 20.5355C75.9135 21.0789 75.3963 21.5025 74.7917 21.7529C74.187 22.0033 73.5218 22.0694 72.8797 21.943C72.2376 21.8165 71.6471 21.5031 71.1826 21.0421C70.7181 20.5811 70.4001 19.9931 70.2688 19.3519C70.1374 18.7108 70.1984 18.0451 70.4442 17.4385C70.69 16.832 71.1096 16.3116 71.6502 15.9428C72.1909 15.574 72.8285 15.3731 73.4829 15.3656C73.9234 15.3596 74.3607 15.4416 74.7692 15.6066C75.1777 15.7717 75.5491 16.0165 75.8619 16.3269C76.1746 16.6372 76.4223 17.0068 76.5905 17.414C76.7587 17.8212 76.8439 18.2579 76.8414 18.6985Z" fill="#90CDEF"/>
<path d="M38.4827 18.6095C38.4706 18.1782 38.5458 17.7489 38.704 17.3474C38.8621 16.9459 39.0998 16.5806 39.4028 16.2734C39.7058 15.9663 40.0679 15.7235 40.4671 15.5599C40.8664 15.3963 41.2946 15.3152 41.726 15.3214C42.1572 15.3188 42.5845 15.4018 42.9834 15.5654C43.3823 15.729 43.7448 15.9701 44.05 16.2746C44.3551 16.5792 44.5969 16.9412 44.7613 17.3398C44.9257 17.7384 45.0095 18.1656 45.0078 18.5967C44.9889 19.4445 44.6476 20.2532 44.0533 20.8582C43.4591 21.4632 42.6565 21.8189 41.8092 21.8528C41.377 21.8613 40.9475 21.7838 40.5455 21.6249C40.1435 21.4659 39.7771 21.2287 39.4676 20.9269C39.1581 20.6251 38.9117 20.2649 38.7426 19.867C38.5735 19.4692 38.4852 19.0418 38.4827 18.6095Z" fill="#90CDEF"/>
<path d="M219.625 145.803C219.603 146.651 219.246 147.455 218.632 148.039C218.018 148.623 217.197 148.939 216.35 148.919C215.93 148.913 215.515 148.823 215.13 148.654C214.745 148.484 214.399 148.239 214.111 147.933C213.823 147.627 213.6 147.265 213.455 146.871C213.31 146.476 213.246 146.057 213.266 145.637C213.298 144.81 213.649 144.027 214.245 143.453C214.842 142.88 215.637 142.559 216.465 142.56C216.886 142.565 217.301 142.653 217.688 142.819C218.074 142.984 218.424 143.225 218.718 143.526C219.011 143.827 219.243 144.184 219.398 144.574C219.554 144.965 219.631 145.383 219.625 145.803Z" fill="#90CDEF"/>
<path d="M89.3665 21.8601C88.5182 21.8601 87.7047 21.5231 87.1048 20.9232C86.505 20.3234 86.168 19.5098 86.168 18.6615C86.1814 17.8318 86.5214 17.0408 87.1141 16.46C87.7069 15.8792 88.5047 15.5554 89.3345 15.5589C89.7553 15.55 90.1734 15.6269 90.5633 15.785C90.9533 15.9431 91.307 16.179 91.6027 16.4783C91.8985 16.7777 92.1301 17.1342 92.2835 17.526C92.4368 17.9179 92.5087 18.3369 92.4947 18.7575C92.4814 19.5806 92.1467 20.3659 91.5622 20.9456C90.9777 21.5253 90.1897 21.8535 89.3665 21.8601Z" fill="#90CDEF"/>
<path d="M140.084 34.5199C140.087 34.9316 140.008 35.3399 139.852 35.7206C139.695 36.1014 139.464 36.4471 139.172 36.7373C138.88 37.0276 138.533 37.2565 138.151 37.4107C137.769 37.5649 137.361 37.6413 136.949 37.6353C136.117 37.6269 135.322 37.2887 134.74 36.695C134.157 36.1014 133.833 35.3007 133.84 34.4687C133.87 33.658 134.208 32.8891 134.784 32.3178C135.36 31.7465 136.132 31.4155 136.943 31.3917C137.355 31.3892 137.763 31.4683 138.145 31.6244C138.526 31.7806 138.873 32.0107 139.165 32.3015C139.457 32.5923 139.688 32.9381 139.846 33.3188C140.004 33.6996 140.084 34.1078 140.084 34.5199Z" fill="#90CDEF"/>
<path d="M28.8819 18.6161C28.8805 19.0295 28.7958 19.4385 28.6329 19.8184C28.4699 20.1984 28.2321 20.5416 27.9335 20.8276C27.635 21.1137 27.2819 21.3366 26.8952 21.4831C26.5086 21.6296 26.0965 21.6966 25.6834 21.6803C24.8714 21.6605 24.0986 21.327 23.5273 20.7497C22.956 20.1724 22.6305 19.3962 22.6191 18.5841C22.6324 17.7524 22.9691 16.9586 23.5579 16.371C24.1466 15.7834 24.9412 15.4483 25.7729 15.4367C26.1864 15.4392 26.5954 15.5237 26.976 15.6852C27.3567 15.8467 27.7016 16.0821 27.9907 16.3778C28.2798 16.6735 28.5075 17.0235 28.6604 17.4077C28.8134 17.7919 28.8887 18.2026 28.8819 18.6161Z" fill="#90CDEF"/>
<path d="M200.542 101.222C200.129 101.215 199.722 101.127 199.343 100.963C198.965 100.798 198.622 100.561 198.336 100.263C198.049 99.9661 197.824 99.6153 197.674 99.2309C197.523 98.8465 197.45 98.4362 197.459 98.0234C197.493 97.2117 197.834 96.4434 198.414 95.8743C198.994 95.3052 199.768 94.978 200.58 94.9592C200.993 94.9609 201.4 95.0439 201.781 95.2033C202.161 95.3628 202.506 95.5957 202.795 95.8886C203.085 96.1816 203.315 96.5288 203.47 96.9105C203.626 97.2922 203.705 97.7008 203.702 98.113C203.705 98.5264 203.625 98.9361 203.466 99.3178C203.308 99.6996 203.074 100.046 202.779 100.336C202.485 100.625 202.135 100.853 201.751 101.006C201.366 101.158 200.955 101.231 200.542 101.222Z" fill="#90CDEF"/>
<path d="M108.174 18.6286C108.199 19.0274 108.142 19.4271 108.008 19.8035C107.874 20.1799 107.665 20.5253 107.394 20.8189C107.123 21.1124 106.795 21.3481 106.431 21.5117C106.066 21.6753 105.672 21.7634 105.272 21.7707C104.873 21.778 104.476 21.7045 104.106 21.5544C103.735 21.4043 103.399 21.1809 103.118 20.8975C102.836 20.6141 102.614 20.2766 102.466 19.9054C102.319 19.5341 102.247 19.1368 102.257 18.7373C102.246 18.3537 102.311 17.9716 102.448 17.6131C102.584 17.2545 102.791 16.9264 103.055 16.6477C103.318 16.369 103.635 16.1451 103.985 15.9888C104.336 15.8326 104.714 15.747 105.097 15.7371C105.49 15.7199 105.883 15.7816 106.252 15.9186C106.621 16.0555 106.959 16.2648 107.245 16.5343C107.532 16.8037 107.762 17.1278 107.922 17.4875C108.081 17.8472 108.167 18.2352 108.174 18.6286Z" fill="#90CDEF"/>
<path d="M216.426 132.874C216.032 132.873 215.643 132.793 215.28 132.64C214.918 132.486 214.589 132.261 214.315 131.978C214.041 131.696 213.826 131.361 213.683 130.994C213.54 130.627 213.472 130.235 213.484 129.841C213.488 129.457 213.568 129.078 213.719 128.725C213.87 128.371 214.09 128.052 214.365 127.783C214.64 127.515 214.966 127.304 215.323 127.162C215.68 127.02 216.061 126.95 216.445 126.956C216.846 126.938 217.245 127 217.62 127.141C217.996 127.281 218.338 127.496 218.628 127.773C218.918 128.049 219.149 128.382 219.306 128.75C219.464 129.118 219.545 129.514 219.545 129.915C219.545 130.316 219.464 130.712 219.306 131.08C219.149 131.448 218.918 131.781 218.628 132.057C218.338 132.334 217.996 132.549 217.62 132.689C217.245 132.83 216.846 132.892 216.445 132.874L216.426 132.874Z" fill="#90CDEF"/>
<path d="M12.7814 18.5651C12.7839 19.1296 12.6189 19.6822 12.3072 20.153C11.9955 20.6237 11.5512 20.9914 11.0305 21.2095C10.5097 21.4276 9.93601 21.4863 9.3819 21.3782C8.82778 21.27 8.3182 20.9999 7.91766 20.6021C7.51711 20.2042 7.2436 19.6965 7.13175 19.1431C7.0199 18.5897 7.07473 18.0156 7.28932 17.4934C7.5039 16.9712 7.86858 16.5244 8.3372 16.2096C8.80582 15.8948 9.35732 15.726 9.92188 15.7247C10.2972 15.7196 10.6698 15.7895 11.0177 15.9302C11.3657 16.0708 11.6821 16.2796 11.9484 16.5441C12.2147 16.8086 12.4256 17.1236 12.5686 17.4706C12.7116 17.8176 12.784 18.1897 12.7814 18.5651Z" fill="#90CDEF"/>
<path d="M168.78 47.6901C169.145 47.6833 169.508 47.7492 169.847 47.884C170.186 48.0188 170.495 48.2197 170.756 48.4752C171.017 48.7306 171.224 49.0354 171.366 49.3718C171.508 49.7081 171.581 50.0694 171.582 50.4344C171.594 51.1712 171.317 51.8835 170.81 52.4181C170.303 52.9528 169.606 53.2672 168.869 53.2939C168.114 53.2941 167.389 52.998 166.849 52.4693C166.31 51.9407 165.999 51.2215 165.984 50.4664C165.994 49.7299 166.293 49.0266 166.815 48.5076C167.338 47.9885 168.043 47.695 168.78 47.6901Z" fill="#90CDEF"/>
<path d="M184.587 69.1024C184.222 69.1016 183.861 69.0279 183.525 68.8856C183.189 68.7432 182.884 68.5351 182.63 68.2734C182.375 68.0118 182.176 67.7019 182.043 67.3619C181.91 67.022 181.846 66.6589 181.855 66.294C181.859 65.5564 182.153 64.8499 182.674 64.3278C183.195 63.8056 183.901 63.5099 184.638 63.5049C185.393 63.5216 186.11 63.8341 186.637 64.3749C187.163 64.9157 187.456 65.6416 187.453 66.3964C187.428 67.1339 187.113 67.8318 186.576 68.3385C186.04 68.8451 185.325 69.1196 184.587 69.1024Z" fill="#90CDEF"/>
<path d="M219.042 113.946C219.051 114.294 218.989 114.64 218.86 114.963C218.73 115.286 218.536 115.58 218.289 115.825C218.043 116.071 217.748 116.263 217.425 116.391C217.101 116.519 216.755 116.58 216.407 116.569C215.724 116.567 215.07 116.299 214.583 115.821C214.097 115.342 213.817 114.692 213.803 114.01C213.791 113.315 214.052 112.644 214.531 112.14C215.01 111.636 215.667 111.34 216.362 111.317C216.712 111.308 217.061 111.369 217.387 111.497C217.713 111.625 218.01 111.817 218.26 112.063C218.51 112.308 218.708 112.601 218.843 112.925C218.977 113.249 219.045 113.596 219.042 113.946Z" fill="#90CDEF"/>
<path d="M123.726 18.6609C123.735 19.3385 123.474 19.9918 123.002 20.4775C122.529 20.9632 121.883 21.2417 121.206 21.2518C120.868 21.2628 120.531 21.207 120.216 21.0873C119.9 20.9677 119.61 20.7867 119.365 20.5547C119.119 20.3228 118.922 20.0445 118.784 19.7359C118.647 19.4274 118.572 19.0946 118.564 18.7569C118.557 18.0584 118.827 17.3856 119.315 16.8857C119.803 16.3857 120.469 16.0994 121.167 16.0893C121.504 16.0893 121.838 16.1559 122.149 16.2853C122.461 16.4147 122.743 16.6043 122.981 16.8433C123.219 17.0822 123.407 17.3658 123.535 17.6778C123.663 17.9897 123.728 18.3238 123.726 18.6609Z" fill="#90CDEF"/>
<path d="M198.041 82.1335C198.04 81.7987 198.106 81.4671 198.235 81.1581C198.364 80.849 198.552 80.5687 198.791 80.3334C199.029 80.0982 199.312 79.9128 199.622 79.788C199.933 79.6632 200.265 79.6016 200.6 79.6067C201.279 79.6067 201.93 79.8763 202.409 80.3561C202.889 80.836 203.159 81.4869 203.159 82.1655C203.138 82.8451 202.855 83.4903 202.37 83.9669C201.885 84.4435 201.235 84.7148 200.555 84.7244C199.879 84.7126 199.235 84.4334 198.763 83.9479C198.292 83.4624 198.033 82.81 198.041 82.1335Z" fill="#90CDEF"/>
<path d="M152.993 31.9733C153.331 31.9733 153.667 32.0405 153.979 32.1711C154.292 32.3017 154.575 32.4931 154.814 32.7341C155.052 32.9751 155.239 33.261 155.366 33.5751C155.493 33.8893 155.556 34.2255 155.552 34.5642C155.53 35.2471 155.245 35.8951 154.756 36.3722C154.267 36.8493 153.612 37.1184 152.929 37.123C152.592 37.1172 152.259 37.0448 151.95 36.91C151.641 36.7752 151.361 36.5806 151.128 36.3375C150.894 36.0943 150.711 35.8074 150.589 35.4932C150.466 35.179 150.407 34.8437 150.415 34.5066C150.421 33.8291 150.697 33.1819 151.18 32.707C151.663 32.2321 152.315 31.9682 152.993 31.9733Z" fill="#90CDEF"/>
<path d="M234.498 161.744C234.496 162.043 234.434 162.338 234.315 162.612C234.196 162.886 234.022 163.132 233.804 163.337C233.585 163.541 233.328 163.698 233.047 163.8C232.766 163.901 232.467 163.944 232.169 163.925C231.586 163.899 231.037 163.647 230.636 163.224C230.235 162.8 230.014 162.238 230.02 161.654C230.047 161.072 230.292 160.522 230.707 160.113C231.122 159.704 231.676 159.466 232.259 159.447C232.557 159.449 232.852 159.51 233.127 159.627C233.402 159.743 233.65 159.913 233.859 160.127C234.067 160.341 234.231 160.594 234.34 160.871C234.45 161.149 234.504 161.446 234.498 161.744Z" fill="#90CDEF"/>
<path d="M55.3541 2.6553C55.3585 2.35727 55.4238 2.06328 55.5459 1.79139C55.6681 1.51949 55.8445 1.27542 56.0643 1.07415C56.2841 0.872871 56.5428 0.718642 56.8244 0.620921C57.106 0.523201 57.4046 0.48405 57.7018 0.505871C58.285 0.540487 58.832 0.799738 59.228 1.22917C59.6241 1.6586 59.8383 2.2248 59.8257 2.80883C59.789 3.38904 59.536 3.93438 59.1167 4.33709C58.6974 4.73981 58.1423 4.97059 57.5611 4.98385C57.2623 4.97895 56.9676 4.91447 56.6941 4.79419C56.4205 4.67391 56.1738 4.50025 55.9682 4.28339C55.7627 4.06653 55.6025 3.81082 55.4971 3.53125C55.3916 3.25169 55.343 2.95389 55.3541 2.6553Z" fill="#90CDEF"/>
<path d="M234.498 177.52C234.502 177.819 234.446 178.116 234.335 178.392C234.223 178.669 234.057 178.921 233.847 179.133C233.636 179.345 233.386 179.513 233.11 179.628C232.834 179.742 232.538 179.8 232.239 179.798C231.657 179.774 231.105 179.532 230.694 179.119C230.282 178.706 230.042 178.154 230.02 177.572C230.019 176.989 230.245 176.429 230.65 176.01C231.054 175.591 231.606 175.346 232.188 175.326C232.486 175.31 232.784 175.354 233.064 175.457C233.344 175.56 233.6 175.719 233.817 175.925C234.033 176.13 234.205 176.378 234.322 176.652C234.439 176.927 234.499 177.222 234.498 177.52Z" fill="#90CDEF"/>
<path d="M75.7086 2.73858C75.7073 3.17019 75.5784 3.59178 75.3381 3.9503C75.0978 4.30881 74.7568 4.58823 74.358 4.7534C73.9592 4.91856 73.5205 4.96208 73.0971 4.87848C72.6736 4.79489 72.2844 4.58791 71.9783 4.28361C71.6722 3.9793 71.463 3.59125 71.3769 3.1683C71.2909 2.74535 71.3318 2.3064 71.4947 1.90668C71.6575 1.50696 71.935 1.16434 72.2921 0.921932C72.6492 0.679523 73.07 0.548158 73.5016 0.544371C73.7913 0.540967 74.0788 0.595303 74.3472 0.704207C74.6157 0.813112 74.8598 0.974402 75.0653 1.17866C75.2707 1.38293 75.4334 1.62607 75.5439 1.89389C75.6543 2.16172 75.7103 2.44887 75.7086 2.73858Z" fill="#90CDEF"/>
<path d="M41.7094 4.87503C41.4301 4.87845 41.1529 4.82606 40.8941 4.72094C40.6353 4.61582 40.4001 4.46008 40.2023 4.26286C40.0045 4.06564 39.848 3.8309 39.7421 3.57242C39.6362 3.31394 39.583 3.03691 39.5856 2.75759C39.5787 2.46888 39.63 2.18174 39.7366 1.91331C39.8431 1.64489 40.0026 1.40069 40.2057 1.19529C40.4087 0.989893 40.651 0.82751 40.9181 0.717841C41.1853 0.608171 41.4718 0.553463 41.7606 0.556983C42.3244 0.57155 42.861 0.802009 43.2598 1.20079C43.6586 1.59957 43.8891 2.13624 43.9036 2.70002C43.9071 2.98824 43.8526 3.27422 43.7433 3.54094C43.6341 3.80767 43.4723 4.04969 43.2675 4.25261C43.0628 4.45553 42.8194 4.61521 42.5517 4.72213C42.284 4.82906 41.9976 4.88106 41.7094 4.87503Z" fill="#90CDEF"/>
<path d="M218.518 98.087C218.525 98.6359 218.316 99.1657 217.937 99.5627C217.558 99.9598 217.038 100.192 216.49 100.211C216.208 100.215 215.929 100.163 215.667 100.058C215.406 99.9536 215.168 99.7978 214.967 99.6002C214.767 99.4025 214.607 99.167 214.499 98.9072C214.39 98.6474 214.334 98.3686 214.334 98.087C214.344 97.5372 214.57 97.0133 214.962 96.628C215.354 96.2428 215.882 96.027 216.432 96.0271C216.981 96.0254 217.509 96.2411 217.9 96.627C218.29 97.0129 218.513 97.5378 218.518 98.087Z" fill="#90CDEF"/>
<path d="M137.005 16.5818C137.556 16.5915 138.081 16.8131 138.472 17.2004C138.863 17.5877 139.089 18.1108 139.104 18.6609C139.104 18.9422 139.047 19.2206 138.938 19.4798C138.829 19.739 138.669 19.9736 138.467 20.1698C138.265 20.366 138.027 20.5198 137.765 20.6222C137.503 20.7245 137.223 20.7732 136.941 20.7655C136.669 20.7597 136.401 20.7003 136.152 20.5907C135.902 20.4812 135.677 20.3236 135.489 20.1269C135.301 19.9303 135.153 19.6985 135.054 19.4447C134.955 19.191 134.908 18.9203 134.914 18.6481C134.925 18.0993 135.15 17.5766 135.541 17.1909C135.931 16.8051 136.457 16.5867 137.005 16.5818Z" fill="#90CDEF"/>
<path d="M91.3635 2.69991C91.3742 3.22537 91.1798 3.73432 90.8215 4.11885C90.4632 4.50339 89.9693 4.73328 89.4444 4.75978C88.8973 4.7599 88.3719 4.54567 87.9808 4.163C87.5898 3.78034 87.3643 3.2597 87.3525 2.7127C87.3642 2.18267 87.583 1.6783 87.9621 1.30763C88.3411 0.936963 88.8503 0.72947 89.3804 0.729599C89.6407 0.72619 89.8991 0.774732 90.1404 0.872382C90.3817 0.970032 90.6011 1.11483 90.7857 1.2983C90.9704 1.48177 91.1166 1.70023 91.2158 1.9409C91.315 2.18157 91.3652 2.4396 91.3635 2.69991Z" fill="#90CDEF"/>
<path d="M232.272 143.718C232.801 143.725 233.307 143.938 233.681 144.312C234.055 144.686 234.268 145.192 234.275 145.721C234.284 145.98 234.242 146.239 234.15 146.482C234.058 146.726 233.919 146.948 233.74 147.137C233.561 147.326 233.347 147.477 233.109 147.582C232.872 147.687 232.615 147.744 232.355 147.749C232.085 147.756 231.815 147.709 231.563 147.611C231.31 147.512 231.08 147.364 230.886 147.175C230.692 146.986 230.538 146.76 230.434 146.51C230.329 146.26 230.275 145.992 230.276 145.721C230.298 145.198 230.515 144.702 230.885 144.331C231.254 143.961 231.749 143.742 232.272 143.718Z" fill="#90CDEF"/>
<path d="M186.584 50.5184C186.57 51.0288 186.36 51.5141 185.996 51.872C185.632 52.23 185.143 52.4328 184.633 52.4376C184.371 52.438 184.111 52.3849 183.871 52.2813C183.63 52.1777 183.413 52.026 183.233 51.8354C183.053 51.6448 182.914 51.4194 182.825 51.1731C182.736 50.9268 182.698 50.6648 182.713 50.4033C182.719 50.1518 182.775 49.904 182.879 49.6748C182.983 49.4455 183.131 49.2396 183.317 49.0694C183.502 48.8991 183.72 48.768 183.957 48.6839C184.194 48.5999 184.445 48.5645 184.697 48.5801C185.203 48.5885 185.686 48.7971 186.04 49.1602C186.393 49.5234 186.589 50.0116 186.584 50.5184Z" fill="#90CDEF"/>
<path d="M27.7178 2.7197C27.7178 3.22868 27.5156 3.71682 27.1557 4.07673C26.7957 4.43664 26.3076 4.63883 25.7986 4.63883C25.5475 4.65003 25.2967 4.61042 25.0612 4.52237C24.8257 4.43433 24.6105 4.29966 24.4283 4.12644C24.2461 3.95322 24.1008 3.74501 24.001 3.51428C23.9012 3.28355 23.849 3.03505 23.8475 2.78367C23.8363 2.52473 23.8776 2.26621 23.969 2.02368C24.0604 1.78116 24.2 1.55966 24.3793 1.37255C24.5587 1.18544 24.7741 1.03659 25.0125 0.93499C25.2509 0.833386 25.5075 0.781129 25.7666 0.781373C26.2804 0.78631 26.7719 0.991712 27.1363 1.3538C27.5008 1.71588 27.7094 2.20601 27.7178 2.7197Z" fill="#90CDEF"/>
<path d="M168.819 36.2792C168.585 36.2853 168.353 36.2441 168.135 36.1581C167.918 36.072 167.721 35.943 167.554 35.7787C167.388 35.6144 167.257 35.4182 167.169 35.2019C167.08 34.9856 167.037 34.7537 167.04 34.52C167.041 34.2859 167.088 34.0543 167.179 33.8385C167.269 33.6226 167.401 33.4267 167.568 33.2621C167.734 33.0975 167.932 32.9673 168.148 32.8791C168.365 32.7909 168.597 32.7463 168.831 32.748C169.285 32.7667 169.715 32.9543 170.037 33.2739C170.359 33.5935 170.549 34.0221 170.571 34.4752C170.576 34.709 170.534 34.9413 170.448 35.1588C170.362 35.3762 170.234 35.5745 170.071 35.7422C169.908 35.9099 169.713 36.0437 169.498 36.1358C169.283 36.228 169.052 36.2767 168.819 36.2792Z" fill="#90CDEF"/>
<path d="M200.568 68.0983C200.096 68.08 199.649 67.8791 199.322 67.5377C198.995 67.1964 198.813 66.7414 198.815 66.2687C198.824 66.0348 198.88 65.805 198.978 65.5926C199.076 65.3802 199.216 65.1894 199.388 65.0312C199.561 64.873 199.763 64.7505 199.983 64.6709C200.203 64.5912 200.437 64.5559 200.671 64.5671C201.124 64.5821 201.553 64.774 201.866 65.1016C202.179 65.4293 202.352 65.8666 202.347 66.3199C202.347 66.5537 202.302 66.7853 202.213 67.0014C202.124 67.2176 201.993 67.414 201.828 67.5793C201.662 67.7446 201.466 67.8756 201.25 67.9646C201.034 68.0537 200.802 68.0991 200.568 68.0983Z" fill="#90CDEF"/>
<path d="M232.38 128.154C232.614 128.153 232.846 128.198 233.063 128.287C233.279 128.376 233.476 128.507 233.642 128.672C233.808 128.838 233.939 129.034 234.029 129.25C234.119 129.466 234.165 129.698 234.165 129.932C234.145 130.404 233.944 130.85 233.603 131.176C233.262 131.503 232.808 131.685 232.335 131.685C231.883 131.669 231.454 131.479 231.137 131.155C230.82 130.831 230.64 130.398 230.634 129.945C230.626 129.711 230.666 129.479 230.75 129.261C230.834 129.043 230.962 128.844 231.125 128.677C231.288 128.51 231.484 128.377 231.699 128.287C231.915 128.197 232.147 128.152 232.38 128.154Z" fill="#90CDEF"/>
<path d="M105.219 1.01782C105.443 1.02197 105.665 1.07053 105.871 1.16071C106.076 1.25089 106.262 1.38091 106.417 1.54326C106.573 1.70562 106.694 1.8971 106.775 2.10665C106.856 2.31621 106.894 2.5397 106.889 2.76423C106.889 3.19975 106.716 3.61763 106.41 3.92678C106.103 4.23594 105.686 4.41131 105.251 4.41469C105.026 4.4215 104.802 4.38357 104.591 4.30311C104.381 4.22265 104.189 4.10125 104.026 3.94594C103.863 3.79064 103.732 3.60453 103.642 3.39838C103.551 3.19224 103.502 2.97017 103.498 2.74504C103.503 2.2896 103.686 1.85411 104.007 1.53144C104.329 1.20878 104.763 1.02447 105.219 1.01782Z" fill="#90CDEF"/>
<path d="M9.90144 1.1456C10.3146 1.142 10.7129 1.29974 11.0116 1.58527C11.3102 1.8708 11.4857 2.26158 11.5007 2.67451C11.511 3.1061 11.3499 3.52418 11.0525 3.83715C10.7551 4.15011 10.3458 4.33243 9.91424 4.34416C9.50245 4.33411 9.11101 4.16301 8.82396 3.86759C8.53691 3.57217 8.37713 3.17598 8.37893 2.76407C8.36387 2.55577 8.39219 2.34662 8.4621 2.14983C8.53201 1.95304 8.642 1.7729 8.78509 1.62079C8.92819 1.46868 9.10127 1.34791 9.29343 1.26612C9.48558 1.18432 9.69262 1.14329 9.90144 1.1456Z" fill="#90CDEF"/>
<path d="M154.298 18.6807C154.303 19.0361 154.169 19.3793 153.923 19.6365C153.678 19.8937 153.342 20.0444 152.986 20.0561C152.614 20.0511 152.258 19.9004 151.995 19.6361C151.732 19.3719 151.582 19.0152 151.579 18.6423C151.602 18.2905 151.76 17.9612 152.02 17.7228C152.279 17.4845 152.621 17.3556 152.974 17.3629C153.149 17.3567 153.323 17.3865 153.486 17.4504C153.649 17.5144 153.797 17.6111 153.922 17.7347C154.046 17.8582 154.143 18.0059 154.208 18.1687C154.273 18.3314 154.303 18.5057 154.298 18.6807Z" fill="#90CDEF"/>
<path d="M215.09 82.3186C215.074 82.1416 215.096 81.9635 215.154 81.7955C215.211 81.6275 215.303 81.4733 215.424 81.3427C215.544 81.2122 215.69 81.1081 215.853 81.0371C216.016 80.9661 216.191 80.9298 216.369 80.9304C216.554 80.9199 216.739 80.9474 216.913 81.0113C217.087 81.0751 217.246 81.1739 217.38 81.3016C217.515 81.4293 217.621 81.5831 217.694 81.7536C217.766 81.9241 217.803 82.1077 217.802 82.293C217.788 82.6464 217.641 82.9816 217.391 83.2317C217.141 83.4818 216.806 83.6286 216.452 83.6428C216.097 83.6429 215.756 83.5046 215.502 83.2573C215.248 83.0101 215.1 82.6733 215.09 82.3186Z" fill="#90CDEF"/>
<path d="M232.336 115.174C232.018 115.164 231.716 115.032 231.492 114.806C231.269 114.58 231.14 114.276 231.134 113.958C231.134 113.619 231.269 113.293 231.509 113.053C231.748 112.814 232.074 112.679 232.413 112.679C232.58 112.688 232.743 112.73 232.893 112.803C233.042 112.876 233.176 112.979 233.285 113.105C233.395 113.231 233.477 113.378 233.529 113.536C233.58 113.695 233.599 113.862 233.584 114.029C233.581 114.187 233.546 114.343 233.48 114.487C233.415 114.631 233.322 114.761 233.205 114.868C233.088 114.975 232.951 115.057 232.802 115.11C232.653 115.162 232.494 115.184 232.336 115.174Z" fill="#90CDEF"/>
<path d="M121.186 3.94808C120.852 3.94818 120.531 3.81779 120.292 3.58472C120.053 3.35166 119.915 3.03439 119.906 2.70064C119.927 2.3835 120.063 2.08477 120.287 1.86003C120.512 1.63528 120.811 1.4998 121.128 1.47879C121.298 1.47347 121.466 1.50292 121.624 1.56533C121.782 1.62774 121.925 1.72179 122.045 1.84167C122.165 1.96156 122.259 2.10473 122.321 2.26237C122.383 2.42 122.413 2.58876 122.408 2.75821C122.411 2.91822 122.382 3.07727 122.321 3.22543C122.261 3.3736 122.171 3.5077 122.056 3.61935C121.941 3.73101 121.805 3.81783 121.655 3.87439C121.505 3.93095 121.346 3.95604 121.186 3.94808Z" fill="#90CDEF"/>
</g>
</mask>
<g mask="url(#mask0_178_32484)">
<path d="M-2.92383 -91.5491L468.772 -91.5491L468.772 318.053L-2.92383 318.053L-2.92383 -91.5491Z" fill="url(#paint0_linear_178_32484)" fill-opacity="0.5"/>
</g>
</g>
<defs>
<linearGradient id="paint0_linear_178_32484" x1="-1.85931" y1="173.048" x2="244.338" y2="-71.5152" gradientUnits="userSpaceOnUse">
<stop stop-color="#A5D6F2"/>
<stop stop-color="#A5D6F2"/>
<stop offset="0.991319" stop-color="#A5D6F2" stop-opacity="0"/>
</linearGradient>
</defs>
</svg>
