<svg width="64" height="64" viewBox="0 0 64 64" fill="none" xmlns="http://www.w3.org/2000/svg">
<path d="M32 64.0003C49.6732 64.0003 64.0002 49.6734 64.0002 32.0002C64.0002 14.327 49.6732 0 32 0C14.3268 0 -0.00012207 14.327 -0.00012207 32.0002C-0.00012207 49.6734 14.3268 64.0003 32 64.0003Z" fill="#E6F7EE"/>
<path d="M18.7758 30.1441C17.7598 32.3954 14.2586 41.2617 19.9819 45.2015C21.5899 46.3052 23.6147 46.7 25.4859 46.1444C26.86 45.7351 28.2415 44.8068 28.4462 42.7309C28.6216 40.9182 27.7372 39.1712 26.268 38.1041C25.5516 37.5851 24.616 36.9711 23.4612 36.3352C19.6676 34.2666 19.0901 31.394 19.0243 30.188C19.017 30.0564 18.8343 30.0198 18.7831 30.1441H18.7758Z" fill="#0EB864"/>
<g style="mix-blend-mode:multiply" opacity="0.24">
<path d="M18.777 30.144C18.777 30.144 15.2246 44.6386 27.7749 44.5509C27.7749 44.5509 25.6113 47.8402 20.9259 45.7204C18.3018 44.5363 16.7157 41.6272 16.818 38.7107C16.8911 36.6348 17.2127 33.8207 18.777 30.1514V30.144Z" fill="#4EC221"/>
</g>
<path d="M32.4162 46.4729C24.9898 46.4217 21.1085 40.7204 20.1436 39.0904C20.1071 39.0246 20.1875 38.9588 20.2386 39.0173C21.6201 40.4353 27.0437 45.5811 32.3358 45.1645C32.5258 45.1499 32.6866 45.2814 32.7012 45.4715L32.7524 46.1074C32.767 46.3048 32.6062 46.4729 32.4162 46.4729Z" fill="#CEEFDE"/>
<path d="M20.1509 39.0906C20.1509 39.0906 24.8582 46.2831 32.7596 46.1076C32.7596 46.1076 32.9058 46.4292 32.4234 46.4731C32.4234 46.4731 24.6973 46.8459 20.1509 39.0906Z" fill="#B3E2C8"/>
<path d="M41.0408 25.2398C39.8275 23.0909 34.7474 15.0212 28.1836 17.3091C26.3416 17.9523 24.8212 19.3484 24.1707 21.1904C23.6883 22.5353 23.6225 24.2092 25.1721 25.598C26.5243 26.8114 28.4613 27.133 30.1937 26.5775C31.0342 26.307 32.0868 25.9196 33.2782 25.3568C37.1888 23.5221 39.8494 24.7501 40.8581 25.4079C40.9678 25.481 41.1066 25.3568 41.0408 25.2398Z" fill="#0EB864"/>
<g style="mix-blend-mode:multiply" opacity="0.24">
<path d="M41.0409 25.2396C41.0409 25.2396 31.4509 13.8003 24.0976 23.9751C24.0976 23.9751 22.7308 20.2838 27.2114 17.762C29.7186 16.344 33.0005 16.7826 35.2957 18.5953C36.9257 19.8818 39.0089 21.8042 41.0409 25.2396Z" fill="#4EC221"/>
</g>
<path d="M19.8076 26.5921C24.2371 20.6349 31.1372 20.8688 33.0157 21.0588C33.0888 21.0661 33.0888 21.1758 33.0157 21.1831C31.0568 21.4608 23.6962 22.7912 20.904 27.3011C20.8017 27.4619 20.597 27.513 20.4435 27.418L19.9026 27.0818C19.7345 26.9795 19.6907 26.7529 19.8076 26.5921Z" fill="#CEEFDE"/>
<path d="M33.016 21.0587C33.016 21.0587 24.4348 20.6055 19.9029 27.0817C19.9029 27.0817 19.5594 27.0086 19.8079 26.5919C19.8079 26.5919 24.0693 20.1377 33.016 21.0587Z" fill="#B3E2C8"/>
<path d="M34.9004 47.0869C37.349 46.8018 46.7563 45.2595 47.2021 38.3229C47.3264 36.3786 46.6247 34.4343 45.1847 33.1186C44.1322 32.1537 42.6191 31.4447 40.7406 32.3292C39.096 33.104 38.0507 34.7632 37.8899 36.5759C37.8095 37.4531 37.7657 38.5714 37.8168 39.8944C37.9849 44.2143 35.8214 46.1805 34.82 46.8603C34.7103 46.9334 34.7688 47.1088 34.9077 47.0942L34.9004 47.0869Z" fill="#0EB864"/>
<g style="mix-blend-mode:multiply" opacity="0.24">
<path d="M34.9001 47.0867C34.9001 47.0867 49.1681 42.7011 42.6481 31.9708C42.6481 31.9708 46.5806 32.1389 47.1654 37.2555C47.4943 40.1208 45.8131 42.9715 43.2548 44.3749C41.4348 45.3763 38.8545 46.5458 34.9001 47.0867Z" fill="#4EC221"/>
</g>
<path d="M41.9097 26.9937C45.6814 33.3894 42.7795 39.6536 41.8732 41.3128C41.8366 41.3786 41.7416 41.3421 41.7562 41.269C42.2606 39.3539 43.8979 32.0591 40.8206 27.7319C40.711 27.5784 40.7402 27.3664 40.8937 27.2641L41.4127 26.8986C41.5735 26.789 41.8001 26.8329 41.9024 27.001L41.9097 26.9937Z" fill="#CEEFDE"/>
<path d="M41.8733 41.3132C41.8733 41.3132 45.6304 33.5798 41.4202 26.8917C41.4202 26.8917 41.6175 26.6066 41.9099 26.994C41.9099 26.994 46.1932 33.4337 41.8733 41.3132Z" fill="#B3E2C8"/>
</svg>
