<svg width="41" height="40" viewBox="0 0 41 40" fill="none" xmlns="http://www.w3.org/2000/svg">
<g clip-path="url(#clip0_384_10947)">
<path d="M20.99 40C32.0357 40 40.99 31.0457 40.99 20C40.99 8.95431 32.0357 0 20.99 0C9.94433 0 0.990021 8.95431 0.990021 20C0.990021 31.0457 9.94433 40 20.99 40Z" fill="#383838" fill-opacity="0.05"/>
<path d="M12.7249 18.8407C12.0899 20.2477 9.90168 25.7892 13.4787 28.2515C14.4838 28.9413 15.7492 29.188 16.9187 28.8408C17.7775 28.585 18.641 28.0048 18.7689 26.7074C18.8785 25.5745 18.3258 24.4826 17.4075 23.8156C16.9598 23.4913 16.3751 23.1075 15.6533 22.7101C13.2823 21.4172 12.9214 19.6219 12.8803 18.8681C12.8757 18.7859 12.7615 18.763 12.7295 18.8407H12.7249Z" fill="#0EB864"/>
<g style="mix-blend-mode:multiply" opacity="0.24">
<path d="M12.7256 18.8398C12.7256 18.8398 10.5054 27.8989 18.3493 27.8441C18.3493 27.8441 16.997 29.8999 14.0687 28.575C12.4287 27.835 11.4373 26.0168 11.5013 24.194C11.547 22.8966 11.748 21.1377 12.7256 18.8444V18.8398Z" fill="#4EC221"/>
</g>
<path d="M21.2501 29.045C16.6086 29.013 14.1828 25.4497 13.5798 24.4309C13.5569 24.3898 13.6072 24.3487 13.6392 24.3852C14.5026 25.2715 17.8923 28.4876 21.1998 28.2272C21.3186 28.2181 21.4191 28.3003 21.4282 28.4191L21.4602 28.8166C21.4694 28.9399 21.3688 29.045 21.2501 29.045Z" fill="#CEEFDE"/>
<path d="M13.5844 24.4336C13.5844 24.4336 16.5264 28.9289 21.4648 28.8192C21.4648 28.8192 21.5562 29.0202 21.2547 29.0476C21.2547 29.0476 16.4259 29.2806 13.5844 24.4336Z" fill="#B3E2C8"/>
<path d="M26.6405 15.7759C25.8822 14.4328 22.7072 9.38927 18.6048 10.8192C17.4535 11.2212 16.5033 12.0937 16.0967 13.245C15.7952 14.0856 15.7541 15.1317 16.7226 15.9997C17.5678 16.7581 18.7784 16.9591 19.8611 16.6119C20.3864 16.4428 21.0443 16.2007 21.7889 15.8489C24.233 14.7023 25.8959 15.4698 26.5263 15.8809C26.5949 15.9266 26.6817 15.8489 26.6405 15.7759Z" fill="#0EB864"/>
<g style="mix-blend-mode:multiply" opacity="0.24">
<path d="M26.6405 15.7735C26.6405 15.7735 20.6468 8.62403 16.051 14.9832C16.051 14.9832 15.1967 12.6762 17.9972 11.1001C19.5641 10.2138 21.6153 10.4879 23.0498 11.6209C24.0685 12.4249 25.3705 13.6264 26.6405 15.7735Z" fill="#4EC221"/>
</g>
<path d="M13.3698 16.6195C16.1382 12.8963 20.4507 13.0425 21.6248 13.1613C21.6705 13.1658 21.6705 13.2344 21.6248 13.2389C20.4005 13.4125 15.8001 14.244 14.055 17.0627C13.9911 17.1632 13.8632 17.1951 13.7672 17.1358L13.4292 16.9256C13.3241 16.8617 13.2967 16.72 13.3698 16.6195Z" fill="#CEEFDE"/>
<path d="M21.625 13.1617C21.625 13.1617 16.2617 12.8785 13.4294 16.926C13.4294 16.926 13.2146 16.8803 13.37 16.6199C13.37 16.6199 16.0333 12.5861 21.625 13.1617Z" fill="#B3E2C8"/>
<path d="M22.8027 29.4327C24.3331 29.2545 30.2126 28.2906 30.4912 23.9552C30.5689 22.74 30.1303 21.5248 29.2303 20.7025C28.5725 20.0995 27.6269 19.6564 26.4528 20.2091C25.4249 20.6934 24.7716 21.7304 24.6711 22.8634C24.6209 23.4116 24.5935 24.1105 24.6254 24.9374C24.7305 27.6373 23.3783 28.8662 22.7524 29.2911C22.6839 29.3367 22.7204 29.4464 22.8072 29.4373L22.8027 29.4327Z" fill="#0EB864"/>
<g style="mix-blend-mode:multiply" opacity="0.24">
<path d="M22.8025 29.4318C22.8025 29.4318 31.72 26.6907 27.645 19.9844C27.645 19.9844 30.1028 20.0894 30.4683 23.2873C30.6738 25.0781 29.6231 26.8598 28.0242 27.7369C26.8867 28.3628 25.274 29.0937 22.8025 29.4318Z" fill="#4EC221"/>
</g>
<path d="M27.1835 16.8743C29.5408 20.8716 27.7271 24.7867 27.1606 25.8238C27.1378 25.8649 27.0784 25.842 27.0875 25.7963C27.4028 24.5994 28.4261 20.0402 26.5028 17.3357C26.4343 17.2398 26.4525 17.1073 26.5485 17.0434L26.8728 16.8149C26.9733 16.7464 27.115 16.7738 27.1789 16.8789L27.1835 16.8743Z" fill="#CEEFDE"/>
<path d="M27.1608 25.8227C27.1608 25.8227 29.509 20.9893 26.8776 16.8093C26.8776 16.8093 27.0009 16.6311 27.1837 16.8732C27.1837 16.8732 29.8607 20.8979 27.1608 25.8227Z" fill="#B3E2C8"/>
</g>
<defs>
<clipPath id="clip0_384_10947">
<rect width="40" height="40" fill="white" transform="translate(0.990021)"/>
</clipPath>
</defs>
</svg>
