<svg xmlns="http://www.w3.org/2000/svg" width="68.687" height="150" viewBox="0 0 68.687 150">
    <defs>
        <style>
            .cls-1{fill:#4e4c4c;opacity:.6}.cls-2{fill:#373737}.cls-3{fill:#9b6d5a}.cls-4{fill:#fff}.cls-5{fill:#863399}.cls-6{fill:#f2f2f2}.cls-7{fill:#f58520}.cls-8{fill:#dfdfdf}.cls-9{fill:#9a9ea0}.cls-10{fill:#303030}.cls-11{fill:#202842}.cls-12{fill:#555656}.cls-13{fill:#111346}.cls-14{fill:#373399}
        </style>
    </defs>
    <g id="girl_with_phone" data-name="girl with phone" transform="translate(51.843 63.058)">
        <path id="Path_1388" d="M61.037 930.277c0 .915-7.765 2-24.568 2S0 931.362 0 930.447s13.809-1.827 30.611-1.827 30.426.741 30.426 1.657z" class="cls-1" data-name="Path 1388" transform="translate(-44.192 -845.331)"/>
        <g id="Black_girl_1_" transform="translate(-51.843 -63.057)">
            <g id="Group_970" data-name="Group 970">
                <g id="Group_968" data-name="Group 968">
                    <g id="Character_4_">
                        <circle id="Ellipse_245" cx="22.471" cy="22.471" r="22.471" class="cls-2" data-name="Ellipse 245" transform="rotate(-45 38.36 15.89)"/>
                    </g>
                    <g id="Chatacter_1_" transform="translate(21.161 21.611)">
                        <g id="Group_966" data-name="Group 966" transform="translate(0 .278)">
                            <g id="Group_965" data-name="Group 965">
                                <path id="Path_1389" d="M142.366 101.858a12.015 12.015 0 0 1-12.11 11.918 12.015 12.015 0 0 1-11.918-12.11l.037-4.48a12.016 12.016 0 0 1 12.11-11.918 12.015 12.015 0 0 1 11.915 12.11z" class="cls-3" data-name="Path 1389" transform="translate(-114.384 -85.267)"/>
                                <path id="Path_1390" d="M98 176.946a3.224 3.224 0 1 1-3.2-3.257 3.228 3.228 0 0 1 3.2 3.257z" class="cls-3" data-name="Path 1390" transform="translate(-91.549 -160.641)"/>
                            </g>
                        </g>
                        <g id="Group_967" data-name="Group 967" transform="translate(3.659)">
                            <path id="Path_1391" d="M165.08 85.495l3.022 5.08a19.576 19.576 0 0 1 2.087-.624l-2.317-5.27a15.409 15.409 0 0 0-2.792.814z" class="cls-2" data-name="Path 1391" transform="translate(-157.888 -84.489)"/>
                            <path id="Path_1392" d="M142.99 94.729l3.619 4.386c.524-.31 1.629-.89 2.2-1.136l-3.48-4.829a14.82 14.82 0 0 0-2.339 1.579z" class="cls-2" data-name="Path 1392" transform="translate(-139.058 -91.709)"/>
                            <path id="Path_1393" d="M190.65 83.444l1.824 5.3c.512-.1 1.2-.162 1.728-.214-.272-1.1-.992-3.346-1.433-5.116a13.321 13.321 0 0 0-2.119.03z" class="cls-2" data-name="Path 1393" transform="translate(-179.684 -83.384)"/>
                            <path id="Path_1394" d="M211.21 84.12l.961 4.976c.052 0 .1-.009.153-.01a11.871 11.871 0 0 1 1.3 0c.056-1.114.394-2.808.468-4.346a24.723 24.723 0 0 0-2.882-.62z" class="cls-2" data-name="Path 1394" transform="translate(-197.21 -84.011)"/>
                            <path id="Path_1395" d="M126.07 111.865l4.41 2.625a13.8 13.8 0 0 1 1.389-1.055l-4.209-3.725a13.349 13.349 0 0 0-1.59 2.155z" class="cls-2" data-name="Path 1395" transform="translate(-124.635 -105.825)"/>
                            <path id="Path_1396" d="M116.377 154.8a10.985 10.985 0 0 0 1.761 6.849 10.382 10.382 0 0 1 .03-1.068 11.626 11.626 0 0 1 1.722-5.066l-3.508-.763c0 .014-.003.03-.005.048z" class="cls-2" data-name="Path 1396" transform="translate(-116.344 -144.218)"/>
                            <path id="Path_1397" d="M117.54 132.062l3.67 1.362a15.638 15.638 0 0 1 1.607-1.839l-4.407-2.236a12.361 12.361 0 0 0-.87 2.713z" class="cls-2" data-name="Path 1397" transform="translate(-117.363 -122.567)"/>
                            <path id="Path_1398" d="M264.86 123.16a17.971 17.971 0 0 1 2.262 2.819 12.123 12.123 0 0 0-1.135-4.609z" class="cls-2" data-name="Path 1398" transform="translate(-242.943 -115.764)"/>
                            <path id="Path_1399" d="M249.8 102.6l-1.274 2.953a9.854 9.854 0 0 1 2.011 1.257l1.116-2.127a10.888 10.888 0 0 0-1.853-2.083z" class="cls-2" data-name="Path 1399" transform="translate(-229.023 -99.764)"/>
                            <path id="Path_1400" d="M231.515 90.54l-.915 4.054a10.8 10.8 0 0 1 2.16.483l.992-3.344a11.577 11.577 0 0 0-2.237-1.193z" class="cls-2" data-name="Path 1400" transform="translate(-213.739 -89.484)"/>
                            <path id="Path_1401" d="M205.193 83.59c-.062 0-.122-.006-.183-.01.441 1.771 1.161 4.018 1.433 5.116.2-.019.239-.049.444-.061l-.961-4.976c-.357-.049-.364-.041-.733-.069z" class="cls-3" data-name="Path 1401" transform="translate(-191.925 -83.551)"/>
                            <path id="Path_1402" d="M228.038 88.34c-.075 1.538-.413 3.232-.468 4.346.227.013.232.007.447.032l.915-4.054a8.651 8.651 0 0 0-.894-.324z" class="cls-3" data-name="Path 1402" transform="translate(-211.156 -87.609)"/>
                            <path id="Path_1403" d="M246.232 98.63l-.992 3.344a4.162 4.162 0 0 1 .486.195L247 99.216a6.708 6.708 0 0 0-.768-.586z" class="cls-3" data-name="Path 1403" transform="translate(-226.218 -96.38)"/>
                            <path id="Path_1404" d="M263.276 116.72l-1.116 2.127a4.233 4.233 0 0 1 .4.348l1.127-1.789a3.927 3.927 0 0 0-.411-.686z" class="cls-3" data-name="Path 1404" transform="translate(-240.641 -111.8)"/>
                            <path id="Path_1405" d="M184.01 83.93l2.317 5.27c.233-.056.249-.056.487-.1l-1.824-5.3a7.6 7.6 0 0 0-.98.13z" class="cls-3" data-name="Path 1405" transform="translate(-174.024 -83.739)"/>
                            <path id="Path_1406" d="M158.83 90.635l3.48 4.829c.229-.1.23-.1.465-.184l-3.022-5.08a7.646 7.646 0 0 0-.923.435z" class="cls-3" data-name="Path 1406" transform="translate(-152.56 -89.194)"/>
                            <path id="Path_1407" d="M136.85 104.715l4.209 3.725c.211-.14.205-.146.425-.274l-3.726-4.315a11.188 11.188 0 0 0-.908.864z" class="cls-3" data-name="Path 1407" transform="translate(-133.824 -100.83)"/>
                            <path id="Path_1408" d="M123.44 125.061l4.407 2.236a5.216 5.216 0 0 1 .391-.351l-4.41-2.625a5.046 5.046 0 0 0-.388.74z" class="cls-3" data-name="Path 1408" transform="translate(-122.393 -118.279)"/>
                            <path id="Path_1409" d="M116.61 148.757l3.508.763c.127-.2.159-.242.3-.438l-3.67-1.362q-.094.511-.138 1.037z" class="cls-3" data-name="Path 1409" transform="translate(-116.571 -138.226)"/>
                        </g>
                    </g>
                </g>
                <g id="Group_969" data-name="Group 969" transform="translate(33.169 36.596)">
                    <path id="Path_1410" d="M194.4 223.906l-10.414-.326s1.722 3.738 5.091 3.781a5.742 5.742 0 0 0 5.323-3.455z" class="cls-4" data-name="Path 1410" transform="translate(-182.356 -217.875)"/>
                    <path id="Path_1411" d="M248.919 187.662a1.362 1.362 0 1 0 .95-1.737 1.4 1.4 0 0 0-.95 1.737z" data-name="Path 1411" transform="translate(-237.661 -185.741)"/>
                    <path id="Path_1412" d="M172.969 186.7a1.362 1.362 0 1 0 .949-1.737 1.4 1.4 0 0 0-.949 1.737z" data-name="Path 1412" transform="translate(-172.919 -184.923)"/>
                </g>
            </g>
            <g id="Character_3_" transform="translate(8.724 48.789)">
                <g id="Group_973" data-name="Group 973" transform="translate(0 45.329)">
                    <path id="Path_1413" d="M234.558 632.2c-.128-4.373-.728-16.487-1.938-19.989-1.8-5.224-9.058-18.351-9.13-18.482l4.519-2.5c.307.555 7.544 13.654 9.493 19.3 1.685 4.876 2.168 19.834 2.218 21.524z" class="cls-5" data-name="Path 1413" transform="translate(-191.582 -588.792)"/>
                    <path id="Path_1414" d="M151.23 579.285c0 2.526-.573 4.575-3.1 4.575h-11.805a4.575 4.575 0 0 1-4.575-4.575 4.575 4.575 0 0 1 4.575-4.575h10.33a4.575 4.575 0 0 1 4.575 4.575z" class="cls-5" data-name="Path 1414" transform="translate(-113.38 -574.71)"/>
                    <path id="Path_1415" d="M77.692 628.249l-2.8-4.339c2.106-1.362 8.305-6.226 10.3-9.6 1.808-3.058 1.693-14.939 1.244-22.818l5.156-.294c.012.205.286 5.1.189 10.711-.2 11.84-1.591 14.1-2.144 15.031a32.624 32.624 0 0 1-7.351 7.969 63.12 63.12 0 0 1-4.594 3.34z" class="cls-5" data-name="Path 1415" transform="translate(-64.911 -588.767)"/>
                    <g id="Group_971" data-name="Group 971" transform="translate(0 34.296)">
                        <path id="Rectangle_1439" d="M0 0h1.623v11.511H0z" class="cls-4" data-name="Rectangle 1439" transform="rotate(-28.954 11.093 2.864)"/>
                        <path id="Rectangle_1440" d="M0 0h4.575v3.542H0z" class="cls-3" data-name="Rectangle 1440" transform="rotate(-28.954 11.15 -8.726)"/>
                        <path id="Path_1416" d="M23.46 838.538l1.477-.818a1.628 1.628 0 0 0-2.18-.59l-1.319-2.38-4.588.847 5.581 10.088.849-.469z" class="cls-2" data-name="Path 1416" transform="translate(-15.437 -830.67)"/>
                        <path id="Rectangle_1441" d="M0 0h2.214v5.903H0z" class="cls-6" data-name="Rectangle 1441" transform="rotate(-28.954 6.437 -16.355)"/>
                    </g>
                    <g id="Group_972" data-name="Group 972" transform="translate(42.513 41.962)">
                        <path id="Rectangle_1442" d="M0 0h11.511v1.623H0z" class="cls-4" data-name="Rectangle 1442" transform="rotate(-5.158 122.409 -3.418)"/>
                        <path id="Rectangle_1443" d="M0 0h3.542v4.575H0z" class="cls-3" data-name="Rectangle 1443" transform="rotate(-5.164 26.486 -15.493)"/>
                        <path id="Path_1417" d="M306.017 890.841l-.152-1.681a1.627 1.627 0 0 0-1.42 1.756l-2.709.246-1.076 4.538 11.483-1.036-.087-.967z" class="cls-2" data-name="Path 1417" transform="translate(-299.877 -884.718)"/>
                        <path id="Rectangle_1444" d="M0 0h5.903v2.214H0z" class="cls-6" data-name="Rectangle 1444" transform="rotate(-5.158 5.894 .266)"/>
                    </g>
                </g>
                <g id="Body_4_" transform="translate(10.672)">
                    <path id="Path_1418" d="M113.087 310.334l3.711-2.218c-.527-6.5-4.752-14.3-15-14.3s-16.689 7.664-17.215 14.16l5.928 2.351-.81 29.516h22.8z" class="cls-7" data-name="Path 1418" transform="translate(-83.844 -289.943)"/>
                    <path id="Path_1419" d="M91.85 426.151c-10.414-7.11-12.411-16.457-12.25-23.047a33.655 33.655 0 0 1 1.9-10.184l4.123 1.635a29.239 29.239 0 0 0-1.6 8.81c-.145 7.919 3.329 14.355 10.324 19.13z" class="cls-3" data-name="Path 1419" transform="translate(-79.591 -374.419)"/>
                    <path id="Path_1420" d="M181.392 271.877a15.156 15.156 0 0 0-1.623-.282l-.369-3.895-4.137-.151-.158 4a12.66 12.66 0 0 0-1.985.322 4.757 4.757 0 0 0 4.765 5c2.281-.114 3.607-2.267 3.5-4.811.001-.043.01-.14.007-.183z" class="cls-3" data-name="Path 1420" transform="translate(-159.308 -267.55)"/>
                </g>
            </g>
            <path id="Path_1421" d="M139.08 587.246l5.022-3.2 13.376 3.2-14.462 3z" class="cls-5" data-name="Path 1421" transform="translate(-110.905 -488.554)"/>
            <g id="Girl_1_" transform="translate(48.579 50.463)">
                <g id="Character_1_">
                    <g id="Body_1_">
                        <g id="Body_3_">
                            <g id="Group_980" data-name="Group 980" transform="translate(1.418)">
                                <g id="Group_974" data-name="Group 974" transform="translate(6.931 2.035)">
                                    <path id="Path_1422" d="M334.03 292.68a.1.1 0 0 1 .03 0 .1.1 0 0 1 .05.133.123.123 0 0 1-.109.077.093.093 0 0 1-.028 0 .1.1 0 0 1-.049-.134.117.117 0 0 1 .106-.076z" class="cls-8" data-name="Path 1422" transform="translate(-333.914 -292.68)"/>
                                </g>
                                <g id="Group_975" data-name="Group 975" transform="translate(6.896 2.004)">
                                    <path id="Path_1423" d="M333.871 292.471a.125.125 0 0 1 .063.174.162.162 0 0 1-.142.1.147.147 0 0 1-.037-.006.122.122 0 0 1-.063-.173.162.162 0 0 1 .142-.1.077.077 0 0 1 .037.005zm.037.165a.1.1 0 0 0-.05-.133.094.094 0 0 0-.03 0 .12.12 0 0 0-.108.077.1.1 0 0 0 .049.134.093.093 0 0 0 .028 0 .132.132 0 0 0 .111-.078z" class="cls-9" data-name="Path 1423" transform="translate(-333.679 -292.466)"/>
                                </g>
                                <g id="Group_976" data-name="Group 976" transform="translate(5.858 1.56)">
                                    <path id="Path_1424" d="M327.025 289.473a.249.249 0 0 1 .127.348.321.321 0 0 1-.283.2.239.239 0 0 1-.072-.012.25.25 0 0 1-.127-.35.32.32 0 0 1 .283-.2.314.314 0 0 1 .072.014zm-.024.3a.094.094 0 0 0-.047-.133.086.086 0 0 0-.028 0 .12.12 0 0 0-.108.077.089.089 0 0 0 .077.136.123.123 0 0 0 .106-.075z" class="cls-10" data-name="Path 1424" transform="translate(-326.643 -289.46)"/>
                                </g>
                                <g id="Group_977" data-name="Group 977" transform="translate(6.024 1.735)">
                                    <path id="Path_1425" d="M327.887 290.65a.086.086 0 0 1 .028 0 .094.094 0 0 1 .047.133.12.12 0 0 1-.106.075.089.089 0 0 1-.077-.136.12.12 0 0 1 .108-.072z" class="cls-11" data-name="Path 1425" transform="translate(-327.77 -290.65)"/>
                                </g>
                                <g id="Group_978" data-name="Group 978" transform="translate(5.716 1.416)">
                                    <path id="Path_1426" d="M326.268 288.506a.379.379 0 0 1 .195.53.492.492 0 0 1-.432.3.354.354 0 0 1-.111-.018.379.379 0 0 1-.195-.53.492.492 0 0 1 .432-.3.281.281 0 0 1 .111.018zm.068.487a.236.236 0 0 0-.2-.36.317.317 0 0 0-.283.2.25.25 0 0 0 .127.35.247.247 0 0 0 .072.012.32.32 0 0 0 .285-.2z" class="cls-12" data-name="Path 1426" transform="translate(-325.686 -288.489)"/>
                                </g>
                                <g id="Group_979" data-name="Group 979" transform="translate(5.338 1.144)">
                                    <path id="Path_1427" d="M325.058 287.025a.558.558 0 0 1 .285.779.716.716 0 0 1-.633.444.513.513 0 0 1-.162-.027l-1.082-.359a.557.557 0 0 1-.285-.778.715.715 0 0 1 .633-.446.521.521 0 0 1 .164.027zm-.779.434a.379.379 0 0 0-.195-.53.347.347 0 0 0-.111-.018.491.491 0 0 0-.432.3.379.379 0 0 0 .195.53.348.348 0 0 0 .111.018.487.487 0 0 0 .432-.3zm.658.22a.126.126 0 0 0-.063-.174.1.1 0 0 0-.037-.006.16.16 0 0 0-.142.1.122.122 0 0 0 .063.173.1.1 0 0 0 .037.006.156.156 0 0 0 .142-.1zm-.418-.139a.044.044 0 0 0-.022-.062h-.013a.055.055 0 0 0-.05.035.043.043 0 0 0 .022.061h.013a.06.06 0 0 0 .05-.035z" class="cls-8" data-name="Path 1427" transform="translate(-323.123 -286.64)"/>
                                </g>
                                <path id="Path_1428" d="M297.514 280.623l-.03-.018a.322.322 0 0 0-.044-.024l-.012-.006-.032-.012-5.025-1.651a.428.428 0 0 0-.136-.022.5.5 0 0 0-.152.024.608.608 0 0 0-.093.037.53.53 0 0 0-.074.043.649.649 0 0 0-.066.05q-.031.027-.062.058a.677.677 0 0 0-.059.071.783.783 0 0 0-.061.094.882.882 0 0 0-.034.069l-4.625 10.9a.566.566 0 0 0 .122.682l.493.37a.571.571 0 0 1-.122-.683l4.625-10.9c.01-.024.021-.047.032-.069a.813.813 0 0 1 .12-.165.733.733 0 0 1 .061-.058.784.784 0 0 1 .066-.05.532.532 0 0 1 .074-.043.606.606 0 0 1 .093-.037.543.543 0 0 1 .152-.024.429.429 0 0 1 .136.022l5.025 1.651a.381.381 0 0 1 .044.018.849.849 0 0 1 .075.044z" class="cls-13" data-name="Path 1428" transform="translate(-286.951 -278.89)"/>
                                <path id="Path_1429" d="M300.732 283.045a.527.527 0 0 1 .241.744l-4.625 10.9a.691.691 0 0 1-.6.444.429.429 0 0 1-.136-.022l-5.028-1.651a.527.527 0 0 1-.239-.744l4.625-10.9a.7.7 0 0 1 .6-.446.429.429 0 0 1 .136.022zm-3.381.266a.556.556 0 0 0-.285-.779l-1.08-.359a.521.521 0 0 0-.164-.027.713.713 0 0 0-.633.446.555.555 0 0 0 .285.778l1.082.359a.513.513 0 0 0 .162.027.71.71 0 0 0 .633-.444z" class="cls-14" data-name="Path 1429" transform="translate(-289.794 -281.004)"/>
                            </g>
                            <path id="Path_1430" d="M283.969 339.166h-.118a4.422 4.422 0 0 1-3.2-1.529 11.75 11.75 0 0 1-1.93-2.864 29.186 29.186 0 0 1-1.378-3.281l.059-3.117 2.876-1.721c1.762 6.139 3.14 7.65 3.551 7.982a4.813 4.813 0 0 0 1-1.462 18.086 18.086 0 0 0 1.358-4.156 19.86 19.86 0 0 0-.052-9.389 3.11 3.11 0 0 0-1.262-.183 13.15 13.15 0 0 0-2.082.223c-.189.032-.339.058-.472.072l-.488-4.435c.038 0 .167-.027.27-.044a14.8 14.8 0 0 1 3.558-.251 6.168 6.168 0 0 1 2.413.645 4.2 4.2 0 0 1 2.065 2.416 22.458 22.458 0 0 1 .573 9.9 21.435 21.435 0 0 1-2.887 8.645 5.113 5.113 0 0 1-3.854 2.549z" class="cls-3" data-name="Path 1430" transform="translate(-277.34 -309.659)"/>
                        </g>
                    </g>
                </g>
            </g>
        </g>
    </g>
</svg>
