<svg width="36" height="52" viewBox="0 0 36 52" fill="none" xmlns="http://www.w3.org/2000/svg">
<g clip-path="url(#clip0_9379_511129)">
<path d="M19.2236 27.2366H17.7627V41.2564H19.2236V27.2366Z" fill="white"/>
<path d="M21.7109 27.2366H20.25V41.2564H21.7109V27.2366Z" fill="white"/>
<path d="M24.0566 27.2366H22.5957V41.2564H24.0566V27.2366Z" fill="white"/>
<path d="M24.8945 41.4548H26.2073V27.7378L24.8945 27.4399V41.4548Z" fill="white"/>
<path d="M27.0078 41.9812H28.0196V28.2642L27.0078 27.9663V41.9812Z" fill="white"/>
<path d="M28.5605 42.4278H29.4094V28.9044L28.5605 28.408V42.4278Z" fill="white"/>
<path d="M29.8887 43.0088H30.5944V29.4903L29.8887 28.9939V43.0088Z" fill="white"/>
<path d="M30.9668 43.8032H31.5245V30.2848L30.9668 29.7883V43.8032Z" fill="white"/>
<path d="M16.7519 27.2366H15.291V41.6585H16.7519V27.2366Z" fill="white"/>
<path d="M12.8877 42.0109H14.3486V27.3755L12.9469 27.5691L12.8877 42.0109Z" fill="white"/>
<path d="M10.751 42.2891H12.2118V27.6587L10.8102 27.8473L10.751 42.2891Z" fill="white"/>
<path d="M9.09082 42.7358H10.0532V28.1003L9.1303 28.294L9.09082 42.7358Z" fill="white"/>
<path d="M7.64941 43.2966H8.37985V28.6611L7.67903 28.954L7.64941 43.2966Z" fill="white"/>
<path d="M6.5459 43.9076L7.15295 43.8182V29.1877L6.59525 29.5353L6.5459 43.9076Z" fill="white"/>
<path d="M5.58301 43.7933L6.07161 43.7138V29.8777L5.61756 30.3493L5.58301 43.7933Z" fill="white"/>
<path d="M5.58227 30.0761C5.58227 30.0761 4.98016 29.525 5.36018 28.9938C5.36018 28.9938 7.93643 25.7619 19.9935 26.0945C19.9935 26.0945 28.8771 26.1243 31.5225 28.9938V29.7881L31.8384 29.6193V28.6612C31.8384 28.6612 30.1949 26.3576 21.558 25.3101C21.558 25.3101 17.2741 25.1364 13.0939 25.6626C13.0939 25.6626 26.0887 23.6023 31.2461 27.6832C31.2461 27.6832 29.2127 24.7541 20.2501 24.5059C20.2501 24.5059 10.868 24.0839 6.5496 26.9583C6.5496 26.9583 5.87839 27.3803 5.82904 27.6583C5.77968 27.9364 5.78462 27.9364 5.78462 27.9364L5.58227 30.0761Z" fill="white"/>
<path d="M7.93287 24.5556C7.93287 24.5556 7.43933 24.0343 7.75026 23.5378C7.75026 23.5378 9.85766 20.4995 19.7185 20.8123C19.7185 20.8123 26.9833 20.8371 29.15 23.5378V24.2825L29.4115 24.1286V23.23C29.4115 23.23 28.0938 21.1052 21.1991 20.1073C21.0658 20.0875 20.9277 20.0776 20.7944 20.0726C19.9899 20.0478 17.0041 19.9882 14.0823 20.4102C14.0823 20.4102 24.7131 18.474 28.9279 22.3066C28.9279 22.3066 27.2647 19.5513 19.9307 19.3229C19.9307 19.3229 12.2562 18.9258 8.72253 21.6315C8.72253 21.6315 8.16977 22.0286 8.13522 22.2917C8.10067 22.5549 8.09574 22.5549 8.09574 22.5549L7.93287 24.5556Z" fill="white"/>
<path d="M8.87448 21.83C8.87448 21.83 8.42537 21.4378 8.71162 21.0605C8.71162 21.0605 10.6265 18.7619 19.5842 19.0002C19.5842 19.0002 26.1877 19.0201 28.152 21.0605V21.6265L28.3839 21.5073V20.8272C28.3839 20.8272 27.1945 19.2336 20.976 18.474C20.818 18.4541 20.6601 18.4442 20.5022 18.4392C19.6977 18.4194 17.0524 18.3846 14.4564 18.6974C14.4564 18.6974 24.1149 17.2329 27.9447 20.1321C27.9447 20.1321 26.4345 18.052 19.7717 17.8782C19.7717 17.8782 12.7981 17.5804 9.59011 19.6208C9.59011 19.6208 9.09164 19.9187 9.05709 20.1173C9.02255 20.3158 9.02255 20.3158 9.02255 20.3158L8.87448 21.83Z" fill="white"/>
<path d="M19.7715 24.1883H20.5167V21.7904C20.5167 21.6216 20.3835 21.4875 20.2157 21.4875H20.0775C19.9097 21.4875 19.7764 21.6216 19.7764 21.7904V24.1883H19.7715Z" fill="white"/>
<path d="M21.7314 24.2775H22.4767V21.8548C22.4767 21.686 22.3434 21.552 22.1756 21.552H22.0374C21.8696 21.552 21.7364 21.686 21.7364 21.8548V24.2775H21.7314Z" fill="white"/>
<path d="M23.5166 24.4811L24.1878 24.5555V22.0931C24.1878 21.9243 24.0546 21.7903 23.8868 21.7903H23.8177C23.6499 21.7903 23.5166 21.9243 23.5166 22.0931V24.4811Z" fill="white"/>
<path d="M17.9463 24.2232H18.6175V21.8353C18.6175 21.6665 18.4842 21.5325 18.3164 21.5325H18.2473C18.0795 21.5325 17.9463 21.6665 17.9463 21.8353V24.2232Z" fill="white"/>
<path d="M15.9229 24.3521L16.5447 24.2726V21.8003C16.5447 21.6266 16.4213 21.4875 16.2683 21.4875H16.2042C16.0512 21.4875 15.9278 21.6266 15.9278 21.8003V24.3521H15.9229Z" fill="white"/>
<path d="M13.9492 24.4811L14.5711 24.4066V22.0584C14.5711 21.8945 14.4477 21.7605 14.2947 21.7605H14.2305C14.0775 21.7605 13.9542 21.8945 13.9542 22.0584V24.4811H13.9492Z" fill="white"/>
<path d="M12.1621 24.7591L12.784 24.6846V22.3413C12.784 22.1775 12.6606 22.0435 12.5076 22.0435H12.4385C12.2855 22.0435 12.1621 22.1775 12.1621 22.3413V24.7591Z" fill="white"/>
<path d="M10.8487 25.0174L11.3422 24.933L11.2633 22.8181C11.2583 22.6692 11.1547 22.555 11.0313 22.56H10.9819C10.8586 22.5649 10.7648 22.689 10.7697 22.838L10.8487 25.0174Z" fill="white"/>
<path d="M9.68267 25.3452L10.1762 25.2608L10.0972 23.1807C10.0923 23.0367 9.98866 22.9175 9.86528 22.9225H9.81592C9.69254 22.9275 9.59877 23.0516 9.6037 23.1956L9.68267 25.3452Z" fill="white"/>
<path d="M25.1318 24.7889L25.7339 24.8634V22.401C25.7339 22.2322 25.6007 22.0981 25.4329 22.0981C25.2651 22.0981 25.1318 22.2322 25.1318 22.401V24.7889Z" fill="white"/>
<path d="M26.4639 24.9923L26.9278 25.1561V22.8675C26.9278 22.7185 26.8241 22.5994 26.6958 22.5994C26.5675 22.5994 26.4639 22.7185 26.4639 22.8675V24.9923Z" fill="white"/>
<path d="M27.6348 25.3699L28.0987 25.5287V23.3443C28.0987 23.2004 27.995 23.0862 27.8667 23.0862C27.7384 23.0862 27.6348 23.2004 27.6348 23.3443V25.3699Z" fill="white"/>
<path d="M28.3896 25.658L28.7549 25.807V23.7219C28.7549 23.5878 28.671 23.4736 28.5723 23.4736C28.4735 23.4736 28.3896 23.5829 28.3896 23.7219V25.658Z" fill="white"/>
<path d="M8.71687 25.6874L9.07222 25.5633L8.98338 23.4782C8.98338 23.3442 8.89948 23.23 8.80077 23.23C8.70207 23.23 8.61816 23.3392 8.61816 23.4782L8.71687 25.6874Z" fill="white"/>
<path d="M27.1454 19.596C26.6568 12.7747 17.6991 10.2428 12.8921 14.4279C11.2782 15.7584 10.2369 17.7293 10.0789 19.8442H10.0296C10.0098 17.6747 11.0315 15.5648 12.6404 14.1399C15.8582 11.2109 21.1785 11.1712 24.5 13.9513C26.1139 15.2768 27.3477 17.5555 27.1454 19.596Z" fill="white"/>
<path d="M15.2998 12.8988C13.0838 13.9066 12.3731 16.4137 11.6871 18.5484C11.5933 18.8711 11.4946 19.1888 11.3663 19.5115L11.3169 19.5066C11.2182 17.4314 12.1214 15.386 13.5625 13.9264C14.061 13.4598 14.6335 13.0527 15.2849 12.8541C15.2849 12.8491 15.2998 12.8988 15.2998 12.8988Z" fill="white"/>
<path d="M15.7683 12.6307C13.73 13.7378 13.5326 16.3144 13.0983 18.3598C13.044 18.6725 12.9848 18.9853 12.891 19.2981H12.8416C12.5208 17.3669 13.0785 15.3264 14.2285 13.7576C14.6332 13.2513 15.1316 12.7945 15.7486 12.5811C15.7535 12.5811 15.7683 12.6307 15.7683 12.6307Z" fill="white"/>
<path d="M16.4551 12.2338C14.7376 13.6785 14.7326 16.1409 14.318 18.1863C14.2638 18.4941 14.2095 18.8019 14.1256 19.1146H14.0762C13.7455 17.2132 14.2341 15.2522 15.1521 13.5842C15.4828 13.043 15.8776 12.5168 16.4353 12.1941C16.4353 12.1941 16.4551 12.2338 16.4551 12.2338Z" fill="white"/>
<path d="M17.2488 12.189C16.7898 12.467 16.5726 13.0081 16.4394 13.5095C16.0297 15.1081 16.5085 16.7265 16.3505 18.3549L16.3012 18.3648C15.6448 16.806 15.6991 15.0237 16.2074 13.4351C16.4147 12.9237 16.7059 12.3776 17.2389 12.1443L17.2488 12.189Z" fill="white"/>
<path d="M17.971 12.6058C18.0154 13.5441 18.0401 14.4824 18.0549 15.4207C18.1141 15.9221 18.0648 17.9923 17.744 18.2207C17.5021 17.2824 17.5466 16.349 17.6601 15.4058C17.7341 14.4725 17.818 13.5391 17.9217 12.6008L17.971 12.6058Z" fill="white"/>
<path d="M19.2915 13.2168C19.3852 14.0409 19.4593 14.865 19.5284 15.6891C19.632 16.5232 19.6666 17.3473 19.4198 18.1664H19.3704C19.0842 17.3572 19.0743 16.5331 19.1335 15.6941C19.1582 14.87 19.1928 14.0409 19.2421 13.2168C19.2421 13.2168 19.2915 13.2168 19.2915 13.2168Z" fill="white"/>
<path d="M26.0527 17.2427C26.2008 17.8136 26.5858 18.6129 26.2896 19.1491C26.1366 18.871 26.0626 17.8136 26.0527 17.2427Z" fill="white"/>
<path d="M24.7268 16.3394C24.8551 16.95 25.0032 17.5706 25.0328 18.1961C25.0131 18.355 25.018 18.7372 24.8996 18.8266C24.8403 18.6181 24.8157 18.4145 24.7861 18.211C24.7614 17.794 24.7318 16.7762 24.7021 16.3493C24.7021 16.3443 24.7268 16.3394 24.7268 16.3394Z" fill="white"/>
<path d="M23.5324 15.6294C23.6262 16.528 24.0062 17.6996 23.5966 18.5187C23.4929 17.5705 23.5127 16.5379 23.5324 15.6294Z" fill="white"/>
<path d="M22.3203 14.9446C22.5325 16.002 22.799 17.2878 22.3499 18.2807C22.2858 17.1786 22.419 16.012 22.3203 14.9446Z" fill="white"/>
<path d="M20.7835 14.1895C20.8378 15.4902 21.2376 17.1285 20.7391 18.3151C20.7342 17.625 20.6996 16.9448 20.7441 16.2548L20.7539 14.1846L20.7835 14.1895Z" fill="white"/>
<path d="M21.8695 15.2522H21.2822V16.3295H21.8695V15.2522Z" fill="white"/>
<path d="M20.3871 15.0732H19.7998V16.1505H20.3871V15.0732Z" fill="white"/>
<path d="M18.8725 15.0483H18.2852V16.1256H18.8725V15.0483Z" fill="white"/>
<path d="M17.3201 15.158V15.4211H16.871V16.1807H16.6045V15.158H17.3201Z" fill="white"/>
<path d="M15.5718 15.6096V15.8727H15.1967V16.6323H14.9746V15.6096H15.5718Z" fill="white"/>
<path d="M22.6143 15.4258V15.6839H22.9893V16.4435H23.2114V15.4258H22.6143Z" fill="white"/>
<path d="M23.9521 15.8179V16.076H24.3272V16.8406H24.5493V15.8179H23.9521Z" fill="white"/>
<path d="M13.5625 16.6124L13.8488 16.6074L14.0363 15.7039H13.7994L13.5625 16.6124Z" fill="white"/>
<path d="M15.4629 12.2138V11.8464C15.4629 11.8464 18.9473 9.99963 21.716 11.8464L21.7851 12.2138C21.7851 12.2138 21.6814 12.0748 21.4692 11.906C21.025 11.5436 19.8751 11.2358 18.1181 11.3103C18.1181 11.3103 17.1755 11.345 15.6899 12.0103L15.4629 12.2138Z" fill="white"/>
<path d="M15.7158 11.6825V11.3052C15.7158 11.3052 18.756 9.45342 21.4606 11.3052L21.5247 11.6825C21.5247 11.6825 21.426 11.5385 21.2385 11.3648C20.8288 10.9875 19.7727 10.6747 18.1588 10.7492C18.1588 10.7492 17.2951 10.7839 15.928 11.469L15.7158 11.6825Z" fill="white"/>
<path d="M19.268 7.45264C19.3964 7.45264 19.4951 7.55689 19.4951 7.681V10.342H19.041V7.681C19.041 7.55689 19.1447 7.45264 19.268 7.45264Z" fill="white"/>
<path d="M18.4936 7.45264C18.6219 7.45264 18.7207 7.55689 18.7207 7.681V10.2725H18.2666V7.681C18.2666 7.55689 18.3702 7.45264 18.4936 7.45264Z" fill="white"/>
<path d="M17.6382 7.52222C17.7665 7.52222 17.8652 7.62647 17.8652 7.75059V10.3421H17.4111V7.75059C17.4111 7.62647 17.5148 7.52222 17.6382 7.52222Z" fill="white"/>
<path d="M17.1278 7.91943H16.8662V10.5755H17.1278V7.91943Z" fill="white"/>
<path d="M20.0477 7.76587H19.7861V10.4616H20.0477V7.76587Z" fill="white"/>
<path d="M16.6821 8.01397C16.6821 8.01397 16.1935 7.74589 16.5785 7.02603C16.9782 6.26646 19.9148 5.72036 20.5514 7.32887C20.6205 7.50759 20.6748 7.87993 20.2306 8.01894C20.2306 8.01894 20.2899 7.09057 18.4983 7.00121C18.4934 6.99624 17.0424 6.93667 16.6821 8.01397Z" fill="white"/>
<path d="M20.0629 6.31582L19.594 6.2215C18.9228 6.08249 18.227 6.07752 17.5557 6.21157L16.998 6.32079C17.2843 5.73001 17.8667 5.32788 18.5329 5.32788C19.1992 5.32788 19.7767 5.72504 20.0629 6.31582Z" fill="white"/>
<path d="M19.1359 4.71244C19.1359 4.84152 19.0964 4.95571 19.0273 5.055C19.0175 4.72734 18.8003 4.63798 18.8003 4.63798C18.9336 4.91102 18.8842 5.1245 18.8398 5.22875C18.751 5.28833 18.6424 5.31812 18.5289 5.31812C18.1982 5.31812 17.9268 5.04507 17.9268 4.71244C17.9268 4.37486 18.1982 4.10181 18.5289 4.10181C18.8645 4.10181 19.1359 4.37486 19.1359 4.71244Z" fill="white"/>
<path d="M18.8095 3.10376H18.2666V4.37468H18.8095V3.10376Z" fill="white"/>
<path d="M18.0195 3.17343H19.1349L18.9474 1.81812H18.2663L18.0195 3.17343Z" fill="white"/>
<path d="M18.8878 1.45557H18.4189V1.9272H18.8878V1.45557Z" fill="white"/>
<path d="M18.6559 1.54505H18.2266L18.4388 1.16775L18.6559 0.79541L18.8682 1.16775L19.0853 1.54505H18.6559Z" fill="white"/>
<path d="M5.57265 33.6259C5.57265 33.6259 0.87913 37.5379 13.5284 39.0471C13.5284 39.0471 17.3533 41.0677 34.9479 41.5145V48.8719C34.9479 48.8719 -3.11851 46.2109 0.207921 36.8181C0.800164 35.145 1.67372 34.44 2.87301 33.8393C3.63306 33.462 4.45726 33.3627 5.57265 33.6259Z" fill="white"/>
<path d="M5.08359 34.3359C4.50616 35.1004 3.82508 37.7416 13.5329 39.0472L11.8401 44.0316C11.8401 44.0316 6.90474 43.0536 3.62766 41.0231C-0.863509 38.238 1.92003 33.3976 5.57219 33.626C5.60181 33.626 5.54258 33.6359 5.57219 33.626L5.5179 33.7203C5.35997 33.9586 5.25633 34.1075 5.08359 34.3359Z" fill="#002868"/>
<path d="M13.8787 39.196L13.5332 40.5116C13.5332 40.5116 19.9985 42.3336 34.9526 42.8251V41.5145C34.9526 41.5145 18.1724 40.6755 13.8787 39.196Z" fill="#BE0A30"/>
<path d="M13.3196 41.0232L12.9248 42.3338C12.9248 42.3338 19.4592 44.1409 34.9464 44.6324V43.3218C34.9513 43.3218 17.7713 42.4977 13.3196 41.0232Z" fill="#BE0A30"/>
<path d="M12.8119 42.8101L12.4121 44.1207C12.4121 44.1207 19.2328 45.9476 34.9519 46.4391V45.1285C34.9519 45.1235 17.3277 44.2845 12.8119 42.8101Z" fill="#BE0A30"/>
<path d="M1.12493 35.145C1.12493 35.145 -2.73452 41.3259 11.7261 44.4982C11.7261 44.4982 20.1014 46.6875 34.9469 47.3975V48.8719C34.9469 48.8719 13.6854 47.2287 7.26944 44.4436C0.665938 41.5691 -1.58952 38.5358 1.12493 35.145Z" fill="#BE0A30"/>
<path d="M11.292 42.6659L11.4944 42.651L11.3759 42.8247L11.445 43.0233L11.2476 42.9637L11.0847 43.0978L11.0897 42.8843L10.9219 42.7701L11.1144 42.7006L11.1736 42.4971L11.292 42.6659Z" fill="white"/>
<path d="M11.9279 41.6782L12.1352 41.6882L11.997 41.847L12.0414 42.0506L11.8538 41.9711L11.6762 42.0804L11.7008 41.8719L11.5479 41.7428L11.7502 41.6931L11.8292 41.4995L11.9279 41.6782Z" fill="white"/>
<path d="M11.6787 40.3922L11.886 40.3823L11.7626 40.556L11.8317 40.7496L11.6393 40.6901L11.4764 40.8241V40.6156L11.3086 40.4964L11.5011 40.4269L11.5603 40.2234L11.6787 40.3922Z" fill="white"/>
<path d="M12.4991 39.5672L12.7063 39.5572L12.583 39.731L12.6521 39.9296L12.4596 39.87L12.2967 39.9991V39.7906L12.1289 39.6764L12.3214 39.6069L12.3806 39.4033L12.4991 39.5672Z" fill="white"/>
<path d="M9.78421 42.3043L9.9915 42.2944L9.86812 42.4632L9.93721 42.6617L9.74473 42.6022L9.58186 42.7362V42.5227L9.41406 42.4085L9.60654 42.339L9.66577 42.1355L9.78421 42.3043Z" fill="white"/>
<path d="M10.4309 41.3154L10.6332 41.3254L10.495 41.4842L10.5394 41.6878L10.3519 41.6083L10.1792 41.7225L10.2038 41.5091L10.0459 41.38L10.2482 41.3303L10.3321 41.1367L10.4309 41.3154Z" fill="white"/>
<path d="M10.1778 40.0304L10.3802 40.0204L10.2617 40.1942L10.3259 40.3878L10.1334 40.3282L9.97054 40.4623V40.2538L9.80273 40.1346L10.0001 40.0651L10.0594 39.8616L10.1778 40.0304Z" fill="white"/>
<path d="M10.9972 39.2056L11.1995 39.1956L11.0811 39.3694L11.1452 39.568L10.9527 39.5084L10.7899 39.6375V39.429L10.6221 39.3148L10.8195 39.2453L10.8787 39.0417L10.9972 39.2056Z" fill="white"/>
<path d="M8.16122 41.9413L8.36357 41.9264L8.24019 42.1001L8.30928 42.2987L8.1168 42.2391L7.95394 42.3732V42.1597L7.78613 42.0455L7.98355 41.976L8.03784 41.7725L8.16122 41.9413Z" fill="white"/>
<path d="M8.79506 40.9541L8.99741 40.964L8.85922 41.1229L8.90364 41.3265L8.7161 41.247L8.54336 41.3562L8.56804 41.1477L8.41504 41.0187L8.61245 40.969L8.69635 40.7754L8.79506 40.9541Z" fill="white"/>
<path d="M8.55184 39.6671L8.75419 39.6572L8.63575 39.8309L8.69991 40.0245L8.50743 39.965L8.34456 40.099V39.8855L8.17676 39.7713L8.37417 39.7018L8.4334 39.4983L8.55184 39.6671Z" fill="white"/>
<path d="M9.36825 38.8428L9.5706 38.8329L9.45215 39.0066L9.51631 39.2052L9.32383 39.1456L9.16097 39.2747V39.0662L8.99316 38.952L9.19058 38.8825L9.2498 38.679L9.36825 38.8428Z" fill="white"/>
<path d="M6.76962 41.5147L6.97197 41.5048L6.85352 41.6786L6.91768 41.8722L6.7252 41.8126L6.56233 41.9467V41.7332L6.39453 41.619L6.59195 41.5495L6.65117 41.3459L6.76962 41.5147Z" fill="white"/>
<path d="M7.39858 40.5271L7.60586 40.537L7.46274 40.6959L7.50716 40.8995L7.32455 40.82L7.14687 40.9342L7.17155 40.7257L7.01855 40.5917L7.2209 40.542L7.29987 40.3484L7.39858 40.5271Z" fill="white"/>
<path d="M7.14652 39.2418L7.3538 39.2319L7.23042 39.4056L7.29951 39.5992L7.1021 39.5397L6.93923 39.6737L6.94417 39.4652L6.77637 39.351L6.96885 39.2765L7.02807 39.073L7.14652 39.2418Z" fill="white"/>
<path d="M7.96976 38.4217L8.17211 38.4068L8.05366 38.5806L8.12276 38.7792L7.92534 38.7196L7.76248 38.8487L7.76741 38.6402L7.59961 38.526L7.79209 38.4565L7.85131 38.2529L7.96976 38.4217Z" fill="white"/>
<path d="M5.31253 40.9143L5.51982 40.9044L5.39644 41.0781L5.46553 41.2767L5.26812 41.2172L5.11018 41.3462V41.1377L4.94238 41.0235L5.13486 40.954L5.19409 40.7505L5.31253 40.9143Z" fill="white"/>
<path d="M5.94941 39.9258L6.15176 39.9407L6.01357 40.0996L6.05799 40.3031L5.87045 40.2187L5.69277 40.3329L5.71745 40.1244L5.56445 39.9903L5.7668 39.9457L5.84577 39.7471L5.94941 39.9258Z" fill="white"/>
<path d="M5.70224 38.6454L5.90458 38.6305L5.7812 38.8042L5.8503 39.0028L5.65782 38.9432L5.49495 39.0723V38.8638L5.32715 38.7496L5.52456 38.6801L5.58379 38.4766L5.70224 38.6454Z" fill="white"/>
<path d="M6.51278 37.8209L6.71513 37.811L6.59175 37.9847L6.66084 38.1783L6.46836 38.1188L6.3055 38.2528V38.0443L6.1377 37.9252L6.33017 37.8556L6.3894 37.6521L6.51278 37.8209Z" fill="white"/>
<path d="M3.82528 39.891L4.02763 39.881L3.90918 40.0548L3.97334 40.2484L3.78086 40.1888L3.618 40.3229V40.1094L3.4502 39.9952L3.64761 39.9257L3.70683 39.7222L3.82528 39.891Z" fill="white"/>
<path d="M4.46303 38.9026L4.66538 38.9175L4.52719 39.0714L4.57161 39.2749L4.389 39.1955L4.21133 39.3097L4.236 39.1012L4.08301 38.9671L4.28536 38.9175L4.36432 38.7239L4.46303 38.9026Z" fill="white"/>
<path d="M4.21 37.6172L4.41728 37.6073L4.2939 37.781L4.36299 37.9796L4.16558 37.9151L4.00271 38.0491L4.00765 37.8406L3.83984 37.7264L4.03232 37.6569L4.09155 37.4534L4.21 37.6172Z" fill="white"/>
<path d="M5.02933 36.7979L5.23168 36.783L5.11323 36.9568L5.18233 37.1554L4.98491 37.0958L4.82205 37.2299L4.82698 37.0164L4.65918 36.9022L4.85166 36.8327L4.91088 36.6292L5.02933 36.7979Z" fill="white"/>
<path d="M2.66703 38.3411L2.87431 38.3311L2.75093 38.5049L2.82002 38.7035L2.62261 38.6439L2.45974 38.773L2.46468 38.5645L2.29688 38.4503L2.48935 38.3808L2.54858 38.1772L2.66703 38.3411Z" fill="white"/>
<path d="M3.31465 37.354L3.51699 37.3689L3.3788 37.5278L3.42322 37.7313L3.23568 37.6469L3.05801 37.7611L3.08268 37.5526L2.92969 37.4186L3.13204 37.3739L3.211 37.1753L3.31465 37.354Z" fill="white"/>
<path d="M3.05673 36.0726L3.25908 36.0577L3.13569 36.2315L3.20479 36.43L3.01231 36.3705L2.84944 36.4996V36.291L2.68164 36.1769L2.87412 36.1074L2.93334 35.9038L3.05673 36.0726Z" fill="white"/>
<path d="M3.8721 35.2491L4.07939 35.2392L3.95601 35.4129L4.0251 35.6066L3.83262 35.547L3.66976 35.681V35.4725L3.50195 35.3534L3.69443 35.2839L3.75366 35.0803L3.8721 35.2491Z" fill="white"/>
</g>
<defs>
<clipPath id="clip0_9379_511129">
<rect width="35.5" height="48.4091" fill="white" transform="translate(0 0.79541)"/>
</clipPath>
</defs>
</svg>
