<svg width="330" height="498" viewBox="0 0 330 498" fill="none" xmlns="http://www.w3.org/2000/svg">
<path d="M329.994 470.12C330.374 479.134 314.636 485.358 305.027 487.665C291.22 490.979 276.836 492.937 262.607 494.481C235.403 497.43 207.91 498.098 180.545 496.474C155.647 494.993 129.834 492.221 107.885 481.634C103.921 479.722 100.044 477.349 97.9932 473.939C91.9763 463.925 107.541 457.247 116.673 454.787C129.303 451.386 142.194 448.692 155.259 446.72C183.322 442.486 212.084 441.39 240.503 443.244C265.168 444.851 296.835 447.23 318.668 457.69C321.718 459.152 324.621 460.926 326.728 463.267C328.915 465.702 329.907 467.99 329.994 470.12Z" fill="#E6D1D1"/>
<g clip-path="url(#clip0_122_79961)">
<path d="M279.147 429.589L274.163 422.353C273.172 420.901 272.13 418.81 270.46 417.997C268.929 417.25 267.744 418.052 266.445 418.885C264.035 420.434 261.636 421.999 259.231 423.556C258.807 423.829 259.141 424.48 259.556 424.32C262.155 428.695 265.04 432.895 268.191 436.891C268.228 436.939 268.277 436.978 268.333 437.002C268.389 437.027 268.451 437.037 268.512 437.03C268.573 437.024 268.631 437.003 268.681 436.967C268.731 436.932 268.772 436.885 268.798 436.829C268.85 436.815 268.9 436.792 268.943 436.76C272.106 434.364 272.774 440.338 276.274 438.471C276.533 438.471 279.426 430.14 279.324 429.876C279.303 429.761 279.24 429.659 279.147 429.589V429.589Z" fill="#6478BD"/>
<path d="M286.919 437.341C286.783 436.688 286.426 436.103 285.908 435.682C284.523 434.401 283.535 432.403 282.231 430.983C281.229 429.894 279.397 427.32 277.941 426.934C276.608 426.579 273.434 433.341 272.908 434.43C271.058 434.189 265.71 434.593 265.522 435.011C261.54 443.818 255.553 451.454 252.112 459.732C251.377 461.498 253.59 464.068 254.069 464.498C254.781 465.134 256.393 464.167 257.026 463.76C262.181 460.469 279.916 446.29 283.634 442.694C284.168 442.21 284.661 441.683 285.11 441.119C285.876 440.085 287.134 438.746 286.919 437.341Z" fill="#514A43"/>
<path d="M167.742 452.509C167.327 449.604 166.91 446.705 166.49 443.812C166.24 442.07 166.231 439.729 165.104 438.265C164.067 436.914 162.65 437.103 161.116 437.277C158.27 437.591 155.423 437.931 152.577 438.256C152.077 438.314 152.086 439.043 152.531 439.084C152.915 444.16 153.634 449.206 154.683 454.187C154.693 454.249 154.72 454.307 154.76 454.356C154.8 454.404 154.852 454.441 154.911 454.463C154.97 454.485 155.034 454.491 155.096 454.48C155.157 454.469 155.215 454.442 155.264 454.402C155.317 454.412 155.371 454.412 155.423 454.402C159.321 453.659 157.268 459.311 161.233 459.192C161.471 459.293 167.756 453.13 167.782 452.848C167.811 452.734 167.796 452.613 167.742 452.509V452.509Z" fill="#6478BD"/>
<path d="M92.4331 144.397C92.3906 144.398 92.3484 144.391 92.3082 144.377C92.2073 144.344 92.1238 144.272 92.0759 144.177C92.0279 144.082 92.0196 143.973 92.0526 143.872C96.5749 130.194 103.671 121.797 103.735 121.704C103.767 121.66 103.809 121.622 103.856 121.595C103.904 121.567 103.957 121.549 104.012 121.543C104.067 121.536 104.122 121.541 104.175 121.557C104.228 121.574 104.277 121.6 104.319 121.636C104.361 121.672 104.395 121.717 104.419 121.766C104.443 121.816 104.457 121.87 104.459 121.925C104.461 121.981 104.452 122.036 104.431 122.087C104.411 122.139 104.381 122.185 104.342 122.224C104.272 122.309 97.2836 130.604 92.8136 144.121C92.7873 144.202 92.7363 144.271 92.668 144.321C92.5997 144.371 92.5175 144.397 92.4331 144.397V144.397Z" fill="#522626"/>
<path d="M80.6607 136.997C80.6183 136.997 80.5761 136.99 80.5358 136.977C80.4859 136.96 80.4398 136.934 80.4 136.9C80.3603 136.865 80.3277 136.823 80.3042 136.777C80.2807 136.73 80.2668 136.678 80.2632 136.626C80.2595 136.574 80.2663 136.521 80.2831 136.471C84.8026 122.794 91.9012 114.397 91.9622 114.307C91.9947 114.262 92.036 114.225 92.0835 114.197C92.1311 114.17 92.1838 114.152 92.2385 114.145C92.2932 114.139 92.3486 114.144 92.4013 114.16C92.454 114.175 92.5029 114.202 92.5449 114.238C92.5869 114.273 92.6212 114.317 92.6455 114.367C92.6697 114.416 92.6836 114.47 92.6862 114.525C92.6887 114.58 92.6799 114.635 92.6603 114.686C92.6407 114.738 92.6107 114.784 92.5721 114.824C92.4995 114.908 85.5113 123.203 81.0412 136.724C81.0148 136.804 80.9638 136.873 80.8954 136.922C80.827 136.971 80.7449 136.997 80.6607 136.997V136.997Z" fill="#522626"/>
<path d="M37.0764 119.015C37.033 119.015 36.9899 119.008 36.9486 118.994C36.8483 118.96 36.7654 118.888 36.7181 118.794C36.6708 118.699 36.6628 118.589 36.6959 118.489C41.2183 104.811 48.314 96.4145 48.375 96.3245C48.4459 96.2521 48.5416 96.2092 48.6428 96.2045C48.744 96.1998 48.8433 96.2336 48.9205 96.2992C48.9978 96.3647 49.0475 96.457 49.0594 96.5577C49.0714 96.6583 49.0447 96.7597 48.9849 96.8415C48.9152 96.9257 41.9241 105.221 37.4569 118.739C37.4303 118.819 37.3792 118.888 37.311 118.938C37.2427 118.987 37.1607 119.014 37.0764 119.015V119.015Z" fill="#522626"/>
<path d="M202.75 211.277C199.328 204.175 192.003 200.106 184.391 199.078C174.536 197.759 164.959 201.523 156.243 205.694C156.131 205.744 156.031 205.818 155.952 205.912C155.952 205.883 155.952 205.851 155.952 205.819C156.028 204.803 154.442 204.896 154.367 205.901C152.011 237.699 145.458 318.503 144.968 333.966C144.456 349.941 144.724 425.136 151.648 444.245C151.883 444.893 152.307 445.445 152.996 445.482C153.577 445.511 154.157 445.535 154.759 445.538C157.884 445.569 161.003 445.192 164.111 444.904C168.596 444.492 173.234 444.765 177.701 444.129C178.007 444.082 178.289 443.938 178.505 443.718C178.722 443.497 178.86 443.212 178.901 442.906C181.373 424.55 179.29 406.019 179.616 387.543C179.981 366.793 184.844 346.511 189.319 326.345C193.795 306.179 198.425 285.949 201.594 265.484C203.069 255.957 204.231 246.381 204.923 236.764C205.524 228.405 206.511 219.087 202.75 211.277Z" fill="#A2AFDE"/>
<path d="M150.7 253.738C150.218 259.951 149.73 266.277 149.248 272.521C154.476 270.718 159.489 267.967 164.352 265.507C161.737 259.971 156.361 256.323 150.7 253.738Z" fill="#522C2C"/>
<path d="M216.157 52.3299L214.075 52.1614C209.979 51.8216 205.861 51.5457 201.757 51.8971C197.278 52.2834 192.753 53.4888 188.945 55.9634C184.544 58.836 183.284 62.6264 184.53 67.7587C185.825 73.103 187.96 78.3427 190.104 83.4024C190.071 83.4546 190.052 83.5138 190.046 83.5751C190.041 83.6364 190.051 83.6981 190.075 83.7549C190.098 83.8117 190.135 83.8621 190.182 83.9018C190.229 83.9415 190.285 83.9695 190.345 83.9833C195.323 85.1276 200.386 85.7056 205.474 86.0832C209.25 86.3737 213.665 87.4426 216.904 84.9592C220.787 81.9821 227.45 78.5693 230.796 75.0141C233.384 72.2665 233.393 68.8362 233.756 64.9122C234.302 59.08 228.833 55.3099 223.88 53.6572C221.342 52.8178 218.78 52.5448 216.157 52.3299Z" fill="#FCE7D8"/>
<path d="M232.695 13.2153C229.907 9.54692 225.779 6.55236 222.239 5.13496C220.423 4.38724 218.48 3.99766 216.517 3.98768C213.903 4.0022 211.35 5.73039 208.93 4.4524C207.187 3.53458 205.718 2.31178 203.859 1.58274C201.898 0.772995 199.79 0.382204 197.669 0.43546C194.268 0.580686 190.905 2.06199 188.976 4.95488C188.064 6.30292 187.539 7.87497 187.457 9.50045C187.373 11.4842 188.227 12.8261 188.909 14.5804C189.885 17.0464 187.077 18.6729 186.048 20.6799C185.363 22.0044 185.125 23.4276 185.703 24.8305C186.591 26.9885 188.317 27.9877 187.594 30.6221C187.216 32.0133 186.339 33.4801 186.818 34.9788C187.913 38.3771 192.218 36.6954 194.405 35.7369C199.502 33.5004 207.132 30.1806 210.458 36.9336C212.869 41.8364 212.369 48.6329 211.762 53.8901C211.754 53.9362 211.756 53.9835 211.768 54.0288C211.779 54.0741 211.8 54.1165 211.829 54.1532C211.858 54.1899 211.895 54.2201 211.936 54.2418C211.978 54.2635 212.023 54.2763 212.07 54.2793C212.106 54.3113 212.147 54.3355 212.193 54.3506C212.238 54.3656 212.286 54.3711 212.334 54.3668C212.382 54.3624 212.428 54.3483 212.47 54.3252C212.512 54.3022 212.549 54.2707 212.578 54.2329C215.869 50.3873 221.292 50.0852 225.137 47.0355C228.835 44.1019 228.28 39.8671 229.27 35.7079C229.93 32.9341 232.033 31.1565 233.508 28.8358C234.674 27.0495 235.454 25.0392 235.797 22.9338C236.317 19.5588 234.94 16.1634 232.695 13.2153Z" fill="#4A2521"/>
<path d="M213.921 44.7204C209.967 47.2328 205.024 51.6361 200.139 51.3863C199.885 51.3591 199.629 51.4238 199.419 51.5688C199.208 51.7137 199.057 51.9292 198.991 52.1763C198.268 52.005 197.408 52.3913 197.432 53.3381C197.586 59.6235 197.667 66.2226 193.566 71.41C192.607 72.6212 194.219 74.3145 195.236 73.3009C201.414 73.9544 212.303 74.4627 212.146 73.6145C210.83 66.4084 214.844 52.9925 216.142 45.8764C216.386 44.4997 214.577 43.8084 213.921 44.7204Z" fill="#FFB687"/>
<path d="M197.381 60.0705C198.591 59.7854 199.779 59.4146 200.936 58.961C203.213 58.0214 205.327 56.7296 207.202 55.1329C210.739 52.1528 212.778 48.162 215.288 44.4094C215.058 44.301 214.798 44.2727 214.55 44.3291C214.302 44.3854 214.08 44.5231 213.92 44.7202C209.967 47.2326 205.023 51.6358 200.138 51.386C199.884 51.3588 199.628 51.4236 199.418 51.5685C199.207 51.7134 199.056 51.929 198.99 52.1761C198.267 52.0047 197.407 52.391 197.431 53.3379C197.486 55.5744 197.527 57.8399 197.381 60.0705Z" fill="#A8574F"/>
<path d="M230.619 19.5754C229.747 14.6639 225.905 10.9142 221.44 8.759C217.76 6.98434 212.579 5.33458 208.486 6.51962C202.276 8.31461 195.884 13.229 193.092 18.9597C189.758 25.8434 188.065 33.7349 187.214 41.2576C186.633 46.4712 185.642 55.1615 192.267 55.8237C199.389 56.5324 204.321 55.8905 211.025 54.2117C211.495 54.325 223.668 41.4319 226.535 35.1843C228.699 30.4848 231.557 24.8616 230.619 19.5754Z" fill="#FFB687"/>
<path d="M198.088 32.8726C198.494 32.5154 197.899 31.9257 197.507 32.2917C196.516 33.1631 195.151 34.5108 194.893 35.8643C194.652 37.0958 196.023 38.0601 196.83 38.7455C197.24 39.0941 197.835 38.5016 197.411 38.1646C196.505 37.3949 195.395 36.6078 196.098 35.2224C196.609 34.3221 197.284 33.5252 198.088 32.8726V32.8726Z" fill="#A8574F"/>
<path d="M200.478 37.7958C199.807 37.4501 199.154 37.0812 198.517 36.6833C198.056 36.3929 197.646 37.1219 198.093 37.4066C198.732 37.8035 199.386 38.1743 200.054 38.519C200.533 38.7746 200.957 38.0426 200.478 37.7958Z" fill="#A8574F"/>
<path d="M201.073 44.7695C200.463 44.2206 199.397 44.0057 198.639 43.7704C197.451 43.4015 196.246 43.0849 195.035 42.8119C194.541 42.6986 193.094 42.1584 192.862 42.8351C192.659 43.416 192.938 44.1741 193.121 44.7318C193.388 45.5567 193.89 46.2828 194.759 46.5384C196.58 47.0699 199.238 46.1201 200.887 45.4695C200.957 45.4489 201.02 45.4107 201.071 45.3585C201.122 45.3064 201.158 45.242 201.177 45.1717C201.196 45.1014 201.196 45.0275 201.178 44.9571C201.159 44.8867 201.124 44.8221 201.073 44.7695V44.7695Z" fill="white"/>
<path d="M208.399 35.1732C208.109 36.1027 207.38 36.701 206.741 36.5093C206.102 36.3176 205.756 35.4056 206.035 34.4761C206.314 33.5467 207.11 32.9542 207.749 33.1459C208.388 33.3376 208.678 34.2467 208.399 35.1732Z" fill="#36221C"/>
<path d="M194.577 31.1914C194.307 32.0947 193.604 32.6844 193.008 32.5043C192.413 32.3242 192.096 31.4441 192.366 30.5408C192.637 29.6375 193.392 29.0537 193.99 29.2309C194.588 29.4081 194.85 30.2881 194.577 31.1914Z" fill="#36221C"/>
<path d="M279.58 418.394C279.778 418.121 279.906 417.804 279.954 417.47C280.002 417.136 279.969 416.795 279.856 416.477C277.651 410.125 270.869 395.106 268.848 390.578C260.544 371.989 250.175 354.271 245.76 334.207C241.281 313.855 239.716 292.716 237.136 272.05L233.024 239.128C232.443 234.422 231.855 229.718 231.26 225.015C230.741 220.876 230.389 216.458 227.987 212.894C223.723 206.548 215.138 204.936 208.019 205.432C199.215 206.045 191.039 209.693 184.428 215.468C184.362 215.516 184.307 215.578 184.265 215.648C184.223 215.718 184.195 215.796 184.183 215.877C184.171 215.958 184.176 216.04 184.196 216.12C184.216 216.199 184.251 216.273 184.3 216.339C184.483 216.624 184.589 216.952 184.609 217.29C184.628 217.629 184.56 217.966 184.411 218.27C184.257 218.596 184.12 218.93 183.981 219.27C183.931 219.398 183.868 219.521 183.792 219.636C168.073 242.936 185.889 274.673 192.569 298.438C197.975 317.645 204.844 350.914 219.215 373.955C229.068 389.756 249.3 416.881 261.241 432.133C261.56 432.533 262.015 432.802 262.52 432.888C263.025 432.974 263.544 432.87 263.977 432.597C270.039 428.905 275.336 424.084 279.58 418.394V418.394Z" fill="#A2AFDE"/>
<path d="M205.441 267.177C211.541 270.645 219.014 271.014 225.866 270.953C229.136 270.927 232.398 270.735 235.66 270.523C236.084 270.497 236.508 270.476 236.935 270.459L234.26 249.027C223.914 253.964 213.42 258.806 205.372 267.151C205.396 267.157 205.419 267.166 205.441 267.177V267.177Z" fill="#522C2C"/>
<path d="M213.526 27.5489C211.202 26.2041 208.21 25.7597 205.919 27.2584C205.817 27.3133 205.739 27.4045 205.701 27.514C205.604 27.6468 205.54 27.8002 205.514 27.962C205.487 28.1239 205.498 28.2897 205.547 28.4464C205.803 29.3003 207.063 29.5588 207.804 29.7679C208.655 30.0061 209.546 30.1426 210.38 30.4098C211.315 30.7003 211.963 31.2231 212.8 31.6704C213.508 32.048 214.406 32.3094 215.123 31.804C216.915 30.5435 214.731 28.2518 213.526 27.5489Z" fill="#4A2521"/>
<path d="M219.625 219.537C204.452 219.793 188.802 221.091 173.757 218.611C173.687 218.601 173.616 218.607 173.55 218.629C173.483 218.651 173.422 218.688 173.372 218.737C173.322 218.786 173.283 218.846 173.26 218.913C173.237 218.979 173.229 219.049 173.237 219.119C172.877 219.052 172.514 219.508 172.851 219.811L186.447 232.041L193.246 238.158C194.434 239.227 196.037 241.382 197.789 241.536C199.709 241.708 201.521 239.445 202.785 238.324C204.858 236.486 206.877 234.589 208.84 232.631C212.763 228.715 216.462 224.582 219.921 220.252C219.977 220.193 220.015 220.118 220.029 220.038C220.044 219.957 220.035 219.874 220.004 219.799C219.973 219.723 219.92 219.659 219.853 219.612C219.786 219.566 219.707 219.54 219.625 219.537V219.537Z" fill="#FFF0E3"/>
<path d="M196.13 22.3968C193.295 21.5632 191.276 23.5818 191.143 23.849C190.989 24.0958 190.913 24.383 190.924 24.6735C190.936 24.964 191.034 25.2444 191.207 25.4784C191.834 26.2743 192.827 25.978 193.646 25.9286C194.919 25.8502 195.956 26.5734 197.184 26.6925C197.788 26.7506 198.427 26.6432 198.68 25.9432C199.249 24.3834 197.245 22.7221 196.13 22.3968Z" fill="#4A2521"/>
<path d="M231.116 20.1857C230.122 15.7883 228.87 11.5622 225.068 9.43905C220.578 6.91503 215.864 4.36486 210.653 5.24784C207.973 5.70384 203.134 5.82874 200.688 6.99054C198.983 7.80671 191.603 19.5729 189.872 23.2181C189.639 23.7031 190.362 24.1272 190.595 23.6392C192.198 20.27 194.06 16.9007 197.275 14.9024C197.325 14.9268 197.38 14.9395 197.435 14.9395C197.49 14.9395 197.545 14.9268 197.595 14.9024C198.588 18.2688 201.176 20.0521 204.856 19.6048C206.889 19.3551 208.719 18.5127 210.624 17.8447C211.902 17.3974 213.238 16.9734 214.595 16.9385C216.582 16.8978 217.517 17.9144 217.961 19.7559C218.481 21.8831 219.515 23.85 220.973 25.4836C221.638 26.2329 222.765 26.8109 223.334 27.5865C224.052 28.5711 223.23 29.8374 222.629 30.6217C220.105 33.898 219.724 39.9771 220.476 41.0024C221.348 42.1642 222.495 41.4875 223.314 40.648C226.651 37.2352 226.695 37.2933 228.783 33.076C230.834 28.9661 232.156 24.801 231.116 20.1857Z" fill="#4A2521"/>
<path d="M241.075 204.977C240.979 189.856 239.5 174.793 238.278 159.733C237.055 144.674 236.776 129.744 236.3 114.699C235.847 100.354 234.081 86.1766 230.255 72.293C229.674 70.2395 229.317 67.5877 226.555 68.1134C224.609 68.4823 222.637 69.4873 220.778 70.1757L214.766 72.3947C210.906 73.8208 206.923 75.671 202.805 76.1212C198.497 76.5917 193.144 74.6225 192.825 69.708C192.817 69.5906 192.762 69.4812 192.674 69.4039C192.585 69.3266 192.469 69.2876 192.351 69.2956C192.334 69.2501 192.308 69.2084 192.275 69.173C192.241 69.1376 192.201 69.1092 192.157 69.0894C191.909 68.961 191.634 68.894 191.355 68.894C191.076 68.894 190.801 68.961 190.554 69.0894C190.502 69.1137 190.456 69.1496 190.42 69.1941C190.384 69.2387 190.358 69.2909 190.345 69.3468C190.332 69.4027 190.331 69.4608 190.344 69.5168C190.356 69.5728 190.381 69.6253 190.417 69.6703C185.221 73.4142 179.961 77.2714 175.999 82.3339C171.697 87.8351 170.045 94.3528 168.837 101.077C166.045 116.61 160.318 179.667 160.286 195.778C160.286 203.911 160.44 212.02 160.997 220.124C161.151 222.372 161.244 224.373 163.879 224.748C167.724 225.294 206.621 230.757 235.475 218.614C238.922 217.161 241.011 212.264 241.037 210.879C241.062 208.919 241.075 206.952 241.075 204.977Z" fill="#FCE7D8"/>
<path d="M236.166 162.641C232.548 161.37 229.045 159.792 225.695 157.924C226.311 156.271 228.222 152.179 228.286 150.424C228.364 148.316 194.884 124.627 194.335 124.412C190.449 122.887 190.074 124.775 187.751 128.641C177.185 117.945 168.79 105.305 163.027 91.4193C160.794 86.0111 151.868 88.3812 154.137 93.8707C160.831 110.081 170.521 124.83 183.115 137.032C182.244 138.957 180.414 144.784 181.215 145.702C187.21 152.583 207.08 168.241 217.202 170.901C219.122 171.407 222.015 167.43 222.184 166.452C225.888 168.445 229.743 170.144 233.714 171.532C239.332 173.472 241.751 164.567 236.166 162.641Z" fill="#F9BB7C"/>
<path d="M213.709 148.385C209.729 145.984 205.845 143.438 202.056 140.746C198.315 138.077 193.255 135.077 193.081 129.936C193.063 129.398 192.209 129.396 192.244 129.936C192.392 134.354 195.759 137.154 199.055 139.599C203.641 142.997 208.385 146.167 213.287 149.109C213.383 149.164 213.497 149.18 213.605 149.152C213.712 149.123 213.804 149.053 213.86 148.957C213.915 148.862 213.931 148.747 213.903 148.64C213.874 148.533 213.804 148.441 213.709 148.385V148.385Z" fill="#BF8658"/>
<path d="M262.876 184C261.714 169.321 260.915 154.615 260.294 139.901C259.678 125.378 259.954 110.632 258.182 96.1997C257.282 88.8426 257.192 81.0643 250.163 77.0067C245.312 74.2424 240.295 71.7796 235.141 69.6321C230.235 67.5583 225.056 65.348 219.837 64.2065C218.26 63.8609 216.189 63.3874 214.844 64.5666C213.682 65.5745 213.49 67.2911 213.348 68.7143C213.341 68.7618 213.345 68.8102 213.359 68.8563C213.372 68.9024 213.395 68.945 213.426 68.9815C206.395 119.447 200.676 170.274 201.027 221.297C201.128 235.657 201.746 250 202.883 264.327C202.691 265.315 202.532 266.602 203.322 267.36C204.42 268.408 206.639 267.746 207.934 267.601C218.506 266.439 228.847 263.503 238.623 259.355C243.609 257.236 248.459 254.81 253.146 252.094C254.764 251.158 262.391 247.688 262.646 245.91C262.646 245.829 262.667 245.744 262.678 245.663L262.716 245.622C262.858 245.445 264.485 204.332 262.876 184Z" fill="#A54740"/>
<path d="M245.063 223.891C241.638 224.687 238.291 225.787 235.062 227.179C232.268 228.41 228.434 230.176 227.397 233.322C233.927 236.47 240.552 239.476 247.555 241.417C252.536 242.819 257.684 243.534 262.859 243.543C263.016 240.112 263.274 232.744 263.44 224.01C257.41 222.513 251.111 222.473 245.063 223.891Z" fill="#522C2C"/>
<path d="M210.799 88.4419C209.811 96.0207 208.868 103.607 207.97 111.202C209.329 114.774 210.956 118.248 212.617 121.719C215.144 126.973 217.511 132.306 220.32 137.424C224.897 145.768 231.647 156.219 240.866 160.294C241.828 145.533 240.326 129.971 234.148 116.479C229.791 106.955 222.01 92.0783 210.799 88.4419Z" fill="#522C2C"/>
<path d="M256.018 134.531C252.126 133.95 248.26 133.279 244.356 132.756C240.258 132.207 236.131 131.548 232.311 129.898C230.763 129.23 229.038 128.664 227.394 127.958C228.698 131.911 230.56 135.704 232.55 139.306C235.332 144.31 238.472 149.106 241.946 153.657C245.248 158.014 249.082 161.79 254.287 163.733C256.65 164.628 259.102 165.27 261.6 165.647C261.08 157.071 260.64 148.49 260.282 139.904C260.21 138.22 260.149 136.532 260.099 134.842C258.732 134.859 257.366 134.755 256.018 134.531Z" fill="#522C2C"/>
<path d="M73.0309 107.612C72.8712 105.082 73.8529 99.0172 73.574 98.721C70.7044 95.648 67.5036 92.7812 63.8759 90.6261C62.3628 89.7074 60.7476 88.9685 59.0631 88.4244C57.8751 88.0585 55.3976 87.2917 54.1835 87.7216C54.0331 87.7843 53.901 87.884 53.7994 88.0115C53.6979 88.1389 53.6302 88.29 53.6026 88.4506C53.1263 90.7742 56.7772 91.0501 58.1104 91.7472C59.3855 92.4153 60.2598 93.7804 58.2324 93.6119C55.993 93.4318 53.7536 93.124 51.5201 92.88C51.1657 92.8422 50.7097 92.6999 50.7097 92.3426C50.7185 92.2194 50.7606 92.1009 50.8317 91.9999C51.2935 91.2534 52.3885 90.5796 52.6122 89.717C52.7864 89.0315 52.2578 87.6635 51.2558 88.1079C50.55 88.4186 49.6234 88.7469 48.6417 89.1244C48.5823 89.1466 48.5186 89.1547 48.4556 89.1483C48.3926 89.1418 48.3319 89.1209 48.2782 89.0872C48.2246 89.0535 48.1794 89.0079 48.1462 88.9539C48.113 88.8999 48.0928 88.839 48.0869 88.7759C47.8633 86.217 47.6571 84.8374 45.0691 84.0009C44.761 83.872 44.4251 83.8241 44.0932 83.8615C42.8211 84.1287 41.6041 87.5124 41.1539 88.5726C40.3842 90.3966 39.78 92.4995 40.2622 94.4804C40.6398 96.0314 42.6613 97.1235 43.9102 97.8728C46.3355 99.3251 53.7711 100.777 62.1215 101.925C65.9904 102.459 68.7584 106.636 71.66 109.148C72.3454 109.744 73.1122 108.858 72.8508 108.134C72.916 108.065 72.9657 107.982 72.9967 107.892C73.0277 107.802 73.0394 107.707 73.0309 107.612V107.612Z" fill="#FFB687"/>
<path d="M149.893 81.3749C145.095 84.8807 145.304 111.925 143.794 119.697C137.805 150.819 133.532 182.301 130.352 213.89C128.589 231.387 128.397 235.538 127.194 253.101C127.166 253.423 127.25 253.744 127.434 254.009C127.618 254.275 127.889 254.467 128.199 254.554C130.779 255.178 140.186 264.333 164.462 265.861C165.305 265.913 165.964 265.042 166.121 264.153C170.573 238.988 172.476 213.423 174.253 187.91C176.086 161.537 177.782 135.074 182.183 109.014C184.637 94.4917 187.963 80.126 192.52 66.1814C192.627 65.8619 164.997 70.3465 149.893 81.3749Z" fill="#A54740"/>
<path d="M136.552 211.166C136.567 211.14 136.584 211.125 136.599 211.102C135.277 208.778 133.514 206.702 131.272 205.293C130.964 208.163 130.656 211.029 130.366 213.902C130.13 216.226 129.924 218.331 129.738 220.257C132.428 217.521 135.001 214.712 136.552 211.166Z" fill="#522C2C"/>
<path d="M226.936 37.819C226.155 35.6609 222.658 36.9157 221.261 37.6825C218.742 39.065 216.538 41.8737 216.518 44.7491C216.518 45.8093 217.008 46.974 218.199 47.3051C219.652 47.7059 221.278 46.5877 222.344 45.8529C224.656 44.2467 228.005 40.7729 226.936 37.819Z" fill="#ED927E"/>
<path d="M74.8524 95.7038C74.8826 95.6191 74.8845 95.5269 74.8578 95.441C74.8311 95.3551 74.7772 95.2801 74.7043 95.2275C73.133 94.0655 71.4274 93.0971 69.6243 92.3433C69.5187 92.3101 69.4044 92.3194 69.3056 92.3693C69.2068 92.4193 69.1315 92.5058 69.0957 92.6105C68.1895 95.1462 65.0758 107.357 65.0497 108.478C65.0177 110.075 65.558 109.93 66.6268 110.871L72.2296 115.861C72.2451 115.938 72.2852 116.008 72.3438 116.061C72.4025 116.113 72.4766 116.145 72.5549 116.152L72.7931 116.367C73.1939 116.721 73.8155 116.16 73.4118 115.8L73.0778 115.51C73.6703 108.926 74.2618 102.333 74.8524 95.73C74.8524 95.73 74.8495 95.7038 74.8524 95.7038Z" fill="#522C2C"/>
<path d="M224.455 38.7398C222.59 39.2327 220.967 40.3868 219.889 41.9871C219.599 42.4344 220.31 42.8584 220.612 42.4111C221.576 40.9953 223.021 39.9776 224.679 39.5473C224.732 39.5326 224.781 39.5076 224.825 39.4737C224.868 39.4399 224.904 39.3978 224.931 39.3499C224.958 39.3021 224.976 39.2493 224.983 39.1947C224.989 39.1401 224.985 39.0847 224.971 39.0317C224.956 38.9787 224.931 38.9291 224.897 38.8857C224.863 38.8424 224.821 38.8061 224.773 38.779C224.725 38.7519 224.673 38.7345 224.618 38.7277C224.563 38.721 224.508 38.7251 224.455 38.7398V38.7398Z" fill="#A8574F"/>
<path d="M220.607 61.302L205.457 60.2273C205.33 60.2316 205.205 60.2025 205.093 60.1429C204.981 60.0833 204.887 59.9953 204.821 59.8878C204.754 59.7803 204.716 59.6571 204.712 59.5306C204.708 59.4041 204.738 59.2788 204.797 59.1672L215.323 34.383C215.458 34.104 215.671 33.87 215.936 33.7092C216.201 33.5484 216.506 33.4677 216.816 33.4768L231.969 34.5514C232.095 34.5477 232.22 34.5772 232.332 34.637C232.443 34.6968 232.536 34.7848 232.603 34.8922C232.669 34.9996 232.707 35.1226 232.71 35.2489C232.714 35.3751 232.685 35.5002 232.625 35.6116L222.1 60.3958C221.965 60.6752 221.753 60.9096 221.488 61.0705C221.223 61.2314 220.916 61.3118 220.607 61.302V61.302Z" fill="#FFF0E3"/>
<path d="M277.123 148.51C277.047 148.51 276.973 148.489 276.91 148.448C276.846 148.407 276.795 148.349 276.763 148.281C272.116 138.56 262.969 129.367 262.876 129.277C262.801 129.2 262.76 129.096 262.761 128.988C262.763 128.881 262.807 128.778 262.884 128.703C262.961 128.628 263.064 128.587 263.172 128.588C263.28 128.589 263.382 128.633 263.457 128.71C263.55 128.8 272.807 138.089 277.498 147.938C277.52 147.986 277.533 148.037 277.536 148.089C277.539 148.141 277.531 148.194 277.514 148.243C277.496 148.293 277.469 148.338 277.434 148.377C277.399 148.416 277.356 148.447 277.309 148.47C277.251 148.498 277.187 148.512 277.123 148.51V148.51Z" fill="#522626"/>
<path d="M224.652 54.6187C224.426 54.521 224.184 54.4668 223.938 54.459C223.558 54.4751 223.184 54.5608 222.834 54.7117C213.639 58.1012 206.961 65.0256 200.76 72.3827C200.664 72.4959 200.543 72.5838 200.405 72.6388C200.268 72.6938 200.119 72.7141 199.972 72.6981C199.824 72.682 199.683 72.63 199.561 72.5467C199.439 72.4633 199.339 72.3512 199.27 72.2201C197.187 68.238 196.877 63.6866 196.656 59.1992C196.652 59.1083 196.616 59.0219 196.554 58.9552C196.589 58.3394 196.484 57.7411 196.014 57.4506C195.224 56.9627 194.024 58.0548 193.432 58.4266C191.715 59.514 190.111 60.7712 188.645 62.1792C187.539 63.2451 184.387 62.2344 184.068 63.8377C183.722 65.5804 185.375 71.8018 185.866 73.4226C186.568 75.7462 187.844 79.8909 188.729 82.1535C190.42 86.4813 206.447 82.2319 212.604 78.8366C218.591 75.5399 227.487 72.9694 233.302 68.6708C233.674 68.3803 232.396 66.3472 232.28 65.8941C231.583 63.19 230.348 64.7177 229.271 62.1385C228.556 60.3871 226.912 55.5424 224.652 54.6187Z" fill="#FCE7D8"/>
<path d="M168.381 72.2144C162.11 73.4895 149.818 81.0267 146.452 83.9864C139.536 90.0626 122.469 115.704 115.333 120.955C111.972 123.43 86.8538 101.896 72.5868 92.6128C72.5146 92.5607 72.4257 92.5372 72.3372 92.5469C72.2487 92.5566 72.1669 92.5986 72.1076 92.6651C72.0573 92.6407 72.002 92.6286 71.9461 92.6297C71.8902 92.6308 71.8354 92.6451 71.7862 92.6715C71.7369 92.6978 71.6945 92.7354 71.6626 92.7813C71.6306 92.8271 71.6099 92.8798 71.6022 92.9352C70.4898 99.4936 69.9989 111.968 69.9612 115.744C69.9566 116.089 70.0216 116.432 70.1523 116.751C70.2831 117.071 70.4769 117.36 70.7222 117.603C77.0308 123.842 83.3713 130.037 90.0865 135.844C97.4756 142.233 109.396 154.142 120.07 152.637C120.494 152.576 120.918 152.498 121.339 152.405C129.382 150.607 136.37 144.993 142.641 139.942C143.46 139.285 155.334 129.686 155.148 129.433C155.331 129.68 153.161 129.645 153.263 129.262C155.604 120.355 157.602 111.367 159.258 102.299C160.565 95.1223 168.476 72.194 168.381 72.2144Z" fill="#A54740"/>
<path d="M259.545 81.9734C257.3 78.2556 254.079 76.1643 250.126 74.4216C245.452 72.3885 238.798 70.1404 233.793 69.0657C233.526 69.0076 230.747 78.5257 231.028 82.2928C231.557 89.3682 232.395 96.4136 233.544 103.429C235.832 117.403 239.178 131.402 244.186 144.673C246.73 151.432 252.103 152.353 255.455 151.586C271.381 147.952 263.902 89.1911 259.545 81.9734Z" fill="#A54740"/>
<path d="M238.506 144.539L290.314 146.712C291.949 146.782 293.614 150.97 293.887 152.625L304.819 217.55C305.485 221.149 303.902 223.49 301.781 223.528L243.796 224.527C242.9 224.535 242.036 224.198 241.383 223.587C240.729 222.975 240.335 222.135 240.284 221.242L234.916 148.338C234.875 147.847 234.939 147.352 235.102 146.887C235.265 146.421 235.524 145.995 235.863 145.637C236.202 145.278 236.612 144.995 237.068 144.806C237.523 144.617 238.013 144.526 238.506 144.539V144.539Z" fill="#FCE7D8"/>
<path d="M226.883 51.712C226.349 50.922 225.431 51.7353 224.952 52.1593C225.076 50.2539 225.846 48.4241 225.965 46.5013C226.082 44.8633 225.962 43.2171 225.611 41.613C225.598 41.5548 225.57 41.501 225.53 41.4571C225.49 41.4133 225.438 41.3809 225.381 41.3632C225.225 41.183 225.008 41.066 224.771 41.0339C224.534 41.0019 224.294 41.057 224.095 41.189C224.004 41.2474 223.921 41.3177 223.848 41.3981C223.827 40.9064 223.748 40.4189 223.613 39.9458C223.433 39.3649 222.939 39.057 222.349 39.2923C222.053 39.4214 221.79 39.6177 221.582 39.8657C221.375 40.1137 221.227 40.4066 221.152 40.7213C220.894 40.4812 220.555 40.3478 220.203 40.3478C219.85 40.3478 219.511 40.4812 219.253 40.7213C219.137 40.8403 219.04 40.9753 218.962 41.1222C218.402 44.1603 215.503 52.6153 214.704 52.9203C213.482 53.3879 213.589 53.597 213.926 52.8215C214.69 51.0585 215.004 49.1589 215.294 47.271C215.463 46.1789 215.799 43.225 214.986 42.8881C213.755 42.3798 212.953 44.5785 212.68 45.3802C212.279 46.5768 212.125 47.8374 211.762 49.0457C210.924 52 209.819 54.8719 208.46 57.6256C208.445 57.6488 208.434 57.6721 208.416 57.6953C206.909 59.8911 205.512 62.1421 204.751 64.6661C203.412 69.1856 209.874 77.719 212.058 77.2514C214.809 76.6705 219.967 72.8017 219.715 72.4909C218.602 71.12 217.138 69.3773 216.874 67.5765C216.659 66.1242 217.632 64.7998 218.66 63.8965C219.773 62.9413 220.831 61.9241 221.829 60.8496C223.815 58.6512 225.487 56.1892 226.799 53.5331C226.838 53.4612 226.853 53.3789 226.842 53.2979C227.005 52.8186 227.185 52.1535 226.883 51.712Z" fill="#FFB687"/>
<path d="M239.332 158.69C239.23 158.69 239.131 158.651 239.057 158.581C238.982 158.511 238.937 158.415 238.931 158.313C238.6 151.905 242.33 134.897 242.487 134.176C242.513 134.076 242.578 133.99 242.667 133.935C242.755 133.881 242.861 133.864 242.963 133.886C243.064 133.911 243.151 133.975 243.206 134.065C243.26 134.154 243.277 134.261 243.253 134.362C243.216 134.536 239.39 151.987 239.716 158.284C239.721 158.39 239.685 158.493 239.614 158.572C239.543 158.651 239.444 158.699 239.338 158.705L239.332 158.69Z" fill="#522626"/>
<path d="M223.252 75.6621C223.246 75.6144 223.231 75.5682 223.209 75.5256C222.389 74.0147 221.451 72.5715 220.403 71.2095C219.947 70.6286 219.354 69.4668 218.643 69.2489C218.062 69.0717 217.481 69.641 217.004 69.8937L212.444 72.3887C211.056 73.1497 209.54 73.8148 208.236 74.6949C207.698 75.0521 207.152 75.3658 207.074 76.0803C206.984 77.0417 207.844 78.2413 208.236 79.0865C208.89 80.5368 209.561 81.9765 210.249 83.4055C210.277 83.4655 210.321 83.5166 210.376 83.5535C210.431 83.5903 210.495 83.6115 210.561 83.6148C210.628 83.6181 210.693 83.6033 210.752 83.5721C210.81 83.5408 210.859 83.4943 210.893 83.4375C212.958 82.7288 214.855 81.3143 216.729 80.2193L223.301 76.3737C223.364 76.3349 223.414 76.2799 223.448 76.2146C223.481 76.1493 223.496 76.0762 223.491 76.003C223.486 75.9299 223.461 75.8595 223.419 75.7994C223.377 75.7394 223.319 75.6919 223.252 75.6621V75.6621Z" fill="#522C2C"/>
<path d="M255.158 125.431C251.896 119.515 248.166 113.778 244.797 108.004C238.076 96.473 224.527 72.6967 224.071 72.807C215.279 74.9564 210.129 79.8127 205.482 85.5869C205.42 85.6454 205.379 85.7223 205.365 85.8061C205.351 85.89 205.364 85.9761 205.403 86.0516C205.389 86.1206 205.395 86.1922 205.421 86.2578C210.504 99.9584 215.735 113.656 222.488 126.631C225.645 132.698 228.97 139.265 233.452 144.479C237.562 149.263 248.065 153.738 254.463 151.74C262.433 149.26 264.629 139.98 261.315 132.553C260.194 130.038 256.511 127.885 255.158 125.431Z" fill="#A54740"/>
<path d="M220.58 42.3296C220.29 45.9806 219.886 49.5909 217.859 52.7423C217.568 53.1954 218.289 53.6137 218.582 53.1664C220.685 49.9046 221.126 46.1171 221.42 42.3296C221.46 41.7923 220.624 41.7952 220.58 42.3296Z" fill="#A8574F"/>
<path d="M223.264 42.8964C223.262 46.2563 222.531 49.5758 221.123 52.6265C220.9 53.1145 221.623 53.5415 221.847 53.0506C223.323 49.8644 224.093 46.3965 224.103 42.8848C224.093 42.7795 224.044 42.682 223.965 42.6114C223.887 42.5408 223.784 42.5025 223.678 42.5039C223.573 42.5054 223.471 42.5466 223.395 42.6193C223.318 42.692 223.271 42.7909 223.264 42.8964V42.8964Z" fill="#A8574F"/>
<path d="M224.431 53.187C224.047 54.756 223.53 56.2894 222.886 57.7703C222.674 58.2612 223.394 58.6882 223.609 58.1944C224.288 56.6491 224.834 55.0487 225.241 53.4107C225.369 52.8849 224.562 52.6613 224.431 53.187Z" fill="#A8574F"/>
<path d="M227.525 210.019C222.542 207.499 218.418 203.557 215.675 198.692C215.615 198.605 215.524 198.544 215.421 198.521C215.317 198.498 215.209 198.515 215.118 198.568C215.027 198.621 214.959 198.707 214.927 198.807C214.896 198.908 214.904 199.017 214.949 199.113C217.766 204.099 221.994 208.141 227.101 210.731C227.581 210.986 228.005 210.263 227.525 210.019Z" fill="#6E3D3D"/>
<path d="M206.191 60.9706C205.465 61.66 204.9 62.5011 204.536 63.4339C204.172 64.3666 204.018 65.3682 204.085 66.3672C204.12 66.9045 204.957 66.9074 204.925 66.3672C204.856 65.4785 204.988 64.5858 205.31 63.7545C205.631 62.9233 206.135 62.1745 206.783 61.5631C207.176 61.1884 206.58 60.5959 206.191 60.9706Z" fill="#A8574F"/>
<path d="M61.659 96.6825C58.6151 94.8904 54.5313 94.3589 51.072 93.9493C49.4107 93.7547 47.5866 94.1178 47.1684 91.6925C47.0638 91.0855 47.3165 90.3535 47.2207 89.7058C47.0401 88.4595 46.4087 87.3227 45.446 86.5109C45.385 86.454 45.3081 86.4172 45.2255 86.4053C45.143 86.3933 45.0588 86.4069 44.9842 86.4441C44.9638 86.4441 44.9493 86.4441 44.929 86.4441C44.5873 86.4921 44.2724 86.6562 44.0373 86.9088C44.2609 86.052 44.5688 85.2648 45.1091 84.8756C45.5418 84.559 45.1236 83.8329 44.6879 84.1495C43.6249 84.9221 43.5261 86.0781 43.2357 87.2922C42.6909 89.442 41.8955 91.5204 40.8656 93.4846C40.6187 93.9609 41.3419 94.3879 41.5888 93.9058C42.3046 92.5451 42.9145 91.1312 43.4128 89.6768C43.5153 89.354 43.5978 89.0251 43.6597 88.6922C43.6597 88.8635 43.6771 89.0378 43.6829 89.2092C43.7991 91.7477 43.9444 94.2833 44.0751 96.8219C44.1041 97.3563 44.9464 97.3621 44.9145 96.8219C44.8535 95.6601 43.834 87.9225 45.0742 87.3067C45.9199 88.1175 46.4159 89.2263 46.4568 90.3971C46.48 91.2104 46.1663 92.0149 46.3958 92.8166C46.6688 93.7983 47.4182 94.2427 48.3766 94.4721C52.623 95.4887 57.3342 95.0937 61.2465 97.397C61.3392 97.4316 61.4412 97.4323 61.5343 97.3988C61.6274 97.3654 61.7057 97.3 61.7552 97.2143C61.8046 97.1286 61.8221 97.0281 61.8045 96.9308C61.7869 96.8334 61.7353 96.7454 61.659 96.6825Z" fill="#A8574F"/>
<path d="M114.214 145.435C114.115 145.435 114.019 145.398 113.946 145.331C113.873 145.265 113.826 145.173 113.816 145.075C111.182 118.539 105.271 116.88 105.21 116.866C105.114 116.839 105.031 116.776 104.978 116.691C104.926 116.605 104.907 116.503 104.926 116.405C104.945 116.306 105 116.218 105.081 116.159C105.161 116.099 105.261 116.071 105.361 116.082C105.625 116.128 111.888 117.56 114.612 144.996C114.623 145.102 114.591 145.207 114.524 145.289C114.457 145.371 114.36 145.424 114.255 145.435H114.214Z" fill="#522626"/>
<path d="M64.7848 133.395C76.6207 135.556 125.335 143.605 136.503 145.449C137.157 145.556 137.755 145.88 138.202 146.369C138.648 146.858 138.916 147.484 138.963 148.145L138.066 209.293C138.196 211.065 128.98 212.358 127.206 212.244C120.014 211.788 107.374 208.564 95.9909 206.772L46.0333 198.962C45.6139 198.899 45.2129 198.747 44.8576 198.515C44.5022 198.284 44.2007 197.979 43.9734 197.621C43.7462 197.263 43.5986 196.86 43.5405 196.44C43.4825 196.02 43.5154 195.592 43.6371 195.186L61.4185 135.452C61.6276 134.754 62.0868 134.159 62.7081 133.779C63.3294 133.4 64.0689 133.263 64.7848 133.395V133.395Z" fill="#FCE7D8"/>
<path d="M107.159 140.175C107.06 140.174 106.965 140.137 106.891 140.071C106.818 140.004 106.772 139.913 106.762 139.814C104.127 113.279 98.2165 111.62 98.1555 111.606C98.059 111.578 97.9763 111.516 97.9237 111.43C97.8712 111.345 97.8525 111.243 97.8715 111.144C97.8905 111.046 97.9457 110.958 98.0262 110.898C98.1067 110.839 98.2067 110.811 98.3065 110.821C98.5708 110.868 104.833 112.3 107.557 139.736C107.567 139.841 107.535 139.946 107.468 140.028C107.402 140.11 107.305 140.163 107.2 140.175H107.159Z" fill="#522626"/>
<path d="M67.4924 129.654C79.3283 131.818 118.278 138.345 129.449 140.189C130.102 140.296 130.7 140.621 131.146 141.11C131.593 141.599 131.861 142.224 131.909 142.884L130.195 203.438C130.326 205.209 123.067 206.028 121.293 206.118C112.55 206.545 100.319 203.304 88.9364 201.512L48.7467 195.224C48.3273 195.161 47.9263 195.008 47.5709 194.777C47.2156 194.546 46.914 194.241 46.6868 193.883C46.4596 193.525 46.312 193.122 46.2539 192.702C46.1959 192.282 46.2288 191.854 46.3504 191.448L64.1319 131.719C64.3397 131.022 64.7974 130.426 65.4175 130.045C66.0375 129.664 66.7763 129.525 67.4924 129.654V129.654Z" fill="#E68215"/>
<path d="M49.2637 91.9913C48.9971 91.7027 48.7934 91.3619 48.6654 90.9904C48.5374 90.6189 48.4879 90.2249 48.5202 89.8333C48.555 89.2931 47.7156 89.296 47.6808 89.8333C47.6488 90.3351 47.7203 90.8382 47.8906 91.3113C48.061 91.7844 48.3267 92.2176 48.6712 92.5839C49.0372 92.9818 49.6268 92.3864 49.2637 91.9913Z" fill="#A8574F"/>
<path d="M63.5716 122.192C63.4742 122.192 63.3802 122.157 63.3069 122.093C63.2337 122.029 63.1863 121.94 63.1736 121.844C60.5392 95.3051 54.6286 93.6495 54.5676 93.635C54.4711 93.6076 54.3884 93.545 54.3358 93.4596C54.2833 93.3741 54.2646 93.2721 54.2836 93.1737C54.3026 93.0752 54.3578 92.9874 54.4383 92.9276C54.5188 92.8678 54.6188 92.8404 54.7186 92.8508C54.9829 92.8973 61.245 94.3263 63.9695 121.765C63.9768 121.869 63.9433 121.972 63.876 122.052C63.8088 122.131 63.7131 122.182 63.6093 122.192H63.5716Z" fill="#522626"/>
<path d="M13.4064 112.151C25.4165 112.836 74.7526 114.823 86.0628 115.276C86.7246 115.302 87.3584 115.551 87.8617 115.981C88.3649 116.412 88.7084 116.999 88.8366 117.649L97.0273 174.125C97.3788 175.867 87.274 181.421 85.5225 181.729C76.899 183.23 64.9324 181.511 53.416 181.148L2.8775 179.55C2.45255 179.539 2.03492 179.437 1.65307 179.25C1.27123 179.064 0.934153 178.797 0.664822 178.468C0.395491 178.139 0.200239 177.756 0.0923766 177.345C-0.0154861 176.933 -0.0334233 176.504 0.0397879 176.085L10.3276 114.614C10.4461 113.896 10.8262 113.247 11.3946 112.792C11.9631 112.337 12.6796 112.109 13.4064 112.151V112.151Z" fill="#FCE7D8"/>
<path d="M20.0059 173.773C21.1309 165.511 22.222 157.242 23.2792 148.966C24.8012 136.938 26.1838 124.893 27.3456 112.825C21.2461 112.552 16.2736 112.314 13.4039 112.151C12.6772 112.109 11.9606 112.337 11.3922 112.792C10.8237 113.247 10.4437 113.896 10.3251 114.614L0.0402198 176.085C-0.0293138 176.502 -0.00850732 176.93 0.101234 177.338C0.210976 177.747 0.407098 178.127 0.676357 178.453C0.945616 178.779 1.28174 179.044 1.66204 179.229C2.04234 179.415 2.45796 179.516 2.88083 179.527L18.8266 180.032C19.2884 177.956 19.7183 175.867 20.0059 173.773Z" fill="#CFDBFF"/>
<path d="M64.3025 173.332C64.5058 165.652 64.7788 157.978 65.0519 150.302C65.4788 138.361 65.9 126.415 66.0713 114.466C60.1868 114.225 53.6778 113.958 47.253 113.685C45.246 125.959 44.3281 138.39 43.512 150.793C43.0356 158.054 42.5942 165.315 41.9784 172.553C41.746 175.286 41.412 178.011 41.0635 180.732L53.4164 181.122C56.4458 181.223 60.2129 181.456 64.2676 181.72C64.2473 178.92 64.227 176.123 64.3025 173.332Z" fill="#CFDBFF"/>
<path d="M186.627 129.433C185.712 131.377 184.91 133.372 184.225 135.408C184.05 135.922 184.861 136.14 185.032 135.632C185.696 133.664 186.472 131.736 187.356 129.857C187.579 129.372 186.856 128.945 186.627 129.433Z" fill="#BF8658"/>
<path d="M223.475 151.833L278.191 154.99C279.933 155.089 280.84 156.991 285.333 184.532L294.02 225.947C295.92 233.209 293.221 234.414 288.911 234.339L240.766 233.069C238.829 233.069 224.068 232.825 223.955 230.891L219.598 155.696C219.568 155.18 219.648 154.663 219.833 154.18C220.017 153.697 220.302 153.258 220.669 152.893C221.035 152.528 221.475 152.245 221.958 152.062C222.442 151.88 222.959 151.801 223.475 151.833Z" fill="#AB8DDD"/>
<path d="M263.585 157.86C263.489 157.859 263.396 157.825 263.323 157.762C263.25 157.699 263.202 157.612 263.187 157.517C259.728 133.79 253.48 123.342 253.416 123.244C253.384 123.199 253.361 123.148 253.349 123.094C253.337 123.04 253.337 122.984 253.348 122.929C253.359 122.875 253.381 122.824 253.412 122.778C253.444 122.733 253.485 122.695 253.532 122.666C253.58 122.637 253.632 122.618 253.687 122.611C253.742 122.604 253.798 122.608 253.851 122.623C253.904 122.638 253.954 122.664 253.997 122.7C254.039 122.735 254.074 122.779 254.099 122.828C254.163 122.933 260.489 133.497 263.974 157.392C263.984 157.445 263.983 157.498 263.971 157.551C263.96 157.603 263.938 157.652 263.907 157.696C263.876 157.739 263.837 157.776 263.792 157.804C263.746 157.832 263.696 157.851 263.643 157.86H263.585Z" fill="#522626"/>
<path d="M141.74 116.961C140.508 123.283 139.869 129.707 139.832 136.148C139.84 136.253 139.888 136.352 139.966 136.423C140.044 136.495 140.146 136.534 140.251 136.534C140.357 136.534 140.459 136.495 140.536 136.423C140.614 136.352 140.662 136.253 140.671 136.148C140.701 129.787 141.325 123.442 142.536 117.196C142.637 116.659 141.83 116.432 141.74 116.961Z" fill="#6E3D3D"/>
<path d="M252.774 119.465C244.78 104.331 236.157 89.5523 226.903 75.1305C226.613 74.6774 225.886 75.0985 226.18 75.5545C235.422 89.9551 244.045 104.732 252.05 119.886C252.3 120.365 253.026 119.941 252.774 119.465Z" fill="#6E3D3D"/>
<path d="M149.495 193.987C147.337 202.569 140.038 208.407 136.262 216.189C136.027 216.674 136.75 217.098 136.985 216.613C140.796 208.77 148.124 202.877 150.303 194.207C150.433 193.684 149.626 193.461 149.495 193.987Z" fill="#6E3D3D"/>
<path d="M170.57 465.909C170.57 464.814 168.984 455.163 167.852 451.465C167.828 451.377 167.771 451.3 167.692 451.253C167.744 450.963 167.521 450.632 167.172 450.768C164.458 451.841 161.867 453.204 159.446 454.835C157.973 453.673 153.158 451.332 152.783 451.596C144.889 457.173 136.57 458.994 128.896 464.835C128.432 465.189 127.348 468.611 127.816 469.25C128.359 470.002 130.139 469.86 130.906 469.857C135.481 469.857 140.05 469.122 144.575 468.529C149.001 467.948 153.416 467.504 157.886 467.614C161.238 467.696 167.03 467.309 169.443 467.132C169.752 467.111 170.04 466.972 170.25 466.745C170.459 466.518 170.574 466.219 170.57 465.909Z" fill="#514A43"/>
<path d="M181.858 268.472C181.547 268.037 180.818 268.455 181.132 268.896C187.284 277.549 189.349 288.066 191.257 298.31C191.356 298.839 192.163 298.601 192.065 298.087C190.145 287.779 188.048 277.183 181.858 268.472Z" fill="#BF8658"/>
<path d="M176.489 376.459C175.446 381.122 174.401 385.785 173.355 390.447C173.332 390.556 173.352 390.67 173.412 390.763C173.472 390.857 173.566 390.923 173.675 390.947C173.784 390.971 173.897 390.951 173.991 390.891C174.085 390.831 174.151 390.736 174.175 390.627C175.22 385.965 176.265 381.302 177.309 376.639C177.32 376.585 177.321 376.53 177.312 376.476C177.302 376.421 177.282 376.37 177.252 376.323C177.192 376.23 177.098 376.164 176.989 376.14C176.935 376.128 176.88 376.127 176.825 376.136C176.771 376.146 176.719 376.166 176.673 376.196C176.579 376.256 176.513 376.351 176.489 376.459V376.459Z" fill="#BF8658"/>
<path d="M195.045 13.7348C194.534 13.9183 193.986 13.9751 193.448 13.9001C192.911 13.8251 192.399 13.6207 191.958 13.3044C191.517 12.9881 191.159 12.5694 190.916 12.0843C190.672 11.5992 190.55 11.0622 190.56 10.5195C190.551 10.4142 190.503 10.3161 190.426 10.2445C190.348 10.173 190.246 10.1333 190.14 10.1333C190.035 10.1333 189.933 10.173 189.855 10.2445C189.777 10.3161 189.729 10.4142 189.721 10.5195C189.711 11.1911 189.863 11.8551 190.164 12.4556C190.465 13.0561 190.905 13.5755 191.449 13.9699C191.993 14.3643 192.623 14.6222 193.287 14.7218C193.952 14.8214 194.63 14.7598 195.265 14.5423C195.765 14.3767 195.559 13.5663 195.045 13.7348Z" fill="#995650"/>
<path d="M216.651 9.86359C215.576 10.0466 214.908 10.552 214.037 11.1271C212.971 11.8445 213.064 11.7399 212.076 10.915C211.575 10.4978 211.036 10.1274 210.467 9.80841C208.185 8.5603 205.538 8.14932 202.985 8.6466C202.454 8.74245 202.695 9.54991 203.206 9.45696C205.751 8.97138 208.385 9.46854 210.578 10.8482C211.487 11.4291 212.55 13.2706 213.796 12.62C214.592 12.2046 214.92 11.3391 215.873 10.9644C217.193 10.4853 218.647 10.5258 219.939 11.0777C222.762 12.2046 224.609 15.2079 224.005 18.2286C223.904 18.7543 224.711 18.9809 224.816 18.4493C225.748 13.7963 221.475 9.03871 216.651 9.86359Z" fill="#995650"/>
<path d="M229.436 13.7958C229.279 13.2788 228.471 13.5054 228.628 14.0166C228.876 14.8002 228.872 15.6415 228.617 16.4228C228.362 17.204 227.87 17.8861 227.208 18.3733C226.778 18.687 227.208 19.4161 227.632 19.0966C228.45 18.513 229.064 17.6876 229.387 16.7366C229.711 15.7856 229.728 14.757 229.436 13.7958V13.7958Z" fill="#995650"/>
<path d="M84.9624 118.617C84.153 139.357 83.2158 160.091 82.1508 180.82C82.1334 181.18 82.6939 181.18 82.7143 180.82C83.7773 160.089 84.7135 139.355 85.5229 118.617C85.5375 118.257 84.9769 118.257 84.9624 118.617Z" fill="#E2B6A3"/>
<path d="M95.6521 172.327C93.526 171.119 90.7144 169.568 88.7451 171.746C86.6974 173.986 85.4107 176.995 84.7485 179.925C84.6672 180.277 85.2103 180.428 85.2888 180.073C85.8053 177.716 86.7653 175.479 88.1177 173.48C89.0152 172.167 89.9214 170.892 91.7251 171.273C93.006 171.546 94.2405 172.185 95.3674 172.827C95.4324 172.852 95.5045 172.853 95.5704 172.83C95.6362 172.807 95.6916 172.761 95.7261 172.7C95.7607 172.639 95.7723 172.568 95.7587 172.5C95.7451 172.431 95.7072 172.37 95.6521 172.327V172.327Z" fill="#E2B6A3"/>
<path d="M127.686 143.822C123.224 163.967 120.273 184.416 118.859 205C118.833 205.36 119.396 205.357 119.419 205C120.834 184.466 123.779 164.066 128.229 143.97C128.307 143.628 127.764 143.468 127.686 143.822Z" fill="#8A502F"/>
<path d="M129.541 202.177C128.504 201.053 126.816 199.202 125.088 199.769C123.36 200.335 122.085 202.816 121.234 204.285C121.214 204.348 121.216 204.415 121.239 204.476C121.262 204.537 121.305 204.589 121.361 204.623C121.418 204.656 121.483 204.67 121.548 204.661C121.613 204.653 121.673 204.623 121.719 204.576C122.442 203.327 123.235 201.962 124.301 200.96C126.067 199.33 127.961 201.3 129.146 202.583C129.387 202.839 129.785 202.441 129.541 202.177Z" fill="#8A502F"/>
<path d="M137.041 150.651C135.333 170.187 133.793 189.737 132.42 209.302C132.394 209.662 132.954 209.659 132.98 209.302C134.357 189.745 135.898 170.194 137.604 150.651C137.636 150.291 137.073 150.308 137.041 150.651Z" fill="#E2B6A3"/>
<path d="M226.57 172.937C225.506 167.604 224.384 162.284 223.203 156.976C223.125 156.622 222.582 156.77 222.66 157.125C226.726 175.481 230.11 193.973 232.811 212.601C233.596 218.048 234.32 223.504 234.984 228.971C235.028 229.325 235.588 229.328 235.545 228.971C233.26 210.188 230.268 191.51 226.57 172.937Z" fill="#563E86"/>
<path d="M233.976 229.549C232.341 228.006 231.121 224.98 228.553 224.768C226.369 224.585 225.504 227.928 225.155 229.555C225.08 229.909 225.62 230.06 225.695 229.706C225.904 228.679 226.26 227.688 226.753 226.763C227.116 226.095 227.235 225.979 228.031 225.683C228.978 225.329 229.37 225.477 230.142 226.055C231.536 227.1 232.318 228.756 233.578 229.947C233.843 230.182 234.24 229.799 233.976 229.549Z" fill="#563E86"/>
</g>
<defs>
<clipPath id="clip0_122_79961">
<rect width="304.974" height="469.422" fill="white" transform="translate(0 0.435059)"/>
</clipPath>
</defs>
</svg>
