<svg width="447" height="511" viewBox="0 0 447 511" fill="none" xmlns="http://www.w3.org/2000/svg">
<circle cx="223.902" cy="309.53" r="200" fill="#C7E6F7"/>
<mask id="mask0_122_80157" style="mask-type:alpha" maskUnits="userSpaceOnUse" x="0" y="24" width="447" height="486">
<ellipse cx="223.902" cy="267.223" rx="223.077" ry="242.308" fill="#C7E6F7"/>
</mask>
<g mask="url(#mask0_122_80157)">
<path d="M226.225 27.3169C213.903 26.6021 201.549 29.6104 191.194 36.2602C188.104 38.2371 182.757 43.1001 182.662 47.3252C182.603 49.9761 185.141 49.9083 187.584 49.2116C185.752 51.9846 182.327 66.4334 186.037 70.2423C191.226 75.5622 199.359 60.0142 203.2 56.5807C209.379 51.0527 213.505 43.661 219.634 38.1285C221.666 36.319 225.891 34.4734 226.361 31.3972C226.451 30.8796 226.421 30.3483 226.274 29.8441C226.126 29.3399 225.865 28.8761 225.511 28.4885C225.75 28.4885 225.963 28.4885 226.225 28.4885C226.981 28.5699 226.976 27.3576 226.225 27.3169Z" fill="#6E1E00"/>
<path d="M184.364 138.292C184.255 140.034 185.829 141.314 187.503 141.323C189.177 141.332 190.778 139.197 190.928 137.704C191.109 135.895 189.851 134.619 188.431 133.764C188.462 133.612 188.445 133.453 188.381 133.311C188.317 133.169 188.21 133.051 188.075 132.974C187.94 132.897 187.784 132.864 187.629 132.881C187.474 132.898 187.329 132.963 187.214 133.067C185.784 134.375 184.499 136.302 184.364 138.292Z" fill="#FF9C71"/>
<path d="M160.334 116.47C165.663 108.074 172.864 101.171 179.094 93.4985C180.451 91.8112 183.124 90.2912 184.337 93.0462C185.626 95.9685 183.341 99.2346 181.889 101.673C180.08 104.713 177.972 107.554 176.32 110.72C174.341 114.469 172.802 118.434 171.733 122.536C171.281 122.676 170.851 122.812 170.403 122.934C167.689 123.694 162.93 125.4 160.243 123.694C157.434 121.907 158.99 118.592 160.334 116.47Z" fill="#FF9C71"/>
<path d="M314.453 362.419C315.846 363.691 317.275 364.939 318.723 366.161C317.942 362.411 316.794 358.747 315.294 355.222C314.335 352.888 312.299 349.893 313.706 347.333C314.928 345.071 317.683 344.537 320.008 344.84C324.341 345.415 328.779 347.555 332.9 348.912C333.425 349.084 334.162 349.414 334.963 349.74C335.749 350.082 336.566 350.35 337.401 350.54C337.773 350.622 338.155 350.64 338.532 350.595C338.704 350.573 338.869 350.514 339.016 350.423C339.175 350.332 339.568 349.138 339.953 348.876C341.803 347.586 345.123 349.02 346.897 349.699C352.371 351.821 356.96 355.744 359.907 360.823C359.97 360.583 360.038 360.37 360.106 360.112C359.654 362.329 359.264 364.206 359.264 364.206C359.264 364.206 354.985 367.979 350.217 372.349C346.426 375.828 341.807 382.351 335.945 381.528C332.109 380.967 328.399 377.877 328.49 373.729C328.49 373.729 323.514 371.784 320.415 369.277C320.333 369.391 320.219 369.476 320.087 369.523C319.955 369.57 319.812 369.576 319.677 369.541C319.542 369.505 319.421 369.429 319.33 369.323C319.239 369.217 319.182 369.086 319.166 368.947C319.139 368.685 319.089 368.422 319.062 368.16C317.171 366.586 315.324 364.975 313.521 363.329C312.906 362.759 313.837 361.84 314.453 362.419Z" fill="#FFB687"/>
<path d="M287.051 266.404C287.051 266.404 287.567 277.795 290.335 285.223C294.492 296.383 301.129 306.859 301.129 306.859L308.932 325.705C308.932 325.705 289.448 338.177 287.928 339.055C286.409 339.932 269.11 337.743 266.264 341.9C263.419 346.057 177.645 338.399 177.645 338.399C177.645 338.399 182.237 322.86 182.458 309.076C182.68 295.292 179.613 274.063 179.613 274.063C179.613 274.063 198.649 255.249 199.517 253.932C200.386 252.616 287.051 266.404 287.051 266.404Z" fill="#FF9A75"/>
<path d="M47.1449 249.137C45.4304 262.445 56.6176 290.334 93.2144 272.877C129.436 255.601 172.379 219.796 172.379 219.796L190.311 157.437C190.311 157.437 167.127 157.889 157.713 162.91C153.76 165.023 148.214 169.026 141.944 174.084L139.478 176.079C114.548 196.544 79.6116 230.956 79.6116 230.956L63.1272 218.701C63.1272 218.701 49.1037 233.896 47.1449 249.137Z" fill="#FFB687"/>
<path d="M262.985 166.851C262.985 166.851 272.178 198.566 272.178 199.874C272.178 201.181 285.296 214.535 285.296 214.535L303.889 216.507L311.28 199.317L311.869 197.938L311.991 197.675C311.991 197.675 324.282 207.98 337.192 220.886C350.103 233.793 365.484 255.09 373.296 265.318C379.417 273.312 424.025 259.84 419.89 248.906C415.755 237.972 402.374 217.828 394.72 206.234C387.066 194.64 362.43 160.495 332.022 138.175C301.116 115.502 277.208 131.258 277.208 131.258L262.985 166.851Z" fill="#FF9A75"/>
<path d="M258.1 51.3513C257.734 50.8537 257.372 50.3697 256.997 49.9083C256.947 49.8327 256.892 49.7602 256.834 49.6911C256.576 49.3609 256.304 49.0307 256.051 48.7185C256.019 48.6902 255.99 48.6584 255.965 48.6235C246.949 37.8073 235.541 33.5143 221.065 34.3105C208.398 35.0072 200.201 41.9013 195.587 51.3513C195.023 52.5154 194.507 53.7217 194.04 54.9703C189.589 66.8088 189.914 81.5878 193.479 93.268C197.098 105.12 204.065 104.016 215.148 106.02C221.089 107.099 227.167 107.19 233.138 106.292C238.092 105.545 245.28 105.048 248.519 100.976C249.057 100.302 251.41 99.8138 252.242 99.3298C253.249 98.7573 254.191 98.0778 255.051 97.3032C257.089 95.5054 258.776 93.3458 260.027 90.9338C261.23 88.6504 262.181 86.2433 262.864 83.7546C265.863 73.0696 264.705 60.3897 258.1 51.3513Z" fill="#6E1E00"/>
<path d="M276.629 137.944C271.477 138.32 266.179 137.944 261.411 135.759C256.377 133.461 252.839 129.2 249.564 124.902C246.742 121.21 244.13 117.364 241.738 113.38C241.543 113.086 241.376 112.779 241.19 112.476C241.145 112.385 241.091 112.29 241.046 112.213C240.806 111.802 240.566 111.403 240.34 110.996C239.134 108.885 237.977 106.755 236.87 104.604C237.635 104.093 238.395 103.546 239.132 102.989C239.87 102.433 239.132 101.343 238.476 101.854C237.82 102.365 237.02 102.921 236.278 103.424C235.563 101.967 234.857 100.488 234.188 99.0085C233.821 98.2485 232.699 98.918 233.039 99.6825C233.722 101.18 234.45 102.673 235.178 104.152C226.307 109.893 210.999 114.701 200.319 114.443C200.203 114.444 200.09 114.474 199.991 114.532C199.891 114.59 199.808 114.673 199.751 114.773C199.694 114.873 199.664 114.986 199.664 115.102C199.664 115.217 199.695 115.33 199.753 115.43C200.527 116.855 201.287 118.284 202.015 119.732C202.467 120.605 202.879 121.482 203.291 122.369C204.553 125.042 205.711 127.748 206.747 130.512C206.987 131.104 207.199 131.692 207.416 132.298C208.136 134.217 208.774 136.153 209.362 138.12C210.266 141.074 213.732 148.946 210.683 151.357C208.339 153.221 204.44 153.687 201.834 155.302C191.041 162.015 199.229 176.387 203.132 185.506C205.326 190.65 207.851 196.992 212.284 200.643C216.382 204.013 222.327 204.09 227.321 203.158C239.933 200.769 246.904 190.102 252.509 179.535C259.073 167.199 264.415 152.393 268.147 139.03C270.963 139.413 273.811 139.488 276.643 139.256C277.471 139.206 277.48 137.885 276.629 137.944Z" fill="#FFB687"/>
<path d="M231.875 113.353C231.875 113.353 214.115 119.555 209.894 119.985C207.264 120.279 204.606 120.192 202 119.727C202.453 120.6 202.865 121.478 203.276 122.364C204.538 125.038 205.696 127.743 206.732 130.507C212.441 130.163 220.489 125.241 224.556 121.532C227.239 119.033 229.688 116.296 231.875 113.353V113.353Z" fill="#FF9C71"/>
<path d="M247.881 65.7635C245.734 59.601 241.743 54.2485 236.449 50.4327C230.514 46.0899 223.009 43.724 215.83 45.0042C211.776 45.7877 207.967 47.5278 204.72 50.0798C203.325 51.1626 202.016 52.353 200.807 53.64C200.49 53.9476 200.205 54.2778 199.902 54.6171C199.323 55.2911 198.767 55.9742 198.242 56.6754C193.958 62.3979 189.738 70.4365 187.123 79.0225C185.178 85.4371 184.142 92.1413 184.689 98.3659C184.689 98.7866 184.757 99.2073 184.811 99.628C184.847 99.8904 184.879 100.144 184.915 100.393C184.983 100.985 185.074 101.542 185.187 102.112C185.777 105.282 186.933 108.32 188.598 111.082C188.95 111.652 189.317 112.195 189.724 112.742C190.564 113.896 191.509 114.97 192.547 115.95C192.764 116.153 192.999 116.357 193.194 116.542C193.646 116.918 194.049 117.27 194.501 117.601C200.789 122.364 208.321 122.703 215.948 121.057C229.288 118.157 240.661 105.269 245.723 93.1139C246.225 91.9105 246.7 90.6665 247.112 89.418C249.64 81.7639 250.428 73.3814 247.881 65.7635Z" fill="#FFB687"/>
<path d="M200.58 115.597C199.676 117.108 197.649 117.257 195.862 117.108C195.496 117.063 195.613 117.063 195.315 117.017C194.745 116.941 194.677 116.393 194.908 116.009C194.985 115.875 195.101 115.768 195.241 115.703C195.381 115.637 195.538 115.616 195.69 115.642C197.739 115.963 199.888 115.801 199.82 113.643C199.784 112.652 198.807 111.128 198.386 110.218C197.526 108.256 196.338 106.456 194.871 104.894C192.587 102.6 187.914 100.904 184.806 99.6283C184.752 99.2076 184.707 98.7869 184.684 98.3662C189.904 100.198 195.862 102.017 199.59 109.775C200.241 111.128 201.503 114.068 200.58 115.597Z" fill="#FF9C71"/>
<path d="M250.668 63.9678C248.918 58.8225 246.021 54.1428 242.195 50.2836L241.95 50.0574C241.656 49.7633 241.362 49.4783 241.046 49.2069L240.842 49.0214C240.145 48.3766 239.411 47.7724 238.644 47.212C232.528 42.6611 222.847 40.5712 215.455 41.9011C211.284 42.6385 207.439 45.0044 204.051 47.6327C213.854 44.1494 224.86 45.8684 234.699 49.6683C234.811 49.703 234.921 49.7438 235.029 49.7905L235.12 49.8267C235.074 50.1343 235.029 50.4419 234.993 50.7585C234.993 50.8264 234.97 50.9078 234.961 50.9847C234.763 52.7087 234.804 54.4517 235.083 56.1644C235.563 59.1636 236.916 61.724 237.974 64.5197C239.272 67.9803 238.544 70.5588 238.033 74.0195C237.305 79.0362 240.467 83.6504 244.411 86.2335C245.554 86.9878 246.658 87.8002 247.718 88.6672C252.246 82.2888 253.282 71.9024 250.668 63.9678Z" fill="#6E1E00"/>
<path d="M270.807 73.8612C270.391 80.4479 267.994 86.7551 263.931 91.956C262.104 94.2227 259.95 96.2047 257.539 97.8368C257.15 98.1037 254.562 99.2392 254.454 99.6463C254.454 99.6463 254.703 98.7054 255.055 97.294C255.96 93.675 257.453 87.0252 256.91 85.659C255.942 83.2388 255.25 80.7146 253.929 78.4618C252.757 76.494 251.133 74.879 249.826 73.0017C247.333 69.4189 246.867 65.2797 245.967 61.0953C245.769 60.216 245.515 59.3502 245.207 58.5032C245.091 58.5087 244.975 58.4821 244.873 58.4262C244.771 58.3704 244.686 58.2874 244.628 58.1865C244.673 58.1051 244.728 58.0463 244.773 57.9558C245.004 57.2411 245.262 56.549 245.524 55.8433C245.526 55.8529 245.531 55.8619 245.537 55.8697C245.544 55.8774 245.551 55.8839 245.56 55.8885C246.424 54.3052 247.243 52.6902 248.062 51.0662C248.107 50.9984 248.139 50.9079 248.175 50.84C247.912 50.5641 247.627 50.2927 247.347 50.0212L247.071 49.7453C247.037 49.7247 247.006 49.6987 246.981 49.6684L246.139 48.8948C246.058 48.8134 245.967 48.7456 245.877 48.6641C243.857 46.9089 241.676 45.3488 239.363 44.0047C236.133 42.1048 232.889 40.1822 229.171 39.5579C225.452 38.9336 221.679 39.377 218.029 40.0329C214.776 40.6165 211.171 41.0914 208.271 42.7969C205.448 44.4707 203.481 47.2889 201.345 49.7001C200.115 51.0572 195.849 51.3603 195.578 51.3738C195.578 51.3738 200.513 39.5217 205.666 34.713C210.204 30.6043 215.931 28.0443 222.019 27.4027C226.748 26.9647 231.517 27.4361 236.069 28.7915C242.425 30.6236 249.989 33.944 253.983 39.4584C255.813 42.0119 256.987 44.9758 257.403 48.0896C257.425 48.1758 257.44 48.2635 257.448 48.352C257.448 48.4877 257.485 48.6144 257.485 48.741C257.488 48.8013 257.488 48.8617 257.485 48.922C257.679 49.0215 257.869 49.112 258.055 49.216L258.394 49.4105C258.738 49.5835 259.072 49.7769 259.394 49.9896C263.08 52.161 266.365 55.1511 268.378 59.0098C270.626 63.2486 271.092 69.1656 270.807 73.8612Z" fill="#6E1E00"/>
<path d="M229.695 95.2223C227.646 99.253 227.791 104.505 230.645 108.011C232.281 109.945 234.503 111.293 236.974 111.851C238.981 112.308 241.064 112.33 243.08 111.915C245.097 111.501 247.002 110.66 248.667 109.449C252.001 106.971 254.25 103.302 254.946 99.2077C255.851 94.0235 253.634 87.8984 248.69 86.089C245.922 85.0892 242.687 85.4828 239.643 86.7042C235.345 88.4322 231.437 91.7888 229.695 95.2223Z" fill="#FFB687"/>
<path d="M213.112 74.9244C213.376 74.021 213.797 73.1712 214.356 72.4137C214.578 72.0739 214.869 71.7839 215.209 71.562C215.549 71.3401 215.932 71.1911 216.332 71.1244C217.576 71.034 218.594 72.3006 218.649 73.5446C218.657 74.5047 218.382 75.446 217.858 76.2506C217.335 77.0552 216.585 77.6875 215.704 78.0683C215.404 78.1982 215.078 78.2568 214.751 78.2395C214.425 78.2222 214.106 78.1296 213.822 77.9688C212.818 77.3038 212.781 76.096 213.112 74.9244Z" fill="#13041F"/>
<path d="M195.931 71.3732C196.2 70.4707 196.626 69.6224 197.188 68.8671C197.41 68.5267 197.701 68.2363 198.041 68.0144C198.381 67.7924 198.764 67.6437 199.165 67.5778C200.409 67.4873 201.427 68.754 201.481 69.998C201.489 70.958 201.214 71.899 200.69 72.7035C200.167 73.508 199.417 74.1404 198.536 74.5217C198.236 74.6516 197.91 74.7101 197.584 74.6929C197.257 74.6756 196.939 74.583 196.655 74.4222C195.641 73.7527 195.6 72.5448 195.931 71.3732Z" fill="#13041F"/>
<path d="M238.453 98.9361C238.792 98.158 239.715 97.7871 240.325 97.2849C241.683 96.163 242.655 94.7064 242.728 92.8879C242.759 92.0465 244.085 92.0419 244.039 92.8879C244.002 94.3767 243.467 95.8099 242.519 96.9592C242.017 97.5835 241.334 97.9997 240.8 98.5787C240.642 98.7506 240.348 98.8185 240.199 99.0311C239.425 100.23 240.461 101.293 241.33 101.863C242.031 102.315 241.37 103.464 240.665 102.998C239.538 102.216 237.797 100.438 238.453 98.9361Z" fill="#13041F"/>
<path d="M201.522 76.9737C204.096 73.8071 204.874 70.2741 204.838 66.2797C204.797 61.7107 203.616 57.1418 200.807 53.6133C200.495 53.9299 200.205 54.2556 199.902 54.5994C203.494 59.2679 204.168 65.8137 203.069 71.5588C202.517 73.5543 201.497 75.3891 200.092 76.9104C199.102 78.0096 197.794 78.9144 197.247 80.3439C196.066 83.429 198.916 85.7361 201.173 87.2471C201.784 87.6587 202.354 86.6725 201.748 86.2654C199.604 84.8269 197.355 82.9133 198.708 80.1946C199.31 78.9777 200.653 78.0594 201.522 76.9737Z" fill="#B75C3B"/>
<path d="M194.613 92.8924C197.328 91.3905 201.752 91.0603 204.222 93.2181C204.86 93.7745 203.928 94.7019 203.294 94.1455C201.322 92.4264 197.414 92.8517 195.278 94.0233C194.537 94.435 193.876 93.2995 194.613 92.8924Z" fill="#13041F"/>
<path d="M218.161 62.0455C219.233 65.3885 222.232 67.2613 225.236 68.6773C226.001 69.0346 225.336 70.1701 224.576 69.8127C221.215 68.2339 218.075 66.0806 216.885 62.3938C216.619 61.5931 217.903 61.2358 218.161 62.0455Z" fill="#6E1E00"/>
<path d="M163.612 151.614C162.517 151.832 155.601 155.342 153.208 159.716C150.815 164.091 113.322 228.11 113.322 228.11C113.322 228.11 78.9555 250.231 78.2996 250.43C77.6437 250.629 58.8477 223.953 58.8477 223.953C58.8477 223.953 90.7941 184.57 113.132 161.811C127.219 147.448 150.032 124.418 150.032 124.418L163.612 151.614Z" fill="#FFB687"/>
<path d="M335.979 459.634C332.989 467.265 329.682 473.155 331.387 481.524C332.351 486.337 334.025 490.956 334.056 495.923C334.093 500.293 332.817 504.238 331.623 508.377C330.428 512.516 329.736 516.099 329.885 520.419C330.053 525.662 331.057 530.824 330.238 536.067C329.864 538.495 329.03 540.83 327.782 542.947C322.697 551.614 311.37 556.233 302.123 559.042C282.744 564.873 262.595 562.34 243.103 558.631C242.058 558.436 240.954 558.21 240.144 557.482C237.914 555.482 239.271 543.232 239.153 540.129C238.905 532.588 238.611 525.038 238.348 517.51C237.747 500.347 237.348 465.981 237.348 465.981L237.312 466.049C237.19 466.297 236.72 467.229 236.073 468.519C234.404 471.816 231.572 477.408 230.387 479.629C228.342 483.483 222.244 490.567 221.905 494.969C221.597 498.927 222.212 502.917 221.687 506.866C221.176 510.661 219.448 512.959 216.992 515.687C214.694 518.234 214.278 520.695 214.146 524.061C214.004 529.435 212.131 534.62 208.804 538.844C207.673 540.342 206.4 541.728 205.004 542.983C200.408 547.168 194.667 549.864 188.673 551.388C171.32 555.799 147.055 550.194 129.458 547.715C125.183 547.109 117.981 542.825 117.538 542.549C117.538 542.549 118.565 533.873 119.04 530.665C120.017 523.988 121.112 517.334 122.283 510.693H122.247C123.921 499.836 126.956 488.979 129.092 478.177C136.556 440.399 145.074 409.059 157.193 372.688C161.165 360.768 169.624 345.189 172.967 333.065C174.003 333.065 174.89 332.997 175.093 332.409C175.265 331.957 175.414 331.504 175.546 331.052C177.838 323.792 179.396 316.321 180.196 308.75C180.196 308.75 211.016 314.002 239.23 311.686C277.885 308.52 302.598 299.354 302.598 299.354C306.394 305.077 312.026 315.69 316.129 325.14C316.323 325.592 316.518 326.004 316.69 326.447C320.838 336.671 324.715 347.03 328.153 357.547C329.551 362.234 328.537 367.011 329.7 371.775C334.201 390.281 331.405 409.679 335.327 428.321C337.616 439.345 340.304 448.614 335.979 459.634Z" fill="#A2AFDE"/>
<path d="M257.734 343.872C257.865 343.157 256.77 342.854 256.635 343.574C253.364 360.976 250.043 378.628 250.813 396.42C251.183 404.978 253.206 413.433 253.138 422.01C253.079 429.379 251.247 447.194 240.299 445.669C239.585 445.57 239.273 446.664 239.996 446.764C248.166 447.899 251.591 439.25 253.043 432.74C255.128 423.444 253.785 414.428 252.667 405.119C250.206 384.586 253.938 364.075 257.734 343.872Z" fill="#13041F"/>
<path d="M240.01 421.06C240.349 426.335 240.648 431.637 240.363 436.934C240.092 441.802 239.101 446.398 237.938 451.129C236.699 456.178 237.224 460.955 237.314 466.026C237.192 466.275 236.721 467.207 236.075 468.496C236.111 465.935 236.02 463.375 235.903 460.76C235.676 455.884 236.721 451.641 237.839 446.931C240.349 436.265 239.078 425.254 238.463 414.451C237.282 393.877 239.476 373.046 243.534 352.884C243.683 352.164 244.765 352.495 244.629 353.214C242.171 365.371 240.544 377.681 239.761 390.059C239.195 400.388 239.278 410.742 240.01 421.06V421.06Z" fill="#13041F"/>
<path d="M337.192 350.866L344.186 355.091L359.264 364.229C359.264 364.229 396.783 333.839 409.151 313.907C425.789 287.123 429.263 269.295 419.877 248.92C409.649 226.708 374.518 196.599 374.518 196.599C374.518 196.599 369.37 259.962 369.36 260.089C369.329 260.442 370.632 261.785 370.831 262.097C372.131 264.053 373.063 266.23 373.581 268.521C374.594 273.425 373.251 279.197 372.283 284.069C367.42 308.533 351.677 329.876 337.758 350.052C337.613 350.26 337.495 350.418 337.4 350.549C337.269 350.762 337.192 350.866 337.192 350.866Z" fill="#FFB687"/>
<path d="M330.538 375.873C331.443 375.656 332.217 376.013 333.09 376.199C333.452 376.271 333.804 376.348 334.157 376.434C333.644 375.664 332.895 375.082 332.022 374.774C332.336 373.472 333.036 372.296 334.031 371.399C334.755 370.747 335.347 369.962 335.777 369.087C336.51 367.486 336.55 365.636 336.351 363.93C335.816 359.631 334.18 355.542 331.601 352.06C329.38 349.01 326.292 346.699 322.739 345.428C319.283 344.275 314.294 343.868 310.923 345.51C307.128 347.346 304.215 352.205 302.111 355.697C300.854 357.796 297.28 363.483 299.488 366.016C301.51 368.341 304.043 363.808 304.916 362.641C306.51 360.413 308.381 358.397 310.485 356.643C311.196 356.062 311.953 355.539 312.747 355.077C311.323 356.913 310.007 358.83 308.806 360.818V360.818C306.689 364.283 304.839 367.934 303.066 371.571C301.781 374.222 298.746 379.714 301.139 382.6C301.384 382.954 301.735 383.221 302.141 383.362C302.548 383.504 302.989 383.512 303.401 383.387C303.857 383.267 304.285 383.056 304.658 382.767C304.595 383.07 304.541 383.36 304.504 383.622V383.681C304.265 385.518 304.767 386.766 306.549 386.847C309.978 386.965 312.163 381.908 313.629 379.61C318.822 371.467 323.802 370.046 323.802 370.046C323.802 370.046 318.935 375.801 317.044 378.741C315.759 380.763 312.606 384.061 314.85 386.25C316.718 388.06 319.374 385.083 320.487 383.681C322.242 381.487 326.367 375.877 330.552 375.85L330.538 375.873Z" fill="#FFB687"/>
<path d="M304.616 382.776C304.553 383.079 304.498 383.369 304.462 383.631C306.362 379.822 308.398 376.095 310.922 372.838C315.07 367.522 318.576 359.719 326.018 358.751C326.846 358.647 326.859 357.335 326.018 357.439C319.101 358.344 315.672 364.175 311.917 369.373C309.484 372.631 307.286 376.058 305.34 379.628C304.684 380.885 304.014 382.134 303.358 383.396C303.815 383.276 304.243 383.066 304.616 382.776V382.776Z" fill="#442161"/>
<path d="M334.962 349.753C338.213 351.837 341.275 354.201 344.114 356.819C344.729 357.394 345.661 356.462 345.046 355.887C344.756 355.62 344.467 355.349 344.177 355.096C342.381 353.495 340.496 351.996 338.532 350.608C338.283 350.409 338.02 350.242 337.758 350.056C337.613 350.264 337.496 350.423 337.401 350.554C336.565 350.363 335.749 350.095 334.962 349.753V349.753Z" fill="#442161"/>
<path d="M308.793 360.818C308.868 360.772 308.935 360.713 308.992 360.646C312.249 356.552 315.624 350.907 321.658 351.522C322.495 351.612 322.482 350.3 321.658 350.21C316.655 349.699 313.335 353.06 310.471 356.643C311.183 356.062 311.939 355.539 312.733 355.077C311.31 356.913 309.994 358.83 308.793 360.818V360.818Z" fill="#442161"/>
<path d="M150.056 137.736C150.748 139.853 151.467 142.07 152.562 144.01C153.897 146.385 153.652 153.117 158.488 152.741C163.324 152.366 167.879 150.027 171.824 146.987C176.629 143.31 180.584 138.639 183.418 133.294C185.065 134.633 186.941 135.661 188.955 136.329C187.761 139.45 186.838 143.115 188.422 145.607C190.005 148.1 191.588 145.978 192.538 144.354C194.049 141.721 195.976 139.003 197.139 136.211C197.541 135.234 197.917 134.515 197.455 133.497C197.14 132.897 196.688 132.379 196.134 131.986C196.134 131.986 196.134 131.946 196.134 131.928C196.306 131.475 196.478 131.023 196.65 130.534C197.409 128.509 198.058 126.445 198.595 124.35C198.88 123.124 199.183 121.283 198.292 120.22C198.231 120.146 198.163 120.078 198.089 120.017C197.472 119.546 196.724 119.28 195.949 119.257C195.976 118.94 195.99 118.623 196.003 118.293C196.003 118.062 196.003 117.818 196.003 117.587C196.011 116.961 195.958 116.335 195.845 115.719C196.197 115.797 196.554 115.855 196.913 115.891C198.003 115.991 199.025 115.791 199.428 114.869C200.133 113.258 198.003 110.883 197.315 109.603C195.958 107.056 194.999 104.93 192.439 103.492C189.516 101.822 186.051 99.8228 182.758 99.0176C176.384 97.4478 171.566 104.799 167.653 108.612C161.741 114.367 149.196 125.097 149.196 125.097C149.196 125.097 149.255 126.191 149.586 126.454C148.246 130.186 148.807 133.909 150.056 137.736ZM177.714 113.702C177.714 113.702 178.406 111.77 178.664 111.268C179.673 109.255 181.256 107.929 183.785 108.477C185.526 108.866 188.363 109.209 190.317 111.268C190.715 111.674 191.058 112.131 191.339 112.625C190.991 112.652 190.575 112.67 190.132 112.711C188.39 112.797 186.114 112.928 184.979 113.014C182.925 113.163 177.714 113.702 177.714 113.702Z" fill="#FFB687"/>
<path d="M195.871 115.701C195.986 116.316 196.04 116.94 196.034 117.565C195.582 116.289 195.157 114.927 193.985 114.131C192.669 113.391 191.219 112.919 189.719 112.742C189.312 112.195 188.946 111.652 188.593 111.082C190.23 111.308 192.37 111.698 194.293 112.847C195.434 113.595 196.35 114.64 196.944 115.868C196.583 115.836 196.225 115.781 195.871 115.701V115.701Z" fill="#FF9C71"/>
<path d="M181.373 118.922C186.973 118.808 192.572 119.168 198.111 119.999C197.595 119.524 196.451 118.877 196.469 118.547C191.614 117.911 186.717 117.647 181.821 117.755C180.88 117.769 180.428 118.936 181.373 118.922Z" fill="#FF9C71"/>
<path d="M185.372 124.056C188.991 126.63 192.578 129.263 196.147 131.91C196.319 131.457 196.455 131.213 196.627 130.738C193.121 128.146 189.611 125.572 186.055 123.048C185.99 122.988 185.913 122.944 185.829 122.917C185.745 122.891 185.656 122.882 185.569 122.893C185.481 122.903 185.397 122.933 185.322 122.978C185.247 123.024 185.182 123.086 185.133 123.159C185.083 123.232 185.05 123.314 185.035 123.401C185.021 123.488 185.025 123.577 185.048 123.662C185.07 123.747 185.111 123.826 185.167 123.894C185.223 123.963 185.293 124.018 185.372 124.056V124.056Z" fill="#FF9C71"/>
<path d="M177.375 335.241C189.371 339.43 201.753 342.37 214.469 343.551C230.958 345.103 247.592 343.945 263.913 341.348C279.708 338.833 295.307 335.217 310.598 330.527C311.48 330.251 312.371 329.975 313.249 329.686C313.081 329.279 312.896 328.876 312.71 328.478C309.575 329.518 306.377 330.423 303.211 331.292C272.2 339.76 239.453 346.021 207.276 341.398C197.232 339.895 187.359 337.41 177.8 333.979C177.673 334.4 177.528 334.825 177.375 335.241Z" fill="#13041F"/>
<path d="M276.193 274.573H276.035L276.18 274.61C276.185 274.605 276.189 274.6 276.191 274.593C276.194 274.587 276.194 274.58 276.193 274.573V274.573Z" fill="white"/>
<path d="M241.737 113.367C240.02 113.313 238.312 113.081 236.643 112.675C235.909 112.448 235.149 112.317 234.381 112.286C232.061 112.367 229.704 115.552 227.93 116.995C224.311 119.94 220.448 122.328 215.866 123.355C215.697 123.401 215.516 123.377 215.364 123.29C215.212 123.203 215.102 123.058 215.056 122.889C215.01 122.72 215.034 122.54 215.121 122.388C215.209 122.236 215.353 122.125 215.522 122.079C222.145 120.193 227.808 115.448 233.069 110.77C233.152 110.685 233.257 110.624 233.371 110.594C233.486 110.564 233.607 110.565 233.721 110.598C234.958 111.105 236.241 111.49 237.552 111.747C238.71 111.993 239.885 112.145 241.067 112.2C241.113 112.277 241.167 112.372 241.212 112.462C241.375 112.765 241.542 113.073 241.737 113.367Z" fill="#FF9C71"/>
<path d="M368.984 220.61C365.993 249.983 361.203 259.175 349.731 258.157L349.079 258.089C337.141 256.669 338.562 243.021 332.02 245.296C330.477 245.885 328.81 246.074 327.174 245.847C325.538 245.62 323.986 244.984 322.661 243.998C322.253 243.694 321.873 243.355 321.525 242.985C321.525 242.985 317.906 302.449 317.282 309.56C316.658 316.671 322.367 320.648 322.082 328.324C321.629 340.412 301.87 351.884 293.035 356.57C274.293 366.523 252.869 369.761 231.874 370.141C219.059 370.372 206.162 370.594 193.423 368.983C183.824 367.767 166.24 366.129 162.264 355.439C160.11 349.649 163.082 343.429 163.621 337.584C164.951 323.366 172.252 315.531 167.421 296.767C162.589 278.003 163.236 266.065 163.236 266.065H163.214C163.123 266.164 162.702 266.607 161.997 267.259C159.245 269.805 156.138 271.938 152.773 273.592C146.943 276.415 140.849 278.654 134.578 280.278C119.442 284.191 115.905 292.696 108.64 288.466C108.004 288.108 107.398 287.698 106.83 287.24C98.235 280.414 100.384 269.272 100.384 269.272L120.817 220.628L147.761 169.112C147.761 169.112 154.514 161.621 162.44 159.4C177.305 155.238 182.059 159.536 193.626 156.604L194.328 156.432L195.477 156.138L205.759 153.515C205.759 153.515 206.818 162.44 228.378 159.721C248.164 157.233 260.528 135.329 260.528 135.329C263.49 134.971 266.426 134.419 269.317 133.678C269.819 133.556 270.308 133.416 270.796 133.28C273.58 132.475 276.289 131.432 278.894 130.163C284.467 127.449 294.338 124.468 300.739 124.445C310.406 124.409 321.779 128.223 331.731 135.795C341.683 143.368 367.744 171.46 367.744 171.46C367.744 171.46 372.005 190.998 368.984 220.61Z" fill="#FCE7D8"/>
<path d="M124.75 254.796C124.533 265.703 122.42 276.46 116.313 283.295C113.504 286.462 110.944 288.027 108.623 288.457C107.987 288.099 107.382 287.689 106.813 287.231C98.2184 280.405 100.367 269.263 100.367 269.263L120.801 220.633C122.352 227.31 125.021 241.184 124.75 254.796Z" fill="#FBD2A8"/>
<path d="M124.75 254.796C116.825 259.957 108.533 264.974 100.404 269.231L108.546 241.288L120.828 220.601C122.353 227.31 125.022 241.184 124.75 254.796Z" fill="#FFB687"/>
<path d="M368.985 220.61C367.47 235.439 365.502 245.129 362.444 250.951C359.454 256.66 355.419 258.664 349.732 258.162C339.608 253.443 336.614 238.316 338.324 222.031C339.32 212.789 341.653 203.741 345.249 195.169C355.066 172.098 367.312 171.469 367.746 171.46C367.746 171.46 367.746 171.483 367.746 171.492C367.949 172.369 371.939 191.677 368.985 220.61Z" fill="#FBD2A8"/>
<path d="M373.296 265.314C370.496 261.654 366.719 256.569 362.439 250.951C355.115 241.365 346.312 230.232 338.319 222.031C339.316 212.789 341.649 203.741 345.245 195.169C355.061 172.098 367.307 171.469 367.741 171.46C367.741 171.46 367.741 171.483 367.741 171.492C377.499 182.448 386.499 194.055 394.68 206.234C402.334 217.824 415.688 237.954 419.85 248.906C424.011 259.858 379.412 273.302 373.296 265.314Z" fill="#FFB687"/>
<path d="M106.755 252.597C106.675 252.597 106.597 252.58 106.524 252.548C106.456 252.517 106.394 252.474 106.343 252.419C106.292 252.365 106.252 252.301 106.225 252.232C106.199 252.162 106.186 252.087 106.189 252.013C106.191 251.938 106.208 251.865 106.239 251.797L119.625 222.049C119.655 221.98 119.698 221.918 119.752 221.866C119.806 221.815 119.87 221.774 119.94 221.747C120.01 221.72 120.084 221.707 120.159 221.709C120.234 221.712 120.308 221.728 120.376 221.759C120.513 221.822 120.62 221.937 120.673 222.078C120.727 222.22 120.722 222.377 120.661 222.515L107.275 252.263C107.229 252.362 107.156 252.447 107.064 252.506C106.972 252.565 106.865 252.597 106.755 252.597V252.597Z" fill="#3B224F"/>
<path d="M231.94 461.489C216.315 441.032 191.381 430.908 166.704 426.493C165.989 426.362 165.681 427.461 166.405 427.588C190.752 431.944 215.528 441.856 230.958 462.063C231.397 462.633 232.383 462.068 231.94 461.489Z" fill="#13041F"/>
<path d="M223.357 445.031C208.058 427.939 187.9 415.932 165.585 410.62C164.875 410.448 164.571 411.547 165.282 411.714C187.406 416.978 207.391 428.885 222.552 445.837C223.04 446.384 223.855 445.574 223.357 445.031Z" fill="#13041F"/>
<path d="M270.807 133.28C268.801 137.579 266.426 141.696 263.709 145.585C254.44 158.767 240.249 168.886 224.167 169.592C212.944 170.081 201.549 165.249 194.347 156.424L195.496 156.13C205.629 168.262 223.371 171.23 237.987 165.385C252.395 159.631 262.528 147.566 269.328 133.678C269.83 133.556 270.318 133.416 270.807 133.28Z" fill="#13041F"/>
<path d="M163.211 266.065C163.121 266.164 162.7 266.607 161.994 267.259C162.37 261.505 162.383 255.737 161.311 250.069C159.778 241.98 156.435 234.258 153.58 226.582L144.239 201.516C143.976 200.824 145.08 200.525 145.329 201.208C148.58 209.93 151.825 218.646 155.064 227.355C158.041 235.335 161.51 243.365 162.754 251.851C163.378 256.562 163.531 261.323 163.211 266.065Z" fill="#13041F"/>
<path d="M158.261 241.718C151.202 229.331 142.926 217.678 133.557 206.931C133.078 206.379 132.277 207.189 132.757 207.736C142.058 218.412 150.272 229.988 157.28 242.292C157.361 242.412 157.484 242.496 157.625 242.528C157.766 242.56 157.914 242.537 158.039 242.464C158.164 242.391 158.256 242.273 158.297 242.135C158.339 241.996 158.326 241.847 158.261 241.718V241.718Z" fill="#13041F"/>
<path d="M334.234 186.185C332.876 194.807 329.71 202.923 327.077 211.206C324.422 219.708 322.968 228.539 322.757 237.443C322.698 239.628 322.666 241.808 322.675 243.993C322.268 243.69 321.888 243.351 321.54 242.98C321.54 241.13 321.563 239.298 321.621 237.443C321.805 228.779 323.174 220.181 325.693 211.889C328.344 203.248 331.732 194.843 333.152 185.868C333.238 185.163 334.333 185.47 334.234 186.185Z" fill="#13041F"/>
<path d="M299.474 339.937C260.498 334.25 220.332 323.927 190.579 296.595C190.041 296.102 189.222 296.903 189.779 297.4C219.676 324.873 259.987 335.318 299.171 341.031C299.886 341.158 300.193 340.041 299.474 339.937Z" fill="#13041F"/>
<path d="M258.081 49.216C254.462 49.3517 249.825 49.5824 247.07 49.7272L245.636 49.8086C244.41 49.8765 243.18 49.9579 241.963 50.0574C241.511 50.0936 241.058 50.1388 240.633 50.1705C238.756 50.3288 236.883 50.5369 235.015 50.7631C235.051 50.4465 235.096 50.1388 235.141 49.8312L235.051 49.795C234.943 49.7484 234.833 49.7076 234.721 49.6729C236.313 49.4648 237.914 49.2974 239.529 49.1481C239.982 49.1029 240.434 49.0577 240.887 49.0215C242.081 48.9084 243.284 48.8179 244.465 48.741L245.899 48.646C248.789 48.4877 253.725 48.2389 257.43 48.0896C257.451 48.1758 257.467 48.2635 257.475 48.352C257.475 48.4877 257.511 48.6143 257.511 48.741C257.515 48.8013 257.515 48.8617 257.511 48.922C257.706 49.0215 257.896 49.112 258.081 49.216Z" fill="#13041F"/>
</g>
<g clip-path="url(#clip0_122_80157)">
<path d="M110.478 39.4029C109.902 56.698 87.9313 75.7226 81.9241 88.4519C81.5962 89.1432 81.0785 89.7271 80.4313 90.1354C79.7842 90.5437 79.0343 90.7596 78.2691 90.7579C68.0304 90.7579 62.323 90.6599 59.2041 90.5849C58.184 90.5613 57.2106 90.1521 56.4801 89.4397C55.7495 88.7273 55.3159 87.7646 55.2666 86.7454C54.976 77.9834 57.8056 69.4027 63.2512 62.5322C72.6655 50.5583 80.3676 41.6167 77.831 34.6468C74.7294 26.1203 63.2512 34.0184 56.9096 40.3541C54.9092 42.3546 51.3349 41.1209 49.5477 38.9244L40.3409 27.6076C38.5538 25.4112 39.3436 22.7074 40.4562 20.1131C44.2323 11.1946 54.5517 -0.341261 79.9064 2.19536C105.866 4.78962 111.113 21.0182 110.478 39.4029ZM84.6452 110.947C88.0697 117.479 86.5131 128.992 75.623 134.284C64.7328 139.576 52.9433 130.825 51.9863 123.705C51.0524 116.856 51.1331 107.747 61.5505 102.617C66.5257 100.558 78.1077 99.7456 84.6452 110.947Z" fill="#C7E6F7"/>
</g>
<g clip-path="url(#clip1_122_80157)">
<path d="M370.107 57.3248C369.795 66.6812 357.91 76.9732 354.66 83.8595C354.483 84.2335 354.202 84.5494 353.852 84.7702C353.502 84.9911 353.097 85.1079 352.683 85.107C347.144 85.107 344.056 85.054 342.369 85.0134C341.817 85.0007 341.29 84.7793 340.895 84.3939C340.5 84.0085 340.265 83.4877 340.239 82.9363C340.081 78.1962 341.612 73.5542 344.558 69.8374C349.651 63.3597 353.818 58.5224 352.446 54.7518C350.768 50.1391 344.558 54.4119 341.128 57.8394C340.045 58.9216 338.112 58.2542 337.145 57.066L332.164 50.9438C331.197 49.7555 331.625 48.2928 332.227 46.8893C334.269 42.0646 339.852 35.8239 353.568 37.1961C367.612 38.5996 370.45 47.379 370.107 57.3248ZM356.132 96.029C357.985 99.5626 357.143 105.791 351.251 108.654C345.36 111.517 338.982 106.783 338.464 102.931C337.959 99.2258 338.003 94.2981 343.638 91.5223C346.33 90.4089 352.595 89.9692 356.132 96.029Z" fill="#C7E6F7"/>
</g>
<defs>
<clipPath id="clip0_122_80157">
<rect width="71.2443" height="134.066" fill="white" transform="translate(39.2856 1.83789)"/>
</clipPath>
<clipPath id="clip1_122_80157">
<rect width="38.542" height="72.5275" fill="white" transform="translate(331.595 37.0027)"/>
</clipPath>
</defs>
</svg>
