<svg width="384" height="519" viewBox="0 0 384 519" fill="none" xmlns="http://www.w3.org/2000/svg">
<path d="M313.923 492.543C314.289 501.243 299.099 507.251 289.823 509.478C276.497 512.677 262.612 514.567 248.877 516.057C222.619 518.904 196.081 519.548 169.667 517.98C145.635 516.551 120.719 513.875 99.5328 503.656C95.7067 501.811 91.9643 499.52 89.9845 496.229C84.1767 486.563 99.2001 480.117 108.015 477.742C120.207 474.46 132.65 471.859 145.261 469.956C172.348 465.869 200.11 464.811 227.542 466.6C251.349 468.152 281.916 470.448 302.99 480.545C305.934 481.956 308.736 483.668 310.77 485.927C312.881 488.278 313.839 490.486 313.923 492.543Z" fill="#C7E6F7"/>
<path d="M157.012 465.854C158.317 461.739 159.625 457.633 160.936 453.535C161.72 451.066 162.3 447.671 164.291 445.819C166.123 444.11 168.135 444.727 170.318 445.352C174.374 446.497 178.423 447.68 182.476 448.841C183.187 449.047 182.997 450.103 182.343 450.054C180.555 457.329 178.289 464.479 175.559 471.455C175.529 471.542 175.476 471.62 175.406 471.681C175.336 471.741 175.252 471.782 175.161 471.8C175.07 471.817 174.976 471.81 174.889 471.78C174.802 471.749 174.724 471.696 174.664 471.626C174.585 471.628 174.506 471.615 174.432 471.588C168.955 469.564 170.566 478.265 164.84 477.132C164.47 477.222 156.84 466.753 156.87 466.338C156.857 466.165 156.907 465.993 157.012 465.854V465.854Z" fill="#FFB687"/>
<path d="M150.558 484.106C150.771 482.831 154.494 471.899 156.532 467.814C156.577 467.715 156.658 467.637 156.759 467.598C156.755 467.249 157.08 466.907 157.459 467.134C160.412 468.911 163.163 471.002 165.666 473.371C167.606 472.305 173.669 470.515 174.054 470.895C182.163 478.924 191.497 482.662 199.297 490.955C199.77 491.458 200.366 495.653 199.697 496.307C198.919 497.077 196.873 496.565 195.98 496.413C190.653 495.523 185.476 493.78 180.321 492.21C175.279 490.673 170.225 489.297 164.998 488.557C161.079 488 154.409 486.424 151.633 485.749C151.278 485.664 150.969 485.446 150.769 485.141C150.569 484.835 150.494 484.465 150.558 484.106Z" fill="#514A43"/>
<path d="M154.888 458.967C154.599 458.786 154.366 458.541 154.208 458.251C154.051 457.962 153.973 457.637 153.982 457.304C154.121 450.677 156.029 434.444 156.581 429.558C158.853 409.499 163.487 389.501 161.361 369.481C159.206 349.174 153.861 329.188 149.691 309.273L143.051 277.546C142.095 273.014 141.147 268.48 140.205 263.945C139.373 259.956 138.281 255.77 139.531 251.634C141.745 244.274 149.857 239.714 157.184 237.618C166.244 235.024 175.667 235.445 184.21 238.381C184.292 238.402 184.368 238.438 184.433 238.488C184.499 238.537 184.552 238.599 184.59 238.669C184.629 238.739 184.652 238.816 184.657 238.896C184.663 238.977 184.652 239.058 184.624 239.136C184.533 239.463 184.534 239.802 184.625 240.12C184.716 240.438 184.896 240.724 185.145 240.95C185.407 241.194 185.653 241.452 185.905 241.714C185.997 241.814 186.101 241.904 186.215 241.983C209.662 257.757 202.123 293.309 203.18 317.541C204.029 337.129 208.007 370.162 201.088 396.488C196.346 414.54 184.865 446.719 177.841 465.015C177.652 465.498 177.281 465.908 176.801 466.168C176.321 466.428 175.765 466.519 175.24 466.423C167.93 465.204 161.021 462.673 154.888 458.967Z" fill="#A2AFDE"/>
<path d="M206.295 472.888C206.905 468.614 207.519 464.348 208.137 460.091C208.505 457.526 208.518 454.081 210.176 451.927C211.702 449.94 213.788 450.218 216.045 450.474C220.233 450.936 224.422 451.436 228.611 451.914C229.346 452 229.333 453.073 228.679 453.133C228.114 460.603 227.056 468.028 225.512 475.358C225.497 475.449 225.457 475.535 225.398 475.606C225.339 475.677 225.263 475.732 225.176 475.764C225.089 475.796 224.996 475.804 224.905 475.789C224.813 475.773 224.728 475.734 224.657 475.675C224.579 475.69 224.5 475.69 224.422 475.675C218.686 474.58 221.708 482.898 215.874 482.723C215.523 482.872 206.274 473.802 206.235 473.388C206.194 473.219 206.215 473.042 206.295 472.888V472.888Z" fill="#FFB687"/>
<path d="M202.934 491.953C202.934 490.66 204.807 479.265 206.144 474.899C206.172 474.795 206.239 474.705 206.333 474.649C206.271 474.306 206.535 473.915 206.946 474.076C210.151 475.343 213.21 476.953 216.068 478.877C217.807 477.506 223.492 474.742 223.934 475.054C233.255 481.638 243.076 483.788 252.136 490.684C252.684 491.102 253.964 495.142 253.411 495.896C252.77 496.784 250.668 496.616 249.763 496.613C244.362 496.613 238.968 495.745 233.625 495.046C228.399 494.36 223.187 493.835 217.909 493.966C213.952 494.062 207.114 493.606 204.265 493.396C203.901 493.371 203.56 493.207 203.313 492.939C203.065 492.671 202.93 492.318 202.934 491.953Z" fill="#514A43"/>
<path d="M199.556 252.461C203.081 246.072 209.93 242.737 216.848 242.244C225.802 241.617 234.187 245.695 241.772 250.099C241.87 250.152 241.955 250.227 242.02 250.319C242.022 250.292 242.024 250.262 242.026 250.233C242.022 249.284 243.443 249.466 243.448 250.405C243.576 280.085 244.412 355.542 243.885 369.936C243.345 384.806 238.393 454.639 230.962 471.969C230.71 472.557 230.293 473.043 229.671 473.037C229.147 473.028 228.622 473.015 228.081 472.981C225.265 472.821 222.481 472.281 219.701 471.825C215.69 471.169 211.497 471.141 207.515 470.279C207.243 470.218 206.998 470.066 206.818 469.848C206.637 469.63 206.529 469.357 206.512 469.071C205.437 451.869 208.473 434.782 209.338 417.6C210.308 398.303 207.202 379.168 204.436 360.164C201.671 341.16 198.77 322.087 197.2 302.884C196.469 293.945 196.023 284.979 196.003 276.004C195.986 268.202 195.68 259.487 199.556 252.461Z" fill="#A2AFDE"/>
<g clip-path="url(#clip0_122_80047)">
<path d="M185.035 111.506C191.198 112.21 198.172 110.231 202.155 105.41C202.213 105.341 202.256 105.259 202.279 105.172C202.303 105.084 202.307 104.992 202.292 104.903C202.276 104.813 202.241 104.728 202.189 104.654C202.137 104.579 202.07 104.517 201.991 104.471C199.719 103.166 199.052 100.656 199.275 97.1341C199.557 92.6453 200.35 88.8727 201.232 84.4709C201.251 84.3776 201.247 84.2812 201.222 84.1895C201.197 84.0977 201.151 84.013 201.087 83.9421C201.024 83.8712 200.945 83.816 200.856 83.7809C200.768 83.7458 200.672 83.7317 200.578 83.7398C197.341 77.117 193.608 70.5049 187.691 65.9735C185.37 64.1967 175.423 58.473 174.86 64.6685C174.782 64.7599 174.053 62.5431 174.057 62.7004C174.203 69.27 174.964 80.0884 174.552 87.6017C174.318 91.8525 173.914 97.4466 170.261 98.4689C169.198 98.7622 168.172 99.0151 167.145 99.2383C167.04 99.261 166.942 99.3081 166.859 99.3756C166.776 99.4432 166.71 99.5293 166.666 99.6271C166.622 99.725 166.602 99.8317 166.607 99.9388C166.612 100.046 166.642 100.15 166.694 100.244C170.278 106.73 177.764 110.681 185.035 111.506Z" fill="#FFB687"/>
<path d="M203.523 34.1477C199.916 30.9242 195.306 29.0475 190.473 28.836C185.64 28.6245 180.883 30.0911 177.009 32.9872C173.253 35.7651 168.773 40.0925 168.324 44.9129C168.048 47.8885 169.646 51.2891 170.224 54.1988C170.686 56.5943 171.366 58.9421 172.258 61.2126C173.128 65.846 173.916 68.8259 175.2 73.3402C176.9 79.3296 181.899 83.7398 187.585 85.9269C193.164 88.0714 201.746 89.9652 205.863 84.726C207.421 82.7388 208.28 79.2191 208.879 76.8429C211.153 67.8354 213.028 58.3731 211.897 49C211.508 46.0011 211.011 43.1552 209.53 40.4984C207.959 37.7163 205.831 36.2093 203.523 34.1477Z" fill="#FFB687"/>
<path d="M228.35 149.944C227.742 142.416 225.676 135.067 223.36 127.915C221.083 120.879 218.242 113.324 214.497 106.937C214.439 106.835 214.361 106.746 214.268 106.676C214.174 106.606 214.067 106.557 213.953 106.531C213.838 106.505 213.72 106.504 213.606 106.527C213.491 106.55 213.383 106.597 213.287 106.665C209.238 105.649 205.848 105.243 202.919 103.353C199.345 101.051 200.567 95.6062 200.603 91.9037C200.61 91.7168 200.553 91.533 200.441 91.383C200.352 91.228 200.21 91.1104 200.041 91.0515C199.872 90.9925 199.687 90.9963 199.521 91.0621C195.147 92.518 190.254 91.5169 185.852 90.6008C181.663 89.7294 177.776 88.214 174.896 84.9366C174.377 84.3479 173.621 84.7687 173.461 85.3617C173.328 85.5064 173.245 85.6907 173.225 85.8867C172.862 89.1109 173.143 94.1992 170.898 96.6157C168.809 98.8623 165.074 99.687 162.282 100.799C162.105 100.867 161.953 100.989 161.849 101.147C161.745 101.306 161.692 101.493 161.699 101.683C157.191 106.667 159.183 114.924 159.587 120.95C160.178 129.774 160.795 138.595 161.44 147.413C162.085 156.231 162.758 165.048 163.461 173.864C164.063 181.426 163.984 190.612 166.112 197.942C166.023 198.057 165.962 198.191 165.935 198.333C165.909 198.475 165.917 198.622 165.958 198.761C166 198.9 166.074 199.027 166.175 199.131C166.275 199.235 166.399 199.314 166.537 199.36C166.588 199.49 166.668 199.607 166.771 199.703C166.873 199.798 166.996 199.868 167.13 199.909C167.264 199.95 167.405 199.96 167.544 199.939C167.682 199.917 167.814 199.865 167.929 199.785C180.526 203.577 194.018 202.027 207.036 201.06C210.42 200.812 213.81 200.557 217.187 200.21C219.2 199.998 222.35 200.095 224.033 198.793C226.016 197.271 229.221 160.735 228.35 149.944Z" fill="#FCE7D8"/>
<path d="M236.679 228.174C235.287 220.964 233.01 213.954 229.899 207.303C229.776 204.752 229.559 202.223 229.234 199.691C229.21 199.492 229.119 199.307 228.977 199.166C228.971 199.009 228.926 198.855 228.844 198.719C228.763 198.584 228.648 198.472 228.511 198.393C228.677 198.342 228.845 198.293 229.011 198.24C230.057 197.91 229.578 196.267 228.524 196.601C213.821 201.243 198.401 201.781 183.087 200.333C179.263 199.635 175.483 198.716 171.765 197.581C170.966 197.334 170.528 198.199 170.807 198.782C168.605 198.44 166.408 198.071 164.218 197.674C164 197.618 163.769 197.649 163.573 197.759C163.377 197.87 163.232 198.052 163.168 198.267C162.031 202.447 161.147 206.692 160.52 210.977C160.487 211.191 160.535 211.409 160.653 211.589C161.038 212.18 157.665 218.178 157.283 219.082C156.167 221.734 155.12 224.414 154.139 227.122C152.183 232.532 150.503 238.038 149.106 243.619C147.562 249.915 146.387 256.296 145.589 262.729C144.864 268.346 144.022 275.481 144.335 281.184C144.383 282.098 144.228 283.384 144.894 283.919C145.559 284.455 148.719 284.094 149.627 284.132C152.643 284.264 211.149 284.387 219.291 284.542C226.973 284.687 234.641 284.871 242.246 283.802C242.607 283.751 242.883 283.32 242.862 282.982C242.286 264.657 241.283 246.006 236.679 228.174Z" fill="#A2AFDE"/>
<path d="M169.897 207.878C178.996 209.855 188.354 210.66 197.659 210.601C206.148 210.548 214.76 209.831 222.996 207.685C223.065 207.659 223.121 207.608 223.154 207.543C223.188 207.478 223.195 207.403 223.176 207.332C223.156 207.262 223.111 207.201 223.049 207.162C222.987 207.123 222.913 207.108 222.841 207.121C214.654 209.247 206.099 209.963 197.659 210.016C188.405 210.076 179.102 209.281 170.052 207.315C169.685 207.234 169.529 207.797 169.897 207.878Z" fill="#240B0B"/>
<path d="M175.678 132.276C175.185 125.435 174.513 118.61 173.663 111.802C172.989 106.429 172.354 101.002 169.589 96.2416C168.941 95.1278 161.087 96.2139 159.789 96.2075C154.303 96.182 145.876 93.4063 141.013 96.1353C134.25 99.9291 129.047 111.449 130.067 114.669C130.36 115.604 131.102 116.023 131.852 116.616C133.448 117.876 135.079 119.09 136.628 120.405C137.267 120.949 137.887 121.507 138.488 122.078C134.583 145.032 132.768 169.317 129.986 192.429C128.59 203.987 126.73 215.736 126.437 227.384C126.224 236.253 125.431 245.845 130.649 251.188C130.742 251.28 130.814 251.391 130.862 251.513C130.909 251.635 130.93 251.765 130.923 251.896C130.83 253.467 131.922 260.2 133.567 261.983C140.273 269.248 156.19 269.524 163.285 269.256C164.312 269.222 165.294 268.826 166.058 268.139C166.822 267.452 167.32 266.518 167.463 265.501C167.63 264.277 167.706 263.043 167.689 261.809C167.674 261.206 167.817 260.61 168.103 260.079C169.638 257.29 170.441 254.042 170.845 250.791C171.861 242.733 172.841 227.111 173.54 219.02C173.54 219.005 173.54 218.995 173.54 218.98C174.035 214.244 174.433 209.505 174.847 204.818C176.977 180.705 177.417 156.425 175.678 132.276Z" fill="#6A509B"/>
<path d="M172.554 178.27C171.901 176.376 169.95 174.083 167.816 175.63C165.865 177.047 165.582 180.157 166.256 182.278C167.047 184.778 167.867 186.316 170.269 187.194C170.316 187.43 171.565 188.076 171.744 187.832C174.163 184.382 173.591 181.271 172.554 178.27Z" fill="#504FB3"/>
<path d="M261.141 171.49C258.125 160.68 253.551 147.849 251.29 136.824C250.163 131.337 249.113 125.836 247.634 120.427C246.397 115.902 245.19 111.018 242.686 106.994C236.629 97.2556 224.282 97.2429 213.87 98.0208C212.994 98.2163 213.16 98.6839 212.984 99.3088C211.84 103.36 213.938 107.747 215.073 111.585L219.657 127.079C221.024 131.698 222.189 136.484 224.318 140.829C226.448 145.173 229.57 148.92 231.721 153.249C234.073 157.986 235.493 163.131 235.902 168.404C236.308 173.717 235.655 179.031 235.504 184.344C235.373 189.162 235.683 193.982 236.431 198.744C236.724 200.61 237.009 203.386 238.601 204.57C238.545 204.784 238.575 205.012 238.684 205.206C238.794 205.399 238.975 205.541 239.188 205.603C246.954 207.977 256.072 206.028 259.998 199.207C264.858 190.748 263.647 180.472 261.141 171.49Z" fill="#6A509B"/>
<path d="M198.675 143.413C198.133 141.912 196.037 140.988 194.713 140.225C194.322 140 193.915 139.803 193.497 139.634C188.996 137.802 183.295 138.686 180.063 142.333C174.471 148.652 170.39 156.135 164.562 162.267C164.437 162.395 164.354 162.557 164.324 162.733C164.224 162.824 164.146 162.937 164.096 163.062C161.824 168.633 161.234 176.748 164.228 182.123C164.564 182.729 165.291 182.652 165.657 182.276C165.701 182.379 165.767 182.47 165.851 182.544C165.935 182.618 166.034 182.672 166.141 182.703C166.248 182.734 166.361 182.741 166.472 182.723C166.582 182.705 166.687 182.662 166.779 182.599C168.689 181.396 170.591 180.177 172.485 178.943C174.33 177.744 175.963 176.144 178.241 176.223C180.426 176.299 185.618 174.244 188.071 172.269C191.064 169.859 193.263 161.398 193.786 160.131C194.649 158.04 196.435 155.532 196.197 153.168C196.065 151.874 195.155 150.503 193.763 150.405C192.077 150.276 190.687 151.997 189.625 153.309C187.924 152.903 184.755 152.775 184.568 152.106C184.303 151.166 185.931 147.727 188.728 145.687C188.928 145.517 189.176 145.412 189.438 145.388C189.7 145.364 189.962 145.422 190.19 145.553C192.09 146.652 195.58 146.843 197.574 145.997C198.704 145.508 199.085 144.539 198.675 143.413Z" fill="#FFB687"/>
<path d="M253.636 221.84C252.605 209.128 249.528 196.597 247.751 183.974C245.838 170.407 244.407 156.781 242.588 143.204C241.751 136.958 240.835 130.722 239.755 124.511C238.841 119.24 237.902 112.717 235.447 107.886C233.013 103.102 228.582 99.0978 223.245 97.9692C220.171 97.3188 216.975 97.914 213.87 98.0224C209.423 98.1818 204.996 97.9968 200.554 97.8863C200.288 97.8863 200.239 100.073 200.845 100.879C213.597 117.842 217.91 137.334 220.133 158.033C221.381 169.642 222.025 181.309 223.353 192.909C224.59 203.71 226.815 214.246 229.215 224.837C230.769 231.698 232.256 241.84 233.002 248.854C233.377 252.263 233.548 255.692 233.513 259.122C233.491 260.563 232.135 268.059 234.269 267.362C234.648 267.849 242.478 267.925 246.762 263.821C247.81 262.818 248.001 261.764 248.176 260.376C248.35 258.988 248.454 257.581 248.535 256.174C248.684 256.104 248.81 255.995 248.901 255.857C255.17 246.446 254.531 232.892 253.636 221.84Z" fill="#6A509B"/>
<path d="M234.174 125.009C235.544 136.847 235.641 148.798 234.465 160.656C234.427 161.03 235.011 161.028 235.047 160.656C236.227 148.798 236.133 136.847 234.767 125.009C234.724 124.639 234.129 124.635 234.182 125.009H234.174Z" fill="#240B0B"/>
<path d="M238.097 128.007C233.672 127.822 229.848 127.839 225.419 127.899C223.164 127.93 220.91 127.992 218.656 128.084C217.574 128.131 212.53 128.037 212.101 129.032C207.544 139.595 198.36 161.151 198.458 161.306C198.24 161.829 198.206 162.411 198.36 162.956C198.514 163.501 198.849 163.978 199.308 164.309C200.19 164.917 222.981 164.25 225.714 163.089C227.859 162.178 237.389 135.659 239.355 129.051C239.491 128.609 238.596 128.026 238.097 128.007Z" fill="#632828"/>
<path d="M157.41 183.659C156.329 172.79 157.098 161.944 157.434 151.068C157.591 145.953 157.746 140.76 156.877 135.687C156.027 130.726 154.696 123.997 153.476 119.119C152.033 113.381 152.033 107.491 151.315 101.651C150.864 97.9863 144.394 94.8662 143.026 95.3041C135.774 97.642 130.437 102.207 127.41 110.745C120.01 131.615 117.952 153.466 114.169 175.132C112.634 183.961 112.112 193.655 117.115 201.649C123.363 211.623 142.269 216.259 151.546 208.008C158.739 201.587 158.278 192.363 157.41 183.659Z" fill="#6A509B"/>
<path d="M171.734 185.94C171.271 185.339 170.499 184.799 170.132 184.482C169.067 183.543 168.208 182.393 167.611 181.105C166.236 178.267 165.768 175.033 165.655 171.908C165.516 167.303 166.443 162.729 168.365 158.542C168.411 158.454 168.438 158.358 168.445 158.26C168.452 158.161 168.439 158.062 168.407 157.969C168.375 157.876 168.325 157.79 168.259 157.717C168.193 157.643 168.113 157.584 168.023 157.543C167.97 157.474 167.907 157.414 167.836 157.364C166.31 156.28 160.884 164.165 160.049 164.044C157.498 163.681 155.062 164.236 152.775 165.728C151.658 166.457 150.65 167.483 149.375 167.951C147.887 168.501 146.576 168.263 145.094 168.195C142.935 168.071 140.768 168.202 138.639 168.586C131.383 169.981 125.194 174.79 122.669 181.704C122.597 181.796 122.545 181.902 122.516 182.015C122.435 182.304 122.363 182.593 122.289 182.884C122.235 183.058 122.176 183.228 122.129 183.405C122.111 183.474 122.1 183.545 122.097 183.617C120.637 189.568 119.838 199.264 119.653 203.065C119.63 203.597 119.717 204.128 119.91 204.624C120.103 205.121 120.397 205.572 120.773 205.949C127.63 212.884 140.818 213.422 149.254 211.352C158.18 209.156 164.489 202.236 167.456 193.711C169.413 191.876 170.973 189.658 172.038 187.196C172.217 186.771 172.044 186.346 171.734 185.94Z" fill="#6A509B"/>
<path d="M240.233 160.801C240.218 160.741 240.184 160.688 240.136 160.65C240.088 160.612 240.029 160.59 239.967 160.588C239.459 160.556 238.633 160.501 238.267 160.939C238.069 161.173 238.267 161.387 238.407 161.594C238.62 161.908 238.832 162.231 239.045 162.541C239.192 162.754 239.379 162.926 239.651 162.82C239.923 162.714 240.091 162.378 240.199 162.142C240.373 161.757 240.537 161.143 240.233 160.801Z" fill="#504FB3"/>
<path d="M237.707 129.321C231.082 129.24 224.43 129.245 217.809 129.572C216.799 129.621 215.556 129.536 214.606 129.938C212.982 130.626 212.529 132.926 211.913 134.378C210.013 138.845 208.1 143.309 206.174 147.768C203.963 152.883 201.731 157.99 199.479 163.09C199.331 163.432 199.832 163.727 199.985 163.385C202.386 157.943 204.766 152.487 207.127 147.019C208.313 144.272 209.495 141.52 210.674 138.764C211.259 137.4 211.841 136.034 212.421 134.667C212.923 133.489 213.301 131.859 214.217 130.951C215.314 129.867 217.773 130.144 219.239 130.086C221.267 130.01 223.295 129.965 225.322 129.933C229.452 129.867 233.582 129.848 237.711 129.899C237.784 129.893 237.853 129.86 237.902 129.805C237.952 129.751 237.98 129.681 237.98 129.607C237.98 129.534 237.952 129.463 237.902 129.409C237.853 129.355 237.784 129.321 237.711 129.315L237.707 129.321Z" fill="#240B0B"/>
<path d="M233.156 170.008C232.471 169.443 231.562 170.063 230.922 170.416C229.646 171.1 228.495 171.997 227.521 173.069C225.608 175.243 224.244 178.216 225.972 181.232C225.898 181.407 231.173 179.857 232.601 177.545C233.381 176.278 233.821 174.83 233.876 173.343C233.915 172.444 233.936 170.654 233.156 170.008Z" fill="#504FB3"/>
<path d="M241.531 166.155C241.151 164.954 240.199 163.704 239.704 162.667C238.469 160.076 237.638 157.249 236.792 154.514C236.561 153.763 236.557 152.961 236.781 152.208C237.778 148.807 238.337 144.684 237.444 141.611C236.743 139.188 231.442 133.585 229.693 133.2C225.776 132.339 227.71 137.834 228.462 139.536C229.812 142.592 232.056 142.439 232.063 145.959C232.063 147.202 231.621 149.747 231.376 150.992C231.363 151.062 231.328 151.126 231.276 151.175C231.224 151.224 231.158 151.255 231.087 151.264C231.016 151.273 230.944 151.259 230.882 151.225C230.819 151.191 230.769 151.137 230.739 151.073C229.208 148.135 227.393 145.547 224.668 143.579C221.71 141.432 217.047 141.649 213.455 143.309C210.411 144.714 212.673 147.185 214.943 147.893C212.756 148.856 212.974 151.577 214.749 153.117C216.573 154.699 218.977 154.967 220.7 156.826C221.107 157.266 221.474 157.739 221.799 158.242C220.802 157.411 219.748 156.665 218.581 156.204C217.134 155.632 214.543 155.236 213.661 156.964C212.811 158.624 214.299 160.554 215.548 161.487C216.59 162.261 217.829 162.69 218.887 163.432C221.516 165.273 219.47 164.954 222.075 170.14C222.783 171.553 224.554 171.685 225.721 172.548C226.248 172.939 229.971 178.758 230.12 178.905C230.717 179.492 237.653 174.248 239.721 170.828C240.413 169.685 241.699 168.548 241.701 167.115C241.695 166.788 241.637 166.464 241.531 166.155V166.155Z" fill="#FFB687"/>
<path d="M216.465 148.134C218.712 148.187 221.213 148.253 223.054 149.717C224.926 151.205 225.94 153.968 227.062 156.034C227.243 156.365 227.747 156.07 227.566 155.74C226.365 153.538 225.311 150.612 223.211 149.092C221.286 147.696 218.748 147.604 216.467 147.549C216.091 147.549 216.091 148.123 216.467 148.134H216.465Z" fill="#BF604D"/>
<path d="M221.989 158.191C222.799 159.189 223.51 160.262 224.114 161.396C224.293 161.73 224.796 161.434 224.62 161.103C223.99 159.926 223.247 158.813 222.403 157.779C222.167 157.485 221.755 157.902 221.991 158.191H221.989Z" fill="#BF604D"/>
<path d="M178.811 153.37C180.281 152.938 181.838 152.891 183.331 153.234C183.699 153.317 183.854 152.754 183.487 152.671C181.891 152.303 180.228 152.35 178.656 152.807C178.587 152.833 178.531 152.883 178.497 152.948C178.464 153.014 178.456 153.089 178.476 153.16C178.495 153.23 178.54 153.291 178.602 153.33C178.664 153.369 178.739 153.383 178.811 153.37V153.37Z" fill="#BF604D"/>
<path d="M189.168 154.465C191.746 155.83 188.926 160.495 187.878 162.146C187.676 162.463 188.18 162.756 188.382 162.44C189.636 160.465 192.541 155.589 189.463 153.959C189.132 153.785 188.836 154.289 189.168 154.465Z" fill="#BF604D"/>
<path d="M177.079 156.682C179.819 156.088 182.675 156.332 185.275 157.381C186.935 158.059 188.282 158.992 188.051 161.009C187.866 162.329 187.391 163.591 186.66 164.705C186.463 165.026 186.967 165.319 187.164 165.001C188.544 162.78 189.753 159.311 187.056 157.604C184.116 155.742 180.255 155.428 176.924 156.116C176.556 156.193 176.711 156.754 177.079 156.68V156.682Z" fill="#BF604D"/>
<path d="M180.491 164.716C179.033 165.111 176.27 167.64 178.531 168.754C179.549 169.253 180.778 169.315 181.889 169.423C182.939 169.528 184.544 170.038 185.354 169.124C185.685 168.752 185.779 168.186 185.906 167.725C186.098 167.007 186.406 166.354 186.652 165.655C187.077 164.448 186.971 163.283 186.068 162.329C185.026 161.228 183.379 160.886 181.966 160.546C179.939 160.064 177.88 159.737 175.804 159.566C175.43 159.534 175.432 160.118 175.804 160.15C178.202 160.342 180.576 160.757 182.897 161.391C184.07 161.721 185.498 162.161 186.085 163.343C186.75 164.667 185.849 165.834 185.466 167.054C185.126 168.144 184.98 169.13 183.471 168.998C182.61 168.924 181.745 168.847 180.888 168.737C180.251 168.654 178.707 168.55 178.401 167.887C177.872 166.737 179.764 165.527 180.639 165.292C180.708 165.266 180.764 165.215 180.798 165.15C180.831 165.085 180.839 165.01 180.819 164.939C180.8 164.869 180.755 164.808 180.693 164.769C180.631 164.73 180.556 164.715 180.484 164.728L180.491 164.716Z" fill="#BF604D"/>
<path d="M181.265 164.219C179.97 164.848 178.51 165.052 177.093 164.803C176.725 164.739 176.568 165.303 176.938 165.366C178.506 165.649 180.125 165.426 181.558 164.729C181.898 164.565 181.601 164.061 181.265 164.223V164.219Z" fill="#BF604D"/>
<path d="M181.645 169.419C181.631 170.031 181.478 170.631 181.199 171.176C180.92 171.72 180.521 172.194 180.032 172.563C179.734 172.786 180.032 173.294 180.325 173.066C180.901 172.645 181.373 172.097 181.705 171.465C182.037 170.832 182.219 170.133 182.238 169.419C182.249 169.043 181.666 169.045 181.654 169.419H181.645Z" fill="#BF604D"/>
<path d="M141.11 113.336C156.925 124.898 158.921 146.067 156.683 164.018C156.636 164.39 157.221 164.386 157.268 164.018C159.533 145.821 157.399 124.524 141.406 112.83C141.102 112.617 140.81 113.115 141.11 113.336V113.336Z" fill="#240B0B"/>
<path d="M168.4 157.415C166.77 156.371 165.548 158.133 164.489 159.221C163.648 160.084 162.839 160.977 162.062 161.899C161.233 162.881 160.965 163.672 159.66 163.793C157.424 164.006 155.599 163.936 153.635 165.253C152.738 165.855 151.949 166.616 150.997 167.136C149.722 167.84 148.285 167.97 146.851 168.078C142.198 168.429 137.426 168.605 132.987 170.203C128.602 171.759 125.395 174.809 122.243 178.116C121.983 178.386 122.396 178.801 122.655 178.529C125.856 175.177 129.114 172.084 133.607 170.597C137.794 169.209 142.238 168.99 146.602 168.684C148.389 168.556 150.134 168.38 151.686 167.408C153.726 166.133 155.21 164.645 157.75 164.433C158.61 164.354 159.875 164.696 160.655 164.433C161.308 164.203 161.718 163.255 162.143 162.733C162.993 161.691 166.477 156.9 168.094 157.942C168.413 158.154 168.704 157.64 168.389 157.438L168.4 157.415Z" fill="#240B0B"/>
<path d="M160.209 167.479C159.657 172.257 159.712 177.086 160.373 181.851C160.893 185.545 162.001 189.521 165.748 191.09C166.094 191.234 166.245 190.665 165.903 190.527C161.673 188.756 161.074 183.53 160.679 179.54C160.291 175.527 160.329 171.484 160.794 167.479C160.836 167.107 160.252 167.109 160.209 167.479V167.479Z" fill="#240B0B"/>
<path d="M168.915 182.635C169.266 183.626 169.968 184.453 170.888 184.96C171.217 185.141 171.512 184.637 171.183 184.457C170.396 184.025 169.792 183.323 169.483 182.48C169.355 182.129 168.792 182.28 168.922 182.635H168.915Z" fill="#240B0B"/>
<path d="M150.511 165.364C147.36 163.936 143.923 163.251 140.466 163.362C137.008 163.472 133.622 164.375 130.569 166.001C130.237 166.18 130.532 166.684 130.864 166.507C133.826 164.928 137.111 164.05 140.466 163.939C143.821 163.829 147.156 164.489 150.216 165.87C150.556 166.023 150.853 165.519 150.511 165.364Z" fill="#240B0B"/>
<path d="M131.834 252.519C136.314 256.544 141.661 259.484 147.46 261.112C153.259 262.739 159.355 263.011 165.275 261.905C165.643 261.834 165.488 261.267 165.12 261.341C159.299 262.424 153.307 262.154 147.607 260.553C141.907 258.951 136.651 256.061 132.246 252.104C131.97 251.854 131.556 252.266 131.834 252.519V252.519Z" fill="#240B0B"/>
<path d="M247.785 255.891C246.154 257.122 244.029 257.653 242.116 258.246C239.961 258.912 237.787 259.413 235.527 259.477C235.153 259.488 235.151 260.072 235.527 260.062C237.844 259.996 240.067 259.492 242.276 258.81C244.254 258.2 246.414 257.664 248.089 256.395C248.384 256.183 248.089 255.664 247.795 255.891H247.785Z" fill="#240B0B"/>
<path d="M172.735 179.545C174.063 182.55 173.289 185.451 171.33 187.94C169.982 189.641 168.582 191.245 167.432 193.103C164.845 197.284 162.873 201.787 159.111 205.103C155.285 208.478 150.386 210.55 145.406 211.496C142.718 212.008 139.974 212.168 137.245 211.97C135.818 211.868 134.416 211.619 132.994 211.417C131.572 211.216 130.277 211.084 129.045 210.342C128.978 210.303 128.898 210.292 128.823 210.311C128.748 210.331 128.684 210.379 128.645 210.446C128.606 210.513 128.595 210.593 128.614 210.668C128.634 210.742 128.682 210.807 128.749 210.846C130.43 211.849 132.443 211.908 134.335 212.217C141.021 213.303 147.879 212.268 153.946 209.256C157.517 207.508 160.612 204.922 162.966 201.717C165.602 198.036 167.302 193.755 170.176 190.227C171.476 188.633 172.956 187.126 173.619 185.126C174.256 183.171 174.063 181.113 173.24 179.247C173.087 178.905 172.584 179.203 172.735 179.543V179.545Z" fill="#240B0B"/>
<path d="M216.012 239.026C213.483 242.655 210.934 246.274 208.421 249.915C206.294 252.999 204.934 256.018 204.706 259.805C204.473 263.743 204.779 267.713 204.666 271.657C204.532 276.294 204.158 280.916 203.575 285.517C203.528 285.888 204.104 285.993 204.15 285.619C204.668 281.533 205.014 277.434 205.188 273.321C205.35 269.325 205.186 265.34 205.236 261.345C205.253 259.231 205.444 257.07 206.184 255.067C206.851 253.265 207.922 251.658 209.009 250.086C211.482 246.514 213.966 242.951 216.462 239.396C216.675 239.09 216.228 238.715 216.012 239.023L216.012 239.026Z" fill="#240B0B"/>
<path d="M174.035 103.455C176.267 106.992 181.083 108.492 185.02 108.981C189.689 109.556 194.421 108.647 198.546 106.384C198.875 106.203 198.582 105.697 198.25 105.88C194.504 107.938 190.235 108.848 185.976 108.497C181.972 108.161 176.822 106.771 174.546 103.164C174.346 102.847 173.84 103.141 174.042 103.459L174.035 103.455Z" fill="#240B0B"/>
<path d="M213.8 179.955C210.661 185.772 207.396 191.694 202.155 195.896C201.861 196.131 202.278 196.533 202.569 196.321C207.847 192.087 211.143 186.119 214.304 180.261C214.482 179.929 213.978 179.623 213.8 179.966V179.955Z" fill="#240B0B"/>
<path d="M262.045 183.42C262.047 183.388 262.047 183.356 262.045 183.324C261.254 177.795 259.04 172.566 255.619 168.151C252.833 164.612 248.523 163.913 244.306 164.34C244.1 164.362 243.892 164.326 243.706 164.234C243.521 164.142 243.365 163.999 243.258 163.821C242.597 162.72 241.114 160.633 239.921 160.576C239.458 160.552 239.335 160.754 239.252 161.099C239.983 174.822 226.994 179.182 226.631 179.324C224.803 180.042 226.495 182.223 227.777 184C228.042 184.358 228.179 184.796 228.163 185.241C227.913 190.193 230.776 192.64 233.851 196.215C236.927 199.79 241.077 202.032 245.541 203.783C247.322 204.482 249.241 204.967 251.141 204.738C254.263 204.353 262.674 196.867 262.045 183.42Z" fill="#6A509B"/>
<path d="M242.924 165.256C243.104 169.203 241.784 172.739 239.234 175.725C238.035 177.101 236.748 178.398 235.381 179.606C233.827 181.007 231.98 182.565 229.825 182.852C229.457 182.901 229.453 183.49 229.825 183.434C231.648 183.192 233.164 182.185 234.579 181.058C236.418 179.581 238.115 177.936 239.648 176.144C242.305 173.052 243.687 169.362 243.508 165.262C243.491 164.888 242.907 164.886 242.924 165.262V165.256Z" fill="#240B0B"/>
<path d="M239.264 160.901C241.766 160.002 241.979 163.678 243.836 164.395C244.863 164.79 246.061 164.55 247.137 164.556C250.185 164.573 253.77 164.962 256.189 166.998C256.476 167.239 256.89 166.828 256.601 166.586C254.191 164.554 250.784 164.074 247.73 163.982C247.133 163.965 246.538 163.982 245.94 163.995C245.543 164.025 245.143 164.025 244.746 163.995C243.551 163.855 243.143 163.115 242.593 162.197C241.823 160.922 240.722 159.753 239.109 160.333C238.756 160.458 238.909 161.024 239.264 160.896V160.901Z" fill="#240B0B"/>
<path d="M226.624 173.806C225.625 175.005 225.112 176.535 225.187 178.093C225.296 179.902 226.369 181.145 227.151 182.697C228.097 184.569 228.002 186.903 228.571 188.916C229.106 190.818 229.884 192.643 230.886 194.346C232.814 197.651 235.566 200.398 238.873 202.321C242.301 204.285 246.169 205.173 250.04 205.76C250.408 205.815 250.567 205.252 250.195 205.197C242.813 204.079 236.084 201.36 231.88 194.848C229.897 191.775 228.922 188.444 228.393 184.859C228.148 183.22 227.432 182.074 226.622 180.659C225.421 178.563 225.506 176.136 227.037 174.221C227.27 173.93 226.858 173.513 226.624 173.796V173.806Z" fill="#240B0B"/>
<path d="M251.117 158.62C249.673 158.586 248.238 158.866 246.913 159.441C245.587 160.016 244.401 160.871 243.438 161.948C243.188 162.227 243.6 162.641 243.853 162.361C244.761 161.338 245.882 160.526 247.137 159.98C248.391 159.435 249.75 159.169 251.117 159.202C251.195 159.202 251.269 159.172 251.323 159.117C251.378 159.062 251.409 158.988 251.409 158.911C251.409 158.834 251.378 158.76 251.323 158.705C251.269 158.651 251.195 158.62 251.117 158.62Z" fill="#240B0B"/>
<path d="M207.489 210.297C207.679 215.398 207.717 220.499 207.4 225.6C207.241 228.174 207.124 230.863 206.586 233.392C206.184 235.277 205.171 236.503 203.226 236.856C202.576 236.985 201.916 237.048 201.254 237.045C200.571 237.028 200.459 237.073 200.153 236.491C199.819 235.853 199.97 235.003 199.966 234.304C199.949 231.685 199.932 229.064 199.917 226.44C199.885 221.106 199.853 215.774 199.819 210.442C199.813 210.368 199.779 210.3 199.725 210.251C199.671 210.201 199.6 210.173 199.527 210.173C199.453 210.173 199.382 210.201 199.328 210.251C199.274 210.3 199.241 210.368 199.234 210.442C199.266 215.483 199.297 220.525 199.328 225.566C199.342 228.09 199.358 230.611 199.375 233.13C199.375 234.193 199.141 235.594 199.396 236.62C199.425 236.883 199.555 237.123 199.759 237.29C200.986 238.297 204.306 237.436 205.434 236.605C206.497 235.83 206.941 234.593 207.183 233.354C207.591 231.273 207.73 229.113 207.889 227.003C208.314 221.443 208.278 215.864 208.072 210.295C208.059 209.921 207.475 209.919 207.489 210.295V210.297Z" fill="#240B0B"/>
<path d="M206.835 61.0466C204.922 59.8096 203.9 63.2081 203.647 64.4876C203.09 67.4122 205.851 67.1316 206.899 64.9127C207.392 63.8734 208.044 61.8308 206.835 61.0466Z" fill="#1F0404"/>
<path d="M190.018 59.2253C187.767 57.8331 186.63 61.4463 186.36 62.8087C185.882 65.2295 188.964 65.7248 190.156 63.3741C190.709 62.2816 191.444 60.1094 190.018 59.2253Z" fill="#1F0404"/>
<path d="M200.6 64.6538C201.079 65.504 201.582 66.386 201.676 67.3786C201.793 68.5858 201.193 69.8781 199.816 69.8717C199.743 69.878 199.675 69.9114 199.625 69.9656C199.575 70.0197 199.548 70.0905 199.548 70.1639C199.548 70.2374 199.575 70.3082 199.625 70.3623C199.675 70.4164 199.743 70.4499 199.816 70.4562C200.362 70.4598 200.893 70.278 201.323 69.9405C201.752 69.6031 202.054 69.13 202.18 68.5986C202.586 67.0895 201.82 65.64 201.104 64.3626C200.921 64.0332 200.418 64.3286 200.6 64.6559V64.6538Z" fill="#BF604D"/>
<path d="M198.526 68.8812C197.77 68.6486 196.952 68.7251 196.252 69.0938C195.918 69.2659 196.214 69.7697 196.547 69.5975C196.826 69.4511 197.13 69.3613 197.443 69.3332C197.756 69.3051 198.071 69.3393 198.371 69.4339C198.443 69.4468 198.517 69.4324 198.579 69.3934C198.641 69.3544 198.686 69.2937 198.706 69.2231C198.725 69.1525 198.718 69.0772 198.684 69.012C198.651 68.9468 198.595 68.8964 198.526 68.8706V68.8812Z" fill="#BF604D"/>
<path d="M174.175 19.0764C171.004 19.1189 170.396 20.8766 168.923 23.1486C167.108 25.9521 163.465 24.6364 161.272 26.9744C157.897 30.5408 158.579 37.289 161.68 40.7662C164.868 44.3496 170.182 44.7045 173.397 41.3825C175.243 40.8993 176.898 39.865 178.141 38.4176C180.381 35.8118 180.673 32.1519 181.329 28.9106C182.683 24.0838 179.438 19.0083 174.175 19.0764Z" fill="#6E1E00"/>
<path d="M202.016 72.3648C201.927 72.2787 201.821 72.2122 201.704 72.1697C201.588 72.1272 201.464 72.1097 201.34 72.1183C199.381 72.1527 197.422 72.0326 195.482 71.7591C194.571 71.6401 193.669 71.4679 192.762 71.3191C192.384 71.2596 191.946 71.0662 191.591 71.2575C189.969 72.1353 191.047 74.5901 191.803 75.3532C193.372 76.9579 199.331 77.7783 200.69 76.9153C201.495 76.4052 201.982 75.3936 202.279 74.5115C202.454 73.9653 202.517 72.8494 202.016 72.3648Z" fill="#802D24"/>
<path d="M195.636 74.1839C196.914 74.3768 198.207 74.4543 199.5 74.4155C199.935 74.418 200.371 74.3982 200.805 74.356C201.908 74.2072 202.184 73.3932 202.056 72.4155C202.044 72.3976 202.031 72.3806 202.016 72.3645C201.927 72.2783 201.821 72.2119 201.704 72.1694C201.588 72.1269 201.464 72.1094 201.34 72.118C199.381 72.1524 197.423 72.0323 195.483 71.7588C194.571 71.6397 193.67 71.4676 192.762 71.3188C192.384 71.2572 191.952 71.0786 191.591 71.2572C191.066 71.5165 190.9 71.9819 190.953 72.5324C192.056 73.7163 194.12 73.9586 195.636 74.1839Z" fill="white"/>
<path d="M213.328 45.5759C213.143 41.1806 211.536 36.8809 207.898 34.1433C206.161 32.8341 203.936 32.1731 202.021 31.1316C199.194 29.5971 196.648 27.4504 193.42 26.8936C184.599 25.3739 171.483 29.2315 168.306 38.3198C167.757 39.8862 166.727 41.2379 165.808 42.5982C164.89 43.9585 164.533 45.3612 164.359 47.0297C164.246 48.1243 164.146 49.2592 163.757 50.2986C163.368 51.3379 162.62 52.1222 162.212 53.1445C160.142 58.3198 159.643 64.7343 163.776 69.051C166.525 71.9182 169.621 74.4942 172.654 77.0511L173.772 77.9671C173.856 78.0341 173.955 78.079 174.061 78.0975C174.166 78.116 174.275 78.1076 174.376 78.0731C174.478 78.0386 174.569 77.979 174.641 77.8999C174.714 77.8209 174.765 77.7248 174.79 77.6207C175.215 75.6887 174.399 72.5048 174.399 70.9278C174.399 68.322 174.382 65.7333 175.634 63.5101C177.596 64.5388 178.297 62.3326 178.867 60.4368C180.284 55.7162 177.379 49.2274 182.151 46.0562C187.207 42.6917 193.19 45.7799 198.363 46.7491C199.93 47.0434 201.536 47.0628 203.109 46.8065C204.582 46.5621 205.972 45.5483 207.485 45.6099C212.47 45.8224 211.821 54.4389 211.775 57.6971C211.775 58.4495 214.44 54.6705 214.599 50.5642C214.678 48.713 214.14 47.1742 213.328 45.5759Z" fill="#6E1E00"/>
<path d="M176.629 72.4984C177.4 75.508 178.248 78.5919 180.191 81.085C181.194 82.373 182.54 83.5016 183.862 84.4644C188.338 87.7312 193.917 88.7386 199.362 88.5027C199.736 88.4857 199.738 87.9012 199.362 87.9182C194.085 88.1584 188.701 87.2168 184.331 84.0925C183.123 83.2547 182.014 82.2813 181.026 81.1913C178.867 78.7088 177.991 75.4654 177.201 72.3496C177.175 72.2811 177.124 72.2246 177.059 72.1914C176.994 72.1582 176.919 72.1505 176.848 72.17C176.778 72.1894 176.717 72.2345 176.678 72.2965C176.639 72.3584 176.624 72.4327 176.637 72.5048L176.629 72.4984Z" fill="#BF604D"/>
<path d="M177.636 62.2221C176.495 60.2115 174.093 56.4708 171.621 57.593C168.231 59.1318 170.713 64.881 171.8 67.1127C172.805 69.1765 175.891 72.7216 178.242 70.1797C180.218 68.0542 179.079 64.8321 177.859 62.6217C177.791 62.5069 177.717 62.373 177.636 62.2221Z" fill="#FFB687"/>
<path d="M192.273 51.8991C190.037 51.4182 187.703 51.7632 185.702 52.8704C185.303 53.0706 184.947 53.3463 184.654 53.6823C184.076 54.4028 184.016 55.642 184.7 56.3157C185.451 57.0426 186.554 56.6622 187.463 56.6324C189.459 56.5686 193.242 58.3327 194.724 56.1712C196.037 54.2456 194.082 52.2966 192.273 51.8991Z" fill="#6E1E00"/>
<path d="M210.693 55.8123C210.667 55.767 210.642 55.7245 210.616 55.6848C209.305 53.5594 206.319 52.5902 204.523 54.7326C203.62 55.8081 203.388 57.2576 204.593 58.2077C205.399 58.8453 206.376 58.7008 207.314 58.8963C208.295 59.1088 209.275 59.8676 210.272 59.2576C211.509 58.5031 211.328 56.9367 210.693 55.8123Z" fill="#6E1E00"/>
<path d="M172.191 61.0065C173.149 60.8598 174.287 62.1797 174.829 62.862C175.437 63.6372 175.891 64.5217 176.168 65.4677C176.276 65.8248 176.839 65.6803 176.731 65.3126C176.377 64.1022 175.753 62.9876 174.907 62.0522C174.199 61.2785 173.16 60.2711 172.036 60.4433C171.666 60.4985 171.823 61.0618 172.191 61.0065V61.0065Z" fill="#BF604D"/>
<path d="M180.788 27.8416C179.953 27.8451 179.128 28.0234 178.366 28.3649C177.604 28.7064 176.923 29.2036 176.365 29.8246C175.565 30.6747 174.945 31.5908 173.871 32.1328C172.975 32.5833 172.05 32.8405 171.189 33.3719C169.739 34.2846 168.518 35.5185 167.621 36.9782C166.723 38.438 166.173 40.0845 166.014 41.7906C165.978 42.1626 166.562 42.1604 166.598 41.7906C166.768 40.0473 167.37 38.3738 168.349 36.9213C169.327 35.4689 170.653 34.2833 172.205 33.4718C173.612 32.7512 174.809 32.4367 175.908 31.238C177.325 29.6907 178.53 28.46 180.796 28.426C180.869 28.4198 180.937 28.3863 180.987 28.3322C181.037 28.2781 181.064 28.2073 181.064 28.1338C181.064 28.0603 181.037 27.9895 180.987 27.9354C180.937 27.8813 180.869 27.8478 180.796 27.8416H180.788Z" fill="#7D4325"/>
<path d="M208.147 36.6366C209.2 37.7493 209.871 39.1676 210.066 40.6869C210.26 42.2062 209.966 43.7478 209.227 45.0894C209.044 45.4188 209.55 45.7142 209.731 45.3848C210.534 43.9316 210.853 42.2605 210.643 40.6135C210.433 38.9666 209.704 37.4293 208.562 36.2243C208.302 35.9501 207.89 36.3646 208.147 36.6366Z" fill="#7D4325"/>
<path d="M211.948 44.6149C211.728 45.0584 211.358 45.4095 210.904 45.6054C210.564 45.7499 210.713 46.3152 211.059 46.1686C211.659 45.9285 212.153 45.4823 212.453 44.9104C212.626 44.5767 212.122 44.2727 211.948 44.6149Z" fill="#7D4325"/>
<path d="M175.185 34.6554C175.293 38.8106 176.934 42.9445 180.981 44.6449C181.327 44.7915 181.478 44.2198 181.136 44.0838C177.351 42.494 175.869 38.5109 175.769 34.6576C175.769 34.2835 175.174 34.2814 175.185 34.6576V34.6554Z" fill="#7D4325"/>
<path d="M170.084 45.6972C170.656 49.4698 175.788 48.0117 178.222 47.61C178.592 47.5484 178.435 46.9852 178.065 47.0468C175.886 47.4102 171.153 48.881 170.647 45.5463C170.59 45.1764 170.029 45.3337 170.084 45.7014V45.6972Z" fill="#7D4325"/>
<path d="M164.043 53.8952C164.179 56.2764 164.821 58.6012 165.927 60.7145C167.033 62.8278 168.577 64.6809 170.455 66.1503C170.749 66.3799 171.165 65.9676 170.88 65.738C169.057 64.3222 167.557 62.5333 166.48 60.4909C165.403 58.4486 164.775 56.1999 164.638 53.8952C164.615 53.5233 164.03 53.5212 164.054 53.8952H164.043Z" fill="#7D4325"/>
<path d="M169.566 34.5385C169.217 32.7681 167.581 30.6958 165.851 30.0752C164.121 29.4545 161.963 30.3918 160.771 31.6586C160.514 31.9328 160.924 32.3472 161.183 32.073C162.346 30.8382 164.584 29.9476 166.163 30.8701C167.468 31.6352 168.714 33.208 169.003 34.6958C169.075 35.0635 169.64 34.9083 169.566 34.5406V34.5385Z" fill="#7D4325"/>
<path d="M166.898 35.1684C166.569 34.7764 166.146 34.4734 165.67 34.2872C165.193 34.101 164.677 34.0376 164.169 34.1027C163.661 34.1679 163.178 34.3596 162.763 34.6601C162.349 34.9607 162.017 35.3606 161.797 35.823C161.631 36.1588 162.135 36.4606 162.301 36.1184C163.14 34.4181 165.232 34.1609 166.482 35.5807C166.73 35.8634 167.143 35.4489 166.894 35.1684H166.898Z" fill="#7D4325"/>
<path d="M199.655 33.9013C201.976 37.3253 202.161 41.8439 199.094 44.8875C199.066 44.9146 199.044 44.9469 199.028 44.9826C199.013 45.0183 199.005 45.0567 199.004 45.0955C199.003 45.1741 199.033 45.2498 199.087 45.3062C199.142 45.3626 199.217 45.3949 199.295 45.3961C199.374 45.3973 199.45 45.3673 199.506 45.3126C202.75 42.0926 202.628 37.2573 200.159 33.6228C199.946 33.3147 199.445 33.6058 199.655 33.9183V33.9013Z" fill="#7D4325"/>
</g>
<path d="M99.6725 12.2258C98.8718 9.85888 97.1908 7.891 94.9782 6.73025C92.7655 5.56949 90.191 5.30495 87.7885 5.99147L38.6438 19.9152C37.1182 20.3477 35.6974 21.0882 34.469 22.091C33.2407 23.0938 32.2307 24.3377 31.5016 25.7458C30.7725 27.154 30.3396 28.6966 30.2297 30.2785C30.1197 31.8604 30.335 33.4481 30.8623 34.9436L40.9551 63.5558C41.5422 65.2032 42.7399 66.562 44.3005 67.3512C45.8612 68.1404 47.6655 68.2997 49.3403 67.7961L71.9866 60.9866L82.7497 67.9578L87.4585 66.484L85.8157 58.2884L86.3316 56.6467L102.017 51.93C103.357 51.5258 104.6 50.8556 105.675 49.9595C106.749 49.0633 107.631 47.9597 108.269 46.7146C108.907 45.4695 109.287 44.1085 109.386 42.7131C109.486 41.3178 109.303 39.9167 108.848 38.5937L99.6725 12.2258Z" fill="#74C0EB"/>
<path d="M35.6029 33.5023L45.6835 62.0755C46.2663 63.7259 47.4634 65.0879 49.0254 65.8778C50.5874 66.6677 52.3938 66.8246 54.0686 66.3157L106.648 50.4802C107.987 50.076 109.231 49.4058 110.305 48.5096C111.38 47.6135 112.262 46.5099 112.9 45.2648C113.537 44.0197 113.917 42.6587 114.017 41.2633C114.116 39.868 113.933 38.4669 113.479 37.1439L104.407 10.7649C103.606 8.39611 101.925 6.42584 99.7117 5.26178C97.4986 4.09773 94.9226 3.82897 92.5168 4.51111L43.3526 18.441C41.8243 18.8738 40.4013 19.6163 39.172 20.6222C37.9427 21.6281 36.9333 22.876 36.2066 24.2884C35.4798 25.7009 35.0512 27.2476 34.9474 28.8326C34.8435 30.4177 35.0667 32.0071 35.6029 33.5023V33.5023Z" fill="#FBFBFB"/>
<path d="M74.853 58.2881L87.4523 66.4652L91.5562 53.5319L74.853 58.2881Z" fill="#FBFBFB"/>
<path d="M87.1088 24.2458C86.6029 22.644 85.5663 21.2623 84.17 20.3285C82.7736 19.3946 81.1008 18.9643 79.4271 19.1084C77.7535 19.2526 76.1788 19.9625 74.9627 21.1214C73.7466 22.2802 72.9615 23.8188 72.7368 25.4836C71.6031 24.244 70.081 23.4276 68.4211 23.1689C66.7613 22.9103 65.0629 23.2248 63.6057 24.0606C62.1486 24.8964 61.0196 26.2037 60.4049 27.767C59.7902 29.3304 59.7263 31.0565 60.224 32.661C60.5642 33.7394 61.1514 34.7235 61.9388 35.5352L62.1808 35.7598L79.4739 47.1444L87.1802 28.1064C87.507 26.8369 87.4823 25.5024 87.1088 24.2458Z" fill="#90CDEF"/>
<path d="M105.381 129.609C104.51 126.122 102.331 123.104 99.2953 121.181C96.2593 119.258 92.5996 118.577 89.0752 119.28L16.994 133.483C14.7563 133.924 12.6328 134.819 10.7544 136.113C8.876 137.407 7.28255 139.072 6.07237 141.005C4.8622 142.938 4.06099 145.099 3.71808 147.354C3.37516 149.608 3.49783 151.91 4.07857 154.115L15.1953 196.314C15.8439 198.744 17.4016 200.832 19.5464 202.147C21.6912 203.461 24.2591 203.9 26.7189 203.375L59.9807 196.266L74.5933 207.52L81.5161 205.959L80.1211 194.018L81.053 191.725L104.091 186.801C106.059 186.378 107.92 185.563 109.565 184.404C111.21 183.245 112.604 181.767 113.664 180.056C114.724 178.346 115.429 176.44 115.735 174.451C116.041 172.463 115.943 170.433 115.446 168.483L105.381 129.609Z" fill="#74C0EB"/>
<path d="M11.0461 152.605L22.1498 194.746C22.792 197.18 24.3484 199.273 26.4951 200.588C28.6417 201.904 31.2129 202.34 33.6733 201.807L110.902 185.265C112.87 184.843 114.731 184.028 116.376 182.869C118.021 181.71 119.415 180.231 120.475 178.521C121.535 176.811 122.239 174.904 122.545 172.916C122.852 170.927 122.753 168.897 122.257 166.947L112.342 128.07C111.471 124.58 109.292 121.559 106.256 119.631C103.22 117.703 99.5583 117.016 96.0297 117.712L23.9197 131.922C21.6782 132.363 19.5513 133.261 17.6712 134.559C15.7911 135.857 14.198 137.528 12.9907 139.467C11.7834 141.407 10.9878 143.574 10.6533 145.834C10.3187 148.094 10.4525 150.399 11.0461 152.605V152.605Z" fill="#FBFBFB"/>
<path d="M64.4053 192.733L81.5089 205.931L88.9068 187.872L64.4053 192.733Z" fill="#FBFBFB"/>
<path d="M55.0067 147.266C51.6095 145.616 48.4772 143.468 45.713 140.894C40.488 136.452 42.8085 146.445 52.5663 153.689C50.4835 154.845 48.3069 155.824 46.0597 156.615C44.1506 157.438 41.7577 157.851 39.9266 158.83C38.0955 159.809 36.8312 160.641 36.8346 162.712C36.8379 164.783 38.3382 166.47 40.2769 165.76C40.0568 166.414 39.9868 167.109 40.072 167.794C40.1572 168.478 40.3955 169.135 40.7691 169.715C41.1426 170.295 41.642 170.783 42.2301 171.144C42.8182 171.504 43.4799 171.728 44.1662 171.798C44.0412 172.448 44.0583 173.118 44.2163 173.761C44.3743 174.404 44.6695 175.006 45.0817 175.524C45.4939 176.043 46.0132 176.466 46.6042 176.765C47.1952 177.064 47.8439 177.232 48.5058 177.257C47.2468 178.18 47.9954 180.807 49.2499 181.817C49.9138 182.246 50.677 182.496 51.4659 182.544C52.2547 182.591 53.0425 182.435 53.7531 182.089C61.2629 178.142 68.5276 173.746 75.5077 168.924C75.5077 168.924 83.6056 163.237 89.2944 162.911L82.0459 151.658C81.6309 150.92 81.1035 150.251 80.4827 149.676C76.8465 146.455 72.6068 149.988 68.801 150.643C63.9524 151.123 59.0854 149.932 55.0067 147.266V147.266Z" fill="#90CDEF"/>
<path d="M83.1222 144.324L70.5625 150.059L81.8013 168.311L95.2898 163.927L83.1222 144.324Z" fill="#C7E6F7"/>
<path d="M247.426 16.1142C248.026 13.7128 249.526 11.6343 251.617 10.3097C253.708 8.98522 256.229 8.51633 258.656 9.00032L308.3 18.7825C309.841 19.0864 311.304 19.7029 312.597 20.5939C313.891 21.4848 314.989 22.6314 315.822 23.9629C316.655 25.2943 317.207 26.7824 317.443 28.3354C317.68 29.8883 317.595 31.4732 317.195 32.9923L309.539 62.0555C309.092 63.7293 308.019 65.1675 306.542 66.0726C305.065 66.9777 303.296 67.2805 301.602 66.9184L278.694 62.0223L268.63 69.7734L263.862 68.6981L264.823 60.4741L264.181 58.8949L248.314 55.5035C246.959 55.2125 245.677 54.6512 244.544 53.853C243.411 53.0549 242.451 52.0365 241.721 50.8587C240.991 49.6808 240.506 48.3678 240.295 46.9982C240.084 45.6285 240.152 44.2305 240.494 42.8876L247.426 16.1142Z" fill="#74C0EB"/>
<path d="M312.397 31.952L304.75 60.9757C304.308 62.6522 303.236 64.0935 301.757 64.9994C300.279 65.9053 298.508 66.2059 296.813 65.8386L243.624 54.4461C242.269 54.155 240.987 53.5937 239.854 52.7955C238.721 51.9974 237.761 50.979 237.031 49.8012C236.301 48.6233 235.816 47.3103 235.605 45.9407C235.394 44.5711 235.462 43.173 235.804 41.8301L242.633 15.0542C243.232 12.6508 244.733 10.57 246.824 9.24213C248.915 7.91431 251.437 7.44115 253.867 7.92054L303.531 17.7072C305.075 18.0112 306.54 18.6295 307.834 19.5234C309.129 20.4174 310.227 21.5681 311.058 22.9039C311.889 24.2398 312.437 25.7323 312.668 27.2888C312.898 28.8453 312.806 30.4326 312.397 31.952V31.952Z" fill="#FBFBFB"/>
<path d="M275.646 59.5896L263.866 68.6793L258.771 56.2413L275.646 59.5896Z" fill="#FBFBFB"/>
<path d="M265.094 44.7627L251.462 41.0122L252.987 35.2891C253.185 34.5177 253.539 33.7952 254.028 33.166C254.516 32.5367 255.128 32.0142 255.826 31.6305C256.524 31.2468 257.293 31.0102 258.086 30.9351C258.879 30.86 259.679 30.9481 260.436 31.194V31.194C262.074 31.6321 263.503 32.6365 264.47 34.0287C265.437 35.421 265.879 37.111 265.718 38.7985L265.094 44.7627Z" fill="#90CDEF"/>
<path d="M257.661 25.1432C257.5 26.1607 257.719 27.2018 258.278 28.0675C258.836 28.9332 259.694 29.5628 260.687 29.8359C261.151 29.9813 261.64 30.0264 262.123 29.9683C262.605 29.9102 263.07 29.7502 263.486 29.4989C263.901 29.2476 264.259 28.9107 264.535 28.5106C264.811 28.1105 264.999 27.6563 265.086 27.1782C265.235 26.1611 265.009 25.1242 264.448 24.2623C263.887 23.4005 263.031 22.773 262.041 22.4978C261.579 22.3528 261.092 22.3076 260.611 22.3653C260.131 22.423 259.668 22.5822 259.254 22.8324C258.84 23.0826 258.483 23.418 258.209 23.8164C257.934 24.2148 257.747 24.6671 257.661 25.1432Z" fill="#90CDEF"/>
<path d="M286.284 50.5894L272.651 46.8389L274.176 41.1157C274.375 40.3444 274.729 39.6218 275.217 38.9926C275.705 38.3634 276.317 37.8408 277.015 37.4572C277.713 37.0735 278.482 36.8368 279.275 36.7617C280.068 36.6867 280.868 36.7748 281.626 37.0206V37.0206C284.895 37.919 287.523 41.3471 286.911 44.6099L286.284 50.5894Z" fill="#90CDEF"/>
<path d="M278.841 31.0331C278.681 32.0491 278.902 33.0884 279.461 33.9517C280.02 34.815 280.878 35.4413 281.871 35.7106C282.333 35.8581 282.822 35.9053 283.304 35.8491C283.786 35.7928 284.251 35.6343 284.667 35.3842C285.083 35.1341 285.44 34.7982 285.716 34.3988C285.992 33.9994 286.18 33.5457 286.266 33.0681C286.416 32.0509 286.189 31.014 285.629 30.1522C285.068 29.2904 284.212 28.6629 283.221 28.3877C282.76 28.2427 282.272 28.1975 281.792 28.2552C281.312 28.3129 280.849 28.4721 280.435 28.7223C280.02 28.9725 279.664 29.3079 279.389 29.7063C279.115 30.1047 278.928 30.557 278.841 31.0331V31.0331Z" fill="#90CDEF"/>
<path d="M279.157 48.6451L259.902 43.3419L262.066 35.2625C262.968 30.6969 267.966 28.2051 272.593 29.4348C277.214 30.6949 280.865 35.5898 280.058 40.1582L279.157 48.6451Z" fill="#C7E6F7"/>
<path d="M268.629 20.921C268.407 22.36 268.721 23.8306 269.511 25.0535C270.302 26.2763 271.514 27.1664 272.917 27.5545C273.57 27.7572 274.259 27.8192 274.937 27.7365C275.616 27.6537 276.269 27.4282 276.854 27.0746C277.44 26.7211 277.943 26.2476 278.332 25.6853C278.721 25.123 278.986 24.4846 279.111 23.8124C279.336 22.377 279.024 20.9089 278.236 19.6887C277.447 18.4684 276.236 17.5814 274.835 17.1971C274.183 16.9897 273.494 16.9236 272.814 17.003C272.134 17.0825 271.479 17.3058 270.892 17.658C270.305 18.0103 269.799 18.4834 269.409 19.046C269.019 19.6086 268.753 20.2477 268.629 20.921Z" fill="#C7E6F7"/>
<path d="M297.527 117.361C298.242 114.496 300.033 112.016 302.528 110.435C305.022 108.855 308.03 108.295 310.926 108.873L370.159 120.545C371.998 120.907 373.743 121.643 375.287 122.706C376.83 123.769 378.14 125.137 379.134 126.726C380.129 128.314 380.787 130.09 381.069 131.943C381.351 133.796 381.25 135.687 380.773 137.499L371.637 172.176C371.104 174.173 369.824 175.889 368.062 176.969C366.299 178.049 364.189 178.411 362.168 177.979L334.835 172.137L322.827 181.385L317.138 180.102L318.284 170.289L317.518 168.405L298.586 164.359C296.97 164.012 295.44 163.342 294.088 162.389C292.737 161.437 291.591 160.222 290.72 158.817C289.849 157.411 289.27 155.845 289.018 154.21C288.767 152.576 288.848 150.908 289.256 149.306L297.527 117.361Z" fill="#74C0EB"/>
<path d="M375.046 136.258L365.922 170.888C365.394 172.888 364.115 174.608 362.351 175.689C360.587 176.769 358.474 177.128 356.452 176.69L292.989 163.097C291.372 162.75 289.842 162.08 288.491 161.127C287.139 160.175 285.993 158.96 285.122 157.555C284.251 156.149 283.672 154.583 283.421 152.948C283.169 151.314 283.25 149.646 283.658 148.044L291.806 116.096C292.521 113.228 294.312 110.745 296.807 109.161C299.302 107.577 302.311 107.012 305.21 107.584L364.467 119.261C366.309 119.624 368.057 120.362 369.602 121.428C371.147 122.495 372.456 123.868 373.448 125.462C374.44 127.056 375.094 128.837 375.369 130.694C375.644 132.551 375.534 134.445 375.046 136.258V136.258Z" fill="#FBFBFB"/>
<path d="M331.198 169.233L317.143 180.079L311.063 165.238L331.198 169.233Z" fill="#FBFBFB"/>
<path d="M343.243 137.717C343.725 135.722 343.513 133.622 342.642 131.763C341.771 129.904 340.293 128.398 338.451 127.492C336.609 126.585 334.514 126.334 332.51 126.778C330.505 127.222 328.713 128.336 327.426 129.936C327.023 127.923 325.946 126.108 324.373 124.789C322.8 123.47 320.825 122.726 318.772 122.681C316.72 122.635 314.714 123.289 313.083 124.537C311.453 125.784 310.296 127.549 309.803 129.542C309.478 130.885 309.471 132.286 309.782 133.632L309.893 134.02L320.795 156.851L340.88 141.801C342.023 140.679 342.84 139.268 343.243 137.717Z" fill="#74C0EB"/>
<defs>
<clipPath id="clip0_122_80047">
<rect width="150.228" height="265.578" fill="white" transform="translate(113.103 19.0764)"/>
</clipPath>
</defs>
</svg>
