<svg width="64" height="64" viewBox="0 0 64 64" fill="none" xmlns="http://www.w3.org/2000/svg">
<path d="M41.2548 9.57375V30.4916C41.2548 32.5421 39.5949 34.213 37.5335 34.213L20.196 34.1913C19.8271 34.2564 19.5124 34.4734 19.3605 34.5493L13.6646 37.5329L7.97942 40.5165C7.55629 40.7335 7.05721 40.4189 7.07891 39.9415L7.30675 34.2238H6.3737C4.32314 34.2238 2.65232 32.5638 2.65232 30.5024V9.5846C2.65232 7.53404 4.31229 5.86322 6.3737 5.86322H37.5443C39.5949 5.86322 41.2657 7.52319 41.2657 9.5846L41.2548 9.57375Z" fill="#FAFBFC"/>
<path d="M7.69742 41.634C7.38278 41.634 7.06815 41.5472 6.79691 41.3737C6.28698 41.0482 5.99405 40.4948 6.02659 39.8873L6.21104 35.2654C3.65055 35.1786 1.6 33.0738 1.6 30.4916V9.57377C1.6 6.94819 3.73735 4.79999 6.37378 4.79999H37.5444C40.1808 4.79999 42.3182 6.93734 42.3182 9.57377V30.4916C42.3182 33.128 40.1808 35.2654 37.5444 35.2654L20.3262 35.2437C20.2286 35.2762 20.0984 35.3522 20.0116 35.3956L19.8489 35.4824L8.47858 41.4388C8.23989 41.5689 7.96865 41.634 7.69742 41.634ZM6.37378 6.91564C4.9091 6.91564 3.7048 8.10909 3.7048 9.58462V30.5025C3.7048 31.9671 4.89825 33.1714 6.37378 33.1714H8.41348L8.16395 39.2363L18.8833 33.6271C19.1653 33.4644 19.5559 33.2474 20.0333 33.1606H37.5444C39.0091 33.1606 40.2134 31.9671 40.2134 30.5025V9.58462C40.2134 8.11993 39.0199 6.91564 37.5444 6.91564H6.37378Z" fill="#6A509B"/>
<g style="mix-blend-mode:multiply" opacity="0.1">
<path d="M37.349 4.84337C40.018 4.84337 42.1771 7.00242 42.1771 9.6714V30.6435C42.1771 33.3125 40.018 35.4715 37.349 35.4715C37.0452 35.4715 36.7957 35.222 36.7957 34.9182V5.38584C36.7957 5.08206 37.0452 4.83252 37.349 4.83252V4.84337Z" fill="#6A509B"/>
</g>
<path d="M12.3194 22.2785C13.5537 22.2785 14.5544 21.2779 14.5544 20.0435C14.5544 18.8092 13.5537 17.8085 12.3194 17.8085C11.085 17.8085 10.0844 18.8092 10.0844 20.0435C10.0844 21.2779 11.085 22.2785 12.3194 22.2785Z" fill="#6A509B"/>
<path d="M21.4979 22.2785C22.7322 22.2785 23.7329 21.2779 23.7329 20.0435C23.7329 18.8092 22.7322 17.8085 21.4979 17.8085C20.2635 17.8085 19.2629 18.8092 19.2629 20.0435C19.2629 21.2779 20.2635 22.2785 21.4979 22.2785Z" fill="#6A509B"/>
<path d="M31.1975 22.2785C32.4319 22.2785 33.4325 21.2779 33.4325 20.0435C33.4325 18.8092 32.4319 17.8085 31.1975 17.8085C29.9631 17.8085 28.9625 18.8092 28.9625 20.0435C28.9625 21.2779 29.9631 22.2785 31.1975 22.2785Z" fill="#6A509B"/>
<path d="M61.7171 27.8444V49.2396C61.7171 50.8453 60.4151 52.1473 58.8094 52.1473H57.2471L57.4749 57.6371C57.4966 58.0928 57.0084 58.3966 56.607 58.1796L51.1497 55.3262L45.6924 52.4727C45.5513 52.3968 45.4537 52.2883 45.4103 52.1473H27.5954C25.9897 52.1473 24.6877 50.8453 24.6877 49.2396V27.8444C24.6877 26.2386 25.9897 24.9367 27.5954 24.9367H58.8094C60.4151 24.9367 61.7171 26.2386 61.7171 27.8444Z" fill="#FAFBFC"/>
<path d="M56.889 59.3405C56.6178 59.3405 56.3574 59.2754 56.1078 59.1452L45.1824 53.4275C45.0739 53.3732 44.9762 53.3081 44.8895 53.2322H27.5953C25.3929 53.2322 23.6027 51.442 23.6027 49.2396V27.8444C23.6027 25.6419 25.3929 23.8517 27.5953 23.8517H58.8094C61.0118 23.8517 62.802 25.6419 62.802 27.8444V49.2396C62.802 51.442 61.0118 53.2322 58.8094 53.2322H58.3754L58.5598 57.5937C58.5815 58.2013 58.2886 58.7546 57.7787 59.0801C57.5074 59.2537 57.1928 59.3405 56.8781 59.3405H56.889ZM46.3758 51.6048L56.3574 56.8342L56.1187 51.0731H58.8094C59.8184 51.0731 60.6321 50.2594 60.6321 49.2504V27.8552C60.6321 26.8462 59.8184 26.0325 58.8094 26.0325H27.5953C26.5863 26.0325 25.7726 26.8462 25.7726 27.8552V49.2504C25.7726 50.2594 26.5863 51.0731 27.5953 51.0731H46.2022L46.3758 51.6156V51.6048Z" fill="#005894"/>
<g style="mix-blend-mode:multiply">
<path d="M57.7896 24.9584H58.2887C60.1656 24.9584 61.6954 26.4882 61.6954 28.3651V48.7296C61.6954 50.6283 60.1548 52.1689 58.2561 52.1689H57.7787C57.616 52.1689 57.4858 52.0387 57.4858 51.876V25.2622C57.4858 25.0994 57.616 24.9692 57.7787 24.9692L57.7896 24.9584Z" fill="#D8E5EE"/>
</g>
<path d="M33.1194 41.4785C34.3537 41.4785 35.3544 40.4779 35.3544 39.2435C35.3544 38.0092 34.3537 37.0085 33.1194 37.0085C31.885 37.0085 30.8844 38.0092 30.8844 39.2435C30.8844 40.4779 31.885 41.4785 33.1194 41.4785Z" fill="#005895"/>
<path d="M42.2979 41.4785C43.5322 41.4785 44.5329 40.4779 44.5329 39.2435C44.5329 38.0092 43.5322 37.0085 42.2979 37.0085C41.0635 37.0085 40.0629 38.0092 40.0629 39.2435C40.0629 40.4779 41.0635 41.4785 42.2979 41.4785Z" fill="#005895"/>
<path d="M51.9975 41.4785C53.2318 41.4785 54.2325 40.4779 54.2325 39.2435C54.2325 38.0092 53.2318 37.0085 51.9975 37.0085C50.7631 37.0085 49.7625 38.0092 49.7625 39.2435C49.7625 40.4779 50.7631 41.4785 51.9975 41.4785Z" fill="#005895"/>
</svg>
