<svg width="80" height="100" viewBox="0 0 80 100" fill="none" xmlns="http://www.w3.org/2000/svg">
<path d="M34.1993 55.3757L44.8466 52.1184C45.1077 52.0386 45.2546 51.7621 45.1747 51.501L43.2585 45.2372C43.1786 44.9761 42.9022 44.8292 42.6411 44.9091L31.9937 48.1663C31.7326 48.2462 31.5857 48.5226 31.6656 48.7837L33.5818 55.0475C33.6617 55.3087 33.9381 55.4556 34.1993 55.3757Z" fill="#AB8DDD"/>
<path d="M38.6384 51.5185C38.7364 51.5182 38.8333 51.4969 38.9224 51.4561C39.0116 51.4152 39.0909 51.3558 39.1552 51.2817L39.1664 51.2673L42.9552 45.6193C42.9775 45.5859 42.9856 45.5451 42.9778 45.5058C42.97 45.4665 42.9469 45.4319 42.9136 45.4097C42.8803 45.3874 42.8395 45.3792 42.8002 45.387C42.7609 45.3948 42.7262 45.4179 42.704 45.4513L38.92 51.0897C38.8739 51.1406 38.8149 51.178 38.7493 51.198C38.6836 51.218 38.6138 51.2198 38.5472 51.2033L32.2528 48.6433C32.2191 48.6408 32.1855 48.649 32.1568 48.6668C32.1281 48.6846 32.1058 48.711 32.093 48.7422C32.0802 48.7735 32.0776 48.808 32.0856 48.8408C32.0936 48.8736 32.1118 48.903 32.1376 48.9249L38.4608 51.4849C38.5182 51.5039 38.5779 51.5152 38.6384 51.5185Z" fill="#FFAC45"/>
<path d="M42.2958 50.7472C42.3306 50.748 42.3646 50.7367 42.3919 50.7152C42.4193 50.6938 42.4384 50.6635 42.446 50.6295C42.4535 50.5955 42.4491 50.56 42.4333 50.529C42.4176 50.4979 42.3916 50.4733 42.3598 50.4592L40.1838 49.4368C40.1658 49.4284 40.1464 49.4236 40.1266 49.4228C40.1067 49.4219 40.0869 49.4249 40.0683 49.4317C40.0497 49.4384 40.0325 49.4488 40.0179 49.4622C40.0032 49.4755 39.9914 49.4917 39.983 49.5096C39.9746 49.5276 39.9698 49.547 39.9689 49.5669C39.968 49.5867 39.971 49.6065 39.9778 49.6251C39.9846 49.6438 39.9949 49.6609 40.0083 49.6755C40.0217 49.6902 40.0378 49.702 40.0558 49.7104L42.2318 50.7328C42.2519 50.742 42.2737 50.7469 42.2958 50.7472Z" fill="#FFAC45"/>
<path d="M44.1587 51.6144C44.1872 51.6132 44.2148 51.6044 44.2387 51.5889C44.2626 51.5735 44.2819 51.5519 44.2947 51.5265C44.3034 51.5085 44.3083 51.489 44.3094 51.4691C44.3105 51.4493 44.3075 51.4294 44.3008 51.4106C44.2942 51.3918 44.2838 51.3746 44.2704 51.3599C44.257 51.3452 44.2408 51.3333 44.2227 51.3248L43.1379 50.8161C43.1023 50.803 43.0631 50.8037 43.028 50.8181C42.9929 50.8325 42.9645 50.8594 42.9482 50.8937C42.932 50.928 42.9292 50.9671 42.9403 51.0033C42.9514 51.0396 42.9757 51.0704 43.0083 51.0896L44.0931 51.6C44.1137 51.6094 44.1361 51.6143 44.1587 51.6144Z" fill="#FFAC45"/>
<path d="M34.4329 54.6112C34.4593 54.6116 34.4853 54.6049 34.5084 54.592C34.5314 54.5791 34.5506 54.5603 34.5641 54.5376L35.1737 53.5056C35.1842 53.4885 35.1912 53.4695 35.1944 53.4496C35.1975 53.4298 35.1968 53.4095 35.1921 53.39C35.1874 53.3705 35.1789 53.352 35.1671 53.3358C35.1553 53.3195 35.1404 53.3057 35.1233 53.2952C35.1062 53.2847 35.0872 53.2777 35.0673 53.2745C35.0475 53.2714 35.0272 53.2722 35.0077 53.2769C34.9881 53.2815 34.9697 53.29 34.9534 53.3018C34.9372 53.3136 34.9234 53.3285 34.9129 53.3456L34.3033 54.3776C34.2893 54.4005 34.2817 54.4267 34.2813 54.4535C34.2808 54.4804 34.2876 54.5068 34.3008 54.5302C34.314 54.5535 34.3332 54.5729 34.3565 54.5863C34.3797 54.5997 34.4061 54.6067 34.4329 54.6064V54.6112Z" fill="#FFAC45"/>
<path d="M35.4792 52.8497C35.5054 52.8491 35.5311 52.8421 35.554 52.8292C35.5769 52.8164 35.5963 52.7981 35.6104 52.7761L36.8376 50.6961C36.856 50.6608 36.8606 50.62 36.8506 50.5816C36.8405 50.5431 36.8165 50.5098 36.7832 50.4881C36.7662 50.4779 36.7474 50.4713 36.7278 50.4685C36.7082 50.4656 36.6882 50.4667 36.6691 50.4716C36.6499 50.4765 36.6319 50.4852 36.616 50.497C36.6002 50.5089 36.5869 50.5238 36.5768 50.5409L35.3496 52.6209C35.3311 52.6559 35.3262 52.6966 35.336 52.735C35.3457 52.7735 35.3694 52.8069 35.4024 52.8289C35.4257 52.8426 35.4522 52.8497 35.4792 52.8497Z" fill="#FFAC45"/>
<path d="M43.2513 46.3955C43.9207 46.204 44.3082 45.5061 44.1168 44.8366C43.9253 44.1671 43.2274 43.7796 42.5579 43.9711C41.8884 44.1626 41.5009 44.8605 41.6924 45.53C41.8838 46.1995 42.5818 46.587 43.2513 46.3955Z" fill="#B81C37"/>
<path d="M52.5717 23.9296L50.0901 26.9456C49.7477 27.3616 50.1845 27.9392 50.7221 27.784L57.1477 25.9232L55.4661 23.3472L52.5717 23.9296Z" fill="#AB8DDD"/>
<path d="M54.4607 26.0065L67.0634 26.1231C68.1405 26.1331 69.0217 25.268 69.0317 24.1908L69.1287 13.7097C69.1386 12.6325 68.2735 11.7513 67.1964 11.7413L54.5937 11.6247C53.5166 11.6148 52.6353 12.4799 52.6254 13.557L52.5284 24.0382C52.5185 25.1153 53.3836 25.9966 54.4607 26.0065Z" fill="#AB8DDD"/>
<path d="M55.9305 23.7144L65.6341 23.8042C66.0503 23.808 66.3908 23.4738 66.3947 23.0576L66.4711 14.7955C66.4749 14.3794 66.1407 14.0389 65.7245 14.035L56.0209 13.9452C55.6047 13.9414 55.2642 14.2757 55.2604 14.6918L55.1839 22.9539C55.1801 23.3701 55.5144 23.7106 55.9305 23.7144Z" fill="#FBFBFB"/>
<path d="M56.801 22.9688L64.7767 23.0426C65.1929 23.0465 65.5334 22.7122 65.5372 22.296L65.5997 15.5395C65.6036 15.1233 65.2693 14.7828 64.8531 14.779L56.8775 14.7052C56.4613 14.7013 56.1208 15.0356 56.1169 15.4518L56.0544 22.2083C56.0506 22.6245 56.3849 22.965 56.801 22.9688Z" fill="#FDE8D3"/>
<path d="M56.801 22.9694L64.7767 23.0431C65.1929 23.047 65.5334 22.7127 65.5372 22.2965L65.5454 21.4102C65.5493 20.994 65.215 20.6535 64.7988 20.6496L56.8232 20.5759C56.407 20.572 56.0665 20.9063 56.0627 21.3225L56.0545 22.2088C56.0506 22.625 56.3849 22.9655 56.801 22.9694Z" fill="#FFAC45"/>
<path d="M64.3122 13.3122C64.4112 13.2132 64.5287 13.1347 64.658 13.0811C64.7873 13.0276 64.9259 13 65.0658 13C65.2058 13 65.3444 13.0276 65.4737 13.0811C65.603 13.1347 65.7205 13.2132 65.8194 13.3122L66.0898 13.5842L66.3618 13.3122C66.4608 13.2132 66.5783 13.1347 66.7076 13.0812C66.8369 13.0276 66.9755 13.0001 67.1154 13.0001C67.2554 13.0001 67.394 13.0276 67.5233 13.0812C67.6526 13.1347 67.77 13.2132 67.869 13.3122C67.968 13.4112 68.0465 13.5287 68.1 13.658C68.1536 13.7873 68.1812 13.9259 68.1812 14.0658C68.1812 14.2058 68.1536 14.3444 68.1 14.4737C68.0465 14.603 67.968 14.7204 67.869 14.8194L67.5986 15.0914L66.0898 16.597L64.5826 15.0914L64.3122 14.8194C64.2132 14.7205 64.1347 14.603 64.0811 14.4737C64.0276 14.3444 64 14.2058 64 14.0658C64 13.9259 64.0276 13.7873 64.0811 13.658C64.1347 13.5287 64.2132 13.4112 64.3122 13.3122Z" fill="#B81C37"/>
<path d="M63.8139 21.0992C63.8139 21.0992 62.5419 17.9904 61.7787 18.112C61.0155 18.2336 59.4619 21.0992 59.4619 21.0992H63.8139Z" fill="#FFAC45"/>
<path d="M62.511 21.4177C62.511 21.4177 60.1318 16.4001 59.0054 16.7105C57.879 17.0209 56.1494 20.9841 56.1494 20.9841C56.1494 20.9841 60.1814 21.8625 60.1718 21.8625L62.511 21.4177Z" fill="#FFAC45"/>
<path d="M56.2875 40.8608L54.8011 42.6688C54.7584 42.7256 54.7354 42.7946 54.7354 42.8656C54.7353 42.9366 54.7583 43.0056 54.8009 43.0624C54.8434 43.1192 54.9032 43.1607 54.9714 43.1806C55.0395 43.2005 55.1122 43.1978 55.1787 43.1728L59.0315 42.0528L58.0235 40.5088L56.2875 40.8608Z" fill="#AB8DDD"/>
<path d="M57.4205 42.1054L64.9769 42.1753C65.6229 42.1813 66.1513 41.6625 66.1573 41.0166L66.2154 34.732C66.2214 34.0861 65.7026 33.5577 65.0567 33.5517L57.5002 33.4818C56.8543 33.4758 56.3258 33.9946 56.3199 34.6405L56.2617 40.925C56.2558 41.571 56.7745 42.0994 57.4205 42.1054Z" fill="#AB8DDD"/>
<path d="M58.8252 40.2847L63.6074 40.329C63.8566 40.3313 64.0605 40.1311 64.0628 39.882L64.1003 35.8293C64.1026 35.5801 63.9024 35.3763 63.6532 35.374L58.8711 35.3297C58.6219 35.3274 58.418 35.5276 58.4157 35.7767L58.3782 39.8294C58.3759 40.0785 58.576 40.2824 58.8252 40.2847Z" fill="#AB8DDD"/>
<path d="M61.2791 35.1953C59.7287 35.1953 58.4727 36.2801 58.4727 37.6193C58.4739 38.0646 58.6125 38.4987 58.8695 38.8625L58.6199 39.5169C58.6087 39.5468 58.6057 39.5792 58.6112 39.6106C58.6168 39.6421 58.6306 39.6715 58.6513 39.6958C58.6721 39.7201 58.6989 39.7385 58.7291 39.7489C58.7593 39.7594 58.7917 39.7616 58.8231 39.7553L59.6439 39.5873C60.1358 39.8884 60.7023 40.0458 61.2791 40.0417C62.8295 40.0417 64.0855 38.9569 64.0855 37.6193C64.0855 36.2817 62.8279 35.1953 61.2791 35.1953Z" fill="#FBFBFB"/>
<path d="M50.1591 73.0832H32.7591C32.1856 73.0832 31.7207 73.5481 31.7207 74.1216V74.8288C31.7207 75.4023 32.1856 75.8672 32.7591 75.8672H50.1591C50.7326 75.8672 51.1975 75.4023 51.1975 74.8288V74.1216C51.1975 73.5481 50.7326 73.0832 50.1591 73.0832Z" fill="#003C75"/>
<path d="M32.0243 74.4448H51.0403C51.0827 74.4448 51.1234 74.428 51.1534 74.398C51.1834 74.368 51.2003 74.3273 51.2003 74.2848C51.2003 74.2424 51.1834 74.2017 51.1534 74.1717C51.1234 74.1417 51.0827 74.1248 51.0403 74.1248H32.0243C31.9818 74.1248 31.9411 74.1417 31.9111 74.1717C31.8811 74.2017 31.8643 74.2424 31.8643 74.2848C31.8643 74.3273 31.8811 74.368 31.9111 74.398C31.9411 74.428 31.9818 74.4448 32.0243 74.4448Z" fill="#FBFBFB"/>
<path d="M66.6482 49.7872C65.221 50.8016 61.8002 53.1344 61.613 53.2512C61.5698 53.2144 61.5282 53.1792 61.4834 53.1456C61.2553 52.9855 60.9999 52.8684 60.7298 52.8C59.4738 52.48 58.2594 53.0528 57.0706 53.3712C56.757 53.4576 56.4353 53.5112 56.1106 53.5312C55.5285 53.1729 54.8653 52.9676 54.1826 52.9344C53.037 52.8672 51.9426 53.2544 50.9666 53.84C49.901 54.4896 48.9826 55.3616 48.1042 56.24C47.4642 56.88 46.8514 57.5467 46.2658 58.24C45.5981 58.9675 44.9501 59.7142 44.3218 60.48C43.6242 61.327 42.9522 62.1942 42.3058 63.0816C41.5794 64.0784 40.8466 65.1536 40.1778 66.2208C39.6754 67.0208 38.3666 68.4992 38.813 69.5088C39.0322 70.0064 39.5874 70.2912 40.1138 70.3088C40.6218 70.3027 41.1172 70.1505 41.541 69.8704C42.0519 69.5345 42.5336 69.1561 42.981 68.7392C43.917 67.8944 44.4418 67.368 45.2034 66.5504C46.1778 65.52 47.781 63.904 47.9682 63.76C47.8786 64.08 47.7938 64.4 47.7186 64.72C47.5794 65.2391 47.4883 65.7699 47.4466 66.3056C47.4252 66.8122 47.5222 67.3167 47.7298 67.7792C47.9426 68.2361 48.1976 68.6721 48.4914 69.0816C48.7772 69.4961 49.0849 69.895 49.413 70.2768C49.7298 70.6544 50.073 71.0089 50.4402 71.3376C50.7743 71.6476 51.1679 71.8865 51.597 72.04C52.157 72.2192 52.861 72.1344 53.3058 71.7312C53.5587 71.9689 53.8503 72.1616 54.1682 72.3008C54.5053 72.4394 54.8787 72.463 55.2306 72.368C55.4098 72.3168 55.5815 72.2421 55.741 72.1456C55.7819 72.2546 55.8284 72.3614 55.8802 72.4656C56.1747 73.0609 56.6877 73.5195 57.3122 73.7456C57.6117 73.85 57.9336 73.8732 58.245 73.8128C58.5641 73.7402 58.8567 73.5801 59.0898 73.3504C59.2774 73.1697 59.4342 72.9594 59.5538 72.728C59.5979 72.8899 59.6723 73.0419 59.773 73.176C59.8998 73.3297 60.0645 73.4475 60.2508 73.518C60.4372 73.5884 60.6387 73.609 60.8354 73.5776C61.2619 73.503 61.6514 73.2885 61.9426 72.968C62.2526 72.6487 62.5213 72.2918 62.7426 71.9056C63.1459 71.1753 63.4715 70.4047 63.7138 69.6064C64.9938 68.6176 66.245 67.5968 67.3298 66.3984C68.3019 65.3527 69.0717 64.1359 69.6002 62.8096C69.9442 62.4336 72.4082 59.8208 74.0482 58.0752C74.5666 57.5228 74.9077 56.8278 75.0275 56.0798C75.1472 55.3318 75.0402 54.5651 74.7202 53.8784C73.4562 51.1584 71.0002 49.6896 67.1842 49.6176C66.992 49.6153 66.8041 49.6748 66.6482 49.7872Z" fill="#F78C79"/>
<path d="M53.3548 71.5904C52.6466 70.6958 52.1003 69.6844 51.7404 68.6016C51.366 67.4736 51.0828 66.2016 51.2796 65.0208C51.4764 63.84 52.0972 62.6848 52.5852 61.576L54.1724 57.9664C54.2572 57.7776 53.9756 57.6112 53.8924 57.8064C53.4562 58.7952 53.0204 59.7846 52.5852 60.7744C52.1644 61.7344 51.7132 62.6784 51.3372 63.6544C50.963 64.581 50.8282 65.5868 50.9452 66.5792C51.0571 67.4909 51.285 68.3846 51.6236 69.2384C51.9941 70.1674 52.4981 71.0373 53.1196 71.8208C53.2492 71.9808 53.478 71.7536 53.35 71.5904H53.3548Z" fill="#693B33"/>
<path d="M55.9357 72.16C55.6413 69.8 55.3421 67.36 55.9709 65.0224C56.2797 63.8784 56.7789 62.8016 57.2749 61.7312L58.8349 58.3712C58.9229 58.1824 58.6429 58.016 58.5533 58.2112C58.0199 59.3685 57.4834 60.5259 56.9437 61.6832C56.4525 62.7424 55.9629 63.8112 55.6637 64.9408C55.0237 67.3056 55.3181 69.7744 55.6157 72.1664C55.6413 72.3712 55.9677 72.3744 55.9357 72.1664V72.16Z" fill="#693B33"/>
<path d="M59.8133 72.9456C59.5723 68.6736 60.6576 64.4315 62.9205 60.8C63.0325 60.6224 62.7509 60.4592 62.6405 60.64C60.3464 64.3201 59.245 68.619 59.4869 72.9488C59.4981 73.1568 59.8245 73.1584 59.8069 72.9488L59.8133 72.9456Z" fill="#693B33"/>
<path d="M63.8502 69.72C64.7394 68.1666 65.4813 66.5333 66.0662 64.8416C66.135 64.6432 65.8214 64.5584 65.7462 64.7552C65.1686 66.4195 64.4375 68.0264 63.5622 69.5552C63.5409 69.5926 63.5354 69.6368 63.5468 69.6782C63.5582 69.7196 63.5856 69.7548 63.623 69.776C63.6603 69.7972 63.7045 69.8027 63.7459 69.7913C63.7874 69.7799 63.8225 69.7526 63.8438 69.7152L63.8502 69.72Z" fill="#693B33"/>
<path d="M69.889 58.96C69.9349 60.2359 69.7728 61.5107 69.409 62.7344C69.4034 62.7554 69.4019 62.7773 69.4047 62.7989C69.4075 62.8205 69.4145 62.8413 69.4254 62.8602C69.4362 62.8791 69.4507 62.8956 69.4679 62.9089C69.4852 62.9222 69.5048 62.9319 69.5258 62.9376C69.5469 62.9433 69.5688 62.9448 69.5904 62.942C69.6119 62.9392 69.6328 62.9321 69.6516 62.9213C69.6705 62.9104 69.6871 62.896 69.7003 62.8787C69.7136 62.8615 69.7234 62.8418 69.729 62.8208C70.0977 61.5685 70.2598 60.2645 70.209 58.96C70.209 58.752 69.8762 58.7504 69.889 58.96Z" fill="#693B33"/>
<path d="M67.0406 56.08C67.4302 56.1302 67.8061 56.2571 68.1464 56.4535C68.4866 56.6498 68.7846 56.9117 69.023 57.224C69.1478 57.384 69.4294 57.224 69.303 57.064C69.0444 56.7145 68.7188 56.4199 68.3452 56.1974C67.9716 55.9749 67.5575 55.829 67.127 55.768C66.9222 55.7408 66.8342 56.0544 67.0406 56.088V56.08Z" fill="#693B33"/>
<path d="M61.4486 53.392C61.9606 54.032 62.8566 53.9824 63.5942 54.0048C64.5878 54.0368 65.7222 54.1648 66.3542 55.0336C66.4774 55.1936 66.7606 55.0336 66.6358 54.8736C66.1158 54.16 65.2982 53.848 64.4454 53.7424C63.943 53.68 63.4374 53.6928 62.9334 53.664C62.4646 53.6368 61.9878 53.5504 61.679 53.1664C61.5478 53.0064 61.319 53.2352 61.4486 53.3968V53.392Z" fill="#693B33"/>
<path d="M48.0497 63.8976C49.4897 62.9504 50.7697 61.7808 52.0273 60.6096C52.1873 60.4672 51.9505 60.2368 51.7969 60.3792C50.5537 61.5312 49.3057 62.6832 47.8865 63.6176C47.7121 63.7312 47.8737 64.0144 48.0465 63.8976H48.0497Z" fill="#693B33"/>
<path d="M51.2082 61.208C51.5374 61.4596 51.921 61.6306 52.3282 61.7072C52.5346 61.744 52.6226 61.4304 52.4162 61.3872C52.036 61.316 51.6779 61.156 51.3714 60.92C51.2018 60.7968 51.0386 61.08 51.2114 61.2016L51.2082 61.208Z" fill="#693B33"/>
<path d="M52.4982 75.152C51.9382 74.4672 50.9942 74.472 50.1958 74.5952C49.0454 74.7728 47.9238 75.2352 46.7622 75.2352C44.3078 75.216 41.8502 75.1792 39.4022 75.2656C38.2822 75.3056 37.1494 75.3712 36.0278 75.48C35.0678 75.5728 34.1174 75.6976 33.1718 75.8608C33.2678 75.3168 32.9014 74.3216 31.0918 73.2768C30.2918 72.8096 29.4454 72.4096 28.6566 71.9152C27.8678 71.4208 27.3174 70.7136 26.8966 69.888C26.5555 69.2422 26.1445 68.6359 25.671 68.08C24.4966 66.6656 22.991 65.3136 21.191 64.7984C19.831 64.408 18.3686 64.5264 17.0198 64.9056C16.4347 65.0711 15.8616 65.2764 15.3046 65.52C15.0646 65.36 13.271 64.1872 12.4246 63.632C12.2859 63.5417 12.1254 63.4906 11.96 63.4841C11.7947 63.4776 11.6307 63.516 11.4854 63.5952C9.18615 64.8496 6.57655 67.736 6.63575 71.6976C6.63781 71.8737 6.69009 72.0455 6.78646 72.1929C6.88283 72.3403 7.01927 72.4571 7.17975 72.5296C10.271 73.8976 12.6022 74.8768 15.2214 76.2096C19.143 78.2112 23.1446 80.0496 27.2358 81.6784C28.1398 82.0368 29.0534 82.424 29.9974 82.6576C30.9974 82.9056 31.991 82.8176 32.9926 82.6352C34.951 82.2704 36.9094 81.9062 38.8678 81.5424C42.7078 80.8368 46.575 80.016 50.119 78.3248C50.8758 77.9632 51.719 77.5984 52.2982 76.9728C52.775 76.4688 52.9766 75.7376 52.4982 75.152Z" fill="#F78C79"/>
<path d="M19.9478 73.3232C22.0598 73.616 24.0598 74.3792 26.0102 75.2128C27.0118 75.64 28.0086 76.0768 29.0086 76.5088C29.8678 76.8816 30.7942 77.3696 31.7606 77.2608C32.5526 77.1712 33.2918 76.608 33.3686 75.7824C33.3878 75.5744 33.063 75.576 33.0486 75.7824C32.999 76.3168 32.559 76.7008 32.0726 76.8624C31.5078 77.048 30.9014 76.9104 30.3574 76.7184C29.1622 76.296 28.0054 75.7184 26.8374 75.216C24.6454 74.2672 22.4166 73.3392 20.0342 73.0096C19.8294 72.9808 19.7414 73.2944 19.9478 73.3296V73.3232Z" fill="#693B33"/>
<path d="M12.8193 67.2512C13.4792 66.5166 14.3308 65.9803 15.2785 65.7024C15.3209 65.691 15.357 65.6631 15.3789 65.625C15.4008 65.5869 15.4067 65.5417 15.3953 65.4992C15.3838 65.4568 15.356 65.4207 15.3178 65.3988C15.2797 65.3768 15.2345 65.371 15.1921 65.3824C14.1904 65.6766 13.2895 66.242 12.5889 67.016C12.4481 67.176 12.6785 67.4016 12.8193 67.2464V67.2512Z" fill="#693B33"/>
<path d="M39.8112 70.3088C40.6256 69.8592 41.3664 69.0288 41.5712 68.1008C41.776 67.1728 41.1072 66.4352 40.2048 66.2784C39.9984 66.2432 39.9104 66.5568 40.1168 66.5984C40.4768 66.6409 40.8095 66.8112 41.0544 67.0784C41.3744 67.4672 41.3232 67.9712 41.1328 68.4032C40.831 69.0976 40.3085 69.6729 39.6464 70.04C39.609 70.0612 39.5817 70.0964 39.5703 70.1378C39.5589 70.1792 39.5644 70.2235 39.5856 70.2608C39.6068 70.2982 39.642 70.3255 39.6834 70.3369C39.7248 70.3483 39.769 70.3428 39.8064 70.3216L39.8112 70.3088Z" fill="#693B33"/>
<path d="M49.6885 78.5648C49.9823 78.0433 50.3943 77.598 50.8914 77.2645C51.3885 76.9311 51.9569 76.7188 52.5509 76.6448C52.7573 76.6192 52.7589 76.2944 52.5509 76.3248C51.9003 76.4002 51.2766 76.6279 50.7304 76.9892C50.1842 77.3506 49.7308 77.8356 49.4069 78.4048C49.3857 78.4422 49.3802 78.4864 49.3916 78.5278C49.403 78.5692 49.4303 78.6044 49.4677 78.6256C49.505 78.6468 49.5493 78.6524 49.5907 78.6409C49.6321 78.6295 49.6673 78.6022 49.6885 78.5648Z" fill="#693B33"/>
<path d="M28.7836 76.304C29.9868 75.632 31.3116 76.28 32.3212 77C32.4924 77.1216 32.6556 76.84 32.4812 76.7184C31.3612 75.9184 29.9212 75.2912 28.614 76.0224C28.4316 76.1248 28.5948 76.4048 28.774 76.304H28.7836Z" fill="#693B33"/>
<path d="M36.5871 61.9433L23.9858 56.685C23.3815 56.4328 22.6872 56.7183 22.435 57.3226L20.4097 62.1762C20.1575 62.7805 20.443 63.4747 21.0473 63.7269L33.6486 68.9852C34.2529 69.2374 34.9472 68.9519 35.1993 68.3476L37.2246 63.4941C37.4768 62.8898 37.1913 62.1955 36.5871 61.9433Z" fill="#AB8DDD"/>
<path d="M35.2002 68.3456L35.8658 70.624C35.8831 70.694 35.8772 70.7678 35.849 70.8342C35.8208 70.9006 35.7717 70.956 35.7093 70.9921C35.6468 71.0282 35.5743 71.043 35.5027 71.0344C35.431 71.0257 35.3642 70.994 35.3122 70.944L32.1602 68.3648L33.7154 67.328L35.2002 68.3456Z" fill="#AB8DDD"/>
<path d="M24.2675 60.4576C24.7712 60.4576 25.1795 60.0493 25.1795 59.5456C25.1795 59.0419 24.7712 58.6336 24.2675 58.6336C23.7638 58.6336 23.3555 59.0419 23.3555 59.5456C23.3555 60.0493 23.7638 60.4576 24.2675 60.4576Z" fill="#FFAC45"/>
<path d="M25.9777 60.4272C25.9412 60.4039 25.9155 60.367 25.9062 60.3247C25.8969 60.2824 25.9047 60.2381 25.9281 60.2016C25.9514 60.1651 25.9883 60.1394 26.0306 60.1301C26.0729 60.1208 26.1172 60.1287 26.1537 60.152L33.9937 63.4256C34.0146 63.4331 34.0337 63.4449 34.0497 63.4602C34.0658 63.4754 34.0786 63.4939 34.0872 63.5143C34.0957 63.5348 34.1 63.5568 34.0996 63.579C34.0992 63.6012 34.0942 63.6231 34.0849 63.6432C34.0672 63.6838 34.0345 63.7159 33.9935 63.7326C33.9526 63.7493 33.9067 63.7494 33.8657 63.7328L26.0257 60.4592C26.0079 60.4515 25.9916 60.4407 25.9777 60.4272Z" fill="#FFAC45"/>
<path d="M25.4389 61.7136C25.4133 61.691 25.3956 61.6607 25.3884 61.6273C25.3812 61.594 25.3848 61.5591 25.3989 61.528C25.4065 61.5072 25.4184 61.4883 25.4338 61.4724C25.4491 61.4565 25.4676 61.4439 25.488 61.4355C25.5085 61.4271 25.5304 61.423 25.5525 61.4235C25.5747 61.424 25.5964 61.429 25.6165 61.4384L33.4565 64.712C33.4972 64.729 33.5295 64.7614 33.5463 64.8022C33.5631 64.843 33.563 64.8888 33.5461 64.9296C33.5291 64.9703 33.4966 65.0026 33.4558 65.0194C33.415 65.0362 33.3692 65.0361 33.3285 65.0192L25.4885 61.7456C25.4699 61.7384 25.4531 61.7275 25.4389 61.7136Z" fill="#FFAC45"/>
<path d="M24.9013 63.0016C24.8766 62.9781 24.8595 62.9476 24.8524 62.9142C24.8452 62.8808 24.8484 62.846 24.8613 62.8144C24.869 62.7937 24.8809 62.7747 24.8962 62.7588C24.9115 62.7429 24.93 62.7303 24.9505 62.7219C24.9709 62.7135 24.9929 62.7094 25.015 62.7099C25.0371 62.7104 25.0589 62.7155 25.0789 62.7248L29.8101 64.6992C29.8309 64.7069 29.8498 64.7188 29.8657 64.7341C29.8816 64.7495 29.8942 64.7679 29.9026 64.7884C29.911 64.8088 29.9151 64.8308 29.9146 64.8529C29.9141 64.875 29.909 64.8968 29.8997 64.9168C29.8821 64.9574 29.8493 64.9895 29.8083 65.0062C29.7674 65.0229 29.7215 65.023 29.6805 65.0064L24.9589 63.032C24.938 63.0256 24.9184 63.0153 24.9013 63.0016Z" fill="#FFAC45"/>
<path d="M38.1322 35.6912L12.2874 29.8784C12.0375 29.8222 11.8011 29.7174 11.5916 29.5698C11.3822 29.4223 11.2039 29.2349 11.0669 29.0184C10.9299 28.8019 10.8369 28.5606 10.7932 28.3081C10.7495 28.0557 10.756 27.7971 10.8122 27.5472L13.1322 17.2352C13.1884 16.9852 13.2933 16.7488 13.4408 16.5394C13.5884 16.33 13.7758 16.1517 13.9922 16.0147C14.2087 15.8777 14.4501 15.7847 14.7025 15.741C14.9549 15.6973 15.2135 15.7037 15.4634 15.76L41.3082 21.5744C41.5582 21.6306 41.7946 21.7354 42.0041 21.883C42.2135 22.0305 42.3918 22.2179 42.5288 22.4344C42.6658 22.6509 42.7588 22.8922 42.8025 23.1447C42.8462 23.3971 42.8397 23.6557 42.7834 23.9056L40.465 34.216C40.3512 34.7209 40.0416 35.16 39.6041 35.4366C39.1666 35.7133 38.6372 35.8048 38.1322 35.6912Z" fill="#AB8DDD"/>
<path d="M24.0434 20.7046L16.8972 19.0968C16.536 19.0155 16.1773 19.2424 16.096 19.6037L14.4882 26.7498C14.4069 27.111 14.6338 27.4698 14.9951 27.551L22.1412 29.1589C22.5024 29.2401 22.8612 29.0132 22.9424 28.652L24.5503 21.5058C24.6315 21.1446 24.4046 20.7859 24.0434 20.7046Z" fill="#FBFBFB"/>
<path d="M22.7503 21.5224L17.7146 20.3894C17.3534 20.3081 16.9947 20.5351 16.9134 20.8963L15.7804 25.932C15.6991 26.2932 15.9261 26.6519 16.2873 26.7332L21.323 27.8662C21.6842 27.9475 22.0429 27.7205 22.1242 27.3593L23.2572 22.3236C23.3385 21.9624 23.1115 21.6037 22.7503 21.5224Z" fill="#FDE8D3"/>
<path d="M40.776 32.8464L42.696 36.9136C42.9616 37.4736 42.312 37.9984 41.7536 37.672L35.04 34.32L37.7056 31.3808L40.776 32.8464Z" fill="#AB8DDD"/>
<path d="M38.0796 27.4544C38.0588 27.4568 38.0379 27.4568 38.0172 27.4544L26.1228 24.6976C26.0519 24.6813 25.9904 24.6374 25.9519 24.5758C25.9133 24.5141 25.9008 24.4397 25.9172 24.3688C25.9335 24.2979 25.9773 24.2365 26.039 24.1979C26.1006 24.1593 26.1751 24.1469 26.246 24.1632L38.142 26.92C38.2082 26.9345 38.2666 26.9731 38.306 27.0283C38.3453 27.0835 38.3628 27.1513 38.355 27.2186C38.3473 27.2859 38.3148 27.3479 38.2639 27.3927C38.213 27.4374 38.1473 27.4617 38.0796 27.4608V27.4544Z" fill="#FFAC45"/>
<path d="M32.7509 28.936C32.7307 28.9383 32.7103 28.9383 32.6901 28.936L25.5173 27.2736C25.4822 27.2655 25.4491 27.2506 25.4197 27.2297C25.3904 27.2088 25.3655 27.1823 25.3464 27.1518C25.3273 27.1212 25.3144 27.0872 25.3085 27.0517C25.3025 27.0162 25.3036 26.9799 25.3117 26.9448C25.328 26.8739 25.3719 26.8124 25.4335 26.7739C25.464 26.7548 25.498 26.7419 25.5336 26.736C25.5691 26.73 25.6054 26.7311 25.6405 26.7392L32.8133 28.4C32.8795 28.4145 32.9379 28.4531 32.9773 28.5083C33.0166 28.5634 33.0341 28.6313 33.0264 28.6986C33.0186 28.7659 32.9861 28.8279 32.9352 28.8727C32.8843 28.9174 32.8187 28.9417 32.7509 28.9408V28.936Z" fill="#FFAC45"/>
<path d="M17.1639 17.9781L17.0014 17.9424C16.7089 17.8781 16.4195 18.0631 16.3552 18.3557L15.7564 21.0794C15.692 21.372 15.8771 21.6613 16.1696 21.7256L16.3321 21.7614C16.6247 21.8257 16.914 21.6407 16.9784 21.3481L17.5772 18.6244C17.6415 18.3318 17.4565 18.0425 17.1639 17.9781Z" fill="#617287"/>
<path d="M14.7919 19.3558L14.7561 19.5183C14.6918 19.8109 14.8768 20.1002 15.1694 20.1645L17.8931 20.7634C18.1857 20.8277 18.475 20.6427 18.5394 20.3501L18.5751 20.1876C18.6394 19.895 18.4544 19.6057 18.1618 19.5413L15.4381 18.9425C15.1455 18.8782 14.8562 19.0632 14.7919 19.3558Z" fill="#617287"/>
<path d="M20.4876 24.4145C20.6614 23.624 20.3622 22.8863 19.8194 22.767C19.2765 22.6476 18.6956 23.1917 18.5217 23.9823C18.3479 24.7728 18.6471 25.5105 19.19 25.6298C19.7328 25.7492 20.3138 25.2051 20.4876 24.4145Z" fill="#FFAC45"/>
<path d="M20.9593 27.7808C21.036 27.6732 21.0904 27.5513 21.1193 27.4224C21.2937 26.6304 20.4425 25.7728 19.2201 25.5024C17.9977 25.232 16.8649 25.6544 16.6905 26.448C16.6641 26.5701 16.6609 26.696 16.6809 26.8192L20.9593 27.7808Z" fill="#FFAC45"/>
<path d="M18.6233 55.28C18.7214 55.1197 18.879 55.0046 19.0617 54.96C19.1518 54.9386 19.2453 54.9352 19.3367 54.95C19.4282 54.9648 19.5158 54.9976 19.5945 55.0464L19.8105 55.1792L19.9449 54.9616C20.0429 54.8021 20.2003 54.688 20.3824 54.6445C20.5646 54.601 20.7565 54.6316 20.9161 54.7296C21.0756 54.8276 21.1897 54.985 21.2332 55.1672C21.2767 55.3493 21.2461 55.5413 21.1481 55.7008L21.0153 55.9168L20.2745 57.12L19.0729 56.3808L18.8569 56.248C18.6979 56.1504 18.584 55.9937 18.5402 55.8123C18.4964 55.6308 18.5263 55.4395 18.6233 55.28Z" fill="#B81C37"/>
<path d="M17.8312 50.04C18.0574 49.9299 18.3181 49.9139 18.5562 49.9954C18.7942 50.077 18.9903 50.2495 19.1016 50.4752L19.252 50.7808L19.5592 50.632C19.7851 50.5212 20.0458 50.5048 20.2839 50.5863C20.522 50.6677 20.718 50.8404 20.8288 51.0664C20.9395 51.2924 20.956 51.5531 20.8745 51.7912C20.793 52.0293 20.6203 52.2252 20.3944 52.336L20.0888 52.4864L18.3832 53.3216L17.5464 51.6176L17.3976 51.3104C17.2869 51.0844 17.2704 50.8237 17.3517 50.5856C17.433 50.3474 17.6054 50.1512 17.8312 50.04Z" fill="#B81C37"/>
<path d="M69.5556 33.04C69.6289 33.0039 69.7086 32.9827 69.7902 32.9775C69.8717 32.9723 69.9535 32.9832 70.0308 33.0097C70.1081 33.0361 70.1794 33.0776 70.2406 33.1317C70.3018 33.1857 70.3518 33.2514 70.3876 33.3248L70.4852 33.5264L70.6868 33.4272C70.8354 33.3544 71.0067 33.3436 71.1632 33.3972C71.3197 33.4508 71.4485 33.5643 71.5212 33.7128C71.594 33.8613 71.6048 34.0327 71.5513 34.1892C71.4977 34.3456 71.3842 34.4744 71.2356 34.5472L71.0388 34.64L69.9188 35.1872L69.37 34.0672L69.2724 33.8656C69.2023 33.7183 69.1927 33.5494 69.2457 33.395C69.2986 33.2407 69.4099 33.1133 69.5556 33.04Z" fill="#B81C37"/>
<path d="M26.4435 41.5904C26.4382 41.5748 26.4297 41.5604 26.4188 41.5481C26.4078 41.5358 26.3945 41.5257 26.3796 41.5186C26.3647 41.5115 26.3485 41.5073 26.3321 41.5065C26.3156 41.5056 26.2991 41.508 26.2835 41.5136L25.8243 41.6736C25.8088 41.679 25.7944 41.6874 25.7821 41.6984C25.7699 41.7094 25.7599 41.7228 25.7529 41.7377C25.7459 41.7526 25.742 41.7688 25.7413 41.7853C25.7407 41.8017 25.7433 41.8182 25.7491 41.8336L26.3891 43.64C26.3945 43.6556 26.403 43.67 26.4139 43.6823C26.4249 43.6946 26.4382 43.7047 26.4531 43.7118C26.468 43.7189 26.4841 43.7231 26.5006 43.7239C26.5171 43.7248 26.5336 43.7224 26.5491 43.7168L27.0083 43.5568C27.0238 43.5512 27.038 43.5427 27.0502 43.5317C27.0623 43.5206 27.0722 43.5073 27.0792 43.4924C27.0861 43.4775 27.0901 43.4614 27.0909 43.445C27.0916 43.4286 27.0891 43.4122 27.0835 43.3968L26.4435 41.5904ZM30.0371 42.2864C30.0371 42.6064 29.7043 42.7472 29.4531 42.8352C28.9123 43.0272 28.3219 43.0864 27.7667 43.2336C27.3507 43.344 27.1891 43.2928 27.0531 42.9136C26.9299 42.5632 26.7443 42.0288 26.6147 41.6608C26.5427 41.4576 26.6339 41.264 26.7539 41.04C27.0515 40.488 27.3491 40.0368 27.3859 39.3904C27.4019 39.1296 27.2163 38.792 27.5651 38.712C27.8035 38.6592 28.0115 38.9152 28.1075 39.128C28.2132 39.3902 28.2426 39.677 28.1923 39.9552C28.1475 40.2096 27.9411 40.5952 28.3523 40.488C28.7043 40.3904 29.5539 39.7728 29.8371 40.2704C29.8872 40.3795 29.8947 40.5033 29.8579 40.6176C29.8195 40.8128 29.9107 40.7376 29.9667 40.9376C30.0131 41.0976 29.9219 41.1616 29.9123 41.2912C29.9027 41.4208 30.0195 41.4688 30.0451 41.5888C30.0835 41.7648 29.9699 41.816 29.9411 41.9552C29.9123 42.0944 30.0355 42.16 30.0371 42.2864Z" fill="#F58E25"/>
</svg>
