<svg width="302" height="328" viewBox="0 0 302 328" fill="none" xmlns="http://www.w3.org/2000/svg">
<mask id="mask0_127_48260" style="mask-type:alpha" maskUnits="userSpaceOnUse" x="0" y="0" width="302" height="302">
<circle cx="151.181" cy="150.949" r="150.406" fill="#D9D9D9"/>
</mask>
<g mask="url(#mask0_127_48260)">
<path d="M344.714 -49.5714H0.774414V420.425H344.714V-49.5714Z" fill="#FDE8D3"/>
<path d="M112.845 89.4677C113.79 89.4203 114.736 89.5233 115.654 89.7732L125.515 -48.9839L122.112 -49.2189L112.264 89.51C112.455 89.4912 112.649 89.4771 112.845 89.4677Z" fill="#FBD2A8"/>
<path d="M352.165 91.0496L110.185 91.2046L114.653 70.3791L353.159 69.9138L352.165 91.0496Z" fill="#FBD2A8"/>
<path d="M367.815 31.2723L102.454 31.4274L103.368 22.3189L367.484 22.0909L367.815 31.2723Z" fill="#FBD2A8"/>
<path d="M370.083 13.6858L104.722 13.8409L105.638 4.73234L369.752 4.50439L370.083 13.6858Z" fill="#FBD2A8"/>
<path d="M315.18 300.242C314.96 307.131 312.564 313.727 308.394 318.917C307.804 319.622 307.214 320.327 306.587 320.96C303.944 323.719 300.826 325.883 297.411 327.328C294.9 328.407 292.254 329.068 289.562 329.288C288.885 329.349 288.211 329.37 287.515 329.37C284.173 329.385 280.86 328.692 277.762 327.328C274.456 325.91 271.463 323.748 268.979 320.983L268.96 320.962C268.369 320.317 267.813 319.635 267.294 318.92C263.405 313.636 261.391 307.008 261.62 300.245C262.108 284.159 274.495 271.138 289.276 271.138C304.057 271.138 315.649 284.157 315.18 300.242Z" fill="#FBD2A8"/>
<path d="M291.399 255.438C291.173 255.294 290.917 255.216 290.656 255.212C290.395 255.208 290.137 255.278 289.908 255.414C289.694 255.54 289.516 255.726 289.391 255.952C289.266 256.178 289.199 256.436 289.197 256.699L288.496 279.938C288.483 280.192 288.532 280.445 288.64 280.67C288.748 280.896 288.909 281.085 289.108 281.219C289.338 281.372 289.602 281.453 289.871 281.454C290.126 281.455 290.377 281.385 290.601 281.252C290.814 281.126 290.993 280.941 291.118 280.715C291.243 280.489 291.31 280.23 291.312 279.967L292.01 256.73C292.026 256.475 291.977 256.219 291.869 255.991C291.762 255.764 291.599 255.572 291.399 255.438Z" fill="#FBD2A8"/>
<path d="M252.085 259.477H330.071L317.172 182.182H272.622L252.085 259.477Z" fill="#FBD2A8"/>
<path d="M272.743 206.781L272.282 246.348C272.265 247.661 274.143 247.664 274.158 246.348C274.312 233.157 274.467 219.968 274.621 206.781C274.636 205.467 272.758 205.465 272.743 206.781Z" fill="#FDE8D3"/>
<path d="M290.971 206.781C290.819 219.969 290.664 233.158 290.509 246.348C290.494 247.661 292.37 247.664 292.387 246.348L292.847 206.781C292.864 205.467 290.986 205.465 290.971 206.781Z" fill="#FDE8D3"/>
<path d="M66.0367 77.5015C50.6357 105.45 44.6464 137.837 38.2249 169.25C31.1726 203.736 24.3212 238.339 20.4062 273.443C19.2437 283.863 18.373 294.312 17.7939 304.789C18.0876 304.802 18.3804 304.832 18.6712 304.879C20.0583 279.055 23.4699 253.374 27.8323 227.943C30.7988 210.649 34.1932 193.45 37.6848 176.274C40.9474 160.214 44.0608 144.079 48.0731 128.216C52.4916 110.742 58.1936 93.5801 66.7886 77.9809C67.0781 77.4569 66.3241 76.9775 66.0367 77.5015Z" fill="#FBD2A8"/>
<path d="M28.2358 116.889C27.5155 106.728 26.4856 96.6005 25.146 86.5065C25.0661 85.9049 24.2278 86.1611 24.3056 86.7579C29.0366 122.68 29.872 159.082 26.7946 195.217C25.9087 205.586 24.6988 215.915 23.1647 226.204C23.0761 226.8 23.9166 227.057 24.0052 226.455C29.3892 190.243 30.8093 153.465 28.2358 116.889Z" fill="#FBD2A8"/>
<path d="M74.5971 69.3118C72.7822 67.5728 70.3299 68.8418 68.5582 69.9792C63.8652 72.9731 60.5487 77.9433 58.2152 83.2025C55.2097 89.9634 52.9022 97.7607 53.8637 105.328C53.9112 105.708 54.2677 105.744 54.501 105.563C54.5629 105.603 54.6339 105.625 54.7063 105.625C54.7787 105.625 54.8497 105.603 54.9116 105.563C64.3903 98.5362 72.6288 87.5829 75.6083 75.3465C76.1031 73.2927 76.1809 70.8322 74.5971 69.3118Z" fill="#FBD2A8"/>
<path d="M19.7016 72.9991C17.2839 73.0931 16.3116 75.8544 15.739 77.9999C14.2266 83.6868 14.959 89.7733 16.5838 95.3287C18.6753 102.484 21.9314 109.873 27.4108 114.646C27.6895 114.881 27.9682 114.646 28.0265 114.342C28.0967 114.324 28.1609 114.285 28.2122 114.23C28.2636 114.175 28.3003 114.106 28.3182 114.03C30.7576 101.838 29.8156 87.7241 24.2411 76.6134C23.312 74.7616 21.8169 72.9145 19.7016 72.9991Z" fill="#FBD2A8"/>
<path d="M39.0501 325.115C43.5183 324.995 44.7391 324.339 45.1993 323.66C45.3635 323.425 45.4046 321.959 45.4154 321.78L46.2062 315.233C47.146 307.44 48.41 293.594 48.8508 280.406C49.3002 266.927 42.5417 253.974 38.2183 241.305C36.2607 235.571 34.1239 229.825 33.3741 223.722C32.8469 219.424 34.7677 205.315 35.7508 197.238H21.9703C21.1341 210.008 19.6994 222.881 14.8963 234.654C12.1523 241.375 5.42195 245.253 1.87202 251.466C1.49391 252.127 1.13092 252.799 0.774414 253.473V325.744C13.7015 325.251 39.1301 324.849 39.0501 325.115Z" fill="#FBD2A8"/>
</g>
<g clip-path="url(#clip0_127_48260)">
<path d="M122.632 205.843C122.632 205.843 115.804 230.06 110.78 235.951C110.597 236.173 110.4 236.383 110.19 236.578C109.955 236.791 109.69 236.969 109.404 237.107C107.349 237.963 105.171 238.489 102.952 238.665C101.274 238.828 99.5842 238.828 97.9065 238.665C97.6257 238.637 97.3531 238.608 97.0927 238.563C95.4254 238.381 93.8053 237.895 92.3121 237.131C88.3737 234.914 85.6721 223.115 84.6834 218.932C84.1708 216.719 88.4591 204.135 92.8207 191.803C92.9509 191.396 93.0933 191.021 93.2275 190.631C96.9585 180.052 100.612 169.934 101.169 166.996C101.576 164.734 103.045 162.639 104.734 160.893C104.974 160.641 105.218 160.393 105.47 160.165C107.377 158.376 109.495 156.825 111.776 155.547C111.787 155.538 111.8 155.531 111.813 155.527C111.822 155.53 111.832 155.53 111.842 155.527L122.632 205.843Z" fill="#95D86D"/>
<path d="M109.787 296.232C118.287 298.319 127.282 299.3 135.953 300.301C156.67 302.742 176.094 298.958 196.6 295.956C196.6 295.956 192.803 264.521 190.936 258.117C189.789 254.179 188.088 250.476 186.562 246.68C185.097 242.874 183.969 238.946 183.189 234.942C182.782 232.945 182.376 230.939 181.895 228.957C181.647 227.944 181.489 226.976 180.488 226.451C179.096 225.707 177.054 225.637 175.508 225.458C173.448 225.223 171.377 225.096 169.303 225.08C160.641 224.974 151.934 225.487 143.264 225.894C138.381 226.116 133.499 226.375 128.617 226.671C124.642 226.911 120.671 227.208 116.818 228.148C117.005 227.216 117.192 226.28 117.371 225.345C117.461 224.881 116.753 224.681 116.663 225.149C116.456 226.223 116.256 227.293 116.024 228.363C115.74 228.437 115.459 228.506 115.178 228.587C115.09 228.619 115.018 228.682 114.975 228.765C114.932 228.848 114.921 228.944 114.946 229.034C114.971 229.124 115.028 229.201 115.108 229.25C115.187 229.299 115.282 229.317 115.373 229.299C115.536 229.25 115.699 229.214 115.858 229.165C114.124 237.559 112.033 245.724 108.864 253.76C107.037 258.2 105.642 262.805 104.697 267.512C104.201 270.165 101.988 290.516 101.687 293.197C104.25 294.541 106.971 295.561 109.787 296.232Z" fill="#A2AFDE"/>
<path d="M157.235 120.223C157.202 112.676 156.6 105.169 156.547 97.6058C156.141 94.123 155.42 90.6525 153.292 87.8411C149.956 83.4103 144.903 80.721 139.492 79.777C130.39 78.1821 119.962 80.1839 112.02 85.2087C104.241 90.1317 102.919 98.2283 102.089 106.646C101.629 111.341 101.173 116.049 100.25 120.683C99.0821 126.513 95.6563 133.385 99.3913 138.955C99.4395 139.017 99.5044 139.063 99.5782 139.089C99.6521 139.115 99.7318 139.118 99.8077 139.1C99.8837 139.081 99.9527 139.041 100.007 138.985C100.06 138.928 100.097 138.857 100.111 138.78C100.291 136.367 100.891 134.005 101.885 131.799C101.638 134.072 101.556 136.361 101.641 138.646C101.942 138.646 102.243 138.601 102.549 138.561C102.613 138.552 102.673 138.525 102.723 138.483C103.094 139.159 103.895 138.951 105.368 138.98C106.491 139.004 108.993 139.7 109.571 138.491C110.031 137.515 109.807 135.643 109.84 134.586C109.872 133.654 109.86 132.73 109.937 131.819C110.092 132.506 110.344 133.162 110.507 133.853C110.914 135.672 110.665 137.47 111.556 139.142C111.6 139.214 111.665 139.271 111.742 139.305C111.82 139.338 111.905 139.347 111.988 139.33C113.121 139.009 114.311 138.939 115.475 139.122C116.231 139.248 116.968 139.529 117.745 139.452C118.965 139.309 120.662 139.382 121.744 138.666C121.809 138.625 121.859 138.563 121.887 138.491C124.328 138.691 127.237 139.236 129.442 138.011C129.475 138.035 129.51 138.054 129.548 138.068C131.061 138.52 132.058 137.625 133.381 136.986C134.823 136.369 136.373 136.041 137.942 136.022C139.715 134.982 141.69 134.334 143.735 134.122C147.893 133.268 152.127 132.837 156.372 132.836C157.15 128.739 157.255 124.455 157.235 120.223Z" fill="#B45900"/>
<path d="M122.013 132.572C121.566 131.872 120.793 131.384 120.256 130.761C119.332 129.688 118.603 128.463 118.099 127.14C117.652 125.997 116.842 128.405 116.74 128.735C116.215 130.387 115.617 132.026 115.17 133.703C114.877 134.801 114.23 137.413 116.045 137.556C116.744 137.609 117.196 136.966 117.517 136.396C117.566 136.518 117.615 136.636 117.668 136.783C117.888 137.36 117.729 138.003 118.018 138.557C118.425 139.37 119.34 139.85 120.016 139.041C120.422 138.54 120.422 137.503 120.284 136.437C120.41 136.588 120.57 136.707 120.752 136.783C121.517 137.096 122.2 136.616 122.481 135.904C122.839 134.972 122.53 133.385 122.013 132.572Z" fill="#E8674A"/>
<path d="M163.037 142.499C159.347 138.113 149.871 116.895 149.871 116.895C149.871 116.895 153.309 110.21 152.849 106.317C152.613 104.319 151.153 101.434 148.748 101.699C148.081 101.753 147.457 102.053 146.998 102.541C145.932 98.5414 144.199 94.7575 140.932 92.056C136.212 88.1501 129.239 86.0914 123.539 88.0321C120.109 89.1998 117.228 91.5515 114.498 93.8502C112.195 95.7706 108.623 98.0694 107.887 101.223C107.724 101.251 107.618 111.305 107.618 111.305C107.618 111.305 111.687 122.213 118.726 131.981C126.647 142.967 134.121 143.414 134.85 143.288C135.618 144.735 136.149 146.295 136.424 147.91C136.464 147.961 136.509 148.007 136.558 148.048C137.396 150.026 136.603 152.495 137.645 154.278C139.638 157.703 146.352 156.283 149.497 155.547C154.949 154.269 162.63 149.509 162.614 143.162C162.699 143.189 162.792 143.188 162.876 143.157C162.96 143.127 163.032 143.069 163.081 142.993C163.129 142.918 163.151 142.828 163.143 142.739C163.135 142.649 163.098 142.565 163.037 142.499Z" fill="#FFB687"/>
<path d="M153.106 121.167C153.106 121.167 152.134 125.342 151.824 127.079C151.515 128.816 150.876 132.897 151.3 133.145C151.723 133.393 152.703 132.95 154.298 132.889C154.903 132.832 155.489 132.652 156.022 132.361C156.555 132.07 157.024 131.674 157.398 131.196C157.553 130.891 157.219 118.555 157.219 118.555L153.106 121.167Z" fill="#B45900"/>
<path d="M119.996 121.012C119.723 120.117 118.714 118.197 117.669 119.169C117.144 119.661 117.416 120.797 117.624 121.362C117.864 122.029 118.56 122.896 119.365 122.835C120.171 122.774 120.179 121.7 120.032 121.146C120.024 121.111 120.012 121.066 119.996 121.012Z" fill="#232C44"/>
<path d="M135.59 114.991C135.317 114.092 134.308 112.172 133.267 113.144C132.738 113.64 133.01 114.771 133.218 115.341C133.458 116.004 134.158 116.871 134.959 116.81C135.761 116.749 135.773 115.675 135.626 115.121C135.616 115.077 135.604 115.034 135.59 114.991Z" fill="#232C44"/>
<path d="M129.198 128.662C128.86 128.68 128.522 128.624 128.207 128.497C127.893 128.371 127.61 128.177 127.379 127.929C126.086 126.452 125.435 119.666 125.406 119.385C125.404 119.358 125.407 119.331 125.415 119.306C125.423 119.28 125.436 119.256 125.453 119.236C125.47 119.215 125.491 119.198 125.515 119.186C125.539 119.173 125.565 119.166 125.591 119.163C125.618 119.161 125.645 119.164 125.67 119.172C125.696 119.18 125.72 119.193 125.74 119.21C125.761 119.227 125.778 119.248 125.79 119.272C125.803 119.296 125.811 119.322 125.813 119.348C125.813 119.418 126.476 126.29 127.685 127.669C128.832 128.975 131.428 127.705 131.452 127.693C131.501 127.669 131.557 127.665 131.608 127.682C131.66 127.699 131.702 127.736 131.727 127.785C131.751 127.833 131.755 127.889 131.738 127.941C131.721 127.993 131.684 128.035 131.635 128.059C130.872 128.423 130.043 128.627 129.198 128.662Z" fill="#EB754D"/>
<path d="M129.146 133.344C130.698 132.967 132.201 132.405 133.621 131.672C135.773 130.521 137.437 128.259 137.437 128.259C137.437 128.259 137.844 130.858 136.896 132.132C135.948 133.405 132.999 135.017 131.261 134.488C130.521 134.175 129.812 133.792 129.146 133.344Z" fill="#F2835E"/>
<path d="M136.201 143.37C136.147 143.37 136.095 143.348 136.057 143.31C136.019 143.272 135.997 143.22 135.997 143.166C135.997 143.112 136.019 143.061 136.057 143.022C136.095 142.984 136.147 142.963 136.201 142.963C136.241 142.963 140.306 142.727 143.768 137.967C145.709 135.231 147.236 132.225 148.301 129.044C148.306 129.016 148.317 128.989 148.333 128.965C148.349 128.942 148.37 128.922 148.395 128.907C148.419 128.892 148.447 128.882 148.475 128.879C148.504 128.875 148.533 128.878 148.56 128.886C148.588 128.894 148.613 128.908 148.635 128.927C148.656 128.946 148.674 128.969 148.686 128.996C148.698 129.022 148.704 129.05 148.704 129.079C148.704 129.107 148.699 129.136 148.687 129.162C147.611 132.394 146.061 135.449 144.09 138.227C140.505 143.154 136.384 143.382 136.209 143.39L136.201 143.37Z" fill="#EB754D"/>
<path d="M134.78 110.028C135.565 109.889 136.363 109.784 137.152 109.621C137.603 109.559 138.045 109.44 138.466 109.267C138.739 109.141 139.137 108.775 138.946 108.453C138.47 107.7 135.935 107.778 135.191 107.806C133.761 107.868 132.36 108.233 131.082 108.876C130.447 109.194 129.67 109.572 129.259 110.174C129.135 110.33 129.063 110.522 129.054 110.721C129.045 110.921 129.099 111.118 129.208 111.285C129.318 111.451 129.477 111.579 129.664 111.65C129.851 111.721 130.055 111.731 130.247 111.68C130.629 111.568 130.99 111.394 131.313 111.163C132.391 110.579 133.565 110.194 134.78 110.028Z" fill="#B45900"/>
<path d="M118.77 115.988C119.166 115.949 119.554 115.846 119.917 115.683C120.095 115.595 120.241 115.453 120.334 115.278C120.428 115.103 120.464 114.904 120.439 114.707C120.413 114.51 120.327 114.326 120.192 114.181C120.057 114.036 119.88 113.936 119.685 113.897C118.981 113.709 118.143 113.929 117.455 114.1C116.067 114.445 114.767 115.082 113.643 115.967C113.057 116.431 111.088 118.026 111.202 118.905C111.255 119.267 111.8 119.283 112.085 119.202C112.516 119.059 112.926 118.861 113.305 118.612C114.001 118.205 114.673 117.77 115.34 117.367C116.387 116.698 117.551 116.231 118.77 115.988Z" fill="#B45900"/>
<path d="M152.304 112.729C152.028 112.659 151.737 112.664 151.463 112.744C151.189 112.825 150.941 112.977 150.746 113.185C149.932 114.031 150.433 115.508 151.56 115.549C151.766 115.599 151.984 115.585 152.182 115.508C152.813 115.268 153.049 114.609 153.09 113.986C153.132 113.717 153.076 113.442 152.932 113.211C152.787 112.98 152.565 112.809 152.304 112.729Z" fill="white"/>
<path d="M156.132 121.656C155.689 120.956 154.912 120.472 154.379 119.849C153.456 118.776 152.726 117.551 152.222 116.228C151.775 115.081 150.961 117.477 150.859 117.819C150.334 119.471 149.736 121.111 149.293 122.787C149 123.889 148.353 126.502 150.168 126.64C150.867 126.697 151.319 126.054 151.64 125.48C151.689 125.602 151.738 125.724 151.791 125.887C152.011 126.461 151.852 127.083 152.141 127.661C152.548 128.475 153.463 128.955 154.139 128.145C154.545 127.641 154.545 126.607 154.407 125.541C154.534 125.691 154.694 125.81 154.875 125.887C155.64 126.196 156.323 125.72 156.6 125.008C156.962 124.077 156.657 122.474 156.132 121.656Z" fill="#E8674A"/>
<path d="M149.236 112.88C149.192 112.881 149.149 112.867 149.114 112.84C149.078 112.814 149.053 112.776 149.041 112.733C149.026 112.682 149.031 112.627 149.056 112.58C149.082 112.533 149.124 112.497 149.175 112.481C149.245 112.457 149.847 112.241 149.729 111.354C149.582 110.231 149.297 109.812 148.553 109.633C148.418 109.606 148.29 109.55 148.179 109.469C148.067 109.389 147.974 109.285 147.906 109.165C147.65 108.722 147.666 107.993 147.959 106.997C148.247 106.139 148.592 105.302 148.992 104.49C149.004 104.466 149.02 104.444 149.04 104.426C149.06 104.408 149.083 104.394 149.109 104.385C149.134 104.377 149.161 104.373 149.188 104.375C149.215 104.377 149.241 104.384 149.265 104.397C149.312 104.42 149.349 104.462 149.366 104.512C149.384 104.562 149.381 104.617 149.358 104.665C148.969 105.456 148.632 106.272 148.349 107.106C148.024 108.209 148.122 108.734 148.26 108.958C148.3 109.029 148.356 109.091 148.422 109.139C148.489 109.187 148.566 109.219 148.646 109.234C149.692 109.483 149.993 110.211 150.131 111.297C150.206 111.616 150.162 111.95 150.007 112.238C149.853 112.526 149.599 112.749 149.293 112.864L149.236 112.88Z" fill="#EB754D"/>
<path d="M150.026 96.2063C148.927 93.22 146.339 91.2752 144.045 89.2368C142.922 88.2318 141.901 86.999 140.578 86.2463C139.134 85.4326 137.389 85.2455 135.765 85.0868C132.094 84.7331 128.389 84.9971 124.804 85.868C121.231 86.7403 117.74 87.9234 114.372 89.4036C111.656 90.5792 109.339 92.5185 107.704 94.9858C105.669 98.0901 104.913 101.939 105.222 105.617C105.425 108.034 105.462 115.691 106.931 117.139C109.986 115.105 115.284 110.101 118.176 108.323C118.176 108.323 118.29 106.85 118.311 106.842C118.787 105.723 118.579 104.681 118.583 103.51C118.555 102.27 118.723 101.035 119.08 99.8478C119.332 99.1113 120.011 98.3464 119.975 97.5368C120.024 98.5621 120.101 99.5711 120.219 100.609C120.471 102.781 121.033 104.934 120.577 107.094C122.33 106.393 124.156 105.891 126.021 105.597C126.24 105.323 126.419 105.019 126.55 104.694C126.843 103.998 127.221 103.119 127.563 102.175C127.563 103.347 127.518 104.519 127.449 105.69C127.449 106.052 127.994 106.252 128.161 105.902C129 104.319 129.667 102.651 130.15 100.926C130.521 99.3799 130.175 97.5693 130.492 96.007C131.566 99.3229 133.413 102.981 137.002 103.062H137.043C137.185 103.265 136.457 100.902 136.229 100.413C136.119 100.161 136.03 99.9007 135.928 99.6443C139.24 103.16 144.334 106.561 148.589 103.066C150.677 101.386 150.888 98.5743 150.026 96.2063Z" fill="#B45900"/>
<path d="M105.999 112.281C105.953 112.281 105.908 112.266 105.872 112.237C105.835 112.208 105.81 112.168 105.8 112.122C105.493 110.467 105.534 108.765 105.922 107.126C106.044 106.654 106.154 106.264 106.255 105.906C106.662 104.441 106.866 103.77 106.544 101.149C106.137 97.8457 109.099 92.1048 109.226 91.8648C109.236 91.8379 109.252 91.8135 109.272 91.7932C109.292 91.7728 109.317 91.757 109.343 91.7468C109.37 91.7366 109.399 91.7322 109.428 91.7339C109.456 91.7356 109.484 91.7434 109.51 91.7567C109.535 91.77 109.558 91.7886 109.576 91.8112C109.593 91.8338 109.606 91.8599 109.613 91.8878C109.62 91.9157 109.621 91.9447 109.616 91.973C109.611 92.0013 109.6 92.0282 109.584 92.0519C109.555 92.1089 106.557 97.923 106.947 101.101C107.277 103.802 107.081 104.498 106.646 106.02C106.548 106.365 106.434 106.752 106.316 107.24C105.955 108.815 105.917 110.447 106.207 112.037C106.213 112.063 106.213 112.09 106.209 112.116C106.204 112.142 106.194 112.167 106.18 112.19C106.166 112.212 106.147 112.231 106.125 112.246C106.103 112.261 106.078 112.272 106.052 112.277L105.999 112.281Z" fill="#F2BF91"/>
<path d="M109.99 106.418C109.945 106.418 109.901 106.404 109.865 106.377C109.829 106.349 109.803 106.311 109.791 106.268C109.791 106.227 109.518 105.23 109.868 102.822C110.218 100.413 111.565 95.6691 111.577 95.6203C111.584 95.5936 111.597 95.5686 111.614 95.5468C111.631 95.525 111.652 95.5067 111.677 95.4931C111.701 95.4795 111.727 95.4708 111.755 95.4675C111.782 95.4642 111.81 95.4663 111.837 95.4738C111.864 95.4813 111.889 95.494 111.911 95.5111C111.932 95.5282 111.951 95.5495 111.964 95.5737C111.978 95.5979 111.987 95.6245 111.99 95.652C111.993 95.6796 111.991 95.7075 111.984 95.7342C111.984 95.779 110.629 100.523 110.287 102.879C109.945 105.234 110.197 106.134 110.202 106.162C110.215 106.214 110.208 106.269 110.181 106.315C110.155 106.362 110.111 106.396 110.059 106.41L109.99 106.418Z" fill="#F2BF91"/>
<path d="M145.806 102.509C144.411 102.509 142.344 102.102 139.927 100.369C137.173 98.3913 134.19 94.6725 134.162 94.6237C134.134 94.5813 134.122 94.5298 134.13 94.4794C134.138 94.4291 134.165 94.3836 134.205 94.3519C134.245 94.3201 134.295 94.3046 134.346 94.3082C134.397 94.3118 134.444 94.3344 134.479 94.3715C134.512 94.4081 137.453 98.0943 140.175 100.039C144.395 103.07 147.54 101.85 147.572 101.833C147.597 101.823 147.624 101.818 147.65 101.818C147.677 101.818 147.704 101.824 147.729 101.834C147.753 101.844 147.776 101.86 147.795 101.879C147.814 101.898 147.828 101.92 147.839 101.945C147.849 101.97 147.854 101.997 147.854 102.024C147.854 102.05 147.848 102.077 147.838 102.102C147.828 102.126 147.812 102.149 147.793 102.168C147.774 102.187 147.752 102.202 147.727 102.212C147.11 102.426 146.459 102.527 145.806 102.509Z" fill="#F2BF91"/>
<path d="M104.359 136.767C104.306 136.764 104.256 136.742 104.219 136.703C104.183 136.664 104.163 136.612 104.164 136.559C104.284 134.284 104.605 132.024 105.124 129.805C105.938 126.64 104.925 122.152 104.917 122.107C104.905 122.053 104.915 121.997 104.945 121.95C104.974 121.904 105.022 121.871 105.075 121.859C105.129 121.847 105.186 121.857 105.232 121.887C105.279 121.917 105.312 121.964 105.324 122.018C105.368 122.205 106.349 126.644 105.531 129.907C105.018 132.096 104.7 134.326 104.579 136.571C104.578 136.599 104.572 136.626 104.56 136.651C104.548 136.675 104.531 136.698 104.511 136.716C104.49 136.734 104.466 136.748 104.44 136.757C104.414 136.765 104.387 136.769 104.359 136.767Z" fill="#F2BF91"/>
<path d="M113.575 137.006C113.526 137.006 113.479 136.988 113.443 136.956C113.406 136.924 113.382 136.88 113.375 136.832L112.399 129.549C112.395 129.522 112.396 129.496 112.402 129.47C112.409 129.444 112.42 129.42 112.436 129.399C112.452 129.378 112.472 129.36 112.495 129.346C112.518 129.333 112.543 129.324 112.57 129.321C112.596 129.317 112.624 129.318 112.65 129.325C112.676 129.332 112.701 129.343 112.722 129.36C112.744 129.376 112.762 129.396 112.776 129.42C112.789 129.443 112.798 129.469 112.802 129.496L113.778 136.779C113.785 136.832 113.77 136.886 113.738 136.929C113.705 136.971 113.656 136.999 113.603 137.006H113.575Z" fill="#F2BF91"/>
<path d="M165.002 162.521C159.473 172.66 146.323 191.648 146.323 191.648C146.323 191.648 137.372 169.897 136.525 166.207C135.679 162.517 130.528 147.959 130.528 147.959L134.332 146.153L134.996 145.835L137.518 144.639C137.518 144.639 158.919 140.77 160.026 140.77C161.029 140.982 162.01 141.283 162.959 141.669C163.187 141.742 163.415 141.824 163.659 141.917C167.842 143.431 174.132 145.986 174.771 146.482C175.694 147.223 170.531 152.382 165.002 162.521Z" fill="#FFB687"/>
<path d="M154.77 99.6768C154.719 99.6761 154.67 99.6566 154.632 99.622C154.595 99.5875 154.571 99.5404 154.566 99.4897C154.566 99.4246 153.989 92.8578 151.552 88.9845C149.114 85.1111 141.421 81.6284 141.343 81.5958C141.294 81.5742 141.255 81.5338 141.235 81.4835C141.215 81.4331 141.216 81.3769 141.238 81.3273C141.259 81.2777 141.3 81.2386 141.35 81.2188C141.4 81.199 141.457 81.1999 141.506 81.2215C141.828 81.368 149.395 84.7978 151.897 88.7648C154.4 92.7317 154.969 99.392 154.973 99.4571C154.976 99.4838 154.972 99.5108 154.964 99.5363C154.956 99.5618 154.943 99.5855 154.925 99.6059C154.908 99.6263 154.887 99.6431 154.863 99.6553C154.839 99.6674 154.813 99.6748 154.786 99.6768H154.77Z" fill="#F2BF91"/>
<path d="M139.297 97.0359C139.27 97.0362 139.244 97.0309 139.219 97.0204C139.195 97.0099 139.173 96.9944 139.155 96.9748L133.873 91.6897C133.836 91.6519 133.814 91.6007 133.814 91.5473C133.814 91.4939 133.836 91.4426 133.873 91.4049C133.911 91.3671 133.962 91.3459 134.016 91.3459C134.069 91.3459 134.12 91.3671 134.158 91.4049L139.423 96.6941C139.451 96.7225 139.47 96.7585 139.477 96.7976C139.485 96.8367 139.481 96.8771 139.466 96.914C139.451 96.9508 139.425 96.9824 139.392 97.0047C139.359 97.0271 139.32 97.0394 139.281 97.0399L139.297 97.0359Z" fill="#F2BF91"/>
<path d="M197.844 218.086C197.771 215.238 197.689 212.39 197.47 209.542C197.396 208.541 197.3 207.541 197.181 206.543C197.16 206.315 197.132 206.083 197.099 205.855C196.583 201.84 195.797 197.832 195.838 193.772C195.879 189.711 196.701 185.765 197.059 181.753C197.395 177.677 197.316 173.578 196.823 169.519C196.823 169.519 196.823 169.519 196.823 169.494C196.823 169.364 196.786 169.222 196.77 169.087C196.471 166.582 195.998 164.101 195.354 161.662V161.585C195.293 161.365 195.236 161.145 195.167 160.93C194.976 160.275 194.76 159.62 194.532 158.977C193.574 156.139 192.016 153.541 189.963 151.36C187.233 148.577 183.628 147.487 180.015 146.323C176.992 145.351 171.439 143.972 168.07 143.166C167.809 143.109 167.565 143.048 167.337 142.991L165.201 142.478C165.201 142.478 164.567 146.791 163.94 149.066C163.334 151.234 162.813 153.395 161.263 155.111C160.042 156.454 158.683 157.553 157.752 159.131C156.771 160.804 156.381 162.61 156.124 164.514C155.807 166.675 155.416 168.619 154.318 170.544C153.362 172.224 152.145 173.738 151.063 175.337C149.173 178.15 147.631 181.181 146.469 184.365C145.874 183.171 145.393 181.923 145.033 180.638C145.001 180.52 144.972 180.402 144.952 180.284C144.765 179.511 144.683 178.722 144.545 177.932C144.455 177.256 144.287 176.593 144.044 175.955C142.795 172.839 139.626 171.008 138.617 167.741C138.108 166.085 138.039 164.307 137.718 162.594C137.333 160.656 136.822 158.745 136.188 156.873C134.927 153 133.283 146.653 133.283 146.653L122.831 150.892L122.139 151.181C117.358 153.118 112.846 154.957 112.781 154.977C112.446 155.12 112.126 155.296 111.825 155.502C111.816 155.506 111.806 155.506 111.796 155.502C111.783 155.506 111.771 155.513 111.76 155.522C109.726 156.955 108.822 159.51 108.123 161.878C106.927 165.929 106.056 170.069 105.519 174.258C105.474 174.604 105.429 174.938 105.392 175.3C104.997 179.027 104.84 182.775 104.92 186.521V186.546L104.945 187.457C105.063 192.01 105.307 196.595 104.538 201.099C103.863 205.017 102.231 208.83 102.313 212.841C102.394 216.938 105.242 220.547 104.436 224.697C104.09 226.512 105.718 231.288 105.718 231.288C105.718 231.288 103.549 245.573 104.119 249.003C104.339 250.338 104.339 252.828 105.689 253.646C106.78 254.313 108.078 253.528 109.054 253.027C110.863 252.1 112.64 251.109 114.384 250.057C114.596 249.923 114.791 249.797 115.027 249.65C117.253 248.291 119.421 246.835 121.537 245.313C121.619 245.25 121.674 245.159 121.691 245.057C123.726 246.355 125.793 247.644 127.916 248.832C128.165 248.963 128.417 249.105 128.669 249.239C131.623 250.886 134.745 252.209 137.982 253.186C138.239 253.259 138.495 253.332 138.755 253.397C142.415 254.411 146.251 254.624 150.001 254.02C152.869 253.532 155.319 252.287 157.955 251.127C158.362 250.96 158.732 250.81 159.123 250.68C159.379 250.59 159.639 250.509 159.896 250.435C162.61 249.662 165.397 249.601 168.249 249.312C168.456 249.292 168.656 249.272 168.879 249.239C169.103 249.207 169.4 249.166 169.661 249.113C172.069 248.706 174.543 247.868 176.309 246.265C177.235 246.802 178.119 247.409 178.953 248.08C180.324 249.26 181.712 249.789 183.429 250.297L183.803 250.415L184.544 250.647C186.041 251.086 187.656 251.794 189.312 251.868C190.968 251.941 192.791 251.143 194.422 250.753C195.338 250.541 195.683 250.216 195.875 249.308C196.253 247.465 192.62 233.713 192.502 232.306L195.757 235.154C195.757 235.154 197.384 229.653 197.669 226.768C197.763 225.723 197.824 224.677 197.852 223.623C197.921 221.748 197.889 219.904 197.844 218.086Z" fill="#95D86D"/>
<path d="M143.434 193.248C143.434 193.248 152.035 202.711 158.056 210.206C164.078 217.7 171.698 227.412 175.633 227.294C179.567 227.176 186.077 211.809 185.589 210.275C185.1 208.741 169.119 200.258 163.956 197.06C158.793 193.862 147.734 185.017 147.734 185.017L143.434 193.248Z" fill="#FFB687"/>
<path d="M191.68 229.743C190.789 231.887 189.837 234.019 189.019 236.188C188.23 238.267 188.568 240.256 188.267 242.396C187.839 245.436 186.277 248.121 184.552 250.635L183.812 250.403C185.846 247.441 187.62 244.3 187.648 240.574C187.59 238.815 187.89 237.062 188.531 235.423C189.345 233.462 190.159 231.505 190.972 229.552C191.151 229.116 191.859 229.308 191.68 229.743Z" fill="white"/>
<path d="M207.345 229.014C205.64 231.903 202.527 236.337 197.759 238.681C197.47 238.827 197.181 238.958 196.88 239.088C196.579 239.218 196.343 239.312 196.066 239.405C194.243 240.067 192.31 240.375 190.37 240.312C184.894 240.166 177.717 235.467 172.875 231.768C172.676 231.614 172.468 231.459 172.302 231.309C169.425 229.067 167.509 227.293 167.509 227.293C167.509 227.293 173.022 220.82 176.187 214.473C178.392 210.017 178.844 203.08 178.844 203.08L189.207 176.931L190.749 173.046L193.617 165.832L194.964 162.443L195.306 161.584V161.662C195.403 162.183 195.985 165.323 196.774 169.49C196.774 169.49 196.774 169.49 196.774 169.514C198.337 177.83 200.697 190.301 201.657 194.687C201.738 195.069 201.824 195.452 201.905 195.83C203.345 202.21 205.099 208.113 205.099 208.113C205.099 208.113 209.798 224.831 207.345 229.014Z" fill="#95D86D"/>
<path d="M198.833 230.54C198.873 233.291 198.511 236.032 197.758 238.678C197.47 238.824 197.181 238.954 196.88 239.084C196.924 238.922 196.977 238.755 197.018 238.592C198.101 234.734 198.326 230.686 197.677 226.732C197.64 226.492 197.596 226.24 197.551 225.988C196.888 222.366 196.216 218.843 196.229 215.141C196.244 212.24 196.563 209.349 197.181 206.515C197.352 205.726 197.543 204.945 197.763 204.163C198.706 200.815 200.204 197.8 201.689 194.679C201.77 195.062 201.856 195.444 201.937 195.823C199.813 200.298 198.222 204.802 197.461 209.514C196.96 212.551 196.841 215.638 197.108 218.705C197.246 220.332 197.551 221.96 197.852 223.587C198.368 225.874 198.696 228.2 198.833 230.54Z" fill="white"/>
<path d="M172.317 231.305C172.317 231.305 169.917 236.139 169.062 244.646C168.908 246.184 168.875 247.73 168.871 249.268C169.127 249.231 169.392 249.195 169.652 249.142C169.738 243.324 170.49 237.583 172.769 232.054C172.814 231.96 172.887 231.761 172.887 231.761L172.317 231.305Z" fill="white"/>
<path d="M155.888 232.037C157.068 225.934 161.539 214.542 161.539 214.542L160.982 213.858C160.982 213.858 155.851 226.74 154.879 233.669C154.028 239.641 155.086 246.281 159.126 250.724C159.383 250.635 159.643 250.553 159.899 250.48C155.379 245.797 154.647 238.384 155.888 232.037Z" fill="white"/>
<path d="M167.696 162.037C167.815 155.738 167.93 149.443 168.041 143.15C167.781 143.093 167.537 143.032 167.309 142.975C167.198 148.598 167.092 154.224 166.992 159.852C166.955 162.037 166.91 164.226 166.874 166.406C166.825 168.945 166.98 171.606 166.528 174.112C165.82 177.978 163.151 181.273 162.008 185.037C161.019 188.316 160.787 194.927 160.787 194.927L161.54 195.452C161.54 195.452 161.776 188.129 162.919 184.63C164.062 181.131 166.581 178.002 167.24 174.312C167.96 170.345 167.618 166.052 167.696 162.037Z" fill="white"/>
<path d="M143.951 205.563C142.824 211.869 139.524 217.5 138.426 223.778C137.807 227.293 137.844 230.902 137.799 234.454C137.754 237.603 137.734 240.744 137.852 243.885C137.948 247.081 138.25 250.268 138.755 253.426C138.495 253.361 138.238 253.288 137.982 253.214C137.424 249.57 137.119 245.891 137.067 242.205C136.924 235.776 136.566 228.872 137.913 222.553C139.345 215.864 142.816 209.916 143.568 203.024C144.321 196.132 143.283 189.129 143.975 182.205C144.116 180.778 144.306 179.355 144.545 177.937C144.675 178.718 144.756 179.507 144.952 180.28C144.687 182.204 144.52 184.141 144.451 186.082C144.252 192.572 145.094 199.126 143.951 205.563Z" fill="white"/>
<path d="M128.665 249.268C128.413 249.13 128.161 248.987 127.913 248.861C127.559 244.386 127.27 239.91 125.878 235.61C124.825 232.355 123.055 229.34 122.892 225.845C122.729 222.35 123.824 219.002 124.65 215.673C126.631 207.646 125.024 199.997 122.998 192.153C122.062 188.532 120.85 184.801 120.829 181.025C120.809 177.469 122.31 174.19 122.969 170.752C124.214 164.242 123.376 157.651 122.156 151.198L122.847 150.909C124.117 157.643 124.992 164.531 123.629 171.285C122.815 175.304 121.224 178.893 121.724 183.084C122.192 187.01 123.466 190.843 124.41 194.671C126.171 201.755 127.152 208.679 125.37 215.869C124.389 219.844 123.047 223.892 123.93 228.022C124.69 231.553 126.595 234.727 127.368 238.271C128.141 241.879 128.352 245.582 128.665 249.268Z" fill="white"/>
<path d="M115.023 249.675C114.808 249.813 114.592 249.939 114.38 250.081C113.309 246.989 112.305 243.87 111.37 240.724C110.963 239.348 110.556 237.973 110.19 236.586C109.525 234.191 108.901 231.783 108.318 229.364C107.472 225.841 106.536 222.248 106.475 218.598C106.422 215.156 107.362 211.832 108.054 208.484C108.943 204.553 108.812 200.46 107.671 196.595C106.691 193.255 105.385 190.02 104.925 186.554V186.529C104.925 186.529 104.925 186.493 104.925 186.481C104.445 182.636 104.656 178.705 104.673 174.848C104.689 170.191 104.707 165.534 104.726 160.877C104.966 160.624 105.21 160.376 105.462 160.148C105.438 165.188 105.417 170.236 105.401 175.292C105.401 175.984 105.401 176.679 105.401 177.371C105.401 181.346 105.238 185.358 106.215 189.251C107.073 192.71 108.53 195.997 109.181 199.508C110.47 206.49 106.776 213.016 107.309 219.986C107.618 223.989 108.737 227.964 109.726 231.842C110.072 233.213 110.434 234.576 110.808 235.943C111.405 238.14 112.04 240.325 112.712 242.497C113.431 244.912 114.201 247.304 115.023 249.675Z" fill="white"/>
<path d="M124.242 166.41H124.189C124.163 166.404 124.138 166.392 124.117 166.375C124.095 166.359 124.077 166.338 124.064 166.315C124.051 166.291 124.042 166.265 124.039 166.238C124.036 166.211 124.039 166.184 124.047 166.158C124.047 166.097 125.784 159.758 126.549 156.434C127.022 154.253 127.294 152.033 127.363 149.802C127.365 149.749 127.387 149.699 127.425 149.662C127.463 149.625 127.513 149.604 127.566 149.603C127.593 149.603 127.62 149.608 127.645 149.619C127.669 149.629 127.692 149.645 127.71 149.664C127.729 149.683 127.743 149.706 127.753 149.731C127.762 149.756 127.767 149.783 127.766 149.81C127.702 152.072 127.43 154.323 126.956 156.536C126.187 159.868 124.462 166.215 124.446 166.28C124.431 166.321 124.403 166.356 124.366 166.379C124.329 166.403 124.286 166.414 124.242 166.41Z" fill="#823A33"/>
<path d="M97.9155 238.657C97.6348 238.628 97.3622 238.6 97.1018 238.555C95.9748 236.342 94.388 234.397 93.1715 232.229C90.444 227.427 89.5506 221.799 90.6571 216.389C91.304 213.403 92.5897 210.592 93.261 207.605C93.9457 204.551 94.176 201.413 93.9445 198.292C93.789 196.096 93.4114 193.922 92.8175 191.803C92.9477 191.396 93.0901 191.021 93.2244 190.631C93.8888 192.741 94.3413 194.912 94.5751 197.112C94.8717 199.895 94.8157 202.704 94.4083 205.473C93.9323 208.655 92.7809 211.576 91.8817 214.64C89.884 221.382 91.2836 228.156 95.1366 233.97C96.1663 235.469 97.0946 237.034 97.9155 238.657Z" fill="white"/>
<path d="M127.681 159.27C127.637 159.089 127.533 158.928 127.385 158.815C127.236 158.701 127.054 158.642 126.867 158.647L107.855 159.054C107.723 159.058 107.595 159.092 107.479 159.155C107.363 159.217 107.263 159.305 107.188 159.412L106.915 159.819C106.842 159.922 106.794 160.04 106.774 160.164C106.754 160.288 106.763 160.415 106.801 160.535L111.276 175.264L116.688 191.323L117.196 191.172L117.241 191.323H117.619C117.798 191.937 117.973 192.478 117.973 192.478L134.862 191.868C135.003 191.866 135.141 191.827 135.262 191.756C135.383 191.684 135.484 191.583 135.554 191.461L135.814 191.009C135.87 190.916 135.906 190.812 135.92 190.705C135.935 190.597 135.928 190.488 135.9 190.383L127.681 159.27Z" fill="#393939"/>
<path d="M134.74 191.559C134.695 191.559 134.652 191.544 134.617 191.517C134.581 191.489 134.556 191.451 134.544 191.408L126.261 160.08L107.362 160.361C107.307 160.361 107.255 160.339 107.216 160.301C107.178 160.263 107.155 160.212 107.154 160.157C107.154 160.103 107.176 160.051 107.214 160.013C107.252 159.975 107.304 159.954 107.358 159.954L126.415 159.669C126.461 159.67 126.505 159.685 126.54 159.713C126.576 159.741 126.602 159.78 126.615 159.824L134.935 191.303C134.943 191.328 134.945 191.355 134.943 191.382C134.94 191.409 134.931 191.434 134.918 191.458C134.904 191.481 134.886 191.501 134.865 191.517C134.843 191.533 134.819 191.545 134.792 191.551L134.74 191.559Z" fill="#F2D8CB"/>
<path d="M147.604 184.5C144.984 180.704 143.507 178.189 140.598 174.609C140.464 174.401 140.338 174.202 140.191 173.982C138.91 172.078 137.429 169.507 135.224 168.559C132.51 167.416 129.739 167.192 126.838 167.049C125.748 166.996 123.99 166.911 122.932 167.236C122.727 167.291 122.537 167.395 122.382 167.54C122.226 167.684 122.108 167.865 122.039 168.067C121.97 168.268 121.951 168.483 121.985 168.693C122.019 168.903 122.104 169.101 122.233 169.271C122.965 170.28 128.803 170.04 130.28 170.589C131.757 171.138 133.686 172.733 134.719 173.954C131.368 172.044 127.608 170.962 123.754 170.801C122.534 170.752 119.885 170.463 119.686 172.233C119.563 173.356 120.499 173.966 121.586 174.353C121.5 174.73 121.513 175.123 121.622 175.494C121.732 175.865 121.935 176.202 122.212 176.472C123.258 177.42 125.203 177.567 126.492 177.876C129.657 178.565 132.587 180.068 134.992 182.238C133.086 181.348 131.098 180.647 129.056 180.146C127.636 179.804 125.435 178.962 125.121 180.83C124.938 181.924 126.435 182.734 127.64 183.092C129.886 183.759 131.245 184.658 133.218 185.916C135.101 188.607 137.388 190.991 140 192.983C141.282 193.959 144.069 194.374 145.696 194.586C147.238 194.781 148.239 194.712 149.431 193.853C150.509 193.08 151.409 190.529 151.409 190.529C151.409 190.529 148.573 185.899 147.604 184.5Z" fill="#FFB687"/>
<path d="M135.553 178.506C135.524 178.507 135.495 178.501 135.468 178.489C135.441 178.477 135.418 178.459 135.399 178.437C134.035 176.982 132.343 175.875 130.463 175.211C127.396 174.165 122.676 173.99 122.627 173.99C122.6 173.989 122.574 173.983 122.55 173.971C122.526 173.96 122.504 173.944 122.486 173.925C122.467 173.905 122.453 173.882 122.444 173.857C122.435 173.832 122.431 173.805 122.432 173.778C122.435 173.725 122.459 173.674 122.498 173.638C122.538 173.602 122.59 173.582 122.643 173.583C122.688 173.583 127.469 173.758 130.593 174.828C132.547 175.507 134.303 176.655 135.708 178.172C135.732 178.202 135.748 178.238 135.753 178.276C135.758 178.314 135.752 178.353 135.736 178.388C135.72 178.423 135.694 178.453 135.662 178.474C135.629 178.495 135.592 178.506 135.553 178.506Z" fill="#EB754D"/>
<path d="M120.959 180.134L120.939 180.097C120.898 180.004 121.256 179.605 121.313 179.503C121.525 179.159 121.632 178.76 121.622 178.356C121.57 176.606 120.459 175.467 119.21 174.397C117.961 173.327 117.367 172.57 116.28 172.163C114.921 171.651 112.985 172.351 111.317 173.445C111.569 173.136 111.817 172.818 112.094 172.521C113.518 170.996 115.418 169.995 117.212 168.978C117.847 168.62 118.693 168.29 119.222 167.757C119.751 167.224 120.056 166.431 119.47 165.853C118.542 164.95 116.622 165.995 115.682 166.337C114.675 166.679 113.698 167.104 112.761 167.607C110.107 169.162 107.84 171.299 106.129 173.856C104.03 177.111 105.356 180.232 106.312 183.621C107.47 187.73 108.675 191.827 109.925 195.912C110.613 198.174 113.632 197.698 115.393 197.063C120.365 195.269 118.758 189.447 117.114 185.374C117.114 185.354 117.114 185.329 117.114 185.309C118.848 185.907 118.66 186.794 120.447 187.234C120.621 187.293 120.806 187.315 120.99 187.299C121.174 187.283 121.352 187.229 121.514 187.141C121.676 187.052 121.818 186.932 121.932 186.786C122.045 186.64 122.126 186.473 122.172 186.294C122.215 186.088 122.214 185.875 122.17 185.669C122.126 185.463 122.039 185.268 121.915 185.098C122.839 183.739 121.525 181.44 120.959 180.134Z" fill="#FFB687"/>
<path d="M120.499 179.536C120.462 179.535 120.426 179.525 120.395 179.506C120.363 179.486 120.337 179.459 120.32 179.426C120.32 179.389 118.286 175.638 116.366 175.109C114.445 174.58 111.968 176.224 111.943 176.24C111.898 176.264 111.846 176.271 111.797 176.258C111.748 176.246 111.705 176.216 111.677 176.173C111.649 176.131 111.638 176.08 111.646 176.03C111.654 175.98 111.68 175.934 111.719 175.902C111.825 175.829 114.392 174.141 116.476 174.714C118.559 175.288 120.593 179.076 120.678 179.235C120.691 179.258 120.699 179.284 120.702 179.311C120.704 179.338 120.702 179.365 120.694 179.391C120.686 179.417 120.673 179.441 120.655 179.461C120.638 179.482 120.617 179.499 120.593 179.511C120.565 179.528 120.532 179.536 120.499 179.536Z" fill="#EB754D"/>
<path d="M121.354 184.467C121.321 184.468 121.287 184.461 121.257 184.445C121.227 184.429 121.201 184.406 121.183 184.377C121.151 184.332 118.209 179.902 116.509 179.531C114.808 179.161 113.254 181.033 113.229 181.049C113.213 181.073 113.193 181.093 113.168 181.108C113.144 181.124 113.117 181.134 113.089 181.138C113.06 181.142 113.031 181.14 113.004 181.132C112.976 181.124 112.951 181.111 112.929 181.092C112.907 181.074 112.889 181.051 112.877 181.025C112.864 180.999 112.857 180.971 112.857 180.942C112.856 180.914 112.861 180.885 112.872 180.859C112.883 180.832 112.899 180.808 112.92 180.789C112.993 180.703 114.694 178.726 116.582 179.133C118.47 179.54 121.387 183.966 121.509 184.153C121.538 184.198 121.549 184.253 121.538 184.306C121.528 184.358 121.497 184.404 121.452 184.434C121.423 184.454 121.389 184.465 121.354 184.467Z" fill="#EB754D"/>
<path d="M118.384 194.288C118.384 194.288 116.635 198.955 114.527 204.46C114.263 205.139 113.998 205.831 113.713 206.527C110.971 213.651 107.928 221.349 107.383 221.878C106.349 222.891 102.565 222.712 100.625 220.535C97.4552 216.967 95.25 210.583 96.0556 209.55C96.556 208.907 101.837 201.527 105.698 196.123C106.532 194.948 107.326 193.882 107.94 192.978C109.063 191.416 109.783 190.407 109.783 190.407L118.384 194.288Z" fill="#FFB687"/>
<path d="M114.526 204.456C114.262 205.135 113.997 205.827 113.712 206.523C111.747 205.644 108.655 203.801 107.028 200.497C106.341 199.123 105.891 197.643 105.697 196.119C106.531 194.944 107.325 193.878 107.939 192.974C107.614 195.218 108.004 197.507 109.054 199.517C110.331 202.157 112.866 203.691 114.526 204.456Z" fill="#232C44"/>
<path d="M110.112 199.574C108.667 202.072 105.962 203.207 104.066 202.113C102.17 201.018 101.8 198.105 103.252 195.603C104.705 193.101 107.398 191.965 109.294 193.064C111.19 194.162 111.552 197.076 110.112 199.574Z" fill="white"/>
<path d="M125.512 166.411H124.975C124.748 166.41 124.528 166.336 124.347 166.198C124.166 166.061 124.036 165.868 123.974 165.65L123.026 162.179C122.985 162.025 122.98 161.864 123.011 161.708C123.042 161.552 123.108 161.405 123.205 161.278C123.302 161.152 123.426 161.049 123.569 160.978C123.711 160.907 123.868 160.87 124.027 160.869H124.564C124.792 160.869 125.013 160.944 125.194 161.082C125.375 161.22 125.505 161.414 125.565 161.634L126.513 165.105C126.554 165.258 126.56 165.419 126.529 165.575C126.498 165.731 126.431 165.878 126.335 166.004C126.238 166.13 126.113 166.233 125.971 166.303C125.828 166.374 125.671 166.41 125.512 166.411ZM124.027 161.276C123.93 161.276 123.835 161.298 123.748 161.341C123.661 161.384 123.585 161.447 123.527 161.524C123.468 161.601 123.428 161.69 123.41 161.784C123.391 161.879 123.395 161.976 123.421 162.069L124.369 165.54C124.404 165.674 124.483 165.792 124.593 165.876C124.703 165.96 124.837 166.005 124.975 166.004H125.512C125.612 166.006 125.71 165.984 125.799 165.941C125.889 165.897 125.966 165.833 126.025 165.753C126.085 165.674 126.124 165.581 126.14 165.483C126.157 165.385 126.149 165.284 126.119 165.19L125.171 161.719C125.135 161.586 125.056 161.468 124.946 161.385C124.837 161.301 124.702 161.255 124.564 161.256L124.027 161.276Z" fill="#F2D8CB"/>
<path d="M148.964 183.389C148.934 183.389 148.905 183.383 148.878 183.37C148.851 183.357 148.828 183.339 148.809 183.315C148.775 183.274 148.758 183.22 148.762 183.166C148.767 183.112 148.793 183.062 148.833 183.026C150.154 181.942 151.544 180.946 152.996 180.044C154.216 179.316 155.77 178.824 157.402 178.315C158.492 177.973 159.615 177.615 160.694 177.176L160.893 177.094C163.525 176.012 165.425 175.231 169.079 175.825C171.146 176.159 172.187 176.167 172.566 175.849C172.765 175.674 172.806 175.382 172.806 174.926C172.781 174.343 172.726 173.762 172.639 173.184C172.468 171.842 172.257 170.17 172.44 168.762C172.566 167.785 172.37 166.98 172.098 165.861C171.652 164.169 171.396 162.434 171.333 160.686C171.15 156.133 170.568 144.765 170.564 144.651C170.562 144.624 170.566 144.598 170.575 144.572C170.583 144.547 170.597 144.524 170.615 144.504C170.633 144.484 170.654 144.467 170.678 144.456C170.702 144.444 170.729 144.437 170.755 144.436C170.81 144.433 170.863 144.453 170.903 144.489C170.943 144.526 170.968 144.577 170.971 144.631C170.971 144.745 171.557 156.113 171.736 160.669C171.813 162.392 172.077 164.102 172.525 165.767C172.798 166.882 173.013 167.761 172.875 168.815C172.7 170.17 172.908 171.813 173.074 173.132C173.165 173.726 173.222 174.325 173.245 174.926C173.274 175.145 173.255 175.368 173.189 175.578C173.123 175.789 173.012 175.983 172.863 176.146C172.366 176.553 171.333 176.586 169.046 176.216C165.507 175.638 163.647 176.403 161.08 177.436L160.881 177.518C159.786 177.965 158.655 178.331 157.557 178.669C155.929 179.178 154.424 179.658 153.236 180.362C151.798 181.246 150.421 182.226 149.114 183.295C149.097 183.32 149.075 183.342 149.049 183.358C149.023 183.374 148.994 183.384 148.964 183.389Z" fill="#823A33"/>
<path d="M205.558 220.796H205.538C205.484 220.79 205.434 220.762 205.4 220.72C205.365 220.677 205.349 220.622 205.355 220.568C205.455 219.636 205.455 218.696 205.355 217.765C205.196 216.747 204.167 215.787 201.913 213.696L201.177 213.004C200.387 212.268 199.712 211.544 199.057 210.844C197.348 209.013 195.875 207.438 193.328 206.645C190.781 205.852 187.355 206.84 185.333 207.438C184.838 207.613 184.327 207.737 183.808 207.809C182.86 207.809 179.633 205.709 179.267 205.469C179.222 205.44 179.19 205.394 179.178 205.341C179.167 205.289 179.177 205.234 179.206 205.189C179.236 205.143 179.283 205.111 179.336 205.1C179.389 205.088 179.445 205.098 179.491 205.127C180.882 206.043 183.185 207.402 183.808 207.402C184.286 207.323 184.757 207.205 185.215 207.048C187.286 206.438 190.745 205.42 193.45 206.259C196.156 207.097 197.608 208.7 199.354 210.563C200.005 211.263 200.676 211.983 201.453 212.707L202.19 213.395C204.586 215.629 205.579 216.552 205.758 217.712C205.863 218.679 205.863 219.654 205.758 220.621C205.75 220.669 205.726 220.712 205.69 220.744C205.653 220.776 205.607 220.794 205.558 220.796Z" fill="#823A33"/>
<path d="M184.45 206.356C184.413 206.356 184.377 206.345 184.345 206.326C184.314 206.306 184.288 206.279 184.271 206.246C184.258 206.223 184.251 206.197 184.248 206.17C184.245 206.144 184.248 206.117 184.256 206.092C184.264 206.066 184.277 206.043 184.294 206.022C184.312 206.002 184.333 205.985 184.356 205.973C184.572 205.855 189.719 203.154 191.68 203.06C193.099 203.051 194.51 203.277 195.854 203.732C195.881 203.74 195.906 203.754 195.927 203.773C195.948 203.791 195.966 203.813 195.979 203.839C195.991 203.864 195.999 203.891 196.001 203.919C196.003 203.947 195.999 203.975 195.991 204.002C195.982 204.029 195.968 204.054 195.95 204.075C195.931 204.096 195.909 204.114 195.884 204.126C195.859 204.139 195.831 204.147 195.803 204.149C195.775 204.151 195.747 204.147 195.72 204.138C194.43 203.713 193.079 203.498 191.721 203.504C189.825 203.593 184.596 206.352 184.548 206.352C184.516 206.361 184.482 206.362 184.45 206.356Z" fill="#823A33"/>
<path d="M141.575 251.705C141.535 251.705 141.497 251.693 141.463 251.671C141.43 251.65 141.404 251.619 141.388 251.583C140.335 248.973 139.712 246.21 139.545 243.401C139.398 240.703 139.817 236.891 140.183 233.514C140.444 231.138 140.688 228.892 140.716 227.289C140.786 223.395 143.206 195.717 143.231 195.436C143.233 195.409 143.24 195.383 143.252 195.36C143.265 195.336 143.281 195.315 143.302 195.298C143.322 195.281 143.346 195.268 143.372 195.26C143.397 195.252 143.424 195.25 143.45 195.253C143.477 195.255 143.503 195.262 143.527 195.274C143.551 195.286 143.572 195.303 143.59 195.324C143.607 195.344 143.62 195.368 143.629 195.393C143.637 195.419 143.64 195.446 143.638 195.472C143.613 195.749 141.196 223.416 141.123 227.293C141.095 228.921 140.851 231.175 140.59 233.559C140.22 236.915 139.805 240.716 139.947 243.381C140.115 246.141 140.727 248.856 141.762 251.42C141.783 251.47 141.783 251.526 141.763 251.576C141.744 251.626 141.705 251.666 141.656 251.689C141.631 251.7 141.603 251.706 141.575 251.705Z" fill="#823A33"/>
<path d="M192.51 240.529C190.45 240.447 188.4 240.193 186.383 239.768C183.474 239.101 179.466 236.513 177.961 234.735C176.528 233.034 170.857 230.378 170.8 230.349L170.755 230.321C170.641 230.223 167.952 227.945 167.39 227.44C167.337 227.392 167.295 227.332 167.268 227.265C167.241 227.198 167.23 227.126 167.236 227.054C167.281 226.338 168.863 225.174 169.189 224.95C169.21 224.935 169.235 224.924 169.261 224.918C169.286 224.912 169.313 224.911 169.339 224.915C169.365 224.92 169.39 224.93 169.413 224.944C169.435 224.958 169.454 224.977 169.469 224.999C169.5 225.042 169.513 225.096 169.504 225.148C169.496 225.201 169.467 225.248 169.425 225.28C168.696 225.796 167.667 226.691 167.643 227.078C167.643 227.115 167.643 227.127 167.643 227.135C168.176 227.615 170.723 229.775 170.979 229.983C171.443 230.203 176.797 232.737 178.254 234.458C179.71 236.18 183.632 238.722 186.468 239.373C188.461 239.79 190.484 240.041 192.518 240.122C192.545 240.123 192.571 240.128 192.595 240.139C192.619 240.15 192.641 240.165 192.659 240.185C192.678 240.204 192.692 240.227 192.701 240.252C192.71 240.277 192.715 240.303 192.714 240.33C192.711 240.382 192.689 240.433 192.651 240.47C192.614 240.507 192.563 240.528 192.51 240.529Z" fill="#823A33"/>
<path d="M86.5304 215.328C86.4947 215.326 86.4598 215.317 86.4287 215.299C86.3822 215.271 86.3485 215.226 86.3348 215.174C86.3212 215.121 86.3286 215.065 86.3554 215.018C86.4083 214.933 87.6371 212.866 89.4598 212.048C90.6985 211.53 92.0061 211.196 93.3413 211.055L95.0216 209.916C95.0434 209.901 95.068 209.89 95.0941 209.885C95.1201 209.879 95.147 209.879 95.1732 209.883C95.1993 209.888 95.2242 209.899 95.2464 209.913C95.2686 209.928 95.2876 209.947 95.3024 209.969C95.3324 210.014 95.3437 210.069 95.3338 210.122C95.324 210.176 95.2937 210.223 95.2495 210.254L93.4837 211.462H93.4308C92.123 211.599 90.8418 211.924 89.6266 212.427C87.9259 213.191 86.7176 215.214 86.7053 215.234C86.6866 215.263 86.6607 215.287 86.6301 215.304C86.5994 215.32 86.5651 215.328 86.5304 215.328Z" fill="#823A33"/>
<path d="M106.678 236.957C106.636 236.957 106.596 236.945 106.561 236.921C106.527 236.897 106.5 236.864 106.486 236.825C106.471 236.786 106.469 236.743 106.479 236.702C106.49 236.662 106.512 236.626 106.544 236.599C106.581 236.57 110.027 233.624 110.763 231.716C111.577 229.621 112.24 226.427 111.894 224.637C111.744 223.864 111.561 223.119 111.398 222.46C111.165 221.635 111.001 220.793 110.905 219.942C110.853 218.949 109.709 218.135 109.685 218.127C109.644 218.095 109.616 218.049 109.608 217.997C109.601 217.946 109.613 217.893 109.642 217.85C109.672 217.807 109.717 217.778 109.768 217.767C109.819 217.756 109.872 217.766 109.917 217.793C109.974 217.834 111.235 218.725 111.3 219.917C111.395 220.742 111.556 221.559 111.78 222.358C111.947 223.022 112.13 223.774 112.281 224.555C112.643 226.419 111.959 229.71 111.133 231.859C110.356 233.873 106.943 236.794 106.796 236.916C106.762 236.942 106.721 236.956 106.678 236.957Z" fill="#823A33"/>
<path d="M88.1291 209.673C88.0751 209.678 88.0212 209.662 87.9793 209.627C87.9373 209.593 87.9107 209.543 87.9053 209.49C87.8999 209.436 87.9162 209.382 87.9505 209.34C87.9848 209.298 88.0344 209.271 88.0884 209.266L95.8636 207.671C95.8895 207.665 95.9163 207.664 95.9426 207.669C95.9688 207.673 95.9938 207.683 96.0162 207.698C96.0385 207.712 96.0578 207.731 96.0728 207.753C96.0878 207.775 96.0983 207.799 96.1036 207.825C96.1145 207.879 96.104 207.934 96.0743 207.98C96.0446 208.026 95.9981 208.058 95.9449 208.07L88.1698 209.669L88.1291 209.673Z" fill="#823A33"/>
<path d="M163.66 141.917C162.805 144.712 161.088 150.055 159.729 152.496C159.502 152.903 159.176 153.509 158.794 154.217C154.318 162.452 149.908 170.158 147.873 170.764C147.708 170.812 147.537 170.836 147.365 170.837C144.924 170.837 142.572 165.865 140.965 162.505L140.586 161.727C139.252 158.977 135.403 148.944 134.333 146.149L134.996 145.831C136.021 148.517 139.94 158.696 141.25 161.406L141.628 162.187C143.036 165.141 145.668 170.658 147.658 170.06C149.647 169.462 155.836 158.131 158.143 153.863C158.549 153.155 158.851 152.557 159.087 152.134C160.393 149.774 162.114 144.436 162.96 141.665C163.188 141.742 163.416 141.824 163.66 141.917Z" fill="white"/>
<path d="M148.133 173.286C148.036 174.837 147.482 176.061 146.913 176.025C146.343 175.988 145.936 174.702 146.034 173.152C146.132 171.602 146.685 170.377 147.255 170.414C147.824 170.451 148.231 171.736 148.133 173.286Z" fill="white"/>
<path d="M126.415 160.076C126.373 160.075 126.332 160.063 126.297 160.039C126.275 160.023 126.257 160.003 126.243 159.98C126.229 159.958 126.22 159.932 126.215 159.906C126.211 159.879 126.212 159.852 126.219 159.826C126.225 159.8 126.236 159.776 126.252 159.754L126.993 158.733C127.024 158.689 127.072 158.66 127.126 158.652C127.179 158.643 127.234 158.656 127.277 158.688C127.321 158.72 127.35 158.768 127.359 158.821C127.367 158.875 127.354 158.929 127.322 158.973L126.582 159.994C126.562 160.02 126.537 160.04 126.508 160.055C126.479 160.069 126.447 160.076 126.415 160.076Z" fill="#F2D8CB"/>
<path d="M143.435 298.796C143.389 298.796 143.344 298.78 143.307 298.751C143.271 298.722 143.246 298.682 143.236 298.637C142.623 295.726 142.176 292.782 141.897 289.82C141.584 285.845 138.898 281.162 138.87 281.113C138.843 281.066 138.836 281.011 138.85 280.958C138.864 280.906 138.898 280.862 138.945 280.835C138.992 280.808 139.048 280.8 139.1 280.815C139.152 280.829 139.197 280.863 139.224 280.91C139.252 280.959 141.982 285.719 142.3 289.788C142.58 292.732 143.026 295.658 143.638 298.551C143.648 298.604 143.637 298.659 143.607 298.703C143.578 298.748 143.532 298.78 143.48 298.792L143.435 298.796Z" fill="#823A33"/>
<path d="M189.463 264.945C189.418 264.946 189.375 264.931 189.341 264.904C189.275 264.859 187.685 263.683 183.673 259.802C179.661 255.92 176.691 249.419 176.663 249.354C176.651 249.329 176.645 249.303 176.644 249.276C176.643 249.249 176.647 249.223 176.656 249.198C176.666 249.173 176.68 249.15 176.699 249.13C176.718 249.111 176.74 249.096 176.764 249.085C176.814 249.063 176.869 249.061 176.92 249.08C176.97 249.1 177.011 249.138 177.033 249.187C177.061 249.248 179.979 255.66 183.95 259.509C187.921 263.358 189.56 264.566 189.577 264.574C189.619 264.607 189.648 264.655 189.656 264.708C189.665 264.761 189.652 264.815 189.621 264.859C189.603 264.885 189.58 264.906 189.552 264.921C189.525 264.936 189.494 264.944 189.463 264.945Z" fill="#823A33"/>
<path d="M108.535 259.277C108.486 259.276 108.438 259.259 108.4 259.228C108.363 259.19 108.342 259.138 108.342 259.084C108.342 259.03 108.363 258.978 108.4 258.939L117.079 249.134C117.117 249.096 117.169 249.075 117.223 249.075C117.277 249.075 117.329 249.096 117.368 249.134C117.405 249.172 117.426 249.223 117.426 249.276C117.426 249.33 117.405 249.381 117.368 249.419L108.689 259.208C108.67 259.23 108.647 259.248 108.62 259.26C108.593 259.272 108.564 259.278 108.535 259.277Z" fill="#823A33"/>
</g>
<defs>
<clipPath id="clip0_127_48260">
<rect width="123.414" height="221.87" fill="white" transform="translate(84.6426 79.2316)"/>
</clipPath>
</defs>
</svg>
