<svg width="320" height="328" viewBox="0 0 320 328" fill="none" xmlns="http://www.w3.org/2000/svg">
<g clip-path="url(#clip0_127_48400)">
<mask id="mask0_127_48400" style="mask-type:alpha" maskUnits="userSpaceOnUse" x="4" y="0" width="306" height="307">
<circle cx="156.927" cy="153.408" r="152.815" fill="#D9D9D9"/>
</mask>
<g mask="url(#mask0_127_48400)">
<path d="M382.475 96.1576C375.171 65.4947 362.179 35.0189 337.356 14.4949C315.611 -3.48602 288.102 -12.274 260.835 -17.7267C230.026 -23.8946 198.597 -26.5351 167.626 -31.893C131.224 -38.1738 95.0772 -46.108 58.4334 -51.0455C22.5434 -55.8829 -13.6517 -57.4544 -49.6033 -52.3683C-63.6055 -50.3764 -200.457 -33.5875 -245.845 -1.66844C-271.068 16.0766 -289.744 40.1178 -300.747 68.9324C-306.899 85.083 -310.896 101.982 -313.969 118.966C-316.73 134.201 -318.663 149.624 -319.379 165.097C-320.771 195.117 -317.697 225.969 -305.894 253.848C-294.502 280.766 -274.913 302.838 -250.177 318.263C-194.317 353.084 -126.377 352.192 -63.1646 346.381C-26.0363 342.968 10.9048 338.78 48.2279 338.157C64.6348 337.885 81.0417 337.993 97.4485 338.118L107.672 338.193C107.817 338.193 107.963 338.193 108.11 338.193C122.93 338.295 137.751 338.346 152.565 338.072L154.562 338.034C164.596 337.826 174.643 337.464 184.682 336.859C196.802 336.126 208.905 335.037 220.931 333.424C229.524 332.268 238.079 330.845 246.582 329.1C249.94 328.416 253.287 327.675 256.624 326.877C269.826 323.734 283.285 319.814 296.249 314.667C296.394 314.615 296.538 314.559 296.679 314.497C296.81 314.451 296.936 314.4 297.064 314.349C297.099 314.337 297.133 314.322 297.166 314.305C308.249 309.85 318.957 304.492 328.778 297.937C334.251 294.313 339.44 290.277 344.3 285.865C368.257 264.01 379.678 232.407 385.353 201.21C391.645 166.369 390.665 130.602 382.475 96.1576Z" fill="#FAF3ED"/>
<path d="M326.096 256.402H-268.898V339.316H326.096V256.402Z" fill="#E7A988"/>
<path d="M324.788 54.7375H37.5342V254.791H324.788V54.7375Z" fill="#E1E3E6"/>
<path d="M261.963 107.972C229.315 104.349 195.536 109.068 164.461 117.935C133.386 126.802 103.846 140.048 76.9959 156.228C63.0281 164.647 49.7515 175.325 37.5342 185.745V254.792H299.748C307.592 248.212 314.681 240.982 320.703 233.037C321.396 232.12 322.074 231.194 322.737 230.257V133.418C308.078 118.002 284.639 110.494 261.963 107.972Z" fill="#F0F1F2"/>
<path d="M39.1887 53.2216H36.7529V256.461H39.1887V53.2216Z" fill="#E0BDA4"/>
<path d="M134.811 53.1985H132.375V256.438H134.811V53.1985Z" fill="#E0BDA4"/>
<path d="M233.44 53.1985H231.004V256.438H233.44V53.1985Z" fill="#E0BDA4"/>
<path d="M324.727 53.2216H36.7529V55.5678H324.727V53.2216Z" fill="#E0BDA4"/>
<path d="M324.727 254.096H36.7529V256.438H324.727V254.096Z" fill="#E0BDA4"/>
</g>
</g>
<path d="M27.1008 176.361C27.1781 175.966 27.3218 175.586 27.5261 175.238C27.5719 175.151 27.6191 175.062 27.6738 174.975C27.8707 174.68 28.0769 174.389 28.2925 174.102C28.9378 173.306 29.5816 172.51 30.2313 171.717C31.0907 170.671 31.9545 169.628 32.8228 168.588L33.3322 167.982C33.5832 167.775 33.8313 167.565 34.0838 167.358C35.9042 166.616 37.8721 166.307 39.8323 166.455L38.9331 165.585L37.5687 164.268C37.2468 163.958 36.9293 163.643 36.5956 163.346C36.0817 163.061 35.556 162.798 35.0185 162.556C34.2669 162.218 33.4902 161.944 32.7327 161.62C31.1306 160.937 29.7292 159.866 29.3173 158.085C29.2506 157.826 29.232 157.557 29.2626 157.291C29.4516 155.962 31.9398 156.888 32.7814 157.164C35.1662 157.946 37.6351 158.719 39.8102 159.987C40.3099 160.32 40.7802 160.695 41.2159 161.108C41.6589 161.533 42.0872 161.976 42.5124 162.419C42.9603 162.89 43.4033 163.366 43.8414 163.849C44.6161 164.705 45.3741 165.577 46.1154 166.464C45.9116 164.774 45.6803 163.088 45.4214 161.405C45.3845 161.168 45.3446 160.931 45.3077 160.693C44.0393 159.275 42.7767 157.847 41.6309 156.327C41.3454 155.949 41.0683 155.564 40.7995 155.173C40.5394 154.808 40.3036 154.426 40.0937 154.03C39.7364 153.326 39.537 152.523 39.7688 151.745C39.8767 151.358 40.1041 151.016 40.4186 150.767C40.7944 150.492 41.2598 150.369 41.7224 150.422C41.7384 150.423 41.7535 150.429 41.7655 150.44C41.7775 150.451 41.7857 150.465 41.7889 150.481C42.9333 150.664 43.9137 151.981 44.6978 152.734C46.8271 154.789 48.983 156.526 50.5187 159.151C54.8009 166.501 52.4487 175.006 51.7251 182.974C51.6956 183.305 51.6675 183.579 51.6217 184.007L55.3783 189.884C55.4808 190.047 55.5364 190.234 55.539 190.426C55.5416 190.619 55.4911 190.808 55.3931 190.973C53.7688 193.749 50.7756 195.767 47.0073 196.608C46.8062 196.651 46.5966 196.634 46.4053 196.558C46.2141 196.482 46.0499 196.351 45.9338 196.181C45.4357 195.45 44.9523 194.712 44.4837 193.966C43.4678 192.341 42.5188 190.675 41.6368 188.969C41.3931 188.499 40.0125 188.358 39.4041 187.43C37.1153 183.956 36.7462 177.662 36.7019 174.919C36.2146 175.462 35.7037 175.983 35.1869 176.497C34.8915 176.785 34.608 177.079 34.3009 177.357C34.0159 177.638 33.686 177.869 33.3248 178.042C32.7091 178.314 31.9028 178.281 31.4672 177.707C31.2531 177.402 31.149 177.034 31.1719 176.663C30.8134 177.005 30.413 177.3 29.9803 177.541C29.4103 177.837 28.7192 177.984 28.0917 177.791C27.7845 177.703 27.5115 177.523 27.3091 177.276C27.2143 177.145 27.147 176.997 27.1112 176.84C27.0754 176.683 27.0719 176.52 27.1008 176.361Z" fill="#FFB687"/>
<path d="M32.3863 175.91C32.0273 176.181 31.6905 176.483 31.3418 176.769C31.1601 176.917 30.8986 176.659 31.0803 176.508C31.4541 176.202 31.819 175.881 32.2001 175.59C32.3907 175.443 32.5739 175.768 32.3863 175.91Z" fill="#FFB687"/>
<path d="M47.2578 166.078C46.0802 166.549 45.0575 167.34 44.3045 168.361C44.1672 168.553 43.8468 168.361 43.9856 168.175C44.7926 167.075 45.8935 166.225 47.1618 165.722C47.3833 165.635 47.4793 165.992 47.2592 166.078H47.2578Z" fill="#FFB687"/>
<path d="M45.1493 175.236C44.3298 173.603 43.6387 171.906 42.8207 170.273C42.7144 170.061 43.0318 169.874 43.1382 170.087C43.9577 171.722 44.6488 173.417 45.4668 175.05C45.5731 175.263 45.2556 175.449 45.1493 175.236Z" fill="#FFB687"/>
<path d="M46.2798 159.362L45.4111 160.655C45.2796 160.851 44.9679 160.667 45.0935 160.469L45.9607 159.17C46.0936 158.974 46.4127 159.158 46.2798 159.356V159.362Z" fill="#FFB687"/>
<path d="M41.1389 164.47C40.7964 164.654 40.3997 164.711 40.0195 164.63C39.6392 164.548 39.3002 164.335 39.0627 164.027C38.6197 163.436 38.4617 162.609 38.3421 161.896C38.3023 161.664 38.6581 161.564 38.698 161.799C38.7744 162.385 38.934 162.958 39.172 163.5C39.4895 164.147 40.2854 164.533 40.9528 164.148C40.9951 164.123 41.0455 164.117 41.0928 164.129C41.1402 164.141 41.1806 164.172 41.2053 164.215C41.23 164.257 41.2369 164.307 41.2244 164.355C41.2119 164.402 41.1812 164.442 41.1389 164.467V164.47Z" fill="#FFB687"/>
<path d="M38.3951 176.209C38.3242 177.833 38.2326 179.45 38.1869 181.07C38.1293 182.669 38.3624 184.265 38.875 185.78C38.9517 186.005 38.5959 186.102 38.5191 185.878C37.4456 182.755 37.8841 179.441 38.0259 176.209C38.0362 175.973 38.4054 175.971 38.3951 176.209Z" fill="#FFB687"/>
<g clip-path="url(#clip1_127_48400)">
<path d="M26.1993 128.975L8.76139 135.196C8.35405 135.341 7.97932 135.565 7.6586 135.855C7.33788 136.146 7.07745 136.496 6.89217 136.887C6.70689 137.278 6.6004 137.701 6.57878 138.133C6.55716 138.565 6.62083 138.997 6.76615 139.404L21.1512 179.726C21.4447 180.549 22.053 181.221 22.8422 181.595C23.6314 181.969 24.537 182.015 25.3597 181.721L47.6528 173.768C48.4755 173.475 49.1479 172.866 49.522 172.077C49.8962 171.288 49.9416 170.382 49.6481 169.56L36.9952 134.093C36.6831 133.219 36.0366 132.504 35.1977 132.105L28.8759 129.108C28.0366 128.711 27.0739 128.663 26.1993 128.975Z" fill="#D9E6EF"/>
<path d="M17.0591 157.307L23.4713 175.28C23.9828 176.714 25.5598 177.462 26.9936 176.95L43.3676 171.109C44.8014 170.597 45.5491 169.02 45.0376 167.586L38.6254 149.613C38.1139 148.179 36.5369 147.431 35.1031 147.943L18.7291 153.784C17.2953 154.296 16.5476 155.873 17.0591 157.307Z" fill="url(#paint0_linear_127_48400)"/>
<path d="M16.8243 157.386L23.2389 175.366C23.5069 176.115 24.0612 176.728 24.78 177.068C25.4989 177.409 26.3235 177.451 27.0731 177.184L43.454 171.34C44.203 171.072 44.8151 170.518 45.1559 169.799C45.4967 169.08 45.5384 168.256 45.2718 167.506L38.8572 149.526C38.5891 148.777 38.0348 148.165 37.316 147.824C36.5972 147.483 35.7725 147.441 35.023 147.708L18.6421 153.552C17.8931 153.82 17.2811 154.374 16.9404 155.093C16.5996 155.812 16.5578 156.637 16.8243 157.386ZM18.8085 154.018L21.6286 153.012L23.7531 158.967L18.5737 160.815L17.2909 157.22C17.0685 156.594 17.1033 155.905 17.3878 155.305C17.6724 154.705 18.1833 154.242 18.8085 154.018ZM23.9253 159.43C24.1571 160.026 24.6118 160.508 25.1931 160.775C25.7744 161.042 26.4367 161.071 27.0396 160.858L29.8597 159.852L31.769 165.204L28.9489 166.21C28.3472 166.427 27.8533 166.869 27.5721 167.443C27.2908 168.018 27.2441 168.679 27.442 169.287L22.2561 171.137L18.7395 161.28L23.9253 159.43ZM27.924 169.186C27.7495 168.695 27.7768 168.155 27.9999 167.684C28.2231 167.213 28.6238 166.851 29.1143 166.675L31.9343 165.669L34.8633 173.879L30.1933 175.545L27.924 169.186ZM32.4021 165.504L35.2221 164.498C35.7129 164.324 36.2529 164.351 36.7236 164.574C37.1943 164.797 37.5572 165.198 37.7327 165.688L40.0009 172.046L35.3304 173.712L32.4021 165.504ZM38.1703 165.461C37.9385 164.865 37.4838 164.382 36.9025 164.116C36.3212 163.849 35.6589 163.819 35.056 164.032L32.2359 165.038L30.3273 159.688L33.1473 158.682C33.7491 158.466 34.2429 158.024 34.5242 157.449C34.8055 156.875 34.8521 156.214 34.6543 155.605L39.8401 153.755L43.3561 163.611L38.1703 165.461ZM34.1714 155.705C34.3461 156.195 34.3189 156.735 34.0958 157.206C33.8727 157.677 33.4718 158.04 32.9813 158.216L30.1608 159.222L27.2323 151.013L31.9028 149.347L34.1714 155.705ZM29.6942 159.388L26.8741 160.394C26.3833 160.569 25.8432 160.542 25.3724 160.318C24.9017 160.095 24.5388 159.694 24.3634 159.204L22.0952 152.846L26.7657 151.18L29.6942 159.388ZM23.7055 175.2L22.4227 171.604L27.6022 169.757L29.7266 175.712L26.9066 176.718C26.2808 176.94 25.5924 176.905 24.9923 176.621C24.3922 176.336 23.9294 175.825 23.7055 175.2ZM43.2875 170.874L40.4675 171.88L38.343 165.925L43.5224 164.077L44.8052 167.672C45.0276 168.298 44.9927 168.987 44.7082 169.587C44.4237 170.187 43.9128 170.65 43.2875 170.874ZM38.3906 149.692L39.6733 153.288L34.4939 155.136L32.3694 149.181L35.1895 148.174C35.8153 147.952 36.5037 147.987 37.1038 148.271C37.7039 148.556 38.1667 149.067 38.3906 149.692Z" fill="#654B13"/>
</g>
<path d="M38.3791 174.111C38.3052 178.393 37.375 182.89 39.1543 186.9C39.8366 188.407 40.8189 189.76 42.0411 190.875C43.1766 191.93 44.4554 192.813 45.7592 193.644C45.5816 192.528 45.4761 191.401 45.4433 190.271C45.396 188.836 45.4433 187.398 45.5082 185.962C45.5732 184.527 45.6751 183.082 45.7356 181.639C45.7962 180.196 45.8168 178.793 45.7356 177.371C45.7223 177.109 45.7017 176.846 45.681 176.584C44.0015 173.269 42.6418 169.802 41.6203 166.229C41.3633 165.33 41.1315 164.424 40.9159 163.516C40.7254 162.713 40.501 161.639 39.6091 161.434C36.5303 160.727 38.0955 169.787 38.1989 170.669C38.2831 171.379 38.3466 172.091 38.3717 172.804C38.3864 173.237 38.3879 173.674 38.3791 174.111Z" fill="#FFB687"/>
<path d="M38.4895 163.953C38.6899 164.521 39.2066 165.069 39.8649 164.886C40.4139 164.731 40.6867 164.158 40.7518 163.631C40.8261 162.99 40.7209 162.233 40.2412 161.765C40.1416 161.662 40.022 161.581 39.8899 161.526C39.7577 161.471 39.6158 161.444 39.4727 161.445C39.3296 161.447 39.1884 161.478 39.0578 161.537C38.9271 161.595 38.8098 161.68 38.713 161.785C38.1648 162.353 38.2708 163.26 38.4895 163.953C38.5434 164.126 38.8038 164.02 38.7501 163.849C38.5688 163.267 38.4456 162.454 38.9221 161.973C39.5023 161.386 40.1943 161.93 40.3924 162.565C40.5593 163.102 40.5674 163.841 40.2146 164.308C40.1332 164.431 40.0163 164.527 39.8794 164.582C39.7426 164.637 39.5923 164.649 39.4485 164.616C39.0816 164.523 38.8686 164.185 38.7501 163.849C38.6894 163.679 38.4297 163.783 38.4895 163.953Z" fill="#2A2D3D"/>
<g clip-path="url(#clip2_127_48400)">
<path d="M294.195 118.57C293.948 118.477 293.685 118.437 293.422 118.451C293.15 118.457 292.88 118.487 292.614 118.54C292.086 118.649 291.575 118.828 291.095 119.072C290.583 119.329 290.094 119.631 289.633 119.972C289.625 118.843 289.564 117.716 289.473 116.59C289.373 115.381 289.231 114.174 289.07 112.978C288.955 112.126 288.828 111.276 288.698 110.427C289.099 109.916 289.515 109.415 289.923 108.914C290.453 108.271 290.98 107.626 291.482 106.961C292.323 105.844 293.146 104.629 293.664 103.325C294.028 102.409 294.125 100.817 292.852 100.589C291.373 100.325 289.609 102.328 288.57 103.176C288.198 103.484 287.833 103.799 287.474 104.122C286.843 104.629 286.224 105.156 285.618 105.702C284.213 106.969 282.883 108.316 281.636 109.738C280.381 111.162 279.204 112.655 278.095 114.195C276.987 115.736 275.93 117.353 274.94 118.993C274.608 119.545 274.283 120.101 273.966 120.663C273.592 120.351 273.208 120.051 272.816 119.763C272.737 118.713 272.309 117.606 272.139 116.566C272.359 116.148 272.584 115.72 272.681 115.258C273.078 113.372 273.143 110.584 272.6 109.347C272.401 108.895 272.146 108.403 271.698 108.149C271.501 108.042 271.276 107.994 271.052 108.013C270.829 108.031 270.615 108.114 270.437 108.252C270.029 108.551 269.748 109.009 269.529 109.457C269.225 110.085 268.963 110.736 268.683 111.374C268.129 112.645 267.535 113.909 267.068 115.22C266.602 116.56 266.347 117.965 266.312 119.383C266.233 122.353 266.364 125.345 267.095 128.231C267.797 130.987 269.154 133.357 270.697 135.719C270.974 136.168 271.279 136.598 271.611 137.008C271.447 137.835 270.277 143.394 269.879 145.282C269.846 145.437 269.858 145.597 269.911 145.745C269.965 145.893 270.059 146.024 270.182 146.121C273.698 148.856 278.701 149.481 282.586 148.676C282.748 148.642 282.895 148.561 283.011 148.444C283.127 148.327 283.207 148.179 283.24 148.017L284.803 140.401C285.222 140.049 285.62 139.673 285.995 139.274C286.828 138.383 287.536 137.383 288.1 136.3C288.681 135.179 289.148 134.002 289.493 132.787C289.846 131.562 290.085 130.306 290.207 129.037C290.3 128.099 290.524 127.498 290.481 126.558C291.056 125.849 291.63 125.142 292.206 124.435L293.463 122.889L294.083 122.127C294.264 121.904 295.627 120.261 295.289 119.342C295.128 118.917 294.641 118.755 294.195 118.57Z" fill="#FFB687"/>
<path d="M280.329 129.311C281.269 131.041 281.65 133.019 281.42 134.973C281.398 135.165 281.692 135.239 281.716 135.045C281.958 133.012 281.563 130.954 280.586 129.154C280.492 128.983 280.237 129.145 280.329 129.315L280.329 129.311Z" fill="#2A2D3D"/>
<path d="M291.228 127.924L290.286 97.3751C290.257 96.4391 289.475 95.7036 288.538 95.7325L273.768 96.1883C272.832 96.2171 272.097 96.9994 272.126 97.9355L273.068 128.484C273.097 129.42 273.879 130.156 274.815 130.127L289.586 129.671C290.522 129.642 291.257 128.86 291.228 127.924Z" fill="#232B57"/>
<path d="M290.487 126.776L289.591 97.7392C289.568 97.0037 288.954 96.4259 288.218 96.4486L274.131 96.8832C273.395 96.9059 272.817 97.5206 272.84 98.2561L273.736 127.293C273.759 128.028 274.373 128.606 275.109 128.583L289.196 128.149C289.932 128.126 290.51 127.511 290.487 126.776Z" fill="#F0F5FF"/>
<path d="M275.76 105.201L279.937 105.072C279.977 105.071 280.015 105.054 280.043 105.024C280.07 104.995 280.085 104.956 280.084 104.916C280.083 104.876 280.065 104.838 280.036 104.81C280.007 104.783 279.968 104.768 279.928 104.769L275.751 104.898C275.711 104.899 275.673 104.917 275.645 104.946C275.618 104.975 275.603 105.014 275.604 105.054C275.606 105.094 275.623 105.132 275.652 105.16C275.681 105.187 275.72 105.202 275.76 105.201Z" fill="#2A2D3D"/>
<path d="M275.832 107.501L280.008 107.372C280.049 107.371 280.087 107.354 280.114 107.324C280.142 107.295 280.156 107.256 280.155 107.216C280.154 107.176 280.137 107.138 280.107 107.11C280.078 107.083 280.039 107.068 279.999 107.069L275.822 107.198C275.782 107.2 275.744 107.217 275.717 107.246C275.689 107.275 275.674 107.314 275.676 107.354C275.677 107.394 275.694 107.432 275.723 107.46C275.752 107.487 275.791 107.502 275.832 107.501Z" fill="#2A2D3D"/>
<path d="M275.902 109.801L287.544 109.442C287.584 109.441 287.622 109.423 287.649 109.394C287.677 109.365 287.692 109.326 287.69 109.286C287.689 109.246 287.672 109.208 287.643 109.18C287.613 109.153 287.575 109.138 287.534 109.139L275.893 109.498C275.852 109.5 275.814 109.517 275.787 109.546C275.759 109.575 275.745 109.614 275.746 109.654C275.747 109.695 275.764 109.733 275.794 109.76C275.823 109.788 275.862 109.802 275.902 109.801Z" fill="#2A2D3D"/>
<path d="M275.973 112.102L287.615 111.743C287.655 111.742 287.693 111.725 287.721 111.695C287.748 111.666 287.763 111.627 287.762 111.587C287.76 111.547 287.743 111.509 287.714 111.481C287.685 111.454 287.646 111.439 287.606 111.44L275.964 111.799C275.924 111.801 275.886 111.818 275.858 111.847C275.831 111.876 275.816 111.915 275.817 111.955C275.818 111.996 275.836 112.034 275.865 112.061C275.894 112.089 275.933 112.103 275.973 112.102Z" fill="#2A2D3D"/>
<path d="M276.044 114.402L287.686 114.042C287.726 114.041 287.764 114.024 287.792 113.995C287.819 113.966 287.834 113.927 287.833 113.886C287.832 113.846 287.815 113.808 287.785 113.781C287.756 113.753 287.717 113.739 287.677 113.74L276.035 114.099C275.995 114.1 275.957 114.117 275.929 114.147C275.902 114.176 275.887 114.215 275.888 114.255C275.89 114.295 275.907 114.333 275.936 114.361C275.965 114.388 276.004 114.403 276.044 114.402Z" fill="#2A2D3D"/>
<path d="M276.115 116.702L287.757 116.343C287.797 116.341 287.835 116.324 287.862 116.295C287.89 116.266 287.905 116.227 287.903 116.187C287.902 116.146 287.885 116.108 287.856 116.081C287.826 116.053 287.787 116.039 287.747 116.04L276.105 116.399C276.065 116.4 276.027 116.417 276 116.447C275.972 116.476 275.958 116.515 275.959 116.555C275.96 116.595 275.977 116.633 276.006 116.661C276.036 116.688 276.075 116.703 276.115 116.702Z" fill="#2A2D3D"/>
<path d="M283.862 118.593L287.823 118.471C287.863 118.47 287.901 118.453 287.929 118.424C287.956 118.394 287.971 118.355 287.97 118.315C287.969 118.275 287.951 118.237 287.922 118.21C287.893 118.182 287.854 118.167 287.814 118.169L283.853 118.291C283.812 118.292 283.774 118.309 283.747 118.338C283.719 118.368 283.705 118.407 283.706 118.447C283.707 118.487 283.724 118.525 283.753 118.552C283.783 118.58 283.822 118.595 283.862 118.593Z" fill="#2A2D3D"/>
<path d="M283.928 120.772L287.89 120.65C287.93 120.649 287.968 120.632 287.995 120.603C288.023 120.573 288.037 120.534 288.036 120.494C288.035 120.454 288.018 120.416 287.989 120.389C287.959 120.361 287.92 120.346 287.88 120.348L283.919 120.47C283.879 120.471 283.841 120.488 283.813 120.517C283.786 120.547 283.771 120.586 283.772 120.626C283.773 120.666 283.791 120.704 283.82 120.731C283.849 120.759 283.888 120.774 283.928 120.772Z" fill="#2A2D3D"/>
<path d="M284 123.073L287.961 122.951C288.001 122.95 288.039 122.932 288.067 122.903C288.094 122.874 288.109 122.835 288.108 122.795C288.106 122.755 288.089 122.717 288.06 122.689C288.031 122.662 287.992 122.647 287.952 122.648L283.99 122.77C283.95 122.772 283.912 122.789 283.885 122.818C283.857 122.847 283.842 122.886 283.844 122.926C283.845 122.966 283.862 123.004 283.891 123.032C283.92 123.06 283.959 123.074 284 123.073Z" fill="#2A2D3D"/>
<path d="M282.179 118.373L276.657 118.544C276.39 118.552 276.18 118.775 276.188 119.043L276.304 122.796C276.312 123.063 276.535 123.274 276.803 123.265L282.325 123.095C282.592 123.087 282.802 122.863 282.794 122.596L282.678 118.843C282.67 118.575 282.446 118.365 282.179 118.373Z" fill="#C5D0E6"/>
<path d="M286.906 104.48L281.6 104.644C281.332 104.652 281.122 104.876 281.13 105.143L281.186 106.943C281.194 107.211 281.417 107.421 281.685 107.413L286.991 107.249C287.259 107.241 287.469 107.017 287.461 106.75L287.405 104.949C287.397 104.682 287.173 104.472 286.906 104.48Z" fill="#C5D0E6"/>
<path d="M289.616 98.5365L272.865 99.0534L272.942 101.556L289.693 101.039L289.616 98.5365Z" fill="#005895"/>
<path d="M274.725 99.5751C274.858 99.571 274.99 99.6065 275.103 99.6771C275.216 99.7478 275.306 99.8504 275.36 99.9719C275.415 100.093 275.433 100.229 275.41 100.36C275.388 100.491 275.328 100.613 275.236 100.71C275.145 100.808 275.027 100.875 274.897 100.905C274.767 100.935 274.631 100.926 274.507 100.878C274.382 100.831 274.274 100.748 274.197 100.639C274.12 100.53 274.076 100.401 274.073 100.268C274.067 100.09 274.133 99.9165 274.256 99.7866C274.378 99.6567 274.547 99.5806 274.725 99.5751Z" fill="#F0F5FF"/>
<path d="M284.285 99.2801L276.598 99.5174C276.408 99.5232 276.26 99.6813 276.265 99.8705L276.286 100.53C276.292 100.72 276.45 100.868 276.639 100.862L284.327 100.625C284.516 100.619 284.665 100.461 284.659 100.272L284.638 99.6122C284.633 99.423 284.474 99.2743 284.285 99.2801Z" fill="#F0F5FF"/>
<path d="M281.225 98.288C281.478 98.2802 281.677 98.0689 281.669 97.816C281.661 97.5631 281.45 97.3645 281.197 97.3723C280.944 97.3801 280.746 97.5914 280.753 97.8443C280.761 98.0971 280.972 98.2958 281.225 98.288Z" fill="#232B57"/>
<path d="M293.699 109.298C293.301 108.754 292.598 108.457 291.934 108.43C290.721 108.38 289.659 109.304 288.867 110.123C288.108 110.904 287.34 111.685 286.692 112.562C286.15 113.295 285.296 114.459 285.761 115.417C285.863 115.606 286.008 115.769 286.185 115.893C286.361 116.016 286.565 116.096 286.778 116.127C287.768 116.296 288.75 115.644 289.534 115.128C290.938 114.204 292.184 113.492 293.242 112.159C293.528 111.797 293.752 111.389 293.902 110.952C294.044 110.569 294.057 110.15 293.94 109.758C293.883 109.593 293.802 109.438 293.699 109.298Z" fill="#FFB687"/>
<path d="M294.99 118.558C293.674 117.164 291.252 119.158 290.14 119.985C289.574 120.407 288.954 120.841 288.542 121.423C288.338 121.69 288.224 122.016 288.218 122.353C288.226 122.554 288.282 122.751 288.38 122.927C288.478 123.103 288.616 123.254 288.783 123.366C290.298 124.399 293.104 122.576 294.213 121.599C294.811 121.072 295.421 120.339 295.385 119.449C295.365 119.114 295.225 118.798 294.99 118.558Z" fill="#FFB687"/>
<path d="M294.246 114.653C293.89 113.711 292.715 113.368 291.558 113.915C290.293 114.502 289.116 115.264 288.062 116.177C287.066 117.05 284.047 119.596 285.722 121.029C286.488 121.683 287.744 121.263 288.558 120.934C289.471 120.55 290.322 120.034 291.083 119.402C292.257 118.453 293.829 117.509 294.256 115.958C294.393 115.533 294.39 115.076 294.246 114.653Z" fill="#FFB687"/>
<path d="M289.532 120.64C290.536 120.048 291.491 119.379 292.391 118.639C292.539 118.513 292.379 118.258 292.231 118.382C291.331 119.122 290.375 119.791 289.372 120.383C289.204 120.483 289.365 120.74 289.532 120.64Z" fill="#2A2D3D"/>
<path d="M288.854 115.73C289.622 115.184 290.418 114.679 291.24 114.218C291.41 114.123 291.25 113.866 291.079 113.961C290.258 114.423 289.462 114.927 288.694 115.473C288.536 115.586 288.695 115.844 288.854 115.73Z" fill="#2A2D3D"/>
<path d="M270.645 116.967C271.171 116.943 271.693 116.87 272.206 116.749C272.396 116.705 272.306 116.415 272.116 116.46C271.632 116.574 271.138 116.642 270.642 116.664C270.602 116.666 270.564 116.683 270.536 116.712C270.509 116.741 270.494 116.78 270.495 116.82C270.496 116.861 270.513 116.899 270.543 116.926C270.572 116.954 270.611 116.968 270.651 116.967L270.645 116.967Z" fill="#2A2D3D"/>
<path d="M282.14 139.844C282.709 140.307 283.429 140.544 284.162 140.509C284.202 140.507 284.24 140.49 284.267 140.461C284.295 140.432 284.31 140.393 284.308 140.353C284.307 140.313 284.29 140.274 284.261 140.247C284.232 140.219 284.193 140.205 284.152 140.206C283.499 140.241 282.856 140.033 282.346 139.623C282.196 139.506 281.985 139.721 282.14 139.844Z" fill="#2A2D3D"/>
<path d="M286.8 99.5272L288.079 99.4877C288.12 99.4865 288.158 99.4694 288.185 99.4401C288.213 99.4108 288.227 99.3718 288.226 99.3317C288.225 99.2915 288.208 99.2535 288.179 99.226C288.149 99.1985 288.11 99.1837 288.07 99.1849L286.791 99.2244C286.751 99.2256 286.713 99.2428 286.685 99.272C286.658 99.3013 286.643 99.3403 286.644 99.3805C286.646 99.4206 286.663 99.4586 286.692 99.4862C286.721 99.5137 286.76 99.5284 286.8 99.5272Z" fill="#F0F5FF"/>
<path d="M286.816 100.026L288.095 99.9869C288.135 99.9857 288.173 99.9686 288.201 99.9393C288.228 99.91 288.243 99.871 288.242 99.8309C288.241 99.7907 288.223 99.7527 288.194 99.7252C288.165 99.6977 288.126 99.6829 288.086 99.6841L286.807 99.7236C286.767 99.7248 286.729 99.742 286.701 99.7712C286.673 99.8005 286.659 99.8395 286.66 99.8797C286.661 99.9198 286.678 99.9578 286.708 99.9854C286.737 100.013 286.776 100.028 286.816 100.026Z" fill="#F0F5FF"/>
<path d="M286.832 100.526L288.111 100.487C288.151 100.485 288.189 100.468 288.216 100.439C288.244 100.41 288.259 100.371 288.257 100.331C288.256 100.29 288.239 100.252 288.21 100.225C288.181 100.197 288.142 100.183 288.101 100.184L286.822 100.223C286.782 100.225 286.744 100.242 286.717 100.271C286.689 100.3 286.674 100.339 286.676 100.379C286.677 100.42 286.694 100.458 286.723 100.485C286.752 100.513 286.791 100.527 286.832 100.526Z" fill="#F0F5FF"/>
<path d="M286.386 113.613C286.053 114.172 285.955 114.98 286.562 115.4C287.071 115.748 287.735 115.578 288.217 115.267C288.8 114.886 289.356 114.275 289.412 113.553C289.429 113.4 289.413 113.244 289.368 113.097C289.322 112.949 289.246 112.812 289.146 112.695C289.045 112.578 288.922 112.482 288.783 112.414C288.644 112.346 288.493 112.307 288.339 112.3C287.488 112.237 286.809 112.953 286.386 113.613C286.279 113.777 286.547 113.921 286.652 113.757C287.009 113.205 287.598 112.541 288.327 112.603C289.216 112.679 289.242 113.629 288.853 114.232C288.523 114.742 287.915 115.26 287.283 115.29C287.125 115.308 286.965 115.277 286.825 115.201C286.685 115.126 286.571 115.009 286.498 114.867C286.322 114.498 286.455 114.088 286.652 113.757C286.751 113.59 286.485 113.446 286.386 113.613Z" fill="#2A2D3D"/>
<path d="M286.223 118.624C285.711 119.245 285.567 120.3 286.47 120.648C287.26 120.953 288.184 120.45 288.724 119.885C289.306 119.279 289.534 118.176 288.631 117.734C287.728 117.291 286.797 117.977 286.223 118.624C286.093 118.769 286.314 118.977 286.443 118.831C286.883 118.333 287.569 117.754 288.287 117.926C289.193 118.148 289.009 119.146 288.503 119.674C288.097 120.099 287.454 120.489 286.845 120.425C286.697 120.418 286.554 120.37 286.432 120.286C286.31 120.202 286.214 120.086 286.155 119.95C285.996 119.554 286.19 119.135 286.443 118.828C286.564 118.681 286.347 118.473 286.223 118.624Z" fill="#2A2D3D"/>
<path d="M289.187 121.226C288.681 121.755 288.49 122.702 289.278 123.08C289.981 123.422 290.863 123.011 291.393 122.53C291.952 122.028 292.213 121.077 291.468 120.602C290.687 120.104 289.762 120.673 289.185 121.222C289.045 121.358 289.266 121.564 289.406 121.429C289.828 121.026 290.459 120.575 291.081 120.754C291.894 120.991 291.66 121.889 291.172 122.327C290.778 122.676 290.169 122.99 289.627 122.879C289.502 122.86 289.385 122.808 289.286 122.73C289.188 122.651 289.112 122.547 289.067 122.429C288.942 122.061 289.165 121.692 289.408 121.434C289.544 121.291 289.323 121.085 289.187 121.226Z" fill="#2A2D3D"/>
</g>
<g clip-path="url(#clip3_127_48400)">
<path d="M126.378 104.823C125.02 107.237 125.591 113.299 124.988 115.864C119.966 124.001 115.73 129.819 115.878 139.438C115.954 144.377 117.744 149.466 114.564 153.768C111.779 157.52 108.156 160.302 106.133 164.622C104.395 168.342 110.3 170.707 112.031 167.008C112.937 165.077 114.311 163.477 115.762 161.929C116.561 162.828 117.818 163.291 119.254 162.671C124.239 160.513 129.6 157.488 133.055 153.182C136.221 149.236 136.543 144.077 135.279 139.341C133.792 133.758 130.184 128.944 129.234 123.206C128.772 120.415 128.829 117.563 129.402 114.792C129.65 114.413 129.897 114.033 130.156 113.658C130.456 113.258 130.651 112.788 130.723 112.293C130.795 111.798 130.742 111.293 130.568 110.823C131.048 109.579 131.618 108.37 132.273 107.208C134.283 103.644 128.359 101.301 126.378 104.823Z" fill="#4A2521"/>
<path d="M163.686 122.375C161.724 120.46 159.383 119.3 158.577 116.55C157.848 114.06 156.779 110.868 155.492 108.536C153.128 104.245 149.813 101.25 145.26 99.631C143.572 99.0326 142.565 100.851 142.037 102.108C141.63 102.62 141.415 103.314 141.516 104.19C142.247 110.742 142.53 117.337 142.362 123.928C142.243 129.491 142.192 135.249 144.508 140.43C146.347 144.552 149.471 148.176 153.794 149.771C158.223 151.408 162.675 150.4 166.878 148.739C167.482 151.975 172.641 152.926 173.024 149.229C174.042 139.322 170.878 129.42 163.686 122.375Z" fill="#3F2524"/>
<path d="M157.552 124.71C162.698 129.171 166.338 135.115 167.971 141.727C168.064 142.101 168.636 141.924 168.543 141.55C167.238 136.338 164.71 131.512 161.169 127.471C160.172 126.336 159.098 125.271 157.956 124.282C157.666 124.03 157.254 124.467 157.546 124.719L157.552 124.71Z" fill="#FFB687"/>
<path d="M151.967 129.014C156.854 133.756 160.159 139.891 161.428 146.582C161.5 146.96 162.073 146.781 162.001 146.405C160.699 139.615 157.339 133.391 152.377 128.578C152.099 128.309 151.69 128.746 151.967 129.014Z" fill="#FFB687"/>
<path d="M188.203 228.186L188.702 236.495C188.702 236.495 200.894 265.164 203.632 299.478C203.632 299.478 165.798 315.228 117.054 301.388C117.054 301.388 116.099 270.447 129.567 244.028L129.337 237.898L188.203 228.186Z" fill="#A2AFDE"/>
<path d="M146.399 235.148C146.698 237.975 146.903 240.811 147.103 243.646C147.13 244.029 147.728 244.012 147.703 243.627C147.503 240.793 147.296 237.956 146.998 235.13C146.958 234.748 146.36 234.763 146.399 235.148Z" fill="#361F1F"/>
<path d="M149.335 235.176C149.626 237.935 149.828 240.711 150.024 243.484C150.051 243.867 150.649 243.85 150.622 243.465C150.427 240.693 150.226 237.922 149.935 235.157C149.894 234.776 149.295 234.791 149.335 235.176Z" fill="#361F1F"/>
<path d="M178.228 230.73C178.526 233.557 178.731 236.391 178.931 239.228C178.958 239.611 179.557 239.594 179.531 239.209C179.331 236.373 179.124 233.538 178.826 230.712C178.786 230.33 178.188 230.345 178.228 230.73Z" fill="#361F1F"/>
<path d="M181.144 230.121C181.435 232.881 181.636 235.657 181.833 238.429C181.86 238.812 182.458 238.796 182.431 238.411C182.236 235.638 182.035 232.866 181.743 230.103C181.702 229.722 181.104 229.737 181.144 230.121Z" fill="#361F1F"/>
<path d="M129.862 244.335C137.594 244.417 145.333 244.193 153.041 243.561C160.807 242.925 168.561 241.871 176.192 240.222C180.36 239.324 184.478 238.211 188.531 236.886C188.896 236.764 188.72 236.188 188.354 236.314C181.063 238.717 173.526 240.351 165.948 241.486C158.237 242.612 150.47 243.309 142.682 243.574C138.408 243.732 134.131 243.786 129.851 243.737C129.465 243.733 129.485 244.331 129.869 244.335L129.862 244.335Z" fill="#361F1F"/>
<path d="M120.199 273.935C124.893 271.513 129.05 268.169 132.421 264.102C135.318 260.587 137.61 256.488 138.274 251.935C138.68 249.302 138.819 246.634 138.688 243.973C138.664 243.59 138.066 243.607 138.088 243.992C138.203 246.319 138.107 248.651 137.803 250.961C137.576 253.011 137.048 255.016 136.237 256.911C134.249 261.45 130.929 265.368 127.17 268.55C124.933 270.446 122.487 272.082 119.881 273.427C119.54 273.611 119.859 274.112 120.199 273.937L120.199 273.935Z" fill="#361F1F"/>
<path d="M164.243 229.632C164.611 233.699 164.98 237.766 165.35 241.832C165.384 242.215 165.982 242.199 165.948 241.814C165.578 237.747 165.209 233.68 164.841 229.614C164.807 229.232 164.207 229.247 164.243 229.632Z" fill="#361F1F"/>
<path d="M165.363 241.919C166.136 245.795 166.874 249.678 167.575 253.569C168.349 257.813 169.093 262.058 169.809 266.304C170.551 270.678 171.27 275.055 171.965 279.435C172.648 283.721 173.31 288.011 173.951 292.304C174.541 296.271 175.113 300.24 175.666 304.21C175.73 304.67 175.793 305.129 175.856 305.589C175.909 305.966 176.507 305.951 176.455 305.57C175.916 301.634 175.354 297.701 174.769 293.77C174.138 289.505 173.488 285.241 172.818 280.98C172.123 276.588 171.41 272.199 170.681 267.813C169.963 263.533 169.22 259.256 168.451 254.982C167.737 251.016 166.993 247.056 166.219 243.1L165.948 241.724C165.873 241.348 165.3 241.526 165.376 241.901L165.363 241.919Z" fill="#361F1F"/>
<path d="M170.746 241.147C171.957 245.625 173.028 250.139 173.96 254.689C174.432 257.005 174.914 259.331 175.224 261.676C175.517 263.887 175.573 266.207 174.724 268.311C174.329 269.335 173.7 270.251 172.888 270.989C172.304 271.488 171.669 271.923 170.992 272.287C170.652 272.47 170.974 272.979 171.309 272.796C171.886 272.481 172.436 272.116 172.952 271.707C173.717 271.097 174.354 270.342 174.828 269.486C175.885 267.566 176.125 265.33 175.978 263.174C175.815 260.756 175.295 258.369 174.831 256.004C174.367 253.64 173.85 251.242 173.301 248.873C172.686 246.225 172.028 243.59 171.327 240.966C171.225 240.594 170.653 240.771 170.754 241.143L170.746 241.147Z" fill="#361F1F"/>
<path d="M264.669 141.176C258.101 155.975 252.607 168.737 246.214 183.997C235.923 174.768 225.051 166.215 214.07 157.825C202.453 148.946 191.029 138.984 175.454 139.963C167.511 140.461 159.896 143.056 152.477 145.743C144.557 148.614 136.64 151.496 128.727 154.389C122.146 156.784 115.221 158.892 109.21 162.569C103.198 166.246 99.2044 171.619 95.9902 177.807C87.9469 193.298 80.2688 209.581 72.5334 225.238C66.7168 216.166 60.9751 206.944 55.276 197.362C47.1078 204.209 45.9126 204.447 36.5761 208.979C38.7676 215.575 41.1092 221.989 41.1092 221.989C41.1092 221.989 38.6906 227.715 41.0045 236.201C43.4317 245.108 47.5839 256.312 51.7109 265.689C55.3151 273.883 60.6307 280.903 69.8182 283.146C73.5821 284.068 77.5888 284.219 81.3117 283.137C96.9502 278.62 104.349 258.175 110.105 244.876C112.69 238.913 115.039 231.593 117.343 225.527C121.758 231.403 124.827 234.431 129.339 237.891C154.704 238.255 174.235 234.127 188.213 228.179C193.19 219.97 196.537 211.522 197.896 199.924C200.881 202.932 203.961 205.851 207.162 208.647C219.018 219.029 232.615 229.617 248.4 232.982C255.018 234.39 262.364 234.041 268.382 230.715C274.582 227.288 278.36 220.643 280.79 214.215C283.964 205.812 289.401 175.732 290.275 169.613C291.33 162.208 286.798 156.866 286.798 156.866C287.427 153.457 287.642 151.809 288.811 144.219C278.292 144.233 275.18 143.919 264.669 141.176Z" fill="#FFD971"/>
<path d="M130.541 131.374L130.673 154.157C130.673 154.157 147.136 154.997 152.493 145.738L152.112 133.411L130.541 131.374Z" fill="#FFB687"/>
<path d="M121.831 111.639C122.566 104.535 128.018 99.0494 135.489 98.1112C137.43 97.8638 139.395 97.8771 141.332 98.1506C146.599 98.9034 150.748 102.148 153.313 106.75C155.145 110.059 155.736 113.077 156.496 115.551C157.979 120.384 158.664 122.772 159.655 127.248C160.787 132.374 160.123 137.667 153.674 139.383C147.108 141.133 140.272 138.991 134.879 135.119C127.656 129.943 120.856 121.111 121.831 111.639Z" fill="#FFB687"/>
<path d="M147.89 112.982C148.366 114.799 146.248 114.562 144.732 116.171C143.338 117.652 142.099 118.211 141.512 117.355C140.805 116.32 141.602 114.093 144.002 112.588C146.256 111.179 147.542 111.657 147.89 112.982Z" fill="#4A2521"/>
<path d="M149.14 112.27C149.786 114.034 151.39 112.629 153.553 113.087C155.542 113.507 156.879 113.259 156.873 112.221C156.865 110.967 154.944 109.589 152.109 109.726C149.453 109.86 148.67 110.987 149.14 112.27Z" fill="#4A2521"/>
<path d="M143.582 105.034C143.582 105.034 146.018 112.366 137.48 119.852L136.647 126.902C136.647 126.902 142.071 138.838 130.214 146.5C119.776 153.243 122.36 120.081 122.36 120.081C122.36 120.081 115.418 101.554 132.955 98.0867C147.147 95.2801 155.245 104.621 154.473 109.164C154.473 109.164 150.177 105.739 143.582 105.034Z" fill="#4A2521"/>
<path d="M138.74 101.344C140.217 106.931 138.573 112.769 136.241 117.881C135.551 119.387 134.776 120.868 133.975 122.304C133.786 122.642 134.312 122.927 134.503 122.591C137.354 117.504 139.88 111.822 139.906 105.887C139.919 104.29 139.719 102.698 139.312 101.154C139.214 100.781 138.642 100.958 138.74 101.331L138.74 101.344Z" fill="#FFB687"/>
<path d="M153.944 115.503C155.251 114.8 156.106 116.765 156.282 117.645C156.398 118.219 156.395 118.97 155.799 119.278C154.929 119.728 154.236 118.591 153.928 117.951C153.584 117.232 153.088 115.955 153.944 115.503Z" fill="#261515"/>
<path d="M146.042 117.839C147.349 117.137 148.204 119.101 148.38 119.983C148.495 120.556 148.494 121.307 147.898 121.616C147.027 122.065 146.335 120.929 146.026 120.289C145.673 119.568 145.179 118.298 146.042 117.839Z" fill="#261515"/>
<path d="M151.356 116.802C152.127 118.806 153.524 120.452 154.69 122.236C154.902 122.558 155.41 122.242 155.199 121.918C154.066 120.19 152.674 118.58 151.921 116.633C151.784 116.275 151.21 116.449 151.349 116.81L151.356 116.802Z" fill="#3F2524"/>
<path d="M152.297 123.571C152.848 123.487 153.386 123.336 153.899 123.12C154.395 122.909 154.896 122.669 155.207 122.215C155.245 122.145 155.253 122.063 155.231 121.987C155.208 121.911 155.157 121.847 155.087 121.808C155.017 121.773 154.936 121.765 154.86 121.787C154.785 121.81 154.72 121.86 154.681 121.928C154.454 122.26 153.989 122.443 153.632 122.589C153.197 122.769 152.743 122.899 152.279 122.976C152.2 122.981 152.126 123.016 152.073 123.073C152.019 123.13 151.989 123.206 151.989 123.285C151.992 123.364 152.026 123.439 152.084 123.493C152.141 123.547 152.218 123.577 152.297 123.575L152.297 123.571Z" fill="#3F2524"/>
<path d="M142.703 121.741C143.193 122.591 143.421 123.567 143.356 124.546C143.292 125.525 142.939 126.463 142.341 127.242C141.744 128.02 140.929 128.604 140 128.919C139.07 129.235 138.068 129.267 137.121 129.013C136.173 128.759 135.322 128.23 134.675 127.492C134.028 126.754 133.614 125.841 133.486 124.868C133.358 123.895 133.521 122.906 133.955 122.026C134.39 121.146 135.075 120.414 135.925 119.924C137.064 119.266 138.419 119.088 139.69 119.429C140.961 119.77 142.044 120.601 142.703 121.741Z" fill="#FFB687"/>
<path d="M137.242 126.688C136.867 126.422 136.553 126.077 136.323 125.678C136.092 125.279 135.951 124.835 135.908 124.376C135.831 123.287 136.473 122.456 137.412 121.968C137.752 121.785 137.433 121.275 137.093 121.459C135.995 122.026 135.24 123.073 135.305 124.338C135.341 124.885 135.496 125.418 135.76 125.9C136.024 126.381 136.39 126.798 136.832 127.123C137.14 127.347 137.554 126.912 137.242 126.687L137.242 126.688Z" fill="#3F2524"/>
<path d="M143.649 138.313C146.309 139.556 149.209 140.203 152.146 140.207C152.531 140.207 152.513 139.609 152.127 139.609C149.298 139.605 146.503 138.982 143.939 137.785C143.588 137.623 143.303 138.151 143.652 138.313L143.649 138.313Z" fill="#3F2524"/>
<path d="M260.476 151.488C266.992 153.87 273.736 155.712 280.625 156.597C282.543 156.844 284.468 157.012 286.4 157.098C286.787 157.114 286.767 156.516 286.382 156.499C279.497 156.192 272.69 154.788 266.115 152.762C264.267 152.192 262.435 151.573 260.619 150.906C260.257 150.773 260.114 151.357 260.476 151.488Z" fill="#3F2524"/>
<path d="M239.546 200.542C241.544 194.891 243.872 189.363 246.517 183.985C246.679 183.634 246.151 183.353 245.989 183.698C243.323 189.124 240.977 194.701 238.962 200.401C238.833 200.765 239.417 200.906 239.545 200.542L239.546 200.542Z" fill="#3F2524"/>
<path d="M72.648 225.069L79.978 237.485C80.1733 237.817 80.6809 237.5 80.4872 237.167L73.1573 224.752C72.96 224.412 72.4527 224.737 72.648 225.069Z" fill="#3F2524"/>
<path d="M41.2696 222.24C47.0787 219.518 52.5991 216.299 57.5705 212.221C58.998 211.046 60.3807 209.818 61.7275 208.553C62.0101 208.29 61.5718 207.881 61.2927 208.142C58.9864 210.33 56.5448 212.37 53.9824 214.251C51.4657 216.067 48.8304 217.712 46.094 219.176C44.4091 220.083 42.6878 220.932 40.9584 221.745C40.6174 221.908 40.9307 222.415 41.2769 222.254L41.2696 222.24Z" fill="#3F2524"/>
<path d="M129.267 155.227C129.267 155.227 128.896 147.362 130.209 146.5C131.276 145.801 149.765 140.587 152.924 141.237C154.27 141.513 153.6 148.853 153.6 148.853C153.6 148.853 143.59 159.451 129.267 155.227Z" fill="#FFD971"/>
<path d="M129.25 154.784C136.474 154.404 143.594 152.326 149.778 148.548C151.223 147.665 152.61 146.69 153.929 145.629C154.226 145.39 153.906 144.881 153.611 145.12C148.477 149.258 142.316 152.031 135.87 153.348C133.682 153.792 131.463 154.071 129.233 154.183C128.849 154.203 128.866 154.803 129.251 154.782L129.25 154.784Z" fill="#3F2524"/>
<path d="M148.926 125.8C149.531 128.577 152.877 129.484 154.782 126.18L148.926 125.8Z" fill="#3F2524"/>
<path d="M137.355 129.071C137.355 129.071 147.218 152.335 133.533 162.632C125.318 168.812 116.079 164.231 111.123 165.339C107.888 166.062 103.715 173.269 98.8838 172.856C98.8838 172.856 98.2163 166.475 104.714 160.445C111.212 154.415 115.885 155.804 116.151 143.252C116.418 130.7 122.56 137.851 122.704 138.707C122.848 139.562 137.355 129.071 137.355 129.071Z" fill="#4A2521"/>
<path d="M124.671 107.474C124.671 107.474 110.494 95.385 103.823 104.706C99.7225 110.433 104.628 116.157 109.925 116.909C113.898 117.479 119.181 114.975 124.707 111.223C137.609 102.468 124.671 107.474 124.671 107.474Z" fill="#4A2521"/>
<path d="M117.342 225.543C115.041 231.609 112.684 238.933 110.104 244.887C108.88 247.707 107.584 250.847 106.156 254.097C106.949 243.043 107.656 237.019 108.486 227.553C109.186 219.552 109.034 207.075 108.883 200.414C108.882 200.316 108.918 200.221 108.984 200.148C109.049 200.075 109.139 200.028 109.237 200.018C109.334 200.007 109.433 200.033 109.512 200.09C109.592 200.147 109.648 200.232 109.669 200.328C113.522 218.333 117.342 225.543 117.342 225.543Z" fill="#6E1E00"/>
<path d="M219.578 218.818C215.233 215.592 211.09 212.111 207.153 208.647C203.968 205.856 200.893 202.94 197.909 199.935C197.907 199.928 197.903 199.921 197.897 199.917C197.897 199.917 197.791 189.93 196.246 181.027C196.234 180.962 196.246 180.895 196.28 180.839C196.314 180.782 196.367 180.739 196.429 180.719C196.492 180.698 196.56 180.701 196.62 180.726C196.681 180.752 196.731 180.798 196.76 180.857C198.158 183.612 201.099 189.359 204.412 195.591C206.981 200.457 210.36 206.047 219.578 218.818Z" fill="#6E1E00"/>
<path d="M121.889 105.623C120.727 108.105 120.372 110.86 120.637 113.567C120.675 113.948 121.273 113.933 121.235 113.548C120.982 110.942 121.298 108.297 122.415 105.909C122.577 105.558 122.049 105.273 121.887 105.623L121.889 105.623Z" fill="#FFB687"/>
<path d="M104.092 113.213C107.397 110.516 112.297 110.303 115.983 112.345C117.028 112.923 117.957 113.689 118.724 114.605C118.97 114.9 119.379 114.46 119.133 114.168C116.259 110.744 111.219 109.568 107.031 110.939C105.845 111.322 104.741 111.921 103.774 112.706C103.478 112.945 103.797 113.456 104.092 113.215L104.092 113.213Z" fill="#FFB687"/>
<path d="M103.404 106.75C108.061 104.371 114.053 105.442 117.92 108.852C119.01 109.809 119.915 110.957 120.59 112.241C120.774 112.581 121.283 112.263 121.099 111.922C118.557 107.083 112.81 104.366 107.446 104.949C105.925 105.114 104.448 105.555 103.086 106.251C102.745 106.435 103.062 106.934 103.404 106.76L103.404 106.75Z" fill="#FFB687"/>
<path d="M131.593 98.9697C133.933 99.0342 136.197 99.8658 138.23 100.987C140.166 102.036 141.924 103.383 143.44 104.978C143.703 105.261 144.112 104.823 143.851 104.542C142.269 102.88 140.432 101.482 138.41 100.4C136.31 99.2533 133.982 98.4358 131.577 98.3699C131.19 98.3593 131.211 98.9573 131.595 98.9679L131.593 98.9697Z" fill="#FFB687"/>
<path d="M134.53 99.2977C135.285 101.351 135.254 103.656 134.924 105.795C134.569 108.093 133.724 110.199 132.712 112.282C131.647 114.476 130.528 116.635 129.818 118.979C128.451 123.548 128.352 128.402 129.53 133.023C130.122 135.369 131.134 137.549 132.16 139.728C133.185 141.908 134.235 144.147 134.619 146.551C134.892 148.399 134.895 150.276 134.629 152.125C134.112 156.079 132.687 160.087 130.15 163.204C129.837 163.59 129.502 163.961 129.146 164.318C128.876 164.594 129.313 165.005 129.583 164.728C132.435 161.828 134.132 157.902 134.924 153.957C135.313 152.083 135.468 150.168 135.387 148.256C135.274 146.01 134.637 143.877 133.752 141.812C132.784 139.56 131.6 137.399 130.776 135.087C129.953 132.779 129.47 130.364 129.343 127.916C129.208 125.469 129.424 123.016 129.984 120.63C130.557 118.2 131.554 115.956 132.658 113.727C133.697 111.618 134.739 109.51 135.255 107.203C135.732 105.067 135.901 102.801 135.502 100.64C135.407 100.123 135.269 99.6151 135.09 99.1213C134.96 98.7619 134.392 98.9352 134.518 99.2998L134.53 99.2977Z" fill="#FFB687"/>
<path d="M115.446 165.24C121.523 163.175 126.682 157.824 127.394 151.286C127.781 147.732 126.874 144.208 125.689 140.89C125.077 139.164 124.316 137.485 123.757 135.741C123.203 133.985 122.889 132.162 122.825 130.322C122.652 126.14 123.554 121.994 124.786 118.016C124.899 117.648 124.317 117.512 124.204 117.875C123.14 121.306 122.343 124.853 122.22 128.451C122.154 130.23 122.291 132.011 122.628 133.759C122.981 135.552 123.66 137.213 124.315 138.911C125.58 142.194 126.784 145.607 126.88 149.16C126.958 152.562 125.862 155.888 123.778 158.578C121.6 161.401 118.639 163.519 115.264 164.67C114.901 164.793 115.075 165.367 115.441 165.24L115.446 165.24Z" fill="#FFB687"/>
<path d="M130.997 98.767C131.908 104.845 129.63 111.217 125.859 115.954C124.8 117.295 123.592 118.511 122.258 119.578C121.959 119.815 122.281 120.325 122.577 120.087C127.474 116.199 130.863 110.175 131.633 103.964C131.858 102.232 131.845 100.478 131.595 98.7503C131.539 98.3731 130.94 98.3881 130.997 98.7687L130.997 98.767Z" fill="#FFB687"/>
<path d="M109.734 165.965C110.704 164.781 111.764 163.672 112.77 162.52C114.009 161.132 115.15 159.659 116.184 158.112C118.541 154.516 119.94 150.343 119.507 146.012C119.192 142.874 118.017 139.905 116.432 137.2C116.238 136.86 115.739 137.185 115.922 137.518C117.334 139.926 118.429 142.561 118.823 145.339C119.131 147.515 118.997 149.731 118.429 151.854C117.42 155.613 115.148 158.848 112.637 161.76C111.536 163.036 110.365 164.252 109.294 165.555C109.051 165.851 109.489 166.264 109.731 165.965L109.734 165.965Z" fill="#FFB687"/>
<path d="M137.467 128.748C136.949 128.764 133.952 135.645 137.604 135.533C141.815 135.403 138.319 128.711 137.467 128.748Z" fill="white"/>
</g>
<defs>
<linearGradient id="paint0_linear_127_48400" x1="20.2651" y1="166.293" x2="41.8319" y2="158.599" gradientUnits="userSpaceOnUse">
<stop stop-color="#FFD971"/>
<stop offset="1" stop-color="#FFD971"/>
</linearGradient>
<clipPath id="clip0_127_48400">
<rect width="306.602" height="305.585" fill="white" transform="translate(3.13965 0.542908)"/>
</clipPath>
<clipPath id="clip1_127_48400">
<rect width="49.3976" height="30.256" fill="white" transform="translate(22.2568 182.828) rotate(-109.634)"/>
</clipPath>
<clipPath id="clip2_127_48400">
<rect width="29.1426" height="52.9703" fill="white" transform="translate(265.519 96.4431) rotate(-1.76736)"/>
</clipPath>
<clipPath id="clip3_127_48400">
<rect width="304.555" height="210.104" fill="white" transform="translate(8.16016 101.567) rotate(-1.76736)"/>
</clipPath>
</defs>
</svg>
