<svg width="305" height="328" viewBox="0 0 305 328" fill="none" xmlns="http://www.w3.org/2000/svg">
<mask id="mask0_127_48547" style="mask-type:alpha" maskUnits="userSpaceOnUse" x="0" y="0" width="305" height="305">
<ellipse cx="152.335" cy="152.422" rx="151.709" ry="151.698" fill="#D9D9D9"/>
</mask>
<g mask="url(#mask0_127_48547)">
<path d="M357.365 -54.4557H-60.4893L-47.827 378.406L346.285 364.953L357.365 -54.4557Z" fill="#C7E6F7"/>
<path d="M159.586 19.5769C159.421 19.336 159.242 19.1047 159.051 18.8841C158.428 18.1632 157.693 17.5482 156.873 17.0632C156.747 16.9868 156.617 16.9105 156.491 16.8417C155.354 16.2471 154.13 15.8343 152.865 15.6183C152.483 15.5419 152.088 15.4847 151.692 15.4427C150.521 15.3149 149.341 15.2849 148.165 15.353C146.93 15.4198 145.693 15.5572 144.462 15.6946C144.069 13.261 142.29 11.4668 140.115 10.4266C137.634 9.24697 134.95 9.06373 132.268 9.41684C128.561 9.89784 124.934 11.1843 121.164 11.1041C120.147 11.0812 119.126 10.9305 118.372 10.1937C117.811 9.64207 117.446 8.93012 116.992 8.29833C116.167 7.19258 115.072 6.31767 113.811 5.75783C111.118 4.52289 108.018 4.48472 105.126 4.82829C101.782 5.22946 98.5372 6.22764 95.5458 7.77535C92.6233 9.28705 90.1418 11.3408 87.7634 13.5855L86.8491 14.4425C86.7956 14.3776 86.7384 14.3165 86.6811 14.2516C85.2781 12.7915 83.0543 12.78 81.218 13.2457C77.2304 14.2516 73.6724 17.0632 71.4543 20.4874C70.5667 21.854 69.2038 23.9689 69.7134 25.6829C70.3013 27.6699 73.2295 27.2252 74.7795 27.2366C80.1357 27.2672 85.4804 26.9541 90.8138 26.5208C101.526 25.6524 112.216 24.2876 122.976 24.2075C128.326 24.1571 133.673 24.5061 138.972 25.2516C142.244 25.7173 145.525 26.2651 148.827 26.517C150.083 26.6163 151.341 26.6735 152.599 26.6621C153.457 26.6621 154.316 26.6265 155.178 26.5552L155.932 26.4941C156.869 26.4101 157.89 26.2727 158.763 25.9005C159.327 25.6755 159.823 25.3078 160.202 24.8335C160.265 24.7516 160.324 24.6662 160.378 24.5778C160.427 24.501 160.47 24.4206 160.508 24.3373C161.235 22.8294 160.477 20.8634 159.586 19.5769Z" fill="#F8FCFE"/>
<path d="M46.8817 137.725C46.8817 139.381 46.4064 141.046 45.9597 142.622C45.4863 144.302 44.936 145.956 44.3086 147.585C43.0315 150.864 41.5656 154.065 39.9182 157.174C36.3983 163.922 32.5329 170.499 28.8469 177.161C24.9682 184.166 21.1327 191.192 17.3404 198.24C10.7855 210.407 4.35904 222.64 -1.93887 234.939C-2.24353 234.519 -2.69167 234.224 -3.19871 234.111C-3.97243 226.568 -4.86322 219.039 -5.87109 211.525C-5.86826 211.511 -5.86826 211.496 -5.87109 211.481C-5.85773 211.174 -5.84436 210.865 -5.83482 210.559C-5.61721 205.156 -5.56186 199.712 -6.75488 194.452C-3.50969 183.142 1.5232 172.423 8.15318 162.702C15.1898 152.325 23.9597 143.237 34.0791 135.835C36.3697 134.172 39.0077 132.399 41.9473 132.632C42.1111 132.642 42.2742 132.661 42.436 132.688C45.074 133.094 46.8664 135.029 46.8817 137.725Z" fill="#ABEF82"/>
<path d="M94.8009 175.782C94.0373 178.277 93.0238 180.709 91.993 183.102C89.9159 187.837 87.5772 192.453 84.9875 196.929C79.492 206.526 73.2882 215.735 67.1131 224.907C60.7147 234.412 54.1826 243.826 47.6429 253.236C34.3879 272.323 15.8588 292.086 2.40333 311.036C2.38467 311.062 2.3604 311.084 2.33229 311.1C2.30418 311.115 2.27292 311.125 2.24078 311.127C2.20864 311.129 2.17641 311.124 2.14642 311.112C2.11644 311.1 2.08944 311.082 2.06738 311.059C2.00439 311.146 1.93567 311.236 1.87649 311.33C1.85116 311.364 1.81639 311.391 1.77639 311.406C1.73638 311.421 1.69286 311.424 1.65107 311.415C1.60928 311.406 1.57102 311.385 1.5409 311.355C1.51079 311.324 1.49011 311.286 1.48136 311.244C0.420047 302.907 1.88031 293.743 0.935435 285.392C0.908711 285.152 0.880078 284.907 0.857172 284.667C-0.00753391 277.021 1.88795 269.441 1.1225 261.787C1.07096 260.312 0.967885 258.848 0.782727 257.397C0.902984 257.302 1.10723 257.321 1.12632 257.515C1.17213 257.993 1.22176 258.47 1.2733 258.953C9.70657 240.091 19.2164 221.509 31.9293 205.127C43.7641 189.857 58.4622 176.464 75.932 167.951C79.5435 166.189 83.3765 164.305 87.4576 164.068C88.5614 163.998 89.6692 164.113 90.735 164.408C90.8801 164.448 91.0271 164.496 91.176 164.548C93.1898 165.244 94.8028 166.706 95.3926 169.065C95.9309 171.293 95.4537 173.654 94.8009 175.782Z" fill="#ABEF82"/>
<path d="M75.9035 262.669C74.8365 265.935 73.2445 269.035 71.7518 272.123C65.5861 284.89 58.671 297.282 51.0428 309.234C49.2695 312.015 47.5859 315.059 45.1979 317.365C42.8099 319.671 39.4714 320.849 36.4172 322.059C33.8441 323.077 31.2398 324.014 28.6043 324.87C28.3963 324.937 28.1901 325.002 27.9839 325.061C25.5279 325.85 23.0496 326.566 20.549 327.208C20.0355 326.487 19.1231 326.008 18.2584 326.254C17.6326 326.429 16.9945 326.557 16.3495 326.636C15.7797 326.576 15.2036 326.629 14.6545 326.792C14.5708 326.409 14.5267 326.017 14.5228 325.624C14.4993 325.599 14.4843 325.567 14.4799 325.533C14.4755 325.499 14.4818 325.464 14.498 325.433C14.5075 325.409 14.5184 325.384 14.5304 325.361C14.5685 324.262 14.9057 323.195 15.5058 322.274C15.5294 322.242 15.5617 322.216 15.599 322.201C15.6363 322.186 15.6772 322.181 15.7169 322.188C15.7567 322.195 15.7938 322.212 15.8239 322.239C15.8541 322.266 15.8762 322.301 15.8876 322.339C16.1434 321.778 16.3992 321.215 16.6511 320.658C22.4827 307.999 28.7666 295.463 36.8143 284.047C44.148 273.652 53.007 264.167 63.6297 257.078C66.1532 255.395 68.8485 253.54 71.6831 252.417C72.6222 252.036 73.6416 251.858 74.5234 252.036C74.6762 252.066 74.8258 252.111 74.9701 252.169C75.6668 252.427 76.2395 252.975 76.5526 253.919C77.4802 256.681 76.7797 259.991 75.9035 262.669Z" fill="#A1B579"/>
<path d="M91.1668 164.569C84.9497 173.187 78.5551 181.671 72.1013 190.109C64.4201 200.157 56.6511 210.136 48.97 220.183C41.2888 230.231 33.663 240.396 26.3368 250.742C19.0832 260.991 12.0968 271.442 5.59915 282.193C4.93869 283.283 4.28395 284.383 3.63877 285.478C3.61013 285.238 3.5815 284.994 3.55859 284.751C4.81843 282.627 6.09672 280.515 7.39346 278.414C14.0305 267.67 21.1371 257.227 28.4938 246.961C35.8887 236.653 43.5374 226.537 51.2606 216.474C58.9838 206.412 66.8024 196.357 74.5007 186.24C79.9887 179.025 85.4193 171.774 90.7259 164.424C90.871 164.47 91.018 164.517 91.1668 164.569Z" fill="#768751"/>
<path d="M74.9819 252.169C71.4454 257.155 67.9605 262.181 64.5271 267.248C53.5386 283.461 43.0896 300.027 33.1801 316.946C31.6352 319.58 30.1081 322.222 28.5989 324.873C28.3908 324.939 28.1847 325.004 27.9785 325.063C34.97 312.821 42.249 300.75 49.8157 288.851C57.7476 276.381 65.9868 264.109 74.5333 252.036C74.6867 252.066 74.8369 252.111 74.9819 252.169Z" fill="#768751"/>
<path d="M42.4358 132.687C37.9729 139.479 33.5349 146.286 29.1216 153.111C18.1687 170.098 7.5059 187.311 -2.30746 204.999C-3.51003 207.162 -4.70051 209.338 -5.87891 211.525C-5.87608 211.51 -5.87608 211.496 -5.87891 211.481C-5.86554 211.174 -5.85218 210.865 -5.84264 210.559C0.54435 198.725 7.34556 187.128 14.3777 175.67C23.2939 161.154 32.59 146.869 41.951 132.63C42.1135 132.641 42.2753 132.66 42.4358 132.687Z" fill="#768751"/>
<path d="M254.272 251.379C253.8 253.394 253.438 255.433 253.188 257.487C252.663 261.548 252.365 265.635 252.294 269.729C252.104 278.481 252.548 287.257 252.989 295.997C253.446 305.054 254.032 314.103 254.619 323.153C255.812 341.507 260.306 362.472 261.682 380.811C261.684 380.836 261.692 380.861 261.705 380.883C261.717 380.905 261.735 380.923 261.755 380.938C261.776 380.953 261.8 380.962 261.825 380.967C261.85 380.971 261.875 380.97 261.9 380.964C261.9 381.05 261.917 381.137 261.925 381.227C261.927 381.261 261.94 381.293 261.961 381.32C261.982 381.347 262.01 381.367 262.042 381.378C262.074 381.39 262.109 381.391 262.142 381.383C262.175 381.375 262.205 381.357 262.228 381.332C266.353 376.112 269.1 369.307 273.154 364.028C273.271 363.875 273.389 363.72 273.504 363.566C277.212 358.735 279.022 352.824 282.666 347.945C283.302 346.968 283.97 346.017 284.686 345.11C284.678 345.081 284.663 345.055 284.642 345.034C284.62 345.014 284.593 344.999 284.564 344.993C284.535 344.987 284.505 344.988 284.477 344.998C284.448 345.008 284.424 345.026 284.405 345.049C284.178 345.357 283.949 345.658 283.718 345.966C285.703 329.741 286.837 313.25 284.909 296.961C283.113 281.777 278.61 266.691 270.255 253.79C268.525 251.118 266.699 248.279 264.026 246.451C263.306 245.953 262.508 245.579 261.665 245.344C261.55 245.311 261.43 245.283 261.308 245.258C259.661 244.909 257.966 245.239 256.605 246.594C255.341 247.875 254.702 249.669 254.272 251.379Z" fill="#ABEF82"/>
<path d="M230.545 294.6C229.934 297.251 229.749 300.002 229.499 302.705C228.465 313.878 228.093 325.103 228.384 336.321C228.453 338.93 228.351 341.682 229.027 344.221C229.703 346.76 231.486 348.92 233.066 350.989C234.395 352.733 235.778 354.432 237.216 356.088C237.329 356.215 237.443 356.345 237.558 356.469C238.902 358.005 240.29 359.502 241.723 360.96C242.364 360.68 243.179 360.728 243.666 361.247C244.021 361.619 244.404 361.965 244.811 362.279C245.221 362.472 245.59 362.743 245.896 363.077C246.112 362.852 246.303 362.605 246.468 362.341C246.495 362.333 246.519 362.316 246.537 362.294C246.554 362.272 246.564 362.245 246.566 362.216C246.568 362.196 246.568 362.176 246.566 362.155C246.981 361.396 247.184 360.539 247.152 359.674C247.15 359.642 247.138 359.611 247.119 359.585C247.1 359.559 247.074 359.539 247.044 359.527C247.014 359.515 246.981 359.512 246.95 359.518C246.918 359.524 246.889 359.539 246.865 359.561C246.923 359.077 246.979 358.592 247.033 358.109C248.247 347.145 249.108 336.077 248.31 325.054C247.585 315.01 245.447 304.963 241.143 295.82C240.119 293.648 239.043 291.29 237.586 289.372C237.102 288.735 236.487 288.193 235.815 287.952C235.699 287.911 235.58 287.881 235.458 287.862C234.885 287.752 234.269 287.889 233.67 288.403C231.919 289.897 231.043 292.426 230.545 294.6Z" fill="#A1B579"/>
<path d="M261.315 245.26C262.014 253.641 262.884 262.005 263.814 270.361C264.919 280.309 266.105 290.248 267.218 300.194C268.33 310.141 269.342 320.15 270.081 330.161C270.818 340.073 271.285 350.012 271.299 359.952C271.299 360.962 271.299 361.974 271.287 362.98C271.404 362.829 271.524 362.674 271.638 362.52C271.652 360.565 271.648 358.611 271.625 356.656C271.512 346.662 270.965 336.676 270.163 326.716C269.359 316.707 268.306 306.724 267.176 296.749C266.046 286.774 264.853 276.767 263.763 266.765C262.988 259.634 262.268 252.499 261.663 245.349C261.556 245.313 261.438 245.284 261.315 245.26Z" fill="#768751"/>
<path d="M235.456 287.859C235.819 292.681 236.129 297.511 236.388 302.348C237.217 317.827 237.535 333.325 237.342 348.842C237.313 351.26 237.269 353.677 237.21 356.095C237.323 356.223 237.437 356.353 237.552 356.477C237.806 345.32 237.8 334.163 237.533 323.008C237.25 311.311 236.678 299.626 235.815 287.954C235.699 287.911 235.578 287.879 235.456 287.859Z" fill="#768751"/>
<path d="M231.176 86.7033C229.285 81.872 228.385 76.6356 225.929 72.0244C223.143 66.798 218.216 63.6572 212.464 62.5569C205.807 61.2966 198.71 61.9367 193.008 65.6427C189.272 68.0684 186.571 71.8494 184.73 75.8504C182.795 80.0565 181.984 84.6078 179.894 88.7639C177.803 92.92 175.987 97.4362 175.702 102.102C175.507 105.333 175.857 109.329 177.963 111.94C179.899 114.351 182.9 114.681 185.766 115.021C189.852 115.521 192.463 118.812 197.134 118.687C203.326 118.517 208.138 119.687 213.555 118.052C216.421 117.181 219.687 115.801 222.703 116.666C226.339 117.712 228.145 116.876 232.006 115.246C235.562 113.745 237.238 109.799 237.508 106.344C237.893 101.342 235.802 96.676 233.636 92.2348C232.746 90.4043 231.911 88.5688 231.176 86.7033Z" fill="#4A2521"/>
<path d="M246.186 131.17C246.178 131.104 246.16 131.04 246.131 130.98C244.95 128.609 243.36 126.154 241.279 124.478C240.824 124.099 240.295 123.819 239.726 123.657C239.156 123.495 238.559 123.455 237.973 123.538C237.578 123.185 237.142 122.883 236.672 122.638C234.922 121.748 233.101 122.303 231.396 123.013C231.312 122.974 231.217 122.964 231.127 122.984C231.037 123.004 230.956 123.053 230.896 123.123C229.81 124.248 223.138 128.209 225.844 130.195C226.759 130.865 228.68 130.91 229.77 130.36C230.33 131.76 231.371 132.635 233.216 132.31C234.977 132 236.437 130.81 238.218 130.48C240.769 130.051 243.387 130.605 245.545 132.03C245.602 132.072 245.666 132.103 245.734 132.12C245.803 132.137 245.874 132.141 245.943 132.131C246.013 132.12 246.08 132.097 246.14 132.061C246.201 132.024 246.254 131.977 246.296 131.92C246.338 131.864 246.368 131.8 246.385 131.731C246.403 131.663 246.406 131.592 246.396 131.522C246.386 131.453 246.362 131.386 246.326 131.325C246.29 131.265 246.242 131.212 246.186 131.17Z" fill="#FFAD85"/>
<path d="M267.127 184.524C265.577 182.694 262.53 182.524 260.96 184.414C259.905 185.699 259.459 187.645 259.109 189.23C258.899 190.231 258.364 191.836 259.054 192.731C260.43 195.367 264.496 192.441 265.887 191.231C267.847 189.545 269.028 186.775 267.127 184.524Z" fill="#F7E0D0"/>
<path d="M290.77 190.526C291.125 189.806 288.659 186.67 288.924 185.92C287.144 179.858 282.422 179.563 277.996 175.457C275.385 173.041 272.649 170.556 269.688 168.58C267.807 167.325 265.156 166.014 262.871 166.96C260.015 168.14 259.369 172.656 258.784 175.257C258.302 177.248 258.097 179.296 258.174 181.343C258.294 183.494 259.119 185.545 259.174 187.68C259.086 187.735 259.013 187.811 258.96 187.901C258.908 187.991 258.878 188.092 258.874 188.196C258.869 188.3 258.89 188.403 258.935 188.497C258.979 188.591 259.046 188.673 259.129 188.735C265.632 194.077 274.359 196.593 283.042 195.802C284.688 195.706 286.276 195.164 287.637 194.234C288.998 193.305 290.081 192.023 290.77 190.526Z" fill="#FFB687"/>
<path d="M273.179 312.728C269.303 286.571 262.57 256.988 250.671 233.267C250.39 232.701 250.221 232.087 250.171 231.457C249.907 228.209 249.436 224.982 248.761 221.794C248.825 221.686 248.858 221.562 248.858 221.436C248.858 221.311 248.825 221.187 248.761 221.079C243.814 212.076 232.68 212.146 223.752 213.107C211.488 214.422 199.244 215.812 186.985 217.163C186.791 217.183 186.611 217.278 186.485 217.428C186.351 217.48 186.234 217.57 186.151 217.687C186.067 217.805 186.02 217.944 186.015 218.088C185.76 221.864 185.59 225.65 185.485 229.436C185.475 229.926 185.385 230.41 185.22 230.871C175.136 257.999 174.291 272.312 175.371 310.112C175.196 310.558 175.021 312.258 175.371 312.378C177.537 313.092 179.766 313.594 182.029 313.878C182.529 313.953 183.064 314.014 183.584 314.064C188.166 314.524 192.822 314.319 197.454 314.124L198.354 314.089L199.855 314.049C203.976 313.938 209.278 313.918 213.799 313.898H215.3C219.801 313.873 223.202 313.848 223.252 313.713C224.528 313.813 230.025 313.928 236.937 314.009H238.437C243.439 314.059 249.001 314.089 254.203 314.084H255.703C265.301 314.084 273.259 313.888 273.209 313.448C273.256 313.333 273.278 313.209 273.273 313.085C273.268 312.961 273.236 312.839 273.179 312.728Z" fill="#BA7350"/>
<path d="M277.196 165.609C272.419 159.207 268.603 153.841 262.571 148.56C260.805 147.009 259.105 145.559 257.399 144.228C256.274 143.343 255.143 142.503 253.983 141.693C252.953 140.973 251.897 140.287 250.807 139.622C249.596 138.882 248.336 138.182 247.006 137.512C246.42 137.207 245.815 136.907 245.2 136.621C244.585 136.336 243.389 137.677 243.98 137.952L244.135 138.032C244.195 140.402 244.253 142.775 244.31 145.149C244.42 149.68 244.53 154.206 244.665 158.737C244.8 163.269 244.325 168.57 245.665 173.111C246.095 175.077 246.035 179.153 246.3 179.658C248.631 184.124 250.837 187.295 253.838 189.861C255.697 191.416 257.739 192.738 259.92 193.797C260.022 193.847 260.139 193.861 260.25 193.837C260.185 193.467 259.655 182.569 264.296 175.562C267.187 171.196 271.874 168.41 277.006 166.394C277.052 166.37 277.093 166.337 277.125 166.295C277.157 166.254 277.179 166.205 277.191 166.154C277.26 166.081 277.299 165.984 277.3 165.883C277.301 165.782 277.264 165.684 277.196 165.609Z" fill="#FCE7D8"/>
<path d="M176.062 192.361C174.28 189.553 171.912 187.165 169.12 185.359C165.984 183.293 162.522 182.033 158.936 180.988C156.606 180.303 152.194 178.602 149.763 179.958C149.651 179.945 149.539 179.973 149.447 180.038C149.355 180.102 149.289 180.198 149.263 180.308C148.498 183.133 149.693 185.684 151.764 187.635C154.73 190.44 158.671 192.421 162.077 194.636C164.008 195.887 177.462 206.58 178.793 200.533C179.318 198.102 177.312 194.361 176.062 192.361Z" fill="#F7E0D0"/>
<path d="M221.602 130.685C219.559 121.797 218.183 112.77 217.486 103.677C217.441 103.082 216.616 103.002 216.531 103.502C216.462 103.445 216.377 103.41 216.288 103.402C216.198 103.394 216.108 103.413 216.03 103.457C209.924 106.683 202.929 107.823 196.114 106.703C196.019 106.684 195.921 106.702 195.839 106.753C195.755 106.712 195.661 106.695 195.568 106.705C195.475 106.714 195.386 106.75 195.312 106.807C195.238 106.864 195.182 106.941 195.149 107.029C195.117 107.117 195.11 107.212 195.129 107.303C196.074 111.725 196.919 116.166 197.629 120.632C198.2 124.238 199.435 128.779 197.969 132.315C197.724 132.385 219.532 171.03 221.787 131.56C221.812 131.125 221.877 130.81 221.602 130.685Z" fill="#FFB687"/>
<path d="M179.704 179.498C179.681 179.106 179.681 178.714 179.704 178.323C179.754 177.492 173.442 170.455 169.385 169.355C166.93 168.69 160.727 164.314 159.882 167.63C155.381 185.755 153.52 204.82 152.74 220.934C152.716 221.43 152.654 221.923 152.555 222.409C148.468 242.82 146.728 263.06 148.203 283.866C148.408 286.631 152.205 285.811 153.9 285.206C155.276 284.706 160.642 282.455 160.717 280.705C161.218 268.256 164.329 258.589 165.984 249.521C167.535 241.019 168.845 237.018 169.6 228.416C170.996 212.477 177.663 197.578 179.384 181.728L179.629 180.258C179.684 180.009 179.709 179.753 179.704 179.498Z" fill="#FFB687"/>
<path d="M168.054 293.453C167.894 292.693 167.724 291.953 167.554 291.197C167.216 289.71 166.492 288.338 165.453 287.221C163.452 285.046 162.032 283.005 161.522 280.004C161.012 277.004 161.467 272.622 161.832 269.552C161.832 269.397 156.465 269.917 154.204 270.052C152.234 270.187 147.762 270.992 147.747 271.552C147.697 273.318 147.747 275.673 147.702 276.418C147.657 277.854 147.617 279.294 147.592 280.73C147.492 286.111 147.222 291.532 147.632 296.904C147.942 300.99 147.987 309.537 153.089 310.853C153.829 311.918 154.845 312.608 156.425 312.253H156.48C157.661 313.308 159.211 313.938 160.777 314.493C160.917 314.538 161.067 314.538 161.207 314.493C161.827 315.829 162.767 318.345 164.158 318.585C165.343 318.79 165.763 317.624 165.903 316.674C166.143 315.064 165.603 313.588 164.963 312.173C163.765 309.245 163.38 306.049 163.848 302.92C164.098 303.346 164.208 303.866 164.433 304.341L164.498 304.476C164.498 304.791 164.468 305.101 164.463 305.411C164.463 306.246 164.463 307.082 165.018 307.762C165.232 308.046 165.532 308.254 165.873 308.357C166.213 308.459 166.578 308.45 166.914 308.332C167.099 308.377 167.294 308.356 167.465 308.272C167.636 308.188 167.772 308.046 167.849 307.872C169.94 303.095 169.089 298.324 168.054 293.453Z" fill="#FFB687"/>
<path d="M253.813 195.002C253.848 193.826 253.858 192.671 253.848 191.526C253.848 190.966 253.848 190.406 253.818 189.85C253.793 188.955 253.758 188.07 253.708 187.19C253.378 181.323 252.543 175.652 251.622 169.575C253.358 165.164 256.929 150.205 256.284 145.069C256.262 144.526 256.075 144.002 255.749 143.568C255.116 142.934 254.448 142.336 253.748 141.778C252.797 141.008 251.807 140.289 250.782 139.622C249.587 138.837 248.321 138.122 247.031 137.416C245.87 136.796 244.685 136.216 243.5 135.671C235.837 132.135 228.29 130.17 227.965 129.669C227.903 129.574 227.821 129.492 227.725 129.43C227.629 129.369 227.521 129.329 227.408 129.312C227.295 129.296 227.18 129.305 227.071 129.337C226.961 129.369 226.86 129.425 226.774 129.499C226.597 129.588 226.461 129.741 226.394 129.927C226.327 130.114 226.334 130.319 226.414 130.5C225.414 134.501 220.477 135.691 219.092 139.552C218.221 141.973 218.546 146.594 215.895 147.469C212.794 148.469 214.18 146.469 212.824 144.598C210.87 142.013 208.234 140.023 205.212 138.852C202.106 137.592 195.174 135.896 195.539 131.625C195.994 131.375 194.323 130.125 194.238 130.58C190.737 132.33 186.556 133.3 182.444 134.371C181.129 134.716 179.819 135.071 178.543 135.461C176.564 136.039 174.646 136.808 172.816 137.757C167.314 140.712 164.473 145.404 162.178 151.185C162.028 151.56 163.048 158.977 168.795 168.63C169.88 170.46 171.026 172.251 172.216 174.016C173.887 191.966 176.187 218.843 185.62 225.5C188.041 227.205 191.787 227.235 194.834 227.345C195.189 227.345 195.534 227.37 195.834 227.395C196.874 227.45 197.925 227.475 198.965 227.46C202.051 227.46 205.137 227.17 208.208 226.86C212.494 226.43 216.821 225.12 221.127 225.075C225.749 225.03 229.81 227.075 234.242 227.785C239.938 228.686 252.248 227.315 253.568 220.063C254.983 212.276 253.568 202.849 253.813 195.002Z" fill="#FCE7D8"/>
<path d="M180.348 144.018C178.903 140.672 171.876 138.422 171.305 138.662C168.339 139.902 164.973 144.788 162.848 148.744C160.722 152.7 158.736 156.747 156.886 160.803C156.656 161.303 156.436 161.803 156.215 162.303C155.76 163.303 155.325 164.364 154.9 165.404C153.46 168.905 152.164 172.501 150.829 176.062C150.233 177.682 148.038 181.258 149.578 182.813C150.434 183.674 151.954 183.574 153.079 183.769C154.835 184.056 156.575 184.433 158.291 184.899C165.369 186.835 171.931 190.711 175.437 197.362C175.937 198.363 177.297 197.747 177.307 196.862C180.263 192.266 180.764 186.73 181.464 181.428C182.324 174.926 183.044 168.38 182.999 161.808C182.949 156.031 182.669 149.375 180.348 144.018Z" fill="#F7E0D0"/>
<path d="M174.792 145.989C180.844 150.49 181.529 159.458 182.229 166.324C183.1 174.918 183.038 183.581 182.044 192.161C182.009 192.481 182.509 192.481 182.544 192.161C183.615 182.932 183.605 173.61 182.514 164.384C181.729 157.787 180.804 149.825 175.047 145.559C174.787 145.369 174.547 145.799 174.792 145.989Z" fill="#240B0B"/>
<path d="M215.365 147.989C216.866 151.44 217.466 155.341 218.101 159.027C218.941 163.924 219.572 168.86 220.132 173.801C221.132 182.504 221.852 191.251 222.503 199.988C223.068 207.625 223.438 215.652 221.077 223.044C220.982 223.354 221.462 223.485 221.577 223.179C223.648 216.678 223.603 209.701 223.213 202.969C222.923 197.863 222.433 192.766 222.007 187.665C221.237 178.528 220.312 169.38 218.836 160.328C218.151 156.127 217.506 151.67 215.835 147.734C215.71 147.439 215.28 147.694 215.405 147.989H215.365Z" fill="#240B0B"/>
<path d="M253.848 191.536C253.283 191.224 252.684 190.977 252.063 190.801C250.33 190.341 248.487 190.558 246.908 191.407C245.329 192.256 244.132 193.673 243.56 195.372C242.689 197.808 238.783 196.753 239.663 194.302C241.194 190.041 244.665 186.955 249.287 186.555C250.797 186.417 252.319 186.638 253.728 187.2C253.778 188.08 253.813 188.965 253.838 189.861C253.833 190.416 253.843 191.001 253.848 191.536Z" fill="#F7A551"/>
<path d="M221.642 79.9266C221.432 79.2364 221.187 78.5613 220.912 77.8961C220.029 75.7359 218.661 73.8076 216.914 72.26C215.167 70.7125 213.087 69.5872 210.836 68.9709C208.585 68.3546 206.223 68.2639 203.931 68.7058C201.639 69.1477 199.48 70.1103 197.619 71.5194C190.747 76.7308 187.616 85.4981 188.171 93.8003C188.531 99.1767 189.697 105.198 191.897 110.12C193.718 114.196 197.129 117.787 201.491 119.372C206.237 121.098 212.874 119.437 216.495 116.046C219.942 112.805 221.032 108.959 221.657 104.433C222.247 100.192 222.963 94.9756 222.963 90.6995C222.953 86.3383 222.953 84.1277 221.642 79.9266Z" fill="#FFB687"/>
<path d="M197.465 142.638C193.388 145.499 188.587 147.094 184.405 143.518C181.842 141.34 179.828 138.588 178.528 135.486C179.804 135.096 181.114 134.741 182.43 134.396C183.383 136.318 184.636 138.077 186.141 139.607C189.182 142.838 192.248 141.398 195.424 139.172C197.56 137.652 199.58 141.157 197.465 142.638Z" fill="#F7A551"/>
<path d="M226.304 127.319C224.525 125.498 222.624 123.802 220.612 122.242C220.382 121.822 219.612 121.887 219.667 122.453C220.257 128.994 218.041 133.4 215.2 139.337C215.095 139.562 223.593 146.794 225.053 150.135C225.224 150.52 225.654 150.43 225.859 150.165C225.959 150.196 226.068 150.189 226.164 150.147C226.26 150.105 226.338 150.03 226.384 149.935C229.06 144.813 230.16 138.027 229.81 132.765C229.645 130.935 227.219 128.264 226.304 127.319Z" fill="#F7E0D0"/>
<path d="M215.215 139.337C214.465 140.452 214.715 145.559 214.585 146.339C213.92 145.159 212.584 142.803 211.934 141.603C211.259 140.327 210.699 139.872 209.553 139.027C207.912 137.895 206.402 136.583 205.052 135.116C201.816 131.615 199.865 128.824 198.55 124.278C198.36 123.463 198.3 122.898 197.879 123.278C196.733 124.383 195.717 125.616 194.853 126.954C193.998 128.244 192.528 130.455 192.177 131.455C192.123 131.625 192.096 131.802 192.097 131.98C192.072 133.481 192.663 134.941 193.218 136.316C194.049 138.424 195.074 140.449 196.279 142.368C196.504 142.723 196.749 143.063 196.989 143.408C199.77 147.409 203.911 151.675 203.726 151.28C203.826 151.225 205.092 151.325 205.137 151.185C206.082 148.24 208.273 145.384 210.464 142.608C211.534 144.233 215.645 149.845 215.67 149.7C215.93 149.595 219.722 144.043 220.487 142.903C220.827 142.403 215.56 138.802 215.215 139.337Z" fill="#F7E0D0"/>
<path d="M230.495 277.889C229.415 281.02 227.389 283.606 226.119 286.626C225.654 287.732 225.619 288.977 225.484 290.157C224.948 295.129 224.523 300.11 223.923 305.076C223.642 307.731 223.228 310.37 222.683 312.983C222.613 313.298 223.098 313.428 223.183 313.113C224.248 308.392 224.648 303.486 225.143 298.68C225.394 296.234 225.644 293.783 225.874 291.338C226.009 290.027 226.024 288.597 226.399 287.337C226.829 285.876 227.829 284.526 228.575 283.21C229.53 281.557 230.335 279.821 230.98 278.024C231.085 277.719 230.6 277.584 230.48 277.889H230.495Z" fill="#240B0B"/>
<path d="M247.011 231.657C238.948 234.737 229.825 235.018 221.297 234.953C212.807 234.874 204.332 234.226 195.929 233.012C193.436 232.723 190.965 232.271 188.531 231.662C188.499 231.653 188.464 231.651 188.431 231.656C188.397 231.66 188.365 231.672 188.336 231.689C188.306 231.706 188.281 231.729 188.26 231.756C188.24 231.783 188.225 231.814 188.216 231.847C188.208 231.88 188.206 231.914 188.21 231.947C188.215 231.981 188.226 232.013 188.244 232.043C188.261 232.072 188.284 232.097 188.311 232.118C188.338 232.138 188.369 232.153 188.401 232.162C190.541 232.704 192.713 233.114 194.904 233.387C198.53 233.932 202.176 234.347 205.827 234.682C215.09 235.523 224.498 235.888 233.771 234.978C238.273 234.532 242.859 233.792 247.121 232.162C247.421 232.047 247.291 231.567 246.991 231.662L247.011 231.657Z" fill="#240B0B"/>
<path d="M182.334 251.942C181.637 270.563 182.766 289.207 185.706 307.607C185.756 307.922 186.241 307.787 186.206 307.472C183.284 289.12 182.167 270.527 182.87 251.957C182.87 251.637 182.369 251.637 182.369 251.957L182.334 251.942Z" fill="#240B0B"/>
<path d="M260.645 272.548C262.745 283.415 264.016 294.426 264.446 305.486C264.446 305.807 264.946 305.807 264.946 305.486C264.511 294.383 263.236 283.328 261.13 272.418C261.065 272.098 260.585 272.233 260.63 272.548H260.645Z" fill="#240B0B"/>
<path d="M216.215 140.778C218.793 142.781 221.064 145.15 222.957 147.81C223.552 148.625 224.418 150.18 225.388 150.56C226.038 150.815 226.388 150.385 226.794 149.885C227.579 148.85 227.979 147.474 228.369 146.249C228.852 144.726 229.222 143.17 229.474 141.593C229.971 138.491 230.028 135.334 229.644 132.215C229.604 131.9 229.104 131.895 229.144 132.215C229.795 137.607 229.324 143.718 226.939 148.66C226.834 148.89 226.712 149.113 226.573 149.325C226.223 149.855 226.198 149.985 225.573 149.86C224.853 149.71 224.273 148.765 223.853 148.215C223.167 147.309 222.527 146.369 221.807 145.489C220.227 143.573 218.429 141.848 216.45 140.348C216.195 140.152 215.95 140.588 216.195 140.778H216.215Z" fill="#240B0B"/>
<path d="M210.713 141.628C208.739 143.721 207.109 146.115 205.887 148.72C205.637 149.255 205.387 149.8 205.192 150.35C205.11 150.645 205.005 150.933 204.877 151.21C204.341 151.41 203.501 150.685 203.171 150.405C202.117 149.503 201.128 148.529 200.21 147.489C196.364 143.123 193.797 137.781 192.793 132.05C192.738 131.735 192.252 131.87 192.292 132.185C193.381 138.331 196.236 144.026 200.51 148.575C201.295 149.405 204.171 152.961 205.357 151.325C205.857 150.67 206.052 149.52 206.402 148.79C206.752 148.059 207.172 147.264 207.612 146.529C208.597 144.899 209.75 143.377 211.054 141.988C211.274 141.753 210.924 141.398 210.703 141.638L210.713 141.628Z" fill="#240B0B"/>
<path d="M257.399 144.228C257.164 144.59 256.824 144.872 256.424 145.033L256.284 145.088C252.722 146.589 247.386 147.904 244.31 145.148C243.725 144.627 243.249 143.994 242.909 143.288C241.649 140.742 242.199 138.082 243.524 135.671C244.71 136.216 245.895 136.796 247.056 137.416C247.056 137.446 247.021 137.476 247.006 137.511C246.34 138.697 246.005 139.932 246.4 141.092C247.296 143.813 251.187 142.758 253.773 141.778L253.983 141.693C255.143 142.488 256.274 143.343 257.399 144.228Z" fill="#F7A551"/>
<path d="M228.719 212.387C222.962 216.457 216.659 219.697 209.998 222.009C209.698 222.114 209.828 222.599 210.133 222.509C216.835 220.183 223.176 216.925 228.969 212.832C229.229 212.647 228.969 212.211 228.719 212.397V212.387Z" fill="#240B0B"/>
<path d="M248.952 162.929C250.717 169.13 252.513 175.367 253.098 181.814C253.756 189.311 252.679 196.86 249.952 203.874C249.837 204.175 250.317 204.305 250.452 204.009C253.194 196.951 254.277 189.357 253.618 181.814C253.028 175.312 251.232 169.045 249.452 162.809C249.443 162.776 249.428 162.745 249.408 162.718C249.387 162.691 249.362 162.668 249.333 162.651C249.303 162.634 249.271 162.622 249.237 162.618C249.204 162.613 249.17 162.615 249.137 162.623C249.104 162.632 249.073 162.647 249.046 162.667C249.019 162.688 248.996 162.713 248.979 162.743C248.962 162.772 248.951 162.804 248.946 162.838C248.941 162.872 248.943 162.906 248.952 162.939V162.929Z" fill="#240B0B"/>
<path d="M254.228 159.142C254.397 164.545 253.689 169.94 252.132 175.117C252.123 175.149 252.121 175.184 252.125 175.217C252.13 175.251 252.141 175.284 252.158 175.313C252.174 175.343 252.197 175.369 252.224 175.389C252.251 175.41 252.282 175.425 252.315 175.434C252.347 175.443 252.382 175.445 252.415 175.441C252.449 175.437 252.482 175.426 252.511 175.409C252.541 175.392 252.567 175.369 252.587 175.342C252.608 175.315 252.623 175.284 252.632 175.252C254.194 170.03 254.902 164.59 254.728 159.142C254.728 159.076 254.702 159.012 254.655 158.966C254.608 158.919 254.544 158.892 254.478 158.892C254.411 158.892 254.348 158.919 254.301 158.966C254.254 159.012 254.228 159.076 254.228 159.142Z" fill="#240B0B"/>
<path d="M283.682 195.292C286.953 196.017 290.9 192.141 291.31 189.355C292.75 179.613 289.729 174.942 286.483 169.08C281.792 160.578 264.906 139.572 258.149 133.966C256.743 132.805 254.598 130.52 252.672 131.885C250.881 133.156 246.94 138.342 247.475 138.957C254.148 146.684 257.599 154.936 262.905 169.08C265.021 174.727 266.727 178.728 269.868 183.874C271.615 186.862 273.882 189.514 276.56 191.706C278.62 193.444 281.06 194.672 283.682 195.292Z" fill="#FFB687"/>
<path d="M241.329 120.482C239.328 119.392 237.557 118.202 235.377 118.137C232.876 117.326 230.415 116.511 228.084 118.192C225.583 119.987 222.047 126.119 222.222 126.339C222.028 126.763 221.981 127.24 222.09 127.693C222.199 128.146 222.457 128.55 222.822 128.84C224.083 129.84 225.778 127.939 227.119 127.409C229.585 126.409 231.935 127.054 234.361 127.319C235.12 127.399 235.82 127.764 236.319 128.341C236.818 128.918 237.078 129.663 237.047 130.425C237.047 131.27 238.633 135.231 239.663 136.337C242.534 139.412 245.405 139.367 249.051 140.758C249.816 141.048 255.253 134.841 258.054 133.996C258.399 133.886 247.806 123.983 241.329 120.482Z" fill="#FFB687"/>
<path d="M259.83 190.216C259.834 191.074 260.004 191.923 260.33 192.717C260.45 193.012 260.936 192.882 260.831 192.587C260.51 191.833 260.34 191.024 260.33 190.206C260.33 190.139 260.304 190.076 260.257 190.029C260.21 189.982 260.147 189.955 260.08 189.955C260.014 189.955 259.95 189.982 259.903 190.029C259.856 190.076 259.83 190.139 259.83 190.206V190.216Z" fill="#240B0B"/>
<path d="M265.362 175.462C266.732 178.963 268.238 182.534 270.439 185.624C270.624 185.884 271.059 185.624 270.869 185.374C268.698 182.314 267.198 178.808 265.867 175.332C265.752 175.032 265.267 175.162 265.367 175.462H265.362Z" fill="#BF604D"/>
<path d="M237.678 128.194C236.537 126.749 235.742 125.098 234.832 123.508C234.331 122.663 233.781 121.507 232.746 121.272C231.711 121.037 230.85 121.817 230.21 122.548C229.124 123.815 228.121 125.151 227.209 126.549C227.034 126.819 227.464 127.049 227.644 126.804C228.379 125.698 229.145 124.623 229.995 123.593C230.326 123.151 230.691 122.734 231.085 122.348C231.338 122.116 231.646 121.954 231.98 121.876C232.314 121.798 232.662 121.807 232.991 121.902C233.361 122.048 233.686 122.588 233.881 122.903C235.112 124.753 235.947 126.814 237.327 128.569C237.527 128.824 237.878 128.464 237.683 128.214L237.678 128.194Z" fill="#BF604D"/>
<path d="M220.382 88.1936C220.257 88.0377 220.122 87.8906 219.977 87.7534C218.216 86.118 214.61 85.5629 212.579 86.8532C211.114 87.7835 209.918 90.8843 211.989 91.8995C213.12 92.4497 214.6 91.8995 215.775 91.8645C217.146 91.8295 218.526 92.6748 219.892 92.4047C222.118 91.9746 221.497 89.5839 220.382 88.1936Z" fill="#4A2521"/>
<path d="M193.007 91.7344C194.373 92.0045 195.758 91.1592 197.129 91.1892C198.299 91.1892 199.779 91.7794 200.91 91.2242C202.986 90.224 201.79 87.1082 200.32 86.1779C198.294 84.8926 194.683 85.4427 192.927 87.0831C192.779 87.219 192.642 87.3661 192.517 87.5233C191.402 88.9086 190.782 91.2943 193.007 91.7344Z" fill="#4A2521"/>
<path d="M234.281 125.524C232.31 125.524 230.725 127.269 229.549 128.654C229.344 128.899 229.695 129.255 229.905 129.009C230.985 127.729 232.465 126.009 234.281 126.009C234.347 126.009 234.411 125.982 234.458 125.935C234.505 125.889 234.531 125.825 234.531 125.759C234.531 125.692 234.505 125.629 234.458 125.582C234.411 125.535 234.347 125.509 234.281 125.509V125.524Z" fill="#BF604D"/>
<path d="M235.656 118.787C236.944 119.598 238.033 120.689 238.843 121.978C239.013 122.253 239.444 122.003 239.273 121.728C238.421 120.364 237.27 119.211 235.907 118.356C235.636 118.186 235.381 118.616 235.656 118.787Z" fill="#BF604D"/>
<path d="M217.676 113.835C213.095 119.151 204.672 120.337 198.57 117.006C198.29 116.851 198.04 117.281 198.32 117.436C204.612 120.887 213.3 119.677 218.031 114.19C218.241 113.945 217.886 113.59 217.676 113.835Z" fill="#BF604D"/>
<path d="M228.599 81.9221C227.935 79.9391 227.081 78.0247 226.049 76.2056C222.182 69.4988 213.875 66.2029 206.397 66.0979C202.746 66.0429 199.455 67.0982 196.004 68.1535C193.638 68.8686 191.182 69.7289 189.346 71.3343C187.381 74.6252 186.45 78.3912 185.315 82.0521C183.78 86.9985 182.019 91.8247 181.974 97.0561C181.969 97.2811 182.03 97.5026 182.15 97.693C182.27 97.8833 182.444 98.0341 182.649 98.1264C182.301 101.264 182.619 104.439 183.583 107.446C184.547 110.452 186.134 113.22 188.241 115.571C188.382 115.744 188.573 115.869 188.788 115.929C189.003 115.989 189.231 115.981 189.441 115.906C190.382 117.136 192.492 115.906 191.577 114.576C188.276 109.81 191.347 103.668 192.377 98.6165C192.979 95.6687 193.39 92.685 193.608 89.6842C193.661 88.8955 193.88 88.1269 194.25 87.4281C194.619 86.7294 195.132 86.1161 195.753 85.6281C197.304 84.4329 198.782 83.147 200.18 81.7771C202.088 79.9953 203.785 78 205.237 75.8305C205.307 75.7231 205.408 75.6383 205.525 75.5864C205.643 75.5344 205.773 75.5174 205.901 75.5375C206.028 75.5575 206.146 75.6137 206.242 75.6994C206.338 75.785 206.408 75.8965 206.442 76.0205C208.143 81.7671 211.994 85.8782 216.981 88.969C217.195 89.0871 217.391 89.2372 217.561 89.4141C218.196 90.1343 225.178 106.169 223.113 111.1C222.492 112.6 224.718 113.831 225.323 112.325C225.475 111.951 225.607 111.568 225.718 111.18C228.593 106.879 230.098 101.809 230.035 96.636C229.886 91.7048 229.406 86.7892 228.599 81.9221Z" fill="#4A2521"/>
<path d="M215.765 94.2154C213.084 93.7153 212.439 100.377 215.705 100.217C216.925 100.172 217.275 98.3115 217.32 97.3812C217.381 96.2409 217.185 94.4755 215.765 94.2154Z" fill="#1F0404"/>
<path d="M195.758 97.3111C195.883 98.2364 196.384 100.057 197.604 100.007C200.87 99.8668 199.68 93.3051 197.044 94.0053C195.648 94.3704 195.608 96.1558 195.758 97.3111Z" fill="#1F0404"/>
<path d="M204.872 98.0613C203.416 99.7018 204.321 101.837 205.837 103.063C206.082 103.263 206.442 102.913 206.187 102.713C204.917 101.712 203.941 99.8768 205.227 98.4264C205.437 98.1864 205.087 97.8313 204.872 98.0713V98.0613Z" fill="#BF604D"/>
<path d="M208.067 102.538C208.478 102.19 208.987 101.976 209.523 101.928C209.838 101.893 209.843 101.392 209.523 101.427C208.856 101.486 208.223 101.75 207.712 102.183C207.462 102.388 207.817 102.738 208.067 102.538Z" fill="#BF604D"/>
<path d="M210.999 104.978C208.389 105.54 205.701 105.642 203.056 105.278C202.626 105.228 202.306 105.413 202.316 105.698C202.287 105.756 202.272 105.819 202.272 105.883C202.272 105.948 202.287 106.011 202.316 106.068C203.816 109.424 210.549 109.019 211.574 105.533C211.584 105.456 211.575 105.378 211.549 105.305C211.523 105.232 211.481 105.166 211.425 105.112C211.369 105.058 211.302 105.018 211.228 104.995C211.154 104.972 211.075 104.966 210.999 104.978Z" fill="white"/>
<path d="M213.569 76.2604C216.057 80.9355 217.748 85.9929 218.571 91.2243C218.626 91.5394 219.106 91.4044 219.071 91.0893C218.231 85.8165 216.519 80.7204 214.004 76.0103C213.854 75.7252 213.424 75.9753 213.574 76.2604H213.569Z" fill="#240B0B"/>
<path d="M222.718 102.353C224.294 106.254 226.104 111.32 222.688 114.821C222.463 115.051 222.818 115.406 223.043 115.176C226.594 111.535 224.849 106.304 223.198 102.218C223.078 101.922 222.593 102.053 222.698 102.353H222.718Z" fill="#240B0B"/>
<path d="M202.621 69.0533C196.019 73.0544 194.673 82.0268 193.803 89.0136C193.763 89.3287 194.263 89.3287 194.303 89.0136C195.149 82.2118 196.444 73.3945 202.871 69.5085C203.146 69.3434 202.896 68.9083 202.621 69.0784V69.0533Z" fill="#240B0B"/>
<path d="M189.206 107.129C188.206 109.004 187.245 111.215 188.586 113.171C188.771 113.436 189.201 113.171 189.021 112.915C187.785 111.115 188.741 109.094 189.636 107.384C189.786 107.099 189.356 106.844 189.206 107.129Z" fill="#240B0B"/>
<path d="M231.04 108.309C231.325 110.809 231.54 114.165 228.774 115.311C228.479 115.431 228.609 115.916 228.904 115.811C231.905 114.545 231.86 111.069 231.54 108.309C231.505 107.994 231.005 107.989 231.04 108.309Z" fill="#240B0B"/>
<path d="M182.139 85.2779C181.363 88.6838 184.084 91.8897 182.454 95.2156C181.734 96.716 180.798 97.9613 180.453 99.6017C180.132 101.181 180.229 102.817 180.733 104.348C180.833 104.653 181.313 104.523 181.233 104.213C180.614 102.359 180.637 100.351 181.298 98.5115C181.844 97.0361 182.949 95.8107 183.369 94.2803C184.199 91.2795 181.949 88.4238 182.629 85.408C182.704 85.0979 182.219 84.9629 182.129 85.2779H182.139Z" fill="#240B0B"/>
<path d="M228.905 83.8327C228.8 86.9186 230.03 89.7193 231.1 92.55C232.358 95.8098 232.982 99.2792 232.941 102.773C232.941 102.839 232.967 102.903 233.014 102.95C233.061 102.996 233.125 103.023 233.191 103.023C233.257 103.023 233.321 102.996 233.368 102.95C233.415 102.903 233.441 102.839 233.441 102.773C233.5 99.5239 232.972 96.2911 231.881 93.2302C230.785 90.1594 229.29 87.1736 229.405 83.8327C229.405 83.5076 228.905 83.5126 228.905 83.8327Z" fill="#240B0B"/>
<path d="M158.851 302.876C158.767 306.398 159.32 309.907 160.482 313.233C160.587 313.533 161.067 313.403 160.982 313.098C159.834 309.816 159.288 306.352 159.371 302.876C159.371 302.809 159.345 302.746 159.298 302.699C159.251 302.652 159.188 302.626 159.121 302.626C159.055 302.626 158.991 302.652 158.944 302.699C158.897 302.746 158.871 302.809 158.871 302.876H158.851Z" fill="#BF604D"/>
<path d="M154.525 302.556C153.93 305.412 154.95 308.882 155.951 311.558C156.061 311.858 156.546 311.728 156.451 311.428C155.48 308.842 154.45 305.477 155.025 302.706C155.09 302.396 154.61 302.261 154.525 302.576V302.556Z" fill="#BF604D"/>
<path d="M150.939 302.53C150.893 305.144 151.318 307.745 152.194 310.207C152.304 310.507 152.79 310.377 152.695 310.077C151.826 307.658 151.4 305.101 151.439 302.53C151.439 302.464 151.413 302.4 151.366 302.354C151.319 302.307 151.255 302.28 151.189 302.28C151.123 302.28 151.059 302.307 151.012 302.354C150.965 302.4 150.939 302.464 150.939 302.53Z" fill="#BF604D"/>
<path d="M222.807 227.306C222.255 227.297 221.711 227.439 221.234 227.717C220.756 227.994 220.363 228.396 220.097 228.88C219.83 229.364 219.701 229.911 219.722 230.463C219.743 231.014 219.914 231.55 220.217 232.012C220.587 232.506 221.095 232.88 221.677 233.087C222.258 233.294 222.888 233.325 223.488 233.177C226.634 232.437 226.219 227.321 222.807 227.306Z" fill="white"/>
<path d="M197.399 239.744C196.169 243.745 194.937 247.764 193.703 251.802C192.573 255.483 191.262 259.174 191.037 263.045C191.037 263.37 191.537 263.365 191.537 263.045C191.767 259.044 193.168 255.248 194.328 251.462L197.884 239.874C197.979 239.568 197.494 239.433 197.384 239.744H197.399Z" fill="#240B0B"/>
<path d="M228.384 171.321C227.929 169.36 226.459 167.71 224.968 169.82C224.691 170.246 224.516 170.731 224.458 171.236C224.4 171.741 224.46 172.253 224.633 172.731C224.913 173.616 225.488 174.817 226.544 174.892C228.394 174.997 228.779 173.041 228.384 171.321Z" fill="#240B0B"/>
<path d="M230.22 190.796C229.765 188.835 228.294 187.185 226.804 189.295C226.527 189.722 226.352 190.206 226.294 190.711C226.236 191.216 226.296 191.728 226.469 192.206C226.749 193.086 227.324 194.292 228.38 194.367C230.22 194.502 230.625 192.501 230.22 190.796Z" fill="#240B0B"/>
<path d="M210.964 214.442C206.808 213.442 203.257 215.148 201.711 219.139C200.661 221.844 199.78 224.64 198.975 227.461C197.935 227.461 196.884 227.461 195.844 227.396C195.519 227.396 195.174 227.361 194.844 227.346C195.421 225.322 196.042 223.31 196.709 221.309C197.49 218.954 198.21 216.368 199.71 214.357C202.581 210.541 207.573 209.471 212.049 210.546C214.565 211.152 213.49 215.048 210.964 214.442Z" fill="#F7A551"/>
<path d="M211.649 182.659C208.608 179.893 204.217 179.558 200.611 181.479C196.529 183.654 194.514 188.235 193.773 192.587C193.343 195.132 197.239 196.222 197.675 193.662C198.175 190.811 199.065 187.79 201.351 185.845C203.412 184.089 206.683 183.599 208.793 185.52C210.714 187.265 213.58 184.414 211.649 182.659Z" fill="#F7A551"/>
<path d="M170.56 160.343C167.984 163.669 163.913 167.48 159.417 167.445C158.562 167.452 157.717 167.273 156.94 166.92C156.162 166.566 155.471 166.047 154.915 165.399C155.34 164.359 155.775 163.324 156.23 162.298C156.451 161.798 156.671 161.298 156.901 160.798C157.531 162.648 158.696 163.994 161.197 162.994C163.843 161.963 165.994 159.673 167.699 157.492C169.3 155.437 172.141 158.312 170.56 160.343Z" fill="#F7A551"/>
<path d="M180.984 219.778C185.41 216.698 187.576 209.696 186.576 204.639C186.075 202.094 182.174 203.169 182.679 205.715C183.048 207.56 182.925 209.469 182.322 211.251C181.718 213.034 180.657 214.626 179.243 215.867L180.984 219.778Z" fill="#F7A551"/>
<path d="M214.465 157.602C212.62 159.325 210.219 160.331 207.696 160.438C205.174 160.546 202.696 159.747 200.711 158.187C198.685 156.602 195.804 159.443 197.85 161.043C203.817 165.714 211.655 165.579 217.321 160.463C219.257 158.717 216.391 155.862 214.465 157.602Z" fill="#F7A551"/>
<path d="M250.476 212.266C248.924 211.264 247.153 210.651 245.313 210.478C243.473 210.306 241.619 210.579 239.907 211.275C238.195 211.97 236.676 213.068 235.478 214.475C234.28 215.882 233.439 217.557 233.026 219.358C232.42 221.884 236.317 222.964 236.922 220.429C238.197 215.127 243.809 212.852 248.426 215.752C250.646 217.138 252.677 213.647 250.476 212.266Z" fill="#F7A551"/>
<path d="M247.351 162.558C246.35 161.284 245.072 160.254 243.614 159.546C242.156 158.837 240.557 158.469 238.936 158.469C237.315 158.469 235.715 158.837 234.258 159.546C232.8 160.254 231.522 161.284 230.521 162.558C229.12 164.319 231.606 166.839 233.021 165.059C236.247 160.988 241.639 161.008 244.85 165.059C246.261 166.844 248.727 164.329 247.351 162.558Z" fill="#F7A551"/>
<path d="M179.038 189.501C177.037 183.619 175.327 173.827 166.879 174.882C164.648 175.162 164.623 178.703 166.879 178.418C173.251 177.623 174.146 186.11 175.627 190.421C176.362 192.591 179.778 191.671 179.038 189.501Z" fill="#F7A551"/>
<path d="M150.459 183.104C151.973 183.368 153.458 183.781 154.89 184.339C155.19 184.454 155.32 183.974 155.02 183.839C153.59 183.281 152.107 182.867 150.594 182.604C150.279 182.549 150.144 183.029 150.459 183.104Z" fill="#240B0B"/>
<path d="M166.909 275.428C165.249 275.047 163.539 274.927 161.842 275.073C159.477 275.516 157.165 276.207 154.945 277.134C151.041 278.686 147.381 280.792 144.076 283.385C143.921 283.12 143.501 283.385 143.646 283.651L143.676 283.701L143.501 283.831C143.251 284.036 143.611 284.391 143.861 284.191C143.861 284.166 142.966 284.251 142.991 284.231C144.196 285.896 147.357 285.926 149.313 285.691C152.263 285.341 155.184 284.785 158.056 284.026C160.977 283.235 168.929 283.05 166.909 275.428Z" fill="#32544B"/>
<path d="M131.347 124.483C128.721 122.122 130.912 117.746 130.877 114.68C130.842 112.325 130.364 109.997 129.467 107.819C128.422 105.236 126.808 102.923 124.745 101.052C122.464 99.0113 119.463 97.881 117.363 95.6454C114.041 92.1145 114.362 83.9773 108.405 83.5272C104.818 83.2521 99.3266 81.6367 96.5907 83.8923C91.7941 87.8233 90.5437 87.7033 88.373 91.1642C87.0576 93.297 86.2056 95.6826 85.8721 98.1661C85.5821 100.352 85.7121 102.602 84.2266 104.418C82.7411 106.233 80.8305 107.619 79.375 109.479C77.3193 112.12 75.3036 115.451 76.2089 118.922C76.5233 120.04 77.0697 121.079 77.8126 121.972C78.5554 122.864 79.4781 123.591 80.5204 124.103C81.1647 124.426 81.7579 124.842 82.281 125.338C82.481 125.533 87.9028 127.999 88.9082 128.074C94.3049 128.459 98.8665 126.194 103.628 124.073C106.584 122.753 109.595 121.797 112.821 122.748C115.717 123.603 118.128 125.633 120.879 126.824C124.165 128.244 128.006 128.359 130.487 125.658C131.187 125.983 132.007 125.048 131.347 124.483Z" fill="#6E1E00"/>
<path d="M161.257 121.367C161.145 119.291 160.289 117.324 158.846 115.826C157.761 114.721 156.345 114.2 155.13 113.325C153.449 112.125 152.724 110.324 152.309 108.364C151.064 102.477 151.559 95.0704 145.192 91.9996C139.465 89.2489 133.873 94.3352 130.852 98.7664C126.671 104.898 125.145 112.32 121.914 118.922C121.824 118.978 121.752 119.057 121.704 119.152C121.657 119.246 121.636 119.352 121.644 119.457C121.524 119.692 121.409 119.957 121.284 120.167C121.204 120.312 121.172 120.479 121.193 120.643C121.213 120.808 121.285 120.961 121.399 121.082L121.679 121.422C121.776 121.549 121.917 121.636 122.074 121.667C122.979 124.868 125.075 127.629 128.411 128.699C133.603 130.35 137.359 125.644 142.356 125.769C147.237 125.899 149.733 131.61 154.695 130.94C159.066 130.355 162.362 125.128 162.742 121.082C162.772 120.527 161.697 121.392 161.257 121.367Z" fill="#6E1E00"/>
<path d="M129.052 115.301C128.551 109.77 126.521 104.603 123.825 99.7619C121.714 95.9809 118.253 91.6197 113.471 93.1251C113.161 92.625 112.251 92.535 112.101 93.2752C110.737 100.023 108.837 106.65 106.419 113.095C105.119 116.541 103.673 119.947 102.053 123.258C101.598 124.2 101.064 125.102 100.457 125.954C101.702 129.505 104.793 132.396 108.175 134.191C110.62 135.542 113.346 136.306 116.137 136.422C118.5 136.44 120.829 135.862 122.909 134.741C122.96 132.556 123.84 130.425 124.6 128.415C126.151 124.297 127.709 120.184 129.277 116.076C129.34 115.942 129.352 115.789 129.311 115.646C129.269 115.503 129.177 115.381 129.052 115.301Z" fill="#FFB687"/>
<path d="M78.4901 201.794C77.1197 199.183 73.5235 192.866 71.2777 194.672C71.1515 194.7 71.0349 194.761 70.94 194.849C70.8451 194.937 70.7752 195.048 70.7375 195.172C70.7354 195.197 70.7354 195.222 70.7375 195.247C70.4925 195.557 68.6719 195.082 68.4918 195.522C68.3868 195.777 67.2764 194.957 67.3964 195.112C63.19 207.615 61.4945 218.618 58.4735 231.477C56.7379 238.724 52.6615 266.586 53.9019 274.838C54.097 276.118 55.9676 276.839 57.193 276.439C58.4955 276 59.8213 275.634 61.1644 275.343C63.2897 274.819 65.4802 274.608 67.6665 274.718C67.9756 273.789 68.2261 272.842 68.4168 271.882C69.112 268.526 69.9173 263.17 70.7826 259.849C72.4431 253.397 74.4988 247.056 76.4794 240.699C78.5101 234.197 80.7709 227.531 81.7262 220.749C82.5994 214.248 81.4705 207.636 78.4901 201.794Z" fill="#004500"/>
<path d="M145.092 92.475C144.937 88.7465 143.945 85.1006 142.191 81.8072C136.689 72.0796 119.943 71.9695 113.001 80.2768C110.659 83.109 109.336 86.6462 109.245 90.3204C109.155 93.9946 110.301 97.5928 112.501 100.537C113.314 101.639 113.784 102.956 113.851 104.323C113.922 106.413 114.2 108.49 114.682 110.525C115.567 114.131 118.323 115.841 121.489 117.527C125.275 119.527 129.942 121.528 134.318 120.793C139.355 119.937 141.421 114.996 142.561 110.515C144.041 104.628 145.442 98.5616 145.092 92.475Z" fill="#FFB687"/>
<path d="M177.377 306.982C176.717 301.935 175.737 296.859 173.841 292.118C171.84 287.086 168.204 283.666 165.308 279.219C163.808 276.884 162.872 274.188 162.157 271.512C161.952 270.767 160.592 263.31 160.417 263.29C160.572 263.307 160.729 263.276 160.867 263.201C161.004 263.126 161.115 263.011 161.185 262.871C161.254 262.731 161.28 262.572 161.257 262.418C161.234 262.263 161.164 262.119 161.057 262.005C160.803 261.758 160.524 261.537 160.226 261.345C160.181 261.265 160.131 261.165 160.081 261.08C160.071 260.918 160.013 260.763 159.915 260.634C159.817 260.504 159.683 260.407 159.529 260.354C159.376 260.3 159.211 260.293 159.054 260.334C158.897 260.374 158.755 260.459 158.646 260.579C156.575 259.936 154.385 259.765 152.239 260.079C150.86 260.236 149.532 260.695 148.351 261.423C147.169 262.151 146.162 263.13 145.402 264.29C145.344 264.37 145.305 264.461 145.286 264.558C145.268 264.654 145.271 264.753 145.295 264.849C145.318 264.944 145.363 265.033 145.424 265.109C145.486 265.185 145.564 265.247 145.652 265.291C145.55 265.38 145.474 265.495 145.433 265.623C145.392 265.752 145.386 265.889 145.417 266.021C146.417 270.689 147.609 275.315 148.993 279.9C149.027 280.012 149.085 280.117 149.163 280.205C150.758 286.206 151.539 292.478 154.325 298.049C154.64 298.693 154.81 299.398 154.825 300.115C154.89 302.796 154.96 305.476 155.1 308.147C155.2 310.013 155.52 313.148 158.101 311.428C160.041 310.163 160.101 307.022 160.101 304.836C160.216 306.927 160.277 309.027 160.377 311.153C160.462 312.873 161.227 315.864 163.683 314.959C164.763 314.564 164.933 313.573 165.058 312.563C165.272 310.515 165.379 308.456 165.378 306.397C165.378 305.931 165.378 305.466 165.378 305.001C165.878 307.892 166.018 310.853 166.339 313.769C166.454 314.829 166.469 315.809 167.129 316.684C167.629 317.354 169.094 316.964 169.43 316.354C170.61 314.204 170.115 309.607 169.93 307.257C169.895 306.757 169.85 306.312 169.805 305.866C170.445 306.227 171.135 306.437 171.665 306.137L171.725 306.382C172.18 308.322 172.631 314.629 175.442 314.494C177.642 314.394 177.917 311.118 177.377 306.982Z" fill="#FFB687"/>
<path d="M165.699 279.85C166.699 279.8 167.244 278.714 167.199 277.704C166.904 267.936 160.502 245.33 157.641 235.253C155.075 226.21 155.83 216.718 155.955 207.43C156.082 197.965 156.209 188.494 156.336 179.018C156.446 170.676 156.386 158.703 150.134 150.24C150.003 150.06 144.247 149.77 141.471 151.496C137.969 153.661 137.374 160.573 136.709 164.339C134.708 175.577 132.818 186.845 130.922 198.083C129.972 203.711 129.037 209.339 128.116 214.967C127.266 220.154 126.116 225.47 126.536 230.752C127.306 240.139 130.707 248.801 132.838 257.874C134.153 263.45 136.284 281.495 143.071 284.651C147.728 286.812 144.577 280.955 165.699 279.85Z" fill="#004500"/>
<path d="M135.689 248.816C135.665 248.667 135.603 248.526 135.508 248.409C135.413 248.291 135.289 248.201 135.148 248.146C134.856 248.057 134.596 247.883 134.403 247.646C131.067 243.11 127.401 239.144 122.464 236.203C117.114 233.11 111.215 231.082 105.093 230.231C97.951 229.166 90.7186 229.346 83.5412 229.971C80.2401 230.261 76.709 230.361 73.4879 231.212C71.4872 231.742 69.8317 232.902 68.1461 234.017C67.9284 234.164 67.6792 234.258 67.4185 234.291C67.1579 234.324 66.8931 234.296 66.6456 234.207C66.5161 234.15 66.376 234.122 66.2345 234.123C66.093 234.124 65.9533 234.155 65.8247 234.214C65.6962 234.273 65.5816 234.359 65.4886 234.465C65.3956 234.572 65.3262 234.697 65.2852 234.833C57.6626 259.479 55.9371 285.391 55.627 311.063C55.627 311.908 87.4925 313.539 99.7566 312.788C107.409 312.318 115.072 312.068 122.764 311.953C127.526 311.883 137.769 311.033 141.731 310.688C142.169 310.65 142.576 310.444 142.867 310.113C143.158 309.782 143.309 309.352 143.291 308.912C142.39 288.707 139.847 268.609 135.689 248.816Z" fill="#C8BDDC"/>
<path d="M137.414 99.2117C138.509 100.542 139.26 103.138 137.039 103.863C136.734 103.963 136.864 104.443 137.174 104.363C139.76 103.518 139.12 100.517 137.769 98.8616C137.564 98.6165 137.214 98.9716 137.414 99.2167V99.2117Z" fill="#BF604D"/>
<path d="M113.062 276.334C111.411 278.759 108.405 280.99 107.655 283.931C107.312 285.535 107.052 287.156 106.874 288.787C105.755 296.355 104.187 303.851 102.178 311.233C102.16 311.299 102.169 311.37 102.203 311.429C102.238 311.489 102.294 311.532 102.36 311.55C102.427 311.568 102.498 311.559 102.557 311.525C102.617 311.491 102.66 311.434 102.678 311.368C104.676 304.06 106.237 296.64 107.355 289.147C107.605 287.492 107.76 285.781 108.15 284.146C108.447 283.186 108.929 282.294 109.57 281.52C110.821 279.814 112.336 278.329 113.527 276.579C113.707 276.314 113.277 276.078 113.097 276.329L113.062 276.334Z" fill="#240B0B"/>
<path d="M135.34 103.058C134.948 102.74 134.476 102.54 133.976 102.479C133.476 102.418 132.969 102.499 132.513 102.712C132.218 102.827 132.348 103.313 132.648 103.213C133.02 103.027 133.436 102.949 133.85 102.988C134.264 103.027 134.659 103.181 134.989 103.433C135.23 103.638 135.585 103.288 135.34 103.078V103.058Z" fill="#BF604D"/>
<path d="M153.77 164.704C155.07 156.202 150.669 150.035 144.767 143.783C139.09 137.782 132.408 134.486 125.32 130.345C125.015 130.17 124.625 131.735 124.445 131.435C124.357 131.298 124.238 131.185 124.097 131.105C123.956 131.025 123.797 130.98 123.635 130.975C118.548 130.755 114.552 127.259 109.93 125.553C108.22 124.923 106.014 124.178 104.163 124.453C103.733 124.513 103.324 124.674 102.968 124.923C102.693 125.119 102.382 125.257 102.053 125.329C101.724 125.401 101.383 125.406 101.052 125.343C100.936 125.324 100.818 125.329 100.703 125.356C100.589 125.384 100.482 125.434 100.387 125.503C95.1803 129.039 88.7232 128.504 83.2213 131.345C76.294 134.896 71.5375 141.278 69.6869 148.785C65.1854 167.06 66.5408 188.205 64.015 207.745C63.99 207.945 65.3204 216.468 65.2754 216.668C62.0893 231.137 64.125 243.955 66.7109 258.419C67.5511 263.135 72.1227 276.549 75.7139 278.089C88.7182 283.695 103.128 283.715 117.028 284.471C121.189 284.694 125.357 284.794 129.532 284.771C133.098 284.746 137.299 285.126 140.675 283.735C143.446 282.595 144.517 280.235 144.452 277.374C144.357 273.158 143.761 268.897 143.346 264.7C142.426 255.443 141.141 246.756 139.845 237.548C139.833 237.405 139.833 237.261 139.845 237.118C140.525 223.665 143.191 210.336 142.881 196.867C142.87 196.459 142.968 196.055 143.166 195.697L143.992 194.197C148.233 186.375 152.404 173.656 153.77 164.704Z" fill="#004500"/>
<path d="M143.126 95.5456C142.316 95.2005 141.626 95.8207 141.181 96.4358C140.827 96.9071 140.577 97.4472 140.445 98.0212C140.24 98.9915 140.475 101.022 141.871 100.897C142.621 100.832 143.041 100.167 143.346 99.5566C143.856 98.5164 144.617 96.1907 143.126 95.5456Z" fill="#240B0B"/>
<path d="M129.092 91.8646C128.182 91.4845 127.416 92.1497 126.921 92.8149C126.527 93.3187 126.247 93.9024 126.101 94.5253C125.881 95.5756 126.151 97.7712 127.722 97.6462C128.557 97.5812 129.027 96.866 129.362 96.2058C129.927 95.0855 130.768 92.5698 129.092 91.8646Z" fill="#240B0B"/>
<path d="M146.887 92.5098C146.567 90.7843 145.027 88.6187 143.151 88.8238C141.896 88.9638 140.445 90.3242 140.455 91.6495C140.453 91.9644 140.566 92.2693 140.773 92.5062C140.981 92.7431 141.268 92.8957 141.581 92.9349C142.031 93.0449 142.491 92.9699 142.941 93.1099C143.547 93.3535 144.111 93.691 144.612 94.1102C146.067 95.1355 147.192 94.0752 146.887 92.5098Z" fill="#6E1E00"/>
<path d="M130.721 85.2527C128.766 84.8926 126.385 85.3477 124.859 86.7531C124.743 86.8262 124.645 86.9256 124.574 87.0432C124.567 87.0572 124.559 87.0706 124.549 87.0832C124.464 87.1782 124.369 87.2632 124.289 87.3633C124.198 87.4852 124.141 87.6286 124.123 87.7795C124.104 87.9303 124.125 88.0833 124.184 88.2235C124.514 89.0887 124.439 89.5538 125.54 89.6239C126.84 89.7039 128.04 89.4088 129.351 89.7989C130.003 90.0512 130.672 90.26 131.351 90.4241C131.781 90.5143 132.228 90.4555 132.619 90.2572C133.01 90.059 133.321 89.7332 133.502 89.3338C134.357 87.3733 132.427 85.5678 130.721 85.2527Z" fill="#6E1E00"/>
<path d="M128.686 122.598C128.106 121.773 127.156 121.933 126.296 122.043C120.964 122.733 115.567 121.653 110.535 119.902C109.472 119.532 108.421 119.122 107.384 118.672C106.384 118.242 105.629 117.822 104.528 118.257C102.028 119.227 100.672 121.898 99.5267 124.123C98.7717 125.557 98.1682 127.066 97.7261 128.625C97.4696 129.607 97.5015 130.643 97.8182 131.608C98.1349 132.573 98.7228 133.426 99.5117 134.066C102.058 136.282 105.384 137.827 108.515 139.027C111.31 140.11 114.259 140.744 117.253 140.908C119.533 141.028 122.754 141.173 124.715 139.828C124.894 139.705 125.03 139.53 125.105 139.327C125.174 139.225 125.236 139.118 125.29 139.007C126.506 136.977 127.196 134.596 127.791 132.316C128.261 130.545 128.676 128.76 128.972 126.949C129.212 125.484 129.637 123.983 128.686 122.598Z" fill="#004500"/>
<path d="M139.13 78.0008C139.13 77.8858 137.749 74.935 137.689 74.815C130.642 61.5815 111.796 65.3124 103.213 74.96C102.353 75.9512 101.556 76.9952 100.827 78.0858C98.8814 80.9716 97.1758 83.9274 94.3549 86.0029C91.8541 87.8434 89.2182 89.5039 88.0728 92.5397C87.3853 94.5241 87.098 96.6252 87.2275 98.7213C87.2793 99.802 87.3911 100.879 87.5626 101.947C87.6377 102.447 88.3579 104.553 88.1328 104.918C88.0351 105.075 87.9847 105.258 87.9878 105.443C87.9878 110.359 93.5496 126.809 98.3612 125.949C104.193 124.948 117.012 121.737 112.931 101.942C112.846 101.547 111.681 99.6316 111.961 99.3465C114.277 96.9508 114.412 98.6163 117.373 97.346C120.043 96.2257 123.325 95.1304 124.74 92.6597C127.506 87.8284 130.382 76.3754 138.304 79.7063C139.385 80.2164 139.91 78.671 139.13 78.0008Z" fill="#6E1E00"/>
<path d="M162.608 118.372C161.538 112.155 155.14 108.599 155.346 102.152C155.436 99.1815 156.081 93.2149 156.011 90.2391C155.951 87.5434 154.79 85.3678 153.265 83.1922C150.764 79.6463 147.608 77.9659 144.002 75.6152C143.764 75.459 143.56 75.2566 143.402 75.0201C139.19 68.7734 131.188 65.5676 121.519 66.3078C119.244 67.133 124.645 73.1396 127.441 73.9798C129.442 74.58 131.333 74.86 133.238 75.8903C135.144 76.9206 138.16 79.7413 138.305 79.7613C143.332 81.9019 143.036 87.2133 142.586 91.7645C142.276 94.8754 142.546 97.6361 144.022 100.417C145.497 103.198 147.693 105.563 149.314 108.254C150.526 110.153 151.246 112.326 151.408 114.573C151.569 116.821 151.168 119.074 150.239 121.127C150.179 121.261 150.157 121.407 150.174 121.552C149.674 122.553 149.289 123.553 149.674 124.638C150.184 126.212 151.141 127.602 152.43 128.639C154.19 129.96 156.721 130.045 158.192 128.639C161.768 126.669 163.298 122.363 162.608 118.372Z" fill="#6E1E00"/>
<path d="M138.19 78.6112C138.715 77.1108 137.234 76.0355 135.864 76.2256C133.748 76.5107 131.862 78.6112 130.722 80.2566C130.537 80.5217 130.967 80.7568 131.152 80.5117C131.897 79.4193 132.824 78.4634 133.893 77.686C134.407 77.2843 134.99 76.9793 135.614 76.7857C136.684 76.5107 138.179 77.1558 137.704 78.4762C137.594 78.7813 138.079 78.9113 138.205 78.6112H138.19Z" fill="#752F21"/>
<path d="M233.406 160.493C232.366 159.869 231.198 159.491 229.99 159.387C229.185 159.317 228.374 159.277 227.564 159.247C226.519 159.202 225.473 159.177 224.438 159.132C220.732 158.982 215.59 158.887 211.119 158.827C205.907 158.767 201.615 158.767 201.535 158.827C198.705 158.727 193.663 158.222 191.872 160.503C190.747 161.928 191.157 164.819 191.052 166.419C190.997 167.259 190.937 168.11 190.887 168.955C190.77 170.739 190.664 172.527 190.567 174.321C190.447 176.397 189.912 178.777 190.567 180.508C190.77 181.023 191.094 181.482 191.512 181.845C191.93 182.208 192.429 182.465 192.968 182.593C194.518 183.094 213.594 183.449 222.773 183.464C224.858 183.464 226.434 183.464 227.169 183.424C229.445 183.314 230.91 183.354 231.58 180.988C232.291 178.25 232.734 175.449 232.906 172.626C233.011 171.395 233.101 170.17 233.201 168.99C233.396 166.874 234.256 161.068 233.406 160.493Z" fill="#504FB3"/>
<path d="M114.356 105.978C114.786 109.109 115.246 112.88 117.637 115.201C118.973 116.399 120.424 117.463 121.969 118.377C123.55 119.434 125.322 120.174 127.185 120.557C127.501 120.617 127.636 120.132 127.315 120.057C125.49 119.674 123.757 118.942 122.209 117.902C120.701 117.01 119.286 115.971 117.982 114.801C115.667 112.54 115.246 108.844 114.826 105.798C114.781 105.478 114.326 105.613 114.326 105.928L114.356 105.978Z" fill="#FFB687"/>
<path d="M205.042 153.761C203.117 152.986 200.321 154.026 198.325 154.146C195.219 154.331 192.128 153.436 189.037 153.846C184.67 154.426 181.189 157.222 178.118 160.193C178.118 160.193 175.212 163.454 174.617 165.069C174.047 166.569 174.882 168.42 175.342 169.86C176.638 173.956 177.918 179.073 180.769 182.399C180.824 182.456 180.891 182.5 180.966 182.527C181.041 182.553 181.121 182.561 181.2 182.55C181.279 182.54 181.354 182.51 181.419 182.465C181.484 182.419 181.537 182.359 181.574 182.289C181.602 182.236 181.647 182.195 181.702 182.172C181.757 182.149 181.818 182.146 181.874 182.164C184.315 182.794 184.51 180.163 187.016 179.888C188.017 179.778 191.053 181.889 191.588 181.543C191.682 181.534 191.772 181.496 191.845 181.435C191.917 181.373 191.969 181.29 191.993 181.198C192.323 180.773 193.588 183.099 193.548 182.199C193.548 182.199 194.874 174.006 194.859 173.986C193.058 171.576 191.858 168.775 191.913 165.804C191.948 163.724 192.958 160.068 195.694 160.453C197.419 160.57 199.152 160.454 200.846 160.108C202.346 159.793 206.123 157.607 206.438 156.562C206.532 156.286 206.571 155.995 206.552 155.704C206.533 155.414 206.456 155.13 206.326 154.869C206.197 154.609 206.016 154.376 205.796 154.186C205.575 153.996 205.319 153.851 205.042 153.761Z" fill="#FDAC84"/>
<path d="M146.137 114.626C146.722 115.126 147.193 115.744 147.521 116.44C147.848 117.136 148.023 117.894 148.036 118.663C148.048 119.432 147.897 120.194 147.592 120.9C147.287 121.607 146.836 122.24 146.267 122.758C146.032 122.978 146.387 123.328 146.622 123.108C147.237 122.543 147.725 121.855 148.054 121.088C148.384 120.321 148.548 119.494 148.535 118.659C148.522 117.825 148.333 117.002 147.98 116.246C147.627 115.49 147.119 114.817 146.487 114.271C146.247 114.061 145.892 114.411 146.137 114.626Z" fill="#752F21"/>
<path d="M99.0667 83.3874C96.5309 87.1784 96.5659 91.8197 96.2958 96.2058C96.1457 98.6065 96.0357 102.207 92.7096 101.897C90.4488 101.672 88.6482 101.517 86.7076 102.898C86.4475 103.083 86.7076 103.518 86.9577 103.333C88.13 102.461 89.577 102.04 91.034 102.147C92.1344 102.237 93.2798 102.648 94.3701 102.252C95.9357 101.677 96.4408 99.8618 96.6309 98.3764C97.2711 93.3751 96.5659 88.0287 99.5168 83.6225C99.6919 83.3574 99.2618 83.1224 99.0817 83.3724L99.0667 83.3874Z" fill="#752F21"/>
<path d="M202.711 179.573C199.265 178.848 195.924 175.927 194.063 173.001C192.297 170.23 190.772 165.999 192.242 162.818C192.698 162.203 194.343 158.857 195.483 158.682C196.049 158.597 190.957 158.047 188.981 158.577C187.006 159.107 185.945 160.928 185.215 162.578C184.125 165.019 183.825 167.755 183.369 170.35C183.104 171.896 182.869 173.446 182.564 174.987C182.314 176.312 181.759 177.512 181.429 178.798C181.014 178.943 179.983 180.163 180.348 180.603C182.389 183.013 184.977 184.9 187.896 186.105C190.127 187.055 192.853 186.83 195.473 186.605C197.029 187.409 198.73 187.892 200.476 188.026C202.222 188.16 203.977 187.942 205.637 187.385C205.777 187.42 206.697 186.385 207.137 185.769C207.197 185.684 208.753 185.524 209.073 185.314C209.658 184.939 210.323 184.214 210.328 183.484C210.328 180.773 204.662 180.008 202.761 179.623L202.711 179.573Z" fill="#FDAC84"/>
<path d="M144.927 102.402C146.357 104.328 147.773 105.838 150.074 106.679C152.88 107.679 155.961 108.799 157.006 111.905C157.111 112.21 157.591 112.08 157.506 111.775C156.726 109.459 154.8 108.019 152.624 107.089C151.349 106.543 149.959 106.228 148.748 105.553C147.323 104.753 146.332 103.433 145.372 102.147C145.182 101.892 144.752 102.147 144.942 102.402H144.927Z" fill="#752F21"/>
<path d="M181.734 155.746C171.38 158.962 148.463 176.802 139.79 182.048C139.438 182.269 139.032 182.386 138.617 182.386C138.202 182.386 137.795 182.269 137.444 182.048C136.613 181.473 135.671 181.079 134.678 180.893C133.493 180.683 132.677 181.063 131.522 181.138C128.951 181.298 126.065 179.598 124.58 177.837C119.911 172.273 115.48 166.514 111.285 160.563C107.404 155.061 103.908 149.305 100.322 143.588C99.0911 141.633 97.7057 139.637 95.735 138.347C94.9689 137.865 94.1215 137.526 93.2342 137.347C91.3185 136.246 89.2329 135.266 87.2322 134.921C85.1265 134.556 83.2909 135.546 81.7604 136.921C77.714 140.577 76.8487 146.559 76.3486 151.695C75.0773 165.293 77.316 178.99 82.8507 191.476C82.903 191.621 83.0091 191.74 83.1469 191.809C83.2847 191.878 83.4437 191.891 83.591 191.846C83.676 191.991 83.761 192.141 83.8561 192.281C83.8765 192.435 83.9447 192.578 84.0511 192.691C89.798 199.073 95.675 205.585 102.972 210.291C109.378 214.324 116.571 216.944 124.069 217.978C133.713 219.243 142.391 213.517 150.108 208.475C158.811 202.804 163.142 198.353 170.035 190.536C174.251 185.759 176.217 186.95 181.223 185.074C182.324 184.664 183.094 183.444 182.664 182.354C179.588 174.561 180.558 161.468 183.129 156.502C183.439 155.902 182.384 155.546 181.734 155.746Z" fill="#004500"/>
<path d="M63.6649 226.415C63.4748 229.873 63.4365 233.327 63.5499 236.778C63.5499 237.098 64.05 237.103 64.05 236.778C63.94 233.324 63.9783 229.87 64.1651 226.415C64.1651 226.095 63.6649 226.095 63.6649 226.415Z" fill="#240B0B"/>
<path d="M76.9239 183.859C83.4261 197.468 95.15 208.901 109.235 214.407C113.351 216.018 117.737 217.493 122.159 217.848C126.365 218.104 130.58 217.537 134.568 216.178C142.211 213.732 149.228 209.516 155.835 205.04C156.1 204.86 155.835 204.43 155.58 204.61C149.578 208.666 143.291 212.477 136.479 214.993C132.372 216.493 128.031 217.533 123.629 217.428C119.903 217.338 116.332 216.348 112.816 215.173C105.248 212.647 98.396 208.896 92.4941 203.51C86.287 197.838 80.9903 191.206 77.3541 183.604C77.219 183.314 76.7839 183.569 76.9239 183.859Z" fill="#240B0B"/>
<path d="M138.305 183.044C134.088 182.574 130.097 184.354 126.491 186.355C122.819 188.404 119.415 190.9 116.357 193.787C116.122 194.012 116.477 194.362 116.713 194.142C119.632 191.385 122.871 188.987 126.361 187C129.997 184.944 134.023 183.064 138.305 183.544C138.625 183.584 138.625 183.079 138.305 183.044Z" fill="#240B0B"/>
<path d="M128.376 183.449C121.927 181.6 115.046 181.952 108.82 184.449C108.524 184.569 108.649 185.049 108.95 184.949C115.092 182.482 121.881 182.13 128.246 183.949C128.312 183.966 128.383 183.956 128.442 183.921C128.501 183.887 128.544 183.83 128.561 183.764C128.578 183.697 128.569 183.627 128.534 183.568C128.499 183.509 128.442 183.466 128.376 183.449Z" fill="#240B0B"/>
<path d="M155.58 171.391C150.919 174.017 146.527 177.153 142.111 180.158C141.278 180.804 140.406 181.397 139.5 181.934C138.5 182.434 137.944 181.709 137.229 181.194C136.708 180.82 136.107 180.575 135.474 180.478C133.998 180.223 132.528 180.623 131.097 180.979C130.317 181.238 129.503 181.383 128.681 181.409C127.611 181.334 126.721 180.248 125.99 179.553C121.184 174.997 117.683 169.295 114.076 163.794C110.371 158.03 106.356 152.472 102.047 147.145C100.322 145.039 98.7364 142.973 96.4806 141.443C94.685 140.218 92.7544 138.842 90.7087 138.072C90.4086 137.957 90.2785 138.442 90.5736 138.572C92.5743 139.328 94.4699 140.698 96.2305 141.893C98.4413 143.394 100.007 145.459 101.692 147.52C106.138 153.033 110.277 158.787 114.091 164.754C117.618 170.176 121.154 175.757 125.93 180.193C126.931 181.134 127.626 182.009 129.061 181.889C130.782 181.754 132.398 181.009 134.123 180.929C135.212 180.83 136.299 181.142 137.169 181.804C137.503 182.119 137.881 182.385 138.289 182.594C139.215 182.964 139.89 182.294 140.62 181.794C145.622 178.403 150.559 174.792 155.835 171.841C156.115 171.686 155.86 171.251 155.58 171.411V171.391Z" fill="#240B0B"/>
<path d="M167.699 172.741C167.949 174.501 168.114 176.242 168.764 177.917C169.765 180.518 171.56 182.719 173.456 184.724C173.676 184.959 174.031 184.604 173.811 184.369C171.865 182.308 170.01 180.028 169.074 177.317C168.628 175.78 168.33 174.204 168.184 172.611C168.139 172.291 167.654 172.426 167.684 172.741H167.699Z" fill="#240B0B"/>
<path d="M189.236 177.402C192.547 183.174 199.659 185.904 206.072 185.904C206.138 185.904 206.201 185.878 206.248 185.831C206.295 185.784 206.322 185.721 206.322 185.654C206.322 185.588 206.295 185.524 206.248 185.477C206.201 185.431 206.138 185.404 206.072 185.404C199.834 185.439 192.892 182.784 189.666 177.162C189.632 177.106 189.577 177.066 189.513 177.051C189.449 177.035 189.382 177.045 189.326 177.078C189.269 177.112 189.228 177.166 189.211 177.229C189.195 177.293 189.203 177.36 189.236 177.417V177.402Z" fill="#BF604D"/>
<path d="M185.676 180.468C187.516 183.19 190.333 185.099 193.543 185.8C193.858 185.865 193.993 185.385 193.678 185.3C190.593 184.637 187.882 182.81 186.111 180.198C185.931 179.933 185.496 180.198 185.676 180.453V180.468Z" fill="#BF604D"/>
<path d="M139.14 75.1352C138.75 73.8075 138.073 72.5817 137.157 71.5446C136.24 70.5075 135.108 69.6844 133.838 69.1336C133.548 69.0036 133.293 69.4337 133.583 69.5637C134.796 70.0828 135.88 70.8635 136.757 71.85C137.633 72.8364 138.282 74.0043 138.655 75.2702C138.672 75.3365 138.716 75.393 138.776 75.4273C138.835 75.4615 138.906 75.4707 138.972 75.4528C139.039 75.4349 139.095 75.3913 139.129 75.3318C139.163 75.2722 139.173 75.2015 139.155 75.1352H139.14Z" fill="#752F21"/>
<path d="M119.294 99.1818C119.484 95.9409 117.573 92.41 115.012 91.8448C111.586 91.0896 111.131 95.2557 111.226 97.1513C111.336 99.3168 112.391 104.468 115.792 104.748C118.248 104.978 119.149 101.597 119.294 99.1818Z" fill="#FFB687"/>
<path d="M114.376 93.9452C114.201 94.1303 114.336 94.0552 114.616 94.3053C114.935 94.5986 115.211 94.9353 115.437 95.3056C116.232 96.7033 116.742 98.2453 116.937 99.8418C116.992 100.162 117.472 100.027 117.437 99.7117C117.122 97.8512 116.612 95.8507 115.377 94.3653C115.196 94.1453 114.406 93.17 114.026 93.5651C113.801 93.7952 114.156 94.1503 114.376 93.9202V93.9452Z" fill="#BF604D"/>
<path d="M140.495 79.1211C141.66 78.7613 142.89 78.6644 144.096 78.8374C145.303 79.0104 146.456 79.4489 147.472 80.1214C149.973 81.7669 150.974 84.6226 151.339 87.4634C152.004 92.7148 151.134 98.3012 154.34 102.927C154.52 103.193 154.955 102.927 154.77 102.677C152.884 99.9767 152.279 96.4758 152.134 93.2699C151.999 90.2691 152.134 87.2083 151.159 84.3375C149.623 79.8363 144.977 77.2256 140.36 78.636C140.055 78.731 140.185 79.2162 140.495 79.1362V79.1211Z" fill="#752F21"/>
<path d="M142.796 89.5138C142.522 90.2684 142.373 91.0625 142.355 91.865C142.355 91.9313 142.382 91.9949 142.429 92.0418C142.476 92.0887 142.539 92.1151 142.606 92.1151C142.672 92.1151 142.736 92.0887 142.782 92.0418C142.829 91.9949 142.856 91.9313 142.856 91.865C142.876 91.1065 143.02 90.3563 143.281 89.6439C143.391 89.3438 142.906 89.2087 142.781 89.5138H142.796Z" fill="#752F21"/>
<path d="M127.641 85.8581C127.14 86.7282 126.722 87.6445 126.396 88.5944C126.291 88.8995 126.771 89.0296 126.896 88.7244C127.211 87.8166 127.612 86.9406 128.092 86.1082C128.117 86.0518 128.121 85.9879 128.102 85.9289C128.083 85.8699 128.043 85.8201 127.989 85.7889C127.936 85.7578 127.873 85.7477 127.812 85.7604C127.752 85.7732 127.698 85.808 127.661 85.8581H127.641Z" fill="#752F21"/>
<path d="M121.144 70.3491C114.642 74.7152 112.331 83.8527 112.991 91.2796C113.021 91.5997 113.521 91.5997 113.491 91.2796C112.846 84.0327 114.992 75.0503 121.394 70.7742C121.659 70.5941 121.394 70.164 121.144 70.3391V70.3491Z" fill="#752F21"/>
<path d="M109.5 79.9713C108.738 81.6964 108.43 83.5876 108.605 85.4653C108.78 87.343 109.433 89.1447 110.501 90.6992C110.681 90.9642 111.116 90.6992 110.931 90.4491C109.907 88.9704 109.278 87.2549 109.103 85.4651C108.928 83.6752 109.213 81.8703 109.93 80.2214C110.055 79.9313 109.625 79.6762 109.495 79.9713H109.5Z" fill="#752F21"/>
<path d="M98.3006 127.084C98.3006 128.014 98.0806 129.084 98.5857 129.935C99.266 131.085 100.816 131.86 101.907 132.53C104.754 134.265 107.871 135.511 111.13 136.216C114.483 136.947 117.944 137.03 121.328 136.461C122.749 136.216 124.414 135.961 125.69 135.216C126.58 134.716 126.975 133.871 127.31 132.935C127.42 132.635 126.935 132.505 126.81 132.805C126.647 133.394 126.329 133.929 125.89 134.353C125.45 134.777 124.904 135.075 124.309 135.216C122.777 135.711 121.199 136.046 119.598 136.216C116.658 136.515 113.689 136.328 110.81 135.661C108.166 135.053 105.621 134.078 103.247 132.765C101.992 132.12 100.807 131.345 99.7111 130.455C98.5957 129.484 98.7358 128.454 98.7708 127.104C98.7708 126.784 98.2706 126.784 98.2706 127.104L98.3006 127.084Z" fill="#240B0B"/>
<path d="M231.821 160.373C221.647 160.373 211.474 160.143 201.31 159.927C200.99 159.927 200.99 160.428 201.31 160.428C211.484 160.643 221.657 160.868 231.821 160.873C231.887 160.873 231.95 160.847 231.997 160.8C232.044 160.753 232.071 160.689 232.071 160.623C232.071 160.557 232.044 160.493 231.997 160.446C231.95 160.399 231.887 160.373 231.821 160.373Z" fill="#240B0B"/>
<path d="M108.964 100.837C107.144 106.459 107.789 113.785 103.118 118.122C102.045 119.139 100.721 119.852 99.2813 120.187C97.5407 120.567 96.0052 120.107 94.4297 119.377C92.429 118.452 90.0982 117.351 88.0375 118.782C87.7775 118.962 88.0375 119.397 88.2926 119.212C91.1286 117.241 94.1296 120.347 96.9505 120.772C99.4513 121.147 101.992 119.972 103.743 118.212C108.214 113.71 107.619 106.609 109.45 100.972C109.545 100.662 109.065 100.532 108.949 100.837H108.964Z" fill="#752F21"/>
<path d="M107.239 101.592C105.739 104.768 103.908 108.159 100.322 109.279C100.017 109.379 100.147 109.86 100.457 109.78C104.178 108.594 106.099 105.158 107.679 101.842C107.815 101.552 107.384 101.297 107.244 101.592H107.239Z" fill="#752F21"/>
<path d="M138.12 106.899C138.095 106.734 137.975 106.618 137.724 106.588C135.988 106.416 134.266 106.118 132.573 105.698C131.612 105.453 130.362 104.833 129.352 104.908C129.258 104.906 129.165 104.931 129.084 104.98C129.004 105.029 128.939 105.099 128.896 105.183C128.431 106.223 129.477 107.394 130.207 108.154C131.662 109.654 134.708 110.905 136.634 109.529C136.944 109.309 138.22 107.549 138.12 106.899Z" fill="white"/>
<path d="M142.951 212.657C142.216 221.564 140.16 230.511 140.595 239.479C140.815 243.98 141.7 248.451 142.346 252.912C143.062 257.834 143.636 262.772 144.066 267.726C144.3 270.417 144.493 273.111 144.646 275.808C144.771 278.004 145.217 281.05 143.146 282.53C142.891 282.715 143.146 283.15 143.401 282.96C144.551 282.13 145.021 280.9 145.177 279.514C145.417 277.334 145.096 275.048 144.951 272.868C144.618 267.803 144.128 262.752 143.481 257.714C142.856 252.737 141.915 247.801 141.355 242.82C140.815 237.978 141.12 233.152 141.625 228.316C142.171 223.089 143.006 217.893 143.436 212.652C143.466 212.332 142.966 212.332 142.936 212.652L142.951 212.657Z" fill="#240B0B"/>
<path d="M151.239 222.875C149.339 222.91 147.893 225.27 146.923 226.661C145.539 228.655 144.486 230.861 143.807 233.192C143.798 233.225 143.796 233.259 143.8 233.293C143.804 233.327 143.815 233.359 143.832 233.389C143.849 233.418 143.872 233.444 143.899 233.465C143.926 233.486 143.957 233.501 143.989 233.51C144.022 233.519 144.056 233.521 144.09 233.517C144.124 233.512 144.156 233.501 144.186 233.484C144.215 233.467 144.241 233.445 144.262 233.418C144.283 233.391 144.298 233.36 144.307 233.327C144.858 231.435 145.66 229.625 146.693 227.946C147.224 227.089 147.814 226.27 148.458 225.495C149.164 224.65 150.059 223.4 151.259 223.375C151.326 223.375 151.389 223.348 151.436 223.301C151.483 223.255 151.509 223.191 151.509 223.125C151.509 223.058 151.483 222.995 151.436 222.948C151.389 222.901 151.326 222.875 151.259 222.875H151.239Z" fill="#240B0B"/>
<path d="M157.405 285.121C157.46 289.417 159.531 292.913 162.827 295.549C164.643 296.914 166.012 298.789 166.758 300.935C167.389 302.641 167.974 304.356 169.299 305.666C169.524 305.891 169.879 305.536 169.649 305.311C168.209 303.886 167.704 301.96 166.988 300.125C166.403 298.507 165.409 297.068 164.102 295.949C162.482 294.563 160.871 293.378 159.736 291.528C158.555 289.598 157.922 287.383 157.905 285.121C157.905 285.055 157.879 284.991 157.832 284.944C157.785 284.897 157.722 284.871 157.655 284.871C157.589 284.871 157.525 284.897 157.479 284.944C157.432 284.991 157.405 285.055 157.405 285.121Z" fill="#BF604D"/>
<path d="M167.789 289.667C169.189 291.912 170.376 294.283 171.335 296.749C172.336 299.32 173.336 302.145 172.781 304.931C172.716 305.246 173.196 305.381 173.281 305.061C173.846 302.315 172.956 299.605 171.996 297.059C170.984 294.392 169.713 291.83 168.199 289.412C168.165 289.356 168.11 289.316 168.046 289.301C167.983 289.285 167.915 289.295 167.859 289.328C167.802 289.362 167.761 289.416 167.745 289.479C167.728 289.543 167.737 289.61 167.769 289.667H167.789Z" fill="#BF604D"/>
<path d="M158.006 299.675C159.207 301.513 159.897 303.638 160.006 305.831C160.006 306.151 160.507 306.151 160.507 305.831C160.403 303.55 159.691 301.338 158.446 299.424C158.271 299.154 157.841 299.424 158.016 299.675H158.006Z" fill="#BF604D"/>
<path d="M163.833 298.709C164.575 300.38 165.176 302.11 165.629 303.881C165.647 303.947 165.69 304.004 165.75 304.038C165.809 304.072 165.88 304.081 165.946 304.063C166.013 304.045 166.069 304.002 166.103 303.942C166.138 303.883 166.147 303.812 166.129 303.746C165.664 301.934 165.048 300.164 164.288 298.454C164.158 298.164 163.723 298.419 163.853 298.709H163.833Z" fill="#BF604D"/>
<path d="M148.809 282.795C147.614 283.122 146.468 283.609 145.402 284.241C145.346 284.275 145.306 284.33 145.29 284.394C145.275 284.458 145.285 284.525 145.318 284.581C145.352 284.638 145.406 284.679 145.469 284.696C145.533 284.712 145.6 284.704 145.657 284.671C146.683 284.061 147.787 283.593 148.939 283.281C149.005 283.263 149.062 283.22 149.097 283.161C149.131 283.102 149.141 283.032 149.124 282.965C149.107 282.899 149.064 282.842 149.005 282.808C148.946 282.773 148.875 282.763 148.809 282.78V282.795Z" fill="#240B0B"/>
<path d="M147.337 166.13C148.16 169.374 148.484 172.725 148.297 176.067C148.297 176.392 148.798 176.392 148.798 176.067C148.979 172.678 148.641 169.282 147.797 165.994C147.779 165.928 147.736 165.872 147.676 165.837C147.617 165.803 147.546 165.794 147.48 165.812C147.413 165.83 147.357 165.873 147.323 165.933C147.288 165.992 147.279 166.063 147.297 166.13H147.337Z" fill="#240B0B"/>
<path d="M129.902 234.012C126.134 247.4 119.894 259.964 111.506 271.057C111.311 271.312 111.746 271.557 111.941 271.307C120.352 260.176 126.608 247.572 130.387 234.142C130.396 234.11 130.398 234.075 130.393 234.042C130.389 234.008 130.377 233.976 130.36 233.947C130.343 233.917 130.32 233.892 130.293 233.871C130.266 233.851 130.235 233.836 130.202 233.827C130.17 233.819 130.135 233.817 130.102 233.821C130.068 233.826 130.036 233.837 130.007 233.855C129.977 233.872 129.952 233.895 129.931 233.922C129.911 233.949 129.896 233.98 129.887 234.012H129.902Z" fill="#240B0B"/>
<path d="M64.5801 271.797C65.2653 284.251 65.2153 297.109 68.4414 309.242C68.4593 309.309 68.5028 309.365 68.5624 309.399C68.6219 309.434 68.6926 309.443 68.759 309.425C68.8253 309.407 68.8818 309.363 68.916 309.304C68.9503 309.244 68.9594 309.174 68.9415 309.107C65.7305 297.024 65.7855 284.206 65.1003 271.797C65.1003 271.477 64.6001 271.472 64.6001 271.797H64.5801Z" fill="#240B0B"/>
</g>
</svg>
