<svg width="400" height="436" viewBox="0 0 400 436" fill="none" xmlns="http://www.w3.org/2000/svg">
<mask id="mask0_127_48749" style="mask-type:alpha" maskUnits="userSpaceOnUse" x="0" y="0" width="400" height="401">
<ellipse cx="200" cy="200" rx="200" ry="200" fill="#D9D9D9"/>
</mask>
<g mask="url(#mask0_127_48749)">
<path d="M454.401 -53.9308H0.0253906V516.744H454.401V-53.9308Z" fill="#CCDEEA"/>
<path d="M148.129 5.70446C130.548 26.3173 114.626 48.2895 100.515 71.4149C86.293 94.7454 73.6989 119.029 62.8223 144.093C51.6501 169.708 42.1649 196.025 34.1526 222.806C25.5723 251.463 18.6703 280.607 13.1042 309.994C7.53813 339.281 3.31075 368.822 0.0567294 398.463C-0.354305 402.195 -0.750116 405.931 -1.1307 409.671C-1.17637 410.131 -0.465627 410.299 -0.419956 409.834C2.60571 380.159 6.54194 350.592 11.7626 321.231C16.9577 292.027 23.4229 263.022 31.4923 234.488C39.2306 207.113 48.4532 180.148 59.4141 153.889C69.8107 128.864 81.8768 104.565 95.5309 81.1563C109.295 57.6502 124.78 35.1427 142.058 14.0791C144.231 11.4312 146.432 8.80608 148.66 6.2038C148.971 5.84713 148.434 5.35635 148.129 5.70446Z" fill="#E8D7CC"/>
<path d="M-0.720296 411.332C-1.06689 411.331 -1.40445 411.221 -1.68508 411.018C-1.91531 410.853 -2.09767 410.631 -2.21352 410.372C-2.32937 410.114 -2.37455 409.83 -2.34445 409.549C-1.95054 405.671 -1.55093 401.896 -1.15987 398.329C2.30823 366.771 6.58984 337.798 11.8876 309.755C17.6764 279.206 24.7667 249.834 32.9674 222.441C41.2081 194.921 50.8702 168.393 61.6799 143.594C72.8691 117.948 85.5798 93.4488 99.4636 70.7788C113.617 47.604 129.579 25.5827 147.201 4.92001C147.333 4.76187 147.496 4.63188 147.68 4.5377C147.864 4.44352 148.065 4.38706 148.27 4.37163C148.476 4.35621 148.683 4.38214 148.879 4.4479C149.075 4.51366 149.255 4.61791 149.41 4.75452C149.571 4.88854 149.704 5.05336 149.801 5.23932C149.897 5.42529 149.956 5.62866 149.973 5.83752C149.99 6.04639 149.965 6.25654 149.9 6.45569C149.834 6.65483 149.73 6.83895 149.593 6.99727C147.309 9.67088 145.091 12.3131 143.008 14.8555C126.235 35.2942 110.616 57.8073 96.5835 81.7728C82.9618 105.139 70.9197 129.391 60.5381 154.366C49.9996 179.612 40.6201 206.682 32.6648 234.831C24.9808 262.003 18.3528 291.148 12.9694 321.454C8.01704 349.322 4.02087 378.276 0.795394 409.957C0.771866 410.223 0.678082 410.478 0.523622 410.696C0.369163 410.914 0.159564 411.087 -0.0837631 411.198C-0.284273 411.286 -0.501087 411.332 -0.720296 411.332Z" fill="#E5EEF4"/>
<path d="M201.129 147.346C183.568 155.515 166.863 165.41 151.263 176.887C135.608 188.388 121.252 201.556 108.447 216.161C95.7962 230.659 84.801 246.624 76.0294 263.758C65.314 284.682 57.9839 307.195 50.0543 329.272L24.8785 399.502C23.8166 402.469 22.7529 405.438 21.6872 408.407C21.5274 408.85 22.241 409.007 22.398 408.57L47.2056 339.367C55.2893 316.825 62.6794 293.807 72.7811 272.053C81.0738 254.289 91.5753 237.643 104.037 222.507C116.397 207.501 130.385 193.912 145.743 181.989C160.932 170.17 177.267 159.902 194.504 151.338C196.773 150.208 199.056 149.108 201.355 148.037C201.772 147.843 201.546 147.147 201.129 147.346Z" fill="#E8D7CC"/>
<path d="M22.0379 410.051C21.8061 410.052 21.5766 410.004 21.3656 409.907C21.1546 409.811 20.9671 409.67 20.8163 409.494C20.6437 409.29 20.5287 409.044 20.483 408.781C20.4374 408.517 20.4627 408.247 20.5565 407.996L48.9264 328.858C50.171 325.384 51.4079 321.904 52.6372 318.417C59.1509 299.976 65.8873 280.907 74.9529 263.202C83.5846 246.338 94.5484 230.24 107.539 215.356C120.399 200.687 134.816 187.459 150.538 175.906C166.205 164.381 182.979 154.441 200.612 146.23C200.853 146.113 201.121 146.063 201.388 146.083C201.654 146.104 201.911 146.195 202.131 146.347C202.36 146.513 202.542 146.735 202.659 146.992C202.776 147.249 202.823 147.533 202.796 147.814C202.773 148.097 202.675 148.368 202.513 148.6C202.35 148.832 202.129 149.017 201.871 149.135C199.513 150.237 197.219 151.344 195.052 152.422C177.891 160.952 161.625 171.175 146.499 182.939C131.212 194.812 117.288 208.342 104.981 223.28C92.5931 238.339 82.1531 254.898 73.9082 272.567C65.9844 289.633 59.6362 307.769 53.4849 325.308C51.8208 330.059 50.0996 334.97 48.3755 339.781L23.5679 408.981C23.4743 409.248 23.3109 409.486 23.0946 409.669C22.8783 409.852 22.617 409.974 22.3377 410.022C22.2389 410.042 22.1385 410.051 22.0379 410.051Z" fill="#E5EEF4"/>
<path d="M162.424 34.2385C155.539 40.2306 147.775 44.5306 139.135 47.461C134.984 48.8678 130.749 50.012 126.501 51.0848C122.377 52.1235 117.367 54.0866 113.18 52.4231C115.03 31.6907 123.699 12.1549 137.83 -3.13216C142.683 -8.37096 148.237 -13.5869 154.569 -16.9824C158.388 -19.034 162.612 -20.0669 166.905 -20.5178C170.813 -20.9287 175.234 -21.3738 178.768 -19.308C184.597 -15.921 186.272 -8.2397 185.75 -2.01078C184.514 12.7183 173.037 24.9964 162.424 34.2385Z" fill="#E5EEF4"/>
<path d="M89.9165 43.4006C89.0459 37.086 86.9079 30.5832 81.9698 26.2803C77.6654 22.5196 71.5855 20.6706 66.1421 22.9989C60.4904 25.4186 56.931 31.1339 54.2621 36.3927C50.8368 43.1266 49.5609 50.106 50.0347 57.6246C50.4549 64.0799 51.7444 70.449 53.8682 76.5596C58.5886 90.2084 67.1805 102.189 78.5959 111.04C79.2679 109.939 80.0839 108.932 81.0222 108.047C81.7415 106.041 82.341 103.994 82.8176 101.918C83.7852 97.9571 84.7443 93.9938 85.6491 90.019C87.4331 82.1694 88.9945 74.2513 89.848 66.239C90.6529 58.6861 90.9555 50.9335 89.9165 43.4006Z" fill="#E5EEF4"/>
<path d="M36.7428 146.838C34.8703 139.559 31.4878 132.232 25.1196 127.846C19.5678 124.023 12.1977 122.676 6.13785 126.134C-0.158974 129.735 -3.55286 136.911 -5.97055 143.431C-9.06187 151.78 -9.62418 160.129 -8.05426 168.872C-6.68785 176.376 -4.31639 183.661 -1.00388 190.532C6.38436 205.91 18.0972 218.8 32.701 227.626C33.0863 227.443 35.8693 220.039 36.3346 216.324C36.934 211.553 37.522 206.779 38.0472 202C39.0777 192.567 39.837 183.082 39.7599 173.583C39.6714 164.638 38.9778 155.524 36.7428 146.838Z" fill="#E5EEF4"/>
<path d="M140.394 135.042C138.95 129.652 134.4 127.176 129.085 126.839C115.495 125.983 101.528 130.312 89.4087 136.127C82.1585 139.605 75.0453 143.74 68.6029 148.565C65.6046 150.848 62.8327 153.413 60.3251 156.226C59.0092 157.678 57.739 159.173 56.4888 160.68C56.2033 161.011 55.7837 161.416 55.367 161.858C55.1415 162.715 54.9817 163.571 54.7305 164.427C54.8777 164.398 55.0079 164.313 55.093 164.19C55.093 164.175 55.113 164.155 55.1244 164.141C70.1243 165.896 85.4696 166.518 100.532 165.2C107.631 164.578 114.556 163.02 121.064 160.064C126.647 157.533 132.316 154.163 136.364 149.478C139.837 145.497 141.801 140.293 140.394 135.042Z" fill="#E5EEF4"/>
<path d="M237.707 147.711C236.263 142.321 231.713 139.845 226.398 139.511C212.808 138.655 198.841 142.983 186.722 148.796C179.471 152.274 172.358 156.408 165.916 161.234C162.918 163.517 160.146 166.082 157.638 168.895C156.322 170.347 155.052 171.842 153.802 173.349C153.097 174.205 151.361 175.543 151.478 176.75C151.483 176.83 151.513 176.906 151.565 176.967C151.616 177.028 151.686 177.071 151.764 177.09C151.881 177.13 152.009 177.129 152.126 177.088C152.243 177.046 152.343 176.967 152.409 176.861C152.42 176.846 152.431 176.83 152.44 176.813C167.44 178.568 182.785 179.19 197.848 177.872C204.947 177.25 211.875 175.692 218.383 172.735C223.963 170.205 229.632 166.835 233.682 162.152C237.15 158.166 239.114 152.962 237.707 147.711Z" fill="#E5EEF4"/>
<path d="M101.146 255.09C99.599 247.462 95.0034 243.89 89.677 243.319C76.0587 241.858 62.1606 247.711 50.1464 255.683C42.6612 260.613 35.7531 266.367 29.5518 272.837C26.5718 275.976 23.9001 279.597 21.4196 283.486C20.1266 285.509 18.8849 287.592 17.6604 289.695C17.2807 290.346 16.5957 291.202 16.0762 292.121C16.2276 292.954 16.305 293.799 16.3074 294.646C16.3156 294.639 16.3223 294.63 16.3274 294.62C16.3274 294.6 16.3473 294.575 16.3588 294.552C31.4043 297.3 46.7725 298.458 61.8237 296.874C68.9141 296.13 75.8103 294.058 82.2784 290.026C87.8188 286.562 93.4306 281.917 97.4068 275.386C100.786 269.81 102.65 262.508 101.146 255.09Z" fill="#E5EEF4"/>
<path d="M223.473 149.192C201.208 155.285 179.441 163.072 158.364 172.484C157.939 172.675 158.159 173.368 158.587 173.177C179.665 163.766 201.433 155.978 223.699 149.882C224.15 149.76 223.924 149.066 223.473 149.192Z" fill="#F3E9E3"/>
<path d="M158.444 174.43C158.148 174.43 157.859 174.343 157.612 174.181C157.365 174.019 157.17 173.788 157.051 173.517C156.875 173.125 156.861 172.679 157.012 172.277C157.164 171.874 157.468 171.548 157.859 171.369C178.996 161.938 200.821 154.131 223.145 148.014C223.412 147.939 223.694 147.935 223.963 148.004C224.232 148.074 224.478 148.213 224.675 148.408C224.878 148.607 225.024 148.856 225.101 149.13C225.177 149.404 225.18 149.693 225.109 149.968C225.04 150.231 224.903 150.471 224.71 150.663C224.518 150.855 224.278 150.993 224.016 151.061C201.812 157.146 180.104 164.913 159.081 174.294C158.881 174.384 158.664 174.431 158.444 174.43Z" fill="#CCDEEA"/>
<path d="M123.485 139.727L60.2059 159.079C60.1194 159.113 60.0491 159.179 60.0095 159.263C59.9698 159.347 59.9637 159.443 59.9925 159.531C60.0213 159.62 60.0827 159.694 60.1643 159.739C60.2458 159.783 60.3414 159.795 60.4314 159.772L123.711 140.42C123.797 140.386 123.868 140.321 123.907 140.236C123.947 140.152 123.953 140.056 123.924 139.968C123.895 139.879 123.834 139.805 123.752 139.76C123.671 139.716 123.575 139.704 123.485 139.727Z" fill="#F3E9E3"/>
<path d="M60.3179 161.011C59.9773 161.01 59.6463 160.898 59.3749 160.692C59.1036 160.486 58.9066 160.197 58.8137 159.87C58.7499 159.673 58.7262 159.465 58.744 159.259C58.7618 159.052 58.8207 158.852 58.9173 158.669C59.0138 158.485 59.1461 158.323 59.3062 158.192C59.4664 158.061 59.6512 157.963 59.8498 157.904L123.129 138.552C123.392 138.468 123.673 138.456 123.943 138.516C124.212 138.577 124.46 138.709 124.662 138.897C124.869 139.091 125.023 139.336 125.106 139.607C125.19 139.879 125.201 140.167 125.139 140.444C125.078 140.712 124.947 140.96 124.759 141.161C124.571 141.361 124.332 141.508 124.068 141.585L60.7889 160.928C60.637 160.979 60.4782 161.007 60.3179 161.011Z" fill="#CCDEEA"/>
<path d="M67.2392 32.9261C67.1993 32.461 66.4714 32.4924 66.5114 32.9603C68.3153 54.2655 71.1393 75.4547 74.9832 96.5279C75.066 96.9872 75.7596 96.759 75.6769 96.3024C71.85 75.3244 69.0375 54.199 67.2392 32.9261Z" fill="#F3E9E3"/>
<path d="M75.2725 97.9997C75.0955 98 74.9198 97.9701 74.753 97.9113C74.5027 97.8202 74.2811 97.6645 74.1106 97.46C73.9402 97.2555 73.8269 97.0095 73.7825 96.7471C69.9576 75.7206 67.1032 54.2946 65.2963 33.0626C65.2738 32.7924 65.3235 32.5211 65.4403 32.2764C65.5572 32.0317 65.737 31.8225 65.9614 31.6701C66.1952 31.509 66.4672 31.412 66.7502 31.389C67.0332 31.366 67.3174 31.4177 67.5741 31.5389C67.8256 31.6563 68.0413 31.8384 68.1993 32.0665C68.3573 32.2946 68.4518 32.5606 68.4733 32.8372C70.263 53.9921 73.0946 75.2754 76.8938 96.0965C76.9462 96.376 76.9234 96.6644 76.8275 96.9321C76.7317 97.1999 76.5664 97.4374 76.3486 97.6202C76.0463 97.8704 75.6649 98.0049 75.2725 97.9997Z" fill="#CCDEEA"/>
<path d="M172.6 -10.5367C152.979 7.62387 134.621 27.1015 117.653 47.7607C117.367 48.123 117.89 48.6167 118.19 48.2543C135.159 27.5943 153.518 8.11564 173.14 -10.0459C173.482 -10.3655 172.943 -10.8448 172.6 -10.5367Z" fill="#F3E9E3"/>
<path d="M117.94 49.6007C117.855 49.6011 117.771 49.5944 117.688 49.5807C117.409 49.5323 117.147 49.4117 116.929 49.2311C116.711 49.0504 116.544 48.8158 116.444 48.5507C116.345 48.2902 116.317 48.0081 116.364 47.7333C116.41 47.4586 116.528 47.201 116.706 46.987C133.715 26.2883 152.112 6.7699 171.771 -11.433C171.926 -11.5792 172.109 -11.6929 172.308 -11.7673C172.508 -11.8416 172.721 -11.8751 172.934 -11.8658C173.147 -11.8565 173.356 -11.8045 173.548 -11.713C173.741 -11.6215 173.913 -11.4924 174.054 -11.3331C174.194 -11.1855 174.303 -11.0115 174.375 -10.8212C174.447 -10.6309 174.48 -10.4282 174.473 -10.2249C174.466 -10.0217 174.418 -9.82193 174.332 -9.6374C174.246 -9.45288 174.125 -9.28728 173.974 -9.1503C154.395 8.9765 136.072 28.4139 119.133 49.0272C118.989 49.206 118.808 49.3504 118.601 49.4496C118.395 49.5489 118.169 49.6005 117.94 49.6007Z" fill="#CCDEEA"/>
<path d="M28.852 204.014C22.9891 182.661 17.1299 161.306 11.2746 139.947C11.149 139.496 10.4582 139.722 10.581 140.173L28.1555 204.242C28.2811 204.693 28.9719 204.468 28.852 204.014Z" fill="#F3E9E3"/>
<path d="M28.4719 205.709C28.1317 205.711 27.8006 205.6 27.5304 205.394C27.2602 205.187 27.0663 204.897 26.979 204.568L9.40446 140.495C9.32746 140.227 9.32364 139.943 9.3934 139.672C9.46316 139.402 9.60396 139.155 9.80122 138.958C10.0004 138.755 10.2492 138.609 10.5226 138.533C10.7961 138.457 11.0847 138.454 11.3597 138.524C11.623 138.592 11.8633 138.73 12.0559 138.922C12.2486 139.114 12.3866 139.354 12.4558 139.617L30.0275 203.686C30.0848 203.889 30.101 204.1 30.0753 204.309C30.0495 204.518 29.9822 204.719 29.8774 204.902C29.7727 205.084 29.6325 205.244 29.4651 205.371C29.2978 205.499 29.1066 205.591 28.9029 205.644C28.7628 205.685 28.6179 205.707 28.4719 205.709Z" fill="#CCDEEA"/>
<path d="M85.7201 258.228C65.9003 269.654 45.1111 279.31 23.594 287.085C23.1544 287.244 23.3771 287.941 23.8195 287.778C45.3943 279.98 66.2398 270.298 86.114 258.842C86.5137 258.608 86.1255 257.994 85.7201 258.228Z" fill="#F3E9E3"/>
<path d="M23.6885 289.025C23.3275 289.026 22.9781 288.897 22.7037 288.663C22.4875 288.479 22.3234 288.241 22.2277 287.974C22.132 287.706 22.1082 287.419 22.1585 287.139C22.2068 286.866 22.327 286.611 22.5066 286.4C22.6861 286.189 22.9187 286.029 23.1804 285.938C44.6307 278.183 65.3574 268.557 85.121 257.173C85.3615 257.033 85.6348 256.959 85.9131 256.959C86.1914 256.959 86.4648 257.033 86.7052 257.173C86.9514 257.314 87.1562 257.518 87.2989 257.763C87.4417 258.009 87.5175 258.287 87.5187 258.571C87.519 258.843 87.4467 259.11 87.3091 259.344C87.1716 259.578 86.974 259.771 86.7366 259.904C66.7943 271.392 45.8793 281.105 24.2337 288.928C24.0591 288.992 23.8745 289.025 23.6885 289.025Z" fill="#CCDEEA"/>
<path d="M358.743 130.914C387.874 130.914 411.489 105.576 411.489 74.3199C411.489 43.064 387.874 17.7261 358.743 17.7261C329.612 17.7261 305.996 43.064 305.996 74.3199C305.996 105.576 329.612 130.914 358.743 130.914Z" fill="#E5EEF4"/>
<path d="M361.335 73.0127C360.86 73.0127 360.395 72.8778 359.993 72.6239C359.592 72.3699 359.271 72.0072 359.068 71.578C358.864 71.1488 358.787 70.6707 358.845 70.1993C358.903 69.7279 359.093 69.2826 359.394 68.9152C359.991 68.1848 377.288 51.4297 387.544 41.5228C387.779 41.2843 388.06 41.0952 388.369 40.9666C388.678 40.838 389.01 40.7725 389.345 40.7739C389.679 40.7754 390.011 40.8437 390.319 40.975C390.627 41.1062 390.905 41.2977 391.138 41.5381C391.371 41.7786 391.554 42.0632 391.675 42.3752C391.796 42.6872 391.854 43.0203 391.845 43.3549C391.835 43.6895 391.759 44.0189 391.621 44.3236C391.482 44.6284 391.284 44.9024 391.038 45.1295C380.391 55.4273 364.252 71.0752 363.231 72.1652C362.994 72.4338 362.702 72.6484 362.375 72.7946C362.048 72.9408 361.693 73.0152 361.335 73.0127ZM363.282 72.091L363.242 72.1395L363.282 72.091Z" fill="#CCDEEA"/>
<path d="M362.614 107.145C362.015 107.145 361.436 106.931 360.981 106.541C360.527 106.151 360.227 105.611 360.136 105.019L356.254 80.0922C356.152 79.4346 356.316 78.7633 356.708 78.226C357.101 77.6888 357.692 77.3295 358.349 77.2274C359.007 77.1252 359.679 77.2885 360.216 77.6813C360.754 78.074 361.113 78.6641 361.215 79.3218L365.103 104.249C365.202 104.905 365.038 105.573 364.645 106.108C364.252 106.643 363.664 107 363.008 107.102C362.878 107.128 362.746 107.142 362.614 107.145Z" fill="#CCDEEA"/>
</g>
<g clip-path="url(#clip0_127_48749)">
<path d="M54.6062 370.463L78.4372 336.958L96.8016 326.925L122.897 338.483L132.278 364.138L110.238 395.457L63.2069 394.382L53.2637 377.719L54.6062 370.463Z" fill="#FFB687"/>
<path d="M131.642 427.712H82.8014L48.0372 357.535C47.701 356.857 47.5433 356.104 47.5792 355.349C47.6151 354.593 47.8433 353.858 48.2422 353.215C48.6411 352.572 49.1976 352.042 49.8589 351.674C50.5202 351.306 51.2644 351.113 52.0211 351.113H90.9488C91.7775 351.113 92.5898 351.345 93.2941 351.782C93.9983 352.219 94.5666 352.844 94.9349 353.586L131.642 427.712Z" fill="#3B4A73"/>
<path d="M94.9463 378.015H92.4955C92.0538 378.016 91.6208 377.893 91.245 377.661C90.8693 377.429 90.5659 377.097 90.3689 376.701L83.5794 362.982C83.4007 362.62 83.3172 362.219 83.3368 361.816C83.3563 361.413 83.4783 361.021 83.6911 360.679C83.9039 360.336 84.2006 360.053 84.5532 359.857C84.9058 359.66 85.3025 359.557 85.7061 359.557H88.1568C88.5985 359.556 89.0314 359.679 89.4071 359.911C89.7828 360.143 90.0863 360.476 90.2835 360.871L97.0729 374.59C97.2522 374.952 97.3363 375.353 97.317 375.757C97.2978 376.16 97.1759 376.551 96.9629 376.895C96.75 377.238 96.453 377.52 96.1001 377.717C95.7472 377.913 95.35 378.016 94.9463 378.015Z" fill="#9D9D9D"/>
<path d="M212.811 400.206C235.387 400.206 296.576 385.952 309.204 367.417C323.002 347.171 347.043 279.57 354.356 254.721C360.035 235.419 345.396 183.142 292.721 182.336L247.571 175.617L202.419 252.491L154.043 376.913C154.043 376.913 170.259 400.206 212.811 400.206Z" fill="#F7A551"/>
<path d="M267.706 206.993C275.536 209.718 283.32 212.554 290.883 215.957C291.899 216.415 292.788 214.911 291.759 214.448C284.06 210.984 276.139 208.082 268.166 205.309C267.104 204.939 266.646 206.623 267.702 206.993H267.706Z" fill="#2B244A"/>
<path d="M292.465 265.872C294.57 253.922 286.589 242.527 274.638 240.422C262.688 238.317 251.294 246.299 249.189 258.249C247.083 270.2 255.065 281.594 267.015 283.699C278.966 285.804 290.36 277.823 292.465 265.872Z" fill="#FBFBFB"/>
<path d="M278.971 253.207C273.399 252.055 270.832 256.661 270.832 256.661C270.832 256.661 268.266 252.062 262.694 253.207C257.122 254.353 252.838 266.394 270.832 273.197C288.822 266.394 284.541 254.359 278.971 253.207Z" fill="#EA505B"/>
<path d="M224.472 307.214C235.563 274.406 247.804 241.757 261.852 210.101C262.305 209.08 260.8 208.191 260.345 209.225C246.234 241.017 233.921 273.797 222.788 306.746C222.429 307.812 224.115 308.279 224.472 307.21V307.214Z" fill="#2B244A"/>
<path d="M54.5154 370.622C54.5154 370.622 50.4614 373.887 48.3348 377.093C42.6404 385.67 44.0355 392.324 47.439 395.011C47.439 395.011 43.2296 401.908 52.1873 407.195C52.1873 407.195 49.5 411.853 51.5609 416.512C53.6218 421.17 54.9644 422.962 61.3246 424.215C67.6848 425.467 81.0359 424.843 82.5559 424.574C84.0758 424.304 89.5446 416.512 85.333 409.433C82.7603 405.072 80.7415 400.408 79.3232 395.548C79.3232 395.548 78.7932 388.828 77.7178 385.254C76.6425 381.68 74.3143 378.613 71.0007 378.613C67.687 378.613 58.5168 378.714 58.5168 378.714L54.5154 370.622Z" fill="#FFB687"/>
<path d="M90.2019 408.929H51.4473C51.6414 408.328 51.8899 407.746 52.1897 407.19C52.1897 407.19 52.1897 407.19 52.1722 407.19H90.2019C91.3299 407.182 91.3299 408.929 90.2019 408.929Z" fill="#C46031"/>
<path d="M87.5557 394.998H47.43C46.8124 394.51 46.286 393.917 45.875 393.246H87.5557C88.6815 393.25 88.6815 394.998 87.5557 394.998Z" fill="#C46031"/>
<path d="M145.983 364.815L135.251 374.629L104.111 372.117L111.078 386.187H73.1491C66.2962 386.187 62.9365 398.414 69.3865 402.446C69.3865 402.446 61.0639 412.12 72.2096 418.973C72.2096 418.973 70.072 435.233 84.3036 435.233H128.917C141.547 435.233 151.896 432.681 160.361 428.516C168.826 424.35 188.176 409.433 188.176 409.433C188.176 409.433 190.863 389.284 178.5 374.763C166.136 360.242 145.983 364.815 145.983 364.815Z" fill="#FFB687"/>
<path d="M291.032 182.084C291.032 182.084 320.134 167.555 352.117 177.229C384.1 186.903 400.189 237.802 345.514 281.826C290.839 325.85 188.178 409.433 188.178 409.433C188.178 409.433 187.102 370.194 145.982 364.819L308.04 221.842L291.032 182.084Z" fill="#F7A551"/>
<path d="M197.935 386.936C197.801 389.389 194.108 389.408 194.108 386.936C194.108 384.463 197.801 384.485 197.935 386.936C197.994 388.055 199.741 388.061 199.687 386.936C199.582 384.965 198.097 383.276 196.027 383.276C195.065 383.269 194.139 383.641 193.45 384.311C192.76 384.981 192.362 385.896 192.343 386.858C192.323 387.819 192.682 388.75 193.344 389.448C194.005 390.147 194.915 390.556 195.876 390.589C198.005 390.674 199.577 388.984 199.687 386.936C199.741 385.801 198.002 385.806 197.935 386.936Z" fill="#2B244A"/>
<path d="M247.572 175.617C247.572 175.617 239.105 166.607 219.888 170.243C200.672 173.878 188.445 187.442 177.695 201.148C166.946 214.854 78.4355 336.959 78.4355 336.959C78.4355 336.959 109.431 336.994 132.276 364.139L191.296 281.093C191.296 281.093 236.015 232.325 244.079 213.511C252.143 194.698 247.572 175.617 247.572 175.617Z" fill="#F7A551"/>
<path d="M250.184 176.024C244.472 183.878 238.693 191.69 232.847 199.459C232.19 200.35 230.657 199.476 231.336 198.583C237.03 191.002 242.667 183.38 248.246 175.718L250.184 176.024Z" fill="#2B244A"/>
<path d="M231.859 199.87C237.952 201.841 244.051 203.775 250.111 205.836C251.178 206.2 251.645 204.522 250.576 204.152C244.516 202.091 238.416 200.148 232.323 198.186C231.252 197.84 230.79 199.526 231.859 199.87Z" fill="#2B244A"/>
<path d="M247.098 188.603L252.052 228.382L284.225 191.763L247.098 188.603Z" fill="#FCE7D8"/>
<path d="M300.889 178.311C297.598 190.59 294.689 202.964 292.163 215.432C291.944 216.527 290.26 216.071 290.486 214.97C292.93 202.877 295.737 190.873 298.907 178.957C299.535 178.747 300.199 178.53 300.889 178.311Z" fill="#2B244A"/>
<path d="M291.033 182.085C291.033 182.085 284.764 198.292 266.251 199.805C247.738 201.318 242.365 191.263 251.358 176.18C260.351 161.096 264.639 149.817 280.354 153.041C296.068 156.265 291.033 182.085 291.033 182.085Z" fill="#FFB687"/>
<path d="M291.032 182.085C291.032 182.085 303.205 161.372 304.547 155.461C305.89 149.55 303.608 134.631 292.589 131.004C281.57 127.377 274.045 131.407 268.265 134.9C262.485 138.393 253.821 144.508 247.303 151.876C241.318 158.643 239.675 174.237 250.409 177.84C261.143 181.443 291.032 182.085 291.032 182.085Z" fill="#FFB687"/>
<path d="M291.03 182.085C291.03 182.085 287.176 177.591 292.049 169.794C293.84 166.927 298.556 158.871 298.556 158.871C298.556 158.871 291.847 158.506 291.804 153.041C291.76 147.577 295.61 139.738 295.61 139.738C295.61 139.738 281.098 142.964 274.311 133.961C274.311 133.961 270.452 135.443 266.521 135.982C266.521 135.982 260.607 133.558 260.068 128.72C259.53 123.882 262.083 120.051 267.861 120.723C267.861 120.723 264.254 108.542 274.177 107.363C284.659 106.111 289.585 117.846 292.991 127.857C292.991 127.857 301.854 121.378 305.352 131.486C307.761 138.472 306.765 150.759 306.765 150.759C306.765 150.759 311.197 151.565 310.794 156.471C310.391 161.377 297.962 170.111 297.962 170.111L291.03 182.085Z" fill="#4A2521"/>
<path d="M297.42 145.143C296.921 147.41 296.544 150.139 298.552 151.821C300.195 153.203 302.536 152.929 304.35 152.077C305.368 151.598 304.481 150.093 303.474 150.568C302.284 151.127 300.594 151.374 299.553 150.378C298.287 149.162 298.782 147.092 299.115 145.607C299.356 144.512 297.672 144.044 297.431 145.143H297.42Z" fill="#4A2521"/>
<path d="M145.423 345.648L144.358 347.141C132.295 330.277 113.192 319.392 92.7891 317.165C93.1811 316.632 93.5841 316.08 93.9761 315.531C114.294 318.021 133.248 328.965 145.423 345.648Z" fill="#2B244A"/>
<path d="M212.425 232.921C204.816 248.747 197.943 264.932 191.244 281.17L186.789 287.431C194.43 268.815 202.188 250.179 210.914 232.038C211.402 231.024 212.913 231.907 212.425 232.921Z" fill="#2B244A"/>
<path d="M200.389 399.496C201.192 399.593 202.014 399.678 202.844 399.757C232.104 375.948 301.911 319.199 344.422 284.96C344.787 283.903 345.155 282.856 345.517 281.824C302.338 316.597 229.222 376.044 200.389 399.496Z" fill="#2B244A"/>
<path d="M305.04 222.162L166.787 344.136L165.416 347.673L306.79 222.949C306.208 222.694 305.623 222.432 305.04 222.162Z" fill="#2B244A"/>
<path d="M215.709 387.041C215.176 387.479 214.653 387.896 214.136 388.316C212.756 379.275 208.661 371.476 202.817 365.1C202.432 364.662 202.031 364.244 201.619 363.824C192.625 354.625 179.959 348.617 166.857 346.416L168.509 344.958C190.921 349.202 211.692 364.27 215.709 387.041Z" fill="#2B244A"/>
<path d="M203.384 364.619C203.191 364.776 203.009 364.934 202.817 365.092C195.068 371.467 187.343 377.877 179.643 384.324C179.321 383.844 178.986 383.373 178.631 382.9C186.273 376.508 193.939 370.146 201.627 363.815C201.803 363.675 201.978 363.528 202.153 363.377C203.009 362.68 204.249 363.903 203.384 364.619Z" fill="#2B244A"/>
<path d="M296.3 171.011C294.926 171.563 293.418 171.695 291.968 171.39C290.519 171.086 289.192 170.357 288.156 169.298C287.12 168.239 286.422 166.897 286.149 165.441C285.877 163.985 286.042 162.48 286.625 161.118C287.207 159.756 288.181 158.597 289.422 157.789C290.663 156.98 292.116 156.558 293.597 156.575C295.079 156.592 296.522 157.049 297.743 157.886C298.965 158.724 299.911 159.905 300.462 161.28C301.199 163.123 301.175 165.182 300.395 167.007C299.614 168.831 298.142 170.272 296.3 171.011Z" fill="#FFB687"/>
<path d="M264.898 155.282C269.138 155.805 273.462 155.687 276.762 152.654C277.59 151.891 276.353 150.658 275.527 151.418C272.597 154.114 268.608 153.994 264.898 153.536C263.786 153.4 263.803 155.148 264.898 155.288V155.282Z" fill="#C46031"/>
<path d="M279.489 146.324C281.792 147.428 284.391 147.754 286.896 147.252C287.991 147.033 287.533 145.356 286.431 145.568C284.382 145.972 282.257 145.707 280.369 144.815C279.357 144.34 278.47 145.846 279.493 146.324H279.489Z" fill="#2B244A"/>
<path d="M267.906 140.325C265.594 140.778 263.202 140.579 260.998 139.749C261.6 139.311 262.203 138.873 262.787 138.472C264.308 138.874 265.899 138.931 267.444 138.639C268.543 138.428 269.007 140.106 267.906 140.325Z" fill="#2B244A"/>
<path d="M273.267 140.244C270.518 142.944 267.29 145.107 263.749 146.624C262.719 147.062 263.608 148.573 264.625 148.133C268.299 146.546 271.646 144.29 274.496 141.479C275.3 140.691 274.058 139.456 273.26 140.244H273.267Z" fill="#C46031"/>
<path d="M263.436 147.82C264.485 149.981 266.785 150.229 268.935 149.973C270.031 149.846 270.052 148.098 268.935 148.22C267.402 148.398 265.714 148.516 264.945 146.93C264.454 145.919 262.948 146.803 263.436 147.807V147.82Z" fill="#C46031"/>
<path d="M277.602 176.025C273.425 178.497 268.78 180.077 263.962 180.663C259.143 181.25 254.256 180.831 249.607 179.432C249.861 178.907 250.131 178.375 250.42 177.842C254.799 179.112 259.391 179.472 263.914 178.899C268.437 178.327 272.795 176.834 276.719 174.513C277.698 173.935 278.572 175.446 277.602 176.025Z" fill="#C46031"/>
<path d="M294.588 161.329C296.778 163.269 295.727 166.498 292.836 166.828C291.724 166.953 292.142 168.651 293.248 168.526C297.409 168.05 298.988 162.888 295.863 160.131C295.026 159.393 293.745 160.584 294.591 161.329H294.588Z" fill="#C46031"/>
<path d="M113.951 420.73H72.1035C72.121 419.725 72.1999 419.07 72.2086 418.978H113.951C115.076 418.982 115.076 420.73 113.951 420.73Z" fill="#C46031"/>
<path d="M111.315 402.431H69.3626C68.634 401.971 67.9993 401.376 67.4922 400.679H111.315C112.441 400.684 112.441 402.431 111.315 402.431Z" fill="#C46031"/>
<path d="M73.1647 386.185H77.9831C77.8955 385.852 77.8166 385.528 77.729 385.25C77.6414 384.971 77.556 384.7 77.4596 384.437H73.1647C69.3385 384.437 66.0183 387.381 64.7173 391.94C63.6945 395.477 64.1063 399.95 67.0148 402.779C65.8365 404.632 64.1939 408.012 64.7874 411.785C65.2758 414.93 67.1637 417.646 70.3942 419.874C70.3018 421.573 70.3899 423.277 70.657 424.957C71.2505 424.957 71.8441 424.974 72.431 424.974C72.0804 422.994 72.0067 420.974 72.212 418.973C61.0576 412.116 69.3911 402.449 69.3911 402.449C62.9346 398.412 66.2964 386.185 73.1647 386.185ZM103.209 370.291L104.107 372.109L125.446 373.839L126.618 372.179L103.209 370.291Z" fill="#C46031"/>
<path d="M137.528 150.801C142.197 150.801 145.982 147.016 145.982 142.347C145.982 137.678 142.197 133.893 137.528 133.893C132.859 133.893 129.074 137.678 129.074 142.347C129.074 147.016 132.859 150.801 137.528 150.801Z" fill="#AB8DDD"/>
<path d="M163.085 169.892C162.446 172.783 161.138 176.681 158.582 178.42C158.499 178.474 158.431 178.547 158.384 178.633C158.337 178.72 158.313 178.817 158.312 178.915C158.313 179.014 158.337 179.11 158.384 179.197C158.431 179.283 158.499 179.357 158.582 179.41C161.138 181.138 162.446 185.047 163.085 187.938C163.113 188.067 163.184 188.182 163.286 188.265C163.389 188.347 163.516 188.392 163.648 188.392C163.779 188.392 163.907 188.347 164.009 188.265C164.112 188.182 164.183 188.067 164.211 187.938C164.85 185.047 166.158 181.138 168.714 179.41C168.796 179.357 168.864 179.283 168.912 179.197C168.959 179.11 168.983 179.014 168.983 178.915C168.983 178.817 168.959 178.72 168.912 178.633C168.864 178.547 168.796 178.474 168.714 178.42C166.158 176.681 164.85 172.776 164.211 169.892C164.183 169.763 164.112 169.648 164.009 169.566C163.907 169.483 163.779 169.438 163.648 169.438C163.516 169.438 163.389 169.483 163.286 169.566C163.184 169.648 163.113 169.763 163.085 169.892Z" fill="#FFD971"/>
<path d="M49.2452 312.835C48.6057 315.726 47.2982 319.625 44.7423 321.364C44.6596 321.417 44.5915 321.49 44.5444 321.577C44.4973 321.663 44.4727 321.76 44.4727 321.859C44.4727 321.957 44.4973 322.054 44.5444 322.14C44.5915 322.227 44.6596 322.3 44.7423 322.354C47.2982 324.082 48.6057 327.991 49.2452 330.882C49.2732 331.011 49.3442 331.126 49.4466 331.208C49.549 331.291 49.6766 331.336 49.8081 331.336C49.9396 331.336 50.0672 331.291 50.1696 331.208C50.272 331.126 50.343 331.011 50.371 330.882C51.0105 327.991 52.318 324.082 54.8739 322.354C54.9566 322.3 55.0247 322.227 55.0718 322.14C55.1189 322.054 55.1435 321.957 55.1435 321.859C55.1435 321.76 55.1189 321.663 55.0718 321.577C55.0247 321.49 54.9566 321.417 54.8739 321.364C52.318 319.625 51.0105 315.72 50.371 312.835C50.343 312.707 50.272 312.592 50.1696 312.509C50.0672 312.427 49.9396 312.382 49.8081 312.382C49.6766 312.382 49.549 312.427 49.4466 312.509C49.3442 312.592 49.2732 312.707 49.2452 312.835Z" fill="#FFD971"/>
<path d="M356.591 319.044C355.549 323.756 353.418 330.11 349.252 332.945C349.117 333.032 349.006 333.151 348.929 333.292C348.853 333.433 348.813 333.591 348.812 333.751C348.813 333.912 348.853 334.07 348.929 334.211C349.006 334.352 349.117 334.471 349.252 334.558C353.418 337.374 355.549 343.746 356.591 348.458C356.637 348.668 356.752 348.855 356.919 348.99C357.086 349.124 357.294 349.198 357.509 349.198C357.723 349.198 357.931 349.124 358.098 348.99C358.265 348.855 358.38 348.668 358.426 348.458C359.468 343.746 361.599 337.374 365.765 334.558C365.9 334.471 366.011 334.352 366.088 334.211C366.164 334.07 366.205 333.912 366.205 333.751C366.205 333.591 366.164 333.433 366.088 333.292C366.011 333.151 365.9 333.032 365.765 332.945C361.599 330.11 359.468 323.746 358.426 319.044C358.38 318.835 358.265 318.647 358.098 318.513C357.931 318.378 357.723 318.305 357.509 318.305C357.294 318.305 357.086 318.378 356.919 318.513C356.752 318.647 356.637 318.835 356.591 319.044Z" fill="#FFD971"/>
<path d="M306.416 192.99C305.774 195.879 304.466 199.79 301.91 201.518C301.828 201.572 301.76 201.645 301.712 201.731C301.665 201.817 301.641 201.914 301.641 202.012C301.641 202.111 301.665 202.207 301.712 202.294C301.76 202.38 301.828 202.453 301.91 202.506C304.466 204.234 305.774 208.146 306.416 211.035C306.443 211.163 306.515 211.278 306.617 211.361C306.719 211.443 306.847 211.488 306.978 211.488C307.11 211.488 307.237 211.443 307.34 211.361C307.442 211.278 307.513 211.163 307.541 211.035C308.181 208.146 309.488 204.234 312.044 202.506C312.127 202.453 312.195 202.38 312.242 202.294C312.289 202.207 312.314 202.111 312.314 202.012C312.314 201.914 312.289 201.817 312.242 201.731C312.195 201.645 312.127 201.572 312.044 201.518C309.488 199.79 308.181 195.879 307.541 192.99C307.513 192.861 307.442 192.746 307.34 192.664C307.237 192.581 307.11 192.536 306.978 192.536C306.847 192.536 306.719 192.581 306.617 192.664C306.515 192.746 306.443 192.861 306.416 192.99Z" fill="#FFD971"/>
<path d="M122.685 204.074H120.086C119.12 204.074 118.338 204.856 118.338 205.821V221.941C118.338 222.906 119.12 223.689 120.086 223.689H122.685C123.651 223.689 124.433 222.906 124.433 221.941V205.821C124.433 204.856 123.651 204.074 122.685 204.074Z" fill="#AB8DDD"/>
<path d="M140.677 204.074H135.365C135.845 202.712 136.154 201.297 136.287 199.86C136.421 197.799 134.899 195.381 133.064 195.648C131.474 195.882 127.871 202.024 126.931 203.671C126.78 203.933 126.701 204.231 126.701 204.534V221.943C126.701 222.408 126.886 222.853 127.214 223.182C127.543 223.511 127.989 223.695 128.453 223.695H137.444C142.282 223.695 145.506 218.509 145.506 213.888C145.504 211.544 146.316 204.074 140.677 204.074Z" fill="#AB8DDD"/>
<path d="M226.663 118.058C218.341 116.341 214.519 123.212 214.519 123.212C214.519 123.212 210.688 116.341 202.383 118.058C194.078 119.775 187.683 137.734 214.525 147.884C241.368 137.734 234.975 119.775 226.663 118.058Z" fill="#EA505B"/>
<path d="M201.847 295.723C213.981 295.723 223.818 285.886 223.818 273.751C223.818 261.617 213.981 251.78 201.847 251.78C189.712 251.78 179.875 261.617 179.875 273.751C179.875 285.886 189.712 295.723 201.847 295.723Z" fill="#FBFBFB"/>
<path d="M213.517 270.878C213.669 270.73 213.776 270.543 213.827 270.337C213.878 270.132 213.87 269.916 213.805 269.714C213.74 269.513 213.619 269.334 213.457 269.197C213.295 269.061 213.098 268.972 212.888 268.942L206.546 268.022C206.364 267.996 206.191 267.926 206.042 267.818C205.893 267.71 205.773 267.567 205.692 267.402L202.864 261.66C202.77 261.47 202.625 261.31 202.446 261.198C202.266 261.087 202.058 261.027 201.847 261.027C201.635 261.027 201.428 261.087 201.248 261.198C201.068 261.31 200.923 261.47 200.829 261.66L198.004 267.402C197.923 267.567 197.803 267.71 197.654 267.818C197.505 267.926 197.332 267.996 197.15 268.022L190.814 268.942C190.604 268.972 190.407 269.061 190.245 269.197C190.083 269.334 189.963 269.513 189.897 269.714C189.832 269.916 189.824 270.132 189.875 270.337C189.926 270.543 190.033 270.73 190.185 270.878L194.769 275.348C194.901 275.476 195 275.634 195.058 275.809C195.115 275.984 195.129 276.17 195.098 276.351L194.003 282.661C193.967 282.87 193.991 283.084 194.071 283.28C194.15 283.476 194.283 283.646 194.455 283.771C194.626 283.895 194.828 283.97 195.04 283.985C195.251 284.001 195.462 283.957 195.65 283.859L201.318 280.878C201.481 280.793 201.662 280.749 201.846 280.749C202.029 280.749 202.211 280.793 202.373 280.878L208.039 283.859C208.227 283.958 208.438 284.002 208.65 283.987C208.862 283.972 209.065 283.898 209.236 283.773C209.408 283.648 209.541 283.478 209.62 283.281C209.7 283.085 209.723 282.87 209.686 282.661L208.604 276.351C208.573 276.17 208.587 275.984 208.644 275.809C208.701 275.635 208.799 275.476 208.931 275.348L213.517 270.878Z" fill="#FFAC45"/>
<path d="M226.487 208.49C228.411 196.855 220.538 185.862 208.903 183.938C197.268 182.014 186.275 189.887 184.351 201.522C182.427 213.157 190.3 224.15 201.935 226.074C213.57 227.998 224.563 220.125 226.487 208.49Z" fill="#FBFBFB"/>
<path d="M216.724 206.875C217.76 200.627 213.535 194.721 207.287 193.685C201.04 192.648 195.134 196.873 194.098 203.121C193.061 209.369 197.286 215.274 203.534 216.311C209.782 217.347 215.687 213.123 216.724 206.875Z" fill="#FFAC45"/>
<path d="M199.225 202.761V203.839C199.225 204.965 200.977 204.967 200.977 203.839V202.766C200.972 201.636 199.225 201.636 199.225 202.761Z" fill="#2B244A"/>
<path d="M209.84 202.761V203.839C209.84 204.965 211.592 204.967 211.592 203.839V202.766C211.581 201.636 209.84 201.636 209.84 202.761Z" fill="#2B244A"/>
<path d="M201.229 207.679C203.857 209.805 206.704 209.869 209.409 207.814C210.285 207.157 209.425 205.624 208.533 206.308C206.507 207.841 204.53 208.106 202.471 206.443C201.595 205.742 200.36 206.971 201.236 207.679H201.229Z" fill="#2B244A"/>
<path d="M132.005 290.421C136.032 282.023 132.489 271.95 124.091 267.923C115.693 263.895 105.62 267.439 101.593 275.837C97.5655 284.235 101.109 294.307 109.507 298.335C117.905 302.362 127.978 298.819 132.005 290.421Z" fill="#FBFBFB"/>
<path d="M123.047 276.334C118.77 275.458 116.801 278.984 116.801 278.984C116.801 278.984 114.83 275.449 110.553 276.334C106.275 277.218 102.992 286.454 116.801 291.676C130.608 286.463 127.322 277.225 123.047 276.334Z" fill="#EA505B"/>
<path d="M175.486 310.829C177.474 302.478 172.316 294.096 163.965 292.108C155.613 290.12 147.232 295.279 145.244 303.63C143.256 311.981 148.414 320.362 156.765 322.35C165.117 324.338 173.498 319.18 175.486 310.829Z" fill="#FBFBFB"/>
<path d="M167.613 311.329C169.894 307.323 168.496 302.227 164.49 299.946C160.485 297.665 155.388 299.063 153.107 303.068C150.826 307.074 152.224 312.171 156.23 314.452C160.235 316.733 165.332 315.335 167.613 311.329Z" fill="#FFAC45"/>
<path d="M155.863 305.587V306.369C155.863 307.188 157.134 307.188 157.134 306.369V305.587C157.134 304.768 155.863 304.768 155.863 305.587Z" fill="#2B244A"/>
<path d="M163.59 305.587V306.369C163.59 307.188 164.86 307.188 164.86 306.369V305.587C164.86 304.768 163.59 304.768 163.59 305.587Z" fill="#2B244A"/>
<path d="M155.971 307.677H164.714C164.714 307.677 164.162 310.719 160.371 310.719C156.58 310.719 155.971 307.677 155.971 307.677Z" fill="#F5E3D9"/>
<path d="M341.24 150.882C341.325 150.799 341.384 150.694 341.412 150.58C341.441 150.465 341.436 150.345 341.4 150.232C341.364 150.12 341.296 150.02 341.206 149.943C341.116 149.867 341.007 149.817 340.89 149.8L337.348 149.287C337.246 149.272 337.15 149.233 337.067 149.172C336.983 149.111 336.916 149.031 336.871 148.939L335.287 145.731C335.235 145.624 335.154 145.535 335.053 145.472C334.952 145.41 334.836 145.377 334.718 145.377C334.599 145.377 334.483 145.41 334.383 145.472C334.282 145.535 334.201 145.624 334.148 145.731L332.565 148.939C332.52 149.032 332.453 149.112 332.369 149.173C332.286 149.233 332.189 149.273 332.087 149.287L328.537 149.8C328.42 149.817 328.31 149.866 328.22 149.943C328.129 150.019 328.062 150.119 328.025 150.231C327.989 150.344 327.984 150.464 328.012 150.579C328.04 150.694 328.1 150.799 328.185 150.882L330.747 153.381C330.821 153.452 330.876 153.541 330.907 153.639C330.939 153.736 330.946 153.84 330.929 153.941L330.324 157.468C330.304 157.584 330.317 157.704 330.362 157.814C330.407 157.923 330.481 158.018 330.576 158.088C330.672 158.158 330.785 158.199 330.903 158.208C331.021 158.217 331.139 158.192 331.244 158.138L334.411 156.471C334.503 156.424 334.604 156.399 334.707 156.399C334.81 156.399 334.911 156.424 335.003 156.471L338.169 158.138C338.274 158.192 338.393 158.217 338.511 158.208C338.628 158.199 338.742 158.158 338.837 158.088C338.933 158.018 339.007 157.923 339.052 157.814C339.096 157.704 339.109 157.584 339.089 157.468L338.485 153.941C338.467 153.84 338.475 153.736 338.507 153.639C338.538 153.541 338.593 153.452 338.667 153.381L341.24 150.882Z" fill="#FCB762"/>
</g>
<defs>
<clipPath id="clip0_127_48749">
<rect width="336.935" height="336.74" fill="white" transform="translate(44.4727 98.4924)"/>
</clipPath>
</defs>
</svg>
