<svg xmlns="http://www.w3.org/2000/svg" width="11.444" height="11.444" viewBox="0 0 11.444 11.444">
  <defs>
    <style>
      .cls-1 {
        fill: #383838;
        fill-rule: evenodd;
      }
    </style>
  </defs>
  <path id="Path_1204" data-name="Path 1204" class="cls-1" d="M2.792,5.722a2.93,2.93,0,1,1,2.93,2.93,2.934,2.934,0,0,1-2.93-2.93ZM8.745,0H2.7A2.718,2.718,0,0,0,0,2.7V8.745a2.718,2.718,0,0,0,2.7,2.7H8.745a2.7,2.7,0,0,0,2.7-2.7V2.7A2.688,2.688,0,0,0,8.745,0ZM2.7.669H8.745a2.019,2.019,0,0,1,2.03,2.03V8.745a2.019,2.019,0,0,1-2.03,2.03H2.7a2.019,2.019,0,0,1-2.03-2.03V2.7A2.048,2.048,0,0,1,2.7.669Zm6.645.854a.611.611,0,0,0-.6.6.6.6,0,1,0,1.2,0,.6.6,0,0,0-.6-.6Zm.069,4.2A3.692,3.692,0,1,0,5.722,9.414,3.7,3.7,0,0,0,9.414,5.722Z"/>
</svg>
