<svg xmlns="http://www.w3.org/2000/svg" width="16.005" height="16.004" viewBox="0 0 16.005 16.004">
    <defs>
        <style>
            .cls-1{fill:#863399}
        </style>
    </defs>
    <path id="instagram_icon" d="M528.03 379.934h11.9a2.06 2.06 0 0 1 2.054 2.055v11.9a2.059 2.059 0 0 1-2.054 2.053h-11.9a2.06 2.06 0 0 1-2.055-2.053v-11.9a2.061 2.061 0 0 1 2.055-2.055zm9.6 1.778a.723.723 0 0 0-.72.722v1.724a.722.722 0 0 0 .72.721h1.809a.723.723 0 0 0 .721-.721v-1.724a.724.724 0 0 0-.721-.722zm2.537 4.99h-1.409a4.677 4.677 0 0 1 .206 1.374 4.978 4.978 0 0 1-9.951 0 4.7 4.7 0 0 1 .206-1.374h-1.469v6.762a.636.636 0 0 0 .636.635h11.145a.636.636 0 0 0 .636-.635zm-6.178-1.915a3.116 3.116 0 1 0 3.215 3.115 3.165 3.165 0 0 0-3.211-3.115z" class="cls-1" data-name="instagram icon" transform="translate(-525.975 -379.934)"/>
</svg>
