<svg xmlns="http://www.w3.org/2000/svg" viewBox="11398 10733 11.444 11.444">
    <defs>
        <style>
            .cls-1{fill:#863399;fill-rule:evenodd}
        </style>
    </defs>
    <path id="Path_105" d="M2.792 5.722a2.93 2.93 0 1 1 2.93 2.93 2.934 2.934 0 0 1-2.93-2.93zM8.745 0H2.7A2.718 2.718 0 0 0 0 2.7v6.045a2.718 2.718 0 0 0 2.7 2.7h6.045a2.7 2.7 0 0 0 2.7-2.7V2.7a2.688 2.688 0 0 0-2.7-2.7zM2.7.669h6.045a2.019 2.019 0 0 1 2.03 2.03v6.046a2.019 2.019 0 0 1-2.03 2.03H2.7a2.019 2.019 0 0 1-2.03-2.03V2.7A2.048 2.048 0 0 1 2.7.669zm6.645.854a.611.611 0 0 0-.6.6.6.6 0 1 0 1.2 0 .6.6 0 0 0-.6-.6zm.069 4.2a3.692 3.692 0 1 0-3.692 3.691 3.7 3.7 0 0 0 3.692-3.692z" class="cls-1" data-name="Path 105" transform="translate(11398 10733)"/>
</svg>
