<svg width="122" height="100" viewBox="0 0 122 100" fill="none" xmlns="http://www.w3.org/2000/svg">
<path d="M70.04 63.2727C70.04 63.2727 67.164 59.0545 73.6939 56.2848C78.8585 54.0939 75.9674 61.8515 75.9674 61.8515L70.04 63.2727Z" fill="#C76553"/>
<path d="M115.661 70.5333C115.191 70.0185 114.776 69.4558 114.423 68.8545C114.051 68.2485 113.691 67.6212 113.334 67C112.613 65.7455 111.907 64.4808 111.214 63.2061C110.887 62.6 110.566 61.9879 110.249 61.3697C110.253 61.3597 110.256 61.3489 110.256 61.3379C110.256 61.3269 110.253 61.316 110.249 61.3061C110.043 60.8364 109.834 60.3667 109.619 59.903C109.64 59.8818 109.25 58.5576 109.238 58.5273C106.664 52.4667 101.597 50.2576 95.3756 48.803L94.8065 48.6758C92.6874 48.2212 90.5047 47.9788 88.3402 47.7333C87.5167 47.6424 86.6933 47.5515 85.8729 47.4485C84.5954 47.6152 83.3239 47.8273 82.0404 47.9394C81.1564 48.0152 80.2664 48.0515 79.3794 48.1273L79.3642 48.1455L68.466 49.9212C68.466 49.9212 65.0693 50.6424 65.5446 53.1758C65.9927 55.5667 68.9594 55.9242 72.0503 55.4364L77.6871 55.1818C77.7416 55.6758 77.8142 56.1667 77.9111 56.6515C78.1501 57.8189 78.4533 58.9722 78.8193 60.1061C79.122 61.0939 79.4702 62.0727 79.8607 63.0303C80.6011 64.9366 81.6292 66.7179 82.9092 68.3121C83.5671 69.1012 84.3126 69.8129 85.1312 70.4333C85.325 70.5788 85.5187 70.7152 85.7185 70.8515C86.4596 71.606 87.2462 72.3144 88.0738 72.9727C90.2507 74.7016 92.6876 76.0742 95.2939 77.0394C96.7498 77.5167 98.2353 77.8983 99.7409 78.1818C99.7409 78.1818 106.216 84.5697 108.257 86.5515C108.428 86.7177 108.651 86.8192 108.889 86.8386C109.126 86.8579 109.363 86.7939 109.558 86.6576C113.494 83.9303 117.79 78.9455 119.424 74.6758C119.502 74.4754 119.514 74.2558 119.459 74.0481C119.405 73.8404 119.287 73.655 119.122 73.5182C118.101 72.6636 116.025 70.9091 115.661 70.5333Z" fill="#C76553"/>
<path d="M83.1483 71.2576L64.043 39.5121C63.4557 38.5394 63.4921 37.2333 64.1217 36.5939L73.1249 27.4546C73.7546 26.8152 74.7385 27.0849 75.3258 28.0606L94.431 59.803C95.0153 60.7758 94.982 62.0849 94.3523 62.7242L85.3491 71.8636C84.7195 72.5 83.7326 72.2303 83.1483 71.2576Z" fill="#003C75"/>
<path d="M92.4422 60.303L73.3339 28.5576C73.2176 28.3605 73.0727 28.1818 72.904 28.0273C73.1825 27.7502 73.4395 27.4524 73.673 27.1364L71.6901 27.6364C71.4775 27.6861 71.284 27.7967 71.1331 27.9545L62.1329 37.0939C61.5032 37.7333 61.4669 39.0394 62.0512 40.0121L81.1595 71.7576C81.7437 72.7303 82.7276 73 83.3573 72.3636L92.3605 63.2242C92.9901 62.5818 93.0265 61.2757 92.4422 60.303Z" fill="#003C75"/>
<path d="M75.0979 28.8576L93.2617 59.0303C93.7188 59.7939 93.7249 60.7909 93.2617 61.2546L84.5128 70.1394C84.0527 70.603 83.3019 70.3606 82.8508 69.597L64.6871 39.4212C64.2269 38.6576 64.2239 37.6636 64.6871 37.197L73.439 28.3121C73.8961 27.8485 74.6408 28.0939 75.0979 28.8576Z" fill="#F2F7FA"/>
<path d="M79.0358 51.85C81.078 51.1767 81.9148 48.1426 80.9048 45.0731C79.8948 42.0036 77.4206 40.061 75.3784 40.7343C73.3362 41.4076 72.4994 44.4417 73.5094 47.5112C74.5194 50.5807 76.9936 52.5233 79.0358 51.85Z" fill="#085900"/>
<path d="M75.0503 47.6455L78.4772 49.603C78.5785 49.6618 78.6989 49.6782 78.8123 49.6487C78.9256 49.6192 79.0228 49.5462 79.0827 49.4455C79.1398 49.3437 79.1553 49.2237 79.126 49.1107C79.0966 48.9977 79.0247 48.9004 78.9252 48.8394L75.4953 46.8818C75.394 46.8231 75.2736 46.8066 75.1603 46.8361C75.0469 46.8656 74.9498 46.9387 74.8899 47.0394C74.8327 47.1412 74.8172 47.2612 74.8465 47.3742C74.8759 47.4872 74.9478 47.5844 75.0473 47.6455H75.0503Z" fill="#F2F7FA"/>
<path d="M76.5637 42.603L77.2115 45.1485C77.4537 46.097 77.6928 47.0485 77.935 47.997C78.0501 48.4455 78.1621 48.9061 78.2771 49.3394C78.3102 49.45 78.3849 49.5433 78.4854 49.5998C78.5859 49.6564 78.7044 49.6716 78.816 49.6424C78.9262 49.608 79.019 49.5325 79.0754 49.4316C79.1317 49.3307 79.1472 49.212 79.1187 49.1C78.9007 48.2515 78.6848 47.4041 78.4708 46.5576L77.7473 43.7061L77.4052 42.3636C77.3728 42.2527 77.2982 42.1588 77.1975 42.1022C77.0968 42.0455 76.978 42.0306 76.8664 42.0606C76.7564 42.0944 76.6636 42.1693 76.6072 42.2697C76.5509 42.3701 76.5353 42.4884 76.5637 42.6V42.603Z" fill="#F2F7FA"/>
<path d="M92.9802 58.5606L93.2617 59.0303C93.7189 59.7939 93.7249 60.7909 93.2617 61.2546L84.5129 70.1394C84.0527 70.603 83.3019 70.3606 82.8509 69.597L82.5693 69.1273L92.9802 58.5606Z" fill="#99BCD5"/>
<path d="M75.0987 28.8576L75.6709 29.803L65.263 40.3697L64.6939 39.4212C64.2338 38.6576 64.2307 37.6636 64.6939 37.197L73.4458 28.3121C73.8969 27.8485 74.6416 28.0939 75.0987 28.8576Z" fill="#99BCD5"/>
<path d="M86.0244 54.3546L83.1272 57.297L81.4047 59.0455C81.2897 59.1637 81.1656 59.2788 81.0566 59.4C80.953 59.5468 80.8024 59.6537 80.6297 59.703C80.2695 59.7758 79.9304 59.5091 79.7034 59.2606C79.4419 58.9221 79.2109 58.5611 79.0131 58.1818C78.8231 57.8962 78.6933 57.5746 78.6319 57.237C78.5704 56.8993 78.5786 56.5526 78.6559 56.2182C78.8043 55.7212 79.2977 55.3455 79.6519 54.9879L83.3573 51.2121C83.5238 51.0394 83.6903 50.8636 83.8629 50.697C84.3049 50.2758 84.8437 50.4455 85.2433 50.8485C85.5633 51.2241 85.8348 51.6385 86.0516 52.0818C86.3997 52.6879 86.7388 53.8182 86.0516 54.3303C85.8669 54.4697 86.0516 54.7879 86.2363 54.6333C86.7782 54.2243 86.8629 53.5273 86.7479 52.897C86.6061 52.3372 86.3629 51.8083 86.0304 51.3364C85.7458 50.8636 85.425 50.3909 84.9073 50.1667C84.6946 50.0698 84.4575 50.0402 84.2275 50.0819C83.9976 50.1236 83.7859 50.2346 83.6207 50.4C82.3916 51.5606 81.2382 52.8243 80.0515 54.0364C79.5944 54.5 79.1221 54.9455 78.6771 55.4303C77.8658 56.3 78.217 57.5939 78.7619 58.5C78.9938 58.9786 79.3107 59.4109 79.6973 59.7758C80.1787 60.1515 80.8023 60.2243 81.2382 59.7455C81.6075 59.3455 81.995 58.9606 82.3795 58.5727L86.2756 54.6333C86.4482 54.4455 86.1909 54.1879 86.0244 54.3546Z" fill="#090909"/>
<path d="M71.1817 32.0969L68.1695 35.1666C67.9788 35.3636 67.7215 35.3818 67.5974 35.2091L67.2947 34.7697C67.2403 34.6614 67.2233 34.5382 67.2463 34.4192C67.2693 34.3002 67.331 34.1923 67.4218 34.1121L70.434 31.0818C70.4653 31.04 70.5054 31.0055 70.5513 30.9807C70.5973 30.956 70.6481 30.9415 70.7002 30.9383C70.7524 30.9351 70.8045 30.9434 70.8532 30.9624C70.9018 30.9814 70.9457 31.0108 70.9819 31.0485L71.2846 31.4606C71.3446 31.5619 71.3672 31.6811 71.3484 31.7974C71.3296 31.9137 71.2706 32.0197 71.1817 32.0969Z" fill="#003C75"/>
<path d="M112.858 66.4C112.347 65.2212 111.796 64.0606 111.26 62.897C110.724 61.7333 110.185 60.5455 109.643 59.3697C108.832 57.6 107.954 55.7485 106.477 54.4303C105.694 53.7431 104.761 53.25 103.752 52.9909C102.566 52.7147 101.365 52.5033 100.156 52.3576C98.872 52.1556 97.5865 51.9636 96.2988 51.7818C94.4624 51.5645 92.6012 51.7075 90.8194 52.203C89.1242 52.6333 87.5288 53.3727 85.7881 53.5758C84.8436 53.6848 83.4692 53.6273 82.7608 54.3697C81.8072 55.3576 82.8062 56.8667 83.7598 57.4C85.9515 58.6424 88.5883 57.6818 90.9163 58.1758C92.6267 58.5364 94.204 59.4424 95.645 60.4121C95.8659 60.5606 96.0809 60.7152 96.2988 60.8636C96.2136 61.6925 96.2085 62.5277 96.2837 63.3576C96.4349 65.0168 96.9101 66.6301 97.6823 68.1061C98.3892 69.4389 99.3248 70.637 100.446 71.6455C101.585 72.6797 102.906 73.4926 104.342 74.0424C105.889 74.6242 107.63 74.8667 109.238 74.4C109.428 74.3455 109.613 74.2788 109.798 74.2061C110.408 74.1919 111.007 74.0437 111.554 73.772C112.101 73.5002 112.581 73.1115 112.961 72.6333C114.369 70.8061 113.691 68.3182 112.858 66.4Z" fill="#C76553"/>
<path d="M78.4921 64.1667C78.5076 63.6625 78.3907 63.163 78.153 62.7182C77.593 61.6061 76.6394 61.1697 75.7312 60.7455C74.1479 60 69.5736 57.5849 69.6947 62.1636C69.7311 63.5727 70.9783 64.1788 71.7866 64.5879C72.6951 65.0453 73.6529 65.3971 74.6413 65.6364C75.7887 65.9242 78.3256 66.497 78.4921 64.1667Z" fill="#C76553"/>
<path d="M86 66.3636C85.2553 64.7576 82.7578 64.8939 81.2139 65.0727C79.9152 65.2212 78.6437 65.5455 77.3601 65.7788C75.7738 66.0818 73.461 66.8485 73.7122 68.9C73.9635 70.9515 76.352 71.1121 77.9504 70.9091C79.3373 70.7364 80.706 70.4402 82.0403 70.0242C83.2755 69.6394 85.7881 68.7697 86.0727 67.7364C86.2062 67.284 86.1805 66.7994 86 66.3636Z" fill="#C76553"/>
<path d="M91.3793 69.9091C91.184 69.4518 90.8227 69.0858 90.3682 68.8848C89.9497 68.7128 89.5097 68.5986 89.0604 68.5455C87.8016 68.3939 86.5291 68.3939 85.2703 68.5455C84.1623 68.6485 82.8817 68.6333 81.8494 69.0818C81.0078 69.4455 80.2783 70.1939 80.3085 71.1667C80.3691 73 82.467 73.3364 83.8959 73.2879C85.1357 73.2488 86.3696 73.0998 87.5831 72.8424C88.6699 72.6091 89.8869 72.4485 90.8253 71.8061C91.1332 71.6121 91.3594 71.3121 91.4615 70.9627C91.5635 70.6132 91.5343 70.2385 91.3793 69.9091Z" fill="#C76553"/>
<path d="M96.0901 61.0788C96.2173 63.6242 96.5442 66.1455 97.9943 68.3182C99.4345 70.3913 101.532 71.9171 103.946 72.6485C105.471 73.1219 107.06 73.357 108.656 73.3455C108.701 73.3397 108.742 73.3179 108.771 73.2842C108.801 73.2505 108.817 73.2071 108.817 73.1621C108.817 73.1172 108.801 73.0738 108.771 73.0401C108.742 73.0063 108.701 72.9845 108.656 72.9788C106.005 72.9788 103.316 72.3727 101.088 70.8849C99.0698 69.5347 97.6092 67.4977 96.9771 65.1515C96.654 63.8132 96.4794 62.4433 96.4564 61.0667C96.4564 60.8333 96.078 60.8303 96.0901 61.0667V61.0788Z" fill="#592D25"/>
<path d="M94.2462 59.7879C95.2452 60.4545 96.1625 61.2394 97.113 61.9697C97.3007 62.1151 97.4854 61.797 97.3007 61.6667C96.3471 60.9364 95.4329 60.1515 94.4309 59.4848C94.2341 59.3545 94.0494 59.6697 94.2462 59.7879Z" fill="#592D25"/>
<path d="M90.0959 52.5061C94.6369 51.1757 99.2717 52.5485 103.719 53.5273C103.949 53.5758 104.046 53.2242 103.816 53.1727C99.3019 52.1788 94.5915 50.803 89.996 52.1515C89.9536 52.1682 89.9189 52.1999 89.8985 52.2407C89.8781 52.2815 89.8734 52.3283 89.8854 52.3723C89.8975 52.4163 89.9253 52.4543 89.9636 52.479C90.0019 52.5037 90.0479 52.5133 90.0929 52.5061H90.0959Z" fill="#592D25"/>
<path d="M80.4904 70.6545C82.2583 70.2061 84.0747 69.7909 85.5702 68.6939C85.7579 68.5576 85.5702 68.2394 85.3855 68.3909C83.9112 69.4697 82.1312 69.8727 80.3935 70.3121C80.3511 70.3288 80.3164 70.3606 80.296 70.4013C80.2755 70.4421 80.2709 70.489 80.2829 70.5329C80.2949 70.5769 80.3228 70.6149 80.361 70.6396C80.3993 70.6643 80.4454 70.6739 80.4904 70.6667V70.6545Z" fill="#592D25"/>
<path d="M100.019 78.4333C100.512 78.5529 101.024 78.5625 101.521 78.4615C102.017 78.3604 102.486 78.1511 102.892 77.8485C103.08 77.7091 102.892 77.3909 102.708 77.5455C102.343 77.8236 101.922 78.0171 101.474 78.1119C101.025 78.2068 100.562 78.2007 100.116 78.0939C99.8892 78.0424 99.7893 78.397 100.019 78.4485V78.4333Z" fill="#592D25"/>
<path d="M88.007 72.9818C89.2754 72.7879 91.5338 72.297 91.7094 70.703C91.7296 70.3658 91.667 70.0288 91.5272 69.7214C91.3873 69.414 91.1745 69.1455 90.9071 68.9394C90.2714 68.4273 89.4389 68.3091 88.6518 68.2364C88.4157 68.2151 88.4187 68.5818 88.6518 68.603C89.3269 68.6636 90.0595 68.7576 90.6226 69.1788C90.8874 69.3625 91.0933 69.6192 91.2153 69.9177C91.3372 70.2162 91.3701 70.5438 91.3098 70.8606C91.1342 71.4909 90.5015 71.8455 89.9384 72.0727C89.2869 72.3375 88.6059 72.5226 87.9101 72.6242C87.677 72.6576 87.7739 73.0121 88.007 72.9758V72.9818Z" fill="#592D25"/>
<path d="M76.5906 65.4303C76.9595 65.3855 77.2978 65.2024 77.5371 64.9178C77.7764 64.6333 77.8991 64.2685 77.8803 63.897C77.8488 63.4718 77.6984 63.0641 77.4462 62.7206C77.194 62.3771 76.8503 62.1116 76.4544 61.9545C75.7309 61.6303 74.7682 61.5364 74.1688 62.1515C73.5694 62.7667 73.6693 63.706 74.084 64.3788C74.6047 65.2212 75.5977 65.5182 76.5422 65.4364C76.7753 65.4151 76.7783 65.0485 76.5422 65.0697C75.7067 65.1424 74.8227 64.9121 74.3716 64.1454C73.9508 63.4273 74.0295 62.3273 74.9771 62.106C75.4204 62.0251 75.8778 62.0792 76.2901 62.2612C76.7025 62.4433 77.0507 62.745 77.2899 63.1273C77.7592 63.9242 77.4807 64.9454 76.5028 65.0757C76.2697 65.1091 76.3696 65.4545 76.5906 65.4303Z" fill="#592D25"/>
<path d="M84.3254 68.5394C85.167 68.0909 85.7997 67 84.9944 66.1909C84.2316 65.4273 82.8753 65.603 81.9914 66.0273C81.1074 66.4515 80.4444 67.5697 81.2164 68.4364C81.9883 69.303 83.39 68.9909 84.3254 68.5394C84.5373 68.4364 84.3496 68.1212 84.1377 68.2364C83.4051 68.5909 82.3213 68.9182 81.622 68.3333C80.8198 67.6697 81.4222 66.7152 82.176 66.3546C82.8541 66.0303 83.8441 65.8758 84.5161 66.2939C84.6921 66.3907 84.832 66.5419 84.9149 66.7249C84.9979 66.9079 85.0194 67.1128 84.9763 67.3091C84.9105 67.5145 84.8017 67.7035 84.657 67.8634C84.5124 68.0233 84.3354 68.1505 84.1377 68.2364C83.9319 68.3333 84.1165 68.6485 84.3254 68.5394Z" fill="#592D25"/>
<path d="M89.6963 71.7849C89.8949 71.7068 90.0725 71.5831 90.2147 71.4238C90.3568 71.2644 90.4596 71.0738 90.5147 70.8674C90.5698 70.661 90.5757 70.4445 90.5318 70.2354C90.488 70.0263 90.3957 69.8305 90.2624 69.6636C89.6569 68.8909 88.4914 68.7546 87.6226 69.0818C87.4202 69.1508 87.2363 69.2653 87.0849 69.4164C86.9335 69.5675 86.8186 69.7512 86.7491 69.9536C86.6795 70.156 86.6572 70.3716 86.6837 70.584C86.7102 70.7963 86.7849 70.9998 86.9021 71.1788C87.5075 72.1303 88.6912 72.1727 89.6508 71.8C89.8688 71.7152 89.775 71.3636 89.554 71.4485C88.8486 71.7212 87.9616 71.8121 87.3864 71.2091C87.2452 71.0803 87.1411 70.916 87.0851 70.7331C87.0292 70.5503 87.0233 70.3558 87.0682 70.1699C87.113 69.9841 87.207 69.8137 87.3402 69.6766C87.4734 69.5396 87.641 69.4409 87.8254 69.3909C88.1618 69.2651 88.5254 69.2304 88.8795 69.2906C89.2336 69.3507 89.5655 69.5035 89.8416 69.7333C89.9755 69.8503 90.0764 70.0003 90.1344 70.1685C90.1924 70.3366 90.2053 70.5171 90.1719 70.6918C90.1385 70.8665 90.06 71.0294 89.9441 71.1643C89.8283 71.2992 89.6792 71.4014 89.5116 71.4606C89.3057 71.5636 89.4813 71.8788 89.6963 71.7849Z" fill="#592D25"/>
<path d="M82.5551 54.9212C83.1847 55.2091 83.987 55.0879 84.6318 54.9C85.337 54.689 85.983 54.3153 86.5178 53.8091C86.6903 53.6455 86.43 53.3879 86.2605 53.5485C85.7999 53.9861 85.2476 54.3153 84.6439 54.5121C84.0838 54.6939 83.2998 54.8606 82.7397 54.6061C82.5278 54.5091 82.3401 54.8242 82.5551 54.9091V54.9212Z" fill="#592D25"/>
<path d="M50.8742 50.0273C50.8742 50.0273 53.4564 45.6212 46.757 43.303C41.4562 41.4697 44.865 49.0121 44.865 49.0121L50.8742 50.0273Z" fill="#FF9C78"/>
<path d="M5.85194 60.3697C6.28717 59.8251 6.66364 59.236 6.97506 58.6121C7.30504 57.9758 7.61988 57.3303 7.93472 56.6879C8.57045 55.3869 9.186 54.0737 9.78137 52.7485C10.0629 52.1182 10.3444 51.4849 10.6169 50.8515C10.6124 50.841 10.6101 50.8297 10.6101 50.8182C10.6101 50.8067 10.6124 50.7954 10.6169 50.7849C10.7905 50.304 10.9681 49.8232 11.1497 49.3424C11.1285 49.3242 11.4252 47.9788 11.4524 47.9424C13.6109 41.7364 18.5151 39.1727 24.6212 37.303C24.8089 37.2455 24.9935 37.1879 25.1812 37.1364C27.2858 36.5693 29.4178 36.1091 31.5688 35.7576C32.3832 35.6091 33.1975 35.4546 34.0118 35.303C35.2954 35.3818 36.582 35.5061 37.8686 35.5303C38.7556 35.5485 39.6487 35.5303 40.5357 35.5303L40.5538 35.5485L51.5459 36.5758C51.5459 36.5758 54.9819 37.0667 54.6792 39.6242C54.3946 42.0485 51.4612 42.6 48.3461 42.3212L42.7032 42.4546C42.682 42.9485 42.6427 43.4424 42.5791 43.9333C42.4217 45.1148 42.1973 46.2864 41.907 47.4424C41.6648 48.4515 41.3924 49.4485 41.0654 50.4333C40.4569 52.3853 39.5522 54.2321 38.3833 55.9091C37.7816 56.743 37.0868 57.5055 36.3126 58.1818C36.1309 58.3394 35.9433 58.4849 35.7556 58.6394C33.2424 61.5501 30.1242 63.8761 26.6192 65.4546C25.2041 66.026 23.7541 66.5068 22.278 66.8939C22.278 66.8939 16.2477 73.703 14.3496 75.8212C14.1899 75.9984 13.9737 76.1146 13.7379 76.1499C13.5022 76.1853 13.2615 76.1377 13.0569 76.0152C8.94886 73.5667 4.32013 68.8818 2.40082 64.7333C2.30945 64.539 2.28163 64.3208 2.3213 64.1097C2.36098 63.8986 2.46613 63.7054 2.62181 63.5576C3.5633 62.6606 5.51591 60.7849 5.85194 60.3697Z" fill="#FF9C78"/>
<path d="M38.3375 58.8818L55.248 25.9121C55.7656 24.9 55.6415 23.6 54.9694 23.006L45.3669 14.497C44.6948 13.8909 43.7321 14.2394 43.2114 15.2485L26.304 48.2212C25.7863 49.2303 25.9104 50.5303 26.5825 51.1273L36.1851 59.6333C36.8571 60.2273 37.8198 59.8909 38.3375 58.8818Z" fill="#003C75"/>
<path d="M28.3235 48.5849L45.234 15.6152C45.3366 15.4098 45.4692 15.2208 45.6275 15.0546C45.3299 14.7976 45.0526 14.518 44.7981 14.2182L46.8112 14.5818C47.0254 14.6184 47.2249 14.715 47.3864 14.8606L56.989 23.3697C57.661 23.9758 57.7852 25.2667 57.2675 26.2758L40.357 59.2455C39.8393 60.2576 38.8767 60.594 38.2046 59.997L28.602 51.4909C27.93 50.9091 27.8058 49.594 28.3235 48.5849Z" fill="#003C75"/>
<path d="M43.4908 16.0333L27.4189 47.3727C27.0132 48.1636 27.0768 49.1576 27.5672 49.5909L36.9004 57.8606C37.3878 58.2939 38.1113 57.997 38.52 57.206L54.5919 25.8667C54.9976 25.0727 54.934 24.0788 54.4466 23.6454L45.1074 15.3757C44.623 14.9454 43.8965 15.2394 43.4908 16.0333Z" fill="#F2F7FA"/>
<path d="M46.343 34.5375C47.1426 31.4065 46.1022 28.4362 44.019 27.9031C41.9359 27.3701 39.599 29.4761 38.7994 32.6071C37.9998 35.7382 39.0403 38.7085 41.1234 39.2415C43.2065 39.7746 45.5434 37.6685 46.343 34.5375Z" fill="#085900"/>
<path d="M39.8764 32.5333L40.2306 36.4727C40.2338 36.5312 40.2487 36.5885 40.2743 36.6412C40.3 36.6939 40.3359 36.7409 40.38 36.7794C40.4241 36.818 40.4755 36.8473 40.531 36.8657C40.5866 36.8841 40.6453 36.8912 40.7037 36.8866C40.762 36.8819 40.8189 36.8656 40.8709 36.8387C40.9228 36.8117 40.9689 36.7746 41.0063 36.7295C41.0438 36.6845 41.0718 36.6324 41.0889 36.5763C41.1059 36.5202 41.1115 36.4613 41.1055 36.403C40.9864 35.0899 40.8693 33.7768 40.7543 32.4636C40.7451 32.3471 40.69 32.239 40.6011 32.1631C40.5123 32.0873 40.3969 32.0498 40.2805 32.0591C40.1641 32.0683 40.0561 32.1235 39.9803 32.2124C39.9045 32.3014 39.8671 32.4168 39.8764 32.5333Z" fill="#F2F7FA"/>
<path d="M44.8742 30.9091L43.1577 32.8939C42.5179 33.6374 41.8772 34.3788 41.2354 35.1182L40.3272 36.1636C40.2582 36.2531 40.2257 36.3655 40.2364 36.478C40.2471 36.5906 40.3001 36.6948 40.3847 36.7697C40.4743 36.8381 40.5865 36.8701 40.6987 36.8595C40.8109 36.8488 40.915 36.7962 40.9902 36.7121L42.7066 34.7273L44.629 32.503L45.5372 31.4576C45.5795 31.4138 45.6123 31.3617 45.6336 31.3046C45.6549 31.2475 45.6642 31.1867 45.6609 31.1258C45.6576 31.065 45.6417 31.0055 45.6144 30.9511C45.587 30.8966 45.5487 30.8484 45.5019 30.8095C45.4551 30.7706 45.4007 30.7418 45.3422 30.7248C45.2837 30.7079 45.2224 30.7033 45.1621 30.7112C45.1017 30.7191 45.0436 30.7395 44.9915 30.7709C44.9393 30.8023 44.8943 30.8442 44.859 30.8939L44.8742 30.9091Z" fill="#F2F7FA"/>
<path d="M27.6702 46.8849L27.4189 47.3727C27.0132 48.1636 27.0768 49.1576 27.5672 49.5909L36.9004 57.8606C37.3878 58.2939 38.1113 57.997 38.52 57.2061L38.7682 56.7182L27.6702 46.8849Z" fill="#99BCD5"/>
<path d="M43.4908 16.0333L42.9883 17.0151L54.0863 26.8485L54.5919 25.8667C54.9976 25.0727 54.934 24.0788 54.4466 23.6454L45.1074 15.3757C44.623 14.9454 43.8965 15.2394 43.4908 16.0333Z" fill="#99BCD5"/>
<path d="M44.5495 16.7091C44.4891 16.8108 44.461 16.9285 44.4691 17.0465C44.4773 17.1645 44.5211 17.2773 44.5949 17.3697C44.7402 17.5 44.9551 17.4121 45.0762 17.1757C45.1371 17.0744 45.1656 16.9568 45.158 16.8388C45.1505 16.7208 45.1071 16.6079 45.0338 16.5151C44.8885 16.3848 44.6706 16.4727 44.5495 16.7091Z" fill="#F2F7FA"/>
<path d="M45.2975 17.3727C45.2371 17.4744 45.2091 17.5921 45.2172 17.7101C45.2253 17.8282 45.2692 17.9409 45.3429 18.0333C45.4882 18.1606 45.7032 18.0758 45.8243 17.8394C45.885 17.7374 45.9134 17.6194 45.9058 17.501C45.8983 17.3825 45.8551 17.2692 45.7819 17.1758C45.6366 17.0485 45.4095 17.1364 45.2975 17.3727Z" fill="#F2F7FA"/>
<path d="M46.0453 18.0333C45.9851 18.1356 45.9571 18.2537 45.9652 18.3722C45.9733 18.4907 46.0171 18.6039 46.0907 18.697C46.236 18.8242 46.451 18.7364 46.5721 18.5C46.6329 18.3986 46.6615 18.2811 46.6539 18.1631C46.6463 18.0451 46.603 17.9321 46.5297 17.8394C46.3844 17.7121 46.1664 17.797 46.0453 18.0333Z" fill="#F2F7FA"/>
<path d="M52.1212 24.0394L53.2111 25.006C53.3685 25.1454 53.5955 25.0667 53.7166 24.8303C53.7755 24.7232 53.8007 24.6007 53.7888 24.4791C53.7769 24.3574 53.7285 24.2421 53.65 24.1485L52.5602 23.1818C52.4028 23.0454 52.1788 23.1242 52.0577 23.3606C51.999 23.4671 51.9737 23.5887 51.9851 23.7098C51.9964 23.8308 52.0438 23.9457 52.1212 24.0394Z" fill="#F2F7FA"/>
<path d="M49.3879 20.2758C49.2184 20.1273 48.9701 20.2273 48.8309 20.5C48.7605 20.6173 48.7277 20.7534 48.7369 20.8899C48.7461 21.0264 48.7968 21.1569 48.8823 21.2636C49.0488 21.4121 49.2971 21.3091 49.4363 21.0394C49.5063 20.9221 49.5391 20.7864 49.5305 20.65C49.5218 20.5137 49.4721 20.3832 49.3879 20.2758Z" fill="#003C75"/>
<path d="M34.3241 42.2152L37.415 44.9424L39.2526 46.5727C39.3737 46.6818 39.5038 46.7879 39.6219 46.9C39.7336 47.0442 39.892 47.1449 40.0699 47.1849C40.4332 47.2333 40.7541 46.9424 40.963 46.6788C41.2055 46.319 41.4143 45.9376 41.5866 45.5394C41.7565 45.2411 41.8641 44.9113 41.9026 44.57C41.9411 44.2288 41.9098 43.8833 41.8106 43.5546C41.626 43.0667 41.1083 42.7273 40.7329 42.3939L36.7702 38.8849C36.5916 38.7273 36.416 38.5606 36.2313 38.4061C35.7621 38.0152 35.2353 38.2212 34.866 38.6515C34.5733 39.0491 34.3293 39.4805 34.1395 39.9364C33.8367 40.5424 33.5734 41.7152 34.2848 42.1788C34.4785 42.3061 34.3181 42.6364 34.1213 42.5091C33.5552 42.1364 33.425 41.4455 33.4946 40.8091C33.5941 40.2405 33.7995 39.6957 34.1001 39.203C34.3514 38.7121 34.6269 38.2212 35.1385 37.9606C35.3439 37.8493 35.5784 37.8035 35.8106 37.8295C36.0428 37.8555 36.2614 37.952 36.4372 38.1061C37.745 39.1788 38.9801 40.3576 40.2455 41.4788C40.7329 41.9121 41.2354 42.3333 41.7107 42.7758C42.5796 43.5879 42.3162 44.897 41.8348 45.8455C41.6354 46.3377 41.3481 46.7895 40.9872 47.1788C40.5331 47.5909 39.9155 47.7061 39.4463 47.2576C39.0558 46.8818 38.638 46.5243 38.2354 46.1636L34.0789 42.4818C34.0538 42.4473 34.0415 42.4051 34.044 42.3625C34.0464 42.3199 34.0636 42.2794 34.0924 42.248C34.1213 42.2166 34.1602 42.1962 34.2024 42.1902C34.2447 42.1842 34.2877 42.193 34.3241 42.2152Z" fill="#090909"/>
<path d="M8.36792 56.0606C8.79779 54.8485 9.27611 53.6576 9.72415 52.4576C10.1722 51.2576 10.6323 50.0333 11.0985 48.8212C11.7888 47.003 12.5395 45.0939 13.923 43.6697C14.6568 42.9297 15.5552 42.3741 16.5446 42.0485C17.7096 41.6919 18.893 41.3986 20.0896 41.1697C21.358 40.8849 22.6265 40.603 23.8979 40.3333C25.7142 39.9918 27.5795 40.0083 29.3895 40.3818C31.112 40.6849 32.7528 41.3242 34.5026 41.4091C35.4531 41.4546 36.8215 41.303 37.5843 41.9939C38.6045 42.903 37.7085 44.4879 36.7972 45.0909C34.6781 46.4788 31.996 45.697 29.7073 46.3485C28.0272 46.8273 26.5135 47.8364 25.1422 48.903L24.5216 49.4091C24.6622 50.2306 24.723 51.0638 24.7032 51.897C24.6675 53.563 24.3033 55.2056 23.6315 56.7303C23.0167 58.1082 22.1641 59.3669 21.1128 60.4485C20.0475 61.5584 18.7847 62.4597 17.3893 63.1061C15.8756 63.7909 14.1652 64.1515 12.5456 63.797C12.3518 63.7546 12.1611 63.7 11.9734 63.6394C11.3638 63.667 10.7556 63.5602 10.1917 63.3267C9.62777 63.0932 9.12197 62.7385 8.71 62.2879C7.16003 60.5546 7.66861 58.0273 8.36792 56.0606Z" fill="#FF9C78"/>
<path d="M46.4421 52.697C47.4127 52.3928 48.3451 51.9779 49.2211 51.4606C49.9991 50.9939 51.201 50.303 51.1434 48.897C50.9527 44.3182 46.5541 47.0394 45.0223 47.8909C44.1474 48.3758 43.2271 48.8758 42.7427 50.0121C42.5359 50.4715 42.4534 50.9774 42.5035 51.4788C42.8275 53.8061 45.3189 53.0606 46.4421 52.697Z" fill="#FF9C78"/>
<path d="M35.1927 55.5697C35.5439 56.5788 38.111 57.2758 39.3704 57.5758C40.7271 57.9 42.11 58.1028 43.5026 58.1818C45.1101 58.2758 47.4775 57.9515 47.5925 55.8909C47.7076 53.8303 45.3432 53.2 43.7418 53.0212C42.4431 52.8788 41.1565 52.6424 39.8487 52.5788C38.2987 52.5061 35.7951 52.5394 35.1624 54.1939C35.0142 54.6424 35.0249 55.1282 35.1927 55.5697Z" fill="#FF9C78"/>
<path d="M30.7149 59.9424C31.6958 60.5212 32.9218 60.597 34.0207 60.7576C35.2489 60.9302 36.4898 60.9941 37.7292 60.9485C39.158 60.9 41.2317 60.4243 41.1651 58.5879C41.1288 57.6182 40.3508 56.9182 39.488 56.6121C38.4254 56.2364 37.1479 56.3394 36.0369 56.3091C34.7704 56.2461 33.5009 56.3356 32.2558 56.5758C31.8117 56.6598 31.3809 56.8036 30.9753 57.003C30.535 57.2345 30.1986 57.6243 30.0338 58.094C29.904 58.4323 29.9015 58.8064 30.0268 59.1465C30.1521 59.4866 30.3967 59.7695 30.7149 59.9424Z" fill="#FF9C78"/>
<path d="M24.7365 49.6091C24.782 52.1576 24.6276 54.6939 23.3288 56.9576C22.0347 59.1256 20.0459 60.7916 17.686 61.6849C16.1964 62.2608 14.6269 62.6032 13.033 62.7C12.9848 62.7032 12.9374 62.6871 12.901 62.6553C12.8647 62.6235 12.8425 62.5785 12.8393 62.5303C12.8361 62.4821 12.8521 62.4346 12.8839 62.3982C12.9157 62.3618 12.9606 62.3396 13.0088 62.3364C15.6547 62.1485 18.2945 61.3697 20.4136 59.7303C22.3346 58.2499 23.6543 56.1225 24.1281 53.7424C24.361 52.386 24.4432 51.0079 24.3733 49.6333C24.3733 49.397 24.7335 49.3727 24.7365 49.6091Z" fill="#E86E41"/>
<path d="M26.489 48.197C25.5354 48.9273 24.6726 49.7727 23.7644 50.5667C23.5888 50.7242 23.386 50.4182 23.5616 50.2636C24.4698 49.4697 25.3204 48.6242 26.2862 47.8909C26.4738 47.7485 26.6767 48.0515 26.492 48.1939L26.489 48.197Z" fill="#E86E41"/>
<path d="M30.1345 40.6454C25.5269 39.6303 20.983 41.3121 16.6116 42.5909C16.3845 42.6576 16.2634 42.3121 16.4905 42.2454C20.9255 40.9485 25.533 39.2545 30.2071 40.2879C30.2545 40.2975 30.2961 40.3256 30.3228 40.3659C30.3495 40.4063 30.3591 40.4556 30.3494 40.503C30.3398 40.5504 30.3117 40.5921 30.2714 40.6188C30.2311 40.6455 30.1819 40.6551 30.1345 40.6454Z" fill="#E86E41"/>
<path d="M40.9506 58.1C39.1585 57.7727 37.3179 57.4939 35.7497 56.4909C35.553 56.3667 35.7134 56.0364 35.9132 56.1636C37.4541 57.1394 39.2584 57.4182 41.0233 57.7394C41.0671 57.7529 41.1043 57.7822 41.1277 57.8216C41.1511 57.861 41.159 57.9077 41.15 57.9526C41.1409 57.9975 41.1155 58.0375 41.0787 58.0647C41.0418 58.092 40.9962 58.1045 40.9506 58.1Z" fill="#E86E41"/>
<path d="M21.9935 67.1909C21.5101 67.3431 20.9991 67.387 20.4969 67.3195C19.9946 67.2519 19.5134 67.0746 19.0873 66.8C18.8935 66.6727 19.0509 66.3424 19.2507 66.4727C19.6333 66.7243 20.0669 66.8879 20.5201 66.9518C20.9734 67.0157 21.4352 66.9784 21.8724 66.8424C22.0964 66.7727 22.2205 67.1182 21.9935 67.1909Z" fill="#E86E41"/>
<path d="M33.6038 60.9333C32.3232 60.8273 30.0376 60.4879 29.7561 58.9121C29.7118 58.5766 29.7504 58.2354 29.8687 57.9184C29.9869 57.6014 30.1811 57.3183 30.4342 57.0939C31.0397 56.5364 31.857 56.3636 32.6381 56.2364C32.8712 56.2 32.8954 56.5667 32.6653 56.603C31.9933 56.7091 31.2667 56.8545 30.7369 57.3121C30.4839 57.5116 30.2948 57.7809 30.1931 58.0869C30.0914 58.3928 30.0815 58.7219 30.1648 59.0333C30.3827 59.6394 31.0366 59.9636 31.6149 60.1576C32.2834 60.376 32.9754 60.5144 33.6764 60.5697C33.9126 60.5879 33.8369 60.9485 33.6038 60.9273V60.9333Z" fill="#E86E41"/>
<path d="M44.4775 52.6242C44.1063 52.6044 43.7563 52.4446 43.498 52.177C43.2396 51.9094 43.0921 51.5539 43.085 51.1818C43.0885 50.7557 43.2112 50.3391 43.4391 49.9792C43.6671 49.6193 43.9911 49.3305 44.3746 49.1455C45.0769 48.7758 46.0305 48.6152 46.6723 49.1879C47.3141 49.7606 47.2778 50.703 46.9054 51.403C46.4422 52.2788 45.4735 52.6455 44.526 52.6152C44.2929 52.6152 44.2656 52.2455 44.5017 52.2485C45.3403 52.2667 46.2061 51.9758 46.6027 51.1788C46.975 50.4333 46.8206 49.3606 45.8701 49.1849C45.4221 49.1346 44.9693 49.2198 44.5701 49.4293C44.1709 49.6389 43.8434 49.9632 43.6299 50.3606C43.2182 51.1879 43.5663 52.1788 44.5381 52.2515C44.7833 52.2788 44.7106 52.6394 44.4775 52.6242Z" fill="#E86E41"/>
<path d="M36.9815 56.2515C36.1096 55.8606 35.4073 54.8152 36.152 53.9545C36.8967 53.0939 38.2287 53.2242 39.1399 53.5849C40.0511 53.9455 40.7868 55.0212 40.0754 55.9394C39.3639 56.8576 37.9562 56.6394 36.9815 56.2424C36.7635 56.1546 36.927 55.8243 37.1449 55.9121C37.8987 56.2152 38.9976 56.4727 39.6636 55.8394C40.4174 55.1212 39.7514 54.2121 38.9764 53.9061C38.2771 53.6273 37.2781 53.5394 36.6363 54.003C36.4677 54.1114 36.3385 54.2715 36.2681 54.4593C36.1977 54.6472 36.1899 54.8528 36.2458 55.0455C36.3265 55.2465 36.4493 55.4279 36.606 55.5774C36.7626 55.7269 36.9495 55.8411 37.154 55.9121C37.3599 56.0182 37.1964 56.3455 36.9815 56.2515Z" fill="#E86E41"/>
<path d="M31.8411 59.8545C31.638 59.7904 31.4528 59.6795 31.3004 59.5306C31.148 59.3817 31.0327 59.199 30.9638 58.9973C30.8949 58.7956 30.8742 58.5806 30.9036 58.3694C30.9329 58.1583 31.0114 57.957 31.1327 57.7818C31.6746 56.9697 32.8371 56.7394 33.7271 57.0212C33.9337 57.0757 34.125 57.1769 34.2864 57.3169C34.4479 57.4569 34.5751 57.6321 34.6584 57.829C34.7417 58.0259 34.7789 58.2393 34.767 58.4528C34.7551 58.6663 34.6945 58.8742 34.5899 59.0606C34.0511 60.0515 32.8704 60.1758 31.8865 59.8697C31.6656 59.8 31.7352 59.4394 31.9592 59.5121C32.6858 59.7364 33.5758 59.7667 34.1056 59.1273C34.2371 58.9892 34.3292 58.8184 34.3724 58.6326C34.4156 58.4468 34.4082 58.2528 34.351 58.0709C34.2938 57.8889 34.1889 57.7256 34.0472 57.598C33.9056 57.4704 33.7323 57.3832 33.5455 57.3454C32.8855 57.1697 32.0319 57.297 31.5566 57.8273C31.4311 57.9532 31.3408 58.1098 31.2946 58.2815C31.2484 58.4532 31.248 58.634 31.2933 58.806C31.3386 58.9779 31.4281 59.1349 31.5529 59.2615C31.6777 59.388 31.8334 59.4797 32.0046 59.5273C32.2256 59.6061 32.0621 59.9333 31.8411 59.8545Z" fill="#E86E41"/>
<path d="M37.8239 42.5455C37.2185 42.8727 36.4041 42.8061 35.7502 42.6636C35.0322 42.5011 34.3624 42.1721 33.7946 41.703C33.6099 41.5515 33.8521 41.2758 34.0338 41.4273C34.5223 41.8322 35.0955 42.1221 35.7109 42.2758C36.283 42.4182 37.0762 42.5333 37.6181 42.2424C37.8239 42.1303 38.0298 42.4333 37.8239 42.5455Z" fill="#E86E41"/>
</svg>
