<svg width="64" height="64" viewBox="0 0 64 64" fill="none" xmlns="http://www.w3.org/2000/svg">
<path opacity="0.05" d="M32 64C49.6731 64 64 49.6731 64 32C64 14.3269 49.6731 0 32 0C14.3269 0 0 14.3269 0 32C0 49.6731 14.3269 64 32 64Z" fill="#383838"/>
<path d="M39.6907 13.4595H24.3025C23.0109 13.4595 21.9639 14.5065 21.9639 15.7981V48.202C21.9639 49.4936 23.0109 50.5407 24.3025 50.5407H39.6907C40.9824 50.5407 42.0294 49.4936 42.0294 48.202V15.7981C42.0294 14.5065 40.9824 13.4595 39.6907 13.4595Z" fill="white"/>
<g opacity="0.1">
<path d="M41.9937 13.4595H21.9644V19.7823H41.9937V13.4595Z" fill="#863399"/>
</g>
<path d="M41.7464 19.7825H22.4825C22.3261 19.7825 22.1992 19.9093 22.1992 20.0658V43.3862C22.1992 43.5426 22.3261 43.6695 22.4825 43.6695H41.7464C41.9029 43.6695 42.0297 43.5426 42.0297 43.3862V20.0658C42.0297 19.9093 41.9029 19.7825 41.7464 19.7825Z" fill="white"/>
<path d="M42.0239 19.228H21.9644V20.3431H42.0239V19.228Z" fill="#863399"/>
<path d="M41.9935 42.699H22.1992V43.8141H41.9935V42.699Z" fill="#863399"/>
<g opacity="0.1">
<path d="M22.2542 43.4585H41.7109C41.8676 43.4585 41.9942 43.5851 41.9942 43.7418V48.7084C41.9942 49.7211 41.1745 50.5408 40.1619 50.5408H23.6646C22.7243 50.5408 21.9648 49.7813 21.9648 48.8411V43.7478C21.9648 43.5911 22.0914 43.4645 22.2481 43.4645L22.2542 43.4585Z" fill="#863399"/>
</g>
<g opacity="0.12">
<path d="M37.9917 13.7248V50.2816C37.9917 50.4263 38.1123 50.5468 38.2569 50.5468H40.4871C41.3189 50.5468 41.9879 49.8718 41.994 49.046L42.0301 14.8942C42.0301 14.1106 41.3912 13.4717 40.6076 13.4717H38.2569C38.1123 13.4717 37.9917 13.5922 37.9917 13.7369V13.7248Z" fill="#383838"/>
</g>
<path d="M35.7193 15.8586H28.9986C28.7456 15.8586 28.5405 16.0637 28.5405 16.3167V16.8713C28.5405 17.1243 28.7456 17.3294 28.9986 17.3294H35.7193C35.9723 17.3294 36.1774 17.1243 36.1774 16.8713V16.3167C36.1774 16.0637 35.9723 15.8586 35.7193 15.8586Z" fill="#863399"/>
<path d="M32.1447 48.7203C33.0668 48.7203 33.8143 47.9728 33.8143 47.0507C33.8143 46.1286 33.0668 45.3811 32.1447 45.3811C31.2226 45.3811 30.4751 46.1286 30.4751 47.0507C30.4751 47.9728 31.2226 48.7203 32.1447 48.7203Z" fill="#863399"/>
<path d="M39.8714 51.0952H24.1276C22.6267 51.0952 21.4092 49.8776 21.4092 48.3768V15.6173C21.4092 14.1165 22.6267 12.8989 24.1276 12.8989H39.8714C41.3723 12.8989 42.5898 14.1165 42.5898 15.6173V48.3768C42.5898 49.8776 41.3723 51.0952 39.8714 51.0952ZM24.1276 14.014C23.2415 14.014 22.5243 14.7313 22.5243 15.6173V48.3768C22.5243 49.2628 23.2415 49.9801 24.1276 49.9801H39.8714C40.7575 49.9801 41.4747 49.2628 41.4747 48.3768V15.6173C41.4747 14.7313 40.7575 14.014 39.8714 14.014H24.1276Z" fill="#863399"/>
<path d="M33.3745 26.6055V35.7914" stroke="#863399" stroke-width="0.904701" stroke-linecap="round" stroke-linejoin="round"/>
<path d="M30.439 27.2747V36.4545" stroke="#863399" stroke-width="0.904701" stroke-linecap="round" stroke-linejoin="round"/>
<path d="M35.382 29.4385L28.6191 30.6862" stroke="#863399" stroke-width="0.904701" stroke-linecap="round" stroke-linejoin="round"/>
<path d="M35.382 32.5125L28.6191 33.7541" stroke="#863399" stroke-width="0.904701" stroke-linecap="round" stroke-linejoin="round"/>
<path d="M45.1946 38.6424C50.3245 38.6424 54.483 34.4839 54.483 29.3541C54.483 24.2242 50.3245 20.0657 45.1946 20.0657C40.0648 20.0657 35.9062 24.2242 35.9062 29.3541C35.9062 34.4839 40.0648 38.6424 45.1946 38.6424Z" fill="#F58520"/>
<path d="M43.6276 33.1633C43.4106 33.1633 43.1936 33.0789 43.0249 32.9162L40.2462 30.1375C39.9147 29.806 39.9147 29.2635 40.2462 28.932C40.5777 28.6005 41.1202 28.6005 41.4517 28.932L43.6276 31.1079L48.9379 25.7977C49.2694 25.4662 49.8118 25.4662 50.1434 25.7977C50.4749 26.1292 50.4749 26.6717 50.1434 27.0032L44.2304 32.9162C44.0616 33.085 43.8446 33.1633 43.6276 33.1633Z" fill="white"/>
<g style="mix-blend-mode:darken" opacity="0.78">
<path d="M54.4834 29.3542C54.4834 34.4836 50.3244 38.6426 45.195 38.6426C44.6104 38.6426 44.0438 38.5883 43.4893 38.4859C47.8049 37.6902 51.0719 33.905 51.0719 29.3602C51.0719 24.8155 47.8049 21.0302 43.4893 20.2346C44.0378 20.1321 44.6104 20.0779 45.195 20.0779C50.3244 20.0779 54.4834 24.2369 54.4834 29.3663V29.3542Z" fill="#E57920"/>
</g>
</svg>
