<?xml version="1.0" encoding="UTF-8"?><svg id="Layer_1" xmlns="http://www.w3.org/2000/svg" viewBox="0 0 432 144"><defs><style>.cls-1{fill:#005996;}</style></defs><path d="M50.81,69.25v36.17h-11.75l-.37-5.87h-.19c-.56,1.43-1.35,2.61-2.38,3.54-1.03,.93-2.18,1.63-3.45,2.1-1.27,.47-2.64,.79-4.1,.98-1.46,.19-2.94,.28-4.43,.28-4.41,0-7.89-.73-10.44-2.19-2.55-1.46-4.47-3.65-5.78-6.57-1.3-2.92-2.13-6.53-2.47-10.81-.34-4.29-.51-9.2-.51-14.73s.33-10.53,.98-14.82c.65-4.29,1.89-7.89,3.73-10.81,1.83-2.92,4.37-5.14,7.6-6.67,3.23-1.52,7.4-2.28,12.49-2.28,3.04,0,5.86,.4,8.44,1.21,2.58,.81,4.8,2.11,6.67,3.92,1.86,1.8,3.32,4.12,4.38,6.95,1.06,2.83,1.58,6.26,1.58,10.3h-16.78c0-3.54-.31-6.12-.93-7.74-.62-1.93-1.96-2.89-4.01-2.89-1.43,0-2.56,.34-3.4,1.03-.84,.68-1.46,1.9-1.86,3.64-.4,1.74-.67,4.09-.79,7.04-.13,2.95-.19,6.67-.19,11.14s.06,8.19,.19,11.14c.12,2.95,.39,5.3,.79,7.04,.4,1.74,.99,2.95,1.77,3.64,.78,.68,1.82,1.03,3.12,1.03,.93,0,1.76-.19,2.47-.56,.71-.37,1.32-1.07,1.82-2.1,.5-1.03,.89-2.45,1.17-4.29,.28-1.83,.42-4.18,.42-7.04h-6.15v-11.75h22.37Z"/><path d="M95.51,89.95c-.47,3.17-1.45,5.98-2.94,8.44-1.49,2.46-3.65,4.41-6.48,5.87-2.83,1.46-6.6,2.19-11.33,2.19s-8.8-.67-11.65-2c-2.86-1.34-5-3.2-6.43-5.59-1.43-2.39-2.35-5.19-2.75-8.39-.41-3.2-.61-6.63-.61-10.3,0-3.29,.23-6.53,.7-9.7s1.45-6,2.94-8.48c1.49-2.48,3.65-4.49,6.48-6.01,2.83-1.52,6.6-2.28,11.33-2.28s8.79,.7,11.65,2.1c2.86,1.4,5,3.31,6.43,5.73,1.43,2.42,2.35,5.24,2.75,8.44,.4,3.2,.61,6.64,.61,10.3,0,3.3-.23,6.53-.7,9.7Zm-25.22-1.91c.12,2.02,.37,3.62,.75,4.8,.37,1.18,.85,1.99,1.45,2.42,.59,.44,1.35,.65,2.28,.65s1.71-.22,2.33-.65c.62-.43,1.1-1.24,1.45-2.42,.34-1.18,.57-2.78,.7-4.8,.12-2.02,.19-4.62,.19-7.78s-.06-5.78-.19-7.83c-.13-2.05-.36-3.67-.7-4.85-.34-1.18-.82-1.99-1.45-2.42-.62-.43-1.4-.65-2.33-.65s-1.69,.22-2.28,.65c-.59,.44-1.07,1.24-1.45,2.42-.37,1.18-.62,2.8-.75,4.85-.13,2.05-.19,4.66-.19,7.83s.06,5.77,.19,7.78Z"/><path d="M140.91,89.95c-.47,3.17-1.45,5.98-2.94,8.44-1.49,2.46-3.65,4.41-6.48,5.87-2.83,1.46-6.6,2.19-11.33,2.19s-8.8-.67-11.65-2c-2.86-1.34-5-3.2-6.43-5.59-1.43-2.39-2.35-5.19-2.75-8.39-.41-3.2-.61-6.63-.61-10.3,0-3.29,.23-6.53,.7-9.7s1.45-6,2.94-8.48c1.49-2.48,3.65-4.49,6.48-6.01,2.83-1.52,6.6-2.28,11.33-2.28s8.79,.7,11.65,2.1c2.86,1.4,5,3.31,6.43,5.73,1.43,2.42,2.35,5.24,2.75,8.44,.4,3.2,.61,6.64,.61,10.3,0,3.3-.23,6.53-.7,9.7Zm-25.22-1.91c.12,2.02,.37,3.62,.75,4.8,.37,1.18,.85,1.99,1.45,2.42,.59,.44,1.35,.65,2.28,.65s1.71-.22,2.33-.65c.62-.43,1.1-1.24,1.45-2.42,.34-1.18,.57-2.78,.7-4.8,.12-2.02,.19-4.62,.19-7.78s-.06-5.78-.19-7.83c-.13-2.05-.36-3.67-.7-4.85-.34-1.18-.82-1.99-1.45-2.42-.62-.43-1.4-.65-2.33-.65s-1.69,.22-2.28,.65c-.59,.44-1.07,1.24-1.45,2.42-.37,1.18-.62,2.8-.75,4.85-.13,2.05-.19,4.66-.19,7.83s.06,5.77,.19,7.78Z"/><path d="M187.1,38.86V105.42h-16.22v-6.9h-.19c-1.06,2.8-2.49,4.82-4.29,6.06-1.8,1.24-4.2,1.86-7.18,1.86-5.59,0-9.51-2.21-11.75-6.62-2.24-4.41-3.36-11.31-3.36-20.7,0-4.79,.37-8.79,1.12-12.03,.75-3.23,1.79-5.84,3.12-7.83,1.34-1.99,2.97-3.42,4.89-4.29,1.93-.87,4.04-1.3,6.34-1.3s4.49,.51,6.39,1.54c1.9,1.03,3.28,2.84,4.15,5.45h.19v-21.81h16.78Zm-26.01,48.1c.12,1.8,.36,3.25,.7,4.34,.34,1.09,.82,1.85,1.45,2.28,.62,.44,1.43,.65,2.42,.65,.93,0,1.71-.22,2.33-.65,.62-.43,1.1-1.2,1.45-2.28,.34-1.09,.57-2.53,.7-4.34,.12-1.8,.19-4.04,.19-6.71s-.06-5-.19-6.81c-.13-1.8-.36-3.25-.7-4.33-.34-1.09-.82-1.85-1.45-2.28-.62-.43-1.4-.65-2.33-.65-.99,0-1.8,.22-2.42,.65-.62,.44-1.1,1.2-1.45,2.28-.34,1.09-.58,2.53-.7,4.33-.13,1.8-.19,4.07-.19,6.81s.06,4.91,.19,6.71Z"/><path class="cls-1" d="M214.42,38.86l6.99,39.43h.19l6.99-39.43h24.8V105.42h-16.22V55.83h-.19l-9.23,49.6h-12.49l-9.23-49.6h-.19v49.6h-16.22V38.86h24.8Z"/><path class="cls-1" d="M298.09,89.95c-.47,3.17-1.45,5.98-2.94,8.44-1.49,2.46-3.65,4.41-6.48,5.87-2.83,1.46-6.6,2.19-11.33,2.19s-8.8-.67-11.65-2c-2.86-1.34-5-3.2-6.43-5.59-1.43-2.39-2.35-5.19-2.75-8.39-.41-3.2-.61-6.63-.61-10.3,0-3.29,.23-6.53,.7-9.7,.47-3.17,1.45-6,2.94-8.48,1.49-2.48,3.65-4.49,6.48-6.01,2.83-1.52,6.6-2.28,11.33-2.28s8.79,.7,11.65,2.1c2.86,1.4,5,3.31,6.43,5.73,1.43,2.42,2.35,5.24,2.75,8.44,.4,3.2,.61,6.64,.61,10.3,0,3.3-.23,6.53-.7,9.7Zm-25.22-1.91c.12,2.02,.37,3.62,.75,4.8,.37,1.18,.85,1.99,1.45,2.42,.59,.44,1.35,.65,2.28,.65s1.71-.22,2.33-.65c.62-.43,1.1-1.24,1.45-2.42,.34-1.18,.57-2.78,.7-4.8,.12-2.02,.19-4.62,.19-7.78s-.06-5.78-.19-7.83c-.13-2.05-.36-3.67-.7-4.85-.34-1.18-.82-1.99-1.45-2.42-.62-.43-1.4-.65-2.33-.65s-1.69,.22-2.28,.65c-.59,.44-1.07,1.24-1.45,2.42-.37,1.18-.62,2.8-.75,4.85-.13,2.05-.19,4.66-.19,7.83s.06,5.77,.19,7.78Z"/><path class="cls-1" d="M318.08,38.86v21.81h.19c.87-2.61,2.25-4.43,4.15-5.45,1.89-1.03,4.02-1.54,6.39-1.54s4.6,.42,6.53,1.26c1.93,.84,3.54,2.24,4.85,4.2,1.3,1.96,2.31,4.57,3.03,7.83,.71,3.26,1.07,7.32,1.07,12.17,0,9.39-1.12,16.28-3.36,20.7-2.24,4.41-6.15,6.62-11.75,6.62-2.98,0-5.38-.62-7.18-1.86-1.8-1.24-3.23-3.26-4.29-6.06h-.19v6.9h-16.22V38.86h16.78Zm.19,48.1c.12,1.8,.36,3.25,.7,4.34,.34,1.09,.82,1.85,1.45,2.28,.62,.44,1.4,.65,2.33,.65,.99,0,1.8-.22,2.42-.65,.62-.43,1.1-1.2,1.45-2.28,.34-1.09,.57-2.53,.7-4.34,.12-1.8,.19-4.04,.19-6.71s-.06-5-.19-6.81c-.13-1.8-.36-3.25-.7-4.33-.34-1.09-.82-1.85-1.45-2.28-.62-.43-1.43-.65-2.42-.65-.93,0-1.71,.22-2.33,.65-.62,.44-1.1,1.2-1.45,2.28-.34,1.09-.58,2.53-.7,4.33-.13,1.8-.19,4.07-.19,6.81s.06,4.91,.19,6.71Z"/><path class="cls-1" d="M363.57,38.86v12.49h-16.78v-12.49h16.78Zm0,16.13v50.44h-16.78V54.99h16.78Z"/><path class="cls-1" d="M382.87,38.86V105.42h-16.78V38.86h16.78Z"/><path class="cls-1" d="M402.16,89.67c0,2.74,.47,4.55,1.4,5.45,.93,.9,1.99,1.35,3.17,1.35,1.49,0,2.66-.61,3.5-1.82,.84-1.21,1.26-3.53,1.26-6.95h15.1c-.13,6.22-1.71,10.89-4.75,14.03-3.05,3.14-8.05,4.71-15.01,4.71-4.04,0-7.43-.45-10.16-1.35-2.74-.9-4.94-2.39-6.62-4.47-1.68-2.08-2.88-4.8-3.59-8.16-.71-3.36-1.07-7.43-1.07-12.21s.4-8.95,1.21-12.31c.81-3.36,2.08-6.09,3.82-8.2,1.74-2.11,3.96-3.65,6.67-4.61,2.7-.96,5.95-1.45,9.74-1.45,3.36,0,6.29,.4,8.81,1.21,2.52,.81,4.63,2.16,6.34,4.06,1.71,1.9,2.98,4.38,3.82,7.46,.84,3.08,1.26,6.91,1.26,11.51v5.13h-24.89v6.62Zm8.25-23.87c-.65-1.24-1.88-1.86-3.68-1.86s-2.94,.62-3.59,1.86c-.65,1.24-.98,3.2-.98,5.87v2.24h9.23v-2.24c0-2.67-.33-4.63-.98-5.87Z"/></svg>