<?xml version="1.0" encoding="UTF-8"?><svg id="Layer_1" xmlns="http://www.w3.org/2000/svg" viewBox="0 0 2000 454.24"><defs><style>.cls-1{fill:#005a9a;}</style></defs><path class="cls-1" d="M1577.17,78.55v46.77h73.81v-46.77h-73.81Zm0,64.84v232.16h73.81V143.39h-73.81Z"/><g><g><path d="M465.65,215.02c-1.78-14.08-5.81-26.46-12.1-37.13-6.29-10.67-15.72-19.08-28.28-25.24-12.58-6.15-29.68-9.23-51.26-9.23s-37.4,3.35-49.83,10.05c-12.44,6.71-21.93,15.53-28.5,26.47-6.56,10.94-10.86,23.39-12.91,37.34-2.05,13.95-3.07,28.17-3.07,42.67,0,16.14,.88,31.25,2.66,45.33,1.78,14.09,5.8,26.4,12.1,36.93,6.28,10.54,15.71,18.75,28.29,24.62,12.56,5.88,29.65,8.83,51.26,8.83s37.37-3.22,49.81-9.65c12.43-6.42,21.94-15.04,28.5-25.85,6.56-10.8,10.86-23.18,12.91-37.13s3.08-28.17,3.08-42.67c0-16.14-.9-31.25-2.67-45.34Zm-70.47,95.18c0,11.79-9.55,21.35-21.32,21.35s-21.33-9.55-21.33-21.35v-100.98c0-5.9,2.39-11.23,6.24-15.1,3.87-3.86,9.2-6.25,15.09-6.25,11.77,0,21.32,9.55,21.32,21.35v100.98Z"/><path d="M666.86,215.04c-1.78-14.08-5.81-26.48-12.09-37.13-6.29-10.68-15.72-19.09-28.29-25.24-12.58-6.16-29.66-9.24-51.26-9.24s-37.38,3.36-49.83,10.06c-12.44,6.71-21.93,15.54-28.49,26.47-6.56,10.94-10.87,23.38-12.92,37.33-2.05,13.96-3.07,28.19-3.07,42.69,0,16.13,.88,31.26,2.66,45.34,1.78,14.09,5.81,26.4,12.1,36.93,6.28,10.54,15.71,18.75,28.29,24.62,12.57,5.87,29.65,8.82,51.26,8.82s37.37-3.21,49.81-9.64c12.44-6.43,21.94-15.04,28.5-25.85,6.56-10.8,10.86-23.19,12.91-37.13,2.05-13.96,3.08-28.19,3.08-42.69,0-16.13-.89-31.25-2.67-45.34Zm-70.41,95.01c0,11.8-9.55,21.35-21.32,21.35s-21.33-9.56-21.33-21.35v-101c0-5.9,2.39-11.23,6.24-15.1,3.87-3.86,9.2-6.25,15.09-6.25,11.77,0,21.32,9.56,21.32,21.35v101Z"/><path d="M797.48,78.56v95.64h-.82c-3.83-11.48-9.91-19.47-18.25-23.98s-17.7-6.77-28.08-6.77-19.41,1.92-27.88,5.75c-8.48,3.82-15.65,10.11-21.53,18.85-5.88,8.76-10.45,20.24-13.73,34.46-3.28,14.21-4.92,31.84-4.92,52.88,0,41.29,4.92,71.63,14.76,91.03,9.84,19.42,27.06,29.11,51.67,29.11,13.12,0,23.64-2.73,31.57-8.2,7.03-4.84,12.77-12.4,17.22-22.62v30.85h73.81V78.56h-73.81Zm-.35,231.73c0,11.79-9.55,21.33-21.33,21.33s-21.32-9.55-21.32-21.33v-100.92c0-5.89,2.39-11.22,6.24-15.09,3.87-3.85,9.18-6.24,15.08-6.24,11.79,0,21.33,9.55,21.33,21.33v100.92Z"/><path class="cls-1" d="M1361.44,214.82c-1.78-14.08-5.81-26.45-12.1-37.11-6.29-10.66-15.72-19.06-28.29-25.21-12.57-6.15-29.66-9.23-51.26-9.23s-37.38,3.35-49.81,10.05c-12.44,6.7-21.94,15.51-28.5,26.44-6.56,10.94-10.86,23.37-12.91,37.31-2.05,13.94-3.08,28.16-3.08,42.64,0,16.13,.89,31.23,2.67,45.31,1.77,14.08,5.8,26.38,12.09,36.9,6.29,10.52,15.72,18.72,28.29,24.6,12.57,5.87,29.66,8.81,51.26,8.81s37.38-3.21,49.83-9.63c12.43-6.42,21.93-15.03,28.49-25.83,6.56-10.8,10.87-23.17,12.92-37.11,2.05-13.94,3.07-28.15,3.07-42.64,0-16.12-.89-31.22-2.66-45.3Zm-70.3,95.53c0,11.79-9.55,21.33-21.32,21.33s-21.33-9.55-21.33-21.33v-100.92c0-5.89,2.39-11.22,6.24-15.09,3.87-3.85,9.2-6.24,15.09-6.24,11.77,0,21.32,9.55,21.32,21.33v100.92Z"/><path class="cls-1" d="M1560.53,202.04c-3.15-14.35-7.59-25.83-13.33-34.44-5.74-8.61-12.85-14.76-21.32-18.45-8.47-3.69-18.04-5.54-28.7-5.54s-19.75,2.26-28.08,6.77c-8.34,4.51-14.42,12.5-18.25,23.98l-.78-.13-.15-95.67h-73.62l.08,297.07h73.62v-30.74c4.44,10.24,10.2,17.74,17.24,22.59,7.93,5.47,18.45,8.2,31.57,8.2,24.6,0,41.82-9.7,51.66-29.11,9.84-19.4,14.76-49.74,14.76-91.03,0-21.32-1.57-39.15-4.71-53.5Zm-67.88,108c0,11.79-9.55,21.56-21.32,21.56s-20.74-9.19-21.31-20.46c-.01-.36-.02-.74-.02-1.1v-100.92c0-.37,.01-.74,.02-1.1,.28-5.45,2.61-10.37,6.22-13.99,3.87-3.85,9.2-5.99,15.09-5.99,11.77,0,21.32,9.3,21.32,21.08v100.92Z"/><path class="cls-1" d="M1663.21,78.6V375.6h73.81V78.6h-73.81Z"/><path class="cls-1" d="M1822.89,272.63h109.48v-22.56c0-20.22-1.85-37.1-5.54-50.63-3.69-13.53-9.29-24.46-16.81-32.8-7.52-8.34-16.81-14.28-27.88-17.84-11.07-3.55-23.98-5.33-38.74-5.33-16.68,0-30.96,2.12-42.86,6.36-11.89,4.24-21.66,11-29.31,20.29-7.66,9.3-13.26,21.32-16.81,36.08-3.56,14.76-5.33,32.8-5.33,54.13s1.57,38.95,4.71,53.72c3.14,14.76,8.41,26.72,15.79,35.88,7.38,9.16,17.08,15.72,29.11,19.68,12.02,3.96,26.92,5.94,44.69,5.94,30.61,0,52.61-6.9,66.02-20.7,13.39-13.8,20.36-34.37,20.91-61.72h-65.99v17.16c0,11.77-9.55,21.32-21.33,21.32s-21.33-9.55-21.33-21.32v-37.65h1.23Zm-1.23-63.28c0-5.89,2.39-11.22,6.26-15.08,3.85-3.87,9.2-6.26,15.08-6.26,11.79,0,21.33,9.56,21.33,21.33v23.17h-42.67v-23.17Z"/></g><polygon class="cls-1" points="1163.26 140.85 1163.32 375.68 1089.45 375.68 1089.45 205.36 1059.72 375.66 988.77 375.66 956.43 202.37 956.37 202.05 956.37 375.68 882.71 375.68 882.62 78.55 1005.76 78.55 1005.82 78.99 1006.16 81.97 1023.34 221.9 1039.6 81.32 1039.96 78.55 1163.34 78.55 1163.26 140.85 1163.26 140.85"/><path d="M266.98,232.12v143.39h-63.38v-15.07c-.2,.21-.41,.4-.62,.59-2.23,2.02-4.59,3.77-7.1,5.28l-.14,.07c-2.45,1.46-5.03,2.71-7.73,3.68-5.53,2.02-11.47,3.42-17.81,4.22-6.34,.81-12.75,1.21-19.21,1.21-19.17,0-34.27-3.15-45.33-9.44-11.06-6.29-19.42-15.73-25.08-28.33-5.67-12.58-9.24-28.13-10.73-46.6-1.48-18.49-2.21-39.65-2.21-63.49s1.41-45.41,4.24-63.88c2.84-18.49,8.22-34.02,16.19-46.62,7.95-12.59,18.94-22.17,32.98-28.73,14.02-6.56,32.1-9.85,54.22-9.85,13.22,0,25.42,1.75,36.62,5.23,11.19,3.49,20.83,9.11,28.93,16.88,8.1,7.77,14.43,17.75,19.03,29.93,4.38,11.66,6.87,25.7,7.08,42.13h.02v15.32h-78.83v-37.75c0-11.79-9.55-21.33-21.33-21.33-5.89,0-11.22,2.39-15.08,6.24-3.87,3.87-6.26,9.2-6.26,15.09v57.02c-.08,6.31-.12,13.09-.12,20.31,0,1.72,0,3.41,.01,5.07,.01,5.34,.05,10.43,.11,15.24v63.79c0,11.79,9.56,19.32,21.33,19.32s21.33-7.53,21.33-19.32v-28.5h-24.64v-51.1h103.52Z"/></g></svg>