<svg width="341" height="162" viewBox="0 0 341 162" fill="none" xmlns="http://www.w3.org/2000/svg">
<g clip-path="url(#clip0_371_38932)">
<g filter="url(#filter0_ddd_371_38932)">
<rect x="23" y="16" width="295" height="116" rx="4" fill="#FBFBFB" shape-rendering="crispEdges"/>
<path d="M95.958 68V55.436H98.46V66.02H103.338V68H95.958ZM108.937 66.344C109.777 66.344 110.377 66.038 110.737 65.426C111.097 64.814 111.277 64.052 111.277 63.14C111.277 62.372 111.073 61.724 110.665 61.196C110.257 60.656 109.681 60.386 108.937 60.386C108.193 60.386 107.617 60.656 107.209 61.196C106.813 61.724 106.615 62.372 106.615 63.14C106.615 64.052 106.789 64.814 107.137 65.426C107.497 66.038 108.097 66.344 108.937 66.344ZM108.937 58.514C110.341 58.514 111.499 58.958 112.411 59.846C113.323 60.734 113.779 61.928 113.779 63.428C113.779 64.796 113.341 65.936 112.465 66.848C111.601 67.76 110.425 68.216 108.937 68.216C107.461 68.216 106.285 67.766 105.409 66.866C104.545 65.966 104.113 64.82 104.113 63.428C104.113 61.916 104.569 60.722 105.481 59.846C106.405 58.958 107.557 58.514 108.937 58.514ZM118.07 68L114.65 58.73H117.242L119.528 65.48L121.796 58.73H124.19L120.788 68H118.07ZM133.058 65.516V67.478C132.17 67.97 131.108 68.216 129.872 68.216C128.348 68.216 127.16 67.796 126.308 66.956C125.468 66.104 125.048 64.922 125.048 63.41C125.048 61.994 125.42 60.824 126.164 59.9C126.908 58.976 127.964 58.514 129.332 58.514C130.94 58.514 132.074 59.006 132.734 59.99C133.394 60.974 133.724 62.348 133.724 64.112H127.352C127.352 64.844 127.592 65.42 128.072 65.84C128.564 66.248 129.2 66.452 129.98 66.452C130.508 66.452 130.952 66.392 131.312 66.272C131.684 66.152 132.002 66.032 132.266 65.912C132.542 65.792 132.806 65.66 133.058 65.516ZM127.352 62.456H131.438C131.438 61.832 131.27 61.316 130.934 60.908C130.61 60.488 130.124 60.278 129.476 60.278C128.828 60.278 128.366 60.428 128.09 60.728C127.826 61.028 127.634 61.316 127.514 61.592C127.406 61.856 127.352 62.144 127.352 62.456ZM142.221 58.73L144.435 65.498L146.703 58.73H149.133L145.677 67.928C145.257 69.032 144.939 69.806 144.723 70.25C144.519 70.694 144.183 71.096 143.715 71.456C143.259 71.816 142.635 71.996 141.843 71.996C141.303 71.996 140.733 71.912 140.133 71.744L140.295 69.962C140.607 70.07 141.021 70.124 141.537 70.124C142.029 70.124 142.407 69.968 142.671 69.656C142.947 69.356 143.085 68.96 143.085 68.468L139.557 58.73H142.221ZM154.798 66.344C155.638 66.344 156.238 66.038 156.598 65.426C156.958 64.814 157.138 64.052 157.138 63.14C157.138 62.372 156.934 61.724 156.526 61.196C156.118 60.656 155.542 60.386 154.798 60.386C154.054 60.386 153.478 60.656 153.07 61.196C152.674 61.724 152.476 62.372 152.476 63.14C152.476 64.052 152.65 64.814 152.998 65.426C153.358 66.038 153.958 66.344 154.798 66.344ZM154.798 58.514C156.202 58.514 157.36 58.958 158.272 59.846C159.184 60.734 159.64 61.928 159.64 63.428C159.64 64.796 159.202 65.936 158.326 66.848C157.462 67.76 156.286 68.216 154.798 68.216C153.322 68.216 152.146 67.766 151.27 66.866C150.406 65.966 149.974 64.82 149.974 63.428C149.974 61.916 150.43 60.722 151.342 59.846C152.266 58.958 153.418 58.514 154.798 58.514ZM170.015 58.73V68H167.747V66.74C167.327 67.208 166.865 67.574 166.361 67.838C165.857 68.09 165.293 68.216 164.669 68.216C163.625 68.216 162.839 67.886 162.311 67.226C161.795 66.554 161.537 65.672 161.537 64.58V58.73H163.931V63.68C163.931 64.484 164.021 65.132 164.201 65.624C164.381 66.104 164.813 66.344 165.497 66.344C166.277 66.344 166.823 66.026 167.135 65.39C167.459 64.742 167.621 64.034 167.621 63.266V58.73H170.015ZM172.56 68V58.73H174.684V60.836C174.768 60.332 175.05 59.822 175.53 59.306C176.022 58.778 176.598 58.514 177.258 58.514H177.618L177.996 58.586V61.016C177.888 60.956 177.744 60.908 177.564 60.872L176.916 60.818C176.256 60.818 175.764 61.1 175.44 61.664C175.116 62.216 174.954 63.194 174.954 64.598V68H172.56ZM190.632 68V66.956C190.272 67.388 189.846 67.706 189.354 67.91C188.862 68.114 188.328 68.216 187.752 68.216C186.444 68.216 185.472 67.754 184.836 66.83C184.2 65.906 183.882 64.742 183.882 63.338C183.882 61.91 184.194 60.752 184.818 59.864C185.454 58.964 186.432 58.514 187.752 58.514C188.892 58.514 189.816 58.946 190.524 59.81L190.56 54.5H192.954V68H190.632ZM188.418 66.344C189.15 66.344 189.684 66.044 190.02 65.444C190.368 64.832 190.542 64.13 190.542 63.338C190.542 62.57 190.362 61.886 190.002 61.286C189.642 60.686 189.102 60.386 188.382 60.386C187.674 60.386 187.164 60.686 186.852 61.286C186.54 61.886 186.384 62.57 186.384 63.338C186.384 64.13 186.54 64.832 186.852 65.444C187.176 66.044 187.698 66.344 188.418 66.344ZM202.861 65.516V67.478C201.973 67.97 200.911 68.216 199.675 68.216C198.151 68.216 196.963 67.796 196.111 66.956C195.271 66.104 194.851 64.922 194.851 63.41C194.851 61.994 195.223 60.824 195.967 59.9C196.711 58.976 197.767 58.514 199.135 58.514C200.743 58.514 201.877 59.006 202.537 59.99C203.197 60.974 203.527 62.348 203.527 64.112H197.155C197.155 64.844 197.395 65.42 197.875 65.84C198.367 66.248 199.003 66.452 199.783 66.452C200.311 66.452 200.755 66.392 201.115 66.272C201.487 66.152 201.805 66.032 202.069 65.912C202.345 65.792 202.609 65.66 202.861 65.516ZM197.155 62.456H201.241C201.241 61.832 201.073 61.316 200.737 60.908C200.413 60.488 199.927 60.278 199.279 60.278C198.631 60.278 198.169 60.428 197.893 60.728C197.629 61.028 197.437 61.316 197.317 61.592C197.209 61.856 197.155 62.144 197.155 62.456ZM207.806 68L204.386 58.73H206.978L209.264 65.48L211.532 58.73H213.926L210.524 68H207.806ZM215.433 57.038V54.734H217.827V57.038H215.433ZM215.433 68V58.73H217.827V68H215.433ZM226.581 58.82L226.365 60.728C226.113 60.596 225.879 60.506 225.663 60.458C225.447 60.41 225.135 60.386 224.727 60.386C223.995 60.386 223.401 60.656 222.945 61.196C222.501 61.724 222.279 62.432 222.279 63.32C222.279 64.208 222.489 64.934 222.909 65.498C223.341 66.062 223.965 66.344 224.781 66.344C224.985 66.344 225.141 66.338 225.249 66.326C225.357 66.314 225.501 66.284 225.681 66.236C225.861 66.188 226.011 66.146 226.131 66.11C226.263 66.074 226.431 66.008 226.635 65.912L226.743 67.91C226.431 68.006 226.131 68.072 225.843 68.108C225.567 68.156 225.309 68.186 225.069 68.198C224.829 68.21 224.583 68.216 224.331 68.216C222.879 68.216 221.757 67.766 220.965 66.866C220.173 65.966 219.777 64.784 219.777 63.32C219.777 61.94 220.173 60.794 220.965 59.882C221.757 58.97 222.849 58.514 224.241 58.514C225.093 58.514 225.873 58.616 226.581 58.82ZM235.767 65.516V67.478C234.879 67.97 233.817 68.216 232.581 68.216C231.057 68.216 229.869 67.796 229.017 66.956C228.177 66.104 227.757 64.922 227.757 63.41C227.757 61.994 228.129 60.824 228.873 59.9C229.617 58.976 230.673 58.514 232.041 58.514C233.649 58.514 234.783 59.006 235.443 59.99C236.103 60.974 236.433 62.348 236.433 64.112H230.061C230.061 64.844 230.301 65.42 230.781 65.84C231.273 66.248 231.909 66.452 232.689 66.452C233.217 66.452 233.661 66.392 234.021 66.272C234.393 66.152 234.711 66.032 234.975 65.912C235.251 65.792 235.515 65.66 235.767 65.516ZM230.061 62.456H234.147C234.147 61.832 233.979 61.316 233.643 60.908C233.319 60.488 232.833 60.278 232.185 60.278C231.537 60.278 231.075 60.428 230.799 60.728C230.535 61.028 230.343 61.316 230.223 61.592C230.115 61.856 230.061 62.144 230.061 62.456ZM240.208 68V65.48H242.728V68H240.208ZM238.174 57.812L237.976 55.814C238.228 55.742 238.534 55.664 238.894 55.58C239.254 55.484 239.638 55.4 240.046 55.328C240.454 55.256 240.946 55.22 241.522 55.22C242.662 55.22 243.628 55.49 244.42 56.03C245.224 56.558 245.626 57.362 245.626 58.442C245.626 59.102 245.362 59.786 244.834 60.494L243.358 62.186C242.83 62.858 242.566 63.488 242.566 64.076V64.328H240.352C240.352 63.584 240.472 62.948 240.712 62.42C240.964 61.88 241.33 61.34 241.81 60.8L242.782 59.666C242.926 59.462 242.998 59.15 242.998 58.73C242.998 58.178 242.8 57.77 242.404 57.506C242.02 57.23 241.528 57.092 240.928 57.092C240.52 57.092 240.124 57.134 239.74 57.218C239.368 57.302 238.846 57.5 238.174 57.812Z" fill="#563E86"/>
<path d="M260.397 92.7329H80.602C79.22 92.7329 78.0996 93.5902 78.0996 94.6477V97.4068C78.0996 98.4643 79.22 99.3215 80.602 99.3215H260.397C261.779 99.3215 262.899 98.4643 262.899 97.4068V94.6477C262.899 93.5902 261.779 92.7329 260.397 92.7329Z" fill="#F58E25"/>
<path d="M264.5 105.5C269.747 100.253 269.747 91.7467 264.5 86.5C259.253 81.2533 250.747 81.2533 245.5 86.5C240.253 91.7467 240.253 100.253 245.5 105.5C250.747 110.747 259.253 110.747 264.5 105.5Z" fill="#FADD00"/>
<path d="M251.959 92.3359L251.914 92.2911C251.252 91.6289 250.168 91.6289 249.506 92.2911L249.133 92.6639L248.76 92.2911C248.098 91.6289 247.014 91.6289 246.352 92.2911L246.307 92.3359C245.645 92.9981 245.645 94.082 246.307 94.7442L247.925 96.3619C248.257 96.694 248.695 97.3012 249.133 97.3012C249.571 97.3012 250.009 96.694 250.341 96.3619L251.959 94.7442C252.621 94.082 252.621 92.9981 251.959 92.3359V92.3359Z" fill="#CC3345"/>
<path d="M263.551 92.3359L263.506 92.2911C262.844 91.6289 261.76 91.6289 261.098 92.2911L260.725 92.6639L260.352 92.2911C259.69 91.6289 258.606 91.6289 257.944 92.2911L257.899 92.3359C257.237 92.9981 257.237 94.082 257.899 94.7442L259.517 96.3619C259.849 96.694 260.287 97.3012 260.725 97.3012C261.163 97.3012 261.601 96.694 261.933 96.3619L263.551 94.7442C264.213 94.082 264.213 92.9981 263.551 92.3359V92.3359Z" fill="#CC3345"/>
<path d="M252.166 99.8257V102.586C252.166 103.817 253.403 104.815 254.927 104.815C256.451 104.815 257.688 103.817 257.688 102.586V99.8257C257.688 99.6811 257.543 99.5649 257.364 99.5649H252.49C252.311 99.5649 252.166 99.6811 252.166 99.8257V99.8257Z" fill="#F58E25"/>
</g>
</g>
<defs>
<filter id="filter0_ddd_371_38932" x="0" y="0" width="341" height="162" filterUnits="userSpaceOnUse" color-interpolation-filters="sRGB">
<feFlood flood-opacity="0" result="BackgroundImageFix"/>
<feColorMatrix in="SourceAlpha" type="matrix" values="0 0 0 0 0 0 0 0 0 0 0 0 0 0 0 0 0 0 127 0" result="hardAlpha"/>
<feOffset dy="5"/>
<feGaussianBlur stdDeviation="7"/>
<feColorMatrix type="matrix" values="0 0 0 0 0.223529 0 0 0 0 0.458824 0 0 0 0 0.709804 0 0 0 0.12 0"/>
<feBlend mode="multiply" in2="BackgroundImageFix" result="effect1_dropShadow_371_38932"/>
<feColorMatrix in="SourceAlpha" type="matrix" values="0 0 0 0 0 0 0 0 0 0 0 0 0 0 0 0 0 0 127 0" result="hardAlpha"/>
<feOffset dy="7"/>
<feGaussianBlur stdDeviation="11.5"/>
<feColorMatrix type="matrix" values="0 0 0 0 0.368627 0 0 0 0 0.368627 0 0 0 0 0.368627 0 0 0 0.2 0"/>
<feBlend mode="multiply" in2="effect1_dropShadow_371_38932" result="effect2_dropShadow_371_38932"/>
<feColorMatrix in="SourceAlpha" type="matrix" values="0 0 0 0 0 0 0 0 0 0 0 0 0 0 0 0 0 0 127 0" result="hardAlpha"/>
<feOffset dy="4"/>
<feGaussianBlur stdDeviation="4"/>
<feComposite in2="hardAlpha" operator="out"/>
<feColorMatrix type="matrix" values="0 0 0 0 0.368627 0 0 0 0 0.368627 0 0 0 0 0.368627 0 0 0 0.16 0"/>
<feBlend mode="darken" in2="effect2_dropShadow_371_38932" result="effect3_dropShadow_371_38932"/>
<feBlend mode="normal" in="SourceGraphic" in2="effect3_dropShadow_371_38932" result="shape"/>
</filter>
<clipPath id="clip0_371_38932">
<rect width="341" height="162" fill="white"/>
</clipPath>
</defs>
</svg>
