<svg xmlns="http://www.w3.org/2000/svg" width="69" height="68.851" viewBox="0 0 69 68.851">
    <g id="prefix__account_managment_icon" data-name="account managment icon" transform="translate(-249.467 -441.856)">
        <path id="prefix__Path_5607" d="M291.8 476.9a27.144 27.144 0 0 0-6.841-4.813 16.45 16.45 0 1 0-17.914-.006 27.537 27.537 0 0 0-7.379 5.35c-6.2 6.2-10.2 15.219-10.2 22.983a2.415 2.415 0 0 0 2.414 2.414h22.505a2.413 2.413 0 1 0 0-4.826h-9.417l1.648-8.235a1.608 1.608 0 0 0-3.153-.632L261.689 498H254.6a30.709 30.709 0 0 1 8.48-17.159c2.777-2.776 7.274-6.087 12.927-6.087 5.417 0 9.767 3.065 12.464 5.635a2.412 2.412 0 1 0 3.33-3.49zm-27.419-18.592A11.625 11.625 0 1 1 276 469.928a11.638 11.638 0 0 1-11.622-11.621z" data-name="Path 5607" style="fill:#863399;fill-rule:evenodd"/>
        <path id="prefix__Path_5608" d="M328.909 484.957l-11.374-11.373a2.414 2.414 0 0 0-3.413 0L286.4 501.306a2.412 2.412 0 0 0-.6 1l-4.977 16.347a2.412 2.412 0 0 0 3.009 3.012l16.349-4.976a2.416 2.416 0 0 0 1-.6l27.72-27.721a2.414 2.414 0 0 0 .008-3.411zm-38.364 29.626l-2.622-2.67c.583-1.915 1.155-3.8 1.59-5.223l6.291 6.292c-1.435.436-3.331 1.013-5.259 1.601zm8.368-3.042l-7.959-7.959 19.037-19.04 7.96 7.963zm21.312-21.311l-7.961-7.962 3.565-3.566 7.961 7.961z" data-name="Path 5608" transform="translate(-11.149 -11.066)" style="fill:#7cbadb"/>
    </g>
</svg>
