<svg width="44" height="45" viewBox="0 0 44 45" fill="none" xmlns="http://www.w3.org/2000/svg">
<rect x="0.183333" y="8.18333" width="43.6333" height="28.9667" rx="2.75" fill="white"/>
<rect x="0.183333" y="8.18333" width="43.6333" height="28.9667" rx="2.75" stroke="#CCCCCC" stroke-width="0.366667"/>
<g clip-path="url(#clip0_801_26370)">
<path d="M36.6668 22.7822C36.6668 27.7927 32.613 31.8465 27.6024 31.8465C25.4874 31.8465 23.5486 31.1164 22.0127 29.9078C24.1277 28.246 25.4622 25.6777 25.4622 22.7822C25.4622 19.8866 24.1025 17.3183 22.0127 15.6565C23.5486 14.448 25.4874 13.7178 27.6024 13.7178C32.613 13.7178 36.6668 17.7967 36.6668 22.7822Z" fill="#F79E1B"/>
<path d="M22.0128 15.6563C22.0128 15.6563 22.0128 15.6562 22.0128 15.6563C24.1026 17.3181 25.4623 19.8863 25.4623 22.7819C25.4623 25.6774 24.1278 28.2457 22.0128 29.9075L21.9875 29.9075C19.8977 28.2708 18.5381 25.6774 18.5381 22.7819C18.5381 19.8863 19.8977 17.3181 21.9876 15.6563C21.9876 15.6563 21.9876 15.6563 21.9876 15.6563L22.0128 15.6563Z" fill="#FF5F00"/>
<path d="M18.5376 22.7822C18.5376 19.8866 19.8972 17.3183 21.9871 15.6565C20.4512 14.448 18.5124 13.7178 16.3974 13.7178C11.3868 13.7178 7.33301 17.7716 7.33301 22.7822C7.33301 27.7927 11.3868 31.8465 16.3974 31.8465C18.5124 31.8465 20.4512 31.1163 21.9871 29.9078C19.8972 28.2711 18.5376 25.6777 18.5376 22.7822Z" fill="#EB001B"/>
</g>
<defs>
<clipPath id="clip0_801_26370">
<rect width="29.3333" height="18.1288" fill="white" transform="translate(7.33301 13.7178)"/>
</clipPath>
</defs>
</svg>
