<svg xmlns="http://www.w3.org/2000/svg" viewBox="0 0 155.614 182.541">
  <defs>
    <style>
      .cls-1 {
        fill: #d3a388;
      }

      .cls-2 {
        fill: #c77c28;
      }

      .cls-3 {
        fill: #e0a969;
      }

      .cls-4 {
        fill: #d9892e;
      }

      .cls-5 {
        fill: #ffc187;
      }

      .cls-6 {
        fill: #8a8c6b;
      }

      .cls-7 {
        fill: #6f704c;
      }

      .cls-8 {
        fill: #7e8057;
      }

      .cls-9 {
        fill: #9e9970;
      }

      .cls-10 {
        fill: #d9d4b2;
      }

      .cls-11 {
        fill: #bdb88a;
      }

      .cls-12 {
        fill: #bab88e;
      }

      .cls-13 {
        fill: #ccc9a4;
      }

      .cls-14 {
        fill: #b0ad8d;
      }

      .cls-15 {
        fill: #f5d4a4;
      }

      .cls-16 {
        fill: #7f8061;
      }

      .cls-17 {
        fill: #5d5e40;
      }

      .cls-18 {
        fill: #878a5e;
      }

      .cls-19 {
        fill: #a8a37b;
      }

      .cls-20 {
        fill: #888a5e;
      }

      .cls-21 {
        fill: #96866f;
      }

      .cls-22 {
        fill: #ffddab;
      }

      .cls-23 {
        fill: #7cbadb;
      }

      .cls-24 {
        opacity: 0.27;
      }

      .cls-25 {
        fill: #a1c0c4;
      }

      .cls-26, .cls-28 {
        fill: #ffeccf;
      }

      .cls-27 {
        fill: #f58520;
      }

      .cls-28 {
        opacity: 0.55;
      }

      .cls-29 {
        fill: #af6020;
      }

      .cls-30 {
        fill: #ffe4bd;
      }

      .cls-31 {
        fill: #efa060;
      }

      .cls-32 {
        fill: #efbe9a;
      }

      .cls-33 {
        fill: #863399;
      }
    </style>
  </defs>
  <g id="money_vector" data-name="money vector" transform="translate(0 0.015)">
    <path id="Path_1033" data-name="Path 1033" class="cls-1" d="M103.447,47.03C37.492,44.106-.521,51.9,5.652,61.976c9.1,14.621,90,23.068,126.711,8.772C158.03,60.676,139.835,48.655,103.447,47.03Z" transform="translate(11.243 104.408)"/>
    <g id="Group_789" data-name="Group 789" transform="translate(102.003 146.533)">
      <path id="Path_1034" data-name="Path 1034" class="cls-2" d="M54.435,48.741a6.1,6.1,0,0,1-.975,4.224c-1.624,1.949-6.173,3.574-11.047,3.574-5.2,0-9.1-1.625-10.4-3.9a5.542,5.542,0,0,1-.325-4.224c.975-2.924,5.523-2.6,11.7-2.274C49.237,45.817,53.786,45.817,54.435,48.741Z" transform="translate(-31.352 -43.187)"/>
      <path id="Path_1035" data-name="Path 1035" class="cls-3" d="M54.479,50.645c-.325,2.924-5.523,5.2-12.021,4.874-6.5,0-11.372-2.6-11.047-5.523s5.523-5.2,12.021-4.874C49.605,45.121,54.479,47.721,54.479,50.645Z" transform="translate(-31.395 -45.09)"/>
      <path id="Path_1036" data-name="Path 1036" class="cls-2" d="M49.195,49.174c0,1.949-3.9,3.249-8.772,3.249-4.549,0-8.123-1.625-8.123-3.574S36.2,45.6,41.072,45.6C45.621,45.925,49.195,47.549,49.195,49.174Z" transform="translate(-29.361 -43.945)"/>
      <path id="Path_1037" data-name="Path 1037" class="cls-3" d="M49.195,49.474c0,1.949-3.9,3.249-8.772,3.249-4.549,0-8.123-1.625-8.123-3.574S36.2,45.9,41.072,45.9C45.621,46.225,49.195,47.849,49.195,49.474Z" transform="translate(-29.361 -43.27)"/>
    </g>
    <g id="Group_790" data-name="Group 790" transform="translate(109.491 151.236)">
      <path id="Path_1038" data-name="Path 1038" class="cls-4" d="M52.544,62.082a3.681,3.681,0,0,1-2.924,2.274c-1.949.325-5.848-1.949-9.747-5.2C36.3,55.909,33.7,52.01,33.7,50.061a5.927,5.927,0,0,1,2.274-3.249c1.949-.975,4.549,2.6,9.1,6.823C49.62,57.534,53.519,60.133,52.544,62.082Z" transform="translate(-33.7 -46.285)"/>
      <path id="Path_1039" data-name="Path 1039" class="cls-5" d="M51.2,62.335c-1.3,1.624-6.173-.65-10.722-4.873s-7.148-8.772-5.848-10.4,6.173.65,10.722,4.874S52.5,60.71,51.2,62.335Z" transform="translate(-32.357 -46.538)"/>
      <path id="Path_1040" data-name="Path 1040" class="cls-4" d="M47.432,58.866c-.975.975-4.224-.65-7.8-3.9-3.249-2.924-5.2-6.173-4.549-7.473.975-.975,4.224.65,7.8,3.9C46.133,54.642,48.082,57.891,47.432,58.866Z" transform="translate(-30.862 -45.018)"/>
      <path id="Path_1041" data-name="Path 1041" class="cls-5" d="M47.232,59.066c-.975.975-4.224-.65-7.8-3.9-3.249-2.924-5.2-6.173-4.549-7.473.975-.975,4.224.65,7.8,3.9C45.933,54.842,47.882,58.091,47.232,59.066Z" transform="translate(-31.312 -44.568)"/>
    </g>
    <g id="Group_793" data-name="Group 793" transform="translate(11.372 46.495)">
      <g id="Group_791" data-name="Group 791" transform="translate(2.924)">
        <path id="Path_1042" data-name="Path 1042" class="cls-6" d="M17.721,14.3C13.172,23.4,9.923,33.144,4.4,42.241a64.318,64.318,0,0,1,32.49,15.27c5.523-9.1,10.072-16.57,15.6-25.667C52.81,27.3,30.717,16.574,17.721,14.3Z" transform="translate(-4.4 -14.3)"/>
        <path id="Path_1043" data-name="Path 1043" class="cls-7" d="M8.2,36.543c3.249-5.523,5.2-12.346,8.772-18.194,11.7,2.6,20.794,7.8,29.566,14.945l1.949-2.924c-2.924-5.2-18.844-13-30.866-15.27A13.169,13.169,0,0,0,16,18.024C12.423,23.872,6.25,37.843,5.6,38.818c12.021,2.274,21.119,7.148,30.216,14.621a13.169,13.169,0,0,0,1.625-2.924A71.9,71.9,0,0,0,8.2,36.543Z" transform="translate(-1.701 -12.501)"/>
        <path id="Path_1044" data-name="Path 1044" class="cls-8" d="M17.091,23.4a4.975,4.975,0,0,1-5.523,2.274c-1.949-.65-2.6-2.924-1.3-4.874s3.9-3.249,5.848-2.274C17.741,19.179,18.391,21.454,17.091,23.4Z" transform="translate(7.277 -5.533)"/>
        <path id="Path_1045" data-name="Path 1045" class="cls-9" d="M22.045,27.873A74.465,74.465,0,0,0,7.1,22.349c.325-.65.975-1.3,1.3-1.949a74.464,74.464,0,0,1,14.945,5.523A6.8,6.8,0,0,1,22.045,27.873Z" transform="translate(1.672 -0.581)"/>
        <path id="Path_1046" data-name="Path 1046" class="cls-9" d="M29.957,20.847c-1.625-1.625-7.148.975-8.772,3.9s.975,5.523.975,5.523a16.851,16.851,0,0,0-8.447,1.625,11.429,11.429,0,0,0,3.9,8.772c.325.325.325.325.65.325,3.574-6.823,7.473-13.321,11.7-20.144Z" transform="translate(16.504 -0.703)"/>
      </g>
      <g id="Group_792" data-name="Group 792" transform="translate(0 3.227)">
        <path id="Path_1047" data-name="Path 1047" class="cls-10" d="M15.2,15.316c7.8-.325,13.971,2.924,20.144,6.173,6.173,3.574,11.7,7.148,19.494,7.8-5.523,9.1-10.722,17.87-16.245,26.967-6.823-.325-11.7-3.574-17.22-6.823-5.2-3.249-10.722-6.173-17.87-5.523C7.4,34.485,11.3,25.063,15.2,15.316Z" transform="translate(-3.5 -15.293)"/>
        <path id="Path_1048" data-name="Path 1048" class="cls-11" d="M50.611,30.1a13.169,13.169,0,0,0-1.624,2.924C35.666,32.045,27.868,21,14.872,19.374l-7.8,18.519C19.1,39.193,26.243,49.915,38.59,50.564a13.17,13.17,0,0,0-1.625,2.924C24.294,52.839,17.146,41.467,4.8,40.817a33.709,33.709,0,0,0,1.3-3.249l7.8-18.519A33.708,33.708,0,0,0,15.2,15.8C28.518,17.424,36.965,29.121,50.611,30.1Z" transform="translate(-0.576 -14.153)"/>
        <path id="Path_1049" data-name="Path 1049" class="cls-9" d="M14.495,28.668c3.574-6.5,10.4-8.772,18.194-8.447-4.549,7.8-9.422,15.6-13.971,23.393C12.545,42.964,11.246,35.166,14.495,28.668Z" transform="translate(17.345 -4.278)"/>
        <path id="Path_1050" data-name="Path 1050" class="cls-12" d="M8.776,23.268a3.008,3.008,0,0,0,1.3,3.9,2.9,2.9,0,0,0,3.9-1.3,3.2,3.2,0,0,0-1.3-4.224A3.141,3.141,0,0,0,8.776,23.268Z" transform="translate(7.793 -1.477)"/>
        <path id="Path_1051" data-name="Path 1051" class="cls-11" d="M7.8,21.674c5.2,1.625,9.747,4.549,14.3,7.148a15.839,15.839,0,0,0,.975-2.274c-4.549-2.6-9.1-5.523-14.3-7.148A4.319,4.319,0,0,0,7.8,21.674Z" transform="translate(6.171 -6.057)"/>
        <path id="Path_1052" data-name="Path 1052" class="cls-11" d="M8.3,20.474c5.2,1.625,9.747,4.549,14.621,7.148a15.839,15.839,0,0,0,.975-2.274c-4.549-2.6-9.422-5.848-14.621-7.148C8.95,18.85,8.625,19.825,8.3,20.474Z" transform="translate(7.295 -8.755)"/>
        <path id="Path_1053" data-name="Path 1053" class="cls-11" d="M13.316,32.93a27.251,27.251,0,0,1,6.823-2.6s-1.949-1.3-1.949-2.924c0-.975,6.5-6.823,11.7-6.5-3.574,6.823-7.8,13.321-11.7,20.144C12.667,40.078,13.316,32.93,13.316,32.93Z" transform="translate(18.524 -2.692)"/>
      </g>
    </g>
    <g id="Group_794" data-name="Group 794" transform="translate(15.92 95.92)">
      <path id="Path_1054" data-name="Path 1054" class="cls-13" d="M85.15,64.562c-26.967-5.2-43.537,24.692-70.178,19.494C11.723,72.684,8.474,60.988,4.9,49.616c26.967,5.2,43.537-24.692,70.178-19.494C78.327,41.819,81.9,53.19,85.15,64.562Z" transform="translate(-4.9 -29.512)"/>
      <path id="Path_1055" data-name="Path 1055" class="cls-9" d="M5.9,50.868l.975,3.9c2.274,7.473,4.224,14.945,6.5,22.418l.975,3.9c24.368,2.6,40.613-23.068,64.98-20.469l-.975-3.9c-2.274-7.473-4.224-14.945-6.5-22.418l-.975-3.9C46.513,28.125,30.268,53.792,5.9,50.868Zm71.153,5.523C53.66,54.766,37.74,78.809,14.347,77.185c-2.274-7.473-4.224-14.945-6.5-22.418,23.393,1.625,39.313-22.418,62.706-20.794C72.829,41.77,75.1,49.243,77.053,56.391Z" transform="translate(-2.651 -27.84)"/>
      <path id="Path_1056" data-name="Path 1056" class="cls-8" d="M34.813,43.654c2.274,8.123-.325,17.22-5.848,20.469s-12.021-1.3-14.3-9.422.325-17.22,5.848-20.469S32.539,35.531,34.813,43.654Z" transform="translate(15.221 -21.276)"/>
      <path id="Path_1057" data-name="Path 1057" class="cls-8" d="M16.887,42.7c.65,2.6-.325,5.2-2.274,5.523s-4.224-1.3-4.874-3.9.325-4.874,2.274-5.2S15.912,40.428,16.887,42.7Z" transform="translate(5.532 -7.978)"/>
      <path id="Path_1058" data-name="Path 1058" class="cls-8" d="M28.571,38.716c.65,1.949-.325,3.574-1.625,3.9s-2.924-.65-3.574-2.6,0-3.574,1.625-3.9C26.621,35.467,28.246,36.767,28.571,38.716Z" transform="translate(36.084 -15.038)"/>
      <path id="Path_1059" data-name="Path 1059" class="cls-9" d="M24.82,44.5A47.856,47.856,0,0,1,9.875,48.073a22.384,22.384,0,0,0-.975-2.6A33.752,33.752,0,0,0,23.845,41.9,8.493,8.493,0,0,1,24.82,44.5Z" transform="translate(4.096 -1.652)"/>
      <path id="Path_1060" data-name="Path 1060" class="cls-9" d="M35.921,36.8A48.784,48.784,0,0,0,21.95,40.048a7.646,7.646,0,0,1-.65-2.6A35.139,35.139,0,0,1,35.271,34.2,6.121,6.121,0,0,0,35.921,36.8Z" transform="translate(31.984 -18.97)"/>
      <path id="Path_1061" data-name="Path 1061" class="cls-9" d="M35.421,35.3A48.784,48.784,0,0,0,21.45,38.548a7.647,7.647,0,0,1-.65-2.6A35.139,35.139,0,0,1,34.771,32.7,7.647,7.647,0,0,1,35.421,35.3Z" transform="translate(30.859 -22.343)"/>
      <path id="Path_1062" data-name="Path 1062" class="cls-9" d="M18.1,34.586c3.574-2.274,8.772,5.523,8.772,6.823a9.739,9.739,0,0,1-1.949,4.224,17.491,17.491,0,0,1,5.523,2.924s-.325,9.1-5.523,12.021c-4.874,2.924-8.447-1.3-8.447-1.3a34.35,34.35,0,0,1,3.9-10.072,3.363,3.363,0,0,1-4.549-2.6C14.855,43.033,16.154,35.561,18.1,34.586Z" transform="translate(18.935 -19.031)"/>
    </g>
    <g id="Group_795" data-name="Group 795" transform="translate(60.431 70.862)">
      <path id="Path_1063" data-name="Path 1063" class="cls-13" d="M88.454,77.033c-19.819-18.519-50.36-2.6-69.854-21.119L29.322,21.8c19.819,18.519,50.36,2.274,69.854,21.119Z" transform="translate(-18.6 -21.8)"/>
      <path id="Path_1064" data-name="Path 1064" class="cls-9" d="M28.722,23a18.317,18.317,0,0,1-1.3,3.9c-2.274,7.473-4.549,14.945-6.823,22.093a18.317,18.317,0,0,1-1.3,3.9c18.844,15.27,46.786,2.274,65.955,17.545a18.316,18.316,0,0,1,1.3-3.9c2.274-7.473,4.549-14.945,6.823-22.093a18.316,18.316,0,0,1,1.3-3.9C75.508,25.274,47.891,38.27,28.722,23ZM85.58,65.887c-18.844-13.971-45.486-1.949-64.005-15.92,2.274-7.473,4.549-14.945,6.823-22.093C46.917,41.844,73.558,30.148,92.4,43.794,90.453,50.941,87.854,58.414,85.58,65.887Z" transform="translate(-17.026 -19.101)"/>
      <path id="Path_1065" data-name="Path 1065" class="cls-8" d="M50.8,41.3c-2.6,8.123-9.747,14.3-15.92,13.971-6.5-.325-9.422-7.473-6.823-15.6s9.747-14.3,15.92-13.971C50.472,26.033,53.4,33.181,50.8,41.3Z" transform="translate(0.537 -13.037)"/>
      <path id="Path_1066" data-name="Path 1066" class="cls-8" d="M30.092,33.138c-.65,2.6-2.924,4.224-4.874,3.574s-2.6-3.249-1.949-5.848,2.924-3.9,4.874-3.249C29.767,28.264,30.741,30.539,30.092,33.138Z" transform="translate(-8.648 -9.095)"/>
      <path id="Path_1067" data-name="Path 1067" class="cls-8" d="M41.756,36.266c-.65,1.949-2.274,2.924-3.574,2.274-1.3-.325-1.949-2.274-1.625-3.9.65-1.949,2.274-2.924,3.574-2.6S42.081,34.317,41.756,36.266Z" transform="translate(21.6 1.097)"/>
      <path id="Path_1068" data-name="Path 1068" class="cls-9" d="M35.721,37.7c-5.2-.975-10.072-2.274-14.621-5.2a7.646,7.646,0,0,0,.65-2.6c4.549,2.924,9.422,4.224,14.621,5.2A10.044,10.044,0,0,0,35.721,37.7Z" transform="translate(-12.977 -3.583)"/>
      <path id="Path_1069" data-name="Path 1069" class="cls-9" d="M49.246,37.248A33.948,33.948,0,0,0,35.6,32.7a7.646,7.646,0,0,0,.65-2.6A48.211,48.211,0,0,1,49.9,34.649,7.646,7.646,0,0,1,49.246,37.248Z" transform="translate(19.633 -3.133)"/>
      <path id="Path_1070" data-name="Path 1070" class="cls-9" d="M49.746,35.748A33.948,33.948,0,0,0,36.1,31.2a7.647,7.647,0,0,0,.65-2.6A48.211,48.211,0,0,1,50.4,33.149,10.043,10.043,0,0,1,49.746,35.748Z" transform="translate(20.758 -6.507)"/>
      <path id="Path_1071" data-name="Path 1071" class="cls-9" d="M42.645,26.6c4.224.325,4.224,9.422,3.574,10.4a7.363,7.363,0,0,1-3.9,2.6,14.618,14.618,0,0,1,2.924,5.523S39.721,52.592,34.2,52.267a6.784,6.784,0,0,1-6.5-5.848,33.651,33.651,0,0,1,8.772-6.5s-3.574-.975-2.6-4.549C35.173,31.8,40.371,26.6,42.645,26.6Z" transform="translate(1.866 -11.005)"/>
    </g>
    <g id="Group_796" data-name="Group 796" transform="translate(42.562 53.447)">
      <path id="Path_1072" data-name="Path 1072" class="cls-13" d="M94.325,50.1C67.033,47.176,53.063,78.042,25.771,75.117,21.547,64.071,17.324,52.7,13.1,41.653c27.292,2.924,41.262-27.941,68.554-25.017C85.878,28.007,90.1,39.054,94.325,50.1Z" transform="translate(-13.1 -16.44)"/>
      <path id="Path_1073" data-name="Path 1073" class="cls-9" d="M14.2,42.45c.325,1.3.975,2.6,1.3,3.574,2.6,7.148,5.523,14.621,8.123,21.768.325,1.3.975,2.6,1.3,3.574,24.692.975,38.663-25.992,63.031-25.342-.325-1.3-.975-2.6-1.3-3.574-2.6-7.148-5.523-14.621-8.122-21.768-.325-1.3-.975-2.6-1.3-3.574C52.538,16.458,38.568,43.425,14.2,42.45Zm71.478.325c-23.393,0-37.364,25.342-60.756,25.342C22.323,60.97,19.4,53.5,16.8,46.349c23.393,0,37.364-25.342,60.756-25.342C80.155,28.155,82.754,35.3,85.678,42.775Z" transform="translate(-10.626 -14.963)"/>
      <path id="Path_1074" data-name="Path 1074" class="cls-8" d="M42.713,30.243c2.924,8.123,1.3,17.22-4.224,20.794-5.2,3.574-12.021-.325-14.945-8.447s-.975-17.22,4.224-20.794C32.966,18.546,39.789,22.445,42.713,30.243Z" transform="translate(7.322 -6.979)"/>
      <path id="Path_1075" data-name="Path 1075" class="cls-8" d="M25.288,30.464c.975,2.6.325,5.2-1.625,5.848s-4.224-.975-5.2-3.574,0-4.874,1.949-5.523C22.039,26.565,24.313,27.864,25.288,30.464Z" transform="translate(-1.895 7.42)"/>
      <path id="Path_1076" data-name="Path 1076" class="cls-8" d="M36.65,25.542c.65,1.949,0,3.574-1.3,3.9a3.356,3.356,0,0,1-3.574-2.274c-.65-1.949,0-3.574,1.3-4.224C34.051,22.618,35.675,23.592,36.65,25.542Z" transform="translate(28.33 -1.953)"/>
      <path id="Path_1077" data-name="Path 1077" class="cls-9" d="M33.3,32.2c-4.549,2.274-9.422,4.224-14.621,4.549-.325-.975-.65-1.625-.975-2.6,5.2-.325,10.072-2.274,14.621-4.549A22.389,22.389,0,0,1,33.3,32.2Z" transform="translate(-2.755 13.158)"/>
      <path id="Path_1078" data-name="Path 1078" class="cls-9" d="M44.021,23.6a39.812,39.812,0,0,0-13.646,4.549c-.325-.975-.65-1.625-.975-2.6A39.812,39.812,0,0,1,43.046,21,22.384,22.384,0,0,0,44.021,23.6Z" transform="translate(23.559 -6.184)"/>
      <path id="Path_1079" data-name="Path 1079" class="cls-9" d="M43.421,22.1a39.812,39.812,0,0,0-13.646,4.549c-.325-.975-.65-1.625-.975-2.6A39.812,39.812,0,0,1,42.446,19.5,22.388,22.388,0,0,0,43.421,22.1Z" transform="translate(22.209 -9.557)"/>
      <path id="Path_1080" data-name="Path 1080" class="cls-9" d="M26.014,22.107c3.574-2.274,9.1,4.874,9.1,6.173A7.522,7.522,0,0,1,33.487,32.5a13.841,13.841,0,0,1,5.523,2.6s.325,9.1-4.549,12.346a6.947,6.947,0,0,1-8.772-.65,36.117,36.117,0,0,1,3.249-10.4s-3.574,1.3-4.874-2.274C23.09,30.879,24.065,23.407,26.014,22.107Z" transform="translate(10.7 -4.692)"/>
    </g>
    <g id="Group_797" data-name="Group 797" transform="translate(54.258 118.312)">
      <path id="Path_1081" data-name="Path 1081" class="cls-14" d="M94.351,73.429C68.359,64.982,48.215,92.923,22.223,84.476c-1.949-11.7-3.9-23.393-5.523-35.414,25.992,8.447,46.136-19.494,72.128-11.047C90.777,50.036,92.4,61.733,94.351,73.429Z" transform="translate(-16.7 -36.404)"/>
      <path id="Path_1082" data-name="Path 1082" class="cls-9" d="M17.6,50.6c.325,1.3.325,2.6.65,3.9,1.3,7.8,2.274,15.27,3.574,23.068.325,1.3.325,2.6.65,3.9C46.516,86.986,65.685,63.593,89.4,68.791c-.325-1.3-.325-2.6-.65-3.9-1.3-7.8-2.274-15.27-3.574-23.068-.325-1.3-.325-2.6-.65-3.9C60.487,32.727,41.318,56.12,17.6,50.6ZM87.454,64.567c-23.068-4.549-41.587,17.545-64.655,13-1.3-7.8-2.274-15.27-3.574-23.068,23.068,4.549,41.587-17.545,64.655-13C85.179,49.3,86.479,57.095,87.454,64.567Z" transform="translate(-14.676 -34.69)"/>
      <path id="Path_1083" data-name="Path 1083" class="cls-8" d="M46.7,50.912C48,59.36,44.429,67.807,38.58,70.406s-11.7-2.6-13-11.047,2.274-16.895,8.123-19.494C39.23,37.266,45.4,42.465,46.7,50.912Z" transform="translate(2.682 -30.132)"/>
      <path id="Path_1084" data-name="Path 1084" class="cls-8" d="M27.882,48.548c.325,2.6-.975,5.2-2.924,5.2-1.949.325-3.9-1.949-4.224-4.549s.975-4.874,2.924-4.874C25.608,44,27.557,45.949,27.882,48.548Z" transform="translate(-7.738 -18.671)"/>
      <path id="Path_1085" data-name="Path 1085" class="cls-8" d="M39.942,45.949c.325,1.949-.65,3.574-1.949,3.574-1.3.325-2.924-.975-3.249-2.924s.65-3.574,1.949-3.9C38.317,42.7,39.617,44.325,39.942,45.949Z" transform="translate(23.738 -22.245)"/>
      <path id="Path_1086" data-name="Path 1086" class="cls-9" d="M35.5,50.1c-4.874,1.3-10.072,2.274-15.27,1.625,0-.975-.325-1.949-.325-2.6,5.2.65,10.4-.325,15.27-1.625A8.075,8.075,0,0,0,35.5,50.1Z" transform="translate(-9.503 -11.45)"/>
      <path id="Path_1087" data-name="Path 1087" class="cls-9" d="M47.621,43.957a42.106,42.106,0,0,0-14.3,1.624c0-.975-.325-1.949-.325-2.6a42.106,42.106,0,0,1,14.3-1.625A8.075,8.075,0,0,0,47.621,43.957Z" transform="translate(19.959 -25.451)"/>
      <path id="Path_1088" data-name="Path 1088" class="cls-9" d="M47.321,42.357a42.106,42.106,0,0,0-14.3,1.625c0-.975-.325-1.949-.325-2.6A42.106,42.106,0,0,1,47,39.757,7.154,7.154,0,0,1,47.321,42.357Z" transform="translate(19.284 -29.049)"/>
      <path id="Path_1089" data-name="Path 1089" class="cls-9" d="M31.349,40.348c3.9-1.624,8.123,6.5,7.8,7.8a7.074,7.074,0,0,1-2.274,3.9,15.375,15.375,0,0,1,5.2,3.574s-1.625,9.1-6.823,11.372S26.8,64.716,26.8,64.716A35.1,35.1,0,0,1,32,55.293s-3.574.65-4.224-2.924C26.8,48.471,29.074,41.323,31.349,40.348Z" transform="translate(6.015 -28.016)"/>
    </g>
    <g id="Group_798" data-name="Group 798" transform="translate(44.771 159.204)">
      <path id="Path_1090" data-name="Path 1090" class="cls-4" d="M36.913,52.154a5.285,5.285,0,0,1-.325,4.224c-1.3,2.274-5.523,3.9-10.722,4.224-4.874,0-9.422-1.3-11.047-3.249a6.7,6.7,0,0,1-.975-4.224C14.17,50.2,18.719,50.2,25.217,50.2,31.39,49.555,35.938,49.23,36.913,52.154Z" transform="translate(-13.78 -47.249)"/>
      <path id="Path_1091" data-name="Path 1091" class="cls-5" d="M36.653,53.895c.325,2.924-4.874,5.523-11.047,5.523-6.173.325-11.7-1.949-11.7-4.874-.325-2.924,4.874-5.523,11.047-5.523C31.13,48.7,36.328,50.971,36.653,53.895Z" transform="translate(-13.52 -48.99)"/>
      <path id="Path_1092" data-name="Path 1092" class="cls-4" d="M31.37,52.749c0,1.949-3.574,3.574-8.123,3.574s-8.447-1.3-8.447-3.249S18.374,49.5,22.923,49.5,31.37,50.8,31.37,52.749Z" transform="translate(-11.486 -47.845)"/>
      <path id="Path_1093" data-name="Path 1093" class="cls-5" d="M31.37,53.049c0,1.949-3.574,3.574-8.123,3.574s-8.447-1.3-8.447-3.249S18.374,49.8,22.923,49.8,31.37,51.1,31.37,53.049Z" transform="translate(-11.486 -47.17)"/>
    </g>
    <g id="Group_799" data-name="Group 799" transform="translate(24.952 154.006)">
      <path id="Path_1094" data-name="Path 1094" class="cls-4" d="M30.813,50.554a5.285,5.285,0,0,1-.325,4.224c-1.3,2.274-5.523,3.9-10.722,4.224-4.874,0-9.422-1.3-11.047-3.249a6.7,6.7,0,0,1-.975-4.224C8.07,48.6,12.619,48.6,19.117,48.6,25.29,47.955,29.838,47.63,30.813,50.554Z" transform="translate(-7.68 -45.649)"/>
      <path id="Path_1095" data-name="Path 1095" class="cls-5" d="M30.553,52.295c.325,2.924-4.874,5.523-11.047,5.523-6.173.325-11.7-1.949-11.7-4.874-.325-2.924,4.874-5.523,11.047-5.523C25.03,47.1,30.228,49.371,30.553,52.295Z" transform="translate(-7.42 -47.39)"/>
      <path id="Path_1096" data-name="Path 1096" class="cls-4" d="M25.27,51.149c0,1.949-3.574,3.574-8.123,3.574S8.7,53.423,8.7,51.474,12.274,47.9,16.823,47.9,25.27,49.2,25.27,51.149Z" transform="translate(-5.386 -46.245)"/>
      <path id="Path_1097" data-name="Path 1097" class="cls-5" d="M25.27,51.449c0,1.949-3.574,3.574-8.123,3.574S8.7,53.723,8.7,51.774,12.274,48.2,16.823,48.2,25.27,49.5,25.27,51.449Z" transform="translate(-5.386 -45.57)"/>
    </g>
    <g id="Group_800" data-name="Group 800" transform="translate(41.262 40.647)">
      <path id="Path_1098" data-name="Path 1098" class="cls-13" d="M47.139,12.5c13.646,15.6,12.021,54.258-6.5,92.6-9.1,2.274-18.519,4.224-27.941,6.173C33.169,80.729,36.093,48.564,23.422,36.218,31.544,28.745,39.342,20.947,47.139,12.5Z" transform="translate(-12.7 -12.5)"/>
      <path id="Path_1099" data-name="Path 1099" class="cls-9" d="M13.9,106.322c.975-.325,1.949-.325,2.924-.65,5.848-1.3,12.021-2.924,17.87-4.549l2.924-.975C53.863,64.409,55.487,29.32,43.791,13.4a19.6,19.6,0,0,1-2.6,2.6c-5.2,5.2-10.4,10.4-15.6,15.27-.975.65-1.624,1.624-2.6,2.274C34.369,47.19,31.77,77.08,13.9,106.322ZM42.166,16.974c10.722,15.6,9.1,49.06-6.5,82.85-5.848,1.624-12.021,3.249-17.87,4.549,16.57-29.241,19.169-58.807,8.772-72.453C31.77,27.371,36.968,22.172,42.166,16.974Z" transform="translate(-10.001 -10.476)"/>
      <path id="Path_1100" data-name="Path 1100" class="cls-8" d="M29.857,24.343c5.848-4.549,11.372-2.6,11.047,6.173S33.756,49.686,27.582,53.26c-6.173,3.249-9.747-.975-8.772-8.123C19.46,37.664,24.009,28.892,29.857,24.343Z" transform="translate(0.684 8.796)"/>
      <path id="Path_1101" data-name="Path 1101" class="cls-8" d="M24.333,35.2c1.949-.975,2.924.65,1.625,3.574-.975,2.924-3.574,5.523-5.523,6.173s-2.6-.975-1.625-3.574A14.645,14.645,0,0,1,24.333,35.2Z" transform="translate(0.034 37.906)"/>
      <path id="Path_1102" data-name="Path 1102" class="cls-8" d="M23.476,18.075c1.3-1.3,2.6-1.3,3.249,0A5.046,5.046,0,0,1,25.1,22.623c-1.3,1.3-2.6.975-2.924-.325C21.527,21.324,22.176,19.374,23.476,18.075Z" transform="translate(8.039 -2.155)"/>
      <path id="Path_1103" data-name="Path 1103" class="cls-9" d="M29.872,32.2a124.331,124.331,0,0,1-8.123,22.418c-.65.325-1.3.325-1.949.65a113.136,113.136,0,0,0,8.123-22.093Z" transform="translate(3.268 31.805)"/>
      <path id="Path_1104" data-name="Path 1104" class="cls-9" d="M22.149,17.5c1.949,3.249,3.249,7.473,4.224,12.671-.65.65-1.3.975-1.949,1.625A32.53,32.53,0,0,0,20.2,19.449,5.516,5.516,0,0,1,22.149,17.5Z" transform="translate(4.168 -1.255)"/>
      <path id="Path_1105" data-name="Path 1105" class="cls-9" d="M21.049,18.5a32.747,32.747,0,0,1,3.9,12.021c-.65.65-1.3.975-1.949,1.624a30.83,30.83,0,0,0-3.9-12.021A8.614,8.614,0,0,1,21.049,18.5Z" transform="translate(1.694 0.994)"/>
      <path id="Path_1106" data-name="Path 1106" class="cls-9" d="M19.414,41.453c.325-4.874,6.823-12.671,7.8-12.671,1.3,0,1.949,1.949,1.949,1.949a49.707,49.707,0,0,1,3.574-8.123s5.848-.65,5.523,7.148A25.211,25.211,0,0,1,33.06,43.4s-2.274-1.624-3.9-5.848c0,0-.975,5.2-3.9,6.823C22.663,46,19.089,44.053,19.414,41.453Z" transform="translate(2.354 10.206)"/>
    </g>
    <g id="Group_801" data-name="Group 801" transform="translate(72.747 117.892)">
      <path id="Path_1107" data-name="Path 1107" class="cls-4" d="M44.19,50.121a11.666,11.666,0,0,1-3.574,4.549c-2.924,1.624-7.8.975-12.021-1.625s-6.5-6.823-6.173-10.072c0-.65.975-2.924,2.924-5.2,2.6-2.924,6.173-.325,11.372,3.249C41.915,44.272,45.814,46.547,44.19,50.121Z" transform="translate(-22.391 -35.744)"/>
      <path id="Path_1108" data-name="Path 1108" class="cls-15" d="M42.653,51.3c-2.274,3.574-8.447,3.574-13.646,0s-7.473-9.1-5.2-12.346c2.274-3.574,8.447-3.574,13.646,0C42.653,42.2,44.928,47.728,42.653,51.3Z" transform="translate(-21.179 -36.275)"/>
      <path id="Path_1109" data-name="Path 1109" class="cls-4" d="M37.951,47.65C36.326,49.924,32.1,49.6,28.529,47c-3.9-2.6-5.523-6.173-4.224-8.447,1.625-2.274,5.848-1.949,9.422.65C37.626,41.477,39.575,45.376,37.951,47.65Z" transform="translate(-19.076 -34.573)"/>
      <path id="Path_1110" data-name="Path 1110" class="cls-15" d="M37.851,47.75C36.226,50.024,32,49.7,28.429,47.1c-3.9-2.6-5.523-6.173-4.224-8.447,1.625-2.274,5.848-1.949,9.422.65C37.526,41.9,39.475,45.476,37.851,47.75Z" transform="translate(-19.301 -34.348)"/>
    </g>
    <g id="Group_802" data-name="Group 802" transform="translate(62.179 112.44)">
      <path id="Path_1111" data-name="Path 1111" class="cls-4" d="M35.007,34.8a5.3,5.3,0,0,1,2.6,2.924c.325,1.949-1.949,5.848-5.523,9.422S24.935,53,22.661,53.324a5.829,5.829,0,0,1-3.249-1.949c-.975-1.625,2.6-4.549,6.823-9.1S33.058,33.83,35.007,34.8Z" transform="translate(-18.885 -34.47)"/>
      <path id="Path_1112" data-name="Path 1112" class="cls-5" d="M35.26,34.932c1.624,1.3-.65,6.173-4.874,10.722S21.289,52.8,19.665,51.5s.65-6.173,4.874-10.722S33.635,33.632,35.26,34.932Z" transform="translate(-19.138 -34.597)"/>
      <path id="Path_1113" data-name="Path 1113" class="cls-4" d="M31.566,35.486c.975.975-.65,4.224-3.9,7.473s-6.5,5.2-7.473,4.549c-.975-.975.65-4.224,3.9-7.473S30.591,34.836,31.566,35.486Z" transform="translate(-17.393 -32.877)"/>
      <path id="Path_1114" data-name="Path 1114" class="cls-5" d="M31.67,35.686c.975.975-.65,4.224-3.9,7.473s-6.5,5.2-7.473,4.549c-.65-.975.975-4.224,3.9-7.473C27.446,36.986,30.7,35.036,31.67,35.686Z" transform="translate(-16.848 -32.428)"/>
    </g>
    <g id="Group_807" data-name="Group 807" transform="translate(95.521 41.297)">
      <g id="Group_803" data-name="Group 803" transform="translate(1.625)">
        <path id="Path_1115" data-name="Path 1115" class="cls-16" d="M35.748,52.663c2.274,2.274,4.224,4.874,6.5,7.473,1.625,1.624,2.924,3.574,4.549,5.523,10.072-9.1,20.469-17.87,30.866-26.642C71.162,25.7,54.917,14,43.221,12.7,37.7,24.4,35.748,34.468,29.9,46.49,31.849,48.439,33.8,50.713,35.748,52.663Z" transform="translate(-29.9 -12.7)"/>
        <path id="Path_1116" data-name="Path 1116" class="cls-7" d="M36.724,13.3,33.8,19.148A47.257,47.257,0,0,1,60.117,44.166c1.625-1.3,3.574-2.924,5.2-4.224A53.2,53.2,0,0,0,36.724,13.3Z" transform="translate(-21.129 -11.351)"/>
        <path id="Path_1117" data-name="Path 1117" class="cls-17" d="M31.9,42.083l5.848,6.823a35.467,35.467,0,0,1,4.224,5.523c6.173-5.523,12.671-11.372,18.844-16.895,3.9-6.5,5.2-13.321,1.949-17.22-5.2-6.5-17.22-.325-25.342,12.021C35.474,35.585,33.525,39.159,31.9,42.083Z" transform="translate(-25.402 -1.47)"/>
        <path id="Path_1118" data-name="Path 1118" class="cls-7" d="M37.323,17.7c-2.274,4.549-4.549,9.422-6.823,13.971,1.624-.325,3.9-2.6,5.848-5.848C37.973,22.574,38.623,19,37.323,17.7Z" transform="translate(-28.551 -1.455)"/>
        <path id="Path_1119" data-name="Path 1119" class="cls-7" d="M33.574,26.874a2.463,2.463,0,0,0,.65-1.3A17.5,17.5,0,0,0,30,23.3,37.067,37.067,0,0,1,33.574,26.874Z" transform="translate(-29.675 11.139)"/>
        <path id="Path_1120" data-name="Path 1120" class="cls-6" d="M41.272,36.685c-3.249.325-6.823,2.274-8.772,3.574,1.3,1.625,2.6,2.924,3.9,4.549a32.8,32.8,0,0,1,4.224,5.2,44.778,44.778,0,0,0,4.549-10.072,7.237,7.237,0,0,0,4.873-.65c1.625-.65,12.346-14.621,9.1-19.169C57.517,17.84,48.1,22.389,44.2,27.912,39.973,33.111,41.272,36.685,41.272,36.685Z" transform="translate(-24.053 2.628)"/>
      </g>
      <path id="Path_1121" data-name="Path 1121" class="cls-6" d="M51,22.847c.325-1.3-3.574-5.848-8.447-9.747L38,21.547l10.4,2.924Z" transform="translate(-10.059 -11.8)"/>
      <g id="Group_804" data-name="Group 804">
        <path id="Path_1122" data-name="Path 1122" class="cls-12" d="M38.822,50.388a68.747,68.747,0,0,1,6.823,3.574C53.768,43.89,61.89,34.468,70.662,23.747c-6.173.975-24.043-8.123-26.317-11.047-5.2,10.722-9.1,22.418-14.945,33.14C32.649,47.139,35.573,48.764,38.822,50.388Z" transform="translate(-29.4 -12.7)"/>
        <path id="Path_1123" data-name="Path 1123" class="cls-9" d="M51.094,27.471c-5.848,7.8-11.047,14.945-17.22,22.743.325.325.65.325,1.3.65,6.173-7.8,20.794-25.017,22.093-26.642-6.173-.65-17.87-5.848-22.093-10.722A32.79,32.79,0,0,1,32.9,18.374C37.774,21.623,44.6,25.846,51.094,27.471Z" transform="translate(-21.528 -10.901)"/>
        <path id="Path_1124" data-name="Path 1124" class="cls-9" d="M37.348,16.1c.325,0,1.949,4.874.65,10.072-1.624,5.2-7.473,6.823-7.8,6.5C32.149,28.771,35.723,20.324,37.348,16.1Z" transform="translate(-27.601 -5.053)"/>
        <path id="Path_1125" data-name="Path 1125" class="cls-18" d="M38.6,29.7h0a5.7,5.7,0,0,1,1.3-1.624A28.489,28.489,0,0,1,31.125,21.9,15.176,15.176,0,0,0,29.5,25.149C32.424,26.449,35.348,28.073,38.6,29.7Z" transform="translate(-29.175 7.991)"/>
      </g>
      <g id="Group_806" data-name="Group 806" transform="translate(1.3 12.346)">
        <g id="Group_805" data-name="Group 805">
          <path id="Path_1126" data-name="Path 1126" class="cls-10" d="M33.049,47.69c2.6,1.949,5.2,3.574,7.8,5.848a37.4,37.4,0,0,1,5.523,4.549c.325.325.975.65,1.3.975h.325c9.747-9.422,18.519-18.844,29.241-27.941-5.848.65-22.743-6.823-31.19-14.621-.325.65-6.5,15.92-16.245,28.916C31.424,47.041,31.1,46.391,33.049,47.69Z" transform="translate(-29.8 -16.5)"/>
          <path id="Path_1127" data-name="Path 1127" class="cls-11" d="M30.6,43.892c.325.325,1.3.65,1.625.975,4.874-6.173,7.473-13,11.372-19.819,5.523,3.9,12.346,9.422,23.718,10.072l4.874-4.549c-5.2.975-19.819-6.5-27.617-12.671C43.6,19.525,35.149,37.719,30.6,43.892Z" transform="translate(-28.001 -13.351)"/>
          <path id="Path_1128" data-name="Path 1128" class="cls-19" d="M35.2,43.319h0C38.774,40.07,52.745,26.424,55.994,23.5a59.883,59.883,0,0,0-13.971,9.747C38.449,36.171,36.5,40.395,35.2,43.319Z" transform="translate(-17.655 -0.757)"/>
          <path id="Path_1129" data-name="Path 1129" class="cls-20" d="M35.7,30.58c1.3-1.949,1.625-3.574.325-3.9-.975-.325-2.6,0-4.224,1.3A16.325,16.325,0,0,1,35.7,30.58Z" transform="translate(-25.302 6.134)"/>
          <path id="Path_1130" data-name="Path 1130" class="cls-11" d="M31.8,27.049A42.113,42.113,0,0,0,45.771,32.9l2.924-2.924A38.188,38.188,0,0,1,34.4,23.8C33.749,24.775,32.775,25.749,31.8,27.049Z" transform="translate(-25.302 -0.082)"/>
          <path id="Path_1131" data-name="Path 1131" class="cls-11" d="M33.9,24.874c4.224,2.924,8.122,4.549,13.971,6.173l2.6-2.6c-5.848-1.625-9.422-4.224-13.646-7.148A34.529,34.529,0,0,0,33.9,24.874Z" transform="translate(-20.579 -5.705)"/>
        </g>
        <path id="Path_1132" data-name="Path 1132" class="cls-21" d="M41.423,24.9c-2.6-1.3-8.123-2.6-8.123-.975s2.924,4.224,5.2,5.2c1.949.975,7.148,1.625,8.123.65S45,26.524,41.423,24.9Z" transform="translate(-21.928 -1.507)"/>
      </g>
    </g>
    <g id="Group_808" data-name="Group 808" transform="translate(39.313 110.825)">
      <path id="Path_1133" data-name="Path 1133" class="cls-13" d="M111.195,66.59c-19.169-.975-43.212,13-64.655,33.14C36.792,91.282,25.1,87.709,12.1,88.683,37.767,62.041,67.333,40.273,93,34.1,100.8,41.9,106.971,52.944,111.195,66.59Z" transform="translate(-12.1 -34.1)"/>
      <path id="Path_1134" data-name="Path 1134" class="cls-9" d="M13.7,84.285h4.224a44.175,44.175,0,0,1,22.093,7.8c.975.65,2.274,1.625,3.249,2.274,20.469-18.844,42.887-31.84,61.406-32.165-.65-1.3-.975-2.924-1.625-4.224A70.061,70.061,0,0,0,90.7,37.5a9.889,9.889,0,0,0-2.6-2.6C64.709,40.748,37.743,59.917,13.7,84.285Zm88.373-26.317c-18.844,1.3-40.937,14.621-61.406,33.14a44.175,44.175,0,0,0-22.093-7.8C41.317,60.892,66.984,43.023,89.4,37.824,94.6,43.023,98.824,49.845,102.073,57.968Z" transform="translate(-8.502 -32.301)"/>
      <path id="Path_1135" data-name="Path 1135" class="cls-8" d="M52.309,43.907c5.848,6.173,5.2,14.621-.325,17.545s-14.945,0-22.093-3.9c-7.148-4.224-8.447-9.747-1.3-14.621C35.414,38.059,46.461,37.734,52.309,43.907Z" transform="translate(14.295 -22.464)"/>
      <path id="Path_1136" data-name="Path 1136" class="cls-8" d="M29.25,46.817a2.942,2.942,0,0,1,.65,5.2,8.349,8.349,0,0,1-7.8.975c-2.6-.975-2.924-2.924-.65-4.874C23.077,46.492,26.976,45.842,29.25,46.817Z" transform="translate(5.514 -6.529)"/>
      <path id="Path_1137" data-name="Path 1137" class="cls-8" d="M41.754,42.19c.975,1.625.65,3.574-.65,3.9s-3.249-.65-4.224-2.274-.975-3.249.325-3.574C38.83,39.591,40.78,40.566,41.754,42.19Z" transform="translate(42.07 -20.747)"/>
      <path id="Path_1138" data-name="Path 1138" class="cls-9" d="M38.52,48.325c-4.874,3.574-10.072,7.8-14.945,12.021-.65-.325-1.625-.975-2.274-1.3A166.737,166.737,0,0,1,36.245,46.7,9.873,9.873,0,0,1,38.52,48.325Z" transform="translate(8.591 -5.763)"/>
      <path id="Path_1139" data-name="Path 1139" class="cls-9" d="M49.32,40.474a77.792,77.792,0,0,0-13.971,4.549L33.4,43.074A93.052,93.052,0,0,1,47.7,38.2C48.345,38.85,48.67,39.824,49.32,40.474Z" transform="translate(35.804 -24.879)"/>
      <path id="Path_1140" data-name="Path 1140" class="cls-9" d="M48.87,38.949a87.546,87.546,0,0,0-14.621,5.2A8.614,8.614,0,0,0,32.3,42.523,105.62,105.62,0,0,1,47.245,37,8.613,8.613,0,0,0,48.87,38.949Z" transform="translate(33.33 -27.578)"/>
      <path id="Path_1141" data-name="Path 1141" class="cls-9" d="M27.1,41.469c4.874-3.249,14.945,0,15.27,1.3.65,1.624-.975,3.249-.975,3.249s4.874,0,8.123,1.625c0,0,2.274,7.8-2.924,10.722-5.2,2.6-11.372,0-11.372.325a14.2,14.2,0,0,1,1.3-8.772s-4.224,1.625-7.473,0C26.127,47.967,24.5,43.094,27.1,41.469Z" transform="translate(18.709 -20.676)"/>
    </g>
    <g id="Group_809" data-name="Group 809" transform="translate(75.434 135.38)">
      <path id="Path_1142" data-name="Path 1142" class="cls-4" d="M43.493,42.841a5.921,5.921,0,0,1,1.3,3.9c-.325,2.6-3.574,6.173-8.123,8.447-4.549,2.6-8.772,3.249-11.047,1.949a5.219,5.219,0,0,1-2.274-3.574c-.65-2.924,3.249-4.874,8.772-7.8S41.868,40.567,43.493,42.841Z" transform="translate(-23.082 -41.079)"/>
      <path id="Path_1143" data-name="Path 1143" class="cls-22" d="M43.629,43.42c1.3,2.6-2.274,7.148-7.8,10.4-5.523,2.924-11.047,3.574-12.346.65-1.3-2.6,2.274-7.148,7.8-10.4C36.806,41.146,42.329,40.821,43.629,43.42Z" transform="translate(-23.218 -41.658)"/>
      <path id="Path_1144" data-name="Path 1144" class="cls-4" d="M38.951,43.237c.975,1.625-1.949,4.874-5.848,7.148s-8.123,2.6-8.772.975c-.975-1.625,1.949-4.874,5.848-7.148C34.078,42.263,37.977,41.613,38.951,43.237Z" transform="translate(-21.139 -40.175)"/>
      <path id="Path_1145" data-name="Path 1145" class="cls-22" d="M39.051,43.6c.975,1.625-1.949,4.874-5.848,7.148s-8.123,2.6-8.772.975c-.975-1.625,1.949-4.874,5.848-7.148S38.077,41.978,39.051,43.6Z" transform="translate(-20.914 -39.566)"/>
    </g>
    <g id="Group_810" data-name="Group 810" transform="translate(0 19.203)">
      <path id="Path_1146" data-name="Path 1146" class="cls-23" d="M21.443,155.679C11.372,129.037,4.549,101.421,2.274,73.154a172.762,172.762,0,0,1-.65-28.916c.325-5.523.65-11.372,2.924-16.57a7.1,7.1,0,0,1,.975-1.625,36.5,36.5,0,0,1,6.5-5.848c4.224-4.224,8.772-6.823,13.646-9.422,1.3-.65,2.924-1.3,4.549-1.949h.325a10.891,10.891,0,0,0,3.249,0c13.321,0,26.317-.65,39.638-.975s26.642-.975,39.963-1.3h3.574l2.924.975A85.517,85.517,0,0,1,131.26,12.4a40.914,40.914,0,0,1,11.7,7.8,14.529,14.529,0,0,1,4.224,7.148c.65,2.924,1.3,5.848,1.624,8.447,1.3,9.1,1.3,18.519,1.3,27.617a302.86,302.86,0,0,1-11.7,79.925c-.975,3.574-2.274,7.148-3.249,10.722-.325.975-.65,1.624-.975,2.6,0,0-.325.65,0,.65h-.325c-1.625.65-2.924.975-4.549,1.625a183.416,183.416,0,0,1-23.068,5.523c-27.292,4.224-55.558,2.274-81.225-7.473a24.681,24.681,0,0,0-3.574-1.3c-.325-.325-1.625.325-.975.325,25.667,10.722,53.609,13.321,80.9,9.747a166.938,166.938,0,0,0,25.342-5.2,38.223,38.223,0,0,0,6.5-2.274c.325-.325.975-.325,1.3-.65h.325c.325,0,.325-.65.65-.975l.975-2.924c9.1-25.992,13.646-53.609,14.945-81.225.325-10.4.325-20.469-.325-30.866-.325-3.574-.65-7.148-1.3-10.722a38,38,0,0,0-1.624-6.5,22.481,22.481,0,0,0-8.447-8.123,89.466,89.466,0,0,0-12.346-6.5c-2.924-1.3-5.848-2.274-8.772-3.574a4.121,4.121,0,0,0-1.949-.325c-11.372.325-23.068.65-34.439.975-14.621.325-29.241.975-43.537,1.3H31.19a6.2,6.2,0,0,0-2.6.975,47.842,47.842,0,0,0-5.523,2.274,76.754,76.754,0,0,0-13.646,9.1c-2.274,1.949-5.2,4.224-6.173,7.148a21.213,21.213,0,0,0-1.625,6.5C0,41.964,0,49.762,0,57.559c.325,25.667,5.2,51.334,12.671,76.027,2.274,7.473,4.874,14.945,7.473,22.418Z" transform="translate(0 -5.9)"/>
    </g>
    <g id="Group_811" data-name="Group 811" class="cls-24" transform="translate(3.249 22.65)">
      <path id="Path_1147" data-name="Path 1147" class="cls-23" d="M21.469,150.044A305.915,305.915,0,0,1,2.625,66.87a168.028,168.028,0,0,1,0-28.591,76.61,76.61,0,0,1,1.3-9.1,16.985,16.985,0,0,1,1.949-5.2c1.3-1.949,3.574-3.574,5.523-5.2a53.424,53.424,0,0,1,7.148-4.549A48.941,48.941,0,0,1,29.916,9.687h.65s-.65-.65-.325,0a.318.318,0,0,1,.325.325h5.848c14.3-.325,28.591-.65,43.212-.975l33.14-.975h.325c.975.325,1.625.65,2.6.975a112.228,112.228,0,0,1,11.047,4.549,40.913,40.913,0,0,1,11.7,7.8,14.04,14.04,0,0,1,3.9,7.148c1.949,7.148,2.274,14.621,2.6,22.093a304.826,304.826,0,0,1-.975,34.439,295.388,295.388,0,0,1-6.823,41.262c-1.624,7.148-3.9,14.621-6.173,21.768-.325.975-.65,1.625-.975,2.6,0,0-.65,1.625-.325,1.3h-.325c-.65.325-.975.325-1.624.65a156.124,156.124,0,0,1-53.284,8.123,148.1,148.1,0,0,1-52.959-10.722c-.65-.325-1.3.65-.325.975,25.342,10.4,53.609,13,80.575,8.772a187.492,187.492,0,0,0,23.393-5.2c1.624-.65,3.249-.975,4.874-1.624.975-.325.975-1.3,1.3-2.274,1.3-3.574,2.274-7.148,3.574-10.722,7.8-25.667,11.372-52.634,11.7-79.276a183.31,183.31,0,0,0-1.624-26.642,66.542,66.542,0,0,0-1.624-7.8c-.975-3.249-3.249-5.523-5.848-7.473-6.5-5.2-14.3-8.447-22.093-11.047-1.3-.65-1.949-.975-2.924-.65h-4.224c-13.971.325-28.266.975-42.237,1.3-7.473.325-14.945.325-22.418.65-4.224,0-8.447.325-12.346,0h-.325c-.325,0,.65.65.325,0-.65-.65-1.625,0-2.274,0a63.115,63.115,0,0,0-11.7,4.874c-4.224,2.274-9.1,5.523-12.346,9.422a12.82,12.82,0,0,0-1.949,4.874A95.824,95.824,0,0,0,1,49.65,227.247,227.247,0,0,0,3.274,82.79a286.822,286.822,0,0,0,17.22,67.579C20.494,151.019,21.794,150.694,21.469,150.044Z" transform="translate(-1 -6.961)"/>
    </g>
    <g id="Group_812" data-name="Group 812" transform="translate(31.815 102.053)">
      <path id="Path_1148" data-name="Path 1148" class="cls-13" d="M9.818,31.4c-.975,22.093,26.317,53.933,67.9,73.752,9.422-4.224,18.519-8.772,27.617-13.321C67.65,79.485,43.282,54.468,45.881,35.624,33.86,34.649,21.839,33.024,9.818,31.4Z" transform="translate(-9.792 -31.4)"/>
      <path id="Path_1149" data-name="Path 1149" class="cls-9" d="M41.69,35.674c-1.3,0-2.6-.325-3.9-.325-7.8-.65-15.6-1.625-23.393-2.6-1.3-.325-2.6-.325-3.9-.65.975,21.119,25.992,50.035,63.68,69.2a33.709,33.709,0,0,1,3.249-1.3c6.173-2.6,12.021-5.2,18.194-8.122.975-.65,1.949-.975,2.924-1.625C63.784,77.261,41.366,53.868,41.69,35.674Zm-3.9.325C38.441,54.518,60.21,77.586,94,91.232c-5.848,2.924-12.021,5.523-18.194,8.123C40.066,81.16,16.023,54.193,14.724,33.724,22.2,34.7,29.994,35.349,37.792,36Z" transform="translate(-8.2 -29.826)"/>
      <path id="Path_1150" data-name="Path 1150" class="cls-8" d="M23.524,39.2c-8.123,0-11.372,5.523-5.2,12.346,6.173,7.148,18.844,11.7,26.317,10.4,7.473-1.625,7.473-7.148,1.949-13C41.069,43.424,31.647,39.2,23.524,39.2Z" transform="translate(2.168 -13.858)"/>
      <path id="Path_1151" data-name="Path 1151" class="cls-8" d="M28.633,48.441c-2.274.65-1.949,2.6.975,4.224s6.823,2.274,9.1,1.624,1.625-2.6-1.3-3.9C34.806,48.766,30.907,47.791,28.633,48.441Z" transform="translate(29.224 6.467)"/>
      <path id="Path_1152" data-name="Path 1152" class="cls-8" d="M15.716,35.043c-1.949-.325-3.249.65-2.6,2.274a6.651,6.651,0,0,0,4.549,2.924c1.949,0,2.924-.975,2.274-2.274C19.615,36.343,17.666,35.043,15.716,35.043Z" transform="translate(-2.695 -23.347)"/>
      <path id="Path_1153" data-name="Path 1153" class="cls-9" d="M23.3,48.15A123.141,123.141,0,0,0,45.068,61.8c.65-.325,1.625-.65,2.274-.975A121.815,121.815,0,0,1,25.574,47.5,4.7,4.7,0,0,1,23.3,48.15Z" transform="translate(20.587 4.809)"/>
      <path id="Path_1154" data-name="Path 1154" class="cls-9" d="M15.2,33.9a39.232,39.232,0,0,0,4.874,13.321h2.6A39.233,39.233,0,0,1,17.8,33.9Z" transform="translate(2.37 -25.777)"/>
      <path id="Path_1155" data-name="Path 1155" class="cls-9" d="M16.8,34a40.313,40.313,0,0,0,4.874,13h2.6c-2.6-4.549-4.224-8.772-4.549-12.671A9,9,0,0,0,16.8,34Z" transform="translate(5.968 -25.553)"/>
      <path id="Path_1156" data-name="Path 1156" class="cls-9" d="M41.917,46.923c-3.574-3.9-14.3-6.173-14.945-5.523-1.3.975-.325,3.249-.325,3.249S21.773,41.725,18.2,40.1c0,0-5.523,3.249,0,9.747A31.5,31.5,0,0,0,31.845,57.97s.975-2.924-.65-7.8c0,0,4.549,3.9,7.8,3.249C42.242,53.1,43.866,48.872,41.917,46.923Z" transform="translate(3.594 -11.834)"/>
    </g>
    <g id="Group_813" data-name="Group 813" transform="translate(8.772 84.508)">
      <path id="Path_1157" data-name="Path 1157" class="cls-13" d="M2.7,38.671C12.122,58.815,51.435,74.735,97.571,73.76c6.5-7.8,12.346-15.92,18.194-24.368C76.452,55.566,43.313,43.87,36.815,26Q20.245,32.823,2.7,38.671Z" transform="translate(-2.7 -26)"/>
      <path id="Path_1158" data-name="Path 1158" class="cls-9" d="M32.941,26.9c-1.3.65-2.274.975-3.574,1.625-7.148,2.924-14.3,5.523-21.768,8.123-1.3.325-2.6.975-3.9,1.3C14.422,56.141,49.836,70.762,92.4,70.762c.65-.975,1.625-1.624,2.274-2.6,4.224-5.2,8.447-10.072,12.346-15.6a18.024,18.024,0,0,1,1.949-2.6C71.929,54.192,41.064,43.47,32.941,26.9Zm-3.249,1.949c9.1,16.245,39.313,26.967,75.7,24.043-3.9,5.2-8.123,10.4-12.346,15.27-40.288,0-74.077-13.321-84.8-30.866C15.4,34.7,22.544,31.774,29.692,28.849Z" transform="translate(-0.451 -23.976)"/>
      <path id="Path_1159" data-name="Path 1159" class="cls-8" d="M17.069,35.423c-7.148,3.574-7.8,10.072,1.3,13.321,8.772,3.574,22.093,1.949,28.266-2.6C52.483,41.6,49.884,36.4,42.411,33.8,34.613,31.524,24.217,31.849,17.069,35.423Z" transform="translate(17.371 -11.705)"/>
      <path id="Path_1160" data-name="Path 1160" class="cls-8" d="M26.927,38.617c-1.625,1.625-.65,3.249,2.924,3.249,3.249.325,7.148-.975,8.772-2.6s.325-2.924-2.924-2.924C32.45,36.018,28.552,36.993,26.927,38.617Z" transform="translate(50.074 -2.878)"/>
      <path id="Path_1161" data-name="Path 1161" class="cls-8" d="M9.217,31.707c-1.625.65-2.274,2.274-1.3,3.249a4.9,4.9,0,0,0,5.2.325c1.624-.65,2.274-2.274.975-3.249A4.351,4.351,0,0,0,9.217,31.707Z" transform="translate(8.003 -14.488)"/>
      <path id="Path_1162" data-name="Path 1162" class="cls-9" d="M22.3,39.3a132.379,132.379,0,0,0,25.667,2.274c.65-.65.975-1.3,1.625-1.624A129.267,129.267,0,0,1,24.249,38,6.8,6.8,0,0,0,22.3,39.3Z" transform="translate(41.38 0.988)"/>
      <path id="Path_1163" data-name="Path 1163" class="cls-9" d="M8.7,30.375a53.322,53.322,0,0,0,10.722,9.747,8.143,8.143,0,0,0,2.274-1.3A37.225,37.225,0,0,1,11.3,29.4C10.325,29.725,9.675,30.05,8.7,30.375Z" transform="translate(10.794 -18.353)"/>
      <path id="Path_1164" data-name="Path 1164" class="cls-9" d="M10.2,30a37.225,37.225,0,0,0,10.4,9.422,8.144,8.144,0,0,0,2.274-1.3C18.323,35.2,15.074,32.274,12.8,28.7A19.157,19.157,0,0,1,10.2,30Z" transform="translate(14.168 -19.928)"/>
      <path id="Path_1165" data-name="Path 1165" class="cls-9" d="M37.532,33.654c-5.2-1.949-15.6.975-15.92,1.949-.65,1.3,1.3,2.924,1.3,2.924s-5.523-.325-9.747-.325c0,0-3.249,5.523,4.549,8.772a32.534,32.534,0,0,0,15.92,1.3s-.65-2.924-4.224-6.5c0,0,5.848,1.3,8.447-.65C40.456,38.852,40.131,34.629,37.532,33.654Z" transform="translate(19.325 -10.261)"/>
    </g>
    <g id="Group_816" data-name="Group 816" transform="translate(17.87 120.572)">
      <g id="Group_814" data-name="Group 814" transform="translate(0.322)">
        <path id="Path_1166" data-name="Path 1166" class="cls-6" d="M44.265,37.1c5.2,10.072,8.772,20.794,14.621,30.866C44.265,70.24,33.219,76.088,22.822,84.86,16.649,74.788,11.45,66.341,5.6,56.269,5.277,51.721,29.645,39.7,44.265,37.1Z" transform="translate(-5.599 -37.1)"/>
        <path id="Path_1167" data-name="Path 1167" class="cls-7" d="M50.836,61.818c-3.9-6.5-5.848-13.646-9.747-20.144A70.578,70.578,0,0,0,8.274,58.569,28.1,28.1,0,0,1,6,55.32c3.249-5.848,20.794-14.3,34.439-17.22.65.975,1.3,2.274,1.949,3.249,3.9,6.5,11.047,22.093,11.7,23.068-13.321,2.6-23.393,8.122-33.465,16.245-.65-.975-1.3-2.274-1.949-3.249A66.442,66.442,0,0,1,50.836,61.818Z" transform="translate(-4.697 -34.851)"/>
        <path id="Path_1168" data-name="Path 1168" class="cls-8" d="M14.068,47.125a5.612,5.612,0,0,0,6.173,2.6,3.314,3.314,0,0,0,1.625-5.2c-1.3-2.274-4.224-3.574-6.5-2.6C13.418,42.252,12.768,44.851,14.068,47.125Z" transform="translate(11.927 -26.981)"/>
        <path id="Path_1169" data-name="Path 1169" class="cls-9" d="M14.7,52.247a72.411,72.411,0,0,1,16.57-6.173c-.325-.65-.975-1.625-1.3-2.274A91.606,91.606,0,0,0,13.4,49.973,18.638,18.638,0,0,1,14.7,52.247Z" transform="translate(11.945 -22.032)"/>
        <path id="Path_1170" data-name="Path 1170" class="cls-9" d="M6.3,44.345c1.949-1.624,7.8.975,9.747,4.224s-.975,6.173-.975,6.173a17.3,17.3,0,0,1,9.422,1.625,11.656,11.656,0,0,1-4.224,9.747l-.65.65C15.072,59.29,10.524,51.817,6.3,44.345Z" transform="translate(-4.347 -21.926)"/>
      </g>
      <g id="Group_815" data-name="Group 815" transform="translate(0 3.827)">
        <path id="Path_1171" data-name="Path 1171" class="cls-10" d="M49.362,38.35c-8.772-.65-15.6,3.249-22.418,6.823-6.823,3.9-13,7.8-21.443,8.772,5.848,10.072,12.021,19.819,17.87,29.891,7.473-.325,13-4.224,19.169-7.473,5.848-3.574,12.021-6.823,19.819-6.173C58.134,59.468,53.585,48.746,49.362,38.35Z" transform="translate(-5.5 -38.278)"/>
        <path id="Path_1172" data-name="Path 1172" class="cls-11" d="M5.9,54.72c.65.975,1.3,2.274,1.949,3.249C22.47,56.994,31.567,44.648,45.863,42.7l8.772,20.469C41.314,64.792,33.517,76.488,19.546,77.138c.65.975,1.3,2.274,1.949,3.249,13.971-.65,21.768-13.321,35.739-13.971-.325-1.3-.975-2.274-1.3-3.574C53.011,56.02,50.086,49.2,47.487,42.374c-.325-1.3-.975-2.274-1.3-3.574C30.592,40.424,21.17,53.421,5.9,54.72Z" transform="translate(-4.6 -37.104)"/>
        <path id="Path_1173" data-name="Path 1173" class="cls-9" d="M26.044,53.141c-3.9-7.148-11.7-9.747-20.144-9.422,5.2,8.772,10.4,17.22,15.6,25.992C28.318,68.736,29.618,59.964,26.044,53.141Z" transform="translate(-4.6 -26.102)"/>
        <path id="Path_1174" data-name="Path 1174" class="cls-12" d="M21.54,47.094a4.018,4.018,0,0,1-1.3,4.549c-1.625.975-3.249.325-4.224-1.624a3.288,3.288,0,0,1,1.3-4.549C18.616,44.494,20.566,45.469,21.54,47.094Z" transform="translate(17.123 -22.98)"/>
        <path id="Path_1175" data-name="Path 1175" class="cls-11" d="M30.22,45.174C24.372,46.8,19.5,50.048,14.3,52.972A8.143,8.143,0,0,0,13,50.7c5.2-2.924,10.072-6.173,15.92-7.8A8.144,8.144,0,0,1,30.22,45.174Z" transform="translate(11.368 -27.883)"/>
        <path id="Path_1176" data-name="Path 1176" class="cls-11" d="M29.62,44c-5.848,1.624-11.047,4.873-15.92,7.8a8.144,8.144,0,0,0-1.3-2.274C17.6,46.6,22.8,43.349,28.645,41.4A6.2,6.2,0,0,0,29.62,44Z" transform="translate(10.018 -31.257)"/>
        <path id="Path_1177" data-name="Path 1177" class="cls-11" d="M25.144,57.829a35.347,35.347,0,0,0-7.8-2.924A4.481,4.481,0,0,0,19.3,51.656c0-1.3-7.148-7.473-13-7.148,4.549,7.473,8.772,14.945,13.321,22.418C25.794,65.627,25.144,57.5,25.144,57.829Z" transform="translate(-3.701 -24.293)"/>
      </g>
    </g>
    <g id="Group_817" data-name="Group 817" transform="translate(88.048 161.006)">
      <path id="Path_1178" data-name="Path 1178" class="cls-4" d="M50.168,56.5a5.681,5.681,0,0,1-1.3,3.9C46.919,62.353,42.7,63,37.5,61.7c-4.874-.975-8.772-3.249-10.072-5.848a4.948,4.948,0,0,1,.325-4.224c1.3-2.6,5.523-1.625,11.7-.325C45.619,52.931,50.168,53.581,50.168,56.5Z" transform="translate(-27.1 -48.528)"/>
      <path id="Path_1179" data-name="Path 1179" class="cls-5" d="M49.536,57.521c-.65,2.924-5.848,4.224-12.021,2.924S26.793,55.9,27.443,52.973s5.848-4.224,12.021-2.924S50.186,54.6,49.536,57.521Z" transform="translate(-26.468 -49.545)"/>
      <path id="Path_1180" data-name="Path 1180" class="cls-4" d="M44.561,55.483c-.325,1.949-4.224,2.6-8.772,1.625s-7.8-3.249-7.473-4.874c.325-1.949,4.224-2.6,8.772-1.625S44.885,53.859,44.561,55.483Z" transform="translate(-24.417 -48.157)"/>
      <path id="Path_1181" data-name="Path 1181" class="cls-5" d="M44.461,55.783c-.325,1.949-4.224,2.6-8.772,1.625s-7.8-3.249-7.473-4.874c.325-1.949,4.224-2.6,8.772-1.625S44.785,53.834,44.461,55.783Z" transform="translate(-24.642 -47.482)"/>
    </g>
    <g id="Group_818" data-name="Group 818" transform="translate(78.243 163.66)">
      <path id="Path_1182" data-name="Path 1182" class="cls-4" d="M46.843,51.42a3.624,3.624,0,0,1,.325,3.574c-.975,1.949-4.874,4.224-10.072,5.848-4.874,1.625-9.422,1.625-11.372.65A6.085,6.085,0,0,1,24.1,57.918c0-2.274,4.874-2.6,11.047-4.549C41.32,51.745,45.543,49.471,46.843,51.42Z" transform="translate(-24.042 -49.671)"/>
      <path id="Path_1183" data-name="Path 1183" class="cls-22" d="M46.883,52.11c.65,1.949-4.224,5.2-10.4,7.148s-11.7,1.949-12.346-.325c-.65-1.949,4.224-5.2,10.4-7.148S46.234,49.836,46.883,52.11Z" transform="translate(-24.082 -50.362)"/>
      <path id="Path_1184" data-name="Path 1184" class="cls-4" d="M41.461,51.849c.325,1.3-2.924,3.249-7.473,4.874-4.549,1.3-8.447,1.624-8.772.325s2.924-3.249,7.473-4.874C36.912,50.549,41.136,50.549,41.461,51.849Z" transform="translate(-21.583 -49.126)"/>
      <path id="Path_1185" data-name="Path 1185" class="cls-22" d="M41.461,52.149c.325,1.3-2.924,3.249-7.473,4.874-4.549,1.3-8.447,1.3-8.772.325-.325-1.3,2.924-3.249,7.473-4.874S41.136,50.849,41.461,52.149Z" transform="translate(-21.583 -48.451)"/>
    </g>
    <path id="Path_1186" data-name="Path 1186" class="cls-25" d="M8.4,22.4s5.523,40.288,7.473,66.929c0,0,7.8,2.924,20.794,4.224a51.88,51.88,0,0,0,13.646-.65l1.3,3.249c10.072.65,14.3-.975,19.819-2.924,0,0,5.848,4.549,6.823,4.549,10.4-.325,22.093-6.823,31.19-9.1,0,0-.975-9.747-3.249-22.743,0,0,3.9,7.148,3.574,5.523-5.2-20.469,4.549-27.292,4.549-35.414,0,0-4.224-2.924-8.123-2.6C90.275,35.071,47.713,27.6,8.4,22.4Z" transform="translate(18.892 50.412)"/>
    <path id="Path_1187" data-name="Path 1187" class="cls-26" d="M7.8,24.5s2.924,40.613,9.747,67.579c0,0,50.035,7.148,84.474-.65,0,0,7.473-54.908,7.473-70.828C109.819,20.28,57.185,30.352,7.8,24.5Z" transform="translate(17.542 46.358)"/>
    <g id="Group_819" data-name="Group 819" transform="translate(28.566 18.554)">
      <path id="Path_1188" data-name="Path 1188" class="cls-23" d="M12.717,8.949a14.426,14.426,0,0,0-2.6,3.574c-.65.975-1.949,2.924-.975,3.9.65,1.3,2.6,1.625,3.574,1.949,7.473,2.274,15.92,2.924,24.043,3.249a219.564,219.564,0,0,0,41.262-1.949c6.823-.975,13.646-1.949,19.819-5.2a19.723,19.723,0,0,0,3.249-2.274c.65-.975-1.625-3.249-1.949-3.9-.65-.65-.975-1.3-1.625-1.949-.325-.325-.65-.65-.975-.65-2.924,0-5.848.325-8.772.325C72.823,6.35,57.878,7,42.932,7.325L13.691,8.3h0c-.65,0-.975.975-.325.975,9.747-.325,19.169-.65,28.916-.975C57.228,7.974,72.173,7.325,87.444,7c2.924,0,5.848-.325,9.1-.325-.325,0-.65-.325-.325,0l.65.65a5.127,5.127,0,0,0,1.625,2.6c.65.65,1.949,1.949.975,2.6a15.361,15.361,0,0,1-3.9,2.274c-7.473,3.249-16.245,4.224-24.368,4.874a246.144,246.144,0,0,1-40.937.65A61.718,61.718,0,0,1,13.041,17.4a8.027,8.027,0,0,1-2.924-1.3c-.65-.975.975-3.249,1.3-3.9a17.855,17.855,0,0,1,2.274-2.924C14.341,8.624,13.041,8.624,12.717,8.949Z" transform="translate(-8.792 -5.7)"/>
    </g>
    <path id="Path_1189" data-name="Path 1189" class="cls-27" d="M8.3,5.324l5.2,14.3s9.747,3.9,44.186,3.249c14.621-.325,32.165-2.924,40.613-5.848L103.5,2.4Z" transform="translate(18.667 5.432)"/>
    <path id="Path_1190" data-name="Path 1190" class="cls-28" d="M17.578,9.573C14.654,8.273-.616,19.32,3.608,24.194,12.38,35.24,54.617,41.413,71.187,35.24c11.047-3.9,10.4-18.844,8.123-20.794C79.309,14.447,39.022,19.32,17.578,9.573Z" transform="translate(6.464 21.327)"/>
    <path id="Path_1191" data-name="Path 1191" class="cls-28" d="M10.151,8.813c.975.975,5.523,3.249,18.844,4.224,13.321.65,25.667-.975,26.642-1.949,1.625-1.625-8.772-.65-25.017-1.3C17.949,9.463,9.176,7.838,10.151,8.813Z" transform="translate(22.664 19.163)"/>
    <path id="Path_1192" data-name="Path 1192" class="cls-29" d="M58.61,5.62C42.04,5.3,11.824,4.32,10.2,4.645a38.779,38.779,0,0,0,3.9,10.4,156.443,156.443,0,0,0,44.836,2.274C58.935,13.418,58.935,9.519,58.61,5.62Z" transform="translate(22.94 10.334)"/>
    <path id="Path_1193" data-name="Path 1193" class="cls-29" d="M26.25,4.9s-.65,7.473-.65,11.372l7.8-.975L35.022,5.225S32.1,5.225,26.25,4.9Z" transform="translate(57.574 11.054)"/>
    <path id="Path_1194" data-name="Path 1194" class="cls-30" d="M103.5,5.726c.325,4.874-21.119,9.422-47.111,10.4C30.068,17.1,8.625,13.849,8.3,8.975,8.3,4.1,29.094,2.8,55.086,1.5,82.7-.122,103.171.853,103.5,5.726Z" transform="translate(18.667 1.781)"/>
    <path id="Path_1195" data-name="Path 1195" class="cls-31" d="M103.5,7.507c0,3.574-21.119,8.447-47.435,9.422S8.3,14.33,8.3,10.756c0-4.874,21.119-9.1,47.111-10.4C83.027-1.265,103.5,2.633,103.5,7.507Z" transform="translate(18.667 0)"/>
    <path id="Path_1196" data-name="Path 1196" class="cls-32" d="M10.4,13.835s18.844,4.549,45.811,2.6L77.654.839S55.236-.785,42.565,1.164Z" transform="translate(23.39 0.495)"/>
    <path id="Path_1197" data-name="Path 1197" class="cls-32" d="M25.9,15.345,45.719.4a7.318,7.318,0,0,1,2.274.325L35.972,14.7A79.561,79.561,0,0,1,25.9,15.345Z" transform="translate(58.249 0.934)"/>
    <g id="Group_821" data-name="Group 821" transform="translate(64.98 86.133)">
      <g id="Group_820" data-name="Group 820" transform="translate(0 4.874)">
        <path id="Path_1198" data-name="Path 1198" class="cls-33" d="M43.393,45.87a10.016,10.016,0,0,1,.325,3.249,7.65,7.65,0,0,1-1.625,3.249,7.671,7.671,0,0,1-2.924,2.6,19.875,19.875,0,0,1-3.9,1.625,14.57,14.57,0,0,1-3.574.325,9.612,9.612,0,0,1-3.249-.65,22.386,22.386,0,0,1-2.6-.975,7.1,7.1,0,0,1-1.625-.975l-.65,2.274L20,55.941l.975-7.8H25.2a14.633,14.633,0,0,0,2.924,3.249,7.1,7.1,0,0,0,1.625.975c.65.325.975.65,1.625.65s1.3.325,1.949,0a4.618,4.618,0,0,0,1.949-.65,4.144,4.144,0,0,0,2.274-1.625,2.808,2.808,0,0,0,.975-1.949,2.387,2.387,0,0,0-.65-1.949,3.915,3.915,0,0,0-1.624-1.625,6.2,6.2,0,0,0-2.6-.975,5.537,5.537,0,0,0-3.249,0,7.919,7.919,0,0,1-3.9,0,5.489,5.489,0,0,1-3.249-.975,5.828,5.828,0,0,1-2.274-1.624,3.689,3.689,0,0,1-.975-2.6,4.828,4.828,0,0,1,.65-2.924,10.8,10.8,0,0,1,2.6-3.574,5.053,5.053,0,0,1,2.6-1.949c.975-.325,1.625-.975,2.6-.975a7.154,7.154,0,0,1,2.6-.325,4.817,4.817,0,0,1,2.274.325,18.118,18.118,0,0,1,5.2,2.274l.65-3.574L43.393,28l-1.3,7.8-5.2.325a2.955,2.955,0,0,0-1.3-2.6,6.122,6.122,0,0,0-2.924-1.3,10.891,10.891,0,0,0-3.249,0,4.464,4.464,0,0,0-2.6,1.625,5.237,5.237,0,0,0-1.3,2.274,2.669,2.669,0,0,0,.325,2.274,7.046,7.046,0,0,0,2.274,1.949c1.3.65,2.924.65,4.874.65h3.249a9.486,9.486,0,0,1,2.924.65,5.237,5.237,0,0,1,2.274,1.3C42.418,44.245,42.743,44.895,43.393,45.87Z" transform="translate(-20 -28)"/>
      </g>
      <path id="Path_1199" data-name="Path 1199" class="cls-33" d="M22.6,26.5v8.123h3.574l1.3-8.123Z" transform="translate(-14.153 -26.5)"/>
      <path id="Path_1200" data-name="Path 1200" class="cls-33" d="M23.575,36.2,22.6,44.323,26.824,44l1.3-7.8Z" transform="translate(-14.153 -4.685)"/>
    </g>
  </g>
</svg>
