<svg width="35" height="60" viewBox="0 0 35 60" fill="none" xmlns="http://www.w3.org/2000/svg">
<g clip-path="url(#clip0_224_16177)">
<path d="M17.4817 45.3155L0 56.5011V0.280269C0 -1.32147 1.50262 -2.63489 3.33508 -2.63489H31.6649C33.4974 -2.63489 35 -1.32147 35 0.280269V56.5011L17.4817 45.3155Z" fill="url(#paint0_linear_224_16177)"/>
<path d="M11.0781 30.394C11.0781 30.4839 11.0625 30.564 11.0312 30.6343C11 30.7046 10.957 30.7632 10.9023 30.8101C10.8516 30.8569 10.7891 30.8921 10.7148 30.9155C10.6445 30.9351 10.5723 30.9448 10.498 30.9448H9.8418C9.70508 30.9448 9.58594 30.9312 9.48438 30.9038C9.38672 30.8765 9.29492 30.8276 9.20898 30.7573C9.12695 30.6831 9.04688 30.5854 8.96875 30.4644C8.89062 30.3394 8.80273 30.1792 8.70508 29.9839L6.81836 26.439C6.70898 26.228 6.59766 26.0015 6.48438 25.7593C6.37109 25.5132 6.26953 25.2749 6.17969 25.0444H6.16797C6.18359 25.3257 6.19531 25.6069 6.20312 25.8882C6.21094 26.1655 6.21484 26.4526 6.21484 26.7495L6.21484 30.7163C6.21484 30.7554 6.20312 30.7905 6.17969 30.8218C6.16016 30.853 6.12305 30.8804 6.06836 30.9038C6.01758 30.9233 5.94727 30.939 5.85742 30.9507C5.76758 30.9624 5.65234 30.9683 5.51172 30.9683C5.375 30.9683 5.26172 30.9624 5.17187 30.9507C5.08203 30.939 5.01172 30.9233 4.96094 30.9038C4.91016 30.8804 4.875 30.853 4.85547 30.8218C4.83594 30.7905 4.82617 30.7554 4.82617 30.7163L4.82617 23.9019C4.82617 23.7183 4.87891 23.5815 4.98438 23.4917C5.09375 23.3979 5.22656 23.3511 5.38281 23.3511H6.20898C6.35742 23.3511 6.48242 23.3647 6.58398 23.3921C6.68555 23.4155 6.77539 23.4565 6.85352 23.5151C6.93555 23.5737 7.01172 23.6558 7.08203 23.7612C7.15234 23.8628 7.22461 23.9897 7.29883 24.1421L8.77539 26.9136C8.86133 27.0815 8.94531 27.2476 9.02734 27.4116C9.11328 27.5718 9.19531 27.7339 9.27344 27.8979C9.35156 28.0581 9.42773 28.2163 9.50195 28.3726C9.57617 28.5288 9.64844 28.6851 9.71875 28.8413H9.72461C9.71289 28.5679 9.70312 28.2827 9.69531 27.9858C9.69141 27.689 9.68945 27.4058 9.68945 27.1362V23.5796C9.68945 23.5405 9.70117 23.5054 9.72461 23.4741C9.74805 23.4429 9.78711 23.4155 9.8418 23.3921C9.89648 23.3687 9.96875 23.353 10.0586 23.3452C10.1484 23.3335 10.2637 23.3276 10.4043 23.3276C10.5371 23.3276 10.6484 23.3335 10.7383 23.3452C10.8281 23.353 10.8965 23.3687 10.9434 23.3921C10.9941 23.4155 11.0293 23.4429 11.0488 23.4741C11.0684 23.5054 11.0781 23.5405 11.0781 23.5796V30.394ZM17.4766 27.9683C17.4766 28.1479 17.4355 28.2808 17.3535 28.3667C17.2754 28.4526 17.166 28.4956 17.0254 28.4956H13.8438C13.8438 28.7183 13.8691 28.9214 13.9199 29.105C13.9746 29.2847 14.0586 29.439 14.1719 29.5679C14.2891 29.6929 14.4375 29.7886 14.6172 29.855C14.8008 29.9214 15.0195 29.9546 15.2734 29.9546C15.5312 29.9546 15.7578 29.937 15.9531 29.9019C16.1484 29.8628 16.3164 29.8218 16.457 29.7788C16.6016 29.7319 16.7207 29.6909 16.8145 29.6558C16.9082 29.6167 16.9844 29.5972 17.043 29.5972C17.0781 29.5972 17.1074 29.605 17.1309 29.6206C17.1543 29.6323 17.1738 29.6558 17.1895 29.6909C17.2051 29.7261 17.2148 29.7769 17.2188 29.8433C17.2266 29.9058 17.2305 29.9858 17.2305 30.0835C17.2305 30.1694 17.2285 30.2437 17.2246 30.3062C17.2207 30.3647 17.2148 30.4155 17.207 30.4585C17.1992 30.5015 17.1875 30.5386 17.1719 30.5698C17.1562 30.5972 17.1348 30.6245 17.1074 30.6519C17.084 30.6792 17.0156 30.7163 16.9023 30.7632C16.7891 30.8101 16.6445 30.8569 16.4688 30.9038C16.293 30.9468 16.0918 30.9839 15.8652 31.0151C15.6387 31.0503 15.3965 31.0679 15.1387 31.0679C14.6738 31.0679 14.2656 31.0093 13.9141 30.8921C13.5664 30.7749 13.2754 30.5972 13.041 30.3589C12.8066 30.1206 12.6309 29.8198 12.5137 29.4565C12.4004 29.0933 12.3438 28.6675 12.3438 28.1792C12.3438 27.7144 12.4043 27.2964 12.5254 26.9253C12.6465 26.5503 12.8223 26.2339 13.0527 25.9761C13.2832 25.7144 13.5625 25.5151 13.8906 25.3784C14.2227 25.2417 14.5957 25.1733 15.0098 25.1733C15.4473 25.1733 15.8203 25.2378 16.1289 25.3667C16.4414 25.4956 16.6973 25.6753 16.8965 25.9058C17.0957 26.1323 17.2422 26.4019 17.3359 26.7144C17.4297 27.0269 17.4766 27.3667 17.4766 27.7339V27.9683ZM16.0469 27.5464C16.0586 27.1323 15.9746 26.8081 15.7949 26.5737C15.6191 26.3354 15.3457 26.2163 14.9746 26.2163C14.7871 26.2163 14.623 26.2515 14.4824 26.3218C14.3457 26.3921 14.2305 26.4878 14.1367 26.6089C14.0469 26.7261 13.9766 26.8667 13.9258 27.0308C13.8789 27.1909 13.8516 27.3628 13.8438 27.5464H16.0469ZM26.6348 25.4956C26.6348 25.5386 26.6289 25.5913 26.6172 25.6538C26.6055 25.7163 26.584 25.8062 26.5527 25.9233L25.1582 30.6519C25.1387 30.7183 25.1133 30.7729 25.082 30.8159C25.0508 30.855 25.002 30.8862 24.9355 30.9097C24.873 30.9331 24.7812 30.9487 24.6602 30.9565C24.543 30.9644 24.3887 30.9683 24.1973 30.9683C24.0059 30.9683 23.8496 30.9624 23.7285 30.9507C23.6074 30.9429 23.5117 30.9272 23.4414 30.9038C23.375 30.8804 23.3262 30.8491 23.2949 30.8101C23.2637 30.7671 23.2402 30.7144 23.2246 30.6519L22.3457 27.4761L22.334 27.4233L22.3223 27.4761L21.5137 30.6519C21.498 30.7183 21.4746 30.7729 21.4434 30.8159C21.416 30.855 21.3672 30.8862 21.2969 30.9097C21.2266 30.9331 21.1309 30.9487 21.0098 30.9565C20.8887 30.9644 20.7324 30.9683 20.541 30.9683C20.3457 30.9683 20.1875 30.9624 20.0664 30.9507C19.9492 30.9429 19.8555 30.9272 19.7852 30.9038C19.7188 30.8804 19.6699 30.8491 19.6387 30.8101C19.6074 30.7671 19.584 30.7144 19.5684 30.6519L18.1855 25.9233C18.1504 25.8101 18.127 25.7222 18.1152 25.6597C18.1074 25.5933 18.1035 25.5386 18.1035 25.4956C18.1035 25.4565 18.1133 25.4233 18.1328 25.396C18.1562 25.3647 18.1953 25.3413 18.25 25.3257C18.3086 25.3062 18.3848 25.2925 18.4785 25.2847C18.5762 25.2769 18.6973 25.2729 18.8418 25.2729C18.998 25.2729 19.125 25.2769 19.2227 25.2847C19.3203 25.2925 19.3965 25.3062 19.4512 25.3257C19.5059 25.3452 19.543 25.3726 19.5625 25.4077C19.5859 25.439 19.6035 25.478 19.6152 25.5249L20.6523 29.3628L20.6641 29.4331L20.6758 29.3628L21.6484 25.5249C21.6602 25.478 21.6777 25.439 21.7012 25.4077C21.7285 25.3726 21.7676 25.3452 21.8184 25.3257C21.8691 25.3062 21.9395 25.2925 22.0293 25.2847C22.123 25.2769 22.2422 25.2729 22.3867 25.2729C22.5312 25.2729 22.6484 25.2788 22.7383 25.2905C22.8281 25.2983 22.8984 25.312 22.9492 25.3315C23.0039 25.3472 23.041 25.3706 23.0605 25.4019C23.084 25.4292 23.1016 25.4624 23.1133 25.5015L24.1562 29.3687L24.1738 29.4331L24.1855 29.3628L25.1816 25.5249C25.1895 25.478 25.2051 25.439 25.2285 25.4077C25.252 25.3726 25.291 25.3452 25.3457 25.3257C25.4004 25.3062 25.4746 25.2925 25.5684 25.2847C25.6621 25.2769 25.7812 25.2729 25.9258 25.2729C26.0703 25.2729 26.1875 25.2769 26.2773 25.2847C26.3711 25.2925 26.4434 25.3062 26.4941 25.3257C26.5488 25.3413 26.5859 25.3647 26.6055 25.396C26.625 25.4233 26.6348 25.4565 26.6348 25.4956ZM29.6582 28.4487C29.6543 28.4878 29.6426 28.5229 29.623 28.5542C29.6035 28.5854 29.5684 28.6128 29.5176 28.6362C29.4707 28.6558 29.4043 28.6714 29.3184 28.6831C29.2363 28.6948 29.1348 28.7007 29.0137 28.7007C28.8887 28.7007 28.7852 28.6948 28.7031 28.6831C28.6211 28.6714 28.5547 28.6558 28.5039 28.6362C28.457 28.6128 28.4238 28.5854 28.4043 28.5542C28.3848 28.5229 28.373 28.4878 28.3691 28.4487L28.2168 23.1284C28.2168 23.0776 28.2285 23.0327 28.252 22.9937C28.2754 22.9546 28.3164 22.9233 28.375 22.8999C28.4375 22.8726 28.5195 22.853 28.6211 22.8413C28.7266 22.8296 28.8574 22.8237 29.0137 22.8237C29.1699 22.8237 29.2988 22.8315 29.4004 22.8472C29.502 22.8589 29.582 22.8784 29.6406 22.9058C29.7031 22.9292 29.7461 22.9604 29.7695 22.9995C29.7969 23.0347 29.8105 23.0776 29.8105 23.1284L29.6582 28.4487ZM29.8398 30.1655C29.8398 30.3257 29.8262 30.4604 29.7988 30.5698C29.7754 30.6792 29.7305 30.7671 29.6641 30.8335C29.6016 30.8999 29.5176 30.9468 29.4121 30.9741C29.3066 31.0054 29.1738 31.021 29.0137 31.021C28.8535 31.021 28.7188 31.0054 28.6094 30.9741C28.5039 30.9468 28.4199 30.8999 28.3574 30.8335C28.2949 30.7671 28.25 30.6792 28.2227 30.5698C28.1992 30.4604 28.1875 30.3257 28.1875 30.1655C28.1875 30.0015 28.1992 29.8647 28.2227 29.7554C28.25 29.6421 28.2949 29.5522 28.3574 29.4858C28.4199 29.4155 28.5039 29.3667 28.6094 29.3394C28.7188 29.3081 28.8535 29.2925 29.0137 29.2925C29.1738 29.2925 29.3066 29.3081 29.4121 29.3394C29.5176 29.3667 29.6016 29.4155 29.6641 29.4858C29.7305 29.5522 29.7754 29.6421 29.7988 29.7554C29.8262 29.8647 29.8398 30.0015 29.8398 30.1655Z" fill="#FBFBFB"/>
</g>
<defs>
<linearGradient id="paint0_linear_224_16177" x1="17.5" y1="-13.3175" x2="17.4992" y2="55.9608" gradientUnits="userSpaceOnUse">
<stop stop-color="#870016"/>
<stop offset="0.337555" stop-color="#9F0026"/>
<stop offset="0.841425" stop-color="#CC3345"/>
</linearGradient>
<clipPath id="clip0_224_16177">
<rect width="35" height="60" fill="white"/>
</clipPath>
</defs>
</svg>
