<svg width="72" height="72" viewBox="0 0 72 72" fill="none" xmlns="http://www.w3.org/2000/svg">
<g clip-path="url(#clip0_194_16653)">
<circle cx="36.0005" cy="36" r="35.939" fill="#EAE6F2"/>
<path d="M46.0563 19.1154L25.0761 19.0883C24.4725 19.0883 23.9775 19.5765 23.9775 20.1868V51.6029C23.9775 52.2064 24.4658 52.7014 25.0761 52.7014H48.3279C48.9314 52.7014 49.4264 52.2132 49.4264 51.6029L49.4061 22.4788L46.0563 19.1154Z" fill="#FAFBFC"/>
<path d="M38.1433 53.3727H25.0832C24.1068 53.3727 23.3066 52.5794 23.3066 51.5961V20.18C23.3066 19.2036 24.1 18.4034 25.0832 18.4034H45.2091C45.3922 18.4034 45.5617 18.478 45.6905 18.6069L49.9083 22.8721C50.0371 23.0009 50.1049 23.1704 50.1049 23.3467V37.1527C50.1049 37.5257 49.7998 37.8308 49.4268 37.8308C49.0539 37.8308 48.7487 37.5257 48.7487 37.1527V23.6248L44.9243 19.7528H25.0832C24.8527 19.7528 24.6628 19.9427 24.6628 20.1733V51.5894C24.6628 51.8199 24.8527 52.0098 25.0832 52.0098H38.1433C38.5163 52.0098 38.8214 52.3149 38.8214 52.6879C38.8214 53.0608 38.5163 53.366 38.1433 53.366V53.3727Z" fill="#6A509B"/>
<path d="M41.6222 29.5716H28.7113C28.3383 29.5716 28.0332 29.2665 28.0332 28.8935C28.0332 28.5206 28.3383 28.2155 28.7113 28.2155H41.6222C41.9952 28.2155 42.3003 28.5206 42.3003 28.8935C42.3003 29.2665 41.9952 29.5716 41.6222 29.5716Z" fill="#6A509B"/>
<path d="M39.7498 34.047H28.6088C28.2358 34.047 27.9307 33.7419 27.9307 33.369C27.9307 32.996 28.2358 32.6909 28.6088 32.6909H39.7498C40.1228 32.6909 40.4279 32.996 40.4279 33.369C40.4279 33.7419 40.1228 34.047 39.7498 34.047Z" fill="#6A509B"/>
<path d="M39.7498 38.414H28.6088C28.2358 38.414 27.9307 38.1088 27.9307 37.7359C27.9307 37.3629 28.2358 37.0578 28.6088 37.0578H39.7498C40.1228 37.0578 40.4279 37.3629 40.4279 37.7359C40.4279 38.1088 40.1228 38.414 39.7498 38.414Z" fill="#6A509B"/>
<path d="M36.4068 42.9098H28.6088C28.2358 42.9098 27.9307 42.6046 27.9307 42.2317C27.9307 41.8587 28.2358 41.5536 28.6088 41.5536H36.4068C36.7798 41.5536 37.0849 41.8587 37.0849 42.2317C37.0849 42.6046 36.7798 42.9098 36.4068 42.9098Z" fill="#6A509B"/>
<path d="M49.3384 24.3571H44.8968C44.5239 24.3571 44.2188 24.052 44.2188 23.679V19.1222C44.2188 18.8442 44.3883 18.6001 44.6392 18.4916C44.8968 18.3899 45.1884 18.4509 45.3783 18.6476L49.8198 23.2043C50.0097 23.401 50.0639 23.6926 49.9622 23.9435C49.8537 24.1944 49.6096 24.3571 49.3384 24.3571ZM45.5749 23.0009H47.7313L45.5749 20.7903V23.0009Z" fill="#6A509B"/>
<path d="M47.9485 55.8002C52.3189 55.8002 55.8619 52.2573 55.8619 47.8869C55.8619 43.5164 52.3189 39.9735 47.9485 39.9735C43.5781 39.9735 40.0352 43.5164 40.0352 47.8869C40.0352 52.2573 43.5781 55.8002 47.9485 55.8002Z" fill="#FAFBFC"/>
<g style="mix-blend-mode:multiply" opacity="0.18">
<path d="M55.8615 47.8869C55.8615 52.2606 52.3151 55.8002 47.9482 55.8002C47.4532 55.8002 46.965 55.7528 46.4971 55.6646C50.1723 54.9865 52.9525 51.7656 52.9525 47.8869C52.9525 44.0082 50.1723 40.7872 46.4971 40.1091C46.965 40.021 47.4532 39.9735 47.9482 39.9735C52.3151 39.9735 55.8615 43.5132 55.8615 47.8869Z" fill="#FAFBFC"/>
</g>
<path d="M47.9479 56.4784C43.208 56.4784 39.3564 52.6269 39.3564 47.887C39.3564 43.1471 43.208 39.2955 47.9479 39.2955C52.6878 39.2955 56.5393 43.1471 56.5393 47.887C56.5393 52.6269 52.6878 56.4784 47.9479 56.4784ZM47.9479 40.6517C43.9607 40.6517 40.7126 43.8998 40.7126 47.887C40.7126 51.8742 43.9607 55.1222 47.9479 55.1222C51.9351 55.1222 55.1832 51.8742 55.1832 47.887C55.1832 43.8998 51.9351 40.6517 47.9479 40.6517Z" fill="#CD0000"/>
<path d="M54.6929 43.2882L53.2832 41.8785L41.8859 53.2758L43.2955 54.6855L54.6929 43.2882Z" fill="#CD0000"/>
<g style="mix-blend-mode:multiply" opacity="0.1">
<path d="M55.8615 47.8869C55.8615 52.2606 52.3151 55.8003 47.9482 55.8003C47.4532 55.8003 46.965 55.7528 46.4971 55.6647C50.1723 54.9866 52.9525 51.7656 52.9525 47.8869C52.9525 44.0082 50.1723 40.7873 46.4971 40.1092C46.965 40.021 47.4532 39.9736 47.9482 39.9736C52.3151 39.9736 55.8615 43.5132 55.8615 47.8869Z" fill="#CD0000"/>
</g>
<g style="mix-blend-mode:multiply" opacity="0.1">
<path d="M46.6193 24.1265H48.7349V39.3972H46.6193C46.4294 39.3972 46.2734 39.2412 46.2734 39.0514V24.4724C46.2734 24.2825 46.4294 24.1265 46.6193 24.1265Z" fill="#6A509B"/>
</g>
</g>
<defs>
<clipPath id="clip0_194_16653">
<rect width="72" height="72" fill="white"/>
</clipPath>
</defs>
</svg>
