<svg width="458" height="469" viewBox="0 0 458 469" fill="none" xmlns="http://www.w3.org/2000/svg">
<path opacity="0.4" d="M165.137 126.566C184.197 94.7999 198.286 58.0962 269.224 56.4833C340.162 54.8703 323.901 139.322 351.914 142.152C351.914 142.152 410.228 146.876 398.115 206.836C385.984 266.813 298.06 265.365 220.522 229.369C184.444 212.614 131.923 181.917 165.137 126.566Z" fill="#B8DFDE"/>
<path d="M203.407 406.435C229.041 406.435 249.821 404.018 249.821 401.036C249.821 398.055 229.041 395.638 203.407 395.638C177.773 395.638 156.992 398.055 156.992 401.036C156.992 404.018 177.773 406.435 203.407 406.435Z" fill="#DECFE2"/>
<path d="M325.45 406.435C351.084 406.435 371.864 404.018 371.864 401.036C371.864 398.055 351.084 395.638 325.45 395.638C299.816 395.638 279.035 398.055 279.035 401.036C279.035 404.018 299.816 406.435 325.45 406.435Z" fill="#DECFE2"/>
<path d="M176.326 196.023C176.326 196.023 160.164 178.214 187.551 130.746C187.535 130.746 214.627 178.889 176.326 196.023Z" fill="#B4DBC6"/>
<path d="M182.7 223.641C182.7 223.641 160.76 233.5 124.105 192.748C124.105 192.748 178.272 181.901 182.7 223.641Z" fill="#B4DBC6"/>
<path d="M166.766 175.433C166.766 175.433 148.085 190.558 102.23 160.554C102.214 160.554 151.822 136.227 166.766 175.433Z" fill="#B4DBC6"/>
<path d="M157.433 156.439C157.433 156.439 122.968 151.879 117.931 115.966C117.372 112.016 115.956 107.407 112.5 99.5068C112.5 99.5068 121.503 103.622 130.128 108.592C144.677 116.953 166.42 132.408 157.433 156.439Z" fill="#B4DBC6"/>
<path d="M190.039 248.165C184.492 225.846 177.546 203.84 168.708 182.608C164.198 172.14 159.326 161.607 154.026 151.517C151.014 145.888 147.805 140.407 144.332 135.009L144.546 134.844C147.969 138.679 151.031 142.843 153.878 147.139C160.939 157.87 166.502 169.639 170.996 181.67C177.448 198.442 182.714 215.642 186.961 233.088C188.179 238.075 189.315 243.062 190.302 248.099C190.319 248.099 190.039 248.165 190.039 248.165Z" fill="#B4DBC6"/>
<path fill-rule="evenodd" clip-rule="evenodd" d="M321.255 171.482C316.876 172.404 312.745 170.659 311.099 165.738L308.137 140.588L313.223 141.971L318.457 160.273L321.255 171.482Z" fill="#FFA6AB"/>
<path d="M313.221 141.955L311.147 137.84C310.735 137.017 310.027 136.375 309.188 136.013L305.732 134.581C304.53 134.087 303.197 134.943 303.164 136.243L306.077 141.263C306.719 142.366 307.822 143.255 309.172 143.749L311.41 144.555L313.221 141.955Z" fill="#FFA6AB"/>
<path fill-rule="evenodd" clip-rule="evenodd" d="M333.185 194.327C326.717 193.208 312.117 173.408 311.607 170.675C311.048 167.598 307.18 149.838 307.18 149.838L316.874 148.653C316.874 148.653 322.322 163.466 323.54 164.635C324.758 165.787 334.502 177.72 334.502 177.72L333.185 194.327Z" fill="#7DB7C5"/>
<path d="M240.651 401.02C294.537 401.02 338.22 397.542 338.22 393.251C338.22 388.961 294.537 385.482 240.651 385.482C186.765 385.482 143.082 388.961 143.082 393.251C143.082 397.542 186.765 401.02 240.651 401.02Z" fill="#DECFE2"/>
<path d="M305.633 358.26L305.616 247.342H305.6C305.962 237.796 299.576 228.168 286.408 220.843C260.897 206.672 219.651 206.606 194.287 220.679C182.601 227.164 176.33 235.541 175.475 244.067H175.458V244.149C175.326 245.482 175.326 246.816 175.458 248.149V358.424C175.458 377.55 191.785 393.054 211.964 393.103L268.945 393.252C289.19 393.301 305.633 377.764 305.633 358.572V358.26Z" fill="#FAE6FF"/>
<path d="M187.769 225.896C183.358 229.353 179.935 234.06 177.697 239.179C176.034 243.014 175.096 247.145 174.866 251.326C175.425 286.252 175.82 322.116 175.359 357.026C174.273 322.478 173.944 286.927 173.895 252.346V251.819V251.556C174.01 250.025 174.191 248.528 174.487 247.03C176.1 238.685 180.824 230.851 187.769 225.896Z" fill="#383838"/>
<path d="M301.812 218.522C301.812 218.522 314.963 227.377 316.033 245.729L315.951 254.963" stroke="#2D4973" stroke-width="1.14626" stroke-miterlimit="10" stroke-linecap="round"/>
<path d="M283.162 224.349H194.267C189.329 224.349 185.297 220.316 185.297 215.379V201.718C185.297 196.78 189.329 192.748 194.267 192.748H283.162C288.1 192.748 292.132 196.78 292.132 201.718V215.379C292.132 220.316 288.1 224.349 283.162 224.349Z" fill="#9242A5"/>
<path d="M226.219 224.349C243.303 223.444 260.421 223.444 277.505 224.349C260.421 225.271 243.303 225.255 226.219 224.349Z" fill="#383838"/>
<path opacity="0.37" d="M223.732 208.005H196.36C194.994 208.005 193.875 206.886 193.875 205.52V201.734C193.875 200.368 194.994 199.249 196.36 199.249H223.732C225.098 199.249 226.217 200.368 226.217 201.734V205.52C226.217 206.886 225.098 208.005 223.732 208.005Z" fill="#FAE6FF"/>
<path d="M232.887 393.169C244.589 392.626 256.719 392.543 268.438 392.609C269.113 392.609 270.71 392.642 271.368 392.576C276.865 392.181 282.363 390.914 287.317 388.445C289.654 387.277 291.826 385.795 293.736 383.968C292.04 385.993 289.917 387.655 287.629 389.005C283.004 391.671 277.754 393.119 272.454 393.728C271.779 393.811 271.105 393.86 270.43 393.877H268.455C256.703 393.893 244.589 393.778 232.887 393.169Z" fill="#383838"/>
<path d="M299.484 168.272C314.46 153.295 314.46 129.014 299.484 114.038C284.507 99.0616 260.226 99.0616 245.25 114.038C230.273 129.014 230.273 153.295 245.25 168.272C260.226 183.248 284.507 183.248 299.484 168.272Z" fill="#FFCCAB"/>
<path d="M291.164 159.615C301.242 149.536 301.242 133.196 291.164 123.118C281.086 113.039 264.745 113.039 254.667 123.118C244.588 133.196 244.588 149.536 254.667 159.615C264.745 169.693 281.085 169.693 291.164 159.615Z" fill="#F9A56E"/>
<path d="M266.233 152.209C263.863 150.826 261.954 148.44 261.016 146.168L263.517 144.638C264.521 146.843 265.953 148.933 268.323 150.02C271.187 151.353 273.36 150.415 274.479 148.012C277.392 141.724 265.937 138.07 269.443 130.499C271.039 127.043 274.446 125.611 278.051 126.664L279.861 122.747L282.182 123.817L280.404 127.652C282.758 129.067 283.828 131.026 284.552 133.149L281.968 134.252C281.178 132.195 280.355 130.812 278.265 129.841C275.895 128.738 273.706 129.512 272.652 131.767C270.052 137.396 281.589 140.852 277.738 149.197C276.026 152.884 272.52 154.365 268.603 153.163L266.793 157.081L264.472 156.011L266.233 152.209Z" fill="white"/>
<path fill-rule="evenodd" clip-rule="evenodd" d="M261.294 112.823C259.845 114.337 257.919 115.933 255.928 116.378C255.072 116.575 254.71 117.579 255.204 118.304C256.158 119.703 257.294 121.776 257.755 124.13C257.952 125.134 259.187 125.496 259.895 124.755C261.014 123.57 262.643 122.254 264.882 121.381C265.639 121.085 265.902 120.163 265.441 119.505C264.602 118.336 263.598 116.394 263.466 113.629C263.4 112.526 262.067 112.016 261.294 112.823Z" fill="white"/>
<path d="M344.769 401.579C345.526 401.579 346.003 400.954 345.822 400.197L307.835 240.61C307.654 239.853 306.88 239.228 306.123 239.228C305.366 239.228 304.889 239.853 305.07 240.61L343.057 400.197C343.238 400.954 344.012 401.579 344.769 401.579Z" fill="#383838"/>
<path d="M318.37 401.579C319.127 401.579 319.605 400.954 319.424 400.197L281.436 240.61C281.255 239.853 280.482 239.228 279.725 239.228C278.967 239.228 278.49 239.853 278.671 240.61L316.659 400.197C316.84 400.954 317.613 401.579 318.37 401.579Z" fill="#383838"/>
<path d="M286.802 266.039H311.128C311.902 266.039 312.461 265.413 312.395 264.64C312.33 263.866 311.638 263.241 310.865 263.241H286.538C285.765 263.241 285.205 263.866 285.271 264.64C285.353 265.413 286.028 266.039 286.802 266.039Z" fill="#383838"/>
<path d="M291.329 282.449H315.655C316.429 282.449 316.989 281.824 316.923 281.05C316.857 280.277 316.166 279.651 315.392 279.651H291.066C290.292 279.651 289.732 280.277 289.798 281.05C289.881 281.807 290.555 282.449 291.329 282.449Z" fill="#383838"/>
<path d="M295.259 298.842H319.585C320.359 298.842 320.918 298.217 320.852 297.443C320.787 296.669 320.095 296.044 319.322 296.044H294.995C294.222 296.044 293.662 296.669 293.728 297.443C293.794 298.217 294.485 298.842 295.259 298.842Z" fill="#383838"/>
<path d="M298.489 315.252H322.816C323.589 315.252 324.149 314.627 324.083 313.853C324.017 313.08 323.326 312.454 322.552 312.454H298.226C297.452 312.454 296.893 313.08 296.958 313.853C297.041 314.61 297.716 315.252 298.489 315.252Z" fill="#383838"/>
<path d="M301.891 331.645H326.218C326.991 331.645 327.551 331.019 327.485 330.246C327.419 329.472 326.728 328.847 325.955 328.847H301.628C300.854 328.847 300.295 329.472 300.361 330.246C300.443 331.019 301.134 331.645 301.891 331.645Z" fill="#383838"/>
<path d="M306.423 348.054H330.749C331.523 348.054 332.082 347.429 332.016 346.655C331.951 345.882 331.259 345.256 330.486 345.256H306.159C305.386 345.256 304.826 345.882 304.892 346.655C304.974 347.412 305.666 348.054 306.423 348.054Z" fill="#383838"/>
<path d="M309.86 364.447H334.187C334.96 364.447 335.52 363.822 335.454 363.048C335.388 362.275 334.697 361.649 333.923 361.649H309.597C308.823 361.649 308.264 362.275 308.329 363.048C308.412 363.822 309.087 364.447 309.86 364.447Z" fill="#383838"/>
<path fill-rule="evenodd" clip-rule="evenodd" d="M325.742 340.73C325.742 340.73 331.24 303.944 324.146 289.395L328.03 239.507L304.773 241.104L319.093 341.092L325.742 340.73Z" fill="#FFA6AB"/>
<path fill-rule="evenodd" clip-rule="evenodd" d="M286.721 184.946C283.314 187.843 278.854 188.304 275.052 184.782L260.387 164.126L265.522 162.891L278.903 176.437L286.721 184.946Z" fill="#FFA6AB"/>
<path d="M265.519 162.908L261.717 160.291C260.96 159.764 260.038 159.533 259.117 159.632L255.397 160.027C254.097 160.175 253.356 161.558 253.932 162.726L258.886 165.738C259.989 166.397 261.372 166.644 262.787 166.43L265.141 166.068L265.519 162.908Z" fill="#FFA6AB"/>
<path fill-rule="evenodd" clip-rule="evenodd" d="M309.93 170.38C309.93 170.38 311.296 174.824 312.431 178.511C312.728 179.498 313.633 180.239 314.785 180.453C315.937 180.667 317.172 180.321 317.995 179.548C318.258 179.301 318.538 179.054 318.785 178.824C319.92 177.77 320.282 176.273 319.706 174.972C318.225 171.664 315.526 165.624 315.526 165.624L309.93 170.38Z" fill="#FFA6AB"/>
<path fill-rule="evenodd" clip-rule="evenodd" d="M310.438 172.865L311.491 175.466L313.779 172.372L310.438 172.865Z" fill="#873B24"/>
<path fill-rule="evenodd" clip-rule="evenodd" d="M317.054 164.323C317.285 162.99 316.379 161.706 315.063 161.492C313.647 161.245 311.87 160.949 310.454 160.702C309.137 160.471 308.067 161.426 307.656 162.71C307.146 164.224 306.85 167.516 306.915 169.919C306.948 171.285 307.771 172.668 309.104 172.898C310.52 173.145 314.98 172.503 315.82 170.018C316.429 168.108 316.708 166.282 317.054 164.323Z" fill="#FFA6AB"/>
<path fill-rule="evenodd" clip-rule="evenodd" d="M315.591 171.384C319.344 170.495 321.434 166.413 319.838 162.907C319.492 162.15 319.097 161.508 318.669 161.08C315.986 158.43 312.332 156.949 308.316 160.274C308.316 160.274 308.909 166.347 315.591 171.384Z" fill="black"/>
<path fill-rule="evenodd" clip-rule="evenodd" d="M313.549 168.52C313.006 169.491 311.919 169.902 311.129 169.458C310.339 168.997 310.125 167.845 310.685 166.874C311.228 165.903 312.314 165.491 313.104 165.935C313.894 166.38 314.092 167.548 313.549 168.52Z" fill="#FFA6AB"/>
<path fill-rule="evenodd" clip-rule="evenodd" d="M342.945 294.135L364.474 334.081C368.654 335.595 370.794 331.843 369.625 327.958C364.688 311.104 364.967 302.151 351.076 287.124L342.945 294.135Z" fill="#FFA6AB"/>
<path fill-rule="evenodd" clip-rule="evenodd" d="M322.238 245.532L334.928 287.14C335.455 289.099 336.623 291.897 337.562 293.691L358.037 329.95L368.817 323.761C366.118 306.414 362.431 298.233 352.655 280.408L346.433 241.121L335.438 241.565L322.238 245.532Z" fill="#383838"/>
<path fill-rule="evenodd" clip-rule="evenodd" d="M328.755 243.573L341.132 284.145C341.659 286.103 342.828 288.901 343.766 290.695L364.01 326.527L358.052 329.95L337.577 293.691C336.656 291.897 335.47 289.099 334.944 287.14L322.254 245.532L328.755 243.573Z" fill="#070707"/>
<path fill-rule="evenodd" clip-rule="evenodd" d="M364.26 333.999L364.095 339.71C364.194 340.928 362.449 345.833 362.449 345.833C362.959 346.854 363.98 346.426 364.589 345.866L373.279 334.114C373.279 334.114 376.703 330.032 369.724 328.419C369.033 331.234 366.284 334.674 364.26 333.999Z" fill="#383838"/>
<path fill-rule="evenodd" clip-rule="evenodd" d="M338.04 214.786L306.257 217.206C301.089 219.098 303.146 248.906 303.146 248.906L324.049 249.877C334.024 249.712 346.006 251.21 346.45 241.104C347.273 222.588 338.04 214.786 338.04 214.786Z" fill="#383838"/>
<path fill-rule="evenodd" clip-rule="evenodd" d="M306.719 178.593L318.026 175.4L321.203 175.021L333.877 177.292C333.877 177.292 336.098 177.72 339.588 188.073L342.353 196.286C346.533 206.26 346.632 221.765 349.052 232.298C333.037 241.351 307.18 244.527 300.563 237.582C299.247 226.241 296.169 208.4 297.074 198.475C297.897 189.538 303.839 185.719 306.719 178.593Z" fill="#7DB7C5"/>
<path fill-rule="evenodd" clip-rule="evenodd" d="M318.847 339.496L315.654 342.656C314.748 343.479 309.794 345.109 309.794 345.109C309.3 346.146 310.271 346.689 311.078 346.821L325.694 346.508C325.694 346.508 329.068 345.8 326.072 339.299C323.422 340.467 319.538 341.521 318.847 339.496Z" fill="#383838"/>
<path fill-rule="evenodd" clip-rule="evenodd" d="M303.145 248.906L308.527 291.156L315.604 333.505H332.623C332.623 333.505 331.026 326.148 331.224 323.811C331.405 321.473 332.03 299.303 326.846 289.115L327.257 247.589L303.145 248.906Z" fill="#383838"/>
<path d="M334.88 249.893L327.457 250.14" stroke="#070707" stroke-width="1.15213" stroke-miterlimit="10"/>
<path fill-rule="evenodd" clip-rule="evenodd" d="M312.114 195.842C305.909 197.965 279.624 191.019 277.88 188.863C275.921 186.427 263.988 172.7 263.988 172.7L271.938 167.005C271.938 167.005 283.821 177.391 285.451 177.819C287.08 178.247 308.839 177.984 308.839 177.984L312.114 195.842Z" fill="#7DB7C5"/>
<path d="M273.429 374.143H209.074V388.791H273.429V374.143Z" fill="#F9A56E"/>
<path d="M271.058 374.143H247.176V388.791H271.058V374.143Z" fill="#D98753"/>
<path d="M244.956 374.143H234.949V388.791H244.956V374.143Z" fill="#F5B57B"/>
<path d="M220.15 374.143H214.652V388.791H220.15V374.143Z" fill="#F9B589"/>
<path d="M273.429 386.602H209.074V388.775H273.429V386.602Z" fill="#BD4C48"/>
<path d="M273.429 359.89H209.074V374.538H273.429V359.89Z" fill="#F9A56E"/>
<path d="M271.058 359.89H247.176V374.538H271.058V359.89Z" fill="#D98753"/>
<path d="M244.956 359.89H234.949V374.538H244.956V359.89Z" fill="#F5B57B"/>
<path d="M220.15 359.89H214.652V374.538H220.15V359.89Z" fill="#F9B589"/>
<path d="M273.429 372.366H209.074V374.538H273.429V372.366Z" fill="#BD4C48"/>
<path d="M269.132 345.652H204.777V360.301H269.132V345.652Z" fill="#F9A56E"/>
<path d="M266.761 345.652H242.879V360.301H266.761V345.652Z" fill="#D98753"/>
<path d="M240.659 345.652H230.652V360.301H240.659V345.652Z" fill="#F5B57B"/>
<path d="M215.853 345.652H210.355V360.301H215.853V345.652Z" fill="#F9B589"/>
<path d="M269.132 358.112H204.777V360.284H269.132V358.112Z" fill="#BD4C48"/>
<path d="M272.089 332.007H207.734V346.656H272.089V332.007Z" fill="#F9A56E"/>
<path d="M269.718 332.007H245.836V346.656H269.718V332.007Z" fill="#D98753"/>
<path d="M243.601 332.007H233.594V346.656H243.601V332.007Z" fill="#F5B57B"/>
<path d="M218.81 332.007H213.312V346.656H218.81V332.007Z" fill="#F9B589"/>
<path d="M272.089 344.483H207.734V346.655H272.089V344.483Z" fill="#BD4C48"/>
<path d="M272.089 317.77H207.734V332.419H272.089V317.77Z" fill="#F9A56E"/>
<path d="M269.718 317.77H245.836V332.419H269.718V317.77Z" fill="#D98753"/>
<path d="M243.601 317.77H233.594V332.419H243.601V317.77Z" fill="#F5B57B"/>
<path d="M218.81 317.77H213.312V332.419H218.81V317.77Z" fill="#F9B589"/>
<path d="M272.089 330.229H207.734V332.402H272.089V330.229Z" fill="#BD4C48"/>
<path d="M267.796 303.516H203.441V318.165H267.796V303.516Z" fill="#F9A56E"/>
<path d="M265.425 303.516H241.543V318.165H265.425V303.516Z" fill="#D98753"/>
<path d="M239.308 303.516H229.301V318.165H239.308V303.516Z" fill="#F5B57B"/>
<path d="M214.517 303.516H209.02V318.165H214.517V303.516Z" fill="#F9B589"/>
<path d="M267.796 315.976H203.441V318.148H267.796V315.976Z" fill="#BD4C48"/>
<path d="M138.128 288.21L142.473 287.65C143.345 287.535 144.217 287.749 144.958 288.226L147.921 290.185C148.958 290.86 148.991 292.374 147.987 293.098L142.489 293.477C141.271 293.559 139.987 293.164 138.901 292.358L137.074 291.024L138.128 288.21Z" fill="#FFA6AB"/>
<path fill-rule="evenodd" clip-rule="evenodd" d="M130.097 266.237C132.566 266.352 132.912 262.221 131.644 260.098L122.921 243.639C120.551 239.261 116.123 236.907 113.589 238.701C112.601 239.409 112.683 241.285 113.77 242.931L127.381 269.94L130.097 266.237Z" fill="#C95836"/>
<path fill-rule="evenodd" clip-rule="evenodd" d="M81.6401 242.717C81.7224 241.927 81.3768 241.154 80.8501 240.561C76.472 235.788 83.9938 231.212 86.117 229.254C88.3389 227.213 85.0307 223.329 89.9848 221.024C94.9555 218.72 96.9305 221.238 97.161 221.123C97.5066 220.959 97.0951 226.193 97.0951 226.193C97.0951 226.193 94.6098 227.312 95.2353 232.463C95.8607 237.615 97.5231 240.133 94.8073 244.544C92.0751 248.955 78.875 245.137 78.875 245.137C80.9653 244.89 81.5414 243.721 81.6401 242.717Z" fill="#663D24"/>
<path d="M101.589 403.439C122.915 403.439 140.202 402.15 140.202 400.559C140.202 398.968 122.915 397.679 101.589 397.679C80.2641 397.679 62.9766 398.968 62.9766 400.559C62.9766 402.15 80.2641 403.439 101.589 403.439Z" fill="#DECFE2"/>
<path fill-rule="evenodd" clip-rule="evenodd" d="M109.059 395.539C109.059 395.539 103.842 360.613 110.574 346.787L106.887 299.402L128.975 300.933L114.112 395.819L109.059 395.539Z" fill="#FFA6AB"/>
<path fill-rule="evenodd" clip-rule="evenodd" d="M114.262 394.173L118.64 397.366C119.496 398.156 124.203 399.687 124.203 399.687C124.664 400.675 123.759 401.185 122.985 401.317L109.11 401.02C109.11 401.02 105.901 400.362 108.748 394.173C111.283 395.293 113.604 396.083 114.262 394.173Z" fill="#4A2C1A"/>
<path fill-rule="evenodd" clip-rule="evenodd" d="M130.523 308.323L125.421 348.45L118.706 388.676H102.543C102.543 388.676 104.057 381.68 103.876 379.458C103.695 377.236 103.103 356.185 108.04 346.507L107.645 307.055L130.523 308.323Z" fill="#DC8020"/>
<path fill-rule="evenodd" clip-rule="evenodd" d="M107.911 346.524L107.516 307.072L115.186 307.5L115.466 336.385C115.515 341.767 114.775 347.182 113.458 352.499C110.841 363.016 111.269 377.665 111.417 379.491C111.598 381.713 110.084 388.709 110.084 388.709H102.414C102.414 388.709 103.928 381.713 103.747 379.491C103.583 377.253 102.99 356.202 107.911 346.524Z" fill="#AF5D14"/>
<path fill-rule="evenodd" clip-rule="evenodd" d="M87.3695 395.473C87.3695 395.473 83.6662 360.119 91.0234 346.129L89.4104 298.167L111.433 299.715L92.406 395.753L87.3695 395.473Z" fill="#FFA6AB"/>
<path fill-rule="evenodd" clip-rule="evenodd" d="M92.6334 394.091L96.8798 397.317C97.7028 398.123 102.344 399.67 102.344 399.67C102.772 400.658 101.834 401.185 101.044 401.316L87.1854 401.02C87.1854 401.02 84.0088 400.345 87.1196 394.091C89.5885 395.226 91.8927 396.033 92.6334 394.091Z" fill="#4A2C1A"/>
<path fill-rule="evenodd" clip-rule="evenodd" d="M112.631 307.204L105.768 347.825L97.2917 388.544H81.1289C81.1289 388.544 82.9394 381.467 82.8571 379.212C82.7748 376.974 83.104 355.659 88.4532 345.866L89.128 302.102L112.631 307.204Z" fill="#DC8020"/>
<path fill-rule="evenodd" clip-rule="evenodd" d="M97.3933 275.915L127.579 278.219C132.484 280.03 130.525 308.339 130.525 308.339L110.676 309.261C101.459 309.064 90.5463 316.305 89.3942 300.933C88.0939 283.355 97.3933 275.915 97.3933 275.915Z" fill="#DC8020"/>
<path fill-rule="evenodd" clip-rule="evenodd" d="M89.1317 302.743C89.1317 302.743 109.162 304.9 115.68 296.11L88.819 293.806C88.819 293.806 88.7202 300.505 89.1317 302.743Z" fill="#AF5D14"/>
<path fill-rule="evenodd" clip-rule="evenodd" d="M115.746 238.059L108.8 236.578L99.698 237.039L88.7034 242.405C85.066 244.775 83.7986 249.482 85.7572 253.366L90.1189 266.171C88.3084 276.425 87.6006 283.552 89.3124 293.691C106.298 297.806 128.617 294.86 132.879 286.778C129.604 266.468 125.226 250.256 115.746 238.059Z" fill="#823395"/>
<path fill-rule="evenodd" clip-rule="evenodd" d="M104.519 230.29C104.519 230.29 104.519 234.685 104.519 238.339C104.519 239.31 104.009 240.199 103.17 240.676C102.33 241.153 101.31 241.137 100.487 240.626C100.223 240.462 99.9601 240.297 99.7132 240.149C98.5775 239.458 97.9521 238.174 98.0837 236.841C98.4294 233.45 99.0713 227.262 99.0713 227.262L104.519 230.29Z" fill="#FFA6AB"/>
<path fill-rule="evenodd" clip-rule="evenodd" d="M104.734 232.694L104.52 235.327L102.035 233.056L104.734 232.694Z" fill="#873B24"/>
<path d="M108.801 236.578C108.801 236.578 113.475 245.087 107.385 246.206C101.295 247.326 96.8516 238.438 96.8516 238.438L101.098 235.919L108.801 236.578Z" fill="#FFA6AB"/>
<path fill-rule="evenodd" clip-rule="evenodd" d="M96.8305 226.571C96.3367 225.386 96.8799 224.02 98.0649 223.51C99.3158 222.983 100.912 222.308 102.163 221.781C103.332 221.288 104.517 221.946 105.192 223.032C105.982 224.333 106.969 227.295 107.43 229.55C107.693 230.817 107.233 232.282 106.048 232.776C104.797 233.303 100.517 233.681 99.2171 231.558C98.2131 229.945 97.5547 228.316 96.8305 226.571Z" fill="#FFA6AB"/>
<path fill-rule="evenodd" clip-rule="evenodd" d="M93.6428 232.792C93.6428 232.792 93.2149 226.192 94.6303 223.921C96.5396 220.892 99.601 218.736 104.028 220.942C104.028 220.942 102.893 226.406 95.2393 232.463L93.6428 232.792Z" fill="#663D24"/>
<path fill-rule="evenodd" clip-rule="evenodd" d="M97.4887 231.854C98.1965 232.628 99.2992 232.792 99.9411 232.2C100.583 231.607 100.517 230.488 99.8094 229.715C99.1017 228.941 97.999 228.776 97.357 229.369C96.7151 229.961 96.781 231.064 97.4887 231.854Z" fill="#FFA6AB"/>
<path fill-rule="evenodd" clip-rule="evenodd" d="M106.573 228.858L104.516 229.681C104.516 229.681 105.108 231.097 106.063 230.57C107.001 230.06 106.573 228.858 106.573 228.858Z" fill="white"/>
<path d="M96.9975 221.271C96.9975 221.271 94.183 221.287 93.8867 225.287" stroke="#8B939C" stroke-width="0.510065" stroke-miterlimit="10" stroke-linecap="round" stroke-linejoin="round"/>
<path d="M160.825 276.985H107.859V291.288H160.825V276.985Z" fill="#F9A56E"/>
<path d="M158.851 276.985H145.059V291.288H158.851V276.985Z" fill="#D98753"/>
<path d="M142.885 276.985H133.125V291.288H142.885V276.985Z" fill="#F5B57B"/>
<path d="M118.674 276.985H113.309V291.288H118.674V276.985Z" fill="#F9B589"/>
<path d="M160.825 289.165H107.859V291.288H160.825V289.165Z" fill="#BD4C48"/>
<path d="M160.825 263.077H107.859V277.38H160.825V263.077Z" fill="#F9A56E"/>
<path d="M158.851 263.077H145.059V277.38H158.851V263.077Z" fill="#D98753"/>
<path d="M142.885 263.077H133.125V277.38H142.885V263.077Z" fill="#F5B57B"/>
<path d="M118.674 263.077H113.309V277.38H118.674V263.077Z" fill="#F9B589"/>
<path d="M160.825 275.24H107.859V277.363H160.825V275.24Z" fill="#BD4C48"/>
<path d="M157.266 249.17H103.676V263.473H157.266V249.17Z" fill="#F9A56E"/>
<path d="M155.293 249.17H140.875V263.473H155.293V249.17Z" fill="#D98753"/>
<path d="M138.686 249.17H128.926V263.473H138.686V249.17Z" fill="#F5B57B"/>
<path d="M114.491 249.17H109.125V263.473H114.491V249.17Z" fill="#F9B589"/>
<path d="M157.266 261.333H103.676V263.456H157.266V261.333Z" fill="#BD4C48"/>
<path d="M165.485 235.295H111.895V249.598H165.485V235.295Z" fill="#F9A56E"/>
<path d="M163.512 235.295H149.094V249.598H163.512V235.295Z" fill="#D98753"/>
<path d="M146.92 235.295H137.16V249.598H146.92V235.295Z" fill="#F5B57B"/>
<path d="M122.709 235.295H117.344V249.598H122.709V235.295Z" fill="#F9B589"/>
<path d="M165.485 247.474H111.895V249.597H165.485V247.474Z" fill="#BD4C48"/>
<path fill-rule="evenodd" clip-rule="evenodd" d="M99.9616 268.986C97.4433 272.393 97.2952 276.656 100.9 280.03L121.441 292.555L124.025 288.704L108.537 275.833L99.9616 268.986Z" fill="#FFA6AB"/>
<path d="M120.964 288.786L125.309 288.226C126.181 288.111 127.053 288.325 127.794 288.802L130.757 290.761C131.794 291.436 131.826 292.95 130.822 293.674L125.325 294.053C124.107 294.135 122.823 293.74 121.737 292.934L119.91 291.601L120.964 288.786Z" fill="#FFA6AB"/>
<path fill-rule="evenodd" clip-rule="evenodd" d="M105.146 273.133L94.9912 251.737C92.6375 246.815 87.9467 245.038 85.1322 248C84.0295 249.169 84.013 251.539 85.1158 253.333L98.283 276.409L105.146 273.133Z" fill="#FFA6AB"/>
<path fill-rule="evenodd" clip-rule="evenodd" d="M86.4666 244.874C86.4666 244.874 82.5987 248.791 83.9319 253.811C85.2651 258.831 95.6837 278.121 95.6837 278.121L105.789 272.508C105.789 272.508 100.391 258.633 97.8563 252.313C97.1321 250.503 96.6547 249.317 96.5889 249.235C96.3256 248.89 86.4666 244.874 86.4666 244.874Z" fill="#823395"/>
<path d="M220.772 395.198C233.383 382.587 233.383 362.141 220.772 349.53C208.161 336.919 187.715 336.919 175.104 349.53C162.493 362.141 162.493 382.587 175.104 395.198C187.715 407.809 208.161 407.809 220.772 395.198Z" fill="#F5B57B"/>
<path d="M213.994 395.197C226.605 382.586 226.605 362.14 213.994 349.529C201.384 336.918 180.937 336.918 168.326 349.529C155.715 362.14 155.715 382.586 168.326 395.197C180.937 407.808 201.384 407.808 213.994 395.197Z" fill="#FFCCAB"/>
<path d="M206.97 387.527C215.454 379.043 215.454 365.287 206.97 356.802C198.486 348.318 184.73 348.318 176.245 356.802C167.761 365.287 167.761 379.043 176.245 387.527C184.73 396.011 198.486 396.011 206.97 387.527Z" fill="#F9A56E"/>
<path d="M194.158 382.586C191.919 383.195 189.368 382.916 187.459 382.142L188.018 379.739C189.944 380.447 192.034 380.809 194.092 380.035C196.577 379.097 197.318 377.254 196.528 375.163C194.487 369.699 185.517 374.406 183.048 367.839C181.929 364.844 183.064 361.947 185.829 360.416L184.546 357.009L186.57 356.252L187.821 359.593C190.059 359.017 191.87 359.527 193.565 360.367L192.709 362.572C191.014 361.832 189.697 361.502 187.87 362.194C185.813 362.967 184.974 364.745 185.714 366.687C187.541 371.575 196.445 366.703 199.161 373.945C200.363 377.155 199.178 380.134 196.133 381.763L197.417 385.17L195.392 385.928L194.158 382.586Z" fill="white"/>
<path fill-rule="evenodd" clip-rule="evenodd" d="M167.627 362.26C167.676 364.021 167.495 366.111 166.59 367.576C166.195 368.201 166.59 369.008 167.314 369.139C168.713 369.403 170.622 369.946 172.318 371.049C173.042 371.526 173.98 370.999 173.964 370.143C173.914 368.777 174.095 367.016 174.885 365.173C175.149 364.547 174.754 363.84 174.095 363.724C172.894 363.543 171.149 362.984 169.404 361.437C168.697 360.811 167.61 361.321 167.627 362.26Z" fill="white"/>
<path d="M104.518 267.899C101.901 262.698 99.4985 257.415 97.293 252.033C99.91 257.217 102.329 262.517 104.518 267.899Z" fill="#42194C"/>
<path d="M237.688 277.298C237.688 277.298 234.248 255.572 260.83 254.798C260.83 254.782 259.661 274.039 237.688 277.298Z" fill="#61C691"/>
<path d="M239.845 303.155C239.829 296.851 239.236 290.531 238.496 284.26C238.101 281.149 237.426 278.038 237.163 274.911C236.916 271.767 236.652 268.541 236.817 265.365L237.08 265.315C237.245 265.694 237.393 266.056 237.541 266.435C238.825 269.792 239.664 273.331 240.158 276.903C240.438 279.273 240.454 281.692 240.602 284.079C240.668 285.675 240.751 287.272 240.767 288.852C240.816 292.012 240.767 295.254 240.57 298.415C240.471 300.011 240.339 301.591 240.125 303.171C240.109 303.171 239.845 303.155 239.845 303.155Z" fill="#61C691"/>
<path d="M215.559 255.549C216.414 247.221 210.355 239.776 202.027 238.922C193.698 238.067 186.254 244.125 185.399 252.454C184.544 260.782 190.603 268.227 198.931 269.081C207.26 269.936 214.704 263.878 215.559 255.549Z" fill="#F9EDFC"/>
<path d="M227.514 236.927C227.621 233.337 224.798 230.341 221.209 230.235C217.619 230.128 214.624 232.952 214.517 236.541C214.411 240.13 217.234 243.126 220.823 243.232C224.412 243.339 227.408 240.516 227.514 236.927Z" fill="#F9EDFC"/>
<path d="M280.598 165.772C280.598 165.772 301.896 159.32 298.324 136.343" stroke="#F58520" stroke-width="0.970276" stroke-miterlimit="10" stroke-linecap="round" stroke-linejoin="round"/>
<path d="M194.516 393.515C194.516 393.515 213.526 390.849 213.098 371.229" stroke="#F58520" stroke-width="1.08039" stroke-miterlimit="10" stroke-linecap="round" stroke-linejoin="round"/>
<path d="M163.195 388.527C163.195 388.527 148.629 361.502 175.227 344.269" stroke="#F58520" stroke-width="1.08039" stroke-miterlimit="10" stroke-linecap="round" stroke-linejoin="round"/>
<path d="M198.699 68.1199C201.629 67.9059 204.773 68.4491 207.192 70.2102C208.69 71.2965 209.76 72.9589 210.122 74.7529L209.332 74.7694C209.398 74.4896 209.463 74.2427 209.546 73.9958C210.83 70.0456 214.22 67.5603 218.417 68.1199C217.413 68.1528 216.426 68.3174 215.504 68.6137C212.936 69.4366 211.093 71.708 210.319 74.2262C210.253 74.4566 210.188 74.6871 210.138 74.901C210.056 75.329 209.431 75.329 209.348 74.9175C209.315 74.7694 209.217 74.4566 209.184 74.3085C209.134 74.1933 209.019 73.8477 208.97 73.716L208.805 73.3374C207.027 69.6341 202.501 68.4326 198.699 68.1199Z" fill="#202A30"/>
<path d="M357.145 164.405C360.667 164.01 364.946 165.442 365.72 169.293L364.913 169.31C364.963 169.096 365.012 168.914 365.078 168.717C366.032 165.771 368.633 163.894 371.76 164.388C368.616 164.536 366.46 166.413 365.72 169.441C365.637 169.869 365.012 169.869 364.913 169.458C364.173 165.935 360.338 164.734 357.145 164.405Z" fill="#202A30"/>
<path d="M238.347 277.314C238.347 277.314 227.353 281.264 211.141 260.163C211.141 260.163 237.755 256.954 238.347 277.314Z" fill="#61C691"/>
<path d="M417.633 189.06C416.316 188.138 414.489 187.974 413.04 188.649C413.139 185.9 412.464 182.97 410.522 181.012C408.597 179.037 405.239 178.362 403 179.975C401.108 176.65 397.24 174.576 393.421 174.823C389.603 175.07 386.031 177.654 384.599 181.193C378.312 179.267 371.844 183.365 369.819 189.373C368.223 189.192 366.527 189.011 365.062 189.686C363.598 190.344 362.528 192.171 363.235 193.603C363.466 194.08 363.861 194.442 364.272 194.771C367.268 197.158 371.317 197.602 375.135 197.866C377.654 198.047 380.221 198.195 382.707 197.734C385.192 197.273 387.644 196.138 389.224 194.146C390.311 195.792 392.549 196.154 394.508 196.335C400.466 196.895 406.523 197.273 412.448 196.187C414.472 195.808 417.089 195.693 418.604 194.113C420.299 192.368 419.443 190.344 417.633 189.06Z" fill="white"/>
<path d="M369.8 189.373C368.203 189.192 366.508 189.011 365.043 189.685C363.578 190.344 362.508 192.171 363.216 193.603C363.446 194.08 363.841 194.442 364.253 194.771C367.248 197.158 371.297 197.602 375.116 197.866C377.634 198.047 380.202 198.195 382.687 197.734C385.172 197.273 387.625 196.137 389.205 194.146C390.291 195.792 392.529 196.154 394.488 196.335C400.446 196.894 406.503 197.273 412.428 196.187C414.453 195.808 417.07 195.693 418.584 194.113C420.279 192.368 419.424 190.344 417.613 189.06C416.296 188.138 414.469 187.974 413.021 188.648C413.103 186.443 412.675 184.122 411.507 182.279C411.836 183.398 411.869 184.6 411.474 185.702C410.618 188.089 408.05 188.945 405.894 187.809C404.001 186.805 402.8 184.748 402.586 182.624C402.125 186.739 398.603 190.294 394.488 190.788C390.39 191.282 386.11 188.665 384.679 184.797C384.333 186.805 383.033 188.616 381.255 189.603C379.477 190.591 377.239 190.706 375.363 189.932C374.408 189.537 373.486 188.862 373.108 187.908C372.548 186.558 373.157 184.995 373.997 183.793C374.227 183.48 374.457 183.168 374.721 182.871C372.482 184.418 370.705 186.706 369.8 189.373Z" fill="#F5FBFF"/>
<path d="M195.302 85.9283C191.286 87.1298 187.648 90.1253 186.628 93.9274C184.34 93.0221 181.772 92.5119 179.402 93.2196C177.049 93.9274 175.008 96.1164 175.106 98.5853C173 98.1409 170.86 97.68 168.72 97.894C166.663 98.0915 164.425 99.0461 163.207 100.774C162.828 101.317 162.598 101.992 162.713 102.651C161.067 101.531 158.878 101.268 156.936 101.499C155.816 101.63 154.681 101.959 153.825 102.684C152.969 103.408 152.442 104.609 152.755 105.696C153.282 107.588 155.701 108.066 157.66 108.197C161.297 108.444 164.918 108.675 168.556 108.922C178.629 109.58 188.751 110.255 198.791 109.136C199.614 109.037 200.569 108.839 200.914 108.099C201.227 107.407 200.799 106.551 200.157 106.14C199.515 105.729 198.725 105.646 197.952 105.564C202.544 105.564 207.136 105.58 211.744 105.58C215.415 105.58 219.101 105.597 222.772 105.547C226.64 105.498 230.59 105.399 234.211 104.05C234.919 103.786 235.692 103.375 235.824 102.634C235.955 101.926 235.379 101.235 234.688 100.988C234.013 100.741 233.256 100.824 232.548 100.922C234.375 100.84 235.017 98.0586 233.799 96.709C232.565 95.3429 230.458 95.2441 228.681 95.6885C226.903 96.1329 225.241 97.0052 223.43 97.2686C222.097 94.7503 219.414 92.8905 216.55 92.7423C214.838 92.66 208.831 93.7299 208.337 95.8695C209.292 91.7712 206.444 87.3438 202.478 85.9283C200.239 85.1383 197.705 85.2206 195.302 85.9283Z" fill="white"/>
<path d="M163.191 100.774C162.812 101.318 162.582 101.992 162.697 102.651C161.051 101.532 158.862 101.268 156.92 101.499C155.801 101.63 154.665 101.96 153.809 102.684C152.953 103.408 152.427 104.609 152.739 105.696C153.266 107.589 155.686 108.066 157.644 108.198C161.282 108.444 164.903 108.675 168.54 108.922C178.613 109.58 188.735 110.255 198.775 109.136C199.598 109.037 200.553 108.839 200.899 108.099C201.211 107.407 200.783 106.552 200.141 106.14C199.5 105.729 198.709 105.646 197.936 105.564C202.528 105.564 207.12 105.581 211.729 105.581C215.399 105.581 219.086 105.597 222.756 105.548C226.624 105.498 230.574 105.399 234.195 104.05C234.903 103.786 235.676 103.375 235.808 102.634C235.94 101.927 235.364 101.235 234.672 100.988C233.998 100.742 233.241 100.824 232.533 100.923C234.36 100.84 235.002 98.0587 233.784 96.7091C232.549 95.343 230.442 95.2442 228.665 95.6886C226.887 96.133 225.225 97.0054 223.414 97.2687C222.855 96.2153 222.065 95.2772 221.127 94.5365C219.991 96.7914 218.181 98.7006 215.959 99.9186C212.881 101.597 208.667 101.762 205.375 100.577C206.774 99.2109 207.844 97.4662 208.42 95.6063C208.387 95.6886 208.354 95.7874 208.322 95.8697C208.684 94.3555 208.503 92.7919 207.959 91.3435C207.4 93.3679 206.61 95.3265 205.293 96.956C203.565 99.0792 200.717 100.511 198.068 99.8528C196.866 99.5565 195.796 98.8652 194.875 98.0423C192.011 95.4418 190.793 91.113 191.879 87.4756C189.361 89.0063 187.353 91.2776 186.645 93.9275C186.645 96.5116 187.731 99.0792 189.624 100.84C185.592 102.108 180.868 102.042 176.885 100.659C178.07 102.239 179.782 103.424 181.691 103.984C177.675 105.399 173.132 105.317 169.166 103.737C168.063 103.293 166.911 102.651 166.516 101.532C166.121 100.396 166.664 99.0957 167.536 98.2727C167.635 98.1904 167.717 98.1081 167.816 98.0258C166.005 98.3879 164.228 99.2932 163.191 100.774Z" fill="#F5FBFF"/>
</svg>
