<svg width="358" height="363" viewBox="0 0 358 363" fill="none" xmlns="http://www.w3.org/2000/svg">
<path opacity="0.4" d="M103.137 70.5658C122.197 38.7999 136.286 2.09625 207.224 0.483262C278.162 -1.12972 261.901 83.3215 289.914 86.1525C289.914 86.1525 348.228 90.8762 336.115 150.836C323.984 210.813 236.06 209.365 158.522 173.369C122.444 156.614 69.9229 125.917 103.137 70.5658Z" fill="#B8DFDE"/>
<path d="M141.407 350.435C167.041 350.435 187.821 348.018 187.821 345.036C187.821 342.055 167.041 339.638 141.407 339.638C115.773 339.638 94.9922 342.055 94.9922 345.036C94.9922 348.018 115.773 350.435 141.407 350.435Z" fill="#DECFE2"/>
<path d="M263.45 350.435C289.084 350.435 309.864 348.018 309.864 345.036C309.864 342.055 289.084 339.638 263.45 339.638C237.816 339.638 217.035 342.055 217.035 345.036C217.035 348.018 237.816 350.435 263.45 350.435Z" fill="#DECFE2"/>
<path d="M114.326 140.023C114.326 140.023 98.1637 122.214 125.551 74.7461C125.535 74.7461 152.627 122.889 114.326 140.023Z" fill="#B4DBC6"/>
<path d="M120.7 167.641C120.7 167.641 98.7597 177.5 62.1055 136.748C62.1055 136.748 116.272 125.901 120.7 167.641Z" fill="#B4DBC6"/>
<path d="M104.766 119.433C104.766 119.433 86.0853 134.558 40.2305 104.554C40.214 104.554 89.8215 80.2272 104.766 119.433Z" fill="#B4DBC6"/>
<path d="M95.4331 100.439C95.4331 100.439 60.9679 95.8794 55.9315 59.9659C55.3719 56.0157 53.9564 51.4072 50.5 43.5068C50.5 43.5068 59.5031 47.6216 68.1276 52.5922C82.6774 60.9534 104.42 76.4084 95.4331 100.439Z" fill="#B4DBC6"/>
<path d="M128.039 192.165C122.492 169.846 115.546 147.84 106.708 126.608C102.198 116.14 97.3262 105.607 92.0264 95.5172C89.0144 89.8882 85.8049 84.4074 82.332 79.0088L82.546 78.8442C85.9695 82.6792 89.0309 86.8433 91.8783 91.1391C98.9392 101.87 104.502 113.639 108.996 125.67C115.448 142.442 120.714 159.642 124.961 177.088C126.179 182.075 127.315 187.062 128.302 192.099C128.319 192.099 128.039 192.165 128.039 192.165Z" fill="#B4DBC6"/>
<path fill-rule="evenodd" clip-rule="evenodd" d="M259.255 115.482C254.876 116.404 250.745 114.659 249.099 109.738L246.137 84.5884L251.223 85.9709L256.457 104.273L259.255 115.482Z" fill="#FFA6AB"/>
<path d="M251.221 85.9547L249.147 81.8399C248.735 81.017 248.027 80.3751 247.188 80.013L243.732 78.5811C242.53 78.0873 241.197 78.9432 241.164 80.2434L244.077 85.2634C244.719 86.3662 245.822 87.255 247.172 87.7487L249.41 88.5552L251.221 85.9547Z" fill="#FFA6AB"/>
<path fill-rule="evenodd" clip-rule="evenodd" d="M271.185 138.327C264.717 137.208 250.117 117.408 249.607 114.675C249.048 111.598 245.18 93.8384 245.18 93.8384L254.874 92.6533C254.874 92.6533 260.322 107.466 261.54 108.635C262.758 109.787 272.502 121.72 272.502 121.72L271.185 138.327Z" fill="#7DB7C5"/>
<path d="M178.651 345.02C232.537 345.02 276.22 341.542 276.22 337.251C276.22 332.961 232.537 329.482 178.651 329.482C124.765 329.482 81.082 332.961 81.082 337.251C81.082 341.542 124.765 345.02 178.651 345.02Z" fill="#DECFE2"/>
<path d="M243.633 302.26L243.616 191.342H243.6C243.962 181.796 237.576 172.168 224.408 164.843C198.897 150.672 157.651 150.606 132.287 164.679C120.601 171.164 114.33 179.541 113.475 188.067H113.458V188.149C113.326 189.482 113.326 190.816 113.458 192.149V302.424C113.458 321.55 129.785 337.054 149.964 337.103L206.945 337.252C227.19 337.301 243.633 321.764 243.633 302.572V302.26Z" fill="#FAE6FF"/>
<path d="M125.769 169.896C121.358 173.353 117.935 178.06 115.697 183.179C114.034 187.014 113.096 191.145 112.866 195.326C113.425 230.252 113.82 266.116 113.359 301.026C112.273 266.478 111.944 230.927 111.895 196.346V195.819V195.556C112.01 194.025 112.191 192.528 112.487 191.03C114.1 182.685 118.824 174.851 125.769 169.896Z" fill="#383838"/>
<path d="M239.812 162.522C239.812 162.522 252.963 171.377 254.033 189.729L253.951 198.963" stroke="#2D4973" stroke-width="1.14626" stroke-miterlimit="10" stroke-linecap="round"/>
<path d="M221.162 168.349H132.267C127.329 168.349 123.297 164.316 123.297 159.379V145.718C123.297 140.78 127.329 136.748 132.267 136.748H221.162C226.1 136.748 230.132 140.78 230.132 145.718V159.379C230.132 164.316 226.1 168.349 221.162 168.349Z" fill="#9242A5"/>
<path d="M164.219 168.349C181.303 167.444 198.421 167.444 215.505 168.349C198.421 169.271 181.303 169.255 164.219 168.349Z" fill="#383838"/>
<path opacity="0.37" d="M161.732 152.005H134.36C132.994 152.005 131.875 150.886 131.875 149.52V145.734C131.875 144.368 132.994 143.249 134.36 143.249H161.732C163.098 143.249 164.217 144.368 164.217 145.734V149.52C164.217 150.886 163.098 152.005 161.732 152.005Z" fill="#FAE6FF"/>
<path d="M170.887 337.169C182.589 336.626 194.719 336.543 206.438 336.609C207.113 336.609 208.71 336.642 209.368 336.576C214.865 336.181 220.363 334.914 225.317 332.445C227.654 331.277 229.826 329.795 231.736 327.968C230.04 329.993 227.917 331.655 225.629 333.005C221.004 335.671 215.754 337.119 210.454 337.728C209.779 337.811 209.105 337.86 208.43 337.877H206.455C194.703 337.893 182.589 337.778 170.887 337.169Z" fill="#383838"/>
<path d="M237.484 112.272C252.46 97.2955 252.46 73.0141 237.484 58.0378C222.507 43.0616 198.226 43.0616 183.25 58.0378C168.273 73.0141 168.273 97.2955 183.25 112.272C198.226 127.248 222.507 127.248 237.484 112.272Z" fill="#FFCCAB"/>
<path d="M229.164 103.615C239.242 93.5364 239.242 77.196 229.164 67.1175C219.086 57.0391 202.745 57.0391 192.667 67.1175C182.588 77.196 182.588 93.5364 192.667 103.615C202.745 113.693 219.085 113.693 229.164 103.615Z" fill="#F9A56E"/>
<path d="M204.233 96.2087C201.863 94.8262 199.954 92.4396 199.016 90.1683L201.517 88.6376C202.521 90.8431 203.953 92.9334 206.323 94.0197C209.187 95.3528 211.36 94.4147 212.479 92.0117C215.392 85.7243 203.937 82.0704 207.443 74.4993C209.039 71.0429 212.446 69.6109 216.051 70.6643L217.861 66.7471L220.182 67.8169L218.404 71.6519C220.758 73.0673 221.828 75.026 222.552 77.1492L219.968 78.2519C219.178 76.1945 218.355 74.812 216.265 73.8409C213.895 72.7382 211.706 73.5117 210.652 75.7666C208.052 81.3956 219.589 84.852 215.738 93.1967C214.026 96.8835 210.52 98.3649 206.603 97.1633L204.793 101.081L202.472 100.011L204.233 96.2087Z" fill="white"/>
<path fill-rule="evenodd" clip-rule="evenodd" d="M199.294 56.8227C197.845 58.3369 195.919 59.9334 193.928 60.3778C193.072 60.5754 192.71 61.5794 193.204 62.3035C194.158 63.7026 195.294 65.7764 195.755 68.13C195.952 69.134 197.187 69.4961 197.895 68.7555C199.014 67.5704 200.643 66.2537 202.882 65.3814C203.639 65.0851 203.902 64.1634 203.441 63.5051C202.602 62.3365 201.598 60.3943 201.466 57.6292C201.4 56.5264 200.067 56.0162 199.294 56.8227Z" fill="white"/>
<path d="M282.769 345.579C283.526 345.579 284.003 344.954 283.822 344.197L245.835 184.61C245.654 183.853 244.88 183.228 244.123 183.228C243.366 183.228 242.889 183.853 243.07 184.61L281.057 344.197C281.238 344.954 282.012 345.579 282.769 345.579Z" fill="#383838"/>
<path d="M256.37 345.579C257.127 345.579 257.605 344.954 257.424 344.197L219.436 184.61C219.255 183.853 218.482 183.228 217.725 183.228C216.967 183.228 216.49 183.853 216.671 184.61L254.659 344.197C254.84 344.954 255.613 345.579 256.37 345.579Z" fill="#383838"/>
<path d="M224.802 210.039H249.128C249.902 210.039 250.461 209.413 250.395 208.64C250.33 207.866 249.638 207.241 248.865 207.241H224.538C223.765 207.241 223.205 207.866 223.271 208.64C223.353 209.413 224.028 210.039 224.802 210.039Z" fill="#383838"/>
<path d="M229.329 226.449H253.655C254.429 226.449 254.989 225.824 254.923 225.05C254.857 224.277 254.166 223.651 253.392 223.651H229.066C228.292 223.651 227.732 224.277 227.798 225.05C227.881 225.807 228.555 226.449 229.329 226.449Z" fill="#383838"/>
<path d="M233.259 242.842H257.585C258.359 242.842 258.918 242.217 258.852 241.443C258.787 240.669 258.095 240.044 257.322 240.044H232.995C232.222 240.044 231.662 240.669 231.728 241.443C231.794 242.217 232.485 242.842 233.259 242.842Z" fill="#383838"/>
<path d="M236.489 259.252H260.816C261.589 259.252 262.149 258.627 262.083 257.853C262.017 257.08 261.326 256.454 260.552 256.454H236.226C235.452 256.454 234.893 257.08 234.958 257.853C235.041 258.61 235.716 259.252 236.489 259.252Z" fill="#383838"/>
<path d="M239.891 275.645H264.218C264.991 275.645 265.551 275.019 265.485 274.246C265.419 273.472 264.728 272.847 263.955 272.847H239.628C238.854 272.847 238.295 273.472 238.361 274.246C238.443 275.019 239.134 275.645 239.891 275.645Z" fill="#383838"/>
<path d="M244.423 292.054H268.749C269.523 292.054 270.082 291.429 270.016 290.655C269.951 289.882 269.259 289.256 268.486 289.256H244.159C243.386 289.256 242.826 289.882 242.892 290.655C242.974 291.412 243.666 292.054 244.423 292.054Z" fill="#383838"/>
<path d="M247.86 308.447H272.187C272.96 308.447 273.52 307.822 273.454 307.048C273.388 306.275 272.697 305.649 271.923 305.649H247.597C246.823 305.649 246.264 306.275 246.329 307.048C246.412 307.822 247.087 308.447 247.86 308.447Z" fill="#383838"/>
<path fill-rule="evenodd" clip-rule="evenodd" d="M263.742 284.73C263.742 284.73 269.24 247.944 262.146 233.395L266.03 183.507L242.773 185.104L257.093 285.092L263.742 284.73Z" fill="#FFA6AB"/>
<path fill-rule="evenodd" clip-rule="evenodd" d="M224.721 128.946C221.314 131.843 216.854 132.304 213.052 128.782L198.387 108.126L203.522 106.891L216.903 120.437L224.721 128.946Z" fill="#FFA6AB"/>
<path d="M203.519 106.908L199.717 104.291C198.96 103.764 198.038 103.533 197.117 103.632L193.397 104.027C192.097 104.175 191.356 105.558 191.932 106.726L196.886 109.738C197.989 110.397 199.372 110.644 200.787 110.43L203.141 110.068L203.519 106.908Z" fill="#FFA6AB"/>
<path fill-rule="evenodd" clip-rule="evenodd" d="M247.93 114.38C247.93 114.38 249.296 118.824 250.431 122.511C250.728 123.498 251.633 124.239 252.785 124.453C253.937 124.667 255.172 124.321 255.995 123.548C256.258 123.301 256.538 123.054 256.785 122.824C257.92 121.77 258.282 120.273 257.706 118.972C256.225 115.664 253.526 109.624 253.526 109.624L247.93 114.38Z" fill="#FFA6AB"/>
<path fill-rule="evenodd" clip-rule="evenodd" d="M248.438 116.865L249.491 119.466L251.779 116.372L248.438 116.865Z" fill="#873B24"/>
<path fill-rule="evenodd" clip-rule="evenodd" d="M255.054 108.323C255.285 106.99 254.379 105.706 253.063 105.492C251.647 105.245 249.87 104.949 248.454 104.702C247.137 104.471 246.067 105.426 245.656 106.71C245.146 108.224 244.85 111.516 244.915 113.919C244.948 115.285 245.771 116.668 247.104 116.898C248.52 117.145 252.98 116.503 253.82 114.018C254.429 112.108 254.708 110.282 255.054 108.323Z" fill="#FFA6AB"/>
<path fill-rule="evenodd" clip-rule="evenodd" d="M253.591 115.384C257.344 114.495 259.434 110.413 257.838 106.907C257.492 106.15 257.097 105.508 256.669 105.08C253.986 102.43 250.332 100.949 246.316 104.274C246.316 104.274 246.909 110.347 253.591 115.384Z" fill="black"/>
<path fill-rule="evenodd" clip-rule="evenodd" d="M251.549 112.52C251.006 113.491 249.919 113.902 249.129 113.458C248.339 112.997 248.125 111.845 248.685 110.874C249.228 109.903 250.314 109.491 251.104 109.935C251.894 110.38 252.092 111.548 251.549 112.52Z" fill="#FFA6AB"/>
<path fill-rule="evenodd" clip-rule="evenodd" d="M280.945 238.135L302.474 278.081C306.654 279.595 308.794 275.843 307.625 271.958C302.688 255.104 302.967 246.151 289.076 231.124L280.945 238.135Z" fill="#FFA6AB"/>
<path fill-rule="evenodd" clip-rule="evenodd" d="M260.238 189.532L272.928 231.14C273.455 233.099 274.623 235.897 275.562 237.691L296.037 273.95L306.817 267.761C304.118 250.414 300.431 242.233 290.655 224.408L284.433 185.121L273.438 185.565L260.238 189.532Z" fill="#383838"/>
<path fill-rule="evenodd" clip-rule="evenodd" d="M266.755 187.573L279.132 228.145C279.659 230.103 280.828 232.901 281.766 234.695L302.01 270.527L296.052 273.95L275.577 237.691C274.656 235.897 273.47 233.099 272.944 231.14L260.254 189.532L266.755 187.573Z" fill="#070707"/>
<path fill-rule="evenodd" clip-rule="evenodd" d="M302.26 277.999L302.095 283.71C302.194 284.928 300.449 289.833 300.449 289.833C300.959 290.854 301.98 290.426 302.589 289.866L311.279 278.114C311.279 278.114 314.703 274.032 307.724 272.419C307.033 275.234 304.284 278.674 302.26 277.999Z" fill="#383838"/>
<path fill-rule="evenodd" clip-rule="evenodd" d="M276.04 158.786L244.257 161.206C239.089 163.098 241.146 192.906 241.146 192.906L262.049 193.877C272.024 193.712 284.006 195.21 284.45 185.104C285.273 166.588 276.04 158.786 276.04 158.786Z" fill="#383838"/>
<path fill-rule="evenodd" clip-rule="evenodd" d="M244.719 122.593L256.026 119.4L259.203 119.021L271.877 121.292C271.877 121.292 274.098 121.72 277.588 132.073L280.353 140.286C284.533 150.26 284.632 165.765 287.052 176.298C271.037 185.351 245.18 188.527 238.563 181.582C237.247 170.241 234.169 152.4 235.074 142.475C235.897 133.538 241.839 129.719 244.719 122.593Z" fill="#7DB7C5"/>
<path fill-rule="evenodd" clip-rule="evenodd" d="M256.847 283.496L253.654 286.656C252.748 287.479 247.794 289.109 247.794 289.109C247.3 290.146 248.271 290.689 249.078 290.821L263.694 290.508C263.694 290.508 267.068 289.8 264.072 283.299C261.422 284.467 257.538 285.521 256.847 283.496Z" fill="#383838"/>
<path fill-rule="evenodd" clip-rule="evenodd" d="M241.145 192.906L246.527 235.156L253.604 277.505H270.623C270.623 277.505 269.026 270.148 269.224 267.811C269.405 265.473 270.03 243.303 264.846 233.115L265.257 191.589L241.145 192.906Z" fill="#383838"/>
<path d="M272.88 193.893L265.457 194.14" stroke="#070707" stroke-width="1.15213" stroke-miterlimit="10"/>
<path fill-rule="evenodd" clip-rule="evenodd" d="M250.114 139.842C243.909 141.965 217.624 135.019 215.88 132.863C213.921 130.427 201.988 116.7 201.988 116.7L209.938 111.005C209.938 111.005 221.821 121.391 223.451 121.819C225.08 122.247 246.839 121.984 246.839 121.984L250.114 139.842Z" fill="#7DB7C5"/>
<path d="M211.429 318.143H147.074V332.791H211.429V318.143Z" fill="#F9A56E"/>
<path d="M209.058 318.143H185.176V332.791H209.058V318.143Z" fill="#D98753"/>
<path d="M182.956 318.143H172.949V332.791H182.956V318.143Z" fill="#F5B57B"/>
<path d="M158.15 318.143H152.652V332.791H158.15V318.143Z" fill="#F9B589"/>
<path d="M211.429 330.602H147.074V332.775H211.429V330.602Z" fill="#BD4C48"/>
<path d="M211.429 303.89H147.074V318.538H211.429V303.89Z" fill="#F9A56E"/>
<path d="M209.058 303.89H185.176V318.538H209.058V303.89Z" fill="#D98753"/>
<path d="M182.956 303.89H172.949V318.538H182.956V303.89Z" fill="#F5B57B"/>
<path d="M158.15 303.89H152.652V318.538H158.15V303.89Z" fill="#F9B589"/>
<path d="M211.429 316.366H147.074V318.538H211.429V316.366Z" fill="#BD4C48"/>
<path d="M207.132 289.652H142.777V304.301H207.132V289.652Z" fill="#F9A56E"/>
<path d="M204.761 289.652H180.879V304.301H204.761V289.652Z" fill="#D98753"/>
<path d="M178.659 289.652H168.652V304.301H178.659V289.652Z" fill="#F5B57B"/>
<path d="M153.853 289.652H148.355V304.301H153.853V289.652Z" fill="#F9B589"/>
<path d="M207.132 302.112H142.777V304.284H207.132V302.112Z" fill="#BD4C48"/>
<path d="M210.089 276.007H145.734V290.656H210.089V276.007Z" fill="#F9A56E"/>
<path d="M207.718 276.007H183.836V290.656H207.718V276.007Z" fill="#D98753"/>
<path d="M181.601 276.007H171.594V290.656H181.601V276.007Z" fill="#F5B57B"/>
<path d="M156.81 276.007H151.312V290.656H156.81V276.007Z" fill="#F9B589"/>
<path d="M210.089 288.483H145.734V290.655H210.089V288.483Z" fill="#BD4C48"/>
<path d="M210.089 261.77H145.734V276.419H210.089V261.77Z" fill="#F9A56E"/>
<path d="M207.718 261.77H183.836V276.419H207.718V261.77Z" fill="#D98753"/>
<path d="M181.601 261.77H171.594V276.419H181.601V261.77Z" fill="#F5B57B"/>
<path d="M156.81 261.77H151.312V276.419H156.81V261.77Z" fill="#F9B589"/>
<path d="M210.089 274.229H145.734V276.402H210.089V274.229Z" fill="#BD4C48"/>
<path d="M205.796 247.516H141.441V262.165H205.796V247.516Z" fill="#F9A56E"/>
<path d="M203.425 247.516H179.543V262.165H203.425V247.516Z" fill="#D98753"/>
<path d="M177.308 247.516H167.301V262.165H177.308V247.516Z" fill="#F5B57B"/>
<path d="M152.517 247.516H147.02V262.165H152.517V247.516Z" fill="#F9B589"/>
<path d="M205.796 259.976H141.441V262.148H205.796V259.976Z" fill="#BD4C48"/>
<path d="M76.1276 232.21L80.4728 231.65C81.3451 231.535 82.2174 231.749 82.9581 232.226L85.9207 234.185C86.9576 234.86 86.9906 236.374 85.9865 237.098L80.4892 237.477C79.2713 237.559 77.9875 237.164 76.9012 236.358L75.0742 235.024L76.1276 232.21Z" fill="#FFA6AB"/>
<path fill-rule="evenodd" clip-rule="evenodd" d="M68.0971 210.237C70.566 210.352 70.9116 206.221 69.6443 204.098L60.921 187.639C58.5509 183.261 54.1234 180.907 51.5887 182.701C50.6012 183.409 50.6835 185.285 51.7698 186.931L65.3814 213.94L68.0971 210.237Z" fill="#C95836"/>
<path fill-rule="evenodd" clip-rule="evenodd" d="M19.6401 186.717C19.7224 185.927 19.3768 185.154 18.8501 184.561C14.472 179.788 21.9938 175.212 24.117 173.254C26.3389 171.213 23.0307 167.329 27.9848 165.024C32.9555 162.72 34.9305 165.238 35.161 165.123C35.5066 164.959 35.0951 170.193 35.0951 170.193C35.0951 170.193 32.6098 171.312 33.2353 176.463C33.8607 181.615 35.5231 184.133 32.8073 188.544C30.0751 192.955 16.875 189.137 16.875 189.137C18.9653 188.89 19.5414 187.721 19.6401 186.717Z" fill="#663D24"/>
<path d="M39.5894 347.439C60.9147 347.439 78.2023 346.15 78.2023 344.559C78.2023 342.968 60.9147 341.679 39.5894 341.679C18.2641 341.679 0.976562 342.968 0.976562 344.559C0.976562 346.15 18.2641 347.439 39.5894 347.439Z" fill="#DECFE2"/>
<path fill-rule="evenodd" clip-rule="evenodd" d="M47.0593 339.539C47.0593 339.539 41.8418 304.613 48.5735 290.787L44.8867 243.402L66.9747 244.933L52.1122 339.819L47.0593 339.539Z" fill="#FFA6AB"/>
<path fill-rule="evenodd" clip-rule="evenodd" d="M52.2621 338.173L56.6402 341.366C57.4961 342.156 62.2033 343.687 62.2033 343.687C62.6642 344.675 61.759 345.185 60.9854 345.317L47.1104 345.02C47.1104 345.02 43.9009 344.362 46.7483 338.173C49.283 339.293 51.6037 340.083 52.2621 338.173Z" fill="#4A2C1A"/>
<path fill-rule="evenodd" clip-rule="evenodd" d="M68.5233 252.323L63.421 292.45L56.7057 332.676H40.543C40.543 332.676 42.0572 325.68 41.8761 323.458C41.6951 321.236 41.1026 300.185 46.0403 290.507L45.6453 251.055L68.5233 252.323Z" fill="#DC8020"/>
<path fill-rule="evenodd" clip-rule="evenodd" d="M45.9114 290.524L45.5164 251.072L53.1863 251.5L53.4661 280.385C53.5155 285.767 52.7748 291.182 51.4581 296.499C48.8411 307.016 49.269 321.665 49.4171 323.491C49.5982 325.713 48.084 332.709 48.084 332.709H40.4141C40.4141 332.709 41.9283 325.713 41.7472 323.491C41.5827 321.253 40.9901 300.202 45.9114 290.524Z" fill="#AF5D14"/>
<path fill-rule="evenodd" clip-rule="evenodd" d="M25.3695 339.473C25.3695 339.473 21.6662 304.119 29.0234 290.129L27.4104 242.167L49.4326 243.715L30.406 339.753L25.3695 339.473Z" fill="#FFA6AB"/>
<path fill-rule="evenodd" clip-rule="evenodd" d="M30.6334 338.091L34.8798 341.317C35.7028 342.123 40.3442 343.67 40.3442 343.67C40.7721 344.658 39.834 345.185 39.0439 345.316L25.1854 345.02C25.1854 345.02 22.0088 344.345 25.1196 338.091C27.5885 339.226 29.8927 340.033 30.6334 338.091Z" fill="#4A2C1A"/>
<path fill-rule="evenodd" clip-rule="evenodd" d="M50.6315 251.204L43.7681 291.825L35.2917 332.544H19.1289C19.1289 332.544 20.9394 325.467 20.8571 323.212C20.7748 320.974 21.104 299.659 26.4532 289.866L27.128 246.102L50.6315 251.204Z" fill="#DC8020"/>
<path fill-rule="evenodd" clip-rule="evenodd" d="M35.3933 219.915L65.5791 222.219C70.4839 224.03 68.5253 252.339 68.5253 252.339L48.6757 253.261C39.4587 253.064 28.5463 260.305 27.3942 244.933C26.0939 227.355 35.3933 219.915 35.3933 219.915Z" fill="#DC8020"/>
<path fill-rule="evenodd" clip-rule="evenodd" d="M27.1317 246.743C27.1317 246.743 47.1623 248.9 53.6801 240.11L26.819 237.806C26.819 237.806 26.7202 244.505 27.1317 246.743Z" fill="#AF5D14"/>
<path fill-rule="evenodd" clip-rule="evenodd" d="M53.7456 182.059L46.7999 180.578L37.698 181.039L26.7034 186.405C23.066 188.775 21.7986 193.482 23.7572 197.366L28.1189 210.171C26.3084 220.425 25.6006 227.552 27.3124 237.691C44.2981 241.806 66.6165 238.86 70.8794 230.778C67.6041 210.468 63.226 194.256 53.7456 182.059Z" fill="#823395"/>
<path fill-rule="evenodd" clip-rule="evenodd" d="M42.5192 174.29C42.5192 174.29 42.5192 178.685 42.5192 182.339C42.5192 183.31 42.009 184.199 41.1696 184.676C40.3302 185.153 39.3097 185.137 38.4868 184.626C38.2234 184.462 37.9601 184.297 37.7132 184.149C36.5775 183.458 35.9521 182.174 36.0837 180.841C36.4294 177.45 37.0713 171.262 37.0713 171.262L42.5192 174.29Z" fill="#FFA6AB"/>
<path fill-rule="evenodd" clip-rule="evenodd" d="M42.7344 176.694L42.5205 179.327L40.0352 177.056L42.7344 176.694Z" fill="#873B24"/>
<path d="M46.8008 180.578C46.8008 180.578 51.4752 189.087 45.3853 190.206C39.2955 191.326 34.8516 182.438 34.8516 182.438L39.098 179.919L46.8008 180.578Z" fill="#FFA6AB"/>
<path fill-rule="evenodd" clip-rule="evenodd" d="M34.8305 170.571C34.3367 169.386 34.8799 168.02 36.0649 167.51C37.3158 166.983 38.9123 166.308 40.1632 165.781C41.3318 165.288 42.5169 165.946 43.1917 167.032C43.9817 168.333 44.9693 171.295 45.4301 173.55C45.6935 174.817 45.2326 176.282 44.0476 176.776C42.7967 177.303 38.5173 177.681 37.2171 175.558C36.2131 173.945 35.5547 172.316 34.8305 170.571Z" fill="#FFA6AB"/>
<path fill-rule="evenodd" clip-rule="evenodd" d="M31.6428 176.792C31.6428 176.792 31.2149 170.192 32.6303 167.921C34.5396 164.892 37.601 162.736 42.0284 164.942C42.0284 164.942 40.8928 170.406 33.2393 176.463L31.6428 176.792Z" fill="#663D24"/>
<path fill-rule="evenodd" clip-rule="evenodd" d="M35.4887 175.854C36.1965 176.628 37.2992 176.792 37.9411 176.2C38.583 175.607 38.5172 174.488 37.8094 173.715C37.1017 172.941 35.999 172.776 35.357 173.369C34.7151 173.961 34.781 175.064 35.4887 175.854Z" fill="#FFA6AB"/>
<path fill-rule="evenodd" clip-rule="evenodd" d="M44.573 172.858L42.5156 173.681C42.5156 173.681 43.1081 175.097 44.0628 174.57C45.0009 174.06 44.573 172.858 44.573 172.858Z" fill="white"/>
<path d="M34.9975 165.271C34.9975 165.271 32.183 165.287 31.8867 169.287" stroke="#8B939C" stroke-width="0.510065" stroke-miterlimit="10" stroke-linecap="round" stroke-linejoin="round"/>
<path d="M98.8245 220.985H45.8594V235.288H98.8245V220.985Z" fill="#F9A56E"/>
<path d="M96.8513 220.985H83.0586V235.288H96.8513V220.985Z" fill="#D98753"/>
<path d="M80.8852 220.985H71.125V235.288H80.8852V220.985Z" fill="#F5B57B"/>
<path d="M56.6742 220.985H51.3086V235.288H56.6742V220.985Z" fill="#F9B589"/>
<path d="M98.8245 233.165H45.8594V235.288H98.8245V233.165Z" fill="#BD4C48"/>
<path d="M98.8245 207.077H45.8594V221.38H98.8245V207.077Z" fill="#F9A56E"/>
<path d="M96.8513 207.077H83.0586V221.38H96.8513V207.077Z" fill="#D98753"/>
<path d="M80.8852 207.077H71.125V221.38H80.8852V207.077Z" fill="#F5B57B"/>
<path d="M56.6742 207.077H51.3086V221.38H56.6742V207.077Z" fill="#F9B589"/>
<path d="M98.8245 219.24H45.8594V221.363H98.8245V219.24Z" fill="#BD4C48"/>
<path d="M95.2664 193.17H41.6758V207.473H95.2664V193.17Z" fill="#F9A56E"/>
<path d="M93.2931 193.17H78.875V207.473H93.2931V193.17Z" fill="#D98753"/>
<path d="M76.686 193.17H66.9258V207.473H76.686V193.17Z" fill="#F5B57B"/>
<path d="M52.4906 193.17H47.125V207.473H52.4906V193.17Z" fill="#F9B589"/>
<path d="M95.2664 205.333H41.6758V207.456H95.2664V205.333Z" fill="#BD4C48"/>
<path d="M103.485 179.295H49.8945V193.598H103.485V179.295Z" fill="#F9A56E"/>
<path d="M101.512 179.295H87.0938V193.598H101.512V179.295Z" fill="#D98753"/>
<path d="M84.9204 179.295H75.1602V193.598H84.9204V179.295Z" fill="#F5B57B"/>
<path d="M60.7094 179.295H55.3438V193.598H60.7094V179.295Z" fill="#F9B589"/>
<path d="M103.485 191.474H49.8945V193.597H103.485V191.474Z" fill="#BD4C48"/>
<path fill-rule="evenodd" clip-rule="evenodd" d="M37.9616 212.986C35.4433 216.393 35.2952 220.656 38.8997 224.03L59.4406 236.555L62.0246 232.704L46.5367 219.833L37.9616 212.986Z" fill="#FFA6AB"/>
<path d="M58.9635 232.786L63.3087 232.226C64.181 232.111 65.0534 232.325 65.794 232.802L68.7566 234.761C69.7936 235.436 69.8265 236.95 68.8225 237.674L63.3252 238.053C62.1072 238.135 60.8234 237.74 59.7371 236.934L57.9102 235.601L58.9635 232.786Z" fill="#FFA6AB"/>
<path fill-rule="evenodd" clip-rule="evenodd" d="M43.1464 217.133L32.9912 195.737C30.6375 190.815 25.9467 189.038 23.1322 192C22.0295 193.169 22.013 195.539 23.1158 197.333L36.283 220.409L43.1464 217.133Z" fill="#FFA6AB"/>
<path fill-rule="evenodd" clip-rule="evenodd" d="M24.4666 188.874C24.4666 188.874 20.5987 192.791 21.9319 197.811C23.2651 202.831 33.6837 222.121 33.6837 222.121L43.7895 216.508C43.7895 216.508 38.3909 202.633 35.8563 196.313C35.1321 194.503 34.6547 193.317 34.5889 193.235C34.3256 192.89 24.4666 188.874 24.4666 188.874Z" fill="#823395"/>
<path d="M158.772 339.198C171.383 326.587 171.383 306.141 158.772 293.53C146.161 280.919 125.715 280.919 113.104 293.53C100.493 306.141 100.493 326.587 113.104 339.198C125.715 351.809 146.161 351.809 158.772 339.198Z" fill="#F5B57B"/>
<path d="M151.994 339.197C164.605 326.586 164.605 306.14 151.994 293.529C139.384 280.918 118.937 280.918 106.326 293.529C93.7154 306.14 93.7154 326.586 106.326 339.197C118.937 351.808 139.384 351.808 151.994 339.197Z" fill="#FFCCAB"/>
<path d="M144.97 331.527C153.454 323.043 153.454 309.287 144.97 300.802C136.486 292.318 122.73 292.318 114.245 300.802C105.761 309.287 105.761 323.043 114.245 331.527C122.73 340.011 136.486 340.011 144.97 331.527Z" fill="#F9A56E"/>
<path d="M132.158 326.586C129.919 327.195 127.368 326.916 125.459 326.142L126.018 323.739C127.944 324.447 130.034 324.809 132.092 324.035C134.577 323.097 135.318 321.254 134.528 319.163C132.487 313.699 123.517 318.406 121.048 311.839C119.929 308.844 121.064 305.947 123.829 304.416L122.546 301.009L124.57 300.252L125.821 303.593C128.059 303.017 129.87 303.527 131.565 304.367L130.709 306.572C129.014 305.832 127.697 305.502 125.87 306.194C123.813 306.967 122.974 308.745 123.714 310.687C125.541 315.575 134.445 310.703 137.161 317.945C138.363 321.155 137.178 324.134 134.133 325.763L135.417 329.17L133.392 329.928L132.158 326.586Z" fill="white"/>
<path fill-rule="evenodd" clip-rule="evenodd" d="M105.627 306.26C105.676 308.021 105.495 310.111 104.59 311.576C104.195 312.201 104.59 313.008 105.314 313.139C106.713 313.403 108.622 313.946 110.318 315.049C111.042 315.526 111.98 314.999 111.964 314.143C111.914 312.777 112.095 311.016 112.885 309.173C113.149 308.547 112.754 307.84 112.095 307.724C110.894 307.543 109.149 306.984 107.404 305.437C106.697 304.811 105.61 305.321 105.627 306.26Z" fill="white"/>
<path d="M42.5185 211.899C39.9015 206.698 37.4985 201.415 35.293 196.033C37.91 201.217 40.3294 206.517 42.5185 211.899Z" fill="#42194C"/>
<path d="M175.688 221.298C175.688 221.298 172.248 199.572 198.83 198.798C198.83 198.782 197.661 218.039 175.688 221.298Z" fill="#61C691"/>
<path d="M177.845 247.155C177.829 240.851 177.236 234.531 176.496 228.26C176.101 225.149 175.426 222.038 175.163 218.911C174.916 215.767 174.652 212.541 174.817 209.365L175.08 209.315C175.245 209.694 175.393 210.056 175.541 210.435C176.825 213.792 177.664 217.331 178.158 220.903C178.438 223.273 178.454 225.692 178.602 228.079C178.668 229.675 178.751 231.272 178.767 232.852C178.816 236.012 178.767 239.254 178.57 242.415C178.471 244.011 178.339 245.591 178.125 247.171C178.109 247.171 177.845 247.155 177.845 247.155Z" fill="#61C691"/>
<path d="M153.559 199.549C154.414 191.221 148.355 183.776 140.027 182.922C131.698 182.067 124.254 188.125 123.399 196.454C122.544 204.782 128.603 212.227 136.931 213.081C145.26 213.936 152.704 207.878 153.559 199.549Z" fill="#F9EDFC"/>
<path d="M165.514 180.927C165.621 177.337 162.798 174.341 159.209 174.235C155.619 174.128 152.624 176.952 152.517 180.541C152.411 184.13 155.234 187.126 158.823 187.232C162.412 187.339 165.408 184.516 165.514 180.927Z" fill="#F9EDFC"/>
<path d="M218.598 109.772C218.598 109.772 239.896 103.32 236.324 80.3428" stroke="#F58520" stroke-width="0.970276" stroke-miterlimit="10" stroke-linecap="round" stroke-linejoin="round"/>
<path d="M132.516 337.515C132.516 337.515 151.526 334.849 151.098 315.229" stroke="#F58520" stroke-width="1.08039" stroke-miterlimit="10" stroke-linecap="round" stroke-linejoin="round"/>
<path d="M101.195 332.527C101.195 332.527 86.6289 305.502 113.227 288.269" stroke="#F58520" stroke-width="1.08039" stroke-miterlimit="10" stroke-linecap="round" stroke-linejoin="round"/>
<path d="M136.699 12.1199C139.629 11.9059 142.773 12.4491 145.192 14.2102C146.69 15.2965 147.76 16.9589 148.122 18.7529L147.332 18.7694C147.398 18.4896 147.463 18.2427 147.546 17.9958C148.83 14.0456 152.22 11.5603 156.417 12.1199C155.413 12.1528 154.426 12.3174 153.504 12.6137C150.936 13.4366 149.093 15.708 148.319 18.2262C148.253 18.4566 148.188 18.6871 148.138 18.901C148.056 19.329 147.431 19.329 147.348 18.9175C147.315 18.7694 147.217 18.4566 147.184 18.3085C147.134 18.1933 147.019 17.8477 146.97 17.716L146.805 17.3374C145.027 13.6341 140.501 12.4326 136.699 12.1199Z" fill="#202A30"/>
<path d="M295.145 108.405C298.667 108.01 302.946 109.442 303.72 113.293L302.913 113.31C302.963 113.096 303.012 112.914 303.078 112.717C304.032 109.771 306.633 107.894 309.76 108.388C306.616 108.536 304.46 110.413 303.72 113.441C303.637 113.869 303.012 113.869 302.913 113.458C302.173 109.935 298.338 108.734 295.145 108.405Z" fill="#202A30"/>
<path d="M176.347 221.314C176.347 221.314 165.353 225.264 149.141 204.163C149.141 204.163 175.755 200.954 176.347 221.314Z" fill="#61C691"/>
<path d="M355.633 133.06C354.316 132.138 352.489 131.974 351.04 132.649C351.139 129.9 350.464 126.97 348.522 125.012C346.597 123.037 343.239 122.362 341 123.975C339.108 120.65 335.24 118.576 331.421 118.823C327.603 119.07 324.031 121.654 322.599 125.193C316.312 123.267 309.844 127.365 307.819 133.373C306.223 133.192 304.527 133.011 303.062 133.686C301.598 134.344 300.528 136.171 301.235 137.603C301.466 138.08 301.861 138.442 302.272 138.771C305.268 141.158 309.317 141.602 313.135 141.866C315.654 142.047 318.221 142.195 320.707 141.734C323.192 141.273 325.644 140.138 327.224 138.146C328.311 139.792 330.549 140.154 332.508 140.335C338.466 140.895 344.523 141.273 350.448 140.187C352.472 139.808 355.089 139.693 356.604 138.113C358.299 136.368 357.443 134.344 355.633 133.06Z" fill="white"/>
<path d="M307.8 133.373C306.203 133.192 304.508 133.011 303.043 133.685C301.578 134.344 300.508 136.171 301.216 137.603C301.446 138.08 301.841 138.442 302.253 138.771C305.248 141.158 309.297 141.602 313.116 141.866C315.634 142.047 318.202 142.195 320.687 141.734C323.172 141.273 325.625 140.137 327.205 138.146C328.291 139.792 330.529 140.154 332.488 140.335C338.446 140.894 344.503 141.273 350.428 140.187C352.453 139.808 355.07 139.693 356.584 138.113C358.279 136.368 357.424 134.344 355.613 133.06C354.296 132.138 352.469 131.974 351.021 132.648C351.103 130.443 350.675 128.122 349.507 126.279C349.836 127.398 349.869 128.6 349.474 129.702C348.618 132.089 346.05 132.945 343.894 131.809C342.001 130.805 340.8 128.748 340.586 126.624C340.125 130.739 336.603 134.294 332.488 134.788C328.39 135.282 324.11 132.665 322.679 128.797C322.333 130.805 321.033 132.616 319.255 133.603C317.477 134.591 315.239 134.706 313.363 133.932C312.408 133.537 311.486 132.862 311.108 131.908C310.548 130.558 311.157 128.995 311.997 127.793C312.227 127.48 312.457 127.168 312.721 126.871C310.482 128.418 308.705 130.706 307.8 133.373Z" fill="#F5FBFF"/>
<path d="M133.302 29.9283C129.286 31.1298 125.648 34.1253 124.628 37.9274C122.34 37.0221 119.772 36.5119 117.402 37.2196C115.049 37.9274 113.008 40.1164 113.106 42.5853C111 42.1409 108.86 41.68 106.72 41.894C104.663 42.0915 102.425 43.0461 101.207 44.7743C100.828 45.3175 100.598 45.9923 100.713 46.6507C99.0669 45.5314 96.8778 45.2681 94.9357 45.4985C93.8164 45.6302 92.6808 45.9594 91.8249 46.6836C90.969 47.4078 90.4423 48.6093 90.7551 49.6956C91.2817 51.5884 93.7012 52.0657 95.6598 52.1974C99.2973 52.4442 102.918 52.6747 106.556 52.9216C116.629 53.5799 126.751 54.2547 136.791 53.1355C137.614 53.0368 138.569 52.8393 138.914 52.0986C139.227 51.4073 138.799 50.5515 138.157 50.14C137.515 49.7285 136.725 49.6462 135.952 49.5639C140.544 49.5639 145.136 49.5804 149.744 49.5804C153.415 49.5804 157.101 49.5968 160.772 49.5475C164.64 49.4981 168.59 49.3993 172.211 48.0497C172.919 47.7863 173.692 47.3749 173.824 46.6342C173.955 45.9265 173.379 45.2352 172.688 44.9883C172.013 44.7414 171.256 44.8237 170.548 44.9225C172.375 44.8402 173.017 42.0586 171.799 40.709C170.565 39.3429 168.458 39.2441 166.681 39.6885C164.903 40.1329 163.241 41.0052 161.43 41.2686C160.097 38.7503 157.414 36.8905 154.55 36.7423C152.838 36.66 146.831 37.7299 146.337 39.8695C147.292 35.7712 144.444 31.3438 140.478 29.9283C138.239 29.1383 135.705 29.2206 133.302 29.9283Z" fill="white"/>
<path d="M101.191 44.7745C100.812 45.3176 100.582 45.9924 100.697 46.6508C99.0512 45.5316 96.8622 45.2683 94.92 45.4987C93.8008 45.6303 92.6651 45.9595 91.8093 46.6837C90.9534 47.4079 90.4267 48.6094 90.7394 49.6957C91.2661 51.5885 93.6856 52.0658 95.6442 52.1975C99.2817 52.4444 102.903 52.6748 106.54 52.9217C116.613 53.5801 126.735 54.2549 136.775 53.1357C137.598 53.0369 138.553 52.8394 138.899 52.0988C139.211 51.4075 138.783 50.5516 138.141 50.1401C137.5 49.7286 136.709 49.6464 135.936 49.5641C140.528 49.5641 145.12 49.5805 149.729 49.5805C153.399 49.5805 157.086 49.597 160.756 49.5476C164.624 49.4982 168.574 49.3995 172.195 48.0498C172.903 47.7865 173.676 47.375 173.808 46.6344C173.94 45.9266 173.364 45.2353 172.672 44.9885C171.998 44.7416 171.241 44.8239 170.533 44.9226C172.36 44.8403 173.002 42.0587 171.784 40.7091C170.549 39.343 168.442 39.2442 166.665 39.6886C164.887 40.133 163.225 41.0054 161.414 41.2687C160.855 40.2153 160.065 39.2772 159.127 38.5365C157.991 40.7914 156.181 42.7006 153.959 43.9186C150.881 45.5974 146.667 45.762 143.375 44.577C144.774 43.2109 145.844 41.4662 146.42 39.6063C146.387 39.6886 146.354 39.7874 146.322 39.8697C146.684 38.3555 146.503 36.7919 145.959 35.3435C145.4 37.3679 144.61 39.3265 143.293 40.956C141.565 43.0792 138.717 44.5111 136.068 43.8528C134.866 43.5565 133.796 42.8652 132.875 42.0423C130.011 39.4418 128.793 35.113 129.879 31.4756C127.361 33.0063 125.353 35.2776 124.645 37.9275C124.645 40.5116 125.731 43.0792 127.624 44.8403C123.592 46.1077 118.868 46.0418 114.885 44.6593C116.07 46.2393 117.782 47.4244 119.691 47.984C115.675 49.3995 111.132 49.3172 107.166 47.7371C106.063 47.2927 104.911 46.6508 104.516 45.5316C104.121 44.3959 104.664 43.0957 105.536 42.2727C105.635 42.1904 105.717 42.1081 105.816 42.0258C104.005 42.3879 102.228 43.2932 101.191 44.7745Z" fill="#F5FBFF"/>
</svg>
