<svg width="313" height="317" viewBox="0 0 313 317" fill="none" xmlns="http://www.w3.org/2000/svg">
<path opacity="0.4" d="M90.0277 61.3771C106.712 33.5703 119.045 1.4412 181.142 0.0292465C243.239 -1.3827 229.004 72.543 253.526 75.0211C253.526 75.0211 304.572 79.1562 293.968 131.643C283.35 184.145 206.384 182.877 138.509 151.367C106.928 136.7 60.953 109.83 90.0277 61.3771Z" fill="#B8DFDE"/>
<path d="M123.528 306.365C145.967 306.365 164.158 304.249 164.158 301.639C164.158 299.029 145.967 296.914 123.528 296.914C101.089 296.914 82.8984 299.029 82.8984 301.639C82.8984 304.249 101.089 306.365 123.528 306.365Z" fill="#DECFE2"/>
<path d="M230.36 306.365C252.799 306.365 270.99 304.249 270.99 301.639C270.99 299.029 252.799 296.914 230.36 296.914C207.921 296.914 189.73 299.029 189.73 301.639C189.73 304.249 207.921 306.365 230.36 306.365Z" fill="#DECFE2"/>
<path d="M99.8259 122.177C99.8259 122.177 85.6776 106.588 109.652 65.0361C109.638 65.0361 133.353 107.179 99.8259 122.177Z" fill="#B4DBC6"/>
<path d="M105.405 146.353C105.405 146.353 86.1992 154.984 54.1133 119.31C54.1133 119.31 101.529 109.815 105.405 146.353Z" fill="#B4DBC6"/>
<path d="M91.4573 104.153C91.4573 104.153 75.1046 117.394 34.9648 91.1287C34.9504 91.1287 78.3751 69.8342 91.4573 104.153Z" fill="#B4DBC6"/>
<path d="M83.286 87.5265C83.286 87.5265 53.1164 83.5356 48.7077 52.0981C48.2178 48.6403 46.9787 44.6061 43.9531 37.6904C43.9531 37.6904 51.8341 41.2923 59.3837 45.6435C72.1201 52.9626 91.1526 66.4913 83.286 87.5265Z" fill="#B4DBC6"/>
<path d="M111.83 167.82C106.975 148.284 100.895 129.02 93.1581 110.435C89.2104 101.271 84.9457 92.0504 80.3064 83.2185C77.6698 78.2911 74.8603 73.4933 71.8203 68.7676L72.0076 68.6235C75.0044 71.9805 77.6842 75.6257 80.1768 79.3861C86.3576 88.7799 91.2274 99.0813 95.1607 109.613C100.809 124.295 105.419 139.351 109.136 154.623C110.202 158.988 111.196 163.354 112.061 167.763C112.075 167.763 111.83 167.82 111.83 167.82Z" fill="#B4DBC6"/>
<path fill-rule="evenodd" clip-rule="evenodd" d="M226.69 100.695C222.857 101.502 219.241 99.9747 217.8 95.6668L215.207 73.6519L219.659 74.8621L224.241 90.8834L226.69 100.695Z" fill="#FFA6AB"/>
<path d="M219.659 74.8481L217.843 71.2462C217.483 70.5258 216.863 69.9639 216.129 69.647L213.103 68.3935C212.051 67.9613 210.884 68.7105 210.855 69.8487L213.406 74.243C213.968 75.2083 214.933 75.9863 216.114 76.4186L218.074 77.1245L219.659 74.8481Z" fill="#FFA6AB"/>
<path fill-rule="evenodd" clip-rule="evenodd" d="M237.135 120.693C231.473 119.713 218.693 102.381 218.247 99.9894C217.757 97.2951 214.371 81.7493 214.371 81.7493L222.857 80.7119C222.857 80.7119 227.626 93.6788 228.692 94.7018C229.758 95.7103 238.288 106.156 238.288 106.156L237.135 120.693Z" fill="#7DB7C5"/>
<path d="M156.131 301.625C203.301 301.625 241.54 298.58 241.54 294.824C241.54 291.069 203.301 288.024 156.131 288.024C108.961 288.024 70.7227 291.069 70.7227 294.824C70.7227 298.58 108.961 301.625 156.131 301.625Z" fill="#DECFE2"/>
<path d="M213.013 264.194L212.999 167.101H212.984C213.301 158.744 207.711 150.316 196.185 143.905C173.853 131.5 137.748 131.442 115.545 143.76C105.316 149.437 99.8266 156.771 99.0774 164.234H99.063V164.306C98.9477 165.473 98.9477 166.64 99.063 167.807V264.338C99.063 281.08 113.355 294.652 131.019 294.695L180.899 294.825C198.62 294.868 213.013 281.267 213.013 264.468V264.194Z" fill="#FAE6FF"/>
<path d="M109.841 148.328C105.98 151.353 102.983 155.474 101.023 159.955C99.5683 163.312 98.7471 166.928 98.5454 170.587C99.0352 201.161 99.381 232.555 98.9776 263.114C98.0267 232.872 97.7385 201.751 97.6953 171.481V171.02V170.789C97.7962 169.449 97.9546 168.138 98.214 166.827C99.6259 159.522 103.761 152.664 109.841 148.328Z" fill="#383838"/>
<path d="M209.672 141.873C209.672 141.873 221.184 149.624 222.12 165.689L222.048 173.772" stroke="#2D4973" stroke-width="1.00339" stroke-miterlimit="10" stroke-linecap="round"/>
<path d="M193.344 146.973H115.528C111.206 146.973 107.676 143.443 107.676 139.121V127.163C107.676 122.84 111.206 119.311 115.528 119.311H193.344C197.666 119.311 201.196 122.84 201.196 127.163V139.121C201.196 143.443 197.666 146.973 193.344 146.973Z" fill="#9242A5"/>
<path d="M143.5 146.973C158.455 146.181 173.439 146.181 188.394 146.973C173.439 147.78 158.455 147.766 143.5 146.973Z" fill="#383838"/>
<path opacity="0.37" d="M141.323 132.666H117.363C116.167 132.666 115.188 131.687 115.188 130.491V127.177C115.188 125.981 116.167 125.001 117.363 125.001H141.323C142.519 125.001 143.499 125.981 143.499 127.177V130.491C143.499 131.687 142.519 132.666 141.323 132.666Z" fill="#FAE6FF"/>
<path d="M149.336 294.752C159.58 294.277 170.198 294.205 180.456 294.262C181.047 294.262 182.445 294.291 183.021 294.233C187.833 293.888 192.645 292.778 196.982 290.617C199.028 289.594 200.93 288.297 202.601 286.698C201.117 288.47 199.258 289.926 197.256 291.107C193.207 293.441 188.611 294.709 183.972 295.242C183.381 295.314 182.791 295.357 182.2 295.372H180.471C170.184 295.386 159.58 295.285 149.336 294.752Z" fill="#383838"/>
<path d="M207.634 97.8852C220.743 84.7755 220.743 63.5204 207.634 50.4107C194.524 37.301 173.269 37.301 160.159 50.4107C147.049 63.5204 147.049 84.7755 160.159 97.8852C173.269 110.995 194.524 110.995 207.634 97.8852Z" fill="#FFCCAB"/>
<path d="M200.352 90.3073C209.175 81.4849 209.175 67.1811 200.352 58.3587C191.53 49.5364 177.226 49.5364 168.404 58.3588C159.582 67.1811 159.582 81.4849 168.404 90.3073C177.226 99.1296 191.53 99.1296 200.352 90.3073Z" fill="#F9A56E"/>
<path d="M178.528 83.8239C176.453 82.6137 174.782 80.5245 173.961 78.5363L176.151 77.1964C177.03 79.127 178.283 80.9568 180.358 81.9077C182.865 83.0747 184.767 82.2535 185.746 80.1499C188.297 74.6462 178.269 71.4477 181.338 64.8202C182.735 61.7946 185.718 60.5411 188.873 61.4632L190.458 58.0342L192.489 58.9707L190.933 62.3277C192.993 63.5667 193.93 65.2812 194.564 67.1398L192.302 68.1051C191.61 66.3042 190.89 65.0939 189.06 64.2439C186.985 63.2786 185.069 63.9557 184.147 65.9296C181.871 70.857 191.971 73.8826 188.599 81.1873C187.101 84.4146 184.032 85.7113 180.603 84.6595L179.018 88.0886L176.987 87.1521L178.528 83.8239Z" fill="white"/>
<path fill-rule="evenodd" clip-rule="evenodd" d="M174.202 49.3468C172.934 50.6723 171.248 52.0698 169.505 52.4588C168.756 52.6317 168.439 53.5106 168.871 54.1445C169.707 55.3692 170.701 57.1845 171.104 59.2448C171.277 60.1237 172.358 60.4407 172.977 59.7923C173.957 58.755 175.383 57.6024 177.343 56.8388C178.006 56.5794 178.236 55.7726 177.833 55.1963C177.098 54.1733 176.219 52.4732 176.104 50.0527C176.046 49.0874 174.879 48.6408 174.202 49.3468Z" fill="white"/>
<path d="M247.273 302.114C247.936 302.114 248.354 301.567 248.195 300.904L214.942 161.207C214.784 160.545 214.107 159.997 213.444 159.997C212.781 159.997 212.363 160.545 212.522 161.207L245.775 300.904C245.933 301.567 246.61 302.114 247.273 302.114Z" fill="#383838"/>
<path d="M224.164 302.114C224.827 302.114 225.244 301.567 225.086 300.904L191.833 161.207C191.675 160.545 190.997 159.997 190.335 159.997C189.672 159.997 189.254 160.545 189.413 161.207L222.665 300.904C222.824 301.567 223.501 302.114 224.164 302.114Z" fill="#383838"/>
<path d="M196.528 183.467H217.823C218.5 183.467 218.99 182.919 218.932 182.242C218.874 181.565 218.269 181.018 217.592 181.018H196.298C195.62 181.018 195.131 181.565 195.188 182.242C195.26 182.919 195.851 183.467 196.528 183.467Z" fill="#383838"/>
<path d="M200.493 197.832H221.787C222.465 197.832 222.955 197.285 222.897 196.607C222.839 195.93 222.234 195.383 221.557 195.383H200.262C199.585 195.383 199.095 195.93 199.153 196.607C199.225 197.27 199.816 197.832 200.493 197.832Z" fill="#383838"/>
<path d="M203.934 212.182H225.229C225.906 212.182 226.396 211.634 226.338 210.957C226.281 210.28 225.676 209.732 224.998 209.732H203.704C203.027 209.732 202.537 210.28 202.594 210.957C202.652 211.634 203.257 212.182 203.934 212.182Z" fill="#383838"/>
<path d="M206.759 226.546H228.053C228.73 226.546 229.22 225.999 229.163 225.322C229.105 224.645 228.5 224.097 227.823 224.097H206.528C205.851 224.097 205.361 224.645 205.419 225.322C205.491 225.985 206.081 226.546 206.759 226.546Z" fill="#383838"/>
<path d="M209.739 240.896H231.034C231.711 240.896 232.201 240.349 232.143 239.671C232.085 238.994 231.48 238.447 230.803 238.447H209.509C208.831 238.447 208.342 238.994 208.399 239.671C208.471 240.349 209.076 240.896 209.739 240.896Z" fill="#383838"/>
<path d="M213.704 255.26H234.998C235.676 255.26 236.165 254.713 236.108 254.036C236.05 253.359 235.445 252.811 234.768 252.811H213.473C212.796 252.811 212.306 253.359 212.364 254.036C212.436 254.698 213.041 255.26 213.704 255.26Z" fill="#383838"/>
<path d="M216.716 269.61H238.01C238.687 269.61 239.177 269.063 239.12 268.386C239.062 267.709 238.457 267.161 237.78 267.161H216.485C215.808 267.161 215.318 267.709 215.376 268.386C215.448 269.063 216.038 269.61 216.716 269.61Z" fill="#383838"/>
<path fill-rule="evenodd" clip-rule="evenodd" d="M230.617 248.849C230.617 248.849 235.429 216.648 229.22 203.912L232.62 160.242L212.262 161.64L224.796 249.166L230.617 248.849Z" fill="#FFA6AB"/>
<path fill-rule="evenodd" clip-rule="evenodd" d="M196.459 112.481C193.476 115.017 189.572 115.42 186.243 112.337L173.406 94.2554L177.901 93.1748L189.615 105.032L196.459 112.481Z" fill="#FFA6AB"/>
<path d="M177.902 93.1894L174.574 90.8986C173.911 90.4375 173.104 90.2358 172.298 90.3223L169.041 90.6681C167.903 90.7977 167.255 92.008 167.759 93.0309L172.096 95.6675C173.061 96.2438 174.271 96.4599 175.51 96.2726L177.571 95.9557L177.902 93.1894Z" fill="#FFA6AB"/>
<path fill-rule="evenodd" clip-rule="evenodd" d="M216.777 99.7307C216.777 99.7307 217.973 103.621 218.967 106.848C219.227 107.713 220.019 108.361 221.028 108.548C222.036 108.735 223.117 108.433 223.837 107.756C224.068 107.54 224.313 107.324 224.529 107.122C225.523 106.2 225.84 104.889 225.335 103.75C224.039 100.854 221.676 95.5669 221.676 95.5669L216.777 99.7307Z" fill="#FFA6AB"/>
<path fill-rule="evenodd" clip-rule="evenodd" d="M217.219 101.906L218.141 104.183L220.144 101.474L217.219 101.906Z" fill="#873B24"/>
<path fill-rule="evenodd" clip-rule="evenodd" d="M223.012 94.4283C223.214 93.2613 222.421 92.1375 221.269 91.9502C220.03 91.7341 218.474 91.4748 217.235 91.2587C216.082 91.057 215.145 91.8926 214.785 93.0164C214.339 94.3419 214.079 97.2234 214.137 99.327C214.166 100.523 214.886 101.733 216.053 101.935C217.292 102.151 221.197 101.589 221.931 99.4134C222.464 97.7421 222.709 96.1429 223.012 94.4283Z" fill="#FFA6AB"/>
<path fill-rule="evenodd" clip-rule="evenodd" d="M221.731 100.609C225.016 99.8313 226.846 96.2582 225.449 93.1893C225.146 92.5266 224.8 91.9647 224.426 91.5901C222.077 89.2705 218.879 87.9738 215.363 90.8841C215.363 90.8841 215.882 96.2005 221.731 100.609Z" fill="black"/>
<path fill-rule="evenodd" clip-rule="evenodd" d="M219.946 98.102C219.47 98.952 218.519 99.3122 217.828 98.9232C217.136 98.5198 216.949 97.5112 217.439 96.6612C217.914 95.8111 218.865 95.4509 219.557 95.84C220.248 96.229 220.421 97.2519 219.946 98.102Z" fill="#FFA6AB"/>
<path fill-rule="evenodd" clip-rule="evenodd" d="M245.676 208.061L264.521 243.029C268.181 244.354 270.054 241.069 269.031 237.669C264.708 222.916 264.953 215.078 252.793 201.924L245.676 208.061Z" fill="#FFA6AB"/>
<path fill-rule="evenodd" clip-rule="evenodd" d="M227.551 165.516L238.659 201.938C239.12 203.653 240.143 206.102 240.964 207.672L258.887 239.412L268.324 233.995C265.962 218.809 262.734 211.649 254.176 196.045L248.73 161.654L239.106 162.043L227.551 165.516Z" fill="#383838"/>
<path fill-rule="evenodd" clip-rule="evenodd" d="M233.254 163.801L244.088 199.316C244.549 201.031 245.572 203.48 246.393 205.05L264.115 236.416L258.899 239.413L240.976 207.673C240.169 206.102 239.132 203.653 238.671 201.938L227.562 165.516L233.254 163.801Z" fill="#070707"/>
<path fill-rule="evenodd" clip-rule="evenodd" d="M264.335 242.957L264.191 247.956C264.277 249.023 262.75 253.316 262.75 253.316C263.197 254.209 264.09 253.835 264.623 253.345L272.23 243.058C272.23 243.058 275.227 239.485 269.118 238.073C268.513 240.536 266.107 243.548 264.335 242.957Z" fill="#383838"/>
<path fill-rule="evenodd" clip-rule="evenodd" d="M241.382 138.602L213.561 140.72C209.037 142.377 210.838 168.469 210.838 168.469L229.136 169.319C237.867 169.175 248.356 170.486 248.745 161.64C249.465 145.431 241.382 138.602 241.382 138.602Z" fill="#383838"/>
<path fill-rule="evenodd" clip-rule="evenodd" d="M213.965 106.919L223.863 104.124L226.644 103.793L237.738 105.781C237.738 105.781 239.683 106.156 242.737 115.218L245.158 122.408C248.817 131.139 248.904 144.711 251.022 153.932C237.003 161.856 214.369 164.637 208.577 158.557C207.424 148.63 204.73 133.012 205.522 124.324C206.243 116.501 211.444 113.158 213.965 106.919Z" fill="#7DB7C5"/>
<path fill-rule="evenodd" clip-rule="evenodd" d="M224.581 247.769L221.785 250.535C220.993 251.256 216.656 252.682 216.656 252.682C216.224 253.59 217.074 254.065 217.78 254.18L230.574 253.907C230.574 253.907 233.528 253.287 230.906 247.596C228.586 248.619 225.186 249.541 224.581 247.769Z" fill="#383838"/>
<path fill-rule="evenodd" clip-rule="evenodd" d="M210.836 168.469L215.547 205.453L221.743 242.524H236.64C236.64 242.524 235.243 236.084 235.415 234.038C235.574 231.992 236.121 212.585 231.583 203.667L231.943 167.316L210.836 168.469Z" fill="#383838"/>
<path d="M238.615 169.333L232.117 169.55" stroke="#070707" stroke-width="1.00854" stroke-miterlimit="10"/>
<path fill-rule="evenodd" clip-rule="evenodd" d="M218.687 122.019C213.255 123.877 190.246 117.797 188.719 115.91C187.004 113.777 176.559 101.761 176.559 101.761L183.517 96.7764C183.517 96.7764 193.92 105.868 195.346 106.242C196.773 106.617 215.819 106.386 215.819 106.386L218.687 122.019Z" fill="#7DB7C5"/>
<path d="M184.826 278.097H128.492V290.92H184.826V278.097Z" fill="#F9A56E"/>
<path d="M182.749 278.097H161.844V290.92H182.749V278.097Z" fill="#D98753"/>
<path d="M159.9 278.097H151.141V290.92H159.9V278.097Z" fill="#F5B57B"/>
<path d="M138.187 278.097H133.375V290.92H138.187V278.097Z" fill="#F9B589"/>
<path d="M184.826 289.004H128.492V290.906H184.826V289.004Z" fill="#BD4C48"/>
<path d="M184.826 265.621H128.492V278.443H184.826V265.621Z" fill="#F9A56E"/>
<path d="M182.749 265.621H161.844V278.443H182.749V265.621Z" fill="#D98753"/>
<path d="M159.9 265.621H151.141V278.443H159.9V265.621Z" fill="#F5B57B"/>
<path d="M138.187 265.621H133.375V278.443H138.187V265.621Z" fill="#F9B589"/>
<path d="M184.826 276.542H128.492V278.444H184.826V276.542Z" fill="#BD4C48"/>
<path d="M181.064 253.158H124.73V265.981H181.064V253.158Z" fill="#F9A56E"/>
<path d="M178.988 253.158H158.082V265.981H178.988V253.158Z" fill="#D98753"/>
<path d="M156.139 253.158H147.379V265.981H156.139V253.158Z" fill="#F5B57B"/>
<path d="M134.425 253.158H129.613V265.981H134.425V253.158Z" fill="#F9B589"/>
<path d="M181.064 264.064H124.73V265.966H181.064V264.064Z" fill="#BD4C48"/>
<path d="M183.65 241.214H127.316V254.037H183.65V241.214Z" fill="#F9A56E"/>
<path d="M181.573 241.214H160.668V254.037H181.573V241.214Z" fill="#D98753"/>
<path d="M158.713 241.214H149.953V254.037H158.713V241.214Z" fill="#F5B57B"/>
<path d="M137.011 241.214H132.199V254.037H137.011V241.214Z" fill="#F9B589"/>
<path d="M183.65 252.134H127.316V254.036H183.65V252.134Z" fill="#BD4C48"/>
<path d="M183.65 228.751H127.316V241.574H183.65V228.751Z" fill="#F9A56E"/>
<path d="M181.573 228.751H160.668V241.574H181.573V228.751Z" fill="#D98753"/>
<path d="M158.713 228.751H149.953V241.574H158.713V228.751Z" fill="#F5B57B"/>
<path d="M137.011 228.751H132.199V241.574H137.011V228.751Z" fill="#F9B589"/>
<path d="M183.65 239.658H127.316V241.56H183.65V239.658Z" fill="#BD4C48"/>
<path d="M179.893 216.273H123.559V229.096H179.893V216.273Z" fill="#F9A56E"/>
<path d="M177.816 216.273H156.91V229.096H177.816V216.273Z" fill="#D98753"/>
<path d="M154.955 216.273H146.195V229.096H154.955V216.273Z" fill="#F5B57B"/>
<path d="M133.254 216.273H128.441V229.096H133.254V216.273Z" fill="#F9B589"/>
<path d="M179.893 227.18H123.559V229.082H179.893V227.18Z" fill="#BD4C48"/>
<path d="M66.3869 202.875L70.1906 202.385C70.9542 202.284 71.7178 202.471 72.3661 202.889L74.9595 204.603C75.8672 205.194 75.896 206.52 75.0171 207.154L70.205 207.485C69.1388 207.557 68.015 207.211 67.0641 206.505L65.4648 205.338L66.3869 202.875Z" fill="#FFA6AB"/>
<path fill-rule="evenodd" clip-rule="evenodd" d="M59.3559 183.64C61.5171 183.741 61.8196 180.125 60.7103 178.266L53.0742 163.859C50.9995 160.026 47.1238 157.966 44.905 159.536C44.0406 160.156 44.1126 161.798 45.0635 163.239L56.9787 186.882L59.3559 183.64Z" fill="#C95836"/>
<path fill-rule="evenodd" clip-rule="evenodd" d="M16.94 163.052C17.0121 162.361 16.7095 161.684 16.2485 161.165C12.416 156.987 19.0003 152.981 20.8589 151.267C22.8039 149.48 19.908 146.08 24.2447 144.063C28.5958 142.046 30.3247 144.25 30.5264 144.149C30.829 144.005 30.4688 148.587 30.4688 148.587C30.4688 148.587 28.2933 149.567 28.8407 154.076C29.3882 158.586 30.8434 160.79 28.4662 164.652C26.0745 168.513 14.5195 165.17 14.5195 165.17C16.3493 164.954 16.8536 163.931 16.94 163.052Z" fill="#663D24"/>
<path d="M34.4019 303.743C53.0694 303.743 68.2023 302.614 68.2023 301.222C68.2023 299.829 53.0694 298.7 34.4019 298.7C15.7345 298.7 0.601562 299.829 0.601562 301.222C0.601562 302.614 15.7345 303.743 34.4019 303.743Z" fill="#DECFE2"/>
<path fill-rule="evenodd" clip-rule="evenodd" d="M40.9409 296.827C40.9409 296.827 36.3736 266.254 42.2664 254.152L39.0391 212.672L58.3741 214.012L45.364 297.072L40.9409 296.827Z" fill="#FFA6AB"/>
<path fill-rule="evenodd" clip-rule="evenodd" d="M45.4945 295.631L49.3269 298.426C50.0761 299.118 54.1967 300.458 54.1967 300.458C54.6001 301.322 53.8077 301.769 53.1305 301.884L40.9849 301.625C40.9849 301.625 38.1754 301.049 40.6679 295.631C42.8867 296.611 44.9182 297.303 45.4945 295.631Z" fill="#4A2C1A"/>
<path fill-rule="evenodd" clip-rule="evenodd" d="M59.7313 220.48L55.2649 255.606L49.3866 290.819H35.2383C35.2383 290.819 36.5638 284.695 36.4053 282.75C36.2468 280.805 35.7281 262.378 40.0504 253.906L39.7047 219.371L59.7313 220.48Z" fill="#DC8020"/>
<path fill-rule="evenodd" clip-rule="evenodd" d="M39.9372 253.921L39.5914 219.386L46.3054 219.76L46.5503 245.046C46.5935 249.757 45.9452 254.497 44.7925 259.151C42.5017 268.357 42.8763 281.18 43.006 282.779C43.1645 284.725 41.839 290.848 41.839 290.848H35.125C35.125 290.848 36.4505 284.725 36.292 282.779C36.1479 280.82 35.6293 262.393 39.9372 253.921Z" fill="#AF5D14"/>
<path fill-rule="evenodd" clip-rule="evenodd" d="M21.9526 296.769C21.9526 296.769 18.7109 265.822 25.1511 253.575L23.7391 211.591L43.0166 212.946L26.3613 297.014L21.9526 296.769Z" fill="#FFA6AB"/>
<path fill-rule="evenodd" clip-rule="evenodd" d="M26.5611 295.559L30.2783 298.383C30.9987 299.089 35.0616 300.443 35.0616 300.443C35.4362 301.308 34.615 301.769 33.9234 301.884L21.7922 301.625C21.7922 301.625 19.0115 301.034 21.7345 295.559C23.8957 296.553 25.9128 297.259 26.5611 295.559Z" fill="#4A2C1A"/>
<path fill-rule="evenodd" clip-rule="evenodd" d="M44.0685 219.502L38.0605 255.06L30.6405 290.704H16.4922C16.4922 290.704 18.077 284.509 18.005 282.535C17.933 280.576 18.2211 261.918 22.9036 253.345L23.4943 215.035L44.0685 219.502Z" fill="#DC8020"/>
<path fill-rule="evenodd" clip-rule="evenodd" d="M30.7284 192.112L57.1521 194.129C61.4456 195.714 59.7311 220.495 59.7311 220.495L42.3554 221.302C34.2871 221.129 24.7349 227.469 23.7263 214.012C22.5881 198.625 30.7284 192.112 30.7284 192.112Z" fill="#DC8020"/>
<path fill-rule="evenodd" clip-rule="evenodd" d="M23.4977 215.597C23.4977 215.597 41.0318 217.484 46.7372 209.791L23.2239 207.773C23.2239 207.773 23.1375 213.637 23.4977 215.597Z" fill="#AF5D14"/>
<path fill-rule="evenodd" clip-rule="evenodd" d="M46.7921 158.975L40.7121 157.678L32.7446 158.082L23.1203 162.779C19.9362 164.853 18.8268 168.974 20.5413 172.374L24.3594 183.583C22.7745 192.559 22.155 198.798 23.6534 207.673C38.5221 211.275 58.0589 208.696 61.7905 201.622C58.9233 183.843 55.0909 169.651 46.7921 158.975Z" fill="#823395"/>
<path fill-rule="evenodd" clip-rule="evenodd" d="M36.965 152.174C36.965 152.174 36.965 156.021 36.965 159.219C36.965 160.069 36.5183 160.847 35.7836 161.265C35.0488 161.683 34.1555 161.669 33.4351 161.222C33.2046 161.078 32.9741 160.934 32.7579 160.804C31.7638 160.199 31.2163 159.075 31.3316 157.908C31.6341 154.94 32.196 149.523 32.196 149.523L36.965 152.174Z" fill="#FFA6AB"/>
<path fill-rule="evenodd" clip-rule="evenodd" d="M37.1558 154.278L36.9685 156.583L34.793 154.595L37.1558 154.278Z" fill="#873B24"/>
<path d="M40.7139 157.678C40.7139 157.678 44.8056 165.127 39.4748 166.106C34.144 167.086 30.2539 159.306 30.2539 159.306L33.9711 157.102L40.7139 157.678Z" fill="#FFA6AB"/>
<path fill-rule="evenodd" clip-rule="evenodd" d="M30.2375 148.918C29.8053 147.881 30.2807 146.685 31.3181 146.238C32.4131 145.777 33.8106 145.187 34.9056 144.725C35.9285 144.293 36.9659 144.87 37.5566 145.82C38.2482 146.959 39.1126 149.552 39.516 151.526C39.7466 152.635 39.3432 153.918 38.3058 154.35C37.2108 154.811 33.4648 155.142 32.3266 153.284C31.4478 151.872 30.8714 150.445 30.2375 148.918Z" fill="#FFA6AB"/>
<path fill-rule="evenodd" clip-rule="evenodd" d="M27.4438 154.364C27.4438 154.364 27.0692 148.587 28.3083 146.599C29.9796 143.948 32.6594 142.06 36.5351 143.991C36.5351 143.991 35.5409 148.774 28.8414 154.076L27.4438 154.364Z" fill="#663D24"/>
<path fill-rule="evenodd" clip-rule="evenodd" d="M30.8116 153.543C31.4312 154.22 32.3965 154.364 32.9584 153.846C33.5203 153.327 33.4626 152.347 32.8431 151.67C32.2236 150.993 31.2583 150.849 30.6964 151.367C30.1345 151.886 30.1921 152.851 30.8116 153.543Z" fill="#FFA6AB"/>
<path fill-rule="evenodd" clip-rule="evenodd" d="M38.7658 150.92L36.9648 151.641C36.9648 151.641 37.4835 152.88 38.3192 152.419C39.1404 151.972 38.7658 150.92 38.7658 150.92Z" fill="white"/>
<path d="M30.3832 144.279C30.3832 144.279 27.9195 144.293 27.6602 147.794" stroke="#8B939C" stroke-width="0.446494" stroke-miterlimit="10" stroke-linecap="round" stroke-linejoin="round"/>
<path d="M86.2545 193.049H39.8906V205.569H86.2545V193.049Z" fill="#F9A56E"/>
<path d="M84.5267 193.049H72.4531V205.569H84.5267V193.049Z" fill="#D98753"/>
<path d="M70.5516 193.049H62.0078V205.569H70.5516V193.049Z" fill="#F5B57B"/>
<path d="M49.3571 193.049H44.6602V205.569H49.3571V193.049Z" fill="#F9B589"/>
<path d="M86.2545 203.71H39.8906V205.569H86.2545V203.71Z" fill="#BD4C48"/>
<path d="M86.2545 180.875H39.8906V193.395H86.2545V180.875Z" fill="#F9A56E"/>
<path d="M84.5267 180.875H72.4531V193.395H84.5267V180.875Z" fill="#D98753"/>
<path d="M70.5516 180.875H62.0078V193.395H70.5516V180.875Z" fill="#F5B57B"/>
<path d="M49.3571 180.875H44.6602V193.395H49.3571V180.875Z" fill="#F9B589"/>
<path d="M86.2545 191.521H39.8906V193.38H86.2545V191.521Z" fill="#BD4C48"/>
<path d="M83.1418 168.7H36.2305V181.22H83.1418V168.7Z" fill="#F9A56E"/>
<path d="M81.4141 168.7H68.793V181.22H81.4141V168.7Z" fill="#D98753"/>
<path d="M66.8758 168.7H58.332V181.22H66.8758V168.7Z" fill="#F5B57B"/>
<path d="M45.6969 168.7H41V181.22H45.6969V168.7Z" fill="#F9B589"/>
<path d="M83.1418 179.347H36.2305V181.206H83.1418V179.347Z" fill="#BD4C48"/>
<path d="M90.3332 156.554H43.4219V169.074H90.3332V156.554Z" fill="#F9A56E"/>
<path d="M88.6055 156.554H75.9844V169.074H88.6055V156.554Z" fill="#D98753"/>
<path d="M74.0828 156.554H65.5391V169.074H74.0828V156.554Z" fill="#F5B57B"/>
<path d="M52.8883 156.554H48.1914V169.074H52.8883V156.554Z" fill="#F9B589"/>
<path d="M90.3332 167.216H43.4219V169.074H90.3332V167.216Z" fill="#BD4C48"/>
<path fill-rule="evenodd" clip-rule="evenodd" d="M32.9788 186.047C30.7744 189.029 30.6447 192.761 33.8 195.714L51.7808 206.679L54.0428 203.307L40.4851 192.04L32.9788 186.047Z" fill="#FFA6AB"/>
<path d="M51.3596 203.379L55.1632 202.889C55.9268 202.788 56.6904 202.976 57.3388 203.393L59.9321 205.108C60.8398 205.699 60.8686 207.024 59.9898 207.658L55.1776 207.989C54.1114 208.061 52.9877 207.716 52.0367 207.01L50.4375 205.843L51.3596 203.379Z" fill="#FFA6AB"/>
<path fill-rule="evenodd" clip-rule="evenodd" d="M37.5166 189.677L28.627 170.947C26.5668 166.639 22.4606 165.083 19.9969 167.677C19.0315 168.7 19.0171 170.774 19.9824 172.345L31.5086 192.544L37.5166 189.677Z" fill="#FFA6AB"/>
<path fill-rule="evenodd" clip-rule="evenodd" d="M21.1627 164.939C21.1627 164.939 17.7769 168.368 18.9439 172.763C20.111 177.157 29.231 194.043 29.231 194.043L38.0773 189.13C38.0773 189.13 33.3516 176.984 31.1328 171.452C30.4989 169.867 30.0811 168.83 30.0234 168.757C29.7929 168.455 21.1627 164.939 21.1627 164.939Z" fill="#823395"/>
<path d="M138.73 296.528C149.769 285.489 149.769 267.591 138.73 256.552C127.691 245.513 109.793 245.513 98.7538 256.552C87.7146 267.591 87.7146 285.489 98.7538 296.528C109.793 307.567 127.691 307.567 138.73 296.528Z" fill="#F5B57B"/>
<path d="M132.797 296.528C143.836 285.489 143.836 267.591 132.797 256.551C121.757 245.512 103.859 245.512 92.8202 256.551C81.7811 267.591 81.781 285.489 92.8202 296.528C103.859 307.567 121.757 307.567 132.797 296.528Z" fill="#FFCCAB"/>
<path d="M126.648 289.813C134.075 282.386 134.075 270.344 126.648 262.918C119.221 255.491 107.179 255.491 99.7524 262.918C92.3254 270.344 92.3254 282.386 99.7524 289.813C107.179 297.24 119.221 297.24 126.648 289.813Z" fill="#F9A56E"/>
<path d="M115.435 285.488C113.475 286.021 111.242 285.776 109.571 285.099L110.061 282.996C111.746 283.615 113.576 283.932 115.377 283.255C117.553 282.434 118.201 280.82 117.509 278.99C115.723 274.207 107.871 278.328 105.709 272.579C104.73 269.957 105.724 267.421 108.144 266.081L107.021 263.099L108.793 262.436L109.888 265.361C111.847 264.856 113.432 265.303 114.916 266.038L114.167 267.969C112.683 267.32 111.53 267.032 109.931 267.637C108.13 268.314 107.395 269.87 108.044 271.57C109.643 275.85 117.437 271.585 119.815 277.924C120.866 280.734 119.829 283.342 117.164 284.768L118.287 287.75L116.515 288.413L115.435 285.488Z" fill="white"/>
<path fill-rule="evenodd" clip-rule="evenodd" d="M92.2085 267.695C92.2517 269.236 92.0933 271.066 91.3008 272.349C90.9551 272.896 91.3008 273.602 91.9348 273.717C93.1594 273.948 94.8307 274.423 96.3147 275.389C96.9487 275.806 97.7699 275.345 97.7555 274.596C97.7123 273.4 97.8707 271.859 98.5623 270.245C98.7928 269.698 98.447 269.078 97.8707 268.977C96.819 268.819 95.2918 268.329 93.7646 266.974C93.145 266.427 92.1941 266.874 92.2085 267.695Z" fill="white"/>
<path d="M36.9656 185.096C34.6748 180.543 32.5713 175.918 30.6406 171.207C32.9314 175.745 35.0494 180.384 36.9656 185.096Z" fill="#42194C"/>
<path d="M153.537 193.323C153.537 193.323 150.526 174.305 173.795 173.627C173.795 173.613 172.772 190.47 153.537 193.323Z" fill="#61C691"/>
<path d="M155.426 215.957C155.412 210.439 154.893 204.906 154.245 199.417C153.899 196.694 153.308 193.971 153.078 191.233C152.862 188.481 152.631 185.657 152.775 182.877L153.006 182.833C153.15 183.165 153.28 183.482 153.409 183.813C154.533 186.752 155.268 189.85 155.7 192.976C155.945 195.051 155.959 197.169 156.089 199.258C156.147 200.656 156.219 202.053 156.233 203.436C156.276 206.203 156.233 209.041 156.06 211.807C155.974 213.205 155.859 214.588 155.671 215.971C155.657 215.971 155.426 215.957 155.426 215.957Z" fill="#61C691"/>
<path d="M134.166 174.285C134.914 166.994 129.611 160.478 122.32 159.729C115.03 158.981 108.513 164.285 107.765 171.575C107.017 178.865 112.32 185.382 119.611 186.13C126.901 186.878 133.418 181.575 134.166 174.285Z" fill="#F9EDFC"/>
<path d="M144.632 157.983C144.725 154.841 142.254 152.219 139.112 152.125C135.97 152.032 133.348 154.503 133.255 157.645C133.162 160.787 135.633 163.41 138.775 163.503C141.916 163.596 144.539 161.125 144.632 157.983Z" fill="#F9EDFC"/>
<path d="M191.098 95.6964C191.098 95.6964 209.741 90.0486 206.615 69.9355" stroke="#F58520" stroke-width="0.849346" stroke-miterlimit="10" stroke-linecap="round" stroke-linejoin="round"/>
<path d="M115.746 295.055C115.746 295.055 132.387 292.721 132.012 275.547" stroke="#F58520" stroke-width="0.945734" stroke-miterlimit="10" stroke-linecap="round" stroke-linejoin="round"/>
<path d="M88.328 290.689C88.328 290.689 75.5772 267.032 98.86 251.947" stroke="#F58520" stroke-width="0.945734" stroke-miterlimit="10" stroke-linecap="round" stroke-linejoin="round"/>
<path d="M119.41 10.2156C121.975 10.0283 124.727 10.5038 126.845 12.0454C128.156 12.9963 129.092 14.4515 129.409 16.0219L128.718 16.0363C128.775 15.7914 128.833 15.5753 128.905 15.3591C130.029 11.9013 132.997 9.72575 136.671 10.2156C135.792 10.2444 134.927 10.3885 134.12 10.6478C131.873 11.3682 130.259 13.3565 129.582 15.5609C129.524 15.7626 129.467 15.9643 129.423 16.1516C129.351 16.5262 128.804 16.5262 128.732 16.166C128.703 16.0363 128.617 15.7626 128.588 15.6329C128.545 15.532 128.444 15.2295 128.401 15.1142L128.256 14.7828C126.7 11.5411 122.738 10.4894 119.41 10.2156Z" fill="#202A30"/>
<path d="M258.105 94.4998C261.189 94.154 264.935 95.4075 265.612 98.7789L264.906 98.7933C264.949 98.606 264.992 98.4475 265.05 98.2746C265.886 95.6956 268.162 94.0532 270.899 94.4854C268.148 94.6151 266.26 96.2575 265.612 98.9085C265.54 99.2831 264.992 99.2831 264.906 98.9229C264.258 95.8397 260.901 94.7879 258.105 94.4998Z" fill="#202A30"/>
<path d="M154.117 193.337C154.117 193.337 144.492 196.795 130.301 178.324C130.301 178.324 153.598 175.515 154.117 193.337Z" fill="#61C691"/>
<path d="M311.055 116.083C309.903 115.276 308.304 115.132 307.036 115.722C307.122 113.316 306.531 110.752 304.831 109.037C303.146 107.308 300.206 106.718 298.247 108.13C296.59 105.219 293.204 103.404 289.862 103.62C286.519 103.836 283.393 106.098 282.139 109.196C276.635 107.51 270.973 111.097 269.201 116.356C267.804 116.198 266.32 116.039 265.037 116.63C263.755 117.206 262.819 118.806 263.438 120.059C263.64 120.477 263.986 120.794 264.346 121.082C266.968 123.171 270.512 123.56 273.855 123.791C276.059 123.949 278.307 124.079 280.482 123.675C282.658 123.272 284.805 122.278 286.188 120.535C287.139 121.975 289.098 122.292 290.813 122.451C296.028 122.941 301.33 123.272 306.517 122.321C308.289 121.99 310.58 121.889 311.905 120.506C313.389 118.978 312.64 117.206 311.055 116.083Z" fill="white"/>
<path d="M269.185 116.356C267.788 116.198 266.304 116.039 265.022 116.63C263.739 117.206 262.803 118.805 263.422 120.059C263.624 120.477 263.97 120.794 264.33 121.082C266.952 123.171 270.497 123.56 273.839 123.791C276.044 123.949 278.291 124.079 280.467 123.675C282.642 123.272 284.789 122.278 286.172 120.534C287.123 121.975 289.082 122.292 290.797 122.451C296.013 122.94 301.315 123.272 306.501 122.321C308.273 121.99 310.564 121.889 311.89 120.506C313.374 118.978 312.625 117.206 311.04 116.082C309.887 115.276 308.288 115.132 307.02 115.722C307.092 113.792 306.717 111.76 305.695 110.146C305.983 111.126 306.011 112.178 305.666 113.143C304.916 115.232 302.669 115.982 300.782 114.987C299.125 114.109 298.073 112.308 297.886 110.449C297.482 114.051 294.399 117.163 290.797 117.595C287.209 118.027 283.464 115.737 282.21 112.351C281.907 114.109 280.769 115.693 279.213 116.558C277.657 117.422 275.698 117.523 274.055 116.846C273.22 116.5 272.413 115.91 272.081 115.074C271.592 113.892 272.125 112.524 272.859 111.472C273.061 111.198 273.263 110.924 273.493 110.665C271.534 112.019 269.978 114.022 269.185 116.356Z" fill="#F5FBFF"/>
<path d="M116.433 25.8045C112.917 26.8563 109.733 29.4785 108.84 32.8067C106.837 32.0142 104.59 31.5676 102.515 32.1871C100.455 32.8067 98.6682 34.7229 98.7546 36.884C96.9105 36.495 95.0375 36.0916 93.1645 36.2789C91.3635 36.4518 89.4041 37.2874 88.3379 38.8002C88.0065 39.2757 87.8048 39.8664 87.9057 40.4427C86.4649 39.463 84.5487 39.2325 82.8486 39.4342C81.8689 39.5494 80.8747 39.8376 80.1255 40.4715C79.3763 41.1055 78.9153 42.1572 79.189 43.1081C79.6501 44.765 81.768 45.1828 83.4825 45.2981C86.6666 45.5142 89.8363 45.7159 93.0204 45.932C101.838 46.5083 110.699 47.0991 119.487 46.1193C120.208 46.0329 121.043 45.86 121.346 45.2117C121.62 44.6065 121.245 43.8573 120.683 43.4971C120.121 43.1369 119.43 43.0649 118.752 42.9929C122.772 42.9929 126.792 43.0073 130.826 43.0073C134.039 43.0073 137.266 43.0217 140.479 42.9785C143.865 42.9352 147.323 42.8488 150.493 41.6674C151.112 41.4368 151.789 41.0767 151.904 40.4283C152.02 39.8088 151.516 39.2037 150.91 38.9875C150.32 38.7714 149.657 38.8435 149.037 38.9299C150.637 38.8579 151.199 36.423 150.132 35.2416C149.052 34.0457 147.208 33.9593 145.652 34.3483C144.096 34.7373 142.64 35.5009 141.056 35.7314C139.889 33.527 137.54 31.899 135.033 31.7693C133.535 31.6973 128.276 32.6338 127.844 34.5068C128.679 30.9192 126.187 27.0436 122.715 25.8045C120.755 25.113 118.536 25.185 116.433 25.8045Z" fill="white"/>
<path d="M88.3223 38.8001C87.9909 39.2755 87.7892 39.8663 87.89 40.4426C86.4493 39.4628 84.533 39.2323 82.8329 39.434C81.8532 39.5493 80.8591 39.8374 80.1099 40.4714C79.3607 41.1053 78.8997 42.1571 79.1734 43.108C79.6344 44.7649 81.7524 45.1827 83.4669 45.2979C86.651 45.5141 89.8207 45.7158 93.0048 45.9319C101.822 46.5082 110.683 47.0989 119.472 46.1192C120.192 46.0327 121.028 45.8598 121.33 45.2115C121.604 44.6064 121.229 43.8572 120.667 43.497C120.106 43.1368 119.414 43.0648 118.737 42.9927C122.757 42.9927 126.776 43.0071 130.81 43.0071C134.023 43.0071 137.251 43.0215 140.464 42.9783C143.849 42.9351 147.307 42.8486 150.477 41.6672C151.096 41.4367 151.774 41.0765 151.889 40.4282C152.004 39.8086 151.5 39.2035 150.895 38.9874C150.304 38.7713 149.641 38.8433 149.022 38.9298C150.621 38.8577 151.183 36.4228 150.117 35.2414C149.036 34.0456 147.192 33.9591 145.636 34.3481C144.08 34.7371 142.625 35.5007 141.04 35.7313C140.55 34.8092 139.858 33.9879 139.037 33.3396C138.043 35.3134 136.458 36.9847 134.513 38.0509C131.819 39.5205 128.131 39.6645 125.249 38.6272C126.474 37.4314 127.41 35.9041 127.915 34.2761C127.886 34.3481 127.857 34.4346 127.828 34.5066C128.145 33.1811 127.987 31.8124 127.511 30.5445C127.021 32.3166 126.33 34.0312 125.177 35.4575C123.664 37.3161 121.172 38.5696 118.852 37.9933C117.8 37.7339 116.864 37.1288 116.057 36.4084C113.55 34.132 112.484 30.3428 113.435 27.1587C111.23 28.4986 109.473 30.4869 108.853 32.8065C108.853 35.0685 109.804 37.3161 111.461 38.8577C107.931 39.9671 103.796 39.9095 100.309 38.6992C101.347 40.0824 102.845 41.1197 104.516 41.6096C101.001 42.8486 97.0245 42.7766 93.5522 41.3935C92.5869 41.0045 91.5784 40.4426 91.2326 39.4628C90.8868 38.4687 91.3623 37.3305 92.1259 36.6101C92.2123 36.5381 92.2844 36.466 92.3708 36.394C90.786 36.711 89.2299 37.5034 88.3223 38.8001Z" fill="#F5FBFF"/>
</svg>
