<svg width="61" height="61" viewBox="0 0 61 61" fill="none" xmlns="http://www.w3.org/2000/svg">
<g clip-path="url(#clip0_82_76248)">
<path d="M30.5 60.5C47.0685 60.5 60.5 47.0685 60.5 30.5C60.5 13.9315 47.0685 0.5 30.5 0.5C13.9315 0.5 0.5 13.9315 0.5 30.5C0.5 47.0685 13.9315 60.5 30.5 60.5Z" fill="#E3F2FB"/>
<path d="M51.2119 17.8936V31.9406C50.4424 31.7471 49.6523 31.6484 48.8589 31.6465C47.2303 31.6464 45.6286 32.0622 44.2056 32.8545C42.7827 33.6467 41.5856 34.7892 40.7278 36.1737C39.87 37.5581 39.38 39.1387 39.3041 40.7656C39.2282 42.3924 39.569 44.0117 40.2942 45.47L30.9766 50.2583V25.5053L51.2119 17.8936Z" fill="#FBFBFB"/>
<path d="M45.7835 14.5817H45.7012V14.5464L45.7835 14.5817Z" fill="#FBFBFB"/>
<g opacity="0.2">
<path opacity="0.2" d="M9.78906 17.5292L30.8244 25.3998L51.2126 17.8939L30.2361 10.741L9.78906 17.5292Z" fill="#FBFBFB"/>
</g>
<path d="M9.78906 17.5292L30.8244 25.3998L51.2126 17.8939L30.2361 10.741L9.78906 17.5292Z" fill="#CECECE"/>
<path d="M30.8239 25.7941C30.7809 25.7998 30.7374 25.7998 30.6945 25.7941L9.65918 17.8883C9.5859 17.8597 9.52304 17.8095 9.47892 17.7443C9.4348 17.6792 9.4115 17.6022 9.41212 17.5236C9.41344 17.4459 9.43914 17.3706 9.48558 17.3083C9.53203 17.246 9.59687 17.1999 9.67095 17.1765L30.118 10.3824C30.1962 10.3559 30.281 10.3559 30.3592 10.3824L51.3356 17.5589C51.4096 17.5836 51.4738 17.631 51.5192 17.6944C51.5646 17.7578 51.5889 17.8338 51.5886 17.9118C51.5915 17.9902 51.569 18.0675 51.5245 18.1322C51.48 18.1968 51.4158 18.2454 51.3415 18.2706L30.9592 25.753C30.9172 25.7754 30.8712 25.7894 30.8239 25.7941ZM10.9239 17.5589L30.8298 24.9941L50.0827 17.9353L30.2356 11.1412L10.9239 17.5589Z" fill="#B0B0B0"/>
<path d="M30.9702 50.6352C30.9235 50.6434 30.8757 50.6434 30.829 50.6352C30.7598 50.6072 30.7005 50.5592 30.6586 50.4974C30.6167 50.4356 30.5941 50.3628 30.5938 50.2881V25.5822C30.5946 25.5115 30.6148 25.4423 30.6521 25.3822C30.6894 25.322 30.7425 25.2732 30.8055 25.2411H30.8467L51.0879 17.5587C51.1448 17.5375 51.206 17.5302 51.2664 17.5373C51.3267 17.5445 51.3845 17.5659 51.4349 17.5999C51.4861 17.6341 51.528 17.6805 51.5567 17.7349C51.5855 17.7894 51.6002 17.8501 51.5996 17.9117V32.3528C51.5996 32.4527 51.56 32.5484 51.4894 32.619C51.4188 32.6896 51.323 32.7293 51.2232 32.7293C51.1233 32.7293 51.0276 32.6896 50.957 32.619C50.8864 32.5484 50.8467 32.4527 50.8467 32.3528V18.4411L31.3467 25.794V49.6411L40.4526 44.9352C40.4968 44.9105 40.5456 44.895 40.5959 44.8896C40.6463 44.8842 40.6972 44.8891 40.7457 44.9038C40.7941 44.9186 40.8391 44.9429 40.8779 44.9755C40.9167 45.008 40.9486 45.0481 40.9715 45.0932C40.9945 45.1384 41.0081 45.1877 41.0116 45.2382C41.0151 45.2888 41.0083 45.3395 40.9917 45.3873C40.9751 45.4352 40.949 45.4792 40.915 45.5167C40.881 45.5543 40.8397 45.5845 40.7938 45.6058L31.1526 50.594L31.0467 50.6293L30.9702 50.6352Z" fill="#B0B0B0"/>
<path d="M9.78906 39.4462L30.9773 50.258V25.505L9.78906 17.5286V39.4462Z" fill="#B0B0B0"/>
<path d="M30.9778 50.6361C30.9183 50.6372 30.8596 50.623 30.8072 50.5949L9.63069 39.7831C9.56921 39.7511 9.51757 39.703 9.48131 39.644C9.44504 39.5849 9.42551 39.5171 9.42481 39.4478V17.5596C9.42472 17.4981 9.43969 17.4376 9.4684 17.3832C9.49711 17.3289 9.53869 17.2824 9.58951 17.2478C9.63929 17.2125 9.69715 17.1902 9.75779 17.183C9.81842 17.1758 9.8799 17.1839 9.93657 17.2067L31.0895 25.1537C31.1608 25.1811 31.222 25.2296 31.2651 25.2926C31.3081 25.3557 31.331 25.4303 31.3307 25.5067V50.2596C31.3315 50.3241 31.3157 50.3878 31.2848 50.4444C31.2538 50.5011 31.2089 50.5488 31.1542 50.5831C31.1002 50.6141 31.0399 50.6322 30.9778 50.6361V50.6361ZM10.166 39.2184L30.6013 49.6478V25.7949L10.166 18.0772V39.2184Z" fill="#B0B0B0"/>
<path d="M21.641 21.3058C21.5508 21.3068 21.4633 21.2753 21.3944 21.2171C21.3255 21.1589 21.2797 21.0779 21.2655 20.9889C21.2512 20.8998 21.2694 20.8086 21.3167 20.7318C21.3641 20.6551 21.4374 20.5978 21.5234 20.5705L40.3175 14.1529C40.3642 14.1363 40.4137 14.1293 40.4632 14.1322C40.5126 14.1352 40.561 14.148 40.6054 14.1699C40.6498 14.1918 40.6894 14.2225 40.7218 14.26C40.7542 14.2974 40.7787 14.3411 40.794 14.3882C40.8257 14.4826 40.8188 14.5857 40.7747 14.675C40.7306 14.7643 40.6529 14.8325 40.5587 14.8647L21.7645 21.2882L21.641 21.3058Z" fill="#B0B0B0"/>
<path d="M42.3473 14.4413L40.4767 15.206L40.3237 15.259L40.0355 15.3531L39.8002 15.4354L39.7473 15.3001L39.459 15.2766L39.3708 15.1413L38.9884 15.1119L38.9061 14.9531L38.4826 14.9237L38.4237 14.7296L38.0708 14.7119L37.9531 14.5825H37.6237L37.5649 14.4413L37.4473 14.359L39.7531 13.5884L42.3473 14.4413Z" fill="#FBFBFB"/>
<path d="M24.8062 20.9942L22.4533 21.8589V27.0295L19.9121 25.9824V20.9118L21.7827 20.1471L21.9298 20.0942L22.218 20.0001L22.4533 19.9236L22.5062 20.053L22.7945 20.0765L22.8827 20.2177L23.2651 20.2412L23.3474 20.4001L23.7709 20.4295L23.8298 20.6236L24.1886 20.6412L24.3003 20.7706H24.6356L24.6886 20.9118L24.8062 20.9942Z" fill="#FBFBFB"/>
<path d="M48.8525 48.9707C53.1311 48.9707 56.5996 45.5022 56.5996 41.2236C56.5996 36.945 53.1311 33.4766 48.8525 33.4766C44.5739 33.4766 41.1055 36.945 41.1055 41.2236C41.1055 45.5022 44.5739 48.9707 48.8525 48.9707Z" fill="#AB0000"/>
<path d="M45.5123 45.794C45.3886 45.7951 45.266 45.7712 45.1517 45.7237C45.0375 45.6762 44.9341 45.6061 44.8476 45.5175C44.7598 45.4306 44.69 45.3271 44.6424 45.213C44.5948 45.0989 44.5703 44.9765 44.5703 44.8528C44.5703 44.7292 44.5948 44.6068 44.6424 44.4927C44.69 44.3786 44.7598 44.2751 44.8476 44.1881L52.0712 36.9352C52.1568 36.8407 52.2607 36.7646 52.3766 36.7115C52.4925 36.6584 52.618 36.6294 52.7455 36.6263C52.8729 36.6231 52.9997 36.6459 53.1181 36.6933C53.2364 36.7406 53.344 36.8115 53.4341 36.9016C53.5243 36.9918 53.5952 37.0993 53.6425 37.2177C53.6899 37.3361 53.7126 37.4629 53.7095 37.5903C53.7064 37.7178 53.6774 37.8433 53.6243 37.9592C53.5712 38.0751 53.4951 38.179 53.4006 38.2646L46.177 45.4881C46.0931 45.582 45.9908 45.6576 45.8765 45.7102C45.7621 45.7628 45.6382 45.7914 45.5123 45.794V45.794Z" fill="#FBFBFB"/>
<path d="M52.7345 45.7942C52.6108 45.7953 52.4881 45.7714 52.3739 45.7239C52.2597 45.6764 52.1562 45.6062 52.0698 45.5177L44.8463 38.2648C44.684 38.0857 44.5969 37.8512 44.6028 37.6097C44.6088 37.3681 44.7074 37.1382 44.8782 36.9673C45.049 36.7965 45.279 36.6979 45.5205 36.6919C45.7621 36.686 45.9966 36.7731 46.1757 36.9354L53.3992 44.1589C53.4871 44.2459 53.5568 44.3494 53.6044 44.4635C53.652 44.5776 53.6765 44.7 53.6765 44.8236C53.6765 44.9472 53.652 45.0696 53.6044 45.1837C53.5568 45.2978 53.4871 45.4013 53.3992 45.4883C53.3153 45.5822 53.213 45.6577 53.0986 45.7104C52.9843 45.763 52.8603 45.7915 52.7345 45.7942V45.7942Z" fill="#FBFBFB"/>
<circle cx="30.5" cy="30.198" r="30" fill="#A5A3A3" style="mix-blend-mode:color"/>
</g>
<defs>
<clipPath id="clip0_82_76248">
<rect width="60" height="60" fill="white" transform="translate(0.5 0.5)"/>
</clipPath>
</defs>
</svg>
