<svg width="60" height="60" viewBox="0 0 60 60" fill="none" xmlns="http://www.w3.org/2000/svg">
<g opacity="0.8" clip-path="url(#clip0_6708_318326)">
<path d="M30 60C46.5685 60 60 46.5685 60 30C60 13.4315 46.5685 0 30 0C13.4315 0 0 13.4315 0 30C0 46.5685 13.4315 60 30 60Z" fill="#EAEAEA" fill-opacity="0.6"/>
<path d="M50.7117 17.3941V31.4412C49.9423 31.2477 49.1522 31.1489 48.3588 31.147C46.7301 31.147 45.1285 31.5628 43.7055 32.355C42.2825 33.1473 41.0855 34.2898 40.2277 35.6742C39.3699 37.0587 38.8799 38.6392 38.804 40.2661C38.7281 41.893 39.0689 43.5123 39.7941 44.9706L30.4764 49.7588V25.0059L50.7117 17.3941Z" fill="white"/>
<path d="M45.2823 14.0824H45.2V14.0471L45.2823 14.0824Z" fill="white"/>
<g opacity="0.2">
<path opacity="0.2" d="M9.28821 17.0294L30.3235 24.9L50.7117 17.3941L29.7353 10.2411L9.28821 17.0294Z" fill="white"/>
</g>
<path d="M9.28821 17.0294L30.3235 24.9L50.7117 17.3941L29.7353 10.2411L9.28821 17.0294Z" fill="#383838" fill-opacity="0.2"/>
<path d="M30.3235 25.2941C30.2806 25.2997 30.2371 25.2997 30.1941 25.2941L9.15881 17.3882C9.08553 17.3596 9.02267 17.3094 8.97855 17.2443C8.93443 17.1792 8.91114 17.1022 8.91176 17.0235C8.91307 16.9458 8.93877 16.8705 8.98522 16.8082C9.03166 16.746 9.0965 16.6999 9.17058 16.6764L29.6176 9.88232C29.6959 9.85588 29.7806 9.85588 29.8588 9.88232L50.8353 17.0588C50.9092 17.0835 50.9734 17.131 51.0189 17.1943C51.0643 17.2577 51.0885 17.3338 51.0882 17.4117C51.0911 17.4902 51.0687 17.5674 51.0242 17.6321C50.9797 17.6967 50.9155 17.7453 50.8412 17.7706L30.4588 25.2529C30.4168 25.2753 30.3709 25.2893 30.3235 25.2941ZM10.4235 17.0588L30.3294 24.4941L49.5823 17.4353L29.7353 10.6411L10.4235 17.0588Z" fill="#F58520"/>
<path d="M30.4706 50.1353C30.4239 50.1436 30.3761 50.1436 30.3294 50.1353C30.2602 50.1073 30.2009 50.0594 30.159 49.9976C30.1171 49.9358 30.0945 49.8629 30.0941 49.7882V25.0824C30.095 25.0116 30.1151 24.9424 30.1525 24.8823C30.1898 24.8221 30.2428 24.7734 30.3059 24.7412H30.3471L50.5882 17.0588C50.6452 17.0376 50.7064 17.0303 50.7667 17.0375C50.8271 17.0446 50.8849 17.0661 50.9353 17.1C50.9865 17.1342 51.0283 17.1806 51.0571 17.2351C51.0859 17.2895 51.1006 17.3502 51.1 17.4118V31.853C51.1 31.9528 51.0603 32.0486 50.9897 32.1192C50.9191 32.1898 50.8234 32.2294 50.7235 32.2294C50.6237 32.2294 50.5279 32.1898 50.4573 32.1192C50.3867 32.0486 50.3471 31.9528 50.3471 31.853V17.9412L30.8471 25.2941V49.1412L39.9529 44.4353C39.9972 44.4106 40.0459 44.3951 40.0963 44.3897C40.1467 44.3843 40.1976 44.3892 40.246 44.4039C40.2945 44.4187 40.3395 44.4431 40.3783 44.4756C40.4171 44.5082 40.4489 44.5482 40.4719 44.5934C40.4949 44.6385 40.5085 44.6878 40.512 44.7383C40.5154 44.7889 40.5087 44.8396 40.4921 44.8874C40.4755 44.9353 40.4494 44.9793 40.4154 45.0169C40.3813 45.0544 40.3401 45.0847 40.2941 45.1059L30.6529 50.0941L30.5471 50.1294L30.4706 50.1353Z" fill="#F58520"/>
<path d="M9.28821 38.9471L30.4764 49.7588V25.0059L9.28821 17.0294V38.9471Z" fill="#F58520"/>
<path d="M30.4765 50.1353C30.4171 50.1364 30.3583 50.1222 30.3059 50.0941L9.12947 39.2823C9.06798 39.2503 9.01635 39.2023 8.98009 39.1432C8.94382 39.0841 8.92429 39.0163 8.92358 38.947V17.0588C8.9235 16.9973 8.93847 16.9368 8.96718 16.8824C8.99589 16.8281 9.03747 16.7816 9.08829 16.747C9.13807 16.7117 9.19593 16.6894 9.25657 16.6822C9.3172 16.675 9.37868 16.6831 9.43535 16.7059L30.5883 24.6529C30.6595 24.6804 30.7208 24.7288 30.7638 24.7918C30.8069 24.8549 30.8298 24.9295 30.8295 25.0059V49.7588C30.8302 49.8233 30.8144 49.887 30.7835 49.9436C30.7526 50.0003 30.7077 50.048 30.653 50.0823C30.599 50.1133 30.5386 50.1314 30.4765 50.1353ZM9.66476 38.7176L30.1001 49.147V25.2941L9.66476 17.5764V38.7176Z" fill="#F58520"/>
<path d="M15.1 31.0588L22.5235 30.9706L18.3588 33.6882L14.5882 31.8118C14.2353 31.6412 14.6294 31.0647 15.1 31.0588Z" fill="white"/>
<path d="M14.5942 31.8118L18.3589 33.6883L14.4648 31.5412C14.4442 31.5921 14.4442 31.6491 14.4648 31.7C14.4928 31.7518 14.5389 31.7916 14.5942 31.8118Z" fill="#F58520" fill-opacity="0.4"/>
<path d="M19.7411 37.5353L22.5235 30.9706L18.3588 33.6882L18.8235 37.7118C18.8646 38.1 19.5588 37.9529 19.7411 37.5353Z" fill="#E2E2E2"/>
<path d="M18.8235 37.7235C18.8249 37.7791 18.8481 37.8319 18.8882 37.8706C18.9313 37.9073 18.9847 37.9299 19.0411 37.9353L18.3588 33.6941L18.8235 37.7235Z" fill="#F58520" fill-opacity="0.4"/>
<path d="M18.3588 33.6882L17.3647 33.1941L17.0588 34.5294L18.4883 34.8411L18.3588 33.6882Z" fill="#EAEAEA"/>
<path d="M22.5235 30.9706L18.3588 33.6882C18.3588 33.6882 19.0411 33.1353 22.5235 30.9706Z" fill="#F58520" fill-opacity="0.4"/>
<path d="M21.1411 20.8059C21.0509 20.8068 20.9634 20.7753 20.8945 20.7171C20.8256 20.659 20.7798 20.578 20.7656 20.4889C20.7513 20.3999 20.7695 20.3087 20.8169 20.2319C20.8642 20.1551 20.9375 20.0979 21.0235 20.0706L39.8176 13.653C39.8643 13.6364 39.9138 13.6294 39.9633 13.6323C40.0127 13.6352 40.0611 13.648 40.1055 13.67C40.15 13.6919 40.1895 13.7225 40.2219 13.76C40.2543 13.7975 40.2788 13.8411 40.2941 13.8883C40.3259 13.9826 40.3189 14.0858 40.2748 14.1751C40.2307 14.2644 40.153 14.3326 40.0588 14.3647L21.2647 20.7883L21.1411 20.8059Z" fill="#F58520"/>
<path d="M41.847 13.9412L39.9764 14.7059L39.8235 14.7588L39.5353 14.853L39.3 14.9353L39.247 14.8L38.9588 14.7765L38.8706 14.6412L38.4882 14.6118L38.4058 14.453L37.9823 14.4236L37.9235 14.2294L37.5705 14.2118L37.4529 14.0824H37.1235L37.0647 13.9412L36.947 13.8588L39.2529 13.0883L41.847 13.9412Z" fill="white"/>
<path d="M24.3059 20.4941L21.9529 21.3588V26.5294L19.4117 25.4823V20.4118L21.2823 19.6471L21.4294 19.5941L21.7176 19.5L21.9529 19.4235L22.0059 19.5529L22.2941 19.5765L22.3823 19.7176L22.7647 19.7412L22.847 19.9L23.2706 19.9294L23.3294 20.1235L23.6882 20.1412L23.8 20.2706H24.1353L24.1882 20.4118L24.3059 20.4941Z" fill="white"/>
<path d="M48.3529 48.4706C52.6315 48.4706 56.1 45.0021 56.1 40.7235C56.1 36.4449 52.6315 32.9764 48.3529 32.9764C44.0743 32.9764 40.6058 36.4449 40.6058 40.7235C40.6058 45.0021 44.0743 48.4706 48.3529 48.4706Z" fill="#D22119"/>
<path d="M45.0117 45.2941C44.888 45.2952 44.7653 45.2713 44.6511 45.2238C44.5369 45.1763 44.4335 45.1062 44.347 45.0177C44.2592 44.9307 44.1894 44.8272 44.1418 44.7131C44.0942 44.599 44.0697 44.4766 44.0697 44.353C44.0697 44.2293 44.0942 44.1069 44.1418 43.9928C44.1894 43.8788 44.2592 43.7752 44.347 43.6883L51.5705 36.4353C51.6562 36.3408 51.7601 36.2647 51.876 36.2116C51.9919 36.1585 52.1174 36.1295 52.2448 36.1264C52.3723 36.1232 52.4991 36.146 52.6174 36.1934C52.7358 36.2407 52.8434 36.3116 52.9335 36.4018C53.0237 36.4919 53.0946 36.5994 53.1419 36.7178C53.1892 36.8362 53.212 36.963 53.2089 37.0904C53.2058 37.2179 53.1768 37.3434 53.1236 37.4593C53.0705 37.5752 52.9944 37.6791 52.9 37.7647L45.6764 44.9883C45.5925 45.0821 45.4902 45.1577 45.3759 45.2103C45.2615 45.2629 45.1376 45.2915 45.0117 45.2941Z" fill="white"/>
<path d="M52.2353 45.2941C52.1116 45.2952 51.989 45.2713 51.8748 45.2238C51.7605 45.1763 51.6571 45.1062 51.5706 45.0177L44.3471 37.7647C44.1849 37.5857 44.0977 37.3511 44.1037 37.1096C44.1096 36.8681 44.2082 36.6381 44.3791 36.4673C44.5499 36.2964 44.7799 36.1978 45.0214 36.1919C45.2629 36.1859 45.4975 36.2731 45.6765 36.4353L52.9001 43.6588C52.9879 43.7458 53.0577 43.8493 53.1053 43.9634C53.1529 44.0775 53.1774 44.1999 53.1774 44.3235C53.1774 44.4472 53.1529 44.5696 53.1053 44.6837C53.0577 44.7978 52.9879 44.9013 52.9001 44.9882C52.8162 45.0821 52.7139 45.1577 52.5995 45.2103C52.4852 45.2629 52.3612 45.2915 52.2353 45.2941Z" fill="white"/>
<circle cx="30.1132" cy="29.8868" r="30.1132" fill="#A5A3A3" style="mix-blend-mode:color"/>
</g>
<defs>
<clipPath id="clip0_6708_318326">
<rect width="60" height="60" fill="white"/>
</clipPath>
</defs>
</svg>
