<svg width="60" height="60" viewBox="0 0 60 60" fill="none" xmlns="http://www.w3.org/2000/svg">
<g clip-path="url(#clip0_82_74805)">
<path d="M30 60C46.5685 60 60 46.5685 60 30C60 13.4315 46.5685 0 30 0C13.4315 0 0 13.4315 0 30C0 46.5685 13.4315 60 30 60Z" fill="#E3F2FB"/>
<path d="M50.7119 17.3936V31.4406C49.9424 31.2471 49.1523 31.1484 48.3589 31.1465C46.7303 31.1464 45.1286 31.5622 43.7056 32.3545C42.2827 33.1467 41.0856 34.2892 40.2278 35.6737C39.37 37.0581 38.88 38.6387 38.8041 40.2656C38.7282 41.8924 39.069 43.5117 39.7942 44.97L30.4766 49.7583V25.0053L50.7119 17.3936Z" fill="#FBFBFB"/>
<path d="M45.2835 14.0817H45.2012V14.0464L45.2835 14.0817Z" fill="#FBFBFB"/>
<g opacity="0.2">
<path opacity="0.2" d="M9.28906 17.029L30.3244 24.8995L50.7126 17.3937L29.7361 10.2407L9.28906 17.029Z" fill="#FBFBFB"/>
</g>
<path d="M9.28906 17.029L30.3244 24.8995L50.7126 17.3937L29.7361 10.2407L9.28906 17.029Z" fill="#CECECE"/>
<path d="M30.3239 25.2941C30.2809 25.2998 30.2374 25.2998 30.1945 25.2941L9.15918 17.3883C9.0859 17.3597 9.02304 17.3095 8.97892 17.2443C8.9348 17.1792 8.9115 17.1022 8.91212 17.0236C8.91344 16.9459 8.93914 16.8706 8.98558 16.8083C9.03203 16.746 9.09687 16.6999 9.17095 16.6765L29.618 9.88238C29.6962 9.85594 29.781 9.85594 29.8592 9.88238L50.8356 17.0589C50.9096 17.0836 50.9738 17.131 51.0192 17.1944C51.0646 17.2578 51.0889 17.3338 51.0886 17.4118C51.0915 17.4902 51.069 17.5675 51.0245 17.6322C50.98 17.6968 50.9158 17.7454 50.8415 17.7706L30.4592 25.253C30.4172 25.2754 30.3712 25.2894 30.3239 25.2941ZM10.4239 17.0589L30.3298 24.4941L49.5827 17.4353L29.7356 10.6412L10.4239 17.0589Z" fill="#005895"/>
<path d="M30.4702 50.1352C30.4235 50.1434 30.3757 50.1434 30.329 50.1352C30.2598 50.1072 30.2005 50.0592 30.1586 49.9974C30.1167 49.9356 30.0941 49.8628 30.0938 49.7881V25.0822C30.0946 25.0115 30.1148 24.9423 30.1521 24.8822C30.1894 24.822 30.2425 24.7732 30.3055 24.7411H30.3467L50.5879 17.0587C50.6448 17.0375 50.706 17.0302 50.7664 17.0373C50.8267 17.0445 50.8845 17.0659 50.9349 17.0999C50.9861 17.1341 51.028 17.1805 51.0567 17.2349C51.0855 17.2894 51.1002 17.3501 51.0996 17.4117V31.8528C51.0996 31.9527 51.06 32.0484 50.9894 32.119C50.9188 32.1896 50.823 32.2293 50.7232 32.2293C50.6233 32.2293 50.5276 32.1896 50.457 32.119C50.3864 32.0484 50.3467 31.9527 50.3467 31.8528V17.9411L30.8467 25.294V49.1411L39.9526 44.4352C39.9968 44.4105 40.0456 44.395 40.0959 44.3896C40.1463 44.3842 40.1972 44.3891 40.2457 44.4038C40.2941 44.4186 40.3391 44.4429 40.3779 44.4755C40.4167 44.508 40.4486 44.5481 40.4715 44.5932C40.4945 44.6384 40.5081 44.6877 40.5116 44.7382C40.5151 44.7888 40.5083 44.8395 40.4917 44.8873C40.4751 44.9352 40.449 44.9792 40.415 45.0167C40.381 45.0543 40.3397 45.0845 40.2938 45.1058L30.6526 50.094L30.5467 50.1293L30.4702 50.1352Z" fill="#005895"/>
<path d="M9.28906 38.9465L30.4773 49.7582V25.0053L9.28906 17.0288V38.9465Z" fill="#005895"/>
<path d="M30.4768 50.1358C30.4173 50.1369 30.3586 50.1228 30.3062 50.0946L9.12971 39.2829C9.06823 39.2509 9.0166 39.2028 8.98033 39.1437C8.94407 39.0847 8.92454 39.0169 8.92383 38.9476V17.0593C8.92375 16.9979 8.93872 16.9373 8.96743 16.883C8.99614 16.8286 9.03772 16.7822 9.08853 16.7476C9.13831 16.7122 9.19617 16.6899 9.25681 16.6827C9.31745 16.6755 9.37892 16.6837 9.43559 16.7064L30.5885 24.6535C30.6598 24.6809 30.721 24.7294 30.7641 24.7924C30.8072 24.8554 30.83 24.9301 30.8297 25.0064V49.7593C30.8305 49.8239 30.8147 49.8875 30.7838 49.9442C30.7529 50.0008 30.7079 50.0486 30.6532 50.0829C30.5993 50.1138 30.5389 50.1319 30.4768 50.1358V50.1358ZM9.66501 38.7182L30.1003 49.1476V25.2946L9.66501 17.577V38.7182Z" fill="#005895"/>
<path d="M21.141 20.8058C21.0508 20.8068 20.9633 20.7753 20.8944 20.7171C20.8255 20.6589 20.7797 20.5779 20.7655 20.4889C20.7512 20.3998 20.7694 20.3086 20.8167 20.2318C20.8641 20.1551 20.9374 20.0978 21.0234 20.0705L39.8175 13.6529C39.8642 13.6363 39.9137 13.6293 39.9632 13.6322C40.0126 13.6352 40.061 13.648 40.1054 13.6699C40.1498 13.6918 40.1894 13.7225 40.2218 13.76C40.2542 13.7974 40.2787 13.8411 40.294 13.8882C40.3257 13.9826 40.3188 14.0857 40.2747 14.175C40.2306 14.2643 40.1529 14.3325 40.0587 14.3647L21.2645 20.7882L21.141 20.8058Z" fill="#005895"/>
<path d="M41.8473 13.9413L39.9767 14.706L39.8237 14.759L39.5355 14.8531L39.3002 14.9354L39.2473 14.8001L38.959 14.7766L38.8708 14.6413L38.4884 14.6119L38.4061 14.4531L37.9826 14.4237L37.9237 14.2296L37.5708 14.2119L37.4531 14.0825H37.1237L37.0649 13.9413L36.9473 13.859L39.2531 13.0884L41.8473 13.9413Z" fill="#FBFBFB"/>
<path d="M24.3062 20.4942L21.9533 21.3589V26.5295L19.4121 25.4824V20.4118L21.2827 19.6471L21.4298 19.5942L21.718 19.5001L21.9533 19.4236L22.0062 19.553L22.2945 19.5765L22.3827 19.7177L22.7651 19.7412L22.8474 19.9001L23.2709 19.9295L23.3298 20.1236L23.6886 20.1412L23.8003 20.2706H24.1356L24.1886 20.4118L24.3062 20.4942Z" fill="#FBFBFB"/>
<path d="M48.3525 48.4707C52.6311 48.4707 56.0996 45.0022 56.0996 40.7236C56.0996 36.445 52.6311 32.9766 48.3525 32.9766C44.0739 32.9766 40.6055 36.445 40.6055 40.7236C40.6055 45.0022 44.0739 48.4707 48.3525 48.4707Z" fill="#AB0000"/>
<path d="M45.0114 45.294C44.8876 45.2951 44.765 45.2712 44.6508 45.2237C44.5365 45.1762 44.4331 45.1061 44.3466 45.0175C44.2588 44.9306 44.189 44.8271 44.1414 44.713C44.0938 44.5989 44.0693 44.4765 44.0693 44.3528C44.0693 44.2292 44.0938 44.1068 44.1414 43.9927C44.189 43.8786 44.2588 43.7751 44.3466 43.6881L51.5702 36.4352C51.6558 36.3407 51.7597 36.2646 51.8756 36.2115C51.9915 36.1584 52.117 36.1294 52.2445 36.1263C52.3719 36.1231 52.4987 36.1459 52.6171 36.1933C52.7355 36.2406 52.843 36.3115 52.9332 36.4016C53.0233 36.4918 53.0942 36.5993 53.1415 36.7177C53.1889 36.8361 53.2117 36.9629 53.2085 37.0903C53.2054 37.2178 53.1764 37.3433 53.1233 37.4592C53.0702 37.5751 52.9941 37.679 52.8996 37.7646L45.6761 44.9881C45.5922 45.082 45.4899 45.1576 45.3755 45.2102C45.2612 45.2628 45.1372 45.2914 45.0114 45.294V45.294Z" fill="#FBFBFB"/>
<path d="M52.2355 45.2942C52.1118 45.2953 51.9891 45.2714 51.8749 45.2239C51.7606 45.1764 51.6572 45.1062 51.5708 45.0177L44.3472 37.7648C44.185 37.5857 44.0979 37.3512 44.1038 37.1097C44.1097 36.8681 44.2083 36.6382 44.3792 36.4673C44.55 36.2965 44.78 36.1979 45.0215 36.1919C45.263 36.186 45.4976 36.2731 45.6766 36.4354L52.9002 43.6589C52.988 43.7459 53.0578 43.8494 53.1054 43.9635C53.153 44.0776 53.1775 44.2 53.1775 44.3236C53.1775 44.4472 53.153 44.5696 53.1054 44.6837C53.0578 44.7978 52.988 44.9013 52.9002 44.9883C52.8163 45.0822 52.714 45.1577 52.5996 45.2104C52.4853 45.263 52.3613 45.2915 52.2355 45.2942V45.2942Z" fill="#FBFBFB"/>
</g>
<defs>
<clipPath id="clip0_82_74805">
<rect width="60" height="60" fill="white"/>
</clipPath>
</defs>
</svg>
