<svg width="80" height="80" viewBox="0 0 80 80" fill="none" xmlns="http://www.w3.org/2000/svg">
<path d="M80 40C80 62.0914 62.0914 80 40 80C17.9086 80 0 62.0914 0 40C0 17.9086 17.9086 0 40 0C62.0914 0 80 17.9086 80 40ZM4 40C4 59.8823 20.1177 76 40 76C59.8823 76 76 59.8823 76 40C76 20.1177 59.8823 4 40 4C20.1177 4 4 20.1177 4 40Z" fill="#E5E5E5"/>
<rect x="10" y="10" width="60" height="60" rx="30" fill="#FFEFEE"/>
<path d="M49.5987 29.3333H44.7987C44.2096 29.3333 43.732 29.7674 43.732 30.3029V49.6969C43.732 50.2324 44.2096 50.6666 44.7987 50.6666H49.5987C50.1878 50.6666 50.6654 50.2324 50.6654 49.6969V30.3029C50.6654 29.7674 50.1878 29.3333 49.5987 29.3333Z" stroke="#D22119" stroke-width="2.66667" stroke-linecap="round" stroke-linejoin="round"/>
<path d="M35.1987 29.3333H30.3987C29.8096 29.3333 29.332 29.7674 29.332 30.3029V49.6969C29.332 50.2324 29.8096 50.6666 30.3987 50.6666H35.1987C35.7878 50.6666 36.2654 50.2324 36.2654 49.6969V30.3029C36.2654 29.7674 35.7878 29.3333 35.1987 29.3333Z" stroke="#D22119" stroke-width="2.66667" stroke-linecap="round" stroke-linejoin="round"/>
<path d="M80 40C80 62.0914 62.0914 80 40 80C17.9086 80 0 62.0914 0 40C0 17.9086 17.9086 0 40 0C62.0914 0 80 17.9086 80 40ZM4 40C4 59.8823 20.1177 76 40 76C59.8823 76 76 59.8823 76 40C76 20.1177 59.8823 4 40 4C20.1177 4 4 20.1177 4 40Z" fill="#D22119"/>
</svg>
