<svg xmlns="http://www.w3.org/2000/svg" width="14.047" height="13.19" viewBox="0 0 14.047 13.19">
    <defs>
        <style>
            .prefix__cls-1{fill:none;stroke:#fff;stroke-linecap:square;stroke-linejoin:round;stroke-miterlimit:10;stroke-width:1.2px}
        </style>
    </defs>
    <g id="prefix__pay_and_refill_icon" data-name="pay and refill icon" transform="translate(-.4 -1.4)">
        <path id="prefix__Path_6075" d="M12.46 9.666V6.272H2.273A1.273 1.273 0 0 1 1 5v8.907a1.7 1.7 0 0 0 1.7 1.7h9.76v-3.396" class="prefix__cls-1" data-name="Path 6075" transform="translate(0 -1.614)"/>
        <path id="prefix__Path_6076" d="M25.622 18.773h-3.236A1.386 1.386 0 0 1 21 17.386 1.386 1.386 0 0 1 22.386 16h3.235z" class="prefix__cls-1" data-name="Path 6076" transform="translate(-11.775 -8.134)"/>
        <path id="prefix__Path_6077" d="M10.705 2.924V2H2.386A1.386 1.386 0 0 0 1 3.386a1.386 1.386 0 0 0 1.386 1.387" class="prefix__cls-1" data-name="Path 6077"/>
    </g>
</svg>
