<svg width="80" height="80" viewBox="0 0 80 80" fill="none" xmlns="http://www.w3.org/2000/svg">
<path d="M80 40C80 62.0914 62.0914 80 40 80C17.9086 80 0 62.0914 0 40C0 17.9086 17.9086 0 40 0C62.0914 0 80 17.9086 80 40ZM4 40C4 59.8823 20.1177 76 40 76C59.8823 76 76 59.8823 76 40C76 20.1177 59.8823 4 40 4C20.1177 4 4 20.1177 4 40Z" fill="#E5E5E5"/>
<rect x="10" y="10" width="60" height="60" rx="30" fill="#F5D5B8"/>
<path d="M40 40L32.4 34.3C32.2765 34.2062 32.1762 34.0853 32.1069 33.9466C32.0375 33.8079 32.001 33.6551 32 33.5V29C32 28.7348 32.1054 28.4804 32.2929 28.2929C32.4804 28.1054 32.7348 28 33 28H47C47.2652 28 47.5196 28.1054 47.7071 28.2929C47.8946 28.4804 48 28.7348 48 29V33.45C47.999 33.6051 47.9625 33.7579 47.8931 33.8966C47.8238 34.0353 47.7235 34.1562 47.6 34.25L40 40ZM40 40L32.4 45.7C32.2765 45.7938 32.1762 45.9147 32.1069 46.0534C32.0375 46.1921 32.001 46.3449 32 46.5M40 40L47.6 45.75C47.7235 45.8438 47.8238 45.9647 47.8931 46.1034C47.9625 46.2421 47.999 46.3949 48 46.55M32 46.5V51C32 51.2652 32.1054 51.5196 32.2929 51.7071C32.4804 51.8946 32.7348 52 33 52H47C47.2652 52 47.5196 51.8946 47.7071 51.7071C47.8946 51.5196 48 51.2652 48 51V46.55M32 46.5L48 46.55" stroke="#F58520" stroke-width="2.66667" stroke-linecap="round" stroke-linejoin="round"/>
<path d="M40 2C40 0.895431 40.896 -0.00522056 41.9992 0.0499442C51.88 0.544027 61.2554 4.68685 68.2843 11.7157C75.7857 19.2172 80 29.3913 80 40C80 50.6087 75.7857 60.7828 68.2843 68.2843C61.2554 75.3131 51.88 79.456 41.9992 79.9501C40.896 80.0052 40 79.1046 40 78C40 76.8954 40.8963 76.0058 41.9992 75.9445C50.8183 75.4543 59.1773 71.7344 65.4558 65.4558C72.2072 58.7045 76 49.5478 76 40C76 30.4522 72.2072 21.2955 65.4558 14.5442C59.1773 8.26558 50.8183 4.54566 41.9992 4.0555C40.8963 3.99421 40 3.10457 40 2Z" fill="#F58520"/>
</svg>
