<svg xmlns="http://www.w3.org/2000/svg" width="45" height="45" viewBox="0 0 45 45">
  <defs>
    <style>
      .cls-1 {
        fill: #f58520;
      }

      .cls-2 {
        fill: none;
        stroke: #fff;
        stroke-linecap: round;
        stroke-linejoin: round;
        stroke-miterlimit: 10;
        stroke-width: 1.5px;
      }
    </style>
  </defs>
  <g id="phone_icon" data-name="phone icon" transform="translate(-90 -735)">
    <rect id="Rectangle_330" data-name="Rectangle 330" class="cls-1" width="45" height="45" transform="translate(90 735)"/>
    <g id="phone_icon-2" data-name="phone icon" transform="translate(60 -665)">
      <path id="Path_100" data-name="Path 100" class="cls-2" d="M18.927,17.748a1.523,1.523,0,0,0,.181-.678.937.937,0,0,0-.271-.7l-2.374-2.374a.973.973,0,0,0-.7-.271,1.523,1.523,0,0,0-.678.181h0l-.023.023a1.379,1.379,0,0,0-.362.271l-.317.565h0A3.2,3.2,0,0,1,13,15.577a1.315,1.315,0,0,1-.972-.407L6.537,9.722A1.407,1.407,0,0,1,6.13,8.75,3.2,3.2,0,0,1,6.944,7.37l.61-.294a1.587,1.587,0,0,0,.475-1.085.99.99,0,0,0-.271-.723L5.384,2.894A1.006,1.006,0,0,0,4.66,2.6a1.523,1.523,0,0,0-.678.181h0l-.045.045a1.379,1.379,0,0,0-.362.271l-.317.565c-.746,1.085-.882,3.911.113,6.082a18.94,18.94,0,0,0,3.459,4.884A24,24,0,0,0,11.692,18.2v.023l.339.158a8.276,8.276,0,0,0,3.437.814,4.4,4.4,0,0,0,2.623-.723l.565-.317a3.563,3.563,0,0,0,.271-.339v-.068Z" transform="translate(41.338 1411.805)"/>
      <path id="Path_101" data-name="Path 101" class="cls-2" d="M42.2,18.837a3.1,3.1,0,0,1,3.708,3.753" transform="translate(10.739 1399.299)"/>
      <path id="Path_102" data-name="Path 102" class="cls-2" d="M48.259,14.731A5.408,5.408,0,0,0,42.2,8.649" transform="translate(10.739 1407.158)"/>
    </g>
  </g>
</svg>
