<svg xmlns="http://www.w3.org/2000/svg" viewBox="10572.354 10734.1 14.426 14.4">
    <defs>
        <style>
            .cls-1{fill:none;stroke:#863399;stroke-linecap:round;stroke-linejoin:round;stroke-miterlimit:10}
        </style>
    </defs>
    <g id="Group_93" data-name="Group 93" transform="translate(10570.338 10745)">
        <path id="Path_100" d="M15.8 14.832a1.23 1.23 0 0 0 .146-.548.756.756 0 0 0-.219-.566L13.805 11.8a.785.785 0 0 0-.566-.219 1.23 1.23 0 0 0-.548.146l-.018.018a1.114 1.114 0 0 0-.292.219l-.256.456a2.582 2.582 0 0 1-1.114.657 1.062 1.062 0 0 1-.785-.329l-4.436-4.4a1.136 1.136 0 0 1-.329-.785 2.582 2.582 0 0 1 .659-1.111l.493-.237A1.282 1.282 0 0 0 7 5.338a.8.8 0 0 0-.219-.584L4.86 2.837a.812.812 0 0 0-.584-.237 1.23 1.23 0 0 0-.548.146l-.037.037A1.114 1.114 0 0 0 3.4 3l-.256.456c-.6.876-.712 3.158.091 4.911a15.294 15.294 0 0 0 2.793 3.943 19.382 19.382 0 0 0 3.925 2.89v.018l.274.128A6.683 6.683 0 0 0 13 16a3.551 3.551 0 0 0 2.118-.584l.456-.256a2.877 2.877 0 0 0 .219-.274v-.055z" class="cls-1" data-name="Path 100" transform="translate(0 -13)"/>
        <path id="Path_101" d="M42.2 18.822a2.5 2.5 0 0 1 2.994 3.031" class="cls-1" data-name="Path 101" transform="translate(-32.32 -26.21)"/>
        <path id="Path_102" d="M47.093 13.551A4.367 4.367 0 0 0 42.2 8.64" class="cls-1" data-name="Path 102" transform="translate(-32.32 -17.908)"/>
    </g>
</svg>
