<svg width="46" height="45" viewBox="0 0 46 45" fill="none" xmlns="http://www.w3.org/2000/svg">
<path d="M45.8396 22.1148C45.8396 33.8632 36.3193 43.8224 24.173 44.3776C11.558 44.9542 0.96875 35.2385 0.96875 22.6564C0.96875 10.0743 11.558 0.102907 24.173 0.37507C36.3193 0.637126 45.8396 10.3665 45.8396 22.1148Z" fill="url(#paint0_linear_11845_540901)"/>
<path d="M44.5018 22.1307C44.5018 33.2003 35.5216 42.5666 24.0869 43.0663C12.2379 43.5842 2.3125 34.4467 2.3125 22.6398C2.3125 10.833 12.2379 1.45594 24.0869 1.6878C35.5216 1.91156 44.5018 11.061 44.5018 22.1307Z" fill="#DAD0DC" fill-opacity="0.6"/>
<path d="M19.4715 23.1917C20.3911 21.9981 20.8511 20.2131 20.8511 17.8362C20.8511 15.563 20.3834 13.8138 19.4483 12.5892C18.5129 11.3647 17.1721 10.7524 15.4258 10.7524C11.8607 10.7524 10.0781 13.1139 10.0781 17.8362C10.0781 20.1512 10.5431 21.9207 11.4732 23.1452C12.4032 24.3698 13.7208 24.9821 15.4258 24.9821C17.2031 24.9821 18.5517 24.3853 19.4715 23.1917ZM15.4568 21.7734C14.94 21.7734 14.5655 21.4506 14.3331 20.8046C14.1005 20.1589 13.9843 19.1797 13.9843 17.8672C13.9843 16.555 14.1005 15.5809 14.3331 14.9454C14.5655 14.3098 14.94 13.9921 15.4568 13.9921C16.4489 13.9921 16.945 15.284 16.945 17.8672C16.945 20.4713 16.4489 21.7734 15.4568 21.7734Z" fill="white"/>
<path d="M35.3233 21.6415C34.388 20.417 33.0472 19.8047 31.3009 19.8047C27.7357 19.8047 25.9531 22.1661 25.9531 26.8885C25.9531 29.193 26.4182 30.9574 27.3482 32.182C28.2782 33.4065 29.5959 34.0188 31.3009 34.0188C33.0782 34.0188 34.4267 33.422 35.3466 32.2285C36.2662 31.0349 36.7262 29.255 36.7262 26.8885C36.7262 24.6152 36.2585 22.8661 35.3233 21.6415ZM31.3319 30.8257C30.815 30.8257 30.4406 30.5028 30.2081 29.8569C29.9756 29.2112 29.8593 28.232 29.8593 26.9195C29.8593 25.6073 29.9756 24.6332 30.2081 23.9976C30.4406 23.3621 30.815 23.0443 31.3319 23.0443C32.3239 23.0443 32.82 24.3362 32.82 26.9195C32.82 29.5236 32.3239 30.8257 31.3319 30.8257Z" fill="white"/>
<path d="M31.1009 11.314C31.0122 11.1636 30.8506 11.0645 30.676 11.0645H28.3776C28.0169 11.0645 27.6846 11.2669 27.5096 11.5823L15.6283 33.0043C15.5436 33.157 15.546 33.3482 15.6346 33.4987C15.7232 33.6492 15.8848 33.7467 16.0594 33.7467H18.6519C18.8311 33.7467 18.9962 33.6461 19.0831 33.4894L31.1071 11.8085C31.1918 11.6557 31.1895 11.4645 31.1009 11.314Z" fill="white"/>
<g style="mix-blend-mode:multiply" opacity="0.3">
<g style="mix-blend-mode:multiply" opacity="0.3">
<path d="M14.3961 12.9317C13.6501 10.5003 13.6843 6.80749 17.3219 1.35156C7.93794 4.05485 0.96875 12.5644 0.96875 22.7437C0.96875 35.3259 11.558 45.0416 24.173 44.465C28.8244 44.2523 33.083 42.6646 36.563 40.1454C36.4552 36.7898 35.7251 33.1168 33.6722 29.7289C28.0273 20.4133 16.7366 20.56 14.3961 12.9317Z" fill="#863399" fill-opacity="0.4"/>
</g>
</g>
<defs>
<linearGradient id="paint0_linear_11845_540901" x1="-14.5229" y1="94.8567" x2="19.3167" y2="30.1674" gradientUnits="userSpaceOnUse">
<stop stop-color="#7C2D8F"/>
<stop offset="0.996403" stop-color="#7A2E8B"/>
</linearGradient>
</defs>
</svg>
