<svg width="60" height="60" viewBox="0 0 60 60" fill="none" xmlns="http://www.w3.org/2000/svg">
<g clip-path="url(#clip0_6708_318218)">
<path d="M30 60C46.5685 60 60 46.5685 60 30C60 13.4315 46.5685 0 30 0C13.4315 0 0 13.4315 0 30C0 46.5685 13.4315 60 30 60Z" fill="#EAEAEA" fill-opacity="0.6"/>
<path d="M45.2823 14.0765H45.2V14.0471L45.2823 14.0765Z" fill="white"/>
<path d="M34.5176 17.4353H25.4823C24.2218 17.4353 23.2 18.4571 23.2 19.7177V40.2824C23.2 41.5429 24.2218 42.5647 25.4823 42.5647H34.5176C35.7781 42.5647 36.8 41.5429 36.8 40.2824V19.7177C36.8 18.4571 35.7781 17.4353 34.5176 17.4353Z" fill="white"/>
<path d="M36.7764 17.4353H23.2V21.7235H36.7764V17.4353Z" fill="#863399" fill-opacity="0.1"/>
<path d="M36.5235 21.7235H23.6352C23.4825 21.7235 23.3588 21.8473 23.3588 22V37.6353C23.3588 37.788 23.4825 37.9117 23.6352 37.9117H36.5235C36.6762 37.9117 36.7999 37.788 36.7999 37.6353V22C36.7999 21.8473 36.6762 21.7235 36.5235 21.7235Z" fill="white"/>
<path d="M36.7941 21.3412H23.2V22.0941H36.7941V21.3412Z" fill="#863399"/>
<path d="M36.7764 37.2529H23.3588V38.0059H36.7764V37.2529Z" fill="#863399"/>
<path d="M23.4764 37.7647H36.4705C36.5439 37.7647 36.6142 37.7938 36.666 37.8457C36.7179 37.8975 36.747 37.9679 36.747 38.0412V40.7765C36.747 41.2445 36.5611 41.6934 36.2301 42.0243C35.8992 42.3553 35.4503 42.5412 34.9823 42.5412H24.8588C24.4188 42.5412 23.9969 42.3664 23.6858 42.0553C23.3747 41.7442 23.2 41.3223 23.2 40.8824V38.0471C23.2 37.9737 23.2291 37.9034 23.2809 37.8516C23.3328 37.7997 23.4031 37.7706 23.4764 37.7706V37.7647Z" fill="#863399" fill-opacity="0.1"/>
<path d="M34.0646 17.6118V42.3882C34.0637 42.4116 34.0677 42.4349 34.0763 42.4567C34.0849 42.4785 34.0979 42.4983 34.1144 42.5148C34.131 42.5314 34.1508 42.5444 34.1725 42.5529C34.1943 42.5615 34.2176 42.5655 34.241 42.5647H35.7528C35.8867 42.5655 36.0193 42.5397 36.1432 42.4888C36.267 42.438 36.3795 42.363 36.4741 42.2684C36.5688 42.1737 36.6437 42.0612 36.6946 41.9374C36.7454 41.8136 36.7712 41.6809 36.7704 41.5471L36.7999 18.4C36.8006 18.2731 36.7762 18.1473 36.728 18.0299C36.6798 17.9125 36.6088 17.8058 36.519 17.7161C36.4293 17.6264 36.3226 17.5553 36.2052 17.5071C36.0879 17.4589 35.9621 17.4345 35.8351 17.4353H34.241C34.2176 17.4345 34.1943 17.4385 34.1725 17.447C34.1508 17.4556 34.131 17.4686 34.1144 17.4851C34.0979 17.5017 34.0849 17.5215 34.0763 17.5433C34.0677 17.565 34.0637 17.5884 34.0646 17.6118Z" fill="#A5A3A3" fill-opacity="0.2"/>
<path d="M32.3824 19.0588H28.1C27.8531 19.0588 27.653 19.259 27.653 19.5059V19.6059C27.653 19.8528 27.8531 20.053 28.1 20.053H32.3824C32.6293 20.053 32.8294 19.8528 32.8294 19.6059V19.5059C32.8294 19.259 32.6293 19.0588 32.3824 19.0588Z" fill="#863399"/>
<path d="M30.0942 41.3353C30.7212 41.3353 31.2295 40.827 31.2295 40.2C31.2295 39.573 30.7212 39.0647 30.0942 39.0647C29.4672 39.0647 28.9589 39.573 28.9589 40.2C28.9589 40.827 29.4672 41.3353 30.0942 41.3353Z" fill="#863399"/>
<path d="M35.3353 42.9412H24.6647C24.1764 42.9412 23.708 42.7472 23.3628 42.4019C23.0175 42.0566 22.8235 41.5883 22.8235 41.1V18.9C22.8235 18.6582 22.8711 18.4188 22.9636 18.1954C23.0562 17.972 23.1918 17.7691 23.3628 17.5981C23.5337 17.4271 23.7367 17.2915 23.9601 17.199C24.1835 17.1065 24.4229 17.0588 24.6647 17.0588H35.3353C35.577 17.0588 35.8165 17.1065 36.0398 17.199C36.2632 17.2915 36.4662 17.4271 36.6372 17.5981C36.8081 17.7691 36.9437 17.972 37.0363 18.1954C37.1288 18.4188 37.1764 18.6582 37.1764 18.9V41.1C37.1764 41.3418 37.1288 41.5812 37.0363 41.8046C36.9437 42.028 36.8081 42.231 36.6372 42.4019C36.4662 42.5729 36.2632 42.7085 36.0398 42.801C35.8165 42.8936 35.577 42.9412 35.3353 42.9412ZM24.6647 17.8118C24.376 17.8118 24.0992 17.9264 23.8952 18.1305C23.6911 18.3346 23.5764 18.6114 23.5764 18.9V41.1C23.5764 41.3886 23.6911 41.6654 23.8952 41.8695C24.0992 42.0736 24.376 42.1883 24.6647 42.1883H35.3353C35.6239 42.1883 35.9007 42.0736 36.1047 41.8695C36.3088 41.6654 36.4235 41.3886 36.4235 41.1V18.9C36.4235 18.6114 36.3088 18.3346 36.1047 18.1305C35.9007 17.9264 35.6239 17.8118 35.3353 17.8118H24.6647Z" fill="#863399"/>
<path d="M30 50.5059C25.5532 50.4974 21.2286 49.0493 17.6732 46.3783C14.1179 43.7072 11.5229 39.9569 10.2765 35.6882C10.2511 35.5054 10.2933 35.3195 10.395 35.1655C10.4968 35.0115 10.6513 34.8998 10.8295 34.8515C11.0076 34.8032 11.1973 34.8214 11.363 34.9029C11.5287 34.9844 11.659 35.1235 11.7294 35.2941C13.0009 39.6933 15.8183 43.4852 19.6633 45.9723C23.5082 48.4593 28.122 49.474 32.6557 48.8297C37.1893 48.1854 41.3378 45.9255 44.3376 42.4657C47.3375 39.006 48.9869 34.5792 48.9824 30C48.9991 29.811 49.0859 29.6352 49.2258 29.5071C49.3657 29.379 49.5486 29.3079 49.7383 29.3079C49.928 29.3079 50.1108 29.379 50.2507 29.5071C50.3906 29.6352 50.4775 29.811 50.4941 30C50.4879 35.4346 48.3271 40.6449 44.4854 44.4888C40.6437 48.3327 35.4346 50.4965 30 50.5059Z" fill="#863399"/>
<path d="M10.2588 29.7235H10.2235C10.1246 29.719 10.0276 29.695 9.93793 29.6529C9.8483 29.6108 9.76785 29.5515 9.70119 29.4783C9.63453 29.4051 9.58297 29.3194 9.54945 29.2262C9.51593 29.1331 9.50112 29.0342 9.50587 28.9353C9.75397 24.1919 11.6406 19.6816 14.8438 16.1743C18.0469 12.667 22.368 10.38 27.0695 9.70383C31.771 9.02763 36.5615 10.0041 40.6233 12.4665C44.685 14.9289 47.7663 18.7247 49.3412 23.2059C49.374 23.2994 49.3881 23.3984 49.3827 23.4973C49.3772 23.5962 49.3524 23.6931 49.3095 23.7824C49.2666 23.8717 49.2066 23.9517 49.1328 24.0178C49.059 24.0839 48.9729 24.1348 48.8794 24.1676C48.7859 24.2005 48.6869 24.2146 48.588 24.2091C48.4891 24.2037 48.3922 24.1788 48.3029 24.136C48.2136 24.0931 48.1336 24.033 48.0675 23.9592C48.0014 23.8854 47.9505 23.7993 47.9176 23.7059C46.4623 19.5515 43.6097 16.0314 39.8471 13.7468C36.0845 11.4623 31.6454 10.555 27.2882 11.18C22.9309 11.8051 18.9258 13.9237 15.9572 17.1738C12.9886 20.424 11.2405 24.6041 11.0118 29C11.0041 29.1945 10.9215 29.3786 10.7811 29.5135C10.6407 29.6484 10.4535 29.7237 10.2588 29.7235Z" fill="#863399"/>
<path d="M8.55294 37.9471C8.41547 37.9483 8.28028 37.9119 8.16203 37.8418C8.04378 37.7717 7.94698 37.6706 7.88213 37.5493C7.81728 37.4281 7.78686 37.2915 7.79415 37.1542C7.80145 37.0169 7.84619 36.8842 7.92352 36.7706L9.99999 33.5588C10.1104 33.3917 10.2825 33.275 10.4787 33.2342C10.6748 33.1934 10.8791 33.2319 11.0471 33.3412L14.2294 35.4177C14.3121 35.4721 14.3832 35.5423 14.4387 35.6243C14.4942 35.7062 14.5331 35.7983 14.553 35.8952C14.5729 35.9922 14.5736 36.0921 14.5549 36.1893C14.5362 36.2865 14.4986 36.3791 14.4441 36.4618C14.3897 36.5444 14.3194 36.6155 14.2375 36.6711C14.1556 36.7266 14.0635 36.7654 13.9665 36.7854C13.8696 36.8053 13.7696 36.8059 13.6724 36.7873C13.5752 36.7686 13.4826 36.7309 13.4 36.6765L10.8529 35.0118L9.15882 37.6C9.09411 37.7032 9.00498 37.7888 8.89931 37.8493C8.79363 37.9099 8.67467 37.9434 8.55294 37.9471Z" fill="#863399"/>
<path d="M48.8235 25.9941C48.6782 25.9984 48.5349 25.9595 48.4117 25.8823L45.2941 23.6706C45.213 23.6134 45.1439 23.5408 45.0909 23.457C45.0378 23.3731 45.0018 23.2796 44.9848 23.1819C44.9679 23.0841 44.9704 22.9839 44.9922 22.8871C45.0139 22.7903 45.0546 22.6987 45.1117 22.6176C45.1689 22.5365 45.2415 22.4675 45.3253 22.4144C45.4092 22.3613 45.5027 22.3253 45.6004 22.3084C45.6982 22.2915 45.7984 22.2939 45.8952 22.3157C45.992 22.3375 46.0836 22.3781 46.1647 22.4353L48.6529 24.2L50.4176 21.6706C50.4715 21.5831 50.5427 21.5075 50.6268 21.4485C50.711 21.3896 50.8063 21.3485 50.907 21.3277C51.0077 21.307 51.1115 21.3071 51.2121 21.328C51.3127 21.3489 51.408 21.3902 51.492 21.4493C51.5761 21.5085 51.6471 21.5842 51.7008 21.6718C51.7545 21.7594 51.7897 21.8571 51.8042 21.9588C51.8188 22.0605 51.8123 22.1642 51.7853 22.2633C51.7582 22.3625 51.7112 22.455 51.647 22.5353L49.4411 25.6823C49.3706 25.7799 49.2777 25.8591 49.1702 25.9134C49.0628 25.9676 48.9439 25.9953 48.8235 25.9941Z" fill="#863399"/>
<circle cx="30.1132" cy="29.8868" r="30.1132" fill="#A5A3A3" style="mix-blend-mode:color"/>
</g>
<defs>
<clipPath id="clip0_6708_318218">
<rect width="60" height="60" fill="white"/>
</clipPath>
</defs>
</svg>
