<svg width="64" height="64" viewBox="0 0 64 64" fill="none" xmlns="http://www.w3.org/2000/svg">
<path d="M32 64.0003C49.6733 64.0003 64.0002 49.6734 64.0002 32.0002C64.0002 14.327 49.6733 0 32 0C14.3268 0 -0.00012207 14.327 -0.00012207 32.0002C-0.00012207 49.6734 14.3268 64.0003 32 64.0003Z" fill="#E6F7EE"/>
<path d="M34.8386 46.7313C34.3383 45.6584 34.055 44.465 34.055 43.2052C34.055 42.4819 34.1514 41.7827 34.3142 41.1137C34.8687 38.9739 36.249 37.1717 38.0934 36.0626C39.0277 35.5021 40.0705 35.1163 41.1976 34.9596V34.9716C41.3001 34.9536 41.3965 34.9355 41.499 34.9294C41.5532 34.9234 41.6075 34.9174 41.6678 34.9114H41.6859V16.8288C41.6859 16.7022 41.6738 16.5816 41.6497 16.4611C41.5412 15.7257 41.1132 15.0868 40.5165 14.683C40.1066 14.4057 39.6124 14.255 39.082 14.255H26.4422C25.9118 14.255 25.4175 14.4117 25.0077 14.683C24.5857 14.9663 24.2482 15.358 24.0493 15.8282C23.9167 16.1416 23.8444 16.4912 23.8444 16.8529V44.6217C23.8444 46.0623 25.0077 47.2316 26.4422 47.2316H35.0857C35.0013 47.0749 34.9109 46.9182 34.8446 46.7555H34.8386V46.7374V46.7313Z" fill="white"/>
<g opacity="0.1">
<path d="M25.4115 14.2491H40.0946C40.9565 14.2491 41.6557 14.9483 41.6557 15.8103V19.8728H23.8444V15.8103C23.8444 14.9483 24.5436 14.2491 25.4055 14.2491H25.4115Z" fill="#863399"/>
</g>
<path d="M41.6921 15.0022V34.9111H41.674C41.5112 34.9232 41.3605 34.9473 41.2038 34.9714V34.9594C40.0767 35.1221 39.0339 35.5018 38.0996 36.0624C36.2552 37.1775 34.8749 38.9797 34.3204 41.1135H24.375C24.375 41.1135 24.3569 41.1135 24.3508 41.1074C24.1881 41.1014 24.0615 40.9688 24.0615 40.8V15.0022C24.0615 14.8274 24.2002 14.6827 24.375 14.6827H41.3786C41.5534 14.6827 41.6921 14.8274 41.6921 15.0022Z" fill="white"/>
<g opacity="0.1">
<path d="M41.6928 15.521V16.853L41.6747 34.9115C41.5119 34.9236 41.3612 34.9477 41.2045 34.9718V34.9597C40.0774 35.1225 39.0346 35.5022 38.1003 36.0628V14.4842C38.1003 14.3516 38.2088 14.2491 38.3354 14.2491H40.427C40.8067 14.2491 41.1442 14.4179 41.3733 14.6771H41.3793C41.5722 14.9001 41.6928 15.1955 41.6928 15.5149V15.521Z" fill="#863399"/>
</g>
<path d="M36.0396 14.2428H29.7642C29.5211 14.2428 29.3241 14.4398 29.3241 14.6829V15.4967C29.3241 15.7397 29.5211 15.9367 29.7642 15.9367H36.0396C36.2826 15.9367 36.4796 15.7397 36.4796 15.4967V14.6829C36.4796 14.4398 36.2826 14.2428 36.0396 14.2428Z" fill="#863399"/>
<path d="M34.8391 46.7315V46.7495H34.8511C34.9174 46.9123 35.0078 47.069 35.0922 47.2257C35.1163 47.28 35.1525 47.3402 35.1766 47.3945C35.1766 47.4005 35.1706 47.4066 35.1706 47.4126C35.0982 47.5874 34.9234 47.714 34.7125 47.714H25.7676C24.4355 47.714 23.3506 46.635 23.3506 45.3029V16.1779C23.3506 14.8458 24.4355 13.7609 25.7676 13.7609H39.7696C41.0956 13.7609 42.1806 14.8458 42.1806 16.1779V34.4775L41.9515 34.8934H41.9455C41.8973 34.8934 41.8491 34.8994 41.8129 34.8994L41.6863 34.9115H41.6683C41.608 34.9175 41.5537 34.9235 41.4995 34.9296C41.3247 34.8572 41.1981 34.6824 41.1981 34.4715V16.1779C41.1981 15.3883 40.5532 14.7494 39.7696 14.7494H25.7676C24.978 14.7494 24.3391 15.3883 24.3391 16.1779V45.309C24.3391 46.0925 24.978 46.7375 25.7676 46.7375H34.8391V46.7315Z" fill="#863399"/>
<path d="M41.6686 34.9114C41.5059 34.9234 41.3552 34.9475 41.1985 34.9716V34.9596C41.3552 34.9415 41.5059 34.9174 41.6686 34.9114Z" fill="#F58520"/>
<path d="M42.82 50.6442C46.705 50.6442 49.8545 47.4947 49.8545 43.6096C49.8545 39.7246 46.705 36.5751 42.82 36.5751C38.9349 36.5751 35.7854 39.7246 35.7854 43.6096C35.7854 47.4947 38.9349 50.6442 42.82 50.6442Z" fill="#F58520"/>
<g style="mix-blend-mode:darken" opacity="0.78">
<path d="M49.8541 43.6096C49.8541 47.4976 46.7015 50.6442 42.8195 50.6442C42.3795 50.6442 41.9455 50.602 41.5295 50.5236C44.7967 49.9208 47.2681 47.0576 47.2681 43.6096C47.2681 40.1617 44.7967 37.2984 41.5295 36.6956C41.9455 36.6173 42.3795 36.5751 42.8195 36.5751C46.7015 36.5751 49.8541 39.7216 49.8541 43.6096Z" fill="#E57920"/>
</g>
<path d="M39.4207 42.3678C39.3544 42.3678 39.2881 42.3558 39.2278 42.3196C39.0108 42.2111 38.9264 41.9519 39.0349 41.7348C39.7462 40.3122 41.1749 39.426 42.7664 39.426C44.3578 39.426 45.7021 40.264 46.4376 41.6083C46.5521 41.8192 46.4738 42.0845 46.2628 42.199C46.0518 42.3136 45.7865 42.2352 45.672 42.0242C45.0933 40.9572 43.9781 40.2941 42.7664 40.2941C41.5547 40.2941 40.3732 40.9934 39.8065 42.1207C39.7281 42.2714 39.5774 42.3618 39.4207 42.3618V42.3678Z" fill="white"/>
<path d="M46.6422 42.82H45.0445C44.8033 42.82 44.6104 42.6271 44.6104 42.3859C44.6104 42.1447 44.8033 41.9518 45.0445 41.9518H46.2081V40.8183C46.2081 40.5771 46.4011 40.3842 46.6422 40.3842C46.8834 40.3842 47.0764 40.5771 47.0764 40.8183V42.3859C47.0764 42.6271 46.8834 42.82 46.6422 42.82Z" fill="white"/>
<path d="M43.0005 47.7686C41.4693 47.7686 40.0648 46.9307 39.3293 45.5864C39.2148 45.3754 39.2931 45.1102 39.5041 44.9956C39.7151 44.8811 39.9804 44.9594 40.0949 45.1704C40.6736 46.2374 41.7888 46.9005 43.0005 46.9005C44.2122 46.9005 45.3937 46.2013 45.9604 45.074C46.0689 44.857 46.3281 44.7726 46.5451 44.8811C46.7622 44.9896 46.8466 45.2488 46.7381 45.4658C46.0267 46.8885 44.592 47.7746 43.0066 47.7746L43.0005 47.7686Z" fill="white"/>
<path d="M39.1253 46.8164C38.8841 46.8164 38.6912 46.6234 38.6912 46.3822V44.8146C38.6912 44.5734 38.8841 44.3805 39.1253 44.3805H40.7231C40.9642 44.3805 41.1572 44.5734 41.1572 44.8146C41.1572 45.0558 40.9642 45.2487 40.7231 45.2487H39.5594V46.3822C39.5594 46.6234 39.3665 46.8164 39.1253 46.8164Z" fill="white"/>
<path d="M42.1874 32.856V34.4719C42.1874 34.6467 42.0909 34.8095 41.9583 34.8879H41.9522C41.8799 34.9422 41.7894 34.9663 41.699 34.9663C41.6327 34.9663 41.5664 34.9542 41.5061 34.9241C41.3312 34.8517 41.2046 34.6769 41.2046 34.4658V32.85H42.1874V32.856Z" fill="#863399"/>
<path d="M35.2136 47.2198C35.2136 47.2801 35.2015 47.3404 35.1774 47.3947C35.1774 47.4007 35.1714 47.4067 35.1714 47.4128C35.099 47.5876 34.9242 47.7142 34.7132 47.7142H33.0973V46.7314H34.7132C34.7614 46.7314 34.7976 46.7375 34.8398 46.7495H34.8458C34.9664 46.7857 35.0689 46.8581 35.1292 46.9545C35.1834 47.0329 35.2076 47.1234 35.2076 47.2138L35.2136 47.2198Z" fill="#863399"/>
</svg>
