<svg width="60" height="61" viewBox="0 0 60 61" fill="none" xmlns="http://www.w3.org/2000/svg">
<path d="M60 30.1475C60 46.716 46.5685 60.1475 30 60.1475C13.4315 60.1475 0 46.716 0 30.1475C0 13.5789 13.4315 0.147461 30 0.147461C46.5685 0.147461 60 13.5789 60 30.1475ZM3 30.1475C3 45.0592 15.0883 57.1475 30 57.1475C44.9117 57.1475 57 45.0592 57 30.1475C57 15.2358 44.9117 3.14746 30 3.14746C15.0883 3.14746 3 15.2358 3 30.1475Z" fill="#E2E2E2"/>
<circle cx="30" cy="30.1475" r="24" fill="#E6F7EE"/>
<path d="M60 30.1475C60 46.716 46.5685 60.1475 30 60.1475C13.4315 60.1475 0 46.716 0 30.1475C0 13.5789 13.4315 0.147461 30 0.147461C46.5685 0.147461 60 13.5789 60 30.1475ZM3 30.1475C3 45.0592 15.0883 57.1475 30 57.1475C44.9117 57.1475 57 45.0592 57 30.1475C57 15.2358 44.9117 3.14746 30 3.14746C15.0883 3.14746 3 15.2358 3 30.1475Z" fill="#0EB864"/>
<path d="M36.0246 26.6098H42.0246M42.0246 26.6098V20.6098M42.0246 26.6098L37.7746 22.3723C36.7541 21.3503 35.5422 20.5395 34.208 19.9863C32.8739 19.4332 31.4439 19.1484 29.9996 19.1484C28.5554 19.1484 27.1253 19.4332 25.7912 19.9863C24.4571 20.5395 23.2451 21.3503 22.2246 22.3723M23.9746 33.6848H17.9746M17.9746 33.6848V39.6848M17.9746 33.6848L22.2246 37.9223C23.2451 38.9443 24.4571 39.755 25.7912 40.3082C27.1253 40.8614 28.5554 41.1461 29.9996 41.1461C31.4439 41.1461 32.8739 40.8614 34.208 40.3082C35.5422 39.755 36.7541 38.9443 37.7746 37.9223" stroke="#0EB864" stroke-width="2.66667" stroke-linecap="round" stroke-linejoin="round"/>
</svg>
