<svg width="61" height="60" viewBox="0 0 61 60" fill="none" xmlns="http://www.w3.org/2000/svg">
<path d="M60.5 30C60.5 46.5685 47.0685 60 30.5 60C13.9315 60 0.5 46.5685 0.5 30C0.5 13.4315 13.9315 0 30.5 0C47.0685 0 60.5 13.4315 60.5 30ZM3.5 30C3.5 44.9117 15.5883 57 30.5 57C45.4117 57 57.5 44.9117 57.5 30C57.5 15.0883 45.4117 3 30.5 3C15.5883 3 3.5 15.0883 3.5 30Z" fill="#E2E2E2"/>
<circle cx="30.5" cy="30" r="24" fill="#F5D5B8"/>
<path d="M30.5 1.5C30.5 0.671573 31.172 -0.00391222 31.9994 0.0374915C35.4268 0.209002 38.8032 0.967534 41.9805 2.28361C45.6203 3.79126 48.9274 6.00104 51.7132 8.7868C54.499 11.5726 56.7087 14.8797 58.2164 18.5195C59.724 22.1593 60.5 26.0603 60.5 30C60.5 33.9397 59.724 37.8407 58.2164 41.4805C56.7087 45.1203 54.499 48.4275 51.7132 51.2132C48.9274 53.999 45.6203 56.2087 41.9805 57.7164C38.8032 59.0325 35.4268 59.791 31.9994 59.9625C31.172 60.0039 30.5 59.3284 30.5 58.5C30.5 57.6716 31.1721 57.0043 31.9992 56.9583C35.0325 56.7897 38.0192 56.11 40.8324 54.9448C44.1082 53.5879 47.0847 51.5991 49.5919 49.0919C52.0991 46.5847 54.0879 43.6082 55.4447 40.3325C56.8016 37.0567 57.5 33.5457 57.5 30C57.5 26.4543 56.8016 22.9433 55.4447 19.6676C54.0879 16.3918 52.0991 13.4153 49.5919 10.9081C47.0847 8.40094 44.1082 6.41213 40.8325 5.05525C38.0192 3.88996 35.0325 3.21034 31.9993 3.04166C31.1721 2.99566 30.5 2.32843 30.5 1.5Z" fill="#F58520"/>
<path d="M36.5246 26.4623H42.5246M42.5246 26.4623V20.4623M42.5246 26.4623L38.2746 22.2248C37.2541 21.2028 36.0422 20.3921 34.708 19.8389C33.3739 19.2857 31.9439 19.001 30.4996 19.001C29.0554 19.001 27.6253 19.2857 26.2912 19.8389C24.9571 20.3921 23.7451 21.2028 22.7246 22.2248M24.4746 33.5373H18.4746M18.4746 33.5373V39.5373M18.4746 33.5373L22.7246 37.7748C23.7451 38.7968 24.9571 39.6076 26.2912 40.1607C27.6253 40.7139 29.0554 40.9986 30.4996 40.9986C31.9439 40.9986 33.3739 40.7139 34.708 40.1607C36.0422 39.6076 37.2541 38.7968 38.2746 37.7748" stroke="#F58520" stroke-width="2.66667" stroke-linecap="round" stroke-linejoin="round"/>
</svg>
