<svg width="41" height="40" viewBox="0 0 41 40" fill="none" xmlns="http://www.w3.org/2000/svg">
<g clip-path="url(#clip0_384_10914)">
<path d="M20.99 40C32.0357 40 40.99 31.0457 40.99 20C40.99 8.95431 32.0357 0 20.99 0C9.94433 0 0.990021 8.95431 0.990021 20C0.990021 31.0457 9.94433 40 20.99 40Z" fill="#383838" fill-opacity="0.05"/>
<path d="M22.7641 29.2078C22.4514 28.5372 22.2744 27.7913 22.2744 27.004C22.2744 26.5519 22.3346 26.1149 22.4364 25.6967C22.7829 24.3594 23.6456 23.233 24.7984 22.5398C25.3823 22.1895 26.034 21.9484 26.7385 21.8504V21.858C26.8025 21.8467 26.8628 21.8354 26.9268 21.8316C26.9607 21.8278 26.9947 21.8241 27.0323 21.8203H27.0436V10.5187C27.0436 10.4396 27.0361 10.3643 27.021 10.2889C26.9532 9.82935 26.6857 9.43003 26.3128 9.17763C26.0566 9.00434 25.7477 8.91016 25.4162 8.91016H17.5164C17.1849 8.91016 16.876 9.0081 16.6198 9.17763C16.3561 9.35468 16.1452 9.59955 16.0208 9.89339C15.938 10.0893 15.8927 10.3078 15.8927 10.5338V27.8892C15.8927 28.7896 16.6198 29.5204 17.5164 29.5204H22.9186C22.8658 29.4225 22.8093 29.3245 22.7679 29.2228H22.7641V29.2115V29.2078Z" fill="white"/>
<g opacity="0.1">
<path d="M16.8722 8.90625H26.0491C26.5878 8.90625 27.0248 9.34324 27.0248 9.88195V12.421H15.8927V9.88195C15.8927 9.34324 16.3297 8.90625 16.8685 8.90625H16.8722Z" fill="#863399"/>
</g>
<path d="M27.0474 9.37544V21.8185H27.0361C26.9344 21.826 26.8402 21.8411 26.7423 21.8561V21.8486C26.0378 21.9503 25.3861 22.1876 24.8022 22.538C23.6494 23.2349 22.7867 24.3613 22.4402 25.6949H16.2243C16.2243 25.6949 16.213 25.6949 16.2092 25.6911C16.1075 25.6874 16.0284 25.6045 16.0284 25.499V9.37544C16.0284 9.26619 16.1151 9.17578 16.2243 9.17578H26.8515C26.9608 9.17578 27.0474 9.26619 27.0474 9.37544Z" fill="white"/>
<g opacity="0.1">
<path d="M27.0479 9.70113V10.5337L27.0366 21.8202C26.9349 21.8277 26.8407 21.8428 26.7427 21.8578V21.8503C26.0383 21.952 25.3865 22.1894 24.8026 22.5397V9.05317C24.8026 8.97029 24.8704 8.90625 24.9495 8.90625H26.2568C26.4941 8.90625 26.7051 9.01173 26.8482 9.17372H26.852C26.9725 9.31311 27.0479 9.4977 27.0479 9.69736V9.70113Z" fill="#863399"/>
</g>
<path d="M23.5147 8.90234H19.5926C19.4407 8.90234 19.3175 9.02548 19.3175 9.17738V9.68601C19.3175 9.83791 19.4407 9.96105 19.5926 9.96105H23.5147C23.6666 9.96105 23.7897 9.83791 23.7897 9.68601V9.17738C23.7897 9.02548 23.6666 8.90234 23.5147 8.90234Z" fill="#863399"/>
<path d="M22.7644 29.2081V29.2194H22.7719C22.8134 29.3211 22.8699 29.419 22.9226 29.517C22.9377 29.5509 22.9603 29.5886 22.9753 29.6225C22.9753 29.6262 22.9716 29.63 22.9716 29.6338C22.9264 29.743 22.8171 29.8221 22.6853 29.8221H17.0948C16.2622 29.8221 15.5841 29.1478 15.5841 28.3153V10.1122C15.5841 9.27966 16.2622 8.60156 17.0948 8.60156H25.8459C26.6747 8.60156 27.3528 9.27966 27.3528 10.1122V21.5494L27.2097 21.8093H27.2059C27.1758 21.8093 27.1456 21.8131 27.123 21.8131L27.0439 21.8206H27.0326C26.9949 21.8244 26.961 21.8282 26.9271 21.8319C26.8179 21.7867 26.7388 21.6775 26.7388 21.5456V10.1122C26.7388 9.6187 26.3357 9.21938 25.8459 9.21938H17.0948C16.6013 9.21938 16.2019 9.6187 16.2019 10.1122V28.319C16.2019 28.8088 16.6013 29.2119 17.0948 29.2119H22.7644V29.2081Z" fill="#863399"/>
<path d="M27.0328 21.8203C26.9311 21.8278 26.8369 21.8429 26.739 21.858V21.8504C26.8369 21.8391 26.9311 21.8241 27.0328 21.8203Z" fill="#F58520"/>
<path d="M27.7524 31.6525C30.1806 31.6525 32.149 29.6841 32.149 27.2559C32.149 24.8278 30.1806 22.8594 27.7524 22.8594C25.3242 22.8594 23.3558 24.8278 23.3558 27.2559C23.3558 29.6841 25.3242 31.6525 27.7524 31.6525Z" fill="#F58520"/>
<g style="mix-blend-mode:darken" opacity="0.78">
<path d="M32.1487 27.2559C32.1487 29.6859 30.1783 31.6525 27.7521 31.6525C27.4771 31.6525 27.2058 31.6262 26.9459 31.5772C28.9878 31.2004 30.5325 29.4109 30.5325 27.2559C30.5325 25.101 28.9878 23.3115 26.9459 22.9347C27.2058 22.8857 27.4771 22.8594 27.7521 22.8594C30.1783 22.8594 32.1487 24.826 32.1487 27.2559Z" fill="#E57920"/>
</g>
<path d="M25.6279 26.4792C25.5864 26.4792 25.545 26.4717 25.5073 26.4491C25.3717 26.3813 25.3189 26.2193 25.3868 26.0836C25.8313 25.1945 26.7243 24.6406 27.7189 24.6406C28.7136 24.6406 29.5538 25.1643 30.0134 26.0045C30.085 26.1364 30.036 26.3022 29.9042 26.3737C29.7723 26.4453 29.6065 26.3963 29.5349 26.2645C29.1732 25.5976 28.4762 25.1832 27.7189 25.1832C26.9616 25.1832 26.2232 25.6202 25.869 26.3248C25.82 26.419 25.7258 26.4755 25.6279 26.4755V26.4792Z" fill="white"/>
<path d="M30.1413 26.7607H29.1427C28.992 26.7607 28.8714 26.6401 28.8714 26.4894C28.8714 26.3386 28.992 26.218 29.1427 26.218H29.87V25.5096C29.87 25.3589 29.9906 25.2383 30.1413 25.2383C30.292 25.2383 30.4126 25.3589 30.4126 25.5096V26.4894C30.4126 26.6401 30.292 26.7607 30.1413 26.7607Z" fill="white"/>
<path d="M27.8652 29.8576C26.9082 29.8576 26.0304 29.3339 25.5707 28.4938C25.4991 28.3619 25.5481 28.1961 25.68 28.1245C25.8118 28.0529 25.9776 28.1019 26.0492 28.2338C26.4109 28.9007 27.1079 29.3151 27.8652 29.3151C28.6225 29.3151 29.361 28.8781 29.7151 28.1735C29.7829 28.0379 29.9449 27.9851 30.0806 28.0529C30.2162 28.1208 30.269 28.2828 30.2011 28.4184C29.7566 29.3076 28.8599 29.8614 27.869 29.8614L27.8652 29.8576Z" fill="white"/>
<path d="M25.4432 29.2607C25.2925 29.2607 25.1719 29.1401 25.1719 28.9894V28.0096C25.1719 27.8589 25.2925 27.7383 25.4432 27.7383H26.4418C26.5926 27.7383 26.7131 27.8589 26.7131 28.0096C26.7131 28.1603 26.5926 28.2809 26.4418 28.2809H25.7145V28.9894C25.7145 29.1401 25.594 29.2607 25.4432 29.2607Z" fill="white"/>
<path d="M27.357 20.535V21.5449C27.357 21.6542 27.2968 21.756 27.2139 21.8049H27.2101C27.1649 21.8389 27.1083 21.8539 27.0518 21.8539C27.0104 21.8539 26.9689 21.8464 26.9312 21.8276C26.8219 21.7823 26.7428 21.6731 26.7428 21.5412V20.5312H27.357V20.535Z" fill="#863399"/>
<path d="M22.9984 29.5123C22.9984 29.5499 22.9909 29.5876 22.9758 29.6215C22.9758 29.6253 22.9721 29.6291 22.9721 29.6329C22.9268 29.7421 22.8176 29.8213 22.6857 29.8213H21.6757V29.207H22.6857C22.7158 29.207 22.7384 29.2108 22.7648 29.2183H22.7686C22.8439 29.2409 22.908 29.2862 22.9457 29.3465C22.9796 29.3954 22.9947 29.452 22.9947 29.5085L22.9984 29.5123Z" fill="#863399"/>
</g>
<defs>
<clipPath id="clip0_384_10914">
<rect width="40" height="40" fill="white" transform="translate(0.990021)"/>
</clipPath>
</defs>
</svg>
