<svg width="61" height="61" viewBox="0 0 61 61" fill="none" xmlns="http://www.w3.org/2000/svg">
<path d="M60.5 30.1475C60.5 46.716 47.0685 60.1475 30.5 60.1475C13.9315 60.1475 0.5 46.716 0.5 30.1475C0.5 13.5789 13.9315 0.147461 30.5 0.147461C47.0685 0.147461 60.5 13.5789 60.5 30.1475ZM3.5 30.1475C3.5 45.0592 15.5883 57.1475 30.5 57.1475C45.4117 57.1475 57.5 45.0592 57.5 30.1475C57.5 15.2358 45.4117 3.14746 30.5 3.14746C15.5883 3.14746 3.5 15.2358 3.5 30.1475Z" fill="#E2E2E2"/>
<circle cx="30.5" cy="30.1475" r="24" fill="#F5D5B8"/>
<path d="M30.5 1.64746C30.5 0.819034 31.172 0.143549 31.9994 0.184952C35.4268 0.356463 38.8032 1.11499 41.9805 2.43108C45.6203 3.93872 48.9274 6.1485 51.7132 8.93426C54.499 11.72 56.7087 15.0272 58.2164 18.667C59.724 22.3067 60.5 26.2078 60.5 30.1475C60.5 34.0871 59.724 37.9882 58.2164 41.628C56.7087 45.2677 54.499 48.5749 51.7132 51.3607C48.9274 54.1464 45.6203 56.3562 41.9805 57.8638C38.8032 59.1799 35.4268 59.9385 31.9994 60.11C31.172 60.1514 30.5 59.4759 30.5 58.6475C30.5 57.819 31.1721 57.1518 31.9992 57.1058C35.0325 56.9371 38.0192 56.2575 40.8324 55.0922C44.1082 53.7353 47.0847 51.7465 49.5919 49.2393C52.0991 46.7322 54.0879 43.7557 55.4447 40.4799C56.8016 37.2041 57.5 33.6932 57.5 30.1475C57.5 26.6018 56.8016 23.0908 55.4447 19.815C54.0879 16.5392 52.0991 13.5628 49.5919 11.0556C47.0847 8.5484 44.1082 6.55959 40.8325 5.20271C38.0192 4.03742 35.0325 3.3578 31.9993 3.18912C31.1721 3.14312 30.5 2.47589 30.5 1.64746Z" fill="#F58520"/>
<path fill-rule="evenodd" clip-rule="evenodd" d="M25.166 33.1478C25.166 32.4114 25.763 31.8145 26.4993 31.8145H34.4993C35.2357 31.8145 35.8327 32.4114 35.8327 33.1478C35.8327 33.8842 35.2357 34.4811 34.4993 34.4811H26.4993C25.763 34.4811 25.166 33.8842 25.166 33.1478Z" fill="#F58520"/>
<path fill-rule="evenodd" clip-rule="evenodd" d="M25.166 29.1478C25.166 28.4114 25.763 27.8145 26.4993 27.8145H34.4993C35.2357 27.8145 35.8327 28.4114 35.8327 29.1478C35.8327 29.8842 35.2357 30.4811 34.4993 30.4811H26.4993C25.763 30.4811 25.166 29.8842 25.166 29.1478Z" fill="#F58520"/>
<path fill-rule="evenodd" clip-rule="evenodd" d="M21.8327 20.4811H26.4993C27.2357 20.4811 27.8327 19.8842 27.8327 19.1478C27.8327 18.4114 27.2357 17.8145 26.4993 17.8145H21.4993C20.8805 17.8145 20.287 18.0603 19.8494 18.4979C19.4118 18.9355 19.166 19.5289 19.166 20.1478V41.1478C19.166 41.7666 19.4118 42.3601 19.8494 42.7977C20.287 43.2353 20.8805 43.4811 21.4993 43.4811H39.4993C40.1182 43.4811 40.7117 43.2353 41.1493 42.7977C41.5869 42.3601 41.8327 41.7666 41.8327 41.1478V20.1478C41.8327 19.529 41.5869 18.9355 41.1493 18.4979C40.7117 18.0603 40.1182 17.8145 39.4993 17.8145H34.4993C33.763 17.8145 33.166 18.4114 33.166 19.1478C33.166 19.8842 33.763 20.4811 34.4993 20.4811H39.166V40.8145H21.8327V20.4811Z" fill="#F58520"/>
<path fill-rule="evenodd" clip-rule="evenodd" d="M30.4993 18.4811C29.5269 18.4811 28.5943 18.8674 27.9066 19.5551C27.298 20.1637 26.9254 20.9642 26.8479 21.8145H34.1508C34.0733 20.9642 33.7007 20.1637 33.0921 19.5551C32.4044 18.8674 31.4718 18.4811 30.4993 18.4811ZM26.021 17.6694C27.2087 16.4817 28.8196 15.8145 30.4993 15.8145C32.1791 15.8145 33.79 16.4817 34.9777 17.6694C36.1654 18.8572 36.8327 20.4681 36.8327 22.1478V23.1478C36.8327 23.8842 36.2357 24.4811 35.4993 24.4811H25.4993C24.763 24.4811 24.166 23.8842 24.166 23.1478V22.1478C24.166 20.4681 24.8333 18.8572 26.021 17.6694Z" fill="#F58520"/>
</svg>
