<svg xmlns="http://www.w3.org/2000/svg" width="269" height="241" viewBox="0 0 269 241">
    <defs>
        <clipPath id="clip-path">
            <path id="Rectangle_2248" d="M0 0H269V241H0z" transform="translate(.049)"/>
        </clipPath>
        <style>
            .cls-2{fill:#f2d8cb}.cls-3{fill:#fea689}.cls-4{fill:#fff}.cls-7{fill:#fad3b1}.cls-8{fill:#232c44}.cls-9{fill:#eb754d}.cls-10{fill:#f2bf91}.cls-11{fill:#863399}.cls-12{fill:#d7dfed}.cls-14{fill:#a9cccb}.cls-15{fill:#8ab8b7}.cls-16{fill:#823a33}.cls-18{fill:#e9edf5}.cls-19{fill:#7dd0de}
        </style>
    </defs>
    <g id="Screen_4" clip-path="url(#clip-path)" transform="translate(-.049)">
        <g id="Group_1826" transform="translate(6.636 28.785)">
            <g id="Group_1815">
                <g id="Group_1767" transform="translate(58.954 71.462)">
                    <path id="Path_6603" d="M2150.126 476.451s-20.5 3.458-24.245 10.32 6.119 48.885 6.119 48.885l3.219-.882s-9.708-37.961-5.153-45.014 20.057-8.795 20.057-8.795z" class="cls-2" transform="translate(-2125.032 -476.451)"/>
                    <g id="Group_1764" transform="translate(6.599 8.322)">
                        <path id="Path_6604" d="M2146.94 545.765a.648.648 0 0 1-.64-.567l-5.952-48.82a.649.649 0 0 1 1.283-.157l5.95 48.82a.648.648 0 0 1-.562.719.638.638 0 0 1-.079.005z" class="cls-2" transform="translate(-2140.348 -495.704)"/>
                    </g>
                    <g id="Group_1765" transform="translate(11.863 5.478)">
                        <path id="Path_6605" d="M2159.164 539.161a.648.648 0 0 1-.641-.568l-5.95-48.819a.649.649 0 0 1 1.283-.157l5.95 48.82a.648.648 0 0 1-.563.72.68.68 0 0 1-.079.004z" class="cls-2" transform="translate(-2152.573 -489.1)"/>
                    </g>
                    <g id="Group_1766" transform="translate(17.225 3.917)">
                        <path id="Path_6606" d="M2171.615 535.539a.648.648 0 0 1-.641-.567l-5.952-48.82a.649.649 0 0 1 1.283-.157l5.95 48.82a.648.648 0 0 1-.563.719.63.63 0 0 1-.077.005z" class="cls-2" transform="translate(-2165.022 -485.478)"/>
                    </g>
                </g>
                <path id="Path_6607" d="M2218.339 466.656c4.539 8.327 15.346 23.923 15.346 23.923s7.371-17.866 8.049-20.895 4.924-14.99 4.924-14.99l-3.125-1.484-.54-.26-2.072-.981s-17.576-3.179-18.48-3.179a14 14 0 0 0-2.41.739c-.188.06-.375.128-.575.206a89.866 89.866 0 0 0-9.128 3.749c-.772.606 3.472 4.845 8.011 13.172z" class="cls-3" transform="translate(-2114.581 -389.24)"/>
                <path id="Path_6608" d="M2166.364 518.675c.025.865.073 1.729.151 2.586a49.8 49.8 0 0 0 1.568 6.886s2.679-2.355 2.674-2.342c-.108 1.156-3.079 12.451-2.771 13.965a1.3 1.3 0 0 0 1.189 1.189 16.975 16.975 0 0 0 4.2.915 16.121 16.121 0 0 0 3.919-.988c.2-.061.405-.128.6-.188l.309-.1a9.153 9.153 0 0 0 3.683-1.823 17.589 17.589 0 0 1 2.174-1.447 10.782 10.782 0 0 0 5.463 2.331c.216.042.432.072.642.108.175.025.345.042.514.061a38.868 38.868 0 0 1 6.863.921q.318.091.635.2c.324.108.635.23.958.37a27.778 27.778 0 0 0 6.534 2.378 21.678 21.678 0 0 0 9.236-.509c.216-.055.425-.115.637-.176a38.717 38.717 0 0 0 7.649-3.242c.205-.115.412-.23.618-.339 1.744-.973 3.446-2.035 5.112-3.1a.316.316 0 0 0 .126.216c1.738 1.247 3.519 2.447 5.347 3.566.176.115.351.216.526.324q2.144 1.3 4.379 2.441c.8.412 1.865 1.054 2.761.509 1.109-.672 1.109-2.719 1.291-3.816.467-2.816-1.314-14.548-1.314-14.548s1.339-3.925 1.054-5.414c-.66-3.41 1.677-6.376 1.744-9.738.067-3.307-1.272-6.426-1.829-9.642a57.227 57.227 0 0 1-.339-11.2l.018-.751v-.018a72.187 72.187 0 0 0-.388-9.217c-.03-.3-.067-.57-.108-.854a64.882 64.882 0 0 0-2.137-10.168c-.575-1.945-1.309-4.046-2.986-5.221l-.03-.018a.033.033 0 0 1-.025-.012 4.681 4.681 0 0 0-.787-.432c-.049-.018-3.756-1.526-7.679-3.119l-.57-.237-8.575-3.482s-1.351 5.214-2.386 8.394a37.421 37.421 0 0 0-1.254 4.7 39.168 39.168 0 0 1-.738 4.228c-.83 2.683-3.434 4.186-4.458 6.747a7.1 7.1 0 0 0-.412 1.621c-.108.648-.176 1.3-.324 1.932-.018.1-.042.193-.067.291a17.364 17.364 0 0 1-1.181 3.058 34.446 34.446 0 0 0-3.773-7.413c-.89-1.314-1.89-2.556-2.677-3.937a13.415 13.415 0 0 1-1.484-4.954 11.753 11.753 0 0 0-1.351-4.421 20.726 20.726 0 0 0-2.882-3.3 11.608 11.608 0 0 1-2.2-4.971c-.516-1.865-1.035-5.4-1.035-5.4s-.678.157-1.729.405q-.281.072-.6.145c-2.768.66-7.328 1.793-9.811 2.594-2.968.957-5.93 1.853-8.17 4.137a17.143 17.143 0 0 0-3.756 6.256c-.188.527-.364 1.066-.521 1.6-.055.176-.108.358-.151.54a.507.507 0 0 0-.012.061 44.712 44.712 0 0 0-1.163 6.1c-.012.108-.03.224-.042.333.007.007 0 .012 0 .018a49.342 49.342 0 0 0-.193 10.051c.279 3.3.946 6.56.988 9.872a72.033 72.033 0 0 1-1.035 9.926c-.024.188-.048.375-.067.563-.1.817-.176 1.642-.237 2.465-.182 2.339-.249 4.688-.309 7.031-.03 1.477-.054 2.99-.006 4.503z" class="cls-4" transform="translate(-2089.594 -391.096)"/>
                <g id="Group_1770" transform="translate(0 128.826)">
                    <g id="Group_1768">
                        <path id="Path_6609" d="M1988.142 619.919l30.269-10.273h147.526v56.763h-177.795z" class="cls-2" transform="translate(-1988.142 -609.646)"/>
                        <path id="Path_6610" fill="#e0bca8" d="M1988.142 627.515h177.794v-17.869h-147.524l-30.269 10.273z" transform="translate(-1988.142 -609.646)"/>
                    </g>
                    <g id="Group_1769" transform="translate(3.276 10.418)">
                        <path id="Path_6611" fill="#c99b81" d="M2167.329 634.486h-171.255a.324.324 0 1 1 0-.648h171.255a.324.324 0 1 1 0 .648z" transform="translate(-1995.75 -633.838)"/>
                    </g>
                </g>
                <g id="Group_1787" transform="translate(105.88)">
                    <path id="Path_6612" d="M2245.375 376.789a103.829 103.829 0 0 1-2.026-12.34c-.155-1.885-.125-3.767-.208-5.655-.046-1.081.065-2.652-.564-3.586l-.009-.009c.464-.777.958-1.546 1.46-2.311.312-.476-.451-.919-.757-.445-2.783 4.245-5.14 8.472-3.947 13.658.56 2.434-.518 5.067.766 7.387.992 1.794 2.905 2.855 4.642 3.8a.446.446 0 0 0 .642-.5z" class="cls-7" transform="translate(-2236.844 -334.273)"/>
                    <path id="Path_6613" d="M2256.928 324.258a4.943 4.943 0 0 0 .156-.54c1.342-1.935 1.205-3.448.484-5.916-.889-3.047-1.5-5.109-4.052-7.161-.23-.185-.682-.178-.742.193s-.108.757-.146 1.135a9.767 9.767 0 0 0-1.883-1.081.457.457 0 0 0-.531.065 20.375 20.375 0 0 0-3.127 3.432.456.456 0 0 0 .065.531c.574.678 1.169 1.13 1.714 1.672l-.728-.354c-.517-.252-1.194-.764-1.76-.374-.589.406-.675 1.462-1.06 2.046-.339.514-1.318 1.1-1.386 1.763-.09.857.887 1.112 1.806 1.24a7.7 7.7 0 0 0-.954.294c-.782.3-2.356 1.069-1.217 2.018.574.478 1.9.18 2.546.2a27.508 27.508 0 0 1 5.043.843 7.834 7.834 0 0 0 4.8.026.449.449 0 0 0 .349.228.456.456 0 0 0 .627-.262z" class="cls-7" transform="translate(-2239.216 -310.522)"/>
                    <path id="Path_6614" d="M2324.643 369.282a.385.385 0 0 0-.05-.365 15.017 15.017 0 0 0-3.1-7.158c-.354-.443-.973.185-.624.624a13.922 13.922 0 0 1 2.855 6.6 17.857 17.857 0 0 0-4.166 5.012c-1.145 2.35-.757 4.875-1.17 7.381a40.991 40.991 0 0 1-2.033 6.9 20.322 20.322 0 0 1-1.537 7.839c2.09.715 3.876-3.134 4.38-4.622.648-1.919.54-3.959 1-5.915.55-2.355 1.994-4.286 2.961-6.465a18.493 18.493 0 0 0 1.484-9.831z" class="cls-7" transform="translate(-2280.01 -339.606)"/>
                    <path id="Path_6615" d="M2250.579 414.3c-.605-.345-1.088-.059-1.463.494a.444.444 0 0 0-.864-.12 12 12 0 0 0-.432 6.289.445.445 0 0 0 .737.195c1.664-1.759 1.415-4.215 2.221-6.359a.444.444 0 0 0-.2-.5z" class="cls-7" transform="translate(-2241.734 -369.519)"/>
                    <path id="Path_6616" d="M2284.287 355.711c-.019-.151-.042-.315-.069-.482a14.041 14.041 0 0 0-5.823-7.349 30.476 30.476 0 0 0-20.838-4.122 16.51 16.51 0 0 0-10.467 6.119 14.805 14.805 0 0 0-2.466 7.411c-.012 1.659-.061 3.318-.121 4.971q.178.735.359 1.473c.524 2.161.418 4.41 1.336 6.457.491 1.1.895 1.938.36 3.108-.267.584-2.126 1.83-1.879 2.521.252.709 3.114-.129 3.891.125a3.113 3.113 0 0 1 .67.313 10.013 10.013 0 0 1 2.533-2.086c1.945-1.03 3.862.12 5.641.947a26.835 26.835 0 0 0 10.8 2.44.546.546 0 0 1 .334.108 18.163 18.163 0 0 0 10.525-3.776c2.9-2.391 4.231-6 4.89-9.6a28.163 28.163 0 0 0 .327-8.584z" class="cls-7" transform="translate(-2239.977 -329.21)"/>
                    <path id="Path_6617" d="M2234.039 399.9c-.011 4.816 5.813 8.43 9.948 9.395 2.386.56 7.479 1.634 8.992-.962.789-1.354.188-3.225.823-4.725a15.293 15.293 0 0 1 1.3-3.613c.551.1 6.221-.257 12.23-8.577a74.9 74.9 0 0 0 8.424-15.682s-.08-7.626-.2-7.647c-.555-2.393-3.267-4.137-5.011-5.607a22.143 22.143 0 0 0-6.857-4.416c-4.323-1.472-9.618.09-13.195 3.052a14.883 14.883 0 0 0-4.6 7.954 2.053 2.053 0 0 0-1.326-.638c-1.823-.2-2.932 1.987-3.111 3.5-.349 2.97 2.257 8.041 2.257 8.041s-7.188 17.007-8.786 17.393c-.333.084-1.137 2.613-.888 2.532z" class="cls-3" transform="translate(-2233.992 -337.271)"/>
                    <path id="Path_6618" d="M2308.478 416c-.168.394-.29 1.2.267 1.35.591.156 1.231-.4 1.5-.858.235-.4.591-1.2.265-1.644-.649-.865-1.661.426-1.986 1.058-.024.03-.034.063-.046.094z" class="cls-8" transform="translate(-2276.318 -369.747)"/>
                    <path id="Path_6619" d="M2282.27 405.043c-.2.383-.372 1.18.174 1.365.579.2 1.254-.31 1.555-.757.261-.385.673-1.16.376-1.621-.584-.911-1.687.311-2.053.921-.022.036-.038.066-.052.092z" class="cls-8" transform="translate(-2261.369 -363.573)"/>
                    <g id="Group_1771" transform="translate(23.783 44.984)">
                        <path id="Path_6620" d="M2291.148 421.638a3.213 3.213 0 0 1-1.817-.713.216.216 0 1 1 .267-.338c.015.012 1.539 1.189 2.35.267.91-1.039 1.814-5.6 1.823-5.65a.216.216 0 1 1 .421.083c-.037.192-.936 4.725-1.922 5.85a1.436 1.436 0 0 1-1.124.5z" class="cls-9" transform="translate(-2289.235 -415.005)"/>
                    </g>
                    <path id="Path_6621" d="M2284.636 432.887s-1.6-.665-3.29-1.417a18.363 18.363 0 0 1-3.265-1.971 5.88 5.88 0 0 0 .887 2.882 4.284 4.284 0 0 0 3.714 1.422 8.741 8.741 0 0 0 1.953-.917z" class="cls-4" transform="translate(-2259.094 -378.257)"/>
                    <g id="Group_1772" transform="translate(10.551 51.771)">
                        <path id="Path_6622" d="M2268.018 441.783h-.009c-.133 0-3.288-.179-6.025-3.941a26.223 26.223 0 0 1-3.491-6.879.216.216 0 0 1 .412-.125 25.762 25.762 0 0 0 3.427 6.75c2.615 3.6 5.664 3.763 5.694 3.764a.216.216 0 0 1-.01.432z" class="cls-9" transform="translate(-2258.489 -430.702)"/>
                    </g>
                    <path id="Path_6623" d="M2285.1 397.488a2.7 2.7 0 0 0 .789.432.719.719 0 0 0 .806-1.1 3.577 3.577 0 0 0-1.329-1.055 7.659 7.659 0 0 0-3.073-.965c-.564-.052-2.479-.206-2.869.345-.159.226.131.519.331.626a4.1 4.1 0 0 0 .983.317c.594.142 1.189.253 1.78.389a7.621 7.621 0 0 1 2.582 1.013z" class="cls-7" transform="translate(-2259.83 -358.467)"/>
                    <path id="Path_6624" d="M2313.131 408.5c.5.336.991.7 1.5 1.034a4.081 4.081 0 0 0 .9.5c.216.072.627.084.683-.186.137-.66-1.284-1.954-1.708-2.331a7.658 7.658 0 0 0-2.8-1.584 3.579 3.579 0 0 0-1.678-.251.72.72 0 0 0-.254 1.341 2.7 2.7 0 0 0 .854.281 7.626 7.626 0 0 1 2.503 1.196z" class="cls-7" transform="translate(-2276.926 -364.681)"/>
                    <g id="Group_1773" transform="translate(9.427 33.167)">
                        <path id="Path_6625" d="M2256.666 394.063a.216.216 0 0 1-.062-.009 1.087 1.087 0 0 1-.681-1.255c.108-.852.346-1.419 1.174-1.621a.375.375 0 0 0 .256-.182c.1-.169.166-.54-.073-1.356a15.8 15.8 0 0 0-.762-1.844.216.216 0 0 1 .387-.188 15.807 15.807 0 0 1 .788 1.912 2.236 2.236 0 0 1 .032 1.693.8.8 0 0 1-.529.384c-.534.128-.739.432-.846 1.253-.084.641.359.781.377.788a.216.216 0 0 1-.063.422z" class="cls-9" transform="translate(-2255.898 -387.507)"/>
                    </g>
                    <path id="Path_6626" d="M2255.794 356.227c.823-2.264 2.8-3.738 4.528-5.287a16.389 16.389 0 0 1 2.63-2.27 9.187 9.187 0 0 1 3.648-.881 25.079 25.079 0 0 1 8.315.592c2.68.648 5.414-5.033 5.414-5.033s6.738 3.773 9.611 8.475c3.36 5.5 2.286 8.526 2.053 11.314-.19 2.27-1.7 8.716-2.866 8.716s-6.923-5.056-9.173-6.439c-.016-.01-.085-1.117-.1-1.125a6.041 6.041 0 0 1-.206-2.527 8.943 8.943 0 0 0-.376-2.773c-.191-.56-.708-1.139-.679-1.754q-.055 1.167-.186 2.332a15.462 15.462 0 0 0-.27 4.919 19.063 19.063 0 0 0-4.132-1.137 2.828 2.828 0 0 1-.4-.684c-.216-.529-.506-1.194-.765-1.912.01.888.034 1.778.084 2.667.015.276-.412.426-.541.16a18.892 18.892 0 0 1-1.513-3.774c-.281-1.174-.017-2.546-.258-3.733-.816 2.518-2.217 5.3-4.949 5.354l-.031-.005a13.649 13.649 0 0 1 .6-2.008c.082-.191.152-.388.229-.581-2.512 2.666-6.376 5.231-9.6 2.594a4.562 4.562 0 0 1-1.064-5.2z" class="cls-7" transform="translate(-2246.2 -329.211)"/>
                    <path id="Path_6627" d="M2280.4 344.236c-.069-1.189-1.621-2.625-2.4-3.35a23.251 23.251 0 0 0-25.846-3.783c-2.184 1.063-5.527 4.02-6.321 6.415a20.668 20.668 0 0 0-.756 4.368 22.994 22.994 0 0 0 .592 2.5c.6 2 1.939 4.56 4.307 4.709a5.99 5.99 0 0 0 3.074-.939c1.661-.864 3.249-1.859 4.934-2.685 3.9-1.912 8.008-3.056 12.026-4.641 2.608-1.028 9.214-1.647 10.246-.092.318.468.144-2.499.144-2.502z" class="cls-7" transform="translate(-2240.307 -324.333)"/>
                    <g id="Group_1774" transform="translate(14.936 34.454)">
                        <path id="Rectangle_2241" d="M0 0H0.431V6.562H0z" class="cls-4" transform="rotate(-39.402 .383 .137)"/>
                    </g>
                    <g id="Group_1775" transform="translate(33.127 22.503)">
                        <path id="Path_6628" d="M2313.557 376.281a.239.239 0 0 1-.039 0 .216.216 0 0 1-.173-.251 7.275 7.275 0 0 0 0-2.519 5.894 5.894 0 0 1-.131-1.362 16.9 16.9 0 0 0-.476-3.8 25.107 25.107 0 0 0-1.819-5.308.216.216 0 0 1 .384-.2 25.52 25.52 0 0 1 1.855 5.4 17.273 17.273 0 0 1 .487 3.883 5.545 5.545 0 0 0 .118 1.267 7.611 7.611 0 0 1 0 2.7.216.216 0 0 1-.206.178z" class="cls-10" transform="translate(-2310.904 -362.746)"/>
                    </g>
                    <g id="Group_1776" transform="translate(37.379 28.161)">
                        <path id="Path_6629" d="M2321.233 385.829a.215.215 0 0 1-.173-.344c.013-.018.668-.973.563-4.165a16.555 16.555 0 0 0-.811-5.079.216.216 0 1 1 .4-.16 16.682 16.682 0 0 1 .842 5.223c.108 3.4-.619 4.4-.648 4.438a.216.216 0 0 1-.173.087z" class="cls-10" transform="translate(-2320.79 -375.93)"/>
                    </g>
                    <g id="Group_1777" transform="translate(10.973 10.235)">
                        <path id="Path_6630" d="M2259.682 337.4a.216.216 0 0 1-.119-.394 22.46 22.46 0 0 1 4.332-2.323c1.206-.273 1.992-.393 2-.394a.215.215 0 0 1 .064.426c-.009 0-.779.119-1.969.389a22.8 22.8 0 0 0-4.19 2.262.215.215 0 0 1-.118.035z" class="cls-10" transform="translate(-2259.469 -334.284)"/>
                    </g>
                    <g id="Group_1778" transform="translate(14.891 12.446)">
                        <path id="Path_6631" d="M2276.89 346.4a.216.216 0 0 1-.2-.124 18.86 18.86 0 0 0-2.7-4.133c-1.513-1.636-5.214-2.3-5.25-2.3a.215.215 0 1 1 .074-.424c.158.027 3.875.694 5.492 2.435a18.941 18.941 0 0 1 2.781 4.243.216.216 0 0 1-.2.306z" class="cls-10" transform="translate(-2268.564 -339.415)"/>
                    </g>
                    <g id="Group_1779" transform="translate(20.491 12.917)">
                        <path id="Path_6632" d="M2286.945 345.779a.215.215 0 0 1-.178-.1 18.647 18.647 0 0 1-1.371-2.755c-.791-1.837-3.591-1.985-3.62-1.986a.216.216 0 0 1-.205-.225.2.2 0 0 1 .225-.205c.125.007 3.1.163 4 2.247a18.817 18.817 0 0 0 1.332 2.683.216.216 0 0 1-.178.336z" class="cls-10" transform="translate(-2281.572 -340.512)"/>
                    </g>
                    <g id="Group_1780" transform="translate(28.327 12.159)">
                        <path id="Path_6633" d="M2310.5 346.315a.216.216 0 0 1-.2-.125 5.2 5.2 0 0 0-1.955-2.053l-.179-.108a11.272 11.272 0 0 1-3.532-2.81c-1.327-1.52-4.612-2.018-4.647-2.022a.216.216 0 1 1 .063-.427c.141.021 3.473.526 4.906 2.161a10.913 10.913 0 0 0 3.422 2.718l.179.108a5.554 5.554 0 0 1 2.131 2.245.237.237 0 0 1-.192.313z" class="cls-10" transform="translate(-2299.793 -338.765)"/>
                    </g>
                    <g id="Group_1781" transform="translate(4.561 20.728)">
                        <path id="Path_6634" d="M2246.427 370.511a.216.216 0 0 1-.158-.071 8.025 8.025 0 0 1-1.691-4.988 25.914 25.914 0 0 1 .964-6.668.216.216 0 0 1 .415.122 25.446 25.446 0 0 0-.947 6.536 7.72 7.72 0 0 0 1.578 4.71.216.216 0 0 1-.16.359z" class="cls-10" transform="translate(-2244.578 -358.637)"/>
                    </g>
                    <g id="Group_1782" transform="translate(31.175 21.766)">
                        <path id="Path_6635" d="M2319.985 370.029a.222.222 0 0 1-.068-.011.216.216 0 0 1-.135-.272 4.431 4.431 0 0 0-1.046-4.338 3.365 3.365 0 0 0-1.751-.819 9.64 9.64 0 0 1-3.467-1.549c-2.594-1.809-6.865-1.533-6.908-1.529a.224.224 0 0 1-.23-.2.216.216 0 0 1 .2-.23c.181-.014 4.465-.291 7.184 1.606a9.253 9.253 0 0 0 3.329 1.485 3.79 3.79 0 0 1 1.945.934 4.864 4.864 0 0 1 1.148 4.778.216.216 0 0 1-.201.145z" class="cls-10" transform="translate(-2306.379 -361.059)"/>
                    </g>
                    <g id="Group_1783" transform="translate(10.223 1.689)">
                        <path id="Path_6636" d="M2262.194 319.115a.216.216 0 0 1-.205-.151 8.591 8.591 0 0 0-1.144-2.214 8.5 8.5 0 0 0-3.02-1.91.216.216 0 0 1 .154-.4 8.732 8.732 0 0 1 3.214 2.053 8.889 8.889 0 0 1 1.207 2.341.217.217 0 0 1-.142.269.229.229 0 0 1-.065.014z" class="cls-10" transform="translate(-2257.705 -314.43)"/>
                    </g>
                    <g id="Group_1784" transform="translate(12.343 5.19)">
                        <path id="Path_6637" d="M2264.63 326.57a.216.216 0 0 1-.192-.12l-1.742-3.526a.216.216 0 1 1 .386-.191l1.743 3.526a.216.216 0 0 1-.193.311z" class="cls-10" transform="translate(-2262.663 -322.594)"/>
                    </g>
                    <g id="Group_1785" transform="translate(7.087 10.792)">
                        <path id="Path_6638" d="M2253.768 336.791a.225.225 0 0 1-.053-.006l-3.128-.785a.216.216 0 0 1 .108-.418l3.128.785a.216.216 0 0 1-.053.425z" class="cls-10" transform="translate(-2250.433 -335.576)"/>
                    </g>
                    <path id="Path_6639" d="M2267.054 375.884c-.162.289-.333.585-.507.885-1.313.149-2.632-.122-3.927.042l.042-.1c.216-.525-.64-.757-.851-.235-.08.2-.145.385-.216.577-.08.028-.16.056-.24.09-.337.145-.265.511-.033.694a12.46 12.46 0 0 0-.227 6.917 12.357 12.357 0 0 1 .108 5.72 15.747 15.747 0 0 0-.693 4.34.443.443 0 0 0 .865.117c.9-2.841 2.125-5.728 2.361-8.69.243-3.044 1.837-5.952 3.369-8.664.081-.014.163-.027.244-.044a.418.418 0 0 0 .185-.713c.091-.162.183-.324.272-.485a.441.441 0 0 0-.753-.449z" class="cls-7" transform="translate(-2249.09 -347.608)"/>
                    <g id="Group_1786" transform="translate(15.672 20.415)">
                        <path id="Path_6640" d="M2270.6 369.022h-.008a.216.216 0 0 1-.208-.223c.01-.273.239-6.713 1.58-8.714a3.35 3.35 0 0 1 3.036-1.329 2.809 2.809 0 0 0 1.823-.474c1.25-1.149 6.52.782 7.117 1.006a.216.216 0 0 1-.151.4c-1.553-.583-5.78-1.913-6.674-1.092a3.164 3.164 0 0 1-2.094.588 2.965 2.965 0 0 0-2.7 1.139c-1.274 1.9-1.5 8.422-1.508 8.488a.216.216 0 0 1-.212.207z" class="cls-10" transform="translate(-2270.384 -357.92)"/>
                    </g>
                </g>
                <path id="Path_6641" d="M2170.953 459.509a12.319 12.319 0 0 1 9.876 7.716c2.693 7.08 1.1 8.592 4.841 15.633s7.03 12.291 8.567 15.155 5.2 2.864 5.991 7.319 1 7.637 2.173 9.865 3.586 6.809 4.207 8.5-2.88 1.847-5.266 5.187-7.319 4.3-15.67 2.386a24.369 24.369 0 0 1-12.644-7.1h-22.872a142.165 142.165 0 0 0 3.222-22.708c.7-12.306.875-25.087 4.853-32.724s12.722-9.229 12.722-9.229z" class="cls-11" transform="translate(-2080.375 -395.342)"/>
                <path id="Path_6642" d="M2189.061 465.374s-2.942-9.923-2.787-11.913 7.016-4.017 7.016-4.017-2.088-1.254-6.026 0-2.625.592-5.907 1.37-9.07 3.761-11.635 5.073-3.717 3.759-5.677 6.98-1.729 15.039-1.729 15.039 16.173-15.975 16.71-16.163 10.035 3.631 10.035 3.631z" class="cls-11" transform="translate(-2087.303 -389.295)"/>
                <path id="Path_6643" d="M2284.671 457.557a15.478 15.478 0 0 1 3.52 6.268c.894 3.579-2.844 15.5.845 22.7s2.427 11.015 2.938 18.294-.085 18.2-.085 18.2h28.639a37.757 37.757 0 0 0-2.751-14.025c-2.981-7.279-3.18-4.892-4.215-11.217s-1.446-18.223-3.507-22.536-5.1-9.452-7.457-10.821-9.459-4-10.051-4.352-2.182-2.327-4.343-2.506a18.382 18.382 0 0 0-3.533-.005z" class="cls-11" transform="translate(-2156.965 -394.186)"/>
                <path id="Path_6644" d="M2298.067 499.962s-.395-5.808-.348-8.194a3.725 3.725 0 0 1 2.784-3.978 17.959 17.959 0 0 0 4.9-2.386 8.564 8.564 0 0 1 2.785-1.513s-2.713 7.241-3.147 8.035-4.173 8.754-4.173 8.754z" class="cls-3" transform="translate(-2164.392 -409.224)"/>
                <g id="Group_1791" transform="translate(136.05 65.552)">
                    <path id="Path_6645" d="M2328.808 463.217l-13.826-.487a.879.879 0 0 0-.83.509c-1.551 3.358-9.957 21.579-10.107 22.587-.049.324 1.276.617 3.134.852a.3.3 0 0 1 .184.494.3.3 0 0 0 .216.5h11.176a.882.882 0 0 0 .8-.506l10.494-22.293a.882.882 0 0 0-.237-1.055l-.475-.392a.883.883 0 0 0-.529-.209z" class="cls-12" transform="translate(-2304.044 -462.729)"/>
                    <g id="Group_1788" transform="translate(5.347 .863)">
                        <path id="Path_6646" d="M2316.672 478.242a.211.211 0 0 1-.087-.018.216.216 0 0 1-.108-.284l5.728-13.077a.237.237 0 0 1 .207-.129l14.221.567a.216.216 0 0 1 .206.224.209.209 0 0 1-.224.206l-14.074-.561-5.666 12.941a.216.216 0 0 1-.203.131z" class="cls-4" transform="translate(-2316.458 -464.734)"/>
                    </g>
                    <g id="Group_1789" transform="translate(20.262 2.709)">
                        <path id="Path_6647" d="M2352.318 473.4h-.132a1.1 1.1 0 0 1-1.007-1.531l.946-2.191a1.1 1.1 0 0 1 1.007-.661h.193a1.1 1.1 0 0 1 1 1.555l-1.007 2.191a1.1 1.1 0 0 1-1 .637zm.814-3.953a.666.666 0 0 0-.612.4l-.946 2.19a.666.666 0 0 0 .612.931h.132a.67.67 0 0 0 .605-.388l1.007-2.191a.666.666 0 0 0-.605-.945z" class="cls-4" transform="translate(-2351.089 -469.017)"/>
                    </g>
                    <g id="Group_1790" transform="translate(10.5 .134)">
                        <path id="Path_6648" d="M2329.195 464.18a.216.216 0 0 1-.17-.083l-.582-.746a.216.216 0 0 1 .339-.265l.583.746a.216.216 0 0 1-.17.348z" class="cls-4" transform="translate(-2328.408 -463.018)"/>
                    </g>
                </g>
                <path id="Path_6649" d="M2280.716 516.887s-5.12 9.172-8.538 16.29-7.71 16.3-10.879 16.937-5.107-14.727-5-16.048 5.787-8.168 9.056-11.933c3.546-4.086 11.105-14.111 11.105-14.111z" class="cls-3" transform="translate(-2140.806 -422.963)"/>
                <path id="Path_6650" d="M2322.223 490.369a2.971 2.971 0 0 0 .709-1.129c.318-1.114-.08-1.432-.9-1.432s-2.439.875-4.107 1.273-4.742 1.168-7.842 1.89a15.036 15.036 0 0 1-6.365.349s-4.995 12.861-5.187 12.861 6.235 1.2 6.235 1.2c.237.075 1.063-.412 1.284-.5q1.631-.634 3.26-1.279c1.17-.463 2.337-.936 3.486-1.447s2.259-1.189 3.452-1.583a9.314 9.314 0 0 0 2.628-1.433c.87-.7 1.081-1.367.571-2.232a12.377 12.377 0 0 0 1.968-1.451 1.742 1.742 0 0 0 .6-2.053 4.087 4.087 0 0 0 .883-.757c.989-1.178.348-2.164-.675-2.277z" class="cls-3" transform="translate(-2164.849 -411.454)"/>
                <g id="Group_1792" transform="translate(148.376 79.29)">
                    <path id="Path_6651" d="M2332.876 498.032a.216.216 0 0 1-.073-.418c.023-.009 2.394-.865 4.527-1.42a18.339 18.339 0 0 0 3.841-1.513.216.216 0 1 1 .209.376 18.433 18.433 0 0 1-3.944 1.553c-2.113.548-4.463 1.4-4.487 1.4a.218.218 0 0 1-.073.017z" class="cls-9" transform="translate(-2332.663 -494.643)"/>
                </g>
                <g id="Group_1793" transform="translate(147.127 81.884)">
                    <path id="Path_6652" d="M2329.966 504.132a.216.216 0 0 1-.053-.424c.031-.009 3.2-.817 5.469-1.639s3.762-1.385 3.776-1.392a.216.216 0 1 1 .152.4c-.015.005-1.5.566-3.782 1.393s-5.477 1.644-5.512 1.651a.2.2 0 0 1-.05.008z" class="cls-9" transform="translate(-2329.756 -500.656)"/>
                </g>
                <g id="Group_1794" transform="translate(148.377 85.436)">
                    <path id="Path_6653" d="M2332.877 511.183a.216.216 0 0 1-.069-.419l5.469-1.87a.216.216 0 0 1 .14.407l-5.47 1.869a.2.2 0 0 1-.07.013z" class="cls-9" transform="translate(-2332.665 -508.888)"/>
                </g>
                <g id="Group_1795" transform="translate(123.901 37.334)">
                    <path id="Path_6654" d="M2279.351 406.57a3.416 3.416 0 0 1-1.72-.452 3.675 3.675 0 0 1-1.748-2.68 5.437 5.437 0 0 1 .713-3.557c1.346-2.332 4-3.329 5.919-2.222s2.377 3.9 1.035 6.237a5.054 5.054 0 0 1-4.2 2.674zm1.438-8.933a4.625 4.625 0 0 0-3.821 2.46 5.008 5.008 0 0 0-.66 3.274 3.25 3.25 0 0 0 1.538 2.378c1.712.989 4.107.062 5.331-2.064 1.228-2.126.834-4.66-.877-5.648a3 3 0 0 0-1.511-.4z" class="cls-4" transform="translate(-2275.828 -397.208)"/>
                </g>
                <g id="Group_1796" transform="translate(135.582 42.514)">
                    <path id="Path_6655" d="M2306.456 418.64a3.414 3.414 0 0 1-1.72-.452 3.674 3.674 0 0 1-1.749-2.679 5.666 5.666 0 0 1 3.438-5.953 3.538 3.538 0 0 1 4.942 2.854 5.438 5.438 0 0 1-.712 3.557 5.054 5.054 0 0 1-4.2 2.673zm1.438-8.934a3.7 3.7 0 0 0-1.315.253 5.236 5.236 0 0 0-3.165 5.482 3.249 3.249 0 0 0 1.54 2.378c1.71.989 4.106.062 5.331-2.064a5.011 5.011 0 0 0 .659-3.273 3.248 3.248 0 0 0-1.538-2.378 3 3 0 0 0-1.514-.4z" class="cls-4" transform="translate(-2302.94 -409.257)"/>
                </g>
                <g id="Group_1797" transform="translate(131.709 43.189)">
                    <path id="Path_6656" d="M2298.581 413.347a9.837 9.837 0 0 0-2-1.175 11.751 11.751 0 0 0-2.614-.951l.08-.423a11.924 11.924 0 0 1 2.724.987 9.814 9.814 0 0 1 2.1 1.244z" class="cls-4" transform="translate(-2293.967 -410.799)"/>
                </g>
                <g id="Group_1799" transform="translate(131.823 117.482)">
                    <path id="Path_6657" d="M2318.419 597.166h-10.895a1.323 1.323 0 0 1-1.312-1.155l-1.428-11.224a1.323 1.323 0 0 1 1.315-1.486h13.749a1.323 1.323 0 0 1 1.312 1.489l-1.427 11.224a1.322 1.322 0 0 1-1.314 1.152z" class="cls-8" transform="translate(-2300.233 -583.3)"/>
                    <g id="Group_1798" transform="translate(0 2.582)">
                        <path id="Path_6658" d="M2300.019 598.311c-1.961 0-5.249-1.676-5.783-3.793a4.526 4.526 0 0 1 3.242-5.117 2.261 2.261 0 0 1 2.435.8 6.592 6.592 0 0 1 1.127 2.6c.1.377.216.765.33 1.151.413 1.363.8 2.651.3 3.535a1.6 1.6 0 0 1-1.036.756 2.558 2.558 0 0 1-.616.07zm-4.53-4.107c.408 1.621 3.615 3.1 4.834 2.788.174-.044.216-.108.229-.141.228-.4-.127-1.579-.414-2.525-.12-.4-.244-.808-.346-1.209a5.536 5.536 0 0 0-.871-2.1.973.973 0 0 0-1.121-.365c-1.189.3-2.713 1.957-2.311 3.547z" class="cls-8" transform="translate(-2294.171 -589.309)"/>
                    </g>
                </g>
                <g id="Group_1803" transform="translate(146.567 116.441)">
                    <path id="Path_6659" d="M2337.659 588.4a1.446 1.446 0 0 0-.482-.825l-.079-.061a2.619 2.619 0 0 0 .408-.452 2.014 2.014 0 0 0-1.25-3.005c.353.1.7-1.054.778-1.272a1.218 1.218 0 0 0-.526-1.65 2.459 2.459 0 0 0-1.911-.091 10.025 10.025 0 0 0-3.483 2.2c-.635.549-2.061 2.179-1.015 3.018a1.336 1.336 0 0 0 .649.265c-.108.081-.216.155-.324.242a5.268 5.268 0 0 0-1.936 2.776c-.117.879.265 1.233.879 1.3a1.244 1.244 0 0 0 .132 1.648c.509.552 1.534.3 2.161.154.118-.028.236-.058.353-.088a1.79 1.79 0 0 0-.377 1.182c.1 1.6 1.932.763 2.958.489 1.267-.339 3.044-1.081 3-2.1a1.491 1.491 0 0 0-.679-1.38 2.959 2.959 0 0 0 .744-2.35z" class="cls-3" transform="translate(-2328.465 -580.89)"/>
                    <g id="Group_1800" transform="translate(2.747 3.454)">
                        <path id="Path_6660" d="M2335.056 590.932a.218.218 0 0 1-.124-.4c.09-.061 2.077-.911 3.726-1.615a.216.216 0 0 1 .17.4c-1.4.6-3.532 1.513-3.668 1.583a.215.215 0 0 1-.1.031z" class="cls-9" transform="translate(-2334.839 -588.909)"/>
                    </g>
                    <g id="Group_1801" transform="translate(1.307 6.67)">
                        <path id="Path_6661" d="M2331.707 599.608a.216.216 0 0 1-.088-.412l6.256-2.783a.216.216 0 1 1 .175.393l-6.256 2.783a.216.216 0 0 1-.087.019z" class="cls-9" transform="translate(-2331.495 -596.386)"/>
                    </g>
                    <g id="Group_1802" transform="translate(3.764 9.968)">
                        <path id="Path_6662" d="M2337.446 605.761a.216.216 0 0 1-.02-.432c.226-.047 2.4-.821 3.73-1.3a.216.216 0 0 1 .146.405c-2.429.88-3.728 1.327-3.856 1.327z" class="cls-9" transform="translate(-2337.22 -604.024)"/>
                    </g>
                </g>
                <g id="Group_1804" transform="translate(4.687 34.266)">
                    <path id="Path_6663" d="M2043.08 555.5c0 1.668 1.176 24.14 1.763 25.765s4.261 3.085 11.023 3.232 10.285-1.176 11.167-2.938 1.621-24.2 1.621-26.059-3.232-4.41-12.784-4.41-12.79 2.74-12.79 4.41z" class="cls-12" transform="translate(-2024.107 -481.747)"/>
                    <path id="Path_6664" fill="#485a7e" d="M2069.33 555.792c0 .586-1.957 1.217-4.906 1.6-.057.009-.115.013-.176.022-.159.022-.324.04-.494.062-.146.013-.3.031-.45.044-.41.044-.833.079-1.265.108l-.449.026h-.018c-.286.017-.583.031-.882.044-.216.009-.432.017-.648.017-.265.013-.533.017-.807.017h-1.135c-.371 0-.732-.013-1.088-.022-.674-.022-1.327-.057-1.953-.108-.15-.009-.3-.022-.445-.035-.324-.027-.635-.057-.939-.089h-.053c-.167-.022-.335-.04-.5-.062-.234-.026-.458-.057-.679-.088-2.68-.388-4.431-.983-4.431-1.534 0-.405.948-.961 2.512-1.45.26-.088.541-.163.837-.238a.378.378 0 0 0 .066-.017c.108-.03.229-.062.344-.083.617-.159 1.3-.291 2.023-.405l.083-.013.432-.066.48-.066a30.915 30.915 0 0 1 3.178-.229h.864c.912 0 1.794.049 2.636.123.309.026.608.057.9.092.1.013.195.023.291.04.155.017.3.035.45.057.895.132 1.724.291 2.459.471.093.026.181.049.269.07.066.017.132.035.2.049.265.07.512.142.745.216 1.593.474 2.549 1.038 2.549 1.447z" transform="translate(-2026.914 -482.954)"/>
                    <path id="Path_6665" d="M2110.217 458.317c-2.792-1.325-6.728.8-9.02 2.286-3.495 2.27-5.287 5.28-7.457 8.687-1.162 1.825-3.3 2.5-4.914 3.8a15.419 15.419 0 0 0-4.446 6.661c-1.224 3.026-1.277 6.708-2.485 9.555a19.07 19.07 0 0 0-1.1 3.4c-.241 1.106-.564 2.486.384 3.361 2.929 2.7 5.769-3.666 8.054-4.765a35.535 35.535 0 0 0 3.776-1.574c2.418-1.529 3.2-4.571 4.933-6.706 2.131-2.632 5.16-4.408 7.86-6.376a13.924 13.924 0 0 0 5.917-9c.457-2.498 1.422-7.94-1.502-9.329z" class="cls-14" transform="translate(-2045.433 -428.692)"/>
                    <path id="Path_6666" d="M2077.833 394.929a9.262 9.262 0 0 0-1.969-2.956c-4.431-4.4-11.927-.5-12.084 5.321a19.581 19.581 0 0 0 1.237 6.3 62.016 62.016 0 0 1 3.043 15.212c.265 5.4-1.88 10.326-1.851 15.562.009 1.577.562 3.469 2.091 3.853 1.966.493 3.365-1.844 4.007-3.766a176.134 176.134 0 0 0 4.875-17.563 62.463 62.463 0 0 0 1.88-15.547 17.9 17.9 0 0 0-1.229-6.416z" class="cls-14" transform="translate(-2035.89 -390.082)"/>
                    <path id="Path_6667" d="M2027.514 480.58c-.594-5.492-.856-11.167-4.286-15.779q-4.592-6.167-9.313-12.233a13.167 13.167 0 0 0-4.578-4.243c-3.631-1.654-9.04-1.536-8.782 3.405a16.307 16.307 0 0 0 3.52 8.8c1.918 2.247 4.5 3.86 6.345 6.172 4.714 5.922 3.6 15.944 10.375 20.34a6.161 6.161 0 0 0 3.307 1.081c3.567 0 3.927-3.323 3.581-6.113q-.095-.71-.169-1.43z" class="cls-14" transform="translate(-1999.889 -422.699)"/>
                    <path id="Path_6668" d="M2016.793 539.611c-1.382-2-6.044-.587-7.882.067a20.059 20.059 0 0 0-7.781 5.551c-1.379 1.5-2.674 3.551-1.837 5.661a3.821 3.821 0 0 0 4.013 2.139c2.877-.264 4.463-2.633 6.448-4.348 2.114-1.828 9.885-4.954 7.039-9.07z" class="cls-14" transform="translate(-1999.028 -474.626)"/>
                    <path id="Path_6669" d="M2115.438 525.027c-2.486-.163-5.228 1.485-7.27 2.7-2.347 1.4-5.466 2.518-7.047 4.844-.552.813-.9 2.029-.174 2.692 1.588 1.456 6.147-1.455 7.924-1.663 2.518-.3 5.258-.041 7.5-1.478 2.776-1.782 3.147-6.828-.933-7.095z" class="cls-14" transform="translate(-2056.819 -466.903)"/>
                    <path id="Path_6670" d="M2035.185 551.7c-.167-.022-.335-.04-.5-.062a18.5 18.5 0 0 0-1.755-3.31 14.477 14.477 0 0 0-3.395-3.61c-4.272-3.143-10.028.745-13.509 3.443-.216.172-.533-.137-.313-.309 3.382-2.623 8.961-6.463 13.339-3.976a13.431 13.431 0 0 1 4.285 4.351c.151.229.3.462.441.692a18.247 18.247 0 0 1 1.407 2.781z" class="cls-15" transform="translate(-2008.487 -477.185)"/>
                    <path id="Path_6671" d="M2040.161 509.6c-.15-.009-.3-.022-.445-.035-.216-1.336-.445-2.667-.727-3.985-.291-1.362-.63-2.7-1.045-4.033-.662-2.125-1.631-4.095-2.486-6.136a38.481 38.481 0 0 1-1.729-5.338c-1.009-3.9-1.729-7.956-3.605-11.564-1.931-3.717-5.087-6.52-8.186-9.243-.216-.189.1-.5.309-.313a38.4 38.4 0 0 1 7.424 7.889c3.478 5.458 3.674 12.162 6.052 18.06.63 1.561 1.41 3.06 2 4.637a40.231 40.231 0 0 1 1.486 4.985c.075.331.15.661.216.992.287 1.347.526 2.709.736 4.084z" class="cls-15" transform="translate(-2012.027 -434.951)"/>
                    <path id="Path_6672" d="M2077.266 430.187c-1.081 8.036-3.98 15.795-4.09 23.958-.03 2.133.119 4.271.049 6.405a45.744 45.744 0 0 1-.837 6.132 32.554 32.554 0 0 0-.217 8.2c.124 1.508.305 3.015.5 4.518h-.441c-.194-1.513-.366-3.02-.472-4.518a35.467 35.467 0 0 1 .352-9.152 36.148 36.148 0 0 0 .693-6.89c-.018-2.106-.127-4.215-.009-6.317a71.549 71.549 0 0 1 1.87-11.545 105.82 105.82 0 0 0 2.354-12.387 59.717 59.717 0 0 0-.441-12.752c-.031-.282.41-.278.441 0a58.134 58.134 0 0 1 .248 14.348z" class="cls-15" transform="translate(-2040.356 -404.627)"/>
                    <path id="Path_6673" d="M2103.4 483.649a16.767 16.767 0 0 1-6.376 6.991 17.2 17.2 0 0 0-3.959 3.09c-1.16 1.376-1.588 3.134-2.454 4.677-1.693 3-4.567 5.161-6.423 8.081a33.327 33.327 0 0 0-3.121 7.241 39.367 39.367 0 0 0-1.081 4.1l-.45.026a41.576 41.576 0 0 1 1.081-4.183 33.937 33.937 0 0 1 3-7.1 26.432 26.432 0 0 1 2.9-3.848 29.626 29.626 0 0 0 3.531-4.232c.908-1.486 1.323-3.227 2.359-4.637a12.16 12.16 0 0 1 3.1-2.75 31.737 31.737 0 0 0 4.188-3.026 15.215 15.215 0 0 0 3.328-4.655c.115-.252.494-.031.377.225z" class="cls-15" transform="translate(-2044.862 -443.162)"/>
                    <path id="Path_6674" d="M2103.881 535.364a8.337 8.337 0 0 0-6.365 1.256c-1.5 1.005-2.7 2.389-4.249 3.329s-3.412 1.264-4.928 2.27a6.331 6.331 0 0 0-1.476 1.389 14.216 14.216 0 0 0-1.8 3.293c-.159.022-.324.04-.494.062a15.929 15.929 0 0 1 1.82-3.473 6.953 6.953 0 0 1 1.111-1.194c1.6-1.353 3.773-1.652 5.537-2.729 1.9-1.154 3.319-2.975 5.338-3.959a8.811 8.811 0 0 1 5.62-.666c.283.051.168.479-.114.422z" class="cls-15" transform="translate(-2047.729 -472.448)"/>
                    <path id="Path_6675" d="M2049.731 576.683l-.981 1.495c-.156.238.226.459.38.223l.98-1.495c.157-.24-.222-.46-.379-.223z" class="cls-4" transform="translate(-2027.315 -496.261)"/>
                    <path id="Path_6676" d="M2053.408 595.576a7.94 7.94 0 0 0-.822 1.243c-.133.251.247.473.38.223a7.384 7.384 0 0 1 .756-1.154c.178-.22-.136-.534-.314-.312z" class="cls-4" transform="translate(-2029.504 -507.032)"/>
                    <path id="Path_6677" d="M2071.147 584.389a5.279 5.279 0 0 0-1.057 1.4c-.131.252.249.474.38.223a4.9 4.9 0 0 1 .988-1.312c.206-.2-.105-.51-.311-.311z" class="cls-4" transform="translate(-2039.47 -500.671)"/>
                    <path id="Path_6678" d="M2090.613 571.385q-.676.736-1.288 1.526c-.172.222.138.54.311.312q.613-.791 1.288-1.526c.192-.208-.124-.52-.311-.312z" class="cls-4" transform="translate(-2050.407 -493.263)"/>
                    <path id="Path_6679" d="M2085.749 595.37a15.731 15.731 0 0 0-1.14 1.433c-.165.232.216.453.38.223a14.866 14.866 0 0 1 1.071-1.344c.19-.21-.122-.524-.311-.312z" class="cls-4" transform="translate(-2047.729 -506.919)"/>
                    <path id="Path_6680" d="M2060.812 567l-.908 1.023c-.188.216.123.524.312.311l.908-1.023c.185-.211-.124-.521-.312-.311z" class="cls-4" transform="translate(-2033.653 -490.765)"/>
                    <path id="Path_6681" d="M2098.488 582.632l-.915 1.066c-.184.216.126.527.313.312l.915-1.066c.182-.214-.128-.528-.313-.312z" class="cls-4" transform="translate(-2055.1 -499.664)"/>
                    <path id="Path_6682" d="M2072.178 608.82l-.915 1.065c-.184.216.126.527.312.312l.914-1.066c.186-.212-.124-.526-.311-.311z" class="cls-4" transform="translate(-2040.121 -514.575)"/>
                    <path id="Path_6683" d="M2092.621 614.957a6.393 6.393 0 0 1-1.157 1.134c-.224.168 0 .551.222.38a6.781 6.781 0 0 0 1.245-1.2c.177-.222-.131-.537-.31-.314z" class="cls-4" transform="translate(-2051.601 -518.066)"/>
                    <path id="Path_6684" d="M2056.062 616.5a11.811 11.811 0 0 1-1.513 1.513c-.216.182.095.492.312.311a11.845 11.845 0 0 0 1.513-1.513c.181-.22-.13-.534-.312-.311z" class="cls-4" transform="translate(-2030.594 -518.943)"/>
                </g>
                <g id="Group_1805" transform="translate(78.966 79.616)">
                    <path id="Path_6685" d="M2194.308 500.317a.217.217 0 0 1-.131-.044c-.052-.04-5.223-3.967-11.141-4.463a23.007 23.007 0 0 0-11.182 2.215.216.216 0 1 1-.2-.381 23.441 23.441 0 0 1 11.418-2.263c6.045.507 11.314 4.511 11.367 4.551a.216.216 0 0 1-.131.386z" class="cls-16" transform="translate(-2171.521 -495.345)"/>
                </g>
                <g id="Group_1806" transform="translate(91.391 106.69)">
                    <path id="Path_6686" d="M2200.567 578.489a.216.216 0 0 1-.216-.2c0-.062-.1-1.524 2.084-3.92a21.938 21.938 0 0 1 2.607-2.326 27.022 27.022 0 0 0 5.493-5.566c3.34-4.533 12.2-8.053 12.577-8.2a.216.216 0 1 1 .157.4c-.091.036-9.122 3.623-12.386 8.055a27.413 27.413 0 0 1-5.571 5.646 21.706 21.706 0 0 0-2.558 2.28c-2.061 2.259-1.974 3.581-1.973 3.593a.216.216 0 0 1-.2.232z" class="cls-16" transform="translate(-2200.351 -558.259)"/>
                </g>
                <g id="Group_1807" transform="translate(76.545 108.336)">
                    <path id="Path_6687" d="M2174.117 574.564a.215.215 0 0 1-.123-.039 13.485 13.485 0 0 1-4.008-5 73.327 73.327 0 0 0-4.107-7.154.216.216 0 0 1 .36-.237 73.56 73.56 0 0 1 4.14 7.205 13.318 13.318 0 0 0 3.867 4.833.216.216 0 0 1-.124.392z" class="cls-16" transform="translate(-2165.853 -562.05)"/>
                </g>
                <g id="Group_1808" transform="translate(92.826 107.533)">
                    <path id="Path_6688" d="M2203.894 567.472a.216.216 0 0 1-.167-.351 19.177 19.177 0 0 1 8.821-5.583c5.467-1.544 7.742-1.329 7.837-1.32a.217.217 0 0 1-.045.432c-.021 0-2.307-.216-7.673 1.305a18.7 18.7 0 0 0-8.6 5.44.217.217 0 0 1-.173.077z" class="cls-16" transform="translate(-2203.678 -560.203)"/>
                </g>
                <g id="Group_1809" transform="translate(142.465 94.284)">
                    <path id="Path_6689" d="M2319.154 549.124a.216.216 0 0 1-.216-.216c0-.552-.025-13.563 1.14-15.85 1.142-2.247 1.837-3.458 1.849-3.471a.216.216 0 1 1 .373.216c-.007.012-.7 1.216-1.837 3.451-1.117 2.2-1.093 15.519-1.093 15.653a.216.216 0 0 1-.216.216z" class="cls-16" transform="translate(-2318.938 -529.464)"/>
                </g>
                <g id="Group_1810" transform="translate(92.819 62.658)">
                    <path id="Path_6690" d="M2215.112 481.1a.217.217 0 0 1-.179-.1c-.3-.451-7.43-11.091-8.64-15.125-1.2-4.006-2.594-9.51-2.608-9.566a.216.216 0 1 1 .417-.108c.014.055 1.405 5.552 2.6 9.548 1.189 3.971 8.512 14.9 8.585 15.008a.219.219 0 0 1-.178.338z" class="cls-16" transform="translate(-2203.674 -456.031)"/>
                </g>
                <g id="Group_1811" transform="translate(133.994 67.79)">
                    <path id="Path_6691" d="M2299.484 478.283a.216.216 0 0 1-.205-.281 38.513 38.513 0 0 0 1.337-6.052c.369-2.936.025-3.7.021-3.712a.215.215 0 0 1 .383-.2c.043.081.409.882.023 3.963a39.117 39.117 0 0 1-1.353 6.124.216.216 0 0 1-.206.158z" class="cls-16" transform="translate(-2299.269 -467.929)"/>
                </g>
                <g id="Group_1812" transform="translate(125.881 63.647)">
                    <path id="Path_6692" d="M2280.646 461.493a.216.216 0 0 1-.195-.308l1.315-2.778a.216.216 0 0 1 .39.185l-1.316 2.777a.217.217 0 0 1-.195.124z" class="cls-9" transform="translate(-2280.431 -458.292)"/>
                </g>
                <path id="Path_6693" fill="#fff" d="M2318.6 558.963c-.194-.78-.875-1.286-1.051-2.117-.155-.734-.125-1.5-.285-2.229-.308-1.4-1.205-1.755-2.292-2.491-.777-.525-.649-1.254-1.044-1.977a7.753 7.753 0 0 0-1.417-1.776c-.625-.572-1.388-.54-1.673.337-.42 1.3.216 3.142.648 4.374.45 1.286 1.189 3.19 2.4 3.961a5.548 5.548 0 0 0 .709.3 2.053 2.053 0 0 1 1.394 1.461c.244.648.467 1.3.687 1.951.151.45.122 1.229.3 1.59.54 1.081.69-.855.775-1.081.298-.773 1.078-1.394.849-2.303z" opacity="0.24" transform="translate(-2171.787 -445.715)"/>
                <g id="Group_1813" transform="translate(101.532 63.077)">
                    <path id="Path_6694" d="M2240.806 492.2a.216.216 0 0 1-.162-.072 25.709 25.709 0 0 1-4.055-6.383 21.486 21.486 0 0 0-2.774-4.88c-.534-.764-1.086-1.553-1.643-2.478a11.256 11.256 0 0 1-1.189-3.566 14.345 14.345 0 0 0-2.906-6.681c-3.373-4.215-4.167-10.855-4.175-10.922a.215.215 0 0 1 .428-.049c.008.066.788 6.584 4.083 10.7a14.7 14.7 0 0 1 2.99 6.86 10.779 10.779 0 0 0 1.134 3.433c.548.912 1.1 1.7 1.621 2.452a21.832 21.832 0 0 1 2.823 4.971 25.223 25.223 0 0 0 3.977 6.253.216.216 0 0 1-.161.358z" class="cls-2" transform="translate(-2223.902 -456.978)"/>
                </g>
                <g id="Group_1814" transform="translate(118.222 70.036)">
                    <path id="Path_6695" d="M2262.863 507.456a.234.234 0 0 1-.038 0 .216.216 0 0 1-.174-.251c.052-.291 1.3-7.133 2.577-9.13a14.344 14.344 0 0 0 1.3-3.6 11.538 11.538 0 0 1 1.828-4.431 18.063 18.063 0 0 0 4.254-9.029 57.016 57.016 0 0 1 2-7.7.216.216 0 1 1 .405.147 56.5 56.5 0 0 0-1.984 7.634 18.469 18.469 0 0 1-4.359 9.237 11.352 11.352 0 0 0-1.729 4.256 14.324 14.324 0 0 1-1.358 3.723c-1.237 1.926-2.5 8.9-2.516 8.97a.216.216 0 0 1-.214.176z" class="cls-2" transform="translate(-2262.648 -473.154)"/>
                </g>
            </g>
            <g id="Group_1819" transform="translate(168.463 98.867)">
                <rect id="Rectangle_2242" width="82.215" height="19.341" class="cls-18" rx="3" transform="translate(6.97)"/>
                <path id="Path_6696" d="M2389.4 572.978l-10.1 5.13 11.78.043z" class="cls-18" transform="translate(-2379.305 -558.811)"/>
                <g id="Group_1816" transform="translate(49.889 9.237)">
                    <path id="Path_6697" d="M2507.9 562.4h-12.32a.432.432 0 0 1 0-.865h12.32a.432.432 0 1 1 0 .865z" class="cls-4" transform="translate(-2495.144 -561.534)"/>
                </g>
                <g id="Group_1817" transform="translate(68.403 9.237)">
                    <path id="Path_6698" d="M2550.884 562.4h-12.32a.432.432 0 0 1 0-.865h12.32a.432.432 0 0 1 0 .865z" class="cls-4" transform="translate(-2538.132 -561.534)"/>
                </g>
                <g id="Group_1818" transform="translate(14.364 9.237)">
                    <path id="Path_6699" d="M2442.627 562.4h-29.534a.432.432 0 0 1 0-.865h29.534a.432.432 0 0 1 0 .865z" class="cls-4" transform="translate(-2412.661 -561.534)"/>
                </g>
            </g>
            <g id="Group_1823" transform="translate(158.911 29.813)">
                <rect id="Rectangle_2243" width="71.603" height="19.341" class="cls-18" rx="3" transform="translate(9.385)"/>
                <path id="Path_6700" d="M2367.223 412.636l-10.1 5.13 11.78.043z" class="cls-18" transform="translate(-2357.127 -398.469)"/>
                <g id="Group_1820" transform="translate(16.338 9.237)">
                    <path id="Path_6701" d="M2415.776 402.057H2395.5a.432.432 0 0 1 0-.865h20.277a.432.432 0 0 1 0 .865z" class="cls-4" transform="translate(-2395.066 -401.192)"/>
                </g>
                <g id="Group_1821" transform="translate(43.889 9.237)">
                    <path id="Path_6702" d="M2472.034 402.057h-12.564a.432.432 0 0 1 0-.865h12.563a.432.432 0 0 1 0 .865z" class="cls-4" transform="translate(-2459.038 -401.192)"/>
                </g>
                <g id="Group_1822" transform="translate(62.075 9.237)">
                    <path id="Path_6703" d="M2511.942 402.057h-10.248a.432.432 0 0 1 0-.865h10.248a.432.432 0 0 1 0 .865z" class="cls-4" transform="translate(-2501.261 -401.192)"/>
                </g>
            </g>
            <g id="Group_1825" transform="translate(167.12 61.792)">
                <rect id="Rectangle_2244" width="31.157" height="19.341" class="cls-19" rx="3" transform="translate(9.064)"/>
                <path id="Path_6704" d="M2386.282 486.892l-10.1 5.13 11.78.043z" class="cls-19" transform="translate(-2376.186 -472.725)"/>
                <g id="Group_1824" transform="translate(15.027 9.237)">
                    <path id="Path_6705" d="M2421.759 476.313h-10.249a.432.432 0 0 1 0-.865h10.248a.432.432 0 0 1 0 .865z" class="cls-4" transform="translate(-2411.078 -475.448)"/>
                </g>
                <g id="like-2" transform="translate(29.588 5.47)">
                    <path id="Path_6706" d="M3.017 14.73h-.678A.324.324 0 0 1 2 14.39v-3.051A.324.324 0 0 1 2.339 11h.678a.324.324 0 0 1 .339.339v3.051a.324.324 0 0 1-.339.339z" class="cls-4" transform="translate(-2 -7.944)"/>
                    <path id="Path_6707" d="M12.068 4.713h-1.69V3.7a2.119 2.119 0 0 0-.848-1.665.348.348 0 0 0-.509.3V3.7L8 4.918v3.523l.1.034a2.639 2.639 0 0 0 1.255.3h2.378a.68.68 0 0 0 .678-.678l.339-2.713a.68.68 0 0 0-.682-.671z" class="cls-4" transform="translate(-5.966 -1.995)"/>
                </g>
            </g>
        </g>
    </g>
</svg>
