<svg xmlns="http://www.w3.org/2000/svg" xmlns:xlink="http://www.w3.org/1999/xlink" width="273" height="245" viewBox="0 0 273 245">
    <defs>
        <linearGradient id="linear-gradient" x1="-16.097" x2="-15.077" y1="361.31" y2="363.32" gradientUnits="objectBoundingBox">
            <stop offset="0" stop-color="#ff6a00"/>
            <stop offset="1" stop-color="#f5ab00"/>
        </linearGradient>
        <linearGradient id="linear-gradient-2" x1="63.497" x2="62.891" y1="181.003" y2="181.892" gradientUnits="objectBoundingBox">
            <stop offset="0" stop-color="#692489"/>
            <stop offset="1" stop-color="#5fb8cc"/>
        </linearGradient>
        <linearGradient id="linear-gradient-3" x1="170.301" x2="171.301" y1="760.237" y2="760.237" xlink:href="#linear-gradient-2"/>
        <clipPath id="clip-path">
            <path id="Rectangle_2247" d="M0 0H273V245H0z" transform="translate(.283)"/>
        </clipPath>
        <style>
            .cls-2{fill:#9ba9c4}.cls-3{fill:#fea689}.cls-4{fill:#eb754d}.cls-5{fill:#d7dfed}.cls-7{fill:#bcc8e0}.cls-8{fill:#fff}.cls-11{fill:#723d37}.cls-12{fill:#ebeff5}.cls-13{fill:#542823}.cls-14{fill:#ab584f}.cls-15{fill:#7dd0de}
        </style>
    </defs>
    <g id="Screen_3" clip-path="url(#clip-path)" transform="translate(-.283)">
        <g id="Group_1762" transform="translate(49.697 12.532)">
            <g id="Group_1746" transform="translate(26.731)">
                <path id="Path_6494" d="M1245.141 215.144l-1.026-1.357v1.021z" class="cls-2" transform="translate(-1144.138 -203.636)"/>
                <path id="Path_6495" d="M1037.355 482.9s-6.867 7.493-10.82 11.132-8.24 4.335-8.989 5.514c-.22.357-1.48 3.5-3.125 7.727-1.059 2.707-2.274 5.861-3.482 9-3.15 8.208-6.237 16.35-6.237 16.35s-21.035-4.5-26.5-6.905a135.8 135.8 0 0 1-13.007-7.065 182.434 182.434 0 0 0 7.881-18.578 77.369 77.369 0 0 0 2.4-8.076l.229-1.005c2.341-10.466 2.341-14.114 2.341-14.114l5.459-13.463z" class="cls-3" transform="translate(-965.201 -363.787)"/>
                <path id="Path_6496" d="M1206.068 335.119s8.388 4.519 11.112 5.458 4.5 2.329 4.882 4.545-2.817 5.686-8.732 5.406-9.954-5.406-9.954-5.406z" class="cls-3" transform="translate(-1118.003 -281.477)"/>
                <path id="Path_6497" d="M1020.08 500.181l1.258 1.674v-1.7z" class="cls-2" transform="translate(-1000.407 -387.36)"/>
                <g id="Group_1694" transform="translate(23.899 130.715)">
                    <path id="Path_6498" d="M1032.048 565.469a.184.184 0 0 1-.071-.014.179.179 0 0 1-.093-.235l6.434-14.971a.179.179 0 1 1 .33.142l-6.434 14.971a.179.179 0 0 1-.165.108z" class="cls-4" transform="translate(-1031.869 -550.139)"/>
                </g>
                <path id="Path_6499" d="M1083.31 312.414l-58.942-8.5a3.585 3.585 0 0 1-3.036-4.065l15.468-107.22a3.584 3.584 0 0 1 4.06-3.036l58.942 8.5a3.584 3.584 0 0 1 3.036 4.06l-15.469 107.218a3.585 3.585 0 0 1-4.06 3.04z" class="cls-2" transform="translate(-1001.187 -188.093)"/>
                <g id="Group_1695" transform="translate(30.332 132.309)">
                    <path id="Path_6500" d="M1050 559.574a.171.171 0 0 1-.069-.014.179.179 0 0 1-.1-.234l1.927-4.6a.179.179 0 1 1 .33.138l-1.927 4.6a.179.179 0 0 1-.165.11z" class="cls-4" transform="translate(-1049.818 -554.603)"/>
                </g>
                <g id="Group_1729" transform="translate(19.007)">
                    <path id="Path_6501" d="M1080.239 308.32l-58.942-8.5a3.584 3.584 0 0 1-3.035-4.06l15.468-107.218a3.584 3.584 0 0 1 4.06-3.036l58.942 8.5a3.584 3.584 0 0 1 3.036 4.06L1084.3 305.284a3.584 3.584 0 0 1-4.061 3.036z" class="cls-5" transform="translate(-1018.224 -185.466)"/>
                    <path id="Path_6502" fill="#f2e8f4" d="M1102.65 227.081l-12.554 87a3.206 3.206 0 0 1-3.635 2.72l-55.307-7.977a3.214 3.214 0 0 1-2.72-3.639l12.553-87a3.21 3.21 0 0 1 3.635-2.72l55.307 7.981a3.21 3.21 0 0 1 2.721 3.635z" transform="translate(-1024.753 -204.691)"/>
                    <path id="Rectangle_2227" d="M3.122 0h11.16a3.123 3.123 0 0 1 3.123 3.123 3.122 3.122 0 0 1-3.122 3.122H3.123A3.123 3.123 0 0 1 0 3.122 3.122 3.122 0 0 1 3.122 0z" class="cls-7" transform="rotate(8.22 -744.058 229.467)"/>
                    <rect id="Rectangle_2228" width="16.057" height="5.138" class="cls-8" rx="2.338" transform="rotate(8.22 -748.25 233.894)"/>
                    <g id="Group_1696" transform="translate(40.633 7.755)">
                        <path id="Path_6503" d="M1146.176 210.554a.728.728 0 0 1-.1-.008l-13.873-2.018a.717.717 0 1 1 .207-1.418l13.872 2.018a.717.717 0 0 1-.1 1.428z" class="cls-7" transform="translate(-1131.586 -207.102)"/>
                    </g>
                    <path id="Path_6504" d="M1122.9 206.356a.749.749 0 1 0-.749.749.749.749 0 0 0 .749-.749z" class="cls-7" transform="translate(-1084.415 -198.388)"/>
                    <path id="Path_6536" d="M1125.179 227.081l-61.663-8.9a3.21 3.21 0 0 1 3.635-2.72l55.307 7.981a3.21 3.21 0 0 1 2.72 3.639z" class="cls-8" transform="translate(-1047.281 -204.691)"/>
                    <path id="Rectangle_2237" d="M0 0H4.802V1.816H0z" class="cls-5" transform="rotate(8.22 -94.916 489.071)"/>
                    <path id="Rectangle_2238" d="M0 0H1.518V1.221H0z" class="cls-8" transform="rotate(8.22 -98.483 509.698)"/>
                    <g id="Group_1720" transform="translate(20.884 11.514)">
                        <g id="Group_1716">
                            <path id="Path_6537" d="M1079.3 218.86a.179.179 0 0 1-.171-.129 1.209 1.209 0 0 0-1.029-.731 1.51 1.51 0 0 0-1.318.324.179.179 0 0 1-.258-.247 1.851 1.851 0 0 1 1.632-.43 1.555 1.555 0 0 1 1.31.989.17.17 0 0 1-.17.224z" class="cls-5" transform="translate(-1076.482 -217.604)"/>
                        </g>
                        <g id="Group_1717" transform="translate(.319 .656)">
                            <path id="Path_6538" d="M1079.38 220.341a.18.18 0 0 1-.166-.11.806.806 0 0 0-.626-.416 1.208 1.208 0 0 0-.922.175.18.18 0 0 1-.228-.278 1.558 1.558 0 0 1 1.208-.251 1.158 1.158 0 0 1 .9.634.179.179 0 0 1-.1.233.173.173 0 0 1-.069.013z" class="cls-5" transform="translate(-1077.373 -219.429)"/>
                        </g>
                        <g id="Group_1718" transform="translate(.545 1.342)">
                            <path id="Path_6539" d="M1079.451 222.023a.179.179 0 0 1-.149-.079.682.682 0 0 0-.474-.249.947.947 0 0 0-.54.11.179.179 0 1 1-.192-.3 1.276 1.276 0 0 1 .769-.165 1.038 1.038 0 0 1 .734.406.179.179 0 0 1-.048.248.177.177 0 0 1-.1.029z" class="cls-5" transform="translate(-1078.013 -221.331)"/>
                        </g>
                        <g id="Group_1719" transform="translate(.967 1.9)">
                            <path id="Path_6540" d="M1079.5 223.506a.31.31 0 1 1 .31-.31.31.31 0 0 1-.31.31zm0-.358a.048.048 0 0 0-.049.048c0 .054.1.054.1 0a.048.048 0 0 0-.048-.048z" class="cls-5" transform="translate(-1079.189 -222.886)"/>
                        </g>
                    </g>
                    <g id="Group_1725" transform="translate(65.702 18.394)">
                        <g id="Group_1721" transform="translate(.569 .583)">
                            <path id="Path_6541" d="M1203.29 239.608h-.03a.179.179 0 0 1-.147-.207l.141-.843a.179.179 0 0 1 .354.059l-.141.843a.179.179 0 0 1-.177.148z" class="cls-5" transform="translate(-1203.111 -238.409)"/>
                        </g>
                        <g id="Group_1722" transform="translate(0 .86)">
                            <path id="Path_6542" d="M1201.7 240.021h-.03a.179.179 0 0 1-.147-.207l.077-.459a.179.179 0 1 1 .353.059l-.076.459a.179.179 0 0 1-.177.148z" class="cls-5" transform="translate(-1201.524 -239.196)"/>
                        </g>
                        <g id="Group_1723" transform="translate(1.113 .296)">
                            <path id="Path_6543" d="M1204.8 239.215h-.03a.179.179 0 0 1-.147-.207l.209-1.254a.179.179 0 1 1 .354.059l-.209 1.254a.179.179 0 0 1-.177.147z" class="cls-5" transform="translate(-1204.625 -237.605)"/>
                        </g>
                        <g id="Group_1724" transform="translate(1.701)">
                            <path id="Path_6544" d="M1206.446 238.8h-.03a.179.179 0 0 1-.147-.207l.277-1.663a.179.179 0 1 1 .354.058l-.277 1.663a.18.18 0 0 1-.177.149z" class="cls-5" transform="translate(-1206.267 -236.776)"/>
                        </g>
                    </g>
                    <rect id="Rectangle_2240" width="52.452" height="14.206" fill="#863399" rx="6.465" transform="rotate(7 -567.895 136.179)"/>
                    <text id="I_received_my_SIM" fill="#fff" font-family="BryantPro-Bold, Bryant Pro" font-size="3px" font-weight="700" transform="rotate(7 -633.27 203.91)">
                        <tspan x="0" y="0">I received my SIM</tspan>
                    </text>
                </g>
                <path id="Path_6548" d="M1005.521 350.45c-.947 2.527-3.318 7.521-3.671 8.857s-3.914 27.137-3.914 27.137L993.9 403.2s-7.769-9.795-7.981-17.02 1.783-16.48 2.735-19.82c1.071-3.76 2.461-11.652 4.285-14.783s5.145-7.521 5.893-9.558c.1-.279.234-.681.389-1.166.957-3.018 2.739-9.255 3.571-9.487a2.974 2.974 0 0 1 .508-.093c1.179-.11 3.708.314 4.846 5.29 1.408 6.179-1.678 11.359-2.625 13.887z" class="cls-3" transform="translate(-978.48 -279.001)"/>
                <path id="Path_6549" d="M1207.346 412.081c-1.677.611-2.874.9-4.388 1.527-2.038.843-5.395 3.363-6.512 5.413-.916 1.682-1.308 3.14-.22 4.982s4.285 1.939 8.738.3 6.305-3.823 6.184-7.239c-.102-2.735-2.332-5.519-3.802-4.983z" class="cls-3" transform="translate(-1112.991 -330.809)"/>
                <path id="Path_6550" d="M1197.829 383.528c-1.978.977-4.64 2.933-5.617 5.054a5.545 5.545 0 0 0 .3 5.567c1.209 1.767 3.823 1.622 8.159-.305s6.451-2.049 7.056-6.022c.3-1.978-.948-5.837-2.923-6.975-.679-.39-5.504 1.953-6.975 2.681z" class="cls-3" transform="translate(-1110.451 -310.786)"/>
                <path id="Path_6551" d="M1200.726 451.752a11.24 11.24 0 0 0-4.594 1.289c-2.637 1.235-5.065 3.474-4.423 6.465.746 3.476 4.221 2.849 7.307 1.546 1.854-.783 4.234-1.011 5-3.111.706-1.941.451-4.66-1.345-5.713a3.865 3.865 0 0 0-1.945-.475z" class="cls-3" transform="translate(-1110.451 -356.304)"/>
                <path id="Path_6552" d="M1028.528 556.63c-1.059 2.707-2.273 5.861-3.482 9l-17.438-7.268-20.419-8.931a77.426 77.426 0 0 0 2.4-8.076l.229-1.005a.152.152 0 0 1 .035.013l9.345 4.457z" class="cls-11" transform="translate(-979.307 -413.144)"/>
                <path id="Path_6553" d="M1036.366 561.1l.008-.016a.845.845 0 0 1 1.005-.458c1.868.549 6.838 2.036 6.991 2.431.28.727-3.79 10.606-4.6 10.5-.643-.086-5.105-2.1-6.907-2.92a.847.847 0 0 1-.426-1.105s5.831 2.232 6.312 2.232 3.8-7.681 3.694-8-6.077-2.664-6.077-2.664z" class="cls-12" transform="translate(-1008.291 -426.133)"/>
                <path id="Path_6554" d="M1023.138 555.121c-.2.2-3.955 9.068-3.88 9.353a3.83 3.83 0 0 0 1.633.669c.175-.11 3.891-9.021 3.893-9.313 0-.2-1.553-.803-1.646-.709z" class="cls-11" transform="translate(-999.879 -422.614)"/>
                <path id="Path_6555" d="M1009.4 549.148c-.2.2-3.955 9.068-3.88 9.353a3.828 3.828 0 0 0 1.633.669c.175-.11 3.892-9.021 3.895-9.313-.002-.2-1.555-.802-1.648-.709z" class="cls-11" transform="translate(-991.065 -418.783)"/>
                <rect id="Rectangle_2239" width="1.196" height="3.06" class="cls-12" rx=".544" transform="rotate(-67.869 121.533 47.423)"/>
                <g id="Group_1730" transform="translate(21.229 133.762)">
                    <path id="Path_6556" d="M1024.6 566.787a.179.179 0 0 1-.166-.248l3.239-7.762a.179.179 0 1 1 .329.138l-3.238 7.762a.178.178 0 0 1-.164.11z" class="cls-13" transform="translate(-1024.423 -558.657)"/>
                </g>
                <g id="Group_1731" transform="translate(19.498 133.064)">
                    <path id="Path_6557" d="M1019.771 564.776a.183.183 0 0 1-.069-.013.179.179 0 0 1-.1-.235l3.216-7.691a.179.179 0 1 1 .33.138l-3.216 7.691a.179.179 0 0 1-.161.11z" class="cls-13" transform="translate(-1019.592 -556.716)"/>
                </g>
                <g id="Group_1732" transform="translate(16.322 131.738)">
                    <path id="Path_6558" d="M1010.916 560.982a.176.176 0 0 1-.068-.014.179.179 0 0 1-.1-.234l3.173-7.6a.179.179 0 1 1 .33.138l-3.173 7.6a.179.179 0 0 1-.165.11z" class="cls-13" transform="translate(-1010.738 -553.012)"/>
                </g>
                <g id="Group_1733" transform="translate(14.594 130.976)">
                    <path id="Path_6559" d="M1006.088 558.841a.175.175 0 0 1-.069-.014.179.179 0 0 1-.1-.234L1009.1 551a.179.179 0 1 1 .33.138l-3.174 7.588a.18.18 0 0 1-.165.11z" class="cls-13" transform="translate(-1005.909 -550.884)"/>
                </g>
                <g id="Group_1734" transform="translate(10.501 130.702)">
                    <path id="Path_6560" d="M998.165 557.931a.178.178 0 0 1-.1-.029 8.6 8.6 0 0 1-2.1-2.3 8.788 8.788 0 0 1-1.477-3.955c0-.346.633-.613 2.078-1.139l.248-.091a21.183 21.183 0 0 1 4.395-.275.179.179 0 0 1 .175.183.171.171 0 0 1-.183.176 21.765 21.765 0 0 0-4.263.252l-.249.091a7.319 7.319 0 0 0-1.847.829 8.728 8.728 0 0 0 1.418 3.724 8.462 8.462 0 0 0 2 2.2.179.179 0 0 1-.1.33z" class="cls-13" transform="translate(-994.494 -550.126)"/>
                </g>
                <g id="Group_1735" transform="translate(19.323 135.809)">
                    <path id="Path_6561" d="M1019.615 565.375a.511.511 0 1 1 .511-.511.511.511 0 0 1-.511.511zm0-.659a.146.146 0 1 0 .108.042.152.152 0 0 0-.108-.042z" class="cls-13" transform="translate(-1019.104 -564.353)"/>
                </g>
                <g id="Group_1736" transform="translate(27.928 139.475)">
                    <path id="Path_6562" d="M1043.616 575.592a.51.51 0 1 1 .511-.511.51.51 0 0 1-.511.511zm0-.659a.152.152 0 1 0 .151.152.153.153 0 0 0-.151-.158z" class="cls-13" transform="translate(-1043.107 -574.572)"/>
                </g>
                <g id="Group_1737" transform="translate(36.872 143.243)">
                    <path id="Path_6563" d="M1068.578 586.115a.511.511 0 1 1 .51-.511.511.511 0 0 1-.51.511zm0-.659a.152.152 0 1 0 .151.153.153.153 0 0 0-.151-.156z" class="cls-13" transform="translate(-1068.066 -585.093)"/>
                </g>
                <g id="Group_1738" transform="translate(23.978 137.816)">
                    <path id="Path_6564" d="M1032.606 570.975a.511.511 0 1 1 .511-.511.511.511 0 0 1-.511.511zm0-.659a.146.146 0 1 0 .109.042.152.152 0 0 0-.109-.042z" class="cls-13" transform="translate(-1032.095 -569.953)"/>
                </g>
                <path id="Path_6565" d="M1027.9 335.869a16.106 16.106 0 0 0-.594-4c-.058-.209-.115-.4-.177-.568a2.972 2.972 0 0 0-.508.093c-.723.2-2.168 4.944-3.161 8.164-.148.481-.286.932-.411 1.318a3.537 3.537 0 0 0 3.1-.067 2.786 2.786 0 0 0 1.159-1.152 7.9 7.9 0 0 0 .6-3.787z" class="cls-14" transform="translate(-1002.31 -279.026)"/>
                <path id="Path_6566" d="M1208.118 428.811a1.612 1.612 0 0 1-.4.479 1.321 1.321 0 0 1-.129.091 16.693 16.693 0 0 1-1.5.746 12.219 12.219 0 0 1-2.52.713c-1.918.439-2.6-1.163-2.718-2.237-.241-2.1 1.551-3.463 3.111-4.425a8.117 8.117 0 0 1 2.4-1.183.4.4 0 0 1 .235.046 4 4 0 0 1 1.391 2.134 4.746 4.746 0 0 1 .122 3.637z" class="cls-14" transform="translate(-1116.372 -337.853)"/>
                <path id="Path_6567" d="M1200.68 464.155a3.8 3.8 0 0 1-1.78.989 5.327 5.327 0 0 1-2.171.439 2.018 2.018 0 0 1-1.88-2.651 4.85 4.85 0 0 1 1.237-1.892 5.969 5.969 0 0 1 1.412-1.047 6.869 6.869 0 0 1 2.1-.839.344.344 0 0 1 .2.054 3.381 3.381 0 0 1 1.031 1.89 5.256 5.256 0 0 1 .154 2.387 1.7 1.7 0 0 1-.303.67z" class="cls-14" transform="translate(-1112.486 -361.048)"/>
                <path id="Path_6568" d="M1202.486 401.6a1.679 1.679 0 0 1-.439.478 1.371 1.371 0 0 1-.135.086 16.16 16.16 0 0 1-1.549.671 12.882 12.882 0 0 1-2.569.549c-2.357.43-2.864-1.79-2.637-3.177a5.248 5.248 0 0 1 2.627-3.386c.879-.549 2.356-1.628 3.424-1.589a.384.384 0 0 1 .231.069 4.385 4.385 0 0 1 1.217 2.4 5.432 5.432 0 0 1-.17 3.899z" class="cls-14" transform="translate(-1112.697 -320.045)"/>
                <g id="Group_1739" transform="translate(15.318 71.7)">
                    <path id="Path_6569" d="M1012.529 387.666a.179.179 0 0 1-.142-.068 5.671 5.671 0 0 0-2.013-1.55 3.136 3.136 0 0 0-2.192 0 .179.179 0 0 1-.142-.33 3.462 3.462 0 0 1 2.465 0 5.942 5.942 0 0 1 2.162 1.661.179.179 0 0 1-.141.29z" class="cls-4" transform="translate(-1007.932 -385.491)"/>
                </g>
                <g id="Group_1740" transform="translate(14.896 72.61)">
                    <path id="Path_6570" d="M1009.514 388.971s-1.054-.241-1.588-.346-1.049-.242-1.055-.244a.179.179 0 0 1 .091-.346s.51.134 1.033.238 1.6.348 1.6.348z" class="cls-4" transform="translate(-1006.744 -388.031)"/>
                </g>
                <g id="Group_1741" transform="translate(14.249 73.517)">
                    <path id="Path_6571" d="M1009.488 392.185a.177.177 0 0 1-.09-.024 5.464 5.464 0 0 0-1.907-.4 5.084 5.084 0 0 1-2.474-.866.18.18 0 1 1 .22-.285 4.834 4.834 0 0 0 2.29.793 5.539 5.539 0 0 1 2.053.452.179.179 0 0 1-.09.33z" class="cls-4" transform="translate(-1004.946 -390.569)"/>
                </g>
                <g id="Group_1742" transform="translate(33.283 118.013)">
                    <path id="Path_6572" d="M1058.229 524.08a.179.179 0 0 1-.165-.249 36.4 36.4 0 0 0 1.529-4.856c.719-2.9.238-4 .234-4.011a.181.181 0 1 1 .33-.149c.022.048.537 1.224-.211 4.247a36.6 36.6 0 0 1-1.548 4.91.178.178 0 0 1-.169.109z" class="cls-4" transform="translate(-1058.05 -514.707)"/>
                </g>
                <g id="Group_1743" transform="translate(45.186 134.052)">
                    <path id="Path_6573" d="M1096.347 561.022c-.468 0-1.043-.018-1.714-.068a4.944 4.944 0 0 1-3.332-1.2.179.179 0 0 1 .27-.236 4.742 4.742 0 0 0 3.089 1.081 17.077 17.077 0 0 0 3.1 0 .179.179 0 0 1 .046.355 12.191 12.191 0 0 1-1.459.068z" class="cls-4" transform="translate(-1091.257 -559.453)"/>
                </g>
                <g id="Group_1744" transform="translate(36.321 118.58)">
                    <path id="Path_6574" d="M1066.69 518.077a.179.179 0 0 1-.091-.33l2.44-1.445a.179.179 0 1 1 .182.309l-2.441 1.445a.181.181 0 0 1-.09.021z" class="cls-4" transform="translate(-1066.516 -516.277)"/>
                </g>
                <g id="Group_1745" transform="translate(88.076 81.025)">
                    <path id="Path_6575" d="M1211.1 414.373a.179.179 0 0 1-.074-.343l5.521-2.5a.181.181 0 1 1 .147.33l-5.521 2.5a.171.171 0 0 1-.073.013z" class="cls-4" transform="translate(-1210.915 -411.514)"/>
                </g>
            </g>
            <path id="Path_6576" d="M900.837 626.652c.423-.605.822-1.224 1.187-1.861 2.919-5.1 4.276-10.758 6.081-16.29 1.851-5.673 5.043-8.865 7.647-13.975 2.891-5.671 2.643-7.919 6.138-5.992s41.71 18.592 42.675 18.766-.79 16.235-.79 16.235.725-.643 1.079 7.711c.22 5.291-2.185 9.489-3.144 14.474-1.1 5.738-.726 11.624-7.462 12.234-4.034.365-9.136-1.245-13.122-1.851-9.2-1.4-20.456-2.008-28.907-6.233-7.708-3.854-22.8-1.606-21.516-7.71 1.323-6.28 6.586-10.433 10.134-15.508z" class="cls-15" transform="translate(-890.625 -443.623)"/>
            <path id="Path_6577" d="M1127.275 476.82s-2.253-14.776-2.788-17.184-3.855-15.579-4.755-18.794-4.221-13.579-3.193-16.022c1.044-2.481 5.266-3.776 7.463-1.209s5.466 12.739 6.508 14.773 5.354 13.389 5.981 14.991 2.912 8.56 2.912 8.56a28.281 28.281 0 0 1 7.1-.321 10.435 10.435 0 0 1 4.852 2.441s4.285-2.013 8.029-.943a9.267 9.267 0 0 1 5.351 4.065s4.818-.856 7.6.856c0 0 3.961 2.783 5.138 5.673s9.825 45.8 9.825 45.8-18.626 9.153-22.481 9.955-10.437 2.087-15.415 0-16.218-3.693-19.43-8.992-6.786-12.029-8.707-16.2-2.724-6.686-2.081-9.926 8.091-17.523 8.091-17.523z" class="cls-3" transform="translate(-1035.435 -337.352)"/>
            <path id="Path_6578" d="M1121 427.054a5.389 5.389 0 0 0-.12 3.234 11.915 11.915 0 0 0 1.265 3.442c.148.119 1.117.094 3.553-.575a8.287 8.287 0 0 0 2.664-1.5c.145-.129-1.3-4.343-2.946-5.467a3.473 3.473 0 0 0-4.417.869z" class="cls-14" transform="translate(-1038.228 -339.601)"/>
            <path id="Path_6579" d="M1232.57 681.391l5.573 18.627a51.206 51.206 0 0 1-15.736 10.6c-9.313 3.854-21.874 3.211-21.874 3.211s-3.106-18.306-6.994-25.37a142.305 142.305 0 0 1-6.635-13.928z" class="cls-3" transform="translate(-1080.704 -499.226)"/>
            <g id="Group_1747" transform="translate(92.065 140.76)">
                <path id="Path_6580" d="M1150.065 598.455a.179.179 0 0 1-.11-.321 5.544 5.544 0 0 0 1.563-4.874c-.315-3.472-4-14.732-4.033-14.845a.179.179 0 1 1 .341-.11c.151.465 3.73 11.412 4.05 14.924.33 3.589-1.619 5.126-1.7 5.19a.179.179 0 0 1-.111.036z" class="cls-4" transform="translate(-1147.474 -578.175)"/>
            </g>
            <g id="Group_1748" transform="translate(89.071 156.723)">
                <path id="Path_6581" d="M1146.038 624.122a.19.19 0 0 1-.065-.012 16.628 16.628 0 0 0-4.431-1.058h-2.248a.179.179 0 0 1 0-.358h2.248a16.639 16.639 0 0 1 4.561 1.082.179.179 0 0 1-.064.346z" class="cls-4" transform="translate(-1139.115 -622.694)"/>
            </g>
            <g id="Group_1749" transform="translate(104.328 125.468)">
                <path id="Path_6582" d="M1187.258 553.629a.18.18 0 0 1-.169-.12 19.077 19.077 0 0 1-1.1-5.537 10.565 10.565 0 0 0-2.088-5.89 27.118 27.118 0 0 1-2.218-6.372.179.179 0 0 1 .349-.079 27.428 27.428 0 0 0 2.17 6.262 10.887 10.887 0 0 1 2.146 6.1 19.061 19.061 0 0 0 1.084 5.4.18.18 0 0 1-.11.229.183.183 0 0 1-.06 0z" class="cls-4" transform="translate(-1181.675 -535.491)"/>
            </g>
            <g id="Group_1750" transform="translate(116.211 127.614)">
                <path id="Path_6583" d="M1217.838 548.568a.179.179 0 0 1-.165-.11l-2.837-6.75a.179.179 0 0 1 .33-.138l2.837 6.749a.179.179 0 0 1-.165.249z" class="cls-4" transform="translate(-1214.826 -541.47)"/>
            </g>
            <g id="Group_1751" transform="translate(129.858 130.492)">
                <path id="Path_6584" d="M1255.756 555.557a.179.179 0 0 1-.161-.1l-2.676-5.673a.182.182 0 0 1 .33-.153l2.676 5.673a.179.179 0 0 1-.086.238.173.173 0 0 1-.082.018z" class="cls-4" transform="translate(-1252.902 -549.522)"/>
            </g>
            <g id="Group_1752" transform="translate(120.332 135.263)">
                <path id="Path_6585" d="M1229.2 573.509a.179.179 0 0 1-.179-.169c0-.024-.13-2.4 0-5.263.121-2.762-2.6-4.91-2.626-4.932a.179.179 0 1 1 .22-.283c.119.092 2.893 2.282 2.764 5.231-.124 2.848 0 5.2 0 5.227a.179.179 0 0 1-.169.189z" class="cls-4" transform="translate(-1226.324 -562.825)"/>
            </g>
            <g id="Group_1753" transform="translate(133.506 137.463)">
                <path id="Path_6586" d="M1264.624 575.417a.187.187 0 0 1-.034 0 .18.18 0 0 1-.142-.21 11.787 11.787 0 0 0 0-3.1 4.3 4.3 0 0 0-1.324-2.85.179.179 0 0 1 .22-.282 4.569 4.569 0 0 1 1.46 3.1 11.89 11.89 0 0 1 0 3.2.179.179 0 0 1-.18.139z" class="cls-4" transform="translate(-1263.063 -568.946)"/>
            </g>
            <g id="Group_1754" transform="translate(110.694 144.732)">
                <path id="Path_6587" d="M1205.134 607.052a.18.18 0 0 1-.171-.125l-5.513-17.449a.18.18 0 0 1 .342-.11l5.513 17.449a.179.179 0 0 1-.172.233z" class="cls-4" transform="translate(-1199.442 -589.244)"/>
            </g>
            <g id="Group_1755" transform="translate(119.899 137.988)">
                <path id="Path_6588" d="M1225.733 574.214a.179.179 0 0 1-.177-.157l-.428-3.426a.179.179 0 0 1 .156-.2.181.181 0 0 1 .2.156l.428 3.426a.179.179 0 0 1-.156.2z" class="cls-4" transform="translate(-1225.126 -570.43)"/>
            </g>
            <g id="Group_1756" transform="translate(93.245 113.313)">
                <path id="Path_6589" d="M1150.941 503.339a.179.179 0 0 1-.087-.336 12.859 12.859 0 0 1 2.781-1.143 17.649 17.649 0 0 1 2.329-.271.179.179 0 1 1 .015.358 17.524 17.524 0 0 0-2.274.264 12.8 12.8 0 0 0-2.679 1.105.176.176 0 0 1-.086.023z" class="cls-4" transform="translate(-1150.761 -501.589)"/>
            </g>
            <g id="Group_1757" transform="translate(95.761 114.223)">
                <path id="Path_6590" d="M1157.959 505.131a.179.179 0 0 1-.034-.355l3.319-.643a.179.179 0 1 1 .068.352l-3.319.643a.16.16 0 0 1-.034.003z" class="cls-4" transform="translate(-1157.78 -504.13)"/>
            </g>
            <g id="Group_1758" transform="translate(93.94 115.289)">
                <path id="Path_6591" d="M1152.882 508.652a.179.179 0 1 1 0-.358 13.868 13.868 0 0 0 2.88-.256 5.119 5.119 0 0 0 1.335-.879.179.179 0 0 1 .243.264 5.4 5.4 0 0 1-1.449.946 13.689 13.689 0 0 1-3.008.283z" class="cls-4" transform="translate(-1152.703 -507.112)"/>
            </g>
            <path id="Path_6592" d="M1210.331 730.3s24.195-7.471 32.865-11.6 9.634-8.31 11.882-4.457 4.175 9.313 5.459 10.277 9.634 7.065 10.277 10.92-2.891 8.35-14.452 9.634-36.256-.964-43.016 0-3.015-14.774-3.015-14.774z" class="cls-15" transform="translate(-1095.069 -523.724)"/>
            <path id="Path_6593" d="M972.741 643.425a1.159 1.159 0 0 0-1.362.176 22.508 22.508 0 0 0-2.087 1.888 9.16 9.16 0 0 0-1.192-2.917 1.849 1.849 0 0 0-2.906-.487c-.879.97-.439 2.708-.178 3.831 2.434 10.461 10.384-.824 7.725-2.491z" class="cls-8" transform="translate(-938.129 -478.072)"/>
            <path id="Path_6594" d="M1055.434 643.425a1.159 1.159 0 0 0-1.362.176 22.507 22.507 0 0 0-2.087 1.888 9.156 9.156 0 0 0-1.192-2.917 1.849 1.849 0 0 0-2.906-.487c-.879.97-.439 2.708-.179 3.831 2.432 10.461 10.381-.824 7.726-2.491z" class="cls-8" transform="translate(-991.182 -478.071)"/>
            <path id="Path_6595" d="M1013.683 726.478a1.158 1.158 0 0 0-1.362.176 22.476 22.476 0 0 0-2.088 1.888 9.159 9.159 0 0 0-1.192-2.917 1.849 1.849 0 0 0-2.906-.487c-.879.97-.439 2.708-.178 3.831 2.432 10.46 10.381-.825 7.726-2.491z" class="cls-8" transform="translate(-964.397 -531.354)"/>
            <path id="Path_6596" d="M1343.989 767.449a1.159 1.159 0 0 0-.874 1.06 22.565 22.565 0 0 0-.231 2.806 9.164 9.164 0 0 0-2.865-1.312 1.849 1.849 0 0 0-2.452 1.634c.028 1.305 1.538 2.275 2.492 2.916 8.933 5.962 7.007-7.705 3.93-7.104z" class="cls-8" transform="translate(-1177.362 -558.828)"/>
            <path id="Path_6597" d="M1229.518 762.074a1.158 1.158 0 0 0-.873 1.06 22.476 22.476 0 0 0-.231 2.8 9.158 9.158 0 0 0-2.865-1.311 1.848 1.848 0 0 0-2.452 1.634c.026 1.305 1.538 2.275 2.492 2.916 8.937 5.967 7.006-7.701 3.929-7.099z" class="cls-8" transform="translate(-1103.923 -555.38)"/>
            <g id="Group_1761" transform="translate(79.98 44.956)">
                <g id="Group_1760">
                    <g id="Group_1759">
                        <path id="Path_6598" fill="url(#linear-gradient)" d="M51.176 623.453l14.859-.18-8.341 5.545-7.538-3.829c-.707-.358.068-1.52 1.02-1.536z" transform="translate(-49.874 -623.271)"/>
                        <path id="Path_6599" d="M50.156 626.862l7.539 3.829-7.8-4.385a.465.465 0 0 0 .261.556z" transform="translate(-49.876 -625.145)" style="mix-blend-mode:screen;isolation:isolate" fill="#fc9f3c"/>
                        <path id="Path_6600" fill="url(#linear-gradient-2)" d="M73.08 636.664l5.569-13.4-8.341 5.546.929 8.216c.089.774 1.479.498 1.843-.362z" transform="translate(-62.49 -623.268)"/>
                        <path id="Path_6601" fill="#692489" d="M71.238 645.987a.488.488 0 0 0 .439.44l-1.365-8.657z" transform="translate(-62.49 -632.225)"/>
                    </g>
                </g>
                <path id="Path_6602" fill="url(#linear-gradient-3)" d="M66.126 636.145l-1.985-1.007-.605 2.727 2.856.635z" transform="translate(-58.306 -630.599)"/>
            </g>
        </g>
    </g>
</svg>
