<svg xmlns="http://www.w3.org/2000/svg" width="273" height="245" viewBox="0 0 273 245">
    <defs>
        <clipPath id="clip-path">
            <path id="Rectangle_2245" d="M0 0H273V245H0z" transform="translate(.283)"/>
        </clipPath>
        <style>
            .cls-2{fill:#d7dfed}.cls-3{fill:#c8d2e8}.cls-4{fill:#fff}.cls-5{fill:#e9edf5}.cls-6{fill:#fad3b1}.cls-7{fill:#fea689}.cls-8{fill:#576280}.cls-10{fill:#ffae9b}.cls-14{fill:#ffa57a}.cls-15{fill:#863399}.cls-16{fill:#2e1f44}.cls-17{fill:#964b3c}.cls-18{fill:#c48156}.cls-19{fill:#a3613d}.cls-20{fill:#f0ded5}.cls-21{fill:#dbd3db}.cls-22{fill:#c2a9c2}.cls-23{fill:#f58520}.cls-24{fill:#dd6b4b}.cls-25{fill:#7dd0de}.cls-26{fill:#75362c}.cls-27{fill:#524470}
        </style>
    </defs>
    <g id="Screen_1" clip-path="url(#clip-path)" transform="translate(-.283)">
        <g id="Group_1856" transform="translate(-.174 7.638)">
            <g id="Group_1656" transform="translate(220.218 51.32)">
                <rect id="Rectangle_2215" width="50.051" height="32.606" class="cls-2" rx="2"/>
                <g id="Group_1652" transform="translate(4.142 5.39)">
                    <path id="Path_6373" d="M711.361 1048.249h-18.192a.44.44 0 0 1 0-.879h18.192a.44.44 0 0 1 0 .879z" class="cls-3" transform="translate(-692.73 -1047.37)"/>
                </g>
                <path id="Path_6374" d="M765.173 1044.892v21.883a1.555 1.555 0 0 1-1.558 1.557h-15.433a.962.962 0 0 1-.129-.005 1.562 1.562 0 0 1-1.428-1.551v-21.883a1.556 1.556 0 0 1 1.557-1.558h15.434a1.556 1.556 0 0 1 1.557 1.558z" class="cls-4" transform="translate(-718.878 -1039.71)"/>
                <rect id="Rectangle_2216" width="18.332" height="6.742" class="cls-3" rx="2" transform="translate(4.441 21.879)"/>
                <g id="Group_1653" transform="translate(4.361 10.182)">
                    <path id="Path_6375" d="M711.641 1058.749H693.45a.22.22 0 1 1 0-.439h18.192a.22.22 0 1 1 0 .439z" class="cls-5" transform="translate(-693.23 -1058.309)"/>
                </g>
                <path id="Path_6376" d="M769.16 1062.866c-.457-.58-1.47-.556-2.129-.642a24.433 24.433 0 0 0-3.139-.626.291.291 0 0 0-.3.3s-.009 0-.012.005l-.049.041a.306.306 0 0 0-.079.3 6.414 6.414 0 0 1 .256 1.458c-.011.549-.121 1.1-.132 1.648-.009.49-.036 1.225.44 1.538a6.536 6.536 0 0 0 2.577.342c.828.079 1.4.227 2.019-.372a2.407 2.407 0 0 0 .7-1.77c.046-.612.273-1.682-.152-2.222z" class="cls-6" transform="translate(-728.334 -1049.974)"/>
                <g id="Group_1654" transform="translate(4.361 13.897)">
                    <path id="Path_6377" d="M711.641 1067.229H693.45a.22.22 0 1 1 0-.439h18.192a.22.22 0 1 1 0 .439z" class="cls-5" transform="translate(-693.23 -1066.79)"/>
                </g>
                <g id="Group_1655" transform="translate(4.361 17.611)">
                    <path id="Path_6378" d="M711.641 1075.71H693.45a.22.22 0 1 1 0-.439h18.192a.22.22 0 1 1 0 .439z" class="cls-5" transform="translate(-693.23 -1075.271)"/>
                </g>
                <path id="Path_6379" d="M783.493 1096.143a1.558 1.558 0 0 1-.607.122h-1.977a24.548 24.548 0 0 1 .387-3.231c.135.1 1.8.693 1.8.693l.043.264z" class="cls-7" transform="translate(-738.151 -1067.642)"/>
                <path id="Path_6380" d="M753.843 1093.207a7.926 7.926 0 0 1-.368.957c-.264.577-.577 1.147-.769 1.49h-2.694a1 1 0 0 1-.129-.005 19.04 19.04 0 0 0 .919-1.711 8.133 8.133 0 0 0 .344-1c.055-.209.086-.343.086-.343s2.759-.65 2.815-.65.12.155-.204 1.262z" class="cls-7" transform="translate(-720.713 -1067.03)"/>
                <path id="Path_6381" d="M765.366 1051.449c.611-.723 1.726-1.387 2.619-.794 2.108 1.4 2.036 4.892.575 6.737a2.407 2.407 0 0 1-.414.4c.01.154.013.307.025.459.034.422-.034 2.5.6 2.607.549.091.318.929-.232.839a.953.953 0 0 1-.612-.356.5.5 0 0 1-.4.134c.029.26.06.521.078.782.038.559-.832.557-.87 0s-.989-.637-1.025-1.193q-.11-1.428-.212-2.864a1.978 1.978 0 0 1-.85-.938 6.343 6.343 0 0 1 .721-5.813z" class="cls-7" transform="translate(-728.781 -1043.695)"/>
                <path id="Path_6382" d="M767.36 1081.438a1.161 1.161 0 0 1-.472.166c-.43.062-.957.012-1.288.031-.012 0-.33-.031-.33-.031l.08 2.274h-11.02c.1-.5.22-.989.33-1.49.08-.38.159-.769.245-1.146a4.455 4.455 0 0 1-2.569-.08.7.7 0 0 1-.319-.4c-.074-.245.043-.356.135-.577.171-.22.337-.447.509-.675a1.94 1.94 0 0 0 .129-1.233 5.465 5.465 0 0 1 .055-.769c.2-.827.822-1.459 1.036-2.287a12.844 12.844 0 0 1 .423-2.1c.632-1.356 4.4-2.128 4.4-2.128s-.092 2.109 1.343 1.846c1.128-.2 1.306-1.68 1.306-1.68s1.453.33 1.538.356a5.734 5.734 0 0 1 2.459 1.067c.853.9.711 2.5 1.11 3.637a23.951 23.951 0 0 1 .484 2.594c.171.533.349 1.06.521 1.594.103.342.256.793-.105 1.031z" class="cls-8" transform="translate(-721.894 -1055.259)"/>
                <path id="Path_6383" d="M769.146 1053.315a4.569 4.569 0 0 0-.161-2.692 4.109 4.109 0 0 0-2.093-1.318 3.213 3.213 0 0 0-1.758-.277c-2.27.157-3.392 2.183-3.334 4.347.035 1.334-.378 2.535-.3 3.84.053.856-.232 1.548-.232 2.376a17.682 17.682 0 0 1-.11 2.239.186.186 0 0 0 .008.053h1.934c.2-1.378.843-3.076.163-4.3a6.416 6.416 0 0 1 .044-5.79.246.246 0 0 0 .047-.007c.247-.079.549-.161.839-.277a.7.7 0 0 0 .743.477c.148-.009.413-.141.549-.03.075.063.1.3.188.39.22.236.549.236.816.358a9.713 9.713 0 0 1 .009 1.272c-.033.962.262 1.9.208 2.856-.023.4-.11.9-.159 1.324a4.3 4.3 0 0 1-.568 2.157 2.455 2.455 0 0 0-.189 1.574h2.49c.11-.33.2-.848.265-1.09.149-.57.01-1.259.141-1.861.159-.734.323-1.5.534-2.218.348-1.206-.178-2.138-.074-3.403z" class="cls-6" transform="translate(-727.048 -1042.892)"/>
            </g>
            <g id="Group_1664" transform="translate(45.101)">
                <rect id="Rectangle_2217" width="44.489" height="46.096" class="cls-2" rx="2"/>
                <rect id="Rectangle_2218" width="35.832" height="10.486" class="cls-3" rx="2" transform="translate(4.474 31.137)"/>
                <path id="Path_6384" d="M348.122 928.948v20.325a1.559 1.559 0 0 1-.62 1.245 1.538 1.538 0 0 1-.932.313h-17.706a1.546 1.546 0 0 1-1.558-1.558v-20.325a1.551 1.551 0 0 1 1.558-1.558h17.708a1.555 1.555 0 0 1 1.55 1.558z" class="cls-4" transform="translate(-307.82 -923.146)"/>
                <g id="Group_1657" transform="translate(4.578 8.814)">
                    <path id="Path_6385" d="M305.416 938.266h-11.929a.22.22 0 1 1 0-.439h11.929a.22.22 0 1 1 0 .439z" class="cls-5" transform="translate(-293.267 -937.827)"/>
                </g>
                <g id="Group_1658" transform="translate(4.358 4.486)">
                    <path id="Path_6386" d="M305.135 928.826h-11.929a.439.439 0 1 1 0-.879h11.929a.44.44 0 0 1 0 .879z" class="cls-3" transform="translate(-292.767 -927.947)"/>
                </g>
                <g id="Group_1659" transform="translate(4.578 12.529)">
                    <path id="Path_6387" d="M305.416 946.748h-11.929a.22.22 0 1 1 0-.439h11.929a.22.22 0 1 1 0 .439z" class="cls-5" transform="translate(-293.267 -946.309)"/>
                </g>
                <g id="Group_1660" transform="translate(4.578 16.243)">
                    <path id="Path_6388" d="M305.416 955.229h-11.929a.22.22 0 1 1 0-.439h11.929a.22.22 0 1 1 0 .439z" class="cls-5" transform="translate(-293.267 -954.789)"/>
                </g>
                <g id="Group_1661" transform="translate(4.578 19.835)">
                    <path id="Path_6389" d="M305.416 963.432h-11.929a.22.22 0 1 1 0-.439h11.929a.22.22 0 1 1 0 .439z" class="cls-5" transform="translate(-293.267 -962.992)"/>
                </g>
                <g id="Group_1662" transform="translate(4.578 23.55)">
                    <path id="Path_6390" d="M305.416 971.913h-11.929a.22.22 0 0 1 0-.44h11.929a.22.22 0 0 1 0 .44z" class="cls-5" transform="translate(-293.267 -971.473)"/>
                </g>
                <g id="Group_1663" transform="translate(4.578 27.264)">
                    <path id="Path_6391" d="M305.416 980.393h-11.929a.22.22 0 1 1 0-.439h11.929a.22.22 0 1 1 0 .439z" class="cls-5" transform="translate(-293.267 -979.954)"/>
                </g>
                <path id="Path_6392" fill="#b87168" d="M344.357 946.655a14.137 14.137 0 0 1-.345 2.692s1.2 5.588 1.827 5.676 2.176-5.1 2.307-5.176c.137-.953.47-2.371.47-2.371s1.838-.769 2.608-3.976c.431-1.8.733-5.23-.315-6.9a2.825 2.825 0 0 0-4.244-.754c-2.32 1.69-4.745 7.82-2.384 10.487a.586.586 0 0 1 .076.322z" transform="translate(-316.818 -927.538)"/>
                <path id="Path_6393" d="M351.454 956.911l-2.376-.385s-.026.615.315.821a2.112 2.112 0 0 0 1.489.247.515.515 0 0 0 .413-.336c.013-.024.153-.349.159-.347z" class="cls-4" transform="translate(-320.057 -939.522)"/>
                <path id="Path_6394" d="M344.878 969.218c-1.128-.613-5.721-1.214-5.721-1.214-.294.779-.558 1.582-.926 2.337-.239.5-.509.989-.76 1.484-.183.356-.368.717-.549 1.073-.5-1.729-1.907-5.4-1.907-5.4a33.251 33.251 0 0 0-7.707 1.416v2.9a1.546 1.546 0 0 0 1.558 1.557h17.708a1.537 1.537 0 0 0 .932-.313c-.541-1.383-1.229-3.08-2.628-3.84z" class="cls-10" transform="translate(-307.82 -945.69)"/>
                <path id="Path_6395" fill="#3d4763" d="M354.389 946.062a2.715 2.715 0 0 1-.1-2.527 4 4 0 0 0 .355-1.208c.071-1.249-.9-1.952-1.077-3.108-.171-1.109.056-1.99-.527-3.016a4.976 4.976 0 0 0-1.885-1.988 5.635 5.635 0 0 0-1.845-.449 6.4 6.4 0 0 0-3.7.593 4.6 4.6 0 0 0-2.146 3.49c-.12.659-.082 3.938-.082 3.938s1.668-3.884 2.264-4.952a2.874 2.874 0 0 0 .29.621 1.492 1.492 0 0 0 1.679.624 1.767 1.767 0 0 0 1.861 1.66 4.594 4.594 0 0 0 .447.375c.33.241 1.035.33.977.821a.285.285 0 0 0-.042.1.307.307 0 0 1-.011.065.73.73 0 0 1-.033.094.292.292 0 0 0-.013.255 6.13 6.13 0 0 0 .007.775 2.778 2.778 0 0 1-.378 2.271 4.662 4.662 0 0 0-.22.449 3.984 3.984 0 0 0-.1.639 2.2 2.2 0 0 1-.33 1.913 9.1 9.1 0 0 1-.549.776.309.309 0 0 0 .184.45c1.648.505 4.266 1.2 5.082-.8a2.057 2.057 0 0 0-.11-1.865z" transform="translate(-316.852 -926.702)"/>
            </g>
            <g id="Group_1674" transform="translate(0 124.11)">
                <g id="Group_1673" transform="translate(0 6.443)">
                    <rect id="Rectangle_2219" width="39.256" height="47.12" class="cls-5" rx="2"/>
                    <rect id="Rectangle_2220" width="29.304" height="14.964" class="cls-2" rx="2" transform="translate(5.024 4.882)"/>
                    <rect id="Rectangle_2221" width="13.842" height="11.379" class="cls-4" rx="2" transform="translate(20.488 30.906)"/>
                    <g id="Group_1665" transform="translate(4.804 23.338)">
                        <path id="Path_6396" d="M279.5 1240.14h-12.768a.22.22 0 1 1 0-.439H279.5a.22.22 0 0 1 0 .44z" class="cls-4" transform="translate(-266.512 -1239.7)"/>
                    </g>
                    <g id="Group_1666" transform="translate(4.804 27.054)">
                        <path id="Path_6397" d="M279.5 1248.624h-12.768a.22.22 0 1 1 0-.439H279.5a.22.22 0 1 1 0 .439z" class="cls-4" transform="translate(-266.512 -1248.184)"/>
                    </g>
                    <g id="Group_1667" transform="translate(20.802 23.338)">
                        <path id="Path_6398" d="M316.033 1240.14H303.26a.22.22 0 1 1 0-.439h12.773a.22.22 0 0 1 0 .44z" class="cls-4" transform="translate(-303.04 -1239.7)"/>
                    </g>
                    <g id="Group_1668" transform="translate(20.802 27.054)">
                        <path id="Path_6399" d="M316.033 1248.624H303.26a.22.22 0 1 1 0-.439h12.773a.22.22 0 1 1 0 .439z" class="cls-4" transform="translate(-303.04 -1248.184)"/>
                    </g>
                    <g id="Group_1669" transform="translate(4.804 30.769)">
                        <path id="Path_6400" d="M279.5 1257.1h-12.768a.22.22 0 1 1 0-.439H279.5a.22.22 0 0 1 0 .44z" class="cls-4" transform="translate(-266.512 -1256.664)"/>
                    </g>
                    <g id="Group_1670" transform="translate(4.804 34.484)">
                        <path id="Path_6401" d="M279.5 1265.586h-12.768a.22.22 0 1 1 0-.439H279.5a.22.22 0 0 1 0 .44z" class="cls-4" transform="translate(-266.512 -1265.146)"/>
                    </g>
                    <g id="Group_1671" transform="translate(4.804 38.197)">
                        <path id="Path_6402" d="M279.5 1274.066h-12.768a.22.22 0 1 1 0-.439H279.5a.22.22 0 1 1 0 .439z" class="cls-4" transform="translate(-266.512 -1273.626)"/>
                    </g>
                    <g id="Group_1672" transform="translate(4.804 41.912)">
                        <path id="Path_6403" d="M279.5 1282.548h-12.768a.22.22 0 1 1 0-.439H279.5a.22.22 0 1 1 0 .439z" class="cls-4" transform="translate(-266.512 -1282.108)"/>
                    </g>
                </g>
                <path id="Path_6404" d="M332 1179.16l13.618-7.471-8.992 13.467z" class="cls-5" transform="translate(-298.514 -1171.689)"/>
            </g>
            <g id="Group_1683" transform="translate(186.071 9.118)">
                <g id="Group_1682" transform="translate(9.964)">
                    <rect id="Rectangle_2222" width="38.835" height="50.674" class="cls-5" rx="2"/>
                    <rect id="Rectangle_2223" width="20.595" height="23.439" class="cls-4" rx="2" transform="translate(4.885 4.67)"/>
                    <circle id="Ellipse_352" cx="6.559" cy="6.559" r="6.559" class="cls-4" transform="rotate(-67.715 33.37 18.51)"/>
                    <g id="Group_1675" transform="translate(20.739 32.97)">
                        <path id="Path_6405" d="M688.621 1014.679h-12.772a.439.439 0 1 1 0-.879h12.772a.44.44 0 1 1 0 .879z" class="cls-2" transform="translate(-675.41 -1013.8)"/>
                    </g>
                    <g id="Group_1676" transform="translate(20.959 36.902)">
                        <path id="Path_6406" d="M688.9 1023.22h-12.77a.22.22 0 1 1 0-.439h12.77a.22.22 0 0 1 0 .44z" class="cls-4" transform="translate(-675.91 -1022.78)"/>
                    </g>
                    <g id="Group_1677" transform="translate(20.959 40.616)">
                        <path id="Path_6407" d="M688.9 1031.7h-12.77a.22.22 0 1 1 0-.439h12.77a.22.22 0 1 1 0 .439z" class="cls-4" transform="translate(-675.91 -1031.261)"/>
                    </g>
                    <g id="Group_1678" transform="translate(20.959 44.331)">
                        <path id="Path_6408" d="M688.9 1040.182h-12.77a.22.22 0 1 1 0-.439h12.77a.22.22 0 0 1 0 .44z" class="cls-4" transform="translate(-675.91 -1039.742)"/>
                    </g>
                    <path id="Rectangle_2224" d="M0 0h7.83a2.2 2.2 0 0 1 2.2 2.2v19.041a2.2 2.2 0 0 1-2.2 2.2H0z" class="cls-2" transform="translate(23.923 4.67)"/>
                    <path id="Path_6409" d="M652.524 1019.042l-3.495 3.489a.757.757 0 0 1-1.071 0l-1.5-1.5a.757.757 0 0 0-1.071 0l-.578.578a.757.757 0 0 0 0 1.071l2.031 2.031 1.12 1.12a.758.758 0 0 0 1.073 0l1.114-1.118 4.023-4.023a.758.758 0 0 0 0-1.072l-.578-.578a.758.758 0 0 0-1.068.002z" class="cls-3" transform="translate(-637.348 -983.652)"/>
                    <rect id="Rectangle_2225" width="13.268" height="5.447" class="cls-10" rx="2" transform="translate(7.909 8.043)"/>
                    <g id="Group_1679" transform="translate(7.69 16.528)">
                        <path id="Path_6410" d="M659.1 976.7h-13.27a.22.22 0 1 1 0-.439h13.27a.22.22 0 0 1 0 .44z" class="cls-5" transform="translate(-645.612 -976.259)"/>
                    </g>
                    <g id="Group_1680" transform="translate(7.69 20.242)">
                        <path id="Path_6411" d="M659.1 985.18h-13.27a.22.22 0 0 1 0-.439h13.27a.22.22 0 0 1 0 .439z" class="cls-5" transform="translate(-645.612 -984.74)"/>
                    </g>
                    <g id="Group_1681" transform="translate(7.69 23.956)">
                        <path id="Path_6412" d="M659.1 993.66h-13.27a.22.22 0 1 1 0-.439h13.27a.22.22 0 0 1 0 .44z" class="cls-5" transform="translate(-645.612 -993.221)"/>
                    </g>
                </g>
                <path id="Path_6413" d="M619.143 1037.9l-13.843 7.031 16.193.159z" class="cls-5" transform="translate(-605.3 -994.374)"/>
            </g>
            <g id="Group_1691" transform="translate(23.772 39.485)">
                <rect id="Rectangle_2226" width="55.109" height="44.11" class="cls-5" rx="2"/>
                <path id="Path_6414" d="M268.761 1019.713v32.1a1.559 1.559 0 0 1-1.558 1.557h-19.842a1.574 1.574 0 0 1-.846-.252 1.538 1.538 0 0 1-.705-1.306v-32.1a1.555 1.555 0 0 1 1.551-1.558H267.2a1.56 1.56 0 0 1 1.558 1.559z" class="cls-4" transform="translate(-240.62 -1013.709)"/>
                <g id="Group_1684" transform="translate(34.848 26.053)">
                    <circle id="Ellipse_353" cx="6.807" cy="6.807" r="6.807" class="cls-4"/>
                    <path id="Path_6415" d="M327.257 1076.976a2.131 2.131 0 0 0-3 0l-.591.6-.6-.6a2.126 2.126 0 0 0-3.595 1.883c.2 1.12 1.89 2.25 2.66 3.019.649.649 1.348 1.383 1.648 1.385s1.568-1.474 1.846-1.758a14.071 14.071 0 0 0 2.165-2.4 2.141 2.141 0 0 0-.53-2.134z" class="cls-10" transform="translate(-316.849 -1072.475)"/>
                </g>
                <g id="Group_1689" transform="translate(32.066 11.45)">
                    <g id="Group_1685">
                        <path id="Path_6416" d="M326.139 1034.589H307.4a.22.22 0 1 1 0-.439h18.736a.22.22 0 1 1 0 .439z" class="cls-4" transform="translate(-307.182 -1034.15)"/>
                    </g>
                    <g id="Group_1686" transform="translate(0 3.713)">
                        <path id="Path_6417" d="M326.139 1043.07H307.4a.22.22 0 1 1 0-.439h18.736a.22.22 0 0 1 0 .44z" class="cls-4" transform="translate(-307.182 -1042.63)"/>
                    </g>
                    <g id="Group_1687" transform="translate(0 7.428)">
                        <path id="Path_6418" d="M326.139 1051.551H307.4a.22.22 0 1 1 0-.439h18.736a.22.22 0 1 1 0 .439z" class="cls-4" transform="translate(-307.182 -1051.111)"/>
                    </g>
                    <g id="Group_1688" transform="translate(0 11.142)">
                        <path id="Path_6419" d="M326.139 1060.031H307.4a.22.22 0 1 1 0-.439h18.736a.22.22 0 1 1 0 .439z" class="cls-4" transform="translate(-307.182 -1059.592)"/>
                    </g>
                </g>
                <g id="Group_1690" transform="translate(31.848 6.656)">
                    <path id="Path_6420" d="M325.858 1024.079h-18.737a.439.439 0 0 1 0-.879h18.736a.439.439 0 1 1 0 .879z" class="cls-2" transform="translate(-306.682 -1023.2)"/>
                </g>
                <path id="Path_6421" d="M269.7 1056.649a.806.806 0 0 0-.659-.769 21.68 21.68 0 0 1-1.545-5.463 23.465 23.465 0 0 0-.717-4.834 8.4 8.4 0 0 0-3.121-4.481c-.183-.141-.368-.264-.564-.387a9.5 9.5 0 0 0-2.176-.981.392.392 0 0 0-.08-.005c-.024-.44-.024-.822-.037-.989s-.019-.344-.031-.515a2.47 2.47 0 0 0 .466-.447c1.637-2.067 1.717-5.979-.644-7.542-1-.668-2.25.08-2.931.889a7.1 7.1 0 0 0-.81 6.506 2.237 2.237 0 0 0 .95 1.055l.129 1.7a11.122 11.122 0 0 0-2.447.8c-.264.129-.527.257-.779.411a9.99 9.99 0 0 0-4.6 5.267c-.717 2.514 1.466 5.292 2.765 7.554a.252.252 0 0 1-.031.043 1.862 1.862 0 0 0-.257.411 1.737 1.737 0 0 0-.184.4 1.909 1.909 0 0 0-.067.374l-.036.178a1.03 1.03 0 0 0 .062.822.6.6 0 0 0 .392.24.84.84 0 0 0 .439.1 1.473 1.473 0 0 1 .361-.055 1.407 1.407 0 0 0 .675-.129 4.361 4.361 0 0 0 .89-.791.633.633 0 0 1 .9.9 3.516 3.516 0 0 1-2.477 1.386 2.322 2.322 0 0 0-.294 1.723h11.981c0-.276-.007-.549-.024-.827a10.456 10.456 0 0 0-1.978-5.015.58.58 0 0 1-.086-.4.676.676 0 0 1 .815-.521 5.339 5.339 0 0 1-.22-.846 53.938 53.938 0 0 1-.08-6.286 8.35 8.35 0 0 1 .779 2.808c.294 1.208.81 2.342 1.165 3.531a28.272 28.272 0 0 0 1.577 4.647 2.177 2.177 0 0 0 .454.668 1.3 1.3 0 0 0 2.08-1.136zm-16.746-6.628a5.459 5.459 0 0 1 .577-3.066c.19-.337.659 1.019.9.705l-.019.147a2.725 2.725 0 0 0 .439 1.717 4.394 4.394 0 0 1 .439 3.391 5.511 5.511 0 0 1-.57 1.324 1 1 0 0 0-.24-.08c-.049-.012-.1-.019-.159-.031-.272-1.03-1.161-3.052-1.363-4.107z" class="cls-7" transform="translate(-242.956 -1020.348)"/>
                <path id="Path_6422" d="M354.325 1092.423l13.775 7.177h-16.19z" class="cls-5" transform="translate(-300.255 -1055.451)"/>
                <path id="Path_6423" d="M269.9 1090.487h-12.709c.012-.178.024-.356.043-.533a12.48 12.48 0 0 1 .38-2.551 6.29 6.29 0 0 1 .68-1.484c.361-.582.769-1.116 1.154-1.661a.288.288 0 0 1 .049.288c1.741-.135 3.488-.306 5.23-.337a19.061 19.061 0 0 1 2.464.036c.036.007.067.007.1.012.736 1.5 1.851 2.808 2.281 4.531a17.223 17.223 0 0 1 .328 1.699z" class="cls-8" transform="translate(-247.017 -1050.821)"/>
                <path id="Path_6424" fill="#f2d8cb" d="M267.653 1059.067a16.347 16.347 0 0 0-1.338-2.982 4.082 4.082 0 0 0-1.916-1.741c-.7-.356-1.514-1.148-2.065-.11a13.42 13.42 0 0 1-.687 1.715 3.286 3.286 0 0 0-.514.732 5.264 5.264 0 0 1-.769 1.8 6.344 6.344 0 0 0-.692 1.01c-.1.11-.2.2-.293.313a.321.321 0 0 0-.062.159c-.194-.207-.4-.4-.6-.608-.047-.11-.1-.22-.154-.33a10.5 10.5 0 0 1-.712-2.029c-.291-1.015-1.136-1.252-.8-2.667a.31.31 0 0 0-.377-.377 10.384 10.384 0 0 0-2.126.915.3.3 0 0 0-.1.1 15.3 15.3 0 0 0-2.443 1.824c-.431.4-1.488 1.135-1.415 1.812.023.211.279.425.406.556.261.267.543.439.78.732a5.992 5.992 0 0 0 .433.666c.248.214.439.192.715.318a3.885 3.885 0 0 1 .928.659 4.4 4.4 0 0 0-.015 1.122 30.777 30.777 0 0 1-.233 5.546 79.346 79.346 0 0 0 9.465.121c.4-.023 2.849.093 2.849.093s-.616-2.764-.8-3.894c-.1-.669-.266-1.48-.368-2.223.472-.1.942-.22 1.406-.353a4.77 4.77 0 0 0 1.758-.632c.512-.558-.076-1.614-.261-2.247z" transform="translate(-243.303 -1033.698)"/>
                <path id="Path_6425" fill="#8c5650" d="M263.34 1036.927a14.392 14.392 0 0 1-.046-2.84 5.206 5.206 0 0 1 .376-1.408 6.036 6.036 0 0 0 2.55-2.493c.927 1.076 2.212 1.518 2.264 3.148a9.909 9.909 0 0 1-.378 1.846 10.879 10.879 0 0 0-.023 1.75h1.691c.339-2.207.611-4.523-.311-6.634a4.018 4.018 0 0 0-4.364-2.4c-1.69.3-3.488 1.242-3.836 2.924-.238 1.15.049 3.007-.163 4.168a6.984 6.984 0 0 0 .023 1.938z" transform="translate(-249.177 -1019.15)"/>
            </g>
        </g>
        <g id="Group_1855" transform="translate(48.106 17.439)">
            <path id="Path_6270" d="M2185.724 1892.79a21.392 21.392 0 0 0-2.352-6.372c-2.041-4.11-3.328-5.436-6.205-8.995-2.931-3.626-5.974-7.183-9.119-10.626a67.989 67.989 0 0 0-9.877-9.154 26.827 26.827 0 0 0-6.454-3.736 5.846 5.846 0 0 0-3.271-.512 4.835 4.835 0 0 0-2.364 1.915 15 15 0 0 0-2.9 6.192 18.9 18.9 0 0 0-.079 6.1.238.238 0 0 0-.048.33l.11.164c.057.475.118.95.179 1.428.044.346.594.351.549 0l-.048-.378c2.458 3.813 4.817 7.719 8.1 10.877 3.809 3.66 7.646 7.291 11.47 10.935 1.89 1.8 3.764 3.625 5.678 5.4 1.718 1.6 2.094.755 4.151 1.9 3.332 1.862 7.91 2.446 10.8-.57a5.983 5.983 0 0 0 1.679-4.9z" class="cls-14" transform="translate(-1979.299 -1787.16)"/>
            <path id="Path_6271" d="M1799.491 1956.314c-1.06-5.778-2.217-13.031-7.318-16.744a15.391 15.391 0 0 0-8.221-2.585 39.1 39.1 0 0 0-9.443.536 6.773 6.773 0 0 0-3.289 1.572c-.023-.042-.045-.083-.065-.127a.272.272 0 0 0-.175-.479c-2.637.11-4.5 2.074-5.727 4.247a31.03 31.03 0 0 0-3.056 9.278 42.845 42.845 0 0 0-.685 10.928c.245 3.729.925 7.409 1.374 11.115a92.428 92.428 0 0 1 .458 11.85l-.088 11.815c-.027 3.767-.22 7.581-.048 11.343.121 2.624.972 5.24 3.586 6.313 2.55 1.047 5.512.427 8.1-.156q5.713-1.289 11.416-2.586c1.839-.416 3.689-.8 5.517-1.26a10.337 10.337 0 0 0 3.8-1.627c2.56-1.95 3.215-5.689 3.794-8.65a121.874 121.874 0 0 0 1.949-22.267 119.4 119.4 0 0 0-1.879-22.516z" class="cls-15" transform="translate(-1667.587 -1855.518)"/>
            <path id="Path_6272" d="M1465.157 1653.739c-.716-.826-1.758-1.422-2.226-2.471-.618-1.386.154-2.911.607-4.213a6.462 6.462 0 0 0 .4-3.3 5.584 5.584 0 0 0-1.344-2.792 12.42 12.42 0 0 0-2.834-1.782c-2.169-1.42-.509-4.149-3.058-9.339a11.865 11.865 0 0 0-4.489-4.786c-4-2.663-13.967-2.746-18.735.978a1.479 1.479 0 0 1-.951.368c-3.7-1.351-2.2-.9-5.437 1.494a13.382 13.382 0 0 0-3.831 4.485 19.623 19.623 0 0 0-1.686 5.848 4.405 4.405 0 0 1-1.3 2.6 16.383 16.383 0 0 0-7.91 8.075c-.667 1.593-1.451 3.968-.273 5.515.422.549 1.066.857 1.053 1.662a4.994 4.994 0 0 1-.738 2.043 7.758 7.758 0 0 0-.989 3.423 4.67 4.67 0 0 0 2.984 4.234 6.88 6.88 0 0 0 3.14.486 10.835 10.835 0 0 0 1.74-.262c.313-.073.627-.2.944-.25a1.194 1.194 0 0 1 1.492.79 6.224 6.224 0 0 0 1.313 2.156 4.3 4.3 0 0 0 2.443 1.09 4.894 4.894 0 0 0 2.554-.549c.122-.057.694-.439.811-.408.274.075.229.353.33.536a3.264 3.264 0 0 0 .828 1.111c1.813 1.474 4.575.483 6.192-.815a6.072 6.072 0 0 0 1.767-2.292c.055-.01.11-.021.169-.028a9.071 9.071 0 0 1 1.318.03l5.106.2a44.252 44.252 0 0 0 9.5-.11 4.465 4.465 0 0 0 3.227-1.78 2.672 2.672 0 0 0 .214-2.417c3.783.317 8.639-2.326 8.66-6.873a3.971 3.971 0 0 0-.991-2.666z" class="cls-16" transform="translate(-1381.524 -1599.029)"/>
            <path id="Path_6273" d="M1766.89 1503.422c-.879-1.586-.928-3.406-1.509-5.1a7.1 7.1 0 0 0-2.388-3.287 12.719 12.719 0 0 0-6.949-2.568 15.465 15.465 0 0 0-6.472-.776c-6.885.644-12.723 5.038-17.619 9.609a11.438 11.438 0 0 0-3.176 4.386 8.747 8.747 0 0 0-.381 4.372.276.276 0 0 0 .1.532c.028.125.057.25.09.376a.276.276 0 0 0 .53-.152c-.034-.13-.065-.259-.092-.388a2.731 2.731 0 0 0 1.023-.712 3.475 3.475 0 0 0 .476-.752 2.028 2.028 0 0 1 1.327-1.148c1.854-.53 3.75-.968 5.64-1.346a27.562 27.562 0 0 1 11.144-.314 15.175 15.175 0 0 1 8.123 4.389 16.718 16.718 0 0 1 2.781 4.707c.756 1.736 1.52 3.467 2.325 5.181.913 1.945 1.854 3.876 2.8 5.805a20.543 20.543 0 0 0 2.909 4.733c.2.229.5-.031.457-.273a11.3 11.3 0 0 1 .481-5.583c.532-1.511 1.78-2.836 2.007-4.44.211-1.488-.742-2.689-1.1-4.065-.5-1.874.926-3.166 1.318-4.88.765-3.321-2.404-5.713-3.845-8.306z" class="cls-17" transform="translate(-1640.462 -1491.629)"/>
            <path id="Path_6274" d="M1856.034 1600.488c.487 1.141 1.221 2.242 1.825 3.345l.074.135q1.9 3.549 3.626 7.174.939 1.978 1.816 3.972c.246.549.486 1.11.723 1.666a5.192 5.192 0 0 0 .659 1.417c.536.612 1.648.363 2.35.212a9.843 9.843 0 0 0 2.738-1.082c2.087-1.166 3.81-2.76 5.908-3.914a22.3 22.3 0 0 1 5.529-2.117c.311.868.618 1.738.914 2.609.115.336.724.268.607-.073-.3-.893-.615-1.782-.933-2.67q1.066-.231 2.162-.366a.279.279 0 0 0-.1-.549q-1.142.142-2.251.382-1.449-4-3.1-7.936a177.125 177.125 0 0 0-13.018-25.122q-3.831-6.152-8.177-12.043c-.22-.3-.689.037-.477.33a.211.211 0 0 0-.028.2c.038.12.074.242.11.361a83.086 83.086 0 0 1 2.266 9 62.076 62.076 0 0 1 1.023 8.217 22.985 22.985 0 0 1-.676 7.549 34.62 34.62 0 0 1-3.146 6.585 2.956 2.956 0 0 0-.425 2.719z" class="cls-14" transform="translate(-1744.727 -1551.885)"/>
            <path id="Path_6275" d="M1895.389 2414.288c-1.151.4-2.888-.143-4.065-.29q-5.713-.723-11.472-1.156-7.853-.591-15.745-.647c-.9-1.488-9.428-13.138-9.392-12.873.728 5.713.145 7.344-.589 13.011q-9.624.341-19.18 1.48-2.778.33-5.545.734a41.717 41.717 0 0 1-4.909.586c-1 .024-2.747.08-3.323-.792a3.759 3.759 0 0 1-.339-1.7q-.13-1.167-.25-2.336c-.659-6.41-.159-10.235-.342-16.67-.252-8.973-.53-19.37-.115-29.071.132-3.094.335-6.117.633-9q.052-.514.11-1.021c-.142-.014-.282-.033-.425-.055a.267.267 0 0 1-.192-.405q.283-.352.563-.708a.331.331 0 0 1 .2-.117c.038-.323.074-.644.11-.967.042-.348.686-.352.644 0-.074.584-.14 1.172-.205 1.758a15.6 15.6 0 0 0 5.221-1.011 22.392 22.392 0 0 1 5.212-1.145 102.593 102.593 0 0 1 11.05.34c.471.016.945.033 1.416.047q4.665.154 9.332.181h.888q11.536.044 23.048-.668a.319.319 0 0 1 .31.2l1.682 4.7c4.372 12.235 9.027 24.426 12.415 36.9q1.273 4.687 2.338 9.409c.688 3.044 1.477 6.133 1.868 9.214a1.693 1.693 0 0 1-.952 2.072z" class="cls-18" transform="translate(-1715.547 -2194.53)"/>
            <path id="Path_6276" d="M1843.083 2410.13c-.264 4.228-.642 8.57-2.354 12.5a17.177 17.177 0 0 1-2.85 4.555c-1.226 1.38-3.111 3.219-5.1 3.019-.352-.035-.349.515 0 .549 1.859.187 3.553-1.236 4.8-2.458a16.814 16.814 0 0 0 3.387-4.864c1.958-4.148 2.386-8.789 2.668-13.307.022-.348-.529-.346-.551.006z" class="cls-19" transform="translate(-1725.637 -2241.949)"/>
            <path id="Path_6277" d="M1857.533 2356.253c-.049-.439 0-1.228-.351-1.584-.419-.43-1.408-.359-1.94-.419-.165-.019-.33-.034-.5-.049a62.675 62.675 0 0 0-9.332-.181q-.9.046-1.793.11c-2.363.17-4.719.439-7.066.759q-1.318.179-2.637.381c-.549.082-1.086.169-1.628.255-1.957.314-3.91.649-5.863.989q-1.3.22-2.6.449a21.053 21.053 0 0 0-2.121.343c-.3 2.883-.5 5.906-.633 9 4.579-.783 9.169-1.245 13.787-1.587q1.185-.088 2.376-.167c.605-.038 1.208-.079 1.819-.115 6.344-.389 12.658-1.132 18.948-2.012a.273.273 0 0 0 .2-.264q-.332-2.956-.666-5.908z" class="cls-16" transform="translate(-1716.323 -2196.151)"/>
            <path id="Path_6278" d="M1894.438 2368.833c-.016-.119-.03-.233-.036-.337l-.362-4.974a36.784 36.784 0 0 0-.282-4.352q-1.318.179-2.637.381.481 3.891.813 7.8.069.825.128 1.648c.024.3.044.6.066.893.035.517-.147 1.491.145 1.927.406.609 1.518.33 1.921-.1.666-.712.368-1.975.244-2.886z" class="cls-18" transform="translate(-1773.51 -2200.437)"/>
            <path id="Path_6279" d="M1750.054 1828.422c.405-1.758-4.68-2.966-5-4.764a40.7 40.7 0 0 0 1.891-8.065q.072-.6.118-1.2c.022-.274.038-.549.052-.823a21.348 21.348 0 0 0-.381-5.4c-.33-1.59-1.229-3.291-2.819-3.689a15.078 15.078 0 0 0-1.467-1.571q-.408-.383-.842-.732a23.254 23.254 0 0 0-10.108-4.415c-.746-.151-1.493-.271-2.236-.369-.973-.126-1.949-.22-2.925-.288-.2-.014-.395-.027-.59-.038-.549-.035-1.091-.063-1.636-.086-.11-.005-.22-.011-.33-.014-1.691-.068-3.384-.1-5.075-.15-.592-.019-1.184-.039-1.776-.064-1.606-.071-3.262-.068-4.859-.266-.266.192-.5.266-.778.44l-.365.22q-.578.33-1.192.631a25.876 25.876 0 0 1-6.018 2.109 24.108 24.108 0 0 1-3.906.482 28.679 28.679 0 0 1-4.9-.225 18.861 18.861 0 0 1-2.269-.409l-.277.186q-2.637 1.763-5.264 3.477l-.33.22-1.038.679-4.55 2.974-2.34 1.538c-3.07 2.03-5.964 4-8.537 5.879q-.336.245-.659.49c-.047.035-.1.069-.145.11a50.46 50.46 0 0 0-9.308 8.562c-3.151 3.9-7.407 8.551-9.641 13.017-2.43 4.859 1.891 9.009-.253 14-.038-.126-.075-.255-.115-.381-.1-.337-.634-.194-.53.147s.205.682.31 1.023c-.157.37-.318.739-.474 1.11-.137.33.395.469.53.147l.189-.439q3.516 11.682 6.327 23.56a.277.277 0 0 0 .46.121 30.6 30.6 0 0 1 6.09-5.892c2.285-1.656 4.938-2.747 7.172-4.467a15.486 15.486 0 0 0 2.088-1.99c.136-.15.268-.3.4-.46 1.036-1.219 1.987-2.527 3.061-3.7.11-.115.212-.225.318-.339a69.773 69.773 0 0 1 1.916 16.728c-.011.363-.025.727-.041 1.089-.124 2.93-.372 5.85-.412 8.789q-.011.567-.008 1.135c.022 3.71.23 7.427.482 11.129a11.661 11.661 0 0 0 1.065 4.629 8.735 8.735 0 0 0 .821 1.287 13.109 13.109 0 0 0 1.837.048 35.209 35.209 0 0 0 5.659-.82c3.474-.67 6.95-1.342 10.463-1.772 1.758-.22 3.516-.367 5.289-.426 1.806-.059 3.594.08 5.4.12a8.57 8.57 0 0 0 2.444-.2 3.684 3.684 0 0 1 1.362-.205c1.034.132.942 1.23.89 2.032-.027.428-.042.858-.046 1.287h.019q1.328-.11 2.655-.2a38.7 38.7 0 0 1 8.337.22c.186.025.372.055.558.088q1.083.179 2.164.451a96.045 96.045 0 0 0 14.382 2.2c.208.013.405.022.6.027.172.008.341.013.5.014a.28.28 0 0 0 .275-.275c.22-2.6.739-11.091 1.466-13.346 1.588-4.933-1.441-9.8.22-14.68.372-1.1.715-2.036 1.028-2.848 2.527-6.571 3.169-4.957 3.158-14.722 0-3.031.619-11.436 1.071-19.107a133.359 133.359 0 0 0 .373-13.558z" class="cls-20" transform="translate(-1576.212 -1740.818)"/>
            <path id="Path_6280" d="M1760.958 1573.636a50.379 50.379 0 0 0-1.57-8.46c-2.4.493-3.766-2.2-4.944-4.219a29.406 29.406 0 0 0-2.828-1.116c-4.625-1.584-9.547-.858-14.32-1.509a.879.879 0 0 1-.463-.2 8.209 8.209 0 0 0-4.5 2.98 8.738 8.738 0 0 0-1.353 4.183 27.759 27.759 0 0 0 .463 7.245c.027.156.056.313.086.47q.206 1.116.46 2.246c.065.291.132.583.2.879.845 3.578 2.2 7.414 3.076 10.3 1.208 4.01 2.626 8.1 5.274 11.352 2.285 2.8 4.645 6.4 8.658 5.947a11.725 11.725 0 0 0 5.364-2.216 51.056 51.056 0 0 0 6.189-6.5c1.9-2.884 1.211-11.205.208-21.382z" class="cls-14" transform="translate(-1642.635 -1545.938)"/>
            <path id="Path_6281" d="M1822.888 1677.18c.154 1.282.858 2.252 1.575 2.167s1.173-1.194 1.02-2.476-.858-2.252-1.574-2.167-1.174 1.196-1.021 2.476z" class="cls-16" transform="translate(-1717.738 -1641.124)"/>
            <path id="Path_6282" d="M1760.821 1679.74c.116 1.286.794 2.275 1.513 2.21s1.208-1.161 1.09-2.447-.794-2.275-1.513-2.21-1.211 1.162-1.09 2.447z" class="cls-16" transform="translate(-1667.038 -1643.242)"/>
            <path id="Path_6283" d="M1769.734 1573.278c-.144-1.968.573-1.758.149-3.687a2.578 2.578 0 0 0-.885-1.562c-.644-.508-1.483-.666-2.123-1.187a.294.294 0 0 0-.439.079c-1.669-3.854-5.362-7.534-7.084-11.292-.132-2.108-.369-4.339-2.372-5.342a5.813 5.813 0 0 0-5.47.738 22.547 22.547 0 0 0-8.271-.612c-3.785.342-8.332.807-10.547 3.964a8.739 8.739 0 0 0-1.355 4.184 4.507 4.507 0 0 0 2.417.023c1.771-.432 3.452-1.209 5.225-1.66 3.658-.933 8.35-1.518 11.958-.232a12.393 12.393 0 0 1 4.53 2.821c1.2 1.178 1.037 3.076 1.868 4.534 1.246 2.169 3.248 2.374 3.973 2.849a3.584 3.584 0 0 0 1.1.359 35.886 35.886 0 0 0 2.792 4.359 19.475 19.475 0 0 0 5.092 4.443 22.006 22.006 0 0 0-.556-2.78z" class="cls-17" transform="translate(-1643.008 -1539.199)"/>
            <path id="Path_6284" d="M1499.949 1790.118c-1.5-.973-1.766-1.635-3.273-2.6l-9.312-5.964c-.048-.257-.1-.513-.164-.769-.029-.11-.21-.086-.181.03q.075.3.134.6l-.825-.528c-.1-.064-.207.085-.11.148l.976.625c.513 2.856-3.943 26.631-4.355 28.384-.012.052.037.092.081.1 3.583.754 5.916 1.208 9.5 1.963l2.6.549c.422.089 1.279.5 1.551-.019a6.258 6.258 0 0 0 .35-1.065q.184-.6.344-1.208c.2-.769 3.813-18.307 3.729-18.978a1.9 1.9 0 0 0-1.04-1.271z" class="cls-14" transform="translate(-1439.945 -1727.83)"/>
            <path id="Path_6285" d="M1385.263 2348.536v.545q0 1.229-.005 2.458v.549q-.025 4.484-.131 8.969c0 .181-.008.365-.011.549q-.035 1.5-.082 3.006c-.005.178-.013.356-.019.537q-.121 3.94-.312 7.882c-.008.181-.016.365-.027.549-.035.781-.077 1.564-.118 2.346 0 .1-.009.2-.014.293s-.011.194-.013.291a19.714 19.714 0 0 1-.205 3.092 1.329 1.329 0 0 1-.852 1.083 11.723 11.723 0 0 1-2.87.351l-3.423.345-3.406.342-.573.057-.439.044q-1.024-.036-2.049-.091c-.183-.009-.368-.02-.549-.031q-1.648-.1-3.307-.255c-1.448-.142-2.9-.3-4.349-.451-.167-.493-.33-.989-.5-1.481-.057-.169-.11-.34-.169-.512q-.371-1.117-.726-2.237c-.06-.184-.12-.368-.175-.549q-.454-1.429-.888-2.872c-.126-.414-.252-.833-.372-1.248q-.721-2.426-1.381-4.865c-.008-.03-.014-.055-.024-.084-.046-.178-.093-.353-.141-.529-.057-.206-.11-.419-.167-.625-.1-.369-.2-.741-.29-1.11-.046-.172-.091-.343-.134-.515-.118-.439-.231-.891-.341-1.337-.475-1.889-.935-3.793-1.335-5.713q-.729 2.417-1.463 4.823-.421 1.4-.838 2.795l-.17.564q-.308 1.035-.625 2.067l-.183.6q-.646 2.1-1.346 4.194c-.543 1.6-1.132 3.186-1.808 4.744-.213.487-.424 1.009-.651 1.528-.088.2-.178.4-.274.6-.15.323-.313.64-.491.94a.525.525 0 0 1-.031.055l-.549.025c-.989.046-1.978.11-2.966.181-.187.012-.372.025-.559.041-2.436.181-4.867.4-7.3.513-1.449.07-2.916.126-4.376.128h-.561q-1.373-.013-2.735-.11-.264-.019-.528-.044h-.014c-.279-.024-.559-.054-.836-.084l-.4-.044.036-.449q.36-4.615.864-9.217c.019-.184.041-.365.061-.549q.119-1.081.249-2.164c.02-.185.042-.373.066-.559.068-.567.137-1.135.211-1.7q.481-3.8 1.067-7.581c.025-.176.053-.354.08-.532q.236-1.523.491-3.044l.091-.549q.82-4.875 1.808-9.721c.038-.189.075-.376.118-.564q.322-1.579.668-3.16.058-.283.121-.568.82-3.743 1.738-7.471c.044-.187.09-.376.139-.565q.36-1.469.745-2.932c.049-.2.1-.39.153-.587q1.9-7.284 4.175-14.476a.338.338 0 0 1 .035-.073c-.027-.148-.052-.3-.077-.447-.376.11-.746.22-1.112.343-.339.119-.469-.409-.135-.526q.572-.2 1.151-.353-.322-1.849-.573-3.71c-.047-.343.486-.491.532-.143.167 1.241.364 2.48.578 3.713a32.513 32.513 0 0 1 5.261-.712c2.519-.174 5.04-.33 7.559-.488l3.3-.22c.164-.009.33-.02.488-.033l2.307-.15.589-.041q3.353-.22 6.71-.43l.549-.031 1.516-.09.191-.011c.123-.008.247-.014.37-.02 2.175-.123 4.349-.213 6.525-.208 1.178 0 2.368 0 3.539.1a3.118 3.118 0 0 1 1.727.55 5.659 5.659 0 0 1 1.587 2.4c.137.341.26.69.368 1.029.14.424.258.835.37 1.208a29.807 29.807 0 0 1 1.019 5.613q.11 1.1.189 2.209c.014.175.025.345.035.518a.088.088 0 0 1 0 .022q.058.82.1 1.648v.009l.027.54c.137 2.78.192 5.571.274 8.35l.033 1.2c0 .18.009.356.013.534q.036 1.318.061 2.636c0 .187.008.376.011.565q.095 4.271.103 8.588z" class="cls-21" transform="translate(-1312.714 -2159.836)"/>
            <path id="Path_6286" d="M1578.82 2396.142c-3.227-1.2-6.613-2.477-8.966-5.111-2.452-2.747-2.556-6.27-2.417-9.764.014-.354-.536-.354-.549 0-.144 3.542-.016 7.1 2.383 9.932s6 4.208 9.4 5.473c.336.128.479-.407.149-.53z" class="cls-22" transform="translate(-1508.583 -2218.278)"/>
            <path id="Path_6287" d="M1477.8 2390.916q1.02-6.654 2.213-13.276c.063-.346-.468-.494-.531-.146q-1.381 7.684-2.535 15.406c-.45 3.026-2.328 9.542 2.117 10.591.344.081.491-.449.146-.531-2.307-.549-2.614-3.158-2.409-5.131.239-2.312.645-4.617.999-6.913z" class="cls-22" transform="translate(-1434.487 -2215.269)"/>
            <path id="Path_6288" d="M2016.605 2249.8c-.173-3.591-.679-7.347-.085-10.913a26.055 26.055 0 0 0 .523-4.764c-.031-1.79-.219-3.582-.358-5.366l-.679-9-.136-1.784a.279.279 0 0 0-.349-.266c-1.538.282-3.066.56-4.6.853l-.549.11a119.99 119.99 0 0 0-12.074 2.862c-1.3.392-2.568.847-3.833 1.318l-.6.227c-1.227.461-2.448.934-3.689 1.372-2.787.989-5.872 1.617-8.7.447-.05-.2-.1-.394-.148-.591a.276.276 0 0 0-.531.147c.046.174.088.351.132.526a.22.22 0 0 0 .077.309 95.181 95.181 0 0 1 2.768 19.336c.044 1.157.052 2.322.044 3.492-.031 5.21-.34 10.5 1.222 15.505a.282.282 0 0 0 .339.192c2.514-.627 5.032-1.256 7.6-1.633.97-.143 1.942-.23 2.916-.285.181-.011.361-.019.543-.025 1.505-.068 3.014-.066 4.524-.073q5.865-.027 11.716-.46.275-.02.549-.043 1.811-.137 3.618-.313a.28.28 0 0 0 .275-.275q-.251-5.46-.515-10.905z" class="cls-20" transform="translate(-1846.831 -2084.903)"/>
            <path id="Path_6289" d="M1395.134 2384.73a27.165 27.165 0 0 1-3.563 8.469c-1.5 2.347-3.906 5.966-7.045 5.933a.276.276 0 0 0 0 .549c3.132.027 5.413-3.13 7.013-5.448a27.57 27.57 0 0 0 4.125-9.362c.081-.339-.449-.484-.53-.141z" class="cls-22" transform="translate(-1359.344 -2221.162)"/>
            <path id="Path_6290" d="M1429.549 2359.3a.083.083 0 0 0 0-.022 28.305 28.305 0 0 0-1.093-3.271 6.055 6.055 0 0 0-2.927-2.881 12.208 12.208 0 0 0-4.614-1c-.381-.022-.769-.041-1.148-.054-.666-.027-1.335-.044-2-.055-.915-.014-1.83-.019-2.747-.019q-5.978 0-11.938.484a91.443 91.443 0 0 0-11.441 1.4 10.273 10.273 0 0 0-4.524 2.833q-2.121 1.859-4.159 3.8l-.118.032a.246.246 0 0 0-.191.262l-.43.411c-.257.247.139.631.394.385.205-.2.416-.394.624-.592 5.944-1.59 11.954-1.648 18.068-1.648 5.152 0 10.321-.11 15.472.058q1.235.038 2.47.1c.09 0 .181.008.271.012 1.787.1 3.574.24 5.349.476q1.3.17 2.6.406c.4.073.805.152 1.208.239.148.031.579.17.957.266a.228.228 0 0 0 .02.027v-.009q-.046-.818-.103-1.64z" class="cls-16" transform="translate(-1357.61 -2194.573)"/>
            <path id="Path_6291" d="M1573.806 2345.81l-1.157.213c.005-.068.013-.137.02-.205.033-.352-.517-.351-.549 0q-.044.469-.091.937-.38 3.719-.989 7.407 1.235.038 2.47.1a40.1 40.1 0 0 1 .518-7.452q.055-.329.115-.659a.279.279 0 0 0-.337-.342z" class="cls-21" transform="translate(-1511.999 -2189.304)"/>
            <path id="Path_6292" d="M1453.555 2348.06l-1.157.213c.005-.068.013-.137.02-.205.033-.353-.517-.351-.549 0q-.044.47-.091.937-.379 3.719-.989 7.407 1.235.038 2.47.1a40.091 40.091 0 0 1 .519-7.452q.054-.33.115-.659a.279.279 0 0 0-.337-.342z" class="cls-21" transform="translate(-1413.674 -2191.143)"/>
            <path id="Path_6293" d="M1341.01 1966.849c-.077 2.272.17 4.914-.853 7-3.853 7.832-10.2 6.244-11.866 6.975a24.327 24.327 0 0 1-1.414 3.538c-.26.433-.46.792-.629 1.1-.15.271-.275.5-.4.7-.641 1.044-1.219 1.334-4.818 2.875-.2.088-.3-.213-.321-.439-.372-4.513.336-8.956-3.284-11.713a12.774 12.774 0 0 0-5.289-2.393 27.326 27.326 0 0 0-7.791.009c-5.243.5-10.493.961-15.733 1.511a20.578 20.578 0 0 0-7.452 1.765c-7.4 3.815-10.346 12.93-11.175 12.949a.27.27 0 0 1-.258-.2c-.518-1.716-2.2-3.976-3.675-6.222-.1-.156-.205-.312-.3-.468a11.84 11.84 0 0 1-2.2-5.007 33.763 33.763 0 0 1 .024-4.044 16.737 16.737 0 0 1-2.724.7c-4.309.7-8.386-.778-10.493-4.615-2.173-3.963-2.226-9.009-1.6-13.421.769-5.434 3.259-10.444 4.285-15.83.95-4.98 1.489-9.983 3.273-14.786a50.3 50.3 0 0 1 15.035-20.731 57.8 57.8 0 0 1 10.955-7.221c1.337-.679 2.765-1.3 4.165-1.978l.5-.246q.438-.218.866-.439a10.579 10.579 0 0 0 1.839-5.426 4.121 4.121 0 0 1 1.24-3.037 2.713 2.713 0 0 1 2.8-.131 8.839 8.839 0 0 0 1.4.71 8.5 8.5 0 0 0 3.186.4c2.006-.062 4-.439 6-.562a13.751 13.751 0 0 1 5.116.439 6.247 6.247 0 0 1 1.943 1.047 15 15 0 0 0 1.839 4.445c.22.359.446.718.651 1.08.761.374 1.538.715 2.327 1.033.174.069.345.14.519.208 1.189.466 2.4.89 3.6 1.318 4.212 1.493 8.5 3.076 11.713 6.262 6.344 6.3 7.23 15.837 7.237 24.371 0 5.091-.093 10.156.285 15.23.339 4.521.866 9.022 1.2 13.543.016.235.033.469.047.7q.044.622.08 1.245c.156 2.587.233 5.171.15 7.756z" class="cls-23" transform="translate(-1248.408 -1815.027)"/>
            <path id="Path_6294" d="M1782.969 1695.14a5.179 5.179 0 0 1-3.025.509c-1.373-.354-1.606-1.569-1.473-2.811a36.283 36.283 0 0 1 1.358-6.469.276.276 0 0 0-.526-.16 39.622 39.622 0 0 0-1.045 4.352 10.178 10.178 0 0 0-.314 3.793c.549 2.474 3.415 1.978 5.156 1.318.329-.117.2-.656-.131-.532z" class="cls-24" transform="translate(-1680.969 -1650.45)"/>
            <path id="Path_6295" d="M1808.375 1742.594c-2.467 1.081-5.085 2.03-7.91 1.586a.314.314 0 0 0-.227.577c0 .009 2.075 2.974 3.793 2.754 2.929-.375 4.169-3.516 4.761-4.424a.337.337 0 0 0-.416-.493z" class="cls-4" transform="translate(-1699.137 -1696.642)"/>
            <path id="Path_6296" d="M2132.863 1829.691a17.259 17.259 0 0 0-3.316-4.568 74.906 74.906 0 0 0-8.446-8.145c-1.467-1.208-3.8-5.579-5.349-6.673-1.1-.769-3.955-4.594-10.759-6.344-.209-.053-.42-.11-.636-.154a31.828 31.828 0 0 0-9.03-.659h-.022c-1.925.11 5.667 23.431 5.21 25.349q-.287-.593-.565-1.192c-.147-.321-.622-.042-.474.279.271.587.549 1.168.842 1.748-.066.275-.129.549-.2.824-.08.345.449.491.53.147l.049-.2a65.536 65.536 0 0 0 11.332 15.788q.717.737 1.46 1.454 1.232 1.185 2.527 2.307c1.078.934 2.338 2.347 3.9 2.2 1.648-.159 2.857-1.671 3.832-2.839q1.219-1.449 2.335-2.979.187-.253.368-.512c.211-.293.42-.59.624-.89a54.977 54.977 0 0 0 5.493-10.163 5.95 5.95 0 0 0 .29-4.772z" class="cls-20" transform="translate(-1940.179 -1746.123)"/>
            <path id="Path_6297" d="M1810.974 1640.523c-.213-.631-1.461-.879-1.533-.885-2.541-.26-5.3-.455-7.641.769a3.432 3.432 0 0 0-1.891 2.013 1.116 1.116 0 0 0 1.236 1.372 8.311 8.311 0 0 0 1.9-.459q1.121-.3 2.258-.529c1.469-.3 3.02-.368 4.457-.8.67-.191 1.496-.647 1.214-1.481z" class="cls-17" transform="translate(-1698.971 -1612.335)"/>
            <g id="Group_1650" transform="translate(92.815 56.221)">
                <path id="Path_6298" d="M1903.725 1910.46c-.317 6.4-.86 12.813.517 19.132a55.508 55.508 0 0 1 1.7 9.919 86.916 86.916 0 0 1-.431 9.721 45.56 45.56 0 0 0 .338 12.64c.184-.015.368-.028.549-.041a40.687 40.687 0 0 1-.446-11.158c.219-3.239.567-6.475.563-9.726a39.922 39.922 0 0 0-1.22-9.254 47.578 47.578 0 0 1-1.4-9.71c-.09-3.195.1-6.385.28-9.573a151.14 151.14 0 0 0-.172-19.458c-.543-7.361-1.508-14.675-2.472-21.985-.046-.346-.6-.35-.549 0 1.726 13.098 3.403 26.252 2.743 39.493z" class="cls-25" transform="translate(-1874.558 -1857.673)"/>
                <path id="Path_6299" d="M1833.79 1910.226c-.11 3.594-.352 7.183-.751 10.757-.37 3.3-.844 6.592-1.126 9.9a46.6 46.6 0 0 0 .038 9.806 27.71 27.71 0 0 0 .961 4.58c.475 1.557 1.17 3.028 1.715 4.559a26.519 26.519 0 0 1 .989 5.648 15.688 15.688 0 0 0 1.253 4.376c.11.244.22.485.342.723l.561-.11-.042-.078a15.7 15.7 0 0 1-1.5-4.481c-.264-1.612-.241-3.257-.645-4.846a41.277 41.277 0 0 0-1.606-4.374 25.876 25.876 0 0 1-1.261-4.609 40.429 40.429 0 0 1-.356-9.852c.457-6.756 1.626-13.427 1.915-20.2a185.007 185.007 0 0 0-.42-20.954c-.567-7.958-1.488-15.884-2.417-23.806-.041-.348-.591-.352-.549 0 1.658 14.257 3.332 28.584 2.899 42.961z" class="cls-25" transform="translate(-1817.325 -1854.653)"/>
                <path id="Path_6300" d="M1757.751 1928.577c.28-3.7.827-7.393.809-11.113-.02-3.689-.549-7.348-.868-11.017a35.59 35.59 0 0 1 .346-10.746q-.335.245-.659.49c-1.408 7.347.779 14.886.625 22.3-.09 4.3-.84 8.551-.946 12.854a27.4 27.4 0 0 0 2.252 11.7c.252.591.508 1.178.769 1.764.136-.151.268-.3.4-.46a44.111 44.111 0 0 1-1.793-4.476 29.227 29.227 0 0 1-.936-11.3z" class="cls-25" transform="translate(-1756.904 -1878.083)"/>
                <path id="Path_6301" d="M2015.375 1912.27a79.213 79.213 0 0 1-.4-12.3 76.111 76.111 0 0 0-.005-9.219c-.08-.989-.2-1.978-.381-2.966-1.4-7.733-6.117-14.447-6.752-22.374-.336-4.175.08-8.386.066-12.571-.014-4.295-.266-8.583-.556-12.866-.646-9.545-1.474-19.142-.346-28.685.042-.352-.508-.348-.549 0-1 8.466-.464 16.992.125 25.468.293 4.227.6 8.454.721 12.688.123 4.212-.132 8.408-.13 12.618a33.977 33.977 0 0 0 1.907 11.384c1.266 3.617 2.916 7.09 4.055 10.75a30.7 30.7 0 0 1 1.239 6.775c.464 5.916-.341 11.925.121 17.891.186 2.381.5 4.771.827 7.167a77.921 77.921 0 0 1 1.083 13.759c.181-.011.361-.018.543-.025a79.147 79.147 0 0 0-1.069-13.646c-.174-1.284-.349-2.567-.499-3.848z" class="cls-25" transform="translate(-1960.234 -1808.939)"/>
                <path id="Path_6302" d="M2081.645 1909.514c-.721-4.829-1.922-9.537-2.1-14.442-.17-4.834.263-9.668.439-14.5q.062-1.7.057-3.395a64.428 64.428 0 0 0-.879-10.644 120.986 120.986 0 0 0-3.248-13.352c-1.285-4.423-2.659-8.822-3.8-13.288a93 93 0 0 1-2.426-13.761c-.879-8.832-.954-17.939-3.672-26.436-.2-.014-.394-.027-.59-.038 2.3 7.086 2.732 14.625 3.321 22.028a116.475 116.475 0 0 0 1.461 12.2c.794 4.25 1.938 8.424 3.148 12.573 2.417 8.285 5.164 16.58 5.927 25.222.165 1.868.22 3.735.207 5.6-.046 7.221-1.055 14.451-.22 21.659.411 3.546 1.2 7.026 1.764 10.547.233 1.455.43 2.916.541 4.395.156 2.021.22 4.045.22 6.073l.549-.042a72.541 72.541 0 0 0-.659-10.012c-.002-.132-.02-.261-.04-.387z" class="cls-25" transform="translate(-2008.864 -1799.656)"/>
                <path id="Path_6303" d="M2166.96 1846.563c-2.028-3.374-4.352-6.5-5.757-10.218-.68-1.792-1.261-3.626-2.119-5.349a24.689 24.689 0 0 0-2.683-4.115c-1.233-1.584-2.56-3.1-3.752-4.713a21.857 21.857 0 0 1-2.527-4.2 53.566 53.566 0 0 1-2.143-6.451l-.1-.337-1.187-4c-.209-.054-.42-.11-.636-.154.357 1.252.713 2.508 1.08 3.762.541 1.85 1.107 3.694 1.743 5.505a25.075 25.075 0 0 0 3.713 6.7c.512.69 1.051 1.368 1.609 2.045a48 48 0 0 1 3.341 4.381 25.483 25.483 0 0 1 2.433 5.188 41.318 41.318 0 0 0 2.129 5.129c.889 1.691 1.944 3.285 2.98 4.887a45.536 45.536 0 0 1 2.7 4.614q.187-.254.368-.512c-.362-.735-.768-1.458-1.192-2.162z" class="cls-25" transform="translate(-2074.699 -1805.667)"/>
            </g>
            <path id="Path_6304" d="M1742.765 1645.454a3.436 3.436 0 0 0-2.192-1.682 9.8 9.8 0 0 0-4.73-.2q.206 1.116.46 2.246c.065.291.132.583.2.879.336 0 .669 0 1 .01q1.159.044 2.314.157a8.3 8.3 0 0 0 1.947.145 1.115 1.115 0 0 0 1-1.556z" class="cls-17" transform="translate(-1646.65 -1615.55)"/>
            <path id="Path_6305" d="M2184.052 1780.278a11.337 11.337 0 0 1 1.071.659 22.46 22.46 0 0 0 2.353-1.784c1.045-.946 2.036-.924 3.238-1.724a13.648 13.648 0 0 0-.386-4.277c-.527-3.927-.17-3.773-.954-7.65a63.308 63.308 0 0 0-7.55-19.776c-1.786-2.986-22.894-29.388-28.385-34.866a.176.176 0 0 0-.29.035l-3.7 6.174a1.912 1.912 0 0 0-.142.235l-.314.523a.314.314 0 0 0 .06.387 4.732 4.732 0 0 0 .5 2.646c8.57 15.521 22.758 44.4 25.314 49 1.514 2.749 7.11 9.327 9.185 10.418z" class="cls-14" transform="translate(-1984.241 -1670.733)"/>
            <path id="Path_6306" d="M2023.229 1685.384a12.09 12.09 0 0 0-1.37-3.5 4.882 4.882 0 0 0-3.214-1.7c-2.351-.266-14.989.688-14.991.688-1.561.057-5.313.046-4.933-1.648.23-1.018 1.063-1.722 1.389-2.686a.989.989 0 0 0-.261-1.217c-.532-.323-1.272.1-1.714.467a4.652 4.652 0 0 0-1.38 2.212 6.042 6.042 0 0 0-.3 3.64 2.178 2.178 0 0 1-1.318-1.957c-.042-1.443 1.08-2.693 1.039-4.087a1.005 1.005 0 0 0-1.263-1.005c-.879.194-1.4 1.276-1.744 2.059a7.951 7.951 0 0 0-.591 2.14 16.284 16.284 0 0 0-.349-2.018c-.189-.708-.57-1.562-1.423-1.264s-.922 1.252-.806 2.026a25.357 25.357 0 0 0 1.328 5.787 6.9 6.9 0 0 0 3.68 3.566 25.889 25.889 0 0 0 6.165 1.725c0 .234 0 .463.007.683a15.774 15.774 0 0 1-10.863-4.147c-.524-.508-.972-1.078-1.478-1.6-.3-.314-.779-.7-1.251-.592-1.186.279-.156 2.3.16 2.895 1.468 2.759 4.355 4.307 7.251 5.164 3.912 1.162 12.452 1.555 12.7 1.527-.1.369-.291 1.7-.429 2.472a4.807 4.807 0 0 1-.12.5 4.391 4.391 0 0 1-1.438-.067q-.826-.065-1.655-.094a2.485 2.485 0 0 0-1.785.346c-1.208 1.057.687 2.064 1.458 2.492 1.251.693 2.96 1.725 4.433 1.262.853-.268 11.855-9.3 11.606-12.921a.289.289 0 0 0-.356-.254c-.043-.136-.09-.27-.138-.405a23 23 0 0 0 3.443-.659l.075.281a.231.231 0 0 0 .441-.1z" class="cls-14" transform="translate(-1851.922 -1641.093)"/>
            <path id="Path_6307" d="M1657.653 2270.6a37.043 37.043 0 0 0 2.5-3.176c.33-.43.645-.861.967-1.293a1.8 1.8 0 0 1-.093-1.8 11 11 0 0 0 1.487-4.059 1.712 1.712 0 0 1 .163-.687 2.234 2.234 0 0 0-.447-.091 4.85 4.85 0 0 0-3.3 1.428 9.671 9.671 0 0 0-2.338 2.9l-.344.117a.221.221 0 0 0-.22.09c-1.27 1.623-2.718 4.2-2.324 6.359a1.867 1.867 0 0 0 .608 1.108 6.923 6.923 0 0 1 1 2.527 27.44 27.44 0 0 0 .164 3.2 10.765 10.765 0 0 0 2.9 5.579c.247.255.635-.135.389-.389a10.2 10.2 0 0 1-2.872-6.146c-.084-.915.063-1.851-.084-2.76a5.078 5.078 0 0 0-.7-1.665h.026a3.208 3.208 0 0 0 2.518-1.242z" class="cls-16" transform="translate(-1579.483 -2119.001)"/>
            <path id="Path_6308" d="M1594.469 2086.081a29.009 29.009 0 0 0-4.649-7.8 22.643 22.643 0 0 0-1.394-1.835.673.673 0 0 0-.718-.287 6.158 6.158 0 0 0-1.719.983q-.974.6-1.918 1.252a19.233 19.233 0 0 0-3.345 2.577 2.794 2.794 0 0 0-.461 2.629.231.231 0 0 0-.147.073c-.376.433-1.059.971-1.11 1.591-.055.665.572 1.428.859 1.985.926 1.775 1.868 3.547 2.849 5.29a6.9 6.9 0 0 0 2.935 3.149 13.964 13.964 0 0 1 4.433 2.684.277.277 0 0 0 .389 0 34.964 34.964 0 0 1 3.475-3.406v.012c-.061.346.469.494.531.146.521-3.003.993-6.078-.01-9.043z" class="cls-14" transform="translate(-1518.515 -1969.204)"/>
            <path id="Path_6309" d="M1810.539 1857.742c-.23-5.894-.769-14.47-1.332-20.732l-4.549 2.974a190.33 190.33 0 0 1-.1 59.218 88.1 88.1 0 0 1-3.085 10.638c-.158.5-.288.935-.381 1.294-.11.439-.4 6.226-.422 7.887a.093.093 0 0 0 .172.046l.22-.439a108.927 108.927 0 0 0 6.1-14.119c1.693-5.2 2.562-7.485 2.938-12.922a314.187 314.187 0 0 0 .445-33.845z" class="cls-15" transform="translate(-1699.618 -1773.885)"/>
            <path id="Path_6310" d="M2027.02 1714.945a6.87 6.87 0 0 1-7.514-4.142c-.138-.33-.613-.045-.475.278a7.413 7.413 0 0 0 8.13 4.395c.359-.058.21-.589-.141-.531z" class="cls-24" transform="translate(-1878.006 -1670.578)"/>
            <path id="Path_6311" d="M2051.113 1719.03a4.437 4.437 0 0 1-4.114-.845c-.271-.219-.659.164-.389.389a5.018 5.018 0 0 0 4.649.989.276.276 0 1 0-.146-.533z" class="cls-24" transform="translate(-1900.476 -1676.581)"/>
            <path id="Path_6312" d="M2098.053 1718.507a8.7 8.7 0 0 0-3.835 3.171c-1.071 1.611-1.3 3.584-2.289 5.23a.275.275 0 0 0 .475.278c.9-1.489 1.137-3.248 1.994-4.752a8.181 8.181 0 0 1 3.933-3.451c.325-.139.044-.613-.278-.476z" class="cls-24" transform="translate(-1937.544 -1676.973)"/>
            <path id="Path_6313" d="M1711.4 1537.313a21.775 21.775 0 0 1-4.309.5.295.295 0 0 0-.54-.1c-.014.025-.033.049-.047.075a10.566 10.566 0 0 1-1.428-.178c-1.751-.348-3.433-.989-5.2-1.277a7.334 7.334 0 0 0-4.193.376 11.5 11.5 0 0 0-3.82 3.057 15.672 15.672 0 0 0-3.721 8.295c-.22 1.758.066 3.528-.145 5.281-.22 1.8-1.176 3.51-.91 5.353.387 2.691 2.663 4.154 5.146 4.755a11.753 11.753 0 0 0 1.659.279 4.964 4.964 0 0 0 3.9.635.288.288 0 0 0 .2-.351 15.5 15.5 0 0 1-1.145-4.672 21.64 21.64 0 0 1 .343-3.028 6.175 6.175 0 0 0 .014-1.414 14.609 14.609 0 0 0-.55-2.4c-.157-.537-.319-1.072-.453-1.614a9.208 9.208 0 0 1-.057-4.4 8.857 8.857 0 0 1 1.146-2.694 9.228 9.228 0 0 1 4.007-3.453 20.584 20.584 0 0 1 3.661-.951 3.326 3.326 0 0 0 1.806-.989 20.939 20.939 0 0 0 4.785-.535c.38-.071.217-.619-.149-.55z" class="cls-17" transform="translate(-1606.801 -1528.027)"/>
            <path id="Path_6314" d="M1890.137 1631.4c-2.483-.027-4.065 1.836-4.716 3.921-.11.078.192.692.254.813l-.066.24c-.091.343.452.439.542.095l.011-.041c1.19.682 1.965 2.142 2.867 3.126.447.488.914.958 1.4 1.405a3.628 3.628 0 0 0 1.447 1.042c1.066.227 1.521-1.3 1.758-2.049a8.458 8.458 0 0 0 .33-3.637c-.257-2.025-1.404-4.89-3.827-4.915z" class="cls-14" transform="translate(-1768.839 -1605.765)"/>
            <path id="Path_6315" d="M1905.432 1642.872a2.245 2.245 0 0 0-1.066 1.77c-.1 1.022.81 2.656-.1 3.445-.266.231.065.67.33.439 1.648-1.428-.879-3.971 1.166-5.215.309-.184-.03-.623-.33-.439z" class="cls-24" transform="translate(-1784.169 -1615.099)"/>
            <path id="Path_6316" d="M1913.354 1683.418a1.694 1.694 0 0 1-2 .614c-.33-.126-.55.379-.22.505a2.255 2.255 0 0 0 2.65-.781c.209-.287-.224-.626-.43-.338z" class="cls-24" transform="translate(-1789.73 -1648.157)"/>
            <path id="Path_6317" d="M1729.118 1569.78c-1.518-2.049-4.914-1.57-6.983-.734a9.591 9.591 0 0 0-1.83.981 11.094 11.094 0 0 0-4.065 5.568 10.908 10.908 0 0 0-.989 4.882 8.059 8.059 0 0 0 2.082 4.221l.036.035c.951.893 1.944-.33 2.406-1.176a5.5 5.5 0 0 0 .423-1.005 16.462 16.462 0 0 0 .51-3.576 9.718 9.718 0 0 1 .684-2.924 8.026 8.026 0 0 1 1.868-2.727 12.5 12.5 0 0 1 5.6-2.921.277.277 0 0 0 .5-.2.286.286 0 0 0-.246-.422z" class="cls-17" transform="translate(-1629.805 -1554.262)"/>
            <path id="Path_6318" d="M1777.838 1555.575a8.977 8.977 0 0 1-3.382 4.016c-.3.192-.021.669.278.475a9.47 9.47 0 0 0 3.578-4.213c.14-.322-.333-.602-.474-.278z" class="cls-26" transform="translate(-1678.091 -1543.728)"/>
            <path id="Path_6319" d="M1719.85 1619.977a21.636 21.636 0 0 1 .343-3.028 16.487 16.487 0 0 0 .51-3.576 9.705 9.705 0 0 1 .684-2.924 9.6 9.6 0 0 0-1.549 2.276q-.1.2-.181.407c-.556 1.318-.769 2.747-1.258 4.095a8.584 8.584 0 0 1-1.034 1.9c-1.071 1.57-2.373 3.022-2.132 4.958a11.8 11.8 0 0 0 1.659.279 4.964 4.964 0 0 0 3.9.635.288.288 0 0 0 .2-.353 15.508 15.508 0 0 1-1.146-4.672z" class="cls-26" transform="translate(-1629.785 -1588.658)"/>
            <path id="Path_6320" d="M1883.96 1565.785c-.166-.313-.642-.035-.475.278a10.217 10.217 0 0 1 .785 7.7.276.276 0 0 0 .531.146 10.782 10.782 0 0 0-.842-8.121z" class="cls-26" transform="translate(-1767.242 -1552.073)"/>
            <path id="Path_6321" d="M1875.122 1834.146a35.121 35.121 0 0 0-1.521-5.85c-.617-2.111-1.291-4.207-2.08-6.262a30.979 30.979 0 0 0-2.417-5.287 8.411 8.411 0 0 0-1.694-1.964 28.712 28.712 0 0 1-4.9-.225 18.87 18.87 0 0 1-2.269-.408c-.091.063-.183.123-.277.185q-2.637 1.763-5.262 3.477a20.846 20.846 0 0 0 2.072 6.174c1.189 2.105 3.444 2.637 5.7 2.455-.082.939-.5 1.68-.666 2.611a1.352 1.352 0 0 0 .49 1.438 9.992 9.992 0 0 0 2.233.825c1 .381 1.978.827 2.96 1.271a38.1 38.1 0 0 0 5.13 2.063c.918.269 2.669 1.039 2.501-.503z" class="cls-25" transform="translate(-1743.776 -1755.143)"/>
            <path id="Path_6322" d="M1967.752 1796.82c-.592-.019-1.184-.038-1.778-.064-1.606-.071-3.262-.068-4.859-.266-.266.192-.5.266-.778.439l-.365.22q-.578.33-1.192.631a28.4 28.4 0 0 1-3.736 2.151 8.4 8.4 0 0 0-.579 2.527 30.928 30.928 0 0 0 .341 5.8c.264 2.184.649 4.352 1.091 6.506a35.007 35.007 0 0 0 1.4 5.881c.572 1.441 1.758-.058 2.45-.728a38.263 38.263 0 0 0 3.568-4.223c.659-.849 1.318-1.7 2.021-2.508a10 10 0 0 0 1.587-1.773 1.351 1.351 0 0 0-.241-1.5c-.581-.746-1.3-1.208-1.81-2 2.076-.893 3.82-2.417 3.884-4.834a20.508 20.508 0 0 0-1-6.264z" class="cls-25" transform="translate(-1825.254 -1740.716)"/>
            <path id="Path_6323" d="M1899.469 1581.926c-.065-.347-.6-.2-.531.146a6.864 6.864 0 0 1-1.175 5.882c-.228.268.158.659.389.389a7.44 7.44 0 0 0 1.316-6.417z" class="cls-26" transform="translate(-1778.88 -1565.203)"/>
            <path id="Path_6324" d="M1714.885 1578.356a8.091 8.091 0 0 0-3.1 4.932c-.165 1.153-.18 2.307-.456 3.449a12.057 12.057 0 0 1-1.457 3.447.275.275 0 0 0 .474.278 13.018 13.018 0 0 0 1.84-5.7 8.187 8.187 0 0 1 .817-3.5 11.085 11.085 0 0 1 2.268-2.511c.266-.245-.124-.633-.386-.395z" class="cls-26" transform="translate(-1625.397 -1562.389)"/>
            <path id="Path_6325" d="M1487.365 1936.527c-.079.132-.164.26-.252.385-1.634 2.3-4.473 2.787-7.109 2.9-1.631.069-3.259.068-4.886.246-1.809.2-3.6.514-5.413.74-3.211.406-6.613.523-9.647-.779a5.054 5.054 0 0 1-2.918-3.009l.5-.247a4.191 4.191 0 0 0 2.327 2.615 12.914 12.914 0 0 0 5.1 1.133c3.5.14 6.937-.7 10.4-1.04 3.056-.307 6.62.284 9.408-1.28a5.49 5.49 0 0 0 1.965-1.868c.177.066.349.136.525.204z" class="cls-16" transform="translate(-1418.954 -1854.947)"/>
            <path id="Path_6326" d="M1876.6 1750.173a16.162 16.162 0 0 1-2.457 4.487.276.276 0 0 0 .433.34 16.625 16.625 0 0 0 2.527-4.608c.122-.332-.382-.553-.503-.219z" class="cls-24" transform="translate(-1759.592 -1702.727)"/>
            <path id="Path_6327" d="M2286.635 2031.208a21.218 21.218 0 0 1-6.426-9.79c-.11-.337-.636-.193-.531.146a21.752 21.752 0 0 0 6.568 10.033c.269.23.654-.158.389-.389z" class="cls-24" transform="translate(-2090.987 -1924.323)"/>
            <path id="Path_6328" d="M1640.791 2177.9c.453-.574.893-1.158 1.328-1.746a36.067 36.067 0 0 0 3.317-6.058c-.211-.4-.421-.794-.625-1.193l-2.575-5.022c-1.745-3.406-5.576-10.075-7.725-13.61a64.309 64.309 0 0 0-4.976 5.6c-.213.265 4.707 14.63 8.37 25.567q1.473-1.746 2.886-3.538z" class="cls-14" transform="translate(-1559.795 -2029.778)"/>
            <path id="Path_6329" d="M1560.03 2061.928l-.11.315-.187.539-6.134 17.688a1.822 1.822 0 0 1-1.8 1l-9.545-.556c-.784-.046-1.253-.568-1.045-1.167l6.432-18.54a1.822 1.822 0 0 1 1.8-1l9.545.549c.785.049 1.251.572 1.044 1.172z" class="cls-16" transform="translate(-1487.599 -1956.179)"/>
            <path id="Path_6330" d="M1577.973 2068.483l-.187.539c-3.059-.125-6.1-.558-9.164-.58-.63 0-1.318-.016-1.68.606a7.222 7.222 0 0 0-.477 1.288l-.809 2.384q-.922 2.724-1.847 5.447c-.11.335-.641.174-.524-.164l2.135-6.3c.3-.893.549-1.842.935-2.7a1.731 1.731 0 0 1 1.006-1.013 7.842 7.842 0 0 1 2.707-.06c1.071.049 2.14.136 3.209.225 1.562.137 3.129.273 4.696.328z" class="cls-27" transform="translate(-1505.659 -1962.411)"/>
            <path id="Path_6331" d="M1486.165 1880.473c-.167-.47-.356-1.349-.789-1.666-.41-.3-1.117-.188-1.589-.22a53.977 53.977 0 0 1-11.111-1.733c-2.68-.733-5.986-1.149-7.409 1.846a18.073 18.073 0 0 0-1.064 4.343 11.668 11.668 0 0 1-1.732 4.621c-.2.29.272.565.475.278a8.632 8.632 0 0 0 1.015-1.949c3.683 1.111 7.53.449 11.3.39 1.987-.032 3.976.046 5.964.005a17.868 17.868 0 0 0 2.584-.168c.9-.15 1.824-.849 2.723-.81a.274.274 0 0 0 .1-.015c.12.236.544.2.52-.11a18.615 18.615 0 0 0-.987-4.812z" class="cls-23" transform="translate(-1423.267 -1805.936)"/>
            <path id="Path_6332" d="M1751.769 1662.351a.227.227 0 0 0-.092-.191h-.007a.279.279 0 0 0-.048-.035 6.153 6.153 0 0 0-2.615-.891 9.227 9.227 0 0 0-3.06-.028 8.818 8.818 0 0 0-5.081 2.236 4.638 4.638 0 0 0-2.831.125 7.23 7.23 0 0 0-4.49-2.212 7.062 7.062 0 0 0-2.672.063 4.944 4.944 0 0 0-2.275.921.228.228 0 0 0-.043.035.241.241 0 0 0-.079.192 11.343 11.343 0 0 0 .212 6.372 3.781 3.781 0 0 0 3.469 2.791 5.657 5.657 0 0 0 4.615-1.947c1.173-1.428 1.452-3.785 1.421-5.69a4.123 4.123 0 0 1 2.466-.134c-.02 1.914.321 4.3 1.691 5.713a6.954 6.954 0 0 0 5.307 1.887 4.253 4.253 0 0 0 3.941-2.836 9.975 9.975 0 0 0 .17-6.373zm-15.259 6.943a5.194 5.194 0 0 1-4.089 1.894 3.748 3.748 0 0 1-2.138-.659 4.435 4.435 0 0 1-1.4-2.658 10.813 10.813 0 0 1 .052-5.144 5.278 5.278 0 0 1 2.593-.879 7.2 7.2 0 0 1 2.341.115 6.616 6.616 0 0 1 3.81 1.97.323.323 0 0 0 .036.129 8.936 8.936 0 0 1-1.2 5.231zm14.85-1.635a4.3 4.3 0 0 1-1.575 2.675 4.738 4.738 0 0 1-2.44.689 6.332 6.332 0 0 1-4.7-1.842c-1.193-1.345-1.461-3.581-1.434-5.31a7.949 7.949 0 0 1 4.378-2.058 9.408 9.408 0 0 1 2.678-.146 6.643 6.643 0 0 1 2.977.847 9.484 9.484 0 0 1 .116 5.146z" class="cls-4" transform="translate(-1640.355 -1630.01)"/>
            <path id="Path_6333" d="M1902.963 1795.642c0-.041.007-.084.006-.123l-.028.018a.278.278 0 0 0-.244-.17 4.112 4.112 0 0 0-2.14.373 7.3 7.3 0 0 1-2.733.391c-1.957.1-3.906.33-5.848.585-1.978.265-3.955.569-5.933.827a7.391 7.391 0 0 0-1.868.308c-.172-.1-.431-.023-.4.219l.008.072a.488.488 0 0 0-.022.473c-.211.155-.464.342-.526.385a32.6 32.6 0 0 0 1.615 3.083c.35.6.712 1.185 1.077 1.768 1.283 2.052 2.582 4.108 3.966 6.094 2.472 3.547 5.265 6.854 8.052 10.152.343.407.682.819 1.023 1.227 1.042-4.869 2.144-9.726 2.864-14.656a70.11 70.11 0 0 0 .686-7.115q.036-.8.049-1.595c.014-.689.364-1.584.4-2.3a.043.043 0 0 0-.004-.016z" class="cls-14" transform="translate(-1767.085 -1739.784)"/>
            <path id="Path_6334" d="M1303.531 2084.494a.276.276 0 0 0-.531.146c.74 2.58-2.274 4.065-3.668 5.7-.22.252-.421.511-.623.769a9.15 9.15 0 0 1-3.646-6.237 80.557 80.557 0 0 1-.805-8.52 2.644 2.644 0 0 0 .319-.1 27.773 27.773 0 0 0 3.054-1.691c.958-.522 2.862-1.962 3.933-1.233.293.2.569-.277.278-.475a2.324 2.324 0 0 0-2.391.142c-1.318.619-2.6 1.351-3.863 2.087a4.194 4.194 0 0 1-2.18.82c-.778-.011-1.546-.275-2.321-.343a9.873 9.873 0 0 0-3.014.233.277.277 0 0 1 .006-.027c.44-2.7.836-5.417 1.35-8.106.51-2.669 1.359-5.243 2.045-7.867a23.839 23.839 0 0 0-.577-14.941c-.126-.33-.659-.185-.531.146a23.839 23.839 0 0 1 .4 15.315c-.669 2.451-1.428 4.869-1.9 7.37-.494 2.637-.886 5.29-1.318 7.936a.281.281 0 0 0 .11.275c-.091.023-.182.046-.273.071a29.97 29.97 0 0 0-7.251 3.61 32.651 32.651 0 0 0-6.448 4.816c-.248.253.141.643.389.389a31.084 31.084 0 0 1 6.063-4.563 32.012 32.012 0 0 1 7.079-3.625 10.078 10.078 0 0 1 3.866-.478 18.529 18.529 0 0 0 2.627.323 64.069 64.069 0 0 0 .935 9.143 9.4 9.4 0 0 0 3.728 5.967c-.942 1.269-1.794 2.6-2.857 3.791a30.432 30.432 0 0 1-9.8 7.281c-.321.151-.042.625.278.475a30.836 30.836 0 0 0 10.493-8.034c1.538-1.83 2.672-3.973 4.481-5.562 1.466-1.287 3.182-2.85 2.563-5.003z" class="cls-16" transform="translate(-1268.984 -1943.543)"/>
            <path id="Path_6335" d="M1658.409 2000.417a24.376 24.376 0 0 0-3.26 12.366.276.276 0 0 0 .549 0 23.8 23.8 0 0 1 3.186-12.085.276.276 0 0 0-.476-.281z" class="cls-16" transform="translate(-1580.717 -1907.214)"/>
            <path id="Path_6336" d="M1427.359 2201.653c-.126-1.63-.266-3.76-1.572-4.924a3.462 3.462 0 0 0-.583-.42 4.5 4.5 0 0 0-3.494-.31.266.266 0 0 0-.184.33.22.22 0 0 0 .069.275 5.67 5.67 0 0 1 1.137 1.25 9.009 9.009 0 0 1 1.236 5.2c-.025 1.287-.187 2.567-.28 3.85-.019.252-.035.5-.053.754a14.111 14.111 0 0 1-.46 3.05.277.277 0 0 0 .337.337c2.736-.614 3.648-3.445 3.862-6.167a21.071 21.071 0 0 0-.015-3.228z" class="cls-16" transform="translate(-1389.758 -2066.952)"/>
            <path id="Path_6337" d="M1466.856 2091.168a3.5 3.5 0 0 1-1.067 1.216c.452 1.392-.4 2.7-1.6 3.768a.965.965 0 0 1 .1.309 2.947 2.947 0 0 1-1.109 2.508 10.086 10.086 0 0 1-3.012 1.538c-1.051.42-13.393 3.3-13.706 3.356-.365.28-9.182 6.868-10.858 8.279q-1.353 1.139-2.747 2.247c-1.208.961-2.453 1.894-3.735 2.78.019-.252.035-.5.053-.754.093-1.283.255-2.563.28-3.851a9.008 9.008 0 0 0-1.236-5.2l2.47-1.538c3.815-2.382 7.862-4.944 11.365-7.383a32.239 32.239 0 0 0 2.368-2.817c.871-1.188 1.482-2.554 2.38-3.716a37.316 37.316 0 0 1 6.549-4.845 28.2 28.2 0 0 1-.595 4.689 67.741 67.741 0 0 0 8.555-3.251 11.218 11.218 0 0 0 3.362-2.307c.46-.493 1.179-1.648 2.006-1.031.671.5.379 1.805.11 2.5a1.718 1.718 0 0 1 .321.411 3.533 3.533 0 0 1-.254 3.092z" class="cls-14" transform="translate(-1395.32 -1976.438)"/>
            <path id="Path_6338" d="M1718.785 2251.228a.263.263 0 0 1-.091-.048c-2.165-1.648-4.163-4.157-7.134-4.078a.276.276 0 0 1 0-.55c3-.079 5 2.259 7.178 3.972l.047.704z" class="cls-16" transform="translate(-1626.594 -2108.409)"/>
            <path id="Path_6339" d="M1698.677 2276.171c-.777 4.529-3.872 8.047-7.67 10.431-.3.188-.023.659.278.474 3.909-2.453 7.122-6.1 7.923-10.759.059-.346-.471-.494-.531-.146z" class="cls-16" transform="translate(-1609.915 -2132.458)"/>
            <path id="Path_6340" d="M1594.584 2088.106a3.977 3.977 0 0 0 .67-2.581c-.033-.349-.583-.353-.549 0 .205 2.188-1.605 3.626-3.229 4.741q-1.092.749-2.255 1.39a9.016 9.016 0 0 1-2.942 1.286c-.347.041-.352.591 0 .549a8.374 8.374 0 0 0 2.782-1.126 26.95 26.95 0 0 0 3.234-2.006 10.042 10.042 0 0 0 1.924-1.746c.769 1.917-1.886 4.087-3.262 5.039a17.36 17.36 0 0 1-5.85 2.367c-.344.084-.2.615.146.53a16.606 16.606 0 0 0 6.988-3.193 12.214 12.214 0 0 0 1.6-1.6c1.217 1.306-1.071 3.687-2.057 4.464a16.656 16.656 0 0 1-4.692 2.34c-.33.121-.188.653.146.531a14.663 14.663 0 0 0 5.81-3.275l.007.005c1.05.7-.405 2.307-.946 2.791a6.277 6.277 0 0 1-2.16 1.248c-.33.116-.189.648.146.531a6.589 6.589 0 0 0 3.22-2.291c.549-.769.962-2.028.1-2.692.925-1.12 1.958-2.966.761-4.1a2.929 2.929 0 0 0 .408-3.205z" class="cls-24" transform="translate(-1523.334 -1976.647)"/>
            <path id="Path_6341" d="M1635.582 2141.753c-1.9-2.133-2.03-5.023-1.858-7.734.023-.354-.527-.353-.549 0-.183 2.875.018 5.874 2.018 8.124.235.265.624-.126.389-.39z" class="cls-24" transform="translate(-1562.72 -2016.259)"/>
            <path id="Path_6342" d="M1364.626 2347.862a19.2 19.2 0 0 0-7.212 3.647c-2.177 1.714-3.489 4.342-4.949 6.642-.19.3.286.576.475.278 1.373-2.162 2.615-4.672 4.614-6.329a18.5 18.5 0 0 1 7.218-3.707c.345-.079.199-.609-.146-.531z" class="cls-16" transform="translate(-1333.342 -2191.187)"/>
            <path id="Path_6343" d="M1551.027 2334.773a17.6 17.6 0 0 0-7.55-3.171 44.783 44.783 0 0 0-9.338.033c-.353.019-.355.569 0 .549a44.323 44.323 0 0 1 9.192-.053 17.239 17.239 0 0 1 7.419 3.116c.286.21.561-.267.277-.474z" class="cls-16" transform="translate(-1481.641 -2177.694)"/>
            <path id="Path_6344" d="M1457.75 1637.315c-3.5-3.009-7.29-4.648-11.336-2.6a15.144 15.144 0 0 0-5.14 4.379 26.351 26.351 0 0 0-3.427 6.939 19.273 19.273 0 0 1-3.816 6.868c.149.256.354.313.349.6a2.863 2.863 0 0 1-.194.989c.9 1.355 3.067 1.3 4.452.521a17.03 17.03 0 0 0 3.348-2.8c1.08-1.059 2.111-2.168 3.135-3.281a66.11 66.11 0 0 1 6.661-6.62 88.28 88.28 0 0 0 7.283-5.97c.099-.1-1.201 1.075-1.315.975z" class="cls-16" transform="translate(-1400.071 -1607.732)"/>
            <path id="Path_6345" d="M1524.938 1662.674c-2.618-2.87-7.2-2.82-11.009-2.736-4.021.089-8.679.938-11.646 3.771-1.538 1.471-3.264 3.111-3.593 5.205-2.252 14.379 3.437 26.9 6.359 30.308 2.255 2.63 6.06 5.56 10.612 5.137a9.778 9.778 0 0 0 7.152-5.318 36.8 36.8 0 0 0 3.729-11.171c1.275-7.795 2.627-20.56-1.604-25.196z" class="cls-14" transform="translate(-1452.484 -1629.05)"/>
            <ellipse id="Ellipse_347" cx="2.338" cy="1.306" class="cls-16" rx="2.338" ry="1.306" transform="rotate(-78.924 63.09 -5.751)"/>
            <path id="Path_6346" d="M1629.936 1779.052c-.186 1.278-.915 2.23-1.629 2.126s-1.143-1.224-.957-2.5.915-2.23 1.629-2.126 1.141 1.223.957 2.5z" class="cls-16" transform="translate(-1557.968 -1724.407)"/>
            <path id="Path_6347" d="M1582.147 1846.891a.171.171 0 0 0-.125.008c-.085.034-.17.069-.257.1a16.147 16.147 0 0 1-7.823.854h-.005c-.064-.008-.11.02-.11.07-.011 1.822 2.188 3.331 4.377 3.186a4.124 4.124 0 0 0 2.756-1.208 5.9 5.9 0 0 0 1.247-2.9.11.11 0 0 0-.059-.118z" class="cls-4" transform="translate(-1514.284 -1781.875)"/>
            <path id="Path_6348" d="M1595.492 1796.685a.276.276 0 0 0-.531.146 21.985 21.985 0 0 1 1.066 4 2.073 2.073 0 0 1-.95 2.154 2.789 2.789 0 0 1-2.417.274c-.316-.156-.6.319-.278.476a3.2 3.2 0 0 0 3.955-1.318c.819-1.723-.351-4.056-.845-5.732z" class="cls-24" transform="translate(-1529.326 -1740.706)"/>
            <path id="Path_6349" d="M1549.867 1748.458a5.706 5.706 0 0 0-2.867-.066 6.793 6.793 0 0 0-3.241 1.034 3.555 3.555 0 0 0-.925 1.029.981.981 0 0 0 .623 1.347 3.817 3.817 0 0 0 1.428-.083c.6-.077 1.208-.173 1.813-.244 1.073-.127 2.2.042 3.261-.168 1.72-.343 1.316-2.319-.092-2.849z" class="cls-16" transform="translate(-1488.899 -1701.283)"/>
            <path id="Path_6350" d="M1619.262 1748.18c1.074.083 2.178-.22 3.259-.22.61 0 1.219.023 1.829.029a3.812 3.812 0 0 0 1.428-.085.981.981 0 0 0 .46-1.411 3.545 3.545 0 0 0-1.039-.912 6.791 6.791 0 0 0-3.341-.644 5.708 5.708 0 0 0-2.838.4c-1.34.698-1.508 2.708.242 2.843z" class="cls-16" transform="translate(-1550.355 -1698.572)"/>
            <path id="Path_6351" d="M1508.471 1653.168a.1.1 0 0 1 .052.01 4.119 4.119 0 0 0-.11-.421 25.654 25.654 0 0 0-1.907-7.638q-.945.025-1.889.055a12.2 12.2 0 0 0-3.392-2.874 12.516 12.516 0 0 0-4.2-1.31 23.764 23.764 0 0 0-4.262-.282 15.3 15.3 0 0 0-8.027 2.417 19.007 19.007 0 0 0-4.931 4.514c-.265.058-.528.116-.793.178a4.166 4.166 0 0 1-.776.1c.173-.81.4-1.594.587-2.287.092-.338-.42-.542-.513-.2a18.321 18.321 0 0 0-.879 5.01 13.654 13.654 0 0 0-.188 1.868 3.486 3.486 0 0 0-.643-.769c-.088-.079-.2.07-.11.148a3.266 3.266 0 0 1 .746.979c0 .21 0 .419.017.627-.1.32-.191.639-.291.957a8.745 8.745 0 0 0-1.491 1.642 7.745 7.745 0 0 0-1.237 3.626 7.483 7.483 0 0 0 .464 6.746 2.432 2.432 0 0 0 3.656.446c.607.265 1.169.587 1.88.207a5.022 5.022 0 0 0 1.818-2.637 13.387 13.387 0 0 0 .826-2.983 17.085 17.085 0 0 1 2.094-4.115l.01-.013a3.337 3.337 0 0 0 2.96.825 3.1 3.1 0 0 0 1.455-.708c.274-.245.468-.556.722-.818a1.933 1.933 0 0 1 2.293-.267c.687.3 1.291.756 2 1a6.153 6.153 0 0 0 2.46.022c1.006-.05 1.617.55 2.5.9a4.453 4.453 0 0 0 .439.144 4.343 4.343 0 0 0 2.007.349 3.127 3.127 0 0 0 1.417-.44 4.163 4.163 0 0 0 .491-.3 3.788 3.788 0 0 1 1.383-.722c.631-.1 1.105.262 1.684.391a2.05 2.05 0 0 0 2.364-1.734 3.569 3.569 0 0 0-.687-2.642zm-31.177.6l.021.2c-.035.027-.071.055-.11.082.032-.095.06-.189.089-.283z" class="cls-16" transform="translate(-1432.454 -1613.361)"/>
            <path id="Path_6352" d="M1485.647 1784.006a.3.3 0 0 0-.372.016c-1.625-.939-3.769-.909-4.78.879-1.19 2.106.268 4.87 1.873 6.449a3.036 3.036 0 0 0 2.683 1.034 2.967 2.967 0 0 0 1.935-2.1c.663-1.853.571-5.027-1.339-6.278z" class="cls-14" transform="translate(-1437.668 -1730.018)"/>
            <path id="Path_6353" d="M1491.927 1797.371c-1.819.5-1.447-1.738-1.781-2.791a3.049 3.049 0 0 0-1.461-1.73.276.276 0 0 0-.278.475 2.508 2.508 0 0 1 1.325 1.978 5.279 5.279 0 0 0 .245 1.7 1.738 1.738 0 0 0 2.1.9.276.276 0 1 0-.147-.532z" class="cls-24" transform="translate(-1444.375 -1737.7)"/>
            <path id="Path_6354" d="M1508.451 1683.537c-1.6-.11-1.333-2.739-1.244-3.83a12.688 12.688 0 0 1 1-3.955c.138-.322-.336-.6-.474-.278a13.317 13.317 0 0 0-1.118 5.542c.029 1.282.254 2.966 1.833 3.076.352.016.352-.533.003-.555z" class="cls-27" transform="translate(-1459.363 -1641.635)"/>
            <path id="Path_6355" d="M1631.97 1649.15a.276.276 0 0 0-.278.475 10.013 10.013 0 0 1 4.5 12.2c-.121.33.411.477.531.146a10.562 10.562 0 0 0-4.753-12.821z" class="cls-27" transform="translate(-1561.445 -1620.23)"/>
            <path id="Path_6356" d="M1464.284 1805.935a5.518 5.518 0 0 1-1.978-6.341c.11-.336-.417-.48-.531-.146a6.068 6.068 0 0 0 2.227 6.962c.291.209.565-.269.282-.475z" class="cls-27" transform="translate(-1422.454 -1742.966)"/>
            <path id="Path_6357" d="M1448.564 1829.624a3.186 3.186 0 0 1-3.639-2.624c-.066-.347-.6-.2-.531.146a3.708 3.708 0 0 0 4.175 3.028c.337-.044.346-.596-.005-.55z" class="cls-27" transform="translate(-1408.446 -1765.469)"/>
            <path id="Path_6358" d="M1638.523 1686.394a.276.276 0 0 0-.531.146 6.493 6.493 0 0 1-.918 5.6c-.2.291.275.567.475.278a7.032 7.032 0 0 0 .974-6.024z" class="cls-27" transform="translate(-1565.909 -1650.517)"/>
            <path id="Path_6359" d="M1506.486 2406.356q-1.958 8.939-3.186 18.018c-.046.346.483.5.531.146q1.224-9.069 3.186-18.018c.07-.345-.459-.492-.531-.146z" class="cls-22" transform="translate(-1456.652 -2238.837)"/>
            <path id="Path_6360" d="M1502.916 2544.64a13.744 13.744 0 0 0-8.108 4.714c-.225.269.161.659.389.389a13.274 13.274 0 0 1 7.865-4.573c.348-.063.204-.593-.146-.53z" class="cls-22" transform="translate(-1449.663 -2352.004)"/>
            <path id="Path_6361" d="M1503.688 2573.566a7.151 7.151 0 0 0-1.538 2.239c-.139.321.33.6.475.277a6.754 6.754 0 0 1 1.457-2.128c.248-.248-.141-.637-.394-.388z" class="cls-22" transform="translate(-1455.691 -2375.563)"/>
            <path id="Path_6362" d="M1965.77 1951.284c.25 3.371.33 6.752.33 10.13.009 6.655-.242 13.316.121 19.967a85.465 85.465 0 0 0 1.066 9.715c.549 3.231 1.236 6.437 1.688 9.684.375 2.7.614 5.41.769 8.13h.034a1 1 0 0 1 .528.219c-.1-1.8-.236-3.589-.423-5.383-.682-6.539-2.362-12.919-2.914-19.477-.557-6.627-.373-13.284-.33-19.926a192.992 192.992 0 0 0-.9-19.5c-.488-5.218-.891-10.556-.082-15.73a1.433 1.433 0 0 1-.517-.255 54.772 54.772 0 0 0-.206 13.074c.251 3.114.603 6.228.836 9.352z" class="cls-27" transform="translate(-1833.584 -1848.936)"/>
            <path id="Path_6363" d="M1901.216 1821.469a21.173 21.173 0 0 1-5.637.063 18.564 18.564 0 0 1-3.539-.721c.351.6.712 1.184 1.077 1.768 1.283 2.052 2.582 4.108 3.966 6.094 2.472 3.547 5.265 6.854 8.052 10.152.343.408.682.818 1.023 1.227 1.042-4.869 2.144-9.726 2.864-14.656a69.966 69.966 0 0 0 .686-7.115 21.224 21.224 0 0 1-8.491 3.188z" class="cls-4" transform="translate(-1774.281 -1758.518)"/>
            <path id="Path_6364" d="M1781.571 1972.76c-.115-.33-.647-.189-.531.146a59.436 59.436 0 0 1 3.208 22.845c-.02.354.531.353.549 0a59.851 59.851 0 0 0-3.226-22.991z" class="cls-27" transform="translate(-1683.56 -1884.582)"/>
            <path id="Path_6365" d="M2156.656 1924.631a68.235 68.235 0 0 1-8.062-19.921c-.079-.345-.61-.2-.531.146a68.721 68.721 0 0 0 8.118 20.052.276.276 0 0 0 .474-.278z" class="cls-27" transform="translate(-1983.439 -1828.973)"/>
            <path id="Path_6366" d="M1869.658 1614.451c-1.318-3.193-13.953 7.969-15.391 9.2-.269.231.121.619.389.389 2.24-1.919 4.494-3.827 6.847-5.6 1.08-.817 2.176-1.622 3.311-2.363a14.113 14.113 0 0 1 1.665-.959c.3-.141 2.425-1.061 2.649-.515.134.314.665.178.53-.152z" class="cls-4" transform="translate(-1743.341 -1591.457)"/>
            <path id="Path_6367" fill="#56acc4" d="M2056.656 2005.947a19.637 19.637 0 0 1-7.929 2.593 16.515 16.515 0 0 1-8.263-1.008c-2.679-1.236-3.087-4.868-3.654-7.432-.667-3.017-1.208-6.061-1.8-9.094l-.68-3.53a28.791 28.791 0 0 0 9.408-.371 28.2 28.2 0 0 0 4.886-1.489q1.07-.439 2.1-.955c.408-.205 1.05-.382 1.235-.837a.279.279 0 0 0-.126-.311l-.07-.047a.276.276 0 0 0-.33.043l-.045.05a.263.263 0 0 0-.065.244 10.461 10.461 0 0 1-1.59.735q-1.125.528-2.3.95a28.339 28.339 0 0 1-4.156 1.151 28 28 0 0 1-9.056.276l-1.152-5.978a30.731 30.731 0 0 0 17.348-2.682c.32-.152.041-.626-.278-.475a30.084 30.084 0 0 1-17.339 2.567.279.279 0 0 0-.338.339c1.289 6.689 2.417 13.436 3.929 20.078.563 2.475 1.032 5.8 3.516 7.113a15.914 15.914 0 0 0 8.051 1.277 20.234 20.234 0 0 0 8.968-2.729.276.276 0 0 0-.278-.477z" transform="translate(-1889.021 -1888.822)"/>
            <path id="Path_6368" d="M2087.285 1853.81c.4 3.319.286 7.141.373 10.478.267-.369.885-1.219 1.143-1.593a25.2 25.2 0 0 0 2.276-4.076 25.815 25.815 0 0 0 1.072-5.178 107.593 107.593 0 0 0-3.222-16.124c-1.722-6.12-4.188-12-5.75-18.163-1.457-5.755-2.425-11.616-3.654-17.42a80.062 80.062 0 0 0-5.071-16.631c-.272-.6-.559-1.192-.855-1.781.046-.793-1.222-.866-1.792-.889a6.086 6.086 0 0 0-3.171.762.089.089 0 0 0-.01.149 70.382 70.382 0 0 1 5.584 16.615c1.292 5.764 2.241 11.6 3.587 17.351.684 2.924 1.489 5.811 2.446 8.656 1.034 3.076 2.167 6.114 3.117 9.217a107.452 107.452 0 0 1 3.928 18.626z" class="cls-15" transform="translate(-1918.539 -1729.282)"/>
            <ellipse id="Ellipse_348" cx="1.513" cy="1.605" class="cls-16" rx="1.513" ry="1.605" transform="translate(132.173 88.626)"/>
            <ellipse id="Ellipse_349" cx="1.513" cy="1.605" class="cls-16" rx="1.513" ry="1.605" transform="translate(134.094 108.846)"/>
            <ellipse id="Ellipse_350" cx="1.513" cy="1.605" class="cls-16" rx="1.513" ry="1.605" transform="translate(134.917 130.072)"/>
            <ellipse id="Ellipse_351" cx="1.513" cy="1.605" class="cls-16" rx="1.513" ry="1.605" transform="translate(137.526 150.612)"/>
            <path id="Path_6369" d="M1782.768 2233.652a10.853 10.853 0 0 1-3.381 3.12.275.275 0 1 0 .278.475 11.5 11.5 0 0 0 3.577-3.318c.204-.29-.273-.566-.474-.277z" class="cls-16" transform="translate(-1682.115 -2097.771)"/>
            <path id="Path_6370" d="M1781.537 2284.182a6.99 6.99 0 0 1-3.616 2.779c-.33.11-.19.645.146.531a7.605 7.605 0 0 0 3.944-3.031c.197-.296-.28-.576-.474-.279z" class="cls-16" transform="translate(-1680.87 -2139.052)"/>
            <path id="Path_6371" d="M2007.737 2520.631a52.219 52.219 0 0 0-1.8 13.531.276.276 0 0 0 .549 0 51.635 51.635 0 0 1 1.775-13.385.276.276 0 0 0-.529-.146z" class="cls-19" transform="translate(-1867.319 -2332.243)"/>
            <path id="Path_6372" d="M2024.762 2572.308a31.9 31.9 0 0 1-.244-10.876c.052-.346-.478-.5-.531-.146a32.7 32.7 0 0 0 .244 11.169c.069.345.598.198.531-.147z" class="cls-19" transform="translate(-1881.761 -2365.437)"/>
        </g>
    </g>
</svg>
