<svg xmlns="http://www.w3.org/2000/svg" width="273" height="245" viewBox="0 0 273 245">
    <defs>
        <clipPath id="clip-path">
            <path id="Rectangle_2246" d="M0 0H273V245H0z" transform="translate(.283)"/>
        </clipPath>
        <style>
            .cls-2{fill:#b56b5b}.cls-4{fill:#854639}.cls-5{fill:#403f4f}.cls-6{fill:#6d6461}.cls-7{fill:#514744}.cls-10{fill:#f4b443}.cls-11{fill:#d49322}.cls-13{fill:#fff}.cls-14{fill:#4f3120}.cls-15{fill:#373644}.cls-16{fill:#262530}.cls-17{fill:#e9edf5}
        </style>
    </defs>
    <g id="Screen_2" clip-path="url(#clip-path)" transform="translate(-.283)">
        <g id="Group_1855" transform="translate(52.143 11.937)">
            <g id="Group_1693" transform="translate(0 14.628)">
                <path id="Path_6426" d="M284.507 646.127l-.1.094-38.793-24.474-6.844 8.769s38 39.668 45.615 40.387c.715-8.243 1.154-16.585.122-24.776z" class="cls-2" transform="translate(-224.556 -526.968)"/>
                <path id="Path_6427" d="M375.728 587.617c-3.681 3.041-23.536 31.926-25.327 33.88 1.546 8.109 1.506 16 1.3 24.28.151 0 .619.186.743.161 6.426-1.259 19.8-15.173 25.151-22.445s16.324-42.693 16.324-42.693-12.872 2.424-18.191 6.817z" class="cls-2" transform="translate(-292.622 -501.998)"/>
                <path id="Path_6428" d="M210.358 548.634l-2.739-18.071a1.505 1.505 0 0 0-1.758 1.18c-1.053 5.685-3.21 10.576-3.487 13.117-.231 2.126 2.011 11.171 4.018 15.558a6.518 6.518 0 0 0 .713 1.162c1.257-3.537 4.665-5.005 5.193-8.779-.665-.313-1.94-4.167-1.94-4.167z" class="cls-2" transform="translate(-202.358 -471.361)"/>
                <path id="Path_6429" d="M238.843 586.426s-1.168-5.653-1.36-7.544c-.415-4.083-4.755-7.828-5.472-8.718l-1.145-5.738a24.323 24.323 0 0 0-1.222-4.956c-1.1-2.341-2.624-1.69-2.624-1.69l.769 10.117c-.424.937-.912 1.36-1.389 1.493 1.648 5.933 6.4 15.986 12.443 17.036z" class="cls-2" transform="translate(-217.014 -487.914)"/>
                <path id="Path_6430" d="M229.889 600.579l-.989-2.8c-5.369-2.974-9.211-8.442-8.821-14.588a1.522 1.522 0 0 1-.928-.423 57.008 57.008 0 0 1-5.517 9.976c1.839 5.164 9.937 14.014 9.937 14.014 4.26-.106 6.318-6.179 6.318-6.179z" class="cls-2" transform="translate(-209.233 -503.201)"/>
                <path id="Path_6431" fill="#50639e" d="M214.544 496.942l5.393 33.536s-.379 1.36-1.4 1.464c-1.083.11-1.648.447-2.5-1.17s-5.1-33.883-5.1-33.883a1.648 1.648 0 0 1 2.14-1.45 1.879 1.879 0 0 1 1.472 1.5z" transform="translate(-207.583 -449.934)"/>
                <path id="Path_6432" d="M215.3 563.151a83.277 83.277 0 0 0 3.449-12.289c.213-1.389.855-5.2.3-6.144-.6-1.028-1.408-1.235-1.978-.678-.22.22-.641 3.432-1.283 6.851a48.583 48.583 0 0 0-.488 12.26z" class="cls-2" transform="translate(-210.137 -479.404)"/>
                <path id="Path_6433" d="M206.83 562.009c.32-.776.713-1.672 1.015-2.451.624-1.605 1.37-3.467 2.1-5.025.089-.19-.183-.358-.419.065a43.053 43.053 0 0 0-2.087 4.567c-.6 1.448-2.111 4.175-2.685 6.085-.046.154.263.33.337.135.292-.785 1.438-2.645 1.739-3.376z" class="cls-4" transform="translate(-203.812 -485.863)"/>
                <path id="Path_6434" d="M203.126 554.2a45.456 45.456 0 0 0 2.112-6.416c.627-1.978 1.266-4.43 2.93-5.8.129-.11.027-.344-.143-.271-1.878.791-2.548 3.441-3.141 5.189-.4 1.182-.769 2.376-1.138 3.567a23.319 23.319 0 0 0-.989 3.626.193.193 0 0 0 .369.105z" class="cls-4" transform="translate(-202.6 -478.162)"/>
                <path id="Path_6435" d="M432.614 573.937s-11.3 31.621-13.862 44.276c-2.307 11.41 6.506 50.405 2.307 62.168-6.846 19.179 54.263 13.177 54.164.746-.074-9.14 2.4-18.8 3.613-33.778 1.278-15.814 18.457-44.585 19.469-59.321.567-8.27-23.867-15.1-28.165-18.261-4.604-3.388-27.785 1.124-37.526 4.17z" class="cls-2" transform="translate(-334.058 -494.54)"/>
                <path id="Path_6436" d="M229.511 593.439c-1.032-3.092-4.949-4.724-7.728-5.758a.335.335 0 1 0-.255.62 22.157 22.157 0 0 1 4.206 2.18 18.912 18.912 0 0 1 3.3 3.227.278.278 0 0 0 .481-.268z" class="cls-4" transform="translate(-213.922 -506.183)"/>
                <path id="Path_6437" d="M499.349 425.095c-4.585-9.084 4.544-11.99-11.473-23.841-10.631-7.865-19.578-8.679-26.653-5.646-13.773 5.915-18.175 13.61-18.741 19.431s-4.027 17.509-6.4 23.611c-2.321 5.973 1.406 15.611 1.406 15.611l34.368 5.31c.032.062.065.122.1.18a4.691 4.691 0 0 0 3.271 1.845 13.5 13.5 0 0 0 4.859.077 10.89 10.89 0 0 1 3.014-.29c.439.073.36.092.738.458a4.521 4.521 0 0 0 1.844 1.208 4.443 4.443 0 0 0 2.329-.054 4.137 4.137 0 0 1 .879-.137 11.806 11.806 0 0 0 3.281 1.555 4.11 4.11 0 0 0 3.51-1.655s6.447-1.1 3.626-14.086c-2.155-9.943 7.268-9.272.042-23.577z" class="cls-5" transform="translate(-344.402 -388.085)"/>
                <path id="Path_6438" d="M472.328 845.16c-.879.97-10.17.429-15.521 2.072l-.592.179c-.439.13-.879.257-1.341.381q-.526.149-1.076.288a98.424 98.424 0 0 1-33.266 2.441 65.874 65.874 0 0 1-14.044-2.547q-.374-.119-.732-.245c-7.2-2.5-12.357-1.318-12.036-6.372 1.74-27.377 5-27.825 5.392-28.895s8.266 10.086 32.135 9.755 29.647-7.555 33.016-8.526c-.001.009 12.818 26.209 8.065 31.469z" class="cls-6" transform="translate(-319.025 -643.209)"/>
                <path id="Path_6439" d="M414.636 836.88c-1.022 3.864-1.729 7.8-2.452 11.725-.338 1.84-.659 3.685-.893 5.541-.23 1.778-.676 3.969-.147 5.72a.2.2 0 0 0 .386 0 38.2 38.2 0 0 0 .58-5.525c.252-1.978.62-3.935.958-5.9.659-3.819 1.348-7.63 1.94-11.46.033-.234-.303-.341-.372-.101z" class="cls-7" transform="translate(-329.51 -658.056)"/>
                <path id="Path_6440" d="M431.279 623.8c.089-.22.33-1.555.22-1.344a108.315 108.315 0 0 0-5.959 15.687c-.093.5-.133 1.024.248 1.027.292-.813 3.705-11.024 5.491-15.37z" class="cls-4" transform="translate(-338.397 -527.384)"/>
                <path id="Path_6441" d="M425.948 883.956a47.2 47.2 0 0 1-.635 7.509q-.374-.119-.732-.245a46.671 46.671 0 0 1 .9-7.327.24.24 0 0 1 .468.063z" class="cls-7" transform="translate(-337.85 -686.7)"/>
                <path id="Path_6442" d="M429.29 860.691c-.035-.256-.405-.207-.47 0a14.1 14.1 0 0 0-.37 2.649c-.11.989-.22 1.978-.355 2.966-.035.266.412.324.469.064a17.431 17.431 0 0 0 .726-5.679z" class="cls-7" transform="translate(-339.991 -672.55)"/>
                <path id="Path_6443" d="M432.034 841.879a.239.239 0 0 0-.468-.064 32.406 32.406 0 0 0-.889 5.068c-.052.33.42.48.513.142a15.639 15.639 0 0 0 .844-5.146z" class="cls-7" transform="translate(-341.566 -661.044)"/>
                <path id="Path_6444" d="M520.753 869.108c-.35.1-.71.195-1.076.288-.063-2.933 0-5.878-.142-8.806-.031-.639-.065-1.277-.1-1.916a10.86 10.86 0 0 1-3.932-.424 21.284 21.284 0 0 1-4.541-1.79 81.3 81.3 0 0 1-9.089-6.082c-.278-.2-.007-.637.284-.45 2.8 1.781 5.6 3.626 8.513 5.234a21.618 21.618 0 0 0 4.791 2.013 24.066 24.066 0 0 0 3.911.53q-.329-4.979-1.006-9.927c-.059-.439.6-.609.68-.163.572 3.388 1.438 12.021 1.474 12.616a85.556 85.556 0 0 1 .234 8.878z" class="cls-7" transform="translate(-384.904 -664.525)"/>
                <path id="Path_6445" d="M551.751 867.674a52.372 52.372 0 0 0-.077-10.151 69.616 69.616 0 0 0-1.929-11.484.165.165 0 0 0-.319.086 92.064 92.064 0 0 1 1.591 11.583c.243 3.39.087 6.762.142 10.145z" class="cls-7" transform="translate(-413.969 -663.651)"/>
                <path id="Path_6446" fill="#2e2c2b" d="M422.092 827.544s12.635 3.626 29.436.1 18.934-7.1 18.934-7.1l-1.692-6.744s-26.28 11.856-41.809 8.091-23.339-9.32-23.339-9.32l-2.52 5.787s7.749 6.124 10.225 6.906 8.24 9.888 11.6 13.88a69.892 69.892 0 0 0 6.586 6.583 2.394 2.394 0 0 0 3.615-.506l1.241-1.961a2.392 2.392 0 0 0-.359-3c-3.01-2.896-9.948-9.724-11.918-12.716z" transform="translate(-323.536 -643.323)"/>
                <path id="Path_6447" d="M480.209 844.78v-8.036l3.21.11-.275 8.274z" class="cls-6" transform="translate(-371.769 -658.056)"/>
                <path id="Path_6448" d="M547.4 823.126l2.185 9.644 2.87-1.318-2.775-9.252z" class="cls-6" transform="translate(-412.738 -649.19)"/>
                <path id="Path_6449" fill="#c2c3c4" d="M416.657 825.64a7.362 7.362 0 0 0-.423 4.1 20.39 20.39 0 0 0 2.585 1.293c.989.394 1.538.481 2.532.829.526.185.669-.213.123-.475-.98-.469-1.581-.769-2.561-1.234a15.345 15.345 0 0 1-1.428-.629 4.113 4.113 0 0 1 .379-2.822 26.549 26.549 0 0 0 4.346 1.723c.264.078.311-.209.042-.357-.849-.469-1.688-.922-2.553-1.344-.38-.186-1.163-.531-1.547-.711a2.946 2.946 0 0 1 1.555-1.86c.666.317 1.362.549 2.027.8a20.06 20.06 0 0 0 2.307.8c.337.1.427-.157.116-.343a18.709 18.709 0 0 0-2.349-1.185 14.032 14.032 0 0 0-2.887-1.1 4.338 4.338 0 0 0-2.264 2.5z" transform="translate(-332.68 -649.756)"/>
                <path id="Path_6450" d="M481.894 622.326s-17.462 6.466-19.712-8.606c-1.259-8.446 13.441-27.458 16.707-30.284l-2.5-1.253-10.83 15.017a34.719 34.719 0 0 0-2.753 2.663c-1.1 1.143-2.2 2.273-3.346 3.369-1.268 1.208-2.532 2.417-3.822 3.6l-25.545 17.042-6.373-17.074c-.08-.634-1.139-3.214-1.179-3.852-.22-3.564.989-5.194 1.856-8.663l5.636-16.3-2.618.879-8.582 22.684s-12.3 10.877-12.771 19.645c-.148 2.747-.146 15.87.011 21.157.066 2.219.17 10.689.17 10.689s-.94 6.069-1.184 7.726c-.854 5.812-.879 7.227.617 8.772 12.608 13.012 41.917 13.623 65.15 1.229.7-.371 1.934-3.076 2.63-12.259.11-1.5.279-3.031.483-4.584a29.182 29.182 0 0 1 1.442-4.494 39.657 39.657 0 0 0 1.831-4.644 28.385 28.385 0 0 0 .5-5.2 13.265 13.265 0 0 1 1.239-3.92 13.744 13.744 0 0 0 1.233-4.331 15.842 15.842 0 0 0-.067-2.036 4.141 4.141 0 0 1 .192-1.868 11.434 11.434 0 0 0 .43-1.852c.261-.85 1.155-3.252 1.155-3.252z" class="cls-10" transform="translate(-325.591 -500.289)"/>
                <path id="Path_6451" d="M546.872 648.66c-3.481 5.027-5.8 12.763-.769 17.018 5.133 4.491 12.926 4.724 19.3 2.023.29-.887 1.079-3.017 1.079-3.017s-17.462 6.466-19.708-8.6c-.338-2.269.476-5.3 1.909-8.57-.17-.021-.342-.033-.513-.043a3.7 3.7 0 0 0-1.298 1.189z" class="cls-11" transform="translate(-410.171 -542.646)"/>
                <path id="Path_6452" d="M501.444 583.435l-2.613-1.252L488 597.2a34.744 34.744 0 0 0-2.754 2.663c-1.1 1.143-2.2 2.273-3.346 3.369-1.268 1.208-2.532 2.417-3.822 3.6l-25.549 17.048-6.372-17.08c-.08-.634-1.139-3.214-1.179-3.852-.22-3.564.989-5.194 1.856-8.663l5.636-16.3-2.564.738-8.635 22.827s6.973 20.26 9.509 25.928c6.575-3.672 11.426-8.1 18.386-11.39 4.254-2.127 8.679-6.243 12.47-8.937 1.284-.914 2.661-2.151 4.386-2.058a4.392 4.392 0 0 1 .665-.3c3.964-8.835 12.4-19.321 14.757-21.358z" class="cls-11" transform="translate(-348.025 -500.289)"/>
                <path id="Path_6453" fill="#c47b57" d="M556.594 646.7a4.416 4.416 0 0 0-.665.3c.171.01.343.022.513.043.05-.123.101-.233.152-.343z" transform="translate(-417.937 -542.179)"/>
                <path id="Path_6454" d="M465.924 782.61a41.7 41.7 0 0 0-3.735-5.241q-1.971-2.7-3.807-5.535c-2.407-3.709-4.741-7.481-6.892-11.394-.259-.47-.783-.083-.559.4a105.956 105.956 0 0 0 6.578 12.16q1.751 2.747 3.625 5.384a25.714 25.714 0 0 0 4.124 5.08c.494.398.942-.323.666-.854z" class="cls-11" transform="translate(-353.885 -611.4)"/>
                <path id="Path_6455" d="M507.637 813.407a15.4 15.4 0 0 0-3.153-1.758q-1.668-.893-3.206-1.9a57.654 57.654 0 0 1-5.739-4.175c-.213-.18-.709.18-.527.375a30.8 30.8 0 0 0 5.419 4.682q1.466.981 3.049 1.868a10.95 10.95 0 0 0 3.516 1.559c.431.078.872-.44.641-.651z" class="cls-11" transform="translate(-380.773 -639.024)"/>
                <path id="Path_6456" d="M490.415 533.886l-.859 10.636c1.032.515 14.361 1.176 18.516-2.307s4.553-22.074 5.321-25.67-21.593 9.788-22.978 17.341z" class="cls-2" transform="translate(-377.468 -462.458)"/>
                <path id="Path_6457" d="M489.223 445.428c-2.769 6.124-10.4 13.673-15.769 16.356s-14.51 3.858-17.613 2.014c-2.5-1.488-6.871-14.8-7.783-21.678-.659-4.976.821-7.762.736-11.034a19.442 19.442 0 0 1 .176-2.47 32.885 32.885 0 0 0 .468-3.355c.1-3.821 2.829-11.889 2.829-11.889 15.1-27.174 42.18-10.051 44.972 3.523 2.561 12.42-5.25 22.412-8.016 28.533z" class="cls-2" transform="translate(-352.062 -391.125)"/>
                <path id="Path_6458" d="M498.386 551.912c-3.443 2.078-8.927 5.393-12.977 5.8a11.767 11.767 0 0 0 2.371-.04c4.065-1.334 7.132-1.78 10.166-4.48.154-.141.618-1.392.44-1.28z" class="cls-4" transform="translate(-374.912 -484.384)"/>
                <path id="Path_6459" d="M502.73 576.707a84.765 84.765 0 0 1-5.145 11.167 38.126 38.126 0 0 1-7.923 9.448c-3.122 2.628-7.125 5.067-11.384 4.378a7.422 7.422 0 0 1-5-2.94 11.988 11.988 0 0 1-1.641-6.147 49.439 49.439 0 0 1 1.912-16.29c.119-.423-.5-.575-.647-.178a40.914 40.914 0 0 0-2.565 15.556c.11 4.385 1.016 8.924 5.439 10.858 8.679 3.795 17.306-4.99 21.669-11.525a42.268 42.268 0 0 0 3.625-6.741 31.97 31.97 0 0 0 2.365-7.3c.055-.379-.522-.715-.705-.286z" class="cls-10" transform="translate(-365.737 -499.025)"/>
                <path id="Path_6460" d="M487.694 430.519c1.414-7.782 3.121-18.766 2.315-22.719-1.3-6.372-11.11-14.432-24.616-14.453-9.869-.015-15.179 5.39-20.57 11.415a24.374 24.374 0 0 0-5.274 11.194 3.709 3.709 0 0 0-1.329 1.346 5.486 5.486 0 0 0-.7 2.945 4.793 4.793 0 0 0 .276 1.528c.016.041.037.08.057.12a13.973 13.973 0 0 0-3.831 6.46 19.266 19.266 0 0 0-.587 4.3 8.064 8.064 0 0 1-.16 1.4 2.518 2.518 0 0 1-.426 1.082 14.774 14.774 0 0 0-1.461 1.741 5.554 5.554 0 0 0-.667 2.279 9.7 9.7 0 0 0 .7 4.058 6.9 6.9 0 0 1 .459 1.8 15.323 15.323 0 0 1-.213 2.087c-.151 1.826 1.032 6.077 2.843 6.738 1.4.511 1.964-3.346 2.108-4.563a10.464 10.464 0 0 0-.068-1.551 13.233 13.233 0 0 1 .193-1.84 9.568 9.568 0 0 0-.616-4.142A12.786 12.786 0 0 1 435.6 440c.01.023-.037-.363-.037-.422 0-.1.066-.387.05-.4a9.215 9.215 0 0 1 .689-.812 6.875 6.875 0 0 0 1.159-2.008c.817-2.172.4-4.587.815-6.835.422-2.272 1.473-4.472 1.635-6.776a.659.659 0 0 0 .033-.43.241.241 0 0 0-.013-.06.478.478 0 0 1 0-.089.845.845 0 0 0-.043-.26c-.007-.277.029-.564.022-.837a3.151 3.151 0 0 1 .183-1.168 2.706 2.706 0 0 1 .694-1.075q.282-.133.569-.28a23.313 23.313 0 0 1 2.507.146 4.4 4.4 0 0 0 2.831-1.171c1.428-1.318 2.218-3.266 3.3-4.855l.047-.067a41.193 41.193 0 0 1 5.324 2.154 9.245 9.245 0 0 0 2.989 5.281 9.138 9.138 0 0 0 3.048 1.738 5.841 5.841 0 0 1 2.977 1.562 12.708 12.708 0 0 0 2.212 2.682 11.925 11.925 0 0 0 3.761 1.5c2.807.854 2.487.3 5.383.728.634.093 2.574 2.84 3.685 3.883.3.281.6.6.9.936a27.327 27.327 0 0 1-2.124 4.642s-9.167 8.679-10.008 9.938c-5.036 7.55-1.708 10.127-1.708 10.127l18.987 2.895s3.691-25.633 2.473-29.444c-.085-.244-.165-.477-.246-.704z" class="cls-5" transform="translate(-341.577 -387.707)"/>
                <path id="Path_6461" d="M459.41 533a4.75 4.75 0 0 0 2.646 2.22 9.2 9.2 0 0 0 3.262.819 5.581 5.581 0 0 0 5.408-2.6c.1-.148.555-1.014-.025-1.182a29.608 29.608 0 0 0-5.579-1c-.978-.089-1.956-.189-2.933-.267a14.166 14.166 0 0 0-2.7-.014c-.348.046-.616.91-.079 2.024z" class="cls-13" transform="translate(-358.901 -471.591)"/>
                <path id="Path_6462" d="M495.012 491.759a1.548 1.548 0 0 0 .962.581 1.521 1.521 0 0 0 1.368-.659c.48-1 .8-4.328-1.072-4.121-1.642.18-2.092 3.093-1.258 4.199z" class="cls-14" transform="translate(-380.544 -445.145)"/>
                <path id="Path_6463" d="M452.383 485.471a1.547 1.547 0 0 0 .964.581 1.52 1.52 0 0 0 1.368-.659c.48-1 .8-4.328-1.072-4.121-1.643.18-2.094 3.093-1.26 4.199z" class="cls-14" transform="translate(-354.552 -441.311)"/>
                <path id="Path_6464" d="M528.393 380.154c-1.67 1.016-4.608 3.626-3.22 8.775s12.181 6.962 15.3 5.563c3.757-1.689 5.1-10.205 1.267-12.643-5.507-3.498-10.121-3.658-13.347-1.695z" class="cls-5" transform="translate(-398.963 -378.894)"/>
                <path id="Path_6465" d="M527.377 529.931c-.037-.514-1.123-.1-2.208.884a11.483 11.483 0 0 0-1.712 1.952 60.044 60.044 0 0 0 .087-13.82c-.069-.889-.008-2.448-.716-2.552a1.331 1.331 0 0 0-.859.193c-.731.387-.958 2.069-.958 2.069s-.575-2.274-1.046-2.362c-1.273-.238-2.081 1.9-2.081 1.9a.863.863 0 0 0-1.05.424c-.313.536-1.077 2.238-1.077 2.238s-.879-.014-1.373 1.417c-1.336 3.89-4.278 11.117-4.278 11.117a23.539 23.539 0 0 1-3.761 3.238c-3.386 1.978-3.441 6.282-9.263 19.468 0 0 9.1 7.827 10.171 4.532 2.566-7.91 8.383-12.464 12.354-17.213a7.752 7.752 0 0 0 .838-1.258c1.1-1.192 2.922-3.165 3.42-3.711a47.183 47.183 0 0 0 3.512-8.516z" class="cls-2" transform="translate(-382.055 -462.661)"/>
                <path id="Path_6466" d="M461.68 676.948c-.015 2.207.359 8 8.9 5.875 2.828-.705 15.264-5.286 26.719-20.18 9.091-11.818 22.883-27.7 27.695-38.933 5.664-13.223-2.164-24.814-13.02-19.583-9.792 4.719-31.825 42.984-31.825 42.984s2.527-18.72 5.8-36.475l-11.263-1.624s-4.724 14.786-9.436 35.17c-2.889 12.438-3.477 19.867-3.57 32.766z" class="cls-2" transform="translate(-360.471 -515.442)"/>
                <path id="Path_6467" d="M537.608 484.6s4.243-3.329 7.167 1.992c1.936 3.523-.354 9.712-7.615 11.426-1.248.297 2.467-6.974.448-13.418z" class="cls-2" transform="translate(-406.333 -442.72)"/>
                <path id="Path_6468" d="M542.268 497.686a9.744 9.744 0 0 0 1.574-2.423 3.206 3.206 0 0 0-.622-2.966c-.56-.511.264-1.341.86-.958a3.88 3.88 0 0 1 1.418 4.1c-.252 1.466-1.393 3.259-3.084 3.076-.424-.05-.366-.475-.146-.829z" class="cls-4" transform="translate(-409.505 -447.392)"/>
                <path id="Path_6469" d="M465.974 500.61c-.33-.79-1.272-.989-1.969-1.4a4.88 4.88 0 0 1-1.282-.964c-.516-.626-.212-1.39.02-2.071.8-2.357 1.745-4.676 2.606-7.012.079-.214-.277-.368-.372-.157-.649 1.439-1.305 2.877-1.949 4.32-.347.777-.667 1.568-1.027 2.339a6.372 6.372 0 0 0-.659 1.709 2.747 2.747 0 0 0 1.4 2.616c.748.582 2.07 1.62 3.042 1.082a.409.409 0 0 0 .188-.459z" class="cls-4" transform="translate(-360.247 -445.97)"/>
                <path id="Path_6470" d="M499.254 475.58a6.731 6.731 0 0 0-1.631-1.2 11.6 11.6 0 0 0-1.892-.659c-1.45-.381-3.331-.677-4.6.367a1.408 1.408 0 0 0 .646 2.578c.484.1 1.237-.043 1.731.008.561.058 2.16 0 2.713.115a19.86 19.86 0 0 0 2.754.861c.974-.034 1.061-1.407.279-2.07z" class="cls-15" transform="translate(-378.041 -436.5)"/>
                <path id="Path_6471" d="M450.717 470.189a4.823 4.823 0 0 1 2.58-.672c1.38.161 3.459-.125 4.245 1.192a1.522 1.522 0 0 1-1.507 2.291 7.427 7.427 0 0 1-1.33-.28c-.38-.093-.652-.239-.955-.339a9.128 9.128 0 0 0-1.339-.423c-.533-.086-1.1.226-1.59.06a.967.967 0 0 1-.1-1.825z" class="cls-15" transform="translate(-353.421 -434.138)"/>
                <path id="Path_6472" d="M507.491 714.036c-.432 3.857-.813 7.655-1.017 11.526-.01.181.256.237.286.048.58-3.663 1.051-9.229 1.592-12.895-.084-.182-.641 1.032-.861 1.321z" class="cls-4" transform="translate(-387.78 -582.422)"/>
                <path id="Path_6473" d="M519.314 622.574a110 110 0 0 0-2.828 15.183c-.073.78-.149 1.208.044 1.088.22-.165 2.183-11.044 3.141-16.21a.181.181 0 0 0-.357-.062z" class="cls-4" transform="translate(-393.84 -527.384)"/>
                <path id="Path_6474" d="M535.5 515.638a.189.189 0 0 0-.21-.051c-.693.22-.769 1.116-.955 1.737-.252.86-.478 1.728-.691 2.6s-.42 1.758-.61 2.648c-.175.816-.531 1.634.075 2.324a.649.649 0 0 0 .879.1c.758-.471.659-1.428.761-2.234q.168-1.289.371-2.572c.136-.854.281-1.706.429-2.559.117-.643.464-1.479-.049-1.993z" class="cls-10" transform="translate(-403.818 -462.232)"/>
                <path id="Path_6475" d="M481.467 624.924c-2.068 7.65-4.285 16.2-6.29 23.866a18.131 18.131 0 0 0-.482 2.4c.053.257.6-.978.769-1.591 1.209-4.322 1.857-6.372 2.9-10.57 1.077-4.328 2.606-9.4 3.667-13.733.093-.357-.472-.714-.564-.372z" class="cls-4" transform="translate(-368.405 -528.821)"/>
                <path id="Path_6476" d="M503.076 567.47a16.213 16.213 0 0 0-2.388 2.53c-1.9 2.642-2.348 6.032-3.531 9.066-1.44 3.7-4 6.9-5.221 10.675a1.791 1.791 0 0 0 .11 1.77c1.772-5.654 4.866-9.647 6.838-15.235.76-2.156 1.354-4.867 3.3-7.141a11.923 11.923 0 0 1 1.62-1.521c-.281.033-.464-.28-.728-.144z" class="cls-4" transform="translate(-378.81 -493.852)"/>
                <path id="Path_6477" d="M541.49 527.544a63.953 63.953 0 0 1-2.088 13.6c-.09.37 0 .914.383.928a30.535 30.535 0 0 0 1.967-10.866c0-1.034.041-3.942-.049-4.308a1.894 1.894 0 0 0-.213.647z" class="cls-4" transform="translate(-407.84 -469.135)"/>
                <path id="Path_6478" d="M549.645 520.7a7.9 7.9 0 0 0-.214 2.062 40.972 40.972 0 0 1-.5 12.909c.406.246.78-.391.9-.9a27.8 27.8 0 0 0 .329-10.987 10.209 10.209 0 0 1-.22-1.827c-.087-.423-.194-.847-.281-1.271z" class="cls-4" transform="translate(-413.67 -465.342)"/>
                <path id="Path_6479" d="M538.737 557.647c-.035.2-.071.4-.1.6a33.674 33.674 0 0 1-1.523 4.824c-.264.682-.427 1.318-.708 1.993-.181.419-1.286 2.725-1.625 3.2a43.455 43.455 0 0 1-5.734 6.058c-3.5 3.162-6.043 6.092-6.7 10.987-.038.283.389.47.439.148a15.24 15.24 0 0 1 2.973-6.787c1.437-2.063 3.562-3.559 5.373-5.273a25.22 25.22 0 0 0 5.667-7.806c.44-.939 1.49-4.055 1.781-4.811a11.419 11.419 0 0 0 .5-2.338c.078-.5.147-1 .212-1.5a2.888 2.888 0 0 1-.555.705z" class="cls-4" transform="translate(-397.457 -487.456)"/>
                <path id="Path_6480" d="M557.212 521.3a46.7 46.7 0 0 1-.188 14.972c.358.209.659-.415.769-.922a39.042 39.042 0 0 0 .456-9.174 22.979 22.979 0 0 0-.145-2.331c-.156-1.365-.542-2.763-.892-2.545z" class="cls-4" transform="translate(-418.605 -465.712)"/>
                <path id="Path_6481" d="M582.242 466.574c-.412-.748-1.051-1.36-1.516-2.081a16.962 16.962 0 0 1-1.221-2.291 45.719 45.719 0 0 1-1.848-5.152.3.3 0 0 0-.582.16 36.293 36.293 0 0 0 1.648 5.452c.638 1.505 1.538 3.56 3 4.439a.388.388 0 0 0 .521-.527z" class="cls-16" transform="translate(-430.823 -426.419)"/>
                <path id="Path_6482" d="M576.992 476.848c-.19-.362-.741-.041-.549.321.753 1.413 1.254 3.013 2.109 4.355a.182.182 0 0 0 .33-.14 15.4 15.4 0 0 0-1.89-4.536z" class="cls-16" transform="translate(-430.42 -438.524)"/>
                <path id="Path_6483" d="M568.323 482.533a29.328 29.328 0 0 0-1.8-2.761c-.268-.369-.872-.042-.626.366q.806 1.339 1.487 2.747a9.237 9.237 0 0 0 1.362 2.5.352.352 0 0 0 .593-.246 6.126 6.126 0 0 0-1.015-2.61z" class="cls-16" transform="translate(-423.979 -440.304)"/>
                <path id="Path_6484" d="M504.175 400.21c-5.875 1.135-10.562 6.446-12.421 11.9-.124.365.431.5.568.156a19.775 19.775 0 0 1 4.944-7.064 25.181 25.181 0 0 1 7.176-4.372c.367-.166.087-.689-.267-.62z" class="cls-16" transform="translate(-378.797 -391.887)"/>
                <path id="Path_6485" d="M537.179 443.189c-1.84-.506-2.042-2.175-3.221-3.406s-2.795-1.027-4.3-.706a3.516 3.516 0 0 1-2.684-.1c-.733-.513-1.081-1.689-1.557-2.417a14.148 14.148 0 0 0-3.5-3.664c-.22-.16-.5.2-.293.38a12.941 12.941 0 0 1 3.625 5.035 3.214 3.214 0 0 0 3.574 2.074c.89-.081 1.766-.405 2.662-.4a2.563 2.563 0 0 1 2.33 1.625c.659 1.137 1.767 3.018 3.364 2.4a.427.427 0 0 0 0-.822z" class="cls-16" transform="translate(-396.976 -411.795)"/>
                <path id="Path_6486" d="M551.952 437.057a39.479 39.479 0 0 0-4.881-1.407.33.33 0 0 0-.172.626c1.282.427 2.539.909 3.8 1.383a5.31 5.31 0 0 1 2.625 1.81c.211.271.659.036.659-.272-.023-1.133-1.094-1.768-2.031-2.14z" class="cls-16" transform="translate(-412.291 -413.491)"/>
                <path id="Path_6487" d="M470.249 421.38c-2.637.569-5 3-6.6 5.054-.261.33.245.7.519.391a19.439 19.439 0 0 1 3.066-2.757c1.047-.769 2.251-1.318 3.267-2.111a.33.33 0 0 0-.25-.578z" class="cls-16" transform="translate(-361.627 -404.795)"/>
                <path id="Path_6488" d="M544.9 400.711c-4.018-3.785-11.873-6.117-15.99-6.786-.672-.11-.646.377 0 .525a58.328 58.328 0 0 1 6.922 2.134c2.062.781 6.7 3.609 8.6 4.421.456.195.848.068.468-.294z" class="cls-16" transform="translate(-401.159 -388.05)"/>
                <path id="Path_6489" d="M480.53 413.8a17.413 17.413 0 0 0-3.115.965c-.33.11-.11.608.22.5a17.1 17.1 0 0 0 3.01-1.074.205.205 0 0 0-.115-.389z" class="cls-16" transform="translate(-369.964 -400.176)"/>
                <path id="Path_6490" d="M555.971 844.218a.188.188 0 0 0-.27-.11c-.41.18-.564.792-.8 1.15s-.561.686-1.027.415a2.388 2.388 0 0 1-.621-.638c-.124-.159-.386.046-.279.22.375.591 1.005 1.325 1.8.966a2.221 2.221 0 0 0 .81-.865c.211-.329.529-.738.387-1.138z" class="cls-7" transform="translate(-416.12 -662.533)"/>
                <path id="Path_6491" d="M483.27 855.658c-.356-.182-.764.091-1.136.11a2.226 2.226 0 0 1-1.48-.394c-.17-.121-.347.137-.22.279a2.343 2.343 0 0 0 1.621.782c.439.011 1.258-.078 1.286-.646a.151.151 0 0 0-.071-.131z" class="cls-7" transform="translate(-371.88 -669.397)"/>
                <path id="Path_6492" d="M450.577 855.953c-.053-.516-.565-1.038-1.109-.756a.559.559 0 0 0-.158.122.124.124 0 0 0-.015.018.6.6 0 0 0-.067.659 1.068 1.068 0 0 0 .517.837c.575.297.879-.433.832-.88z" class="cls-6" transform="translate(-352.836 -669.26)"/>
                <path id="Path_6493" d="M462.628 871.505a1.035 1.035 0 0 0-1.1-.495.306.306 0 0 0-.22.293 1.344 1.344 0 0 0 .1.62 1.664 1.664 0 0 0 .17.523c.2.386.6.541.924.181a1.008 1.008 0 0 0 .128-1.123z" class="cls-6" transform="translate(-360.24 -678.941)"/>
            </g>
            <g id="Group_1763" transform="rotate(180 35.574 31.898)">
                <g id="Group_1673" transform="translate(0 7.678)">
                    <rect id="Rectangle_2219" width="46.751" height="56.117" class="cls-17" rx="2"/>
                    <rect id="Rectangle_2220" width="34.9" height="17.82" fill="#d7dfed" rx="2" transform="translate(5.984 5.814)"/>
                    <rect id="Rectangle_2221" width="16.484" height="13.551" class="cls-13" rx="2" transform="translate(24.399 36.806)"/>
                    <g id="Group_1665" transform="translate(5.722 27.797)">
                        <path id="Path_6396" d="M15.472.522H.261a.261.261 0 1 1 0-.522h15.211a.261.261 0 0 1 0 .522z" class="cls-13"/>
                    </g>
                    <g id="Group_1666" transform="translate(5.722 32.221)">
                        <path id="Path_6397" d="M15.472.522H.261a.261.261 0 1 1 0-.522h15.211a.261.261 0 0 1 0 .522z" class="cls-13"/>
                    </g>
                    <g id="Group_1667" transform="translate(24.774 27.797)">
                        <path id="Path_6398" d="M15.472.522H.261a.261.261 0 1 1 0-.522h15.211a.261.261 0 0 1 0 .522z" class="cls-13"/>
                    </g>
                    <g id="Group_1668" transform="translate(24.774 32.221)">
                        <path id="Path_6399" d="M15.472.522H.261a.261.261 0 1 1 0-.522h15.211a.261.261 0 0 1 0 .522z" class="cls-13"/>
                    </g>
                    <g id="Group_1669" transform="translate(5.722 36.645)">
                        <path id="Path_6400" d="M15.472.522H.261a.261.261 0 1 1 0-.522h15.211a.261.261 0 0 1 0 .522z" class="cls-13"/>
                    </g>
                    <g id="Group_1670" transform="translate(5.722 41.068)">
                        <path id="Path_6401" d="M15.472.522H.261a.261.261 0 1 1 0-.522h15.211a.261.261 0 0 1 0 .522z" class="cls-13"/>
                    </g>
                    <g id="Group_1671" transform="translate(5.722 45.491)">
                        <path id="Path_6402" d="M15.472.522H.261a.261.261 0 1 1 0-.522h15.211a.261.261 0 0 1 0 .522z" class="cls-13"/>
                    </g>
                    <g id="Group_1672" transform="translate(5.722 49.915)">
                        <path id="Path_6403" d="M15.472.522H.261a.261.261 0 1 1 0-.522h15.211a.261.261 0 0 1 0 .522z" class="cls-13"/>
                    </g>
                </g>
                <path id="Path_6404" d="M0 8.9L16.217 0 5.508 16.04z" class="cls-17" transform="translate(39.878)"/>
            </g>
        </g>
    </g>
</svg>
