<svg xmlns="http://www.w3.org/2000/svg" width="15.1" height="15.1" viewBox="0 0 15.1 15.1">
    <defs>
        <style>
            .prefix__cls-1{fill:none;stroke:#fff;stroke-linecap:square;stroke-linejoin:round;stroke-width:1.1px}
        </style>
    </defs>
    <g id="prefix__profile_settings_icon" data-name="profile settings icon" transform="translate(-35.45 -95.45)">
        <path id="prefix__Path_6080" d="M38.138 101.614a5.006 5.006 0 0 1 .446-1.073l-.915-1.122a.778.778 0 0 1 .053-1.041l.656-.656a.778.778 0 0 1 1.041-.053l1.122.913a4.993 4.993 0 0 1 1.073-.443l.147-1.44a.778.778 0 0 1 .774-.7h.928a.778.778 0 0 1 .774.7l.148 1.439a5.006 5.006 0 0 1 1.073.446l1.122-.915a.778.778 0 0 1 1.041.053l.656.656a.778.778 0 0 1 .053 1.041l-.913 1.122a4.994 4.994 0 0 1 .443 1.073l1.44.147a.778.778 0 0 1 .7.774v.928a.778.778 0 0 1-.7.774l-1.439.148a5.005 5.005 0 0 1-.446 1.073l.915 1.122a.778.778 0 0 1-.053 1.041l-.656.656a.778.778 0 0 1-1.041.053l-1.122-.913a4.994 4.994 0 0 1-1.073.443l-.147 1.44a.778.778 0 0 1-.774.7h-.928a.778.778 0 0 1-.774-.7l-.148-1.439a5.006 5.006 0 0 1-1.073-.446l-1.122.915a.778.778 0 0 1-1.041-.053l-.656-.656a.778.778 0 0 1-.053-1.041l.913-1.122a4.993 4.993 0 0 1-.443-1.073l-1.44-.147a.778.778 0 0 1-.7-.774v-.928a.778.778 0 0 1 .7-.774z" class="prefix__cls-1" data-name="Path 6080"/>
        <circle id="prefix__Ellipse_323" cx="2" cy="2" r="2" class="prefix__cls-1" data-name="Ellipse 323" transform="translate(41 101)"/>
    </g>
</svg>
