<svg xmlns="http://www.w3.org/2000/svg" xmlns:xlink="http://www.w3.org/1999/xlink" width="276.371" height="174.066" viewBox="0 0 276.371 174.066">
    <defs>
        <style>
            .cls-1{fill:#67777b}.cls-2{fill:url(#linear-gradient)}.cls-3{fill:#fea13d}.cls-4{fill:url(#linear-gradient-2)}.cls-5{fill:#692489}.cls-6{fill:url(#linear-gradient-3)}.cls-7{fill:#071d22}.cls-10,.cls-12,.cls-8{fill:none}.cls-8,.cls-9{stroke:#071d22;stroke-miterlimit:10;stroke-width:.2px}.cls-9{fill:#fff}.cls-10{stroke:#1a1818;stroke-width:.5px}.cls-11{fill:#c7c9cb}.cls-12{stroke:#6d6f72;stroke-linecap:round;stroke-linejoin:round;stroke-width:.25px}.cls-13{fill:#1a1818}
        </style>
        <linearGradient id="linear-gradient" x1="145.551" x2="146.571" y1="-204.964" y2="-202.954" gradientUnits="objectBoundingBox">
            <stop offset="0" stop-color="#ff6a00"/>
            <stop offset="1" stop-color="#f9ae00"/>
        </linearGradient>
        <linearGradient id="linear-gradient-2" x1="-8.735" x2="-9.341" y1="6.815" y2="7.704" gradientUnits="objectBoundingBox">
            <stop offset="0" stop-color="#692489"/>
            <stop offset="1" stop-color="#5fb8cc"/>
        </linearGradient>
        <linearGradient id="linear-gradient-3" x2="1" y1=".5" y2=".5" xlink:href="#linear-gradient-2"/>
    </defs>
    <g id="sim_card_-_back" data-name="sim card - back" transform="translate(-328.441 -83.768)">
        <g id="Design" transform="translate(354.824 83.821)">
            <g id="Group_1071" data-name="Group 1071" transform="translate(.456 24.59)">
                <g id="Group_1066" data-name="Group 1066" transform="translate(44.044 11.72)">
                    <path id="Path_1748" d="M391.343 120.145a.4.4 0 0 0 .427-.387 3.924 3.924 0 0 1 .036-.478 2.979 2.979 0 0 1 3.3-2.617 3.044 3.044 0 0 1 3.023 1.758l.739-.557a4 4 0 0 0-3.743-2.123 3.868 3.868 0 0 0-4.185 3.41 6.008 6.008 0 0 0-.036.607.366.366 0 0 0 .152.3.489.489 0 0 0 .287.087z" class="cls-1" data-name="Path 1748" transform="translate(-390.746 -115.741)"/>
                    <path id="Path_1749" d="M399.095 126.3h-5.824l-1.035.045.855-.54 4.381-3.252a4.545 4.545 0 0 0 1.622-2.047l-1.567.83a4.521 4.521 0 0 1-.648.574c-1.168.873-2.357 1.74-3.545 2.6-.786.577-1.57 1.148-2.347 1.722a.543.543 0 0 0-.2.587.556.556 0 0 0 .5.361h7.813a.445.445 0 1 0 0-.885z" class="cls-1" data-name="Path 1749" transform="translate(-390.765 -115.086)"/>
                </g>
                <g id="Group_1069" data-name="Group 1069" transform="translate(62.108)">
                    <g id="Group_1068" data-name="Group 1068">
                        <g id="Group_1067" data-name="Group 1067">
                            <path id="Path_1750" d="M407.65 105.576l11.512-.139-6.462 4.3-5.839-2.966c-.548-.282.051-1.183.789-1.195z" class="cls-2" data-name="Path 1750" transform="translate(-406.648 -105.436)"/>
                            <path id="Path_1751" d="M406.858 106.658l5.841 2.966-6.04-3.4a.361.361 0 0 0 .199.434z" class="cls-3" data-name="Path 1751" transform="translate(-406.648 -105.327)"/>
                            <path id="Path_1752" d="M414.115 115.814l4.316-10.378-6.462 4.3.72 6.366c.068.592 1.147.379 1.426-.288z" class="cls-4" data-name="Path 1752" transform="translate(-405.917 -105.436)"/>
                            <path id="Path_1753" d="M412.689 115.58a.377.377 0 0 0 .338.341l-1.058-6.707z" class="cls-5" data-name="Path 1753" transform="translate(-405.917 -104.917)"/>
                        </g>
                    </g>
                    <path id="Path_1754" d="M412.211 109.308l-1.538-.78-.469 2.112 2.212.492z" class="cls-6" data-name="Path 1754" transform="translate(-406.159 -105.011)"/>
                </g>
                <path id="Path_1755" d="M360.846 117.815a.451.451 0 0 0-.471.488v1.157a3.651 3.651 0 0 0-1.115-1.105 4.751 4.751 0 0 0-4.182-.289 4.9 4.9 0 0 0-3.038 4.954 4.739 4.739 0 0 0 4.928 4.771 4.056 4.056 0 0 0 3.406-1.746v1.088c0 2.409-1.995 3.262-3.705 3.262a4.274 4.274 0 0 1-2.988-1.018.514.514 0 0 0-.776.158.493.493 0 0 0 .146.541 4.829 4.829 0 0 0 3.618 1.261c2.834 0 4.667-1.648 4.667-4.2V118.3a.47.47 0 0 0-.49-.485zm-.471 5.745a3.4 3.4 0 0 1-3.411 3.271h-.05a3.8 3.8 0 0 1-3.591-2.253 4.461 4.461 0 0 1-.32-1.554 4.169 4.169 0 0 1 1.564-3.562 3.964 3.964 0 0 1 2.182-.8h.1a4 4 0 0 1 1.688.394 3.228 3.228 0 0 1 1.832 2.9z" class="cls-7" data-name="Path 1755" transform="translate(-352.039 -103.75)"/>
                <path id="Path_1756" d="M368.045 117.895a5.876 5.876 0 0 0-2.873 0 4.946 4.946 0 0 0-3.5 4.486 5.026 5.026 0 0 0 1.145 3.637 5.092 5.092 0 0 0 7.593 0 5.008 5.008 0 0 0 1.145-3.642 4.947 4.947 0 0 0-3.51-4.481zm-1.425 8.88a3.926 3.926 0 0 1-3.04-1.367 4.251 4.251 0 0 1-.717-3.986 3.766 3.766 0 0 1 2.615-2.6 4.319 4.319 0 0 1 1.118-.142 4.815 4.815 0 0 1 1.167.142 3.847 3.847 0 0 1 2.637 2.624 4.218 4.218 0 0 1-.705 3.959 3.966 3.966 0 0 1-3.075 1.37z" class="cls-7" data-name="Path 1756" transform="translate(-350.717 -103.75)"/>
                <path id="Path_1757" d="M377.695 117.895a5.876 5.876 0 0 0-2.873 0 4.941 4.941 0 0 0-3.493 4.486 5.02 5.02 0 0 0 1.144 3.637 5.092 5.092 0 0 0 7.593 0 5.017 5.017 0 0 0 1.144-3.642 4.947 4.947 0 0 0-3.515-4.481zm-1.425 8.88a3.926 3.926 0 0 1-3.04-1.367 4.247 4.247 0 0 1-.715-3.986 3.757 3.757 0 0 1 2.614-2.6 4.312 4.312 0 0 1 1.118-.142 4.792 4.792 0 0 1 1.166.142 3.849 3.849 0 0 1 2.641 2.624 4.221 4.221 0 0 1-.706 3.959 3.968 3.968 0 0 1-3.078 1.37z" class="cls-7" data-name="Path 1757" transform="translate(-349.391 -103.75)"/>
                <path id="Path_1758" d="M419.078 122.374a4.943 4.943 0 0 0-3.514-4.48 5.871 5.871 0 0 0-2.872 0 4.94 4.94 0 0 0-3.5 4.486 5.022 5.022 0 0 0 1.146 3.637 5.088 5.088 0 0 0 7.589 0 5 5 0 0 0 1.151-3.643zm-4.939 4.4a3.928 3.928 0 0 1-3.041-1.367 4.247 4.247 0 0 1-.714-3.986 3.759 3.759 0 0 1 2.614-2.6 4.3 4.3 0 0 1 1.12-.142 4.794 4.794 0 0 1 1.163.142 3.845 3.845 0 0 1 2.64 2.625 4.208 4.208 0 0 1-.707 3.958 3.963 3.963 0 0 1-3.075 1.371z" class="cls-7" data-name="Path 1758" transform="translate(-344.191 -103.75)"/>
                <g id="Group_1070" data-name="Group 1070" transform="translate(26.458 25.67)">
                    <path id="Path_1759" d="M378.186 128.59a1.031 1.031 0 0 0-.73.612.873.873 0 0 0-.395-.491 1.125 1.125 0 0 0-.84-.119 1.07 1.07 0 0 0-.653.475v-.376a.132.132 0 0 0-.137-.133.135.135 0 0 0-.13.133v2.122a.133.133 0 1 0 .266 0V129.8a.986.986 0 0 1 .721-.946.844.844 0 0 1 .636.091.8.8 0 0 1 .346.694v1.177a.135.135 0 1 0 .271 0V129.8a.981.981 0 0 1 .714-.946.812.812 0 0 1 .707.134.719.719 0 0 1 .283.572v1.256a.129.129 0 0 0 .132.138.131.131 0 0 0 .137-.138v-1.27a.935.935 0 0 0-.363-.753 1.147 1.147 0 0 0-.965-.203z" class="cls-7" data-name="Path 1759" transform="translate(-375.302 -127.93)"/>
                    <path id="Path_1760" d="M381.245 128.578a1.358 1.358 0 0 0-.695 0 1.186 1.186 0 0 0-.845 1.083 1.214 1.214 0 0 0 .278.878 1.226 1.226 0 0 0 1.837 0 1.219 1.219 0 0 0 .275-.879 1.191 1.191 0 0 0-.85-1.082zm.374 1.791a.937.937 0 0 1-.72.318.91.91 0 0 1-.706-.318.991.991 0 0 1-.167-.93.874.874 0 0 1 .608-.6 1.068 1.068 0 0 1 .26-.032 1.147 1.147 0 0 1 .272.033.9.9 0 0 1 .614.612.985.985 0 0 1-.161.918z" class="cls-7" data-name="Path 1760" transform="translate(-374.698 -127.934)"/>
                    <path id="Path_1761" d="M384.06 128.7a1.129 1.129 0 0 0-.456-.088h-.032a.991.991 0 0 0-.79.372v-.843a.125.125 0 0 0-.132-.135.129.129 0 0 0-.134.135v2.747a.13.13 0 0 0 .134.138.128.128 0 0 0 .132-.138v-.212a.945.945 0 0 0 .235.217 1.138 1.138 0 0 0 .573.155 1.16 1.16 0 0 0 .439-.085 1.188 1.188 0 0 0 .735-1.2 1.145 1.145 0 0 0-.704-1.063zm.437 1.066a.975.975 0 0 1-.363.831.95.95 0 0 1-.511.187h-.023a.961.961 0 0 1-.394-.09.758.758 0 0 1-.425-.674v-.38a.79.79 0 0 1 .793-.761h.011a.888.888 0 0 1 .834.529.987.987 0 0 1 .081.357z" class="cls-7" data-name="Path 1761" transform="translate(-374.311 -128.006)"/>
                    <path id="Path_1762" d="M385.345 128.023a.131.131 0 0 0-.136.13v.246a.137.137 0 0 0 .274 0v-.246a.131.131 0 0 0-.138-.13z" class="cls-7" data-name="Path 1762" transform="translate(-373.941 -128.004)"/>
                    <path id="Path_1763" d="M385.347 128.554a.133.133 0 0 0-.135.136v2.135a.134.134 0 1 0 .267 0v-2.139a.129.129 0 0 0-.132-.132z" class="cls-7" data-name="Path 1763" transform="translate(-373.941 -127.931)"/>
                    <path id="Path_1764" d="M386.418 128.01a.132.132 0 0 0-.138.131v2.759a.132.132 0 0 0 .138.133.136.136 0 0 0 .131-.133v-2.759a.135.135 0 0 0-.131-.131z" class="cls-7" data-name="Path 1764" transform="translate(-373.794 -128.005)"/>
                    <path id="Path_1765" d="M388.8 128.578a1.353 1.353 0 0 0-.694 0 1.163 1.163 0 0 0-.845 1.083 1.244 1.244 0 0 0 .274.876 1.188 1.188 0 0 0 .929.416h.012a1.174 1.174 0 0 0 .807-.282.129.129 0 0 0 .015-.182.14.14 0 0 0-.193-.014 1.049 1.049 0 0 1-.63.213h-.023a.928.928 0 0 1-.705-.318.892.892 0 0 1-.2-.429h1.911a.2.2 0 0 0 .147-.055.2.2 0 0 0 .048-.15 1.141 1.141 0 0 0-.853-1.158zm.583 1.1h-1.849a.915.915 0 0 1 .655-.852 1.077 1.077 0 0 1 .535 0 .886.886 0 0 1 .661.857z" class="cls-7" data-name="Path 1765" transform="translate(-373.66 -127.934)"/>
                </g>
                <path id="Path_1766" d="M386.8 128.02l3.5-2.64v-9.4a.467.467 0 0 0-.489-.488.448.448 0 0 0-.469.488v3.779a3.681 3.681 0 0 0-1.116-1.105 4.69 4.69 0 0 0-2.291-.614 4.736 4.736 0 0 0-4.928 4.772 4.9 4.9 0 0 0 3.037 4.953 4.788 4.788 0 0 0 1.807.357 4.71 4.71 0 0 0 .949-.102zm-1.077-.848a3.978 3.978 0 0 1-2.185-.8 4.18 4.18 0 0 1-1.567-3.569 4.607 4.607 0 0 1 .32-1.552 3.8 3.8 0 0 1 3.593-2.248h.046a4.061 4.061 0 0 1 1.581.355 3.225 3.225 0 0 1 1.836 2.9v1.6a3.236 3.236 0 0 1-1.831 2.915 4.054 4.054 0 0 1-1.695.392z" class="cls-7" data-name="Path 1766" transform="translate(-348.061 -104.054)"/>
                <path id="Path_1767" d="M408.364 117.815a.452.452 0 0 0-.471.488v1.157a3.635 3.635 0 0 0-1.113-1.105 4.753 4.753 0 0 0-4.183-.289 4.9 4.9 0 0 0-3.036 4.954 4.738 4.738 0 0 0 4.927 4.771 4.051 4.051 0 0 0 3.405-1.746v1.088c0 2.409-1.994 3.262-3.7 3.262a4.284 4.284 0 0 1-2.991-1.018.511.511 0 0 0-.773.158.5.5 0 0 0 .144.541 4.834 4.834 0 0 0 3.62 1.261c2.832 0 4.664-1.648 4.664-4.2V118.3a.468.468 0 0 0-.493-.485zm-.471 5.745a3.4 3.4 0 0 1-3.41 3.271h-.048a3.8 3.8 0 0 1-3.594-2.253 4.568 4.568 0 0 1-.321-1.554 4.172 4.172 0 0 1 1.567-3.562 3.958 3.958 0 0 1 2.18-.8h.1a4.013 4.013 0 0 1 1.69.394 3.224 3.224 0 0 1 1.83 2.9z" class="cls-7" data-name="Path 1767" transform="translate(-345.513 -103.75)"/>
            </g>
            <path id="Path_1768" d="M493.336 170.82a114.859 114.859 0 0 0-39.733-87h123.212a10.81 10.81 0 0 1 10.809 10.809v152.387a10.811 10.811 0 0 1-10.809 10.809H453.6a114.859 114.859 0 0 0 39.736-87.005z" class="cls-5" data-name="Path 1768" transform="translate(-337.635 -83.815)"/>
            <g id="Group_1072" data-name="Group 1072" transform="translate(0 66.089)">
                <path id="Path_1769" d="M352.965 148.124a.488.488 0 0 1-.489-.49v-5.219a.488.488 0 0 1 .489-.49.48.48 0 0 1 .481.49v5.219a.48.48 0 0 1-.481.49z" class="cls-7" data-name="Path 1769" transform="translate(-351.523 -141.924)"/>
                <path id="Path_1770" d="M356.683 144.8h-.762v2.832a.445.445 0 0 1-.889 0V144.8h-.663a.373.373 0 0 1-.363-.373.364.364 0 0 1 .363-.362h.663v-1.305a.445.445 0 0 1 .889 0v1.307h.762a.364.364 0 0 1 .364.362.373.373 0 0 1-.364.371z" class="cls-7" data-name="Path 1770" transform="translate(-351.313 -141.869)"/>
                <path id="Path_1771" d="M357.583 144.311a.2.2 0 0 1-.155.064.241.241 0 0 1-.108-.027.193.193 0 0 1-.064-.263 1.839 1.839 0 0 0 .49-1.117.555.555 0 0 1-.481-.525.523.523 0 0 1 .518-.519c.39 0 .563.328.563.681a2.4 2.4 0 0 1-.763 1.706z" class="cls-7" data-name="Path 1771" transform="translate(-350.87 -141.924)"/>
                <path id="Path_1772" d="M360.319 147.909a3.077 3.077 0 0 1-1.451-.4.411.411 0 0 1-.219-.345.389.389 0 0 1 .038-.138.308.308 0 0 1 .281-.208.348.348 0 0 1 .182.055 2.215 2.215 0 0 0 1.116.317c.445 0 .927-.126.927-.481 0-.272-.246-.372-1.171-.689-.762-.264-1.162-.607-1.162-1.171 0-.671.672-1.1 1.552-1.1a2.918 2.918 0 0 1 1.363.308.378.378 0 0 1 .243.337.318.318 0 0 1-.026.126.363.363 0 0 1-.346.235.282.282 0 0 1-.126-.026 2.4 2.4 0 0 0-1.035-.246c-.481 0-.781.109-.781.4s.237.354.918.572c.825.272 1.406.553 1.406 1.234-.003.667-.611 1.22-1.709 1.22z" class="cls-7" data-name="Path 1772" transform="translate(-350.675 -141.673)"/>
                <path id="Path_1773" d="M367.808 146.1H365a1.147 1.147 0 0 0 1.189 1.062 1.674 1.674 0 0 0 1.181-.5.28.28 0 0 1 .217-.082.382.382 0 0 1 .291.146.365.365 0 0 1 .072.208.423.423 0 0 1-.126.29 2.35 2.35 0 0 1-1.662.681 2.071 2.071 0 0 1-2.078-2.078 2.05 2.05 0 0 1 2.052-2.079 1.983 1.983 0 0 1 1.995 2.06.307.307 0 0 1-.323.292zm-1.668-1.6a1.092 1.092 0 0 0-1.118.98h2.234a1.114 1.114 0 0 0-1.116-.98z" class="cls-7" data-name="Path 1773" transform="translate(-349.928 -141.673)"/>
                <path id="Path_1774" d="M371.291 147.873a.445.445 0 0 1-.445-.445v-.082a1.443 1.443 0 0 1-1.226.563 1.418 1.418 0 0 1-1.5-1.334 1.35 1.35 0 0 1 1.515-1.316 1.746 1.746 0 0 1 1.216.417v-.346c0-.607-.326-.825-1.061-.825a2.681 2.681 0 0 0-1.108.235.451.451 0 0 1-.155.027.35.35 0 0 1-.317-.2.426.426 0 0 1-.035-.146.406.406 0 0 1 .208-.336 3.3 3.3 0 0 1 1.48-.336c1.117 0 1.87.427 1.87 1.6v2.078a.445.445 0 0 1-.442.446zm-1.4-1.933c-.436 0-.9.164-.9.636s.48.653.889.653c.454 0 .962-.208.962-.653.005-.5-.504-.637-.948-.637z" class="cls-7" data-name="Path 1774" transform="translate(-349.374 -141.673)"/>
                <path id="Path_1775" d="M373.526 147.909a3.077 3.077 0 0 1-1.451-.4.412.412 0 0 1-.22-.345.389.389 0 0 1 .038-.138.308.308 0 0 1 .281-.208.348.348 0 0 1 .182.055 2.215 2.215 0 0 0 1.116.317c.445 0 .927-.126.927-.481 0-.272-.246-.372-1.171-.689-.762-.264-1.162-.607-1.162-1.171 0-.671.672-1.1 1.552-1.1a2.918 2.918 0 0 1 1.363.308.378.378 0 0 1 .243.337.318.318 0 0 1-.026.126.363.363 0 0 1-.346.235.282.282 0 0 1-.126-.026 2.4 2.4 0 0 0-1.035-.246c-.481 0-.781.109-.781.4s.237.354.918.572c.825.272 1.406.553 1.406 1.234-.002.667-.61 1.22-1.708 1.22z" class="cls-7" data-name="Path 1775" transform="translate(-348.862 -141.673)"/>
                <path id="Path_1776" d="M378.868 144.347l-1.451 3.248a3.575 3.575 0 0 1-1.943 1.943.431.431 0 0 1-.146.038.381.381 0 0 1-.363-.382.371.371 0 0 1 .246-.345 2.789 2.789 0 0 0 1.38-1.389c-.136-.3-1.425-3.078-1.425-3.268a.412.412 0 0 1 .245-.381.425.425 0 0 1 .155-.027.4.4 0 0 1 .363.237l1.117 2.486 1.108-2.486a.4.4 0 0 1 .363-.237.32.32 0 0 1 .126.027.393.393 0 0 1 .264.372.345.345 0 0 1-.039.164z" class="cls-7" data-name="Path 1776" transform="translate(-348.434 -141.669)"/>
                <path id="Path_1777" d="M383.1 144.8h-.762v2.832a.445.445 0 0 1-.889 0V144.8h-.663a.373.373 0 0 1-.363-.373.364.364 0 0 1 .363-.362h.663v-1.305a.445.445 0 0 1 .889 0v1.307h.762a.365.365 0 0 1 .364.362.373.373 0 0 1-.364.371z" class="cls-7" data-name="Path 1777" transform="translate(-347.685 -141.869)"/>
                <path id="Path_1778" d="M385.283 147.909a2.078 2.078 0 1 1 2.078-2.078 2.072 2.072 0 0 1-2.078 2.078zm0-3.368a1.293 1.293 0 1 0 1.2 1.29 1.209 1.209 0 0 0-1.2-1.29z" class="cls-7" data-name="Path 1778" transform="translate(-347.303 -141.673)"/>
                <path id="Path_1779" d="M392.418 147.873a.445.445 0 0 1-.445-.445v-.082a1.443 1.443 0 0 1-1.226.563 1.418 1.418 0 0 1-1.5-1.334 1.35 1.35 0 0 1 1.515-1.316 1.748 1.748 0 0 1 1.216.417v-.346c0-.607-.326-.825-1.061-.825a2.681 2.681 0 0 0-1.108.235.45.45 0 0 1-.155.027.35.35 0 0 1-.317-.2.426.426 0 0 1-.035-.146.406.406 0 0 1 .208-.336 3.3 3.3 0 0 1 1.48-.336c1.117 0 1.87.427 1.87 1.6v2.078a.445.445 0 0 1-.442.446zm-1.4-1.933c-.436 0-.9.164-.9.636s.48.653.889.653c.454 0 .962-.208.962-.653.005-.5-.504-.637-.948-.637z" class="cls-7" data-name="Path 1779" transform="translate(-346.473 -141.673)"/>
                <path id="Path_1780" d="M396.569 147.264a2.163 2.163 0 0 1-1.507.645 2.078 2.078 0 1 1 0-4.157 1.945 1.945 0 0 1 1.343.454.427.427 0 0 1 .135.308.386.386 0 0 1-.081.227.38.38 0 0 1-.291.146.425.425 0 0 1-.246-.083 1.419 1.419 0 0 0-.861-.281 1.311 1.311 0 0 0 0 2.614 1.447 1.447 0 0 0 1.016-.416.349.349 0 0 1 .237-.091.377.377 0 0 1 .281.117.316.316 0 0 1 .091.227.432.432 0 0 1-.117.29z" class="cls-7" data-name="Path 1780" transform="translate(-345.96 -141.673)"/>
                <path id="Path_1781" d="M399.153 144.8h-.762v2.832a.445.445 0 0 1-.889 0V144.8h-.663a.373.373 0 0 1-.363-.373.364.364 0 0 1 .363-.362h.663v-1.305a.445.445 0 0 1 .889 0v1.307h.762a.364.364 0 0 1 .363.362.372.372 0 0 1-.363.371z" class="cls-7" data-name="Path 1781" transform="translate(-345.48 -141.869)"/>
                <path id="Path_1782" d="M400.109 143.033a.489.489 0 0 1-.49-.49.5.5 0 0 1 .49-.5.5.5 0 0 1 .5.5.5.5 0 0 1-.5.49zm0 5.074a.437.437 0 0 1-.436-.445v-3.2a.437.437 0 0 1 .436-.444.444.444 0 0 1 .444.444v3.2a.444.444 0 0 1-.444.445z" class="cls-7" data-name="Path 1782" transform="translate(-345.049 -141.907)"/>
                <path id="Path_1783" d="M404.605 144.347l-1.471 3.286a.412.412 0 0 1-.363.235.4.4 0 0 1-.354-.235l-1.479-3.286a.345.345 0 0 1-.038-.164.4.4 0 0 1 .237-.363.448.448 0 0 1 .164-.036.394.394 0 0 1 .362.237l1.108 2.486 1.117-2.486a.4.4 0 0 1 .363-.237.374.374 0 0 1 .146.027.421.421 0 0 1 .245.381.309.309 0 0 1-.037.155z" class="cls-7" data-name="Path 1783" transform="translate(-344.872 -141.669)"/>
                <path id="Path_1784" d="M407.611 147.873a.445.445 0 0 1-.445-.445v-.082a1.441 1.441 0 0 1-1.225.563 1.419 1.419 0 0 1-1.5-1.334 1.35 1.35 0 0 1 1.515-1.316 1.751 1.751 0 0 1 1.217.417v-.346c0-.607-.326-.825-1.062-.825a2.681 2.681 0 0 0-1.108.235.444.444 0 0 1-.154.027.352.352 0 0 1-.318-.2.453.453 0 0 1-.035-.146.4.4 0 0 1 .209-.336 3.3 3.3 0 0 1 1.48-.336c1.116 0 1.869.427 1.869 1.6v2.078a.445.445 0 0 1-.443.446zm-1.4-1.933c-.436 0-.9.164-.9.636s.481.653.889.653c.455 0 .962-.208.962-.653.005-.5-.502-.637-.948-.637z" class="cls-7" data-name="Path 1784" transform="translate(-344.386 -141.673)"/>
                <path id="Path_1785" d="M410.654 144.8h-.762v2.832a.445.445 0 0 1-.889 0V144.8h-.663a.373.373 0 0 1-.363-.373.364.364 0 0 1 .363-.362h.66v-1.305a.445.445 0 0 1 .889 0v1.307h.762a.364.364 0 0 1 .363.362.372.372 0 0 1-.36.371z" class="cls-7" data-name="Path 1785" transform="translate(-343.901 -141.869)"/>
                <path id="Path_1786" d="M414.481 146.1h-2.8a1.148 1.148 0 0 0 1.19 1.062 1.669 1.669 0 0 0 1.179-.5.284.284 0 0 1 .218-.082.382.382 0 0 1 .291.146.365.365 0 0 1 .072.208.423.423 0 0 1-.126.29 2.352 2.352 0 0 1-1.662.681 2.071 2.071 0 0 1-2.078-2.078 2.049 2.049 0 0 1 2.051-2.079 1.983 1.983 0 0 1 2 2.06.307.307 0 0 1-.335.292zm-1.67-1.607a1.092 1.092 0 0 0-1.117.98h2.234a1.115 1.115 0 0 0-1.116-.973z" class="cls-7" data-name="Path 1786" transform="translate(-343.519 -141.673)"/>
                <path id="Path_1787" d="M353.443 163.128a.364.364 0 0 1-.365-.356v-3.658c-.152.049-.937.329-1.1.343h-.02a.326.326 0 0 1-.322-.322.2.2 0 0 1 .007-.064.3.3 0 0 1 .209-.238c.175-.056 1.336-.448 1.54-.475.013 0 .027-.007.034-.007a.354.354 0 0 1 .363.357v4.063a.351.351 0 0 1-.346.357z" class="cls-7" data-name="Path 1787" transform="translate(-351.638 -139.668)"/>
                <path id="Path_1788" d="M356.3 161.211h-1.329a.308.308 0 0 1 0-.615h1.329a.308.308 0 1 1 0 .615z" class="cls-7" data-name="Path 1788" transform="translate(-351.222 -139.36)"/>
                <path id="Path_1789" d="M363.2 162.306a2.421 2.421 0 1 1-1.908-3.972 2.289 2.289 0 0 1 1.595.594.386.386 0 0 1 .125.28.326.326 0 0 1-.322.321.347.347 0 0 1-.216-.068 1.741 1.741 0 0 0-1.182-.441 1.735 1.735 0 0 0 0 3.462 1.671 1.671 0 0 0 1.244-.5l-.006-.8h-1.029a.336.336 0 1 1 0-.671h1.407a.364.364 0 0 1 .378.378v1.189a.319.319 0 0 1-.086.228z" class="cls-7" data-name="Path 1789" transform="translate(-350.637 -139.67)"/>
                <path id="Path_1790" d="M365.066 162.964a1.6 1.6 0 1 1 1.6-1.6 1.6 1.6 0 0 1-1.6 1.6zm0-2.6a1 1 0 1 0 .925.994.931.931 0 0 0-.925-.99z" class="cls-7" data-name="Path 1790" transform="translate(-350.014 -139.475)"/>
                <path id="Path_1791" d="M370.493 160.569h-.587v2.181a.344.344 0 0 1-.687 0v-2.181h-.51a.286.286 0 0 1-.28-.287.281.281 0 0 1 .28-.281h.51V159a.344.344 0 0 1 .687 0v1h.587a.281.281 0 0 1 .279.281.286.286 0 0 1-.279.288z" class="cls-7" data-name="Path 1791" transform="translate(-349.332 -139.626)"/>
                <path id="Path_1792" d="M372.422 162.964a1.6 1.6 0 1 1 1.6-1.6 1.6 1.6 0 0 1-1.6 1.6zm0-2.6a1 1 0 1 0 .924.994.931.931 0 0 0-.924-.99z" class="cls-7" data-name="Path 1792" transform="translate(-349.004 -139.475)"/>
                <path id="Path_1793" d="M380.014 160.2l-.952 2.532a.3.3 0 0 1-.287.194.31.31 0 0 1-.287-.2l-.574-1.687-.573 1.687a.3.3 0 0 1-.28.2.313.313 0 0 1-.293-.194l-.952-2.532a.325.325 0 0 1-.019-.113.314.314 0 0 1 .189-.287.327.327 0 0 1 .118-.02.285.285 0 0 1 .279.189l.652 1.775.6-1.762a.292.292 0 0 1 .279-.2.3.3 0 0 1 .28.2l.6 1.762.657-1.769a.292.292 0 0 1 .28-.2.336.336 0 0 1 .118.02.316.316 0 0 1 .189.287.339.339 0 0 1-.024.118z" class="cls-7" data-name="Path 1793" transform="translate(-348.32 -139.471)"/>
                <path id="Path_1794" d="M384.2 160.2l-.951 2.532a.3.3 0 0 1-.287.194.309.309 0 0 1-.287-.2l-.574-1.687-.573 1.687a.3.3 0 0 1-.28.2.312.312 0 0 1-.293-.194L380 160.2a.3.3 0 0 1-.02-.113.316.316 0 0 1 .189-.287.338.338 0 0 1 .119-.02.286.286 0 0 1 .279.189l.651 1.775.6-1.762a.292.292 0 0 1 .279-.2.3.3 0 0 1 .28.2l.6 1.762.657-1.769a.293.293 0 0 1 .28-.2.338.338 0 0 1 .119.02.316.316 0 0 1 .189.287.341.341 0 0 1-.022.118z" class="cls-7" data-name="Path 1794" transform="translate(-347.746 -139.471)"/>
                <path id="Path_1795" d="M388.382 160.2l-.952 2.532a.3.3 0 0 1-.287.194.31.31 0 0 1-.287-.2l-.574-1.687-.573 1.687a.3.3 0 0 1-.28.2.311.311 0 0 1-.292-.194l-.952-2.532a.3.3 0 0 1-.02-.113.314.314 0 0 1 .189-.287.329.329 0 0 1 .119-.02.286.286 0 0 1 .279.189l.651 1.775.6-1.762a.292.292 0 0 1 .279-.2.3.3 0 0 1 .28.2l.6 1.762.657-1.769a.293.293 0 0 1 .28-.2.336.336 0 0 1 .118.02.316.316 0 0 1 .189.287.339.339 0 0 1-.024.118z" class="cls-7" data-name="Path 1795" transform="translate(-347.171 -139.471)"/>
                <path id="Path_1796" d="M388.581 162.636a.4.4 0 1 1 .4-.4.4.4 0 0 1-.4.4z" class="cls-7" data-name="Path 1796" transform="translate(-346.619 -139.189)"/>
                <path id="Path_1797" d="M391.268 164.243a2.579 2.579 0 0 1-1.1-.2.279.279 0 0 1-.181-.251.311.311 0 0 1 .014-.111.27.27 0 0 1 .042-.071.265.265 0 0 1 .216-.118.291.291 0 0 1 .106.02 2.714 2.714 0 0 0 .9.147.9.9 0 0 0 1.008-.959v-.329a1.152 1.152 0 0 1-.986.546 1.577 1.577 0 0 1 0-3.154 1.121 1.121 0 0 1 .979.524v-.154a.342.342 0 0 1 .685 0v2.5a1.54 1.54 0 0 1-1.683 1.61zm.084-3.875a.97.97 0 1 0 .924.964.907.907 0 0 0-.924-.964z" class="cls-7" data-name="Path 1797" transform="translate(-346.405 -139.475)"/>
                <path id="Path_1798" d="M394.839 162.964a1.6 1.6 0 1 1 1.6-1.6 1.6 1.6 0 0 1-1.6 1.6zm0-2.6a1 1 0 1 0 .925.994.931.931 0 0 0-.925-.99z" class="cls-7" data-name="Path 1798" transform="translate(-345.925 -139.475)"/>
                <path id="Path_1799" d="M398.208 162.964a1.6 1.6 0 1 1 1.6-1.6 1.6 1.6 0 0 1-1.6 1.6zm0-2.6a1 1 0 1 0 .923.994.931.931 0 0 0-.923-.99z" class="cls-7" data-name="Path 1799" transform="translate(-345.463 -139.475)"/>
                <path id="Path_1800" d="M402.833 163.128a.342.342 0 0 1-.342-.341v-.162a1.125 1.125 0 0 1-1 .532 1.6 1.6 0 0 1 0-3.2 1.119 1.119 0 0 1 1 .538v-1.8a.342.342 0 0 1 .685 0v4.1a.342.342 0 0 1-.343.333zm-1.259-2.566a1 1 0 0 0 0 1.987 1 1 0 0 0 0-1.987z" class="cls-7" data-name="Path 1800" transform="translate(-345 -139.668)"/>
                <path id="Path_1801" d="M407.027 163.076h-3.034a.326.326 0 0 1-.315-.33 2.021 2.021 0 0 1 1.421-1.9c.825-.4 1.489-.637 1.489-1.2 0-.475-.553-.671-1.021-.671a2.152 2.152 0 0 0-1.308.406.258.258 0 0 1-.16.049.358.358 0 0 1-.266-.126.307.307 0 0 1-.063-.189.4.4 0 0 1 .167-.295 2.7 2.7 0 0 1 1.623-.481c.812 0 1.741.432 1.741 1.3s-.678 1.2-1.384 1.525c-.511.238-1.384.615-1.4 1.279h2.51a.313.313 0 0 1 .315.314.32.32 0 0 1-.315.319z" class="cls-7" data-name="Path 1801" transform="translate(-344.491 -139.67)"/>
                <path id="Path_1802" d="M409.159 164.243a2.579 2.579 0 0 1-1.1-.2.277.277 0 0 1-.181-.251.336.336 0 0 1 .013-.111.306.306 0 0 1 .042-.071.267.267 0 0 1 .217-.118.3.3 0 0 1 .106.02 2.709 2.709 0 0 0 .9.147.9.9 0 0 0 1.006-.959v-.329a1.15 1.15 0 0 1-.986.546 1.577 1.577 0 0 1 0-3.154 1.121 1.121 0 0 1 .979.524v-.154a.343.343 0 0 1 .686 0v2.5a1.541 1.541 0 0 1-1.682 1.61zm.084-3.875a.97.97 0 1 0 .922.964.908.908 0 0 0-.922-.964z" class="cls-7" data-name="Path 1802" transform="translate(-343.948 -139.475)"/>
                <path id="Path_1803" d="M412.731 162.964a1.6 1.6 0 1 1 1.6-1.6 1.6 1.6 0 0 1-1.6 1.6zm0-2.6a1 1 0 1 0 .925.994.931.931 0 0 0-.925-.99z" class="cls-7" data-name="Path 1803" transform="translate(-343.468 -139.475)"/>
                <path id="Path_1804" d="M419.364 162.934a.336.336 0 0 1-.336-.341v-1.385c0-.475-.21-.839-.713-.839a.749.749 0 0 0-.763.818v1.407a.336.336 0 0 1-.336.341.349.349 0 0 1-.35-.341v-1.385c0-.475-.209-.839-.713-.839a.759.759 0 0 0-.761.846v1.378a.343.343 0 0 1-.343.341.336.336 0 0 1-.336-.341v-2.456a.342.342 0 1 1 .685 0v.147a1.131 1.131 0 0 1 .938-.524 1.09 1.09 0 0 1 1.02.6 1.277 1.277 0 0 1 1.119-.6c.853 0 1.232.588 1.232 1.406v1.427a.343.343 0 0 1-.343.34z" class="cls-7" data-name="Path 1804" transform="translate(-342.976 -139.475)"/>
                <path id="Path_1805" d="M421.437 162.964a1.6 1.6 0 1 1 1.6-1.6 1.6 1.6 0 0 1-1.6 1.6zm0-2.6a1 1 0 1 0 .925.994.931.931 0 0 0-.925-.99z" class="cls-7" data-name="Path 1805" transform="translate(-342.272 -139.475)"/>
                <path id="Path_1806" d="M425.1 163.157a1.125 1.125 0 0 1-1-.532v.162a.342.342 0 0 1-.685 0v-4.1a.342.342 0 0 1 .685 0v1.8a1.186 1.186 0 0 1 1-.538 1.6 1.6 0 0 1 0 3.2zm-.083-2.6a1 1 0 0 0 0 1.987 1 1 0 0 0 0-1.987z" class="cls-7" data-name="Path 1806" transform="translate(-341.78 -139.668)"/>
                <path id="Path_1807" d="M427.379 159.206a.376.376 0 0 1-.378-.378.381.381 0 0 1 .378-.384.387.387 0 0 1 .384.384.382.382 0 0 1-.384.378zm0 3.909a.336.336 0 0 1-.336-.341v-2.462a.337.337 0 0 1 .336-.342.343.343 0 0 1 .342.342v2.462a.342.342 0 0 1-.342.341z" class="cls-7" data-name="Path 1807" transform="translate(-341.288 -139.655)"/>
                <path id="Path_1808" d="M429 163.128a.337.337 0 0 1-.342-.336v-4.1a.343.343 0 0 1 .342-.342.338.338 0 0 1 .337.342v4.1a.332.332 0 0 1-.337.336z" class="cls-7" data-name="Path 1808" transform="translate(-341.061 -139.668)"/>
                <path id="Path_1809" d="M432.884 161.571h-2.161a.885.885 0 0 0 .916.819 1.289 1.289 0 0 0 .91-.384.221.221 0 0 1 .168-.064.289.289 0 0 1 .223.113.279.279 0 0 1 .057.162.331.331 0 0 1-.1.223 1.815 1.815 0 0 1-1.281.525 1.6 1.6 0 0 1-1.6-1.6 1.579 1.579 0 0 1 1.58-1.6 1.529 1.529 0 0 1 1.54 1.588.236.236 0 0 1-.252.218zm-1.287-1.237a.842.842 0 0 0-.86.755h1.721a.859.859 0 0 0-.858-.756z" class="cls-7" data-name="Path 1809" transform="translate(-340.874 -139.475)"/>
                <path id="Path_1810" d="M434.047 162.636a.4.4 0 1 1 .4-.4.4.4 0 0 1-.4.4z" class="cls-7" data-name="Path 1810" transform="translate(-340.375 -139.189)"/>
                <path id="Path_1811" d="M437.973 162.466a1.666 1.666 0 0 1-1.162.5 1.6 1.6 0 0 1 0-3.2 1.5 1.5 0 0 1 1.035.349.329.329 0 0 1 .106.239.3.3 0 0 1-.287.287.32.32 0 0 1-.189-.064 1.1 1.1 0 0 0-.665-.216 1.01 1.01 0 0 0 0 2.013 1.117 1.117 0 0 0 .785-.321.266.266 0 0 1 .181-.069.29.29 0 0 1 .217.091.239.239 0 0 1 .069.174.332.332 0 0 1-.09.217z" class="cls-7" data-name="Path 1811" transform="translate(-340.161 -139.475)"/>
                <path id="Path_1812" d="M439.84 162.964a1.6 1.6 0 1 1 1.6-1.6 1.6 1.6 0 0 1-1.6 1.6zm0-2.6a1 1 0 1 0 .924.994.931.931 0 0 0-.924-.99z" class="cls-7" data-name="Path 1812" transform="translate(-339.745 -139.475)"/>
                <path id="Path_1813" d="M446.471 162.934a.336.336 0 0 1-.336-.341v-1.385c0-.475-.209-.839-.713-.839a.749.749 0 0 0-.763.818v1.407a.336.336 0 0 1-.336.341.348.348 0 0 1-.349-.341v-1.385c0-.475-.21-.839-.713-.839a.76.76 0 0 0-.762.846v1.378a.343.343 0 0 1-.343.341.336.336 0 0 1-.335-.341v-2.456a.343.343 0 1 1 .686 0v.147a1.131 1.131 0 0 1 .937-.524 1.091 1.091 0 0 1 1.021.6 1.274 1.274 0 0 1 1.118-.6c.854 0 1.232.588 1.232 1.406v1.427a.343.343 0 0 1-.344.34z" class="cls-7" data-name="Path 1813" transform="translate(-339.253 -139.475)"/>
                <path id="Path_1814" d="M355.386 170.672h-3.034a.326.326 0 0 1-.315-.329 2.023 2.023 0 0 1 1.421-1.9c.826-.4 1.49-.636 1.49-1.2 0-.475-.554-.671-1.022-.671a2.15 2.15 0 0 0-1.307.4.257.257 0 0 1-.161.049.359.359 0 0 1-.265-.125.31.31 0 0 1-.064-.189.4.4 0 0 1 .168-.295 2.691 2.691 0 0 1 1.622-.482c.812 0 1.742.433 1.742 1.3s-.679 1.2-1.385 1.525c-.51.238-1.384.615-1.4 1.279h2.51a.314.314 0 0 1 .316.314.32.32 0 0 1-.316.324z" class="cls-7" data-name="Path 1814" transform="translate(-351.583 -138.627)"/>
                <path id="Path_1815" d="M357.755 168.808h-1.33a.308.308 0 1 1 0-.615h1.33a.308.308 0 0 1 0 .615z" class="cls-7" data-name="Path 1815" transform="translate(-351.023 -138.316)"/>
                <path id="Path_1816" d="M364.578 169.867a2.388 2.388 0 1 1-1.839-3.937 2.237 2.237 0 0 1 1.566.608.376.376 0 0 1 .119.259.343.343 0 0 1-.084.223.316.316 0 0 1-.245.119.381.381 0 0 1-.231-.083 1.584 1.584 0 0 0-1.126-.434 1.728 1.728 0 1 0 1.343 2.776.312.312 0 0 1 .238-.1.347.347 0 0 1 .238.09.317.317 0 0 1 .1.238.4.4 0 0 1-.079.241z" class="cls-7" data-name="Path 1816" transform="translate(-350.438 -138.627)"/>
                <path id="Path_1817" d="M365.282 170.725a.337.337 0 0 1-.342-.336v-4.1a.343.343 0 0 1 .342-.342.338.338 0 0 1 .337.342v4.1a.332.332 0 0 1-.337.336z" class="cls-7" data-name="Path 1817" transform="translate(-349.811 -138.625)"/>
                <path id="Path_1818" d="M366.9 166.8a.376.376 0 0 1-.378-.378.381.381 0 0 1 .378-.384.387.387 0 0 1 .383.384.382.382 0 0 1-.383.378zm0 3.909a.337.337 0 0 1-.335-.342v-2.462a.337.337 0 0 1 .335-.342.342.342 0 0 1 .341.342v2.462a.342.342 0 0 1-.341.345z" class="cls-7" data-name="Path 1818" transform="translate(-349.594 -138.612)"/>
                <path id="Path_1819" d="M370.72 170.063a1.67 1.67 0 0 1-1.162.5 1.6 1.6 0 1 1 0-3.2 1.5 1.5 0 0 1 1.035.349.327.327 0 0 1 .106.239.294.294 0 0 1-.287.287.322.322 0 0 1-.189-.064 1.1 1.1 0 0 0-.665-.216 1.01 1.01 0 0 0 0 2.013 1.117 1.117 0 0 0 .785-.321.27.27 0 0 1 .181-.071.294.294 0 0 1 .217.091.242.242 0 0 1 .069.175.334.334 0 0 1-.09.218z" class="cls-7" data-name="Path 1819" transform="translate(-349.397 -138.431)"/>
                <path id="Path_1820" d="M373.682 170.718a.3.3 0 0 1-.245-.1l-1.154-1.315-.349.272v.812a.336.336 0 1 1-.671 0v-4.091a.336.336 0 1 1 .671 0v2.483l1.455-1.126a.312.312 0 0 1 .189-.071.328.328 0 0 1 .245.119.322.322 0 0 1 .077.2.317.317 0 0 1-.126.246l-.986.775 1.119 1.287a.323.323 0 0 1 .076.21.308.308 0 0 1-.301.299z" class="cls-7" data-name="Path 1820" transform="translate(-348.943 -138.625)"/>
                <path id="Path_1821" d="M377.588 170.56a1.6 1.6 0 1 1 1.6-1.6 1.6 1.6 0 0 1-1.6 1.6zm0-2.6a1 1 0 1 0 .924.994.932.932 0 0 0-.924-.99z" class="cls-7" data-name="Path 1821" transform="translate(-348.294 -138.431)"/>
                <path id="Path_1822" d="M382.17 170.531a.336.336 0 0 1-.341-.336V168.8a.756.756 0 0 0-.77-.84.8.8 0 0 0-.811.846v1.394a.332.332 0 0 1-.337.336.337.337 0 0 1-.342-.336v-2.461a.344.344 0 0 1 .336-.35.351.351 0 0 1 .343.35v.154a1.23 1.23 0 0 1 1-.531 1.271 1.271 0 0 1 1.258 1.426v1.412a.331.331 0 0 1-.336.331z" class="cls-7" data-name="Path 1822" transform="translate(-347.802 -138.431)"/>
                <path id="Path_1823" d="M388.658 170.691a.383.383 0 0 1-.147.034.349.349 0 0 1-.322-.21l-.44-.993H385.6l-.441.993a.357.357 0 0 1-.329.21.336.336 0 0 1-.139-.027.354.354 0 0 1-.2-.322.383.383 0 0 1 .028-.154l1.839-4.064a.365.365 0 0 1 .322-.209.352.352 0 0 1 .322.209l1.84 4.064a.394.394 0 0 1 .027.147.343.343 0 0 1-.211.322zm-1.986-3.575l-.79 1.77h1.581z" class="cls-7" data-name="Path 1823" transform="translate(-347.127 -138.625)"/>
                <path id="Path_1824" d="M391.493 170.063a1.67 1.67 0 0 1-1.161.5 1.6 1.6 0 1 1 0-3.2 1.5 1.5 0 0 1 1.035.349.327.327 0 0 1 .106.239.3.3 0 0 1-.064.174.294.294 0 0 1-.223.113.317.317 0 0 1-.189-.064 1.1 1.1 0 0 0-.665-.216 1.01 1.01 0 0 0 0 2.013 1.112 1.112 0 0 0 .784-.321.272.272 0 0 1 .181-.071.3.3 0 0 1 .218.091.241.241 0 0 1 .068.175.329.329 0 0 1-.09.218z" class="cls-7" data-name="Path 1824" transform="translate(-346.544 -138.431)"/>
                <path id="Path_1825" d="M393.729 168.166h-.587v2.181a.344.344 0 0 1-.687 0v-2.181h-.51a.286.286 0 0 1-.28-.288.28.28 0 0 1 .28-.28h.51v-1.007a.344.344 0 0 1 .687 0v1.009h.587a.281.281 0 0 1 .28.28.287.287 0 0 1-.28.286z" class="cls-7" data-name="Path 1825" transform="translate(-346.141 -138.583)"/>
                <path id="Path_1826" d="M394.711 166.8a.376.376 0 0 1-.378-.378.381.381 0 0 1 .378-.384.387.387 0 0 1 .384.384.382.382 0 0 1-.384.378zm0 3.909a.337.337 0 0 1-.336-.342v-2.462a.337.337 0 0 1 .336-.342.343.343 0 0 1 .342.342v2.462a.343.343 0 0 1-.342.345z" class="cls-7" data-name="Path 1826" transform="translate(-345.775 -138.612)"/>
                <path id="Path_1827" d="M398.422 167.814l-1.133 2.533a.318.318 0 0 1-.28.181.307.307 0 0 1-.273-.181l-1.14-2.533a.264.264 0 0 1-.028-.125.31.31 0 0 1 .182-.28.354.354 0 0 1 .126-.028.306.306 0 0 1 .279.182l.854 1.916.86-1.916a.306.306 0 0 1 .28-.182.284.284 0 0 1 .113.022.325.325 0 0 1 .189.293.238.238 0 0 1-.029.118z" class="cls-7" data-name="Path 1827" transform="translate(-345.605 -138.428)"/>
                <path id="Path_1828" d="M400.982 170.531a.342.342 0 0 1-.341-.342v-.063a1.113 1.113 0 0 1-.944.433 1.092 1.092 0 0 1-1.154-1.028 1.04 1.04 0 0 1 1.167-1.013 1.345 1.345 0 0 1 .938.322v-.267c0-.469-.251-.636-.819-.636a2.056 2.056 0 0 0-.853.182.31.31 0 0 1-.119.022.268.268 0 0 1-.243-.155.272.272 0 0 1 .132-.37 2.534 2.534 0 0 1 1.141-.259c.86 0 1.44.329 1.44 1.231v1.6a.343.343 0 0 1-.345.343zm-1.076-1.49c-.337 0-.693.126-.693.49s.371.5.685.5c.35 0 .743-.161.743-.5-.001-.384-.393-.49-.735-.49z" class="cls-7" data-name="Path 1828" transform="translate(-345.197 -138.431)"/>
                <path id="Path_1829" d="M403.572 168.166h-.587v2.181a.344.344 0 0 1-.687 0v-2.181h-.51a.286.286 0 0 1-.28-.288.28.28 0 0 1 .28-.28h.51v-1.007a.344.344 0 0 1 .687 0v1.009h.587a.28.28 0 0 1 .279.28.286.286 0 0 1-.279.286z" class="cls-7" data-name="Path 1829" transform="translate(-344.789 -138.583)"/>
                <path id="Path_1830" d="M406.766 169.168h-2.161a.885.885 0 0 0 .916.819 1.289 1.289 0 0 0 .91-.384.22.22 0 0 1 .167-.064.289.289 0 0 1 .224.113.276.276 0 0 1 .057.16.332.332 0 0 1-.1.224 1.814 1.814 0 0 1-1.281.524 1.6 1.6 0 0 1-1.6-1.6 1.58 1.58 0 0 1 1.581-1.6 1.53 1.53 0 0 1 1.54 1.588.236.236 0 0 1-.253.22zm-1.287-1.237a.841.841 0 0 0-.86.755h1.721a.859.859 0 0 0-.861-.756z" class="cls-7" data-name="Path 1830" transform="translate(-344.461 -138.431)"/>
                <path id="Path_1831" d="M353.732 178.359a2.409 2.409 0 0 1-1.832-.755.384.384 0 0 1-.077-.231.3.3 0 0 1 .084-.217.323.323 0 0 1 .231-.091.281.281 0 0 1 .224.1 1.694 1.694 0 0 0 1.371.566c.532 0 1.133-.238 1.133-.838 0-.553-.511-.805-1.315-.805h-.293a.306.306 0 0 1-.3-.308.3.3 0 0 1 .3-.3h.342c.574 0 .952-.231.952-.679s-.392-.664-.834-.664a1.751 1.751 0 0 0-1.062.342.291.291 0 0 1-.391-.064.256.256 0 0 1-.057-.147.335.335 0 0 1 .119-.243 2.342 2.342 0 0 1 1.448-.5 1.31 1.31 0 0 1 1.468 1.209 1.147 1.147 0 0 1-.566.966 1.279 1.279 0 0 1 .9 1.224c0 .976-.957 1.435-1.845 1.435z" class="cls-7" data-name="Path 1831" transform="translate(-351.613 -137.584)"/>
                <path id="Path_1832" d="M357.65 176.4h-1.33a.308.308 0 0 1 0-.615h1.33a.308.308 0 1 1 0 .615z" class="cls-7" data-name="Path 1832" transform="translate(-351.037 -137.273)"/>
                <path id="Path_1833" d="M363.717 178.258h-2.7a.376.376 0 0 1-.378-.378v-3.91a.37.37 0 0 1 .378-.371h2.594a.346.346 0 0 1 .356.343.357.357 0 0 1-.356.356h-2.224v1.231h1.245a.35.35 0 0 1 0 .7h-1.245v1.328h2.329a.35.35 0 0 1 0 .7z" class="cls-7" data-name="Path 1833" transform="translate(-350.402 -137.574)"/>
                <path id="Path_1834" d="M366.866 178.127a.337.337 0 0 1-.342-.336V176.4a.754.754 0 0 0-.77-.839.8.8 0 0 0-.811.846v1.385a.332.332 0 0 1-.337.336.336.336 0 0 1-.341-.336v-2.461a.344.344 0 0 1 .335-.35.35.35 0 0 1 .342.35v.154a1.232 1.232 0 0 1 1-.531 1.271 1.271 0 0 1 1.259 1.426v1.413a.331.331 0 0 1-.335.334z" class="cls-7" data-name="Path 1834" transform="translate(-349.904 -137.388)"/>
                <path id="Path_1835" d="M369.431 175.762h-.588v2.181a.343.343 0 0 1-.686 0v-2.181h-.511a.287.287 0 0 1-.28-.288.281.281 0 0 1 .28-.28h.511v-1.007a.343.343 0 0 1 .686 0v1.007h.588a.281.281 0 0 1 .279.28.287.287 0 0 1-.279.288z" class="cls-7" data-name="Path 1835" transform="translate(-349.478 -137.539)"/>
                <path id="Path_1836" d="M372.624 176.764h-2.161a.884.884 0 0 0 .917.818 1.286 1.286 0 0 0 .909-.384.22.22 0 0 1 .168-.063.291.291 0 0 1 .223.111.279.279 0 0 1 .057.161.324.324 0 0 1-.1.223 1.808 1.808 0 0 1-1.281.525 1.6 1.6 0 0 1-1.6-1.6 1.579 1.579 0 0 1 1.58-1.6 1.528 1.528 0 0 1 1.54 1.587.237.237 0 0 1-.252.222zm-1.287-1.237a.84.84 0 0 0-.859.755h1.72a.857.857 0 0 0-.861-.756z" class="cls-7" data-name="Path 1836" transform="translate(-349.15 -137.388)"/>
                <path id="Path_1837" d="M375.059 175.56a.96.96 0 0 0-1.078.9v1.322a.342.342 0 1 1-.685 0v-2.462a.337.337 0 0 1 .336-.342.349.349 0 0 1 .349.342v.148a1.209 1.209 0 0 1 1.078-.517.3.3 0 0 1 .3.3.3.3 0 0 1-.3.309z" class="cls-7" data-name="Path 1837" transform="translate(-348.664 -137.388)"/>
                <path id="Path_1838" d="M379.107 175.762h-.587v2.181a.344.344 0 0 1-.687 0v-2.181h-.51a.286.286 0 0 1-.28-.288.28.28 0 0 1 .28-.28h.51v-1.007a.344.344 0 0 1 .687 0v1.007h.587a.281.281 0 0 1 .28.28.287.287 0 0 1-.28.288z" class="cls-7" data-name="Path 1838" transform="translate(-348.149 -137.539)"/>
                <path id="Path_1839" d="M382.305 178.321a.331.331 0 0 1-.336-.336v-1.392a.754.754 0 0 0-.769-.839.8.8 0 0 0-.819.846v1.385a.336.336 0 1 1-.671 0v-4.106a.33.33 0 0 1 .336-.334.334.334 0 0 1 .336.334v1.784a1.219 1.219 0 0 1 1-.517 1.271 1.271 0 0 1 1.258 1.426v1.413a.331.331 0 0 1-.335.336z" class="cls-7" data-name="Path 1839" transform="translate(-347.783 -137.581)"/>
                <path id="Path_1840" d="M385.827 176.764h-2.161a.884.884 0 0 0 .917.818 1.291 1.291 0 0 0 .91-.384.216.216 0 0 1 .167-.063.291.291 0 0 1 .223.111.271.271 0 0 1 .057.161.324.324 0 0 1-.1.223 1.808 1.808 0 0 1-1.281.525 1.6 1.6 0 0 1-1.6-1.6 1.579 1.579 0 0 1 1.581-1.6 1.528 1.528 0 0 1 1.539 1.587.237.237 0 0 1-.252.222zm-1.286-1.237a.84.84 0 0 0-.86.755h1.72a.857.857 0 0 0-.86-.756z" class="cls-7" data-name="Path 1840" transform="translate(-347.336 -137.388)"/>
                <path id="Path_1841" d="M390.507 178.127a.343.343 0 0 1-.342-.342v-.064a1.111 1.111 0 0 1-.944.434 1.093 1.093 0 0 1-1.154-1.028 1.041 1.041 0 0 1 1.168-1.014 1.347 1.347 0 0 1 .937.322v-.266c0-.469-.251-.636-.819-.636a2.06 2.06 0 0 0-.853.182.327.327 0 0 1-.118.02.269.269 0 0 1-.245-.155.3.3 0 0 1-.027-.11.311.311 0 0 1 .159-.259 2.55 2.55 0 0 1 1.141-.258c.86 0 1.441.329 1.441 1.231v1.6a.344.344 0 0 1-.344.343zm-1.076-1.49c-.337 0-.694.126-.694.49s.371.5.686.5c.349 0 .742-.16.742-.5-.001-.384-.393-.49-.734-.49z" class="cls-7" data-name="Path 1841" transform="translate(-346.635 -137.388)"/>
                <path id="Path_1842" d="M393.95 177.659a1.67 1.67 0 0 1-1.161.5 1.6 1.6 0 0 1 0-3.2 1.5 1.5 0 0 1 1.035.348.329.329 0 0 1 .106.239.3.3 0 0 1-.064.175.293.293 0 0 1-.223.111.319.319 0 0 1-.189-.063 1.1 1.1 0 0 0-.665-.217 1.01 1.01 0 0 0 0 2.014 1.108 1.108 0 0 0 .784-.322.277.277 0 0 1 .181-.069.291.291 0 0 1 .218.091.24.24 0 0 1 .068.174.329.329 0 0 1-.09.219z" class="cls-7" data-name="Path 1842" transform="translate(-346.207 -137.388)"/>
                <path id="Path_1843" d="M396.187 175.762h-.587v2.181a.344.344 0 0 1-.687 0v-2.181h-.51a.286.286 0 0 1-.28-.288.28.28 0 0 1 .28-.28h.51v-1.007a.344.344 0 0 1 .687 0v1.007h.587a.281.281 0 0 1 .28.28.287.287 0 0 1-.28.288z" class="cls-7" data-name="Path 1843" transform="translate(-345.803 -137.539)"/>
                <path id="Path_1844" d="M397.169 174.4a.375.375 0 0 1-.378-.378.382.382 0 0 1 .378-.384.388.388 0 0 1 .384.384.381.381 0 0 1-.384.378zm0 3.91a.337.337 0 0 1-.336-.342V175.5a.337.337 0 0 1 .336-.342.343.343 0 0 1 .342.342v2.462a.343.343 0 0 1-.342.346z" class="cls-7" data-name="Path 1844" transform="translate(-345.437 -137.569)"/>
                <path id="Path_1845" d="M400.879 175.41l-1.133 2.533a.32.32 0 0 1-.28.181.309.309 0 0 1-.273-.181l-1.14-2.533a.265.265 0 0 1-.028-.125.309.309 0 0 1 .182-.28.354.354 0 0 1 .126-.028.307.307 0 0 1 .279.181l.854 1.918.86-1.918a.307.307 0 0 1 .28-.181.284.284 0 0 1 .113.022.325.325 0 0 1 .189.293.239.239 0 0 1-.029.118z" class="cls-7" data-name="Path 1845" transform="translate(-345.268 -137.385)"/>
                <path id="Path_1846" d="M403.44 178.127a.343.343 0 0 1-.342-.342v-.064a1.111 1.111 0 0 1-.944.434 1.093 1.093 0 0 1-1.154-1.027 1.04 1.04 0 0 1 1.167-1.014 1.35 1.35 0 0 1 .938.322v-.266c0-.469-.251-.636-.819-.636a2.056 2.056 0 0 0-.853.182.333.333 0 0 1-.119.02.269.269 0 0 1-.243-.155.3.3 0 0 1-.028-.11.312.312 0 0 1 .16-.259 2.547 2.547 0 0 1 1.141-.258c.86 0 1.44.329 1.44 1.231v1.6a.343.343 0 0 1-.344.342zm-1.077-1.49c-.337 0-.693.126-.693.49s.371.5.685.5c.35 0 .743-.16.743-.5.002-.384-.398-.49-.735-.49z" class="cls-7" data-name="Path 1846" transform="translate(-344.859 -137.388)"/>
                <path id="Path_1847" d="M406.03 175.762h-.587v2.181a.344.344 0 0 1-.687 0v-2.181h-.51a.286.286 0 0 1-.28-.288.28.28 0 0 1 .28-.28h.51v-1.007a.344.344 0 0 1 .687 0v1.007h.587a.28.28 0 0 1 .279.28.286.286 0 0 1-.279.288z" class="cls-7" data-name="Path 1847" transform="translate(-344.452 -137.539)"/>
                <path id="Path_1848" d="M407.012 174.4a.375.375 0 0 1-.378-.378.382.382 0 0 1 .378-.384.388.388 0 0 1 .384.384.382.382 0 0 1-.384.378zm0 3.91a.337.337 0 0 1-.336-.342V175.5a.337.337 0 0 1 .336-.342.343.343 0 0 1 .342.342v2.462a.343.343 0 0 1-.342.346z" class="cls-7" data-name="Path 1848" transform="translate(-344.085 -137.569)"/>
                <path id="Path_1849" d="M409.672 178.156a1.6 1.6 0 1 1 1.6-1.6 1.6 1.6 0 0 1-1.6 1.6zm0-2.6a1 1 0 1 0 .924.994.931.931 0 0 0-.924-.99z" class="cls-7" data-name="Path 1849" transform="translate(-343.888 -137.388)"/>
                <path id="Path_1850" d="M414.254 178.127a.336.336 0 0 1-.341-.336V176.4a.755.755 0 0 0-.77-.839.8.8 0 0 0-.811.846v1.385a.332.332 0 0 1-.337.336.337.337 0 0 1-.342-.336v-2.461a.344.344 0 0 1 .336-.35.351.351 0 0 1 .343.35v.154a1.23 1.23 0 0 1 1-.531 1.271 1.271 0 0 1 1.258 1.426v1.413a.331.331 0 0 1-.336.334z" class="cls-7" data-name="Path 1850" transform="translate(-343.396 -137.388)"/>
                <path id="Path_1851" d="M419.485 177.659a1.667 1.667 0 0 1-1.161.5 1.6 1.6 0 1 1 0-3.2 1.5 1.5 0 0 1 1.035.348.329.329 0 0 1 .106.239.3.3 0 0 1-.064.175.293.293 0 0 1-.223.111.318.318 0 0 1-.189-.063 1.1 1.1 0 0 0-.665-.217 1.01 1.01 0 0 0 0 2.014 1.108 1.108 0 0 0 .784-.322.277.277 0 0 1 .182-.069.29.29 0 0 1 .217.091.24.24 0 0 1 .068.174.329.329 0 0 1-.09.219z" class="cls-7" data-name="Path 1851" transform="translate(-342.7 -137.388)"/>
                <path id="Path_1852" d="M421.351 178.156a1.6 1.6 0 1 1 1.6-1.6 1.6 1.6 0 0 1-1.6 1.6zm0-2.6a1 1 0 1 0 .925.994.931.931 0 0 0-.925-.99z" class="cls-7" data-name="Path 1852" transform="translate(-342.284 -137.388)"/>
                <path id="Path_1853" d="M425.979 178.321a.344.344 0 0 1-.343-.342v-.161a1.124 1.124 0 0 1-1 .532 1.6 1.6 0 0 1 0-3.2 1.115 1.115 0 0 1 1 .537v-1.8a.343.343 0 0 1 .686 0v4.1a.343.343 0 0 1-.343.334zm-1.26-2.567a1 1 0 0 0 0 1.987 1 1 0 0 0 0-1.987z" class="cls-7" data-name="Path 1853" transform="translate(-341.822 -137.581)"/>
                <path id="Path_1854" d="M429.505 176.764h-2.161a.884.884 0 0 0 .916.818 1.289 1.289 0 0 0 .91-.384.22.22 0 0 1 .168-.063.291.291 0 0 1 .223.111.279.279 0 0 1 .057.161.324.324 0 0 1-.1.223 1.809 1.809 0 0 1-1.281.525 1.6 1.6 0 0 1-1.6-1.6 1.579 1.579 0 0 1 1.58-1.6 1.528 1.528 0 0 1 1.54 1.587.237.237 0 0 1-.252.222zm-1.287-1.237a.841.841 0 0 0-.86.755h1.721a.857.857 0 0 0-.861-.756z" class="cls-7" data-name="Path 1854" transform="translate(-341.338 -137.388)"/>
                <path id="Path_1855" d="M433.613 178.349a1.124 1.124 0 0 1-1-.532v.161a.342.342 0 0 1-.685 0v-4.1a.342.342 0 0 1 .685 0v1.8a1.185 1.185 0 0 1 1-.537 1.6 1.6 0 0 1 0 3.2zm-.083-2.6a1 1 0 0 0 0 1.987 1 1 0 0 0 0-1.987z" class="cls-7" data-name="Path 1855" transform="translate(-340.612 -137.581)"/>
                <path id="Path_1856" d="M438.162 176.764H436a.884.884 0 0 0 .917.818 1.286 1.286 0 0 0 .909-.384.22.22 0 0 1 .168-.063.291.291 0 0 1 .223.111.279.279 0 0 1 .057.161.324.324 0 0 1-.1.223 1.808 1.808 0 0 1-1.281.525 1.6 1.6 0 0 1-1.6-1.6 1.579 1.579 0 0 1 1.581-1.6 1.528 1.528 0 0 1 1.539 1.587.237.237 0 0 1-.251.222zm-1.286-1.237a.84.84 0 0 0-.86.755h1.72a.857.857 0 0 0-.86-.756z" class="cls-7" data-name="Path 1856" transform="translate(-340.149 -137.388)"/>
                <path id="Path_1857" d="M439.176 178.321a.337.337 0 0 1-.342-.336v-4.1a.342.342 0 0 1 .342-.341.337.337 0 0 1 .337.341v4.1a.332.332 0 0 1-.337.336z" class="cls-7" data-name="Path 1857" transform="translate(-339.663 -137.581)"/>
                <path id="Path_1858" d="M441.8 178.156a1.6 1.6 0 1 1 1.6-1.6 1.6 1.6 0 0 1-1.6 1.6zm0-2.6a1 1 0 1 0 .925.994.931.931 0 0 0-.925-.99z" class="cls-7" data-name="Path 1858" transform="translate(-339.476 -137.388)"/>
                <path id="Path_1859" d="M447.611 175.4l-.952 2.532a.3.3 0 0 1-.287.2.308.308 0 0 1-.287-.2l-.574-1.686-.573 1.686a.3.3 0 0 1-.28.2.314.314 0 0 1-.293-.2l-.952-2.532a.294.294 0 0 1-.019-.111.312.312 0 0 1 .189-.287.3.3 0 0 1 .118-.022.287.287 0 0 1 .279.189l.651 1.777.6-1.763a.292.292 0 0 1 .279-.2.3.3 0 0 1 .28.2l.6 1.763.657-1.77a.3.3 0 0 1 .28-.2.3.3 0 0 1 .308.308.37.37 0 0 1-.024.116z" class="cls-7" data-name="Path 1859" transform="translate(-339.037 -137.385)"/>
            </g>
            <path id="Rectangle_1762" d="M0 0h103.142v14.517H0z" class="cls-8" data-name="Rectangle 1762" transform="translate(.542 112.478)"/>
            <path id="Rectangle_1763" d="M0 0h119.981v26.045H0z" class="cls-9" data-name="Rectangle 1763" transform="translate(.542 132.28)"/>
            <g id="Group_1073" data-name="Group 1073" transform="translate(108.786 117.842)">
                <path id="Path_1860" d="M450.3 190.852a.266.266 0 0 1-.1.025.252.252 0 0 1-.232-.151l-.32-.718h-1.555l-.318.718a.258.258 0 0 1-.237.151.231.231 0 0 1-.1-.02.255.255 0 0 1-.147-.232.276.276 0 0 1 .02-.111l1.328-2.934a.263.263 0 0 1 .232-.151.254.254 0 0 1 .232.151l1.328 2.934a.271.271 0 0 1 .019.106.248.248 0 0 1-.15.232zm-1.433-2.581l-.571 1.278h1.142z" class="cls-7" data-name="Path 1860" transform="translate(-447.288 -187.428)"/>
                <path id="Path_1861" d="M452.353 190.4a1.205 1.205 0 0 1-.838.358 1.157 1.157 0 1 1 0-2.313 1.089 1.089 0 0 1 .747.252.237.237 0 0 1 .076.172.223.223 0 0 1-.046.126.213.213 0 0 1-.161.081.235.235 0 0 1-.136-.044.791.791 0 0 0-.48-.157.729.729 0 0 0 0 1.454.8.8 0 0 0 .565-.232.2.2 0 0 1 .131-.051.211.211 0 0 1 .157.067.172.172 0 0 1 .051.125.242.242 0 0 1-.066.162z" class="cls-7" data-name="Path 1861" transform="translate(-446.866 -187.288)"/>
                <path id="Path_1862" d="M453.971 189.03h-.424v1.57a.247.247 0 0 1-.495 0v-1.57h-.368a.209.209 0 0 1-.2-.208.2.2 0 0 1 .2-.2h.368v-.728a.247.247 0 0 1 .495 0v.728h.424a.2.2 0 0 1 .2.2.208.208 0 0 1-.2.208z" class="cls-7" data-name="Path 1862" transform="translate(-446.575 -187.398)"/>
                <path id="Path_1863" d="M454.681 188.045a.271.271 0 0 1-.272-.273.276.276 0 0 1 .272-.278.28.28 0 0 1 .279.278.276.276 0 0 1-.279.273zm0 2.823a.243.243 0 0 1-.241-.247v-1.779a.243.243 0 0 1 .241-.247.247.247 0 0 1 .248.247v1.779a.248.248 0 0 1-.248.247z" class="cls-7" data-name="Path 1863" transform="translate(-446.31 -187.419)"/>
                <path id="Path_1864" d="M457.363 188.776l-.818 1.828a.231.231 0 0 1-.2.132.222.222 0 0 1-.2-.132l-.823-1.828a.2.2 0 0 1-.019-.091.225.225 0 0 1 .131-.2.26.26 0 0 1 .091-.019.222.222 0 0 1 .2.131l.615 1.384.621-1.384a.22.22 0 0 1 .2-.131.21.21 0 0 1 .082.015.235.235 0 0 1 .136.213.18.18 0 0 1-.016.082z" class="cls-7" data-name="Path 1864" transform="translate(-446.187 -187.286)"/>
                <path id="Path_1865" d="M459.214 190.738a.248.248 0 0 1-.248-.247v-.046a.8.8 0 0 1-.68.313.79.79 0 0 1-.835-.743.752.752 0 0 1 .844-.732.978.978 0 0 1 .677.232v-.192c0-.337-.182-.459-.59-.459a1.492 1.492 0 0 0-.616.132.234.234 0 0 1-.086.015.193.193 0 0 1-.176-.111.222.222 0 0 1-.019-.08.23.23 0 0 1 .115-.188 1.831 1.831 0 0 1 .823-.187c.622 0 1.041.238 1.041.888v1.158a.248.248 0 0 1-.25.247zm-.778-1.076c-.242 0-.5.091-.5.354s.267.364.494.364c.254 0 .536-.116.536-.364 0-.278-.282-.354-.53-.354z" class="cls-7" data-name="Path 1865" transform="translate(-445.892 -187.288)"/>
                <path id="Path_1866" d="M461.087 189.03h-.424v1.57a.247.247 0 0 1-.494 0v-1.57h-.37a.208.208 0 0 1-.2-.208.2.2 0 0 1 .2-.2h.37v-.728a.247.247 0 0 1 .494 0v.728h.424a.2.2 0 0 1 .2.2.208.208 0 0 1-.2.208z" class="cls-7" data-name="Path 1866" transform="translate(-445.597 -187.398)"/>
                <path id="Path_1867" d="M461.8 188.045a.272.272 0 0 1-.273-.273.276.276 0 0 1 .273-.278.28.28 0 0 1 .278.278.275.275 0 0 1-.278.273zm0 2.823a.244.244 0 0 1-.242-.247v-1.779a.243.243 0 0 1 .242-.247.247.247 0 0 1 .247.247v1.779a.247.247 0 0 1-.247.247z" class="cls-7" data-name="Path 1867" transform="translate(-445.333 -187.419)"/>
                <path id="Path_1868" d="M463.722 190.758a1.157 1.157 0 1 1 1.157-1.157 1.153 1.153 0 0 1-1.157 1.157zm0-1.873a.718.718 0 1 0 .667.717.672.672 0 0 0-.667-.717z" class="cls-7" data-name="Path 1868" transform="translate(-445.19 -187.288)"/>
                <path id="Path_1869" d="M467.034 190.738a.244.244 0 0 1-.248-.242v-1.006a.543.543 0 0 0-.555-.605.576.576 0 0 0-.586.611v1a.24.24 0 0 1-.242.242.244.244 0 0 1-.248-.242v-1.778a.248.248 0 0 1 .242-.252.252.252 0 0 1 .248.252v.111a.892.892 0 0 1 .722-.384.919.919 0 0 1 .909 1.03v1.02a.239.239 0 0 1-.242.243z" class="cls-7" data-name="Path 1869" transform="translate(-444.834 -187.288)"/>
                <path id="Path_1870" d="M470.815 190.4a1.205 1.205 0 0 1-.838.358 1.157 1.157 0 1 1 0-2.313 1.089 1.089 0 0 1 .747.252.237.237 0 0 1 .076.172.223.223 0 0 1-.045.126.213.213 0 0 1-.161.081.235.235 0 0 1-.136-.044.791.791 0 0 0-.48-.157.729.729 0 0 0 0 1.454.8.8 0 0 0 .565-.232.2.2 0 0 1 .131-.051.211.211 0 0 1 .157.067.172.172 0 0 1 .051.125.241.241 0 0 1-.067.162z" class="cls-7" data-name="Path 1870" transform="translate(-444.331 -187.288)"/>
                <path id="Path_1871" d="M472.166 190.758a1.157 1.157 0 1 1 1.157-1.157 1.152 1.152 0 0 1-1.157 1.157zm0-1.873a.718.718 0 1 0 .667.717.672.672 0 0 0-.667-.717z" class="cls-7" data-name="Path 1871" transform="translate(-444.03 -187.288)"/>
                <path id="Path_1872" d="M475.509 190.878a.249.249 0 0 1-.248-.247v-.117a.811.811 0 0 1-.722.384 1.158 1.158 0 0 1 0-2.313.806.806 0 0 1 .722.389v-1.3a.248.248 0 0 1 .5 0v2.96a.248.248 0 0 1-.252.244zm-.909-1.853a.719.719 0 0 0 0 1.433.719.719 0 0 0 0-1.433z" class="cls-7" data-name="Path 1872" transform="translate(-443.696 -187.428)"/>
                <path id="Path_1873" d="M478.061 189.753H476.5a.64.64 0 0 0 .662.591.939.939 0 0 0 .657-.278.153.153 0 0 1 .121-.046.21.21 0 0 1 .161.08.206.206 0 0 1 .041.117.238.238 0 0 1-.072.161 1.311 1.311 0 0 1-.924.379 1.153 1.153 0 0 1-1.157-1.157 1.141 1.141 0 0 1 1.141-1.157 1.1 1.1 0 0 1 1.112 1.146.171.171 0 0 1-.181.164zm-.93-.894a.608.608 0 0 0-.621.546h1.242a.619.619 0 0 0-.621-.546z" class="cls-7" data-name="Path 1873" transform="translate(-443.346 -187.288)"/>
            </g>
        </g>
        <g id="Module_Shapes" data-name="Module Shapes" transform="translate(534.016 142.725)">
            <path id="Path_1874" d="M509.193 158.3a5.125 5.125 0 0 0 5.1 5.152h33.789a5.125 5.125 0 0 0 5.1-5.152v-17.54a5.124 5.124 0 0 0-5.1-5.151h-33.794a5.124 5.124 0 0 0-5.1 5.151z" class="cls-10" data-name="Path 1874" transform="translate(-509.193 -135.606)"/>
        </g>
        <g id="_2FF_Plug" data-name="2FF Plug" transform="translate(501.332 134.159)">
            <g id="Group_1074" data-name="Group 1074">
                <path id="Path_1875" d="M560.094 133.352a2.141 2.141 0 0 0-2.137-2.138h-53.674v-3.14h53.674a5.283 5.283 0 0 1 5.276 5.278v4.626h-3.139v-4.626z" class="cls-11" data-name="Path 1875" transform="translate(-477.184 -128.074)"/>
                <path id="Path_1876" d="M485.732 128.074h18.838v3.14h-18.838a2.139 2.139 0 0 0-2.137 2.138v36.107l-.122-.121.122.292v-.172l9.408 9.3h-.169l.289.118-.119-.118h11.566v3.139h-11.736a2.714 2.714 0 0 1-1.919-.788l-9.648-9.533a2.75 2.75 0 0 1-.811-1.941v-36.283a5.283 5.283 0 0 1 5.276-5.278z" class="cls-11" data-name="Path 1876" transform="translate(-480.456 -128.074)"/>
                <path id="Path_1877" d="M504.283 173.449h53.674a2.142 2.142 0 0 0 2.137-2.139v-4.6h3.139v4.6a5.283 5.283 0 0 1-5.276 5.278h-53.674v-3.139z" class="cls-11" data-name="Path 1877" transform="translate(-477.184 -122.768)"/>
            </g>
        </g>
        <g id="_3FF_MicroSIM" data-name="3FF MicroSIM" transform="translate(528.543 138.729)">
            <g id="Group_1079" data-name="Group 1079">
                <g id="Group_1075" data-name="Group 1075" transform="translate(0 .132)">
                    <g id="LINE" transform="translate(3.323 34.969)">
                        <path id="Line_436" d="M5.913 5.911L0 0" class="cls-12" data-name="Line 436"/>
                    </g>
                    <g id="LINE-2" data-name="LINE" transform="translate(2.584 4.996)">
                        <path id="Line_437" d="M0 28.262V0" class="cls-12" data-name="Line 437"/>
                    </g>
                    <g id="ARC" transform="translate(2.584 2.579)">
                        <path id="Path_1878" d="M506.653 136.894a2.443 2.443 0 0 1 2.448-2.417" class="cls-12" data-name="Path 1878" transform="translate(-506.653 -134.477)"/>
                    </g>
                    <g id="LINE-3" data-name="LINE" transform="translate(5.032 2.579)">
                        <path id="Line_438" d="M0 0h4.691" class="cls-12" data-name="Line 438"/>
                    </g>
                    <g id="LINE-4" data-name="LINE" transform="translate(11.962 1.29)">
                        <path id="Line_439" d="M0 1.483V0" class="cls-12" data-name="Line 439"/>
                    </g>
                    <g id="ARC-2" data-name="ARC" transform="translate(10.672)">
                        <path id="Path_1879" d="M513.764 132.209a1.29 1.29 0 0 1 1.291 1.29" class="cls-12" data-name="Path 1879" transform="translate(-513.764 -132.209)"/>
                    </g>
                    <g id="LINE-5" data-name="LINE" transform="translate(5.032)">
                        <path id="Line_440" d="M5.64 0H0" class="cls-12" data-name="Line 440"/>
                    </g>
                    <g id="ARC-3" data-name="ARC" transform="translate(.005)">
                        <path id="Path_1880" d="M504.385 137.205a5.023 5.023 0 0 1 5.027-5" class="cls-12" data-name="Path 1880" transform="translate(-504.385 -132.209)"/>
                    </g>
                    <g id="LINE-6" data-name="LINE" transform="translate(.005 4.996)">
                        <path id="Line_441" d="M0 0v28.262" class="cls-12" data-name="Line 441"/>
                    </g>
                    <g id="ARC-4" data-name="ARC" transform="translate(2.582 33.258)">
                        <path id="Path_1881" d="M507.393 163.162a2.445 2.445 0 0 1-.739-1.711" class="cls-12" data-name="Path 1881" transform="translate(-506.651 -161.451)"/>
                    </g>
                    <g id="LINE-7" data-name="LINE" transform="translate(1.502 36.792)">
                        <path id="Line_442" d="M0 0l6.222 6.224" class="cls-12" data-name="Line 442"/>
                    </g>
                    <g id="ARC-5" data-name="ARC" transform="translate(0 33.258)">
                        <path id="Path_1882" d="M505.883 164.986a5.032 5.032 0 0 1-1.5-3.535" class="cls-12" data-name="Path 1882" transform="translate(-504.381 -161.451)"/>
                    </g>
                    <g id="LINE-8" data-name="LINE" transform="translate(11.64 41.708)">
                        <path id="Line_443" d="M0 0v1.368" class="cls-12" data-name="Line 443"/>
                    </g>
                    <g id="ARC-6" data-name="ARC" transform="translate(7.724 43.017)">
                        <path id="Path_1883" d="M513.483 171.342a5 5 0 0 1-2.311-1.31" class="cls-12" data-name="Path 1883" transform="translate(-511.172 -170.032)"/>
                    </g>
                    <g id="ARC-7" data-name="ARC" transform="translate(10.035 43.076)">
                        <path id="Path_1884" d="M514.81 170.084a1.291 1.291 0 0 1-1.291 1.291 1.407 1.407 0 0 1-.315-.04" class="cls-12" data-name="Path 1884" transform="translate(-513.204 -170.084)"/>
                    </g>
                    <g id="ARC-8" data-name="ARC" transform="translate(10.711 41.062)">
                        <path id="Path_1885" d="M513.8 168.379a.644.644 0 0 1 .862.3.666.666 0 0 1 .067.284" class="cls-12" data-name="Path 1885" transform="translate(-513.799 -168.313)"/>
                    </g>
                    <g id="ARC-9" data-name="ARC" transform="translate(9.236 40.88)">
                        <path id="Path_1886" d="M513.977 168.4a1.287 1.287 0 0 1-1.475-.248" class="cls-12" data-name="Path 1886" transform="translate(-512.502 -168.153)"/>
                    </g>
                    <g id="ARC-10" data-name="ARC" transform="translate(9.723 2.578)">
                        <path id="Path_1887" d="M512.93 134.477a1.287 1.287 0 0 1 1.062.558" class="cls-12" data-name="Path 1887" transform="translate(-512.93 -134.476)"/>
                    </g>
                    <g id="ARC-11" data-name="ARC" transform="translate(10.785 2.773)">
                        <path id="Path_1888" d="M515.041 134.647a.646.646 0 0 1-1.177.365" class="cls-12" data-name="Path 1888" transform="translate(-513.864 -134.647)"/>
                    </g>
                </g>
                <g id="Group_1076" data-name="Group 1076" transform="translate(44.428)">
                    <g id="ARC-12" data-name="ARC" transform="translate(.066)">
                        <path id="Path_1889" d="M543.5 133.327a1.288 1.288 0 0 1 1.342-1.233" class="cls-12" data-name="Path 1889" transform="translate(-543.502 -132.093)"/>
                    </g>
                    <g id="ARC-13" data-name="ARC" transform="translate(4.036 2.693)">
                        <path id="Path_1890" d="M546.993 134.461a2.527 2.527 0 0 1 2.41 2.548" class="cls-12" data-name="Path 1890" transform="translate(-546.993 -134.461)"/>
                    </g>
                    <g id="LINE-9" data-name="LINE" transform="translate(6.435 5.241)">
                        <path id="Line_444" d="M.011 0L0 1.79" class="cls-12" data-name="Line 444"/>
                    </g>
                    <g id="LINE-10" data-name="LINE" transform="translate(6.146 9.261)">
                        <path id="Line_445" d="M0 0l1.482.063" class="cls-12" data-name="Line 445"/>
                    </g>
                    <g id="ARC-14" data-name="ARC" transform="translate(7.628 8.089)">
                        <path id="Path_1891" d="M551.492 139.205a1.289 1.289 0 0 1-1.341 1.235" class="cls-12" data-name="Path 1891" transform="translate(-550.151 -139.205)"/>
                    </g>
                    <g id="LINE-11" data-name="LINE" transform="translate(8.969 3.581)">
                        <path id="Line_446" d="M0 4.508L.031 0" class="cls-12" data-name="Line 446"/>
                    </g>
                    <g id="LINE-12" data-name="LINE" transform="translate(1.408 .001)">
                        <path id="Line_447" d="M4.507.19L0 0" class="cls-12" data-name="Line 447"/>
                    </g>
                    <g id="ARC-15" data-name="ARC" transform="translate(5.915 .191)">
                        <path id="Path_1892" d="M548.645 132.261a3.254 3.254 0 0 1 3.086 3.389" class="cls-12" data-name="Path 1892" transform="translate(-548.645 -132.261)"/>
                    </g>
                    <g id="ARC-16" data-name="ARC" transform="translate(5.528 8.069)">
                        <path id="Path_1893" d="M548.923 140.38a.645.645 0 0 1-.315-1.192" class="cls-12" data-name="Path 1893" transform="translate(-548.305 -139.188)"/>
                    </g>
                    <g id="ARC-17" data-name="ARC" transform="translate(5.831 7.032)">
                        <path id="Path_1894" d="M549.175 138.276a1.294 1.294 0 0 1-.6 1.037" class="cls-12" data-name="Path 1894" transform="translate(-548.571 -138.276)"/>
                    </g>
                    <g id="LINE-13" data-name="LINE" transform="translate(2.247 2.618)">
                        <path id="Line_448" d="M1.788.076L0 0" class="cls-12" data-name="Line 448"/>
                    </g>
                    <g id="LINE-14" data-name="LINE" transform="translate(.002 1.234)">
                        <path id="Line_449" d="M0 1.482L.064 0" class="cls-12" data-name="Line 449"/>
                    </g>
                    <g id="ARC-18" data-name="ARC" transform="translate(0 2.716)">
                        <path id="Path_1895" d="M544.605 134.9a.645.645 0 0 1-1.159-.415" class="cls-12" data-name="Path 1895" transform="translate(-543.444 -134.481)"/>
                    </g>
                    <g id="ARC-19" data-name="ARC" transform="translate(1.161 2.614)">
                        <path id="Path_1896" d="M544.465 134.908a1.292 1.292 0 0 1 1.086-.513" class="cls-12" data-name="Path 1896" transform="translate(-544.465 -134.391)"/>
                    </g>
                </g>
                <g id="Group_1077" data-name="Group 1077" transform="translate(44.403 34.785)">
                    <g id="ARC-20" data-name="ARC" transform="translate(7.766 .001)">
                        <path id="Path_1897" d="M550.25 162.678a1.29 1.29 0 0 1 1.289 1.291" class="cls-12" data-name="Path 1897" transform="translate(-550.25 -162.678)"/>
                    </g>
                    <g id="ARC-21" data-name="ARC" transform="translate(4.03 4.028)">
                        <path id="Path_1898" d="M549.411 166.219a2.525 2.525 0 0 1-2.446 2.515" class="cls-12" data-name="Path 1898" transform="translate(-546.965 -166.219)"/>
                    </g>
                    <g id="LINE-15" data-name="LINE" transform="translate(2.239 6.543)">
                        <path id="Line_450" d="M1.79 0L0 .064" class="cls-12" data-name="Line 450"/>
                    </g>
                    <g id="LINE-16" data-name="LINE" transform="translate(0 6.414)">
                        <path id="Line_451" d="M.002 0L0 1.482" class="cls-12" data-name="Line 451"/>
                    </g>
                    <g id="ARC-22" data-name="ARC" transform="translate(0 7.895)">
                        <path id="Path_1899" d="M544.713 170.908a1.287 1.287 0 0 1-1.291-1.289" class="cls-12" data-name="Path 1899" transform="translate(-543.422 -169.619)"/>
                    </g>
                    <g id="LINE-17" data-name="LINE" transform="translate(1.291 9.026)">
                        <path id="Line_452" d="M0 .158L4.505 0" class="cls-12" data-name="Line 452"/>
                    </g>
                    <g id="LINE-18" data-name="LINE" transform="translate(9.055 1.291)">
                        <path id="Line_453" d="M0 4.512V0" class="cls-12" data-name="Line 453"/>
                    </g>
                    <g id="ARC-23" data-name="ARC" transform="translate(5.796 5.803)">
                        <path id="Path_1900" d="M551.776 167.78a3.257 3.257 0 0 1-3.258 3.22" class="cls-12" data-name="Path 1900" transform="translate(-548.518 -167.78)"/>
                    </g>
                    <g id="ARC-24" data-name="ARC" transform="translate(.002 5.769)">
                        <path id="Path_1901" d="M543.424 168.395a.645.645 0 0 1 .645-.645.656.656 0 0 1 .532.278" class="cls-12" data-name="Path 1901" transform="translate(-543.424 -167.75)"/>
                    </g>
                    <g id="ARC-25" data-name="ARC" transform="translate(1.179 6.047)">
                        <path id="Path_1902" d="M545.519 168.555a1.288 1.288 0 0 1-1.06-.561" class="cls-12" data-name="Path 1902" transform="translate(-544.459 -167.994)"/>
                    </g>
                    <g id="LINE-19" data-name="LINE" transform="translate(6.476 2.238)">
                        <path id="Line_454" d="M0 1.791V0" class="cls-12" data-name="Line 454"/>
                    </g>
                    <g id="LINE-20" data-name="LINE" transform="translate(6.282 .001)">
                        <path id="Line_455" d="M0 0h1.484" class="cls-12" data-name="Line 455"/>
                    </g>
                    <g id="ARC-26" data-name="ARC" transform="translate(5.638)">
                        <path id="Path_1903" d="M548.656 163.853a.645.645 0 0 1 .367-1.175" class="cls-12" data-name="Path 1903" transform="translate(-548.379 -162.677)"/>
                    </g>
                    <g id="ARC-27" data-name="ARC" transform="translate(5.915 1.176)">
                        <path id="Path_1904" d="M548.623 163.711a1.287 1.287 0 0 1 .561 1.062" class="cls-12" data-name="Path 1904" transform="translate(-548.623 -163.711)"/>
                    </g>
                </g>
                <g id="Group_1078" data-name="Group 1078" transform="translate(11.642 2.662)">
                    <g id="LINE-21" data-name="LINE" transform="translate(39.169 6.735)">
                        <path id="Line_456" d="M0 25.312V0" class="cls-12" data-name="Line 456"/>
                    </g>
                    <g id="LINE-22" data-name="LINE" transform="translate(0 38.685)">
                        <path id="Line_457" d="M0 0h32.725" class="cls-12" data-name="Line 457"/>
                    </g>
                    <g id="LINE-23" data-name="LINE" transform="translate(.187)">
                        <path id="Line_458" d="M32.605 0H0" class="cls-12" data-name="Line 458"/>
                    </g>
                </g>
            </g>
        </g>
        <g id="Cut_Line" data-name="Cut Line" transform="translate(328.441 83.768)">
            <path id="Path_1905" d="M594 83.768H339.25a10.808 10.808 0 0 0-10.809 10.809v152.394a10.809 10.809 0 0 0 10.809 10.809H594a10.811 10.811 0 0 0 10.809-10.809V94.577A10.81 10.81 0 0 0 594 83.768zm0 .574a10.246 10.246 0 0 1 10.236 10.233v152.4A10.246 10.246 0 0 1 594 257.2H339.25a10.246 10.246 0 0 1-10.234-10.234V94.575a10.246 10.246 0 0 1 10.234-10.233z" class="cls-13" data-name="Path 1905" transform="translate(-328.441 -83.768)"/>
        </g>
    </g>
</svg>
