<svg xmlns="http://www.w3.org/2000/svg" width="288.909" height="181.906" viewBox="0 0 288.909 181.906">
    <defs>
        <style>
            .cls-1,.cls-3{fill:none}.cls-1{stroke:#1a1818;stroke-width:.5px}.cls-2{fill:#c7c9cb}.cls-3{stroke:#6d6f72;stroke-linecap:round;stroke-linejoin:round;stroke-width:.25px}.cls-4{fill:#1a1818}
        </style>
    </defs>
    <g id="SIM_illustration" data-name="SIM illustration" transform="translate(-328.441 -83.768)">
        <g id="Module_Shapes" data-name="Module Shapes" transform="translate(543.342 145.4)">
            <path id="Path_5435" d="M509.193 159.326a5.357 5.357 0 0 0 5.326 5.386h35.322a5.357 5.357 0 0 0 5.328-5.386v-18.335a5.356 5.356 0 0 0-5.328-5.385h-35.322a5.356 5.356 0 0 0-5.326 5.385z" class="cls-1" data-name="Path 5435" transform="translate(-509.193 -135.606)"/>
        </g>
        <g id="_2FF_Plug" data-name="2FF Plug" transform="translate(509.176 136.445)">
            <g id="Group_1309" data-name="Group 1309">
                <path id="Path_5436" d="M562.626 133.592a2.238 2.238 0 0 0-2.234-2.235h-56.109v-3.283h56.109a5.523 5.523 0 0 1 5.515 5.518v4.835h-3.281v-4.835z" class="cls-2" data-name="Path 5436" transform="translate(-475.954 -128.074)"/>
                <path id="Path_5437" d="M485.971 128.074h19.692v3.283h-19.692a2.236 2.236 0 0 0-2.234 2.235v37.745l-.127-.126.127.306v-.18l9.835 9.717h-.172l.3.124-.125-.124h12.091v3.281H493.4a2.837 2.837 0 0 1-2.006-.824l-10.094-9.965a2.875 2.875 0 0 1-.848-2.029v-37.925a5.523 5.523 0 0 1 5.515-5.518z" class="cls-2" data-name="Path 5437" transform="translate(-480.456 -128.074)"/>
                <path id="Path_5438" d="M504.283 173.754h56.109a2.239 2.239 0 0 0 2.234-2.236v-4.808h3.281v4.808a5.522 5.522 0 0 1-5.515 5.518h-56.109v-3.281z" class="cls-2" data-name="Path 5438" transform="translate(-475.954 -120.775)"/>
            </g>
        </g>
        <g id="_3FF_MicroSIM" data-name="3FF MicroSIM" transform="translate(537.621 141.223)">
            <g id="Group_1314" data-name="Group 1314">
                <g id="Group_1310" data-name="Group 1310" transform="translate(0 .138)">
                    <g id="LINE" transform="translate(3.474 36.555)">
                        <path id="Line_432" d="M6.181 6.179L0 0" class="cls-3" data-name="Line 432"/>
                    </g>
                    <g id="LINE-2" data-name="LINE" transform="translate(2.701 5.223)">
                        <path id="Line_433" d="M0 29.544V0" class="cls-3" data-name="Line 433"/>
                    </g>
                    <g id="ARC" transform="translate(2.701 2.696)">
                        <path id="Path_5439" d="M506.653 137a2.553 2.553 0 0 1 2.559-2.526" class="cls-3" data-name="Path 5439" transform="translate(-506.653 -134.477)"/>
                    </g>
                    <g id="LINE-3" data-name="LINE" transform="translate(5.26 2.696)">
                        <path id="Line_434" d="M0 0h4.904" class="cls-3" data-name="Line 434"/>
                    </g>
                    <g id="LINE-4" data-name="LINE" transform="translate(12.505 1.348)">
                        <path id="Line_435" d="M0 1.55V0" class="cls-3" data-name="Line 435"/>
                    </g>
                    <g id="ARC-2" data-name="ARC" transform="translate(11.156)">
                        <path id="Path_5440" d="M513.764 132.209a1.349 1.349 0 0 1 1.349 1.348" class="cls-3" data-name="Path 5440" transform="translate(-513.764 -132.209)"/>
                    </g>
                    <g id="LINE-5" data-name="LINE" transform="translate(5.26)">
                        <path id="Line_436" d="M5.896 0H0" class="cls-3" data-name="Line 436"/>
                    </g>
                    <g id="ARC-3" data-name="ARC" transform="translate(.005)">
                        <path id="Path_5441" d="M504.385 137.432a5.251 5.251 0 0 1 5.255-5.223" class="cls-3" data-name="Path 5441" transform="translate(-504.385 -132.209)"/>
                    </g>
                    <g id="LINE-6" data-name="LINE" transform="translate(.005 5.223)">
                        <path id="Line_437" d="M0 0v29.544" class="cls-3" data-name="Line 437"/>
                    </g>
                    <g id="ARC-4" data-name="ARC" transform="translate(2.699 34.767)">
                        <path id="Path_5442" d="M507.426 163.239a2.556 2.556 0 0 1-.773-1.788" class="cls-3" data-name="Path 5442" transform="translate(-506.651 -161.451)"/>
                    </g>
                    <g id="LINE-7" data-name="LINE" transform="translate(1.57 38.462)">
                        <path id="Line_438" d="M0 0l6.504 6.507" class="cls-3" data-name="Line 438"/>
                    </g>
                    <g id="ARC-5" data-name="ARC" transform="translate(0 34.767)">
                        <path id="Path_5443" d="M505.952 165.146a5.26 5.26 0 0 1-1.566-3.7" class="cls-3" data-name="Path 5443" transform="translate(-504.381 -161.451)"/>
                    </g>
                    <g id="LINE-8" data-name="LINE" transform="translate(12.168 43.6)">
                        <path id="Line_439" d="M0 0v1.43" class="cls-3" data-name="Line 439"/>
                    </g>
                    <g id="ARC-6" data-name="ARC" transform="translate(8.074 44.969)">
                        <path id="Path_5444" d="M513.588 171.4a5.226 5.226 0 0 1-2.416-1.37" class="cls-3" data-name="Path 5444" transform="translate(-511.172 -170.032)"/>
                    </g>
                    <g id="ARC-7" data-name="ARC" transform="translate(10.49 45.031)">
                        <path id="Path_5445" d="M514.883 170.084a1.349 1.349 0 0 1-1.349 1.349 1.47 1.47 0 0 1-.329-.042" class="cls-3" data-name="Path 5445" transform="translate(-513.204 -170.084)"/>
                    </g>
                    <g id="ARC-8" data-name="ARC" transform="translate(11.197 42.925)">
                        <path id="Path_5446" d="M513.8 168.382a.673.673 0 0 1 .9.309.7.7 0 0 1 .07.3" class="cls-3" data-name="Path 5446" transform="translate(-513.799 -168.313)"/>
                    </g>
                    <g id="ARC-9" data-name="ARC" transform="translate(9.655 42.735)">
                        <path id="Path_5447" d="M514.044 168.412a1.346 1.346 0 0 1-1.542-.259" class="cls-3" data-name="Path 5447" transform="translate(-512.502 -168.153)"/>
                    </g>
                    <g id="ARC-10" data-name="ARC" transform="translate(10.164 2.695)">
                        <path id="Path_5448" d="M512.93 134.477a1.346 1.346 0 0 1 1.11.584" class="cls-3" data-name="Path 5448" transform="translate(-512.93 -134.476)"/>
                    </g>
                    <g id="ARC-11" data-name="ARC" transform="translate(11.275 2.899)">
                        <path id="Path_5449" d="M515.094 134.647a.675.675 0 0 1-1.23.382" class="cls-3" data-name="Path 5449" transform="translate(-513.864 -134.647)"/>
                    </g>
                </g>
                <g id="Group_1311" data-name="Group 1311" transform="translate(46.444)">
                    <g id="ARC-12" data-name="ARC" transform="translate(.069)">
                        <path id="Path_5450" d="M543.5 133.383a1.347 1.347 0 0 1 1.4-1.289" class="cls-3" data-name="Path 5450" transform="translate(-543.502 -132.093)"/>
                    </g>
                    <g id="ARC-13" data-name="ARC" transform="translate(4.219 2.815)">
                        <path id="Path_5451" d="M546.993 134.461a2.641 2.641 0 0 1 2.519 2.663" class="cls-3" data-name="Path 5451" transform="translate(-546.993 -134.461)"/>
                    </g>
                    <g id="LINE-9" data-name="LINE" transform="translate(6.726 5.479)">
                        <path id="Line_440" d="M.012 0L0 1.872" class="cls-3" data-name="Line 440"/>
                    </g>
                    <g id="LINE-10" data-name="LINE" transform="translate(6.425 9.681)">
                        <path id="Line_441" d="M0 0l1.549.066" class="cls-3" data-name="Line 441"/>
                    </g>
                    <g id="ARC-14" data-name="ARC" transform="translate(7.974 8.456)">
                        <path id="Path_5452" d="M551.553 139.2a1.348 1.348 0 0 1-1.4 1.291" class="cls-3" data-name="Path 5452" transform="translate(-550.151 -139.205)"/>
                    </g>
                    <g id="LINE-11" data-name="LINE" transform="translate(9.376 3.743)">
                        <path id="Line_442" d="M0 4.713L.033 0" class="cls-3" data-name="Line 442"/>
                    </g>
                    <g id="LINE-12" data-name="LINE" transform="translate(1.472 .001)">
                        <path id="Line_443" d="M4.712.198L0 0" class="cls-3" data-name="Line 443"/>
                    </g>
                    <g id="ARC-15" data-name="ARC" transform="translate(6.183 .2)">
                        <path id="Path_5453" d="M548.645 132.261a3.4 3.4 0 0 1 3.225 3.543" class="cls-3" data-name="Path 5453" transform="translate(-548.645 -132.261)"/>
                    </g>
                    <g id="ARC-16" data-name="ARC" transform="translate(5.778 8.436)">
                        <path id="Path_5454" d="M548.951 140.434a.675.675 0 0 1-.329-1.246" class="cls-3" data-name="Path 5454" transform="translate(-548.305 -139.188)"/>
                    </g>
                    <g id="ARC-17" data-name="ARC" transform="translate(6.095 7.351)">
                        <path id="Path_5455" d="M549.2 138.276a1.353 1.353 0 0 1-.631 1.084" class="cls-3" data-name="Path 5455" transform="translate(-548.571 -138.276)"/>
                    </g>
                    <g id="LINE-13" data-name="LINE" transform="translate(2.349 2.737)">
                        <path id="Line_444" d="M1.869.079L0 0" class="cls-3" data-name="Line 444"/>
                    </g>
                    <g id="LINE-14" data-name="LINE" transform="translate(.002 1.29)">
                        <path id="Line_445" d="M0 1.549L.067 0" class="cls-3" data-name="Line 445"/>
                    </g>
                    <g id="ARC-18" data-name="ARC" transform="translate(0 2.839)">
                        <path id="Path_5456" d="M544.658 134.915a.674.674 0 0 1-1.212-.434" class="cls-3" data-name="Path 5456" transform="translate(-543.444 -134.481)"/>
                    </g>
                    <g id="ARC-19" data-name="ARC" transform="translate(1.214 2.733)">
                        <path id="Path_5457" d="M544.465 134.932a1.351 1.351 0 0 1 1.135-.536" class="cls-3" data-name="Path 5457" transform="translate(-544.465 -134.391)"/>
                    </g>
                </g>
                <g id="Group_1312" data-name="Group 1312" transform="translate(46.417 36.363)">
                    <g id="ARC-20" data-name="ARC" transform="translate(8.118 .001)">
                        <path id="Path_5458" d="M550.25 162.678a1.349 1.349 0 0 1 1.347 1.349" class="cls-3" data-name="Path 5458" transform="translate(-550.25 -162.678)"/>
                    </g>
                    <g id="ARC-21" data-name="ARC" transform="translate(4.212 4.211)">
                        <path id="Path_5459" d="M549.522 166.219a2.64 2.64 0 0 1-2.557 2.629" class="cls-3" data-name="Path 5459" transform="translate(-546.965 -166.219)"/>
                    </g>
                    <g id="LINE-15" data-name="LINE" transform="translate(2.341 6.839)">
                        <path id="Line_446" d="M1.872 0L0 .067" class="cls-3" data-name="Line 446"/>
                    </g>
                    <g id="LINE-16" data-name="LINE" transform="translate(0 6.705)">
                        <path id="Line_447" d="M.002 0L0 1.549" class="cls-3" data-name="Line 447"/>
                    </g>
                    <g id="ARC-22" data-name="ARC" transform="translate(0 8.253)">
                        <path id="Path_5460" d="M544.771 170.966a1.346 1.346 0 0 1-1.349-1.347" class="cls-3" data-name="Path 5460" transform="translate(-543.422 -169.619)"/>
                    </g>
                    <g id="LINE-17" data-name="LINE" transform="translate(1.349 9.436)">
                        <path id="Line_448" d="M0 .165L4.709 0" class="cls-3" data-name="Line 448"/>
                    </g>
                    <g id="LINE-18" data-name="LINE" transform="translate(9.465 1.35)">
                        <path id="Line_449" d="M0 4.716V0" class="cls-3" data-name="Line 449"/>
                    </g>
                    <g id="ARC-23" data-name="ARC" transform="translate(6.059 6.067)">
                        <path id="Path_5461" d="M551.924 167.78a3.4 3.4 0 0 1-3.406 3.369" class="cls-3" data-name="Path 5461" transform="translate(-548.518 -167.78)"/>
                    </g>
                    <g id="ARC-24" data-name="ARC" transform="translate(.002 6.031)">
                        <path id="Path_5462" d="M543.424 168.424a.674.674 0 0 1 .674-.674.685.685 0 0 1 .556.29" class="cls-3" data-name="Path 5462" transform="translate(-543.424 -167.75)"/>
                    </g>
                    <g id="ARC-25" data-name="ARC" transform="translate(1.233 6.321)">
                        <path id="Path_5463" d="M545.567 168.58a1.347 1.347 0 0 1-1.108-.586" class="cls-3" data-name="Path 5463" transform="translate(-544.459 -167.994)"/>
                    </g>
                    <g id="LINE-19" data-name="LINE" transform="translate(6.769 2.339)">
                        <path id="Line_450" d="M0 1.872V0" class="cls-3" data-name="Line 450"/>
                    </g>
                    <g id="LINE-20" data-name="LINE" transform="translate(6.567 .001)">
                        <path id="Line_451" d="M0 0h1.551" class="cls-3" data-name="Line 451"/>
                    </g>
                    <g id="ARC-26" data-name="ARC" transform="translate(5.894)">
                        <path id="Path_5464" d="M548.669 163.906a.674.674 0 0 1 .384-1.228" class="cls-3" data-name="Path 5464" transform="translate(-548.379 -162.677)"/>
                    </g>
                    <g id="ARC-27" data-name="ARC" transform="translate(6.184 1.229)">
                        <path id="Path_5465" d="M548.623 163.711a1.345 1.345 0 0 1 .586 1.11" class="cls-3" data-name="Path 5465" transform="translate(-548.623 -163.711)"/>
                    </g>
                </g>
                <g id="Group_1313" data-name="Group 1313" transform="translate(12.171 2.783)">
                    <g id="LINE-21" data-name="LINE" transform="translate(40.946 7.041)">
                        <path id="Line_452" d="M0 26.461V0" class="cls-3" data-name="Line 452"/>
                    </g>
                    <g id="LINE-22" data-name="LINE" transform="translate(0 40.44)">
                        <path id="Line_453" d="M0 0h34.21" class="cls-3" data-name="Line 453"/>
                    </g>
                    <g id="LINE-23" data-name="LINE" transform="translate(.195)">
                        <path id="Line_454" d="M34.084 0H0" class="cls-3" data-name="Line 454"/>
                    </g>
                </g>
            </g>
        </g>
        <g id="Cut_Line" data-name="Cut Line" transform="translate(328.441 83.768)">
            <path id="Path_5466" d="M606.051 83.768h-266.31a11.3 11.3 0 0 0-11.3 11.3v159.306a11.3 11.3 0 0 0 11.3 11.3h266.31a11.3 11.3 0 0 0 11.3-11.3V95.068a11.3 11.3 0 0 0-11.3-11.3zm0 .6a10.711 10.711 0 0 1 10.7 10.7v159.306a10.711 10.711 0 0 1-10.7 10.7h-266.31a10.711 10.711 0 0 1-10.7-10.7V95.065a10.711 10.711 0 0 1 10.7-10.7z" class="cls-4" data-name="Path 5466" transform="translate(-328.441 -83.768)"/>
        </g>
    </g>
</svg>
