<svg xmlns="http://www.w3.org/2000/svg" width="164.519" height="146.963" viewBox="0 0 164.519 146.963">
    <defs>
        <style>
            .cls-1{fill:#a06044}.cls-2{fill:#773f2c}.cls-3{fill:#c98b61}.cls-4{fill:#f7dfbc}.cls-5{fill:#512518}.cls-6{fill:#ddb294}.cls-7{fill:#b26836}.cls-8{fill:#ff7d5f}.cls-9{fill:#efad60}.cls-10{fill:#dbc1af}.cls-11{fill:#b59e8f}.cls-12{fill:#d89a71}.cls-13{fill:#ff92a4}.cls-14{fill:#ffe9cc}.cls-15{fill:#ffc0ce}.cls-16{fill:#c1755b}.cls-17{fill:#fff5e9}.cls-18{fill:#3e7f33}.cls-19{fill:#5fc46b}.cls-20{fill:#96e87c}
        </style>
    </defs>
    <g id="sloth_image" data-name="sloth image" transform="translate(-343.592 -392.782)">
        <path id="Path_1635" d="M494.656 647.294a204.471 204.471 0 0 1 32.419.6l1.319 7.855-3.362-.179 2.171.68-3.27 4.857 3.6.174 1.072 5.847-49-.622c-4.606-.058-9.277-.109-13.736 1.045-4.548 1.177-8.678 3.556-12.745 5.909a5.152 5.152 0 0 1 3.271-6.057c-27.42 1.185-55.049 2.359-82.178-1.8l13.044-2.313-7.031-2.455 6.95-.366-5.055-1.614 102.311-7.623z" class="cls-1" data-name="Path 1635" transform="translate(-20.497 -170.091)"/>
        <path id="Path_1636" d="M606.278 662.259c25.1 6.43 51.02.763 76.486 2.628.125.009.36.214.127.2-25.506-1.587-51.591 3.934-76.691-2.587-.293-.076-.214-.316.078-.241z" class="cls-2" data-name="Path 1636" transform="translate(-175.64 -180.351)"/>
        <path id="Path_1637" d="M716.2 670.495a252.744 252.744 0 0 0 36.562 6.228c.068.006.161.117.046.108a218.486 218.486 0 0 1-36.68-6.1c-.295-.075-.216-.306.072-.236z" class="cls-2" data-name="Path 1637" transform="translate(-249.212 -185.864)"/>
        <path id="Path_1638" d="M580.9 693.847a101.191 101.191 0 0 1 39.773-6.013c14.57.641 28.756 4.659 43.337 5.21.175.007.49.284.173.272-13.954-.521-27.555-4.11-41.468-5.053a107.853 107.853 0 0 0-41.556 5.755c-.093.033-.399-.118-.259-.171z" class="cls-2" data-name="Path 1638" transform="translate(-158.807 -197.407)"/>
        <path id="Path_1639" d="M645.709 695.6c3.887-.733 7.763-1.449 11.612-2.374 4.07-.978 8.045-2.265 12.085-3.343.057-.015.256.085.157.123a92.477 92.477 0 0 1-11.352 3.341c-4.034 1-8.13 1.9-12.245 2.5-.132.019-.51-.198-.257-.247z" class="cls-2" data-name="Path 1639" transform="translate(-202.15 -198.849)"/>
        <path id="Path_1640" d="M510.576 669.793c.136-.077.577.129.377.248a1.786 1.786 0 0 0-.794 2.067c.237 1.473 2.194 2.041 3.373 2.458a46.884 46.884 0 0 0 5.606 1.562 48.693 48.693 0 0 0 22.653-.593c1.673-.438 3.642-.864 4.862-2.177 1.036-1.114.323-2.653-.547-3.555-1.123-1.166-3.218-1.116-4.7-1.156-.089 0-.258-.138-.09-.142 1.534-.031 3.466-.077 4.751.944 1.463 1.162 2.047 2.921.657 4.389-1.429 1.509-4.483 1.893-6.408 2.353a48.28 48.28 0 0 1-8.189 1.173 49.142 49.142 0 0 1-15.856-1.688c-2-.54-4.4-1.077-5.968-2.532a2.108 2.108 0 0 1 .273-3.351z" class="cls-2" data-name="Path 1640" transform="translate(-111.111 -184.532)"/>
        <path id="Path_1641" d="M509.558 668.727c2.188 4.069 7.052 4.531 11.211 4.512a28.148 28.148 0 0 0 6.047-.731 5.157 5.157 0 0 0 2.371-1.174c.881-.786.928-2.672-.413-3.138-.1-.035-.135-.155 0-.124a2.025 2.025 0 0 1 1.167 3.089c-1.1 2.041-5.132 2.116-7.028 2.288-4.638.422-11.477.119-13.833-4.728-.104-.221.401-.137.478.006z" class="cls-2" data-name="Path 1641" transform="translate(-110.753 -184.248)"/>
        <path id="Path_1642" d="M418.87 679.26a385.243 385.243 0 0 1 48.682 10.923c.137.041.1.151-.035.113a444.865 444.865 0 0 0-48.583-10.734c-.262-.041-.439-.362-.064-.302z" class="cls-2" data-name="Path 1642" transform="translate(-50.239 -191.734)"/>
        <path id="Path_1643" d="M415.063 694.654c4.919-.1 9.862.277 14.788.236 4.967-.041 9.919-.362 14.881-.516.051 0 .2.1.091.108a147.182 147.182 0 0 1-14.764.736 118.027 118.027 0 0 1-14.9-.349c-.136-.015-.333-.211-.096-.215z" class="cls-2" data-name="Path 1643" transform="translate(-47.761 -201.855)"/>
        <path id="Path_1644" d="M705.121 649.391q9.6 1.2 19.282 1.423c3.022.073 6.046.055 9.068-.01 2.545-.055 5.924-.078 7.073-2.836.025-.059.187-.01.173.053-.459 2.062-2.61 2.655-4.461 2.917a66.558 66.558 0 0 1-9.712.222 185.349 185.349 0 0 1-21.355-1.448c-.281-.036-.465-.371-.068-.321z" class="cls-2" data-name="Path 1644" transform="translate(-241.818 -170.778)"/>
        <path id="Path_1645" d="M415.965 570.974c.211.126 4.282 8.718 22.06 13.908 9.307 2.717 35.046 2.61 46.529 1.139a282.09 282.09 0 0 0 28.862-5.57c3.389-8.321.654-19.864-7.6-34.305-12.786-11.646-33.546-13.165-47.851 5.258 0 0-9.153 5.109-17.1 6.041s-24.9 13.529-24.9 13.529z" class="cls-3" data-name="Path 1645" transform="translate(-48.439 -96.83)"/>
        <path id="Path_1646" d="M415.446 570.594a17.858 17.858 0 0 0-5.289 9.291 14.37 14.37 0 0 0 1.717 10.37 11.533 11.533 0 0 0 8.624 5.425 12.992 12.992 0 0 0 10.4-4.476c2.656-2.933 5.142-6.28 5.643-10.21.493-3.866.512-5.182-1.128-8.617-2.452-5.133-8-6.4-11.243-6.064a15.3 15.3 0 0 0-8.724 4.281z" class="cls-3" data-name="Path 1646" transform="translate(-44.349 -116.111)"/>
        <path id="Path_1647" d="M409.231 592.261a9.72 9.72 0 0 1-1.14-5.156 1.994 1.994 0 0 1 .174-.805.782.782 0 0 1 .65-.45.8.8 0 0 1 .668.46 2.349 2.349 0 0 1 .2.824 4.574 4.574 0 0 1 2.889-4.766.885.885 0 0 1 .8 0 .871.871 0 0 1 .261.753 5.858 5.858 0 0 1-1.256 3.179c-.675.94-1.483 1.779-2.137 2.733a5.465 5.465 0 0 0-1.109 3.228z" class="cls-3" data-name="Path 1647" transform="translate(-43.158 -126.825)"/>
        <path id="Path_1648" d="M444.219 578.923a8.929 8.929 0 0 0-.927-4.352 7.853 7.853 0 0 0-3.679-3.248 6.169 6.169 0 0 0-5.271-.2 6.358 6.358 0 0 0-2.854 4.006 29.184 29.184 0 0 1-1.449 4.763 21.754 21.754 0 0 1-3.013 3.972 8.246 8.246 0 0 0-2.186 4.366 5.646 5.646 0 0 0 3.217 5.271 8.549 8.549 0 0 0 6.588.262 12.938 12.938 0 0 0 5.382-3.835 17.054 17.054 0 0 0 4.192-11.005z" class="cls-4" data-name="Path 1648" transform="translate(-54.368 -119.024)"/>
        <path id="Path_1649" d="M461.5 577.272a2.6 2.6 0 0 0 2.356-.113 3.336 3.336 0 0 0 1.408-1.609 4.621 4.621 0 0 0 .357-2.683 1.4 1.4 0 0 0-.65-1.071 2.311 2.311 0 0 0-2 .155 4.142 4.142 0 0 0-2.291 3.511 1.826 1.826 0 0 0 .82 1.81z" class="cls-1" data-name="Path 1649" transform="translate(-78.363 -119.701)"/>
        <path id="Path_1650" d="M438.55 616.866a2.438 2.438 0 0 1 1.881 2.021 4.659 4.659 0 0 1-.548 2.845 8.812 8.812 0 0 1-2.606 3.136 2.382 2.382 0 0 1-1.714.612 2.155 2.155 0 0 1-1.532-1.779 6.349 6.349 0 0 1 1.859-5.575 3.243 3.243 0 0 1 2.66-1.26z" class="cls-1" data-name="Path 1650" transform="translate(-60.451 -149.964)"/>
        <path id="Path_1651" d="M451.873 600.079a3.711 3.711 0 0 0 1.655-3.785 1.9 1.9 0 0 0-.928-1.332 1.782 1.782 0 0 0-1.854.337 4.44 4.44 0 0 0-1.105 1.636 3.847 3.847 0 0 0-.464 2.044 1.6 1.6 0 0 0 1.808 1.428 2.627 2.627 0 0 0 .888-.328z" class="cls-2" data-name="Path 1651" transform="translate(-70.655 -135.228)"/>
        <path id="Path_1652" d="M459.534 598.3a1.068 1.068 0 0 0 .238.982.256.256 0 0 0 .214.107.191.191 0 0 0 .135-.118.493.493 0 0 0 .029-.184 2.47 2.47 0 0 0-.138-.854.31.31 0 0 0-.141-.2.212.212 0 0 0-.224.051.449.449 0 0 0-.113.216z" class="cls-5" data-name="Path 1652" transform="translate(-77.576 -137.365)"/>
        <path id="Path_1653" d="M454.253 608.37a1.069 1.069 0 0 1 .927-.4.257.257 0 0 1 .214.107.19.19 0 0 1-.013.179.491.491 0 0 1-.129.134 2.478 2.478 0 0 1-.765.4.312.312 0 0 1-.241.006.212.212 0 0 1-.095-.209.447.447 0 0 1 .102-.217z" class="cls-5" data-name="Path 1653" transform="translate(-73.996 -144.02)"/>
        <path id="Path_1654" d="M448.749 594.159a1.982 1.982 0 0 0-1.52.762c-.162.179-.8.951-.431 1.159.028.016.079-.02.1-.038a8.506 8.506 0 0 0 .577-.783 2.615 2.615 0 0 1 1.1-.636c.113-.048.467-.433.174-.464z" class="cls-6" data-name="Path 1654" transform="translate(-69 -134.778)"/>
        <path id="Path_1655" d="M413.529 594.795a4.847 4.847 0 0 0-.184.87c-.028.232.005.47-.02.694-.01.093.065.148.1.037.022-.078.085-.157.114-.236.045-.124.083-.249.117-.377a5 5 0 0 0 .148-.884c.018-.263-.177-.417-.275-.104z" class="cls-7" data-name="Path 1655" transform="translate(-46.672 -135.09)"/>
        <path id="Path_1656" d="M423.594 582.592c-.141.021-.172.3-.1.392a1.407 1.407 0 0 1 .43 1.048 1.968 1.968 0 0 1-.614 1.266c-.045.041-.04.238.032.179a2.213 2.213 0 0 0 .886-1.57c.05-.391-.05-1.401-.634-1.315z" class="cls-7" data-name="Path 1656" transform="translate(-53.338 -127.036)"/>
        <path id="Path_1657" d="M454.177 628.5a1.555 1.555 0 0 0 .265 1.143.955.955 0 0 0 1.091.234 1.969 1.969 0 0 0 .911-.835 2.667 2.667 0 0 0 .34-2.121.981.981 0 0 0-1.109-.5 1.784 1.784 0 0 0-1.06.825 3.039 3.039 0 0 0-.438 1.254z" class="cls-8" data-name="Path 1657" transform="translate(-74.006 -156.359)"/>
        <path id="Path_1658" d="M474.961 586.8a1.473 1.473 0 0 0 .16 1.1.9.9 0 0 0 1.01.308 1.865 1.865 0 0 0 .926-.715 2.528 2.528 0 0 0 .489-1.975.929.929 0 0 0-1.008-.556 1.689 1.689 0 0 0-1.066.7 2.875 2.875 0 0 0-.511 1.138z" class="cls-8" data-name="Path 1658" transform="translate(-87.9 -128.621)"/>
        <path id="Path_1659" d="M511.711 664.305a171.5 171.5 0 0 1-.843 47.655l-4.378 2.312c-5.114-7.672-6.805-17.072-8.026-26.211s-2.137-18.515-6.007-26.884z" class="cls-3" data-name="Path 1659" transform="translate(-99.636 -179.636)"/>
        <path id="Path_1660" d="M502.535 521.757c5.407-3.721 11.182-7.934 13-14.242a25.086 25.086 0 0 0 .758-6.55 126.979 126.979 0 0 0-1.082-17.815l3.836-.236c5.036 4.22 9.342 9.562 11.246 15.85s1.112 13.6-3.041 18.687-11.9 7.285-17.7 4.192z" class="cls-3" data-name="Path 1660" transform="translate(-106.38 -60.325)"/>
        <path id="Path_1661" d="M671.885 613.788a36.133 36.133 0 0 1 22.83 38.233 3.7 3.7 0 0 1 2.507 5.51c-3.231.526-6.492-1.056-8.908-3.264s-4.189-5.013-6.191-7.6a51.345 51.345 0 0 0-23.748-17.027 24.24 24.24 0 0 1 7.516-15.746z" class="cls-3" data-name="Path 1661" transform="translate(-210.684 -147.919)"/>
        <path id="Path_1662" d="M710.768 584.594l2.682 1.269c-2.088 3.661-9.142 2.834-12.726 1.114s-7.647-8.192-8.792-8.533c0 0-9.2 3.441-13.021 3.749a106.383 106.383 0 0 1-7.3-21.187c5.888-2.157 12.094-4.343 18.154-3.139 5.626 1.118 10.456 5.119 13.836 10.06s5.462 10.785 7.167 16.667z" class="cls-3" data-name="Path 1662" transform="translate(-219.545 -110.261)"/>
        <path id="Path_1663" d="M463.092 580.281c-.242-.155.236-.68.5-.557a6.056 6.056 0 0 0 1.04.44c.421.112 1.042.069.82-.464a1.858 1.858 0 0 0-.667-.7c-.251-.18-.69-.287-.8-.568-.037-.094.072-.2.152-.231.556-.224 1.2.193 1.611.577a1.065 1.065 0 0 1 .308 1.276 1.493 1.493 0 0 1-1.256.811 2.971 2.971 0 0 1-1.708-.584z" class="cls-5" data-name="Path 1663" transform="translate(-79.936 -124.061)"/>
        <path id="Path_1664" d="M440.935 622.674c-.259-.174.294-.827.574-.692a5.839 5.839 0 0 0 1.126.478c.459.114 1.146.032.928-.6a1.909 1.909 0 0 0-.7-.8c-.269-.2-.747-.311-.855-.643-.036-.11.089-.242.179-.284.624-.3 1.315.173 1.75.614a1.293 1.293 0 0 1 .277 1.515 1.836 1.836 0 0 1-1.426 1.033 2.88 2.88 0 0 1-1.853-.621z" class="cls-5" data-name="Path 1664" transform="translate(-65.106 -152.103)"/>
        <path id="Path_1665" d="M460.623 604.45a12.154 12.154 0 0 0 1.928.066 12.525 12.525 0 0 0 2.53-.347 1.15 1.15 0 0 0 .724-.4.983.983 0 0 0-.076-.972 3.618 3.618 0 0 0-.618-.817c-.284-.291-.605-.559-.913-.827a4.1 4.1 0 0 1-1.353-1.776q-1.23 2.485-2.222 5.073z" class="cls-2" data-name="Path 1665" transform="translate(-78.329 -138.274)"/>
        <path id="Path_1666" d="M477.511 606.232a2.018 2.018 0 0 1 .724 2.172c-.051.149-.436.023-.42-.129a2.677 2.677 0 0 0-.513-2.028c-.072-.092.172-.047.209-.015z" class="cls-6" data-name="Path 1666" transform="translate(-89.484 -142.836)"/>
        <path id="Path_1667" d="M466.33 609.711a12.528 12.528 0 0 0 2.53-.347 1.15 1.15 0 0 0 .724-.4.983.983 0 0 0-.076-.972 3.618 3.618 0 0 0-.618-.817 1.61 1.61 0 0 0-.6-.013 2.979 2.979 0 0 0-1.921 1.663 1.318 1.318 0 0 0-.039.886z" class="cls-8" data-name="Path 1667" transform="translate(-82.108 -143.469)"/>
        <path id="Path_1668" d="M534.858 482.627a1.474 1.474 0 0 1-.667-.868c-3.508-8.414-4.872-17.559-5.687-26.638l10.006-.505a110.739 110.739 0 0 1-2.075 26.408 2.9 2.9 0 0 1-.44 1.207 1.009 1.009 0 0 1-1.137.396z" class="cls-9" data-name="Path 1668" transform="translate(-123.761 -41.385)"/>
        <path id="Path_1669" d="M538.413 818.517a11.65 11.65 0 0 1-7.294-7.5 9.134 9.134 0 0 1 5.812-1.7q.552 4.624 1.482 9.2z" class="cls-10" data-name="Path 1669" transform="translate(-125.512 -278.772)"/>
        <path id="Path_1670" d="M541.232 476.592a15.761 15.761 0 0 1-9.446.484 14.974 14.974 0 0 1 8.825-7.179c.577 2.192 1.157 4.494.621 6.695z" class="cls-10" data-name="Path 1670" transform="translate(-125.958 -51.614)"/>
        <path id="Path_1671" d="M786.333 641.16a11.1 11.1 0 0 1 4.987 2.588 56.085 56.085 0 0 1-11.317.187c.867-1.361 1.9-2.841 3.487-3.153a5.9 5.9 0 0 1 2.843.378z" class="cls-10" data-name="Path 1671" transform="translate(-292.09 -165.946)"/>
        <path id="Path_1672" d="M776.3 738.773a34.831 34.831 0 0 1-8.618-2.334 11.058 11.058 0 0 1 1.777-4.573 25.1 25.1 0 0 1 6.841 6.907z" class="cls-10" data-name="Path 1672" transform="translate(-283.845 -226.948)"/>
        <path id="Path_1673" d="M458.616 593.092c-.19-.028-.254.439-.125.53 1.525 1.074-.314 2.71-.716 3.835-.222.621-.4 1.257-.664 1.862-.4.9-1.037.962-1.824 1.189-.12.034-.171.337-.068.408 1.91 1.327 2.713-3.087 3.219-3.884.542-.856 2.341-3.621.178-3.94z" class="cls-2" data-name="Path 1673" transform="translate(-74.674 -134.066)"/>
        <path id="Path_1674" d="M548.122 664.635c.007-.087.206 0 .23.038a11.74 11.74 0 0 1 1.228 3.823 11.277 11.277 0 0 1 .42 3.844c-.029.209-.505 0-.55-.128a27.22 27.22 0 0 1-.706-3.85 15.35 15.35 0 0 1-.622-3.727z" class="cls-7" data-name="Path 1674" transform="translate(-136.884 -181.926)"/>
        <path id="Path_1675" d="M552.811 670.381a6.182 6.182 0 0 1 .953-1.238 5.526 5.526 0 0 1 1.14-1.113c.047-.03.206.016.189.087a3.632 3.632 0 0 1-.614 1.154 7.171 7.171 0 0 1-1.012 1.36c-.138.126-.767-.031-.656-.25z" class="cls-7" data-name="Path 1675" transform="translate(-140.021 -184.216)"/>
        <path id="Path_1676" d="M485.44 659.578c.007-.155.37.006.406.095.537 1.317.874 2.688 1.467 3.988a28.734 28.734 0 0 1 1.5 2.867c.069.215-.43.049-.49-.007a10.275 10.275 0 0 1-2.883-6.943z" class="cls-7" data-name="Path 1676" transform="translate(-94.935 -178.522)"/>
        <path id="Path_1677" d="M485.141 668.456a5.691 5.691 0 0 1 1.109.78 2.171 2.171 0 0 1 .7.92c.029.128-.239.025-.274 0a8.875 8.875 0 0 1-.8-.853 11 11 0 0 0-.826-.817c-.061-.053.065-.044.091-.03z" class="cls-7" data-name="Path 1677" transform="translate(-94.666 -184.501)"/>
        <path id="Path_1678" d="M489.021 599.293c.016-.057.173-.012.174.04a11.913 11.913 0 0 1-1.8 6.534c-.063.1-.377.019-.336-.1a103.65 103.65 0 0 0 1.962-6.474z" class="cls-7" data-name="Path 1678" transform="translate(-96.023 -138.2)"/>
        <path id="Path_1679" d="M554.469 547.2a19.532 19.532 0 0 1 3.8-2.407c.228-.113 3.881-1.4 3.886-1.359 0-.036.066-.007.077.007l.18.235a.037.037 0 0 1 0 .049 15.57 15.57 0 0 1-3.044 1.285 19.783 19.783 0 0 0-7.263 5.683c-.94 1.155-1.517 2.593-2.511 3.684-.081.089-.373-.006-.357-.136.343-2.696 3.263-5.413 5.232-7.041z" class="cls-7" data-name="Path 1679" transform="translate(-137.634 -100.818)"/>
        <path id="Path_1680" d="M521.581 577.452c1.872-1.025 4.022-1.641 5.987-2.482a40.758 40.758 0 0 1 5.661-2.428c.024-.006.14.027.1.066-1.3 1.325-3.488 2.02-5.159 2.758a31.152 31.152 0 0 1-6.33 2.289c-.083.018-.425-.112-.259-.203z" class="cls-7" data-name="Path 1680" transform="translate(-119.098 -120.313)"/>
        <path id="Path_1681" d="M700.238 587.456a16 16 0 0 1 2.72 4.618c.755 1.8 1.71 3.983 1.653 5.965-.008.282-.547.07-.616-.1-.713-1.761-1.024-3.688-1.694-5.479-.638-1.7-1.631-3.284-2.193-5.007-.018-.053.113-.016.13.003z" class="cls-7" data-name="Path 1681" transform="translate(-238.614 -130.274)"/>
        <path id="Path_1682" d="M698.609 613.182a13.158 13.158 0 0 1 4.053 1.648 10.356 10.356 0 0 1 3.561 2.766c.05.077-.121.037-.144.024-1.224-.681-2.327-1.574-3.535-2.292-1.281-.761-2.686-1.24-4-1.92-.192-.097-.16-.269.065-.226z" class="cls-7" data-name="Path 1682" transform="translate(-237.484 -147.509)"/>
        <path id="Path_1683" d="M734.626 599.579c.017-.053.145-.007.143.044-.1 2.275-.2 5.179-1.149 7.271-.053.117-.363.032-.371-.087-.157-2.314.681-5.037 1.377-7.228z" class="cls-7" data-name="Path 1683" transform="translate(-260.784 -138.393)"/>
        <path id="Path_1684" d="M658.537 662.384a21.165 21.165 0 0 1 8.68 3.6c.2.148-.083.2-.208.134a53.585 53.585 0 0 0-8.483-3.423c-.268-.077-.342-.371.011-.311z" class="cls-7" data-name="Path 1684" transform="translate(-210.632 -180.439)"/>
        <path id="Path_1685" d="M761.341 726.186a9.229 9.229 0 0 0 1.292.806c.406.2.846.314 1.253.51.034.017.087.077.017.087a4.083 4.083 0 0 1-2.967-1.286c-.23-.23.285-.203.405-.117z" class="cls-7" data-name="Path 1685" transform="translate(-279.288 -223.105)"/>
        <path id="Path_1686" d="M542.047 809.741a38.546 38.546 0 0 1 2.816 7.481c.024.093-.207.035-.235-.021a28.74 28.74 0 0 1-2.686-7.47c-.009-.044.092-.015.105.01z" class="cls-11" data-name="Path 1686" transform="translate(-132.754 -279.048)"/>
        <path id="Path_1687" d="M536.489 813.7a29.291 29.291 0 0 0 4.6 6.447c.1.113-.13.1-.187.053a15.112 15.112 0 0 1-4.546-6.512c-.019-.05.116-.03.133.012z" class="cls-11" data-name="Path 1687" transform="translate(-129.015 -281.691)"/>
        <path id="Path_1688" d="M774.16 734.842a25.822 25.822 0 0 1 6.194 5.964c.037.049-.1.03-.125 0a38.049 38.049 0 0 0-6.317-5.854c-.217-.167.127-.189.248-.11z" class="cls-11" data-name="Path 1688" transform="translate(-287.965 -228.911)"/>
        <path id="Path_1689" d="M771.278 740.7a34.536 34.536 0 0 1 5.93 3c.072.041-.028.067-.07.045-1.946-1.022-4.088-1.8-5.953-2.953-.112-.065.015-.112.093-.092z" class="cls-11" data-name="Path 1689" transform="translate(-286.158 -232.86)"/>
        <path id="Path_1690" d="M789.678 641.158a23.69 23.69 0 0 1 7.645 2.88c.066.037-.025.058-.062.04a51.788 51.788 0 0 0-7.591-2.687c-.201-.057-.252-.277.008-.233z" class="cls-11" data-name="Path 1690" transform="translate(-298.446 -166.234)"/>
        <path id="Path_1691" d="M785.161 645.426a78.069 78.069 0 0 1 7.756 1.31c.068.013.119.093.017.081-2.574-.31-5.193-.6-7.726-1.162-.188-.043-.338-.255-.047-.229z" class="cls-11" data-name="Path 1691" transform="translate(-295.432 -169.092)"/>
        <path id="Path_1692" d="M536.839 486.519a28 28 0 0 1 3.441-.592c1.591-.276 3.132-.8 4.723-1.047.034-.005.181.047.11.086a16.981 16.981 0 0 1-8.131 1.69c-.035-.003-.258-.102-.143-.137z" class="cls-11" data-name="Path 1692" transform="translate(-129.318 -61.64)"/>
        <path id="Path_1693" d="M534.726 480.962c2.084-2.033 5.927-2.971 8.747-3.254.046 0 .2.069.1.093a37.1 37.1 0 0 0-4.348 1.269c-1.484.555-2.8 1.44-4.256 2.026-.061.022-.331-.049-.243-.134z" class="cls-11" data-name="Path 1693" transform="translate(-127.914 -56.84)"/>
        <path id="Path_1694" d="M520.05 675.04a3.615 3.615 0 0 1 4.159 1.429 9.564 9.564 0 0 1 1.445 4.478 52.359 52.359 0 0 1-.9 19.954 6.115 6.115 0 0 1-.976 2.311 2.294 2.294 0 0 1-2.2.934c-1.14-.26-1.681-1.542-2.009-2.664a54.962 54.962 0 0 1-1.8-22.024c.208-1.723.696-3.706 2.281-4.418z" class="cls-12" data-name="Path 1694" transform="translate(-116.306 -188.76)"/>
        <path id="Path_1695" d="M571.735 551.777a23.724 23.724 0 0 1 23.686-4.318 11.9 11.9 0 0 1 4.34 2.633 6.074 6.074 0 0 1 1.853 4.6c-.233 2.9-2.945 4.922-5.528 6.27a36.33 36.33 0 0 1-19.351 4.323 13.808 13.808 0 0 1-5.061-1.188 6.634 6.634 0 0 1-3.475-3.722c-1.025-3.119 1.077-6.417 3.536-8.598z" class="cls-12" data-name="Path 1695" transform="translate(-150.151 -102.546)"/>
        <path id="Path_1696" d="M713.269 568.39c.111-1.431 1.922-2 3.356-1.967a15.519 15.519 0 0 1 9.975 4.294 24.609 24.609 0 0 1 6 9.227c.556 1.423.85 3.388-.461 4.171-1.11.664-2.521-.088-3.5-.93a17.253 17.253 0 0 1-5.79-10.536 4.321 4.321 0 0 1-4.213.6 12.732 12.732 0 0 1-3.756-2.359c-.808-.65-1.692-1.47-1.611-2.5z" class="cls-12" data-name="Path 1696" transform="translate(-247.421 -116.217)"/>
        <path id="Path_1697" d="M704.381 638.024a18.982 18.982 0 0 1 7.6 11.059c.43 1.779.438 4-1.065 5.043a3.5 3.5 0 0 1-3.2.22 9.647 9.647 0 0 1-2.76-1.847 96.01 96.01 0 0 1-10.128-10.134 7.627 7.627 0 0 1-2.1-3.754 4.867 4.867 0 0 1 3.1-4.857 7.975 7.975 0 0 1 6.031.276c1.902.794.82 2.822 2.522 3.994z" class="cls-12" data-name="Path 1697" transform="translate(-233.651 -160.965)"/>
        <path id="Path_1698" d="M417.314 588a6.4 6.4 0 0 1-.514 1.059.754.754 0 0 1-.417.372.538.538 0 0 1-.562-.292 1.175 1.175 0 0 1-.1-.663 3.046 3.046 0 0 1 1.139-2.111.973.973 0 0 1 .461-.227.423.423 0 0 1 .44.207.635.635 0 0 1-.022.451q-.189.604-.425 1.204z" class="cls-12" data-name="Path 1698" transform="translate(-48.271 -129.408)"/>
        <path id="Path_1699" d="M409.293 598.619a4.73 4.73 0 0 1-.066-2.09c.044-.225.142-.486.366-.536a.424.424 0 0 1 .418.194 1.079 1.079 0 0 1 .151.46 5.356 5.356 0 0 1-.044 1.858c-.055.272-.233.607-.5.547-.19-.04-.277-.252-.325-.433z" class="cls-12" data-name="Path 1699" transform="translate(-43.871 -136.004)"/>
        <path id="Path_1700" d="M423.19 587.167c-.363-.383-.234-1-.071-1.5a37.562 37.562 0 0 1 1.678-4.223c.462-.989 1.109-2.075 2.185-2.26a1 1 0 0 1 1.035.364 1.272 1.272 0 0 1 .095.794 10.961 10.961 0 0 1-2.954 6.337 2.508 2.508 0 0 1-.907.672 1.006 1.006 0 0 1-1.061-.184z" class="cls-12" data-name="Path 1700" transform="translate(-53.119 -124.745)"/>
        <path id="Path_1701" d="M536.263 436.708a4.194 4.194 0 0 1-1.509 4.033 2.786 2.786 0 0 1-3.937-.75 13.753 13.753 0 0 1 .838 5.753 3.58 3.58 0 0 1 1.778-.022 1.229 1.229 0 0 1 .885 1.368c-.162.577-1.146.737-1.344.171a3.085 3.085 0 0 1 2.063 3.839c-.161.463-.684.943-1.077.65a.918.918 0 0 1-.272-.638l-.4-2.781a1.789 1.789 0 0 1-2.633-2.236c-.047.571-.9.746-1.345.388a2.247 2.247 0 0 1-.636-1.547 21.252 21.252 0 0 1-.09-4.135 1.5 1.5 0 0 1-1.415-.171 3.077 3.077 0 0 1-3.878.308 3.934 3.934 0 0 1-1.521-3.73 5.512 5.512 0 0 1 2.17-3.518 9.356 9.356 0 0 1 3.869-1.644 8.166 8.166 0 0 1 5.742.636 5.687 5.687 0 0 1 2.712 4.026z" class="cls-13" data-name="Path 1701" transform="translate(-119.231 -26.122)"/>
        <path id="Path_1702" d="M524.416 427.147a18.3 18.3 0 0 1-.218-4.685c0 .6-.9.877-1.352.478a1.321 1.321 0 0 1-.1-1.655 3.417 3.417 0 0 1 1.406-1.1 3.029 3.029 0 0 1-1.8-3.675 5.71 5.71 0 0 1 2.923-3.309 8.444 8.444 0 0 1 6.432-.881 6.013 6.013 0 0 1 4.258 4.665 2.516 2.516 0 0 1-.881 2.538c-.887.547-2.018.135-3.039-.073a7.329 7.329 0 0 0-6.281 1.724 1.144 1.144 0 0 1 1.006.547.76.76 0 0 1-.3 1.026c-.368.159-.868-.2-.771-.587a10.438 10.438 0 0 1 .452 5.105c-.066.407-.219.882-.616 1a.774.774 0 0 1-.78-.3 1.96 1.96 0 0 1-.339-.818z" class="cls-1" data-name="Path 1702" transform="translate(-119.573 -12.881)"/>
        <path id="Path_1703" d="M523.206 394.888c3.015-3.067 10.53-3.014 12.172 1.694a3.316 3.316 0 0 1-.491 3.258 2.221 2.221 0 0 1-3.08.247 2.739 2.739 0 0 1 2.084 2.971 5.45 5.45 0 0 1-1.931 3.4 3.158 3.158 0 0 1 2.785 2.858c.055.9-.606 1.986-1.487 1.8-.818-.176-1.039-1.239-.977-2.073s.188-1.81-.425-2.379c-.336.691-1.51.447-1.819-.256a2.458 2.458 0 0 1 .387-2.181 6.4 6.4 0 0 0 1.04-2.039 1.148 1.148 0 0 1-1.7.459 1.838 1.838 0 0 1-.626-1.836 5 5 0 0 1 .882-1.834l-6.429 3.646a2.138 2.138 0 0 1-.981.359c-.92.017-1.428-1.073-1.526-1.987a7.669 7.669 0 0 1 2.122-6.107z" class="cls-14" data-name="Path 1703" transform="translate(-118.766)"/>
        <path id="Path_1704" d="M539.724 442.075a3.224 3.224 0 0 1-.423-2.691 2 2 0 0 1 2.185-1.359 2.2 2.2 0 0 1 1.462 1.407 6.494 6.494 0 0 1 .319 2.078 4 4 0 0 1 2.06.486 1.376 1.376 0 0 1 .493 1.851 1.323 1.323 0 0 1-1.668.224 3.064 3.064 0 0 1-1.144-1.4 1.523 1.523 0 0 1-1.753.683 2.746 2.746 0 0 1-1.531-1.279z" class="cls-15" data-name="Path 1704" transform="translate(-130.895 -30.257)"/>
        <path id="Path_1705" d="M545.872 458.73c.009-.206.491-.044.564.01 1.1.815.882 2.791.751 3.989-.028.251-.6.008-.667-.109a1.594 1.594 0 0 1-.2-.466.2.2 0 0 1-.038-.061 9.647 9.647 0 0 1-.41-3.363z" class="cls-15" data-name="Path 1705" transform="translate(-135.378 -44.071)"/>
        <path id="Path_1706" d="M552.83 476.041a1.283 1.283 0 0 0 1.109.671c.139-.016.358-.093.386-.258a.294.294 0 0 0 0-.03c.08 0 .158-.012.182-.084l.009-.025a.165.165 0 0 0-.066-.158 1.568 1.568 0 0 0-1.566-.295.114.114 0 0 0-.054.179z" class="cls-15" data-name="Path 1706" transform="translate(-140.027 -55.541)"/>
        <path id="Path_1707" d="M559.144 483.327c.4.528.9 1.451.458 2.088-.083.119-.362-.021-.4-.122a3.29 3.29 0 0 1-.12-.972c-.024-.334-.048-.675-.092-1.007-.009-.072.133-.014.154.013z" class="cls-15" data-name="Path 1707" transform="translate(-144.165 -60.569)"/>
        <path id="Path_1708" d="M530.1 424.172a6.652 6.652 0 0 1-2.3.154c-.447-.048-.964-.2-1.109-.629a.878.878 0 0 1 .128-.74 2.483 2.483 0 0 1 .543-.552 8.271 8.271 0 0 1 2.1-1.353 3.3 3.3 0 0 1 2.447-.086 1.614 1.614 0 0 1 .1 2.072 3.217 3.217 0 0 1-1.909 1.134z" class="cls-16" data-name="Path 1708" transform="translate(-122.52 -18.732)"/>
        <path id="Path_1709" d="M526.907 439.13a2.252 2.252 0 0 1 2.184.564.13.13 0 0 1-.035.236l.081.067c.085.065.129.166-.009.195a2.5 2.5 0 0 1-.383.048c.024.6-.089 1.4-.084 1.778.013 1.1.041 2.2.028 3.3 0 .292-.626.1-.678-.109a12.946 12.946 0 0 1-.282-5.008c.007-.045.044-.069.095-.08v-.031a2.621 2.621 0 0 1-1.033-.773c-.082-.098.037-.165.116-.187z" class="cls-16" data-name="Path 1709" transform="translate(-122.597 -30.963)"/>
        <path id="Path_1710" d="M540.009 399.719a32.624 32.624 0 0 1-5.677-.7 4.1 4.1 0 0 1-1.39-.489 1.515 1.515 0 0 1-.747-1.209 1.486 1.486 0 0 1 .617-1.129 3.623 3.623 0 0 1 1.2-.554 8.262 8.262 0 0 1 4.12-.294 4.679 4.679 0 0 1 3.245 2.4 1.467 1.467 0 0 1-.07 1.657 1.736 1.736 0 0 1-1.298.318z" class="cls-17" data-name="Path 1710" transform="translate(-126.232 -1.62)"/>
        <path id="Path_1711" d="M550.842 415.82a1.63 1.63 0 0 0 .821.988.35.35 0 0 0-.107.209 11.22 11.22 0 0 0-.124 2.246c.008.188.38.288.52.282.2.133.559.213.639.021.033-.08.068-.176.1-.283 1.121-.939-.148-4.065-1.769-3.595a.115.115 0 0 0-.08.132z" class="cls-17" data-name="Path 1711" transform="translate(-138.709 -15.3)"/>
        <path id="Path_1712" d="M556.569 437.582l.243-.062a.53.53 0 0 1 .563.256c.17.51.462 1.47.072 1.934-.086.1-.381.006-.428-.1a1.2 1.2 0 0 1-.084-.325.455.455 0 0 1-.2-.131 2.893 2.893 0 0 1-.31-1.429c.003-.096.059-.125.144-.143z" class="cls-17" data-name="Path 1712" transform="translate(-142.451 -29.936)"/>
        <path id="Path_1713" d="M601.44 737.505a6.947 6.947 0 0 1 3.984-9.327 7.89 7.89 0 0 1-2.463 9.656 1.1 1.1 0 0 1-1.014.286 1.081 1.081 0 0 1-.507-.615z" class="cls-18" data-name="Path 1713" transform="translate(-172.189 -224.48)"/>
        <path id="Path_1714" d="M405.948 663.855a21.063 21.063 0 0 0-9.691-4.35 6.752 6.752 0 0 0 8.5 4.812c.094-.212 1.37-.317 1.191-.462z" class="cls-18" data-name="Path 1714" transform="translate(-35.249 -178.517)"/>
        <path id="Path_1715" d="M369.032 695.132a12.647 12.647 0 0 0-12.5.759c3.509.889 9.54 1.326 12.5-.759z" class="cls-18" data-name="Path 1715" transform="translate(-8.66 -201.492)"/>
        <path id="Path_1716" d="M627.794 729.908a13.053 13.053 0 0 1-.971 10.695 17.528 17.528 0 0 1-1.436-3.58 5.886 5.886 0 0 1 .229-3.788 13.254 13.254 0 0 1 2.178-3.327z" class="cls-19" data-name="Path 1716" transform="translate(-188.468 -225.638)"/>
        <path id="Path_1717" d="M369.109 663.568a3.3 3.3 0 0 0 1.752 1.99 9.181 9.181 0 0 0 2.615.754q1.326.237 2.658.436a1.4 1.4 0 0 0 1.158-.169.936.936 0 0 0 .147-1.067 2.472 2.472 0 0 0-.761-.852 16.336 16.336 0 0 0-8.5-3.46 1.419 1.419 0 0 1 .733 1.051c.089.436.089.888.198 1.317z" class="cls-19" data-name="Path 1717" transform="translate(-16.453 -179.652)"/>
        <path id="Path_1718" d="M374.138 720.342a9.636 9.636 0 0 1 8.105-6.632 23.345 23.345 0 0 1-3.563 5.531 7.878 7.878 0 0 1-5.815 2.683 1.092 1.092 0 0 0 .885-.561 4.172 4.172 0 0 0 .388-1.021z" class="cls-19" data-name="Path 1718" transform="translate(-19.592 -214.797)"/>
        <path id="Path_1719" d="M409.32 715.3a8.784 8.784 0 0 1-3.425 10.723 28.288 28.288 0 0 1 .346-6.879c.487-2.25 1.211-2.499 3.079-3.844z" class="cls-19" data-name="Path 1719" transform="translate(-41.665 -215.861)"/>
        <path id="Path_1720" d="M576.051 725.2a9.535 9.535 0 0 0 9.088-5.811l.2.659a8.256 8.256 0 0 0-9.283 5.152z" class="cls-20" data-name="Path 1720" transform="translate(-155.584 -218.599)"/>
        <path id="Path_1721" d="M640.307 724.834a5.985 5.985 0 0 1-.338-1.968.938.938 0 0 1 .207-.666c.35-.345.937-.051 1.308.272a11.59 11.59 0 0 1 3.921 7.942 9.351 9.351 0 0 1-5.098-5.58z" class="cls-20" data-name="Path 1721" transform="translate(-198.364 -220.375)"/>
        <path id="Path_1722" d="M354.884 679.2a12.122 12.122 0 0 0-11.292-2.249 7.042 7.042 0 0 0 5.213 2.83 20.356 20.356 0 0 0 6.079-.581z" class="cls-20" data-name="Path 1722" transform="translate(0 -189.829)"/>
        <path id="Path_1723" d="M359.147 715.525a13.929 13.929 0 0 1-7.022 7.543c-.319.149-.776.25-.96-.051a.763.763 0 0 1 .1-.718 28.39 28.39 0 0 1 3.091-5.141c1.262-1.558 2.851-1.132 4.791-1.633z" class="cls-20" data-name="Path 1723" transform="translate(-5.029 -216.011)"/>
    </g>
</svg>
