<svg width="60" height="61" viewBox="0 0 60 61" fill="none" xmlns="http://www.w3.org/2000/svg">
<g clip-path="url(#clip0_6849_320551)">
<path d="M30 60.6127C46.5685 60.6127 60 47.1813 60 30.6127C60 14.0442 46.5685 0.612732 30 0.612732C13.4315 0.612732 0 14.0442 0 30.6127C0 47.1813 13.4315 60.6127 30 60.6127Z" fill="#EAEAEA" fill-opacity="0.6"/>
<g opacity="0.1">
<path opacity="0.1" d="M37.5765 17.1304V27.3363C37.5734 28.535 37.0958 29.6838 36.2481 30.5315C35.4005 31.3791 34.2517 31.8567 33.053 31.8598H21.6118L16.9059 35.7775L16.2765 36.4422V31.5951C15.3994 31.2796 14.6408 30.7014 14.104 29.9394C13.5672 29.1773 13.2783 28.2684 13.2765 27.3363V17.1304C13.2796 15.9316 13.7572 14.7829 14.6048 13.9352C15.4525 13.0876 16.6013 12.61 17.8 12.6069H33.053C34.2517 12.61 35.4005 13.0876 36.2481 13.9352C37.0958 14.7829 37.5734 15.9316 37.5765 17.1304Z" fill="white"/>
</g>
<path d="M45 23.3062V36.1517C44.9962 37.6605 44.4066 39.1064 43.3601 40.1733C42.3136 41.2402 40.8953 41.8413 39.4154 41.8452H25.2905L19.4808 46.7761L18.7037 47.6127V41.512C17.6209 41.1149 16.6844 40.3872 16.0217 39.4281C15.3589 38.469 15.0022 37.3249 15 36.1517V23.3062C15.0038 21.7974 15.5934 20.3515 16.6399 19.2846C17.6864 18.2177 19.1047 17.6166 20.5846 17.6127H39.4154C40.8953 17.6166 42.3136 18.2177 43.3601 19.2846C44.4066 20.3515 44.9962 21.7974 45 23.3062Z" fill="#863399"/>
<path d="M18.6559 48.6125C18.4081 48.6125 18.1705 48.5124 17.9954 48.3342C17.8202 48.156 17.7218 47.9143 17.7218 47.6623V42.1769C16.6093 41.6328 15.6701 40.7809 15.0119 39.7188C14.3536 38.6567 14.0029 37.4274 14 36.1718V23.2933C14 21.5215 14.692 19.8223 15.9237 18.5694C17.1554 17.3166 18.8259 16.6127 20.5678 16.6127H39.4322C41.1741 16.6127 42.8446 17.3166 44.0763 18.5694C45.308 19.8223 46 21.5215 46 23.2933V36.1718C46 37.9436 45.308 39.6428 44.0763 40.8957C42.8446 42.1485 41.1741 42.8524 39.4322 42.8524H25.5667L20.0716 47.5361L19.3418 48.3378C19.2513 48.4278 19.144 48.4985 19.0262 48.5457C18.9083 48.5928 18.7824 48.6156 18.6559 48.6125ZM20.546 18.5352C19.3059 18.5372 18.1172 19.0391 17.2404 19.931C16.3636 20.8229 15.8701 22.032 15.8682 23.2933V36.1718C15.8781 37.148 16.1813 38.0978 16.7369 38.8938C17.2926 39.6899 18.0742 40.2941 18.977 40.6255C19.1577 40.6905 19.3139 40.8113 19.4238 40.971C19.5337 41.1307 19.5918 41.3213 19.59 41.5163V45.4132L24.6326 41.1228C24.8012 40.9762 25.0165 40.897 25.2383 40.9002H39.4322C40.6722 40.8982 41.8609 40.3963 42.7377 39.5044C43.6145 38.6125 44.108 37.4034 44.1099 36.1421V23.2933C44.108 22.032 43.6145 20.8229 42.7377 19.931C41.8609 19.0391 40.6722 18.5372 39.4322 18.5352H20.546Z" fill="#863399"/>
<path opacity="0.56" d="M26 17.6127H20.9986C19.4153 17.6313 17.9023 18.2195 16.782 19.252C15.6616 20.2845 15.0222 21.6797 15 23.1407V35.6127C15 35.6127 17.0021 19.1798 26 17.6127Z" fill="#592266"/>
<circle cx="24" cy="30.6127" r="2" fill="white"/>
<circle cx="30" cy="30.6127" r="2" fill="white"/>
<circle cx="36" cy="30.6127" r="2" fill="white"/>
</g>
<defs>
<clipPath id="clip0_6849_320551">
<rect width="60" height="60" fill="white" transform="translate(0 0.612732)"/>
</clipPath>
</defs>
</svg>
