<svg width="60" height="60" viewBox="0 0 60 60" fill="none" xmlns="http://www.w3.org/2000/svg">
<g clip-path="url(#clip0_82_74863)">
<path d="M30 60C46.5685 60 60 46.5685 60 30C60 13.4315 46.5685 0 30 0C13.4315 0 0 13.4315 0 30C0 46.5685 13.4315 60 30 60Z" fill="#E3F2FB"/>
<path d="M45.2808 14.0803H45.2012V14.0405L45.2808 14.0803Z" fill="white"/>
<g clip-path="url(#clip1_82_74863)">
<path d="M34.4849 16.7569V29.0822C34.4849 30.2905 33.5068 31.275 32.2921 31.275L22.0764 31.2622C21.8591 31.3005 21.6737 31.4284 21.5842 31.4731L18.228 33.2312L14.8781 34.9892C14.6288 35.117 14.3347 34.9316 14.3475 34.6504L14.4818 31.2813H13.932C12.7237 31.2813 11.7393 30.3032 11.7393 29.0886V16.7633C11.7393 15.555 12.7174 14.5706 13.932 14.5706H32.2985C33.5068 14.5706 34.4912 15.5487 34.4912 16.7633L34.4849 16.7569Z" fill="#FAFBFC"/>
<path d="M14.7109 35.6486C14.5255 35.6486 14.3401 35.5975 14.1803 35.4952C13.8799 35.3034 13.7072 34.9774 13.7264 34.6194L13.8351 31.8961C12.3264 31.8449 11.1182 30.6047 11.1182 29.0832V16.7579C11.1182 15.2108 12.3775 13.9451 13.931 13.9451H32.2975C33.851 13.9451 35.1104 15.2045 35.1104 16.7579V29.0832C35.1104 30.6367 33.851 31.8961 32.2975 31.8961L22.1521 31.8833C22.0946 31.9025 22.0179 31.9472 21.9668 31.9728L21.8709 32.0239L15.1712 35.5336C15.0306 35.6103 14.8707 35.6486 14.7109 35.6486V35.6486ZM13.931 15.1917C13.068 15.1917 12.3584 15.8949 12.3584 16.7643V29.0896C12.3584 29.9527 13.0616 30.6623 13.931 30.6623H15.1328L14.9858 34.2358L21.3019 30.9307C21.4681 30.8349 21.6983 30.707 21.9795 30.6559H32.2975C33.1606 30.6559 33.8702 29.9527 33.8702 29.0896V16.7643C33.8702 15.9013 33.1669 15.1917 32.2975 15.1917H13.931V15.1917Z" fill="#6A509B"/>
<g style="mix-blend-mode:multiply" opacity="0.1">
<path d="M32.1835 13.9705C33.7561 13.9705 35.0283 15.2427 35.0283 16.8153V29.1726C35.0283 30.7452 33.7561 32.0174 32.1835 32.0174C32.0045 32.0174 31.8574 31.8704 31.8574 31.6914V14.2901C31.8574 14.1111 32.0045 13.9641 32.1835 13.9641V13.9705Z" fill="#6A509B"/>
</g>
<path d="M35.1624 24.4612H23.3613V31.8768H35.1624V24.4612Z" fill="#FAFBFC"/>
<path d="M46.5423 27.525V40.1317C46.5423 41.0778 45.7751 41.8449 44.829 41.8449H43.9084L44.0427 45.0797C44.0555 45.3482 43.7678 45.5272 43.5313 45.3993L40.3157 43.718L37.1001 42.0367C37.017 41.992 36.9595 41.928 36.9339 41.8449H26.4369C25.4908 41.8449 24.7236 41.0778 24.7236 40.1317V27.525C24.7236 26.5789 25.4908 25.8118 26.4369 25.8118H44.829C45.7751 25.8118 46.5423 26.5789 46.5423 27.525V27.525Z" fill="#FAFBFC"/>
<path d="M43.6971 46.0825C43.5373 46.0825 43.3839 46.0441 43.2368 45.9674L36.7993 42.5984C36.7353 42.5665 36.6778 42.5281 36.6267 42.4833H26.4365C25.1388 42.4833 24.084 41.4285 24.084 40.1308V27.5242C24.084 26.2264 25.1388 25.1716 26.4365 25.1716H44.8286C46.1264 25.1716 47.1812 26.2264 47.1812 27.5242V40.1308C47.1812 41.4285 46.1264 42.4833 44.8286 42.4833H44.5729L44.6816 45.0532C44.6944 45.4112 44.5218 45.7373 44.2213 45.9291C44.0615 46.0314 43.8761 46.0825 43.6907 46.0825H43.6971ZM37.5025 41.5244L43.3839 44.6058L43.2432 41.2112H44.8286C45.4232 41.2112 45.9026 40.7317 45.9026 40.1372V27.5306C45.9026 26.936 45.4232 26.4566 44.8286 26.4566H26.4365C25.842 26.4566 25.3625 26.936 25.3625 27.5306V40.1372C25.3625 40.7317 25.842 41.2112 26.4365 41.2112H37.4002L37.5025 41.5308V41.5244Z" fill="#005895"/>
<g style="mix-blend-mode:multiply">
<path d="M44.2268 25.8235H44.5209C45.6269 25.8235 46.5283 26.7249 46.5283 27.8308V39.8301C46.5283 40.9489 45.6205 41.8566 44.5017 41.8566H44.2205C44.1246 41.8566 44.0479 41.7799 44.0479 41.684V26.0025C44.0479 25.9066 44.1246 25.8299 44.2205 25.8299L44.2268 25.8235Z" fill="#D8E5EE"/>
</g>
<path d="M30.0845 35.4622C30.8118 35.4622 31.4014 34.8726 31.4014 34.1453C31.4014 33.418 30.8118 32.8284 30.0845 32.8284C29.3572 32.8284 28.7676 33.418 28.7676 34.1453C28.7676 34.8726 29.3572 35.4622 30.0845 35.4622Z" fill="#005895"/>
<path d="M35.4947 35.462C36.222 35.462 36.8116 34.8724 36.8116 34.145C36.8116 33.4177 36.222 32.8281 35.4947 32.8281C34.7673 32.8281 34.1777 33.4177 34.1777 34.145C34.1777 34.8724 34.7673 35.462 35.4947 35.462Z" fill="#005895"/>
<path d="M41.2085 35.462C41.9358 35.462 42.5254 34.8724 42.5254 34.145C42.5254 33.4177 41.9358 32.8281 41.2085 32.8281C40.4812 32.8281 39.8916 33.4177 39.8916 34.145C39.8916 34.8724 40.4812 35.462 41.2085 35.462Z" fill="#005895"/>
</g>
</g>
<defs>
<clipPath id="clip0_82_74863">
<rect width="60" height="60" fill="white"/>
</clipPath>
<clipPath id="clip1_82_74863">
<rect width="37.3333" height="32.8081" fill="white" transform="translate(10.667 13.5964)"/>
</clipPath>
</defs>
</svg>
