<svg width="175" height="109" viewBox="0 0 175 109" fill="none" xmlns="http://www.w3.org/2000/svg">
<path d="M172.138 77.2824L136.701 98.3563L136.682 75.3247L172.138 77.2824Z" fill="url(#paint0_linear_840_468211)"/>
<path d="M162.894 31.6446L1.28074 31.7198L10.5056 77.3857L172.119 77.3104L162.894 31.6446Z" fill="url(#paint1_linear_840_468211)"/>
<path d="M22.8516 57.3223C22.8516 57.3613 22.8398 57.3965 22.8164 57.4277C22.7969 57.459 22.7578 57.4844 22.6992 57.5039C22.6445 57.5234 22.5703 57.5391 22.4766 57.5508C22.3828 57.5625 22.2637 57.5684 22.1191 57.5684C21.9785 57.5684 21.8613 57.5625 21.7676 57.5508C21.6738 57.5391 21.5996 57.5234 21.5449 57.5039C21.4902 57.4844 21.4512 57.459 21.4277 57.4277C21.4043 57.3965 21.3926 57.3613 21.3926 57.3223V51.1523H21.3809L19.1836 57.3164C19.168 57.3672 19.1426 57.4102 19.1074 57.4453C19.0723 57.4766 19.0234 57.502 18.9609 57.5215C18.9023 57.541 18.8262 57.5527 18.7324 57.5566C18.6387 57.5645 18.5254 57.5684 18.3926 57.5684C18.2598 57.5684 18.1465 57.5625 18.0527 57.5508C17.959 57.543 17.8809 57.5293 17.8184 57.5098C17.7598 57.4863 17.7129 57.459 17.6777 57.4277C17.6426 57.3965 17.6191 57.3594 17.6074 57.3164L15.4863 51.1523H15.4746V57.3223C15.4746 57.3613 15.4629 57.3965 15.4395 57.4277C15.4199 57.459 15.3809 57.4844 15.3223 57.5039C15.2637 57.5234 15.1875 57.5391 15.0938 57.5508C15.0039 57.5625 14.8867 57.5684 14.7422 57.5684C14.6016 57.5684 14.4844 57.5625 14.3906 57.5508C14.2969 57.5391 14.2207 57.5234 14.1621 57.5039C14.1074 57.4844 14.0684 57.459 14.0449 57.4277C14.0254 57.3965 14.0156 57.3613 14.0156 57.3223V50.5664C14.0156 50.3672 14.0684 50.2148 14.1738 50.1094C14.2793 50.0039 14.4199 49.9512 14.5957 49.9512H15.6035C15.7832 49.9512 15.9375 49.9668 16.0664 49.998C16.1953 50.0254 16.3066 50.0742 16.4004 50.1445C16.4941 50.2109 16.5723 50.3008 16.6348 50.4141C16.6973 50.5234 16.752 50.6602 16.7988 50.8242L18.4395 55.3418H18.4629L20.1621 50.8359C20.2129 50.6719 20.2676 50.5332 20.3262 50.4199C20.3887 50.3066 20.459 50.2148 20.5371 50.1445C20.6191 50.0742 20.7148 50.0254 20.8242 49.998C20.9336 49.9668 21.0605 49.9512 21.2051 49.9512H22.2422C22.3477 49.9512 22.4375 49.9648 22.5117 49.9922C22.5898 50.0195 22.6523 50.0605 22.6992 50.1152C22.75 50.166 22.7871 50.2305 22.8105 50.3086C22.8379 50.3828 22.8516 50.4688 22.8516 50.5664V57.3223ZM29.7012 54.668C29.7012 55.1133 29.6426 55.5195 29.5254 55.8867C29.4082 56.2539 29.2305 56.5703 28.9922 56.8359C28.7539 57.1016 28.4551 57.3066 28.0957 57.4512C27.7363 57.5957 27.3164 57.668 26.8359 57.668C26.3711 57.668 25.9668 57.6035 25.623 57.4746C25.2793 57.3457 24.9941 57.1582 24.7676 56.9121C24.541 56.666 24.373 56.3633 24.2637 56.0039C24.1543 55.6445 24.0996 55.2344 24.0996 54.7734C24.0996 54.3281 24.1582 53.9219 24.2754 53.5547C24.3965 53.1836 24.5762 52.8672 24.8145 52.6055C25.0527 52.3398 25.3496 52.1348 25.7051 51.9902C26.0645 51.8457 26.4844 51.7734 26.9648 51.7734C27.4336 51.7734 27.8398 51.8379 28.1836 51.9668C28.5273 52.0918 28.8105 52.2773 29.0332 52.5234C29.2598 52.7695 29.4277 53.0723 29.5371 53.4316C29.6465 53.791 29.7012 54.2031 29.7012 54.668ZM28.1836 54.7266C28.1836 54.4688 28.1621 54.2324 28.1191 54.0176C28.0801 53.7988 28.0117 53.6094 27.9141 53.4492C27.8164 53.2891 27.6855 53.1641 27.5215 53.0742C27.3613 52.9844 27.1582 52.9395 26.9121 52.9395C26.6934 52.9395 26.502 52.9805 26.3379 53.0625C26.1738 53.1406 26.0391 53.2578 25.9336 53.4141C25.8281 53.5664 25.748 53.752 25.6934 53.9707C25.6426 54.1855 25.6172 54.4316 25.6172 54.709C25.6172 54.9668 25.6387 55.2051 25.6816 55.4238C25.7246 55.6387 25.793 55.8262 25.8867 55.9863C25.9844 56.1465 26.1152 56.2715 26.2793 56.3613C26.4434 56.4473 26.6465 56.4902 26.8887 56.4902C27.1113 56.4902 27.3047 56.4512 27.4688 56.373C27.6328 56.291 27.7676 56.1738 27.873 56.0215C27.9785 55.8691 28.0566 55.6855 28.1074 55.4707C28.1582 55.252 28.1836 55.0039 28.1836 54.7266ZM34.2305 52.5938C34.2305 52.7344 34.2266 52.8496 34.2188 52.9395C34.2109 53.0293 34.1992 53.0996 34.1836 53.1504C34.168 53.2012 34.1465 53.2363 34.1191 53.2559C34.0957 53.2754 34.0645 53.2852 34.0254 53.2852C33.9941 53.2852 33.959 53.2793 33.9199 53.2676C33.8809 53.252 33.8359 53.2363 33.7852 53.2207C33.7383 53.2051 33.6855 53.1914 33.627 53.1797C33.5684 53.1641 33.5039 53.1562 33.4336 53.1562C33.3516 53.1562 33.2695 53.1738 33.1875 53.209C33.1055 53.2402 33.0195 53.291 32.9297 53.3613C32.8438 53.4316 32.752 53.5254 32.6543 53.6426C32.5605 53.7598 32.459 53.9043 32.3496 54.0762V57.334C32.3496 57.373 32.3379 57.4082 32.3145 57.4395C32.291 57.4668 32.25 57.4902 32.1914 57.5098C32.1367 57.5293 32.0625 57.543 31.9688 57.5508C31.875 57.5625 31.7559 57.5684 31.6113 57.5684C31.4668 57.5684 31.3477 57.5625 31.2539 57.5508C31.1602 57.543 31.084 57.5293 31.0254 57.5098C30.9707 57.4902 30.9316 57.4668 30.9082 57.4395C30.8848 57.4082 30.873 57.373 30.873 57.334V52.1074C30.873 52.0684 30.8828 52.0352 30.9023 52.0078C30.9219 51.9766 30.957 51.9512 31.0078 51.9316C31.0586 51.9121 31.123 51.8984 31.2012 51.8906C31.2832 51.8789 31.3848 51.873 31.5059 51.873C31.6309 51.873 31.7344 51.8789 31.8164 51.8906C31.8984 51.8984 31.9609 51.9121 32.0039 51.9316C32.0508 51.9512 32.084 51.9766 32.1035 52.0078C32.123 52.0352 32.1328 52.0684 32.1328 52.1074V52.7578C32.2695 52.5625 32.3984 52.4023 32.5195 52.2773C32.6406 52.1484 32.7559 52.0469 32.8652 51.9727C32.9746 51.8984 33.084 51.8477 33.1934 51.8203C33.3027 51.7891 33.4121 51.7734 33.5215 51.7734C33.5723 51.7734 33.627 51.7773 33.6855 51.7852C33.7441 51.7891 33.8047 51.7988 33.8672 51.8145C33.9297 51.8262 33.9844 51.8418 34.0312 51.8613C34.0781 51.877 34.1113 51.8945 34.1309 51.9141C34.1543 51.9336 34.1699 51.9551 34.1777 51.9785C34.1895 52.002 34.1992 52.0352 34.207 52.0781C34.2148 52.1172 34.2207 52.1777 34.2246 52.2598C34.2285 52.3418 34.2305 52.4531 34.2305 52.5938ZM39.8262 54.5684C39.8262 54.748 39.7852 54.8809 39.7031 54.9668C39.625 55.0527 39.5156 55.0957 39.375 55.0957H36.1934C36.1934 55.3184 36.2188 55.5215 36.2695 55.7051C36.3242 55.8848 36.4082 56.0391 36.5215 56.168C36.6387 56.293 36.7871 56.3887 36.9668 56.4551C37.1504 56.5215 37.3691 56.5547 37.623 56.5547C37.8809 56.5547 38.1074 56.5371 38.3027 56.502C38.498 56.4629 38.666 56.4219 38.8066 56.3789C38.9512 56.332 39.0703 56.291 39.1641 56.2559C39.2578 56.2168 39.334 56.1973 39.3926 56.1973C39.4277 56.1973 39.457 56.2051 39.4805 56.2207C39.5039 56.2324 39.5234 56.2559 39.5391 56.291C39.5547 56.3262 39.5645 56.377 39.5684 56.4434C39.5762 56.5059 39.5801 56.5859 39.5801 56.6836C39.5801 56.7695 39.5781 56.8438 39.5742 56.9062C39.5703 56.9648 39.5645 57.0156 39.5566 57.0586C39.5488 57.1016 39.5371 57.1387 39.5215 57.1699C39.5059 57.1973 39.4844 57.2246 39.457 57.252C39.4336 57.2793 39.3652 57.3164 39.252 57.3633C39.1387 57.4102 38.9941 57.457 38.8184 57.5039C38.6426 57.5469 38.4414 57.584 38.2148 57.6152C37.9883 57.6504 37.7461 57.668 37.4883 57.668C37.0234 57.668 36.6152 57.6094 36.2637 57.4922C35.916 57.375 35.625 57.1973 35.3906 56.959C35.1562 56.7207 34.9805 56.4199 34.8633 56.0566C34.75 55.6934 34.6934 55.2676 34.6934 54.7793C34.6934 54.3145 34.7539 53.8965 34.875 53.5254C34.9961 53.1504 35.1719 52.834 35.4023 52.5762C35.6328 52.3145 35.9121 52.1152 36.2402 51.9785C36.5723 51.8418 36.9453 51.7734 37.3594 51.7734C37.7969 51.7734 38.1699 51.8379 38.4785 51.9668C38.791 52.0957 39.0469 52.2754 39.2461 52.5059C39.4453 52.7324 39.5918 53.002 39.6855 53.3145C39.7793 53.627 39.8262 53.9668 39.8262 54.334V54.5684ZM38.3965 54.1465C38.4082 53.7324 38.3242 53.4082 38.1445 53.1738C37.9688 52.9355 37.6953 52.8164 37.3242 52.8164C37.1367 52.8164 36.9727 52.8516 36.832 52.9219C36.6953 52.9922 36.5801 53.0879 36.4863 53.209C36.3965 53.3262 36.3262 53.4668 36.2754 53.6309C36.2285 53.791 36.2012 53.9629 36.1934 54.1465H38.3965ZM47.4434 55.8574C47.4434 56.1543 47.3867 56.416 47.2734 56.6426C47.1641 56.8691 47.0078 57.0586 46.8047 57.2109C46.6016 57.3633 46.3613 57.4766 46.084 57.5508C45.8066 57.6289 45.5059 57.668 45.1816 57.668C44.9863 57.668 44.7988 57.6523 44.6191 57.6211C44.4434 57.5938 44.2852 57.5586 44.1445 57.5156C44.0039 57.4688 43.8867 57.4219 43.793 57.375C43.6992 57.3281 43.6309 57.2852 43.5879 57.2461C43.5449 57.2031 43.5117 57.1387 43.4883 57.0527C43.4648 56.9629 43.4531 56.832 43.4531 56.6602C43.4531 56.5469 43.457 56.457 43.4648 56.3906C43.4727 56.3203 43.4844 56.2656 43.5 56.2266C43.5156 56.1836 43.5352 56.1562 43.5586 56.1445C43.582 56.1289 43.6113 56.1211 43.6465 56.1211C43.6895 56.1211 43.752 56.1465 43.834 56.1973C43.9199 56.2441 44.0254 56.2969 44.1504 56.3555C44.2754 56.4141 44.4199 56.4688 44.584 56.5195C44.752 56.5703 44.9414 56.5957 45.1523 56.5957C45.2852 56.5957 45.4023 56.582 45.5039 56.5547C45.6094 56.5273 45.6992 56.4883 45.7734 56.4375C45.8516 56.3867 45.9102 56.3223 45.9492 56.2441C45.9883 56.166 46.0078 56.0762 46.0078 55.9746C46.0078 55.8574 45.9707 55.7578 45.8965 55.6758C45.8262 55.5898 45.7305 55.5156 45.6094 55.4531C45.4922 55.3906 45.3574 55.332 45.2051 55.2773C45.0566 55.2227 44.9023 55.1621 44.7422 55.0957C44.5859 55.0293 44.4316 54.9531 44.2793 54.8672C44.1309 54.7812 43.9961 54.6758 43.875 54.5508C43.7578 54.4258 43.6621 54.2754 43.5879 54.0996C43.5176 53.9238 43.4824 53.7129 43.4824 53.4668C43.4824 53.2168 43.5312 52.9883 43.6289 52.7812C43.7266 52.5703 43.8672 52.3906 44.0508 52.2422C44.2344 52.0938 44.457 51.9785 44.7188 51.8965C44.9844 51.8145 45.2812 51.7734 45.6094 51.7734C45.7734 51.7734 45.9316 51.7852 46.084 51.8086C46.2402 51.832 46.3809 51.8613 46.5059 51.8965C46.6309 51.9316 46.7363 51.9707 46.8223 52.0137C46.9082 52.0527 46.9688 52.0879 47.0039 52.1191C47.043 52.1465 47.0703 52.1758 47.0859 52.207C47.1016 52.2344 47.1133 52.2695 47.1211 52.3125C47.1289 52.3516 47.1348 52.4023 47.1387 52.4648C47.1465 52.5234 47.1504 52.5977 47.1504 52.6875C47.1504 52.793 47.1465 52.8789 47.1387 52.9453C47.1348 53.0117 47.125 53.0645 47.1094 53.1035C47.0977 53.1426 47.0801 53.1699 47.0566 53.1855C47.0332 53.1973 47.0059 53.2031 46.9746 53.2031C46.9395 53.2031 46.8848 53.1836 46.8105 53.1445C46.7363 53.1016 46.6426 53.0566 46.5293 53.0098C46.4199 52.9629 46.291 52.9199 46.1426 52.8809C45.998 52.8379 45.832 52.8164 45.6445 52.8164C45.5117 52.8164 45.3965 52.8301 45.2988 52.8574C45.2012 52.8848 45.1211 52.9238 45.0586 52.9746C44.9961 53.0254 44.9492 53.0859 44.918 53.1562C44.8867 53.2227 44.8711 53.2949 44.8711 53.373C44.8711 53.4941 44.9082 53.5957 44.9824 53.6777C45.0566 53.7598 45.1543 53.832 45.2754 53.8945C45.3965 53.957 45.5332 54.0156 45.6855 54.0703C45.8418 54.125 45.998 54.1855 46.1543 54.252C46.3145 54.3145 46.4707 54.3887 46.623 54.4746C46.7793 54.5605 46.918 54.666 47.0391 54.791C47.1602 54.916 47.2578 55.0664 47.332 55.2422C47.4062 55.4141 47.4434 55.6191 47.4434 55.8574ZM51.5098 56.8184C51.5098 56.9902 51.498 57.123 51.4746 57.2168C51.4551 57.3066 51.4277 57.3711 51.3926 57.4102C51.3574 57.4453 51.3047 57.4785 51.2344 57.5098C51.168 57.5371 51.0879 57.5605 50.9941 57.5801C50.9043 57.6035 50.8047 57.6211 50.6953 57.6328C50.5898 57.6445 50.4824 57.6504 50.373 57.6504C50.0801 57.6504 49.8262 57.6133 49.6113 57.5391C49.3965 57.4648 49.2188 57.3516 49.0781 57.1992C48.9375 57.043 48.834 56.8477 48.7676 56.6133C48.7012 56.3789 48.668 56.1016 48.668 55.7812V53.1035H48.041C47.9668 53.1035 47.9102 53.0586 47.8711 52.9688C47.832 52.875 47.8125 52.7207 47.8125 52.5059C47.8125 52.3926 47.8164 52.2969 47.8242 52.2188C47.8359 52.1406 47.8516 52.0801 47.8711 52.0371C47.8906 51.9902 47.9141 51.957 47.9414 51.9375C47.9727 51.918 48.0078 51.9082 48.0469 51.9082H48.668V50.7422C48.668 50.7031 48.6777 50.668 48.6973 50.6367C48.7207 50.6055 48.7598 50.5801 48.8145 50.5605C48.873 50.5371 48.9492 50.5215 49.043 50.5137C49.1406 50.502 49.2598 50.4961 49.4004 50.4961C49.5449 50.4961 49.6641 50.502 49.7578 50.5137C49.8555 50.5215 49.9316 50.5371 49.9863 50.5605C50.041 50.5801 50.0801 50.6055 50.1035 50.6367C50.127 50.668 50.1387 50.7031 50.1387 50.7422V51.9082H51.2754C51.3145 51.9082 51.3477 51.918 51.375 51.9375C51.4062 51.957 51.4316 51.9902 51.4512 52.0371C51.4707 52.0801 51.4844 52.1406 51.4922 52.2188C51.5039 52.2969 51.5098 52.3926 51.5098 52.5059C51.5098 52.7207 51.4902 52.875 51.4512 52.9688C51.4121 53.0586 51.3555 53.1035 51.2812 53.1035H50.1387V55.5586C50.1387 55.8438 50.1836 56.0586 50.2734 56.2031C50.3633 56.3438 50.5234 56.4141 50.7539 56.4141C50.832 56.4141 50.9023 56.4082 50.9648 56.3965C51.0273 56.3809 51.082 56.3652 51.1289 56.3496C51.1797 56.3301 51.2207 56.3145 51.252 56.3027C51.2871 56.2871 51.3184 56.2793 51.3457 56.2793C51.3691 56.2793 51.3906 56.2871 51.4102 56.3027C51.4336 56.3145 51.4512 56.3418 51.4629 56.3848C51.4746 56.4238 51.4844 56.4785 51.4922 56.5488C51.5039 56.6191 51.5098 56.709 51.5098 56.8184ZM57.7441 54.668C57.7441 55.1133 57.6855 55.5195 57.5684 55.8867C57.4512 56.2539 57.2734 56.5703 57.0352 56.8359C56.7969 57.1016 56.498 57.3066 56.1387 57.4512C55.7793 57.5957 55.3594 57.668 54.8789 57.668C54.4141 57.668 54.0098 57.6035 53.666 57.4746C53.3223 57.3457 53.0371 57.1582 52.8105 56.9121C52.584 56.666 52.416 56.3633 52.3066 56.0039C52.1973 55.6445 52.1426 55.2344 52.1426 54.7734C52.1426 54.3281 52.2012 53.9219 52.3184 53.5547C52.4395 53.1836 52.6191 52.8672 52.8574 52.6055C53.0957 52.3398 53.3926 52.1348 53.748 51.9902C54.1074 51.8457 54.5273 51.7734 55.0078 51.7734C55.4766 51.7734 55.8828 51.8379 56.2266 51.9668C56.5703 52.0918 56.8535 52.2773 57.0762 52.5234C57.3027 52.7695 57.4707 53.0723 57.5801 53.4316C57.6895 53.791 57.7441 54.2031 57.7441 54.668ZM56.2266 54.7266C56.2266 54.4688 56.2051 54.2324 56.1621 54.0176C56.123 53.7988 56.0547 53.6094 55.957 53.4492C55.8594 53.2891 55.7285 53.1641 55.5645 53.0742C55.4043 52.9844 55.2012 52.9395 54.9551 52.9395C54.7363 52.9395 54.5449 52.9805 54.3809 53.0625C54.2168 53.1406 54.082 53.2578 53.9766 53.4141C53.8711 53.5664 53.791 53.752 53.7363 53.9707C53.6855 54.1855 53.6602 54.4316 53.6602 54.709C53.6602 54.9668 53.6816 55.2051 53.7246 55.4238C53.7676 55.6387 53.8359 55.8262 53.9297 55.9863C54.0273 56.1465 54.1582 56.2715 54.3223 56.3613C54.4863 56.4473 54.6895 56.4902 54.9316 56.4902C55.1543 56.4902 55.3477 56.4512 55.5117 56.373C55.6758 56.291 55.8105 56.1738 55.916 56.0215C56.0215 55.8691 56.0996 55.6855 56.1504 55.4707C56.2012 55.252 56.2266 55.0039 56.2266 54.7266ZM62.2734 52.5938C62.2734 52.7344 62.2695 52.8496 62.2617 52.9395C62.2539 53.0293 62.2422 53.0996 62.2266 53.1504C62.2109 53.2012 62.1895 53.2363 62.1621 53.2559C62.1387 53.2754 62.1074 53.2852 62.0684 53.2852C62.0371 53.2852 62.002 53.2793 61.9629 53.2676C61.9238 53.252 61.8789 53.2363 61.8281 53.2207C61.7812 53.2051 61.7285 53.1914 61.6699 53.1797C61.6113 53.1641 61.5469 53.1562 61.4766 53.1562C61.3945 53.1562 61.3125 53.1738 61.2305 53.209C61.1484 53.2402 61.0625 53.291 60.9727 53.3613C60.8867 53.4316 60.7949 53.5254 60.6973 53.6426C60.6035 53.7598 60.502 53.9043 60.3926 54.0762V57.334C60.3926 57.373 60.3809 57.4082 60.3574 57.4395C60.334 57.4668 60.293 57.4902 60.2344 57.5098C60.1797 57.5293 60.1055 57.543 60.0117 57.5508C59.918 57.5625 59.7988 57.5684 59.6543 57.5684C59.5098 57.5684 59.3906 57.5625 59.2969 57.5508C59.2031 57.543 59.127 57.5293 59.0684 57.5098C59.0137 57.4902 58.9746 57.4668 58.9512 57.4395C58.9277 57.4082 58.916 57.373 58.916 57.334V52.1074C58.916 52.0684 58.9258 52.0352 58.9453 52.0078C58.9648 51.9766 59 51.9512 59.0508 51.9316C59.1016 51.9121 59.166 51.8984 59.2441 51.8906C59.3262 51.8789 59.4277 51.873 59.5488 51.873C59.6738 51.873 59.7773 51.8789 59.8594 51.8906C59.9414 51.8984 60.0039 51.9121 60.0469 51.9316C60.0938 51.9512 60.127 51.9766 60.1465 52.0078C60.166 52.0352 60.1758 52.0684 60.1758 52.1074V52.7578C60.3125 52.5625 60.4414 52.4023 60.5625 52.2773C60.6836 52.1484 60.7988 52.0469 60.9082 51.9727C61.0176 51.8984 61.127 51.8477 61.2363 51.8203C61.3457 51.7891 61.4551 51.7734 61.5645 51.7734C61.6152 51.7734 61.6699 51.7773 61.7285 51.7852C61.7871 51.7891 61.8477 51.7988 61.9102 51.8145C61.9727 51.8262 62.0273 51.8418 62.0742 51.8613C62.1211 51.877 62.1543 51.8945 62.1738 51.9141C62.1973 51.9336 62.2129 51.9551 62.2207 51.9785C62.2324 52.002 62.2422 52.0352 62.25 52.0781C62.2578 52.1172 62.2637 52.1777 62.2676 52.2598C62.2715 52.3418 62.2734 52.4531 62.2734 52.5938ZM67.8691 54.5684C67.8691 54.748 67.8281 54.8809 67.7461 54.9668C67.668 55.0527 67.5586 55.0957 67.418 55.0957H64.2363C64.2363 55.3184 64.2617 55.5215 64.3125 55.7051C64.3672 55.8848 64.4512 56.0391 64.5645 56.168C64.6816 56.293 64.8301 56.3887 65.0098 56.4551C65.1934 56.5215 65.4121 56.5547 65.666 56.5547C65.9238 56.5547 66.1504 56.5371 66.3457 56.502C66.541 56.4629 66.709 56.4219 66.8496 56.3789C66.9941 56.332 67.1133 56.291 67.207 56.2559C67.3008 56.2168 67.377 56.1973 67.4355 56.1973C67.4707 56.1973 67.5 56.2051 67.5234 56.2207C67.5469 56.2324 67.5664 56.2559 67.582 56.291C67.5977 56.3262 67.6074 56.377 67.6113 56.4434C67.6191 56.5059 67.623 56.5859 67.623 56.6836C67.623 56.7695 67.6211 56.8438 67.6172 56.9062C67.6133 56.9648 67.6074 57.0156 67.5996 57.0586C67.5918 57.1016 67.5801 57.1387 67.5645 57.1699C67.5488 57.1973 67.5273 57.2246 67.5 57.252C67.4766 57.2793 67.4082 57.3164 67.2949 57.3633C67.1816 57.4102 67.0371 57.457 66.8613 57.5039C66.6855 57.5469 66.4844 57.584 66.2578 57.6152C66.0312 57.6504 65.7891 57.668 65.5312 57.668C65.0664 57.668 64.6582 57.6094 64.3066 57.4922C63.959 57.375 63.668 57.1973 63.4336 56.959C63.1992 56.7207 63.0234 56.4199 62.9062 56.0566C62.793 55.6934 62.7363 55.2676 62.7363 54.7793C62.7363 54.3145 62.7969 53.8965 62.918 53.5254C63.0391 53.1504 63.2148 52.834 63.4453 52.5762C63.6758 52.3145 63.9551 52.1152 64.2832 51.9785C64.6152 51.8418 64.9883 51.7734 65.4023 51.7734C65.8398 51.7734 66.2129 51.8379 66.5215 51.9668C66.834 52.0957 67.0898 52.2754 67.2891 52.5059C67.4883 52.7324 67.6348 53.002 67.7285 53.3145C67.8223 53.627 67.8691 53.9668 67.8691 54.334V54.5684ZM66.4395 54.1465C66.4512 53.7324 66.3672 53.4082 66.1875 53.1738C66.0117 52.9355 65.7383 52.8164 65.3672 52.8164C65.1797 52.8164 65.0156 52.8516 64.875 52.9219C64.7383 52.9922 64.623 53.0879 64.5293 53.209C64.4395 53.3262 64.3691 53.4668 64.3184 53.6309C64.2715 53.791 64.2441 53.9629 64.2363 54.1465H66.4395ZM72.7676 55.8574C72.7676 56.1543 72.7109 56.416 72.5977 56.6426C72.4883 56.8691 72.332 57.0586 72.1289 57.2109C71.9258 57.3633 71.6855 57.4766 71.4082 57.5508C71.1309 57.6289 70.8301 57.668 70.5059 57.668C70.3105 57.668 70.123 57.6523 69.9434 57.6211C69.7676 57.5938 69.6094 57.5586 69.4688 57.5156C69.3281 57.4688 69.2109 57.4219 69.1172 57.375C69.0234 57.3281 68.9551 57.2852 68.9121 57.2461C68.8691 57.2031 68.8359 57.1387 68.8125 57.0527C68.7891 56.9629 68.7773 56.832 68.7773 56.6602C68.7773 56.5469 68.7812 56.457 68.7891 56.3906C68.7969 56.3203 68.8086 56.2656 68.8242 56.2266C68.8398 56.1836 68.8594 56.1562 68.8828 56.1445C68.9062 56.1289 68.9355 56.1211 68.9707 56.1211C69.0137 56.1211 69.0762 56.1465 69.1582 56.1973C69.2441 56.2441 69.3496 56.2969 69.4746 56.3555C69.5996 56.4141 69.7441 56.4688 69.9082 56.5195C70.0762 56.5703 70.2656 56.5957 70.4766 56.5957C70.6094 56.5957 70.7266 56.582 70.8281 56.5547C70.9336 56.5273 71.0234 56.4883 71.0977 56.4375C71.1758 56.3867 71.2344 56.3223 71.2734 56.2441C71.3125 56.166 71.332 56.0762 71.332 55.9746C71.332 55.8574 71.2949 55.7578 71.2207 55.6758C71.1504 55.5898 71.0547 55.5156 70.9336 55.4531C70.8164 55.3906 70.6816 55.332 70.5293 55.2773C70.3809 55.2227 70.2266 55.1621 70.0664 55.0957C69.9102 55.0293 69.7559 54.9531 69.6035 54.8672C69.4551 54.7812 69.3203 54.6758 69.1992 54.5508C69.082 54.4258 68.9863 54.2754 68.9121 54.0996C68.8418 53.9238 68.8066 53.7129 68.8066 53.4668C68.8066 53.2168 68.8555 52.9883 68.9531 52.7812C69.0508 52.5703 69.1914 52.3906 69.375 52.2422C69.5586 52.0938 69.7812 51.9785 70.043 51.8965C70.3086 51.8145 70.6055 51.7734 70.9336 51.7734C71.0977 51.7734 71.2559 51.7852 71.4082 51.8086C71.5645 51.832 71.7051 51.8613 71.8301 51.8965C71.9551 51.9316 72.0605 51.9707 72.1465 52.0137C72.2324 52.0527 72.293 52.0879 72.3281 52.1191C72.3672 52.1465 72.3945 52.1758 72.4102 52.207C72.4258 52.2344 72.4375 52.2695 72.4453 52.3125C72.4531 52.3516 72.459 52.4023 72.4629 52.4648C72.4707 52.5234 72.4746 52.5977 72.4746 52.6875C72.4746 52.793 72.4707 52.8789 72.4629 52.9453C72.459 53.0117 72.4492 53.0645 72.4336 53.1035C72.4219 53.1426 72.4043 53.1699 72.3809 53.1855C72.3574 53.1973 72.3301 53.2031 72.2988 53.2031C72.2637 53.2031 72.209 53.1836 72.1348 53.1445C72.0605 53.1016 71.9668 53.0566 71.8535 53.0098C71.7441 52.9629 71.6152 52.9199 71.4668 52.8809C71.3223 52.8379 71.1562 52.8164 70.9688 52.8164C70.8359 52.8164 70.7207 52.8301 70.623 52.8574C70.5254 52.8848 70.4453 52.9238 70.3828 52.9746C70.3203 53.0254 70.2734 53.0859 70.2422 53.1562C70.2109 53.2227 70.1953 53.2949 70.1953 53.373C70.1953 53.4941 70.2324 53.5957 70.3066 53.6777C70.3809 53.7598 70.4785 53.832 70.5996 53.8945C70.7207 53.957 70.8574 54.0156 71.0098 54.0703C71.166 54.125 71.3223 54.1855 71.4785 54.252C71.6387 54.3145 71.7949 54.3887 71.9473 54.4746C72.1035 54.5605 72.2422 54.666 72.3633 54.791C72.4844 54.916 72.582 55.0664 72.6562 55.2422C72.7305 55.4141 72.7676 55.6191 72.7676 55.8574ZM81.0527 57.3516C81.0527 57.4062 81.0332 57.4492 80.9941 57.4805C80.9551 57.5117 80.8926 57.5332 80.8066 57.5449C80.7246 57.5605 80.6016 57.5684 80.4375 57.5684C80.2617 57.5684 80.1328 57.5605 80.0508 57.5449C79.9727 57.5332 79.916 57.5117 79.8809 57.4805C79.8496 57.4492 79.834 57.4062 79.834 57.3516V56.9355C79.6191 57.166 79.373 57.3457 79.0957 57.4746C78.8223 57.6035 78.5176 57.668 78.1816 57.668C77.9043 57.668 77.6484 57.6309 77.4141 57.5566C77.1836 57.4863 76.9824 57.3809 76.8105 57.2402C76.6426 57.0957 76.5117 56.918 76.418 56.707C76.3242 56.4961 76.2773 56.25 76.2773 55.9688C76.2773 55.6641 76.3359 55.4004 76.4531 55.1777C76.5742 54.9512 76.752 54.7656 76.9863 54.6211C77.2246 54.4727 77.5195 54.3633 77.8711 54.293C78.2227 54.2227 78.6309 54.1875 79.0957 54.1875H79.6055V53.8711C79.6055 53.707 79.5879 53.5645 79.5527 53.4434C79.5215 53.3184 79.4668 53.2148 79.3887 53.1328C79.3145 53.0508 79.2129 52.9902 79.084 52.9512C78.959 52.9121 78.8027 52.8926 78.6152 52.8926C78.3691 52.8926 78.1484 52.9199 77.9531 52.9746C77.7617 53.0293 77.5918 53.0898 77.4434 53.1562C77.2949 53.2227 77.1699 53.2832 77.0684 53.3379C76.9707 53.3926 76.8906 53.4199 76.8281 53.4199C76.7852 53.4199 76.7461 53.4062 76.7109 53.3789C76.6797 53.3516 76.6523 53.3125 76.6289 53.2617C76.6094 53.2109 76.5938 53.1484 76.582 53.0742C76.5703 53 76.5645 52.918 76.5645 52.8281C76.5645 52.707 76.5742 52.6113 76.5938 52.541C76.6133 52.4707 76.6504 52.4082 76.7051 52.3535C76.7598 52.2949 76.8555 52.2324 76.9922 52.166C77.1289 52.0957 77.2891 52.0312 77.4727 51.9727C77.6562 51.9141 77.8555 51.8672 78.0703 51.832C78.2891 51.793 78.5137 51.7734 78.7441 51.7734C79.1543 51.7734 79.5039 51.8145 79.793 51.8965C80.0859 51.9746 80.3262 52.0977 80.5137 52.2656C80.7012 52.4297 80.8379 52.6426 80.9238 52.9043C81.0098 53.166 81.0527 53.4766 81.0527 53.8359V57.3516ZM79.6055 55.1133H79.043C78.8047 55.1133 78.6016 55.1309 78.4336 55.166C78.2656 55.2012 78.1289 55.2539 78.0234 55.3242C77.918 55.3945 77.8398 55.4805 77.7891 55.582C77.7422 55.6797 77.7188 55.793 77.7188 55.9219C77.7188 56.1406 77.7871 56.3125 77.9238 56.4375C78.0645 56.5625 78.2578 56.625 78.5039 56.625C78.7109 56.625 78.9004 56.5723 79.0723 56.4668C79.248 56.3613 79.4258 56.207 79.6055 56.0039V55.1133ZM85.8867 52.5938C85.8867 52.7344 85.8828 52.8496 85.875 52.9395C85.8672 53.0293 85.8555 53.0996 85.8398 53.1504C85.8242 53.2012 85.8027 53.2363 85.7754 53.2559C85.752 53.2754 85.7207 53.2852 85.6816 53.2852C85.6504 53.2852 85.6152 53.2793 85.5762 53.2676C85.5371 53.252 85.4922 53.2363 85.4414 53.2207C85.3945 53.2051 85.3418 53.1914 85.2832 53.1797C85.2246 53.1641 85.1602 53.1562 85.0898 53.1562C85.0078 53.1562 84.9258 53.1738 84.8438 53.209C84.7617 53.2402 84.6758 53.291 84.5859 53.3613C84.5 53.4316 84.4082 53.5254 84.3105 53.6426C84.2168 53.7598 84.1152 53.9043 84.0059 54.0762V57.334C84.0059 57.373 83.9941 57.4082 83.9707 57.4395C83.9473 57.4668 83.9062 57.4902 83.8477 57.5098C83.793 57.5293 83.7188 57.543 83.625 57.5508C83.5312 57.5625 83.4121 57.5684 83.2676 57.5684C83.123 57.5684 83.0039 57.5625 82.9102 57.5508C82.8164 57.543 82.7402 57.5293 82.6816 57.5098C82.627 57.4902 82.5879 57.4668 82.5645 57.4395C82.541 57.4082 82.5293 57.373 82.5293 57.334V52.1074C82.5293 52.0684 82.5391 52.0352 82.5586 52.0078C82.5781 51.9766 82.6133 51.9512 82.6641 51.9316C82.7148 51.9121 82.7793 51.8984 82.8574 51.8906C82.9395 51.8789 83.041 51.873 83.1621 51.873C83.2871 51.873 83.3906 51.8789 83.4727 51.8906C83.5547 51.8984 83.6172 51.9121 83.6602 51.9316C83.707 51.9512 83.7402 51.9766 83.7598 52.0078C83.7793 52.0352 83.7891 52.0684 83.7891 52.1074V52.7578C83.9258 52.5625 84.0547 52.4023 84.1758 52.2773C84.2969 52.1484 84.4121 52.0469 84.5215 51.9727C84.6309 51.8984 84.7402 51.8477 84.8496 51.8203C84.959 51.7891 85.0684 51.7734 85.1777 51.7734C85.2285 51.7734 85.2832 51.7773 85.3418 51.7852C85.4004 51.7891 85.4609 51.7988 85.5234 51.8145C85.5859 51.8262 85.6406 51.8418 85.6875 51.8613C85.7344 51.877 85.7676 51.8945 85.7871 51.9141C85.8105 51.9336 85.8262 51.9551 85.834 51.9785C85.8457 52.002 85.8555 52.0352 85.8633 52.0781C85.8711 52.1172 85.877 52.1777 85.8809 52.2598C85.8848 52.3418 85.8867 52.4531 85.8867 52.5938ZM91.4824 54.5684C91.4824 54.748 91.4414 54.8809 91.3594 54.9668C91.2812 55.0527 91.1719 55.0957 91.0312 55.0957H87.8496C87.8496 55.3184 87.875 55.5215 87.9258 55.7051C87.9805 55.8848 88.0645 56.0391 88.1777 56.168C88.2949 56.293 88.4434 56.3887 88.623 56.4551C88.8066 56.5215 89.0254 56.5547 89.2793 56.5547C89.5371 56.5547 89.7637 56.5371 89.959 56.502C90.1543 56.4629 90.3223 56.4219 90.4629 56.3789C90.6074 56.332 90.7266 56.291 90.8203 56.2559C90.9141 56.2168 90.9902 56.1973 91.0488 56.1973C91.084 56.1973 91.1133 56.2051 91.1367 56.2207C91.1602 56.2324 91.1797 56.2559 91.1953 56.291C91.2109 56.3262 91.2207 56.377 91.2246 56.4434C91.2324 56.5059 91.2363 56.5859 91.2363 56.6836C91.2363 56.7695 91.2344 56.8438 91.2305 56.9062C91.2266 56.9648 91.2207 57.0156 91.2129 57.0586C91.2051 57.1016 91.1934 57.1387 91.1777 57.1699C91.1621 57.1973 91.1406 57.2246 91.1133 57.252C91.0898 57.2793 91.0215 57.3164 90.9082 57.3633C90.7949 57.4102 90.6504 57.457 90.4746 57.5039C90.2988 57.5469 90.0977 57.584 89.8711 57.6152C89.6445 57.6504 89.4023 57.668 89.1445 57.668C88.6797 57.668 88.2715 57.6094 87.9199 57.4922C87.5723 57.375 87.2812 57.1973 87.0469 56.959C86.8125 56.7207 86.6367 56.4199 86.5195 56.0566C86.4062 55.6934 86.3496 55.2676 86.3496 54.7793C86.3496 54.3145 86.4102 53.8965 86.5312 53.5254C86.6523 53.1504 86.8281 52.834 87.0586 52.5762C87.2891 52.3145 87.5684 52.1152 87.8965 51.9785C88.2285 51.8418 88.6016 51.7734 89.0156 51.7734C89.4531 51.7734 89.8262 51.8379 90.1348 51.9668C90.4473 52.0957 90.7031 52.2754 90.9023 52.5059C91.1016 52.7324 91.248 53.002 91.3418 53.3145C91.4355 53.627 91.4824 53.9668 91.4824 54.334V54.5684ZM90.0527 54.1465C90.0645 53.7324 89.9805 53.4082 89.8008 53.1738C89.625 52.9355 89.3516 52.8164 88.9805 52.8164C88.793 52.8164 88.6289 52.8516 88.4883 52.9219C88.3516 52.9922 88.2363 53.0879 88.1426 53.209C88.0527 53.3262 87.9824 53.4668 87.9316 53.6309C87.8848 53.791 87.8574 53.9629 87.8496 54.1465H90.0527ZM99.375 56.502C99.375 56.6035 99.3711 56.6895 99.3633 56.7598C99.3594 56.8262 99.3516 56.8828 99.3398 56.9297C99.332 56.9766 99.3203 57.0156 99.3047 57.0469C99.293 57.0742 99.2637 57.1113 99.2168 57.1582C99.1699 57.2012 99.0898 57.2559 98.9766 57.3223C98.8633 57.3848 98.7344 57.4414 98.5898 57.4922C98.4453 57.543 98.2871 57.584 98.1152 57.6152C97.9473 57.6465 97.7734 57.6621 97.5938 57.6621C97.1914 57.6621 96.834 57.5996 96.5215 57.4746C96.2129 57.3496 95.9531 57.166 95.7422 56.9238C95.5312 56.6777 95.3711 56.3789 95.2617 56.0273C95.1562 55.6758 95.1035 55.2734 95.1035 54.8203C95.1035 54.2969 95.168 53.8457 95.2969 53.4668C95.4297 53.084 95.6133 52.7676 95.8477 52.5176C96.082 52.2676 96.3594 52.082 96.6797 51.9609C97 51.8398 97.3516 51.7793 97.7344 51.7793C97.8906 51.7793 98.043 51.793 98.1914 51.8203C98.3438 51.8477 98.4844 51.8848 98.6133 51.9316C98.7461 51.9785 98.8633 52.0312 98.9648 52.0898C99.0703 52.1484 99.1445 52.1992 99.1875 52.2422C99.2305 52.2852 99.2598 52.3223 99.2754 52.3535C99.2949 52.3809 99.3086 52.418 99.3164 52.4648C99.3281 52.5117 99.3359 52.5703 99.3398 52.6406C99.3477 52.707 99.3516 52.7891 99.3516 52.8867C99.3516 53.1133 99.332 53.2734 99.293 53.3672C99.2539 53.457 99.2031 53.502 99.1406 53.502C99.0742 53.502 99.0039 53.4746 98.9297 53.4199C98.8555 53.3652 98.7676 53.3047 98.666 53.2383C98.5645 53.1719 98.4434 53.1113 98.3027 53.0566C98.1621 53.002 97.9941 52.9746 97.7988 52.9746C97.416 52.9746 97.123 53.123 96.9199 53.4199C96.7168 53.7129 96.6152 54.1445 96.6152 54.7148C96.6152 54.9961 96.6406 55.2441 96.6914 55.459C96.7422 55.6738 96.8164 55.8535 96.9141 55.998C97.0156 56.1426 97.1406 56.252 97.2891 56.3262C97.4414 56.3965 97.6172 56.4316 97.8164 56.4316C98.0195 56.4316 98.1934 56.4023 98.3379 56.3438C98.4863 56.2812 98.6152 56.2129 98.7246 56.1387C98.834 56.0645 98.9258 55.998 99 55.9395C99.0742 55.877 99.1367 55.8457 99.1875 55.8457C99.2227 55.8457 99.252 55.8555 99.2754 55.875C99.2988 55.8945 99.3164 55.9316 99.3281 55.9863C99.3438 56.0371 99.3555 56.1035 99.3633 56.1855C99.3711 56.2676 99.375 56.373 99.375 56.502ZM105.674 54.668C105.674 55.1133 105.615 55.5195 105.498 55.8867C105.381 56.2539 105.203 56.5703 104.965 56.8359C104.727 57.1016 104.428 57.3066 104.068 57.4512C103.709 57.5957 103.289 57.668 102.809 57.668C102.344 57.668 101.939 57.6035 101.596 57.4746C101.252 57.3457 100.967 57.1582 100.74 56.9121C100.514 56.666 100.346 56.3633 100.236 56.0039C100.127 55.6445 100.072 55.2344 100.072 54.7734C100.072 54.3281 100.131 53.9219 100.248 53.5547C100.369 53.1836 100.549 52.8672 100.787 52.6055C101.025 52.3398 101.322 52.1348 101.678 51.9902C102.037 51.8457 102.457 51.7734 102.938 51.7734C103.406 51.7734 103.812 51.8379 104.156 51.9668C104.5 52.0918 104.783 52.2773 105.006 52.5234C105.232 52.7695 105.4 53.0723 105.51 53.4316C105.619 53.791 105.674 54.2031 105.674 54.668ZM104.156 54.7266C104.156 54.4688 104.135 54.2324 104.092 54.0176C104.053 53.7988 103.984 53.6094 103.887 53.4492C103.789 53.2891 103.658 53.1641 103.494 53.0742C103.334 52.9844 103.131 52.9395 102.885 52.9395C102.666 52.9395 102.475 52.9805 102.311 53.0625C102.146 53.1406 102.012 53.2578 101.906 53.4141C101.801 53.5664 101.721 53.752 101.666 53.9707C101.615 54.1855 101.59 54.4316 101.59 54.709C101.59 54.9668 101.611 55.2051 101.654 55.4238C101.697 55.6387 101.766 55.8262 101.859 55.9863C101.957 56.1465 102.088 56.2715 102.252 56.3613C102.416 56.4473 102.619 56.4902 102.861 56.4902C103.084 56.4902 103.277 56.4512 103.441 56.373C103.605 56.291 103.74 56.1738 103.846 56.0215C103.951 55.8691 104.029 55.6855 104.08 55.4707C104.131 55.252 104.156 55.0039 104.156 54.7266ZM115.16 57.334C115.16 57.373 115.148 57.4082 115.125 57.4395C115.102 57.4668 115.062 57.4902 115.008 57.5098C114.953 57.5293 114.879 57.543 114.785 57.5508C114.691 57.5625 114.572 57.5684 114.428 57.5684C114.279 57.5684 114.158 57.5625 114.064 57.5508C113.971 57.543 113.895 57.5293 113.836 57.5098C113.781 57.4902 113.742 57.4668 113.719 57.4395C113.699 57.4082 113.689 57.373 113.689 57.334V54.2344C113.689 54.0586 113.672 53.8984 113.637 53.7539C113.605 53.6094 113.555 53.4863 113.484 53.3848C113.418 53.2793 113.332 53.1992 113.227 53.1445C113.125 53.0859 113.002 53.0566 112.857 53.0566C112.682 53.0566 112.504 53.125 112.324 53.2617C112.145 53.3984 111.949 53.5977 111.738 53.8594V57.334C111.738 57.373 111.727 57.4082 111.703 57.4395C111.68 57.4668 111.639 57.4902 111.58 57.5098C111.525 57.5293 111.451 57.543 111.357 57.5508C111.264 57.5625 111.146 57.5684 111.006 57.5684C110.861 57.5684 110.742 57.5625 110.648 57.5508C110.555 57.543 110.479 57.5293 110.42 57.5098C110.365 57.4902 110.326 57.4668 110.303 57.4395C110.279 57.4082 110.268 57.373 110.268 57.334V54.2344C110.268 54.0586 110.25 53.8984 110.215 53.7539C110.184 53.6094 110.135 53.4863 110.068 53.3848C110.002 53.2793 109.916 53.1992 109.811 53.1445C109.705 53.0859 109.582 53.0566 109.441 53.0566C109.262 53.0566 109.082 53.125 108.902 53.2617C108.723 53.3984 108.529 53.5977 108.322 53.8594V57.334C108.322 57.373 108.311 57.4082 108.287 57.4395C108.264 57.4668 108.223 57.4902 108.164 57.5098C108.109 57.5293 108.035 57.543 107.941 57.5508C107.848 57.5625 107.729 57.5684 107.584 57.5684C107.439 57.5684 107.32 57.5625 107.227 57.5508C107.133 57.543 107.057 57.5293 106.998 57.5098C106.943 57.4902 106.904 57.4668 106.881 57.4395C106.857 57.4082 106.846 57.373 106.846 57.334V52.1074C106.846 52.0684 106.855 52.0352 106.875 52.0078C106.895 51.9766 106.93 51.9512 106.98 51.9316C107.031 51.9121 107.096 51.8984 107.174 51.8906C107.256 51.8789 107.357 51.873 107.479 51.873C107.604 51.873 107.707 51.8789 107.789 51.8906C107.871 51.8984 107.934 51.9121 107.977 51.9316C108.023 51.9512 108.057 51.9766 108.076 52.0078C108.096 52.0352 108.105 52.0684 108.105 52.1074V52.7109C108.395 52.3984 108.682 52.1641 108.967 52.0078C109.256 51.8516 109.557 51.7734 109.869 51.7734C110.084 51.7734 110.277 51.7969 110.449 51.8438C110.621 51.8867 110.773 51.9512 110.906 52.0371C111.043 52.1191 111.16 52.2188 111.258 52.3359C111.355 52.4531 111.438 52.584 111.504 52.7285C111.66 52.5605 111.812 52.416 111.961 52.2949C112.113 52.1738 112.262 52.0762 112.406 52.002C112.555 51.9238 112.701 51.8672 112.846 51.832C112.994 51.793 113.145 51.7734 113.297 51.7734C113.645 51.7734 113.938 51.832 114.176 51.9492C114.414 52.0664 114.605 52.2266 114.75 52.4297C114.898 52.6289 115.004 52.8633 115.066 53.1328C115.129 53.4023 115.16 53.6875 115.16 53.9883V57.334ZM118.084 57.334C118.084 57.373 118.072 57.4082 118.049 57.4395C118.025 57.4668 117.984 57.4902 117.926 57.5098C117.871 57.5293 117.797 57.543 117.703 57.5508C117.609 57.5625 117.49 57.5684 117.346 57.5684C117.201 57.5684 117.082 57.5625 116.988 57.5508C116.895 57.543 116.818 57.5293 116.76 57.5098C116.705 57.4902 116.666 57.4668 116.643 57.4395C116.619 57.4082 116.607 57.373 116.607 57.334V52.1191C116.607 52.0801 116.619 52.0469 116.643 52.0195C116.666 51.9883 116.705 51.9629 116.76 51.9434C116.818 51.9199 116.895 51.9023 116.988 51.8906C117.082 51.8789 117.201 51.873 117.346 51.873C117.49 51.873 117.609 51.8789 117.703 51.8906C117.797 51.9023 117.871 51.9199 117.926 51.9434C117.984 51.9629 118.025 51.9883 118.049 52.0195C118.072 52.0469 118.084 52.0801 118.084 52.1191V57.334ZM118.195 50.3379C118.195 50.6348 118.135 50.8398 118.014 50.9531C117.893 51.0664 117.668 51.123 117.34 51.123C117.008 51.123 116.783 51.0684 116.666 50.959C116.553 50.8496 116.496 50.6523 116.496 50.3672C116.496 50.0703 116.555 49.8652 116.672 49.752C116.793 49.6348 117.02 49.5762 117.352 49.5762C117.68 49.5762 117.902 49.6328 118.02 49.7461C118.137 49.8555 118.195 50.0527 118.195 50.3379ZM124.553 57.334C124.553 57.373 124.541 57.4082 124.518 57.4395C124.494 57.4668 124.455 57.4902 124.4 57.5098C124.346 57.5293 124.27 57.543 124.172 57.5508C124.078 57.5625 123.961 57.5684 123.82 57.5684C123.676 57.5684 123.555 57.5625 123.457 57.5508C123.363 57.543 123.289 57.5293 123.234 57.5098C123.18 57.4902 123.141 57.4668 123.117 57.4395C123.094 57.4082 123.082 57.373 123.082 57.334V54.3516C123.082 54.0977 123.062 53.8984 123.023 53.7539C122.988 53.6094 122.936 53.4863 122.865 53.3848C122.795 53.2793 122.703 53.1992 122.59 53.1445C122.48 53.0859 122.352 53.0566 122.203 53.0566C122.016 53.0566 121.826 53.125 121.635 53.2617C121.443 53.3984 121.244 53.5977 121.037 53.8594V57.334C121.037 57.373 121.025 57.4082 121.002 57.4395C120.979 57.4668 120.938 57.4902 120.879 57.5098C120.824 57.5293 120.75 57.543 120.656 57.5508C120.562 57.5625 120.443 57.5684 120.299 57.5684C120.154 57.5684 120.035 57.5625 119.941 57.5508C119.848 57.543 119.771 57.5293 119.713 57.5098C119.658 57.4902 119.619 57.4668 119.596 57.4395C119.572 57.4082 119.561 57.373 119.561 57.334V52.1074C119.561 52.0684 119.57 52.0352 119.59 52.0078C119.609 51.9766 119.645 51.9512 119.695 51.9316C119.746 51.9121 119.811 51.8984 119.889 51.8906C119.971 51.8789 120.072 51.873 120.193 51.873C120.318 51.873 120.422 51.8789 120.504 51.8906C120.586 51.8984 120.648 51.9121 120.691 51.9316C120.738 51.9512 120.771 51.9766 120.791 52.0078C120.811 52.0352 120.82 52.0684 120.82 52.1074V52.7109C121.109 52.3984 121.402 52.1641 121.699 52.0078C122 51.8516 122.312 51.7734 122.637 51.7734C122.992 51.7734 123.291 51.832 123.533 51.9492C123.779 52.0664 123.977 52.2266 124.125 52.4297C124.277 52.6289 124.387 52.8633 124.453 53.1328C124.52 53.4023 124.553 53.7266 124.553 54.1055V57.334ZM130.717 52.4707C130.717 52.6582 130.695 52.7969 130.652 52.8867C130.609 52.9766 130.557 53.0215 130.494 53.0215H129.879C129.965 53.1152 130.025 53.2227 130.061 53.3438C130.1 53.4609 130.119 53.584 130.119 53.7129C130.119 54.0176 130.068 54.2891 129.967 54.5273C129.865 54.7617 129.719 54.9609 129.527 55.125C129.34 55.2852 129.111 55.4082 128.842 55.4941C128.576 55.5762 128.279 55.6172 127.951 55.6172C127.783 55.6172 127.623 55.5977 127.471 55.5586C127.318 55.5156 127.201 55.4668 127.119 55.4121C127.072 55.4629 127.029 55.5234 126.99 55.5938C126.955 55.6641 126.938 55.7422 126.938 55.8281C126.938 55.9414 126.986 56.0352 127.084 56.1094C127.186 56.1797 127.326 56.2188 127.506 56.2266L128.777 56.2734C129.074 56.2852 129.338 56.3281 129.568 56.4023C129.803 56.4727 129.998 56.5742 130.154 56.707C130.314 56.8359 130.436 56.9922 130.518 57.1758C130.604 57.3594 130.646 57.5684 130.646 57.8027C130.646 58.0605 130.59 58.3027 130.477 58.5293C130.363 58.7598 130.193 58.959 129.967 59.127C129.74 59.2949 129.455 59.4277 129.111 59.5254C128.771 59.623 128.373 59.6719 127.916 59.6719C127.471 59.6719 127.09 59.6367 126.773 59.5664C126.461 59.4961 126.203 59.3984 126 59.2734C125.801 59.1484 125.654 58.998 125.561 58.8223C125.471 58.6504 125.426 58.4609 125.426 58.2539C125.426 58.125 125.441 58.002 125.473 57.8848C125.508 57.7676 125.557 57.6543 125.619 57.5449C125.686 57.4395 125.766 57.3379 125.859 57.2402C125.953 57.1426 126.061 57.0488 126.182 56.959C126.014 56.8691 125.883 56.748 125.789 56.5957C125.699 56.4395 125.654 56.2695 125.654 56.0859C125.654 55.8555 125.707 55.6465 125.812 55.459C125.918 55.2676 126.055 55.0957 126.223 54.9434C126.086 54.8066 125.977 54.6426 125.895 54.4512C125.812 54.2598 125.771 54.0215 125.771 53.7363C125.771 53.4316 125.824 53.1602 125.93 52.9219C126.039 52.6797 126.189 52.4766 126.381 52.3125C126.572 52.1445 126.801 52.0176 127.066 51.9316C127.332 51.8418 127.625 51.7969 127.945 51.7969C128.109 51.7969 128.266 51.8066 128.414 51.8262C128.566 51.8457 128.707 51.873 128.836 51.9082H130.494C130.561 51.9082 130.613 51.9512 130.652 52.0371C130.695 52.123 130.717 52.2676 130.717 52.4707ZM128.824 53.707C128.824 53.4258 128.746 53.207 128.59 53.0508C128.434 52.8945 128.213 52.8164 127.928 52.8164C127.783 52.8164 127.656 52.8418 127.547 52.8926C127.438 52.9395 127.346 53.0059 127.271 53.0918C127.201 53.1738 127.148 53.2715 127.113 53.3848C127.078 53.4941 127.061 53.6094 127.061 53.7305C127.061 53.9961 127.139 54.207 127.295 54.3633C127.451 54.5156 127.668 54.5918 127.945 54.5918C128.094 54.5918 128.223 54.5684 128.332 54.5215C128.441 54.4746 128.531 54.4102 128.602 54.3281C128.676 54.2461 128.73 54.1523 128.766 54.0469C128.805 53.9375 128.824 53.8242 128.824 53.707ZM129.17 57.8789C129.17 57.7031 129.1 57.5684 128.959 57.4746C128.818 57.3809 128.625 57.3301 128.379 57.3223L127.33 57.293C127.229 57.3672 127.146 57.4395 127.084 57.5098C127.025 57.5762 126.977 57.6406 126.938 57.7031C126.902 57.7656 126.879 57.8262 126.867 57.8848C126.855 57.9434 126.85 58.0039 126.85 58.0664C126.85 58.2617 126.947 58.4102 127.143 58.5117C127.342 58.6133 127.621 58.6641 127.98 58.6641C128.203 58.6641 128.391 58.6406 128.543 58.5938C128.695 58.5508 128.818 58.4922 128.912 58.418C129.006 58.3438 129.072 58.2598 129.111 58.166C129.15 58.0762 129.17 57.9805 129.17 57.8789ZM138.1 55.8574C138.1 56.1543 138.043 56.416 137.93 56.6426C137.82 56.8691 137.664 57.0586 137.461 57.2109C137.258 57.3633 137.018 57.4766 136.74 57.5508C136.463 57.6289 136.162 57.668 135.838 57.668C135.643 57.668 135.455 57.6523 135.275 57.6211C135.1 57.5938 134.941 57.5586 134.801 57.5156C134.66 57.4688 134.543 57.4219 134.449 57.375C134.355 57.3281 134.287 57.2852 134.244 57.2461C134.201 57.2031 134.168 57.1387 134.145 57.0527C134.121 56.9629 134.109 56.832 134.109 56.6602C134.109 56.5469 134.113 56.457 134.121 56.3906C134.129 56.3203 134.141 56.2656 134.156 56.2266C134.172 56.1836 134.191 56.1562 134.215 56.1445C134.238 56.1289 134.268 56.1211 134.303 56.1211C134.346 56.1211 134.408 56.1465 134.49 56.1973C134.576 56.2441 134.682 56.2969 134.807 56.3555C134.932 56.4141 135.076 56.4688 135.24 56.5195C135.408 56.5703 135.598 56.5957 135.809 56.5957C135.941 56.5957 136.059 56.582 136.16 56.5547C136.266 56.5273 136.355 56.4883 136.43 56.4375C136.508 56.3867 136.566 56.3223 136.605 56.2441C136.645 56.166 136.664 56.0762 136.664 55.9746C136.664 55.8574 136.627 55.7578 136.553 55.6758C136.482 55.5898 136.387 55.5156 136.266 55.4531C136.148 55.3906 136.014 55.332 135.861 55.2773C135.713 55.2227 135.559 55.1621 135.398 55.0957C135.242 55.0293 135.088 54.9531 134.936 54.8672C134.787 54.7812 134.652 54.6758 134.531 54.5508C134.414 54.4258 134.318 54.2754 134.244 54.0996C134.174 53.9238 134.139 53.7129 134.139 53.4668C134.139 53.2168 134.188 52.9883 134.285 52.7812C134.383 52.5703 134.523 52.3906 134.707 52.2422C134.891 52.0938 135.113 51.9785 135.375 51.8965C135.641 51.8145 135.938 51.7734 136.266 51.7734C136.43 51.7734 136.588 51.7852 136.74 51.8086C136.896 51.832 137.037 51.8613 137.162 51.8965C137.287 51.9316 137.393 51.9707 137.479 52.0137C137.564 52.0527 137.625 52.0879 137.66 52.1191C137.699 52.1465 137.727 52.1758 137.742 52.207C137.758 52.2344 137.77 52.2695 137.777 52.3125C137.785 52.3516 137.791 52.4023 137.795 52.4648C137.803 52.5234 137.807 52.5977 137.807 52.6875C137.807 52.793 137.803 52.8789 137.795 52.9453C137.791 53.0117 137.781 53.0645 137.766 53.1035C137.754 53.1426 137.736 53.1699 137.713 53.1855C137.689 53.1973 137.662 53.2031 137.631 53.2031C137.596 53.2031 137.541 53.1836 137.467 53.1445C137.393 53.1016 137.299 53.0566 137.186 53.0098C137.076 52.9629 136.947 52.9199 136.799 52.8809C136.654 52.8379 136.488 52.8164 136.301 52.8164C136.168 52.8164 136.053 52.8301 135.955 52.8574C135.857 52.8848 135.777 52.9238 135.715 52.9746C135.652 53.0254 135.605 53.0859 135.574 53.1562C135.543 53.2227 135.527 53.2949 135.527 53.373C135.527 53.4941 135.564 53.5957 135.639 53.6777C135.713 53.7598 135.811 53.832 135.932 53.8945C136.053 53.957 136.189 54.0156 136.342 54.0703C136.498 54.125 136.654 54.1855 136.811 54.252C136.971 54.3145 137.127 54.3887 137.279 54.4746C137.436 54.5605 137.574 54.666 137.695 54.791C137.816 54.916 137.914 55.0664 137.988 55.2422C138.062 55.4141 138.1 55.6191 138.1 55.8574ZM144.498 54.668C144.498 55.1133 144.439 55.5195 144.322 55.8867C144.205 56.2539 144.027 56.5703 143.789 56.8359C143.551 57.1016 143.252 57.3066 142.893 57.4512C142.533 57.5957 142.113 57.668 141.633 57.668C141.168 57.668 140.764 57.6035 140.42 57.4746C140.076 57.3457 139.791 57.1582 139.564 56.9121C139.338 56.666 139.17 56.3633 139.061 56.0039C138.951 55.6445 138.896 55.2344 138.896 54.7734C138.896 54.3281 138.955 53.9219 139.072 53.5547C139.193 53.1836 139.373 52.8672 139.611 52.6055C139.85 52.3398 140.146 52.1348 140.502 51.9902C140.861 51.8457 141.281 51.7734 141.762 51.7734C142.23 51.7734 142.637 51.8379 142.98 51.9668C143.324 52.0918 143.607 52.2773 143.83 52.5234C144.057 52.7695 144.225 53.0723 144.334 53.4316C144.443 53.791 144.498 54.2031 144.498 54.668ZM142.98 54.7266C142.98 54.4688 142.959 54.2324 142.916 54.0176C142.877 53.7988 142.809 53.6094 142.711 53.4492C142.613 53.2891 142.482 53.1641 142.318 53.0742C142.158 52.9844 141.955 52.9395 141.709 52.9395C141.49 52.9395 141.299 52.9805 141.135 53.0625C140.971 53.1406 140.836 53.2578 140.73 53.4141C140.625 53.5664 140.545 53.752 140.49 53.9707C140.439 54.1855 140.414 54.4316 140.414 54.709C140.414 54.9668 140.436 55.2051 140.479 55.4238C140.521 55.6387 140.59 55.8262 140.684 55.9863C140.781 56.1465 140.912 56.2715 141.076 56.3613C141.24 56.4473 141.443 56.4902 141.686 56.4902C141.908 56.4902 142.102 56.4512 142.266 56.373C142.43 56.291 142.564 56.1738 142.67 56.0215C142.775 55.8691 142.854 55.6855 142.904 55.4707C142.955 55.252 142.98 55.0039 142.98 54.7266ZM150.955 54.668C150.955 55.1133 150.896 55.5195 150.779 55.8867C150.662 56.2539 150.484 56.5703 150.246 56.8359C150.008 57.1016 149.709 57.3066 149.35 57.4512C148.99 57.5957 148.57 57.668 148.09 57.668C147.625 57.668 147.221 57.6035 146.877 57.4746C146.533 57.3457 146.248 57.1582 146.021 56.9121C145.795 56.666 145.627 56.3633 145.518 56.0039C145.408 55.6445 145.354 55.2344 145.354 54.7734C145.354 54.3281 145.412 53.9219 145.529 53.5547C145.65 53.1836 145.83 52.8672 146.068 52.6055C146.307 52.3398 146.604 52.1348 146.959 51.9902C147.318 51.8457 147.738 51.7734 148.219 51.7734C148.688 51.7734 149.094 51.8379 149.438 51.9668C149.781 52.0918 150.064 52.2773 150.287 52.5234C150.514 52.7695 150.682 53.0723 150.791 53.4316C150.9 53.791 150.955 54.2031 150.955 54.668ZM149.438 54.7266C149.438 54.4688 149.416 54.2324 149.373 54.0176C149.334 53.7988 149.266 53.6094 149.168 53.4492C149.07 53.2891 148.939 53.1641 148.775 53.0742C148.615 52.9844 148.412 52.9395 148.166 52.9395C147.947 52.9395 147.756 52.9805 147.592 53.0625C147.428 53.1406 147.293 53.2578 147.188 53.4141C147.082 53.5664 147.002 53.752 146.947 53.9707C146.896 54.1855 146.871 54.4316 146.871 54.709C146.871 54.9668 146.893 55.2051 146.936 55.4238C146.979 55.6387 147.047 55.8262 147.141 55.9863C147.238 56.1465 147.369 56.2715 147.533 56.3613C147.697 56.4473 147.9 56.4902 148.143 56.4902C148.365 56.4902 148.559 56.4512 148.723 56.373C148.887 56.291 149.021 56.1738 149.127 56.0215C149.232 55.8691 149.311 55.6855 149.361 55.4707C149.412 55.252 149.438 55.0039 149.438 54.7266ZM157.119 57.334C157.119 57.373 157.107 57.4082 157.084 57.4395C157.061 57.4668 157.021 57.4902 156.967 57.5098C156.912 57.5293 156.836 57.543 156.738 57.5508C156.645 57.5625 156.527 57.5684 156.387 57.5684C156.242 57.5684 156.121 57.5625 156.023 57.5508C155.93 57.543 155.855 57.5293 155.801 57.5098C155.746 57.4902 155.707 57.4668 155.684 57.4395C155.66 57.4082 155.648 57.373 155.648 57.334V54.3516C155.648 54.0977 155.629 53.8984 155.59 53.7539C155.555 53.6094 155.502 53.4863 155.432 53.3848C155.361 53.2793 155.27 53.1992 155.156 53.1445C155.047 53.0859 154.918 53.0566 154.77 53.0566C154.582 53.0566 154.393 53.125 154.201 53.2617C154.01 53.3984 153.811 53.5977 153.604 53.8594V57.334C153.604 57.373 153.592 57.4082 153.568 57.4395C153.545 57.4668 153.504 57.4902 153.445 57.5098C153.391 57.5293 153.316 57.543 153.223 57.5508C153.129 57.5625 153.01 57.5684 152.865 57.5684C152.721 57.5684 152.602 57.5625 152.508 57.5508C152.414 57.543 152.338 57.5293 152.279 57.5098C152.225 57.4902 152.186 57.4668 152.162 57.4395C152.139 57.4082 152.127 57.373 152.127 57.334V52.1074C152.127 52.0684 152.137 52.0352 152.156 52.0078C152.176 51.9766 152.211 51.9512 152.262 51.9316C152.312 51.9121 152.377 51.8984 152.455 51.8906C152.537 51.8789 152.639 51.873 152.76 51.873C152.885 51.873 152.988 51.8789 153.07 51.8906C153.152 51.8984 153.215 51.9121 153.258 51.9316C153.305 51.9512 153.338 51.9766 153.357 52.0078C153.377 52.0352 153.387 52.0684 153.387 52.1074V52.7109C153.676 52.3984 153.969 52.1641 154.266 52.0078C154.566 51.8516 154.879 51.7734 155.203 51.7734C155.559 51.7734 155.857 51.832 156.1 51.9492C156.346 52.0664 156.543 52.2266 156.691 52.4297C156.844 52.6289 156.953 52.8633 157.02 53.1328C157.086 53.4023 157.119 53.7266 157.119 54.1055V57.334ZM160.652 55.0488C160.648 55.0879 160.637 55.123 160.617 55.1543C160.598 55.1855 160.562 55.2129 160.512 55.2363C160.465 55.2559 160.398 55.2715 160.312 55.2832C160.23 55.2949 160.129 55.3008 160.008 55.3008C159.883 55.3008 159.779 55.2949 159.697 55.2832C159.615 55.2715 159.549 55.2559 159.498 55.2363C159.451 55.2129 159.418 55.1855 159.398 55.1543C159.379 55.123 159.367 55.0879 159.363 55.0488L159.211 49.7285C159.211 49.6777 159.223 49.6328 159.246 49.5938C159.27 49.5547 159.311 49.5234 159.369 49.5C159.432 49.4727 159.514 49.4531 159.615 49.4414C159.721 49.4297 159.852 49.4238 160.008 49.4238C160.164 49.4238 160.293 49.4316 160.395 49.4473C160.496 49.459 160.576 49.4785 160.635 49.5059C160.697 49.5293 160.74 49.5605 160.764 49.5996C160.791 49.6348 160.805 49.6777 160.805 49.7285L160.652 55.0488ZM160.834 56.7656C160.834 56.9258 160.82 57.0605 160.793 57.1699C160.77 57.2793 160.725 57.3672 160.658 57.4336C160.596 57.5 160.512 57.5469 160.406 57.5742C160.301 57.6055 160.168 57.6211 160.008 57.6211C159.848 57.6211 159.713 57.6055 159.604 57.5742C159.498 57.5469 159.414 57.5 159.352 57.4336C159.289 57.3672 159.244 57.2793 159.217 57.1699C159.193 57.0605 159.182 56.9258 159.182 56.7656C159.182 56.6016 159.193 56.4648 159.217 56.3555C159.244 56.2422 159.289 56.1523 159.352 56.0859C159.414 56.0156 159.498 55.9668 159.604 55.9395C159.713 55.9082 159.848 55.8926 160.008 55.8926C160.168 55.8926 160.301 55.9082 160.406 55.9395C160.512 55.9668 160.596 56.0156 160.658 56.0859C160.725 56.1523 160.77 56.2422 160.793 56.3555C160.82 56.4648 160.834 56.6016 160.834 56.7656Z" fill="#FBFBFB"/>
<defs>
<linearGradient id="paint0_linear_840_468211" x1="158.759" y1="70.1704" x2="142.294" y2="101.14" gradientUnits="userSpaceOnUse">
<stop stop-color="#342061"/>
<stop offset="1" stop-color="#3A226C"/>
</linearGradient>
<linearGradient id="paint1_linear_840_468211" x1="10.731" y1="78.2988" x2="181.177" y2="17.8832" gradientUnits="userSpaceOnUse">
<stop stop-color="#412B71"/>
<stop offset="0.748266" stop-color="#6A9EE1"/>
</linearGradient>
</defs>
</svg>
