<svg xmlns="http://www.w3.org/2000/svg" xmlns:xlink="http://www.w3.org/1999/xlink" viewBox="0 0 219.013 190.536">
  <defs>
    <style>
      .cls-1 {
        fill: #7cbadb;
      }

      .cls-2 {
        fill: url(#linear-gradient);
      }

      .cls-3 {
        fill: #d6caba;
      }

      .cls-4 {
        fill: #e6e6e6;
      }

      .cls-5 {
        fill: #fff;
      }

      .cls-6 {
        fill: url(#linear-gradient-2);
      }

      .cls-7 {
        fill: #33322e;
      }

      .cls-8 {
        fill: #232122;
      }

      .cls-9 {
        fill: #413e39;
      }

      .cls-10 {
        fill: #863399;
      }

      .cls-11 {
        fill: #f2f2f2;
      }

      .cls-12 {
        fill: #c1d4de;
      }

      .cls-13 {
        fill: #dbdbdb;
      }

      .cls-14 {
        fill: #f58520;
      }

      .cls-15 {
        fill: #aea693;
      }

      .cls-16 {
        fill: #bab0a2;
      }

      .cls-17 {
        fill: #ebebeb;
      }

      .cls-18 {
        fill: #adc2cc;
      }

      .cls-19 {
        fill: #d1d1d1;
      }

      .cls-20 {
        fill: #b6d0d6;
      }

      .cls-21 {
        fill: #c5e1e8;
      }

      .cls-22 {
        fill: #303030;
      }

      .cls-23 {
        fill: #4f545e;
      }

      .cls-24 {
        fill: #615c53;
      }

      .cls-25 {
        fill: #ebddcc;
      }

      .cls-26 {
        fill: #393631;
        opacity: 0.49;
      }

      .cls-27 {
        fill: #949494;
      }

      .cls-28 {
        fill: #f0f0f0;
      }

      .cls-29 {
        opacity: 0.37;
        fill: url(#linear-gradient-3);
      }

      .cls-30 {
        fill: #fedfb4;
      }

      .cls-31 {
        fill: #283f54;
      }

      .cls-32 {
        fill: #caa57e;
      }

      .cls-33 {
        fill: #77503d;
      }

      .cls-34 {
        fill: #654433;
      }

      .cls-35 {
        fill: #663d19;
      }

      .cls-36 {
        fill: #375a75;
      }

      .cls-37 {
        fill: #855934;
      }

      .cls-38 {
        fill: #004a6e;
      }

      .cls-39 {
        fill: #93b5cf;
      }

      .cls-40 {
        fill: #f0f4f5;
      }

      .cls-41 {
        fill: #b59f80;
      }

      .cls-42 {
        fill: #baa483;
      }

      .cls-43 {
        fill: #c7af8d;
      }

      .cls-44 {
        fill: #d9ddde;
      }

      .cls-45 {
        fill: #cfb592;
      }
    </style>
    <linearGradient id="linear-gradient" x1="0.002" y1="0.504" x2="0.996" y2="0.504" gradientUnits="objectBoundingBox">
      <stop offset="0" stop-color="#393631"/>
      <stop offset="0.571" stop-color="#5f584e"/>
      <stop offset="1" stop-color="#59544f"/>
    </linearGradient>
    <linearGradient id="linear-gradient-2" x1="0.233" y1="0.503" x2="0.548" y2="0.503" xlink:href="#linear-gradient"/>
    <linearGradient id="linear-gradient-3" x1="0.749" y1="0.175" x2="0.222" y2="1.002" gradientUnits="objectBoundingBox">
      <stop offset="0"/>
      <stop offset="1" stop-color="#fff"/>
    </linearGradient>
  </defs>
  <g id="surf_guy" data-name="surf guy" transform="translate(0.074 0)">
    <path id="Path_629" data-name="Path 629" class="cls-1" d="M194.7,65.549,81.25,29.188,41.979,37.43,28.4,22.4S14.829,24.339,5.132,25.794c-9.212,1.454-3.394,5.333-3.394,5.333L19.677,42.278l-4.363.97s-1.454,0-1.939.97a2.1,2.1,0,0,0,.97,1.939L98.218,99s7.757,3.879,13.09,4.363a83.763,83.763,0,0,0,15.03-.485L196.153,70.4a2.419,2.419,0,0,0,1.454-2.424C197.607,66.519,194.7,65.549,194.7,65.549Z" transform="translate(0 86.2)"/>
    <path id="Path_630" data-name="Path 630" class="cls-2" d="M191.7,48.672a8.37,8.37,0,0,1-1.939,1.454l-80,26.18a37.643,37.643,0,0,1-9.212,1.454A20.059,20.059,0,0,1,92.8,75.822L7.954,27.339l-.97-.97A1.5,1.5,0,0,1,6.5,25.4V36.066a1.5,1.5,0,0,0,.485.97l.97.97L92.8,90.366a17.083,17.083,0,0,0,7.757,2.424,36.762,36.762,0,0,0,8.727-1.454l80.965-29.089a8.37,8.37,0,0,0,1.939-1.454,3,3,0,0,0,.97-1.939V46.247A10.6,10.6,0,0,0,191.7,48.672Z" transform="translate(25.298 97.745)"/>
    <path id="Path_632" data-name="Path 632" class="cls-3" d="M192.572,48.372a8.371,8.371,0,0,1-1.939,1.454l-80.481,26.18a37.643,37.643,0,0,1-9.212,1.454,20.059,20.059,0,0,1-7.757-1.939L7.854,27.039l-.97-.97A1.5,1.5,0,0,1,6.4,25.1V35.766a1.5,1.5,0,0,0,.485.97l.97.97L93.183,90.066s4.363,2.424,7.757,2.424a36.762,36.762,0,0,0,8.727-1.454l81.45-29.089a8.371,8.371,0,0,0,1.939-1.454,3,3,0,0,0,.97-1.939V45.947C193.542,46.432,193.542,47.4,192.572,48.372Z" transform="translate(24.913 96.591)"/>
    <path id="Path_633" data-name="Path 633" class="cls-3" d="M45,29.5Z" transform="translate(173.455 113.523)"/>
    <path id="Path_634" data-name="Path 634" class="cls-4" d="M188.855,54.483,75.407,22,9.471,34.605s-2.424.485-2.909,1.454c-.485,1.454,1.454,2.424,1.454,2.424l85.329,48a17.083,17.083,0,0,0,7.757,2.424,26.417,26.417,0,0,0,8.242-1.454l80.481-26.18s3.879-.97,3.879-3.879C193.219,55.453,188.855,54.483,188.855,54.483Z" transform="translate(25.236 84.661)"/>
    <path id="Path_635" data-name="Path 635" class="cls-5" d="M38.57,26.9,37.6,53.08l21.332-6.788-.485-14.06Z" transform="translate(144.978 103.517)"/>
    <path id="Path_636" data-name="Path 636" class="cls-6" d="M187.154,54.683,73.706,22.2,8.739,34.321s-1.454,0-1.939.97a1.793,1.793,0,0,0,.97,1.454L91.644,84.257A16.507,16.507,0,0,0,98.916,86.2a38.252,38.252,0,0,0,8.242-.97l81.45-26.665a2.419,2.419,0,0,0,1.454-2.424C190.063,55.168,187.154,54.683,187.154,54.683Z" transform="translate(26.452 85.431)"/>
    <path id="Path_637" data-name="Path 637" class="cls-7" d="M29.9,71.058l9.7-2.909,2.909-40.24L33.294,25Z" transform="translate(115.346 96.206)"/>
    <path id="Path_638" data-name="Path 638" class="cls-8" d="M33,62.747,59.665,54.02,61.12,33.172,35.909,25.9Z" transform="translate(127.276 99.669)"/>
    <path id="Path_639" data-name="Path 639" class="cls-9" d="M25.1,79.655a9.452,9.452,0,0,0,3.879.485,38.253,38.253,0,0,0,8.242-.97l12.121-3.879,3.394-45.573L31.888,23.9Z" transform="translate(96.875 91.973)"/>
    <path id="Path_640" data-name="Path 640" class="cls-10" d="M71.533,51.728C72.018,18.76,88.017,4.7,88.017,4.7l-80,7.272S-4.1,33.3,3.658,61.424c8.727,31.029,27.15,40.24,27.15,40.24l85.329,44.6,77.087-24.726L91.411,90.029S71.048,87.6,71.533,51.728Z" transform="translate(4.383 18.087)"/>
    <path id="Path_641" data-name="Path 641" class="cls-11" d="M78.534,66.421C77.079,38.786,106.654,4.363,127.986,0c-48,1.454-93.571,3.879-93.571,3.879s-32.968,22.3-32,65.936c.97,35.877,27.635,52.361,27.635,52.361l80.481,42.18,77.087-24.726-90.177-28.12S80.473,105.207,78.534,66.421Z" transform="translate(9.503)"/>
    <path id="Path_642" data-name="Path 642" class="cls-12" d="M3.751,33.472c8.727-.97,24.241-3.879,24.241-3.879L32.355,10.2,5.69,13.109A72.633,72.633,0,0,0,3.751,33.472Z" transform="translate(14.472 39.252)"/>
    <path id="Path_643" data-name="Path 643" class="cls-13" d="M4.3,20.409s3.879,14.06,10.666,20.363c6.3-1.454,0-23.271,0-23.271Z" transform="translate(16.831 67.344)"/>
    <path id="Path_644" data-name="Path 644" class="cls-12" d="M4.67,22.672c1.939-.485,8.242-1.939,8.242-1.939l.97-5.333L3.7,17.339C4.185,17.339,4.67,21.7,4.67,22.672Z" transform="translate(14.523 59.263)"/>
    <path id="Path_645" data-name="Path 645" class="cls-14" d="M74.058,46.231C73.573,22.475,86.178,8.9,86.178,8.9L13.94,15.2S3.758,28.293,5.213,51.08C7.637,85.017,32.848,94.714,32.848,94.714l67.875,35.392L177.81,105.38,88.118,77.745S74.543,74.351,74.058,46.231Z" transform="translate(19.797 34.249)"/>
    <path id="Path_646" data-name="Path 646" class="cls-5" d="M23.269,13,6.785,14.939c0,.485-.485.97-.485,1.454l16.484-1.939C22.784,13.97,23.269,13.485,23.269,13Z" transform="translate(24.528 50.027)"/>
    <path id="Path_647" data-name="Path 647" class="cls-5" d="M28.054,14.1,11.085,16.039a1.781,1.781,0,0,1-.485,1.454l16.969-1.939C27.569,15.07,28.054,14.585,28.054,14.1Z" transform="translate(41.075 54.26)"/>
    <path id="Path_648" data-name="Path 648" class="cls-5" d="M25.245,13.7,10.7,15.154v.97L24.76,14.67C24.76,14.185,24.76,13.7,25.245,13.7Z" transform="translate(41.46 52.721)"/>
    <path id="Path_649" data-name="Path 649" class="cls-5" d="M23.354,15.6,5.9,17.539v.97L23.354,16.57Z" transform="translate(22.989 60.032)"/>
    <path id="Path_650" data-name="Path 650" class="cls-5" d="M23.069,13.6,6.585,15.539c0,.485,0,.97-.485.97L22.584,14.57C23.069,14.57,23.069,14.085,23.069,13.6Z" transform="translate(23.758 52.336)"/>
    <path id="Path_651" data-name="Path 651" class="cls-5" d="M22.869,15.1,5.9,17.039v.97L22.869,16.07Z" transform="translate(22.989 58.108)"/>
    <path id="Path_652" data-name="Path 652" class="cls-5" d="M28.554,12c-6.788.485-16.969,1.939-16.969,1.939a3.752,3.752,0,0,1-.485,1.454l16.969-1.939C28.069,12.97,28.554,12.485,28.554,12Z" transform="translate(42.999 46.179)"/>
    <path id="Path_653" data-name="Path 653" class="cls-5" d="M31.114,11.6c-8.242.485-15.03,1.454-15.03,1.454a1.5,1.5,0,0,1-.485.97L30.63,12.57C31.114,12.57,31.114,12.085,31.114,11.6Z" transform="translate(60.316 44.639)"/>
    <path id="Path_654" data-name="Path 654" class="cls-5" d="M5.9,19.394c4.848-.485,17.454-1.939,17.454-1.939V16L5.9,17.939Z" transform="translate(22.989 61.572)"/>
    <path id="Path_655" data-name="Path 655" class="cls-5" d="M32.469,12.1,15.985,14.039c0,.485-.485.97-.485,1.454l16.484-1.939A1.781,1.781,0,0,0,32.469,12.1Z" transform="translate(59.932 46.564)"/>
    <path id="Path_656" data-name="Path 656" class="cls-5" d="M31.2,13.6,15.685,15.539a1.781,1.781,0,0,1-.485,1.454l15.514-1.454A3.665,3.665,0,0,0,31.2,13.6Z" transform="translate(58.777 52.336)"/>
    <path id="Path_657" data-name="Path 657" class="cls-5" d="M31.684,14.1,15.2,16.039v1.454l16.484-1.939Z" transform="translate(58.777 54.26)"/>
    <path id="Path_658" data-name="Path 658" class="cls-5" d="M15,18.109c4.848-.485,17.454-2.424,17.454-2.424V15.2L15,16.654Z" transform="translate(58.008 58.493)"/>
    <path id="Path_659" data-name="Path 659" class="cls-5" d="M15.1,17.509,32.554,15.57V14.6L15.1,16.539Z" transform="translate(58.392 56.184)"/>
    <path id="Path_660" data-name="Path 660" class="cls-5" d="M10.9,15.894l17.938-1.939a1.781,1.781,0,0,1,.485-1.454L11.385,14.439C11.385,14.924,10.9,15.409,10.9,15.894Z" transform="translate(42.23 48.103)"/>
    <path id="Path_661" data-name="Path 661" class="cls-5" d="M15.3,16.009,31.784,14.07c0-.485,0-.97.485-.97L15.785,15.039C15.3,15.524,15.3,15.524,15.3,16.009Z" transform="translate(59.162 50.412)"/>
    <path id="Path_662" data-name="Path 662" class="cls-5" d="M15.4,15.894l17.454-1.939a1.781,1.781,0,0,1,.485-1.454L15.885,14.924A1.693,1.693,0,0,1,15.4,15.894Z" transform="translate(59.547 48.103)"/>
    <path id="Path_663" data-name="Path 663" class="cls-5" d="M10.8,16.009,28.254,14.07c0-.485,0-.97.485-.97L11.285,15.039C10.8,15.524,10.8,15.524,10.8,16.009Z" transform="translate(41.845 50.412)"/>
    <path id="Path_664" data-name="Path 664" class="cls-5" d="M6.5,15.794l17.938-1.939c0-.485.485-.97.485-1.454A169.546,169.546,0,0,0,6.985,14.339,1.781,1.781,0,0,0,6.5,15.794Z" transform="translate(25.298 47.718)"/>
    <path id="Path_665" data-name="Path 665" class="cls-5" d="M6,17.894l17.454-1.939V14.5L6,16.924Z" transform="translate(23.373 55.799)"/>
    <path id="Path_666" data-name="Path 666" class="cls-5" d="M6.1,17.009,24.523,15.07V14.1L6.1,16.039S6.1,16.524,6.1,17.009Z" transform="translate(23.758 54.26)"/>
    <path id="Path_667" data-name="Path 667" class="cls-5" d="M10.5,17.894l17.938-1.939V14.5L10.5,16.924Z" transform="translate(40.691 55.799)"/>
    <path id="Path_668" data-name="Path 668" class="cls-5" d="M10.785,18.009,28.723,16.07V15.1L10.3,17.039C10.785,17.524,10.785,17.524,10.785,18.009Z" transform="translate(39.921 58.108)"/>
    <path id="Path_669" data-name="Path 669" class="cls-5" d="M10.4,18.994c4.848-.485,18.423-2.909,18.423-2.909V15.6L10.4,17.539Z" transform="translate(40.306 60.032)"/>
    <path id="Path_670" data-name="Path 670" class="cls-14" d="M74.33,21.7V15.4L5,25.1v.485C7.424,59.519,32.635,69.215,32.635,69.215l17.454,9.212c16.484-6.3,41.21-16.969,50.906-22.3L87.9,52.247C88.39,52.731,74.815,50.307,74.33,21.7Z" transform="translate(19.525 59.263)"/>
    <path id="Path_671" data-name="Path 671" class="cls-5" d="M6.385,24.488c1.939,0,13.09-2.424,13.09-2.424l.97-4.363L5.9,20.124A18.757,18.757,0,0,0,6.385,24.488Z" transform="translate(22.989 68.114)"/>
    <path id="Path_672" data-name="Path 672" class="cls-5" d="M15.9,20,6.2,21.939v.97l9.7-1.939Z" transform="translate(24.143 76.965)"/>
    <path id="Path_673" data-name="Path 673" class="cls-5" d="M16,20.3,6.3,22.239v.97L16,21.27Z" transform="translate(24.528 78.119)"/>
    <path id="Path_674" data-name="Path 674" class="cls-5" d="M6.7,23.724a.475.475,0,0,0,.485.485L16.4,22.27V21.3Z" transform="translate(26.067 81.967)"/>
    <path id="Path_675" data-name="Path 675" class="cls-5" d="M16.2,20.7,6.5,22.639c0,.485,0,.485.485.485l9.7-1.939Z" transform="translate(25.298 79.658)"/>
    <path id="Path_676" data-name="Path 676" class="cls-5" d="M16.3,21,6.6,22.939a.475.475,0,0,0,.485.485l9.7-1.939Z" transform="translate(25.682 80.813)"/>
    <path id="Path_677" data-name="Path 677" class="cls-5" d="M6.271,23.748c1.939,0,13.09-2.424,13.09-2.424L20.816,18.9,6.271,21.324C5.786,21.324,6.271,22.294,6.271,23.748Z" transform="translate(23.587 72.732)"/>
    <path id="Path_678" data-name="Path 678" class="cls-14" d="M70.981,19.9,6.5,32.99A48.515,48.515,0,0,0,27.347,52.868l14.06,7.272L76.8,48.5c7.757-3.394,14.545-6.788,18.908-9.212l-13.09-3.879S74.86,33.475,70.981,19.9Z" transform="translate(25.298 76.58)"/>
    <path id="Path_679" data-name="Path 679" class="cls-15" d="M28.5,53.123l7.757-2.909L37.712,34.7,29.47,37.124Z" transform="translate(109.959 133.534)"/>
    <path id="Path_680" data-name="Path 680" class="cls-16" d="M16.3,30.9l4.363,16,28.12,17.454L45.389,47.384Z" transform="translate(63.01 118.91)"/>
    <path id="Path_681" data-name="Path 681" class="cls-5" d="M3.1,38.831l80.965-7.757C90.853,19.438,100.549,8.288,110.246,1.5L22.008,6.833C15.705,13.621,7.463,24.287,3.1,38.831Z" transform="translate(12.214 5.772)"/>
    <path id="Path_682" data-name="Path 682" class="cls-17" d="M6.7,10.472,45,7.563C46.455,6.109,47.425,4.654,48.88,3.2l-38.3,2.424A21.151,21.151,0,0,0,6.7,10.472Z" transform="translate(26.067 12.314)"/>
    <path id="Path_683" data-name="Path 683" class="cls-17" d="M5.7,12.642,55.637,8.763c1.454-1.454,1.939-2.909,3.394-4.363L9.094,7.794A20.889,20.889,0,0,0,5.7,12.642Z" transform="translate(22.219 16.932)"/>
    <path id="Path_684" data-name="Path 684" class="cls-12" d="M5.4,8.524l14.545-.97c.485-.485.485-.97.97-1.454L6.37,7.07C5.885,7.554,5.4,8.039,5.4,8.524Z" transform="translate(21.065 23.474)"/>
    <path id="Path_685" data-name="Path 685" class="cls-12" d="M8.7,7.939l10.666-.97.97-.97L9.67,6.485C9.185,6.97,9.185,7.454,8.7,7.939Z" transform="translate(33.764 23.089)"/>
    <path id="Path_686" data-name="Path 686" class="cls-12" d="M11.2,8.124l10.666-.97c.485-.485.485-.97.97-1.454L12.17,6.185C11.685,7.154,11.685,7.639,11.2,8.124Z" transform="translate(43.384 21.935)"/>
    <path id="Path_687" data-name="Path 687" class="cls-18" d="M7,10.3,32.211,8.842S37.544,3.024,41.422.6C37.059.6,16.7,1.57,16.7,1.57S11.848,5.448,7,10.3Z" transform="translate(27.222 2.309)"/>
    <path id="Path_688" data-name="Path 688" class="cls-19" d="M13.8,5.163l15.514-.97A20.865,20.865,0,0,1,32.708.8c-1.939,0-15.03.97-15.03.97A40.881,40.881,0,0,0,13.8,5.163Z" transform="translate(53.39 3.079)"/>
    <path id="Path_689" data-name="Path 689" class="cls-19" d="M17.7,4.963l15.514-.97A20.865,20.865,0,0,1,36.608.6c-1.939,0-15.03.97-15.03.97A40.882,40.882,0,0,0,17.7,4.963Z" transform="translate(68.398 2.309)"/>
    <path id="Path_690" data-name="Path 690" class="cls-19" d="M21.5,4.763l15.514-.97S39.923,1.854,42.347.4c-1.939,0-16.484.97-16.484.97A25.944,25.944,0,0,0,21.5,4.763Z" transform="translate(83.021 1.539)"/>
    <g id="Group_730" data-name="Group 730" transform="translate(44.888 30.059)">
      <g id="Group_729" data-name="Group 729">
        <path id="Path_691" data-name="Path 691" class="cls-17" d="M9.2,6.2Z" transform="translate(-9.2 -6.2)"/>
      </g>
    </g>
    <path id="Path_692" data-name="Path 692" class="cls-10" d="M5.9,24.414l71.269-6.3A49.179,49.179,0,0,1,82.987,8.9L10.748,15.2S7.839,18.112,5.9,24.414Z" transform="translate(22.989 34.249)"/>
    <path id="Path_693" data-name="Path 693" class="cls-5" d="M6.8,15.833l13.575-.97L22.314,10.5l-13.575.97Z" transform="translate(26.452 40.406)"/>
    <path id="Path_694" data-name="Path 694" class="cls-5" d="M18.2,12.894l10.666-.97.97-2.424-10.666.97Z" transform="translate(70.322 36.558)"/>
    <path id="Path_695" data-name="Path 695" class="cls-5" d="M15.5,12.709l11.151-.97.97-1.939-10.666.485Z" transform="translate(59.932 37.713)"/>
    <path id="Path_696" data-name="Path 696" class="cls-5" d="M12.9,12.909l11.151-.97L25.021,10l-11.151.97Z" transform="translate(49.926 38.482)"/>
    <g id="Group_734" data-name="Group 734" transform="translate(39.813 68.845)">
      <path id="Path_697" data-name="Path 697" class="cls-5" d="M71.407,40.865c-3.394-12.121,0-26.665,0-26.665L9.834,23.412s-4.363,16.484.97,32c6.3,18.423,18.908,23.272,18.908,23.272l58.664,30.544L165.463,84.5,93.224,62.2C93.709,62.682,75.77,58.319,71.407,40.865Z" transform="translate(-8.153 -14.2)"/>
      <path id="Path_698" data-name="Path 698" class="cls-5" d="M69.9,16.3,8.33,26.481a50.078,50.078,0,0,0,2.909,21.332,25.335,25.335,0,0,0,3.394,7.272L74.751,40.541a48.93,48.93,0,0,1-3.394-7.272C69.418,27.451,69.418,21.148,69.9,16.3Z" transform="translate(-8.103 -6.119)"/>
      <g id="Group_731" data-name="Group 731" transform="translate(4.59 2.909)">
        <path id="Path_699" data-name="Path 699" class="cls-20" d="M21.07,14.8a.97.97,0,1,0,.97.97A1.043,1.043,0,0,0,21.07,14.8Z" transform="translate(33.231 -14.8)"/>
        <path id="Path_700" data-name="Path 700" class="cls-20" d="M20.57,14.9a.97.97,0,1,0,.97.97C21.539,15.385,21.539,14.9,20.57,14.9Z" transform="translate(31.306 -14.415)"/>
        <path id="Path_701" data-name="Path 701" class="cls-20" d="M20.07,15a.97.97,0,1,0,.97.97A1.043,1.043,0,0,0,20.07,15Z" transform="translate(29.382 -14.03)"/>
        <path id="Path_702" data-name="Path 702" class="cls-20" d="M19.57,15.1a.97.97,0,1,0,.97.97A1.043,1.043,0,0,0,19.57,15.1Z" transform="translate(27.458 -13.646)"/>
        <path id="Path_703" data-name="Path 703" class="cls-20" d="M9.1,21.348l8.242-1.454V16.5L9.585,17.954Z" transform="translate(-9.1 -8.258)"/>
        <path id="Path_704" data-name="Path 704" class="cls-20" d="M11.1,20.563l8.242-.97.485-3.394-8.242.97Z" transform="translate(-1.404 -9.412)"/>
        <path id="Path_705" data-name="Path 705" class="cls-20" d="M13.2,21.033l12.605-1.939L26.29,15.7,13.685,17.639Z" transform="translate(6.678 -11.337)"/>
      </g>
      <g id="Group_732" data-name="Group 732" transform="translate(3.62 20.363)">
        <path id="Path_706" data-name="Path 706" class="cls-21" d="M8.9,23.248v3.394l26.18-5.333V18.4Z" transform="translate(-8.9 -18.4)"/>
        <path id="Path_707" data-name="Path 707" class="cls-21" d="M9,23.479v3.394l21.332-4.363V19.6Z" transform="translate(-8.515 -13.782)"/>
        <path id="Path_708" data-name="Path 708" class="cls-21" d="M9.1,23.424l.485,1.454,11.151-1.939L20.251,21Z" transform="translate(-8.13 -8.395)"/>
        <path id="Path_709" data-name="Path 709" class="cls-21" d="M11.7,22.154v1.454l7.757-1.454V20.7Z" transform="translate(1.875 -9.549)"/>
      </g>
      <g id="Group_733" data-name="Group 733" transform="translate(11.862 41.695)">
        <path id="Path_710" data-name="Path 710" class="cls-20" d="M10.6,32.5l1.939,2.424,39.271-9.7L49.386,22.8Z" transform="translate(-10.6 -22.8)"/>
        <path id="Path_711" data-name="Path 711" class="cls-20" d="M11.3,31.088l1.939,1.939,27.635-7.272L38.935,24.3Z" transform="translate(-7.906 -17.028)"/>
      </g>
    </g>
    <path id="Path_712" data-name="Path 712" class="cls-10" d="M20,47.563,43.272,59.683l77.087-24.726L95.632,27.2Z" transform="translate(77.249 104.672)"/>
    <path id="Path_713" data-name="Path 713" class="cls-22" d="M42.024,29.8c-1.454,0-2.424.485-2.424.97s.97.97,2.424.97,2.424-.485,2.424-.97C44.933,30.285,43.479,29.8,42.024,29.8Z" transform="translate(152.674 114.677)"/>
    <path id="Path_714" data-name="Path 714" class="cls-23" d="M40.87,30c-.485,0-.97,0-.97.485a1.693,1.693,0,0,0,.97.485c.485,0,.97,0,.97-.485A1.693,1.693,0,0,0,40.87,30Z" transform="translate(153.829 115.447)"/>
    <path id="Path_715" data-name="Path 715" class="cls-16" d="M62.5,31.439a8.371,8.371,0,0,1-1.939,1.454L40.685,39.2,40.2,52.772,61.047,45.5a8.371,8.371,0,0,0,1.939-1.454,3,3,0,0,0,.97-1.939V29.5C63.472,29.5,63.472,30.47,62.5,31.439Z" transform="translate(154.983 113.523)"/>
    <path id="Path_716" data-name="Path 716" class="cls-16" d="M45,29.5Z" transform="translate(173.455 113.523)"/>
    <path id="Path_717" data-name="Path 717" class="cls-24" d="M46.338,35.243l-16,5.818A2.818,2.818,0,0,0,28.4,43.97c0,2.424,2.424,1.454,2.424,1.454l16-5.818A2.818,2.818,0,0,0,48.763,36.7,1.958,1.958,0,0,0,46.338,35.243Z" transform="translate(109.574 135.415)"/>
    <path id="Path_718" data-name="Path 718" class="cls-25" d="M46.438,35.343l-16,5.818A2.818,2.818,0,0,0,28.5,44.07c0,2.424,2.424,1.454,2.424,1.454l16-5.818A2.818,2.818,0,0,0,48.863,36.8,1.958,1.958,0,0,0,46.438,35.343Z" transform="translate(109.959 135.8)"/>
    <g id="Group_735" data-name="Group 735" transform="translate(75.917 153.372)">
      <path id="Path_719" data-name="Path 719" class="cls-24" d="M43.82,47.466,17.154,31.951s-1.454-.97-1.454.485a2.419,2.419,0,0,0,1.454,2.424l26.665,16s1.454.485,1.454-.97A3.343,3.343,0,0,0,43.82,47.466Z" transform="translate(-15.215 -31.635)"/>
      <path id="Path_720" data-name="Path 720" class="cls-24" d="M43.72,47.95l-26.665-16s-1.454-.97-1.454.485a2.419,2.419,0,0,0,1.454,2.424l26.665,16s1.454.485,1.454-.97A2.162,2.162,0,0,0,43.72,47.95Z" transform="translate(-15.6 -31.635)"/>
      <path id="Path_721" data-name="Path 721" class="cls-25" d="M15.6,32.731a2.419,2.419,0,0,0,1.454,2.424L29.66,42.912V39.519L17.054,31.762S15.6,31.277,15.6,32.731Z" transform="translate(-15.6 -31.445)"/>
      <path id="Path_722" data-name="Path 722" class="cls-25" d="M32.175,41.157,18.6,33.4v3.394l13.575,7.757s1.454.485,1.454-.97A2.419,2.419,0,0,0,32.175,41.157Z" transform="translate(-4.055 -24.841)"/>
    </g>
    <path id="Path_723" data-name="Path 723" class="cls-26" d="M40.426,26.036c-2.909-.97-24.726-.97-24.726.485,0,.97.97,1.454,1.454,1.939,11.151,6.788,43.149,25.7,55.755,31.029,6.3,2.909,14.545,5.333,23.756,7.757l22.3-7.272c-5.818-3.394-11.151-5.818-15.03-7.757C89.393,45.914,53.031,31.369,40.426,26.036Z" transform="translate(60.701 97.593)"/>
    <path id="Path_724" data-name="Path 724" class="cls-26" d="M32.4,39.388c2.909,9.7,3.394,11.636,4.363,15.03,5.818-1.939,11.636-4.363,17.938-6.3,0-3.394.485-7.272.485-15.514Z" transform="translate(124.967 125.452)"/>
    <path id="Path_725" data-name="Path 725" class="cls-27" d="M107.032,47.872c-16-6.3-53.815-18.423-66.906-22.3-2.909-.97-3.394-.97-4.848-.97a27.336,27.336,0,0,0-3.394.485L16.37,26.539s-.97,0-.97,1.939c0,.97.97,1.454,1.939,1.939,11.636,6.3,46.543,24.241,59.633,29.089,16.969,6.3,50.906,9.7,60.118,9.7,4.363,0,6.3-.97,6.3-1.454C140,62.9,115.758,51.265,107.032,47.872Z" transform="translate(59.547 94.666)"/>
    <path id="Path_726" data-name="Path 726" class="cls-19" d="M106.162,47.672c-16-6.3-53.815-18.423-66.906-22.3-2.909-.97-3.394-.97-4.848-.97a27.336,27.336,0,0,0-3.394.485L16.47,27.794s-.97,0-.97,1.454c0,.97.485.97,1.454,1.454C28.59,37.005,63.5,54.944,76.588,59.792c16.969,6.3,63.027,12.121,66.421,9.7C145.433,66.095,115.858,51.065,106.162,47.672Z" transform="translate(59.932 93.897)"/>
    <path id="Path_727" data-name="Path 727" class="cls-28" d="M98.465,47.672c-16-6.3-53.815-18.423-66.906-22.3-2.909-.97-3.394-.97-4.848-.97a27.336,27.336,0,0,0-3.394.485l-5.818.97L134.827,69C137.736,66.095,108.162,51.065,98.465,47.672Z" transform="translate(67.628 93.897)"/>
    <path id="Path_728" data-name="Path 728" class="cls-1" d="M33.3,42.1s18.908,4.363,21.817,2.909c3.394-1.454-4.363-9.212-4.363-9.212Z" transform="translate(128.43 137.767)"/>
    <path id="Path_729" data-name="Path 729" class="cls-29" d="M104.056,47.117s-55.27-.485-48.967-6.3c6.3-5.333,18.423-12.605,18.423-12.605L60.906,25.3,10,35l46.543,26.18s44.6-7.757,50.906-5.333c4.363,1.939,13.09,0,13.09,0l-6.3-6.788Z" transform="translate(38.766 97.36)"/>
    <path id="Path_730" data-name="Path 730" class="cls-30" d="M53.047,21.4c-.97-.97-2.909-.97-3.879-.97-.485,0-1.939-.97-3.879-.485-.485.485-8.242-1.454-11.151-4.848.485,3.879-1.454,6.788-1.939,6.788,2.424.485,10.181,1.939,10.666,1.939a5.807,5.807,0,0,0,1.939,1.939,2.124,2.124,0,0,1,.485,1.454c0,.485,0,1.939.97,1.939s1.939-.97,2.424-2.424a3.709,3.709,0,0,0-.97-2.424,19.761,19.761,0,0,0,3.394-.97h2.909a.95.95,0,0,0,.97-.97A3.676,3.676,0,0,0,53.047,21.4Z" transform="translate(124.197 58.108)"/>
    <path id="Path_731" data-name="Path 731" class="cls-31" d="M38.627,29.3s-4.363-.485-5.818.485c-1.939.97-2.909,3.879-2.909,3.879s9.212,12.121,15.03,7.272S38.627,29.3,38.627,29.3Z" transform="translate(115.346 112.272)"/>
    <path id="Path_732" data-name="Path 732" class="cls-31" d="M34.394,25.485C32.939,25,27.121,25,27.121,25c-.97.485-10.181,5.333-7.272,7.757,2.909,2.909,16.969-2.424,18.423-4.363C39.727,26.939,35.848,25.97,34.394,25.485Z" transform="translate(74.491 96.206)"/>
    <path id="Path_733" data-name="Path 733" class="cls-1" d="M77.209,53.322c0-1.939,0-3.394-2.424-6.788-1.939-3.394-7.757-18.908-9.212-23.756a18.685,18.685,0,0,1-13.09,2.909C48.12,25.2,45.7,23.263,41.332,18.9c-6.788,3.879-17.938,12.121-19.878,14.06A9.343,9.343,0,0,0,20,37.323s1.454,9.7,1.939,12.121,2.424,4.848,9.7,3.879,5.333-4.363,5.333-4.363l-5.333-8.242s14.06-5.333,17.938-6.3c4.363,9.7,16.969,19.393,16.969,19.393s-2.909,10.666-2.424,16,12.121,7.757,15.514,6.3,2.424-3.879,1.939-5.333S77.209,55.262,77.209,53.322Z" transform="translate(77.249 72.732)"/>
    <path id="Path_734" data-name="Path 734" class="cls-10" d="M63.352,13.2a6.693,6.693,0,0,0-1.939,1.454c-.485,4.363-4.848,4.848-7.272,4.848-2.909,0-6.3-1.454-8.727-5.333a57.284,57.284,0,0,1-6.3,2.909,173.18,173.18,0,0,0-16,7.272C20.2,27.745,25.051,36.472,27.96,35.987c2.909-2.909,4.363-3.394,6.788-4.848,0,0-.485,7.272-1.939,10.181a14.281,14.281,0,0,0,10.666,6.3c6.3.485,10.666-.485,13.575-2.909.485-4.848,1.939-13.09,5.818-17.454a24.354,24.354,0,0,0,6.3,2.424c2.424-.485,4.848-5.333,2.909-8.242C70.14,20.957,67.716,19.5,63.352,13.2Z" transform="translate(85.773 50.797)"/>
    <path id="Path_735" data-name="Path 735" class="cls-30" d="M46.367,15.6C41.034,18.024,29.883,26.751,29.4,26.751c-2.909.485-7.757,1.454-9.212,1.939-1.939.485-1.939,1.454-1.939,1.939-2.424.97-1.454,2.424-1.454,2.424a1.062,1.062,0,0,0-.485,1.454c0,.97.97.97,1.939.485a29.751,29.751,0,0,1,10.181-1.454c-1.939,3.879-.97,6.788.485,6.788s1.454-2.909,1.939-3.879l3.394-3.394c.97-.485,1.454-3.394,1.454-3.394s9.212-5.818,14.545-7.757A11.733,11.733,0,0,0,46.367,15.6Z" transform="translate(62.518 60.032)"/>
    <path id="Path_736" data-name="Path 736" class="cls-30" d="M27.865,13.448C23.5,21.69,31.259,32.841,30.289,43.507l-1.454.97a10.556,10.556,0,0,0,8.242,5.333c7.757.485,7.757-4.848,7.757-4.848l1.939-1.454a38.19,38.19,0,0,0,7.757-26.665C53.076.843,33.2,3.267,27.865,13.448Z" transform="translate(102.351 20.489)"/>
    <g id="Group_737" data-name="Group 737" transform="translate(171.063 49.573)">
      <g id="Group_736" data-name="Group 736">
        <path id="Path_737" data-name="Path 737" class="cls-32" d="M35.589,10.589h0c0-.485-.485-.485,0,0-.485-.485-.485,0,0,0Z" transform="translate(-35.225 -10.225)"/>
      </g>
    </g>
    <path id="Path_738" data-name="Path 738" class="cls-33" d="M47.893,9.985a27.337,27.337,0,0,0-3.394.485.95.95,0,0,0-.97.97h-.485s0-.97-.97-.485c-.97,0-4.848.485-4.848.485a.475.475,0,0,0-.485.485C35.772,11.439,29.47,9.5,29.47,9.5l-.97.485,7.757,2.909v3.879a.95.95,0,0,0,.97.97,42,42,0,0,0,4.848-.97c.485,0,.485-.485.97-.97V12.894h.485v3.394s0,.97.97.485a15.031,15.031,0,0,0,3.394-.97,1.693,1.693,0,0,0,.485-.97V11.439S48.378,9.5,47.893,9.985ZM42.56,14.833c0,.97-.485.97-.485.97a30.9,30.9,0,0,1-4.363.97c-.97,0-.485-.485-.485-.485V12.894c0-.485.97-.97.97-.97s2.909-.485,3.879-.485.97.485.97.485A17.143,17.143,0,0,0,42.56,14.833Zm5.333-.485a10.051,10.051,0,0,0-2.909.97.475.475,0,0,1-.485-.485V11.439a.475.475,0,0,1,.485-.485,21,21,0,0,1,2.424-.485.475.475,0,0,1,.485.485v2.909C48.378,13.863,47.893,14.348,47.893,14.348Z" transform="translate(109.959 36.558)"/>
    <path id="Path_739" data-name="Path 739" class="cls-34" d="M34.748,14.124c-.485,0-.97,0-2.909-.97A3.62,3.62,0,0,1,30.385,11.7c-.485,0-.485,0-.485.485,2.909,2.424,4.363,1.939,4.848,1.939Z" transform="translate(115.346 45.024)"/>
    <path id="Path_740" data-name="Path 740" class="cls-34" d="M31.439,11.689c0-.485-.485-.485-.97,0-.485,0-.97.97-.97.97v.485c.485,0,.485,0,.485-.485l.97-.97C30.954,12.173,31.439,12.173,31.439,11.689Z" transform="translate(113.807 43.581)"/>
    <path id="Path_741" data-name="Path 741" class="cls-34" d="M32.859,8.944c-.97.485-3.394,1.939-2.909,2.424,0,.485,2.424-.97,2.909-1.454.97-.485,2.424-.485,1.939-.97C34.8,7.975,33.829,8.46,32.859,8.944Z" transform="translate(115.296 32.266)"/>
    <path id="Path_742" data-name="Path 742" class="cls-34" d="M33.824,8.3c-.97,0-2.424,0-2.424.97,0,.485,1.454,0,2.424,0s1.939.485,1.939,0S34.309,8.3,33.824,8.3Z" transform="translate(121.119 31.94)"/>
    <path id="Path_743" data-name="Path 743" class="cls-34" d="M32.285,10c-.485,0-.485.485-.485.97s0,.97.485.97.485-.485.485-.97S32.77,10,32.285,10Z" transform="translate(122.658 38.482)"/>
    <path id="Path_744" data-name="Path 744" class="cls-34" d="M31.585,10.2c-.485,0-.485.485-.485.97s0,.97.485.97.485-.485.485-.97C32.07,10.2,31.585,10.2,31.585,10.2Z" transform="translate(119.964 39.252)"/>
    <path id="Path_745" data-name="Path 745" class="cls-35" d="M59.407,10.65a1.693,1.693,0,0,0,.97-.485,17.5,17.5,0,0,0-2.424-1.939c.485-.485,1.939-.97,1.939-2.909L58.438,6.771s.485-2.424-.485-3.394a2.343,2.343,0,0,0-3.394,0c.97,0,2.424-.485,2.424.97s-.97,2.909-1.939,2.909c-1.454,0-3.879-.485-4.363,0L47.772,8.71h0S42.923,5.317,38.56,10.65a10.675,10.675,0,0,1,.485-3.879A6.447,6.447,0,0,0,37.59,10.65a31.108,31.108,0,0,0-4.848-2.909s3.394,2.424,3.879,2.909a7.022,7.022,0,0,0-5.333.485c1.454-.485,4.363-.485,5.333.485a8.077,8.077,0,0,0-5.333,1.939c-1.454.97-2.909,4.363-2.909,4.848-.485.485-3.879,2.424-3.879,5.818a11.681,11.681,0,0,0,2.424,6.788s0,2.909.97,4.363A8.682,8.682,0,0,0,31.288,37.8s-.485,2.424,0,3.394A28.715,28.715,0,0,0,33.227,44.1a7.092,7.092,0,0,0,1.454,2.424,9.045,9.045,0,0,1,1.939,1.454,6.488,6.488,0,0,0,.485,2.424,19.066,19.066,0,0,1,.97,2.909,12.793,12.793,0,0,1,.485-3.394c.485-1.454.97-4.363-.97-9.212-.485-1.454,0-3.394,1.939-3.394,1.939-.485,5.818-.97,7.757-2.909,1.454-1.939,3.394-7.272,0-10.181-.485-.485-2.424-6.3,7.757-3.394,3.394.97,1.454-3.879,3.879-.97A16.28,16.28,0,0,1,62.316,28.1a62.962,62.962,0,0,0,.97-8.727C62.8,15.5,61.347,11.619,59.407,10.65Z" transform="translate(94.566 10.198)"/>
    <g id="Group_739" data-name="Group 739" transform="translate(201.971 70.299)">
      <g id="Group_738" data-name="Group 738">
        <path id="Path_746" data-name="Path 746" class="cls-36" d="M41.6,14.5Z" transform="translate(-41.6 -14.5)"/>
      </g>
    </g>
    <path id="Path_747" data-name="Path 747" class="cls-37" d="M50.587,19.861h0v-.485h0c-.485-3.394-1.939-7.272-3.879-8.242a1.693,1.693,0,0,0,.97-.485,9.906,9.906,0,0,0-2.424-2.424c.485-.485,1.939-.97,1.939-2.909L45.738,6.771s.485-2.424-.485-3.394a2.343,2.343,0,0,0-3.394,0c.97,0,2.424-.485,2.424.97s-.97,2.909-1.939,2.909c-1.454,0-3.879-.485-4.363,0L35.072,8.71h-.485a6.68,6.68,0,0,0-5.333,0h0c-.485,0-.485.485-.97.485h0L27.8,9.68c1.939-.485,3.879-.97,5.333-.485.485,0,1.939.97,3.394.485a13.425,13.425,0,0,1,6.3.485c.97.485,2.424,3.394,3.879,4.848s3.394,1.939,3.879,5.818h0v-.97Z" transform="translate(107.265 10.198)"/>
    <path id="Path_748" data-name="Path 748" class="cls-37" d="M28.379,10.8c-.485.485-3.879,2.424-3.879,5.818a11.681,11.681,0,0,0,2.424,6.788s0,2.909.97,4.363A8.682,8.682,0,0,0,31.288,30.2s-.485,2.424,0,3.394A28.714,28.714,0,0,0,33.227,36.5a26.1,26.1,0,0,1-.485-3.879v-.485h0V30.2c-.485-.97-1.454-2.424-.97-3.394.485-.485-1.454-3.394-1.939-4.363s-.485-5.818.485-6.788c0-1.454,1.454-3.879,1.454-5.818,0-2.424.97-4.848,2.424-5.333-.97.485-1.939.485-2.909,1.454C29.833,6.924,28.863,10.318,28.379,10.8Z" transform="translate(94.566 17.317)"/>
    <path id="Path_749" data-name="Path 749" class="cls-10" d="M26.239,18.539a11.292,11.292,0,0,1-.485,5.333c-.97,3.394-1.454,4.848-1.454,4.848a29.683,29.683,0,0,1,2.424,2.909c.485-.97,1.454-5.818.97-6.788s.485-2.909,0-4.363a5.262,5.262,0,0,1,.97-3.879Z" transform="translate(93.796 63.881)"/>
    <path id="Path_750" data-name="Path 750" class="cls-38" d="M58.362,41.478c-.97-.97-6.788-6.3-10.666-10.666-2.424-2.424-4.848-7.272-4.848-7.272s1.454-.485,3.394-.97-1.939,0-3.394,0-2.424-.97-2.909-.97c0,0,.97.97.97,1.454s-1.939.97-3.879,1.454c-.97.485-8.242,3.394-12.121,5.333L22,31.3s8.727-3.394,12.121-4.848c2.909-.97,7.757-2.424,7.757-1.939a69.1,69.1,0,0,0,5.333,7.272,73.024,73.024,0,0,0,8.727,8.727c2.909,2.424,4.848,3.879,4.848,3.879A21.49,21.49,0,0,0,58.362,41.478Z" transform="translate(84.945 83.122)"/>
    <path id="Path_751" data-name="Path 751" class="cls-39" d="M32.707,34.363c-.97.97.97,3.394,2.424,2.424,2.909-2.424-.97-6.788-.97-6.788A3.681,3.681,0,0,1,32.707,34.363Z" transform="translate(125.144 115.447)"/>
    <path id="Path_752" data-name="Path 752" class="cls-40" d="M27.4,28.181a11.648,11.648,0,0,0,8.727-2.424c.485-1.939,1.454-4.848,2.424-7.757C36.612,23.333,35.157,27.212,27.4,28.181Z" transform="translate(105.726 69.268)"/>
    <path id="Path_753" data-name="Path 753" class="cls-41" d="M21.933,18.3c-1.454.485-5.333,1.454-5.333,1.454v.485S20.963,18.785,21.933,18.3Z" transform="translate(64.165 70.423)"/>
    <path id="Path_754" data-name="Path 754" class="cls-41" d="M16.3,21.509h0c.97-.485,5.333-1.939,7.757-2.909A53.249,53.249,0,0,0,16.3,21.509Z" transform="translate(63.01 71.577)"/>
    <g id="Group_741" data-name="Group 741" transform="translate(170.457 78.541)">
      <g id="Group_740" data-name="Group 740">
        <path id="Path_755" data-name="Path 755" class="cls-42" d="M41.4,17.17a17.06,17.06,0,0,0-5.818.97,20.772,20.772,0,0,1,5.818-.97Zm-3.394-.97a8.53,8.53,0,0,0-2.909.485c1.454,0,3.394-.485,3.879-.485Z" transform="translate(-35.1 -16.2)"/>
      </g>
    </g>
    <path id="Path_756" data-name="Path 756" class="cls-43" d="M29.2,14.313c.97.97,3.394,2.424,7.272-.97C36.472,12.859,32.594,15.768,29.2,14.313Z" transform="translate(112.652 51.138)"/>
    <path id="Path_757" data-name="Path 757" class="cls-44" d="M26.185,14H25.7c.97.485,1.939,1.939,3.879,4.363A22.055,22.055,0,0,0,26.185,14Z" transform="translate(99.184 53.875)"/>
    <path id="Path_758" data-name="Path 758" class="cls-44" d="M23.185,15.3a.475.475,0,0,0-.485.485c.97.485,3.879,2.909,4.848,8.727C27.063,17.724,23.185,15.3,23.185,15.3Z" transform="translate(87.639 58.878)"/>
    <path id="Path_759" data-name="Path 759" class="cls-41" d="M17.4,19.993a49.924,49.924,0,0,1,6.3-.485,20.386,20.386,0,0,0-.97,2.424c0-.485.97-1.939.97-2.424C22.248,19.023,17.4,19.993,17.4,19.993Z" transform="translate(67.243 74.548)"/>
    <path id="Path_760" data-name="Path 760" class="cls-5" d="M30.4,14.748h.97l.97-4.848-1.454.485Z" transform="translate(117.27 38.097)"/>
    <path id="Path_761" data-name="Path 761" class="cls-5" d="M32.2,14.063l.97-.485L33.654,9.7h-.97Z" transform="translate(124.197 37.328)"/>
    <path id="Path_762" data-name="Path 762" class="cls-34" d="M27.542,9.9a2.737,2.737,0,0,0,0,2.909,2.343,2.343,0,0,0,3.394,0C28.512,13.294,27.542,11.839,27.542,9.9Z" transform="translate(104.614 38.097)"/>
    <path id="Path_763" data-name="Path 763" class="cls-40" d="M45.208,15.039c-.485,4.363-4.848,4.848-7.272,4.848-2.909,0-6.3-1.454-8.727-5.333L26.3,16.009a18.514,18.514,0,0,0,4.363,4.363,10.715,10.715,0,0,0,8.727,2.909,9.011,9.011,0,0,0,7.272-4.363c.97-1.939.97-5.818.97-5.818h0A4.3,4.3,0,0,1,45.208,15.039Z" transform="translate(101.493 50.412)"/>
    <path id="Path_764" data-name="Path 764" class="cls-44" d="M22.6,18.07s1.454,2.424,3.394,2.909c.485-.97-.485-3.879-.485-3.879Z" transform="translate(87.254 65.805)"/>
    <path id="Path_765" data-name="Path 765" class="cls-45" d="M22.4,15.6s2.909,4.363,2.909,6.788l.485-.485A10.8,10.8,0,0,0,22.4,15.6Z" transform="translate(86.484 60.032)"/>
    <path id="Path_766" data-name="Path 766" class="cls-44" d="M32.485,14.8c.485,2.909.485,5.333-.485,7.272,1.939-2.909.97-7.272.97-7.272Z" transform="translate(123.427 56.954)"/>
  </g>
</svg>
