<svg xmlns="http://www.w3.org/2000/svg" width="17.572" height="14.28" viewBox="0 0 17.572 14.28">
    <defs>
        <style>
            .cls-1{fill:#f58520}
        </style>
    </defs>
    <path id="twitter_icon" d="M244.976 392.25a7.2 7.2 0 0 1-2.071.568 3.613 3.613 0 0 0 1.585-1.994 7.2 7.2 0 0 1-2.289.875 3.609 3.609 0 0 0-6.144 3.288 10.23 10.23 0 0 1-7.431-3.767 3.612 3.612 0 0 0 1.115 4.814 3.586 3.586 0 0 1-1.632-.451v.046a3.608 3.608 0 0 0 2.891 3.533 3.632 3.632 0 0 1-.95.127 3.584 3.584 0 0 1-.679-.066 3.61 3.61 0 0 0 3.367 2.5 7.232 7.232 0 0 1-4.477 1.543 7.373 7.373 0 0 1-.859-.051 10.254 10.254 0 0 0 15.784-8.638c0-.156 0-.311-.01-.467a7.343 7.343 0 0 0 1.8-1.86z" class="cls-1" data-name="twitter icon" transform="translate(-227.404 -390.56)"/>
</svg>
