<svg xmlns="http://www.w3.org/2000/svg" width="15" height="12.006" viewBox="0 0 15 12.006">
  <defs>
    <style>
      .cls-1 {
        fill: #383838;
        fill-rule: evenodd;
      }
    </style>
  </defs>
  <path id="Path_1203" data-name="Path 1203" class="cls-1" d="M15,1.423a6.61,6.61,0,0,1-1.749.474A3.077,3.077,0,0,0,14.615.208a6.224,6.224,0,0,1-1.957.741A3.2,3.2,0,0,0,10.375,0,3.069,3.069,0,0,0,7.292,3.024a2.527,2.527,0,0,0,.089.682A8.721,8.721,0,0,1,1.038.563,3.2,3.2,0,0,0,.623,2.075a3.035,3.035,0,0,0,1.364,2.52A2.808,2.808,0,0,1,.593,4.209v.03A2.776,2.776,0,0,0,.8,5.336,3.078,3.078,0,0,0,3.053,7.2a3.732,3.732,0,0,1-.8.119,3.283,3.283,0,0,1-.563-.059,3.074,3.074,0,0,0,2.875,2.1,6.333,6.333,0,0,1-3.824,1.3c-.267,0-.474-.03-.741-.03a8.85,8.85,0,0,0,4.713,1.364,8.544,8.544,0,0,0,8.538-6.789,7.77,7.77,0,0,0,.208-1.838V2.994A7.041,7.041,0,0,0,15,1.423Z"/>
</svg>
