<svg width="72" height="72" viewBox="0 0 72 72" fill="none" xmlns="http://www.w3.org/2000/svg">
<g clip-path="url(#clip0_194_16624)">
<circle cx="35.9995" cy="36.0001" r="35.939" fill="#EAE6F2"/>
<path d="M43.2604 27.3544V40.428C43.2604 41.7096 42.2229 42.7539 40.9345 42.7539L30.0986 42.7403C29.868 42.781 29.6714 42.9166 29.5764 42.9641L26.0164 44.8288L22.4632 46.6936C22.1988 46.8292 21.8869 46.6326 21.9004 46.3342L22.0428 42.7607H21.4597C20.1781 42.7607 19.1338 41.7232 19.1338 40.4348V27.3611C19.1338 26.0795 20.1713 25.0353 21.4597 25.0353H40.9413C42.2229 25.0353 43.2672 26.0728 43.2672 27.3611L43.2604 27.3544Z" fill="#FAFBFC"/>
<path d="M22.2874 47.392C22.0908 47.392 21.8942 47.3378 21.7246 47.2293C21.4059 47.0258 21.2228 46.68 21.2432 46.3003L21.3585 43.4116C19.7582 43.3574 18.4766 42.0419 18.4766 40.428V27.3543C18.4766 25.7134 19.8124 24.3707 21.4602 24.3707H40.9418C42.5896 24.3707 43.9254 25.7066 43.9254 27.3543V40.428C43.9254 42.0758 42.5896 43.4116 40.9418 43.4116L30.1805 43.398C30.1194 43.4184 30.0381 43.4659 29.9838 43.493L29.8821 43.5472L22.7757 47.27C22.6265 47.3513 22.457 47.392 22.2874 47.392ZM21.4602 25.693C20.5447 25.693 19.7921 26.4389 19.7921 27.3611V40.4348C19.7921 41.3502 20.538 42.1029 21.4602 42.1029H22.735L22.579 45.8934L29.2786 42.3877C29.4549 42.286 29.699 42.1504 29.9974 42.0961H40.9418C41.8572 42.0961 42.6099 41.3502 42.6099 40.4348V27.3611C42.6099 26.4457 41.864 25.693 40.9418 25.693H21.4602Z" fill="#6A509B"/>
<g style="mix-blend-mode:multiply" opacity="0.1">
<path d="M40.8204 24.3978C42.4885 24.3978 43.838 25.7472 43.838 27.4153V40.5229C43.838 42.191 42.4885 43.5404 40.8204 43.5404C40.6306 43.5404 40.4746 43.3845 40.4746 43.1946V24.7369C40.4746 24.547 40.6306 24.3911 40.8204 24.3911V24.3978Z" fill="#6A509B"/>
</g>
<path d="M25.1781 35.2948C25.9496 35.2948 26.575 34.6694 26.575 33.898C26.575 33.1265 25.9496 32.5011 25.1781 32.5011C24.4067 32.5011 23.7812 33.1265 23.7812 33.898C23.7812 34.6694 24.4067 35.2948 25.1781 35.2948Z" fill="#6A509B"/>
<path d="M30.9145 35.2948C31.6859 35.2948 32.3113 34.6694 32.3113 33.898C32.3113 33.1265 31.6859 32.5011 30.9145 32.5011C30.143 32.5011 29.5176 33.1265 29.5176 33.898C29.5176 34.6694 30.143 35.2948 30.9145 35.2948Z" fill="#6A509B"/>
<path d="M36.976 35.2948C37.7474 35.2948 38.3728 34.6694 38.3728 33.898C38.3728 33.1265 37.7474 32.5011 36.976 32.5011C36.2045 32.5011 35.5791 33.1265 35.5791 33.898C35.5791 34.6694 36.2045 35.2948 36.976 35.2948Z" fill="#6A509B"/>
<path d="M43.9815 35.5254H31.4639V43.3913H43.9815V35.5254Z" fill="#FAFBFC"/>
<path d="M56.0515 38.7735V52.1455C56.0515 53.1491 55.2378 53.9628 54.2343 53.9628H53.2578L53.4002 57.3939C53.4138 57.6787 53.1086 57.8686 52.8577 57.733L49.4469 55.9496L46.0361 54.1662C45.9479 54.1187 45.8869 54.0509 45.8598 53.9628H34.7255C33.7219 53.9628 32.9082 53.1491 32.9082 52.1455V38.7735C32.9082 37.7699 33.7219 36.9562 34.7255 36.9562H54.2343C55.2378 36.9562 56.0515 37.7699 56.0515 38.7735Z" fill="#FAFBFC"/>
<path d="M53.0344 58.4585C52.8649 58.4585 52.7021 58.4178 52.5462 58.3365L45.7178 54.7629C45.6499 54.729 45.5889 54.6883 45.5347 54.6409H34.7259C33.3493 54.6409 32.2305 53.522 32.2305 52.1455V38.7735C32.2305 37.3969 33.3493 36.2781 34.7259 36.2781H54.2346C55.6111 36.2781 56.73 37.3969 56.73 38.7735V52.1455C56.73 53.522 55.6111 54.6409 54.2346 54.6409H53.9634L54.0786 57.3668C54.0922 57.7465 53.9091 58.0924 53.5904 58.2958C53.4209 58.4043 53.2242 58.4585 53.0276 58.4585H53.0344ZM46.4637 53.6237L52.7021 56.8921L52.5529 53.2914H54.2346C54.8652 53.2914 55.3738 52.7829 55.3738 52.1523V38.7802C55.3738 38.1496 54.8652 37.641 54.2346 37.641H34.7259C34.0952 37.641 33.5867 38.1496 33.5867 38.7802V52.1523C33.5867 52.7829 34.0952 53.2914 34.7259 53.2914H46.3552L46.4637 53.6305V53.6237Z" fill="#005894"/>
<g style="mix-blend-mode:multiply">
<path d="M53.5971 36.9697H53.909C55.0821 36.9697 56.0382 37.9258 56.0382 39.0989V51.8268C56.0382 53.0134 55.0753 53.9763 53.8887 53.9763H53.5903C53.4886 53.9763 53.4072 53.895 53.4072 53.7932V37.1596C53.4072 37.0579 53.4886 36.9765 53.5903 36.9765L53.5971 36.9697Z" fill="#D8E5EE"/>
</g>
<path d="M46.5443 50.796C45.968 50.735 45.4662 50.5858 44.9779 50.3892C43.9811 49.9823 43.0928 49.3924 42.2723 48.6939C41.1467 47.7378 40.1906 46.6393 39.465 45.3442C39.0853 44.6661 38.7937 43.9473 38.6513 43.1743C38.6106 42.9437 38.631 42.7403 38.7734 42.5436C39.2413 41.8723 39.7566 41.2349 40.3601 40.6789C40.4279 40.6178 40.4957 40.5636 40.5703 40.5161C40.7059 40.428 40.8077 40.428 40.9365 40.5433C40.9975 40.5975 41.0586 40.6585 41.106 40.7263C41.5807 41.3909 42.0147 42.0757 42.3605 42.8149C42.5436 43.2014 42.5232 43.276 42.1978 43.5675C41.9875 43.7506 41.7773 43.9405 41.5671 44.1236C41.479 44.1982 41.4722 44.2728 41.5061 44.3745C41.8248 45.3781 42.3944 46.2189 43.1946 46.8902C43.7506 47.3581 44.3744 47.7107 45.0729 47.9074C45.1475 47.9277 45.1949 47.9209 45.2424 47.8599C45.4255 47.6497 45.6086 47.4462 45.7917 47.236C46.1171 46.8631 46.1849 46.8427 46.6257 47.0597C47.3377 47.4056 48.0022 47.8192 48.6464 48.2803C49.0194 48.5515 49.0329 48.7007 48.721 49.0398C48.1379 49.6772 47.4801 50.2197 46.7545 50.6875C46.6732 50.7418 46.5782 50.7689 46.524 50.7893L46.5443 50.796Z" fill="#005894"/>
<path d="M48.9515 45.256H48.226C48.1988 44.1507 47.8191 43.1878 47.0393 42.3945C46.2527 41.6079 45.2898 41.2146 44.1777 41.1942V40.4755C46.6324 40.3873 48.9922 42.5369 48.9583 45.256H48.9515Z" fill="#005894"/>
<path d="M47.107 45.2492H46.3815C46.3611 44.6457 46.1577 44.1236 45.7305 43.6964C45.3033 43.2692 44.7812 43.059 44.1709 43.0386V42.3198C45.6152 42.252 47.1274 43.5269 47.107 45.256V45.2492Z" fill="#005894"/>
</g>
<defs>
<clipPath id="clip0_194_16624">
<rect width="72" height="72" fill="white"/>
</clipPath>
</defs>
</svg>
