<svg width="60" height="60" viewBox="0 0 60 60" fill="none" xmlns="http://www.w3.org/2000/svg">
<g clip-path="url(#clip0_82_74843)">
<path d="M30 60C46.5685 60 60 46.5685 60 30C60 13.4315 46.5685 0 30 0C13.4315 0 0 13.4315 0 30C0 46.5685 13.4315 60 30 60Z" fill="#E3F2FB"/>
<path d="M45.2835 14.0758H45.2012V14.0464L45.2835 14.0758Z" fill="#FBFBFB"/>
<path d="M29.9998 10.1938C28.4304 10.1938 26.8764 10.5031 25.4265 11.1038C23.9767 11.7046 22.6594 12.5851 21.5499 13.6951C20.4404 14.8051 19.5605 16.1229 18.9605 17.573C18.3604 19.0232 18.052 20.5774 18.0528 22.1468C18.0499 23.3437 18.2304 24.534 18.5881 25.6762L19.4645 27.7586V27.788L19.8175 28.3762L24.1175 35.8762L28.541 43.5233C28.688 43.7786 28.8997 43.9907 29.1548 44.1382C29.4099 44.2857 29.6993 44.3634 29.9939 44.3634C30.2886 44.3634 30.578 44.2857 30.8331 44.1382C31.0882 43.9907 31.2999 43.7786 31.4469 43.5233L35.8822 35.8762L40.141 28.4644L40.4939 27.8762V27.8468L41.4116 25.6997C41.7692 24.5575 41.9498 23.3672 41.9469 22.1703C41.9507 20.5989 41.6446 19.0422 41.0459 17.5893C40.4473 16.1365 39.5679 14.816 38.4581 13.7035C37.3483 12.5909 36.03 11.7083 34.5786 11.1061C33.1272 10.5038 31.5712 10.1938 29.9998 10.1938ZM29.9998 27.4703C28.9292 27.4703 27.8827 27.1528 26.9926 26.5579C26.1025 25.9629 25.4089 25.1174 24.9994 24.1282C24.59 23.139 24.4832 22.0505 24.6925 21.0006C24.9018 19.9507 25.4178 18.9864 26.1752 18.2298C26.9327 17.4732 27.8975 16.9582 28.9477 16.7501C29.9978 16.5419 31.0861 16.6499 32.0749 17.0604C33.0637 17.4709 33.9085 18.1655 34.5024 19.0562C35.0963 19.947 35.4128 20.9938 35.4116 22.0644C35.4116 22.7748 35.2716 23.4783 34.9995 24.1345C34.7275 24.7908 34.3288 25.387 33.8262 25.8891C33.3236 26.3911 32.7269 26.7892 32.0704 27.0605C31.4138 27.3318 30.7102 27.4711 29.9998 27.4703Z" fill="#FBFBFB"/>
<path d="M30.0006 27.4817C32.9895 27.4817 35.4124 25.0588 35.4124 22.07C35.4124 19.0811 32.9895 16.6582 30.0006 16.6582C27.0118 16.6582 24.5889 19.0811 24.5889 22.07C24.5889 25.0588 27.0118 27.4817 30.0006 27.4817Z" fill="#E3F2FB"/>
<path d="M30 9.81006C30 9.81006 47.8837 14.6791 32.891 40.6474C32.891 40.6474 54.9425 13.4456 30 9.81006Z" fill="#AD9DCA" fill-opacity="0.6"/>
<path d="M30.0004 44.7411C29.6416 44.7403 29.2894 44.6446 28.9795 44.4639C28.6696 44.2831 28.413 44.0236 28.2357 43.7117L19.118 27.9352L18.2357 25.7999C17.8676 24.6193 17.6811 23.3895 17.6827 22.1529C17.5787 20.4697 17.8204 18.783 18.3929 17.1968C18.9655 15.6106 19.8568 14.1584 21.0119 12.9297C22.167 11.701 23.5614 10.7218 25.1093 10.0525C26.6572 9.38314 28.3257 9.03784 30.0121 9.03784C31.6985 9.03784 33.3671 9.38314 34.9149 10.0525C36.4628 10.7218 37.8573 11.701 39.0124 12.9297C40.1675 14.1584 41.0587 15.6106 41.6313 17.1968C42.2039 18.783 42.4456 20.4697 42.3415 22.1529C42.3431 23.3895 42.1567 24.6193 41.7886 25.7999L41.7651 25.8823L40.8474 28.0411L31.7651 43.7117C31.5877 44.0236 31.3311 44.2831 31.0212 44.4639C30.7113 44.6446 30.3591 44.7403 30.0004 44.7411ZM19.8062 27.647L20.1945 28.3234L28.8768 43.3352C28.9897 43.5332 29.1533 43.6975 29.3508 43.8112C29.5483 43.9249 29.7725 43.984 30.0004 43.9823C30.2282 43.984 30.4524 43.9249 30.6499 43.8112C30.8474 43.6975 31.011 43.5332 31.1239 43.3352L40.1768 27.647L41.0533 25.5646C41.4006 24.4568 41.5752 23.3021 41.5709 22.1411C41.5709 20.6216 41.2717 19.117 40.6902 17.7132C40.1087 16.3094 39.2564 15.0339 38.182 13.9595C37.1076 12.885 35.832 12.0327 34.4282 11.4513C33.0244 10.8698 31.5198 10.5705 30.0004 10.5705C28.4809 10.5705 26.9763 10.8698 25.5725 11.4513C24.1687 12.0327 22.8931 12.885 21.8187 13.9595C20.7443 15.0339 19.892 16.3094 19.3105 17.7132C18.7291 19.117 18.4298 20.6216 18.4298 22.1411C18.4255 23.3021 18.6001 24.4568 18.9474 25.5646L19.8062 27.647ZM30.0004 27.8529C28.8553 27.8529 27.736 27.5132 26.784 26.877C25.832 26.2407 25.0901 25.3363 24.6522 24.2783C24.2142 23.2203 24.1 22.0562 24.3238 20.9332C24.5476 19.8103 25.0995 18.7789 25.9095 17.9696C26.7196 17.1604 27.7515 16.6096 28.8747 16.3869C29.9979 16.1642 31.1619 16.2797 32.2195 16.7187C33.2771 17.1577 34.1806 17.9005 34.816 18.8531C35.4513 19.8058 35.7898 20.9255 35.7886 22.0705C35.7855 23.6041 35.1745 25.074 34.0895 26.1579C33.0045 27.2418 31.534 27.8513 30.0004 27.8529ZM30.0004 17.0587C29.0045 17.0587 28.0309 17.3541 27.2029 17.9073C26.3748 18.4606 25.7295 19.247 25.3484 20.1671C24.9672 21.0872 24.8675 22.0996 25.0618 23.0764C25.2561 24.0531 25.7357 24.9503 26.4399 25.6545C27.1441 26.3587 28.0413 26.8383 29.018 27.0326C29.9948 27.2269 31.0072 27.1272 31.9273 26.746C32.8474 26.3649 33.6338 25.7195 34.187 24.8915C34.7403 24.0634 35.0357 23.0899 35.0357 22.094C35.0341 20.7591 34.5031 19.4792 33.5591 18.5353C32.6152 17.5913 31.3353 17.0603 30.0004 17.0587Z" fill="#765BA7"/>
<path d="M29.9989 50.1769C33.4295 50.1769 36.2106 49.666 36.2106 49.0357C36.2106 48.4055 33.4295 47.8945 29.9989 47.8945C26.5682 47.8945 23.7871 48.4055 23.7871 49.0357C23.7871 49.666 26.5682 50.1769 29.9989 50.1769Z" fill="#765BA7"/>
</g>
<defs>
<clipPath id="clip0_82_74843">
<rect width="60" height="60" fill="white"/>
</clipPath>
</defs>
</svg>
