<svg width="61" height="61" viewBox="0 0 61 61" fill="none" xmlns="http://www.w3.org/2000/svg">
<g clip-path="url(#clip0_82_76219)">
<path d="M30.5 60.5C47.0685 60.5 60.5 47.0685 60.5 30.5C60.5 13.9315 47.0685 0.5 30.5 0.5C13.9315 0.5 0.5 13.9315 0.5 30.5C0.5 47.0685 13.9315 60.5 30.5 60.5Z" fill="#E3F2FB"/>
<path d="M45.7835 14.5758H45.7012V14.5464L45.7835 14.5758Z" fill="#FBFBFB"/>
<path d="M30.4988 10.6938C28.9294 10.6938 27.3754 11.0031 25.9255 11.6038C24.4757 12.2046 23.1584 13.0851 22.0489 14.1951C20.9395 15.3051 20.0596 16.6229 19.4595 18.073C18.8595 19.5232 18.551 21.0774 18.5518 22.6468C18.5489 23.8437 18.7294 25.034 19.0871 26.1762L19.9636 28.2586V28.288L20.3165 28.8762L24.6165 36.3762L29.04 44.0233C29.187 44.2786 29.3987 44.4907 29.6538 44.6382C29.9089 44.7857 30.1983 44.8634 30.493 44.8634C30.7876 44.8634 31.0771 44.7857 31.3321 44.6382C31.5872 44.4907 31.7989 44.2786 31.9459 44.0233L36.3812 36.3762L40.64 28.9644L40.993 28.3762V28.3468L41.9106 26.1997C42.2683 25.0575 42.4488 23.8672 42.4459 22.6703C42.4498 21.0989 42.1436 19.5422 41.5449 18.0893C40.9463 16.6365 40.0669 15.316 38.9571 14.2035C37.8473 13.0909 36.529 12.2083 35.0776 11.6061C33.6262 11.0038 32.0702 10.6938 30.4988 10.6938ZM30.4988 27.9703C29.4283 27.9703 28.3817 27.6528 27.4916 27.0579C26.6015 26.4629 25.9079 25.6174 25.4985 24.6282C25.089 23.639 24.9822 22.5505 25.1915 21.5006C25.4008 20.4507 25.9168 19.4864 26.6742 18.7298C27.4317 17.9732 28.3965 17.4582 29.4467 17.2501C30.4968 17.0419 31.5852 17.1499 32.5739 17.5604C33.5627 17.9709 34.4075 18.6655 35.0014 19.5562C35.5954 20.447 35.9118 21.4938 35.9106 22.5644C35.9106 23.2748 35.7706 23.9783 35.4985 24.6345C35.2265 25.2908 34.8278 25.887 34.3252 26.3891C33.8226 26.8911 33.2259 27.2892 32.5694 27.5605C31.9128 27.8318 31.2093 27.9711 30.4988 27.9703Z" fill="#FBFBFB"/>
<path d="M30.5006 27.9817C33.4895 27.9817 35.9124 25.5588 35.9124 22.57C35.9124 19.5811 33.4895 17.1582 30.5006 17.1582C27.5118 17.1582 25.0889 19.5811 25.0889 22.57C25.0889 25.5588 27.5118 27.9817 30.5006 27.9817Z" fill="#E3F2FB"/>
<path d="M30.5 10.3099C30.5 10.3099 48.3837 15.179 33.391 41.1473C33.391 41.1473 55.4425 13.9454 30.5 10.3099Z" fill="#AD9DCA" fill-opacity="0.6"/>
<path d="M30.5004 45.2412C30.1416 45.2404 29.7894 45.1448 29.4795 44.964C29.1696 44.7832 28.913 44.5237 28.7357 44.2118L19.618 28.4353L18.7357 26.3C18.3676 25.1194 18.1811 23.8897 18.1827 22.653C18.0787 20.9698 18.3204 19.2831 18.8929 17.6969C19.4655 16.1107 20.3568 14.6585 21.5119 13.4298C22.667 12.2011 24.0614 11.2219 25.6093 10.5526C27.1572 9.88326 28.8257 9.53796 30.5121 9.53796C32.1985 9.53796 33.8671 9.88326 35.4149 10.5526C36.9628 11.2219 38.3573 12.2011 39.5124 13.4298C40.6675 14.6585 41.5587 16.1107 42.1313 17.6969C42.7039 19.2831 42.9456 20.9698 42.8415 22.653C42.8431 23.8897 42.6567 25.1194 42.2886 26.3L42.2651 26.3824L41.3474 28.5412L32.2651 44.2118C32.0877 44.5237 31.8311 44.7832 31.5212 44.964C31.2113 45.1448 30.8591 45.2404 30.5004 45.2412ZM20.3062 28.1471L20.6945 28.8236L29.3768 43.8353C29.4897 44.0333 29.6533 44.1976 29.8508 44.3113C30.0483 44.425 30.2725 44.4841 30.5004 44.4824C30.7282 44.4841 30.9524 44.425 31.1499 44.3113C31.3474 44.1976 31.511 44.0333 31.6239 43.8353L40.6768 28.1471L41.5533 26.0647C41.9006 24.9569 42.0752 23.8022 42.0709 22.6412C42.0709 21.1217 41.7717 19.6172 41.1902 18.2133C40.6087 16.8095 39.7564 15.534 38.682 14.4596C37.6076 13.3851 36.332 12.5329 34.9282 11.9514C33.5244 11.3699 32.0198 11.0706 30.5004 11.0706C28.9809 11.0706 27.4763 11.3699 26.0725 11.9514C24.6687 12.5329 23.3931 13.3851 22.3187 14.4596C21.2443 15.534 20.392 16.8095 19.8105 18.2133C19.2291 19.6172 18.9298 21.1217 18.9298 22.6412C18.9255 23.8022 19.1001 24.9569 19.4474 26.0647L20.3062 28.1471ZM30.5004 28.353C29.3553 28.353 28.236 28.0134 27.284 27.3771C26.332 26.7408 25.5901 25.8365 25.1522 24.7784C24.7142 23.7204 24.6 22.5563 24.8238 21.4334C25.0476 20.3104 25.5995 19.279 26.4095 18.4698C27.2196 17.6605 28.2515 17.1097 29.3747 16.887C30.4979 16.6643 31.6619 16.7798 32.7195 17.2188C33.7771 17.6578 34.6806 18.4006 35.316 19.3533C35.9513 20.3059 36.2898 21.4256 36.2886 22.5706C36.2855 24.1043 35.6745 25.5741 34.5895 26.658C33.5045 27.7419 32.034 28.3514 30.5004 28.353ZM30.5004 17.5589C29.5045 17.5589 28.5309 17.8542 27.7029 18.4075C26.8748 18.9608 26.2295 19.7472 25.8484 20.6672C25.4672 21.5873 25.3675 22.5997 25.5618 23.5765C25.7561 24.5532 26.2357 25.4505 26.9399 26.1547C27.6441 26.8588 28.5413 27.3384 29.518 27.5327C30.4948 27.727 31.5072 27.6273 32.4273 27.2462C33.3474 26.8651 34.1338 26.2197 34.687 25.3916C35.2403 24.5636 35.5357 23.59 35.5357 22.5942C35.5341 21.2592 35.0031 19.9794 34.0591 19.0354C33.1152 18.0914 31.8353 17.5604 30.5004 17.5589Z" fill="#765BA7"/>
<path d="M30.4989 50.6769C33.9295 50.6769 36.7106 50.166 36.7106 49.5357C36.7106 48.9055 33.9295 48.3945 30.4989 48.3945C27.0682 48.3945 24.2871 48.9055 24.2871 49.5357C24.2871 50.166 27.0682 50.6769 30.4989 50.6769Z" fill="#765BA7"/>
<circle cx="30.5" cy="30.1982" r="30" fill="#A5A3A3" style="mix-blend-mode:color"/>
</g>
<defs>
<clipPath id="clip0_82_76219">
<rect width="60" height="60" fill="white" transform="translate(0.5 0.5)"/>
</clipPath>
</defs>
</svg>
