<svg width="60" height="60" viewBox="0 0 60 60" fill="none" xmlns="http://www.w3.org/2000/svg">
<g clip-path="url(#clip0_6708_318149)">
<path d="M30 60C46.5685 60 60 46.5685 60 30C60 13.4315 46.5685 0 30 0C13.4315 0 0 13.4315 0 30C0 46.5685 13.4315 60 30 60Z" fill="#EAEAEA" fill-opacity="0.6"/>
<path d="M45.2823 14.0765H45.2V14.0471L45.2823 14.0765Z" fill="white"/>
<path d="M30 27.4823C32.9889 27.4823 35.4118 25.0594 35.4118 22.0706C35.4118 19.0817 32.9889 16.6588 30 16.6588C27.0112 16.6588 24.5883 19.0817 24.5883 22.0706C24.5883 25.0594 27.0112 27.4823 30 27.4823Z" fill="white"/>
<path d="M30 44.7412C29.6412 44.7403 29.289 44.6447 28.9791 44.4639C28.6692 44.2831 28.4126 44.0236 28.2353 43.7117L19.1176 27.9353L18.2353 25.8C17.8672 24.6193 17.6807 23.3896 17.6823 22.1529C17.5783 20.4697 17.82 18.7831 18.3926 17.1968C18.9651 15.6106 19.8564 14.1584 21.0115 12.9297C22.1666 11.701 23.561 10.7218 25.1089 10.0525C26.6568 9.3832 28.3254 9.0379 30.0118 9.0379C31.6982 9.0379 33.3667 9.3832 34.9146 10.0525C36.4625 10.7218 37.8569 11.701 39.012 12.9297C40.1671 14.1584 41.0584 15.6106 41.6309 17.1968C42.2035 18.7831 42.4452 20.4697 42.3412 22.1529C42.3428 23.3896 42.1563 24.6193 41.7882 25.8L41.7647 25.8823L40.8471 28.0412L31.7647 43.7117C31.5874 44.0236 31.3308 44.2831 31.0209 44.4639C30.711 44.6447 30.3588 44.7403 30 44.7412ZM19.8059 27.647L20.1941 28.3235L28.8765 43.3353C28.9894 43.5332 29.153 43.6975 29.3504 43.8113C29.5479 43.925 29.7721 43.984 30 43.9823C30.2279 43.984 30.4521 43.925 30.6496 43.8113C30.847 43.6975 31.0106 43.5332 31.1235 43.3353L40.1765 27.647L41.0529 25.5647C41.4002 24.4569 41.5748 23.3021 41.5706 22.1412C41.5706 20.6217 41.2713 19.1171 40.6898 17.7133C40.1083 16.3095 39.2561 15.0339 38.1816 13.9595C37.1072 12.8851 35.8317 12.0328 34.4279 11.4513C33.0241 10.8698 31.5195 10.5706 30 10.5706C28.4805 10.5706 26.9759 10.8698 25.5721 11.4513C24.1683 12.0328 22.8928 12.8851 21.8183 13.9595C20.7439 15.0339 19.8916 16.3095 19.3102 17.7133C18.7287 19.1171 18.4294 20.6217 18.4294 22.1412C18.4251 23.3021 18.5997 24.4569 18.947 25.5647L19.8059 27.647ZM30 27.8529C28.8549 27.8529 27.7356 27.5133 26.7836 26.877C25.8316 26.2407 25.0897 25.3364 24.6518 24.2784C24.2139 23.2204 24.0996 22.0563 24.3234 20.9333C24.5472 19.8103 25.0991 18.779 25.9092 17.9697C26.7193 17.1604 27.7512 16.6096 28.8744 16.387C29.9976 16.1643 31.1616 16.2797 32.2191 16.7187C33.2767 17.1577 34.1803 17.9006 34.8156 18.8532C35.4509 19.8058 35.7894 20.9255 35.7882 22.0706C35.7851 23.6042 35.1741 25.0741 34.0891 26.1579C33.0041 27.2418 31.5336 27.8514 30 27.8529ZM30 17.0588C29.0041 17.0588 28.0306 17.3541 27.2025 17.9074C26.3745 18.4607 25.7291 19.2471 25.348 20.1672C24.9669 21.0873 24.8672 22.0997 25.0614 23.0764C25.2557 24.0532 25.7353 24.9504 26.4395 25.6546C27.1437 26.3588 28.0409 26.8384 29.0177 27.0326C29.9944 27.2269 31.0068 27.1272 31.9269 26.7461C32.847 26.365 33.6334 25.7196 34.1867 24.8916C34.74 24.0635 35.0353 23.09 35.0353 22.0941C35.0337 20.7591 34.5027 19.4793 33.5588 18.5353C32.6148 17.5914 31.335 17.0604 30 17.0588Z" fill="#863399"/>
<path d="M30 10.2C30 10.2 50.7294 21.5235 30 44.3588C30 44.3588 56.1412 15.2941 30 10.2Z" fill="#863399" fill-opacity="0.1"/>
<path d="M30 50.1765C33.4306 50.1765 36.2117 49.6655 36.2117 49.0353C36.2117 48.405 33.4306 47.8941 30 47.8941C26.5693 47.8941 23.7882 48.405 23.7882 49.0353C23.7882 49.6655 26.5693 50.1765 30 50.1765Z" fill="#863399"/>
<path d="M29.9999 10.2C28.4305 10.2 26.8765 10.5092 25.4266 11.11C23.9768 11.7108 22.6595 12.5913 21.55 13.7013C20.4406 14.8113 19.5607 16.129 18.9606 17.5792C18.3606 19.0294 18.0521 20.5835 18.0529 22.153C18.05 23.3499 18.2305 24.5401 18.5882 25.6824L19.4647 27.7647V27.7941L19.8176 28.3824L24.1176 35.8824L28.5411 43.5294C28.6881 43.7848 28.8998 43.9969 29.1549 44.1444C29.41 44.2919 29.6994 44.3695 29.9941 44.3695C30.2887 44.3695 30.5782 44.2919 30.8332 44.1444C31.0883 43.9969 31.3 43.7848 31.447 43.5294L35.8823 35.8824L40.1411 28.4706L40.4941 27.8824V27.853L41.4117 25.7059C41.7694 24.5637 41.9499 23.3734 41.947 22.1765C41.9509 20.6051 41.6447 19.0484 41.046 17.5955C40.4474 16.1426 39.568 14.8221 38.4582 13.7096C37.3484 12.5971 36.0301 11.7145 34.5787 11.1122C33.1273 10.51 31.5713 10.2 29.9999 10.2ZM29.9999 27.4765C28.9294 27.4765 27.8828 27.1589 26.9927 26.564C26.1026 25.9691 25.409 25.1236 24.9996 24.1343C24.5901 23.1451 24.4833 22.0567 24.6926 21.0068C24.9019 19.9568 25.4179 18.9926 26.1753 18.2359C26.9328 17.4793 27.8976 16.9644 28.9478 16.7562C29.9979 16.5481 31.0863 16.6561 32.075 17.0666C33.0638 17.4771 33.9086 18.1716 34.5025 19.0624C35.0965 19.9531 35.4129 21 35.4117 22.0706C35.4117 22.781 35.2717 23.4844 34.9997 24.1407C34.7276 24.797 34.3289 25.3932 33.8263 25.8952C33.3237 26.3973 32.727 26.7953 32.0705 27.0667C31.4139 27.338 30.7104 27.4773 29.9999 27.4765Z" fill="#863399" fill-opacity="0.1"/>
<circle cx="30.1132" cy="29.8868" r="30.1132" fill="#A5A3A3" style="mix-blend-mode:color"/>
</g>
<defs>
<clipPath id="clip0_6708_318149">
<rect width="60" height="60" fill="white"/>
</clipPath>
</defs>
</svg>
