<svg width="45" height="46" viewBox="0 0 45 46" fill="none" xmlns="http://www.w3.org/2000/svg">
<rect x="0.186243" y="8.18624" width="44.3259" height="29.4265" rx="2.79365" fill="white"/>
<rect x="0.186243" y="8.18624" width="44.3259" height="29.4265" rx="2.79365" stroke="#CCCCCC" stroke-width="0.372487"/>
<g clip-path="url(#clip0_801_26365)">
<path d="M29.7047 17.7584C29.1542 17.54 28.281 17.2988 27.2013 17.2988C24.445 17.2988 22.504 18.7686 22.4921 20.87C22.4692 22.4204 23.8818 23.2815 24.9383 23.7985C26.0181 24.3267 26.3852 24.6715 26.3852 25.1424C26.3742 25.8655 25.5126 26.1988 24.7091 26.1988C23.5947 26.1988 22.9976 26.027 22.0903 25.6247L21.7227 25.4522L21.3322 27.8753C21.9868 28.1735 23.1929 28.4382 24.445 28.4498C27.3736 28.4498 29.2803 27.0027 29.3029 24.7634C29.314 23.5346 28.5681 22.593 26.96 21.8236C25.9838 21.3297 25.386 20.9967 25.386 20.4913C25.3974 20.0319 25.8916 19.5614 26.9936 19.5614C27.901 19.5383 28.5676 19.7564 29.0727 19.9747L29.3251 20.0893L29.7047 17.7584Z" fill="url(#paint0_linear_801_26365)"/>
<path d="M19.5867 28.2889H16.7956L18.5414 17.4945H21.3323L19.5867 28.2889Z" fill="url(#paint1_linear_801_26365)"/>
<path fill-rule="evenodd" clip-rule="evenodd" d="M36.8596 17.4945H34.7006C34.0349 17.4945 33.5291 17.6896 33.2418 18.3901L29.096 28.2888H32.0246C32.0246 28.2888 32.5068 26.9565 32.6104 26.6695H36.1939C36.2741 27.0485 36.527 28.2888 36.527 28.2888H39.1113L36.8596 17.4945ZM33.4143 24.4648C33.6442 23.8447 34.5286 21.4446 34.5286 21.4446C34.524 21.4539 34.5599 21.3542 34.6136 21.2055L34.6142 21.2037L34.6147 21.2025C34.6948 20.9804 34.8137 20.6507 34.8959 20.4112L35.0909 21.3413C35.0909 21.3413 35.6195 23.9251 35.7342 24.4648H33.4143Z" fill="url(#paint2_linear_801_26365)"/>
<path d="M14.4644 17.4945L11.731 24.8553L11.4323 23.3624L11.432 23.3615L10.4561 18.4019C10.2954 17.7124 9.80147 17.5172 9.19279 17.4945H4.70219L4.65625 17.7126C5.75149 17.9927 6.73108 18.3963 7.58941 18.8981L10.0771 28.2775H13.0286L17.4158 17.4945H14.4644Z" fill="url(#paint3_linear_801_26365)"/>
</g>
<defs>
<linearGradient id="paint0_linear_801_26365" x1="4.65625" y1="22.8978" x2="39.1113" y2="22.8978" gradientUnits="userSpaceOnUse">
<stop stop-color="#222357"/>
<stop offset="1" stop-color="#254AA5"/>
</linearGradient>
<linearGradient id="paint1_linear_801_26365" x1="4.65625" y1="22.8978" x2="39.1113" y2="22.8978" gradientUnits="userSpaceOnUse">
<stop stop-color="#222357"/>
<stop offset="1" stop-color="#254AA5"/>
</linearGradient>
<linearGradient id="paint2_linear_801_26365" x1="4.65625" y1="22.8978" x2="39.1113" y2="22.8978" gradientUnits="userSpaceOnUse">
<stop stop-color="#222357"/>
<stop offset="1" stop-color="#254AA5"/>
</linearGradient>
<linearGradient id="paint3_linear_801_26365" x1="4.65625" y1="22.8978" x2="39.1113" y2="22.8978" gradientUnits="userSpaceOnUse">
<stop stop-color="#222357"/>
<stop offset="1" stop-color="#254AA5"/>
</linearGradient>
<clipPath id="clip0_801_26365">
<rect width="34.455" height="11.151" fill="white" transform="translate(4.65625 17.2988)"/>
</clipPath>
</defs>
</svg>
