<svg width="41" height="40" viewBox="0 0 41 40" fill="none" xmlns="http://www.w3.org/2000/svg">
<g clip-path="url(#clip0_384_10881)">
<path d="M20.99 40C32.0357 40 40.99 31.0457 40.99 20C40.99 8.95431 32.0357 0 20.99 0C9.94433 0 0.990021 8.95431 0.990021 20C0.990021 31.0457 9.94433 40 20.99 40Z" fill="#383838" fill-opacity="0.05"/>
<path d="M26.2414 25.5179V27.6803H15.8628V25.5179C15.8628 23.0429 17.4526 20.937 19.7995 20.5L22.2068 20.5414C24.4143 21.0839 26.2414 23.1408 26.2414 25.5179Z" fill="white"/>
<path d="M14.0471 12.8576C13.7269 12.5374 13.531 12.0967 13.531 11.6107C13.531 10.6388 14.3183 9.84766 15.2903 9.84766H26.8103C27.3001 9.84766 27.7371 10.0436 28.0573 10.3638C28.3775 10.684 28.5734 11.1247 28.5734 11.6107C28.5734 12.5826 27.786 13.3737 26.8103 13.3737H15.2903C14.8043 13.3737 14.3635 13.1779 14.0471 12.8576Z" fill="white"/>
<path d="M26.2414 15.5568C26.2414 18.028 24.4671 20.0887 22.1201 20.5257L19.7091 20.4654C17.5016 19.9229 15.8628 17.9301 15.8628 15.5568V13.3906H26.2414V15.5568Z" fill="white"/>
<path d="M28.0574 28.2153C28.3776 28.5318 28.5735 28.9763 28.5735 29.4623C28.5735 30.4342 27.7862 31.2215 26.8105 31.2215H15.2904C14.8045 31.2215 14.3637 31.0256 14.0473 30.7054C13.727 30.389 13.5312 29.9482 13.5312 29.4623C13.5312 28.4866 14.3185 27.6992 15.2904 27.6992H26.8105C27.3002 27.6992 27.7372 27.8951 28.0574 28.2153Z" fill="white"/>
<path d="M26.7505 31.8194H15.2304C13.9986 31.8194 12.9965 30.8174 12.9965 29.5855C12.9965 28.3536 13.9986 27.3516 15.2304 27.3516H26.7505C27.9824 27.3516 28.9844 28.3536 28.9844 29.5855C28.9844 30.8174 27.9824 31.8194 26.7505 31.8194ZM15.2304 28.2934C14.5184 28.2934 13.9383 28.8735 13.9383 29.5855C13.9383 30.2975 14.5184 30.8777 15.2304 30.8777H26.7505C27.4625 30.8777 28.0426 30.2975 28.0426 29.5855C28.0426 28.8735 27.4625 28.2934 26.7505 28.2934H15.2304Z" fill="#863399"/>
<path d="M26.1813 28.2792H15.8027C15.5428 28.2792 15.3318 28.0682 15.3318 27.8083V25.6422C15.3318 22.8921 17.1099 20.6393 19.6528 20.1647C19.909 20.1157 20.1538 20.2852 20.2028 20.5414C20.2518 20.7976 20.0822 21.0424 19.8261 21.0914C17.7353 21.4794 16.2736 23.3517 16.2736 25.6422V27.3374H25.7104V25.6422C25.7104 23.5815 24.1282 21.6376 22.0337 21.1253C21.7813 21.065 21.6268 20.8089 21.6871 20.5565C21.7473 20.3041 22.0035 20.1496 22.2559 20.2099C24.7611 20.8239 26.6522 23.1596 26.6522 25.6422V27.8083C26.6522 28.0682 26.4413 28.2792 26.1813 28.2792Z" fill="#863399"/>
<path d="M26.7505 13.9679H15.2304C13.9986 13.9679 12.9965 12.9658 12.9965 11.7339C12.9965 10.5021 13.9986 9.5 15.2304 9.5H26.7505C27.9824 9.5 28.9844 10.5021 28.9844 11.7339C28.9844 12.9658 27.9824 13.9679 26.7505 13.9679ZM15.2304 10.4418C14.5184 10.4418 13.9383 11.0219 13.9383 11.7339C13.9383 12.4459 14.5184 13.0261 15.2304 13.0261H26.7505C27.4625 13.0261 28.0426 12.4459 28.0426 11.7339C28.0426 11.0219 27.4625 10.4418 26.7505 10.4418H15.2304Z" fill="#863399"/>
<path d="M22.0563 21.1198C21.834 21.1198 21.6343 20.9616 21.5929 20.7356C21.5439 20.4794 21.7134 20.2345 21.9696 20.1856C24.1357 19.7825 25.7067 17.8876 25.7067 15.68V13.9848H16.2699V15.68C16.2699 17.7972 17.7052 19.628 19.7583 20.129C20.0107 20.1893 20.1651 20.4455 20.1049 20.6979C20.0446 20.9503 19.7884 21.1048 19.536 21.0445C17.061 20.438 15.3318 18.2304 15.3318 15.68V13.5139C15.3318 13.2539 15.5428 13.043 15.8027 13.043H26.1813C26.4413 13.043 26.6522 13.2539 26.6522 13.5139V15.68C26.6522 18.3396 24.7573 20.6226 22.1467 21.1085C22.1165 21.1123 22.0902 21.1161 22.06 21.1161L22.0563 21.1198Z" fill="#863399"/>
<g opacity="0.1">
<path d="M21.7811 20.2779H22.0222C24.4748 20.2779 26.464 18.2887 26.464 15.8361V13.9336H24.9269V15.0186C24.9269 16.4314 24.4672 17.8253 23.5367 18.8915C23.1034 19.3888 22.5308 19.8748 21.7848 20.2779H21.7811Z" fill="#863399"/>
</g>
<g opacity="0.1">
<path d="M21.6682 20.9805H21.9094C24.3619 20.9805 26.3511 22.9697 26.3511 25.4223V27.3248H24.814V26.2398C24.814 24.827 24.3544 23.4331 23.4239 22.3669C22.9906 21.8696 22.418 21.3836 21.672 20.9805H21.6682Z" fill="#863399"/>
</g>
<path d="M21.0543 19.2652C22.6404 19.2652 23.8648 16.8691 23.8648 15.2265V14.8008H18.1157V15.2265C18.1157 16.8729 19.4682 19.2652 21.0543 19.2652Z" fill="#F58520"/>
<g style="mix-blend-mode:darken" opacity="0.79">
<path d="M23.8645 14.8008V15.2265C23.8645 16.8692 22.64 19.2654 21.0539 19.2654C20.7864 19.2654 20.5302 19.1976 20.2815 19.0771C20.3644 19.0921 20.451 19.0997 20.5377 19.0997C22.1276 19.0997 23.3484 16.7072 23.3484 15.0607V14.8008H23.8645Z" fill="#E57920"/>
</g>
<path d="M20.8922 23.4102C18.952 23.4102 17.4601 25.1921 17.4601 26.4166V26.733H24.4826V26.4166C24.4826 25.1921 22.8325 23.4102 20.896 23.4102H20.8922Z" fill="#F58520"/>
<g style="mix-blend-mode:darken" opacity="0.79">
<path d="M24.4715 26.4173V26.7338H23.654V26.4286C23.654 25.2908 22.2109 23.6631 20.4364 23.4559C20.5796 23.4371 20.7303 23.4258 20.881 23.4258C22.8213 23.4258 24.4715 25.1966 24.4715 26.4173Z" fill="#E57920"/>
</g>
<path d="M20.99 20.933C21.1107 20.933 21.2086 20.7154 21.2086 20.447C21.2086 20.1786 21.1107 19.9609 20.99 19.9609C20.8693 19.9609 20.7715 20.1786 20.7715 20.447C20.7715 20.7154 20.8693 20.933 20.99 20.933Z" fill="#F58520"/>
<path d="M20.99 22.437C21.1107 22.437 21.2086 22.2193 21.2086 21.9509C21.2086 21.6825 21.1107 21.4648 20.99 21.4648C20.8693 21.4648 20.7715 21.6825 20.7715 21.9509C20.7715 22.2193 20.8693 22.437 20.99 22.437Z" fill="#F58520"/>
<g opacity="0.1">
<path d="M28.6226 11.8961C28.6226 12.8719 27.8314 13.6593 26.8593 13.6593H25.1488C25.8534 13.4257 26.3582 12.7664 26.3582 11.9865V11.8019C26.3582 11.022 25.8534 10.3626 25.1488 10.1328H26.8593C27.3454 10.1328 27.7862 10.3287 28.1064 10.649C28.4267 10.9692 28.6226 11.41 28.6226 11.8961Z" fill="#863399"/>
</g>
<g opacity="0.1">
<path d="M28.4573 29.5289C28.4573 30.5047 27.6661 31.2921 26.6941 31.2921H24.9836C25.6881 31.0585 26.193 30.3992 26.193 29.6193V29.4347C26.193 28.6548 25.6881 27.9955 24.9836 27.7656H26.6941C27.1801 27.7656 27.6209 27.9615 27.9412 28.2818C28.2614 28.602 28.4573 29.0429 28.4573 29.5289Z" fill="#863399"/>
</g>
</g>
<defs>
<clipPath id="clip0_384_10881">
<rect width="40" height="40" fill="white" transform="translate(0.990021)"/>
</clipPath>
</defs>
</svg>
