<svg width="64" height="64" viewBox="0 0 64 64" fill="none" xmlns="http://www.w3.org/2000/svg">
<g clip-path="url(#clip0_101_2751)">
<path d="M32 64.0003C49.6732 64.0003 64.0002 49.6734 64.0002 32.0002C64.0002 14.327 49.6732 0 32 0C14.3268 0 -0.000183105 14.327 -0.000183105 32.0002C-0.000183105 49.6734 14.3268 64.0003 32 64.0003Z" fill="#E6F7EE"/>
<path d="M40.4023 40.8301V44.2899H23.7964V40.8301C23.7964 36.87 26.3401 33.5006 30.0952 32.8014L33.9468 32.8677C37.4789 33.7357 40.4023 37.0267 40.4023 40.8301Z" fill="white"/>
<path d="M20.8913 20.5717C20.3789 20.0594 20.0655 19.3542 20.0655 18.5766C20.0655 17.0215 21.3252 15.7557 22.8803 15.7557H41.3125C42.0961 15.7557 42.7953 16.0692 43.3077 16.5815C43.82 17.0939 44.1334 17.7991 44.1334 18.5766C44.1334 20.1317 42.8737 21.3975 41.3125 21.3975H22.8803C22.1028 21.3975 21.3976 21.0841 20.8913 20.5717Z" fill="white"/>
<path d="M40.4023 24.8873C40.4023 28.8414 37.5633 32.1385 33.8082 32.8377L29.9506 32.7412C26.4184 31.8732 23.7964 28.6847 23.7964 24.8873V21.4215H40.4023V24.8873Z" fill="white"/>
<path d="M43.3079 45.146C43.8202 45.6523 44.1337 46.3635 44.1337 47.1411C44.1337 48.6962 42.8739 49.9559 41.3128 49.9559H22.8806C22.103 49.9559 21.3978 49.6425 20.8915 49.1302C20.3792 48.6239 20.0657 47.9186 20.0657 47.1411C20.0657 45.5799 21.3255 44.3202 22.8806 44.3202H41.3128C42.0964 44.3202 42.7956 44.6336 43.3079 45.146Z" fill="white"/>
<path d="M41.2168 50.9144H22.7846C20.8136 50.9144 19.2103 49.3111 19.2103 47.3401C19.2103 45.3691 20.8136 43.7657 22.7846 43.7657H41.2168C43.1878 43.7657 44.7911 45.3691 44.7911 47.3401C44.7911 49.3111 43.1878 50.9144 41.2168 50.9144ZM22.7846 45.2726C21.6454 45.2726 20.7171 46.2009 20.7171 47.3401C20.7171 48.4793 21.6454 49.4075 22.7846 49.4075H41.2168C42.356 49.4075 43.2842 48.4793 43.2842 47.3401C43.2842 46.2009 42.356 45.2726 41.2168 45.2726H22.7846Z" fill="#863399"/>
<path d="M40.3061 45.2485H23.7003C23.2844 45.2485 22.9468 44.911 22.9468 44.4951V41.0292C22.9468 36.6291 25.7918 33.0247 29.8604 32.2652C30.2703 32.1868 30.6621 32.4581 30.7404 32.8679C30.8188 33.2778 30.5476 33.6696 30.1377 33.748C26.7924 34.3688 24.4537 37.3645 24.4537 41.0292V43.7416H39.5527V41.0292C39.5527 37.7322 37.0211 34.622 33.6698 33.8022C33.266 33.7058 33.0188 33.2959 33.1153 32.8921C33.2117 32.4882 33.6216 32.2411 34.0254 32.3375C38.0338 33.32 41.0596 37.0571 41.0596 41.0292V44.4951C41.0596 44.911 40.722 45.2485 40.3061 45.2485Z" fill="#863399"/>
<path d="M41.2168 22.3499H22.7846C20.8136 22.3499 19.2103 20.7466 19.2103 18.7756C19.2103 16.8046 20.8136 15.2013 22.7846 15.2013H41.2168C43.1878 15.2013 44.7911 16.8046 44.7911 18.7756C44.7911 20.7466 43.1878 22.3499 41.2168 22.3499ZM22.7846 16.7082C21.6454 16.7082 20.7171 17.6364 20.7171 18.7756C20.7171 19.9148 21.6454 20.8431 22.7846 20.8431H41.2168C42.356 20.8431 43.2842 19.9148 43.2842 18.7756C43.2842 17.6364 42.356 16.7082 41.2168 16.7082H22.7846Z" fill="#863399"/>
<path d="M33.706 33.7903C33.3504 33.7903 33.0309 33.5372 32.9646 33.1755C32.8862 32.7657 33.1575 32.3739 33.5673 32.2955C37.0332 31.6506 39.5467 28.6187 39.5467 25.0866V22.3742H24.4477V25.0866C24.4477 28.4741 26.7442 31.4034 30.0292 32.2051C30.433 32.3015 30.6802 32.7114 30.5837 33.1153C30.4873 33.5191 30.0774 33.7662 29.6736 33.6698C25.7135 32.6994 22.9468 29.1672 22.9468 25.0866V21.6208C22.9468 21.2049 23.2844 20.8673 23.7003 20.8673H40.3061C40.722 20.8673 41.0596 21.2049 41.0596 21.6208V25.0866C41.0596 29.342 38.0277 32.9947 33.8506 33.7723C33.8024 33.7783 33.7602 33.7843 33.712 33.7843L33.706 33.7903Z" fill="#863399"/>
<g opacity="0.1">
<path d="M33.2656 32.4469H33.6514C37.5756 32.4469 40.7583 29.2641 40.7583 25.34V22.2959H38.2989V24.0319C38.2989 26.2924 37.5635 28.5227 36.0746 30.2286C35.3814 31.0243 34.4652 31.8019 33.2717 32.4469H33.2656Z" fill="#863399"/>
</g>
<g opacity="0.1">
<path d="M33.0851 33.5673H33.4709C37.3951 33.5673 40.5778 36.75 40.5778 40.6742V43.7182H38.1184V41.9822C38.1184 39.7217 37.383 37.4914 35.8941 35.7855C35.2009 34.9898 34.2847 34.2122 33.0912 33.5673H33.0851Z" fill="#863399"/>
</g>
<path d="M32.1028 30.8249C34.6405 30.8249 36.5996 26.9912 36.5996 24.363V23.6819H27.401V24.363C27.401 26.9972 29.565 30.8249 32.1028 30.8249Z" fill="#F58520"/>
<g style="mix-blend-mode:darken" opacity="0.79">
<path d="M36.5992 23.6819V24.3631C36.5992 26.9914 34.64 30.8254 32.1021 30.8254C31.6741 30.8254 31.2642 30.7169 30.8663 30.524C30.999 30.5481 31.1376 30.5601 31.2763 30.5601C33.8202 30.5601 35.7733 26.7322 35.7733 24.0978V23.6819H36.5992Z" fill="#E57920"/>
</g>
<path d="M31.8435 37.4551C28.7392 37.4551 26.3521 40.3063 26.3521 42.2653V42.7717H37.5881V42.2653C37.5881 40.3063 34.9479 37.4551 31.8496 37.4551H31.8435Z" fill="#F58520"/>
<g style="mix-blend-mode:darken" opacity="0.79">
<path d="M37.5705 42.2658V42.7722H36.2623V42.2839C36.2623 40.4634 33.9535 37.8591 31.1142 37.5276C31.3433 37.4975 31.5844 37.4794 31.8255 37.4794C34.9301 37.4794 37.5705 40.3127 37.5705 42.2658Z" fill="#E57920"/>
</g>
<path d="M32 33.4953C32.1931 33.4953 32.3497 33.1471 32.3497 32.7176C32.3497 32.2881 32.1931 31.9399 32 31.9399C31.8069 31.9399 31.6503 32.2881 31.6503 32.7176C31.6503 33.1471 31.8069 33.4953 32 33.4953Z" fill="#F58520"/>
<path d="M32 35.9002C32.1931 35.9002 32.3497 35.5521 32.3497 35.1225C32.3497 34.693 32.1931 34.3448 32 34.3448C31.8069 34.3448 31.6503 34.693 31.6503 35.1225C31.6503 35.5521 31.8069 35.9002 32 35.9002Z" fill="#F58520"/>
<g opacity="0.1">
<path d="M44.2122 19.0351C44.2122 20.5964 42.9462 21.8563 41.3909 21.8563H38.6541C39.7814 21.4826 40.5892 20.4276 40.5892 19.1798V18.8844C40.5892 17.6365 39.7814 16.5816 38.6541 16.2139H41.3909C42.1686 16.2139 42.8739 16.5273 43.3863 17.0397C43.8987 17.5521 44.2122 18.2574 44.2122 19.0351Z" fill="#863399"/>
</g>
<g opacity="0.1">
<path d="M43.9478 47.244C43.9478 48.8053 42.6818 50.0652 41.1265 50.0652H38.3897C39.517 49.6914 40.3248 48.6365 40.3248 47.3886V47.0933C40.3248 45.8454 39.517 44.7905 38.3897 44.4227H41.1265C41.9042 44.4227 42.6095 44.7362 43.1219 45.2486C43.6343 45.761 43.9478 46.4663 43.9478 47.244Z" fill="#863399"/>
</g>
</g>
<defs>
<clipPath id="clip0_101_2751">
<rect width="64.0003" height="64.0003" fill="white"/>
</clipPath>
</defs>
</svg>
