<svg width="432" height="452" viewBox="0 0 432 452" fill="none" xmlns="http://www.w3.org/2000/svg">
<path d="M411.986 389.522C412.466 403.269 392.574 412.763 380.428 416.281C362.977 421.335 344.796 424.322 326.811 426.677C292.426 431.174 257.675 432.192 223.087 429.715C191.617 427.457 158.99 423.229 131.247 407.082C126.237 404.166 121.337 400.546 118.744 395.346C111.139 380.073 130.812 369.888 142.355 366.135C158.319 360.949 174.613 356.839 191.127 353.833C226.597 347.375 262.951 345.703 298.873 348.53C330.047 350.982 370.074 354.61 397.67 370.564C401.525 372.793 405.195 375.498 407.857 379.069C410.622 382.783 411.877 386.272 411.986 389.522Z" fill="#E6D1D1"/>
<path d="M310.377 398.765C310.377 398.765 307.247 400.886 311.023 405.129C314.8 409.372 336.236 416.91 341.35 417.974C355.466 420.908 357.26 414.221 357.26 414.221L310.377 398.765Z" fill="#4A2521"/>
<path d="M137.503 331.419C139.323 339.591 141.145 347.769 142.967 355.953C144.602 363.29 146.005 370.679 147.677 378.007C148.426 381.296 149.229 384.635 150.577 387.736C151.031 388.779 151.587 390.083 152.546 390.777C153.277 391.298 154.111 391.017 154.505 390.232C154.675 389.856 154.775 389.453 154.8 389.042C155.045 386.658 154.578 384.202 154.195 381.854C153.811 379.507 153.412 377.089 153.039 374.708C151.814 367.115 150.586 359.525 149.357 351.937C148.366 345.797 147.373 339.658 146.378 333.518C146.355 333.367 145.93 330.569 145.901 330.571L137.503 331.419Z" fill="#4A2521"/>
<path d="M210.641 311.649C213.249 319.609 215.863 327.569 218.483 335.529C220.83 342.673 222.951 349.874 225.332 357.017C226.401 360.218 227.525 363.462 229.174 366.407C229.727 367.4 230.407 368.655 231.43 369.242C232.212 369.688 233.01 369.328 233.326 368.506C233.458 368.116 233.518 367.705 233.503 367.293C233.503 364.896 232.807 362.497 232.199 360.199L230.353 353.204C228.39 345.771 226.425 338.338 224.458 330.905C222.867 324.893 221.277 318.88 219.688 312.867C219.649 312.719 218.95 309.975 218.924 309.98L210.641 311.649Z" fill="#4A2521"/>
<path d="M73.688 311.68L70.0106 336.543C68.9126 343.982 67.5799 351.381 66.5158 358.825C66.0411 362.163 65.5925 365.569 65.7333 368.947C65.7855 370.081 65.8324 371.508 66.4845 372.491C66.98 373.239 67.8589 373.273 68.5083 372.684C68.8015 372.394 69.0392 372.053 69.2099 371.677C70.2923 369.539 70.7331 367.077 71.2182 364.75C71.7033 362.424 72.204 360.024 72.6943 357.661L77.4046 335.083L81.215 316.826C81.2463 316.678 81.8514 313.91 81.8253 313.903L73.688 311.68Z" fill="#1E1E1E"/>
<path d="M131.46 292.999L127.782 317.864C126.684 325.3 125.351 332.702 124.287 340.143C123.813 343.481 123.364 346.887 123.505 350.268C123.557 351.402 123.604 352.829 124.256 353.812C124.751 354.558 125.63 354.594 126.28 354.002C126.574 353.713 126.811 353.371 126.981 352.996C128.064 350.857 128.505 348.398 128.987 346.068L130.466 338.98L135.176 316.401L138.987 298.145C139.018 297.996 139.623 295.229 139.594 295.224L131.46 292.999Z" fill="#A65953"/>
<path d="M359.066 409.07C359.088 409.794 359.009 410.517 358.832 411.219C358.747 411.589 358.633 411.952 358.49 412.304C358.082 413.397 357.327 414.326 356.341 414.949C356.341 414.949 356.32 414.949 356.31 414.972C356.279 414.989 356.25 415.007 356.221 415.027C355.9 415.204 355.566 415.381 355.235 415.548C355.214 415.548 355.201 415.572 355.18 415.572C353.658 416.277 352.033 416.733 350.366 416.92C345.982 417.442 341.532 416.399 337.414 414.951C334.973 414.084 332.582 413.083 330.252 411.952C329.952 411.808 329.655 411.662 329.365 411.519C321.28 407.547 315.84 406.303 311.891 402.299C307.942 398.296 306.855 390.852 304.552 386.502C301.717 381.134 296.062 374.181 296.062 374.181L316.085 368.149C316.085 368.149 324.465 382.131 325.959 383.923C331.473 390.565 339.261 394.295 346.681 398.267C349.338 399.696 350.225 399.871 352.825 401.397C354.575 402.44 356.411 403.522 357.739 405.106C358.161 405.624 358.48 406.218 358.68 406.856C358.837 407.296 358.941 407.753 358.991 408.217C359.032 408.5 359.058 408.784 359.066 409.07V409.07Z" fill="#FFB687"/>
<path d="M356.221 415.016C355.9 415.194 355.567 415.371 355.235 415.538C355.214 415.538 355.201 415.561 355.181 415.561C353.355 413.978 350.974 412.938 348.694 412.051C348.04 411.79 348.329 410.723 348.992 410.976C351.581 411.983 354.236 413.191 356.221 415.016Z" fill="#422625"/>
<path d="M358.834 411.221C358.749 411.592 358.635 411.955 358.492 412.306C358.315 412.184 358.127 412.074 357.939 411.962C356.742 411.255 355.138 410.225 353.732 410.28C353.023 410.301 353.023 409.195 353.732 409.174C355.271 409.117 356.776 410.048 358.093 410.778C358.349 410.922 358.591 411.065 358.834 411.221Z" fill="#422625"/>
<path d="M359.002 408.235C357.734 407.632 356.427 407.114 355.089 406.686C354.414 406.465 354.701 405.382 355.376 405.622C356.495 406 357.612 406.405 358.686 406.874C358.844 407.314 358.95 407.771 359.002 408.235V408.235Z" fill="#422625"/>
<path d="M73.7386 128.751C71.1461 129.24 68.578 129.822 66.0343 130.499C63.1175 131.258 60.2732 132.273 57.5345 133.532C47.0029 138.446 38.2997 148.119 34.4449 159.078C31.6334 167.069 30.4832 175.619 29.8103 184.027C28.6237 198.784 29.0775 213.635 29.6747 228.407C30.7832 255.792 52.8477 307.213 64.0599 314.996C97.1072 337.965 130.186 342.668 157.592 343.5C184.998 344.332 230.585 332.152 241.932 320.254C253.28 308.356 247.743 288.435 241.932 283.448C236.122 278.461 162.97 218.149 162.97 218.149L142.608 150.208C142.608 150.208 136.14 137.809 123.903 131.667C116.144 127.773 107.307 126.826 98.7399 126.693C90.358 126.534 81.9815 127.223 73.7386 128.751Z" fill="#FFAC45"/>
<path d="M82.4514 287.464C82.3312 287.464 82.2143 287.425 82.1184 287.352C82.0225 287.28 81.9527 287.178 81.9197 287.063C81.8867 286.947 81.8922 286.824 81.9354 286.712C81.9787 286.6 82.0572 286.505 82.1592 286.441C82.2662 286.376 92.8681 279.869 102.797 277.295C112.726 274.721 123.271 273.865 123.375 273.855C123.523 273.846 123.668 273.896 123.779 273.994C123.891 274.091 123.959 274.229 123.97 274.376C123.976 274.449 123.968 274.522 123.945 274.591C123.923 274.66 123.888 274.724 123.841 274.78C123.794 274.835 123.736 274.881 123.671 274.914C123.607 274.948 123.536 274.968 123.464 274.974C123.359 274.974 112.872 275.84 103.074 278.38C93.275 280.92 82.8478 287.331 82.7304 287.396C82.645 287.443 82.5487 287.466 82.4514 287.464V287.464Z" fill="#422625"/>
<path d="M183.888 339.731C173.894 339.731 162.909 338.901 152.505 335.258C136.408 329.617 119.408 319.87 101.978 306.308C79.0477 288.458 65.3682 264.563 65.2326 264.318C65.1611 264.189 65.1431 264.038 65.1827 263.896C65.2222 263.754 65.3161 263.634 65.4438 263.561C65.5712 263.49 65.7217 263.472 65.8624 263.511C66.0032 263.55 66.1227 263.643 66.195 263.77C66.3306 264.01 79.9084 287.717 102.656 305.426C119.992 318.921 136.888 328.602 152.87 334.202C165.347 338.573 178.719 338.836 190.166 338.518C190.315 338.515 190.459 338.572 190.566 338.675C190.674 338.779 190.736 338.921 190.738 339.07C190.741 339.219 190.685 339.363 190.581 339.47C190.478 339.578 190.336 339.639 190.187 339.642C188.15 339.692 186.042 339.731 183.888 339.731Z" fill="#422625"/>
<path d="M74.91 314.223C74.211 303.413 77.1791 292.777 75.0352 282.008C73.992 276.815 72.2941 271.79 71.0292 266.654C69.6581 261.218 69.1954 255.592 69.6599 250.004C70.5988 238.813 71.9707 227.984 71.2039 216.712C70.7212 209.787 69.7116 202.91 68.1837 196.139C68.7732 186.573 68.6375 176.962 68.1837 167.377C67.6073 155.437 67.0049 140.673 55.2814 133.993C54.4703 133.537 50.3965 136.862 49.8044 137.266C45.9896 139.878 42.3528 142.741 38.9182 145.837C35.3164 149.081 31.8007 152.641 29.2969 156.814C26.0811 162.174 24.5032 168.811 23.254 174.888C18.0247 200.312 19.4696 227.233 21.2431 252.936C22.4011 269.714 22.1064 286.648 22.3724 303.457C22.4454 308.22 22.5202 312.981 22.5967 317.742C22.6202 319.283 22.4272 319.828 23.2853 320.934C24.2137 322.126 25.583 323.125 26.8766 323.881C31.7199 326.716 37.6585 326.974 43.219 326.805C44.0234 331.381 46.5722 335.466 50.3287 338.2C53.5784 340.521 57.4983 341.611 61.3114 342.605C65.9016 343.799 70.5441 344.759 75.223 345.531C75.3647 345.567 75.5146 345.546 75.6415 345.474C75.7684 345.401 75.8623 345.283 75.9037 345.142C78.5301 334.856 75.5699 324.554 74.91 314.223Z" fill="#E68215"/>
<path d="M324.398 369.523C324.398 369.523 314.016 377.24 298.385 380.315C281.506 383.635 274.972 382.642 274.972 382.642C274.972 382.642 233.37 313.874 227.283 306.125C223.055 300.745 204.705 294.592 194.069 290.586C189.374 288.805 184.881 287.456 181.328 286.778C169.704 284.564 153.654 283.127 153.654 283.127L149.137 276.883L139.773 263.931L161.624 252.818L184.017 241.437L188.451 239.181C188.451 239.181 190.188 239.723 193.088 240.685C194.627 241.194 196.497 241.825 198.602 242.545C211.332 246.911 223.64 252.933 235.592 259.049C266.924 275.055 285.65 306.751 303.925 335.628C310.98 346.778 317.878 358.05 324.398 369.523Z" fill="#8D9AC8"/>
<path d="M203.376 269.531C201.861 273.837 197.477 283.746 194.068 290.587C189.374 288.805 184.88 287.457 181.328 286.779C169.703 284.564 153.653 283.127 153.653 283.127L149.136 276.884C152.735 269.865 157.86 259.947 161.623 252.819C164.357 247.681 166.383 243.985 166.66 243.883C167.158 243.685 175.903 242.318 184.016 241.437C187.347 241.061 190.568 240.774 193.072 240.686H193.093C195.628 240.587 197.409 240.686 197.787 241.116C198.122 241.553 198.394 242.034 198.596 242.545C200.909 247.602 205.479 263.543 203.376 269.531Z" fill="#4A2521"/>
<path d="M238.025 325.832C237.836 326.179 237.588 326.49 237.292 326.75C237.055 326.986 236.792 327.194 236.509 327.371C235.859 327.799 235.17 328.165 234.452 328.466C234.111 328.617 233.763 328.75 233.408 328.865C232.47 329.185 231.496 329.388 230.508 329.471C230.101 329.523 229.69 329.548 229.28 329.546C221.098 329.624 212.619 322.896 207.416 318.024C200.841 311.868 196.003 309.091 193.403 304.109C190.802 299.128 191.799 295.166 191.055 290.307C190.312 285.448 188.447 273.214 188.447 273.214L209.356 273.282C209.356 273.282 211.98 288.257 212.888 290.406C216.231 298.364 221.899 304.43 227.843 310.408C230.928 313.488 240.625 321.192 238.025 325.832Z" fill="#FFB687"/>
<path d="M197.149 288.81C197.092 288.106 195.986 288.101 196.043 288.81C196.178 290.495 196.404 292.172 196.719 293.833C196.852 294.532 197.918 294.235 197.785 293.538C197.49 291.975 197.277 290.396 197.149 288.81V288.81Z" fill="#422625"/>
<path d="M97.1064 254.584C97.1064 254.584 104.485 274.7 115.186 283.365C125.887 292.029 145.5 288.161 151.652 284.473C157.805 280.785 165.736 271.597 165.736 271.597L147.414 207.354L115.186 230.97L97.1064 254.584Z" fill="#8D9AC8"/>
<path d="M53.3809 256.613C53.3809 256.613 57.2565 256.798 67.7724 253.108C78.2882 249.417 73.771 233.837 73.771 233.837C73.771 233.837 65.8789 232.462 64.0584 233.837C62.238 235.211 53.3809 256.613 53.3809 256.613Z" fill="#4A2521"/>
<path d="M131.792 139.971C131.792 139.971 141.199 143.429 147.98 148.826C154.761 154.222 172.191 177.64 172.191 177.64C172.191 177.64 144.285 211.237 143.716 210.823C143.148 210.408 128.884 165.703 128.746 164.599C128.607 163.496 131.792 139.971 131.792 139.971Z" fill="#FCE7D8"/>
<path d="M138.07 145.92C138.031 145.211 136.925 145.206 136.964 145.92C137.522 156.005 137.696 166.09 137.486 176.174C137.47 176.886 138.576 176.886 138.591 176.174C138.802 166.084 138.628 156 138.07 145.92Z" fill="#422625"/>
<path d="M114.93 132.819H107.23C107.143 132.819 107.057 132.797 106.979 132.757C106.902 132.716 106.835 132.658 106.784 132.587C106.733 132.516 106.7 132.433 106.687 132.347C106.674 132.26 106.681 132.172 106.709 132.089L110.608 120.496C110.646 120.388 110.717 120.295 110.81 120.228C110.903 120.162 111.015 120.127 111.13 120.127C111.244 120.127 111.356 120.162 111.449 120.228C111.543 120.295 111.613 120.388 111.651 120.496L115.451 132.087C115.478 132.169 115.485 132.257 115.472 132.344C115.459 132.43 115.425 132.512 115.375 132.582C115.324 132.653 115.257 132.711 115.18 132.751C115.102 132.792 115.017 132.813 114.93 132.814V132.819ZM108.002 131.711H114.165L111.124 122.429L108.002 131.711Z" fill="#FEEDDB"/>
<path d="M118.105 103.132C117.979 101.71 117.387 100.844 116.733 99.6447C115.969 98.2494 115.817 96.6402 115.011 95.284C114.054 93.6695 112.466 92.7593 110.768 92.1229C109.82 91.1494 108.636 90.4385 107.331 90.0599C106.081 89.7026 104.913 89.6374 103.716 88.9854C103.147 88.675 102.699 88.2369 102.086 87.9865C100.401 87.3032 98.21 85.7487 96.6087 86.4399C93.0955 85.6209 89.0791 86.1634 86.5727 89.3401C85.6103 90.5607 83.6229 91.1397 82.3997 92.2325C81.8025 92.7494 81.3162 93.382 80.9701 94.092C80.6241 94.802 80.4254 95.5748 80.3863 96.3637C76.555 97.7851 76.3541 106.014 77.8016 109.42C78.425 110.886 79.3665 112.289 79.4421 113.932C79.4943 115.33 78.8553 116.668 79.0979 118.079C79.3248 119.383 80.1411 120.606 80.6445 121.819C81.3227 123.517 81.8235 125.281 82.1389 127.082C82.2693 127.781 83.336 127.484 83.2056 126.787C82.9988 125.679 82.7209 124.586 82.3736 123.514C84.4601 122.752 85.7224 121.79 86.6718 119.683C88.4166 115.815 90.7822 113.546 94.9134 112.276C98.8725 111.058 102.446 111.086 106.259 112.701C108.027 113.449 110.919 115.348 112.92 114.787C116.399 113.817 118.368 106.115 118.105 103.132Z" fill="#4A2521"/>
<path d="M108.522 161.313C107.14 169.062 107.14 177.551 105.854 177.64C104.568 177.729 73.3778 158.079 73.0101 156.141C72.8223 155.158 73.9307 153.21 75.313 151.447C76.6171 149.741 78.1819 148.213 79.1 147.848C80.1171 147.449 85.7846 144.838 90.6904 142.579C94.7069 140.72 98.1939 139.092 98.1939 139.092C98.2487 138.925 99.6231 138.594 101.063 138.539C102.127 138.495 103.233 138.618 103.82 139.092C104.229 139.424 104.938 140.842 105.703 142.879C107.471 147.663 109.497 155.878 108.522 161.313Z" fill="#FFB687"/>
<path d="M103.264 132.997L102.899 133.926L101.06 138.532L98.4519 145.073L97.0774 148.495C97.0774 148.495 81.215 153.565 80.6464 153.476C80.3386 153.419 77.5923 152.347 75.2894 151.439C73.5524 150.753 72.0684 150.153 72.0684 150.153C72.0684 150.153 77.6027 142.916 79.2641 138.255C82.133 130.23 83.471 119.438 83.471 119.438L103.264 132.997Z" fill="#FFB687"/>
<path d="M105.701 142.872C103.477 144.135 101 144.887 98.45 145.073C96.3349 145.216 94.178 144.885 92.3158 143.81C91.7264 143.464 91.1809 143.048 90.6909 142.572C86.4293 138.566 84.5254 130.173 84.5254 130.173C84.5254 130.173 95.1612 132.322 102.899 133.926L101.061 138.532C102.125 138.487 103.231 138.61 103.818 139.085C104.227 139.416 104.936 140.835 105.701 142.872Z" fill="#422625"/>
<path d="M75.4308 145.422C75.4308 145.422 80.8478 153.854 87.6888 159.941C94.5299 166.029 104.365 171.01 104.365 171.01C104.365 171.01 104.495 158.833 103.666 149.793C102.837 140.754 102.101 137.157 102.101 137.157C102.101 137.157 115.061 136.896 121.096 137.64C128.198 138.524 131.789 139.971 131.789 139.971C131.789 139.971 139.676 164.047 139.814 164.461C139.953 164.876 147.425 195.318 147.425 195.318L153.65 205.695L96.6451 244.707L50.9824 173.316C50.9824 173.316 60.8541 161.971 64.4507 157.636C68.0472 153.301 75.4308 145.422 75.4308 145.422Z" fill="#FCE7D8"/>
<path d="M83.4342 126.996C83.4342 126.996 86.3031 139.173 95.8879 140.464C105.473 141.755 110.991 128.112 113.047 121.646C116.176 111.777 114.924 111.613 114.729 109.493C114.244 104.235 104.466 96.833 95.8879 98.7708C87.3099 100.709 83.9871 114.451 83.4342 119.985C82.8813 125.519 83.4342 126.996 83.4342 126.996Z" fill="#FFB687"/>
<path d="M96.0632 118.827C96.1232 118.79 96.1871 118.759 96.2536 118.736C97.2969 118.37 97.5786 119.596 97.3621 120.316C97.217 120.798 97.0339 121.267 96.8144 121.719C96.5927 122.17 96.251 122.658 95.7477 122.674C95.5417 122.664 95.3441 122.589 95.1831 122.46C95.022 122.332 94.9056 122.155 94.8505 121.957C94.7482 121.557 94.7682 121.135 94.9079 120.746C95.1061 120.066 95.4321 119.221 96.0632 118.827Z" fill="#422625"/>
<path d="M107.918 118.827C107.978 118.79 108.042 118.759 108.108 118.736C109.151 118.371 109.433 119.597 109.217 120.316C109.072 120.798 108.888 121.267 108.669 121.72C108.447 122.171 108.106 122.659 107.602 122.674C107.396 122.664 107.199 122.589 107.038 122.461C106.876 122.332 106.76 122.156 106.705 121.957C106.603 121.557 106.623 121.135 106.762 120.747C106.961 120.066 107.287 119.221 107.918 118.827Z" fill="#422625"/>
<path d="M104.261 124.557C104.181 123.936 104.097 123.316 104.016 122.698C103.922 122.001 102.817 121.991 102.908 122.698C102.999 123.404 103.103 124.163 103.2 124.896C103.239 125.188 103.37 125.574 103.239 125.822C103.085 126.119 102.637 126.331 102.363 126.49C101.75 126.85 102.305 127.794 102.924 127.447C103.489 127.113 104.321 126.607 104.423 125.898C104.483 125.48 104.319 124.977 104.261 124.557Z" fill="#422625"/>
<path d="M103.538 129.079C101.77 130.211 98.815 129.964 97.7848 127.95C97.4588 127.316 96.5042 127.877 96.8276 128.511C98.1317 131.046 101.838 131.481 104.099 130.034C104.696 129.651 104.141 128.693 103.538 129.079Z" fill="#422625"/>
<path d="M100.01 114.712L99.8851 114.584C98.954 113.728 97.5195 113.726 96.2859 113.997C95.6396 114.118 95.0231 114.363 94.4706 114.719C93.9151 115.111 93.3961 115.763 94.4211 115.906C94.7011 115.93 94.9829 115.921 95.2609 115.88C96.2656 115.785 97.2791 115.857 98.2602 116.094C98.6298 116.214 99.0166 116.273 99.4052 116.269C99.5994 116.264 99.7879 116.202 99.947 116.091C100.106 115.979 100.229 115.823 100.3 115.643C100.331 115.476 100.321 115.303 100.27 115.141C100.22 114.979 100.131 114.831 100.01 114.712V114.712Z" fill="#422625"/>
<path d="M107.174 115.374C107.559 115.009 108.064 114.798 108.595 114.779C109.401 114.789 110.182 115.064 110.817 115.562C111.237 115.827 111.571 116.208 111.777 116.66C111.81 116.729 111.828 116.803 111.832 116.879C111.836 116.956 111.824 117.032 111.798 117.103C111.754 117.179 111.69 117.242 111.614 117.284C111.537 117.327 111.45 117.347 111.362 117.343C111.188 117.332 111.016 117.293 110.854 117.228C110.045 116.969 109.193 116.872 108.347 116.942C107.983 117.006 107.609 116.996 107.249 116.91C106.587 116.683 106.644 116.073 106.988 115.606C107.042 115.523 107.104 115.445 107.174 115.374V115.374Z" fill="#422625"/>
<path d="M108.639 98.3538C103.697 95.6492 98.919 96.2934 93.7445 98.2729C89.6342 99.8378 86.3532 102.928 84.7596 107.065C83.659 109.934 83.8833 112.967 83.1087 115.893C82.4619 118.342 81.0561 120.353 81.5047 122.951C81.4239 123.178 82.1932 127.22 82.1932 127.22C82.1932 127.22 85.3647 117.111 86.1054 112.192C89.0134 112.062 92.2762 107.662 94.0392 105.826C96.6473 103.095 100.254 102.248 103.181 103.267C104.208 103.625 105.789 103.789 106.868 103.959C107.476 104.055 112.126 106.512 112.51 106.517C114.476 107.453 114.779 110.041 114.779 110.041C114.779 110.041 115.35 108.499 115.561 107.972C117.09 104.019 111.66 100.007 108.639 98.3538Z" fill="#422625"/>
<path d="M90.532 113.864C90.532 113.83 90.532 113.796 90.532 113.762C90.4459 112.258 90.0443 109.931 88.4586 108.844C87.9571 108.524 87.3891 108.324 86.7981 108.258C86.2072 108.193 85.6091 108.264 85.0498 108.465C81.2315 109.887 82.0035 115.486 83.2789 118.407C83.6831 119.333 84.3221 120.319 85.4045 120.71C85.8411 120.856 86.3047 120.903 86.7617 120.848C87.2186 120.792 87.6575 120.636 88.0465 120.39C88.7126 119.926 89.2371 119.287 89.5618 118.543C90.2689 117.088 90.6023 115.48 90.532 113.864Z" fill="#FFB687"/>
<path d="M114.963 84.2465C115.341 81.8992 115.049 79.3667 113.351 77.575C111.611 75.7493 109.022 75.2877 106.599 75.1155C106.583 75.022 106.537 74.9362 106.467 74.8712C106.398 74.8062 106.31 74.7656 106.215 74.7556C103.672 74.3279 100.908 74.0332 98.5917 75.4311C97.6163 76.0206 97.0269 76.8004 96.4192 77.7341C95.728 78.8112 94.9508 79.6536 94.2675 80.6969C92.3949 83.5658 93.6103 86.779 96.1636 88.2604C96.6852 89.6322 97.9606 90.772 99.4315 91.4136C102.274 92.6472 105.691 93.341 108.406 91.6744C110.27 91.893 112.144 91.3672 113.622 90.2112C115.484 88.7011 116.048 86.2626 114.963 84.2465Z" fill="#4A2521"/>
<path d="M107.684 90.1249C106.924 89.2613 105.987 88.5704 104.938 88.0984C104.313 87.8251 103.654 87.6365 102.979 87.5377C102.403 87.4516 101.373 87.6733 100.893 87.3916C100.082 86.9118 99.7296 85.892 98.7489 85.4825C97.7683 85.073 96.9233 85.1982 96 85.6103C95.3506 85.8998 95.9139 86.8544 96.5581 86.5675L99.1088 87.0343L99.7478 87.8481C99.8469 87.9602 99.8965 88.1454 100.009 88.2393C100.25 88.4447 100.549 88.5705 100.864 88.5992C101.808 88.7896 102.752 88.547 103.733 88.8418C104.952 89.2278 106.042 89.9425 106.881 90.9074C107.384 91.4342 108.164 90.6492 107.684 90.1249Z" fill="#7D4E4C"/>
<path d="M111.661 77.4861C111.194 76.9437 110.414 77.7313 110.878 78.2686C111.825 79.3718 112.881 80.3863 112.057 81.9199C111.705 82.5798 111.014 83.0701 110.578 83.6804C110.29 84.0933 110.062 84.5457 109.903 85.0236C109.42 86.3406 109.266 87.0918 107.949 87.7725C107.318 88.1011 107.876 89.0557 108.507 88.7271C109.405 88.2654 110.615 87.5378 110.917 86.4867C111.178 85.5426 111.04 84.9218 111.7 84.0507C112.073 83.5578 112.553 83.1562 112.915 82.6528C114.381 80.5872 113.077 79.1397 111.661 77.4861Z" fill="#7D4E4C"/>
<path d="M109.597 78.2245C109.182 77.6533 108.222 78.2062 108.642 78.7826C108.983 79.2292 109.218 79.7474 109.33 80.2981C109.442 80.8489 109.427 81.4178 109.286 81.9619C109.112 82.653 110.181 82.9504 110.353 82.2566C110.534 81.5705 110.56 80.8527 110.43 80.1552C110.299 79.4578 110.014 78.7982 109.597 78.2245V78.2245Z" fill="#7D4E4C"/>
<path d="M98.3499 94.4518C97.7657 93.9823 97.111 93.6381 96.5242 93.1842C95.4053 92.321 95.3897 91.8567 94.7585 90.8813C94.0781 89.8619 93.1039 89.0734 91.9653 88.6201C91.3184 88.341 90.7525 89.2956 91.4071 89.5772C92.7399 90.1536 93.5718 91.0352 94.2473 92.3053C94.5015 92.8741 94.8878 93.3739 95.374 93.7632C97.8387 95.6985 100.382 97.0364 100.676 100.563C100.736 101.267 101.845 101.272 101.785 100.563C101.568 98.0327 100.311 96.0453 98.3499 94.4518Z" fill="#7D4E4C"/>
<path d="M103.613 96.5667C103.188 96.006 102.225 96.5667 102.658 97.1249C103.376 98.069 104.223 99.1514 104.041 100.416C103.939 101.113 105.006 101.415 105.11 100.711C105.35 99.0992 104.562 97.8238 103.613 96.5667Z" fill="#7D4E4C"/>
<path d="M91.6012 103.609C88.3959 101.481 87.9264 97.6523 88.315 94.1079C88.3907 93.4011 87.2848 93.4063 87.2066 94.1079C86.771 98.0879 87.5039 102.217 91.0405 104.564C91.6351 104.971 92.1881 104.011 91.6012 103.609Z" fill="#7D4E4C"/>
<path d="M89.4711 129.487H81.7746C81.6872 129.486 81.6012 129.465 81.5236 129.425C81.446 129.385 81.379 129.327 81.3281 129.256C81.2773 129.185 81.2439 129.103 81.2308 129.016C81.2178 128.93 81.2253 128.842 81.253 128.759L85.1495 117.171C85.186 117.062 85.2559 116.966 85.3495 116.898C85.443 116.83 85.5555 116.794 85.6711 116.793C85.7859 116.798 85.8968 116.837 85.9896 116.904C86.0824 116.972 86.1531 117.066 86.1927 117.174L89.9901 128.767C90.0172 128.849 90.0244 128.937 90.0111 129.023C89.9978 129.109 89.9643 129.191 89.9135 129.262C89.8627 129.332 89.7959 129.39 89.7185 129.43C89.6412 129.47 89.5555 129.491 89.4685 129.492L89.4711 129.487ZM82.544 128.386H88.7069L85.6685 119.104L82.544 128.386Z" fill="#FEEDDB"/>
<path d="M150.383 189.961L131.36 197.443C130.418 197.814 129.641 196.982 129.771 195.978L134.08 162.127C134.222 161.007 134.662 159.946 135.352 159.053C136.043 158.16 136.96 157.468 138.008 157.049L154.478 152.673C155.419 152.302 156.129 153.325 155.998 154.329L151.215 188.894C151.184 189.13 151.091 189.353 150.945 189.541C150.798 189.729 150.604 189.874 150.383 189.961V189.961Z" fill="#C9AFAF"/>
<path d="M130.242 197.962L132.316 198.604L157.192 154.123L154.985 153.197L134.233 178.722L130.242 197.962Z" fill="#445863"/>
<path d="M152.387 191.153L133.364 198.638C133.148 198.722 132.915 198.749 132.686 198.716C132.458 198.683 132.242 198.59 132.06 198.448C131.878 198.306 131.736 198.119 131.648 197.905C131.56 197.691 131.529 197.459 131.559 197.229L135.896 163.856C136.235 161.269 136.963 159.104 140.379 158.118L156.197 154.11C156.413 154.025 156.646 153.998 156.875 154.032C157.104 154.065 157.32 154.158 157.503 154.3C157.685 154.442 157.827 154.63 157.914 154.844C158.002 155.058 158.032 155.291 158.002 155.521L153.219 190.088C153.189 190.324 153.096 190.548 152.949 190.735C152.803 190.922 152.609 191.066 152.387 191.153Z" fill="#4A2521"/>
<path d="M140.111 166.138C140.028 166.139 139.945 166.132 139.863 166.12C138.729 165.937 138.038 164.584 138.283 163.04C138.528 161.496 139.626 160.432 140.75 160.614C141.052 160.675 141.334 160.81 141.57 161.007C141.806 161.204 141.99 161.457 142.104 161.743C142.367 162.357 142.445 163.034 142.328 163.692V163.692C142.233 164.352 141.946 164.971 141.504 165.47C141.33 165.672 141.117 165.835 140.877 165.95C140.638 166.065 140.377 166.129 140.111 166.138V166.138ZM140.502 161.704C140.072 161.704 139.527 162.294 139.376 163.22C139.219 164.198 139.6 164.959 140.038 165.03C140.164 165.036 140.29 165.011 140.404 164.957C140.518 164.902 140.618 164.821 140.693 164.719C140.985 164.38 141.174 163.963 141.235 163.52V163.52C141.315 163.081 141.268 162.628 141.099 162.215C141.021 162.049 140.852 161.762 140.578 161.717C140.549 161.708 140.519 161.703 140.489 161.702L140.502 161.704Z" fill="#C9AFAF"/>
<path d="M157.194 182.616C157.194 182.78 157.194 183.002 157.194 183.268C157.194 183.79 157.16 184.52 157.126 185.326C157.072 186.335 156.983 187.496 156.865 188.625C156.777 189.368 156.688 190.109 156.576 190.785C156.477 191.401 156.34 192.011 156.167 192.61C155.337 195.299 149.98 198.421 144.787 202.573C142.493 204.445 140.35 206.495 138.379 208.705C136.408 210.875 135.135 212.534 135.135 212.534L127.509 203.703L121.964 197.271C121.964 197.271 122.029 196.196 122.173 194.603C122.517 190.673 123.325 183.578 124.752 181.463C126.768 178.495 132.576 174.531 132.576 174.531L131.546 182.812C131.546 182.812 138.546 184.199 146.058 181.941C150.022 180.754 155.551 173.245 155.551 173.245C155.551 173.245 156.208 173.91 157.072 176.555C157.105 176.677 157.15 176.816 157.194 176.954C157.344 177.422 157.451 177.903 157.515 178.391C157.804 180.402 157.184 181.463 157.194 182.616Z" fill="#FFB687"/>
<path d="M89.359 225.989L99.6871 244.707C99.6871 244.707 100.978 254.576 99.6871 259.005C98.3961 263.433 87.8567 267.26 79.0257 259.928C73.3896 255.249 63.7109 242.402 63.7109 242.402L89.359 225.989Z" fill="#FFB687"/>
<path d="M50.9814 173.316C50.9814 173.316 44.9828 179.867 43.2353 193.15C41.8035 203.997 45.447 221.931 47.9299 233.367C50.4128 244.804 53.373 256.613 53.373 256.613C53.373 256.613 64.2671 243.7 76.9946 237.243C89.7221 230.785 95.0766 229.319 95.0766 229.319L64.4496 168.428L50.9814 173.316Z" fill="#FCE7D8"/>
<path d="M135.133 198.035V212.523C135.133 212.523 134.757 213.123 134.115 214.164C130.949 219.21 121.263 234.653 115.872 242.91C109.375 252.873 103.142 260.356 95.0722 263.123C83.2836 267.163 73.7744 254.688 73.7744 254.688L86.4394 232.71L114.677 202.584L119.247 197.714L122.181 194.585L123.774 192.879L135.133 198.035Z" fill="#FFB687"/>
<path d="M157.515 178.396C156.106 181.338 153.605 183.613 150.544 184.739C149.879 184.984 149.592 183.91 150.257 183.667C151.85 183.066 153.289 182.116 154.467 180.886C155.645 179.656 156.533 178.178 157.064 176.56C157.098 176.682 157.142 176.821 157.187 176.959C157.339 177.427 157.449 177.908 157.515 178.396V178.396Z" fill="#422625"/>
<path d="M157.184 183.268C157.184 183.79 157.15 184.52 157.116 185.326C156.725 185.802 156.288 186.239 155.812 186.63C154.652 187.582 153.28 188.158 152.007 188.943C151.397 189.322 150.844 188.359 151.441 187.992C152.591 187.285 153.867 186.753 154.939 185.905C155.851 185.18 156.614 184.285 157.184 183.268V183.268Z" fill="#422625"/>
<path d="M156.863 188.633C156.775 189.376 156.686 190.117 156.574 190.793C155.419 192.055 154.032 193.085 152.49 193.826C151.848 194.136 151.295 193.171 151.937 192.874C153.93 191.928 155.631 190.463 156.863 188.633Z" fill="#422625"/>
<path d="M85.1043 234.082L78.8448 243.012C78.4327 243.596 79.3925 244.149 79.7994 243.57L86.0588 234.643C86.4709 234.058 85.5111 233.492 85.1043 234.082Z" fill="#422625"/>
<path d="M172.351 161.439C171.44 159.182 170.133 157.106 168.491 155.31C165.19 151.687 160.977 148.641 156.283 147.11C155.114 146.726 153.45 146.218 152.496 147.358C152.308 147.557 152.175 147.8 152.107 148.065C152.04 148.33 152.041 148.608 152.11 148.873C150.848 148.703 149.577 148.909 148.912 150.198C148.569 150.867 148.498 151.642 148.714 152.363C146.641 153.768 147.306 155.777 148.951 157.772C147.632 160.135 152.498 165.94 153.336 167.229C155.558 170.648 156.76 174.513 157.889 178.397C158.617 180.9 159.149 183.788 161.058 185.699C164.418 189.074 170.82 186.771 173.056 183.112C175.476 179.135 175.121 174.093 174.451 169.683C173.987 166.725 173.4 163.992 172.351 161.439Z" fill="#FFB687"/>
<path d="M129.479 228.407C129.479 228.407 165.15 179.859 170.407 175.269C176.805 169.675 189.82 166.516 196.46 172.578C203.1 178.639 191.011 230.6 191.011 230.6C191.011 230.6 175.102 262.234 165.736 271.597C156.371 280.96 135.13 263.929 135.13 263.929L129.479 228.407Z" fill="#8D9AC8"/>
<path d="M159.979 167.768C158.415 164.099 155.452 159.047 151.297 157.975C150.606 157.795 150.311 158.864 151.002 159.042C154.821 160.027 157.588 164.936 159.025 168.326C159.301 168.978 160.256 168.415 159.979 167.768Z" fill="#422625"/>
<path d="M162.928 164.584C161.791 161.676 160.074 159.031 157.881 156.809C155.689 154.587 153.066 152.835 150.174 151.66C149.517 151.4 149.23 152.459 149.882 152.727C152.594 153.842 155.053 155.493 157.111 157.581C159.169 159.669 160.785 162.151 161.861 164.878C162.122 165.533 163.191 165.246 162.928 164.584Z" fill="#422625"/>
<path d="M168.331 160.781C165.259 155.134 160.155 150.867 154.054 148.844C153.379 148.617 153.087 149.686 153.759 149.91C159.585 151.853 164.453 155.94 167.374 161.342C167.718 161.965 168.673 161.407 168.331 160.781Z" fill="#422625"/>
<path d="M195.476 171.79C195.476 171.79 204.479 175.05 208.907 193.878C213.336 212.706 224.405 277.277 224.405 277.277C224.405 277.277 211.674 280.044 196.545 279.134C181.415 278.224 176.436 275.446 176.436 275.446L172.19 237.243L195.476 171.79Z" fill="#8D9AC8"/>
<path d="M238.025 325.832C237.837 326.179 237.589 326.49 237.293 326.75C236.225 324.944 235.003 323.233 233.641 321.636C233.198 321.083 233.972 320.295 234.424 320.854C235.756 322.414 236.961 324.079 238.025 325.832V325.832Z" fill="#422625"/>
<path d="M234.45 328.466C234.109 328.617 233.761 328.75 233.407 328.866C232.744 327.504 231.986 326.19 231.138 324.935C230.739 324.338 231.691 323.782 232.09 324.369C232.971 325.678 233.76 327.047 234.45 328.466V328.466Z" fill="#422625"/>
<path d="M230.508 329.471C230.101 329.523 229.69 329.548 229.279 329.546C228.728 328.481 228.095 327.46 227.386 326.492C226.966 325.905 227.928 325.352 228.348 325.929C229.162 327.05 229.884 328.234 230.508 329.471V329.471Z" fill="#422625"/>
<path d="M135.842 218.968C129.85 226.172 124.322 233.751 119.294 241.659C118.91 242.261 119.87 242.819 120.251 242.219C125.226 234.392 130.695 226.89 136.625 219.758C137.076 219.208 136.299 218.42 135.842 218.968Z" fill="#422625"/>
<path d="M174.932 259.104C174.791 259.104 174.655 259.049 174.552 258.953C174.449 258.856 174.388 258.723 174.379 258.582L171.64 206.42C171.633 206.274 171.684 206.13 171.782 206.021C171.88 205.912 172.018 205.846 172.165 205.839C172.311 205.831 172.455 205.882 172.564 205.98C172.673 206.079 172.739 206.216 172.746 206.363L175.485 258.525C175.493 258.671 175.442 258.815 175.344 258.924C175.246 259.033 175.109 259.098 174.963 259.107L174.932 259.104Z" fill="#422625"/>
<path d="M173.289 225.668C170.855 222.006 168.594 218.244 166.508 214.38C166.169 213.752 165.204 214.313 165.551 214.938C167.637 218.804 169.897 222.567 172.332 226.229C172.726 226.816 173.685 226.263 173.289 225.668Z" fill="#422625"/>
<path d="M210.948 279.575C210.808 279.573 210.675 279.518 210.574 279.422C210.473 279.326 210.412 279.195 210.403 279.056C210.395 278.917 210.439 278.779 210.528 278.671C210.616 278.564 210.742 278.493 210.88 278.474L224.121 276.802L219.299 251.282C219.281 251.209 219.278 251.133 219.291 251.059C219.303 250.985 219.33 250.915 219.371 250.852C219.412 250.789 219.465 250.734 219.527 250.692C219.589 250.651 219.659 250.622 219.733 250.608C219.807 250.594 219.882 250.595 219.956 250.611C220.029 250.627 220.098 250.658 220.159 250.702C220.22 250.746 220.271 250.802 220.31 250.866C220.348 250.93 220.374 251.002 220.384 251.076L225.318 277.175C225.332 277.249 225.331 277.326 225.314 277.399C225.297 277.473 225.266 277.542 225.221 277.603C225.177 277.664 225.12 277.716 225.055 277.754C224.991 277.793 224.918 277.817 224.844 277.827L211.021 279.572L210.948 279.575Z" fill="#422625"/>
<path d="M138.379 208.695C136.407 210.864 135.134 212.523 135.134 212.523C135.134 212.523 134.758 213.123 134.117 214.164C127.075 211.496 120.203 207.531 114.679 202.584L119.248 197.714C121.804 199.971 124.574 201.973 127.518 203.692C129.968 205.136 132.516 206.404 135.144 207.487C136.201 207.933 137.294 208.329 138.379 208.695Z" fill="#422625"/>
<path d="M131.689 211.472C133.581 209.58 133.581 206.514 131.689 204.622C129.798 202.731 126.731 202.731 124.84 204.622C122.948 206.514 122.948 209.58 124.84 211.472C126.731 213.363 129.798 213.363 131.689 211.472Z" fill="white"/>
<path d="M117.468 158.833C115.66 155.578 113.013 152.918 111.18 149.736C109.211 146.322 107.883 142.379 106.305 138.769C106.021 138.117 105.066 138.68 105.351 139.327C106.916 142.939 108.253 146.891 110.223 150.297C111.947 153.281 114.364 155.805 116.153 158.789C112.929 159.741 110.202 161.912 108.553 164.842C107.51 166.689 106.921 168.788 105.684 170.525C105.218 171.177 104.673 171.647 104.279 172.187C104.322 172.091 104.338 171.986 104.324 171.882C104.311 171.778 104.269 171.68 104.203 171.598C104.137 171.517 104.049 171.456 103.95 171.422C103.851 171.387 103.745 171.381 103.642 171.404C101.295 172.02 98.9478 172.114 96.5874 171.451C95.0565 171.021 93.7185 170.118 92.1328 169.868C88.3171 169.263 84.2589 170.828 80.472 170.251C78.7637 169.991 79.1001 167.549 78.795 166C78.409 164.039 77.9265 162.101 77.3475 160.187C76.2605 156.638 74.8641 153.192 73.1745 149.887C72.8511 149.251 71.8965 149.812 72.2173 150.446C74.4715 154.855 76.1836 159.521 77.3162 164.341C77.7361 166.167 77.65 168.559 78.3594 170.238C78.6619 170.94 78.6958 171.107 79.4392 171.363C81.1683 171.952 84.1337 171.193 85.9333 171.102C88.1007 171.003 90.6071 170.538 92.7483 171.115C94.6861 171.636 96.2093 172.651 98.2566 172.909C100.16 173.132 102.089 172.98 103.934 172.463C104.004 172.446 104.07 172.413 104.126 172.368C104.182 172.323 104.228 172.267 104.26 172.202C103.891 172.685 103.715 173.289 103.768 173.895C103.906 175.815 105.372 178.151 106.318 179.75C106.986 180.874 107.836 181.954 108.175 183.242C108.491 184.45 108.24 185.71 108.543 186.92C109.065 189.006 110.369 190.981 111.3 192.885C112.517 195.361 113.734 197.835 114.951 200.307C115.267 200.946 116.221 200.385 115.908 199.749C113.978 195.837 111.811 191.943 110.1 187.924C109.302 186.046 109.709 184.064 108.976 182.186C108.392 180.692 107.348 179.401 106.595 177.992C105.231 175.439 104.602 174.242 106.17 171.702C107.023 170.37 107.791 168.986 108.47 167.557C110.296 163.603 112.784 160.753 117.139 159.636C117.219 159.613 117.292 159.571 117.354 159.515C117.415 159.459 117.464 159.39 117.495 159.313C117.527 159.236 117.541 159.153 117.536 159.07C117.531 158.987 117.508 158.906 117.468 158.833V158.833Z" fill="#422625"/>
<path d="M108.622 175.084C108.398 174.869 108.22 174.611 108.1 174.325C107.839 173.673 106.767 173.957 107.033 174.62C107.214 175.086 107.488 175.51 107.839 175.866C108.343 176.375 109.125 175.592 108.622 175.084Z" fill="#422625"/>
<path d="M115.074 191.481C114.948 191.161 114.789 190.854 114.6 190.566C114.206 189.976 113.249 190.529 113.645 191.124C113.787 191.328 113.907 191.547 114.005 191.776C114.274 192.423 115.335 192.138 115.074 191.481Z" fill="#422625"/>
<path d="M90.7169 225.772L82.6318 211.689C80.3836 207.776 78.3988 202.917 75.2952 199.584C75.2535 199.54 75.2039 199.503 75.1596 199.459C75.1677 199.345 75.1311 199.232 75.0576 199.145C74.9841 199.057 74.8795 199.002 74.7658 198.99L74.6354 198.971C71.816 196.426 67.5752 195.208 64.1404 193.956C59.2912 192.201 54.3376 190.748 49.3081 189.608C48.6143 189.449 48.3196 190.516 49.016 190.675C53.709 191.739 58.3366 193.074 62.8754 194.673C65.9269 195.756 69.5287 196.778 72.3663 198.658C67.6694 198.023 62.9201 197.865 58.1913 198.186C57.4845 198.239 57.4793 199.344 58.1913 199.295C63.4953 198.915 68.8256 199.153 74.0746 200.004C74.5964 200.487 75.0666 201.023 75.4778 201.603C78.0102 205.236 80.008 209.346 82.2145 213.186L89.778 226.32C90.1144 226.949 91.0794 226.393 90.7169 225.772Z" fill="#422625"/>
<path d="M43.9734 324.255C43.8278 324.255 43.6881 324.198 43.5842 324.096C43.4803 323.994 43.4206 323.855 43.4178 323.709C43.4178 323.06 42.4033 258.703 42.3563 243.813C42.3094 228.923 39.3935 206.233 39.3649 205.995C39.3462 205.85 39.3861 205.703 39.4759 205.587C39.5656 205.47 39.6978 205.395 39.8434 205.376C39.989 205.357 40.1361 205.397 40.2523 205.487C40.3684 205.577 40.4442 205.709 40.4629 205.855C40.4916 206.082 43.4178 228.879 43.4648 243.8C43.5117 258.721 44.508 323.037 44.5263 323.683C44.5277 323.83 44.4713 323.971 44.3693 324.077C44.2673 324.182 44.1279 324.243 43.9812 324.247L43.9734 324.255Z" fill="#422625"/>
<path d="M43.3169 279.865C43.185 279.864 43.0576 279.817 42.9576 279.731C42.8576 279.645 42.7917 279.526 42.7718 279.395L34.1103 228.501C34.0858 228.356 34.1198 228.207 34.2049 228.087C34.29 227.967 34.4192 227.886 34.5641 227.862C34.7091 227.837 34.8578 227.871 34.9776 227.956C35.0975 228.041 35.1786 228.171 35.2031 228.316L43.8725 279.218C43.8967 279.362 43.8629 279.511 43.7784 279.63C43.6939 279.75 43.5655 279.831 43.4213 279.857L43.3169 279.865Z" fill="#422625"/>
<path d="M109.396 357.917C124.277 357.917 136.341 354.51 136.341 350.307C136.341 346.104 124.277 342.696 109.396 342.696C94.5155 342.696 82.4521 346.104 82.4521 350.307C82.4521 354.51 94.5155 357.917 109.396 357.917Z" fill="#422625"/>
<path d="M95.0203 395.37C94.9561 395.37 94.8925 395.359 94.8325 395.336C94.7641 395.311 94.7013 395.273 94.6476 395.224C94.5939 395.175 94.5505 395.116 94.5197 395.05C94.4889 394.984 94.4715 394.913 94.4683 394.84C94.4651 394.767 94.4763 394.695 94.5013 394.626L109.159 354.224C109.209 354.086 109.312 353.973 109.445 353.911C109.579 353.849 109.731 353.842 109.87 353.892C110.008 353.942 110.121 354.045 110.183 354.178C110.245 354.312 110.252 354.464 110.202 354.602L95.5393 395.005C95.5014 395.112 95.4311 395.205 95.338 395.27C95.245 395.335 95.134 395.37 95.0203 395.37V395.37Z" fill="#4A2521"/>
<path d="M127.146 395.369C127.035 395.372 126.926 395.341 126.833 395.28C126.74 395.22 126.667 395.133 126.624 395.03L109.75 354.625C109.693 354.49 109.693 354.338 109.748 354.202C109.804 354.066 109.911 353.958 110.046 353.902C110.181 353.845 110.334 353.844 110.469 353.9C110.605 353.955 110.713 354.062 110.77 354.198L127.644 394.602C127.681 394.687 127.695 394.78 127.686 394.872C127.677 394.964 127.645 395.052 127.593 395.129C127.541 395.205 127.471 395.267 127.389 395.309C127.307 395.351 127.215 395.372 127.123 395.369H127.146Z" fill="#4A2521"/>
<path d="M112.594 404.779C112.452 404.779 112.316 404.726 112.213 404.629C112.111 404.532 112.049 404.399 112.041 404.258L109.722 355.551C109.715 355.405 109.767 355.261 109.866 355.153C109.965 355.044 110.102 354.979 110.249 354.972C110.396 354.965 110.539 355.017 110.648 355.116C110.756 355.215 110.821 355.353 110.828 355.499L113.147 404.203C113.154 404.349 113.103 404.491 113.005 404.6C112.908 404.708 112.771 404.774 112.625 404.782L112.594 404.779Z" fill="#4A2521"/>
<path d="M136.341 345.949H82.4521V350.307H136.341V345.949Z" fill="#422625"/>
<path d="M109.396 353.559C124.277 353.559 136.341 350.152 136.341 345.948C136.341 341.745 124.277 338.338 109.396 338.338C94.5155 338.338 82.4521 341.745 82.4521 345.948C82.4521 350.152 94.5155 353.559 109.396 353.559Z" fill="#A54740"/>
<path d="M112.561 345.257H102.293C100.629 345.257 99.0247 344.639 97.7899 343.524C96.5551 342.409 95.7779 340.875 95.6087 339.22L93.6865 320.342H121.176L119.246 339.22C119.077 340.875 118.3 342.409 117.065 343.525C115.83 344.64 114.225 345.257 112.561 345.257Z" fill="#FCE7D8"/>
<path d="M121.174 320.626C121.174 322.384 115.021 323.808 107.429 323.808C99.8371 323.808 93.6846 322.384 93.6846 320.626C93.6846 318.868 99.8397 317.444 107.429 317.444C115.019 317.444 121.174 318.868 121.174 320.626Z" fill="#FCE7D8"/>
<path d="M102.308 332.804C102.308 327.327 108.079 322.862 115.176 322.862C122.273 322.862 128.044 327.321 128.044 332.804C128.044 338.286 122.273 342.746 115.176 342.746C108.079 342.746 102.308 338.286 102.308 332.804ZM125.83 332.804C125.83 328.542 121.052 325.073 115.176 325.073C109.3 325.073 104.522 328.542 104.522 332.804C104.522 337.065 109.3 340.532 115.176 340.532C121.052 340.532 125.83 337.065 125.83 332.804Z" fill="#FCE7D8"/>
<path d="M107.706 323.811H107.427C103.181 323.784 98.9567 323.202 94.8612 322.082C94.7905 322.062 94.7245 322.028 94.667 321.982C94.6095 321.937 94.5617 321.88 94.5263 321.816C94.491 321.751 94.4688 321.681 94.4611 321.607C94.4534 321.534 94.4603 321.461 94.4814 321.39C94.5025 321.32 94.5375 321.255 94.5841 321.198C94.6308 321.141 94.6883 321.094 94.7533 321.06C94.8183 321.026 94.8894 321.005 94.9626 320.999C95.0357 320.992 95.1094 321 95.1794 321.023C99.1772 322.103 103.297 322.668 107.437 322.705H107.698C111.747 322.697 115.775 322.132 119.669 321.025C119.739 321.003 119.812 320.995 119.884 321C119.956 321.006 120.027 321.026 120.092 321.06C120.156 321.093 120.214 321.138 120.261 321.194C120.308 321.249 120.344 321.313 120.366 321.383C120.409 321.523 120.396 321.674 120.329 321.805C120.261 321.935 120.145 322.034 120.006 322.079C116.007 323.23 111.867 323.813 107.706 323.811V323.811Z" fill="#422625"/>
<path opacity="0.79" d="M105.765 319.276C105.765 319.276 108.373 310.773 107.468 306.154C106.563 301.535 104.396 300.299 105.763 294.444C107.129 288.589 114.891 283.406 114.891 283.406C114.891 283.406 111.175 293.09 112.074 296.582C112.974 300.075 115.144 303.577 112.189 309.759C109.784 314.808 105.765 319.276 105.765 319.276Z" fill="#FFF7E0"/>
<path d="M329.256 413.522C329.156 413.53 329.056 413.502 328.975 413.444L329.267 412.974V412.424C329.311 412.424 329.788 412.372 333.082 411.608C344.216 408.999 348.82 410.747 349.013 410.825C349.149 410.879 349.259 410.984 349.318 411.119C349.376 411.253 349.379 411.406 349.326 411.542C349.272 411.679 349.166 411.789 349.032 411.847C348.897 411.906 348.745 411.909 348.608 411.855C348.535 411.829 344.031 410.197 333.333 412.687C330.503 413.342 329.616 413.522 329.256 413.522Z" fill="white"/>
<path d="M348.882 411.654C348.828 411.654 348.774 411.646 348.723 411.631C348.582 411.589 348.464 411.492 348.394 411.363C348.324 411.234 348.308 411.083 348.35 410.942C348.35 410.89 349.792 405.776 345.001 397.902C344.924 397.776 344.901 397.625 344.936 397.483C344.97 397.34 345.06 397.217 345.186 397.14C345.311 397.064 345.462 397.04 345.605 397.075C345.748 397.11 345.871 397.2 345.947 397.325C351.018 405.656 349.476 411.031 349.408 411.255C349.375 411.37 349.306 411.47 349.211 411.542C349.116 411.614 349.001 411.653 348.882 411.654V411.654Z" fill="white"/>
<path d="M238.504 394.642C235.29 392.946 231.981 391.437 228.594 390.122C222.146 387.535 215.483 385.198 208.553 384.741C206.284 384.593 203.95 384.655 201.832 385.482C197.92 387.01 195.51 391.611 198.368 395.257C199.469 396.663 201.031 397.628 202.601 398.483C211.268 403.196 221.043 405.39 230.312 408.767C233.703 410.003 237.182 411.427 240.789 411.216C243.53 411.057 246.42 409.703 247.463 407.161C248.303 405.113 247.763 402.695 246.54 400.849C245.317 399.002 243.494 397.646 241.624 396.459C240.599 395.815 239.561 395.213 238.504 394.642Z" fill="#4A2521"/>
<path d="M222.071 406.579C221.947 406.582 221.825 406.542 221.726 406.467C221.627 406.392 221.555 406.286 221.523 406.166C221.492 406.046 221.501 405.918 221.55 405.804C221.599 405.69 221.685 405.595 221.795 405.536C223.851 404.454 226.102 403.79 228.417 403.582C236.212 402.883 241.1 404.886 241.303 404.962C241.37 404.99 241.431 405.031 241.483 405.082C241.534 405.133 241.575 405.194 241.603 405.261C241.631 405.328 241.645 405.4 241.645 405.473C241.645 405.545 241.631 405.617 241.603 405.685C241.575 405.752 241.535 405.813 241.483 405.864C241.432 405.916 241.371 405.956 241.304 405.984C241.237 406.012 241.165 406.026 241.092 406.026C241.02 406.026 240.948 406.012 240.881 405.984C240.831 405.964 236.019 404.015 228.516 404.68C226.362 404.88 224.267 405.495 222.348 406.493C222.265 406.546 222.169 406.575 222.071 406.579V406.579Z" fill="white"/>
<path d="M241.092 406.034C241.043 406.034 240.993 406.027 240.946 406.013C240.804 405.974 240.684 405.881 240.611 405.753C240.538 405.626 240.519 405.474 240.557 405.333C240.62 405.1 242.031 399.576 235.897 393.596C235.845 393.545 235.804 393.484 235.777 393.417C235.749 393.35 235.734 393.278 235.734 393.205C235.734 393.132 235.749 393.06 235.777 392.993C235.804 392.926 235.845 392.865 235.897 392.814C236.001 392.711 236.141 392.654 236.288 392.654C236.434 392.654 236.575 392.711 236.679 392.814C243.304 399.284 241.702 405.39 241.634 405.646C241.599 405.761 241.526 405.861 241.428 405.931C241.33 406.001 241.212 406.037 241.092 406.034V406.034Z" fill="white"/>
<path d="M241.091 408.212C241.018 408.212 240.946 408.198 240.879 408.17C240.812 408.143 240.751 408.102 240.699 408.05C240.648 407.999 240.607 407.938 240.579 407.871C240.552 407.804 240.538 407.731 240.538 407.659V405.481C240.538 405.334 240.596 405.194 240.7 405.09C240.804 404.986 240.944 404.928 241.091 404.928C241.238 404.928 241.378 404.986 241.482 405.09C241.586 405.194 241.644 405.334 241.644 405.481V407.659C241.644 407.805 241.586 407.946 241.482 408.05C241.378 408.153 241.238 408.212 241.091 408.212V408.212Z" fill="white"/>
<path d="M321.736 189.043C329.949 201.071 344.153 205.667 344.153 205.667C344.153 205.667 345.608 190.375 337.396 178.349C329.183 166.323 314.413 162.111 314.413 162.111C314.413 162.111 313.524 177.017 321.736 189.043Z" fill="#95D86D"/>
<path d="M362.415 219.784C357.42 230.637 346.56 236.301 346.56 236.301C346.56 236.301 343.29 224.132 348.284 213.28C353.279 202.427 364.65 196.997 364.65 196.997C364.65 196.997 367.412 208.929 362.415 219.784Z" fill="#95D86D"/>
<path d="M344.509 132.186C336.864 148.174 340.701 165.93 340.701 165.93C340.701 165.93 357.68 158.126 365.324 142.138C372.968 126.151 371.002 103.001 371.002 103.001C371.002 103.001 352.151 116.198 344.509 132.186Z" fill="#95D86D"/>
<path d="M346.635 231.38C345.002 195.803 337.308 129.335 336.985 126.534V126.482C336.975 126.399 336.949 126.319 336.908 126.246C336.868 126.174 336.813 126.11 336.748 126.058C336.682 126.007 336.607 125.968 336.527 125.946C336.447 125.923 336.363 125.917 336.281 125.926C336.198 125.936 336.118 125.962 336.045 126.003C335.973 126.043 335.909 126.098 335.857 126.163C335.805 126.229 335.767 126.304 335.745 126.384C335.722 126.464 335.715 126.548 335.725 126.63C335.803 127.301 343.698 194.835 345.375 231.447C347.029 267.546 346.914 272.314 346.911 272.358C346.904 272.52 346.96 272.678 347.068 272.8C347.175 272.921 347.326 272.996 347.488 273.008H347.545C347.71 273.008 347.868 272.945 347.987 272.83C348.105 272.716 348.174 272.559 348.179 272.395C348.179 272.223 348.304 267.784 346.635 231.38Z" fill="#422625"/>
<path d="M341.376 89.6218C346.071 110.586 336.729 130.53 336.729 130.53C336.729 130.53 318.78 116.707 314.077 95.743C309.375 74.7791 319.708 54.6132 319.708 54.6132C319.708 54.6132 336.674 68.6605 341.376 89.6218Z" fill="#95D86D"/>
<path d="M304.605 240.686C314.516 247.344 326.748 246.515 326.748 246.515C326.748 246.515 323.195 234.426 313.274 227.768C303.353 221.109 290.818 222.403 290.818 222.403C290.818 222.403 294.684 234.027 304.605 240.686Z" fill="#95D86D"/>
<path d="M318.657 223.798C311.938 207.755 300.434 184.588 299.946 183.604C299.909 183.53 299.857 183.463 299.794 183.409C299.731 183.354 299.658 183.312 299.579 183.286C299.5 183.259 299.417 183.248 299.334 183.254C299.251 183.26 299.17 183.283 299.096 183.32C299.021 183.359 298.954 183.413 298.9 183.478C298.846 183.544 298.806 183.619 298.782 183.701C298.757 183.782 298.749 183.867 298.759 183.951C298.768 184.036 298.794 184.117 298.835 184.191C300.058 186.656 310.981 208.707 317.501 224.291C333.226 261.847 336.541 277.634 336.564 277.791C336.594 277.933 336.672 278.062 336.785 278.154C336.898 278.246 337.039 278.296 337.185 278.297C337.227 278.302 337.27 278.302 337.313 278.297C337.477 278.262 337.621 278.164 337.714 278.024C337.807 277.884 337.841 277.713 337.808 277.548C337.657 276.881 334.274 261.094 318.657 223.798Z" fill="#422625"/>
<path d="M294.908 159.18C305.322 174.552 304.114 193.547 304.114 193.547C304.114 193.547 285.304 188.109 274.903 172.737C264.502 157.365 266.419 137.882 266.419 137.882C266.419 137.882 284.496 143.81 294.908 159.18Z" fill="#95D86D"/>
<path d="M381.601 231.179C381.54 231.022 381.419 230.896 381.265 230.828C381.111 230.76 380.937 230.756 380.779 230.817C380.623 230.878 380.498 230.999 380.43 231.153C375.782 241.664 372.514 252.649 369.351 263.272V263.314C367.744 268.712 366.083 274.294 364.257 279.763C364.205 279.923 364.218 280.097 364.293 280.247C364.368 280.397 364.5 280.512 364.659 280.566C364.724 280.587 364.791 280.597 364.86 280.597C364.989 280.596 365.116 280.555 365.221 280.48C365.327 280.405 365.408 280.3 365.452 280.178C367.277 274.724 368.926 269.169 370.524 263.796L370.566 263.653C373.717 253.064 376.974 242.115 381.588 231.677C381.625 231.6 381.645 231.515 381.647 231.43C381.649 231.344 381.634 231.259 381.601 231.179V231.179Z" fill="#422625"/>
<path d="M402.21 213.791C394.558 230.704 377.738 239.611 377.738 239.611C377.738 239.611 372.522 220.736 380.187 203.822C387.852 186.909 405.455 178.357 405.455 178.357C405.455 178.357 409.865 196.877 402.21 213.791Z" fill="#95D86D"/>
<path d="M348.627 293.768H344.944V367.178H348.627V293.768Z" fill="#422625"/>
<path d="M332.742 367.178L344.46 297.409L340.829 296.799L329.007 367.178H332.742Z" fill="#422625"/>
<path d="M366.834 367.178L355.014 296.799L351.381 297.409L363.099 367.178H366.834Z" fill="#422625"/>
<path d="M357.849 318.777H335.72C320.637 318.777 307.993 309.524 306.438 297.344L305.773 265.488H387.793L387.128 297.344C385.576 309.529 372.932 318.777 357.849 318.777Z" fill="#F8B67C"/>
<path d="M320.22 280.316C320.09 278.883 319.429 277.552 318.368 276.582C317.306 275.612 315.92 275.074 314.482 275.074C313.044 275.074 311.658 275.612 310.596 276.582C309.534 277.552 308.874 278.883 308.744 280.316H320.22Z" fill="white"/>
<path d="M341.76 280.316C341.649 278.869 340.995 277.517 339.93 276.53C338.865 275.544 337.467 274.996 336.016 274.996C334.564 274.996 333.166 275.544 332.101 276.53C331.036 277.517 330.383 278.869 330.271 280.316H341.76Z" fill="white"/>
<path d="M363.3 280.316C363.17 278.883 362.51 277.552 361.448 276.582C360.386 275.612 359 275.074 357.562 275.074C356.124 275.074 354.738 275.612 353.676 276.582C352.615 277.552 351.954 278.883 351.824 280.316H363.3Z" fill="white"/>
<path d="M384.838 280.316C384.708 278.884 384.048 277.552 382.986 276.582C381.924 275.612 380.538 275.074 379.1 275.074C377.662 275.074 376.276 275.612 375.214 276.582C374.153 277.552 373.492 278.884 373.362 280.316H384.838Z" fill="white"/>
<path d="M170.084 116.55C165.854 115.022 161.182 117.215 159.655 121.444C158.127 125.673 160.32 130.346 164.549 131.873C168.778 133.401 173.45 131.209 174.978 126.979C176.506 122.75 174.313 118.078 170.084 116.55ZM220.812 104.59C214.969 88.6967 202.531 76.3016 186.689 70.5793C170.847 64.857 153.361 66.443 138.708 74.9334C136.762 76.061 136.099 78.5526 137.23 80.4998C137.498 80.9627 137.854 81.3683 138.279 81.6934C138.704 82.0184 139.188 82.2565 139.705 82.3942C140.222 82.5318 140.761 82.5662 141.291 82.4955C141.821 82.4247 142.332 82.2502 142.795 81.9818C155.356 74.7021 170.347 73.3381 183.921 78.2412C197.495 83.1443 208.155 93.7737 213.166 107.398C213.35 107.9 213.632 108.361 213.995 108.754C214.357 109.147 214.794 109.465 215.28 109.69C215.765 109.914 216.29 110.041 216.825 110.062C217.359 110.084 217.893 110 218.395 109.815C220.506 109.041 221.589 106.699 220.812 104.59ZM181.154 85.9027C169.838 81.8151 157.349 82.9482 146.884 89.0108C144.938 90.1382 144.275 92.63 145.405 94.5769C145.673 95.0399 146.029 95.4454 146.454 95.7705C146.879 96.0955 147.363 96.3337 147.88 96.4713C148.397 96.6089 148.936 96.6433 149.466 96.5725C149.996 96.5018 150.507 96.3272 150.97 96.0588C159.344 91.2043 169.338 90.2962 178.387 93.5646C187.435 96.8331 194.542 103.918 197.883 113.004C198.067 113.506 198.349 113.967 198.711 114.36C199.074 114.754 199.51 115.072 199.996 115.296C200.481 115.521 201.006 115.647 201.541 115.668C202.075 115.69 202.608 115.606 203.11 115.421C205.224 114.646 206.307 112.303 205.53 110.195C201.352 98.8432 192.47 89.9903 181.154 85.9027ZM175.619 101.226C168.826 98.7725 161.331 99.4518 155.056 103.09C153.11 104.218 152.447 106.709 153.578 108.656C153.846 109.119 154.202 109.525 154.627 109.85C155.052 110.175 155.536 110.413 156.053 110.551C156.57 110.688 157.109 110.723 157.639 110.652C158.169 110.581 158.68 110.407 159.143 110.138C163.332 107.71 168.329 107.256 172.852 108.889C177.374 110.523 180.928 114.067 182.598 118.611C182.782 119.113 183.064 119.573 183.426 119.967C183.789 120.36 184.225 120.678 184.71 120.902C185.196 121.126 185.721 121.253 186.255 121.275C186.789 121.296 187.323 121.212 187.825 121.027C189.938 120.252 191.02 117.912 190.245 115.801C187.743 108.992 182.412 103.68 175.619 101.226Z" fill="#005895"/>
</svg>
