<svg width="300" height="382" viewBox="0 0 300 382" fill="none" xmlns="http://www.w3.org/2000/svg">
<g clip-path="url(#clip0_84_33015)">
<path d="M11.9606 149.021L60.9567 187.748C60.9567 187.748 77.7241 187.292 81.8353 181.739C84.3646 178.322 84.3712 170.658 75.7233 164.456C71.0138 161.099 55.6589 151.461 45.8411 146.552C36.0232 141.643 15.0249 130.802 15.0249 130.802L3.73145 137.169L11.9606 149.021Z" fill="#FFB687"/>
<path d="M32.8536 108.058L40.2252 143.853C40.2992 144.204 40.2874 144.567 40.1907 144.912C40.0939 145.258 39.9152 145.574 39.6698 145.835C39.4243 146.096 39.1194 146.294 38.7809 146.412C38.4424 146.53 38.0805 146.564 37.7259 146.512L17.9972 144.85C17.5504 144.783 17.1344 144.582 16.8045 144.274C16.4745 143.965 16.246 143.563 16.1493 143.122L8.4486 107.676C8.37351 107.329 8.38284 106.968 8.47581 106.625C8.56879 106.282 8.7427 105.966 8.98295 105.704C9.2232 105.442 9.5228 105.241 9.8566 105.119C10.1904 104.997 10.5487 104.956 10.9014 105.001L30.9591 106.3C31.4186 106.36 31.848 106.561 32.1875 106.876C32.5271 107.192 32.7599 107.605 32.8536 108.058V108.058Z" fill="#393939"/>
<path d="M27.8768 117.47C27.5075 117.469 27.1501 117.34 26.8661 117.104C26.5821 116.868 26.3894 116.54 26.3213 116.177L25.5835 112.242C25.5249 111.837 25.6251 111.425 25.8633 111.092C26.1015 110.759 26.4592 110.532 26.8614 110.457C27.2637 110.381 27.6795 110.465 28.0217 110.689C28.3639 110.913 28.6062 111.261 28.6977 111.66L29.4355 115.599C29.5123 116.012 29.422 116.438 29.1846 116.785C28.9472 117.131 28.582 117.369 28.1692 117.447C28.0726 117.463 27.9747 117.47 27.8768 117.47V117.47Z" fill="#090909"/>
<path d="M3.0208 128.644C2.79287 128.916 2.62318 129.232 2.52226 129.572C2.45822 129.644 2.41059 129.729 2.38267 129.821C0.604565 135.507 6.62687 140.905 11.3995 140.536C13.1743 140.4 16.2918 140.147 17.3819 138.283C18.3624 136.621 17.8871 134.334 16.6541 133.065C17.3012 132.752 17.8581 132.28 18.2726 131.692C18.6871 131.105 18.9456 130.422 19.0238 129.708C19.5024 126.577 18.2727 122.815 15.431 122.21C15.8329 121.324 15.9378 120.332 15.7301 119.381C15.2981 116.822 14.301 114.459 11.8781 112.831C9.17605 111.016 3.23683 108.563 1.73458 113.349C1.06986 115.43 1.73458 117.434 2.95433 119.136C0.431739 119.843 -0.036884 123.037 1.19284 125.869C1.64609 126.888 2.26364 127.826 3.0208 128.644V128.644Z" fill="#FFB687"/>
<path d="M5.11528 119.155C7.92369 120.431 10.8351 120.983 13.8696 121.432C13.9993 121.463 14.1124 121.542 14.1862 121.653C14.2601 121.764 14.2892 121.899 14.2678 122.031C14.2463 122.162 14.1759 122.281 14.0706 122.363C13.9653 122.445 13.8329 122.484 13.7001 122.472C10.5593 122.01 7.58136 121.435 4.67656 120.116C4.55507 120.054 4.46216 119.947 4.41723 119.819C4.3723 119.69 4.37883 119.549 4.43546 119.425C4.49209 119.301 4.59444 119.204 4.72112 119.153C4.8478 119.103 4.98902 119.104 5.11528 119.155V119.155Z" fill="#ED714E"/>
<path d="M4.64974 128.681C8.15611 130.123 11.6292 131.745 15.4513 132.094C16.1161 132.157 15.9565 133.197 15.2852 133.137C11.3667 132.778 7.80713 131.117 4.21103 129.641C3.58288 129.385 4.01826 128.425 4.64974 128.681Z" fill="#ED714E"/>
<path d="M29.9251 109.434C29.8139 109.434 29.7056 109.399 29.6156 109.333C29.5256 109.268 29.4586 109.176 29.424 109.07C29.3893 108.965 29.389 108.851 29.4228 108.745C29.4567 108.639 29.5231 108.546 29.6127 108.48L31.5736 107.028C31.6864 106.945 31.8277 106.91 31.9664 106.93C32.1051 106.951 32.2298 107.026 32.3131 107.139C32.3964 107.252 32.4314 107.393 32.4105 107.532C32.3897 107.671 32.3146 107.796 32.2017 107.879L30.2375 109.331C30.1466 109.397 30.0374 109.433 29.9251 109.434Z" fill="#4B4B4B"/>
<path d="M37.5868 145.81C37.4653 145.81 37.3476 145.768 37.2537 145.691C37.1598 145.614 37.0954 145.507 37.0716 145.388L29.6002 109.37L9.29321 107.738C9.1535 107.727 9.02406 107.66 8.93337 107.554C8.84268 107.447 8.79817 107.308 8.80963 107.168C8.82109 107.029 8.88758 106.899 8.99448 106.809C9.10137 106.718 9.23991 106.673 9.37962 106.685L30.4677 108.38L38.1119 145.168C38.1264 145.236 38.1274 145.306 38.1146 145.374C38.1019 145.442 38.0757 145.507 38.0377 145.565C37.9996 145.623 37.9505 145.672 37.893 145.711C37.8356 145.75 37.771 145.777 37.7031 145.79C37.6655 145.803 37.6263 145.809 37.5868 145.81Z" fill="#4B4B4B"/>
<path d="M304.438 249.609H3.73145V434.249H304.438V249.609Z" fill="#FBD2A8"/>
<path d="M234.295 372.538C245.209 356.867 257.892 342.715 264.184 324.346C272.416 300.31 271.662 274.599 274.67 249.609H212.732C206.417 266.3 203.037 284.586 199.371 301.456C195.206 320.63 189.998 340.056 178.698 356.385C169.003 370.417 155.603 381.312 141.807 391.133C128.419 400.668 114.387 409.369 101.525 419.672C95.9315 424.123 90.6902 428.999 85.8477 434.256H205.772C207.073 430.306 208.416 426.376 209.803 422.467C216.058 404.952 223.633 387.829 234.295 372.538Z" fill="#FFEBDE"/>
<path d="M81.049 344.566H79.7063V434.25H81.049V344.566Z" fill="white"/>
<path d="M81.049 249.608H79.7063V343.223H81.049V249.608Z" fill="white"/>
<path d="M156.038 344.566H154.695V434.25H156.038V344.566Z" fill="white"/>
<path d="M156.038 249.609H154.695V343.224H156.038V249.609Z" fill="white"/>
<path d="M231.031 249.608H229.689V343.223H231.031V249.608Z" fill="white"/>
<path d="M231.031 344.566H229.689V434.25H231.031V344.566Z" fill="white"/>
<path d="M229.688 343.224H156.037H154.695H81.0476H79.7049H3.73145V344.566H79.7049H81.0476H154.695H156.037H229.688H231.03H304.438V343.224H231.03H229.688Z" fill="white"/>
<path d="M191.849 159.945C191.849 159.945 181.689 187.561 178.625 204.936C175.56 222.312 171.187 242.825 173.497 246.936C175.806 251.048 199.6 252.031 199.6 252.031V248.339C199.6 248.339 180.762 243.354 180.323 241.027C179.884 238.701 196.313 174.094 196.313 174.094L191.849 159.945Z" fill="#393939"/>
<path d="M195.203 248.731C195.203 248.731 192.641 255.046 192.927 258.991C193.213 262.936 192.904 276.606 192.904 276.606H196.287C196.287 276.606 196.716 259.679 196.716 258.14C196.716 256.602 197.826 249.931 197.826 249.931L195.203 248.731Z" fill="#393939"/>
<path d="M271.333 251.809C270.04 252.025 242.953 252.374 221.811 252.354C209.398 252.334 199.025 252.188 197.127 251.809C191.996 250.782 190.294 226.5 190.294 216.436V157.831C190.294 157.831 193.77 146.013 216.344 147.449C233.075 148.506 247.399 145.787 250.477 152.979C253.555 160.171 261.777 197.947 261.777 197.947C261.777 197.947 265.543 200.513 267.936 202.74C270.329 204.966 270.335 210.085 271.362 225.473C272.389 240.861 273.383 251.47 271.333 251.809Z" fill="#3B4A73"/>
<path d="M271.332 251.809C270.039 252.025 242.952 252.374 221.811 252.354C221.811 252.354 218.733 198.286 219.933 197.947C221.133 197.608 261.76 197.947 261.76 197.947C261.76 197.947 265.526 200.513 267.919 202.74C269.065 203.793 269.66 205.518 270.082 208.722C270.205 209.616 270.318 210.64 270.415 211.8C270.71 215.103 270.946 219.527 271.349 225.476C272.356 240.864 273.383 251.47 271.332 251.809Z" fill="#A2AFDE"/>
<path d="M231.688 138.349C231.266 138.289 230.578 138.226 229.694 138.166C227.271 137.98 223.446 137.817 220.082 137.754C215.516 137.671 212.847 137.754 211.238 137.94C209.194 138.186 208.835 138.585 208.467 139.007C207.975 139.549 206.825 140.832 207.955 150.816L212.026 150.354C211.694 147.306 211.484 143.614 211.637 142.012C215.104 141.56 227.767 141.992 230.914 142.381C231.745 143.172 232.925 147.12 233.43 150.856L237.525 150.311C236.817 145.146 235.238 138.861 231.688 138.349Z" fill="#3B4A73"/>
<path d="M230.927 142.381C227.78 141.992 215.117 141.56 211.651 142.012L211.268 137.94C212.877 137.754 215.546 137.671 220.112 137.754C223.476 137.817 227.301 137.98 229.724 138.166L230.927 142.381Z" fill="#393939"/>
<path d="M270.398 211.796H232.569V208.719H270.069C270.192 209.623 270.305 210.636 270.398 211.796Z" fill="white"/>
<path d="M61.0673 125.616C61.0673 125.616 56.1086 145.282 55.5967 146.99C55.0849 148.699 52.3496 172.126 52.3496 172.126C52.3496 172.126 68.2496 174.523 68.7647 173.838C69.2799 173.153 73.7235 155.027 74.0824 151.095C74.4414 147.163 77.6154 125.789 77.4725 124.25C77.3296 122.712 61.0673 125.616 61.0673 125.616Z" fill="#FFB687"/>
<path d="M207.353 129.08C207.353 129.08 204.518 132.888 202.73 134.597C200.942 136.305 197.08 138.186 196.578 138.1C196.076 138.013 191.45 131.519 191.878 130.575C192.307 129.631 207.353 129.08 207.353 129.08Z" fill="#3B251D"/>
<path d="M79.0974 325.616L80.3803 331.714C80.3803 331.714 83.9166 339.246 83.1654 345.138C82.4143 351.031 77.2894 361.377 75.8303 363.621C72.098 369.35 66.4512 373.924 59.7808 375.183C56.6766 375.775 52.7415 374.828 52.921 370.989C52.9941 369.453 61.3562 340.489 61.3562 340.489L59.0064 333.104L57.1386 327.208L76.608 313.744L79.0974 325.616Z" fill="#FFA38A"/>
<path d="M80.3803 331.701C81.5265 334.267 82.3751 336.955 82.9095 339.714C83.2635 341.495 83.3497 343.318 83.1654 345.125C82.411 351.004 77.2894 361.364 75.8303 363.607C72.098 369.337 66.4512 373.91 59.7808 375.17C56.6766 375.761 52.7415 374.814 52.921 370.975C52.921 370.929 52.9376 370.856 52.9509 370.759C53.3298 368.626 57.3513 354.434 59.6911 346.255C59.8174 345.829 59.9304 345.407 60.05 345.018C60.8311 342.28 61.3562 340.475 61.3562 340.475L61.1036 339.677L60.7712 338.697L58.9898 333.09L79.0974 325.615L80.3803 331.701Z" fill="#D4553D"/>
<path d="M82.9095 339.714C83.2635 341.495 83.3497 343.319 83.1654 345.125C82.411 351.005 77.2894 361.364 75.8303 363.608C72.098 369.337 66.4512 373.911 59.7808 375.17C56.6766 375.762 52.7415 374.815 52.921 370.976C52.921 370.929 52.9376 370.856 52.9509 370.76C54.3534 371.797 57.1452 373.13 61.3695 371.993C67.7673 370.275 74.5109 362.082 77.6915 354.079C79.7322 348.941 81.7396 343.174 82.9095 339.714Z" fill="white"/>
<path d="M69.95 337.208C66.9276 337.742 63.9644 338.569 61.1026 339.677L60.7703 338.697C63.6877 337.573 66.7075 336.734 69.7871 336.194C70.4485 336.078 70.6047 337.085 69.95 337.208Z" fill="white"/>
<path d="M69.6389 342.925C66.1591 343.53 62.9186 344.879 59.6914 346.248C59.8177 345.823 59.9307 345.401 60.0504 345.012C63.1014 343.712 66.1757 342.473 69.4793 341.901C70.1374 341.795 70.2836 342.808 69.6389 342.925Z" fill="white"/>
<path d="M80.3203 335.367C81.2974 337.567 81.0747 339.804 79.8217 340.352C78.5688 340.901 76.7607 339.575 75.7836 337.361C74.8065 335.148 75.0292 332.924 76.2821 332.376C77.5351 331.827 79.3498 333.167 80.3203 335.367Z" fill="#F5D6C1"/>
<path d="M179.907 208.206C179.907 208.206 179.907 234.981 171.957 245.43C164.007 255.88 119.375 253.846 119.375 253.846H61.1526L58.075 216.412L179.907 208.206Z" fill="#A2AFDE"/>
<path d="M58.0754 216.43C58.0754 216.43 34.8603 219.391 24.4841 227.7C12.9447 236.933 17.7339 254.887 22.9453 267.712C28.1002 280.392 48.5966 328.756 50.1354 328.756C51.6742 328.756 77.4651 318.752 77.4651 318.752L77.0231 298.233C77.0231 298.233 72.3003 291.479 71.0938 285.753C69.8874 280.026 70.6551 278.996 68.8571 275.021C67.059 271.046 65.7795 268.995 66.0354 264.635C66.2913 260.274 64.7558 252.58 64.7558 252.58L58.0754 216.43Z" fill="#A2AFDE"/>
<path d="M84.4777 318.261C84.7203 316.931 82.1977 311.613 81.4864 310.829C80.7752 310.045 47.7821 325.054 47.6791 326.091C47.5761 327.128 50.903 333.403 51.6042 333.735C52.3055 334.068 84.235 319.573 84.4777 318.261Z" fill="#E5EEF4"/>
<path d="M99.7435 66.583C99.7435 66.583 86.7184 73.2933 82.4443 80.3027C78.1702 87.3121 72.1845 109.374 72.8658 121.342C73.5471 133.31 68.934 162.724 66.8834 171.614C64.8327 180.505 61.4094 189.027 63.2906 190.226C65.1717 191.426 84.6645 195.368 84.6645 195.368C84.6645 195.368 90.9792 187.674 91.162 186.135C91.3448 184.596 119.376 93.7997 119.376 93.7997L99.7435 66.583Z" fill="#FFAC45"/>
<path d="M134.718 29.4854C134.718 29.4854 128.137 19.9035 121.125 17.4242C114.112 14.9448 96.4172 22.4693 96.4172 22.4693C96.4172 22.4693 96.8427 12.2959 99.7408 8.2777C101.632 5.6554 108.98 2.62763 113.085 1.17856C117.19 -0.27052 128.373 0.846199 133.419 4.42901C136.297 6.473 138.331 9.74672 140.159 12.6881C141.056 14.1338 141.904 15.6095 142.758 17.0818C144.174 19.5213 146.148 21.1432 145.018 24.1743C144.649 25.1714 144.117 26.3712 143.236 27.016C142.462 27.5876 141.448 28.0563 140.91 28.9304C140.245 29.9906 140.116 31.3765 139.773 32.5564C137.806 39.3099 130.225 45.9238 130.225 45.9238L134.718 29.4854Z" fill="#4A2521"/>
<path d="M145.914 59.6928L131.935 52.9227L111.824 58.7855L105.207 64.2295L105.317 76.2708L112.389 104.431C112.389 104.431 117.182 120.747 119.598 119.72C122.014 118.693 140.021 100.347 141.603 96.6975C143.185 93.0482 145.914 59.6928 145.914 59.6928Z" fill="#FFB687"/>
<path d="M109.784 50.6127L110.645 54.6143L112.227 61.9328L113.992 70.1287L123.899 74.5258L133.783 64.2261L130.536 41.9847L109.784 50.6127Z" fill="#FFB687"/>
<path d="M110.027 51.9523L111.609 59.2642C113.763 58.4433 118.433 56.4358 120.895 53.6939C124.169 50.038 125.971 43.2645 125.971 43.2645C125.971 43.2645 120.463 46.1826 119.858 46.495C119.47 46.7044 113.913 49.7887 110.027 51.9523Z" fill="#ED714E"/>
<path d="M104.417 52.0021C101.492 49.7421 99.4316 36.9906 98.7668 30.8974L124.857 27.3246L131.005 45.1057L114.72 55.1595C112.504 55.0487 107.342 54.2621 104.417 52.0021Z" fill="#FFB687"/>
<path d="M98.8156 29.9672C98.84 34.4839 100.566 38.8254 103.651 42.1253C106.735 45.4252 110.95 47.4408 115.454 47.7701C119.959 48.0993 124.422 46.7179 127.954 43.9014C131.485 41.085 133.824 37.0407 134.505 32.5755C135.186 28.1104 134.158 23.5527 131.626 19.8119C129.095 16.0712 125.246 13.4225 120.848 12.3944C116.45 11.3663 111.826 12.0343 107.898 14.2652C103.971 16.4961 101.029 20.1259 99.6598 24.4301C99.0872 26.2195 98.8022 28.0885 98.8156 29.9672V29.9672Z" fill="#FFB687"/>
<path d="M104.622 15.6396C104.622 15.6396 128.026 21.1102 131.543 20.8543C135.059 20.5984 135.996 15.6396 135.996 15.6396C135.996 15.6396 126.358 9.39797 124.031 9.22847C121.705 9.05897 111.967 6.74909 110.644 7.94557C109.321 9.14206 106.759 11.6879 106.244 11.9106C105.729 12.1333 104.622 15.6396 104.622 15.6396Z" fill="#4A2521"/>
<path d="M116.095 36.8275C115.643 36.0797 115.49 34.9862 115.786 34.4046C115.842 34.2808 115.927 34.172 116.033 34.0871C116.139 34.0022 116.264 33.9436 116.397 33.9161C116.669 33.8984 116.936 33.9853 117.145 34.1587C117.469 34.3905 117.741 34.6878 117.943 35.0313C118.146 35.3748 118.273 35.7568 118.318 36.1528C118.372 36.6447 118.249 37.2164 117.82 37.459C117.092 37.8678 116.484 37.4623 116.095 36.8275Z" fill="#3B251D"/>
<path d="M104.509 38.5922C104.024 37.8643 103.815 36.7808 104.08 36.1859C104.131 36.0595 104.211 35.9468 104.313 35.8567C104.415 35.7667 104.537 35.7019 104.669 35.6674C104.939 35.6378 105.211 35.7114 105.43 35.8735C105.764 36.0896 106.049 36.3729 106.267 36.7054C106.485 37.0379 106.631 37.4123 106.696 37.8045C106.773 38.2897 106.68 38.868 106.264 39.1339C105.553 39.5793 104.915 39.2203 104.509 38.5922Z" fill="#3B251D"/>
<path d="M119.775 31.0107C119.786 30.8389 119.748 30.6675 119.666 30.5163C119.583 30.3651 119.46 30.2404 119.309 30.1566C119.009 29.9564 118.669 29.8248 118.312 29.771C116.838 29.4794 115.31 29.6404 113.929 30.233C113.388 30.4322 112.913 30.7773 112.556 31.2301C112.454 31.3629 112.389 31.5198 112.366 31.6854C112.374 31.895 112.456 32.0951 112.597 32.2503C112.738 32.4054 112.93 32.5056 113.138 32.5329C113.555 32.5737 113.976 32.5203 114.371 32.3767C115.831 31.9781 117.329 31.7319 118.841 31.6422C119.369 31.6223 119.718 31.353 119.775 31.0107Z" fill="#6E1E00"/>
<path d="M99.8428 34.7667C99.7662 34.6144 99.7338 34.4438 99.749 34.2741C99.7643 34.1044 99.8267 33.9423 99.9292 33.8062C100.127 33.5054 100.388 33.2513 100.694 33.0617C101.936 32.2088 103.408 31.7522 104.915 31.7522C105.494 31.7261 106.07 31.8619 106.576 32.1444C106.72 32.2238 106.841 32.3381 106.929 32.4767C107.003 32.6722 107.007 32.8877 106.938 33.0854C106.869 33.283 106.733 33.45 106.553 33.5569C106.185 33.7558 105.778 33.8694 105.36 33.8892C103.86 34.098 102.385 34.4611 100.96 34.9727C100.458 35.1688 100.029 35.0591 99.8428 34.7667Z" fill="#6E1E00"/>
<path d="M111.116 43.7469C110.715 43.8287 110.306 43.8644 109.896 43.8533C109.623 43.8492 109.358 43.7612 109.137 43.6013C108.916 43.4413 108.749 43.2171 108.66 42.9592C108.55 42.4873 108.793 42.0818 109.009 41.6796C109.25 41.2041 109.427 40.699 109.537 40.1774C109.774 38.9892 109.886 37.7794 109.87 36.568C109.87 35.9033 108.853 35.9033 108.843 36.568C108.819 37.944 108.806 39.3565 108.348 40.6726C108.015 41.5833 107.35 42.4839 107.729 43.4877C108.301 45.0198 110.076 44.9401 111.402 44.7373C112.04 44.6376 111.761 43.6505 111.116 43.7469Z" fill="#ED714E"/>
<path d="M108.429 47.8215C109.881 47.8531 111.331 47.7114 112.75 47.3994C114.441 46.9971 116.111 46.5078 117.752 45.9337C117.752 45.9337 117.283 48.6391 113.69 49.5365C110.097 50.4338 108.429 47.8215 108.429 47.8215Z" fill="white"/>
<path d="M130.128 17.8797C126.804 14.9317 123.813 15.1079 119.971 16.4938C118.449 15.5299 116.827 14.7522 115.009 14.5262C113.62 14.3534 112.682 14.7689 111.353 14.955C109.711 15.1876 108.84 13.9579 107.471 13.4162C102.954 11.6148 99.5178 15.3737 97.8693 19.1925C96.377 19.8572 95.1406 20.9673 95.0044 22.5161C94.9515 23.1921 95.1032 23.8684 95.4398 24.4571C93.9009 26.1886 93.7481 29.346 96.0746 30.4395C96.7009 30.7349 97.3802 30.9016 98.0721 30.9296C98.7641 30.9576 99.4546 30.8463 100.103 30.6023C101.685 29.9376 102.18 28.3024 103.38 27.2156C103.432 27.1713 103.474 27.1156 103.501 27.0529C103.529 26.9901 103.542 26.9219 103.539 26.8533C103.876 26.5451 104.293 26.3388 104.742 26.2584C106.032 26.1122 106.288 27.086 107.548 26.1554C108.608 25.3744 108.694 24.5368 110.073 24.3673C110.851 24.2676 111.496 24.5202 112.247 24.477C114.414 24.3507 116.235 22.8152 117.498 20.944C118.163 20.7446 118.828 20.5153 119.509 20.2793C119.628 21.408 120.128 22.4627 120.925 23.2705C121.466 23.8116 122.116 24.2308 122.833 24.5003C123.737 24.8526 123.989 24.7994 124.73 25.607C125.472 26.4146 125.395 26.9364 125.834 27.7673C127.383 30.7585 133.239 30.5957 135.259 28.1628C137.652 25.2913 132.298 19.8107 130.128 17.8797Z" fill="#6E1E00"/>
<path d="M138.11 34.7307C136.07 41.4144 129.23 43.7974 129.23 43.7974C129.23 43.7974 128.233 37.7451 128.462 33.9197C128.691 30.0943 131.274 27.1596 134.202 27.3291C137.13 27.4986 139.23 31.0648 138.11 34.7307Z" fill="#FFB687"/>
<path d="M131.956 32.1446C133.744 33.4541 134.648 35.6876 133.435 37.7083C133.033 38.373 132.029 37.7083 132.438 37.0436C133.302 35.6045 132.508 34.0524 131.281 33.165C130.646 32.703 131.321 31.696 131.956 32.1446Z" fill="#ED714E"/>
<path d="M109.195 60.9501C109.195 60.9501 112.645 70.3458 121.782 69.7044C130.918 69.0629 138.955 56.3237 138.955 56.3237L152.977 61.9339C152.977 61.9339 156.566 106.895 157.081 121.758C157.597 136.621 163.237 159.717 161.698 172.798C160.159 185.88 161.964 204.601 161.964 204.601C161.964 204.601 133.434 209.989 115.633 210.251C97.8322 210.514 82.9559 207.686 81.1612 207.686C79.3665 207.686 80.3901 201.019 81.1612 189.991C81.9323 178.963 86.4191 131.765 87.4427 114.327C88.1074 102.874 92.0293 85.1091 93.6013 80.4694C95.9278 73.6096 99.7433 66.5769 99.7433 66.5769L109.195 60.9501Z" fill="white"/>
<path d="M97.1484 97.4027C97.1484 97.4027 108.116 97.9179 115.634 97.9179C123.152 97.9179 136.649 97.4027 136.649 97.4027C136.649 97.4027 136.134 120.146 136.649 122.027C137.164 123.908 136.649 124.593 136.649 124.593C136.649 124.593 123.312 126.471 114.76 125.447C106.208 124.423 96.4172 123.785 96.4172 123.785L97.1484 97.4027Z" fill="#FCE7D8"/>
<path d="M141.049 57.1606C141.049 57.1606 142.495 93.9425 145.915 105.927C149.334 117.912 144.196 125.709 145.915 141.792C147.859 159.962 146.224 172.485 149.644 188.216C153.064 203.946 151.305 223.612 151.305 223.612C151.305 223.612 166.035 217.998 171.483 218.483C179.516 219.198 185.748 219.251 187.459 218.227C189.171 217.204 186.402 178.464 185.033 166.154C183.664 153.843 174.092 98.1036 174.092 95.1955C174.092 92.2874 171.014 69.0357 170.499 67.6664C169.984 66.2971 141.049 57.1606 141.049 57.1606Z" fill="#FFAC45"/>
<path d="M124.78 222.375C124.78 222.375 128.074 221.711 136.412 219.77C141.468 218.603 152.415 215.117 160.249 212.571C160.613 212.453 160.923 212.209 161.124 211.885C161.325 211.56 161.405 211.174 161.35 210.796C161.294 210.417 161.106 210.071 160.82 209.818C160.533 209.565 160.166 209.422 159.784 209.413L105.247 208.084L124.78 222.375Z" fill="#393939"/>
<path d="M148.36 183.905C148.36 183.905 131.433 194.59 128.512 195.617C125.59 196.644 119.448 202.287 119.448 202.287L122.529 211.69L125.853 214.425C125.853 214.425 127.209 215.502 129.682 215.239C133.291 214.854 138.592 209.958 139.107 209.616C139.622 209.274 150.391 208.034 155.522 206.153C160.654 204.272 162.445 198.439 162.445 198.439C162.445 198.439 163.13 188.435 162.96 187.75C162.791 187.066 148.36 183.905 148.36 183.905Z" fill="#FFB687"/>
<path d="M121.942 205.445C121.85 205.445 121.761 205.42 121.682 205.373C121.603 205.327 121.539 205.26 121.494 205.18C121.45 205.1 121.428 205.01 121.431 204.918C121.434 204.827 121.461 204.738 121.509 204.66C121.576 204.557 122.251 203.57 125.561 201.024C127.691 199.406 129.949 197.961 132.311 196.704C132.431 196.642 132.571 196.63 132.7 196.672C132.829 196.713 132.937 196.803 132.999 196.923C133.061 197.045 133.072 197.186 133.031 197.316C132.989 197.446 132.898 197.555 132.776 197.618C130.469 198.845 128.265 200.256 126.186 201.839C123.028 204.265 122.374 205.209 122.367 205.219C122.32 205.288 122.256 205.345 122.182 205.384C122.108 205.424 122.025 205.444 121.942 205.445V205.445Z" fill="#ED714E"/>
<path d="M26.811 168.41L39.9923 218.264C40.14 218.816 40.462 219.307 40.9105 219.662C41.3589 220.017 41.9099 220.218 42.4816 220.235L124.364 222.402C124.763 222.409 125.157 222.328 125.52 222.163C125.882 221.998 126.203 221.753 126.458 221.447C126.713 221.142 126.896 220.783 126.994 220.397C127.092 220.011 127.102 219.608 127.023 219.218L116.597 168.899C116.474 168.312 116.156 167.785 115.695 167.402C115.234 167.019 114.657 166.802 114.058 166.788L29.4067 165.087C28.9991 165.083 28.5963 165.174 28.2292 165.351C27.8622 165.528 27.5408 165.788 27.2899 166.109C27.039 166.43 26.8654 166.805 26.7823 167.204C26.6993 167.603 26.7091 168.016 26.811 168.41Z" fill="#393939"/>
<path d="M86.9372 75.2109C86.9372 75.2109 75.0055 83.5531 68.5911 95.8636C62.1766 108.174 56.3936 125.058 56.9054 126.354C57.4172 127.65 80.1704 130.984 80.1704 130.984L86.9372 75.2109Z" fill="#FFAC45"/>
<path d="M85.5218 241.037C85.5218 241.037 77.6616 244.885 77.4854 259.762C77.3093 274.638 72.1843 327.473 72.1843 328.227C72.1843 328.982 103.339 331.049 105.842 330.278C108.345 329.507 111.938 317.196 110.914 311.553C109.89 305.909 114.503 297.704 115.53 291.279C116.557 284.855 118.9 263.577 121.064 260.244C123.228 256.91 142.86 253.537 142.86 253.537L137.845 244.34L85.5218 241.037Z" fill="#A2AFDE"/>
<path d="M97.6035 339.468L96.294 345.557C96.294 345.557 96.4668 353.866 93.3892 358.958C90.3115 364.05 81.4243 371.411 79.1809 372.87C73.4444 376.593 66.4284 378.48 59.8211 376.922C56.7435 376.204 53.5329 373.741 55.2545 370.304C55.9425 368.929 75.3422 345.856 75.3422 345.856L76.1963 338.152L76.881 332.007L100.146 327.603L97.6035 339.468Z" fill="#FFB687"/>
<path d="M96.294 345.557C96.299 348.368 95.9823 351.17 95.3501 353.909C94.95 355.679 94.2891 357.381 93.3892 358.957C90.3115 364.026 81.4243 371.411 79.1809 372.87C73.4444 376.592 66.4284 378.48 59.8211 376.921C56.7435 376.203 53.5329 373.74 55.2545 370.304C55.2745 370.264 55.3177 370.201 55.3675 370.118C56.5773 368.323 66.003 356.986 71.4769 350.462C71.7627 350.13 72.0386 349.798 72.3078 349.465C74.1324 347.278 75.3422 345.842 75.3422 345.842L75.4353 345.012L75.5483 343.985L76.213 338.138L97.6134 339.451L96.294 345.557Z" fill="#EB755E"/>
<path d="M95.3501 353.912C94.95 355.683 94.2891 357.384 93.3892 358.961C90.3115 364.029 81.4243 371.414 79.1809 372.873C73.4444 376.595 66.4284 378.483 59.8211 376.924C56.7435 376.207 53.5329 373.744 55.2545 370.307C55.2745 370.267 55.3177 370.204 55.3675 370.121C56.2283 371.64 58.2424 373.99 62.5597 374.668C69.1072 375.695 78.596 370.942 84.7512 364.92C88.7029 361.054 92.8773 356.601 95.3501 353.912Z" fill="white"/>
<path d="M84.5248 346.361C81.5452 345.624 78.5008 345.178 75.4348 345.032L75.5478 344.005C78.6706 344.161 81.7707 344.622 84.804 345.381C85.4388 345.53 85.1729 346.514 84.5248 346.361Z" fill="white"/>
<path d="M81.918 351.459C78.4914 350.599 74.9817 350.516 71.4753 350.462C71.7612 350.13 72.037 349.798 72.3062 349.465C75.6298 349.515 78.9334 349.628 82.1839 350.462C82.832 350.629 82.5528 351.616 81.918 351.459Z" fill="white"/>
<path d="M94.7538 348.88C94.7538 351.29 93.6438 353.241 92.2711 353.241C90.8985 353.241 89.7917 351.29 89.7917 348.88C89.7917 346.47 90.9018 344.52 92.2711 344.52C93.6404 344.52 94.7538 346.48 94.7538 348.88Z" fill="white"/>
<path d="M72.1836 325.506C71.3261 326.533 70.9007 332.432 71.1566 333.459C71.4125 334.486 105.782 337.305 106.386 336.451C106.991 335.596 108.879 328.806 108.44 328.142C108.002 327.477 73.0377 324.482 72.1836 325.506Z" fill="#E5EEF4"/>
<path d="M148.361 183.906C148.361 183.906 181.929 154.023 182.43 153.684C182.932 153.345 208.082 151.288 208.082 151.288C208.082 151.288 213.257 164.871 207.224 172.835C202.352 179.266 157.76 200.194 157.76 200.194L148.361 183.906Z" fill="#FFB687"/>
<path d="M208.083 151.288L199.601 127.498L175.927 134.979L170.806 138.828L181.913 161.149L208.083 151.288Z" fill="#FFB687"/>
<path d="M170.501 67.6498C170.501 67.6498 181.801 72.439 186.747 84.4072C191.692 96.3754 207.353 129.079 207.353 129.079C207.353 129.079 199.014 129.312 188.243 133.3C177.471 137.289 169.684 144.172 169.684 144.172C169.684 144.172 167.939 112.963 167.597 109.886C167.254 106.808 170.501 67.6498 170.501 67.6498Z" fill="#FFAC45"/>
<path d="M126.472 208.034C126.375 208.034 126.279 208.007 126.197 207.954C126.115 207.902 126.049 207.827 126.008 207.739C125.967 207.651 125.952 207.552 125.965 207.456C125.977 207.359 126.017 207.268 126.08 207.194C126.21 207.041 129.254 203.428 133.059 201.101C136.865 198.775 139.58 197.495 139.607 197.482C139.728 197.436 139.863 197.438 139.983 197.486C140.104 197.535 140.201 197.628 140.256 197.745C140.311 197.863 140.32 197.997 140.28 198.121C140.241 198.245 140.156 198.349 140.042 198.413C137.829 199.491 135.673 200.681 133.581 201.979C129.925 204.216 126.898 207.818 126.868 207.855C126.819 207.912 126.758 207.958 126.69 207.989C126.622 208.02 126.547 208.035 126.472 208.034V208.034Z" fill="#ED714E"/>
<path d="M180.336 156.034C180.229 156.037 180.123 156.007 180.033 155.946C179.944 155.886 179.876 155.799 179.839 155.697C179.803 155.596 179.799 155.486 179.828 155.382C179.858 155.278 179.919 155.187 180.004 155.12L185.894 150.467C185.946 150.425 186.007 150.394 186.072 150.376C186.136 150.358 186.204 150.352 186.271 150.36C186.338 150.368 186.402 150.389 186.461 150.422C186.52 150.455 186.571 150.499 186.613 150.552C186.655 150.605 186.686 150.665 186.704 150.73C186.722 150.795 186.728 150.862 186.72 150.929C186.712 150.996 186.691 151.06 186.658 151.119C186.625 151.178 186.581 151.23 186.528 151.271L180.642 155.924C180.554 155.992 180.447 156.03 180.336 156.034Z" fill="#ED714E"/>
<path d="M78.4059 252.544H78.3893C78.2535 252.538 78.1252 252.48 78.032 252.381C77.9387 252.283 77.888 252.151 77.8907 252.015C77.9107 251.447 78.3959 238.01 83.0389 230.837C87.7185 223.605 95.4757 221.94 95.8048 221.864C95.9307 221.851 96.0568 221.886 96.1588 221.961C96.2608 222.036 96.3314 222.146 96.3571 222.27C96.3827 222.393 96.3615 222.522 96.2975 222.632C96.2336 222.741 96.1314 222.823 96.0108 222.861C95.9344 222.861 88.3367 224.523 83.8997 231.376C79.4129 238.312 78.9144 251.896 78.9144 252.032C78.9144 252.167 78.8609 252.297 78.7657 252.393C78.6704 252.488 78.5411 252.543 78.4059 252.544V252.544Z" fill="#005895"/>
<path d="M73.2081 128.86C73.0723 128.859 72.9427 128.804 72.847 128.707C72.7512 128.611 72.6971 128.481 72.6963 128.345C72.6963 127.561 74.4312 102.521 76.3855 93.5241C78.3264 84.6568 78.8515 83.4338 78.9047 83.3274C78.9701 83.2134 79.0766 83.1287 79.2023 83.0906C79.3281 83.0525 79.4637 83.0639 79.5814 83.1225C79.699 83.1811 79.7898 83.2825 79.8351 83.4058C79.8805 83.5292 79.877 83.6652 79.8253 83.7861C79.8253 83.8226 79.2703 85.0789 77.3858 93.7568C75.4349 102.76 73.7299 127.607 73.7299 128.358C73.7256 128.494 73.6686 128.622 73.5711 128.716C73.4736 128.809 73.3434 128.861 73.2081 128.86V128.86Z" fill="#D6844B"/>
<path d="M169.582 142.893C169.465 142.892 169.352 142.852 169.262 142.779C169.171 142.706 169.108 142.604 169.083 142.49C168.751 140.905 160.592 103.605 160.851 95.8475C161.452 77.8238 171.27 71.5854 171.689 71.3195C171.746 71.2842 171.81 71.2604 171.876 71.2497C171.942 71.2389 172.01 71.2413 172.076 71.2567C172.141 71.2721 172.203 71.3003 172.257 71.3396C172.312 71.3789 172.358 71.4285 172.394 71.4857C172.429 71.5429 172.453 71.6065 172.463 71.6728C172.474 71.7392 172.472 71.807 172.456 71.8724C172.441 71.9379 172.413 71.9996 172.373 72.0542C172.334 72.1087 172.285 72.155 172.227 72.1903C172.128 72.2501 162.459 78.4453 161.878 95.8807C161.622 103.525 170.001 141.886 170.084 142.271C170.099 142.337 170.101 142.405 170.089 142.471C170.078 142.538 170.053 142.601 170.017 142.658C169.981 142.715 169.934 142.764 169.879 142.803C169.823 142.841 169.761 142.869 169.695 142.883L169.582 142.893Z" fill="#D6844B"/>
<path d="M64.7424 253.092C64.626 253.092 64.5131 253.052 64.4225 252.978C64.3318 252.905 64.2689 252.804 64.2439 252.69C64.2439 252.63 62.9444 246.83 61.1762 241.19C59.4679 235.736 54.6488 233.313 54.6022 233.29C54.5418 233.26 54.4878 233.219 54.4433 233.169C54.3988 233.118 54.3647 233.059 54.3429 232.995C54.3212 232.932 54.3122 232.864 54.3165 232.797C54.3208 232.73 54.3382 232.664 54.3679 232.604C54.3976 232.543 54.4389 232.489 54.4894 232.445C54.54 232.4 54.5988 232.366 54.6625 232.345C54.7263 232.323 54.7937 232.314 54.8609 232.318C54.9281 232.322 54.9938 232.34 55.0542 232.37C55.2669 232.476 60.3154 235.028 62.1567 240.884C63.9381 246.568 65.231 252.411 65.2443 252.467C65.2595 252.533 65.2614 252.601 65.25 252.667C65.2386 252.734 65.2141 252.797 65.1779 252.854C65.1417 252.911 65.0946 252.96 65.0392 252.999C64.9839 253.037 64.9214 253.065 64.8554 253.079C64.8185 253.088 64.7805 253.092 64.7424 253.092Z" fill="#005895"/>
<path d="M121.261 259.59C121.225 259.593 121.19 259.593 121.154 259.59C121.021 259.562 120.905 259.483 120.83 259.369C120.756 259.256 120.729 259.118 120.755 258.985L122.208 251.939C122.251 251.824 122.334 251.728 122.441 251.668C122.549 251.609 122.674 251.59 122.795 251.615C122.915 251.64 123.022 251.707 123.098 251.804C123.173 251.901 123.211 252.022 123.205 252.145L121.752 259.191C121.726 259.302 121.663 259.402 121.574 259.474C121.485 259.546 121.375 259.587 121.261 259.59V259.59Z" fill="#005895"/>
<path d="M124.377 221.03C124.26 221.029 124.146 220.989 124.055 220.915C123.964 220.842 123.901 220.739 123.876 220.624L113.317 170.106L27.8079 168.079C27.6718 168.075 27.5427 168.018 27.4486 167.92C27.3546 167.821 27.3033 167.69 27.306 167.554C27.3054 167.486 27.3188 167.418 27.3454 167.356C27.3719 167.293 27.411 167.237 27.4602 167.19C27.5095 167.143 27.5678 167.107 27.6316 167.084C27.6954 167.061 27.7633 167.051 27.8311 167.055L114.164 169.116L124.889 220.425C124.903 220.491 124.904 220.559 124.892 220.625C124.88 220.691 124.855 220.755 124.818 220.811C124.781 220.868 124.734 220.916 124.678 220.954C124.622 220.993 124.56 221.019 124.494 221.033C124.455 221.038 124.416 221.037 124.377 221.03Z" fill="#4B4B4B"/>
<path d="M113.735 170.118C113.612 170.116 113.494 170.07 113.402 169.989C113.352 169.944 113.311 169.89 113.281 169.829C113.251 169.769 113.234 169.703 113.23 169.635C113.226 169.568 113.235 169.501 113.258 169.437C113.28 169.373 113.314 169.315 113.359 169.264L114.984 167.426C115.025 167.366 115.077 167.315 115.139 167.276C115.201 167.238 115.27 167.213 115.342 167.203C115.414 167.193 115.487 167.199 115.556 167.219C115.626 167.24 115.691 167.275 115.745 167.323C115.8 167.371 115.845 167.429 115.875 167.495C115.906 167.561 115.922 167.633 115.922 167.706C115.923 167.778 115.908 167.85 115.879 167.917C115.849 167.983 115.806 168.043 115.752 168.091L114.127 169.929C114.08 169.988 114.02 170.035 113.952 170.068C113.884 170.101 113.81 170.118 113.735 170.118V170.118Z" fill="#544743"/>
<path d="M108.285 177.188H108.238L96.3731 176.945C95.8348 176.929 95.3163 176.739 94.8964 176.401C94.4765 176.064 94.1781 175.599 94.0466 175.077C93.9375 174.695 93.921 174.293 93.9984 173.903C94.0759 173.514 94.2451 173.148 94.4919 172.837C94.7362 172.546 95.0416 172.313 95.3863 172.154C95.7309 171.995 96.1065 171.914 96.4861 171.916L108.374 172.249C108.947 172.266 109.497 172.481 109.928 172.858C110.36 173.235 110.647 173.751 110.741 174.316V174.316C110.799 174.669 110.779 175.03 110.683 175.375C110.588 175.72 110.418 176.039 110.187 176.312C109.956 176.585 109.668 176.804 109.343 176.955C109.019 177.105 108.666 177.184 108.308 177.184L108.285 177.188ZM96.3897 172.943C96.1709 172.944 95.9551 172.994 95.7586 173.091C95.5621 173.187 95.3901 173.327 95.2556 173.499C95.1211 173.672 95.0276 173.873 94.9823 174.087C94.9369 174.301 94.9409 174.523 94.9938 174.735C95.0593 175.06 95.2323 175.353 95.4849 175.568C95.7375 175.783 96.0551 175.906 96.3864 175.918L108.252 176.161C108.462 176.165 108.671 176.123 108.864 176.038C109.056 175.953 109.228 175.827 109.367 175.669C109.505 175.511 109.608 175.324 109.667 175.122C109.725 174.92 109.739 174.707 109.707 174.499V174.499C109.654 174.169 109.487 173.867 109.235 173.647C108.983 173.427 108.662 173.301 108.328 173.292L96.4362 172.96L96.3897 172.943Z" fill="#4B4B4B"/>
<path d="M73.6932 312.032H73.65C73.5144 312.02 73.389 311.955 73.3012 311.851C73.2134 311.747 73.1703 311.612 73.1814 311.477L74.441 297.119C74.4553 296.984 74.521 296.86 74.6244 296.773C74.7278 296.686 74.861 296.642 74.9961 296.65C75.1317 296.663 75.2568 296.729 75.344 296.833C75.4312 296.938 75.4734 297.073 75.4614 297.209L74.2051 311.566C74.1927 311.694 74.1334 311.812 74.0388 311.898C73.9442 311.984 73.8211 312.032 73.6932 312.032V312.032Z" fill="#005895"/>
<path d="M219.64 196.511C219.513 196.512 219.39 196.465 219.296 196.379C219.202 196.294 219.143 196.176 219.132 196.049C219.112 195.833 217.084 174.446 215.442 167.261C213.801 160.075 209.716 150.643 209.676 150.547C209.639 150.427 209.647 150.298 209.699 150.184C209.75 150.071 209.842 149.98 209.956 149.928C210.07 149.877 210.199 149.87 210.318 149.907C210.437 149.944 210.539 150.024 210.603 150.131C210.643 150.227 214.771 159.769 216.43 167.025C218.088 174.28 220.119 195.73 220.139 195.94C220.145 196.007 220.138 196.074 220.118 196.139C220.099 196.203 220.066 196.263 220.024 196.315C219.981 196.367 219.928 196.41 219.868 196.441C219.809 196.473 219.744 196.492 219.677 196.498L219.64 196.511Z" fill="#393939"/>
<path d="M232.569 208.397C232.456 208.397 232.346 208.36 232.256 208.29L220.547 199.317C220.494 199.276 220.449 199.225 220.415 199.166C220.382 199.108 220.36 199.043 220.351 198.977C220.342 198.91 220.347 198.842 220.364 198.777C220.382 198.712 220.412 198.651 220.453 198.597C220.494 198.544 220.545 198.499 220.603 198.465C220.662 198.431 220.726 198.41 220.793 198.401C220.86 198.392 220.928 198.396 220.993 198.414C221.058 198.431 221.119 198.461 221.172 198.502L232.881 207.476C232.99 207.559 233.06 207.682 233.079 207.817C233.097 207.952 233.06 208.089 232.978 208.197C232.929 208.259 232.867 208.31 232.796 208.344C232.725 208.379 232.648 208.397 232.569 208.397V208.397Z" fill="#3B4A73"/>
<path d="M233.088 251.999C232.954 251.999 232.825 251.948 232.728 251.854C232.632 251.761 232.576 251.634 232.573 251.5L232.057 212.614C232.056 212.478 232.109 212.348 232.203 212.25C232.298 212.153 232.427 212.096 232.563 212.092C232.63 212.091 232.698 212.102 232.761 212.127C232.824 212.152 232.882 212.189 232.931 212.237C232.979 212.284 233.018 212.341 233.044 212.403C233.071 212.466 233.084 212.533 233.084 212.601L233.6 251.487C233.6 251.554 233.588 251.621 233.563 251.683C233.538 251.745 233.501 251.802 233.454 251.851C233.407 251.899 233.351 251.937 233.29 251.964C233.228 251.99 233.162 252.004 233.094 252.005L233.088 251.999Z" fill="#3B4A73"/>
</g>
<defs>
<clipPath id="clip0_84_33015">
<rect width="300" height="381.496" fill="white" transform="translate(0 0.234253)"/>
</clipPath>
</defs>
</svg>
