<svg width="551" height="373" viewBox="0 0 551 373" fill="none" xmlns="http://www.w3.org/2000/svg">
<path d="M481.866 316.812C482.65 335.42 450.16 348.271 430.322 353.033C401.819 359.875 372.123 363.917 342.747 367.105C286.586 373.192 229.828 374.57 173.333 371.217C121.933 368.16 68.6424 362.438 23.3302 340.582C15.147 336.635 7.14273 331.735 2.90843 324.695C-9.51333 304.022 22.6188 290.236 41.473 285.156C67.5473 278.136 94.1601 272.573 121.132 268.504C179.067 259.763 238.445 257.5 297.116 261.326C348.034 264.645 413.41 269.556 458.484 291.15C464.78 294.169 470.773 297.83 475.123 302.663C479.638 307.69 481.687 312.413 481.866 316.812Z" fill="#E6D1D1"/>
<g clip-path="url(#clip0_84_32812)">
<path d="M248.457 279.407L232.33 277.914C232.492 277.156 232.656 276.397 232.823 275.638C232.854 275.486 232.562 275.346 232.528 275.495L232.014 277.882L230.114 277.709C229.936 277.691 230.056 277.974 230.235 277.992L231.956 278.15C231.213 281.608 230.465 285.064 229.713 288.519L225.186 309.454C224.494 312.655 223.801 315.856 223.109 319.056C223.091 319.139 223.22 319.279 223.316 319.268C224.538 319.134 225.879 319.282 227.165 319.302H227.622C227.982 319.299 228.342 319.276 228.699 319.233C230.259 319.032 231.151 318.183 231.82 317.004C233.416 314.184 234.844 311.23 236.278 308.299C239.189 302.392 241.924 296.362 244.483 290.207C244.547 290.051 244.612 289.897 244.674 289.741C246.053 286.411 247.38 283.046 248.655 279.648C248.695 279.552 248.582 279.418 248.457 279.407Z" fill="#090909"/>
<path d="M308.634 257.472L324.761 255.979C324.599 255.221 324.435 254.462 324.268 253.703C324.237 253.551 324.529 253.411 324.563 253.56L325.077 255.948L326.977 255.774C327.155 255.756 327.034 256.039 326.856 256.057L325.135 256.215C325.878 259.673 326.626 263.129 327.378 266.584L331.905 287.519C332.597 290.72 333.29 293.921 333.982 297.121C334 297.204 333.871 297.344 333.775 297.333C332.553 297.2 331.212 297.347 329.925 297.367H329.469C329.109 297.364 328.749 297.341 328.392 297.298C326.832 297.097 325.94 296.248 325.271 295.069C323.675 292.249 322.247 289.296 320.813 286.364C317.902 280.458 315.167 274.427 312.608 268.272C312.544 268.116 312.479 267.962 312.417 267.806C311.038 264.476 309.711 261.111 308.436 257.713C308.396 257.617 308.509 257.483 308.634 257.472Z" fill="#090909"/>
<path d="M108.477 253.551L96.8859 252.479L92.3387 252.057C92.5007 251.3 92.6649 250.541 92.8313 249.782C92.8625 249.63 92.5705 249.49 92.5371 249.639L92.0222 252.026L90.1231 251.852C89.9448 251.835 90.0651 252.118 90.2435 252.135L91.9643 252.294C91.2554 255.563 90.5481 258.832 89.8423 262.101C89.6595 262.944 89.4774 263.786 89.2961 264.629C87.9275 270.95 86.5604 277.271 85.1948 283.591C84.5008 286.792 83.8084 289.993 83.1174 293.193C83.0996 293.276 83.2288 293.416 83.3247 293.405C85.0432 293.216 87.0047 293.588 88.7077 293.37C90.268 293.169 91.1596 292.32 91.8283 291.141C93.4242 288.321 94.853 285.368 96.2863 282.436C98.7768 277.397 101.137 272.264 103.366 267.036C103.749 266.145 104.127 265.248 104.5 264.346C105.949 260.864 107.34 257.345 108.673 253.787C108.715 253.696 108.601 253.562 108.477 253.551Z" fill="#090909"/>
<path d="M357.084 170.744C355.078 166.063 352.069 161.986 348.467 158.484C344.401 154.532 339.571 151.314 334.525 148.793C330.177 146.635 325.643 144.877 320.977 143.539C317.235 142.463 313.431 141.613 309.587 140.994C298.056 139.108 286.109 139.059 274.369 139.707C269.792 139.962 265.248 140.323 260.772 140.724C259.88 140.801 258.997 140.881 258.124 140.965C252.64 141.475 247.162 142.043 241.68 142.572C239.113 142.821 236.544 143.058 233.975 143.283L232.225 143.43C230.313 143.587 228.399 143.732 226.483 143.864C223.363 144.087 220.229 144.25 217.097 144.362C210.296 144.638 203.484 144.529 196.695 144.034C193.351 143.773 190.033 143.327 186.707 142.919C185.98 142.83 185.251 142.743 184.525 142.659C182.414 142.416 180.29 142.213 178.181 142.084C177.795 142.063 177.408 142.043 177.022 142.028C176.748 142.017 176.474 142.008 176.199 142.003C171.831 141.89 167.464 142.324 163.412 143.858C162.618 143.599 161.822 143.354 161.022 143.122C160.523 142.974 160.023 142.833 159.522 142.701C156.224 141.811 152.874 141.126 149.492 140.65C146.231 140.192 142.945 139.925 139.653 139.852C137.455 139.799 135.257 139.832 133.06 139.953C120.138 140.653 107.377 144.263 96.0761 150.683C95.2157 151.172 94.365 151.677 93.5239 152.199C74.9854 163.674 61.6025 182.807 56.5561 203.983C56.2871 205.108 56.0405 206.24 55.8161 207.38C53.9705 216.759 53.6918 226.549 55.903 235.877C57.198 241.327 59.4003 246.744 62.6925 251.309C65.0998 254.652 68.0889 257.534 71.7288 259.645C77.0784 262.75 83.2995 263.628 89.3178 264.636L90.0757 264.765L103.365 267.036L108.674 267.946L112.281 268.568C113.767 268.822 115.253 269.076 116.739 269.33L129.703 271.559L136.59 272.738L156.743 276.175L159.803 276.699C173.23 278.995 186.656 281.291 200.081 283.587L201.496 283.83C208.27 284.991 215.04 286.183 221.822 287.302L223.561 287.588C225.607 287.922 227.658 288.241 229.713 288.524C231.568 288.782 233.429 289.012 235.286 289.193C238.406 289.509 241.527 289.712 244.67 289.739H244.75C246.31 289.75 247.87 289.712 249.431 289.616C249.689 289.603 249.946 289.587 250.204 289.567C255.403 289.208 260.54 288.229 265.506 286.651C271.97 284.585 278.145 281.676 284.196 278.612C294.713 273.289 305.216 267.823 315.179 261.526C324.57 255.597 333.566 248.821 340.998 240.523C348.775 231.829 354.296 221.632 357.107 210.3C357.278 209.604 357.445 208.906 357.601 208.204C357.812 207.286 358.01 206.362 358.194 205.434C358.66 203.093 359.05 200.728 359.356 198.357C359.694 195.735 359.931 193.101 360.053 190.477C360.053 190.343 360.053 190.21 360.071 190.076C360.368 183.514 359.699 176.825 357.084 170.744Z" fill="#F8B67C"/>
<path d="M351.752 127.475C350.548 118.909 347.517 110.648 343.159 103.179C336.523 91.7974 326.961 82.6251 315.847 75.8244C311.771 73.3364 307.511 71.1635 303.104 69.3247C292.985 65.0896 282.219 62.4661 271.294 61.3003C265.578 60.686 259.827 60.4551 254.08 60.6093C252.252 60.6583 250.429 60.7438 248.61 60.8656C246.864 60.9845 245.122 61.1331 243.385 61.3114C241.953 61.46 240.522 61.6376 239.094 61.8442L238.218 61.969C235.477 62.3732 232.749 62.8621 230.036 63.4357L228.921 63.6764L228.453 63.7812C226.879 64.1363 225.312 64.519 223.75 64.9291C222.518 65.253 221.291 65.5941 220.068 65.9522C214.908 67.4649 209.847 69.2916 204.91 71.4221C201.665 72.8219 198.479 74.3525 195.353 76.0139C192.791 77.3758 190.248 78.8179 187.758 80.3537C182.019 83.8956 176.56 87.9323 171.808 92.6778C165.446 99.0193 160.522 106.683 156.896 114.876C154.282 120.852 152.266 127.071 150.878 133.444C150.347 135.821 149.888 138.218 149.5 140.635C148.88 144.455 148.426 148.309 148.098 152.176C147.516 159.017 147.329 165.902 147.325 172.734C147.325 174.256 147.331 175.778 147.345 177.299C143.464 176.524 139.565 175.853 135.645 175.318L134.753 175.197C134.61 175.177 134.613 175.402 134.753 175.42C135.127 175.469 135.5 175.521 135.868 175.574C139.717 176.102 143.54 176.764 147.345 177.518C147.378 181.14 147.443 184.76 147.51 188.38C147.51 188.409 147.521 188.437 147.542 188.458C147.563 188.479 147.591 188.491 147.621 188.491C147.651 188.491 147.679 188.479 147.7 188.458C147.721 188.437 147.732 188.409 147.732 188.38C147.666 184.786 147.601 181.175 147.565 177.562C161.354 180.306 174.904 184.249 188.554 187.651H188.601C191.288 188.319 193.977 188.961 196.67 189.577C196.957 189.646 197.247 189.71 197.537 189.775C199.851 190.294 202.167 190.796 204.487 191.282C212.838 193.044 221.228 194.599 229.657 195.947C233.776 196.604 237.903 197.215 242.039 197.779C248.226 198.625 254.426 199.368 260.637 200.008L261.449 200.091C270.204 200.982 278.978 201.667 287.771 202.144C287.936 202.144 288.099 202.164 288.264 202.17C289.717 202.251 291.171 202.325 292.626 202.393L293.758 202.444C298.721 202.672 303.687 202.836 308.657 202.937C313.413 203.035 318.656 203.606 323.234 202.012C326.937 200.721 329.676 197.846 331.787 194.641C334.277 190.852 336.178 186.663 338.193 182.62C341.982 175.001 345.609 167.24 348.257 159.133C348.328 158.91 348.397 158.703 348.466 158.487C348.813 157.405 349.14 156.318 349.447 155.228C351.99 146.205 353.063 136.79 351.752 127.475Z" fill="#F8B67C"/>
<path d="M111.41 313.272C107.224 312.51 98.616 312.323 98.7052 312.381C98.0565 314.792 97.4391 317.117 96.728 319.324C95.462 323.272 93.9084 326.84 91.3918 329.838C89.3233 332.29 86.6686 334.191 84.3616 336.414C83.1156 337.613 81.9275 338.866 80.7707 340.156C79.7855 341.251 78.6041 342.356 77.902 343.662C77.3537 344.683 77.3113 345.891 78.2698 346.669C79.2282 347.447 80.6838 347.661 81.8562 347.884C83.3474 348.167 84.8475 348.196 86.2696 347.608C87.3905 347.104 88.4126 346.404 89.2877 345.541C90.3487 344.554 91.2938 343.448 92.3124 342.421C93.4361 341.286 94.6546 340.248 95.9546 339.32C97.2646 338.387 98.6516 337.567 100.101 336.868C101.375 336.255 102.818 335.841 103.89 334.896C105.107 333.835 105.869 332.254 106.464 330.785C107.16 329.062 107.626 327.255 108.123 325.467C108.757 323.185 109.393 320.903 110.031 318.622L111.482 313.419C111.488 313.39 111.485 313.36 111.472 313.333C111.459 313.307 111.437 313.285 111.41 313.272V313.272Z" fill="#514A43"/>
<path d="M250.071 92.4258C249.944 87.9522 249.739 83.4809 249.505 79.0117C249.388 76.7575 249.263 74.504 249.13 72.2512C249.015 70.2652 249.046 68.2011 248.653 66.2463C248.315 64.5634 247.448 63.1948 245.945 62.3322C245.14 61.8854 244.279 61.5445 243.386 61.318C241.954 61.4666 240.524 61.6442 239.096 61.8507L238.22 61.9689C235.478 62.373 232.75 62.8619 230.037 63.4355L228.922 63.6763L228.454 63.781C226.881 64.1362 225.313 64.5188 223.751 64.929C222.966 66.1027 222.249 67.3202 221.602 68.5756C219.255 73.1138 217.954 78.0176 217.514 83.0975C217.256 86.0843 217.124 89.0935 216.355 92.0134C215.743 94.238 214.904 96.3936 213.85 98.4463C211.764 102.617 209.109 106.471 206.802 110.503C204.319 114.849 202.235 119.528 202.063 124.606C202.063 124.635 202.075 124.664 202.096 124.685C202.117 124.705 202.145 124.717 202.175 124.717C210.937 123.734 219.701 125.201 228.477 125.054C232.357 124.987 236.263 124.608 240.018 123.594C241.822 123.112 243.576 122.463 245.259 121.655C246.754 120.93 248.489 120.076 249.258 118.509C249.65 117.716 249.77 116.827 249.835 115.951C249.915 114.876 249.955 113.795 250.002 112.716C250.1 110.465 250.164 108.212 250.194 105.958C250.256 101.442 250.203 96.9328 250.071 92.4258Z" fill="#DC9F6A"/>
<path d="M146.991 202.668C146.993 202.628 146.993 202.589 146.991 202.549C146.991 202.471 146.991 202.393 146.991 202.313C146.976 201.845 146.951 201.376 146.915 200.907C146.46 195.288 144.868 189.82 142.234 184.836C140.492 181.507 138.357 178.4 135.875 175.581L135.652 175.325C134.385 173.902 133.034 172.556 131.606 171.295C129.848 169.739 127.977 168.316 126.007 167.039L125.784 166.89C125.469 166.686 125.151 166.488 124.83 166.295C121.908 164.527 118.366 163.219 116.291 160.377C116.014 160.001 115.769 159.602 115.56 159.184C116.55 158.521 117.492 157.789 118.379 156.993C118.602 156.802 118.277 156.487 118.065 156.679C117.216 157.439 116.317 158.142 115.375 158.783C114.896 157.703 114.741 156.508 114.929 155.342C114.976 155.061 114.548 154.94 114.499 155.223C114.256 156.522 114.412 157.863 114.945 159.071C108.24 163.491 99.9033 165.174 93.6955 170.481C93.165 170.927 92.6524 171.396 92.1575 171.887C86.6096 177.288 83.0722 184.417 78.5451 190.633C76.0107 194.115 73.0974 197.385 69.4642 199.748C65.0731 202.601 60.0623 204.239 55.825 207.38C53.9794 216.759 53.7008 226.549 55.9119 235.877C57.207 241.327 59.4092 246.744 62.7014 251.309C65.1087 254.652 68.0978 257.534 71.7377 259.645C77.0873 262.75 83.3084 263.628 89.3267 264.636L90.0846 264.765L103.365 267.036L108.674 267.946L112.281 268.568C113.767 268.822 115.253 269.076 116.739 269.33C117.695 267.293 118.6 265.231 119.579 263.207C121.195 259.861 122.915 256.569 124.736 253.333C131.085 242.072 139.252 231.68 143.866 219.525C143.937 219.336 144.006 219.147 144.077 218.955C145.992 213.746 147.129 208.224 146.991 202.668Z" fill="#DC9F6A"/>
<path d="M105.923 235.792C105.903 234.961 105.865 234.13 105.836 233.3C105.688 229.14 105.535 224.973 105.379 220.8C105.378 220.767 105.363 220.735 105.338 220.712C105.314 220.689 105.281 220.677 105.248 220.678C101.102 221.208 93.0641 223.575 92.8813 223.689C93.1198 228.914 93.3672 233.751 92.4868 238.227C92.2031 239.703 91.7745 241.149 91.2073 242.542C89.9836 245.518 88.0288 248.114 86.5042 250.941C85.6817 252.463 84.9305 254.023 84.2172 255.599C83.6109 256.937 82.8196 258.35 82.5477 259.808C82.3248 260.949 82.6592 262.106 83.8115 262.563C84.9639 263.02 86.4105 262.786 87.6008 262.632C88.3711 262.548 89.1284 262.373 89.8566 262.108C90.5353 261.857 91.1662 261.492 91.7222 261.029C92.6385 260.21 93.4003 259.233 93.9713 258.145C94.6846 256.881 95.2463 255.544 95.906 254.253C96.2151 253.65 96.5465 253.055 96.9002 252.47C97.3743 251.684 97.8876 250.922 98.4382 250.187C99.4021 248.9 100.474 247.697 101.643 246.592C102.671 245.622 103.921 244.786 104.666 243.558C105.504 242.179 105.752 240.438 105.872 238.862C105.945 237.836 105.948 236.82 105.923 235.792Z" fill="#514A43"/>
<path d="M214.369 217.981C214.37 217.94 214.361 217.9 214.343 217.865C214.325 217.829 214.297 217.798 214.264 217.776C214.23 217.754 214.192 217.74 214.152 217.737C214.112 217.734 214.071 217.741 214.035 217.758C205.553 221.788 196.76 226.355 191.366 234.37C190.742 235.306 190.189 236.286 189.71 237.304C188.372 240.11 187.536 243.099 186.502 246.084C185.762 248.226 184.853 250.372 183.382 252.124C181.806 253.999 179.673 255.154 177.539 256.277C170.159 260.16 164.288 266.147 160.918 273.826C160.506 274.766 160.135 275.723 159.803 276.694C173.231 278.99 186.657 281.286 200.081 283.582C200.26 269.094 202.937 254.674 206.991 240.745C207.471 239.096 207.969 237.453 208.484 235.817C208.694 235.153 208.907 234.49 209.122 233.829C210.162 230.649 211.259 227.489 212.412 224.349C213.168 222.288 213.947 220.235 214.748 218.19C214.833 217.963 214.534 217.847 214.369 217.981Z" fill="#DC9F6A"/>
<path d="M243.444 191.654C240.918 191.415 238.353 191.057 235.816 190.626C221.97 188.29 208.983 183.908 208.259 186.124C207.338 186.478 205.807 186.973 203.79 187.57C201.826 188.157 199.408 188.843 196.668 189.601C195.741 189.858 194.775 190.122 193.771 190.392C179.83 194.182 159.629 199.351 146.98 202.674L145.553 203.049L143.036 203.717C139.916 204.549 137.555 205.197 136.292 205.583C135.153 205.931 133.989 206.272 132.843 206.657C129.961 207.625 127.182 208.873 125.149 211.224C122.452 214.345 121.422 218.502 120.417 222.401C117.751 232.73 115.086 243.057 112.424 253.384L108.677 267.95C107.263 273.42 105.852 278.891 104.442 284.362C101.777 294.691 99.1127 305.019 96.4483 315.345L95.4408 319.255C95.4364 319.271 95.4358 319.289 95.4391 319.305C95.4424 319.322 95.4495 319.338 95.4598 319.351C95.4701 319.365 95.4835 319.376 95.4987 319.384C95.514 319.391 95.5308 319.395 95.5478 319.395L96.7381 319.333L110.052 318.631L119.748 318.118C119.765 318.118 119.782 318.114 119.797 318.106C119.813 318.099 119.826 318.088 119.836 318.074C119.847 318.061 119.854 318.045 119.858 318.028C119.861 318.012 119.861 317.994 119.857 317.978C118.266 311.427 122.01 305.105 125.789 300.054C129.25 295.425 133.287 290.757 134.575 284.966C135.262 281.886 134.696 278.694 135.364 275.62C135.587 274.583 136.009 273.599 136.606 272.722C137.524 271.358 138.81 270.27 140.255 269.312C142.239 268.006 144.385 266.938 146.228 265.425C148.348 263.682 149.559 261.348 150.626 258.867C151.754 256.241 153.97 248.714 156.199 246.793C158.428 244.871 166.296 242.185 169.127 241.485C172.426 240.669 175.783 240.057 179.115 239.383C182.594 238.68 186.077 237.995 189.564 237.328L189.714 237.299C196.111 236.08 202.559 235.113 208.95 233.858L209.122 233.824C209.737 233.704 210.351 233.58 210.963 233.452C225.984 230.331 233.75 219.53 237.902 210.184C240.142 205.144 241.333 200.53 242.044 197.775C242.157 197.329 242.267 196.939 242.351 196.598C242.782 195.002 243.184 193.399 243.555 191.79C243.559 191.773 243.559 191.756 243.555 191.74C243.551 191.723 243.543 191.708 243.533 191.695C243.522 191.682 243.508 191.671 243.493 191.664C243.477 191.657 243.461 191.654 243.444 191.654Z" fill="#A54740"/>
<path d="M204.485 191.3C204.331 190.041 204.099 188.793 203.79 187.564C203.791 187.556 203.791 187.549 203.79 187.542C203.045 184.459 201.744 181.34 199.332 179.185C198.034 178.043 196.472 177.242 194.787 176.852C193.103 176.463 191.348 176.499 189.68 176.956C189.538 175.828 189.321 174.712 189.032 173.613C188.816 172.809 188.549 172.021 188.231 171.252L189.283 170.619C189.308 170.604 189.326 170.579 189.333 170.551C189.34 170.522 189.336 170.492 189.321 170.467C189.306 170.442 189.282 170.424 189.254 170.416C189.225 170.409 189.195 170.413 189.17 170.427L188.142 171.045C188.055 170.842 187.968 170.639 187.873 170.436C187.812 170.307 187.621 170.421 187.681 170.55C187.777 170.753 187.861 170.958 187.948 171.161C184.406 173.292 184.776 173.925 181.154 175.915C179.122 177.03 177.064 178.111 174.978 179.127C174.657 179.283 174.329 179.441 173.995 179.593C172.477 180.284 170.823 180.866 169.162 180.672C167.796 180.511 157.28 165.535 148.098 152.176C145 147.667 142.053 143.343 139.662 139.837C136.846 135.706 134.802 132.704 134.187 131.872C131.711 128.513 129.212 125.056 126.06 122.288C123.131 119.72 119.469 117.75 115.506 117.607C113.413 117.535 111.342 118.05 109.526 119.094C104.085 121.41 100.815 126.895 98.6839 132.205C96.125 138.575 94.4756 145.356 93.5283 152.174C93.3499 153.445 93.1969 154.714 93.0691 155.981C92.5341 161.255 92.3046 166.564 92.1418 171.872C92.0371 175.327 91.9591 178.782 91.8432 182.23C91.5467 191.019 91.2235 199.81 91.0563 208.603C90.8891 217.397 90.8847 226.174 91.2592 234.952C91.3067 236.058 91.3602 237.164 91.4196 238.271C91.4198 238.288 91.4239 238.305 91.4315 238.32C91.4391 238.336 91.45 238.349 91.4635 238.36C91.477 238.37 91.4927 238.377 91.5094 238.381C91.5261 238.385 91.5434 238.384 91.5601 238.38L92.4918 238.211L103.16 236.276L105.928 235.777L108.96 235.226C109.528 235.122 110.128 235.035 110.413 234.471C110.698 233.907 110.687 233.095 110.83 232.465C112.125 226.77 116.433 222.41 118.453 217.013C118.939 215.742 119.252 214.41 119.382 213.055C119.525 211.403 119.309 209.751 119.086 208.117C118.863 206.421 118.593 204.698 118.754 202.991C118.932 201.118 119.739 199.533 120.887 198.071C121.857 196.836 122.938 195.695 123.762 194.351C124.539 193.065 125.127 191.674 125.508 190.221C125.799 189.116 126.005 187.991 126.125 186.855C127.017 188.714 127.817 192.733 129.277 197.483C130.215 200.63 131.413 203.695 132.859 206.644C132.886 206.695 132.912 206.749 132.937 206.8C135.215 211.296 138.382 215.667 142.967 218.935C143.264 219.144 143.562 219.34 143.859 219.521C146.942 221.358 150.57 221.828 154.061 221.462C158.508 220.999 162.915 219.679 167.132 218.237C171.673 216.689 176.084 214.785 180.325 212.542C182.298 211.499 184.373 210.453 186.138 209.078C186.898 208.515 187.54 207.807 188.026 206.996C188.559 206.053 188.74 204.99 188.889 203.929C191.051 203.711 193.194 203.327 195.297 202.779C198.494 201.914 202.207 200.55 203.732 197.34C203.99 196.794 204.188 196.22 204.32 195.631C204.617 194.206 204.673 192.742 204.485 191.3Z" fill="#A54740"/>
<path d="M312.965 150.636C312.33 147.269 311.191 144.016 309.586 140.989C308.57 139.046 307.42 137.175 306.146 135.39C300.032 126.768 291.823 119.437 282.786 113.992C278.498 111.4 273.955 109.254 269.23 107.588L268.944 107.49C266.926 106.793 264.881 106.192 262.808 105.686C259.685 104.923 256.508 104.402 253.306 104.126C252.655 104.073 252.004 104.029 251.353 103.995C251.243 103.835 251.118 103.686 250.981 103.549C250.984 103.534 250.984 103.518 250.98 103.503C250.976 103.488 250.969 103.475 250.958 103.463C250.948 103.452 250.935 103.443 250.921 103.437C250.907 103.431 250.891 103.429 250.876 103.431C249.352 103.515 247.827 103.613 246.302 103.723C245.839 103.756 245.375 103.789 244.911 103.827C242.544 104.01 240.18 104.233 237.819 104.496L237.569 104.523C230.838 105.283 224.153 106.413 217.606 108.165C212.186 109.626 206.9 111.547 201.805 113.905C199.355 115.03 196.912 116.171 194.476 117.328C191.688 118.643 188.905 119.969 186.126 121.305L185.68 121.528C177.027 125.669 167.695 130.27 162.024 138.343C161.053 139.707 160.219 141.164 159.534 142.692C158.389 145.287 157.751 148.113 158.253 150.864C158.62 152.919 159.748 154.753 161.543 155.852C162.19 156.246 162.89 156.546 163.622 156.744C164.883 157.073 166.187 157.205 167.487 157.134C169.901 157.036 172.24 156.405 174.542 155.718C177.306 154.891 180.034 153.935 182.852 153.309C183.104 153.253 183.356 153.199 183.61 153.148C183.864 153.097 184.169 153.041 184.45 152.992C188.157 152.339 191.971 152.199 195.626 151.325H195.662C193.918 154.686 191.673 157.763 189.004 160.45C187.129 162.334 185.061 164.017 183.126 165.831C181.219 167.641 179.439 169.581 177.799 171.635C175.971 173.907 174.263 176.27 172.558 178.635C172.544 178.66 172.541 178.69 172.548 178.718C172.556 178.747 172.574 178.771 172.598 178.786L173.989 179.593C178.795 182.366 183.649 185.052 188.551 187.651C190.29 188.572 192.033 189.482 193.781 190.379C195.623 191.327 197.472 192.262 199.329 193.183C200.99 194.008 202.656 194.825 204.326 195.635C210.52 198.619 216.781 201.463 223.11 204.168C224.331 204.691 225.555 205.211 226.781 205.728C230.467 207.26 234.173 208.75 237.897 210.197C238.894 210.583 239.891 210.965 240.888 211.343C242.069 211.789 243.254 212.234 244.441 212.68C245.368 213.021 246.374 213.396 247.323 212.925C247.707 212.709 248.06 212.44 248.371 212.127C248.927 211.624 249.479 211.117 250.027 210.607L252.925 207.948L258.887 202.476C259.745 201.691 260.608 200.916 261.446 200.102C262.387 199.21 263.279 198.27 264.121 197.284C267.204 193.638 268.677 189.126 270.618 184.844C270.69 184.684 270.765 184.526 270.841 184.367C270.917 184.209 270.973 184.096 271.037 183.962C273.313 179.339 276.721 175.231 279.539 170.942C280.163 170.889 280.76 170.853 281.342 170.833C283.055 170.778 284.769 170.863 286.469 171.085C289.656 171.477 292.815 171.843 296.033 171.827C298.989 171.812 302.074 171.669 304.949 170.98C306.206 170.715 307.396 170.196 308.444 169.453C309.406 168.691 310.195 167.734 310.76 166.645C313.46 161.81 313.921 155.979 312.965 150.636Z" fill="#FCE7D8"/>
<path d="M206.771 143.223C201.484 143.314 195.976 143.303 190.834 144.705C188.734 145.275 187.457 146.488 186.616 148.478C186.057 149.816 185.502 151.771 184.441 152.988C188.148 152.335 191.962 152.194 195.617 151.32C195.74 151.22 195.862 151.127 195.987 151.035C197.744 149.76 199.698 148.793 201.45 147.513C203.256 146.198 204.883 144.662 206.885 143.639C206.928 143.615 206.962 143.577 206.981 143.531C207 143.485 207.003 143.435 206.99 143.387C206.977 143.339 206.948 143.297 206.909 143.267C206.869 143.237 206.82 143.222 206.771 143.223Z" fill="#FCE7D8"/>
<path d="M185.639 125.834C185.601 125.165 185.271 124.165 184.417 124.325C183.907 124.421 183.544 124.936 183.223 125.295L181.736 126.953L178.615 130.439L177.933 131.201L176.832 132.43C176.404 132.868 176.025 133.351 175.702 133.872C175.348 134.512 175.256 135.231 175.178 135.947C175.096 136.718 175.04 137.489 175.002 138.263C174.982 138.251 174.962 138.237 174.944 138.223C174.833 138.134 174.686 138.303 174.799 138.392C175.132 138.636 175.547 138.74 175.956 138.682H176.018C176.459 138.65 176.897 138.595 177.331 138.519C177.652 138.464 177.971 138.399 178.288 138.334C178.707 138.247 179.179 138.196 179.498 137.871C179.906 137.447 180.106 136.756 180.361 136.235C180.969 134.962 181.659 133.731 182.427 132.548C183.16 131.449 184.016 130.43 184.674 129.28C184.917 128.857 185.124 128.413 185.291 127.954C185.549 127.278 185.667 126.557 185.639 125.834V125.834Z" fill="#FFB687"/>
<path d="M228.157 121.563L226.809 139.565L226.47 144.096C226.334 146.033 224.58 147.569 222.556 147.527L187.911 146.78C185.885 146.737 184.344 145.13 184.489 143.193L186.177 120.661C186.313 118.724 188.067 117.188 190.093 117.23L199.885 117.44L224.738 117.975C226.762 118.019 228.296 119.626 228.157 121.563Z" fill="#412B71"/>
<path d="M264.765 85.2799L264.096 85.427C264.143 85.67 263.412 97.0713 262.792 105.894C262.398 106.001 262.003 106.105 261.606 106.201C259.342 106.743 256.99 106.705 254.514 106.551C252.855 106.449 251.248 106.328 249.668 106.088C248.975 105.985 248.288 105.865 247.602 105.702C246.71 105.499 245.819 105.256 244.947 104.984C244.914 103.852 244.873 102.684 244.829 101.527V101.511C244.648 96.7124 244.399 92.1318 244.347 91.4119C244.314 90.9527 244.205 90.4133 244.347 89.9653C244.517 89.4593 244.965 89.3813 245.431 89.2765C248.422 88.6078 251.42 87.9547 254.416 87.2927L261.907 85.641L263.784 85.2264C263.757 85.0637 264.007 84.9879 264.036 85.1529C264.036 85.1581 264.036 85.1633 264.036 85.1685L264.678 85.028C264.852 84.9901 264.93 85.242 264.765 85.2799Z" fill="#FFB687"/>
<path d="M262.453 92.3792C262.037 92.7874 261.74 93.3015 261.595 93.866C261.202 95.2858 260.311 96.6277 259.435 97.994L247.135 100.976C242.822 102.024 239.904 102.786 237.229 98.8299C233.705 93.6163 231.822 87.2904 231.042 84.4975C230.336 81.9432 229.79 79.3473 229.408 76.725C229.252 75.6796 229.127 74.6632 229.027 73.6914C228.51 68.6761 228.657 64.791 228.926 63.6609C230.072 58.8864 232.306 57.9569 236.786 55.1038C236.92 55.0191 237.009 55.2375 236.879 55.3267C236.833 55.3579 236.788 55.3913 236.741 55.4203C236.749 55.4309 236.754 55.4429 236.757 55.4555C236.759 55.4681 236.759 55.4812 236.757 55.4939C243.497 53.0754 250.525 56.1737 254.714 61.3427C259.481 67.2362 260.904 75.0488 261.639 82.5761C261.949 85.8371 262.205 89.1071 262.453 92.3792Z" fill="#FFB687"/>
<path d="M243.765 78.3589C243.988 79.6227 244.684 80.5567 245.326 80.443C245.968 80.3293 246.306 79.2171 246.086 77.9532C245.865 76.6894 245.167 75.7554 244.525 75.8691C243.884 75.9828 243.547 77.0951 243.765 78.3589Z" fill="#090909"/>
<path d="M232.484 80.2467C232.732 81.5061 233.449 82.4245 234.087 82.2974C234.724 82.1704 235.041 81.0514 234.793 79.792C234.546 78.5327 233.828 77.6143 233.191 77.7414C232.553 77.8684 232.237 78.9918 232.484 80.2467Z" fill="#090909"/>
<path d="M242.258 86.5346C241.224 87.0879 240.071 87.3781 238.899 87.3794C238.23 87.366 237.595 87.1743 237.247 86.5681C236.971 86.0933 236.942 85.4937 236.968 84.9587C237.026 83.7484 237.354 82.5447 237.608 81.3634C237.862 80.182 238.132 78.9828 238.406 77.797C238.437 77.6565 238.223 77.5964 238.183 77.7368C237.844 79.2049 237.519 80.6753 237.207 82.148C236.948 83.3717 236.538 84.7291 236.801 85.9841C237.309 88.5318 240.787 87.5444 242.374 86.7397C242.498 86.6617 242.385 86.47 242.258 86.5346Z" fill="#D66B49"/>
<path d="M249.253 71.2661C248.584 70.584 247.528 70.4659 246.629 70.4146C244.218 70.2742 241.777 70.9228 240.099 72.6993C240.047 72.7506 239.998 72.8019 239.954 72.8554L239.873 72.9445C239.846 72.9765 239.829 73.0162 239.824 73.0582C239.768 73.1642 239.742 73.2831 239.746 73.4028C239.751 73.5226 239.787 73.639 239.851 73.7403C240.261 74.4335 241.496 74.039 242.08 73.9186C243.658 73.5909 245.087 73.2232 246.714 73.4037C247.499 73.4884 248.832 73.8673 249.467 73.1541C249.971 72.5924 249.726 71.7543 249.253 71.2661Z" fill="#4A2521"/>
<path d="M234.693 73.8495C234.671 73.8135 234.639 73.7854 234.6 73.7693C234.562 73.7515 234.524 73.7403 234.488 73.7247C234.424 73.6937 234.358 73.6677 234.29 73.6467C232.565 72.978 230.724 73.0984 229.016 73.6957C229.116 74.6676 229.239 75.684 229.397 76.7294C230.552 76.1766 231.751 75.9225 233.028 75.6038C233.612 75.4589 234.894 75.2783 234.965 74.4893C234.981 74.3681 234.964 74.2448 234.917 74.1323C234.869 74.0198 234.792 73.9222 234.693 73.8495V73.8495Z" fill="#4A2521"/>
<path d="M246.912 89.2764C246.751 89.3283 246.587 89.3685 246.42 89.3968C243.681 90.3924 240.771 90.8304 237.86 90.6851C237.785 90.6851 237.709 90.6851 237.671 90.7252C237.645 90.7593 237.631 90.8008 237.631 90.8434C237.631 90.886 237.645 90.9275 237.671 90.9615C238.246 91.7305 238.841 92.8896 239.759 93.293C240.678 93.6965 241.864 93.5159 242.795 93.2284C243.36 93.0482 243.9 92.7981 244.402 92.4839C244.761 92.2621 245.103 92.014 245.426 91.7417C246.11 91.1666 247.084 90.3485 247.077 89.3745C247.077 89.3553 247.071 89.3367 247.062 89.3202C247.052 89.3037 247.038 89.2899 247.022 89.2801C247.005 89.2703 246.987 89.2649 246.967 89.2642C246.948 89.2636 246.929 89.2678 246.912 89.2764V89.2764Z" fill="white"/>
<path d="M243.678 94.9714C242.993 95.3574 242.208 95.5261 241.425 95.4551C241.282 95.4551 241.282 95.678 241.425 95.678C242.247 95.7486 243.071 95.57 243.79 95.1654C243.917 95.0963 243.803 94.9023 243.678 94.9714Z" fill="#D66B49"/>
<path d="M197.56 126.902C197.185 126.362 196.483 126.402 195.91 126.498C194.127 126.799 192.433 127.584 190.911 128.542C189.951 129.159 189.031 129.838 188.158 130.573L188.1 130.617C187.556 131.025 187.035 131.458 186.54 131.908C187.026 131.172 187.561 130.47 188.142 129.806C188.869 128.973 189.664 128.202 190.519 127.501C191.41 126.77 192.402 126.164 193.311 125.451C193.815 125.058 194.93 124.3 194.818 123.525C194.693 122.647 193.481 123.106 192.988 123.268C190.759 124.011 188.753 125.337 186.856 126.685C186.444 126.976 186.046 127.288 185.666 127.619C185.543 127.722 185.425 127.829 185.307 127.94C184.92 128.297 184.558 128.68 184.224 129.086C183.762 129.532 183.361 130.042 182.942 130.522C182.32 131.23 181.701 131.942 181.088 132.657C179.884 134.061 178.691 135.473 177.508 136.892C177.405 137.014 177.301 137.136 177.194 137.26C176.78 137.705 176.393 138.174 176.035 138.664L175.939 138.804C175.573 139.368 175.841 140.122 175.925 140.739C175.954 140.947 176.061 141.397 176.215 141.981C176.779 144.127 177.969 148.05 178.179 148.026C178.261 148.026 179.013 147.58 180.129 146.911C181.317 146.194 182.924 145.211 184.587 144.201L186.727 142.906C189.192 141.421 191.408 140.115 192.15 139.805C193.126 139.395 194.121 139.032 195.086 138.599C195.634 138.352 196.57 138.031 196.704 137.34C196.851 136.578 195.924 136.188 195.315 136.156C194.266 136.101 193.2 136.629 192.255 137.012C190.57 137.694 188.932 138.487 187.351 139.384C187.753 138.766 188.189 138.17 188.657 137.601C188.818 137.405 188.983 137.215 189.152 137.028C190.385 136.125 191.359 135.209 192.672 134.427C193.483 133.945 194.658 133.604 195.431 133.063C195.942 132.706 196.506 132.202 196.626 131.556C196.954 129.815 194.228 130.958 193.597 131.21C192.11 131.8 190.698 132.563 189.391 133.484L189.634 133.261C190.492 132.508 190.889 131.863 195.086 129.507C195.84 129.121 196.56 128.674 197.241 128.17C197.618 127.851 197.874 127.37 197.56 126.902Z" fill="#FFB687"/>
<path d="M183.179 152.196C183.072 151.959 182.95 151.73 182.811 151.51C182.589 151.133 182.323 150.765 182.105 150.395C181.721 149.753 181.35 149.107 180.99 148.456C180.406 147.413 179.849 146.356 179.334 145.282C178.589 143.744 177.952 142.156 177.428 140.53L177.402 140.441C177.033 139.274 176.749 138.082 176.552 136.874C176.523 136.7 176.499 136.524 176.474 136.35C176.443 136.11 176.419 135.871 176.399 135.633C176.399 135.539 176.383 135.445 176.376 135.352C176.39 134.997 176.408 134.643 176.434 134.289C176.525 133.07 176.687 131.859 176.92 130.66C176.992 130.294 177.076 129.931 177.143 129.568C177.325 128.826 177.4 128.063 177.366 127.301C177.365 127.281 177.359 127.263 177.349 127.246C177.338 127.23 177.324 127.216 177.307 127.207C177.291 127.197 177.272 127.192 177.252 127.192C177.233 127.191 177.214 127.196 177.197 127.205C175.215 128.294 173.293 129.489 171.441 130.787L171.085 131.041C169.716 132.013 168.39 133.042 167.106 134.128C165.559 135.417 164.088 136.794 162.699 138.252C161.755 139.228 160.926 140.311 160.232 141.479L160.118 141.682C160.105 141.672 160.09 141.666 160.074 141.662C160.058 141.659 160.041 141.659 160.025 141.662C160.009 141.665 159.994 141.672 159.981 141.682C159.968 141.691 159.957 141.704 159.949 141.718C157.72 145.746 158.099 151.017 161.792 154.3C162.117 154.59 162.46 154.859 162.82 155.105C164.377 156.165 166.161 156.846 168.029 157.093C170.568 157.432 181.104 153.728 181.59 153.607C182.41 153.404 183.496 152.912 183.179 152.196Z" fill="#FAF3F3"/>
<path d="M171.827 195.838C164.04 197.268 156.36 199.224 148.837 201.691C146.715 202.389 144.606 203.127 142.509 203.904C142.375 203.953 142.433 204.17 142.569 204.127C149.987 201.374 157.583 199.126 165.305 197.398C167.485 196.911 169.674 196.465 171.874 196.061C172.019 196.027 171.967 195.813 171.827 195.838Z" fill="#45477A"/>
<path d="M123.275 156.59C123.206 156.463 123.014 156.576 123.081 156.701C125.905 161.97 125.961 168.105 125.978 173.936C125.978 173.965 125.99 173.994 126.011 174.014C126.032 174.035 126.06 174.047 126.09 174.047C126.119 174.047 126.148 174.035 126.169 174.014C126.19 173.994 126.201 173.965 126.201 173.936C126.183 168.069 126.117 161.895 123.275 156.59Z" fill="#45477A"/>
<path d="M271.295 61.3004C271.643 60.4601 271.326 59.5818 270.802 58.7593C270.227 57.8544 269.331 57.1054 268.228 57.0252C267.996 57.0095 267.763 57.023 267.535 57.0653C267.766 56.5763 267.916 56.0532 267.98 55.5162C268.185 53.733 267.343 51.9721 266.037 50.7996C264.612 49.5224 262.662 48.9874 260.776 49.0855C258.52 49.2014 256.3 50.5121 254.118 49.3575C253.253 48.9005 252.516 48.243 251.709 47.7058C250.912 47.1531 249.995 46.7978 249.034 46.6693C247.108 46.4241 244.97 46.8097 243.091 47.2377C241.273 47.6478 239.496 48.3722 238.219 49.7899C237.497 50.5879 236.928 51.5129 236.09 52.2017C235.216 52.9172 234.178 53.3852 233.253 54.0227C231.7 55.1199 230.446 56.5881 229.605 58.2937C228.765 59.9993 228.364 61.888 228.44 63.7879C228.44 64.0443 228.469 64.2984 228.5 64.5547C228.516 64.6951 228.739 64.6974 228.723 64.5547C228.723 64.4812 228.723 64.4098 228.706 64.3318C228.722 64.337 228.74 64.3381 228.758 64.335C228.775 64.3319 228.792 64.3247 228.806 64.314V64.314C229.198 64.0086 229.606 63.7166 230.023 63.4402C231.439 62.4848 232.987 61.7393 234.617 61.2268C235.244 61.007 235.913 60.939 236.572 61.0285C237.07 61.138 237.556 61.2963 238.023 61.501C238.37 61.6373 238.725 61.7534 239.086 61.8487C239.673 61.9999 240.277 62.0748 240.882 62.0716C243.011 62.0716 245.073 61.3205 247.208 61.4029C249.28 61.4787 251.243 62.3509 252.687 63.8378C254.132 65.3248 254.947 67.3118 254.963 69.3849C254.979 70.8538 254.517 72.6638 255.473 73.9455C255.944 74.574 256.829 74.7947 257.239 75.4545C257.571 75.9894 256.945 77.0571 257.725 77.3469C257.852 77.3892 257.989 77.3939 258.119 77.3603V77.3603C258.18 77.3469 258.24 77.329 258.298 77.3068L258.38 77.2778L258.507 77.2265C258.991 77.0237 259.399 76.7428 259.963 76.8409C260.34 76.9046 260.691 77.0783 260.97 77.3402C261.344 77.7071 261.61 78.1697 261.739 78.6776C261.792 78.8549 261.831 79.036 261.855 79.2193C261.855 79.2549 261.855 79.2884 261.871 79.324C262.009 80.5076 261.871 81.7625 261.648 82.9305C261.648 82.9751 261.634 83.0197 261.625 83.0643C261.456 84.0071 261.144 84.9166 260.923 85.846C260.852 86.1358 260.792 86.4278 260.745 86.7243C260.745 86.7443 260.745 86.7666 260.745 86.7867C260.588 87.6928 260.788 88.6245 261.304 89.3857C261.59 89.783 261.927 90.1412 262.305 90.4511C262.662 90.7498 263.041 91.0195 263.42 91.287C263.446 91.3012 263.476 91.3049 263.505 91.2975C263.533 91.29 263.558 91.2719 263.574 91.2469C263.645 91.1421 263.718 91.0396 263.797 90.9393C263.906 90.7855 264.019 90.6339 264.126 90.4935C264.143 90.5092 264.165 90.5179 264.188 90.5179C264.211 90.5179 264.232 90.5092 264.249 90.4935C265.885 89.2978 267.184 87.6995 268.019 85.8537C268.855 84.0079 269.2 81.9774 269.019 79.9593C268.905 78.8069 268.524 77.7303 268.315 76.589C268.115 75.3956 268.209 74.1716 268.589 73.0227C269.242 70.8984 270.463 68.9882 271.012 66.8261C271.359 65.4619 271.444 63.5071 270.428 62.426C270.622 62.2427 270.805 62.0469 270.974 61.8398C271.105 61.6752 271.213 61.4938 271.295 61.3004V61.3004Z" fill="#4A2521"/>
<path d="M263.115 77.4694C262.844 77.1321 262.495 76.8656 262.098 76.6929C261.701 76.5201 261.268 76.4462 260.837 76.4775C260.014 76.539 259.219 76.799 258.519 77.2353L258.356 77.3356C258.341 77.3267 258.326 77.3199 258.309 77.3156C258.277 77.3058 258.244 77.3057 258.212 77.3152C258.18 77.3247 258.152 77.3435 258.131 77.3691V77.3691C258.119 77.3847 258.11 77.402 258.104 77.4203C258.091 77.4604 258.073 77.4983 258.06 77.5385C258.002 77.5786 257.946 77.6209 257.89 77.6633C257.87 77.6804 257.854 77.7018 257.843 77.7258C257.831 77.7499 257.826 77.7761 257.826 77.8026C257.826 77.8291 257.831 77.8553 257.843 77.8793C257.854 77.9034 257.87 77.9247 257.89 77.9419C257.295 79.1456 256.254 79.9993 255.946 81.3634C255.688 82.5136 255.454 83.7373 255.663 84.9164C255.795 85.6234 256.122 86.2795 256.606 86.8111C257.295 87.5645 258.278 87.9835 259.343 87.5979C259.856 87.4068 260.334 87.1352 260.761 86.7932C261.189 86.4549 261.578 86.0699 261.92 85.6453C262.527 84.8912 263.012 84.0475 263.36 83.1444C264.011 81.4659 264.359 78.9851 263.115 77.4694Z" fill="#FFB687"/>
<path d="M260.199 78.5304C260.488 78.3938 260.813 78.353 261.127 78.4139C261.441 78.4748 261.727 78.6343 261.944 78.8692C262.499 79.5379 262.363 80.6524 262.218 81.437C262.192 81.5885 261.958 81.5284 261.996 81.3746C262.181 80.376 262.263 78.5504 260.77 78.6307C259.399 78.7065 259.14 80.396 259.325 81.4437C259.432 82.041 259.671 82.7075 259.381 83.2915C259.294 83.4954 259.141 83.6649 258.948 83.7737C258.755 83.8824 258.531 83.9245 258.311 83.8933C258.157 83.871 258.22 83.6392 258.373 83.6593C259.885 83.8822 258.96 81.1517 259.027 80.4049C259.093 79.6582 259.475 78.8625 260.199 78.5304Z" fill="#D66B49"/>
<path d="M257.225 86.0177C257.59 86.7711 258.201 87.3997 259.099 87.3551C259.253 87.3551 259.257 87.578 259.099 87.5981C258.125 87.6493 257.419 86.974 257.015 86.1448C256.942 86.0021 257.164 85.8795 257.225 86.0177Z" fill="#D66B49"/>
<path d="M290.477 223.531C290.417 223.682 290.354 223.834 290.292 223.977C290.069 224.532 289.828 225.091 289.581 225.628C286.364 232.71 281.445 239.034 275.153 243.632C266.905 249.65 256.705 252.069 247.067 254.837C236.453 257.886 225.776 260.809 214.881 262.688C211.796 263.218 205.67 264.883 204.204 260.768C203.807 259.654 203.912 258.439 204.032 257.289C204.153 256.139 204.3 254.944 204.46 253.774C204.808 251.248 205.235 248.736 205.742 246.24C207.766 236.295 211.038 226.646 215.482 217.522C217.654 213.025 220.127 208.68 222.885 204.518C225.56 200.517 228.593 196.716 232.191 193.511C235.98 190.134 240.374 187.595 244.872 185.297L244.959 185.255C245.999 184.72 247.048 184.195 248.106 183.681C251.821 181.861 255.587 180.145 259.405 178.534C265.717 175.868 272.143 173.491 278.681 171.401C278.855 171.231 279.059 171.094 279.283 170.998C279.655 170.834 280.066 170.779 280.469 170.84L281.329 170.579L281.597 170.735L280.897 170.958C281.133 171.04 281.358 171.151 281.565 171.29C282.424 171.867 283.014 172.786 283.592 173.622C284.283 174.62 284.942 175.639 285.569 176.677C286.825 178.756 287.951 180.91 288.941 183.128C290.892 187.478 292.291 192.055 293.105 196.752C294.638 205.739 293.854 215.041 290.477 223.531Z" fill="#F8B67C"/>
<path d="M266.326 172.382C264.832 173.346 263.146 173.974 261.385 174.221C259.624 174.469 257.831 174.33 256.129 173.815C252.857 172.806 250.309 170.062 246.7 170.207C244.946 170.276 243.23 170.806 241.469 170.748C239.607 170.688 238.083 169.703 237.354 167.975C236.605 166.192 236.846 164.253 237.432 162.467C238.018 160.682 239.126 159.001 239.391 157.131C239.511 156.384 239.407 155.618 239.093 154.929C238.669 154.055 237.902 153.794 237.16 153.255C235.754 152.227 235.843 149.869 237.263 148.9C237.381 148.819 237.263 148.625 237.151 148.708C236.669 149.058 236.302 149.543 236.099 150.103C235.895 150.663 235.863 151.271 236.008 151.849C236.14 152.469 236.488 153.022 236.991 153.409C237.292 153.632 237.639 153.788 237.954 153.991C238.448 154.304 238.822 154.775 239.015 155.328C239.737 157.35 238.368 159.436 237.642 161.257C236.951 162.989 236.424 164.873 236.75 166.747C237.015 168.229 237.813 169.678 239.173 170.412C240.684 171.23 242.447 171 244.077 170.755C245.059 170.574 246.054 170.466 247.052 170.432C248.11 170.439 249.154 170.667 250.119 171.1C251.8 171.829 253.289 172.933 254.979 173.646C256.832 174.405 258.841 174.704 260.835 174.519C262.829 174.334 264.749 173.67 266.431 172.583C266.558 172.496 266.447 172.304 266.326 172.382Z" fill="#1F2144"/>
<path d="M174.847 132.432C171.869 132.222 168.619 132.566 166.473 134.868C166.377 134.973 166.533 135.131 166.631 135.026C168.74 132.764 171.927 132.45 174.847 132.655C174.99 132.666 174.99 132.443 174.847 132.432Z" fill="#1F2144"/>
<path d="M351.752 127.475C350.548 118.909 347.517 110.648 343.159 103.179C336.523 91.7973 326.961 82.625 315.847 75.8243C316.791 77.7813 317.545 79.8242 318.098 81.9251C319.56 87.4775 319.436 93.0812 318.219 98.6626C317.55 101.723 316.692 104.746 316.195 107.844C315.729 110.739 315.563 113.675 315.7 116.604C315.836 119.53 316.268 122.435 316.988 125.275C317.715 128.132 318.696 130.916 319.489 133.756C320.36 136.944 320.859 140.223 320.976 143.526C321.143 147.328 320.909 151.155 320.53 155.003C320.53 155.123 320.158 156.249 320.272 156.251C329.575 156.344 339.303 156.634 348.257 159.117C348.328 158.894 348.397 158.687 348.466 158.471C348.812 157.389 349.139 156.303 349.447 155.212C351.99 146.205 353.062 136.789 351.752 127.475Z" fill="#DC9F6A"/>
<path d="M307.996 74.2284C307.937 74.2284 307.88 74.2519 307.838 74.2937C307.796 74.3355 307.773 74.3922 307.773 74.4513C307.773 74.5104 307.796 74.5671 307.838 74.6089C307.88 74.6507 307.937 74.6742 307.996 74.6742C308.055 74.6742 308.112 74.6507 308.153 74.6089C308.195 74.5671 308.219 74.5104 308.219 74.4513C308.219 74.3922 308.195 74.3355 308.153 74.2937C308.112 74.2519 308.055 74.2284 307.996 74.2284Z" fill="#C4906C"/>
<path d="M265.557 56.9693C262.994 58.2398 260.228 59.5594 257.288 58.9932C257.15 58.9665 257.09 59.1827 257.23 59.2161C260.235 59.7934 263.045 58.4694 265.671 57.1677C265.798 57.0986 265.687 56.9047 265.557 56.9693Z" fill="#4A2521"/>
<path d="M260.921 61.9109C259.708 62.2674 258.43 62.3436 257.183 62.1338C257.043 62.1093 256.983 62.3255 257.123 62.3567C258.409 62.5766 259.728 62.5004 260.979 62.1338C261.009 62.1261 261.034 62.107 261.05 62.0807C261.065 62.0544 261.07 62.023 261.062 61.9934C261.054 61.9638 261.035 61.9386 261.009 61.9231C260.982 61.9076 260.951 61.9032 260.921 61.9109V61.9109Z" fill="#4A2521"/>
<path d="M146.346 252.12C143.536 247.553 140.315 243.253 136.724 239.272C136.628 239.165 136.472 239.323 136.567 239.43C140.144 243.398 143.353 247.684 146.152 252.234C146.167 252.259 146.192 252.278 146.221 252.285C146.25 252.293 146.28 252.289 146.306 252.274C146.332 252.259 146.35 252.234 146.358 252.205C146.365 252.176 146.361 252.146 146.346 252.12V252.12Z" fill="#45477A"/>
<path d="M269.229 107.592C264.326 110.398 258.586 111.354 252.98 111.022C247.499 110.697 240.758 109.54 237.569 104.534L237.818 104.507C239.544 107.146 242.41 108.72 245.397 109.578C248.342 110.392 251.38 110.822 254.435 110.857C257.52 110.944 260.601 110.568 263.574 109.743C265.445 109.208 267.246 108.457 268.942 107.503L269.229 107.592Z" fill="#1F2144"/>
<path d="M245.208 105.06C245.318 104.965 245.42 104.862 245.513 104.75C246.135 103.979 246.627 103.21 247.412 102.592C248.35 101.82 249.449 101.267 250.628 100.976C251.1 100.547 251.547 100.091 251.966 99.6099V99.6099C253.094 98.0072 253.435 95.9588 253.959 94.102C253.964 94.0786 253.962 94.0541 253.953 94.032C253.943 94.0099 253.927 93.9915 253.906 93.9794C253.885 93.9674 253.861 93.9624 253.837 93.9652C253.813 93.968 253.791 93.9785 253.774 93.995C251.217 96.8927 248.473 99.942 244.884 101.5L244.82 101.529C244.864 102.686 244.904 103.854 244.938 104.986L245.208 105.06Z" fill="#ED9368"/>
<path d="M275.651 141.671C275.227 141.013 274.801 140.357 274.371 139.703C273.108 137.77 271.839 135.84 270.636 133.872C269.835 132.641 269.207 131.306 268.768 129.904C268.499 128.962 268.359 127.987 268.353 127.007C268.354 127 268.354 126.993 268.353 126.987C268.365 126.97 268.372 126.949 268.372 126.929C268.372 126.908 268.365 126.888 268.353 126.871C268.355 126.291 268.401 125.713 268.491 125.141V125.13C268.585 125.021 268.429 124.862 268.333 124.972C267.55 125.835 266.961 126.855 266.606 127.965C266.229 129.24 266.43 130.586 266.113 131.868C265.948 132.537 265.567 133.103 265.308 133.736C265.102 134.272 264.991 134.84 264.983 135.414C264.958 136.197 265.052 136.975 265.05 137.757C264.485 137.74 263.92 137.795 263.369 137.922C262.128 138.225 260.694 139.286 260.768 140.717V140.735C260.768 140.914 260.826 141.088 260.935 141.23C260.959 141.262 260.989 141.291 261.022 141.315C261.256 141.455 261.53 141.517 261.802 141.491C262.837 141.491 263.864 141.66 264.845 141.99C265.736 142.293 266.603 142.697 267.519 142.94C268.36 143.159 269.225 143.274 270.094 143.281C272.029 143.298 273.933 142.795 275.606 141.823C275.632 141.808 275.651 141.784 275.659 141.756C275.667 141.728 275.664 141.697 275.651 141.671Z" fill="#E8C7B7"/>
<path d="M261.038 141.218C260.621 141.268 260.207 141.343 259.799 141.441C257.864 141.921 255.762 142.48 254.269 143.869C253.355 144.72 252.568 145.795 251.353 146.238C250.016 146.726 249.055 146.064 248.284 145.01C247.736 144.259 247.209 143.539 246.331 143.153C245.483 142.784 244.527 142.753 243.656 143.066C243.523 143.113 243.581 143.329 243.717 143.289C244.213 143.108 244.744 143.045 245.268 143.105C245.793 143.164 246.296 143.345 246.739 143.632C247.53 144.154 247.945 145.019 248.556 145.714C249.67 146.978 251.257 146.804 252.528 145.852C253.359 145.228 253.988 144.381 254.79 143.724C255.7 142.979 256.796 142.571 257.911 142.228C258.926 141.876 259.97 141.612 261.031 141.439C261.029 141.366 261.031 141.292 261.038 141.218Z" fill="#1F2144"/>
<path d="M279.256 113.535C277.667 113.631 276.132 114.146 274.808 115.027C273.483 115.909 272.415 117.126 271.713 118.554C271.651 118.684 271.842 118.795 271.905 118.666C272.588 117.271 273.629 116.083 274.921 115.222C276.213 114.36 277.71 113.857 279.26 113.762C279.399 113.749 279.399 113.526 279.256 113.535Z" fill="#1F2144"/>
<path d="M293.779 141.894C289.043 138.787 283.145 139.442 277.967 140.917C277.952 140.921 277.938 140.928 277.926 140.937C277.914 140.947 277.904 140.958 277.897 140.971C277.889 140.985 277.884 140.999 277.882 141.014C277.88 141.029 277.882 141.044 277.885 141.059C277.889 141.074 277.896 141.087 277.905 141.099C277.915 141.111 277.926 141.121 277.939 141.129C277.953 141.137 277.967 141.141 277.982 141.143C277.997 141.145 278.012 141.144 278.027 141.14C283.154 139.692 288.98 139.021 293.668 142.094C293.788 142.163 293.9 141.972 293.779 141.894Z" fill="#1F2144"/>
<path d="M224.739 117.975L199.881 117.44C203.249 120.848 205.677 125.522 209.558 128.308C212.277 130.256 215.556 130.789 218.663 131.828C220.413 132.412 222.118 133.203 223.415 134.547C224.605 135.777 225.372 137.333 226.277 138.771C226.447 139.041 226.623 139.306 226.805 139.565L228.154 121.563C228.297 119.626 226.763 118.019 224.739 117.975Z" fill="#563E86"/>
<path d="M242.137 144.172C241.995 143.635 241.845 143.1 241.692 142.567C241.159 140.784 240.537 139.001 239.85 137.267C238.971 135.146 237.974 133.077 236.864 131.068C236.05 129.603 235.137 128.195 234.131 126.855C233.56 126.117 232.978 125.368 232.234 124.798C231.012 123.859 229.486 123.783 227.979 123.957C227.181 124.049 226.387 124.209 225.647 124.352C225.023 124.471 224.403 124.608 223.786 124.764C223.224 124.909 222.598 125.023 222.081 125.297C221.564 125.571 221.118 126.229 221.526 126.775C221.652 126.93 221.83 127.034 222.027 127.069C221.416 127.183 220.818 127.361 220.244 127.599C219.798 127.791 219.295 128.045 219.335 128.616C219.455 130.354 221.983 129.552 222.964 129.492C224.506 129.411 226.05 129.628 227.511 130.132C229.501 130.83 231.369 131.839 233.045 133.121C232.798 133.524 232.555 133.932 232.31 134.338C230.712 133.539 229.052 132.874 227.346 132.347L227.203 132.303C225.589 131.817 223.86 131.433 222.175 131.699C221.591 131.79 218.769 132.59 220.081 133.587C220.314 133.74 220.588 133.818 220.866 133.809C221.368 133.834 221.871 133.823 222.373 133.861C223.466 133.945 224.551 134.113 225.618 134.362C226.138 134.48 226.653 134.614 227.165 134.759C228.503 135.136 229.818 135.59 231.122 136.061C231.019 136.317 230.914 136.571 230.812 136.827C229.58 136.468 228.335 136.162 227.078 135.909C226.306 135.753 225.529 135.619 224.749 135.508C224.281 135.441 220.859 134.71 221.562 136.177C221.874 136.83 223.05 136.937 223.657 137.095C224.62 137.345 225.596 137.541 226.572 137.728L226.938 137.804C227.781 137.959 228.603 138.208 229.39 138.548C229.462 138.582 229.532 138.621 229.599 138.664C231.194 140.069 232.662 141.613 233.984 143.278L234.088 143.407C234.828 144.328 235.562 145.255 236.342 146.14C236.763 146.617 237.456 147.712 238.214 147.651C238.636 147.618 239.019 147.241 239.344 147.01L240.905 145.917C241.279 145.652 241.796 145.4 242.082 145.026C242.28 144.765 242.231 144.486 242.137 144.172Z" fill="#FFB687"/>
<path d="M233.386 130.845C232.61 130.125 231.971 129.285 231.282 128.491C230.66 127.773 229.944 126.989 229.068 126.603C228.192 126.218 227.136 126.302 226.186 126.351C225.002 126.413 223.821 126.537 222.649 126.721C222.508 126.744 222.569 126.96 222.709 126.944C223.824 126.77 224.951 126.648 226.079 126.585C227.136 126.53 228.308 126.414 229.267 126.96C230.905 127.896 231.868 129.748 233.228 131.008C233.332 131.088 233.491 130.93 233.386 130.845Z" fill="#D66B49"/>
<path d="M183.131 129.117C181.513 130.286 180.024 131.622 178.689 133.105C178.593 133.212 178.749 133.37 178.845 133.263C180.167 131.793 181.642 130.467 183.245 129.309C183.358 129.227 183.249 129.033 183.131 129.117Z" fill="#D66B49"/>
<path d="M341.386 157.698C332.907 155.161 323.891 155.022 315.338 157.296C315.062 157.37 315.202 157.793 315.478 157.72C323.955 155.471 332.888 155.614 341.288 158.132C341.564 158.215 341.658 157.778 341.386 157.698Z" fill="#1F2144"/>
<path d="M290.293 223.986C289.022 233.452 285.434 242.756 281.279 251.112C275.45 262.784 267.68 273.38 258.3 282.448C255.719 284.948 253.024 287.326 250.216 289.58C249.957 289.6 249.699 289.616 249.44 289.629C263.307 278.64 274.45 264.598 282.003 248.598C285.347 241.465 288.258 233.63 289.582 225.639C290.652 219.198 290.696 212.66 289.083 206.31C287.496 200.026 284.319 194.05 279.498 189.637C274.385 184.956 267.646 182.598 260.774 182.341C255.202 182.134 249.908 183.244 244.949 185.257C245.989 184.722 247.038 184.197 248.096 183.683C253.586 181.958 259.384 181.349 265.31 182.364C271.855 183.478 277.826 186.712 282.177 191.745C286.383 196.611 289.02 202.739 290.124 209.045C290.991 213.986 290.962 219.01 290.293 223.986Z" fill="#1F2144"/>
</g>
<g clip-path="url(#clip1_84_32812)">
<path d="M354.909 252.204L341.663 250.059C341.935 248.971 342.208 247.882 342.482 246.793C342.536 246.575 342.316 246.37 342.261 246.587L341.391 250.017L339.832 249.766C339.687 249.742 339.736 250.149 339.884 250.171L341.298 250.4C337.537 265.386 333.777 280.372 330.016 295.358C328.862 299.961 327.709 304.557 326.556 309.147C326.526 309.271 326.608 309.471 326.689 309.45C328.164 309.178 329.744 309.712 331.221 309.395C332.557 309.093 333.457 307.885 334.228 306.196C336.074 302.147 337.799 297.902 339.533 293.696C343.036 285.21 346.41 276.549 349.655 267.713C351.492 262.713 353.287 257.659 355.042 252.548C355.078 252.409 355.012 252.222 354.909 252.204Z" fill="#4A2521"/>
<path d="M432.284 253.491L445.53 251.346C445.258 250.258 444.985 249.17 444.711 248.08C444.656 247.862 444.877 247.657 444.931 247.874L445.802 251.304L447.361 251.053C447.506 251.029 447.457 251.437 447.309 251.458L445.895 251.687C449.656 266.673 453.416 281.659 457.177 296.645C458.331 301.248 459.484 305.844 460.636 310.435C460.667 310.558 460.585 310.758 460.503 310.737C459.029 310.465 457.449 311 455.971 310.682C454.636 310.38 453.736 309.172 452.965 307.483C451.119 303.434 449.394 299.189 447.66 294.983C444.157 286.497 440.783 277.836 437.538 269C435.701 264 433.905 258.946 432.151 253.836C432.115 253.697 432.181 253.509 432.284 253.491Z" fill="#4A2521"/>
<path d="M431.835 1.84235C429.726 0.591509 427.127 0.265203 424.719 0.497847C419.13 1.04169 414.145 4.72774 410.492 8.77938C406.337 13.3628 403.28 18.8586 400.548 24.3817C397.514 30.4517 395.038 36.7854 393.152 43.3044C389.527 56.0515 388.442 69.8621 392.427 82.6636C392.92 84.2468 393.491 85.8028 394.128 87.3346C394.139 87.3659 394.16 87.393 394.187 87.4122C394.214 87.4313 394.246 87.4416 394.279 87.4416C394.312 87.4416 394.345 87.4313 394.372 87.4122C394.399 87.393 394.419 87.3659 394.43 87.3346C399.385 81.0985 404.528 74.0407 409.483 67.8136L416.894 58.4897C419.027 55.8038 421.163 53.1117 423.094 50.2717C425.047 47.4693 426.68 44.4574 427.964 41.2922C429.339 37.7874 430.1 34.0893 430.889 30.4153L433.354 18.9342C433.773 16.9723 434.194 15.0104 434.617 13.0486C434.98 11.3596 435.364 9.64047 435.315 7.91225C435.231 5.37431 434.031 3.14758 431.835 1.84235Z" fill="#95D86D"/>
<path d="M535.508 12.6375C535.206 10.6524 534.74 8.51936 533.58 6.84553C532.45 5.21702 530.782 4.54024 528.84 4.49189C524.797 4.39219 520.637 5.35298 516.884 6.80021C509.216 9.75812 502.639 15.115 497.324 21.3027C494.55 24.5295 492.233 28.0464 489.904 31.5995C488.647 33.5946 487.247 35.4959 485.716 37.2887C484.114 39.0743 482.272 40.6299 480.244 41.9114C478.283 43.1803 476.232 44.3285 474.331 45.676C472.505 47.0033 470.823 48.5171 469.31 50.1929C466.231 53.5587 463.636 57.3928 461.222 61.2541C456.49 68.8075 449.741 88.9267 449.581 90.5612C449.42 92.1958 449.955 94.0267 451.266 95.0933C452.88 96.3955 455.001 95.9121 456.747 95.1688C459.113 94.1627 461.406 92.9421 463.72 91.8211L492.892 77.6933C501.545 73.4996 510.89 69.6837 518.041 63.076C521.141 60.2117 523.812 56.8006 525.504 52.9152C526.371 50.9188 526.958 48.8121 527.247 46.6549C527.58 44.2378 527.625 41.8207 527.912 39.4037C528.2 36.8468 528.939 34.3611 530.094 32.0618C531.127 30.0072 532.363 28.0615 533.372 25.9949C535.411 21.8585 536.155 17.2034 535.508 12.6375V12.6375Z" fill="#95D86D"/>
<path d="M549.869 108.756C549.265 106.535 547.645 104.737 545.718 103.541C540.551 100.332 534.236 101.87 528.72 103.1C521.958 104.605 515.196 106.11 508.434 107.617C502.621 108.916 496.893 110.451 492.119 114.167C487.822 117.491 484.526 121.92 481.529 126.407C480.774 127.534 480.036 128.673 479.299 129.815C479.282 129.829 479.27 129.848 479.263 129.869C479.051 130.383 478.78 131.156 479 131.709C479.044 131.817 479.102 131.918 479.172 132.011C479.236 132.197 479.355 132.358 479.514 132.473C479.846 132.682 480.565 132.658 480.946 132.688C482.272 132.786 483.606 132.729 484.919 132.516C490.524 131.661 495.566 128.718 501.165 127.842C507.162 126.902 513.447 129.479 519.293 127.404C521.686 126.552 523.686 124.938 525.734 123.476C528.133 121.775 530.569 120.503 533.563 120.439C536.557 120.376 539.457 120.805 542.385 119.947C544.802 119.237 547.047 117.832 548.497 115.741C549.884 113.729 550.522 111.155 549.869 108.756Z" fill="#95D86D"/>
<path d="M412.448 34.6634C398.15 65.6176 389.464 98.8653 386.794 132.857C385.854 144.795 385.821 156.759 385.936 168.727C386.053 181.006 386.117 193.306 387.105 205.551C387.226 207.048 387.361 208.54 387.51 210.029C387.528 210.222 387.83 210.222 387.812 210.029C386.603 197.916 386.416 185.74 386.286 173.579C386.162 161.554 386.023 149.523 386.766 137.513C388.901 103.377 397.1 69.8937 410.98 38.6335C411.548 37.3585 412.125 36.0875 412.711 34.8205C412.792 34.6392 412.529 34.4882 412.448 34.6634Z" fill="#798A71"/>
<path d="M509.579 45.0781C505.672 51.3232 499.234 55.2057 493.242 59.1908C487.709 62.8728 482.372 66.8258 477.229 71.0496C466.772 79.6367 457.178 89.2236 448.584 99.674C431.479 120.442 418.435 144.242 410.131 169.833C405.98 182.636 403.106 195.817 401.55 209.186C401.363 210.811 401.195 212.44 401.046 214.072C401.031 214.265 401.333 214.262 401.348 214.072C402.584 200.608 405.161 187.301 409.04 174.35C412.921 161.396 418.031 148.842 424.301 136.861C430.566 124.871 437.951 113.5 446.357 102.901C454.705 92.3621 464.053 82.6547 474.268 73.9139C479.432 69.4994 484.817 65.3508 490.402 61.484C496.034 57.5865 502.234 54.1844 506.905 49.0814C507.998 47.8895 508.98 46.6 509.839 45.2291C509.953 45.063 509.682 44.9119 509.579 45.0781Z" fill="#798A71"/>
<path d="M501.884 122.089C494.384 124.879 487.09 128.194 480.058 132.011C472.968 135.865 466.155 140.206 459.666 145.003C453.23 149.761 447.125 154.952 441.393 160.539C435.616 166.17 430.238 172.195 425.296 178.57C420.391 184.895 415.94 191.559 411.974 198.511C411.473 199.396 410.977 200.285 410.488 201.179C410.394 201.351 410.657 201.502 410.751 201.33C414.581 194.32 418.903 187.589 423.685 181.19C438.147 161.861 456.447 145.73 477.438 133.809C484.444 129.836 491.723 126.366 499.222 123.428C500.134 123.071 501.049 122.723 501.965 122.382C502.147 122.313 502.068 122.023 501.884 122.089Z" fill="#798A71"/>
<path d="M411.472 213.259C408.021 198.789 404.332 184.326 398.975 170.428C397.928 167.711 396.81 165.02 395.622 162.355C395.658 162.35 395.691 162.334 395.717 162.308C395.743 162.282 395.759 162.249 395.764 162.213C396.144 158.617 396.522 154.992 396.129 151.384C395.721 148.124 394.92 144.925 393.742 141.858C392.694 138.994 391.383 136.193 389.449 133.812C387.376 131.262 384.76 129.253 382.911 126.506C381.098 123.826 379.784 120.853 377.953 118.186C375.492 114.61 372.33 111.572 368.658 109.256C364.986 106.941 360.882 105.396 356.595 104.716C353.45 104.235 350.252 104.217 347.102 104.665C345.486 104.894 343.891 105.249 342.331 105.726C341.068 106.109 339.844 106.442 339.279 107.753C338.739 109.016 338.533 110.511 338.349 111.865C338.153 113.309 338.071 114.767 338.104 116.225C338.168 119.176 338.69 122.099 339.651 124.89C341.464 130.153 344.866 134.513 349.051 138.12C353.087 141.598 357.631 144.414 361.973 147.487C364.223 149.044 366.376 150.737 368.42 152.557C370.44 154.409 372.254 156.473 373.832 158.714C374.587 159.778 375.424 160.814 376.651 161.346C378.04 161.95 379.702 162.016 381.183 162.068C382.875 162.129 384.57 162.028 386.243 161.766C387.787 161.527 389.307 161.134 390.866 161.004C392.325 160.88 393.773 161.028 395.039 161.793C399.03 170.66 402.208 179.894 404.927 189.227C407.251 197.203 409.248 205.267 411.176 213.346C411.227 213.53 411.517 213.449 411.472 213.259Z" fill="#95D86D"/>
<path d="M443.806 179.096C443.262 177.779 442.156 176.616 440.691 176.413C438.82 176.156 436.763 177.271 435.207 178.178C431.772 180.166 428.989 183.094 426.52 186.157C423.533 189.893 420.761 193.796 418.218 197.847C415.387 198.2 412.562 198.59 409.737 198.962C401.195 200.095 392.576 201.077 383.95 200.497L382.684 200.403C382.394 198.899 382.005 197.417 381.52 195.964C380.739 193.425 380.248 190.805 380.058 188.154C379.871 185.662 379.804 183.151 379.405 180.682C379.003 178.147 378.086 175.72 376.71 173.552C375.602 171.779 374.402 169.682 372.553 168.585C370.795 167.543 368.737 167.981 367.32 169.392C365.616 171.081 365.205 173.673 365.018 175.963C364.847 178.542 364.995 181.131 365.459 183.674C366.48 189.686 368.643 195.457 369.601 201.475C369.603 201.491 369.608 201.506 369.617 201.52C369.626 201.533 369.638 201.544 369.652 201.551C369.666 201.559 369.682 201.563 369.698 201.563C369.714 201.562 369.729 201.559 369.743 201.551C369.947 202.921 369.819 204.32 369.369 205.63C369.302 205.838 369.233 206.038 369.157 206.234C369.1 206.385 369.039 206.536 368.979 206.681C368.26 208.29 367.381 209.822 366.356 211.256C366.096 211.639 365.843 212.032 365.601 212.428C365.238 213.008 364.897 213.603 364.58 214.204C364.477 214.398 364.38 214.585 364.278 214.782C363.83 215.664 363.435 216.572 363.093 217.501C362.691 218.584 362.368 219.695 362.126 220.824C361.947 221.653 361.811 222.492 361.718 223.335C361.718 223.404 361.7 223.474 361.694 223.543C361.688 223.613 361.67 223.776 361.661 223.891C361.595 224.571 361.561 225.25 361.552 225.93C361.531 227.825 361.854 229.686 361.888 231.571C361.945 235.321 359.812 238.43 358.96 241.962C358.401 244.279 358.467 247.065 359.984 248.953L359.667 248.905C359.513 248.881 359.449 249.113 359.604 249.137C359.806 249.174 360.011 249.201 360.208 249.225C360.442 249.483 360.703 249.715 360.987 249.917C361.111 250.011 361.232 249.799 361.108 249.708C360.917 249.57 360.737 249.419 360.567 249.255C362.015 249.365 363.468 249.117 364.797 248.533C365.627 248.114 366.427 247.636 367.19 247.104C368.088 246.523 369.144 246.237 370.211 246.285C372.411 246.373 374.623 246.738 376.81 246.977C378.998 247.216 381.17 247.442 383.348 247.696C385.586 247.937 387.806 248.317 389.995 248.835C392.092 249.352 394.159 250.014 396.283 250.421C400.476 251.24 404.779 251.068 409.012 250.693C413.344 250.307 417.653 249.76 422.004 249.717C423.647 249.699 425.276 249.497 426.385 248.155C427.291 247.074 427.644 245.624 427.75 244.246C427.904 242.221 427.448 240.2 427.663 238.179C427.886 236.1 429.028 234.49 430.285 232.892C431.37 231.514 432.367 230.127 432.959 228.459C433.467 226.964 433.748 225.4 433.79 223.821C433.79 223.619 433.805 223.414 433.808 223.217C433.808 223.16 433.808 223.108 433.808 223.051C433.808 222.625 433.808 222.202 433.781 221.776C433.692 220.106 433.519 218.443 433.261 216.791C433.146 215.978 433.025 215.159 432.917 214.34C432.886 214.141 432.862 213.945 432.835 213.736C432.723 212.857 432.627 211.975 432.569 211.086C432.533 210.533 432.509 209.972 432.506 209.413C432.496 208.245 432.597 207.08 432.808 205.932C432.847 205.723 432.89 205.521 432.938 205.328C432.986 205.134 433.013 204.998 433.059 204.835C433.104 204.672 433.17 204.445 433.234 204.252C433.781 202.563 434.66 201.001 435.201 199.303C435.466 198.5 435.612 197.662 435.633 196.817C437.277 194.627 438.831 192.371 440.298 190.049C441.44 188.236 442.658 186.405 443.476 184.423C444.204 182.716 444.522 180.834 443.806 179.096ZM368.411 187.45C367.127 183.121 365.332 178.426 366.598 173.875C367.084 172.126 368.517 169.857 370.668 170.501C372.432 171.023 373.33 173.105 373.931 174.673C374.777 176.913 375.629 179.158 376.487 181.408C377.33 183.616 378.2 185.795 378.487 188.157C378.774 190.52 378.698 192.991 379.303 195.318C379.72 196.937 380.768 198.587 381.07 200.285C377.72 200.016 374.36 199.768 371.027 200.216C370.521 195.894 369.645 191.623 368.411 187.45V187.45ZM441.089 185.205C440.071 186.716 438.975 188.206 438.195 189.867C437.748 190.825 437.431 191.843 436.89 192.759C436.415 193.515 435.868 194.224 435.255 194.874C434.751 195.419 434.279 195.993 433.841 196.593C429.103 196.718 424.375 197.084 419.674 197.69C422.061 195.122 424.36 192.514 426.285 189.574C427.34 187.92 428.533 186.357 429.85 184.903C431.088 183.581 432.4 182.329 433.778 181.154C435.171 179.945 436.642 178.598 438.479 178.151C440.032 177.767 442.035 178.268 442.676 179.882C443.428 181.725 442.083 183.716 441.089 185.202V185.205Z" fill="#F8B67C"/>
<path d="M482.872 232.233C478.34 232.208 455.169 232.233 454.888 232.202C449.658 231.523 444.355 231.825 439.101 232.033C433.609 232.253 428.109 232.116 422.635 231.622C417.136 231.127 411.667 230.414 406.162 229.973C400.577 229.535 394.967 229.535 389.382 229.973C383.829 230.396 378.287 230.918 372.719 231.181C361.362 231.726 349.983 231.594 338.641 230.785C332.976 230.378 327.236 229.577 321.549 230.136C319.915 230.296 310.153 231.692 312.367 234.707C312.385 234.73 312.406 234.752 312.428 234.771C312.627 235.91 312.987 237.961 313.434 240.396C313.47 240.593 313.507 240.795 313.546 241.001C314.047 243.72 314.649 246.88 315.241 249.763C315.286 249.983 315.331 250.198 315.377 250.412C315.791 252.382 316.196 254.195 316.561 255.618C317.522 259.349 318.957 262.824 321.314 265.77C321.48 265.978 321.649 266.178 321.821 266.374C323.186 267.942 324.782 269.292 326.556 270.377C332.296 273.933 339.393 275.477 346.213 276.372C354.068 277.402 362.042 277.471 369.973 277.616C386.705 277.919 403.452 278.221 420.188 277.792C428.593 277.58 436.992 277.187 445.371 276.553C448.392 276.32 460.634 274.695 469.466 267.217C469.68 267.036 469.895 266.851 470.103 266.658C473.335 263.809 475.8 260.195 477.273 256.147C477.69 254.992 478.08 253.842 478.442 252.696C478.506 252.494 478.569 252.294 478.63 252.092C479.893 248.013 480.847 243.968 481.711 239.843C481.754 239.647 481.793 239.454 481.832 239.257C482.288 237.055 482.721 234.834 483.162 232.568C483.169 232.526 483.168 232.483 483.156 232.442C483.145 232.401 483.125 232.363 483.097 232.331C483.069 232.298 483.035 232.273 482.996 232.256C482.956 232.239 482.914 232.231 482.872 232.233V232.233Z" fill="#A54740"/>
<path d="M432.969 205.312C432.921 205.518 432.878 205.72 432.839 205.917C428.294 206.247 423.734 206.335 419.18 206.18C416.258 206.05 413.366 205.645 410.454 205.418C407.378 205.202 404.288 205.447 401.284 206.143C395.595 207.388 390.132 208.385 384.28 207.862C379.222 207.409 374.24 206.174 369.173 206.213C369.249 206.01 369.318 205.811 369.385 205.609C374.385 205.609 379.298 206.817 384.286 207.264C387.222 207.529 390.178 207.489 393.105 207.143C396.193 206.778 399.178 205.935 402.221 205.331C407.937 204.185 413.451 205.331 419.186 205.581C423.782 205.738 428.383 205.648 432.969 205.312V205.312Z" fill="#BF785E"/>
<path d="M432.959 214.34C430.058 214.555 427.158 214.914 424.263 215.183C418.9 215.676 413.833 215.31 408.522 214.555C405.645 214.082 402.727 213.909 399.814 214.038C396.956 214.219 394.134 214.715 391.318 215.207C386.209 216.114 381.16 216.893 375.967 216.283C372.075 215.83 368.199 214.917 364.292 214.772C364.389 214.576 364.486 214.389 364.594 214.195C368.96 214.419 373.272 215.522 377.656 215.854C383.342 216.289 388.898 214.947 394.479 214.068C396.974 213.638 399.5 213.403 402.032 213.367C404.648 213.367 407.238 213.751 409.818 214.129C412.839 214.57 415.818 214.935 418.864 214.887C421.616 214.848 424.36 214.585 427.097 214.283C429.022 214.08 430.946 213.878 432.871 213.733C432.907 213.935 432.928 214.132 432.959 214.34Z" fill="#BF785E"/>
<path d="M433.848 223.208C433.848 223.41 433.848 223.616 433.83 223.812C429.34 223.858 424.878 224.667 420.406 225.178C417.748 225.53 415.063 225.644 412.384 225.519C409.892 225.362 407.466 224.815 405.036 224.253C399.417 222.945 393.999 222.712 388.262 223.274C382.896 223.803 377.554 224.722 372.149 224.752C368.714 224.77 365.164 224.021 361.677 223.903C361.677 223.788 361.698 223.67 361.71 223.555C361.722 223.441 361.725 223.416 361.734 223.347C362.671 223.392 363.614 223.48 364.556 223.589C367.563 223.927 370.53 224.223 373.563 224.117C379.056 223.939 384.482 222.957 389.957 222.519C395.258 222.113 400.589 222.545 405.756 223.8C408.587 224.456 411.402 224.966 414.318 224.979C417.001 224.947 419.679 224.734 422.334 224.341C426.174 223.849 430.002 223.244 433.848 223.208Z" fill="#BF785E"/>
<path d="M481.855 239.263C481.815 239.46 481.776 239.653 481.734 239.849C479.731 239.68 477.733 239.432 475.742 239.164C468.938 238.257 462.237 237.351 455.366 238.088C449.275 238.734 443.281 240.17 437.19 240.716C431.099 241.263 424.893 240.756 418.76 240.266C412.563 239.768 406.309 239.281 400.106 239.964C394.021 240.638 388.193 242.789 382.08 243.26C375.887 243.741 369.762 242.146 363.62 241.638C357.275 241.121 350.909 241.209 344.558 241.173C334.223 241.12 323.892 241.063 313.565 241.001C313.526 240.795 313.49 240.593 313.453 240.396C326.107 240.467 338.761 240.54 351.417 240.617C357.762 240.662 364.046 240.943 370.339 241.843C373.663 242.324 377.008 242.819 380.373 242.75C383.739 242.68 387.02 241.992 390.298 241.239C396.538 239.819 402.553 238.88 408.973 239.052C415.318 239.215 421.636 240.025 427.981 240.26C434.737 240.523 441.251 239.656 447.898 238.541C454.037 237.52 460.086 236.84 466.328 237.39C471.5 237.861 476.646 238.831 481.855 239.263Z" fill="#1F2144"/>
<path d="M478.637 252.107C478.576 252.304 478.513 252.503 478.45 252.711C470.088 252.448 461.729 252.32 453.372 252.328C440.646 252.328 427.924 252.647 415.207 253.286C408.901 253.588 402.574 254.002 396.266 253.536C390.111 253.083 384.162 251.307 378.023 250.793C371.883 250.279 365.774 251.521 359.689 252.334C347.51 253.959 335.158 253.781 323.031 251.805C320.484 251.391 317.94 250.85 315.39 250.397C315.345 250.183 315.299 249.968 315.254 249.747C318.291 250.276 321.315 250.938 324.342 251.403C331.424 252.476 338.585 252.94 345.746 252.79C352.169 252.657 358.487 251.884 364.835 250.977C370.63 250.134 376.258 249.769 382.056 250.693C388.401 251.714 394.519 253.035 400.97 253.131C407.315 253.219 413.66 252.73 420.005 252.458C439.537 251.602 459.081 251.485 478.637 252.107Z" fill="#1F2144"/>
<path d="M470.111 266.658C469.903 266.852 469.688 267.036 469.473 267.217C463.844 267.331 458.215 266.967 452.648 266.129C446.134 265.102 439.798 264.084 433.175 264.404C426.652 264.706 420.183 265.74 413.666 266.105C400.843 266.827 388.036 265.501 375.253 264.682C368.908 264.283 362.542 264.002 356.182 264.166C350.063 264.323 343.978 264.978 337.89 265.543C332.579 266.036 327.189 266.45 321.835 266.368C321.663 266.166 321.494 265.966 321.327 265.764C328.579 265.933 335.933 265.123 343.117 264.45C349.213 263.829 355.336 263.52 361.463 263.525C367.926 263.585 374.379 264.008 380.827 264.462C393.538 265.368 406.249 266.311 418.975 265.096C425.467 264.492 431.966 263.549 438.502 263.737C444.75 263.915 450.832 265.438 457.025 266.129C461.371 266.591 465.742 266.767 470.111 266.658V266.658Z" fill="#1F2144"/>
<path d="M426.04 31.246C420.323 34.772 414.335 37.2888 407.957 39.3584C402.452 41.138 397.189 43.2136 392.336 46.4132L392.125 46.5552C389.27 58.2962 388.717 70.7563 392.336 82.3855C392.828 83.9687 393.394 85.5257 394.034 87.0565C394.045 87.0878 394.066 87.1149 394.093 87.1341C394.12 87.1532 394.152 87.1635 394.186 87.1635C394.219 87.1635 394.251 87.1532 394.278 87.1341C394.305 87.1149 394.326 87.0878 394.337 87.0565C399.292 80.8204 404.437 73.7626 409.392 67.5386C411.857 64.4326 414.325 61.3277 416.794 58.2237C418.93 55.5377 421.067 52.8457 422.994 50.0056C424.948 47.2033 426.583 44.1915 427.868 41.0262C429.239 37.5214 430.001 33.8233 430.789 30.1493C430.958 29.3637 431.128 28.5812 431.294 27.7957C429.584 28.974 427.822 30.1312 426.04 31.246Z" fill="#95D86D"/>
<path d="M506.469 56.3414C499.779 49.5282 491.217 44.9509 484.516 38.1649C483.183 39.4616 481.721 40.6187 480.153 41.6183C478.189 42.8873 476.14 44.0203 474.24 45.3829C472.412 46.7142 470.728 48.2331 469.215 49.915C466.143 53.2657 463.544 57.0998 461.127 60.961C456.396 68.5144 449.646 88.6336 449.489 90.2682C449.332 91.9028 449.861 93.7337 451.172 94.8002C452.788 96.1024 454.906 95.619 456.653 94.8758C459.021 93.8697 461.312 92.649 463.629 91.5281L492.797 77.4002C499.979 73.9227 507.638 70.6989 514.125 65.9191C511.903 62.4758 509.338 59.2668 506.469 56.3414V56.3414Z" fill="#95D86D"/>
<path d="M390.46 152.886C385.441 146.39 377.948 142.535 371.999 137.027C361.639 127.437 354.959 113.224 343.339 105.118C342.97 105.215 342.602 105.321 342.236 105.42C340.973 105.807 339.746 106.139 339.184 107.448C338.622 108.756 338.435 110.206 338.254 111.56C338.057 113.004 337.974 114.462 338.006 115.92C338.067 118.878 338.588 121.808 339.55 124.606C341.363 129.872 344.768 134.229 348.949 137.836C352.986 141.317 357.53 144.13 361.872 147.203C364.122 148.761 366.276 150.454 368.322 152.272C370.341 154.125 372.154 156.189 373.731 158.43C374.489 159.494 375.323 160.545 376.549 161.062C377.939 161.666 379.604 161.732 381.097 161.784C382.789 161.845 384.484 161.744 386.157 161.482C387.698 161.243 389.218 160.85 390.777 160.72C392.143 160.605 393.496 160.72 394.705 161.367C393.974 158.258 392.396 155.391 390.46 152.886Z" fill="#95D86D"/>
<path d="M505.565 117.424C502.096 114.75 498.401 112.932 494.304 112.59C493.461 113.097 492.647 113.653 491.869 114.255C487.573 117.578 484.276 122.008 481.276 126.494C480.521 127.624 479.783 128.76 479.049 129.902C479.032 129.917 479.019 129.936 479.01 129.957C478.802 130.473 478.53 131.244 478.75 131.797C478.792 131.905 478.849 132.007 478.919 132.099C478.985 132.284 479.105 132.446 479.264 132.561C479.593 132.77 480.312 132.746 480.693 132.776C482.02 132.874 483.355 132.816 484.669 132.604C490.271 131.748 495.313 128.806 500.915 127.93C506.45 127.062 512.236 129.192 517.695 127.89C513.704 124.352 509.782 120.678 505.565 117.424Z" fill="#95D86D"/>
</g>
<defs>
<clipPath id="clip0_84_32812">
<rect width="305.813" height="301.502" fill="white" transform="translate(54.3247 46.5889)"/>
</clipPath>
<clipPath id="clip1_84_32812">
<rect width="238.074" height="309.076" fill="white" transform="translate(312.055 0.428284)"/>
</clipPath>
</defs>
</svg>
