<svg width="64" height="64" viewBox="0 0 64 64" fill="none" xmlns="http://www.w3.org/2000/svg">
<rect width="64" height="64" rx="32" fill="#3C8FB7"/>
<path d="M31.7213 21.29C32.8099 18.2843 34.9756 15.8422 37.7574 14.4836C40.5048 13.1327 43.6484 12.9645 46.5129 14.0151C49.3774 15.0657 51.7341 17.2512 53.0765 20.1021C53.5795 21.1557 53.328 22.1435 52.4905 22.6229C51.653 23.1023 50.6747 22.7071 50.1264 21.6482C48.3885 18.2977 45.6974 16.5829 42.0556 16.8622C38.4139 17.1414 36.0548 19.2328 34.762 22.7519C34.6512 23.0236 34.5962 23.3167 34.6005 23.6121C34.6048 23.9075 34.6684 24.1987 34.7872 24.4667C35.0322 25.1334 35.1592 25.8412 35.1619 26.5555C35.1807 27.0795 35.0162 27.5927 34.6993 27.9987C34.3823 28.4046 33.9348 28.6754 33.4406 28.7601C32.9465 28.8449 32.4399 28.7378 32.0158 28.4589C31.5918 28.18 31.2796 27.7486 31.1379 27.2456C30.9741 26.6406 30.9087 26.0111 30.9442 25.3834C30.9668 24.8144 30.7556 24.6142 30.2752 24.5352C29.1409 24.3482 28.14 25.2358 28.1047 26.5344C28.072 27.7092 28.1047 28.8867 28.1047 30.0641C28.1047 33.8808 27.9689 37.7029 28.1399 41.5144C28.3286 45.6656 24.4051 48.8608 20.4414 46.8431C20.2151 47.1381 19.9912 47.4568 19.7423 47.7492C19.0472 48.5805 18.1263 49.1696 17.1028 49.4376C16.0793 49.7057 15.0021 49.64 14.0152 49.2492C13.0284 48.8585 12.179 48.1614 11.5808 47.2512C10.9826 46.3411 10.6642 45.2613 10.668 44.1563C10.668 39.7943 10.668 35.4314 10.668 31.0677C10.668 29.8297 11.3118 29.0263 12.2977 29.0157C13.2836 29.0052 13.9526 29.8059 13.9552 31.0308C13.9552 35.3348 13.9552 39.6415 13.9552 43.9377C13.9552 45.5761 15.2856 46.5718 16.6035 45.9528C17.4209 45.5682 17.7378 44.857 17.7352 43.9351C17.7252 39.1147 17.7252 34.2935 17.7352 29.4714C17.7352 29.208 17.7352 28.9446 17.7352 28.6944C17.7705 27.617 18.4898 26.8505 19.4254 26.8795C20.3609 26.9085 21.0174 27.646 21.0224 28.697C21.0224 32.9747 21.0224 37.2498 21.0224 41.5275C21.011 41.8694 21.0432 42.2113 21.118 42.5443C21.2211 42.9963 21.4805 43.3924 21.846 43.656C22.2115 43.9197 22.6572 44.0322 23.0973 43.9719C23.5243 43.9347 23.9255 43.7429 24.2321 43.4295C24.5387 43.1161 24.7315 42.7007 24.7773 42.2545C24.7983 41.997 24.8042 41.7384 24.7949 41.4801C24.7949 36.7388 24.9433 31.9975 24.7472 27.2746C24.5937 23.5975 27.3527 20.1495 31.7213 21.29Z" fill="#FBFBFB"/>
<path d="M37.6245 30.3957C37.6245 28.8153 37.6044 27.2348 37.6245 25.6544C37.6564 24.4094 38.087 23.2119 38.8471 22.2541C39.6071 21.2963 40.6526 20.634 41.8154 20.3735C42.9783 20.1131 44.1909 20.2696 45.2586 20.8179C46.3262 21.3663 47.1869 22.2746 47.7022 23.397C48.1901 24.4664 47.9537 25.4331 47.081 25.9152C46.2083 26.3972 45.3205 26.0521 44.7672 24.9985C44.2139 23.9449 43.3537 23.5261 42.3879 23.7974C41.4876 24.0608 40.9141 24.8931 40.9116 26.0126C40.9116 28.9399 40.9116 31.8664 40.9116 34.7919C40.9116 35.9457 41.4599 36.7728 42.3603 37.023C43.3663 37.3101 44.2063 36.8913 44.7974 35.7903C45.328 34.8025 46.2083 34.4732 47.0609 34.9157C47.9135 35.3583 48.1801 36.3355 47.745 37.3496C47.2306 38.5039 46.3555 39.4398 45.2643 40.0026C44.1732 40.5654 42.9313 40.7213 41.7441 40.4446C40.6031 40.1746 39.5799 39.5153 38.8352 38.5705C38.0905 37.6256 37.6665 36.4485 37.6295 35.2239C37.5918 33.6093 37.6245 32.0025 37.6245 30.3957Z" fill="#FBFBFB"/>
<path d="M34.4985 37.2551C34.4985 38.8039 34.4985 40.3554 34.4985 41.9042C34.4985 43.0237 33.8295 43.7481 32.8637 43.7612C31.898 43.7744 31.2189 43.029 31.2139 41.9174C31.2021 38.8197 31.2021 35.7212 31.2139 32.6218C31.2139 31.5023 31.898 30.8043 32.8889 30.8201C33.8396 30.8359 34.4834 31.526 34.496 32.606C34.5136 34.1706 34.4985 35.7063 34.4985 37.2551Z" fill="#FBFBFB"/>
</svg>
