<svg width="64" height="64" viewBox="0 0 64 64" fill="none" xmlns="http://www.w3.org/2000/svg">
<rect width="64" height="64" rx="32" fill="#3C8FB7"/>
<path d="M34.9765 27.9321C34.5472 28.1704 34.0672 28.3044 33.5759 28.3231C33.0846 28.3417 32.5958 28.2445 32.1495 28.0394C31.3188 27.6511 30.5826 27.0885 29.9915 26.3904C28.8508 25.1275 27.7811 23.8095 26.7699 22.4394C26.5171 22.1154 26.2432 21.8082 25.9499 21.5199C25.0713 20.6003 24.0108 20.4287 22.8269 20.7842C22.7345 20.8118 22.645 20.8425 22.5526 20.8762L22.2443 20.9896C22.1467 20.4598 22.171 19.9149 22.3152 19.3957C22.376 19.2476 22.4734 19.1171 22.5984 19.0164C22.7234 18.9156 22.872 18.8479 23.0304 18.8195C23.6628 18.6815 24.3184 18.6878 24.9479 18.8379L25.1607 18.8747C25.1761 18.8532 25.1915 18.844 25.1946 18.8317C25.3672 17.9459 26.0793 17.8233 26.8316 17.9551C27.4481 18.0624 28.0431 18.2371 28.6566 18.3383C29.0697 18.4088 29.4982 18.4088 29.9175 18.4394H30.1179L30.0285 18.5191C29.5599 18.9053 29.526 19.0616 29.8188 19.5919C29.9744 19.8798 30.1863 20.1338 30.442 20.3391C30.6977 20.5443 30.9921 20.6967 31.3079 20.7873C31.8322 20.9403 32.37 21.0429 32.914 21.0938C33.2191 21.1234 33.5267 21.0737 33.8066 20.9496C34.0865 20.8255 34.3292 20.6312 34.5109 20.3858C34.9767 19.7827 35.3372 19.1061 35.5776 18.3842C35.6481 18.1951 35.7555 18.0216 35.8936 17.8738C36.0316 17.726 36.1977 17.6068 36.3822 17.5229C37.15 17.1478 37.9931 16.9498 38.8485 16.9436C40.6267 16.8419 42.4049 17.1427 44.0493 17.8233C46.0219 18.6992 47.6798 20.151 48.8031 21.9858C50.1932 24.2333 51.4133 26.5805 52.4531 29.008C52.7533 29.7566 53.1763 30.4506 53.7048 31.0616C54.0819 31.5351 54.6289 31.8449 55.2308 31.926C55.4315 31.9319 55.6324 31.9237 55.832 31.9015C55.5358 32.2769 55.1168 32.5373 54.6477 32.6375C54.1786 32.7377 53.689 32.6714 53.2639 32.4501C52.7577 32.1338 52.3231 31.7163 51.9876 31.2241C51.4092 30.4122 50.9105 29.5469 50.4986 28.6402C49.5738 26.8011 48.6797 24.9314 47.7241 23.0923C47.0096 21.6454 45.9345 20.4045 44.6011 19.4877C43.0867 18.462 41.2767 17.9561 39.4466 18.0471C38.7622 18.0716 38.0809 18.2095 37.3996 18.2984C37.2551 18.3169 37.1162 18.3655 36.9919 18.4411C36.8676 18.5166 36.7607 18.6173 36.6782 18.7367C36.4562 19.0432 36.2682 19.3651 36.0616 19.6808C35.8181 20.067 35.5992 20.4747 35.3248 20.8364C35.0558 21.2433 34.6747 21.5649 34.2271 21.7627C33.7795 21.9605 33.2841 22.0262 32.8 21.952C32.0503 21.8838 31.3192 21.6813 30.642 21.3544C30.2284 21.1592 29.8698 20.8654 29.5982 20.4991C29.3265 20.1327 29.1503 19.7052 29.0851 19.2547C28.2435 19.0739 27.4142 18.8839 26.5819 18.7214C25.8697 18.5804 25.657 18.9758 25.7032 19.457C25.7062 19.4999 25.7062 19.5429 25.7032 19.5858C25.3302 19.5214 24.9695 19.4295 24.6027 19.3988C24.2192 19.3636 23.8332 19.3636 23.4497 19.3988C23.0982 19.4356 23.0489 19.5306 23.0366 19.88C23.0366 19.9965 23.0366 20.113 23.0366 20.2386C23.5206 19.9045 24.0323 19.9842 24.5225 20.1069C25.5894 20.3363 26.5523 20.9043 27.2662 21.7252C27.9311 22.5774 28.7006 23.3435 29.5568 24.0057C30.2229 24.4719 30.9134 24.9026 31.6254 25.2961C32.6172 25.8299 33.5388 26.4836 34.3691 27.2425C34.5695 27.457 34.7607 27.693 34.9765 27.9321Z" fill="#FBFBFB"/>
<path d="M51.0395 32.5576C49.8773 32.343 48.9 31.8986 48.376 30.8135C47.7871 29.5875 47.2353 28.3614 46.6742 27.1201C46.2087 26.0994 45.7771 25.0664 45.2869 24.0549C44.8432 23.1763 44.2509 22.38 43.5359 21.7009C42.7416 20.9431 41.7002 20.4939 40.601 20.435C40.2742 20.4074 39.9474 20.4105 39.6207 20.4013C39.5378 20.3983 39.456 20.4208 39.3864 20.4656C39.5621 20.5361 39.7409 20.6036 39.9135 20.6802C41.6984 21.439 43.147 22.814 43.9921 24.5515C44.811 26.1808 45.5046 27.8694 46.0669 29.6028C46.0694 29.6273 46.0694 29.6519 46.0669 29.6764C45.6785 29.422 45.3054 29.1645 44.9201 28.9285C44.6374 28.7522 44.3439 28.5935 44.0415 28.4534C43.9592 28.4192 43.8874 28.3641 43.8333 28.2936C43.7792 28.2232 43.7447 28.1398 43.7332 28.0518C43.3884 26.4018 42.6739 24.8502 41.643 23.5124C41.1265 22.8249 40.477 22.247 39.7326 21.8128C38.9883 21.3785 38.1641 21.0966 37.3085 20.9836C37.139 20.9622 36.9694 20.9499 36.7598 20.9285C36.9971 20.4963 37.2068 20.0825 37.4503 19.7024C37.5475 19.5725 37.6888 19.4821 37.848 19.448C40.0553 19.025 42.164 19.2457 44.0754 20.5024C44.7628 20.9975 45.3452 21.6224 45.7894 22.3415C46.8041 23.8813 47.6486 25.5256 48.3081 27.2457C49.0356 29.0631 49.9347 30.8078 50.9933 32.4564C51.0109 32.4891 51.0264 32.5229 51.0395 32.5576Z" fill="#FBFBFB"/>
<path d="M7.95804 31.8867C8.23094 31.9701 8.51854 31.9949 8.80181 31.9595C9.08508 31.9241 9.35755 31.8293 9.6012 31.6813C10.4571 31.2378 11.1452 30.53 11.5619 29.6644C12.1569 28.4874 12.7211 27.292 13.2852 26.1028C13.9242 24.6509 14.6874 23.2562 15.5665 21.9342C16.8299 20.0736 18.6443 18.6499 20.758 17.8606C22.0898 17.3938 23.5315 17.3329 24.8983 17.6859C24.923 17.6909 24.9462 17.7011 24.9664 17.7159C24.9867 17.7308 25.0034 17.7498 25.0155 17.7717C24.8631 17.8463 24.7042 17.9069 24.5407 17.9526C24.0814 18.0353 23.6158 18.0629 23.1596 18.1641C20.7735 18.6744 18.6611 20.0433 17.2282 22.0077C16.2445 23.4016 15.4008 24.8882 14.7095 26.4461C14.1094 27.6925 13.4815 28.9278 12.8259 30.1518C12.451 30.8355 11.9585 31.4486 11.3708 31.9633C10.9796 32.3392 10.4975 32.6084 9.97115 32.7449C9.77416 32.7994 9.56788 32.8123 9.36558 32.7827C9.16328 32.7532 8.96946 32.6818 8.79658 32.5733C8.48829 32.3802 8.21084 32.1564 7.91797 31.9449L7.95804 31.8867Z" fill="#FBFBFB"/>
<path d="M31.9918 36.7017H33.3945V36.9469C33.3945 41.4036 33.3945 45.8593 33.3945 50.3139C33.4006 50.3868 33.3892 50.46 33.3614 50.5277C33.3335 50.5954 33.2899 50.6555 33.2342 50.7032C33.0461 50.8687 32.8704 51.0465 32.6638 51.2396C32.4542 51.022 32.2291 50.7921 32.0133 50.553C31.9824 50.4958 31.9705 50.4304 31.9794 50.366V36.8794C31.9794 36.8304 31.9856 36.7722 31.9918 36.7017Z" fill="#FBFBFB"/>
<path d="M21.4506 20.0154L21.5369 21.4008C20.4301 21.9679 19.7488 22.9334 19.1168 23.9541C18.3861 25.1949 17.7671 26.4976 17.2671 27.8468C16.8228 29.0653 16.1825 30.204 15.3712 31.2185C14.8077 31.9618 14.0027 32.4882 13.0929 32.7081C12.9234 32.7418 12.7446 32.7572 12.5195 32.7878C12.6922 32.5947 12.8278 32.4476 12.9635 32.2913C13.7425 31.3239 14.4124 30.2745 14.9611 29.1617C15.6147 27.8652 16.222 26.5472 16.8479 25.2353C17.4971 23.789 18.3954 22.4664 19.5022 21.3273C19.9506 20.8677 20.4712 20.4836 21.0436 20.1901C21.1762 20.1196 21.3087 20.0736 21.4506 20.0154Z" fill="#FBFBFB"/>
<path d="M25.5505 29.5295V30.1762L25.3594 30.2314C24.974 30.3356 24.974 30.3356 24.974 30.7463C24.974 31.6659 24.974 32.5609 24.974 33.4682C24.9697 33.6374 24.981 33.8067 25.0079 33.9739C25.0466 34.2826 25.2048 34.5641 25.4488 34.7587C25.6929 34.9532 26.0036 35.0456 26.315 35.0161C27.0457 34.9731 27.6376 34.4858 27.6561 33.8145C27.6931 32.6896 27.6746 31.5586 27.6561 30.4429C27.6473 30.4088 27.6305 30.3774 27.6068 30.3512C27.5832 30.3251 27.5536 30.305 27.5204 30.2927C27.3789 30.2506 27.2347 30.2179 27.0888 30.1946V29.5295C27.1659 29.5295 27.2306 29.5142 27.2954 29.5142C27.9705 29.5142 28.6457 29.5142 29.3177 29.5142C29.5089 29.5142 29.5551 29.5755 29.552 29.7563C29.552 30.213 29.552 30.213 29.0896 30.2958C29.0156 30.2958 28.9447 30.3264 28.8491 30.3479V30.5839C28.8491 31.5034 28.8121 32.423 28.8491 33.3425C28.8624 33.884 28.6847 34.413 28.3469 34.8379C28.0091 35.2628 27.5324 35.5568 26.9994 35.6689C26.5295 35.7893 26.0392 35.8093 25.5609 35.7274C25.0826 35.6455 24.6272 35.4636 24.2249 35.1938C24.001 35.046 23.8149 34.8482 23.6817 34.6162C23.5484 34.3841 23.4715 34.1243 23.4572 33.8575C23.3987 32.7847 23.4048 31.7118 23.3987 30.6299C23.3987 30.4306 23.3555 30.3479 23.1459 30.3233C22.6927 30.2436 22.6927 30.2314 22.6958 29.7778V29.5754L25.5505 29.5295Z" fill="#FBFBFB"/>
<path d="M34.9258 36.6677H36.3408C36.3408 36.7474 36.3408 36.824 36.3408 36.9007C36.3408 41.1408 36.3408 45.3799 36.3408 49.6179C36.3408 49.7896 36.3038 49.8662 36.1281 49.8999C35.7304 49.9765 35.3389 50.0746 34.9289 50.1666L34.9258 36.6677Z" fill="#FBFBFB"/>
<path d="M29.1914 36.699H30.5756V50.2131L29.1914 49.8729V36.699Z" fill="#FBFBFB"/>
<path d="M39.3073 29.4282C39.6988 30.4673 40.0842 31.4941 40.4726 32.521C40.7347 33.2167 41.0029 33.9125 41.2557 34.6114C41.2731 34.6697 41.3077 34.7216 41.3549 34.7603C41.4021 34.7991 41.4599 34.823 41.5208 34.829C42.1374 34.9393 42.1559 34.9577 42.0541 35.6076H39.3351C39.3351 35.4206 39.3351 35.2336 39.3351 35.0436C39.3351 35.0006 39.406 34.9393 39.4553 34.924C39.5931 34.8809 39.733 34.8451 39.8746 34.8167C39.7821 34.5899 39.7019 34.3723 39.6002 34.1639C39.579 34.1379 39.5522 34.117 39.5218 34.1026C39.4914 34.0883 39.4581 34.081 39.4245 34.0811C38.8665 34.0811 38.3116 34.0811 37.7536 34.0811C37.7141 34.0871 37.6763 34.1014 37.6428 34.1231C37.6093 34.1447 37.5809 34.1733 37.5594 34.2068C37.4638 34.3968 37.3929 34.5991 37.3035 34.8198C37.473 34.8566 37.6333 34.8842 37.7844 34.9332C37.8148 34.9449 37.842 34.9634 37.864 34.9873C37.8859 35.0113 37.902 35.04 37.9108 35.0712C37.9201 35.2509 37.9201 35.4309 37.9108 35.6106H35.4445C35.4352 35.4319 35.4352 35.2529 35.4445 35.0742C35.4445 35.019 35.537 34.9302 35.5863 34.9302C36.0179 34.9302 36.1597 34.6482 36.2954 34.2926C36.8904 32.76 37.5285 31.2275 38.1266 29.6704C38.1343 29.63 38.15 29.5916 38.173 29.5574C38.1959 29.5232 38.2255 29.494 38.26 29.4714C38.2945 29.4488 38.3332 29.4333 38.3739 29.4259C38.4145 29.4185 38.4562 29.4193 38.4965 29.4282C38.7832 29.4405 39.0422 29.4282 39.3073 29.4282ZM39.2395 33.2535L38.5798 31.5524L37.9324 33.2535H39.2395Z" fill="#FBFBFB"/>
<path d="M26.3649 36.7017H27.7645V49.4955C27.3113 49.3883 26.8735 49.2871 26.4358 49.189C26.4049 49.189 26.3772 49.1155 26.3679 49.0726C26.3617 49.0145 26.3617 48.9559 26.3679 48.8978V36.7017H26.3649Z" fill="#FBFBFB"/>
<path d="M37.7617 49.4927V36.6528C38.1872 36.6528 38.6218 36.6528 39.0565 36.6528C39.0904 36.6528 39.1398 36.708 39.149 36.7479C39.1568 36.813 39.1568 36.8789 39.149 36.944C39.149 40.896 39.1562 44.848 39.1706 48.8C39.1706 49.0176 39.1058 49.1065 38.8962 49.1586C38.5294 49.2567 38.1625 49.3762 37.7617 49.4927Z" fill="#FBFBFB"/>
<path d="M40.7148 48.564V36.6743H42.1114C42.1114 36.7479 42.1114 36.8276 42.1114 36.9042V46.4613C42.1331 46.9268 42.0378 47.3903 41.8339 47.81C41.7313 48.0229 41.5736 48.2049 41.3769 48.3374C41.1803 48.4699 40.9518 48.5481 40.7148 48.564Z" fill="#FBFBFB"/>
<path d="M23.3945 36.699H24.788V48.5856C24.6261 48.5777 24.4673 48.5382 24.3208 48.4693C24.1743 48.4004 24.0428 48.3035 23.934 48.184C23.5786 47.7715 23.3878 47.2436 23.3976 46.7005C23.3976 46.5748 23.3976 46.4492 23.3976 46.3235V36.699H23.3945Z" fill="#FBFBFB"/>
<path d="M30.9147 33.2232C30.9704 33.515 31.0455 33.8027 31.1397 34.0845C31.2679 34.4201 31.5237 34.6922 31.8519 34.8419C32.1801 34.9916 32.5544 35.0069 32.8939 34.8845C33.0128 34.8531 33.1213 34.7909 33.2082 34.7043C33.2952 34.6176 33.3575 34.5096 33.3888 34.3913C33.4201 34.2729 33.4194 34.1484 33.3866 34.0305C33.3538 33.9125 33.2902 33.8053 33.2022 33.7197C33.0424 33.5893 32.8662 33.4801 32.6781 33.3948C32.2218 33.1527 31.7532 32.9535 31.3093 32.6745C30.2118 31.9696 30.144 30.6332 31.1274 29.7841C31.4811 29.4872 31.9229 29.3138 32.3852 29.2906C32.8962 29.2804 33.406 29.3434 33.8989 29.4776C34.0479 29.5019 34.1982 29.5182 34.349 29.5266C34.386 29.9527 34.4261 30.3849 34.4569 30.814C34.4539 30.8385 34.4458 30.862 34.4331 30.8832C34.4203 30.9043 34.4032 30.9225 34.3829 30.9366C34.2072 31.0561 34.0253 31.1665 33.828 31.2922C33.7941 31.0868 33.7787 30.906 33.7324 30.7312C33.6887 30.5705 33.608 30.422 33.4968 30.2975C33.3856 30.1731 33.2468 30.0759 33.0914 30.0138C32.936 29.9517 32.7682 29.9264 32.6013 29.9397C32.4343 29.953 32.2728 30.0047 32.1293 30.0906C32.0266 30.1463 31.9393 30.2265 31.8752 30.3239C31.8112 30.4213 31.7724 30.533 31.7623 30.6489C31.7522 30.7649 31.7712 30.8815 31.8175 30.9884C31.8638 31.0953 31.936 31.1891 32.0276 31.2615C32.1763 31.37 32.3405 31.4557 32.5147 31.5159C32.9566 31.657 33.3908 31.8207 33.8156 32.0063C34.6203 32.4232 34.7744 33.1711 34.7004 33.9925C34.6749 34.3231 34.5511 34.6386 34.3447 34.899C34.1383 35.1594 33.8586 35.3528 33.5413 35.4546C33.0361 35.645 32.4935 35.7164 31.9559 35.6632C31.4184 35.6101 30.9005 35.4337 30.443 35.1481C30.4112 35.122 30.385 35.0898 30.366 35.0535C30.3469 35.0172 30.3354 34.9775 30.332 34.9366C30.332 34.5473 30.332 34.155 30.332 33.7657C30.3331 33.7019 30.3559 33.6403 30.3968 33.591C30.5632 33.4684 30.7451 33.3458 30.9147 33.2232Z" fill="#FBFBFB"/>
<path d="M41.7343 27.7179L39.8631 27.4114C39.8076 27.1968 39.7582 26.9425 39.6719 26.7003C39.285 25.6783 38.5934 24.7982 37.6896 24.1777C37.0731 23.7363 36.4072 23.3869 35.7629 22.9976C35.6827 22.9486 35.5933 22.9149 35.5039 22.8719L36.4288 21.5876C38.0139 22.185 39.4012 23.2079 40.4365 24.5424C41.1384 25.4713 41.5857 26.5655 41.7343 27.7179Z" fill="#FBFBFB"/>
<path d="M25.0215 21.94C23.2705 22.7983 22.2223 24.2634 21.3899 25.9002C20.9861 26.691 20.687 27.537 20.351 28.3523C20.3278 28.4156 20.2909 28.4731 20.2429 28.5207C20.195 28.5684 20.1372 28.605 20.0736 28.6282C19.4354 28.8979 18.8034 29.1921 18.1714 29.4741C18.1426 29.4854 18.1126 29.4936 18.082 29.4986C18.2855 29.0481 18.4736 28.619 18.6678 28.1929C19.2196 26.9852 19.7005 25.7408 20.4219 24.622C20.9549 23.725 21.6611 22.9417 22.4998 22.317C22.9533 21.9669 23.4911 21.7408 24.0597 21.6611C24.4044 21.6277 24.7489 21.7276 25.0215 21.94Z" fill="#FBFBFB"/>
<path d="M15.9676 48.1317L11.9353 49.5264L11.8798 49.4835L13.6586 45.6796L13.6216 45.6429L10.7545 47.7517L11.0628 48.2942L10.9241 48.4413L9.85742 47.2704L10.0177 47.1509H10.0701C10.5048 47.4574 10.5048 47.4574 10.9488 47.1509L13.5229 45.2934L13.7079 45.1524L13.338 44.567L13.4674 44.4321C13.4915 44.4387 13.5144 44.4491 13.5353 44.4628C13.8096 44.7693 14.0778 45.0758 14.3584 45.367C14.4509 45.4651 14.42 45.5417 14.3584 45.6398L12.9804 48.5854C12.9495 48.6497 12.9218 48.7172 12.8725 48.8306L13.2609 48.6988C14.2351 48.3647 15.2093 48.0367 16.1804 47.6965C16.2328 47.6708 16.2928 47.6647 16.3494 47.6793C16.406 47.6939 16.4554 47.7283 16.4886 47.7762C16.7414 48.0827 17.0096 48.3616 17.284 48.6651L17.1422 48.8183L16.612 48.3984L13.9237 51.3164L14.232 51.8467L14.0778 51.9785L12.8447 50.6053C12.9156 50.4613 12.9896 50.4367 13.1068 50.5379C13.2239 50.639 13.3626 50.734 13.5044 50.8444L15.9861 48.1838L15.9676 48.1317Z" fill="#FBFBFB"/>
<path d="M32.8125 24.325C33.3982 24.1901 33.9439 24.1043 34.3848 23.7395C34.4094 23.7282 34.4362 23.7224 34.4634 23.7224C34.4905 23.7224 34.5173 23.7282 34.542 23.7395C35.8677 24.3843 37.0093 25.3497 37.8622 26.5472C38.0287 26.7985 38.1705 27.0713 38.3246 27.3687C38.0718 27.3687 37.8591 27.3901 37.6526 27.4085C37.3104 27.4392 36.9744 27.4821 36.6352 27.5096C36.5987 27.5135 36.5617 27.5092 36.527 27.497C36.4923 27.4848 36.4609 27.465 36.4349 27.4391C35.5655 26.1457 34.3601 25.2292 33.0283 24.4537C32.9666 24.4261 32.9081 24.3924 32.8125 24.325Z" fill="#FBFBFB"/>
<path d="M21.9746 28.0056C22.8378 25.906 23.8983 23.9995 25.9022 22.7673C26.118 22.9972 26.3122 23.2087 26.5187 23.4202L26.6297 23.552C26.1858 24.0118 25.7326 24.4501 25.3195 24.919C24.6166 25.7105 24.0565 26.6169 23.664 27.598C23.6468 27.6383 23.6211 27.6745 23.5887 27.7041C23.5563 27.7337 23.5178 27.756 23.476 27.7696C23.0259 27.8585 22.5727 27.929 22.1195 28.0026C22.0714 28.0084 22.0229 28.0094 21.9746 28.0056Z" fill="#FBFBFB"/>
<path d="M22.2312 55.6839C22.7245 54.6694 23.1931 53.7131 23.6679 52.7445C23.5322 52.6495 23.412 52.5544 23.2794 52.4717C23.1469 52.3889 23.1129 52.3123 23.2455 52.1835L24.6975 52.8855C24.6975 53.0479 24.6205 53.0847 24.4694 53.0448C23.9946 52.9192 23.9946 52.9222 23.7757 53.3698L22.2128 56.5452C22.1788 56.6157 22.1388 56.6832 22.1018 56.7537C22.0096 56.7408 21.924 56.6986 21.8579 56.6334C21.7918 56.5683 21.7486 56.4836 21.7349 56.392C21.3126 54.9054 20.8748 53.4219 20.4401 51.9383C20.4216 51.8709 20.3939 51.8035 20.3476 51.6839L18.8278 54.7889C18.9758 54.8962 19.1083 55.0004 19.2532 55.0954C19.3981 55.1904 19.395 55.2517 19.2686 55.3621L17.7734 54.6449L17.8567 54.4548L18.4917 54.6295C19.0652 53.4587 19.6386 52.2847 20.2243 51.0924L19.6941 50.7L19.7865 50.5161C20.1318 50.6786 20.4679 50.8226 20.7946 51.0035C20.8605 51.0582 20.9052 51.1341 20.921 51.218C21.3321 52.6035 21.7349 53.9889 22.1295 55.3744C22.1603 55.4571 22.185 55.5368 22.2312 55.6839Z" fill="#FBFBFB"/>
<path d="M52.5263 40.7507C52.403 40.9499 52.292 41.1307 52.1718 41.3055C52.1718 41.3055 52.0793 41.284 51.9961 41.2625C52.1163 40.8917 52.2304 40.5269 52.3568 40.1714C52.3784 40.1162 52.4678 40.0825 52.5325 40.0518L56.5217 38.2556C56.5957 38.225 56.6666 38.1882 56.7992 38.1269L53.6793 37.1307L53.371 37.7009L53.1737 37.6273L53.6793 36.0947C53.8489 36.0947 53.892 36.1468 53.8674 36.3062C53.7842 36.7783 53.7903 36.7783 54.2466 36.9192L57.6963 38.0135L57.8843 38.0809C57.8947 38.1701 57.8732 38.2602 57.8236 38.3352C57.7741 38.4103 57.6995 38.4657 57.613 38.4917C56.2011 39.1047 54.7922 39.7606 53.3834 40.3982C53.3032 40.4319 53.2231 40.4717 53.0998 40.533L53.3556 40.6281C54.3021 40.9346 55.2485 41.2411 56.1919 41.5476C56.3429 41.5997 56.4385 41.5967 56.5001 41.4311C56.5341 41.3331 56.6019 41.2503 56.6389 41.1553C56.6759 41.0602 56.7745 40.9959 56.9102 41.0848L56.4138 42.6541C56.2504 42.6541 56.198 42.5989 56.2227 42.4426C56.2905 41.9553 56.2874 41.9553 55.825 41.8081L52.5263 40.7507Z" fill="#FBFBFB"/>
<path d="M6.91016 41.661L7.09821 41.5598L7.4959 42.0809L11.0134 40.297L10.8346 39.6656L11.035 39.5767C11.482 40.4962 11.9383 41.3667 12.3545 42.2709C12.5776 42.727 12.6343 43.246 12.5148 43.7391C12.4621 43.9575 12.3714 44.165 12.2466 44.3521C11.949 44.7257 11.556 45.013 11.1086 45.1839C10.6612 45.3548 10.1758 45.4031 9.70322 45.3238C9.10147 45.1619 8.58575 44.7755 8.26353 44.2449C8.14901 44.0805 8.046 43.9084 7.95524 43.7299C7.60688 43.0372 7.2616 42.3537 6.91016 41.661ZM11.371 40.8303C10.2242 41.4127 9.09898 41.9767 7.97991 42.5498C7.92441 42.5774 7.85659 42.697 7.87509 42.7399C8.03888 43.1958 8.23994 43.6376 8.47625 44.061C8.6394 44.3384 8.88613 44.5577 9.18155 44.6881C9.47697 44.8185 9.80613 44.8532 10.1225 44.7874C10.7897 44.6824 11.3911 44.3269 11.8026 43.7943C12.0514 43.4666 12.162 43.0554 12.1109 42.6479C12.0431 41.9736 11.704 41.4127 11.371 40.8303Z" fill="#FBFBFB"/>
<path d="M47.7792 16.2943L48.143 16.8583L47.9858 17.0085L46.6602 15.574C46.7341 15.4268 46.8143 15.4085 46.9284 15.5065C47.0424 15.6046 47.2058 15.7211 47.3538 15.8315L50.2578 13.1648L49.8879 12.5763L50.0266 12.4138C50.597 13.0452 51.1704 13.6062 51.6575 14.2314C52.2031 14.9303 51.8794 15.7885 51.0131 16.0092C50.6677 16.0667 50.3183 16.0974 49.9681 16.1012C49.8756 16.9564 49.4995 17.8177 49.6598 18.7556C49.5611 18.8445 49.484 18.8291 49.4316 18.7004C49.4263 18.6862 49.4191 18.6728 49.4101 18.6606C48.9538 18.1211 49.1018 17.5173 49.2313 16.9196C49.3022 16.5671 49.3823 16.2146 49.4409 15.859C49.4506 15.765 49.4242 15.6708 49.3669 15.5954C49.246 15.4556 49.1174 15.3226 48.9815 15.197L47.7792 16.2943ZM49.1295 15.0682L49.7461 15.5954C49.8035 15.6593 49.873 15.7113 49.9508 15.7482C50.0285 15.7851 50.1128 15.8064 50.1989 15.8106C50.2849 15.8149 50.3709 15.8022 50.452 15.7731C50.533 15.7441 50.6075 15.6993 50.6709 15.6414C50.7745 15.5693 50.8715 15.4883 50.9607 15.3993C51.5588 14.8199 51.4447 14.1977 50.8313 13.6797C50.803 13.6639 50.7712 13.6555 50.7388 13.6555C50.7064 13.6555 50.6745 13.6639 50.6463 13.6797C50.1684 14.1088 49.6875 14.5533 49.1295 15.0652V15.0682Z" fill="#FBFBFB"/>
<path d="M39.3095 55.2701C39.8799 55.6686 40.4718 56.0885 41.0698 56.4962C41.2075 56.5662 41.3509 56.6247 41.4984 56.6709C41.5218 56.6818 41.5424 56.698 41.5585 56.7183C41.5745 56.7385 41.5856 56.7622 41.5909 56.7874C41.5841 56.8119 41.5713 56.8343 41.5535 56.8525C41.5357 56.8708 41.5136 56.8842 41.4891 56.8916C41.0668 56.9131 40.6475 56.9866 40.256 56.6617C39.8645 56.3368 39.3681 56.0027 38.9303 55.6594C38.8799 55.6075 38.8137 55.5733 38.7419 55.5623C38.6701 55.5512 38.5966 55.5638 38.5327 55.5981C38.3939 55.6625 38.2429 55.7023 38.0764 55.7636C38.2244 56.2602 38.3662 56.7445 38.5172 57.2288C38.5329 57.2499 38.5533 57.267 38.5769 57.2787C38.6005 57.2905 38.6265 57.2964 38.6529 57.2962C38.7794 57.2968 38.9055 57.2834 39.029 57.2563C39.1831 57.2226 39.2325 57.2839 39.2232 57.4495L37.392 57.9859C37.2841 57.8602 37.2964 57.7836 37.4413 57.7223C37.5862 57.661 37.7496 57.5751 37.913 57.4954C37.8976 57.428 37.8914 57.3636 37.8729 57.3023C37.5369 56.1744 37.1978 55.0464 36.8679 53.9154C36.8186 53.7529 36.7446 53.7008 36.5874 53.7345C36.4794 53.7603 36.3686 53.7727 36.2575 53.7713C36.1698 53.7454 36.0859 53.7083 36.0078 53.661C36.049 53.6271 36.0934 53.5973 36.1404 53.5721C36.8278 53.3698 37.5153 53.1613 38.2059 52.959C38.4147 52.8775 38.6431 52.8591 38.8624 52.9059C39.0818 52.9528 39.2823 53.063 39.439 53.2226C39.5928 53.3827 39.6976 53.583 39.7413 53.8001C39.7849 54.0172 39.7656 54.2421 39.6857 54.4487C39.5932 54.7368 39.4483 54.9698 39.3095 55.2701ZM38.0055 55.4786L38.4988 55.3498C39.2695 55.1046 39.4236 54.8042 39.1462 54.041V54.0226C39.0987 53.8497 39.0077 53.6915 38.8817 53.5633C38.7557 53.435 38.5989 53.3408 38.4261 53.2896C38.2533 53.2383 38.0701 53.2318 37.8941 53.2705C37.718 53.3092 37.5547 53.3919 37.4198 53.5108L38.0055 55.4786Z" fill="#FBFBFB"/>
<path d="M55.147 44.6801C55.1624 45.7038 54.2221 47.1322 53.0229 47.2854C52.0764 47.405 51.3365 46.9789 50.7138 46.3322C50.5252 46.1376 50.3776 45.9074 50.2796 45.6553C50.1817 45.4032 50.1354 45.1341 50.1435 44.864C50.162 43.9169 51.093 42.4456 52.4248 42.3782C53.3497 42.3322 54.851 43.0127 55.0884 44.2418C55.1223 44.3858 55.147 44.533 55.147 44.6801ZM52.5759 43.0034C51.2841 42.9421 50.4179 43.7544 50.4888 44.7414C50.5062 44.9568 50.5703 45.166 50.6768 45.3544C51.13 46.1759 52.4834 46.8042 53.4144 46.6694C54.3454 46.5345 55.3227 45.2134 54.4965 44.1682C54.2724 43.8562 53.9874 43.5922 53.6585 43.392C53.3296 43.1919 52.9635 43.0598 52.582 43.0034H52.5759Z" fill="#FBFBFB"/>
<path d="M12.1288 21.6794C12.1288 23.0709 11.0221 24.3338 9.792 24.3338C8.42321 24.3338 7.1839 23.2426 7.17773 22.0349C7.17773 20.6556 8.28448 19.4296 9.53612 19.4326C10.9881 19.4326 12.1257 20.4073 12.1288 21.6794ZM9.5207 20.0763C9.03272 20.0395 8.54695 20.1716 8.14575 20.4502C7.95187 20.5807 7.79042 20.7533 7.67364 20.955C7.55687 21.1568 7.48783 21.3823 7.47179 21.6145C7.45574 21.8467 7.49311 22.0795 7.58104 22.2952C7.66897 22.5109 7.80516 22.7039 7.97928 22.8594C8.30407 23.166 8.69539 23.3943 9.12301 23.5266C9.55064 23.659 10.0031 23.6918 10.4456 23.6227C10.7451 23.5768 11.0252 23.4469 11.2529 23.2482C11.4806 23.0494 11.6465 22.7901 11.7311 22.5008C11.8365 22.2495 11.8634 21.9725 11.8085 21.7058C11.7535 21.439 11.6191 21.1949 11.4228 21.005C10.9282 20.4695 10.2494 20.1381 9.5207 20.0763Z" fill="#FBFBFB"/>
<path d="M44.9549 9.14028L44.4925 8.70197L44.6034 8.51807L46.1788 9.57859C46.1264 9.83606 45.9846 9.71347 45.8705 9.66442C45.7564 9.61538 45.6269 9.5602 45.4913 9.49889C45.4204 9.60004 45.3526 9.69506 45.2878 9.80541C44.9086 10.3602 44.5325 10.9181 44.1564 11.4728C44.0978 11.5587 44.0393 11.6445 43.9869 11.7365C43.7156 12.2085 43.5676 12.6989 43.916 13.1893C44.0825 13.4408 44.3168 13.6408 44.592 13.7665C44.8672 13.8922 45.1724 13.9386 45.4728 13.9004C45.6251 13.8795 45.7709 13.8259 45.9003 13.7433C46.0296 13.6607 46.1394 13.5512 46.2219 13.4223C46.5765 12.9411 46.9125 12.4445 47.2516 11.9541C47.4458 11.6751 47.6339 11.3932 47.8404 11.0928L47.3533 10.6637L47.4921 10.4644L48.9688 11.4606C48.9256 11.6476 48.8331 11.6445 48.6913 11.5801C48.2659 11.3809 48.2628 11.387 48.0007 11.7702C47.6925 12.2361 47.3842 12.7081 47.0512 13.1587C46.8555 13.4364 46.629 13.6913 46.3761 13.9188C46.1539 14.1306 45.8708 14.2681 45.5663 14.312C45.2617 14.356 44.951 14.3042 44.6774 14.164C44.2828 13.9796 43.9205 13.7333 43.6046 13.4345C43.3239 13.1898 43.1473 12.8481 43.1106 12.4787C43.074 12.1092 43.18 11.7398 43.4073 11.4453C43.8451 10.7801 44.3013 10.1242 44.7483 9.46211C44.8131 9.35483 44.8778 9.25675 44.9549 9.14028Z" fill="#FBFBFB"/>
<path d="M22.2105 12.0737L20.6475 13.0515C20.5612 12.9687 20.5612 12.9687 20.9558 12.4385C20.5828 12.1749 20.2128 11.9082 19.8336 11.6507C19.803 11.6373 19.77 11.6304 19.7365 11.6304C19.7031 11.6304 19.67 11.6373 19.6394 11.6507C19.2284 11.8959 18.8276 12.1473 18.4371 12.4048C18.4093 12.4243 18.3865 12.4499 18.3705 12.4797C18.3544 12.5095 18.3456 12.5426 18.3446 12.5764C18.434 13.0055 18.5357 13.4346 18.6529 13.8944C18.8194 13.827 18.9612 13.7779 19.1153 13.7105C19.2695 13.6431 19.3188 13.6891 19.362 13.8423L18.0086 14.6944C17.8606 14.5841 17.8791 14.4798 18.0086 14.3879C18.1131 14.3213 18.1913 14.2209 18.2301 14.1037C18.2688 13.9864 18.2657 13.8595 18.2213 13.7442C17.95 12.3925 17.7034 11.0377 17.4413 9.68599C17.4234 9.63928 17.4232 9.58767 17.4408 9.54083C17.4584 9.49399 17.4926 9.45515 17.5369 9.43158C17.5786 9.39257 17.6338 9.37085 17.691 9.37085C17.7483 9.37085 17.8035 9.39257 17.8452 9.43158C18.9735 10.2316 20.1111 11.0193 21.2363 11.8285C21.329 11.9259 21.4525 11.9885 21.5862 12.0058C21.7198 12.0231 21.8554 11.994 21.97 11.9235C22.081 11.8745 22.1612 11.9113 22.2105 12.0737ZM19.4791 11.3933L17.8853 10.2653L18.2706 12.1503L19.4791 11.3933Z" fill="#FBFBFB"/>
<path d="M46.6572 54.3046L45.0171 55.1751C44.8167 55.0218 44.9708 54.9452 45.0787 54.8686L45.4148 54.5989C45.0356 54.2923 44.6749 53.9858 44.3049 53.7008C44.271 53.6763 44.1785 53.7008 44.1261 53.7253C43.713 53.9399 43.2999 54.1575 42.893 54.3843C42.861 54.4065 42.8346 54.4358 42.8159 54.4698C42.7972 54.5038 42.7866 54.5417 42.7851 54.5805C42.8375 55.0096 42.9084 55.4387 42.9793 55.9015C43.1489 55.8433 43.303 55.8004 43.451 55.7422C43.599 55.6839 43.6606 55.7207 43.6884 55.8954L42.2918 56.631C42.1469 56.536 42.1469 56.4379 42.2918 56.3613C42.5755 56.2019 42.6001 55.9812 42.56 55.6778C42.3843 54.3322 42.2518 52.9835 42.0853 51.6379C42.0853 51.5184 42.0637 51.4356 42.1963 51.3682C42.2441 51.3383 42.3008 51.3256 42.357 51.3323C42.4131 51.339 42.4652 51.3647 42.5046 51.405C43.5712 52.2847 44.6626 53.149 45.7107 54.0379C45.7961 54.131 45.9091 54.1946 46.0333 54.2194C46.1575 54.2442 46.2864 54.229 46.4013 54.1759C46.5647 54.0962 46.5739 54.1238 46.6572 54.3046ZM43.9874 53.431L42.4737 52.205C42.557 52.8732 42.6371 53.477 42.7173 54.1115L43.9874 53.431Z" fill="#FBFBFB"/>
<path d="M10.4454 37.2658C10.5687 37.4712 10.5224 37.603 10.3282 37.7471C9.22146 38.5655 8.13013 39.4053 7.0203 40.2206C6.92448 40.2723 6.8479 40.3532 6.80183 40.4514C6.75576 40.5497 6.74265 40.66 6.76443 40.7662C6.77077 40.8386 6.77077 40.9114 6.76443 40.9838L6.57021 41.0482L6.09545 39.2336L6.29583 39.1632L6.57946 39.7609C6.87233 39.5432 7.15903 39.3348 7.43649 39.1202C7.85576 38.8137 7.79718 38.9516 7.67079 38.4459C7.58138 38.0965 7.49507 37.7471 7.39333 37.4007C7.37483 37.3333 7.31009 37.2413 7.25769 37.2352C6.81067 37.1831 6.36366 37.1463 5.88582 37.1034C5.88582 37.3425 5.88582 37.554 5.88582 37.7685C5.83562 37.7839 5.78397 37.7942 5.73167 37.7992L5.33398 36.2666C5.47271 36.1409 5.55287 36.1808 5.61453 36.334C5.63752 36.4434 5.69626 36.542 5.78159 36.6147C5.86691 36.6873 5.97402 36.7298 6.0862 36.7356C7.51664 36.8796 8.94092 37.0697 10.3683 37.2444L10.4454 37.2658ZM7.69853 37.2812L8.05614 38.6605L9.56674 37.5294L9.54208 37.4804L7.69853 37.2812Z" fill="#FBFBFB"/>
<path d="M37.1089 9.47436C36.9794 9.78087 36.8592 10.1088 36.7174 10.4123C36.6958 10.4583 36.5694 10.4828 36.4954 10.4736C35.7494 10.3694 35.0003 10.256 34.2542 10.1456L33.3941 10.0199C33.3571 9.87282 33.3941 9.80846 33.5513 9.80233C33.7085 9.7962 33.9397 9.82684 34.0353 9.73489C34.1309 9.64294 34.1124 9.42837 34.1371 9.25366C34.3035 8.14102 34.4731 7.02531 34.6365 5.94025C34.4792 5.7165 34.0723 5.87896 34.0199 5.47437L37.0565 5.92493L37.0041 6.89964L36.9394 6.93949C36.8931 6.87512 36.813 6.81381 36.8037 6.74332C36.7236 6.23757 36.7266 6.23451 36.218 6.15175C35.9097 6.10577 35.6014 6.069 35.2746 6.02609C35.1883 6.58701 35.1051 7.12953 35.0187 7.70577L35.7925 7.82839H35.8573C36.2241 7.87436 36.2211 7.87128 36.3906 7.54638C36.4184 7.48814 36.4923 7.45444 36.5448 7.40846L36.5941 7.45136L36.3999 8.72954C36.2581 8.75712 36.2272 8.67436 36.218 8.55175C36.1902 8.20539 36.1871 8.20233 35.8388 8.14715C35.5552 8.10118 35.2715 8.0644 34.9694 8.02149C34.8769 8.63452 34.7875 9.20463 34.695 9.80233C35.2931 9.89429 35.8665 9.98317 36.4461 10.0629C36.4893 10.0629 36.5602 10.0077 36.5879 9.96171C36.6772 9.8255 36.7565 9.68313 36.8253 9.53567C36.887 9.41 36.9733 9.40386 37.1089 9.47436Z" fill="#FBFBFB"/>
<path d="M53.6701 28.3522C53.5098 27.6533 53.3618 26.9667 53.1953 26.2679C53.3125 26.1913 53.4019 26.1606 53.445 26.3292C53.4493 26.3433 53.4555 26.3567 53.4635 26.369C53.5437 26.5468 53.5776 26.8043 53.7163 26.884C53.855 26.9637 54.077 26.8135 54.2681 26.7982C54.6099 26.7685 54.942 26.6695 55.2437 26.5071C55.5455 26.3447 55.8105 26.1225 56.0223 25.8541C56.2765 25.5645 56.555 25.2969 56.8547 25.0541C56.9982 24.9648 57.1104 24.8334 57.1755 24.678C57.2407 24.5226 57.2557 24.3509 57.2184 24.1867C57.1876 24.0457 57.2554 23.9782 57.4188 24.0028C57.5606 24.6158 57.7024 25.2625 57.8412 25.8878C57.6562 25.9982 57.6562 25.9982 57.5606 25.7683C57.5082 25.6457 57.4558 25.5261 57.3972 25.3821L55.8866 26.9913L57.8412 27.5552C57.9984 27.3407 57.6809 27.0219 58.0508 26.838C58.1741 27.3867 58.2943 27.9047 58.4146 28.4349L58.2265 28.4901C58.2103 28.4751 58.1968 28.4575 58.1864 28.438C58.1032 28.0487 57.8073 27.9292 57.462 27.825C56.8207 27.6472 56.1918 27.4326 55.5537 27.2426C55.4549 27.2076 55.3485 27.1991 55.2454 27.2181C54.8231 27.3039 54.4099 27.4143 53.9876 27.497C53.8427 27.5246 53.8057 27.589 53.8211 27.7208C53.8365 27.8526 53.8396 28.0273 53.8581 28.1621C53.8766 28.297 53.8273 28.3552 53.6701 28.3522Z" fill="#FBFBFB"/>
<path d="M42.8653 9.06651C42.6958 9.06651 42.6557 9.01135 42.6835 8.86422C42.7262 8.67179 42.7114 8.4711 42.6407 8.28698C42.57 8.10286 42.4466 7.94336 42.2858 7.8282C41.7715 7.40784 41.1232 7.18392 40.4576 7.19679C40.2789 7.20099 40.1029 7.24119 39.9402 7.31495C39.7775 7.3887 39.6316 7.49448 39.5112 7.62589C39.1571 8.03579 38.9377 8.54368 38.8826 9.08125C38.8275 9.61882 38.9393 10.1603 39.2029 10.6328C39.3451 10.8547 39.5318 11.0452 39.7512 11.1923C39.9706 11.3395 40.2181 11.4402 40.4783 11.4882C40.7385 11.5362 41.0059 11.5305 41.2638 11.4714C41.5217 11.4123 41.7646 11.3011 41.9775 11.1447C42.0977 11.2152 42.1039 11.2857 41.996 11.3776C41.8018 11.537 41.6168 11.7087 41.4226 11.865C41.367 11.9096 41.2965 11.9316 41.2253 11.9263C40.4859 11.8514 39.775 11.6035 39.1505 11.2029C38.7636 10.9695 38.4638 10.6169 38.2969 10.1986C38.13 9.78037 38.1049 9.31935 38.2256 8.88566C38.3251 8.36822 38.5674 7.88853 38.9255 7.50023C39.542 6.86575 40.2942 6.78605 41.105 6.97302C41.8149 7.16151 42.4859 7.47277 43.0873 7.89256C43.115 7.91141 43.1378 7.93652 43.1539 7.96582C43.17 7.99512 43.1788 8.02777 43.1798 8.06114C43.0811 8.39217 42.9702 8.72628 42.8653 9.06651Z" fill="#FBFBFB"/>
<path d="M15.0697 15.945C15.1283 15.9849 15.2115 16.0124 15.2423 16.0707C15.3163 16.2055 15.3502 16.3772 15.4335 16.4937C15.5067 16.6117 15.5421 16.7491 15.5349 16.8876C15.5278 17.0261 15.4784 17.1592 15.3934 17.2692C15.0702 17.9035 14.5935 18.448 14.0061 18.8538C13.701 19.0677 13.3417 19.1922 12.969 19.2133C12.5963 19.2345 12.225 19.1513 11.8974 18.9734C11.1822 18.6086 10.6057 18.1029 10.4023 17.2875C10.3403 17.0016 10.3374 16.7061 10.3936 16.419C10.4497 16.1319 10.5638 15.8591 10.729 15.617C11.1383 14.9831 11.6545 14.4242 12.255 13.9649C12.2816 13.9462 12.3123 13.9342 12.3445 13.93C12.3767 13.9257 12.4095 13.9293 12.44 13.9404C12.7483 14.1366 13.0258 14.342 13.3186 14.5535C13.2601 14.6975 13.1984 14.7404 13.0535 14.6577C12.9104 14.569 12.746 14.52 12.5775 14.5157C12.4089 14.5114 12.2423 14.5519 12.0947 14.6331C11.763 14.8083 11.4724 15.0513 11.2418 15.346C11.0112 15.6408 10.8459 15.9807 10.7568 16.3435C10.6812 16.6556 10.7287 16.9846 10.8893 17.263C11.1771 17.7297 11.6028 18.0965 12.1083 18.3133C12.6139 18.53 13.1744 18.5861 13.7132 18.4738C13.9586 18.4081 14.1882 18.2943 14.3886 18.139C14.589 17.9836 14.756 17.79 14.8798 17.5694C15.0037 17.3488 15.0819 17.1058 15.1097 16.8548C15.1375 16.6037 15.1145 16.3496 15.0419 16.1075C15.034 16.0793 15.0278 16.0506 15.0234 16.0216L15.0697 15.945Z" fill="#FBFBFB"/>
<path d="M48.6423 52.1347C48.818 52.0336 48.9845 51.9508 49.1386 51.8527C49.2928 51.7546 49.3421 51.7822 49.3976 51.9477L47.776 53.2535L47.6403 53.088C47.7822 52.9347 47.9209 52.7814 48.0442 52.6405C48.0632 52.6154 48.0757 52.5861 48.0806 52.555C48.0854 52.524 48.0824 52.4923 48.0719 52.4627C47.2827 51.4757 46.4843 50.4979 45.6704 49.4926C45.3005 49.7991 44.9429 50.1056 44.5945 50.4121C44.5811 50.4393 44.5742 50.4692 44.5742 50.4995C44.5742 50.5297 44.5811 50.5596 44.5945 50.5868C44.6408 50.7342 44.6964 50.8786 44.761 51.019C44.8257 51.1508 44.8072 51.2428 44.6407 51.3071L44.0488 50.3539L47.4153 47.6443L48.1583 48.4719L47.9887 48.6221L47.3937 48.1439L46.1606 49.0941L48.6423 52.1347Z" fill="#FBFBFB"/>
<path d="M55.3493 19.2061C55.9412 20.5149 56.5269 21.8145 57.125 23.1325L56.1323 23.6382L56.0306 23.4329C56.2032 23.3072 56.3697 23.1969 56.5208 23.0681C56.5461 23.0433 56.5652 23.0129 56.5765 22.9793C56.5877 22.9457 56.5908 22.91 56.5855 22.875C56.4129 22.4459 56.2248 22.0229 56.0306 21.5693L52.4421 23.1662L52.6302 23.8712L52.4391 23.9539L51.582 22.075C51.7053 21.9524 51.7855 21.98 51.8687 22.1087C51.952 22.2375 52.066 22.4949 52.214 22.5409C52.362 22.5869 52.547 22.4244 52.7165 22.3478L55.5312 21.0942C55.6052 21.0605 55.6761 21.0206 55.7685 20.9746C55.5682 20.5547 55.3739 20.1409 55.1674 19.7486C55.1458 19.7026 55.0502 19.675 54.9886 19.675C54.8335 19.6843 54.6791 19.7027 54.5262 19.7302C54.3967 19.7516 54.3104 19.7302 54.2919 19.5432L55.3493 19.2061Z" fill="#FBFBFB"/>
<path d="M31.3223 55.0897C31.3223 54.7495 31.3223 54.4276 31.3223 54.1058C31.3223 54.0568 31.4517 53.9801 31.5257 53.974C31.9234 53.9342 32.3242 53.9096 32.7219 53.8821L35.3855 53.6951C35.4595 53.6951 35.5334 53.6951 35.6321 53.6951L35.7739 54.7587C35.6043 54.8292 35.518 54.7771 35.4903 54.6207C35.4917 54.5993 35.4917 54.5778 35.4903 54.5564C35.3392 54.0598 35.3392 54.0598 34.8244 54.0905L33.807 54.164C33.807 54.2376 33.807 54.302 33.807 54.3663C33.8934 55.5495 33.9797 56.7357 34.0783 57.9188C34.0896 57.9546 34.1095 57.987 34.1364 58.0132C34.1633 58.0394 34.1963 58.0586 34.2325 58.069C34.4205 58.1027 34.6117 58.1089 34.8182 58.1273V58.3388L32.7527 58.4798C32.7065 58.3418 32.7126 58.2683 32.8606 58.2437C33.0086 58.2192 33.2336 58.1579 33.4371 58.1089C33.3415 56.8123 33.2521 55.528 33.1566 54.2131C32.8483 54.2315 32.54 54.2407 32.2625 54.2713C31.6737 54.3357 31.6706 54.3418 31.5226 54.9181C31.4949 55.0437 31.4517 55.1388 31.3223 55.0897Z" fill="#FBFBFB"/>
<path d="M30.3208 54.0105L30.2745 55.0343C30.142 55.0833 30.0649 55.068 30.0526 54.9178C30.04 54.8128 30.0141 54.7098 29.9755 54.6113C29.9339 54.4644 29.848 54.3338 29.7296 54.2368C29.6111 54.1398 29.4656 54.0812 29.3127 54.0688C29.1556 54.0321 28.9909 54.0452 28.8416 54.1062C28.6924 54.1672 28.566 54.2731 28.4803 54.409C28.3839 54.5431 28.3321 54.7039 28.3321 54.8688C28.3321 55.0336 28.3839 55.1944 28.4803 55.3285C28.632 55.518 28.8118 55.6834 29.0136 55.819C29.2387 55.9845 29.4915 56.1255 29.7227 56.2726C29.9283 56.381 30.0919 56.5542 30.1878 56.765C30.2838 56.9757 30.3067 57.2122 30.2529 57.4373C30.215 57.6991 30.0947 57.9421 29.9091 58.1316C29.7235 58.321 29.4823 58.4471 29.2202 58.4917C28.6064 58.5941 27.9763 58.4675 27.4506 58.1362C27.3978 58.1109 27.355 58.0688 27.3288 58.0167C27.3026 57.9646 27.2945 57.9053 27.3057 57.8481C27.3273 57.5998 27.3397 57.3485 27.3458 57.0971C27.3458 56.9653 27.3921 56.9009 27.5493 56.9316C27.5647 57.0389 27.5832 57.1523 27.5955 57.2688C27.606 57.4283 27.651 57.5837 27.7275 57.7243C27.8039 57.8649 27.9101 57.9875 28.0386 58.0835C28.1671 58.1796 28.315 58.2469 28.4721 58.2808C28.6292 58.3148 28.7919 58.3146 28.9489 58.2803C29.1577 58.2556 29.3489 58.1514 29.4822 57.9897C29.6155 57.828 29.6807 57.6213 29.6641 57.4128C29.6603 57.3019 29.6305 57.1934 29.5769 57.096C29.5234 56.9986 29.4477 56.915 29.3558 56.8519C29.0815 56.6527 28.7886 56.4718 28.5081 56.2818C28.1759 56.0937 27.9239 55.7919 27.799 55.4327C27.7291 55.2417 27.7081 55.0363 27.7379 54.8351C27.7676 54.634 27.8473 54.4433 27.9696 54.2804C28.0919 54.1174 28.253 53.9873 28.4385 53.9016C28.624 53.816 28.828 53.7776 29.0321 53.7898C29.4672 53.8272 29.8982 53.901 30.3208 54.0105Z" fill="#FBFBFB"/>
<path d="M8.62334 28.1222H8.90388C9.06775 28.1381 9.23309 28.1168 9.38753 28.0601C9.54197 28.0034 9.6815 27.9126 9.79567 27.7947C9.90984 27.6768 9.9957 27.5347 10.0468 27.3791C10.0979 27.2235 10.1129 27.0584 10.0908 26.8962C10.0989 26.7138 10.0412 26.5346 9.92815 26.3907C9.81512 26.2468 9.65414 26.1478 9.47421 26.1115C9.35697 26.0746 9.23191 26.0696 9.11207 26.0971C8.99224 26.1246 8.88202 26.1836 8.7929 26.2678C8.64422 26.4116 8.50324 26.563 8.37055 26.7215C8.17633 26.9422 8.00061 27.1843 7.78789 27.3866C7.58607 27.5788 7.32819 27.7025 7.05126 27.74C6.77433 27.7774 6.49259 27.7267 6.24646 27.595C6.0098 27.4679 5.82146 27.2673 5.71014 27.0238C5.59882 26.7803 5.57064 26.5073 5.62989 26.2464C5.71858 25.8905 5.83505 25.5421 5.97825 25.2042C5.97825 25.1644 6.07999 25.1245 6.12931 25.1276C6.38827 25.1521 6.64723 25.1828 6.90311 25.2226C6.92684 25.2307 6.94823 25.2444 6.96542 25.2626C6.98261 25.2807 6.99509 25.3028 7.00176 25.3268C6.99557 25.3513 6.9837 25.3741 6.96711 25.3932C6.95052 25.4124 6.92966 25.4274 6.90619 25.4372C6.7798 25.4678 6.64415 25.474 6.51467 25.5046C6.36902 25.5487 6.23793 25.6308 6.13506 25.7423C6.0322 25.8539 5.96132 25.9909 5.92983 26.139C5.89834 26.2871 5.90739 26.4408 5.95604 26.5843C6.00468 26.7277 6.09113 26.8555 6.20639 26.9544C6.33216 27.0629 6.4888 27.1298 6.65454 27.1457C6.82028 27.1616 6.98689 27.1258 7.13124 27.0433C7.33511 26.9118 7.518 26.7506 7.67382 26.5652C7.87112 26.3475 8.0376 26.0993 8.22873 25.8755C8.35916 25.6888 8.54888 25.551 8.76746 25.4843C8.98604 25.4176 9.22081 25.4259 9.43413 25.5077C9.67804 25.5687 9.89736 25.7024 10.0627 25.8908C10.228 26.0793 10.3314 26.3135 10.359 26.5621C10.3921 26.8815 10.3609 27.2043 10.2673 27.5117C10.1736 27.819 10.0193 28.1047 9.81332 28.3521C9.77965 28.3858 9.73914 28.412 9.69449 28.4289C9.64983 28.4458 9.60206 28.4531 9.55436 28.4502C9.30465 28.4318 9.05802 28.3766 8.80831 28.349C8.62642 28.3429 8.55552 28.2908 8.62334 28.1222Z" fill="#FBFBFB"/>
<path d="M29.9139 8.65869C29.9786 8.87632 30.0403 9.08168 30.105 9.27172C30.1349 9.36676 30.1863 9.45373 30.2553 9.52598C30.3242 9.59823 30.4088 9.65387 30.5027 9.68859C30.7919 9.82132 31.1172 9.85474 31.4276 9.78361C31.5844 9.75458 31.7282 9.6775 31.8387 9.56317C31.9493 9.44885 32.0211 9.303 32.0441 9.14606C32.0834 8.98226 32.0661 8.8101 31.9951 8.65723C31.9241 8.50437 31.8035 8.37966 31.6526 8.30315C31.4461 8.18667 31.2272 8.09472 31.0145 7.99663C30.8035 7.90571 30.5976 7.80339 30.3979 7.69012C30.1584 7.54449 29.9724 7.32605 29.8675 7.06714C29.7625 6.80823 29.7442 6.52263 29.8152 6.25257C29.8836 5.99818 30.0315 5.77199 30.2377 5.60669C30.4438 5.4414 30.6975 5.34556 30.9621 5.33303C31.3386 5.33211 31.7147 5.35875 32.0873 5.41273C32.1274 5.41273 32.1829 5.48322 32.189 5.52614C32.2322 5.83265 32.2599 6.11158 32.2969 6.4089L32.1089 6.461C32.0534 6.32613 32.0072 6.19432 31.9517 6.06865C31.8922 5.91527 31.7844 5.78519 31.6443 5.69788C31.5043 5.61056 31.3395 5.57074 31.1748 5.58437C31.0136 5.57759 30.8542 5.62047 30.7185 5.70716C30.5827 5.79384 30.4772 5.92008 30.4164 6.06865C30.3485 6.22969 30.3322 6.40764 30.3697 6.57822C30.4072 6.74881 30.4967 6.90375 30.626 7.02192C30.7979 7.16094 30.9863 7.27829 31.1871 7.37133C31.443 7.50313 31.7204 7.5951 31.9732 7.72997C32.157 7.8253 32.3131 7.96577 32.4268 8.13805C32.5405 8.31032 32.608 8.50866 32.6228 8.71418C32.6377 8.91971 32.5994 9.12559 32.5116 9.31224C32.4238 9.49889 32.2894 9.66011 32.1212 9.78054C31.7842 10.0321 31.3613 10.1421 30.9436 10.0871C30.6149 10.0373 30.2895 9.96771 29.9694 9.87863C29.9079 9.86475 29.8537 9.82908 29.8168 9.7783C29.7799 9.72752 29.7629 9.66511 29.769 9.60276C29.762 9.35943 29.7393 9.11679 29.7012 8.87633C29.7104 8.70468 29.7597 8.65256 29.9139 8.65869Z" fill="#FBFBFB"/>
<path d="M22.7208 11.9204C22.6992 11.8836 22.6838 11.8652 22.6746 11.8468C22.6653 11.8284 22.6499 11.7794 22.6345 11.7303L23.1955 11.3962C23.1555 11.2797 23.1185 11.1694 23.0784 11.0591C22.693 10.0077 22.3046 8.95944 21.9285 7.90504C21.8668 7.73032 21.7867 7.69354 21.6202 7.73339C21.4537 7.77324 21.3582 7.78243 21.2133 7.80695L21.127 7.60771L22.9428 6.95483L23.0137 7.14794C22.8657 7.23376 22.7054 7.31345 22.579 7.41154C22.5516 7.43339 22.5299 7.46158 22.516 7.49363C22.502 7.52568 22.4961 7.56063 22.4988 7.59546C22.9099 8.75408 23.3281 9.91066 23.7535 11.0652C23.7673 11.0839 23.7828 11.1014 23.7998 11.1173C24.29 10.9395 24.7925 10.7617 25.2857 10.5717C25.3351 10.5533 25.3751 10.4613 25.3813 10.4C25.4029 10.1732 25.4029 9.94334 25.4306 9.71652C25.4306 9.64602 25.5077 9.58165 25.5478 9.51728L25.6218 9.54181C25.6742 9.94028 25.7266 10.3388 25.7697 10.7372C25.7697 10.774 25.7173 10.8384 25.6742 10.8537C24.7 11.2123 23.7196 11.5617 22.7208 11.9204Z" fill="#FBFBFB"/>
<path d="M26.8703 27.9201L25.3535 27.7914C25.7989 26.6104 26.5548 25.5699 27.5423 24.7783L28.2452 25.7254C27.6749 26.3814 27.1138 27.0404 26.8703 27.9201Z" fill="#FBFBFB"/>
<path d="M50.7948 19.9813C50.8626 20.1438 50.9181 20.2879 50.989 20.4258C51.0599 20.5637 51.0353 20.6434 50.8688 20.6894L49.8145 19.1047L49.9778 18.9821L50.4249 19.4603L53.7204 17.3147C53.742 17.0633 53.4121 16.8672 53.6341 16.5361C54.0195 17.1124 54.3678 17.6396 54.7131 18.1637C54.5775 18.363 54.4819 18.2404 54.3863 18.1331C54.2907 18.0258 54.1983 17.9277 54.1027 17.8266L50.7948 19.9813Z" fill="#FBFBFB"/>
<path d="M17.0836 15.1602L17.6447 14.8261L17.7834 14.9794L16.3684 16.2361C16.131 16.1349 16.2605 16.0246 16.3468 15.9296C16.4332 15.8345 16.5102 15.7211 16.5996 15.623C16.5596 15.5709 16.5287 15.5219 16.4886 15.479C15.6994 14.6024 14.901 13.7288 14.1148 12.846C13.9977 12.7173 13.9114 12.6866 13.7696 12.797C13.6542 12.8756 13.5349 12.9483 13.412 13.0146L13.2578 12.8736L14.6913 11.5955L14.8455 11.7365L14.4355 12.2575L17.0836 15.1602Z" fill="#FBFBFB"/>
<path d="M25.4779 57.4955C25.6444 57.5721 25.7862 57.6304 25.9403 57.7101C25.9896 57.7377 26.0112 57.8143 26.0451 57.8664C25.9865 57.8879 25.9187 57.9369 25.8663 57.9246C25.3021 57.7836 24.7349 57.6181 24.1738 57.4863C24.1738 57.2809 24.1738 57.2779 24.4297 57.2963C24.5623 57.2963 24.6948 57.3208 24.849 57.3361C24.963 56.9101 25.0709 56.4901 25.1819 56.0733C25.3885 55.2825 25.5919 54.4917 25.7985 53.7039C25.8386 53.5599 25.817 53.4863 25.6752 53.4342C25.5334 53.3821 25.3946 53.3116 25.2436 53.2442L25.3114 53.0388C25.8971 53.1921 26.4705 53.3453 27.0409 53.4925C27.084 53.4925 27.1118 53.5783 27.1488 53.6212C27.0933 53.6549 27.044 53.7162 26.9885 53.7193C26.8158 53.7193 26.5939 53.658 26.4798 53.7407C26.3657 53.8235 26.3719 54.0472 26.3287 54.2097C26.0554 55.2314 25.7831 56.2531 25.5118 57.2748C25.5087 57.3331 25.4964 57.3974 25.4779 57.4955Z" fill="#FBFBFB"/>
<path d="M48.5247 46.9147C48.3859 47.025 48.2595 47.117 48.1455 47.2212C48.0314 47.3254 47.9574 47.3224 47.8711 47.166L49.1042 45.7622C49.2707 45.8082 49.28 45.8848 49.1998 46.0197C48.947 46.4488 48.9532 46.4488 49.3293 46.7768L51.6723 48.8182L51.9096 49.0235C52.0977 48.8948 52.2765 48.7691 52.4584 48.6557C52.4584 48.6557 52.5355 48.717 52.5971 48.7661L51.3331 50.1913C51.1697 50.1331 51.1697 50.0565 51.2499 49.9247C51.5058 49.517 51.5027 49.5139 51.1328 49.1921L48.759 47.117L48.5247 46.9147Z" fill="#FBFBFB"/>
<path d="M15.7547 52.7936L15.9366 52.5606C16.6241 51.6411 17.3115 50.7215 18.0083 49.8234C18.1069 49.6916 18.1254 49.6058 18.0083 49.4924C17.899 49.3969 17.796 49.2946 17.7 49.1859L17.814 49.0173L19.3555 50.1576L19.2414 50.3353L18.6495 50.0288L16.2757 53.1798L16.7135 53.6549L16.5963 53.8357L15.0703 52.6832C15.1474 52.4349 15.2799 52.5668 15.394 52.6189L15.7547 52.7936Z" fill="#FBFBFB"/>
<path d="M26.2461 19.1509L27.5162 19.4574L26.4989 19.7271L26.2461 19.1509Z" fill="#FBFBFB"/>
</svg>
