<svg width="64" height="64" viewBox="0 0 64 64" fill="none" xmlns="http://www.w3.org/2000/svg">
<rect width="64" height="64" rx="32" fill="#3C8FB7"/>
<path d="M37.7522 19.6154C37.7185 21.0908 36.4138 22.3766 34.9574 22.3766C33.4588 22.3766 32.1014 20.9918 32.1435 19.5122C32.1878 17.9798 33.5536 16.692 35.0606 16.7721C35.7851 16.8194 36.465 17.1386 36.9641 17.6658C37.4632 18.1931 37.7447 18.8894 37.7522 19.6154Z" fill="#FBFBFB"/>
<path d="M46.9872 17.9041C48.4416 17.8936 49.7652 19.1877 49.799 20.6442C49.8111 21.2002 49.6574 21.7472 49.3576 22.2156C49.0577 22.684 48.6252 23.0525 48.1152 23.2742C47.6051 23.4959 47.0406 23.5608 46.4936 23.4606C45.9466 23.3604 45.4417 23.0996 45.0434 22.7114C44.6451 22.3233 44.3714 21.8253 44.2571 21.2811C44.1428 20.7368 44.193 20.1708 44.4015 19.6552C44.61 19.1396 44.9672 18.6978 45.4277 18.3859C45.8882 18.0741 46.4311 17.9063 46.9872 17.9041Z" fill="#FBFBFB"/>
<path d="M27.5071 24.0775C27.5089 24.444 27.4385 24.8072 27.2999 25.1465C27.1613 25.4858 26.9573 25.7944 26.6994 26.0548C26.4416 26.3152 26.1349 26.5223 25.797 26.6642C25.4591 26.8061 25.0966 26.8801 24.7302 26.8819C24.3637 26.8837 24.0004 26.8133 23.6612 26.6747C23.3219 26.5361 23.0133 26.332 22.7529 26.0742C22.4924 25.8163 22.2854 25.5097 22.1435 25.1718C22.0016 24.8339 21.9276 24.4714 21.9258 24.1049C21.9222 23.3648 22.2127 22.6535 22.7335 22.1276C23.2543 21.6017 23.9626 21.3042 24.7028 21.3006C25.4429 21.2969 26.1541 21.5875 26.68 22.1082C27.206 22.629 27.5035 23.3374 27.5071 24.0775Z" fill="#FBFBFB"/>
<path d="M39.4727 27.0134C40.2027 27.014 40.904 27.2977 41.4292 27.8048C41.9544 28.3119 42.2624 29.0028 42.2886 29.7324C42.2904 30.0991 42.22 30.4627 42.0813 30.8022C41.9426 31.1417 41.7384 31.4506 41.4803 31.7112C41.2223 31.9718 40.9154 32.179 40.5773 32.321C40.2391 32.463 39.8763 32.537 39.5096 32.5388C39.1428 32.5406 38.7793 32.4702 38.4398 32.3315C38.1003 32.1928 37.7914 31.9886 37.5308 31.7306C37.2702 31.4725 37.063 31.1656 36.9209 30.8275C36.7789 30.4893 36.7049 30.1265 36.7031 29.7598C36.7225 29.0335 37.0213 28.3428 37.5371 27.8312C38.053 27.3196 38.7463 27.0267 39.4727 27.0134Z" fill="#FBFBFB"/>
<path d="M28.6509 12.0107C28.6653 12.3813 28.6055 12.7511 28.4751 13.0983C28.3447 13.4455 28.1462 13.7632 27.8914 14.0327C27.6366 14.3023 27.3305 14.5182 26.9912 14.6679C26.6518 14.8176 26.286 14.898 25.9151 14.9045C25.5442 14.9109 25.1758 14.8433 24.8315 14.7055C24.4871 14.5677 24.1737 14.3625 23.9097 14.102C23.6456 13.8415 23.4362 13.5309 23.2938 13.1885C23.1514 12.846 23.0788 12.4785 23.0802 12.1076C23.0659 11.737 23.1257 11.3672 23.2561 11.02C23.3865 10.6728 23.5849 10.3551 23.8398 10.0855C24.0946 9.81602 24.4006 9.60007 24.74 9.45038C25.0794 9.30069 25.4452 9.22026 25.8161 9.2138C26.1869 9.20735 26.5553 9.275 26.8997 9.41279C27.2441 9.55058 27.5575 9.75574 27.8215 10.0162C28.0855 10.2767 28.2949 10.5873 28.4373 10.9298C28.5798 11.2723 28.6524 11.6398 28.6509 12.0107Z" fill="#FBFBFB"/>
<path d="M29.1993 31.5435C29.9466 31.5401 30.6647 31.833 31.1964 32.358C31.7282 32.8831 32.0302 33.5974 32.0363 34.3447C32.0214 35.072 31.7296 35.7663 31.2205 36.286C30.7113 36.8057 30.0232 37.1117 29.2963 37.1416C27.8103 37.1817 26.4424 35.8243 26.4571 34.3215C26.4703 33.595 26.7624 32.9014 27.2728 32.3842C27.7833 31.8671 28.473 31.5661 29.1993 31.5435Z" fill="#FBFBFB"/>
<path d="M32.2952 29.9434C31.926 29.9433 31.5605 29.869 31.2205 29.725C30.8805 29.581 30.5729 29.3701 30.316 29.1049C30.059 28.8397 29.858 28.5256 29.7248 28.1812C29.5915 27.8368 29.5288 27.4692 29.5404 27.1001C29.56 26.3656 29.8705 25.6689 30.4038 25.1633C30.937 24.6578 31.6492 24.3847 32.3837 24.4043C33.1183 24.4239 33.815 24.7344 34.3205 25.2676C34.8261 25.8009 35.0991 26.5131 35.0795 27.2476C35.0738 27.6075 34.9972 27.9627 34.8541 28.2929C34.7111 28.6231 34.5043 28.922 34.2458 29.1723C33.9872 29.4226 33.6819 29.6196 33.3472 29.7519C33.0125 29.8842 32.6551 29.9493 32.2952 29.9434Z" fill="#FBFBFB"/>
<path d="M49.8285 33.0857C49.8048 33.8147 49.4975 34.5056 48.972 35.0114C48.4465 35.5172 47.7444 35.7979 47.0151 35.7938C46.2857 35.7897 45.5868 35.501 45.0671 34.9893C44.5474 34.4776 44.2479 33.7833 44.2324 33.0541C44.2555 32.3075 44.5695 31.5995 45.1075 31.0812C45.6454 30.563 46.3646 30.2756 47.1116 30.2803C47.8379 30.3101 48.525 30.6178 49.0307 31.14C49.5364 31.6622 49.822 32.3588 49.8285 33.0857Z" fill="#FBFBFB"/>
<path d="M43.5356 18.3046C42.8081 18.3038 42.1096 18.0193 41.5884 17.5115C41.0673 17.0038 40.7648 16.3129 40.745 15.5856C40.7312 15.0314 40.8828 14.4857 41.1806 14.0181C41.4784 13.5506 41.9088 13.1823 42.4169 12.9605C42.9249 12.7387 43.4875 12.6733 44.0329 12.7728C44.5782 12.8722 45.0816 13.1319 45.4786 13.5188C45.8757 13.9057 46.1484 14.4021 46.262 14.9447C46.3756 15.4873 46.3249 16.0514 46.1164 16.565C45.9078 17.0787 45.551 17.5185 45.0913 17.8284C44.6316 18.1382 44.09 18.304 43.5356 18.3046Z" fill="#FBFBFB"/>
<path d="M17.1633 18.0812C17.7046 18.0942 18.2299 18.2673 18.6729 18.5786C19.1159 18.8899 19.4567 19.3254 19.6524 19.8303C19.848 20.3351 19.8897 20.8866 19.7722 21.4151C19.6547 21.9436 19.3833 22.4255 18.9921 22.7999C18.601 23.1743 18.1077 23.4244 17.5746 23.5186C17.0414 23.6129 16.4923 23.5471 15.9965 23.3296C15.5007 23.112 15.0805 22.7525 14.7888 22.2963C14.4972 21.8401 14.3473 21.3078 14.358 20.7664C14.3827 20.0413 14.6899 19.3545 15.2141 18.8528C15.7383 18.3511 16.4378 18.0742 17.1633 18.0812Z" fill="#FBFBFB"/>
<path d="M38.0722 34.1861C38.0824 34.5569 38.0182 34.9261 37.8834 35.2717C37.7485 35.6172 37.5458 35.9323 37.2871 36.1982C37.0284 36.4641 36.719 36.6755 36.3773 36.8198C36.0355 36.9641 35.6683 37.0385 35.2974 37.0385C34.9264 37.0385 34.5592 36.9641 34.2174 36.8198C33.8757 36.6755 33.5663 36.4641 33.3077 36.1982C33.049 35.9323 32.8462 35.6172 32.7114 35.2717C32.5765 34.9261 32.5123 34.5569 32.5225 34.1861C32.5123 33.8153 32.5765 33.4462 32.7114 33.1006C32.8462 32.755 33.049 32.4399 33.3077 32.174C33.5663 31.9081 33.8757 31.6967 34.2174 31.5524C34.5592 31.4081 34.9264 31.3337 35.2974 31.3337C35.6683 31.3337 36.0355 31.4081 36.3773 31.5524C36.719 31.6967 37.0284 31.9081 37.2871 32.174C37.5458 32.4399 37.7485 32.755 37.8834 33.1006C38.0182 33.4462 38.0824 33.8153 38.0722 34.1861Z" fill="#FBFBFB"/>
<path d="M43.4905 41.1291C42.7638 41.1291 42.0668 40.8405 41.553 40.3266C41.0391 39.8127 40.7504 39.1158 40.7504 38.3891C40.7408 37.8336 40.8974 37.2878 41.2001 36.8219C41.5028 36.356 41.9378 35.9911 42.4492 35.7741C42.9607 35.557 43.5254 35.4977 44.0707 35.6038C44.6161 35.7098 45.1174 35.9764 45.5103 36.3692C45.9032 36.7621 46.1698 37.2634 46.2758 37.8088C46.3818 38.3542 46.3225 38.9189 46.1055 39.4303C45.8885 39.9418 45.5236 40.3767 45.0577 40.6794C44.5917 40.9821 44.046 41.1387 43.4905 41.1291Z" fill="#FBFBFB"/>
<path d="M32.0934 13.5599C31.5459 13.5578 31.0113 13.394 30.5565 13.0892C30.1017 12.7844 29.747 12.352 29.537 11.8464C29.3269 11.3408 29.2708 10.7844 29.3757 10.2471C29.4807 9.70974 29.7419 9.21533 30.1267 8.82587C30.5115 8.43641 31.0028 8.16924 31.5388 8.05788C32.0749 7.94651 32.6319 7.9959 33.14 8.19986C33.6481 8.40382 34.0846 8.75327 34.3949 9.20437C34.7052 9.65547 34.8753 10.1881 34.8841 10.7356C34.8902 11.1053 34.8225 11.4726 34.6849 11.8159C34.5473 12.1591 34.3425 12.4714 34.0826 12.7345C33.8226 12.9975 33.5128 13.206 33.1712 13.3478C32.8297 13.4895 32.4632 13.5617 32.0934 13.5599Z" fill="#FBFBFB"/>
<path d="M48.3028 24.1788C48.8534 24.1846 49.3898 24.3546 49.8433 24.667C50.2968 24.9794 50.6467 25.42 50.8484 25.9324C51.0501 26.4448 51.0944 27.0057 50.9755 27.5434C50.8567 28.0811 50.5801 28.5711 50.1812 28.9507C49.7823 29.3303 49.2793 29.5824 48.7363 29.6745C48.1934 29.7666 47.6354 29.6947 47.1336 29.4679C46.6318 29.2411 46.209 28.8698 45.9195 28.4014C45.6299 27.9331 45.4866 27.389 45.5079 26.8387C45.5147 26.4799 45.5927 26.126 45.7372 25.7976C45.8817 25.4691 46.09 25.1726 46.35 24.9252C46.6099 24.6778 46.9164 24.4844 47.2516 24.3563C47.5868 24.2282 47.9441 24.1678 48.3028 24.1788Z" fill="#FBFBFB"/>
<path d="M34.8823 43.0787C34.874 43.8043 34.5824 44.4979 34.0697 45.0113C33.5569 45.5248 32.8638 45.8174 32.1382 45.8268C31.4127 45.8362 30.7122 45.5615 30.1864 45.0614C29.6607 44.5613 29.3512 43.8755 29.3242 43.1504C29.3325 42.4248 29.6242 41.7313 30.1369 41.2178C30.6496 40.7043 31.3427 40.4117 32.0683 40.4023C32.7939 40.393 33.4943 40.6677 34.0201 41.1677C34.5459 41.6678 34.8553 42.3536 34.8823 43.0787Z" fill="#FBFBFB"/>
<path d="M23.4424 15.4719C23.4567 15.8411 23.3972 16.2095 23.2673 16.5554C23.1373 16.9013 22.9397 17.2178 22.6858 17.4864C22.432 17.7549 22.1271 17.97 21.789 18.1192C21.451 18.2683 21.0865 18.3485 20.7171 18.3549C20.3476 18.3614 19.9806 18.294 19.6375 18.1568C19.2944 18.0195 18.9822 17.8152 18.7191 17.5557C18.4561 17.2962 18.2475 16.9867 18.1056 16.6456C17.9637 16.3044 17.8913 15.9383 17.8927 15.5688C17.8784 15.1996 17.9379 14.8312 18.0678 14.4853C18.1977 14.1394 18.3954 13.8228 18.6492 13.5543C18.9031 13.2858 19.208 13.0706 19.546 12.9215C19.8841 12.7723 20.2486 12.6922 20.618 12.6857C20.9875 12.6793 21.3545 12.7466 21.6976 12.8839C22.0407 13.0211 22.3529 13.2255 22.6159 13.485C22.879 13.7445 23.0876 14.0539 23.2295 14.3951C23.3714 14.7363 23.4438 15.1023 23.4424 15.4719Z" fill="#FBFBFB"/>
<path d="M28.871 22.4529C28.501 22.4604 28.1334 22.3915 27.7913 22.2504C27.4491 22.1093 27.1398 21.8992 26.8826 21.6331C26.6254 21.367 26.4259 21.0507 26.2966 20.7039C26.1672 20.3572 26.1108 19.9875 26.1309 19.618C26.138 19.2579 26.2161 18.9028 26.3605 18.573C26.505 18.2431 26.713 17.945 26.9728 17.6956C27.2326 17.4462 27.5389 17.2505 27.8744 17.1196C28.2099 16.9887 28.5678 16.9252 28.9279 16.9327C29.6551 16.9349 30.352 17.2239 30.8674 17.7369C31.3828 18.25 31.675 18.9456 31.6806 19.6728C31.6897 20.0429 31.6231 20.4109 31.4847 20.7543C31.3464 21.0977 31.1393 21.4092 30.8761 21.6695C30.613 21.9299 30.2993 22.1337 29.9545 22.2685C29.6097 22.4032 29.2409 22.4659 28.871 22.4529Z" fill="#FBFBFB"/>
<path d="M39.3641 20.9792C39.9138 20.9844 40.4495 21.1531 40.903 21.4637C41.3565 21.7744 41.7073 22.2129 41.9108 22.7236C42.1143 23.2343 42.1611 23.7939 42.0455 24.3313C41.9299 24.8687 41.6569 25.3595 41.2614 25.7413C40.8659 26.1231 40.3658 26.3785 39.8246 26.4751C39.2835 26.5717 38.7258 26.5051 38.2227 26.2838C37.7195 26.0624 37.2936 25.6964 36.9992 25.2322C36.7047 24.768 36.5551 24.2267 36.5693 23.6771C36.5853 22.9498 36.888 22.2582 37.4115 21.753C37.9349 21.2477 38.6367 20.9696 39.3641 20.9792Z" fill="#FBFBFB"/>
<path d="M24.8403 27.3952C25.2106 27.3855 25.5791 27.4509 25.9234 27.5876C26.2676 27.7242 26.5807 27.9292 26.8435 28.1903C27.1063 28.4513 27.3134 28.7629 27.4524 29.1063C27.5914 29.4497 27.6593 29.8176 27.6521 30.188C27.6245 30.9174 27.3127 31.607 26.7833 32.1095C26.2539 32.612 25.549 32.8875 24.8191 32.877C24.0893 32.8666 23.3925 32.571 22.8778 32.0536C22.363 31.5361 22.0711 30.8378 22.0645 30.1079C22.068 29.7473 22.1427 29.391 22.2843 29.0594C22.4258 28.7278 22.6314 28.4274 22.8893 28.1753C23.1472 27.9233 23.4523 27.7247 23.7871 27.5908C24.1219 27.457 24.4798 27.3905 24.8403 27.3952Z" fill="#FBFBFB"/>
<path d="M19.9915 33.2207C19.9888 33.5809 19.915 33.937 19.7745 34.2687C19.634 34.6003 19.4294 34.901 19.1726 35.1536C18.9158 35.4061 18.6116 35.6055 18.2776 35.7404C17.9437 35.8753 17.5864 35.943 17.2262 35.9397C16.6767 35.94 16.1395 35.7768 15.6832 35.4707C15.2268 35.1647 14.8718 34.7297 14.6636 34.2213C14.4553 33.7128 14.4031 33.1538 14.5136 32.6155C14.6241 32.0773 14.8924 31.5841 15.2842 31.1989C15.676 30.8136 16.1737 30.5537 16.7137 30.4523C17.2538 30.3509 17.8118 30.4126 18.3167 30.6294C18.8215 30.8463 19.2504 31.2085 19.5487 31.67C19.847 32.1315 20.0011 32.6713 19.9915 33.2207Z" fill="#FBFBFB"/>
<path d="M13.172 26.9609C13.1666 26.4104 13.3256 25.8708 13.6286 25.4111C13.9315 24.9514 14.3647 24.5925 14.8727 24.3803C15.3808 24.1681 15.9406 24.1123 16.4805 24.2199C17.0204 24.3276 17.516 24.5938 17.9038 24.9846C18.2916 25.3755 18.554 25.873 18.6575 26.4138C18.7609 26.9545 18.7008 27.5139 18.4847 28.0202C18.2686 28.5266 17.9064 28.957 17.4443 29.2564C16.9823 29.5558 16.4415 29.7106 15.891 29.701C15.5323 29.7004 15.1773 29.629 14.8463 29.4909C14.5152 29.3527 14.2148 29.1505 13.9621 28.8959C13.7095 28.6413 13.5096 28.3393 13.374 28.0073C13.2384 27.6752 13.1698 27.3196 13.172 26.9609Z" fill="#FBFBFB"/>
<path d="M38.3238 39.0635C38.694 39.064 39.0604 39.1378 39.4019 39.2806C39.7435 39.4234 40.0534 39.6324 40.3138 39.8956C40.5742 40.1587 40.7799 40.4708 40.9191 40.8138C41.0583 41.1568 41.1283 41.524 41.125 41.8942C41.1183 42.4457 40.9488 42.9829 40.6376 43.4383C40.3264 43.8937 39.8876 44.247 39.3762 44.4536C38.8648 44.6603 38.3037 44.7112 37.7635 44.5998C37.2233 44.4884 36.7281 44.2198 36.3401 43.8278C35.9522 43.4357 35.6888 42.9377 35.5831 42.3964C35.4774 41.8551 35.5341 41.2946 35.7461 40.7854C35.9581 40.2762 36.3159 39.841 36.7746 39.5347C37.2332 39.2283 37.7722 39.0643 38.3238 39.0635Z" fill="#FBFBFB"/>
<path d="M40.998 12.0425C40.9917 12.4123 40.9126 12.7771 40.7652 13.1162C40.6178 13.4553 40.405 13.7621 40.1389 14.0189C39.8729 14.2757 39.5589 14.4776 39.2148 14.613C38.8707 14.7484 38.5033 14.8146 38.1336 14.8079C37.4034 14.7682 36.7178 14.4444 36.2234 13.9058C35.7289 13.3671 35.4648 12.6563 35.4877 11.9254C35.5106 11.1946 35.8185 10.5017 36.3457 9.99497C36.8728 9.48825 37.5773 9.20792 38.3085 9.21396C39.0336 9.25172 39.7167 9.56606 40.217 10.0923C40.7173 10.6185 40.9968 11.3165 40.998 12.0425Z" fill="#FBFBFB"/>
<path d="M20.6307 41.1291C19.904 41.1291 19.207 40.8404 18.6932 40.3266C18.1793 39.8127 17.8906 39.1158 17.8906 38.389C17.8964 38.0248 17.9739 37.6652 18.1187 37.3309C18.2635 36.9966 18.4727 36.6941 18.7343 36.4407C18.996 36.1872 19.3051 35.9878 19.6438 35.8537C19.9826 35.7197 20.3444 35.6537 20.7087 35.6595C21.0729 35.6653 21.4325 35.7429 21.7668 35.8876C22.1011 36.0324 22.4036 36.2416 22.6571 36.5033C22.9105 36.7649 23.11 37.074 23.244 37.4127C23.378 37.7515 23.444 38.1133 23.4382 38.4776C23.4295 38.8365 23.3498 39.1901 23.2036 39.5181C23.0575 39.846 22.8479 40.1418 22.5869 40.3883C22.3259 40.6348 22.0186 40.8272 21.6829 40.9544C21.3471 41.0815 20.9895 41.1409 20.6307 41.1291Z" fill="#FBFBFB"/>
<path d="M28.7361 41.8732C28.7399 42.6005 28.4603 43.3008 27.9568 43.8256C27.4532 44.3504 26.7651 44.6586 26.0382 44.6849C25.479 44.7067 24.9259 44.5609 24.4502 44.2662C23.9744 43.9715 23.5975 43.5413 23.368 43.0308C23.1385 42.5204 23.0668 41.953 23.1621 41.4015C23.2574 40.85 23.5153 40.3396 23.9028 39.9357C24.2903 39.5319 24.7897 39.2531 25.3367 39.1351C25.8838 39.0171 26.4537 39.0654 26.9732 39.2736C27.4927 39.4818 27.9381 39.8406 28.2522 40.3038C28.5663 40.767 28.7348 41.3135 28.7361 41.8732Z" fill="#FBFBFB"/>
<path d="M20.3229 56.5583V51.5372H21.3228V55.767H23.2723V56.5583H20.3229ZM23.841 52.1774V51.2566H24.7977V52.1774H23.841ZM23.841 56.5583V52.8536H24.7977V56.5583H23.841ZM26.167 56.5583V53.5586H25.4548V52.8536H26.167V52.3357C26.167 51.952 26.2677 51.6475 26.4691 51.4221C26.6754 51.1919 26.9655 51.0768 27.3396 51.0768L27.7065 51.0983L28.0446 51.1559L27.9654 51.9544C27.8839 51.9064 27.812 51.8729 27.7496 51.8537C27.6873 51.8345 27.6201 51.8249 27.5482 51.8249C27.3947 51.8249 27.2844 51.8801 27.2173 51.9904C27.1549 52.0959 27.1238 52.2301 27.1238 52.3932V52.8536H27.9654V53.5586H27.1238V56.5583H26.167ZM31.5673 55.5656V56.3497C31.2124 56.5464 30.788 56.6447 30.294 56.6447C29.6849 56.6447 29.2102 56.4768 28.8696 56.1411C28.5339 55.8006 28.3661 55.3282 28.3661 54.724C28.3661 54.1581 28.5148 53.6905 28.8121 53.3212C29.1094 52.9519 29.5315 52.7673 30.0782 52.7673C30.7208 52.7673 31.174 52.9639 31.4378 53.3572C31.7016 53.7504 31.8335 54.2995 31.8335 55.0045H29.2869C29.2869 55.2971 29.3828 55.5273 29.5746 55.6951C29.7713 55.8582 30.0254 55.9397 30.3372 55.9397C30.5482 55.9397 30.7256 55.9157 30.8695 55.8678C31.0182 55.8198 31.1453 55.7718 31.2508 55.7239C31.3611 55.6759 31.4666 55.6232 31.5673 55.5656ZM29.2869 54.3427H30.9199C30.9199 54.0933 30.8527 53.8871 30.7184 53.724C30.5889 53.5562 30.3947 53.4723 30.1357 53.4723C29.8768 53.4723 29.6921 53.5322 29.5818 53.6521C29.4763 53.772 29.3996 53.8871 29.3516 53.9974C29.3085 54.1029 29.2869 54.218 29.2869 54.3427ZM32.6083 56.5583V51.1631H33.5651V56.5583H32.6083ZM34.6034 52.1774V51.2566H35.5602V52.1774H34.6034ZM34.6034 56.5583V52.8536H35.5602V56.5583H34.6034ZM36.577 56.5583V52.8536H37.4834V53.3572C37.632 53.1509 37.8071 53.0023 38.0085 52.9111C38.2099 52.8152 38.4449 52.7673 38.7135 52.7673C39.1403 52.7673 39.4544 52.9016 39.6559 53.1701C39.8621 53.4339 39.9652 53.784 39.9652 54.2204V56.5583H39.0084V54.5801C39.0084 54.2588 38.9725 54.0022 38.9005 53.8104C38.8286 53.6137 38.6559 53.5154 38.3826 53.5154C38.0709 53.5154 37.8502 53.6425 37.7208 53.8967C37.5961 54.1509 37.5337 54.4338 37.5337 54.7455V56.5583H36.577ZM43.9244 55.5656V56.3497C43.5695 56.5464 43.1451 56.6447 42.6511 56.6447C42.0421 56.6447 41.5673 56.4768 41.2268 56.1411C40.8911 55.8006 40.7232 55.3282 40.7232 54.724C40.7232 54.1581 40.8719 53.6905 41.1692 53.3212C41.4666 52.9519 41.8886 52.7673 42.4353 52.7673C43.078 52.7673 43.5312 52.9639 43.7949 53.3572C44.0587 53.7504 44.1906 54.2995 44.1906 55.0045H41.644C41.644 55.2971 41.7399 55.5273 41.9318 55.6951C42.1284 55.8582 42.3826 55.9397 42.6943 55.9397C42.9053 55.9397 43.0828 55.9157 43.2266 55.8678C43.3753 55.8198 43.5024 55.7718 43.6079 55.7239C43.7182 55.6759 43.8237 55.6232 43.9244 55.5656ZM41.644 54.3427H43.277C43.277 54.0933 43.2098 53.8871 43.0756 53.724C42.9461 53.5562 42.7518 53.4723 42.4929 53.4723C42.2339 53.4723 42.0493 53.5322 41.939 53.6521C41.8335 53.772 41.7567 53.8871 41.7088 53.9974C41.6656 54.1029 41.644 54.218 41.644 54.3427Z" fill="#FBFBFB"/>
</svg>
