<svg width="64" height="64" viewBox="0 0 64 64" fill="none" xmlns="http://www.w3.org/2000/svg">
<rect width="64" height="64" rx="32" fill="#3C8FB7"/>
<path d="M47.6981 31.0534C47.6065 30.8328 47.5504 30.663 47.4707 30.505C47.2661 30.1046 46.961 29.7653 46.5858 29.5211C46.2106 29.2769 45.7785 29.1363 45.3326 29.1134C44.0551 29.0171 42.7727 29.0042 41.4935 29.0746C40.7847 29.0746 40.4245 29.4918 40.4215 30.2041C40.4097 32.5086 40.4097 34.8101 40.4215 37.1087C40.4161 37.2526 40.4409 37.396 40.4943 37.5295C40.5477 37.663 40.6286 37.7835 40.7316 37.8832C40.8345 37.9828 40.9572 38.0594 41.0916 38.1077C41.226 38.156 41.369 38.1751 41.5112 38.1636C41.6532 38.1708 41.7952 38.148 41.928 38.0968C42.0609 38.0456 42.1817 37.967 42.2828 37.8661C42.3839 37.7652 42.4631 37.6441 42.5153 37.5107C42.5675 37.3772 42.5917 37.2342 42.5862 37.0908C42.5862 36.4054 42.5862 35.72 42.5862 35.0376C42.5862 34.8469 42.6423 34.8052 42.8254 34.8022C43.5961 34.8022 44.3699 34.8439 45.1406 34.7694C45.5455 34.7398 45.9403 34.6283 46.3016 34.4414C46.6628 34.2545 46.9831 33.9962 47.2433 33.6817C47.196 33.9529 47.1665 34.1496 47.134 34.3433L47.0277 34.9601C46.5296 37.8289 46.0285 40.6976 45.5245 43.5664C45.3946 44.3024 45.2676 45.0415 45.1318 45.7805C45.0852 46.0626 44.9827 46.3323 44.8302 46.5734C44.6778 46.8144 44.4786 47.0219 44.2447 47.1833C44.0108 47.3448 43.747 47.4568 43.4691 47.5128C43.1912 47.5687 42.9049 47.5674 42.6275 47.5089L27.6374 44.7405L17.0592 42.7916C16.893 42.7618 16.7292 42.72 16.569 42.6664C16.159 42.5592 15.8065 42.2953 15.586 41.9304C15.3655 41.5655 15.2944 41.1284 15.3877 40.7115C15.5767 39.4838 15.7982 38.259 16.0108 37.0372C16.2235 35.8154 16.442 34.5489 16.6576 33.3062C16.6753 33.2139 16.696 33.1215 16.7255 32.9844C17.4165 33.941 18.4708 34.0781 19.4631 34.3463C19.9178 34.4684 20.3756 34.5698 20.8274 34.6979C21.1877 34.8022 21.5007 34.9691 21.5362 35.4071C21.5502 35.5987 21.5045 35.7899 21.4055 35.9539C21.3064 36.118 21.159 36.2467 20.9839 36.322C20.5759 36.5217 20.1159 36.5869 19.6691 36.5083C19.2224 36.4297 18.8114 36.2113 18.4944 35.8839C18.3438 35.7141 18.2168 35.5234 18.0692 35.3505C17.9254 35.1584 17.7176 35.0254 17.4841 34.9761C17.2506 34.9268 17.0074 34.9645 16.7993 35.0823C16.6036 35.201 16.456 35.3861 16.383 35.6044C16.3099 35.8228 16.3162 36.0602 16.4007 36.2743C16.4899 36.5721 16.6416 36.8471 16.8454 37.0805C17.0492 37.3139 17.3004 37.5004 17.5819 37.6272C18.297 37.9962 19.0848 38.1989 19.8876 38.2205C20.6903 38.2422 21.4877 38.0822 22.2213 37.7524C22.7259 37.5299 23.1452 37.1481 23.4163 36.6644C23.6873 36.1808 23.7955 35.6214 23.7244 35.0704C23.6299 33.9589 22.9035 33.1453 21.6779 32.8175C20.9603 32.6268 20.2338 32.4748 19.5103 32.302C19.2891 32.2571 19.0754 32.1809 18.8754 32.0755C18.7661 32.0276 18.6715 31.9512 18.6012 31.8542C18.5309 31.7571 18.4875 31.6429 18.4755 31.5234C18.4635 31.4038 18.4832 31.2831 18.5328 31.1738C18.5823 31.0645 18.6598 30.9704 18.7573 30.9014C18.957 30.7404 19.1995 30.6429 19.4542 30.6213C20.225 30.5319 20.9308 30.6749 21.4417 31.3126C21.5336 31.4183 21.6322 31.5179 21.737 31.6106C21.9078 31.7704 22.1281 31.8658 22.3606 31.8804C22.5931 31.8951 22.8235 31.8282 23.0127 31.6911C23.1852 31.5703 23.3095 31.3917 23.3636 31.187C23.4177 30.9823 23.398 30.765 23.3081 30.5736C23.1414 30.1327 22.8211 29.7683 22.4073 29.5485C20.7329 28.5919 19.0496 28.6038 17.322 29.5485C17.39 29.1372 17.452 28.7349 17.5228 28.3326L19.0378 19.6429C19.0969 19.3002 19.0998 19.2943 19.4188 19.4343C19.8813 19.6544 20.2815 19.9885 20.5823 20.4058C20.7211 20.5816 20.8186 20.6323 21.0312 20.4922C21.4782 20.1866 22.0033 20.0179 22.5432 20.0065C22.9871 20.0229 23.4086 20.2069 23.7244 20.522C24.0245 20.7997 24.2867 21.1164 24.5041 21.4637C24.8729 21.1837 25.2823 20.9625 25.7178 20.8081C25.9899 20.7113 26.2824 20.6878 26.5662 20.7401C26.8501 20.7924 27.1155 20.9185 27.3361 21.1061C27.6207 21.3269 27.8638 21.5974 28.0538 21.9048C28.1748 22.1044 28.2605 22.167 28.4672 21.9942C28.7291 21.791 29.0225 21.633 29.3354 21.5263C29.6116 21.4122 29.9124 21.3723 30.2084 21.4105C30.5045 21.4486 30.7857 21.5634 31.0246 21.7438C31.348 21.9754 31.6323 22.2582 31.8663 22.5812C31.9519 22.7004 32.0169 22.7183 32.135 22.6319C32.391 22.4533 32.669 22.309 32.9619 22.2028C33.2249 22.0945 33.511 22.0563 33.7929 22.0917C34.0747 22.1272 34.3428 22.2352 34.5713 22.4054C34.868 22.6091 35.1302 22.8597 35.348 23.1474C35.4986 23.3471 35.6079 23.3977 35.8382 23.2398C36.1692 23.0205 36.541 22.8714 36.9309 22.8017C37.1749 22.746 37.4284 22.7471 37.6719 22.805C37.9155 22.8628 38.1428 22.9758 38.3366 23.1355C38.6123 23.352 38.8543 23.6092 39.0542 23.8984C39.2786 24.1964 39.2757 24.1964 39.5799 24.0027C39.8306 23.8349 40.1003 23.6979 40.3831 23.5944C40.6863 23.4703 41.0186 23.4368 41.3401 23.4981C41.6617 23.5594 41.9589 23.7129 42.1964 23.9401C42.4478 24.1556 42.6649 24.4089 42.8401 24.6911C42.9494 24.8699 43.0203 24.9205 43.2093 24.7715C43.5241 24.5298 43.8805 24.3489 44.2606 24.2381C44.4952 24.1636 44.7431 24.1418 44.987 24.1743C45.2308 24.2067 45.4647 24.2926 45.6722 24.4258C45.9842 24.6226 46.2616 24.8704 46.4932 25.1589C46.753 25.4748 46.7531 25.4718 47.1251 25.2781C47.5244 25.0411 47.9717 24.8985 48.4334 24.8609C48.7878 24.8609 48.7937 24.8609 48.7287 25.2126C48.3832 27.1466 48.0465 29.0717 47.6981 31.0534ZM26.1756 32.4152C26.273 32.5553 26.3262 32.6268 26.3734 32.7132C27.3814 34.3165 28.3875 35.9197 29.3915 37.5229C29.5114 37.7522 29.6965 37.9401 29.9231 38.0623C30.939 38.5302 31.8781 37.9342 31.881 36.8137C31.881 34.5509 31.881 32.2891 31.881 30.0282C31.881 29.1342 31.1723 28.6664 30.3483 28.9972C29.8965 29.1789 29.7577 29.5574 29.7577 30.0074C29.7577 31.4994 29.7577 32.9894 29.7577 34.4774C29.7577 34.5519 29.7961 34.6413 29.7134 34.7277C29.6544 34.6323 29.5953 34.5489 29.5421 34.4625C28.54 32.8314 27.5389 31.2024 26.5388 29.5753C26.3729 29.2893 26.1115 29.0722 25.8014 28.963C25.4914 28.8538 25.1529 28.8595 24.8466 28.9793C24.2855 29.1402 24.0611 29.5038 24.0582 30.2577V34.7903C24.0582 35.58 24.0582 36.3697 24.0582 37.1594C24.0419 37.359 24.0909 37.5585 24.1975 37.7275C24.3042 37.8964 24.4626 38.0255 24.6488 38.0951C25.4727 38.3931 26.149 37.9401 26.149 37.061C26.149 35.6326 26.149 34.2062 26.149 32.7818L26.1756 32.4152ZM36.1276 36.1641C36.5529 36.1641 36.9782 36.1641 37.4005 36.1641C37.4364 36.1582 37.4732 36.1596 37.5085 36.1684C37.5439 36.1771 37.5772 36.1929 37.6064 36.2148C37.6356 36.2368 37.6601 36.2645 37.6785 36.2962C37.6969 36.3279 37.7088 36.363 37.7135 36.3995C37.8346 36.7869 37.9704 37.1713 38.1122 37.5527C38.1923 37.7584 38.3387 37.9308 38.5279 38.0421C38.717 38.1535 38.9378 38.1974 39.1546 38.1666C39.3725 38.1574 39.5818 38.0782 39.7518 37.9404C39.9218 37.8026 40.0437 37.6135 40.0996 37.4008C40.1514 37.071 40.0987 36.733 39.949 36.4352C39.2048 34.3284 38.4459 32.2305 37.7076 30.1236C37.3414 29.0836 37.176 28.8571 35.8737 28.9048C35.6367 28.899 35.4046 28.9728 35.2137 29.1147C35.0229 29.2566 34.8842 29.4584 34.8194 29.6885C34.2288 31.2858 33.6204 32.8741 33.0328 34.4714C32.6936 35.2742 32.3979 36.0949 32.1468 36.9299C32.1071 37.0486 32.0915 37.1741 32.1009 37.299C32.1104 37.4239 32.1446 37.5456 32.2017 37.6569C32.2587 37.7681 32.3374 37.8666 32.433 37.9465C32.5286 38.0264 32.6392 38.0861 32.7581 38.1219C32.8869 38.1757 33.0252 38.2025 33.1645 38.2007C33.3039 38.1989 33.4414 38.1684 33.5687 38.1113C33.6961 38.0542 33.8106 37.9715 33.9053 37.8683C33.9999 37.7651 34.0728 37.6435 34.1195 37.511C34.2613 37.1296 34.4001 36.7481 34.5241 36.3607C34.5349 36.3012 34.5686 36.2483 34.6178 36.2137C34.667 36.1791 34.7278 36.1656 34.7869 36.176C35.2417 36.17 35.6847 36.1641 36.1276 36.1641Z" fill="#FBFBFB"/>
<path d="M46.358 20.3109C45.9003 21.1424 45.5282 22.0125 45.1206 22.8678C45.0911 22.9625 45.03 23.044 44.9476 23.0984C44.8652 23.1527 44.7667 23.1765 44.6688 23.1658C44.2435 23.165 43.8243 23.2672 43.4462 23.4638C43.3846 23.501 43.3115 23.5143 43.2409 23.5012C43.1702 23.488 43.1067 23.4493 43.0623 23.3923C42.7875 23.0767 42.4448 22.8288 42.0603 22.6676C41.6759 22.5064 41.26 22.4363 40.8445 22.4625C40.4402 22.496 40.0457 22.6051 39.681 22.7843C39.6571 22.802 39.6299 22.8146 39.6011 22.8214C39.5723 22.8283 39.5424 22.8292 39.5132 22.8242C39.484 22.8192 39.4561 22.8084 39.4312 22.7923C39.4062 22.7762 39.3847 22.7553 39.3679 22.7307C39.1766 22.506 38.9489 22.3155 38.6946 22.1675C38.5706 22.0989 38.5824 22.0274 38.6267 21.9142C39.5835 19.5719 40.5551 17.2356 41.4853 14.8814C41.8013 14.0857 42.4185 13.8294 43.1627 13.6894C43.9748 13.5285 44.7781 13.3318 45.5872 13.1589C45.6577 13.1441 45.7226 13.1098 45.7748 13.0598C45.827 13.0098 45.8643 12.9461 45.8826 12.8758C46.1099 12.2798 46.1779 12.2262 46.8246 12.262C47.6426 12.3067 48.4606 12.3692 49.2757 12.4348C49.6006 12.4586 49.7335 12.6583 49.571 12.9384C49.3318 13.3586 49.4145 13.6775 49.6892 14.0589C50.2798 14.8784 50.8704 15.7128 51.3695 16.5889C51.4845 16.7754 51.553 16.9872 51.5689 17.2063C51.5849 17.4254 51.5479 17.6451 51.461 17.8465L49.0779 23.723C49.0336 23.8273 49.004 23.9078 48.8623 23.881C48.2992 23.7965 47.724 23.8815 47.2085 24.1253C47.1405 24.1641 47.061 24.1772 46.9843 24.1625C46.9075 24.1478 46.8384 24.1061 46.7892 24.0449C46.4833 23.7325 46.1119 23.4932 45.7024 23.3446C45.5016 23.276 45.5046 23.1807 45.5577 23.0078C45.8117 22.2032 46.0568 21.3957 46.3019 20.5911C46.3285 20.5017 46.3432 20.4063 46.361 20.3139L46.3964 20.2275L46.3787 20.2096L46.358 20.3109ZM45.4721 13.8026C44.5005 14.0589 43.4905 14.1423 42.5455 14.5119C42.3574 14.6015 42.2001 14.7457 42.0937 14.9261C41.9519 15.1347 41.9755 15.2509 42.2236 15.3433C42.7079 15.528 43.1834 15.7337 43.6618 15.9393C44.843 16.428 46.0243 16.9137 47.2056 17.4144C47.4182 17.5038 47.5009 17.4561 47.554 17.2356C47.5884 17.0928 47.5922 16.9443 47.5652 16.7999C47.5382 16.6555 47.4811 16.5185 47.3975 16.3982C46.8955 15.5251 46.2546 14.7503 45.6847 13.9248C45.666 13.8848 45.6356 13.8516 45.5975 13.8297C45.5595 13.8079 45.5157 13.7984 45.4721 13.8026Z" fill="#FBFBFB"/>
<path d="M38.1625 15.2301C38.1262 14.9069 38.0353 14.5925 37.8938 14.3003C37.5166 13.4594 37.0114 12.6832 36.3965 11.9998C36.3375 11.9497 36.2989 11.8795 36.288 11.8026C36.2771 11.7256 36.2947 11.6472 36.3375 11.5826C36.5974 11.0551 36.8631 10.5336 37.1407 10.0151C37.2323 9.8482 37.2943 9.8482 37.436 9.97336C38.1283 10.6199 38.7455 11.3437 39.2758 12.1309C39.3261 12.2084 39.3792 12.2858 39.4708 12.4289C39.3779 11.8592 39.1774 11.3129 38.8801 10.8197C38.5813 10.2894 38.2311 9.7903 37.8347 9.32968C37.7225 9.20154 37.6989 9.10916 37.8111 8.96911C38.0621 8.67111 38.3013 8.34033 38.5346 8.02147C38.6586 7.85459 38.759 7.82776 38.9333 7.9708C39.383 8.33264 39.7858 8.75014 40.1323 9.21347C40.1707 9.26413 40.1854 9.33862 40.2799 9.35352C40.2492 9.06136 40.1576 8.77905 40.0112 8.52508C39.8203 8.15396 39.5853 7.80771 39.3113 7.494C39.2493 7.42546 39.1754 7.36586 39.3113 7.26752C40.1618 6.57616 41.0832 6.18876 42.1876 6.57318C43.1267 6.90098 43.5904 7.64896 43.8503 8.55488C44.1316 9.6615 44.2156 10.8098 44.0983 11.9461C44.0511 12.6524 44.0393 12.6494 43.3394 12.7895C43.0706 12.8431 42.8049 12.8997 42.5391 12.9653C42.131 13.0498 41.751 13.2378 41.4348 13.5115C41.1186 13.7852 40.8766 14.1357 40.7318 14.5298C39.8891 16.6098 39.0426 18.6879 38.192 20.7639C38.0739 21.0619 37.9587 21.345 37.8377 21.6341C37.814 21.6907 37.814 21.7891 37.7402 21.792C37.4449 21.792 37.1762 21.8069 36.8927 21.792C36.8188 21.792 36.8366 21.7056 36.8306 21.655C36.7718 20.9808 36.58 20.3253 36.2666 19.7269C36.2075 19.6226 36.2282 19.569 36.3286 19.5034C36.6943 19.2328 37.005 18.8939 37.2441 18.5051C37.2788 18.468 37.2981 18.419 37.2981 18.368C37.2981 18.317 37.2788 18.268 37.2441 18.2309C36.6712 17.4174 35.9654 16.8125 34.9347 16.7111C34.7812 16.6933 34.79 16.6217 34.7753 16.4906C34.6453 15.388 35.2743 14.494 35.5608 13.5106C35.5997 13.3935 35.646 13.279 35.6996 13.1679C35.8443 12.8044 35.8443 12.8044 36.1662 13.0487C36.8686 13.5959 37.484 14.2481 37.9912 14.9827C38.0119 15.0632 38.0473 15.1675 38.1625 15.2301Z" fill="#FBFBFB"/>
<path d="M23.7815 19.3122C23.3716 19.1255 22.9287 19.0242 22.4791 19.0142C22.2901 19.0142 22.0568 19.1781 21.9269 19.0142C21.7969 18.8503 21.8531 18.6507 21.8294 18.4629C21.5577 16.2498 21.287 14.0346 21.0173 11.8175C20.9051 10.9027 20.8047 9.98781 20.7013 9.07295C20.6861 8.95037 20.6782 8.82697 20.6777 8.70343C20.6718 8.64391 20.6794 8.58383 20.6998 8.52768C20.7202 8.47153 20.753 8.42077 20.7956 8.3792C20.8382 8.33763 20.8896 8.30633 20.9459 8.28765C21.0022 8.26897 21.0619 8.26339 21.1207 8.27133C22.9831 8.37265 24.8456 8.47893 26.708 8.59018C26.876 8.60761 27.0409 8.64771 27.1982 8.70939C27.2842 8.73684 27.3602 8.78946 27.4164 8.86056C27.4727 8.93167 27.5067 9.01804 27.5142 9.10871C27.8922 11.5364 28.2732 13.9651 28.6571 16.3948C28.7014 16.6928 28.7309 16.9908 28.7929 17.265C28.8167 17.3301 28.8157 17.4018 28.7901 17.4663C28.7644 17.5307 28.716 17.5832 28.6541 17.6136C27.9019 18.111 27.2952 18.8024 26.897 19.6162C26.8788 19.669 26.8419 19.7131 26.7933 19.74C26.7448 19.767 26.6881 19.7749 26.6342 19.7622C26.061 19.6945 25.4806 19.7916 24.9598 20.0423C24.7058 20.1586 24.5552 20.0841 24.5138 19.792C24.4341 19.2109 24.3721 18.6239 24.3012 18.0398C24.0827 16.1922 23.8651 14.3436 23.6486 12.494C23.5807 11.9188 23.5157 11.3437 23.4478 10.7686C23.4517 10.6349 23.4088 10.504 23.3267 10.399C23.2838 10.3473 23.2249 10.3118 23.1594 10.2983C23.094 10.2848 23.026 10.294 22.9664 10.3245C22.8975 10.3472 22.8392 10.3947 22.8028 10.4579C22.7663 10.5211 22.7541 10.5956 22.7685 10.6672C22.8128 11.0844 22.8571 11.4987 22.9073 11.9129C23.1259 13.7903 23.3464 15.6667 23.5688 17.5421C23.6368 18.1083 23.7076 18.6894 23.7815 19.3122ZM26.4393 18.0308C26.4541 18.0308 26.4718 18.0606 26.4865 18.0577C26.8057 17.9925 27.0945 17.8228 27.3081 17.5749C27.5218 17.327 27.6482 17.0148 27.6678 16.6868C27.6799 16.3712 27.5879 16.0604 27.4062 15.8032C27.2245 15.546 26.9634 15.3568 26.6637 15.2654C26.5559 15.2189 26.4399 15.1949 26.3226 15.1949C26.2054 15.1949 26.0894 15.2189 25.9816 15.2654C26.0967 15.3578 26.1942 15.4293 26.2769 15.5097C26.5382 15.7151 26.7278 15.9992 26.8181 16.3208C26.9084 16.6423 26.8947 16.9846 26.7789 17.2977C26.6797 17.5534 26.5623 17.8014 26.4275 18.0398L26.4009 18.0725H26.4245L26.4393 18.0308ZM25.1872 10.6375C26.2739 11.6149 26.3536 12.1274 25.6183 13.4446C25.8117 13.4208 25.9982 13.3571 26.1661 13.2574C26.334 13.1576 26.4798 13.024 26.5942 12.8649C26.7087 12.7058 26.7894 12.5246 26.8313 12.3326C26.8733 12.1406 26.8755 11.9419 26.838 11.749C26.806 11.5651 26.7375 11.3897 26.6366 11.2333C26.5357 11.0768 26.4044 10.9427 26.2507 10.8388C26.097 10.7349 25.9241 10.6635 25.7423 10.6289C25.5605 10.5943 25.3737 10.5972 25.1931 10.6375H25.1872Z" fill="#FBFBFB"/>
<path d="M31.649 16.7167C31.0398 16.6966 30.4327 16.7979 29.8623 17.0147C29.7117 17.0714 29.6526 17.0445 29.6261 16.8806C29.3839 15.3668 29.1388 13.853 28.8907 12.3391C28.8668 12.2585 28.8742 12.1716 28.9116 12.0963C28.9489 12.021 29.0132 11.9629 29.0915 11.9338C29.3839 11.7696 29.7072 11.6694 30.0405 11.6396C30.3737 11.6098 30.7095 11.6512 31.0258 11.761C31.1942 11.8206 31.2532 11.7908 31.3212 11.6329C31.4943 11.2859 31.7401 10.9809 32.0415 10.7392C32.3429 10.4975 32.6928 10.3248 33.0669 10.233C33.441 10.1411 33.8304 10.1324 34.2081 10.2074C34.5859 10.2824 34.943 10.4393 35.2547 10.6673C35.4585 10.8133 35.5264 10.9296 35.4054 11.1948C34.8628 12.3904 34.3828 13.6139 33.9672 14.8602C33.9022 15.0598 33.8284 15.1582 33.598 15.1254C33.0606 15.0718 32.6826 15.4234 32.2957 15.7214C32.2695 15.7419 32.2509 15.7706 32.2429 15.8031C32.2348 15.8355 32.2378 15.8697 32.2514 15.9002C32.2528 15.928 32.2528 15.9559 32.2514 15.9836C32.2721 16.228 32.4227 16.535 32.278 16.6989C32.1333 16.8628 31.8439 16.678 31.649 16.7167Z" fill="#FBFBFB"/>
<path d="M33.118 17.8671C33.2068 17.3758 33.2336 16.8752 33.1978 16.3771C33.1871 16.3267 33.1885 16.2745 33.2018 16.2247C33.2152 16.175 33.24 16.1292 33.2743 16.091C33.3087 16.0529 33.3515 16.0235 33.3993 16.0054C33.4471 15.9873 33.4985 15.9809 33.5492 15.9867C33.8032 15.9867 33.8711 16.1536 33.8593 16.3682C33.8157 16.7725 33.7163 17.1687 33.564 17.5453C33.5315 17.6436 33.4931 17.739 33.4429 17.879C33.7518 17.6875 34.1047 17.5802 34.4671 17.5677C34.8295 17.5552 35.1889 17.6378 35.5101 17.8075C35.7005 17.911 35.8779 18.037 36.0387 18.183C36.2188 18.335 36.1804 18.4452 36.0387 18.5883C35.6911 18.8797 35.2611 19.0528 34.8102 19.0829C35.0367 19.3839 35.242 19.7005 35.4244 20.0306C35.7282 20.6103 35.9083 21.2478 35.953 21.902C35.953 21.9855 35.9826 22.0719 35.8763 22.1225C35.77 22.1732 35.7198 22.0838 35.6636 22.0302C35.014 21.4163 34.2757 21.0289 33.3513 21.1213C33.0233 21.154 32.7029 21.2416 32.4034 21.3805C32.3499 21.4164 32.2852 21.4307 32.2218 21.4208C32.1584 21.4109 32.101 21.3774 32.0608 21.3269C31.0567 20.3763 29.9227 20.1557 28.6617 20.7607C28.6088 20.7957 28.5443 20.8082 28.4823 20.7954C28.4204 20.7825 28.3659 20.7454 28.331 20.6921C28.2015 20.5401 28.0502 20.4085 27.8821 20.3018C27.6311 20.1617 27.6724 20.0246 27.7906 19.816C28.3079 18.909 29.1264 18.2159 30.1014 17.8592C31.0764 17.5026 32.1449 17.5054 33.118 17.8671Z" fill="#FBFBFB"/>
<path d="M19.1878 18.3407C19.6138 17.8382 20.1336 17.425 20.7175 17.1249L19.6839 16.8954C19.508 16.8651 19.3377 16.8078 19.179 16.7256C19.0671 16.6744 18.971 16.5936 18.9008 16.4919C18.8306 16.3901 18.789 16.2711 18.7803 16.1475C18.7419 15.6528 18.6917 15.1641 18.6385 14.6575C18.6286 14.5248 18.6629 14.3927 18.736 14.282C18.9846 13.8764 19.3097 13.5241 19.6928 13.2449L19.9704 13.0304L18.9339 12.7801C18.75 12.7382 18.5736 12.6679 18.4111 12.5715C18.3326 12.5276 18.2663 12.4645 18.2183 12.3879C18.1703 12.3113 18.1421 12.2238 18.1365 12.1334C18.0863 11.603 18.0302 11.0755 17.9711 10.5451C17.9607 10.4409 17.9846 10.3362 18.039 10.2471C18.4221 9.63235 18.9602 9.13148 19.5983 8.7958C19.7371 8.71534 19.7519 8.7958 19.7637 8.90606C19.8956 10.0087 20.0295 11.1123 20.1653 12.2168C20.3957 14.1221 20.629 16.0263 20.8652 17.9295C20.9213 18.3854 20.9774 18.8444 21.0424 19.3927C20.5446 18.8599 19.8977 18.4929 19.1878 18.3407Z" fill="#FBFBFB"/>
<path d="M42.5833 31.9296V30.9999C42.5833 30.9015 42.5833 30.8091 42.7191 30.8151C43.3747 30.8389 44.0392 30.7465 44.6889 30.8747C45.3386 31.0028 45.6309 31.3843 45.5748 32.0339C45.5584 32.307 45.4397 32.5635 45.2429 32.7516C45.046 32.9397 44.7857 33.0453 44.5146 33.0471C43.924 33.0739 43.3334 33.0471 42.7428 33.065C42.5981 33.065 42.5715 33.0024 42.5744 32.8772C42.5862 32.5554 42.5833 32.2425 42.5833 31.9296Z" fill="#FBFBFB"/>
<path d="M17.3302 20.5046L17.6462 19.6106C17.6787 19.5182 17.7082 19.4348 17.8352 19.4467C17.9622 19.4586 17.9504 19.5748 17.9563 19.6583C17.9799 19.9891 17.9976 20.3198 18.0124 20.6536C18.0124 20.7102 18.0537 20.7966 17.9533 20.8115C17.8529 20.8264 17.847 20.737 17.8411 20.6625C17.8204 20.3645 17.8027 20.0665 17.7761 19.7179C17.6521 20.0636 17.5517 20.3496 17.4454 20.6357C17.4217 20.7043 17.4158 20.7996 17.3184 20.8056C17.2209 20.8115 17.2121 20.7072 17.1914 20.6417C17.1079 20.3754 17.0012 20.1171 16.8725 19.8699C16.8577 20.1321 16.8429 20.3943 16.8252 20.6595C16.8252 20.734 16.8252 20.8264 16.7159 20.8115C16.6067 20.7966 16.651 20.7132 16.6539 20.6536C16.6746 20.3109 16.6982 19.9712 16.7189 19.6315C16.7189 19.551 16.6953 19.4527 16.8341 19.4497C16.8544 19.4467 16.8752 19.4479 16.8951 19.453C16.915 19.4581 16.9338 19.4672 16.9502 19.4797C16.9667 19.4921 16.9805 19.5077 16.991 19.5256C17.0015 19.5435 17.0084 19.5632 17.0113 19.5838C17.1028 19.8758 17.2091 20.1589 17.3302 20.5046Z" fill="#FBFBFB"/>
<path d="M15.9157 20.8321C15.8766 20.8393 15.8366 20.8393 15.7976 20.8321C15.7326 20.8112 15.6292 20.8142 15.644 20.7069C15.6588 20.5996 15.7562 20.6682 15.8153 20.6712C15.8743 20.6741 15.9452 20.6861 16.0131 20.6861C16.0655 20.6921 16.1182 20.6788 16.1616 20.6487C16.205 20.6185 16.2362 20.5736 16.2494 20.5222C16.2632 20.4712 16.258 20.4168 16.2345 20.3695C16.2111 20.3222 16.1712 20.2853 16.1224 20.2659C16.0191 20.2063 15.9009 20.1646 15.8005 20.096C15.7588 20.0691 15.7236 20.0331 15.6974 19.9907C15.6712 19.9483 15.6546 19.9005 15.649 19.8509C15.6433 19.8013 15.6487 19.751 15.6647 19.7037C15.6807 19.6564 15.7069 19.6133 15.7415 19.5775C15.8714 19.4374 16.2376 19.3838 16.3321 19.4941C16.3503 19.5144 16.3599 19.5412 16.3587 19.5686C16.3593 19.5781 16.3577 19.5877 16.3541 19.5966C16.3505 19.6054 16.3449 19.6134 16.3378 19.6197C16.3306 19.626 16.3221 19.6306 16.313 19.6331C16.3038 19.6356 16.2942 19.636 16.2848 19.6341C16.2494 19.6341 16.214 19.6133 16.1785 19.6073C16.0427 19.5835 15.9068 19.5745 15.8448 19.7325C15.7828 19.8904 15.9127 19.9649 16.0309 20.0305L16.1342 20.0781C16.1851 20.0894 16.2331 20.1112 16.2752 20.1421C16.3173 20.173 16.3526 20.2124 16.379 20.2577C16.4053 20.303 16.4221 20.3533 16.4283 20.4055C16.4344 20.4577 16.4298 20.5106 16.4148 20.5609C16.3646 20.7725 16.1815 20.841 15.9157 20.8321Z" fill="#FBFBFB"/>
<path d="M46.3574 20.3107L46.3932 20.2241L46.4112 20.242L46.3753 20.3286L46.3574 20.3107Z" fill="#FBFBFB"/>
<path d="M26.4459 18.0308V18.0698H26.4219L26.4489 18.0368L26.4459 18.0308Z" fill="#FBFBFB"/>
<path d="M36.1395 31.4709C36.4584 32.4752 36.7478 33.405 37.052 34.3288C37.117 34.5255 37.0875 34.5761 36.8807 34.5702C36.3551 34.5702 35.8265 34.5702 35.2978 34.5702C35.2004 34.5702 35.1029 34.5701 35.159 34.4241C35.4809 33.4646 35.7969 32.505 36.1395 31.4709Z" fill="#FBFBFB"/>
<path d="M11.8223 51.3043V48.616H12.8364C13.0149 48.616 13.1512 48.6245 13.2453 48.6416C13.3773 48.6636 13.488 48.7058 13.5772 48.7682C13.6665 48.8293 13.738 48.9155 13.7918 49.0267C13.8468 49.138 13.8743 49.2602 13.8743 49.3935C13.8743 49.6221 13.8016 49.8159 13.6561 49.9748C13.5106 50.1325 13.2477 50.2114 12.8675 50.2114H12.178V51.3043H11.8223ZM12.178 49.8941H12.873C13.1029 49.8941 13.2661 49.8513 13.3627 49.7658C13.4592 49.6802 13.5075 49.5598 13.5075 49.4045C13.5075 49.292 13.4788 49.1961 13.4213 49.1166C13.3651 49.0359 13.2905 48.9827 13.1976 48.9571C13.1377 48.9412 13.0271 48.9332 12.8657 48.9332H12.178V49.8941Z" fill="#FBFBFB"/>
<path d="M15.5614 51.3043V51.0183C15.4098 51.2383 15.2038 51.3483 14.9434 51.3483C14.8285 51.3483 14.7209 51.3263 14.6207 51.2823C14.5216 51.2383 14.4477 51.1833 14.3988 51.1173C14.3511 51.05 14.3175 50.9681 14.2979 50.8716C14.2845 50.8068 14.2777 50.7041 14.2777 50.5635V49.3568H14.6078V50.4369C14.6078 50.6093 14.6145 50.7255 14.628 50.7854C14.6488 50.8722 14.6928 50.9406 14.76 50.9907C14.8273 51.0397 14.9104 51.0641 15.0094 51.0641C15.1085 51.0641 15.2014 51.039 15.2882 50.9889C15.375 50.9376 15.4361 50.8685 15.4715 50.7817C15.5082 50.6937 15.5266 50.5665 15.5266 50.4003V49.3568H15.8566V51.3043H15.5614Z" fill="#FBFBFB"/>
<path d="M17.0963 51.0091L17.144 51.3007C17.0511 51.3202 16.9679 51.33 16.8946 51.33C16.7748 51.33 16.6819 51.3111 16.6158 51.2732C16.5498 51.2353 16.5034 51.1857 16.4765 51.1246C16.4496 51.0623 16.4361 50.9321 16.4361 50.734V49.6136H16.1941V49.3568H16.4361V48.8745L16.7644 48.6765V49.3568H17.0963V49.6136H16.7644V50.7524C16.7644 50.8465 16.7699 50.907 16.7809 50.9339C16.7931 50.9608 16.8121 50.9822 16.8377 50.9981C16.8646 51.014 16.9025 51.0219 16.9514 51.0219C16.9881 51.0219 17.0364 51.0176 17.0963 51.0091Z" fill="#FBFBFB"/>
<path d="M18.1416 51.0091L18.1892 51.3007C18.0963 51.3202 18.0132 51.33 17.9399 51.33C17.82 51.33 17.7271 51.3111 17.6611 51.2732C17.5951 51.2353 17.5486 51.1857 17.5217 51.1246C17.4948 51.0623 17.4814 50.9321 17.4814 50.734V49.6136H17.2393V49.3568H17.4814V48.8745L17.8097 48.6765V49.3568H18.1416V49.6136H17.8097V50.7524C17.8097 50.8465 17.8152 50.907 17.8262 50.9339C17.8384 50.9608 17.8573 50.9822 17.883 50.9981C17.9099 51.014 17.9478 51.0219 17.9967 51.0219C18.0334 51.0219 18.0817 51.0176 18.1416 51.0091Z" fill="#FBFBFB"/>
<path d="M18.468 48.9956V48.616H18.7981V48.9956H18.468ZM18.468 51.3043V49.3568H18.7981V51.3043H18.468Z" fill="#FBFBFB"/>
<path d="M19.3024 51.3043V49.3568H19.5994V49.6337C19.7425 49.4198 19.9491 49.3128 20.2193 49.3128C20.3366 49.3128 20.4442 49.3342 20.542 49.377C20.6411 49.4186 20.715 49.4736 20.7639 49.542C20.8128 49.6105 20.847 49.6918 20.8666 49.7859C20.8788 49.8471 20.8849 49.954 20.8849 50.1069V51.3043H20.5549V50.1197C20.5549 49.9852 20.542 49.885 20.5164 49.8189C20.4907 49.7517 20.4448 49.6985 20.3788 49.6594C20.314 49.6191 20.2376 49.5989 20.1496 49.5989C20.009 49.5989 19.8874 49.6435 19.7847 49.7328C19.6832 49.822 19.6325 49.9913 19.6325 50.2407V51.3043H19.3024Z" fill="#FBFBFB"/>
<path d="M21.3324 51.4657L21.6533 51.5134C21.6668 51.6124 21.704 51.6845 21.7652 51.7298C21.8471 51.7909 21.9589 51.8215 22.1008 51.8215C22.2536 51.8215 22.3716 51.7909 22.4547 51.7298C22.5378 51.6686 22.5941 51.5831 22.6234 51.473C22.6405 51.4058 22.6485 51.2646 22.6472 51.0494C22.503 51.2194 22.3233 51.3043 22.1081 51.3043C21.8404 51.3043 21.6331 51.2077 21.4864 51.0146C21.3397 50.8214 21.2664 50.5898 21.2664 50.3196C21.2664 50.1337 21.3 49.9626 21.3672 49.8061C21.4345 49.6484 21.5317 49.5268 21.6588 49.4412C21.7872 49.3556 21.9376 49.3128 22.1099 49.3128C22.3398 49.3128 22.5293 49.4057 22.6784 49.5916V49.3568H22.9828V51.0403C22.9828 51.3435 22.9516 51.558 22.8893 51.6839C22.8282 51.8111 22.7304 51.9113 22.5959 51.9847C22.4626 52.058 22.2982 52.0947 22.1026 52.0947C21.8703 52.0947 21.6827 52.0421 21.5396 51.937C21.3966 51.8331 21.3275 51.676 21.3324 51.4657ZM21.6056 50.2957C21.6056 50.5512 21.6564 50.7377 21.7578 50.855C21.8593 50.9724 21.9865 51.0311 22.1393 51.0311C22.2909 51.0311 22.418 50.973 22.5207 50.8569C22.6234 50.7395 22.6747 50.5561 22.6747 50.3067C22.6747 50.0683 22.6216 49.8886 22.5152 49.7676C22.4101 49.6466 22.2829 49.5861 22.1338 49.5861C21.9871 49.5861 21.8624 49.646 21.7597 49.7658C21.657 49.8844 21.6056 50.061 21.6056 50.2957Z" fill="#FBFBFB"/>
<path d="M24.5819 51.3043V48.616H24.9377V49.7199H26.335V48.616H26.6908V51.3043H26.335V50.0372H24.9377V51.3043H24.5819Z" fill="#FBFBFB"/>
<path d="M28.5759 50.6772L28.917 50.7193C28.8632 50.9186 28.7636 51.0733 28.6181 51.1833C28.4726 51.2933 28.2868 51.3483 28.0606 51.3483C27.7758 51.3483 27.5496 51.2609 27.3821 51.0861C27.2159 50.9101 27.1327 50.6637 27.1327 50.3471C27.1327 50.0194 27.2171 49.7652 27.3858 49.5842C27.5545 49.4033 27.7733 49.3128 28.0423 49.3128C28.3027 49.3128 28.5154 49.4014 28.6805 49.5787C28.8455 49.756 28.928 50.0054 28.928 50.3269C28.928 50.3465 28.9274 50.3758 28.9262 50.4149H27.4738C27.486 50.6289 27.5466 50.7927 27.6554 50.9064C27.7642 51.0201 27.8999 51.0769 28.0625 51.0769C28.1835 51.0769 28.2868 51.0452 28.3724 50.9816C28.458 50.918 28.5258 50.8165 28.5759 50.6772ZM27.4922 50.1435H28.5796C28.5649 49.9797 28.5234 49.8568 28.4549 49.7749C28.3498 49.6478 28.2135 49.5842 28.046 49.5842C27.8944 49.5842 27.7666 49.635 27.6627 49.7364C27.56 49.8379 27.5032 49.9736 27.4922 50.1435Z" fill="#FBFBFB"/>
<path d="M30.6041 51.0641C30.4819 51.168 30.3639 51.2414 30.2502 51.2842C30.1377 51.3269 30.0167 51.3483 29.8871 51.3483C29.6732 51.3483 29.5087 51.2964 29.3938 51.1925C29.2789 51.0873 29.2214 50.9535 29.2214 50.7909C29.2214 50.6955 29.2428 50.6087 29.2856 50.5305C29.3296 50.451 29.3865 50.3874 29.4562 50.3397C29.5271 50.2921 29.6065 50.256 29.6946 50.2316C29.7594 50.2144 29.8572 50.1979 29.988 50.182C30.2545 50.1503 30.4507 50.1124 30.5766 50.0683C30.5779 50.0231 30.5785 49.9944 30.5785 49.9822C30.5785 49.8477 30.5473 49.7529 30.4849 49.6979C30.4006 49.6233 30.2753 49.5861 30.109 49.5861C29.9537 49.5861 29.8388 49.6136 29.7642 49.6686C29.6909 49.7224 29.6365 49.8183 29.601 49.9565L29.2783 49.9125C29.3076 49.7743 29.3559 49.6631 29.4232 49.5787C29.4904 49.4931 29.5876 49.4277 29.7147 49.3825C29.8419 49.336 29.9892 49.3128 30.1567 49.3128C30.323 49.3128 30.458 49.3324 30.562 49.3715C30.6659 49.4106 30.7423 49.4601 30.7912 49.52C30.8401 49.5787 30.8743 49.6533 30.8939 49.7438C30.9049 49.8 30.9104 49.9015 30.9104 50.0482V50.4883C30.9104 50.7951 30.9171 50.9895 30.9306 51.0714C30.9452 51.1521 30.9733 51.2298 31.0149 51.3043H30.6702C30.6359 51.2359 30.6139 51.1558 30.6041 51.0641ZM30.5766 50.3269C30.4568 50.3758 30.2771 50.4174 30.0375 50.4516C29.9018 50.4712 29.8058 50.4932 29.7496 50.5176C29.6933 50.5421 29.6499 50.5781 29.6194 50.6258C29.5888 50.6723 29.5735 50.7242 29.5735 50.7817C29.5735 50.8697 29.6065 50.9431 29.6726 51.0018C29.7398 51.0604 29.8376 51.0898 29.966 51.0898C30.0931 51.0898 30.2062 51.0623 30.3052 51.0073C30.4042 50.951 30.477 50.8746 30.5234 50.778C30.5589 50.7035 30.5766 50.5934 30.5766 50.4479V50.3269Z" fill="#FBFBFB"/>
<path d="M31.4165 51.3043V48.616H31.7466V51.3043H31.4165Z" fill="#FBFBFB"/>
<path d="M32.9807 51.0091L33.0284 51.3007C32.9355 51.3202 32.8524 51.33 32.779 51.33C32.6592 51.33 32.5663 51.3111 32.5003 51.2732C32.4343 51.2353 32.3878 51.1857 32.3609 51.1246C32.334 51.0623 32.3206 50.9321 32.3206 50.734V49.6136H32.0785V49.3568H32.3206V48.8745L32.6488 48.6765V49.3568H32.9807V49.6136H32.6488V50.7524C32.6488 50.8465 32.6543 50.907 32.6653 50.9339C32.6776 50.9608 32.6965 50.9822 32.7222 50.9981C32.7491 51.014 32.787 51.0219 32.8359 51.0219C32.8726 51.0219 32.9208 51.0176 32.9807 51.0091Z" fill="#FBFBFB"/>
<path d="M33.3053 51.3043V48.616H33.6354V49.5806C33.7895 49.4021 33.9838 49.3128 34.2186 49.3128C34.3628 49.3128 34.4881 49.3415 34.5945 49.399C34.7009 49.4552 34.7767 49.5335 34.8219 49.6337C34.8683 49.734 34.8916 49.8795 34.8916 50.0702V51.3043H34.5615V50.0702C34.5615 49.9051 34.5254 49.7853 34.4533 49.7108C34.3824 49.635 34.2815 49.5971 34.1507 49.5971C34.0529 49.5971 33.9606 49.6227 33.8738 49.6741C33.7882 49.7242 33.7271 49.7927 33.6904 49.8795C33.6538 49.9663 33.6354 50.0861 33.6354 50.2389V51.3043H33.3053Z" fill="#FBFBFB"/>
<path d="M35.3812 52.0544L35.3445 51.7444C35.4167 51.764 35.4796 51.7738 35.5334 51.7738C35.6068 51.7738 35.6654 51.7616 35.7095 51.7371C35.7535 51.7127 35.7895 51.6784 35.8177 51.6344C35.8384 51.6014 35.8721 51.5195 35.9185 51.3887C35.9246 51.3703 35.9344 51.3435 35.9479 51.308L35.2088 49.3568H35.5646L35.9699 50.4846C36.0224 50.6277 36.0695 50.778 36.1111 50.9357C36.149 50.7841 36.1942 50.6362 36.2468 50.492L36.663 49.3568H36.9931L36.2523 51.3373C36.1728 51.5513 36.1111 51.6986 36.067 51.7793C36.0084 51.8881 35.9411 51.9676 35.8653 52.0177C35.7895 52.069 35.6991 52.0947 35.5939 52.0947C35.5304 52.0947 35.4594 52.0813 35.3812 52.0544Z" fill="#FBFBFB"/>
<path d="M38.3795 51.3043V48.616H40.1931V48.9332H38.7352V49.7658H39.9969V50.083H38.7352V51.3043H38.3795Z" fill="#FBFBFB"/>
<path d="M40.492 50.3306C40.492 49.9699 40.5923 49.7028 40.7928 49.5292C40.9603 49.3849 41.1644 49.3128 41.4053 49.3128C41.673 49.3128 41.8918 49.4008 42.0618 49.5769C42.2317 49.7517 42.3167 49.9938 42.3167 50.3031C42.3167 50.5537 42.2788 50.7511 42.203 50.8954C42.1284 51.0384 42.019 51.1497 41.8747 51.2291C41.7317 51.3086 41.5752 51.3483 41.4053 51.3483C41.1326 51.3483 40.912 51.2609 40.7433 51.0861C40.5758 50.9113 40.492 50.6594 40.492 50.3306ZM40.8313 50.3306C40.8313 50.58 40.8857 50.767 40.9945 50.8917C41.1033 51.0152 41.2402 51.0769 41.4053 51.0769C41.5691 51.0769 41.7054 51.0146 41.8142 50.8899C41.923 50.7652 41.9774 50.5751 41.9774 50.3196C41.9774 50.0787 41.9224 49.8966 41.8124 49.7731C41.7036 49.6484 41.5679 49.5861 41.4053 49.5861C41.2402 49.5861 41.1033 49.6478 40.9945 49.7713C40.8857 49.8947 40.8313 50.0812 40.8313 50.3306Z" fill="#FBFBFB"/>
<path d="M42.5826 50.3306C42.5826 49.9699 42.6828 49.7028 42.8833 49.5292C43.0508 49.3849 43.255 49.3128 43.4958 49.3128C43.7635 49.3128 43.9824 49.4008 44.1523 49.5769C44.3222 49.7517 44.4072 49.9938 44.4072 50.3031C44.4072 50.5537 44.3693 50.7511 44.2935 50.8954C44.2189 51.0384 44.1095 51.1497 43.9653 51.2291C43.8222 51.3086 43.6657 51.3483 43.4958 51.3483C43.2232 51.3483 43.0025 51.2609 42.8338 51.0861C42.6663 50.9113 42.5826 50.6594 42.5826 50.3306ZM42.9218 50.3306C42.9218 50.58 42.9762 50.767 43.085 50.8917C43.1938 51.0152 43.3308 51.0769 43.4958 51.0769C43.6596 51.0769 43.7959 51.0146 43.9047 50.8899C44.0136 50.7652 44.068 50.5751 44.068 50.3196C44.068 50.0787 44.0129 49.8966 43.9029 49.7731C43.7941 49.6484 43.6584 49.5861 43.4958 49.5861C43.3308 49.5861 43.1938 49.6478 43.085 49.7713C42.9762 49.8947 42.9218 50.0812 42.9218 50.3306Z" fill="#FBFBFB"/>
<path d="M46.0595 51.3043V51.0586C45.936 51.2518 45.7545 51.3483 45.5148 51.3483C45.3596 51.3483 45.2165 51.3056 45.0857 51.22C44.9561 51.1344 44.8553 51.0152 44.7831 50.8624C44.7122 50.7083 44.6768 50.5317 44.6768 50.3324C44.6768 50.138 44.7092 49.962 44.774 49.8043C44.8388 49.6453 44.936 49.5237 45.0655 49.4393C45.1951 49.355 45.34 49.3128 45.5002 49.3128C45.6175 49.3128 45.7221 49.3379 45.8137 49.388C45.9054 49.4369 45.98 49.5011 46.0375 49.5806V48.616H46.3657V51.3043H46.0595ZM45.016 50.3324C45.016 50.5818 45.0686 50.7682 45.1737 50.8917C45.2789 51.0152 45.403 51.0769 45.546 51.0769C45.6903 51.0769 45.8125 51.0183 45.9128 50.9009C46.0142 50.7823 46.065 50.602 46.065 50.3599C46.065 50.0934 46.0136 49.8978 45.9109 49.7731C45.8082 49.6484 45.6817 49.5861 45.5313 49.5861C45.3846 49.5861 45.2618 49.646 45.1627 49.7658C45.0649 49.8856 45.016 50.0745 45.016 50.3324Z" fill="#FBFBFB"/>
<path d="M24.8208 55.8309L24.1074 53.1426H24.4723L24.8813 54.9049C24.9253 55.0895 24.9632 55.2729 24.995 55.455C25.0634 55.1677 25.1038 55.0021 25.116 54.958L25.6276 53.1426H26.0568L26.4419 54.5033C26.5384 54.8407 26.6081 55.1579 26.6509 55.455C26.6851 55.2851 26.7298 55.0901 26.7848 54.87L27.2066 53.1426H27.5642L26.827 55.8309H26.484L25.9174 53.7826C25.8697 53.6114 25.8416 53.5063 25.833 53.4672C25.8049 53.5906 25.7786 53.6958 25.7542 53.7826L25.1839 55.8309H24.8208Z" fill="#FBFBFB"/>
<path d="M27.8576 53.5222V53.1426H28.1876V53.5222H27.8576ZM27.8576 55.8309V53.8834H28.1876V55.8309H27.8576Z" fill="#FBFBFB"/>
<path d="M29.4126 55.5357L29.4603 55.8273C29.3674 55.8468 29.2843 55.8566 29.2109 55.8566C29.0911 55.8566 28.9982 55.8377 28.9322 55.7998C28.8662 55.7619 28.8197 55.7124 28.7928 55.6512C28.7659 55.5889 28.7525 55.4587 28.7525 55.2606V54.1402H28.5104V53.8834H28.7525V53.4011L29.0807 53.2031V53.8834H29.4126V54.1402H29.0807V55.279C29.0807 55.3731 29.0862 55.4336 29.0972 55.4605C29.1094 55.4874 29.1284 55.5088 29.1541 55.5247C29.181 55.5406 29.2189 55.5485 29.2678 55.5485C29.3044 55.5485 29.3527 55.5443 29.4126 55.5357Z" fill="#FBFBFB"/>
<path d="M29.7372 55.8309V53.1426H30.0673V54.1072C30.2213 53.9287 30.4157 53.8394 30.6505 53.8394C30.7947 53.8394 30.92 53.8682 31.0264 53.9256C31.1327 53.9819 31.2085 54.0601 31.2538 54.1603C31.3002 54.2606 31.3235 54.4061 31.3235 54.5968V55.8309H30.9934V54.5968C30.9934 54.4317 30.9573 54.3119 30.8852 54.2374C30.8143 54.1616 30.7134 54.1237 30.5826 54.1237C30.4848 54.1237 30.3925 54.1493 30.3057 54.2007C30.2201 54.2508 30.159 54.3193 30.1223 54.4061C30.0856 54.4929 30.0673 54.6127 30.0673 54.7655V55.8309H29.7372Z" fill="#FBFBFB"/>
<path d="M31.8296 53.5222V53.1426H32.1597V53.5222H31.8296ZM31.8296 55.8309V53.8834H32.1597V55.8309H31.8296Z" fill="#FBFBFB"/>
<path d="M32.664 55.8309V53.8834H32.9611V54.1603C33.1041 53.9464 33.3107 53.8394 33.5809 53.8394C33.6982 53.8394 33.8058 53.8608 33.9036 53.9036C34.0027 53.9452 34.0766 54.0002 34.1255 54.0687C34.1744 54.1371 34.2087 54.2184 34.2282 54.3125C34.2404 54.3737 34.2465 54.4806 34.2465 54.6335V55.8309H33.9165V54.6463C33.9165 54.5118 33.9036 54.4116 33.878 54.3456C33.8523 54.2783 33.8064 54.2251 33.7404 54.186C33.6756 54.1457 33.5992 54.1255 33.5112 54.1255C33.3706 54.1255 33.249 54.1701 33.1463 54.2594C33.0448 54.3486 32.9941 54.5179 32.9941 54.7673V55.8309H32.664Z" fill="#FBFBFB"/>
<path d="M35.8475 55.8309V53.1426H37.0394C37.2791 53.1426 37.4612 53.167 37.5859 53.2159C37.7106 53.2636 37.8103 53.3486 37.8848 53.4708C37.9594 53.5931 37.9967 53.7282 37.9967 53.8761C37.9967 54.0668 37.935 54.2276 37.8115 54.3584C37.688 54.4892 37.4973 54.5723 37.2393 54.6078C37.3335 54.653 37.405 54.6976 37.4539 54.7417C37.5578 54.837 37.6562 54.9562 37.7491 55.0993L38.2167 55.8309H37.7693L37.4135 55.2716C37.3096 55.1103 37.224 54.9868 37.1568 54.9012C37.0896 54.8156 37.029 54.7557 36.9753 54.7215C36.9227 54.6873 36.8689 54.6634 36.8139 54.65C36.7735 54.6414 36.7075 54.6371 36.6158 54.6371H36.2032V55.8309H35.8475ZM36.2032 54.3291H36.9679C37.1305 54.3291 37.2577 54.3125 37.3494 54.2795C37.441 54.2453 37.5107 54.1915 37.5584 54.1182C37.6061 54.0436 37.6299 53.9629 37.6299 53.8761C37.6299 53.749 37.5835 53.6444 37.4906 53.5625C37.3989 53.4806 37.2534 53.4397 37.0541 53.4397H36.2032V54.3291Z" fill="#FBFBFB"/>
<path d="M39.847 55.2038L40.1881 55.246C40.1343 55.4452 40.0347 55.5999 39.8892 55.7099C39.7437 55.8199 39.5579 55.875 39.3317 55.875C39.0469 55.875 38.8207 55.7875 38.6532 55.6127C38.4869 55.4367 38.4038 55.1903 38.4038 54.8737C38.4038 54.5461 38.4881 54.2918 38.6569 54.1108C38.8256 53.9299 39.0444 53.8394 39.3134 53.8394C39.5738 53.8394 39.7865 53.9281 39.9515 54.1053C40.1166 54.2826 40.1991 54.532 40.1991 54.8535C40.1991 54.8731 40.1985 54.9024 40.1973 54.9415H38.7449C38.7571 55.1555 38.8176 55.3193 38.9264 55.433C39.0352 55.5467 39.1709 55.6035 39.3335 55.6035C39.4546 55.6035 39.5579 55.5718 39.6434 55.5082C39.729 55.4446 39.7969 55.3431 39.847 55.2038ZM38.7632 54.6701H39.8507C39.836 54.5063 39.7944 54.3835 39.726 54.3015C39.6208 54.1744 39.4845 54.1108 39.317 54.1108C39.1654 54.1108 39.0377 54.1616 38.9338 54.263C38.8311 54.3645 38.7742 54.5002 38.7632 54.6701Z" fill="#FBFBFB"/>
<path d="M41.8752 55.5907C41.7529 55.6946 41.635 55.768 41.5213 55.8108C41.4088 55.8536 41.2878 55.875 41.1582 55.875C40.9442 55.875 40.7798 55.823 40.6649 55.7191C40.55 55.6139 40.4925 55.4801 40.4925 55.3175C40.4925 55.2221 40.5139 55.1353 40.5567 55.0571C40.6007 54.9776 40.6575 54.914 40.7272 54.8664C40.7981 54.8187 40.8776 54.7826 40.9656 54.7582C41.0304 54.741 41.1282 54.7245 41.259 54.7087C41.5255 54.6769 41.7218 54.639 41.8477 54.595C41.8489 54.5497 41.8495 54.521 41.8495 54.5088C41.8495 54.3743 41.8183 54.2795 41.756 54.2245C41.6716 54.15 41.5463 54.1127 41.3801 54.1127C41.2248 54.1127 41.1099 54.1402 41.0353 54.1952C40.962 54.249 40.9076 54.3449 40.8721 54.4831L40.5494 54.4391C40.5787 54.3009 40.627 54.1897 40.6942 54.1053C40.7615 54.0197 40.8587 53.9543 40.9858 53.9091C41.1129 53.8627 41.2603 53.8394 41.4277 53.8394C41.594 53.8394 41.7291 53.859 41.833 53.8981C41.9369 53.9372 42.0133 53.9867 42.0622 54.0466C42.1111 54.1053 42.1454 54.1799 42.1649 54.2704C42.1759 54.3266 42.1814 54.4281 42.1814 54.5748V55.0149C42.1814 55.3218 42.1882 55.5161 42.2016 55.598C42.2163 55.6787 42.2444 55.7564 42.286 55.8309H41.9412C41.907 55.7625 41.885 55.6824 41.8752 55.5907ZM41.8477 54.8535C41.7279 54.9024 41.5482 54.944 41.3085 54.9782C41.1728 54.9978 41.0769 55.0198 41.0206 55.0442C40.9644 55.0687 40.921 55.1048 40.8904 55.1524C40.8599 55.1989 40.8446 55.2508 40.8446 55.3083C40.8446 55.3963 40.8776 55.4697 40.9436 55.5284C41.0109 55.587 41.1087 55.6164 41.237 55.6164C41.3642 55.6164 41.4773 55.5889 41.5763 55.5339C41.6753 55.4776 41.7481 55.4012 41.7945 55.3046C41.83 55.2301 41.8477 55.12 41.8477 54.9746V54.8535Z" fill="#FBFBFB"/>
<path d="M43.9657 55.1176L44.2903 55.1598C44.2549 55.3835 44.1638 55.5589 44.0171 55.6861C43.8716 55.812 43.6925 55.875 43.4798 55.875C43.2133 55.875 42.9987 55.7882 42.8361 55.6146C42.6747 55.4397 42.594 55.1897 42.594 54.8645C42.594 54.6542 42.6289 54.4703 42.6986 54.3125C42.7683 54.1548 42.874 54.0369 43.0158 53.9586C43.1589 53.8792 43.3141 53.8394 43.4816 53.8394C43.6931 53.8394 43.8661 53.8932 44.0006 54.0008C44.1351 54.1072 44.2212 54.2588 44.2591 54.4556L43.9382 54.5051C43.9077 54.3743 43.8533 54.2759 43.775 54.2099C43.698 54.1438 43.6045 54.1108 43.4944 54.1108C43.3282 54.1108 43.1931 54.1707 43.0892 54.2905C42.9853 54.4091 42.9333 54.5974 42.9333 54.8554C42.9333 55.117 42.9834 55.3071 43.0837 55.4257C43.1839 55.5443 43.3147 55.6035 43.4761 55.6035C43.6057 55.6035 43.7139 55.5638 43.8007 55.4844C43.8875 55.4049 43.9425 55.2826 43.9657 55.1176Z" fill="#FBFBFB"/>
<path d="M44.5727 55.8309V53.1426H44.9028V54.1072C45.0569 53.9287 45.2512 53.8394 45.486 53.8394C45.6302 53.8394 45.7555 53.8682 45.8619 53.9256C45.9683 53.9819 46.0441 54.0601 46.0893 54.1603C46.1357 54.2606 46.159 54.4061 46.159 54.5968V55.8309H45.8289V54.5968C45.8289 54.4317 45.7928 54.3119 45.7207 54.2374C45.6498 54.1616 45.5489 54.1237 45.4181 54.1237C45.3203 54.1237 45.228 54.1493 45.1412 54.2007C45.0556 54.2508 44.9945 54.3193 44.9578 54.4061C44.9212 54.4929 44.9028 54.6127 44.9028 54.7655V55.8309H44.5727Z" fill="#FBFBFB"/>
</svg>
