<svg width="64" height="64" viewBox="0 0 64 64" fill="none" xmlns="http://www.w3.org/2000/svg">
<rect width="64" height="64" rx="32" fill="#3C8FB7"/>
<path opacity="0.99" fill-rule="evenodd" clip-rule="evenodd" d="M31.9472 6.16489C17.6057 6.16489 5.97959 17.791 5.97959 32.1325C5.97959 46.474 17.6057 58.1001 31.9472 58.1001C46.2887 58.1001 57.9148 46.474 57.9148 32.1325C57.9148 17.791 46.2887 6.16489 31.9472 6.16489ZM5.37695 32.1325C5.37695 17.4582 17.2729 5.56226 31.9472 5.56226C46.6215 5.56226 58.5174 17.4582 58.5174 32.1325C58.5174 46.8068 46.6215 58.7027 31.9472 58.7027C17.2729 58.7027 5.37695 46.8068 5.37695 32.1325Z" fill="#FBFBFB"/>
<path d="M34.954 29.5349V47.849H36.6082V29.5349H34.954ZM17.4323 29.5922L16.8809 31.2765H14.9766L16.5042 32.4396L15.9016 34.3259L17.4293 33.1598L18.966 34.2867L18.4086 32.4517L19.9152 31.2886H18.0048L17.4323 29.5922ZM27.8127 29.6916V47.9485H29.47V29.6916H27.8127ZM25.4655 31.6502V47.849H27.1076V31.6502H25.4655ZM37.3856 31.6502V47.849H39.0429V31.6502H37.3856ZM39.7479 33.5213V46.9842H41.4052V33.5213H39.7479ZM23.076 33.5394V46.9993H24.7332V33.5394H23.076ZM30.2444 34.2596V47.8189H31.9016V34.2596H30.2444ZM32.5766 34.2596V47.8189H34.2007V34.2596H32.5766Z" fill="#FBFBFB"/>
<path d="M30.0602 7.76221L27.8847 8.06353L28.3126 11.1761L30.5303 10.8748L30.4911 10.5283L28.6591 10.7573L28.5476 9.69365L30.2169 9.47671L30.1566 9.11512L28.4753 9.34714L28.3457 8.33772L30.0994 8.10873L30.0602 7.76221ZM31.5849 7.77727L31.5487 10.917H31.9645L31.9947 8.44017L33.5344 10.9622H34.0105L34.0557 7.81946H33.6579L33.6158 10.3535L32.1092 7.77727H31.5849ZM34.9807 7.84658L34.9265 8.18104L35.948 8.3528L35.5291 11.1309L35.948 11.2033L36.3939 8.44017L37.3611 8.5848L37.4154 8.2383L34.9807 7.84658ZM26.5016 8.2654L25.899 8.44017L25.8146 11.2213L24.2418 8.9494L23.6391 9.10609L24.5431 12.1193L24.974 12.0018L24.2538 9.63941L25.7785 11.7486L26.1672 11.6311L26.2696 9.00062L26.9898 11.4112L27.4086 11.2696L26.5016 8.2654ZM39.8199 9.05787L39.5789 9.08801L39.4282 9.13019L39.2323 9.23264L39.0546 9.34714L38.8858 9.47671L38.696 9.69365L38.5785 9.86241L38.479 10.0974L38.3947 10.456L38.3796 10.6428V10.9743L38.4188 11.3087L38.4911 11.5227L38.6357 11.7517L38.7201 11.8782L38.8376 11.9686L38.9551 12.068L39.0998 12.1404L39.3438 12.2247L39.5457 12.282L39.7868 12.3151H40.061L40.2869 12.2639L40.6455 12.1072L40.9468 11.8903L41.1337 11.6311L41.2662 11.4262L41.3355 11.3027L41.3627 11.2153L41.3958 11.1249L41.45 10.7242L41.4681 10.5374L41.45 10.2631L41.4229 10.1185L41.3355 9.88951L41.2331 9.68764L41.0493 9.4978L40.8866 9.35919L40.7148 9.25374L40.4135 9.10911L40.067 9.05186L39.8199 9.05787ZM22.7291 9.33208L20.4813 10.3716L20.644 10.6729L21.6052 10.23L22.8105 12.7611L23.1992 12.5743L21.9939 10.0402L22.8979 9.62134L22.7291 9.33208ZM39.7747 9.44958H40.076L40.2719 9.47671L40.4346 9.54902L40.534 9.59423L40.6636 9.69365L40.8354 9.89555L40.9529 10.1246L40.992 10.224L41.0252 10.4711L40.992 10.8447L40.9197 11.0315L40.8354 11.2635L40.7058 11.4654L40.5611 11.6372L40.3171 11.824L40.1604 11.9114L40.0429 11.9385L39.8139 11.9686H39.6964L39.4824 11.9114L39.4222 11.8782L39.2384 11.7788L39.0817 11.6613L38.9762 11.5709L38.8918 11.4262L38.8195 11.3027V11.1852L38.7743 11.0255V10.6217L38.8195 10.4048L38.8768 10.2481L38.9491 10.1185L39.0606 9.91664L39.1932 9.75693L39.38 9.61532L39.4794 9.54299L39.6361 9.47068L39.7807 9.44357L39.7747 9.44958ZM42.6855 10.224L41.1909 12.9901L41.5525 13.1648L42.2184 11.9234L43.5412 12.6436L43.7129 12.3151L42.3962 11.61L42.8813 10.7061L44.3668 11.5166L44.5355 11.2153L42.6975 10.224H42.6855ZM19.4839 10.9893L19.273 11.0315L19.0982 11.1309L17.7453 11.9626L19.4327 14.6112L19.7732 14.4093L19.029 13.2582L19.9178 12.7098L20.1529 12.6375H20.2523H20.3517L20.4542 12.6978L20.5837 12.8153L21.0297 13.418L21.1472 13.5355L21.5781 13.2341L21.5058 13.1498H21.4214L21.3642 13.1166L21.2195 13.0172L21.0297 12.7159L20.873 12.4688L20.6832 12.297L20.4662 12.2277L20.2794 12.2127L20.3698 12.05V11.8812V11.7818V11.607L20.3517 11.5197L20.2372 11.3178L20.1077 11.1912L19.8064 11.0164L19.6225 10.9592L19.4839 10.9893ZM19.5442 11.4202H19.6617L19.7612 11.4654L19.8304 11.5377L19.8907 11.598L19.9751 11.7215L20.0022 11.8119V12.0289L19.948 12.2006L19.8757 12.2699L19.8184 12.3422L19.7732 12.3573L18.8692 12.9358L18.2907 12.068L19.1103 11.5377L19.273 11.4654L19.4176 11.4323L19.5442 11.4202ZM46.1536 12.1404L44.2824 14.6744L44.6289 14.9155L45.4365 13.7795L46.7322 14.7136L45.8975 15.8526L46.241 16.0967L48.0851 13.5626L47.7506 13.3185L46.9612 14.3731L45.7107 13.4692L46.47 12.4025L46.1687 12.1554L46.1536 12.1404ZM15.7205 13.5536L15.3288 13.8549L16.4286 17.0097L16.8022 16.7083L16.4557 15.8044L17.3777 15.0692L18.2395 15.5603L18.6011 15.259L15.7205 13.5596V13.5536ZM15.8802 14.114L17.0613 14.8492L16.3111 15.4519L15.8802 14.114ZM29.4696 14.9758L27.8154 16.2142V28.8695H29.4696V14.9758ZM34.9536 15.1355V28.9117H36.6229V16.3588L34.9536 15.1204V15.1355ZM49.224 15.2319L49.0071 15.265L48.8052 15.3223L48.5431 15.4368L48.5039 15.4669L48.4316 15.5212L48.2418 15.6839L48.0399 15.8948L47.9284 16.0243L47.7265 16.3859L47.6542 16.5276L47.609 16.7053L47.5819 16.8349V17.0519V17.2085L47.615 17.3381L47.6994 17.5551L47.7717 17.6997L47.8832 17.8232L47.9886 17.9407L48.1453 18.0854L48.29 18.1969L48.5913 18.3415L48.8926 18.4439H49.1276L49.3566 18.4168L49.5856 18.3716L49.6579 18.3264L49.9322 18.1999L50.1732 18.0251L50.3058 17.8805L50.5077 17.6394L50.6191 17.4797L50.7367 17.2326L50.7819 17.0759L50.8361 16.859V16.6903L50.8331 16.4824L50.7879 16.3528L50.7156 16.1509L50.6583 16.0183L50.5438 15.8616L50.3751 15.6778L50.1129 15.4428L49.8839 15.3434L49.6821 15.2711L49.453 15.2259L49.224 15.2319ZM13.8011 15.4097L13.5721 15.4669L13.4606 15.5392L13.3009 15.6959L12.3758 16.7837L14.8075 18.7965L15.0546 18.4952L14.018 17.6454L14.708 16.7957L14.8075 16.6782L14.8527 16.5185L14.8798 16.3769V16.2443L14.8376 16.1148L14.7352 15.8858L14.5905 15.6869L14.4911 15.6025L14.3163 15.485L14.0873 15.4127H13.9307L13.8011 15.4097ZM49.2361 15.6387H49.4681L49.7423 15.6959L49.9563 15.8104L50.0738 15.9129L50.116 15.94L50.2576 16.1117L50.363 16.3136L50.4022 16.4552L50.4353 16.6601V16.8168L50.3751 17.0338L50.348 17.1633L50.2305 17.3652L50.134 17.4767L49.8568 17.7268L49.67 17.8835L49.3958 17.9829L49.1397 18.0402H48.9499L48.7239 17.989L48.5069 17.9046L48.3894 17.7871L48.305 17.7027L48.2598 17.6756L48.1333 17.4858L48.061 17.314L48.0037 17.1392V16.7927L48.061 16.6631L48.1755 16.3618L48.3894 16.0605L48.6365 15.8586L48.8926 15.7019L49.0824 15.6477L49.2391 15.6025L49.2361 15.6387ZM13.9035 15.8225L14.0301 15.8526L14.1476 15.9129H14.2199L14.3193 16.0274L14.4097 16.1841L14.4369 16.2865V16.4191L14.4218 16.5878L13.7438 17.4104L12.9544 16.7325L13.5721 15.9701L13.6564 15.8858L13.7288 15.8405L13.9035 15.7953V15.8225ZM27.0289 16.6752L25.4018 17.9166V30.9155H27.0289V16.6752ZM37.3371 16.6933V30.9456H38.9792V17.9287L37.3371 16.6933ZM11.3604 17.7841L10.3239 19.7004L13.0749 21.1829L14.1536 19.2243L13.8222 19.0797L12.9604 20.6647L12.0203 20.1615L12.8459 18.694L12.5114 18.5042L11.7069 19.9837L10.824 19.4955L11.6738 17.9528L11.3604 17.7841ZM52.3246 17.8714L50.4806 19.14L50.3811 19.2243L50.2515 19.4262L50.137 19.6311L50.0918 19.827V20.062L50.119 20.2729L50.2515 20.5743L50.4384 20.8756L50.6824 21.0895L50.9446 21.2613L51.1404 21.3185L51.3574 21.3456L51.5472 21.3185L51.6497 21.2914L51.8666 21.1769L53.6926 19.9083L53.4636 19.5618L51.6195 20.8153L51.3875 20.9148L51.1856 20.9298L51.1133 20.9148L50.9265 20.8575L50.7999 20.7581L50.6945 20.6707L50.5709 20.4959L50.4986 20.3664L50.4534 20.2398L50.4384 20.0048L50.4806 19.821L50.5257 19.7366L50.6523 19.5799L50.7397 19.5197L52.5807 18.2662L52.3246 17.8714ZM24.6184 18.3746L22.9913 19.6131V32.9313H24.6184V18.3746ZM39.7657 18.4921V33.0036H41.4078V19.7155L39.7657 18.4921ZM10.1792 21.0684L9.96228 21.1106L9.7604 21.1679L9.60371 21.2402L9.441 21.3426L9.26925 21.5144L9.15776 21.7042L9.06737 21.8428L8.60936 23.0119L11.5743 24.1328L12.0173 22.9667L12.0896 22.6353V22.4183L12.0504 22.2044L12.0052 22.0778L11.8877 21.9031L11.7431 21.7434L11.4146 21.4421L10.9114 21.1859L10.6523 21.1136L10.4082 21.0534L10.1792 21.0684ZM31.9796 21.1407H31.7898H31.6451L31.4553 21.2131L31.2986 21.2974L31.1299 21.43L30.925 21.6168L30.8406 21.7615L30.7502 21.9181L30.696 22.0899L30.6508 22.2466V22.4635H31.5849L30.2892 23.9068V33.3652H34.0466V23.4308L33.0553 21.8609L32.983 21.7313L32.8805 21.5716L32.748 21.4149L32.6063 21.3125L32.4346 21.2402L32.3321 21.1829L32.1604 21.1558L31.9796 21.1407ZM53.7197 21.2703L53.5178 21.3245L53.3009 21.4421L53.2105 21.5023L53.1141 21.6439L53.0418 21.8036L52.9966 22.0598V22.2466L53.2014 23.0842L53.2436 23.2409L53.2165 23.4729L53.1743 23.5874L53.0869 23.702L52.9966 23.7592L52.9242 23.7893H52.8007H52.6952L52.4994 23.7049L52.3547 23.5874L52.192 23.4157L52.1077 23.2409L52.0655 23.0842L52.0353 22.8793V22.7377L52.0926 22.5208L52.192 22.4033L52.3547 22.2315L52.4391 22.1863L52.2493 21.8277L52.1257 21.9001L52.0203 21.9724L51.8515 22.1471L51.7792 22.2315L51.6888 22.4485L51.6346 22.6775V22.81L51.6617 23.027L51.734 23.256L51.8184 23.488L51.948 23.6869L52.0926 23.8616L52.2824 24.0213L52.4662 24.1328L52.6681 24.2051L52.873 24.2504L52.9845 24.2172L53.2014 24.163L53.3159 24.1057L53.4757 23.9882L53.56 23.8436L53.6504 23.6869L53.6775 23.4308L53.6625 23.0993L53.4606 22.1743V21.9724L53.4877 21.8609L53.56 21.7434H53.6323L53.7619 21.6831H53.8794L53.9969 21.7163L54.1687 21.8157L54.2651 21.9001L54.3826 22.0447L54.47 22.2466L54.5423 22.5027L54.5152 22.6925L54.482 22.807L54.4549 22.8492L54.3826 22.9396L54.2832 23.024L54.2259 23.0511L54.4489 23.4127L54.5785 23.3223L54.696 23.2349L54.7954 23.1174L54.8527 23.0059L54.9099 22.8613V22.5599V22.3972L54.8677 22.2255L54.7532 21.9242L54.6809 21.8066L54.479 21.5505L54.3615 21.436L54.2048 21.3366L54.0753 21.2763L53.8312 21.2492L53.7197 21.2703ZM10.1762 21.5716H10.3811L10.6101 21.6108L11.0139 21.7554L11.1977 21.8549L11.3694 21.9844L11.5713 22.2014L11.6436 22.346L11.7039 22.5027V22.5931L11.6768 22.7498L11.3303 23.6146L9.11256 22.792L9.41387 22.0176L9.51331 21.8428L9.65794 21.7163L9.80259 21.6259L9.97734 21.5867L10.1762 21.5716ZM55.8199 24.4914L52.8067 25.3743L52.9092 25.7449L55.9224 24.865L55.8199 24.4914ZM10.3811 25.7148L10.2757 26.1788L10.7216 26.3053L10.8542 25.8323L10.3811 25.7148ZM8.27189 25.9618L8.08809 26.004L7.91332 26.0733L7.74156 26.233L7.55173 26.5072L7.42217 26.8387V26.8989L7.39506 27.1129V27.2846V27.5317L7.42217 27.6763L7.53968 27.8752L7.67226 28.0168L7.88619 28.1494L7.94044 28.1765L8.17546 28.2338H8.3894L8.54909 28.1765L8.67866 28.0771L8.8233 27.9596L8.93479 27.821L9.23611 27.2183L9.30842 27.0315L9.44703 26.8296L9.62179 26.7121L9.74835 26.6549H9.8086L9.98337 26.685L10.0949 26.7453L10.1823 26.8296L10.2546 26.9471L10.2967 27.0586L10.3118 27.2756L10.2967 27.4051V27.5649L10.2124 27.7788L10.1401 27.8963L10.0557 28.0078L9.86585 28.1404L9.74835 28.1976L9.59166 28.2247H9.44703L9.36266 28.1976L9.2783 28.5863L9.51935 28.6436H9.66397L9.86585 28.5863L9.98337 28.5441L10.1823 28.4146L10.357 28.2579L10.4143 28.1675L10.574 27.8662L10.6704 27.5196L10.6885 27.2906L10.6704 27.0466L10.6312 26.8326L10.5288 26.6428L10.4022 26.4711L10.2395 26.3234L10.128 26.2511L9.91106 26.1848H9.70918L9.62179 26.224L9.39278 26.3114L9.30842 26.3535L9.13365 26.5253L9.03423 26.6699L8.71481 27.3057L8.54308 27.5799L8.4135 27.7366L8.35325 27.7547L8.23874 27.8089L8.18451 27.827L8.12424 27.8089L8.00974 27.7547L7.89524 27.6824L7.83799 27.5799L7.76567 27.4805L7.73253 27.3358L7.76567 27.0737L7.79278 26.8718L7.85003 26.7422L7.93743 26.6428L8.02179 26.5434L8.11218 26.4711L8.22368 26.4138L8.34118 26.3807L8.45267 26.3987H8.53101L8.61539 26.0131L8.51294 25.9799L8.27189 25.9618ZM56.3231 26.3174L53.2286 26.92L53.3129 27.3268L55.7747 26.8477L53.6143 28.8786L53.6866 29.3396L56.7962 28.7641L56.7088 28.3603L54.2229 28.8364L56.4225 26.8357L56.3231 26.3174ZM9.60069 29.4632L9.55249 29.9211L10.0406 29.9664L10.0677 29.5053L9.60069 29.4632ZM46.7562 29.7193L46.2139 31.4217H44.3156L45.8523 32.5728L45.2316 34.456L46.7562 33.2929L48.302 34.3988L47.7385 32.5728L49.2632 31.4217H47.3197L46.7562 29.7193ZM6.98223 29.8639V30.3099L9.212 30.4394L9.441 30.5117L9.55852 30.5841L9.67001 30.6684L9.74232 30.7739L9.78752 30.9155L9.84777 31.0601V31.1897V31.4217L9.79052 31.5513L9.73027 31.6809L9.6459 31.7803L9.56154 31.8797L9.42896 31.952L9.28733 32.0093L6.89787 31.8647L6.88281 32.3106L9.09749 32.4402H9.35662L9.57358 32.3558L9.68507 32.2835L9.86285 32.1389L10.0467 31.8767L10.0768 31.7773L10.1762 31.4579V31.1566V30.9396L10.137 30.8221L10.0647 30.6202L10.0195 30.5358L9.8749 30.346L9.81765 30.2737L9.67302 30.1622L9.57358 30.105L9.3717 30.0447H9.24514L7.00936 29.9001L6.98223 29.8639ZM55.4463 29.879L54.8436 29.9664L54.482 30.1261L54.2802 30.2496L54.0512 30.4846L53.9065 30.6684L53.8222 30.8583L53.7649 31.1777L53.7378 31.3946L53.777 31.5905L53.8222 31.8255L53.9065 32.0424L54.1385 32.3257L54.3133 32.5004L53.9517 32.5999L53.9789 32.9012L55.6542 32.7535L55.5276 31.4308H55.163L55.2534 32.4251L55.0937 32.4402L54.8346 32.4251L54.7321 32.3679L54.5333 32.2684L54.464 32.1961L54.3043 32.0063L54.2741 31.934L54.1747 31.6778L54.1446 31.5031V31.2017L54.1747 31.0842L54.247 30.9125L54.3465 30.7106L54.4188 30.6383L54.5604 30.5208L54.9069 30.3792L55.3257 30.3068H55.6271H55.7566L56.1031 30.4244L56.308 30.569L56.4316 30.6865L56.519 30.8161L56.5913 31.0149L56.6485 31.1746L56.6817 31.3193V31.4639L56.6365 31.6929L56.5913 31.8104L56.4768 31.9942L56.3352 32.1509L56.1634 32.2564H56.1303L56.1634 32.6571L56.3201 32.6149L56.4195 32.5848L56.5913 32.4703L56.6817 32.4131L56.8052 32.2232L56.9107 32.0816L56.9951 31.8827L57.0523 31.5483V31.3072L57.0222 31.1325L56.9227 30.798L56.8504 30.6534L56.7208 30.4695L56.537 30.2526L56.3804 30.1381L56.1303 30.0055L55.7988 29.9061L55.4463 29.879ZM53.7709 35.1641L53.2677 37.5746L53.5992 37.647L53.8161 36.6225L56.5792 37.201L56.6696 36.752L53.9005 36.1886L54.1054 35.2274L53.7709 35.1641ZM7.32273 35.366L7.44024 35.83L8.3894 35.9023L8.6636 37.0534L7.88619 37.5987L7.99769 38.0628L10.7789 36.1856L10.6463 35.7004L7.32273 35.366ZM8.77508 35.9174L10.1883 36.0741L9.01012 36.8334L8.77508 35.9174ZM10.7065 37.8729L7.75363 38.9517L7.91332 39.3404L10.2455 38.4937L8.47376 40.8379L8.63045 41.2869L11.5683 40.175L11.4387 39.8164L9.04929 40.7204L10.8934 38.343L10.7065 37.885V37.8729ZM53.0779 38.1019L52.9514 38.4937L55.3619 39.2861L52.4813 39.9912L52.3246 40.4492L55.3197 41.4315L55.4463 41.0398L53.0508 40.2865L55.9163 39.5513L56.076 39.1084L53.0779 38.1019ZM11.7973 40.9102L9.10654 42.4801L9.70918 43.5769L9.81162 43.7336L9.95626 43.9053L10.1551 44.0349L10.2696 44.0952L10.4866 44.1343L10.7035 44.1524L10.9898 44.1343L11.2519 44.05L11.4538 43.9777H11.5261L11.5804 43.9355L11.7823 43.836L11.9992 43.6763L12.2282 43.4745L12.3306 43.3569L12.403 43.2153L12.5145 42.9712L12.5747 42.6699V42.5464L12.5476 42.3114L12.5024 42.2119L12.418 41.998L11.7823 40.9313L11.7973 40.9102ZM51.8726 41.2417L50.8783 43.1581L53.6836 44.5984L54.693 42.5976L54.3585 42.453L53.5269 44.05L52.5928 43.601L53.3702 42.0944L53.0056 41.9317L52.2463 43.4383L51.3423 42.9652L52.1378 41.4104L51.8365 41.2507L51.8726 41.2417ZM11.6979 41.4586L12.0986 42.1456L12.1288 42.2511L12.1559 42.3505L12.2011 42.5253V42.6097L12.1408 42.7814L12.0534 42.9562L11.8546 43.2002L11.493 43.4594L11.1073 43.6492L10.806 43.7336H10.6372L10.4625 43.7035L10.3028 43.6492L10.1852 43.5468L10.134 43.4594L9.67001 42.6368L11.6979 41.4586ZM50.2998 43.8481L49.9111 44.291L51.3634 46.6684L48.7841 45.6469L48.3984 46.111L50.809 48.1268L51.1103 47.7923L49.209 46.2285L51.6406 47.1596L51.9028 46.8311L50.5227 44.5803L52.4482 46.1833L52.7495 45.8639L50.2998 43.8481ZM14.4941 45.1287L12.7917 46.581L12.635 46.798L12.5777 46.8944L12.5054 47.1114L12.4783 47.2289V47.4458L12.5054 47.5302L12.5627 47.7652L12.6802 47.949L12.7917 48.1389L12.9544 48.2955L13.2105 48.4974L13.4003 48.5969L13.6022 48.6421H13.8011H13.9186L14.1024 48.5969L14.2048 48.5577L14.3917 48.4281L16.0911 46.9547L15.8169 46.6262L14.1024 48.0816L13.9035 48.2232L13.7619 48.2564H13.6293H13.4847L13.4274 48.2142L13.2436 48.1268L13.1834 48.0696L13.0418 47.9249L12.9242 47.7351L12.8971 47.6507L12.864 47.4488V47.3163L12.8971 47.1746L12.9694 47.0601L13.0809 46.9306L14.7804 45.4632L14.479 45.1317L14.4941 45.1287ZM48.0399 46.8673L47.8952 46.9276L47.829 46.9547L47.6662 47.0571L46.5724 48.0063L48.6455 50.3807L48.9468 50.1246L48.07 49.1001L48.8745 48.398L49.0191 48.2383L49.0915 48.0786L49.1186 47.946V47.8345V47.6899L49.0613 47.5151L48.9619 47.3313L48.8444 47.1535L48.6274 46.9848L48.4828 46.9246L48.2538 46.8522L48.0399 46.8673ZM48.1122 47.3132H48.2297L48.3472 47.3464L48.5159 47.4458L48.6154 47.5874L48.6757 47.7471V47.9942L48.6154 48.1509V48.181L47.8199 48.8711L47.1419 48.0786L47.847 47.4308L47.9193 47.3735L48.1031 47.3132H48.1122ZM16.8836 47.6326L14.8105 49.9829L15.1118 50.2662L16.0158 49.2568L16.8082 49.9498L16.9077 50.1125L16.9649 50.2963L16.9378 50.468L16.8655 50.6308L16.4105 51.134L16.3201 51.3208L16.6817 51.6522L16.751 51.595V51.4624L16.7962 51.3057L16.8534 51.2213L17.1819 50.8748L17.2873 50.7031L17.3446 50.6006L17.3717 50.3837L17.3446 50.1396L17.444 50.1848H17.6158L17.7725 50.1547L17.902 50.1004L18.0346 49.9829L18.1762 49.8534L18.2636 49.6967L18.3208 49.534L18.366 49.3773V49.2326L18.3208 49.088L18.2636 48.9313L18.1913 48.7987L18.0768 48.6842L16.8956 47.6206L16.8836 47.6326ZM16.9408 48.1961L17.676 48.856L17.8508 49.1001L17.905 49.2176V49.3893L17.89 49.4918L17.8629 49.5309L17.7453 49.7087L17.6338 49.778L17.5435 49.8052L17.3868 49.8383L17.2602 49.8202L17.1698 49.778L17.0854 49.7208H17.0583L16.2478 48.9825L16.9408 48.1961ZM45.4817 49.0428L45.1352 49.1121L45.09 49.1453H45.0177L44.9574 49.1905L44.7284 49.2899L44.5265 49.4617L44.3969 49.5792L44.2583 49.766L44.186 49.9106L44.0956 50.1125L44.0414 50.2541L44.0233 50.456L44.0414 50.8146L44.0685 50.9471L44.1257 51.134L44.186 51.2605L44.2402 51.378L44.3547 51.5347L44.5868 51.8089L44.7163 51.9415L44.9604 52.1283L45.1623 52.2277L45.4636 52.3121H45.7649H45.9095L46.1235 52.2609L46.3675 52.1554L46.4248 52.1102L46.6538 51.9415L46.7864 51.8089L46.8979 51.6793L47.0003 51.5347L47.1269 51.2605L47.16 51.1159L47.1871 50.8748V50.7423L47.16 50.4409L47.0998 50.2842L46.8979 49.8534L46.6237 49.5189L46.479 49.4074L46.2802 49.2447L46.0662 49.1332L45.9216 49.088H45.777L45.4817 49.0428ZM45.4365 49.4586H45.6504L45.8101 49.4918L46.0421 49.6033L46.1566 49.7087L46.3133 49.8202L46.4158 49.9498L46.5604 50.1969L46.7171 50.5856L46.7442 50.7151L46.7593 50.9321V51.0436L46.6719 51.3449L46.5875 51.4925L46.5303 51.592L46.3977 51.6914L46.2139 51.821L46.0843 51.8933L45.8824 51.9385L45.7107 51.9535L45.4094 51.8933L45.2647 51.836L45.1231 51.7637L44.8941 51.5648L44.7043 51.375L44.6892 51.3298L44.5596 51.1279L44.4753 50.8989L44.4421 50.7694L44.415 50.5856L44.4421 50.3807V50.2842L44.5024 50.1246L44.5747 49.9829L44.7163 49.778L44.9212 49.6213L45.1231 49.5038H45.1804L45.4244 49.4707L45.4365 49.4586ZM19.6045 49.778L17.9623 52.4568L19.2459 53.2341L19.3031 53.2733L19.4598 53.3185H19.5653H19.5924H19.8666L19.966 53.3035L20.0564 53.2613L20.1951 53.1739L20.3126 53.0714L20.3698 52.9841L20.4572 52.8424L20.5295 52.6978L20.5747 52.5682V52.3242L20.5446 52.2067L20.3849 51.9957H20.4723L20.6018 51.9656L20.7585 51.9114L20.8037 51.8933L20.9483 51.7938L20.9755 51.7366L21.1201 51.5197L21.1653 51.3901V51.146L21.108 50.8989L20.9755 50.682L20.8067 50.4982L19.6014 49.778H19.6045ZM19.7762 50.2662L20.409 50.6398L20.5416 50.7272L20.6259 50.8266L20.6982 50.9441L20.7163 51.0436L20.7435 51.146V51.2334L20.7163 51.3298L20.644 51.4624L20.4994 51.592L20.4271 51.6372L20.3517 51.6522H20.2523L20.1529 51.6372L20.0685 51.607L20.0233 51.5468L19.276 51.1008L19.7762 50.2662ZM42.2696 50.9321L41.8809 51.1279L43.276 53.9272L45.0297 53.0714L44.861 52.7309L43.505 53.4059L42.2696 50.9321ZM19.0681 51.4473L19.9721 51.9957L20.0896 52.1223L20.1288 52.2277L20.1559 52.3121L20.174 52.3965V52.4839L20.0986 52.6406L20.0263 52.74L19.9691 52.8123L19.8124 52.8997H19.6406H19.5563H19.4508L18.5167 52.3242L19.0681 51.4473ZM22.9099 51.5197L20.635 53.9814L21.0839 54.1562L21.7318 53.4631L22.8135 53.9091L22.7683 54.8703L23.1841 55.0752L23.389 51.7215L22.9099 51.5197ZM40.7932 51.5648L38.8045 52.3965L40.0097 55.3072L42.0647 54.4485L41.908 54.0899L40.2267 54.792L39.8199 53.8157L41.3928 53.1799L41.2482 52.8334L39.6843 53.4903L39.2986 52.5562L40.9077 51.8933L40.7781 51.5648H40.7932ZM22.9431 52.1404L22.8256 53.5234L21.9638 53.1437L22.9431 52.1404ZM24.5792 52.1946L23.7355 55.2078L24.1212 55.3253L24.7962 52.9147L25.664 55.7682L26.1069 55.8827L26.9597 52.8696L26.5559 52.7551L25.8809 55.2018L25.0613 52.3392L24.5792 52.1946ZM37.8915 52.6406L37.4606 52.743L37.1593 55.5061L35.719 53.0955L35.3032 53.195L37.0568 56.0334L37.4877 55.9309L37.8915 52.6406ZM34.7819 53.2432L32.6063 53.4149L32.8655 56.5396L35.1103 56.3709L35.0711 56.0063L33.2632 56.1539L33.1638 55.1023L34.8632 54.9697L34.8331 54.5961L33.1487 54.7227L33.0463 53.7012L34.818 53.5716L34.7909 53.2432H34.7819ZM29.2677 53.3155L29.1382 56.4462L30.3887 56.4854H30.5634L30.8798 56.401L31.0546 56.3166L31.1721 56.2292L31.3288 56.0876L31.4011 55.9701L31.5005 55.7682L31.5728 55.5814L31.6572 55.2168L31.6903 54.8703V54.5298L31.6602 54.3551L31.5879 54.1562L31.4764 53.9091L31.3438 53.7374L31.157 53.5807L30.8949 53.418L30.6779 53.3637L30.5212 53.3336L29.2708 53.3065L29.2677 53.3155ZM29.6534 53.6891L30.473 53.7193L30.6628 53.7464L30.8195 53.8338L30.9642 53.9633L31.0666 54.108L31.154 54.3098L31.1962 54.4937L31.2384 54.7227V54.9246L31.2112 55.2711L31.166 55.476L31.0817 55.6628L30.9943 55.8345L30.8918 55.952L30.7472 56.0515L30.6026 56.1087L29.557 56.0515L29.6534 53.6891Z" fill="#FBFBFB"/>
</svg>
