<svg width="64" height="64" viewBox="0 0 64 64" fill="none" xmlns="http://www.w3.org/2000/svg">
<rect width="64" height="64" rx="32" fill="#3C8FB7"/>
<path d="M33.1124 5.33325C33.4362 5.3624 33.76 5.39478 34.0838 5.41745C37.0698 5.62197 39.996 6.35436 42.7263 7.58059C49.8306 10.7994 54.6877 16.0885 57.2976 23.448C58.0316 25.5589 58.4781 27.7591 58.6252 29.9892C58.6252 30.0605 58.6544 30.1317 58.6673 30.2029V33.8006C58.6252 34.1892 58.5799 34.5778 58.5378 34.9664C58.2974 37.1826 57.775 39.359 56.9835 41.4429C55.4851 45.3909 53.0726 48.9277 49.9438 51.7634C46.815 54.5991 43.0588 56.6532 38.983 57.7571C37.256 58.2318 35.4835 58.5217 33.6953 58.6217C28.6341 58.8938 23.8223 57.9385 19.37 55.4742C12.5851 51.7308 8.18567 46.1027 6.17158 38.59C5.45063 35.8654 5.19232 33.039 5.4074 30.2288C5.83369 23.7222 8.63218 17.5981 13.2724 13.0173C17.9127 8.43652 24.0722 5.7174 30.5835 5.37535C30.7007 5.36771 30.8175 5.35366 30.9332 5.33325H33.1124ZM32.0179 58.3853C46.5472 58.3853 58.3824 46.5982 58.3921 32.1103C58.412 26.8895 56.882 21.7802 53.9961 17.4296C51.1102 13.079 46.9981 9.68275 42.1806 7.67105C37.3632 5.65936 32.0571 5.12269 26.9344 6.12903C21.8117 7.13536 17.1029 9.63943 13.4044 13.3241C9.70583 17.0087 7.18396 21.7082 6.15814 26.8272C5.13233 31.9463 5.64873 37.2547 7.64194 42.08C9.63515 46.9053 13.0155 51.0306 17.3548 53.9332C21.6942 56.8359 26.7973 58.3853 32.0179 58.3853Z" fill="#FBFBFB"/>
<path d="M6.68359 32.0032C6.68304 26.9851 8.17238 22.0798 10.9628 17.9092C13.7532 13.7386 17.7191 10.4905 22.3576 8.57656C26.9962 6.66265 32.0985 6.16915 37.0178 7.15864C41.9371 8.14813 46.4519 10.576 49.9898 14.1346C53.5277 17.6931 55.9294 22.2221 56.8904 27.1473C57.8515 32.0725 57.3286 37.1721 55.3881 41.7998C53.4475 46.4274 50.1767 50.3747 45.9903 53.1411C41.8039 55.9076 36.8903 57.3687 31.8726 57.3392C25.179 57.2998 18.7728 54.6133 14.0533 49.8662C9.33377 45.1191 6.68433 38.6973 6.68359 32.0032ZM7.0074 32.0032C7.00676 36.9535 8.47404 41.7928 11.2237 45.9091C13.9733 50.0254 17.8817 53.2339 22.4548 55.1287C27.0278 57.0235 32.0601 57.5196 36.9151 56.5543C41.7701 55.5889 46.2298 53.2054 49.7302 49.7053C53.2306 46.2051 55.6145 41.7455 56.5805 36.8904C57.5464 32.0353 57.051 27.0028 55.1569 22.4292C53.2627 17.8557 50.0549 13.9466 45.9392 11.1963C41.8234 8.44603 36.9845 6.97805 32.0345 6.97805C28.7474 6.97678 25.4922 7.62311 22.4548 8.88013C19.4175 10.1372 16.6575 11.9802 14.3325 14.3041C12.0076 16.628 10.1631 19.3872 8.90461 22.424C7.64609 25.4608 6.99812 28.7159 6.9977 32.0032H7.0074Z" fill="#FBFBFB"/>
<path d="M51.9455 32.0225C51.9441 35.9677 50.7717 39.8236 48.5767 43.1018C46.3818 46.3799 43.2631 48.9326 39.616 50.4364C35.9688 51.9402 31.9574 52.3273 28.09 51.5488C24.2226 50.7703 20.6733 48.8612 17.892 46.0634C15.1107 43.2655 13.2225 39.705 12.4667 35.8329C11.7109 31.9608 12.1216 27.9514 13.6467 24.313C15.1718 20.6746 17.7426 17.5708 21.0334 15.395C24.3242 13.2192 28.1867 12.0693 32.1316 12.0911C37.3989 12.1168 42.4413 14.2287 46.1549 17.9643C49.8685 21.7 51.9507 26.755 51.9455 32.0225ZM30.3248 40.0145C30.7037 40.1537 31.0825 40.2897 31.4614 40.4322C31.501 40.4505 31.5355 40.4783 31.5618 40.5132C31.639 40.5895 31.7317 40.6483 31.8335 40.6859C31.9354 40.7234 32.0441 40.7387 32.1524 40.7307C32.2607 40.7227 32.366 40.6917 32.4613 40.6396C32.5565 40.5876 32.6396 40.5158 32.7048 40.429C32.381 40.3707 32.096 40.3092 31.8046 40.2638C31.6751 40.2444 31.5391 40.2638 31.4128 40.2347C31.1278 40.1732 30.8461 40.0857 30.5579 40.0177C30.4804 40.0096 30.4023 40.0096 30.3248 40.0177C30.3248 39.9594 30.2957 39.8849 30.3248 39.8493C30.5612 39.5449 30.804 39.2503 31.0501 38.9426C31.3739 39.1596 31.6978 39.3474 31.9892 39.5708C32.342 39.8005 32.732 39.9671 33.1419 40.0631C33.165 40.0728 33.1898 40.0778 33.2148 40.0778C33.2398 40.0778 33.2646 40.0728 33.2877 40.0631C33.6438 39.8072 33.9968 39.5417 34.3821 39.2567C34.1878 39.0883 34.0583 38.8681 33.8543 38.8196C33.6254 38.8079 33.3964 38.842 33.1808 38.92C33.116 38.7904 33.0415 38.6544 32.98 38.5119C32.9734 38.4878 32.962 38.4652 32.9463 38.4457C32.9306 38.4263 32.911 38.4102 32.8888 38.3987C32.8666 38.3871 32.8422 38.3803 32.8172 38.3786C32.7923 38.3769 32.7672 38.3804 32.7436 38.3889C32.3454 38.4634 31.9406 38.5152 31.5391 38.5767C31.3617 38.5812 31.1884 38.6313 31.0359 38.722C30.8834 38.8127 30.7567 38.9411 30.668 39.0948C30.6221 39.1704 30.5713 39.2429 30.5158 39.3118L27.8347 43.094C27.7449 43.2059 27.6155 43.279 27.4733 43.2983C27.3311 43.3176 27.187 43.2816 27.0705 43.1977C26.97 43.0818 26.852 42.9824 26.7208 42.903C26.4837 42.8224 26.2399 42.7628 25.9923 42.7249C25.9653 42.7199 25.9376 42.7205 25.9109 42.7266C25.8841 42.7327 25.8589 42.7443 25.8368 42.7605C25.1892 43.311 24.5416 43.868 23.8713 44.4217C23.6026 44.6516 23.3338 44.8751 23.0521 45.1115C22.8643 44.425 22.6862 43.7708 22.4984 43.1167C22.4765 43.0638 22.4761 43.0045 22.4973 42.9513C22.5184 42.8981 22.5595 42.8552 22.6117 42.8317C22.8513 42.6698 23.0812 42.4885 23.3435 42.2942C22.9938 42.223 22.6959 42.1582 22.3883 42.0999C22.181 42.0611 22.0645 42.1614 22.0645 42.3816C22.0645 42.9872 22.0645 43.596 22.0936 44.2015C22.1161 44.5528 22.1681 44.9016 22.249 45.2442C22.3186 45.7416 22.4513 46.228 22.6441 46.6917C22.7034 46.8261 22.7893 46.9471 22.8968 47.0473C23.0042 47.1475 23.1308 47.2248 23.269 47.2746C24.3862 47.6859 25.4547 48.2461 26.6528 48.4274C27.1321 48.5019 27.6048 48.6671 28.0841 48.6962C29.1559 48.7577 30.2309 48.7513 31.3027 48.7901C31.6638 48.8105 32.0255 48.7666 32.3713 48.6606C32.8829 48.4922 33.3977 48.3368 33.9093 48.1651C34.2719 48.0658 34.6243 47.9324 34.9617 47.7668C35.396 47.5003 35.8165 47.2117 36.2213 46.9022C37.3191 46.0713 38.3638 45.1726 39.3493 44.2112L40.6802 42.9904C40.2107 42.8415 39.7768 42.7119 39.3461 42.5662C39.2889 42.5416 39.2257 42.5339 39.1643 42.5443C39.1028 42.5546 39.0457 42.5825 38.9996 42.6245C36.8172 44.2609 34.6304 45.893 32.4393 47.5207C32.3436 47.5881 32.232 47.6294 32.1155 47.6405C31.2056 47.6729 30.2957 47.6924 29.3858 47.7183H29.1623C31.2347 45.8109 33.524 44.2533 35.7356 42.5954C35.6753 42.5964 35.6159 42.6096 35.5608 42.6342C34.5894 43.0228 33.6179 43.4146 32.6465 43.8C32.5398 43.8268 32.4397 43.8751 32.3523 43.9419C32.2649 44.0087 32.192 44.0926 32.1381 44.1886C32.1057 44.2566 32.0054 44.2987 31.9244 44.3343C31.3157 44.5966 30.7037 44.8524 30.0917 45.1115L29.6966 45.2799L29.5898 45.0694C28.7964 45.6296 27.9934 46.1574 27.2357 46.7468C27.0401 46.9269 26.8025 47.0554 26.5447 47.1204C26.2868 47.1854 26.0168 47.185 25.7591 47.1192C25.2241 47.0084 24.6837 46.9251 24.1401 46.8698L24.3473 46.7112C26.0117 45.4763 27.6761 44.2436 29.3404 43.0131C29.3954 42.9805 29.4395 42.9323 29.4672 42.8747C29.4948 42.8171 29.5048 42.7526 29.4959 42.6893C29.4959 42.4788 29.4959 42.2651 29.4959 42.019C29.8197 42.019 30.1079 42.019 30.4025 42.019C30.5059 42.0324 30.611 42.0179 30.7069 41.9769C31.0501 41.7405 31.3837 41.4846 31.6783 41.258L29.3696 41.0119C29.6934 40.6556 29.9492 40.3351 30.2277 40.021C30.2341 40.0015 30.286 40.0145 30.3248 40.0145ZM45.0775 31.5659V32.2751H50.9578V32.5277H45.0354C45.071 32.7317 45.1066 32.9033 45.126 33.0782C45.1455 33.253 45.2362 33.2789 45.3916 33.2854C46.9815 33.3405 48.5714 33.4052 50.1613 33.47C50.4624 33.47 50.7635 33.5024 51.0809 33.5186L51.0582 33.755L45.2297 33.5218C45.2556 33.6351 45.2718 33.6999 45.2815 33.7647C45.2898 33.89 45.3362 34.0097 45.4142 34.1081C45.4923 34.2064 45.5985 34.2786 45.7186 34.3152C45.93 34.4033 46.1364 34.5028 46.3371 34.6131C47.1919 35.0503 48.0954 35.3838 48.8855 35.944C49.5007 36.3779 50.1321 36.7924 50.7571 37.2134C50.8154 37.2523 50.8801 37.2879 50.9449 37.3267C52.1121 33.18 51.8849 28.7646 50.2984 24.7595C48.7119 20.7544 45.8539 17.3813 42.1637 15.1588C38.4735 12.9364 34.1555 11.9876 29.8736 12.4584C25.5917 12.9291 21.583 14.7934 18.4637 17.7645C12.062 23.8654 11.4242 32.2589 13.2278 37.7283C14.5073 36.9474 15.8429 36.2622 17.2235 35.6785C18.6192 35.128 19.9532 34.422 21.433 34.0594C21.2994 34.0479 21.1651 34.0479 21.0315 34.0594L17.651 34.3411C16.3557 34.4544 15.0605 34.571 13.7653 34.6811C13.5062 34.7038 13.4415 34.6163 13.4933 34.3573C13.8754 34.3249 14.2575 34.2893 14.6396 34.2634L17.8485 34.0237C19.1437 33.9266 20.4616 33.8327 21.7633 33.7193C22.2608 33.7289 22.757 33.6667 23.2367 33.5348C23.5167 33.4422 23.8036 33.3718 24.0948 33.3243C24.4186 33.2498 24.7715 33.1818 25.1083 33.1105V33.0749L13.5159 33.2627V33.0166L24.901 32.8256C24.8754 32.643 24.8754 32.4577 24.901 32.2751C24.9302 32.1682 25.0921 32.097 25.2248 31.9901C24.901 31.9577 24.6031 31.9189 24.302 31.8962C24.108 31.8637 23.9099 31.8637 23.7159 31.8962C23.3106 32.0171 22.8831 32.0437 22.466 31.9739C22.4302 31.9669 22.3966 31.9518 22.3674 31.93C22.3383 31.9081 22.3144 31.88 22.2976 31.8476C22.2807 31.7766 22.2386 31.714 22.179 31.6717C22.1194 31.6294 22.0465 31.6102 21.9738 31.6177C21.8184 31.6177 21.65 31.5886 21.5108 31.5724L18.8652 31.2874L15.7567 30.9636L13.6099 30.7272L13.6325 30.4876L20.7239 31.255V31.2L19.8043 30.5264L21.9738 29.4546C21.5431 29.2991 21.174 29.1567 20.7984 29.0304C20.727 29.0217 20.6546 29.0353 20.5911 29.0692C20.1249 29.2603 19.6586 29.4449 19.1988 29.6489C18.9712 29.7435 18.7262 29.7887 18.4799 29.7816C18.2484 29.7941 18.0178 29.7441 17.8122 29.637C17.6066 29.53 17.4335 29.3697 17.311 29.1728C17.2883 29.1372 17.2494 29.1016 17.2462 29.0627C17.3077 28.856 17.4424 28.6787 17.6251 28.5641L18.7066 28.292C18.1887 27.999 17.5913 27.8777 17.0001 27.9455C16.6387 27.9798 16.2758 27.8982 15.9639 27.7124C15.8822 27.681 15.8097 27.6296 15.7531 27.5628C15.6966 27.496 15.6577 27.416 15.6401 27.3303C15.633 27.2609 15.6035 27.1956 15.5563 27.1443C15.509 27.0929 15.4464 27.0582 15.3778 27.0453C14.9731 26.9093 14.5748 26.7539 14.1571 26.6017L14.2575 26.3815L15.4167 26.7992C15.4417 26.7639 15.4734 26.734 15.5101 26.7112C15.5468 26.6884 15.5877 26.6732 15.6304 26.6665C16.3104 26.6308 16.9904 26.6049 17.6704 26.5758C17.7449 26.5758 17.8161 26.5531 17.8906 26.5434V26.4883L14.7917 25.0635L14.8954 24.8466C16.0481 25.355 17.162 25.9087 18.318 26.4009L18.3633 26.3329L17.9715 25.5881L18.3504 25.4392L15.5268 23.82L15.6531 23.6096L17.2268 24.5098C17.3013 24.4256 17.3628 24.3705 17.4081 24.3058C17.4736 24.2067 17.5626 24.1253 17.6671 24.0688C17.7716 24.0123 17.8884 23.9825 18.0072 23.9819C18.331 23.9625 18.6289 23.9204 18.9786 23.8848C18.8615 23.7476 18.716 23.6375 18.5522 23.562C18.3884 23.4866 18.2102 23.4475 18.0298 23.4476C17.6534 23.4671 17.2762 23.4671 16.8997 23.4476C16.8246 23.4503 16.7497 23.4376 16.6796 23.4104C16.6095 23.3831 16.5457 23.3418 16.492 23.2891C16.4384 23.2364 16.3961 23.1733 16.3676 23.1037C16.3392 23.0341 16.3252 22.9594 16.3266 22.8842C16.3266 22.7579 16.3622 22.7028 16.5015 22.6931C16.7475 22.6769 16.9936 22.6316 17.2948 22.5927L16.1356 21.686L16.21 21.6601L16.155 21.1258L18.7454 20.8635L17.7352 19.7431L17.8679 19.6038C18.2597 19.9827 18.6256 20.3357 18.998 20.6854C19.0554 20.7492 19.1358 20.7877 19.2214 20.7923C19.6294 20.7469 20.031 20.6789 20.4713 20.6142L18.9333 18.8331L19.1308 18.6874C19.6035 19.2314 20.0698 19.756 20.5199 20.3065C20.5771 20.4022 20.6629 20.4774 20.7651 20.5215C20.8674 20.5657 20.981 20.5766 21.0898 20.5527C21.4012 20.5263 21.7142 20.5263 22.0256 20.5527L19.9824 18.0657L20.1605 17.9167C20.2026 17.9621 20.2414 17.9944 20.2738 18.0333C20.9214 18.817 21.5691 19.5984 22.2167 20.3778C22.2717 20.4458 22.3462 20.5332 22.4174 20.5365C22.8254 20.5365 23.2367 20.5365 23.69 20.5365L21.0704 16.955L21.2744 16.819C22.1422 18.0009 23.0003 19.1699 23.8648 20.3422C23.9065 20.41 23.966 20.4652 24.0367 20.5017C24.1075 20.5382 24.1869 20.5547 24.2664 20.5494C25.9081 20.5494 27.553 20.5494 29.1947 20.5494C29.756 20.5165 30.3183 20.5946 30.8494 20.7793C30.9106 20.7979 30.976 20.7979 31.0372 20.7793C31.3901 20.6563 31.7398 20.5138 32.0928 20.394C33.5208 19.9147 34.9423 19.4225 36.38 18.9789C36.8988 18.7933 37.4485 18.7098 37.999 18.7328C38.8053 18.7943 39.6181 18.8234 40.4179 18.8558C40.8421 18.8752 40.8453 18.8558 41.0169 18.4737C41.2339 17.9815 41.4508 17.5022 41.6646 16.9841L41.8847 17.091L41.1303 18.8267C41.4541 18.9238 41.7488 18.9918 42.0272 19.1084C42.0609 19.1318 42.0994 19.1472 42.1398 19.1537C42.1803 19.1601 42.2217 19.1573 42.261 19.1454C42.3002 19.1336 42.3362 19.1131 42.3664 19.0853C42.3966 19.0576 42.4201 19.0234 42.4352 18.9853C42.7169 18.5708 43.0181 18.1693 43.316 17.7516L43.5038 17.907L42.5323 19.2735C42.7169 19.3934 42.8756 19.5035 43.044 19.5974C43.0628 19.6117 43.0845 19.6217 43.1077 19.6265C43.1308 19.6313 43.1547 19.631 43.1777 19.6254C43.2006 19.6198 43.2221 19.6091 43.2404 19.5942C43.2587 19.5793 43.2735 19.5604 43.2836 19.5391C43.5329 19.1926 43.7952 18.8526 44.064 18.4964L44.2518 18.6518L43.4455 19.7334C43.8988 19.824 43.8373 20.2871 44.0737 20.5527L45.4142 19.3772L45.5761 19.552C45.4693 19.6492 45.3722 19.7399 45.2718 19.8273C44.7796 20.2677 44.2421 20.6627 43.9215 21.2683C43.8018 21.4552 43.671 21.6347 43.5297 21.8058C43.3422 22.0797 43.105 22.3159 42.8303 22.5021C42.6004 22.6607 42.3866 22.8259 42.1826 22.9813C42.3979 23.2283 42.597 23.489 42.7784 23.7617C42.8906 23.9923 43.0828 24.1742 43.3192 24.2734L47.1013 21.359L47.2438 21.5565L47.1498 21.631C45.9226 22.583 44.6954 23.5383 43.4617 24.4839C43.4266 24.5033 43.396 24.53 43.3719 24.5621C43.3479 24.5942 43.3308 24.631 43.322 24.6701C43.3131 24.7092 43.3126 24.7498 43.3205 24.7891C43.3284 24.8285 43.3445 24.8657 43.3678 24.8984C43.4423 25.0506 43.5394 25.1898 43.6398 25.3517L47.8493 22.596L47.9788 22.8032L47.2081 23.3084L40.8065 27.5019C40.6867 27.5829 40.5668 27.6541 40.6381 27.8484C40.7611 27.8322 40.8842 27.8096 41.0072 27.8031C41.7138 27.7525 42.3994 27.5409 43.0116 27.1846C44.6857 26.2131 46.3889 25.3258 48.0857 24.4062C48.2004 24.3508 48.3182 24.3022 48.4386 24.2604L48.471 24.4418L42.9922 27.4048L43.0148 27.4663C43.2318 27.4112 43.4487 27.353 43.6624 27.3044C44.1178 27.157 44.588 27.0604 45.0645 27.0162C45.6977 27.0456 46.3274 26.9082 46.8908 26.6179C46.975 26.5725 47.0657 26.5402 47.1531 26.5013L49.2805 25.5849L49.3744 25.8116L46.4601 27.0647C46.9426 27.2429 47.4316 27.4145 47.8914 27.5958C48.1408 27.6623 48.3788 27.766 48.5973 27.9035C49.0344 28.2564 49.4942 28.6029 49.6626 29.1988C49.7565 29.5226 49.9573 29.7752 50.3653 29.6974C50.3653 29.6974 50.3879 29.6974 50.4106 29.7266V29.9371L50.1645 29.9533L50.3718 30.86H50.8089V31.0866L50.3782 31.1223C50.394 31.2296 50.4037 31.3377 50.4074 31.4461C50.4074 31.5044 50.4074 31.5951 50.3653 31.6177C50.1418 31.757 49.9119 31.8833 49.6756 32.016L49.2578 31.2453L48.8596 31.6954C48.7411 31.5883 48.6168 31.4877 48.4872 31.3943C48.4107 31.343 48.3202 31.3169 48.2282 31.3198C47.5805 31.3619 46.9329 31.4169 46.2853 31.472L45.0775 31.5659ZM42.2992 43.4859C41.7876 43.3272 41.3278 43.1782 40.8615 43.0422C40.8277 43.0397 40.7936 43.0444 40.7618 43.0561C40.7299 43.0679 40.701 43.0863 40.6769 43.1102C40.3531 43.3952 40.0293 43.6834 39.7217 43.9748C38.3099 45.2701 36.9175 46.6108 35.2823 47.6502C35.0592 47.7909 34.8228 47.9092 34.5764 48.0032C34.1101 48.1846 33.6374 48.3594 33.1549 48.4987C32.6141 48.6573 32.0896 48.8905 31.5035 48.8646C30.6519 48.8257 29.8002 48.7966 28.9486 48.7869C28.3512 48.8001 27.7543 48.7414 27.1709 48.612C26.5848 48.4566 25.9761 48.3886 25.4062 48.1943C24.5707 47.9061 23.7612 47.5466 22.9388 47.2034C22.8767 47.1854 22.8215 47.1493 22.7801 47.0998C22.6101 46.8135 22.4722 46.5095 22.3688 46.193C22.1649 45.2896 21.9252 44.3829 22.0029 43.4405C22.0191 43.2495 22.0029 43.0552 22.0029 42.8609C22.0029 42.1809 22.0029 42.1809 21.3197 42.0837C21.297 42.0837 21.2711 42.0837 21.255 42.0837C21.2388 42.0837 21.1351 42.1355 21.1287 42.1712C21.0555 42.4489 21.0089 42.733 20.9894 43.0196C20.9894 44.6646 21.0153 46.3064 21.025 47.9514C21.025 48.1101 21.0866 48.1651 21.2226 48.2137C22.0548 48.5149 22.8837 48.829 23.7127 49.1301C24.2579 49.3566 24.8157 49.5512 25.3835 49.713C26.3901 49.9828 27.4166 50.1723 28.4532 50.2797C29.0101 50.325 29.5703 50.4092 30.1305 50.4189C30.6907 50.4287 31.2088 50.3639 31.7496 50.338C32.119 50.3313 32.4839 50.2544 32.8246 50.1113C33.0966 49.9947 33.3816 49.9105 33.6568 49.8037C34.4339 49.5058 35.2402 49.2823 35.9235 48.7512C36.4286 48.3529 36.9855 48.0226 37.4745 47.6114C38.5333 46.7209 39.5598 45.7883 40.6089 44.888C41.1368 44.412 41.6969 43.9716 42.2992 43.4859ZM44.2421 31.5789C44.7278 31.2971 45.1941 31.0219 45.6603 30.7563C45.7334 30.7104 45.817 30.6836 45.9032 30.6786C46.1396 30.6786 46.376 30.7175 46.6124 30.7337L47.7683 30.8114L47.8007 30.7661C47.3603 30.4746 47.0559 30.1184 47.1531 29.5452C47.6097 29.623 48.0759 29.5452 48.4904 29.8691C48.6297 29.9727 48.9599 29.895 49.1704 29.8173C49.3323 29.7525 49.4521 29.5647 49.5816 29.4222C49.6008 29.3989 49.6151 29.372 49.6234 29.343C49.6318 29.3141 49.6341 29.2837 49.6302 29.2538C49.5504 28.9725 49.4115 28.7114 49.2227 28.4881C49.034 28.2647 48.7998 28.0842 48.5358 27.9585C47.901 27.648 47.2372 27.4007 46.5541 27.2202C45.9804 27.0383 45.3701 27.0038 44.7796 27.1198C44.132 27.2558 43.507 27.4436 42.8724 27.6055C42.8724 27.6055 42.8724 27.6217 42.8497 27.6282L42.9598 27.7577L41.9884 28.305C42.034 28.4558 42.0697 28.6094 42.0952 28.7648C42.1211 28.985 42.228 29.0725 42.445 29.0336C42.6619 28.9947 42.6781 29.0789 42.7137 29.2538C42.7655 29.5064 42.7364 29.7946 42.9922 29.9759C43.1204 30.0426 43.2202 30.1534 43.2732 30.2879C43.3261 30.4224 43.3287 30.5715 43.2804 30.7078C43.2804 30.724 43.2803 30.7466 43.3063 30.7661L43.6624 30.7855L43.6398 31.064C43.6818 31.0679 43.7241 31.0679 43.7661 31.064C43.9442 30.9927 44.0381 31.064 44.0899 31.2324C44.1283 31.3509 44.1748 31.4667 44.2291 31.5789H44.2421ZM28.314 32.5147L28.2945 32.4791C28.2071 32.5244 28.1164 32.5665 28.0322 32.6183L25.2313 34.3702C25.1438 34.4249 25.0633 34.4902 24.9917 34.5645C24.6679 34.8883 24.3765 35.2122 24.0753 35.5587C23.8713 35.7886 23.6738 36.025 23.4504 36.2873C23.5 36.2901 23.5497 36.2901 23.5993 36.2873L25.5422 36.1383C25.623 36.1295 25.7007 36.1018 25.7688 36.0574C26.9054 35.2834 28.0582 34.5354 29.1688 33.7258C30.1856 32.9907 31.157 32.1909 32.1478 31.4169C32.517 31.1255 32.8861 30.8308 33.2682 30.5329C32.8991 30.3807 32.7566 30.3937 32.5138 30.5782C31.4063 31.4267 30.2827 32.2589 29.1947 33.1364C28.7991 33.4324 28.3221 33.5997 27.8282 33.6157C27.7956 33.6167 27.7632 33.6103 27.7334 33.5968C27.7037 33.5833 27.6774 33.5632 27.6566 33.538C27.5854 33.4149 27.5368 33.2757 27.4753 33.1397L28.314 32.5147ZM42.283 41.6271V41.6984C43.0472 41.7696 43.8082 41.8408 44.5723 41.9024C44.6464 41.8969 44.7178 41.8723 44.7796 41.8311C45.2556 41.598 45.7316 41.3616 46.2108 41.1349C46.3034 41.0887 46.4029 41.0581 46.5055 41.0442C47.2567 40.9406 48.0112 40.8467 48.7721 40.7398C48.8524 40.7223 48.923 40.6748 48.9696 40.6071C49.1542 40.3156 49.3258 40.0112 49.4975 39.7101L49.8213 39.1337C49.7915 39.1251 49.7613 39.1186 49.7306 39.1143C48.9697 39.1402 48.2055 39.1142 47.464 39.2114C47.0686 39.2972 46.6849 39.4298 46.3209 39.6065V39.6712C46.6447 39.6486 46.9685 39.6194 47.0883 39.9951C46.9362 40.1634 46.7645 40.3189 46.6318 40.5034C46.5873 40.5613 46.5265 40.6046 46.4573 40.6277C46.388 40.6508 46.3135 40.6526 46.2432 40.633C46.0126 40.5905 45.7779 40.5753 45.5438 40.5876C45.0257 40.6459 44.5108 40.7625 43.9895 40.8143C43.3499 40.9135 42.7527 41.1958 42.2701 41.6271H42.283ZM28.8482 37.9452C28.7762 37.8815 28.6863 37.8414 28.5908 37.8304C28.4952 37.8194 28.3986 37.838 28.314 37.8837C26.0797 38.8293 23.8422 39.7651 21.6014 40.6913C21.3343 40.8125 21.1178 41.0233 20.9894 41.2871C20.9748 41.3268 20.9748 41.3704 20.9894 41.4102C21.0833 41.8797 21.1837 41.9801 21.637 42.0578C21.6883 42.0591 21.7393 42.0656 21.7892 42.0772C21.8659 42.1038 21.9481 42.1103 22.028 42.0961C22.108 42.0819 22.1829 42.0476 22.2458 41.9963L26.3582 39.4672L28.8482 37.9452ZM20.5231 37.7639C20.5814 37.7672 20.6398 37.7672 20.698 37.7639L22.3624 37.521C23.3338 37.3785 24.3052 37.2361 25.2961 37.1001C26.1736 36.977 27.0511 36.8637 27.9286 36.7439C27.9966 36.7439 28.1067 36.705 28.1164 36.6629C28.1556 36.5425 28.1612 36.4138 28.1326 36.2905C28.112 36.216 28.0636 36.1522 27.9973 36.1124C27.931 36.0726 27.8519 36.0599 27.7764 36.0768C27.2422 36.1351 26.7014 36.1674 26.1574 36.2063L21.4492 36.5301L20.6041 36.5981L20.5231 37.7639ZM28.4953 37.7283C28.2201 37.3624 28.2201 37.3624 27.8477 37.4951C27.09 37.7607 26.3323 38.0262 25.581 38.2853L20.8923 39.8623C20.8583 39.8716 20.8279 39.8907 20.8049 39.9173C20.7535 39.9586 20.7121 40.0109 20.6836 40.0703C20.6552 40.1297 20.6404 40.1947 20.6404 40.2606C20.6404 40.3265 20.6552 40.3915 20.6836 40.4509C20.7121 40.5103 20.7535 40.5626 20.8049 40.6038C20.832 40.6289 20.8559 40.6571 20.8761 40.688C20.9603 40.8564 21.0736 40.8499 21.2355 40.7787L26.6172 38.5119L28.4953 37.7283ZM24.1336 41.7631C24.289 42.1129 24.4833 42.3719 24.9043 42.3428C25.0379 42.3374 25.1715 42.355 25.2993 42.3946C25.3653 42.4147 25.4358 42.4149 25.502 42.3954C25.5682 42.3758 25.6272 42.3372 25.6717 42.2845C26.7273 41.313 27.7926 40.3415 28.8515 39.3701L29.8488 38.4439C29.5575 38.3982 29.2594 38.4567 29.0069 38.6091C27.9869 39.2891 26.954 39.9432 25.9243 40.6103L24.1336 41.7631ZM28.1359 37.2879C28.0646 37.113 27.9545 37.1227 27.8121 37.1519C25.458 37.7056 23.1039 38.2496 20.7498 38.8066C20.6041 38.839 20.4778 38.9297 20.5329 39.1304C20.5685 39.2503 20.5879 39.3733 20.6203 39.4964C20.6883 39.7457 20.8178 39.8202 21.0671 39.7295C22.126 39.3668 23.1881 39.0074 24.2469 38.6415L28.1359 37.2879ZM27.9804 36.786L20.5005 37.8772C20.4713 38.0974 20.4422 38.295 20.4195 38.4925C20.4195 38.5249 20.4195 38.5832 20.4454 38.5897C20.5899 38.6653 20.7489 38.7095 20.9117 38.7192C21.391 38.6415 21.8637 38.5184 22.3397 38.3954L27.825 37.1001C27.9642 37.0612 28.0549 37.0062 27.9804 36.7989V36.786ZM22.3656 42.006C22.6603 42.0643 22.887 42.1064 23.1071 42.155C23.1807 42.1747 23.2578 42.178 23.3328 42.1645C23.4078 42.1511 23.4789 42.1213 23.541 42.0772C25.3133 40.9115 27.0878 39.75 28.8644 38.5929C29.1882 38.3694 29.1882 38.3694 28.9778 37.9452L22.3656 42.006ZM29.9783 38.4439L25.5519 42.5209C25.9145 42.618 26.2448 42.7119 26.5784 42.7897C26.6302 42.7897 26.7143 42.7476 26.7564 42.699C27.7797 41.5678 28.7986 40.4354 29.8132 39.3021C29.9913 39.1078 30.1629 38.907 30.3442 38.6998L29.9783 38.4439ZM35.8684 39.8202L36.9305 40.6556L36.6067 41.1187C36.7267 41.1667 36.8516 41.2014 36.9791 41.2223C37.3109 41.2499 37.6445 41.2499 37.9764 41.2223C38.3423 41.1705 38.4977 41.3681 38.624 41.6368L38.3002 42.0416C38.4308 42.1019 38.5692 42.1433 38.7114 42.1647C38.9731 42.1287 39.2396 42.1692 39.4789 42.2812C39.5416 42.305 39.6088 42.3142 39.6756 42.308C39.7424 42.3019 39.8069 42.2805 39.8642 42.2456C39.9872 42.1679 39.9354 41.8052 39.8253 41.6789C39.4281 41.2253 38.9223 40.8799 38.3553 40.6751C37.7652 40.4438 37.218 40.1154 36.7362 39.7036C36.6847 39.6667 36.6211 39.6505 36.5581 39.6583C36.3573 39.6907 36.1404 39.7489 35.8684 39.8202ZM30.8105 38.7386L30.749 38.6577C30.565 38.7255 30.3933 38.8228 30.2406 38.9459C29.1559 40.1278 28.0905 41.326 27.0187 42.5079C26.7629 42.7961 26.7662 42.7994 27.0479 43.0552C27.0967 43.1119 27.1586 43.1558 27.2282 43.1831C27.2978 43.2105 27.373 43.2205 27.4473 43.2122C27.5216 43.2039 27.5928 43.1776 27.6547 43.1355C27.7166 43.0935 27.7673 43.037 27.8024 42.971L29.6092 40.4225C30.0172 39.8623 30.4155 39.2956 30.817 38.7321L30.8105 38.7386ZM49.7177 31.8606C49.8801 31.7786 50.0379 31.6878 50.1904 31.5886C50.2204 31.5637 50.2447 31.5325 50.2615 31.4973C50.2783 31.462 50.2872 31.4236 50.2876 31.3846C50.2876 31.187 50.2422 30.9895 50.239 30.792C50.239 30.2738 49.9443 29.8853 49.6561 29.4222C49.5201 29.5776 49.4165 29.7104 49.2999 29.8335C49.168 29.9481 49.0037 30.0191 48.8297 30.0365C48.6557 30.0539 48.4806 30.0169 48.3285 29.9306C48.0047 29.6553 47.6032 29.7201 47.2114 29.6813L47.2632 29.9662L47.5125 29.7654L49.0798 31.2518L49.2902 31.0802L49.7177 31.8606ZM39.3979 38.1298C39.0514 38.3727 38.7179 38.6026 38.3909 38.8422C38.3675 38.8645 38.3498 38.8919 38.3391 38.9223C38.3284 38.9527 38.325 38.9852 38.3293 39.0171C38.4658 39.4604 38.7505 39.8434 39.1356 40.1019C39.5242 39.8105 39.9192 39.519 40.324 39.2211L39.3979 38.1298ZM37.4551 38.826C37.7303 39.2276 37.9926 39.6 38.2451 39.9821C38.3187 40.0778 38.3706 40.1883 38.3974 40.3059C38.4064 40.3772 38.4343 40.4447 38.4781 40.5016C38.522 40.5585 38.5801 40.6027 38.6467 40.6297C39.2422 40.8978 39.7593 41.3136 40.1491 41.8376C40.1977 41.7016 40.2625 41.6174 40.256 41.5364C40.2366 41.3195 40.3305 41.0378 40.0844 40.918C39.5441 40.6264 39.0604 40.2403 38.6564 39.7781C38.5748 39.6943 38.507 39.5981 38.4556 39.4931C38.297 39.1693 38.1318 38.826 37.9861 38.4763L37.4551 38.826ZM21.1999 31.2583V31.3068C21.4237 31.3169 21.6465 31.3418 21.867 31.3813C22.1278 31.4337 22.3988 31.3813 22.6214 31.2356C23.0456 31.0025 23.486 30.792 23.9167 30.5685L24.3603 30.3257C24.1486 30.2376 23.9324 30.1609 23.7127 30.0957C23.6047 30.0703 23.4914 30.0794 23.3889 30.1216C23.0424 30.2868 22.7056 30.4681 22.3656 30.6463L21.1999 31.2583ZM43.6851 42.359L41.82 42.1744C41.7631 42.167 41.7054 42.1808 41.6581 42.2132C41.5156 42.3266 41.3829 42.4561 41.2274 42.5986C41.7358 42.7573 42.1988 42.9224 42.6943 43.0552C42.7213 43.063 42.7497 43.065 42.7776 43.0611C42.8055 43.0572 42.8323 43.0474 42.8562 43.0325C43.1217 42.822 43.3807 42.6051 43.6851 42.359ZM26.6917 31.1741C26.5663 31.1373 26.4439 31.0907 26.3258 31.0348C26.167 30.9366 25.9815 30.8903 25.7952 30.9025C25.6089 30.9147 25.431 30.9847 25.2864 31.1028C24.9982 31.2971 24.6744 31.4267 24.3667 31.6048C24.7036 31.6769 25.0441 31.731 25.3867 31.7667C25.4612 31.7667 25.5584 31.825 25.6102 31.7958C25.9664 31.6048 26.3128 31.4008 26.6917 31.1741ZM17.2397 22.1588C17.4372 22.3499 17.5894 22.5863 17.91 22.5247C18.3957 22.4308 18.8814 22.3758 19.3769 22.2981C19.6327 22.2592 19.8885 22.2139 20.1572 22.1685C20.1079 22.0729 20.0275 21.9968 19.9293 21.9526C19.8311 21.9085 19.7208 21.899 19.6165 21.9257C19.2376 21.9904 18.8523 22.0001 18.4702 22.039L17.2397 22.1588ZM45.0419 31.2647L45.0743 31.3166L48.0565 31.064V30.9798C47.9228 30.9393 47.7865 30.9079 47.6485 30.8859C47.0873 30.8362 46.5271 30.7941 45.9679 30.7596C45.8812 30.7516 45.794 30.7673 45.7154 30.8049C45.531 30.898 45.3515 31.0007 45.1779 31.1125C45.1278 31.1589 45.0823 31.2098 45.0419 31.2647ZM34.9812 42.2974V42.2424L33.9158 42.4075C33.6649 42.4109 33.4163 42.4569 33.1808 42.5435C32.721 42.8091 32.2968 43.1459 31.8597 43.4502L31.8985 43.5312L34.9812 42.2974ZM23.1104 28.8782L22.1843 28.4572C22.151 28.4442 22.114 28.4442 22.0807 28.4572L21.1092 28.8717C21.501 29.0174 21.8572 29.1502 22.2167 29.2765C22.2644 29.2959 22.3179 29.2959 22.3656 29.2765C22.5923 29.1502 22.8286 29.0271 23.1104 28.8782ZM21.4913 23.4541C21.4039 23.2954 21.31 23.1951 21.106 23.2307C20.5911 23.3213 20.0731 23.4023 19.555 23.4768C19.3639 23.5027 19.1729 23.5059 18.9689 23.5189C19.0586 23.6516 19.1882 23.7524 19.339 23.8065C19.4898 23.8606 19.6539 23.8654 19.8075 23.82C19.8441 23.8152 19.8811 23.8152 19.9176 23.82C20.4579 23.7941 20.989 23.6701 21.4849 23.4541H21.4913ZM20.3677 27.6412C20.2508 27.5355 20.1045 27.4681 19.9483 27.4478C19.7921 27.4276 19.6334 27.4555 19.4934 27.5278C19.295 27.6051 19.0916 27.6689 18.8847 27.7189L18.3893 27.8775C18.6774 27.9812 18.9041 28.0686 19.134 28.1463C19.1888 28.1639 19.2477 28.1639 19.3024 28.1463C19.6489 27.9909 20.0018 27.8193 20.3612 27.6412H20.3677ZM32.2288 29.5582C32.0378 29.4611 31.8823 29.3769 31.7204 29.3024C31.6955 29.2912 31.6684 29.2854 31.6411 29.2854C31.6137 29.2854 31.5867 29.2912 31.5618 29.3024C31.3189 29.474 31.0793 29.6586 30.8267 29.8496L31.1829 30.3386L32.2288 29.5582ZM25.6328 27.4307C25.5098 27.2979 25.4094 27.1813 25.309 27.0745C25.2944 27.0599 25.2764 27.0491 25.2567 27.0429C25.237 27.0367 25.216 27.0353 25.1957 27.0388C24.8719 27.1878 24.5254 27.3432 24.1595 27.5149C24.3473 27.6574 24.4833 27.7739 24.642 27.8775C24.67 27.8944 24.7014 27.9047 24.734 27.9075C24.7666 27.9103 24.7993 27.9056 24.8298 27.8937C25.0888 27.748 25.3511 27.5893 25.6264 27.4307H25.6328ZM37.0341 39.8008C37.4712 40.0631 37.8177 40.4128 38.3293 40.497C38.2872 40.008 37.9052 39.7327 37.6979 39.3312L37.0341 39.8008ZM26.3484 32.8288V32.8839C26.9313 32.7705 27.5951 32.9843 28.0646 32.4597C27.838 32.3107 27.5012 32.5309 27.3004 32.2168L26.3484 32.8288ZM29.3922 29.4902C29.2627 29.3348 29.1364 29.1664 28.9972 29.0206C28.9761 29.0051 28.9515 28.9949 28.9255 28.9909C28.8996 28.987 28.8731 28.9894 28.8482 28.998C28.6766 29.0919 28.5244 29.202 28.3301 29.3218L28.5827 29.623C28.6701 29.7234 28.7576 29.8173 28.8482 29.9144L29.334 29.5679C29.334 29.5679 29.3728 29.5258 29.3922 29.4902ZM35.5672 40.824L36.0335 40.973C36.516 41.122 36.516 41.122 36.788 40.6492L36.312 40.28L35.5672 40.824ZM40.6284 27.2752L42.1535 26.2779C42.1849 26.2597 42.2173 26.2435 42.2506 26.2293C42.0386 26.2 41.8227 26.2185 41.6188 26.2835C41.4148 26.3485 41.228 26.4583 41.072 26.6049C40.9973 26.6753 40.9135 26.7352 40.8227 26.783C40.7783 26.8033 40.7383 26.8321 40.7052 26.8678C40.672 26.9036 40.6462 26.9456 40.6294 26.9913C40.6125 27.0371 40.6049 27.0857 40.6069 27.1345C40.609 27.1832 40.6207 27.2311 40.6413 27.2752H40.6284ZM27.3134 29.9533C27.5109 30.1055 27.689 30.2479 27.8736 30.3807C27.8972 30.3927 27.9232 30.3989 27.9497 30.3989C27.9761 30.3989 28.0022 30.3927 28.0258 30.3807C28.1683 30.3095 28.3042 30.2253 28.4435 30.1443C28.0549 29.5485 27.8962 29.5226 27.3263 29.9533H27.3134ZM40.5053 41.4717L40.5248 41.5267C40.9748 41.5753 41.4282 41.6271 41.8815 41.653C41.9365 41.653 42.0596 41.5105 42.0499 41.4458C42.0418 41.4028 42.0252 41.3619 42.0009 41.3255C41.9766 41.2892 41.9452 41.2581 41.9086 41.2342C41.872 41.2103 41.8309 41.194 41.7879 41.1864C41.7448 41.1788 41.7007 41.18 41.6581 41.19C41.3796 41.2321 41.1011 41.2677 40.8259 41.326C40.7184 41.3633 40.6153 41.4122 40.5183 41.4717H40.5053ZM40.0617 42.0092C40.0002 42.1582 40.0131 42.2359 40.1653 42.2748C40.447 42.3525 40.7255 42.4529 41.0105 42.5338C41.0398 42.5418 41.0705 42.5437 41.1006 42.5392C41.1307 42.5347 41.1596 42.5241 41.1853 42.5079C41.3084 42.4075 41.4217 42.2942 41.5771 42.1485L40.0617 42.0092ZM24.4542 28.0654C24.2502 27.9229 24.0688 27.6995 23.8584 27.6703C23.6479 27.6412 23.4536 27.8257 23.2302 27.9294C23.9782 28.4119 24.0203 28.4183 24.4671 28.0654H24.4542ZM25.866 28.8393C26.0117 28.9526 26.125 29.0466 26.2448 29.1307C26.2663 29.1402 26.2894 29.1451 26.3128 29.1451C26.3362 29.1451 26.3594 29.1402 26.3808 29.1307C26.5945 29.0077 26.805 28.8782 27.0479 28.7292C26.9627 28.6453 26.8718 28.5674 26.7759 28.4961C26.7488 28.4774 26.7181 28.4645 26.6857 28.4584C26.6534 28.4523 26.6201 28.453 26.5881 28.4604C26.3711 28.577 26.1542 28.7033 25.8789 28.8393H25.866ZM28.9389 32.0193C28.2913 31.6598 27.9481 31.6954 27.4818 32.152C28.0031 32.0905 28.4953 32.4079 28.9519 32.0193H28.9389ZM30.0981 30.3483L29.5509 30.7304L29.9945 31.2324L30.5029 30.8405L30.0981 30.3483ZM23.9134 29.8885C24.3408 30.0666 24.7618 30.3289 25.1374 29.8432C25.0575 29.7617 24.9615 29.6978 24.8555 29.6556C24.7495 29.6134 24.6359 29.5938 24.5219 29.5981C24.4079 29.6024 24.296 29.6304 24.1934 29.6804C24.0909 29.7304 23.9999 29.8013 23.9264 29.8885H23.9134ZM23.6965 28.4993C23.554 28.4297 23.4176 28.3484 23.2885 28.2564C23.0003 28.0168 22.7412 28.0913 22.4563 28.3115C22.6646 28.3921 22.8669 28.4874 23.0618 28.5964C23.1112 28.6328 23.1674 28.6588 23.227 28.673C23.2867 28.6871 23.3485 28.6891 23.409 28.6789C23.4694 28.6686 23.5272 28.6462 23.5788 28.6132C23.6304 28.5801 23.6748 28.537 23.7094 28.4863L23.6965 28.4993ZM28.2006 28.0524C28.1364 27.9587 28.0626 27.8719 27.9804 27.7934C27.9479 27.768 27.91 27.7501 27.8697 27.7412C27.8294 27.7322 27.7876 27.7324 27.7473 27.7415C27.5728 27.8397 27.4042 27.9478 27.2422 28.0654L27.566 28.4378L28.2006 28.0524ZM29.9621 29.121L29.538 28.5382L29.1559 28.8102L29.6092 29.3639L29.9621 29.121ZM27.2778 30.8017C27.1227 30.7453 26.9732 30.6748 26.8309 30.5912C26.778 30.5486 26.7167 30.5174 26.6511 30.4996C26.5855 30.4818 26.5169 30.4778 26.4497 30.4879C26.3825 30.4979 26.3181 30.5218 26.2605 30.558C26.203 30.5941 26.1535 30.6418 26.1153 30.6981C26.3193 30.7758 26.5265 30.8341 26.7143 30.928C26.8097 30.9792 26.9202 30.9946 27.0259 30.9714C27.1316 30.9483 27.2255 30.8881 27.2907 30.8017H27.2778ZM18.3148 25.1024L18.2889 25.1348C18.4475 25.1995 18.6127 25.342 18.7616 25.3129C19.2214 25.2125 19.665 25.0506 20.1151 24.9146V24.8757L18.3148 25.1024ZM28.9292 31.1611C29.3307 31.5303 29.5541 31.5918 29.7355 31.4072L29.2919 30.9118L28.9292 31.1611ZM35.6093 41.6174C34.9617 41.3843 34.5052 41.4555 34.2137 41.8311L35.6093 41.6174ZM20.2933 27.2817C20.7012 27.6541 21.0024 27.2979 21.3391 27.1554C21.2517 27.1004 21.1513 27.0291 21.0736 27.0486C20.8113 27.1068 20.5588 27.191 20.2933 27.2817ZM37.1636 42.6115C37.1248 42.4334 37.0891 42.2877 37.0665 42.1517C37.0438 42.0157 36.9272 42.0513 36.8301 42.0384C36.652 42.0157 36.6229 42.155 36.6002 42.2683C36.6002 42.3072 36.6779 42.3849 36.7362 42.4172C36.869 42.4853 37.005 42.5371 37.1636 42.6115ZM48.7527 31.4008L47.3409 30.0601L47.2664 30.1378C47.713 30.6132 48.2116 31.0368 48.7527 31.4008ZM30.9821 30.5038L30.6195 30.0083L30.3216 30.2188L30.7134 30.6981L30.9821 30.5038ZM30.5774 28.7033C30.3316 28.5659 30.0709 28.4572 29.8002 28.3795L29.7614 28.4313L30.1758 28.9947L30.5774 28.7033ZM32.844 30.358C33.3557 30.4908 33.3945 30.4876 33.5661 30.2771C33.184 30.018 33.1711 30.0213 32.8473 30.3516L32.844 30.358ZM26.1121 27.1554C25.8109 26.728 25.7883 26.715 25.4839 26.9352L25.6846 27.1133L25.8854 27.2947L26.1121 27.1554ZM25.3446 29.134C25.921 29.5161 25.921 29.4934 26.0441 29.3089C25.6523 28.9365 25.6523 28.9365 25.3479 29.134H25.3446ZM29.2627 31.7829C28.9227 31.459 28.6151 31.3813 28.4597 31.5368L29.1073 31.8606V31.9254L29.2627 31.7829ZM24.8104 29.406C25.0921 29.4805 25.2864 29.7298 25.581 29.61C25.3479 29.5161 25.1827 29.1534 24.8136 29.3995L24.8104 29.406ZM22.4692 26.6697L22.4466 26.6211L21.5075 26.9126L21.5367 27C21.8993 27.0324 22.1487 26.7312 22.4725 26.6632L22.4692 26.6697ZM20.2285 21.8836C20.3936 21.9904 20.4422 22.2074 20.6689 22.0876L20.6009 21.8285L20.2285 21.8836ZM45.1941 40.0857C45.4337 40.0469 45.7413 40.1505 45.8708 39.8072L45.1941 40.0857ZM27.2778 28.6288C27.2162 28.3212 27.0673 28.2046 26.9313 28.305L27.2778 28.6288Z" fill="#FBFBFB"/>
<path d="M25.3736 9.16403C25.474 9.13813 25.5743 9.10574 25.6747 9.08308C26.3223 8.93412 26.9699 8.7884 27.6338 8.63297C27.7859 8.59734 27.8572 8.63297 27.8831 8.77545C27.909 8.91793 27.964 9.12194 27.9997 9.29357C28.0121 9.36981 28.0043 9.44798 27.977 9.52024C27.7989 9.30975 27.692 9.01507 27.3877 9.00212C27.1101 9.00832 26.8332 9.03212 26.5587 9.07336L26.8145 10.2262C27.3423 10.1614 27.1901 9.71778 27.2711 9.41338H27.3585L27.7147 10.958L27.6532 11.0001C27.433 10.7734 27.365 10.3136 26.8728 10.482C26.9473 10.8058 27.0153 11.1296 27.1092 11.4535C27.1299 11.4887 27.1591 11.5182 27.1942 11.5391C27.2293 11.5601 27.2691 11.5718 27.3099 11.5733C27.7633 11.5377 28.2814 11.3499 28.3526 10.7216C28.3668 10.6613 28.3874 10.6027 28.4141 10.5468H28.4951C28.4951 10.7346 28.5242 10.9256 28.5534 11.1135C28.5534 11.1944 28.6084 11.3337 28.6505 11.3401C28.6837 11.3462 28.7177 11.3451 28.7504 11.3367C28.783 11.3284 28.8135 11.3131 28.8396 11.2918C28.8658 11.2706 28.887 11.244 28.9019 11.2137C28.9168 11.1835 28.9249 11.1504 28.9257 11.1167C28.9387 10.9323 28.9387 10.7473 28.9257 10.563C28.8869 10.0546 28.8383 9.54939 28.793 9.04099C28.7976 8.93591 28.7614 8.83313 28.692 8.75409C28.6226 8.67505 28.5254 8.62586 28.4206 8.61678C28.3686 8.59837 28.3186 8.57448 28.2716 8.54554C28.3494 8.50668 28.385 8.47429 28.4271 8.47105C28.7056 8.43867 28.984 8.40305 29.2657 8.39334C29.3564 8.40352 29.4403 8.44606 29.5021 8.51315C29.9296 8.94708 30.3473 9.38748 30.765 9.82788C30.8158 9.8909 30.8613 9.95805 30.901 10.0286L30.9755 9.97683C30.9269 9.52672 30.888 9.0766 30.8233 8.62972C30.8233 8.55524 30.6905 8.48401 30.6063 8.4322C30.5422 8.40474 30.4747 8.38621 30.4055 8.37714V8.29943L31.377 8.1958L31.4061 8.26057C31.3705 8.29295 31.3414 8.34476 31.2993 8.35447C31.1082 8.39981 31.0596 8.52934 31.0726 8.70421C31.1147 9.19642 31.1535 9.67568 31.1924 10.1841C31.2248 10.5371 31.2572 10.89 31.2863 11.243C31.2863 11.2657 31.2669 11.2916 31.2863 11.2754L29.0196 9.16403C29.0196 9.32271 29.0423 9.48786 29.0585 9.66596C29.0974 10.0675 29.1427 10.4723 29.1751 10.8771C29.1945 11.1264 29.2916 11.2851 29.5669 11.2786C29.5993 11.2786 29.6284 11.3013 29.6608 11.3596C29.1168 11.4567 28.5696 11.5441 28.0418 11.6542C27.5139 11.7643 26.9441 11.8874 26.4065 12.0331C25.869 12.1788 25.3347 12.3569 24.7551 12.5415C24.8037 12.4768 24.8199 12.4314 24.849 12.4185C25.0724 12.3278 25.0886 12.1724 25.0077 11.9683C24.7551 11.3401 24.509 10.7119 24.2597 10.0805H24.1787V12.8265H24.114L22.2002 10.8673L22.1161 10.9353L22.3104 11.4276C22.4787 11.855 22.6342 12.2792 22.8187 12.7034C22.9483 13.0273 22.9806 13.0499 23.3271 13.0273C23.3441 13.0273 23.3608 13.0308 23.3764 13.0375C23.392 13.0441 23.406 13.0539 23.4178 13.0661C23.11 13.2612 22.7734 13.4065 22.4204 13.4968C22.4431 13.4288 22.4431 13.3932 22.4625 13.377C22.7442 13.1471 22.7475 13.1374 22.618 12.8038C22.4107 12.276 22.197 11.7482 21.9704 11.2203C21.7923 10.7637 21.7922 10.7637 21.2871 10.767C21.3554 10.7116 21.4279 10.6618 21.5041 10.618C21.7761 10.5014 22.0545 10.4043 22.3233 10.2942C22.3712 10.2677 22.4273 10.2599 22.4805 10.2725C22.5338 10.2851 22.5805 10.3171 22.6115 10.3622L23.7707 11.528L23.9682 11.7125C23.9682 11.2559 23.9682 10.8479 23.9682 10.4367C23.9682 10.1776 23.9002 9.86026 24.0233 9.67892C24.1463 9.49758 24.4702 9.45548 24.7033 9.3551C24.8134 9.30976 24.9235 9.26442 25.0271 9.22556C25.0712 9.2205 25.1157 9.2205 25.1599 9.22556C25.1599 9.26766 25.1599 9.29032 25.1599 9.2968C24.7519 9.55262 24.862 9.56882 24.9882 9.89912C25.2182 10.5047 25.4675 11.107 25.7103 11.7093C25.7301 11.7656 25.7629 11.8165 25.8062 11.8576C25.8495 11.8987 25.902 11.9289 25.9593 11.9457C26.0166 11.9624 26.0771 11.9653 26.1357 11.9541C26.1943 11.9428 26.2494 11.9177 26.2964 11.8809C26.3226 11.8519 26.3417 11.8172 26.3524 11.7796C26.363 11.742 26.365 11.7024 26.358 11.664C26.1993 10.9192 26.0341 10.1776 25.8561 9.44253C25.8366 9.36805 25.7039 9.30976 25.6132 9.2709C25.5447 9.2577 25.4744 9.2577 25.406 9.2709L25.3736 9.16403Z" fill="#FBFBFB"/>
<path d="M15.4101 44.7035L14.4775 45.4354C14.511 45.5207 14.5748 45.5906 14.6567 45.6318C14.7385 45.6731 14.8327 45.6827 14.9212 45.6588C15.0922 45.6161 15.2608 45.5642 15.4263 45.5034C15.3292 45.7268 14.3092 46.5137 14.1311 46.5072C14.2833 46.2222 14.6297 45.9761 14.2865 45.5876C14.0145 45.8078 13.7425 46.0182 13.4867 46.2352C13.4674 46.2733 13.4573 46.3155 13.4573 46.3583C13.4573 46.401 13.4674 46.4432 13.4867 46.4813C13.589 46.7159 13.7771 46.9024 14.0124 47.003C14.2478 47.1035 14.5126 47.1103 14.7528 47.0221C14.798 47.0173 14.8436 47.0173 14.8888 47.0221L14.9147 47.0804C14.7593 47.1743 14.5909 47.2714 14.4452 47.3621C14.0631 47.5856 14.0663 47.5823 13.7976 47.2391C13.3345 46.6432 12.8585 46.0571 12.4019 45.458C12.2441 45.2343 12.1044 44.9982 11.9842 44.7521C11.9609 44.6694 11.9714 44.5809 12.0134 44.506C12.185 44.1044 12.3695 43.7094 12.5444 43.3111C12.5686 43.23 12.5828 43.1463 12.5865 43.0617L12.5185 43.0293C12.2303 43.2042 11.9356 43.3694 11.6572 43.5604C11.6054 43.5993 11.5989 43.7256 11.5989 43.8162C11.6073 43.8911 11.627 43.9642 11.6572 44.0332C11.2902 43.6435 11.0108 43.1798 10.838 42.6731C10.8655 42.6778 10.8919 42.6877 10.9157 42.7023C11.1553 42.9451 11.1715 42.9549 11.4532 42.7897L13.2017 41.7632C13.3442 41.679 13.4349 41.5851 13.341 41.4038C13.3291 41.3646 13.3087 41.3286 13.2812 41.2984C13.2537 41.2681 13.2198 41.2444 13.1819 41.2289C13.1441 41.2134 13.1033 41.2065 13.0625 41.2087C13.0217 41.211 12.9818 41.2223 12.9459 41.2418C12.4894 41.4264 12.036 41.6272 11.5698 41.7891C11.3401 41.8834 11.0923 41.9254 10.8444 41.9121C10.1482 41.8377 9.74672 40.782 9.97015 40.2445C10.022 40.1297 10.0963 40.0265 10.1886 39.9409C10.2809 39.8552 10.3894 39.7889 10.5077 39.7458C11.002 39.5299 11.4985 39.3205 11.9972 39.1175C12.2012 39.0333 12.321 38.9297 12.2303 38.6869C12.2303 38.6674 12.2303 38.6351 12.2789 38.5962C12.5167 39.057 12.7265 39.5317 12.9071 40.0178L12.8585 40.0566C12.8115 40.0232 12.7709 39.9815 12.7387 39.9336C12.7275 39.898 12.7083 39.8655 12.6826 39.8384C12.6569 39.8113 12.6254 39.7904 12.5905 39.7773C12.5555 39.7642 12.5181 39.7592 12.4809 39.7628C12.4438 39.7663 12.4079 39.7782 12.376 39.7976C11.8094 40.034 11.2395 40.2606 10.6793 40.51C10.6069 40.5291 10.5396 40.5641 10.4824 40.6124C10.4252 40.6607 10.3794 40.7212 10.3484 40.7894C10.3174 40.8576 10.3019 40.9318 10.3032 41.0067C10.3044 41.0816 10.3223 41.1553 10.3555 41.2224C10.399 41.385 10.5041 41.5244 10.6486 41.6108C10.793 41.6972 10.9655 41.724 11.1294 41.6855C11.5017 41.5689 11.8644 41.4167 12.2271 41.2742C12.4149 41.203 12.593 41.1188 12.7808 41.0443C12.8292 41.0357 12.875 41.0163 12.9147 40.9874C12.9545 40.9585 12.9871 40.921 13.0102 40.8776C13.0333 40.8342 13.0462 40.7862 13.048 40.7371C13.0497 40.688 13.0403 40.6391 13.0204 40.5942C13.0204 40.5618 13.0204 40.5262 13.0657 40.4679C13.1018 40.5117 13.1343 40.5582 13.1629 40.6071L14.1343 42.4691C14.238 42.656 14.3288 42.8496 14.4063 43.0488C14.4712 43.211 14.4799 43.3903 14.4312 43.5581C14.3825 43.7259 14.2792 43.8726 14.1376 43.9749C13.9994 44.0887 13.8246 44.1482 13.6457 44.1422C13.4669 44.1362 13.2964 44.0653 13.1661 43.9425L13.0593 43.8616C12.8585 44.3311 12.6513 44.7845 12.4764 45.2508C12.4117 45.4256 12.5768 45.5746 12.7128 45.6329C12.7665 45.6517 12.8239 45.6575 12.8802 45.6496C12.9365 45.6417 12.9902 45.6204 13.0366 45.5876C13.6162 45.1504 14.1796 44.6938 14.7528 44.2502C14.7854 44.2322 14.8136 44.2072 14.8353 44.177C14.857 44.1467 14.8716 44.112 14.8781 44.0754C14.8846 44.0387 14.8829 44.0011 14.873 43.9652C14.863 43.9293 14.8452 43.8961 14.8208 43.868C14.793 43.8243 14.7702 43.7776 14.7528 43.7288C14.905 43.7288 16.0027 45.0597 16.3718 45.6718C16.1613 45.8369 15.9509 45.9956 15.7242 46.1704C15.6983 46.1899 15.6497 46.1704 15.6109 46.1704C15.572 46.1704 15.6109 46.096 15.6109 46.0733C15.7372 45.8952 15.9023 45.7074 15.8181 45.4904C15.7016 45.2185 15.5652 44.9554 15.4101 44.7035ZM12.6998 42.9257C12.852 43.188 12.9751 43.4762 13.3054 43.4697C13.4417 43.4684 13.5749 43.4284 13.6895 43.3545C13.8042 43.2806 13.8955 43.1757 13.953 43.052C14.0825 42.7703 13.9303 42.5307 13.7522 42.3007L12.6998 42.9257Z" fill="#FBFBFB"/>
<path d="M49.1741 20.1611C49.2065 20.1806 49.2551 20.1903 49.2713 20.2194C49.4073 20.4428 49.5724 20.4072 49.7635 20.2939C50.3399 19.9474 50.9162 19.5977 51.4958 19.2641C51.6998 19.1475 51.7808 19.0148 51.6642 18.7946C51.6642 18.7654 51.6642 18.7201 51.6642 18.6845L51.7322 18.6521L53.0274 20.8314L52.2374 21.2977L52.1758 21.2427C52.2956 21.0063 52.5935 20.825 52.4996 20.5206C52.4057 20.2601 52.2976 20.005 52.1758 19.7563L51.1655 20.3619C51.389 20.8347 51.7678 20.5756 52.0916 20.5465L52.1111 20.6339L50.7511 21.4402L50.6831 21.3981C50.8385 21.1196 51.2627 20.9059 50.9486 20.4882L50.1002 21.0063C50.0753 21.0184 50.0534 21.0359 50.0361 21.0575C50.0187 21.079 50.0063 21.1042 49.9998 21.1311C49.9933 21.1581 49.9929 21.1861 49.9985 21.2132C50.0041 21.2403 50.0156 21.2659 50.0322 21.288C50.3107 21.7835 50.5471 22.0717 51.185 21.981C51.2399 21.9762 51.2952 21.9762 51.3501 21.981L51.3728 22.0458L50.6572 22.3696C50.7025 22.6546 50.8126 22.729 51.0555 22.6287L53.0339 21.7867C53.2088 21.7122 53.2962 21.6021 53.2088 21.4046C53.1993 21.3413 53.1993 21.2769 53.2088 21.2135C53.2588 21.2578 53.3033 21.3078 53.3415 21.3625C53.565 21.8936 53.8013 22.4214 53.9891 22.9622C54.0681 23.1766 54.0849 23.409 54.0377 23.6325C54.0043 23.7575 53.9396 23.872 53.8496 23.965C53.7597 24.0581 53.6475 24.1266 53.5237 24.1642C53.3998 24.2018 53.2685 24.2072 53.142 24.1799C53.0155 24.1526 52.8981 24.0935 52.8008 24.0082C52.749 23.9661 52.7036 23.9207 52.6259 23.8527C52.3734 24.2866 52.124 24.7044 51.8876 25.1253C51.8717 25.1564 51.8634 25.1908 51.8634 25.2257C51.8634 25.2606 51.8717 25.295 51.8876 25.3261C51.9168 25.365 52.0204 25.3714 52.0787 25.3553C52.7846 25.1448 53.4905 24.9246 54.1931 24.7076C54.3648 24.6558 54.4619 24.5587 54.3939 24.3611C54.3874 24.3128 54.3874 24.2638 54.3939 24.2154L54.4781 24.196L54.9509 25.705L54.8893 25.7374C54.8602 25.7082 54.8116 25.6856 54.7987 25.6467C54.7242 25.4168 54.5752 25.3941 54.3615 25.4621C53.7301 25.6629 53.0922 25.8507 52.4608 26.0482C52.137 26.1519 52.137 26.1583 52.137 26.5016C52.137 26.5275 52.137 26.5566 52.1143 26.6505C52.0723 26.5976 52.0364 26.54 52.0074 26.4789C51.8617 26.0061 51.7193 25.5334 51.5768 25.0606C51.5688 25.0248 51.5569 24.9901 51.5412 24.957C51.4453 24.8294 51.3999 24.671 51.4136 24.512C51.4274 24.3531 51.4993 24.2048 51.6156 24.0956C51.8164 23.8203 51.9816 23.5192 52.1532 23.2277C52.1849 23.1577 52.2067 23.0836 52.2179 23.0075L52.1564 22.959C51.8326 23.1014 51.5282 23.231 51.2206 23.3896C51.1656 23.4156 51.1494 23.5451 51.1397 23.6325C51.1426 23.6997 51.1546 23.7661 51.1753 23.83L51.1202 23.8462C50.7964 23.2277 50.5018 22.5995 50.1682 21.9875C49.8347 21.3755 49.4656 20.7926 49.1094 20.1935L49.1741 20.1611ZM52.3701 22.8877C52.4996 23.15 52.5579 23.4382 52.8753 23.49C53.0156 23.5156 53.1605 23.4983 53.2909 23.4406C53.4214 23.3829 53.5315 23.2873 53.6071 23.1662C53.7819 22.9071 53.6492 22.6481 53.5164 22.3858L52.3701 22.8877Z" fill="#FBFBFB"/>
<path d="M31.4572 54.5316C31.4863 54.088 31.5122 53.7027 31.5414 53.3205C31.5608 53.0744 31.4896 52.8996 31.2176 52.8542C31.1725 52.8297 31.1301 52.8004 31.0913 52.7668C31.2176 52.7474 31.2888 52.7312 31.3568 52.7279C32.0044 52.7279 32.652 52.7053 33.2802 52.6859C33.8501 52.6664 34.3812 52.7441 34.7439 53.2461C35.4951 54.2855 34.8993 55.5517 33.5782 55.7136C33.1442 55.7687 32.7071 55.7816 32.2829 55.8108C32.2292 55.8112 32.1757 55.8035 32.1242 55.7881C32.1242 55.7492 32.1242 55.7266 32.1242 55.7233C32.4772 55.5582 32.4869 55.5582 32.448 55.1631C32.4092 54.4993 32.3639 53.8354 32.3056 53.1748C32.2918 53.1229 32.2662 53.0749 32.2308 53.0344C32.1954 52.994 32.1512 52.9622 32.1016 52.9417C32.0676 52.9292 32.0312 52.9246 31.9952 52.928C31.9592 52.9315 31.9243 52.9429 31.8933 52.9615C31.8623 52.9802 31.8358 53.0055 31.8158 53.0357C31.7958 53.0658 31.7828 53.1001 31.7778 53.136C31.7357 53.3918 31.713 53.6508 31.6936 53.9067C31.6579 54.4669 31.6288 55.0271 31.5964 55.5873C31.5964 55.6747 31.5673 55.7589 31.5543 55.8431L31.4831 55.8755L29.6503 53.2849C29.618 53.7286 29.5888 54.1172 29.5597 54.5057C29.5597 54.6677 29.5402 54.8296 29.5241 54.9915C29.4852 55.3153 29.5467 55.4189 29.8479 55.5355C29.8784 55.5511 29.9067 55.5707 29.9321 55.5938V55.665L28.8603 55.597V55.5096C28.9052 55.4912 28.9518 55.4771 28.9995 55.4675C29.0854 55.4675 29.1677 55.4334 29.2285 55.3727C29.2892 55.3119 29.3233 55.2296 29.3233 55.1437C29.3719 54.496 29.4204 53.816 29.4561 53.1522C29.4623 53.0897 29.4556 53.0267 29.4363 52.967C29.4169 52.9073 29.3854 52.8523 29.3437 52.8054C29.302 52.7586 29.251 52.7208 29.194 52.6947C29.137 52.6685 29.0752 52.6545 29.0125 52.6535C28.9627 52.6643 28.9165 52.6875 28.878 52.7209C28.8395 52.7543 28.8101 52.7968 28.7923 52.8445C28.6455 53.598 28.5149 54.3535 28.4004 55.1113C28.4004 55.1825 28.5008 55.2829 28.5721 55.3542C28.6257 55.3916 28.6863 55.418 28.7502 55.4319L28.7243 55.5225L27.1797 55.257V55.1761C27.2396 55.1577 27.3016 55.1469 27.3643 55.1437C27.3974 55.1498 27.4315 55.1486 27.4641 55.1403C27.4968 55.1319 27.5272 55.1166 27.5534 55.0954C27.5795 55.0741 27.6008 55.0475 27.6156 55.0173C27.6305 54.987 27.6387 54.9539 27.6395 54.9202C27.7723 54.1787 27.9083 53.4404 28.0216 52.6988C28.0216 52.6178 27.918 52.511 27.8467 52.4333C27.7952 52.3969 27.7368 52.3716 27.6751 52.3588L27.6946 52.2778L28.2612 52.3653C28.8376 52.4462 29.414 52.5239 29.9871 52.6178C30.0909 52.6393 30.1838 52.6966 30.2494 52.7798C30.6121 53.2817 30.9618 53.7966 31.318 54.305C31.3342 54.3924 31.386 54.4345 31.4572 54.5316ZM33.0924 52.9514C33.1475 53.7448 33.2057 54.5219 33.2575 55.3023C33.2575 55.4643 33.3547 55.5193 33.5069 55.5064C33.6652 55.5013 33.8168 55.4408 33.9351 55.3355C34.0535 55.2301 34.1311 55.0866 34.1545 54.93C34.2701 54.4456 34.2362 53.9375 34.0574 53.4727C33.8858 53.0226 33.6008 52.8769 33.0924 52.9514Z" fill="#FBFBFB"/>
<path d="M16.0473 14.4259C16.0735 14.3749 16.1038 14.3262 16.138 14.2802C16.6172 13.9078 17.0932 13.5322 17.5822 13.1727C17.6781 13.0902 17.7914 13.0304 17.9136 12.9979C18.0359 12.9654 18.1639 12.9609 18.2881 12.9849C18.4109 13.0048 18.5271 13.0543 18.6265 13.1291C18.726 13.2039 18.8058 13.3018 18.859 13.4143C18.9122 13.5268 18.9373 13.6505 18.932 13.7749C18.9268 13.8992 18.8914 14.0204 18.8288 14.128C18.8288 14.1669 18.7932 14.2057 18.7544 14.2802C19.3275 14.413 19.8488 14.6882 20.477 14.6979C20.3709 14.775 20.2703 14.8594 20.1759 14.9505C20.0624 15.0994 19.8986 15.2019 19.715 15.2389C19.5315 15.2758 19.3408 15.2447 19.1786 15.1513C18.8816 15.0407 18.5776 14.9498 18.2687 14.8793C18.1913 14.8696 18.1129 14.8696 18.0355 14.8793L18.0096 14.9505C18.2233 15.2128 18.4306 15.4816 18.6572 15.7309C18.7026 15.7795 18.8289 15.773 18.913 15.7633C18.98 15.7431 19.0434 15.7125 19.1008 15.6726L19.1429 15.7147C19.117 15.7633 19.0843 15.808 19.0458 15.8475C18.3894 16.3309 17.783 16.8787 17.2357 17.4828C17.2061 17.5147 17.171 17.5411 17.1321 17.5605C17.1321 17.5605 17.1062 17.5605 17.0835 17.5605C17.0609 17.5605 17.0641 17.5152 17.0835 17.5022C17.2519 17.1784 17.2487 17.1979 16.9119 17.0424C16.6917 16.9453 16.5298 16.9453 16.3841 17.159C16.3011 17.2631 16.2102 17.3605 16.1121 17.4504C16.0598 17.4893 16.0174 17.5399 15.9882 17.5981C15.9589 17.6562 15.9437 17.7205 15.9437 17.7856C15.9437 17.8507 15.9589 17.9149 15.9882 17.9731C16.0174 18.0313 16.0598 18.0819 16.1121 18.1208C16.1928 18.1661 16.2878 18.1788 16.3776 18.1564C16.4456 18.1564 16.5072 18.0754 16.5881 18.0204C16.4453 18.3603 16.192 18.6421 15.8692 18.8202C16.0279 18.2956 15.7235 17.8908 15.5454 17.4537C15.3317 16.887 15.0921 16.33 14.8687 15.7666C14.8428 15.7018 14.8201 15.6338 14.7812 15.5237C14.9205 15.5593 15.0209 15.5787 15.1051 15.6111L17.3944 16.4433C17.51 16.491 17.6324 16.5205 17.757 16.5308C17.806 16.534 17.8551 16.5261 17.9005 16.5075C17.9459 16.489 17.9866 16.4604 18.0193 16.4239C18.0337 16.3782 18.0371 16.3297 18.0292 16.2825C18.0214 16.2352 18.0024 16.1905 17.974 16.1519C17.6308 15.6986 17.2746 15.2549 16.9216 14.808C16.8342 14.6979 16.7403 14.5911 16.6561 14.4842C16.5363 14.3158 16.4003 14.2413 16.2125 14.3903C16.1589 14.4082 16.1035 14.4202 16.0473 14.4259ZM17.0997 13.8009L17.8671 14.7724C18.3787 14.4194 18.4565 14.1248 18.1683 13.7718C17.8801 13.4188 17.553 13.3735 17.0868 13.8009H17.0997ZM16.3711 16.8481L15.3997 16.4952L15.7915 17.4472L16.3711 16.8481Z" fill="#FBFBFB"/>
<path d="M53.3276 42.5273C53.0783 42.9936 52.8322 43.4566 52.5602 43.9618C52.5149 43.8809 52.4954 43.8582 52.4987 43.8452C52.6411 43.4081 52.5278 43.4405 52.2267 43.2721C51.673 42.9482 51.1063 42.6762 50.5493 42.3686C50.3389 42.252 50.1802 42.2488 50.0539 42.4787C50.0539 42.5046 49.9989 42.5143 49.9082 42.5694C49.9343 42.4844 49.9657 42.4011 50.0021 42.32C50.4815 41.4877 50.9002 40.6219 51.2553 39.7294C51.3163 39.5705 51.3979 39.4202 51.4981 39.2825C51.5925 39.138 51.7314 39.0281 51.8939 38.9697C52.0564 38.9112 52.2335 38.9074 52.3983 38.9587C52.5633 39.0064 52.707 39.1093 52.8054 39.2501C52.9038 39.391 52.951 39.5613 52.939 39.7327C52.939 39.7618 52.939 39.791 52.939 39.859C53.4928 39.6906 54.0885 39.7003 54.6293 39.3246C54.5969 39.4509 54.571 39.5351 54.5516 39.6193C54.5233 39.854 54.4076 40.0693 54.2275 40.2223C54.0475 40.3754 53.8163 40.4549 53.5802 40.4451C53.3247 40.4773 53.0731 40.5347 52.829 40.6167C52.7486 40.6478 52.6716 40.6869 52.5991 40.7333V40.8078C52.9229 40.9373 53.2467 41.0733 53.5705 41.1866C53.6191 41.2028 53.713 41.1316 53.768 41.0798C53.8174 41.0248 53.8599 40.9639 53.8943 40.8984C53.9655 41.0312 53.5705 42.1192 53.3309 42.4107C53.3189 42.3345 53.3189 42.2569 53.3309 42.1808C53.3449 42.1524 53.3526 42.1214 53.3534 42.0897C53.3541 42.0581 53.348 42.0267 53.3353 41.9977C53.3227 41.9687 53.3039 41.9428 53.2802 41.9218C53.2565 41.9009 53.2284 41.8854 53.1981 41.8764C52.5019 41.5882 51.8057 41.3 51.1063 41.0247C50.912 40.947 50.7566 41.0571 50.6497 41.3291C50.5817 41.5007 50.6983 41.5849 50.831 41.6529C51.4366 41.9768 52.0421 42.3006 52.6476 42.6244C52.9131 42.7669 52.939 42.7572 53.143 42.5175C53.1675 42.4966 53.1947 42.4792 53.224 42.4657L53.3276 42.5273ZM52.4274 40.7365C52.5278 40.4386 52.68 40.1731 52.4631 39.9108C52.3774 39.803 52.2626 39.7219 52.1324 39.6771C52.0022 39.6324 51.8619 39.6258 51.728 39.6582C51.4333 39.7262 51.3556 40.0014 51.2682 40.267L52.4274 40.7365Z" fill="#FBFBFB"/>
<path d="M46.8937 46.6954L47.3762 47.2783L47.347 47.3754C46.6994 46.8476 46.3303 47.2944 45.9158 47.6992L46.6865 48.5606C47.0848 48.2789 46.9747 47.9453 46.7933 47.5891L46.8808 47.5503C47.2046 47.9291 47.5575 48.3048 47.8943 48.6804L47.8587 48.7614C47.5349 48.5476 47.2111 48.3404 46.8484 48.729C47.088 48.9913 47.3179 49.2568 47.5705 49.5029C47.6223 49.5547 47.7583 49.5386 47.849 49.5256C47.9396 49.5126 47.9655 49.4576 48.053 49.4608C47.6993 49.8512 47.3173 50.2149 46.9099 50.5489L46.8581 50.51C46.8581 50.4744 46.8581 50.4258 46.897 50.4032C47.088 50.2348 47.0362 50.0793 46.897 49.9142C46.4372 49.409 45.9838 48.9039 45.5337 48.3922C45.3783 48.2173 45.2358 48.1623 45.048 48.3372C45.0286 48.3598 44.9865 48.3598 44.9606 48.3695C44.9347 48.3793 44.9379 48.3436 44.9379 48.3372C44.9348 48.3233 44.9348 48.3089 44.9379 48.2951C44.9471 48.2751 44.9591 48.2566 44.9736 48.24C46.2214 47.1976 47.3625 46.0336 48.38 44.7654L49.0568 45.3807L49.0211 45.481C48.7686 45.3547 48.5095 45.2058 48.2602 45.3807C48.0346 45.5558 47.8184 45.7428 47.6126 45.9409L48.4998 46.731C48.8722 46.4072 48.7297 46.0833 48.529 45.7595C48.9572 46.0502 49.3495 46.3904 49.6979 46.7731C49.3385 46.65 48.9823 46.4493 48.6876 46.9026C48.9499 47.1325 49.209 47.3722 49.4875 47.5859C49.5457 47.6312 49.6849 47.5859 49.7821 47.5665C49.8792 47.547 49.8857 47.492 49.9375 47.4531L50.0088 47.5244L48.9628 48.7096L48.8851 48.661C48.9051 48.6085 48.9312 48.5585 48.9628 48.512C48.9887 48.4852 49.0082 48.4529 49.02 48.4176C49.0318 48.3822 49.0355 48.3447 49.0308 48.3077C49.0261 48.2708 49.0132 48.2353 48.9931 48.204C48.9729 48.1727 48.946 48.1462 48.9143 48.1267L47.2467 46.663C47.2246 46.6359 47.1961 46.6146 47.1638 46.6011C47.1316 46.5875 47.0964 46.5821 47.0616 46.5853C47.0267 46.5885 46.9932 46.6002 46.9639 46.6194C46.9347 46.6386 46.9106 46.6647 46.8937 46.6954Z" fill="#FBFBFB"/>
<path d="M40.3679 12.8973C40.6917 13.0819 40.7662 12.8358 40.8633 12.648L41.4461 11.5049C41.5077 11.3818 41.5174 11.2782 41.3425 11.2135L41.145 11.6441H41.0867C41.0802 11.5821 41.0704 11.5205 41.0576 11.4596C41.0487 11.3595 41.0189 11.2624 40.9701 11.1746C40.8115 10.9738 40.669 11.003 40.5751 11.2361C40.4294 11.5988 40.2837 11.9615 40.1412 12.3242C39.9987 12.6869 40.0052 12.6674 40.193 12.9524L39.1665 12.5411L39.1406 12.4602C39.5162 12.567 39.5519 12.3047 39.6361 12.091C39.8012 11.6668 39.9599 11.2426 40.1444 10.8151C39.8206 10.6144 39.6005 10.7504 39.4029 11.0062L39.3511 10.9479L39.5713 10.3877C40.5265 10.7195 41.4516 11.1323 42.3366 11.6215C41.7829 11.5502 41.9027 12.0781 41.634 12.2983L42.2816 12.6221C42.3923 12.4325 42.4875 12.2343 42.5665 12.0295C42.5956 11.9356 42.5115 11.806 42.4694 11.6733C43.3307 12.0165 44.0884 12.58 44.9012 13.0787L44.5482 13.6259H44.4446C44.6583 13.1305 44.3831 12.9071 43.9913 12.7192L43.5736 13.3669C43.8618 13.5612 44.0042 13.3118 44.1888 13.2017L44.2471 13.2471L43.6545 14.1829L43.5897 14.157C43.5897 13.9465 43.7776 13.7037 43.4699 13.5288C43.3469 13.7296 43.2174 13.9239 43.1105 14.1311C43.0878 14.1732 43.1332 14.2833 43.1817 14.3222C43.2998 14.4367 43.4544 14.506 43.6184 14.5178C43.7825 14.5297 43.9454 14.4833 44.0787 14.3869C44.1143 14.3643 44.1532 14.3481 44.1888 14.3286L44.2438 14.3805C44.0981 14.5488 43.9524 14.7043 43.8002 14.8759C43.8002 14.8759 43.716 14.8759 43.6804 14.8403L41.5465 13.5774C41.5271 13.5774 41.5206 13.5417 41.4882 13.4997C41.5311 13.493 41.5748 13.493 41.6178 13.4997C41.6407 13.5124 41.6662 13.5199 41.6924 13.5217C41.7186 13.5234 41.7449 13.5194 41.7693 13.5098C41.7938 13.5002 41.8158 13.4853 41.8338 13.4662C41.8518 13.4471 41.8654 13.4242 41.8736 13.3993C41.9578 13.2341 42.0517 13.0754 42.1197 12.9038C42.128 12.8707 42.1276 12.836 42.1185 12.8031C42.1095 12.7702 42.092 12.7401 42.0679 12.716C41.9072 12.6233 41.7418 12.539 41.5724 12.4634C41.4501 12.6863 41.3419 12.9167 41.2486 13.1532C41.226 13.2244 41.3263 13.341 41.4008 13.5094L40.3776 12.9848L40.3679 12.8973ZM42.4985 13.9433C42.5435 13.9164 42.5839 13.8825 42.6183 13.8429C42.9011 13.4111 43.1807 12.9686 43.457 12.5152C43.5444 12.376 43.457 12.2983 43.3501 12.2303C43.3291 12.2117 43.3038 12.1986 43.2765 12.1921C43.2492 12.1855 43.2208 12.1858 43.1936 12.1928C43.1664 12.1999 43.1414 12.2134 43.1207 12.2324C43.1 12.2513 43.0843 12.2751 43.0749 12.3015C42.9972 12.444 42.9227 12.5897 42.8482 12.7322C42.6896 13.056 42.5244 13.3507 42.3787 13.6583C42.3172 13.7814 42.3204 13.8882 42.4985 13.9433Z" fill="#FBFBFB"/>
<path d="M48.9529 15.4691C49.2785 15.624 49.5519 15.8705 49.7397 16.1783C49.6782 16.1783 49.6232 16.1783 49.594 16.1783C49.5593 16.1498 49.519 16.1289 49.4757 16.1168C49.4325 16.1048 49.3871 16.1018 49.3427 16.1082C49.2982 16.1146 49.2556 16.1302 49.2175 16.154C49.1793 16.1777 49.1466 16.2092 49.1213 16.2463C48.5773 16.799 48.0311 17.3516 47.4828 17.9043C47.4278 17.9626 47.3695 18.0144 47.3112 18.0662L47.2335 18.0435L47.5217 14.87C47.0521 15.359 46.6117 15.8156 46.1746 16.2754C46.1275 16.3292 46.1015 16.3982 46.1015 16.4697C46.1015 16.5412 46.1275 16.6103 46.1746 16.664C46.2135 16.7197 46.2308 16.7876 46.2232 16.8551L44.3516 15.3169L44.3807 15.2651C44.4164 15.2651 44.4649 15.2651 44.4876 15.2845C44.6883 15.44 44.8308 15.3752 44.9733 15.1906C45.378 14.6725 45.7958 14.1641 46.2038 13.646C46.424 13.3707 46.4207 13.3675 46.2038 13.089C46.1913 13.0657 46.1825 13.0406 46.1778 13.0145L46.2297 12.9595L47.5054 13.9698C47.4148 14.0022 47.3889 14.0184 47.376 14.0119C47.0198 13.8629 47.0198 13.8597 46.7672 14.1738L45.5626 15.6828C45.4849 15.7832 45.3683 15.8933 45.4946 16.0293C45.5241 16.0701 45.5614 16.1046 45.6044 16.1307C45.6473 16.1569 45.695 16.1743 45.7448 16.1818C45.7945 16.1893 45.8453 16.1869 45.894 16.1746C45.9428 16.1623 45.9887 16.1405 46.0289 16.1103C46.0799 16.0664 46.1285 16.0199 46.1746 15.971C46.5891 15.5501 47.0003 15.1259 47.4148 14.7016C47.6382 14.475 47.648 14.3778 47.5022 14.0993C47.4845 14.053 47.4704 14.0054 47.4601 13.9569C47.5273 13.9859 47.5913 14.0217 47.6512 14.0637C47.8455 14.2483 48.0398 14.4296 48.2211 14.6272C48.2758 14.6908 48.3037 14.7733 48.2988 14.8571C48.2438 15.4529 48.1757 16.0455 48.1142 16.6414C48.1142 16.7353 48.1142 16.8292 48.1142 16.9878C48.438 16.6316 48.7618 16.3208 49.05 15.9872C49.1083 15.9192 49.05 15.7573 49.05 15.6407C49.0276 15.5785 48.9947 15.5204 48.9529 15.4691Z" fill="#FBFBFB"/>
<path d="M55.6397 29.3123C55.6622 29.3641 55.6785 29.4185 55.6883 29.4742C55.7077 30.0732 55.7304 30.6723 55.7336 31.2714C55.7395 31.4426 55.6926 31.6114 55.5994 31.755C55.5061 31.8987 55.371 32.0102 55.2123 32.0745C55.0346 32.1488 54.8353 32.1527 54.6548 32.0853C54.4744 32.018 54.3263 31.8844 54.2408 31.7118C54.206 31.6477 54.1746 31.5818 54.1469 31.5143C53.726 31.9255 53.1755 32.1619 52.8517 32.6962C52.8225 32.6476 52.7837 32.6088 52.7805 32.5667C52.7805 32.3109 52.7546 32.0518 52.7578 31.7927C52.7751 31.7235 52.8164 31.6627 52.8744 31.6211C53.1982 31.3491 53.5641 31.0868 53.9041 30.8116C53.9689 30.748 54.0265 30.6774 54.0757 30.6011L54.0368 30.5363C53.713 30.5525 53.3601 30.559 53.0266 30.5978C52.9586 30.5978 52.8938 30.7338 52.8452 30.8148C52.7967 30.8958 52.8258 30.9346 52.7707 30.9961C52.6884 30.4895 52.643 29.9776 52.6348 29.4645L52.706 29.445C52.7319 29.4871 52.7772 29.5292 52.7805 29.5713C52.7805 29.7883 52.9327 29.8433 53.1043 29.8336C53.8037 29.798 54.5064 29.7527 55.2058 29.7235C55.4163 29.7235 55.5296 29.6458 55.5296 29.4224C55.5296 29.3867 55.5587 29.3511 55.5749 29.3155L55.6397 29.3123ZM54.2732 30.5137C54.2732 30.8375 54.2732 31.103 54.5323 31.2746C54.658 31.3367 54.7976 31.3654 54.9377 31.358C55.0777 31.3506 55.2135 31.3074 55.3321 31.2325C55.5879 31.0318 55.5328 30.7565 55.5231 30.5137H54.2732Z" fill="#FBFBFB"/>
<path d="M8.75618 36.7635C8.81123 36.8056 8.84361 36.8153 8.85332 36.8379C9.01846 37.1294 9.04112 37.1423 9.35198 37.0581C9.97693 36.893 10.6019 36.7149 11.2301 36.5595C11.4664 36.4979 11.6057 36.4008 11.5539 36.1352C11.5477 36.1141 11.5477 36.0916 11.5539 36.0705C11.5539 36.0705 11.5733 36.0543 11.6122 36.0251C11.6398 36.08 11.6647 36.1362 11.6866 36.1935C11.8226 36.7084 11.9748 37.2168 12.0785 37.7382C12.1223 37.9675 12.0998 38.2045 12.0137 38.4214C11.9711 38.5249 11.9015 38.615 11.8122 38.6824C11.7229 38.7497 11.6172 38.7919 11.506 38.8045C11.3949 38.8171 11.2824 38.7996 11.1803 38.7538C11.0783 38.7081 10.9903 38.6358 10.9257 38.5445L10.7994 38.3826C10.7869 38.5163 10.7674 38.6492 10.7411 38.7809C10.7161 38.8992 10.6602 39.0087 10.579 39.0983C10.4979 39.1879 10.3944 39.2544 10.2792 39.2909C10.164 39.3274 10.0411 39.3328 9.92317 39.3063C9.80521 39.2799 9.69639 39.2226 9.6078 39.1403C9.41209 38.9525 9.26246 38.722 9.17065 38.4668C8.99903 37.981 8.8857 37.4759 8.75294 36.9772C8.74547 36.9061 8.74656 36.8343 8.75618 36.7635ZM10.3914 37.5536C10.087 37.6346 9.77294 37.7155 9.46208 37.8062C9.26132 37.8645 9.22245 37.9584 9.30664 38.1591C9.33824 38.2386 9.38667 38.3103 9.4486 38.3693C9.51053 38.4283 9.5845 38.4731 9.66541 38.5008C9.74632 38.5285 9.83226 38.5384 9.91734 38.5297C10.0024 38.521 10.0846 38.494 10.1583 38.4506C10.2384 38.413 10.3092 38.3582 10.3657 38.2902C10.4223 38.2221 10.4631 38.1425 10.4854 38.0568C10.5076 37.9712 10.5108 37.8817 10.4945 37.7947C10.4783 37.7078 10.4431 37.6254 10.3914 37.5536ZM10.6504 37.4856C10.6828 37.5763 10.7023 37.654 10.7346 37.7252C10.79 37.8613 10.8972 37.9699 11.0326 38.027C11.1681 38.0841 11.3206 38.085 11.4567 38.0296C11.5928 37.9742 11.7014 37.867 11.7585 37.7316C11.8156 37.5962 11.8165 37.4436 11.7611 37.3075C11.7471 37.2826 11.727 37.2618 11.7026 37.2471C11.6782 37.2323 11.6504 37.2241 11.6219 37.2233C11.3045 37.3043 10.9872 37.3949 10.6504 37.4856Z" fill="#FBFBFB"/>
<path d="M12.1554 25.7113C12.1295 25.6692 12.1133 25.6562 12.1133 25.6433C12.149 25.2482 12.149 25.245 11.7895 25.096C11.2088 24.8607 10.6271 24.6276 10.0442 24.3966C9.7204 24.2735 9.72039 24.2768 9.54878 24.552C9.54878 24.5747 9.51317 24.5876 9.44193 24.6524C9.43602 24.5845 9.43602 24.5163 9.44193 24.4484C9.62974 23.9918 9.80136 23.5287 10.0086 23.0786C10.5979 21.806 11.9871 22.0845 12.5731 22.7548C12.7368 22.9473 12.8448 23.1809 12.8853 23.4303C12.9258 23.6797 12.8974 23.9355 12.8031 24.1699C12.6476 24.6459 12.4404 25.1057 12.2493 25.5688C12.2258 25.621 12.1941 25.6691 12.1554 25.7113ZM10.0636 23.5773L12.2493 24.4581C12.4112 24.5229 12.4954 24.4387 12.5505 24.2897C12.6017 24.1326 12.5976 23.9626 12.5386 23.8082C12.4797 23.6538 12.3696 23.5243 12.2267 23.4413C11.8842 23.1801 11.4808 23.0107 11.0545 22.9491C10.5137 22.8584 10.1737 23.0818 10.0636 23.5773Z" fill="#FBFBFB"/>
<path d="M22.4923 53.6835C22.06 53.6883 21.6424 53.5259 21.3269 53.2303C21.0113 52.9346 20.8222 52.5285 20.7988 52.0967C20.7984 51.6751 20.9609 51.2696 21.2523 50.9649C21.5437 50.6602 21.9416 50.4798 22.3628 50.4614C22.7948 50.4669 23.209 50.6349 23.5228 50.932C23.8366 51.229 24.0271 51.6333 24.0563 52.0644C24.0472 52.4815 23.8811 52.8799 23.5912 53.1801C23.3013 53.4802 22.9089 53.6599 22.4923 53.6835ZM21.4756 52.6472C21.4565 52.7796 21.4813 52.9147 21.5462 53.0316C21.6111 53.1486 21.7125 53.2411 21.835 53.2949C21.9755 53.3662 22.1372 53.3839 22.2898 53.3445C22.4424 53.3052 22.5754 53.2116 22.6639 53.0812C23.0094 52.6942 23.2492 52.2246 23.3601 51.7179C23.4216 51.5639 23.4264 51.3931 23.3736 51.2359C23.3208 51.0787 23.2139 50.9454 23.0719 50.8597C22.9435 50.7826 22.7923 50.7524 22.6441 50.7743C22.4959 50.7961 22.3599 50.8687 22.2592 50.9795C21.8101 51.4261 21.5327 52.0165 21.4756 52.6472Z" fill="#FBFBFB"/>
<path d="M55.4266 27.8747C55.422 28.0785 55.3769 28.2794 55.2938 28.4656C55.2108 28.6518 55.0915 28.8196 54.9429 28.9592C54.7943 29.0987 54.6193 29.2073 54.4283 29.2785C54.2372 29.3498 54.0339 29.3822 53.8302 29.374C53.6156 29.3686 53.4042 29.3205 53.2083 29.2327C53.0125 29.1448 52.836 29.0188 52.6893 28.8621C52.5425 28.7055 52.4284 28.5211 52.3536 28.3199C52.2787 28.1187 52.2446 27.9046 52.2533 27.6901C52.2561 27.4806 52.301 27.2738 52.3854 27.0821C52.4698 26.8904 52.592 26.7176 52.7446 26.574C52.8971 26.4305 53.0771 26.3192 53.2736 26.2466C53.4701 26.1741 53.6793 26.1419 53.8885 26.1519C54.8017 26.1552 55.4298 26.8676 55.4266 27.8747ZM53.3801 28.5741C53.8955 28.577 54.4033 28.45 54.8567 28.205C54.9744 28.1458 55.0713 28.052 55.1344 27.9363C55.1974 27.8206 55.2237 27.6884 55.2096 27.5573C55.1997 27.411 55.1383 27.2729 55.0364 27.1674C54.9345 27.0619 54.7986 26.9959 54.6527 26.9809C54.3753 26.9469 54.0947 26.9469 53.8173 26.9809C53.432 27.0119 53.063 27.1498 52.7519 27.3792C52.661 27.4523 52.5915 27.5485 52.5507 27.6578C52.5099 27.7671 52.4995 27.8854 52.5204 28.0002C52.5413 28.115 52.5927 28.2219 52.6694 28.3099C52.7461 28.3978 52.8451 28.4634 52.9559 28.4997C53.0959 28.532 53.2375 28.5569 53.3801 28.5741Z" fill="#FBFBFB"/>
<path d="M14.496 20.6956C14.496 20.7603 14.5155 20.8381 14.496 20.8866C14.1237 21.5505 13.7448 22.2111 13.366 22.8717C13.3319 22.9209 13.2928 22.9665 13.2494 23.0077C13.2202 22.9623 13.2041 22.9494 13.2041 22.9397C13.3141 22.564 13.3174 22.564 12.9644 22.36C12.4043 22.0362 11.8408 21.7318 11.2903 21.4048C11.0863 21.2849 10.9374 21.2752 10.8111 21.4954C10.7917 21.5246 10.7464 21.5375 10.6719 21.531C10.6901 21.4747 10.7117 21.4196 10.7366 21.3659C11.0928 20.7377 11.4555 20.1095 11.8084 19.478C11.8764 19.3549 11.938 19.3193 12.0675 19.397C12.2832 19.5201 12.4919 19.6553 12.6924 19.8018C12.4269 19.8698 12.1355 19.6852 11.9218 19.9119C11.7081 20.1386 11.598 20.3329 11.394 20.579L12.4269 21.1748C12.7021 20.7442 12.3492 20.5272 12.1031 20.2908C12.2877 20.2487 13.4145 20.8704 13.5473 21.0874C13.2235 21.055 12.8414 20.8413 12.6212 21.2914C12.9159 21.4598 13.204 21.6152 13.4955 21.7771C13.5192 21.7921 13.5459 21.8017 13.5737 21.8053C13.6014 21.8089 13.6297 21.8065 13.6564 21.7982C13.6832 21.7899 13.7078 21.7759 13.7287 21.7572C13.7495 21.7384 13.7661 21.7154 13.7772 21.6897C14.0719 21.2169 14.2046 20.8057 13.7772 20.3167C13.763 20.2967 13.7531 20.2741 13.7481 20.2501C13.7431 20.2262 13.7431 20.2014 13.748 20.1775C14.0185 20.3185 14.269 20.4949 14.4928 20.702L14.496 20.6956Z" fill="#FBFBFB"/>
<path d="M14.4962 20.6949C14.4946 20.6798 14.4946 20.6646 14.4962 20.6496C14.6192 20.2286 14.6225 20.2286 14.2598 19.9598L12.8772 18.9268C12.5857 18.7131 12.5857 18.7164 12.3008 18.9268C12.2608 18.9395 12.2195 18.9471 12.1777 18.9495C12.1982 18.89 12.2242 18.8325 12.2554 18.7779C12.5113 18.4314 12.7606 18.0816 13.0261 17.7449C13.1413 17.6005 13.274 17.4711 13.4211 17.3595C13.5537 17.256 13.7166 17.1987 13.8848 17.1964C14.053 17.194 14.2173 17.2468 14.3527 17.3466C14.4881 17.4464 14.5871 17.5878 14.6347 17.7492C14.6822 17.9105 14.6757 18.083 14.616 18.2403C14.5019 18.5016 14.3722 18.7557 14.2274 19.0013C14.4865 19.1859 14.7617 19.3899 15.0499 19.5777C15.0985 19.6101 15.2118 19.5777 15.2863 19.5324C15.3608 19.4871 15.3867 19.4417 15.4838 19.4158C15.4838 19.4579 15.4838 19.5097 15.4611 19.5421C15.2053 19.8951 14.9463 20.248 14.6808 20.5945C14.6354 20.6496 14.561 20.6658 14.4962 20.6949ZM13.0391 18.1238C13.3013 18.318 13.5474 18.5059 13.8 18.6872C13.8712 18.7358 14.0137 18.807 14.0331 18.7844C14.1055 18.7048 14.1528 18.6057 14.1691 18.4994C14.2015 18.2533 14.0137 18.0137 13.7029 17.8712C13.6438 17.8381 13.5782 17.8184 13.5106 17.8134C13.4431 17.8084 13.3753 17.8183 13.312 17.8424C13.2487 17.8665 13.1914 17.9042 13.1443 17.9528C13.0971 18.0014 13.0612 18.0598 13.0391 18.1238Z" fill="#FBFBFB"/>
<path d="M39.8932 51.9895C40.149 52.5529 40.3918 53.1229 40.6671 53.6766C40.7092 53.7673 40.8743 53.8061 40.9909 53.8417C41.0524 53.8644 41.1269 53.8417 41.2079 53.8223C40.9267 54.0772 40.5762 54.2428 40.2008 54.2983C40.23 54.2562 40.2429 54.2109 40.2753 54.1947C40.3212 54.174 40.362 54.1436 40.3949 54.1055C40.4279 54.0675 40.4521 54.0227 40.466 53.9743C40.4799 53.9259 40.483 53.8751 40.4753 53.8253C40.4675 53.7756 40.449 53.7282 40.421 53.6863C40.1523 53.084 39.8867 52.4849 39.6212 51.8826C39.5847 51.8009 39.5217 51.734 39.4422 51.6928C39.3628 51.6517 39.2718 51.6386 39.1841 51.6559C39.1281 51.6641 39.0712 51.6502 39.0254 51.6171C39.0608 51.5803 39.1011 51.5487 39.1452 51.5232C39.3823 51.4026 39.6254 51.2946 39.8738 51.1993C39.9817 51.167 40.0981 51.1786 40.1976 51.2317C40.7319 51.5005 41.2597 51.779 41.7907 52.0575L42.0692 52.1935C41.8555 51.7304 41.6774 51.3256 41.4798 50.9273C41.373 50.7168 41.1561 50.7978 40.9812 50.8237C41.0362 50.6586 41.658 50.3574 41.9073 50.3639C41.9073 50.3898 41.9073 50.4319 41.8846 50.4416C41.6061 50.6067 41.6806 50.8205 41.7875 51.0504C42.0854 51.698 42.3768 52.3748 42.6682 53.0354C42.7092 53.1234 42.7354 53.2175 42.7459 53.3139C42.2661 53.1337 41.8006 52.9172 41.3535 52.6663C40.8808 52.4331 40.4178 52.1935 39.9482 51.9571L39.8932 51.9895Z" fill="#FBFBFB"/>
<path d="M24.37 51.3423C24.4376 51.3481 24.5047 51.3589 24.5707 51.3747C25.2507 51.5949 25.9275 51.8248 26.6107 52.0385C26.7661 52.0871 26.8115 52.1518 26.75 52.3073C26.6751 52.53 26.5831 52.7465 26.4747 52.9549C26.4326 52.6829 26.4747 52.3818 26.2092 52.2263C25.9437 52.0709 25.7235 51.9964 25.445 51.8669L25.0726 52.9906C25.5292 53.2334 25.7461 52.9161 25.9663 52.6117L26.0279 52.67L25.5616 54.1045H25.4806C25.4859 53.923 25.4696 53.7414 25.4321 53.5637C25.3985 53.4725 25.3389 53.3932 25.2606 53.3356C25.1823 53.278 25.0887 53.2447 24.9917 53.2399C24.8881 53.5637 24.7812 53.8875 24.6873 54.2114C24.6742 54.2431 24.668 54.2773 24.6692 54.3116C24.6704 54.3459 24.679 54.3795 24.6944 54.4102C24.7097 54.4409 24.7315 54.468 24.7582 54.4895C24.7849 54.5111 24.8159 54.5267 24.8492 54.5352C24.8958 54.5569 24.9402 54.5829 24.982 54.6129C24.8363 54.6906 23.6867 54.3441 23.418 54.1337C23.4888 54.1232 23.5608 54.1232 23.6317 54.1337C23.6632 54.15 23.6982 54.1586 23.7338 54.1587C23.7693 54.1589 23.8044 54.1505 23.836 54.1343C23.8677 54.1182 23.8951 54.0947 23.9159 54.0659C23.9366 54.037 23.9502 54.0037 23.9555 53.9685C24.1951 53.2561 24.4293 52.5415 24.6582 51.8248C24.6725 51.7936 24.6798 51.7597 24.6795 51.7254C24.6793 51.6911 24.6714 51.6573 24.6566 51.6263C24.6418 51.5954 24.6203 51.5681 24.5937 51.5465C24.5671 51.5248 24.536 51.5093 24.5027 51.501C24.4532 51.479 24.4056 51.453 24.3603 51.4232L24.37 51.3423Z" fill="#FBFBFB"/>
<path d="M8.37388 31.135C8.39303 31.1984 8.40604 31.2634 8.41273 31.3293C8.41002 31.363 8.41489 31.3969 8.42698 31.4285C8.43907 31.4601 8.45807 31.4886 8.4826 31.5119C8.50713 31.5352 8.53656 31.5527 8.56873 31.5631C8.6009 31.5735 8.63501 31.5766 8.66854 31.5722C9.31615 31.5916 9.96377 31.611 10.6114 31.6175C10.7274 31.6193 10.8399 31.5784 10.9277 31.5025C11.0155 31.4267 11.0723 31.3213 11.0874 31.2062C11.1273 31.0545 11.1141 30.8936 11.0499 30.7505C10.9857 30.6073 10.8743 30.4904 10.7344 30.4194C10.5975 30.3626 10.4518 30.3297 10.3038 30.3222C9.81805 30.2963 9.33233 30.2833 8.84338 30.2736C8.51958 30.2736 8.5034 30.2736 8.41273 30.5975C8.41273 30.6234 8.38358 30.6428 8.33824 30.7238V29.613H8.39007C8.41698 29.6421 8.43789 29.6762 8.45159 29.7134C8.5034 29.9757 8.56168 30.0372 8.83368 30.0372C9.35825 30.0599 9.88281 30.1052 10.4041 30.115C11.0097 30.115 11.3982 30.6072 11.3756 31.2807C11.3721 31.4576 11.3437 31.6331 11.2914 31.8021C11.2278 31.9941 11.1009 32.1589 10.9315 32.2695C10.7621 32.3801 10.5602 32.4299 10.3588 32.4109C9.83423 32.4109 9.30967 32.385 8.7851 32.3655C8.55844 32.3655 8.36416 32.3655 8.34797 32.657C8.34797 32.6796 8.31235 32.6991 8.2832 32.7315V31.1415L8.37388 31.135Z" fill="#FBFBFB"/>
<path d="M18.4671 47.7568L19.7235 48.6862L19.6814 48.7607C19.6261 48.7486 19.5727 48.729 19.5228 48.7024C19.3576 48.5729 19.2378 48.6376 19.1309 48.7801C18.7748 49.2691 18.4089 49.7516 18.0591 50.247C17.969 50.3431 17.9188 50.4699 17.9188 50.6016C17.9188 50.7334 17.969 50.8602 18.0591 50.9562C18.1561 51.0741 18.2895 51.1566 18.4383 51.1905C18.5872 51.2245 18.7431 51.2082 18.8816 51.144C18.9689 51.1028 19.0463 51.0432 19.1083 50.9692C19.4677 50.5029 19.8239 50.0301 20.1768 49.5573C20.2013 49.5288 20.2196 49.4957 20.2308 49.4599C20.242 49.4241 20.2457 49.3864 20.2417 49.3491C20.2378 49.3118 20.2263 49.2757 20.2079 49.243C20.1895 49.2103 20.1646 49.1817 20.1347 49.159C20.1025 49.1207 20.0722 49.0807 20.0441 49.0392C20.3967 49.1449 20.7064 49.3605 20.9281 49.6544C20.8989 49.6544 20.8698 49.6739 20.8471 49.6544C20.5039 49.5443 20.4877 49.5476 20.2772 49.8261C19.9534 50.2308 19.6717 50.6486 19.3479 51.0436C19.1956 51.2462 18.9702 51.3813 18.7198 51.42C18.4693 51.4587 18.2137 51.398 18.0073 51.2509C17.9 51.186 17.7982 51.1124 17.703 51.0307C17.5983 50.9568 17.5099 50.8623 17.4433 50.7529C17.3766 50.6435 17.3331 50.5215 17.3155 50.3946C17.2979 50.2677 17.3066 50.1386 17.3409 50.0152C17.3752 49.8917 17.4345 49.7767 17.5152 49.6771C17.7936 49.2756 18.0915 48.887 18.3797 48.4952C18.6679 48.1033 18.6323 48.1487 18.4186 47.8216L18.4671 47.7568Z" fill="#FBFBFB"/>
<path d="M8.82106 26.5986L9.79249 26.7735V26.8674C9.67592 26.8901 9.55936 26.9127 9.44279 26.9419C9.26349 26.9779 9.10283 27.0765 8.98953 27.22C8.87623 27.3636 8.81765 27.5428 8.82431 27.7255C8.83134 27.79 8.85202 27.8522 8.88496 27.908C8.9179 27.9639 8.96235 28.012 9.01536 28.0494C9.07547 28.071 9.13976 28.0785 9.20323 28.0712C9.26671 28.0639 9.32765 28.042 9.38126 28.0073C9.59822 27.8065 9.76336 27.5571 9.97384 27.3596C10.1468 27.1612 10.3541 26.9956 10.5858 26.8706C10.7103 26.8274 10.843 26.813 10.9739 26.8284C11.1048 26.8439 11.2304 26.8889 11.3414 26.96C11.4524 27.031 11.5458 27.1264 11.6146 27.2388C11.6834 27.3512 11.7258 27.4778 11.7386 27.609C11.756 27.8647 11.7173 28.1211 11.6253 28.3602C11.4731 28.7488 11.4504 28.7391 11.5314 29.1083L10.398 28.8913V28.8071C10.4713 28.7842 10.5459 28.7658 10.6215 28.7521C10.8604 28.7491 11.0893 28.6555 11.2618 28.4902C11.4344 28.3249 11.5377 28.1002 11.5508 27.8615C11.5602 27.7797 11.5413 27.697 11.4971 27.6274C11.4528 27.5579 11.3861 27.5056 11.3079 27.4794C11.1605 27.4509 11.0077 27.4762 10.8773 27.5507C10.744 27.6543 10.6263 27.7764 10.5275 27.9134C10.3948 28.0656 10.2782 28.2372 10.139 28.37C10.0038 28.5348 9.81318 28.6447 9.60284 28.6793C9.39249 28.7138 9.17677 28.6706 8.99593 28.5578C8.81926 28.4406 8.68792 28.2666 8.62372 28.0646C8.55953 27.8626 8.56632 27.6447 8.64297 27.4471C8.68524 27.3318 8.74298 27.2229 8.8146 27.1232C8.93117 26.9678 8.99594 26.8285 8.77575 26.6925L8.82106 26.5986Z" fill="#FBFBFB"/>
<path d="M54.7134 39.2406L53.6221 38.9362V38.8455C53.7128 38.8455 53.8002 38.8229 53.8877 38.8196C54.1033 38.82 54.313 38.7486 54.4836 38.6167C54.6542 38.4848 54.7761 38.2998 54.83 38.091C54.8574 38.0017 54.8549 37.9059 54.8227 37.8182C54.7906 37.7304 54.7305 37.6557 54.6519 37.6053C54.5807 37.5551 54.4943 37.5313 54.4075 37.5378C54.3206 37.5443 54.2388 37.5807 54.1759 37.6409C53.9751 37.8125 53.7938 38.0068 53.606 38.1979C53.5073 38.3273 53.3837 38.4355 53.2424 38.5162C53.1011 38.5968 52.945 38.6483 52.7835 38.6674C52.6484 38.6737 52.5138 38.6482 52.3904 38.593C52.267 38.5378 52.1582 38.4544 52.0729 38.3495C51.9876 38.2446 51.928 38.1212 51.899 37.9892C51.87 37.8571 51.8724 37.7201 51.906 37.5891C51.9676 37.3936 52.0593 37.209 52.178 37.0418C52.2719 36.8896 52.4176 36.7633 52.1456 36.6079C52.4915 36.626 52.8335 36.6903 53.1623 36.799V36.8896C53.0779 36.9084 52.9925 36.9224 52.9065 36.9317C52.7089 36.9327 52.5187 37.0077 52.3737 37.142C52.2286 37.2763 52.1391 37.4601 52.1229 37.6571C52.1277 37.7267 52.1469 37.7946 52.1792 37.8565C52.2115 37.9184 52.2563 37.9729 52.3107 38.0165C52.3736 38.0357 52.4397 38.0416 52.5049 38.0338C52.5702 38.026 52.633 38.0047 52.6896 37.9712C52.8273 37.8725 52.9524 37.7572 53.062 37.628C53.2271 37.4661 53.3858 37.2879 53.5509 37.1455C53.6907 37.0106 53.8718 36.9267 54.065 36.9073C54.2583 36.8879 54.4525 36.9341 54.6162 37.0386C54.7852 37.1539 54.915 37.3179 54.9885 37.5088C55.0619 37.6997 55.0756 37.9084 55.0275 38.1072C54.9973 38.2353 54.9516 38.3593 54.8915 38.4764C54.7652 38.7063 54.4997 38.8941 54.7749 39.2179L54.7134 39.2406Z" fill="#FBFBFB"/>
<path d="M33.3807 8.44845C33.3516 9.07991 33.3257 9.61745 33.303 10.1582C33.303 10.3849 33.303 10.6148 33.303 10.8447C33.303 11.0747 33.3484 11.1945 33.5912 11.1945C33.6236 11.1945 33.6592 11.2301 33.7434 11.2754H32.1082V11.1815C32.155 11.1626 32.2039 11.1495 32.2539 11.1427C32.4579 11.1427 32.5324 11.0261 32.5421 10.848C32.5745 10.1323 32.5971 9.41669 32.636 8.6978C32.636 8.49055 32.5648 8.44521 32.3802 8.45816C32.2612 8.45791 32.145 8.49408 32.0472 8.56181C31.9493 8.62954 31.8746 8.72558 31.8329 8.83704L31.7131 9.12848C31.671 9.03133 31.6387 8.99248 31.6387 8.95038C31.6387 8.75933 31.6387 8.56503 31.6387 8.37398C31.6387 8.24768 31.7002 8.20559 31.82 8.21206L34.1903 8.30921C34.3295 8.30921 34.391 8.37073 34.3781 8.51645C34.3554 8.73017 34.3457 8.9439 34.3328 9.1641H34.2712C34.202 8.97966 34.1013 8.80871 33.9733 8.65893C33.7897 8.55461 33.5891 8.48337 33.3807 8.44845Z" fill="#FBFBFB"/>
<path d="M19.6299 11.9261C19.4583 12.1075 19.2737 12.2241 19.2089 12.3892C19.1747 12.6037 19.1747 12.8223 19.2089 13.0369C19.0091 12.8133 18.8402 12.5639 18.707 12.2953L19.8047 11.6476C20.1609 11.4339 20.5204 11.2267 20.8701 11C21.0028 10.919 21.0741 10.9352 21.1453 11.0712C21.2581 11.2651 21.3576 11.4663 21.4432 11.6735C21.0708 11.3918 20.7146 11.2396 20.3228 11.625L21.563 13.691C21.5769 13.7196 21.5969 13.7448 21.6215 13.7649C21.6461 13.785 21.6748 13.7996 21.7055 13.8076C21.7363 13.8156 21.7684 13.8169 21.7997 13.8112C21.831 13.8056 21.8607 13.7933 21.8868 13.7752C21.9411 13.7499 21.9974 13.7293 22.0552 13.7136L22.1005 13.8011L20.7406 14.6139L20.6855 14.5523C20.7235 14.5004 20.7669 14.4526 20.815 14.4099C20.8418 14.394 20.865 14.3729 20.8832 14.3477C20.9015 14.3225 20.9144 14.2938 20.921 14.2634C20.9277 14.2331 20.9281 14.2016 20.9221 14.1711C20.9161 14.1406 20.9039 14.1116 20.8863 14.086C20.488 13.3769 20.08 12.6904 19.6299 11.9261Z" fill="#FBFBFB"/>
<path d="M50.3269 17.237C50.0776 16.7707 49.7246 16.7027 49.2648 16.9715V16.8484L49.9124 16.3174L51.593 18.4708L50.9259 18.9857L50.8806 18.9436C50.9766 18.7715 51.0423 18.5842 51.0749 18.3899C51.0364 18.181 50.9642 17.9798 50.8612 17.794L49.744 18.6651C49.4915 18.8626 49.2486 19.0634 48.9896 19.2512C48.8018 19.3905 48.7402 19.5362 48.8957 19.737C48.9151 19.7629 48.8957 19.8082 48.9184 19.8471L48.8503 19.8859L47.8789 18.6392L47.9275 18.5874C47.9631 18.5874 48.0117 18.6036 48.0311 18.6295C48.1768 18.8173 48.3225 18.8076 48.5006 18.6651C49.1029 18.1891 49.7117 17.7195 50.3269 17.237Z" fill="#FBFBFB"/>
<path d="M17.6249 46.7505C17.5731 46.9092 17.5472 46.9966 17.5149 47.0743C17.2591 47.7576 16.9968 48.4376 16.7474 49.1241C16.6406 49.422 16.456 49.7102 16.6244 50.0535L16.5531 50.0924L15.5072 49.0723L15.5493 49.014C15.5815 49.0152 15.6133 49.0217 15.6432 49.0335C15.8958 49.2018 15.9152 49.1954 16.0286 48.9201C16.1808 48.5477 16.1808 48.5477 15.8893 48.2725C15.805 48.2005 15.726 48.1226 15.653 48.0393C15.6295 48 15.598 47.966 15.5605 47.9398C15.523 47.9135 15.4803 47.8955 15.4353 47.8869C15.3904 47.8783 15.3441 47.8794 15.2995 47.8901C15.255 47.9007 15.2132 47.9207 15.177 47.9486C14.8855 48.0944 14.8532 48.1494 15.0248 48.4279C15.0345 48.4498 15.0395 48.4735 15.0395 48.4975C15.0395 48.5215 15.0345 48.5452 15.0248 48.5671C14.7495 48.3579 14.5034 48.1129 14.293 47.8385C14.7301 47.9907 15.0669 47.7446 15.4198 47.6119C16.0674 47.3722 16.6956 47.1099 17.3335 46.8606L17.6249 46.7505ZM16.6211 47.3722L15.708 47.7382L16.2488 48.3372L16.6211 47.3722Z" fill="#FBFBFB"/>
<path d="M51.3259 45.8564L50.756 46.6918L50.6912 46.6724C50.7333 46.0021 50.2346 45.5844 49.9562 45.0533C49.6777 44.5222 49.383 44.111 49.0527 43.5767C49.3085 43.6155 49.4996 43.6382 49.7003 43.6706C50.4386 43.8066 51.1737 43.9588 51.9152 44.0786C52.1321 44.0874 52.3493 44.0722 52.5628 44.0333L51.7371 45.2508L51.6724 45.2185C51.6675 45.1873 51.6675 45.1557 51.6724 45.1245C51.7889 44.8363 51.7922 44.8266 51.4943 44.7683C51.0312 44.6744 51.1704 44.6032 50.879 45.0047C50.8143 45.0954 50.7527 45.1861 50.6912 45.28C50.6495 45.3317 50.62 45.3921 50.605 45.4568C50.59 45.5215 50.5898 45.5888 50.6044 45.6536C50.6191 45.7183 50.6481 45.779 50.6895 45.8309C50.7309 45.8829 50.7835 45.9248 50.8434 45.9535C50.9212 45.9753 51.0044 45.9672 51.0765 45.9309C51.1418 45.8901 51.1999 45.8386 51.2482 45.7787L51.3259 45.8564ZM50.8564 44.6582L49.8493 44.4672L50.3933 45.3383L50.8564 44.6582Z" fill="#FBFBFB"/>
<path d="M40.1459 54.3923L38.747 54.7971L38.7114 54.7194C38.7548 54.6883 38.8002 54.6601 38.8474 54.6352C39.019 54.5672 39.0288 54.4765 38.9219 54.334C38.6369 53.9584 38.6434 53.9551 38.1739 54.0847L37.9408 54.1462C37.6169 54.2433 37.5392 54.3891 37.6007 54.7291C37.6021 54.7568 37.6094 54.7839 37.6221 54.8085C37.6348 54.8332 37.6527 54.8548 37.6745 54.872C37.6962 54.8892 37.7215 54.9015 37.7484 54.9081C37.7754 54.9148 37.8034 54.9155 37.8307 54.9104H38.0476C37.7649 55.1158 37.4256 55.2289 37.0762 55.2342C37.5327 54.674 37.4 53.9681 37.5425 53.3302C37.6364 52.8898 37.672 52.4396 37.7368 51.996C37.7611 51.925 37.7925 51.8566 37.8307 51.792C37.8748 51.8762 37.9245 51.9574 37.9796 52.0349C38.4621 52.6145 38.951 53.1974 39.4303 53.7706C39.631 54.0069 39.7767 54.3113 40.1686 54.3146L40.1459 54.3923ZM37.6688 54.0069L38.4588 53.7706L37.8112 52.9934C37.7562 53.3496 37.7173 53.654 37.6688 53.9972V54.0069Z" fill="#FBFBFB"/>
<path d="M44.1445 52.427C44.4133 51.7793 44.0732 51.1479 44.0052 50.51C43.9567 50.0793 43.8466 49.6551 43.7689 49.2147C43.7619 49.136 43.7619 49.0569 43.7689 48.9783C43.8757 49.0333 43.9567 49.0722 44.0344 49.1208L45.8088 50.212C45.9615 50.3165 46.1217 50.4096 46.2881 50.4905C46.4659 50.5488 46.6477 50.5943 46.8321 50.6265C46.4208 50.9342 46.0193 51.2127 45.6081 51.4782L45.5692 51.4231C45.5692 51.4037 45.5692 51.3778 45.5692 51.3649C45.7926 51.0928 45.7829 51.1058 45.4883 50.8888C45.2907 50.7463 45.1386 50.7172 44.9508 50.8888C44.8247 50.9918 44.6916 51.086 44.5525 51.1706C44.5067 51.2163 44.4709 51.271 44.4471 51.3311C44.4234 51.3913 44.4122 51.4557 44.4143 51.5203C44.4164 51.585 44.4318 51.6485 44.4595 51.707C44.4872 51.7655 44.5265 51.8177 44.5751 51.8603C44.6348 51.8815 44.7 51.8815 44.7597 51.8603C44.8313 51.8398 44.9016 51.8149 44.9702 51.7858L45.0188 51.8733L44.1866 52.4497L44.1445 52.427ZM45.0155 50.6168L44.1477 50.0696L44.342 51.0799L45.0155 50.6168Z" fill="#FBFBFB"/>
<path d="M35.3764 55.461C35.399 55.4383 35.412 55.4092 35.4347 55.3994C35.7391 55.2731 35.7585 55.2246 35.7067 54.9105L35.3829 53.0647C35.3181 52.702 35.3181 52.702 34.9555 52.6567C34.936 52.6567 34.9198 52.6372 34.9004 52.5919C35.4049 52.4436 35.9202 52.3353 36.4417 52.2681L36.4644 52.3264C36.4287 52.3523 36.3964 52.3944 36.3575 52.4008C36.1211 52.4397 36.0855 52.6016 36.1212 52.7959C36.2442 53.4856 36.3705 54.1722 36.4935 54.8619C36.5292 55.0691 36.6263 55.1857 36.8562 55.1307C36.8914 55.1304 36.9264 55.1359 36.9598 55.1469C36.84 55.3055 35.5966 55.5419 35.3764 55.461Z" fill="#FBFBFB"/>
<path d="M37.3052 10.5727C37.3121 10.7209 37.2894 10.869 37.2384 11.0082C37.1873 11.1475 37.109 11.2752 37.008 11.3838C36.9069 11.4923 36.7852 11.5797 36.65 11.6406C36.5147 11.7015 36.3687 11.7348 36.2204 11.7385C36.0669 11.7454 35.9135 11.7216 35.7693 11.6684C35.6252 11.6152 35.4931 11.5337 35.3809 11.4287C35.2686 11.3237 35.1785 11.1974 35.1158 11.057C35.0532 10.9167 35.0192 10.7652 35.0159 10.6116C35.0098 10.32 35.1189 10.0378 35.3195 9.82625C35.5202 9.61466 35.7962 9.49076 36.0877 9.48145C36.813 9.48145 37.3019 9.92184 37.3052 10.5727ZM35.5534 10.8447L35.6149 10.8642C35.6068 10.9525 35.6068 11.0414 35.6149 11.1297C35.6212 11.2218 35.6557 11.3096 35.7136 11.3815C35.7715 11.4533 35.8501 11.5056 35.9387 11.5313C36.0279 11.5599 36.1242 11.5579 36.2122 11.5256C36.3001 11.4934 36.3748 11.4327 36.4244 11.3531C36.6673 10.9678 36.767 10.5093 36.7061 10.0579C36.6967 9.95682 36.6537 9.86185 36.584 9.78815C36.5142 9.71446 36.4218 9.66629 36.3215 9.65136C36.2211 9.63644 36.1186 9.65562 36.0304 9.70583C35.9422 9.75605 35.8735 9.83439 35.8351 9.92832C35.7283 10.2262 35.6505 10.5403 35.5437 10.8447H35.5534Z" fill="#FBFBFB"/>
<path d="M38.9433 10.8381C38.8397 10.3426 38.7426 10.2552 38.2018 10.1742L37.9914 10.919C38.3152 11.0518 38.4512 10.8445 38.5872 10.6341L38.6454 10.6859L38.3572 11.6962H38.2828C38.2861 11.638 38.2861 11.5796 38.2828 11.5213C38.2697 11.4213 38.2379 11.3246 38.1889 11.2364C38.0529 11.0712 37.9525 11.1004 37.8942 11.3044C37.8618 11.4112 37.8392 11.5213 37.8003 11.6282C37.7291 11.8225 37.7258 11.9876 37.9784 12.0686L37.9428 12.1366L36.8839 11.8452L36.8516 11.7772C37.2887 11.8387 37.2466 11.5019 37.3243 11.2752C37.4215 10.9838 37.4992 10.6826 37.5801 10.3815C37.6319 10.1775 37.7809 9.94755 37.3891 9.83422L37.4636 9.78564C37.5283 9.78564 37.5931 9.80507 37.6578 9.82126C38.1047 9.95079 38.5483 10.09 38.9984 10.2034C39.1765 10.252 39.2089 10.3264 39.1409 10.4851C39.0729 10.6438 39.0599 10.7409 39.0211 10.8705L38.9433 10.8381Z" fill="#FBFBFB"/>
<path d="M12.0626 26.5661C12.0601 26.6703 12.0172 26.7695 11.9428 26.8426C11.8685 26.9158 11.7686 26.9571 11.6644 26.9579C11.5641 26.9571 11.4683 26.9169 11.3974 26.846C11.3265 26.7751 11.2864 26.6792 11.2855 26.579C11.2833 26.5293 11.2911 26.4797 11.3085 26.433C11.3258 26.3864 11.3523 26.3437 11.3864 26.3075C11.4205 26.2713 11.4616 26.2422 11.5071 26.2221C11.5526 26.202 11.6017 26.1913 11.6514 26.1904C11.7031 26.1878 11.7549 26.1955 11.8036 26.213C11.8524 26.2305 11.8971 26.2575 11.9354 26.2925C11.9736 26.3274 12.0046 26.3696 12.0264 26.4165C12.0483 26.4635 12.0606 26.5143 12.0626 26.5661Z" fill="#FBFBFB"/>
<path d="M11.4953 29.4155C11.4979 29.4674 11.49 29.5194 11.472 29.5682C11.454 29.617 11.4264 29.6616 11.3907 29.6995C11.355 29.7373 11.312 29.7675 11.2643 29.7882C11.2166 29.809 11.1652 29.8199 11.1132 29.8203C11.0127 29.8157 10.9175 29.7741 10.8458 29.7036C10.7741 29.6331 10.7309 29.5385 10.7246 29.4382C10.7242 29.3867 10.7339 29.3357 10.7532 29.288C10.7725 29.2403 10.801 29.1968 10.8371 29.1601C10.8732 29.1234 10.9161 29.0942 10.9635 29.0741C11.0109 29.0541 11.0617 29.0435 11.1132 29.0431C11.1631 29.0409 11.213 29.0489 11.2597 29.0667C11.3065 29.0845 11.349 29.1117 11.3848 29.1466C11.4206 29.1815 11.4489 29.2234 11.4679 29.2696C11.4869 29.3158 11.4962 29.3655 11.4953 29.4155Z" fill="#FBFBFB"/>
<path d="M30.3636 16.0548L30.111 15.8605C29.9811 15.7772 29.8799 15.6561 29.8209 15.5136C29.762 15.371 29.7481 15.2137 29.7813 15.063C29.8145 14.9123 29.8931 14.7754 30.0064 14.6708C30.1198 14.5661 30.2626 14.4988 30.4154 14.4778C30.6176 14.4346 30.8258 14.4269 31.0307 14.4551C31.1537 14.4759 31.2681 14.5319 31.3601 14.6162C31.452 14.7005 31.5177 14.8096 31.5492 14.9303C31.5807 15.0511 31.5766 15.1783 31.5375 15.2968C31.4983 15.4153 31.4258 15.52 31.3286 15.5982C31.2703 15.6435 31.2185 15.6921 31.1537 15.7471L31.403 15.9382C31.5456 16.0407 31.6531 16.1845 31.711 16.3502C31.769 16.5159 31.7745 16.6954 31.7269 16.8643C31.686 17.0313 31.5943 17.1815 31.4643 17.2941C31.3344 17.4066 31.1726 17.476 31.0015 17.4926C30.7857 17.5202 30.5668 17.5115 30.3539 17.4667C30.2222 17.4379 30.1028 17.3688 30.0122 17.269C29.9217 17.1691 29.8645 17.0435 29.8487 16.9097C29.825 16.7814 29.8382 16.649 29.887 16.528C29.9357 16.407 30.0179 16.3024 30.124 16.2264C30.1888 16.1811 30.2665 16.1163 30.3636 16.0548ZM30.5449 16.1455C30.4615 16.2838 30.4098 16.4389 30.3935 16.5996C30.3773 16.7603 30.3969 16.9226 30.451 17.0748C30.4608 17.1258 30.481 17.1743 30.5104 17.2171C30.5398 17.2599 30.5778 17.2961 30.6219 17.3235C30.666 17.3509 30.7153 17.3688 30.7668 17.3762C30.8182 17.3836 30.8705 17.3802 30.9206 17.3663C31.0184 17.3315 31.0996 17.2614 31.1482 17.1696C31.1967 17.0779 31.2091 16.9712 31.1829 16.8708C31.1391 16.7082 31.0581 16.558 30.9463 16.4321C30.8344 16.3062 30.6948 16.208 30.5385 16.1455H30.5449ZM30.9529 15.6338C31.0252 15.5115 31.0678 15.374 31.0773 15.2323C31.0869 15.0906 31.0631 14.9487 31.008 14.8178C30.9956 14.7708 30.9732 14.7271 30.9425 14.6895C30.9117 14.6519 30.8732 14.6213 30.8296 14.5998C30.7861 14.5784 30.7384 14.5665 30.6899 14.565C30.6413 14.5634 30.593 14.5724 30.5482 14.5911C30.4595 14.6297 30.3892 14.7013 30.3523 14.7907C30.3155 14.8802 30.3149 14.9805 30.3507 15.0704C30.4078 15.199 30.4899 15.315 30.5922 15.4117C30.6944 15.5084 30.8149 15.5839 30.9465 15.6338H30.9529Z" fill="#FBFBFB"/>
<path d="M24.7481 32.2722V32.5184L13.4375 32.3208V32.0747L24.7481 32.2722Z" fill="#FBFBFB"/>
<path d="M36.6708 15.0022C36.5284 15.6175 36.3859 16.2198 36.2467 16.8318L36.496 16.929L36.4021 17.3402L36.143 17.3078L35.9746 17.9555L35.4047 17.8162L35.5407 17.1686L34.5078 16.9193C34.512 16.7944 34.543 16.6718 34.5989 16.56C34.6548 16.4483 34.7342 16.3499 34.8316 16.2716C35.3206 15.8798 35.803 15.4653 36.2661 15.054C36.3138 14.9948 36.3826 14.9564 36.4581 14.9467C36.5335 14.9371 36.6097 14.9569 36.6708 15.0022ZM35.9196 15.5624L34.8089 16.5145L35.6508 16.7055L35.9196 15.5624Z" fill="#FBFBFB"/>
<path d="M32.0664 17.3695C32.3902 17.0198 32.6687 16.7218 32.9472 16.398C33.1894 16.1556 33.3424 15.8383 33.381 15.4978C33.3997 15.3875 33.3824 15.2741 33.3317 15.1744C33.2809 15.0746 33.1995 14.9939 33.0993 14.944C32.9937 14.8974 32.8757 14.8868 32.7634 14.9137C32.6511 14.9406 32.5507 15.0036 32.4776 15.093C32.4467 15.1324 32.4216 15.176 32.4032 15.2225L32.3125 15.161C32.374 15.0162 32.4488 14.8775 32.5359 14.7465C32.6294 14.6164 32.759 14.5164 32.9085 14.4589C33.0581 14.4013 33.2212 14.3888 33.3778 14.4227C33.5346 14.4418 33.6813 14.5095 33.7975 14.6164C33.9137 14.7233 33.9934 14.8639 34.0255 15.0185C34.0519 15.1881 34.0362 15.3616 33.9797 15.5237C33.9232 15.6858 33.8277 15.8314 33.7017 15.9479C33.4394 16.2717 33.1544 16.5502 32.8694 16.8611C33.1382 16.8611 33.4491 16.8935 33.7534 16.8611C33.8473 16.8611 33.9315 16.7283 34.0772 16.6182L33.8506 17.4893L32.0664 17.3695Z" fill="#FBFBFB"/>
<path d="M28.2388 14.74C28.4201 15.4913 28.5885 16.1842 28.7537 16.8772C28.7796 16.9776 28.8022 17.078 28.8281 17.1784C28.9382 17.5929 28.9576 17.6058 29.3721 17.6317L27.8664 17.9977C27.8664 17.9523 27.8664 17.9264 27.8664 17.9264C28.3554 17.7678 28.2582 17.6479 28.174 17.2788C28.0607 16.7833 27.9409 16.2879 27.8178 15.7957C27.7272 15.4168 27.6624 15.3909 27.3224 15.5593C27.3031 15.5626 27.2834 15.5626 27.2641 15.5593L27.2285 15.5107L28.2388 14.74Z" fill="#FBFBFB"/>
<path d="M48.8211 29.105C48.5611 29.1146 48.3028 29.0586 48.0702 28.942C47.8376 28.8254 47.6381 28.652 47.4902 28.4379C48.0537 28.3472 48.5458 28.4671 48.8211 29.105ZM47.7169 28.5383C47.9241 28.9269 48.3095 28.9172 48.6657 29.0337C48.6371 28.9364 48.589 28.8458 48.5243 28.7676C48.4597 28.6894 48.3798 28.6252 48.2896 28.5789C48.1993 28.5325 48.1005 28.505 47.9993 28.498C47.8981 28.4911 47.7965 28.5048 47.7007 28.5383H47.7169Z" fill="#FBFBFB"/>
</svg>
