<svg width="64" height="64" viewBox="0 0 64 64" fill="none" xmlns="http://www.w3.org/2000/svg">
<rect width="64" height="64" rx="32" fill="#3C8FB7"/>
<path d="M31.7502 5.34542V5.41231H31.8483C31.8873 5.41047 31.9263 5.4165 31.963 5.43007C31.9997 5.44363 32.0335 5.46447 32.0623 5.49138C32.1092 5.58507 32.1238 5.69219 32.1039 5.79545L32.0772 7.39791C32.0868 7.4896 32.0713 7.58223 32.0326 7.66549C32.0037 7.69934 31.9673 7.72557 31.9264 7.74198C31.8856 7.75838 31.8414 7.76448 31.7978 7.75976H31.7056V7.83273L32.7994 7.85402V7.78104H32.6983C32.6206 7.78396 32.5448 7.75557 32.4873 7.70198C32.44 7.60844 32.4253 7.50116 32.4457 7.39791V6.67421C32.4644 6.67151 32.4834 6.67151 32.5022 6.67421H32.728L33.5781 7.85097H34.2676V7.78712C34.148 7.77282 34.032 7.73569 33.9258 7.67766C33.8099 7.58312 33.7096 7.47019 33.6286 7.34318L33.1114 6.62556C33.2909 6.60368 33.4592 6.52502 33.5929 6.40055C33.645 6.34887 33.6864 6.28693 33.7144 6.21848C33.7425 6.15002 33.7568 6.07646 33.7564 6.00222C33.762 5.86818 33.7161 5.73722 33.6286 5.63732C33.5439 5.53264 33.4298 5.45725 33.3017 5.42144C33.1076 5.37002 32.9077 5.34548 32.7072 5.34846L31.771 5.33325L31.7502 5.34542ZM31.0845 5.39103L29.111 5.55523V5.6282H29.2032C29.2437 5.61963 29.2855 5.6198 29.3259 5.6287C29.3663 5.6376 29.4045 5.65504 29.438 5.6799C29.4736 5.70727 29.4944 5.80153 29.5152 5.96268L29.6638 7.56514C29.6732 7.64493 29.6732 7.72558 29.6638 7.80536C29.6514 7.84343 29.6275 7.87645 29.5955 7.89963C29.5421 7.92834 29.4833 7.94494 29.4231 7.94828H29.331V8.01213L31.3014 7.84794L31.4649 7.20938H31.3847C31.334 7.33905 31.2627 7.45925 31.1736 7.56514C31.1267 7.62426 31.0651 7.66943 30.9953 7.6959C30.8991 7.72803 30.7992 7.74745 30.6981 7.75368L30.2642 7.79016C30.2149 7.79761 30.1649 7.79761 30.1156 7.79016C30.0929 7.77789 30.0736 7.76014 30.0591 7.73847C30.0387 7.6745 30.0267 7.60803 30.0235 7.54082L29.9462 6.72894L30.5138 6.6803C30.5937 6.66823 30.6748 6.66823 30.7546 6.6803C30.8031 6.69773 30.8449 6.73081 30.8735 6.77456C30.9126 6.84355 30.9369 6.92024 30.9448 6.99957H31.0161L30.9448 6.16642H30.8735C30.8833 6.22047 30.8806 6.27611 30.8656 6.3289C30.8506 6.3817 30.8238 6.43018 30.7873 6.47049C30.7016 6.53492 30.596 6.56519 30.4901 6.55563L29.9224 6.60732L29.8362 5.63429L30.5406 5.57652C30.6297 5.57018 30.719 5.57018 30.8081 5.57652C30.8669 5.59446 30.9188 5.63057 30.9567 5.6799C31.0137 5.7561 31.0533 5.84442 31.0726 5.93836H31.1499L31.0726 5.40319L31.0845 5.39103ZM34.2735 5.39103V5.45488C34.336 5.46414 34.3957 5.48695 34.4489 5.52178C34.4912 5.54692 34.5277 5.58116 34.5559 5.62212C34.5872 5.68978 34.6131 5.75995 34.6331 5.83194L35.3137 8.05775L35.3851 8.07295L36.5412 6.08736C36.5898 5.98567 36.6623 5.89791 36.7522 5.83194C36.8188 5.79746 36.8917 5.77777 36.9662 5.77416V5.71031L36.1875 5.61605V5.6799C36.1993 5.68274 36.2115 5.68274 36.2232 5.6799C36.2863 5.6916 36.345 5.72109 36.3926 5.76504C36.408 5.77821 36.4199 5.79515 36.4272 5.8143C36.4345 5.83344 36.4369 5.85414 36.4342 5.8745C36.4064 5.97505 36.3633 6.07049 36.3064 6.1573L35.5277 7.50129L35.0671 5.98093C35.03 5.88419 35.0128 5.78069 35.0165 5.67686C35.0189 5.6572 35.0258 5.63841 35.0366 5.62201C35.0475 5.60562 35.062 5.59211 35.079 5.58259C35.1528 5.54978 35.2337 5.53721 35.3137 5.54611V5.47921L34.2706 5.35758L34.2735 5.39103ZM32.7697 5.49745C32.9131 5.4984 33.0514 5.5524 33.159 5.64949C33.2543 5.75405 33.3055 5.89276 33.3017 6.03566C33.2991 6.10982 33.2807 6.18252 33.2478 6.24869C33.215 6.31486 33.1684 6.3729 33.1114 6.41879C32.9478 6.52812 32.7536 6.5794 32.5586 6.56475C32.5469 6.56721 32.5347 6.56721 32.523 6.56475H32.4576L32.4784 5.54003C32.5764 5.52007 32.6758 5.50786 32.7756 5.50353L32.7697 5.49745ZM28.374 5.62212H28.3026C28.3043 5.66471 28.2972 5.70719 28.2818 5.7468C28.2607 5.76847 28.2338 5.78328 28.2045 5.78936C28.1526 5.79488 28.1 5.78971 28.05 5.77416C27.903 5.73888 27.7508 5.73166 27.6012 5.75287C27.4051 5.78893 27.2286 5.89707 27.1049 6.05695C27.0528 6.12437 27.0153 6.20232 26.9948 6.28565C26.9743 6.36899 26.9713 6.45581 26.986 6.54042C27.0058 6.64015 27.0497 6.7332 27.1138 6.81105C27.1855 6.89112 27.2725 6.95528 27.3694 6.99957C27.5378 7.07504 27.7105 7.14003 27.8865 7.19418C28.036 7.23586 28.1829 7.28663 28.3264 7.34621C28.3996 7.37705 28.4647 7.42495 28.5166 7.48609C28.5606 7.53534 28.5923 7.59483 28.6087 7.65941C28.6188 7.71278 28.6171 7.76778 28.6037 7.82039C28.5904 7.873 28.5657 7.92188 28.5315 7.96348C28.4423 8.06806 28.3184 8.13522 28.1837 8.15201C28.0562 8.17726 27.9245 8.16995 27.8003 8.13072C27.6865 8.10842 27.5825 8.04988 27.5031 7.96348C27.4101 7.85487 27.3385 7.72892 27.2921 7.59252L27.2208 7.60772L27.3902 8.44088H27.4615C27.4488 8.40241 27.4488 8.36076 27.4615 8.32229C27.4771 8.30142 27.4991 8.28644 27.5239 8.27972C27.6045 8.27642 27.6851 8.28152 27.7647 8.29493C27.8487 8.31251 27.9346 8.31965 28.0203 8.3162C28.0921 8.31638 28.1638 8.30925 28.2343 8.29493C28.4416 8.26243 28.6305 8.15446 28.7663 7.99085C28.8234 7.91962 28.8645 7.83635 28.8866 7.747C28.9087 7.65764 28.9113 7.5644 28.8941 7.47393C28.8724 7.3785 28.8286 7.28983 28.7663 7.21546C28.6996 7.13023 28.614 7.06247 28.5166 7.01782C28.3427 6.93826 28.1628 6.87317 27.9787 6.82321C27.7609 6.77149 27.5523 6.68531 27.3605 6.56779C27.3291 6.54632 27.3024 6.51853 27.282 6.48611C27.2615 6.45369 27.2478 6.41732 27.2416 6.37926C27.2314 6.32969 27.2325 6.27837 27.2448 6.22931C27.2572 6.18026 27.2805 6.13479 27.3129 6.09648C27.3879 6.00343 27.4937 5.94176 27.6101 5.92315C27.724 5.90138 27.8414 5.90869 27.9519 5.94444C28.0647 5.97812 28.167 6.04096 28.2491 6.12689C28.3386 6.23113 28.4037 6.35489 28.4393 6.48873L28.5107 6.47352L28.3472 5.64037L28.374 5.62212ZM37.3645 5.81065L37.3437 5.8745L37.4358 5.88971C37.4953 5.90339 37.5512 5.93038 37.5993 5.96876C37.6242 5.99358 37.6434 6.02368 37.6557 6.05695C37.6549 6.14033 37.6429 6.2232 37.6201 6.30324L37.2723 7.86922C37.2614 7.96617 37.2277 8.059 37.1743 8.13985C37.1372 8.1627 37.0959 8.17769 37.0531 8.18396C37.0102 8.19023 36.9665 8.18764 36.9246 8.17633L36.8384 8.16113V8.22499L37.9024 8.45L37.9232 8.37702H37.8311C37.7734 8.36152 37.7197 8.33352 37.6736 8.29493C37.6414 8.2732 37.6189 8.2393 37.6112 8.20066C37.6137 8.12043 37.6257 8.04078 37.6468 7.96348L37.9946 6.38838C37.992 6.28743 38.0211 6.18831 38.0778 6.1056C38.1122 6.08047 38.152 6.06407 38.1939 6.05773C38.2357 6.05138 38.2784 6.05528 38.3185 6.06911H38.4047L38.4255 6.00222L37.3556 5.78633L37.3645 5.81065ZM25.179 6.36102L24.329 6.66509L24.3557 6.72894L24.436 6.70158C24.472 6.68335 24.5117 6.67387 24.5519 6.67387C24.5921 6.67387 24.6317 6.68335 24.6678 6.70158C24.7183 6.72286 24.7688 6.80192 24.8253 6.94788L25.3157 8.28276L23.2174 7.03606L22.5576 7.26107L22.5784 7.32797C22.6313 7.30736 22.6861 7.29209 22.7419 7.28236C22.8039 7.28122 22.8659 7.28838 22.9261 7.30365C23.0039 7.3272 23.078 7.36201 23.1461 7.40703L23.7405 9.0247C23.7808 9.10769 23.8002 9.19967 23.797 9.29228C23.7823 9.33383 23.7568 9.37049 23.7233 9.39835C23.6898 9.42621 23.6495 9.4442 23.6067 9.4504L23.5206 9.48081L23.5503 9.54466L24.3944 9.25579L24.3735 9.19194L24.2814 9.2193C24.2449 9.23757 24.2047 9.24706 24.164 9.24706C24.1233 9.24706 24.0832 9.23757 24.0466 9.2193C24.002 9.19802 23.9545 9.10984 23.904 8.96692L23.372 7.53778L25.6545 8.86354L25.7199 8.84833L25.0007 6.88402C24.961 6.80079 24.9417 6.70899 24.9442 6.61644C24.9631 6.57687 24.9901 6.54197 25.0235 6.51414C25.0568 6.48632 25.0957 6.46623 25.1374 6.45528L25.2206 6.41879L25.1998 6.36102H25.179ZM39.8164 6.36102C39.7022 6.35747 39.5881 6.37078 39.4776 6.40055C39.254 6.45103 39.0483 6.56361 38.8832 6.72591C38.7109 6.8925 38.5839 7.10208 38.5147 7.33406C38.4179 7.60609 38.4179 7.9043 38.5147 8.17633C38.5808 8.35446 38.6894 8.51286 38.8306 8.63712C38.9718 8.76138 39.141 8.84757 39.3231 8.88786C39.5256 8.95173 39.741 8.95908 39.9472 8.90915C40.1691 8.84909 40.3732 8.73424 40.5416 8.57467L40.4941 8.52298C40.3399 8.64747 40.1631 8.73945 39.974 8.7936C39.8241 8.82914 39.6676 8.82071 39.5222 8.76928C39.3514 8.72624 39.1965 8.63326 39.0764 8.50169C38.9598 8.37729 38.8866 8.21693 38.8684 8.04558C38.8495 7.84744 38.8718 7.64746 38.9337 7.45873C39.001 7.23717 39.1089 7.03077 39.2517 6.85058C39.3574 6.7199 39.498 6.62355 39.6564 6.57333C39.8147 6.5231 39.984 6.52117 40.1434 6.56779C40.3225 6.61372 40.4809 6.72103 40.5922 6.87186C40.7062 7.05233 40.7604 7.26557 40.7467 7.48L40.8032 7.50129L41.0023 6.6803L40.931 6.65901C40.9083 6.70672 40.8706 6.74526 40.824 6.76848C40.7957 6.78353 40.7633 6.78887 40.7318 6.78368C40.6942 6.76727 40.6606 6.74231 40.6338 6.7107C40.4968 6.57961 40.332 6.48282 40.1523 6.42792C40.0411 6.39468 39.9263 6.37628 39.8105 6.37318L39.8164 6.36102ZM41.5759 6.92356L41.5462 6.98741L41.6324 7.01782C41.6706 7.02962 41.706 7.04917 41.7366 7.07529C41.7673 7.10141 41.7925 7.13357 41.8107 7.16985C41.814 7.26917 41.7892 7.36735 41.7394 7.45264L41.0944 8.93956C41.0615 9.01388 41.0206 9.08424 40.9726 9.14937C40.9594 9.16532 40.943 9.17818 40.9246 9.1871C40.9061 9.19602 40.886 9.20077 40.8656 9.20106C40.8066 9.20034 40.7478 9.19321 40.6902 9.17977L40.604 9.13416L40.5773 9.20106L42.3992 9.93995L42.8509 9.45344L42.7796 9.42608C42.6677 9.51372 42.5472 9.58913 42.42 9.65109C42.3494 9.67626 42.2744 9.6856 42.2 9.67845C42.0981 9.66198 41.9983 9.63341 41.9028 9.59331L41.4986 9.43216C41.4536 9.41646 41.4122 9.39164 41.3768 9.35918C41.3599 9.33876 41.3504 9.31296 41.35 9.2862C41.3644 9.22048 41.3874 9.15707 41.4184 9.09767L41.7453 8.34357L42.2714 8.55338C42.3428 8.584 42.409 8.62608 42.4675 8.67805C42.5053 8.71367 42.5286 8.76251 42.5329 8.81489C42.5254 8.89398 42.5115 8.97229 42.4913 9.04902L42.5537 9.07031L42.9015 8.2858L42.839 8.25843C42.7957 8.35883 42.7172 8.43907 42.6191 8.48345C42.5172 8.49988 42.4128 8.48172 42.3219 8.43175L41.8048 8.22194L42.1941 7.30972L42.848 7.57123C42.9314 7.6043 43.0103 7.64825 43.0827 7.70198C43.1286 7.73982 43.1584 7.79427 43.166 7.85402C43.1719 7.94914 43.1629 8.04462 43.1392 8.1368L43.2105 8.16417L43.4008 7.65028L41.5789 6.91139L41.5759 6.92356ZM21.0359 7.89355L20.9884 7.91787L21.1072 10.1285C21.1266 10.2664 21.1195 10.4069 21.0864 10.542C21.0458 10.6031 20.9932 10.6549 20.9319 10.6941L20.9586 10.761L21.6898 10.4052L21.6541 10.3474C21.5797 10.3859 21.4964 10.4027 21.4134 10.3961C21.3937 10.3954 21.3746 10.3891 21.3582 10.3778C21.3419 10.3665 21.3291 10.3507 21.3212 10.3322C21.2947 10.2622 21.2797 10.1883 21.2766 10.1133L21.2499 9.69365L22.1415 9.26492L22.4387 9.51122C22.5135 9.56251 22.5765 9.62997 22.623 9.70886C22.6332 9.72632 22.6386 9.74629 22.6386 9.76664C22.6386 9.78698 22.6332 9.80695 22.623 9.82441C22.5798 9.88105 22.5237 9.92595 22.4595 9.95516L22.4952 10.019L23.3868 9.57811L23.3601 9.52034C23.2806 9.55952 23.1902 9.56919 23.1045 9.5477C22.9824 9.50481 22.8708 9.4353 22.7775 9.34397L21.0181 7.89355H21.0359ZM44.4648 8.19762C44.3936 8.19369 44.3223 8.20191 44.2537 8.22194C44.1679 8.24126 44.0868 8.27817 44.0153 8.33043C43.9438 8.38269 43.8834 8.44922 43.8377 8.52602C43.7896 8.61204 43.7649 8.70971 43.7663 8.80881C43.7675 8.91436 43.7919 9.0183 43.8377 9.11288C43.9182 9.27485 44.0106 9.43036 44.1141 9.57811C44.2478 9.7788 44.3251 9.90955 44.3548 9.96124C44.3885 10.0315 44.4077 10.1081 44.4113 10.1863C44.4126 10.2516 44.3983 10.3163 44.3697 10.3748C44.339 10.4229 44.2993 10.4644 44.2529 10.4967C44.2065 10.5291 44.1542 10.5517 44.0992 10.5633C43.9681 10.5916 43.8314 10.5689 43.7158 10.4995C43.5982 10.444 43.496 10.3593 43.4186 10.2532C43.3547 10.1642 43.3156 10.0591 43.3057 9.94908C43.3072 9.80763 43.3333 9.66758 43.3829 9.53554L43.3265 9.50513L42.9015 10.2532L42.9668 10.2836C43.0084 10.2379 43.0293 10.2106 43.059 10.2106C43.0706 10.2033 43.084 10.1995 43.0976 10.1995C43.1112 10.1995 43.1246 10.2033 43.1362 10.2106C43.2 10.2545 43.2588 10.3054 43.3116 10.3626C43.3695 10.4251 43.4311 10.484 43.4959 10.539C43.5524 10.5793 43.612 10.6149 43.6742 10.6454C43.8591 10.7525 44.0768 10.784 44.2835 10.7336C44.3751 10.7144 44.4618 10.6754 44.5376 10.6193C44.6135 10.5632 44.6768 10.4913 44.7233 10.4082C44.7713 10.3218 44.7978 10.2247 44.8006 10.1254C44.8001 10.0208 44.7789 9.91735 44.7382 9.82137C44.6494 9.65775 44.5501 9.50031 44.441 9.35006C44.3068 9.1751 44.2014 8.97893 44.1289 8.76928C44.1107 8.69545 44.1203 8.61732 44.1557 8.55035C44.1824 8.50643 44.2175 8.46846 44.2588 8.43869C44.3002 8.40891 44.347 8.38794 44.3964 8.37702C44.5136 8.34861 44.6368 8.3637 44.7441 8.41959C44.8481 8.47309 44.9363 8.5539 44.9997 8.65373C45.0662 8.74703 45.1054 8.85777 45.1127 8.973C45.1078 9.10973 45.0797 9.24454 45.0295 9.37134L45.0919 9.40782L45.5109 8.65373L45.4485 8.62332C45.4233 8.658 45.3879 8.68356 45.3475 8.6963C45.3334 8.7005 45.3186 8.70132 45.3041 8.69868C45.2897 8.69604 45.276 8.69002 45.2642 8.6811C45.2345 8.6811 45.1989 8.63853 45.1573 8.58076C45.064 8.45739 44.9478 8.35406 44.8155 8.27668C44.7043 8.22021 44.5828 8.18809 44.4588 8.18241L44.4648 8.19762ZM21.1845 8.45912L22.0345 9.17065L21.241 9.5477L21.1845 8.45912ZM19.4013 8.76319L18.8069 9.15545L19.1754 11.2444L17.2911 10.1467L16.6967 10.5481L16.7383 10.6059C16.798 10.5576 16.8684 10.5252 16.9434 10.5116C16.9882 10.5 17.0352 10.5 17.0801 10.5116C17.1473 10.561 17.2047 10.6229 17.2495 10.6941L18.1916 12.0289C18.2506 12.0978 18.2924 12.1802 18.3135 12.2691C18.3103 12.3124 18.2959 12.3541 18.2719 12.3898C18.2479 12.4256 18.2151 12.4543 18.1768 12.4729L18.0995 12.5215L18.1411 12.5793L18.8871 12.0867L18.8425 12.035L18.7652 12.0867C18.7333 12.1114 18.6969 12.1292 18.6581 12.1392C18.6192 12.1491 18.5789 12.1509 18.5394 12.1445C18.4888 12.1445 18.4175 12.0593 18.3343 11.9347L17.3684 10.5724L19.3983 11.7522L19.4458 11.7249L19.0565 9.48081L20.0195 10.843C20.0762 10.9134 20.1178 10.9953 20.1413 11.0833C20.1387 11.1267 20.1246 11.1686 20.1005 11.2045C20.0764 11.2404 20.0433 11.2689 20.0046 11.287L19.9273 11.3387L19.9689 11.3965L20.8606 10.7883L20.8249 10.7366L20.7476 10.7822C20.717 10.8093 20.6806 10.8286 20.6414 10.8386C20.6022 10.8486 20.5612 10.8491 20.5217 10.84C20.4712 10.84 20.3999 10.761 20.3077 10.6363L19.3656 9.30141C19.3062 9.23052 19.2644 9.14603 19.2437 9.05511C19.2487 9.01156 19.2644 8.97 19.2893 8.93436C19.3143 8.89872 19.3477 8.87017 19.3864 8.85138L19.4577 8.80272L19.4161 8.75104L19.4013 8.76319ZM45.9359 10.1558C45.888 10.1538 45.8401 10.1616 45.7951 10.1788C45.7502 10.196 45.709 10.2222 45.6741 10.256C45.6392 10.2897 45.6113 10.3302 45.5919 10.3752C45.5726 10.4201 45.5622 10.4686 45.5615 10.5177C45.5626 10.5667 45.5732 10.6149 45.5927 10.6597C45.6122 10.7045 45.6402 10.7448 45.675 10.7785C45.7098 10.8121 45.7508 10.8384 45.7956 10.8557C45.8404 10.8731 45.8881 10.8812 45.9359 10.8795H45.9716H45.9924H46.0132H46.034H46.0489H46.0697H46.0845L46.1054 10.8643H46.1202V10.8491H46.1351V10.8339V10.8187V10.8035V10.7792V10.764V10.7427V10.7275V10.7062V10.691V10.6545C46.1335 10.6054 46.1226 10.5571 46.1027 10.5123C46.0829 10.4675 46.0547 10.4272 46.0196 10.3936C45.9846 10.36 45.9434 10.3338 45.8984 10.3164C45.8535 10.2991 45.8056 10.2911 45.7576 10.2927L45.9359 10.1558ZM47.9986 10.2714L47.957 10.3231L48.0283 10.3809C48.06 10.3991 48.0868 10.4249 48.1065 10.4562C48.1262 10.4875 48.1381 10.5232 48.1412 10.5603C48.1267 10.665 48.0761 10.7609 47.9986 10.8309L47.3923 11.5789C47.2495 11.7319 47.1302 11.9062 47.0386 12.0958C46.9865 12.2505 46.9865 12.4186 47.0386 12.5732C47.1337 12.7658 47.2708 12.9333 47.4394 13.063C47.6079 13.1927 47.8033 13.2811 48.0104 13.3212C48.172 13.3396 48.3353 13.3089 48.48 13.2331C48.6432 13.1218 48.7885 12.9853 48.911 12.8286L49.5648 12.0502C49.6188 11.9751 49.689 11.9137 49.7699 11.8708C49.8139 11.8549 49.8611 11.851 49.907 11.8595C49.9529 11.8681 49.9958 11.8887 50.0315 11.9195L50.1028 11.9803L50.1444 11.9195L49.4489 11.3782L49.4073 11.436L49.4787 11.4846C49.5112 11.5063 49.5384 11.5355 49.558 11.5698C49.5776 11.6041 49.5891 11.6426 49.5916 11.6823C49.5916 11.7309 49.55 11.8191 49.4489 11.9347L48.7772 12.707C48.6652 12.8657 48.5226 12.9992 48.3582 13.0993C48.2368 13.1575 48.1007 13.1756 47.9688 13.151C47.8153 13.1233 47.6712 13.0563 47.5498 12.9564C47.4572 12.8951 47.3831 12.8088 47.3358 12.707C47.297 12.627 47.2806 12.5375 47.2882 12.4486C47.3012 12.3393 47.34 12.235 47.4012 12.1445C47.4572 12.0527 47.5198 11.9653 47.5884 11.883L48.2987 11.0407C48.3554 10.9658 48.4274 10.9046 48.5098 10.8613C48.5505 10.8509 48.5932 10.8507 48.6341 10.8608C48.6749 10.8709 48.7128 10.8908 48.7446 10.9191L48.8218 10.9768L48.8664 10.9252L48.0134 10.2653L47.9986 10.2714ZM16.3311 10.837L15.6654 11.4177L15.707 11.4694L15.7783 11.4025C15.8079 11.3749 15.8426 11.3536 15.8804 11.34C15.9182 11.3264 15.9583 11.3208 15.9982 11.3235C16.0931 11.361 16.1763 11.4241 16.239 11.5059L16.9344 12.2509C17.0663 12.3857 17.1784 12.5394 17.2673 12.707C17.3099 12.83 17.3099 12.9642 17.2673 13.0871C17.2133 13.2312 17.1231 13.3581 17.0058 13.455C16.9211 13.5341 16.8192 13.5915 16.7086 13.6223C16.6193 13.6403 16.5274 13.6403 16.4381 13.6223C16.3358 13.5894 16.2402 13.5379 16.1558 13.4702C16.0674 13.3992 15.984 13.322 15.9061 13.2391L15.1631 12.4425C15.092 12.3794 15.0377 12.2988 15.0056 12.2083C15.0015 12.1663 15.0088 12.124 15.0266 12.086C15.0445 12.0479 15.0721 12.0156 15.1066 11.9924L15.1779 11.9256L15.1274 11.883L14.319 12.5854L14.3606 12.6371L14.432 12.5793C14.4582 12.5507 14.49 12.5281 14.5253 12.5129C14.5607 12.4977 14.5987 12.4903 14.637 12.4911C14.7375 12.5258 14.8262 12.5891 14.8926 12.6736L15.5584 13.3912C15.6928 13.5556 15.8536 13.6955 16.0339 13.8047C16.1847 13.8846 16.3559 13.9154 16.5243 13.8929C16.736 13.8433 16.9315 13.7385 17.092 13.5888C17.2545 13.4598 17.3756 13.284 17.4397 13.0841C17.4923 12.9389 17.4923 12.7792 17.4397 12.634C17.3485 12.4567 17.2312 12.2946 17.092 12.1536L16.3965 11.4056C16.326 11.3476 16.2725 11.2708 16.242 11.1836C16.2329 11.1405 16.2359 11.0957 16.2506 11.0543C16.2653 11.0129 16.2912 10.9765 16.3252 10.9495L16.4054 10.8856L16.3549 10.8339L16.3311 10.837ZM50.5724 12.5428C50.3934 12.5365 50.2189 12.6007 50.0849 12.7222C50.0148 12.7945 49.961 12.8817 49.9274 12.9776C49.9004 13.0765 49.8933 13.18 49.9066 13.2817C49.9358 13.4592 49.9785 13.6341 50.0344 13.8047C50.1058 14.0358 50.1474 14.1818 50.1563 14.2395C50.1654 14.3199 50.1603 14.4012 50.1414 14.4798C50.1227 14.5403 50.0889 14.5948 50.0433 14.6379C50.0045 14.6774 49.958 14.7082 49.9068 14.7281C49.8556 14.748 49.8008 14.7566 49.7461 14.7534C49.6118 14.7454 49.4854 14.6857 49.3925 14.5862C49.2996 14.4985 49.2292 14.3889 49.1874 14.2669C49.1503 14.1625 49.1451 14.049 49.1725 13.9415C49.2148 13.8058 49.2791 13.6784 49.3627 13.5645L49.3152 13.5128L48.697 14.121L48.7475 14.1726C48.7788 14.1436 48.8184 14.1255 48.8605 14.121C48.8737 14.1208 48.8869 14.1234 48.8992 14.1287C48.9114 14.1339 48.9225 14.1416 48.9318 14.1514C48.9794 14.2126 49.0222 14.2777 49.0596 14.346C49.0948 14.4214 49.1345 14.4945 49.1785 14.5649C49.2207 14.6186 49.2664 14.6694 49.3152 14.7169C49.4624 14.872 49.6627 14.9625 49.8739 14.9693C49.9681 14.9753 50.0625 14.9616 50.1514 14.9292C50.2402 14.8968 50.3218 14.8463 50.3911 14.7808C50.4631 14.7099 50.5174 14.6224 50.5495 14.5255C50.5816 14.4287 50.5904 14.3254 50.5754 14.2243C50.5431 14.0411 50.4954 13.861 50.4327 13.6861C50.3567 13.4817 50.3135 13.2661 50.3049 13.0476C50.3099 12.9697 50.3439 12.8968 50.4 12.8439C50.4404 12.8079 50.4878 12.781 50.5389 12.7648C50.5901 12.7485 50.644 12.7434 50.6972 12.7496C50.7568 12.7491 50.8158 12.7613 50.8705 12.7854C50.9253 12.8095 50.9745 12.8449 51.0152 12.8895C51.0997 12.967 51.1614 13.067 51.1935 13.1783C51.2261 13.2873 51.2261 13.4038 51.1935 13.5128C51.1543 13.6471 51.0863 13.7707 50.9944 13.8747L51.0449 13.9172L51.678 13.3091L51.6185 13.2604C51.5863 13.2876 51.5471 13.3045 51.5056 13.3091C51.4766 13.3085 51.4489 13.2965 51.4283 13.2756C51.3945 13.2342 51.3683 13.1868 51.3511 13.1358C51.2969 13.0005 51.2171 12.8775 51.1163 12.7739C50.9746 12.6333 50.7874 12.5511 50.5902 12.5428H50.5724ZM14.0159 12.8895L13.2937 13.6801L13.3501 13.7226L13.4066 13.6588C13.4473 13.6147 13.4985 13.5822 13.5552 13.5645C13.5919 13.5526 13.6314 13.5526 13.6681 13.5645C13.7428 13.6018 13.8119 13.65 13.8732 13.7074L14.4349 14.1787L13.6533 15.0362L13.1124 14.5649C13.0483 14.5155 12.9912 14.4572 12.9429 14.3916C12.9336 14.3738 12.9287 14.354 12.9287 14.3338C12.9287 14.3136 12.9336 14.2938 12.9429 14.276C12.9572 14.22 12.9836 14.1681 13.0202 14.124L13.0826 14.0571L13.0262 14.0145L12.3099 14.8051L12.3604 14.8477L12.4258 14.7838C12.4653 14.7426 12.5129 14.7104 12.5655 14.6896C12.6035 14.6793 12.6434 14.6793 12.6814 14.6896C12.7561 14.7281 12.8252 14.7773 12.8865 14.8355L14.1407 15.8937C14.2195 15.9472 14.2847 16.0191 14.3309 16.1035C14.3359 16.1465 14.331 16.19 14.3165 16.2307C14.3021 16.2714 14.2785 16.308 14.2477 16.3376L14.1912 16.4015L14.2388 16.438L14.964 15.6474L14.9045 15.6048L14.848 15.6687C14.8089 15.7146 14.7571 15.7475 14.6994 15.763C14.6625 15.7733 14.6235 15.7733 14.5865 15.763C14.5106 15.7265 14.4412 15.6771 14.3814 15.617L13.787 15.1244L14.5657 14.2608L15.1601 14.7625C15.24 14.8156 15.3063 14.8876 15.3533 14.9724C15.3565 15.0141 15.3504 15.056 15.3355 15.095C15.3206 15.134 15.2972 15.169 15.2671 15.1974L15.2106 15.2612L15.2612 15.3038L15.9834 14.5132L15.9269 14.4706L15.8704 14.5375C15.8274 14.5786 15.7769 14.6107 15.7218 14.6318C15.6847 14.6407 15.646 14.6407 15.6089 14.6318C15.5339 14.5921 15.4641 14.5431 15.4009 14.4858L14.1466 13.4277C14.0803 13.3834 14.0228 13.3267 13.9772 13.2604C13.9662 13.2437 13.9591 13.2245 13.9565 13.2044C13.9539 13.1844 13.9559 13.164 13.9624 13.1449C13.9716 13.087 13.9986 13.0338 14.0396 12.9928L14.0991 12.9259L14.0486 12.8834L14.0159 12.8895ZM52.9946 14.7747L50.7834 15.3829C50.6474 15.4333 50.5028 15.455 50.3584 15.4467C50.2878 15.4296 50.2237 15.3915 50.1741 15.3372L50.1176 15.3829L50.6259 15.991L50.6823 15.9545C50.631 15.8911 50.5954 15.816 50.5783 15.7356C50.5775 15.7154 50.5807 15.6952 50.5879 15.6764C50.595 15.6575 50.606 15.6404 50.6199 15.6261C50.6924 15.5792 50.7732 15.5472 50.8577 15.5319L51.2768 15.4163L51.9158 16.1613L51.7315 16.5018C51.69 16.5825 51.6369 16.6563 51.574 16.7208C51.5575 16.732 51.539 16.7396 51.5196 16.7433C51.5002 16.7469 51.4803 16.7465 51.461 16.7421C51.3926 16.7192 51.3318 16.677 51.2857 16.6204L51.2351 16.663L51.8741 17.4171L51.9306 17.3745C51.8719 17.3093 51.8409 17.2229 51.8444 17.1343C51.8616 17.0096 51.9052 16.8903 51.9722 16.7846L53.057 14.8112L53.0214 14.7686L52.9946 14.7747ZM52.4834 15.0788L51.9603 16.0366L51.3986 15.3859L52.4834 15.0788ZM55.1583 15.4802V15.5014V15.5319L55.1375 15.5744L55.1078 15.617L55.0721 15.6748L55.0364 15.7325L54.9948 15.8055L54.9443 15.8785L54.8878 15.9576L54.8314 16.0518L54.7689 16.14L54.6976 16.2403L54.6263 16.3437L54.549 16.4501L54.4628 16.5687L54.3707 16.6843L54.2786 16.7998L54.1805 16.9245L54.0735 17.0461L53.9665 17.1769L53.8535 17.3076L53.7317 17.4445L53.6039 17.5752L53.4761 17.7151L53.3424 17.8519L53.1997 17.9888L53.06 18.1286L52.9114 18.2655L52.7539 18.3962L52.5904 18.533C51.3511 19.5699 37.1564 28.4853 36.4639 29.0509C35.7715 29.6165 34.4845 31.1125 33.4443 35.5368C32.6002 39.1036 32.0534 37.7687 29.2686 37.6653C27.6369 37.5984 23.1134 36.3791 23.4611 39.955C23.4611 39.955 24.0199 39.1583 30.1958 40.0067C32.627 40.3472 34.6123 39.5354 35.186 37.6653C35.7596 35.7953 36.5977 32.5356 37.8608 30.8389C38.4552 30.0544 49.8145 22.9026 52.95 20.996C54.0913 20.3058 57.7618 18.0374 55.2029 15.4619L55.1583 15.4802ZM12.0246 16.6478L11.6263 17.2924L11.6828 17.3289C11.6965 17.3111 11.7136 17.2963 11.733 17.2853C11.7524 17.2744 11.7737 17.2675 11.7957 17.2651C11.8524 17.2548 11.9108 17.2667 11.9592 17.2985C12.1536 17.4492 12.2912 17.6641 12.3485 17.9067C12.039 17.9302 11.7284 17.9353 11.4183 17.9219C11.4386 17.7331 11.4296 17.5422 11.3915 17.3563C11.3765 17.2919 11.3484 17.2316 11.3089 17.1792C11.2695 17.1268 11.2197 17.0835 11.1627 17.0522C11.1102 17.0196 11.0517 16.9985 10.9908 16.9901C10.9299 16.9817 10.868 16.9863 10.809 17.0036C10.7468 17.0196 10.6884 17.0483 10.6373 17.088C10.5862 17.1277 10.5435 17.1776 10.5118 17.2347C10.4297 17.3557 10.389 17.5011 10.3959 17.6482C10.4036 17.7422 10.435 17.8325 10.4871 17.9104C10.5392 17.9882 10.6102 18.0508 10.6931 18.0921C10.764 18.1351 10.8399 18.1688 10.919 18.1925C11.0287 18.2199 11.1398 18.2413 11.2518 18.2563C11.2198 18.5071 11.2494 18.7622 11.338 18.9983C11.3966 19.15 11.5007 19.2787 11.6352 19.3662C11.701 19.4057 11.7741 19.4307 11.8498 19.4396C11.9256 19.4485 12.0023 19.4411 12.0751 19.4179C12.2416 19.3665 12.3829 19.2524 12.4704 19.0986C12.5431 18.9878 12.5917 18.8624 12.613 18.7307C12.6339 18.5652 12.6248 18.3972 12.5863 18.2351C12.736 18.2092 12.8812 18.161 13.0173 18.0921C13.1113 18.0391 13.1918 17.9641 13.252 17.8732C13.3219 17.767 13.3515 17.6383 13.3353 17.5114C13.3027 17.3625 13.2258 17.2276 13.1153 17.1252L13.0321 17.1617C13.0942 17.2146 13.1346 17.2895 13.1451 17.3715C13.149 17.4487 13.1292 17.5252 13.0886 17.5904C13.0376 17.6691 12.9667 17.7321 12.8835 17.7729C12.756 17.8265 12.6221 17.8623 12.4852 17.8793C12.413 17.6677 12.3205 17.464 12.2088 17.2711C12.1326 17.1536 12.0754 17.0242 12.0394 16.888C12.0373 16.8035 12.059 16.7201 12.1019 16.6478L12.0394 16.6204L12.0246 16.6478ZM10.8357 17.1921C10.8973 17.1931 10.9575 17.2098 11.0111 17.2407C11.1095 17.2996 11.1842 17.3923 11.2221 17.5022V17.5235V17.5479V17.5691V17.5904V17.6178V17.6421V17.6634V17.7212V17.7425V17.7729V17.8002V17.8945V17.9249C11.0646 17.8945 10.9457 17.8732 10.8655 17.8519C10.7996 17.8349 10.7358 17.8104 10.6753 17.779C10.6094 17.7343 10.5577 17.6709 10.5267 17.5965C10.51 17.5525 10.5046 17.5048 10.5108 17.458C10.5171 17.4112 10.5348 17.3668 10.5623 17.3289C10.6047 17.2624 10.6708 17.2155 10.7466 17.1982H10.806L10.8357 17.1921ZM12.3842 18.2776H12.4139C12.4289 18.3927 12.4289 18.5092 12.4139 18.6243C12.4057 18.7002 12.378 18.7726 12.3337 18.8341C12.3031 18.8899 12.2604 18.9379 12.2089 18.9743C12.1573 19.0106 12.0984 19.0344 12.0365 19.0439C11.9082 19.0651 11.7766 19.0426 11.662 18.98C11.5582 18.9183 11.476 18.8247 11.4272 18.7125C11.3826 18.5742 11.3615 18.4292 11.3648 18.2837C11.5431 18.2989 11.6828 18.305 11.8106 18.305H12.0157H12.0305H12.1316H12.1524H12.2445H12.2653H12.3634H12.3842V18.2776ZM57.747 19.2567C57.747 19.2567 57.747 19.2567 57.747 19.2719V19.2567ZM57.747 19.2719L57.6935 19.3814L57.6281 19.497L57.5657 19.6216L57.5033 19.7524L57.4319 19.8892L57.3963 19.9561L57.3517 20.026L57.3101 20.099L57.2685 20.172L57.2179 20.245L57.1674 20.318L57.1199 20.397L57.0634 20.47L56.998 20.5491L56.9415 20.6281L56.8702 20.7011L56.7989 20.7893L56.7216 20.8683L56.6443 20.9474L56.5581 21.0295L56.4749 21.1146L56.3739 21.1937L56.2758 21.2819L56.1688 21.3701L56.0618 21.4552L55.9429 21.5373L55.8211 21.6224C53.2829 23.3648 43.478 29.5861 41.2163 30.9727C40.1228 31.7009 39.2256 32.6983 38.6068 33.8735C38.262 34.6063 37.7419 36.4277 37.5101 39.5536C37.4655 40.1617 35.92 41.15 36.1132 41.5909C36.3064 42.0318 37.4744 41.8098 37.4299 42.1443C37.3853 42.4788 37.0405 42.8741 37.0405 43.1599C37.0405 43.4457 37.736 43.1873 37.5666 43.5491C37.2694 44.1573 37.736 44.2758 37.9054 44.7259C38.0748 45.1759 37.8489 45.6746 38.0064 46.0516C38.2888 46.7054 39.2963 46.8301 40.9042 46.7936C42.5121 46.7571 43.2522 47.9034 42.8985 48.9221C42.4348 50.263 41.3589 50.2417 39.6857 51.3942C38.0124 52.5466 37.9351 53.997 38.9129 55.2377C39.6559 56.1803 42.4586 56.6394 44.2151 54.8089C44.5777 54.3984 43.4216 54.9549 41.7423 54.0548C41.7423 54.0548 40.6486 53.2521 41.2311 52.1696C41.8137 51.0871 42.741 50.6097 43.7752 49.9954C44.8095 49.3812 46.1529 49.0285 46.0935 47.6936C46.034 46.3587 44.6758 46.1733 44.1319 46.1429C43.588 46.1124 42.7261 46.1641 41.9682 46.1276C40.821 46.0699 40.4822 45.5195 40.4019 43.2694C40.3811 42.5518 39.3944 42.9379 39.9413 41.9862C40.2385 41.4936 39.3944 41.6821 38.8267 41.4419C38.3453 41.2169 39.3885 40.18 40.1107 39.1948C40.3366 38.8907 39.9829 38.4833 40.1107 37.0116C40.1812 36.1847 40.4313 35.3843 40.8426 34.6689C41.2539 33.9534 41.8162 33.341 42.4883 32.8762C43.3086 32.3045 46.8959 30.0179 47.9391 29.4097C49.3984 28.5462 56.469 23.8665 57.6816 22.933C59.7947 21.2971 57.8718 19.4301 57.741 19.2841L57.747 19.2719ZM9.10897 19.7889L8.69883 20.7619L8.77016 20.7893L8.79691 20.7102C8.82018 20.6558 8.85708 20.6086 8.9039 20.5734C8.9338 20.5479 8.97201 20.5348 9.01089 20.5369C9.09656 20.5468 9.17996 20.5715 9.25758 20.6099L9.93818 20.8774L9.49237 21.9356L8.80582 21.6589C8.72758 21.6353 8.65339 21.5994 8.58589 21.5525C8.55665 21.526 8.53855 21.4889 8.53536 21.4491C8.52862 21.3925 8.53577 21.335 8.55617 21.2819L8.59183 21.2028L8.52942 21.1754L8.11036 22.1454L8.17277 22.1758L8.20844 22.0968C8.23424 22.0431 8.27068 21.9954 8.31543 21.9569C8.34565 21.9312 8.3832 21.9163 8.42243 21.9143C8.50745 21.9274 8.59041 21.9519 8.66911 21.9873L10.2086 22.5955C10.3029 22.621 10.3889 22.6713 10.4583 22.7414C10.4789 22.7779 10.4898 22.8194 10.4898 22.8615C10.4898 22.9037 10.4789 22.9451 10.4583 22.9816L10.4226 23.0607L10.494 23.082L10.9041 22.1089L10.8387 22.0816L10.8031 22.1667C10.7787 22.218 10.7431 22.2627 10.699 22.2975C10.6699 22.3253 10.6319 22.3415 10.592 22.3431C10.5091 22.3291 10.4283 22.3045 10.3513 22.2701L9.62017 21.9873L10.0749 20.9261L10.7971 21.2119C10.8899 21.2395 10.9753 21.2883 11.0468 21.3548C11.0674 21.3914 11.0782 21.4328 11.0782 21.475C11.0782 21.5171 11.0674 21.5585 11.0468 21.5951L11.0111 21.6741L11.0735 21.7045L11.4926 20.7254L11.4272 20.7041L11.3856 20.7832C11.3614 20.8346 11.3281 20.8809 11.2875 20.92C11.2556 20.9416 11.2187 20.9542 11.1805 20.9565C11.0939 20.9464 11.0096 20.9217 10.9309 20.8835L9.39429 20.2754C9.31734 20.2471 9.2436 20.2104 9.17436 20.1659C9.15798 20.1538 9.14479 20.1378 9.13597 20.1192C9.12715 20.1007 9.12298 20.0801 9.12384 20.0595C9.11253 20.0029 9.11985 19.9441 9.14464 19.8923L9.1803 19.8102L9.11195 19.7828L9.10897 19.7889ZM7.9677 22.5894L7.37328 24.5324L7.94095 24.7209L7.96175 24.6571C7.8696 24.6279 7.78658 24.5744 7.72102 24.502C7.67022 24.4499 7.6396 24.3808 7.63483 24.3074C7.63719 24.2257 7.6512 24.1447 7.67643 24.0672L7.76857 23.7783L9.64692 24.3074C9.73988 24.3246 9.8275 24.3642 9.90252 24.4229C9.92727 24.457 9.94302 24.497 9.94822 24.539C9.95343 24.5811 9.94793 24.6239 9.93224 24.6632L9.90252 24.7422L9.97385 24.7635L10.2711 23.757L10.1997 23.7357L10.1789 23.8148C10.1688 23.8544 10.1509 23.8916 10.1264 23.924C10.1019 23.9564 10.0712 23.9833 10.0363 24.0033C9.93628 24.0192 9.83398 24.0088 9.73905 23.9729L7.88448 23.4377L7.98256 23.1063C8.00502 23.0224 8.04681 22.9453 8.10441 22.8813C8.16017 22.8287 8.2291 22.7929 8.30354 22.7779C8.38052 22.7681 8.45839 22.7681 8.53536 22.7779L8.55617 22.711L7.96175 22.5742L7.9677 22.5894ZM9.18922 25.0037L9.1595 25.0554C9.27111 25.1228 9.37145 25.208 9.45671 25.3078C9.51415 25.373 9.55048 25.4548 9.56073 25.5419C9.57031 25.6778 9.55827 25.8144 9.52506 25.9463L9.48346 26.1197C9.47179 26.2147 9.4478 26.3078 9.41213 26.3964C9.39549 26.4234 9.37032 26.4438 9.3408 26.4541C9.26823 26.4645 9.19435 26.4593 9.12384 26.4389L7.53378 26.1349C7.44027 26.1235 7.34961 26.0946 7.26629 26.0497C7.2268 26.0184 7.19857 25.9745 7.18604 25.9251C7.17113 25.8334 7.17113 25.74 7.18604 25.6483H7.12363L6.89478 26.743H6.96017L6.98097 26.6487C6.98728 26.6096 7.00202 26.5724 7.02412 26.5398C7.04622 26.5072 7.07514 26.48 7.10877 26.4602C7.15038 26.4298 7.25143 26.4359 7.40598 26.4602L9.06142 26.7825C9.15448 26.7889 9.24445 26.8192 9.32296 26.8707C9.35274 26.9012 9.37418 26.9392 9.38513 26.9808C9.39608 27.0224 9.39617 27.0662 9.38538 27.1079L9.36457 27.1961L9.4359 27.2113L9.82524 25.3382L9.18922 24.9976V25.0037ZM55.931 26.6001V26.6153L55.9162 26.6305L55.8954 26.6457L55.8537 26.6822L55.8032 26.7308L55.7378 26.7825L55.6754 26.8403L55.5982 26.9072L55.5209 26.9711L55.4287 27.0501L55.3336 27.1322L55.2356 27.2113L55.1286 27.2964L55.0245 27.3907L54.9086 27.485L54.7897 27.5823L54.6679 27.6826L54.5401 27.7829L54.4212 27.8863L54.1567 28.087L53.8892 28.2907L53.6277 28.4945L53.3572 28.683L53.2294 28.7773L53.0957 28.8654L52.9679 28.9506L52.846 29.0388C51.4491 29.9297 45.184 33.3414 43.7931 34.5121C42.4021 35.6828 42.4527 36.6892 42.4527 36.6892L42.2268 39.5962C42.2268 39.5962 41.353 40.5084 41.2401 40.8307C41.1271 41.153 41.8345 41.223 42.3397 41.4966C42.845 41.7703 42.2416 42.0348 42.4527 42.2872C42.8658 42.7585 43.1838 42.3754 42.9074 43.1812C42.8628 43.3028 43.2551 43.6799 43.2046 43.8897C43.1362 44.2242 42.9579 44.4492 43.2611 44.7472C43.6088 45.0816 44.7293 45.6594 47.2972 45.109C50.082 44.5221 51.9128 46.7419 53.3007 47.1189C53.7763 47.2406 55.3515 47.7484 57.8302 45.778C58.9031 44.9266 57.1733 45.6959 54.6917 44.6316C52.0465 43.4974 51.253 43.4153 49.4727 43.768C47.948 44.0569 46.8216 44.3123 46.2272 44.1299C45.716 43.9718 46.141 43.1933 45.7576 43.0626C44.9938 42.8011 45.5169 42.424 45.0621 42.1717C44.6074 41.9193 44.8719 41.8098 44.8571 41.2868C44.8571 40.925 44.4618 41.0253 43.9001 40.706C43.4691 40.4537 44.4945 39.9884 44.6461 39.6174C44.8155 39.1613 44.6015 38.5228 44.7144 37.5862C44.9225 35.9412 47.3239 34.7888 48.6019 34.062C49.9988 33.2867 53.9813 30.7993 54.9235 30.1517C57.1288 28.6313 55.9756 26.5697 55.9756 26.5697L55.931 26.6001ZM9.32891 27.339C9.32444 27.4251 9.28708 27.5059 9.22488 27.564C9.11724 27.6407 8.99615 27.6954 8.86824 27.7252L6.65701 28.3972V28.458L8.67208 29.5192C8.80068 29.5765 8.91763 29.658 9.01684 29.7594C9.0552 29.8189 9.07491 29.8889 9.07331 29.9601H9.14464L9.22488 29.1847H9.15356C9.14619 29.2655 9.11855 29.3431 9.07331 29.4097C9.06032 29.427 9.04283 29.4402 9.02284 29.4477C9.00286 29.4552 8.9812 29.4568 8.96037 29.4523C8.88562 29.4404 8.81391 29.4136 8.74935 29.3732L8.35704 29.1725L8.44917 28.2147L8.82365 28.0992C8.91137 28.071 9.00228 28.0547 9.09412 28.0505C9.11417 28.0527 9.13345 28.0596 9.15047 28.0707C9.16748 28.0818 9.18176 28.0967 9.19219 28.1144C9.22483 28.1767 9.23732 28.248 9.22786 28.3181H9.29919L9.39132 27.3481H9.31999L9.32891 27.339ZM8.30949 28.2512L8.23221 29.0996L7.23954 28.5705L8.30949 28.2512ZM8.51456 30.1V30.179C8.64093 30.2391 8.7597 30.3146 8.86824 30.404C8.92353 30.4531 8.96551 30.516 8.99009 30.5865C9.01235 30.6863 9.0243 30.7882 9.02576 30.8906V31.3041C9.03082 31.3508 9.02364 31.398 9.00495 31.4409C8.99196 31.4675 8.96968 31.4881 8.94254 31.4987C8.87346 31.5075 8.80357 31.5075 8.73449 31.4987H7.89042V30.9544C7.88347 30.8751 7.89361 30.7952 7.92014 30.7203C7.94329 30.6751 7.98114 30.6396 8.02714 30.6199C8.10159 30.5871 8.18101 30.5675 8.26193 30.5622V30.4953H7.37031V30.5683C7.47747 30.5601 7.58366 30.5938 7.66752 30.6625C7.71801 30.7475 7.74283 30.8459 7.73885 30.9453V31.4896H6.73131V30.8176C6.71957 30.7299 6.72667 30.6407 6.75212 30.5561C6.7727 30.4974 6.81264 30.448 6.86506 30.4162C6.95854 30.3704 7.05911 30.3416 7.16227 30.3311V30.2581L6.60352 30.2855L6.62432 32.195H6.69565V32.1069C6.69148 32.068 6.69542 32.0286 6.7072 31.9914C6.71899 31.9542 6.73835 31.92 6.76401 31.891C6.85671 31.8466 6.9594 31.8288 7.06122 31.8393L8.73449 31.818C8.81532 31.8131 8.89642 31.8203 8.97523 31.8393C8.99591 31.8451 9.01525 31.8551 9.03209 31.8686C9.04894 31.8822 9.06295 31.8991 9.07331 31.9183C9.10158 31.967 9.11599 32.0229 9.11492 32.0795V32.1646H9.18625L9.16544 30.2581L8.5205 30.0544L8.51456 30.1ZM9.1803 32.3927H9.10897V32.4748C9.1169 32.534 9.1076 32.5943 9.08223 32.6481C9.07633 32.6656 9.06695 32.6817 9.05467 32.6953C9.04239 32.7089 9.02749 32.7197 9.01089 32.7272C8.93133 32.7603 8.84699 32.7798 8.76124 32.7849L7.10877 32.9674C7.02685 32.9777 6.94401 32.9777 6.86209 32.9674C6.84203 32.9652 6.82274 32.9583 6.80573 32.9472C6.78872 32.9361 6.77444 32.9212 6.76401 32.9035C6.7301 32.8558 6.70769 32.8006 6.69862 32.7424V32.6572H6.63027L6.75509 33.7093L6.83534 33.6941V33.6151C6.82846 33.5564 6.8356 33.4969 6.85614 33.4417C6.87173 33.4063 6.89637 33.3758 6.92747 33.3535C7.01073 33.3275 7.09637 33.3101 7.18307 33.3019L7.91123 33.2228L8.05389 34.354L7.31681 34.4421C7.23489 34.4524 7.15205 34.4524 7.07013 34.4421C7.03215 34.429 6.9976 34.4071 6.96908 34.3783C6.9348 34.3311 6.91327 34.2755 6.90667 34.2171V34.132H6.83831L6.96314 35.1749H7.03447V35.0868C7.02654 35.0276 7.03585 34.9673 7.06122 34.9134C7.07501 34.8792 7.10031 34.8512 7.13254 34.8344C7.21165 34.8042 7.29488 34.7867 7.37923 34.7827L9.0317 34.5942C9.13015 34.57 9.2333 34.5753 9.32891 34.6094C9.36408 34.6304 9.39362 34.66 9.41488 34.6956C9.43614 34.7311 9.44847 34.7715 9.45076 34.8131V34.9074L9.52209 34.8922L9.39429 33.8462H9.32296V33.9313C9.32952 33.9909 9.3224 34.0513 9.30216 34.1077C9.28479 34.1394 9.26035 34.1665 9.23083 34.1867C9.15017 34.215 9.06624 34.2324 8.98117 34.2384L8.20249 34.3235L8.05983 33.1924L8.84149 33.1073C8.93874 33.0798 9.04144 33.0798 9.13869 33.1073C9.17318 33.1305 9.20206 33.1615 9.22317 33.1978C9.24427 33.2342 9.25705 33.2749 9.26055 33.3171V33.4052H9.33188L9.20408 32.3623L9.1803 32.3927ZM7.82801 36.6497L7.28709 36.8169L7.77749 38.5927L7.8399 38.5714L7.81909 38.4924C7.80421 38.4356 7.80421 38.3758 7.81909 38.3191C7.82775 38.2823 7.84751 38.2494 7.87556 38.2248C7.95229 38.1883 8.03316 38.1618 8.1163 38.1457L9.72717 37.7292C9.82273 37.6962 9.92433 37.6858 10.0244 37.6987C10.0622 37.7172 10.0953 37.7444 10.1211 37.7782C10.1469 37.8119 10.1646 37.8514 10.173 37.8934L10.1938 37.9755L10.2651 37.9603L9.9679 36.9386H9.90549L9.92629 37.0268C9.94118 37.0835 9.94118 37.1433 9.92629 37.2001C9.91892 37.2373 9.89892 37.2707 9.86982 37.2943C9.7931 37.3308 9.71223 37.3574 9.62909 37.3734L8.84149 37.5771L8.72261 37.1423C8.70308 37.081 8.70308 37.015 8.72261 36.9538C8.73186 36.906 8.75708 36.863 8.79393 36.8321C8.85423 36.786 8.92464 36.7558 8.99901 36.744L8.9782 36.6771L8.14305 36.8899V36.9599C8.24163 36.9372 8.34438 36.9424 8.44026 36.9751C8.50734 37.0232 8.55325 37.0963 8.56806 37.1788L8.68991 37.6136L7.71804 37.8599L7.56944 37.3369C7.54316 37.2379 7.53115 37.1354 7.53378 37.0328C7.54311 36.9699 7.56762 36.9103 7.60511 36.8595C7.67008 36.7889 7.7465 36.7302 7.83098 36.6862V36.6193L7.82801 36.6497ZM21.7997 40.3503C20.3137 40.3655 19.2794 41.0375 19.4964 42.3663V42.3511H19.5261L19.5528 42.3267L19.5944 42.3055L19.639 42.2902L19.6866 42.269L19.7431 42.2416L19.8084 42.2203L19.8798 42.196H19.9511L20.0343 42.1747H20.1265L20.2186 42.1595L20.3256 42.1443H20.4385H20.5604H20.6793H20.816H20.9557L21.1072 42.1595L21.1845 42.1747H21.2677H21.348L21.4312 42.196L21.5174 42.2112H21.6036L21.6957 42.2325L21.7878 42.2598L21.88 42.2811L21.9781 42.3115L22.0702 42.3419L22.1772 42.3693L22.2753 42.4058L22.3823 42.4423L22.4893 42.4788L22.5962 42.5213L22.7092 42.5578L22.8221 42.6095C25.2533 43.616 31.6759 46.5838 33.3789 47.8609C34.4221 48.6423 37.3288 49.9894 36.5115 51.4428C35.6942 52.8963 31.7562 53.5713 32.5646 56.6942C33.373 59.817 37.6736 58.4882 38.2561 57.7037C38.8386 56.9192 36.3421 58.1598 35.4713 55.9188C34.7758 54.1278 35.9884 52.9389 37.6736 51.7773C38.482 51.2178 39.5816 50.7678 39.4122 49.3174C39.2993 48.3109 37.5606 47.5264 35.816 46.526C34.0714 45.5256 27.3456 42.269 24.6737 41.0527C23.7602 40.6171 22.766 40.3869 21.7581 40.3776L21.7997 40.3503ZM11.9919 41.9892L11.9295 42.0257L11.977 42.1048C11.9981 42.1376 12.0121 42.1746 12.0183 42.2134C12.0244 42.2522 12.0225 42.2918 12.0127 42.3298C11.9479 42.4073 11.8651 42.4669 11.772 42.5031L10.0571 43.4153L9.87874 43.1112C9.8361 43.0361 9.81164 42.9517 9.80741 42.865C9.8043 42.7912 9.82754 42.7188 9.8728 42.6612C9.91997 42.6006 9.97734 42.5491 10.0422 42.5092L10.0155 42.4453L9.49534 42.7494L10.4969 44.5252L11.0408 44.2728L11.0081 44.2059C10.9167 44.2545 10.8134 44.2746 10.7109 44.2637C10.6356 44.2628 10.563 44.2348 10.5058 44.1846C10.4474 44.1254 10.3992 44.0566 10.3632 43.9809L10.2146 43.7224L11.9384 42.8102C12.0182 42.7605 12.1073 42.7284 12.1999 42.716C12.2428 42.7227 12.2833 42.7401 12.318 42.7666C12.3528 42.7931 12.3806 42.8279 12.3991 42.868L12.4407 42.947L12.5061 42.9106L11.98 41.9983L11.9919 41.9892ZM13.0975 43.7954L11.3143 44.9783C11.2423 45.0365 11.1577 45.0761 11.0676 45.0938C11.024 45.0922 10.9816 45.0794 10.9442 45.0565C10.9067 45.0337 10.8756 45.0015 10.8536 44.9631L10.8031 44.8901L10.7406 44.9266L11.2518 45.6442L11.3083 45.6016L11.2578 45.5347C11.2327 45.5055 11.2141 45.4711 11.2033 45.4338C11.1925 45.3965 11.1898 45.3573 11.1954 45.3188C11.1954 45.2671 11.2875 45.1941 11.4064 45.109L12.6249 44.3093L11.9235 46.605L12.3188 47.1554L12.3753 47.1189C12.3445 47.0753 12.3167 47.0296 12.2921 46.9821C12.2766 46.9224 12.2666 46.8613 12.2623 46.7996C12.2679 46.723 12.2829 46.6474 12.3069 46.5746L13.793 45.5955C13.8664 45.5399 13.9505 45.5005 14.0396 45.48C14.0834 45.4804 14.1264 45.4927 14.164 45.5157C14.2016 45.5386 14.2325 45.5715 14.2536 45.6107L14.3101 45.6837L14.3666 45.6472L13.8554 44.9296L13.7989 44.9722L13.8494 45.0451C13.8752 45.0738 13.8939 45.1084 13.9037 45.146C13.9135 45.1836 13.9143 45.2231 13.9059 45.261C13.9059 45.3127 13.8286 45.3766 13.6919 45.4648L12.3961 46.3283L13.1391 43.8623L13.1034 43.8045L13.0975 43.7954ZM14.6311 45.9422L13.998 46.1824L14.0486 46.2402C14.1864 46.1992 14.3304 46.1838 14.4736 46.1945C14.5483 46.1969 14.6215 46.2166 14.6876 46.2523C14.7722 46.3145 14.8482 46.3881 14.9134 46.4712L15.2106 46.7753C15.2463 46.8072 15.2712 46.8498 15.282 46.8969C15.2877 46.9082 15.2907 46.9207 15.2907 46.9334C15.2907 46.9461 15.2877 46.9587 15.282 46.9699C15.238 47.0215 15.1881 47.0675 15.1334 47.1068L14.4944 47.6358L14.1258 47.2254C14.0705 47.1691 14.027 47.1018 13.998 47.0277C13.9801 46.9808 13.9801 46.9287 13.998 46.8817C14.0387 46.8113 14.0898 46.7477 14.1496 46.6932L14.0991 46.6446L13.4244 47.1949L13.475 47.2466C13.5588 47.1763 13.6637 47.1377 13.7722 47.1372C13.8375 47.1372 13.9148 47.2101 14.0129 47.3196L14.3814 47.7301L13.6087 48.3626L13.1124 47.8669C13.0484 47.8033 12.9952 47.7293 12.9548 47.648C12.9371 47.5917 12.9371 47.531 12.9548 47.4747C12.9941 47.387 13.0462 47.306 13.1094 47.2345L13.0678 47.1767L12.6487 47.5537L13.9386 49.0042L13.9891 48.9616L13.9327 48.8886C13.903 48.8629 13.8794 48.8307 13.8634 48.7944C13.8475 48.7581 13.8397 48.7186 13.8405 48.6788C13.888 48.59 13.9565 48.5148 14.0396 48.4599L15.3087 47.4078C15.3729 47.3559 15.4415 47.3101 15.5138 47.271C15.552 47.2557 15.5945 47.2557 15.6327 47.271C15.688 47.291 15.7373 47.3256 15.7753 47.3713L15.8407 47.4382L15.8883 47.3956L14.6133 45.9391L14.6311 45.9422ZM16.0131 47.5294L15.9626 47.575L16.025 47.6328C16.0589 47.6532 16.0868 47.6826 16.1057 47.718C16.1245 47.7533 16.1336 47.7933 16.132 47.8335C16.132 47.8852 16.0844 47.9642 15.9774 48.0828L14.8183 49.2839C14.7593 49.3545 14.6864 49.4114 14.6043 49.4512C14.5603 49.4557 14.5159 49.4502 14.4742 49.4349C14.4326 49.4197 14.3948 49.3951 14.3636 49.363L14.3012 49.3052L14.2507 49.3569L14.7827 49.8343L16.8156 49.0163L16.135 51.0323L16.6759 51.5097L16.7175 51.458C16.6584 51.4113 16.6097 51.3522 16.5748 51.2847C16.5618 51.2421 16.5618 51.1965 16.5748 51.154C16.6064 51.0807 16.6519 51.0146 16.7086 50.9594L17.8498 49.7704C17.9509 49.6671 18.0193 49.6093 18.0698 49.6032C18.1123 49.5947 18.1562 49.5975 18.1973 49.6113C18.2384 49.6252 18.2753 49.6496 18.3046 49.6823L18.367 49.74L18.4175 49.6975L17.7577 49.1106L17.7161 49.1593L17.7785 49.217C17.8097 49.2411 17.8353 49.2717 17.8538 49.3069C17.8723 49.3421 17.8831 49.3809 17.8855 49.4208C17.8855 49.4633 17.829 49.5454 17.722 49.661L16.56 50.8773L17.306 48.7092L17.2614 48.6667L15.065 49.5515L16.236 48.3352C16.2904 48.2611 16.3633 48.2034 16.447 48.168C16.4907 48.1599 16.5356 48.1632 16.5776 48.1776C16.6197 48.1919 16.6576 48.2168 16.6878 48.2501L16.7531 48.3078L16.8007 48.2562L16.0012 47.5446L16.0131 47.5294ZM19.0179 50.0623L18.9763 50.1201L19.0535 50.1718C19.0868 50.1927 19.1158 50.2201 19.1387 50.2525C19.1617 50.2848 19.1782 50.3215 19.1873 50.3603C19.1672 50.4558 19.1208 50.5434 19.0535 50.6127L17.9063 52.1331L17.6091 51.9324C17.5373 51.8841 17.4773 51.8196 17.4338 51.7439C17.4048 51.6771 17.3945 51.6034 17.404 51.531C17.4225 51.4571 17.4516 51.3864 17.4902 51.3212L17.4338 51.2786L17.1068 51.7712L18.8009 52.9541L19.1784 52.498L19.1189 52.4615C19.0577 52.5348 18.9802 52.5921 18.893 52.6287C18.8212 52.6497 18.745 52.6497 18.6731 52.6287C18.5953 52.5973 18.5215 52.5565 18.4532 52.5071L18.2065 52.3246L19.3537 50.8043C19.4036 50.7259 19.4695 50.6595 19.5469 50.6097C19.5896 50.6001 19.6339 50.6004 19.6765 50.6104C19.7192 50.6203 19.7592 50.6398 19.7936 50.6674L19.8649 50.7191L19.9065 50.6614L19.0149 50.0532L19.0179 50.0623ZM20.2067 50.9259L20.171 50.9837C20.272 51.0442 20.3551 51.1313 20.4118 51.2361C20.4718 51.3711 20.5061 51.5166 20.5128 51.6648L20.596 52.5436C20.4234 52.4804 20.2365 52.4699 20.0581 52.5132C19.9159 52.5514 19.7942 52.6453 19.7193 52.7747C19.6807 52.8294 19.6536 52.8916 19.6398 52.9576C19.626 53.0236 19.6257 53.0917 19.639 53.1578C19.6608 53.2868 19.721 53.4057 19.8114 53.4984C19.9586 53.6341 20.1225 53.7496 20.2988 53.842L21.1013 54.3042L21.137 54.2403L21.0567 54.1977C21.0201 54.1825 20.9875 54.1586 20.9616 54.1279C20.9358 54.0972 20.9174 54.0607 20.9081 54.0214C20.9164 53.9213 20.9536 53.826 21.0151 53.7477L21.8592 52.3672C21.902 52.2841 21.963 52.2123 22.0375 52.1574C22.0771 52.1398 22.1204 52.1326 22.1635 52.1363C22.2065 52.14 22.248 52.1546 22.2842 52.1787L22.3704 52.2304L22.406 52.1726L21.4609 51.6374L21.4342 51.7165L21.5174 51.7652C21.5519 51.7803 21.5827 51.8031 21.6074 51.8321C21.6321 51.861 21.6501 51.8953 21.66 51.9324C21.66 51.9841 21.6303 52.0784 21.553 52.2091L21.1696 52.8325C21.1551 52.8233 21.1412 52.8132 21.128 52.802C21.109 52.7979 21.0915 52.7884 21.0775 52.7747L20.9497 52.7017L20.81 51.2786L20.2156 50.9472L20.2067 50.9259ZM22.5101 52.2304L22.4833 52.2973C22.5643 52.3286 22.6303 52.3907 22.6676 52.4706C22.7108 52.5879 22.728 52.7136 22.7181 52.8385L22.6527 55.0735L22.7092 55.0947L24.4033 53.6018C24.5042 53.4995 24.6219 53.4161 24.751 53.3555C24.8248 53.3418 24.9009 53.3492 24.9709 53.3767L25.0007 53.3129L24.2636 53.0088L24.2339 53.0666C24.3104 53.0974 24.3787 53.1463 24.433 53.2095C24.4417 53.228 24.4462 53.2483 24.4462 53.2688C24.4462 53.2893 24.4417 53.3096 24.433 53.3281C24.3927 53.3935 24.3425 53.452 24.2844 53.5014L23.9664 53.7751L23.051 53.3859V53.0088C23.0483 52.9204 23.0593 52.8322 23.0837 52.7473C23.0937 52.7279 23.1081 52.7111 23.1257 52.6985C23.1432 52.6858 23.1635 52.6775 23.1847 52.6743C23.2551 52.6646 23.3267 52.6773 23.3898 52.7108L23.4195 52.653L22.4952 52.2456L22.5101 52.2304ZM20.5931 52.7169C20.7422 52.7287 20.8866 52.7755 21.0151 52.8537L21.0567 52.8841L20.5425 53.7994C20.4501 53.772 20.3605 53.7354 20.2751 53.6899C20.2128 53.6613 20.1572 53.6193 20.1121 53.5669C20.067 53.5144 20.0334 53.4527 20.0135 53.3859C19.9968 53.3178 19.9943 53.2469 20.0061 53.1778C20.0179 53.1086 20.0437 53.0428 20.0819 52.9845C20.1224 52.9188 20.1763 52.8628 20.2399 52.8203C20.3035 52.7778 20.3753 52.7498 20.4504 52.7382C20.4919 52.7336 20.5337 52.7336 20.5752 52.7382L20.5931 52.7169ZM25.6723 53.5075L25.6515 53.5713L25.7437 53.6018C25.7818 53.6117 25.8175 53.6298 25.8483 53.655C25.879 53.6802 25.9042 53.7118 25.922 53.7477C25.9329 53.8519 25.9154 53.9571 25.8715 54.0518L25.6248 54.7329L25.4257 54.6174C25.3543 54.5961 25.2979 54.5657 25.2354 54.5444C25.0381 54.4683 24.8205 54.4683 24.6232 54.5444C24.5389 54.5822 24.4633 54.6378 24.4014 54.7075C24.3394 54.7772 24.2925 54.8594 24.2636 54.9488C24.2178 55.0806 24.2178 55.2245 24.2636 55.3563C24.3147 55.4843 24.3977 55.5965 24.5043 55.6816C24.6547 55.7855 24.8202 55.8646 24.9947 55.9157L25.8863 56.2198L25.9071 56.1529L25.815 56.1256C25.7771 56.116 25.7416 56.0979 25.7113 56.0727C25.681 56.0475 25.6565 56.0157 25.6396 55.9796C25.6225 55.8825 25.6394 55.7824 25.6872 55.6968L26.2281 54.1764C26.2531 54.0878 26.2967 54.0058 26.3559 53.9362C26.3931 53.9148 26.4344 53.9017 26.477 53.8981C26.5196 53.8944 26.5624 53.9002 26.6026 53.915L26.6947 53.9423L26.7245 53.8845L25.6872 53.5379L25.6723 53.5075ZM23.051 53.5075L23.8594 53.8572L23.0212 54.5961L23.051 53.5075ZM27.0811 53.9575L26.7126 54.5109L26.7988 54.5322C26.8843 54.4258 26.9844 54.3326 27.096 54.2555C27.1616 54.2164 27.2345 54.1915 27.31 54.1825C27.4101 54.1888 27.5096 54.204 27.6072 54.2281L28.0262 54.3285C28.0753 54.3338 28.1223 54.3516 28.1629 54.3802C28.1817 54.3962 28.1934 54.4192 28.1956 54.444C28.1969 54.5129 28.1879 54.5816 28.1689 54.6478L27.9698 55.4323L27.417 55.3076C27.3381 55.2953 27.263 55.2652 27.197 55.2194C27.1578 55.1885 27.1288 55.146 27.1138 55.0978C27.1021 55.0182 27.1021 54.9372 27.1138 54.8576L27.0425 54.8424L26.8374 55.6786H26.8998C26.9286 55.5741 26.9915 55.4828 27.0781 55.4201C27.1752 55.3911 27.2783 55.3911 27.3753 55.4201L27.9192 55.5509L27.6874 56.4996L26.9979 56.3414C26.9251 56.3255 26.8536 56.3042 26.7839 56.2776C26.7316 56.2435 26.6911 56.1935 26.668 56.1347C26.6438 56.0426 26.6368 55.9467 26.6472 55.8519L26.5699 55.8367L26.4718 56.3719L28.3918 56.8158L28.4067 56.7489L28.3205 56.7276C28.2427 56.7171 28.1722 56.6756 28.1243 56.6121C28.0967 56.5113 28.1041 56.4039 28.1451 56.308L28.5344 54.742C28.5497 54.6656 28.5757 54.5919 28.6117 54.5231C28.6211 54.5046 28.6351 54.4889 28.6524 54.4777C28.6696 54.4665 28.6894 54.4601 28.7098 54.4592C28.7678 54.4406 28.8301 54.4406 28.8881 54.4592L28.9803 54.4805L28.9951 54.4136L27.0811 53.9575ZM30.3117 54.6082C30.0218 54.6074 29.7393 54.7023 29.5063 54.8789C29.2632 55.0817 29.1083 55.3746 29.0754 55.6938C29.0397 55.9301 29.0717 56.172 29.1675 56.3901C29.2578 56.5902 29.4062 56.7569 29.5925 56.8675C29.8605 56.9945 30.1482 57.0728 30.4425 57.0986L31.4768 57.2233V57.1503H31.3847C31.3451 57.147 31.3065 57.1356 31.2713 57.1168C31.2361 57.098 31.2049 57.0722 31.1796 57.0408C31.1461 56.9424 31.1461 56.8352 31.1796 56.7367L31.3847 55.1495C31.3926 55.0578 31.419 54.9688 31.4619 54.888C31.4935 54.857 31.5318 54.8342 31.5736 54.8215C31.6155 54.8088 31.6598 54.8066 31.7027 54.815L31.7948 54.8302V54.7572L30.6595 54.6204C30.5432 54.6056 30.426 54.5995 30.3088 54.6021L30.3117 54.6082ZM25.1671 54.669C25.2133 54.6704 25.2593 54.6775 25.3038 54.6903C25.3395 54.7055 25.3811 54.7207 25.4227 54.742H25.4375H25.4524L25.1047 55.7211C25.0229 55.7145 24.9421 55.6982 24.8639 55.6725C24.7707 55.6474 24.6869 55.5945 24.6232 55.5205C24.5585 55.4504 24.5178 55.3608 24.5073 55.265C24.4956 55.1622 24.5078 55.058 24.543 54.961C24.5921 54.8301 24.6862 54.7221 24.8075 54.6569C24.8792 54.6192 24.9586 54.5994 25.0393 54.5991L25.1671 54.669ZM30.5495 54.7542H30.6565H30.6773H30.6981H30.7189H30.7486H30.7694H30.7902H30.8111H30.8408H30.8616H30.8883H30.9181H30.9389H30.9686H30.9953L31.025 54.7694H31.0518L30.7843 56.8584C30.6539 56.8716 30.5224 56.8716 30.392 56.8584C30.2553 56.8474 30.1223 56.8074 30.0015 56.7409C29.8807 56.6744 29.7748 56.5829 29.6906 56.4722C29.6051 56.354 29.5446 56.2189 29.5129 56.0754C29.4812 55.932 29.4789 55.7834 29.5063 55.639C29.5318 55.3401 29.6718 55.0636 29.8957 54.8697C30.0816 54.7208 30.3137 54.6453 30.5495 54.6569V54.7542Z" fill="#FBFBFB"/>
<path d="M10.8138 39.0568C10.9299 39.2657 10.9863 39.4861 10.9832 39.7181C10.9805 39.9511 10.919 40.1651 10.7985 40.3603C10.6796 40.5559 10.5108 40.7145 10.2919 40.8361C9.95912 41.0211 9.62125 41.0663 9.27831 40.9717C8.93592 40.8782 8.67529 40.6705 8.49644 40.3487C8.37757 40.1349 8.32139 39.9149 8.3279 39.6889C8.33497 39.4639 8.39673 39.255 8.51318 39.0621C8.63064 38.8686 8.80279 38.7088 9.02965 38.5827C9.36643 38.3955 9.70397 38.3486 10.0422 38.4418C10.3805 38.535 10.6377 38.74 10.8138 39.0568ZM10.6749 39.1458C10.6088 39.0269 10.4067 38.7725 10.2919 38.7212C10.1786 38.6704 10.0354 38.6375 9.86057 38.6666C9.68633 38.6968 9.4723 38.7824 9.21846 38.9235C8.95163 39.0718 8.76231 39.2077 8.65051 39.3314C8.54026 39.4554 8.51318 39.6604 8.51318 39.8075C8.49777 39.9351 8.5833 40.152 8.65051 40.2729C8.74993 40.4518 9.00612 40.6983 9.21846 40.7202C9.43179 40.7416 9.73533 40.7176 10.1151 40.5065C10.3809 40.3588 10.5675 40.225 10.6749 40.1051C10.7832 39.9847 10.7994 39.816 10.8138 39.6889C10.8292 39.5613 10.7415 39.2657 10.6749 39.1458Z" fill="#FBFBFB"/>
</svg>
