<svg width="60" height="60" viewBox="0 0 60 60" fill="none" xmlns="http://www.w3.org/2000/svg">
<g clip-path="url(#clip0_82_74823)">
<path d="M30 60C46.5685 60 60 46.5685 60 30C60 13.4315 46.5685 0 30 0C13.4315 0 0 13.4315 0 30C0 46.5685 13.4315 60 30 60Z" fill="#E3F2FB"/>
<path d="M45.2835 17.1124H45.2012V17.0771L45.2835 17.1124Z" fill="#FBFBFB"/>
<g opacity="0.2">
<path opacity="0.2" d="M9.71777 20.0583L30.759 27.9288L51.1472 20.423L30.1707 13.27L9.71777 20.0583Z" fill="#FBFBFB"/>
</g>
<path d="M9.41234 19.8526L2.44763 31.1408C2.42839 31.1722 2.4188 31.2086 2.42003 31.2454C2.42126 31.2822 2.43326 31.3179 2.45455 31.3479C2.47584 31.378 2.50548 31.4011 2.5398 31.4145C2.57412 31.4279 2.61161 31.4309 2.64763 31.4232L9.58292 29.5232C9.62225 29.5116 9.65674 29.4876 9.68116 29.4547C9.70558 29.4218 9.71859 29.3818 9.71822 29.3408V19.929C9.70935 19.8984 9.69259 19.8706 9.66961 19.8484C9.64663 19.8263 9.61824 19.8105 9.58727 19.8028C9.55631 19.7951 9.52386 19.7956 9.49316 19.8043C9.46246 19.8131 9.43459 19.8297 9.41234 19.8526V19.8526Z" fill="#003C75"/>
<g opacity="0.2">
<path opacity="0.2" d="M9.71777 20.0583L30.759 27.9288L51.1472 20.423L30.1707 13.27L9.71777 20.0583Z" fill="#090909"/>
</g>
<path d="M30.7595 28.3066C30.7146 28.3121 30.6691 28.3121 30.6242 28.3066L9.58889 20.4124C9.5156 20.3856 9.45245 20.3367 9.40819 20.2724C9.36393 20.2081 9.34074 20.1317 9.34183 20.0536C9.34448 19.9756 9.3706 19.9002 9.41677 19.8372C9.46294 19.7742 9.52703 19.7267 9.60066 19.7007L30.0477 12.9418C30.1264 12.9185 30.2102 12.9185 30.2889 12.9418L51.2654 20.0654C51.3394 20.0909 51.4037 20.1389 51.4491 20.2027C51.4946 20.2665 51.519 20.3429 51.519 20.4213C51.519 20.4996 51.4946 20.576 51.4491 20.6398C51.4037 20.7036 51.3394 20.7516 51.2654 20.7771L30.8889 28.283C30.847 28.2965 30.8035 28.3044 30.7595 28.3066ZM10.8536 20.0713L30.7595 27.5242L50.0007 20.436L30.1654 13.6654L10.8536 20.0713Z" fill="#005895"/>
<path d="M30.8994 52.7875L51.1465 42.3875V20.4229L30.8994 28.0581V52.7875Z" fill="#FBFBFB"/>
<path d="M30.9 53.1713C30.8311 53.1698 30.7639 53.1495 30.7058 53.1125C30.6505 53.0785 30.6046 53.0309 30.5727 52.9743C30.5408 52.9177 30.5239 52.8539 30.5235 52.7889V28.083C30.5223 28.0065 30.5449 27.9315 30.5881 27.8683C30.6312 27.8051 30.6929 27.7568 30.7647 27.7301L51.0117 20.083C51.0691 20.0627 51.1306 20.0563 51.1909 20.0645C51.2513 20.0727 51.3089 20.0952 51.3588 20.1301C51.4088 20.1641 51.4498 20.2097 51.4785 20.2629C51.5072 20.3162 51.5226 20.3755 51.5235 20.436V42.3889C51.5228 42.4582 51.5032 42.526 51.467 42.5851C51.4307 42.6441 51.3791 42.6922 51.3176 42.7242L31.0705 53.1242C31.0186 53.1541 30.9599 53.1703 30.9 53.1713V53.1713ZM31.2764 28.3183V52.1713L50.7705 42.1713V20.9948L31.2764 28.3183Z" fill="#005895"/>
<path d="M9.71777 41.9757L30.906 52.7875V28.0346L9.71777 20.0581V41.9757Z" fill="#005895"/>
<path d="M30.9055 53.1706C30.8464 53.1688 30.7883 53.1548 30.7349 53.1295L9.55842 42.3118C9.49694 42.2798 9.44531 42.2317 9.40904 42.1727C9.37278 42.1136 9.35325 42.0458 9.35254 41.9765V20.0589C9.35344 19.9976 9.36883 19.9374 9.39746 19.8832C9.42608 19.829 9.46713 19.7824 9.51725 19.7471C9.56766 19.7132 9.62544 19.6917 9.68579 19.6845C9.74615 19.6774 9.80735 19.6847 9.8643 19.7059L31.0408 27.6824C31.1125 27.7091 31.1742 27.7574 31.2174 27.8206C31.2606 27.8838 31.2831 27.9588 31.282 28.0353V52.7883C31.2827 52.8528 31.2669 52.9165 31.236 52.9731C31.2051 53.0298 31.1602 53.0775 31.1055 53.1118C31.0453 53.149 30.9762 53.1693 30.9055 53.1706V53.1706ZM10.0937 41.7648L30.529 52.1765V28.2942L10.0937 20.5883V41.7648Z" fill="#005895"/>
<path d="M31.2812 39.0704L35.5754 37.3704L31.2812 27.7881V39.0704Z" fill="#669BBF"/>
<path d="M30.1694 23.3641C30.0696 23.3641 29.9738 23.3244 29.9032 23.2538C29.8326 23.1832 29.793 23.0874 29.793 22.9876V14.0405C29.793 13.9407 29.8326 13.8449 29.9032 13.7743C29.9738 13.7037 30.0696 13.6641 30.1694 13.6641C30.2698 13.6656 30.3656 13.7066 30.436 13.7781C30.5064 13.8496 30.5459 13.946 30.5459 14.0464V22.9876C30.5459 23.0874 30.5062 23.1832 30.4356 23.2538C30.365 23.3244 30.2693 23.3641 30.1694 23.3641Z" fill="#003C75"/>
<path d="M31 27.7876L37.3941 41.1876L57.5824 32.664L51.1471 20.4229L31 27.7876Z" fill="#FBFBFB"/>
<path d="M37.3943 41.5648C37.3228 41.5641 37.2529 41.5433 37.1926 41.5048C37.1322 41.4663 37.0839 41.4117 37.0531 41.3472L30.659 27.953C30.6372 27.905 30.626 27.8528 30.626 27.8001C30.626 27.7473 30.6372 27.6952 30.659 27.6472C30.6772 27.5979 30.7062 27.5533 30.7439 27.5167C30.7815 27.48 30.8269 27.4523 30.8767 27.4354L51.0178 20.0648C51.1034 20.0335 51.1974 20.0348 51.282 20.0684C51.3667 20.1021 51.4359 20.1657 51.4767 20.2471L57.9178 32.4883C57.9381 32.5358 57.9485 32.5868 57.9485 32.6383C57.9485 32.6899 57.9381 32.7409 57.9178 32.7883C57.9003 32.8375 57.873 32.8827 57.8377 32.9211C57.8023 32.9595 57.7595 32.9904 57.7119 33.0119L37.5414 41.5354C37.4944 41.5536 37.4447 41.5636 37.3943 41.5648V41.5648ZM31.5119 28.0001L37.5708 40.7001L57.059 32.4766L50.9649 20.8883L31.5119 28.0001Z" fill="#005895"/>
<path d="M30.8994 23.7875C36.2793 23.7875 40.6406 19.4263 40.6406 14.0464C40.6406 8.66645 36.2793 4.30518 30.8994 4.30518C25.5195 4.30518 21.1582 8.66645 21.1582 14.0464C21.1582 19.4263 25.5195 23.7875 30.8994 23.7875Z" fill="#765BA7"/>
<path d="M34.9004 12.5532C34.6448 12.9869 34.33 13.3828 33.9651 13.7296L33.3768 14.3179C33.2004 14.4943 33.0415 14.6767 32.8886 14.859C32.7316 15.046 32.5862 15.2425 32.4533 15.4473C32.318 15.659 32.1768 15.9061 32.0357 16.1826C31.9152 16.4546 31.7568 16.7081 31.5651 16.9355C31.4557 17.0404 31.325 17.1205 31.1819 17.1702C31.0387 17.22 30.8865 17.2382 30.7357 17.2238C30.6138 17.2245 30.4933 17.1985 30.3825 17.1477C30.2717 17.0969 30.1734 17.0225 30.0945 16.9296C29.9229 16.7487 29.828 16.5084 29.8298 16.259C29.8247 15.873 29.9008 15.4902 30.0533 15.1355C30.1973 14.8145 30.3769 14.5106 30.5886 14.2296C30.8113 13.9432 31.0551 13.6738 31.318 13.4238C31.5827 13.1708 31.8239 12.9296 32.0416 12.6885C32.2597 12.4682 32.4566 12.2279 32.6298 11.9708C32.781 11.734 32.8588 11.4577 32.8533 11.1767C32.8555 10.9645 32.7872 10.7577 32.6592 10.5885C32.5338 10.4299 32.3697 10.3063 32.1827 10.2296C31.9757 10.1439 31.7581 10.0865 31.5357 10.059C31.3212 10.0298 31.1051 10.0141 30.8886 10.012C30.6667 10.0085 30.4447 10.0184 30.2239 10.0414C30.0429 10.0589 29.8637 10.0923 29.6886 10.1414C29.518 10.1943 29.3416 10.2532 29.171 10.3238L28.5827 10.559C28.4101 10.6338 28.2238 10.6718 28.0357 10.6708C27.7613 10.6769 27.4953 10.5756 27.2945 10.3885C27.1965 10.2969 27.1191 10.1856 27.0674 10.0619C27.0157 9.93814 26.9908 9.80485 26.9945 9.67081C26.9947 9.49755 27.0358 9.32678 27.1145 9.17243C27.1933 9.01808 27.3073 8.8845 27.4474 8.78258C27.77 8.52636 28.1341 8.32739 28.5239 8.19434C28.9389 8.05549 29.3664 7.95699 29.8004 7.90023C30.1475 7.85285 30.4971 7.82535 30.8474 7.81787C31.3678 7.81753 31.8867 7.87474 32.3945 7.98846C32.8991 8.08957 33.3826 8.2766 33.8239 8.5414C34.2402 8.79709 34.594 9.14282 34.8592 9.55317C35.1416 10.0121 35.2827 10.544 35.2651 11.0826C35.2719 11.596 35.1463 12.1024 34.9004 12.5532V12.5532ZM31.8121 20.3708C31.6925 20.4942 31.5488 20.5918 31.39 20.6576C31.2311 20.7233 31.0605 20.7559 30.8886 20.7532C30.7224 20.7528 30.558 20.7187 30.4053 20.653C30.2527 20.5873 30.1149 20.4913 30.0004 20.3708C29.8764 20.2516 29.7784 20.108 29.7126 19.949C29.6468 19.7901 29.6146 19.6193 29.618 19.4473C29.6147 19.2762 29.647 19.1063 29.7128 18.9483C29.7786 18.7903 29.8766 18.6478 30.0004 18.5296C30.1195 18.4116 30.2609 18.3185 30.4165 18.2559C30.5721 18.1932 30.7386 18.1623 30.9063 18.1649C31.0767 18.1616 31.246 18.1921 31.4046 18.2547C31.5631 18.3173 31.7076 18.4108 31.8298 18.5296C31.9528 18.6481 32.0499 18.7908 32.1147 18.9488C32.1795 19.1068 32.2107 19.2766 32.2063 19.4473C32.2085 19.6202 32.1746 19.7916 32.1068 19.9507C32.0389 20.1097 31.9385 20.2528 31.8121 20.3708Z" fill="#FBFBFB"/>
</g>
<defs>
<clipPath id="clip0_82_74823">
<rect width="60" height="60" fill="white"/>
</clipPath>
</defs>
</svg>
