<svg width="60" height="60" viewBox="0 0 60 60" fill="none" xmlns="http://www.w3.org/2000/svg">
<path d="M30 60C46.5685 60 60 46.5685 60 30C60 13.4315 46.5685 0 30 0C13.4315 0 0 13.4315 0 30C0 46.5685 13.4315 60 30 60Z" fill="#EAEAEA" fill-opacity="0.6"/>
<path d="M45.2823 17.1118H45.2V17.0765L45.2823 17.1118Z" fill="white"/>
<g opacity="0.2">
<path opacity="0.2" d="M9.71765 20.0588L30.7588 27.9294L51.1471 20.4235L30.1706 13.2706L9.71765 20.0588Z" fill="white"/>
</g>
<path d="M9.41173 19.8529L2.44702 31.1412C2.42778 31.1726 2.41819 31.2089 2.41942 31.2458C2.42065 31.2826 2.43265 31.3182 2.45394 31.3483C2.47523 31.3783 2.50487 31.4015 2.53919 31.4149C2.57351 31.4282 2.611 31.4312 2.64702 31.4235L9.58231 29.5235C9.62164 29.512 9.65613 29.488 9.68055 29.455C9.70497 29.4221 9.71798 29.3821 9.71761 29.3412V19.9294C9.70874 19.8987 9.69198 19.8709 9.669 19.8488C9.64602 19.8266 9.61763 19.8109 9.58667 19.8032C9.5557 19.7954 9.52325 19.796 9.49255 19.8047C9.46185 19.8134 9.43398 19.8301 9.41173 19.8529Z" fill="#D77115"/>
<g opacity="0.2">
<path opacity="0.2" d="M9.71765 20.0588L30.7588 27.9294L51.1471 20.4235L30.1706 13.2706L9.71765 20.0588Z" fill="#383838"/>
</g>
<path d="M30.7589 28.3059C30.7139 28.3115 30.6685 28.3115 30.6236 28.3059L9.58828 20.4118C9.51499 20.3849 9.45184 20.336 9.40758 20.2717C9.36332 20.2074 9.34013 20.131 9.34122 20.0529C9.34387 19.9749 9.36999 19.8995 9.41616 19.8365C9.46233 19.7736 9.52642 19.726 9.60005 19.7L30.0471 12.9412C30.1258 12.9178 30.2096 12.9178 30.2883 12.9412L51.2648 20.0647C51.3388 20.0903 51.403 20.1383 51.4485 20.2021C51.494 20.2659 51.5184 20.3422 51.5184 20.4206C51.5184 20.4989 51.494 20.5753 51.4485 20.6391C51.403 20.7029 51.3388 20.7509 51.2648 20.7765L30.8883 28.2824C30.8464 28.2959 30.8029 28.3038 30.7589 28.3059ZM10.853 20.0706L30.7589 27.5235L50 20.4353L30.1648 13.6647L10.853 20.0706Z" fill="#F58520"/>
<path d="M30.9 52.7882L51.1471 42.3882V20.4235L30.9 28.0588V52.7882Z" fill="white"/>
<path d="M30.9 53.1706C30.8311 53.1691 30.7639 53.1488 30.7058 53.1118C30.6505 53.0778 30.6046 53.0303 30.5727 52.9736C30.5408 52.917 30.5239 52.8532 30.5235 52.7883V28.0824C30.5223 28.0058 30.5449 27.9308 30.5881 27.8676C30.6312 27.8044 30.6929 27.7562 30.7647 27.7294L51.0117 20.0824C51.0691 20.062 51.1306 20.0556 51.1909 20.0638C51.2513 20.072 51.3089 20.0945 51.3588 20.1294C51.4088 20.1634 51.4498 20.209 51.4785 20.2622C51.5072 20.3155 51.5226 20.3749 51.5235 20.4353V42.3883C51.5228 42.4576 51.5032 42.5254 51.467 42.5844C51.4307 42.6435 51.3791 42.6916 51.3176 42.7235L31.0705 53.1235C31.0186 53.1535 30.9599 53.1697 30.9 53.1706ZM31.2764 28.3177V52.1706L50.7705 42.1706V20.9941L31.2764 28.3177Z" fill="#F58520"/>
<path d="M9.71765 41.9765L30.9059 52.7882V28.0353L9.71765 20.0588V41.9765Z" fill="#F58520"/>
<path d="M30.9058 53.1706C30.8468 53.1687 30.7887 53.1547 30.7353 53.1294L9.55879 42.3118C9.49731 42.2798 9.44567 42.2317 9.40941 42.1726C9.37314 42.1136 9.35361 42.0458 9.35291 41.9765V20.0588C9.3538 19.9975 9.3692 19.9373 9.39782 19.8832C9.42645 19.829 9.4675 19.7823 9.51761 19.747C9.56802 19.7131 9.6258 19.6916 9.68616 19.6845C9.74652 19.6773 9.80771 19.6847 9.86467 19.7059L31.0411 27.6823C31.1129 27.7091 31.1746 27.7573 31.2177 27.8205C31.2609 27.8837 31.2835 27.9587 31.2823 28.0353V52.7882C31.2831 52.8528 31.2673 52.9164 31.2364 52.9731C31.2055 53.0297 31.1605 53.0775 31.1058 53.1118C31.0457 53.149 30.9766 53.1693 30.9058 53.1706ZM10.0941 41.7647L30.5294 52.1765V28.2941L10.0941 20.5882V41.7647Z" fill="#F58520"/>
<path d="M15.5294 34.1176L22.9412 34L18.7765 36.7176L15.0118 34.8353C14.6647 34.6706 15.0588 34.1176 15.5294 34.1176Z" fill="white"/>
<path d="M15.0237 34.8353L18.7884 36.7176L14.8942 34.5706C14.8736 34.6215 14.8736 34.6784 14.8942 34.7294C14.9072 34.7551 14.9254 34.7778 14.9477 34.7961C14.97 34.8143 14.9959 34.8276 15.0237 34.8353Z" fill="#F58520" fill-opacity="0.4"/>
<path d="M20.1706 40.5882L22.9412 34L18.7765 36.7176L19.2412 40.7412C19.3 41.1235 20 40.9824 20.1706 40.5882Z" fill="#E2E2E2"/>
<path d="M19.2529 40.7529C19.257 40.8079 19.2799 40.8598 19.3176 40.9C19.3608 40.9367 19.4142 40.9593 19.4706 40.9647L18.7882 36.7235L19.2529 40.7529Z" fill="#F58520" fill-opacity="0.4"/>
<path d="M18.7883 36.7176L17.7941 36.2235L17.4941 37.5588L18.9236 37.8706L18.7883 36.7176Z" fill="#EAEAEA"/>
<path d="M22.9411 34L18.7764 36.7176C18.7764 36.7176 19.4705 36.1588 22.9411 34Z" fill="#F58520" fill-opacity="0.4"/>
<path d="M31.2823 39.0706L35.5765 37.3706L31.2823 27.7882V39.0706Z" fill="#F58520" fill-opacity="0.6"/>
<path d="M30.1705 23.3647C30.0707 23.3647 29.9749 23.3251 29.9043 23.2545C29.8337 23.1839 29.7941 23.0881 29.7941 22.9883V14.0412C29.7941 13.9414 29.8337 13.8456 29.9043 13.775C29.9749 13.7044 30.0707 13.6647 30.1705 13.6647C30.2709 13.6663 30.3667 13.7072 30.4371 13.7788C30.5075 13.8503 30.547 13.9467 30.547 14.0471V22.9883C30.547 23.0881 30.5073 23.1839 30.4367 23.2545C30.3661 23.3251 30.2704 23.3647 30.1705 23.3647Z" fill="#D77115"/>
<path d="M31 27.7882L37.3941 41.1882L57.5824 32.6647L51.1471 20.4235L31 27.7882Z" fill="white"/>
<path d="M37.3941 41.5647C37.3225 41.564 37.2526 41.5432 37.1923 41.5047C37.132 41.4662 37.0837 41.4116 37.0529 41.347L30.6588 27.9529C30.637 27.9049 30.6257 27.8527 30.6257 27.8C30.6257 27.7472 30.637 27.6951 30.6588 27.647C30.677 27.5978 30.706 27.5532 30.7436 27.5165C30.7813 27.4799 30.8267 27.4521 30.8764 27.4353L51.0176 20.0647C51.1031 20.0334 51.1972 20.0347 51.2818 20.0683C51.3664 20.102 51.4357 20.1656 51.4764 20.247L57.9176 32.4882C57.9378 32.5356 57.9482 32.5867 57.9482 32.6382C57.9482 32.6898 57.9378 32.7408 57.9176 32.7882C57.9001 32.8374 57.8728 32.8825 57.8374 32.921C57.802 32.9594 57.7593 32.9902 57.7117 33.0117L37.5411 41.5353C37.4942 41.5535 37.4444 41.5635 37.3941 41.5647ZM31.5117 28L37.5705 40.7L57.0588 32.4764L50.9646 20.8882L31.5117 28Z" fill="#F58520"/>
<path d="M30.9 23.7883C36.2799 23.7883 40.6412 19.427 40.6412 14.0471C40.6412 8.66718 36.2799 4.30591 30.9 4.30591C25.5201 4.30591 21.1588 8.66718 21.1588 14.0471C21.1588 19.427 25.5201 23.7883 30.9 23.7883Z" fill="#863399"/>
<path d="M34.9 12.5529C34.6444 12.9866 34.3296 13.3826 33.9647 13.7294L33.3765 14.3176C33.2 14.4941 33.0412 14.6765 32.8882 14.8588C32.7312 15.0458 32.5859 15.2422 32.4529 15.447C32.3177 15.6588 32.1765 15.9059 32.0353 16.1823C31.9149 16.4543 31.7564 16.7078 31.5647 16.9353C31.4553 17.0402 31.3246 17.1202 31.1815 17.17C31.0383 17.2197 30.8862 17.238 30.7353 17.2235C30.6134 17.2242 30.4929 17.1983 30.3821 17.1475C30.2714 17.0966 30.1731 17.0222 30.0941 16.9294C29.9225 16.7485 29.8277 16.5081 29.8294 16.2588C29.8243 15.8728 29.9005 15.49 30.0529 15.1353C30.197 14.8143 30.3765 14.5104 30.5882 14.2294C30.8109 13.943 31.0548 13.6736 31.3177 13.4235C31.5824 13.1706 31.8235 12.9294 32.0412 12.6882C32.2593 12.4679 32.4562 12.2277 32.6294 11.9706C32.7807 11.7337 32.8585 11.4574 32.8529 11.1765C32.8551 10.9643 32.7868 10.7574 32.6588 10.5882C32.5335 10.4297 32.3694 10.3061 32.1824 10.2294C31.9753 10.1437 31.7577 10.0863 31.5353 10.0588C31.3208 10.0296 31.1047 10.0138 30.8882 10.0117C30.6663 10.0083 30.4443 10.0181 30.2235 10.0412C30.0425 10.0586 29.8634 10.0921 29.6882 10.1412C29.5177 10.1941 29.3412 10.2529 29.1706 10.3235L28.5824 10.5588C28.4097 10.6335 28.2234 10.6716 28.0353 10.6706C27.7609 10.6767 27.4949 10.5753 27.2941 10.3882C27.1962 10.2967 27.1188 10.1853 27.067 10.0616C27.0153 9.9379 26.9905 9.80461 26.9941 9.67057C26.9943 9.49731 27.0355 9.32654 27.1142 9.17219C27.1929 9.01783 27.3069 8.88425 27.4471 8.78233C27.7696 8.52611 28.1337 8.32715 28.5235 8.1941C28.9386 8.05525 29.3661 7.95675 29.8 7.89998C30.1472 7.8526 30.4968 7.82511 30.8471 7.81763C31.3675 7.81729 31.8863 7.8745 32.3941 7.98822C32.8987 8.08933 33.3822 8.27636 33.8235 8.54116C34.2399 8.79685 34.5936 9.14257 34.8588 9.55292C35.1412 10.0119 35.2824 10.5438 35.2647 11.0823C35.2715 11.5957 35.1459 12.1022 34.9 12.5529ZM31.8118 20.3706C31.6921 20.494 31.5484 20.5916 31.3896 20.6573C31.2308 20.7231 31.0601 20.7556 30.8882 20.7529C30.722 20.7525 30.5576 20.7185 30.405 20.6527C30.2523 20.587 30.1145 20.491 30 20.3706C29.876 20.2513 29.7781 20.1077 29.7123 19.9488C29.6465 19.7899 29.6142 19.619 29.6177 19.447C29.6143 19.2759 29.6466 19.106 29.7124 18.9481C29.7783 18.7901 29.8762 18.6475 30 18.5294C30.1191 18.4113 30.2606 18.3182 30.4161 18.2556C30.5717 18.193 30.7382 18.1621 30.9059 18.1647C31.0763 18.1614 31.2457 18.1919 31.4042 18.2545C31.5627 18.3171 31.7073 18.4105 31.8294 18.5294C31.9525 18.6478 32.0495 18.7906 32.1143 18.9486C32.1791 19.1066 32.2103 19.2763 32.2059 19.447C32.2082 19.6199 32.1743 19.7914 32.1064 19.9504C32.0385 20.1095 31.9382 20.2526 31.8118 20.3706Z" fill="white"/>
</svg>
