<svg width="61" height="61" viewBox="0 0 61 61" fill="none" xmlns="http://www.w3.org/2000/svg">
<g clip-path="url(#clip0_82_76228)">
<path d="M30.5 60.5C47.0685 60.5 60.5 47.0685 60.5 30.5C60.5 13.9315 47.0685 0.5 30.5 0.5C13.9315 0.5 0.5 13.9315 0.5 30.5C0.5 47.0685 13.9315 60.5 30.5 60.5Z" fill="#E3F2FB"/>
<path d="M45.7835 17.6124H45.7012V17.5771L45.7835 17.6124Z" fill="#FBFBFB"/>
<g opacity="0.2">
<path opacity="0.2" d="M10.2168 20.5583L31.258 28.4288L51.6462 20.923L30.6697 13.77L10.2168 20.5583Z" fill="#FBFBFB"/>
</g>
<path d="M9.91136 20.3528L2.94665 31.641C2.92742 31.6725 2.91782 31.7088 2.91905 31.7456C2.92028 31.7825 2.93229 31.8181 2.95358 31.8482C2.97487 31.8782 3.00451 31.9014 3.03883 31.9147C3.07315 31.9281 3.11064 31.9311 3.14665 31.9234L10.0819 30.0234C10.1213 30.0119 10.1558 29.9878 10.1802 29.9549C10.2046 29.922 10.2176 29.882 10.2172 29.841V20.4293C10.2084 20.3986 10.1916 20.3708 10.1686 20.3487C10.1457 20.3265 10.1173 20.3108 10.0863 20.3031C10.0553 20.2953 10.0229 20.2958 9.99218 20.3046C9.96148 20.3133 9.93361 20.3299 9.91136 20.3528V20.3528Z" fill="#003C75"/>
<g opacity="0.2">
<path opacity="0.2" d="M10.2168 20.5583L31.258 28.4288L51.6462 20.923L30.6697 13.77L10.2168 20.5583Z" fill="#090909"/>
</g>
<path d="M31.2595 28.8066C31.2146 28.8121 31.1691 28.8121 31.1242 28.8066L10.0889 20.9124C10.0156 20.8856 9.95245 20.8367 9.90819 20.7724C9.86393 20.7081 9.84074 20.6317 9.84183 20.5536C9.84448 20.4756 9.8706 20.4002 9.91677 20.3372C9.96294 20.2742 10.027 20.2267 10.1007 20.2007L30.5477 13.4418C30.6264 13.4185 30.7102 13.4185 30.7889 13.4418L51.7654 20.5654C51.8394 20.5909 51.9037 20.6389 51.9491 20.7027C51.9946 20.7665 52.019 20.8429 52.019 20.9213C52.019 20.9996 51.9946 21.076 51.9491 21.1398C51.9037 21.2036 51.8394 21.2516 51.7654 21.2771L31.3889 28.783C31.347 28.7965 31.3035 28.8044 31.2595 28.8066ZM11.3536 20.5713L31.2595 28.0242L50.5007 20.936L30.6654 14.1654L11.3536 20.5713Z" fill="#005895"/>
<path d="M31.3994 53.2875L51.6465 42.8875V20.9229L31.3994 28.5581V53.2875Z" fill="#FBFBFB"/>
<path d="M31.4 53.6715C31.3311 53.67 31.2639 53.6497 31.2058 53.6127C31.1505 53.5787 31.1046 53.5312 31.0727 53.4746C31.0408 53.418 31.0239 53.3541 31.0235 53.2892V28.5833C31.0223 28.5068 31.0449 28.4317 31.0881 28.3685C31.1312 28.3053 31.1929 28.2571 31.2647 28.2303L51.5117 20.5833C51.5691 20.5629 51.6306 20.5566 51.6909 20.5647C51.7513 20.5729 51.8089 20.5954 51.8588 20.6304C51.9088 20.6644 51.9498 20.7099 51.9785 20.7632C52.0072 20.8164 52.0226 20.8758 52.0235 20.9362V42.8892C52.0228 42.9585 52.0032 43.0263 51.967 43.0853C51.9307 43.1444 51.8791 43.1925 51.8176 43.2245L31.5705 53.6245C31.5186 53.6544 31.4599 53.6706 31.4 53.6715V53.6715ZM31.7764 28.8186V52.6715L51.2705 42.6715V21.4951L31.7764 28.8186Z" fill="#005895"/>
<path d="M10.2178 42.4755L31.406 53.2873V28.5343L10.2178 20.5579V42.4755Z" fill="#005895"/>
<path d="M31.4055 53.6706C31.3464 53.6688 31.2883 53.6548 31.2349 53.6295L10.0584 42.8118C9.99694 42.7798 9.94531 42.7317 9.90904 42.6727C9.87278 42.6136 9.85325 42.5458 9.85254 42.4765V20.5589C9.85344 20.4976 9.86883 20.4374 9.89746 20.3832C9.92608 20.329 9.96713 20.2824 10.0172 20.2471C10.0677 20.2132 10.1254 20.1917 10.1858 20.1845C10.2462 20.1774 10.3073 20.1847 10.3643 20.2059L31.5408 28.1824C31.6125 28.2091 31.6742 28.2574 31.7174 28.3206C31.7606 28.3838 31.7831 28.4588 31.782 28.5353V53.2883C31.7827 53.3528 31.7669 53.4165 31.736 53.4731C31.7051 53.5298 31.6602 53.5775 31.6055 53.6118C31.5453 53.649 31.4762 53.6693 31.4055 53.6706V53.6706ZM10.5937 42.2648L31.029 52.6765V28.7942L10.5937 21.0883V42.2648Z" fill="#005895"/>
<path d="M31.7812 39.5704L36.0754 37.8704L31.7812 28.2881V39.5704Z" fill="#669BBF"/>
<path d="M30.6694 23.8641C30.5696 23.8641 30.4738 23.8244 30.4032 23.7538C30.3326 23.6832 30.293 23.5874 30.293 23.4876V14.5405C30.293 14.4407 30.3326 14.3449 30.4032 14.2743C30.4738 14.2037 30.5696 14.1641 30.6694 14.1641C30.7698 14.1656 30.8656 14.2066 30.936 14.2781C31.0064 14.3496 31.0459 14.446 31.0459 14.5464V23.4876C31.0459 23.5874 31.0062 23.6832 30.9356 23.7538C30.865 23.8244 30.7693 23.8641 30.6694 23.8641Z" fill="#003C75"/>
<path d="M31.5 28.2876L37.8941 41.6876L58.0824 33.164L51.6471 20.9229L31.5 28.2876Z" fill="#FBFBFB"/>
<path d="M37.8943 42.0646C37.8228 42.0638 37.7529 42.043 37.6926 42.0046C37.6322 41.9661 37.5839 41.9115 37.5531 41.8469L31.159 28.4528C31.1372 28.4047 31.126 28.3526 31.126 28.2998C31.126 28.2471 31.1372 28.195 31.159 28.1469C31.1772 28.0976 31.2062 28.0531 31.2439 28.0164C31.2815 27.9798 31.3269 27.952 31.3767 27.9351L51.5178 20.5646C51.6034 20.5333 51.6974 20.5346 51.782 20.5682C51.8667 20.6018 51.9359 20.6654 51.9767 20.7469L58.4178 32.9881C58.4381 33.0355 58.4485 33.0865 58.4485 33.1381C58.4485 33.1896 58.4381 33.2407 58.4178 33.2881C58.4003 33.3373 58.373 33.3824 58.3377 33.4208C58.3023 33.4592 58.2595 33.4901 58.2119 33.5116L38.0414 42.0351C37.9944 42.0534 37.9447 42.0633 37.8943 42.0646V42.0646ZM32.0119 28.4998L38.0708 41.1999L57.559 32.9763L51.4649 21.3881L32.0119 28.4998Z" fill="#005895"/>
<path d="M31.4004 24.2878C36.7803 24.2878 41.1415 19.9265 41.1415 14.5466C41.1415 9.16669 36.7803 4.80542 31.4004 4.80542C26.0205 4.80542 21.6592 9.16669 21.6592 14.5466C21.6592 19.9265 26.0205 24.2878 31.4004 24.2878Z" fill="#765BA7"/>
<path d="M35.4014 13.0529C35.1458 13.4866 34.831 13.8826 34.4661 14.2294L33.8778 14.8176C33.7014 14.9941 33.5425 15.1765 33.3896 15.3588C33.2326 15.5458 33.0872 15.7422 32.9543 15.947C32.819 16.1588 32.6778 16.4059 32.5366 16.6823C32.4162 16.9543 32.2578 17.2078 32.0661 17.4353C31.9567 17.5402 31.826 17.6202 31.6828 17.67C31.5397 17.7197 31.3875 17.738 31.2366 17.7235C31.1148 17.7242 30.9942 17.6983 30.8835 17.6475C30.7727 17.5966 30.6744 17.5222 30.5955 17.4294C30.4239 17.2485 30.329 17.0081 30.3308 16.7588C30.3257 16.3728 30.4018 15.99 30.5543 15.6353C30.6983 15.3143 30.8779 15.0104 31.0896 14.7294C31.3123 14.443 31.5561 14.1736 31.819 13.9235C32.0837 13.6706 32.3249 13.4294 32.5425 13.1882C32.7606 12.9679 32.9576 12.7277 33.1308 12.4706C33.282 12.2337 33.3598 11.9574 33.3543 11.6765C33.3564 11.4643 33.2882 11.2574 33.1602 11.0882C33.0348 10.9297 32.8707 10.8061 32.6837 10.7294C32.4767 10.6437 32.259 10.5863 32.0366 10.5588C31.8222 10.5296 31.606 10.5138 31.3896 10.5117C31.1676 10.5083 30.9457 10.5181 30.7249 10.5412C30.5438 10.5586 30.3647 10.5921 30.1896 10.6412C30.019 10.6941 29.8425 10.7529 29.6719 10.8235L29.0837 11.0588C28.9111 11.1335 28.7248 11.1716 28.5366 11.1706C28.2622 11.1767 27.9963 11.0753 27.7955 10.8882C27.6975 10.7967 27.6201 10.6853 27.5684 10.5616C27.5167 10.4379 27.4918 10.3046 27.4955 10.1706C27.4957 9.99731 27.5368 9.82654 27.6155 9.67219C27.6942 9.51783 27.8083 9.38425 27.9484 9.28233C28.2709 9.02611 28.635 8.82715 29.0249 8.6941C29.4399 8.55525 29.8674 8.45675 30.3014 8.39998C30.6485 8.3526 30.9981 8.32511 31.3484 8.31763C31.8688 8.31729 32.3876 8.3745 32.8955 8.48822C33.4001 8.58933 33.8836 8.77636 34.3249 9.04116C34.7412 9.29685 35.095 9.64257 35.3602 10.0529C35.6425 10.5119 35.7837 11.0438 35.7661 11.5823C35.7728 12.0957 35.6472 12.6022 35.4014 13.0529V13.0529ZM32.3131 20.8706C32.1934 20.994 32.0498 21.0916 31.8909 21.1573C31.7321 21.2231 31.5615 21.2556 31.3896 21.2529C31.2234 21.2525 31.059 21.2185 30.9063 21.1527C30.7536 21.087 30.6159 20.991 30.5014 20.8706C30.3774 20.7513 30.2794 20.6077 30.2136 20.4488C30.1478 20.2899 30.1156 20.119 30.119 19.947C30.1157 19.7759 30.148 19.606 30.2138 19.4481C30.2796 19.2901 30.3775 19.1475 30.5014 19.0294C30.6204 18.9113 30.7619 18.8182 30.9175 18.7556C31.073 18.693 31.2396 18.6621 31.4072 18.6647C31.5776 18.6614 31.747 18.6919 31.9055 18.7545C32.0641 18.8171 32.2086 18.9105 32.3308 19.0294C32.4538 19.1478 32.5508 19.2906 32.6156 19.4486C32.6805 19.6066 32.7117 19.7763 32.7072 19.947C32.7095 20.1199 32.6756 20.2914 32.6077 20.4504C32.5399 20.6095 32.4395 20.7526 32.3131 20.8706Z" fill="#FBFBFB"/>
<circle cx="30.5" cy="30.198" r="30" fill="#A5A3A3" style="mix-blend-mode:color"/>
</g>
<defs>
<clipPath id="clip0_82_76228">
<rect width="60" height="60" fill="white" transform="translate(0.5 0.5)"/>
</clipPath>
</defs>
</svg>
