<svg width="301" height="156" viewBox="0 0 301 156" fill="none" xmlns="http://www.w3.org/2000/svg">
<path fill-rule="evenodd" clip-rule="evenodd" d="M70.0825 54.8161L68.013 55.7653C67.5969 55.9562 67.1863 56.3187 66.7399 55.6159C67.5666 54.7414 67.4949 53.6096 67.4839 52.4861C67.4839 51.7058 67.4398 50.9226 67.4646 50.145C67.4894 49.3675 67.3379 48.6839 66.5332 48.3214C66.3954 48.2578 66.3045 48.0862 66.0896 47.8565C66.3412 47.6971 66.6139 47.5742 66.8997 47.4913C67.5406 47.4261 68.1845 47.3965 68.8287 47.4027C71.1186 47.4027 73.4058 47.4608 75.6957 47.4636C76.2468 47.4636 76.7979 47.3529 77.3684 47.2976C77.7069 47.2402 78.0503 47.217 78.3935 47.2284C79.0217 47.3031 79.2945 47.8095 78.8536 48.1969C77.8478 49.0852 78.0049 50.2142 78.027 51.3211C78.1073 54.5327 77.7597 57.7407 76.9936 60.8598C76.4976 62.7968 75.8335 64.6702 74.5714 66.2752C73.2342 67.9976 71.2727 69.1188 69.1152 69.3939C66.9107 69.7343 64.7421 69.7205 62.6175 68.8903C60.3082 67.9882 58.7734 66.3389 57.751 64.1168C56.7535 61.9501 56.3732 59.6699 56.3346 57.3011C56.2712 54.2239 56.0949 51.1523 56.0425 48.0752C55.9654 43.3709 56.2712 38.6887 57.3597 34.1228C58.2581 30.3455 60.0079 26.9805 63.3229 24.6699C64.204 24.0304 65.2671 23.6936 66.3541 23.7097C67.5197 23.7097 68.6854 23.6848 69.851 23.6958C72.0555 23.7124 73.7502 24.6754 74.9462 26.5156C76.4259 28.7903 77.0735 31.3417 77.2774 34.0093C77.418 35.8689 77.4868 37.734 77.5364 39.5963C77.5585 40.504 77.6412 41.3286 78.5285 41.8406C78.647 41.907 78.6773 42.1173 78.8343 42.4521C78.4156 42.5647 77.9892 42.6461 77.5585 42.6957C74.9737 42.7897 72.3889 42.8645 69.8041 42.9364C69.6518 42.9205 69.5025 42.8833 69.3605 42.8257C69.3357 42.679 69.2778 42.549 69.3136 42.5213C70.1403 41.6054 70.1899 40.4985 70.1155 39.3556C70.0108 37.7589 69.953 36.1539 69.7821 34.5628C69.6774 33.5942 69.344 32.6644 68.2279 32.396C67.3875 32.194 66.321 32.8443 65.8112 34.001C65.3978 34.9538 65.0802 35.9457 64.8633 36.9619C64.0008 40.8361 63.874 44.7766 63.8355 48.7282C63.8051 51.8939 63.7445 55.0624 64.3342 58.1922C64.5244 59.1994 64.7421 60.2648 65.2353 61.1365C66.175 62.7968 68.4181 62.6391 69.3054 60.929C69.4369 60.6567 69.5386 60.371 69.6085 60.0766C70.0191 58.4744 70.0604 56.8362 70.0825 54.8161ZM73.6152 40.4016L73.9266 40.3297C74.0671 38.4701 73.8384 36.6188 73.5491 34.7952C73.3092 32.9782 72.5327 31.2751 71.3197 29.9055C69.8923 28.3448 66.2439 27.534 64.1799 29.6814C62.8021 31.112 61.6365 32.6368 61.0192 34.5268C60.3975 36.5088 60.0272 38.5617 59.9169 40.6368C59.7144 44.3178 59.7337 48.0077 59.9748 51.6864C60.1402 54.7303 60.4901 57.7245 61.4463 60.6384C62.0554 62.5962 63.2528 64.3168 64.8743 65.5641C65.0708 65.727 65.2974 65.8493 65.5412 65.9238C67.5445 66.4357 71.2013 65.4119 72.1547 62.7941C72.4964 61.8615 72.9483 60.9428 73.1219 59.977C73.6372 57.1406 74.0368 54.2848 74.4997 51.2187L69.4983 51.5785C69.4983 51.6698 69.4983 51.7639 69.5121 51.8552H73.9348C73.4168 54.9434 73.1798 57.9763 72.2429 60.8764C72.014 61.5762 71.7274 62.2556 71.3859 62.9075C70.4572 64.7007 67.8807 65.9515 65.9077 65.5834C65.533 65.4986 65.1824 65.3292 64.8826 65.0881C63.4249 63.9646 62.5872 62.4316 62.0085 60.7076C60.9062 57.3869 60.6444 53.9168 60.4681 50.4688C60.2917 46.9627 60.1209 43.4594 60.3661 39.9395C60.6417 36.0654 61.9451 32.7447 64.731 29.9608C66.4368 28.2645 69.8014 28.7322 70.9918 30.3676C72.0232 31.8206 72.6673 33.5143 72.8629 35.2878C73.0586 36.7461 73.1633 38.2183 73.3314 39.6821C73.3967 39.9326 73.492 40.1742 73.6152 40.4016Z" fill="#7D318B"/>
<path d="M72.2155 41.1972L75.5002 40.6479L74.9527 36.2535L73.8578 30.7605L69.4783 25.2676L64.0038 26.3662C63.2739 27.4648 61.7046 29.7718 61.2666 30.2112C60.7192 30.7605 60.1717 34.6056 60.1717 35.1549C60.1717 35.5943 59.0768 39.3662 58.5294 41.1972L57.9819 47.7887C58.1644 49.4366 58.5294 52.8422 58.5294 53.2817V58.2253C58.5294 58.6648 60.3542 61.7042 61.2666 63.169L63.4564 67.0141H67.8359L71.6681 65.3662C72.2155 64.8169 73.3104 63.6084 73.3104 63.169C73.3104 62.7295 74.0403 60.7887 74.4053 59.8732L74.9527 54.3803L76.0476 49.4366L72.2155 48.8873L68.3834 49.4366L68.9308 52.7324L71.6681 53.2817L72.2155 58.7746L69.4783 62.6197L67.8359 63.7183L64.5513 62.6197C63.4564 58.5915 61.2666 50.4253 61.2666 49.9859V40.6479C61.9965 38.6338 63.4564 34.4957 63.4564 34.0563C63.4564 33.6169 64.5513 32.0422 65.0987 31.3098L67.2885 30.2112L69.4783 30.7605L70.5732 34.0563L72.2155 41.1972Z" fill="#7D318B"/>
<path fill-rule="evenodd" clip-rule="evenodd" d="M73.6152 39.8481C73.4932 39.6162 73.4006 39.3698 73.3396 39.1148C73.1715 37.6509 73.064 36.1787 72.8711 34.7176C72.6751 32.9443 72.031 31.2507 71.0001 29.7975C69.8096 28.1621 66.445 27.6972 64.7393 29.3935C61.9533 32.1607 60.6472 35.4814 60.3744 39.3694C60.1291 42.8893 60.3 46.3954 60.4763 49.8849C60.6527 53.3743 60.9007 56.8029 62.0167 60.1402C62.5954 61.8614 63.4331 63.3972 64.8908 64.518C65.1898 64.761 65.5406 64.9315 65.9159 65.0161C67.889 65.3897 70.4655 64.1333 71.3941 62.3402C71.7366 61.6938 72.0251 61.0199 72.2566 60.3256C73.1936 57.4228 73.4305 54.3927 73.9486 51.3044H69.5258C69.5258 51.2104 69.5258 51.1163 69.512 51.0277L74.5135 50.668C74.0368 53.7341 73.6372 56.5899 73.1357 59.4263C72.9621 60.3948 72.5102 61.3135 72.1685 62.2461C71.2095 64.8611 67.5528 65.8878 65.5549 65.3731C65.3114 65.2994 65.0848 65.1781 64.8881 65.0161C63.2665 63.7677 62.0691 62.0462 61.4601 60.0876C60.5039 57.1737 60.1539 54.1741 59.9886 51.1384C59.7475 47.4588 59.7281 43.768 59.9307 40.0861C60.0407 38.0118 60.4111 35.9599 61.033 33.9788C61.6502 32.086 62.8159 30.5613 64.1937 29.1306C66.2576 26.986 69.9061 27.794 71.3335 29.3575C72.5519 30.7251 73.3334 32.4285 73.5766 34.2472C73.8659 36.0764 74.0946 37.9249 73.9541 39.7817L73.6152 39.8481Z" fill="#F97716"/>
<path d="M100.682 28.5633V25.8169L85.354 24.7183V29.1126H88.0912L100.682 28.5633Z" fill="#7D318B"/>
<path d="M99.0404 49.9859V47.2395L83.7119 46.1409V50.5352H86.4491L99.0404 49.9859Z" fill="#7D318B"/>
<path d="M100.135 67.5633V64.8169L84.8066 63.7183V68.1126H87.5439L100.135 67.5633Z" fill="#7D318B"/>
<path fill-rule="evenodd" clip-rule="evenodd" d="M91.2017 31.3555C91.1466 35.783 90.9041 40.1193 91.1631 44.5192C93.3842 44.9177 95.4977 44.7157 97.5975 44.724C97.9199 44.724 98.2672 44.403 98.562 44.1705C98.8104 43.9416 99.0407 43.6936 99.2509 43.4289C99.7552 44.5801 99.8627 51.8275 99.4686 54.08C99.0167 54.3124 98.7907 54.0053 98.4793 53.7424C98.168 53.4795 97.6967 53.1142 97.2917 53.1004C95.4371 53.0478 93.5798 53.1004 91.7253 53.1198C91.6063 53.1409 91.4923 53.1841 91.3891 53.2471V62.0192C92.1221 62.0745 92.7118 62.1465 93.3015 62.1548C95.2442 62.1824 97.187 62.1548 99.1297 62.2157C99.5384 62.229 99.9453 62.157 100.325 62.0041C100.704 61.8512 101.048 61.6207 101.334 61.3274C101.544 61.1281 101.748 60.9261 102.029 60.6549C102.199 60.8901 102.412 61.0479 102.412 61.2084C102.434 63.8428 102.428 66.4661 102.428 69.2998C101.494 69.2998 100.601 69.2998 99.7083 69.2998C95.5198 69.2998 91.334 69.2998 87.1454 69.3191C86.1121 69.3191 85.0815 69.4962 84.0481 69.5378C83.1167 69.5793 82.9954 69.3108 83.3812 68.4668C83.6175 68.0154 83.7529 67.5178 83.778 67.0085C83.7009 60.8542 83.5741 54.7026 83.4832 48.5511C83.3785 41.4835 83.2986 34.4188 83.2076 27.3513C83.1911 26.0452 83.1084 25.8957 81.6479 24.4014C81.8601 24.2243 82.0475 23.9393 82.2735 23.9061C82.9561 23.8073 83.645 23.7583 84.3347 23.7594C86.6191 23.7594 88.9063 23.7594 91.1934 23.7594H102.321V32.6893C102.026 32.4455 101.744 32.1859 101.477 31.9117C101.268 31.6402 100.993 31.4262 100.679 31.2893C100.365 31.1525 100.022 31.0972 99.6808 31.1286C97.2228 31.2226 94.7592 31.2199 92.3012 31.2642C91.965 31.2697 91.6316 31.3195 91.2017 31.3555ZM87.7737 48.789C87.6359 41.7879 87.4982 34.8782 87.3549 27.8189C88.5508 27.8189 89.5759 27.8356 90.601 27.8189C91.6261 27.8023 92.6732 27.747 93.7066 27.6834C94.784 27.6197 95.8615 27.545 96.9334 27.4343C97.9034 27.3347 98.9258 27.5063 99.8434 27.1105L99.8103 26.8338L86.7128 27.2074C87.0187 40.4514 87.3218 53.6068 87.6304 66.9587C89.0964 66.8701 90.4191 66.7844 91.7391 66.7096C93.059 66.6349 94.3321 66.6239 95.619 66.4938C96.9059 66.3637 98.2148 66.5934 99.4769 66.0676C98.911 65.9171 98.3258 65.8528 97.7408 65.8767C95.1092 65.9736 92.4776 66.0981 89.846 66.1949C89.3114 66.2143 88.774 66.1562 88.176 66.1313C88.0741 60.5193 87.9749 55.0624 87.8729 49.5445C88.9917 49.4559 89.9699 49.3591 90.951 49.3065C91.932 49.2539 92.935 49.265 93.927 49.218C94.8529 49.1737 95.8064 49.3342 96.6827 48.789H87.7737Z" fill="#7D318B"/>
<path fill-rule="evenodd" clip-rule="evenodd" d="M87.7736 48.5428H96.6715C95.7897 49.0962 94.8363 48.9247 93.9159 48.9689C92.9239 49.016 91.9318 49.0049 90.9398 49.0575C89.9478 49.1101 88.9806 49.2069 87.8618 49.2955C87.9637 54.8299 88.0629 60.2703 88.1649 65.8989C88.7629 65.921 89.3002 65.9791 89.8348 65.9598C92.4664 65.8629 95.0981 65.7384 97.7297 65.6415C98.3146 65.6176 98.8998 65.6819 99.4657 65.8325C98.2147 66.3582 96.8975 66.1286 95.6079 66.2586C94.3182 66.3887 93.0203 66.4025 91.7279 66.4745C90.4355 66.5464 89.0853 66.6377 87.6193 66.7263C87.3107 53.3716 87.0075 40.2162 86.7017 26.975L99.7992 26.5986L99.8322 26.8754C98.9146 27.2711 97.9033 27.0995 96.9223 27.1991C95.8504 27.3098 94.7729 27.3845 93.6955 27.4482C92.6621 27.5118 91.626 27.5616 90.5899 27.5838C89.5537 27.6059 88.5397 27.5838 87.3437 27.5838C87.498 34.6291 87.6358 41.5417 87.7736 48.5428Z" fill="#F97716"/>
<path fill-rule="evenodd" clip-rule="evenodd" d="M114.663 30.6055C112.585 30.5668 110.601 30.4506 108.626 30.5391C108.019 30.5696 107.421 31.1285 106.859 31.5021C106.584 31.6792 106.407 31.9892 105.997 32.4485C105.863 31.9957 105.766 31.5331 105.705 31.0649C105.647 28.5495 105.614 26.0341 105.581 23.5187C105.615 23.3668 105.671 23.2205 105.746 23.0842C107.306 23.9697 108.962 23.8397 110.654 23.8037C114.321 23.729 117.992 23.8729 121.662 23.8424C123.641 23.8258 125.622 23.6681 127.593 23.5021C128.177 23.4495 128.742 23.1589 129.304 22.9486C130.037 22.6719 130.428 22.8656 130.392 23.61C130.304 25.3367 130.164 27.0607 130.04 28.7875C129.973 29.7228 129.896 30.6554 129.816 31.729C129.593 31.6351 129.382 31.5163 129.185 31.3748C128.588 30.7941 127.787 30.4738 126.956 30.4838C125.449 30.4423 123.939 30.4838 122.36 30.4838C122.294 30.7888 122.246 31.0974 122.216 31.408C122.084 36.176 121.941 40.9439 121.842 45.7146C121.808 47.3584 121.957 49.0076 121.949 50.6569C121.935 53.8226 121.833 56.9883 121.836 60.1541C121.836 62.6667 121.891 65.1849 122.045 67.692C122.092 68.4613 122.552 69.2057 122.85 70.0275C120.009 70.783 117.063 70.3679 114.151 70.3513C114.106 70.1908 114.038 70.0746 114.068 70.0331C114.999 68.7712 115.076 67.3267 115.054 65.8269C114.994 61.3993 114.969 56.9717 114.95 52.5442C114.928 47.4275 114.95 42.3054 114.903 37.1916C114.884 35.0746 114.751 32.9577 114.663 30.6055Z" fill="#7D318B"/>
<path fill-rule="evenodd" clip-rule="evenodd" d="M127.777 26.2887L118.684 26.6374C118.609 33.4337 118.408 40.2605 118.513 47.0956C118.617 53.9306 119.047 60.7076 118.896 67.5177C118.783 67.5177 118.667 67.5177 118.551 67.5177C118.408 62.9988 118.232 58.4744 118.132 53.9583C118.033 49.4422 117.942 44.8624 117.962 40.3131C117.981 35.7637 118.138 31.2255 118.237 26.5461H108.245C108.245 26.4548 108.245 26.3662 108.231 26.2694C109.146 26.1863 110.058 26.0286 110.971 26.0341C114.25 26.0341 117.526 26.1614 120.803 26.1421C122.654 26.1421 124.503 25.9345 126.352 25.81C126.846 25.7768 127.339 25.6633 127.791 25.8792L127.777 26.2887Z" fill="#F97716"/>
<path fill-rule="evenodd" clip-rule="evenodd" d="M165.714 23.372C165.438 23.6626 165.207 23.9559 164.934 24.2022C164.05 25.0391 163.427 26.1158 163.14 27.3015C161.721 32.7917 160.257 38.2708 158.844 43.7637C158.238 46.1103 157.706 48.468 157.168 50.8396C157.09 51.2655 157.064 51.6995 157.091 52.1318C157.182 57.0714 157.27 62.0109 157.392 66.9504C157.416 68.0019 157.609 69.0203 158.615 69.6678C158.838 69.8117 158.951 70.1216 159.254 70.5533C158.77 70.6778 158.277 70.7703 157.78 70.83C155.066 70.9241 152.349 70.9905 149.634 71.0597C148.981 71.0791 148.981 71.0597 148.408 70.3679C148.428 70.2877 148.408 70.1797 148.472 70.1244C149.877 68.6024 150.031 66.7567 149.984 64.7947C149.88 60.3312 149.874 55.8648 149.814 51.3985C149.809 50.9303 149.742 50.4648 149.612 50.0149C147.452 42.9271 145.28 35.8485 143.095 28.7792C143.002 28.4226 142.839 28.0884 142.615 27.7961C142.391 27.5039 142.111 27.2595 141.792 27.0773C141.451 26.8338 141.13 26.5626 140.833 26.2665C141.541 26.0313 142.001 25.7629 142.486 25.7435C145.198 25.6328 147.915 25.5692 150.629 25.5194C150.981 25.5487 151.329 25.6183 151.665 25.7269C151.665 25.9704 151.682 26.0922 151.638 26.1337C150.899 26.8172 150.888 27.5588 151.26 28.4665C151.905 30.0272 152.437 31.6322 153.024 33.215C153.132 33.4401 153.255 33.6573 153.393 33.8653C154.387 31.1912 155.13 28.4294 155.611 25.6162C155.69 25.2758 155.684 24.9214 155.595 24.5838C155.505 24.2461 155.335 23.9356 155.099 23.6792C154.548 23.0648 154.741 22.647 155.559 22.5944C156.678 22.5197 157.802 22.5058 158.924 22.5169C160.734 22.5363 162.545 22.5999 164.355 22.647C164.87 22.6691 165.358 22.7743 165.714 23.372ZM153.688 68.7186H154.09C154.09 68.3561 154.09 67.9964 154.09 67.6339C154.063 65.2956 154.038 62.9545 154.002 60.6162C153.938 56.5428 153.872 52.4704 153.804 48.3988C153.771 46.4978 153.804 44.6077 154.391 42.7731C154.63 42.0314 154.829 41.276 155.071 40.5371C156.556 36.0118 158.044 31.492 159.535 26.9777C159.605 26.7152 159.66 26.4491 159.701 26.1807L159.475 26.1171C157.46 32.0777 155.449 38.0411 153.363 44.2176C152.613 42.2639 151.946 40.4929 151.252 38.7301C150.558 36.9674 149.833 35.1964 149.127 33.4281C148.447 31.7235 147.824 29.994 146.893 28.4028C146.886 28.7088 146.941 29.0129 147.055 29.2966C148.896 34.1531 150.753 39.0041 152.566 43.8661C152.927 44.8319 153.363 45.8392 153.393 46.8437C153.523 50.0011 153.492 53.1696 153.509 56.3325C153.525 60.2343 153.509 64.1333 153.542 68.0351C153.569 68.267 153.618 68.4958 153.688 68.7186Z" fill="#7D318B"/>
<path fill-rule="evenodd" clip-rule="evenodd" d="M153.688 68.7187C153.624 68.4935 153.58 68.2628 153.559 68.0296C153.539 64.1278 153.542 60.2288 153.526 56.327C153.509 53.164 153.526 49.9956 153.41 46.8382C153.368 45.8336 152.933 44.8264 152.583 43.8606C150.762 38.9986 148.904 34.1476 147.072 29.2911C146.958 29.0073 146.902 28.7032 146.909 28.3973C147.841 29.9885 148.463 31.718 149.144 33.4226C149.849 35.1909 150.574 36.9536 151.269 38.7246C151.963 40.4957 152.63 42.2584 153.379 44.212C155.465 38.0356 157.477 32.0722 159.491 26.1116L159.717 26.1752C159.676 26.4436 159.621 26.7097 159.552 26.9722C158.068 31.4938 156.58 36.0137 155.088 40.5316C154.845 41.2705 154.647 42.0259 154.407 42.7676C153.82 44.6022 153.787 46.4922 153.82 48.3933C153.89 52.4649 153.956 56.5373 154.019 60.6107C154.055 62.949 154.079 65.2901 154.107 67.6284C154.107 67.9909 154.107 68.3506 154.107 68.7131L153.688 68.7187Z" fill="#F97716"/>
<path d="M152.181 31.04C150.051 25.8653 147.375 21.4958 142.032 19.3152C139.196 18.1558 136.157 17.8209 133.264 16.8911C131.541 16.3377 129.218 16.0278 127.477 15.0537C129.127 14.4894 130.599 13.4965 131.743 12.1758C133.244 10.3743 133.881 7.07023 131.585 5.6451C129.557 4.38601 126.488 5.6451 125.002 7.18922C124.914 7.28 124.85 7.39121 124.815 7.51299C123.793 8.70485 123.235 10.2269 123.241 11.7994C123.242 12.2855 123.331 12.7675 123.503 13.2218C122.781 13.3934 122.081 13.5456 121.436 13.6922C113.966 15.3941 106.132 15.9198 98.4876 15.6293C95.0541 15.502 91.5985 15.1672 88.2559 14.3453C86.0073 13.7918 83.417 12.9921 81.8987 11.1187C81.2676 10.3411 80.1819 11.448 80.7964 12.2256C82.8824 14.7991 86.71 15.6846 89.788 16.2768C94.5911 17.1983 106.666 17.4501 115.253 16.8303C118.284 16.6116 121.963 16.4511 125.297 15.6985C126.499 16.7179 127.848 17.5483 129.298 18.1613C132.374 19.5145 135.755 19.9489 138.96 20.8898C142.939 22.0603 145.849 24.2963 147.386 28.223C147.744 29.1444 149.241 28.7432 148.877 27.8106C148.745 27.4703 148.601 27.1382 148.458 26.82C149.31 28.308 150.053 29.8562 150.682 31.4523C151.068 32.3766 152.564 31.9643 152.181 31.04ZM130.412 7.27224C131.63 7.86996 131.478 9.12075 130.726 9.92048C129.408 11.3041 127.4 12.1343 125.363 12.7375C124.448 10.3273 127.763 5.97441 130.412 7.27224Z" fill="#7D318B"/>
<path fill-rule="evenodd" clip-rule="evenodd" d="M188.71 47.6158C188.745 51.4512 188.71 56.0918 187.66 60.6412C187.277 62.2402 186.77 63.8066 186.144 65.3261C185.011 68.1238 182.934 69.7537 179.883 70.0581C177.863 70.2937 175.817 70.1407 173.854 69.607C171.795 69.0203 170.451 67.6865 169.572 65.7661C168.161 62.6862 167.601 59.4014 167.29 56.0808C166.618 48.886 166.739 41.7188 167.979 34.5904C168.398 32.4196 169.082 30.3089 170.015 28.306C170.363 27.4879 170.878 26.7526 171.528 26.1479C172.177 25.5433 172.946 25.0831 173.785 24.7972C177.263 23.5021 180.509 23.9947 183.493 26.0729C184.267 26.6263 184.854 27.5229 185.337 28.3697C187.439 32.0639 188.299 36.1041 188.456 40.3186C188.544 42.477 188.616 44.6438 188.71 47.6158ZM185.047 48.5816C184.938 44.6289 184.596 40.6861 184.025 36.7738C183.683 34.3857 182.785 32.241 181.586 30.1324C180.327 27.9186 175.612 27.9186 174.276 29.7173C173.205 31.0789 172.416 32.6416 171.955 34.3137C171.316 36.8818 170.986 39.5174 170.972 42.1643C170.941 45.1557 171.043 48.1471 171.112 51.1385C171.184 54.3512 171.388 57.5612 172.377 60.6412C172.778 61.8728 173.301 63.0612 173.937 64.1888C175.108 66.2531 178.806 66.8398 180.682 65.1601C181.768 64.1888 182.749 63.1649 183.229 61.7813C183.667 60.5166 184.149 59.2271 184.301 57.9071C184.651 54.8078 184.816 51.6892 185.056 48.5816H185.047Z" fill="#7D318B"/>
<path fill-rule="evenodd" clip-rule="evenodd" d="M185.056 48.5815C184.816 51.6891 184.651 54.8078 184.301 57.9043C184.149 59.2187 183.667 60.5083 183.229 61.7784C182.749 63.1621 181.768 64.1859 180.683 65.1572C178.806 66.8369 175.108 66.2503 173.937 64.1859C173.301 63.0584 172.778 61.87 172.377 60.6383C171.377 57.5584 171.184 54.3484 171.112 51.1357C171.043 48.1443 170.941 45.1529 170.972 42.1615C170.987 39.5155 171.317 36.8808 171.956 34.3136C172.418 32.6402 173.208 31.0765 174.281 29.7145C175.618 27.9103 180.344 27.9047 181.592 30.1296C182.791 32.2493 183.689 34.3939 184.031 36.771C184.603 40.6842 184.946 44.6278 185.056 48.5815ZM184.549 49.4476C184.516 44.8983 183.672 38.221 183.061 35.2268C182.672 33.3092 181.857 31.5044 180.677 29.947C180.447 29.6048 180.14 29.3208 179.782 29.1173C179.424 28.9137 179.024 28.7961 178.613 28.7736C176.96 28.7045 175.45 28.948 174.48 30.5502C173.677 31.8321 173.08 33.2329 172.711 34.7011C171.95 37.8391 171.719 41.0353 171.691 44.2397C171.669 46.9239 171.859 49.6081 171.887 52.2951C171.902 54.9839 172.257 57.66 172.942 60.2592C173.331 61.7259 173.81 63.1676 174.791 64.3713C175.428 65.117 176.316 65.6016 177.286 65.7333C178.256 65.8649 179.24 65.6343 180.052 65.0853C181.19 64.2551 182.193 63.3032 182.675 61.9445C183.105 60.7241 183.637 59.4982 183.794 58.2308C184.146 55.3225 184.301 52.3809 184.549 49.4476Z" fill="#F97716"/>
<path fill-rule="evenodd" clip-rule="evenodd" d="M184.548 49.4477C184.306 52.381 184.146 55.3226 183.785 58.2392C183.628 59.5066 183.096 60.7297 182.666 61.9529C182.184 63.3116 181.181 64.2746 180.043 65.0937C179.231 65.6427 178.247 65.8733 177.278 65.7416C176.308 65.61 175.42 65.1254 174.783 64.3797C173.802 63.176 173.322 61.7342 172.933 60.2676C172.248 57.6675 171.893 54.9905 171.878 52.3008C171.851 49.6138 171.66 46.9296 171.682 44.2453C171.71 41.0409 171.941 37.8447 172.702 34.7067C173.071 33.2385 173.668 31.8378 174.471 30.5558C175.449 28.9536 176.968 28.7101 178.605 28.7793C179.015 28.8017 179.415 28.9194 179.774 29.1229C180.132 29.3264 180.438 29.6104 180.669 29.9526C181.849 31.51 182.663 33.3148 183.052 35.2325C183.672 38.2211 184.515 44.8984 184.548 49.4477ZM180.368 46.9572C180.297 46.9572 180.437 46.8216 180.368 46.8216C180.368 44.3975 180.247 42.1007 180.126 39.6822C180.051 38.1823 179.699 36.6936 179.395 35.2131C179.34 34.8645 179.168 34.5451 178.908 34.3073C178.649 34.0695 178.316 33.9274 177.965 33.9042C177.238 33.8488 176.943 34.4576 176.673 35.0111C176.445 35.4297 176.276 35.8775 176.169 36.3421C175.926 37.615 175.617 38.8935 175.562 40.1775C175.353 46.1132 175.46 52.0406 176.24 57.9348C176.31 58.6658 176.431 59.3909 176.604 60.1044C176.794 60.7685 177.114 61.488 177.94 61.488C178.767 61.488 179.117 60.7574 179.318 60.1044C179.62 59.114 179.811 58.0931 179.889 57.0604C180.082 53.6844 180.208 50.3194 180.368 46.9462V46.9572Z" fill="#7D318B"/>
<path fill-rule="evenodd" clip-rule="evenodd" d="M191.876 22.6415C192.482 22.5253 192.978 22.3371 193.438 22.3648C196.406 22.4838 199.374 22.6415 202.345 22.8048C202.819 22.8297 203.306 22.8518 203.535 23.4662C203.458 23.5852 203.4 23.7816 203.273 23.8536C202.154 24.4983 201.876 25.4807 201.937 26.7121C202.488 38.1961 202.146 49.6802 202.212 61.1752C202.212 62.058 202.284 62.8882 202.78 63.6658C203.372 64.59 204.21 64.8529 205.23 64.7588C206.249 64.6647 207.002 64.222 207.294 63.2507C207.586 62.2794 207.881 61.3136 207.892 60.3451C207.963 54.0579 207.988 47.7717 207.966 41.4864C207.95 37.2387 207.817 32.9937 207.762 28.7571C207.762 27.9961 207.558 27.4205 206.858 27.0331C206.638 26.9086 206.517 26.6014 206.329 26.3469C207.076 25.655 207.922 25.7021 208.718 25.6799C210.055 25.6467 211.394 25.7049 212.733 25.6799C213.767 25.6799 214.8 25.5886 215.833 25.5388C216.088 25.4895 216.348 25.4811 216.605 25.5139C216.958 25.6163 217.432 25.7436 217.575 26.0092C217.688 26.2223 217.476 26.7481 217.25 26.9833C216.525 27.7388 216.396 28.6104 216.423 29.6122C216.693 39.4525 216.611 49.2909 216.178 59.1275C216.068 61.5848 215.762 64.0366 214.75 66.3583C213.499 69.2279 211.548 71.0626 208.382 71.6409C206.04 72.0582 203.636 71.9638 201.333 71.3642C198.162 70.5617 196.291 68.3202 195.122 65.4174C194.078 62.8024 193.783 60.0434 193.744 57.2568C193.681 52.4446 193.681 47.6324 193.634 42.8202C193.584 37.2857 193.491 31.7264 193.466 26.178C193.466 25.0269 193.312 24.0307 192.262 23.361C192.124 23.2448 192.072 23.004 191.876 22.6415ZM197.938 25.4364H197.539C197.539 26.2943 197.539 27.1521 197.539 28.01C197.632 34.3746 197.712 40.7586 197.831 47.1343C197.903 51.1662 197.999 55.198 198.148 59.2299C198.217 61.0895 198.404 62.949 199.151 64.7007C199.603 65.7606 200.209 66.754 201.187 67.3268C202.81 68.2787 204.604 68.8405 206.517 68.5748C207.999 68.3507 209.523 68.074 210.493 66.6903C211.292 65.6031 211.806 64.3319 211.989 62.9933C212.16 61.5294 212.303 60.0601 212.372 58.5879C212.582 54.0828 212.813 49.5778 212.923 45.0727C213.045 39.7403 213.045 34.4078 213.089 29.0726C213.065 28.8016 213.014 28.5337 212.937 28.2728C212.845 28.3621 212.772 28.4703 212.724 28.5901C212.677 28.7099 212.656 28.8386 212.662 28.9674C212.64 32.5648 212.629 36.1622 212.607 39.7596C212.607 41.2346 212.607 42.7123 212.543 44.1872C212.337 48.648 212.124 53.1088 211.857 57.5668C211.79 59.3858 211.592 61.1975 211.265 62.9878C210.755 65.4146 209.708 67.4707 206.894 68.0186C204.312 68.5223 201.598 67.6118 200.206 65.4257C199.67 64.5863 199.315 63.6438 199.162 62.6585C198.843 60.5162 198.651 58.3567 198.589 56.1915C198.368 46.2599 198.219 36.331 198.038 26.3994C198.024 26.0867 197.966 25.763 197.933 25.4364H197.938Z" fill="#7D318B"/>
<path fill-rule="evenodd" clip-rule="evenodd" d="M197.932 25.4364C197.966 25.763 198.023 26.0867 198.029 26.4105C198.208 36.3421 198.357 46.2709 198.58 56.2025C198.643 58.3677 198.834 60.5273 199.153 62.6696C199.306 63.6549 199.662 64.5974 200.198 65.4368C201.589 67.6229 204.303 68.5333 206.885 68.0297C209.699 67.4762 210.743 65.4257 211.256 62.9989C211.587 61.207 211.787 59.3934 211.857 57.5723C212.132 53.1143 212.336 48.6535 212.543 44.1927C212.612 42.7206 212.598 41.2429 212.606 39.7652C212.628 36.1678 212.639 32.5704 212.661 28.973C212.655 28.8441 212.677 28.7155 212.724 28.5957C212.772 28.4758 212.844 28.3677 212.937 28.2784C213.014 28.5393 213.064 28.8072 213.088 29.0781C213.044 34.4133 213.044 39.7458 212.923 45.0783C212.818 49.5833 212.587 54.0884 212.372 58.5934C212.303 60.0656 212.16 61.535 211.989 62.9989C211.805 64.3356 211.291 65.6047 210.493 66.6904C209.523 68.074 208.013 68.3507 206.513 68.561C204.601 68.8377 202.807 68.2649 201.184 67.313C200.206 66.7402 199.6 65.7467 199.148 64.6869C198.401 62.9352 198.214 61.0756 198.145 59.2161C197.996 55.1842 197.899 51.1523 197.828 47.1205C197.709 40.7558 197.629 34.3718 197.536 27.9961C197.536 27.1383 197.536 26.2804 197.536 25.4226L197.932 25.4364Z" fill="#F97716"/>
<path fill-rule="evenodd" clip-rule="evenodd" d="M232.318 59.4458C232.318 61.607 232.318 63.7709 232.318 65.9321C232.318 66.6544 232.827 67.0861 233.299 67.5427C233.682 67.9107 234.026 68.323 234.536 68.8765C233.434 69.1532 232.607 69.0093 231.764 68.9014C228.933 68.5652 226.074 68.5652 223.243 68.9014C223.032 68.943 222.817 68.9643 222.601 68.965C222.05 68.9235 221.774 68.4116 222.204 68.0851C223.814 66.9007 223.524 65.2431 223.516 63.5938C223.48 57.6969 223.516 51.7971 223.486 45.9002C223.458 41.0464 223.359 36.1899 223.307 31.3362C223.29 29.8613 223.26 28.3836 223.351 26.9086C223.428 25.6053 222.973 24.7308 221.766 24.241C221.491 24.1303 221.251 23.9643 220.763 23.6876C221.226 23.48 221.502 23.2863 221.777 23.2448C224.943 22.7882 228.132 22.5087 231.326 22.7107C235.313 22.9653 238.363 24.8664 240.334 28.4002C243.594 34.2446 243.475 40.3242 241.519 46.5172C240.849 48.7744 239.608 50.8186 237.917 52.4502C237.758 52.6182 237.608 52.7946 237.468 52.9787C238.49 54.9988 239.51 56.9968 240.499 59.0002C241.798 61.5959 243.084 64.1953 244.357 66.7983C244.991 68.0989 245.6 69.3691 247.195 69.762C247.564 69.8533 247.865 70.2297 248.383 70.6115C247.046 71.3836 245.751 70.9962 244.58 71.2646C243.409 71.533 242.185 71.522 240.981 71.569C239.777 71.616 238.523 71.569 237.123 71.569C237.291 71.1318 237.311 70.8385 237.468 70.7167C238.019 70.2822 238.055 69.8035 237.724 69.2335C237.661 69.1228 237.619 68.9955 237.559 68.882L232.524 59.407L232.318 59.4458ZM233.026 51.7612C233.367 51.4512 233.665 51.2077 233.938 50.931C235.445 49.4173 236.864 47.8178 237.564 45.7618C238.821 42.0648 239.333 38.2709 238.744 34.3636C238.525 32.8054 237.819 31.3574 236.727 30.2293C235.063 28.5091 232.997 27.2352 230.717 26.524C229.89 26.2473 228.931 26.3497 228.035 26.3884C227.905 26.3857 227.776 26.4103 227.656 26.4607C227.536 26.5111 227.428 26.5862 227.339 26.6811C227.25 26.776 227.181 26.8886 227.138 27.0116C227.095 27.1347 227.077 27.2655 227.087 27.3957C227.087 28.1317 226.955 28.8651 226.966 29.6095C227.029 33.8129 227.123 38.0191 227.198 42.2253C227.222 43.5701 227.214 44.915 227.247 46.2571C227.355 50.3748 227.492 54.4896 227.583 58.6045C227.633 60.9456 227.608 63.2894 227.633 65.6305C227.659 65.8833 227.711 66.1327 227.787 66.3749L228.063 66.3362V55.223L232.769 51.9991C235.927 57.6803 239.019 63.2341 242.169 68.8986C242.307 68.6219 242.395 68.525 242.373 68.4835C239.499 62.8162 236.382 57.2818 233.026 51.7612Z" fill="#7D318B"/>
<path fill-rule="evenodd" clip-rule="evenodd" d="M233.026 51.7611C236.382 57.2817 239.499 62.8162 242.375 68.4835C242.398 68.525 242.309 68.6246 242.172 68.8986C239.022 63.234 235.93 57.6802 232.772 51.9991L228.065 55.2229V66.3361L227.79 66.3748C227.713 66.1327 227.662 65.8832 227.636 65.6305C227.611 63.2894 227.636 60.9455 227.586 58.6045C227.495 54.4896 227.357 50.3747 227.25 46.2571C227.217 44.915 227.225 43.5701 227.2 42.2252C227.126 38.019 227.032 33.8128 226.969 29.6094C226.969 28.8733 227.079 28.14 227.09 27.3956C227.078 27.2643 227.094 27.132 227.136 27.0073C227.178 26.8825 227.247 26.7682 227.336 26.6718C227.426 26.5754 227.534 26.4991 227.655 26.4478C227.776 26.3966 227.907 26.3716 228.038 26.3745C228.933 26.3357 229.895 26.2444 230.719 26.5101C232.999 27.2213 235.066 28.4952 236.729 30.2154C237.822 31.3435 238.528 32.7915 238.746 34.3497C239.336 38.257 238.823 42.0509 237.567 45.7479C236.867 47.8039 235.448 49.4034 233.94 50.9171C233.665 51.1938 233.367 51.4512 233.026 51.7611ZM227.366 27.0165C227.721 36.0985 227.589 45.1751 228.192 54.2876C228.357 54.2667 228.518 54.221 228.669 54.152C230.168 53.0589 231.747 52.0544 233.133 50.8313C234.996 49.1903 236.514 47.2477 237.231 44.7877C238.1 41.9218 238.448 38.9223 238.259 35.9325C238.14 34.2915 237.964 32.6533 236.939 31.2531C235.23 28.9203 232.858 27.5478 230.193 26.6844C229.727 26.5249 229.231 26.4719 228.742 26.5293C228.253 26.5868 227.782 26.7532 227.366 27.0165Z" fill="#F97716"/>
<path fill-rule="evenodd" clip-rule="evenodd" d="M227.366 27.0165C227.782 26.7541 228.252 26.5884 228.741 26.5314C229.23 26.4745 229.725 26.5277 230.19 26.6872C232.855 27.5506 235.228 28.9232 236.936 31.2559C237.961 32.6561 238.137 34.2999 238.256 35.9353C238.445 38.9251 238.097 41.9246 237.228 44.7905C236.512 47.2505 234.993 49.1931 233.13 50.8341C231.753 52.0572 230.165 53.0617 228.666 54.1548C228.515 54.2238 228.354 54.2695 228.19 54.2904C227.589 45.1751 227.721 36.0986 227.366 27.0165ZM231.618 47.566C233.401 46.4204 234.307 44.8652 234.924 43.1578C235.6 41.2955 235.591 39.3501 235.357 37.3909C235.253 36.4645 234.956 35.5706 234.485 34.7673C234.014 33.9639 233.379 33.2691 232.623 32.7281C232.24 32.4514 231.929 31.9809 231.309 32.0169C231.422 37.164 231.513 42.2557 231.618 47.566Z" fill="#7D318B"/>
<path fill-rule="evenodd" clip-rule="evenodd" d="M146.664 98.4415C146.609 102.869 146.366 107.205 146.625 111.608C148.846 112.004 150.96 111.802 153.06 111.81C153.382 111.81 153.729 111.489 154.024 111.257C154.273 111.028 154.503 110.78 154.713 110.515C155.217 111.666 155.325 118.914 154.931 121.169C154.479 121.398 154.253 121.091 153.942 120.828C153.63 120.566 153.159 120.2 152.754 120.186C150.899 120.134 149.042 120.186 147.188 120.206C147.069 120.228 146.955 120.271 146.851 120.333V129.105C147.587 129.161 148.174 129.233 148.764 129.244C150.706 129.268 152.652 129.244 154.592 129.302C155.001 129.315 155.408 129.243 155.787 129.09C156.167 128.937 156.51 128.707 156.796 128.413C157.006 128.217 157.21 128.012 157.491 127.741C157.662 127.976 157.874 128.134 157.874 128.294C157.896 130.929 157.89 133.566 157.89 136.386H155.171C150.982 136.386 146.796 136.386 142.608 136.405C141.574 136.405 140.544 136.582 139.51 136.624C138.579 136.665 138.458 136.397 138.846 135.553C139.08 135.101 139.215 134.603 139.24 134.095C139.163 127.943 139.036 121.789 138.945 115.637C138.841 108.57 138.761 101.505 138.67 94.4373C138.651 93.1312 138.568 92.9845 137.107 91.4875C137.322 91.3103 137.507 91.0253 137.733 90.9921C138.416 90.8947 139.105 90.8457 139.794 90.8455C142.079 90.8455 144.366 90.8455 146.653 90.8455H157.783V99.7725C157.487 99.5302 157.205 99.2706 156.94 98.995C156.728 98.7242 156.453 98.5108 156.139 98.374C155.825 98.2373 155.481 98.1815 155.14 98.2118C152.682 98.3059 150.221 98.3031 147.761 98.3474C147.43 98.3585 147.099 98.4055 146.664 98.4415ZM143.239 115.875C143.098 108.871 142.963 101.961 142.82 94.9022C144.013 94.9022 145.024 94.9188 146.066 94.9022C147.108 94.8856 148.135 94.8303 149.169 94.7666C150.246 94.703 151.324 94.6283 152.396 94.5176C153.366 94.418 154.388 94.5895 155.308 94.1938C155.308 94.1025 155.284 94.0139 155.273 93.9171L142.175 94.2907C142.481 107.535 142.784 120.69 143.093 134.045C144.561 133.956 145.881 133.868 147.201 133.793C148.521 133.718 149.794 133.71 151.081 133.577C152.368 133.444 153.677 133.677 154.939 133.151C154.373 133 153.788 132.936 153.203 132.96C150.571 133.057 147.94 133.181 145.308 133.278C144.774 133.298 144.236 133.239 143.638 133.215C143.536 127.603 143.437 122.146 143.335 116.628C144.454 116.539 145.432 116.442 146.413 116.39C147.394 116.337 148.397 116.348 149.389 116.301C150.315 116.257 151.269 116.417 152.145 115.875H143.239Z" fill="#7D318B"/>
<path fill-rule="evenodd" clip-rule="evenodd" d="M143.242 115.867H152.142C151.26 116.42 150.307 116.249 149.387 116.293C148.395 116.34 147.403 116.329 146.411 116.382C145.418 116.434 144.451 116.531 143.332 116.619C143.434 122.154 143.534 127.594 143.636 133.206C144.234 133.231 144.771 133.289 145.306 133.27C147.937 133.173 150.569 133.049 153.2 132.952C153.785 132.928 154.371 132.992 154.936 133.143C153.685 133.668 152.368 133.439 151.079 133.569C149.789 133.699 148.491 133.713 147.199 133.785C145.906 133.857 144.559 133.948 143.09 134.036C142.781 120.682 142.478 107.526 142.172 94.2824L155.27 93.9088C155.27 94.0001 155.292 94.0887 155.306 94.1855C154.385 94.5813 153.377 94.4097 152.393 94.5093C151.321 94.62 150.244 94.6947 149.166 94.7584C148.133 94.822 147.097 94.8718 146.063 94.894C145.03 94.9161 144.01 94.894 142.817 94.894C142.966 101.953 143.098 108.863 143.242 115.867Z" fill="#F97716"/>
<path fill-rule="evenodd" clip-rule="evenodd" d="M103.693 114.234C103.729 118.067 103.693 122.71 102.643 127.26C102.26 128.857 101.753 130.423 101.127 131.942C99.9949 134.742 97.9172 136.369 94.8667 136.676C92.8464 136.91 90.8004 136.756 88.8374 136.223C86.7789 135.636 85.4341 134.302 84.5551 132.382C83.1442 129.302 82.5821 126.017 82.2734 122.696C81.6011 115.502 81.7223 108.337 82.9623 101.206C83.3817 99.0361 84.0656 96.9263 84.9988 94.9244C85.346 94.1059 85.8612 93.37 86.5107 92.765C87.1603 92.1599 87.9296 91.6991 88.7685 91.4128C92.2461 90.1205 95.4922 90.6103 98.4765 92.6912C99.2509 93.2308 99.8378 94.1385 100.32 94.988C102.423 98.6823 103.282 102.72 103.439 106.934C103.519 109.095 103.591 111.262 103.693 114.234ZM100.031 115.197C99.9189 111.244 99.5766 107.302 99.0056 103.389C98.6639 101.004 97.7628 98.8566 96.5669 96.748C95.3076 94.5342 90.5927 94.5342 89.2562 96.3301C88.1838 97.6934 87.3931 99.258 86.9304 100.932C86.2914 103.5 85.9611 106.136 85.9467 108.783C85.9164 111.774 86.0183 114.765 86.0872 117.757C86.1589 120.97 86.3628 124.177 87.3521 127.257C87.7528 128.489 88.2753 129.677 88.9117 130.804C90.0829 132.869 93.781 133.458 95.6575 131.776C96.7433 130.804 97.7243 129.78 98.2037 128.397C98.6419 127.135 99.1241 125.843 99.2729 124.523C99.6256 121.423 99.791 118.308 100.031 115.197Z" fill="#7D318B"/>
<path fill-rule="evenodd" clip-rule="evenodd" d="M100.03 115.197C99.7907 118.308 99.6254 121.423 99.2726 124.52C99.1238 125.834 98.6416 127.127 98.2035 128.394C97.724 129.778 96.743 130.802 95.6573 131.773C93.7807 133.455 90.0826 132.866 88.9115 130.802C88.275 129.674 87.7525 128.486 87.3518 127.254C86.3515 124.174 86.1586 120.967 86.0869 117.754C86.0181 114.763 85.9161 111.771 85.9464 108.78C85.9608 106.133 86.2911 103.497 86.9302 100.929C87.3928 99.2552 88.1835 97.6907 89.2559 96.3274C90.5924 94.5231 95.3183 94.5176 96.5666 96.7452C97.7626 98.8621 98.6636 101.01 99.0053 103.387C99.5765 107.3 99.9188 111.244 100.03 115.197ZM99.5234 116.066C99.4903 111.514 98.6471 104.839 98.0354 101.842C97.6453 99.9295 96.8305 98.1294 95.6517 96.5764C95.4217 96.2334 95.1156 95.9487 94.7575 95.7446C94.3994 95.5406 93.9989 95.4227 93.5878 95.4003C91.9344 95.3312 90.4243 95.5774 89.4543 97.1797C88.6516 98.4616 88.0546 99.8623 87.6852 101.331C86.9247 104.466 86.6932 107.662 86.6656 110.869C86.6436 113.553 86.8337 116.238 86.8613 118.922C86.8768 121.61 87.2305 124.286 87.9139 126.886C88.3052 128.355 88.7847 129.794 89.7657 130.998C90.402 131.742 91.2876 132.227 92.2554 132.36C93.2231 132.493 94.2059 132.265 95.0179 131.72C96.156 130.89 97.1591 129.935 97.6413 128.577C98.0712 127.359 98.6003 126.13 98.7573 124.866C99.1211 121.941 99.2809 118.991 99.5234 116.066Z" fill="#F97716"/>
<path fill-rule="evenodd" clip-rule="evenodd" d="M99.5236 116.066C99.2811 118.997 99.1213 121.941 98.7575 124.858C98.6004 126.122 98.0714 127.348 97.6415 128.568C97.1592 129.927 96.1562 130.893 95.0181 131.712C94.206 132.26 93.2218 132.49 92.2522 132.358C91.2826 132.226 90.395 131.741 89.7576 130.995C88.7766 129.792 88.2971 128.353 87.9058 126.883C87.2224 124.284 86.8687 121.608 86.8532 118.919C86.8256 116.235 86.6355 113.551 86.6575 110.866C86.6851 107.659 86.9166 104.463 87.6771 101.328C88.0465 99.8596 88.6435 98.4589 89.4462 97.1769C90.4245 95.5747 91.9428 95.3284 93.5797 95.3976C93.9925 95.419 94.3947 95.5367 94.7544 95.7413C95.1141 95.9459 95.4214 96.2319 95.6519 96.5765C96.8345 98.1258 97.6539 99.9229 98.0493 101.834C98.6473 104.839 99.4905 111.52 99.5236 116.066ZM95.3433 113.562V113.349C95.3433 110.925 95.2193 108.708 95.098 106.289C95.0236 104.792 94.6709 103.301 94.3678 101.823C94.3133 101.474 94.1419 101.154 93.8818 100.916C93.6218 100.678 93.2887 100.536 92.9376 100.514C92.2101 100.456 91.9153 101.068 91.6452 101.621C91.4178 102.039 91.2482 102.486 91.1409 102.949C90.8957 104.222 90.5898 105.501 90.5347 106.788C90.3253 112.72 90.4327 118.648 91.2126 124.545C91.2821 125.276 91.4036 126.001 91.5763 126.714C91.7665 127.379 92.0861 128.098 92.9128 128.098C93.7395 128.098 94.0895 127.367 94.2769 126.714C94.5786 125.724 94.7699 124.703 94.8473 123.67C95.0567 120.308 95.1835 116.935 95.3433 113.562Z" fill="#7D318B"/>
<path fill-rule="evenodd" clip-rule="evenodd" d="M25.9701 137.996C25.729 138.101 25.4765 138.176 25.2178 138.22C23.3688 138.339 21.517 138.436 19.6652 138.539C19.1494 138.585 18.6315 138.603 18.1138 138.594C17.3312 138.55 17.0115 138.157 17.3753 137.487C18.078 136.189 17.9622 134.831 17.976 133.439C18.0229 129.363 18.2157 125.289 18.2516 121.213C18.2874 117.137 18.2516 112.978 18.1689 108.86C18.0917 104.394 17.9347 99.9303 17.841 95.464C17.8244 94.6006 17.9898 93.7372 17.976 92.8766C17.959 92.3213 17.8548 91.7722 17.6674 91.2495C17.4008 90.5979 17.1009 89.9606 16.769 89.3401C17.8713 88.9942 18.9487 89.2183 19.9794 89.1076C21.01 88.9969 22.0406 88.8669 23.0739 88.8586C24.1073 88.8503 25.2123 88.9665 26.5019 89.044C26.3338 89.4895 26.298 89.8354 26.1079 90.054C25.2564 91.0447 25.1103 92.135 25.1847 93.4328C25.3887 96.9776 25.4603 100.534 25.4934 104.089C25.5237 106.992 25.4272 109.901 25.4107 112.801C25.3887 116.398 25.3969 119.995 25.3804 123.593C25.3611 127.406 25.2867 131.222 25.3308 135.035C25.3391 135.965 25.7166 136.876 25.9701 137.996ZM21.641 135.871C21.7438 135.856 21.8446 135.829 21.9414 135.791C21.9778 135.765 22.0033 135.727 22.013 135.683C21.9248 125.381 21.2111 115.086 21.7126 104.776C21.9111 100.713 21.7126 96.6345 21.7126 92.5639C21.7126 92.5252 21.6741 92.4892 21.652 92.4504L21.393 92.6054C21.1367 106.937 20.8915 121.374 21.641 135.871Z" fill="#7D318B"/>
<path fill-rule="evenodd" clip-rule="evenodd" d="M21.6412 135.871C20.9 121.379 21.137 106.942 21.385 92.6054L21.644 92.4504C21.666 92.4892 21.7046 92.5252 21.7046 92.5639C21.7212 96.6345 21.9113 100.713 21.7046 104.776C21.2031 115.086 21.9168 125.381 22.005 135.683C21.9953 135.727 21.9698 135.765 21.9333 135.791C21.8392 135.828 21.7412 135.855 21.6412 135.871Z" fill="#F97716"/>
<path fill-rule="evenodd" clip-rule="evenodd" d="M30.3268 136.798C30.3075 136.447 30.2882 136.389 30.3075 136.364C31.542 134.795 31.542 132.999 31.5172 131.089C31.4125 122.552 31.4428 114.013 31.4125 105.476C31.4125 102.271 31.3602 99.0641 31.3409 95.8597C31.3409 94.18 31.1232 92.5722 29.6489 91.1886C30.1505 91.0198 30.4756 90.8233 30.8201 90.8095C33.099 90.7292 35.3779 90.7154 37.654 90.6296C42.6142 90.4414 46.2929 92.4532 48.6462 96.914C51.3275 102 51.3109 107.299 50.0378 112.715C49.2111 116.232 47.5192 119.273 44.6836 121.54C43.3472 122.605 41.8233 123.438 40.214 124.489C40.214 126.2 40.214 128.142 40.214 130.085C40.214 130.865 40.2609 131.646 40.2636 132.426C40.2636 133.491 40.4234 134.499 41.1812 135.32C41.2699 135.416 41.3425 135.525 41.3962 135.644C41.7021 136.33 41.432 136.715 40.6659 136.698C38.5965 136.66 36.5325 136.585 34.4603 136.593C33.4737 136.593 32.49 136.776 31.5007 136.845C31.1088 136.851 30.7169 136.836 30.3268 136.798ZM34.8901 94.7362C34.846 95.3616 34.7964 95.8735 34.7772 96.3965C34.7248 97.913 34.6532 99.4405 34.6449 100.946C34.6228 104.978 34.5898 109.01 34.6449 113.039C34.6752 115.554 34.9067 118.064 34.9508 120.577C35.0224 124.611 35.0086 128.643 35.05 132.678C35.05 133.049 34.8433 133.536 35.5267 133.873V121.667C35.6399 121.6 35.76 121.547 35.8849 121.506C41.658 120.986 45.4001 116.971 46.9267 111.799C47.7534 109.015 47.792 106.137 47.3787 103.287C46.9433 100.284 45.6398 97.7248 42.8236 96.2748C40.3959 95.024 37.7367 94.7721 34.8901 94.75V94.7362Z" fill="#7D318B"/>
<path fill-rule="evenodd" clip-rule="evenodd" d="M34.8904 94.75C37.737 94.7721 40.4017 95.0267 42.8211 96.2747C45.6374 97.7248 46.9408 100.284 47.3762 103.287C47.7895 106.137 47.7455 109.015 46.9243 111.799C45.3977 116.971 41.6555 120.986 35.8825 121.506C35.7576 121.547 35.6374 121.6 35.5242 121.667V133.881C34.8408 133.544 35.053 133.051 35.0475 132.686C35.0062 128.651 35.02 124.62 34.9483 120.585C34.9042 118.072 34.6727 115.562 34.6424 113.047C34.5901 109.018 34.6231 104.986 34.6424 100.954C34.6424 99.4377 34.7223 97.9102 34.7747 96.4048C34.7967 95.8873 34.8463 95.3754 34.8904 94.75ZM35.2652 95.0904C35.2376 103.946 34.8739 112.549 35.5408 121.304C38.098 120.798 40.5009 120.109 42.281 118.216C43.4852 116.978 44.506 115.573 45.3122 114.043C47.2191 110.216 47.4286 106.093 46.4586 102.006C45.698 98.804 43.6781 96.5515 40.2915 95.8929C38.7097 95.5774 37.0922 95.3782 35.2652 95.0904Z" fill="#F97716"/>
<path fill-rule="evenodd" clip-rule="evenodd" d="M35.2652 95.0905C37.0922 95.3672 38.7097 95.5775 40.3052 95.893C43.6919 96.5516 45.7118 98.8041 46.4723 102.006C47.4423 106.093 47.2329 110.216 45.326 114.043C44.5197 115.573 43.4989 116.978 42.2948 118.216C40.5202 120.109 38.1117 120.798 35.5545 121.304C34.8739 112.549 35.2376 103.948 35.2652 95.0905ZM39.5888 115.275L39.8974 115.374C40.389 114.967 40.8496 114.523 41.2752 114.046C43.6891 110.919 43.9922 107.405 42.9699 103.721C42.5235 102.116 40.7213 100.376 39.3132 100.005C39.4014 105.099 39.4932 110.188 39.5888 115.275Z" fill="#7D318B"/>
<path fill-rule="evenodd" clip-rule="evenodd" d="M78.7186 138.085C75.8692 138.243 73.2982 138.423 70.6418 138.201C71.485 136.308 71.4685 136.308 71.4685 134.155C71.452 132.205 71.4492 130.254 71.4409 128.3C71.4409 127.832 71.4409 127.362 71.4409 126.792H63.0142C62.9922 127.113 62.9453 127.406 62.9536 127.697C63.006 129.819 63.0748 131.942 63.1272 134.061C63.1823 136.306 63.1768 136.306 64.5353 138.049C61.5372 138.749 58.5859 138.674 55.5795 138.486C55.5795 138.265 55.5327 138.115 55.5795 138.027C56.1885 137.011 56.2133 135.918 56.183 134.767C56.0507 129.435 55.946 124.102 55.9075 118.77C55.8579 112.698 55.9075 106.624 55.8716 100.553C55.8716 99.1223 55.7338 97.6944 55.7035 96.2637C55.7002 95.616 55.7407 94.9688 55.8248 94.3266C55.9874 92.8822 55.9157 91.5594 54.5131 90.6573C54.2926 90.5162 54.1824 90.2035 54.0171 89.9572C54.5489 89.3152 55.2268 89.3401 55.8496 89.2931C58.1726 89.1215 60.4956 88.9887 62.8213 88.8503C63.0796 88.8293 63.3395 88.8461 63.5929 88.9001C64.2405 89.0551 64.4003 89.5061 64.0007 90.054C63.8244 90.2976 63.535 90.4691 63.3973 90.7265C63.1823 91.1333 62.9123 91.5843 62.9123 92.016C62.9123 101.386 62.926 110.756 62.9536 120.126C62.973 120.303 63.0062 120.479 63.0528 120.651H71.5126C71.5126 120.167 71.5126 119.661 71.5126 119.154C71.4547 116.077 71.4051 113.003 71.3362 109.928C71.248 106.027 71.1378 102.122 71.0607 98.2201C71.0248 97.3974 71.0358 96.5733 71.0937 95.7518C71.1764 94.8469 71.0717 94.0416 70.4682 93.3194C70.2798 93.0128 70.1281 92.6849 70.0163 92.3425C70.4379 92.2236 70.7162 92.0658 70.989 92.0824C73.2293 92.1433 75.4669 92.2042 77.7045 92.3287C78.6579 92.3813 78.826 92.7881 78.2391 93.5878C77.8351 94.1487 77.6401 94.8343 77.688 95.5249C77.8064 103.896 77.8919 112.267 77.9938 120.638C78.0434 124.757 78.1004 128.877 78.1647 132.999C78.1785 133.259 78.1785 133.519 78.1647 133.779C78.0379 135.185 77.7238 136.604 78.7186 138.085ZM59.4154 124.182C59.3823 113.249 59.3492 102.559 59.3189 91.8693H59.0213C58.8091 106.671 58.6025 121.479 59.8921 136.247C60.1677 132.318 59.5945 128.4 59.5752 124.326C64.5133 124.489 69.264 123.972 74.0781 124.094C74.1304 125.234 74.1745 126.227 74.2241 127.218C74.2765 128.258 74.3344 129.296 74.395 130.337C74.4528 131.33 74.4666 132.332 74.5934 133.32C74.7201 134.308 74.3784 135.315 74.9433 136.245C75.1057 135.581 75.1643 134.896 75.117 134.214C75.037 132.57 74.891 130.926 74.8414 129.28C74.6788 124.556 74.4501 119.832 74.4308 115.109C74.4032 108.744 74.5493 102.36 74.6182 95.987C74.6182 95.5996 74.5796 95.2149 74.5576 94.8275L74.2131 94.8441C74.1047 104.437 73.9963 114.047 73.8879 123.673L59.4154 124.182Z" fill="#7D318B"/>
<path fill-rule="evenodd" clip-rule="evenodd" d="M59.4154 124.182L73.8825 123.676C73.9927 114.052 74.1011 104.442 74.2076 94.847L74.5521 94.8304C74.5741 95.2178 74.6155 95.6024 74.6127 95.9898C74.5438 102.354 74.3978 108.738 74.4253 115.111C74.4446 119.835 74.6733 124.559 74.8359 129.282C74.891 130.929 75.0371 132.573 75.1115 134.216C75.1588 134.898 75.1002 135.584 74.9379 136.248C74.3867 135.318 74.7091 134.291 74.5879 133.323C74.4666 132.354 74.4474 131.333 74.3895 130.34C74.3289 129.299 74.271 128.261 74.2186 127.221C74.169 126.23 74.1249 125.237 74.0726 124.097C69.2585 123.975 64.5078 124.492 59.5697 124.329C59.589 128.402 60.1594 132.321 59.8866 136.25C58.6025 121.482 58.8092 106.674 59.0213 91.8722H59.3189C59.3493 102.559 59.3823 113.249 59.4154 124.182Z" fill="#F97716"/>
<path fill-rule="evenodd" clip-rule="evenodd" d="M117.193 117.685C117.098 118.032 117.032 118.387 116.994 118.745C116.975 121.993 116.956 125.242 116.97 128.491C116.97 130.486 116.994 132.481 117.107 134.471C117.149 135.174 117.482 135.855 117.703 136.555C117.815 136.851 117.943 137.141 118.086 137.424C116.146 137.957 114.114 138.059 112.131 137.722C111.028 137.559 109.821 137.958 108.631 137.302C108.832 137.042 109.009 136.764 109.16 136.472C109.383 135.918 109.725 135.365 109.725 134.811C109.711 131.693 109.615 128.571 109.538 125.452C109.499 123.848 109.422 122.245 109.4 120.64C109.328 115.742 109.303 110.844 109.199 105.946C109.119 102.222 108.937 98.5024 108.824 94.7777C108.805 94.0665 108.391 93.6847 107.862 93.3554C107.438 93.0786 106.865 92.9762 106.848 92.2485C107.231 91.7974 107.782 91.9302 108.267 91.9358C109.951 91.9634 111.635 92.0492 113.318 92.0797C114.178 92.0963 115.038 92.0409 115.898 92.0271C116.37 91.9883 116.845 91.9938 117.317 92.0437C117.868 92.1433 118.143 92.7134 117.755 93.1146C116.738 94.1828 117.11 95.2565 117.59 96.355C119.959 101.795 122.333 107.238 124.71 112.682C124.851 112.902 125.01 113.11 125.184 113.304V111.755C125.184 107.853 125.184 103.951 125.184 100.049C125.184 97.8798 125.126 95.7103 125.184 93.5435C125.222 92.5876 124.897 91.6528 124.275 90.9285C124.038 90.6518 123.826 90.3363 123.426 89.8022C124.685 89.6611 125.68 89.5034 126.683 89.448C128.662 89.3373 130.641 89.2626 132.622 89.2239C132.988 89.2239 133.363 89.4563 133.972 89.6611C132.385 91.1969 132.646 93.015 132.622 94.7058C132.583 97.3485 132.765 99.9912 132.806 102.637C132.853 105.8 132.85 108.965 132.867 112.131C132.867 114.381 132.867 116.636 132.894 118.889C132.929 122.578 132.975 126.268 133.032 129.958C133.06 131.69 133.118 133.423 133.206 135.157C133.264 135.626 133.365 136.09 133.506 136.541C133.694 137.307 133.547 137.606 132.781 137.728C132.101 137.839 131.404 137.847 130.717 137.911C129.557 138.016 128.4 138.146 127.24 138.24C126.896 138.272 126.55 138.252 126.212 138.182C125.52 138.027 125.322 137.742 125.575 137.075C125.681 136.816 125.73 136.538 125.719 136.258C125.708 135.979 125.636 135.705 125.509 135.456C122.869 129.711 120.232 123.964 117.598 118.213C117.479 118.026 117.343 117.849 117.193 117.685ZM129.546 129.144C129.469 116.899 129.395 104.792 129.323 92.6912C128.645 98.7017 129.092 104.72 129.028 110.736C128.965 116.752 128.888 122.757 129.279 128.856L127.874 128.931C127.792 128.827 127.719 128.717 127.653 128.602C124.084 120.566 120.519 112.529 116.959 104.491C116.49 103.439 115.95 102.421 115.484 101.477L112.348 101.726C112.348 102.999 112.326 104.217 112.348 105.415C112.478 111.226 112.588 117.037 112.77 122.849C112.886 126.573 113.103 130.298 113.291 134.02C113.33 134.309 113.396 134.593 113.489 134.869L113.751 134.811C113.594 131.183 113.415 127.556 113.294 123.928C113.172 120.245 113.065 116.559 113.037 112.873C113.007 109.25 112.594 105.631 112.795 101.923H115.341L127.38 129.318L129.546 129.144Z" fill="#7D318B"/>
<path fill-rule="evenodd" clip-rule="evenodd" d="M129.546 129.144L127.386 129.316L115.347 101.92H112.8C112.599 105.628 113.013 109.248 113.043 112.87C113.071 116.556 113.178 120.242 113.299 123.925C113.42 127.553 113.6 131.181 113.757 134.808L113.495 134.867C113.402 134.59 113.336 134.306 113.296 134.017C113.109 130.295 112.891 126.57 112.776 122.846C112.594 117.035 112.484 111.223 112.354 105.412C112.326 104.203 112.354 102.996 112.354 101.723L115.49 101.474C115.956 102.418 116.496 103.436 116.964 104.488C120.536 112.52 124.1 120.557 127.659 128.599C127.724 128.714 127.798 128.824 127.879 128.928L129.285 128.853C128.893 122.765 128.97 116.747 129.034 110.734C129.097 104.72 128.637 98.7016 129.323 92.7023C129.395 104.792 129.464 116.899 129.546 129.144Z" fill="#F97716"/>
<path fill-rule="evenodd" clip-rule="evenodd" d="M179.891 97.3568C177.814 97.318 175.83 97.2046 173.854 97.2931C173.25 97.3208 172.652 97.8825 172.087 98.2533C171.812 98.4332 171.635 98.7404 171.228 99.1997C171.091 98.7477 170.994 98.2848 170.936 97.8161C170.875 95.3007 170.842 92.7881 170.812 90.2726C170.844 90.1196 170.899 89.9722 170.974 89.8354C172.534 90.7237 174.19 90.5909 175.882 90.5549C179.55 90.4802 183.223 90.6241 186.891 90.5936C188.869 90.577 190.85 90.4221 192.824 90.2533C193.405 90.2007 193.973 89.9101 194.532 89.6998C195.265 89.4231 195.659 89.6168 195.634 90.3612C195.546 92.088 195.406 93.8147 195.282 95.5415C195.215 96.474 195.141 97.4066 195.058 98.4803C194.835 98.3875 194.623 98.2686 194.427 98.1261C193.83 97.5453 193.029 97.225 192.198 97.235C190.691 97.1935 189.167 97.235 187.602 97.235C187.537 97.5401 187.49 97.8487 187.461 98.1593C187.326 102.927 187.185 107.695 187.084 112.466C187.053 114.112 187.199 115.762 187.194 117.408C187.18 120.574 187.075 123.74 187.081 126.905C187.081 129.418 187.133 131.936 187.287 134.443C187.334 135.213 187.797 135.957 188.092 136.779C185.251 137.537 182.305 137.119 179.393 137.103C179.348 136.942 179.282 136.826 179.313 136.784C180.244 135.522 180.318 134.078 180.299 132.578C180.236 128.151 180.214 123.723 180.194 119.295C180.17 114.179 180.194 109.057 180.145 103.946C180.117 101.834 179.988 99.7089 179.891 97.3568ZM193.005 93.9199V93.5186C192.553 93.3028 192.06 93.4162 191.567 93.4494C189.718 93.574 187.869 93.7677 186.017 93.7815C182.741 93.8009 179.464 93.6846 176.188 93.6736C175.273 93.6736 174.361 93.8258 173.432 93.9088C173.432 94.0001 173.432 94.0887 173.446 94.1855H183.474C183.374 98.8649 183.217 103.409 183.198 107.952C183.179 112.496 183.27 117.051 183.369 121.598C183.468 126.144 183.645 130.644 183.788 135.157C183.904 135.157 184.019 135.157 184.135 135.157C184.284 128.347 183.859 121.542 183.749 114.735C183.639 107.928 183.846 101.073 183.92 94.2768L193.005 93.9199Z" fill="#7D318B"/>
<path fill-rule="evenodd" clip-rule="evenodd" d="M193.011 93.9198L183.918 94.2685C183.843 101.065 183.642 107.892 183.747 114.727C183.851 121.562 184.281 128.339 184.133 135.149C184.017 135.149 183.901 135.149 183.785 135.149C183.642 130.63 183.468 126.106 183.366 121.589C183.264 117.073 183.176 112.493 183.196 107.944C183.215 103.395 183.372 98.8566 183.471 94.1772H173.474C173.474 94.0859 173.474 93.9973 173.46 93.9005C174.375 93.8174 175.287 93.6597 176.216 93.6652C179.492 93.6652 182.768 93.7925 186.045 93.7732C187.897 93.7732 189.746 93.5656 191.595 93.4411C192.088 93.4079 192.581 93.2944 193.033 93.5103L193.011 93.9198Z" fill="#F97716"/>
<path fill-rule="evenodd" clip-rule="evenodd" d="M290.682 89.9766C290.406 90.2671 290.175 90.5577 289.902 90.8067C289.016 91.6425 288.393 92.7197 288.108 93.906C286.686 99.3962 285.223 104.875 283.809 110.368C283.206 112.715 282.671 115.073 282.134 117.444C282.058 117.87 282.032 118.304 282.057 118.736C282.15 123.676 282.239 128.615 282.36 133.555C282.385 134.604 282.575 135.625 283.583 136.272C283.804 136.414 283.92 136.726 284.223 137.155C283.737 137.282 283.244 137.375 282.746 137.432C280.031 137.526 277.314 137.592 274.6 137.664C273.947 137.684 273.947 137.664 273.374 136.972C273.396 136.889 273.374 136.784 273.44 136.729C274.843 135.207 275 133.361 274.953 131.397C274.845 126.933 274.843 122.469 274.779 118.003C274.779 117.529 274.711 117.058 274.578 116.603C272.418 109.524 270.249 102.448 268.072 95.3754C267.978 95.0192 267.814 94.6853 267.59 94.3935C267.365 94.1018 267.085 93.8579 266.766 93.6764C266.426 93.4326 266.106 93.1614 265.81 92.8656C266.515 92.6304 266.975 92.3592 267.446 92.3398C270.161 92.2291 272.875 92.1682 275.592 92.1156C275.944 92.1464 276.292 92.217 276.628 92.326C276.628 92.5695 276.645 92.6912 276.598 92.73C275.859 93.4135 275.848 94.1579 276.223 95.0655C276.865 96.6262 277.397 98.2285 277.984 99.8141C278.093 100.039 278.217 100.257 278.356 100.464C279.346 97.7901 280.085 95.0282 280.56 92.2153C280.637 91.877 280.631 91.5251 280.541 91.1899C280.452 90.8548 280.283 90.5466 280.048 90.292C279.497 89.6777 279.69 89.2599 280.508 89.2073C281.627 89.1326 282.751 89.116 283.873 89.1298C285.683 89.1492 287.494 89.2128 289.304 89.2599C289.841 89.2737 290.324 89.3816 290.682 89.9766ZM278.656 135.318H279.056C279.056 134.955 279.056 134.593 279.056 134.233C279.026 131.892 279.001 129.554 278.965 127.212C278.904 123.141 278.838 119.069 278.767 114.998C278.733 113.097 278.767 111.207 279.356 109.369C279.593 108.628 279.792 107.875 280.034 107.133C281.519 102.612 283.007 98.0919 284.498 93.574C284.57 93.3131 284.625 93.0478 284.664 92.7798L284.438 92.7161C282.426 98.6768 280.412 104.637 278.328 110.817C277.579 108.863 276.909 107.092 276.218 105.329C275.526 103.566 274.798 101.795 274.09 100.027C273.41 98.3225 272.787 96.5903 271.858 94.9991C271.85 95.3057 271.905 95.6108 272.018 95.8957C273.859 100.752 275.719 105.603 277.529 110.465C277.893 111.431 278.326 112.438 278.356 113.44C278.488 116.6 278.458 119.769 278.472 122.932C278.488 126.831 278.488 130.732 278.505 134.634C278.533 134.866 278.584 135.095 278.656 135.318Z" fill="#7D318B"/>
<path fill-rule="evenodd" clip-rule="evenodd" d="M278.656 135.318C278.589 135.093 278.545 134.862 278.524 134.629C278.507 130.727 278.507 126.825 278.491 122.926C278.491 119.763 278.507 116.595 278.375 113.434C278.334 112.433 277.901 111.425 277.548 110.46C275.73 105.598 273.87 100.747 272.037 95.8901C271.924 95.6052 271.869 95.3002 271.877 94.9935C272.806 96.5847 273.429 98.3142 274.109 100.022C274.817 101.79 275.539 103.55 276.237 105.324C276.934 107.097 277.598 108.857 278.347 110.811C280.431 104.632 282.445 98.6712 284.457 92.7106L284.683 92.7742C284.644 93.0422 284.589 93.3075 284.517 93.5684C283.033 98.0938 281.545 102.614 280.053 107.128C279.811 107.869 279.612 108.622 279.375 109.364C278.786 111.201 278.752 113.091 278.786 114.992C278.857 119.064 278.923 123.135 278.984 127.207C279.02 129.548 279.045 131.886 279.075 134.227C279.075 134.587 279.075 134.95 279.075 135.312L278.656 135.318Z" fill="#F97716"/>
<path fill-rule="evenodd" clip-rule="evenodd" d="M218.145 113.899C218.181 117.732 218.145 122.375 217.098 126.925C216.715 128.523 216.208 130.088 215.583 131.607C214.447 134.407 212.372 136.034 209.319 136.342C207.3 136.575 205.255 136.421 203.293 135.888C201.231 135.304 199.889 133.967 199.008 132.047C197.597 128.97 197.037 125.682 196.726 122.362C196.054 115.167 196.175 108 197.418 100.868C197.837 98.6973 198.522 96.5864 199.457 94.5841C199.803 93.7654 200.318 93.0295 200.967 92.4243C201.616 91.8192 202.385 91.3585 203.224 91.0724C206.704 89.7801 209.95 90.27 212.935 92.3509C213.709 92.8905 214.293 93.8009 214.778 94.6477C216.881 98.342 217.74 102.396 217.897 106.597C217.975 108.752 218.043 110.927 218.145 113.899ZM214.483 114.862C214.374 110.91 214.032 106.967 213.458 103.055C213.116 100.669 212.218 98.5246 211.019 96.4132C209.763 94.1856 205.045 94.1994 203.709 95.9954C202.64 97.3577 201.851 98.9189 201.386 100.589C200.748 103.157 200.418 105.793 200.405 108.44C200.372 111.431 200.474 114.422 200.542 117.414C200.617 120.626 200.818 123.836 201.81 126.916C202.211 128.148 202.733 129.337 203.37 130.464C204.538 132.526 208.239 133.115 210.113 131.433C211.198 130.461 212.182 129.437 212.662 128.054C213.1 126.792 213.582 125.5 213.731 124.18C214.081 121.089 214.243 117.973 214.483 114.862Z" fill="#7D318B"/>
<path fill-rule="evenodd" clip-rule="evenodd" d="M214.483 114.862C214.243 117.973 214.081 121.089 213.728 124.185C213.579 125.5 213.097 126.792 212.659 128.059C212.179 129.443 211.196 130.467 210.11 131.438C208.236 133.121 204.535 132.545 203.367 130.47C202.73 129.342 202.208 128.154 201.807 126.922C200.807 123.842 200.614 120.632 200.54 117.419C200.471 114.428 200.369 111.437 200.402 108.445C200.416 105.796 200.746 103.159 201.386 100.589C201.851 98.9157 202.641 97.3516 203.711 95.987C205.048 94.1828 209.774 94.1773 211.022 96.4049C212.221 98.5246 213.119 100.669 213.461 103.046C214.034 106.961 214.375 110.907 214.483 114.862ZM213.979 115.731C213.943 111.179 213.1 104.505 212.491 101.51C212.103 99.5925 211.288 97.7875 210.107 96.2306C209.877 95.8878 209.571 95.6034 209.213 95.3997C208.855 95.1961 208.454 95.0789 208.043 95.0572C206.39 94.9853 204.88 95.2316 203.91 96.8338C203.106 98.1156 202.508 99.5164 202.138 100.985C201.38 104.12 201.149 107.316 201.121 110.523C201.099 113.208 201.289 115.892 201.314 118.576C201.331 121.265 201.685 123.941 202.369 126.54C202.761 128.009 203.237 129.451 204.221 130.652C204.859 131.398 205.746 131.883 206.716 132.015C207.685 132.147 208.67 131.917 209.482 131.369C210.617 130.539 211.62 129.584 212.102 128.225C212.535 127.008 213.064 125.779 213.221 124.514C213.574 121.606 213.736 118.662 213.979 115.731Z" fill="#F97716"/>
<path fill-rule="evenodd" clip-rule="evenodd" d="M213.979 115.731C213.736 118.662 213.574 121.606 213.213 124.523C213.056 125.787 212.526 127.013 212.094 128.234C211.612 129.592 210.609 130.558 209.473 131.377C208.661 131.925 207.677 132.155 206.707 132.023C205.738 131.891 204.85 131.406 204.213 130.66C203.229 129.46 202.752 128.018 202.361 126.548C201.677 123.949 201.322 121.273 201.306 118.584C201.281 115.9 201.091 113.216 201.113 110.532C201.14 107.324 201.372 104.128 202.129 100.993C202.5 99.5247 203.098 98.124 203.901 96.8421C204.88 95.2399 206.398 94.9936 208.035 95.0656C208.446 95.0872 208.846 95.2044 209.204 95.4081C209.563 95.6117 209.869 95.8961 210.099 96.2389C211.28 97.7958 212.094 99.6008 212.482 101.519C213.1 104.505 213.943 111.179 213.979 115.731ZM209.796 113.241V112.994C209.796 110.57 209.672 108.387 209.553 105.968C209.479 104.471 209.126 102.98 208.82 101.502C208.769 101.15 208.6 100.826 208.34 100.585C208.08 100.343 207.746 100.198 207.393 100.174C206.665 100.119 206.368 100.727 206.098 101.281C205.871 101.7 205.702 102.148 205.593 102.612C205.351 103.882 205.042 105.163 204.987 106.447C204.78 112.38 204.888 118.308 205.668 124.205C205.734 124.936 205.856 125.661 206.031 126.374C206.222 127.038 206.538 127.758 207.365 127.758C208.192 127.758 208.545 127.027 208.743 126.374C209.043 125.383 209.235 124.363 209.313 123.33C209.512 119.973 209.652 116.6 209.796 113.23V113.241Z" fill="#7D318B"/>
<path fill-rule="evenodd" clip-rule="evenodd" d="M221.105 90.6546C224.503 90.4415 227.718 90.0375 230.937 90.6878C233.828 91.2717 236.021 92.9292 237.854 95.1762C240.031 97.8466 241.075 100.974 241.629 104.308C242.268 107.939 242.541 111.625 242.445 115.311C242.293 119.998 241.333 124.623 239.606 128.981C238.588 131.639 236.683 133.86 234.216 135.265C232.651 136.164 230.932 136.339 229.22 136.419C226.983 136.521 224.737 136.419 222.494 136.397C221.689 136.397 221.438 135.924 221.943 135.326C222.656 134.496 222.791 133.574 222.769 132.559C222.599 127.104 222.438 121.649 222.287 116.193C222.287 115.978 222.251 115.762 222.249 115.546C222.16 109.176 222.076 102.806 221.995 96.4381C221.995 95.4862 221.995 94.5315 222.045 93.5795C222.078 92.7328 222.045 91.9192 221.309 91.3381C221.199 91.244 221.207 91.0226 221.105 90.6546ZM227.076 133.085C229.758 132.957 232.139 132.149 234.062 130.16C235.531 128.617 236.627 126.756 237.264 124.719C239.485 117.884 239.965 110.966 237.708 104.026C236.564 100.514 234.919 97.271 231.461 95.4142C230.662 94.9881 229.807 94.6422 229.027 94.2022C228 93.6321 226.897 93.6487 225.621 93.6127C225.588 98.0791 225.5 102.487 225.542 106.895C225.583 111.359 225.748 115.823 225.867 120.286C225.98 124.68 226.104 129.075 226.228 133.619L227.112 133.065L227.076 133.085Z" fill="#7D318B"/>
<path fill-rule="evenodd" clip-rule="evenodd" d="M227.112 133.054L226.227 133.608C226.103 129.064 225.979 124.669 225.866 120.275C225.748 115.812 225.591 111.348 225.541 106.884C225.5 102.479 225.588 98.0708 225.621 93.6017C226.897 93.6294 227.999 93.6211 229.027 94.1911C229.818 94.6311 230.661 94.977 231.46 95.4032C234.919 97.26 236.564 100.503 237.707 104.015C239.956 110.933 239.485 117.865 237.264 124.708C236.627 126.745 235.531 128.606 234.062 130.149C232.133 132.138 229.757 132.946 227.079 133.071C227.537 132.87 228.011 132.707 228.495 132.584C231.526 132.03 233.712 130.339 235.164 127.702C235.909 126.336 236.526 124.903 237.007 123.421C238.11 120.054 238.256 116.537 238.385 113.019C238.509 109.444 237.749 106.046 236.533 102.728C235.051 98.6879 232.427 95.7574 228.286 94.3295C227.506 94.0527 226.751 93.8756 225.897 94.0666C225.897 94.3848 225.897 94.6394 225.897 94.8967C225.963 99.1398 226.03 103.383 226.098 107.626C226.136 110.271 226.131 112.92 226.208 115.562C226.332 119.766 226.519 123.967 226.657 128.17C226.701 129.468 226.676 130.771 226.682 132.072C226.676 132.484 226.602 132.902 227.112 133.054Z" fill="#F97716"/>
<path fill-rule="evenodd" clip-rule="evenodd" d="M227.112 133.054C226.602 132.902 226.676 132.484 226.676 132.097C226.676 130.796 226.696 129.493 226.652 128.195C226.514 123.991 226.327 119.791 226.203 115.587C226.125 112.945 226.131 110.296 226.092 107.651C226.028 103.408 225.961 99.1647 225.891 94.9216C225.891 94.6642 225.891 94.4096 225.891 94.0914C226.745 93.9005 227.5 94.0914 228.28 94.3543C232.414 95.7822 235.045 98.7127 236.528 102.753C237.743 106.074 238.504 109.469 238.38 113.044C238.256 116.561 238.121 120.079 237.002 123.446C236.521 124.927 235.903 126.361 235.158 127.727C233.706 130.364 231.507 132.066 228.49 132.609C228.005 132.732 227.531 132.895 227.073 133.096L227.112 133.054ZM229.788 99.6978V128.552C230.534 128.574 231.006 128.222 231.469 127.818C232.846 126.62 233.439 124.999 233.893 123.319C235.415 117.671 235.098 111.99 233.998 106.334C233.642 104.733 233.12 103.174 232.441 101.682C231.973 100.57 230.978 99.933 229.788 99.6978Z" fill="#7D318B"/>
<path fill-rule="evenodd" clip-rule="evenodd" d="M266.06 134.999C262.803 135.212 259.606 135.45 256.14 135.276C256.276 134.913 256.443 134.562 256.639 134.227C257.198 133.499 257.453 132.581 257.35 131.668C257.143 129.119 256.975 126.568 256.785 123.919H252.8C252.676 124.393 252.511 124.874 252.431 125.369C251.904 128.618 251.348 131.864 250.915 135.127C250.824 135.827 251.191 136.585 251.364 137.421C250.262 137.88 248.961 137.855 247.694 137.822C245.922 137.775 244.145 138.046 242.243 137.872C244.583 134.092 244.96 129.958 245.6 125.928C246.977 117.201 248.209 108.448 249.515 99.7033C249.86 97.3899 250.226 95.0793 250.648 92.7853C250.83 91.8029 250.907 90.9008 250.207 90.0845C250.141 90.007 250.168 89.8492 250.144 89.6445C251.144 89.4079 252.174 89.3194 253.2 89.3816C254.577 89.4065 255.955 89.6002 257.333 89.6583C258.187 89.686 259.05 89.5753 259.91 89.5393C260.378 89.5199 260.882 89.4508 261.097 90.0457C260.169 91.8915 260.171 91.8915 260.48 94.2215C261.199 99.6729 261.957 105.124 262.616 110.584C263.054 114.198 263.321 117.829 263.718 121.448C264.12 125.237 264.544 129.028 265.032 132.794C265.115 133.513 265.649 134.161 266.06 134.999ZM259.656 120.51C259.879 124.661 260.339 128.796 261.034 132.894C260.835 128.931 260.378 124.988 260.152 121.033C259.926 117.079 259.805 113.069 259.325 109.104C258.846 105.138 258.499 101.236 258.077 97.2267L252.929 97.6418C252.378 100.669 251.775 103.636 251.312 106.627C250.518 111.763 249.838 116.918 249.069 122.06C248.443 126.258 247.757 130.447 247.107 134.642C247.097 134.847 247.109 135.052 247.143 135.254C247.41 134.958 247.581 134.587 247.633 134.191C248.274 130.133 248.91 126.066 249.54 121.991C249.708 120.903 249.849 120.776 250.954 120.74C253.412 120.659 255.872 120.583 258.333 120.513C258.719 120.502 259.102 120.51 259.656 120.51Z" fill="#7D318B"/>
<path fill-rule="evenodd" clip-rule="evenodd" d="M259.656 120.51C259.105 120.51 258.719 120.51 258.339 120.51C255.879 120.582 253.419 120.658 250.959 120.737C249.857 120.773 249.714 120.9 249.545 121.988C248.91 126.056 248.274 130.123 247.639 134.189C247.586 134.585 247.415 134.955 247.148 135.251C247.114 135.049 247.102 134.844 247.112 134.64C247.763 130.445 248.449 126.255 249.074 122.057C249.843 116.916 250.524 111.76 251.317 106.624C251.78 103.633 252.384 100.666 252.935 97.6391L258.082 97.224C258.498 101.234 258.865 105.174 259.331 109.101C259.796 113.028 259.923 117.048 260.157 121.031C260.392 125.013 260.841 128.928 261.039 132.891C260.343 128.794 259.881 124.66 259.656 120.51ZM253.486 98.0818C252.803 99.8888 249.782 119.229 249.997 120.496L259.642 120.065C259.568 112.566 258.347 105.23 257.804 97.7498L253.486 98.0818Z" fill="#F97716"/>
<path fill-rule="evenodd" clip-rule="evenodd" d="M253.486 98.0818L257.81 97.7552C258.361 105.227 259.573 112.571 259.648 120.07L250.003 120.502C249.783 119.229 252.803 99.8971 253.486 98.0818ZM255.415 107.297H255.082C254.586 110.429 254.09 113.562 253.585 116.752H256.195C255.947 113.515 255.672 110.413 255.421 107.297H255.415Z" fill="#7D318B"/>
<path d="M296.455 141.682C293.774 139.286 289.872 140.279 286.81 141.265C285.942 141.541 285.082 141.848 284.225 142.158C284.118 142.106 276.033 144.308 272.274 142.573L272.147 142.513C273.25 141.857 274.013 140.869 273.875 139.438C273.732 137.941 272.682 136.311 271.009 136.549C269.452 136.771 268.303 138.957 268.529 140.407C268.633 141.12 268.931 141.791 269.392 142.344C267.273 143.002 264.707 142.402 262.977 141.087C261.246 139.773 260.483 136.809 260.665 134.679C260.67 134.582 260.646 134.486 260.596 134.404C260.547 134.321 260.473 134.256 260.386 134.215C260.299 134.175 260.201 134.162 260.107 134.178C260.012 134.194 259.924 134.238 259.855 134.305C259.813 132.921 259.855 131.538 259.766 130.262C259.728 129.65 258.799 129.83 258.835 130.436C259.075 134.239 258.559 138.431 261.106 141.61C262.889 143.838 266.066 143.902 268.675 143.608C269.255 143.544 269.828 143.431 270.389 143.271C271.424 143.957 272.573 144.45 273.782 144.726C276.234 145.354 278.466 145.047 280.864 144.311C283.528 143.481 286.099 142.374 288.789 141.652C291.17 141.018 293.92 140.675 295.904 142.446C296.361 142.856 296.899 142.073 296.455 141.682ZM272.117 138.32C272.324 138.54 272.481 138.802 272.576 139.089C272.672 139.376 272.703 139.68 272.668 139.981C272.61 140.811 271.872 141.411 271.175 141.807C270.224 140.888 269.643 139.505 270.436 138.348C270.872 137.67 271.629 137.839 272.112 138.309L272.117 138.32Z" fill="#7D318B"/>
</svg>
