<svg width="300" height="156" viewBox="0 0 300 156" fill="none" xmlns="http://www.w3.org/2000/svg">
<path fill-rule="evenodd" clip-rule="evenodd" d="M69.5825 54.816L67.513 55.7652C67.0969 55.9561 66.6863 56.3186 66.2399 55.6157C67.0666 54.7413 66.9949 53.6095 66.9839 52.486C66.9839 51.7056 66.9398 50.9225 66.9646 50.1449C66.9894 49.3673 66.8379 48.6838 66.0332 48.3213C65.8954 48.2577 65.8045 48.0861 65.5896 47.8564C65.8412 47.697 66.1139 47.574 66.3997 47.4911C67.0406 47.4259 67.6845 47.3964 68.3287 47.4026C70.6186 47.4026 72.9058 47.4607 75.1957 47.4635C75.7468 47.4635 76.2979 47.3528 76.8684 47.2974C77.2069 47.2401 77.5503 47.2169 77.8935 47.2283C78.5217 47.303 78.7945 47.8094 78.3536 48.1968C77.3478 49.0851 77.5049 50.2141 77.527 51.321C77.6073 54.5326 77.2597 57.7405 76.4936 60.8596C75.9976 62.7967 75.3335 64.6701 74.0714 66.2751C72.7342 67.9975 70.7727 69.1186 68.6152 69.3938C66.4107 69.7342 64.2421 69.7203 62.1175 68.8902C59.8082 67.988 58.2734 66.3388 57.251 64.1167C56.2535 61.9499 55.8732 59.6697 55.8346 57.301C55.7712 54.2238 55.5949 51.1522 55.5425 48.075C55.4654 43.3707 55.7712 38.6886 56.8597 34.1226C57.7581 30.3454 59.5079 26.9804 62.8229 24.6698C63.704 24.0303 64.7671 23.6935 65.8541 23.7095C67.0197 23.7095 68.1854 23.6846 69.351 23.6957C71.5555 23.7123 73.2502 24.6753 74.4462 26.5155C75.9259 28.7902 76.5735 31.3416 76.7774 34.0092C76.918 35.8688 76.9868 37.7339 77.0364 39.5962C77.0585 40.5039 77.1412 41.3285 78.0285 41.8405C78.147 41.9069 78.1773 42.1172 78.3343 42.452C77.9156 42.5646 77.4892 42.646 77.0585 42.6955C74.4737 42.7896 71.8889 42.8643 69.3041 42.9363C69.1518 42.9204 69.0025 42.8831 68.8605 42.8256C68.8357 42.6789 68.7778 42.5489 68.8136 42.5212C69.6403 41.6052 69.6899 40.4983 69.6155 39.3555C69.5108 37.7588 69.453 36.1538 69.2821 34.5626C69.1774 33.5941 68.844 32.6643 67.7279 32.3959C66.8875 32.1939 65.821 32.8442 65.3112 34.0009C64.8978 34.9537 64.5802 35.9456 64.3633 36.9618C63.5008 40.836 63.374 44.7765 63.3355 48.7281C63.3051 51.8938 63.2445 55.0623 63.8342 58.192C64.0244 59.1993 64.2421 60.2647 64.7353 61.1364C65.675 62.7967 67.9181 62.639 68.8054 60.9288C68.9369 60.6566 69.0386 60.3708 69.1085 60.0765C69.5191 58.4743 69.5604 56.8361 69.5825 54.816ZM73.1152 40.4015L73.4266 40.3295C73.5671 38.47 73.3384 36.6187 73.0491 34.7951C72.8092 32.9781 72.0327 31.2749 70.8197 29.9054C69.3923 28.3447 65.7439 27.5339 63.6799 29.6812C62.3021 31.1119 61.1365 32.6366 60.5192 34.5267C59.8975 36.5087 59.5272 38.5616 59.4169 40.6367C59.2144 44.3177 59.2337 48.0076 59.4748 51.6863C59.6402 54.7302 59.9901 57.7244 60.9463 60.6383C61.5554 62.5961 62.7528 64.3167 64.3743 65.5639C64.5708 65.7269 64.7974 65.8492 65.0412 65.9237C67.0445 66.4356 70.7013 65.4117 71.6547 62.7939C71.9964 61.8614 72.4483 60.9427 72.6219 59.9769C73.1372 57.1405 73.5368 54.2847 73.9997 51.2186L68.9983 51.5783C68.9983 51.6697 68.9983 51.7638 69.0121 51.8551H73.4348C72.9168 54.9433 72.6798 57.9762 71.7429 60.8763C71.514 61.5761 71.2274 62.2555 70.8859 62.9074C69.9572 64.7006 67.3807 65.9514 65.4077 65.5833C65.033 65.4985 64.6824 65.3291 64.3826 65.088C62.9249 63.9645 62.0872 62.4314 61.5085 60.7075C60.4062 57.3868 60.1444 53.9167 59.9681 50.4687C59.7917 46.9626 59.6209 43.4593 59.8661 39.9394C60.1417 36.0652 61.4451 32.7446 64.231 29.9607C65.9368 28.2644 69.3014 28.7321 70.4918 30.3675C71.5232 31.8205 72.1673 33.5142 72.3629 35.2876C72.5586 36.746 72.6633 38.2181 72.8314 39.682C72.8967 39.9325 72.992 40.1741 73.1152 40.4015Z" fill="#7D318B"/>
<path d="M71.7153 41.1972L74.9999 40.6479L74.4525 36.2535L73.3576 30.7605L68.978 25.2676L63.5036 26.3662C62.7737 27.4648 61.2043 29.7718 60.7664 30.2112C60.2189 30.7605 59.6715 34.6056 59.6715 35.1549C59.6715 35.5943 58.5766 39.3662 58.0291 41.1972L57.4817 47.7887C57.6642 49.4366 58.0291 52.8422 58.0291 53.2817V58.2253C58.0291 58.6648 59.854 61.7042 60.7664 63.169L62.9561 67.0141H67.3357L71.1678 65.3662C71.7153 64.8169 72.8102 63.6084 72.8102 63.169C72.8102 62.7295 73.5401 60.7887 73.905 59.8732L74.4525 54.3803L75.5474 49.4366L71.7153 48.8873L67.8831 49.4366L68.4306 52.7324L71.1678 53.2817L71.7153 58.7746L68.978 62.6197L67.3357 63.7183L64.051 62.6197C62.9561 58.5915 60.7664 50.4253 60.7664 49.9859V40.6479C61.4963 38.6338 62.9561 34.4957 62.9561 34.0563C62.9561 33.6169 64.051 32.0422 64.5985 31.3098L66.7883 30.2112L68.978 30.7605L70.0729 34.0563L71.7153 41.1972Z" fill="#7D318B"/>
<path fill-rule="evenodd" clip-rule="evenodd" d="M73.1152 39.8481C72.9932 39.6162 72.9006 39.3698 72.8396 39.1148C72.6715 37.6509 72.564 36.1787 72.3711 34.7176C72.1751 32.9443 71.531 31.2507 70.5001 29.7975C69.3096 28.1621 65.945 27.6972 64.2393 29.3935C61.4533 32.1607 60.1472 35.4814 59.8744 39.3694C59.6291 42.8893 59.8 46.3954 59.9763 49.8849C60.1527 53.3743 60.4007 56.8029 61.5167 60.1402C62.0954 61.8614 62.9331 63.3972 64.3908 64.518C64.6898 64.761 65.0406 64.9315 65.4159 65.0161C67.389 65.3897 69.9655 64.1333 70.8941 62.3402C71.2366 61.6938 71.5251 61.0199 71.7566 60.3256C72.6936 57.4228 72.9305 54.3927 73.4486 51.3044H69.0258C69.0258 51.2104 69.0258 51.1163 69.012 51.0277L74.0135 50.668C73.5368 53.7341 73.1372 56.5899 72.6357 59.4263C72.4621 60.3948 72.0102 61.3135 71.6685 62.2461C70.7095 64.8611 67.0528 65.8878 65.0549 65.3731C64.8114 65.2994 64.5848 65.1781 64.3881 65.0161C62.7665 63.7677 61.5691 62.0462 60.9601 60.0876C60.0039 57.1737 59.6539 54.1741 59.4886 51.1384C59.2475 47.4588 59.2281 43.768 59.4307 40.0861C59.5407 38.0118 59.9111 35.9599 60.533 33.9788C61.1502 32.086 62.3159 30.5613 63.6937 29.1306C65.7576 26.986 69.4061 27.794 70.8335 29.3575C72.0519 30.7251 72.8334 32.4285 73.0766 34.2472C73.3659 36.0764 73.5946 37.9249 73.4541 39.7817L73.1152 39.8481Z" fill="#F97716"/>
<path d="M100.182 28.5633V25.8169L84.854 24.7183V29.1126H87.5912L100.182 28.5633Z" fill="#7D318B"/>
<path d="M98.5401 49.9859V47.2395L83.2117 46.1409V50.5352H85.9489L98.5401 49.9859Z" fill="#7D318B"/>
<path d="M99.6351 67.5633V64.8169L84.3066 63.7183V68.1126H87.0439L99.6351 67.5633Z" fill="#7D318B"/>
<path fill-rule="evenodd" clip-rule="evenodd" d="M90.7015 31.3556C90.6464 35.7832 90.4039 40.1194 90.6629 44.5193C92.8839 44.9178 94.9975 44.7158 97.0973 44.7241C97.4197 44.7241 97.7669 44.4031 98.0618 44.1706C98.3102 43.9417 98.5405 43.6938 98.7507 43.429C99.2549 44.5802 99.3624 51.8276 98.9684 54.0801C98.5164 54.3126 98.2905 54.0054 97.9791 53.7425C97.6677 53.4796 97.1965 53.1143 96.7914 53.1005C94.9369 53.0479 93.0796 53.1005 91.225 53.1199C91.1061 53.141 90.9921 53.1842 90.8889 53.2472V62.0193C91.6219 62.0746 92.2116 62.1466 92.8013 62.1549C94.744 62.1826 96.6867 62.1549 98.6294 62.2158C99.0381 62.2292 99.4451 62.1571 99.8246 62.0042C100.204 61.8513 100.548 61.6208 100.834 61.3275C101.043 61.1283 101.247 60.9262 101.528 60.6551C101.699 60.8903 101.911 61.048 101.911 61.2085C101.933 63.8429 101.928 66.4662 101.928 69.2999C100.994 69.2999 100.101 69.2999 99.2081 69.2999C95.0195 69.2999 90.8337 69.2999 86.6452 69.3193C85.6118 69.3193 84.5812 69.4964 83.5479 69.5379C82.6165 69.5794 82.4952 69.311 82.881 68.467C83.1172 68.0156 83.2526 67.5179 83.2778 67.0086C83.2006 60.8543 83.0739 54.7027 82.983 48.5512C82.8782 41.4837 82.7983 34.4189 82.7074 27.3514C82.6909 26.0453 82.6082 25.8958 81.1477 24.4015C81.3599 24.2244 81.5473 23.9394 81.7732 23.9062C82.4559 23.8074 83.1448 23.7584 83.8344 23.7595C86.1189 23.7595 88.406 23.7595 90.6932 23.7595H101.82V32.6894C101.526 32.4456 101.244 32.186 100.977 31.9118C100.767 31.6403 100.493 31.4263 100.179 31.2894C99.8647 31.1526 99.5214 31.0973 99.1806 31.1287C96.7225 31.2228 94.259 31.22 91.801 31.2643C91.4648 31.2698 91.1314 31.3196 90.7015 31.3556ZM87.2735 48.7892C87.1357 41.7881 86.9979 34.8783 86.8546 27.8191C88.0506 27.8191 89.0757 27.8357 90.1007 27.8191C91.1258 27.8025 92.173 27.7471 93.2063 27.6835C94.2838 27.6198 95.3612 27.5451 96.4332 27.4344C97.4032 27.3348 98.4255 27.5064 99.3431 27.1107L99.3101 26.8339L86.2125 27.2075C86.5184 40.4515 86.8215 53.6069 87.1302 66.9588C88.5962 66.8703 89.9189 66.7845 91.2388 66.7098C92.5588 66.635 93.8319 66.624 95.1187 66.4939C96.4056 66.3639 97.7146 66.5935 98.9766 66.0678C98.4107 65.9172 97.8255 65.8529 97.2406 65.8768C94.609 65.9737 91.9773 66.0982 89.3457 66.1951C88.8111 66.2144 88.2738 66.1563 87.6758 66.1314C87.5738 60.5195 87.4746 55.0625 87.3727 49.5446C88.4915 49.4561 89.4697 49.3592 90.4507 49.3066C91.4317 49.2541 92.4348 49.2651 93.4268 49.2181C94.3527 49.1738 95.3061 49.3343 96.1824 48.7892H87.2735Z" fill="#7D318B"/>
<path fill-rule="evenodd" clip-rule="evenodd" d="M87.2736 48.5428H96.1715C95.2897 49.0962 94.3363 48.9247 93.4159 48.9689C92.4239 49.016 91.4318 49.0049 90.4398 49.0575C89.4478 49.1101 88.4806 49.2069 87.3618 49.2955C87.4637 54.8299 87.5629 60.2703 87.6649 65.8989C88.2629 65.921 88.8002 65.9791 89.3348 65.9598C91.9664 65.8629 94.5981 65.7384 97.2297 65.6415C97.8146 65.6176 98.3998 65.6819 98.9657 65.8325C97.7147 66.3582 96.3975 66.1286 95.1079 66.2586C93.8182 66.3887 92.5203 66.4025 91.2279 66.4745C89.9355 66.5464 88.5853 66.6377 87.1193 66.7263C86.8107 53.3716 86.5075 40.2162 86.2017 26.975L99.2992 26.5986L99.3322 26.8754C98.4146 27.2711 97.4033 27.0995 96.4223 27.1991C95.3504 27.3098 94.2729 27.3845 93.1955 27.4482C92.1621 27.5118 91.126 27.5616 90.0899 27.5838C89.0537 27.6059 88.0397 27.5838 86.8437 27.5838C86.998 34.6291 87.1358 41.5417 87.2736 48.5428Z" fill="#F97716"/>
<path fill-rule="evenodd" clip-rule="evenodd" d="M114.163 30.6057C112.085 30.5669 110.101 30.4507 108.126 30.5392C107.519 30.5697 106.921 31.1287 106.359 31.5022C106.084 31.6793 105.907 31.9893 105.497 32.4486C105.363 31.9958 105.266 31.5332 105.205 31.065C105.147 28.5496 105.114 26.0342 105.081 23.5188C105.115 23.3669 105.171 23.2206 105.246 23.0843C106.806 23.9698 108.462 23.8398 110.154 23.8038C113.821 23.7291 117.492 23.873 121.162 23.8425C123.141 23.8259 125.122 23.6682 127.093 23.5022C127.677 23.4496 128.242 23.159 128.804 22.9487C129.537 22.672 129.928 22.8657 129.892 23.6101C129.804 25.3369 129.664 27.0608 129.54 28.7876C129.473 29.7229 129.396 30.6555 129.316 31.7292C129.093 31.6353 128.882 31.5164 128.685 31.375C128.088 30.7942 127.287 30.4739 126.456 30.4839C124.949 30.4424 123.439 30.4839 121.86 30.4839C121.794 30.7889 121.746 31.0975 121.716 31.4082C121.584 36.1761 121.441 40.944 121.342 45.7148C121.308 47.3585 121.457 49.0078 121.449 50.657C121.435 53.8227 121.333 56.9885 121.336 60.1542C121.336 62.6668 121.391 65.185 121.545 67.6921C121.592 68.4614 122.052 69.2058 122.35 70.0277C119.509 70.7831 116.563 70.368 113.651 70.3514C113.606 70.1909 113.538 70.0747 113.568 70.0332C114.499 68.7713 114.576 67.3268 114.554 65.827C114.494 61.3994 114.469 56.9719 114.45 52.5443C114.428 47.4277 114.45 42.3055 114.403 37.1917C114.384 35.0747 114.251 32.9578 114.163 30.6057Z" fill="#7D318B"/>
<path fill-rule="evenodd" clip-rule="evenodd" d="M127.277 26.2887L118.184 26.6374C118.109 33.4337 117.908 40.2605 118.013 47.0956C118.117 53.9306 118.547 60.7076 118.396 67.5177C118.283 67.5177 118.167 67.5177 118.051 67.5177C117.908 62.9988 117.732 58.4744 117.632 53.9583C117.533 49.4422 117.442 44.8624 117.462 40.3131C117.481 35.7637 117.638 31.2255 117.737 26.5461H107.745C107.745 26.4548 107.745 26.3662 107.731 26.2694C108.646 26.1863 109.558 26.0286 110.471 26.0341C113.75 26.0341 117.026 26.1614 120.303 26.1421C122.154 26.1421 124.003 25.9345 125.852 25.81C126.346 25.7768 126.839 25.6633 127.291 25.8792L127.277 26.2887Z" fill="#F97716"/>
<path fill-rule="evenodd" clip-rule="evenodd" d="M165.214 23.3721C164.938 23.6627 164.707 23.956 164.434 24.2023C163.55 25.0393 162.927 26.1159 162.64 27.3016C161.221 32.7918 159.758 38.2709 158.344 43.7639C157.738 46.1105 157.206 48.4682 156.669 50.8397C156.59 51.2656 156.564 51.6997 156.591 52.132C156.682 57.0715 156.771 62.011 156.892 66.9505C156.917 68.0021 157.11 69.0204 158.115 69.6679C158.339 69.8118 158.452 70.1218 158.755 70.5534C158.27 70.678 157.777 70.7704 157.28 70.8302C154.566 70.9243 151.849 70.9907 149.135 71.0598C148.482 71.0792 148.482 71.0598 147.908 70.368C147.928 70.2878 147.908 70.1799 147.972 70.1245C149.377 68.6025 149.532 66.7568 149.485 64.7948C149.38 60.3313 149.374 55.865 149.314 51.3987C149.31 50.9304 149.242 50.465 149.113 50.015C146.952 42.9272 144.78 35.8486 142.596 28.7793C142.502 28.4227 142.339 28.0885 142.115 27.7962C141.891 27.504 141.611 27.2596 141.292 27.0774C140.951 26.8339 140.63 26.5627 140.333 26.2666C141.041 26.0314 141.502 25.763 141.987 25.7436C144.698 25.6329 147.415 25.5693 150.13 25.5195C150.482 25.5488 150.829 25.6184 151.166 25.727C151.166 25.9705 151.182 26.0923 151.138 26.1338C150.4 26.8173 150.389 27.5589 150.761 28.4666C151.405 30.0273 151.937 31.6323 152.524 33.2152C152.632 33.4402 152.756 33.6575 152.893 33.8655C153.888 31.1913 154.63 28.4295 155.112 25.6163C155.19 25.276 155.184 24.9215 155.095 24.5839C155.006 24.2463 154.835 23.9357 154.599 23.6793C154.048 23.065 154.241 22.6471 155.059 22.5945C156.178 22.5198 157.302 22.506 158.424 22.517C160.234 22.5364 162.045 22.6001 163.855 22.6471C164.371 22.6692 164.858 22.7744 165.214 23.3721ZM153.188 68.7188H153.591C153.591 68.3563 153.591 67.9965 153.591 67.634C153.563 65.2957 153.538 62.9546 153.502 60.6163C153.438 56.5429 153.372 52.4705 153.304 48.399C153.271 46.4979 153.304 44.6079 153.891 42.7732C154.131 42.0316 154.329 41.2761 154.572 40.5373C156.056 36.0119 157.544 31.4921 159.036 26.9778C159.105 26.7153 159.16 26.4493 159.201 26.1809L158.975 26.1172C156.961 32.0778 154.949 38.0412 152.863 44.2177C152.114 42.264 151.447 40.493 150.752 38.7303C150.058 36.9675 149.333 35.1965 148.628 33.4282C147.947 31.7236 147.324 29.9941 146.393 28.4029C146.386 28.7089 146.441 29.013 146.555 29.2968C148.396 34.1533 150.254 39.0042 152.067 43.8662C152.428 44.832 152.863 45.8393 152.893 46.8438C153.023 50.0012 152.993 53.1697 153.009 56.3326C153.026 60.2344 153.009 64.1335 153.042 68.0353C153.07 68.2671 153.119 68.496 153.188 68.7188Z" fill="#7D318B"/>
<path fill-rule="evenodd" clip-rule="evenodd" d="M153.188 68.7187C153.124 68.4935 153.081 68.2628 153.059 68.0296C153.04 64.1278 153.042 60.2288 153.026 56.327C153.009 53.164 153.026 49.9956 152.91 46.8382C152.869 45.8336 152.433 44.8264 152.083 43.8606C150.262 38.9986 148.405 34.1476 146.572 29.2911C146.458 29.0073 146.403 28.7032 146.409 28.3973C147.341 29.9885 147.964 31.718 148.644 33.4226C149.35 35.1909 150.074 36.9536 150.769 38.7246C151.463 40.4957 152.13 42.2584 152.88 44.212C154.966 38.0356 156.977 32.0722 158.992 26.1116L159.218 26.1752C159.177 26.4436 159.121 26.7097 159.052 26.9722C157.568 31.4938 156.08 36.0137 154.588 40.5316C154.346 41.2705 154.147 42.0259 153.908 42.7676C153.321 44.6022 153.288 46.4922 153.321 48.3933C153.39 52.4649 153.457 56.5373 153.519 60.6107C153.555 62.949 153.58 65.2901 153.607 67.6284C153.607 67.9909 153.607 68.3506 153.607 68.7131L153.188 68.7187Z" fill="#F97716"/>
<path d="M151.681 31.0401C149.551 25.8654 146.875 21.4959 141.532 19.3154C138.696 18.1559 135.657 17.8211 132.764 16.8913C131.041 16.3378 128.718 16.0279 126.977 15.0538C128.627 14.4896 130.099 13.4966 131.243 12.1759C132.744 10.3744 133.381 7.07035 131.085 5.64523C129.057 4.38614 125.988 5.64523 124.502 7.18934C124.414 7.28012 124.35 7.39133 124.315 7.51311C123.293 8.70497 122.735 10.2271 122.741 11.7996C122.742 12.2857 122.831 12.7676 123.003 13.2219C122.281 13.3935 121.581 13.5457 120.936 13.6923C113.466 15.3942 105.632 15.92 97.9876 15.6294C94.5541 15.5021 91.0985 15.1673 87.7559 14.3454C85.5073 13.792 82.917 12.9922 81.3987 11.1188C80.7676 10.3412 79.6819 11.4481 80.2964 12.2257C82.3824 14.7992 86.21 15.6847 89.288 16.2769C94.0911 17.1984 106.166 17.4502 114.753 16.8304C117.784 16.6118 121.463 16.4513 124.797 15.6986C125.999 16.718 127.348 17.5484 128.798 18.1614C131.874 19.5146 135.255 19.9491 138.46 20.8899C142.439 22.0605 145.349 24.2964 146.886 28.2231C147.244 29.1446 148.741 28.7433 148.377 27.8108C148.245 27.4704 148.101 27.1383 147.958 26.8201C148.81 28.3081 149.553 29.8563 150.182 31.4524C150.568 32.3767 152.064 31.9644 151.681 31.0401ZM129.912 7.27236C131.13 7.87008 130.978 9.12087 130.226 9.9206C128.908 11.3042 126.9 12.1344 124.863 12.7376C123.948 10.3274 127.263 5.97453 129.912 7.27236Z" fill="#7D318B"/>
<path fill-rule="evenodd" clip-rule="evenodd" d="M188.21 47.6157C188.245 51.4511 188.21 56.0917 187.16 60.641C186.777 62.24 186.27 63.8065 185.644 65.326C184.511 68.1236 182.434 69.7535 179.383 70.0579C177.363 70.2936 175.317 70.1405 173.354 69.6069C171.295 69.0202 169.951 67.6864 169.072 65.766C167.661 62.686 167.101 59.4013 166.79 56.0806C166.118 48.8858 166.239 41.7187 167.479 34.5903C167.898 32.4195 168.582 30.3088 169.515 28.3059C169.863 27.4878 170.378 26.7524 171.028 26.1478C171.677 25.5432 172.446 25.083 173.285 24.7971C176.763 23.502 180.009 23.9946 182.993 26.0728C183.767 26.6262 184.354 27.5228 184.837 28.3696C186.939 32.0638 187.799 36.104 187.956 40.3185C188.044 42.4769 188.116 44.6437 188.21 47.6157ZM184.547 48.5814C184.438 44.6288 184.096 40.686 183.525 36.7737C183.183 34.3855 182.285 32.2409 181.086 30.1323C179.827 27.9185 175.112 27.9185 173.776 29.7172C172.705 31.0788 171.916 32.6415 171.455 34.3136C170.816 36.8816 170.486 39.5173 170.472 42.1642C170.441 45.1556 170.543 48.147 170.612 51.1384C170.684 54.3511 170.888 57.5611 171.877 60.641C172.278 61.8727 172.801 63.0611 173.437 64.1886C174.608 66.253 178.306 66.8396 180.182 65.1599C181.268 64.1886 182.249 63.1648 182.729 61.7811C183.167 60.5165 183.649 59.227 183.801 57.907C184.151 54.8077 184.316 51.689 184.556 48.5814H184.547Z" fill="#7D318B"/>
<path fill-rule="evenodd" clip-rule="evenodd" d="M184.556 48.5815C184.316 51.6891 184.151 54.8078 183.801 57.9043C183.649 59.2187 183.167 60.5083 182.729 61.7784C182.249 63.1621 181.268 64.1859 180.182 65.1572C178.306 66.8369 174.608 66.2503 173.437 64.1859C172.801 63.0584 172.278 61.87 171.877 60.6383C170.877 57.5584 170.684 54.3484 170.612 51.1357C170.543 48.1443 170.441 45.1529 170.472 42.1615C170.486 39.5155 170.817 36.8808 171.455 34.3136C171.917 32.6402 172.708 31.0765 173.781 29.7145C175.118 27.9103 179.843 27.9047 181.092 30.1296C182.29 32.2493 183.189 34.3939 183.53 36.771C184.103 40.6842 184.445 44.6278 184.556 48.5815ZM184.049 49.4476C184.015 44.8983 183.172 38.221 182.561 35.2268C182.172 33.3092 181.357 31.5044 180.177 29.947C179.946 29.6048 179.64 29.3208 179.282 29.1173C178.924 28.9137 178.524 28.7961 178.113 28.7736C176.46 28.7045 174.949 28.948 173.979 30.5502C173.177 31.8321 172.58 33.2329 172.21 34.7011C171.45 37.8391 171.218 41.0353 171.191 44.2397C171.169 46.9239 171.359 49.6081 171.386 52.2951C171.402 54.9839 171.756 57.66 172.442 60.2592C172.83 61.7259 173.31 63.1676 174.291 64.3713C174.928 65.117 175.816 65.6016 176.786 65.7333C177.756 65.8649 178.74 65.6343 179.551 65.0853C180.689 64.2551 181.692 63.3032 182.175 61.9445C182.605 60.7241 183.136 59.4982 183.293 58.2308C183.646 55.3225 183.801 52.3809 184.049 49.4476Z" fill="#F97716"/>
<path fill-rule="evenodd" clip-rule="evenodd" d="M184.048 49.4476C183.806 52.3809 183.646 55.3225 183.285 58.2391C183.128 59.5065 182.596 60.7296 182.166 61.9527C181.684 63.3115 180.681 64.2744 179.543 65.0935C178.731 65.6426 177.747 65.8731 176.778 65.7415C175.808 65.6099 174.92 65.1253 174.283 64.3796C173.302 63.1759 172.822 61.7341 172.433 60.2675C171.748 57.6673 171.393 54.9904 171.378 52.3006C171.351 49.6136 171.16 46.9294 171.182 44.2452C171.21 41.0408 171.441 37.8446 172.202 34.7066C172.571 33.2384 173.168 31.8377 173.971 30.5557C174.949 28.9535 176.468 28.71 178.105 28.7792C178.515 28.8016 178.915 28.9192 179.274 29.1228C179.632 29.3263 179.938 29.6103 180.169 29.9525C181.349 31.5099 182.163 33.3147 182.552 35.2323C183.172 38.221 184.015 44.8983 184.048 49.4476ZM179.868 46.9571C179.797 46.9571 179.937 46.8215 179.868 46.8215C179.868 44.3974 179.747 42.1006 179.626 39.682C179.551 38.1822 179.199 36.6934 178.895 35.213C178.84 34.8644 178.668 34.545 178.408 34.3072C178.149 34.0694 177.816 33.9272 177.465 33.9041C176.738 33.8487 176.443 34.4575 176.173 35.011C175.945 35.4296 175.776 35.8774 175.669 36.342C175.426 37.6149 175.117 38.8934 175.062 40.1774C174.853 46.1131 174.96 52.0405 175.74 57.9347C175.81 58.6657 175.931 59.3908 176.104 60.1042C176.294 60.7684 176.614 61.4878 177.44 61.4878C178.267 61.4878 178.617 60.7573 178.818 60.1042C179.12 59.1139 179.311 58.093 179.389 57.0603C179.582 53.6842 179.708 50.3193 179.868 46.946V46.9571Z" fill="#7D318B"/>
<path fill-rule="evenodd" clip-rule="evenodd" d="M191.376 22.6415C191.982 22.5253 192.478 22.3371 192.938 22.3648C195.906 22.4838 198.874 22.6415 201.844 22.8048C202.318 22.8297 202.806 22.8518 203.035 23.4662C202.958 23.5852 202.9 23.7816 202.773 23.8536C201.654 24.4983 201.376 25.4807 201.437 26.7121C201.988 38.1961 201.646 49.6802 201.712 61.1752C201.712 62.058 201.784 62.8882 202.28 63.6658C202.872 64.59 203.71 64.8529 204.73 64.7588C205.749 64.6647 206.501 64.222 206.793 63.2507C207.086 62.2794 207.38 61.3136 207.391 60.3451C207.463 54.0579 207.488 47.7717 207.466 41.4864C207.449 37.2387 207.317 32.9937 207.262 28.7571C207.262 27.9961 207.058 27.4205 206.358 27.0331C206.138 26.9086 206.016 26.6014 205.829 26.3469C206.576 25.655 207.422 25.7021 208.218 25.6799C209.555 25.6467 210.894 25.7049 212.233 25.6799C213.266 25.6799 214.3 25.5886 215.333 25.5388C215.587 25.4895 215.848 25.4811 216.105 25.5139C216.457 25.6163 216.931 25.7436 217.075 26.0092C217.188 26.2223 216.976 26.7481 216.75 26.9833C216.025 27.7388 215.895 28.6104 215.923 29.6122C216.193 39.4525 216.111 49.2909 215.678 59.1275C215.567 61.5848 215.262 64.0366 214.25 66.3583C212.999 69.2279 211.048 71.0626 207.882 71.6409C205.54 72.0582 203.136 71.9638 200.833 71.3642C197.661 70.5617 195.79 68.3202 194.622 65.4174C193.577 62.8024 193.283 60.0434 193.244 57.2568C193.181 52.4446 193.181 47.6324 193.134 42.8202C193.084 37.2857 192.991 31.7264 192.966 26.178C192.966 25.0269 192.811 24.0307 191.762 23.361C191.624 23.2448 191.571 23.004 191.376 22.6415ZM197.438 25.4364H197.039C197.039 26.2943 197.039 27.1521 197.039 28.01C197.132 34.3746 197.212 40.7586 197.331 47.1343C197.402 51.1662 197.499 55.198 197.648 59.2299C197.716 61.0895 197.904 62.949 198.651 64.7007C199.103 65.7606 199.709 66.754 200.687 67.3268C202.31 68.2787 204.104 68.8405 206.016 68.5748C207.499 68.3507 209.023 68.074 209.993 66.6903C210.792 65.6031 211.306 64.3319 211.489 62.9933C211.66 61.5294 211.803 60.0601 211.872 58.5879C212.082 54.0828 212.313 49.5778 212.423 45.0727C212.544 39.7403 212.544 34.4078 212.589 29.0726C212.565 28.8016 212.514 28.5337 212.437 28.2728C212.344 28.3621 212.272 28.4703 212.224 28.5901C212.177 28.7099 212.155 28.8386 212.161 28.9674C212.139 32.5648 212.128 36.1622 212.106 39.7596C212.106 41.2346 212.106 42.7123 212.043 44.1872C211.836 48.648 211.624 53.1088 211.357 57.5668C211.29 59.3858 211.092 61.1975 210.764 62.9878C210.255 65.4146 209.207 67.4707 206.394 68.0186C203.812 68.5223 201.098 67.6118 199.706 65.4257C199.17 64.5863 198.814 63.6438 198.662 62.6585C198.343 60.5162 198.151 58.3567 198.088 56.1915C197.868 46.2599 197.719 36.331 197.537 26.3994C197.524 26.0867 197.466 25.763 197.433 25.4364H197.438Z" fill="#7D318B"/>
<path fill-rule="evenodd" clip-rule="evenodd" d="M197.433 25.4364C197.466 25.763 197.524 26.0867 197.529 26.4105C197.708 36.3421 197.857 46.2709 198.08 56.2025C198.143 58.3677 198.334 60.5273 198.653 62.6696C198.806 63.6549 199.162 64.5974 199.698 65.4368C201.089 67.6229 203.804 68.5333 206.386 68.0297C209.199 67.4762 210.244 65.4257 210.756 62.9989C211.087 61.207 211.288 59.3934 211.357 57.5723C211.632 53.1143 211.836 48.6535 212.043 44.1927C212.112 42.7206 212.098 41.2429 212.106 39.7652C212.128 36.1678 212.139 32.5704 212.162 28.973C212.155 28.8441 212.177 28.7155 212.224 28.5957C212.272 28.4758 212.344 28.3677 212.437 28.2784C212.514 28.5393 212.565 28.8072 212.589 29.0781C212.545 34.4133 212.545 39.7458 212.423 45.0783C212.319 49.5833 212.087 54.0884 211.872 58.5934C211.803 60.0656 211.66 61.535 211.489 62.9989C211.305 64.3356 210.791 65.6047 209.993 66.6904C209.023 68.074 207.513 68.3507 206.014 68.561C204.101 68.8377 202.307 68.2649 200.684 67.313C199.706 66.7402 199.1 65.7467 198.648 64.6869C197.901 62.9352 197.714 61.0756 197.645 59.2161C197.496 55.1842 197.4 51.1523 197.328 47.1205C197.209 40.7558 197.13 34.3718 197.036 27.9961C197.036 27.1383 197.036 26.2804 197.036 25.4226L197.433 25.4364Z" fill="#F97716"/>
<path fill-rule="evenodd" clip-rule="evenodd" d="M231.818 59.4458C231.818 61.607 231.818 63.7709 231.818 65.9321C231.818 66.6544 232.327 67.0861 232.799 67.5427C233.182 67.9107 233.526 68.323 234.036 68.8765C232.934 69.1532 232.107 69.0093 231.264 68.9014C228.433 68.5652 225.574 68.5652 222.743 68.9014C222.532 68.943 222.317 68.9643 222.101 68.965C221.55 68.9235 221.274 68.4116 221.704 68.0851C223.314 66.9007 223.024 65.2431 223.016 63.5938C222.98 57.6969 223.016 51.7971 222.986 45.9002C222.958 41.0464 222.859 36.1899 222.807 31.3362C222.79 29.8613 222.76 28.3836 222.851 26.9086C222.928 25.6053 222.473 24.7308 221.266 24.241C220.991 24.1303 220.751 23.9643 220.263 23.6876C220.726 23.48 221.002 23.2863 221.277 23.2448C224.443 22.7882 227.632 22.5087 230.826 22.7107C234.813 22.9653 237.863 24.8664 239.834 28.4002C243.094 34.2446 242.975 40.3242 241.019 46.5172C240.349 48.7744 239.108 50.8186 237.417 52.4502C237.258 52.6182 237.108 52.7946 236.968 52.9787C237.99 54.9988 239.01 56.9968 239.999 59.0002C241.298 61.5959 242.584 64.1953 243.857 66.7983C244.491 68.0989 245.1 69.3691 246.695 69.762C247.064 69.8533 247.365 70.2297 247.883 70.6115C246.546 71.3836 245.251 70.9962 244.08 71.2646C242.909 71.533 241.685 71.522 240.481 71.569C239.277 71.616 238.023 71.569 236.623 71.569C236.791 71.1318 236.811 70.8385 236.968 70.7167C237.519 70.2822 237.555 69.8035 237.224 69.2335C237.161 69.1228 237.119 68.9955 237.059 68.882L232.024 59.407L231.818 59.4458ZM232.526 51.7612C232.867 51.4512 233.165 51.2077 233.438 50.931C234.945 49.4173 236.364 47.8178 237.064 45.7618C238.321 42.0648 238.833 38.2709 238.244 34.3636C238.025 32.8054 237.319 31.3574 236.227 30.2293C234.563 28.5091 232.497 27.2352 230.217 26.524C229.39 26.2473 228.431 26.3497 227.535 26.3884C227.405 26.3857 227.276 26.4103 227.156 26.4607C227.036 26.5111 226.928 26.5862 226.839 26.6811C226.75 26.776 226.681 26.8886 226.638 27.0116C226.595 27.1347 226.577 27.2655 226.587 27.3957C226.587 28.1317 226.455 28.8651 226.466 29.6095C226.529 33.8129 226.623 38.0191 226.698 42.2253C226.722 43.5701 226.714 44.915 226.747 46.2571C226.855 50.3748 226.992 54.4896 227.083 58.6045C227.133 60.9456 227.108 63.2894 227.133 65.6305C227.159 65.8833 227.211 66.1327 227.287 66.3749L227.563 66.3362V55.223L232.269 51.9991C235.427 57.6803 238.519 63.2341 241.669 68.8986C241.807 68.6219 241.895 68.525 241.873 68.4835C238.999 62.8162 235.882 57.2818 232.526 51.7612Z" fill="#7D318B"/>
<path fill-rule="evenodd" clip-rule="evenodd" d="M232.526 51.7612C235.882 57.2818 238.999 62.8163 241.875 68.4836C241.898 68.5251 241.809 68.6247 241.672 68.8987C238.522 63.2342 235.43 57.6803 232.272 51.9992L227.565 55.223V66.3362L227.29 66.375C227.213 66.1328 227.162 65.8834 227.136 65.6306C227.111 63.2895 227.136 60.9457 227.086 58.6046C226.995 54.4897 226.857 50.3748 226.75 46.2572C226.717 44.9151 226.725 43.5702 226.7 42.2253C226.626 38.0191 226.532 33.8129 226.469 29.6095C226.469 28.8734 226.579 28.1401 226.59 27.3957C226.578 27.2645 226.594 27.1321 226.636 27.0074C226.678 26.8827 226.747 26.7683 226.836 26.6719C226.926 26.5755 227.034 26.4992 227.155 26.4479C227.276 26.3967 227.407 26.3717 227.538 26.3746C228.433 26.3359 229.395 26.2446 230.219 26.5102C232.499 27.2214 234.566 28.4954 236.229 30.2155C237.322 31.3436 238.028 32.7916 238.246 34.3498C238.836 38.2571 238.323 42.051 237.067 45.748C236.367 47.8041 234.948 49.4035 233.44 50.9172C233.165 51.1939 232.867 51.4513 232.526 51.7612ZM226.866 27.0166C227.221 36.0987 227.089 45.1752 227.692 54.2877C227.857 54.2668 228.018 54.2211 228.169 54.1521C229.668 53.059 231.247 52.0545 232.633 50.8314C234.496 49.1905 236.014 47.2479 236.731 44.7878C237.6 41.9219 237.948 38.9224 237.759 35.9326C237.64 34.2917 237.464 32.6535 236.439 31.2532C234.73 28.9205 232.358 27.5479 229.693 26.6845C229.227 26.525 228.731 26.472 228.242 26.5294C227.753 26.5869 227.282 26.7533 226.866 27.0166Z" fill="#F97716"/>
<path fill-rule="evenodd" clip-rule="evenodd" d="M226.865 27.0165C227.282 26.7541 227.752 26.5884 228.241 26.5314C228.729 26.4745 229.224 26.5277 229.69 26.6872C232.355 27.5506 234.727 28.9232 236.436 31.2559C237.461 32.6561 237.637 34.2999 237.756 35.9353C237.945 38.9251 237.597 41.9246 236.728 44.7905C236.011 47.2505 234.493 49.1931 232.63 50.8341C231.252 52.0572 229.665 53.0617 228.166 54.1548C228.015 54.2238 227.854 54.2695 227.689 54.2904C227.089 45.1751 227.221 36.0986 226.865 27.0165ZM231.117 47.566C232.9 46.4204 233.807 44.8652 234.424 43.1578C235.099 41.2955 235.091 39.3501 234.857 37.3909C234.753 36.4645 234.455 35.5706 233.984 34.7673C233.513 33.9639 232.879 33.2691 232.123 32.7281C231.74 32.4514 231.429 31.9809 230.809 32.0169C230.922 37.164 231.013 42.2557 231.117 47.566Z" fill="#7D318B"/>
<path fill-rule="evenodd" clip-rule="evenodd" d="M146.164 98.4415C146.109 102.869 145.867 107.205 146.126 111.608C148.347 112.004 150.46 111.802 152.56 111.81C152.882 111.81 153.23 111.489 153.524 111.257C153.773 111.028 154.003 110.78 154.213 110.515C154.718 111.666 154.825 118.914 154.431 121.169C153.979 121.398 153.753 121.091 153.442 120.828C153.13 120.566 152.659 120.2 152.254 120.186C150.4 120.134 148.542 120.186 146.688 120.206C146.569 120.228 146.455 120.271 146.352 120.333V129.105C147.087 129.161 147.674 129.233 148.264 129.244C150.207 129.268 152.152 129.244 154.092 129.302C154.501 129.315 154.908 129.243 155.287 129.09C155.667 128.937 156.011 128.707 156.297 128.413C156.506 128.217 156.71 128.012 156.991 127.741C157.162 127.976 157.374 128.134 157.374 128.294C157.396 130.929 157.391 133.566 157.391 136.386H154.671C150.482 136.386 146.296 136.386 142.108 136.405C141.075 136.405 140.044 136.582 139.011 136.624C138.079 136.665 137.958 136.397 138.346 135.553C138.581 135.101 138.715 134.603 138.741 134.095C138.663 127.943 138.537 121.789 138.446 115.637C138.341 108.57 138.261 101.505 138.17 94.4373C138.151 93.1312 138.068 92.9845 136.608 91.4875C136.823 91.3103 137.007 91.0253 137.233 90.9921C137.916 90.8947 138.605 90.8457 139.294 90.8455C141.579 90.8455 143.866 90.8455 146.153 90.8455H157.283V99.7725C156.987 99.5302 156.706 99.2706 156.44 98.995C156.229 98.7242 155.953 98.5108 155.639 98.374C155.325 98.2373 154.982 98.1815 154.641 98.2118C152.182 98.3059 149.722 98.3031 147.261 98.3474C146.93 98.3585 146.6 98.4055 146.164 98.4415ZM142.739 115.875C142.598 108.871 142.463 101.961 142.32 94.9022C143.513 94.9022 144.525 94.9188 145.566 94.9022C146.608 94.8856 147.636 94.8303 148.669 94.7666C149.747 94.703 150.824 94.6283 151.896 94.5176C152.866 94.418 153.888 94.5895 154.809 94.1938C154.809 94.1025 154.784 94.0139 154.773 93.9171L141.675 94.2907C141.981 107.535 142.284 120.69 142.593 134.045C144.062 133.956 145.382 133.868 146.702 133.793C148.021 133.718 149.295 133.71 150.581 133.577C151.868 133.444 153.177 133.677 154.439 133.151C153.873 133 153.288 132.936 152.703 132.96C150.072 133.057 147.44 133.181 144.808 133.278C144.274 133.298 143.736 133.239 143.139 133.215C143.037 127.603 142.937 122.146 142.835 116.628C143.954 116.539 144.932 116.442 145.913 116.39C146.894 116.337 147.897 116.348 148.89 116.301C149.815 116.257 150.769 116.417 151.645 115.875H142.739Z" fill="#7D318B"/>
<path fill-rule="evenodd" clip-rule="evenodd" d="M142.742 115.867H151.642C150.76 116.42 149.807 116.249 148.887 116.293C147.895 116.34 146.903 116.329 145.911 116.382C144.918 116.434 143.951 116.531 142.832 116.62C142.934 122.154 143.034 127.594 143.136 133.206C143.734 133.231 144.271 133.289 144.806 133.27C147.437 133.173 150.069 133.049 152.7 132.952C153.285 132.928 153.871 132.992 154.436 133.143C153.185 133.669 151.868 133.439 150.579 133.569C149.289 133.699 147.991 133.713 146.699 133.785C145.406 133.857 144.059 133.948 142.59 134.037C142.281 120.682 141.978 107.526 141.672 94.2825L154.77 93.9089C154.77 94.0003 154.792 94.0888 154.806 94.1857C153.885 94.5814 152.877 94.4098 151.893 94.5094C150.821 94.6201 149.744 94.6948 148.666 94.7585C147.633 94.8221 146.597 94.8719 145.563 94.8941C144.53 94.9162 143.51 94.8941 142.317 94.8941C142.466 101.953 142.598 108.863 142.742 115.867Z" fill="#F97716"/>
<path fill-rule="evenodd" clip-rule="evenodd" d="M103.193 114.234C103.229 118.067 103.193 122.71 102.143 127.26C101.76 128.857 101.253 130.423 100.627 131.942C99.4949 134.742 97.4172 136.369 94.3667 136.677C92.3464 136.91 90.3004 136.756 88.3374 136.223C86.2789 135.636 84.9341 134.302 84.0551 132.382C82.6442 129.302 82.0821 126.017 81.7734 122.696C81.1011 115.502 81.2223 108.337 82.4623 101.206C82.8817 99.0362 83.5656 96.9265 84.4988 94.9245C84.846 94.106 85.3612 93.3702 86.0107 92.7651C86.6603 92.16 87.4296 91.6992 88.2685 91.4129C91.7461 90.1206 94.9922 90.6104 97.9765 92.6914C98.7509 93.231 99.3378 94.1386 99.8201 94.9882C101.923 98.6824 102.782 102.72 102.939 106.934C103.019 109.096 103.091 111.262 103.193 114.234ZM99.5307 115.197C99.4189 111.245 99.0766 107.302 98.5056 103.389C98.1639 101.004 97.2628 98.8568 96.0669 96.7481C94.8076 94.5343 90.0927 94.5343 88.7562 96.3303C87.6838 97.6936 86.8931 99.2581 86.4304 100.932C85.7914 103.5 85.4611 106.136 85.4467 108.783C85.4164 111.774 85.5183 114.766 85.5872 117.757C85.6589 120.97 85.8628 124.177 86.8521 127.257C87.2528 128.489 87.7753 129.677 88.4117 130.804C89.5829 132.869 93.281 133.458 95.1575 131.776C96.2433 130.804 97.2243 129.781 97.7037 128.397C98.1419 127.135 98.6241 125.843 98.7729 124.523C99.1256 121.424 99.291 118.308 99.5307 115.197Z" fill="#7D318B"/>
<path fill-rule="evenodd" clip-rule="evenodd" d="M99.5307 115.197C99.2909 118.308 99.1256 121.424 98.7729 124.52C98.6241 125.835 98.1418 127.127 97.7037 128.394C97.2242 129.778 96.2432 130.802 95.1575 131.773C93.2809 133.455 89.5829 132.866 88.4117 130.802C87.7753 129.674 87.2528 128.486 86.852 127.254C85.8517 124.174 85.6588 120.967 85.5872 117.754C85.5183 114.763 85.4163 111.771 85.4467 108.78C85.4611 106.133 85.7913 103.497 86.4304 100.929C86.893 99.2553 87.6837 97.6908 88.7562 96.3275C90.0926 94.5233 94.8186 94.5177 96.0669 96.7453C97.2628 98.8623 98.1639 101.01 98.5056 103.387C99.0767 107.3 99.419 111.244 99.5307 115.197ZM99.0236 116.066C98.9906 111.514 98.1474 104.839 97.5356 101.843C97.1455 99.9296 96.3307 98.1296 95.152 96.5765C94.922 96.2336 94.6159 95.9488 94.2577 95.7448C93.8996 95.5407 93.4992 95.4228 93.088 95.4005C91.4346 95.3313 89.9246 95.5776 88.9546 97.1798C88.1519 98.4617 87.5549 99.8625 87.1855 101.331C86.4249 104.466 86.1934 107.662 86.1659 110.869C86.1438 113.554 86.334 116.238 86.3615 118.922C86.3771 121.611 86.7307 124.286 87.4142 126.886C87.8055 128.355 88.285 129.794 89.266 130.998C89.9022 131.742 90.7879 132.227 91.7556 132.36C92.7234 132.493 93.7061 132.266 94.5182 131.72C95.6563 130.89 96.6593 129.936 97.1415 128.577C97.5714 127.359 98.1005 126.131 98.2576 124.866C98.6213 121.941 98.7812 118.991 99.0236 116.066Z" fill="#F97716"/>
<path fill-rule="evenodd" clip-rule="evenodd" d="M99.0236 116.066C98.7811 118.996 98.6213 121.941 98.2575 124.857C98.1004 126.122 97.5714 127.348 97.1415 128.568C96.6592 129.927 95.6562 130.893 94.5181 131.712C93.706 132.26 92.7218 132.49 91.7522 132.358C90.7826 132.226 89.895 131.741 89.2576 130.995C88.2766 129.791 87.7971 128.352 87.4058 126.883C86.7224 124.283 86.3687 121.608 86.3532 118.919C86.3256 116.235 86.1355 113.551 86.1575 110.866C86.1851 107.659 86.4166 104.463 87.1771 101.328C87.5465 99.8595 88.1435 98.4588 88.9462 97.1768C89.9245 95.5746 91.4428 95.3283 93.0797 95.3975C93.4925 95.4189 93.8947 95.5366 94.2544 95.7412C94.6141 95.9458 94.9214 96.2318 95.1519 96.5763C96.3345 98.1257 97.1539 99.9228 97.5493 101.834C98.1473 104.839 98.9905 111.519 99.0236 116.066ZM94.8433 113.562V113.349C94.8433 110.925 94.7193 108.708 94.598 106.289C94.5236 104.792 94.1709 103.301 93.8678 101.823C93.8133 101.474 93.6419 101.154 93.3818 100.916C93.1218 100.678 92.7887 100.536 92.4376 100.514C91.7101 100.456 91.4153 101.068 91.1452 101.621C90.9178 102.039 90.7482 102.486 90.6409 102.949C90.3957 104.222 90.0898 105.501 90.0347 106.787C89.8253 112.72 89.9327 118.648 90.7126 124.545C90.7821 125.276 90.9036 126.001 91.0763 126.714C91.2665 127.378 91.5861 128.098 92.4128 128.098C93.2395 128.098 93.5895 127.367 93.7769 126.714C94.0786 125.724 94.2699 124.703 94.3473 123.67C94.5567 120.308 94.6835 116.935 94.8433 113.562Z" fill="#7D318B"/>
<path fill-rule="evenodd" clip-rule="evenodd" d="M25.4703 137.996C25.2293 138.101 24.9768 138.176 24.718 138.22C22.869 138.339 21.0172 138.436 19.1655 138.539C18.6497 138.585 18.1318 138.603 17.614 138.594C16.8314 138.55 16.5118 138.157 16.8755 137.487C17.5782 136.189 17.4625 134.831 17.4763 133.439C17.5231 129.363 17.716 125.289 17.7518 121.213C17.7876 117.137 17.7518 112.978 17.6691 108.86C17.592 104.394 17.4349 99.9303 17.3412 95.464C17.3247 94.6006 17.49 93.7372 17.4763 92.8766C17.4592 92.3213 17.3551 91.7722 17.1676 91.2495C16.901 90.5979 16.6012 89.9606 16.2693 89.3401C17.3715 88.9942 18.449 89.2183 19.4796 89.1076C20.5102 88.9969 21.5408 88.8669 22.5742 88.8586C23.6075 88.8503 24.7125 88.9665 26.0022 89.044C25.8341 89.4895 25.7983 89.8354 25.6081 90.054C24.7566 91.0447 24.6106 92.135 24.685 93.4328C24.8889 96.9776 24.9605 100.534 24.9936 104.089C25.0239 106.992 24.9275 109.901 24.9109 112.801C24.8889 116.398 24.8972 119.995 24.8806 123.593C24.8613 127.406 24.7869 131.222 24.831 135.035C24.8393 135.965 25.2168 136.876 25.4703 137.996ZM21.1412 135.871C21.2441 135.856 21.3448 135.829 21.4416 135.791C21.478 135.765 21.5036 135.727 21.5133 135.683C21.4251 125.381 20.7114 115.086 21.2129 104.776C21.4113 100.713 21.2129 96.6345 21.2129 92.5639C21.2129 92.5252 21.1743 92.4892 21.1523 92.4504L20.8932 92.6054C20.637 106.937 20.3917 121.374 21.1412 135.871Z" fill="#7D318B"/>
<path fill-rule="evenodd" clip-rule="evenodd" d="M21.1412 135.871C20.4 121.379 20.637 106.942 20.885 92.6054L21.144 92.4504C21.166 92.4892 21.2046 92.5252 21.2046 92.5639C21.2212 96.6345 21.4113 100.713 21.2046 104.776C20.7031 115.086 21.4168 125.381 21.505 135.683C21.4953 135.727 21.4698 135.765 21.4333 135.791C21.3392 135.828 21.2412 135.855 21.1412 135.871Z" fill="#F97716"/>
<path fill-rule="evenodd" clip-rule="evenodd" d="M29.8271 136.798C29.8078 136.447 29.7885 136.389 29.8078 136.364C31.0423 134.795 31.0423 132.999 31.0175 131.089C30.9128 122.553 30.9431 114.013 30.9128 105.476C30.9128 102.271 30.8604 99.0643 30.8411 95.8598C30.8411 94.1801 30.6234 92.5723 29.1492 91.1887C29.6507 91.0199 29.9759 90.8234 30.3203 90.8096C32.5992 90.7293 34.8781 90.7155 37.1543 90.6297C42.1144 90.4416 45.7932 92.4533 48.1465 96.9141C50.8277 102 50.8112 107.3 49.5381 112.715C48.7114 116.232 47.0194 119.273 44.1839 121.54C42.8474 122.605 41.3235 123.438 39.7143 124.49C39.7143 126.2 39.7143 128.142 39.7143 130.085C39.7143 130.865 39.7611 131.646 39.7639 132.426C39.7639 133.491 39.9237 134.499 40.6815 135.321C40.7701 135.416 40.8427 135.525 40.8964 135.644C41.2023 136.331 40.9322 136.715 40.1662 136.699C38.0967 136.66 36.0327 136.585 33.9605 136.593C32.974 136.593 31.9902 136.776 31.001 136.845C30.6091 136.851 30.2172 136.836 29.8271 136.798ZM34.3904 94.7363C34.3463 95.3617 34.2967 95.8736 34.2774 96.3966C34.225 97.9131 34.1534 99.4406 34.1451 100.946C34.1231 104.978 34.09 109.01 34.1451 113.039C34.1754 115.554 34.4069 118.064 34.451 120.577C34.5226 124.611 34.5089 128.643 34.5502 132.678C34.5502 133.049 34.3435 133.536 35.0269 133.873V121.667C35.1401 121.601 35.2603 121.547 35.3852 121.507C41.1582 120.986 44.9004 116.971 46.427 111.799C47.2537 109.015 47.2922 106.137 46.8789 103.287C46.4435 100.285 45.1401 97.7249 42.3238 96.2749C39.8961 95.0241 37.2369 94.7723 34.3904 94.7501V94.7363Z" fill="#7D318B"/>
<path fill-rule="evenodd" clip-rule="evenodd" d="M34.3902 94.75C37.2368 94.7721 39.9015 95.0267 42.3209 96.2747C45.1372 97.7248 46.4406 100.284 46.876 103.287C47.2893 106.137 47.2452 109.015 46.424 111.799C44.8974 116.971 41.1553 120.986 35.3822 121.506C35.2573 121.547 35.1372 121.6 35.024 121.667V133.881C34.3406 133.544 34.5528 133.051 34.5473 132.686C34.5059 128.651 34.5197 124.62 34.4481 120.585C34.404 118.072 34.1725 115.562 34.1422 113.047C34.0898 109.018 34.1229 104.986 34.1422 100.954C34.1422 99.4377 34.2221 97.9102 34.2745 96.4048C34.2965 95.8873 34.3461 95.3754 34.3902 94.75ZM34.765 95.0904C34.7374 103.946 34.3737 112.549 35.0405 121.304C37.5977 120.798 40.0007 120.109 41.7808 118.216C42.9849 116.978 44.0057 115.573 44.812 114.043C46.7189 110.216 46.9283 106.093 45.9583 102.006C45.1978 98.804 43.1779 96.5515 39.7912 95.8929C38.2095 95.5774 36.5919 95.3782 34.765 95.0904Z" fill="#F97716"/>
<path fill-rule="evenodd" clip-rule="evenodd" d="M34.7649 95.0903C36.5919 95.3671 38.2095 95.5774 39.805 95.8928C43.1916 96.5514 45.2115 98.804 45.9721 102.006C46.9421 106.093 46.7326 110.216 44.8257 114.043C44.0195 115.573 42.9987 116.978 41.7945 118.216C40.0199 120.109 37.6115 120.798 35.0543 121.304C34.3736 112.549 34.7374 103.948 34.7649 95.0903ZM39.0885 115.275L39.3971 115.374C39.8888 114.967 40.3494 114.523 40.775 114.046C43.1889 110.919 43.492 107.405 42.4697 103.721C42.0233 102.116 40.2211 100.376 38.8129 100.005C38.9011 105.098 38.993 110.188 39.0885 115.275Z" fill="#7D318B"/>
<path fill-rule="evenodd" clip-rule="evenodd" d="M78.2186 138.085C75.3692 138.243 72.7982 138.423 70.1418 138.201C70.985 136.308 70.9685 136.308 70.9685 134.155C70.952 132.205 70.9492 130.254 70.9409 128.3C70.9409 127.832 70.9409 127.362 70.9409 126.792H62.5142C62.4922 127.113 62.4453 127.406 62.4536 127.697C62.506 129.819 62.5748 131.942 62.6272 134.061C62.6823 136.306 62.6768 136.306 64.0353 138.049C61.0372 138.749 58.0859 138.674 55.0795 138.486C55.0795 138.265 55.0327 138.115 55.0795 138.027C55.6885 137.011 55.7133 135.918 55.683 134.767C55.5507 129.435 55.446 124.102 55.4075 118.77C55.3579 112.698 55.4075 106.624 55.3716 100.553C55.3716 99.1223 55.2338 97.6944 55.2035 96.2637C55.2002 95.616 55.2407 94.9688 55.3248 94.3266C55.4874 92.8822 55.4157 91.5594 54.0131 90.6573C53.7926 90.5162 53.6824 90.2035 53.5171 89.9572C54.0489 89.3152 54.7268 89.3401 55.3496 89.2931C57.6726 89.1215 59.9956 88.9887 62.3213 88.8503C62.5796 88.8293 62.8395 88.8461 63.0929 88.9001C63.7405 89.0551 63.9003 89.5061 63.5007 90.054C63.3244 90.2976 63.035 90.4691 62.8973 90.7265C62.6823 91.1333 62.4123 91.5843 62.4123 92.016C62.4123 101.386 62.426 110.756 62.4536 120.126C62.473 120.303 62.5062 120.479 62.5528 120.651H71.0126C71.0126 120.167 71.0126 119.661 71.0126 119.154C70.9547 116.077 70.9051 113.003 70.8362 109.928C70.748 106.027 70.6378 102.122 70.5607 98.2201C70.5248 97.3974 70.5358 96.5733 70.5937 95.7518C70.6764 94.8469 70.5717 94.0416 69.9682 93.3194C69.7798 93.0128 69.6281 92.6849 69.5163 92.3425C69.9379 92.2236 70.2162 92.0658 70.489 92.0824C72.7293 92.1433 74.9669 92.2042 77.2045 92.3287C78.1579 92.3813 78.326 92.7881 77.7391 93.5878C77.3351 94.1487 77.1401 94.8343 77.188 95.5249C77.3064 103.896 77.3919 112.267 77.4938 120.638C77.5434 124.757 77.6004 128.877 77.6647 132.999C77.6785 133.259 77.6785 133.519 77.6647 133.779C77.5379 135.185 77.2238 136.604 78.2186 138.085ZM58.9154 124.182C58.8823 113.249 58.8492 102.559 58.8189 91.8693H58.5213C58.3091 106.671 58.1025 121.479 59.3921 136.247C59.6677 132.318 59.0945 128.4 59.0752 124.326C64.0133 124.489 68.764 123.972 73.5781 124.094C73.6304 125.234 73.6745 126.227 73.7241 127.218C73.7765 128.258 73.8344 129.296 73.895 130.337C73.9528 131.33 73.9666 132.332 74.0934 133.32C74.2201 134.308 73.8784 135.315 74.4433 136.245C74.6057 135.581 74.6643 134.896 74.617 134.214C74.537 132.57 74.391 130.926 74.3414 129.28C74.1788 124.556 73.9501 119.832 73.9308 115.109C73.9032 108.744 74.0493 102.36 74.1182 95.987C74.1182 95.5996 74.0796 95.2149 74.0576 94.8275L73.7131 94.8441C73.6047 104.437 73.4963 114.047 73.3879 123.673L58.9154 124.182Z" fill="#7D318B"/>
<path fill-rule="evenodd" clip-rule="evenodd" d="M58.9154 124.182L73.3825 123.676C73.4927 114.051 73.6011 104.442 73.7076 94.8468L74.0521 94.8302C74.0741 95.2177 74.1155 95.6023 74.1127 95.9897C74.0438 102.354 73.8978 108.738 73.9253 115.111C73.9446 119.835 74.1733 124.559 74.3359 129.282C74.391 130.929 74.5371 132.573 74.6115 134.216C74.6588 134.898 74.6002 135.583 74.4379 136.247C73.8867 135.318 74.2091 134.291 74.0879 133.322C73.9666 132.354 73.9474 131.333 73.8895 130.339C73.8289 129.299 73.771 128.261 73.7186 127.221C73.669 126.23 73.6249 125.237 73.5726 124.097C68.7585 123.975 64.0078 124.492 59.0697 124.329C59.089 128.402 59.6594 132.321 59.3866 136.25C58.1025 121.481 58.3092 106.674 58.5213 91.8721H58.8189C58.8493 102.559 58.8823 113.249 58.9154 124.182Z" fill="#F97716"/>
<path fill-rule="evenodd" clip-rule="evenodd" d="M116.693 117.685C116.598 118.032 116.532 118.387 116.494 118.745C116.475 121.993 116.456 125.242 116.47 128.491C116.47 130.486 116.494 132.481 116.607 134.471C116.649 135.174 116.982 135.855 117.203 136.555C117.315 136.851 117.443 137.141 117.586 137.424C115.646 137.957 113.614 138.059 111.631 137.722C110.528 137.559 109.321 137.958 108.131 137.302C108.332 137.042 108.509 136.764 108.66 136.472C108.883 135.918 109.225 135.365 109.225 134.811C109.211 131.693 109.115 128.571 109.038 125.452C108.999 123.848 108.922 122.245 108.9 120.64C108.828 115.742 108.803 110.844 108.699 105.946C108.619 102.222 108.437 98.5024 108.324 94.7777C108.305 94.0665 107.891 93.6847 107.362 93.3554C106.938 93.0786 106.365 92.9762 106.348 92.2485C106.731 91.7974 107.282 91.9302 107.767 91.9358C109.451 91.9634 111.135 92.0492 112.818 92.0797C113.678 92.0963 114.538 92.0409 115.398 92.0271C115.87 91.9883 116.345 91.9938 116.817 92.0437C117.368 92.1433 117.643 92.7134 117.255 93.1146C116.238 94.1828 116.61 95.2565 117.09 96.355C119.459 101.795 121.833 107.238 124.21 112.682C124.351 112.902 124.51 113.11 124.684 113.304V111.755C124.684 107.853 124.684 103.951 124.684 100.049C124.684 97.8798 124.626 95.7103 124.684 93.5435C124.722 92.5876 124.397 91.6528 123.775 90.9285C123.538 90.6518 123.326 90.3363 122.926 89.8022C124.185 89.6611 125.18 89.5034 126.183 89.448C128.162 89.3373 130.141 89.2626 132.122 89.2239C132.488 89.2239 132.863 89.4563 133.472 89.6611C131.885 91.1969 132.146 93.015 132.122 94.7058C132.083 97.3485 132.265 99.9912 132.306 102.637C132.353 105.8 132.35 108.965 132.367 112.131C132.367 114.381 132.367 116.636 132.394 118.889C132.429 122.578 132.475 126.268 132.532 129.958C132.56 131.69 132.618 133.423 132.706 135.157C132.764 135.626 132.865 136.09 133.006 136.541C133.194 137.307 133.047 137.606 132.281 137.728C131.601 137.839 130.904 137.847 130.217 137.911C129.057 138.016 127.9 138.146 126.74 138.24C126.396 138.272 126.05 138.252 125.712 138.182C125.02 138.027 124.822 137.742 125.075 137.075C125.181 136.816 125.23 136.538 125.219 136.258C125.208 135.979 125.136 135.705 125.009 135.456C122.369 129.711 119.732 123.964 117.098 118.213C116.979 118.026 116.843 117.849 116.693 117.685ZM129.046 129.144C128.969 116.899 128.895 104.792 128.823 92.6912C128.145 98.7017 128.592 104.72 128.528 110.736C128.465 116.752 128.388 122.757 128.779 128.856L127.374 128.931C127.292 128.827 127.219 128.717 127.153 128.602C123.584 120.566 120.019 112.529 116.459 104.491C115.99 103.439 115.45 102.421 114.984 101.477L111.848 101.726C111.848 102.999 111.826 104.217 111.848 105.415C111.978 111.226 112.088 117.037 112.27 122.849C112.386 126.573 112.603 130.298 112.791 134.02C112.83 134.309 112.896 134.593 112.989 134.869L113.251 134.811C113.094 131.183 112.915 127.556 112.794 123.928C112.672 120.245 112.565 116.559 112.537 112.873C112.507 109.25 112.094 105.631 112.295 101.923H114.841L126.88 129.318L129.046 129.144Z" fill="#7D318B"/>
<path fill-rule="evenodd" clip-rule="evenodd" d="M129.046 129.144L126.886 129.316L114.846 101.92H112.3C112.099 105.628 112.512 109.248 112.543 112.87C112.57 116.556 112.678 120.242 112.799 123.925C112.92 127.553 113.099 131.181 113.256 134.809L112.995 134.867C112.902 134.59 112.835 134.306 112.796 134.017C112.609 130.295 112.391 126.571 112.275 122.846C112.094 117.035 111.983 111.223 111.854 105.412C111.826 104.203 111.854 102.997 111.854 101.724L114.99 101.475C115.455 102.418 115.996 103.436 116.464 104.488C120.035 112.52 123.6 120.557 127.159 128.599C127.224 128.714 127.298 128.824 127.379 128.928L128.784 128.854C128.393 122.766 128.47 116.747 128.534 110.734C128.597 104.72 128.137 98.7018 128.823 92.7024C128.895 104.792 128.964 116.899 129.046 129.144Z" fill="#F97716"/>
<path fill-rule="evenodd" clip-rule="evenodd" d="M179.392 97.3569C177.314 97.3181 175.33 97.2047 173.354 97.2932C172.751 97.3209 172.153 97.8827 171.588 98.2535C171.312 98.4333 171.136 98.7405 170.728 99.1999C170.592 98.7478 170.494 98.2849 170.436 97.8162C170.375 95.3008 170.342 92.7882 170.312 90.2728C170.344 90.1197 170.399 89.9724 170.474 89.8355C172.034 90.7238 173.69 90.591 175.382 90.555C179.05 90.4803 182.723 90.6242 186.391 90.5938C188.369 90.5772 190.351 90.4222 192.324 90.2534C192.905 90.2008 193.473 89.9103 194.032 89.6999C194.765 89.4232 195.159 89.6169 195.134 90.3613C195.046 92.0881 194.906 93.8148 194.782 95.5416C194.716 96.4741 194.641 97.4067 194.559 98.4804C194.335 98.3876 194.123 98.2687 193.928 98.1262C193.331 97.5454 192.529 97.2251 191.698 97.2351C190.191 97.1936 188.667 97.2351 187.102 97.2351C187.037 97.5402 186.99 97.8488 186.961 98.1594C186.826 102.927 186.686 107.695 186.584 112.466C186.553 114.112 186.7 115.762 186.694 117.408C186.68 120.574 186.576 123.74 186.581 126.905C186.581 129.418 186.633 131.936 186.788 134.443C186.835 135.213 187.297 135.957 187.592 136.779C184.751 137.537 181.806 137.119 178.893 137.103C178.849 136.942 178.783 136.826 178.813 136.784C179.744 135.523 179.819 134.078 179.799 132.578C179.736 128.151 179.714 123.723 179.695 119.296C179.67 114.179 179.695 109.057 179.645 103.946C179.618 101.834 179.488 99.709 179.392 97.3569ZM192.506 93.92V93.5187C192.054 93.3029 191.56 93.4163 191.067 93.4496C189.218 93.5741 187.369 93.7678 185.517 93.7816C182.241 93.801 178.964 93.6848 175.688 93.6737C174.773 93.6737 173.861 93.8259 172.932 93.9089C172.932 94.0002 172.932 94.0888 172.946 94.1856H182.974C182.875 98.865 182.718 103.409 182.698 107.953C182.679 112.496 182.77 117.051 182.869 121.598C182.968 126.144 183.145 130.644 183.288 135.157C183.404 135.157 183.52 135.157 183.635 135.157C183.784 128.347 183.36 121.543 183.249 114.735C183.139 107.928 183.346 101.073 183.42 94.277L192.506 93.92Z" fill="#7D318B"/>
<path fill-rule="evenodd" clip-rule="evenodd" d="M192.511 93.9198L183.418 94.2685C183.343 101.065 183.142 107.892 183.247 114.727C183.351 121.562 183.781 128.339 183.633 135.149C183.517 135.149 183.401 135.149 183.285 135.149C183.142 130.63 182.968 126.106 182.866 121.589C182.764 117.073 182.676 112.493 182.696 107.944C182.715 103.395 182.872 98.8566 182.971 94.1772H172.974C172.974 94.0859 172.974 93.9973 172.96 93.9005C173.875 93.8174 174.787 93.6597 175.716 93.6652C178.992 93.6652 182.268 93.7925 185.545 93.7732C187.397 93.7732 189.246 93.5656 191.095 93.4411C191.588 93.4079 192.081 93.2944 192.533 93.5103L192.511 93.9198Z" fill="#F97716"/>
<path fill-rule="evenodd" clip-rule="evenodd" d="M290.182 89.9767C289.906 90.2673 289.675 90.5578 289.402 90.8069C288.516 91.6426 287.893 92.7198 287.608 93.9062C286.186 99.3964 284.723 104.875 283.309 110.368C282.706 112.715 282.171 115.073 281.634 117.444C281.558 117.871 281.532 118.304 281.557 118.737C281.65 123.676 281.738 128.616 281.86 133.555C281.884 134.604 282.075 135.625 283.083 136.273C283.304 136.414 283.419 136.726 283.722 137.155C283.237 137.282 282.744 137.375 282.245 137.432C279.531 137.526 276.814 137.592 274.1 137.664C273.447 137.684 273.447 137.664 272.874 136.973C272.896 136.89 272.874 136.784 272.94 136.729C274.342 135.207 274.499 133.361 274.453 131.397C274.345 126.933 274.342 122.47 274.279 118.003C274.279 117.529 274.211 117.058 274.078 116.603C271.917 109.524 269.749 102.449 267.572 95.3756C267.478 95.0193 267.314 94.6854 267.089 94.3937C266.865 94.1019 266.585 93.8581 266.266 93.6765C265.925 93.4327 265.606 93.1616 265.309 92.8657C266.015 92.6305 266.475 92.3593 266.946 92.3399C269.66 92.2292 272.375 92.1683 275.092 92.1158C275.444 92.1466 275.792 92.2171 276.128 92.3261C276.128 92.5696 276.144 92.6914 276.098 92.7301C275.359 93.4136 275.348 94.158 275.723 95.0656C276.365 96.6264 276.897 98.2286 277.484 99.8142C277.592 100.039 277.717 100.257 277.856 100.465C278.846 97.7902 279.584 95.0284 280.06 92.2154C280.137 91.8771 280.13 91.5252 280.041 91.1901C279.952 90.8549 279.782 90.5467 279.548 90.2922C278.997 89.6778 279.189 89.26 280.008 89.2074C281.127 89.1327 282.251 89.1161 283.372 89.1299C285.183 89.1493 286.993 89.2129 288.804 89.26C289.341 89.2738 289.823 89.3817 290.182 89.9767ZM278.156 135.318H278.556C278.556 134.955 278.556 134.593 278.556 134.233C278.525 131.892 278.501 129.554 278.465 127.213C278.404 123.141 278.338 119.07 278.266 114.998C278.233 113.097 278.266 111.207 278.856 109.369C279.093 108.628 279.291 107.875 279.534 107.134C281.018 102.612 282.506 98.0921 283.998 93.5741C284.07 93.3132 284.125 93.0479 284.163 92.7799L283.937 92.7163C281.926 98.6769 279.911 104.637 277.828 110.817C277.079 108.863 276.409 107.092 275.717 105.329C275.026 103.567 274.298 101.796 273.59 100.027C272.909 98.3227 272.287 96.5904 271.358 94.9992C271.35 95.3059 271.405 95.6109 271.518 95.8958C273.359 100.752 275.219 105.603 277.029 110.465C277.393 111.431 277.825 112.438 277.856 113.44C277.988 116.6 277.958 119.769 277.971 122.932C277.988 126.831 277.988 130.733 278.005 134.634C278.033 134.867 278.083 135.096 278.156 135.318Z" fill="#7D318B"/>
<path fill-rule="evenodd" clip-rule="evenodd" d="M278.156 135.318C278.089 135.093 278.045 134.862 278.024 134.629C278.007 130.727 278.007 126.825 277.991 122.926C277.991 119.763 278.007 116.595 277.875 113.435C277.834 112.433 277.401 111.425 277.048 110.46C275.23 105.598 273.37 100.747 271.537 95.8902C271.424 95.6053 271.369 95.3003 271.377 94.9937C272.306 96.5848 272.929 98.3143 273.609 100.022C274.317 101.79 275.039 103.55 275.737 105.324C276.434 107.098 277.098 108.858 277.847 110.811C279.931 104.632 281.945 98.6713 283.957 92.7107L284.183 92.7743C284.144 93.0424 284.089 93.3076 284.017 93.5685C282.533 98.0939 281.045 102.614 279.553 107.128C279.311 107.87 279.112 108.622 278.875 109.364C278.286 111.201 278.252 113.091 278.286 114.992C278.357 119.064 278.423 123.136 278.484 127.207C278.52 129.548 278.545 131.886 278.575 134.227C278.575 134.587 278.575 134.95 278.575 135.312L278.156 135.318Z" fill="#F97716"/>
<path fill-rule="evenodd" clip-rule="evenodd" d="M217.645 113.899C217.681 117.732 217.645 122.375 216.598 126.925C216.215 128.522 215.708 130.088 215.082 131.607C213.947 134.407 211.872 136.034 208.819 136.341C206.8 136.575 204.754 136.421 202.792 135.888C200.731 135.304 199.389 133.967 198.507 132.047C197.096 128.97 196.537 125.682 196.226 122.361C195.553 115.167 195.675 107.999 196.917 100.868C197.336 98.6971 198.021 96.5863 198.956 94.5839C199.303 93.7653 199.817 93.0293 200.467 92.4242C201.116 91.8191 201.885 91.3584 202.723 91.0723C206.204 89.78 209.45 90.2698 212.434 92.3508C213.209 92.8904 213.793 93.8008 214.278 94.6476C216.38 98.3418 217.24 102.396 217.397 106.597C217.474 108.752 217.543 110.927 217.645 113.899ZM213.983 114.862C213.874 110.909 213.531 106.967 212.958 103.054C212.616 100.669 211.718 98.5245 210.519 96.4131C209.263 94.1855 204.545 94.1993 203.208 95.9952C202.14 97.3576 201.351 98.9188 200.885 100.589C200.247 103.157 199.918 105.793 199.904 108.439C199.871 111.431 199.973 114.422 200.042 117.414C200.117 120.626 200.318 123.836 201.31 126.916C201.71 128.148 202.233 129.337 202.869 130.464C204.038 132.525 207.739 133.115 209.613 131.432C210.698 130.461 211.682 129.437 212.161 128.054C212.6 126.792 213.082 125.499 213.231 124.18C213.581 121.089 213.743 117.973 213.983 114.862Z" fill="#7D318B"/>
<path fill-rule="evenodd" clip-rule="evenodd" d="M213.983 114.862C213.743 117.973 213.581 121.088 213.228 124.185C213.079 125.499 212.597 126.792 212.159 128.059C211.679 129.443 210.695 130.467 209.61 131.438C207.736 133.12 204.035 132.545 202.867 130.469C202.23 129.342 201.708 128.154 201.307 126.922C200.307 123.842 200.114 120.632 200.039 117.419C199.971 114.428 199.869 111.436 199.902 108.445C199.916 105.796 200.246 103.159 200.885 100.589C201.35 98.9156 202.141 97.3515 203.211 95.9869C204.548 94.1827 209.274 94.1771 210.522 96.4048C211.721 98.5245 212.619 100.669 212.961 103.046C213.534 106.961 213.875 110.907 213.983 114.862ZM213.479 115.731C213.443 111.179 212.6 104.504 211.991 101.51C211.603 99.5924 210.788 97.7874 209.607 96.2304C209.377 95.8877 209.071 95.6032 208.713 95.3996C208.354 95.196 207.954 95.0788 207.543 95.0571C205.89 94.9852 204.38 95.2315 203.41 96.8337C202.606 98.1155 202.008 99.5162 201.638 100.985C200.88 104.12 200.648 107.316 200.621 110.523C200.599 113.207 200.789 115.892 200.814 118.576C200.83 121.265 201.185 123.94 201.869 126.54C202.261 128.009 202.737 129.451 203.721 130.652C204.358 131.398 205.246 131.882 206.216 132.015C207.185 132.147 208.169 131.917 208.981 131.369C210.117 130.539 211.12 129.584 211.602 128.225C212.035 127.008 212.564 125.779 212.721 124.514C213.074 121.606 213.236 118.662 213.479 115.731Z" fill="#F97716"/>
<path fill-rule="evenodd" clip-rule="evenodd" d="M213.479 115.731C213.236 118.662 213.074 121.606 212.713 124.523C212.556 125.787 212.026 127.013 211.594 128.234C211.112 129.592 210.109 130.558 208.973 131.377C208.161 131.925 207.177 132.155 206.207 132.023C205.238 131.891 204.35 131.406 203.713 130.66C202.729 129.459 202.252 128.018 201.861 126.548C201.177 123.949 200.822 121.273 200.806 118.584C200.781 115.9 200.591 113.216 200.613 110.532C200.64 107.324 200.872 104.128 201.629 100.993C202 99.5246 202.598 98.1238 203.401 96.842C204.38 95.2398 205.898 94.9935 207.535 95.0655C207.946 95.0871 208.346 95.2043 208.704 95.4079C209.063 95.6116 209.369 95.896 209.599 96.2388C210.78 97.7957 211.594 99.6007 211.982 101.519C212.6 104.504 213.443 111.179 213.479 115.731ZM209.296 113.241V112.994C209.296 110.57 209.172 108.387 209.053 105.968C208.979 104.471 208.626 102.98 208.32 101.502C208.269 101.15 208.1 100.826 207.84 100.585C207.58 100.343 207.246 100.198 206.893 100.174C206.165 100.118 205.868 100.727 205.598 101.281C205.371 101.7 205.202 102.147 205.093 102.612C204.851 103.882 204.542 105.163 204.487 106.447C204.28 112.38 204.388 118.307 205.168 124.204C205.234 124.936 205.356 125.661 205.531 126.374C205.722 127.038 206.038 127.758 206.865 127.758C207.692 127.758 208.045 127.027 208.243 126.374C208.543 125.383 208.735 124.363 208.813 123.33C209.012 119.973 209.152 116.6 209.296 113.23V113.241Z" fill="#7D318B"/>
<path fill-rule="evenodd" clip-rule="evenodd" d="M220.605 90.6546C224.002 90.4415 227.218 90.0375 230.437 90.6878C233.327 91.2717 235.521 92.9292 237.353 95.1762C239.53 97.8466 240.575 100.974 241.129 104.308C241.768 107.939 242.041 111.625 241.944 115.311C241.793 119.998 240.833 124.623 239.106 128.981C238.088 131.639 236.183 133.86 233.716 135.265C232.151 136.164 230.431 136.339 228.72 136.419C226.482 136.521 224.237 136.419 221.994 136.397C221.189 136.397 220.938 135.924 221.442 135.326C222.156 134.496 222.291 133.574 222.269 132.559C222.098 127.104 221.938 121.649 221.787 116.193C221.787 115.978 221.751 115.762 221.748 115.546C221.66 109.176 221.576 102.806 221.495 96.4381C221.495 95.4862 221.495 94.5315 221.544 93.5795C221.577 92.7328 221.544 91.9192 220.809 91.3381C220.698 91.244 220.707 91.0226 220.605 90.6546ZM226.576 133.085C229.257 132.957 231.638 132.149 233.562 130.16C235.031 128.617 236.127 126.756 236.764 124.719C238.985 117.884 239.464 110.966 237.207 104.026C236.064 100.514 234.419 97.271 230.96 95.4142C230.161 94.9881 229.307 94.6422 228.527 94.2022C227.499 93.6321 226.397 93.6487 225.121 93.6127C225.088 98.0791 225 102.487 225.041 106.895C225.083 111.359 225.248 115.823 225.366 120.286C225.479 124.68 225.603 129.075 225.727 133.619L226.612 133.065L226.576 133.085Z" fill="#7D318B"/>
<path fill-rule="evenodd" clip-rule="evenodd" d="M226.612 133.054L225.727 133.607C225.603 129.064 225.479 124.669 225.367 120.275C225.248 115.811 225.091 111.348 225.041 106.884C225 102.479 225.088 98.0706 225.121 93.6016C226.397 93.6292 227.499 93.6209 228.527 94.191C229.318 94.631 230.161 94.9769 230.96 95.403C234.419 97.2598 236.064 100.503 237.207 104.015C239.456 110.933 238.985 117.865 236.764 124.708C236.127 126.744 235.031 128.606 233.562 130.148C231.633 132.138 229.257 132.946 226.579 133.071C227.037 132.87 227.511 132.707 227.995 132.584C231.027 132.03 233.212 130.339 234.664 127.702C235.409 126.336 236.026 124.902 236.508 123.421C237.61 120.054 237.756 116.536 237.885 113.019C238.009 109.444 237.249 106.046 236.034 102.728C234.551 98.6877 231.928 95.7572 227.786 94.3293C227.006 94.0526 226.251 93.8755 225.397 94.0665C225.397 94.3847 225.397 94.6393 225.397 94.8966C225.463 99.1397 225.53 103.383 225.598 107.626C225.637 110.271 225.631 112.92 225.708 115.562C225.832 119.766 226.02 123.966 226.157 128.17C226.201 129.468 226.177 130.771 226.182 132.072C226.177 132.484 226.102 132.902 226.612 133.054Z" fill="#F97716"/>
<path fill-rule="evenodd" clip-rule="evenodd" d="M226.612 133.054C226.102 132.902 226.177 132.484 226.177 132.097C226.177 130.796 226.196 129.493 226.152 128.195C226.014 123.992 225.827 119.791 225.703 115.587C225.626 112.945 225.631 110.296 225.593 107.651C225.528 103.408 225.461 99.1648 225.391 94.9217C225.391 94.6644 225.391 94.4098 225.391 94.0915C226.246 93.9006 227.001 94.0915 227.78 94.3544C231.914 95.7823 234.546 98.7128 236.028 102.753C237.243 106.074 238.004 109.469 237.88 113.044C237.756 116.561 237.621 120.079 236.502 123.446C236.021 124.928 235.404 126.361 234.659 127.727C233.206 130.364 231.007 132.066 227.99 132.609C227.505 132.732 227.032 132.895 226.574 133.096L226.612 133.054ZM229.288 99.698V128.552C230.035 128.574 230.506 128.223 230.969 127.819C232.347 126.62 232.939 124.999 233.394 123.319C234.915 117.671 234.598 111.99 233.498 106.334C233.142 104.733 232.62 103.174 231.941 101.682C231.473 100.57 230.478 99.9332 229.288 99.698Z" fill="#7D318B"/>
<path fill-rule="evenodd" clip-rule="evenodd" d="M265.56 134.999C262.303 135.212 259.106 135.45 255.64 135.276C255.776 134.913 255.943 134.562 256.139 134.227C256.698 133.499 256.953 132.581 256.85 131.668C256.643 129.119 256.475 126.568 256.285 123.919H252.3C252.176 124.393 252.011 124.874 251.931 125.369C251.404 128.618 250.848 131.864 250.415 135.127C250.324 135.827 250.691 136.585 250.864 137.421C249.762 137.88 248.461 137.855 247.194 137.822C245.422 137.775 243.645 138.046 241.743 137.872C244.083 134.092 244.46 129.958 245.1 125.928C246.477 117.201 247.709 108.448 249.015 99.7033C249.36 97.3899 249.726 95.0793 250.148 92.7853C250.33 91.8029 250.407 90.9008 249.707 90.0845C249.641 90.007 249.668 89.8492 249.644 89.6445C250.644 89.4079 251.674 89.3194 252.7 89.3816C254.077 89.4065 255.455 89.6002 256.833 89.6583C257.687 89.686 258.55 89.5753 259.41 89.5393C259.878 89.5199 260.382 89.4508 260.597 90.0457C259.669 91.8915 259.671 91.8915 259.98 94.2215C260.699 99.6729 261.457 105.124 262.116 110.584C262.554 114.198 262.821 117.829 263.218 121.448C263.62 125.237 264.044 129.028 264.532 132.794C264.615 133.513 265.149 134.161 265.56 134.999ZM259.156 120.51C259.379 124.661 259.839 128.796 260.534 132.894C260.335 128.931 259.878 124.988 259.652 121.033C259.426 117.079 259.305 113.069 258.825 109.104C258.346 105.138 257.999 101.236 257.577 97.2267L252.429 97.6418C251.878 100.669 251.275 103.636 250.812 106.627C250.018 111.763 249.338 116.918 248.569 122.06C247.943 126.258 247.257 130.447 246.607 134.642C246.597 134.847 246.609 135.052 246.643 135.254C246.91 134.958 247.081 134.587 247.133 134.191C247.774 130.133 248.41 126.066 249.04 121.991C249.208 120.903 249.349 120.776 250.454 120.74C252.912 120.659 255.372 120.583 257.833 120.513C258.219 120.502 258.602 120.51 259.156 120.51Z" fill="#7D318B"/>
<path fill-rule="evenodd" clip-rule="evenodd" d="M259.156 120.51C258.605 120.51 258.219 120.51 257.839 120.51C255.379 120.582 252.919 120.658 250.459 120.737C249.357 120.773 249.214 120.9 249.046 121.988C248.41 126.056 247.774 130.123 247.139 134.189C247.086 134.585 246.915 134.955 246.648 135.251C246.615 135.049 246.603 134.844 246.612 134.64C247.263 130.445 247.949 126.255 248.574 122.057C249.343 116.916 250.024 111.76 250.818 106.624C251.28 103.633 251.884 100.666 252.435 97.639L257.583 97.2239C257.999 101.234 258.365 105.174 258.831 109.101C259.297 113.028 259.423 117.048 259.658 121.03C259.892 125.012 260.341 128.928 260.539 132.891C259.843 128.794 259.381 124.66 259.156 120.51ZM252.986 98.0817C252.303 99.8887 249.283 119.229 249.498 120.496L259.142 120.065C259.068 112.565 257.847 105.229 257.304 97.7496L252.986 98.0817Z" fill="#F97716"/>
<path fill-rule="evenodd" clip-rule="evenodd" d="M252.986 98.0819L257.31 97.7554C257.861 105.227 259.073 112.571 259.148 120.07L249.503 120.502C249.283 119.229 252.303 99.8972 252.986 98.0819ZM254.915 107.297H254.582C254.086 110.429 253.59 113.562 253.085 116.752H255.695C255.447 113.515 255.172 110.413 254.921 107.297H254.915Z" fill="#7D318B"/>
<path d="M295.955 141.682C293.273 139.286 289.371 140.279 286.31 141.265C285.442 141.541 284.582 141.848 283.725 142.158C283.618 142.106 275.533 144.308 271.774 142.573L271.647 142.513C272.749 141.857 273.513 140.869 273.375 139.438C273.232 137.941 272.182 136.311 270.509 136.549C268.952 136.771 267.803 138.957 268.029 140.407C268.132 141.12 268.431 141.791 268.892 142.344C266.772 143.002 264.207 142.402 262.476 141.087C260.746 139.773 259.983 136.809 260.164 134.679C260.17 134.582 260.146 134.486 260.096 134.404C260.046 134.321 259.973 134.256 259.886 134.215C259.798 134.175 259.701 134.162 259.606 134.178C259.512 134.194 259.424 134.238 259.354 134.305C259.313 132.921 259.354 131.538 259.266 130.262C259.228 129.65 258.299 129.83 258.335 130.436C258.574 134.239 258.059 138.431 260.605 141.61C262.388 143.838 265.566 143.902 268.175 143.608C268.755 143.544 269.328 143.431 269.889 143.271C270.924 143.957 272.073 144.45 273.281 144.726C275.734 145.354 277.966 145.047 280.363 144.311C283.028 143.481 285.599 142.374 288.288 141.652C290.669 141.018 293.419 140.675 295.403 142.446C295.861 142.856 296.398 142.073 295.955 141.682ZM271.617 138.32C271.824 138.54 271.981 138.802 272.076 139.089C272.171 139.376 272.203 139.68 272.168 139.981C272.11 140.811 271.372 141.411 270.674 141.807C269.724 140.888 269.142 139.505 269.936 138.348C270.371 137.67 271.129 137.839 271.611 138.309L271.617 138.32Z" fill="#7D318B"/>
</svg>
