<svg width="274" height="142" viewBox="0 0 274 142" fill="none" xmlns="http://www.w3.org/2000/svg">
<path fill-rule="evenodd" clip-rule="evenodd" d="M63.5522 49.8967L61.6621 50.7607C61.282 50.9345 60.907 51.2644 60.4993 50.6246C61.2543 49.8287 61.1889 48.7985 61.1788 47.7758C61.1788 47.0655 61.1386 46.3526 61.1612 45.6448C61.1839 44.937 61.0455 44.3148 60.3105 43.9848C60.1847 43.9269 60.1017 43.7707 59.9053 43.5617C60.1351 43.4166 60.3842 43.3046 60.6453 43.2292C61.2306 43.1698 61.8188 43.1429 62.407 43.1486C64.4985 43.1486 66.5875 43.2015 68.6789 43.204C69.1823 43.204 69.6857 43.1032 70.2066 43.0529C70.5158 43.0007 70.8295 42.9796 71.1429 42.9899C71.7167 43.0579 71.9659 43.5189 71.5632 43.8715C70.6446 44.6801 70.788 45.7078 70.8082 46.7153C70.8815 49.6387 70.5641 52.5588 69.8644 55.3979C69.4113 57.1612 68.8048 58.8665 67.6521 60.3274C66.4308 61.8952 64.6393 62.9157 62.6688 63.1662C60.6553 63.476 58.6746 63.4634 56.7342 62.7078C54.6251 61.8866 53.2232 60.3854 52.2895 58.3627C51.3784 56.3904 51.0311 54.3148 50.9958 52.1587C50.9379 49.3576 50.7769 46.5617 50.7291 43.7607C50.6586 39.4785 50.9379 35.2166 51.9321 31.0604C52.7526 27.6221 54.3507 24.5592 57.3785 22.4559C58.1832 21.8738 59.1542 21.5672 60.147 21.5818C61.2116 21.5818 62.2762 21.5592 63.3408 21.5692C65.3542 21.5843 66.9021 22.4609 67.9944 24.136C69.3459 26.2065 69.9373 28.5289 70.1236 30.9571C70.2519 32.6498 70.3149 34.3476 70.3602 36.0428C70.3803 36.869 70.4558 37.6196 71.2662 38.0856C71.3744 38.1461 71.4021 38.3375 71.5456 38.6423C71.1631 38.7448 70.7737 38.8189 70.3803 38.8639C68.0195 38.9496 65.6588 39.0176 63.298 39.0831C63.1589 39.0686 63.0225 39.0347 62.8928 38.9823C62.8701 38.8488 62.8173 38.7304 62.85 38.7053C63.605 37.8715 63.6504 36.8639 63.5824 35.8236C63.4868 34.3702 63.4339 32.9093 63.2779 31.4609C63.1822 30.5793 62.8777 29.733 61.8584 29.4886C61.0908 29.3047 60.1167 29.8967 59.6511 30.9496C59.2735 31.8169 58.9835 32.7198 58.7854 33.6448C57.9976 37.1712 57.8818 40.7581 57.8466 44.3551C57.8189 47.2367 57.7635 50.1209 58.3021 52.9697C58.4758 53.8866 58.6746 54.8564 59.1251 55.6498C59.9834 57.1612 62.032 57.0176 62.8425 55.4609C62.9626 55.2131 63.0554 54.953 63.1193 54.6851C63.4943 53.2267 63.5321 51.7355 63.5522 49.8967ZM66.7787 36.7758L67.0631 36.7103C67.1915 35.0176 66.9826 33.3325 66.7183 31.6725C66.4993 30.0186 65.7901 28.4683 64.6822 27.2216C63.3785 25.801 60.0463 25.0629 58.1612 27.0176C56.9028 28.3199 55.8382 29.7078 55.2744 31.4282C54.7066 33.2324 54.3684 35.101 54.2677 36.9899C54.0827 40.3405 54.1003 43.6993 54.3205 47.0478C54.4715 49.8186 54.7912 52.544 55.6645 55.1964C56.2208 56.9786 57.3144 58.5447 58.7954 59.6801C58.9748 59.8284 59.1819 59.9397 59.4045 60.0075C61.2342 60.4735 64.574 59.5415 65.4448 57.1587C65.7569 56.3098 66.1697 55.4735 66.3282 54.5944C66.7989 52.0126 67.1638 49.4131 67.5866 46.6221L63.0186 46.9496C63.0186 47.0327 63.0186 47.1183 63.0312 47.2015H67.0707C66.5975 50.0126 66.3811 52.7733 65.5254 55.4131C65.3163 56.0501 65.0545 56.6685 64.7426 57.2619C63.8945 58.8942 61.5413 60.0327 59.7392 59.6977C59.397 59.6205 59.0768 59.4663 58.803 59.2468C57.4716 58.2241 56.7065 56.8287 56.1779 55.2594C55.1712 52.2367 54.9321 49.078 54.771 45.9395C54.61 42.7481 54.4539 39.5592 54.6779 36.3551C54.9296 32.8287 56.1201 29.806 58.6645 27.272C60.2225 25.7279 63.2955 26.1536 64.3827 27.6423C65.3247 28.9648 65.913 30.5066 66.0917 32.1209C66.2704 33.4483 66.366 34.7884 66.5195 36.1209C66.5792 36.3489 66.6662 36.5688 66.7787 36.7758Z" fill="#7D318B"/>
<path d="M65.5 37.5L68.5 37L68 33L67 28L63 23L58 24C57.3333 25 55.9 27.1 55.5 27.5C55 28 54.5 31.5 54.5 32C54.5 32.4 53.5 35.8333 53 37.5L52.5 43.5C52.6667 45 53 48.1 53 48.5V53C53 53.4 54.6667 56.1667 55.5 57.5L57.5 61H61.5L65 59.5C65.5 59 66.5 57.9 66.5 57.5C66.5 57.1 67.1667 55.3333 67.5 54.5L68 49.5L69 45L65.5 44.5L62 45L62.5 48L65 48.5L65.5 53.5L63 57L61.5 58L58.5 57C57.5 53.3333 55.5 45.9 55.5 45.5V37C56.1667 35.1667 57.5 31.4 57.5 31C57.5 30.6 58.5 29.1667 59 28.5L61 27.5L63 28L64 31L65.5 37.5Z" fill="#7D318B"/>
<path fill-rule="evenodd" clip-rule="evenodd" d="M66.7785 36.272C66.667 36.0609 66.5825 35.8366 66.5268 35.6045C66.3733 34.272 66.2751 32.9319 66.099 31.602C65.9199 29.9878 65.3316 28.4461 64.39 27.1234C63.3028 25.6347 60.2297 25.2115 58.6718 26.7556C56.1273 29.2745 54.9344 32.2972 54.6852 35.8362C54.4612 39.0402 54.6173 42.2317 54.7783 45.408C54.9394 48.5843 55.1659 51.7052 56.1852 54.743C56.7138 56.3098 57.4789 57.7077 58.8103 58.7279C59.0833 58.9491 59.4037 59.1043 59.7465 59.1813C61.5486 59.5214 63.9018 58.3778 64.7499 56.7455C65.0628 56.1572 65.3263 55.5438 65.5377 54.9118C66.3934 52.2695 66.6099 49.5113 67.083 46.7002H63.0435C63.0435 46.6145 63.0435 46.5289 63.031 46.4483L67.599 46.1208C67.1636 48.9118 66.7986 51.5113 66.3406 54.0931C66.182 54.9748 65.7692 55.811 65.4572 56.6599C64.5813 59.0402 61.2415 59.9748 59.4168 59.5062C59.1944 59.4392 58.9874 59.3287 58.8078 59.1813C57.3267 58.045 56.2331 56.478 55.6768 54.6952C54.8035 52.0428 54.4839 49.3123 54.3329 46.5491C54.1126 43.1997 54.095 39.8401 54.28 36.4886C54.3805 34.6005 54.7187 32.7327 55.2867 30.9294C55.8505 29.2065 56.9151 27.8186 58.1735 26.5163C60.0586 24.5642 63.3909 25.2997 64.6946 26.7229C65.8074 27.9677 66.5211 29.5183 66.7433 31.1737C67.0075 32.8387 67.2164 34.5213 67.0881 36.2115L66.7785 36.272Z" fill="#F97716"/>
<path d="M91.5 26V23.5L77.5 22.5V26.5H80L91.5 26Z" fill="#7D318B"/>
<path d="M90 45.5V43L76 42V46H78.5L90 45.5Z" fill="#7D318B"/>
<path d="M91 61.5V59L77 58V62H79.5L91 61.5Z" fill="#7D318B"/>
<path fill-rule="evenodd" clip-rule="evenodd" d="M82.841 28.5416C82.7907 32.5718 82.5692 36.5189 82.8058 40.5239C84.8343 40.8867 86.7647 40.7028 88.6825 40.7103C88.977 40.7103 89.2941 40.4181 89.5634 40.2066C89.7903 39.9982 90.0006 39.7725 90.1926 39.5315C90.6532 40.5794 90.7513 47.1763 90.3914 49.2267C89.9787 49.4383 89.7723 49.1587 89.4879 48.9194C89.2035 48.6801 88.7731 48.3476 88.4032 48.335C86.7093 48.2872 85.013 48.335 83.3192 48.3527C83.2106 48.3719 83.1064 48.4112 83.0121 48.4685V56.4534C83.6816 56.5038 84.2202 56.5693 84.7588 56.5768C86.5332 56.602 88.3075 56.5768 90.0819 56.6323C90.4551 56.6444 90.8269 56.5788 91.1735 56.4397C91.5201 56.3005 91.834 56.0907 92.0953 55.8237C92.2866 55.6423 92.4728 55.4584 92.7296 55.2116C92.8856 55.4257 93.0794 55.5693 93.0794 55.7154C93.0995 58.1134 93.0945 60.5013 93.0945 63.0806C92.2413 63.0806 91.4258 63.0806 90.6104 63.0806C86.7848 63.0806 82.9618 63.0806 79.1363 63.0982C78.1925 63.0982 77.2512 63.2595 76.3074 63.2972C75.4567 63.335 75.3459 63.0907 75.6983 62.3224C75.914 61.9116 76.0377 61.4586 76.0607 60.995C75.9903 55.393 75.8745 49.7935 75.7914 44.194C75.6958 37.7607 75.6228 31.33 75.5397 24.8967C75.5246 23.7078 75.4491 23.5718 74.1152 22.2116C74.309 22.0504 74.4802 21.7909 74.6865 21.7607C75.31 21.6708 75.9392 21.6262 76.5691 21.6272C78.6556 21.6272 80.7445 21.6272 82.8335 21.6272H92.9963V29.7557C92.7271 29.5338 92.47 29.2975 92.2262 29.0479C92.0344 28.8008 91.7836 28.6059 91.4968 28.4814C91.2101 28.3568 90.8966 28.3065 90.5852 28.335C88.3402 28.4207 86.0902 28.4181 83.8452 28.4584C83.5382 28.4635 83.2336 28.5088 82.841 28.5416ZM79.7101 44.4106C79.5843 38.0378 79.4584 31.7481 79.3275 25.3224C80.4198 25.3224 81.3561 25.3375 82.2923 25.3224C83.2286 25.3073 84.185 25.2569 85.1288 25.199C86.1129 25.1411 87.0969 25.0731 88.076 24.9723C88.9619 24.8816 89.8956 25.0378 90.7337 24.6776L90.7035 24.4257L78.7411 24.7658C79.0205 36.8212 79.2973 48.796 79.5792 60.9496C80.9182 60.869 82.1262 60.7909 83.3318 60.7229C84.5373 60.6549 85.7001 60.6448 86.8755 60.5265C88.0508 60.4081 89.2463 60.6171 90.399 60.1385C89.8821 60.0015 89.3476 59.943 88.8134 59.9647C86.4098 60.0529 84.0063 60.1663 81.6027 60.2544C81.1145 60.272 80.6237 60.2192 80.0776 60.1965C79.9844 55.0882 79.8938 50.1209 79.8007 45.0982C80.8225 45.0176 81.716 44.9295 82.612 44.8816C83.508 44.8338 84.4241 44.8438 85.3301 44.801C86.1758 44.7607 87.0466 44.9068 87.8469 44.4106H79.7101Z" fill="#7D318B"/>
<path fill-rule="evenodd" clip-rule="evenodd" d="M79.7095 44.1864H87.8363C87.0309 44.6901 86.1601 44.534 85.3195 44.5743C84.4134 44.6171 83.5074 44.607 82.6013 44.6549C81.6953 44.7027 80.8119 44.7909 79.79 44.8715C79.8832 49.9093 79.9738 54.8614 80.0669 59.9848C80.613 60.005 81.1038 60.0579 81.5921 60.0403C83.9956 59.9521 86.3992 59.8388 88.8027 59.7506C89.337 59.7288 89.8715 59.7874 90.3883 59.9244C89.2457 60.403 88.0427 60.1939 86.8648 60.3123C85.6869 60.4307 84.5015 60.4433 83.3211 60.5088C82.1407 60.5743 80.9075 60.6574 79.5686 60.738C79.2867 48.5818 79.0098 36.607 78.7305 24.5541L90.6929 24.2115L90.7231 24.4634C89.885 24.8236 88.9613 24.6675 88.0653 24.7581C87.0863 24.8589 86.1022 24.9269 85.1181 24.9848C84.1743 25.0428 83.228 25.0881 82.2817 25.1083C81.3354 25.1284 80.4092 25.1083 79.3169 25.1083C79.4578 31.5214 79.5837 37.8136 79.7095 44.1864Z" fill="#F97716"/>
<path fill-rule="evenodd" clip-rule="evenodd" d="M104.269 27.8589C102.371 27.8236 100.559 27.7178 98.7547 27.7984C98.201 27.8261 97.6549 28.335 97.1414 28.675C96.8898 28.8362 96.7287 29.1183 96.3537 29.5365C96.2319 29.1243 96.1427 28.7032 96.0869 28.277C96.034 25.9874 96.0038 23.6977 95.9736 21.408C96.0052 21.2698 96.056 21.1366 96.1246 21.0125C97.5492 21.8186 99.0618 21.7002 100.607 21.6675C103.957 21.5994 107.309 21.7304 110.662 21.7027C112.469 21.6876 114.278 21.544 116.078 21.3929C116.611 21.345 117.127 21.0806 117.641 20.8891C118.31 20.6372 118.668 20.8136 118.635 21.4911C118.554 23.0629 118.426 24.6322 118.313 26.204C118.252 27.0554 118.182 27.9042 118.109 28.8816C117.905 28.7961 117.712 28.6879 117.533 28.5591C116.987 28.0305 116.256 27.739 115.497 27.7481C114.12 27.7103 112.741 27.7481 111.298 27.7481C111.238 28.0257 111.195 28.3066 111.168 28.5894C111.047 32.9294 110.916 37.2695 110.825 41.612C110.795 43.1083 110.931 44.6095 110.923 46.1108C110.911 48.9924 110.818 51.874 110.82 54.7556C110.82 57.0428 110.871 59.335 111.012 61.6171C111.054 62.3173 111.475 62.9949 111.746 63.743C109.152 64.4307 106.461 64.0528 103.801 64.0377C103.761 63.8916 103.698 63.7858 103.725 63.7481C104.576 62.5994 104.647 61.2846 104.626 59.9193C104.571 55.8891 104.548 51.8589 104.531 47.8287C104.511 43.1712 104.531 38.5088 104.488 33.8539C104.47 31.9269 104.35 30 104.269 27.8589Z" fill="#7D318B"/>
<path fill-rule="evenodd" clip-rule="evenodd" d="M116.246 23.9295L107.941 24.2469C107.873 30.4333 107.689 36.6474 107.785 42.8691C107.88 49.0907 108.273 55.2595 108.135 61.4585C108.031 61.4585 107.926 61.4585 107.82 61.4585C107.689 57.3451 107.528 53.2267 107.437 49.1159C107.347 45.0051 107.264 40.8363 107.281 36.6953C107.299 32.5542 107.442 28.4232 107.533 24.1638H98.4071C98.4071 24.0806 98.4071 24 98.3945 23.9119C99.2301 23.8363 100.063 23.6927 100.896 23.6978C103.891 23.6978 106.884 23.8136 109.876 23.796C111.568 23.796 113.256 23.6071 114.945 23.4937C115.396 23.4635 115.846 23.3602 116.259 23.5567L116.246 23.9295Z" fill="#F97716"/>
<path fill-rule="evenodd" clip-rule="evenodd" d="M150.895 21.2746C150.643 21.539 150.432 21.8061 150.183 22.0302C149.375 22.7921 148.806 23.7721 148.544 24.8514C147.248 29.8489 145.912 34.8363 144.621 39.8363C144.067 41.9723 143.581 44.1184 143.091 46.2771C143.019 46.6648 142.995 47.0599 143.02 47.4534C143.103 51.9496 143.184 56.4459 143.294 60.9421C143.317 61.8993 143.493 62.8262 144.412 63.4156C144.616 63.5466 144.719 63.8287 144.996 64.2217C144.553 64.335 144.103 64.4192 143.649 64.4736C141.17 64.5592 138.689 64.6197 136.21 64.6826C135.613 64.7003 135.613 64.6826 135.09 64.0529C135.107 63.9799 135.09 63.8816 135.147 63.8312C136.431 62.4459 136.572 60.7657 136.529 58.9799C136.434 54.9169 136.429 50.8514 136.373 46.7859C136.369 46.3597 136.307 45.936 136.189 45.5265C134.216 39.0747 132.232 32.6314 130.237 26.1965C130.152 25.8719 130.003 25.5677 129.798 25.3017C129.594 25.0356 129.338 24.8132 129.047 24.6474C128.735 24.4257 128.442 24.1788 128.171 23.9093C128.818 23.6952 129.238 23.4509 129.681 23.4333C132.158 23.3325 134.639 23.2746 137.118 23.2292C137.44 23.2559 137.757 23.3193 138.064 23.4181C138.064 23.6398 138.08 23.7506 138.039 23.7884C137.365 24.4106 137.355 25.0856 137.694 25.9118C138.283 27.3325 138.769 28.7935 139.305 30.2343C139.404 30.4391 139.517 30.6369 139.643 30.8262C140.551 28.392 141.229 25.8781 141.669 23.3174C141.74 23.0076 141.735 22.6849 141.653 22.3776C141.572 22.0703 141.416 21.7876 141.2 21.5542C140.697 20.995 140.873 20.6146 141.621 20.5668C142.643 20.4987 143.669 20.4862 144.694 20.4962C146.347 20.5139 148.001 20.5718 149.654 20.6146C150.125 20.6348 150.57 20.7305 150.895 21.2746ZM139.912 62.5516H140.279C140.279 62.2217 140.279 61.8942 140.279 61.5642C140.254 59.4358 140.231 57.3048 140.199 55.1763C140.14 51.4685 140.08 47.7616 140.018 44.0554C139.987 42.3249 140.018 40.6045 140.554 38.9345C140.773 38.2595 140.954 37.5718 141.175 36.8993C142.531 32.78 143.89 28.6658 145.252 24.5567C145.316 24.3177 145.366 24.0756 145.403 23.8312L145.197 23.7733C143.357 29.199 141.52 34.6272 139.615 40.2494C138.93 38.471 138.321 36.859 137.687 35.2544C137.053 33.6499 136.391 32.0378 135.746 30.4282C135.125 28.8766 134.556 27.3023 133.705 25.8539C133.699 26.1324 133.75 26.4092 133.854 26.6675C135.535 31.0882 137.231 35.5038 138.887 39.9295C139.217 40.8086 139.615 41.7254 139.643 42.6398C139.761 45.5139 139.733 48.398 139.748 51.2771C139.763 54.8287 139.748 58.3778 139.778 61.9295C139.804 62.1405 139.848 62.3488 139.912 62.5516Z" fill="#7D318B"/>
<path fill-rule="evenodd" clip-rule="evenodd" d="M139.912 62.5517C139.853 62.3467 139.813 62.1368 139.793 61.9245C139.776 58.3728 139.778 54.8237 139.763 51.2721C139.748 48.393 139.763 45.5089 139.657 42.6348C139.62 41.7205 139.222 40.8036 138.902 39.9245C137.239 35.4988 135.542 31.0832 133.869 26.6625C133.765 26.4042 133.714 26.1274 133.72 25.8489C134.571 27.2973 135.14 28.8716 135.761 30.4232C136.406 32.0328 137.068 33.6373 137.702 35.2494C138.336 36.8615 138.945 38.466 139.63 40.2444C141.535 34.6222 143.372 29.194 145.212 23.7683L145.418 23.8262C145.381 24.0706 145.33 24.3127 145.267 24.5517C143.912 28.6676 142.553 32.7817 141.19 36.8943C140.969 37.5668 140.787 38.2545 140.568 38.9295C140.032 40.5995 140.002 42.32 140.032 44.0504C140.096 47.7566 140.157 51.4635 140.214 55.1713C140.246 57.2998 140.269 59.4308 140.294 61.5592C140.294 61.8892 140.294 62.2167 140.294 62.5467L139.912 62.5517Z" fill="#F97716"/>
<path d="M138.535 28.2545C136.59 23.5441 134.146 19.5668 129.266 17.5819C126.676 16.5265 123.9 16.2217 121.257 15.3754C119.684 14.8716 117.563 14.5895 115.972 13.7028C117.479 13.1892 118.823 12.2854 119.868 11.0832C121.24 9.44338 121.821 6.43582 119.725 5.13859C117.872 3.9925 115.068 5.13859 113.712 6.54414C113.631 6.62676 113.573 6.728 113.541 6.83885C112.608 7.92375 112.098 9.30924 112.104 10.7406C112.104 11.1831 112.185 11.6218 112.343 12.0353C111.683 12.1915 111.044 12.33 110.455 12.4635C103.632 14.0126 96.4768 14.4912 89.4952 14.2268C86.3592 14.1109 83.2032 13.8061 80.1503 13.058C78.0966 12.5542 75.7308 11.8263 74.344 10.121C73.7677 9.41315 72.776 10.4207 73.3373 11.1285C75.2425 13.4711 78.7383 14.2771 81.5496 14.8162C85.9364 15.655 96.9651 15.8842 104.807 15.32C107.576 15.121 110.936 14.9749 113.981 14.2897C115.079 15.2177 116.311 15.9736 117.636 16.5315C120.444 17.7633 123.533 18.1587 126.46 19.0152C130.094 20.0807 132.752 22.1159 134.156 25.6902C134.483 26.529 135.85 26.1638 135.518 25.3149C135.397 25.0051 135.266 24.7028 135.135 24.4132C135.913 25.7677 136.592 27.1769 137.166 28.6298C137.518 29.4711 138.885 29.0958 138.535 28.2545ZM118.652 6.6197C119.765 7.16378 119.626 8.30232 118.939 9.03028C117.736 10.2897 115.902 11.0454 114.042 11.5945C113.206 9.40056 116.234 5.43834 118.652 6.6197Z" fill="#7D318B"/>
<path fill-rule="evenodd" clip-rule="evenodd" d="M171.898 43.3426C171.931 46.8337 171.898 51.0579 170.939 55.199C170.59 56.6545 170.127 58.0803 169.555 59.4635C168.521 62.0101 166.623 63.4937 163.837 63.7708C161.992 63.9853 160.123 63.846 158.33 63.3602C156.45 62.8262 155.222 61.6121 154.419 59.864C153.13 57.0604 152.619 54.0705 152.335 51.0478C151.721 44.4987 151.832 37.9748 152.964 31.4861C153.347 29.5101 153.972 27.5889 154.824 25.7657C155.141 25.021 155.612 24.3517 156.205 23.8013C156.799 23.251 157.501 22.832 158.267 22.5718C161.443 21.3929 164.408 21.8413 167.134 23.733C167.841 24.2368 168.377 25.0529 168.818 25.8237C170.738 29.1864 171.523 32.864 171.667 36.7002C171.747 38.665 171.813 40.6373 171.898 43.3426ZM168.553 44.2216C168.453 40.6237 168.142 37.0348 167.62 33.4735C167.307 31.2997 166.487 29.3476 165.392 27.4282C164.242 25.4131 159.936 25.4131 158.715 27.0504C157.737 28.2898 157.017 29.7122 156.596 31.2342C156.012 33.5718 155.711 35.9709 155.697 38.3803C155.67 41.1033 155.763 43.8262 155.826 46.5491C155.891 49.4735 156.077 52.3955 156.981 55.199C157.347 56.3201 157.825 57.4018 158.406 58.4282C159.475 60.3073 162.853 60.8413 164.567 59.3123C165.558 58.4282 166.454 57.4962 166.892 56.2368C167.292 55.0856 167.733 53.9118 167.871 52.7103C168.191 49.8892 168.342 47.0504 168.561 44.2216H168.553Z" fill="#7D318B"/>
<path fill-rule="evenodd" clip-rule="evenodd" d="M168.561 44.2217C168.342 47.0504 168.191 49.8892 167.871 52.7078C167.733 53.9043 167.292 55.0781 166.892 56.2343C166.454 57.4937 165.558 58.4257 164.567 59.3098C162.853 60.8388 159.475 60.3048 158.405 58.4257C157.825 57.3993 157.347 56.3176 156.981 55.1965C156.067 52.393 155.891 49.471 155.826 46.5466C155.763 43.8237 155.67 41.1008 155.697 38.3778C155.711 35.9693 156.013 33.571 156.596 31.2343C157.018 29.711 157.74 28.2876 158.72 27.0479C159.941 25.4055 164.257 25.4005 165.397 27.4257C166.492 29.3552 167.312 31.3073 167.625 33.471C168.147 37.0331 168.46 40.6228 168.561 44.2217ZM168.098 45.0101C168.068 40.869 167.297 34.7909 166.739 32.0655C166.383 30.32 165.639 28.6771 164.562 27.2595C164.351 26.948 164.071 26.6895 163.744 26.5042C163.417 26.319 163.052 26.2119 162.677 26.1914C161.166 26.1285 159.787 26.3501 158.901 27.8086C158.168 28.9755 157.623 30.2505 157.286 31.5869C156.591 34.4433 156.379 37.3527 156.354 40.2695C156.334 42.7129 156.508 45.1562 156.533 47.602C156.547 50.0495 156.871 52.4854 157.497 54.8514C157.852 56.1864 158.29 57.4987 159.186 58.5945C159.768 59.2732 160.579 59.7144 161.464 59.8342C162.35 59.954 163.249 59.7441 163.99 59.2443C165.03 58.4887 165.946 57.6222 166.386 56.3854C166.779 55.2746 167.265 54.1587 167.408 53.005C167.73 50.3577 167.871 47.6801 168.098 45.0101Z" fill="#F97716"/>
<path fill-rule="evenodd" clip-rule="evenodd" d="M168.097 45.01C167.876 47.6801 167.73 50.3576 167.4 53.0126C167.257 54.1662 166.771 55.2796 166.378 56.3929C165.938 57.6297 165.022 58.5063 163.982 59.2519C163.241 59.7516 162.342 59.9615 161.457 59.8417C160.571 59.7219 159.76 59.2807 159.178 58.602C158.282 57.5063 157.844 56.1939 157.489 54.8589C156.863 52.4921 156.539 50.0554 156.525 47.607C156.5 45.1612 156.326 42.7178 156.346 40.2745C156.372 37.3576 156.583 34.4483 157.278 31.5919C157.615 30.2555 158.16 28.9805 158.893 27.8136C159.787 26.3551 161.174 26.1335 162.669 26.1964C163.044 26.2169 163.409 26.3239 163.736 26.5092C164.063 26.6945 164.343 26.953 164.554 27.2644C165.631 28.6821 166.376 30.325 166.731 32.0705C167.297 34.7909 168.067 40.869 168.097 45.01ZM164.279 42.743C164.214 42.743 164.342 42.6196 164.279 42.6196C164.279 40.4131 164.169 38.3224 164.058 36.1209C163.99 34.7556 163.668 33.4005 163.391 32.0529C163.34 31.7355 163.183 31.4448 162.946 31.2284C162.709 31.0119 162.405 30.8825 162.085 30.8614C161.42 30.811 161.151 31.3652 160.904 31.869C160.697 32.2501 160.542 32.6577 160.444 33.0806C160.222 34.2393 159.94 35.403 159.89 36.5718C159.699 41.9748 159.797 47.3702 160.509 52.7355C160.572 53.4009 160.683 54.0608 160.841 54.7103C161.015 55.3148 161.307 55.9697 162.062 55.9697C162.817 55.9697 163.137 55.3047 163.32 54.7103C163.596 53.8088 163.771 52.8795 163.841 51.9395C164.018 48.8665 164.133 45.8035 164.279 42.733V42.743Z" fill="#7D318B"/>
<path fill-rule="evenodd" clip-rule="evenodd" d="M174.79 20.6096C175.344 20.5038 175.797 20.3325 176.217 20.3577C178.928 20.466 181.638 20.6096 184.351 20.7582C184.784 20.7809 185.23 20.801 185.439 21.3602C185.368 21.4686 185.315 21.6474 185.2 21.7129C184.178 22.2998 183.924 23.194 183.979 24.3149C184.482 34.7683 184.17 45.2217 184.231 55.6852C184.231 56.4887 184.296 57.2444 184.749 57.9522C185.29 58.7935 186.055 59.0328 186.987 58.9471C187.918 58.8615 188.605 58.4585 188.872 57.5743C189.138 56.6902 189.408 55.8111 189.418 54.9295C189.483 49.2066 189.506 43.4845 189.486 37.7633C189.471 33.8968 189.35 30.0328 189.299 26.1764C189.299 25.4837 189.113 24.9597 188.474 24.6071C188.273 24.4937 188.162 24.2141 187.991 23.9824C188.673 23.3527 189.445 23.3955 190.173 23.3754C191.393 23.3451 192.617 23.398 193.84 23.3754C194.784 23.3754 195.727 23.2922 196.671 23.2469C196.903 23.202 197.141 23.1943 197.376 23.2242C197.698 23.3174 198.131 23.4333 198.262 23.6751C198.365 23.8691 198.171 24.3476 197.965 24.5618C197.303 25.2494 197.185 26.0429 197.21 26.9547C197.456 35.9119 197.382 44.8674 196.986 53.8212C196.885 56.058 196.606 58.2897 195.682 60.4031C194.539 63.0152 192.758 64.6852 189.866 65.2116C187.727 65.5914 185.531 65.5055 183.428 64.9597C180.531 64.2293 178.822 62.189 177.755 59.5466C176.801 57.1663 176.532 54.655 176.496 52.1184C176.439 47.7381 176.439 43.3577 176.396 38.9774C176.35 33.9396 176.265 28.8791 176.242 23.8288C176.242 22.7809 176.101 21.8741 175.142 21.2645C175.017 21.1587 174.969 20.9396 174.79 20.6096ZM180.327 23.1537H179.962C179.962 23.9345 179.962 24.7154 179.962 25.4963C180.048 31.2897 180.121 37.1008 180.229 42.9043C180.294 46.5743 180.382 50.2444 180.518 53.9144C180.581 55.6071 180.752 57.2998 181.434 58.8942C181.847 59.859 182.401 60.7633 183.294 61.2847C184.777 62.1512 186.415 62.6625 188.162 62.4207C189.516 62.2167 190.908 61.9648 191.794 60.7053C192.523 59.7156 192.993 58.5586 193.16 57.3401C193.316 56.0076 193.447 54.6701 193.51 53.33C193.701 49.2293 193.913 45.1285 194.013 41.0277C194.124 36.1738 194.124 31.3199 194.164 26.4635C194.142 26.2169 194.096 25.973 194.026 25.7356C193.941 25.8168 193.875 25.9153 193.832 26.0244C193.788 26.1334 193.769 26.2505 193.774 26.3678C193.754 29.6424 193.744 32.9169 193.724 36.1915C193.724 37.534 193.724 38.8791 193.666 40.2217C193.477 44.2822 193.284 48.3426 193.039 52.4005C192.978 54.0563 192.798 55.7055 192.498 57.335C192.033 59.5441 191.076 61.4157 188.507 61.9144C186.148 62.3728 183.669 61.5441 182.398 59.5542C181.909 58.7901 181.584 57.9322 181.444 57.0353C181.153 55.0853 180.978 53.1195 180.921 51.1487C180.72 42.1084 180.584 33.0706 180.418 24.0303C180.405 23.7456 180.352 23.4509 180.322 23.1537H180.327Z" fill="#7D318B"/>
<path fill-rule="evenodd" clip-rule="evenodd" d="M180.321 23.1537C180.352 23.4509 180.404 23.7456 180.409 24.0404C180.573 33.0807 180.709 42.1184 180.913 51.1587C180.97 53.1296 181.145 55.0953 181.436 57.0454C181.576 57.9423 181.901 58.8002 182.39 59.5643C183.661 61.5542 186.14 62.3829 188.499 61.9245C191.068 61.4207 192.022 59.5542 192.49 57.3451C192.792 55.7141 192.976 54.0632 193.039 52.4056C193.291 48.3477 193.477 44.2872 193.666 40.2268C193.728 38.8867 193.716 37.5416 193.723 36.1965C193.744 32.922 193.754 29.6474 193.774 26.3728C193.768 26.2556 193.788 26.1385 193.831 26.0294C193.874 25.9203 193.941 25.8219 194.025 25.7406C194.096 25.9781 194.142 26.2219 194.164 26.4686C194.124 31.325 194.124 36.1789 194.013 41.0328C193.917 45.1336 193.706 49.2343 193.509 53.3351C193.447 54.6751 193.316 56.0127 193.16 57.3451C192.992 58.5619 192.522 59.7171 191.793 60.7053C190.907 61.9648 189.528 62.2167 188.159 62.4081C186.412 62.66 184.774 62.1386 183.291 61.2721C182.398 60.7507 181.844 59.8464 181.431 58.8817C180.749 57.2872 180.578 55.5945 180.515 53.9018C180.379 50.2318 180.291 46.5618 180.226 42.8917C180.118 37.0983 180.045 31.2872 179.959 25.4837C179.959 24.7028 179.959 23.922 179.959 23.1411L180.321 23.1537Z" fill="#F97716"/>
<path fill-rule="evenodd" clip-rule="evenodd" d="M211.727 54.1108C211.727 56.0781 211.727 58.0478 211.727 60.0151C211.727 60.6725 212.192 61.0655 212.623 61.4811C212.973 61.8161 213.287 62.1914 213.753 62.6952C212.746 62.9471 211.991 62.8161 211.221 62.7179C208.636 62.4118 206.024 62.4118 203.439 62.7179C203.246 62.7557 203.049 62.7751 202.853 62.7758C202.349 62.738 202.097 62.272 202.49 61.9748C203.96 60.8967 203.696 59.3879 203.688 57.8866C203.655 52.5189 203.688 47.1486 203.66 41.7808C203.635 37.3627 203.545 32.942 203.497 28.5239C203.482 27.1813 203.454 25.8363 203.537 24.4937C203.608 23.3073 203.192 22.5113 202.09 22.0655C201.838 21.9647 201.619 21.8136 201.174 21.5617C201.597 21.3728 201.848 21.1965 202.1 21.1587C204.992 20.7431 207.904 20.4886 210.821 20.6725C214.463 20.9043 217.249 22.6347 219.048 25.8514C222.026 31.1713 221.917 36.7053 220.13 42.3426C219.519 44.3971 218.386 46.2579 216.841 47.7431C216.696 47.896 216.559 48.0566 216.431 48.2242C217.364 50.063 218.296 51.8816 219.199 53.7053C220.385 56.068 221.56 58.4341 222.723 60.8035C223.302 61.9874 223.858 63.1436 225.315 63.5012C225.652 63.5844 225.927 63.9269 226.4 64.2745C225.179 64.9773 223.996 64.6247 222.927 64.869C221.857 65.1133 220.74 65.1033 219.64 65.1461C218.54 65.1889 217.395 65.1461 216.116 65.1461C216.27 64.7481 216.287 64.4811 216.431 64.3703C216.934 63.9748 216.967 63.539 216.665 63.0201C216.607 62.9194 216.569 62.8035 216.514 62.7002L211.916 54.0755L211.727 54.1108ZM212.374 47.1159C212.686 46.8337 212.958 46.6121 213.207 46.3602C214.583 44.9824 215.88 43.5264 216.519 41.6549C217.666 38.2897 218.135 34.8363 217.596 31.2796C217.397 29.8612 216.751 28.5432 215.754 27.5164C214.234 25.9505 212.347 24.7909 210.265 24.1436C209.509 23.8917 208.634 23.9849 207.816 24.0201C207.697 24.0177 207.579 24.0401 207.47 24.086C207.36 24.1319 207.261 24.2002 207.18 24.2866C207.098 24.3729 207.036 24.4754 206.996 24.5874C206.956 24.6995 206.941 24.8185 206.95 24.937C206.95 25.607 206.829 26.2745 206.839 26.9521C206.897 30.7783 206.983 34.607 207.051 38.4358C207.073 39.6599 207.066 40.8841 207.096 42.1058C207.194 45.8539 207.32 49.5995 207.403 53.3451C207.448 55.4761 207.426 57.6096 207.448 59.7405C207.472 59.9706 207.519 60.1977 207.589 60.4181L207.841 60.3829V50.267L212.14 47.3325C215.024 52.5038 217.848 57.5592 220.724 62.7153C220.85 62.4635 220.931 62.3753 220.911 62.3375C218.286 57.1788 215.439 52.141 212.374 47.1159Z" fill="#7D318B"/>
<path fill-rule="evenodd" clip-rule="evenodd" d="M212.374 47.1159C215.439 52.1411 218.286 57.1789 220.913 62.3376C220.933 62.3754 220.853 62.466 220.727 62.7154C217.85 57.5592 215.026 52.5038 212.142 47.3325L207.843 50.267V60.3829L207.592 60.4182C207.522 60.1977 207.475 59.9707 207.451 59.7406C207.428 57.6096 207.451 55.4761 207.406 53.3451C207.323 49.5995 207.197 45.854 207.099 42.1058C207.068 40.8842 207.076 39.66 207.053 38.4358C206.985 34.6071 206.9 30.7784 206.842 26.9522C206.842 26.2822 206.942 25.6147 206.953 24.9371C206.942 24.8176 206.956 24.6971 206.995 24.5836C207.033 24.4701 207.096 24.366 207.177 24.2782C207.259 24.1905 207.358 24.121 207.469 24.0744C207.579 24.0277 207.698 24.005 207.818 24.0076C208.636 23.9723 209.515 23.8892 210.267 24.131C212.35 24.7784 214.237 25.938 215.756 27.5038C216.754 28.5307 217.399 29.8487 217.599 31.267C218.137 34.8237 217.669 38.2771 216.521 41.6424C215.882 43.5139 214.586 44.9698 213.209 46.3477C212.958 46.5995 212.686 46.8338 212.374 47.1159ZM207.204 24.592C207.529 32.859 207.408 41.121 207.959 49.4157C208.11 49.3966 208.257 49.355 208.395 49.2922C209.764 48.2973 211.206 47.3829 212.472 46.2696C214.173 44.7759 215.56 43.0076 216.214 40.7683C217.008 38.1596 217.326 35.4293 217.153 32.7079C217.045 31.2142 216.884 29.723 215.948 28.4484C214.387 26.325 212.22 25.0756 209.786 24.2897C209.361 24.1445 208.908 24.0962 208.461 24.1485C208.014 24.2008 207.585 24.3523 207.204 24.592Z" fill="#F97716"/>
<path fill-rule="evenodd" clip-rule="evenodd" d="M207.204 24.592C207.585 24.3531 208.014 24.2023 208.46 24.1504C208.906 24.0986 209.359 24.147 209.784 24.2922C212.218 25.0781 214.385 26.3275 215.945 28.4509C216.881 29.7255 217.042 31.2217 217.151 32.7104C217.323 35.4318 217.005 38.1621 216.212 40.7708C215.557 43.0101 214.171 44.7784 212.469 46.2721C211.211 47.3854 209.761 48.2998 208.392 49.2947C208.254 49.3575 208.107 49.3992 207.957 49.4182C207.408 41.1209 207.529 32.859 207.204 24.592ZM211.088 43.2973C212.716 42.2544 213.544 40.8388 214.108 39.2847C214.724 37.5895 214.717 35.8187 214.503 34.0353C214.408 33.1921 214.136 32.3784 213.706 31.6471C213.276 30.9159 212.697 30.2834 212.006 29.791C211.656 29.5391 211.372 29.1109 210.806 29.1436C210.909 33.8288 210.992 38.4635 211.088 43.2973Z" fill="#7D318B"/>
<path fill-rule="evenodd" clip-rule="evenodd" d="M133.497 89.6071C133.447 93.6373 133.225 97.5844 133.462 101.592C135.49 101.952 137.421 101.768 139.338 101.776C139.633 101.776 139.95 101.484 140.219 101.272C140.446 101.064 140.656 100.838 140.848 100.597C141.309 101.645 141.407 108.242 141.047 110.295C140.635 110.504 140.428 110.224 140.144 109.985C139.859 109.746 139.429 109.413 139.059 109.401C137.365 109.353 135.669 109.401 133.975 109.418C133.867 109.439 133.763 109.478 133.668 109.534V117.519C134.34 117.569 134.876 117.635 135.415 117.645C137.189 117.668 138.966 117.645 140.738 117.698C141.111 117.71 141.483 117.645 141.829 117.505C142.176 117.366 142.49 117.156 142.751 116.889C142.942 116.71 143.129 116.524 143.385 116.277C143.541 116.491 143.735 116.635 143.735 116.781C143.755 119.179 143.75 121.579 143.75 124.146H141.266C137.441 124.146 133.618 124.146 129.792 124.164C128.848 124.164 127.907 124.325 126.963 124.363C126.113 124.401 126.002 124.156 126.357 123.388C126.57 122.976 126.693 122.524 126.717 122.061C126.646 116.461 126.53 110.859 126.447 105.259C126.352 98.8263 126.279 92.3955 126.196 85.9623C126.178 84.7733 126.102 84.6398 124.769 83.2771C124.965 83.1159 125.133 82.8565 125.34 82.8262C125.963 82.7376 126.593 82.693 127.222 82.6927C129.309 82.6927 131.398 82.6927 133.487 82.6927H143.652V90.8187C143.382 90.5981 143.125 90.3618 142.882 90.1109C142.689 89.8644 142.438 89.6702 142.151 89.5457C141.864 89.4212 141.55 89.3704 141.239 89.398C138.994 89.4837 136.746 89.4812 134.499 89.5215C134.197 89.5315 133.895 89.5744 133.497 89.6071ZM130.368 105.476C130.24 99.1008 130.117 92.8111 129.986 86.3854C131.076 86.3854 131.999 86.4006 132.951 86.3854C133.902 86.3703 134.841 86.3199 135.785 86.262C136.769 86.2041 137.753 86.1361 138.732 86.0353C139.618 85.9446 140.551 86.1008 141.392 85.7406C141.392 85.6575 141.369 85.5769 141.359 85.4887L129.397 85.8288C129.676 97.8842 129.953 109.859 130.235 122.015C131.577 121.935 132.782 121.854 133.988 121.786C135.193 121.718 136.356 121.71 137.531 121.589C138.707 121.469 139.902 121.68 141.055 121.202C140.538 121.065 140.003 121.006 139.469 121.028C137.066 121.116 134.662 121.229 132.259 121.317C131.77 121.335 131.28 121.282 130.733 121.259C130.64 116.151 130.55 111.184 130.457 106.161C131.478 106.081 132.372 105.992 133.268 105.945C134.164 105.897 135.08 105.907 135.986 105.864C136.832 105.824 137.702 105.97 138.503 105.476H130.368Z" fill="#7D318B"/>
<path fill-rule="evenodd" clip-rule="evenodd" d="M130.371 105.468H138.5C137.695 105.972 136.824 105.816 135.984 105.856C135.077 105.899 134.171 105.889 133.265 105.937C132.359 105.985 131.476 106.073 130.454 106.154C130.547 111.191 130.638 116.144 130.731 121.252C131.277 121.275 131.768 121.327 132.256 121.31C134.66 121.222 137.063 121.108 139.467 121.02C140.001 120.998 140.536 121.057 141.052 121.194C139.91 121.673 138.707 121.463 137.529 121.582C136.351 121.7 135.166 121.713 133.985 121.778C132.805 121.844 131.574 121.927 130.233 122.008C129.951 109.851 129.674 97.8765 129.395 85.8211L141.357 85.4811C141.357 85.5642 141.377 85.6448 141.39 85.733C140.549 86.0932 139.628 85.937 138.729 86.0277C137.75 86.1284 136.766 86.1964 135.782 86.2544C134.838 86.3123 133.892 86.3577 132.948 86.3778C132.004 86.398 131.073 86.3778 129.983 86.3778C130.119 92.8035 130.24 99.0932 130.371 105.468Z" fill="#F97716"/>
<path fill-rule="evenodd" clip-rule="evenodd" d="M94.2497 103.982C94.2824 107.471 94.2497 111.698 93.2908 115.839C92.9406 117.293 92.4778 118.718 91.9066 120.101C90.8722 122.65 88.9745 124.131 86.1884 124.411C84.3432 124.623 82.4745 124.483 80.6816 123.998C78.8015 123.463 77.5733 122.249 76.7705 120.501C75.4819 117.698 74.9684 114.708 74.6866 111.685C74.0725 105.136 74.1832 98.6146 75.3158 92.1235C75.6987 90.1483 76.3234 88.2278 77.1757 86.4056C77.4928 85.6605 77.9634 84.9907 78.5566 84.4399C79.1499 83.8891 79.8525 83.4697 80.6187 83.2091C83.7949 82.0328 86.7597 82.4786 89.4854 84.3728C90.1926 84.864 90.7287 85.6902 91.1691 86.4635C93.0895 89.8262 93.8747 93.5013 94.0182 97.3376C94.0912 99.3048 94.1566 101.277 94.2497 103.982ZM90.9049 104.859C90.8028 101.261 90.4902 97.6722 89.9686 94.1109C89.6565 91.9396 88.8335 89.9849 87.7412 88.0655C86.5911 86.0504 82.2848 86.0504 81.0641 87.6852C80.0847 88.9261 79.3625 90.3502 78.94 91.8741C78.3563 94.2116 78.0546 96.6108 78.0415 99.0202C78.0138 101.743 78.1069 104.466 78.1698 107.189C78.2353 110.113 78.4215 113.033 79.325 115.836C79.691 116.958 80.1682 118.039 80.7495 119.066C81.8192 120.945 85.1968 121.481 86.9107 119.95C87.9023 119.066 88.7983 118.134 89.2362 116.874C89.6364 115.725 90.0768 114.549 90.2128 113.348C90.5349 110.526 90.6859 107.69 90.9049 104.859Z" fill="#7D318B"/>
<path fill-rule="evenodd" clip-rule="evenodd" d="M90.9046 104.859C90.6856 107.69 90.5346 110.526 90.2124 113.345C90.0765 114.542 89.6361 115.718 89.2359 116.872C88.798 118.131 87.902 119.063 86.9104 119.947C85.1964 121.479 81.8189 120.942 80.7492 119.063C80.1679 118.037 79.6907 116.955 79.3247 115.834C78.4111 113.03 78.2349 110.111 78.1695 107.186C78.1066 104.463 78.0135 101.741 78.0411 99.0176C78.0543 96.6082 78.356 94.2091 78.9396 91.8715C79.3622 90.3477 80.0843 88.9236 81.0638 87.6826C82.2845 86.0403 86.6008 86.0352 87.7409 88.063C88.8332 89.9899 89.6562 91.9446 89.9683 94.1083C90.4899 97.6705 90.8026 101.26 90.9046 104.859ZM90.4415 105.65C90.4113 101.506 89.6411 95.4307 89.0824 92.7028C88.7261 90.9614 87.982 89.323 86.9053 87.9093C86.6953 87.5971 86.4157 87.3379 86.0886 87.1522C85.7615 86.9664 85.3958 86.8591 85.0203 86.8388C83.5102 86.7758 82.131 87 81.245 88.4584C80.5119 89.6253 79.9666 90.9003 79.6293 92.2368C78.9346 95.0907 78.7232 98 78.698 100.919C78.6779 103.363 78.8516 105.806 78.8767 108.249C78.8909 110.697 79.214 113.132 79.8382 115.499C80.1955 116.836 80.6335 118.146 81.5294 119.242C82.1105 119.919 82.9195 120.36 83.8033 120.481C84.6872 120.603 85.5848 120.395 86.3265 119.899C87.3659 119.144 88.282 118.275 88.7225 117.038C89.1151 115.929 89.5983 114.811 89.7418 113.66C90.074 110.997 90.22 108.312 90.4415 105.65Z" fill="#F97716"/>
<path fill-rule="evenodd" clip-rule="evenodd" d="M90.4411 105.65C90.2196 108.317 90.0736 110.997 89.7414 113.652C89.5979 114.804 89.1147 115.919 88.7221 117.03C88.2817 118.267 87.3655 119.146 86.3261 119.892C85.5843 120.391 84.6855 120.6 83.7999 120.479C82.9143 120.359 82.1036 119.918 81.5215 119.239C80.6255 118.144 80.1876 116.834 79.8302 115.496C79.206 113.13 78.883 110.694 78.8688 108.247C78.8436 105.804 78.67 103.36 78.6901 100.917C78.7153 97.9975 78.9267 95.0882 79.6213 92.2343C79.9587 90.8978 80.504 89.6228 81.2371 88.4559C82.1306 86.9975 83.5173 86.7733 85.0123 86.8363C85.3894 86.8558 85.7567 86.9629 86.0852 87.1491C86.4137 87.3354 86.6944 87.5957 86.905 87.9093C87.985 89.3196 88.7335 90.9555 89.0946 92.6952C89.6407 95.4307 90.4109 101.511 90.4411 105.65ZM86.6231 103.37V103.176C86.6231 100.97 86.5098 98.9521 86.3991 96.7506C86.3311 95.3879 86.009 94.0302 85.7321 92.6851C85.6824 92.3674 85.5258 92.0762 85.2883 91.8596C85.0508 91.643 84.7466 91.5139 84.4259 91.4937C83.7615 91.4408 83.4922 91.9975 83.2455 92.5013C83.0378 92.8815 82.8829 93.2882 82.7849 93.7103C82.5609 94.869 82.2816 96.0327 82.2312 97.204C82.04 102.605 82.1381 108 82.8504 113.368C82.9138 114.033 83.0249 114.693 83.1826 115.343C83.3563 115.947 83.6482 116.602 84.4032 116.602C85.1583 116.602 85.4779 115.937 85.6491 115.343C85.9247 114.441 86.0994 113.512 86.1701 112.572C86.3613 109.511 86.4771 106.441 86.6231 103.37Z" fill="#7D318B"/>
<path fill-rule="evenodd" clip-rule="evenodd" d="M23.263 125.612C23.0428 125.707 22.8122 125.776 22.5759 125.816C20.8871 125.924 19.1958 126.013 17.5045 126.106C17.0334 126.148 16.5605 126.165 16.0876 126.156C15.3728 126.116 15.0809 125.758 15.4131 125.149C16.0549 123.967 15.9492 122.731 15.9617 121.464C16.0045 117.753 16.1807 114.045 16.2134 110.335C16.2461 106.625 16.2134 102.839 16.1379 99.0907C16.0674 95.0252 15.924 90.9623 15.8384 86.8968C15.8233 86.1109 15.9743 85.325 15.9617 84.5416C15.9462 84.0361 15.851 83.5363 15.6799 83.0605C15.4363 82.4674 15.1625 81.8873 14.8594 81.3225C15.8661 81.0076 16.8502 81.2116 17.7915 81.1109C18.7327 81.0101 19.674 80.8917 20.6178 80.8842C21.5616 80.8766 22.5709 80.9824 23.7487 81.0529C23.5952 81.4585 23.5625 81.7733 23.3888 81.9723C22.6111 82.8741 22.4778 83.8665 22.5457 85.0479C22.732 88.2746 22.7974 91.5114 22.8276 94.7482C22.8553 97.3905 22.7672 100.038 22.7521 102.678C22.732 105.952 22.7395 109.227 22.7244 112.501C22.7068 115.972 22.6388 119.446 22.6791 122.917C22.6867 123.763 23.0315 124.592 23.263 125.612ZM19.3091 123.678C19.403 123.664 19.495 123.639 19.5834 123.605C19.6167 123.581 19.64 123.546 19.6489 123.506C19.5683 114.129 18.9165 104.758 19.3745 95.3728C19.5557 91.6751 19.3745 87.9623 19.3745 84.257C19.3745 84.2217 19.3393 84.189 19.3192 84.1537L19.0826 84.2948C18.8485 97.3401 18.6245 110.481 19.3091 123.678Z" fill="#7D318B"/>
<path fill-rule="evenodd" clip-rule="evenodd" d="M19.3094 123.678C18.6324 110.486 18.8488 97.3451 19.0753 84.2947L19.3119 84.1537C19.3321 84.189 19.3673 84.2217 19.3673 84.257C19.3824 87.9623 19.5561 91.6751 19.3673 95.3728C18.9092 104.758 19.5611 114.128 19.6416 123.506C19.6328 123.546 19.6094 123.581 19.5762 123.605C19.4902 123.639 19.4007 123.663 19.3094 123.678Z" fill="#F97716"/>
<path fill-rule="evenodd" clip-rule="evenodd" d="M27.2422 124.521C27.2246 124.201 27.2069 124.149 27.2246 124.126C28.3521 122.698 28.3521 121.063 28.3294 119.325C28.2338 111.554 28.2615 103.781 28.2338 96.0101C28.2338 93.0932 28.186 90.1738 28.1684 87.2569C28.1684 85.7279 27.9695 84.2645 26.623 83.005C27.0811 82.8514 27.3781 82.6725 27.6927 82.6599C29.7741 82.5869 31.8555 82.5743 33.9344 82.4962C38.4646 82.3249 41.8246 84.1561 43.9739 88.2166C46.4228 92.8463 46.4077 97.67 45.2449 102.599C44.4899 105.801 42.9446 108.569 40.3548 110.632C39.1341 111.602 37.7423 112.36 36.2725 113.317C36.2725 114.874 36.2725 116.642 36.2725 118.411C36.2725 119.121 36.3153 119.831 36.3178 120.542C36.3178 121.511 36.4638 122.428 37.1559 123.176C37.2369 123.263 37.3032 123.363 37.3522 123.471C37.6316 124.096 37.3849 124.446 36.6852 124.431C34.7951 124.395 32.91 124.327 31.0174 124.335C30.1164 124.335 29.2179 124.501 28.3143 124.564C27.9564 124.57 27.5985 124.555 27.2422 124.521ZM31.41 86.2342C31.3698 86.8035 31.3244 87.2695 31.3068 87.7456C31.259 89.1259 31.1936 90.5164 31.186 91.8866C31.1659 95.5567 31.1357 99.2267 31.186 102.894C31.2137 105.184 31.4251 107.468 31.4654 109.756C31.5308 113.428 31.5182 117.098 31.556 120.771C31.556 121.108 31.3672 121.552 31.9914 121.859V110.748C32.0948 110.688 32.2045 110.639 32.3186 110.602C37.5913 110.128 41.0091 106.474 42.4034 101.766C43.1585 99.2317 43.1937 96.6121 42.8162 94.0176C42.4185 91.2846 41.2281 88.9546 38.6559 87.6347C36.4386 86.4962 34.0099 86.267 31.41 86.2468V86.2342Z" fill="#7D318B"/>
<path fill-rule="evenodd" clip-rule="evenodd" d="M31.4095 86.2468C34.0093 86.267 36.4431 86.4987 38.6528 87.6347C41.225 88.9546 42.4155 91.2846 42.8131 94.0176C43.1907 96.6121 43.1504 99.2317 42.4004 101.766C41.0061 106.474 37.5882 110.128 32.3155 110.602C32.2014 110.639 32.0917 110.688 31.9883 110.748V121.866C31.3642 121.559 31.558 121.111 31.5529 120.778C31.5152 117.106 31.5278 113.436 31.4623 109.763C31.4221 107.476 31.2106 105.191 31.183 102.902C31.1351 99.2342 31.1653 95.5642 31.183 91.8942C31.183 90.5138 31.2559 89.1234 31.3038 87.7531C31.3239 87.2821 31.3692 86.8161 31.4095 86.2468ZM31.7518 86.5567C31.7266 94.6171 31.3944 102.448 32.0034 110.418C34.339 109.957 36.5337 109.33 38.1596 107.607C39.2593 106.48 40.1917 105.201 40.928 103.809C42.6697 100.325 42.861 96.5718 41.975 92.8514C41.2804 89.937 39.4356 87.8866 36.3424 87.2871C34.8978 87 33.4204 86.8186 31.7518 86.5567Z" fill="#F97716"/>
<path fill-rule="evenodd" clip-rule="evenodd" d="M31.7517 86.5566C33.4203 86.8085 34.8977 87 36.3549 87.2871C39.4481 87.8866 41.2929 89.937 41.9876 92.8513C42.8735 96.5718 42.6822 100.325 40.9406 103.809C40.2042 105.201 39.2718 106.48 38.1721 107.607C36.5513 109.33 34.3516 109.957 32.016 110.418C31.3943 102.448 31.7265 94.6196 31.7517 86.5566ZM35.7006 104.929L35.9825 105.02C36.4315 104.649 36.8522 104.245 37.2409 103.811C39.4456 100.965 39.7224 97.7657 38.7887 94.4131C38.381 92.9521 36.735 91.3677 35.4489 91.0302C35.5294 95.6666 35.6133 100.3 35.7006 104.929Z" fill="#7D318B"/>
<path fill-rule="evenodd" clip-rule="evenodd" d="M71.4396 125.693C68.8372 125.836 66.489 126 64.0628 125.799C64.833 124.076 64.8179 124.076 64.8179 122.116C64.8028 120.34 64.8002 118.564 64.7927 116.786C64.7927 116.36 64.7927 115.932 64.7927 115.413H57.0963C57.0762 115.705 57.0334 115.972 57.0409 116.237C57.0887 118.169 57.1517 120.101 57.1995 122.03C57.2498 124.073 57.2448 124.073 58.4856 125.66C55.7473 126.297 53.0518 126.229 50.3059 126.058C50.3059 125.856 50.2632 125.72 50.3059 125.64C50.8622 124.715 50.8848 123.72 50.8571 122.673C50.7363 117.819 50.6407 112.965 50.6054 108.111C50.5601 102.584 50.6054 97.0555 50.5727 91.529C50.5727 90.2267 50.4469 88.927 50.4192 87.6247C50.4161 87.0351 50.4531 86.446 50.5299 85.8615C50.6784 84.5466 50.613 83.3426 49.3319 82.5214C49.1306 82.393 49.0299 82.1083 48.8789 81.8842C49.3647 81.2998 49.9838 81.3225 50.5526 81.2796C52.6743 81.1235 54.7959 81.0026 56.9201 80.8766C57.156 80.8575 57.3933 80.8728 57.6248 80.922C58.2163 81.063 58.3622 81.4736 57.9973 81.9723C57.8362 82.194 57.572 82.3502 57.4461 82.5844C57.2498 82.9547 57.0032 83.3653 57.0032 83.7582C57.0032 92.2872 57.0157 100.816 57.0409 109.345C57.0587 109.507 57.0889 109.667 57.1315 109.824H64.8581C64.8581 109.383 64.8581 108.922 64.8581 108.461C64.8053 105.66 64.76 102.861 64.6971 100.063C64.6165 96.5114 64.5158 92.9572 64.4454 89.4056C64.4126 88.6567 64.4227 87.9065 64.4756 87.1587C64.5511 86.335 64.4554 85.6021 63.9043 84.9446C63.7321 84.6655 63.5936 84.3671 63.4915 84.0555C63.8766 83.9471 64.1308 83.8036 64.3799 83.8187C66.4261 83.8741 68.4698 83.9295 70.5134 84.0429C71.3842 84.0907 71.5377 84.461 71.0017 85.189C70.6327 85.6996 70.4546 86.3236 70.4983 86.9522C70.6065 94.5718 70.6845 102.191 70.7777 109.811C70.823 113.561 70.875 117.312 70.9337 121.063C70.9463 121.3 70.9463 121.537 70.9337 121.773C70.8179 123.053 70.531 124.345 71.4396 125.693ZM53.8093 113.038C53.7791 103.086 53.7489 93.3552 53.7212 83.6247H53.4494C53.2556 97.0983 53.0669 110.577 54.2447 124.02C54.4964 120.443 53.9729 116.877 53.9553 113.169C58.4654 113.317 62.8044 112.846 67.2013 112.957C67.2491 113.995 67.2894 114.899 67.3347 115.801C67.3825 116.748 67.4353 117.693 67.4907 118.64C67.5436 119.544 67.5561 120.456 67.6719 121.355C67.7877 122.254 67.4756 123.171 67.9916 124.018C68.1398 123.413 68.1933 122.79 68.1501 122.169C68.0771 120.673 67.9437 119.176 67.8984 117.678C67.7499 113.378 67.541 109.078 67.5234 104.778C67.4983 98.9849 67.6317 93.1738 67.6946 87.3728C67.6946 87.0202 67.6593 86.6701 67.6392 86.3174L67.3246 86.3325C67.2256 95.0647 67.1266 103.812 67.0276 112.574L53.8093 113.038Z" fill="#7D318B"/>
<path fill-rule="evenodd" clip-rule="evenodd" d="M53.809 113.038L67.0222 112.577C67.1229 103.816 67.2219 95.0688 67.3192 86.335L67.6338 86.3199C67.6539 86.6725 67.6917 87.0227 67.6892 87.3753C67.6262 93.1688 67.4928 98.9798 67.518 104.781C67.5356 109.081 67.7445 113.38 67.893 117.68C67.9434 119.179 68.0767 120.675 68.1447 122.171C68.1879 122.792 68.1344 123.416 67.9861 124.02C67.4828 123.174 67.7772 122.239 67.6665 121.358C67.5558 120.476 67.5381 119.547 67.4853 118.642C67.4299 117.695 67.3771 116.751 67.3292 115.804C67.2839 114.902 67.2437 113.997 67.1959 112.96C62.799 112.849 58.46 113.32 53.9499 113.171C53.9675 116.879 54.4885 120.446 54.2393 124.023C53.0665 110.579 53.2553 97.1007 53.449 83.6272H53.7209C53.7485 93.3552 53.7788 103.086 53.809 113.038Z" fill="#F97716"/>
<path fill-rule="evenodd" clip-rule="evenodd" d="M106.579 107.123C106.493 107.44 106.432 107.762 106.398 108.088C106.38 111.045 106.363 114.003 106.375 116.96C106.375 118.776 106.398 120.592 106.501 122.403C106.539 123.043 106.843 123.663 107.045 124.3C107.147 124.57 107.264 124.834 107.394 125.091C105.623 125.577 103.767 125.669 101.956 125.363C100.949 125.214 99.8465 125.577 98.7592 124.98C98.943 124.743 99.1048 124.49 99.2425 124.224C99.4463 123.72 99.7584 123.217 99.7584 122.713C99.7458 119.874 99.6577 117.033 99.5873 114.194C99.552 112.733 99.4816 111.275 99.4614 109.814C99.396 105.355 99.3733 100.897 99.2777 96.4383C99.2047 93.0479 99.0386 89.6625 98.9354 86.2721C98.9178 85.6247 98.5403 85.2771 98.057 84.9774C97.6695 84.7255 97.146 84.6323 97.1309 83.9698C97.4807 83.5592 97.9841 83.6802 98.427 83.6852C99.9648 83.7104 101.503 83.7885 103.04 83.8162C103.826 83.8313 104.611 83.7809 105.396 83.7683C105.828 83.733 106.262 83.738 106.692 83.7834C107.196 83.8741 107.447 84.393 107.092 84.7582C106.164 85.7305 106.503 86.7079 106.941 87.7079C109.106 92.66 111.274 97.6138 113.445 102.569C113.574 102.77 113.718 102.959 113.878 103.136V101.725C113.878 98.1739 113.878 94.6222 113.878 91.0706C113.878 89.0958 113.825 87.121 113.878 85.1487C113.913 84.2785 113.616 83.4276 113.047 82.7683C112.831 82.5164 112.637 82.2293 112.272 81.7431C113.422 81.6147 114.331 81.4711 115.247 81.4207C117.054 81.3199 118.862 81.2519 120.671 81.2167C121.005 81.2167 121.348 81.4283 121.904 81.6147C120.454 83.0126 120.693 84.6676 120.671 86.2066C120.635 88.6121 120.801 91.0177 120.839 93.4257C120.882 96.3048 120.879 99.1864 120.895 102.068C120.895 104.116 120.895 106.169 120.92 108.219C120.952 111.578 120.994 114.936 121.046 118.295C121.071 119.872 121.124 121.449 121.204 123.028C121.258 123.455 121.35 123.876 121.478 124.287C121.65 124.985 121.516 125.257 120.817 125.368C120.195 125.469 119.558 125.476 118.931 125.534C117.872 125.63 116.815 125.748 115.755 125.834C115.441 125.863 115.125 125.845 114.816 125.781C114.185 125.64 114.004 125.38 114.235 124.773C114.332 124.538 114.377 124.284 114.366 124.03C114.356 123.776 114.29 123.526 114.175 123.3C111.764 118.071 109.355 112.839 106.949 107.605C106.84 107.434 106.716 107.273 106.579 107.123ZM117.862 117.554C117.791 106.408 117.723 95.388 117.658 84.3728C117.039 89.8439 117.447 95.3225 117.389 100.799C117.331 106.275 117.26 111.741 117.618 117.292L116.334 117.36C116.26 117.265 116.193 117.165 116.133 117.061C112.873 109.746 109.617 102.43 106.365 95.1134C105.937 94.1562 105.444 93.2293 105.019 92.3703L102.154 92.597C102.154 93.7557 102.134 94.864 102.154 95.9547C102.273 101.244 102.373 106.534 102.539 111.824C102.645 115.214 102.844 118.605 103.015 121.992C103.051 122.255 103.112 122.514 103.196 122.766L103.435 122.713C103.292 119.411 103.128 116.108 103.018 112.806C102.907 109.453 102.809 106.098 102.784 102.743C102.756 99.4459 102.378 96.1512 102.562 92.7759H104.888L115.884 117.713L117.862 117.554Z" fill="#7D318B"/>
<path fill-rule="evenodd" clip-rule="evenodd" d="M117.862 117.554L115.889 117.71L104.893 92.7732H102.567C102.384 96.1486 102.761 99.4433 102.789 102.74C102.814 106.096 102.912 109.451 103.023 112.803C103.134 116.106 103.297 119.408 103.441 122.71L103.202 122.763C103.117 122.512 103.056 122.253 103.02 121.99C102.849 118.602 102.65 115.212 102.545 111.821C102.379 106.531 102.278 101.242 102.16 95.9521C102.134 94.8513 102.16 93.7531 102.16 92.5944L105.024 92.3677C105.449 93.2266 105.942 94.1536 106.37 95.1108C109.632 102.422 112.888 109.738 116.138 117.058C116.198 117.163 116.265 117.263 116.339 117.358L117.623 117.29C117.266 111.748 117.336 106.269 117.394 100.796C117.452 95.3224 117.031 89.8438 117.658 84.3828C117.724 95.3878 117.786 106.408 117.862 117.554Z" fill="#F97716"/>
<path fill-rule="evenodd" clip-rule="evenodd" d="M163.845 88.6196C161.947 88.5844 160.135 88.4811 158.33 88.5617C157.779 88.5869 157.233 89.0982 156.717 89.4358C156.465 89.5995 156.304 89.8791 155.932 90.2972C155.807 89.8857 155.718 89.4644 155.665 89.0378C155.61 86.7481 155.579 84.4609 155.552 82.1713C155.581 82.032 155.631 81.8978 155.7 81.7733C157.125 82.5819 158.637 82.4609 160.183 82.4282C163.533 82.3602 166.887 82.4912 170.237 82.4635C172.044 82.4484 173.854 82.3073 175.656 82.1536C176.187 82.1058 176.706 81.8413 177.216 81.6499C177.886 81.398 178.246 81.5743 178.223 82.2519C178.143 83.8237 178.014 85.3955 177.901 86.9672C177.841 87.8161 177.773 88.665 177.697 89.6423C177.493 89.5578 177.3 89.4496 177.121 89.3199C176.576 88.7913 175.844 88.4997 175.085 88.5088C173.708 88.471 172.316 88.5088 170.887 88.5088C170.828 88.7865 170.785 89.0674 170.758 89.3501C170.635 93.6902 170.507 98.0302 170.414 102.373C170.386 103.872 170.519 105.373 170.514 106.872C170.502 109.753 170.406 112.635 170.411 115.516C170.411 117.804 170.459 120.096 170.6 122.378C170.643 123.078 171.065 123.756 171.335 124.504C168.74 125.194 166.049 124.814 163.389 124.798C163.349 124.652 163.288 124.547 163.316 124.509C164.167 123.36 164.235 122.045 164.217 120.68C164.159 116.65 164.139 112.62 164.121 108.589C164.099 103.932 164.121 99.2695 164.076 94.6171C164.051 92.6952 163.933 90.7607 163.845 88.6196ZM175.822 85.4912V85.1259C175.409 84.9295 174.959 85.0327 174.508 85.063C172.82 85.1763 171.131 85.3526 169.44 85.3652C166.447 85.3829 163.455 85.2771 160.462 85.267C159.626 85.267 158.793 85.4055 157.945 85.4811C157.945 85.5642 157.945 85.6448 157.958 85.733H167.116C167.026 89.9924 166.882 94.1284 166.865 98.2645C166.847 102.4 166.93 106.547 167.021 110.685C167.111 114.824 167.273 118.919 167.403 123.028C167.509 123.028 167.615 123.028 167.721 123.028C167.856 116.829 167.469 110.635 167.368 104.438C167.268 98.2418 167.456 92.0025 167.524 85.8161L175.822 85.4912Z" fill="#7D318B"/>
<path fill-rule="evenodd" clip-rule="evenodd" d="M175.826 85.4912L167.521 85.8085C167.453 91.9949 167.269 98.209 167.365 104.431C167.461 110.652 167.853 116.821 167.717 123.02C167.612 123.02 167.506 123.02 167.4 123.02C167.269 118.907 167.111 114.788 167.018 110.678C166.925 106.567 166.844 102.398 166.862 98.2569C166.879 94.1158 167.023 89.9849 167.113 85.7254H157.982C157.982 85.6423 157.982 85.5617 157.97 85.4735C158.805 85.398 159.638 85.2544 160.487 85.2594C163.479 85.2594 166.472 85.3753 169.464 85.3577C171.155 85.3577 172.844 85.1687 174.533 85.0554C174.983 85.0252 175.434 84.9219 175.847 85.1184L175.826 85.4912Z" fill="#F97716"/>
<path fill-rule="evenodd" clip-rule="evenodd" d="M265.032 81.9018C264.78 82.1663 264.569 82.4307 264.32 82.6574C263.511 83.4182 262.942 84.3987 262.681 85.4786C261.383 90.4761 260.046 95.4635 258.755 100.463C258.204 102.6 257.716 104.746 257.225 106.904C257.156 107.292 257.132 107.687 257.155 108.081C257.24 112.577 257.321 117.073 257.431 121.569C257.454 122.524 257.628 123.453 258.549 124.043C258.75 124.171 258.856 124.456 259.133 124.846C258.69 124.962 258.239 125.046 257.784 125.098C255.305 125.184 252.823 125.244 250.344 125.31C249.748 125.327 249.748 125.31 249.224 124.68C249.244 124.605 249.224 124.509 249.284 124.458C250.566 123.073 250.709 121.393 250.666 119.605C250.568 115.542 250.566 111.479 250.508 107.413C250.507 106.982 250.445 106.552 250.324 106.139C248.351 99.6952 246.37 93.2544 244.382 86.8161C244.296 86.4918 244.146 86.1879 243.941 85.9223C243.736 85.6568 243.481 85.4348 243.189 85.2695C242.878 85.0476 242.586 84.8008 242.315 84.5315C242.96 84.3174 243.38 84.0705 243.81 84.0529C246.289 83.9521 248.769 83.8967 251.25 83.8489C251.572 83.8769 251.889 83.9411 252.196 84.0403C252.196 84.262 252.212 84.3728 252.169 84.4081C251.494 85.0302 251.484 85.7078 251.826 86.534C252.413 87.9547 252.899 89.4131 253.435 90.8564C253.534 91.0614 253.648 91.2592 253.774 91.4484C254.679 89.0141 255.353 86.5001 255.788 83.9396C255.858 83.6316 255.852 83.3113 255.77 83.0062C255.689 82.7012 255.534 82.4206 255.32 82.1889C254.816 81.6297 254.993 81.2494 255.74 81.2015C256.762 81.1335 257.789 81.1184 258.813 81.131C260.467 81.1486 262.12 81.2066 263.774 81.2494C264.265 81.262 264.705 81.3602 265.032 81.9018ZM254.049 123.174H254.414C254.414 122.844 254.414 122.514 254.414 122.186C254.386 120.055 254.363 117.927 254.331 115.796C254.275 112.09 254.215 108.384 254.149 104.678C254.119 102.947 254.149 101.227 254.688 99.5542C254.905 98.8791 255.086 98.194 255.307 97.5189C256.663 93.403 258.022 89.2888 259.384 85.1763C259.45 84.9388 259.501 84.6974 259.535 84.4534L259.329 84.3955C257.492 89.8212 255.652 95.2469 253.749 100.872C253.065 99.0932 252.453 97.4811 251.821 95.8766C251.19 94.272 250.525 92.66 249.878 91.0504C249.257 89.4987 248.688 87.9219 247.84 86.4736C247.833 86.7527 247.882 87.0303 247.986 87.2897C249.667 91.7103 251.366 96.126 253.019 100.552C253.352 101.431 253.747 102.348 253.774 103.259C253.895 106.136 253.868 109.02 253.88 111.899C253.895 115.448 253.895 119 253.91 122.552C253.936 122.763 253.982 122.971 254.049 123.174Z" fill="#7D318B"/>
<path fill-rule="evenodd" clip-rule="evenodd" d="M254.049 123.174C253.989 122.969 253.948 122.759 253.929 122.547C253.914 118.995 253.914 115.443 253.898 111.894C253.898 109.015 253.914 106.131 253.793 103.254C253.755 102.343 253.36 101.426 253.038 100.547C251.377 96.1209 249.678 91.7052 248.004 87.2846C247.901 87.0252 247.851 86.7476 247.858 86.4685C248.706 87.9168 249.275 89.4911 249.897 91.0453C250.544 92.6549 251.203 94.2569 251.84 95.8715C252.476 97.4861 253.083 99.0881 253.768 100.866C255.67 95.2418 257.51 89.8161 259.347 84.3904L259.554 84.4483C259.519 84.6923 259.468 84.9338 259.403 85.1712C258.047 89.2905 256.688 93.4047 255.325 97.5138C255.104 98.1889 254.923 98.874 254.706 99.5491C254.168 101.222 254.138 102.942 254.168 104.672C254.233 108.379 254.294 112.085 254.349 115.791C254.382 117.922 254.404 120.05 254.432 122.181C254.432 122.509 254.432 122.839 254.432 123.169L254.049 123.174Z" fill="#F97716"/>
<path fill-rule="evenodd" clip-rule="evenodd" d="M198.783 103.678C198.815 107.166 198.783 111.393 197.826 115.534C197.476 116.988 197.013 118.413 196.442 119.796C195.405 122.345 193.51 123.826 190.721 124.106C188.877 124.318 187.009 124.178 185.217 123.693C183.335 123.161 182.109 121.945 181.304 120.197C180.015 117.395 179.504 114.403 179.22 111.38C178.606 104.831 178.716 98.3073 179.851 91.8162C180.234 89.8398 180.86 87.9184 181.714 86.0957C182.03 85.3506 182.5 84.6807 183.093 84.1298C183.686 83.579 184.388 83.1597 185.154 82.8993C188.333 81.723 191.298 82.1688 194.023 84.063C194.731 84.5542 195.264 85.3829 195.707 86.1537C197.628 89.5164 198.413 93.2066 198.556 97.0303C198.627 98.9925 198.69 100.972 198.783 103.678ZM195.438 104.554C195.338 100.956 195.026 97.3671 194.502 93.8061C194.19 91.6348 193.369 89.6827 192.274 87.7607C191.127 85.733 186.818 85.7456 185.597 87.3804C184.621 88.6205 183.9 90.0416 183.476 91.5617C182.893 93.8994 182.592 96.2985 182.58 98.7078C182.549 101.431 182.642 104.154 182.705 106.877C182.773 109.801 182.957 112.723 183.863 115.526C184.229 116.648 184.706 117.73 185.288 118.756C186.355 120.632 189.735 121.169 191.446 119.637C192.438 118.753 193.336 117.821 193.774 116.562C194.174 115.413 194.615 114.237 194.751 113.035C195.07 110.222 195.219 107.385 195.438 104.554Z" fill="#7D318B"/>
<path fill-rule="evenodd" clip-rule="evenodd" d="M195.438 104.554C195.219 107.385 195.071 110.222 194.748 113.04C194.613 114.237 194.172 115.413 193.772 116.567C193.334 117.826 192.435 118.758 191.444 119.642C189.732 121.174 186.352 120.65 185.285 118.761C184.704 117.735 184.227 116.653 183.861 115.531C182.947 112.728 182.771 109.806 182.703 106.882C182.64 104.159 182.547 101.436 182.577 98.7128C182.59 96.3018 182.892 93.9009 183.476 91.5617C183.9 90.0387 184.622 88.6149 185.6 87.3728C186.82 85.7305 191.137 85.7254 192.277 87.7531C193.372 89.6826 194.192 91.6348 194.504 93.7985C195.028 97.3621 195.339 100.954 195.438 104.554ZM194.977 105.345C194.945 101.202 194.175 95.1259 193.618 92.4005C193.264 90.6547 192.52 89.0117 191.441 87.5945C191.231 87.2824 190.952 87.0235 190.625 86.8382C190.297 86.6529 189.932 86.5461 189.556 86.5264C188.046 86.461 186.667 86.6851 185.781 88.1436C185.047 89.3104 184.501 90.5854 184.163 91.9219C183.471 94.7758 183.259 97.6851 183.234 100.605C183.214 103.048 183.388 105.491 183.41 107.935C183.425 110.382 183.749 112.818 184.374 115.184C184.732 116.521 185.167 117.834 186.065 118.927C186.648 119.606 187.458 120.047 188.344 120.167C189.229 120.287 190.128 120.078 190.87 119.579C191.907 118.824 192.823 117.955 193.264 116.718C193.659 115.61 194.142 114.491 194.285 113.34C194.608 110.693 194.756 108.013 194.977 105.345Z" fill="#F97716"/>
<path fill-rule="evenodd" clip-rule="evenodd" d="M194.977 105.345C194.756 108.013 194.607 110.693 194.278 113.348C194.134 114.499 193.651 115.615 193.256 116.725C192.815 117.962 191.899 118.841 190.862 119.587C190.12 120.086 189.222 120.295 188.336 120.175C187.45 120.054 186.64 119.613 186.058 118.934C185.159 117.841 184.724 116.529 184.366 115.191C183.741 112.825 183.417 110.389 183.402 107.942C183.38 105.499 183.206 103.055 183.226 100.612C183.251 97.6926 183.463 94.7833 184.155 91.9294C184.493 90.5929 185.039 89.3179 185.773 88.1511C186.667 86.6926 188.053 86.4685 189.548 86.5339C189.924 86.5536 190.29 86.6604 190.617 86.8457C190.944 87.031 191.223 87.2899 191.434 87.602C192.512 89.0192 193.256 90.6622 193.611 92.408C194.174 95.1259 194.944 101.201 194.977 105.345ZM191.157 103.078V102.854C191.157 100.647 191.043 98.6599 190.935 96.4584C190.867 95.0957 190.545 93.738 190.266 92.3929C190.219 92.0725 190.065 91.7778 189.827 91.5578C189.59 91.3378 189.285 91.2058 188.962 91.1838C188.298 91.1334 188.026 91.6876 187.779 92.1914C187.572 92.5729 187.418 92.9804 187.319 93.403C187.097 94.5591 186.815 95.7254 186.765 96.8941C186.576 102.295 186.674 107.69 187.387 113.058C187.448 113.724 187.559 114.384 187.719 115.033C187.892 115.637 188.182 116.292 188.937 116.292C189.692 116.292 190.014 115.627 190.195 115.033C190.47 114.131 190.644 113.202 190.716 112.262C190.897 109.206 191.026 106.136 191.157 103.068V103.078Z" fill="#7D318B"/>
<path fill-rule="evenodd" clip-rule="evenodd" d="M201.485 82.5188C204.589 82.3249 207.526 81.9571 210.465 82.5491C213.105 83.0806 215.109 84.5894 216.783 86.6347C218.771 89.0654 219.725 91.9118 220.231 94.9471C220.814 98.2519 221.064 101.607 220.976 104.962C220.837 109.229 219.96 113.439 218.383 117.405C217.453 119.825 215.714 121.847 213.46 123.126C212.031 123.945 210.46 124.103 208.897 124.176C206.854 124.269 204.803 124.176 202.754 124.156C202.019 124.156 201.79 123.725 202.25 123.181C202.902 122.426 203.026 121.587 203.005 120.662C202.849 115.697 202.703 110.731 202.565 105.766C202.565 105.569 202.532 105.373 202.53 105.176C202.449 99.3778 202.372 93.5801 202.298 87.7833C202.298 86.9168 202.298 86.0478 202.344 85.1813C202.374 84.4105 202.344 83.67 201.672 83.141C201.571 83.0554 201.578 82.8539 201.485 82.5188ZM206.939 121.141C209.388 121.025 211.563 120.29 213.319 118.479C214.662 117.075 215.662 115.38 216.244 113.526C218.272 107.305 218.71 101.008 216.649 94.6901C215.605 91.4937 214.102 88.5415 210.944 86.8513C210.214 86.4634 209.433 86.1486 208.721 85.7481C207.782 85.2292 206.776 85.2443 205.61 85.2115C205.58 89.277 205.5 93.2896 205.537 97.3022C205.575 101.365 205.726 105.428 205.834 109.491C205.938 113.491 206.051 117.491 206.164 121.627L206.972 121.123L206.939 121.141Z" fill="#7D318B"/>
<path fill-rule="evenodd" clip-rule="evenodd" d="M206.973 121.113L206.165 121.617C206.052 117.481 205.938 113.481 205.835 109.481C205.727 105.418 205.583 101.355 205.538 97.2922C205.5 93.2821 205.581 89.2695 205.611 85.2015C206.776 85.2267 207.783 85.2192 208.722 85.7381C209.444 86.1386 210.214 86.4534 210.944 86.8413C214.103 88.5315 215.605 91.4837 216.65 94.6801C218.704 100.977 218.273 107.287 216.245 113.516C215.663 115.37 214.662 117.065 213.32 118.469C211.558 120.28 209.389 121.015 206.943 121.128C207.361 120.946 207.794 120.797 208.236 120.685C211.005 120.181 213.001 118.642 214.327 116.242C215.007 114.998 215.571 113.693 216.011 112.345C217.017 109.28 217.151 106.078 217.269 102.877C217.382 99.6222 216.688 96.529 215.578 93.5088C214.224 89.8313 211.828 87.1638 208.045 85.864C207.333 85.6121 206.643 85.4509 205.863 85.6247C205.863 85.9144 205.863 86.1461 205.863 86.3804C205.923 90.2427 205.985 94.105 206.047 97.9673C206.082 100.375 206.077 102.786 206.147 105.191C206.261 109.018 206.432 112.841 206.558 116.668C206.598 117.849 206.575 119.035 206.58 120.219C206.575 120.594 206.507 120.975 206.973 121.113Z" fill="#F97716"/>
<path fill-rule="evenodd" clip-rule="evenodd" d="M206.972 121.113C206.507 120.975 206.575 120.594 206.575 120.242C206.575 119.058 206.592 117.872 206.552 116.69C206.426 112.864 206.255 109.04 206.142 105.214C206.071 102.809 206.076 100.398 206.041 97.9899C205.982 94.1276 205.921 90.2653 205.857 86.403C205.857 86.1687 205.857 85.937 205.857 85.6473C206.638 85.4735 207.327 85.6473 208.039 85.8866C211.815 87.1864 214.218 89.8539 215.572 93.5315C216.682 96.5541 217.377 99.6448 217.264 102.899C217.15 106.101 217.027 109.302 216.005 112.368C215.566 113.716 215.002 115.02 214.321 116.264C212.995 118.665 210.987 120.214 208.231 120.708C207.788 120.82 207.356 120.968 206.937 121.151L206.972 121.113ZM209.416 90.7506V117.015C210.098 117.035 210.529 116.715 210.951 116.348C212.21 115.257 212.751 113.781 213.166 112.252C214.556 107.111 214.266 101.94 213.262 96.7909C212.936 95.3339 212.46 93.9148 211.84 92.5567C211.412 91.5441 210.503 90.9647 209.416 90.7506Z" fill="#7D318B"/>
<path fill-rule="evenodd" clip-rule="evenodd" d="M242.545 122.884C239.57 123.078 236.65 123.295 233.484 123.136C233.609 122.806 233.761 122.486 233.94 122.181C234.45 121.519 234.683 120.683 234.589 119.851C234.4 117.531 234.247 115.209 234.073 112.798H230.434C230.321 113.229 230.17 113.667 230.097 114.118C229.616 117.076 229.108 120.03 228.712 123C228.629 123.637 228.964 124.327 229.123 125.088C228.116 125.506 226.928 125.484 225.77 125.453C224.152 125.411 222.529 125.657 220.792 125.499C222.929 122.058 223.274 118.295 223.857 114.627C225.116 106.683 226.241 98.7154 227.434 90.7557C227.748 88.6499 228.083 86.5466 228.468 84.4584C228.634 83.5642 228.705 82.7431 228.066 82C228.005 81.9295 228.03 81.7859 228.008 81.5995C228.921 81.3842 229.862 81.3036 230.799 81.3602C232.057 81.3829 233.316 81.5592 234.574 81.6121C235.354 81.6373 236.142 81.5365 236.927 81.5038C237.355 81.4861 237.816 81.4232 238.012 81.9647C237.164 83.6448 237.166 83.6448 237.448 85.7657C238.105 90.7279 238.797 95.6902 239.399 100.66C239.799 103.95 240.043 107.254 240.405 110.549C240.773 113.997 241.161 117.448 241.606 120.877C241.681 121.531 242.17 122.121 242.545 122.884ZM236.696 109.695C236.9 113.474 237.32 117.237 237.954 120.967C237.773 117.36 237.355 113.771 237.149 110.171C236.942 106.572 236.832 102.922 236.394 99.3123C235.956 95.7028 235.639 92.1511 235.254 88.5013L230.552 88.8791C230.049 91.6348 229.498 94.335 229.075 97.0579C228.35 101.733 227.728 106.426 227.026 111.106C226.455 114.927 225.828 118.741 225.234 122.559C225.225 122.745 225.236 122.932 225.267 123.116C225.511 122.846 225.667 122.509 225.715 122.149C226.3 118.454 226.881 114.752 227.456 111.043C227.61 110.053 227.738 109.937 228.748 109.904C230.993 109.83 233.239 109.762 235.488 109.698C235.84 109.688 236.19 109.695 236.696 109.695Z" fill="#7D318B"/>
<path fill-rule="evenodd" clip-rule="evenodd" d="M236.696 109.695C236.193 109.695 235.84 109.695 235.493 109.695C233.246 109.761 231 109.83 228.753 109.902C227.746 109.935 227.615 110.05 227.462 111.04C226.881 114.743 226.301 118.445 225.72 122.146C225.672 122.507 225.516 122.844 225.272 123.113C225.241 122.93 225.23 122.743 225.239 122.557C225.833 118.738 226.46 114.924 227.031 111.103C227.734 106.423 228.355 101.731 229.08 97.0555C229.503 94.3325 230.054 91.6323 230.557 88.8766L235.259 88.4988C235.639 92.1487 235.974 95.7356 236.399 99.3099C236.824 102.884 236.94 106.544 237.154 110.169C237.368 113.793 237.778 117.358 237.959 120.965C237.323 117.236 236.902 113.473 236.696 109.695ZM231.061 89.2796C230.437 90.9245 227.678 108.529 227.874 109.683L236.683 109.29C236.615 102.464 235.5 95.7859 235.005 88.9774L231.061 89.2796Z" fill="#F97716"/>
<path fill-rule="evenodd" clip-rule="evenodd" d="M231.061 89.2796L235.01 88.9824C235.513 95.7834 236.621 102.469 236.688 109.295L227.88 109.688C227.678 108.529 230.437 90.932 231.061 89.2796ZM232.823 97.6676H232.518C232.065 100.519 231.612 103.37 231.151 106.275H233.535C233.308 103.328 233.057 100.504 232.828 97.6676H232.823Z" fill="#7D318B"/>
<path d="M270.306 128.967C267.857 126.786 264.293 127.69 261.497 128.587C260.704 128.839 259.919 129.118 259.136 129.4C259.038 129.353 251.654 131.358 248.221 129.778L248.105 129.723C249.112 129.126 249.809 128.227 249.683 126.924C249.552 125.562 248.593 124.078 247.065 124.295C245.643 124.496 244.594 126.486 244.8 127.806C244.895 128.455 245.167 129.066 245.588 129.569C243.653 130.169 241.31 129.622 239.729 128.426C238.148 127.229 237.451 124.531 237.617 122.592C237.622 122.504 237.6 122.417 237.555 122.342C237.51 122.267 237.443 122.207 237.363 122.17C237.283 122.134 237.194 122.122 237.108 122.136C237.021 122.151 236.941 122.191 236.877 122.252C236.84 120.992 236.877 119.733 236.797 118.572C236.762 118.015 235.914 118.179 235.946 118.73C236.165 122.191 235.695 126.008 238.02 128.902C239.648 130.929 242.55 130.987 244.934 130.72C245.463 130.662 245.987 130.559 246.499 130.413C247.444 131.037 248.493 131.486 249.597 131.738C251.837 132.31 253.876 132.03 256.066 131.36C258.499 130.604 260.848 129.597 263.304 128.94C265.478 128.363 267.99 128.05 269.802 129.662C270.22 130.035 270.711 129.322 270.306 128.967ZM248.077 125.907C248.267 126.106 248.41 126.345 248.497 126.606C248.584 126.868 248.612 127.145 248.581 127.418C248.528 128.174 247.853 128.72 247.217 129.081C246.348 128.244 245.817 126.985 246.542 125.932C246.94 125.315 247.632 125.468 248.072 125.897L248.077 125.907Z" fill="#7D318B"/>
</svg>
