<svg xmlns="http://www.w3.org/2000/svg" xmlns:xlink="http://www.w3.org/1999/xlink" width="142" height="124" viewBox="0 0 142 123.536"><style>.A{fill:#7cbadb}.E{fill:#fff}.J{fill:#863399}.L{fill:#c1d4de}.N{fill:#f58520}.P{fill:#bab0a2}.Q{fill:#ebebeb}.S{fill:#d1d1d1}.T{fill:#b6d0d6}.U{fill:#c5e1e8}.X{fill:#615c53}.Y{fill:#ebddcc}.Z{fill:#393631;opacity:.49}.d{fill:#fedfb4}.e{fill:#283f54}.h{fill:#654433}.j{fill:#855934}.m{fill:#f0f4f5}.n{fill:#b59f80}.q{fill:#d9ddde}</style><defs><linearGradient id="A" x1=".002" x2=".996" y1=".504" y2=".504"><stop offset="0" stop-color="#393631"/><stop offset=".571" stop-color="#5f584e"/><stop offset="1" stop-color="#59544f"/></linearGradient><linearGradient id="B" x1=".233" x2=".548" y1=".503" y2=".503" xlink:href="#A"/><linearGradient id="C" x1=".749" x2=".222" y1=".175" y2="1.002"><stop offset="0"/><stop offset="1" stop-color="#fff"/></linearGradient><path id="D" d="M43.61 5.344l10.06-.63a13.53 13.53 0 0 1 2.2-2.2c-1.257 0-9.745.63-9.745.63-.883.68-1.723 1.415-2.514 2.2z"/><path id="E" d="M64.043 46.522a.63.63 0 0 0-.629.629.63.63 0 0 0 .629.629.63.63 0 0 0 .629-.629c-.023-.338-.29-.606-.63-.63z"/><path id="F" d="M101.136 110.648l-10.374 3.776c-.804.26-1.324 1.04-1.257 1.882 0 1.572 1.572.943 1.572.943l10.373-3.772c.805-.262 1.324-1.043 1.255-1.886a1.27 1.27 0 0 0-1.569-.943z"/></defs><path d="M126.283 98.388L52.727 74.812l-25.46 5.345-8.802-9.745-15.1 2.2c-5.972.943-2.2 3.458-2.2 3.458l11.63 7.23-2.83.63s-.943 0-1.257.63a1.36 1.36 0 0 0 .631 1.254l54.38 34.266s5.03 2.515 8.487 2.83a54.31 54.31 0 0 0 9.745-.314l45.265-21.06a1.57 1.57 0 0 0 .943-1.572c0-.948-1.886-1.572-1.886-1.572z" class="A"/><path d="M140.742 94.93c-.37.374-.794.69-1.257.943L87.62 112.848c-1.944.56-3.95.877-5.972.943-1.744-.077-3.454-.505-5.03-1.257L21.607 81.1l-.63-.63c-.18-.163-.29-.387-.314-.628v6.915c.023.24.135.466.314.63l.63.63 55 33.95c1.525.92 3.25 1.46 5.03 1.572 1.917-.085 3.817-.402 5.658-.943l52.495-18.86c.463-.252.886-.57 1.257-.943.36-.326.583-.774.63-1.257V93.36a6.87 6.87 0 0 0-.943 1.571z" fill="url(#A)"/><path d="M141.057 93.987c-.37.374-.794.69-1.257.943l-52.18 16.975c-1.944.56-3.95.877-5.972.943-1.744-.077-3.454-.505-5.03-1.257L21.293 80.156l-.63-.63c-.18-.163-.29-.387-.314-.628v6.915c.023.24.135.466.314.63l.63.63 55.324 33.95a12.99 12.99 0 0 0 5.033 1.571c1.917-.085 3.817-.402 5.658-.943l52.81-18.86c.463-.252.886-.57 1.257-.943.36-.326.583-.774.63-1.257v-8.173c-.318.314-.318.943-.946 1.57z" fill="#d6caba"/><path d="M138.856 90.216L65.3 69.155l-42.75 8.173s-1.572.314-1.886.943c-.314.943.943 1.572.943 1.572l55.323 31.12c1.525.92 3.25 1.46 5.03 1.572a17.13 17.13 0 0 0 5.344-.943l52.18-16.974s2.515-.63 2.515-2.515c-.314-1.258-3.143-1.886-3.143-1.886z" fill="#e6e6e6"/><path d="M119.053 84.558l-.63 16.974 13.83-4.4-.314-9.116z" class="E"/><path d="M138.542 90.845l-73.556-21.06-42.122 7.86s-.943 0-1.257.63c.032.402.27.76.63.943l54.38 30.805a10.7 10.7 0 0 0 4.715 1.257 24.8 24.8 0 0 0 5.344-.629l52.81-17.29a1.57 1.57 0 0 0 .943-1.572c0-.628-1.886-.942-1.886-.942z" fill="url(#B)"/><path d="M94.22 108.447l6.287-1.886 1.886-26.1-5.973-1.886z" fill="#33322e"/><path d="M103.965 105.304l17.29-5.658.943-13.517-16.346-4.715z" fill="#232122"/><path d="M79.132 111.276a6.13 6.13 0 0 0 2.515.314 24.8 24.8 0 0 0 5.344-.629l7.86-2.515 2.2-29.548-13.518-3.77z" fill="#413e39"/><path d="M49.27 45.265c.314-21.375 10.688-30.49 10.688-30.49L8.1 19.49C3.23 29.464 2.224 40.88 5.26 51.552c5.658 20.118 17.6 26.1 17.6 26.1l55.327 28.92 49.98-16.03-66.01-20.432S48.955 68.526 49.27 45.265z" class="J"/><path d="M57.128 43.065C56.185 25.147 75.36 2.83 89.2 0L28.523 2.515S7.148 16.974 7.776 45.265c.217 13.526 6.873 26.137 17.918 33.95l52.18 27.348 49.98-16.03L69.387 72.3s-11.002-4.088-12.26-29.235z" fill="#f2f2f2"/><path d="M11.862 47.15c5.658-.63 15.717-2.515 15.717-2.515l2.83-12.573L13.12 33.95c-1.04 4.32-1.464 8.764-1.258 13.202z" class="L"/><path d="M13.75 56.896s2.515 9.116 6.915 13.2c4.086-.943 0-15.088 0-15.088z" fill="#dbdbdb"/><path d="M12.492 53.123l5.344-1.257.627-3.458-6.6 1.257c.314 0 .63 2.83.63 3.458z" class="L"/><path d="M60.9 52.176c-.314-15.4 7.86-24.2 7.86-24.2l-46.838 4.086s-6.6 8.487-5.658 23.26c1.572 22 17.917 28.29 17.917 28.29L78.19 106.56l49.98-16.03-58.153-17.918s-8.8-2.2-9.115-20.436z" class="N"/><path d="M31.036 40.864L20.35 42.12c0 .314-.314.63-.314.943l10.688-1.257c0-.314.312-.63.312-.943zm13.832 3.458l-11 1.257c.043.346-.073.692-.314.943l11-1.257c-.002-.314.314-.63.314-.943zm-1.57-1.257l-9.43.943v.63l9.116-.943c0-.315 0-.63.314-.63zm-13.203 5.972L18.78 50.294v.63l11.316-1.257zm.312-6.287L19.72 44.007c0 .314 0 .63-.314.63l10.688-1.257c.312 0 .312-.315.312-.63zm-.63 4.715l-11 1.257v.63l11-1.257zM46.44 37.72c-4.4.314-11 1.257-11 1.257a2.46 2.46 0 0 1-.314.943l11-1.257c-.002-.314.314-.63.314-.943zm12.888-1.257l-9.745.943c-.023.24-.135.466-.314.63l9.745-.943c.314 0 .314-.315.314-.63zm-40.55 16.03l11.316-1.257v-.943L18.778 51.55zm41.177-14.46l-10.685 1.26c0 .314-.314.63-.314.943l10.688-1.257a1.16 1.16 0 0 0 .312-.943zm-1.57 4.716l-10.06 1.257c.043.346-.073.692-.314.943l10.06-.943c.22-.382.328-.817.314-1.257zm.315 1.572l-10.688 1.26v.943L58.7 45.265zm-11.317 5.344c3.143-.314 11.316-1.572 11.316-1.572v-.314l-11.316.943zm.315-1.886l11.316-1.257v-.63L47.698 47.15zm-13.203-6.287l11.63-1.257c-.043-.346.073-.692.314-.943L34.8 40.55c0 .315-.314.63-.314.943zm13.83 1.572l10.688-1.257c0-.314 0-.63.314-.63l-10.687 1.26c-.314.315-.314.315-.314.63zm.315-1.57l11.316-1.257c-.043-.346.073-.692.314-.943l-11.316 1.572a1.1 1.1 0 0 1-.314.628zm-14.46 1.572l11.316-1.257c0-.314 0-.63.314-.63l-11.316 1.257c-.314.315-.314.315-.314.63zm-13.516-1.887l11.63-1.257c0-.314.314-.63.314-.943-3.897.212-7.78.632-11.63 1.257a1.16 1.16 0 0 0-.314.943zm-1.57 6.602L30.4 46.523v-.943l-11.316 1.57zm.313-1.572l11.945-1.257v-.63l-11.945 1.26v.63zm13.83 1.572l11.63-1.257v-.943l-11.63 1.572zm-.314 1.57l11.63-1.257v-.63L32.6 48.722c.314.315.314.315.314.63zm.001 1.887c3.143-.314 11.945-1.886 11.945-1.886v-.314l-11.945 1.257z" class="E"/><path d="M60.9 52.494v-4.086l-44.95 6.287v.313c1.572 22 17.917 28.292 17.917 28.292l11.316 5.972c10.688-4.086 26.72-11 33.006-14.46L69.7 72.298c.315.3-8.487-1.257-8.8-19.804z" class="N"/><path d="M19.092 60.038c1.257 0 8.487-1.572 8.487-1.572l.63-2.828-9.43 1.572a12.16 12.16 0 0 0 .314 2.828zm6.916 2.83l-6.287 1.257v.63l6.287-1.257zm.315.932l-6.287 1.257v.63l6.287-1.257zm-5.03 4.717c-.002.084.03.165.1.224s.14.092.224.1l5.972-1.257v-.63zm5.657-3.45l-6.287 1.257c0 .314 0 .314.314.314l6.286-1.257zm.316.942l-6.287 1.257c-.002.084.03.165.1.224s.14.092.224.1l6.286-1.257zm-7.854-3.457c1.257 0 8.487-1.572 8.487-1.572l.943-1.572-9.43 1.573c-.32 0 0 .628 0 1.57z" class="E"/><path d="M62.47 62.554L20.664 71.04c3.097 5.565 7.8 10.06 13.517 12.888l9.116 4.715L66.244 81.1c5.03-2.2 9.43-4.4 12.26-5.972l-8.487-2.515s-5.03-1.26-7.545-10.06z" class="N"/><path d="M89.82 121.02l5.03-1.886.943-10.06-5.344 1.572z" fill="#aea693"/><path d="M51.47 97.13l2.83 10.373L72.53 118.82l-2.2-11z" class="P"/><path d="M9.977 28.915l52.495-5.03c4.405-7.54 10.687-14.77 16.974-19.17l-57.2 3.458A53.16 53.16 0 0 0 9.977 28.915z" class="E"/><path d="M21.293 14.774l24.833-1.886c.943-.943 1.572-1.886 2.515-2.83L23.808 11.63c-.988.918-1.836 1.977-2.515 3.143zm-3.143 4.4l32.377-2.515c.943-.943 1.257-1.886 2.2-2.83l-32.377 2.2c-.88.938-1.62 1.997-2.2 3.144z" class="Q"/><path d="M17.207 20.747l9.43-.63c.314-.314.314-.63.63-.943l-9.43.63c-.315.314-.63.628-.63.943zm10.373-.63l6.915-.63.63-.628-6.915.314c-.315.315-.315.63-.63.943zm7.858-.627l6.915-.63c.314-.314.314-.63.63-.943l-6.915.314c-.315.63-.315.943-.63 1.258z" class="L"/><path d="M22.236 8.173l16.346-.943c1.803-1.98 3.804-3.77 5.972-5.344-2.83 0-16.03.63-16.03.63S25.38 5.03 22.236 8.173z" fill="#adc2cc"/><use xlink:href="#D" class="S"/><use xlink:href="#D" x="12.26" y="-0.629" class="S"/><path d="M67.815 4.086l10.06-.63 3.458-2.2c-1.257 0-10.688.63-10.688.63a16.82 16.82 0 0 0-2.829 2.2z" class="S"/><path d="M18.778 38.035l46.208-4.086c1.032-2.125 2.297-4.128 3.772-5.973L21.92 32.062a15.25 15.25 0 0 0-3.143 5.973z" class="J"/><path d="M21.607 36.464l8.8-.63 1.26-2.83-8.8.63zm35.835-4.402l6.915-.63.63-1.57-6.915.63zm-8.487.638l7.23-.63.63-1.257-6.915.314zm-8.173.63l7.23-.63.63-1.257-7.23.63zm26.1 28.595c-2.2-7.86 0-17.3 0-17.3l-39.92 5.972s-2.83 10.688.63 20.747C31.666 83.3 39.84 86.443 39.84 86.443l38.035 19.8 49.98-16.03L81.02 75.757c.314.314-11.317-2.52-14.146-13.83z" class="E"/><path d="M65.93 51.237l-39.922 6.6a32.47 32.47 0 0 0 1.886 13.831c.478 1.68 1.22 3.27 2.2 4.715l38.978-9.43c-.86-1.51-1.597-3.086-2.2-4.715a27.09 27.09 0 0 1-.942-11.001z" class="E"/><use xlink:href="#E" class="T"/><path d="M62.472 46.836a.63.63 0 0 0-.629.629.63.63 0 0 0 .629.629.63.63 0 0 0 .629-.629c-.001-.315-.001-.63-.63-.63z" class="T"/><use xlink:href="#E" x="-3.143" y="0.628" class="T"/><use xlink:href="#E" x="-4.715" y="0.943" class="T"/><path d="M28.837 55l5.344-.943v-2.2l-5.03.943zm6.287-1.258l5.344-.63.314-2.2-5.344.63zm6.6-.932l8.173-1.258.314-2.2-8.173 1.257z" class="T"/><path d="M28.208 60.98v2.2l16.974-3.458v-1.885zm.314 3.145v2.2l13.83-2.83V61.6zm.315 3.458l.314.943 7.23-1.257-.314-1.258zM37 66v.943L42.03 66v-.943z" class="U"/><path d="M33.552 77.956l1.257 1.572 25.46-6.288-1.57-1.57zm2.2 2.828l1.257 1.257 17.917-4.715-1.257-.942z" class="T"/><path d="M63.1 98.7l15.088 7.86 49.98-16.03-16.03-5.028z" class="J"/><path d="M126.283 93.673c-.943 0-1.572.314-1.572.63s.63.63 1.572.63 1.572-.314 1.572-.63c.314-.315-.63-.63-1.572-.63z" fill="#303030"/><path d="M126.283 94.302c-.314 0-.63 0-.63.314a1.1 1.1 0 0 0 .629.314c.314 0 .63 0 .63-.314a1.1 1.1 0 0 0-.629-.314z" fill="#4f545e"/><path d="M141.057 93.987c-.372.374-.796.692-1.26.943l-12.886 4.087-.314 8.8 13.517-4.715c.463-.252.886-.57 1.257-.943.36-.326.583-.774.63-1.257V92.73c-.315 0-.315.63-.943 1.257z" class="P"/><use xlink:href="#F" class="X"/><use xlink:href="#F" x="0.314" y="0.314" class="Y"/><path d="M67.815 109.706l-17.29-10.06s-.943-.63-.943.314a1.57 1.57 0 0 0 .943 1.572l17.29 10.374s.943.314.943-.63a2.17 2.17 0 0 0-.943-1.571z" class="X"/><path d="M67.5 110.02l-17.29-10.373s-.943-.63-.943.314a1.57 1.57 0 0 0 .943 1.572l17.29 10.374s.943.314.943-.63a1.4 1.4 0 0 0-.943-1.258z" class="X"/><path d="M49.27 100.275a1.57 1.57 0 0 0 .943 1.572l8.173 5.03v-2.2l-8.173-5.03s-.943-.315-.943.628zm18.23 9.745L58.7 105v2.2l8.8 5.03s.943.314.943-.63a1.57 1.57 0 0 0-.943-1.571z" class="Y"/><path d="M65.615 80.158c-1.886-.63-16.03-.63-16.03.314 0 .63.63.943.943 1.257 7.23 4.4 27.976 16.66 36.15 20.118 4.987 2.096 10.137 3.778 15.4 5.03l14.463-4.718c-3.772-2.2-7.23-3.772-9.745-5.03-9.43-4.084-33-13.514-41.18-16.97z" class="Z"/><path d="M102.08 106.875l2.83 9.745c3.77-1.257 7.544-2.83 11.63-4.086 0-2.2.314-4.715.314-10.06z" class="Z"/><path d="M108.05 92.416c-10.373-4.088-34.89-11.945-43.38-14.46a7.55 7.55 0 0 0-3.143-.629c-.74.06-1.474.163-2.2.314l-10.06.943s-.63 0-.63 1.257c0 .63.63.943 1.257 1.257 7.544 4.086 30.177 15.717 38.664 18.86 11 4.086 33.006 6.287 38.978 6.287 2.83 0 4.086-.63 4.086-.943-2.2-3.142-17.917-10.686-23.575-12.887z" fill="#949494"/><path d="M107.737 91.787C97.363 87.7 72.845 79.842 64.355 77.328a7.55 7.55 0 0 0-3.143-.629c-.74.06-1.474.163-2.2.314L49.584 78.9s-.63 0-.63.943c0 .63.314.63.943.943 7.544 4.087 30.177 15.714 38.664 18.86 11 4.086 40.864 7.86 43.065 6.287 1.57-2.2-17.604-11.945-23.9-14.146z" class="S"/><path d="M107.737 91.787c-10.373-4.088-34.895-11.945-43.38-14.46a7.55 7.55 0 0 0-3.143-.629c-.74.06-1.474.163-2.2.314l-3.772.63 76.07 27.976c1.886-1.886-17.288-11.63-23.575-13.83z" fill="#f0f0f0"/><path d="M104.908 116.62s12.26 2.83 14.145 1.886c2.2-.943-2.83-5.972-2.83-5.972z" class="A"/><path d="M92.648 93.673S56.813 93.36 60.9 89.587a118.23 118.23 0 0 1 11.945-8.173l-8.173-1.886-33.006 6.287 30.177 16.974s28.923-5.03 33.005-3.46c2.83 1.257 8.487 0 8.487 0l-4.086-4.4z" opacity=".37" fill="url(#C)"/><path d="M114.967 51.55a3.78 3.78 0 0 0-2.515-.629c-.794-.33-1.664-.44-2.515-.314-.314.314-5.344-.943-7.23-3.143.314 2.515-.943 4.4-1.257 4.4l6.915 1.257c.313.513.744.944 1.257 1.257.218.264.33.6.314.943 0 .314 0 1.257.63 1.257s1.257-.63 1.572-1.572a2.4 2.4 0 0 0-.629-1.572 12.81 12.81 0 0 0 2.2-.629h1.886c.168.004.33-.062.45-.18s.184-.28.18-.45c-.346-.33-.784-.548-1.256-.626z" class="d"/><path d="M99.878 91.788s-2.83-.314-3.772.314a4.91 4.91 0 0 0-1.886 2.515c-.336 1.022 5.972 7.86 9.745 4.715s-4.087-7.544-4.087-7.544zM70.644 78.9a28.94 28.94 0 0 0-4.715-.314c-.63.314-6.6 3.458-4.715 5.03 1.886 1.886 11-1.572 11.945-2.83.943-.943-1.572-1.57-2.515-1.886z" class="e"/><path d="M100.192 81.728c0-1.257 0-2.2-1.572-4.4-1.257-2.2-5.03-12.26-5.972-15.4-2.5 1.656-5.523 2.326-8.487 1.882-2.83-.314-4.4-1.572-7.23-4.4a102.9 102.9 0 0 0-12.888 9.116c-.545.85-.87 1.822-.943 2.83s.943 6.287 1.257 7.86 1.572 3.143 6.287 2.515S74.1 78.9 74.1 78.9l-3.458-5.344s9.116-3.458 11.63-4.086c2.83 6.287 11 12.574 11 12.574S91.39 88.958 91.7 92.416s7.86 5.03 10.06 4.086 1.572-2.515 1.257-3.458-2.824-10.058-2.824-11.316z" class="A"/><path d="M96.735 41.493a4.34 4.34 0 0 0-1.257.943c-.314 2.83-3.143 3.143-4.715 3.143a6.7 6.7 0 0 1-5.658-3.458 37.14 37.14 0 0 1-4.086 1.886 112.28 112.28 0 0 0-10.371 4.716c-1.886 2.2 1.257 7.86 3.143 7.544a16.58 16.58 0 0 1 4.4-3.143c1.63-.8-.314 4.715-1.257 6.6a9.26 9.26 0 0 0 6.914 4.087c4.086.314 6.915-.314 8.8-1.886.314-3.143 1.257-8.487 3.772-11.316a15.79 15.79 0 0 0 4.086 1.572c1.572-.314 3.143-3.458 1.886-5.344-1.256-.315-2.828-1.258-5.657-5.344z" class="J"/><path d="M70.644 49.037c-3.458 1.572-10.688 7.23-11 7.23-1.886.314-5.03.943-5.972 1.257-1.257.314-1.257.943-1.257 1.257-1.572.63-.943 1.572-.943 1.572a.69.69 0 0 0-.314.943c0 .63.63.63 1.257.314a19.29 19.29 0 0 1 6.6-.943c-1.257 2.515-.63 4.4.314 4.4s.943-1.886 1.257-2.515l2.2-2.2c.63-.314.943-2.2.943-2.2 3.008-1.918 6.16-3.6 9.43-5.03-.376-1.598-1.258-3.03-2.515-4.086zm13.83-27.033c-2.83 5.344 2.2 12.574 1.572 19.5l-.943.63c1.104 1.96 3.102 3.254 5.344 3.458 5.03.314 5.03-3.143 5.03-3.143l1.257-.943a24.76 24.76 0 0 0 5.029-17.289c-.942-10.374-13.83-8.802-17.288-2.2z" class="d"/><path d="M111.195 32.377c0-.314-.314-.314 0 0-.314-.314-.314 0 0 0z" fill="#caa57e"/><path d="M102.393 30.176c-.74.06-1.474.163-2.2.314-.168-.004-.33.062-.45.18s-.184.28-.18.45h-.315s0-.63-.63-.314c-.63 0-3.143.314-3.143.314-.084-.002-.165.03-.224.1s-.092.14-.1.224c-.63-.314-4.715-1.572-4.715-1.572l-.63.314 5.03 1.887v2.515c-.004.168.062.33.18.45s.28.184.45.18a27.23 27.23 0 0 0 3.143-.629c.314 0 .314-.314.63-.63v-1.886h.314v2.2s0 .63.63.314c.755-.123 1.494-.334 2.2-.63a1.1 1.1 0 0 0 .314-.629v-2.2s.001-1.256-.313-.942zm-3.458 3.143c0 .63-.314.63-.314.63-.927.278-1.872.488-2.83.63-.63 0-.314-.314-.314-.314v-2.2c0-.314.63-.63.63-.63l2.515-.314c.63 0 .63.314.63.314-.16.62-.265 1.25-.316 1.887zm3.458-.314c-.657.112-1.293.324-1.886.63-.084.002-.165-.03-.224-.1s-.092-.14-.1-.224v-2.2c-.002-.084.03-.165.1-.224s.14-.092.224-.1c.517-.135 1.042-.24 1.572-.314.084-.002.165.03.224.1s.092.14.1.224v1.886c.314-.001 0 .313 0 .313z" fill="#77503d"/><path d="M97.363 38.35c-.314 0-.63 0-1.886-.63-.4-.217-.726-.544-.943-.943-.314 0-.314 0-.314.314 1.886 1.572 2.83 1.257 3.143 1.257zm-3.143-2.515c0-.314-.314-.314-.63 0-.314 0-.63.63-.63.63v.3c.314 0 .314 0 .314-.314l.63-.63c.001.318.315.318.315.004zm1.886-9.117c-.63.314-2.2 1.257-1.886 1.572 0 .314 1.572-.63 1.886-.943.63-.314 1.572-.314 1.257-.63 0-.628-.628-.314-1.257 0zm4.4-.618c-.63 0-1.572 0-1.572.63 0 .314.943 0 1.572 0s1.257.314 1.257 0-.943-.63-1.257-.63zm0 5.334c-.314 0-.314.314-.314.63s0 .63.314.63.314-.314.314-.63.001-.63-.314-.63zm-2.2.63c-.314 0-.314.314-.314.63s0 .63.314.63.314-.314.314-.63c.001-.63-.314-.63-.314-.63z" class="h"/><path d="M99.88 13.517a1.1 1.1 0 0 0 .629-.314c-.486-.465-1.012-.885-1.572-1.257.314-.314 1.257-.63 1.257-1.886l-.943.943s.314-1.572-.314-2.2a1.52 1.52 0 0 0-2.2 0c.63 0 1.572-.314 1.572.63s-.63 1.884-1.262 1.884c-.943 0-2.515-.314-2.83 0l-1.886.943s-3.143-2.2-5.972 1.257a6.92 6.92 0 0 1 .314-2.515 4.18 4.18 0 0 0-.943 2.515 20.17 20.17 0 0 0-3.143-1.886c-1.103-.532 2.2 1.572 2.515 1.886-1.15-.356-2.392-.243-3.458.314.943-.314 2.83-.314 3.458.314-1.266-.012-2.494.435-3.456 1.26-.9.858-1.553 1.944-1.886 3.143-.314.314-2.515 1.572-2.515 3.772.047 1.596.597 3.136 1.572 4.4a6.42 6.42 0 0 0 .629 2.829 5.63 5.63 0 0 0 2.2 1.572c-.165.724-.165 1.476 0 2.2a18.62 18.62 0 0 0 1.257 1.886 4.6 4.6 0 0 0 .943 1.575c.46.257.882.574 1.257.943.003.54.1 1.073.314 1.572a12.36 12.36 0 0 1 .629 1.885c.006-.744.11-1.484.314-2.2.314-.943.63-2.83-.63-5.972-.314-.943 0-2.2 1.257-2.2 1.257-.314 3.772-.63 5.03-1.886.943-1.257 2.2-4.715 0-6.6-.314-.314-1.572-4.086 5.03-2.2 2.2.63.943-2.515 2.515-.63 1.216 1.542 1.978 3.393 2.2 5.344a40.82 40.82 0 0 0 .629-5.658c-.31-2.52-1.254-5.034-2.51-5.662z" fill="#663d19"/><path d="M102.393 19.5v-.314c-.314-2.2-1.257-4.715-2.515-5.344a1.1 1.1 0 0 0 .629-.314 6.42 6.42 0 0 0-1.572-1.572c.314-.314 1.257-.63 1.257-1.886l-.943.943s.314-1.572-.314-2.2a1.52 1.52 0 0 0-2.2 0c.63 0 1.572-.314 1.572.63s-.63 1.886-1.257 1.886c-.943 0-2.515-.314-2.83 0l-1.886.943h-.316a4.33 4.33 0 0 0-3.458 0c-.314 0-.314.314-.63.314l-.314.314c1.106-.402 2.298-.5 3.458-.314.314 0 1.257.63 2.2.314a8.7 8.7 0 0 1 4.086.314c.63.314 1.572 2.2 2.515 3.143s2.2 1.257 2.515 3.772v-.63zM79.76 18.23c-.315.314-2.515 1.572-2.515 3.773a7.57 7.57 0 0 0 1.572 4.4 6.42 6.42 0 0 0 .629 2.829 5.63 5.63 0 0 0 2.2 1.572 4.95 4.95 0 0 0 0 2.2 18.56 18.56 0 0 0 1.257 1.886 17.03 17.03 0 0 1-.314-2.515v-1.57c-.314-.63-.943-1.572-.63-2.2.314-.314-.943-2.2-1.257-2.83s-.314-3.772.314-4.4c0-.943.943-2.515.943-3.772 0-1.572.63-3.143 1.572-3.458-.63.314-1.257.314-1.886.943-.943.628-1.572 2.828-1.886 3.142z" class="j"/><path d="M77.874 53.438a7.32 7.32 0 0 1-.314 3.458l-.943 3.143c.564.595 1.09 1.225 1.572 1.886.314-.63.943-3.772.63-4.4s.314-1.886 0-2.83a3.41 3.41 0 0 1 .629-2.515z" class="J"/><path d="M92.963 80.786l-6.915-6.915a22.61 22.61 0 0 1-3.143-4.715c-.846-1.697.943-.314 2.2-.63s-1.257 0-2.2 0-1.572-.63-1.886-.63c0 0 .63.63.63.943s-1.257.63-2.515.943l-7.86 3.458-1.887.943 7.86-3.143c1.886-.63 5.03-1.572 5.03-1.257a44.8 44.8 0 0 0 3.458 4.713c1.722 2.042 3.613 3.936 5.654 5.66l3.143 2.515c-.466-.673-1-1.305-1.567-1.886z" fill="#004a6e"/><path d="M102.392 97.13c-.63.63.63 2.2 1.572 1.572 1.886-1.572-.63-4.4-.63-4.4.385 1.047-.006 2.222-.943 2.828z" fill="#93b5cf"/><path d="M86.362 63.18a7.55 7.55 0 0 0 5.658-1.572c.314-1.256.942-3.142 1.572-5.028-1.258 3.458-2.2 5.972-7.23 6.6z" class="m"/><path d="M55.87 57.524c-.943.314-3.458.943-3.458.943v.314l3.458-1.257zm-4.4 2.83c.63-.314 3.458-1.257 5.03-1.886a34.6 34.6 0 0 0-5.03 1.886z" class="n"/><path d="M114.652 51.552a11.06 11.06 0 0 0-3.772.629 13.47 13.47 0 0 1 3.772-.629zm-2.2-.63a5.53 5.53 0 0 0-1.886.314c.943 0 2.2-.314 2.515-.314z" fill="#baa483"/><path d="M92.02 42.436c.63.63 2.2 1.572 4.715-.63 0-.314-2.515 1.576-4.715.63z" fill="#c7af8d"/><path d="M81.332 44.008h-.314c.63.314 1.257 1.257 2.515 2.83a14.3 14.3 0 0 0-2.201-2.829zm-9.43 4.086c-.084-.002-.165.03-.224.1s-.092.14-.1.224c.63.314 2.515 1.886 3.143 5.658-.314-4.4-2.83-5.972-2.83-5.972z" class="q"/><path d="M54.927 61.296a32.37 32.37 0 0 1 4.086-.314c-.243.5-.453 1.035-.63 1.572 0-.314.63-1.257.63-1.572-.943-.314-4.086.314-4.086.314z" class="n"/><path d="M95.792 34.263h.63l.628-3.143-.943.314zm5.658-.943l.63-.314.314-2.515h-.63z" class="E"/><path d="M85.733 31.12c-.362.577-.362 1.31 0 1.886a1.52 1.52 0 0 0 2.2 0c-1.572.314-2.2-.63-2.2-1.886z" class="h"/><path d="M95.163 42.436c-.314 2.83-3.143 3.143-4.715 3.143a6.7 6.7 0 0 1-5.658-3.458l-1.886.943a12 12 0 0 0 2.829 2.829c1.506 1.447 3.584 2.14 5.658 1.886a5.84 5.84 0 0 0 4.713-2.828 11.06 11.06 0 0 0 .629-3.772 2.79 2.79 0 0 1-1.57 1.257z" class="m"/><path d="M71.273 54.38c.507.853 1.28 1.515 2.2 1.886.314-.63-.314-2.515-.314-2.515z" class="q"/><path d="M70.644 49.037s1.886 2.83 1.886 4.4l.314-.314a7 7 0 0 0-2.2-4.086z" fill="#cfb592"/><path d="M101.135 46.522a7.7 7.7 0 0 1-.314 4.715c1.257-1.886.63-4.715.63-4.715z" class="q"/></svg>