<svg xmlns="http://www.w3.org/2000/svg" xmlns:xlink="http://www.w3.org/1999/xlink" viewBox="0 0 967.3 1065.3"><style>.C{fill:#fff}.E{fill:#d88d6c}.F{fill:#444139}.G{fill:#2d2a25}.H{fill:#efeded}.I{fill:#eae7e4}.K{fill:#824341}.L{fill:#a4c13a}.M{fill:#808230}.N{fill:#b7e046}.O{fill:#f4a984}.P{fill:#b55735}.Q{fill:#6a371a}.R{fill:#d87c60}.T{fill:#ff8300}.W{fill:#cc705a}.X{fill:#511e14}.Y{fill:#68635b}.Z{fill:#4f4b43}.a{fill:#3a3731}.b{fill:#ba7b7b}.d{fill:#177d8e}.e{fill:#73c3d5}.f{fill:#56362e}.g{fill:#863399}.l{fill:#4d5766}.n{fill:#224d77}.p{fill:#67127c}.t{opacity:0.4}.u{opacity:0;fill:#e3574e}.v{opacity:9.090909e-02;fill:#e3574e}.w{opacity:0.1818;fill:#e3574e}.x{opacity:0.2727;fill:#e3574e}.y{opacity:0.3636;fill:#e3574e}.z{opacity:0.4545;fill:#e3574e}.AA{opacity:0.5455;fill:#e3574e}.AB{opacity:0.6364;fill:#e3574e}.AC{opacity:0.7273;fill:#e3574e}.AD{opacity:0.8182;fill:#e3574e}.AE{opacity:0.9091;fill:#e3574e}.AF{fill:#e3574e}</style><pattern x="-692" y="1250.1" width="69" height="69" patternUnits="userSpaceOnUse" viewBox="2.1 -70.9 69 69" overflow="visible"><path d="M2.1-70.9h69v69h-69z" fill="#f6bb60"/><use xlink:href="#B" class="C"/><use xlink:href="#B" x="-7.7" class="C"/><use xlink:href="#B" x="-15.4" class="C"/><use xlink:href="#B" x="-23" class="C"/><use xlink:href="#B" x="-30.7" class="C"/><use xlink:href="#B" x="-38.4" class="C"/><use xlink:href="#B" x="-46" class="C"/><path class="C" d="M8.1-71.7v.2l-.2.2c-.1.1-.1.3-.1.4-.2.1 0 .2 0 .3v.2c0 .1 0 .3.1.4.1.2.3.4.4.5.2.1.4.6.6.6s.4-.1.5-.1c.2 0 .4 0 .6-.1s.1-.3.3-.5c.1-.1.3 0 .4-.1.2-.1.3-.3.4-.5v-.2c0-.1.1-.2.1-.3s-.1-.1-.1-.2v-.3c0-.2 0-.4-.1-.5-.4-.7-1.2-.9-2-.8-.2 0-.3.1-.4.2-.2.1-.1.2-.3.2-.1 0-.2.1-.2.2v.2c0 .1 0 .1 0 0m-7.7 0v.2c-.1.1-.1.1-.2.1-.1.1-.1.3-.1.4-.2.1 0 .2 0 .3v.2c0 .1 0 .3.1.4.1.2.3.4.4.5.2.2.4.6.6.7.2 0 .4-.1.5-.1.2 0 .4 0 .6-.1s.1-.3.3-.5c.1-.1.3 0 .4-.1.2-.1.3-.3.4-.5v-.2c0-.1.1-.2.1-.3s-.1-.1-.1-.2v-.3c0-.2 0-.4-.1-.5-.4-.7-1.2-.9-2-.8-.2 0-.3.1-.4.2-.2.1-.1.2-.3.2-.1 0-.2.1-.2.2v.2c0 .1 0 .1 0 0"/><use xlink:href="#B" x="7.6" class="C"/><path class="C" d="M.5-71.7v.2c-.1.1-.1.1-.2.1-.1.1-.1.3-.1.4-.2.1 0 .2 0 .3v.2c0 .1 0 .3.1.4.1.2.3.4.4.5.2.2.3.6.6.7.2 0 .4-.1.5-.1.2 0 .4 0 .6-.1s.1-.3.3-.5c.1-.1.3 0 .4-.1.2-.1.3-.3.4-.5v-.2c0-.1.1-.2.1-.3s-.1-.1-.1-.2v-.3c0-.2 0-.4-.1-.5-.4-.7-1.2-.9-2-.8-.2 0-.3.1-.4.2-.2.1-.1.2-.3.2-.1 0-.2.1-.2.2v.2c0 .1 0 .1 0 0"/><use xlink:href="#C" class="C"/><use xlink:href="#C" x="-7.6" class="C"/><use xlink:href="#C" x="-15.3" class="C"/><use xlink:href="#C" x="-22.9" class="C"/><use xlink:href="#C" x="-30.6" class="C"/><use xlink:href="#C" x="-38.3" class="C"/><use xlink:href="#C" x="-45.9" class="C"/><use xlink:href="#C" x="-53.6" class="C"/><path class="C" d="M8.2-64v.2c-.1.1-.2.1-.2.1-.1.1-.1.3-.1.4-.2.1 0 .2 0 .3v.2c0 .1 0 .3.1.4 0 .2.2.4.3.5.2.1.4.6.6.6s.4-.1.5-.1c.2 0 .4 0 .6-.1s.1-.3.3-.5c.1-.1.3 0 .4-.1.2-.1.3-.3.4-.5v-.2c0-.1.1-.2.1-.3s-.1-.1-.1-.2v-.3c0-.2 0-.4-.1-.5-.4-.7-1.2-.9-2-.8-.2 0-.3.1-.4.2-.2.1-.1.2-.3.2-.1 0-.2.1-.2.2.1.3.1.2.1.3-.1 0-.1 0 0 0M.5-64v.2c-.1.1-.1.1-.2.1-.1.1-.1.3-.1.4-.2.1 0 .2 0 .3v.2c0 .1 0 .3.1.4.1.2.3.4.4.5.2.1.4.6.6.6s.4-.1.5-.1c.2 0 .4 0 .6-.1s.1-.3.3-.5c.1 0 .3.1.4 0 .2-.1.3-.3.4-.5v-.2c0-.1.1-.2.1-.3s-.1-.1-.1-.2v-.3c0-.2 0-.4-.1-.5-.4-.7-1.2-.9-2-.8-.2 0-.3.1-.4.2-.2.1-.1.2-.3.2-.1 0-.2.1-.2.2v.2"/><use xlink:href="#C" y="7.7" class="C"/><use xlink:href="#C" x="-7.6" y="7.7" class="C"/><path class="C" d="M54.1-56.3v.2c-.1 0-.1 0-.2.1s-.1.3-.1.4c-.2.1 0 .2 0 .3v.2c0 .1 0 .3.1.4.1.2.3.4.4.5.2.1.4.6.6.6s.4-.1.5-.1c.2 0 .4 0 .6-.1s.1-.3.3-.5c.1-.1.3 0 .4-.1.2-.1.3-.3.4-.5v-.2c0-.1.1-.2.1-.3s-.1-.1-.1-.2v-.3c0-.2 0-.4-.1-.5-.4-.7-1.2-.9-2-.8-.2 0-.3.1-.4.2-.2.1-.1.2-.3.2-.1 0-.2.1-.2.2v.3"/><use xlink:href="#C" x="-22.9" y="7.7" class="C"/><use xlink:href="#C" x="-30.6" y="7.7" class="C"/><use xlink:href="#C" x="-38.3" y="7.7" class="C"/><use xlink:href="#C" x="-45.9" y="7.7" class="C"/><use xlink:href="#C" x="-53.6" y="7.7" class="C"/><use xlink:href="#D" class="C"/><use xlink:href="#C" x="-68.9" y="7.7" class="C"/><use xlink:href="#C" y="15.3" class="C"/><use xlink:href="#C" x="-7.6" y="15.3" class="C"/><use xlink:href="#C" x="-15.3" y="15.3" class="C"/><use xlink:href="#C" x="-22.9" y="15.3" class="C"/><use xlink:href="#C" x="-30.6" y="15.3" class="C"/><use xlink:href="#C" x="-38.3" y="15.3" class="C"/><use xlink:href="#C" x="-45.9" y="15.3" class="C"/><use xlink:href="#C" x="-53.6" y="15.3" class="C"/><path class="C" d="M8.2-48.7v.2c-.1.1-.2.1-.2.1-.1.1-.1.3-.1.4-.2.1 0 .2 0 .3v.2c0 .1 0 .3.1.4.1.2.3.4.4.5.1.2.3.6.5.6s.4-.1.5-.1c.2 0 .4 0 .6-.1s.1-.3.3-.5c.1-.1.3 0 .4-.1.2-.1.3-.3.4-.5v-.2c0-.1.1-.2.1-.3s-.1-.1-.1-.2v-.3c0-.2 0-.4-.1-.5-.4-.7-1.2-.9-2-.8-.2 0-.3.1-.4.2-.2.1-.1.2-.3.2-.1 0-.2.1-.2.2.1.3.1.2.1.3-.1 0-.1 0 0 0m-7.7 0v.2c-.1.1-.1.1-.2.1-.1.1-.1.3-.1.4-.2.1 0 .2 0 .3v.2c0 .1 0 .3.1.4.1.2.3.4.4.5.2.2.3.6.6.6.2 0 .4-.1.5-.1.2 0 .4 0 .6-.1s.1-.3.3-.5c.1-.1.3 0 .4-.1.2-.1.3-.3.4-.5v-.2c0-.1.1-.2.1-.3s-.1-.1-.1-.2v-.3c0-.2 0-.4-.1-.5-.4-.7-1.2-.9-2-.8-.2 0-.3.1-.4.2-.2.1-.1.2-.3.2-.1 0-.2.1-.2.2v.3"/><use xlink:href="#C" y="23" class="C"/><use xlink:href="#C" x="-7.6" y="23" class="C"/><use xlink:href="#C" x="-15.3" y="23" class="C"/><use xlink:href="#C" x="-22.9" y="23" class="C"/><use xlink:href="#C" x="-30.6" y="23" class="C"/><use xlink:href="#C" x="-38.3" y="23" class="C"/><use xlink:href="#C" x="-45.9" y="23" class="C"/><use xlink:href="#C" x="-53.6" y="23" class="C"/><use xlink:href="#D" y="15.3" class="C"/><path class="C" d="M.5-41v.2c-.1.1-.1.1-.2.1-.1.1-.1.3-.1.4-.2.1 0 .2 0 .3v.2c0 .1 0 .3.1.4.1.2.3.4.4.5.2.1.4.6.6.6s.4-.1.5-.1c.2 0 .4 0 .6-.1s.1-.3.3-.5h.4c.2-.1.3-.3.4-.5v-.2c0-.1.1-.2.1-.3s-.1-.1-.1-.2v-.3c0-.2 0-.4-.1-.5-.4-.7-1.2-.9-2-.8-.2 0-.3.1-.4.2-.2.1-.1.2-.3.2-.1 0-.2.1-.2.2v.2"/><use xlink:href="#C" y="30.6" class="C"/><use xlink:href="#C" x="-7.6" y="30.6" class="C"/><use xlink:href="#C" x="-15.3" y="30.6" class="C"/><use xlink:href="#C" x="-22.9" y="30.6" class="C"/><use xlink:href="#C" x="-30.6" y="30.6" class="C"/><use xlink:href="#C" x="-38.3" y="30.6" class="C"/><use xlink:href="#C" x="-45.9" y="30.6" class="C"/><use xlink:href="#C" x="-53.6" y="30.6" class="C"/><path class="C" d="M8.2-33.4v.2c-.1.1-.2.1-.2.1-.1.1-.1.3-.1.4-.2.1 0 .2 0 .3v.2c0 .1 0 .3.1.4.1.2.3.4.4.5.2.1.4.6.6.6s.4-.1.5-.1c.2 0 .4 0 .6-.1s.1-.3.3-.5c.1-.1.3 0 .4-.1.2-.1.3-.3.4-.5v-.2c0-.1.1-.2.1-.3s-.1-.1-.1-.2v-.3c0-.2 0-.4-.1-.5-.4-.7-1.2-.9-2-.8-.2 0-.3.1-.4.2-.2.1-.1.2-.3.2-.1 0-.2.1-.2.2v.3c-.1 0-.1 0 0 0"/><use xlink:href="#C" x="-68.9" y="30.6" class="C"/><use xlink:href="#C" y="38.3" class="C"/><use xlink:href="#C" x="-7.6" y="38.3" class="C"/><use xlink:href="#C" x="-15.3" y="38.3" class="C"/><use xlink:href="#C" x="-22.9" y="38.3" class="C"/><use xlink:href="#C" x="-30.6" y="38.3" class="C"/><use xlink:href="#C" x="-38.3" y="38.3" class="C"/><use xlink:href="#C" x="-45.9" y="38.3" class="C"/><use xlink:href="#C" x="-53.6" y="38.3" class="C"/><path class="C" d="M8.2-25.7v.2c-.1.1-.2 0-.2.1-.1.1-.1.3-.1.4-.2.1 0 .2 0 .3v.2c0 .1 0 .3.1.4 0 .1.2.3.3.5.2.1.4.6.6.6s.4-.1.5-.1c.2 0 .4 0 .6-.1s.1-.3.3-.5c.1-.1.3 0 .4-.1.2-.1.3-.3.4-.5v-.2c0-.1.1-.2.1-.3s-.1-.1-.1-.2v-.3c0-.2 0-.4-.1-.5-.4-.7-1.2-.9-2-.8-.2 0-.3.1-.4.2-.2.1-.1.2-.3.2-.1 0-.2.1-.2.2.1.2.1.2.1.3-.1 0-.1 0 0 0m-7.7 0v.2c-.1.1-.1.1-.2.1-.1.1-.1.3-.1.4-.2.1 0 .2 0 .3v.2c0 .1 0 .3.1.4.1.2.3.4.4.5.2.1.3.5.6.6.2 0 .4-.1.5-.1.2 0 .4 0 .6-.1s.1-.3.3-.5c.1-.1.3 0 .4-.1.2-.1.3-.3.4-.5v-.2c0-.1.1-.2.1-.3s-.1-.1-.1-.2v-.3c0-.2 0-.4-.1-.5-.4-.7-1.2-.9-2-.8-.2 0-.3.1-.4.2-.2.1-.1.2-.3.2-.1 0-.2.1-.2.2v.3"/><use xlink:href="#E" class="C"/><use xlink:href="#E" x="-7.6" class="C"/><use xlink:href="#E" x="-15.3" class="C"/><use xlink:href="#E" x="-22.9" class="C"/><use xlink:href="#E" x="-30.6" class="C"/><use xlink:href="#E" x="-38.3" class="C"/><use xlink:href="#E" x="-45.9" class="C"/><use xlink:href="#E" x="-53.6" class="C"/><path class="C" d="M8.2-18.1v.2c-.1.1-.2.1-.2.1-.1.1-.1.3-.1.4-.2.1 0 .2 0 .3v.2c0 .1 0 .3.1.4 0 .2.2.4.3.5.2.1.4.6.6.6s.4-.1.5-.1c.2 0 .4 0 .6-.1s.1-.3.3-.5c.1-.1.3 0 .4-.1.2-.1.3-.3.4-.5v-.2c0-.1.1-.2.1-.3s-.1-.1-.1-.2v-.3c0-.2 0-.4-.1-.5-.4-.7-1.2-.9-2-.8-.2 0-.3.1-.4.2-.2.1-.1.2-.3.2-.1 0-.2.1-.2.2.1.3.1.2.1.3-.1.1-.1 0 0 0m-7.7 0v.2c-.1.1-.1.1-.2.1-.1.1-.1.3-.1.4-.2.1 0 .2 0 .3v.2c0 .1 0 .3.1.4.1.2.3.4.4.5.2.1.4.6.6.6s.4-.1.5-.1c.2 0 .4 0 .6-.1s.1-.3.3-.5c.1 0 .3.1.4.1.2-.1.3-.3.4-.5v-.2c0-.1.1-.2.1-.3s-.1-.1-.1-.2v-.3c0-.2 0-.4-.1-.5-.4-.7-1.2-.9-2-.8-.2 0-.3.1-.4.2-.2.1-.1.2-.3.2-.1 0-.2.1-.2.2v.1c0 .1 0 0 0 0"/><use xlink:href="#C" y="53.6" class="C"/><use xlink:href="#F" class="C"/><use xlink:href="#C" x="-15.3" y="53.6" class="C"/><use xlink:href="#C" x="-22.9" y="53.6" class="C"/><use xlink:href="#F" x="-23" class="C"/><use xlink:href="#C" x="-38.3" y="53.6" class="C"/><use xlink:href="#C" x="-45.9" y="53.6" class="C"/><use xlink:href="#F" x="-46" class="C"/><path class="C" d="M8.2-10.4v.2c-.1.1-.2 0-.2.1-.1.1-.1.3-.1.3-.2.1 0 .2 0 .3v.2c0 .1 0 .3.1.4 0 .2.2.4.3.6.2.1.4.6.6.6s.4-.1.5-.1c.2 0 .4 0 .6-.1s.1-.3.3-.5c.1-.1.3 0 .4-.1.2-.1.3-.3.4-.5v-.2c0-.1.1-.2.1-.3s-.1-.1-.1-.2v-.3c0-.2 0-.4-.1-.5-.4-.7-1.2-.9-2-.8-.2 0-.3.1-.4.2-.2.1-.1.2-.3.2-.1 0-.2.1-.2.2.1.2.1.2.1.3-.1 0-.1 0 0 0m-7.7 0v.2c-.1.1-.1.1-.2.1 0 .1-.1.3-.1.3-.2.1 0 .2 0 .3v.2c0 .1 0 .3.1.4.1.2.3.4.4.5.2.2.3.6.6.7.2 0 .4-.1.5-.1.2 0 .4 0 .6-.1s.1-.3.3-.4c.1-.1.3 0 .4-.1.2-.1.3-.3.4-.5v-.2c0-.1.1-.2.1-.3s-.1-.1-.1-.2v-.3c0-.2 0-.4-.1-.5-.4-.7-1.2-.9-2-.8-.2 0-.3.1-.4.2-.2.1-.1.2-.3.2-.1 0-.2.1-.2.2v.2m68.9 7.6v.2c-.1.1-.1.1-.2.1-.1.1-.1.3-.1.4-.2.1 0 .2 0 .3v.2c0 .1 0 .3.1.4.1.2.3.4.4.5.2.2.4.6.6.7.2 0 .4-.1.5-.1.2 0 .4 0 .6-.1s.1-.3.3-.5c.1-.1.3 0 .4-.1.2-.1.3-.3.4-.5v-.2c0-.1.1-.2.1-.3s-.1-.1-.1-.2v-.3c0-.2 0-.4-.1-.5-.4-.7-1.2-.9-2-.8-.2 0-.3.1-.4.2-.2.1-.1.2-.3.2-.1 0-.2.1-.2.2v.2c0 .1 0 0 0 0"/><use xlink:href="#G" class="C"/><path class="C" d="M54.1-2.8v.2c-.1.1-.1.1-.2.1-.1.1-.1.3-.1.4-.2.1 0 .2 0 .3v.2c0 .1 0 .3.1.4.1.2.2.4.4.5s.4.6.6.6.4-.1.5-.1c.2 0 .4 0 .6-.1s.1-.3.3-.5c.1-.1.3 0 .4-.1.2.1.3-.1.4-.3v-.2c0-.1.1-.2.1-.3s-.1-.1-.1-.2v-.3c0-.2 0-.4-.1-.5-.4-.7-1.2-.9-2-.8-.2 0-.3.1-.4.2-.2.1-.1.2-.3.2-.1 0-.2.1-.2.2v.1c0 .1 0 0 0 0m-7.6 0v.2c-.1.1-.1.1-.2.1-.1.1-.1.3-.1.4-.2.1 0 .2 0 .3v.2c0 .1 0 .3.1.4.1.2.3.4.4.5.1.2.3.6.5.7.2 0 .4-.1.5-.1.2 0 .4 0 .6-.1s.1-.3.3-.5c.1-.1.3 0 .4-.1.2-.1.3-.3.4-.5v-.2c0-.1.1-.2.1-.3s-.1-.1-.1-.2v-.3c0-.2 0-.4-.1-.5-.4-.7-1.2-.9-2-.8-.2 0-.3.1-.4.2-.2.1-.1.2-.3.2-.1 0-.2.1-.2.2.1.2.1.1.1.2s0 0 0 0"/><use xlink:href="#G" x="-23" class="C"/><use xlink:href="#H" class="C"/><path class="C" d="M23.5-2.8v.2c-.1.1-.1.1-.2.1-.1.1-.1.3-.1.4-.2.1 0 .2 0 .3v.2c0 .1 0 .3.1.4.1.2.3.4.4.5.1.2.3.6.6.7.2 0 .4-.1.5-.1.2 0 .4 0 .6-.1s.1-.3.3-.5c.1-.1.3 0 .4-.1.2-.1.3-.3.4-.5v-.2c0-.1.1-.2.1-.3s-.1-.1-.1-.2v-.3c0-.2 0-.4-.1-.5-.4-.7-1.2-.9-2-.8-.2 0-.3.1-.4.2-.2.1-.1.2-.3.2-.1 0-.2.1-.2.2v.2c0 .1 0 0 0 0"/><use xlink:href="#H" x="-15.3" class="C"/><path class="C" d="M8.2-2.8v.2c-.1.1-.2.1-.2.1-.1.1-.1.3-.1.4-.2.1 0 .2 0 .3v.2c0 .1 0 .3.1.4 0 .2.2.4.3.5.2.2.4.6.6.7.2 0 .4-.1.5-.1.2 0 .4 0 .6-.1s.1-.3.3-.5c.1-.1.3 0 .4-.1.2-.1.3-.3.4-.5v-.2c0-.1.1-.2.1-.3s-.1-.1-.1-.2v-.3c0-.2 0-.4-.1-.5-.4-.7-1.2-.9-2-.8 0 .1-.2.2-.3.2-.2.1-.1.2-.3.3-.1 0-.2.1-.2.2v.1c-.1.1-.1 0 0 0m-7.7 0v.2c-.1.1-.1.1-.2.1 0 .1-.1.3-.1.4-.2.1 0 .2 0 .3v.2c0 .1 0 .3.1.4 0 .2.2.4.4.5.2.2.3.6.6.7.2 0 .4-.1.5-.1.2 0 .4 0 .6-.1s.1-.3.3-.5c.1-.1.3 0 .4-.1.2 0 .3-.2.4-.4v-.2c0-.1.1-.2.1-.3s-.1-.1-.1-.2v-.3c0-.2 0-.4-.1-.5-.4-.7-1.2-.9-2-.8-.1 0-.2.1-.4.1-.1.1-.1.2-.3.3-.1 0-.2.1-.2.2v.1c0 .1 0 0 0 0"/></pattern><ellipse cx="496.5" cy="967.9" rx="443.1" ry="34.4" fill="#d3a489"/><path class="E" d="M759 936.7l-38.1.2-2-56.7 38.1-.2z"/><path class="F" d="M764.7 967.6l-119.6.1s-.2-.5-.2-2.2l119.7.1.1 2zm-82.1-32.5s26.1-12.6 30.7-21.7c0 0 14.4 0 18.5 14.4 0 0 19.7 6.6 29.7-5l2.4 34.1-118.4-.1c3.2-8.5 5.8-17.8 37.1-21.7z"/><path class="G" d="M761.5 922.7c-2 2.4-4.4 4.1-7 5.1-2.9 7.6-8.3 18.7-16.9 29h26.3l-2.4-34.1z"/><path class="H" d="M763.9 956.9l.6 8.6-119.7-.1c-.1-3.4-.9-5.2.6-8.6l118.5.1zm-80-23.8s6.5 1.8 12 10.4l4.6-2.6s-5.1-9.1-12.5-9.7l-4.1 1.9zm9.8-5.3s6.4 1.7 11.9 10.3l4.7-2.5s-5.4-9.6-12.8-10.2l-3.8 2.4zm8.8-6.2s6.9 1.1 13 10.5l4.9-2.6s-5.9-9.7-14.2-10.4l-3.7 2.5z"/><path class="E" d="M847.6 929.9l-38.1 2.4-5.2-56.5 38-2.4z"/><path class="G" d="M858.1 948.9l-6.1-26.1s-5.8-17.9-23.6-17.9-23.6 17.9-23.6 17.9l-4.4 29.1 57.7-3z"/><use xlink:href="#I" class="H"/><use xlink:href="#I" y="-8" class="H"/><use xlink:href="#I" y="-15" class="H"/><path class="G" d="M801.9 965.7h57v2h-57z"/><path class="I" d="M860.4 956.3c.3 2 .4 5.4-1.8 9.4h-57.3s-2-4.1-1.9-9.4h61z"/><use xlink:href="#J" class="F"/><path d="M691.7 516.1s-.2 114.3 20.7 369.3c0 0 21.4 11.9 50-.4l-1-289.7s20.3 116.3 36.9 288.3c0 0 30.7 10.6 51.1-6.6 0 0-14.6-184.4-16.4-354 .1.1-86 11.4-141.3-6.9z" fill="#99544f"/><path class="K" d="M761.4 595.3l-28-11.3 28 50.7zm72.4-30l-.7-42.3s-86 11.3-141.4-7l.4 21.2c21.6 11.1 70.3 30.5 141.7 28.1z"/><path class="E" d="M670.5 338s-40.5 72.7-37.7 92.1c0 0 19 37 35.9 28.5l3.4-32.6 31.6-68.3c.1 0-10-17.3-33.2-19.7z"/><path class="L" d="M694.4 289.2s-13.8 7.3-36.4 60.1c0 0 17.4 24 50.4 20.1-.1 0-8.6-75.8-14-80.2z"/><path class="M" d="M657.9 344.3s16.4 23.8 52.5 21.9l-.1 6.6s-43.4 1.4-55.4-22.6l3-5.9z"/><path class="N" d="M694.4 289.2S680.5 348 690.2 529c0 0 45.2 6.7 137.3-13.8 0 0 2.7-53 9.1-106.1 0 0 17.8-90.9 13.8-116.9 0 0-77.3-44.8-156-3z"/><path class="M" d="M752.7 271.2s-9.8 6.1-3.1 14.9 24.6 19.7 50.4 5c0 0 11.7-9.7.4-16.5 0 0-27-4.2-47.7-3.4z"/><path class="O" d="M755.3 272.8l-.2 8.8s6.4 8.8 20.6 9.2 20.3-8.1 20.3-8.1l-.1-18.3c-16.8 6.3-33.6 9.1-40.6 8.4z"/><path class="E" d="M796 264.4l-.1-20.4-40.9-1 .4 29.8c6.9.7 23.7-2.1 40.6-8.4z"/><path class="P" d="M727 172.2l-3.3-17.1s-10.4-45.5 50.4-48.1c52.8-2.3 52.3 48.8 52.3 48.8l-.5 20.7-11.6 21.2-87.3-25.5z"/><path class="O" d="M821.4 173.8l-7.2 11.7c-1.5-3.2-2.7-6.5-3.7-9.8-5.9-19.4-5.1-40-5.1-40-44.3 19.2-80.1 8.7-80.1 8.7 5.9 48.1-7.7 72 10.4 96.6 5.4 7.3 13 12.3 23.9 13.6 47.3 5.6 58.5-44.9 58.5-44.9s15.7-1.7 17.9-23.5c1.9-18-14.6-12.4-14.6-12.4z"/><path class="P" d="M726 212.3s41.9 15.9 88.3-14.5c0 0 1.9 7.8 2.7 16 .8 8.3 6.2 47.1-49 49.4-55.9 2.4-42-50.9-42-50.9z"/><path class="Q" d="M748.5 191.7c0 4.8-2.5 8.7-5.6 8.7-3 0-5.4-4-5.4-8.8s2.5-8.7 5.6-8.7c3 0 5.4 4 5.4 8.8zm41.5-1.3c0 4.8-2.5 8.7-5.6 8.7-3 0-5.4-4-5.4-8.8s2.5-8.7 5.6-8.7c3 0 5.4 3.9 5.4 8.8z"/><path class="R" d="M762.7 215.3c-9.3 3.3-14-1.2-14.1-5.6-.1-2.8 1.6-5.2 4.3-6.2 5.6-1.9 9.9-10.3 10-10.3-.1 2-2.4 9.2-9.6 13-1.6.8-2.5 1.7-2.5 3.1 0 2.4 3.4 6.2 11.9 6z"/><path class="P" d="M749.3 168.7s-9.9 1.8-16.1 4.8-6.4-2.4-4.4-4.6c1.9-2.2 12.5-8.7 18.4-7.5 5.9 1.1 4.8 5.9 2.1 7.3zm24.6-1.1s10 .9 16.4 3.4c6.5 2.5 6.1-2.9 4-4.9s-13.2-7.6-19-5.9c-5.8 1.6-4.3 6.3-1.4 7.4z"/><path d="M822.7 120.9C799.6 92.7 769.9 94 769.9 94s26.8 11.7 33.6 25.4l5.6 32.8c10.6 1.9 17.3 3.7 17.3 3.7 1.1-20.5-3.7-35-3.7-35z" fill="#ddcaca"/><path class="T" d="M769.8 93.9c-30 4.6-40.1 17.1-40.1 17.1-5.9 9.3-8.3 45.1-8.3 45.1 28.9-11.5 66.2-7.7 87.7-3.9l-5.6-32.8c-6.9-13.8-33.7-25.5-33.7-25.5z"/><path d="M686.8 131.5s-2.1-6.6 6-9.4 62.6-14.4 83.2-2.1l33.6 32.3-3.6-.6-119.2-20.2z" fill="#f88"/><path d="M721.4 156s-53.8-23.1-27.1-30.9 69.7-11.6 82 .7c0 0 15.7 14.3 29.7 25.8 0 0-46.1-9.9-84.6 4.4z" fill="#b76418"/><path class="T" d="M774.7 92.8c.1 1.5-2.1 2.8-4.9 3-2.8.1-5-1-5.1-2.5s2.1-2.8 4.9-3c2.7-.2 5 1 5.1 2.5z"/><path class="W" d="M747.2 261.3c-.1 0-.3 0-.4-.1-17.1-15.6-14.7-45.3-14.7-45.6s.3-.5.5-.5c.3 0 .5.3.5.5 0 .3-2.4 29.5 14.3 44.8.2.2.2.5 0 .7 0 .2-.1.2-.2.2zm14.4 2.7c-.2 0-.3-.1-.4-.2-16.2-22-14.6-46.8-14.6-47 0-.3.3-.5.5-.5.3 0 .5.3.5.5s-1.6 24.7 14.4 46.4c.2.2.1.5-.1.7-.1.1-.2.1-.3.1zm9.8-.4a.55.55 0 0 1-.5-.3c-7.9-18.2-7.6-46.9-7.6-47.2a.47.47 0 1 1 1 0c0 .3-.3 28.9 7.5 46.8.1.3 0 .5-.3.7h-.1zm15.4-2.5c-.2 0-.4-.1-.4-.2-10-16.3-8.1-47.2-8.1-47.5s.3-.5.5-.5c.3 0 .5.3.5.5 0 .3-1.8 30.9 8 46.9.1.2.1.5-.2.7-.1.1-.2.1-.3.1zm16.2-7c-.1 0-.2 0-.3-.1-11.6-9.2-13.3-42.5-13.4-43.9a.47.47 0 0 1 .5-.5c.3 0 .5.2.5.4 0 .3 1.8 34.2 13 43.2.2.2.3.5.1.7-.1.2-.2.2-.4.2zm12.3-16.9c-.1 0-.2 0-.3-.1-9.2-6.6-13.8-30.8-14-31.9 0-.3.1-.5.4-.6s.5.1.6.4c0 .2 4.7 24.9 13.6 31.2.2.2.3.5.1.7-.1.2-.3.2-.4.3z"/><path class="X" d="M751 227.1c-.5-1.1-.6-2.3-.6-3.4l-2.4-.4s-.1 2.9 1.3 6c.9-1.9 1.7-2.2 1.7-2.2z"/><path class="C" d="M777.8 225.2c.5-1.3.2-2.5-.2-3.5-13.4 3-23 2.5-27.2 2-.1 1.1 0 2.3.6 3.4 0 0-.8.3-1.7 2.3 1.7 3.8 5.5 7.8 14.4 7.1 10.2-.8 14.1-5.8 15.6-9.9-.7-1.1-1.5-1.4-1.5-1.4z"/><path class="X" d="M780.2 221.1l-2.6.6c.4 1 .7 2.3.2 3.5 0 0 .8.3 1.5 1.4 1.1-3 .9-5.5.9-5.5z"/><path class="L" d="M686.8 394.4c.7 30.6.7 85.8 3.3 134.5 0 0 58.2 26.3 150.2 5.8 0 0-10.3-72.6-3.9-125.7 0 0 12.7-65 14.2-100.7-17.4 28.3-69.9 84-163.8 86.1z"/><path class="O" d="M758.2 382.5s-22.4-2.8-28.6-1.8c-6.2 1.1-31.8 13.8-37.4 17.7 0 0 .7 4.6 6.9 3.7s21.2-6.4 21.2-6.4-1.2 7.2-1 10.3c.2 3.2 8.4 12.4 11.7 12.5s10.8.6 15.6-1.9l3-5.4s6.6-1.9 10.1-5.1l14.7-10.2-16.2-13.4z"/><path class="O" d="M758.2 382.5s37 8.3 60.9 24.8l8.9-51.8 37.6 4.1s-9.2 82.8-21.1 94.6c-12 11.8-84.6-47.9-84.6-47.9l-1.7-23.8z"/><path class="N" d="M850.4 292.2s-17.2 7.5-30.5 74.8c0 0 12.7 17.1 49.3 10.1 0 0 3.4-70.3-18.8-84.9z"/><path class="M" d="M816 367.5l1.9-8s15.2 18.6 53.4 12.3l-.2 9.2s-36.9 8.3-55.1-13.5z"/><path class="Y" d="M644.8 394.3l14.1 59.5 30.9 3.6-6.1-59.1z"/><path class="Z" d="M644.8 394.3l6.2-8.4 38.6 5-5.9 7.4z"/><path class="a" d="M689.6 390.9l5 60.2-4.8 6.3-6.1-59.1z"/><path class="O" d="M660 461s-12.4-3.7-14.4-22.8c-2-19 3.1-21.9 4.3-22.3l3.5 14.7s28.3 4.5 33.9 2.2 5.3-5.5 5.3-5.5 2.5-6 8.6-2.9c0 0-3.2 21.3-6.5 30-3.4 8.6-24.4 8.2-34.7 6.6z"/><path class="a" d="M667.3 403.7c.3 2.1-.6 3.9-2 4.1s-2.7-1.4-3-3.5.6-3.9 2-4.1 2.7 1.4 3 3.5z"/><path class="b" d="M708 871l3.4 19.6s27.9 11 53.3-2.9L766 869s-30.3 13.3-58 2zm85-5l3.4 19.6s30.3 10.3 55.6-3.7l-1-17.9s-30.3 13.3-58 2z"/><path class="Q" d="M554.7 327.8s27.6-104.1 9.4-159.5c-14.1-43-41.1-26.4-41.1-26.4s-20.6-19.3-39.3-.7-52.1 67.1-25.2 133c26.8 65.9 96.2 53.6 96.2 53.6z"/><path d="M466.4 163.2c4.6-7.5 9.5-13.7 13.9-18.5 32.2 22.4 62.6 17 78.6 11.4 1.8 3.4 3.5 7.4 5.1 12.2 1 3 1.8 6.1 2.5 9.3-21.7-.2-61.4-2.4-100.1-14.4z" fill="#935c41"/><path class="d" d="M557.9 305.3s16.9 20.1 18.4 87.9l23.5-20.9 10.9 13.7s-45.4 58.3-54.7 41.1c-9.1-17-27-108.1 1.9-121.8z"/><path class="e" d="M560.7 329.1l-2.8-23.9s-8.8-6.4-23.9-11.3v.1-.1c-15.1-5-36.4-8.5-61.3-2.9-8.2 1.9-17.3 4.7-25.5 8.9l-3.3 56.4s17.7 55.4 21.2 95.1c0 0 35 21.2 88.2 3.9l9.7-63.7s15.6-10.8 16-23.9c.2-5.7-3.8-17.6-18.3-38.6z"/><path class="d" d="M573.1 365.9C506.4 384 467 363 444.9 340l-1 16.5s17.7 55.4 21.2 95.1c0 0 35 21.2 88.2 3.9l9.7-63.7s15.6-10.8 16-23.9c0-.9 0-2-.2-3.2l-5.7 1.2z"/><path class="O" d="M519.3 280.4l-1.3 24.7-30.2-1.6 1.7-32.2c12.1 8.9 24.6 9.4 29.8 9.1z"/><path class="E" d="M489.5 271.3l1.3-24.8 30.2 1.6-1.7 32.2c-5.2.4-17.7-.1-29.8-9z"/><path class="O" d="M464.8 199.1l.8.4s-.4 31.7 15.9-4.3c27.8-15.3 39.9-42.8 39.9-42.8 6.3 22.4 24.9 55.2 36.1 61.7-.7 7.1-3 17.8-5.4 27.2-4.6 18.5-16.4 30.8-35.5 32.3-46 3.7-52.2-40.4-52.2-40.4s-16.8-2.2-15.4-24.1c1.1-17.8 15.8-10 15.8-10z"/><path class="E" d="M518 167.6s-15.5 21.4-36.5 27.6c27.9-15.4 39.9-42.8 39.9-42.8 5.6 20 20.9 48 32.1 58.6-8-4.8-21.5-16.2-35.5-43.4zm-48.9 61.7s7.3 33 31.7 40.2c14.8 4.3 28.9-.2 37.6-4.3-5.7 4.8-13 7.8-21.7 8.5-46 3.7-52.2-40.4-52.2-40.4s-13.3-1.8-15.2-17.5c8.7 17.1 19.8 13.5 19.8 13.5z"/><path class="f" d="M526.2 247.9s-12 1.8-29.8-4.6c0 0 2.2 15.6 14.8 16.5 11.3.9 15-11.9 15-11.9z"/><path class="C" d="M525.7 248.6s-12.5 2.3-28.6-4.4c0 0 1.9 6.6 15.1 8.2 11.7 1.5 13.5-3.8 13.5-3.8z"/><path class="Q" d="M534.5 204.1s10.6-2.4 20.4 7c0 0 .3-1.3-1.6-3.9s-8.1-7-15.4-6.4c0-.1-4.7 1.7-3.4 3.3zm-24.1-1.2s-9.3-5.7-21.6.1c0 0 .1-1.4 2.7-3.2 2.6-1.9 9.9-4 16.7-1.2 0 .1 3.9 3.2 2.2 4.3z"/><path class="E" d="M513.3 240.3c8.3 5.3 13.9 2 15-2.1.8-2.7-.3-5.5-2.8-7-5-3.2-7.3-12.3-7.3-12.4-.4 1.9.2 9.5 6.3 14.9 1.3 1.2 2.1 2.2 1.7 3.6-.6 2.3-4.7 5.2-12.9 3z"/><use xlink:href="#K" class="f"/><use xlink:href="#K" x="-42.8" y="-4.4" class="f"/><path class="g" d="M598.8 330.7l-13.4 59h23l21.5-59z"/><path d="M598.8 331.1l-7.1-5.8-12.6 60.1 6.3 4.7z" fill="#776c63"/><path d="M591.7 325.1l32.7.5 5.5 5.1h-31.1z" fill="#685c50"/><ellipse cx="614.9" cy="337.1" rx="3" ry="2.2" fill="#3a322d"/><path class="E" d="M607.6 358.6s10-7.5 16.5 0-1 33.1-8.2 38.5c0 0-12.5 3.2-15.8-10s7.5-28.5 7.5-28.5z"/><path class="O" d="M569.7 372.4s6.7-15.9 15.7-19l-2.2 12.3s26.3-21.3 27.6-9.6c1.2 11.7-2.1 25.7-6.4 30.7s-15.4 8.7-15.4 8.7-10.6 2-12.6 1.7l-10.5-7.5 3.8-17.3z"/><path class="e" d="M447.1 300s9-7.6 46.4 97.4c0 0 55.5-15.7 76.1-25l6.7 24.7s-64.1 38.9-90.8 34.4-79.6-125.6-38.4-131.5z"/><path class="O" d="M471.4 291.4s27.2 37.3 49.7 41c0 0 11-18 7.6-40.1-.1 0-22.2-9.5-57.3-.9z"/><path class="d" d="M487.4 900.2s18.1 65.4 11.5 66.4h-36.2s-5.4 1.9.5-65.1l13.2-1.6 11 .3z"/><path class="O" d="M487.4 899.9l6 49.6c-3.2.7-19.9-2.6-26.2 2 0 0-3.8-21.4-4.2-50.3l11.2-16.3 13.2 15z"/><path class="d" d="M608.5 899.9c8.2 23.6 29.6 49.6 29.6 49.6l18.6 2.1 18.6 4.5s4.7 4.6.6 11.6h-47.3l-16.2-40.3 1.1 40.3h-4.9l-10.1-49.8c0-.1 1-11.9 10-18z"/><path class="O" d="M608.5 899.8l11.9-10.8 13.4 10.8s14.4 45.8 22.9 51.8l-17-.1s-22.9-28-31.2-51.7z"/><path d="M604.4 719.1c.2-12.1-15.7-151.7-48.3-243.3l-88.7 1.2s-68.9 62.7-18.6 223c0 0-24.7 68.2 11.6 201.5 0 0 2.5 5.4 14.3 4.6s16.9-7 16.9-7-5.2-142.8 3.4-185.2c4.1-19.8 13.3-144.3 13.3-144.3s15.5 66.2 43 135.7c0 0-13.5 44.3 28.7 129.9 7.3 14.8 16.8 40.5 23.9 64.7 0 0 5.2 5.7 17.5 4.5s15.8-5.6 15.8-5.6-33.2-152-32.8-179.7z" fill="#606c82"/><path class="l" d="M567.8 512.9c-3.6-12.9-7.5-25.4-11.7-37.2l-88.7 1.2s-18.9 17.2-29.7 56.7c56.5 11.5 111.9-11.9 130.1-20.7zm-98.9 232.7s17.6 33.3 21.3 45.8c0 0 .9-66.7 5.5-81 0-.1-22.8 9.4-26.8 35.2zm135.4-31s-19.4 13.5-17.9 31c0 0 25.1 25.5 27 35.9 0 0-8.3-45.3-8.7-55.3l-.4-11.6zm-95.9-145s19.3-15.5 24.6-21.5c0 0-14.5 45.3-17.1 50.5l-7.5-29z"/><path class="d" d="M465.1 451.5s-13.4 30.4-23.6 60.4c0 0 61.2 28.1 127.4-3.3 0 0-10.9-32.9-15.5-53.1-3.8-16.2-64.5-22.5-88.3-4z"/><path class="E" d="M246.4 939.3l-37.9-4.4 5-56.5 37.9 4.4z"/><path class="d" d="M255.7 967.9l-119.6.1s-.2-.5-.2-2.2l119.7.1.1 2zm-82.1-32.4s26.1-12.6 30.6-21.7c0 0 14.4 0 18.5 14.4 0 0 19.7 6.6 29.7-5l2.4 34.1-118.4-.1c3.3-8.6 5.9-17.9 37.2-21.7z"/><path class="e" d="M252.5 923.1c-2 2.4-4.4 4.1-7 5.1-2.9 7.6-8.3 18.7-16.9 29h26.3l-2.4-34.1z"/><path class="H" d="M254.9 957.3l.6 8.6-119.7-.1c-.1-3.4-.9-5.2.6-8.6l118.5.1zm-80-23.8s6.5 1.8 12 10.4l4.6-2.6s-5.1-9.1-12.5-9.7l-4.1 1.9zm9.8-5.3s6.4 1.7 11.9 10.3l4.7-2.5s-5.4-9.6-12.8-10.2l-3.8 2.4zm8.8-6.2s6.9 1.1 13 10.5l4.9-2.6s-5.9-9.7-14.2-10.4l-3.7 2.5z"/><path class="E" d="M373.6 929.9l-38.1 2.4-5.2-56.5 38-2.4z"/><path class="e" d="M384.1 948.9l-6.1-26.1s-5.8-17.9-23.6-17.9-23.6 17.9-23.6 17.9l-4.4 29.1 57.7-3z"/><use xlink:href="#I" x="-474" class="H"/><use xlink:href="#I" x="-474" y="-8" class="H"/><use xlink:href="#I" x="-474" y="-15" class="H"/><path class="d" d="M327.9 965.7h57v2h-57z"/><path class="I" d="M386.4 956.3c.3 2 .4 5.4-1.8 9.4h-57.3s-2-4.1-1.9-9.4h61z"/><use xlink:href="#J" x="-474" class="d"/><path d="M203.4 498.2s-8.2 162.8-1 418.3c0 0 22 23.2 52.8 7.1l16.2-341.3 56.8 339.4s31 15 51.4-3.1l-39.7-412.5c-.1 0-81.1 11.3-136.5-7.9z" fill="#305b8e"/><path class="n" d="M344.1 549l-4.3-42.8s-81 11.3-136.4-8l-1.1 26.8c23.7 7.4 90.9 26.8 141.8 24zm-72.7 33.2s-26.1-12.7-33.8-23.5 19.4 63.8 31.4 75.5l2.4-52z"/><path class="O" d="M45.2 143.6s44.6 77.2 66.1 101.7c0 0 55.6 43 99.9 63.6 0 0 21.2-7.8 21.3-38.1l-88.8-52.1S93.2 162 74.4 146l-29.2-2.4z"/><path class="E" d="M179.4 239.6s-23.2 9-30 32.9l23.2 15 26.4-36.4-19.6-11.5zM71.8 144.7l-1.4-.6.2-.9s7.1-25.9 9.5-29.7l-28.6-10.6s-4.6 1.3-6.3 11.9c-.7 4.4-2.8 18.9-2 24s7.2 11.6 14.9 13c20.6 3.3 31.8 2.6 31.8 2.6 3.2-8.6-18.1-9.7-18.1-9.7z"/><path class="Z" d="M66.7 112.7l-4.8 30.9 60.7 11 8.1-37.8z"/><path class="Y" d="M130.7 116.8l5.8 1.8-7.9 34.8-6 1.2z"/><path d="M120.5 145.4c-.2 1.8-1.3 3.2-2.6 3.1s-2.2-1.7-2.1-3.5c.2-1.8 1.3-3.2 2.6-3.1s2.3 1.7 2.1 3.5z" fill="#262421"/><path class="Y" d="M62.5 140l30-25.6 16.8 1-34.9 30.4-12.5-2.2zm24.1 8.1l34.3-32 6.3.4-29 33.6z"/><path class="O" d="M82.7 104.1s8.4 3.7 8.2 6.7-.3 7.1-4.9 6.3c-4.6-.7-24.7-2.3-28.4-4-3.7-1.8-1.2-7.3-6.1-10-.1 0-1.6-2.6 31.2 1z"/><path class="g" d="M215.1 322.2l-51.7-28s-.5-42.9 27-53.9l69.7 22.4c-.1 0-11.9 2.9-45 59.5z"/><path class="g" d="M222.8 261.7s-23.4 73.2-23 254.4c0 0 55.5 21.8 148.5 6 0 0-4.3-71.6 8.7-120 0 0 33.6-88 21.7-114.6 0 .1-50.9-35.4-155.9-25.8z"/><path class="p" d="M200.1 479l-.3 37.1s55.5 21.8 148.5 6c0 0-4.3-71.6 8.7-120l2.2-6c-22.3 39.5-70.2 95.1-159.1 82.9zm74.8-218.5s-10.1 5.5-3.9 14.7 23.4 21 50 7.8c0 0 12.2-9 1.3-16.5 0 0-26.8-5.7-47.4-6z"/><path class="O" d="M279.1 257.5l-1.5 10.7s5.1 11.2 19.2 12.9c14.2 1.7 21.5-8 21.5-8l2.7-22c-17.9 6.1-35 7.9-41.9 6.4z"/><path class="E" d="M321 251l2.9-24.6-40.7-4.8-4 36c6.8 1.4 23.9-.4 41.8-6.6z"/><path d="M343.4 142.4s-42.4 10.9-51.5 8.1-36.2-23-36.2-23c-7.3 17.2-1.3 33.8-1.3 33.8l81.6 32.8 18.3 7.4c6.8-14.4 10.5-25.8 12.2-34.8-16.7-7.4-23.1-24.3-23.1-24.3z" fill="#562a14"/><path class="Q" d="M358.5 134.7c-1.6-32-53.3-44.2-53.3-44.2-24.1-22-18 1.3-18 1.3-42.6-25.3-28.8 20.2-28.8 20.2-16.8-3.9-2.7 15.5-2.7 15.5s27.1 20.1 36.2 23c9.1 2.8 51.5-8.1 51.5-8.1s6.4 17 23 24.3c5.2-27.2-7.9-32-7.9-32z"/><path class="O" d="M350.3 183.1l-9.7 9.8c-.7-3.4-1.1-6.9-1.4-10.4-1.4-20.2 4.2-40.1 4.2-40.1-47.5 8.5-82.9-11.2-82.9-11.2-2.2 22.3-21 69.8-9 97.8 3.6 8.4 9.8 15 20.1 18.7 44.8 16.2 67.2-30.4 67.2-30.4s15.7 2 22.8-18.8c6-17.2-11.3-15.4-11.3-15.4z"/><path class="Q" d="M315.9 192c-1.2 4.7-4.5 7.9-7.4 7.2s-4.4-5.1-3.2-9.8 4.5-7.9 7.4-7.2 4.3 5.1 3.2 9.8z"/><path class="R" d="M283.6 210c-9.8 1.1-13.3-4.4-12.5-8.6.5-2.8 2.7-4.7 5.6-5 5.9-.6 12-7.7 12.1-7.8-.5 1.9-4.4 8.4-12.3 10.5-1.7.4-2.9 1.1-3.1 2.4-.5 2.3 1.9 6.7 10.2 8.5z"/><path class="Q" d="M262.5 160.7l.1-2.8c.6.1 10.3-.6 21 2.4l-.7 4.2c-8.7-3-20.3-3.8-20.4-3.8zm65.3 14.2c-6.7-4.2-20-7.4-20.1-7.4l1.6-3.7c.5.2 12.6 3 19.8 8.9l-1.3 2.2z"/><path d="M267.8 84.2s15.6 22.7 60.6 31.4c0 0-33.4 14.8-70.8-6.7 0 0-5.4-26.3 10.2-24.7z" fill="#b57e59"/><path d="M288.1 226.5c-6.8-.3-13.2-3.2-13.6-3.4-.8-.3-1.1-1.2-.7-2 .3-.8 1.2-1.1 2-.7.1.1 12.3 5.5 19.7 1.9 2.6-1.2 4.2-3.4 5-6.7.2-.8 1-1.3 1.8-1.1s1.3 1 1.1 1.8c-1 4.1-3.3 7-6.7 8.7-2.6 1.3-5.6 1.6-8.6 1.5z" fill="#8e5931"/><path class="Q" d="M277.6 186.6s-5.6-7.3-16.3-7.3c0 0 2.3-2.5 6.3-1.7 0 0-.6-.9-4.1-2.9.1.1 14.8-.4 14.1 11.9z"/><path class="p" d="M167.4 297.8c0 .7-5.8-2.5-5.8-2.5s-1.2-44.7 29-56.7l6.7 2.5c-.1.1-28.6 13.7-29.9 56.7z"/><path class="O" d="M363.3 508.3l-9-8.4-6.5 1.9c-6.3-2.7-8.7-7.3-11.9-8.1S328 489 328 489c-3.4 4.2 1.9 9.7 1.9 9.7-.4-.1-.9-.3-1.3-.4-1.1-.3-2.2-.7-3.3-1-1.4-.4-2.8-.9-4.2-1.3l-4-1.2c-1-.3-2.1-.6-3.2-.8s-2.2 0-3.4.1c-1.4.1-8.9 2-10.2 2.2-.6.1-1.8.2-1.8.2-.7 1.3-.9 2.8-.4 4.2 1 2.4 4.3 2.7 6 2.5 1.3-.1 3-.5 4.3-.8 1.1-.3.8-.5 2.6-.1 1.1.2 2 .7 3 1l6.6 2.2c.5.2 1 .3 1.5.5 0 0-11.1.9-14.6 1.6-2.6.5-10.5 6.7-10.5 6.7-5.7 4.4 2.3 7.1 2.3 7.1-.5.4-1.1 1.2-1.2 1.9 0 .6.3 1.1.6 1.5.6.7 1.3 1 2.1 1.4 1.4.6 2.9.9 4.4.7.4-.1.9-.2 1.3-.3s.8-.3 1.2-.4l1.5-.6c1.6-.7 3.1-1.4 4.6-2.3.2-.1.6-.5.8-.5l8.5.3c-3 1.3-6.5 6.2-10.6 8.2-.6.3-1.2.6-1.8 1.1-.5.4-1.1 1.1-1.1 1.9 0 .7.7 1 1.2 1.3 1.6.8 3.3 1 5.1.7.9-.1 1.8-.4 2.7-.8.6-.3 1.3-.6 1.9-1 .3-.2.5-.3.8-.6 5.7-5.2 11.7-7.5 18.7-3 10.1 6.5 19.9-8.5 19.9-8.5l3.4-14.1z"/><path class="O" d="M421.7 373.4c-17.4 7.4-33.9 15.5-40.4 20.9l11.9 29.9-45.4 77.5c0 14.4 12.6 20.5 12.6 20.5 71.1-57.1 77.5-98.1 77.5-98.1 1-10.6-9.6-29.8-16.2-50.7z"/><path class="E" d="M426.9 388c-1.8-4.7-3.6-9.6-5.2-14.5-17.4 7.4-33.9 15.5-40.4 20.9l9.1 23c24.9-7.3 33.6-21.8 36.5-29.4z"/><path class="g" d="M378.7 287.6s8.6 0 47.9 87.7c0 0-4.1 20.3-47 23l-18.5-33.8s-19-48.1 17.6-76.9z"/><path class="p" d="M377.5 399.8s39 .8 50.7-24.3l-2.8-5.9s-1.9 21.4-49.8 25.4l1.9 4.8z"/><g class="t"><path class="u" d="M500 236.6c-.9 9.7-9.5 16.8-19.2 15.9s-16.8-9.5-15.9-19.2 9.5-16.8 19.2-15.9 16.8 9.5 15.9 19.2z"/><path class="v" d="M499.2 236.5c-.9 9.3-9.1 16.1-18.4 15.2s-16.1-9.1-15.2-18.4 9.1-16.1 18.4-15.2 16.1 9.1 15.2 18.4z"/><path class="w" d="M498.5 236.4c-.8 8.9-8.7 15.3-17.6 14.5s-15.3-8.7-14.5-17.6 8.7-15.3 17.6-14.5c8.8.9 15.3 8.8 14.5 17.6z"/><path class="x" d="M497.7 236.4c-.8 8.4-8.3 14.6-16.7 13.8s-14.6-8.3-13.8-16.7 8.3-14.6 16.7-13.8c8.5.7 14.6 8.2 13.8 16.7z"/><path class="y" d="M497 236.3c-.8 8-7.9 13.9-15.9 13.1s-13.9-7.9-13.1-15.9 7.9-13.9 15.9-13.1c8 .7 13.8 7.9 13.1 15.9z"/><path class="z" d="M496.2 236.2c-.7 7.6-7.5 13.2-15.1 12.4-7.6-.7-13.2-7.5-12.4-15.1.7-7.6 7.5-13.2 15.1-12.4 7.6.7 13.1 7.5 12.4 15.1z"/><path class="AA" d="M495.5 236.1c-.7 7.2-7.1 12.5-14.3 11.8s-12.5-7.1-11.8-14.3 7.1-12.5 14.3-11.8c7.2.8 12.5 7.1 11.8 14.3z"/><path class="AB" d="M494.7 236.1c-.6 6.8-6.7 11.7-13.4 11.1-6.8-.6-11.7-6.7-11.1-13.4.6-6.8 6.7-11.7 13.4-11.1 6.8.6 11.8 6.6 11.1 13.4z"/><path class="AC" d="M494 236c-.6 6.4-6.2 11-12.6 10.4-6.3-.6-11-6.3-10.4-12.6.6-6.4 6.3-11 12.6-10.4s11 6.2 10.4 12.6z"/><path class="AD" d="M493.2 235.9c-.6 5.9-5.8 10.3-11.8 9.7-5.9-.6-10.3-5.8-9.7-11.8.6-5.9 5.8-10.3 11.8-9.7 5.9.6 10.3 5.9 9.7 11.8z"/><path class="AE" d="M492.4 235.8c-.5 5.5-5.4 9.6-10.9 9-5.5-.5-9.6-5.4-9-10.9.5-5.5 5.4-9.6 10.9-9 5.5.5 9.6 5.4 9 10.9z"/><path class="AF" d="M491.7 235.8a9.22 9.22 0 0 1-18.4-1.8 9.22 9.22 0 0 1 10.1-8.3c5 .4 8.8 5 8.3 10.1z"/><path class="u" d="M557.4 241c-.8 8.2-8.1 14.3-16.4 13.5-8.2-.8-14.3-8.1-13.5-16.4s8.1-14.3 16.4-13.5c8.2.8 14.3 8.2 13.5 16.4z"/><path class="v" d="M556.7 241c-.8 7.9-7.8 13.7-15.7 12.9s-13.7-7.8-12.9-15.7 7.8-13.7 15.7-12.9 13.7 7.8 12.9 15.7z"/><path class="w" d="M556.1 240.9c-.7 7.5-7.4 13.1-15 12.3-7.5-.7-13.1-7.4-12.3-15 .7-7.5 7.4-13.1 15-12.3 7.5.8 13 7.5 12.3 15z"/><path class="x" d="M555.5 240.8c-.7 7.2-7.1 12.4-14.3 11.8-7.2-.7-12.4-7.1-11.8-14.3.7-7.2 7.1-12.4 14.3-11.8 7.2.8 12.4 7.2 11.8 14.3z"/><path class="y" d="M554.8 240.8c-.7 6.8-6.7 11.8-13.5 11.2-6.8-.7-11.8-6.7-11.2-13.5.7-6.8 6.7-11.8 13.5-11.2 6.9.6 11.9 6.6 11.2 13.5z"/><path class="z" d="M554.2 240.7c-.6 6.5-6.4 11.2-12.8 10.6-6.5-.6-11.2-6.4-10.6-12.8.6-6.5 6.4-11.2 12.8-10.6s11.2 6.3 10.6 12.8z"/><path class="AA" d="M553.5 240.7c-.6 6.1-6 10.6-12.1 10s-10.6-6-10-12.1 6-10.6 12.1-10c6.1.5 10.6 5.9 10 12.1z"/><path class="AB" d="M552.9 240.6c-.6 5.8-5.7 10-11.4 9.4-5.8-.6-10-5.7-9.4-11.4.6-5.8 5.7-10 11.4-9.4 5.7.5 9.9 5.6 9.4 11.4z"/><path class="AC" d="M552.2 240.5a9.86 9.86 0 0 1-10.7 8.9 9.86 9.86 0 0 1-8.9-10.7 9.86 9.86 0 0 1 10.7-8.9c5.5.5 9.5 5.3 8.9 10.7z"/><path class="AD" d="M551.6 240.5c-.5 5.1-5 8.8-10 8.3-5.1-.5-8.8-5-8.3-10 .5-5.1 5-8.8 10-8.3 5.1.4 8.8 4.9 8.3 10z"/><path class="AE" d="M550.9 240.4c-.5 4.7-4.6 8.1-9.3 7.7-4.7-.5-8.1-4.6-7.7-9.3s4.6-8.1 9.3-7.7a8.4 8.4 0 0 1 7.7 9.3z"/><path class="AF" d="M550.3 240.3c-.4 4.3-4.3 7.5-8.6 7.1s-7.5-4.3-7.1-8.6 4.3-7.5 8.6-7.1 7.5 4.3 7.1 8.6z"/></g><defs ><path id="B" d="M61.8-71.7v.2c-.1.1-.1.1-.2.1-.1.1-.1.3-.1.4-.2.1 0 .2 0 .3v.2c0 .1 0 .3.1.4.1.2.3.4.4.5.2.1.4.6.6.6s.4-.1.5-.1c.2 0 .4 0 .6-.1s.1-.3.3-.5c.1-.1.3 0 .4-.1.2-.1.3-.3.4-.5v-.2c0-.1.1-.2.1-.3s-.1-.1-.1-.2v-.3c0-.2 0-.4-.1-.5-.4-.7-1.2-.9-2-.8-.2 0-.3.1-.4.2-.2.1-.1.2-.3.2-.1 0-.2.1-.2.2v.3c0 .1 0 .1 0 0"/><path id="C" d="M69.4-64v.2c-.1.1-.1.1-.2.1-.1.1-.1.3-.1.4-.2.1 0 .2 0 .3v.2c0 .1 0 .3.1.4.1.2.3.4.4.5.2.1.4.6.6.6s.4-.1.5-.1c.2 0 .4 0 .6-.1s.1-.3.3-.5c.1-.1.3 0 .4-.1.2-.1.3-.3.4-.5v-.2c0-.1.1-.2.1-.3s-.1-.1-.1-.2v-.3c0-.2 0-.4-.1-.5-.4-.7-1.2-.9-2-.8-.2 0-.3.1-.4.2-.2.1-.1.2-.3.2-.1 0-.2.1-.2.2v.3"/><path id="D" d="M8.2-56.3v.2c-.1 0-.2 0-.2.1-.1.1-.1.3-.1.4-.2.1 0 .2 0 .3v.2c0 .1 0 .3.1.4.1.2.3.4.4.5.2.1.4.6.6.6s.4-.1.5-.1c.2 0 .4 0 .6-.1s.1-.3.3-.5c.1-.1.3 0 .4-.1.2-.1.3-.3.4-.5v-.2c0-.1.1-.2.1-.3s-.1-.1-.1-.2v-.3c0-.2 0-.4-.1-.5-.4-.7-1.2-.9-2-.8-.2 0-.3.1-.4.2-.2.1-.1.2-.3.2-.1 0-.2.1-.2.2v.3c-.1 0-.1 0 0 0"/><path id="E" d="M69.4-18.1v.2c-.1.1-.1.1-.2.1-.1.1-.1.3-.1.4-.2.1 0 .2 0 .3v.2c0 .1 0 .3.1.4.1.2.3.4.4.5.2.1.4.6.6.6s.4-.1.5-.1c.2 0 .4 0 .6-.1s.1-.3.3-.5c.1-.1.3 0 .4-.1.2-.1.3-.3.4-.5v-.2c0-.1.1-.2.1-.3s-.1-.1-.1-.2v-.3c0-.2 0-.4-.1-.5-.4-.7-1.2-.9-2-.8-.2 0-.3.1-.4.2-.2.1-.1.2-.3.2-.1 0-.2.1-.2.2v.3c0 .1 0 0 0 0"/><path id="F" d="M61.8-10.4v.2c-.1.1-.1.1-.2.1-.1.1-.1.3-.1.4-.2.1 0 .2 0 .3v.2c0 .1 0 .3.1.4.1.2.3.4.4.5.2.1.4.6.6.6s.4-.1.5-.1c.2 0 .4 0 .6-.1s.1-.3.3-.4c.1-.1.3 0 .4-.1.2-.1.3-.3.4-.5v-.2c0-.1.1-.2.1-.3s-.1-.1-.1-.2v-.3c0-.2 0-.4-.1-.5-.4-.7-1.2-.9-2-.8-.2 0-.3.1-.4.2-.2.1-.1.2-.3.2-.1 0-.2.1-.2.2v.2"/><path id="G" d="M61.8-2.8v.2c-.1.1-.1.1-.2.1-.1.1-.1.3-.1.4-.2.1 0 .2 0 .3v.2c0 .1 0 .3.1.4 0 .2.2.4.4.5s.4.6.6.6.4-.1.5-.1c.2 0 .4 0 .6-.1s.1-.3.3-.5c.1-.1.3 0 .4-.1.2-.1.3-.3.4-.5v-.2c0-.1.1-.2.1-.3s-.1-.1-.1-.2v-.3c0-.2 0-.4-.1-.5-.4-.7-1.2-.9-2-.8-.2 0-.3.1-.4.2-.2.1-.1.2-.3.2-.1 0-.2.1-.2.2v.3c0 .1 0 0 0 0"/><path id="H" d="M31.1-2.8v.2c-.1.1-.1.1-.2.1-.1.1-.1.3-.1.4-.2.1 0 .2 0 .3v.2c0 .1 0 .3.1.4.1.2.2.4.4.5s.4.6.6.6.4-.1.5-.1c.2 0 .4 0 .6-.1s.1-.3.3-.5c.1-.1.3 0 .4-.1.2-.1.3-.3.4-.5v-.2c0-.1.1-.2.1-.3s-.1-.1-.1-.2v-.3c0-.2 0-.4-.1-.5-.4-.7-1.2-.9-2-.8-.2 0-.3.1-.4.2-.2.1-.1.2-.3.2-.1 0-.2.1-.2.2v.3c0 .1 0 0 0 0"/><path id="I" d="M817.9 933.9c.2 0 .5-.1.7-.2 10.3-7.7 20.6-1.5 20.7-1.4.7.4 1.6 0 1.9-1s0-2.2-.7-2.6c-.5-.3-11.7-7-23.2 1.6-.7.5-1 1.7-.6 2.7.2.5.7.9 1.2.9z"/><path id="J" d="M799.5 955.6c.3-5.7 11.2-22.9 29.5-22.9 23.4 0 28.8 14.5 31 21.9 0 0 .2.6.4 1.7l-60.9-.1v-.6z"/><path id="K" d="M540.4 213s5.6.6 6.6-1.4c0 0 .4 3-3.1 3.7.9 1.4 1.4 3.4 1.2 5.5-.4 4-3.2 7-6.2 6.7s-5.1-3.8-4.7-7.8c.5-4 3.2-7 6.2-6.7z"/></defs></svg>