<svg xmlns="http://www.w3.org/2000/svg" xmlns:xlink="http://www.w3.org/1999/xlink" width="109" height="127" viewBox="0 0 108.266 127"><style>.B{fill:#c77c28}.C{fill:#e0a969}.D{fill:#d9892e}.E{fill:#ffc187}.F{fill:#8a8c6b}.G{fill:#6f704c}.H{fill:#7e8057}.I{fill:#9e9970}.J{fill:#d9d4b2}.K{fill:#bdb88a}.L{fill:#bab88e}.M{fill:#ccc9a4}.O{fill:#f5d4a4}.V{fill:#ffddab}.W{fill:#7cbadb}.Z,.b{fill:#ffeccf}.b{opacity:.55}.c{fill:#af6020}.f{fill:#efbe9a}.g{fill:#863399}</style><path d="M79.794 105.372c-45.887-2.034-72.334 3.39-68.04 10.4 6.33 10.172 62.614 16.05 88.157 6.1 17.857-7.006 5.2-15.37-20.118-16.5z" fill="#d3a388"/><path d="M87.027 105.824a4.24 4.24 0 0 1-.678 2.939c-1.13 1.356-4.295 2.486-7.686 2.486-3.617 0-6.33-1.13-7.233-2.713-.462-.91-.543-1.968-.226-2.94.678-2.034 3.843-1.808 8.138-1.582 4.068-.225 7.233-.225 7.685 1.81z" class="B"/><path d="M87.027 105.825c-.226 2.034-3.843 3.617-8.364 3.39-4.52 0-7.912-1.808-7.686-3.843s3.843-3.617 8.364-3.39c4.295 0 7.686 1.808 7.686 3.843z" class="C"/><use xlink:href="#B" class="B"/><use xlink:href="#B" y="0.678" class="C"/><path d="M89.288 116.222a2.56 2.56 0 0 1-2.034 1.582c-1.356.226-4.07-1.356-6.78-3.617-2.486-2.26-4.295-4.973-4.295-6.33.252-.913.81-1.71 1.582-2.26 1.356-.678 3.165 1.808 6.33 4.747 3.164 2.712 5.877 4.52 5.2 5.877z" class="D"/><path d="M89.288 116.22c-.9 1.13-4.295-.452-7.46-3.39s-4.973-6.1-4.07-7.233 4.295.452 7.46 3.39 4.973 6.105 4.07 7.233z" class="E"/><use xlink:href="#C" class="D"/><use xlink:href="#C" x="-0.452" y="0.452" class="E"/><path d="M19.214 32.36c-3.168 6.33-5.425 13.11-9.268 19.44a44.75 44.75 0 0 1 22.6 10.624l10.85-17.858c.23-3.164-15.14-10.624-24.182-12.206z" class="F"/><path d="M14.467 49.087c2.26-3.843 3.617-8.6 6.1-12.658 8.138 1.808 14.467 5.425 20.57 10.4l1.356-2.034c-2.034-3.62-13.107-9.045-21.47-10.627a9.16 9.16 0 0 0-1.13 2.034c-2.487 4.066-6.782 13.79-7.234 14.466C21.023 52.25 27.352 55.64 33.68 60.84a9.16 9.16 0 0 0 1.13-2.034c-5.953-4.746-12.91-8.07-20.344-9.72z" class="G"/><path d="M26.9 44.792a3.46 3.46 0 0 1-3.843 1.581 2.15 2.15 0 0 1-.9-3.391c.9-1.356 2.713-2.26 4.07-1.582a2.23 2.23 0 0 1 .674 3.392z" class="H"/><path d="M26.45 51.35a51.81 51.81 0 0 0-10.4-3.844c.226-.452.678-.9.9-1.356a51.83 51.83 0 0 1 10.4 3.843 4.73 4.73 0 0 1-.9 1.357zm15.82-4.976c-1.13-1.13-4.973.678-6.1 2.713s.678 3.843.678 3.843a11.71 11.71 0 0 0-5.877 1.13 7.95 7.95 0 0 0 2.713 6.1c.226.226.226.226.452.226 2.486-4.747 5.2-9.268 8.138-14.015z" class="I"/><path d="M16.05 34.62c5.425-.226 9.72 2.034 14.015 4.295 4.295 2.486 8.138 4.973 13.563 5.425l-11.3 18.762c-4.747-.226-8.138-2.486-11.98-4.747-3.62-2.26-7.463-4.295-12.436-3.844l8.138-19.89z" class="J"/><path d="M42.723 45.697a9.16 9.16 0 0 0-1.13 2.034c-9.268-.678-14.693-8.364-23.735-9.494l-5.425 12.885c8.364.9 13.337 8.364 21.926 8.816-.462.627-.84 1.31-1.13 2.034-8.815-.452-13.788-8.363-22.378-8.816.34-.737.64-1.492.9-2.26l5.43-12.885a23.45 23.45 0 0 0 .9-2.26c9.27 1.13 15.15 9.268 24.643 9.946z" class="K"/><path d="M30.065 51.574c2.486-4.52 7.233-6.1 12.658-5.877l-9.72 16.275c-4.295-.452-5.2-5.877-2.938-10.398z" class="I"/><path d="M19.44 49.765c-.46 1-.067 2.186.9 2.713a2.02 2.02 0 0 0 2.713-.9c.534-1.063.138-2.358-.9-2.94-1.06-.38-2.233.108-2.713 1.126z" class="L"/><path d="M17.632 45.47c3.617 1.13 6.78 3.165 9.946 4.973a11.02 11.02 0 0 0 .678-1.582c-3.165-1.808-6.33-3.843-9.946-4.973a3 3 0 0 0-.678 1.582zm1.13-2.712c3.617 1.13 6.78 3.165 10.172 4.973a11.02 11.02 0 0 0 .678-1.582c-3.164-1.808-6.555-4.073-10.172-4.973-.226.452-.452 1.13-.678 1.582zm11.302 12.885a18.96 18.96 0 0 1 4.747-1.808c1.656-.387-1.356-.9-1.356-2.034 0-.678 4.52-4.747 8.138-4.52-2.486 4.747-5.425 9.268-8.138 14.015-3.843-.68-3.4-5.652-3.4-5.652z" class="K"/><path d="M66.91 91.134c-18.762-3.62-30.3 17.177-48.826 13.56l-7.007-23.96c18.762 3.616 30.3-17.18 48.826-13.563l7.007 23.963z" class="M"/><path d="M13.336 82.77l.678 2.713 4.52 15.6.678 2.713c16.953 1.8 28.256-16.057 45.21-14.248l-.678-2.713-4.52-15.6-.678-2.713c-16.953-1.58-28.256 16.28-45.21 14.248zm49.5 3.843c-16.275-1.13-27.35 15.6-43.627 14.467l-4.52-15.6c16.275 1.13 27.35-15.6 43.627-14.467l4.52 15.596z" class="I"/><path d="M45.887 82.315c1.582 5.65-.226 11.98-4.07 14.24S33.453 95.65 31.872 90s.226-11.98 4.07-14.24 8.364.904 9.946 6.555zm-19.214 8.587c.452 1.808-.226 3.617-1.582 3.843a3.3 3.3 0 0 1-3.391-2.713c-.452-1.808.226-3.4 1.582-3.617s2.713.907 3.4 2.487zM56.06 83.22a2 2 0 0 1-1.13 2.713 2.3 2.3 0 0 1-2.483-1.809c-.452-1.356 0-2.486 1.13-2.713 1.127-.452 2.257.453 2.483 1.8z" class="H"/><path d="M31.194 96.556a33.3 33.3 0 0 1-10.4 2.486 15.71 15.71 0 0 0-.676-1.808 23.48 23.48 0 0 0 10.4-2.486 5.91 5.91 0 0 1 .676 1.808zM58.32 79.15a33.94 33.94 0 0 0-9.72 2.26 5.32 5.32 0 0 1-.452-1.808c3.05-1.414 6.36-2.183 9.72-2.26a4.26 4.26 0 0 0 .452 1.808zm-1.12-3.4a33.94 33.94 0 0 0-9.72 2.26 5.32 5.32 0 0 1-.452-1.808c3.05-1.414 6.36-2.183 9.72-2.26a5.32 5.32 0 0 1 .452 1.808zm-20.345 1.808c2.486-1.582 6.1 3.843 6.1 4.747-.208 1.075-.673 2.083-1.356 2.94a12.17 12.17 0 0 1 3.845 2.034c1.15.903-.226 6.33-3.843 8.364a4.6 4.6 0 0 1-5.877-.9 23.9 23.9 0 0 1 2.713-7.007 2.34 2.34 0 0 1-3.165-1.808c-.678-2.492.227-7.7 1.583-8.37z" class="I"/><path d="M90.644 87.74c-13.79-12.885-35.037-1.81-48.6-14.693l7.46-23.735c13.79 12.885 35.037 1.582 48.6 14.693z" class="M"/><path d="M50.18 52.026c-.197.935-.5 1.845-.9 2.713L44.534 70.1c-.197.935-.5 1.845-.9 2.713 13.103 10.623 32.542 1.58 45.88 12.203.197-.935.5-1.845.9-2.713l4.747-15.37c.197-.935.5-1.845.9-2.713-13.328-10.62-32.542-1.58-45.88-12.203zM89.74 81.864c-13.113-9.72-31.646-1.356-44.53-11.076l4.747-15.37c12.885 9.72 31.42 1.582 44.53 11.076-1.36 4.973-3.16 10.172-4.747 15.37z" class="I"/><path d="M77.76 68.98c-1.808 5.65-6.78 9.946-11.076 9.72-4.52-.226-6.555-5.2-4.747-10.85s6.78-9.946 11.076-9.72c4.52.226 6.557 5.195 4.747 10.85zm-20.798-2.94c-.452 1.808-2.034 2.94-3.4 2.486s-1.808-2.26-1.356-4.07c.117-.767.55-1.45 1.197-1.88s1.442-.568 2.194-.38c1.13.452 1.8 2.036 1.356 3.843zm29.16 9.268c-.45 1.357-1.582 2.038-2.487 1.583-.9-.226-1.356-1.582-1.13-2.713a2.3 2.3 0 0 1 2.486-1.808c.905.226 1.357 1.582 1.13 2.938z" class="H"/><path d="M57.867 73.048a27.45 27.45 0 0 1-10.172-3.617 5.32 5.32 0 0 0 .452-1.808 27.45 27.45 0 0 0 10.172 3.617 6.99 6.99 0 0 0-.452 1.808zm32.1 0a23.62 23.62 0 0 0-9.494-3.165 5.32 5.32 0 0 0 .452-1.808 33.54 33.54 0 0 1 9.494 3.165 5.32 5.32 0 0 1-.452 1.808zm1.13-3.39a23.62 23.62 0 0 0-9.494-3.165 5.32 5.32 0 0 0 .452-1.808 33.54 33.54 0 0 1 9.494 3.165 6.97 6.97 0 0 1-.452 1.808zm-18.082-9.494c2.94.226 2.94 6.555 2.486 7.233a5.12 5.12 0 0 1-2.713 1.808 10.17 10.17 0 0 1 2.034 3.843c.393 1.413-3.843 5.2-7.686 4.973a4.72 4.72 0 0 1-4.521-4.068 23.41 23.41 0 0 1 6.1-4.521c-.668-.168-1.238-.6-1.58-1.2s-.422-1.3-.226-1.97c.905-2.483 4.52-6.1 6.105-6.1z" class="I"/><path d="M86.123 60.614C67.135 58.58 57.412 80.056 38.428 78.02l-8.816-23.283c18.988 2.034 28.708-19.44 47.7-17.405l8.81 23.282z" class="M"/><path d="M32.098 56.32c.226.9.678 1.808.9 2.486l5.65 15.145c.226.9.678 1.808.9 2.486 17.18.678 26.9-18.084 43.853-17.63-.226-.9-.678-1.808-.9-2.486l-5.65-15.145c-.226-.9-.678-1.808-.9-2.486-17.18-.453-26.9 18.31-43.853 17.63zm49.73.226c-16.275 0-26 17.63-42.27 17.63l-5.65-15.145c16.275 0 26-17.63 42.27-17.63l5.65 15.145z" class="I"/><path d="M64.423 53.38c2.034 5.65.9 11.98-2.94 14.467-3.617 2.486-8.364-.226-10.4-5.877s-.678-11.98 2.94-14.467c3.618-2.26 8.365.454 10.4 5.877zm-18.53 10.174c.678 1.808.226 3.617-1.13 4.07s-2.94-.678-3.617-2.486 0-3.4 1.356-3.843c1.126-.453 2.708.45 3.4 2.26zm28.927-9.947c.452 1.356 0 2.486-.9 2.713-1.1.13-2.14-.53-2.5-1.583a2.29 2.29 0 0 1 .9-2.939c.68-.223 1.8.453 2.5 1.8z" class="H"/><path d="M50.86 68.752c-3.144 1.727-6.603 2.803-10.172 3.165-.226-.678-.452-1.13-.678-1.808 3.57-.362 7.028-1.438 10.172-3.165.263.588.5 1.192.678 1.808z" class="I"/><use xlink:href="#D" class="I"/><use xlink:href="#D" x="-1.357" y="-3.392" class="I"/><path d="M55.15 49.312c2.486-1.582 6.33 3.39 6.33 4.295-.066 1.072-.46 2.1-1.13 2.94a9.63 9.63 0 0 1 3.843 1.808c1.13.88.226 6.33-3.165 8.6-1.882 1.32-4.433 1.13-6.1-.452a25.13 25.13 0 0 1 2.26-7.233 2.59 2.59 0 0 1-3.391-1.582c-.676-2.262.002-7.46 1.354-8.365z" class="I"/><path d="M91.774 108.085c-18.084-5.877-32.1 13.563-50.182 7.686L37.75 91.13c18.084 5.877 32.1-13.563 50.182-7.686l3.843 24.64z" fill="#b0ad8d"/><path d="M39.783 93.39c.226.9.226 1.808.452 2.713l2.486 16.05c.226.9.226 1.808.452 2.713 16.727 3.843 30.064-12.432 46.565-8.816-.226-.9-.226-1.808-.452-2.713L86.8 87.288c-.226-.9-.226-1.808-.452-2.713-16.727-3.616-30.065 12.66-46.565 8.816zm48.6 9.72c-16.05-3.164-28.934 12.207-44.983 9.042l-2.486-16.05c16.05 3.165 28.934-12.206 44.983-9.042l2.486 16.05z" class="I"/><path d="M72.112 96.782c.9 5.877-1.582 11.754-5.65 13.563s-8.14-1.8-9.05-7.685 1.582-11.754 5.65-13.563c3.85-1.808 8.14 1.808 9.05 7.685zm-20.35 6.328c.226 1.808-.678 3.617-2.034 3.617-1.356.226-2.713-1.356-2.94-3.165s.678-3.4 2.034-3.4c1.357-.225 2.713 1.13 2.94 2.94zm30.292-4.294c.226 1.356-.452 2.486-1.356 2.486-.9.226-2.034-.678-2.26-2.034a2.28 2.28 0 0 1 1.356-2.712c1.176.158 2.102 1.084 2.26 2.26z" class="H"/><path d="M55.832 109.214a27.98 27.98 0 0 1-10.624 1.13c0-.678-.226-1.356-.226-1.808a27.98 27.98 0 0 0 10.624-1.13 5.62 5.62 0 0 0 .226 1.808zM84.766 95.2a29.3 29.3 0 0 0-9.946 1.13c0-.678-.226-1.356-.226-1.808a29.3 29.3 0 0 1 9.946-1.13 5.62 5.62 0 0 0 .226 1.808zm-.678-3.617a29.3 29.3 0 0 0-9.946 1.13c0-.678-.226-1.356-.226-1.808a29.3 29.3 0 0 1 9.946-1.13 4.97 4.97 0 0 1 .226 1.808zm-20.343-.678c2.713-1.13 5.65 4.52 5.425 5.425a4.92 4.92 0 0 1-1.582 2.713 10.7 10.7 0 0 1 3.617 2.486c1.02 1.07-1.13 6.33-4.747 7.912a4.88 4.88 0 0 1-5.878-1.583 24.42 24.42 0 0 1 3.617-6.555 2.44 2.44 0 0 1-1.904-.4c-.554-.394-.93-.978-1.035-1.644-.678-2.713.904-7.686 2.487-8.364z" class="I"/><use xlink:href="#E" class="D"/><use xlink:href="#F" class="E"/><use xlink:href="#G" class="D"/><use xlink:href="#G" y="0.678" class="E"/><use xlink:href="#E" x="-13.789" y="-3.617" class="D"/><use xlink:href="#F" x="-13.789" y="-3.615" class="E"/><use xlink:href="#G" x="-13.789" y="-3.617" class="D"/><use xlink:href="#G" x="-13.789" y="-2.937" class="E"/><path d="M52.67 28.29c9.494 10.85 8.364 37.75-4.52 64.423-6.33 1.582-12.885 2.94-19.44 4.295 14.24-21.25 16.275-43.627 7.46-52.218 5.724-5.272 11.23-10.776 16.502-16.5z" class="M"/><path d="M31.42 94.974c.678-.226 1.356-.226 2.034-.452 4.07-.9 8.364-2.034 12.432-3.165l2.034-.678c11.3-24.865 12.434-49.278 4.3-60.354a13.64 13.64 0 0 1-1.808 1.808l-10.85 10.624c-.678.452-1.13 1.13-1.808 1.582 7.907 9.495 6.098 30.286-6.334 50.635zM51.087 32.81c7.46 10.85 6.33 34.133-4.52 57.64-4.07 1.13-8.364 2.26-12.432 3.165 11.528-20.344 13.337-40.914 6.1-50.408 3.62-3.164 7.236-6.784 10.853-10.398z" class="I"/><path d="M49.956 51.347c4.07-3.165 7.912-1.808 7.686 4.295S52.67 68.98 48.374 71.465c-4.295 2.26-6.78-.678-6.1-5.65a22.34 22.34 0 0 1 7.682-14.467zM45.66 79.15c1.356-.678 2.034.452 1.13 2.486a7.33 7.33 0 0 1-3.846 4.295c-1.356.452-1.808-.678-1.13-2.486a10.19 10.19 0 0 1 3.846-4.295zm4.97-39.783c.9-.9 1.808-.9 2.26 0a3.51 3.51 0 0 1-1.13 3.165c-.9.9-1.808.678-2.034-.226-.45-.678.004-2.035.904-2.94z" class="H"/><path d="M51.764 72.822a86.5 86.5 0 0 1-5.651 15.6c-.452.226-.9.226-1.356.452 2.413-4.913 4.307-10.065 5.65-15.37zm-4.747-33.23a26.85 26.85 0 0 1 2.939 8.816c-.452.452-.9.678-1.356 1.13a22.63 22.63 0 0 0-2.939-8.59 3.84 3.84 0 0 1 1.356-1.356zm-2.487 2.262c1.44 2.585 2.36 5.426 2.713 8.364-.452.452-.9.678-1.356 1.13a21.45 21.45 0 0 0-2.713-8.364 5.98 5.98 0 0 1 1.356-1.13zm-.677 22.378c.226-3.4 4.747-8.816 5.425-8.816.9 0 1.356 1.356 1.356 1.356.66-1.954 1.5-3.845 2.486-5.65s4.07-.452 3.843 4.973a17.54 17.54 0 0 1-3.618 9.494 9.08 9.08 0 0 1-2.7-4.072c-.508-1.577-.678 3.617-2.713 4.747-1.808 1.133-4.294-.223-4.068-2.03z" class="I"/><path d="M65.78 92.036c-.55 1.247-1.405 2.335-2.486 3.165-2.034 1.13-5.425.678-8.364-1.13s-4.52-4.747-4.295-7.007a8.47 8.47 0 0 1 2.034-3.617c1.808-2.034 4.295-.226 7.912 2.26 3.617 2.26 6.33 3.842 5.2 6.33z" class="D"/><path d="M65.553 92.488c-1.582 2.486-5.877 2.486-9.494 0s-5.2-6.33-3.617-8.6c1.582-2.486 5.877-2.486 9.494 0 3.617 2.26 5.2 6.103 3.617 8.6z" class="O"/><path d="M63.745 91.13c-1.13 1.58-4.065 1.357-6.555-.452-2.713-1.808-3.843-4.295-2.94-5.877 1.13-1.582 4.07-1.356 6.555.452 2.713 1.582 4.074 4.295 2.94 5.877z" class="D"/><path d="M63.52 91.357c-1.13 1.582-4.07 1.356-6.555-.452-2.713-1.808-3.843-4.295-2.94-5.877 1.13-1.582 4.07-1.356 6.555.452 2.713 1.808 4.074 4.295 2.94 5.877z" class="O"/><path d="M54.477 78.472a3.69 3.69 0 0 1 1.808 2.034c.226 1.356-1.356 4.07-3.843 6.555s-4.973 4.07-6.555 4.295c-.883-.188-1.68-.665-2.26-1.356-.678-1.13 1.808-3.165 4.747-6.33s4.747-5.877 6.103-5.2z" class="D"/><path d="M54.477 78.473c1.13.9-.452 4.295-3.39 7.46s-6.33 4.973-7.46 4.07.452-4.295 3.39-7.46 6.328-4.973 7.46-4.07z" class="E"/><path d="M53.12 80.055c.678.678-.452 2.94-2.713 5.2s-4.52 3.617-5.2 3.165c-.678-.678.452-2.94 2.713-5.2s4.52-3.613 5.2-3.165z" class="D"/><path d="M53.573 80.507c.678.678-.452 2.94-2.713 5.2s-4.52 3.617-5.2 3.165c-.452-.678.678-2.94 2.713-5.2 2.26-2.26 4.522-3.613 5.2-3.165z" class="E"/><path d="M71.656 56.543c1.582 1.582 2.94 3.39 4.52 5.2 1.13 1.13 2.034 2.486 3.165 3.843 7.007-6.327 14.245-12.43 21.474-18.533-4.52-9.268-15.824-17.4-23.96-18.3-3.843 8.138-5.2 15.145-9.268 23.51 1.356 1.356 2.713 2.938 4.07 4.29z" fill="#7f8061"/><path d="M78.437 30.1l-2.034 4.07a32.88 32.88 0 0 1 18.31 17.405l3.617-2.94C94.29 40.156 87.18 33.53 78.437 30.1z" class="G"/><path d="M72.108 57l4.07 4.747c1.103 1.182 2.088 2.47 2.94 3.843l13.1-11.752c2.713-4.52 3.617-9.268 1.356-11.98-3.617-4.52-11.98-.226-17.63 8.364-1.357 2.257-2.713 4.743-3.843 6.778z" fill="#5d5e40"/><path d="M73.7 40.045l-4.747 9.72c1.13-.226 2.713-1.808 4.07-4.07 1.13-2.26 1.582-4.75.678-5.65zM70.3 55.2a1.72 1.72 0 0 0 .452-.9 12.18 12.18 0 0 0-2.938-1.586A25.79 25.79 0 0 1 70.3 55.2z" class="G"/><path d="M79.564 56.095a15.05 15.05 0 0 0-6.1 2.486l2.713 3.165a22.82 22.82 0 0 1 2.939 3.617 31.19 31.19 0 0 0 3.165-7.007 4.97 4.97 0 0 0 3.39-.452c1.13-.452 8.6-10.172 6.33-13.337-1.13-1.582-7.686 1.582-10.4 5.425-2.937 3.616-2.037 6.103-2.037 6.103zM94.94 36.428c.226-.9-2.486-4.07-5.877-6.78l-3.165 5.877 7.233 2.034z" class="F"/><path d="M73.012 54.964a47.83 47.83 0 0 1 4.745 2.487L95.165 36.43c-4.295.678-16.727-5.65-18.3-7.686-3.617 7.46-6.33 15.6-10.4 23.057 2.262.904 4.297 2.034 6.557 3.164z" class="L"/><path d="M87.027 40.27l-11.98 15.823c.226.226.452.226.9.452C80.246 51.12 90.418 39.14 91.322 38c-4.295-.452-12.432-4.07-15.37-7.46a22.81 22.81 0 0 1-1.582 3.39c3.4 2.26 8.138 5.2 12.658 6.33zm-13.79-3.84c.226 0 1.356 3.4.452 7.007-1.13 3.617-5.2 4.747-5.425 4.52 1.356-2.712 3.843-8.6 4.973-11.528z" class="I"/><path d="M73.012 54.964a3.97 3.97 0 0 1 .9-1.13 19.82 19.82 0 0 1-6.1-4.295 10.56 10.56 0 0 0-1.13 2.26l6.33 3.165z" fill="#878a5e"/><path d="M69.62 59.033l5.425 4.07a26.02 26.02 0 0 1 3.843 3.165c.226.226.678.452.9.678h.226c6.786-6.555 12.89-13.112 20.346-19.44-4.07.452-15.823-4.747-21.7-10.172a103.83 103.83 0 0 1-11.3 20.118c1.13 1.13.9.682 2.26 1.582z" class="J"/><path d="M69.17 58.582c.226.226.9.452 1.13.678 3.39-4.295 5.2-9.042 7.912-13.79 3.843 2.713 8.6 6.555 16.5 7.007l3.39-3.165c-3.617.678-13.79-4.52-19.214-8.816-.677 1.13-6.554 13.8-9.72 18.085z" class="K"/><path d="M79.567 66.945c2.486-2.26 12.206-11.754 14.467-13.79a41.66 41.66 0 0 0-9.72 6.781c-2.487 2.035-3.847 4.973-4.747 7.008z" fill="#a8a37b"/><path d="M74.595 62.876c.9-1.356 1.13-2.486.226-2.713a3.4 3.4 0 0 0-2.939.9 11.36 11.36 0 0 1 2.713 1.813z" fill="#888a5e"/><path d="M71.882 56.094a29.3 29.3 0 0 0 9.72 4.069l2.034-2.034a26.57 26.57 0 0 1-9.946-4.295c-.452.678-1.13 1.356-1.808 2.26zm4.748-5.424a29.5 29.5 0 0 0 9.72 4.295l1.808-1.808c-4.07-1.13-6.555-2.94-9.494-4.973-.733.782-1.412 1.613-2.034 2.486z" class="K"/><path d="M80.924 53.608c-1.808-.9-5.65-1.808-5.65-.678s2.034 2.94 3.617 3.617c1.356.678 4.973 1.13 5.65.452s-1.13-2.263-3.617-3.39z" fill="#96866f"/><path d="M96.295 99.716c-13.337-.678-30.064 9.042-44.983 23.057-6.588-5.752-15.257-8.53-23.96-7.682C45.21 96.556 65.78 81.41 83.636 77.116c5.425 5.425 9.715 13.11 12.66 22.6z" class="M"/><path d="M30.968 113.283h2.94c5.52.392 10.83 2.266 15.37 5.425.678.452 1.582 1.13 2.26 1.582 14.24-13.1 29.838-22.152 42.722-22.378-.452-.9-.678-2.034-1.13-2.94-2.026-5.204-4.932-10.02-8.6-14.24a6.88 6.88 0 0 0-1.808-1.808c-16.275 4.07-35.037 17.405-51.764 34.36zm61.484-18.3c-13.11.9-28.482 10.172-42.722 23.057-4.542-3.16-9.852-5.033-15.37-5.425 15.823-15.6 33.68-28.03 49.278-31.646a41.29 41.29 0 0 1 8.815 14.014z" class="I"/><path d="M73.7 92.037c4.07 4.295 3.617 10.172-.226 12.206s-10.4 0-15.37-2.713c-4.973-2.94-5.877-6.78-.9-10.172 4.743-3.392 12.428-3.62 16.497.68zm-22.162 13.1c.723.262 1.237.907 1.332 1.67a2.05 2.05 0 0 1-.88 1.947 5.81 5.81 0 0 1-5.425.678c-1.808-.678-2.034-2.034-.452-3.4 1.54-1.2 3.58-1.54 5.425-.904zM85.67 92.035c.678 1.13.452 2.486-.452 2.713-1.206.097-2.356-.522-2.94-1.582-.678-1.13-.678-2.26.226-2.486 1.243-.357 2.566.2 3.165 1.355z" class="H"/><path d="M60.127 106.728c-3.4 2.486-7.007 5.425-10.4 8.364-.452-.226-1.13-.678-1.582-.9a115.87 115.87 0 0 1 10.402-8.594 6.87 6.87 0 0 1 1.58 1.13zm26.447-18.762a54.14 54.14 0 0 0-9.72 3.165l-1.356-1.356a64.74 64.74 0 0 1 9.946-3.391c.454.452.678 1.13 1.13 1.582zm-2.034-2.94a60.91 60.91 0 0 0-10.172 3.617 5.98 5.98 0 0 0-1.356-1.13 73.61 73.61 0 0 1 10.4-3.843 5.99 5.99 0 0 0 1.128 1.356zm-25.317 6.556c3.4-2.26 10.4 0 10.624.9.452 1.13-.678 2.26-.678 2.26a15.1 15.1 0 0 1 5.65 1.13c1.793.735 1.582 5.425-2.034 7.46-3.617 1.808-7.912 0-7.912.226-.358-2.077-.043-4.215.9-6.1s-2.94 1.13-5.2 0c-2.03-1.354-3.156-4.745-1.35-5.875z" class="I"/><path d="M66.683 95.426a4.12 4.12 0 0 1 .9 2.713c-.226 1.808-2.486 4.295-5.65 5.877-3.165 1.808-6.1 2.26-7.686 1.356a3.63 3.63 0 0 1-1.582-2.486c-.452-2.034 2.26-3.39 6.1-5.425s6.79-3.617 7.92-2.035z" class="D"/><path d="M66.682 95.426c.9 1.808-1.582 4.973-5.425 7.233-3.843 2.034-7.686 2.486-8.6.452-.9-1.808 1.582-4.973 5.425-7.233 3.844-2.036 7.686-2.26 8.6-.452z" class="V"/><path d="M64.874 96.33c.678 1.13-1.356 3.39-4.07 4.973s-5.65 1.808-6.1.678c-.678-1.13 1.356-3.39 4.07-4.973 2.7-1.356 5.422-1.808 6.1-.678z" class="D"/><path d="M65.1 97.01c.678 1.13-1.356 3.39-4.07 4.973s-5.65 1.808-6.1.678c-.678-1.13 1.356-3.39 4.07-4.973s5.422-1.808 6.1-.678z" class="V"/><path d="M14.92 117.58C7.797 99.162 3.307 79.833 1.582 60.163a120.2 120.2 0 0 1-.452-20.118c.226-3.843.452-7.912 2.034-11.528a4.94 4.94 0 0 1 .678-1.13 25.39 25.39 0 0 1 4.521-4.069 37.59 37.59 0 0 1 9.494-6.555c.9-.452 2.034-.9 3.165-1.356h.226c.75.113 1.51.113 2.26 0 9.268 0 18.3-.452 27.577-.678l27.8-.9h2.486l2.034.678a59.5 59.5 0 0 1 7.912 3.391c3.005 1.325 5.76 3.16 8.138 5.425a10.11 10.11 0 0 1 2.939 4.973c.452 2.034.9 4.07 1.13 5.877.75 6.376 1.05 12.796.9 19.214a210.71 210.71 0 0 1-8.138 55.607c-.678 2.486-1.582 4.973-2.26 7.46-.226.678-.452 1.13-.678 1.808 0 0-.226.452 0 .452h-.218c-1.13.452-2.034.678-3.165 1.13a127.61 127.61 0 0 1-16.049 3.843c-18.988 2.94-38.654 1.582-56.51-5.2a17.17 17.17 0 0 0-2.486-.9c-.226-.226-1.13.226-.678.226 17.858 7.46 37.3 9.268 56.285 6.78 5.962-.75 11.857-1.96 17.63-3.62 1.552-.4 3.065-.92 4.52-1.582.226-.226.678-.226.9-.452h.226c.226 0 .226-.452.452-.678l.678-2.034c6.33-18.084 9.494-37.3 10.4-56.51.226-7.233.226-14.24-.226-21.474-.226-2.486-.452-4.973-.9-7.46a26.44 26.44 0 0 0-1.13-4.521 15.64 15.64 0 0 0-5.878-5.656c-2.74-1.728-5.613-3.24-8.6-4.52-2.034-.9-4.07-1.582-6.1-2.486-.428-.185-.895-.262-1.36-.226L26.9 14.95h-5.2c-.646.087-1.264.318-1.808.678-1.313.447-2.596.975-3.843 1.582a53.4 53.4 0 0 0-9.494 6.329c-1.582 1.356-3.617 2.94-4.295 4.973a14.76 14.76 0 0 0-1.13 4.521C0 38.463 0 43.888 0 49.313c.226 17.86 3.617 35.715 8.816 52.894 1.582 5.2 3.39 10.4 5.2 15.6z" class="W"/><path d="M16.5 115.318C9.45 96.736 5.037 77.258 3.4 57.45a116.9 116.9 0 0 1 0-19.892 53.3 53.3 0 0 1 .9-6.329c.252-1.274.712-2.497 1.36-3.62a19.64 19.64 0 0 1 3.843-3.617 37.17 37.17 0 0 1 4.973-3.165 34.05 34.05 0 0 1 7.912-3.165h.452s-.452-.452-.226 0a.22.22 0 0 1 .226.226h4.07l30.064-.678 23.283-.678c.678.226 1.13.452 1.808.678a78.08 78.08 0 0 1 7.686 3.165c3.005 1.328 5.758 3.167 8.136 5.434a9.77 9.77 0 0 1 2.713 4.973c1.356 4.973 1.582 10.172 1.808 15.37.226 7.992-.001 16-.678 23.956-.902 9.67-2.488 19.263-4.747 28.708-1.13 4.973-2.713 10.172-4.295 15.145-.226.678-.452 1.13-.678 1.808 0 0-.452 1.13-.226.9h-.226c-.452.226-.678.226-1.13.452a108.62 108.62 0 0 1-37.071 5.651 103.04 103.04 0 0 1-36.845-7.459c-.452-.226-.9.452-.226.678 17.63 7.233 37.3 9.042 56.06 6.1 5.497-.857 10.933-2.066 16.275-3.617 1.13-.452 2.26-.678 3.39-1.13.678-.226.678-.9.9-1.582.9-2.486 1.582-4.973 2.486-7.46a198.62 198.62 0 0 0 8.138-55.155c.074-6.198-.303-12.393-1.13-18.536a46.3 46.3 0 0 0-1.13-5.425 10.31 10.31 0 0 0-4.069-5.2c-4.518-3.61-9.943-5.87-15.368-7.68-.9-.452-1.356-.678-2.034-.452h-2.94l-29.386.9c-5.2.226-10.4.226-15.6.452-2.94 0-5.877.226-8.6 0h-.22c-.226 0 .452.452.226 0-.452-.452-1.13 0-1.582 0a43.91 43.91 0 0 0-8.144 3.4c-3.237 1.646-6.148 3.867-8.6 6.555a8.92 8.92 0 0 0-1.356 3.391A66.67 66.67 0 0 0 2.26 45.47a158.1 158.1 0 0 0 1.582 23.057 199.55 199.55 0 0 0 11.98 47.017c.001.452.905.226.68-.226z" class="W" opacity=".27"/><path d="M22.153 71.013c-.678 15.37 18.3 37.523 47.243 51.312 6.555-2.94 12.885-6.1 19.214-9.268-26.22-8.6-43.175-26-41.366-39.106-8.364-.678-16.728-1.808-25.09-2.938z" class="M"/><path d="M45.435 75.08c-.9 0-1.808-.226-2.713-.226-5.425-.452-10.85-1.13-16.275-1.808-.9-.226-1.808-.226-2.713-.452.678 14.693 18.084 34.81 44.3 48.147.737-.34 1.492-.64 2.26-.9a309.8 309.8 0 0 0 12.658-5.651c.678-.452 1.356-.678 2.034-1.13-24.18-9.046-39.777-25.32-39.55-37.98zm-2.713.226c.453 12.888 15.598 28.934 39.106 38.428-4.07 2.034-8.364 3.843-12.658 5.65-24.865-12.658-41.592-31.42-42.496-45.66 5.2.678 10.624 1.13 16.05 1.583z" class="I"/><path d="M40 88.644c-5.65 0-7.912 3.843-3.617 8.6 4.295 4.973 13.1 8.138 18.3 7.233 5.2-1.13 5.2-4.973 1.356-9.042a24.64 24.64 0 0 0-16.049-6.781zm22.4 20.57c-1.582.452-1.356 1.808.678 2.94a9.54 9.54 0 0 0 6.33 1.13c1.582-.452 1.13-1.808-.9-2.713-1.812-1.13-4.525-1.808-6.107-1.356zM31.194 79.15c-1.356-.226-2.26.452-1.808 1.582a4.63 4.63 0 0 0 3.165 2.034c1.356 0 2.034-.678 1.582-1.582a3 3 0 0 0-2.939-2.034z" class="H"/><path d="M52.67 107.858c4.703 3.684 9.78 6.866 15.145 9.494.452-.226 1.13-.452 1.582-.678a84.75 84.75 0 0 1-15.145-9.268c-.48.283-1.025.44-1.582.452zm-18.3-31.194a27.3 27.3 0 0 0 3.391 9.268h1.8a27.3 27.3 0 0 1-3.392-9.268zm3.606.236a28.08 28.08 0 0 0 3.39 9.042h1.8C41.49 83.265 40.41 80.258 40 77.126a6.26 6.26 0 0 0-2.035-.226zM53.8 95.426c-2.486-2.713-9.946-4.295-10.4-3.843-.9.678-.226 2.26-.226 2.26s-3.4-2.034-5.876-3.164c0 0-3.843 2.26 0 6.78a21.91 21.91 0 0 0 9.494 5.651 9.27 9.27 0 0 0-.452-5.425c-.7-1.722 3.165 2.713 5.425 2.26 2.26-.225 3.4-3.167 2.035-4.52z" class="I"/><path d="M6.103 67.623C12.658 81.637 40 92.714 72.108 92.036c4.52-5.425 8.6-11.076 12.658-16.953-27.35 4.294-50.407-3.844-54.928-16.276q-11.53 4.747-23.735 8.816z" class="M"/><path d="M28.707 60.84l-2.486 1.13c-4.973 2.034-9.946 3.843-15.145 5.65-.9.226-1.808.678-2.713.9 7.46 12.66 32.1 22.83 61.7 22.83.452-.678 1.13-1.13 1.582-1.808 2.94-3.617 5.877-7.007 8.6-10.85a12.54 12.54 0 0 1 1.356-1.808C55.832 79.83 34.363 72.37 28.707 60.84zm-2.26 1.356c6.33 11.3 27.35 18.762 52.668 16.727-2.74 3.64-5.604 7.184-8.6 10.624-28.03 0-51.538-9.268-59-21.474 4.976-1.808 9.95-3.842 14.922-5.877z" class="I"/><path d="M30.064 75.3c-4.973 2.486-5.425 7.007.9 9.268 6.1 2.486 15.37 1.356 19.666-1.808 4.07-3.165 2.26-6.78-2.94-8.6-5.42-1.583-12.654-1.36-17.627 1.13zm29.616 8.36c-1.13 1.13-.452 2.26 2.034 2.26a8.58 8.58 0 0 0 6.1-1.808c1.13-1.13.226-2.034-2.034-2.034-2.262-.224-4.974.452-6.1 1.582zM18.084 70.787c-1.13.452-1.582 1.582-.9 2.26a3.41 3.41 0 0 0 3.617.226c1.13-.452 1.582-1.582.678-2.26a3.03 3.03 0 0 0-3.395-.226z" class="H"/><path d="M50.408 86.832a92.1 92.1 0 0 0 17.858 1.582c.452-.452.678-.9 1.13-1.13a89.9 89.9 0 0 1-17.632-1.352 4.73 4.73 0 0 0-1.356.9zM19.666 67.17a37.1 37.1 0 0 0 7.459 6.781 5.68 5.68 0 0 0 1.582-.9 25.9 25.9 0 0 1-7.233-6.559l-1.808.678zm3.4-1.37a25.9 25.9 0 0 0 7.233 6.555 5.68 5.68 0 0 0 1.582-.9 21.92 21.92 0 0 1-7.007-6.555 13.33 13.33 0 0 1-1.808.9zm22.604 9.282c-3.617-1.356-10.85.678-11.076 1.356-.452.9.9 2.034.9 2.034s-3.843-.226-6.78-.226c0 0-2.26 3.843 3.165 6.1a22.63 22.63 0 0 0 11.076.9 10.46 10.46 0 0 0-2.939-4.521c-1.358-1.224 4.07.9 5.877-.452 1.812-1.574 1.586-4.512-.222-5.2z" class="I"/><path d="M39.557 83.898c3.617 7.007 6.1 14.467 10.172 21.474-10.172 1.583-17.857 5.65-25.1 11.755L12.657 97.235c-.225-3.165 16.73-11.53 26.9-13.337z" class="F"/><path d="M44.756 102.658c-2.713-4.52-4.07-9.494-6.78-14.015a49.1 49.1 0 0 0-22.831 11.756 19.55 19.55 0 0 1-1.582-2.261c2.26-4.07 14.467-9.946 23.96-11.98.452.678.9 1.582 1.356 2.26 2.713 4.52 7.683 15.37 8.138 16.05-9.268 1.808-16.275 5.65-23.283 11.3-.452-.678-.9-1.582-1.356-2.26 6.328-5.593 14.068-9.345 22.378-10.85z" class="G"/><path d="M30.74 97.913a3.9 3.9 0 0 0 4.295 1.808c.72-.226 1.286-.79 1.51-1.513s.083-1.508-.38-2.104a3.8 3.8 0 0 0-4.521-1.808c-1.356.226-1.808 2.034-.904 3.617z" class="H"/><path d="M31.2 104.92a50.38 50.38 0 0 1 11.528-4.295c-.226-.452-.678-1.13-.9-1.582a63.77 63.77 0 0 0-11.528 4.295c.337.506.637 1.034.9 1.582zm-17.186-5.425c1.356-1.13 5.425.678 6.78 2.94s-.678 4.295-.678 4.295a12.03 12.03 0 0 1 6.555 1.13 8.11 8.11 0 0 1-2.939 6.781l-.452.452-9.268-15.6z" class="I"/><path d="M42.948 86.61c-6.1-.452-10.85 2.26-15.6 4.747-4.747 2.713-9.042 5.425-14.92 6.1l12.432 20.8c5.2-.226 9.042-2.94 13.337-5.2 4.07-2.486 8.364-4.747 13.79-4.295l-9.04-22.152z" class="J"/><path d="M13.336 98.817l1.356 2.26c10.172-.678 16.5-9.268 26.447-10.624l6.1 14.24c-9.268 1.13-14.693 9.268-24.413 9.72.452.678.9 1.582 1.356 2.26 9.72-.452 15.145-9.268 24.865-9.72-.226-.9-.678-1.582-.9-2.486l-5.877-14.24c-.226-.9-.678-1.582-.9-2.486-10.855 1.13-17.4 10.172-28.034 11.076z" class="K"/><path d="M27.35 105.373c-2.715-4.973-8.138-6.782-14.015-6.556l10.85 18.084c4.75-.678 5.65-6.78 3.165-11.528z" class="I"/><path d="M39.33 103.338a2.8 2.8 0 0 1-.9 3.165c-1.13.678-2.26.226-2.94-1.13-.31-.537-.39-1.177-.222-1.774s.575-1.1 1.122-1.39c.905-.678 2.26 0 2.94 1.13z" class="L"/><path d="M41.365 98.6c-4.07 1.13-7.46 3.4-11.076 5.425a5.68 5.68 0 0 0-.9-1.582c3.617-2.034 7.007-4.295 11.076-5.425a5.54 5.54 0 0 1 .9 1.582zM40 95.426c-4.07 1.13-7.686 3.4-11.076 5.425a5.68 5.68 0 0 0-.9-1.582c3.617-2.034 7.233-4.295 11.3-5.65.086.646.317 1.264.676 1.808zm-12.65 14.468a24.59 24.59 0 0 0-5.425-2.034 3.12 3.12 0 0 0 1.356-2.26c0-.9-4.973-5.2-9.042-4.973l9.268 15.6c4.295-.906 3.843-6.56 3.843-6.333z" class="K"/><path d="M77.307 117.58a3.95 3.95 0 0 1-.9 2.713c-1.356 1.356-4.295 1.808-7.912.9-3.39-.678-6.1-2.26-7.007-4.07a3.44 3.44 0 0 1 .226-2.939c.9-1.808 3.843-1.13 8.138-.226 4.29 1.134 7.455 1.586 7.455 3.62z" class="D"/><path d="M77.312 117.578c-.452 2.034-4.07 2.94-8.364 2.034s-7.46-3.165-7.007-5.2 4.07-2.94 8.364-2.034 7.454 3.166 7.007 5.2z" class="E"/><path d="M75.273 117.126c-.226 1.356-2.94 1.808-6.1 1.13s-5.425-2.26-5.2-3.39c.226-1.356 2.94-1.808 6.1-1.13s5.426 2.26 5.2 3.39z" class="D"/><path d="M75.047 117.804c-.226 1.356-2.94 1.808-6.1 1.13s-5.425-2.26-5.2-3.39c.226-1.356 2.94-1.808 6.1-1.13s5.426 2.035 5.2 3.39z" class="E"/><path d="M70.3 115.09a2.52 2.52 0 0 1 .226 2.486c-.678 1.356-3.39 2.94-7.007 4.07-3.39 1.13-6.555 1.13-7.912.452-.64-.68-1.038-1.555-1.13-2.486 0-1.582 3.39-1.808 7.686-3.165 4.294-1.13 7.233-2.712 8.137-1.356z" class="D"/><path d="M70.3 115.09c.452 1.356-2.94 3.617-7.233 4.973s-8.138 1.356-8.6-.226c-.452-1.356 2.94-3.617 7.233-4.973s8.138-1.352 8.6.226z" class="V"/><path d="M68.265 115.77c.226.9-2.034 2.26-5.2 3.39-3.165.9-5.877 1.13-6.1.226s2.034-2.26 5.2-3.39c2.935-1.13 5.874-1.13 6.1-.226z" class="D"/><path d="M68.265 116.448c.226.9-2.034 2.26-5.2 3.39-3.165.9-5.877.9-6.1.226-.226-.9 2.034-2.26 5.2-3.39s5.874-1.13 6.1-.226z" class="V"/><path d="M18.988 50.67s3.843 28.03 5.2 46.565c4.7 1.542 9.546 2.527 14.466 2.935a36.1 36.1 0 0 0 9.494-.452l.9 2.26c4.694.473 9.432-.226 13.79-2.034s4.072 3.168 4.75 3.168c7.233-.226 15.37-4.747 21.7-6.33 0 0-.678-6.78-2.26-15.823 0 0 2.713 4.973 2.486 3.843-3.617-14.24 3.165-18.988 3.165-24.64 0 0-2.94-2.034-5.65-1.808-11.077 1.13-40.69-4.07-68.04-7.686z" fill="#a1c0c4"/><path d="M17.63 49.313s2.034 28.256 6.78 47.017c0 0 34.81 4.973 58.772-.452 0 0 5.2-38.2 5.2-49.278.225-.226-36.394 6.78-70.753 2.713z" class="Z"/><path d="M22.604 15.18c-.727.73-1.337 1.57-1.808 2.486-.452.678-1.356 2.034-.678 2.713.452.9 1.808 1.13 2.486 1.356 5.2 1.582 11.076 2.034 16.727 2.26a152.76 152.76 0 0 0 28.708-1.355c4.747-.678 9.494-1.356 13.79-3.617a13.72 13.72 0 0 0 2.26-1.582c.452-.678-1.13-2.26-1.356-2.713-.452-.452-.678-.9-1.13-1.356-.226-.226-.452-.452-.678-.452-2.034 0-4.07.226-6.1.226l-31.194.9-20.348.682c-.452 0-.678.678-.226.678l20.118-.678 31.42-.9c2.034 0 4.07-.226 6.33-.226-.226 0-.452-.226-.226 0l.452.452c.185.703.58 1.333 1.133 1.805.452.452 1.356 1.356.678 1.808-.82.658-1.736 1.19-2.713 1.582-5.2 2.26-11.3 2.94-16.953 3.39a171.25 171.25 0 0 1-28.482.452 42.94 42.94 0 0 1-11.98-2.034c-.73-.16-1.423-.467-2.034-.9-.452-.678.678-2.26.9-2.713.456-.733.987-1.416 1.584-2.04.453-.452-.45-.452-.678-.226z" class="W"/><path d="M18.762 7.494l3.617 9.946s6.78 2.713 30.742 2.26c10.172-.226 22.378-2.034 28.256-4.07l3.616-10.17z" fill="#f58520"/><path d="M16.723 21.5c-2.034-.9-12.658 6.78-9.72 10.172 6.108 7.687 35.494 11.98 47.02 7.687 7.686-2.713 7.233-13.1 5.65-14.467.002-.001-28.028 3.4-42.95-3.392zm6.107-2.035c.678.678 3.843 2.26 13.1 2.94 9.268.452 17.858-.678 18.536-1.356 1.13-1.13-6.1-.452-17.405-.9-8.817-.23-14.92-1.36-14.242-.683z" class="b"/><path d="M56.738 11.108l-33.68-.675a26.98 26.98 0 0 0 2.713 7.233c10.268 2.024 20.774 2.557 31.194 1.582 0-2.7 0-5.424-.226-8.14zm1.582.002l-.452 7.912 5.425-.678 1.13-7.007-6.103-.227z" class="c"/><path d="M84.993 5.234c.226 3.39-14.693 6.555-32.776 7.233-18.3.68-33.23-1.582-33.455-4.972 0-3.39 14.467-4.295 32.55-5.2 19.214-1.13 33.455-.45 33.68 2.94z" fill="#ffe4bd"/><path d="M84.993 5.234c0 2.486-14.693 5.877-33 6.555s-33.23-1.808-33.23-4.294c0-3.39 14.693-6.33 32.776-7.234C70.752-.87 84.993 1.844 84.993 5.234z" fill="#efa060"/><path d="M23.5 9.98s13.1 3.165 31.872 1.812L70.3.94S54.7-.2 45.887 1.166zm35.036 1.36L72.335.94a5.09 5.09 0 0 1 1.582.226l-8.364 9.72c-2.324.3-4.664.45-7.007.454z" class="f"/><path d="M61.484 75.76a6.97 6.97 0 0 1 .226 2.26c-.2.833-.577 1.608-1.13 2.26-.5.768-1.21 1.39-2.034 1.808-.862.472-1.77.85-2.713 1.13-.816.177-1.65.253-2.486.226-.774-.02-1.54-.172-2.26-.452-.616-.188-1.22-.415-1.808-.678a4.94 4.94 0 0 1-1.13-.678l-.452 1.582-2.488-.45.678-5.425h2.94a10.18 10.18 0 0 0 2.034 2.26 4.94 4.94 0 0 0 1.13.678c.452.226.678.452 1.13.452s.9.226 1.356 0c.48-.047.944-.2 1.356-.452.642-.182 1.2-.582 1.582-1.13.4-.342.644-.83.678-1.356a1.66 1.66 0 0 0-.452-1.356c-.255-.48-.65-.875-1.13-1.13-.544-.36-1.162-.59-1.808-.678a3.85 3.85 0 0 0-2.26 0 5.51 5.51 0 0 1-2.713 0 3.82 3.82 0 0 1-2.26-.678c-.61-.243-1.154-.63-1.582-1.13-.453-.492-.696-1.14-.678-1.81a3.36 3.36 0 0 1 .452-2.034 7.51 7.51 0 0 1 1.808-2.486c.437-.64 1.072-1.115 1.808-1.356.678-.226 1.13-.678 1.808-.678.584-.186 1.197-.263 1.808-.226a3.35 3.35 0 0 1 1.582.226c1.28.334 2.502.868 3.617 1.582l.452-2.486 2.94-.228-.9 5.425-3.617.226c.037-.72-.304-1.404-.9-1.808a4.26 4.26 0 0 0-2.034-.9c-.75-.113-1.51-.113-2.26 0-.717.152-1.358.552-1.808 1.13-.43.443-.74.987-.9 1.582-.167.534-.084 1.116.226 1.582a4.9 4.9 0 0 0 1.582 1.356 7.72 7.72 0 0 0 3.391.452h2.245a6.6 6.6 0 0 1 2.034.452c.595.16 1.14.47 1.582.9.684.903.907 1.357 1.36 2.035z" class="g"/><path d="M51.086 59.937v5.65h2.486l.9-5.65zm.678 21.926l-.678 5.65 2.94-.226.9-5.425z" class="g"/><defs ><path id="B" d="M84.766 105.598c0 1.356-2.713 2.26-6.1 2.26-3.165 0-5.65-1.13-5.65-2.486s2.713-2.26 6.1-2.26c3.165.226 5.65 1.356 5.65 2.486z"/><path id="C" d="M87.705 114.866c-.678.678-2.94-.452-5.425-2.713-2.26-2.034-3.617-4.295-3.165-5.2.678-.678 2.94.452 5.425 2.713 2.26 2.26 3.617 4.52 3.165 5.2z"/><path id="D" d="M76.63 49.312a27.7 27.7 0 0 0-9.494 3.165l-.678-1.808a27.7 27.7 0 0 1 9.494-3.165c.188.616.415 1.22.678 1.808z"/><path id="E" d="M47.244 114.187c.338.968.256 2.034-.226 2.94-.9 1.582-3.843 2.713-7.46 2.94-3.39 0-6.555-.9-7.686-2.26a4.66 4.66 0 0 1-.678-2.939c.226-2.034 3.39-2.034 7.912-2.034 4.294-.453 7.462-.68 8.137 1.355z"/><path id="F" d="M47.244 114.185c.226 2.034-3.39 3.843-7.686 3.843-4.295.226-8.138-1.356-8.138-3.39-.226-2.034 3.39-3.843 7.686-3.843 4.295-.223 7.91 1.36 8.138 3.39z"/><path id="G" d="M44.983 114.187c0 1.356-2.486 2.486-5.65 2.486s-5.877-.9-5.877-2.26 2.486-2.486 5.65-2.486 5.877.9 5.877 2.26z"/></defs></svg>