<?xml version="1.0" standalone="no"?>
<!DOCTYPE svg PUBLIC "-//W3C//DTD SVG 1.1//EN" "http://www.w3.org/Graphics/SVG/1.1/DTD/svg11.dtd" >
<svg xmlns="http://www.w3.org/2000/svg">
<metadata>Generated by IcoMoon</metadata>
<defs>
<font id="icomoon" horiz-adv-x="1024">
<font-face units-per-em="1024" ascent="819" descent="-205" />
<missing-glyph horiz-adv-x="1024" />
<glyph unicode="&#x20;" d="" />
<glyph unicode="&#xe601;" glyph-name="icon-caret-down-2" horiz-adv-x="768" d="M384 208l-272 272-80-80 352-352 352 352-80 80z" />
<glyph unicode="&#xe602;" glyph-name="uniE602" horiz-adv-x="768" d="M496 320l-272-272 80-80 352 352-352 352-80-80z" />
<glyph unicode="&#xe60d;" glyph-name="icon-caret-right" d="M447 559l-46-46 194-193-194-193 46-46 238 239z" />
<glyph unicode="&#xe60e;" glyph-name="icon-caret-left" d="M577 81l46 46-194 193 194 193-46 46-238-239z" />
<glyph unicode="&#xe900;" glyph-name="icon-caret-up-1" d="M469.654 416.241c-23.098-20.788-45.426-35.417-49.275-33.107s-4.62 0-3.080-6.159c2.31-6.159-30.027-49.275-72.373-97.78-66.983-76.992-75.453-90.081-75.453-116.259 0-37.726 24.638-62.364 62.364-62.364 33.877 0 36.956 3.080 113.949 90.851 33.877 39.266 63.904 70.833 66.214 70.833s32.337-31.567 66.214-70.833c76.992-88.541 80.072-90.851 114.719-90.851 36.956 0 61.594 25.408 61.594 63.904 0 24.638-9.239 39.266-75.453 114.719-42.346 48.505-74.683 91.621-72.373 97.78s0 8.469-4.62 5.389c-4.62-2.31-14.629 3.080-22.328 12.319-7.699 10.009-26.177 26.947-40.806 37.726l-27.717 20.788-41.576-36.956z" />
<glyph unicode="&#xe901;" glyph-name="icon-caret-down-1" d="M286.412 467.826c-10.779-11.549-16.938-27.717-16.938-46.195 0-24.638 9.239-39.266 75.453-114.719 42.346-48.505 74.683-91.621 72.373-97.78s0-8.469 4.62-5.389c4.62 2.31 14.629-3.080 22.328-12.319 7.699-10.009 26.177-26.947 40.806-37.726l26.947-20.788 43.116 37.726c23.868 20.788 46.195 34.647 49.275 31.567s4.62 0 2.31 6.159c-2.31 6.929 26.947 46.195 72.373 98.55 66.983 76.992 75.453 90.081 75.453 116.259 0 37.726-24.638 62.364-62.364 62.364-33.877 0-36.956-3.080-113.949-90.851-33.877-39.266-63.904-70.833-66.214-70.833s-32.337 31.567-66.214 70.833c-34.647 39.266-67.753 76.223-74.683 81.612-20.788 16.168-66.214 11.549-84.692-8.469z" />
<glyph unicode="&#xe902;" glyph-name="award" horiz-adv-x="969" d="M964.911 478.144c-6.867 21.314-22.137 38.779-42.143 48.248l-96.187 45.394-12.882 106.783h-0.043c-2.645 22.264-14.332 42.411-32.204 55.596-17.915 13.186-40.394 18.244-62.105 13.921l-103.864-20.579-72.727 78.813c-15.057 16.385-36.171 25.68-58.266 25.68s-43.166-9.295-58.224-25.68l-72.855-78.813-104.164 20.579c-21.712 4.323-44.233-0.735-62.148-13.921-17.872-13.186-29.559-33.332-32.204-55.596l-12.882-106.783-96.314-45.394c-19.962-9.511-35.148-27.020-41.887-48.291-6.739-21.314-4.479-44.486 6.27-64.028l51.57-94.073-51.57-94.074c-10.706-19.584-12.924-42.8-6.1-64.114s22.095-38.779 42.143-48.204l96.314-45.394 12.882-106.783c2.687-22.264 14.375-42.367 32.289-55.553 17.872-13.143 40.351-18.157 62.063-13.878l103.737 20.493 72.385-78.813c15.057-16.385 36.171-25.68 58.266-25.68s43.209 9.295 58.266 25.68l73.153 78.813 104.164-20.579c21.712-4.323 44.233 0.735 62.148 13.921 17.872 13.186 29.559 33.332 32.204 55.596l12.882 106.783 96.229 45.394c20.005 9.425 35.276 26.891 42.143 48.204 6.825 21.314 4.607 44.529-6.142 64.114l-51.868 94.074 51.528 94.073h0.043c10.664 19.584 12.882 42.8 6.1 64.071v0zM911.056 440.837l-58.895-107.57c-4.567-8.398-4.567-18.571 0-26.925l58.895-107.614c3.414-6.104 4.14-13.376 2.091-20.086-2.091-6.71-6.786-12.208-13.017-15.281l-110.020-51.946c-8.664-4.112-14.595-12.51-15.62-22.163l-14.767-121.899c-0.726-7.099-4.396-13.506-10.029-17.748-5.676-4.199-12.804-5.801-19.675-4.415l-119.536 23.939c-9.261 1.818-18.779-1.342-25.223-8.311l-82.71-90.126c-4.823-4.978-11.438-7.835-18.352-7.835s-13.529 2.857-18.352 7.835l-82.71 90.125c-5.164 5.627-12.419 8.831-19.973 8.831-1.75 0.173-3.5 0.173-5.249 0l-119.11-24.155c-6.871-1.342-13.998 0.26-19.675 4.459-5.633 4.242-9.261 10.649-10.029 17.705l-14.767 121.899c-1.024 9.653-6.914 18.094-15.62 22.163l-109.682 51.643c-6.231 3.073-10.968 8.571-13.017 15.281-2.091 6.71-1.323 13.982 2.091 20.086l58.895 107.614c4.567 8.355 4.567 18.528 0 26.925l-58.895 107.614c-3.414 6.104-4.182 13.376-2.091 20.042 2.049 6.71 6.786 12.251 13.017 15.281l109.255 52.075c8.664 4.112 14.595 12.51 15.62 22.163l14.767 121.899c0.726 7.099 4.396 13.506 10.029 17.748 5.676 4.199 12.804 5.801 19.675 4.415l119.198-23.592c9.261-1.818 18.779 1.342 25.223 8.311l82.71 90.082c4.823 5.021 11.438 7.835 18.352 7.835s13.529-2.814 18.352-7.835l82.71-90.082c6.444-6.969 16.004-10.129 25.265-8.311l119.198 23.592c6.871 1.385 13.998-0.216 19.632-4.415 5.676-4.242 9.304-10.649 10.072-17.748l14.767-121.899c0.982-9.653 6.914-18.051 15.62-22.163l109.9-51.946c6.231-3.073 10.968-8.571 13.017-15.281 2.091-6.71 1.323-13.982-2.091-20.086l0.755-0.131zM585.143 253.515c0.085-43.379-30.386-80.931-73.193-90.18v-17.445c0-14.91-12.249-27.033-27.314-27.033-15.108 0-27.314 12.123-27.314 27.033v17.952c-29.576 8.152-53.689 29.229-65.553 57.234-5.89 13.727 0.64 29.61 14.553 35.396s29.96-0.676 35.806-14.445c7.085-16.938 23.814-28.004 42.379-28.004 21.851 0 46.007 12.334 46.007 39.451 0 7.012 0 28.343-52.11 40.127h-0.854c-81.387 18.712-93.508 66.062-93.508 92.673h-0.043c-0.085 43.422 30.473 80.973 73.32 90.18v17.656c0 14.91 12.206 27.033 27.314 27.033 15.065 0 27.314-12.123 27.314-27.033v-17.952c29.533-8.152 53.647-29.229 65.553-57.234 5.847-13.727-0.683-29.61-14.595-35.396s-29.918 0.676-35.806 14.445c-7.127 17.022-23.942 28.090-42.592 28.004-21.851 0-46.007-12.334-46.007-39.451 0-7.012 0-28.343 52.11-40.127h0.854c81.429-19.050 93.678-66.315 93.678-92.883v0zM493.714 630.857c-82.441 0-161.533-32.753-219.82-91.037-58.285-58.285-91.037-137.369-91.037-219.82s32.753-161.533 91.037-219.82c58.285-58.285 137.369-91.037 219.82-91.037s161.533 32.753 219.82 91.037c58.285 58.285 91.037 137.369 91.037 219.82-0.086 82.399-32.882 161.445-91.123 219.732-58.285 58.242-137.325 91.037-219.732 91.123l-0.002 0.002zM493.714 64.008c-67.915 0-132.99 26.968-181.031 74.968-48.001 48.043-74.969 113.114-74.969 181.028s26.968 132.988 74.969 181.028c48.044 48 113.115 74.968 181.031 74.968s132.99-26.968 181.031-74.968c48.001-48.043 74.969-113.114 74.969-181.028-0.086-67.872-27.097-132.944-75.098-180.907-47.958-48-113.038-75.011-180.91-75.097l0.008 0.008z" />
<glyph unicode="&#xe903;" glyph-name="cart" horiz-adv-x="1143" d="M38.103 832c-21.035 0-38.103-17.2-38.103-38.4s17.068-38.4 38.103-38.4h126.614c63.058-157.4 125.175-315.095 187.733-472.802l-57.551-139.596c-4.813-11.65-3.473-25.65 3.473-36.149s19.299-17.099 31.852-17.049h635.050c20.143-0.3 38.649 18.1 38.649 38.4s-18.505 38.699-38.649 38.4h-577.895l32.944 79.199 611.629 49.2c16.025 1.25 30.512 13.849 34.134 29.6l76.206 332.797c4.961 22.4-14.536 46.85-37.309 46.799h-837.872l-41.278 103.999c-5.656 14.1-20.243 24-35.324 24l-152.405 0.003zM292.118 627.2h241.315v-115.2h-194.604l-46.711 115.2zM609.637 627.2h152.409v-115.2h-152.409v115.2zM838.251 627.2h215.913l-25.862-115.2h-190.045l-0.006 115.2zM368.322 435.2h165.11v-105.804l-118.703-9.396-46.407 115.2zM609.637 435.2h152.409v-89.39l-152.409-13.010v102.4zM838.251 435.2h177.811l-15.356-64.388-162.448-12.412-0.006 76.8zM457.228 64c-69.706 0-127.008-57.75-127.008-128s57.302-128 127.008-128c69.706 0 127.008 57.75 127.008 128s-57.302 128-127.008 128zM838.251 64c-69.706 0-127.008-57.75-127.008-128s57.302-128 127.008-128c69.706 0 127.008 57.75 127.008 128s-57.302 128-127.008 128zM457.228-12.8c28.527 0 50.803-22.45 50.803-51.2s-22.276-51.2-50.803-51.2c-28.527 0-50.803 22.45-50.803 51.2s22.276 51.2 50.803 51.2zM838.251-12.8c28.527 0 50.803-22.45 50.803-51.2s-22.276-51.2-50.803-51.2c-28.527 0-50.803 22.45-50.803 51.2s22.276 51.2 50.803 51.2z" />
<glyph unicode="&#xe904;" glyph-name="checklist" horiz-adv-x="1045" d="M599.324 109.589c0-11.233-9.687-21.041-20.781-21.041h-418.384c-11.094 0-20.781 9.808-20.781 21.041s9.687 21.041 20.781 21.041h418.384c11.094 0 20.781-9.808 20.781-21.041zM815.36 284.931h-655.076c-11.161 0-20.907-9.808-20.907-21.041s9.746-21.041 20.907-21.041h655.076c11.161 0 20.907 9.808 20.907 21.041 0 11.178-8.33 21.041-20.907 21.041zM815.36 439.233h-655.076c-11.161 0-20.907-9.808-20.907-21.041s9.746-21.041 20.907-21.041h655.076c11.161 0 20.907 9.808 20.907 21.041s-8.33 21.041-20.907 21.041zM815.36 607.562h-655.076c-11.161 0-20.907-9.808-20.907-21.041s9.746-21.041 20.907-21.041h655.076c11.161 0 20.907 9.808 20.907 21.041s-8.33 21.041-20.907 21.041zM576.744-106.525h-403.078c-72.265 0-130.631 58.822-130.631 131.653v633.147c0 72.83 58.366 131.653 130.631 131.653h629.65c72.265 0 130.631-58.822 130.631-131.653v-406.232c0-11.217 9.719-21.012 20.849-21.012s20.849 9.795 20.849 21.012v406.232c0 95.266-77.858 173.671-172.323 173.671l-630.998 0.055c-94.526 0-172.323-78.467-172.323-173.671v-634.576c0-95.265 77.858-173.671 172.323-173.671h403.078c11.13 0 20.849 9.795 20.849 21.012 0 11.163-8.361 22.381-19.491 22.381h-0.015zM1045.333-16.658c0-96.767-78.074-175.342-174.222-175.342s-174.222 78.576-174.222 175.342c0 96.767 78.074 175.342 174.222 175.342 96.203 0 174.222-78.521 174.222-175.342zM996.030 52.198c-11.463 11.061-28.629 11.061-40.092 0l-111.665-107.749-42.944 41.438c-11.463 11.061-28.629 11.061-40.092 0s-11.463-27.625 0-38.686l62.961-60.753c5.703-5.503 12.861-8.309 20.017-8.309s14.315 2.752 20.017 8.309l131.682 127.065c10.121 9.658 10.121 27.625 0.112 38.686h0.003z" />
<glyph unicode="&#xe905;" glyph-name="clipboard" horiz-adv-x="725" d="M133.112 439.479h458.84v54.21h-458.84zM133.112 302.371h458.84v54.21h-458.84zM133.112 165.532h458.84v54.21h-458.84zM133.112 28.424h458.84v54.21h-458.84zM552.61 707.368v34.474h-106.774c0 46.053-37.253 83.421-83.163 83.421s-83.163-37.368-83.163-83.421h-106.774v-34.474h-161.346v-892.632h702.566v892.632h-161.344zM488.073 715l16.265-8.421 16.265 8.421-3.148-18.158 13.117-12.895-18.102-2.632-8.133-16.579-8.133 16.579-18.102 2.632 13.117 12.895-3.146 18.158zM204.736 715l16.265-8.421 16.265 8.421-3.148-18.158 13.117-12.895-18.102-2.632-8.133-16.579-8.133 16.579-18.102 2.632 13.117 12.895-3.146 18.158zM659.91-131.053h-594.478v784.209h107.3v-24.474h380.142v24.474h107.3v-784.209h-0.263z" />
<glyph unicode="&#xe906;" glyph-name="download-app" horiz-adv-x="894" d="M364.849 685.714h-90.088c-12.443 0-22.522 10.229-22.522 22.857s10.079 22.857 22.522 22.857h90.088c12.443 0 22.522-10.229 22.522-22.857s-10.079-22.857-22.522-22.857zM545.025 822.857h-450.44c-49.661 0-90.088-41.029-90.088-91.429v-822.857c0-50.4 40.427-91.429 90.088-91.429h450.44c49.661 0 90.088 41.029 90.088 91.429v137.143c0 12.629-10.079 22.857-22.522 22.857s-22.522-10.229-22.522-22.857h-540.528v548.571h540.528c0-12.629 10.079-22.857 22.522-22.857s22.522 10.229 22.522 22.857v137.143c0 50.4-40.427 91.429-90.088 91.429zM590.069 0v-91.429c0-25.201-20.213-45.714-45.044-45.714h-450.44c-24.831 0-45.044 20.514-45.044 45.714v91.429h540.528zM49.541 640v91.429c0 25.201 20.213 45.714 45.044 45.714h450.44c24.831 0 45.044-20.514 45.044-45.714v-91.429h-540.528zM673.57 176.172c-8.784 8.914-23.029 8.914-31.868 0l-6.588-6.686v104.801c0 12.629-10.079 22.857-22.522 22.857s-22.522-10.229-22.522-22.857v-104.801l-6.588 6.686c-8.784 8.914-23.029 8.914-31.868 0-8.784-8.914-8.784-23.372 0-32.342l45.044-45.714c2.083-2.114 4.561-3.771 7.32-4.971 2.759-1.143 5.687-1.714 8.615-1.714s5.856 0.571 8.615 1.771c2.759 1.143 5.293 2.857 7.32 4.971l45.044 45.714c8.784 8.914 8.784 23.315 0 32.285h-0.001zM770.259 434.278h-24.549c-10.811 64.743-66.272 114.286-133.105 114.286s-122.351-49.543-133.105-114.286h-24.549c-62.104 0-112.61-51.257-112.61-114.286s50.505-114.286 112.61-114.286h67.566c12.443 0 22.522 10.229 22.522 22.857s-10.079 22.857-22.522 22.857h-67.566c-37.273 0-67.566 30.743-67.566 68.571s30.293 68.571 67.566 68.571h24.436c3.491-21.486 11.993-41.658 25.056-59.372 7.432-10.114 21.621-12.114 31.531-4.571 9.91 7.6 11.937 21.886 4.504 32-11.768 15.885-17.961 34.857-17.961 54.8 0 50.4 40.427 91.429 90.088 91.429s90.088-41.029 90.088-91.429c0-20-6.194-38.915-18.018-54.857-7.432-10.057-5.462-24.4 4.504-32 4.054-3.086 8.784-4.571 13.513-4.571 6.869 0 13.626 3.143 18.018 9.143 13.119 17.714 21.565 37.944 25.112 59.429h24.436c37.273 0 67.566-30.743 67.566-68.571s-30.293-68.571-67.566-68.571h-67.566c-12.443 0-22.522-10.229-22.522-22.857s10.079-22.857 22.522-22.857h67.566c62.104 0 112.61 51.257 112.61 114.286s-50.505 114.286-112.61 114.286z" />
<glyph unicode="&#xe907;" glyph-name="download" horiz-adv-x="902" d="M411.249 822.704v-585.143l-153.913 144.929-54.412-58.493 221.584-207.486c7.98-6.649 17.257-10.649 26.532-10.649s19.899 4 26.532 10.649l220.244 206.13-54.412 58.493-152.56-143.586v585.143l-79.594 0.013zM892.822 552.727c0 43.896-35.808 79.792-79.597 79.792h-176.452v-79.792h176.452v-655.639h-724.356v655.639h176.452v79.792h-176.452c-43.789 0-79.597-35.896-79.597-79.792v-655.639c0-43.896 35.808-79.792 79.597-79.792h724.356c43.789 0 79.597 35.896 79.597 79.792v655.639z" />
<glyph unicode="&#xe908;" glyph-name="facebook" horiz-adv-x="563" d="M166.937-192v468.285h-166.937v179.125h166.977v135.197c0 155.668 99.357 241.393 246.382 241.393 70.395 0 132.182-4.691 149.841-6.824v-165.051h-104.587c-79.969 0-94.933-35.825-94.933-88.71v-116.005h191.354l-24.859-179.125h-166.494v-468.285h-196.744z" />
<glyph unicode="&#xe909;" glyph-name="friends-family" horiz-adv-x="1536" d="M1085.725 48.269c-46.022 16.207-95.796 17.241-141.818 33.448-13.977 4.828-41.591 10.69-47.386 26.896-5.455 15.862-5.455 34.482-6.477 51.034-0.682 13.103-1.023 26.207-1.023 39.311 0 8.621 21.818 26.896 26.59 34.828 18.409 31.034 20.113 72.759 23.523 107.931 29.659-8.276 33.41 47.242 38.522 64.138 3.75 11.724 26.59 92.414-8.864 81.38 8.523 15.173 11.932 33.794 14.318 50.69 6.818 44.138 9.546 92.414-3.75 135.518-27.613 89.655-112.5 140-202.159 142.758-91.022 3.103-182.383-41.034-216.471-130.345-16.364-43.448-15-90.689-9.546-136.206 2.386-20.69 5.795-43.794 16.023-62.415-33.068 10-15.341-61.034-11.591-73.449 5.455-17.586 10.227-80.689 41.25-72.068 2.727-27.93 5.795-56.551 13.295-83.793 5.114-18.277 15.682-33.794 27.955-47.93 6.136-6.896 9.204-7.586 8.864-16.552-0.341-26.896 0.341-55.863-6.477-82.068-6.818-26.207-63.749-37.242-86.59-42.069-61.363-12.759-117.954-18.621-169.091-57.242-59.66-44.482-90.682-113.793-90.682-188.628h947.735c0 101.724-60.682 191.382-156.136 224.821l-0.017 0.012zM383.791 90.695c2.045 1.034 4.091 2.069 5.455 2.759-1.023-0.345-2.045-1.034-2.727-1.379-1.023-0.345-1.705-0.69-2.727-1.379zM383.791 90.695c-11.591-5.862-25.567-13.103 2.727 1.379 10.227 5.172 8.182 4.138 2.727 1.379 23.181 11.034 48.068 13.793 72.955 16.207 9.546 1.034 13.977 7.586 6.818 16.897-13.636 17.586-60.682 21.034-80.455 28.965-12.273 4.828-15.682 9.31-16.705 23.104-0.341 6.207-3.75 33.794 1.023 38.276 3.409 3.448 24.887 2.069 29.659 2.759 19.432 2.414 39.205 6.552 57.614 13.793 7.841 3.103 15.341 6.896 22.159 11.724 8.182 6.207-6.136 21.379-9.886 29.655-11.591 25.861-16.705 54.138-18.409 82.414-3.409 55.517 5.114 111.379-5.114 166.552-15.341 84.484-79.773 126.897-161.931 126.897-50.796 0-100.908-17.586-129.204-62.415-31.364-49.311-29.659-110.689-27.955-166.896 1.023-32.069 2.386-64.482-2.045-96.553-2.045-13.793-5.114-27.242-9.886-40.346-3.75-10-22.841-34.828-15.341-40 28.296-20.344 76.023-27.242 110.114-24.482 1.023-16.897 4.091-38.621-2.045-54.482-9.546-24.827-80.795-31.379-102.273-38.621-59.66-20-103.977-68.965-103.977-137.931h271.020c4.432 0 21.478 32.069 26.25 37.242 23.181 25.861 51.477 48.276 82.159 64.482h0.003zM1426.979 127.241c-27.613 8.965-80.795 11.724-100.568 35.861-9.886 12.069-4.432 42.759-3.409 57.242 15-1.379 31.364 1.034 46.705 3.103 13.977 2.069 27.613 4.828 40.91 9.655 6.136 2.414 12.273 4.828 18.069 8.276 13.295 7.931 7.159 9.31 0.341 21.034-37.159 63.103-20.455 143.104-22.159 212.409-1.364 57.586-16.364 120.689-68.181 153.104-46.705 29.311-115.909 30.346-166.022 9.655-144.545-58.62-59.318-252.416-108.751-363.449-8.523-18.621-20.795-25.173 0.682-36.207 11.932-6.207 24.887-10.345 37.841-13.448 19.773-4.828 40.227-7.586 60.682-8.276 3.409 0 1.023-43.448 0-47.93-3.75-16.897-40.227-21.725-53.863-25.517-13.977-3.793-37.159-4.828-43.977-19.656-10.227-22.069 33.75-16.552 44.659-18.621 35.113-6.552 66.137-26.207 93.41-48.621 20.455-16.897 48.068-39.655 55.568-67.241h273.408c-0.682 69.311-45.342 118.622-105.342 138.621l-0.005 0.005z" />
<glyph unicode="&#xe90a;" glyph-name="instagram" d="M295.724 832h432.552c163.324 0 295.724-132.4 295.724-295.724v-432.552c0-163.324-132.4-295.724-295.724-295.724h-432.552c-163.324 0-295.724 132.4-295.724 295.724v432.552c0 163.324 132.4 295.724 295.724 295.724v0zM304.552 739.31v0c-117.008 0-211.862-94.854-211.862-211.862v0-414.897c0-117.008 94.854-211.862 211.862-211.862h414.897c117.008 0 211.862 94.854 211.862 211.862v414.897c0 117.008-94.854 211.862-211.862 211.862h-414.897zM512 59.586c-143.823 0-260.414 116.591-260.414 260.414s116.591 260.414 260.414 260.414c143.823 0 260.414-116.591 260.414-260.414s-116.591-260.414-260.414-260.414zM512 152.276c92.631 0 167.724 75.093 167.724 167.724s-75.093 167.724-167.724 167.724c-92.631 0-167.724-75.093-167.724-167.724s75.093-167.724 167.724-167.724zM781.241 531.862c-34.127 0-61.793 27.666-61.793 61.793s27.666 61.793 61.793 61.793c34.127 0 61.793-27.666 61.793-61.793s-27.666-61.793-61.793-61.793z" />
<glyph unicode="&#xe90b;" glyph-name="medal" horiz-adv-x="721" d="M352.711 831.912c-194.537 0-352.711-158.174-352.711-352.711 0-127.954 68.489-240.048 170.667-301.864v-346.67c0.045-8.489 4.8-16.267 12.355-20.133s16.622-3.244 23.555 1.644l146.136 104.533 146.136-104.533c6.933-4.889 15.999-5.556 23.555-1.644 7.556 3.867 12.311 11.644 12.355 20.133v346.67c102.178 61.822 170.667 173.909 170.667 301.864 0 194.537-158.174 352.711-352.711 352.711h-0.005zM352.711 786.401c169.916 0 307.2-137.284 307.2-307.2s-137.284-307.2-307.2-307.2c-169.916 0-307.2 137.284-307.2 307.2s137.284 307.2 307.2 307.2zM350.222 684.356c-7.689-0.844-14.4-5.689-17.778-12.8l-51.2-105.599-113.778-16.712c-8.444-1.289-15.467-7.333-18.088-15.6-2.667-8.311-0.444-17.377 5.644-23.511l82.134-81.778-19.2-115.553c-1.289-6.711 0.444-13.644 4.711-18.978 4.267-5.289 10.622-8.356 17.333-8.4 3.733 0.044 7.378 1.022 10.667 2.844l102.045 54.756 102.045-54.756c7.645-4.089 16.934-3.422 23.912 1.822s10.4 14.045 8.8 22.711l-19.2 115.553 82.134 81.778c6.089 6.133 8.311 15.2 5.645 23.511-2.622 8.267-9.645 14.311-18.088 15.6l-113.778 16.712-51.555 105.599c-4.133 8.622-13.066 13.733-22.401 12.8h-0.003zM352.711 609.333l35.911-74.311c3.333-6.756 9.733-11.378 17.067-12.445l80.356-12.089-57.956-57.6c-5.511-5.289-8.044-13.022-6.756-20.622l13.867-81.778-72.178 38.755c-6.578 3.511-14.4 3.511-20.978 0l-71.822-38.755 13.867 81.778c1.289 7.6-1.245 15.334-6.756 20.622l-57.956 57.6 80.356 12.089c7.333 1.067 13.733 5.689 17.067 12.445l35.913 74.311zM216.178 153.869c18.223-7.689 37.288-13.6 56.889-18.134v-220.444l-56.889-40.533v279.112zM489.244 153.869v-279.108l-56.889 40.533v220.444c19.6 4.533 38.666 10.444 56.889 18.134v-0.003zM318.578 128.269c11.289-1.111 22.578-1.778 34.133-1.778s22.844 0.667 34.133 1.778v-180.27l-20.978 14.933c-7.867 5.6-18.445 5.6-26.311 0l-20.978-14.933 0.001 180.27z" />
<glyph unicode="&#xe90c;" glyph-name="question" d="M932.978 832h-841.955c-50.044 0-91.022-40.978-91.022-91.022v-841.956c0-50.044 40.978-91.022 91.022-91.022h841.955c50.044 0 91.022 40.978 91.022 91.022v841.956c0 50.044-40.978 91.022-91.022 91.022zM517.689 35.556c-34.776 0-62.578 27.802-62.578 62.578s27.802 62.578 62.578 62.578c34.776 0 62.578-27.802 62.578-62.578s-27.802-62.578-62.578-62.578zM655.33 383.946c-6.844-9-14.8-18-22.755-25.859-5.689-5.62-12.534-11.239-20.489-20.239-9.111-7.859-15.911-14.62-21.599-21.336-5.689-5.62-11.378-11.239-14.8-15.717-10.222-13.478-14.8-31.478-13.644-48.337v-34.859h-88.755v47.195c-1.156 15.717 1.156 31.478 7.955 47.195 9.111 14.62 19.333 28.098 32.977 40.478l56.889 56.195c12.534 13.478 18.223 30.336 18.223 48.337s-6.844 34.859-19.333 47.195c-12.534 12.381-30.711 19.097-48.933 19.097-18.223 1.141-36.4-5.62-50.044-18s-21.599-30.336-22.756-48.337h-95.554c3.422 41.575 22.755 80.912 54.622 107.912 32.977 26.956 73.955 40.478 117.202 39.337 40.978 2.239 81.91-11.239 113.777-37.098 29.6-24.717 44.355-60.673 44.355-105.629-1.156-28.054-10.267-56.151-27.333-77.531h-0.004z" />
<glyph unicode="&#xe90d;" glyph-name="search" d="M755.325 137.609c136.371 165.475 127.481 414.96-28.012 570.285-165.725 165.475-437.294 165.475-603.019 0s-165.725-436.633 0-602.107c82.863-82.737 191.222-123.436 300.838-123.436 95.611 0 191.222 31.822 270.243 95.466l257.478-257.088c8.907-8.893 19.122-12.729 29.355-12.729 10.215 0 21.638 3.836 29.338 12.729 16.607 16.564 16.607 42.022 0 59.792l-256.22 257.088zM184.176 166.919c-132.58 132.397-132.58 348.787 0 481.184 66.273 66.156 152.977 100.558 240.956 100.558s174.7-34.402 240.956-100.558c132.597-132.397 132.597-348.787 0-481.184-132.597-133.653-349.315-133.653-481.912 0z" />
<glyph unicode="&#xe90e;" glyph-name="silverware" horiz-adv-x="1046" d="M577.348 829.388c-98.043 0-169.94-145.836-169.94-246 0-82.735 45.753-152.367 111.115-180.694l-28.309-502.857c-2.165-50.082 37.052-91.429 87.135-91.429 50.125 0 89.342 41.347 87.135 91.429l-28.309 502.857c65.362 26.122 111.115 97.959 111.115 180.694 0 100.163-71.898 246-169.94 246zM577.348-145.836c-26.145 0-45.753 21.755-45.753 47.877l28.309 489.796h30.474l28.309-489.796c4.412-26.122-17.362-47.877-41.341-47.877h0.001zM577.348 435.388c-69.733 0-126.352 67.469-126.352 148.041 0 87.061 60.99 202.449 126.352 202.449s126.352-113.183 126.352-202.449c0.041-80.571-56.62-148.041-126.352-148.041zM1024.014 324.368v483.265c0 13.061-10.908 23.96-21.773 21.755-141.631-23.96-169.94-411.429-169.94-411.429s-2.165-95.796 87.135-113.183l-21.773-396.204c0-63.143 54.454-78.367 74.063-78.367s74.063 15.224 74.063 78.367l-21.773 415.796zM873.682 417.959c0 0 4.371 222.041 104.579 357.021v-426.653h-47.918c-30.516-2.204-56.661 30.449-56.661 69.633v-0.001zM971.725-126.245c-17.444 0-30.516 15.224-30.516 30.49l19.609 398.367 19.609-0.041 19.609-398.367c2.165-15.224-13.072-30.449-28.309-30.449v0zM257.075-104.49l-21.773 474.572c65.362 2.163 117.651 65.306 117.651 145.836v211.143c0 13.061-8.701 21.755-21.773 21.755s-21.773-8.694-21.773-21.755v-213.347c0-56.613-34.846-102.327-76.269-102.327l-34.886 0.041v315.632c0 13.061-8.701 21.755-21.773 21.755s-21.773-8.694-21.773-21.755v-315.632h-34.886c-41.382 0-76.269 45.714-76.269 102.327l0.041 213.305c0 13.061-8.701 21.755-21.773 21.755s-21.773-8.694-21.773-21.755v-213.347c0-80.53 52.289-143.673 117.651-145.836l-21.773-474.572c-2.165-45.714 34.846-84.898 80.599-84.898 45.712 2.204 82.765 41.387 80.558 87.102l-0.002 0.002zM139.424-104.49l23.98 474.572h30.516l23.98-474.572c2.165-21.755-17.444-41.347-39.217-41.347-23.98 0-41.423 19.592-39.258 41.347h-0.001z" />
<glyph unicode="&#xe90f;" glyph-name="uniE90F" horiz-adv-x="768" d="M729.495 575.95c11.903-14.325 20.739-38.865 20.739-57.603v-649.481c0-26.012-20.788-47.152-46.444-47.152h-646.972c-25.653 0-46.428 21.137-46.428 47.152v912.378c0 26.015 20.775 47.152 46.428 47.152h428.821c19.781 0 43.92-11.399 56.607-26.75l187.248-225.696zM705.264 518.282c0 8.026-5.089 22.139-10.16 28.258l-187.28 225.677c-4.274 5.078-15.703 10.474-22.184 10.474h-428.821c-0.46 0-0.924-304.608-1.394-913.824 0-0.528 216.122-1.032 648.366-1.512 0.464 0 0.934 2.028 1.41 6.083l0.064 644.844z" />
<glyph unicode="&#xe910;" glyph-name="uniE910" horiz-adv-x="768" d="M565.955 457.684h-371.3c-36.257 0-65.799-30.042-65.799-66.912v-377.532c0-36.871 29.542-66.912 65.799-66.912h371.252c36.257 0 65.799 30.042 65.799 66.912v377.532c0.048 36.871-29.478 66.912-65.752 66.912zM398.226 421.186h80.873v-152.901h-50.965c-16.51 0-29.909 13.626-29.909 30.415v122.486zM285.944-17.175h-91.226c-16.51 0-29.909 13.626-29.909 30.415v89.979h121.135v-120.394zM440.162-17.175h-118.327v120.394h118.391v-120.394h-0.064zM595.863 13.239c0-16.789-13.383-30.415-29.909-30.415h-89.838v120.394h119.747v-89.979zM595.863 139.716h-431.118v251.055c0 16.789 13.399 30.415 29.909 30.415h167.681v-122.486c0-36.871 29.526-66.912 65.799-66.912h167.681v-92.072h0.048zM595.863 268.285h-80.873v152.901h50.965c16.526 0 29.909-13.626 29.909-30.415v-122.486z" />
<glyph unicode="&#xe911;" glyph-name="sim-card" horiz-adv-x="1154" d="M599.388 828.458h246.896c6.050 0 11.88-2.495 15.9-6.708l265.886-264.402c22.426-22.338 22.426-58.853-0.009-81.2l-652.316-648c-22.404-22.256-59.317-22.256-81.724 0.002l-367.754 365.591c-22.438 22.29-22.438 58.919-0.003 81.206l549.604 546.408c2.883 3.271 6.736 5.642 11.003 6.819l12.763 3.522-0.246-3.238zM601.755 784.291l-544.082-540.529c-5.129-5.112-5.129-13.702-0.013-18.801l368.166-365.549c5.15-5.104 13.406-5.104 18.548-0.008l652.324 648.007c5.103 5.058 5.103 13.718-0.006 18.783l-259.911 258.096h-235.026zM528.051 615.194c-8.118 0-16.135-3.1-22.326-9.2-114.876-113.251-229.549-225.997-344.623-339.2-12.279-12.1-12.279-31.85-0.406-44l0.406-0.4c96.862-98.749 168.096-170.445 263.439-266.394v-0.4c4.77-4.8 11.417-6.15 16.642-6s9.641 1.5 13.801 3.2c8.169 3.4 15.121 8.1 20.296 13.199v0.4c115.992 112.55 238.629 235.853 339.752 336 3.653 3.65 6.748 6.7 9.336 11.6s3.552 12.35 1.624 17.999c-3.907 11.35-11.772 17.75-25.167 30.799-90.215 87.601-164.29 159.846-250.047 243.2h-0.406c-6.14 5.95-14.208 9.2-22.326 9.2l0.005-0.004zM528.051 589.594c1.573 0 3.349-0.5 4.465-1.6 24.254-23.549 48.406-47.2 72.66-70.799l-95.392-92.401-75.908 74.4 90.114 88.8c1.116 1.1 2.486 1.6 4.059 1.6h0.001zM623.442 499.594l87.679-85.199-95.392-93.6-87.679 86.001 95.392 92.799zM415.612 481.194l82.402-80.8c1.066-1.95 2.588-3.6 4.465-4.8l102.292-100.8c0.254-0.4 0.507-0.8 0.812-1.2l0.812-0.4c0.71-0.75 1.522-1.45 2.436-2l79.56-78.4-128.271-126.4-79.56 78.001c-0.66 1.050-1.471 2-2.436 2.8l-103.104 101.6c-0.862 0.8-1.827 1.45-2.841 2l0.406 0.4-84.837 84 127.863 125.999zM729.384 396.394c17.708-17.201 35.468-34.4 53.176-51.599 12.685-12.3 17.81-19.4 18.266-20-0.609-0.8-1.522-1.85-4.059-4.4l-90.114-89.201-72.254 71.2 94.985 94zM269.065 336.795l78.342-76.8-96.202-92.401-71.847 72.8h0.406c-2.385 2.45-2.638 5.8-0.406 8l89.708 88.401zM365.674 241.996l84.837-83.599-96.202-94.799-84.837 85.6 96.202 92.799zM468.777 140.396l73.066-72-84.837-84.401c-1.979-1.95-7.459-5.8-11.772-7.6-1.776-0.75-2.943-1.1-3.653-1.2l-69.413 70.001 96.609 95.2z" />
<glyph unicode="&#xe912;" glyph-name="store" horiz-adv-x="1069" d="M178.087 832c-12.261-0.089-23.479-7.067-29.217-18.134l-144.696-273.067c-2.652-4.889-4.087-10.4-4.174-15.999v-56.889c0-54.8 32.043-102.4 77.913-124.086v-501.692c0-18.844 14.957-34.133 33.391-34.133h845.913c18.434 0 33.391 15.289 33.391 34.133v501.692c45.87 21.688 77.913 69.288 77.913 124.086v56.889c-0.087 5.6-1.522 11.111-4.174 15.999l-144.696 273.067c-5.739 11.067-16.956 18.044-29.217 18.134h-712.348zM197.649 763.733h673.223l108.606-204.8h-890.435l108.606 204.8zM66.783 490.667h133.565v-22.756c0-38.4-29.217-68.267-66.783-68.267s-66.783 29.867-66.783 68.267v22.756zM267.13 490.667h133.565v-22.756c0-38.4-29.217-68.267-66.783-68.267s-66.783 29.867-66.783 68.267v22.756zM467.478 490.667h133.565v-22.756c0-38.4-29.217-68.267-66.783-68.267s-66.783 29.867-66.783 68.267v22.756zM667.826 490.667h133.565v-22.756c0-38.4-29.217-68.267-66.783-68.267s-66.783 29.867-66.783 68.267v22.756zM868.174 490.667h133.565v-22.756c0-38.4-29.217-68.267-66.783-68.267s-66.783 29.867-66.783 68.267v22.756zM233.739 376.889c24.521-28.473 60.348-46.48 100.174-46.48s75.652 18.006 100.174 46.48c24.521-28.473 60.348-46.48 100.174-46.48s75.652 18.006 100.174 46.48c24.521-28.473 60.348-46.48 100.174-46.48s75.652 18.006 100.174 46.48c22.217-25.767 53.695-42.754 89.043-45.769v-454.853h-422.957v329.258c0 18.804-14.957 34.061-33.391 34.061h-222.609c-18.434 0-33.391-15.257-33.391-34.061v-329.258h-66.783v454.853c35.348 3.016 66.826 20.002 89.043 45.769zM578.783 240.356c-18.434 0-33.391-15.289-33.391-34.133v-159.289c0-18.844 14.957-34.133 33.391-34.133h244.87c18.434 0 33.391 15.289 33.391 34.133v159.289c0 18.844-14.957 34.133-33.391 34.133h-244.87zM278.261 172.089h155.826v-295.822h-155.826v295.822zM612.174 172.089h178.087v-91.022h-178.087v91.022z" />
<glyph unicode="&#xe913;" glyph-name="trophy" horiz-adv-x="1004" d="M794.699 832h-585.091v-76.623h-207.098v-191.465c0-130.662 101.042-237.249 232.836-249.196 35.445-76.489 105.102-135.066 187.537-158.003v-45.245c-64.686-24.756-113.997-78.667-131.833-143.952h-32.479v-0.8h-45.070l-0.046-158.709h577.419v158.709h-77.048v0.8h-0.502c-17.881 65.289-67.148 119.205-131.833 143.952v45.245c82.43 22.889 152.083 81.512 187.537 158.003 131.786 11.911 232.836 118.534 232.836 249.196v191.465h-207.144l-0.021 76.623zM741.373-81.51v-62.267h-478.436v62.267h478.436zM661.451-32.488h-318.587c17.881 49.289 59.302 88.533 111.762 103.645l17.745 5.111v75.245h59.622v-75.245l17.745-5.111c52.414-15.111 93.835-54.355 111.716-103.645h-0.002zM952.303 707.113v-143.246c0-109.733-88.315-198.44-200.99-201.956l-16.376-0.533-5.93-14.933c-29.241-73.911-96.252-129.957-175.217-146.796h-103.278c-78.963 16.845-145.975 72.888-175.217 146.796l-5.93 14.933-16.376 0.533c-112.72 3.511-200.99 92.223-200.99 201.956v143.246h207.144v76.667h486.050v-76.623l207.11-0.044zM103.549 563.871c0-31.734 10.127-61.6 27.69-86.311 22.535-31.778 57.295-55.066 98.396-62.888l29.514-5.6v247.819h-155.598l-0.002-93.020zM153.044 608.671h56.611v-136.488c-34.031 17.645-56.611 52.578-56.611 91.689v44.799zM745.161 409.020l29.514 5.6c73.079 13.912 126.087 76.667 126.087 149.197v93.022l-155.598 0.044-0.004-247.864zM794.702 608.666h56.611v-44.8c0-39.067-22.581-74-56.611-91.689v136.489zM502.154 685.864l-65.415-92.978-110.987-31.867 70.57-89.334-3.193-112.711 109.025 37.778 109.025-37.778-3.193 112.711 70.57 89.334-110.987 31.867-65.415 92.978zM559.677 427.998l-57.523 19.911-57.569-19.955 1.688 59.467-37.224 47.155 58.572 16.8 34.532 49.155 34.532-49.111 58.572-16.8-37.224-47.155 1.644-59.467z" />
<glyph unicode="&#xe914;" glyph-name="twitter" horiz-adv-x="1241" d="M1114.84 543.888c0-341.845-256.108-735.888-724.493-735.888-138.813 0.074-274.547 40.468-390.347 116.166 20.158-2.231 40.419-3.427 60.702-3.582 115.199-0.002 226.887 39.211 316.293 111.048-110.109 2.681-206.070 74.883-238.048 179.11 15.816-3.092 31.902-4.634 48.024-4.606 22.752-0.080 45.401 3.021 67.274 9.211-120.25 25.836-205.621 131.631-204.411 253.313 35.37-16.542 74.934-27.59 115.453-29.169-112.276 77.91-146.382 227.39-78.814 345.427 127.385-160.667 318.689-259.155 524.844-270.201-4.388 19.316-6.592 39.054-6.572 58.851-1.841 140.903 112.172 256.605 254.659 258.431 70.753-0.033 138.209-29.577 185.781-81.367 57.253 11.17 112.045 32.309 161.821 62.433-18.631-59.453-58.463-110.19-112.089-142.777 50.571 5.987 99.912 19.622 146.296 40.428-34.004-51.603-77.002-96.827-126.993-133.565 0.466-11.258 0.621-22.517 0.621-33.263z" />
<glyph unicode="&#xe915;" glyph-name="us-map" horiz-adv-x="1466" d="M925.453 122.944c-10.822-3.563-17.49-1-25.607 5.188-8.368 6.375-17.681 13.375-28.564 2.688-3.586-3.5-9.563-2.875-13.527-0.5-21.14 12.375-40.33-6.188-60.903-3.5-5.663 0.75-3.46-6.063-5.033-9.375-5.411-11.563-14.031-19.437-26.362-23.374-38.003-12-53.103-37.688-43.287-76.187 3.901-15.188 1.070-19.626-14.849-16-24.474 5.563-41.211 16.75-51.529 42-10.444 25.501-26.488 49.688-44.231 71-18.687 22.374-38.505 19.626-57.569-3-5.033-6-10.256-8.188-17.553-4.312-16.421 8.688-30.012 18.25-35.485 38.437-9.060 33.501-63.925 68.813-88.651 55.374-20.636-11.188-166.738 32.75-166.738 32.75s-48.383 24.813-76.822 24.938c-7.99 0.062-16.925 0.437-19.567 10.625-9.060 34.875-39.135 49.374-66.378 65.688-10.256 6.188-20.008 8.937-19.064 24.125 0.44 7.188-3.901 16.187-8.871 21.938-15.981 18.499-18.813 44.374-19.757 63.626-1.007 21.312-16.17 31.938-18.75 48.813-4.215 27.187-18.371 54.25-3.272 82.374 2.517 4.625 5.474 10.563 4.53 15.25-9.815 52.125 25.797 92.75 36.366 139.75 5.285 23.563 1.762 44.563-0.755 66.75-0.503 4.625-3.146 9.688 1.321 13.125 4.719 3.625 8.871-0.812 12.772-3 11.514-6.375 26.741-6.25 32.969-20.563 2.391 1.937 4.278 2.688 4.341 3.625 3.712 34.062 3.649 34 39.072 27.125 195.296-37.813 392.541-51 591.235-45.437 5.977 0.188 13.276-0.063 17.553 3.063 8.242 6.063 12.143 5.812 16.17-3.875 3.775-9 13.968-9.5 21.14-8.875 29.068 2.375 54.612-19.626 84.373-11.063 2.391 0.688 7.487-1.5 8.431-3.563 2.265-5.312-3.272-6.563-6.606-7.937-15.792-6.437-24.097-20.875-37.122-31.875 35.108-6.312 65.497 31.25 88.399 27.813 13.087-1.937 27.684-32.563 47.565-23.125 14.66 7 28.627 10.437 44.294 3.063 5.726-2.688 12.898-3.875 11.766-11.188-1.132-7.688-9.878-7.563-14.974-6.937-12.269 1.562-22.587-2.563-33.158-7-24.097-10.063-24.79-10.812-34.541-37.938 6.103-2.437 6.48 5.75 12.709 5.875-5.348-27.938-13.338-55.75-4.908-84.187 2.957-10.063 3.649-23.938 16.925-24.187 14.031-0.188 16.988 13.5 19.567 24.688 2.265 10.063 0.378 19.75-3.712 29.437-10.696 24.875-6.418 40.938 14.597 60.125 1.321 1.188 2.013 3.437 2.454 5.25 5.851 24.374 20.889 25.062 39.072 14.125 17.176-10.312 16.609-25.688 9.815-42.062-1.636-3.937-6.984-7.188-2.957-12.563 1.384-0.125 2.831-0.688 3.901-0.312 7.424 2.437 11.262 18.437 20.952 8.875 9.815-9.75 15.478-23.563 11.136-38.563-0.881-3.125-3.838-5.563-5.096-8.625-3.523-8.75-14.345-17.688-5.033-26.938 8.305-8.25 20.952-7.188 30.514-1.25 22.714 14.188 46.937 26.626 64.994 47.25 2.139 2.437 5.411 6.063 4.908 8.437-5.159 26.626 13.716 23 29.508 23.938 19.567 1.188 32.088 7.563 33.346 31.25 1.007 18 11.891 34.187 32.151 39.626 18.309 4.875 36.743 9.063 54.99 14.063 25.734 7 36.996 21.437 38.631 47.563 0.566 9.312 2.768 18.499 3.775 27.75 2.391 21.187 21.203 19.563 34.478 21.875 12.646 2.25 14.911-11.688 17.302-21.062 3.775-14.937 11.136-27.501 23.154-36.75 12.458-9.563 7.865-16.062-2.265-23.125-12.458-8.688-24.727-16.813-35.611-28.437-29.005-31.062-31.458-51.125-4.215-83.875-24.16-12.937-65.811-19.312-72.292-38.626-0.315-0.875 1.007-2.188 1.51-3.25 5.474 1.375 10.948 2.688 16.674 4.125 0.126-2.437 0.629-4.563 0.189-4.75-18.623-9.125-32.716-19.25-28.438-44.813 1.321-7.875 1.384-32.813-30.956-19.187 26.741-25 22.587-63.501 6.229-64.75-15.667-1.125-19.882-7.875 1.447-26.25 2.831-2.437 3.398-11.437 1.133-15.063-4.908-7.937-1.636-10.75 5.096-12.875 2.454-0.812 7.173-2.625 5.726-3.625-13.716-9.5-11.388-28.499-21.077-37.938-19.82-19.312-39.953-38.187-54.928-61.437-5.851-9.125-11.954-18-19.694-25.25-32.465-30.374-38.946-59.187-18.938-98.499 14.282-28.125 30.2-55.437 46.433-82.499 11.136-18.626 12.332-37.813 7.802-58.187-1.636-7.25-5.411-12.125-12.646-14.188-7.424-2.125-10.57 3.063-14.911 7.563-14.282 14.812-30.452 28-43.224 43.938-10.318 12.875-17.743 28.75-18.623 45.813-1.699 31.626-39.198 54.125-66.127 38.938-7.739-4.375-14.219-5.75-21.707 1.563-13.276 12.875-30.514 13.688-47.44 11.063-32.025-4.625-87.581-46.75-99.094-50.499l0.005-0.006zM259.466-16.32c-23.721-51.062-59.645-84.813-119.355-87.312 10.381 5.688 20.259 12.437 31.207 16.563 8.494 3.188 15.604 8 22.587 13 7.047 5.063 16.421 10.5 14.282 20.25-2.139 9.5-13.59 9.5-21.266 11.812-12.709 4-39.261 34.499-38.379 49.563 1.007 16.563 12.898 25.187 28.564 29.125 5.033 1.25 11.451 3 10.948 9.937-0.503 7.812-7.739 5.75-12.583 6.812-2.642 0.563-5.348 0.938-8.053 1.063-11.073 0.625-13.716 9.25-17.239 17.374-2.391 5.625-0.503 9.375 4.53 11.375 7.739 3 15.352 10.125 23.972 1.188 1.51-1.563 4.215-2.063 8.683-4.125-1.007 4.875-1.132 7.375-2.013 9.625-4.593 12.125-26.236 24.875-13.968 34.563 20.763 16.312 40.456 45.25 74.934 29.437 15.855-7.25 32.716-9.063 49.264-8.437 16.737 0.688 22.902-6.188 25.734-21.187 7.173-38.312 15.1-76.437 23.028-114.563 3.46-16.75 29.571-29.125 43.35-20.25 7.361 4.75 11.073-0.312 16.044-3.25 17.995-10.375 29.194-29.688 50.271-36.499 6.48-2.125 11.703-13.312 4.656-18.187-6.669-4.688-16.107-15.563-26.425-4.812-12.143 12.625-27.873 20.499-40.016 33.563-21.454 23.062-76.885 33.875-114.385 10.688-4.845-3-9.438-9.812-15.855-5-5.348 4.25-1.007 11.188-2.517 17.688l0.002-0.003zM684.413-162.496c5.348 6.5-0.315 21.563 13.779 19.813 13.464-1.625 27.936-10.312 28.564-24.062 0.629-14.5-18.12-18.813-27.999-20.312-15.1-2.25-8.242 16-14.345 24.563l0.001-0.002zM252.862-49.44c6.858-14.563 0.189-22.813-10.193-29-2.894-1.75-4.845 0.625-5.726 3.312-4.97 15.312 11.451 16.563 15.918 25.688v0zM659.625-115.936c10.696 3.063 17.743 2.5 22.461-4.25 2.328-3.312-0.378-6.25-3.838-7.312-9.5-3.063-12.143 4.5-18.623 11.563v0zM561.47-73.056c-0.315-4.688-3.146-7.188-7.55-6.937-3.964 0.25-7.99 1.75-7.55 6.875 0.315 3.625 3.272 5.375 6.732 5.812 4.404 0.562 7.613-0.938 8.368-5.75zM619.857-97.68c-0.189-4.812-3.712-5-7.047-4.688-4.908 0.437-9.752 1.75-9.563 7.937 0.126 3.812 3.586 5.812 7.047 5.688 5.474-0.188 7.865-4.437 9.563-8.937z" />
<glyph unicode="&#xe916;" glyph-name="wifi-calling" horiz-adv-x="1126" d="M785.373 274.051c0-39.98-32.791-72.205-72.14-72.205s-72.14 32.225-72.14 72.205c0 39.98 32.791 72.205 72.14 72.205 39.349-0.050 72.14-33.535 72.14-72.205zM1107.965 673.441c-103.677 102.313-241.431 158.559-388.373 158.559s-284.687-56.252-388.373-158.559c-6.56-6.395-6.56-17.884 0-25.578l34.133-33.272c6.56-7.693 18.347-6.395 26.24 0 83.946 83.129 200.746 134.285 329.334 134.285 128.585 0 244.055-51.156 329.334-134.285 6.56-7.693 18.347-7.693 26.24 0l34.133 33.272c3.895 6.395 3.895 17.884-2.665 25.578h-0.001zM990.304 545.069c-71.883 74.865-168.572 116.265-270.528 116.265s-197.377-41.453-270.528-116.265c-6.535-6.682-6.535-18.69 0-26.73l34.002-34.77c6.535-8.040 18.277-6.682 26.139 0 53.606 56.122 128.093 90.893 210.447 90.893 82.349 0 156.835-34.77 210.447-90.893 6.535-8.040 18.277-8.040 26.139 0l34.002 34.77c6.433 8.040 6.433 20.047-0.102 26.73h-0.018zM719.789 490.667c-59.986 0-113.401-25.045-152.506-64.623-6.518-7.936-6.518-18.449 0-26.385l32.589-34.322c6.518-7.936 18.229-6.596 26.072 0 23.475 25.045 57.337 39.578 93.847 39.578s69.1-15.821 93.847-39.578c6.518-7.936 18.229-7.936 26.072 0l32.59 34.322c6.518 7.936 6.518 18.449 0 26.385-39.107 39.578-92.524 64.623-152.506 64.623h-0.005zM193.325 124.772c121.28-164.41 429.012-331.997 507.016-302.070 77.97 29.931 98.127 102.41 96.671 136.537-1.491 34.095-169.114 147.143-211.62 169.145s-95.913-38.879-121.303-64.972c-26.38-24.954-117.999 59.979-157.259 102.649 0 0-102.419 128.319-76.006 153.268 26.38 24.954 91.211 74.263 71.675 118.073-19.531 43.842-120.545 220.371-155.24 224.364-33.617 3.971-106.494-11.988-141.062-88.103-34.537-76.146 95.764-380.423 251.338-512.58z" />
<glyph unicode="&#xe917;" glyph-name="menu" d="M839.68 384h-655.36c-28.262 0-30.72-22.886-30.72-51.2s2.458-51.2 30.72-51.2h655.36c28.262 0 30.72 22.886 30.72 51.2s-2.458 51.2-30.72 51.2zM839.68 179.2h-655.36c-28.262 0-30.72-22.886-30.72-51.2s2.458-51.2 30.72-51.2h655.36c28.262 0 30.72 22.886 30.72 51.2s-2.458 51.2-30.72 51.2zM184.32 486.4h655.36c28.262 0 30.72 22.886 30.72 51.2s-2.458 51.2-30.72 51.2h-655.36c-28.262 0-30.72-22.886-30.72-51.2s2.458-51.2 30.72-51.2z" />
<glyph unicode="&#xe918;" glyph-name="close" d="M734.618 84.531c-24.013-24.013-62.925-24.013-86.886 0l-135.731 155.136-135.731-155.085c-24.013-24.013-62.925-24.013-86.886 0-24.013 24.013-24.013 62.925 0 86.886l141.21 161.28-141.261 161.382c-24.013 24.013-24.013 62.874 0 86.886s62.874 24.013 86.886 0l135.782-155.187 135.731 155.187c24.013 24.013 62.874 24.013 86.886 0s24.013-62.925 0-86.886l-141.21-161.382 141.21-161.28c24.013-24.013 24.013-62.925 0-86.938z" />
<glyph unicode="&#xe919;" glyph-name="icon-caret-up-2" horiz-adv-x="770" d="M204.030 308.451l-177.083-177.083 84.692-84.692 273.323 273.323 273.323-273.323 84.692 84.692-177.083 177.083c-97.011 97.78-178.623 177.083-180.932 177.083s-83.922-79.302-180.932-177.083z" />
<glyph unicode="&#xe971;" glyph-name="user" d="M576 125.388v52.78c70.498 39.728 128 138.772 128 237.832 0 159.058 0 288-192 288s-192-128.942-192-288c0-99.060 57.502-198.104 128-237.832v-52.78c-217.102-17.748-384-124.42-384-253.388h896c0 128.968-166.898 235.64-384 253.388z" />
</font>
</defs>
</svg>
