<?xml version="1.0" standalone="no"?>
<!DOCTYPE svg PUBLIC "-//W3C//DTD SVG 1.1//EN" "http://www.w3.org/Graphics/SVG/1.1/DTD/svg11.dtd" >
<svg xmlns="http://www.w3.org/2000/svg">
<metadata>Generated by IcoMoon</metadata>
<defs>
<font id="icomoon" horiz-adv-x="1024">
<font-face units-per-em="1024" ascent="960" descent="-64" />
<missing-glyph horiz-adv-x="1024" />
<glyph unicode="&#x20;" horiz-adv-x="512" d="" />
<glyph unicode="&#xe900;" glyph-name="cart-2" horiz-adv-x="1286" d="M1237.545 960h-165.723c-22.686-0.382-41.718-15.588-47.853-36.332l-0.091-0.359q-116.19-352.728-232.38-705.945h-572.939c-26.831-0.968-48.214-22.953-48.214-49.931s21.383-48.963 48.126-49.929l0.088-0.003h609.080c22.686 0.382 41.718 15.588 47.853 36.332l0.091 0.359q116.801 352.728 232.38 705.945h129.827c26.779 1.032 48.096 22.99 48.096 49.927 0 27.023-21.454 49.035-48.258 49.933l-0.082 0.002zM746.795 60.812c-34.483 0-62.437-27.954-62.437-62.437s27.954-62.437 62.437-62.437c34.483 0 62.437 27.954 62.437 62.437v0c0 34.483-27.954 62.437-62.437 62.437v0zM309.921 60.812c-34.483 0-62.437-27.954-62.437-62.437s27.954-62.437 62.437-62.437c34.483 0 62.437 27.954 62.437 62.437v0c0 34.483-27.954 62.437-62.437 62.437v0zM817.916 727.865h-769.605c-26.831-0.968-48.214-22.953-48.214-49.931s21.383-48.963 48.126-49.929l0.088-0.003h769.605c26.831 0.968 48.214 22.953 48.214 49.931s-21.383 48.963-48.126 49.929l-0.088 0.003zM767.71 557.066h-669.498c-26.831-0.968-48.214-22.953-48.214-49.931s21.383-48.963 48.126-49.929l0.088-0.003h669.498c26.831 0.968 48.214 22.953 48.214 49.931s-21.383 48.963-48.126 49.929l-0.088 0.003zM710.715 385.838h-555.571c-26.831-0.968-48.214-22.953-48.214-49.931s21.383-48.963 48.126-49.929l0.088-0.003h555.571c26.831 0.968 48.214 22.953 48.214 49.931s-21.383 48.963-48.126 49.929l-0.088 0.003z" />
<glyph unicode="&#xe901;" glyph-name="bell" horiz-adv-x="1002" d="M498.802 959.281c-221.738 0-402.635-180.897-402.635-402.635v-206.587c-2.398-68.312-31.11-133.074-80.24-180.599-9.795-9.488-15.875-22.762-15.875-37.456 0-28.759 23.29-52.078 52.038-52.125h898.209c0.017 0 0.037 0 0.058 0 28.788 0 52.125 23.337 52.125 52.125 0 15.563-6.821 29.533-17.636 39.084l-0.056 0.049c-53.854 47.417-84.379 115.916-83.473 187.665 0.001 0.089 0.001 0.195 0.001 0.3s0 0.211-0.001 0.317v-0.016 197.243c0 221.738-180.777 402.635-402.515 402.635zM498.802 854.97c165.403 0 298.323-132.92 298.323-298.323v-196.527c-0.801-63.468 20.751-122.078 51.737-175.928h-697.844c27.544 50.101 47.301 104.025 49.341 162.156 0.005 0.267 0.008 0.582 0.008 0.898s-0.003 0.631-0.008 0.946l0.001-0.047v208.503c0 165.403 133.040 298.323 298.443 298.323zM417.694 40.216c-0.52 0.019-1.131 0.029-1.744 0.029-28.788 0-52.125-23.337-52.125-52.125s23.337-52.125 52.125-52.125c0.613 0 1.224 0.011 1.832 0.032l-0.088-0.002h166.946c0.52-0.019 1.131-0.029 1.744-0.029 28.788 0 52.125 23.337 52.125 52.125s-23.337 52.125-52.125 52.125c-0.613 0-1.224-0.011-1.832-0.032l0.088 0.002z" />
<glyph unicode="&#xe904;" glyph-name="facebook" horiz-adv-x="478" d="M315.714 654.423v82.852c-0.218 1.633-0.343 3.521-0.343 5.438 0 23.929 19.398 43.327 43.327 43.327 0.549 0 1.096-0.010 1.64-0.030l-0.079 0.002h115.31v173.989h-157.857c-5.186 0.478-11.215 0.751-17.309 0.751-110.357 0-199.819-89.462-199.819-199.819 0-5.41 0.215-10.77 0.637-16.071l-0.045 0.7v-93.086h-101.177v-204.4h103.224v-512.073h204.4v511.976h151.765l6.092 80.951 12.135 123.449h-161.902z" />
<glyph unicode="&#xe905;" glyph-name="twitter" horiz-adv-x="1279" d="M1279.376 838.645c-43.365-19-93.7-33.191-146.323-40.124l-2.86-0.308c54.49 32.411 95.578 82.499 115.759 142.218l0.543 1.85c-48.066-28.73-103.984-50.66-163.505-62.634l-3.397-0.57c-49.53 49.98-118.197 80.924-194.090 80.924-0.203 0-0.406 0-0.609-0.001h0.032c-0.334 0.002-0.73 0.002-1.126 0.002-143.214 0-259.573-114.981-261.798-257.666l-0.003-0.209c-0.003-0.406-0.004-0.887-0.004-1.368 0-20.203 2.78-39.757 7.979-58.299l-0.363 1.517c-217.867 9.392-410.236 111.131-540.174 266.795l-0.962 1.185c-21.394-37.097-34.398-81.412-35.373-128.682l-0.005-0.285c0.421-89.433 46.13-168.099 115.357-214.291l0.944-0.593c-43.847 0.349-84.801 12.428-119.97 33.246l1.111-0.609v-2.557c-0.017-1.066-0.027-2.324-0.027-3.584 0-32.438 6.522-63.353 18.327-91.505l-0.581 1.561c33.492-81.272 104.295-141.132 190.48-158.758l1.692-0.289c-20.185-5.506-43.573-9.134-67.647-10.089l-0.611-0.019c-17.2 0.327-33.761 2.151-49.827 5.35l1.784-0.296c35.33-104.067 131.47-177.914 245.079-179.504l0.189-0.002c-89.372-68.969-202.825-110.726-326.010-111.247h-0.121c-22.773 0-40.431 2.557-63.205 2.557 113.923-72.835 252.827-116.151 401.838-116.301h0.041c4.492-0.1 9.784-0.156 15.090-0.156 349.473 0 641.485 246.018 712.297 574.312l0.867 4.794c11.269 45.743 17.734 98.257 17.734 152.281 0 1.566-0.005 3.13-0.016 4.693l0.001-0.241v32.881c50.858 37.964 94.295 82.194 130.241 132.173l1.223 1.787z" />
<glyph unicode="&#xe906;" glyph-name="instagram" d="M249.836 448c0 144.648 117.261 261.909 261.909 261.909s261.909-117.261 261.909-261.909c0-144.648-117.261-261.909-261.909-261.909v0c-144.502 0.362-261.546 117.406-261.909 261.874v0.035zM782.469 960h-540.938c-133.017-0.934-240.597-108.515-241.531-241.442v-541.027c0.934-133.017 108.515-240.597 241.442-241.531h541.027c133.321 0.182 241.35 108.21 241.531 241.514v540.955c0.001 0.304 0.002 0.664 0.002 1.024 0 132.829-107.68 240.509-240.509 240.509-0.36 0-0.72-0.001-1.080-0.002h0.056zM241.531 900.144h540.938c0.304 0.002 0.665 0.003 1.025 0.003 99.772 0 180.653-80.881 180.653-180.653 0-0.36-0.001-0.721-0.003-1.080v0.055-540.938c0.002-0.304 0.003-0.665 0.003-1.025 0-99.772-80.881-180.653-180.653-180.653-0.36 0-0.721 0.001-1.080 0.003h-540.883c-0.304-0.002-0.665-0.003-1.025-0.003-99.772 0-180.653 80.881-180.653 180.653 0 0.36 0.001 0.721 0.003 1.080v-0.055 540.938c0.895 99.974 81.701 180.78 181.59 181.675l0.085 0.001zM836.128 823.488c-29.407-0.562-53.097-24.253-53.659-53.606l-0.001-0.053c0-29.653 24.038-53.691 53.691-53.691s53.691 24.038 53.691 53.691v0c0.001 0.114 0.001 0.249 0.001 0.385 0 29.424-23.853 53.276-53.276 53.276-0.135 0-0.27-0.001-0.405-0.002h0.021zM842.516 447.744c0 182.433-147.891 330.325-330.325 330.325s-330.325-147.891-330.325-330.325c0-182.433 147.891-330.325 330.325-330.325v0c182.214 0.543 329.781 148.11 330.325 330.272v0.052z" />
<glyph unicode="&#xe907;" glyph-name="menu-2" horiz-adv-x="1807" d="M60.235 899.765h1024c33.267 0 60.235-26.968 60.235-60.235s-26.968-60.235-60.235-60.235h-1024c-33.267 0-60.235 26.968-60.235 60.235s26.968 60.235 60.235 60.235zM60.235 598.588h1024c33.267 0 60.235-26.968 60.235-60.235s-26.968-60.235-60.235-60.235h-1024c-33.267 0-60.235 26.968-60.235 60.235s26.968 60.235 60.235 60.235zM60.235 297.412h1024c33.267 0 60.235-26.968 60.235-60.235s-26.968-60.235-60.235-60.235h-1024c-33.267 0-60.235 26.968-60.235 60.235s26.968 60.235 60.235 60.235z" />
<glyph unicode="&#xe908;" glyph-name="left-arrow" d="M621.619 285.798c13.722-13.875 13.722-36.301 0-50.074-13.722-13.824-35.891-13.926-49.613 0l-196.096 200.090c-13.722 13.824-13.722 36.198 0 50.125l196.096 200.090c13.67 13.824 35.891 13.824 49.613 0 13.722-13.875 13.722-36.301 0-50.074l-160.819-175.155 160.819-175.002z" />
<glyph unicode="&#xe909;" glyph-name="caret-down" d="M256 665.6h512l-256-460.8-256 460.8z" />
<glyph unicode="&#xe90a;" glyph-name="caret-up" d="M768 256h-512l256 460.8 256-460.8z" />
<glyph unicode="&#xe90b;" glyph-name="settings" d="M859.29 460.8c0 53.709 33.075 96 82.79 125.082-9.011 29.901-20.838 58.624-35.43 85.606-55.757-14.592-100.864 7.219-138.803 45.21-37.939 37.888-49.562 82.995-34.97 138.803-26.982 14.592-55.706 26.522-85.606 35.379-29.082-49.664-81.664-82.688-135.27-82.688-53.658 0-106.189 33.024-135.322 82.688-29.952-8.858-58.573-20.787-85.555-35.379 14.592-55.808 3.021-100.915-35.021-138.803-37.888-37.99-82.995-59.802-138.803-45.21-14.592-26.982-26.47-55.706-35.379-85.606 49.664-29.082 82.688-71.373 82.688-125.082 0-53.606-33.024-106.189-82.688-135.322 8.96-29.901 20.787-58.573 35.379-85.606 55.808 14.592 100.915 3.021 138.803-34.918 37.939-37.99 49.613-83.098 35.021-138.803 26.982-14.592 55.654-26.522 85.606-35.482 29.082 49.818 81.664 82.79 135.322 82.79 53.606 0 106.189-33.024 135.322-82.79 29.901 9.011 58.573 20.89 85.606 35.482-14.592 55.706-3.021 100.813 34.97 138.803 37.939 37.888 83.046 59.699 138.803 45.21 14.592 26.982 26.47 55.603 35.43 85.606-49.818 29.133-82.893 71.424-82.893 125.030zM512 273.818c-103.322 0-187.034 83.712-187.034 186.982 0 103.322 83.763 187.085 187.034 187.085 103.322 0 186.982-83.814 186.982-187.085 0-103.322-83.661-186.982-186.982-186.982z" />
<glyph unicode="&#xe90c;" glyph-name="credit-card" d="M921.6 819.2h-819.2c-56.371 0-102.4-46.080-102.4-102.4v-512c0-56.32 46.029-102.4 102.4-102.4h819.2c56.32 0 102.4 46.080 102.4 102.4v512c0 56.32-46.080 102.4-102.4 102.4zM921.6 204.8h-819.2v307.2h819.2v-307.2zM921.6 665.6h-819.2v51.2h819.2v-51.2zM204.8 404.48v-30.72h30.72v30.72h-30.72zM389.12 343.091v-30.771h61.44v30.771h30.72v30.72h30.72v30.72h-61.44v-30.72h-30.771v-30.72h-30.669zM512 312.32v30.771h-30.771v-30.771h30.771zM358.4 312.32v30.771h-61.44v-30.771h61.44zM389.12 373.811h30.72v30.72h-61.44v-61.389h30.72v30.669zM266.189 343.091h30.771v30.72h30.72v30.72h-61.44v-30.72h-30.72v-30.72h-30.72v-30.771h61.389v30.771z" />
<glyph unicode="&#xe90d;" glyph-name="help-circle" d="M512 952.32c-271.462 0-491.52-220.058-491.52-491.52s220.058-491.52 491.52-491.52c271.411 0 491.52 220.058 491.52 491.571 0 271.411-220.109 491.469-491.52 491.469zM504.269 174.131h-2.611c-40.038 1.178-68.301 30.72-67.123 70.195 1.126 38.81 30.054 67.021 68.762 67.021l2.355-0.102c41.165-1.178 69.12-30.413 67.942-71.014-1.178-38.912-29.594-66.099-69.325-66.099zM672.768 508.518c-9.421-13.312-30.106-30.003-56.218-50.33l-28.774-19.814c-15.77-12.288-25.293-23.91-28.826-35.226-2.867-8.909-4.198-11.315-4.454-29.491v-4.608h-109.824l0.307 9.318c1.382 38.093 2.304 60.621 18.125 79.206 24.832 29.082 79.616 64.41 81.92 65.894 7.885 5.888 14.49 12.595 19.405 19.814 11.52 15.923 16.589 28.416 16.589 40.602 0 17.101-5.018 32.922-15.002 46.899-9.626 13.619-27.904 20.378-54.323 20.378-26.214 0-44.186-8.294-54.886-25.395-11.059-17.459-16.64-35.84-16.64-54.63v-4.71h-113.203l0.205 4.915c2.918 69.274 27.699 119.194 73.472 148.326 28.826 18.483 64.717 27.853 106.547 27.853 54.682 0 100.966-13.312 137.318-39.526 36.915-26.573 55.603-66.406 55.603-118.323-0.051-29.030-9.216-56.32-27.341-81.152z" />
<glyph unicode="&#xe90e;" glyph-name="info-circle" d="M512 952.32c-271.514 0-491.571-220.058-491.571-491.52 0-271.514 220.058-491.571 491.571-491.571 271.411 0 491.52 220.058 491.52 491.571 0 271.462-220.109 491.52-491.52 491.52zM557.875 774.861c47.923 0 62.003-27.802 62.003-59.597 0-39.68-31.744-76.39-85.965-76.39-45.363 0-66.97 22.784-65.638 60.518 0 31.795 26.573 75.469 89.6 75.469zM435.098 166.4c-32.768 0-56.678 19.917-33.792 107.213l37.53 154.88c6.502 24.781 7.578 34.714 0 34.714-9.779 0-52.326-17.101-77.414-33.997l-16.333 26.778c79.616 66.509 171.162 105.523 210.33 105.523 32.768 0 38.195-38.707 21.862-98.304l-43.008-162.816c-7.629-28.774-4.352-38.707 3.277-38.707 9.83 0 41.984 11.878 73.626 36.813l18.534-24.883c-77.466-77.414-161.894-107.213-194.611-107.213z" />
<glyph unicode="&#xe90f;" glyph-name="location" d="M991.59 45.978l-69.99 210.022h-76.8l42.65-204.8h-750.899l42.65 204.8h-76.8l-70.042-210.022c-17.766-53.453 13.722-97.178 70.042-97.178h819.2c56.32 0 87.808 43.725 69.99 97.178zM768 716.8c0 141.363-114.586 256-256 256s-256-114.637-256-256c0-244.48 256-512 256-512s256 267.52 256 512zM373.76 713.728c0 76.339 61.85 138.189 138.24 138.189s138.24-61.85 138.24-138.189c0-76.39-61.901-138.24-138.24-138.24s-138.24 61.901-138.24 138.24z" />
<glyph unicode="&#xe910;" glyph-name="search" d="M898.304 180.89l-193.485 193.485c29.184 47.872 45.978 104.192 45.978 164.352 0 174.95-151.603 326.502-326.554 326.502-174.95 0.051-316.723-141.773-316.723-316.723 0-174.899 151.603-326.502 326.502-326.502 58.214 0 112.64 15.821 159.488 43.213l194.509-194.611c19.046-18.995 49.92-18.995 68.915 0l48.282 48.282c18.995 18.995 12.083 43.008-6.912 62.003zM205.005 548.506c0 121.139 98.15 219.29 219.238 219.29 121.139 0 229.069-107.878 229.069-229.069 0-121.088-98.202-219.29-219.29-219.29-121.139 0.051-229.018 107.981-229.018 229.069z" />
<glyph unicode="&#xe911;" glyph-name="menu" d="M839.68 512h-655.36c-28.262 0-30.72-22.886-30.72-51.2s2.458-51.2 30.72-51.2h655.36c28.262 0 30.72 22.886 30.72 51.2s-2.458 51.2-30.72 51.2zM839.68 307.2h-655.36c-28.262 0-30.72-22.886-30.72-51.2s2.458-51.2 30.72-51.2h655.36c28.262 0 30.72 22.886 30.72 51.2s-2.458 51.2-30.72 51.2zM184.32 614.4h655.36c28.262 0 30.72 22.886 30.72 51.2s-2.458 51.2-30.72 51.2h-655.36c-28.262 0-30.72-22.886-30.72-51.2s2.458-51.2 30.72-51.2z" />
<glyph unicode="&#xe912;" glyph-name="minus" d="M819.2 460.8c0-28.314-2.458-51.2-30.771-51.2h-552.858c-28.262 0-30.771 22.886-30.771 51.2s2.509 51.2 30.771 51.2h552.909c28.262 0 30.72-22.886 30.72-51.2z" />
<glyph unicode="&#xe913;" glyph-name="mobile" d="M717.005 972.8h-410.010c-56.422 0-102.195-45.773-102.195-102.195v-819.558c0-56.474 45.773-102.246 102.195-102.246h409.958c56.474 0 102.246 45.773 102.246 102.195v819.61c0 56.422-45.773 102.195-102.195 102.195zM512 0c-35.328 0-64 22.886-64 51.2s28.672 51.2 64 51.2 64-22.886 64-51.2-28.672-51.2-64-51.2zM716.8 153.6h-409.6v716.8h409.6v-716.8z" />
<glyph unicode="&#xe914;" glyph-name="plus" d="M819.2 460.8c0-28.314-2.458-51.2-30.771-51.2h-225.229v-225.229c0-28.262-22.886-30.771-51.2-30.771s-51.2 2.509-51.2 30.771v225.229h-225.229c-28.262 0-30.771 22.886-30.771 51.2s2.509 51.2 30.771 51.2h225.229v225.229c0 28.314 22.886 30.771 51.2 30.771s51.2-2.458 51.2-30.771v-225.229h225.229c28.314 0 30.771-22.886 30.771-51.2z" />
<glyph unicode="&#xe915;" glyph-name="cart" horiz-adv-x="1152" d="M38.4 960c-21.197 0-38.4-17.203-38.4-38.4s17.203-38.4 38.4-38.4h127.607c63.522-157.406 126.123-315.136 189.184-472.798l-57.993-139.605c-4.864-11.657-3.465-25.668 3.533-36.13s19.473-17.067 32.068-17.067h640c20.275-0.273 38.929 18.125 38.929 38.4s-18.654 38.673-38.929 38.4h-582.4l33.195 79.206 616.414 49.186c16.128 1.28 30.72 13.875 34.389 29.611l76.8 332.8c5.001 22.391-14.592 46.865-37.598 46.797h-844.407l-41.591 104.004c-5.666 14.063-20.395 23.996-35.601 23.996h-153.6zM299.998 755.2h237.602v-115.2h-191.607l-45.995 115.2zM614.4 755.2h153.6v-115.2h-153.6v115.2zM844.8 755.2h220.399l-26.402-115.2h-193.997v115.2zM376.798 563.2h160.802v-103.595l-115.593-9.199-45.21 112.794zM614.4 563.2h153.6v-85.197l-153.6-12.407v97.604zM844.8 563.2h175.991l-15.189-66.406-160.802-12.8v79.206zM473.6 192c-70.263 0-128-57.737-128-128s57.737-128 128-128c70.263 0 128 57.737 128 128s-57.737 128-128 128zM832 192c-70.263 0-128-57.737-128-128s57.737-128 128-128c70.263 0 128 57.737 128 128s-57.737 128-128 128zM473.6 115.2c28.74 0 51.2-22.46 51.2-51.2s-22.46-51.2-51.2-51.2c-28.74 0-51.2 22.46-51.2 51.2s22.46 51.2 51.2 51.2zM832 115.2c28.74 0 51.2-22.46 51.2-51.2s-22.46-51.2-51.2-51.2c-28.74 0-51.2 22.46-51.2 51.2s22.46 51.2 51.2 51.2z" />
<glyph unicode="&#xe916;" glyph-name="paypal" d="M405.197 426.138h84.941c184.525 0 289.229 83.098 322.56 253.952 1.075 5.632 2.048 11.059 2.867 16.486 1.843 11.571 2.765 21.965 3.174 31.949 0.307 6.861 0.512 10.906 0.461 14.694-0.41 20.019-3.942 36.966-11.059 53.197-6.605 15.155-16.589 30.054-31.386 47.002-43.674 49.664-119.757 78.182-210.637 78.182h-289.434c-20.378 0-37.734-14.848-40.909-34.97l-52.224-336.435-64.973-419.072c-2.355-15.104 9.318-28.723 24.576-28.723h141.926l43.469 258.202c5.99 37.888 38.246 65.536 76.646 65.536zM871.27 660.992c-40.55-193.075-171.878-295.526-381.184-295.526h-84.89c-8.397 0-15.462-6.042-16.794-14.438l-56.576-351.027h148.838c17.818 0 33.024 12.954 35.789 30.566l1.485 7.68 28.416 179.917 1.843 9.933c2.765 17.613 17.971 30.566 35.789 30.566h22.528c145.92 0 260.147 59.29 293.53 230.707 13.722 70.656 6.758 129.741-28.774 171.622z" />
<glyph unicode="&#xe917;" glyph-name="chevron-thin-down" d="M891.802 660.019c13.926 13.722 36.301 13.722 50.125 0s13.875-35.891 0-49.613l-404.89-400.896c-13.824-13.722-36.198-13.722-50.125 0l-404.89 400.896c-13.824 13.722-13.824 35.891 0 49.613 13.875 13.722 36.301 13.722 50.125 0l379.853-365.619 379.802 365.619z" />
<glyph unicode="&#xe918;" glyph-name="close" d="M734.618 212.531c-24.013-24.013-62.925-24.013-86.886 0l-135.731 155.136-135.731-155.085c-24.013-24.013-62.925-24.013-86.886 0-24.013 24.013-24.013 62.925 0 86.886l141.21 161.28-141.261 161.382c-24.013 24.013-24.013 62.874 0 86.886s62.874 24.013 86.886 0l135.782-155.187 135.731 155.187c24.013 24.013 62.874 24.013 86.886 0s24.013-62.925 0-86.886l-141.21-161.382 141.21-161.28c24.013-24.013 24.013-62.925 0-86.938z" />
<glyph unicode="&#xe919;" glyph-name="check" d="M424.653 102.502c-22.272 0-43.366 10.394-56.883 28.314l-182.938 241.715c-23.808 31.386-17.613 76.083 13.824 99.891 31.488 23.91 76.186 17.613 99.994-13.824l120.371-158.925 302.643 485.99c20.838 33.382 64.87 43.622 98.355 22.784 33.434-20.787 43.725-64.819 22.835-98.304l-357.581-573.952c-12.39-20.019-33.843-32.512-57.344-33.587-1.126-0.102-2.15-0.102-3.277-0.102z" />
<glyph unicode="&#xe91a;" glyph-name="alert" horiz-adv-x="1178" d="M1052.126-56.849h-926.652c-40.943 0-76.8 20.127-97.28 55.414-20.463 33.96-20.463 75.541 0 109.501l463.343 790.696c20.463 33.96 56.337 55.397 97.263 55.397s76.8-20.127 97.263-55.397l463.411-790.696c20.463-33.96 20.463-75.541 0-109.501-20.548-35.286-56.337-55.414-97.348-55.414zM101.137 66.484c-7.663-12.59-2.543-23.921 0-27.665 2.526-3.811 10.257-13.832 24.337-13.832h928c14.063 0 21.726 10.089 24.32 13.832 2.543 3.811 7.68 15.075 0 27.665l-464.657 790.696c-7.663 12.59-19.2 13.832-24.337 13.832s-16.674-1.242-24.337-13.832l-463.326-790.696zM588.8 242.747c-23.074 0-38.4 18.885-38.4 41.581v346.23c0 22.696 15.326 41.581 38.4 41.581s38.4-18.885 38.4-41.581v-346.23c0-22.696-15.326-41.581-38.4-41.581zM638.737 135.73c0-65.435-99.874-65.435-99.874 0 0 65.519 99.874 65.519 99.874 0z" />
<glyph unicode="&#xe91b;" glyph-name="sim-card" horiz-adv-x="759" d="M545.052 926.125c-11.975 14.584-35.102 25.55-53.71 25.55h-433.856c-23.385 0-42.348-19.423-42.348-43.355v-928.966c0-23.932 18.963-43.355 42.348-43.355h654.569c23.385 0 42.364 19.423 42.364 43.355v661.289c0 18.003-8.57 41.934-19.915 55.676l-189.452 229.805zM718.107-20.645c0-3.353-2.776-6.194-6.052-6.194h-654.569c-3.276 0-6.036 2.841-6.036 6.194v928.9c0 3.353 2.76 6.194 6.036 6.194h433.856c7.956 0 20.803-6.127 25.983-12.321l189.501-229.805c5.794-7.036 11.345-22.445 11.345-31.744v-661.223h-0.065zM572.601 560.26h-375.66c-36.683 0-66.572-30.588-66.572-68.129v-384.396c0-37.541 29.889-68.129 66.572-68.129h375.612c36.683 0 66.572 30.588 66.572 68.129v384.396c0.048 37.541-29.824 68.129-66.524 68.129zM402.902 523.099h81.823v-155.681h-51.563c-16.704 0-30.26 13.874-30.26 30.968v124.713zM289.302 76.767h-92.297c-16.704 0-30.26 13.874-30.26 30.968v91.615h122.557v-122.583zM445.331 76.767h-119.717v122.583h119.781v-122.583h-0.065zM602.861 107.735c0-17.094-13.54-30.968-30.26-30.968h-90.893v122.583h121.153v-91.615zM602.861 236.511h-436.18v255.62c0 17.094 13.557 30.968 30.26 30.968h169.65v-124.713c0-37.541 29.873-68.129 66.572-68.129h169.65v-93.746h0.048zM602.861 367.418h-81.823v155.681h51.563c16.72 0 30.26-13.874 30.26-30.968v-124.713z" />
<glyph unicode="&#xe91c;" glyph-name="thin-left-arrow" d="M711.219 80.998c13.722-13.926 13.722-36.301 0-50.125s-35.891-13.875-49.613 0l-400.896 404.89c-13.722 13.824-13.722 36.198 0 50.125l400.896 404.89c13.722 13.824 35.891 13.824 49.613 0 13.722-13.875 13.722-36.301 0-50.125l-365.619-379.853 365.619-379.802z" />
<glyph unicode="&#xe91d;" glyph-name="thin-right-arrow" d="M678.4 460.8l-365.619 379.904c-13.722 13.824-13.722 36.198 0 50.125 13.722 13.824 35.891 13.824 49.613 0l400.896-404.89c13.722-13.875 13.722-36.301 0-50.125l-400.896-404.89c-13.722-13.875-35.891-13.824-49.613 0-13.722 13.773-13.722 36.198 0 50.125l365.619 379.75z" />
<glyph unicode="&#xe91e;" glyph-name="dot" d="M512 819.2c-197.939 0-358.4-160.41-358.4-358.4 0-197.888 160.461-358.4 358.4-358.4s358.4 160.512 358.4 358.4c0 197.99-160.461 358.4-358.4 358.4z" />
</font>
</defs>
</svg>
