<svg width="24" height="24" viewBox="0 0 24 24" fill="none" xmlns="http://www.w3.org/2000/svg">
<path fill-rule="evenodd" clip-rule="evenodd" d="M12 5.75C12.5523 5.75 13 6.19772 13 6.75V8.25C13 8.80228 12.5523 9.25 12 9.25C11.4477 9.25 11 8.80228 11 8.25V6.75C11 6.19772 11.4477 5.75 12 5.75Z" fill="#094067"/>
<path fill-rule="evenodd" clip-rule="evenodd" d="M12 14.75C12.5523 14.75 13 15.1977 13 15.75V17.25C13 17.8023 12.5523 18.25 12 18.25C11.4477 18.25 11 17.8023 11 17.25V15.75C11 15.1977 11.4477 14.75 12 14.75Z" fill="#094067"/>
<path fill-rule="evenodd" clip-rule="evenodd" d="M12 4C7.58172 4 4 7.58172 4 12C4 16.4183 7.58172 20 12 20C16.4183 20 20 16.4183 20 12C20 7.58172 16.4183 4 12 4ZM2 12C2 6.47715 6.47715 2 12 2C17.5228 2 22 6.47715 22 12C22 17.5228 17.5228 22 12 22C6.47715 22 2 17.5228 2 12Z" fill="#094067"/>
<path fill-rule="evenodd" clip-rule="evenodd" d="M10.875 9.25C10.6429 9.25 10.4204 9.34219 10.2563 9.50628C10.0922 9.67038 10 9.89294 10 10.125C10 10.3571 10.0922 10.5796 10.2563 10.7437C10.4204 10.9078 10.6429 11 10.875 11H13.125C13.8875 11 14.6188 11.3029 15.1579 11.8421C15.6971 12.3812 16 13.1125 16 13.875C16 14.6375 15.6971 15.3688 15.1579 15.9079C14.6188 16.4471 13.8875 16.75 13.125 16.75H9.75C9.19772 16.75 8.75 16.3023 8.75 15.75C8.75 15.1977 9.19772 14.75 9.75 14.75H13.125C13.3571 14.75 13.5796 14.6578 13.7437 14.4937C13.9078 14.3296 14 14.1071 14 13.875C14 13.6429 13.9078 13.4204 13.7437 13.2563C13.5796 13.0922 13.3571 13 13.125 13H10.875C10.1125 13 9.38124 12.6971 8.84207 12.1579C8.3029 11.6188 8 10.8875 8 10.125C8 9.3625 8.3029 8.63124 8.84207 8.09207C9.38124 7.5529 10.1125 7.25 10.875 7.25H14.25C14.8023 7.25 15.25 7.69772 15.25 8.25C15.25 8.80228 14.8023 9.25 14.25 9.25H10.875Z" fill="#094067"/>
</svg>
