<svg width="60" height="60" viewBox="0 0 60 60" fill="none" xmlns="http://www.w3.org/2000/svg">
<rect width="60" height="60" rx="12" fill="url(#paint0_linear_360_4059)"/>
<path d="M10.168 20.4V24.684H13.808V40H19.352V20.4H10.168ZM31.0497 36.886C30.4197 37.174 29.7897 37.3 29.1237 37.3C26.9997 37.3 25.5597 35.824 25.5597 33.7C25.5597 31.522 26.9997 30.1 29.1597 30.1C30.3657 30.1 31.3557 30.55 32.2197 31.504L34.4877 29.452C33.2457 27.958 31.3377 27.148 28.9797 27.148C24.8937 27.148 21.9597 29.866 21.9597 33.7C21.9597 37.534 24.8937 40.252 28.9077 40.252C30.7437 40.252 32.7417 39.694 34.1997 38.65V33.43H31.0497V36.886ZM46.1432 33.43C47.2232 32.872 47.8352 31.9 47.8352 30.694C47.8352 28.75 46.2152 27.4 42.9032 27.4H36.4592V40H43.2632C46.6472 40 48.4472 38.722 48.4472 36.544C48.4472 35.014 47.5652 33.934 46.1432 33.43ZM42.4352 29.974C43.6232 29.974 44.2352 30.388 44.2352 31.18C44.2352 31.99 43.6232 32.404 42.4352 32.404H39.9872V29.974H42.4352ZM42.9752 37.426H39.9872V34.87H42.9752C44.1992 34.87 44.8472 35.284 44.8472 36.148C44.8472 37.012 44.1992 37.426 42.9752 37.426Z" fill="white"/>
<defs>
<linearGradient id="paint0_linear_360_4059" x1="30" y1="0" x2="30" y2="60" gradientUnits="userSpaceOnUse">
<stop stop-color="#005895"/>
<stop offset="1" stop-color="#412B71"/>
</linearGradient>
</defs>
</svg>
