<svg width="60" height="60" viewBox="0 0 60 60" fill="none" xmlns="http://www.w3.org/2000/svg">
<rect width="60" height="60" rx="8.54" fill="url(#paint0_linear_11985_564434)"/>
<path d="M8.988 23.0332V21.0161L13.2499 17.0308C13.5535 16.7488 13.7758 16.4994 13.9168 16.2825C14.0686 16.0656 14.1662 15.8704 14.2096 15.6969C14.2638 15.5126 14.2909 15.3445 14.2909 15.1927C14.2909 14.824 14.1662 14.5366 13.9168 14.3305C13.6782 14.1245 13.3149 14.0215 12.8269 14.0215C12.4148 14.0215 12.0299 14.1136 11.672 14.298C11.3141 14.4824 11.0213 14.7589 10.7936 15.1276L8.4024 13.7937C8.82533 13.078 9.43804 12.5032 10.2405 12.0695C11.043 11.6357 12.0028 11.4188 13.1197 11.4188C13.9981 11.4188 14.7681 11.5598 15.4296 11.8417C16.0911 12.1237 16.6062 12.5249 16.9749 13.0455C17.3545 13.566 17.5443 14.1787 17.5443 14.8836C17.5443 15.2523 17.4955 15.621 17.3979 15.9897C17.3003 16.3476 17.1105 16.7326 16.8285 17.1447C16.5574 17.5459 16.1508 17.996 15.6085 18.4948L12.2251 21.618L11.6883 20.4793H17.8533V23.0332H8.988ZM25.0698 23.2609C24.1697 23.2609 23.3346 23.12 22.5647 22.838C21.7947 22.5452 21.1278 22.1331 20.5639 21.6017C20.0108 21.0704 19.577 20.4468 19.2626 19.7311C18.9481 19.0045 18.7908 18.2074 18.7908 17.3399C18.7908 16.4723 18.9481 15.6807 19.2626 14.9649C19.577 14.2384 20.0162 13.6094 20.5802 13.078C21.1441 12.5466 21.811 12.14 22.581 11.858C23.3618 11.5652 24.213 11.4188 25.1348 11.4188C26.2084 11.4188 27.1682 11.5977 28.014 11.9556C28.8599 12.3135 29.5594 12.8286 30.1124 13.5009L28.0628 15.3553C27.6724 14.9324 27.2495 14.6179 26.794 14.4119C26.3494 14.195 25.8506 14.0865 25.2975 14.0865C24.8095 14.0865 24.3649 14.1624 23.9636 14.3143C23.5624 14.4661 23.2208 14.6884 22.9388 14.9812C22.6569 15.2632 22.4346 15.6048 22.2719 16.006C22.1201 16.3964 22.0442 16.841 22.0442 17.3399C22.0442 17.817 22.1201 18.2562 22.2719 18.6575C22.4346 19.0587 22.6569 19.4057 22.9388 19.6985C23.2208 19.9805 23.557 20.2028 23.9474 20.3655C24.3486 20.5173 24.7878 20.5932 25.265 20.5932C25.7421 20.5932 26.2084 20.5173 26.6639 20.3655C27.1194 20.2028 27.5802 19.9317 28.0466 19.5521L29.8522 21.8132C29.2015 22.2795 28.4478 22.6374 27.5911 22.8868C26.7344 23.1362 25.8939 23.2609 25.0698 23.2609ZM27.0055 21.3903V17.0959H29.8522V21.8132L27.0055 21.3903ZM31.8941 23.0332V11.6465H37.7176C39.2141 11.6465 40.3311 11.9231 41.0685 12.4761C41.806 13.0184 42.1747 13.7341 42.1747 14.6233C42.1747 15.2089 42.0174 15.724 41.7029 16.1687C41.3993 16.6024 40.9655 16.9495 40.4016 17.2097C39.8485 17.4592 39.187 17.5839 38.4171 17.5839L38.7424 16.8031C39.5449 16.8031 40.2444 16.9278 40.8408 17.1772C41.4372 17.4158 41.8981 17.7682 42.2235 18.2345C42.5596 18.69 42.7277 19.2485 42.7277 19.91C42.7277 20.8968 42.3265 21.6668 41.524 22.2199C40.7324 22.7621 39.572 23.0332 38.0429 23.0332H31.8941ZM35.0824 20.7071H37.7827C38.3357 20.7071 38.7532 20.6149 39.0352 20.4305C39.328 20.2353 39.4744 19.9425 39.4744 19.5521C39.4744 19.1617 39.328 18.8744 39.0352 18.69C38.7532 18.4948 38.3357 18.3972 37.7827 18.3972H34.8547V16.1687H37.2947C37.8369 16.1687 38.2436 16.0765 38.5147 15.8921C38.7858 15.7078 38.9213 15.4312 38.9213 15.0625C38.9213 14.6938 38.7858 14.4227 38.5147 14.2492C38.2436 14.0648 37.8369 13.9727 37.2947 13.9727H35.0824V20.7071Z" fill="white"/>
<path d="M9.1588 43.6967V40.5491L16.8204 29.8863H21.8224L14.3804 40.5491L12.0868 39.8659H25.4336V43.6967H9.1588ZM18.1868 46.9663V43.6967L18.3332 39.8659V36.9623H22.896V46.9663H18.1868ZM32.4168 47.194C31.5167 47.194 30.6817 47.0531 29.9117 46.7711C29.1417 46.4783 28.4748 46.0662 27.9109 45.5348C27.3578 45.0035 26.9241 44.3799 26.6096 43.6642C26.2951 42.9376 26.1378 42.1405 26.1378 41.273C26.1378 40.4054 26.2951 39.6138 26.6096 38.898C26.9241 38.1715 27.3633 37.5425 27.9272 37.0111C28.4911 36.4797 29.158 36.0731 29.928 35.7911C30.7088 35.4983 31.5601 35.3519 32.4818 35.3519C33.5554 35.3519 34.5152 35.5308 35.361 35.8887C36.2069 36.2466 36.9064 36.7617 37.4594 37.434L35.4098 39.2884C35.0194 38.8655 34.5965 38.551 34.141 38.345C33.6964 38.1281 33.1976 38.0196 32.6445 38.0196C32.1565 38.0196 31.7119 38.0956 31.3106 38.2474C30.9094 38.3992 30.5678 38.6215 30.2858 38.9143C30.0039 39.1963 29.7816 39.5379 29.6189 39.9391C29.4671 40.3295 29.3912 40.7741 29.3912 41.273C29.3912 41.7501 29.4671 42.1893 29.6189 42.5906C29.7816 42.9918 30.0039 43.3388 30.2858 43.6316C30.5678 43.9136 30.904 44.1359 31.2944 44.2986C31.6956 44.4504 32.1348 44.5263 32.612 44.5263C33.0891 44.5263 33.5554 44.4504 34.0109 44.2986C34.4664 44.1359 34.9273 43.8648 35.3936 43.4852L37.1992 45.7463C36.5485 46.2126 35.7948 46.5705 34.9381 46.8199C34.0814 47.0693 33.2409 47.194 32.4168 47.194ZM34.3525 45.3234V41.029H37.1992V45.7463L34.3525 45.3234ZM39.2411 46.9663V35.5796H45.0646C46.5611 35.5796 47.6781 35.8562 48.4155 36.4092C49.153 36.9515 49.5217 37.6672 49.5217 38.5564C49.5217 39.142 49.3644 39.6572 49.0499 40.1018C48.7463 40.5356 48.3125 40.8826 47.7486 41.1428C47.1955 41.3923 46.534 41.517 45.7641 41.517L46.0894 40.7362C46.8919 40.7362 47.5914 40.8609 48.1878 41.1103C48.7843 41.3489 49.2451 41.7013 49.5705 42.1676C49.9067 42.6231 50.0747 43.1816 50.0747 43.8431C50.0747 44.83 49.6735 45.5999 48.871 46.153C48.0794 46.6952 46.919 46.9663 45.3899 46.9663H39.2411ZM42.4294 44.6402H45.1297C45.6827 44.6402 46.1003 44.548 46.3822 44.3636C46.675 44.1684 46.8214 43.8756 46.8214 43.4852C46.8214 43.0948 46.675 42.8075 46.3822 42.6231C46.1003 42.4279 45.6827 42.3303 45.1297 42.3303H42.2017V40.1018H44.6417C45.1839 40.1018 45.5906 40.0096 45.8617 39.8252C46.1328 39.6409 46.2683 39.3644 46.2683 38.9956C46.2683 38.6269 46.1328 38.3558 45.8617 38.1823C45.5906 37.998 45.1839 37.9058 44.6417 37.9058H42.4294V44.6402Z" fill="white"/>
<line x1="9.17471" y1="23.2903" x2="43.8571" y2="13.014" stroke="#F58520" stroke-width="2" stroke-linecap="round"/>
<defs>
<linearGradient id="paint0_linear_11985_564434" x1="30" y1="0" x2="30" y2="60" gradientUnits="userSpaceOnUse">
<stop stop-color="#863693"/>
<stop offset="1" stop-color="#520770"/>
</linearGradient>
</defs>
</svg>
