<svg width="60" height="60" viewBox="0 0 60 60" fill="none" xmlns="http://www.w3.org/2000/svg">
<rect width="60" height="60" rx="8.54" fill="url(#paint0_linear_11955_635734)"/>
<path d="M13.8595 23.2609C13.0678 23.2609 12.2762 23.1633 11.4845 22.9681C10.7037 22.7729 10.0205 22.4964 9.43493 22.1385L10.6061 19.7148C11.0616 20.0184 11.5659 20.2516 12.1189 20.4143C12.6828 20.5769 13.2305 20.6583 13.7619 20.6583C14.3149 20.6583 14.7541 20.5552 15.0795 20.3492C15.4048 20.1432 15.5675 19.8504 15.5675 19.4708C15.5675 19.1346 15.4319 18.8689 15.1608 18.6737C14.8897 18.4677 14.4451 18.3647 13.8269 18.3647H12.4768V16.3313L15.5349 13.0292L15.844 14.1353H10.0205V11.6465H18.2515V13.6636L15.1933 16.9657L13.6155 16.0711H14.4939C15.9145 16.0711 16.9881 16.391 17.7147 17.0308C18.4521 17.6598 18.8208 18.4731 18.8208 19.4708C18.8208 20.1215 18.6419 20.7342 18.284 21.3089C17.937 21.8837 17.4002 22.3554 16.6736 22.7241C15.947 23.082 15.009 23.2609 13.8595 23.2609ZM26.1333 23.2609C25.2332 23.2609 24.3982 23.12 23.6282 22.838C22.8583 22.5452 22.1913 22.1331 21.6274 21.6017C21.0744 21.0704 20.6406 20.4468 20.3261 19.7311C20.0116 19.0045 19.8544 18.2074 19.8544 17.3399C19.8544 16.4723 20.0116 15.6807 20.3261 14.9649C20.6406 14.2384 21.0798 13.6094 21.6437 13.078C22.2076 12.5466 22.8745 12.14 23.6445 11.858C24.4253 11.5652 25.2766 11.4188 26.1984 11.4188C27.272 11.4188 28.2317 11.5977 29.0776 11.9556C29.9234 12.3135 30.6229 12.8286 31.176 13.5009L29.1264 15.3553C28.736 14.9324 28.313 14.6179 27.8576 14.4119C27.4129 14.195 26.9141 14.0865 26.361 14.0865C25.873 14.0865 25.4284 14.1624 25.0272 14.3143C24.6259 14.4661 24.2843 14.6884 24.0024 14.9812C23.7204 15.2632 23.4981 15.6048 23.3354 16.006C23.1836 16.3964 23.1077 16.841 23.1077 17.3399C23.1077 17.817 23.1836 18.2562 23.3354 18.6575C23.4981 19.0587 23.7204 19.4057 24.0024 19.6985C24.2843 19.9805 24.6205 20.2028 25.0109 20.3655C25.4121 20.5173 25.8513 20.5932 26.3285 20.5932C26.8057 20.5932 27.272 20.5173 27.7274 20.3655C28.1829 20.2028 28.6438 19.9317 29.1101 19.5521L30.9157 21.8132C30.265 22.2795 29.5113 22.6374 28.6546 22.8868C27.7979 23.1362 26.9575 23.2609 26.1333 23.2609ZM28.069 21.3903V17.0959H30.9157V21.8132L28.069 21.3903ZM32.9577 23.0332V11.6465H38.7811C40.2777 11.6465 41.3947 11.9231 42.1321 12.4761C42.8695 13.0184 43.2382 13.7341 43.2382 14.6233C43.2382 15.2089 43.081 15.724 42.7665 16.1687C42.4628 16.6024 42.0291 16.9495 41.4651 17.2097C40.9121 17.4592 40.2506 17.5839 39.4806 17.5839L39.8059 16.8031C40.6084 16.8031 41.3079 16.9278 41.9043 17.1772C42.5008 17.4158 42.9617 17.7682 43.287 18.2345C43.6232 18.69 43.7913 19.2485 43.7913 19.91C43.7913 20.8968 43.39 21.6668 42.5875 22.2199C41.7959 22.7621 40.6355 23.0332 39.1065 23.0332H32.9577ZM36.1459 20.7071H38.8462C39.3993 20.7071 39.8168 20.6149 40.0987 20.4305C40.3915 20.2353 40.5379 19.9425 40.5379 19.5521C40.5379 19.1617 40.3915 18.8744 40.0987 18.69C39.8168 18.4948 39.3993 18.3972 38.8462 18.3972H35.9182V16.1687H38.3582C38.9004 16.1687 39.3071 16.0765 39.5782 15.8921C39.8493 15.7078 39.9849 15.4312 39.9849 15.0625C39.9849 14.6938 39.8493 14.4227 39.5782 14.2492C39.3071 14.0648 38.9004 13.9727 38.3582 13.9727H36.1459V20.7071Z" fill="white"/>
<path d="M18.2352 47.3079C16.6411 47.3079 15.2503 46.9907 14.0628 46.3563C12.8916 45.7219 11.9725 44.7784 11.3056 43.5259C10.6549 42.2734 10.3296 40.728 10.3296 38.8899C10.3296 36.9054 10.7119 35.2218 11.4764 33.8391C12.2572 32.4402 13.3227 31.3747 14.6728 30.6427C16.0392 29.9107 17.6171 29.5447 19.4064 29.5447C20.3661 29.5447 21.2852 29.6586 22.1636 29.8863C23.0583 30.0978 23.8147 30.3987 24.4328 30.7891L22.676 34.2539C22.188 33.9123 21.6756 33.6846 21.1388 33.5707C20.6183 33.4406 20.0815 33.3755 19.5284 33.3755C18.2108 33.3755 17.1535 33.774 16.3564 34.5711C15.5756 35.3682 15.1852 36.5312 15.1852 38.0603C15.1852 38.3368 15.1852 38.6296 15.1852 38.9387C15.2015 39.2315 15.234 39.5324 15.2828 39.8415L14.0628 38.8411C14.3881 38.2392 14.7785 37.735 15.234 37.3283C15.7057 36.9216 16.2588 36.6126 16.8932 36.4011C17.5439 36.1896 18.2677 36.0839 19.0648 36.0839C20.1384 36.0839 21.1144 36.3116 21.9928 36.7671C22.8875 37.2063 23.6032 37.8326 24.14 38.6459C24.6768 39.443 24.9452 40.3864 24.9452 41.4763C24.9452 42.6638 24.6443 43.6967 24.0424 44.5751C23.4405 45.4372 22.6353 46.1123 21.6268 46.6003C20.6183 47.072 19.4877 47.3079 18.2352 47.3079ZM17.9424 43.8675C18.3979 43.8675 18.7964 43.778 19.138 43.5991C19.4959 43.4202 19.7724 43.168 19.9676 42.8427C20.1628 42.5174 20.2604 42.1351 20.2604 41.6959C20.2604 41.0452 20.0408 40.5247 19.6016 40.1343C19.1787 39.7439 18.6175 39.5487 17.918 39.5487C17.4463 39.5487 17.0315 39.6382 16.6736 39.8171C16.332 39.996 16.0555 40.2482 15.844 40.5735C15.6488 40.8988 15.5512 41.2811 15.5512 41.7203C15.5512 42.1432 15.6488 42.5174 15.844 42.8427C16.0392 43.1518 16.3157 43.4039 16.6736 43.5991C17.0315 43.778 17.4544 43.8675 17.9424 43.8675ZM32.1777 47.194C31.2776 47.194 30.4426 47.0531 29.6726 46.7711C28.9027 46.4783 28.2357 46.0662 27.6718 45.5348C27.1188 45.0035 26.685 44.3799 26.3705 43.6642C26.056 42.9376 25.8988 42.1405 25.8988 41.273C25.8988 40.4054 26.056 39.6138 26.3705 38.898C26.685 38.1715 27.1242 37.5425 27.6881 37.0111C28.252 36.4797 28.9189 36.0731 29.6889 35.7911C30.4697 35.4983 31.321 35.3519 32.2428 35.3519C33.3164 35.3519 34.2761 35.5308 35.122 35.8887C35.9678 36.2466 36.6673 36.7617 37.2204 37.434L35.1708 39.2884C34.7804 38.8655 34.3574 38.551 33.902 38.345C33.4573 38.1281 32.9585 38.0196 32.4054 38.0196C31.9174 38.0196 31.4728 38.0956 31.0716 38.2474C30.6703 38.3992 30.3287 38.6215 30.0468 38.9143C29.7648 39.1963 29.5425 39.5379 29.3798 39.9391C29.228 40.3295 29.1521 40.7741 29.1521 41.273C29.1521 41.7501 29.228 42.1893 29.3798 42.5906C29.5425 42.9918 29.7648 43.3388 30.0468 43.6316C30.3287 43.9136 30.6649 44.1359 31.0553 44.2986C31.4565 44.4504 31.8957 44.5263 32.3729 44.5263C32.8501 44.5263 33.3164 44.4504 33.7718 44.2986C34.2273 44.1359 34.6882 43.8648 35.1545 43.4852L36.9601 45.7463C36.3094 46.2126 35.5557 46.5705 34.699 46.8199C33.8423 47.0693 33.0019 47.194 32.1777 47.194ZM34.1134 45.3234V41.029H36.9601V45.7463L34.1134 45.3234ZM39.0021 46.9663V35.5796H44.8255C46.3221 35.5796 47.4391 35.8562 48.1765 36.4092C48.9139 36.9515 49.2826 37.6672 49.2826 38.5564C49.2826 39.142 49.1254 39.6572 48.8109 40.1018C48.5072 40.5356 48.0735 40.8826 47.5095 41.1428C46.9565 41.3923 46.295 41.517 45.525 41.517L45.8503 40.7362C46.6528 40.7362 47.3523 40.8609 47.9487 41.1103C48.5452 41.3489 49.0061 41.7013 49.3314 42.1676C49.6676 42.6231 49.8357 43.1816 49.8357 43.8431C49.8357 44.83 49.4344 45.5999 48.6319 46.153C47.8403 46.6952 46.6799 46.9663 45.1509 46.9663H39.0021ZM42.1903 44.6402H44.8906C45.4437 44.6402 45.8612 44.548 46.1431 44.3636C46.4359 44.1684 46.5823 43.8756 46.5823 43.4852C46.5823 43.0948 46.4359 42.8075 46.1431 42.6231C45.8612 42.4279 45.4437 42.3303 44.8906 42.3303H41.9626V40.1018H44.4026C44.9448 40.1018 45.3515 40.0096 45.6226 39.8252C45.8937 39.6409 46.0293 39.3644 46.0293 38.9956C46.0293 38.6269 45.8937 38.3558 45.6226 38.1823C45.3515 37.998 44.9448 37.9058 44.4026 37.9058H42.1903V44.6402Z" fill="white"/>
<line x1="10.1747" y1="23.2903" x2="44.8571" y2="13.014" stroke="#F58520" stroke-width="2" stroke-linecap="round"/>
<defs>
<linearGradient id="paint0_linear_11955_635734" x1="30" y1="0" x2="30" y2="60" gradientUnits="userSpaceOnUse">
<stop stop-color="#863693"/>
<stop offset="1" stop-color="#520770"/>
</linearGradient>
</defs>
</svg>
