<svg width="60" height="60" viewBox="0 0 60 60" fill="none" xmlns="http://www.w3.org/2000/svg">
<rect width="60" height="60" rx="8.54" fill="url(#paint0_linear_11985_564454)"/>
<path d="M12.3235 23.2609C11.2607 23.2609 10.3335 23.0495 9.54187 22.6265C8.76107 22.2036 8.14836 21.5746 7.70373 20.7396C7.26996 19.9046 7.05307 18.8744 7.05307 17.6489C7.05307 16.3259 7.30791 15.2035 7.8176 14.2817C8.33813 13.3491 9.04844 12.6388 9.94853 12.1508C10.8595 11.6628 11.9114 11.4188 13.1043 11.4188C13.7441 11.4188 14.3568 11.4947 14.9424 11.6465C15.5388 11.7875 16.0431 11.9881 16.4552 12.2484L15.284 14.5583C14.9587 14.3305 14.6171 14.1787 14.2592 14.1028C13.9122 14.016 13.5543 13.9727 13.1856 13.9727C12.3072 13.9727 11.6023 14.2384 11.0709 14.7697C10.5504 15.3011 10.2901 16.0765 10.2901 17.0959C10.2901 17.2802 10.2901 17.4754 10.2901 17.6815C10.301 17.8767 10.3227 18.0773 10.3552 18.2833L9.54187 17.6164C9.75876 17.2152 10.019 16.879 10.3227 16.6079C10.6372 16.3368 11.0059 16.1307 11.4288 15.9897C11.8626 15.8488 12.3452 15.7783 12.8765 15.7783C13.5923 15.7783 14.2429 15.9301 14.8285 16.2337C15.425 16.5265 15.9021 16.944 16.26 17.4863C16.6179 18.0176 16.7968 18.6466 16.7968 19.3732C16.7968 20.1648 16.5962 20.8535 16.1949 21.4391C15.7937 22.0138 15.2569 22.4639 14.5845 22.7892C13.9122 23.1037 13.1585 23.2609 12.3235 23.2609ZM12.1283 20.9673C12.4319 20.9673 12.6976 20.9077 12.9253 20.7884C13.1639 20.6691 13.3483 20.501 13.4784 20.2841C13.6085 20.0672 13.6736 19.8124 13.6736 19.5196C13.6736 19.0858 13.5272 18.7388 13.2344 18.4785C12.9524 18.2183 12.5783 18.0881 12.112 18.0881C11.7975 18.0881 11.521 18.1478 11.2824 18.2671C11.0547 18.3864 10.8703 18.5544 10.7293 18.7713C10.5992 18.9882 10.5341 19.2431 10.5341 19.5359C10.5341 19.8178 10.5992 20.0672 10.7293 20.2841C10.8595 20.4902 11.0438 20.6583 11.2824 20.7884C11.521 20.9077 11.8029 20.9673 12.1283 20.9673ZM23.8958 23.2609C22.9957 23.2609 22.1607 23.12 21.3907 22.838C20.6208 22.5452 19.9538 22.1331 19.3899 21.6017C18.8369 21.0704 18.4031 20.4468 18.0886 19.7311C17.7741 19.0045 17.6169 18.2074 17.6169 17.3399C17.6169 16.4723 17.7741 15.6807 18.0886 14.9649C18.4031 14.2384 18.8423 13.6094 19.4062 13.078C19.9701 12.5466 20.637 12.14 21.407 11.858C22.1878 11.5652 23.0391 11.4188 23.9609 11.4188C25.0345 11.4188 25.9942 11.5977 26.8401 11.9556C27.6859 12.3135 28.3854 12.8286 28.9385 13.5009L26.8889 15.3553C26.4985 14.9324 26.0755 14.6179 25.6201 14.4119C25.1754 14.195 24.6766 14.0865 24.1235 14.0865C23.6355 14.0865 23.1909 14.1624 22.7897 14.3143C22.3884 14.4661 22.0468 14.6884 21.7649 14.9812C21.4829 15.2632 21.2606 15.6048 21.0979 16.006C20.9461 16.3964 20.8702 16.841 20.8702 17.3399C20.8702 17.817 20.9461 18.2562 21.0979 18.6575C21.2606 19.0587 21.4829 19.4057 21.7649 19.6985C22.0468 19.9805 22.383 20.2028 22.7734 20.3655C23.1746 20.5173 23.6138 20.5932 24.091 20.5932C24.5682 20.5932 25.0345 20.5173 25.4899 20.3655C25.9454 20.2028 26.4063 19.9317 26.8726 19.5521L28.6782 21.8132C28.0275 22.2795 27.2738 22.6374 26.4171 22.8868C25.5604 23.1362 24.72 23.2609 23.8958 23.2609ZM25.8315 21.3903V17.0959H28.6782V21.8132L25.8315 21.3903ZM30.7202 23.0332V11.6465H36.5436C38.0402 11.6465 39.1572 11.9231 39.8946 12.4761C40.632 13.0184 41.0007 13.7341 41.0007 14.6233C41.0007 15.2089 40.8435 15.724 40.529 16.1687C40.2253 16.6024 39.7916 16.9495 39.2276 17.2097C38.6746 17.4592 38.0131 17.5839 37.2431 17.5839L37.5684 16.8031C38.3709 16.8031 39.0704 16.9278 39.6668 17.1772C40.2633 17.4158 40.7242 17.7682 41.0495 18.2345C41.3857 18.69 41.5538 19.2485 41.5538 19.91C41.5538 20.8968 41.1525 21.6668 40.35 22.2199C39.5584 22.7621 38.398 23.0332 36.869 23.0332H30.7202ZM33.9084 20.7071H36.6087C37.1618 20.7071 37.5793 20.6149 37.8612 20.4305C38.154 20.2353 38.3004 19.9425 38.3004 19.5521C38.3004 19.1617 38.154 18.8744 37.8612 18.69C37.5793 18.4948 37.1618 18.3972 36.6087 18.3972H33.6807V16.1687H36.1207C36.6629 16.1687 37.0696 16.0765 37.3407 15.8921C37.6118 15.7078 37.7474 15.4312 37.7474 15.0625C37.7474 14.6938 37.6118 14.4227 37.3407 14.2492C37.0696 14.0648 36.6629 13.9727 36.1207 13.9727H33.9084V20.7071Z" fill="white"/>
<path d="M9.8184 46.9663V31.6187L11.8924 33.6195H6.6464V29.8863H14.6496V46.9663H9.8184ZM17.1207 46.9663V43.9407L23.5135 37.9627C23.9689 37.5398 24.3024 37.1656 24.5139 36.8403C24.7416 36.515 24.888 36.2222 24.9531 35.9619C25.0344 35.6854 25.0751 35.4332 25.0751 35.2055C25.0751 34.6524 24.888 34.2214 24.5139 33.9123C24.156 33.6032 23.6111 33.4487 22.8791 33.4487C22.2609 33.4487 21.6835 33.587 21.1467 33.8635C20.6099 34.14 20.1707 34.5548 19.8291 35.1079L16.2423 33.1071C16.8767 32.0335 17.7957 31.1714 18.9995 30.5207C20.2032 29.87 21.6428 29.5447 23.3183 29.5447C24.6359 29.5447 25.7908 29.7562 26.7831 30.1791C27.7753 30.602 28.548 31.2039 29.1011 31.9847C29.6704 32.7655 29.9551 33.6846 29.9551 34.7419C29.9551 35.295 29.8819 35.848 29.7355 36.4011C29.5891 36.9379 29.3044 37.5154 28.8815 38.1335C28.4748 38.7354 27.8648 39.4104 27.0515 40.1587L21.9763 44.8435L21.1711 43.1355H30.4187V46.9663H17.1207ZM37.8273 47.194C36.9272 47.194 36.0922 47.0531 35.3222 46.7711C34.5523 46.4783 33.8854 46.0662 33.3214 45.5348C32.7684 45.0035 32.3346 44.3799 32.0201 43.6642C31.7056 42.9376 31.5484 42.1405 31.5484 41.273C31.5484 40.4054 31.7056 39.6138 32.0201 38.898C32.3346 38.1715 32.7738 37.5425 33.3377 37.0111C33.9016 36.4797 34.5686 36.0731 35.3385 35.7911C36.1193 35.4983 36.9706 35.3519 37.8924 35.3519C38.966 35.3519 39.9257 35.5308 40.7716 35.8887C41.6174 36.2466 42.3169 36.7617 42.87 37.434L40.8204 39.2884C40.43 38.8655 40.007 38.551 39.5516 38.345C39.107 38.1281 38.6081 38.0196 38.055 38.0196C37.567 38.0196 37.1224 38.0956 36.7212 38.2474C36.3199 38.3992 35.9783 38.6215 35.6964 38.9143C35.4144 39.1963 35.1921 39.5379 35.0294 39.9391C34.8776 40.3295 34.8017 40.7741 34.8017 41.273C34.8017 41.7501 34.8776 42.1893 35.0294 42.5906C35.1921 42.9918 35.4144 43.3388 35.6964 43.6316C35.9783 43.9136 36.3145 44.1359 36.7049 44.2986C37.1062 44.4504 37.5454 44.5263 38.0225 44.5263C38.4997 44.5263 38.966 44.4504 39.4214 44.2986C39.8769 44.1359 40.3378 43.8648 40.8041 43.4852L42.6097 45.7463C41.959 46.2126 41.2054 46.5705 40.3486 46.8199C39.4919 47.0693 38.6515 47.194 37.8273 47.194ZM39.763 45.3234V41.029H42.6097V45.7463L39.763 45.3234ZM44.6517 46.9663V35.5796H50.4752C51.9717 35.5796 53.0887 35.8562 53.8261 36.4092C54.5635 36.9515 54.9322 37.6672 54.9322 38.5564C54.9322 39.142 54.775 39.6572 54.4605 40.1018C54.1568 40.5356 53.7231 40.8826 53.1592 41.1428C52.6061 41.3923 51.9446 41.517 51.1746 41.517L51.5 40.7362C52.3024 40.7362 53.0019 40.8609 53.5984 41.1103C54.1948 41.3489 54.6557 41.7013 54.981 42.1676C55.3172 42.6231 55.4853 43.1816 55.4853 43.8431C55.4853 44.83 55.084 45.5999 54.2816 46.153C53.4899 46.6952 52.3296 46.9663 50.8005 46.9663H44.6517ZM47.84 44.6402H50.5402C51.0933 44.6402 51.5108 44.548 51.7928 44.3636C52.0856 44.1684 52.232 43.8756 52.232 43.4852C52.232 43.0948 52.0856 42.8075 51.7928 42.6231C51.5108 42.4279 51.0933 42.3303 50.5402 42.3303H47.6122V40.1018H50.0522C50.5944 40.1018 51.0011 40.0096 51.2722 39.8252C51.5433 39.6409 51.6789 39.3644 51.6789 38.9956C51.6789 38.6269 51.5433 38.3558 51.2722 38.1823C51.0011 37.998 50.5944 37.9058 50.0522 37.9058H47.84V44.6402Z" fill="white"/>
<line x1="7.17471" y1="23.2903" x2="41.8571" y2="13.014" stroke="#F58520" stroke-width="2" stroke-linecap="round"/>
<defs>
<linearGradient id="paint0_linear_11985_564454" x1="30" y1="0" x2="30" y2="60" gradientUnits="userSpaceOnUse">
<stop stop-color="#863693"/>
<stop offset="1" stop-color="#520770"/>
</linearGradient>
</defs>
</svg>
