<svg width="25" height="24" viewBox="0 0 25 24" fill="none" xmlns="http://www.w3.org/2000/svg">
<path fill-rule="evenodd" clip-rule="evenodd" d="M12.5 4C8.08172 4 4.5 7.58172 4.5 12C4.5 16.4183 8.08172 20 12.5 20C16.9183 20 20.5 16.4183 20.5 12C20.5 7.58172 16.9183 4 12.5 4ZM2.5 12C2.5 6.47715 6.97715 2 12.5 2C18.0228 2 22.5 6.47715 22.5 12C22.5 17.5228 18.0228 22 12.5 22C6.97715 22 2.5 17.5228 2.5 12Z" fill="#00668D"/>
<path fill-rule="evenodd" clip-rule="evenodd" d="M12.5 8.5C10.9812 8.5 9.75 9.73122 9.75 11.25C9.75 12.7688 10.9812 14 12.5 14C14.0188 14 15.25 12.7688 15.25 11.25C15.25 9.73122 14.0188 8.5 12.5 8.5ZM7.75 11.25C7.75 8.62665 9.87665 6.5 12.5 6.5C15.1234 6.5 17.25 8.62665 17.25 11.25C17.25 13.8734 15.1234 16 12.5 16C9.87665 16 7.75 13.8734 7.75 11.25Z" fill="#00668D"/>
<path fill-rule="evenodd" clip-rule="evenodd" d="M12.4999 15.9994C11.4381 15.9994 10.397 16.2934 9.49199 16.8489C8.58701 17.4044 7.85353 18.1996 7.37284 19.1464C7.12282 19.6389 6.52093 19.8354 6.02848 19.5854C5.53602 19.3354 5.33949 18.7335 5.5895 18.241C6.23739 16.9649 7.226 15.8931 8.44575 15.1444C9.66549 14.3957 11.0687 13.9994 12.4999 13.9994C13.9311 13.9994 15.3343 14.3957 16.5541 15.1444C17.7738 15.8931 18.7624 16.9649 19.4103 18.241C19.6604 18.7335 19.4638 19.3354 18.9714 19.5854C18.4789 19.8354 17.877 19.6389 17.627 19.1464C17.1463 18.1996 16.4128 17.4044 15.5079 16.8489C14.6029 16.2934 13.5618 15.9994 12.4999 15.9994Z" fill="#00668D"/>
</svg>
