<svg width="16" height="16" viewBox="0 0 16 16" fill="none" xmlns="http://www.w3.org/2000/svg">
<path fill-rule="evenodd" clip-rule="evenodd" d="M5.3252 9.4991C5.3252 9.12637 5.62735 8.82422 6.00008 8.82422H10.0001C10.3728 8.82422 10.675 9.12637 10.675 9.4991C10.675 9.87183 10.3728 10.174 10.0001 10.174H6.00008C5.62735 10.174 5.3252 9.87183 5.3252 9.4991Z" fill="white"/>
<path fill-rule="evenodd" clip-rule="evenodd" d="M5.3252 7.50106C5.3252 7.12833 5.62735 6.82617 6.00008 6.82617H10.0001C10.3728 6.82617 10.675 7.12833 10.675 7.50106C10.675 7.87378 10.3728 8.17594 10.0001 8.17594H6.00008C5.62735 8.17594 5.3252 7.87378 5.3252 7.50106Z" fill="white"/>
<path fill-rule="evenodd" clip-rule="evenodd" d="M3.67496 3.17594H6.00008C6.37281 3.17594 6.67496 2.87378 6.67496 2.50106C6.67496 2.12833 6.37281 1.82617 6.00008 1.82617H3.50008C3.18848 1.82617 2.88964 1.94995 2.66931 2.17029C2.44898 2.39062 2.3252 2.68946 2.3252 3.00106V13.5011C2.3252 13.8127 2.44898 14.1115 2.66931 14.3318C2.88965 14.5522 3.18848 14.6759 3.50008 14.6759H12.5001C12.8117 14.6759 13.1105 14.5522 13.3309 14.3318C13.5512 14.1115 13.675 13.8127 13.675 13.5011V3.00106C13.675 2.68946 13.5512 2.39062 13.3309 2.17029C13.1105 1.94995 12.8117 1.82617 12.5001 1.82617H10.0001C9.62735 1.82617 9.3252 2.12833 9.3252 2.50106C9.3252 2.87378 9.62735 3.17594 10.0001 3.17594H12.3252V13.3262H3.67496V3.17594Z" fill="white"/>
<path fill-rule="evenodd" clip-rule="evenodd" d="M8.00008 2.17399C7.51603 2.17399 7.0518 2.36628 6.70953 2.70855C6.40872 3.00936 6.22376 3.40435 6.18336 3.82422H9.8168C9.7764 3.40435 9.59144 3.00936 9.29063 2.70855C8.94836 2.36628 8.48413 2.17399 8.00008 2.17399ZM5.7551 1.75412C6.3505 1.15871 7.15805 0.824219 8.00008 0.824219C8.84211 0.824219 9.64966 1.15871 10.2451 1.75412C10.8405 2.34953 11.175 3.15707 11.175 3.9991V4.4991C11.175 4.87183 10.8728 5.17399 10.5001 5.17399H5.50008C5.12735 5.17399 4.8252 4.87183 4.8252 4.4991V3.9991C4.8252 3.15707 5.15969 2.34953 5.7551 1.75412Z" fill="white"/>
</svg>
