<svg xmlns="http://www.w3.org/2000/svg" width="121" height="120" viewBox="0 0 121 120">
    <defs>
        <clipPath id="clip-path">
            <path id="Rectangle_2149" d="M0 0H121V120H0z"/>
        </clipPath>
        <style>
            .cls-3{fill:#fff}.cls-4{fill:#071d22}
        </style>
    </defs>
    <g id="activate" clip-path="url(#clip-path)">
        <g id="icon_power_up" transform="translate(-523.773 -547.039)">
            <g id="Group_1340" transform="translate(523.773 547.039)">
                <g id="Group_1339">
                    <path id="Path_5562" fill="#f58520" d="M644.761 650.366L637.9 631.76a59.839 59.839 0 1 0-12.787 18.062l17.191 3.417a2.168 2.168 0 0 0 2.457-2.873z" transform="translate(-523.773 -547.039)"/>
                </g>
            </g>
            <g id="Group_1347" transform="translate(550.555 579.001)">
                <g id="Group_1345" transform="translate(0 .773)">
                    <g id="Group_1344">
                        <g id="Group_1343">
                            <g id="Group_1341" transform="translate(17.163)">
                                <path id="Path_5563" d="M556.762 608.26a24.725 24.725 0 0 1-4.8-.52 42.637 42.637 0 0 1-4.162-.99c-1.025-.32-2.451-.787-4.267-1.4-4.1-1.433-5.447-1.644-6.16-1.661a.606.606 0 0 1-.432-.2.4.4 0 0 1-.151-.337v-22.913a.427.427 0 0 1 .148-.337.608.608 0 0 1 .418-.2c1.1-.095 2.227-.871 3.87-2.676 1.275-1.4 2.522-2.887 3.708-4.443a50.381 50.381 0 0 1 3.459-4.112 7.233 7.233 0 0 0 1.475-2.255 12.947 12.947 0 0 0 .724-2.026c.112-.435.274-1.176.492-2.2.172-.941.313-1.629.435-2.132a9.126 9.126 0 0 1 .583-1.531 4.442 4.442 0 0 1 .867-1.3.456.456 0 0 1 .369-.165 8.844 8.844 0 0 1 2.462.309 6.1 6.1 0 0 1 1.665.706 3.3 3.3 0 0 1 .934.948 6.692 6.692 0 0 1 .678 1.257 7.224 7.224 0 0 1 .337 1.43 12.363 12.363 0 0 1 .158 1.4c.014.358.021.8.021 1.345a9.3 9.3 0 0 1-.288 2.29 13.122 13.122 0 0 1-.587 1.879c-.214.484-.52 1.113-.924 1.872-.081.162-.182.344-.327.59a7.564 7.564 0 0 0-.5 1 10.223 10.223 0 0 0-.348 1.032l-.646 2.244h12.235a5.2 5.2 0 0 1 5.106 5.109 6.078 6.078 0 0 1-1.528 4.169l-.671.762.327.959a6.833 6.833 0 0 1 .439 2.149 5.7 5.7 0 0 1-1.183 3.846l-.537.713.26.857a5.562 5.562 0 0 1-.011 3.2 5.189 5.189 0 0 1-1.447 2.557l-.611.58.07.839a6.873 6.873 0 0 1-1.345 5.2c-1.191 1.408-3.059 2.121-5.714 2.16z" class="cls-3" transform="translate(-535.03 -555.104)"/>
                                <path id="Path_5564" d="M555.176 559.889a6.523 6.523 0 0 1 1.394.221 4.425 4.425 0 0 1 1.18.485 1.518 1.518 0 0 1 .432.45 4.991 4.991 0 0 1 .5.906 5.5 5.5 0 0 1 .246 1.074c.077.534.133.934.14 1.2.011.33.018.759.018 1.286a7.765 7.765 0 0 1-.235 1.865 11.792 11.792 0 0 1-.5 1.6c-.2.456-.488 1.04-.9 1.826-.053.1-.137.249-.253.449a9.917 9.917 0 0 0-.618 1.247 12.529 12.529 0 0 0-.4 1.2l-1.278 4.474h14.557a3.445 3.445 0 0 1 3.35 3.354 4.335 4.335 0 0 1-1.1 3.017l-1.331 1.528.653 1.918a5.185 5.185 0 0 1 .348 1.721 3.92 3.92 0 0 1-.832 2.644l-1.075 1.426.52 1.707a3.983 3.983 0 0 1-.035 2.272 3.483 3.483 0 0 1-.952 1.7l-1.219 1.156.133 1.675a5.22 5.22 0 0 1-.934 3.926c-.312.369-1.261 1.492-4.358 1.538h-4.611a23.169 23.169 0 0 1-4.464-.484c-1.731-.344-3.073-.664-3.99-.948-1.015-.316-2.427-.776-4.186-1.373a39.075 39.075 0 0 0-5.584-1.647v-20.81a9.953 9.953 0 0 0 3.979-3.031c1.3-1.426 2.581-2.961 3.782-4.53a47.837 47.837 0 0 1 3.329-3.968 9.069 9.069 0 0 0 1.847-2.8 14.776 14.776 0 0 0 .815-2.293c.112-.464.281-1.215.527-2.381.151-.829.281-1.478.4-1.945a7.139 7.139 0 0 1 .474-1.229 3.647 3.647 0 0 1 .228-.421m-.587-3.529a2.207 2.207 0 0 0-1.608.678 6.238 6.238 0 0 0-1.215 1.788 10.554 10.554 0 0 0-.7 1.861c-.13.523-.281 1.25-.446 2.181q-.321 1.5-.484 2.163a11.263 11.263 0 0 1-.625 1.732 5.4 5.4 0 0 1-1.11 1.717 54.1 54.1 0 0 0-3.61 4.288q-1.749 2.292-3.61 4.327t-2.715 2.111a2.329 2.329 0 0 0-1.538.734 2.153 2.153 0 0 0-.643 1.552v22.913a2.143 2.143 0 0 0 .678 1.59 2.38 2.38 0 0 0 1.609.7 26.177 26.177 0 0 1 5.647 1.573q2.755.933 4.309 1.412t4.344 1.039a26.582 26.582 0 0 0 5.148.551h4.611q4.751-.069 7.042-2.788a8.578 8.578 0 0 0 1.752-6.469 6.951 6.951 0 0 0 1.931-3.361 7.368 7.368 0 0 0 0-4.183 7.409 7.409 0 0 0 1.535-4.9 8.49 8.49 0 0 0-.534-2.718 7.828 7.828 0 0 0 1.967-5.328 6.95 6.95 0 0 0-6.862-6.866h-9.9c.095-.334.19-.618.284-.857a6.062 6.062 0 0 1 .393-.787c.165-.288.285-.5.358-.646q.643-1.211.984-2a15.08 15.08 0 0 0 .678-2.146 11.274 11.274 0 0 0 .341-2.718c0-.573-.007-1.036-.021-1.394a15.254 15.254 0 0 0-.176-1.608 9.009 9.009 0 0 0-.432-1.788 8.179 8.179 0 0 0-.857-1.608 5.012 5.012 0 0 0-1.429-1.447 7.742 7.742 0 0 0-2.146-.931 10.718 10.718 0 0 0-2.95-.376z" class="cls-4" transform="translate(-536.286 -556.36)"/>
                            </g>
                            <g id="Group_1342" transform="translate(0 22.88)">
                                <path id="Path_5565" d="M532.433 587.323a.464.464 0 0 1-.372-.169.459.459 0 0 1-.162-.365v-22.88a.567.567 0 0 1 .534-.534h10.3a.467.467 0 0 1 .369.165.454.454 0 0 1 .161.369v22.88a.458.458 0 0 1-.161.369.467.467 0 0 1-.369.165zm4.576-9.156a3.929 3.929 0 0 0-2.887 1.215 4.02 4.02 0 1 0 2.887-1.215z" class="cls-3" transform="translate(-530.143 -561.619)"/>
                                <path id="Path_5566" d="M542.76 566.387v13.433a5.887 5.887 0 0 0-.4-.443 5.785 5.785 0 0 0-7.445-.65v-12.34h7.849m1.226-3.512h-10.3a2.327 2.327 0 0 0-2.29 2.29v22.88a2.327 2.327 0 0 0 2.29 2.29h10.3a2.321 2.321 0 0 0 2.286-2.29v-22.88a2.321 2.321 0 0 0-2.286-2.29zm-5.721 22.88a2.29 2.29 0 1 1 1.608-.66 2.2 2.2 0 0 1-1.608.66z" class="cls-4" transform="translate(-531.399 -562.875)"/>
                            </g>
                        </g>
                    </g>
                </g>
                <g id="Group_1346" transform="translate(51.877)">
                    <path id="Path_5567" d="M550.74 564.285l1.139-8.145-5.708 1.247z" class="cls-4" transform="translate(-546.171 -556.14)"/>
                    <path id="Path_5568" d="M548.94 563.872l8.136-1.2-2.8-5.126z" class="cls-4" transform="translate(-539.216 -552.609)"/>
                    <path id="Path_5569" d="M549.111 561.225l4.795 6.2 3.023-5.061z" class="cls-4" transform="translate(-538.786 -543.367)"/>
                </g>
            </g>
        </g>
    </g>
</svg>
