<svg width="64" height="64" viewBox="0 0 64 64" fill="none" xmlns="http://www.w3.org/2000/svg">
<g clip-path="url(#clip0_338_156)">
<path d="M32.1943 55.7054C44.1099 55.7054 53.7694 45.9837 53.7694 33.9914C53.7694 21.9991 44.1099 12.2774 32.1943 12.2774C20.2787 12.2774 10.6191 21.9991 10.6191 33.9914C10.6191 45.9837 20.2787 55.7054 32.1943 55.7054Z" stroke="#6A509A" stroke-width="3.7023" stroke-miterlimit="10"/>
<path d="M28.5487 42.8954C28.0396 42.8954 27.5305 42.7011 27.151 42.3123L20.6905 35.8148C19.9131 35.0373 19.9131 33.7693 20.6905 32.9918C21.468 32.2143 22.7175 32.2143 23.495 32.9918L28.5487 38.0824L40.8866 25.6612C41.6641 24.8838 42.9136 24.8838 43.6911 25.6612C44.4685 26.4387 44.4685 27.7068 43.6911 28.4842L29.9463 42.3123C29.5575 42.7011 29.0485 42.8954 28.5487 42.8954Z" fill="#6A509A"/>
<path d="M51.7607 12.9438L50.4741 10.0004L47.54 8.66762L50.2427 7.28851L51.6033 4.25262L52.9084 7.17744L55.6018 8.30664L53.0194 9.80607L51.7607 12.9438Z" fill="#F58E25"/>
<path d="M56.6574 17.7567L55.954 15.9611L54.2231 15.1003L55.8707 14.3414L56.75 12.555L57.4719 14.3321L59.0546 15.0633L57.4719 15.9056L56.6574 17.7567Z" fill="#F58E25"/>
<path d="M58.4172 12.2773L57.7137 10.4909L55.9829 9.63015L57.6397 8.87118L58.5097 7.07556L59.2317 8.86192L60.8144 9.59313L59.2409 10.4261L58.4172 12.2773Z" fill="#F58E25"/>
<g style="mix-blend-mode:multiply" opacity="0.1">
<path d="M52.1149 34.0839C52.1149 45.089 43.1924 54.0023 32.1965 54.0023C31.7985 54.0023 31.4005 53.993 31.0025 53.9652C39.0921 51.4292 44.9602 43.8857 44.9602 34.9539C44.9602 24.3561 36.6763 15.6835 26.2358 15.0726C28.124 14.4802 30.1233 14.1655 32.1965 14.1655C43.1924 14.1655 52.1149 23.0881 52.1149 34.0839Z" fill="#6A509A"/>
</g>
</g>
<defs>
<clipPath id="clip0_338_156">
<rect width="73" height="73" fill="white" transform="translate(-2 -5)"/>
</clipPath>
</defs>
</svg>
