<svg width="33" height="35" viewBox="0 0 33 35" fill="none" xmlns="http://www.w3.org/2000/svg">
<g clip-path="url(#clip0_8348_390187)">
<path d="M7.65894 31.9375H25.6589M20.6589 15.9375C20.6589 18.1466 18.8681 19.9375 16.6589 19.9375C14.4498 19.9375 12.6589 18.1466 12.6589 15.9375C12.6589 13.7284 14.4498 11.9375 16.6589 11.9375C18.8681 11.9375 20.6589 13.7284 20.6589 15.9375ZM26.6589 15.9375C26.6589 24.9375 16.6589 31.9375 16.6589 31.9375C16.6589 31.9375 6.65894 24.9375 6.65894 15.9375C6.65894 13.2853 7.7125 10.7418 9.58787 8.86643C11.4632 6.99107 14.0068 5.9375 16.6589 5.9375C19.3111 5.9375 21.8546 6.99107 23.73 8.86643C25.6054 10.7418 26.6589 13.2853 26.6589 15.9375Z" stroke="#F98010" stroke-width="2.66667" stroke-linecap="round" stroke-linejoin="round"/>
</g>
<defs>
<clipPath id="clip0_8348_390187">
<rect width="32" height="34" fill="white" transform="translate(0.658936 0.9375)"/>
</clipPath>
</defs>
</svg>
