<svg width="24" height="24" viewBox="0 0 24 24" fill="none" xmlns="http://www.w3.org/2000/svg">
<path fill-rule="evenodd" clip-rule="evenodd" d="M12 20C16.4183 20 20 16.4183 20 12C20 7.58172 16.4183 4 12 4C7.58172 4 4 7.58172 4 12C4 16.4183 7.58172 20 12 20ZM22 12C22 17.5228 17.5228 22 12 22C6.47715 22 2 17.5228 2 12C2 6.47715 6.47715 2 12 2C17.5228 2 22 6.47715 22 12Z" fill="#863399"/>
<path fill-rule="evenodd" clip-rule="evenodd" d="M12 17.5C11.4477 17.5 11 17.0523 11 16.5L11 11.25C11 10.6977 11.4477 10.25 12 10.25C12.5523 10.25 13 10.6977 13 11.25L13 16.5C13 17.0523 12.5523 17.5 12 17.5Z" fill="#863399"/>
<path d="M12 6.75C11.3787 6.75 10.875 7.25368 10.875 7.875C10.875 8.49632 11.3787 9 12 9C12.6213 9 13.125 8.49632 13.125 7.875C13.125 7.25368 12.6213 6.75 12 6.75Z" fill="#863399"/>
</svg>
