<svg width="33" height="33" viewBox="0 0 33 33" fill="none" xmlns="http://www.w3.org/2000/svg">
<path fill-rule="evenodd" clip-rule="evenodd" d="M16.1645 26.7325C22.0555 26.7325 26.8311 21.9569 26.8311 16.0658C26.8311 10.1748 22.0555 5.39917 16.1645 5.39917C10.2734 5.39917 5.49781 10.1748 5.49781 16.0658C5.49781 21.9569 10.2734 26.7325 16.1645 26.7325ZM29.4978 16.0658C29.4978 23.4296 23.5283 29.3992 16.1645 29.3992C8.80067 29.3992 2.83114 23.4296 2.83114 16.0658C2.83114 8.70204 8.80068 2.7325 16.1645 2.7325C23.5283 2.73251 29.4978 8.70204 29.4978 16.0658Z" fill="#863399"/>
<path fill-rule="evenodd" clip-rule="evenodd" d="M16.1645 23.3992C15.4281 23.3992 14.8311 22.8022 14.8311 22.0658L14.8311 15.0658C14.8311 14.3295 15.4281 13.7325 16.1645 13.7325C16.9008 13.7325 17.4978 14.3295 17.4978 15.0658L17.4978 22.0658C17.4978 22.8022 16.9008 23.3992 16.1645 23.3992Z" fill="#863399"/>
<path d="M16.1646 9.06592C15.3361 9.06592 14.6646 9.73749 14.6646 10.5659C14.6646 11.3943 15.3361 12.0659 16.1646 12.0659C16.993 12.0659 17.6646 11.3943 17.6646 10.5659C17.6646 9.73749 16.993 9.06592 16.1646 9.06592Z" fill="#863399"/>
</svg>
