<svg width="33" height="32" viewBox="0 0 33 32" fill="none" xmlns="http://www.w3.org/2000/svg">
<path fill-rule="evenodd" clip-rule="evenodd" d="M16.8906 5.33366C10.9995 5.33366 6.22392 10.1093 6.22392 16.0003C6.22392 21.8914 10.9995 26.667 16.8906 26.667C22.7816 26.667 27.5572 21.8914 27.5572 16.0003C27.5572 10.1093 22.7816 5.33366 16.8906 5.33366ZM3.55725 16.0003C3.55725 8.63653 9.52679 2.66699 16.8906 2.66699C24.2544 2.66699 30.2239 8.63653 30.2239 16.0003C30.2239 23.3641 24.2544 29.3337 16.8906 29.3337C9.52679 29.3337 3.55725 23.3641 3.55725 16.0003Z" fill="#D22119"/>
<path fill-rule="evenodd" clip-rule="evenodd" d="M16.8906 8.66699C17.627 8.66699 18.2239 9.26395 18.2239 10.0003V17.0003C18.2239 17.7367 17.627 18.3337 16.8906 18.3337C16.1542 18.3337 15.5573 17.7367 15.5573 17.0003V10.0003C15.5573 9.26395 16.1542 8.66699 16.8906 8.66699Z" fill="#D22119"/>
<path d="M16.8906 23C17.7191 23 18.3906 22.3284 18.3906 21.5C18.3906 20.6716 17.7191 20 16.8906 20C16.0622 20 15.3906 20.6716 15.3906 21.5C15.3906 22.3284 16.0622 23 16.8906 23Z" fill="#D22119"/>
</svg>
