<svg width="15" height="14" viewBox="0 0 15 14" fill="none" xmlns="http://www.w3.org/2000/svg">
<path fill-rule="evenodd" clip-rule="evenodd" d="M7.49992 1.66671C4.5544 1.66671 2.16659 4.05452 2.16659 7.00004C2.16659 9.94556 4.5544 12.3334 7.49992 12.3334C10.4454 12.3334 12.8333 9.94556 12.8333 7.00004C12.8333 4.05452 10.4454 1.66671 7.49992 1.66671ZM0.833252 7.00004C0.833252 3.31814 3.81802 0.333374 7.49992 0.333374C11.1818 0.333374 14.1666 3.31814 14.1666 7.00004C14.1666 10.6819 11.1818 13.6667 7.49992 13.6667C3.81802 13.6667 0.833252 10.6819 0.833252 7.00004Z" fill="#FBFBFB"/>
<path fill-rule="evenodd" clip-rule="evenodd" d="M4.80419 5.75464C5.07787 5.50833 5.49939 5.53052 5.7457 5.80419L7.50017 7.7536L9.25464 5.80419C9.50095 5.53052 9.92247 5.50833 10.1961 5.75464C10.4698 6.00095 10.492 6.42247 10.2457 6.69614L7.9957 9.19614C7.86927 9.33662 7.68916 9.41683 7.50017 9.41683C7.31118 9.41683 7.13107 9.33662 7.00464 9.19614L4.75464 6.69614C4.50833 6.42247 4.53052 6.00095 4.80419 5.75464Z" fill="#FBFBFB"/>
</svg>
