<svg width="32" height="32" viewBox="0 0 32 32" fill="none" xmlns="http://www.w3.org/2000/svg">
<path fill-rule="evenodd" clip-rule="evenodd" d="M16.0013 5.33268C10.1103 5.33268 5.33464 10.1083 5.33464 15.9993C5.33464 21.8904 10.1103 26.666 16.0013 26.666C21.8923 26.666 26.668 21.8904 26.668 15.9993C26.668 10.1083 21.8923 5.33268 16.0013 5.33268ZM2.66797 15.9993C2.66797 8.63555 8.63751 2.66602 16.0013 2.66602C23.3651 2.66602 29.3346 8.63555 29.3346 15.9993C29.3346 23.3631 23.3651 29.3327 16.0013 29.3327C8.63751 29.3327 2.66797 23.3631 2.66797 15.9993Z" fill="#863399"/>
<path fill-rule="evenodd" clip-rule="evenodd" d="M16.0013 11.666C16.3793 11.666 16.7395 11.8264 16.9924 12.1074L21.4924 17.1074C21.985 17.6547 21.9406 18.4978 21.3933 18.9904C20.8459 19.483 20.0029 19.4386 19.5103 18.8913L16.0013 14.9925L12.4924 18.8913C11.9998 19.4386 11.1567 19.483 10.6094 18.9904C10.062 18.4978 10.0176 17.6547 10.5103 17.1074L15.0103 12.1074C15.2631 11.8264 15.6233 11.666 16.0013 11.666Z" fill="#863399"/>
</svg>
