<svg width="28" height="28" viewBox="0 0 28 28" fill="none" xmlns="http://www.w3.org/2000/svg">
<path fill-rule="evenodd" clip-rule="evenodd" d="M14.0013 3.33268C8.11026 3.33268 3.33464 8.10831 3.33464 13.9993C3.33464 19.8904 8.11026 24.666 14.0013 24.666C19.8923 24.666 24.668 19.8904 24.668 13.9993C24.668 8.10831 19.8923 3.33268 14.0013 3.33268ZM0.667969 13.9993C0.667969 6.63555 6.63751 0.666016 14.0013 0.666016C21.3651 0.666016 27.3346 6.63555 27.3346 13.9993C27.3346 21.3631 21.3651 27.3327 14.0013 27.3327C6.63751 27.3327 0.667969 21.3631 0.667969 13.9993Z" fill="#094067"/>
<path fill-rule="evenodd" clip-rule="evenodd" d="M14.0013 9.66602C14.3793 9.66602 14.7395 9.82644 14.9924 10.1074L19.4924 15.1074C19.985 15.6547 19.9406 16.4978 19.3933 16.9904C18.8459 17.483 18.0029 17.4386 17.5103 16.8913L14.0013 12.9925L10.4924 16.8913C9.99976 17.4386 9.15671 17.483 8.60936 16.9904C8.06201 16.4978 8.01764 15.6547 8.51025 15.1074L13.0103 10.1074C13.2631 9.82644 13.6233 9.66602 14.0013 9.66602Z" fill="#094067"/>
</svg>
