<svg width="33" height="33" viewBox="0 0 33 33" fill="none" xmlns="http://www.w3.org/2000/svg">
<path fill-rule="evenodd" clip-rule="evenodd" d="M25.2633 24.4566C27.2676 22.312 28.4944 19.4316 28.4944 16.2647C28.4944 9.63729 23.1218 4.26471 16.4944 4.26471C9.86697 4.26471 4.49438 9.63729 4.49438 16.2647C4.49438 19.4318 5.72131 22.3124 7.72579 24.4569C8.56094 22.9335 9.77965 21.6521 11.2635 20.7413C11.7491 20.4433 12.2572 20.1885 12.782 19.9787C11.3888 18.8799 10.4944 17.1768 10.4944 15.2647C10.4944 11.951 13.1807 9.26471 16.4944 9.26471C19.8081 9.26471 22.4944 11.951 22.4944 15.2647C22.4944 17.1767 21.6001 18.8798 20.2069 19.9785C20.7319 20.1884 21.2401 20.4432 21.7258 20.7413C23.2095 21.652 24.4282 22.9333 25.2633 24.4566ZM23.7475 25.8255C23.702 25.7701 23.6618 25.7089 23.628 25.6424C22.9592 24.3251 21.9387 23.2187 20.6796 22.4459C19.4413 21.6858 18.0197 21.2775 16.5677 21.2643C16.5433 21.2646 16.5189 21.2647 16.4944 21.2647C16.47 21.2647 16.4456 21.2646 16.4213 21.2643C14.9694 21.2776 13.5479 21.6858 12.3097 22.4459C11.0506 23.2187 10.0301 24.3251 9.36131 25.6424C9.32747 25.709 9.28718 25.7703 9.2416 25.8257C11.2561 27.3563 13.7692 28.2647 16.4944 28.2647C19.2197 28.2647 21.7329 27.3562 23.7475 25.8255ZM16.5614 19.2642C18.7396 19.2284 20.4944 17.4515 20.4944 15.2647C20.4944 13.0556 18.7035 11.2647 16.4944 11.2647C14.2852 11.2647 12.4944 13.0556 12.4944 15.2647C12.4944 17.4515 14.2492 19.2285 16.4275 19.2642C16.4499 19.264 16.4723 19.2639 16.4946 19.2639C16.5169 19.2639 16.5391 19.264 16.5614 19.2642Z" fill="#98C9FF"/>
</svg>
