<svg width="46" height="46" viewBox="0 0 46 46" fill="none" xmlns="http://www.w3.org/2000/svg">
<g opacity="0.05">
<path d="M22.8691 45.4893C35.2955 45.4893 45.3691 35.4157 45.3691 22.9893C45.3691 10.5629 35.2955 0.489258 22.8691 0.489258C10.4427 0.489258 0.369141 10.5629 0.369141 22.9893C0.369141 35.4157 10.4427 45.4893 22.8691 45.4893Z" fill="#383838"/>
</g>
<path d="M34.3292 11.0495H34.2692V11.0195L34.3292 11.0495Z" fill="white"/>
<path d="M8.47919 14.7787L32.0392 10.2287C33.6392 9.9187 35.1292 11.1487 35.1292 12.7787V14.7787H8.47919Z" fill="#2D1133"/>
<path d="M30.6613 5.99831L10.7104 9.69238L12.9389 21.7278L32.8898 18.0337L30.6613 5.99831Z" fill="white"/>
<path d="M30.6613 5.99831L10.7104 9.69238L12.9389 21.7278L32.8898 18.0337L30.6613 5.99831Z" fill="#61C691"/>
<path d="M22.0192 16.409C23.5822 16.409 24.8492 15.142 24.8492 13.579C24.8492 12.0161 23.5822 10.749 22.0192 10.749C20.4562 10.749 19.1892 12.0161 19.1892 13.579C19.1892 15.142 20.4562 16.409 22.0192 16.409Z" fill="white"/>
<path d="M28.8392 13.4288C29.3804 13.4288 29.8192 12.99 29.8192 12.4488C29.8192 11.9075 29.3804 11.4688 28.8392 11.4688C28.298 11.4688 27.8592 11.9075 27.8592 12.4488C27.8592 12.99 28.298 13.4288 28.8392 13.4288Z" fill="white"/>
<path d="M14.7692 15.4883C15.3104 15.4883 15.7492 15.0496 15.7492 14.5083C15.7492 13.9671 15.3104 13.5283 14.7692 13.5283C14.2279 13.5283 13.7892 13.9671 13.7892 14.5083C13.7892 15.0496 14.2279 15.4883 14.7692 15.4883Z" fill="white"/>
<path d="M22.3392 13.2985L21.7192 13.2685C21.5292 13.2585 21.3892 13.1285 21.3492 12.9485C21.3092 12.7285 21.4592 12.5185 21.6692 12.4785L21.9492 12.4285C22.1492 12.3885 22.3392 12.5185 22.3792 12.7185C22.4092 12.8785 22.5592 12.9785 22.7192 12.9485C22.8792 12.9185 22.9792 12.7685 22.9492 12.6085C22.8592 12.1385 22.4392 11.8185 21.9692 11.8485L21.9492 11.7285C21.9192 11.5685 21.7692 11.4685 21.6092 11.4985C21.4492 11.5285 21.3492 11.6785 21.3792 11.8385L21.3992 11.9685C20.9592 12.1285 20.6792 12.5885 20.7692 13.0685C20.8492 13.5085 21.2292 13.8285 21.6792 13.8685L22.2992 13.8985C22.4892 13.9085 22.6292 14.0385 22.6692 14.2185C22.7092 14.4385 22.5592 14.6485 22.3492 14.6885L22.0692 14.7385C21.8692 14.7785 21.6792 14.6485 21.6392 14.4485C21.6092 14.2885 21.4592 14.1885 21.2992 14.2185C21.1392 14.2485 21.0392 14.3985 21.0692 14.5585C21.1592 15.0285 21.5792 15.3485 22.0492 15.3185L22.0692 15.4385C22.0992 15.5985 22.2492 15.6985 22.4092 15.6685C22.5692 15.6385 22.6692 15.4885 22.6392 15.3285L22.6192 15.1985C23.0592 15.0385 23.3392 14.5785 23.2492 14.0985C23.1592 13.6185 22.7892 13.3285 22.3392 13.2985Z" fill="#0EB864"/>
<path d="M29.6818 7.30965L12.2088 10.5449L14.0331 20.3975L31.5061 17.1622L29.6818 7.30965Z" stroke="white" stroke-width="0.5" stroke-miterlimit="10"/>
<path d="M35.3292 15.1992H9.10916C8.23103 15.1992 7.51917 15.9111 7.51917 16.7892V32.4792C7.51917 33.3573 8.23103 34.0692 9.10916 34.0692H35.3292C36.2073 34.0692 36.9192 33.3573 36.9192 32.4792V16.7892C36.9192 15.9111 36.2073 15.1992 35.3292 15.1992Z" fill="white"/>
<g opacity="0.1">
<path d="M36.8292 15.3389H35.1392V33.9189H36.8292V15.3389Z" fill="#863399"/>
</g>
<path d="M35.3292 15.1992H9.10916C8.23103 15.1992 7.51917 15.9111 7.51917 16.7892V32.4792C7.51917 33.3573 8.23103 34.0692 9.10916 34.0692H35.3292C36.2073 34.0692 36.9192 33.3573 36.9192 32.4792V16.7892C36.9192 15.9111 36.2073 15.1992 35.3292 15.1992Z" stroke="#863399" stroke-miterlimit="10"/>
<path d="M29.5892 20.8889H38.2292V27.5589H29.5892C27.8092 27.5589 26.3592 26.1089 26.3592 24.3289V24.1089C26.3592 22.3289 27.8092 20.8789 29.5892 20.8789V20.8889Z" fill="#863399"/>
<path d="M37.4092 20.5684L38.2192 20.8884H37.4092V20.5684Z" fill="#2D1133"/>
<path d="M38.2192 27.5586L37.4092 27.8186V27.5586H38.2192Z" fill="#2D1133"/>
<path d="M30.1292 25.5487C30.8637 25.5487 31.4592 24.9532 31.4592 24.2187C31.4592 23.4841 30.8637 22.8887 30.1292 22.8887C29.3947 22.8887 28.7992 23.4841 28.7992 24.2187C28.7992 24.9532 29.3947 25.5487 30.1292 25.5487Z" fill="white"/>
<path opacity="0.25" d="M31.4591 24.2184C31.4591 24.9284 30.8891 25.5184 30.1791 25.5384C30.6691 25.3084 31.0091 24.8084 31.0091 24.2184C31.0091 23.6284 30.6691 23.1284 30.1791 22.8984C30.8891 22.9184 31.4591 23.5084 31.4591 24.2184Z" fill="#863399"/>
<path d="M10.7092 18.1592V18.6592" stroke="#863399" stroke-width="0.25" stroke-linecap="round" stroke-linejoin="round"/>
<path d="M10.7092 19.7393V30.0593" stroke="#863399" stroke-width="0.25" stroke-linecap="round" stroke-linejoin="round"/>
<path d="M10.7092 30.5996V31.0996" stroke="#863399" stroke-width="0.25" stroke-linecap="round" stroke-linejoin="round"/>
</svg>
