<svg width="64" height="64" viewBox="0 0 64 64" fill="none" xmlns="http://www.w3.org/2000/svg">
<g clip-path="url(#clip0_14_75452)">
<path d="M22.8162 9.19043H21.085V20.56H22.8162V9.19043Z" fill="#090909"/>
<path d="M26.1374 9.19043H24.6846V20.56H26.1374V9.19043Z" fill="#090909"/>
<path d="M29.741 9.19043H28.0098V20.56H29.741V9.19043Z" fill="#090909"/>
<path d="M33.7955 9.19043H31.7188V20.56H33.7955V9.19043Z" fill="#090909"/>
<path d="M37.0915 9.19043H35.6387V20.56H37.0915V9.19043Z" fill="#090909"/>
<path d="M39.9909 9.19043H38.5381V20.56H39.9909V9.19043Z" fill="#090909"/>
<path d="M43.4528 9.19043H42V20.56H43.4528V9.19043Z" fill="#090909"/>
<g opacity="0.2">
<path d="M32 64C49.6731 64 64 49.6731 64 32C64 14.3269 49.6731 0 32 0C14.3269 0 0 14.3269 0 32C0 49.6731 14.3269 64 32 64Z" fill="#7DCFDD"/>
</g>
<g style="mix-blend-mode:multiply" opacity="0.25">
<path d="M38.3613 23.501C38.3613 23.501 43.8013 30.4418 38.5981 41.9682C38.5981 41.9682 50.9949 26.2658 38.3613 23.501Z" fill="#E0D4FF"/>
</g>
<path d="M43.9262 27.9006C42.9406 23.1006 39.2958 23.1006 32.0382 23.1006H31.9582C24.7038 23.1006 21.059 23.1006 20.0702 27.9006C19.6478 29.9422 19.8622 32.1438 20.6942 34.2686C22.1246 37.9134 23.747 40.355 25.3982 41.9678C25.6414 42.211 25.8014 42.5182 25.8334 42.8606L27.1294 53.3214C27.2766 54.7454 28.3166 55.9326 29.7214 56.2334C30.0574 56.3038 30.3966 56.355 30.7326 56.3934L30.9918 59.6318C31.0366 60.1758 31.4878 60.595 32.035 60.595C32.5822 60.595 33.0334 60.1758 33.0782 59.6318L33.3406 56.3806C33.651 56.3422 33.9614 56.2974 34.2718 56.2334C35.6734 55.9326 36.7134 54.7422 36.8638 53.3214L38.1598 42.8606C38.1918 42.5182 38.355 42.211 38.595 41.9678C40.2462 40.3582 41.8718 37.9134 43.299 34.2686C44.131 32.1406 44.3454 29.939 43.923 27.9006H43.9262ZM39.0398 33.651C37.8014 36.8254 35.5742 40.611 32.0286 40.611H31.9678C28.4222 40.611 26.195 36.8254 24.9566 33.651C24.611 32.7646 24.4286 31.8558 24.4286 30.9822C24.4286 30.5598 24.4702 30.1438 24.5534 29.7374C25.0302 27.4494 26.4798 27.3566 31.9646 27.3566H32.0254C37.5134 27.3566 38.9598 27.4526 39.4366 29.7374C39.523 30.1438 39.5614 30.5598 39.5614 30.9822C39.5614 31.8558 39.3822 32.7614 39.0334 33.651H39.0398Z" fill="#FAFBFC"/>
<path d="M32.0386 61.1167C31.2258 61.1167 30.541 60.4831 30.4738 59.6735L30.2466 56.8575C30.0194 56.8255 29.8146 56.7871 29.613 56.7455C27.9906 56.3967 26.7842 55.0399 26.6114 53.3759L25.3186 42.9279C25.2898 42.6495 25.149 42.4575 25.0306 42.3391C23.1714 40.5247 21.5458 37.8719 20.2082 34.4607C19.3378 32.2399 19.1138 29.9359 19.5586 27.7951C20.6306 22.5791 24.653 22.5791 31.9554 22.5791H32.0354C39.3378 22.5791 43.3602 22.5791 44.4322 27.7951C44.877 29.9359 44.653 32.2399 43.7826 34.4607C42.445 37.8719 40.8226 40.5215 38.957 42.3423C38.845 42.4543 38.701 42.6463 38.6754 42.9119L37.3794 53.3855C37.2066 55.0431 36.0002 56.3967 34.381 56.7455C34.1922 56.7839 34.0034 56.8159 33.8274 56.8447L33.6002 59.6767C33.5362 60.4863 32.8482 61.1199 32.0354 61.1199L32.0386 61.1167ZM31.9586 23.6255C24.7682 23.6255 21.485 23.6255 20.5858 28.0063C20.1826 29.9487 20.3906 32.0479 21.1842 34.0799C22.4674 37.3503 24.0098 39.8783 25.7666 41.5935C26.109 41.9359 26.3138 42.3551 26.3586 42.8095L27.6514 53.2575C27.7794 54.4831 28.6562 55.4687 29.8338 55.7247C30.1186 55.7855 30.4258 55.8335 30.797 55.8783L31.2226 55.9295L31.517 59.5935C31.5394 59.8623 31.7666 60.0735 32.0386 60.0735C32.3106 60.0735 32.5378 59.8623 32.5602 59.5935L32.8546 55.9199L33.277 55.8687C33.5426 55.8367 33.8594 55.7919 34.1666 55.7279C35.3442 55.4751 36.221 54.4863 36.3458 53.2735L37.6418 42.8031C37.6834 42.3647 37.8882 41.9455 38.2274 41.6063C39.9906 39.8847 41.533 37.3567 42.8162 34.0863C43.6098 32.0543 43.8178 29.9551 43.4146 28.0127C42.5154 23.6319 39.2322 23.6319 32.0418 23.6319H31.9618L31.9586 23.6255ZM32.029 41.1359H31.9682C28.1218 41.1359 25.7666 37.1679 24.4706 33.8431C24.0962 32.8863 23.9074 31.9231 23.9074 30.9855C23.9074 30.5215 23.9522 30.0671 24.045 29.6351C24.6274 26.8383 26.7778 26.8383 31.9682 26.8383H32.029C37.2226 26.8383 39.3698 26.8383 39.9522 29.6351C40.0418 30.0671 40.0898 30.5215 40.0898 30.9855C40.0898 31.9231 39.901 32.8863 39.5266 33.8431C38.2274 37.1711 35.8754 41.1359 32.029 41.1359ZM31.9682 27.8815C25.9586 27.8815 25.4146 28.1791 25.069 29.8463C24.9922 30.2079 24.9538 30.5919 24.9538 30.9823C24.9538 31.7919 25.1202 32.6239 25.4434 33.4591C26.6242 36.4831 28.7138 40.0863 31.9682 40.0863H32.029C35.2834 40.0863 37.373 36.4831 38.5538 33.4591C38.8802 32.6239 39.0434 31.7887 39.0434 30.9823C39.0434 30.5887 39.005 30.2079 38.9282 29.8463C38.5474 28.0255 37.5362 27.8783 32.0258 27.8783H31.965L31.9682 27.8815Z" fill="#6A509A"/>
<path d="M32.0383 29.2544C32.0383 29.2544 32.0127 29.2544 31.9999 29.2544C31.9871 29.2544 31.9743 29.2544 31.9615 29.2544C29.7279 29.2544 27.9199 30.0416 27.9199 31.0144C27.9199 31.9872 29.7311 32.7744 31.9615 32.7744C31.9743 32.7744 31.9871 32.7744 31.9999 32.7744C32.0127 32.7744 32.0255 32.7744 32.0383 32.7744C34.2719 32.7744 36.0799 31.9872 36.0799 31.0144C36.0799 30.0416 34.2687 29.2544 32.0383 29.2544Z" fill="#090909"/>
<path d="M18.5596 15.6479H20.2012H21.6732H28.3644H29.8364H32.294H33.766H42.566H44.0348H45.9228V14.1055H44.0348H42.566H21.6732H20.2012H18.5596V15.6479Z" fill="#E36666"/>
<path d="M20 10C20 4.47715 15.5228 0 10 0C4.47715 0 0 4.47715 0 10C0 15.5228 4.47715 20 10 20C15.5228 20 20 15.5228 20 10Z" fill="#6A509A"/>
<path d="M12.6757 12.8965C12.6757 13.0128 12.6717 13.109 12.6597 13.1892C12.6517 13.2693 12.6357 13.3375 12.6156 13.3896C12.5956 13.4417 12.5715 13.4778 12.5394 13.4978C12.5074 13.5179 12.4713 13.5299 12.4312 13.5299H8.01349C7.9253 13.5299 7.85314 13.5219 7.789 13.5059C7.72485 13.4898 7.67274 13.4577 7.63666 13.4137C7.59657 13.3696 7.56851 13.3014 7.55248 13.2132C7.53644 13.125 7.52441 13.0128 7.52441 12.8765C7.52441 12.7442 7.52842 12.6359 7.54045 12.5397C7.55248 12.4435 7.57252 12.3633 7.60459 12.2912C7.63666 12.219 7.67675 12.1469 7.72486 12.0787C7.77296 12.0106 7.8371 11.9344 7.91728 11.8502L9.24821 10.4271C9.51279 10.1505 9.72526 9.89792 9.88962 9.66942C10.05 9.44091 10.1783 9.23245 10.2705 9.04404C10.3627 8.85562 10.4228 8.68325 10.4589 8.52289C10.4949 8.36254 10.511 8.21421 10.511 8.0699C10.511 7.9376 10.4909 7.81734 10.4468 7.69708C10.4068 7.58082 10.3426 7.47659 10.2624 7.39241C10.1823 7.30421 10.078 7.23606 9.95777 7.18796C9.83349 7.13985 9.68918 7.11179 9.52481 7.11179C9.2923 7.11179 9.08384 7.13985 8.90345 7.19998C8.72305 7.26011 8.56671 7.32426 8.4264 7.40042C8.2901 7.47258 8.17785 7.54073 8.08565 7.60086C7.99345 7.661 7.9253 7.69307 7.87318 7.69307C7.8371 7.69307 7.80503 7.68104 7.78098 7.65699C7.75693 7.63293 7.73287 7.59285 7.71684 7.53672C7.7008 7.4806 7.68878 7.40844 7.67675 7.31223C7.66873 7.22003 7.66071 7.10377 7.66071 6.97148C7.66071 6.87928 7.66071 6.80311 7.66873 6.74298C7.67274 6.68284 7.68477 6.62672 7.69679 6.58262C7.70882 6.53853 7.72485 6.49844 7.7449 6.46236C7.76494 6.43029 7.80102 6.38619 7.84913 6.34209C7.89723 6.29399 7.98944 6.23386 8.12173 6.1617C8.25402 6.08954 8.41838 6.01738 8.6108 5.94923C8.80323 5.88108 9.0197 5.82095 9.25222 5.77284C9.48473 5.72474 9.72926 5.70068 9.98182 5.70068C10.3827 5.70068 10.7315 5.7528 11.0281 5.85302C11.3288 5.95324 11.5773 6.09355 11.7738 6.27394C11.9702 6.45434 12.1185 6.66681 12.2147 6.91536C12.3109 7.1639 12.3591 7.42848 12.3591 7.71311C12.3591 7.96166 12.335 8.2062 12.2869 8.45073C12.2388 8.69126 12.1386 8.95184 11.9902 9.23245C11.8379 9.51307 11.6294 9.82175 11.3568 10.1585C11.0842 10.4952 10.7235 10.8881 10.2705 11.3371L9.37248 12.2591H12.3991C12.4392 12.2591 12.4753 12.2711 12.5074 12.2952C12.5394 12.3192 12.5715 12.3553 12.5916 12.4034C12.6156 12.4515 12.6317 12.5197 12.6437 12.5999C12.6557 12.68 12.6597 12.7763 12.6597 12.8885L12.6757 12.8965Z" fill="white"/>
</g>
<defs>
<clipPath id="clip0_14_75452">
<rect width="64" height="64" fill="white"/>
</clipPath>
</defs>
</svg>
