<svg width="48" height="49" viewBox="0 0 48 49" fill="none" xmlns="http://www.w3.org/2000/svg">
<rect y="0.25" width="48" height="48" rx="24" fill="#005895"/>
<path d="M19.75 34.25C20.58 34.25 21.25 33.5756 21.25 32.7401C21.25 31.9046 20.58 31.2302 19.75 31.2302C18.92 31.2302 18.25 31.9046 18.25 32.7401C18.25 33.5756 18.92 34.25 19.75 34.25Z" fill="#FBFBFB"/>
<path d="M29.5 34.25C30.33 34.25 31 33.5756 31 32.7401C31 31.9046 30.33 31.2302 29.5 31.2302C28.67 31.2302 28 31.9046 28 32.7401C28 33.5756 28.67 34.25 29.5 34.25Z" fill="#FBFBFB"/>
<path d="M31.41 24.8786L30.56 27.8682C30.47 28.1802 30.28 28.4621 30.02 28.6634C29.76 28.8647 29.44 28.9654 29.11 28.9654H20.13C19.8 28.9654 19.49 28.8647 19.22 28.6634C18.96 28.4621 18.77 28.1903 18.68 27.8682L15.3 15.92C15.25 15.769 15.16 15.6281 15.03 15.5275C14.9 15.4268 14.74 15.3765 14.58 15.3765H13" stroke="#FBFBFB" stroke-width="2" stroke-linecap="round" stroke-linejoin="round"/>
<path d="M16.2188 19.1512H23.9988H25.0988" stroke="#FBFBFB" stroke-width="2" stroke-linecap="round" stroke-linejoin="round"/>
<path d="M31.0113 14.25C28.5313 14.25 26.5312 16.2732 26.5312 18.7595C26.5312 21.2458 28.5313 23.269 31.0113 23.269C33.4813 23.269 35.4812 21.2458 35.4812 18.7595C35.4712 16.2732 33.4713 14.25 31.0113 14.25ZM33.3313 19.5144H31.8012V21.0545C31.8012 21.4773 31.4612 21.8095 31.0512 21.8095C30.6312 21.8095 30.3012 21.4773 30.3012 21.0545V19.5144H28.7613C28.3513 19.5144 28.0113 19.1722 28.0113 18.7595C28.0113 18.3468 28.3513 18.0046 28.7613 18.0046H30.3012V16.4645C30.3012 16.0417 30.6312 15.7095 31.0512 15.7095C31.4612 15.7095 31.8012 16.0417 31.8012 16.4645V18.0046H33.3313C33.7413 18.0046 34.0813 18.3468 34.0813 18.7595C34.0813 19.1722 33.7313 19.5144 33.3313 19.5144Z" fill="#FBFBFB"/>
</svg>
