<svg width="48" height="48" viewBox="0 0 48 48" fill="none" xmlns="http://www.w3.org/2000/svg">
<rect width="48" height="48" rx="24" fill="#005895"/>
<path d="M26.6269 22.9141L22.0042 26.7057L19.9375 24.2863" stroke="#FBFBFB" stroke-width="2.22442" stroke-linecap="round" stroke-linejoin="round"/>
<path d="M26.6867 16.1339C25.6844 15.5098 24.6355 13.9375 23.426 13.9375C22.2165 13.9375 21.2586 15.6791 20.1653 16.1339C19.0719 16.5886 17.2045 15.9984 16.3144 16.8886C15.4242 17.7787 16.0338 19.6074 15.5597 20.7395C15.0856 21.8716 13.3633 22.7907 13.3633 24.0002C13.3633 25.2097 15.1049 26.1676 15.5597 27.2609C16.0144 28.3543 15.4242 30.2217 16.3144 31.1118C17.2045 32.002 19.0332 31.3924 20.1653 31.8665C21.2973 32.3406 22.2165 34.0629 23.426 34.0629C24.6355 34.0629 25.5933 32.3213 26.6867 31.8665C27.78 31.4118 29.6475 32.002 30.5376 31.1118C31.4278 30.2217 31.0588 28.5885 31.2923 27.2609" stroke="#FBFBFB" stroke-width="2.22442" stroke-linecap="round" stroke-linejoin="round"/>
<path d="M31.6686 16.4531C29.3999 16.4531 27.5703 18.304 27.5703 20.5784C27.5703 22.8528 29.3999 24.7036 31.6686 24.7036C33.9281 24.7036 35.7577 22.8528 35.7577 20.5784C35.7486 18.304 33.919 16.4531 31.6686 16.4531ZM33.7909 21.269H32.3913V22.6778C32.3913 23.0646 32.0802 23.3685 31.7052 23.3685C31.321 23.3685 31.0191 23.0646 31.0191 22.6778V21.269H29.6103C29.2352 21.269 28.9242 20.9559 28.9242 20.5784C28.9242 20.2008 29.2352 19.8878 29.6103 19.8878H31.0191V18.4789C31.0191 18.0922 31.321 17.7883 31.7052 17.7883C32.0802 17.7883 32.3913 18.0922 32.3913 18.4789V19.8878H33.7909C34.166 19.8878 34.477 20.2008 34.477 20.5784C34.477 20.9559 34.1568 21.269 33.7909 21.269Z" fill="#F5FAFF"/>
</svg>
