<svg width="32" height="33" viewBox="0 0 32 33" fill="none" xmlns="http://www.w3.org/2000/svg">
<path d="M7.02538 13.5001C7.02372 12.3146 7.25662 11.1405 7.71067 10.0453C8.16472 8.95021 8.83094 7.95573 9.67098 7.11918C10.511 6.28263 11.5083 5.62054 12.6053 5.17105C13.7023 4.72156 14.8774 4.49354 16.0629 4.50014C21.0129 4.53764 24.9754 8.65014 24.9754 13.6126V14.5001C24.9754 18.9751 25.9129 21.5751 26.7379 23.0001C26.8255 23.1519 26.8717 23.324 26.8719 23.4993C26.872 23.6745 26.8261 23.8467 26.7388 23.9986C26.6514 24.1505 26.5257 24.2768 26.3742 24.3648C26.2226 24.4529 26.0506 24.4995 25.8754 24.5001H6.12538C5.95015 24.4995 5.77815 24.4529 5.62662 24.3648C5.47509 24.2768 5.34935 24.1505 5.262 23.9986C5.17465 23.8467 5.12875 23.6745 5.12891 23.4993C5.12906 23.324 5.17526 23.1519 5.26288 23.0001C6.08788 21.5751 7.02538 18.9751 7.02538 14.5001V13.5001Z" stroke="#005895" stroke-width="2.61869" stroke-linecap="round" stroke-linejoin="round"/>
<path d="M12 24.5V25.5C12 26.5609 12.4214 27.5783 13.1716 28.3284C13.9217 29.0786 14.9391 29.5 16 29.5C17.0609 29.5 18.0783 29.0786 18.8284 28.3284C19.5786 27.5783 20 26.5609 20 25.5V24.5" stroke="#005895" stroke-width="2.61869" stroke-linecap="round" stroke-linejoin="round"/>
</svg>
