<svg width="24" height="24" viewBox="0 0 24 24" fill="none" xmlns="http://www.w3.org/2000/svg">
<path fill-rule="evenodd" clip-rule="evenodd" d="M12 4C7.58172 4 4 7.58172 4 12C4 16.4183 7.58172 20 12 20C16.4183 20 20 16.4183 20 12C20 7.58172 16.4183 4 12 4ZM2 12C2 6.47715 6.47715 2 12 2C17.5228 2 22 6.47715 22 12C22 17.5228 17.5228 22 12 22C6.47715 22 2 17.5228 2 12Z" fill="#005895"/>
<path fill-rule="evenodd" clip-rule="evenodd" d="M7.95604 10.1317C8.36655 9.76226 8.99884 9.79553 9.3683 10.206L12 13.1302L14.6317 10.206C15.0012 9.79553 15.6335 9.76226 16.044 10.1317C16.4545 10.5012 16.4878 11.1335 16.1183 11.544L12.7433 15.294C12.5537 15.5047 12.2835 15.625 12 15.625C11.7165 15.625 11.4464 15.5047 11.2567 15.294L7.88171 11.544C7.51226 11.1335 7.54553 10.5012 7.95604 10.1317Z" fill="#005895"/>
</svg>
