<svg width="21" height="20" viewBox="0 0 21 20" fill="none" xmlns="http://www.w3.org/2000/svg">
<g clip-path="url(#clip0_1143_32005)">
<path opacity="0.42" d="M10.5 0C4.97715 0 0.5 4.47715 0.5 10C0.5 15.5228 4.97715 20 10.5 20C16.0228 20 20.5 15.5228 20.5 10C20.4936 4.47982 16.0202 0.00642897 10.5 0Z" fill="#AFDFFF"/>
<path d="M16.2722 6.83313L10.568 14.574C10.432 14.7545 10.2291 14.8727 10.005 14.9022C9.78094 14.9316 9.55441 14.8698 9.37634 14.7306L5.30301 11.474C4.94356 11.1863 4.88536 10.6617 5.17301 10.3023C5.46066 9.94285 5.98523 9.88465 6.34468 10.1723L9.74134 12.8898L14.9305 5.8473C15.1007 5.59195 15.3974 5.45078 15.7029 5.47983C16.0083 5.50887 16.2731 5.70344 16.3921 5.98627C16.5111 6.26911 16.465 6.59445 16.2722 6.83313Z" fill="#3975B5"/>
</g>
<defs>
<clipPath id="clip0_1143_32005">
<rect width="20" height="20" fill="white" transform="translate(0.5)"/>
</clipPath>
</defs>
</svg>
