<svg width="16" height="16" viewBox="0 0 16 16" fill="none" xmlns="http://www.w3.org/2000/svg">
<path fill-rule="evenodd" clip-rule="evenodd" d="M3.16683 3.16634V12.833H12.8335V3.16634H3.16683ZM1.8335 2.99967C1.8335 2.35534 2.35583 1.83301 3.00016 1.83301H13.0002C13.6445 1.83301 14.1668 2.35534 14.1668 2.99967V12.9997C14.1668 13.644 13.6445 14.1663 13.0002 14.1663H3.00016C2.35583 14.1663 1.8335 13.644 1.8335 12.9997V2.99967Z" fill="#005895"/>
<path fill-rule="evenodd" clip-rule="evenodd" d="M11.0002 0.833008C11.3684 0.833008 11.6668 1.13148 11.6668 1.49967V3.49967C11.6668 3.86786 11.3684 4.16634 11.0002 4.16634C10.632 4.16634 10.3335 3.86786 10.3335 3.49967V1.49967C10.3335 1.13148 10.632 0.833008 11.0002 0.833008Z" fill="#005895"/>
<path fill-rule="evenodd" clip-rule="evenodd" d="M5.00065 0.833008C5.36884 0.833008 5.66732 1.13148 5.66732 1.49967V3.49967C5.66732 3.86786 5.36884 4.16634 5.00065 4.16634C4.63246 4.16634 4.33398 3.86786 4.33398 3.49967V1.49967C4.33398 1.13148 4.63246 0.833008 5.00065 0.833008Z" fill="#005895"/>
<path fill-rule="evenodd" clip-rule="evenodd" d="M1.8335 5.50016C1.8335 5.13197 2.13197 4.8335 2.50016 4.8335H13.5002C13.8684 4.8335 14.1668 5.13197 14.1668 5.50016C14.1668 5.86835 13.8684 6.16683 13.5002 6.16683H2.50016C2.13197 6.16683 1.8335 5.86835 1.8335 5.50016Z" fill="#005895"/>
<path fill-rule="evenodd" clip-rule="evenodd" d="M5.08447 8.00016C5.08447 7.63197 5.38295 7.3335 5.75114 7.3335H7.50114C7.75741 7.3335 7.991 7.48039 8.10201 7.71137C8.21302 7.94235 8.18181 8.21651 8.02172 8.41663L7.57543 8.97448C7.69495 9.07498 7.8002 9.19214 7.88772 9.32285C8.04034 9.55077 8.13434 9.81282 8.16139 10.0858C8.18844 10.3587 8.14771 10.6341 8.04281 10.8876C7.93791 11.141 7.77207 11.3646 7.56003 11.5386C7.34798 11.7126 7.09626 11.8316 6.82722 11.885C6.55817 11.9383 6.28011 11.9245 6.0177 11.8447C5.75528 11.7648 5.51663 11.6214 5.32292 11.4272C5.06288 11.1666 5.06339 10.7445 5.32405 10.4844C5.58472 10.2244 6.00683 10.2249 6.26686 10.4856C6.30561 10.5244 6.35334 10.5531 6.40582 10.5691C6.4583 10.585 6.51391 10.5878 6.56772 10.5771C6.62153 10.5664 6.67188 10.5427 6.71429 10.5079C6.7567 10.4731 6.78986 10.4283 6.81084 10.3776C6.83182 10.327 6.83997 10.2719 6.83456 10.2173C6.82915 10.1627 6.81035 10.1103 6.77983 10.0647C6.7493 10.0191 6.708 9.98177 6.65959 9.95598C6.61117 9.93018 6.55714 9.91673 6.50228 9.91683C6.2458 9.91727 6.01182 9.77054 5.90052 9.53947C5.78922 9.3084 5.82034 9.03397 5.98056 8.8337L6.11406 8.66683H5.75114C5.38295 8.66683 5.08447 8.36835 5.08447 8.00016Z" fill="#005895"/>
<path fill-rule="evenodd" clip-rule="evenodd" d="M10.2988 7.40388C10.5247 7.51681 10.6674 7.74765 10.6674 8.00017V11.2502C10.6674 11.6184 10.3689 11.9168 10.0007 11.9168C9.6325 11.9168 9.33402 11.6184 9.33402 11.2502V9.32759C9.04591 9.4944 8.67207 9.42312 8.46736 9.15017C8.24644 8.85562 8.30614 8.43775 8.60069 8.21683L9.60069 7.46683C9.8027 7.31532 10.073 7.29095 10.2988 7.40388Z" fill="#005895"/>
</svg>
