<svg width="24" height="24" viewBox="0 0 24 24" fill="none" xmlns="http://www.w3.org/2000/svg">
<path fill-rule="evenodd" clip-rule="evenodd" d="M4.75 4.75V19.25H19.25V4.75H4.75ZM2.75 4.5C2.75 3.5335 3.5335 2.75 4.5 2.75H19.5C20.4665 2.75 21.25 3.5335 21.25 4.5V19.5C21.25 20.4665 20.4665 21.25 19.5 21.25H4.5C3.5335 21.25 2.75 20.4665 2.75 19.5V4.5Z" fill="#863399"/>
<path fill-rule="evenodd" clip-rule="evenodd" d="M16.5 1.25C17.0523 1.25 17.5 1.69772 17.5 2.25V5.25C17.5 5.80229 17.0523 6.25 16.5 6.25C15.9477 6.25 15.5 5.80229 15.5 5.25V2.25C15.5 1.69772 15.9477 1.25 16.5 1.25Z" fill="#863399"/>
<path fill-rule="evenodd" clip-rule="evenodd" d="M7.5 1.25C8.05228 1.25 8.5 1.69772 8.5 2.25V5.25C8.5 5.80229 8.05228 6.25 7.5 6.25C6.94772 6.25 6.5 5.80229 6.5 5.25V2.25C6.5 1.69772 6.94772 1.25 7.5 1.25Z" fill="#863399"/>
<path fill-rule="evenodd" clip-rule="evenodd" d="M2.75 8.25C2.75 7.69772 3.19772 7.25 3.75 7.25H20.25C20.8023 7.25 21.25 7.69772 21.25 8.25C21.25 8.80228 20.8023 9.25 20.25 9.25H3.75C3.19772 9.25 2.75 8.80228 2.75 8.25Z" fill="#863399"/>
<path fill-rule="evenodd" clip-rule="evenodd" d="M7.625 12C7.625 11.4477 8.07272 11 8.625 11H11.25C11.6344 11 11.9848 11.2203 12.1513 11.5668C12.3178 11.9133 12.271 12.3245 12.0309 12.6247L11.3614 13.4615C11.5407 13.6122 11.6986 13.788 11.8299 13.984C12.0588 14.3259 12.1998 14.719 12.2404 15.1284C12.281 15.5378 12.2199 15.951 12.0625 16.3311C11.9052 16.7113 11.6564 17.0467 11.3383 17.3077C11.0203 17.5687 10.6427 17.7471 10.2391 17.8272C9.83555 17.9073 9.41846 17.8865 9.02484 17.7667C8.63122 17.647 8.27324 17.4319 7.98266 17.1406C7.59261 16.7496 7.59338 16.1165 7.98437 15.7264C8.37537 15.3364 9.00853 15.3371 9.39859 15.7281C9.4567 15.7864 9.5283 15.8294 9.60702 15.8533C9.68574 15.8773 9.76916 15.8814 9.84988 15.8654C9.93059 15.8494 10.0061 15.8137 10.0697 15.7615C10.1333 15.7093 10.1831 15.6423 10.2146 15.5662C10.246 15.4902 10.2582 15.4076 10.2501 15.3257C10.242 15.2438 10.2138 15.1652 10.168 15.0968C10.1222 15.0284 10.0603 14.9724 9.98767 14.9337C9.91505 14.895 9.834 14.8749 9.75171 14.875C9.367 14.8757 9.01602 14.6556 8.84907 14.309C8.68212 13.9624 8.7288 13.5507 8.96913 13.2503L9.16937 13H8.625C8.07272 13 7.625 12.5523 7.625 12Z" fill="#863399"/>
<path fill-rule="evenodd" clip-rule="evenodd" d="M15.4473 11.1056C15.7861 11.275 16.0001 11.6212 16.0001 12V16.875C16.0001 17.4273 15.5523 17.875 15.0001 17.875C14.4478 17.875 14.0001 17.4273 14.0001 16.875V13.9911C13.5679 14.2413 13.0071 14.1344 12.7001 13.725C12.3687 13.2832 12.4582 12.6564 12.9001 12.325L14.4001 11.2C14.7031 10.9727 15.1085 10.9362 15.4473 11.1056Z" fill="#863399"/>
</svg>
