<svg width="25" height="24" viewBox="0 0 25 24" fill="none" xmlns="http://www.w3.org/2000/svg">
<path fill-rule="evenodd" clip-rule="evenodd" d="M5.57812 4.75V19.25H20.0781V4.75H5.57812ZM3.57812 4.5C3.57812 3.5335 4.36163 2.75 5.32812 2.75H20.3281C21.2946 2.75 22.0781 3.5335 22.0781 4.5V19.5C22.0781 20.4665 21.2946 21.25 20.3281 21.25H5.32812C4.36163 21.25 3.57812 20.4665 3.57812 19.5V4.5Z" fill="#094067"/>
<path fill-rule="evenodd" clip-rule="evenodd" d="M17.3281 1.25C17.8804 1.25 18.3281 1.69772 18.3281 2.25V5.25C18.3281 5.80228 17.8804 6.25 17.3281 6.25C16.7758 6.25 16.3281 5.80228 16.3281 5.25V2.25C16.3281 1.69772 16.7758 1.25 17.3281 1.25Z" fill="#094067"/>
<path fill-rule="evenodd" clip-rule="evenodd" d="M8.32812 1.25C8.88041 1.25 9.32812 1.69772 9.32812 2.25V5.25C9.32812 5.80228 8.88041 6.25 8.32812 6.25C7.77584 6.25 7.32812 5.80228 7.32812 5.25V2.25C7.32812 1.69772 7.77584 1.25 8.32812 1.25Z" fill="#094067"/>
<path fill-rule="evenodd" clip-rule="evenodd" d="M3.57812 8.25C3.57812 7.69772 4.02584 7.25 4.57812 7.25H21.0781C21.6304 7.25 22.0781 7.69772 22.0781 8.25C22.0781 8.80228 21.6304 9.25 21.0781 9.25H4.57812C4.02584 9.25 3.57812 8.80228 3.57812 8.25Z" fill="#094067"/>
<path fill-rule="evenodd" clip-rule="evenodd" d="M8.45312 12C8.45312 11.4477 8.90084 11 9.45312 11H12.0781C12.4625 11 12.8129 11.2203 12.9794 11.5668C13.1459 11.9133 13.0991 12.3245 12.859 12.6247L12.1896 13.4615C12.3688 13.6122 12.5267 13.788 12.658 13.984C12.8869 14.3259 13.0279 14.719 13.0685 15.1284C13.1091 15.5379 13.048 15.951 12.8906 16.3311C12.7333 16.7113 12.4845 17.0467 12.1665 17.3077C11.8484 17.5687 11.4708 17.7471 11.0672 17.8272C10.6637 17.9073 10.2466 17.8865 9.85296 17.7667C9.45934 17.647 9.10137 17.4319 8.81079 17.1406C8.42074 16.7496 8.4215 16.1165 8.8125 15.7264C9.20349 15.3364 9.83666 15.3371 10.2267 15.7281C10.2848 15.7864 10.3564 15.8294 10.4351 15.8533C10.5139 15.8773 10.5973 15.8815 10.678 15.8654C10.7587 15.8494 10.8342 15.8137 10.8978 15.7615C10.9615 15.7093 11.0112 15.6423 11.0427 15.5662C11.0742 15.4902 11.0864 15.4076 11.0783 15.3257C11.0701 15.2438 11.0419 15.1652 10.9962 15.0968C10.9504 15.0284 10.8884 14.9724 10.8158 14.9337C10.7432 14.895 10.6621 14.8749 10.5798 14.875C10.1951 14.8757 9.84414 14.6556 9.67719 14.309C9.51024 13.9624 9.55693 13.5507 9.79726 13.2503L9.9975 13H9.45312C8.90084 13 8.45312 12.5523 8.45312 12Z" fill="#094067"/>
<path fill-rule="evenodd" clip-rule="evenodd" d="M16.2754 11.1056C16.6142 11.275 16.8282 11.6212 16.8282 12V16.875C16.8282 17.4273 16.3805 17.875 15.8282 17.875C15.2759 17.875 14.8282 17.4273 14.8282 16.875V13.9911C14.396 14.2413 13.8353 14.1344 13.5282 13.725C13.1968 13.2832 13.2864 12.6564 13.7282 12.325L15.2282 11.2C15.5312 10.9727 15.9366 10.9362 16.2754 11.1056Z" fill="#094067"/>
</svg>
