<svg width="20" height="20" viewBox="0 0 20 20" fill="none" xmlns="http://www.w3.org/2000/svg">
<g id="Icon">
<path id="Vector (Stroke)" fill-rule="evenodd" clip-rule="evenodd" d="M11.6478 2.90953C11.7671 2.46502 12.2242 2.20138 12.6687 2.32068C13.87 2.64308 14.9653 3.27577 15.8448 4.15527C16.7243 5.03476 17.357 6.13012 17.6794 7.3314C17.7987 7.77591 17.5351 8.23296 17.0906 8.35226C16.6461 8.47155 16.189 8.20792 16.0697 7.76341C15.8231 6.84447 15.3391 6.00656 14.6663 5.33378C13.9935 4.661 13.1556 4.17701 12.2367 3.93038C11.7922 3.81109 11.5285 3.35404 11.6478 2.90953Z" fill="#005895"/>
<path id="Vector (Stroke)_2" fill-rule="evenodd" clip-rule="evenodd" d="M10.9988 5.32471C11.117 4.8799 11.5733 4.61507 12.0181 4.7332C12.7977 4.94025 13.5087 5.34969 14.0791 5.92004C14.6494 6.4904 15.0589 7.20139 15.2659 7.98096C15.384 8.42578 15.1192 8.88215 14.6744 9.00028C14.2296 9.11842 13.7732 8.85359 13.6551 8.40877C13.5235 7.91316 13.2632 7.46115 12.9006 7.09855C12.538 6.73596 12.0859 6.47566 11.5903 6.34403C11.1455 6.22589 10.8807 5.76953 10.9988 5.32471Z" fill="#005895"/>
<path id="Vector (Stroke)_3" d="M7.22656 9.75015C7.8697 11.0783 8.94365 12.1495 10.2734 12.7892C10.3715 12.8357 10.48 12.8558 10.5882 12.8475C10.6965 12.8393 10.8007 12.8031 10.8906 12.7423L12.8437 11.4376C12.93 11.3791 13.0298 11.3434 13.1336 11.3338C13.2374 11.3243 13.342 11.3412 13.4375 11.383L17.0937 12.9533C17.2187 13.0053 17.3231 13.0969 17.3909 13.2141C17.4586 13.3313 17.486 13.4675 17.4688 13.6017C17.3529 14.5062 16.9114 15.3375 16.2269 15.94C15.5424 16.5425 14.6619 16.8749 13.75 16.8751C10.9321 16.8751 8.22956 15.7557 6.23699 13.7632C4.24442 11.7706 3.125 9.06807 3.125 6.25015C3.12521 5.33827 3.45767 4.45771 4.06018 3.77324C4.66269 3.08877 5.49395 2.64728 6.39844 2.5314C6.53269 2.51415 6.66888 2.54152 6.78605 2.60928C6.90322 2.67704 6.99486 2.78144 7.04687 2.9064L8.61719 6.57046C8.65802 6.66448 8.67511 6.7671 8.66693 6.86928C8.65876 6.97146 8.62558 7.07006 8.57031 7.1564L7.26562 9.14077C7.20754 9.23053 7.17345 9.33368 7.16661 9.44037C7.15977 9.54705 7.18041 9.65371 7.22656 9.75015Z" stroke="#005895" stroke-width="1.66667" stroke-linecap="round" stroke-linejoin="round"/>
</g>
</svg>
