<svg width="64" height="64" viewBox="0 0 64 64" fill="none" xmlns="http://www.w3.org/2000/svg">
<g clip-path="url(#clip0_14_75475)">
<g opacity="0.2">
<path d="M31.5586 64C49.2317 64 63.5586 49.6731 63.5586 32C63.5586 14.3269 49.2317 0 31.5586 0C13.8855 0 -0.441406 14.3269 -0.441406 32C-0.441406 49.6731 13.8855 64 31.5586 64Z" fill="#7DCFDD"/>
</g>
<path d="M53.2257 14.6626H10.7745C10.672 14.6626 10.5889 14.7457 10.5889 14.8482V47.1778C10.5889 47.2803 10.672 47.3634 10.7745 47.3634H53.2257C53.3282 47.3634 53.4113 47.2803 53.4113 47.1778V14.8482C53.4113 14.7457 53.3282 14.6626 53.2257 14.6626Z" fill="#FAFBFC"/>
<path d="M53.0653 47.9489H10.9341C10.4221 47.9489 10.0029 47.5329 10.0029 47.0177V15.0113C10.0029 14.4993 10.4189 14.0801 10.9341 14.0801H53.0653C53.5773 14.0801 53.9965 14.4961 53.9965 15.0113V47.0209C53.9965 47.5329 53.5805 47.9521 53.0653 47.9521V47.9489ZM52.8285 15.2481H11.1741V46.7809H52.8285V15.2481Z" fill="#6A509A"/>
<path d="M53.6549 21.0176H10.9541V22.4512H53.6549V21.0176Z" fill="#6A509A"/>
<path d="M50.7268 18.4831H35.8468C35.642 18.4831 35.4756 18.3167 35.4756 18.1119C35.4756 17.9071 35.642 17.7407 35.8468 17.7407H50.7268C50.9316 17.7407 51.098 17.9071 51.098 18.1119C51.098 18.3167 50.9316 18.4831 50.7268 18.4831Z" fill="#6A509A"/>
<path d="M16.371 19.2322C16.9895 19.2322 17.491 18.7307 17.491 18.1122C17.491 17.4936 16.9895 16.9922 16.371 16.9922C15.7524 16.9922 15.251 17.4936 15.251 18.1122C15.251 18.7307 15.7524 19.2322 16.371 19.2322Z" fill="#D10000"/>
<path d="M20.0995 19.2322C20.7181 19.2322 21.2195 18.7307 21.2195 18.1122C21.2195 17.4936 20.7181 16.9922 20.0995 16.9922C19.4809 16.9922 18.9795 17.4936 18.9795 18.1122C18.9795 18.7307 19.4809 19.2322 20.0995 19.2322Z" fill="#FFE100"/>
<path d="M23.827 19.2322C24.4456 19.2322 24.947 18.7307 24.947 18.1122C24.947 17.4936 24.4456 16.9922 23.827 16.9922C23.2085 16.9922 22.707 17.4936 22.707 18.1122C22.707 18.7307 23.2085 19.2322 23.827 19.2322Z" fill="#82C55B"/>
<path d="M42.3201 30.6274H21.8945V39.2418H42.3201V30.6274Z" fill="#3379AA"/>
<g style="mix-blend-mode:multiply" opacity="0.25">
<path d="M52.8258 15.0527H49.8818V47.2319H52.8258V15.0527Z" fill="#E0D4FF"/>
</g>
<g opacity="0.39">
<path d="M42.3141 30.624H40.8613V39.2352H42.3141V30.624Z" fill="#316889"/>
</g>
<path d="M29.2484 47.3311L28.9828 46.4319C28.7972 45.8015 27.8212 44.2975 26.9028 44.5631C26.9028 44.5631 25.4404 44.9375 26.0228 46.6399C26.2436 47.2831 27.178 49.1039 27.178 49.1039C27.2772 49.3151 27.3604 49.5327 27.4212 49.7567C27.658 50.6271 27.8276 51.5135 28.0292 52.3903C28.5764 54.7647 30.6692 56.5727 33.2228 56.6623L33.4116 56.6687C36.4644 56.7775 39.0244 54.3903 39.13 51.3375L38.9668 48.2463L39.0308 46.1791C39.018 45.3215 38.5028 44.7967 37.9204 44.7807C37.6004 44.7711 36.954 44.8511 36.8868 45.9967C36.9092 45.6095 36.8804 46.0895 36.8868 45.9967L36.8484 47.5967H36.762L36.8324 44.5503C36.89 43.8847 36.4516 43.2351 35.7892 43.1455C35.4276 43.0975 35.098 43.2095 34.8452 43.4207C34.6084 43.6191 34.442 43.9071 34.4132 44.2431L34.3236 47.5135L34.234 47.5071L34.3108 43.1583C34.3716 42.4831 33.8788 41.8943 33.2068 41.8399C32.874 41.8047 32.5604 41.9135 32.3172 42.1151C32.074 42.3167 31.9172 42.6047 31.8884 42.9439L31.7988 47.4207H31.7092L31.8628 39.1263C31.9204 38.4607 31.4276 37.8719 30.7588 37.8079C30.426 37.7823 30.1124 37.8911 29.8724 38.0895C29.6324 38.2879 29.4692 38.5855 29.4404 38.9119L29.2772 47.3279" fill="#F8FCFE"/>
<path d="M29.2484 47.3311L28.9828 46.4319C28.7972 45.8015 27.8212 44.2975 26.9028 44.5631C26.9028 44.5631 25.4404 44.9375 26.0228 46.6399C26.2436 47.2831 27.178 49.1039 27.178 49.1039C27.2772 49.3151 27.3604 49.5327 27.4212 49.7567C27.658 50.6271 27.8276 51.5135 28.0292 52.3903C28.5764 54.7647 30.6692 56.5727 33.2228 56.6623L33.4116 56.6687C36.4644 56.7775 39.0244 54.3903 39.13 51.3375L38.9668 48.2463L39.0308 46.1791C39.018 45.3215 38.5028 44.7967 37.9204 44.7807C37.6004 44.7711 36.954 44.8511 36.8868 45.9967C36.9092 45.6095 36.8804 46.0895 36.8868 45.9967L36.8484 47.5967H36.762L36.8324 44.5503C36.89 43.8847 36.4516 43.2351 35.7892 43.1455C35.4276 43.0975 35.098 43.2095 34.8452 43.4207C34.6084 43.6191 34.442 43.9071 34.4132 44.2431L34.3236 47.5135L34.234 47.5071L34.3108 43.1583C34.3716 42.4831 33.8788 41.8943 33.2068 41.8399C32.874 41.8047 32.5604 41.9135 32.3172 42.1151C32.074 42.3167 31.9172 42.6047 31.8884 42.9439L31.7988 47.4207H31.7092L31.8628 39.1263C31.9204 38.4607 31.4276 37.8719 30.7588 37.8079C30.426 37.7823 30.1124 37.8911 29.8724 38.0895C29.6324 38.2879 29.4692 38.5855 29.4404 38.9119L29.2772 47.3279" fill="#FBE6D1"/>
<g style="mix-blend-mode:multiply">
<path d="M37.5551 44.8095C37.5551 44.8095 38.3519 54.7391 34.0127 56.1087C34.0127 56.1087 36.8255 56.2143 38.3743 53.1615C38.3743 53.1615 39.0815 51.9583 38.8255 50.2303C38.8255 50.2303 38.6591 47.6735 38.7359 47.1775C38.7359 47.1775 39.2255 44.1311 37.5551 44.8095Z" fill="#FBE6D1"/>
</g>
<path d="M33.6869 56.6114C33.6229 56.6114 33.5557 56.6114 33.4917 56.6114L33.3029 56.605C30.7173 56.5218 28.5029 54.7074 27.9173 52.1954C27.8501 51.9074 27.7861 51.6162 27.7221 51.325C27.5941 50.7458 27.4629 50.1474 27.3029 49.5682C27.2485 49.3666 27.1717 49.165 27.0693 48.9474C27.0341 48.8802 26.1221 47.117 25.8981 46.4674C25.6901 45.8626 25.6997 45.3378 25.9269 44.9122C26.2469 44.3138 26.8805 44.1442 26.9061 44.1378C27.8725 43.8562 28.8453 45.1714 29.1621 45.9522L29.2869 38.6626C29.3189 38.2786 29.4981 37.9362 29.7861 37.693C30.0709 37.453 30.4357 37.3378 30.8101 37.3634C31.5877 37.437 32.1637 38.1218 32.0965 38.8898L32.0485 41.9074C32.1061 41.837 32.1669 41.773 32.2373 41.7122C32.5285 41.4658 32.8965 41.3474 33.2709 41.389C33.6421 41.4178 33.9813 41.5906 34.2245 41.8786C34.4677 42.1666 34.5861 42.5346 34.5541 42.9154L34.5477 43.245C34.6117 43.1586 34.6853 43.0818 34.7685 43.0114C35.0789 42.7522 35.4661 42.637 35.8629 42.6914C36.6021 42.7906 37.1461 43.5138 37.0757 44.3042L37.0661 44.7138C37.2773 44.4482 37.5877 44.3074 37.9749 44.3234C38.6085 44.3394 39.2613 44.8866 39.2773 45.9106L39.2197 47.9874L39.3893 51.0626C39.3413 52.6082 38.7013 54.0258 37.5845 55.0722C36.5157 56.0738 35.1365 56.6178 33.6805 56.6178L33.6869 56.6114ZM27.1813 44.4866C27.1237 44.4866 27.0661 44.493 27.0117 44.5122C27.0021 44.5122 26.5061 44.653 26.2693 45.101C26.0965 45.4274 26.0965 45.8434 26.2693 46.3426C26.4837 46.9634 27.4117 48.7586 27.4213 48.7778C27.5365 49.021 27.6197 49.245 27.6805 49.469C27.8405 50.0578 27.9749 50.6594 28.1029 51.245C28.1669 51.533 28.2309 51.821 28.2981 52.109C28.8421 54.4482 30.9093 56.141 33.3189 56.2178L33.5077 56.2242C34.9317 56.2754 36.2885 55.7602 37.3285 54.7874C38.3685 53.8114 38.9669 52.493 39.0085 51.069L38.8389 47.9938L38.8965 45.9106C38.8837 45.1426 38.4229 44.7266 37.9717 44.7138C37.7829 44.7138 37.2005 44.6978 37.1397 45.7474L37.1045 47.341C37.1045 47.3922 37.0821 47.4434 37.0437 47.4786C37.0053 47.5138 36.9509 47.5298 36.9029 47.533H36.8197C36.7141 47.5266 36.6277 47.4402 36.6309 47.3314L36.6917 44.2882C36.7429 43.6898 36.3493 43.1522 35.8149 43.0818C35.5269 43.0402 35.2485 43.1266 35.0213 43.3154C34.8101 43.4914 34.6821 43.7378 34.6597 44.0066L34.5797 47.2642C34.5797 47.3186 34.5541 47.3698 34.5157 47.405C34.4773 47.4402 34.4229 47.4594 34.3685 47.453L34.2789 47.4466C34.1765 47.437 34.0997 47.3506 34.0997 47.2482L34.1669 42.8994C34.1925 42.6082 34.1061 42.3426 33.9301 42.1346C33.7541 41.9266 33.5077 41.8018 33.2389 41.7826C32.9637 41.7538 32.7013 41.837 32.4901 42.0162C32.2821 42.1922 32.1573 42.4386 32.1317 42.7138L32.0549 47.1778C32.0549 47.2834 31.9685 47.3666 31.8661 47.3698H31.7765C31.7253 47.3698 31.6709 47.3538 31.6357 47.3154C31.6005 47.277 31.5781 47.2258 31.5781 47.1746L31.7093 38.877C31.7573 38.3074 31.3413 37.8114 30.7781 37.757C30.5157 37.7346 30.2437 37.821 30.0357 37.997C29.8245 38.173 29.6965 38.4194 29.6741 38.6882L29.5333 47.0914C29.5333 47.1874 29.4629 47.2642 29.3701 47.2802C29.3701 47.2802 29.3669 47.2802 29.3637 47.2802C29.2581 47.309 29.1525 47.2514 29.1205 47.149L28.8517 46.2498C28.6821 45.677 27.8885 44.493 27.1781 44.493L27.1813 44.4866Z" fill="#6A509A"/>
<path d="M27.6515 36.2946C27.6707 36.3522 27.6835 36.397 27.6867 36.429C27.6931 36.461 27.6867 36.4866 27.6675 36.5026C27.6515 36.5186 27.6195 36.5282 27.5747 36.5346C27.5299 36.5378 27.4691 36.541 27.3923 36.541C27.3155 36.541 27.2483 36.541 27.2067 36.5378C27.1619 36.5378 27.1267 36.5314 27.1043 36.525C27.0819 36.5186 27.0659 36.509 27.0563 36.4962C27.0467 36.4834 27.0403 36.4674 27.0339 36.4482L26.8291 35.837H25.6867L25.4947 36.4322C25.4883 36.4546 25.4787 36.4738 25.4691 36.4866C25.4595 36.5026 25.4435 36.5122 25.4211 36.5218C25.3987 36.5314 25.3667 36.5378 25.3251 36.541C25.2835 36.541 25.2291 36.5442 25.1619 36.5442C25.0883 36.5442 25.0339 36.5442 24.9923 36.5378C24.9507 36.5314 24.9219 36.5218 24.9091 36.5026C24.8931 36.4834 24.8867 36.4578 24.8931 36.4258C24.8963 36.3938 24.9091 36.349 24.9283 36.2946L25.8659 33.5938C25.8755 33.5682 25.8851 33.5458 25.8979 33.5298C25.9107 33.5138 25.9299 33.501 25.9587 33.4914C25.9875 33.4818 26.0259 33.4786 26.0739 33.4754C26.1219 33.4754 26.1859 33.4722 26.2659 33.4722C26.3587 33.4722 26.4323 33.4722 26.4867 33.4754C26.5411 33.4754 26.5859 33.4818 26.6147 33.4914C26.6467 33.501 26.6691 33.5138 26.6819 33.5298C26.6947 33.5458 26.7075 33.5714 26.7171 33.6002L27.6579 36.2978L27.6515 36.2946ZM26.2531 34.061L25.8211 35.3538H26.6851L26.2563 34.061H26.2531Z" fill="white"/>
<path d="M30.1281 36.064C30.1281 36.1024 30.1281 36.1376 30.1249 36.1632C30.1217 36.1888 30.1185 36.2144 30.1153 36.2336C30.1121 36.2528 30.1057 36.2688 30.0961 36.2848C30.0897 36.2976 30.0769 36.3136 30.0577 36.3328C30.0417 36.352 30.0065 36.3744 29.9585 36.4032C29.9105 36.432 29.8497 36.4576 29.7761 36.4832C29.7057 36.5088 29.6225 36.5312 29.5297 36.5472C29.4369 36.5632 29.3377 36.5728 29.2321 36.5728C29.0241 36.5728 28.8353 36.5408 28.6657 36.4768C28.4993 36.4128 28.3553 36.3168 28.2369 36.1888C28.1185 36.0608 28.0289 35.9008 27.9649 35.7088C27.9009 35.5168 27.8721 35.296 27.8721 35.04C27.8721 34.784 27.9073 34.5504 27.9745 34.3488C28.0449 34.1472 28.1409 33.9808 28.2657 33.8432C28.3905 33.7056 28.5377 33.6032 28.7105 33.5328C28.8833 33.4624 29.0753 33.4272 29.2833 33.4272C29.3665 33.4272 29.4497 33.4336 29.5297 33.4496C29.6065 33.4656 29.6801 33.4816 29.7473 33.504C29.8145 33.5264 29.8753 33.552 29.9265 33.584C29.9809 33.6128 30.0161 33.6384 30.0385 33.6608C30.0609 33.6832 30.0737 33.6992 30.0833 33.7152C30.0897 33.728 30.0961 33.7472 30.1025 33.7696C30.1089 33.792 30.1121 33.8176 30.1121 33.8464C30.1121 33.8752 30.1153 33.9136 30.1153 33.9584C30.1153 34.0064 30.1153 34.0448 30.1121 34.08C30.1089 34.1152 30.1025 34.1408 30.0961 34.16C30.0897 34.1792 30.0801 34.1952 30.0673 34.2048C30.0545 34.2144 30.0449 34.2176 30.0289 34.2176C30.0065 34.2176 29.9745 34.2048 29.9393 34.176C29.9041 34.1472 29.8561 34.1184 29.7985 34.0832C29.7409 34.048 29.6737 34.0192 29.5937 33.9904C29.5137 33.9616 29.4209 33.9488 29.3089 33.9488C29.1873 33.9488 29.0817 33.9744 28.9857 34.0224C28.8897 34.0704 28.8097 34.144 28.7425 34.2336C28.6753 34.3264 28.6241 34.4352 28.5889 34.5664C28.5537 34.6976 28.5377 34.8416 28.5377 35.0048C28.5377 35.184 28.5569 35.3376 28.5921 35.4688C28.6273 35.6 28.6817 35.7088 28.7489 35.792C28.8161 35.8752 28.8993 35.9392 28.9953 35.9808C29.0913 36.0224 29.2001 36.0416 29.3217 36.0416C29.4305 36.0416 29.5265 36.0288 29.6065 36.0032C29.6865 35.9776 29.7537 35.9488 29.8113 35.9168C29.8689 35.8848 29.9169 35.856 29.9521 35.8336C29.9873 35.8112 30.0161 35.7952 30.0385 35.7952C30.0545 35.7952 30.0673 35.7952 30.0769 35.8048C30.0865 35.8112 30.0929 35.824 30.0993 35.8432C30.1057 35.8624 30.1089 35.888 30.1121 35.9232C30.1121 35.9584 30.1153 36.0032 30.1153 36.0576L30.1281 36.064Z" fill="white"/>
<path d="M32.6238 33.7342C32.6238 33.779 32.6238 33.8174 32.6174 33.8494C32.6142 33.8814 32.6078 33.907 32.6014 33.9262C32.595 33.9454 32.5822 33.9614 32.5726 33.971C32.5598 33.9806 32.547 33.9838 32.5342 33.9838H31.7726V36.4382C31.7726 36.4382 31.7662 36.467 31.7566 36.4798C31.747 36.4926 31.731 36.5022 31.7054 36.5118C31.6798 36.5214 31.651 36.5246 31.6094 36.531C31.5678 36.5342 31.5198 36.5374 31.459 36.5374C31.3982 36.5374 31.3502 36.5374 31.3086 36.531C31.2702 36.5246 31.2382 36.5214 31.2126 36.5118C31.187 36.5022 31.171 36.4926 31.1614 36.4798C31.1518 36.467 31.1454 36.4542 31.1454 36.4382V33.9838H30.3838C30.3838 33.9838 30.355 33.9774 30.3422 33.971C30.3326 33.9614 30.323 33.9486 30.3134 33.9262C30.3038 33.9038 30.3006 33.8814 30.2974 33.8494C30.2942 33.8174 30.291 33.779 30.291 33.7342C30.291 33.6894 30.291 33.6478 30.2974 33.6158C30.3006 33.5838 30.307 33.555 30.3134 33.5358C30.3198 33.5166 30.3294 33.5038 30.3422 33.4942C30.3518 33.4846 30.3678 33.4814 30.3838 33.4814H32.531C32.531 33.4814 32.5566 33.4846 32.5694 33.4942C32.5822 33.5038 32.5918 33.5166 32.5982 33.5358C32.6046 33.555 32.611 33.5806 32.6142 33.6158C32.6174 33.6478 32.6206 33.6894 32.6206 33.7342H32.6238Z" fill="white"/>
<path d="M33.6035 36.4384C33.6035 36.4384 33.5971 36.4672 33.5875 36.48C33.5779 36.4928 33.5619 36.5024 33.5363 36.512C33.5107 36.5216 33.4819 36.5248 33.4435 36.5312C33.4051 36.5344 33.3539 36.5376 33.2931 36.5376C33.2323 36.5376 33.1843 36.5376 33.1427 36.5312C33.1043 36.5248 33.0723 36.5216 33.0467 36.512C33.0211 36.5024 33.0051 36.4928 32.9955 36.48C32.9859 36.4672 32.9795 36.4544 32.9795 36.4384V33.5616C32.9795 33.5616 32.9859 33.5328 32.9955 33.52C33.0051 33.5072 33.0243 33.4976 33.0467 33.488C33.0723 33.4816 33.1043 33.4752 33.1427 33.4688C33.1811 33.4656 33.2323 33.4624 33.2899 33.4624C33.3475 33.4624 33.4019 33.4624 33.4403 33.4688C33.4787 33.4752 33.5107 33.4784 33.5331 33.488C33.5555 33.4944 33.5747 33.5072 33.5843 33.52C33.5939 33.5328 33.6003 33.5456 33.6003 33.5616V36.4384H33.6035Z" fill="white"/>
<path d="M37.0085 34.9665C37.0085 35.2193 36.9765 35.4465 36.9157 35.6449C36.8549 35.8433 36.7589 36.0129 36.6341 36.1505C36.5093 36.2881 36.3557 36.3969 36.1733 36.4673C35.9909 36.5409 35.7797 36.5761 35.5397 36.5761C35.2997 36.5761 35.0949 36.5441 34.9189 36.4833C34.7429 36.4225 34.5957 36.3265 34.4773 36.1985C34.3589 36.0705 34.2725 35.9105 34.2117 35.7153C34.1541 35.5201 34.1221 35.2865 34.1221 35.0177C34.1221 34.7713 34.1541 34.5505 34.2149 34.3521C34.2757 34.1537 34.3717 33.9873 34.4933 33.8497C34.6149 33.7121 34.7717 33.6065 34.9541 33.5329C35.1365 33.4593 35.3477 33.4209 35.5909 33.4209C35.8341 33.4209 36.0261 33.4529 36.2021 33.5137C36.3781 33.5745 36.5253 33.6673 36.6437 33.7953C36.7621 33.9233 36.8517 34.0833 36.9125 34.2753C36.9733 34.4673 37.0021 34.6977 37.0021 34.9601L37.0085 34.9665ZM36.3589 34.9985C36.3589 34.8385 36.3461 34.6913 36.3205 34.5601C36.2949 34.4289 36.2533 34.3169 36.1925 34.2241C36.1317 34.1313 36.0517 34.0577 35.9525 34.0065C35.8533 33.9553 35.7253 33.9297 35.5749 33.9297C35.4245 33.9297 35.2965 33.9585 35.1941 34.0161C35.0917 34.0737 35.0085 34.1505 34.9477 34.2465C34.8869 34.3425 34.8389 34.4545 34.8133 34.5825C34.7877 34.7105 34.7749 34.8449 34.7749 34.9889C34.7749 35.1553 34.7877 35.3057 34.8133 35.4369C34.8389 35.5681 34.8805 35.6833 34.9413 35.7761C35.0021 35.8689 35.0821 35.9425 35.1813 35.9905C35.2805 36.0385 35.4085 36.0641 35.5589 36.0641C35.7093 36.0641 35.8373 36.0353 35.9397 35.9809C36.0421 35.9233 36.1253 35.8465 36.1861 35.7505C36.2469 35.6545 36.2949 35.5393 36.3205 35.4113C36.3461 35.2833 36.3589 35.1425 36.3589 34.9985Z" fill="white"/>
<path d="M40.0389 36.3074C40.0389 36.3426 40.0325 36.3746 40.0197 36.4034C40.0069 36.4322 39.9909 36.4546 39.9685 36.4738C39.9461 36.493 39.9237 36.5058 39.8917 36.5154C39.8629 36.525 39.8341 36.5282 39.8021 36.5282H39.5397C39.4853 36.5282 39.4373 36.5218 39.3957 36.5122C39.3541 36.5026 39.3189 36.4802 39.2837 36.4514C39.2485 36.4226 39.2165 36.3842 39.1845 36.333C39.1525 36.285 39.1173 36.221 39.0789 36.141L38.3205 34.717C38.2757 34.6338 38.2309 34.541 38.1861 34.4418C38.1413 34.3426 38.0997 34.2498 38.0645 34.157H38.0581C38.0645 34.269 38.0677 34.381 38.0741 34.493C38.0741 34.605 38.0773 34.7202 38.0773 34.8386V36.4322C38.0773 36.4322 38.0741 36.461 38.0645 36.4738C38.0549 36.4866 38.0421 36.4962 38.0197 36.5058C37.9973 36.5154 37.9685 36.5218 37.9333 36.525C37.8981 36.5282 37.8501 36.5314 37.7957 36.5314C37.7413 36.5314 37.6965 36.5314 37.6581 36.525C37.6229 36.5186 37.5941 36.5122 37.5749 36.5058C37.5557 36.4962 37.5397 36.4866 37.5333 36.4738C37.5269 36.461 37.5205 36.4482 37.5205 36.4322V33.6962C37.5205 33.6226 37.5429 33.5682 37.5845 33.5298C37.6293 33.4914 37.6805 33.4754 37.7445 33.4754H38.0773C38.1381 33.4754 38.1861 33.4818 38.2277 33.4914C38.2693 33.501 38.3045 33.517 38.3365 33.5426C38.3685 33.565 38.3973 33.6002 38.4261 33.6418C38.4549 33.6834 38.4837 33.7346 38.5125 33.7954L39.1045 34.909C39.1397 34.9762 39.1749 35.0434 39.2069 35.1074C39.2421 35.1714 39.2741 35.2386 39.3061 35.3026C39.3381 35.3666 39.3669 35.4306 39.3989 35.4946C39.4277 35.5586 39.4565 35.6194 39.4853 35.6834C39.4821 35.5746 39.4757 35.4594 39.4757 35.341C39.4757 35.2226 39.4725 35.1074 39.4725 34.9986V33.5714C39.4725 33.5714 39.4757 33.5426 39.4853 33.5298C39.4949 33.517 39.5109 33.5074 39.5333 33.4978C39.5557 33.4882 39.5845 33.4818 39.6197 33.4786C39.6549 33.4754 39.7029 33.4722 39.7573 33.4722C39.8117 33.4722 39.8565 33.4722 39.8917 33.4786C39.9269 33.4818 39.9557 33.4882 39.9749 33.4978C39.9941 33.5074 40.0069 33.517 40.0165 33.5298C40.0261 33.5426 40.0293 33.5554 40.0293 33.5714V36.3074H40.0389Z" fill="white"/>
<path d="M20 10C20 4.47715 15.5228 0 10 0C4.47715 0 0 4.47715 0 10C0 15.5228 4.47715 20 10 20C15.5228 20 20 15.5228 20 10Z" fill="#6A509A"/>
<path d="M12.6081 12.9367C12.6081 13.0489 12.6041 13.1411 12.5921 13.2173C12.5801 13.2935 12.564 13.3576 12.54 13.4017C12.5199 13.4458 12.4919 13.4819 12.4638 13.4979C12.4358 13.518 12.4037 13.526 12.3676 13.526H8.12627C8.0942 13.526 8.06614 13.518 8.03808 13.4979C8.01002 13.4779 7.98596 13.4458 7.96191 13.4017C7.94187 13.3576 7.92182 13.2935 7.9138 13.2173C7.90178 13.1411 7.89777 13.0449 7.89777 12.9367C7.89777 12.8284 7.90178 12.7242 7.9138 12.648C7.92583 12.5719 7.93786 12.5077 7.96191 12.4596C7.98195 12.4115 8.01002 12.3795 8.03808 12.3554C8.06614 12.3354 8.09821 12.3233 8.13429 12.3233H9.56544V7.32434L8.33072 8.00584C8.23852 8.04993 8.16636 8.078 8.10623 8.08601C8.0501 8.09403 8.002 8.08601 7.96993 8.04993C7.93786 8.01385 7.9138 7.95773 7.90178 7.87355C7.88975 7.78936 7.88574 7.67311 7.88574 7.52478C7.88574 7.42857 7.88574 7.3524 7.88975 7.29227C7.88975 7.23214 7.90178 7.18002 7.91781 7.13592C7.93385 7.09183 7.95389 7.05575 7.98195 7.02769C8.01002 6.99962 8.0461 6.97156 8.0942 6.93949L9.74583 5.86914C9.74583 5.86914 9.78993 5.84107 9.81799 5.82905C9.84605 5.81702 9.88614 5.81301 9.93425 5.805C9.98236 5.80099 10.0425 5.79698 10.1227 5.79297C10.1988 5.79297 10.2991 5.79297 10.4233 5.79297C10.5757 5.79297 10.6959 5.79297 10.7881 5.80099C10.8803 5.805 10.9525 5.81702 11.0006 5.82905C11.0487 5.84508 11.0808 5.86112 11.0968 5.88517C11.1128 5.90922 11.1209 5.93729 11.1209 5.97337V12.3193H12.3716C12.4077 12.3193 12.4398 12.3314 12.4678 12.3514C12.4959 12.3714 12.5239 12.4075 12.544 12.4556C12.564 12.5037 12.5801 12.5639 12.5921 12.644C12.6041 12.7202 12.6081 12.8164 12.6081 12.9327V12.9367Z" fill="white"/>
</g>
<defs>
<clipPath id="clip0_14_75475">
<rect width="64" height="64" fill="white"/>
</clipPath>
</defs>
</svg>
