<svg width="175" height="48" viewBox="0 0 175 48" fill="none" xmlns="http://www.w3.org/2000/svg">
<rect width="175" height="48" rx="24" fill="#005895"/>
<path d="M31.75 35C32.58 35 33.25 34.3256 33.25 33.4901C33.25 32.6546 32.58 31.9802 31.75 31.9802C30.92 31.9802 30.25 32.6546 30.25 33.4901C30.25 34.3256 30.92 35 31.75 35Z" fill="#FBFBFB"/>
<path d="M41.5 35C42.33 35 43 34.3256 43 33.4901C43 32.6546 42.33 31.9802 41.5 31.9802C40.67 31.9802 40 32.6546 40 33.4901C40 34.3256 40.67 35 41.5 35Z" fill="#FBFBFB"/>
<path d="M43.41 25.6287L42.56 28.6183C42.47 28.9303 42.28 29.2121 42.02 29.4135C41.76 29.6148 41.44 29.7154 41.11 29.7154H32.13C31.8 29.7154 31.49 29.6148 31.22 29.4135C30.96 29.2121 30.77 28.9404 30.68 28.6183L27.3 16.6701C27.25 16.5191 27.16 16.3782 27.03 16.2775C26.9 16.1769 26.74 16.1265 26.58 16.1265H25" stroke="#FBFBFB" stroke-width="2" stroke-linecap="round" stroke-linejoin="round"/>
<path d="M28.2188 19.9012H35.9988H37.0988" stroke="#FBFBFB" stroke-width="2" stroke-linecap="round" stroke-linejoin="round"/>
<path d="M43.0113 15C40.5313 15 38.5312 17.0232 38.5312 19.5095C38.5312 21.9958 40.5313 24.019 43.0113 24.019C45.4813 24.019 47.4812 21.9958 47.4812 19.5095C47.4712 17.0232 45.4713 15 43.0113 15ZM45.3313 20.2644H43.8012V21.8045C43.8012 22.2273 43.4612 22.5595 43.0512 22.5595C42.6312 22.5595 42.3012 22.2273 42.3012 21.8045V20.2644H40.7613C40.3513 20.2644 40.0113 19.9222 40.0113 19.5095C40.0113 19.0968 40.3513 18.7546 40.7613 18.7546H42.3012V17.2145C42.3012 16.7917 42.6312 16.4595 43.0512 16.4595C43.4612 16.4595 43.8012 16.7917 43.8012 17.2145V18.7546H45.3313C45.7413 18.7546 46.0813 19.0968 46.0813 19.5095C46.0813 19.9222 45.7313 20.2644 45.3313 20.2644Z" fill="#FBFBFB"/>
<path d="M67.8848 29.043C67.9629 29.2773 68.0117 29.4629 68.0312 29.5996C68.0508 29.7363 68.0247 29.8405 67.9531 29.9121C67.8815 29.9772 67.7546 30.0163 67.5723 30.0293C67.39 30.0488 67.1393 30.0586 66.8203 30.0586C66.4883 30.0586 66.2279 30.0521 66.0391 30.0391C65.8568 30.0326 65.7168 30.0163 65.6191 29.9902C65.5215 29.9577 65.4531 29.9154 65.4141 29.8633C65.375 29.8112 65.3424 29.7428 65.3164 29.6582L64.4668 27.1191H59.7207L58.9199 29.5898C58.8939 29.681 58.8581 29.7591 58.8125 29.8242C58.7734 29.8828 58.7051 29.9316 58.6074 29.9707C58.5163 30.0033 58.3828 30.026 58.207 30.0391C58.0378 30.0521 57.8132 30.0586 57.5332 30.0586C57.2337 30.0586 56.9993 30.0488 56.8301 30.0293C56.6608 30.0098 56.5436 29.9642 56.4785 29.8926C56.4134 29.8145 56.3906 29.707 56.4102 29.5703C56.4297 29.4336 56.4785 29.2513 56.5566 29.0234L60.4531 17.8125C60.4922 17.7018 60.5378 17.6139 60.5898 17.5488C60.6419 17.4772 60.7233 17.4251 60.834 17.3926C60.9512 17.3535 61.1107 17.3307 61.3125 17.3242C61.5143 17.3112 61.7812 17.3047 62.1133 17.3047C62.4974 17.3047 62.8034 17.3112 63.0312 17.3242C63.2591 17.3307 63.4349 17.3535 63.5586 17.3926C63.6888 17.4251 63.7799 17.4772 63.832 17.5488C63.8906 17.6204 63.9395 17.7181 63.9785 17.8418L67.8848 29.043ZM62.084 19.7754H62.0742L60.2871 25.1465H63.8711L62.084 19.7754ZM77.7773 29.668C77.7773 29.7396 77.7611 29.8014 77.7285 29.8535C77.696 29.8991 77.6406 29.9382 77.5625 29.9707C77.4844 30.0033 77.377 30.026 77.2402 30.0391C77.11 30.0521 76.9473 30.0586 76.752 30.0586C76.5436 30.0586 76.3743 30.0521 76.2441 30.0391C76.1139 30.026 76.0065 30.0033 75.9219 29.9707C75.8438 29.9382 75.7852 29.8991 75.7461 29.8535C75.7135 29.8014 75.6973 29.7396 75.6973 29.668V28.7012C75.248 29.1829 74.776 29.5573 74.2812 29.8242C73.793 30.0911 73.2493 30.2246 72.6504 30.2246C71.9863 30.2246 71.4232 30.0977 70.9609 29.8438C70.5052 29.5833 70.1309 29.235 69.8379 28.7988C69.5514 28.3626 69.3431 27.8548 69.2129 27.2754C69.0827 26.6895 69.0176 26.0742 69.0176 25.4297C69.0176 24.6549 69.099 23.9583 69.2617 23.3398C69.431 22.7214 69.6751 22.194 69.9941 21.7578C70.3132 21.3216 70.7103 20.9863 71.1855 20.752C71.6608 20.5176 72.2077 20.4004 72.8262 20.4004C73.3145 20.4004 73.7572 20.5013 74.1543 20.7031C74.5514 20.8984 74.9453 21.1882 75.3359 21.5723V16.8555C75.3359 16.7904 75.3522 16.7318 75.3848 16.6797C75.4238 16.6276 75.4889 16.5853 75.5801 16.5527C75.6777 16.5137 75.8047 16.4844 75.9609 16.4648C76.1172 16.4453 76.3158 16.4355 76.5566 16.4355C76.7975 16.4355 76.9961 16.4453 77.1523 16.4648C77.3086 16.4844 77.4323 16.5137 77.5234 16.5527C77.6146 16.5853 77.6797 16.6276 77.7188 16.6797C77.7578 16.7318 77.7773 16.7904 77.7773 16.8555V29.668ZM75.3359 23.8477C74.9844 23.4049 74.6458 23.0664 74.3203 22.832C74.0013 22.5977 73.666 22.4805 73.3145 22.4805C72.9954 22.4805 72.7188 22.5618 72.4844 22.7246C72.2565 22.8809 72.071 23.0924 71.9277 23.3594C71.791 23.6263 71.6868 23.9258 71.6152 24.2578C71.5501 24.5833 71.5176 24.9186 71.5176 25.2637C71.5176 25.6283 71.5469 25.9831 71.6055 26.3281C71.6641 26.6732 71.7585 26.9824 71.8887 27.2559C72.0254 27.5228 72.2044 27.7376 72.4258 27.9004C72.6471 28.0632 72.9271 28.1445 73.2656 28.1445C73.4349 28.1445 73.5977 28.1217 73.7539 28.0762C73.9167 28.0241 74.0794 27.9427 74.2422 27.832C74.4115 27.7214 74.584 27.5781 74.7598 27.4023C74.9355 27.2201 75.1276 26.9987 75.3359 26.7383V23.8477ZM88.5195 29.668C88.5195 29.7396 88.5033 29.8014 88.4707 29.8535C88.4382 29.8991 88.3828 29.9382 88.3047 29.9707C88.2266 30.0033 88.1191 30.026 87.9824 30.0391C87.8522 30.0521 87.6895 30.0586 87.4941 30.0586C87.2858 30.0586 87.1165 30.0521 86.9863 30.0391C86.8561 30.026 86.7487 30.0033 86.6641 29.9707C86.5859 29.9382 86.5273 29.8991 86.4883 29.8535C86.4557 29.8014 86.4395 29.7396 86.4395 29.668V28.7012C85.9902 29.1829 85.5182 29.5573 85.0234 29.8242C84.5352 30.0911 83.9915 30.2246 83.3926 30.2246C82.7285 30.2246 82.1654 30.0977 81.7031 29.8438C81.2474 29.5833 80.873 29.235 80.5801 28.7988C80.2936 28.3626 80.0853 27.8548 79.9551 27.2754C79.8249 26.6895 79.7598 26.0742 79.7598 25.4297C79.7598 24.6549 79.8411 23.9583 80.0039 23.3398C80.1732 22.7214 80.4173 22.194 80.7363 21.7578C81.0553 21.3216 81.4525 20.9863 81.9277 20.752C82.403 20.5176 82.9499 20.4004 83.5684 20.4004C84.0566 20.4004 84.4993 20.5013 84.8965 20.7031C85.2936 20.8984 85.6875 21.1882 86.0781 21.5723V16.8555C86.0781 16.7904 86.0944 16.7318 86.127 16.6797C86.166 16.6276 86.2311 16.5853 86.3223 16.5527C86.4199 16.5137 86.5469 16.4844 86.7031 16.4648C86.8594 16.4453 87.0579 16.4355 87.2988 16.4355C87.5397 16.4355 87.7383 16.4453 87.8945 16.4648C88.0508 16.4844 88.1745 16.5137 88.2656 16.5527C88.3568 16.5853 88.4219 16.6276 88.4609 16.6797C88.5 16.7318 88.5195 16.7904 88.5195 16.8555V29.668ZM86.0781 23.8477C85.7266 23.4049 85.388 23.0664 85.0625 22.832C84.7435 22.5977 84.4082 22.4805 84.0566 22.4805C83.7376 22.4805 83.4609 22.5618 83.2266 22.7246C82.9987 22.8809 82.8132 23.0924 82.6699 23.3594C82.5332 23.6263 82.429 23.9258 82.3574 24.2578C82.2923 24.5833 82.2598 24.9186 82.2598 25.2637C82.2598 25.6283 82.2891 25.9831 82.3477 26.3281C82.4062 26.6732 82.5007 26.9824 82.6309 27.2559C82.7676 27.5228 82.9466 27.7376 83.168 27.9004C83.3893 28.0632 83.6693 28.1445 84.0078 28.1445C84.1771 28.1445 84.3398 28.1217 84.4961 28.0762C84.6589 28.0241 84.8216 27.9427 84.9844 27.832C85.1536 27.7214 85.3262 27.5781 85.502 27.4023C85.6777 27.2201 85.8698 26.9987 86.0781 26.7383V23.8477ZM100.688 28.8086C100.688 29.0951 100.668 29.3164 100.629 29.4727C100.596 29.6224 100.551 29.7298 100.492 29.7949C100.434 29.8535 100.346 29.9089 100.229 29.9609C100.118 30.0065 99.9844 30.0456 99.8281 30.0781C99.6784 30.1172 99.5124 30.1465 99.3301 30.166C99.1543 30.1855 98.9753 30.1953 98.793 30.1953C98.3047 30.1953 97.8815 30.1335 97.5234 30.0098C97.1654 29.8861 96.8691 29.6973 96.6348 29.4434C96.4004 29.1829 96.2279 28.8574 96.1172 28.4668C96.0065 28.0762 95.9512 27.6139 95.9512 27.0801V22.6172H94.9062C94.7826 22.6172 94.6882 22.5423 94.623 22.3926C94.5579 22.2363 94.5254 21.9792 94.5254 21.6211C94.5254 21.4323 94.5319 21.2728 94.5449 21.1426C94.5645 21.0124 94.5905 20.9115 94.623 20.8398C94.6556 20.7617 94.6947 20.7064 94.7402 20.6738C94.7923 20.6413 94.8509 20.625 94.916 20.625H95.9512V18.6816C95.9512 18.6165 95.9674 18.5579 96 18.5059C96.0391 18.4538 96.1042 18.4115 96.1953 18.3789C96.293 18.3398 96.4199 18.3138 96.5762 18.3008C96.7389 18.2812 96.9375 18.2715 97.1719 18.2715C97.4128 18.2715 97.6113 18.2812 97.7676 18.3008C97.9303 18.3138 98.0573 18.3398 98.1484 18.3789C98.2396 18.4115 98.3047 18.4538 98.3438 18.5059C98.3828 18.5579 98.4023 18.6165 98.4023 18.6816V20.625H100.297C100.362 20.625 100.417 20.6413 100.463 20.6738C100.515 20.7064 100.557 20.7617 100.59 20.8398C100.622 20.9115 100.645 21.0124 100.658 21.1426C100.678 21.2728 100.688 21.4323 100.688 21.6211C100.688 21.9792 100.655 22.2363 100.59 22.3926C100.525 22.5423 100.43 22.6172 100.307 22.6172H98.4023V26.709C98.4023 27.1842 98.4772 27.5423 98.627 27.7832C98.7767 28.0176 99.0436 28.1348 99.4277 28.1348C99.5579 28.1348 99.6751 28.125 99.7793 28.1055C99.8835 28.0794 99.9746 28.0534 100.053 28.0273C100.137 27.9948 100.206 27.9688 100.258 27.9492C100.316 27.9232 100.368 27.9102 100.414 27.9102C100.453 27.9102 100.489 27.9232 100.521 27.9492C100.561 27.9688 100.59 28.0143 100.609 28.0859C100.629 28.151 100.645 28.2422 100.658 28.3594C100.678 28.4766 100.688 28.6263 100.688 28.8086ZM111.078 25.2246C111.078 25.9668 110.98 26.6439 110.785 27.2559C110.59 27.8678 110.294 28.3952 109.896 28.8379C109.499 29.2806 109.001 29.6224 108.402 29.8633C107.803 30.1042 107.104 30.2246 106.303 30.2246C105.528 30.2246 104.854 30.1172 104.281 29.9023C103.708 29.6875 103.233 29.375 102.855 28.9648C102.478 28.5547 102.198 28.0501 102.016 27.4512C101.833 26.8522 101.742 26.1686 101.742 25.4004C101.742 24.6582 101.84 23.9811 102.035 23.3691C102.237 22.7507 102.536 22.2233 102.934 21.7871C103.331 21.3444 103.826 21.0026 104.418 20.7617C105.017 20.5208 105.717 20.4004 106.518 20.4004C107.299 20.4004 107.976 20.5078 108.549 20.7227C109.122 20.931 109.594 21.2402 109.965 21.6504C110.342 22.0605 110.622 22.5651 110.805 23.1641C110.987 23.763 111.078 24.4499 111.078 25.2246ZM108.549 25.3223C108.549 24.8926 108.513 24.4987 108.441 24.1406C108.376 23.776 108.262 23.4603 108.1 23.1934C107.937 22.9264 107.719 22.7181 107.445 22.5684C107.178 22.4186 106.84 22.3438 106.43 22.3438C106.065 22.3438 105.746 22.4121 105.473 22.5488C105.199 22.679 104.975 22.8743 104.799 23.1348C104.623 23.3887 104.49 23.6979 104.398 24.0625C104.314 24.4206 104.271 24.8307 104.271 25.293C104.271 25.7227 104.307 26.1198 104.379 26.4844C104.451 26.8424 104.564 27.1549 104.721 27.4219C104.883 27.6888 105.102 27.8971 105.375 28.0469C105.648 28.1901 105.987 28.2617 106.391 28.2617C106.762 28.2617 107.084 28.1966 107.357 28.0664C107.631 27.9297 107.855 27.7344 108.031 27.4805C108.207 27.2266 108.337 26.9206 108.422 26.5625C108.507 26.1979 108.549 25.7845 108.549 25.3223ZM126.449 28.0859C126.449 28.2487 126.443 28.3887 126.43 28.5059C126.423 28.6165 126.41 28.7142 126.391 28.7988C126.371 28.877 126.345 28.9453 126.312 29.0039C126.28 29.0625 126.228 29.1309 126.156 29.209C126.085 29.2806 125.945 29.375 125.736 29.4922C125.535 29.6094 125.284 29.7233 124.984 29.834C124.691 29.9382 124.353 30.026 123.969 30.0977C123.591 30.1693 123.181 30.2051 122.738 30.2051C121.872 30.2051 121.091 30.0716 120.395 29.8047C119.698 29.5378 119.105 29.1406 118.617 28.6133C118.129 28.0794 117.755 27.4154 117.494 26.6211C117.234 25.8268 117.104 24.9023 117.104 23.8477C117.104 22.7734 117.247 21.8197 117.533 20.9863C117.82 20.153 118.22 19.4531 118.734 18.8867C119.249 18.3203 119.864 17.8906 120.58 17.5977C121.303 17.3047 122.097 17.1582 122.963 17.1582C123.314 17.1582 123.653 17.1875 123.979 17.2461C124.304 17.3047 124.604 17.3828 124.877 17.4805C125.157 17.5716 125.408 17.679 125.629 17.8027C125.85 17.9264 126.003 18.0339 126.088 18.125C126.179 18.2096 126.241 18.2812 126.273 18.3398C126.306 18.3984 126.332 18.4733 126.352 18.5645C126.371 18.6556 126.384 18.763 126.391 18.8867C126.404 19.0104 126.41 19.1634 126.41 19.3457C126.41 19.541 126.404 19.707 126.391 19.8438C126.378 19.9805 126.355 20.0911 126.322 20.1758C126.29 20.2604 126.251 20.3223 126.205 20.3613C126.16 20.4004 126.107 20.4199 126.049 20.4199C125.951 20.4199 125.827 20.3646 125.678 20.2539C125.528 20.1367 125.333 20.0098 125.092 19.873C124.857 19.7298 124.574 19.6029 124.242 19.4922C123.917 19.375 123.526 19.3164 123.07 19.3164C122.569 19.3164 122.12 19.4206 121.723 19.6289C121.332 19.8307 120.997 20.1237 120.717 20.5078C120.443 20.8854 120.235 21.3444 120.092 21.8848C119.949 22.4251 119.877 23.0339 119.877 23.7109C119.877 24.4531 119.952 25.0977 120.102 25.6445C120.258 26.1849 120.476 26.6309 120.756 26.9824C121.042 27.334 121.384 27.5977 121.781 27.7734C122.185 27.9427 122.637 28.0273 123.139 28.0273C123.594 28.0273 123.988 27.9753 124.32 27.8711C124.652 27.7604 124.936 27.64 125.17 27.5098C125.411 27.3796 125.606 27.2624 125.756 27.1582C125.912 27.054 126.033 27.002 126.117 27.002C126.182 27.002 126.234 27.015 126.273 27.041C126.312 27.0671 126.345 27.1191 126.371 27.1973C126.397 27.2754 126.417 27.3861 126.43 27.5293C126.443 27.666 126.449 27.8516 126.449 28.0859ZM135.57 29.6973C135.57 29.7884 135.538 29.86 135.473 29.9121C135.408 29.9642 135.303 30 135.16 30.0195C135.023 30.0456 134.818 30.0586 134.545 30.0586C134.252 30.0586 134.037 30.0456 133.9 30.0195C133.77 30 133.676 29.9642 133.617 29.9121C133.565 29.86 133.539 29.7884 133.539 29.6973V29.0039C133.181 29.388 132.771 29.6875 132.309 29.9023C131.853 30.1172 131.345 30.2246 130.785 30.2246C130.323 30.2246 129.896 30.1628 129.506 30.0391C129.122 29.9219 128.786 29.7461 128.5 29.5117C128.22 29.2708 128.002 28.9746 127.846 28.623C127.689 28.2715 127.611 27.8613 127.611 27.3926C127.611 26.8848 127.709 26.4453 127.904 26.0742C128.106 25.6966 128.402 25.3874 128.793 25.1465C129.19 24.8991 129.682 24.7168 130.268 24.5996C130.854 24.4824 131.534 24.4238 132.309 24.4238H133.158V23.8965C133.158 23.623 133.129 23.3854 133.07 23.1836C133.018 22.9753 132.927 22.8027 132.797 22.666C132.673 22.5293 132.504 22.4284 132.289 22.3633C132.081 22.2982 131.82 22.2656 131.508 22.2656C131.098 22.2656 130.73 22.3112 130.404 22.4023C130.085 22.4935 129.802 22.5944 129.555 22.7051C129.307 22.8158 129.099 22.9167 128.93 23.0078C128.767 23.099 128.633 23.1445 128.529 23.1445C128.458 23.1445 128.393 23.1217 128.334 23.0762C128.282 23.0306 128.236 22.9655 128.197 22.8809C128.165 22.7962 128.139 22.6921 128.119 22.5684C128.1 22.4447 128.09 22.3079 128.09 22.1582C128.09 21.9564 128.106 21.7969 128.139 21.6797C128.171 21.5625 128.233 21.4583 128.324 21.3672C128.415 21.2695 128.575 21.1654 128.803 21.0547C129.031 20.9375 129.298 20.8301 129.604 20.7324C129.91 20.6348 130.242 20.5566 130.6 20.498C130.964 20.4329 131.339 20.4004 131.723 20.4004C132.406 20.4004 132.989 20.4688 133.471 20.6055C133.959 20.7357 134.359 20.9408 134.672 21.2207C134.984 21.4941 135.212 21.849 135.355 22.2852C135.499 22.7214 135.57 23.2389 135.57 23.8379V29.6973ZM133.158 25.9668H132.221C131.824 25.9668 131.485 25.9961 131.205 26.0547C130.925 26.1133 130.697 26.2012 130.521 26.3184C130.346 26.4355 130.215 26.5788 130.131 26.748C130.053 26.9108 130.014 27.0996 130.014 27.3145C130.014 27.679 130.128 27.9655 130.355 28.1738C130.59 28.3822 130.912 28.4863 131.322 28.4863C131.667 28.4863 131.983 28.3984 132.27 28.2227C132.562 28.0469 132.859 27.7897 133.158 27.4512V25.9668ZM143.627 21.7676C143.627 22.002 143.62 22.194 143.607 22.3438C143.594 22.4935 143.575 22.6107 143.549 22.6953C143.523 22.7799 143.487 22.8385 143.441 22.8711C143.402 22.9036 143.35 22.9199 143.285 22.9199C143.233 22.9199 143.174 22.9102 143.109 22.8906C143.044 22.8646 142.969 22.8385 142.885 22.8125C142.807 22.7865 142.719 22.7637 142.621 22.7441C142.523 22.7181 142.416 22.7051 142.299 22.7051C142.162 22.7051 142.025 22.7344 141.889 22.793C141.752 22.8451 141.609 22.9297 141.459 23.0469C141.316 23.1641 141.163 23.3203 141 23.5156C140.844 23.7109 140.674 23.9518 140.492 24.2383V29.668C140.492 29.7331 140.473 29.7917 140.434 29.8438C140.395 29.8893 140.326 29.9284 140.229 29.9609C140.137 29.9935 140.014 30.0163 139.857 30.0293C139.701 30.0488 139.503 30.0586 139.262 30.0586C139.021 30.0586 138.822 30.0488 138.666 30.0293C138.51 30.0163 138.383 29.9935 138.285 29.9609C138.194 29.9284 138.129 29.8893 138.09 29.8438C138.051 29.7917 138.031 29.7331 138.031 29.668V20.957C138.031 20.8919 138.048 20.8366 138.08 20.791C138.113 20.7389 138.171 20.6966 138.256 20.6641C138.34 20.6315 138.448 20.6087 138.578 20.5957C138.715 20.5762 138.884 20.5664 139.086 20.5664C139.294 20.5664 139.467 20.5762 139.604 20.5957C139.74 20.6087 139.844 20.6315 139.916 20.6641C139.994 20.6966 140.049 20.7389 140.082 20.791C140.115 20.8366 140.131 20.8919 140.131 20.957V22.041C140.359 21.7155 140.574 21.4486 140.775 21.2402C140.977 21.0254 141.169 20.8561 141.352 20.7324C141.534 20.6087 141.716 20.5241 141.898 20.4785C142.081 20.4264 142.263 20.4004 142.445 20.4004C142.53 20.4004 142.621 20.4069 142.719 20.4199C142.816 20.4264 142.917 20.4427 143.021 20.4688C143.126 20.4883 143.217 20.5143 143.295 20.5469C143.373 20.5729 143.428 20.6022 143.461 20.6348C143.5 20.6673 143.526 20.7031 143.539 20.7422C143.559 20.7812 143.575 20.8366 143.588 20.9082C143.601 20.9733 143.611 21.0742 143.617 21.2109C143.624 21.3477 143.627 21.5332 143.627 21.7676ZM150.297 28.8086C150.297 29.0951 150.277 29.3164 150.238 29.4727C150.206 29.6224 150.16 29.7298 150.102 29.7949C150.043 29.8535 149.955 29.9089 149.838 29.9609C149.727 30.0065 149.594 30.0456 149.438 30.0781C149.288 30.1172 149.122 30.1465 148.939 30.166C148.764 30.1855 148.585 30.1953 148.402 30.1953C147.914 30.1953 147.491 30.1335 147.133 30.0098C146.775 29.8861 146.479 29.6973 146.244 29.4434C146.01 29.1829 145.837 28.8574 145.727 28.4668C145.616 28.0762 145.561 27.6139 145.561 27.0801V22.6172H144.516C144.392 22.6172 144.298 22.5423 144.232 22.3926C144.167 22.2363 144.135 21.9792 144.135 21.6211C144.135 21.4323 144.141 21.2728 144.154 21.1426C144.174 21.0124 144.2 20.9115 144.232 20.8398C144.265 20.7617 144.304 20.7064 144.35 20.6738C144.402 20.6413 144.46 20.625 144.525 20.625H145.561V18.6816C145.561 18.6165 145.577 18.5579 145.609 18.5059C145.648 18.4538 145.714 18.4115 145.805 18.3789C145.902 18.3398 146.029 18.3138 146.186 18.3008C146.348 18.2812 146.547 18.2715 146.781 18.2715C147.022 18.2715 147.221 18.2812 147.377 18.3008C147.54 18.3138 147.667 18.3398 147.758 18.3789C147.849 18.4115 147.914 18.4538 147.953 18.5059C147.992 18.5579 148.012 18.6165 148.012 18.6816V20.625H149.906C149.971 20.625 150.027 20.6413 150.072 20.6738C150.124 20.7064 150.167 20.7617 150.199 20.8398C150.232 20.9115 150.255 21.0124 150.268 21.1426C150.287 21.2728 150.297 21.4323 150.297 21.6211C150.297 21.9792 150.264 22.2363 150.199 22.3926C150.134 22.5423 150.04 22.6172 149.916 22.6172H148.012V26.709C148.012 27.1842 148.087 27.5423 148.236 27.7832C148.386 28.0176 148.653 28.1348 149.037 28.1348C149.167 28.1348 149.285 28.125 149.389 28.1055C149.493 28.0794 149.584 28.0534 149.662 28.0273C149.747 27.9948 149.815 27.9688 149.867 27.9492C149.926 27.9232 149.978 27.9102 150.023 27.9102C150.062 27.9102 150.098 27.9232 150.131 27.9492C150.17 27.9688 150.199 28.0143 150.219 28.0859C150.238 28.151 150.255 28.2422 150.268 28.3594C150.287 28.4766 150.297 28.6263 150.297 28.8086Z" fill="#F3F3F3"/>
</svg>
