<svg xmlns="http://www.w3.org/2000/svg" width="22.036" height="17.547" viewBox="0 0 22.036 17.547">
  <g id="Group_43" data-name="Group 43" transform="translate(-0.025)">
    <path id="Path_20" data-name="Path 20" d="M52.415,0h-2.84a.87.87,0,0,0-.821.625q-1.989,6.044-3.978,12.1H34.953a.856.856,0,0,0,0,1.711H45.39a.87.87,0,0,0,.821-.625q2-6.044,3.987-12.1h2.224A.856.856,0,0,0,52.415,0Z" transform="translate(-31.183)" fill="#383838"/>
    <path id="Path_21" data-name="Path 21" d="M138.169,180.1a1.069,1.069,0,1,0,1.069,1.069A1.07,1.07,0,0,0,138.169,180.1Z" transform="translate(-125.347 -164.691)" fill="#383838"/>
    <path id="Path_22" data-name="Path 22" d="M50.669,180.1a1.069,1.069,0,1,0,1.069,1.069A1.07,1.07,0,0,0,50.669,180.1Z" transform="translate(-45.334 -164.691)" fill="#383838"/>
    <path id="Path_23" data-name="Path 23" d="M14.037,46.5H.853a.856.856,0,0,0,0,1.711H14.037A.856.856,0,0,0,14.037,46.5Z" transform="translate(0 -42.522)" fill="#383838"/>
    <path id="Path_24" data-name="Path 24" d="M22.326,80.7H10.853a.856.856,0,0,0,0,1.711H22.326A.856.856,0,0,0,22.326,80.7Z" transform="translate(-9.144 -73.796)" fill="#383838"/>
    <path id="Path_25" data-name="Path 25" d="M31.775,115H22.253a.856.856,0,0,0,0,1.711h9.522A.856.856,0,0,0,31.775,115Z" transform="translate(-19.569 -105.161)" fill="#383838"/>
  </g>
</svg>
