<svg width="33" height="33" viewBox="0 0 33 33" fill="none" xmlns="http://www.w3.org/2000/svg">
<path d="M11 29.5C12.1046 29.5 13 28.6046 13 27.5C13 26.3954 12.1046 25.5 11 25.5C9.89543 25.5 9 26.3954 9 27.5C9 28.6046 9.89543 29.5 11 29.5Z" fill="#005895"/>
<path d="M24 29.5C25.1046 29.5 26 28.6046 26 27.5C26 26.3954 25.1046 25.5 24 25.5C22.8954 25.5 22 26.3954 22 27.5C22 28.6046 22.8954 29.5 24 29.5Z" fill="#005895"/>
<path d="M6.2875 9.5H28.7125L25.4125 21.05C25.2948 21.4692 25.0426 21.8381 24.6948 22.1001C24.3471 22.362 23.9229 22.5025 23.4875 22.5H11.5125C11.0771 22.5025 10.6529 22.362 10.3052 22.1001C9.95738 21.8381 9.70524 21.4692 9.5875 21.05L5.0625 5.225C5.0027 5.01594 4.8764 4.83207 4.70271 4.70125C4.52903 4.57042 4.31744 4.49977 4.1 4.5H2" stroke="#005895" stroke-width="2.66667" stroke-linecap="round" stroke-linejoin="round"/>
</svg>
