<svg width="88" height="88" viewBox="0 0 88 88" fill="none" xmlns="http://www.w3.org/2000/svg">
<g clip-path="url(#clip0_1_80000)">
<path d="M44.0078 88C68.3083 88 88.0078 68.3005 88.0078 44C88.0078 19.6995 68.3083 0 44.0078 0C19.7073 0 0.0078125 19.6995 0.0078125 44C0.0078125 68.3005 19.7073 88 44.0078 88Z" fill="#F3F3F3"/>
<path d="M66.4152 20.651H66.2979V20.5923L66.4152 20.651Z" fill="#FBFBFB"/>
<path d="M59.4626 15.2927L16.8042 48.2615L36.6927 73.9953L79.3511 41.0265L59.4626 15.2927Z" fill="#FBFBFB"/>
<path d="M59.4626 15.2927L16.8042 48.2615L36.6927 73.9953L79.3511 41.0265L59.4626 15.2927Z" fill="#69AC43"/>
<path d="M51.6883 50.3943C55.3817 48.4954 56.8365 43.9618 54.9376 40.2683C53.0387 36.5749 48.5052 35.1201 44.8117 37.019C41.1182 38.9179 39.6634 43.4514 41.5623 47.1449C43.4612 50.8384 47.9948 52.2932 51.6883 50.3943Z" fill="#FBFBFB"/>
<path d="M64.184 35.0663C65.463 34.4088 65.9668 32.8388 65.3092 31.5598C64.6516 30.2808 63.0817 29.777 61.8027 30.4346C60.5237 31.0922 60.0199 32.6621 60.6775 33.9411C61.335 35.2201 62.905 35.7239 64.184 35.0663Z" fill="#FBFBFB"/>
<path d="M33.4379 57.0287C34.7169 56.3712 35.2207 54.8012 34.5631 53.5222C33.9055 52.2432 32.3356 51.7394 31.0566 52.397C29.7776 53.0546 29.2738 54.6245 29.9314 55.9035C30.5889 57.1825 32.1589 57.6863 33.4379 57.0287Z" fill="#FBFBFB"/>
<path d="M48.6659 42.6561L47.1643 43.3385C46.7031 43.5457 46.2143 43.4086 45.9011 43.0318C45.5393 42.5606 45.6386 41.8821 46.0863 41.5324L46.6872 41.074C47.1113 40.7365 47.7182 40.8129 48.0557 41.2369C48.321 41.5786 48.797 41.6327 49.1386 41.3674C49.4803 41.1021 49.5343 40.6261 49.2691 40.2845C48.4853 39.2831 47.1041 39.0372 46.0298 39.6791L45.8368 39.4199C45.5715 39.0782 45.0955 39.0241 44.7539 39.2894C44.4122 39.5547 44.3581 40.0307 44.6234 40.3723L44.8286 40.6552C43.9833 41.5679 43.8805 42.9951 44.6763 44.0201C45.3999 44.9627 46.6867 45.2572 47.7987 44.805L49.3003 44.1226C49.7614 43.9154 50.2502 44.0525 50.5634 44.4293C50.9252 44.9006 50.8259 45.5791 50.3783 45.9287L49.7773 46.3871C49.3533 46.7246 48.7464 46.6482 48.4089 46.2242C48.1436 45.8825 47.6676 45.8285 47.326 46.0938C46.9843 46.359 46.9302 46.835 47.1955 47.1767C47.9792 48.178 49.3605 48.4239 50.4347 47.782L50.6278 48.0413C50.8931 48.3829 51.369 48.437 51.7107 48.1717C52.0523 47.9064 52.1064 47.4305 51.8411 47.0888L51.6359 46.8059C52.4813 45.8932 52.5841 44.466 51.7883 43.441C50.9924 42.4161 49.7657 42.1803 48.6659 42.6561Z" fill="#69AC43"/>
<path d="M58.7416 19.5829L21.3813 48.457L37.6626 69.5234L75.0229 40.6493L58.7416 19.5829Z" stroke="#FBFBFB" stroke-width="0.679386" stroke-miterlimit="10"/>
<path d="M51.6568 12.6168L9.22705 45.8794L29.2928 71.4752L71.7225 38.2126L51.6568 12.6168Z" fill="#FBFBFB"/>
<path d="M51.6568 12.6168L9.22705 45.8794L29.2928 71.4752L71.7225 38.2126L51.6568 12.6168Z" fill="#7FC258"/>
<path d="M44.1252 47.7711C47.8055 45.8467 49.2289 41.3032 47.3046 37.6229C45.3802 33.9427 40.8367 32.5192 37.1564 34.4436C33.4761 36.368 32.0527 40.9114 33.9771 44.5917C35.9014 48.272 40.4449 49.6955 44.1252 47.7711Z" fill="#FBFBFB"/>
<path d="M56.5148 32.3573C57.7892 31.6909 58.2821 30.1175 57.6157 28.8431C56.9493 27.5687 55.376 27.0757 54.1015 27.7421C52.8271 28.4085 52.3342 29.9819 53.0006 31.2563C53.6669 32.5308 55.2403 33.0237 56.5148 32.3573Z" fill="#FBFBFB"/>
<path d="M25.921 54.5314C27.1954 53.865 27.6884 52.2916 27.022 51.0172C26.3556 49.7427 24.7822 49.2498 23.5078 49.9162C22.2333 50.5826 21.7404 52.1559 22.4068 53.4304C23.0732 54.7048 24.6466 55.1978 25.921 54.5314Z" fill="#FBFBFB"/>
<path d="M41.0495 40.054L39.5527 40.7467C39.093 40.9571 38.6033 40.8234 38.2875 40.4488C37.9224 39.98 38.0171 39.3008 38.4623 38.9481L39.06 38.4856C39.4817 38.1452 40.0892 38.2174 40.4296 38.639C40.6972 38.9789 41.1736 39.0296 41.5134 38.762C41.8532 38.4944 41.904 38.018 41.6363 37.6782C40.8457 36.6823 39.4628 36.446 38.393 37.0953L38.1982 36.8373C37.9305 36.4975 37.4542 36.4467 37.1144 36.7144C36.7746 36.982 36.7238 37.4583 36.9914 37.7982L37.1986 38.0796C36.3595 38.9981 36.2666 40.426 37.0695 41.4455C37.7996 42.383 39.0884 42.6687 40.1972 42.2088L41.6941 41.5161C42.1538 41.3057 42.6435 41.4394 42.9593 41.814C43.3244 42.2828 43.2297 42.962 42.7845 43.3147L42.1868 43.7772C41.7651 44.1176 41.1576 44.0454 40.8172 43.6238C40.5495 43.2839 40.0732 43.2332 39.7334 43.5008C39.3936 43.7684 39.3428 44.2448 39.6104 44.5846C40.401 45.5805 41.784 45.8168 42.8538 45.1675L43.0486 45.4255C43.3163 45.7653 43.7926 45.8161 44.1324 45.5484C44.4722 45.2808 44.523 44.8045 44.2553 44.4646L44.0482 44.1832C44.8873 43.2647 44.9802 41.8368 44.1773 40.8173C43.3744 39.7979 42.1461 39.5706 41.0495 40.054Z" fill="#69AC43"/>
<path d="M50.9656 16.9116L13.8057 46.043L30.232 66.9964L67.392 37.865L50.9656 16.9116Z" stroke="#FBFBFB" stroke-width="0.679386" stroke-miterlimit="10"/>
</g>
<defs>
<clipPath id="clip0_1_80000">
<rect width="88" height="88" fill="white"/>
</clipPath>
</defs>
</svg>
