<svg width="17" height="16" viewBox="0 0 17 16" fill="none" xmlns="http://www.w3.org/2000/svg">
<g clip-path="url(#clip0_8733_469638)">
<path d="M8.49832 16C12.9157 16 16.4967 12.4183 16.4967 7.99999C16.4967 3.58172 12.9157 0 8.49832 0C4.08097 0 0.5 3.58172 0.5 7.99999C0.5 12.4183 4.08097 16 8.49832 16Z" fill="#F58520"/>
<path d="M7.15507 11.2852C6.96311 11.2852 6.77115 11.2212 6.64317 11.0719L4.25434 8.68254C3.97707 8.4052 3.97707 7.93587 4.25434 7.6372C4.53162 7.33854 5.00085 7.35987 5.29946 7.6372L7.1764 9.51453L11.7408 4.94921C12.018 4.67188 12.4873 4.67188 12.7859 4.94921C13.0845 5.22654 13.0632 5.69588 12.7859 5.99455L7.68829 11.0932C7.53899 11.2425 7.34703 11.3065 7.1764 11.3065L7.15507 11.2852Z" fill="white"/>
<g style="mix-blend-mode:hard-light" opacity="0.19" clip-path="url(#clip1_8733_469638)">
<g style="mix-blend-mode:hard-light">
<path d="M16.4998 8.00029C16.4998 12.4163 12.9166 16.0003 8.50148 16.0003C8.01091 16.0003 7.52035 15.9576 7.02979 15.8723C10.741 15.1896 13.5564 11.9256 13.5564 8.02162C13.5564 4.11762 10.741 0.853629 7.02979 0.170963C7.49902 0.0856301 7.98959 0.0429688 8.50148 0.0429688C12.9166 0.0429688 16.4998 3.62696 16.4998 8.04295V8.00029Z" fill="#402308"/>
</g>
</g>
</g>
<defs>
<clipPath id="clip0_8733_469638">
<rect width="15.9999" height="16" fill="white" transform="translate(0.5)"/>
</clipPath>
<clipPath id="clip1_8733_469638">
<rect width="9.47002" height="15.9573" fill="white" transform="translate(7.02979 0.0429688)"/>
</clipPath>
</defs>
</svg>
