<svg width="24" height="24" viewBox="0 0 24 24" fill="none" xmlns="http://www.w3.org/2000/svg">
<path fill-rule="evenodd" clip-rule="evenodd" d="M12 4C7.58172 4 4 7.58172 4 12C4 16.4183 7.58172 20 12 20C16.4183 20 20 16.4183 20 12C20 7.58172 16.4183 4 12 4ZM2 12C2 6.47715 6.47715 2 12 2C17.5228 2 22 6.47715 22 12C22 17.5228 17.5228 22 12 22C6.47715 22 2 17.5228 2 12Z" fill="#005895"/>
<path fill-rule="evenodd" clip-rule="evenodd" d="M10.1317 7.95604C10.5012 7.54553 11.1335 7.51226 11.544 7.88171L15.294 11.2567C15.5047 11.4464 15.625 11.7165 15.625 12C15.625 12.2835 15.5047 12.5537 15.294 12.7433L11.544 16.1183C11.1335 16.4878 10.5012 16.4545 10.1317 16.044C9.76226 15.6335 9.79553 15.0012 10.206 14.6317L13.1302 12L10.206 9.3683C9.79553 8.99884 9.76226 8.36655 10.1317 7.95604Z" fill="#005895"/>
</svg>
