<svg width="20" height="20" viewBox="0 0 20 20" fill="none" xmlns="http://www.w3.org/2000/svg">
<path fill-rule="evenodd" clip-rule="evenodd" d="M10 2C5.58172 2 2 5.58172 2 10C2 14.4183 5.58172 18 10 18C14.4183 18 18 14.4183 18 10C18 5.58172 14.4183 2 10 2ZM0 10C0 4.47715 4.47715 0 10 0C15.5228 0 20 4.47715 20 10C20 15.5228 15.5228 20 10 20C4.47715 20 0 15.5228 0 10Z" fill="#005895"/>
<path fill-rule="evenodd" clip-rule="evenodd" d="M5.95604 8.13171C6.36655 7.76226 6.99884 7.79553 7.3683 8.20604L10 11.1302L12.6317 8.20604C13.0012 7.79553 13.6335 7.76226 14.044 8.13171C14.4545 8.50117 14.4878 9.13346 14.1183 9.54397L10.7433 13.294C10.5537 13.5047 10.2835 13.625 10 13.625C9.71652 13.625 9.44636 13.5047 9.25671 13.294L5.88171 9.54397C5.51226 9.13346 5.54553 8.50117 5.95604 8.13171Z" fill="#005895"/>
</svg>
