<svg width="20" height="20" viewBox="0 0 20 20" fill="none" xmlns="http://www.w3.org/2000/svg">
<path fill-rule="evenodd" clip-rule="evenodd" d="M10 2C5.58172 2 2 5.58172 2 10C2 14.4183 5.58172 18 10 18C14.4183 18 18 14.4183 18 10C18 5.58172 14.4183 2 10 2ZM0 10C0 4.47715 4.47715 0 10 0C15.5228 0 20 4.47715 20 10C20 15.5228 15.5228 20 10 20C4.47715 20 0 15.5228 0 10Z" fill="#005895"/>
<path fill-rule="evenodd" clip-rule="evenodd" d="M10 6.75C10.2835 6.75 10.5537 6.87032 10.7433 7.08104L14.1183 10.831C14.4878 11.2415 14.4545 11.8738 14.044 12.2433C13.6335 12.6128 13.0012 12.5795 12.6317 12.169L10 9.24485L7.3683 12.169C6.99884 12.5795 6.36655 12.6128 5.95604 12.2433C5.54553 11.8738 5.51226 11.2415 5.88171 10.831L9.25671 7.08104C9.44636 6.87032 9.71652 6.75 10 6.75Z" fill="#005895"/>
</svg>
