<svg width="32" height="32" viewBox="0 0 32 32" fill="none" xmlns="http://www.w3.org/2000/svg">
<path fill-rule="evenodd" clip-rule="evenodd" d="M15.9993 5.33366C10.1083 5.33366 5.33268 10.1093 5.33268 16.0003C5.33268 21.8914 10.1083 26.667 15.9993 26.667C21.8904 26.667 26.666 21.8914 26.666 16.0003C26.666 10.1093 21.8904 5.33366 15.9993 5.33366ZM2.66602 16.0003C2.66602 8.63653 8.63555 2.66699 15.9993 2.66699C23.3631 2.66699 29.3327 8.63653 29.3327 16.0003C29.3327 23.3641 23.3631 29.3337 15.9993 29.3337C8.63555 29.3337 2.66602 23.3641 2.66602 16.0003Z" fill="#005895"/>
<path fill-rule="evenodd" clip-rule="evenodd" d="M20.9422 11.0575C21.4629 11.5782 21.4629 12.4224 20.9422 12.9431L12.9422 20.9431C12.4215 21.4638 11.5772 21.4638 11.0565 20.9431C10.5358 20.4224 10.5358 19.5782 11.0565 19.0575L19.0565 11.0575C19.5772 10.5368 20.4215 10.5368 20.9422 11.0575Z" fill="#005895"/>
<path fill-rule="evenodd" clip-rule="evenodd" d="M11.0565 11.0575C11.5772 10.5368 12.4215 10.5368 12.9422 11.0575L20.9422 19.0575C21.4629 19.5782 21.4629 20.4224 20.9422 20.9431C20.4215 21.4638 19.5772 21.4638 19.0565 20.9431L11.0565 12.9431C10.5358 12.4224 10.5358 11.5782 11.0565 11.0575Z" fill="#005895"/>
</svg>
