<svg width="32" height="32" viewBox="0 0 32 32" fill="none" xmlns="http://www.w3.org/2000/svg">
<path fill-rule="evenodd" clip-rule="evenodd" d="M16.0013 5.33268C10.1103 5.33268 5.33464 10.1083 5.33464 15.9993C5.33464 21.8904 10.1103 26.666 16.0013 26.666C21.8923 26.666 26.668 21.8904 26.668 15.9993C26.668 10.1083 21.8923 5.33268 16.0013 5.33268ZM2.66797 15.9993C2.66797 8.63555 8.63751 2.66602 16.0013 2.66602C23.3651 2.66602 29.3346 8.63555 29.3346 15.9993C29.3346 23.3631 23.3651 29.3327 16.0013 29.3327C8.63751 29.3327 2.66797 23.3631 2.66797 15.9993Z" fill="#094067"/>
<path fill-rule="evenodd" clip-rule="evenodd" d="M20.9441 11.0565C21.4648 11.5772 21.4648 12.4215 20.9441 12.9422L12.9441 20.9422C12.4234 21.4629 11.5792 21.4629 11.0585 20.9422C10.5378 20.4215 10.5378 19.5772 11.0585 19.0565L19.0585 11.0565C19.5792 10.5358 20.4234 10.5358 20.9441 11.0565Z" fill="#094067"/>
<path fill-rule="evenodd" clip-rule="evenodd" d="M11.0585 11.0565C11.5792 10.5358 12.4234 10.5358 12.9441 11.0565L20.9441 19.0565C21.4648 19.5772 21.4648 20.4215 20.9441 20.9422C20.4234 21.4629 19.5792 21.4629 19.0585 20.9422L11.0585 12.9422C10.5378 12.4215 10.5378 11.5772 11.0585 11.0565Z" fill="#094067"/>
</svg>
