<svg width="36" height="36" viewBox="0 0 36 36" fill="none" xmlns="http://www.w3.org/2000/svg">
<rect width="36" height="36" rx="18" fill="#005895"/>
<path fill-rule="evenodd" clip-rule="evenodd" d="M24.8512 11.1487C25.21 11.5075 25.21 12.0892 24.8512 12.448L12.4481 24.8512C12.0893 25.21 11.5076 25.21 11.1488 24.8512C10.79 24.4924 10.79 23.9107 11.1488 23.5519L23.5519 11.1487C23.9107 10.7899 24.4924 10.7899 24.8512 11.1487Z" fill="#FBFBFB"/>
<path fill-rule="evenodd" clip-rule="evenodd" d="M11.1488 11.1487C11.5076 10.7899 12.0893 10.7899 12.4481 11.1487L24.8512 23.5519C25.21 23.9107 25.21 24.4924 24.8512 24.8512C24.4924 25.21 23.9107 25.21 23.5519 24.8512L11.1488 12.448C10.79 12.0892 10.79 11.5075 11.1488 11.1487Z" fill="#FBFBFB"/>
</svg>
