<svg width="32" height="32" viewBox="0 0 32 32" fill="none" xmlns="http://www.w3.org/2000/svg">
<path fill-rule="evenodd" clip-rule="evenodd" d="M16.0003 5.33268C10.1093 5.33268 5.33366 10.1083 5.33366 15.9993C5.33366 21.8904 10.1093 26.666 16.0003 26.666C21.8914 26.666 26.667 21.8904 26.667 15.9993C26.667 10.1083 21.8914 5.33268 16.0003 5.33268ZM2.66699 15.9993C2.66699 8.63555 8.63653 2.66602 16.0003 2.66602C23.3641 2.66602 29.3337 8.63555 29.3337 15.9993C29.3337 23.3631 23.3641 29.3327 16.0003 29.3327C8.63653 29.3327 2.66699 23.3631 2.66699 15.9993Z" fill="#863399"/>
<path fill-rule="evenodd" clip-rule="evenodd" d="M20.9431 11.0565C21.4638 11.5772 21.4638 12.4215 20.9431 12.9422L12.9431 20.9422C12.4224 21.4629 11.5782 21.4629 11.0575 20.9422C10.5368 20.4215 10.5368 19.5772 11.0575 19.0565L19.0575 11.0565C19.5782 10.5358 20.4224 10.5358 20.9431 11.0565Z" fill="#863399"/>
<path fill-rule="evenodd" clip-rule="evenodd" d="M11.0575 11.0565C11.5782 10.5358 12.4224 10.5358 12.9431 11.0565L20.9431 19.0565C21.4638 19.5772 21.4638 20.4215 20.9431 20.9422C20.4224 21.4629 19.5782 21.4629 19.0575 20.9422L11.0575 12.9422C10.5368 12.4215 10.5368 11.5772 11.0575 11.0565Z" fill="#863399"/>
</svg>
