<svg xmlns="http://www.w3.org/2000/svg" width="52.945" height="46.211" viewBox="0 0 52.945 46.211">
    <defs>
        <style>
            .cls-1{fill:#282828}
        </style>
    </defs>
    <g id="Group_1330" transform="translate(-163.736 -1665.695)">
        <g id="Group_1326" transform="translate(163.736 1688.538)">
            <g id="Group_1324" transform="translate(3.376)">
                <path id="Path_1771" d="M199.368 1774.117a23.126 23.126 0 0 1-23.062-22.663.69.69 0 0 1 .677-.7.7.7 0 0 1 .7.677 21.8 21.8 0 0 0 11.219 18.593 21.714 21.714 0 0 0 29.5-8.513.691.691 0 1 1 1.209.667A22.944 22.944 0 0 1 205.8 1773.2a23.2 23.2 0 0 1-6.432.917z" class="cls-1" transform="translate(-176.306 -1750.75)"/>
            </g>
            <g id="Group_1325">
                <path id="Path_1772" d="M164.426 1756.157a.691.691 0 0 1-.529-1.135l3.381-4.026a.69.69 0 0 1 .973-.085l4.027 3.38a.691.691 0 1 1-.888 1.058l-3.5-2.936-2.936 3.5a.689.689 0 0 1-.528.244z" class="cls-1" transform="translate(-163.736 -1750.749)"/>
            </g>
        </g>
        <g id="Group_1329" transform="translate(169.903 1665.694)">
            <g id="Group_1327">
                <path id="Path_1773" d="M229.4 1689.061a.691.691 0 0 1-.691-.677 21.8 21.8 0 0 0-11.218-18.593 21.714 21.714 0 0 0-29.5 8.513.691.691 0 1 1-1.209-.667 23.1 23.1 0 0 1 31.381-9.056 23.183 23.183 0 0 1 11.932 19.775.691.691 0 0 1-.677.7z" class="cls-1" transform="translate(-186.696 -1665.694)"/>
            </g>
            <g id="Group_1328" transform="translate(37.989 17.961)">
                <path id="Path_1774" d="M332.859 1737.975a.688.688 0 0 1-.444-.162l-4.027-3.381a.691.691 0 1 1 .888-1.058l3.5 2.936 2.936-3.5a.691.691 0 0 1 1.058.889l-3.38 4.026a.691.691 0 0 1-.531.25z" class="cls-1" transform="translate(-328.142 -1732.567)"/>
            </g>
        </g>
    </g>
</svg>
