<svg width="32" height="33" viewBox="0 0 32 33" fill="none" xmlns="http://www.w3.org/2000/svg">
<path d="M20.1456 21.0532C19.928 21.0324 19.7104 21.006 19.492 20.9908C18.4944 20.922 17.7128 20.154 17.7256 19.1507C17.7528 16.9651 17.7632 14.777 17.8936 12.597C18.048 10.0145 20.3184 7.76809 22.8993 7.50488C26.0402 7.18488 28.6962 9.13932 29.2938 12.2154C29.341 12.4594 29.3714 12.7098 29.377 12.9578C29.4234 14.9435 29.4666 16.9299 29.5002 18.9155C29.521 20.1668 28.8634 20.882 27.6106 21.0012C27.4322 21.018 27.2546 21.0404 27.0698 21.0948C27.2834 21.1388 27.4978 21.1828 27.7114 21.2276C29.1058 21.5212 30.0835 22.7028 30.0995 24.1309C30.1099 25.0589 30.1035 25.9877 30.1011 26.9157C30.1003 27.3125 29.9563 27.4573 29.5602 27.4573C25.5986 27.4581 21.6361 27.4581 17.6744 27.4573C17.3064 27.4573 17.1272 27.3293 17.1248 27.0149C17.1168 25.9869 17.076 24.9557 17.1448 23.9317C17.244 22.4596 18.22 21.4692 19.7368 21.178C19.872 21.1516 20.0072 21.1252 20.1432 21.0996L20.1456 21.0516V21.0532ZM25.9906 20.3012C26.269 20.2764 26.5274 20.254 26.7858 20.2316C27.0442 20.2092 27.3026 20.1876 27.561 20.1628C28.3434 20.0884 28.6778 19.7228 28.6634 18.9347C28.6274 16.9587 28.5882 14.9827 28.5394 13.0066C28.5322 12.7194 28.4842 12.4298 28.425 12.1482C27.929 9.81614 25.7458 8.1665 23.3361 8.2969C20.9384 8.4265 18.9328 10.3169 18.7208 12.6954C18.6416 13.5882 18.6576 14.4898 18.636 15.3875C18.6064 16.6051 18.5792 17.8227 18.5576 19.0403C18.548 19.562 18.808 20.0028 19.2728 20.0892C19.9232 20.21 20.5896 20.2444 21.2585 20.3172C21.3081 19.9604 21.3001 19.73 20.9736 19.5196C20.0544 18.9243 19.4544 18.0675 19.1352 17.0171C18.8288 16.0107 18.9528 14.9779 18.9608 13.9538C18.9616 13.8378 19.1192 13.6666 19.2424 13.6178C19.9768 13.3274 20.5648 12.8466 21.0888 12.2746C21.3481 11.9922 21.4689 11.977 21.8217 12.149C22.1889 12.3274 22.5561 12.5098 22.9353 12.6586C24.4737 13.2626 26.0754 13.5498 27.7242 13.5882C28.1642 13.5986 28.2954 13.733 28.297 14.1658C28.2986 14.685 28.3114 15.2043 28.293 15.7227C28.237 17.3091 27.5874 18.5963 26.2762 19.5044C25.9586 19.7236 25.905 19.9492 25.9914 20.3012H25.9906ZM29.2538 26.6125C29.2538 25.6973 29.2938 24.8085 29.2426 23.9253C29.1898 23.0076 28.4962 22.2652 27.5946 22.0652C27.0794 21.9508 26.5562 21.874 26.0418 21.7548C25.8386 21.7076 25.7554 21.754 25.6522 21.9356C25.2033 22.7284 24.5113 23.1516 23.5961 23.1444C22.6817 23.1372 22.0033 22.7012 21.5505 21.91C21.5121 21.8436 21.4729 21.7772 21.4353 21.7124C20.8704 21.8196 20.3208 21.9164 19.7752 22.0292C18.6344 22.2644 17.9648 23.0868 17.9584 24.2541C17.9544 24.9525 17.9568 25.6509 17.9584 26.3493C17.9584 26.4349 17.9704 26.5205 17.9768 26.6125H29.2546H29.2538ZM27.4378 14.437C27.3642 14.4258 27.3162 14.4138 27.2674 14.4114C25.3441 14.3138 23.4985 13.9034 21.7553 13.0666C21.6793 13.0298 21.5321 13.0666 21.4537 13.121C20.9408 13.4794 20.4352 13.8482 19.9344 14.2242C19.8608 14.2794 19.7848 14.3882 19.7824 14.4738C19.772 14.9627 19.764 15.4531 19.7904 15.9411C19.876 17.5131 20.9824 18.8979 22.4985 19.3564C24.0105 19.814 25.6618 19.2756 26.6346 18.0459C27.4834 16.9731 27.5114 15.7339 27.437 14.4362L27.4378 14.437ZM22.1289 20.1164C22.1289 20.4236 22.1145 20.6916 22.1313 20.958C22.1761 21.6692 22.7873 22.2652 23.4985 22.3076C24.6177 22.3732 25.3745 21.338 25.0625 20.1332C24.1065 20.422 23.1449 20.4348 22.1281 20.1164H22.1289Z" fill="#F58520"/>
<path d="M11.772 20.1599C12.3977 20.2807 13.0121 20.3975 13.6265 20.5175C15.1897 20.8231 16.2337 21.8879 16.4153 23.4288C16.4825 24.0008 16.4401 24.5856 16.4433 25.164C16.4465 25.7528 16.4465 26.3424 16.4433 26.9312C16.4409 27.3096 16.2953 27.4593 15.9193 27.4593C11.4376 27.4609 6.95513 27.4609 2.47343 27.4593C2.09822 27.4593 1.95182 27.3088 1.95102 26.9288C1.94862 25.9208 1.94862 24.912 1.95102 23.904C1.95502 22.1351 3.06224 20.8215 4.80068 20.5119C5.3983 20.4055 5.99351 20.2839 6.62072 20.1623C6.62072 19.7247 6.62792 19.2991 6.61352 18.8743C6.61112 18.8103 6.51912 18.7343 6.45112 18.6903C5.3855 18.0086 4.65428 17.0686 4.23507 15.8758C4.19827 15.7718 4.07187 15.6566 3.96466 15.6262C3.26225 15.423 2.79584 14.9846 2.61343 14.279C2.42623 13.5581 2.63103 12.9309 3.18225 12.4373C3.35505 12.2829 3.31985 12.1237 3.30305 11.9517C3.19585 10.8757 3.26065 9.82285 3.66786 8.80283C4.63108 6.38997 7.10234 4.84834 9.67599 5.06994C12.3281 5.29795 14.5137 7.21079 15.0009 9.81005C15.1313 10.5053 15.0809 11.2373 15.0865 11.9525C15.0881 12.1717 15.1033 12.3293 15.2801 12.4997C16.3153 13.4925 15.8681 15.219 14.4849 15.5998C14.2961 15.6518 14.1913 15.7286 14.1241 15.9278C13.7369 17.0862 13.0193 17.9958 11.9888 18.6511C11.8248 18.7559 11.76 18.8631 11.7688 19.0567C11.7848 19.4143 11.7736 19.7735 11.7736 20.1599H11.772ZM15.5833 26.608C15.5833 25.5488 15.6457 24.4992 15.5649 23.4608C15.4897 22.4999 14.9121 21.7911 13.9929 21.4951C13.2217 21.2463 12.4041 21.1391 11.624 20.9727C11.5808 21.0327 11.5592 21.0551 11.5464 21.0815C11.084 22.0391 10.3256 22.5767 9.26159 22.6039C8.17036 22.6311 7.38394 22.1063 6.86633 21.1519C6.82793 21.0807 6.68233 21.0151 6.60072 21.0287C6.01111 21.1271 5.4239 21.2431 4.83748 21.3591C3.60226 21.6031 2.79424 22.5783 2.78784 23.8368C2.78384 24.6352 2.78704 25.4344 2.78704 26.2328C2.78704 26.3584 2.78704 26.4832 2.78704 26.6096H15.5833V26.608ZM4.82388 12.8005C4.82388 13.3221 4.81988 13.8189 4.82388 14.315C4.84548 16.4478 6.46392 18.3054 8.54237 18.5879C10.7584 18.8887 12.7881 17.575 13.4001 15.459C13.6353 14.6454 13.5401 13.8157 13.5721 12.9917C13.5809 12.7685 13.5081 12.6597 13.3097 12.5309C12.7449 12.1637 12.2137 11.7437 11.6712 11.3413C11.6016 11.2901 11.5432 11.2237 11.4768 11.1621C9.39039 12.2149 7.17594 12.6909 4.82388 12.8005V12.8005ZM4.17267 11.9437C4.18147 11.9485 4.19027 11.9573 4.19907 11.9573C6.63753 11.9541 8.97198 11.4893 11.1584 10.3781C11.644 10.1317 11.6888 10.1357 12.052 10.5237C12.5601 11.0661 13.1193 11.5437 13.8025 11.8557C13.9313 11.9149 14.0737 11.9453 14.2145 11.9901C14.5649 9.95645 13.8073 7.97801 12.0672 6.78038C10.3152 5.57475 7.97756 5.60036 6.22712 6.84998C4.54788 8.04841 3.82946 10.0509 4.17187 11.9437H4.17267ZM7.46234 19.1799C7.46234 19.5383 7.44874 19.8471 7.46474 20.1551C7.50954 20.9831 8.18796 21.6855 9.00478 21.7655C9.8464 21.8479 10.6616 21.3311 10.8496 20.5263C10.9488 20.1031 10.9264 19.6511 10.9616 19.1655C9.7584 19.5711 8.62397 19.5647 7.46074 19.1799H7.46234ZM3.97746 12.8981C3.56066 13.1365 3.36785 13.4541 3.39265 13.8773C3.41425 14.2566 3.60066 14.5438 3.97746 14.735V12.8981ZM14.4161 14.7454C14.8265 14.5062 15.0193 14.191 14.9985 13.7685C14.9793 13.3885 14.7953 13.1021 14.4161 12.9085V14.7454Z" fill="#F58520"/>
</svg>
