<svg width="46" height="46" viewBox="0 0 46 46" fill="none" xmlns="http://www.w3.org/2000/svg">
<g clip-path="url(#clip0_41_96460)">
<g opacity="0.05">
<path d="M22.7383 45.7393C35.1647 45.7393 45.2383 35.6657 45.2383 23.2393C45.2383 10.8129 35.1647 0.739258 22.7383 0.739258C10.3119 0.739258 0.238281 10.8129 0.238281 23.2393C0.238281 35.6657 10.3119 45.7393 22.7383 45.7393Z" fill="#383838"/>
</g>
<path d="M34.1982 11.2995H34.1382V11.2695L34.1982 11.2995Z" fill="white"/>
<path d="M35.8483 13.8096H9.62833C8.7502 13.8096 8.03833 14.5214 8.03833 15.3996V31.0896C8.03833 31.9677 8.7502 32.6796 9.62833 32.6796H35.8483C36.7265 32.6796 37.4383 31.9677 37.4383 31.0896V15.3996C37.4383 14.5214 36.7265 13.8096 35.8483 13.8096Z" fill="white"/>
<path d="M35.8483 13.8096H9.62833C8.7502 13.8096 8.03833 14.5214 8.03833 15.3996V31.0896C8.03833 31.9677 8.7502 32.6796 9.62833 32.6796H35.8483C36.7265 32.6796 37.4383 31.9677 37.4383 31.0896V15.3996C37.4383 14.5214 36.7265 13.8096 35.8483 13.8096Z" stroke="#863399" stroke-miterlimit="10"/>
<path d="M37.4383 18.2393H8.03833V20.7593H37.4383V18.2393Z" fill="#863399"/>
<path d="M34.2983 29.3594H29.7183C29.3206 29.3594 28.9983 29.6817 28.9983 30.0794C28.9983 30.477 29.3206 30.7994 29.7183 30.7994H34.2983C34.6959 30.7994 35.0183 30.477 35.0183 30.0794C35.0183 29.6817 34.6959 29.3594 34.2983 29.3594Z" fill="#F58520"/>
<path d="M27.2683 29.3594H25.6783C25.2806 29.3594 24.9583 29.6817 24.9583 30.0794C24.9583 30.477 25.2806 30.7994 25.6783 30.7994H27.2683C27.6659 30.7994 27.9883 30.477 27.9883 30.0794C27.9883 29.6817 27.6659 29.3594 27.2683 29.3594Z" fill="#F58520"/>
<g opacity="0.1">
<path d="M37.4383 13.8096H35.7483V32.1696H37.4383V13.8096Z" fill="#863399"/>
</g>
</g>
<defs>
<clipPath id="clip0_41_96460">
<rect width="45" height="45" fill="white" transform="translate(0.238281 0.739258)"/>
</clipPath>
</defs>
</svg>
