<svg width="24" height="24" viewBox="0 0 24 24" fill="none" xmlns="http://www.w3.org/2000/svg">
<path fill-rule="evenodd" clip-rule="evenodd" d="M3.25 6.25V17.75H20.75V6.25H3.25ZM1.25 6C1.25 5.0335 2.0335 4.25 3 4.25H21C21.9665 4.25 22.75 5.0335 22.75 6V18C22.75 18.9665 21.9665 19.75 21 19.75H3C2.0335 19.75 1.25 18.9665 1.25 18V6Z" fill="#094067"/>
<path fill-rule="evenodd" clip-rule="evenodd" d="M14.75 15.75C14.75 15.1977 15.1977 14.75 15.75 14.75H18.75C19.3023 14.75 19.75 15.1977 19.75 15.75C19.75 16.3023 19.3023 16.75 18.75 16.75H15.75C15.1977 16.75 14.75 16.3023 14.75 15.75Z" fill="#094067"/>
<path fill-rule="evenodd" clip-rule="evenodd" d="M10.25 15.75C10.25 15.1977 10.6977 14.75 11.25 14.75H12.75C13.3023 14.75 13.75 15.1977 13.75 15.75C13.75 16.3023 13.3023 16.75 12.75 16.75H11.25C10.6977 16.75 10.25 16.3023 10.25 15.75Z" fill="#094067"/>
<path fill-rule="evenodd" clip-rule="evenodd" d="M1.25 9.08398C1.25 8.5317 1.69772 8.08398 2.25 8.08398H21.75C22.3023 8.08398 22.75 8.5317 22.75 9.08398C22.75 9.63627 22.3023 10.084 21.75 10.084H2.25C1.69772 10.084 1.25 9.63627 1.25 9.08398Z" fill="#094067"/>
</svg>
