<svg width="17" height="17" viewBox="0 0 17 17" fill="none" xmlns="http://www.w3.org/2000/svg">
<path fill-rule="evenodd" clip-rule="evenodd" d="M2.77503 5.15686V12.8213H14.4395V5.15686H2.77503ZM1.43945 4.98908C1.43945 4.34412 1.96229 3.82129 2.60724 3.82129H14.6072C15.2522 3.82129 15.775 4.34412 15.775 4.98908V12.9891C15.775 13.634 15.2522 14.1569 14.6072 14.1569H2.60724C1.96229 14.1569 1.43945 13.634 1.43945 12.9891V4.98908Z" fill="#863399"/>
<path fill-rule="evenodd" clip-rule="evenodd" d="M10.4395 11.4891C10.4395 11.1203 10.7384 10.8213 11.1072 10.8213H13.1072C13.476 10.8213 13.775 11.1203 13.775 11.4891C13.775 11.8579 13.476 12.1569 13.1072 12.1569H11.1072C10.7384 12.1569 10.4395 11.8579 10.4395 11.4891Z" fill="#863399"/>
<path fill-rule="evenodd" clip-rule="evenodd" d="M7.43945 11.4891C7.43945 11.1203 7.73843 10.8213 8.10724 10.8213H9.10724C9.47605 10.8213 9.77503 11.1203 9.77503 11.4891C9.77503 11.8579 9.47605 12.1569 9.10724 12.1569H8.10724C7.73843 12.1569 7.43945 11.8579 7.43945 11.4891Z" fill="#863399"/>
<path fill-rule="evenodd" clip-rule="evenodd" d="M1.43945 7.04572C1.43945 6.67691 1.73843 6.37793 2.10724 6.37793H15.1072C15.476 6.37793 15.775 6.67691 15.775 7.04572C15.775 7.41452 15.476 7.7135 15.1072 7.7135H2.10724C1.73843 7.7135 1.43945 7.41452 1.43945 7.04572Z" fill="#863399"/>
</svg>
