<svg width="24" height="24" viewBox="0 0 24 24" fill="none" xmlns="http://www.w3.org/2000/svg">
<path fill-rule="evenodd" clip-rule="evenodd" d="M2.75 5.25C2.75 4.69772 3.19772 4.25 3.75 4.25H20.25C20.8023 4.25 21.25 4.69772 21.25 5.25C21.25 5.80228 20.8023 6.25 20.25 6.25H3.75C3.19772 6.25 2.75 5.80228 2.75 5.25Z" fill="#094067"/>
<path fill-rule="evenodd" clip-rule="evenodd" d="M9.75 8.75C10.3023 8.75 10.75 9.19772 10.75 9.75V15.75C10.75 16.3023 10.3023 16.75 9.75 16.75C9.19772 16.75 8.75 16.3023 8.75 15.75V9.75C8.75 9.19772 9.19772 8.75 9.75 8.75Z" fill="#094067"/>
<path fill-rule="evenodd" clip-rule="evenodd" d="M14.25 8.75C14.8023 8.75 15.25 9.19772 15.25 9.75V15.75C15.25 16.3023 14.8023 16.75 14.25 16.75C13.6977 16.75 13.25 16.3023 13.25 15.75V9.75C13.25 9.19772 13.6977 8.75 14.25 8.75Z" fill="#094067"/>
<path fill-rule="evenodd" clip-rule="evenodd" d="M5.25 4.25C5.80228 4.25 6.25 4.69772 6.25 5.25V19.25H17.75V5.25C17.75 4.69772 18.1977 4.25 18.75 4.25C19.3023 4.25 19.75 4.69772 19.75 5.25V19.5C19.75 19.9641 19.5656 20.4092 19.2374 20.7374C18.9092 21.0656 18.4641 21.25 18 21.25H6C5.53587 21.25 5.09075 21.0656 4.76256 20.7374C4.43437 20.4092 4.25 19.9641 4.25 19.5V5.25C4.25 4.69772 4.69772 4.25 5.25 4.25Z" fill="#094067"/>
<path fill-rule="evenodd" clip-rule="evenodd" d="M7.98223 1.98223C8.45107 1.51339 9.08696 1.25 9.75 1.25H14.25C14.913 1.25 15.5489 1.51339 16.0178 1.98223C16.4866 2.45107 16.75 3.08696 16.75 3.75V5.25C16.75 5.80228 16.3023 6.25 15.75 6.25C15.1977 6.25 14.75 5.80228 14.75 5.25V3.75C14.75 3.61739 14.6973 3.49022 14.6036 3.39645C14.5098 3.30268 14.3826 3.25 14.25 3.25H9.75C9.61739 3.25 9.49022 3.30268 9.39645 3.39645C9.30268 3.49022 9.25 3.61739 9.25 3.75V5.25C9.25 5.80228 8.80228 6.25 8.25 6.25C7.69772 6.25 7.25 5.80228 7.25 5.25V3.75C7.25 3.08696 7.51339 2.45107 7.98223 1.98223Z" fill="#094067"/>
</svg>
