<svg width="25" height="25" viewBox="0 0 25 25" fill="none" xmlns="http://www.w3.org/2000/svg">
<path fill-rule="evenodd" clip-rule="evenodd" d="M3.47461 5.75C3.47461 5.19772 3.92232 4.75 4.47461 4.75H20.9746C21.5269 4.75 21.9746 5.19772 21.9746 5.75C21.9746 6.30228 21.5269 6.75 20.9746 6.75H4.47461C3.92232 6.75 3.47461 6.30228 3.47461 5.75Z" fill="#863399"/>
<path fill-rule="evenodd" clip-rule="evenodd" d="M10.4746 9.25C11.0269 9.25 11.4746 9.69772 11.4746 10.25V16.25C11.4746 16.8023 11.0269 17.25 10.4746 17.25C9.92232 17.25 9.47461 16.8023 9.47461 16.25V10.25C9.47461 9.69772 9.92232 9.25 10.4746 9.25Z" fill="#863399"/>
<path fill-rule="evenodd" clip-rule="evenodd" d="M14.9746 9.25C15.5269 9.25 15.9746 9.69772 15.9746 10.25V16.25C15.9746 16.8023 15.5269 17.25 14.9746 17.25C14.4223 17.25 13.9746 16.8023 13.9746 16.25V10.25C13.9746 9.69772 14.4223 9.25 14.9746 9.25Z" fill="#863399"/>
<path fill-rule="evenodd" clip-rule="evenodd" d="M5.97461 4.75C6.52689 4.75 6.97461 5.19772 6.97461 5.75V19.75H18.4746V5.75C18.4746 5.19772 18.9223 4.75 19.4746 4.75C20.0269 4.75 20.4746 5.19772 20.4746 5.75V20C20.4746 20.4641 20.2902 20.9092 19.962 21.2374C19.6339 21.5656 19.1887 21.75 18.7246 21.75H6.72461C6.26048 21.75 5.81536 21.5656 5.48717 21.2374C5.15898 20.9092 4.97461 20.4641 4.97461 20V5.75C4.97461 5.19772 5.42232 4.75 5.97461 4.75Z" fill="#863399"/>
<path fill-rule="evenodd" clip-rule="evenodd" d="M8.70684 2.48223C9.17568 2.01339 9.81157 1.75 10.4746 1.75H14.9746C15.6377 1.75 16.2735 2.01339 16.7424 2.48223C17.2112 2.95107 17.4746 3.58696 17.4746 4.25V5.75C17.4746 6.30228 17.0269 6.75 16.4746 6.75C15.9223 6.75 15.4746 6.30228 15.4746 5.75V4.25C15.4746 4.11739 15.4219 3.99022 15.3282 3.89645C15.2344 3.80268 15.1072 3.75 14.9746 3.75H10.4746C10.342 3.75 10.2148 3.80268 10.1211 3.89645C10.0273 3.99022 9.97461 4.11739 9.97461 4.25V5.75C9.97461 6.30228 9.52689 6.75 8.97461 6.75C8.42232 6.75 7.97461 6.30228 7.97461 5.75V4.25C7.97461 3.58696 8.238 2.95107 8.70684 2.48223Z" fill="#863399"/>
</svg>
