<svg width="88" height="88" viewBox="0 0 88 88" fill="none" xmlns="http://www.w3.org/2000/svg">
<g clip-path="url(#clip0_42_162817)">
<g opacity="0.05">
<path d="M44 88C68.3005 88 88 68.3005 88 44C88 19.6995 68.3005 0 44 0C19.6995 0 0 19.6995 0 44C0 68.3005 19.6995 88 44 88Z" fill="#383838"/>
</g>
<path d="M66.41 20.6504H66.2932V20.592L66.41 20.6504Z" fill="white"/>
<path d="M19.6141 69.52L27.5537 69.9893C30.1937 69.9893 32.3448 67.3493 32.3448 64.1031V49.9253C32.3448 46.6791 30.1937 44.0391 27.5537 44.0391H15.4488C15.4488 44.0391 14.7057 51.216 15.7617 58.5102C17.1501 67.9947 19.6141 69.52 19.6141 69.52Z" fill="#FBFBFB"/>
<path d="M33.0295 52.1938V63.9076C33.0295 63.9076 48.8695 67.8969 52.3309 67.6818C55.7922 67.4667 56.594 67.8773 60.8571 64.1422L72.1407 55.4596C73.2944 54.4231 74.018 52.2916 72.962 51.3724C72.3167 50.8053 71.2802 50.4729 69.9309 51.0791L58.1975 58.3733C58.1975 58.3733 59.1362 57.0827 59.1558 56.5938C59.2731 54.8924 60.5247 51.5289 56.1638 52.1547H50.9815C50.9815 52.1547 44.5087 47.872 39.1113 50.7662L33.0295 51.0009V52.2133V52.1938Z" fill="#FBE6D1"/>
<path d="M40.0502 14.2562H68.4644C68.8555 14.2562 69.1684 14.5691 69.1684 14.9602V42.6313C69.1684 43.0028 68.875 43.2962 68.5035 43.2962H39.2484C38.8768 43.2962 38.5835 43.0028 38.5835 42.6313V15.7619C38.5835 14.9406 39.2484 14.2757 40.0697 14.2757L40.0502 14.2562Z" fill="#F58E25"/>
<path d="M39.3457 14.2169H68.3857C68.8355 14.2169 69.1875 14.5689 69.1875 15.0187V22H38.5439V14.9991C38.5439 14.5689 38.8959 14.2169 39.3262 14.2169H39.3457Z" fill="#F7A551"/>
<path d="M56.3593 14.2169H51.5877L51.5291 23.5645H56.3593V14.2169Z" fill="#FBFBFB"/>
<path d="M46.9727 31.6801H41.0669V40.4801H46.9727V31.6801Z" fill="#6A509B"/>
<path d="M42.2988 33.1271H43.7851" stroke="white" stroke-width="0.490747" stroke-miterlimit="10" stroke-linecap="round"/>
<path d="M42.2988 33.9094L45.3886 33.8898" stroke="white" stroke-width="0.490747" stroke-linecap="round" stroke-linejoin="round"/>
<path d="M45.9951 36.6276H42.0449C41.4974 36.6276 41.0671 37.1361 41.0671 37.7618V40.4605H46.9729V37.7618C46.9729 37.1361 46.5427 36.6276 45.9951 36.6276Z" fill="#563E86"/>
<path d="M42.2988 38.1921H45.3886" stroke="white" stroke-width="0.490747" stroke-linecap="round" stroke-linejoin="round"/>
<path d="M56.3593 22.7823V24.1512L55.9291 23.7796L55.5379 24.1512L55.1468 23.7796L54.7948 24.1512L54.4819 23.7796L54.1299 24.1512L53.6997 23.7796L53.3477 24.1512L52.9175 23.7796L52.4677 24.112L52.1353 23.7796L51.5877 24.112L51.5291 23.7992V22.6063L56.3593 22.7823Z" fill="#FBFBFB"/>
<path d="M64.1229 54.8338L69.9113 51.0986C69.9113 51.0986 72.2189 49.8862 73.2749 51.9004C73.2749 51.9004 73.9202 53.3671 72.8642 54.6186C70.2633 57.6693 60.3487 64.6115 60.3487 64.6115C60.3487 64.6115 57.2198 68.0142 52.898 67.7013C48.5762 67.3884 33.0295 63.9467 33.0295 63.9467V51.0204L39.1113 50.7858C39.1113 50.7858 45.0758 48.0675 50.9815 52.1742L56.946 52.1351C56.946 52.1351 57.0242 52.1351 57.1415 52.1546C60.4855 52.6631 60.0358 57.6498 56.6527 57.6498H46.3664" stroke="#6A509A" stroke-width="1.96299" stroke-linecap="round" stroke-linejoin="round"/>
<path d="M12.3982 71.3582C12.0071 71.3582 11.6942 71.0454 11.6942 70.6738C11.6942 70.2827 11.9876 69.9502 12.3787 69.9502L27.9253 69.5591C28.9618 69.5396 29.9005 69.1876 30.624 68.4836C31.3671 67.76 31.7973 66.7627 31.7973 65.7262L31.9929 48.8498C32.0125 46.6987 30.3307 44.9387 28.2382 44.9191L11.1076 45.2516C10.7165 45.2516 10.4036 44.9387 10.4036 44.5476C10.4036 44.1565 10.7165 43.824 11.1076 43.824L28.2578 43.4916C31.152 43.5307 33.4596 45.936 33.44 48.8694L33.2445 65.7458C33.2445 67.1734 32.6578 68.5227 31.6409 69.52C30.6436 70.4978 29.3333 70.9867 27.9645 71.0062L12.4373 71.3974L12.3982 71.3582Z" fill="#6A509A"/>
<g style="mix-blend-mode:multiply">
<path d="M15.429 46.4249H25.8716C28.4334 46.4249 30.8974 47.9307 31.6992 50.3751C31.7774 50.6098 31.8361 50.864 31.8948 51.1182C31.8948 51.1182 33.4201 45.2907 28.2379 44.88L15.4094 44.9387V46.4053L15.429 46.4249Z" fill="#EEEBF3"/>
</g>
</g>
<defs>
<clipPath id="clip0_42_162817">
<rect width="88" height="88" fill="white"/>
</clipPath>
</defs>
</svg>
