<svg width="88" height="88" viewBox="0 0 88 88" fill="none" xmlns="http://www.w3.org/2000/svg">
<g clip-path="url(#clip0_43_121726)">
<g opacity="0.05">
<path d="M44 88C68.3005 88 88 68.3005 88 44C88 19.6995 68.3005 0 44 0C19.6995 0 0 19.6995 0 44C0 68.3005 19.6995 88 44 88Z" fill="#383838"/>
</g>
<path d="M66.4107 20.6508H66.2932V20.592L66.4107 20.6508Z" fill="white"/>
<path d="M20.3577 57.3565H74.8394V48.361C74.859 47.1094 74.2919 45.9361 73.2946 45.193L69.755 42.5139L68.2101 35.513L68.4252 32.5405L67.1737 30.6828L58.1977 30.4677L58.1586 26.6348H20.3577V57.3565Z" fill="#FBFBFB"/>
<path d="M74.8592 57.3174C74.8592 57.9041 74.1356 58.0019 73.549 57.9823C72.6885 57.9628 71.8085 57.9823 70.909 57.9823C70.8112 59.9183 70.0876 61.5219 68.5819 62.6952C67.4476 63.5752 66.157 63.9859 64.7294 63.9272C62.285 63.849 59.2734 62.0108 59.0192 58.0214H38.0752C37.9774 59.9965 37.2148 61.6197 35.6112 62.8125C34.477 63.6534 33.1863 64.0054 31.7979 63.9272C29.5099 63.8099 26.4983 62.1085 26.205 57.9823C26.0094 57.9823 25.7943 57.9823 25.5988 57.9823C24.2103 57.9823 22.8023 57.9823 21.4139 57.9823C20.0645 57.9823 19.3019 57.1805 19.2823 55.8508C19.2823 55.2641 19.2823 54.6579 19.2823 53.993C18.4023 53.993 17.6005 53.993 16.7988 53.993C16.5641 53.993 16.3294 53.993 16.0948 53.9734C15.6254 53.9148 15.3712 53.6019 15.3321 53.1521C15.293 52.6632 15.5276 52.3308 15.997 52.1939C16.173 52.1352 16.3881 52.1352 16.5641 52.1352C19.341 52.1352 22.0983 52.1352 24.8752 52.1352C25.0121 52.1352 25.149 52.1352 25.2859 52.1548C25.7943 52.233 26.1463 52.6241 26.1072 53.113C26.0876 53.6019 25.7161 53.9734 25.1881 53.9734C24.0734 53.993 22.9392 53.9734 21.8245 53.9734C21.6094 53.9734 21.4139 53.9734 21.1596 53.9734V56.0463C21.2965 56.0463 21.453 56.105 21.5899 56.105C23.0956 56.105 24.621 56.105 26.1268 56.105C26.4592 56.105 26.5765 55.9681 26.7134 55.6943C27.789 53.4063 29.5881 52.1352 32.1108 52.1352C34.653 52.1352 36.4716 53.4063 37.5472 55.7139C37.6841 56.0072 37.8405 56.105 38.1534 56.105C44.2939 56.105 50.4343 56.105 56.5748 56.105C56.7116 56.105 56.829 56.0854 57.0245 56.0659V55.4205C57.0245 53.465 57.0245 51.5094 57.0245 49.5539C57.0245 49.3974 57.0245 49.241 57.0245 49.0845C57.0636 48.537 57.4548 48.1459 57.9436 48.1459C58.4716 48.1459 58.8628 48.537 58.8823 49.1237C58.8823 51.2161 58.8823 53.3085 58.8823 55.401C58.8823 55.5379 58.8628 55.6748 58.8823 55.8117C58.9019 55.9094 58.9996 56.0854 59.0779 56.0854C59.1756 56.0854 59.3125 55.9877 59.3908 55.9094C59.4494 55.8703 59.4494 55.7725 59.469 55.6943C60.5445 53.4259 62.3436 52.1352 64.8663 52.1352C67.4085 52.1352 69.2272 53.4063 70.3028 55.7139C70.4396 56.0072 70.5765 56.1245 70.909 56.105C71.5543 56.0854 72.1801 56.105 72.8645 56.105V51.9788C72.5321 51.9788 72.1996 51.9788 71.8672 51.9788C70.1659 51.9397 68.973 50.7272 68.9534 49.0063C68.9534 48.4001 68.9534 47.8134 68.9534 47.2072C68.9534 46.4837 69.3054 46.1512 70.029 46.1512C70.909 46.1512 71.7694 46.1512 72.7276 46.1512C72.5907 45.545 72.2779 45.0561 71.8085 44.7628C71.2805 44.4499 70.6548 44.0783 70.0681 44.0783C66.4308 44.0197 62.7934 44.0392 59.1365 44.0392C59.0583 44.0392 58.9996 44.0588 58.8628 44.0783C58.8628 44.4108 58.8628 44.7432 58.8628 45.0561C58.8432 45.6232 58.4716 45.9948 57.9632 45.9948C57.4548 45.9948 57.0636 45.6428 57.0245 45.0757C57.0245 44.8997 57.0245 44.7237 57.0245 44.5477C57.0245 39.3263 57.0245 34.0854 57.0245 28.8641V28.1405H21.1792V28.8054C21.1792 34.0463 21.1792 39.3068 21.1792 44.5477C21.1792 44.7432 21.1792 44.9388 21.1792 45.1343C21.1205 45.6623 20.8272 45.9557 20.3188 45.9752C19.8299 46.0143 19.517 45.7405 19.3801 45.2712C19.3214 45.0757 19.341 44.841 19.341 44.6454C19.341 39.2677 19.341 33.8703 19.341 28.4925C19.341 26.9868 20.0841 26.2437 21.5899 26.2437C33.3036 26.2437 45.037 26.2437 56.7508 26.2437C58.237 26.2437 58.9605 26.9672 58.9801 28.4534C58.9801 29.0205 58.9801 29.5681 58.9801 30.1939C59.2343 30.1939 59.4299 30.2134 59.6254 30.233C61.6201 30.233 63.6147 30.2721 65.6094 30.233C68.1125 30.1743 70.8503 31.817 69.8725 35.2979C69.7747 35.6499 69.4814 35.9041 69.2272 36.2757C69.677 38.0552 70.1463 39.9717 70.6352 41.9077C70.6743 42.0641 70.8503 42.2401 70.9872 42.2792C73.0601 42.8072 74.3312 44.1174 74.781 46.2294C74.781 46.2881 74.781 46.3663 74.781 46.425C74.8788 50.8445 74.8592 53.817 74.8592 57.3174ZM58.9996 36.1388V42.1619H68.7188C68.6796 41.9859 68.6601 41.8294 68.621 41.6925C68.2103 40.0303 67.7801 38.3485 67.389 36.6863C67.2912 36.2561 67.1152 36.0997 66.6654 36.0997C64.2992 36.1192 61.933 36.0997 59.5863 36.0997C59.3908 36.0997 59.2148 36.0997 58.9996 36.1192V36.1388ZM65.0032 62.0694C67.213 62.0694 69.0316 60.2117 69.0121 58.0214C69.0121 55.8117 67.1739 53.993 64.9641 53.993C62.7348 53.993 60.877 55.8508 60.9161 58.0605C60.9552 60.2703 62.7739 62.0694 64.9836 62.0694H65.0032ZM36.2174 58.041C36.2174 55.8312 34.4183 54.0125 32.2085 53.993C29.9988 53.9734 28.1605 55.7921 28.141 57.9823C28.1214 60.1921 29.9205 62.0303 32.1303 62.0694C34.3596 62.089 36.2174 60.2899 36.2174 58.041ZM58.9801 34.1832H67.9952C67.9952 32.9512 67.1347 32.1299 65.8441 32.1299C63.7125 32.1299 61.581 32.1299 59.469 32.1299C59.3125 32.1299 59.1756 32.1494 58.9801 32.169V34.2028V34.1832ZM72.9623 50.1014V48.0285H70.9481C70.7916 49.9254 71.1045 50.2383 72.9623 50.1014Z" fill="#765BA7"/>
<path d="M47.0697 53.9735C44.8403 53.9735 42.611 53.9735 40.3817 53.9735C40.0688 53.9735 39.6777 53.8561 39.443 53.6606C38.9541 53.2304 39.1888 52.409 39.8146 52.2135C40.0101 52.1548 40.2252 52.1353 40.4403 52.1353C44.8599 52.1353 49.2795 52.1353 53.6795 52.1353C53.8163 52.1353 53.9532 52.1353 54.0901 52.1353C54.6181 52.2135 54.9701 52.585 54.9506 53.0544C54.9506 53.5628 54.579 53.9539 54.0119 53.9735C53.0537 53.993 52.0759 53.9735 51.0981 53.9735C49.7488 53.9735 48.3799 53.9735 47.0306 53.9735H47.0697Z" fill="#765BA7"/>
<path d="M24.229 50.0038C22.3126 50.0038 20.3962 50.0038 18.4797 50.0038C17.7366 50.0038 17.3259 49.6518 17.3259 49.0847C17.3259 48.5176 17.7757 48.146 18.4993 48.146C22.3322 48.146 26.165 48.146 29.9979 48.146C30.8779 48.146 31.3668 48.8304 31.0148 49.4953C30.7997 49.906 30.4282 50.0038 29.9979 50.0038C28.0815 50.0038 26.165 50.0038 24.2486 50.0038H24.229Z" fill="#765BA7"/>
<path d="M64.9836 56.1245C66.0591 56.1245 66.9196 56.9654 66.9196 58.041C66.9196 59.097 66.0396 59.977 65.0031 59.977C63.9471 59.977 63.0867 59.097 63.0867 58.041C63.0867 56.9654 63.9276 56.1245 65.0031 56.1245H64.9836Z" fill="#765BA7"/>
<path d="M34.0861 58.0214C34.0861 59.097 33.2452 59.9574 32.1892 59.9574C31.1527 59.9574 30.2532 59.0774 30.2532 58.041C30.2532 56.985 31.1136 56.1245 32.1696 56.1245C33.2452 56.1245 34.0861 56.9458 34.0861 58.0214Z" fill="#765BA7"/>
<path d="M32.4229 64.2205C36.0194 64.2205 38.9349 61.305 38.9349 57.7085C38.9349 54.1121 36.0194 51.1965 32.4229 51.1965C28.8264 51.1965 25.9109 54.1121 25.9109 57.7085C25.9109 61.305 28.8264 64.2205 32.4229 64.2205Z" fill="#005895"/>
<path d="M32.3836 60.5833C33.9064 60.5833 35.1409 59.3488 35.1409 57.8259C35.1409 56.3031 33.9064 55.0686 32.3836 55.0686C30.8607 55.0686 29.6262 56.3031 29.6262 57.8259C29.6262 59.3488 30.8607 60.5833 32.3836 60.5833Z" fill="white"/>
<path d="M64.5533 65.0223C68.1497 65.0223 71.0653 62.1068 71.0653 58.5103C71.0653 54.9138 68.1497 51.9983 64.5533 51.9983C60.9568 51.9983 58.0413 54.9138 58.0413 58.5103C58.0413 62.1068 60.9568 65.0223 64.5533 65.0223Z" fill="#005895"/>
<path d="M64.4946 61.385C66.0175 61.385 67.252 60.1505 67.252 58.6277C67.252 57.1049 66.0175 55.8704 64.4946 55.8704C62.9718 55.8704 61.7373 57.1049 61.7373 58.6277C61.7373 60.1505 62.9718 61.385 64.4946 61.385Z" fill="white"/>
<path d="M58.9015 42.377L68.7966 42.5139L67.9166 37.2925C67.7992 36.5885 67.193 36.0801 66.489 36.0801H58.8232L58.8819 42.3574L58.9015 42.377Z" fill="#C7E6F7"/>
<path d="M33.4192 40.2956L36.7402 43.6166C36.9981 43.8745 37.4162 43.8745 37.6741 43.6166L45.1545 36.1362" stroke="#F58E25" stroke-width="2.64141" stroke-linecap="round"/>
<g opacity="0.1">
<path d="M58.6137 26.7893H55.3088V56.4935H58.6137V26.7893Z" fill="#765BA7"/>
</g>
</g>
<defs>
<clipPath id="clip0_43_121726">
<rect width="88" height="88" fill="white"/>
</clipPath>
</defs>
</svg>
