<svg width="80" height="80" viewBox="0 0 80 80" fill="none" xmlns="http://www.w3.org/2000/svg">
<circle cx="40" cy="26.0001" r="22" fill="#592266"/>
<path fill-rule="evenodd" clip-rule="evenodd" d="M46.4641 22.0798C46.9724 22.6126 46.9525 23.4566 46.4197 23.9649L39.0822 30.9649C38.5667 31.4566 37.7557 31.4563 37.2407 30.9641L33.5782 27.4641C33.0458 26.9553 33.0266 26.1113 33.5354 25.579C34.0442 25.0466 34.8882 25.0274 35.4205 25.5362L38.1626 28.1566L44.579 22.0354C45.1118 21.5271 45.9558 21.547 46.4641 22.0798Z" fill="white"/>
<path fill-rule="evenodd" clip-rule="evenodd" d="M39.9993 15.3335C34.1083 15.3335 29.3327 20.1091 29.3327 26.0001C29.3327 31.8912 34.1083 36.6668 39.9993 36.6668C45.8904 36.6668 50.666 31.8912 50.666 26.0001C50.666 20.1091 45.8904 15.3335 39.9993 15.3335ZM26.666 26.0001C26.666 18.6363 32.6356 12.6668 39.9993 12.6668C47.3631 12.6668 53.3327 18.6363 53.3327 26.0001C53.3327 33.3639 47.3631 39.3335 39.9993 39.3335C32.6356 39.3335 26.666 33.3639 26.666 26.0001Z" fill="white"/>
<path d="M18.2969 69.1212C20.3477 69.1212 21.373 67.9415 21.373 65.5822C21.373 63.5275 20.3477 62.5001 18.2969 62.5001H16.334V69.1212H18.2969ZM15.25 70.0001V61.6212H18.2969C21.0703 61.6212 22.457 62.9415 22.457 65.5822C22.457 68.5275 21.0703 70.0001 18.2969 70.0001H15.25ZM26.459 63.8478C28.209 63.8478 29.084 64.713 29.084 66.4435C29.084 66.6896 29.0664 66.9532 29.0312 67.2345H24.7129C24.7129 68.4923 25.4473 69.1212 26.916 69.1212C27.6152 69.1212 28.2363 69.0431 28.7793 68.8868V69.7657C28.2363 69.922 27.5762 70.0001 26.7988 70.0001C24.6855 70.0001 23.6289 68.9513 23.6289 66.8536C23.6289 64.8497 24.5723 63.8478 26.459 63.8478ZM24.7129 66.3322H28.041C28.0176 65.254 27.4902 64.715 26.459 64.715C25.3652 64.715 24.7832 65.254 24.7129 66.3322ZM31.6855 61.6212V70.0001H30.6016V61.6212H31.6855ZM34.709 63.8478V70.0001H33.625V63.8478H34.709ZM34.709 61.6212V62.6466H33.625V61.6212H34.709ZM35.7109 63.8478H36.8828L38.6465 68.67L40.3984 63.8478H41.5703L39.0684 70.0001H38.0605L35.7109 63.8478ZM44.9863 63.8478C46.7363 63.8478 47.6113 64.713 47.6113 66.4435C47.6113 66.6896 47.5938 66.9532 47.5586 67.2345H43.2402C43.2402 68.4923 43.9746 69.1212 45.4434 69.1212C46.1426 69.1212 46.7637 69.0431 47.3066 68.8868V69.7657C46.7637 69.922 46.1035 70.0001 45.3262 70.0001C43.2129 70.0001 42.1562 68.9513 42.1562 66.8536C42.1562 64.8497 43.0996 63.8478 44.9863 63.8478ZM43.2402 66.3322H46.5684C46.5449 65.254 46.0176 64.715 44.9863 64.715C43.8926 64.715 43.3105 65.254 43.2402 66.3322ZM49.0703 70.0001V63.8478H49.8027L49.9961 64.6329C50.5352 64.1095 51.1836 63.8478 51.9414 63.8478V64.7501C51.207 64.7501 50.6113 65.0099 50.1543 65.5294V70.0001H49.0703ZM55.5684 63.8478C57.3184 63.8478 58.1934 64.713 58.1934 66.4435C58.1934 66.6896 58.1758 66.9532 58.1406 67.2345H53.8223C53.8223 68.4923 54.5566 69.1212 56.0254 69.1212C56.7246 69.1212 57.3457 69.0431 57.8887 68.8868V69.7657C57.3457 69.922 56.6855 70.0001 55.9082 70.0001C53.7949 70.0001 52.7383 68.9513 52.7383 66.8536C52.7383 64.8497 53.6816 63.8478 55.5684 63.8478ZM53.8223 66.3322H57.1504C57.127 65.254 56.5996 64.715 55.5684 64.715C54.4746 64.715 53.8926 65.254 53.8223 66.3322ZM63.7832 65.1017C63.3457 64.8907 62.8457 64.7853 62.2832 64.7853C61.0449 64.7853 60.4258 65.4435 60.4258 66.7599C60.4258 68.3185 61.0449 69.0978 62.2832 69.0978C62.8457 69.0978 63.3457 69.0216 63.7832 68.8693V65.1017ZM64.8672 69.631C64.1211 69.8771 63.2012 70.0001 62.1074 70.0001C60.2754 70.0001 59.3594 68.9337 59.3594 66.8009C59.3594 64.8322 60.332 63.8478 62.2773 63.8478C62.8086 63.8478 63.3105 63.9454 63.7832 64.1407V61.6212H64.8672V69.631Z" fill="#383838"/>
</svg>
