<svg width="80" height="80" viewBox="0 0 80 80" fill="none" xmlns="http://www.w3.org/2000/svg">
<circle cx="40" cy="26" r="22" fill="#DADADA"/>
<path fill-rule="evenodd" clip-rule="evenodd" d="M46.466 22.0796C46.9743 22.6124 46.9545 23.4564 46.4217 23.9647L39.0842 30.9647C38.5687 31.4565 37.7577 31.4561 37.2426 30.9639L33.5801 27.4639C33.0477 26.9552 33.0286 26.1112 33.5374 25.5788C34.0461 25.0464 34.8901 25.0273 35.4225 25.536L38.1646 28.1565L44.5809 22.0353C45.1138 21.527 45.9577 21.5468 46.466 22.0796Z" fill="#939699"/>
<path fill-rule="evenodd" clip-rule="evenodd" d="M40.0013 15.3333C34.1103 15.3333 29.3346 20.109 29.3346 26C29.3346 31.891 34.1103 36.6667 40.0013 36.6667C45.8923 36.6667 50.668 31.891 50.668 26C50.668 20.109 45.8923 15.3333 40.0013 15.3333ZM26.668 26C26.668 18.6362 32.6375 12.6667 40.0013 12.6667C47.3651 12.6667 53.3346 18.6362 53.3346 26C53.3346 33.3638 47.3651 39.3333 40.0013 39.3333C32.6375 39.3333 26.668 33.3638 26.668 26Z" fill="#939699"/>
<path d="M23.2258 66.704C23.2258 67.348 23.1238 67.934 22.9198 68.462C22.7158 68.99 22.4278 69.442 22.0558 69.818C21.6838 70.194 21.2358 70.486 20.7118 70.694C20.1918 70.898 19.6158 71 18.9838 71H15.7738V62.402H18.9838C19.6158 62.402 20.1918 62.506 20.7118 62.714C21.2358 62.918 21.6838 63.21 22.0558 63.59C22.4278 63.966 22.7158 64.418 22.9198 64.946C23.1238 65.474 23.2258 66.06 23.2258 66.704ZM22.0318 66.704C22.0318 66.176 21.9598 65.704 21.8158 65.288C21.6718 64.872 21.4678 64.52 21.2038 64.232C20.9398 63.944 20.6198 63.724 20.2438 63.572C19.8678 63.42 19.4478 63.344 18.9838 63.344H16.9378V70.058H18.9838C19.4478 70.058 19.8678 69.982 20.2438 69.83C20.6198 69.678 20.9398 69.46 21.2038 69.176C21.4678 68.888 21.6718 68.536 21.8158 68.12C21.9598 67.704 22.0318 67.232 22.0318 66.704ZM28.6367 67.298C28.6367 67.05 28.6007 66.824 28.5287 66.62C28.4607 66.412 28.3587 66.234 28.2227 66.086C28.0907 65.934 27.9287 65.818 27.7367 65.738C27.5447 65.654 27.3267 65.612 27.0827 65.612C26.5707 65.612 26.1647 65.762 25.8647 66.062C25.5687 66.358 25.3847 66.77 25.3127 67.298H28.6367ZM29.5007 70.148C29.3687 70.308 29.2107 70.448 29.0267 70.568C28.8427 70.684 28.6447 70.78 28.4327 70.856C28.2247 70.932 28.0087 70.988 27.7847 71.024C27.5607 71.064 27.3387 71.084 27.1187 71.084C26.6987 71.084 26.3107 71.014 25.9547 70.874C25.6027 70.73 25.2967 70.522 25.0367 70.25C24.7807 69.974 24.5807 69.634 24.4367 69.23C24.2927 68.826 24.2207 68.362 24.2207 67.838C24.2207 67.414 24.2847 67.018 24.4127 66.65C24.5447 66.282 24.7327 65.964 24.9767 65.696C25.2207 65.424 25.5187 65.212 25.8707 65.06C26.2227 64.904 26.6187 64.826 27.0587 64.826C27.4227 64.826 27.7587 64.888 28.0667 65.012C28.3787 65.132 28.6467 65.308 28.8707 65.54C29.0987 65.768 29.2767 66.052 29.4047 66.392C29.5327 66.728 29.5967 67.112 29.5967 67.544C29.5967 67.712 29.5787 67.824 29.5427 67.88C29.5067 67.936 29.4387 67.964 29.3387 67.964H25.2767C25.2887 68.348 25.3407 68.682 25.4327 68.966C25.5287 69.25 25.6607 69.488 25.8287 69.68C25.9967 69.868 26.1967 70.01 26.4287 70.106C26.6607 70.198 26.9207 70.244 27.2087 70.244C27.4767 70.244 27.7067 70.214 27.8987 70.154C28.0947 70.09 28.2627 70.022 28.4027 69.95C28.5427 69.878 28.6587 69.812 28.7507 69.752C28.8467 69.688 28.9287 69.656 28.9967 69.656C29.0847 69.656 29.1527 69.69 29.2007 69.758L29.5007 70.148ZM32.0125 62.162V71H30.9445V62.162H32.0125ZM34.8724 64.922V71H33.8044V64.922H34.8724ZM35.1004 63.014C35.1004 63.118 35.0784 63.216 35.0344 63.308C34.9944 63.396 34.9384 63.476 34.8664 63.548C34.7984 63.616 34.7164 63.67 34.6204 63.71C34.5284 63.75 34.4304 63.77 34.3264 63.77C34.2224 63.77 34.1244 63.75 34.0324 63.71C33.9444 63.67 33.8664 63.616 33.7984 63.548C33.7304 63.476 33.6764 63.396 33.6364 63.308C33.5964 63.216 33.5764 63.118 33.5764 63.014C33.5764 62.91 33.5964 62.812 33.6364 62.72C33.6764 62.624 33.7304 62.542 33.7984 62.474C33.8664 62.402 33.9444 62.346 34.0324 62.306C34.1244 62.266 34.2224 62.246 34.3264 62.246C34.4304 62.246 34.5284 62.266 34.6204 62.306C34.7164 62.346 34.7984 62.402 34.8664 62.474C34.9384 62.542 34.9944 62.624 35.0344 62.72C35.0784 62.812 35.1004 62.91 35.1004 63.014ZM41.8353 64.922L39.3573 71H38.3973L35.9193 64.922H36.7893C36.8773 64.922 36.9493 64.944 37.0053 64.988C37.0613 65.032 37.0993 65.084 37.1193 65.144L38.6613 69.056C38.7093 69.204 38.7513 69.348 38.7873 69.488C38.8233 69.628 38.8573 69.768 38.8893 69.908C38.9213 69.768 38.9553 69.628 38.9913 69.488C39.0273 69.348 39.0713 69.204 39.1233 69.056L40.6833 65.144C40.7073 65.08 40.7473 65.028 40.8033 64.988C40.8593 64.944 40.9253 64.922 41.0013 64.922H41.8353ZM46.7187 67.298C46.7187 67.05 46.6827 66.824 46.6107 66.62C46.5427 66.412 46.4407 66.234 46.3047 66.086C46.1727 65.934 46.0107 65.818 45.8187 65.738C45.6267 65.654 45.4087 65.612 45.1647 65.612C44.6527 65.612 44.2467 65.762 43.9467 66.062C43.6507 66.358 43.4667 66.77 43.3947 67.298H46.7187ZM47.5827 70.148C47.4507 70.308 47.2927 70.448 47.1087 70.568C46.9247 70.684 46.7267 70.78 46.5147 70.856C46.3067 70.932 46.0907 70.988 45.8667 71.024C45.6427 71.064 45.4207 71.084 45.2007 71.084C44.7807 71.084 44.3927 71.014 44.0367 70.874C43.6847 70.73 43.3787 70.522 43.1187 70.25C42.8627 69.974 42.6627 69.634 42.5187 69.23C42.3747 68.826 42.3027 68.362 42.3027 67.838C42.3027 67.414 42.3667 67.018 42.4947 66.65C42.6267 66.282 42.8147 65.964 43.0587 65.696C43.3027 65.424 43.6007 65.212 43.9527 65.06C44.3047 64.904 44.7007 64.826 45.1407 64.826C45.5047 64.826 45.8407 64.888 46.1487 65.012C46.4607 65.132 46.7287 65.308 46.9527 65.54C47.1807 65.768 47.3587 66.052 47.4867 66.392C47.6147 66.728 47.6787 67.112 47.6787 67.544C47.6787 67.712 47.6607 67.824 47.6247 67.88C47.5887 67.936 47.5207 67.964 47.4207 67.964H43.3587C43.3707 68.348 43.4227 68.682 43.5147 68.966C43.6107 69.25 43.7427 69.488 43.9107 69.68C44.0787 69.868 44.2787 70.01 44.5107 70.106C44.7427 70.198 45.0027 70.244 45.2907 70.244C45.5587 70.244 45.7887 70.214 45.9807 70.154C46.1767 70.09 46.3447 70.022 46.4847 69.95C46.6247 69.878 46.7407 69.812 46.8327 69.752C46.9287 69.688 47.0107 69.656 47.0787 69.656C47.1667 69.656 47.2347 69.69 47.2827 69.758L47.5827 70.148ZM50.0045 66.14C50.1965 65.724 50.4325 65.4 50.7125 65.168C50.9925 64.932 51.3345 64.814 51.7385 64.814C51.8665 64.814 51.9885 64.828 52.1045 64.856C52.2245 64.884 52.3305 64.928 52.4225 64.988L52.3445 65.786C52.3205 65.886 52.2605 65.936 52.1645 65.936C52.1085 65.936 52.0265 65.924 51.9185 65.9C51.8105 65.876 51.6885 65.864 51.5525 65.864C51.3605 65.864 51.1885 65.892 51.0365 65.948C50.8885 66.004 50.7545 66.088 50.6345 66.2C50.5185 66.308 50.4125 66.444 50.3165 66.608C50.2245 66.768 50.1405 66.952 50.0645 67.16V71H48.9905V64.922H49.6025C49.7185 64.922 49.7985 64.944 49.8425 64.988C49.8865 65.032 49.9165 65.108 49.9325 65.216L50.0045 66.14ZM57.1835 67.298C57.1835 67.05 57.1475 66.824 57.0755 66.62C57.0075 66.412 56.9055 66.234 56.7695 66.086C56.6375 65.934 56.4755 65.818 56.2835 65.738C56.0915 65.654 55.8735 65.612 55.6295 65.612C55.1175 65.612 54.7115 65.762 54.4115 66.062C54.1155 66.358 53.9315 66.77 53.8595 67.298H57.1835ZM58.0475 70.148C57.9155 70.308 57.7575 70.448 57.5735 70.568C57.3895 70.684 57.1915 70.78 56.9795 70.856C56.7715 70.932 56.5555 70.988 56.3315 71.024C56.1075 71.064 55.8855 71.084 55.6655 71.084C55.2455 71.084 54.8575 71.014 54.5015 70.874C54.1495 70.73 53.8435 70.522 53.5835 70.25C53.3275 69.974 53.1275 69.634 52.9835 69.23C52.8395 68.826 52.7675 68.362 52.7675 67.838C52.7675 67.414 52.8315 67.018 52.9595 66.65C53.0915 66.282 53.2795 65.964 53.5235 65.696C53.7675 65.424 54.0655 65.212 54.4175 65.06C54.7695 64.904 55.1655 64.826 55.6055 64.826C55.9695 64.826 56.3055 64.888 56.6135 65.012C56.9255 65.132 57.1935 65.308 57.4175 65.54C57.6455 65.768 57.8235 66.052 57.9515 66.392C58.0795 66.728 58.1435 67.112 58.1435 67.544C58.1435 67.712 58.1255 67.824 58.0895 67.88C58.0535 67.936 57.9855 67.964 57.8855 67.964H53.8235C53.8355 68.348 53.8875 68.682 53.9795 68.966C54.0755 69.25 54.2075 69.488 54.3755 69.68C54.5435 69.868 54.7435 70.01 54.9755 70.106C55.2075 70.198 55.4675 70.244 55.7555 70.244C56.0235 70.244 56.2535 70.214 56.4455 70.154C56.6415 70.09 56.8095 70.022 56.9495 69.95C57.0895 69.878 57.2055 69.812 57.2975 69.752C57.3935 69.688 57.4755 69.656 57.5435 69.656C57.6315 69.656 57.6995 69.69 57.7475 69.758L58.0475 70.148ZM63.4154 66.368C63.2154 66.1 62.9994 65.914 62.7674 65.81C62.5354 65.702 62.2754 65.648 61.9874 65.648C61.4234 65.648 60.9894 65.85 60.6854 66.254C60.3814 66.658 60.2294 67.234 60.2294 67.982C60.2294 68.378 60.2634 68.718 60.3314 69.002C60.3994 69.282 60.4994 69.514 60.6314 69.698C60.7634 69.878 60.9254 70.01 61.1174 70.094C61.3094 70.178 61.5274 70.22 61.7714 70.22C62.1234 70.22 62.4294 70.14 62.6894 69.98C62.9534 69.82 63.1954 69.594 63.4154 69.302V66.368ZM64.4834 62.162V71H63.8474C63.6954 71 63.5994 70.926 63.5594 70.778L63.4634 70.04C63.2034 70.352 62.9074 70.604 62.5754 70.796C62.2434 70.988 61.8594 71.084 61.4234 71.084C61.0754 71.084 60.7594 71.018 60.4754 70.886C60.1914 70.75 59.9494 70.552 59.7494 70.292C59.5494 70.032 59.3954 69.708 59.2874 69.32C59.1794 68.932 59.1254 68.486 59.1254 67.982C59.1254 67.534 59.1854 67.118 59.3054 66.734C59.4254 66.346 59.5974 66.01 59.8214 65.726C60.0454 65.442 60.3194 65.22 60.6434 65.06C60.9714 64.896 61.3394 64.814 61.7474 64.814C62.1194 64.814 62.4374 64.878 62.7014 65.006C62.9694 65.13 63.2074 65.304 63.4154 65.528V62.162H64.4834Z" fill="#939699"/>
</svg>
