<svg width="80" height="80" viewBox="0 0 80 80" fill="none" xmlns="http://www.w3.org/2000/svg">
<circle cx="40" cy="26.0001" r="22" fill="#412B71"/>
<g clip-path="url(#clip0_18_8131)">
<path fill-rule="evenodd" clip-rule="evenodd" d="M46.4648 22.0797C46.9731 22.6125 46.9533 23.4565 46.4204 23.9648L39.0829 30.9648C38.5675 31.4566 37.7565 31.4562 37.2414 30.964L33.5789 27.464C33.0465 26.9553 33.0274 26.1113 33.5361 25.5789C34.0449 25.0465 34.8889 25.0274 35.4213 25.5361L38.1634 28.1566L44.5797 22.0353C45.1125 21.527 45.9565 21.5469 46.4648 22.0797Z" fill="#FBFBFB"/>
<path fill-rule="evenodd" clip-rule="evenodd" d="M40.0001 15.3334C34.109 15.3334 29.3334 20.109 29.3334 26.0001C29.3334 31.8911 34.109 36.6667 40.0001 36.6667C45.8911 36.6667 50.6667 31.8911 50.6667 26.0001C50.6667 20.109 45.8911 15.3334 40.0001 15.3334ZM26.6667 26.0001C26.6667 18.6363 32.6363 12.6667 40.0001 12.6667C47.3639 12.6667 53.3334 18.6363 53.3334 26.0001C53.3334 33.3639 47.3639 39.3334 40.0001 39.3334C32.6363 39.3334 26.6667 33.3639 26.6667 26.0001Z" fill="#FBFBFB"/>
</g>
<path d="M23.6113 65.0978C23.6113 65.754 23.5273 66.3282 23.3594 66.8204C23.1914 67.3087 22.9453 67.715 22.6211 68.0392C22.3008 68.3595 21.9062 68.5997 21.4375 68.7599C20.9688 68.92 20.4102 69.0001 19.7617 69.0001H18.1562C18.0664 69.0001 17.9805 68.9708 17.8984 68.9122C17.8203 68.8497 17.7812 68.7423 17.7812 68.59V61.8282C17.7812 61.6759 17.8203 61.5704 17.8984 61.5118C17.9805 61.4493 18.0664 61.4181 18.1562 61.4181H19.873C20.5293 61.4181 21.084 61.504 21.5371 61.6759C21.9902 61.8439 22.3691 62.088 22.6738 62.4083C22.9824 62.7247 23.2148 63.1095 23.3711 63.5626C23.5312 64.0157 23.6113 64.5275 23.6113 65.0978ZM22.5508 65.1388C22.5508 64.7286 22.5 64.3478 22.3984 63.9962C22.2969 63.6407 22.1367 63.3341 21.918 63.0763C21.7031 62.8185 21.4297 62.6173 21.0977 62.4728C20.7656 62.3282 20.3379 62.256 19.8145 62.256H18.7891V68.1564H19.8262C20.3105 68.1564 20.7188 68.0958 21.0508 67.9747C21.3828 67.8536 21.6602 67.6681 21.8828 67.4181C22.1055 67.1681 22.2715 66.8556 22.3809 66.4806C22.4941 66.1017 22.5508 65.6544 22.5508 65.1388ZM29.5527 65.9884C29.5527 66.1407 29.5137 66.2501 29.4355 66.3165C29.3613 66.379 29.2754 66.4103 29.1777 66.4103H25.7207C25.7207 66.7032 25.75 66.9669 25.8086 67.2013C25.8672 67.4357 25.9648 67.6368 26.1016 67.8048C26.2383 67.9728 26.416 68.1017 26.6348 68.1915C26.8535 68.2814 27.1211 68.3263 27.4375 68.3263C27.6875 68.3263 27.9102 68.3068 28.1055 68.2677C28.3008 68.2247 28.4688 68.1779 28.6094 68.1271C28.7539 68.0763 28.8711 68.0314 28.9609 67.9923C29.0547 67.9493 29.125 67.9279 29.1719 67.9279C29.1992 67.9279 29.2227 67.9357 29.2422 67.9513C29.2656 67.963 29.2832 67.9825 29.2949 68.0099C29.3066 68.0372 29.3145 68.0763 29.3184 68.1271C29.3262 68.174 29.3301 68.2325 29.3301 68.3029C29.3301 68.3536 29.3281 68.3986 29.3242 68.4376C29.3203 68.4728 29.3145 68.506 29.3066 68.5372C29.3027 68.5646 29.293 68.59 29.2773 68.6134C29.2656 68.6368 29.248 68.6603 29.2246 68.6837C29.2051 68.7032 29.1426 68.7384 29.0371 68.7892C28.9316 68.8361 28.7949 68.8829 28.627 68.9298C28.459 68.9767 28.2637 69.0177 28.041 69.0529C27.8223 69.0919 27.5879 69.1115 27.3379 69.1115C26.9043 69.1115 26.5234 69.0509 26.1953 68.9298C25.8711 68.8087 25.5977 68.629 25.375 68.3907C25.1523 68.1525 24.9844 67.8536 24.8711 67.4943C24.7578 67.1349 24.7012 66.7169 24.7012 66.2404C24.7012 65.7872 24.7598 65.381 24.877 65.0216C24.9941 64.6583 25.1621 64.3517 25.3809 64.1017C25.6035 63.8478 25.8711 63.6544 26.1836 63.5216C26.4961 63.3849 26.8457 63.3165 27.2324 63.3165C27.6465 63.3165 27.998 63.3829 28.2871 63.5157C28.5801 63.6486 28.8203 63.8282 29.0078 64.0548C29.1953 64.2775 29.332 64.5411 29.418 64.8458C29.5078 65.1466 29.5527 65.4689 29.5527 65.8126V65.9884ZM28.5801 65.7013C28.5918 65.1935 28.4785 64.795 28.2402 64.506C28.0059 64.2169 27.6562 64.0724 27.1914 64.0724C26.9531 64.0724 26.7441 64.1173 26.5645 64.2072C26.3848 64.297 26.2344 64.4161 26.1133 64.5646C25.9922 64.713 25.8984 64.8868 25.832 65.0861C25.7656 65.2814 25.7285 65.4865 25.7207 65.7013H28.5801ZM31.9961 68.8536C31.9961 68.8849 31.9883 68.9122 31.9727 68.9357C31.957 68.9552 31.9316 68.9728 31.8965 68.9884C31.8613 69.004 31.8125 69.0157 31.75 69.0236C31.6875 69.0314 31.6074 69.0353 31.5098 69.0353C31.416 69.0353 31.3379 69.0314 31.2754 69.0236C31.2129 69.0157 31.1621 69.004 31.123 68.9884C31.0879 68.9728 31.0625 68.9552 31.0469 68.9357C31.0352 68.9122 31.0293 68.8849 31.0293 68.8536V61.0255C31.0293 60.9943 31.0352 60.9669 31.0469 60.9435C31.0625 60.92 31.0879 60.9005 31.123 60.8849C31.1621 60.8693 31.2129 60.8575 31.2754 60.8497C31.3379 60.8419 31.416 60.838 31.5098 60.838C31.6074 60.838 31.6875 60.8419 31.75 60.8497C31.8125 60.8575 31.8613 60.8693 31.8965 60.8849C31.9316 60.9005 31.957 60.92 31.9727 60.9435C31.9883 60.9669 31.9961 60.9943 31.9961 61.0255V68.8536ZM34.75 68.8536C34.75 68.8849 34.7422 68.9122 34.7266 68.9357C34.7109 68.9552 34.6855 68.9728 34.6504 68.9884C34.6152 69.004 34.5664 69.0157 34.5039 69.0236C34.4414 69.0314 34.3613 69.0353 34.2637 69.0353C34.1699 69.0353 34.0918 69.0314 34.0293 69.0236C33.9668 69.0157 33.916 69.004 33.877 68.9884C33.8418 68.9728 33.8164 68.9552 33.8008 68.9357C33.7891 68.9122 33.7832 68.8849 33.7832 68.8536V63.5802C33.7832 63.5529 33.7891 63.5275 33.8008 63.504C33.8164 63.4806 33.8418 63.4611 33.877 63.4454C33.916 63.4298 33.9668 63.4181 34.0293 63.4103C34.0918 63.4025 34.1699 63.3986 34.2637 63.3986C34.3613 63.3986 34.4414 63.4025 34.5039 63.4103C34.5664 63.4181 34.6152 63.4298 34.6504 63.4454C34.6855 63.4611 34.7109 63.4806 34.7266 63.504C34.7422 63.5275 34.75 63.5529 34.75 63.5802V68.8536ZM34.8613 61.799C34.8613 62.0255 34.8184 62.1798 34.7324 62.2618C34.6465 62.3439 34.4883 62.3849 34.2578 62.3849C34.0312 62.3849 33.875 62.3458 33.7891 62.2677C33.707 62.1857 33.666 62.0333 33.666 61.8107C33.666 61.5841 33.709 61.4298 33.7949 61.3478C33.8809 61.2657 34.0391 61.2247 34.2695 61.2247C34.4961 61.2247 34.6504 61.2657 34.7324 61.3478C34.8184 61.4259 34.8613 61.5763 34.8613 61.799ZM40.8613 63.5685C40.8613 63.5841 40.8594 63.6017 40.8555 63.6212C40.8555 63.6368 40.8535 63.6544 40.8496 63.674C40.8457 63.6935 40.8398 63.715 40.832 63.7384C40.8281 63.7618 40.8223 63.7872 40.8145 63.8146L39.0156 68.8243C39 68.8673 38.9785 68.9025 38.9512 68.9298C38.9277 68.9572 38.8906 68.9786 38.8398 68.9943C38.7891 69.0099 38.7246 69.0197 38.6465 69.0236C38.5684 69.0314 38.4707 69.0353 38.3535 69.0353C38.2363 69.0353 38.1387 69.0314 38.0605 69.0236C37.9824 69.0157 37.918 69.004 37.8672 68.9884C37.8203 68.9728 37.7832 68.9513 37.7559 68.924C37.7285 68.8966 37.707 68.8634 37.6914 68.8243L35.8984 63.8146C35.8828 63.7677 35.8691 63.7267 35.8574 63.6915C35.8496 63.6564 35.8438 63.631 35.8398 63.6154C35.8398 63.5958 35.8398 63.5802 35.8398 63.5685C35.8398 63.5372 35.8477 63.5099 35.8633 63.4865C35.8789 63.463 35.9043 63.4454 35.9395 63.4337C35.9785 63.4181 36.0273 63.4083 36.0859 63.4044C36.1484 63.4005 36.2246 63.3986 36.3145 63.3986C36.4277 63.3986 36.5176 63.4025 36.584 63.4103C36.6543 63.4142 36.707 63.424 36.7422 63.4396C36.7812 63.4552 36.8086 63.4747 36.8242 63.4982C36.8438 63.5216 36.8613 63.5509 36.877 63.5861L38.3652 67.9337L38.3887 68.004L38.4062 67.9337L39.877 63.5861C39.8848 63.5509 39.8984 63.5216 39.918 63.4982C39.9375 63.4747 39.9648 63.4552 40 63.4396C40.0391 63.424 40.0898 63.4142 40.1523 63.4103C40.2188 63.4025 40.3047 63.3986 40.4102 63.3986C40.5 63.3986 40.5742 63.4005 40.6328 63.4044C40.6914 63.4083 40.7363 63.4181 40.7676 63.4337C40.8027 63.4493 40.8262 63.4689 40.8379 63.4923C40.8535 63.5118 40.8613 63.5372 40.8613 63.5685ZM46.3457 65.9884C46.3457 66.1407 46.3066 66.2501 46.2285 66.3165C46.1543 66.379 46.0684 66.4103 45.9707 66.4103H42.5137C42.5137 66.7032 42.543 66.9669 42.6016 67.2013C42.6602 67.4357 42.7578 67.6368 42.8945 67.8048C43.0312 67.9728 43.209 68.1017 43.4277 68.1915C43.6465 68.2814 43.9141 68.3263 44.2305 68.3263C44.4805 68.3263 44.7031 68.3068 44.8984 68.2677C45.0938 68.2247 45.2617 68.1779 45.4023 68.1271C45.5469 68.0763 45.6641 68.0314 45.7539 67.9923C45.8477 67.9493 45.918 67.9279 45.9648 67.9279C45.9922 67.9279 46.0156 67.9357 46.0352 67.9513C46.0586 67.963 46.0762 67.9825 46.0879 68.0099C46.0996 68.0372 46.1074 68.0763 46.1113 68.1271C46.1191 68.174 46.123 68.2325 46.123 68.3029C46.123 68.3536 46.1211 68.3986 46.1172 68.4376C46.1133 68.4728 46.1074 68.506 46.0996 68.5372C46.0957 68.5646 46.0859 68.59 46.0703 68.6134C46.0586 68.6368 46.041 68.6603 46.0176 68.6837C45.998 68.7032 45.9355 68.7384 45.8301 68.7892C45.7246 68.8361 45.5879 68.8829 45.4199 68.9298C45.252 68.9767 45.0566 69.0177 44.834 69.0529C44.6152 69.0919 44.3809 69.1115 44.1309 69.1115C43.6973 69.1115 43.3164 69.0509 42.9883 68.9298C42.6641 68.8087 42.3906 68.629 42.168 68.3907C41.9453 68.1525 41.7773 67.8536 41.6641 67.4943C41.5508 67.1349 41.4941 66.7169 41.4941 66.2404C41.4941 65.7872 41.5527 65.381 41.6699 65.0216C41.7871 64.6583 41.9551 64.3517 42.1738 64.1017C42.3965 63.8478 42.6641 63.6544 42.9766 63.5216C43.2891 63.3849 43.6387 63.3165 44.0254 63.3165C44.4395 63.3165 44.791 63.3829 45.0801 63.5157C45.373 63.6486 45.6133 63.8282 45.8008 64.0548C45.9883 64.2775 46.125 64.5411 46.2109 64.8458C46.3008 65.1466 46.3457 65.4689 46.3457 65.8126V65.9884ZM45.373 65.7013C45.3848 65.1935 45.2715 64.795 45.0332 64.506C44.7988 64.2169 44.4492 64.0724 43.9844 64.0724C43.7461 64.0724 43.5371 64.1173 43.3574 64.2072C43.1777 64.297 43.0273 64.4161 42.9062 64.5646C42.7852 64.713 42.6914 64.8868 42.625 65.0861C42.5586 65.2814 42.5215 65.4865 42.5137 65.7013H45.373ZM50.9043 63.9259C50.9043 64.0118 50.9023 64.0841 50.8984 64.1427C50.8945 64.2013 50.8867 64.2482 50.875 64.2833C50.8633 64.3146 50.8477 64.34 50.8281 64.3595C50.8125 64.3751 50.7891 64.3829 50.7578 64.3829C50.7266 64.3829 50.6875 64.3751 50.6406 64.3595C50.5977 64.34 50.5469 64.3224 50.4883 64.3068C50.4336 64.2872 50.3711 64.2697 50.3008 64.254C50.2305 64.2384 50.1543 64.2306 50.0723 64.2306C49.9746 64.2306 49.8789 64.2501 49.7852 64.2892C49.6914 64.3282 49.5918 64.3927 49.4863 64.4825C49.3848 64.5724 49.2773 64.6915 49.1641 64.84C49.0508 64.9884 48.9258 65.17 48.7891 65.3849V68.8536C48.7891 68.8849 48.7812 68.9122 48.7656 68.9357C48.75 68.9552 48.7246 68.9728 48.6895 68.9884C48.6543 69.004 48.6055 69.0157 48.543 69.0236C48.4805 69.0314 48.4004 69.0353 48.3027 69.0353C48.209 69.0353 48.1309 69.0314 48.0684 69.0236C48.0059 69.0157 47.9551 69.004 47.916 68.9884C47.8809 68.9728 47.8555 68.9552 47.8398 68.9357C47.8281 68.9122 47.8223 68.8849 47.8223 68.8536V63.5802C47.8223 63.549 47.8281 63.5236 47.8398 63.504C47.8516 63.4806 47.875 63.4611 47.9102 63.4454C47.9453 63.4259 47.9902 63.4142 48.0449 63.4103C48.0996 63.4025 48.1719 63.3986 48.2617 63.3986C48.3477 63.3986 48.418 63.4025 48.4727 63.4103C48.5312 63.4142 48.5762 63.4259 48.6074 63.4454C48.6387 63.4611 48.6602 63.4806 48.6719 63.504C48.6875 63.5236 48.6953 63.549 48.6953 63.5802V64.3478C48.8398 64.1368 48.9746 63.965 49.0996 63.8322C49.2285 63.6993 49.3496 63.5958 49.4629 63.5216C49.5762 63.4435 49.6875 63.3907 49.7969 63.3634C49.9102 63.3322 50.0234 63.3165 50.1367 63.3165C50.1875 63.3165 50.2441 63.3204 50.3066 63.3282C50.373 63.3322 50.4414 63.3419 50.5117 63.3575C50.582 63.3732 50.6445 63.3907 50.6992 63.4103C50.7578 63.4298 50.7988 63.4493 50.8223 63.4689C50.8457 63.4884 50.8613 63.5079 50.8691 63.5275C50.877 63.5431 50.8828 63.5646 50.8867 63.5919C50.8945 63.6193 50.8984 63.6603 50.8984 63.715C50.9023 63.7657 50.9043 63.8361 50.9043 63.9259ZM56.3418 65.9884C56.3418 66.1407 56.3027 66.2501 56.2246 66.3165C56.1504 66.379 56.0645 66.4103 55.9668 66.4103H52.5098C52.5098 66.7032 52.5391 66.9669 52.5977 67.2013C52.6562 67.4357 52.7539 67.6368 52.8906 67.8048C53.0273 67.9728 53.2051 68.1017 53.4238 68.1915C53.6426 68.2814 53.9102 68.3263 54.2266 68.3263C54.4766 68.3263 54.6992 68.3068 54.8945 68.2677C55.0898 68.2247 55.2578 68.1779 55.3984 68.1271C55.543 68.0763 55.6602 68.0314 55.75 67.9923C55.8438 67.9493 55.9141 67.9279 55.9609 67.9279C55.9883 67.9279 56.0117 67.9357 56.0312 67.9513C56.0547 67.963 56.0723 67.9825 56.084 68.0099C56.0957 68.0372 56.1035 68.0763 56.1074 68.1271C56.1152 68.174 56.1191 68.2325 56.1191 68.3029C56.1191 68.3536 56.1172 68.3986 56.1133 68.4376C56.1094 68.4728 56.1035 68.506 56.0957 68.5372C56.0918 68.5646 56.082 68.59 56.0664 68.6134C56.0547 68.6368 56.0371 68.6603 56.0137 68.6837C55.9941 68.7032 55.9316 68.7384 55.8262 68.7892C55.7207 68.8361 55.584 68.8829 55.416 68.9298C55.248 68.9767 55.0527 69.0177 54.8301 69.0529C54.6113 69.0919 54.377 69.1115 54.127 69.1115C53.6934 69.1115 53.3125 69.0509 52.9844 68.9298C52.6602 68.8087 52.3867 68.629 52.1641 68.3907C51.9414 68.1525 51.7734 67.8536 51.6602 67.4943C51.5469 67.1349 51.4902 66.7169 51.4902 66.2404C51.4902 65.7872 51.5488 65.381 51.666 65.0216C51.7832 64.6583 51.9512 64.3517 52.1699 64.1017C52.3926 63.8478 52.6602 63.6544 52.9727 63.5216C53.2852 63.3849 53.6348 63.3165 54.0215 63.3165C54.4355 63.3165 54.7871 63.3829 55.0762 63.5157C55.3691 63.6486 55.6094 63.8282 55.7969 64.0548C55.9844 64.2775 56.1211 64.5411 56.207 64.8458C56.2969 65.1466 56.3418 65.4689 56.3418 65.8126V65.9884ZM55.3691 65.7013C55.3809 65.1935 55.2676 64.795 55.0293 64.506C54.7949 64.2169 54.4453 64.0724 53.9805 64.0724C53.7422 64.0724 53.5332 64.1173 53.3535 64.2072C53.1738 64.297 53.0234 64.4161 52.9023 64.5646C52.7812 64.713 52.6875 64.8868 52.6211 65.0861C52.5547 65.2814 52.5176 65.4865 52.5098 65.7013H55.3691ZM62.3359 68.8536C62.3359 68.8849 62.3281 68.9122 62.3125 68.9357C62.3008 68.9591 62.2773 68.9786 62.2422 68.9943C62.2109 69.006 62.168 69.0157 62.1133 69.0236C62.0586 69.0314 61.9922 69.0353 61.9141 69.0353C61.832 69.0353 61.7637 69.0314 61.709 69.0236C61.6543 69.0157 61.6094 69.006 61.5742 68.9943C61.5391 68.9786 61.5137 68.9591 61.498 68.9357C61.4824 68.9122 61.4746 68.8849 61.4746 68.8536V68.1564C61.1973 68.4572 60.9082 68.6915 60.6074 68.8595C60.3105 69.0275 59.9844 69.1115 59.6289 69.1115C59.2422 69.1115 58.9121 69.0372 58.6387 68.8888C58.3652 68.7365 58.1426 68.5333 57.9707 68.2794C57.8027 68.0216 57.6797 67.7208 57.6016 67.3771C57.5234 67.0294 57.4844 66.6642 57.4844 66.2814C57.4844 65.8282 57.5332 65.42 57.6309 65.0568C57.7285 64.6896 57.873 64.3771 58.0645 64.1193C58.2559 63.8615 58.4922 63.6642 58.7734 63.5275C59.0586 63.3868 59.3867 63.3165 59.7578 63.3165C60.0664 63.3165 60.3477 63.3849 60.6016 63.5216C60.8594 63.6544 61.1133 63.8517 61.3633 64.1134V61.049C61.3633 61.0216 61.3691 60.9962 61.3809 60.9728C61.3965 60.9454 61.4238 60.9259 61.4629 60.9142C61.502 60.8986 61.5508 60.8868 61.6094 60.879C61.6719 60.8673 61.75 60.8615 61.8438 60.8615C61.9414 60.8615 62.0215 60.8673 62.084 60.879C62.1465 60.8868 62.1953 60.8986 62.2305 60.9142C62.2656 60.9259 62.291 60.9454 62.3066 60.9728C62.3262 60.9962 62.3359 61.0216 62.3359 61.049V68.8536ZM61.3633 65.1447C61.1016 64.8204 60.8477 64.5743 60.6016 64.4064C60.3594 64.2345 60.1055 64.1486 59.8398 64.1486C59.5938 64.1486 59.3848 64.2072 59.2129 64.3243C59.041 64.4415 58.9004 64.5958 58.791 64.7872C58.6855 64.9786 58.6074 65.1954 58.5566 65.4376C58.5098 65.6798 58.4863 65.9259 58.4863 66.1759C58.4863 66.4415 58.5059 66.7013 58.5449 66.9552C58.5879 67.2091 58.6602 67.4357 58.7617 67.6349C58.8633 67.8302 58.998 67.9884 59.166 68.1095C59.334 68.2267 59.5449 68.2853 59.7988 68.2853C59.9277 68.2853 60.0508 68.2677 60.168 68.2325C60.2891 68.1974 60.4121 68.1388 60.5371 68.0568C60.6621 67.9747 60.793 67.8693 60.9297 67.7404C61.0664 67.6075 61.2109 67.4454 61.3633 67.254V65.1447Z" fill="#090909"/>
<defs>
<clipPath id="clip0_18_8131">
<rect width="32" height="32" fill="white" transform="translate(24 10.0001)"/>
</clipPath>
</defs>
</svg>
