<svg width="60" height="60" viewBox="0 0 60 60" fill="none" xmlns="http://www.w3.org/2000/svg">
<g clip-path="url(#clip0_615_39027)">
<path d="M30 60C46.5685 60 60 46.5685 60 30C60 13.4314 46.5685 0 30 0C13.4315 0 0 13.4314 0 30C0 46.5685 13.4315 60 30 60Z" fill="#EAE6F2"/>
<path d="M46.0765 17.3084V36.4645C46.0765 38.1032 44.7485 39.4199 43.1211 39.4199H36.295L31.2997 42.2961L25.7563 45.4832C24.92 45.9635 23.8633 45.3588 23.8633 44.3813L23.8746 39.4199H16.828C15.2006 39.4199 13.8727 38.1032 13.8727 36.4645V17.3084C13.8727 15.6697 15.2006 14.353 16.828 14.353H43.1211C44.7485 14.353 46.0765 15.6697 46.0765 17.3084Z" fill="#FAFBFC" stroke="#6A509B" stroke-width="1.13016" stroke-miterlimit="10"/>
<g style="mix-blend-mode:multiply" opacity="0.15">
<path d="M46.1274 17.3367V36.3911C46.1274 38.0185 44.8107 39.3352 43.1833 39.3352H36.3402L31.3449 42.2001L25.8015 45.3702C24.9652 45.8505 23.9085 45.2459 23.9085 44.2739V43.9405L28.6156 41.3299L34.8823 37.9338L41.149 37.8886C42.7764 37.8886 43.3924 37.2839 43.3924 35.696V17.1897C43.3924 15.7884 42.3357 14.6243 40.9625 14.387H43.1607C44.7881 14.387 46.1161 15.7149 46.1161 17.3423L46.1274 17.3367Z" fill="#6A509B"/>
</g>
<path d="M30.5199 35.2384C31.7901 35.2384 32.8197 34.2087 32.8197 32.9385C32.8197 31.6684 31.7901 30.6387 30.5199 30.6387C29.2497 30.6387 28.22 31.6684 28.22 32.9385C28.22 34.2087 29.2497 35.2384 30.5199 35.2384Z" fill="#005894"/>
<path d="M36.1254 29.1243C34.5093 27.6495 32.3564 26.751 30 26.751C27.6436 26.751 25.4794 27.6551 23.8633 29.13" stroke="#005894" stroke-width="2.26031" stroke-miterlimit="10"/>
<path d="M40.4935 25.389C37.7246 22.8688 34.0403 21.3318 30 21.3318C25.9597 21.3318 22.281 22.8688 19.5065 25.3834" stroke="#005894" stroke-width="2.26031" stroke-miterlimit="10"/>
</g>
<defs>
<clipPath id="clip0_615_39027">
<rect width="60" height="60" fill="white"/>
</clipPath>
</defs>
</svg>
