<svg width="60" height="60" viewBox="0 0 60 60" fill="none" xmlns="http://www.w3.org/2000/svg">
<g clip-path="url(#clip0_615_39026)">
<path d="M30 60C46.5686 60 60 46.5685 60 30C60 13.4315 46.5686 0 30 0C13.4315 0 0 13.4315 0 30C0 46.5685 13.4315 60 30 60Z" fill="#E4DEED"/>
<path d="M27.6888 40.1997L27.4798 42.9177H32.5146L32.3338 40.211L27.6888 40.1997Z" fill="#FAFBFC" stroke="#6A509B" stroke-width="1.13016" stroke-miterlimit="10"/>
<path d="M38.1824 43.0024H21.8177V45.3362H38.1824V43.0024Z" fill="#FAFBFC" stroke="#6A509B" stroke-width="1.13016" stroke-miterlimit="10"/>
<path d="M44.5564 15.8335H15.6131C14.8984 15.8335 14.3191 16.4129 14.3191 17.1275V38.8548C14.3191 39.5695 14.8984 40.1488 15.6131 40.1488H44.5564C45.2711 40.1488 45.8505 39.5695 45.8505 38.8548V17.1275C45.8505 16.4129 45.2711 15.8335 44.5564 15.8335Z" fill="#FAFBFC" stroke="#6A509B" stroke-width="1.13016" stroke-miterlimit="10"/>
<path d="M14.1496 35.8203H45.7035" stroke="#6A509B" stroke-width="1.13016" stroke-miterlimit="10"/>
<g style="mix-blend-mode:multiply" opacity="0.15">
<path d="M14.8729 36.3911H45.291V38.8266C45.291 39.2504 44.9463 39.5951 44.5225 39.5951H15.6414C15.2176 39.5951 14.8729 39.2504 14.8729 38.8266V36.3911Z" fill="#6A509B"/>
</g>
<g style="mix-blend-mode:multiply" opacity="0.15">
<path d="M44.2231 16.3987H44.5847C44.9633 16.3987 45.2741 16.7095 45.2741 17.0881V35.2553H44.2231V16.3987Z" fill="#6A509B"/>
</g>
<path d="M51.5126 24.6091H38.4988C37.5032 24.6091 36.6962 25.4162 36.6962 26.4117V43.9235C36.6962 44.9191 37.5032 45.7261 38.4988 45.7261H51.5126C52.5081 45.7261 53.3152 44.9191 53.3152 43.9235V26.4117C53.3152 25.4162 52.5081 24.6091 51.5126 24.6091Z" fill="#FAFBFC" stroke="#005894" stroke-width="1.13016" stroke-miterlimit="10"/>
<path d="M51.23 26.7112H38.8209C38.7366 26.7112 38.6683 26.7795 38.6683 26.8638V40.6573C38.6683 40.7416 38.7366 40.8099 38.8209 40.8099H51.23C51.3143 40.8099 51.3826 40.7416 51.3826 40.6573V26.8638C51.3826 26.7795 51.3143 26.7112 51.23 26.7112Z" fill="#FAFBFC" stroke="#005894" stroke-width="1.13016" stroke-miterlimit="10"/>
<path d="M45.0311 44.1155C45.4399 44.1155 45.7714 43.7841 45.7714 43.3753C45.7714 42.9664 45.4399 42.635 45.0311 42.635C44.6223 42.635 44.2909 42.9664 44.2909 43.3753C44.2909 43.7841 44.6223 44.1155 45.0311 44.1155Z" fill="#005894"/>
<g style="mix-blend-mode:multiply">
<path d="M50.8119 27.282H49.5461V40.2562H50.8119V27.282Z" fill="#D8E5EE"/>
</g>
</g>
<defs>
<clipPath id="clip0_615_39026">
<rect width="60" height="60" fill="white"/>
</clipPath>
</defs>
</svg>
