<svg width="64" height="64" viewBox="0 0 64 64" fill="none" xmlns="http://www.w3.org/2000/svg">
<g clip-path="url(#clip0_14_75557)">
<g opacity="0.2">
<path d="M32 64C49.6731 64 64 49.6731 64 32C64 14.3269 49.6731 0 32 0C14.3269 0 0 14.3269 0 32C0 49.6731 14.3269 64 32 64Z" fill="#7DCFDD"/>
</g>
<path d="M47.994 7.47852H16.4356C16.167 7.47852 15.9492 7.69628 15.9492 7.96492V27.0113C15.9492 27.2799 16.167 27.4977 16.4356 27.4977H47.994C48.2626 27.4977 48.4804 27.2799 48.4804 27.0113V7.96492C48.4804 7.69628 48.2626 7.47852 47.994 7.47852Z" fill="#FAFBFC"/>
<path d="M47.9965 27.9775H16.4349C15.9037 27.9775 15.4717 27.5455 15.4717 27.0143V7.96466C15.4717 7.43346 15.9037 7.00146 16.4349 7.00146H47.9965C48.5277 7.00146 48.9597 7.43346 48.9597 7.96466V27.0143C48.9597 27.5455 48.5277 27.9775 47.9965 27.9775ZM16.4349 7.95827L16.4285 27.0143L16.4349 27.0207H47.9965L48.0029 7.96466L16.4349 7.95827Z" fill="#090909"/>
<path d="M23.0813 16.0063H22.4893V19.8975H23.0813V16.0063Z" fill="#090909"/>
<path d="M24.1125 16.0063H23.6133V19.8975H24.1125V16.0063Z" fill="#090909"/>
<path d="M25.2316 16.0063H24.6396V19.8975H25.2316V16.0063Z" fill="#090909"/>
<path d="M26.4956 16.0063H25.7852V19.8975H26.4956V16.0063Z" fill="#090909"/>
<path d="M27.5139 16.0063H27.0146V19.8975H27.5139V16.0063Z" fill="#090909"/>
<path d="M28.4133 16.0063H27.9141V19.8975H28.4133V16.0063Z" fill="#090909"/>
<path d="M29.4885 16.0063H28.9893V19.8975H29.4885V16.0063Z" fill="#090909"/>
<path d="M32.4484 16.7072H31.738V15.0112H29.5684V14.3008H32.4484V16.7072Z" fill="#090909"/>
<path d="M32.4484 19.2002V21.6066H29.5684V20.8962H31.738V19.2002H32.4484Z" fill="#090909"/>
<path d="M20.2875 16.7072H19.5771V14.3008H22.4571V15.0112H20.2875V16.7072Z" fill="#090909"/>
<path d="M22.4571 21.6066H19.5771V19.2002H20.2875V20.8962H22.4571V21.6066Z" fill="#090909"/>
<g style="mix-blend-mode:multiply" opacity="0.25">
<path d="M38.3613 23.501C38.3613 23.501 43.8013 30.4418 38.5981 41.9682C38.5981 41.9682 50.9949 26.2658 38.3613 23.501Z" fill="#E0D4FF"/>
</g>
<path d="M43.9262 27.9006C42.9406 23.1006 39.2958 23.1006 32.0382 23.1006H31.9582C24.7038 23.1006 21.059 23.1006 20.0702 27.9006C19.6478 29.9422 19.8622 32.1438 20.6942 34.2686C22.1246 37.9134 23.747 40.355 25.3982 41.9678C25.6414 42.211 25.8014 42.5182 25.8334 42.8606L27.1294 53.3214C27.2766 54.7454 28.3166 55.9326 29.7214 56.2334C30.0574 56.3038 30.3966 56.355 30.7326 56.3934L30.9918 59.6318C31.0366 60.1758 31.4878 60.595 32.035 60.595C32.5822 60.595 33.0334 60.1758 33.0782 59.6318L33.3406 56.3806C33.651 56.3422 33.9614 56.2974 34.2718 56.2334C35.6734 55.9326 36.7134 54.7422 36.8638 53.3214L38.1598 42.8606C38.1918 42.5182 38.355 42.211 38.595 41.9678C40.2462 40.3582 41.8718 37.9134 43.299 34.2686C44.131 32.1406 44.3454 29.939 43.923 27.9006H43.9262ZM39.0398 33.651C37.8014 36.8254 35.5742 40.611 32.0286 40.611H31.9678C28.4222 40.611 26.195 36.8254 24.9566 33.651C24.611 32.7646 24.4286 31.8558 24.4286 30.9822C24.4286 30.5598 24.4702 30.1438 24.5534 29.7374C25.0302 27.4494 26.4798 27.3566 31.9646 27.3566H32.0254C37.5134 27.3566 38.9598 27.4526 39.4366 29.7374C39.523 30.1438 39.5614 30.5598 39.5614 30.9822C39.5614 31.8558 39.3822 32.7614 39.0334 33.651H39.0398Z" fill="#FAFBFC"/>
<path d="M32.0386 61.1167C31.2258 61.1167 30.541 60.4831 30.4738 59.6735L30.2466 56.8575C30.0194 56.8255 29.8146 56.7871 29.613 56.7455C27.9906 56.3967 26.7842 55.0399 26.6114 53.3759L25.3186 42.9279C25.2898 42.6495 25.149 42.4575 25.0306 42.3391C23.1714 40.5247 21.5458 37.8719 20.2082 34.4607C19.3378 32.2399 19.1138 29.9359 19.5586 27.7951C20.6306 22.5791 24.653 22.5791 31.9554 22.5791H32.0354C39.3378 22.5791 43.3602 22.5791 44.4322 27.7951C44.877 29.9359 44.653 32.2399 43.7826 34.4607C42.445 37.8719 40.8226 40.5215 38.957 42.3423C38.845 42.4543 38.701 42.6463 38.6754 42.9119L37.3794 53.3855C37.2066 55.0431 36.0002 56.3967 34.381 56.7455C34.1922 56.7839 34.0034 56.8159 33.8274 56.8447L33.6002 59.6767C33.5362 60.4863 32.8482 61.1199 32.0354 61.1199L32.0386 61.1167ZM31.9586 23.6255C24.7682 23.6255 21.485 23.6255 20.5858 28.0063C20.1826 29.9487 20.3906 32.0479 21.1842 34.0799C22.4674 37.3503 24.0098 39.8783 25.7666 41.5935C26.109 41.9359 26.3138 42.3551 26.3586 42.8095L27.6514 53.2575C27.7794 54.4831 28.6562 55.4687 29.8338 55.7247C30.1186 55.7855 30.4258 55.8335 30.797 55.8783L31.2226 55.9295L31.517 59.5935C31.5394 59.8623 31.7666 60.0735 32.0386 60.0735C32.3106 60.0735 32.5378 59.8623 32.5602 59.5935L32.8546 55.9199L33.277 55.8687C33.5426 55.8367 33.8594 55.7919 34.1666 55.7279C35.3442 55.4751 36.221 54.4863 36.3458 53.2735L37.6418 42.8031C37.6834 42.3647 37.8882 41.9455 38.2274 41.6063C39.9906 39.8847 41.533 37.3567 42.8162 34.0863C43.6098 32.0543 43.8178 29.9551 43.4146 28.0127C42.5154 23.6319 39.2322 23.6319 32.0418 23.6319H31.9618L31.9586 23.6255ZM32.029 41.1359H31.9682C28.1218 41.1359 25.7666 37.1679 24.4706 33.8431C24.0962 32.8863 23.9074 31.9231 23.9074 30.9855C23.9074 30.5215 23.9522 30.0671 24.045 29.6351C24.6274 26.8383 26.7778 26.8383 31.9682 26.8383H32.029C37.2226 26.8383 39.3698 26.8383 39.9522 29.6351C40.0418 30.0671 40.0898 30.5215 40.0898 30.9855C40.0898 31.9231 39.901 32.8863 39.5266 33.8431C38.2274 37.1711 35.8754 41.1359 32.029 41.1359ZM31.9682 27.8815C25.9586 27.8815 25.4146 28.1791 25.069 29.8463C24.9922 30.2079 24.9538 30.5919 24.9538 30.9823C24.9538 31.7919 25.1202 32.6239 25.4434 33.4591C26.6242 36.4831 28.7138 40.0863 31.9682 40.0863H32.029C35.2834 40.0863 37.373 36.4831 38.5538 33.4591C38.8802 32.6239 39.0434 31.7887 39.0434 30.9823C39.0434 30.5887 39.005 30.2079 38.9282 29.8463C38.5474 28.0255 37.5362 27.8783 32.0258 27.8783H31.965L31.9682 27.8815Z" fill="#6A509A"/>
<path d="M32.0383 29.2544C32.0383 29.2544 32.0127 29.2544 31.9999 29.2544C31.9871 29.2544 31.9743 29.2544 31.9615 29.2544C29.7279 29.2544 27.9199 30.0416 27.9199 31.0144C27.9199 31.9872 29.7311 32.7744 31.9615 32.7744C31.9743 32.7744 31.9871 32.7744 31.9999 32.7744C32.0127 32.7744 32.0255 32.7744 32.0383 32.7744C34.2719 32.7744 36.0799 31.9872 36.0799 31.0144C36.0799 30.0416 34.2687 29.2544 32.0383 29.2544Z" fill="#090909"/>
<path d="M12.4805 18.9278H14.8037H16.8837H26.3557H28.4357H31.9173H33.9973H46.4485H48.5253H51.2005V17.5166H48.5253H46.4485H16.8837H14.8037H12.4805V18.9278Z" fill="#E36666"/>
<path d="M20 10C20 4.47715 15.5228 0 10 0C4.47715 0 0 4.47715 0 10C0 15.5228 4.47715 20 10 20C15.5228 20 20 15.5228 20 10Z" fill="#6A509A"/>
<path d="M12.6442 11.2808C12.6442 11.6657 12.572 12.0064 12.4237 12.3031C12.2754 12.5997 12.0749 12.8483 11.8104 13.0527C11.5498 13.2532 11.2371 13.4095 10.8723 13.5137C10.5075 13.618 10.1106 13.6701 9.67766 13.6701C9.41709 13.6701 9.17255 13.65 8.94004 13.614C8.70753 13.5779 8.50709 13.5298 8.3307 13.4737C8.15431 13.4175 8.00999 13.3614 7.89374 13.3013C7.77748 13.2411 7.70532 13.197 7.66924 13.165C7.63316 13.1329 7.6051 13.0968 7.58907 13.0567C7.57303 13.0167 7.557 12.9726 7.54096 12.9164C7.52493 12.8643 7.51691 12.7962 7.5129 12.716C7.50889 12.6358 7.50488 12.5356 7.50488 12.4233C7.50488 12.2349 7.52092 12.1026 7.55299 12.0305C7.58506 11.9583 7.63317 11.9222 7.69731 11.9222C7.73739 11.9222 7.80554 11.9503 7.90176 12.0024C7.99797 12.0545 8.12224 12.1147 8.27057 12.1748C8.4229 12.2349 8.59929 12.2951 8.79973 12.3472C9.00017 12.3993 9.23268 12.4274 9.48925 12.4274C9.70573 12.4274 9.89815 12.4033 10.0665 12.3512C10.2349 12.2991 10.3752 12.2269 10.4915 12.1347C10.6077 12.0425 10.6959 11.9303 10.752 11.798C10.8082 11.6657 10.8362 11.5174 10.8362 11.357C10.8362 11.1806 10.8001 11.0203 10.732 10.8759C10.6638 10.7316 10.5596 10.6114 10.4233 10.5111C10.287 10.4109 10.1146 10.3307 9.90617 10.2786C9.69771 10.2225 9.45317 10.1944 9.17255 10.1944H8.50709C8.45497 10.1944 8.41088 10.1864 8.3748 10.1744C8.33872 10.1584 8.31066 10.1303 8.2866 10.0902C8.26255 10.0501 8.24652 9.98598 8.23449 9.90982C8.22246 9.83365 8.21845 9.73343 8.21845 9.60916C8.21845 9.4929 8.22246 9.4007 8.23449 9.32854C8.24652 9.25638 8.25854 9.20026 8.28259 9.16017C8.30264 9.12008 8.3307 9.09202 8.36678 9.07598C8.39885 9.05995 8.43894 9.05193 8.48704 9.05193H9.15652C9.38502 9.05193 9.58947 9.02387 9.76987 8.97175C9.94625 8.91964 10.0986 8.84347 10.2189 8.74325C10.3391 8.64303 10.4313 8.52677 10.4955 8.38246C10.5596 8.24215 10.5917 8.0858 10.5917 7.91743C10.5917 7.78514 10.5716 7.66488 10.5275 7.54461C10.4834 7.42836 10.4193 7.32814 10.3351 7.24395C10.2509 7.15977 10.1387 7.09162 10.0064 7.04351C9.87009 6.99541 9.71374 6.97135 9.53335 6.97135C9.3289 6.97135 9.13246 7.00342 8.95207 7.06356C8.77167 7.12369 8.60731 7.19184 8.46299 7.264C8.31867 7.33616 8.1944 7.4043 8.09418 7.46845C7.99396 7.53259 7.91779 7.56466 7.86969 7.56466C7.83761 7.56466 7.80955 7.55664 7.7855 7.54461C7.76145 7.53259 7.7414 7.50453 7.72537 7.46444C7.70933 7.42435 7.69731 7.36823 7.68929 7.29206C7.68127 7.21589 7.67726 7.11968 7.67726 6.99941C7.67726 6.89919 7.67726 6.81902 7.68127 6.75087C7.68528 6.68272 7.6933 6.6306 7.70532 6.58651C7.71735 6.54241 7.73339 6.50633 7.74942 6.47426C7.76546 6.44219 7.79753 6.40611 7.83361 6.37003C7.86969 6.33395 7.95387 6.27783 8.07814 6.20166C8.20242 6.12549 8.35475 6.05333 8.54317 5.98117C8.73158 5.90902 8.94405 5.84888 9.18859 5.80078C9.43313 5.75267 9.69771 5.72461 9.98233 5.72461C10.3552 5.72461 10.6839 5.76871 10.9725 5.8569C11.2611 5.94509 11.5017 6.06937 11.6981 6.23373C11.8945 6.39809 12.0429 6.59853 12.1431 6.83906C12.2433 7.07959 12.2954 7.34818 12.2954 7.64884C12.2954 7.88135 12.2674 8.09783 12.2072 8.30228C12.1471 8.50673 12.0589 8.68312 11.9467 8.84347C11.8304 9.00382 11.6901 9.13611 11.5177 9.24836C11.3453 9.36061 11.1449 9.44079 10.9204 9.49691V9.51294C11.189 9.54501 11.4295 9.61316 11.646 9.71739C11.8625 9.82162 12.0429 9.95391 12.1912 10.1143C12.3395 10.2706 12.4518 10.451 12.5319 10.6514C12.6121 10.8519 12.6522 11.0644 12.6522 11.2969L12.6442 11.2808Z" fill="white"/>
</g>
<defs>
<clipPath id="clip0_14_75557">
<rect width="64" height="64" fill="white"/>
</clipPath>
</defs>
</svg>
