<svg width="24" height="24" viewBox="0 0 24 24" fill="none" xmlns="http://www.w3.org/2000/svg">
<mask id="mask0_36_27115" style="mask-type:alpha" maskUnits="userSpaceOnUse" x="0" y="0" width="24" height="24">
<path fill-rule="evenodd" clip-rule="evenodd" d="M2.66667 0H21.3333C22.8 0 24 1.2 24 2.66667V21.3333C24 22.8 22.8 24 21.3333 24H2.66667C1.2 24 0 22.8 0 21.3333V2.66667C0 1.2 1.2 0 2.66667 0ZM21.3334 21.3334V2.66668H2.66675V21.3334H21.3334Z" fill="white"/>
</mask>
<g mask="url(#mask0_36_27115)">
<rect x="-4" y="-4" width="32" height="32" fill="#6A9EE1"/>
</g>
<mask id="mask1_36_27115" style="mask-type:alpha" maskUnits="userSpaceOnUse" x="0" y="0" width="24" height="24">
<path fill-rule="evenodd" clip-rule="evenodd" d="M2.66667 0H21.3333C22.8 0 24 1.2 24 2.66667V21.3333C24 22.8 22.8 24 21.3333 24H2.66667C1.2 24 0 22.8 0 21.3333V2.66667C0 1.2 1.2 0 2.66667 0ZM5.41187 12L10.1177 16.7059L18.5883 8.23528L17.2613 6.89881L10.1177 14.0423L6.73892 10.6729L5.41187 12Z" fill="#863399"/>
</mask>
<g mask="url(#mask1_36_27115)">
<rect x="-4" y="-4" width="32" height="32" fill="#6A9EE1"/>
</g>
</svg>
