<svg width="81" height="80" viewBox="0 0 81 80" fill="none" xmlns="http://www.w3.org/2000/svg">
<circle cx="40.4297" cy="26" r="22" fill="#E2E2E2"/>
<path fill-rule="evenodd" clip-rule="evenodd" d="M31.6797 20.25V31.75H49.1797V20.25H31.6797ZM29.6797 20C29.6797 19.0335 30.4632 18.25 31.4297 18.25H49.4297C50.3962 18.25 51.1797 19.0335 51.1797 20V32C51.1797 32.9665 50.3962 33.75 49.4297 33.75H31.4297C30.4632 33.75 29.6797 32.9665 29.6797 32V20Z" fill="#A5A3A3"/>
<path fill-rule="evenodd" clip-rule="evenodd" d="M43.1797 29.75C43.1797 29.1977 43.6274 28.75 44.1797 28.75H47.1797C47.732 28.75 48.1797 29.1977 48.1797 29.75C48.1797 30.3023 47.732 30.75 47.1797 30.75H44.1797C43.6274 30.75 43.1797 30.3023 43.1797 29.75Z" fill="#A5A3A3"/>
<path fill-rule="evenodd" clip-rule="evenodd" d="M38.6797 29.75C38.6797 29.1977 39.1274 28.75 39.6797 28.75H41.1797C41.732 28.75 42.1797 29.1977 42.1797 29.75C42.1797 30.3023 41.732 30.75 41.1797 30.75H39.6797C39.1274 30.75 38.6797 30.3023 38.6797 29.75Z" fill="#A5A3A3"/>
<path fill-rule="evenodd" clip-rule="evenodd" d="M29.6797 23.084C29.6797 22.5317 30.1274 22.084 30.6797 22.084H50.1797C50.732 22.084 51.1797 22.5317 51.1797 23.084C51.1797 23.6363 50.732 24.084 50.1797 24.084H30.6797C30.1274 24.084 29.6797 23.6363 29.6797 23.084Z" fill="#A5A3A3"/>
<path d="M17.2031 70V61.6211H20.6016C22.3125 61.6211 23.168 62.3691 23.168 63.8652C23.168 65.4941 21.998 66.4883 19.6582 66.8477L19.4355 65.9336C21.1543 65.6797 22.0137 65.0059 22.0137 63.9121C22.0137 62.9824 21.5098 62.5176 20.502 62.5176H18.2871V70H17.2031ZM24.1992 68.1426C24.1992 66.8809 25.0312 66.25 26.6953 66.25C27.2305 66.25 27.7656 66.2891 28.3008 66.3672V65.7871C28.3008 65.0801 27.748 64.7266 26.6426 64.7266C26.0098 64.7266 25.3613 64.8242 24.6973 65.0195V64.1406C25.3613 63.9453 26.0098 63.8477 26.6426 63.8477C28.4707 63.8477 29.3848 64.4844 29.3848 65.7578V70H28.7754L28.4004 69.3906C27.7871 69.7969 27.1191 70 26.3965 70C24.9316 70 24.1992 69.3809 24.1992 68.1426ZM26.6953 67.1289C25.7539 67.1289 25.2832 67.4609 25.2832 68.125C25.2832 68.7891 25.6543 69.1211 26.3965 69.1211C27.1465 69.1211 27.7812 68.9219 28.3008 68.5234V67.2461C27.7656 67.168 27.2305 67.1289 26.6953 67.1289ZM30.416 63.8477H31.5938L33.334 68.6523L35.1328 63.8477H36.2812L33.7266 70.1816C33.2734 71.2988 32.5938 71.9961 31.6875 72.2734L31.2715 71.5059C31.959 71.2051 32.459 70.7148 32.7715 70.0352L30.416 63.8477ZM37.3008 70V63.8477H38.0332L38.2148 64.6211C38.8047 64.1055 39.4473 63.8477 40.1426 63.8477C41.0332 63.8477 41.6406 64.1289 41.9648 64.6914C42.6328 64.1289 43.3105 63.8477 43.998 63.8477C45.4121 63.8477 46.1191 64.627 46.1191 66.1855V70H45.0352V66.127C45.0352 65.209 44.6484 64.75 43.875 64.75C43.2969 64.75 42.7559 65.0156 42.252 65.5469V70H41.168V66.1445C41.168 65.2148 40.7852 64.75 40.0195 64.75C39.4102 64.75 38.8652 65.0156 38.3848 65.5469V70H37.3008ZM50.4199 63.8477C52.1699 63.8477 53.0449 64.7129 53.0449 66.4434C53.0449 66.6895 53.0273 66.9531 52.9922 67.2344H48.6738C48.6738 68.4922 49.4082 69.1211 50.877 69.1211C51.5762 69.1211 52.1973 69.043 52.7402 68.8867V69.7656C52.1973 69.9219 51.5371 70 50.7598 70C48.6465 70 47.5898 68.9512 47.5898 66.8535C47.5898 64.8496 48.5332 63.8477 50.4199 63.8477ZM48.6738 66.332H52.002C51.9785 65.2539 51.4512 64.7148 50.4199 64.7148C49.3262 64.7148 48.7441 65.2539 48.6738 66.332ZM54.5039 70V63.8477H55.2363L55.4297 64.6328C56.0586 64.1094 56.75 63.8477 57.5039 63.8477C59.0391 63.8477 59.8066 64.6113 59.8066 66.1387V70H58.7227V66.1211C58.7227 65.207 58.2676 64.75 57.3574 64.75C56.7363 64.75 56.1465 65.0098 55.5879 65.5293V70H54.5039ZM61.5703 62.8516H62.25L62.4844 63.8477H64.1484V64.7266H62.6543V68.2598C62.6543 68.834 62.9023 69.1211 63.3984 69.1211H64.1484V70H63.1172C62.0859 70 61.5703 69.4473 61.5703 68.3418V62.8516Z" fill="#A5A3A3"/>
</svg>
