<svg width="81" height="81" viewBox="0 0 81 81" fill="none" xmlns="http://www.w3.org/2000/svg">
<circle cx="40.2383" cy="26.2393" r="22" fill="#E2E2E2"/>
<path fill-rule="evenodd" clip-rule="evenodd" d="M33.5438 32.4795V18.0448H41.0891L45.3094 22.2534V26.2051C45.97 26.2966 46.5833 26.5355 47.1149 26.8873V21.8788C47.1149 21.6389 47.0195 21.4089 46.8496 21.2395L42.0997 16.5028C41.9305 16.334 41.7013 16.2393 41.4623 16.2393H33.3196C32.901 16.2393 32.4991 16.4051 32.2023 16.701C31.9055 16.997 31.7383 17.399 31.7383 17.8187V32.7056C31.7383 33.1253 31.9055 33.5273 32.2023 33.8233C32.4991 34.1192 32.901 34.285 33.3196 34.285H42.5069C41.7779 33.8614 41.1831 33.2333 40.8014 32.4795H33.5438Z" fill="#A5A3A3"/>
<path d="M41.4648 17.1416V21.8783H46.2147" stroke="#A5A3A3" stroke-width="1.80553" stroke-linecap="round" stroke-linejoin="round"/>
<path d="M46.886 32.6969L49.3818 35.1858M48.1651 29.6164C48.1651 32.0219 46.2096 33.972 43.7974 33.972C41.3852 33.972 39.4297 32.0219 39.4297 29.6164C39.4297 27.2108 41.3852 25.2607 43.7974 25.2607C46.2096 25.2607 48.1651 27.2108 48.1651 29.6164Z" stroke="#A5A3A3" stroke-width="1.98608" stroke-linecap="round" stroke-linejoin="round"/>
<path d="M16.6895 66.0264C16.6895 68.2881 17.7109 69.4189 19.7539 69.4189C21.7539 69.4189 22.7539 68.2881 22.7539 66.0264C22.7539 63.7959 21.7539 62.6807 19.7539 62.6807C17.7109 62.6807 16.6895 63.7959 16.6895 66.0264ZM15.5469 66.0615C15.5469 63.2217 16.9492 61.8018 19.7539 61.8018C22.5156 61.8018 23.8965 63.2217 23.8965 66.0615C23.8965 68.8857 22.5156 70.2979 19.7539 70.2979C16.9492 70.2979 15.5469 68.8857 15.5469 66.0615ZM24.6055 64.0869H25.7773L27.541 68.9092L29.293 64.0869H30.4648L27.9629 70.2393H26.9551L24.6055 64.0869ZM33.8809 64.0869C35.6309 64.0869 36.5059 64.9521 36.5059 66.6826C36.5059 66.9287 36.4883 67.1924 36.4531 67.4736H32.1348C32.1348 68.7314 32.8691 69.3604 34.3379 69.3604C35.0371 69.3604 35.6582 69.2822 36.2012 69.126V70.0049C35.6582 70.1611 34.998 70.2393 34.2207 70.2393C32.1074 70.2393 31.0508 69.1904 31.0508 67.0928C31.0508 65.0889 31.9941 64.0869 33.8809 64.0869ZM32.1348 66.5713H35.4629C35.4395 65.4932 34.9121 64.9541 33.8809 64.9541C32.7871 64.9541 32.2051 65.4932 32.1348 66.5713ZM37.9648 70.2393V64.0869H38.6973L38.8906 64.8721C39.4297 64.3486 40.0781 64.0869 40.8359 64.0869V64.9893C40.1016 64.9893 39.5059 65.249 39.0488 65.7686V70.2393H37.9648ZM41.0469 64.0869H42.2188L43.9824 68.9092L45.7344 64.0869H46.9062L44.4043 70.2393H43.3965L41.0469 64.0869ZM48.9863 64.0869V70.2393H47.9023V64.0869H48.9863ZM48.9863 61.8604V62.8857H47.9023V61.8604H48.9863ZM53.4043 64.0869C55.1543 64.0869 56.0293 64.9521 56.0293 66.6826C56.0293 66.9287 56.0117 67.1924 55.9766 67.4736H51.6582C51.6582 68.7314 52.3926 69.3604 53.8613 69.3604C54.5605 69.3604 55.1816 69.2822 55.7246 69.126V70.0049C55.1816 70.1611 54.5215 70.2393 53.7441 70.2393C51.6309 70.2393 50.5742 69.1904 50.5742 67.0928C50.5742 65.0889 51.5176 64.0869 53.4043 64.0869ZM51.6582 66.5713H54.9863C54.9629 65.4932 54.4355 64.9541 53.4043 64.9541C52.3105 64.9541 51.7285 65.4932 51.6582 66.5713ZM56.8145 64.0869H57.9102L59 68.9092L60.5996 64.0869H61.5781L63.2891 68.9092L64.2734 64.0869H65.4219L63.8164 70.2393H62.8262L61.0625 65.6396L59.3867 70.2393H58.373L56.8145 64.0869Z" fill="#A5A3A3"/>
</svg>
