<svg xmlns="http://www.w3.org/2000/svg" width="16.113" height="28.476" viewBox="0 0 16.113 28.476">
    <path fill="#fff" d="M21.307 18.5c-3.591-.933-4.746-1.89-4.746-3.393 0-1.724 1.59-2.935 4.271-2.935 2.816 0 3.86 1.345 3.955 3.322h3.5a6.3 6.3 0 0 0-5.078-6.027V6H18.46v3.417c-3.069.672-5.537 2.65-5.537 5.711 0 3.654 3.03 5.474 7.435 6.534 3.963.949 4.746 2.333 4.746 3.82 0 1.084-.767 2.824-4.271 2.824-3.259 0-4.548-1.463-4.714-3.322H12.63c.2 3.465 2.784 5.4 5.83 6.059v3.433h4.746v-3.4c3.077-.593 5.537-2.373 5.537-5.624 0-4.479-3.843-6.013-7.436-6.952z" transform="translate(-12.63 -6)"/>
</svg>
