<svg width="28" height="28" viewBox="0 0 28 28" fill="none" xmlns="http://www.w3.org/2000/svg">
<rect width="28" height="28" rx="14" fill="#005895"/>
<path fill-rule="evenodd" clip-rule="evenodd" d="M20.2136 7.78583C20.539 8.11126 20.539 8.6389 20.2136 8.96434L8.9636 20.2143C8.63817 20.5398 8.11053 20.5398 7.78509 20.2143C7.45966 19.8889 7.45966 19.3613 7.78509 19.0358L19.0351 7.78583C19.3605 7.46039 19.8882 7.46039 20.2136 7.78583Z" fill="#FBFBFB"/>
<path fill-rule="evenodd" clip-rule="evenodd" d="M7.78509 7.78583C8.11053 7.46039 8.63817 7.46039 8.9636 7.78583L20.2136 19.0358C20.539 19.3613 20.539 19.8889 20.2136 20.2143C19.8882 20.5398 19.3605 20.5398 19.0351 20.2143L7.78509 8.96434C7.45966 8.6389 7.45966 8.11126 7.78509 7.78583Z" fill="#FBFBFB"/>
</svg>
