<svg width="40" height="48" viewBox="0 0 40 48" fill="none" xmlns="http://www.w3.org/2000/svg">
<g clip-path="url(#clip0_160_24458)">
<g clip-path="url(#clip1_160_24458)">
<path d="M1.25 45.9607V4.03715C1.25 2.42162 2.5549 1.11084 4.16317 1.11084H36.1147C37.7229 1.11084 39.0278 2.42162 39.0278 4.03715V45.9607C39.0278 47.5761 37.7229 48.8869 36.1147 48.8869H4.16317C2.5549 48.8869 1.25 47.5761 1.25 45.9607Z" fill="url(#paint0_linear_160_24458)"/>
<path d="M4.92188 17.822V40.5154C4.92188 40.9277 5.25442 41.2637 5.6667 41.2637H34.6136C35.0239 41.2637 35.3584 40.9296 35.3584 40.5154V9.49428C35.3584 9.08209 35.0259 8.74609 34.6136 8.74609H13.957C13.7606 8.74609 13.57 8.82424 13.43 8.96488L5.13968 17.2925C4.99966 17.4332 4.92188 17.6227 4.92188 17.822Z" fill="url(#paint1_linear_160_24458)"/>
<path d="M6.03735 3.54048V1.11035H9.23055V3.54048C9.23055 4.38633 8.54602 5.07396 7.70396 5.07396H7.56395C6.7219 5.07396 6.03735 4.38633 6.03735 3.54048Z" fill="#D2AC4F"/>
<path d="M12.2917 3.54048V1.11035H15.485V3.54048C15.485 4.38633 14.8004 5.07396 13.9583 5.07396H13.8183C12.9763 5.07396 12.2917 4.38633 12.2917 3.54048Z" fill="#D2AC4F"/>
<path d="M18.5417 3.54048V1.11035H21.735V3.54048C21.735 4.38633 21.0504 5.07396 20.2083 5.07396H20.0683C19.2263 5.07396 18.5417 4.38633 18.5417 3.54048Z" fill="#D2AC4F"/>
<path d="M24.7874 3.54048V1.11035H27.9806V3.54048C27.9806 4.38633 27.296 5.07396 26.4539 5.07396H26.3139C25.4719 5.07396 24.7874 4.38633 24.7874 3.54048Z" fill="#D2AC4F"/>
<path d="M31.0417 3.54048V1.11035H34.235V3.54048C34.235 4.38633 33.5504 5.07396 32.7083 5.07396H32.5683C31.7263 5.07396 31.0417 4.38633 31.0417 3.54048Z" fill="#D2AC4F"/>
<path d="M9.23617 46.4597V48.8898H6.04297V46.4597C6.04297 45.6139 6.7275 44.9263 7.56956 44.9263H7.70958C8.55164 44.9263 9.23617 45.6139 9.23617 46.4597Z" fill="#D2AC4F"/>
<path d="M15.4818 46.4597V48.8898H12.2886V46.4597C12.2886 45.6139 12.9731 44.9263 13.8151 44.9263H13.9552C14.7972 44.9263 15.4818 45.6139 15.4818 46.4597Z" fill="#D2AC4F"/>
<path d="M21.7362 46.4553V48.8854H18.543V46.4553C18.543 45.6094 19.2275 44.9219 20.0696 44.9219H20.2096C21.0516 44.9219 21.7362 45.6094 21.7362 46.4553Z" fill="#D2AC4F"/>
<path d="M27.9862 46.4553V48.8854H24.793V46.4553C24.793 45.6094 25.4775 44.9219 26.3196 44.9219H26.4596C27.3016 44.9219 27.9862 45.6094 27.9862 46.4553Z" fill="#D2AC4F"/>
<path d="M34.2362 46.4553V48.8854H31.043V46.4553C31.043 45.6094 31.7275 44.9219 32.5696 44.9219H32.7096C33.5516 44.9219 34.2362 45.6094 34.2362 46.4553Z" fill="#D2AC4F"/>
<path d="M14.118 26.1353H10.6079C10.7498 26.6275 11.1699 26.9147 11.7922 26.9147C12.2648 26.9147 12.5759 26.7798 12.9066 26.4947L13.7972 27.4245C13.3343 27.9442 12.6576 28.2118 11.7397 28.2118C10.0206 28.2118 8.90625 27.1472 8.90625 25.6976C8.90625 24.2482 10.0381 23.2012 11.5608 23.2012C12.9862 23.2012 14.1433 24.1134 14.1433 25.7153C14.1433 25.8403 14.1258 26.0024 14.1161 26.1353H14.118ZM10.5806 25.2405H12.5584C12.4689 24.7307 12.0956 24.4084 11.5705 24.4084C11.0454 24.4084 10.6798 24.7307 10.5826 25.2405H10.5806Z" fill="white"/>
<path d="M14.5703 27.5703L15.1498 26.2636C15.7021 26.6308 16.4859 26.8808 17.2073 26.8808C17.9288 26.8808 18.2224 26.6757 18.2224 26.371C18.2224 25.3786 14.6772 26.1033 14.6772 23.7768C14.6772 22.6575 15.5854 21.7451 17.4388 21.7451C18.2496 21.7451 19.0859 21.9327 19.7004 22.2901L19.1579 23.6048C18.5609 23.2826 17.9735 23.1223 17.429 23.1223C16.69 23.1223 16.4216 23.3723 16.4216 23.6869C16.4216 24.6441 19.9591 23.9291 19.9591 26.2381C19.9591 27.3301 19.0509 28.26 17.1975 28.26C16.1728 28.26 15.1576 27.9826 14.5703 27.5703Z" fill="white"/>
<path d="M20.7683 21.8711H22.5322V28.134H20.7683V21.8711Z" fill="white"/>
<path d="M29.4233 28.134L29.4058 24.815L27.8015 27.5167H27.0177L25.4231 24.9029V28.134H23.7935V21.8711H25.2461L27.4378 25.487L29.575 21.8711H31.0277L31.0452 28.134H29.4233Z" fill="white"/>
</g>
</g>
<defs>
<linearGradient id="paint0_linear_160_24458" x1="20.0494" y1="49.18" x2="20.226" y2="1.51131" gradientUnits="userSpaceOnUse">
<stop offset="0.31" stop-color="#D0D2D9"/>
<stop offset="0.56" stop-color="#D3D5DC"/>
<stop offset="0.81" stop-color="#DFE1E6"/>
<stop offset="1" stop-color="#EEEFF2"/>
</linearGradient>
<linearGradient id="paint1_linear_160_24458" x1="1.50503" y1="36.7491" x2="34.7516" y2="19.7622" gradientUnits="userSpaceOnUse">
<stop offset="0.16" stop-color="#ECDA75"/>
<stop offset="0.35" stop-color="#E1C865"/>
<stop offset="0.48" stop-color="#DEC260"/>
<stop offset="1" stop-color="#D2AC4F"/>
</linearGradient>
<clipPath id="clip0_160_24458">
<rect width="40" height="48" fill="white"/>
</clipPath>
<clipPath id="clip1_160_24458">
<rect width="37.7778" height="47.7778" fill="white" transform="translate(1.11108 1.11133)"/>
</clipPath>
</defs>
</svg>
