<svg xmlns="http://www.w3.org/2000/svg" width="36.816" height="54.41" viewBox="0 0 36.816 54.41">
    <defs>
        <style>
            .cls-1{fill:#282828}
        </style>
    </defs>
    <g id="Group_1310" transform="translate(-2315.039 -745.82)">
        <g id="Group_1304" transform="translate(2327.757 759.192)">
            <path id="Path_1755" d="M2365.18 827.006a.857.857 0 0 1-.8-.562l-3.025-8.242-6.88 3.519a.857.857 0 0 1-1.247-.763v-34.133a.857.857 0 0 1 1.513-.55l22.385 26.744a.857.857 0 0 1-.5 1.392l-7.975 1.48 3.025 8.111a.857.857 0 0 1-.538 1.114l-5.689 1.848a.859.859 0 0 1-.269.042zm-3.358-10.863a.858.858 0 0 1 .8.562l3.074 8.375 4.054-1.317-3.07-8.229a.856.856 0 0 1 .646-1.142l7.537-1.4-19.93-23.811v30.376l6.494-3.322a.863.863 0 0 1 .395-.092z" class="cls-1" transform="translate(-2353.224 -785.968)"/>
        </g>
        <g id="Group_1305" transform="translate(2327.757 745.82)">
            <path id="Path_1756" d="M2354.081 752.636a.857.857 0 0 1-.856-.857v-5.1a.857.857 0 0 1 1.713 0v5.1a.857.857 0 0 1-.857.857z" class="cls-1" transform="translate(-2353.224 -745.82)"/>
        </g>
        <g id="Group_1306" transform="translate(2315.039 755.06)">
            <path id="Path_1757" d="M2320.749 776.852a.86.86 0 0 1-.265-.042l-4.853-1.577a.857.857 0 1 1 .529-1.63l4.853 1.577a.857.857 0 0 1-.264 1.671z" class="cls-1" transform="translate(-2315.039 -773.562)"/>
        </g>
        <g id="Group_1307" transform="translate(2319.897 765.882)">
            <path id="Path_1758" d="M2330.48 811.9a.856.856 0 0 1-.692-1.36l3-4.128a.857.857 0 1 1 1.386 1.007l-3 4.128a.857.857 0 0 1-.694.353z" class="cls-1" transform="translate(-2329.624 -806.055)"/>
        </g>
        <g id="Group_1308" transform="translate(2327.757 767.461)">
            <path id="Path_1759" d="M2354.081 817.613a.857.857 0 0 1-.856-.857v-5.1a.857.857 0 0 1 1.713 0v5.1a.857.857 0 0 1-.857.857z" class="cls-1" transform="translate(-2353.224 -810.797)"/>
        </g>
        <g id="Group_1309" transform="translate(2335.622 755.06)">
            <path id="Path_1760" d="M2377.693 776.853a.857.857 0 0 1-.264-1.671l4.853-1.577a.857.857 0 1 1 .529 1.63l-4.853 1.577a.861.861 0 0 1-.265.041z" class="cls-1" transform="translate(-2376.837 -773.563)"/>
        </g>
    </g>
</svg>
