<svg width="188" height="48" viewBox="0 0 188 48" fill="none" xmlns="http://www.w3.org/2000/svg">
<rect width="188" height="48" rx="24" fill="#005895"/>
<path d="M38.6269 23.9141L34.0042 27.7057L31.9375 25.2863" stroke="#FBFBFB" stroke-width="2.22442" stroke-linecap="round" stroke-linejoin="round"/>
<path d="M38.6867 17.1339C37.6844 16.5098 36.6355 14.9375 35.426 14.9375C34.2165 14.9375 33.2586 16.6791 32.1653 17.1339C31.0719 17.5886 29.2045 16.9984 28.3144 17.8886C27.4242 18.7787 28.0338 20.6074 27.5597 21.7395C27.0856 22.8716 25.3633 23.7907 25.3633 25.0002C25.3633 26.2097 27.1049 27.1676 27.5597 28.2609C28.0144 29.3543 27.4242 31.2217 28.3144 32.1118C29.2045 33.002 31.0332 32.3924 32.1653 32.8665C33.2973 33.3406 34.2165 35.0629 35.426 35.0629C36.6355 35.0629 37.5933 33.3213 38.6867 32.8665C39.78 32.4118 41.6475 33.002 42.5376 32.1118C43.4278 31.2217 43.0588 29.5885 43.2923 28.2609" stroke="#FBFBFB" stroke-width="2.22442" stroke-linecap="round" stroke-linejoin="round"/>
<path d="M43.6686 17.4531C41.3999 17.4531 39.5703 19.304 39.5703 21.5784C39.5703 23.8528 41.3999 25.7036 43.6686 25.7036C45.9281 25.7036 47.7577 23.8528 47.7577 21.5784C47.7486 19.304 45.919 17.4531 43.6686 17.4531ZM45.7909 22.269H44.3913V23.6778C44.3913 24.0646 44.0802 24.3685 43.7052 24.3685C43.321 24.3685 43.0191 24.0646 43.0191 23.6778V22.269H41.6103C41.2352 22.269 40.9242 21.9559 40.9242 21.5784C40.9242 21.2008 41.2352 20.8878 41.6103 20.8878H43.0191V19.4789C43.0191 19.0922 43.321 18.7883 43.7052 18.7883C44.0802 18.7883 44.3913 19.0922 44.3913 19.4789V20.8878H45.7909C46.166 20.8878 46.477 21.2008 46.477 21.5784C46.477 21.9559 46.1568 22.269 45.7909 22.269Z" fill="#F5FAFF"/>
<path d="M68.3008 23.4961C68.3008 24.6549 68.1478 25.6478 67.8418 26.4746C67.5423 27.2949 67.1094 27.9655 66.543 28.4863C65.9766 29.0072 65.2865 29.3913 64.4727 29.6387C63.6654 29.8796 62.7018 30 61.582 30H58.5645C58.3496 30 58.1673 29.9382 58.0176 29.8145C57.8743 29.6842 57.8027 29.4759 57.8027 29.1895V18.1738C57.8027 17.8874 57.8743 17.6823 58.0176 17.5586C58.1673 17.4284 58.3496 17.3633 58.5645 17.3633H61.8066C62.9329 17.3633 63.8867 17.4967 64.668 17.7637C65.4557 18.0241 66.1165 18.4147 66.6504 18.9355C67.1908 19.4499 67.6009 20.0879 67.8809 20.8496C68.1608 21.6113 68.3008 22.4935 68.3008 23.4961ZM65.6445 23.584C65.6445 22.985 65.5729 22.4284 65.4297 21.9141C65.293 21.3997 65.0684 20.9538 64.7559 20.5762C64.4499 20.1986 64.0527 19.9056 63.5645 19.6973C63.0827 19.4824 62.4479 19.375 61.6602 19.375H60.3613V27.9688H61.6992C62.4023 27.9688 62.9948 27.8776 63.4766 27.6953C63.9583 27.513 64.3587 27.2396 64.6777 26.875C65.0033 26.5039 65.2441 26.0449 65.4004 25.498C65.5632 24.9512 65.6445 24.3132 65.6445 23.584ZM79.082 25.2246C79.082 25.9668 78.9844 26.6439 78.7891 27.2559C78.5938 27.8678 78.2975 28.3952 77.9004 28.8379C77.5033 29.2806 77.0052 29.6224 76.4062 29.8633C75.8073 30.1042 75.1074 30.2246 74.3066 30.2246C73.5319 30.2246 72.8581 30.1172 72.2852 29.9023C71.7122 29.6875 71.237 29.375 70.8594 28.9648C70.4818 28.5547 70.2018 28.0501 70.0195 27.4512C69.8372 26.8522 69.7461 26.1686 69.7461 25.4004C69.7461 24.6582 69.8438 23.9811 70.0391 23.3691C70.2409 22.7507 70.5404 22.2233 70.9375 21.7871C71.3346 21.3444 71.8294 21.0026 72.4219 20.7617C73.0208 20.5208 73.7207 20.4004 74.5215 20.4004C75.3027 20.4004 75.9798 20.5078 76.5527 20.7227C77.1257 20.931 77.5977 21.2402 77.9688 21.6504C78.3464 22.0605 78.6263 22.5651 78.8086 23.1641C78.9909 23.763 79.082 24.4499 79.082 25.2246ZM76.5527 25.3223C76.5527 24.8926 76.5169 24.4987 76.4453 24.1406C76.3802 23.776 76.2663 23.4603 76.1035 23.1934C75.9408 22.9264 75.7227 22.7181 75.4492 22.5684C75.1823 22.4186 74.8438 22.3438 74.4336 22.3438C74.069 22.3438 73.75 22.4121 73.4766 22.5488C73.2031 22.679 72.9785 22.8743 72.8027 23.1348C72.627 23.3887 72.4935 23.6979 72.4023 24.0625C72.3177 24.4206 72.2754 24.8307 72.2754 25.293C72.2754 25.7227 72.3112 26.1198 72.3828 26.4844C72.4544 26.8424 72.5684 27.1549 72.7246 27.4219C72.8874 27.6888 73.1055 27.8971 73.3789 28.0469C73.6523 28.1901 73.9909 28.2617 74.3945 28.2617C74.7656 28.2617 75.0879 28.1966 75.3613 28.0664C75.6348 27.9297 75.8594 27.7344 76.0352 27.4805C76.2109 27.2266 76.3411 26.9206 76.4258 26.5625C76.5104 26.1979 76.5527 25.7845 76.5527 25.3223ZM88.291 29.6484C88.291 29.7135 88.2682 29.7721 88.2227 29.8242C88.1836 29.8763 88.1152 29.9186 88.0176 29.9512C87.9199 29.9837 87.7897 30.0098 87.627 30.0293C87.4642 30.0488 87.2559 30.0586 87.002 30.0586C86.7546 30.0586 86.5462 30.0488 86.377 30.0293C86.2142 30.0098 86.084 29.9837 85.9863 29.9512C85.8887 29.9186 85.8171 29.8763 85.7715 29.8242C85.7324 29.7721 85.7129 29.7135 85.7129 29.6484V17.7148C85.7129 17.6497 85.7324 17.5911 85.7715 17.5391C85.8171 17.487 85.8887 17.4447 85.9863 17.4121C86.0905 17.3796 86.224 17.3535 86.3867 17.334C86.5495 17.3145 86.7546 17.3047 87.002 17.3047C87.2559 17.3047 87.4642 17.3145 87.627 17.334C87.7897 17.3535 87.9199 17.3796 88.0176 17.4121C88.1152 17.4447 88.1836 17.487 88.2227 17.5391C88.2682 17.5911 88.291 17.6497 88.291 17.7148V29.6484ZM108.135 31.2012C108.135 31.4355 108.122 31.6243 108.096 31.7676C108.076 31.9108 108.047 32.0215 108.008 32.0996C107.969 32.1777 107.926 32.2266 107.881 32.2461C107.835 32.2721 107.786 32.2852 107.734 32.2852C107.52 32.2852 107.236 32.2266 106.885 32.1094C106.54 31.9922 106.165 31.8229 105.762 31.6016C105.358 31.3867 104.945 31.1198 104.521 30.8008C104.105 30.4883 103.717 30.127 103.359 29.7168C103.06 29.8535 102.695 29.9707 102.266 30.0684C101.842 30.1725 101.37 30.2246 100.85 30.2246C99.8665 30.2246 99.0072 30.1009 98.2715 29.8535C97.5423 29.5996 96.9336 29.209 96.4453 28.6816C95.957 28.1543 95.5892 27.4837 95.3418 26.6699C95.1009 25.8496 94.9805 24.8763 94.9805 23.75C94.9805 22.7279 95.1107 21.8099 95.3711 20.9961C95.6315 20.1758 96.0189 19.4824 96.5332 18.916C97.0475 18.3431 97.6823 17.9036 98.4375 17.5977C99.1992 17.2917 100.081 17.1387 101.084 17.1387C102.028 17.1387 102.861 17.2656 103.584 17.5195C104.313 17.7734 104.925 18.1641 105.42 18.6914C105.921 19.2122 106.299 19.873 106.553 20.6738C106.813 21.4746 106.943 22.4219 106.943 23.5156C106.943 24.082 106.904 24.6159 106.826 25.1172C106.755 25.612 106.647 26.071 106.504 26.4941C106.361 26.9173 106.185 27.3047 105.977 27.6562C105.768 28.0078 105.531 28.3171 105.264 28.584C105.667 28.9355 106.025 29.2025 106.338 29.3848C106.65 29.5671 106.911 29.7038 107.119 29.7949C107.334 29.8861 107.503 29.9544 107.627 30C107.757 30.0391 107.858 30.0911 107.93 30.1562C108.001 30.2279 108.053 30.3451 108.086 30.5078C108.118 30.6771 108.135 30.9082 108.135 31.2012ZM104.248 23.6523C104.248 22.9948 104.196 22.3958 104.092 21.8555C103.988 21.3151 103.809 20.8529 103.555 20.4688C103.307 20.0781 102.975 19.7786 102.559 19.5703C102.142 19.3555 101.621 19.248 100.996 19.248C100.365 19.248 99.8372 19.3652 99.4141 19.5996C98.9909 19.834 98.6491 20.1497 98.3887 20.5469C98.1283 20.944 97.9427 21.4095 97.832 21.9434C97.7279 22.4707 97.6758 23.0273 97.6758 23.6133C97.6758 24.3099 97.7279 24.9349 97.832 25.4883C97.9362 26.0417 98.112 26.5137 98.3594 26.9043C98.6068 27.2949 98.9388 27.5944 99.3555 27.8027C99.7721 28.0046 100.296 28.1055 100.928 28.1055C101.559 28.1055 102.087 27.9883 102.51 27.7539C102.933 27.5195 103.275 27.2005 103.535 26.7969C103.796 26.3932 103.978 25.9212 104.082 25.3809C104.193 24.8405 104.248 24.2643 104.248 23.6523ZM117.422 29.668C117.422 29.7331 117.406 29.7917 117.373 29.8438C117.34 29.8893 117.282 29.9284 117.197 29.9609C117.119 29.9935 117.012 30.0163 116.875 30.0293C116.745 30.0488 116.579 30.0586 116.377 30.0586C116.162 30.0586 115.986 30.0488 115.85 30.0293C115.719 30.0163 115.615 29.9935 115.537 29.9609C115.459 29.9284 115.404 29.8893 115.371 29.8438C115.339 29.7917 115.322 29.7331 115.322 29.668V28.6621C114.84 29.1829 114.349 29.5736 113.848 29.834C113.353 30.0944 112.839 30.2246 112.305 30.2246C111.706 30.2246 111.201 30.127 110.791 29.9316C110.387 29.7363 110.059 29.4694 109.805 29.1309C109.557 28.7923 109.378 28.4017 109.268 27.959C109.163 27.5098 109.111 26.9531 109.111 26.2891V20.957C109.111 20.8919 109.128 20.8366 109.16 20.791C109.199 20.7389 109.264 20.6966 109.355 20.6641C109.453 20.6315 109.58 20.6087 109.736 20.5957C109.899 20.5762 110.098 20.5664 110.332 20.5664C110.573 20.5664 110.771 20.5762 110.928 20.5957C111.084 20.6087 111.208 20.6315 111.299 20.6641C111.396 20.6966 111.465 20.7389 111.504 20.791C111.543 20.8366 111.562 20.8919 111.562 20.957V25.8789C111.562 26.3346 111.592 26.6829 111.65 26.9238C111.709 27.1647 111.797 27.373 111.914 27.5488C112.038 27.7181 112.191 27.8516 112.373 27.9492C112.562 28.0404 112.78 28.0859 113.027 28.0859C113.34 28.0859 113.652 27.972 113.965 27.7441C114.284 27.5163 114.622 27.1842 114.98 26.748V20.957C114.98 20.8919 114.997 20.8366 115.029 20.791C115.068 20.7389 115.133 20.6966 115.225 20.6641C115.322 20.6315 115.449 20.6087 115.605 20.5957C115.762 20.5762 115.96 20.5664 116.201 20.5664C116.442 20.5664 116.641 20.5762 116.797 20.5957C116.953 20.6087 117.077 20.6315 117.168 20.6641C117.259 20.6966 117.324 20.7389 117.363 20.791C117.402 20.8366 117.422 20.8919 117.422 20.957V29.668ZM127.324 29.6973C127.324 29.7884 127.292 29.86 127.227 29.9121C127.161 29.9642 127.057 30 126.914 30.0195C126.777 30.0456 126.572 30.0586 126.299 30.0586C126.006 30.0586 125.791 30.0456 125.654 30.0195C125.524 30 125.43 29.9642 125.371 29.9121C125.319 29.86 125.293 29.7884 125.293 29.6973V29.0039C124.935 29.388 124.525 29.6875 124.062 29.9023C123.607 30.1172 123.099 30.2246 122.539 30.2246C122.077 30.2246 121.65 30.1628 121.26 30.0391C120.876 29.9219 120.54 29.7461 120.254 29.5117C119.974 29.2708 119.756 28.9746 119.6 28.623C119.443 28.2715 119.365 27.8613 119.365 27.3926C119.365 26.8848 119.463 26.4453 119.658 26.0742C119.86 25.6966 120.156 25.3874 120.547 25.1465C120.944 24.8991 121.436 24.7168 122.021 24.5996C122.607 24.4824 123.288 24.4238 124.062 24.4238H124.912V23.8965C124.912 23.623 124.883 23.3854 124.824 23.1836C124.772 22.9753 124.681 22.8027 124.551 22.666C124.427 22.5293 124.258 22.4284 124.043 22.3633C123.835 22.2982 123.574 22.2656 123.262 22.2656C122.852 22.2656 122.484 22.3112 122.158 22.4023C121.839 22.4935 121.556 22.5944 121.309 22.7051C121.061 22.8158 120.853 22.9167 120.684 23.0078C120.521 23.099 120.387 23.1445 120.283 23.1445C120.212 23.1445 120.146 23.1217 120.088 23.0762C120.036 23.0306 119.99 22.9655 119.951 22.8809C119.919 22.7962 119.893 22.6921 119.873 22.5684C119.854 22.4447 119.844 22.3079 119.844 22.1582C119.844 21.9564 119.86 21.7969 119.893 21.6797C119.925 21.5625 119.987 21.4583 120.078 21.3672C120.169 21.2695 120.329 21.1654 120.557 21.0547C120.785 20.9375 121.051 20.8301 121.357 20.7324C121.663 20.6348 121.995 20.5566 122.354 20.498C122.718 20.4329 123.092 20.4004 123.477 20.4004C124.16 20.4004 124.743 20.4688 125.225 20.6055C125.713 20.7357 126.113 20.9408 126.426 21.2207C126.738 21.4941 126.966 21.849 127.109 22.2852C127.253 22.7214 127.324 23.2389 127.324 23.8379V29.6973ZM124.912 25.9668H123.975C123.577 25.9668 123.239 25.9961 122.959 26.0547C122.679 26.1133 122.451 26.2012 122.275 26.3184C122.1 26.4355 121.969 26.5788 121.885 26.748C121.807 26.9108 121.768 27.0996 121.768 27.3145C121.768 27.679 121.882 27.9655 122.109 28.1738C122.344 28.3822 122.666 28.4863 123.076 28.4863C123.421 28.4863 123.737 28.3984 124.023 28.2227C124.316 28.0469 124.613 27.7897 124.912 27.4512V25.9668ZM132.246 29.668C132.246 29.7331 132.227 29.7917 132.188 29.8438C132.148 29.8893 132.08 29.9284 131.982 29.9609C131.891 29.9935 131.768 30.0163 131.611 30.0293C131.455 30.0488 131.257 30.0586 131.016 30.0586C130.775 30.0586 130.576 30.0488 130.42 30.0293C130.264 30.0163 130.137 29.9935 130.039 29.9609C129.948 29.9284 129.883 29.8893 129.844 29.8438C129.805 29.7917 129.785 29.7331 129.785 29.668V16.8262C129.785 16.7611 129.805 16.7025 129.844 16.6504C129.883 16.5983 129.948 16.556 130.039 16.5234C130.137 16.4844 130.264 16.4551 130.42 16.4355C130.576 16.416 130.775 16.4062 131.016 16.4062C131.257 16.4062 131.455 16.416 131.611 16.4355C131.768 16.4551 131.891 16.4844 131.982 16.5234C132.08 16.556 132.148 16.5983 132.188 16.6504C132.227 16.7025 132.246 16.7611 132.246 16.8262V29.668ZM137.168 29.668C137.168 29.7331 137.148 29.7917 137.109 29.8438C137.07 29.8893 137.002 29.9284 136.904 29.9609C136.813 29.9935 136.689 30.0163 136.533 30.0293C136.377 30.0488 136.178 30.0586 135.938 30.0586C135.697 30.0586 135.498 30.0488 135.342 30.0293C135.186 30.0163 135.059 29.9935 134.961 29.9609C134.87 29.9284 134.805 29.8893 134.766 29.8438C134.727 29.7917 134.707 29.7331 134.707 29.668V20.9766C134.707 20.9115 134.727 20.8561 134.766 20.8105C134.805 20.7585 134.87 20.7161 134.961 20.6836C135.059 20.6445 135.186 20.6152 135.342 20.5957C135.498 20.5762 135.697 20.5664 135.938 20.5664C136.178 20.5664 136.377 20.5762 136.533 20.5957C136.689 20.6152 136.813 20.6445 136.904 20.6836C137.002 20.7161 137.07 20.7585 137.109 20.8105C137.148 20.8561 137.168 20.9115 137.168 20.9766V29.668ZM137.354 18.0078C137.354 18.5026 137.253 18.8444 137.051 19.0332C136.849 19.222 136.475 19.3164 135.928 19.3164C135.374 19.3164 135 19.2253 134.805 19.043C134.616 18.8607 134.521 18.5319 134.521 18.0566C134.521 17.5618 134.619 17.2201 134.814 17.0312C135.016 16.8359 135.394 16.7383 135.947 16.7383C136.494 16.7383 136.865 16.8327 137.061 17.0215C137.256 17.2038 137.354 17.5326 137.354 18.0078ZM144.883 17.6367C144.883 17.8255 144.876 17.9785 144.863 18.0957C144.85 18.2064 144.831 18.2943 144.805 18.3594C144.779 18.418 144.749 18.4603 144.717 18.4863C144.684 18.5059 144.648 18.5156 144.609 18.5156C144.564 18.5156 144.512 18.5059 144.453 18.4863C144.401 18.4603 144.333 18.4342 144.248 18.4082C144.17 18.3822 144.076 18.3594 143.965 18.3398C143.854 18.3138 143.724 18.3008 143.574 18.3008C143.398 18.3008 143.245 18.3301 143.115 18.3887C142.992 18.4408 142.887 18.5286 142.803 18.6523C142.718 18.7695 142.656 18.9258 142.617 19.1211C142.578 19.3099 142.559 19.5443 142.559 19.8242V20.625H144.15C144.209 20.625 144.261 20.6413 144.307 20.6738C144.359 20.7064 144.401 20.7617 144.434 20.8398C144.466 20.9115 144.489 21.0124 144.502 21.1426C144.521 21.2728 144.531 21.4323 144.531 21.6211C144.531 21.9792 144.499 22.2363 144.434 22.3926C144.368 22.5423 144.274 22.6172 144.15 22.6172H142.559V29.668C142.559 29.7331 142.539 29.7917 142.5 29.8438C142.461 29.8893 142.396 29.9284 142.305 29.9609C142.214 29.9935 142.087 30.0163 141.924 30.0293C141.761 30.0488 141.562 30.0586 141.328 30.0586C141.094 30.0586 140.895 30.0488 140.732 30.0293C140.576 30.0163 140.449 29.9935 140.352 29.9609C140.26 29.9284 140.195 29.8893 140.156 29.8438C140.124 29.7917 140.107 29.7331 140.107 29.668V22.6172H139.014C138.89 22.6172 138.796 22.5423 138.73 22.3926C138.672 22.2363 138.643 21.9792 138.643 21.6211C138.643 21.4323 138.649 21.2728 138.662 21.1426C138.682 21.0124 138.704 20.9115 138.73 20.8398C138.763 20.7617 138.802 20.7064 138.848 20.6738C138.9 20.6413 138.958 20.625 139.023 20.625H140.107V19.8926C140.107 19.3001 140.166 18.7826 140.283 18.3398C140.4 17.8906 140.583 17.5195 140.83 17.2266C141.084 16.9271 141.403 16.7025 141.787 16.5527C142.178 16.403 142.637 16.3281 143.164 16.3281C143.418 16.3281 143.659 16.3509 143.887 16.3965C144.115 16.4355 144.294 16.4811 144.424 16.5332C144.554 16.5788 144.642 16.6243 144.688 16.6699C144.733 16.709 144.769 16.7708 144.795 16.8555C144.827 16.9336 144.85 17.0378 144.863 17.168C144.876 17.2917 144.883 17.4479 144.883 17.6367ZM151.104 30L150.049 33.0859C149.99 33.2487 149.831 33.3659 149.57 33.4375C149.31 33.5091 148.929 33.5449 148.428 33.5449C148.167 33.5449 147.959 33.5319 147.803 33.5059C147.646 33.4863 147.529 33.4505 147.451 33.3984C147.373 33.3464 147.331 33.2812 147.324 33.2031C147.318 33.125 147.337 33.0306 147.383 32.9199L148.545 30C148.46 29.9609 148.382 29.9023 148.311 29.8242C148.245 29.7396 148.197 29.6517 148.164 29.5605L145.166 21.5527C145.081 21.3249 145.039 21.1523 145.039 21.0352C145.039 20.9115 145.078 20.8171 145.156 20.752C145.234 20.6803 145.365 20.6315 145.547 20.6055C145.736 20.5794 145.983 20.5664 146.289 20.5664C146.569 20.5664 146.79 20.5729 146.953 20.5859C147.116 20.5924 147.243 20.6152 147.334 20.6543C147.425 20.6934 147.493 20.7552 147.539 20.8398C147.585 20.918 147.63 21.0319 147.676 21.1816L149.727 27.0117H149.756L151.631 21.0645C151.67 20.8952 151.719 20.7845 151.777 20.7324C151.842 20.6738 151.947 20.6315 152.09 20.6055C152.233 20.5794 152.484 20.5664 152.842 20.5664C153.122 20.5664 153.353 20.5794 153.535 20.6055C153.724 20.6315 153.861 20.6803 153.945 20.752C154.036 20.8236 154.082 20.9212 154.082 21.0449C154.082 21.1621 154.056 21.3021 154.004 21.4648L151.104 30ZM162.754 20.3516C162.754 20.8854 162.676 21.3672 162.52 21.7969C162.37 22.2266 162.155 22.5977 161.875 22.9102C161.602 23.2227 161.27 23.4733 160.879 23.6621C160.495 23.8509 160.068 23.9714 159.6 24.0234L159.521 25.9277C159.515 26.0449 159.421 26.1328 159.238 26.1914C159.062 26.25 158.805 26.2793 158.467 26.2793C158.252 26.2793 158.07 26.276 157.92 26.2695C157.777 26.2565 157.663 26.237 157.578 26.2109C157.493 26.1849 157.432 26.1491 157.393 26.1035C157.354 26.0579 157.331 25.9993 157.324 25.9277L157.236 23.623C157.23 23.4147 157.24 23.2454 157.266 23.1152C157.292 22.985 157.337 22.8809 157.402 22.8027C157.474 22.7246 157.562 22.6725 157.666 22.6465C157.77 22.6139 157.894 22.5977 158.037 22.5977H158.174C158.519 22.5977 158.815 22.5423 159.062 22.4316C159.316 22.321 159.525 22.1745 159.688 21.9922C159.85 21.8099 159.967 21.5951 160.039 21.3477C160.117 21.1003 160.156 20.8366 160.156 20.5566C160.156 20.2441 160.111 19.9577 160.02 19.6973C159.935 19.4368 159.801 19.2122 159.619 19.0234C159.443 18.8346 159.219 18.6914 158.945 18.5938C158.678 18.4896 158.363 18.4375 157.998 18.4375C157.666 18.4375 157.373 18.4701 157.119 18.5352C156.865 18.6003 156.647 18.6719 156.465 18.75C156.283 18.8281 156.13 18.8997 156.006 18.9648C155.889 19.0299 155.798 19.0625 155.732 19.0625C155.687 19.0625 155.645 19.0495 155.605 19.0234C155.566 18.9909 155.534 18.9355 155.508 18.8574C155.482 18.7793 155.459 18.6686 155.439 18.5254C155.426 18.3822 155.42 18.1999 155.42 17.9785C155.42 17.7507 155.43 17.5846 155.449 17.4805C155.469 17.3763 155.511 17.2917 155.576 17.2266C155.641 17.1615 155.765 17.0866 155.947 17.002C156.13 16.9108 156.348 16.8294 156.602 16.7578C156.855 16.6797 157.139 16.6146 157.451 16.5625C157.764 16.5104 158.089 16.4844 158.428 16.4844C159.196 16.4844 159.854 16.5918 160.4 16.8066C160.947 17.015 161.393 17.2982 161.738 17.6562C162.09 18.0143 162.347 18.4245 162.51 18.8867C162.673 19.349 162.754 19.8372 162.754 20.3516ZM159.863 28.7207C159.863 28.9876 159.84 29.2122 159.795 29.3945C159.756 29.5768 159.681 29.7233 159.57 29.834C159.466 29.9447 159.323 30.0228 159.141 30.0684C158.965 30.1204 158.747 30.1465 158.486 30.1465C158.213 30.1465 157.988 30.1204 157.812 30.0684C157.637 30.0228 157.493 29.9447 157.383 29.834C157.279 29.7233 157.204 29.5768 157.158 29.3945C157.119 29.2122 157.1 28.9876 157.1 28.7207C157.1 28.4473 157.119 28.2194 157.158 28.0371C157.204 27.8483 157.279 27.6986 157.383 27.5879C157.493 27.4707 157.637 27.3893 157.812 27.3438C157.988 27.2917 158.213 27.2656 158.486 27.2656C158.747 27.2656 158.965 27.2917 159.141 27.3438C159.323 27.3893 159.466 27.4707 159.57 27.5879C159.681 27.6986 159.756 27.8483 159.795 28.0371C159.84 28.2194 159.863 28.4473 159.863 28.7207Z" fill="#F3F3F3"/>
</svg>
