<svg width="17" height="17" viewBox="0 0 17 17" fill="none" xmlns="http://www.w3.org/2000/svg">
<path d="M6.65894 14.4374H3.65894C3.52633 14.4374 3.39915 14.3848 3.30539 14.291C3.21162 14.1972 3.15894 14.0701 3.15894 13.9374V11.1437C3.15871 11.0788 3.17129 11.0144 3.19596 10.9544C3.22062 10.8943 3.25689 10.8397 3.30269 10.7937L10.8027 3.2937C10.8492 3.24645 10.9047 3.20894 10.9658 3.18333C11.027 3.15772 11.0926 3.14453 11.1589 3.14453C11.2252 3.14453 11.2909 3.15772 11.352 3.18333C11.4132 3.20894 11.4687 3.24645 11.5152 3.2937L14.3027 6.0812C14.3499 6.12772 14.3874 6.18318 14.4131 6.24434C14.4387 6.3055 14.4519 6.37114 14.4519 6.43745C14.4519 6.50375 14.4387 6.56939 14.4131 6.63055C14.3874 6.69171 14.3499 6.74717 14.3027 6.7937L6.65894 14.4374Z" stroke="#863399" stroke-width="1.33333" stroke-linecap="round" stroke-linejoin="round"/>
<path d="M9.15894 4.9375L12.6589 8.4375" stroke="#863399" stroke-width="1.33333" stroke-linecap="round" stroke-linejoin="round"/>
<path d="M14.1589 14.4375H6.65894L3.19019 10.9688" stroke="#863399" stroke-width="1.33333" stroke-linecap="round" stroke-linejoin="round"/>
</svg>
