<svg width="24" height="28" viewBox="0 0 24 28" fill="none" xmlns="http://www.w3.org/2000/svg">
<g clip-path="url(#clip0_99_73279)">
<path d="M9.00001 22.2499H4.5C4.30109 22.2499 4.11033 22.1709 3.96967 22.0302C3.82902 21.8896 3.75 21.6988 3.75 21.4999V17.3093C3.74966 17.2119 3.76853 17.1154 3.80553 17.0253C3.84253 16.9352 3.89694 16.8533 3.96563 16.7843L15.2156 5.53429C15.2854 5.46343 15.3686 5.40715 15.4603 5.36874C15.5521 5.33033 15.6505 5.31055 15.75 5.31055C15.8495 5.31055 15.9479 5.33033 16.0397 5.36874C16.1314 5.40715 16.2146 5.46343 16.2844 5.53429L20.4656 9.71554C20.5365 9.78533 20.5928 9.86851 20.6312 9.96026C20.6696 10.052 20.6894 10.1505 20.6894 10.2499C20.6894 10.3494 20.6696 10.4478 20.6312 10.5396C20.5928 10.6313 20.5365 10.7145 20.4656 10.7843L9.00001 22.2499Z" stroke="#005895" stroke-width="2" stroke-linecap="round" stroke-linejoin="round"/>
<path d="M12.75 8L18 13.25" stroke="#005895" stroke-width="2" stroke-linecap="round" stroke-linejoin="round"/>
<path d="M20.25 22.25H9L3.79688 17.0469" stroke="#005895" stroke-width="2" stroke-linecap="round" stroke-linejoin="round"/>
</g>
<defs>
<clipPath id="clip0_99_73279">
<rect width="24" height="24" fill="white" transform="translate(0 2)"/>
</clipPath>
</defs>
</svg>
