<svg width="24" height="24" viewBox="0 0 24 24" fill="none" xmlns="http://www.w3.org/2000/svg">
<path fill-rule="evenodd" clip-rule="evenodd" d="M17.2929 2.29289C17.6834 1.90237 18.3166 1.90237 18.7071 2.29289L21.7071 5.29289C22.0976 5.68342 22.0976 6.31658 21.7071 6.70711L12.7071 15.7071C12.5196 15.8946 12.2652 16 12 16H9C8.44772 16 8 15.5523 8 15V12C8 11.7348 8.10536 11.4804 8.29289 11.2929L17.2929 2.29289ZM10 12.4142V14H11.5858L19.5858 6L18 4.41421L10 12.4142Z" fill="#863399"/>
<path fill-rule="evenodd" clip-rule="evenodd" d="M15.0429 4.54289C15.4334 4.15237 16.0666 4.15237 16.4571 4.54289L19.4571 7.54289C19.8476 7.93342 19.8476 8.56658 19.4571 8.95711C19.0666 9.34763 18.4334 9.34763 18.0429 8.95711L15.0429 5.95711C14.6524 5.56658 14.6524 4.93342 15.0429 4.54289Z" fill="#863399"/>
<path fill-rule="evenodd" clip-rule="evenodd" d="M4.75 4.75H12.75C13.3023 4.75 13.75 4.30228 13.75 3.75C13.75 3.19772 13.3023 2.75 12.75 2.75H4.5C4.03587 2.75 3.59075 2.93438 3.26256 3.26256C2.93438 3.59075 2.75 4.03587 2.75 4.5V19.5C2.75 19.9641 2.93437 20.4092 3.26256 20.7374C3.59075 21.0656 4.03587 21.25 4.5 21.25H19.5C19.9641 21.25 20.4092 21.0656 20.7374 20.7374C21.0656 20.4092 21.25 19.9641 21.25 19.5V11.25C21.25 10.6977 20.8023 10.25 20.25 10.25C19.6977 10.25 19.25 10.6977 19.25 11.25V19.25H4.75V4.75Z" fill="#863399"/>
</svg>
