<svg width="24" height="25" viewBox="0 0 24 25" fill="none" xmlns="http://www.w3.org/2000/svg">
<path fill-rule="evenodd" clip-rule="evenodd" d="M17.2929 2.80266C17.6834 2.41213 18.3166 2.41213 18.7071 2.80266L21.7071 5.80266C22.0976 6.19318 22.0976 6.82635 21.7071 7.21687L12.7071 16.2169C12.5196 16.4044 12.2652 16.5098 12 16.5098H9C8.44772 16.5098 8 16.0621 8 15.5098V12.5098C8 12.2445 8.10536 11.9902 8.29289 11.8027L17.2929 2.80266ZM10 12.924V14.5098H11.5858L19.5858 6.50977L18 4.92398L10 12.924Z" fill="#005895"/>
<path fill-rule="evenodd" clip-rule="evenodd" d="M15.0429 5.05266C15.4334 4.66213 16.0666 4.66213 16.4571 5.05266L19.4571 8.05266C19.8476 8.44318 19.8476 9.07635 19.4571 9.46687C19.0666 9.8574 18.4334 9.8574 18.0429 9.46687L15.0429 6.46687C14.6524 6.07635 14.6524 5.44318 15.0429 5.05266Z" fill="#005895"/>
<path fill-rule="evenodd" clip-rule="evenodd" d="M4.75 5.25977H12.75C13.3023 5.25977 13.75 4.81205 13.75 4.25977C13.75 3.70748 13.3023 3.25977 12.75 3.25977H4.5C4.03587 3.25977 3.59075 3.44414 3.26256 3.77233C2.93438 4.10052 2.75 4.54564 2.75 5.00977V20.0098C2.75 20.4739 2.93437 20.919 3.26256 21.2472C3.59075 21.5754 4.03587 21.7598 4.5 21.7598H19.5C19.9641 21.7598 20.4092 21.5754 20.7374 21.2472C21.0656 20.919 21.25 20.4739 21.25 20.0098V11.7598C21.25 11.2075 20.8023 10.7598 20.25 10.7598C19.6977 10.7598 19.25 11.2075 19.25 11.7598V19.7598H4.75V5.25977Z" fill="#005895"/>
</svg>
