<svg xmlns="http://www.w3.org/2000/svg" width="17.588" height="13.191" viewBox="0 0 17.588 13.191">
    <g>
        <path fill="#863399" d="M17.038 4H.55a.519.519 0 0 0-.55.55v12.091a.519.519 0 0 0 .55.55h16.488a.519.519 0 0 0 .55-.55V4.55a.519.519 0 0 0-.55-.55zm-1.319 2.638l-6.6 4.4a.781.781 0 0 1-.33.11.781.781 0 0 1-.33-.11l-6.6-4.4a.581.581 0 0 1-.11-.769.581.581 0 0 1 .769-.11l6.276 4.177 6.266-4.177a.541.541 0 0 1 .769.165.521.521 0 0 1-.11.714z" transform="translate(0 -4)"/>
    </g>
</svg>
