<svg width="24" height="24" viewBox="0 0 24 24" fill="none" xmlns="http://www.w3.org/2000/svg">
<g clip-path="url(#clip0_61_19608)">
<path d="M8.60107 6.18298L15.3979 6.18298" stroke="#005895" stroke-linecap="round" stroke-linejoin="round"/>
<path d="M8.73584 8.04822L15.3921 8.04822" stroke="#005895" stroke-linecap="round" stroke-linejoin="round"/>
<path d="M8.67529 9.96619H15.3237" stroke="#005895" stroke-linecap="round" stroke-linejoin="round"/>
</g>
<path d="M18.042 6.06772L20.6529 7.93932C20.9163 8.12812 20.9332 8.51375 20.6874 8.72494L12.749 15.5454H11.4959L3.28076 8.83043C3.02058 8.61777 3.04006 8.21412 3.31951 8.0275L6.34851 6.00464" stroke="#005895" stroke-width="2" stroke-linejoin="round"/>
<path d="M20.8359 8.16211V19.4629C20.8359 20.5675 19.9405 21.4629 18.8359 21.4629H5.125C4.02043 21.4629 3.125 20.5675 3.125 19.4629V8.16202" stroke="#005895" stroke-width="2" stroke-linejoin="round"/>
<path d="M3.43359 21L10.7239 15.9269C11.4071 15.4514 12.3134 15.4489 12.9993 15.9204L20.0495 20.7674" stroke="#005895" stroke-width="2" stroke-linejoin="round"/>
<path d="M6.18359 11.2164V3.65234C6.18359 3.10006 6.63131 2.65234 7.18359 2.65234H16.8164C17.3687 2.65234 17.8164 3.10006 17.8164 3.65234V10.9142" stroke="#005895" stroke-width="2" stroke-linejoin="round"/>
<defs>
<clipPath id="clip0_61_19608">
<rect width="9.19" height="4.82" fill="white" transform="translate(7.40381 5.64001)"/>
</clipPath>
</defs>
</svg>
