<svg width="24" height="19" viewBox="0 0 24 19" fill="none" xmlns="http://www.w3.org/2000/svg">
<path d="M0.50114 1.96044C3.79505 4.75002 9.57483 9.65773 11.2736 11.188C11.5016 11.3945 11.7462 11.4995 12.0001 11.4995C12.2535 11.4995 12.4977 11.3955 12.7253 11.1899C14.4255 9.6582 20.2052 4.75002 23.4992 1.96044C23.7043 1.78709 23.7355 1.48241 23.5695 1.27048C23.1857 0.780781 22.6134 0.5 22.0001 0.5H2.00016C1.38689 0.5 0.814593 0.780781 0.430828 1.27053C0.264796 1.48241 0.296062 1.78709 0.50114 1.96044Z" fill="#863399"/>
<path d="M23.71 3.4724C23.5327 3.3899 23.3242 3.41868 23.1768 3.54468C19.5239 6.64133 14.8618 10.6106 13.395 11.9323C12.5717 12.6755 11.4292 12.6755 10.604 11.9314C9.0405 10.5227 3.80512 6.07199 0.823219 3.54463C0.674766 3.41863 0.465797 3.39083 0.290016 3.47235C0.113297 3.55443 0 3.73119 0 3.926V16.5002C0 17.6033 0.896953 18.5002 2.00002 18.5002H22C23.103 18.5002 24 17.6033 24 16.5002V3.926C24 3.73119 23.8867 3.55396 23.71 3.4724Z" fill="#863399"/>
</svg>
