<svg width="80" height="80" viewBox="0 0 80 80" fill="none" xmlns="http://www.w3.org/2000/svg">
<g clip-path="url(#clip0)">
<path d="M28.0155 27.5311C35.6058 27.5311 41.7811 21.3558 41.7811 13.7655C41.7811 6.17523 35.6058 0 28.0155 0C20.4252 0 14.25 6.17523 14.25 13.7655C14.25 21.3558 20.4252 27.5311 28.0155 27.5311ZM28.0155 4.69504C33.017 4.69504 37.086 8.76407 37.086 13.7655C37.086 18.767 33.017 22.836 28.0155 22.836C23.0141 22.836 18.945 18.767 18.945 13.7655C18.945 8.76407 23.0141 4.69504 28.0155 4.69504Z" fill="#863399"/>
<path d="M15.0605 43.2263H20.2611V48.4269H15.0605V43.2263Z" fill="#7DD0DE"/>
<path d="M56.8297 43.4049C54.8504 43.4049 52.944 43.7222 51.1573 44.3061C50.9857 35.0271 43.3854 27.5315 34.0662 27.5315H21.966C12.54 27.5315 4.87109 35.2002 4.87109 44.6266V74.8445H44.1121C47.4069 78.034 51.8927 80.0001 56.8297 80.0001C66.919 80.0001 75.1273 71.7918 75.1273 61.7024C75.1273 51.6131 66.919 43.4049 56.8297 43.4049ZM9.56613 44.6266C9.56613 37.7892 15.1288 32.2265 21.966 32.2265H22.3114L25.6687 37.0064V57.2642H30.3637V37.0062L33.721 32.2265H34.0664C40.9036 32.2265 46.4663 37.7892 46.4663 44.6266V46.6312C41.6774 49.9345 38.532 55.4576 38.532 61.7024C38.532 64.7477 39.2807 67.621 40.6024 70.1495H9.56613V44.6266ZM56.8297 75.3051C49.3292 75.3051 43.227 69.2029 43.227 61.7024C43.227 54.202 49.3292 48.0998 56.8297 48.0998C64.3301 48.0998 70.4323 54.202 70.4323 61.7024C70.4323 69.2031 64.3301 75.3051 56.8297 75.3051Z" fill="#863399"/>
<path d="M54.8761 62.863L51.48 59.4671L48.1602 62.787L54.8761 69.5029L65.4974 58.8816L62.1775 55.5618L54.8761 62.863Z" fill="#7DD0DE"/>
</g>
<defs>
<clipPath id="clip0">
<rect width="80" height="80" fill="white"/>
</clipPath>
</defs>
</svg>
