<svg width="81" height="81" viewBox="0 0 81 81" fill="none" xmlns="http://www.w3.org/2000/svg">
<circle cx="40.0195" cy="26.2373" r="22" fill="#863399"/>
<path fill-rule="evenodd" clip-rule="evenodd" d="M30.7063 34.5986V15.2578H40.816L46.4708 20.8969V26.1915C47.3558 26.3139 48.1776 26.6336 48.89 27.1047V20.3949C48.89 20.0735 48.7621 19.7653 48.5345 19.5384L42.1702 13.1917C41.9435 12.9656 41.6363 12.8386 41.3161 12.8386H30.4059C29.845 12.8386 29.3065 13.0608 28.9089 13.4573C28.5112 13.8539 28.2871 14.3925 28.2871 14.9549V34.9015C28.2871 35.4639 28.5112 36.0025 28.9089 36.3991C29.3065 36.7956 29.845 37.0178 30.4059 37.0178H42.7173C41.7406 36.4501 40.9436 35.6085 40.4323 34.5986H30.7063Z" fill="white"/>
<path d="M41.3223 14.0476V20.3943H47.6865" stroke="white" stroke-width="2.41919" stroke-linecap="round" stroke-linejoin="round"/>
<path d="M48.5824 34.8901L51.9265 38.2249M50.2962 30.7625C50.2962 33.9857 47.6761 36.5985 44.444 36.5985C41.2119 36.5985 38.5918 33.9857 38.5918 30.7625C38.5918 27.5394 41.2119 24.9265 44.444 24.9265C47.6761 24.9265 50.2962 27.5394 50.2962 30.7625Z" stroke="white" stroke-width="2.66111" stroke-linecap="round" stroke-linejoin="round"/>
<path d="M16.4707 66.0244C16.4707 68.2861 17.4922 69.417 19.5352 69.417C21.5352 69.417 22.5352 68.2861 22.5352 66.0244C22.5352 63.7939 21.5352 62.6787 19.5352 62.6787C17.4922 62.6787 16.4707 63.7939 16.4707 66.0244ZM15.3281 66.0596C15.3281 63.2197 16.7305 61.7998 19.5352 61.7998C22.2969 61.7998 23.6777 63.2197 23.6777 66.0596C23.6777 68.8838 22.2969 70.2959 19.5352 70.2959C16.7305 70.2959 15.3281 68.8838 15.3281 66.0596ZM24.3867 64.085H25.5586L27.3223 68.9072L29.0742 64.085H30.2461L27.7441 70.2373H26.7363L24.3867 64.085ZM33.6621 64.085C35.4121 64.085 36.2871 64.9502 36.2871 66.6807C36.2871 66.9268 36.2695 67.1904 36.2344 67.4717H31.916C31.916 68.7295 32.6504 69.3584 34.1191 69.3584C34.8184 69.3584 35.4395 69.2803 35.9824 69.124V70.0029C35.4395 70.1592 34.7793 70.2373 34.002 70.2373C31.8887 70.2373 30.832 69.1885 30.832 67.0908C30.832 65.0869 31.7754 64.085 33.6621 64.085ZM31.916 66.5693H35.2441C35.2207 65.4912 34.6934 64.9521 33.6621 64.9521C32.5684 64.9521 31.9863 65.4912 31.916 66.5693ZM37.7461 70.2373V64.085H38.4785L38.6719 64.8701C39.2109 64.3467 39.8594 64.085 40.6172 64.085V64.9873C39.8828 64.9873 39.2871 65.2471 38.8301 65.7666V70.2373H37.7461ZM40.8281 64.085H42L43.7637 68.9072L45.5156 64.085H46.6875L44.1855 70.2373H43.1777L40.8281 64.085ZM48.7676 64.085V70.2373H47.6836V64.085H48.7676ZM48.7676 61.8584V62.8838H47.6836V61.8584H48.7676ZM53.1855 64.085C54.9355 64.085 55.8105 64.9502 55.8105 66.6807C55.8105 66.9268 55.793 67.1904 55.7578 67.4717H51.4395C51.4395 68.7295 52.1738 69.3584 53.6426 69.3584C54.3418 69.3584 54.9629 69.2803 55.5059 69.124V70.0029C54.9629 70.1592 54.3027 70.2373 53.5254 70.2373C51.4121 70.2373 50.3555 69.1885 50.3555 67.0908C50.3555 65.0869 51.2988 64.085 53.1855 64.085ZM51.4395 66.5693H54.7676C54.7441 65.4912 54.2168 64.9521 53.1855 64.9521C52.0918 64.9521 51.5098 65.4912 51.4395 66.5693ZM56.5957 64.085H57.6914L58.7812 68.9072L60.3809 64.085H61.3594L63.0703 68.9072L64.0547 64.085H65.2031L63.5977 70.2373H62.6074L60.8438 65.6377L59.168 70.2373H58.1543L56.5957 64.085Z" fill="#383838"/>
</svg>
