<svg width="81" height="81" viewBox="0 0 81 81" fill="none" xmlns="http://www.w3.org/2000/svg">
<circle cx="40.2383" cy="26.2393" r="22" fill="#863399"/>
<path d="M46.2383 19.2393H51.5633C51.7625 19.238 51.9575 19.297 52.1226 19.4085C52.2877 19.5201 52.4151 19.6789 52.4883 19.8643L54.2383 24.2393" stroke="white" stroke-width="2.28571" stroke-linecap="round" stroke-linejoin="round"/>
<path d="M26.2383 27.2412H46.2383" stroke="white" stroke-width="2.28571" stroke-linecap="round" stroke-linejoin="round"/>
<path d="M47.7383 36.2393C49.3951 36.2393 50.7383 34.8961 50.7383 33.2393C50.7383 31.5824 49.3951 30.2393 47.7383 30.2393C46.0814 30.2393 44.7383 31.5824 44.7383 33.2393C44.7383 34.8961 46.0814 36.2393 47.7383 36.2393Z" stroke="white" stroke-width="2.28571" stroke-miterlimit="10"/>
<path d="M32.7383 36.2393C34.3951 36.2393 35.7383 34.8961 35.7383 33.2393C35.7383 31.5824 34.3951 30.2393 32.7383 30.2393C31.0814 30.2393 29.7383 31.5824 29.7383 33.2393C29.7383 34.8961 31.0814 36.2393 32.7383 36.2393Z" stroke="white" stroke-width="2.28571" stroke-miterlimit="10"/>
<path d="M44.7383 33.2393H35.7383" stroke="white" stroke-width="2.28571" stroke-linecap="round" stroke-linejoin="round"/>
<path d="M29.7383 33.2393H27.2383C26.9731 33.2393 26.7187 33.1339 26.5312 32.9464C26.3436 32.7588 26.2383 32.5045 26.2383 32.2393V18.2393C26.2383 17.974 26.3436 17.7197 26.5312 17.5322C26.7187 17.3446 26.9731 17.2393 27.2383 17.2393H46.2383V30.6393" stroke="white" stroke-width="2.28571" stroke-linecap="round" stroke-linejoin="round"/>
<path d="M46.2383 24.2373H54.2383V32.2373C54.2383 32.5025 54.1329 32.7569 53.9454 32.9444C53.7579 33.1319 53.5035 33.2373 53.2383 33.2373H50.7383" stroke="white" stroke-width="2.28571" stroke-linecap="round" stroke-linejoin="round"/>
<path d="M16.748 69.9463V68.9502C17.627 69.2627 18.5762 69.4189 19.5957 69.4189C21.0371 69.4189 21.7578 68.8916 21.7578 67.8369C21.7578 66.9385 21.2266 66.4893 20.1641 66.4893H19.0859C17.332 66.4893 16.4551 65.7275 16.4551 64.2041C16.4551 62.6025 17.5781 61.8018 19.8242 61.8018C20.8008 61.8018 21.709 61.9189 22.5488 62.1533V63.1494C21.709 62.8369 20.8008 62.6807 19.8242 62.6807C18.3008 62.6807 17.5391 63.1885 17.5391 64.2041C17.5391 65.1025 18.0547 65.5518 19.0859 65.5518H20.1641C21.9492 65.5518 22.8418 66.3135 22.8418 67.8369C22.8418 69.4775 21.7598 70.2979 19.5957 70.2979C18.5762 70.2979 17.627 70.1807 16.748 69.9463ZM24.3066 70.2393V61.8604H25.3906V64.7549C25.9141 64.3096 26.5527 64.0869 27.3066 64.0869C28.8418 64.0869 29.6094 64.8506 29.6094 66.3779V70.2393H28.5254V66.3604C28.5254 65.4463 28.0703 64.9893 27.1602 64.9893C26.5391 64.9893 25.9492 65.249 25.3906 65.7686V70.2393H24.3066ZM32.5742 64.0869V70.2393H31.4902V64.0869H32.5742ZM32.5742 61.8604V62.8857H31.4902V61.8604H32.5742ZM35.5391 68.9854C35.9648 69.1963 36.4395 69.3018 36.9629 69.3018C38.2402 69.3018 38.8789 68.5342 38.8789 66.999C38.8789 65.6592 38.2441 64.9893 36.9746 64.9893C36.4277 64.9893 35.9492 65.0361 35.5391 65.1299V68.9854ZM34.4551 64.3389C35.2715 64.1709 36.1152 64.0869 36.9863 64.0869C38.959 64.0869 39.9453 65.0615 39.9453 67.0107C39.9453 69.1631 38.9531 70.2393 36.9688 70.2393C36.4766 70.2393 36 70.1416 35.5391 69.9463V72.4658H34.4551V64.3389ZM42.5 68.9854C42.9258 69.1963 43.4004 69.3018 43.9238 69.3018C45.2012 69.3018 45.8398 68.5342 45.8398 66.999C45.8398 65.6592 45.2051 64.9893 43.9355 64.9893C43.3887 64.9893 42.9102 65.0361 42.5 65.1299V68.9854ZM41.416 64.3389C42.2324 64.1709 43.0762 64.0869 43.9473 64.0869C45.9199 64.0869 46.9062 65.0615 46.9062 67.0107C46.9062 69.1631 45.9141 70.2393 43.9297 70.2393C43.4375 70.2393 42.9609 70.1416 42.5 69.9463V72.4658H41.416V64.3389ZM49.5781 64.0869V70.2393H48.4941V64.0869H49.5781ZM49.5781 61.8604V62.8857H48.4941V61.8604H49.5781ZM51.459 70.2393V64.0869H52.1914L52.3848 64.8721C53.0137 64.3486 53.7051 64.0869 54.459 64.0869C55.9941 64.0869 56.7617 64.8506 56.7617 66.3779V70.2393H55.6777V66.3604C55.6777 65.4463 55.2227 64.9893 54.3125 64.9893C53.6914 64.9893 53.1016 65.249 52.543 65.7686V70.2393H51.459ZM62.6387 65.1299C62.2676 65.0361 61.8086 64.9893 61.2617 64.9893C59.9531 64.9893 59.2988 65.6982 59.2988 67.1162C59.2988 68.5732 59.918 69.3018 61.1562 69.3018C61.7188 69.3018 62.2129 69.1963 62.6387 68.9854V65.1299ZM63.7227 70.2393C63.7227 71.7236 62.7793 72.4658 60.8926 72.4658C60.1348 72.4658 59.4629 72.3682 58.877 72.1729V71.2939C59.4746 71.4893 60.1504 71.5869 60.9043 71.5869C62.0605 71.5869 62.6387 71.1377 62.6387 70.2393V69.9463C62.1777 70.1416 61.6816 70.2393 61.1504 70.2393C59.2051 70.2393 58.2324 69.2021 58.2324 67.1279C58.2324 65.1006 59.2578 64.0869 61.3086 64.0869C62.1406 64.0869 62.9453 64.1709 63.7227 64.3389V70.2393Z" fill="#383838"/>
</svg>
