<svg width="81" height="81" viewBox="0 0 81 81" fill="none" xmlns="http://www.w3.org/2000/svg">
<circle cx="40.2383" cy="26.2393" r="22" fill="#863399"/>
<path fill-rule="evenodd" clip-rule="evenodd" d="M28.5717 18.5729V33.9062H51.905V18.5729H28.5717ZM25.905 18.2396C25.905 16.9509 26.9497 15.9062 28.2384 15.9062H52.2384C53.527 15.9062 54.5717 16.9509 54.5717 18.2396V34.2396C54.5717 35.5282 53.527 36.5729 52.2384 36.5729H28.2384C26.9497 36.5729 25.905 35.5282 25.905 34.2396V18.2396Z" fill="white"/>
<path fill-rule="evenodd" clip-rule="evenodd" d="M43.905 31.2396C43.905 30.5032 44.502 29.9062 45.2384 29.9062H49.2384C49.9747 29.9062 50.5717 30.5032 50.5717 31.2396C50.5717 31.976 49.9747 32.5729 49.2384 32.5729H45.2384C44.502 32.5729 43.905 31.976 43.905 31.2396Z" fill="white"/>
<path fill-rule="evenodd" clip-rule="evenodd" d="M37.905 31.2396C37.905 30.5032 38.502 29.9062 39.2384 29.9062H41.2384C41.9747 29.9062 42.5717 30.5032 42.5717 31.2396C42.5717 31.976 41.9747 32.5729 41.2384 32.5729H39.2384C38.502 32.5729 37.905 31.976 37.905 31.2396Z" fill="white"/>
<path fill-rule="evenodd" clip-rule="evenodd" d="M25.905 22.3509C25.905 21.6145 26.502 21.0176 27.2384 21.0176H53.2384C53.9747 21.0176 54.5717 21.6145 54.5717 22.3509C54.5717 23.0873 53.9747 23.6842 53.2384 23.6842H27.2384C26.502 23.6842 25.905 23.0873 25.905 22.3509Z" fill="white"/>
<path d="M17.0117 70.2393V61.8604H20.4102C22.1211 61.8604 22.9766 62.6084 22.9766 64.1045C22.9766 65.7334 21.8066 66.7275 19.4668 67.0869L19.2441 66.1729C20.9629 65.9189 21.8223 65.2451 21.8223 64.1514C21.8223 63.2217 21.3184 62.7568 20.3105 62.7568H18.0957V70.2393H17.0117ZM24.0078 68.3818C24.0078 67.1201 24.8398 66.4893 26.5039 66.4893C27.0391 66.4893 27.5742 66.5283 28.1094 66.6064V66.0264C28.1094 65.3193 27.5566 64.9658 26.4512 64.9658C25.8184 64.9658 25.1699 65.0635 24.5059 65.2588V64.3799C25.1699 64.1846 25.8184 64.0869 26.4512 64.0869C28.2793 64.0869 29.1934 64.7236 29.1934 65.9971V70.2393H28.584L28.209 69.6299C27.5957 70.0361 26.9277 70.2393 26.2051 70.2393C24.7402 70.2393 24.0078 69.6201 24.0078 68.3818ZM26.5039 67.3682C25.5625 67.3682 25.0918 67.7002 25.0918 68.3643C25.0918 69.0283 25.4629 69.3604 26.2051 69.3604C26.9551 69.3604 27.5898 69.1611 28.1094 68.7627V67.4854C27.5742 67.4072 27.0391 67.3682 26.5039 67.3682ZM30.2246 64.0869H31.4023L33.1426 68.8916L34.9414 64.0869H36.0898L33.5352 70.4209C33.082 71.5381 32.4023 72.2354 31.4961 72.5127L31.0801 71.7451C31.7676 71.4443 32.2676 70.9541 32.5801 70.2744L30.2246 64.0869ZM37.1094 70.2393V64.0869H37.8418L38.0234 64.8604C38.6133 64.3447 39.2559 64.0869 39.9512 64.0869C40.8418 64.0869 41.4492 64.3682 41.7734 64.9307C42.4414 64.3682 43.1191 64.0869 43.8066 64.0869C45.2207 64.0869 45.9277 64.8662 45.9277 66.4248V70.2393H44.8438V66.3662C44.8438 65.4482 44.457 64.9893 43.6836 64.9893C43.1055 64.9893 42.5645 65.2549 42.0605 65.7861V70.2393H40.9766V66.3838C40.9766 65.4541 40.5938 64.9893 39.8281 64.9893C39.2188 64.9893 38.6738 65.2549 38.1934 65.7861V70.2393H37.1094ZM50.2285 64.0869C51.9785 64.0869 52.8535 64.9521 52.8535 66.6826C52.8535 66.9287 52.8359 67.1924 52.8008 67.4736H48.4824C48.4824 68.7314 49.2168 69.3604 50.6855 69.3604C51.3848 69.3604 52.0059 69.2822 52.5488 69.126V70.0049C52.0059 70.1611 51.3457 70.2393 50.5684 70.2393C48.4551 70.2393 47.3984 69.1904 47.3984 67.0928C47.3984 65.0889 48.3418 64.0869 50.2285 64.0869ZM48.4824 66.5713H51.8105C51.7871 65.4932 51.2598 64.9541 50.2285 64.9541C49.1348 64.9541 48.5527 65.4932 48.4824 66.5713ZM54.3125 70.2393V64.0869H55.0449L55.2383 64.8721C55.8672 64.3486 56.5586 64.0869 57.3125 64.0869C58.8477 64.0869 59.6152 64.8506 59.6152 66.3779V70.2393H58.5312V66.3604C58.5312 65.4463 58.0762 64.9893 57.166 64.9893C56.5449 64.9893 55.9551 65.249 55.3965 65.7686V70.2393H54.3125ZM61.3789 63.0908H62.0586L62.293 64.0869H63.957V64.9658H62.4629V68.499C62.4629 69.0732 62.7109 69.3604 63.207 69.3604H63.957V70.2393H62.9258C61.8945 70.2393 61.3789 69.6865 61.3789 68.5811V63.0908Z" fill="#383838"/>
</svg>
