<svg width="32" height="32" viewBox="0 0 32 32" fill="none" xmlns="http://www.w3.org/2000/svg">
<path fill-rule="evenodd" clip-rule="evenodd" d="M15.9998 5.33268C10.1088 5.33268 5.33317 10.1083 5.33317 15.9993C5.33317 21.8904 10.1088 26.666 15.9998 26.666C21.8909 26.666 26.6665 21.8904 26.6665 15.9993C26.6665 10.1083 21.8909 5.33268 15.9998 5.33268ZM2.6665 15.9993C2.6665 8.63555 8.63604 2.66602 15.9998 2.66602C23.3636 2.66602 29.3332 8.63555 29.3332 15.9993C29.3332 23.3631 23.3636 29.3327 15.9998 29.3327C8.63604 29.3327 2.6665 23.3631 2.6665 15.9993Z" fill="#D61D33"/>
<path fill-rule="evenodd" clip-rule="evenodd" d="M15.9998 8.66602C16.7362 8.66602 17.3332 9.26297 17.3332 9.99935V16.9993C17.3332 17.7357 16.7362 18.3327 15.9998 18.3327C15.2635 18.3327 14.6665 17.7357 14.6665 16.9993V9.99935C14.6665 9.26297 15.2635 8.66602 15.9998 8.66602Z" fill="#D61D33"/>
<path d="M16 23C16.8284 23 17.5 22.3284 17.5 21.5C17.5 20.6716 16.8284 20 16 20C15.1716 20 14.5 20.6716 14.5 21.5C14.5 22.3284 15.1716 23 16 23Z" fill="#D61D33"/>
</svg>
