<svg width="24" height="24" viewBox="0 0 24 24" fill="none" xmlns="http://www.w3.org/2000/svg">
<path fill-rule="evenodd" clip-rule="evenodd" d="M3.23039 7.91789C5.05172 6.09657 7.91742 4.25 12 4.25C16.0826 4.25 18.9483 6.09657 20.7696 7.91789C21.6774 8.82567 22.3317 9.73171 22.7603 10.4125C22.9751 10.7537 23.1347 11.0405 23.2423 11.246C23.2961 11.3487 23.337 11.4313 23.3655 11.4904C23.3797 11.5199 23.3908 11.5436 23.3988 11.561L23.4086 11.5823L23.4118 11.5893L23.4129 11.5919L23.4134 11.593C23.4136 11.5934 23.4138 11.5939 22.5 12C23.4138 12.4061 23.4136 12.4066 23.4134 12.407L23.4129 12.4081L23.4118 12.4107L23.4086 12.4177L23.3988 12.439C23.3908 12.4564 23.3797 12.4801 23.3655 12.5096C23.337 12.5687 23.2961 12.6513 23.2423 12.754C23.1347 12.9595 22.9751 13.2463 22.7603 13.5875C22.3317 14.2683 21.6774 15.1743 20.7696 16.0821C18.9483 17.9034 16.0826 19.75 12 19.75C7.91742 19.75 5.05172 17.9034 3.23039 16.0821C2.32262 15.1743 1.66835 14.2683 1.2397 13.5875C1.02489 13.2463 0.865318 12.9595 0.757723 12.754C0.703889 12.6513 0.662953 12.5687 0.634521 12.5096C0.620301 12.4801 0.609198 12.4564 0.601161 12.439L0.591397 12.4177L0.588226 12.4107L0.587066 12.4081L0.586592 12.407C0.586384 12.4066 0.586188 12.4061 1.5 12C0.586188 11.5939 0.586384 11.5934 0.586592 11.593L0.587066 11.5919L0.588226 11.5893L0.591397 11.5823L0.601161 11.561C0.609198 11.5436 0.620301 11.5199 0.634521 11.4904C0.662953 11.4313 0.703889 11.3487 0.757723 11.246C0.865318 11.0405 1.02489 10.7537 1.2397 10.4125C1.66835 9.73171 2.32262 8.82567 3.23039 7.91789ZM1.5 12L0.586188 11.5939C0.471271 11.8524 0.471271 12.1476 0.586188 12.4061L1.5 12ZM2.62314 12C2.70284 12.144 2.80557 12.3208 2.93217 12.5219C3.3004 13.1067 3.86488 13.8882 4.64461 14.6679C6.19828 16.2216 8.58258 17.75 12 17.75C15.4174 17.75 17.8017 16.2216 19.3554 14.6679C20.1351 13.8882 20.6996 13.1067 21.0678 12.5219C21.1944 12.3208 21.2972 12.144 21.3769 12C21.2972 11.856 21.1944 11.6792 21.0678 11.4781C20.6996 10.8933 20.1351 10.1118 19.3554 9.33211C17.8017 7.77843 15.4174 6.25 12 6.25C8.58258 6.25 6.19828 7.77843 4.64461 9.33211C3.86488 10.1118 3.3004 10.8933 2.93217 11.4781C2.80557 11.6792 2.70284 11.856 2.62314 12ZM22.5 12L23.4138 12.4061C23.5287 12.1476 23.5287 11.8524 23.4138 11.5939L22.5 12Z" fill="#005895"/>
<path fill-rule="evenodd" clip-rule="evenodd" d="M12 9.25C10.4812 9.25 9.25 10.4812 9.25 12C9.25 13.5188 10.4812 14.75 12 14.75C13.5188 14.75 14.75 13.5188 14.75 12C14.75 10.4812 13.5188 9.25 12 9.25ZM7.25 12C7.25 9.37665 9.37665 7.25 12 7.25C14.6234 7.25 16.75 9.37665 16.75 12C16.75 14.6234 14.6234 16.75 12 16.75C9.37665 16.75 7.25 14.6234 7.25 12Z" fill="#005895"/>
</svg>
