<svg width="32" height="33" viewBox="0 0 32 33" fill="none" xmlns="http://www.w3.org/2000/svg">
<g clip-path="url(#clip0_10016_61109)">
<path d="M31.3604 26.8134C28.3669 26.8118 25.3734 26.8094 22.38 26.8078C22.3512 26.8078 22.3224 26.8174 22.268 26.827V29.7717H19.5809V28.895H21.3144C21.3144 28.099 21.3344 27.3414 21.3072 26.5855C21.2896 26.0919 20.996 25.7367 20.548 25.5583C19.7825 25.2535 19.0033 24.9847 18.2209 24.6975C17.8218 25.7471 17.1178 26.3615 16.0066 26.3519C14.9227 26.3423 14.2363 25.7327 13.8411 24.6999C13.0548 24.9887 12.2668 25.2583 11.494 25.5679C10.9789 25.7743 10.7397 26.2175 10.7221 26.7542C10.6989 27.4526 10.7165 28.1518 10.7165 28.887H16.8538V29.7725H9.80931V26.8182H0.730508C0.719309 26.7222 0.702509 26.647 0.702509 26.5727C0.702509 24.7727 0.69611 22.9736 0.711309 21.1737C0.714509 20.7769 0.768106 20.3745 0.847303 19.9849C1.05689 18.9498 1.68887 18.2314 2.66482 17.8898C3.73438 17.5154 4.83753 17.2339 5.92628 16.9147C6.26067 16.8163 6.59585 16.7187 6.93504 16.6371C7.09263 16.5995 7.14223 16.5291 7.18303 16.3659C7.30382 15.8843 7.14943 15.6211 6.72305 15.3395C5.5327 14.5532 4.71833 13.4668 4.44555 12.0285C4.42315 11.9117 4.41275 11.7901 4.41275 11.6709C4.41115 10.511 4.39435 9.35101 4.42075 8.19186C4.44315 7.2103 4.81433 6.34794 5.4631 5.56717C5.68629 5.75676 5.90148 5.94076 6.13907 6.14315C5.5143 6.92071 5.22871 7.79747 5.32631 8.84543C5.68949 8.67264 6.03908 8.53024 6.36466 8.34625C6.83344 8.08146 7.28702 7.79028 7.7414 7.50069C7.8758 7.41429 7.97339 7.40629 8.11258 7.50229C9.73891 8.61984 11.578 8.90703 13.4979 8.87023C13.5155 8.87023 13.5323 8.85503 13.5491 8.84783C13.8115 7.01431 12.438 5.16639 10.6077 4.996C9.75171 4.916 8.87335 4.9608 8.01579 5.0504C7.57021 5.09679 7.14783 5.36558 6.68465 5.54557C6.55025 5.36238 6.38546 5.13839 6.20547 4.892C6.74065 4.48882 7.32062 4.21283 7.96939 4.12804C9.06054 3.98564 10.1621 3.92644 11.2396 4.19843C13.1252 4.67441 14.4579 6.40714 14.4739 8.35345C14.4819 9.29341 14.4499 10.2342 14.4819 11.1725C14.5251 12.4397 14.0603 13.5052 13.222 14.4044C12.8188 14.8372 12.3204 15.1852 11.8452 15.5451C11.6964 15.6571 11.6428 15.7499 11.6564 15.9307C11.7044 16.5747 11.702 16.5603 12.3028 16.7411C12.5756 16.8235 12.7044 16.7779 12.8604 16.5211C13.4612 15.5387 14.3563 15.01 15.5115 14.9996C16.1354 14.994 16.7626 15.05 17.3834 15.1244C17.6378 15.1548 17.8786 15.3051 18.1665 15.4171V15.0748C18.1665 13.5948 18.1665 12.1157 18.1665 10.6358C18.1665 8.22466 19.3977 6.42473 21.6712 5.61037C22.2248 5.41198 22.8327 5.30638 23.4215 5.28239C24.3359 5.24479 25.2638 5.23439 26.1686 5.35278C28.2701 5.62717 30.1236 7.3351 30.5476 9.30301C30.6204 9.64139 30.6404 9.99658 30.6412 10.3446C30.6476 13.694 30.6428 17.0435 30.6516 20.3921C30.6516 20.5449 30.7156 20.7209 30.8052 20.8473C31.078 21.2329 31.2284 21.6585 31.3012 22.1184C31.3148 22.2056 31.342 22.2904 31.362 22.376V26.8158L31.3604 26.8134ZM1.65047 25.8855C1.65047 25.8855 1.67207 25.8999 1.68967 25.8999C4.40395 25.9023 7.11823 25.9055 9.83251 25.8999C9.90851 25.8999 10.0213 25.8295 10.0549 25.7615C10.3293 25.2087 10.7893 24.8663 11.3404 24.6527C12.0556 24.3759 12.778 24.1128 13.5107 23.8912C13.8675 23.7832 14.0723 23.5864 14.1795 23.2512C14.1747 23.2424 14.1731 23.2304 14.1659 23.2248C14.0883 23.1632 14.0083 23.104 13.9307 23.0424C12.9356 22.2592 12.3244 21.2889 12.3748 19.9665C12.4028 19.2194 12.3796 18.4698 12.3796 17.6914C12.1676 17.6322 11.9412 17.5682 11.702 17.501C11.3236 18.5698 10.6061 19.2242 9.46773 19.2362C8.30378 19.2482 7.56461 18.5946 7.17423 17.5034C6.85424 17.5898 6.54705 17.669 6.24227 17.7562C5.20791 18.0522 4.16796 18.3282 3.1432 18.6546C2.22164 18.9474 1.67927 19.6106 1.66007 20.5833C1.62487 22.3408 1.65047 24.1 1.65047 25.8847V25.8855ZM29.7308 19.9841C29.7364 19.8849 29.7444 19.8089 29.7444 19.7338C29.7444 16.5443 29.7468 13.354 29.7404 10.1646C29.7404 9.89818 29.7132 9.6198 29.6364 9.36621C29.0957 7.59028 27.8293 6.59033 26.071 6.25514C25.2494 6.09915 24.3823 6.18395 23.5351 6.16395C22.8007 6.14715 22.104 6.31914 21.464 6.66712C20.0673 7.42789 19.0905 8.50544 19.0689 10.1942C19.0441 12.1533 19.0617 14.114 19.0665 16.0731C19.0665 16.1859 19.0929 16.3163 19.1529 16.4099C19.5321 17.0011 19.6961 17.6466 19.6833 18.345C19.6753 18.7594 19.6817 19.1738 19.6817 19.6274C20.5072 19.2602 21.2832 18.9002 22.072 18.5706C22.4448 18.4154 22.2976 18.085 22.3816 17.8322C22.4552 17.6114 22.2592 17.5738 22.1344 17.4875C20.7912 16.5579 19.9345 15.3627 20.0089 13.6404C20.0353 13.0316 20.0233 12.4205 20.0081 11.8109C20.0025 11.5773 20.0561 11.4581 20.304 11.3973C21.2864 11.1557 22.0912 10.6278 22.7175 9.82939C22.7823 9.74699 22.8567 9.67099 22.9391 9.579C23.5807 10.303 24.2887 10.9037 25.2126 11.1133C25.907 11.2709 26.6286 11.3141 27.3413 11.3757C27.7541 11.4117 28.1733 11.3821 28.6205 11.3821C28.6205 12.1133 28.6261 12.8101 28.6181 13.5076C28.6141 13.8868 28.6357 14.2748 28.5613 14.642C28.3165 15.8419 27.6117 16.7483 26.6046 17.3987C26.2646 17.6186 26.2326 17.8282 26.2926 18.1706C26.3326 18.3978 26.4222 18.5114 26.6302 18.5954C27.1102 18.7906 27.5789 19.0122 28.0517 19.225C28.6029 19.473 29.1533 19.7226 29.73 19.9833L29.7308 19.9841ZM17.9098 23.3176C18.0905 23.7248 18.0921 23.72 18.5577 23.8816C19.2817 24.1328 20.0089 24.3767 20.7232 24.6527C21.2344 24.8503 21.684 25.1567 21.94 25.6631C22.0368 25.8551 22.1456 25.9111 22.3504 25.9103C24.9534 25.9039 27.5565 25.9063 30.1596 25.9063C30.2548 25.9063 30.35 25.9063 30.4484 25.9063C30.4484 24.7439 30.4604 23.6256 30.4444 22.5072C30.4332 21.7257 30.0452 21.1665 29.3477 20.8217C29.1781 20.7377 29.0117 20.6473 28.8389 20.5697C28.0765 20.2249 27.3125 19.8833 26.5494 19.541C26.4166 19.4818 26.2838 19.4242 26.1414 19.361C25.5302 20.5265 24.9358 21.6609 24.3191 22.8384C23.6983 21.6537 23.1031 20.5169 22.4976 19.3602C21.6792 19.7282 20.8848 20.0929 20.0833 20.4393C19.8145 20.5553 19.6393 20.6849 19.5633 21.0081C19.4817 21.3585 19.3209 21.7169 19.1033 22.0025C18.7569 22.4576 18.3361 22.856 17.9098 23.3176V23.3176ZM13.5787 9.77659C13.4084 9.77659 13.2892 9.77659 13.1692 9.77659C11.3692 9.76619 9.63972 9.4638 8.05419 8.54784C7.97419 8.50224 7.8086 8.53344 7.7198 8.58784C6.99823 9.03342 6.28067 9.4846 5.4535 9.71899C5.3951 9.73579 5.31191 9.81899 5.31271 9.87018C5.31831 10.5782 5.26231 11.2981 5.3695 11.9917C5.5247 12.9908 6.14387 13.7532 6.90944 14.3804C7.751 15.07 8.71176 15.4507 9.81571 15.3131C11.302 15.1284 12.3404 14.2756 13.1188 13.038C13.7579 12.0205 13.5299 10.8989 13.5771 9.77499L13.5787 9.77659ZM27.7101 12.3613C26.8542 12.2581 26.0206 12.1957 25.2022 12.0493C24.3551 11.8981 23.6311 11.4501 22.9727 10.8957C22.4128 11.4525 21.7816 11.8405 21.0752 12.1157C20.9984 12.1453 20.9224 12.2893 20.92 12.3821C20.9048 12.9013 20.92 13.4212 20.9112 13.9404C20.9024 14.4556 21.0272 14.9348 21.3024 15.3635C22.0816 16.5787 23.1343 17.3787 24.6399 17.2067C26.1086 17.0387 27.059 16.1291 27.6021 14.7772C27.6605 14.6316 27.7037 14.4684 27.7061 14.3124C27.7173 13.6532 27.7109 12.994 27.7109 12.3605L27.7101 12.3613ZM13.278 18.6338C13.278 19.0794 13.2964 19.5082 13.2748 19.9345C13.2132 21.1505 13.8467 21.9521 14.8195 22.5376C16.557 23.584 18.6513 21.8913 18.7617 20.5633C18.8145 19.9305 18.7705 19.2898 18.7705 18.6338H13.278V18.6338ZM18.7377 17.7002C18.4753 16.7651 17.9282 16.1507 17.0186 15.9643C16.5282 15.8635 16.0074 15.8915 15.5011 15.8955C14.5683 15.9027 13.7371 16.5083 13.4196 17.3859C13.3844 17.4819 13.366 17.5842 13.3356 17.701H18.7377V17.7002ZM10.8253 16.0203C9.86771 16.3091 8.99815 16.2987 8.11178 16.0459C8.08379 16.3235 8.06459 16.5507 8.03659 16.7771C7.94539 17.5282 8.46857 18.2074 9.24054 18.3346C9.9605 18.453 10.7141 17.9314 10.8157 17.1987C10.8661 16.8323 10.8245 16.4531 10.8245 16.0211L10.8253 16.0203ZM23.2687 18.0826C23.1775 18.4018 23.1415 18.7402 23.3623 19.0922C23.6055 19.4786 23.7919 19.9001 24.0055 20.3049C24.1031 20.4913 24.2063 20.6745 24.3239 20.8897C24.6463 20.2737 24.9222 19.6866 25.255 19.133C25.479 18.761 25.4734 18.4098 25.3646 18.0826H23.2679H23.2687ZM16.0434 25.4599C16.5602 25.4463 16.9474 25.1991 17.2234 24.7455C17.4474 24.3767 17.3386 24.06 17.105 23.76C17.0586 23.7008 16.941 23.6464 16.8738 23.6624C16.3114 23.7992 15.7531 23.8016 15.1915 23.6608C15.1291 23.6456 15.0283 23.6624 14.9875 23.7056C14.6563 24.0512 14.6243 24.4039 14.8843 24.8167C15.1483 25.2359 15.5323 25.4487 16.0434 25.4599V25.4599ZM6.68305 5.54317L6.13827 6.14155L5.4623 5.56557L6.20387 4.8888L6.68305 5.54237V5.54317Z" fill="#F58520"/>
<path d="M19.5803 28.8945V29.7716H16.8516V28.8857L19.5803 28.8945Z" fill="#F58520"/>
</g>
<defs>
<clipPath id="clip0_10016_61109">
<rect width="31.9986" height="31.9986" fill="white" transform="translate(0 0.354492)"/>
</clipPath>
</defs>
</svg>
