<svg width="41" height="41" viewBox="0 0 41 41" fill="none" xmlns="http://www.w3.org/2000/svg">
<path d="M0.698242 0.00195312H36.6982C38.9074 0.00195312 40.6982 1.79281 40.6982 4.00195V36.002C40.6982 38.2111 38.9074 40.002 36.6982 40.002H0.698242V0.00195312Z" fill="#005895"/>
<path fill-rule="evenodd" clip-rule="evenodd" d="M19.9508 14.6693C17.4195 14.6693 15.3675 16.7213 15.3675 19.2526C15.3675 21.7839 17.4195 23.8359 19.9508 23.8359C22.4822 23.8359 24.5342 21.7839 24.5342 19.2526C24.5342 16.7213 22.4822 14.6693 19.9508 14.6693ZM14.0342 19.2526C14.0342 15.9849 16.6832 13.3359 19.9508 13.3359C23.2185 13.3359 25.8675 15.9849 25.8675 19.2526C25.8675 22.5203 23.2185 25.1693 19.9508 25.1693C16.6832 25.1693 14.0342 22.5203 14.0342 19.2526Z" fill="white"/>
<path fill-rule="evenodd" clip-rule="evenodd" d="M23.1904 22.4941C23.4507 22.2337 23.8728 22.2337 24.1332 22.4941L27.1707 25.5316C27.431 25.7919 27.431 26.2141 27.1707 26.4744C26.9103 26.7348 26.4882 26.7348 26.2279 26.4744L23.1904 23.4369C22.93 23.1766 22.93 22.7544 23.1904 22.4941Z" fill="white"/>
</svg>
