<svg width="41" height="40" viewBox="0 0 41 40" fill="none" xmlns="http://www.w3.org/2000/svg">
<g clip-path="url(#clip0_130_47063)">
<path d="M32.7344 15.8571C32.7513 16.1028 32.7513 16.3485 32.7513 16.5965C32.7513 24.1528 26.999 32.8674 16.4805 32.8674V32.8629C13.3733 32.8674 10.3306 31.9774 7.71484 30.2992C8.16666 30.3536 8.62073 30.3807 9.07594 30.3819C11.6509 30.3841 14.1523 29.5201 16.1781 27.9292C13.7311 27.8827 11.5853 26.2873 10.8356 23.958C11.6928 24.1233 12.5761 24.0893 13.4174 23.8595C10.7496 23.3205 8.83022 20.9765 8.83022 18.2543C8.83022 18.2294 8.83022 18.2056 8.83022 18.1818C9.62514 18.6246 10.5152 18.8703 11.4256 18.8975C8.91288 17.2182 8.13835 13.8754 9.65571 11.262C12.5591 14.8346 16.8428 17.0064 21.4413 17.2363C20.9805 15.2501 21.61 13.1688 23.0957 11.7726C25.3989 9.60757 29.0213 9.71854 31.1864 12.0206C32.4671 11.7681 33.6946 11.2982 34.8179 10.6324C34.391 11.9561 33.4976 13.0805 32.3041 13.795C33.4376 13.6614 34.545 13.358 35.5879 12.8948C34.8202 14.0453 33.8531 15.0474 32.7344 15.8571Z" fill="#27385F"/>
</g>
<defs>
<clipPath id="clip0_130_47063">
<rect width="28.8562" height="24.0469" fill="white" transform="translate(7.71436 9.61865)"/>
</clipPath>
</defs>
</svg>
