<svg width="41" height="40" viewBox="0 0 41 40" fill="none" xmlns="http://www.w3.org/2000/svg">
<g clip-path="url(#clip0_130_47067)">
<g clip-path="url(#clip1_130_47067)">
<path d="M15.5316 8.0849C14.2548 8.14514 13.3828 8.3489 12.6206 8.64842C11.8317 8.95586 11.1631 9.36842 10.4978 10.0361C9.83252 10.7038 9.42284 11.3729 9.11756 12.163C8.82212 12.9269 8.62196 13.7995 8.56556 15.0771C8.50916 16.3546 8.49668 16.7652 8.50292 20.0239C8.50916 23.2827 8.52356 23.6911 8.58548 24.9713C8.64644 26.2479 8.84948 27.1195 9.149 27.882C9.45692 28.6709 9.869 29.3393 10.5369 30.0048C11.2048 30.6703 11.8735 31.0791 12.6655 31.3848C13.4287 31.6798 14.3016 31.8809 15.5788 31.9368C16.8561 31.9927 17.2672 32.0057 20.525 31.9995C23.7828 31.9932 24.1929 31.9788 25.4728 31.9181C26.7528 31.8574 27.6199 31.6529 28.3826 31.3548C29.1715 31.0462 29.8404 30.6348 30.5054 29.9667C31.1704 29.2985 31.5799 28.6289 31.8849 27.8383C32.1806 27.0751 32.3815 26.2023 32.4369 24.9259C32.4928 23.6451 32.506 23.2361 32.4998 19.9779C32.4936 16.7196 32.4789 16.3111 32.4182 15.0315C32.3575 13.7518 32.1542 12.8827 31.8549 12.1198C31.5465 11.3309 31.1349 10.663 30.4672 9.99698C29.7996 9.33098 29.1295 8.92178 28.3392 8.61746C27.5755 8.32202 26.7031 8.12066 25.4258 8.06546C24.1485 8.01026 23.7374 7.9961 20.4784 8.00234C17.2195 8.00858 16.8115 8.0225 15.5316 8.0849ZM15.6717 29.778C14.5017 29.7271 13.8664 29.5327 13.4431 29.37C12.8824 29.154 12.4831 28.8929 12.0612 28.4751C11.6392 28.0572 11.38 27.6564 11.1612 27.097C10.9968 26.6736 10.7988 26.0391 10.744 24.8691C10.6845 23.6045 10.672 23.2248 10.6651 20.0211C10.6581 16.8173 10.6704 16.4381 10.7258 15.1731C10.7757 14.004 10.9713 13.368 11.1338 12.9449C11.3498 12.3835 11.61 11.9849 12.0288 11.5632C12.4476 11.1415 12.8472 10.8819 13.4071 10.663C13.83 10.4979 14.4645 10.3015 15.634 10.2459C16.8996 10.1859 17.2788 10.1739 20.482 10.1669C23.6853 10.1599 24.0655 10.1719 25.3315 10.2276C26.5005 10.2785 27.1368 10.4722 27.5594 10.6356C28.1203 10.8516 28.5194 11.1111 28.9411 11.5306C29.3628 11.9501 29.6227 12.3483 29.8416 12.9094C30.0069 13.3311 30.2032 13.9654 30.2584 15.1356C30.3187 16.4011 30.3324 16.7806 30.3381 19.9836C30.3439 23.1867 30.3326 23.5671 30.2772 24.8316C30.226 26.0016 30.0321 26.6371 29.8692 27.061C29.6532 27.6214 29.3928 28.021 28.9737 28.4424C28.5547 28.8639 28.1556 29.1235 27.5954 29.3424C27.173 29.5073 26.5377 29.7041 25.3692 29.7598C24.1036 29.8193 23.7244 29.8318 20.52 29.8387C17.3155 29.8457 16.9375 29.8327 15.672 29.778M25.4544 13.5874C25.4548 13.8722 25.5398 14.1505 25.6984 14.387C25.8571 14.6236 26.0823 14.8078 26.3456 14.9163C26.609 15.0249 26.8986 15.0529 27.1778 14.9968C27.4571 14.9407 27.7134 14.8031 27.9145 14.6013C28.1155 14.3996 28.2522 14.1427 28.3072 13.8633C28.3623 13.5838 28.3332 13.2943 28.2237 13.0314C28.1142 12.7684 27.9292 12.5439 27.692 12.3861C27.4549 12.2283 27.1763 12.1444 26.8915 12.145C26.5097 12.1457 26.1438 12.2981 25.8743 12.5686C25.6048 12.8391 25.4537 13.2056 25.4544 13.5874ZM14.34 20.0129C14.3467 23.4161 17.1105 26.1687 20.513 26.1622C23.9155 26.1557 26.67 23.3921 26.6635 19.9889C26.657 16.5857 23.8924 13.8324 20.4895 13.8391C17.0865 13.8459 14.3335 16.6102 14.34 20.0129ZM16.5014 20.0086C16.4998 19.2174 16.7329 18.4436 17.1711 17.7849C17.6094 17.1263 18.2331 16.6123 18.9634 16.3081C19.6937 16.0039 20.4978 15.9231 21.2741 16.0759C22.0503 16.2287 22.7638 16.6083 23.3244 17.1666C23.8849 17.7249 24.2673 18.4369 24.4231 19.2125C24.579 19.9882 24.5014 20.7926 24.2001 21.5241C23.8988 22.2556 23.3873 22.8814 22.7304 23.3222C22.0734 23.763 21.3005 23.9992 20.5094 24.0007C19.9841 24.0018 19.4637 23.8995 18.978 23.6994C18.4922 23.4994 18.0506 23.2056 17.6785 22.8349C17.3063 22.4642 17.0108 22.0238 16.8088 21.5388C16.6068 21.0539 16.5024 20.5339 16.5014 20.0086Z" fill="#27385F"/>
</g>
</g>
<defs>
<clipPath id="clip0_130_47067">
<rect width="40" height="40" fill="white" transform="translate(0.5)"/>
</clipPath>
<clipPath id="clip1_130_47067">
<rect width="24" height="24" fill="white" transform="translate(8.5 8)"/>
</clipPath>
</defs>
</svg>
