<svg width="33" height="33" viewBox="0 0 33 33" fill="none" xmlns="http://www.w3.org/2000/svg">
<path fill-rule="evenodd" clip-rule="evenodd" d="M22.8977 12.3314C23.406 12.8642 23.3861 13.7082 22.8533 14.2165L15.5158 21.2165C15.0003 21.7083 14.1893 21.7079 13.6743 21.2157L10.0118 17.7157C9.47939 17.207 9.46024 16.363 9.96899 15.8306C10.4777 15.2982 11.3218 15.2791 11.8541 15.7878L14.5962 18.4083L21.0126 12.2871C21.5454 11.7788 22.3894 11.7986 22.8977 12.3314Z" fill="#0EB864"/>
<path fill-rule="evenodd" clip-rule="evenodd" d="M16.4329 5.58512C10.5419 5.58512 5.76628 10.3608 5.76628 16.2518C5.76628 22.1428 10.5419 26.9185 16.4329 26.9185C22.324 26.9185 27.0996 22.1428 27.0996 16.2518C27.0996 10.3608 22.324 5.58512 16.4329 5.58512ZM3.09961 16.2518C3.09961 8.88799 9.06915 2.91846 16.4329 2.91846C23.7967 2.91846 29.7663 8.88799 29.7663 16.2518C29.7663 23.6156 23.7967 29.5851 16.4329 29.5851C9.06915 29.5851 3.09961 23.6156 3.09961 16.2518Z" fill="#0EB864"/>
</svg>
