<svg width="24" height="25" viewBox="0 0 24 25" fill="none" xmlns="http://www.w3.org/2000/svg">
<path fill-rule="evenodd" clip-rule="evenodd" d="M16.8486 9.30973C17.2298 9.70934 17.2149 10.3423 16.8153 10.7236L11.3121 15.9736C10.9255 16.3424 10.3173 16.3421 9.93099 15.973L7.18412 13.348C6.78483 12.9664 6.77047 12.3334 7.15204 11.9341C7.5336 11.5348 8.16661 11.5205 8.56589 11.902L10.6225 13.8674L15.4347 9.27645C15.8343 8.89522 16.4673 8.91012 16.8486 9.30973Z" fill="#33CC50"/>
<path fill-rule="evenodd" clip-rule="evenodd" d="M12 4.25C7.58172 4.25 4 7.83172 4 12.25C4 16.6683 7.58172 20.25 12 20.25C16.4183 20.25 20 16.6683 20 12.25C20 7.83172 16.4183 4.25 12 4.25ZM2 12.25C2 6.72715 6.47715 2.25 12 2.25C17.5228 2.25 22 6.72715 22 12.25C22 17.7728 17.5228 22.25 12 22.25C6.47715 22.25 2 17.7728 2 12.25Z" fill="#33CC50"/>
</svg>
