<svg width="61" height="61" viewBox="0 0 61 61" fill="none" xmlns="http://www.w3.org/2000/svg">
<mask id="mask0_256_196015" style="mask-type:luminance" maskUnits="userSpaceOnUse" x="0" y="0" width="61" height="61">
<path d="M60.098 0.603516H0.0605469V60.641H60.098V0.603516Z" fill="white"/>
</mask>
<g mask="url(#mask0_256_196015)">
<path opacity="0.05" d="M30.0793 60.641C46.6543 60.641 60.098 47.1973 60.098 30.6223C60.098 14.0473 46.6543 0.603516 30.0793 0.603516C13.5043 0.603516 0.0605469 14.0473 0.0605469 30.6223C0.0605469 47.1973 13.5043 60.641 30.0793 60.641Z" fill="#383838"/>
<path d="M45.3699 14.6942H45.2949V14.6567L45.3699 14.6942Z" fill="white"/>
</g>
<path d="M20.5919 18.6785H40.6356C41.0763 18.6785 41.4419 19.0347 41.4419 19.4847V38.8253C41.4419 39.3316 41.0294 39.7347 40.5325 39.7347H20.1794C19.6731 39.7347 19.27 39.3222 19.27 38.8253V20.0191C19.27 19.2785 19.87 18.6785 20.6106 18.6785H20.5919Z" fill="#F58E25"/>
<path d="M19.7292 18.6411H40.9824C41.2636 18.6411 41.4792 18.8661 41.4792 19.138V24.2849H19.2605V19.1005C19.2605 18.8474 19.4667 18.6411 19.7199 18.6411H19.7292Z" fill="#F7A551"/>
<path d="M32.1698 18.6411H28.7011L28.6636 25.4192H32.1698V18.6411Z" fill="white"/>
<path d="M25.3543 31.3066H21.0793V37.6816H25.3543V31.3066Z" fill="#6A509B"/>
<path d="M21.97 32.3567H23.0481" stroke="white" stroke-width="0.2" stroke-miterlimit="10" stroke-linecap="round"/>
<path d="M21.97 32.919L24.2106 32.9097" stroke="white" stroke-width="0.2" stroke-miterlimit="10" stroke-linecap="round"/>
<path d="M24.6511 34.8972H21.7917C21.398 34.8972 21.0886 35.2628 21.0886 35.7222V37.6816H25.3636V35.7222C25.3636 35.2628 25.0449 34.8972 24.6605 34.8972H24.6511Z" fill="#563E86"/>
<path d="M21.97 36.0317H24.2106" stroke="white" stroke-width="0.2" stroke-linecap="round" stroke-linejoin="round"/>
<path d="M32.1698 24.8566V25.8503L31.8511 25.5785L31.5604 25.8503L31.2886 25.5785L31.0354 25.8503L30.8011 25.5785L30.5479 25.8503L30.2386 25.5785L29.9854 25.8503L29.6667 25.5785L29.3479 25.8222L29.1042 25.5785L28.7011 25.8222L28.6636 25.5972V24.7253L32.1698 24.8566Z" fill="white"/>
<mask id="mask1_256_196015" style="mask-type:luminance" maskUnits="userSpaceOnUse" x="0" y="0" width="61" height="61">
<path d="M30.1542 60.6878C46.7435 60.6878 60.1917 47.2395 60.1917 30.6503C60.1917 14.061 46.7435 0.612793 30.1542 0.612793C13.5649 0.612793 0.116699 14.061 0.116699 30.6503C0.116699 47.2395 13.5649 60.6878 30.1542 60.6878Z" fill="white"/>
</mask>
<g mask="url(#mask1_256_196015)">
<path d="M7.51794 56.3784L7.20898 56.1244C7.51794 56.3784 7.51797 56.3784 7.51803 56.3783L7.51831 56.378L7.51942 56.3766L7.52381 56.3713L7.54115 56.3502L7.60882 56.2679L7.86612 55.9546C8.08808 55.6844 8.40581 55.2972 8.78895 54.8297C9.55522 53.8948 10.5832 52.6385 11.6301 51.3531C12.6768 50.0679 13.7429 48.7529 14.585 47.7009C15.4177 46.6607 16.0526 45.8517 16.2168 45.5978L15.8809 45.3806L16.2161 45.5989C16.428 45.2734 16.7487 45.0314 17.094 44.8413C17.5288 44.6075 18.0103 44.471 18.517 44.4193C20.219 44.2567 21.596 43.8935 22.2805 43.6815L22.2807 43.6814C22.566 43.5929 22.8597 43.4822 23.1384 43.3382C23.1904 43.3129 23.2472 43.2853 23.308 43.2557C24.0454 42.8967 25.3819 42.246 26.2245 41.8971L26.2249 41.8969C26.5629 41.7565 26.8137 41.5905 26.9764 41.3917C27.1485 41.1814 27.2096 40.9478 27.1806 40.7258C27.119 40.2534 26.6772 40.0213 26.3246 40.0213H26.316L26.3074 40.0216L18.9012 40.3404L18.8979 40.3405C18.7717 40.347 18.6595 40.2433 18.6619 40.1054C18.6855 39.4969 18.7046 38.5856 18.6699 37.8306C18.6527 37.4563 18.6215 37.0999 18.5651 36.8341C18.538 36.7065 18.4981 36.5645 18.4308 36.4482C18.3709 36.3446 18.193 36.114 17.8837 36.1759L17.8805 36.1765C17.6924 36.2157 17.558 36.3462 17.4806 36.4332C17.3912 36.5336 17.3079 36.658 17.2319 36.787C17.0789 37.0467 16.9255 37.3776 16.7871 37.7069L16.7869 37.7074C16.353 38.7438 15.7237 39.7044 14.9553 40.5424L14.9508 40.5379L14.6679 40.8248L14.0251 41.4766L0.0826139 51.6481L-0.403853 52.003L0.111876 52.3138L7.0025 56.467L7.29845 56.6453L7.51794 56.3784Z" fill="#FBE6D1" stroke="#6A509A" stroke-width="0.8"/>
<path style="mix-blend-mode:multiply" opacity="0.54" d="M5.97617 53.0003C5.97617 53.0003 15.4168 43.419 18.1355 43.269L8.91055 54.7253L5.9668 53.0003H5.97617Z" fill="url(#paint0_linear_256_196015)" fill-opacity="0.82"/>
<path d="M41.7843 31.0108C41.8792 30.9213 41.9566 30.8471 42.0127 30.7927L54.7419 29.6895L54.7499 29.6888L54.7578 29.6878L54.7073 29.291C54.7578 29.6878 54.758 29.6877 54.7581 29.6877L54.7585 29.6877L54.7593 29.6876L54.7615 29.6873L54.7675 29.6865L54.7866 29.6837C54.8023 29.6812 54.8241 29.6777 54.8515 29.6727C54.9063 29.6628 54.9837 29.6472 55.0805 29.6237C55.2739 29.5768 55.5453 29.4981 55.8686 29.3698C56.5152 29.1131 57.3711 28.6571 58.2245 27.8579C59.0308 27.1029 59.9387 26.2953 60.6463 25.6754C60.9999 25.3657 61.3028 25.1034 61.5174 24.9185C61.6246 24.826 61.7097 24.753 61.768 24.7031L61.8346 24.6461L61.8517 24.6315L61.856 24.6279L61.857 24.627L61.8573 24.6268L61.8574 24.6267L61.598 24.3222L61.8574 24.6267L62.1255 24.3983L61.9329 24.1035L57.8172 17.8035L57.5008 17.3192L57.1594 17.7861L54.5383 21.3716C54.0468 21.9992 53.4025 22.4874 52.6665 22.7784L52.665 22.779C51.1671 23.3781 48.533 24.4088 46.0089 25.2739C44.7464 25.7066 43.517 26.096 42.4739 26.3691C41.4139 26.6467 40.5969 26.7899 40.1332 26.7635L40.0915 26.7611C40.0817 26.7587 40.0708 26.7559 40.059 26.7527C39.9811 26.7315 39.862 26.6921 39.7149 26.621C39.422 26.4796 39.0118 26.2101 38.5911 25.6992C38.3201 25.3701 37.9989 25.1645 37.6483 25.1555C37.2898 25.1462 37.0112 25.3449 36.8462 25.5884C36.5329 26.0506 36.5259 26.8324 37.1336 27.2864L37.373 26.966L37.1318 27.2851C37.4495 27.5251 37.56 27.8214 37.5958 28.0542C37.6123 28.1801 37.5608 28.3076 37.4523 28.3893C37.113 28.6415 36.5183 29.0585 35.8645 29.4006C35.1934 29.7517 34.5315 29.985 34.0358 29.9514C33.409 29.9053 32.857 30.4922 33.0634 31.1458L33.0634 31.1458L33.0654 31.1518C33.1277 31.3388 33.2352 31.5485 33.4125 31.7705C33.8186 32.288 34.6613 32.9324 35.591 33.3456C36.5091 33.7536 37.647 33.9947 38.5747 33.4965C39.3751 33.0667 40.2652 32.3577 40.9418 31.7719C41.2833 31.4762 41.5764 31.2066 41.7843 31.0108Z" fill="#FBE6D1" stroke="#6A509A" stroke-width="0.8"/>
<path d="M46.2793 25.6159C46.2793 25.6159 51.5199 24.7909 52.8418 24.0784C54.1637 23.3659 59.7699 21.2284 60.5668 25.2409L61.6168 24.3315L57.5012 18.0315L54.4637 22.0815C54.4637 22.0815 53.6199 22.8502 52.823 23.1596L46.2887 25.6159H46.2793Z" fill="#FFD9B2"/>
</g>
<defs>
<linearGradient id="paint0_linear_256_196015" x1="15.0043" y1="51.9222" x2="10.673" y2="46.344" gradientUnits="userSpaceOnUse">
<stop offset="0.26" stop-color="#EAA574"/>
<stop offset="0.7" stop-color="#F4C09D" stop-opacity="0"/>
</linearGradient>
</defs>
</svg>
