<svg width="50" height="50" viewBox="0 0 50 50" fill="none" xmlns="http://www.w3.org/2000/svg">
<path d="M18.6875 41.75C28.2489 41.75 36 33.9989 36 24.4375C36 14.8761 28.2489 7.125 18.6875 7.125C9.12607 7.125 1.375 14.8761 1.375 24.4375C1.375 33.9989 9.12607 41.75 18.6875 41.75Z" fill="#F58E25"/>
<path d="M18.8743 1.375C19.3818 1.645 19.5668 2.06375 19.5381 2.63625C19.5018 3.34875 19.5381 4.065 19.5268 4.78C19.5206 5.41375 19.1368 5.815 18.5706 5.8025C18.0256 5.79 17.6668 5.395 17.6606 4.78C17.6531 4.065 17.6868 3.34875 17.6493 2.63625C17.6206 2.0625 17.8068 1.645 18.3131 1.375H18.8743Z" fill="#E68215"/>
<path d="M4.39098 16.9111L5.62473 14.9999C5.66098 14.9699 5.70348 14.9361 5.74973 14.9574C6.43348 15.2636 6.84348 14.8924 7.26473 14.4099C8.24598 13.2849 9.43348 12.3986 10.711 11.6411C13.293 10.0844 16.2828 9.33844 19.2935 9.49988C23.0322 9.68988 26.3097 11.0511 29.0885 13.6011C31.486 15.8024 33.0072 18.4974 33.746 21.6436C34.3535 24.2286 34.236 26.8024 33.5197 29.3574C33.3835 29.8436 33.106 30.0761 32.6047 30.1336C31.3967 30.2817 30.2173 30.6077 29.1047 31.1011C28.7035 31.2738 28.2702 31.359 27.8335 31.3511C26.0735 31.3411 24.3122 31.3311 22.551 31.3511C21.8222 31.3611 21.0847 31.3999 20.3935 31.6849C18.2072 32.5836 17.2397 34.9636 18.161 37.1461C18.2447 37.3436 18.4972 37.5599 18.286 37.7774C18.101 37.9636 17.8385 37.8261 17.6197 37.7624C13.981 36.7149 10.3447 35.6599 6.69723 34.6374C6.42565 34.5606 6.1906 34.3889 6.03473 34.1536C4.34045 31.8005 3.32713 29.0261 3.10598 26.1349C3.02188 24.955 3.07684 23.7694 3.26973 22.6024C3.37473 21.9236 3.38473 21.3411 2.78223 20.8974C2.99296 20.1198 3.25008 19.3555 3.55223 18.6086C3.59789 18.5794 3.64901 18.5596 3.70249 18.5506C3.75598 18.5416 3.81074 18.5435 3.86348 18.5561C4.22598 18.5699 4.51348 18.4311 4.65598 18.0986C4.72928 17.9512 4.75656 17.7851 4.73427 17.6219C4.71198 17.4587 4.64115 17.306 4.53098 17.1836C4.45473 17.1074 4.34098 17.0449 4.39098 16.9111Z" fill="#F58E25"/>
<path d="M2.48497 36.25C2.0283 36.9597 1.82358 37.8024 1.90372 38.6425C1.97081 39.4555 2.27529 40.2308 2.77931 40.8722C3.28333 41.5135 3.96469 41.9927 4.73872 42.25C8.94872 43.69 13.1575 45.135 17.3487 46.625C19.895 47.5313 22.4962 48.035 25.1862 47.7225C28.4487 47.3475 31.6975 46.84 34.9525 46.4C36.525 46.1888 38.0862 45.8738 39.6887 45.9475C40 45.9625 40.125 46.01 40.1075 46.3525C40.0775 46.9425 40.0962 47.5363 40.1 48.1288C40.1 48.9725 40.475 49.29 41.3912 49.2538C43.1912 49.1775 44.9937 49.2263 46.795 49.2538C48.1287 49.2763 47.765 48.5763 47.8075 46.3175C47.875 42.7413 47.8212 39.1163 47.8212 35.3325C47.8212 33.1388 48.1187 32.4325 46.8212 32.4313H41.5875C41.3862 32.4461 41.1848 32.4027 41.0075 32.3063C39.2187 31.255 37.3825 30.3338 35.29 29.9863C35.1928 29.9711 35.0946 29.9627 34.9962 29.9613C34.5325 29.9525 33.1212 29.93 32.8387 29.955C31.415 30.08 30.0737 30.53 28.7637 31.08C28.4906 31.1918 28.1975 31.2467 27.9025 31.2413C25.985 31.2413 24.0687 31.2288 22.1525 31.2413C19.7437 31.2563 18.0275 32.6975 17.7012 34.9813C17.5612 35.96 17.8425 36.8563 18.3262 37.7113C18.0587 37.8175 17.8462 37.6763 17.6337 37.615C14.3062 36.6688 10.9812 35.71 7.65247 34.7675C7.13456 34.6217 6.59569 34.5647 6.05872 34.5988L5.30872 34.6463C4.74603 34.6768 4.1981 34.8375 3.70809 35.1158C3.21809 35.3941 2.79939 35.7824 2.48497 36.25Z" fill="#412B71"/>
<path d="M8.5073 7.62493C8.5073 8.08118 8.31729 8.37493 7.95729 8.52743C7.59729 8.67993 7.22355 8.66118 6.96605 8.36493C6.28355 7.58118 5.61605 6.78118 4.9798 5.95868C4.6998 5.59743 4.8148 5.07118 5.15355 4.77993C5.4923 4.48868 6.06604 4.43993 6.38104 4.79493C7.06979 5.57368 7.71854 6.38868 8.37354 7.19743C8.46941 7.31851 8.51706 7.4708 8.5073 7.62493Z" fill="#E68215"/>
<path d="M30.4128 8.59868C29.639 8.58368 29.1765 7.77744 29.6078 7.19244C30.2153 6.36869 30.8853 5.58869 31.5603 4.81744C31.7146 4.64835 31.929 4.54646 32.1575 4.53361C32.386 4.52076 32.6105 4.59797 32.7828 4.74869C32.9696 4.89267 33.0928 5.10389 33.1262 5.33736C33.1596 5.57083 33.1005 5.80812 32.9615 5.99869C32.3503 6.78244 31.704 7.53994 31.0665 8.30119C30.9882 8.39815 30.8883 8.47552 30.7748 8.52716C30.6613 8.5788 30.5374 8.60329 30.4128 8.59868Z" fill="#E68215"/>
<path d="M40.0992 39.0001C40.0992 40.5751 40.093 42.1488 40.0992 43.7238C40.0992 44.0001 40.043 44.1101 39.7417 44.0988C37.3867 43.9901 35.098 44.5338 32.7842 44.8238C30.1892 45.1488 27.6042 45.5738 25.0067 45.8663C22.4817 46.1551 20.0655 45.6163 17.688 44.7688C13.5767 43.3013 9.43799 41.9001 5.31299 40.4688C4.32049 40.1238 3.72674 39.3363 3.73049 38.3876C3.73728 37.9564 3.87509 37.5376 4.12559 37.1866C4.3761 36.8356 4.72745 36.5691 5.13299 36.4226C5.60522 36.2541 6.12044 36.2497 6.59549 36.4101C10.1788 37.4451 13.7642 38.4743 17.3517 39.4976C17.5714 39.5767 17.8012 39.6243 18.0342 39.6388C21.5105 39.6388 24.9867 39.6388 28.4617 39.6388C29.1567 39.6388 29.5867 39.0976 29.428 38.4651C29.3192 38.0176 28.9417 37.7688 28.348 37.7688C26.1817 37.7688 24.0142 37.7751 21.848 37.7626C21.2668 37.7609 20.7075 37.5402 20.2818 37.1445C19.8561 36.7488 19.5952 36.2071 19.5512 35.6275C19.5072 35.0479 19.6833 34.4731 20.0443 34.0176C20.4054 33.5621 20.9249 33.2595 21.4992 33.1701C21.7479 33.1385 21.9985 33.1238 22.2492 33.1263C23.9167 33.1263 25.5855 33.0951 27.2492 33.1351C28.1993 33.1777 29.1466 33.0033 30.0192 32.6251C31.2021 32.0946 32.4794 31.8072 33.7755 31.7801C35.5755 31.7501 37.188 32.3751 38.7505 33.1926C39.2055 33.4288 39.7917 33.6038 40.038 33.9876C40.2592 34.3313 40.1017 34.9226 40.1017 35.4051C40.1017 36.6051 40.0992 37.8051 40.0992 39.0001Z" fill="#FDE8D3"/>
<path d="M41.971 40.8489C41.971 38.8076 41.9773 36.7651 41.9635 34.7239C41.9635 34.4126 42.0185 34.2939 42.3635 34.3014C43.501 34.3251 44.6385 34.3201 45.7773 34.3014C46.0785 34.3014 46.1723 34.3726 46.1723 34.6864C46.1623 38.8014 46.1623 42.9164 46.1723 47.0314C46.1723 47.3189 46.1023 47.4064 45.811 47.3976C44.6735 47.3801 43.5348 47.3764 42.3973 47.3976C42.056 47.4051 41.9573 47.3301 41.961 46.9714C41.981 44.9339 41.971 42.8914 41.971 40.8489Z" fill="#F8F4F2"/>
<path d="M9.14893 22.6075C9.14893 21.8133 9.14893 21.0191 9.14893 20.225C9.14893 19.0112 9.77393 18.4 10.9977 18.3975C11.3252 18.3975 11.6527 18.3975 11.9789 18.3975C12.8677 18.4162 13.5189 18.9975 13.5789 19.8975C13.6277 20.6262 13.5989 21.36 13.6014 22.0925C13.6014 23.0925 13.6077 24.085 13.6014 25.0812C13.5914 26.2162 12.9764 26.8425 11.8414 26.8687C11.4367 26.8839 11.0315 26.876 10.6277 26.845C9.73643 26.76 9.16393 26.1262 9.15268 25.22C9.14143 24.3512 9.14893 23.48 9.14893 22.6075Z" fill="#F58E25"/>
<path d="M27.6177 27.3636C27.406 27.3582 27.2046 27.2714 27.0554 27.1212C26.9061 26.971 26.8205 26.7691 26.8164 26.5574C26.8164 26.452 26.8372 26.3476 26.8775 26.2503C26.9178 26.1529 26.9769 26.0644 27.0515 25.9899C27.126 25.9154 27.2144 25.8563 27.3118 25.816C27.4092 25.7756 27.5135 25.7549 27.6189 25.7549C27.7243 25.7549 27.8286 25.7756 27.926 25.816C28.0234 25.8563 28.1118 25.9154 28.1864 25.9899C28.2609 26.0644 28.32 26.1529 28.3603 26.2503C28.4007 26.3476 28.4214 26.452 28.4214 26.5574C28.4173 26.7695 28.3313 26.9718 28.1816 27.122C28.0318 27.2723 27.8297 27.3588 27.6177 27.3636Z" fill="#F58E25"/>
<path d="M20.4814 18.5838C20.5897 18.5837 20.6968 18.6055 20.7965 18.6478C20.8961 18.6901 20.9862 18.7521 21.0613 18.8301C21.1363 18.9081 21.1949 19.0004 21.2334 19.1016C21.2719 19.2028 21.2896 19.3107 21.2854 19.4189C21.2812 19.527 21.2552 19.6332 21.2089 19.7311C21.1626 19.829 21.0971 19.9165 21.0162 19.9884C20.9352 20.0603 20.8406 20.1151 20.738 20.1496C20.6354 20.184 20.5268 20.1974 20.4189 20.1888C20.2075 20.1778 20.0087 20.0849 19.8647 19.9297C19.7207 19.7745 19.6428 19.5692 19.6477 19.3576C19.6602 19.146 19.7539 18.9475 19.9092 18.8034C20.0646 18.6592 20.2695 18.5806 20.4814 18.5838Z" fill="#FC913C"/>
<path d="M21.779 16.617C21.4744 16.4952 21.1495 16.4545 20.8246 16.4545C20.4184 16.4545 20.0123 16.5155 19.5859 16.6576C19.6062 16.1703 19.6265 15.8047 19.6265 15.6017C19.6265 15.1143 19.2001 14.7285 18.6924 14.7285C18.4284 14.7285 18.2051 14.8707 18.1644 15.1753C18.1441 15.358 18.0832 16.2109 17.9817 17.4496C15.6668 18.8913 13.6768 21.3077 13.6768 23.379C13.6768 25.2675 16.1135 25.6939 17.4943 25.7548C17.4537 26.364 17.4334 26.9529 17.4131 27.5011C17.2507 27.5215 17.0882 27.5215 16.9258 27.5215C15.8698 27.5215 14.9561 27.3387 14.3875 27.0747C14.3266 27.0544 14.2656 27.0341 14.2047 27.0341C13.961 27.0341 13.8595 27.2981 13.8595 27.5621C13.8595 27.9479 14.0017 28.4758 14.1438 28.5977C14.3875 28.8211 15.5855 29.5927 17.3319 29.6942C17.3319 32.0091 17.4537 31.8264 17.8192 31.8264C18.2254 31.8264 18.6924 31.4203 18.733 30.9735C18.733 30.872 18.7533 30.3643 18.8142 29.613C20.6215 29.2678 21.8805 27.7448 21.8805 26.1203C21.8805 24.8207 20.7839 24.0694 19.1798 23.8054C19.2813 22.1606 19.3828 20.4955 19.464 19.0741C19.9717 18.6679 20.4387 18.3633 20.6824 18.3633C20.8246 18.3633 20.8855 18.4649 20.8855 18.7288C20.8855 19.5411 20.1951 21.5717 19.6265 22.1809C19.5453 22.2621 19.5047 22.3637 19.5047 22.4652C19.5047 22.9119 20.2154 23.4196 20.7636 23.4196C20.8855 23.4196 20.987 23.3993 21.0885 23.3384C21.4337 23.1353 22.7537 20.4143 22.7537 18.4649C22.7537 17.612 22.4897 16.9013 21.779 16.617ZM17.7786 20.5564C17.7177 21.5514 17.6568 22.587 17.5959 23.643C16.1541 23.5008 16.1135 23.3587 16.1135 23.115C16.1135 22.6073 16.7836 21.5514 17.738 20.597L17.7786 20.5564ZM20.2966 26.0797C20.2966 26.3843 19.7483 26.8513 18.9564 27.1559L19.0579 25.7954C19.7483 25.8157 20.2763 25.8766 20.2966 26.0797Z" fill="#412B71"/>
</svg>
