<svg width="45" height="46" viewBox="0 0 45 46" fill="none" xmlns="http://www.w3.org/2000/svg">
<g clip-path="url(#clip0_43_122858)">
<path d="M22.5 45.5001C34.9264 45.5001 45 35.4265 45 23.0001C45 10.5737 34.9264 0.500061 22.5 0.500061C10.0736 0.500061 0 10.5737 0 23.0001C0 35.4265 10.0736 45.5001 22.5 45.5001Z" fill="#E3F2FB"/>
<path d="M33.9601 11.0601H33.9V11.0301L33.9601 11.0601Z" fill="white"/>
<path d="M10.4102 29.8301H38.2702V25.2301C38.2802 24.5901 37.9902 23.9901 37.4802 23.6101L35.6702 22.2401L34.8802 18.6601L34.9902 17.1401L34.3502 16.1901L29.7602 16.0801L29.7402 14.1201H10.4102V29.8301Z" fill="#FBFBFB"/>
<path d="M38.2803 29.81C38.2803 30.11 37.9103 30.16 37.6103 30.15C37.1703 30.14 36.7203 30.15 36.2603 30.15C36.2103 31.14 35.8403 31.96 35.0703 32.56C34.4903 33.01 33.8303 33.22 33.1003 33.19C31.8503 33.15 30.3103 32.21 30.1803 30.17H19.4703C19.4203 31.18 19.0303 32.01 18.2103 32.62C17.6303 33.05 16.9703 33.23 16.2603 33.19C15.0903 33.13 13.5503 32.26 13.4003 30.15C13.3003 30.15 13.1903 30.15 13.0903 30.15C12.3803 30.15 11.6603 30.15 10.9503 30.15C10.2603 30.15 9.87028 29.74 9.86028 29.06C9.86028 28.76 9.86028 28.45 9.86028 28.11C9.41028 28.11 9.00028 28.11 8.59028 28.11C8.47028 28.11 8.35028 28.11 8.23028 28.1C7.99028 28.07 7.86028 27.91 7.84028 27.68C7.82028 27.43 7.94029 27.26 8.18029 27.19C8.27029 27.16 8.38029 27.16 8.47029 27.16C9.89029 27.16 11.3003 27.16 12.7203 27.16C12.7903 27.16 12.8603 27.16 12.9303 27.17C13.1903 27.21 13.3703 27.41 13.3503 27.66C13.3403 27.91 13.1503 28.1 12.8803 28.1C12.3103 28.11 11.7303 28.1 11.1603 28.1C11.0503 28.1 10.9503 28.1 10.8203 28.1V29.16C10.8903 29.16 10.9703 29.19 11.0403 29.19C11.8103 29.19 12.5903 29.19 13.3603 29.19C13.5303 29.19 13.5903 29.12 13.6603 28.98C14.2103 27.81 15.1303 27.16 16.4203 27.16C17.7203 27.16 18.6503 27.81 19.2003 28.99C19.2703 29.14 19.3503 29.19 19.5103 29.19C22.6503 29.19 25.7903 29.19 28.9303 29.19C29.0003 29.19 29.0603 29.18 29.1603 29.17V28.84C29.1603 27.84 29.1603 26.84 29.1603 25.84C29.1603 25.76 29.1603 25.68 29.1603 25.6C29.1803 25.32 29.3803 25.12 29.6303 25.12C29.9003 25.12 30.1003 25.32 30.1103 25.62C30.1103 26.69 30.1103 27.76 30.1103 28.83C30.1103 28.9 30.1003 28.97 30.1103 29.04C30.1203 29.09 30.1703 29.18 30.2103 29.18C30.2603 29.18 30.3303 29.13 30.3703 29.09C30.4003 29.07 30.4003 29.02 30.4103 28.98C30.9603 27.82 31.8803 27.16 33.1703 27.16C34.4703 27.16 35.4003 27.81 35.9503 28.99C36.0203 29.14 36.0903 29.2 36.2603 29.19C36.5903 29.18 36.9103 29.19 37.2603 29.19V27.08C37.0903 27.08 36.9203 27.08 36.7503 27.08C35.8803 27.06 35.2703 26.44 35.2603 25.56C35.2603 25.25 35.2603 24.95 35.2603 24.64C35.2603 24.27 35.4403 24.1 35.8103 24.1C36.2603 24.1 36.7003 24.1 37.1903 24.1C37.1203 23.79 36.9603 23.54 36.7203 23.39C36.4503 23.23 36.1303 23.04 35.8303 23.04C33.9703 23.01 32.1103 23.02 30.2403 23.02C30.2003 23.02 30.1703 23.03 30.1003 23.04C30.1003 23.21 30.1003 23.38 30.1003 23.54C30.0903 23.83 29.9003 24.02 29.6403 24.02C29.3803 24.02 29.1803 23.84 29.1603 23.55C29.1603 23.46 29.1603 23.37 29.1603 23.28C29.1603 20.61 29.1603 17.93 29.1603 15.26V14.89H10.8303V15.23C10.8303 17.91 10.8303 20.6 10.8303 23.28C10.8303 23.38 10.8303 23.48 10.8303 23.58C10.8003 23.85 10.6503 24 10.3903 24.01C10.1403 24.03 9.98028 23.89 9.91028 23.65C9.88028 23.55 9.89029 23.43 9.89029 23.33C9.89029 20.58 9.89029 17.82 9.89029 15.07C9.89029 14.3 10.2703 13.92 11.0403 13.92C17.0303 13.92 23.0303 13.92 29.0203 13.92C29.7803 13.92 30.1503 14.29 30.1603 15.05C30.1603 15.34 30.1603 15.62 30.1603 15.94C30.2903 15.94 30.3903 15.95 30.4903 15.96C31.5103 15.96 32.5303 15.98 33.5503 15.96C34.8303 15.93 36.2303 16.77 35.7303 18.55C35.6803 18.73 35.5303 18.86 35.4003 19.05C35.6303 19.96 35.8703 20.94 36.1203 21.93C36.1403 22.01 36.2303 22.1 36.3003 22.12C37.3603 22.39 38.0103 23.06 38.2403 24.14C38.2403 24.17 38.2403 24.21 38.2403 24.24C38.2903 26.5 38.2803 28.02 38.2803 29.81ZM30.1703 18.98V22.06H35.1403C35.1203 21.97 35.1103 21.89 35.0903 21.82C34.8803 20.97 34.6603 20.11 34.4603 19.26C34.4103 19.04 34.3203 18.96 34.0903 18.96C32.8803 18.97 31.6703 18.96 30.4703 18.96C30.3703 18.96 30.2803 18.96 30.1703 18.97V18.98ZM33.2403 32.24C34.3703 32.24 35.3003 31.29 35.2903 30.17C35.2903 29.04 34.3503 28.11 33.2203 28.11C32.0803 28.11 31.1303 29.06 31.1503 30.19C31.1703 31.32 32.1003 32.24 33.2303 32.24H33.2403ZM18.5203 30.18C18.5203 29.05 17.6003 28.12 16.4703 28.11C15.3403 28.1 14.4003 29.03 14.3903 30.15C14.3803 31.28 15.3003 32.22 16.4303 32.24C17.5703 32.25 18.5203 31.33 18.5203 30.18ZM30.1603 17.98H34.7703C34.7703 17.35 34.3303 16.93 33.6703 16.93C32.5803 16.93 31.4903 16.93 30.4103 16.93C30.3303 16.93 30.2603 16.94 30.1603 16.95V17.99V17.98ZM37.3103 26.12V25.06H36.2803C36.2003 26.03 36.3603 26.19 37.3103 26.12Z" fill="#765BA7"/>
<path d="M24.0697 28.1001C22.9297 28.1001 21.7897 28.1001 20.6497 28.1001C20.4897 28.1001 20.2897 28.0401 20.1697 27.9401C19.9197 27.7201 20.0397 27.3001 20.3597 27.2001C20.4597 27.1701 20.5697 27.1601 20.6797 27.1601C22.9397 27.1601 25.1997 27.1601 27.4497 27.1601C27.5197 27.1601 27.5897 27.1601 27.6597 27.1601C27.9297 27.2001 28.1097 27.3901 28.0997 27.6301C28.0997 27.8901 27.9097 28.0901 27.6197 28.1001C27.1297 28.1101 26.6297 28.1001 26.1297 28.1001C25.4397 28.1001 24.7397 28.1001 24.0497 28.1001H24.0697Z" fill="#765BA7"/>
<path d="M12.3899 26.0701C11.4099 26.0701 10.4299 26.0701 9.44986 26.0701C9.06986 26.0701 8.85986 25.8901 8.85986 25.6001C8.85986 25.3101 9.08986 25.1201 9.45986 25.1201C11.4199 25.1201 13.3799 25.1201 15.3399 25.1201C15.7899 25.1201 16.0399 25.4701 15.8599 25.8101C15.7499 26.0201 15.5599 26.0701 15.3399 26.0701C14.3599 26.0701 13.3799 26.0701 12.3999 26.0701H12.3899Z" fill="#765BA7"/>
<path d="M33.2302 29.2001C33.7802 29.2001 34.2202 29.6301 34.2202 30.1801C34.2202 30.7201 33.7702 31.1701 33.2402 31.1701C32.7002 31.1701 32.2602 30.7201 32.2602 30.1801C32.2602 29.6301 32.6902 29.2001 33.2402 29.2001H33.2302Z" fill="#765BA7"/>
<path d="M17.4303 30.1701C17.4303 30.7201 17.0003 31.1601 16.4603 31.1601C15.9303 31.1601 15.4703 30.7101 15.4703 30.1801C15.4703 29.6401 15.9103 29.2001 16.4503 29.2001C17.0003 29.2001 17.4303 29.6201 17.4303 30.1701Z" fill="#765BA7"/>
<path d="M16.5799 33.3401C18.419 33.3401 19.9099 31.8492 19.9099 30.0101C19.9099 28.1709 18.419 26.6801 16.5799 26.6801C14.7408 26.6801 13.2499 28.1709 13.2499 30.0101C13.2499 31.8492 14.7408 33.3401 16.5799 33.3401Z" fill="#005895"/>
<path d="M16.5597 31.4801C17.3384 31.4801 17.9697 30.8488 17.9697 30.0701C17.9697 29.2914 17.3384 28.6601 16.5597 28.6601C15.7809 28.6601 15.1497 29.2914 15.1497 30.0701C15.1497 30.8488 15.7809 31.4801 16.5597 31.4801Z" fill="white"/>
<path d="M33.0102 33.7501C34.8493 33.7501 36.3402 32.2592 36.3402 30.4201C36.3402 28.581 34.8493 27.0901 33.0102 27.0901C31.1711 27.0901 29.6802 28.581 29.6802 30.4201C29.6802 32.2592 31.1711 33.7501 33.0102 33.7501Z" fill="#005895"/>
<path d="M32.9803 31.89C33.759 31.89 34.3903 31.2587 34.3903 30.48C34.3903 29.7013 33.759 29.07 32.9803 29.07C32.2016 29.07 31.5703 29.7013 31.5703 30.48C31.5703 31.2587 32.2016 31.89 32.9803 31.89Z" fill="white"/>
<path d="M30.1201 22.1701L35.1801 22.2401L34.7301 19.5701C34.6701 19.2101 34.3601 18.9501 34.0001 18.9501H30.0801L30.1101 22.1601L30.1201 22.1701Z" fill="#C7E6F7"/>
<path d="M17.0894 21.1058L18.7929 22.8093C18.9219 22.9383 19.1309 22.9383 19.2599 22.8093L23.0904 18.9788" stroke="#F58E25" stroke-width="1.3207" stroke-linecap="round"/>
<g opacity="0.1">
<path d="M29.9729 14.1991H28.2829V29.3887H29.9729V14.1991Z" fill="#765BA7"/>
</g>
</g>
<defs>
<clipPath id="clip0_43_122858">
<rect width="45" height="45" fill="white" transform="translate(0 0.500061)"/>
</clipPath>
</defs>
</svg>
