<svg width="41" height="26" viewBox="0 0 41 26" fill="none" xmlns="http://www.w3.org/2000/svg">
<g clip-path="url(#clip0_994_209262)">
<path d="M25.4862 2.04346C25.3671 2.00806 25.2406 2.0064 25.1206 2.03864C25.0006 2.07089 24.892 2.13578 24.8067 2.2261C21.0813 6.14759 17.0174 7.11185 12.403 5.18065C12.2373 5.10941 12.0502 5.10689 11.8827 5.17363C11.7152 5.24037 11.5811 5.37091 11.5099 5.53654C11.4386 5.70216 11.4361 5.8893 11.5029 6.05678C11.5696 6.22427 11.7001 6.35838 11.8658 6.42961C16.9959 8.57838 21.6722 7.47982 25.7763 3.1635C25.8378 3.09927 25.8859 3.02351 25.918 2.9406C25.9501 2.85768 25.9654 2.76924 25.9632 2.68037C25.9609 2.5915 25.9411 2.50395 25.9049 2.42276C25.8687 2.34157 25.8168 2.26835 25.7521 2.2073C25.6781 2.13189 25.5869 2.07565 25.4862 2.04346Z" fill="#F58E25"/>
<path d="M16.2121 10.6656C16.0161 10.8618 15.7663 10.9954 15.4943 11.0496C15.2223 11.1038 14.9403 11.076 14.6841 10.9699C14.4278 10.8639 14.2088 10.6841 14.0547 10.4536C13.9006 10.223 13.8184 9.95187 13.8184 9.67453C13.8184 9.39719 13.9006 9.12608 14.0547 8.8955C14.2088 8.66491 14.4278 8.4852 14.6841 8.37911C14.9403 8.27301 15.2223 8.2453 15.4943 8.29946C15.7663 8.35363 16.0161 8.48725 16.2121 8.68341C16.3426 8.81342 16.446 8.96788 16.5167 9.13796C16.5873 9.30804 16.6236 9.49038 16.6236 9.67453C16.6236 9.85868 16.5873 10.041 16.5167 10.2111C16.446 10.3812 16.3426 10.5356 16.2121 10.6656Z" fill="#F58E25"/>
<path d="M38.5075 6.83332C39.089 6.83332 39.5604 6.36193 39.5604 5.78043C39.5604 5.19894 39.089 4.72754 38.5075 4.72754C37.926 4.72754 37.4546 5.19894 37.4546 5.78043C37.4546 6.36193 37.926 6.83332 38.5075 6.83332Z" fill="#74C0EB"/>
<path d="M20.7797 2.79652L20.5917 2.61388C20.5652 2.58965 20.5316 2.5745 20.4958 2.57064C20.4601 2.56678 20.4241 2.57439 20.393 2.59239L20.1647 2.72131C20.1333 2.73873 20.0974 2.74593 20.0618 2.74191C20.0262 2.73789 19.9927 2.72284 19.9661 2.69887C19.9394 2.6749 19.921 2.64321 19.9132 2.60823C19.9055 2.57324 19.9089 2.53672 19.9229 2.50375L20.0304 2.2647C20.0454 2.23198 20.0496 2.19533 20.0423 2.16007C20.0351 2.12481 20.0168 2.09277 19.9901 2.06863L19.7859 1.89135C19.7583 1.86745 19.7392 1.83526 19.7314 1.79959C19.7236 1.76392 19.7276 1.72669 19.7427 1.69346C19.7578 1.66022 19.7833 1.63276 19.8153 1.61518C19.8473 1.5976 19.8841 1.59084 19.9202 1.5959L20.1888 1.62276C20.2246 1.62619 20.2606 1.61848 20.2918 1.6007C20.3231 1.58291 20.3481 1.55591 20.3634 1.52338L20.4709 1.28433C20.4852 1.25077 20.51 1.22276 20.5416 1.20446C20.5732 1.18616 20.6098 1.17855 20.646 1.18278C20.6823 1.18701 20.7162 1.20284 20.7427 1.22792C20.7692 1.253 20.7869 1.28598 20.7932 1.32193L20.8469 1.5771C20.8546 1.61247 20.8733 1.6445 20.9003 1.66862C20.9273 1.69273 20.9613 1.7077 20.9973 1.7114L21.2659 1.74094C21.3019 1.74494 21.3357 1.76019 21.3625 1.78452C21.3893 1.80885 21.4077 1.84102 21.4152 1.87645C21.4226 1.91188 21.4187 1.94875 21.4039 1.98181C21.3892 2.01487 21.3644 2.04244 21.333 2.06057L21.1074 2.1895C21.0759 2.20707 21.0508 2.23428 21.0358 2.26714C21.0208 2.3 21.0167 2.3368 21.0242 2.37214L21.0752 2.62731C21.0906 2.66579 21.0916 2.70856 21.078 2.74772C21.0643 2.78688 21.037 2.81979 21.001 2.8404C20.9651 2.861 20.9229 2.86791 20.8822 2.85985C20.8415 2.85178 20.8051 2.82929 20.7797 2.79652Z" fill="#D8B7FF"/>
<path d="M38.0779 2.27474C38.239 2.44672 38.3255 2.67548 38.3184 2.91101C38.3114 3.14655 38.2114 3.36972 38.0403 3.53177C37.025 4.54706 35.623 3.94003 34.4841 3.45119C34.0383 3.26049 33.2217 2.914 32.937 2.95966C32.8887 3.24169 33.2379 4.05821 33.4312 4.50408C33.9201 5.63755 34.5271 7.04768 33.5118 8.06028C32.4965 9.07288 31.0945 8.46854 29.9556 7.9797C29.5098 7.789 28.6932 7.44251 28.4085 7.48817C28.3575 7.75677 28.7093 8.58673 28.9027 9.03259C29.3916 10.1661 29.9986 11.5762 28.9833 12.5888C27.968 13.6014 26.566 12.9971 25.4271 12.5082C24.9705 12.3121 24.1244 11.9495 23.8612 12.0194C23.7804 12.0987 23.6848 12.1614 23.5798 12.2038C23.4748 12.2462 23.3625 12.2675 23.2493 12.2665C23.136 12.2656 23.0241 12.2423 22.9199 12.198C22.8156 12.1538 22.7211 12.0894 22.6418 12.0086C22.5624 11.9279 22.4997 11.8322 22.4573 11.7272C22.4149 11.6222 22.3936 11.5099 22.3946 11.3967C22.3956 11.2835 22.4189 11.1715 22.4631 11.0673C22.5074 10.9631 22.5717 10.8686 22.6525 10.7892C23.6678 9.77392 25.0699 10.3809 26.2087 10.8698C26.6573 11.0632 27.4738 11.407 27.7558 11.364C27.8069 11.0793 27.455 10.2628 27.2643 9.81689C26.7755 8.68342 26.1684 7.2733 27.1837 6.26069C28.199 5.24809 29.6011 5.85243 30.7399 6.34127C31.1858 6.53197 32.0023 6.87846 32.2843 6.8328C32.3354 6.55078 31.9835 5.73425 31.7928 5.28838C31.304 4.15491 30.6969 2.74478 31.7122 1.73218C32.7275 0.719578 34.1296 1.32392 35.2684 1.81276C35.725 2.00883 36.5684 2.37412 36.8317 2.3016C36.9944 2.13459 37.2162 2.03818 37.4493 2.03316C37.6824 2.02813 37.9082 2.11489 38.0779 2.27474Z" fill="#D8B7FF"/>
<path d="M39.8486 11.5364C39.891 11.6438 39.9032 11.7608 39.8839 11.8746C39.8646 11.9885 39.8145 12.0949 39.7391 12.1824C36.4449 15.9833 35.917 19.8256 38.1226 23.9232C38.1617 23.996 38.1861 24.0758 38.1944 24.1581C38.2027 24.2403 38.1947 24.3234 38.1709 24.4026C38.147 24.4817 38.1079 24.5554 38.0555 24.6195C38.0032 24.6835 37.9388 24.7366 37.866 24.7757C37.7932 24.8148 37.7134 24.8392 37.6311 24.8475C37.5488 24.8558 37.4658 24.8478 37.3866 24.824C37.3074 24.8002 37.2337 24.761 37.1697 24.7087C37.1057 24.6564 37.0526 24.592 37.0135 24.5191C34.5638 19.972 35.1606 15.5437 38.7972 11.3599C38.8682 11.2786 38.9588 11.2169 39.0604 11.1806C39.162 11.1444 39.2711 11.1348 39.3775 11.1527C39.4839 11.1707 39.5839 11.2156 39.668 11.2832C39.752 11.3508 39.8174 11.4388 39.8577 11.5388L39.8486 11.5364Z" fill="#74C0EB"/>
<path d="M33.7797 14.6149L33.5917 14.4322C33.5652 14.408 33.5316 14.3929 33.4958 14.389C33.4601 14.3851 33.4241 14.3928 33.393 14.4107L33.1647 14.5397C33.1333 14.5571 33.0974 14.5643 33.0618 14.5603C33.0262 14.5562 32.9927 14.5412 32.9661 14.5172C32.9394 14.4933 32.921 14.4616 32.9132 14.4266C32.9055 14.3916 32.9089 14.3551 32.9229 14.3221L33.0304 14.0831C33.0454 14.0503 33.0496 14.0137 33.0423 13.9784C33.0351 13.9432 33.0168 13.9111 32.9901 13.887L32.7859 13.7097C32.7583 13.6858 32.7392 13.6536 32.7314 13.6179C32.7236 13.5823 32.7276 13.5451 32.7427 13.5118C32.7578 13.4786 32.7833 13.4511 32.8153 13.4335C32.8473 13.416 32.8841 13.4092 32.9202 13.4143L33.1888 13.4411C33.2246 13.4445 33.2606 13.4368 33.2918 13.4191C33.3231 13.4013 33.3481 13.3743 33.3634 13.3417L33.4709 13.1027C33.4852 13.0691 33.51 13.0411 33.5416 13.0228C33.5732 13.0045 33.6098 12.9969 33.646 13.0011C33.6823 13.0054 33.7162 13.0212 33.7427 13.0463C33.7692 13.0714 33.7869 13.1043 33.7932 13.1403L33.8469 13.3955C33.8546 13.4308 33.8733 13.4629 33.9003 13.487C33.9273 13.5111 33.9613 13.5261 33.9973 13.5298L34.2659 13.5593C34.3019 13.5633 34.3357 13.5785 34.3625 13.6029C34.3893 13.6272 34.4077 13.6594 34.4152 13.6948C34.4226 13.7302 34.4187 13.7671 34.4039 13.8002C34.3892 13.8332 34.3644 13.8608 34.333 13.8789L34.1074 14.0079C34.0759 14.0254 34.0508 14.0526 34.0358 14.0855C34.0208 14.1184 34.0167 14.1552 34.0242 14.1905L34.0752 14.4457C34.0906 14.4842 34.0916 14.5269 34.078 14.5661C34.0643 14.6052 34.037 14.6382 34.001 14.6588C33.9651 14.6794 33.9229 14.6863 33.8822 14.6782C33.8415 14.6701 33.8051 14.6477 33.7797 14.6149Z" fill="#D8B7FF"/>
</g>
<defs>
<clipPath id="clip0_994_209262">
<rect width="41" height="26" fill="white"/>
</clipPath>
</defs>
</svg>
