<svg width="50" height="50" viewBox="0 0 50 50" fill="none" xmlns="http://www.w3.org/2000/svg">
<path d="M15.445 14.8496L5.34 42.8846C5.24272 43.1536 5.22632 43.4452 5.29283 43.7234C5.35934 44.0016 5.50584 44.2543 5.71426 44.4502C5.92268 44.6462 6.18391 44.7768 6.4657 44.826C6.74748 44.8752 7.03751 44.8408 7.3 44.7271L33.835 33.2496C29.5 36.4346 11.79 18.7346 15.445 14.8496Z" fill="#917CB9"/>
<path d="M33.8357 33.2444C35.4612 31.6189 32.6618 26.1839 27.5831 21.1052C22.5043 16.0264 17.0694 13.227 15.4438 14.8526C13.8183 16.4781 16.6176 21.9131 21.6964 26.9918C26.7752 32.0706 32.2101 34.87 33.8357 33.2444Z" fill="#563E86"/>
<path d="M16.1225 19.75L5.32495 43.835C5.40727 44.0784 5.55074 44.2966 5.7416 44.4686C5.93247 44.6407 6.16433 44.7608 6.41495 44.8175L18.8775 23.8525C17.8328 22.5742 16.9105 21.2006 16.1225 19.75Z" fill="#B6A0EA"/>
<path d="M29.2726 18.7495C29.1226 18.5894 29.0422 18.3765 29.0487 18.1573C29.0553 17.9381 29.1483 17.7303 29.3076 17.5795C30.2526 16.6345 31.5576 17.1995 32.6176 17.6545C33.0326 17.832 33.7926 18.1545 34.0576 18.112C34.1026 17.8495 33.7776 17.0895 33.5976 16.6745C33.1426 15.6195 32.5776 14.307 33.5226 13.3645C34.4676 12.422 35.7726 12.9845 36.8326 13.4395C37.2476 13.617 38.0076 13.9395 38.2726 13.897C38.3201 13.647 37.9926 12.8745 37.8126 12.4595C37.3576 11.4045 36.7926 10.092 37.7376 9.14951C38.6826 8.20701 39.9876 8.76951 41.0476 9.22451C41.4726 9.40701 42.2601 9.74451 42.5051 9.67951C42.5803 9.60564 42.6692 9.5473 42.767 9.50783C42.8647 9.46835 42.9692 9.44851 43.0746 9.44944C43.18 9.45037 43.2842 9.47205 43.3812 9.51324C43.4782 9.55443 43.5662 9.61432 43.6401 9.68951C43.7139 9.76469 43.7723 9.85368 43.8118 9.95141C43.8512 10.0491 43.8711 10.1537 43.8701 10.2591C43.8692 10.3645 43.8475 10.4687 43.8063 10.5657C43.7651 10.6627 43.7053 10.7506 43.6301 10.8245C42.6851 11.7695 41.3801 11.2045 40.3201 10.7495C39.9026 10.5695 39.1426 10.2495 38.8801 10.2895C38.8326 10.5545 39.1601 11.3145 39.3376 11.7295C39.7926 12.7845 40.3576 14.097 39.4126 15.0395C38.4676 15.982 37.1626 15.4195 36.1026 14.9645C35.6876 14.787 34.9276 14.4645 34.6651 14.507C34.6176 14.7695 34.9451 15.5295 35.1226 15.9445C35.5776 16.9995 36.1426 18.312 35.1976 19.2545C34.2526 20.197 32.9476 19.6345 31.8876 19.1795C31.4626 18.997 30.6776 18.657 30.4326 18.7245C30.2811 18.88 30.0747 18.9697 29.8577 18.9744C29.6407 18.979 29.4306 18.8983 29.2726 18.7495Z" fill="#D8B7FF"/>
<path d="M34.4825 35.7178C34.4654 35.6357 34.4648 35.551 34.4808 35.4686C34.4968 35.3863 34.5289 35.3079 34.5755 35.2381C34.622 35.1683 34.6819 35.1085 34.7518 35.0621C34.8217 35.0157 34.9001 34.9836 34.9825 34.9678C35.9825 34.7303 36.6025 35.6203 37.1075 36.3378C37.3075 36.6203 37.67 37.1378 37.8575 37.2103C37.9925 37.0578 38.0825 36.4328 38.1325 36.0903C38.2575 35.2228 38.4125 34.1428 39.405 33.9053C40.3975 33.6678 41.025 34.5603 41.53 35.2753C41.73 35.5578 42.0925 36.0753 42.28 36.1503C42.415 35.9978 42.505 35.3703 42.555 35.0278C42.68 34.1603 42.835 33.0803 43.8275 32.8428C44.82 32.6053 45.4475 33.4978 45.9525 34.2128C46.1575 34.5028 46.5325 35.0378 46.72 35.0928C46.8009 35.0674 46.8862 35.059 46.9705 35.0681C47.0549 35.0772 47.1364 35.1037 47.21 35.1459C47.2836 35.188 47.3477 35.2449 47.3982 35.313C47.4488 35.3811 47.4847 35.459 47.5037 35.5416C47.5227 35.6243 47.5244 35.71 47.5087 35.7933C47.4931 35.8767 47.4603 35.9559 47.4125 36.026C47.3647 36.096 47.303 36.1555 47.2311 36.2005C47.1593 36.2456 47.0789 36.2753 46.995 36.2878C45.995 36.5378 45.375 35.6328 44.8675 34.9153C44.67 34.6328 44.305 34.1178 44.1175 34.0428C43.9825 34.1953 43.89 34.8203 43.8425 35.1628C43.7175 36.0303 43.56 37.1103 42.57 37.3478C41.58 37.5853 40.9475 36.6953 40.4425 35.9778C40.245 35.6953 39.88 35.1803 39.6925 35.1053C39.555 35.2578 39.465 35.8828 39.4175 36.2253C39.2925 37.0928 39.135 38.1728 38.145 38.4103C37.155 38.6478 36.525 37.7578 36.0175 37.0403C35.815 36.7503 35.4375 36.2178 35.2525 36.1628C35.0914 36.2049 34.9202 36.1818 34.7761 36.0985C34.6319 36.0152 34.5264 35.8784 34.4825 35.7178Z" fill="#F58E25"/>
<path d="M10.8152 17.9991C10.665 18.0647 10.4949 18.0681 10.3422 18.0086C10.1894 17.9491 10.0665 17.8315 10.0002 17.6816C9.5552 16.7841 10.2752 15.9891 10.8502 15.3491C11.0777 15.0991 11.4952 14.6366 11.5252 14.4366C11.3477 14.3416 10.7302 14.3891 10.3927 14.4166C9.5327 14.4841 8.4652 14.5691 8.0227 13.6666C7.5802 12.7641 8.2977 11.9716 8.8752 11.3316C9.1027 11.0816 9.5177 10.6191 9.5477 10.4216C9.3727 10.3241 8.7527 10.3741 8.4152 10.3991C7.5577 10.4691 6.4877 10.5516 6.0452 9.64912C5.6027 8.74662 6.3202 7.95412 6.8977 7.31662C7.1302 7.06662 7.5602 6.58162 7.5727 6.39162C7.53505 6.32001 7.51222 6.24154 7.50556 6.16091C7.49889 6.08029 7.50854 5.99914 7.53391 5.92232C7.55929 5.8455 7.59987 5.77457 7.65325 5.71378C7.70663 5.65298 7.7717 5.60356 7.8446 5.56845C7.91749 5.53335 7.9967 5.51329 8.07752 5.50946C8.15833 5.50564 8.23909 5.51813 8.31497 5.54619C8.39085 5.57425 8.46031 5.6173 8.51919 5.67278C8.57807 5.72826 8.62518 5.79504 8.6577 5.86912C9.1002 6.76662 8.3827 7.56412 7.8052 8.20162C7.5777 8.45162 7.1627 8.91412 7.1327 9.11412C7.3077 9.21162 7.9277 9.16162 8.2652 9.13412C9.1227 9.06662 10.1927 8.98162 10.6352 9.88412C11.0777 10.7866 10.3602 11.5766 9.7827 12.2166C9.5552 12.4666 9.1402 12.9291 9.1102 13.1291C9.2852 13.2241 9.9027 13.1766 10.2427 13.1491C11.1002 13.0816 12.1677 12.9966 12.6127 13.8991C13.0577 14.8016 12.3277 15.5966 11.7502 16.2341C11.5152 16.4841 11.0852 16.9691 11.0752 17.1591C11.1519 17.305 11.1676 17.4754 11.1189 17.6329C11.0701 17.7904 10.9609 17.9221 10.8152 17.9991Z" fill="#F58E25"/>
<path d="M19.6275 20.6276C19.5548 20.5294 19.5103 20.4132 19.4988 20.2916C19.4874 20.17 19.5094 20.0476 19.5625 19.9376C21.8875 15.1526 21.375 11.0826 18 7.50005C17.9401 7.43636 17.8933 7.36149 17.8623 7.27972C17.8313 7.19795 17.8167 7.11088 17.8194 7.02348C17.8221 6.93607 17.8419 6.85005 17.8778 6.77032C17.9138 6.69059 17.965 6.61872 18.0287 6.5588C18.0924 6.49889 18.1673 6.4521 18.249 6.42112C18.3308 6.39014 18.4179 6.37557 18.5053 6.37824C18.5927 6.38091 18.6787 6.40077 18.7584 6.43668C18.8382 6.4726 18.9101 6.52386 18.97 6.58755C22.7175 10.5626 23.32 15.2501 20.75 20.5201C20.6997 20.6225 20.624 20.7103 20.5302 20.7752C20.4363 20.8401 20.3274 20.8798 20.2138 20.8906C20.1002 20.9013 19.9857 20.8828 19.8813 20.8368C19.7769 20.7907 19.6861 20.7187 19.6175 20.6276H19.6275Z" fill="#74C0EB"/>
<path d="M27.3177 29.0829C27.4285 29.1158 27.5463 29.1174 27.658 29.0874C27.7696 29.0574 27.8708 28.997 27.9502 28.9129C31.4177 25.2629 35.2002 24.3654 39.4952 26.1629C39.6493 26.2292 39.8235 26.2315 39.9794 26.1694C40.1353 26.1073 40.2601 25.9858 40.3264 25.8316C40.3927 25.6775 40.3951 25.5033 40.3329 25.3474C40.2708 25.1915 40.1493 25.0667 39.9952 25.0004C35.2202 23.0004 30.8677 24.0229 27.0477 28.0404C26.9904 28.1002 26.9456 28.1707 26.9158 28.2479C26.8859 28.325 26.8716 28.4074 26.8737 28.4901C26.8758 28.5728 26.8943 28.6543 26.928 28.7298C26.9617 28.8054 27.01 28.8736 27.0702 28.9304C27.139 29.0006 27.224 29.0529 27.3177 29.0829Z" fill="#F58E25"/>
<path d="M28.0249 14.7353C27.8424 14.9179 27.6099 15.0423 27.3568 15.0927C27.1036 15.1431 26.8412 15.1173 26.6027 15.0186C26.3641 14.9198 26.1603 14.7525 26.0169 14.5379C25.8734 14.3233 25.7969 14.071 25.7969 13.8128C25.7969 13.5547 25.8734 13.3023 26.0169 13.0877C26.1603 12.8731 26.3641 12.7058 26.6027 12.6071C26.8412 12.5083 27.1036 12.4825 27.3568 12.5329C27.6099 12.5834 27.8424 12.7077 28.0249 12.8903C28.1463 13.0113 28.2426 13.1551 28.3084 13.3134C28.3741 13.4717 28.4079 13.6414 28.4079 13.8128C28.4079 13.9842 28.3741 14.1539 28.3084 14.3122C28.2426 14.4705 28.1463 14.6143 28.0249 14.7353Z" fill="#F58E25"/>
<path d="M16.0225 12.5768C16.7433 12.5768 17.3275 11.9925 17.3275 11.2718C17.3275 10.5511 16.7433 9.9668 16.0225 9.9668C15.3018 9.9668 14.7175 10.5511 14.7175 11.2718C14.7175 11.9925 15.3018 12.5768 16.0225 12.5768Z" fill="#F58E25"/>
<path d="M29.4124 9.25297C29.9536 9.25297 30.3924 8.81421 30.3924 8.27297C30.3924 7.73173 29.9536 7.29297 29.4124 7.29297C28.8711 7.29297 28.4324 7.73173 28.4324 8.27297C28.4324 8.81421 28.8711 9.25297 29.4124 9.25297Z" fill="#74C0EB"/>
<path d="M27.7876 40.417C28.3289 40.417 28.7676 39.9783 28.7676 39.437C28.7676 38.8958 28.3289 38.457 27.7876 38.457C27.2464 38.457 26.8076 38.8958 26.8076 39.437C26.8076 39.9783 27.2464 40.417 27.7876 40.417Z" fill="#5DBBE5"/>
<path d="M18.7349 31.5305C18.6093 31.656 18.4494 31.7413 18.2753 31.7759C18.1013 31.8104 17.9209 31.7926 17.7569 31.7246C17.593 31.6567 17.4529 31.5416 17.3543 31.3941C17.2557 31.2465 17.2031 31.073 17.2031 30.8955C17.2031 30.7181 17.2557 30.5446 17.3543 30.397C17.4529 30.2495 17.593 30.1344 17.7569 30.0665C17.9209 29.9985 18.1013 29.9807 18.2753 30.0152C18.4494 30.0498 18.6093 30.1351 18.7349 30.2605C18.9028 30.4292 18.9971 30.6575 18.9971 30.8955C18.9971 31.1336 18.9028 31.3619 18.7349 31.5305Z" fill="#D8B7FF"/>
<path d="M44.8201 29.1049C44.6718 29.253 44.4829 29.3539 44.2773 29.3947C44.0717 29.4354 43.8587 29.4144 43.665 29.3341C43.4714 29.2538 43.306 29.118 43.1895 28.9437C43.0731 28.7694 43.011 28.5645 43.011 28.3549C43.011 28.1453 43.0731 27.9404 43.1895 27.7662C43.306 27.5919 43.4714 27.456 43.665 27.3757C43.8587 27.2955 44.0717 27.2744 44.2773 27.3152C44.4829 27.356 44.6718 27.4568 44.8201 27.6049C44.9186 27.7034 44.9968 27.8203 45.0502 27.949C45.1035 28.0777 45.131 28.2156 45.131 28.3549C45.131 28.4942 45.1035 28.6322 45.0502 28.7609C44.9968 28.8896 44.9186 29.0065 44.8201 29.1049Z" fill="#F58E25"/>
<path d="M25.6677 22.0823C25.5491 22.2006 25.3981 22.2811 25.2338 22.3136C25.0694 22.3462 24.8991 22.3293 24.7444 22.2651C24.5896 22.2009 24.4574 22.0922 24.3644 21.9529C24.2713 21.8136 24.2217 21.6498 24.2217 21.4823C24.2217 21.3147 24.2713 21.151 24.3644 21.0116C24.4574 20.8723 24.5896 20.7637 24.7444 20.6995C24.8991 20.6353 25.0694 20.6184 25.2338 20.6509C25.3981 20.6834 25.5491 20.7639 25.6677 20.8823C25.7466 20.961 25.8093 21.0545 25.852 21.1575C25.8947 21.2604 25.9167 21.3708 25.9167 21.4823C25.9167 21.5937 25.8947 21.7041 25.852 21.8071C25.8093 21.91 25.7466 22.0035 25.6677 22.0823Z" fill="#F58E25"/>
<path d="M44.185 18.4301C44.0367 18.5782 43.8479 18.6791 43.6423 18.7198C43.4367 18.7606 43.2236 18.7396 43.03 18.6593C42.8364 18.579 42.6709 18.4432 42.5545 18.2689C42.4381 18.0946 42.376 17.8897 42.376 17.6801C42.376 17.4705 42.4381 17.2656 42.5545 17.0914C42.6709 16.9171 42.8364 16.7812 43.03 16.7009C43.2236 16.6207 43.4367 16.5996 43.6423 16.6404C43.8479 16.6812 44.0367 16.782 44.185 16.9301C44.3829 17.1296 44.4939 17.3992 44.4939 17.6801C44.4939 17.9611 44.3829 18.2306 44.185 18.4301Z" fill="#74C0EB"/>
<path d="M8.85516 19.7746L8.97016 20.1296C8.98722 20.1783 9.01897 20.2207 9.06105 20.2506C9.10314 20.2806 9.15348 20.2969 9.20516 20.2971H9.57766C9.63014 20.2979 9.68103 20.3153 9.7231 20.3467C9.76517 20.378 9.79629 20.4219 9.81206 20.4719C9.82782 20.522 9.82743 20.5758 9.81094 20.6256C9.79444 20.6754 9.76269 20.7188 9.72016 20.7496L9.42016 20.9671C9.3785 20.9979 9.34746 21.041 9.33133 21.0902C9.31521 21.1395 9.3148 21.1926 9.33016 21.2421L9.44516 21.5971C9.4577 21.6458 9.45526 21.6971 9.43818 21.7444C9.42109 21.7917 9.39015 21.8327 9.34938 21.8621C9.30862 21.8915 9.25993 21.908 9.20967 21.9093C9.15942 21.9106 9.10993 21.8968 9.06766 21.8696L8.76766 21.6521C8.72532 21.6219 8.67464 21.6057 8.62266 21.6057C8.57069 21.6057 8.52 21.6219 8.47766 21.6521L8.17766 21.8696C8.1354 21.8968 8.08591 21.9106 8.03565 21.9093C7.98539 21.908 7.93671 21.8915 7.89594 21.8621C7.85518 21.8327 7.82423 21.7917 7.80715 21.7444C7.79006 21.6971 7.78763 21.6458 7.80016 21.5971L7.91516 21.2421C7.93052 21.1926 7.93012 21.1395 7.91399 21.0902C7.89787 21.041 7.86682 20.9979 7.82516 20.9671L7.52516 20.7496C7.48556 20.7179 7.45651 20.675 7.44185 20.6265C7.42718 20.578 7.42761 20.5262 7.44306 20.478C7.45852 20.4297 7.48827 20.3873 7.52838 20.3563C7.56849 20.3253 7.61706 20.3073 7.66766 20.3046H8.04266C8.09391 20.3038 8.14371 20.2874 8.18529 20.2574C8.22688 20.2275 8.25825 20.1855 8.27516 20.1371L8.39016 19.7821C8.40783 19.7351 8.4392 19.6946 8.48021 19.6657C8.52122 19.6368 8.56996 19.621 8.62011 19.6201C8.67026 19.6193 8.71949 19.6336 8.76141 19.6612C8.80333 19.6887 8.83599 19.7282 8.85516 19.7746Z" fill="#D8B7FF"/>
<path d="M39.4101 29.0704L39.1601 29.3454C39.1259 29.3843 39.1047 29.4328 39.0993 29.4843C39.0939 29.5358 39.1047 29.5877 39.1301 29.6329L39.3151 29.9554C39.3378 30.0006 39.3463 30.0517 39.3394 30.1019C39.3325 30.1521 39.3106 30.199 39.2764 30.2364C39.2422 30.2738 39.1975 30.2999 39.1482 30.3113C39.0988 30.3228 39.0472 30.3189 39.0001 30.3004L38.6601 30.1479C38.6128 30.1271 38.5603 30.1215 38.5097 30.1318C38.4591 30.1421 38.413 30.1678 38.3776 30.2054L38.1276 30.4829C38.0915 30.5174 38.0458 30.5403 37.9965 30.5487C37.9473 30.557 37.8966 30.5504 37.8511 30.5297C37.8057 30.509 37.7674 30.4751 37.7414 30.4324C37.7154 30.3898 37.7027 30.3403 37.7051 30.2904L37.7451 29.9204C37.75 29.8691 37.7389 29.8176 37.7134 29.7728C37.6879 29.7281 37.6492 29.6923 37.6026 29.6704L37.2626 29.5179C37.2173 29.4949 37.18 29.4587 37.1558 29.4141C37.1316 29.3695 37.1215 29.3186 37.1269 29.2681C37.1323 29.2176 37.153 29.17 37.1862 29.1315C37.2193 29.0931 37.2634 29.0656 37.3126 29.0529L37.6776 28.9779C37.7276 28.9665 37.7729 28.94 37.8073 28.902C37.8418 28.8639 37.8637 28.8163 37.8701 28.7654L37.9126 28.3929C37.9211 28.3435 37.9443 28.2979 37.9791 28.2618C38.0139 28.2258 38.0588 28.2011 38.1078 28.1908C38.1568 28.1806 38.2078 28.1853 38.2541 28.2044C38.3005 28.2235 38.34 28.2561 38.3676 28.2979L38.5526 28.6229C38.5789 28.6671 38.6183 28.7021 38.6652 28.7231C38.7122 28.7442 38.7645 28.7502 38.8151 28.7404L39.1801 28.6654C39.2299 28.6581 39.2807 28.6661 39.3259 28.6882C39.3711 28.7103 39.4085 28.7456 39.4334 28.7893C39.4582 28.8331 39.4693 28.8833 39.4651 28.9334C39.461 28.9836 39.4418 29.0313 39.4101 29.0704Z" fill="#74C0EB"/>
<path d="M24.6752 6.49917L24.5002 6.32917C24.4754 6.30662 24.4442 6.29253 24.4109 6.28893C24.3777 6.28534 24.3441 6.29243 24.3152 6.30917L24.1027 6.42917C24.0735 6.44539 24.04 6.45209 24.0069 6.44834C23.9738 6.4446 23.9426 6.43059 23.9178 6.40828C23.893 6.38597 23.8758 6.35648 23.8686 6.32392C23.8614 6.29136 23.8646 6.25736 23.8777 6.22667L23.9777 6.00417C23.9916 5.97372 23.9955 5.9396 23.9888 5.90678C23.982 5.87396 23.965 5.84415 23.9402 5.82167L23.7502 5.65667C23.7245 5.63442 23.7067 5.60446 23.6994 5.57126C23.6922 5.53806 23.6959 5.50341 23.7099 5.47248C23.724 5.44154 23.7477 5.41599 23.7774 5.39962C23.8072 5.38326 23.8415 5.37696 23.8752 5.38167L24.1252 5.40667C24.1585 5.40987 24.192 5.40269 24.221 5.38614C24.2501 5.36958 24.2734 5.34445 24.2877 5.31417L24.3877 5.09167C24.401 5.06044 24.4241 5.03436 24.4535 5.01733C24.4829 5.0003 24.517 4.99322 24.5507 4.99715C24.5845 5.00109 24.616 5.01583 24.6407 5.03917C24.6654 5.06251 24.6818 5.09321 24.6877 5.12667L24.7377 5.36417C24.7448 5.3971 24.7623 5.42691 24.7874 5.44936C24.8125 5.4718 24.8441 5.48574 24.8777 5.48917L25.1277 5.51667C25.1611 5.52039 25.1926 5.53459 25.2175 5.55723C25.2425 5.57988 25.2597 5.60983 25.2666 5.6428C25.2735 5.67578 25.2698 5.7101 25.2561 5.74087C25.2424 5.77164 25.2193 5.7973 25.1902 5.81417L24.9802 5.93417C24.9508 5.95053 24.9274 5.97585 24.9135 6.00644C24.8995 6.03703 24.8957 6.07128 24.9027 6.10417L24.9502 6.34167C24.9645 6.3775 24.9654 6.4173 24.9527 6.45375C24.9401 6.4902 24.9146 6.52083 24.8811 6.54001C24.8477 6.55919 24.8084 6.56562 24.7705 6.55812C24.7327 6.55061 24.6988 6.52968 24.6752 6.49917Z" fill="#D8B7FF"/>
</svg>
