<svg width="24" height="25" viewBox="0 0 24 25" fill="none" xmlns="http://www.w3.org/2000/svg">
<rect y="0.354492" width="24" height="24" rx="12" fill="#863399"/>
<g clip-path="url(#clip0_10016_61100)">
<path d="M20.0543 10.9684C19.9783 11.3432 19.6503 11.3496 19.3347 11.1184C17.0579 9.45082 14.7807 7.78402 12.5063 6.11362C12.4139 6.04562 12.3587 6.06002 12.2763 6.12082C10.0047 7.78682 7.73153 9.45082 5.45833 11.1148C5.18833 11.3124 4.95313 11.304 4.80393 11.092C4.65713 10.8836 4.71993 10.6688 4.98633 10.474C7.34393 8.74802 9.70113 7.02162 12.0591 5.29602C12.3403 5.09002 12.4515 5.09002 12.7283 5.29282C15.0939 7.02442 17.4603 8.75562 19.8235 10.4904C19.9039 10.5492 19.9899 10.62 20.0295 10.7148C20.0623 10.7932 20.0715 10.8852 20.0547 10.9688L20.0543 10.9684Z" fill="white" stroke="white" stroke-width="0.32" stroke-miterlimit="10"/>
<path d="M7.21494 18.0149H7.38494C8.33294 18.0149 9.28094 18.0121 10.2289 18.0181C10.3653 18.0189 10.4057 17.9837 10.4049 17.8445C10.3993 16.7617 10.3989 15.6789 10.4029 14.5965C10.4065 13.6385 10.9945 12.8649 11.8897 12.6265C13.0857 12.3081 14.2989 13.1625 14.3709 14.3997C14.4065 15.0113 14.3841 15.6265 14.3857 16.2401C14.3873 16.7841 14.3873 17.3277 14.3849 17.8717C14.3845 17.9641 14.3945 18.0177 14.5113 18.0173C15.4993 18.0133 16.4873 18.0149 17.4749 18.0145C17.5037 18.0145 17.5321 18.0069 17.5729 18.0009V17.8189C17.5729 15.7933 17.5729 13.7673 17.5729 11.7417C17.5729 11.4509 17.7317 11.2725 17.9817 11.2785C18.1713 11.2833 18.3253 11.4129 18.3573 11.6013C18.3681 11.6649 18.3697 11.7305 18.3697 11.7949C18.3701 13.9605 18.3701 16.1257 18.3701 18.2913C18.3701 18.3313 18.3709 18.3713 18.3677 18.4109C18.3477 18.6577 18.1969 18.8057 17.9497 18.8061C16.6373 18.8081 15.3253 18.8081 14.0129 18.8061C13.7405 18.8061 13.5909 18.6429 13.5905 18.3565C13.5897 17.0993 13.5921 15.8417 13.5893 14.5845C13.5877 13.9117 13.0941 13.3861 12.4477 13.3577C11.7641 13.3277 11.2017 13.8661 11.1993 14.5665C11.1949 15.7937 11.1981 17.0213 11.1977 18.2485C11.1977 18.2933 11.1985 18.3385 11.1977 18.3833C11.1925 18.6441 11.0377 18.8057 10.7781 18.8061C9.46574 18.8081 8.15374 18.8081 6.84134 18.8061C6.59174 18.8061 6.44094 18.6605 6.42094 18.4137C6.41694 18.3641 6.41814 18.3141 6.41814 18.2641C6.41814 16.1137 6.41814 13.9633 6.41814 11.8129C6.41814 11.7481 6.41814 11.6829 6.42734 11.6189C6.45694 11.4093 6.62294 11.2717 6.83254 11.2789C7.03774 11.2861 7.19654 11.4397 7.21254 11.6489C7.21654 11.7037 7.21454 11.7585 7.21454 11.8133C7.21454 13.8141 7.21454 15.8149 7.21454 17.8157C7.21454 17.8749 7.21454 17.9345 7.21454 18.0145L7.21494 18.0149Z" fill="white" stroke="white" stroke-width="0.32" stroke-miterlimit="10"/>
</g>
<defs>
<clipPath id="clip0_10016_61100">
<rect width="16" height="16" fill="white" transform="translate(4.37891 3.96191)"/>
</clipPath>
</defs>
</svg>
