<svg width="24" height="24" viewBox="0 0 24 24" fill="none" xmlns="http://www.w3.org/2000/svg">
<rect y="-0.000488281" width="24" height="24" rx="12" fill="#863399"/>
<g clip-path="url(#clip0_10016_61116)">
<path d="M15.4592 7.92575C14.4144 7.29255 13.4888 6.48135 12.5044 5.75815C12.412 5.69015 12.3568 5.70455 12.2744 5.76535C10.0028 7.43135 7.72958 9.09535 5.45638 10.7593C5.18638 10.9569 4.95118 10.9485 4.80198 10.7365C4.65518 10.5281 4.71798 10.3133 4.98438 10.1185C7.34198 8.39255 9.69918 6.66615 12.0572 4.94055C12.3384 4.73455 12.4496 4.73455 12.7264 4.93735C14.0488 5.90535 13.176 5.27895 14.498 6.24695" fill="white"/>
<path d="M15.4592 7.92575C14.4144 7.29255 13.4888 6.48135 12.5044 5.75815C12.412 5.69015 12.3568 5.70455 12.2744 5.76535C10.0028 7.43135 7.72958 9.09535 5.45638 10.7593C5.18638 10.9569 4.95118 10.9485 4.80198 10.7365C4.65518 10.5281 4.71798 10.3133 4.98438 10.1185C7.34198 8.39255 9.69918 6.66615 12.0572 4.94055C12.3384 4.73455 12.4496 4.73455 12.7264 4.93735C14.0488 5.90535 13.176 5.27895 14.498 6.24695" stroke="white" stroke-width="0.32" stroke-miterlimit="10"/>
<path d="M18.3682 13.9124C18.3682 15.2536 18.3682 16.5948 18.3682 17.936C18.3682 17.976 18.369 18.016 18.3658 18.0556C18.3458 18.3024 18.195 18.4504 17.9478 18.4508C16.6354 18.4528 15.3234 18.4528 14.011 18.4508C13.7386 18.4508 13.589 18.2876 13.5886 18.0012C13.5878 16.744 13.5902 15.4864 13.5874 14.2292C13.5858 13.5564 13.0922 13.0308 12.4458 13.0024C11.7622 12.9724 11.1998 13.5108 11.1974 14.2112C11.193 15.4384 11.1962 16.666 11.1958 17.8932C11.1958 17.938 11.1966 17.9832 11.1958 18.028C11.1906 18.2888 11.0358 18.4504 10.7762 18.4508C9.46378 18.4528 8.15178 18.4528 6.83938 18.4508C6.58978 18.4508 6.43898 18.3052 6.41898 18.0584C6.41498 18.0088 6.41618 17.9588 6.41618 17.9088C6.41618 15.7584 6.41618 13.608 6.41618 11.4576C6.41618 11.3928 6.41618 11.3276 6.42538 11.2636C6.45498 11.054 6.62098 10.9164 6.83058 10.9236C7.03578 10.9308 7.19458 11.0844 7.21058 11.2936C7.21458 11.3484 7.21258 11.4032 7.21258 11.458C7.21258 13.4588 7.21258 15.4596 7.21258 17.4604C7.21258 17.5196 7.21258 17.5792 7.21258 17.6592H7.38258C8.33058 17.6592 9.27858 17.6564 10.2266 17.6624C10.363 17.6632 10.4034 17.628 10.4026 17.4888C10.397 16.406 10.3966 15.3232 10.4006 14.2408C10.4042 13.2828 10.9922 12.5092 11.8874 12.2708C13.0834 11.9524 14.2966 12.8068 14.3686 14.044C14.4042 14.6556 14.3818 15.2708 14.3834 15.8844C14.385 16.4284 14.385 16.972 14.3826 17.516C14.3822 17.6084 14.3922 17.662 14.509 17.6616C15.497 17.6576 16.485 17.6592 17.4726 17.6588C17.5014 17.6588 17.5298 17.6512 17.5706 17.6452V17.4632C17.5706 16.268 17.5706 15.0732 17.5706 13.878" fill="white"/>
<path d="M18.3682 13.9124C18.3682 15.2536 18.3682 16.5948 18.3682 17.936C18.3682 17.976 18.369 18.016 18.3658 18.0556C18.3458 18.3024 18.195 18.4504 17.9478 18.4508C16.6354 18.4528 15.3234 18.4528 14.011 18.4508C13.7386 18.4508 13.589 18.2876 13.5886 18.0012C13.5878 16.744 13.5902 15.4864 13.5874 14.2292C13.5858 13.5564 13.0922 13.0308 12.4458 13.0024C11.7622 12.9724 11.1998 13.5108 11.1974 14.2112C11.193 15.4384 11.1962 16.666 11.1958 17.8932C11.1958 17.938 11.1966 17.9832 11.1958 18.028C11.1906 18.2888 11.0358 18.4504 10.7762 18.4508C9.46378 18.4528 8.15178 18.4528 6.83938 18.4508C6.58978 18.4508 6.43898 18.3052 6.41898 18.0584C6.41498 18.0088 6.41618 17.9588 6.41618 17.9088C6.41618 15.7584 6.41618 13.608 6.41618 11.4576C6.41618 11.3928 6.41618 11.3276 6.42538 11.2636C6.45498 11.054 6.62098 10.9164 6.83058 10.9236C7.03578 10.9308 7.19458 11.0844 7.21058 11.2936C7.21458 11.3484 7.21258 11.4032 7.21258 11.458C7.21258 13.4588 7.21258 15.4596 7.21258 17.4604C7.21258 17.5196 7.21258 17.5792 7.21258 17.6592H7.38258C8.33058 17.6592 9.27858 17.6564 10.2266 17.6624C10.363 17.6632 10.4034 17.628 10.4026 17.4888C10.397 16.406 10.3966 15.3232 10.4006 14.2408C10.4042 13.2828 10.9922 12.5092 11.8874 12.2708C13.0834 11.9524 14.2966 12.8068 14.3686 14.044C14.4042 14.6556 14.3818 15.2708 14.3834 15.8844C14.385 16.4284 14.385 16.972 14.3826 17.516C14.3822 17.6084 14.3922 17.662 14.509 17.6616C15.497 17.6576 16.485 17.6592 17.4726 17.6588C17.5014 17.6588 17.5298 17.6512 17.5706 17.6452V17.4632C17.5706 16.268 17.5706 15.0732 17.5706 13.878" stroke="white" stroke-width="0.32" stroke-miterlimit="10"/>
<path d="M19.4633 9.96387H16.1797" stroke="white" stroke-width="1.04" stroke-linecap="round" stroke-linejoin="round"/>
<path d="M17.9414 11.6054V8.32178" stroke="white" stroke-width="1.04" stroke-linecap="round" stroke-linejoin="round"/>
<path d="M12.1176 4.92872L12.0994 4.95305C11.9733 5.12137 12.0075 5.36004 12.1759 5.48613L15.7923 8.19553C15.9606 8.32163 16.1993 8.2874 16.3254 8.11909L16.3436 8.09476C16.4697 7.92645 16.4355 7.68778 16.2672 7.56168L12.6507 4.85229C12.4824 4.72619 12.2437 4.76041 12.1176 4.92872Z" fill="white" stroke="white" stroke-width="0.32" stroke-miterlimit="10"/>
<path d="M17.9781 13.4067C18.1989 13.4067 18.3781 13.5859 18.3781 13.8067V16.3667H17.5781V13.8067C17.5781 13.5859 17.7573 13.4067 17.9781 13.4067Z" fill="white" stroke="white" stroke-width="0.32" stroke-miterlimit="10"/>
</g>
<defs>
<clipPath id="clip0_10016_61116">
<rect width="16" height="16" fill="white" transform="translate(4.37891 3.60693)"/>
</clipPath>
</defs>
</svg>
