<svg width="184" height="48" viewBox="0 0 184 48" fill="none" xmlns="http://www.w3.org/2000/svg">
<rect width="184" height="48" rx="24" fill="#005895"/>
<g clip-path="url(#clip0_347_111717)">
<path d="M30 29L40 19L50 29" stroke="#FBFBFB" stroke-width="2.66667" stroke-linecap="round" stroke-linejoin="round"/>
</g>
<path d="M74.8711 26.2109C74.8711 26.6602 74.8092 27.0671 74.6855 27.4316C74.5618 27.7962 74.3893 28.1185 74.168 28.3984C73.9531 28.6784 73.6927 28.9193 73.3867 29.1211C73.0872 29.3229 72.7552 29.4889 72.3906 29.6191C72.026 29.7493 71.6354 29.847 71.2188 29.9121C70.8086 29.9707 70.3496 30 69.8418 30H66.4824C66.2676 30 66.0853 29.9382 65.9355 29.8145C65.7923 29.6842 65.7207 29.4759 65.7207 29.1895V18.1738C65.7207 17.8874 65.7923 17.6823 65.9355 17.5586C66.0853 17.4284 66.2676 17.3633 66.4824 17.3633H69.6562C70.431 17.3633 71.0853 17.4284 71.6191 17.5586C72.1595 17.6888 72.612 17.8874 72.9766 18.1543C73.3477 18.4147 73.6309 18.7467 73.8262 19.1504C74.0215 19.554 74.1191 20.0293 74.1191 20.5762C74.1191 20.8822 74.0801 21.1719 74.002 21.4453C73.9238 21.7122 73.8099 21.9564 73.6602 22.1777C73.5104 22.3991 73.3249 22.5944 73.1035 22.7637C72.8887 22.9329 72.6413 23.0697 72.3613 23.1738C72.7194 23.2389 73.0482 23.3529 73.3477 23.5156C73.6536 23.6784 73.9173 23.89 74.1387 24.1504C74.3665 24.4043 74.5456 24.7038 74.6758 25.0488C74.806 25.3939 74.8711 25.7812 74.8711 26.2109ZM71.5508 20.8887C71.5508 20.6348 71.5117 20.4069 71.4336 20.2051C71.3555 20.0033 71.2383 19.8372 71.082 19.707C70.9258 19.5703 70.7272 19.4661 70.4863 19.3945C70.252 19.3229 69.9362 19.2871 69.5391 19.2871H68.2402V22.5684H69.6758C70.0469 22.5684 70.3431 22.526 70.5645 22.4414C70.7858 22.3503 70.9681 22.2298 71.1113 22.0801C71.2611 21.9238 71.3717 21.7448 71.4434 21.543C71.515 21.3346 71.5508 21.1165 71.5508 20.8887ZM72.2051 26.2988C72.2051 26.0059 72.1562 25.7454 72.0586 25.5176C71.9609 25.2832 71.8177 25.0879 71.6289 24.9316C71.4401 24.7754 71.1992 24.6549 70.9062 24.5703C70.6133 24.4857 70.2324 24.4434 69.7637 24.4434H68.2402V28.0371H70.0957C70.4538 28.0371 70.7533 28.0013 70.9941 27.9297C71.2415 27.8516 71.4531 27.7409 71.6289 27.5977C71.8112 27.4479 71.9512 27.2656 72.0488 27.0508C72.153 26.8294 72.2051 26.5788 72.2051 26.2988ZM84.207 29.6973C84.207 29.7884 84.1745 29.86 84.1094 29.9121C84.0443 29.9642 83.9401 30 83.7969 30.0195C83.6602 30.0456 83.4551 30.0586 83.1816 30.0586C82.8887 30.0586 82.6738 30.0456 82.5371 30.0195C82.4069 30 82.3125 29.9642 82.2539 29.9121C82.2018 29.86 82.1758 29.7884 82.1758 29.6973V29.0039C81.8177 29.388 81.4076 29.6875 80.9453 29.9023C80.4896 30.1172 79.9818 30.2246 79.4219 30.2246C78.9596 30.2246 78.5332 30.1628 78.1426 30.0391C77.7585 29.9219 77.4232 29.7461 77.1367 29.5117C76.8568 29.2708 76.6387 28.9746 76.4824 28.623C76.3262 28.2715 76.248 27.8613 76.248 27.3926C76.248 26.8848 76.3457 26.4453 76.541 26.0742C76.7428 25.6966 77.0391 25.3874 77.4297 25.1465C77.8268 24.8991 78.3184 24.7168 78.9043 24.5996C79.4902 24.4824 80.1706 24.4238 80.9453 24.4238H81.7949V23.8965C81.7949 23.623 81.7656 23.3854 81.707 23.1836C81.6549 22.9753 81.5638 22.8027 81.4336 22.666C81.3099 22.5293 81.1406 22.4284 80.9258 22.3633C80.7174 22.2982 80.457 22.2656 80.1445 22.2656C79.7344 22.2656 79.3665 22.3112 79.041 22.4023C78.722 22.4935 78.4388 22.5944 78.1914 22.7051C77.944 22.8158 77.7357 22.9167 77.5664 23.0078C77.4036 23.099 77.2702 23.1445 77.166 23.1445C77.0944 23.1445 77.0293 23.1217 76.9707 23.0762C76.9186 23.0306 76.873 22.9655 76.834 22.8809C76.8014 22.7962 76.7754 22.6921 76.7559 22.5684C76.7363 22.4447 76.7266 22.3079 76.7266 22.1582C76.7266 21.9564 76.7428 21.7969 76.7754 21.6797C76.8079 21.5625 76.8698 21.4583 76.9609 21.3672C77.0521 21.2695 77.2116 21.1654 77.4395 21.0547C77.6673 20.9375 77.9342 20.8301 78.2402 20.7324C78.5462 20.6348 78.8783 20.5566 79.2363 20.498C79.6009 20.4329 79.9753 20.4004 80.3594 20.4004C81.043 20.4004 81.6257 20.4688 82.1074 20.6055C82.5957 20.7357 82.9961 20.9408 83.3086 21.2207C83.6211 21.4941 83.849 21.849 83.9922 22.2852C84.1354 22.7214 84.207 23.2389 84.207 23.8379V29.6973ZM81.7949 25.9668H80.8574C80.4603 25.9668 80.1217 25.9961 79.8418 26.0547C79.5618 26.1133 79.334 26.2012 79.1582 26.3184C78.9824 26.4355 78.8522 26.5788 78.7676 26.748C78.6895 26.9108 78.6504 27.0996 78.6504 27.3145C78.6504 27.679 78.7643 27.9655 78.9922 28.1738C79.2266 28.3822 79.5488 28.4863 79.959 28.4863C80.304 28.4863 80.6198 28.3984 80.9062 28.2227C81.1992 28.0469 81.4954 27.7897 81.7949 27.4512V25.9668ZM93.2598 28.2812C93.2598 28.4505 93.2533 28.5938 93.2402 28.7109C93.2337 28.8216 93.2207 28.916 93.2012 28.9941C93.1882 29.0723 93.1686 29.1374 93.1426 29.1895C93.123 29.235 93.0742 29.2969 92.9961 29.375C92.918 29.4466 92.7845 29.5378 92.5957 29.6484C92.4069 29.7526 92.1921 29.847 91.9512 29.9316C91.7103 30.0163 91.4466 30.0846 91.1602 30.1367C90.8802 30.1888 90.5905 30.2148 90.291 30.2148C89.6204 30.2148 89.0247 30.1107 88.5039 29.9023C87.9896 29.694 87.5566 29.388 87.2051 28.9844C86.8535 28.5742 86.5866 28.0762 86.4043 27.4902C86.2285 26.9043 86.1406 26.2337 86.1406 25.4785C86.1406 24.6061 86.248 23.8542 86.4629 23.2227C86.6842 22.5846 86.9902 22.0573 87.3809 21.6406C87.7715 21.224 88.2337 20.9147 88.7676 20.7129C89.3014 20.5111 89.8874 20.4102 90.5254 20.4102C90.7858 20.4102 91.0397 20.4329 91.2871 20.4785C91.541 20.5241 91.7754 20.5859 91.9902 20.6641C92.2116 20.7422 92.4069 20.8301 92.5762 20.9277C92.752 21.0254 92.8757 21.11 92.9473 21.1816C93.0189 21.2533 93.0677 21.3151 93.0938 21.3672C93.1263 21.4128 93.1491 21.4746 93.1621 21.5527C93.1816 21.6309 93.1947 21.7285 93.2012 21.8457C93.2142 21.9564 93.2207 22.0931 93.2207 22.2559C93.2207 22.6335 93.1882 22.9004 93.123 23.0566C93.0579 23.2064 92.9733 23.2812 92.8691 23.2812C92.7585 23.2812 92.6413 23.2357 92.5176 23.1445C92.3939 23.0534 92.2474 22.9525 92.0781 22.8418C91.9089 22.7311 91.707 22.6302 91.4727 22.5391C91.2383 22.4479 90.9583 22.4023 90.6328 22.4023C89.9948 22.4023 89.5065 22.6497 89.168 23.1445C88.8294 23.6328 88.6602 24.3522 88.6602 25.3027C88.6602 25.7715 88.7025 26.1849 88.7871 26.543C88.8717 26.901 88.9954 27.2005 89.1582 27.4414C89.3275 27.6823 89.5358 27.8646 89.7832 27.9883C90.0371 28.1055 90.3301 28.1641 90.6621 28.1641C91.0007 28.1641 91.2904 28.1152 91.5312 28.0176C91.7786 27.9134 91.9935 27.7995 92.1758 27.6758C92.3581 27.5521 92.5111 27.4414 92.6348 27.3438C92.7585 27.2396 92.8626 27.1875 92.9473 27.1875C93.0059 27.1875 93.0547 27.2038 93.0938 27.2363C93.1328 27.2689 93.1621 27.3307 93.1816 27.4219C93.2077 27.5065 93.2272 27.6172 93.2402 27.7539C93.2533 27.8906 93.2598 28.0664 93.2598 28.2812ZM103.143 29.6777C103.143 29.7428 103.123 29.8014 103.084 29.8535C103.051 29.8991 102.986 29.9382 102.889 29.9707C102.798 29.9967 102.671 30.0163 102.508 30.0293C102.345 30.0488 102.133 30.0586 101.873 30.0586C101.606 30.0586 101.388 30.0521 101.219 30.0391C101.056 30.026 100.919 30.0065 100.809 29.9805C100.704 29.9479 100.623 29.9056 100.564 29.8535C100.506 29.8014 100.454 29.7331 100.408 29.6484L97.5078 25.0586V29.668C97.5078 29.7331 97.4883 29.7917 97.4492 29.8438C97.4102 29.8893 97.3418 29.9284 97.2441 29.9609C97.153 29.9935 97.0293 30.0163 96.873 30.0293C96.7168 30.0488 96.5182 30.0586 96.2773 30.0586C96.0365 30.0586 95.8379 30.0488 95.6816 30.0293C95.5254 30.0163 95.3984 29.9935 95.3008 29.9609C95.2096 29.9284 95.1445 29.8893 95.1055 29.8438C95.0664 29.7917 95.0469 29.7331 95.0469 29.668V16.8262C95.0469 16.7611 95.0664 16.7025 95.1055 16.6504C95.1445 16.5983 95.2096 16.556 95.3008 16.5234C95.3984 16.4844 95.5254 16.4551 95.6816 16.4355C95.8379 16.416 96.0365 16.4062 96.2773 16.4062C96.5182 16.4062 96.7168 16.416 96.873 16.4355C97.0293 16.4551 97.153 16.4844 97.2441 16.5234C97.3418 16.556 97.4102 16.5983 97.4492 16.6504C97.4883 16.7025 97.5078 16.7611 97.5078 16.8262V24.4727L100.086 21.0059C100.138 20.9277 100.197 20.8594 100.262 20.8008C100.327 20.7422 100.411 20.6966 100.516 20.6641C100.626 20.6315 100.76 20.6087 100.916 20.5957C101.079 20.5762 101.284 20.5664 101.531 20.5664C101.772 20.5664 101.974 20.5762 102.137 20.5957C102.306 20.6087 102.439 20.6315 102.537 20.6641C102.641 20.6966 102.713 20.7389 102.752 20.791C102.791 20.8366 102.811 20.8952 102.811 20.9668C102.811 21.0645 102.785 21.1686 102.732 21.2793C102.687 21.39 102.615 21.5072 102.518 21.6309L99.9688 24.5215L102.918 29.082C102.996 29.2122 103.051 29.3262 103.084 29.4238C103.123 29.515 103.143 29.5996 103.143 29.6777ZM114.344 28.8086C114.344 29.0951 114.324 29.3164 114.285 29.4727C114.253 29.6224 114.207 29.7298 114.148 29.7949C114.09 29.8535 114.002 29.9089 113.885 29.9609C113.774 30.0065 113.641 30.0456 113.484 30.0781C113.335 30.1172 113.169 30.1465 112.986 30.166C112.811 30.1855 112.632 30.1953 112.449 30.1953C111.961 30.1953 111.538 30.1335 111.18 30.0098C110.822 29.8861 110.525 29.6973 110.291 29.4434C110.057 29.1829 109.884 28.8574 109.773 28.4668C109.663 28.0762 109.607 27.6139 109.607 27.0801V22.6172H108.562C108.439 22.6172 108.344 22.5423 108.279 22.3926C108.214 22.2363 108.182 21.9792 108.182 21.6211C108.182 21.4323 108.188 21.2728 108.201 21.1426C108.221 21.0124 108.247 20.9115 108.279 20.8398C108.312 20.7617 108.351 20.7064 108.396 20.6738C108.449 20.6413 108.507 20.625 108.572 20.625H109.607V18.6816C109.607 18.6165 109.624 18.5579 109.656 18.5059C109.695 18.4538 109.76 18.4115 109.852 18.3789C109.949 18.3398 110.076 18.3138 110.232 18.3008C110.395 18.2812 110.594 18.2715 110.828 18.2715C111.069 18.2715 111.268 18.2812 111.424 18.3008C111.587 18.3138 111.714 18.3398 111.805 18.3789C111.896 18.4115 111.961 18.4538 112 18.5059C112.039 18.5579 112.059 18.6165 112.059 18.6816V20.625H113.953C114.018 20.625 114.074 20.6413 114.119 20.6738C114.171 20.7064 114.214 20.7617 114.246 20.8398C114.279 20.9115 114.301 21.0124 114.314 21.1426C114.334 21.2728 114.344 21.4323 114.344 21.6211C114.344 21.9792 114.311 22.2363 114.246 22.3926C114.181 22.5423 114.087 22.6172 113.963 22.6172H112.059V26.709C112.059 27.1842 112.133 27.5423 112.283 27.7832C112.433 28.0176 112.7 28.1348 113.084 28.1348C113.214 28.1348 113.331 28.125 113.436 28.1055C113.54 28.0794 113.631 28.0534 113.709 28.0273C113.794 27.9948 113.862 27.9688 113.914 27.9492C113.973 27.9232 114.025 27.9102 114.07 27.9102C114.109 27.9102 114.145 27.9232 114.178 27.9492C114.217 27.9688 114.246 28.0143 114.266 28.0859C114.285 28.151 114.301 28.2422 114.314 28.3594C114.334 28.4766 114.344 28.6263 114.344 28.8086ZM124.734 25.2246C124.734 25.9668 124.637 26.6439 124.441 27.2559C124.246 27.8678 123.95 28.3952 123.553 28.8379C123.156 29.2806 122.658 29.6224 122.059 29.8633C121.46 30.1042 120.76 30.2246 119.959 30.2246C119.184 30.2246 118.51 30.1172 117.938 29.9023C117.365 29.6875 116.889 29.375 116.512 28.9648C116.134 28.5547 115.854 28.0501 115.672 27.4512C115.49 26.8522 115.398 26.1686 115.398 25.4004C115.398 24.6582 115.496 23.9811 115.691 23.3691C115.893 22.7507 116.193 22.2233 116.59 21.7871C116.987 21.3444 117.482 21.0026 118.074 20.7617C118.673 20.5208 119.373 20.4004 120.174 20.4004C120.955 20.4004 121.632 20.5078 122.205 20.7227C122.778 20.931 123.25 21.2402 123.621 21.6504C123.999 22.0605 124.279 22.5651 124.461 23.1641C124.643 23.763 124.734 24.4499 124.734 25.2246ZM122.205 25.3223C122.205 24.8926 122.169 24.4987 122.098 24.1406C122.033 23.776 121.919 23.4603 121.756 23.1934C121.593 22.9264 121.375 22.7181 121.102 22.5684C120.835 22.4186 120.496 22.3438 120.086 22.3438C119.721 22.3438 119.402 22.4121 119.129 22.5488C118.855 22.679 118.631 22.8743 118.455 23.1348C118.279 23.3887 118.146 23.6979 118.055 24.0625C117.97 24.4206 117.928 24.8307 117.928 25.293C117.928 25.7227 117.964 26.1198 118.035 26.4844C118.107 26.8424 118.221 27.1549 118.377 27.4219C118.54 27.6888 118.758 27.8971 119.031 28.0469C119.305 28.1901 119.643 28.2617 120.047 28.2617C120.418 28.2617 120.74 28.1966 121.014 28.0664C121.287 27.9297 121.512 27.7344 121.688 27.4805C121.863 27.2266 121.993 26.9206 122.078 26.5625C122.163 26.1979 122.205 25.7845 122.205 25.3223ZM139.773 18.418C139.773 18.6068 139.764 18.7695 139.744 18.9062C139.731 19.0365 139.708 19.1439 139.676 19.2285C139.643 19.3066 139.601 19.3652 139.549 19.4043C139.503 19.4434 139.451 19.4629 139.393 19.4629H136.229V29.6484C136.229 29.7135 136.206 29.7721 136.16 29.8242C136.121 29.8763 136.053 29.9186 135.955 29.9512C135.857 29.9837 135.724 30.0098 135.555 30.0293C135.392 30.0488 135.187 30.0586 134.939 30.0586C134.692 30.0586 134.484 30.0488 134.314 30.0293C134.152 30.0098 134.021 29.9837 133.924 29.9512C133.826 29.9186 133.755 29.8763 133.709 29.8242C133.67 29.7721 133.65 29.7135 133.65 29.6484V19.4629H130.486C130.421 19.4629 130.366 19.4434 130.32 19.4043C130.275 19.3652 130.236 19.3066 130.203 19.2285C130.171 19.1439 130.145 19.0365 130.125 18.9062C130.112 18.7695 130.105 18.6068 130.105 18.418C130.105 18.2227 130.112 18.0566 130.125 17.9199C130.145 17.7832 130.171 17.6758 130.203 17.5977C130.236 17.513 130.275 17.4544 130.32 17.4219C130.366 17.3828 130.421 17.3633 130.486 17.3633H139.393C139.451 17.3633 139.503 17.3828 139.549 17.4219C139.601 17.4544 139.643 17.513 139.676 17.5977C139.708 17.6758 139.731 17.7832 139.744 17.9199C139.764 18.0566 139.773 18.2227 139.773 18.418ZM148.191 25.2246C148.191 25.9668 148.094 26.6439 147.898 27.2559C147.703 27.8678 147.407 28.3952 147.01 28.8379C146.613 29.2806 146.115 29.6224 145.516 29.8633C144.917 30.1042 144.217 30.2246 143.416 30.2246C142.641 30.2246 141.967 30.1172 141.395 29.9023C140.822 29.6875 140.346 29.375 139.969 28.9648C139.591 28.5547 139.311 28.0501 139.129 27.4512C138.947 26.8522 138.855 26.1686 138.855 25.4004C138.855 24.6582 138.953 23.9811 139.148 23.3691C139.35 22.7507 139.65 22.2233 140.047 21.7871C140.444 21.3444 140.939 21.0026 141.531 20.7617C142.13 20.5208 142.83 20.4004 143.631 20.4004C144.412 20.4004 145.089 20.5078 145.662 20.7227C146.235 20.931 146.707 21.2402 147.078 21.6504C147.456 22.0605 147.736 22.5651 147.918 23.1641C148.1 23.763 148.191 24.4499 148.191 25.2246ZM145.662 25.3223C145.662 24.8926 145.626 24.4987 145.555 24.1406C145.49 23.776 145.376 23.4603 145.213 23.1934C145.05 22.9264 144.832 22.7181 144.559 22.5684C144.292 22.4186 143.953 22.3438 143.543 22.3438C143.178 22.3438 142.859 22.4121 142.586 22.5488C142.312 22.679 142.088 22.8743 141.912 23.1348C141.736 23.3887 141.603 23.6979 141.512 24.0625C141.427 24.4206 141.385 24.8307 141.385 25.293C141.385 25.7227 141.421 26.1198 141.492 26.4844C141.564 26.8424 141.678 27.1549 141.834 27.4219C141.997 27.6888 142.215 27.8971 142.488 28.0469C142.762 28.1901 143.1 28.2617 143.504 28.2617C143.875 28.2617 144.197 28.1966 144.471 28.0664C144.744 27.9297 144.969 27.7344 145.145 27.4805C145.32 27.2266 145.451 26.9206 145.535 26.5625C145.62 26.1979 145.662 25.7845 145.662 25.3223ZM158.914 25.1855C158.914 25.9603 158.829 26.6602 158.66 27.2852C158.497 27.9036 158.257 28.431 157.938 28.8672C157.618 29.3034 157.221 29.6387 156.746 29.873C156.271 30.1074 155.727 30.2246 155.115 30.2246C154.861 30.2246 154.627 30.1986 154.412 30.1465C154.204 30.1009 153.999 30.0293 153.797 29.9316C153.602 29.8275 153.406 29.7005 153.211 29.5508C153.016 29.401 152.814 29.2253 152.605 29.0234V33.125C152.605 33.1901 152.586 33.2487 152.547 33.3008C152.508 33.3529 152.439 33.3952 152.342 33.4277C152.251 33.4668 152.127 33.4961 151.971 33.5156C151.814 33.5352 151.616 33.5449 151.375 33.5449C151.134 33.5449 150.936 33.5352 150.779 33.5156C150.623 33.4961 150.496 33.4668 150.398 33.4277C150.307 33.3952 150.242 33.3529 150.203 33.3008C150.164 33.2487 150.145 33.1901 150.145 33.125V20.957C150.145 20.8919 150.161 20.8366 150.193 20.791C150.226 20.7389 150.281 20.6966 150.359 20.6641C150.444 20.6315 150.551 20.6087 150.682 20.5957C150.818 20.5762 150.988 20.5664 151.189 20.5664C151.385 20.5664 151.548 20.5762 151.678 20.5957C151.814 20.6087 151.922 20.6315 152 20.6641C152.085 20.6966 152.143 20.7389 152.176 20.791C152.208 20.8366 152.225 20.8919 152.225 20.957V21.9824C152.479 21.722 152.726 21.4941 152.967 21.2988C153.214 21.097 153.465 20.931 153.719 20.8008C153.973 20.6641 154.233 20.5632 154.5 20.498C154.773 20.4329 155.063 20.4004 155.369 20.4004C156.007 20.4004 156.551 20.5273 157 20.7812C157.449 21.0286 157.814 21.3704 158.094 21.8066C158.38 22.2428 158.589 22.7507 158.719 23.3301C158.849 23.9095 158.914 24.528 158.914 25.1855ZM156.355 25.3613C156.355 24.9902 156.326 24.6354 156.268 24.2969C156.215 23.9518 156.121 23.6458 155.984 23.3789C155.854 23.112 155.678 22.9004 155.457 22.7441C155.242 22.5814 154.972 22.5 154.646 22.5C154.484 22.5 154.321 22.526 154.158 22.5781C154.002 22.6237 153.839 22.7018 153.67 22.8125C153.507 22.9232 153.338 23.0664 153.162 23.2422C152.986 23.418 152.801 23.6361 152.605 23.8965V26.7676C152.951 27.2038 153.279 27.5423 153.592 27.7832C153.904 28.0176 154.23 28.1348 154.568 28.1348C154.887 28.1348 155.158 28.0534 155.379 27.8906C155.607 27.7279 155.792 27.5163 155.936 27.2559C156.079 26.9889 156.183 26.6895 156.248 26.3574C156.32 26.0254 156.355 25.6934 156.355 25.3613Z" fill="#F3F3F3"/>
<defs>
<clipPath id="clip0_347_111717">
<rect width="32" height="32" fill="white" transform="translate(24 9)"/>
</clipPath>
</defs>
</svg>
