<svg width="32" height="32" viewBox="0 0 32 32" fill="none" xmlns="http://www.w3.org/2000/svg">
<path fill-rule="evenodd" clip-rule="evenodd" d="M15.9987 26.6666C21.8897 26.6666 26.6654 21.891 26.6654 15.9999C26.6654 10.1089 21.8897 5.33325 15.9987 5.33325C10.1077 5.33325 5.33203 10.1089 5.33203 15.9999C5.33203 21.891 10.1077 26.6666 15.9987 26.6666ZM29.332 15.9999C29.332 23.3637 23.3625 29.3333 15.9987 29.3333C8.6349 29.3333 2.66537 23.3637 2.66537 15.9999C2.66537 8.63612 8.63491 2.66659 15.9987 2.66659C23.3625 2.66659 29.332 8.63612 29.332 15.9999Z" fill="#863399"/>
<path fill-rule="evenodd" clip-rule="evenodd" d="M15.9987 23.3333C15.2623 23.3333 14.6654 22.7363 14.6654 21.9999L14.6654 14.9999C14.6654 14.2635 15.2623 13.6666 15.9987 13.6666C16.7351 13.6666 17.332 14.2635 17.332 14.9999L17.332 21.9999C17.332 22.7363 16.7351 23.3333 15.9987 23.3333Z" fill="#863399"/>
<path d="M16 9C15.1716 9 14.5 9.67157 14.5 10.5C14.5 11.3284 15.1716 12 16 12C16.8284 12 17.5 11.3284 17.5 10.5C17.5 9.67157 16.8284 9 16 9Z" fill="#863399"/>
</svg>
