<svg width="32" height="32" viewBox="0 0 32 32" fill="none" xmlns="http://www.w3.org/2000/svg">
<path fill-rule="evenodd" clip-rule="evenodd" d="M16.0002 26.6666C21.8912 26.6666 26.6668 21.891 26.6668 15.9999C26.6668 10.1089 21.8912 5.33325 16.0002 5.33325C10.1091 5.33325 5.3335 10.1089 5.3335 15.9999C5.3335 21.891 10.1091 26.6666 16.0002 26.6666ZM29.3335 15.9999C29.3335 23.3637 23.364 29.3333 16.0002 29.3333C8.63637 29.3333 2.66683 23.3637 2.66683 15.9999C2.66683 8.63612 8.63637 2.66659 16.0002 2.66659C23.364 2.66659 29.3335 8.63612 29.3335 15.9999Z" fill="#F58520"/>
<path fill-rule="evenodd" clip-rule="evenodd" d="M16.0002 23.3333C15.2638 23.3333 14.6668 22.7363 14.6668 21.9999L14.6668 14.9999C14.6668 14.2635 15.2638 13.6666 16.0002 13.6666C16.7365 13.6666 17.3335 14.2635 17.3335 14.9999L17.3335 21.9999C17.3335 22.7363 16.7365 23.3333 16.0002 23.3333Z" fill="#F58520"/>
<path d="M16 9C15.1716 9 14.5 9.67157 14.5 10.5C14.5 11.3284 15.1716 12 16 12C16.8284 12 17.5 11.3284 17.5 10.5C17.5 9.67157 16.8284 9 16 9Z" fill="#F58520"/>
</svg>
