<svg width="24" height="24" viewBox="0 0 24 24" fill="none" xmlns="http://www.w3.org/2000/svg">
<path fill-rule="evenodd" clip-rule="evenodd" d="M12 20C7.58172 20 4 16.4183 4 12C4 7.58172 7.58172 4 12 4C16.4183 4 20 7.58172 20 12C20 16.4183 16.4183 20 12 20ZM2 12C2 17.5228 6.47715 22 12 22C17.5228 22 22 17.5228 22 12C22 6.47715 17.5228 2 12 2C6.47715 2 2 6.47715 2 12Z" fill="#863399"/>
<path fill-rule="evenodd" clip-rule="evenodd" d="M12 17.5C12.5523 17.5 13 17.0523 13 16.5V11.25C13 10.6977 12.5523 10.25 12 10.25C11.4477 10.25 11 10.6977 11 11.25V16.5C11 17.0523 11.4477 17.5 12 17.5Z" fill="#863399"/>
<path d="M12 6.75C12.6213 6.75 13.125 7.25368 13.125 7.875C13.125 8.49632 12.6213 9 12 9C11.3787 9 10.875 8.49632 10.875 7.875C10.875 7.25368 11.3787 6.75 12 6.75Z" fill="#863399"/>
</svg>
