<svg width="32" height="32" viewBox="0 0 32 32" fill="none" xmlns="http://www.w3.org/2000/svg">
<path fill-rule="evenodd" clip-rule="evenodd" d="M16.0003 26.6673C10.1093 26.6673 5.33366 21.8917 5.33366 16.0007C5.33366 10.1096 10.1093 5.33399 16.0003 5.33399C21.8914 5.33399 26.667 10.1096 26.667 16.0007C26.667 21.8917 21.8914 26.6673 16.0003 26.6673ZM2.66699 16.0007C2.66699 23.3644 8.63653 29.334 16.0003 29.334C23.3641 29.334 29.3337 23.3644 29.3337 16.0007C29.3337 8.63686 23.3641 2.66732 16.0003 2.66732C8.63653 2.66732 2.66699 8.63686 2.66699 16.0007Z" fill="#F58520"/>
<path fill-rule="evenodd" clip-rule="evenodd" d="M16.0003 23.334C16.7367 23.334 17.3337 22.737 17.3337 22.0007L17.3337 15.0007C17.3337 14.2643 16.7367 13.6673 16.0003 13.6673C15.2639 13.6673 14.667 14.2643 14.667 15.0007L14.667 22.0007C14.667 22.737 15.2639 23.334 16.0003 23.334Z" fill="#F58520"/>
<path d="M16 9C16.8284 9 17.5 9.67157 17.5 10.5C17.5 11.3284 16.8284 12 16 12C15.1716 12 14.5 11.3284 14.5 10.5C14.5 9.67157 15.1716 9 16 9Z" fill="#F58520"/>
</svg>
