<svg width="32" height="32" viewBox="0 0 32 32" fill="none" xmlns="http://www.w3.org/2000/svg">
<path fill-rule="evenodd" clip-rule="evenodd" d="M16.0001 26.6667C10.109 26.6667 5.33341 21.891 5.33341 16C5.33341 10.109 10.109 5.33335 16.0001 5.33335C21.8911 5.33335 26.6667 10.109 26.6667 16C26.6667 21.891 21.8911 26.6667 16.0001 26.6667ZM2.66675 16C2.66675 23.3638 8.63628 29.3333 16.0001 29.3333C23.3639 29.3333 29.3334 23.3638 29.3334 16C29.3334 8.63622 23.3639 2.66668 16.0001 2.66668C8.63628 2.66668 2.66675 8.63622 2.66675 16Z" fill="#765BA7"/>
<path fill-rule="evenodd" clip-rule="evenodd" d="M16.0001 23.3333C16.7365 23.3333 17.3334 22.7364 17.3334 22V15C17.3334 14.2636 16.7365 13.6667 16.0001 13.6667C15.2637 13.6667 14.6667 14.2636 14.6667 15L14.6667 22C14.6667 22.7364 15.2637 23.3333 16.0001 23.3333Z" fill="#765BA7"/>
<path d="M16 9C16.8284 9 17.5 9.67157 17.5 10.5C17.5 11.3284 16.8284 12 16 12C15.1716 12 14.5 11.3284 14.5 10.5C14.5 9.67157 15.1716 9 16 9Z" fill="#765BA7"/>
</svg>
