<svg width="60" height="60" viewBox="0 0 60 60" fill="none" xmlns="http://www.w3.org/2000/svg">
<rect width="60" height="60" rx="12" fill="url(#paint0_linear_360_4061)"/>
<path d="M4.9 30H8.86V16H4.9V30ZM18.5573 18.98C17.1973 18.98 15.9773 19.44 15.1173 20.34V19.16H11.4973V30H15.2973V24.76C15.2973 22.96 16.2373 22.2 17.4573 22.2C18.5573 22.2 19.2373 22.86 19.2373 24.42V30H23.0373V23.8C23.0373 20.44 21.0973 18.98 18.5573 18.98ZM31.9631 26.9C31.6431 27.12 31.2231 27.24 30.8031 27.24C30.1231 27.24 29.6631 26.8 29.6631 26V22.4H32.1431V19.56H29.6631V16.74H25.8631V19.56H24.2831V22.4H25.8631V26.04C25.8631 28.82 27.4831 30.18 30.2631 30.18C31.2631 30.18 32.2431 29.98 32.9031 29.56L31.9631 26.9ZM36.1638 30.18C37.4638 30.18 38.4438 29.24 38.4438 27.92C38.4438 26.56 37.4638 25.68 36.1638 25.68C34.8838 25.68 33.8838 26.56 33.8838 27.92C33.8838 29.24 34.8838 30.18 36.1638 30.18Z" fill="white"/>
<path d="M55.275 22.425H51.05V18.3H47.2V22.425H42.95V26.075H47.2V30.2H51.05V26.075H55.275V22.425Z" fill="white"/>
<path d="M9.366 46.196C11.172 46.196 12.628 45.538 13.58 44.348L11.816 42.752C11.2 43.494 10.444 43.9 9.506 43.9C7.896 43.9 6.776 42.78 6.776 41.1C6.776 39.42 7.896 38.3 9.506 38.3C10.444 38.3 11.2 38.706 11.816 39.448L13.58 37.852C12.628 36.662 11.172 36.004 9.366 36.004C6.258 36.004 3.976 38.118 3.976 41.1C3.976 44.082 6.258 46.196 9.366 46.196ZM17.8966 38.286C16.7066 38.286 15.4186 38.594 14.5506 39.168L15.4466 40.974C15.9646 40.568 16.7766 40.316 17.5046 40.316C18.5546 40.316 19.0726 40.75 19.1146 41.52H17.6026C15.2506 41.52 14.2286 42.388 14.2286 43.788C14.2286 45.104 15.2366 46.126 17.0566 46.126C18.1626 46.126 18.9186 45.748 19.2966 45.02V46H21.7746V41.786C21.7746 39.378 20.3606 38.286 17.8966 38.286ZM17.7986 44.446C17.1686 44.446 16.8046 44.124 16.8046 43.676C16.8046 43.214 17.1126 42.906 17.9666 42.906H19.1146V43.564C18.9046 44.166 18.3866 44.446 17.7986 44.446ZM23.4536 46H26.1136V35.612H23.4536V46ZM27.8423 46H30.5023V35.612H27.8423V46ZM33.561 37.572C34.541 37.572 35.185 36.956 35.185 36.116C35.185 35.318 34.541 34.744 33.561 34.744C32.581 34.744 31.937 35.36 31.937 36.158C31.937 36.956 32.581 37.572 33.561 37.572ZM32.231 46H34.891V38.412H32.231V46ZM41.5616 38.286C40.6096 38.286 39.7556 38.608 39.1536 39.238V38.412H36.6196V46H39.2796V42.332C39.2796 41.072 39.9376 40.54 40.7916 40.54C41.5616 40.54 42.0376 41.002 42.0376 42.094V46H44.6976V41.66C44.6976 39.308 43.3396 38.286 41.5616 38.286ZM52.105 38.412V39.336C51.587 38.622 50.775 38.286 49.725 38.286C47.709 38.286 46.001 39.714 46.001 41.94C46.001 44.18 47.709 45.608 49.725 45.608C50.691 45.608 51.461 45.314 51.979 44.712V44.964C51.979 46.154 51.377 46.798 49.949 46.798C49.053 46.798 48.017 46.49 47.387 45.986L46.421 47.848C47.345 48.506 48.731 48.842 50.187 48.842C53.015 48.842 54.639 47.484 54.639 44.614V38.412H52.105ZM50.355 43.494C49.403 43.494 48.689 42.864 48.689 41.94C48.689 41.016 49.403 40.4 50.355 40.4C51.307 40.4 52.007 41.016 52.007 41.94C52.007 42.864 51.307 43.494 50.355 43.494Z" fill="white"/>
<defs>
<linearGradient id="paint0_linear_360_4061" x1="30" y1="-9.5" x2="30" y2="60.5" gradientUnits="userSpaceOnUse">
<stop stop-color="#005895"/>
<stop offset="1" stop-color="#412B71"/>
</linearGradient>
</defs>
</svg>
