<svg width="12" height="31" viewBox="0 0 12 31" fill="none" xmlns="http://www.w3.org/2000/svg">
<path d="M9.2324 0.690998C9.05763 0.381764 8.66526 0.272762 8.35603 0.447535C8.04679 0.622308 7.93779 1.01467 8.11256 1.32391L9.2324 0.690998ZM0.0856123 29.1631C0.0489648 29.5164 0.305671 29.8325 0.658982 29.8692L6.41651 30.4664C6.76982 30.503 7.08594 30.2463 7.12259 29.893C7.15924 29.5397 6.90253 29.2236 6.54922 29.1869L1.43142 28.6561L1.96226 23.5383C1.99891 23.185 1.74221 22.8688 1.3889 22.8322C1.03558 22.7956 0.719461 23.0523 0.682814 23.4056L0.0856123 29.1631ZM8.11256 1.32391C10.1735 4.97041 11.1958 9.39252 10.2377 14.0964C9.27994 18.7983 6.32904 23.8505 0.319904 28.7302L1.13077 29.7287C7.32053 24.7024 10.4691 19.405 11.4981 14.3531C12.5268 9.3032 11.4232 4.56734 9.2324 0.690998L8.11256 1.32391Z" fill="#765BA7"/>
</svg>
