<svg xmlns="http://www.w3.org/2000/svg" width="121" height="120" viewBox="0 0 121 120">
    <defs>
        <clipPath id="clip-path">
            <path id="Rectangle_2148" d="M0 0H121V120H0z"/>
        </clipPath>
        <style>
            .cls-3{fill:#fff}.cls-4{fill:#0c1d21;stroke:#0c1d21}
        </style>
    </defs>
    <g id="Keep_device" clip-path="url(#clip-path)">
        <path id="Path_6130" fill="#f58520" d="M326.535 579.672a59.808 59.808 0 1 1-59.8 59.8 59.81 59.81 0 0 1 59.8-59.8z" transform="translate(-266.887 -579.672)"/>
        <path id="Path_6131" d="M-15394.958-13380.235s.327-2.465 1.406-2.851 5.262.274 5.672 1.051.55 2.91 0 3.595a11.323 11.323 0 0 1-1.34 1.346s2.267 1.08 2.292 2.09.678 2.29 0 3.058a9.214 9.214 0 0 1-2.293 1.543s2.069 1.083 2.293 2.565a3.754 3.754 0 0 1-.954 3.268c-.52.3-1.338.691-1.338.691s1.147 3.124.594 4.037a4.6 4.6 0 0 1-3.281 2.02c-1.287.042-4.011-1.079-4.17-2.02s.22-4.825 1.663-5.125 0-.586 0-.586-2.827-1.021-2.827-2.285 2-3.725 2.827-3.656-2.3-1.362-2.3-1.362-.73-4.427.637-4.766 1.663-.817 1.663-.817z" class="cls-3" transform="translate(15429 13432)"/>
        <path id="Path_6132" d="M-15348.031-13363.74s-2.861-1.372-3.053-2.687-1.652-13.129-2.912-15.741-3.46-4.694-3.766-5.889-2.274-4.857-3.328-4.811-3.631 4.425-3.4 6.226 2.145 4.9 2.145 4.9a3.385 3.385 0 0 0 0 2.266 3.546 3.546 0 0 0 1.258 1.6l-2.21 3.383v20.118s-.487 1.964-1.672 2.27a7.445 7.445 0 0 1-2.747 0v3.017s3 1.475 5.37.913 2.426-1.672 4.174-1.421a18.372 18.372 0 0 1 4.18 1.42z" class="cls-3" transform="translate(15429 13432)"/>
        <g id="Group_1645" transform="translate(-234.613 -234.523)">
            <path id="Path_5576" d="M522.848 366.446l-9.614-3.259a.883.883 0 0 0-1.122.554l-.272.8-.194-.082a3.033 3.033 0 0 1-1.557-2.129 28.32 28.32 0 0 1-.6-3.537c-.111-.876-.225-1.782-.415-2.8l-.014-.086c-.337-2.156-1.642-9.426-4.277-12.479a13.4 13.4 0 0 1-2.129-3.825c-.568-1.375-1.058-2.561-2.088-3.133a2.817 2.817 0 0 0-2.633-.1 5.787 5.787 0 0 0-2.715 4.125 9.261 9.261 0 0 0 1.845 7.482l.039.053v.066a9.886 9.886 0 0 0 .628 3.846.885.885 0 0 0 1.612-.73 8.767 8.767 0 0 1-.459-3.407.887.887 0 0 0-.182-.594 7.541 7.541 0 0 1-1.739-6.4 4.05 4.05 0 0 1 1.733-2.838 1.015 1.015 0 0 1 1.013.047 5.067 5.067 0 0 1 1.311 2.26 15.042 15.042 0 0 0 2.425 4.307c1.463 1.7 2.739 5.453 3.792 11.171.208 1.09.348 2.141.482 3.158a33.947 33.947 0 0 0 .657 3.848 4.754 4.754 0 0 0 2.725 3.38l.176.068-4.865 14.351-3.255-1.1a3.967 3.967 0 0 0-1.369-.239 3.916 3.916 0 0 0-1.383.25 6.991 6.991 0 0 0-.713.324 6 6 0 0 1-2.951.771 12.239 12.239 0 0 1-3.863-.761.885.885 0 1 0-.568 1.676 13.85 13.85 0 0 0 4.4.853 7.667 7.667 0 0 0 3.5-.858c.281-.128.546-.248.812-.345a2.208 2.208 0 0 1 .778-.139 2.13 2.13 0 0 1 .707.114l.042.016.018.006 3.281 1.112-.612 1.8a.884.884 0 0 0 .554 1.122l9.614 3.259a.883.883 0 0 0 1.122-.554l6.884-20.3a.886.886 0 0 0-.561-1.124zm-7.721 20.021l-7.939-2.691 6.316-18.629 7.938 2.691z" class="cls-4" transform="translate(-196.512 -63.079)"/>
            <path id="Path_5577" d="M639.28 682.169a1.22 1.22 0 1 0-.763-1.546 1.22 1.22 0 0 0 .763 1.546z" class="cls-4" transform="translate(-324.063 -361.814)"/>
            <path id="Path_5578" d="M314.012 279.974a.886.886 0 0 0 .885-.885v-11.375a2.424 2.424 0 0 1 2.421-2.421h20.94a2.424 2.424 0 0 1 2.421 2.421v2.945a.885.885 0 1 0 1.77 0v-2.945a4.2 4.2 0 0 0-4.191-4.191h-20.94a4.2 4.2 0 0 0-4.191 4.191v11.375a.886.886 0 0 0 .885.885z" class="cls-4" transform="translate(-41.298)"/>
            <path id="Path_5579" d="M342.449 490.8v-19.981a.885.885 0 1 0-1.77 0V490.8a2.424 2.424 0 0 1-2.421 2.421h-20.94a2.424 2.424 0 0 1-2.418-2.421.885.885 0 1 0-1.77 0 4.2 4.2 0 0 0 4.191 4.191h20.94a4.2 4.2 0 0 0 4.188-4.191z" class="cls-4" transform="translate(-41.298 -179.408)"/>
            <path id="Path_5580" d="M327.282 586.831a.035.035 0 0 1 .005-.022.3.3 0 0 0-.032.1l.017-.044z" class="cls-4" transform="translate(-53.578 -280.993)"/>
            <path id="Path_5581" d="M272.055 430.958h.07a3.951 3.951 0 0 0 3.389-5.865l-.1-.186.193-.088a3.955 3.955 0 0 0 1.065-.709l.084-.079h.012a3.938 3.938 0 0 0-.44-6l-.2-.149.194-.161a3.937 3.937 0 0 0-.549-6.438l-.237-.136.2-.181a3.937 3.937 0 0 0-1.344-6.681l-1.576-.5-.042-.013-.218-.069a4.006 4.006 0 0 0-.477-.091l-.089-.011-.06-.006c-.126-.012-.253-.018-.379-.018a3.939 3.939 0 0 0-3.734 2.674.892.892 0 0 0-.036.155l-.006.026a3.928 3.928 0 0 0 .325 2.991l.1.188-.2.086a3.958 3.958 0 0 0-1.11.729l-.085.079h-.012a3.938 3.938 0 0 0 .441 6l.2.149-.194.161a3.937 3.937 0 0 0 .55 6.438l.237.136-.2.181a3.937 3.937 0 0 0 1.344 6.681l1.576.5a3.932 3.932 0 0 0 1.257.209zm-2.572-24.065a2.179 2.179 0 0 1 2.269-1.529h.048l.041.006h.018a2.157 2.157 0 0 1 .384.091l1.576.5a2.17 2.17 0 1 1-1.389 4.111l-.123-.042-1.453-.456c-.07-.024-.137-.043-.2-.061l-.033-.012a2.2 2.2 0 0 1-1.137-2.608zm-2.032 5.9l.018-.046a.9.9 0 0 0 .061-.137 2.131 2.131 0 0 1 2.648-1.369c.1.034 3.048 1.012 4.6 1.525l.029.012a2.17 2.17 0 0 1-1.709 3.974l-.123-.042-4.087-1.35c-.075-.025-.144-.045-.21-.062l-.033-.012a2.169 2.169 0 0 1-1.193-2.492zm.261 6.351a2.169 2.169 0 0 1 2.751-1.358l.122.042 4.088 1.349c.075.025.144.045.21.063l.033.012a2.169 2.169 0 0 1 1.2 2.5l-.018.045a.9.9 0 0 0-.061.137 2.137 2.137 0 0 1-2.478 1.413l-.032-.01c-.12-.045-3.458-1.141-4.734-1.559l-.03-.013a2.157 2.157 0 0 1-1.05-2.615zm3.881 10.009l-.212-.062-.061-.018-1.576-.5a2.17 2.17 0 1 1 1.389-4.111c.562.181 1.488.476 1.564.5a2.142 2.142 0 0 1 1.386 2.71.324.324 0 0 1-.012.045 2.168 2.168 0 0 1-1.886 1.467h-.17a2.228 2.228 0 0 1-.418-.047z" class="cls-4" transform="translate(0 -121.737)"/>
            <path id="Path_5582" d="M328.745 587.715v.019l.007-.02h-.007z" class="cls-4" transform="translate(-54.873 -281.78)"/>
            <path id="Path_5584" d="M328.742 587.438a.074.074 0 0 0 .014-.019.033.033 0 0 1 .005-.021.108.108 0 0 0-.019.04z" class="cls-4" transform="translate(-54.869 -281.504)"/>
            <path id="Path_5585" d="M328.25 588.042v-.177c-.022.061-.047.12-.074.177z" class="cls-4" transform="translate(-54.378 -281.911)"/>
            <path id="Path_5586" d="M328.8 586.8h.013v-.02l.119-.118-.119.117v-.018a.113.113 0 0 1 0 .02z" class="cls-4" transform="translate(-54.922 -280.864)"/>
            <path id="Path_5587" d="M387.968 296.833a.645.645 0 1 0-.645.645.645.645 0 0 0 .645-.645z" class="cls-4" transform="translate(-105.227 -28.392)"/>
            <path id="Path_5588" d="M417.078 297.479a.645.645 0 1 0 0-1.289H410.8a.645.645 0 0 0 0 1.289z" class="cls-4" transform="translate(-125.634 -28.393)"/>
            <path id="Path_5589" d="M413.01 612.983a1.594 1.594 0 1 0 1.594-1.594 1.594 1.594 0 0 0-1.594 1.594z" class="cls-4" transform="translate(-128.114 -302.358)"/>
            <path id="Path_5590" d="M374.785 587.326a.886.886 0 0 0-.885-.885h-18.371a.885.885 0 1 0 0 1.77H373.9a.886.886 0 0 0 .885-.885z" class="cls-4" transform="translate(-77.383 -280.673)"/>
            <path id="Path_5591" d="M362.723 324.3h-20.054a.885.885 0 0 0 0 1.77h20.054a.885.885 0 1 0 0-1.77z" class="cls-4" transform="translate(-66.206 -52.823)"/>
        </g>
        <path id="Path_6133" fill="none" stroke="#fff" stroke-linecap="round" stroke-linejoin="round" stroke-miterlimit="10" stroke-width="2.5px" d="M3.219 5.615l2.609 2.764L11.594 2.6" transform="translate(44.699 49.069)"/>
    </g>
</svg>
