<svg width="14" height="14" viewBox="0 0 14 14" fill="none" xmlns="http://www.w3.org/2000/svg">
<path fill-rule="evenodd" clip-rule="evenodd" d="M6.99089 1.66732C4.04537 1.66732 1.65755 4.05513 1.65755 7.00065C1.65755 9.94617 4.04537 12.334 6.99089 12.334C9.9364 12.334 12.3242 9.94617 12.3242 7.00065C12.3242 4.05513 9.9364 1.66732 6.99089 1.66732ZM0.324219 7.00065C0.324219 3.31875 3.30899 0.333984 6.99089 0.333984C10.6728 0.333984 13.6576 3.31875 13.6576 7.00065C13.6576 10.6825 10.6728 13.6673 6.99089 13.6673C3.30899 13.6673 0.324219 10.6825 0.324219 7.00065Z" fill="#005895"/>
<path fill-rule="evenodd" clip-rule="evenodd" d="M8.48641 4.30468C8.73272 4.57835 8.71054 4.99988 8.43686 5.24619L6.48745 7.00066L8.43686 8.75513C8.71054 9.00143 8.73272 9.42296 8.48641 9.69663C8.24011 9.97031 7.81858 9.99249 7.54491 9.74619L5.04491 7.49619C4.90443 7.36976 4.82422 7.18965 4.82422 7.00066C4.82422 6.81167 4.90443 6.63156 5.04491 6.50513L7.54491 4.25513C7.81858 4.00882 8.24011 4.03101 8.48641 4.30468Z" fill="#005895"/>
</svg>
