<svg width="16" height="16" viewBox="0 0 16 16" fill="none" xmlns="http://www.w3.org/2000/svg">
<path d="M4.76803 4.27413C4.47511 3.98121 4.47511 3.5063 4.76803 3.21338L7.45215 0.52926C7.74507 0.236341 8.21999 0.23634 8.51291 0.52926L11.197 3.21338C11.4899 3.5063 11.4899 3.98121 11.197 4.27413L8.51291 6.95825C8.21999 7.25117 7.74507 7.25117 7.45215 6.95825L4.76803 4.27413Z" fill="#863399"/>
<path d="M9.03917 8.54943C8.74625 8.25651 8.74625 7.7816 9.03917 7.48868L11.7233 4.80456C12.0162 4.51164 12.4911 4.51164 12.784 4.80456L15.4682 7.48868C15.7611 7.7816 15.7611 8.25651 15.4682 8.54943L12.784 11.2336C12.4911 11.5265 12.0162 11.5265 11.7233 11.2336L9.03917 8.54943Z" fill="#863399"/>
<path d="M0.530237 8.51193C0.237317 8.21901 0.237317 7.74409 0.530236 7.45118L3.21435 4.76706C3.50727 4.47414 3.98219 4.47414 4.27511 4.76706L6.95923 7.45118C7.25215 7.74409 7.25215 8.21901 6.95923 8.51193L4.27511 11.196C3.98219 11.489 3.50727 11.489 3.21436 11.196L0.530237 8.51193Z" fill="#863399"/>
<path d="M4.80554 12.7872C4.51262 12.4943 4.51262 12.0194 4.80554 11.7265L7.48966 9.04236C7.78257 8.74944 8.25749 8.74944 8.55041 9.04236L11.2345 11.7265C11.5274 12.0194 11.5274 12.4943 11.2345 12.7872L8.55041 15.4713C8.25749 15.7643 7.78257 15.7643 7.48966 15.4713L4.80554 12.7872Z" fill="#863399"/>
</svg>
