<svg width="16" height="17" viewBox="0 0 16 17" fill="none" xmlns="http://www.w3.org/2000/svg">
<g clip-path="url(#clip0_27_27485)">
<path d="M4.76828 5.27242C4.47536 4.97951 4.47536 4.50459 4.76828 4.21167L7.4524 1.52755C7.74532 1.23463 8.22023 1.23463 8.51315 1.52755L11.1973 4.21167C11.4902 4.50459 11.4902 4.97951 11.1973 5.27242L8.51315 7.95654C8.22023 8.24946 7.74532 8.24946 7.4524 7.95654L4.76828 5.27242Z" fill="#74C0EB"/>
<path d="M9.03941 9.54772C8.74649 9.2548 8.74649 8.77989 9.03941 8.48697L11.7235 5.80285C12.0164 5.50993 12.4914 5.50993 12.7843 5.80285L15.4684 8.48697C15.7613 8.77989 15.7613 9.2548 15.4684 9.54772L12.7843 12.2318C12.4914 12.5248 12.0164 12.5248 11.7235 12.2318L9.03941 9.54772Z" fill="#74C0EB"/>
<path d="M0.530481 9.51022C0.237561 9.2173 0.237561 8.74239 0.53048 8.44947L3.2146 5.76535C3.50752 5.47243 3.98243 5.47243 4.27535 5.76535L6.95947 8.44947C7.25239 8.74239 7.25239 9.2173 6.95947 9.51022L4.27535 12.1943C3.98244 12.4873 3.50752 12.4873 3.2146 12.1943L0.530481 9.51022Z" fill="#74C0EB"/>
<path d="M4.80578 13.7855C4.51286 13.4926 4.51286 13.0177 4.80578 12.7248L7.4899 10.0406C7.78282 9.74773 8.25774 9.74773 8.55065 10.0406L11.2348 12.7248C11.5277 13.0177 11.5277 13.4926 11.2348 13.7855L8.55065 16.4696C8.25774 16.7626 7.78282 16.7626 7.4899 16.4696L4.80578 13.7855Z" fill="#74C0EB"/>
</g>
<defs>
<clipPath id="clip0_27_27485">
<rect width="15.9987" height="16.0028" fill="white" transform="translate(0 0.99707)"/>
</clipPath>
</defs>
</svg>
