<svg width="21" height="20" viewBox="0 0 21 20" fill="none" xmlns="http://www.w3.org/2000/svg">
<g id="Icon">
<path id="Vector" d="M5.04199 18.125H16.292M13.167 8.125C13.167 9.50571 12.0477 10.625 10.667 10.625C9.28628 10.625 8.16699 9.50571 8.16699 8.125C8.16699 6.74429 9.28628 5.625 10.667 5.625C12.0477 5.625 13.167 6.74429 13.167 8.125ZM16.917 8.125C16.917 13.75 10.667 18.125 10.667 18.125C10.667 18.125 4.41699 13.75 4.41699 8.125C4.41699 6.4674 5.07547 4.87768 6.24757 3.70558C7.41968 2.53348 9.00939 1.875 10.667 1.875C12.3246 1.875 13.9143 2.53348 15.0864 3.70558C16.2585 4.87768 16.917 6.4674 16.917 8.125Z" stroke="#005895" stroke-width="1.66667" stroke-linecap="round" stroke-linejoin="round"/>
</g>
</svg>
