<svg width="24" height="24" viewBox="0 0 24 24" fill="none" xmlns="http://www.w3.org/2000/svg">
<path fill-rule="evenodd" clip-rule="evenodd" d="M4.75 9.25V19.25H19.25V9.25H4.75ZM2.75 9C2.75 8.0335 3.5335 7.25 4.5 7.25H19.5C20.4665 7.25 21.25 8.0335 21.25 9V19.5C21.25 20.4665 20.4665 21.25 19.5 21.25H4.5C3.5335 21.25 2.75 20.4665 2.75 19.5V9Z" fill="#094067"/>
<path fill-rule="evenodd" clip-rule="evenodd" d="M12 2.5C11.3701 2.5 10.766 2.75022 10.3206 3.19562C9.87522 3.64102 9.625 4.24511 9.625 4.875V8.25C9.625 8.80228 9.17728 9.25 8.625 9.25C8.07272 9.25 7.625 8.80228 7.625 8.25V4.875C7.625 3.71468 8.08594 2.60188 8.90641 1.78141C9.72688 0.960936 10.8397 0.5 12 0.5C13.1603 0.5 14.2731 0.960936 15.0936 1.78141C15.9141 2.60188 16.375 3.71468 16.375 4.875V8.25C16.375 8.80228 15.9273 9.25 15.375 9.25C14.8227 9.25 14.375 8.80228 14.375 8.25V4.875C14.375 4.24511 14.1248 3.64102 13.6794 3.19562C13.234 2.75022 12.6299 2.5 12 2.5Z" fill="#094067"/>
<path d="M12 15.375C12.6213 15.375 13.125 14.8713 13.125 14.25C13.125 13.6287 12.6213 13.125 12 13.125C11.3787 13.125 10.875 13.6287 10.875 14.25C10.875 14.8713 11.3787 15.375 12 15.375Z" fill="#094067"/>
</svg>
