<svg width="17" height="17" viewBox="0 0 17 17" fill="none" xmlns="http://www.w3.org/2000/svg">
<path fill-rule="evenodd" clip-rule="evenodd" d="M3.77279 7.15658V13.8232H13.4395V7.15658H3.77279ZM2.43945 6.98991C2.43945 6.34558 2.96179 5.82324 3.60612 5.82324H13.6061C14.2505 5.82324 14.7728 6.34558 14.7728 6.98991V13.9899C14.7728 14.6342 14.2505 15.1566 13.6061 15.1566H3.60612C2.96179 15.1566 2.43945 14.6342 2.43945 13.9899V6.98991Z" fill="#863399"/>
<path fill-rule="evenodd" clip-rule="evenodd" d="M8.60612 2.65658C8.18619 2.65658 7.78347 2.82339 7.48653 3.12032C7.1896 3.41726 7.02279 3.81998 7.02279 4.23991V6.48991C7.02279 6.8581 6.72431 7.15658 6.35612 7.15658C5.98793 7.15658 5.68945 6.8581 5.68945 6.48991V4.23991C5.68945 3.46636 5.99674 2.72449 6.54373 2.17751C7.09071 1.63053 7.83257 1.32324 8.60612 1.32324C9.37967 1.32324 10.1215 1.63053 10.6685 2.17751C11.2155 2.72449 11.5228 3.46636 11.5228 4.23991V6.48991C11.5228 6.8581 11.2243 7.15658 10.8561 7.15658C10.4879 7.15658 10.1895 6.8581 10.1895 6.48991V4.23991C10.1895 3.81998 10.0226 3.41726 9.72571 3.12032C9.42877 2.82339 9.02605 2.65658 8.60612 2.65658Z" fill="#863399"/>
<path d="M8.60742 11.2393C9.02164 11.2393 9.35742 10.9035 9.35742 10.4893C9.35742 10.075 9.02164 9.73926 8.60742 9.73926C8.19321 9.73926 7.85742 10.075 7.85742 10.4893C7.85742 10.9035 8.19321 11.2393 8.60742 11.2393Z" fill="#863399"/>
</svg>
