<svg width="50" height="50" viewBox="0 0 50 50" fill="none" xmlns="http://www.w3.org/2000/svg">
<g clip-path="url(#clip0_994_234803)">
<path d="M2.53284 14.1367H2.40655C2.24998 14.1367 2.12305 14.2636 2.12305 14.4202V20.33C2.12305 20.4866 2.24998 20.6135 2.40655 20.6135H2.53284C2.68942 20.6135 2.81635 20.4866 2.81635 20.33V14.4202C2.81635 14.2636 2.68942 14.1367 2.53284 14.1367Z" fill="#003C75"/>
<path d="M32.2986 9.39453H4.33473C3.30418 9.39453 2.46875 10.23 2.46875 11.2605V47.0904C2.46875 48.121 3.30418 48.9564 4.33473 48.9564H32.2986C33.3292 48.9564 34.1646 48.121 34.1646 47.0904V11.2605C34.1646 10.23 33.3292 9.39453 32.2986 9.39453Z" fill="#005895"/>
<path d="M31.7577 10.9453H4.87882C4.23543 10.9453 3.71387 11.4669 3.71387 12.1103V46.2391C3.71387 46.8825 4.23543 47.4041 4.87882 47.4041H31.7577C32.4011 47.4041 32.9226 46.8825 32.9226 46.2391V12.1103C32.9226 11.4669 32.4011 10.9453 31.7577 10.9453Z" fill="white"/>
<path d="M31.7577 10.9453H30.451L30.1933 44.3749C30.1933 44.3749 30.2239 44.4694 30.0054 44.6879C29.787 44.9063 29.3373 44.85 29.0284 44.85H3.71388V46.2391C3.7132 46.3925 3.74283 46.5446 3.80107 46.6865C3.85931 46.8284 3.94501 46.9575 4.05326 47.0662C4.1615 47.1749 4.29015 47.2612 4.43183 47.3201C4.5735 47.3789 4.72541 47.4092 4.87883 47.4092H31.7577C32.0665 47.4085 32.3624 47.2856 32.5807 47.0673C32.799 46.8489 32.922 46.553 32.9226 46.2443V12.1C32.9193 11.793 32.7951 11.4997 32.5771 11.2836C32.359 11.0675 32.0647 10.946 31.7577 10.9453Z" fill="#D9E6EF"/>
<path d="M17.7544 18.1391C17.7544 18.1758 17.7516 18.2067 17.7458 18.2317C17.74 18.2568 17.7323 18.2771 17.7226 18.2925C17.713 18.308 17.7014 18.3195 17.6879 18.3273C17.6763 18.333 17.6638 18.3359 17.6502 18.3359H15.6936C15.6801 18.3359 15.6675 18.333 15.656 18.3273C15.6444 18.3195 15.6328 18.308 15.6212 18.2925C15.6116 18.2771 15.6039 18.2568 15.5981 18.2317C15.5923 18.2067 15.5894 18.1758 15.5894 18.1391C15.5894 18.1044 15.5923 18.0745 15.5981 18.0494C15.6039 18.0243 15.6106 18.004 15.6183 17.9886C15.628 17.9712 15.6386 17.9587 15.6502 17.951C15.6637 17.9413 15.6782 17.9365 15.6936 17.9365H16.4751V15.0884L15.7515 15.5196C15.7148 15.5389 15.6849 15.5505 15.6618 15.5544C15.6405 15.5582 15.6232 15.5544 15.6097 15.5428C15.5961 15.5293 15.5865 15.5081 15.5807 15.4791C15.5769 15.4502 15.5749 15.4135 15.5749 15.3691C15.5749 15.3363 15.5759 15.3083 15.5778 15.2852C15.5817 15.262 15.5865 15.2427 15.5923 15.2273C15.5981 15.2119 15.6058 15.1984 15.6154 15.1868C15.627 15.1752 15.6415 15.1636 15.6589 15.152L16.5214 14.5992C16.5291 14.5934 16.5388 14.5886 16.5504 14.5847C16.5619 14.5809 16.5764 14.577 16.5938 14.5732C16.6111 14.5693 16.6314 14.5674 16.6546 14.5674C16.6777 14.5654 16.7067 14.5645 16.7414 14.5645C16.7877 14.5645 16.8263 14.5664 16.8572 14.5703C16.888 14.5741 16.9122 14.5799 16.9295 14.5876C16.9469 14.5934 16.9585 14.6021 16.9643 14.6137C16.97 14.6233 16.9729 14.6339 16.9729 14.6455V17.9365H17.6502C17.6657 17.9365 17.6802 17.9413 17.6937 17.951C17.7072 17.9587 17.7178 17.9712 17.7255 17.9886C17.7351 18.004 17.7419 18.0243 17.7458 18.0494C17.7516 18.0745 17.7544 18.1044 17.7544 18.1391ZM20.7502 18.1217C20.7502 18.1565 20.7473 18.1874 20.7415 18.2144C20.7377 18.2414 20.7309 18.2645 20.7213 18.2838C20.7135 18.3012 20.702 18.3147 20.6865 18.3244C20.673 18.3321 20.6576 18.3359 20.6402 18.3359H18.5707C18.5437 18.3359 18.5195 18.333 18.4983 18.3273C18.479 18.3195 18.4617 18.308 18.4462 18.2925C18.4327 18.2771 18.4221 18.2549 18.4144 18.2259C18.4086 18.197 18.4057 18.1613 18.4057 18.1189C18.4057 18.0803 18.4067 18.0465 18.4086 18.0175C18.4124 17.9886 18.4192 17.9635 18.4289 17.9423C18.4385 17.9191 18.4501 17.8969 18.4636 17.8757C18.479 17.8526 18.4983 17.8284 18.5215 17.8034L19.248 17.0334C19.4159 16.8559 19.55 16.6967 19.6503 16.5559C19.7526 16.415 19.8307 16.2867 19.8848 16.1709C19.9407 16.0551 19.9774 15.9499 19.9947 15.8554C20.0121 15.7608 20.0208 15.6721 20.0208 15.5891C20.0208 15.5061 20.0073 15.428 19.9803 15.3547C19.9533 15.2794 19.9137 15.2138 19.8616 15.1578C19.8114 15.1019 19.7478 15.0575 19.6706 15.0247C19.5934 14.9919 19.5046 14.9755 19.4043 14.9755C19.2866 14.9755 19.1804 14.9919 19.0859 15.0247C18.9933 15.0575 18.9113 15.0932 18.8399 15.1318C18.7704 15.1704 18.7115 15.2061 18.6633 15.2389C18.617 15.2717 18.5823 15.2881 18.5591 15.2881C18.5456 15.2881 18.5331 15.2842 18.5215 15.2765C18.5118 15.2688 18.5031 15.2562 18.4954 15.2389C18.4896 15.2215 18.4848 15.1984 18.481 15.1694C18.4771 15.1405 18.4752 15.1057 18.4752 15.0652C18.4752 15.0363 18.4761 15.0112 18.4781 14.99C18.48 14.9687 18.4829 14.9504 18.4867 14.935C18.4925 14.9195 18.4993 14.905 18.507 14.8915C18.5147 14.878 18.5302 14.8616 18.5533 14.8423C18.5765 14.8211 18.616 14.7931 18.672 14.7584C18.7299 14.7237 18.8013 14.6899 18.8862 14.6571C18.973 14.6224 19.0676 14.5934 19.1698 14.5703C19.274 14.5471 19.3831 14.5355 19.4969 14.5355C19.6783 14.5355 19.8365 14.5616 19.9716 14.6137C20.1086 14.6638 20.2215 14.7333 20.3102 14.8221C20.4009 14.9108 20.4685 15.0141 20.5129 15.1318C20.5572 15.2495 20.5794 15.3749 20.5794 15.5081C20.5794 15.6277 20.5688 15.7473 20.5476 15.867C20.5264 15.9847 20.481 16.113 20.4116 16.2519C20.344 16.3889 20.2456 16.5423 20.1163 16.7122C19.987 16.88 19.8153 17.074 19.6011 17.2939L19.0077 17.9133H20.6373C20.6528 17.9133 20.6672 17.9182 20.6807 17.9278C20.6962 17.9355 20.7087 17.9481 20.7184 17.9654C20.7299 17.9828 20.7377 18.005 20.7415 18.032C20.7473 18.0571 20.7502 18.087 20.7502 18.1217Z" fill="#003C75"/>
<path d="M17.7168 22.6791C17.7168 22.8508 17.6869 23.0061 17.6271 23.1451C17.5673 23.2821 17.4814 23.3998 17.3695 23.4982C17.2576 23.5966 17.1196 23.6728 16.9556 23.7268C16.7916 23.7789 16.6063 23.805 16.3998 23.805C16.2744 23.805 16.1567 23.7944 16.0467 23.7732C15.9387 23.7539 15.8422 23.7307 15.7573 23.7037C15.6724 23.6747 15.6019 23.6458 15.546 23.6169C15.49 23.586 15.4543 23.5638 15.4389 23.5503C15.4254 23.5368 15.4148 23.5233 15.407 23.5098C15.3993 23.4963 15.3926 23.4799 15.3868 23.4606C15.381 23.4413 15.3762 23.4181 15.3723 23.3911C15.3704 23.3621 15.3694 23.3274 15.3694 23.2869C15.3694 23.2174 15.3762 23.1692 15.3897 23.1422C15.4032 23.1152 15.4225 23.1016 15.4476 23.1016C15.4649 23.1016 15.4987 23.1171 15.5489 23.148C15.601 23.1788 15.6666 23.2126 15.7457 23.2493C15.8267 23.284 15.9203 23.3168 16.0265 23.3477C16.1345 23.3785 16.2542 23.394 16.3854 23.394C16.5127 23.394 16.6246 23.3776 16.7211 23.3448C16.8176 23.312 16.8987 23.2657 16.9643 23.2058C17.0299 23.146 17.0791 23.0756 17.1119 22.9945C17.1447 22.9116 17.1611 22.8218 17.1611 22.7254C17.1611 22.6192 17.1399 22.5237 17.0974 22.4388C17.0569 22.3539 16.9961 22.2806 16.9151 22.2188C16.8359 22.1571 16.7375 22.1098 16.6198 22.077C16.504 22.0442 16.3719 22.0278 16.2233 22.0278H15.8673C15.8518 22.0278 15.8364 22.0249 15.821 22.0191C15.8074 22.0114 15.7949 21.9998 15.7833 21.9844C15.7737 21.9689 15.765 21.9487 15.7573 21.9236C15.7515 21.8985 15.7486 21.8657 15.7486 21.8252C15.7486 21.7885 15.7515 21.7586 15.7573 21.7355C15.7631 21.7104 15.7708 21.6911 15.7804 21.6776C15.792 21.6621 15.8045 21.6515 15.8181 21.6457C15.8316 21.638 15.847 21.6342 15.8644 21.6342H16.1914C16.3188 21.6342 16.4326 21.6178 16.533 21.585C16.6353 21.5521 16.7211 21.5049 16.7906 21.4431C16.862 21.3814 16.916 21.308 16.9527 21.2231C16.9913 21.1363 17.0106 21.0398 17.0106 20.9337C17.0106 20.8565 16.998 20.7832 16.9729 20.7137C16.9479 20.6423 16.9102 20.5806 16.8601 20.5285C16.8099 20.4764 16.7452 20.4359 16.6661 20.4069C16.5889 20.376 16.4992 20.3606 16.3969 20.3606C16.285 20.3606 16.1818 20.378 16.0872 20.4127C15.9946 20.4455 15.9116 20.4812 15.8383 20.5198C15.765 20.5584 15.7042 20.595 15.656 20.6298C15.6077 20.6626 15.574 20.679 15.5547 20.679C15.5412 20.679 15.5286 20.6771 15.517 20.6732C15.5074 20.6674 15.4987 20.6578 15.491 20.6443C15.4852 20.6288 15.4804 20.6086 15.4765 20.5835C15.4746 20.5565 15.4736 20.5217 15.4736 20.4793C15.4736 20.4503 15.4746 20.4252 15.4765 20.404C15.4784 20.3809 15.4823 20.3616 15.4881 20.3461C15.4939 20.3288 15.5006 20.3133 15.5084 20.2998C15.5161 20.2863 15.5286 20.2709 15.546 20.2535C15.5653 20.2342 15.6029 20.2072 15.6589 20.1725C15.7148 20.1377 15.7833 20.104 15.8644 20.0712C15.9473 20.0364 16.0419 20.0075 16.148 19.9843C16.2561 19.9612 16.3719 19.9496 16.4954 19.9496C16.669 19.9496 16.8215 19.9718 16.9527 20.0162C17.0839 20.0605 17.1929 20.1233 17.2798 20.2043C17.3685 20.2853 17.4341 20.3828 17.4766 20.4966C17.521 20.6086 17.5431 20.733 17.5431 20.87C17.5431 20.9877 17.5277 21.0977 17.4968 21.2C17.466 21.3003 17.4206 21.3901 17.3608 21.4692C17.301 21.5464 17.2277 21.6129 17.1408 21.6689C17.054 21.7229 16.9536 21.7605 16.8398 21.7818V21.7876C16.9691 21.8011 17.0868 21.8339 17.1929 21.886C17.301 21.9361 17.3936 21.9998 17.4708 22.077C17.548 22.1542 17.6078 22.2449 17.6502 22.3491C17.6946 22.4514 17.7168 22.5613 17.7168 22.6791ZM20.8747 21.8686C20.8747 22.1561 20.8515 22.4186 20.8052 22.6559C20.7608 22.8932 20.6856 23.0978 20.5794 23.2695C20.4752 23.4393 20.3382 23.5715 20.1684 23.6661C19.9986 23.7587 19.7892 23.805 19.5403 23.805C19.3049 23.805 19.1062 23.7635 18.9441 23.6805C18.7839 23.5956 18.6546 23.4721 18.5562 23.31C18.4578 23.146 18.3874 22.9453 18.3449 22.708C18.3044 22.4687 18.2841 22.1947 18.2841 21.886C18.2841 21.6004 18.3073 21.3389 18.3536 21.1016C18.3999 20.8623 18.4752 20.6578 18.5794 20.488C18.6836 20.3162 18.8206 20.184 18.9904 20.0914C19.1602 19.9969 19.3686 19.9496 19.6156 19.9496C19.8529 19.9496 20.0517 19.992 20.2118 20.0769C20.3739 20.1599 20.5042 20.2834 20.6026 20.4474C20.701 20.6095 20.7705 20.8102 20.811 21.0495C20.8534 21.2868 20.8747 21.5599 20.8747 21.8686ZM20.3652 21.9033C20.3652 21.7162 20.3585 21.5483 20.345 21.3997C20.3315 21.2511 20.3112 21.1199 20.2842 21.0061C20.2591 20.8922 20.2253 20.7948 20.1829 20.7137C20.1424 20.6307 20.0932 20.5632 20.0353 20.5111C19.9774 20.4571 19.9108 20.4185 19.8356 20.3953C19.7622 20.3702 19.6793 20.3577 19.5866 20.3577C19.4226 20.3577 19.2895 20.3963 19.1872 20.4735C19.0849 20.5507 19.0039 20.6568 18.9441 20.7919C18.8862 20.9269 18.8466 21.0852 18.8254 21.2666C18.8042 21.4479 18.7936 21.6428 18.7936 21.8512C18.7936 22.131 18.808 22.3693 18.837 22.5662C18.8659 22.7611 18.9113 22.9203 18.973 23.0438C19.0367 23.1673 19.1168 23.257 19.2132 23.3129C19.3117 23.3689 19.4303 23.3969 19.5693 23.3969C19.6773 23.3969 19.7719 23.3795 19.8529 23.3448C19.9359 23.31 20.0063 23.2608 20.0642 23.1972C20.124 23.1316 20.1732 23.0534 20.2118 22.9627C20.2504 22.872 20.2813 22.7717 20.3045 22.6617C20.3276 22.5517 20.343 22.433 20.3508 22.3057C20.3604 22.1764 20.3652 22.0423 20.3652 21.9033Z" fill="#003C75"/>
<path d="M17.9862 25.6725C17.9862 25.7217 17.9781 25.7661 17.9619 25.8057C17.9456 25.8453 17.9223 25.8791 17.8918 25.907C17.8619 25.9349 17.8248 25.9565 17.7807 25.9717C17.737 25.9869 17.6847 25.9945 17.6238 25.9945H17.5119V26.3493C17.5119 26.3534 17.5106 26.357 17.5081 26.36C17.5061 26.363 17.5025 26.3656 17.4974 26.3676C17.4929 26.3691 17.4863 26.3704 17.4776 26.3714C17.4695 26.3729 17.4591 26.3737 17.4464 26.3737C17.4337 26.3737 17.4231 26.3729 17.4145 26.3714C17.4063 26.3704 17.3997 26.3691 17.3947 26.3676C17.3896 26.3656 17.386 26.363 17.384 26.36C17.382 26.357 17.381 26.3534 17.381 26.3493V25.4403C17.381 25.42 17.3863 25.4055 17.3969 25.3969C17.4076 25.3882 17.4195 25.3839 17.4327 25.3839H17.6436C17.6649 25.3839 17.6852 25.3849 17.7045 25.387C17.7243 25.3885 17.7474 25.3923 17.7738 25.3984C17.8007 25.404 17.8279 25.4149 17.8553 25.4311C17.8832 25.4469 17.9068 25.4664 17.9261 25.4898C17.9454 25.5131 17.9601 25.5403 17.9703 25.5712C17.9809 25.6017 17.9862 25.6354 17.9862 25.6725ZM17.8484 25.6831C17.8484 25.6431 17.8408 25.6096 17.8256 25.5826C17.8109 25.5557 17.7923 25.5357 17.77 25.5225C17.7482 25.5093 17.7253 25.5009 17.7015 25.4974C17.6781 25.4938 17.6553 25.492 17.633 25.492H17.5119V25.8872H17.6299C17.6695 25.8872 17.7023 25.8821 17.7281 25.872C17.7545 25.8618 17.7766 25.8479 17.7944 25.8301C17.8121 25.8118 17.8256 25.7902 17.8347 25.7654C17.8439 25.74 17.8484 25.7126 17.8484 25.6831ZM19.2577 26.3493C19.2577 26.3534 19.2567 26.357 19.2547 26.36C19.2526 26.363 19.2491 26.3656 19.244 26.3676C19.2389 26.3691 19.2323 26.3704 19.2242 26.3714C19.2166 26.3729 19.2065 26.3737 19.1938 26.3737C19.1821 26.3737 19.1719 26.3729 19.1633 26.3714C19.1552 26.3704 19.1486 26.3691 19.1435 26.3676C19.139 26.3656 19.1357 26.363 19.1336 26.36C19.1316 26.357 19.1306 26.3534 19.1306 26.3493V25.4913H19.1291L18.7781 26.3532C18.7765 26.3567 18.7743 26.3598 18.7712 26.3623C18.7687 26.3648 18.7646 26.3671 18.759 26.3691C18.754 26.3707 18.7476 26.3717 18.74 26.3722C18.7329 26.3732 18.7243 26.3737 18.7141 26.3737C18.7034 26.3737 18.6943 26.3732 18.6867 26.3722C18.6791 26.3712 18.6727 26.3699 18.6677 26.3684C18.6626 26.3663 18.6585 26.3641 18.6555 26.3615C18.6529 26.359 18.6512 26.3562 18.6502 26.3532L18.3144 25.4913H18.3136V26.3493C18.3136 26.3534 18.3126 26.357 18.3106 26.36C18.3086 26.363 18.305 26.3656 18.2999 26.3676C18.2948 26.3691 18.2882 26.3704 18.2801 26.3714C18.272 26.3729 18.2616 26.3737 18.2489 26.3737C18.2367 26.3737 18.2266 26.3729 18.2185 26.3714C18.2103 26.3704 18.2037 26.3691 18.1987 26.3676C18.1941 26.3656 18.1908 26.363 18.1888 26.36C18.1872 26.357 18.1865 26.3534 18.1865 26.3493V25.4433C18.1865 25.422 18.1921 25.4068 18.2032 25.3976C18.2144 25.3885 18.2268 25.3839 18.2405 25.3839H18.3197C18.336 25.3839 18.3502 25.3855 18.3624 25.3885C18.3745 25.3915 18.3852 25.3964 18.3943 25.403C18.4035 25.4096 18.4111 25.4179 18.4172 25.4281C18.4233 25.4382 18.4286 25.4502 18.4332 25.4639L18.7187 26.1773H18.7225L19.0194 25.4662C19.025 25.4509 19.0311 25.438 19.0377 25.4273C19.0443 25.4167 19.0514 25.4083 19.059 25.4022C19.0671 25.3956 19.076 25.391 19.0857 25.3885C19.0953 25.3855 19.1065 25.3839 19.1192 25.3839H19.2021C19.2098 25.3839 19.2169 25.3852 19.2235 25.3877C19.2306 25.3898 19.2364 25.3933 19.241 25.3984C19.246 25.403 19.2501 25.4091 19.2532 25.4167C19.2562 25.4238 19.2577 25.4327 19.2577 25.4433V26.3493Z" fill="#003C75"/>
<path d="M30.6386 20.7175C36.1757 21.3776 41.1995 17.4239 41.8595 11.8868C42.5196 6.34965 38.5659 1.32585 33.0288 0.665813C27.4917 0.00577189 22.4679 3.95943 21.8078 9.49656C21.1478 15.0337 25.1014 20.0575 30.6386 20.7175Z" fill="white"/>
<path d="M39.0214 18.8331C41.0916 16.9317 42.3447 14.3022 42.5175 11.4967C42.6903 8.69118 41.7695 5.9278 39.9483 3.78673C38.1272 1.64565 35.5473 0.293412 32.7504 0.0139042C29.9535 -0.265603 27.157 0.54936 24.9482 2.2877C22.7393 4.02604 21.2899 6.55254 20.9041 9.33679C20.5183 12.121 21.2262 14.9465 22.8792 17.2199C24.5322 19.4933 27.0017 21.0379 29.7692 21.5294C32.5368 22.0209 35.3871 21.4211 37.7218 19.8558M30.7976 18.3081C29.3225 18.1322 27.9327 17.5229 26.8039 16.5572C25.6752 15.5915 24.8581 14.3128 24.4561 12.8827C24.054 11.4527 24.0851 9.9355 24.5453 8.52308C25.0055 7.11067 25.8742 5.86644 27.0416 4.94775C28.209 4.02905 29.6225 3.47715 31.1035 3.36184C32.5846 3.24652 34.0665 3.57296 35.362 4.29989C36.6575 5.02682 37.7083 6.12158 38.3817 7.44574C39.055 8.76989 39.3205 10.264 39.1446 11.739C39.029 12.7189 38.7213 13.6664 38.239 14.5271C37.7567 15.3879 37.1093 16.145 36.3339 16.7552C35.5586 17.3654 34.6705 17.8167 33.7204 18.0831C32.7704 18.3496 31.7772 18.426 30.7976 18.3081Z" fill="#F58E25"/>
<path d="M37.7219 19.8546L38.1156 20.372L37.9593 21.6828L44.6913 30.2162C44.7659 30.3114 44.8586 30.3909 44.9641 30.4502C45.0695 30.5094 45.1856 30.5473 45.3057 30.5616C45.4258 30.576 45.5476 30.5664 45.664 30.5336C45.7804 30.5008 45.8892 30.4453 45.9842 30.3703L47.3005 29.3344C47.3957 29.2597 47.4752 29.167 47.5345 29.0616C47.5937 28.9561 47.6316 28.84 47.6459 28.7199C47.6602 28.5998 47.6507 28.4781 47.6179 28.3616C47.5851 28.2452 47.5296 28.1364 47.4546 28.0415L40.7428 19.4922L39.4319 19.336L39.0216 18.8318" fill="#E68215"/>
<path fill-rule="evenodd" clip-rule="evenodd" d="M40.699 10.5037C40.5261 13.3093 39.2731 15.9387 37.2029 17.8401L35.9033 18.8629C33.5686 20.4281 30.7182 21.0279 27.9507 20.5364C27.08 20.3818 26.2388 20.1229 25.4432 19.7699C26.7654 20.7324 28.2999 21.3928 29.939 21.6839C32.7065 22.1754 35.5569 21.5756 37.8916 20.0103L39.1912 18.9875C41.2614 17.0862 42.5144 14.4567 42.6873 11.6512C42.8601 8.84567 41.9392 6.08228 40.1181 3.94121C39.0517 2.68756 37.7253 1.70436 36.2475 1.04859C36.9363 1.54999 37.569 2.13447 38.1298 2.79375C39.951 4.93482 40.8718 7.6982 40.699 10.5037Z" fill="#E68215"/>
<path fill-rule="evenodd" clip-rule="evenodd" d="M30.5438 4.92391C27.8553 4.76539 25.4757 6.72869 25.1527 9.43829C25.0172 10.5752 25.2644 11.6695 25.7929 12.5921C25.7425 12.0695 25.747 11.5336 25.8117 10.991C26.1501 8.15207 28.0466 5.87854 30.5438 4.92391Z" fill="#FEF4E9"/>
</g>
<defs>
<clipPath id="clip0_994_234803">
<rect width="50" height="50" fill="white"/>
</clipPath>
</defs>
</svg>
