<svg xmlns="http://www.w3.org/2000/svg" width="17.792" height="17.877" viewBox="0 0 17.792 17.877">
    <path fill="#0083ff" d="M-16.33 264.955v-1.563c0-.458-.007-.916 0-1.374a.388.388 0 0 0-.174-.35 7.9 7.9 0 0 1-2.54-3.332 7.583 7.583 0 0 1 .972-7.663 8.615 8.615 0 0 1 6.144-3.514 9.025 9.025 0 0 1 6.673 1.707 7.9 7.9 0 0 1 3.334 5.654 7.539 7.539 0 0 1-1.522 5.527 8.816 8.816 0 0 1-6.248 3.528 9.109 9.109 0 0 1-3.42-.237.472.472 0 0 0-.379.053c-.875.489-1.753.971-2.631 1.454-.055.031-.115.061-.209.11zm4.192-9.155l2.264 2.428 4.77-5.1a.661.661 0 0 0-.244.091c-1.28.713-2.562 1.424-3.839 2.144a.225.225 0 0 1-.336-.045c-.666-.713-1.344-1.415-2.015-2.124a1.057 1.057 0 0 1-.117-.2l-4.8 5.128.026.036z" transform="translate(19.659 -247.078)"/>
</svg>
