<svg width="16" height="16" viewBox="0 0 16 16" fill="none" xmlns="http://www.w3.org/2000/svg">
<path d="M15.0546 8C15.0546 9.05058 14.8721 10.0909 14.5176 11.0615C14.1631 12.0321 13.6434 12.914 12.9883 13.6569C12.3333 14.3997 11.5556 14.989 10.6997 15.391C9.84378 15.7931 8.92643 16 8.00001 16C7.07359 16 6.15624 15.7931 5.30034 15.391C4.44444 14.989 3.66675 14.3997 3.01167 13.6569C2.35659 12.914 1.83696 12.0321 1.48243 11.0615C1.12791 10.0909 0.945434 9.05057 0.945435 8L8.00001 8H15.0546Z" fill="#F58520" fill-opacity="0.8"/>
<rect x="0.5" y="0.5" width="15" height="15" rx="7.5" stroke="#F58520"/>
</svg>
