<svg width="20" height="21" viewBox="0 0 20 21" fill="none" xmlns="http://www.w3.org/2000/svg">
<path fill-rule="evenodd" clip-rule="evenodd" d="M10 2.25C5.58172 2.25 2 5.83172 2 10.25C2 14.6683 5.58172 18.25 10 18.25C14.4183 18.25 18 14.6683 18 10.25C18 5.83172 14.4183 2.25 10 2.25ZM0 10.25C0 4.72715 4.47715 0.25 10 0.25C15.5228 0.25 20 4.72715 20 10.25C20 15.7728 15.5228 20.25 10 20.25C4.47715 20.25 0 15.7728 0 10.25Z" fill="#005895"/>
<path fill-rule="evenodd" clip-rule="evenodd" d="M8.13171 6.20604C8.50117 5.79553 9.13346 5.76226 9.54397 6.13171L13.294 9.50671C13.5047 9.69636 13.625 9.96652 13.625 10.25C13.625 10.5335 13.5047 10.8037 13.294 10.9933L9.54397 14.3683C9.13346 14.7378 8.50117 14.7045 8.13171 14.294C7.76226 13.8835 7.79553 13.2512 8.20604 12.8817L11.1302 10.25L8.20604 7.6183C7.79553 7.24884 7.76226 6.61655 8.13171 6.20604Z" fill="#005895"/>
</svg>
