<svg width="61" height="60" viewBox="0 0 61 60" fill="none" xmlns="http://www.w3.org/2000/svg">
<circle cx="30.4985" cy="30.0019" r="29.9491" fill="#B8C5F5"/>
<path d="M38.8789 15.9308L21.3954 15.9082C20.8925 15.9082 20.48 16.3151 20.48 16.8236V43.0037C20.48 43.5066 20.8868 43.9191 21.3954 43.9191H40.7719C41.2749 43.9191 41.6874 43.5123 41.6874 43.0037L41.6704 18.7336L38.8789 15.9308Z" fill="#FAFBFC"/>
<path d="M32.2843 44.479H21.4009C20.5872 44.479 19.9204 43.8178 19.9204 42.9985V16.8184C19.9204 16.0047 20.5816 15.3379 21.4009 15.3379H38.1724C38.325 15.3379 38.4663 15.4 38.5736 15.5074L42.0884 19.0618C42.1958 19.1691 42.2523 19.3104 42.2523 19.4573V30.9623C42.2523 31.2731 41.998 31.5274 41.6872 31.5274C41.3764 31.5274 41.1221 31.2731 41.1221 30.9623V19.689L37.9351 16.4624H21.4009C21.2088 16.4624 21.0506 16.6206 21.0506 16.8127V42.9928C21.0506 43.1849 21.2088 43.3432 21.4009 43.3432H32.2843C32.5951 43.3432 32.8494 43.5974 32.8494 43.9082C32.8494 44.219 32.5951 44.4733 32.2843 44.4733V44.479Z" fill="#6A509B"/>
<path d="M35.1831 24.6438H24.424C24.1132 24.6438 23.8589 24.3895 23.8589 24.0788C23.8589 23.768 24.1132 23.5137 24.424 23.5137H35.1831C35.4938 23.5137 35.7481 23.768 35.7481 24.0788C35.7481 24.3895 35.4938 24.6438 35.1831 24.6438Z" fill="#6A509B"/>
<path d="M33.6237 28.3743H24.3395C24.0287 28.3743 23.7744 28.12 23.7744 27.8092C23.7744 27.4984 24.0287 27.2441 24.3395 27.2441H33.6237C33.9345 27.2441 34.1888 27.4984 34.1888 27.8092C34.1888 28.12 33.9345 28.3743 33.6237 28.3743Z" fill="#6A509B"/>
<path d="M33.6237 32.013H24.3395C24.0287 32.013 23.7744 31.7587 23.7744 31.4479C23.7744 31.1371 24.0287 30.8828 24.3395 30.8828H33.6237C33.9345 30.8828 34.1888 31.1371 34.1888 31.4479C34.1888 31.7587 33.9345 32.013 33.6237 32.013Z" fill="#6A509B"/>
<path d="M30.8379 35.7591H24.3395C24.0287 35.7591 23.7744 35.5048 23.7744 35.194C23.7744 34.8832 24.0287 34.6289 24.3395 34.6289H30.8379C31.1487 34.6289 31.403 34.8832 31.403 35.194C31.403 35.5048 31.1487 35.7591 30.8379 35.7591Z" fill="#6A509B"/>
<path d="M41.6135 20.2995H37.9122C37.6015 20.2995 37.3472 20.0452 37.3472 19.7344V15.9371C37.3472 15.7054 37.4884 15.502 37.6975 15.4115C37.9122 15.3268 38.1552 15.3776 38.3135 15.5415L42.0147 19.3388C42.1729 19.5027 42.2181 19.7457 42.1334 19.9548C42.043 20.1639 41.8395 20.2995 41.6135 20.2995ZM38.4773 19.1693H40.2743L38.4773 17.3272V19.1693Z" fill="#6A509B"/>
<path d="M40.4553 46.5014C44.0973 46.5014 47.0498 43.549 47.0498 39.907C47.0498 36.2649 44.0973 33.3125 40.4553 33.3125C36.8133 33.3125 33.8608 36.2649 33.8608 39.907C33.8608 43.549 36.8133 46.5014 40.4553 46.5014Z" fill="#FAFBFC"/>
<g style="mix-blend-mode:multiply" opacity="0.18">
<path d="M47.0498 39.907C47.0498 43.5517 44.0945 46.5014 40.4554 46.5014C40.0429 46.5014 39.636 46.4619 39.2461 46.3884C42.3088 45.8233 44.6256 43.1392 44.6256 39.907C44.6256 36.6747 42.3088 33.9906 39.2461 33.4255C39.636 33.3521 40.0429 33.3125 40.4554 33.3125C44.0945 33.3125 47.0498 36.2622 47.0498 39.907Z" fill="#FAFBFC"/>
</g>
<path d="M40.4554 47.0671C36.5055 47.0671 33.2959 43.8575 33.2959 39.9076C33.2959 35.9577 36.5055 32.748 40.4554 32.748C44.4053 32.748 47.615 35.9577 47.615 39.9076C47.615 43.8575 44.4053 47.0671 40.4554 47.0671ZM40.4554 33.8782C37.1328 33.8782 34.4261 36.5849 34.4261 39.9076C34.4261 43.2302 37.1328 45.937 40.4554 45.937C43.7781 45.937 46.4848 43.2302 46.4848 39.9076C46.4848 36.5849 43.7781 33.8782 40.4554 33.8782Z" fill="#CD0000"/>
<path d="M46.0761 36.0751L44.9014 34.9004L35.4036 44.3982L36.5783 45.5729L46.0761 36.0751Z" fill="#CD0000"/>
<g style="mix-blend-mode:multiply" opacity="0.1">
<path d="M47.0493 39.907C47.0493 43.5517 44.094 46.5014 40.4549 46.5014C40.0424 46.5014 39.6355 46.4619 39.2456 46.3884C42.3083 45.8233 44.6251 43.1392 44.6251 39.907C44.6251 36.6747 42.3083 33.9906 39.2456 33.4255C39.6355 33.3521 40.0424 33.3125 40.4549 33.3125C44.094 33.3125 47.0493 36.2622 47.0493 39.907Z" fill="#CD0000"/>
</g>
<g style="mix-blend-mode:multiply" opacity="0.1">
<path d="M39.3478 20.1074H41.1108V32.833H39.3478C39.1895 32.833 39.0596 32.703 39.0596 32.5448V20.3956C39.0596 20.2374 39.1895 20.1074 39.3478 20.1074Z" fill="#6A509B"/>
</g>
</svg>
