<svg width="61" height="60" viewBox="0 0 61 60" fill="none" xmlns="http://www.w3.org/2000/svg">
<circle cx="30.5001" cy="29.9981" r="29.9473" fill="#B8C5F5"/>
<path d="M36.0342 42.0634L34.2543 44.0863L32.1128 41.7922L29.8074 44.1202L27.3608 42.0069L24.7842 43.8376L22.7217 42.312L20.3599 43.6851V14.4102H40.9501L40.9614 40.3683L39.1419 44.0185L36.0568 41.9674" fill="#FAFBFC"/>
<path d="M26.1402 23.3914C26.1402 22.7755 26.2532 22.2556 26.4792 21.8319C26.7053 21.4081 27.0782 21.1934 27.598 21.1934C28.1574 21.1934 28.5134 21.3572 28.6716 21.6793C28.8298 22.0014 28.9372 22.2895 28.988 22.5438C29.0389 22.7981 29.0671 23.0806 29.0671 23.397C29.0671 23.996 28.9598 24.5045 28.7451 24.9339C28.5303 25.3577 28.1461 25.5725 27.5924 25.5725C27.1912 25.5725 26.8804 25.4594 26.6657 25.2334C26.451 25.0074 26.3097 24.7362 26.2363 24.4254C26.1628 24.1146 26.1289 23.77 26.1289 23.397L26.1402 23.3914ZM28.2309 23.3914C28.2309 22.9506 28.197 22.5777 28.1235 22.2782C28.0501 21.9731 27.8749 21.8262 27.6037 21.8262C27.3324 21.8262 27.1686 21.9788 27.0951 22.2782C27.0217 22.5777 26.9878 22.9506 26.9878 23.397C26.9878 23.8434 27.0217 24.1994 27.0895 24.4989C27.1573 24.7983 27.3324 24.9453 27.6037 24.9453C27.8749 24.9453 28.0501 24.7983 28.1235 24.4989C28.197 24.1994 28.2309 23.8321 28.2309 23.4027V23.3914Z" fill="#005894" stroke="#005894" stroke-width="0.282522" stroke-miterlimit="10"/>
<path d="M29.9316 22.3062C29.9316 21.9558 30.022 21.6846 30.1972 21.4868C30.3724 21.2891 30.621 21.1874 30.9487 21.1874C31.2764 21.1874 31.5138 21.2834 31.6889 21.4755C31.8641 21.6677 31.9545 21.9445 31.9545 22.3005C31.9545 22.6565 31.8697 22.9334 31.6946 23.1255C31.5194 23.3176 31.2708 23.4193 30.9487 23.4193C30.6266 23.4193 30.3724 23.3232 30.1972 23.1255C30.022 22.9277 29.9373 22.6565 29.9373 22.3062H29.9316ZM31.3216 22.3062C31.3216 22.131 31.2934 21.9841 31.2425 21.8598C31.1917 21.7355 31.09 21.6733 30.9431 21.6733C30.7962 21.6733 30.6888 21.7355 30.6379 21.8654C30.5814 21.9954 30.5588 22.1423 30.5588 22.3005C30.5588 22.4587 30.5871 22.6056 30.6436 22.7356C30.7001 22.8655 30.8018 22.9334 30.9487 22.9334C31.0956 22.9334 31.1917 22.8712 31.2482 22.7469C31.299 22.6226 31.3273 22.4757 31.3273 22.3005L31.3216 22.3062ZM30.7679 25.6286L33.3784 21.1309H33.8756L31.2651 25.6286H30.7679ZM32.6778 24.4533C32.6778 24.1086 32.7682 23.8318 32.949 23.634C33.1298 23.4362 33.3784 23.3345 33.7005 23.3345C34.0226 23.3345 34.2712 23.4306 34.4407 23.6227C34.6102 23.8148 34.7006 24.0917 34.7006 24.4477C34.7006 24.8036 34.6159 25.0805 34.4407 25.2726C34.2712 25.4647 34.0226 25.5665 33.7005 25.5665C33.3784 25.5665 33.1241 25.4704 32.949 25.2726C32.7682 25.0749 32.6834 24.8036 32.6834 24.4533H32.6778ZM34.0734 24.4533C34.0734 24.2782 34.0452 24.1312 33.9943 24.0069C33.9435 23.8826 33.8417 23.8205 33.6948 23.8205C33.5479 23.8205 33.4406 23.8826 33.3897 24.0126C33.3332 24.1425 33.3106 24.2895 33.3106 24.4477C33.3106 24.6059 33.3389 24.7528 33.3954 24.8828C33.4519 25.0127 33.5536 25.0805 33.7005 25.0805C33.8474 25.0805 33.9435 25.0184 34 24.8941C34.0565 24.7697 34.0791 24.6228 34.0791 24.4477L34.0734 24.4533Z" fill="#005894" stroke="#005894" stroke-width="0.282522" stroke-miterlimit="10"/>
<path d="M24.5752 32.7712V28.5391H26.9201V29.2058H25.4171V30.2511H26.8467V30.9179H25.4171V32.7712H24.5752Z" fill="#005894" stroke="#005894" stroke-width="0.282522" stroke-miterlimit="10"/>
<path d="M27.5923 32.7712V28.5391H30.0841V29.2058H28.4342V30.2511H29.9429V30.9179H28.4342V32.1045H30.0954V32.7712H27.5923Z" fill="#005894" stroke="#005894" stroke-width="0.282522" stroke-miterlimit="10"/>
<path d="M30.9546 32.7712V28.5391H33.4464V29.2058H31.7965V30.2511H33.3052V30.9179H31.7965V32.1045H33.4577V32.7712H30.9546Z" fill="#005894" stroke="#005894" stroke-width="0.282522" stroke-miterlimit="10"/>
<path d="M36.6559 28.6174L36.5768 29.3124C36.2999 29.1938 36.0118 29.1316 35.7179 29.1316C35.5371 29.1316 35.3789 29.1768 35.2489 29.2672C35.119 29.3576 35.0512 29.5102 35.0512 29.7192C35.0512 29.9057 35.2602 30.0865 35.6671 30.2617C36.0796 30.4368 36.3847 30.5951 36.5938 30.7363C36.7972 30.8776 36.8989 31.1545 36.8989 31.5613C36.8989 32.002 36.752 32.3241 36.4581 32.5332C36.1643 32.7366 35.7857 32.8439 35.3168 32.8439C35.0625 32.8439 34.876 32.827 34.7574 32.7987L34.2375 32.6801L34.3166 31.9173C34.407 31.9625 34.4805 31.9964 34.5483 32.0246C34.6161 32.0529 34.7122 32.0868 34.8365 32.1207C34.9608 32.1546 35.1077 32.1772 35.2659 32.1772C35.4524 32.1772 35.6219 32.132 35.7801 32.0359C35.9383 31.9399 36.0174 31.8099 36.0174 31.6291C36.0174 31.4144 35.8535 31.2336 35.5258 31.0866C35.1981 30.9397 34.9608 30.8324 34.8195 30.7533C34.6783 30.6742 34.5313 30.5894 34.3844 30.4934C34.2375 30.3973 34.1641 30.1487 34.1641 29.7531C34.1641 29.3181 34.3053 28.9903 34.5878 28.7813C34.8704 28.5666 35.2207 28.4648 35.6388 28.4648C36.0174 28.4648 36.3508 28.5157 36.6503 28.6174H36.6559Z" fill="#005894" stroke="#005894" stroke-width="0.282522" stroke-miterlimit="10"/>
<g style="mix-blend-mode:multiply" opacity="0.1">
<path d="M39.1529 14.8809H40.9159V41.2289H39.1529C38.9947 41.2289 38.8647 41.0989 38.8647 40.9407V15.169C38.8647 15.0108 38.9947 14.8809 39.1529 14.8809Z" fill="#6A509B"/>
</g>
<path d="M43.2044 43.7975C46.8462 43.7975 49.7985 40.8452 49.7985 37.2034C49.7985 33.5616 46.8462 30.6094 43.2044 30.6094C39.5626 30.6094 36.6104 33.5616 36.6104 37.2034C36.6104 40.8452 39.5626 43.7975 43.2044 43.7975Z" fill="#B0D899"/>
<path d="M41.9108 40.8821C41.7243 40.8821 41.5378 40.8086 41.3909 40.6674L39.0008 38.2772C38.7126 37.9891 38.7126 37.5257 39.0008 37.2376C39.289 36.9494 39.7523 36.9494 40.0405 37.2376L41.9108 39.1079L46.4763 34.5423C46.7645 34.2541 47.2278 34.2541 47.516 34.5423C47.8042 34.8305 47.8042 35.2938 47.516 35.582L42.4306 40.6674C42.2894 40.8086 42.0972 40.8821 41.9108 40.8821Z" fill="white"/>
<g style="mix-blend-mode:multiply" opacity="0.18">
<path d="M49.7984 37.2034C49.7984 40.848 46.8432 43.7975 43.2043 43.7975C42.7918 43.7975 42.385 43.7579 41.9951 43.6845C45.0577 43.1194 47.3743 40.4355 47.3743 37.2034C47.3743 33.9714 45.0577 31.2874 41.9951 30.7224C42.385 30.6489 42.7918 30.6094 43.2043 30.6094C46.8432 30.6094 49.7984 33.5589 49.7984 37.2034Z" fill="#80C15B"/>
</g>
<path d="M38.5656 44.7365C38.43 44.7365 38.2944 44.6857 38.187 44.5896L36.1303 42.725L34.4578 44.5162C34.3504 44.6348 34.1526 44.7309 34.0057 44.7083C33.8306 44.7083 33.6667 44.6292 33.5537 44.4936L31.8981 42.5611L29.9657 44.4597C29.7566 44.6687 29.3724 44.68 29.1463 44.4879L27.1122 42.7815L25.0385 44.5331C24.8238 44.7139 24.4565 44.7083 24.2474 44.5218L22.4506 42.9001L20.4221 44.1997C20.2469 44.3127 19.987 44.3184 19.8062 44.2223C19.6141 44.115 19.4897 43.9116 19.4897 43.6912L19.6367 15.4164C19.6367 14.518 20.3769 13.7891 21.2753 13.7891H40.176C41.0801 13.7891 41.8146 14.5236 41.8146 15.4277V29.4803C41.8146 29.7911 41.5604 30.0454 41.2496 30.0454C40.9388 30.0454 40.6845 29.7911 40.6845 29.4803V15.4277C40.6845 15.1508 40.4585 14.9192 40.176 14.9192H21.2753C20.9984 14.9192 20.7724 15.1452 20.7667 15.422L20.6255 42.725L22.1794 41.7305C22.3997 41.5892 22.7331 41.6231 22.9252 41.8039L24.6655 43.3748L26.728 41.6344C26.937 41.4593 27.2987 41.4593 27.5077 41.6344L29.5136 43.3239L31.5026 41.3632C31.6156 41.2558 31.7964 41.1937 31.9546 41.188C32.1185 41.1937 32.2767 41.2728 32.384 41.3971L34.0283 43.3183L35.6387 41.5892C35.8704 41.3406 36.2603 41.3237 36.5145 41.5553L38.9386 43.759C39.1702 43.9681 39.1872 44.324 38.9781 44.5557C38.8651 44.68 38.7125 44.7422 38.56 44.7422L38.5656 44.7365ZM33.6384 43.742L33.6271 43.7533L33.6384 43.742Z" fill="#6A509B"/>
</svg>
