<svg xmlns="http://www.w3.org/2000/svg" width="18" height="19" viewBox="0 0 18 19">
    <defs>
        <clipPath id="clip-path">
            <path id="Rectangle_2105" d="M0 0H18V19H0z"/>
        </clipPath>
        <style>
            .cls-2{fill:#959595}
        </style>
    </defs>
    <g id="Note_icon" clip-path="url(#clip-path)">
        <g id="single-folded-content" transform="translate(1.2 1.2)">
            <path id="Path_6128" d="M10.67 0H1.691A.691.691 0 0 0 1 .691v15.195a.691.691 0 0 0 .691.691H15.5a.691.691 0 0 0 .691-.691V5.52H11.36a.691.691 0 0 1-.691-.691zM3.76 11.741h9.672v1.381H3.76zm0-3.454h9.672V9.67H3.76zm4.147-2.071H3.76V4.835h4.147z" class="cls-2" transform="translate(-1)"/>
            <path id="Path_6129" d="M20.739 4.323H17V.586z" class="cls-2" transform="translate(-5.949 -.182)"/>
        </g>
    </g>
</svg>
