<svg width="80" height="80" viewBox="0 0 80 80" fill="none" xmlns="http://www.w3.org/2000/svg">
<path d="M74.9725 66.1929L74.973 66.1927C76.6887 65.2235 77.75 63.403 77.75 61.45C77.75 59.0281 76.1746 56.9776 74 56.277V12.5C74 11.6744 73.3256 11 72.5 11H61.4914C62.8696 9.84606 63.65 8.3772 63.65 6.825C63.65 4.24536 61.4834 2.25 58.75 2.25C54.2558 2.25 51.4818 5.82816 50 8.62765C48.5182 5.82816 45.7442 2.25 41.25 2.25C38.5166 2.25 36.35 4.24536 36.35 6.825C36.35 8.3772 37.1304 9.84606 38.5086 11H27.5C26.6744 11 26 11.6744 26 12.5V55.6217L21.8837 59.75H15.25V58.75C15.25 57.9244 14.5756 57.25 13.75 57.25H3.75C2.92443 57.25 2.25 57.9244 2.25 58.75V76.25C2.25 77.0756 2.92443 77.75 3.75 77.75H13.75C14.4904 77.75 15.1093 77.2075 15.2291 76.5H56.25C56.5002 76.5 56.7573 76.4413 56.9881 76.3037C56.9891 76.3031 56.9901 76.3025 56.9911 76.3019L74.9725 66.1929ZM58.7003 9.30831L58.6987 9.30922C57.6091 9.94681 55.6155 10.6931 52.2074 10.9254C52.7017 9.84182 53.4393 8.50839 54.4398 7.40547C55.5579 6.17303 56.9833 5.25 58.75 5.25C59.8767 5.25 60.65 5.96223 60.65 6.825C60.65 7.65345 59.9963 8.56248 58.7003 9.30831ZM45.5462 7.4056C46.548 8.50841 47.2907 9.84161 47.7905 10.9253C44.3837 10.6928 42.3907 9.94668 41.3013 9.30922L41.2997 9.30832C40.0037 8.56248 39.35 7.65345 39.35 6.825C39.35 5.96223 40.1233 5.25 41.25 5.25C43.0038 5.25 44.4261 6.1726 45.5462 7.4056ZM69.834 56.4974L69.8327 56.498L54.6701 63.5H49.4966C49.976 62.6486 50.25 61.6757 50.25 60.625C50.25 57.3869 47.6131 54.75 44.375 54.75H29V14H71V56.1175C70.599 56.2007 70.2025 56.3299 69.834 56.4974ZM73.503 63.5693L73.5024 63.5696L55.8595 73.5H15.25V62.75H22.5C22.907 62.75 23.2796 62.5841 23.5594 62.319L23.5595 62.3191L23.5645 62.314L28.1163 57.75H44.375C45.9619 57.75 47.25 59.0381 47.25 60.625C47.25 62.2119 45.9619 63.5 44.375 63.5H33.75H33.5V63.75V66.25V66.5H33.75H55C55.2081 66.5 55.4318 66.4559 55.6298 66.3645L55.525 66.1375L55.6298 66.3645L71.0923 59.227L71.0928 59.2268C71.4105 59.0792 71.7621 59 72.1125 59H72.3C73.6494 59 74.75 60.1006 74.75 61.45C74.75 62.3219 74.274 63.1384 73.503 63.5693ZM12.25 74.75H5.25V60.25H12.25V74.75Z" fill="#863399" stroke="#863399" stroke-width="0.5"/>
<path d="M69.7097 25.2927L69.7088 25.2918L62.2088 17.7918L62.2088 17.7918L62.2069 17.7899C61.9524 17.5489 61.6159 17.4 61.2506 17.4H38.7506C38.3853 17.4 38.0487 17.5489 37.7943 17.7899L37.7943 17.7899L37.7924 17.7918L30.2924 25.2918L30.2924 25.2918L30.2914 25.2927C29.7936 25.804 29.7648 26.6134 30.2383 27.1414C30.2384 27.1416 30.2386 27.1417 30.2387 27.1418L48.923 48.3133C49.1665 48.6357 49.5695 48.85 50.0006 48.85C50.4317 48.85 50.8346 48.6357 51.0781 48.3133L69.7625 27.1418C69.7626 27.1417 69.7627 27.1416 69.7628 27.1414C70.2364 26.6134 70.2075 25.804 69.7097 25.2927ZM52.431 20.1H59.0638L56.1159 25.9958L52.431 20.1ZM53.8078 27.4H46.1934L50.0006 21.3013L53.8078 27.4ZM40.9374 20.1H47.5702L43.8853 25.9958L40.9374 20.1ZM33.9907 25.426L38.3856 21.0192L41.3076 26.887L33.9907 25.426ZM42.7115 29.9241L46.6126 41.6273L34.9094 28.3565L42.7115 29.9241ZM54.3744 30.1L50.0006 43.2335L45.6268 30.1H54.3744ZM57.2896 29.9241L65.0917 28.3565L53.3886 41.6273L57.2896 29.9241ZM66.0226 25.426L58.6935 26.8871L61.6156 21.019L66.0226 25.426Z" fill="#7DD0DE" stroke="#7DD0DE" stroke-width="0.2"/>
<path d="M62.6 42.5V42.4H62.5H60H59.9V42.5C59.9 45.8948 57.1448 48.65 53.75 48.65H53.65V48.75V51.25V51.35H53.75C57.1448 51.35 59.9 54.1052 59.9 57.5V57.6H60H62.5H62.6V57.5C62.6 54.1052 65.3552 51.35 68.75 51.35H68.85V51.25V48.75V48.65H68.75C65.3552 48.65 62.6 45.8948 62.6 42.5ZM64.0591 50C62.9269 50.7107 61.9607 51.6769 61.25 52.8091C60.5393 51.6769 59.5731 50.7107 58.4409 50C59.5731 49.2893 60.5393 48.3231 61.25 47.1909C61.9607 48.3231 62.9269 49.2893 64.0591 50Z" fill="#7DD0DE" stroke="#7DD0DE" stroke-width="0.2"/>
</svg>
