<svg width="45" height="46" viewBox="0 0 45 46" fill="none" xmlns="http://www.w3.org/2000/svg">
<g clip-path="url(#clip0_1566_26708)">
<path d="M22.5 45.7061C34.9264 45.7061 45 35.6325 45 23.2061C45 10.7796 34.9264 0.706055 22.5 0.706055C10.0736 0.706055 0 10.7796 0 23.2061C0 35.6325 10.0736 45.7061 22.5 45.7061Z" fill="#E3F2FB"/>
<path d="M33.9591 11.2662H33.8994V11.2363L33.9591 11.2662Z" fill="white"/>
<path d="M36.1556 11.0415H8.84668V32.575H36.1556V11.0415Z" fill="#F1F9FD"/>
<path d="M35.9469 33.2906H9.05489C8.54794 33.2906 8.13574 32.8784 8.13574 32.3714V10.9753C8.13574 10.4683 8.54794 10.0562 9.05489 10.0562H35.9469C36.4539 10.0562 36.8661 10.4683 36.8661 10.9753V32.3714C36.8661 32.8784 36.4539 33.2906 35.9469 33.2906ZM9.5571 31.8692H35.4447V11.4775H9.5571V31.8692Z" fill="#3379AA"/>
<path d="M36.1556 15.1113H8.84668V16.5327H36.1556V15.1113Z" fill="#3379AA"/>
<path d="M34.2837 13.4958H24.7701C24.6374 13.4958 24.5332 13.3915 24.5332 13.2589C24.5332 13.1262 24.6374 13.022 24.7701 13.022H34.2837C34.4164 13.022 34.5206 13.1262 34.5206 13.2589C34.5206 13.3915 34.4164 13.4958 34.2837 13.4958Z" fill="#3379AA"/>
<path d="M12.3101 13.9743C12.7053 13.9743 13.0256 13.654 13.0256 13.2589C13.0256 12.8638 12.7053 12.5435 12.3101 12.5435C11.915 12.5435 11.5947 12.8638 11.5947 13.2589C11.5947 13.654 11.915 13.9743 12.3101 13.9743Z" fill="#D10000"/>
<path d="M14.693 13.9743C15.0881 13.9743 15.4084 13.654 15.4084 13.2589C15.4084 12.8638 15.0881 12.5435 14.693 12.5435C14.2978 12.5435 13.9775 12.8638 13.9775 13.2589C13.9775 13.654 14.2978 13.9743 14.693 13.9743Z" fill="#FFE100"/>
<path d="M17.0807 13.9743C17.4758 13.9743 17.7961 13.654 17.7961 13.2589C17.7961 12.8638 17.4758 12.5435 17.0807 12.5435C16.6855 12.5435 16.3652 12.8638 16.3652 13.2589C16.3652 13.654 16.6855 13.9743 17.0807 13.9743Z" fill="#82C55B"/>
<g style="mix-blend-mode:multiply">
<path d="M33.8995 11.4775H35.4535V31.8787H33.8995C33.8142 31.8787 33.7432 31.8076 33.7432 31.7224V11.6339C33.7432 11.5486 33.8142 11.4775 33.8995 11.4775Z" fill="#D9E6EF"/>
</g>
<path d="M19.6046 33.8314L19.37 33.0439C19.2081 32.4966 18.3535 31.1785 17.5549 31.4131C17.5549 31.4131 16.2759 31.7426 16.7897 33.2283C16.9852 33.7924 17.8006 35.3785 17.8006 35.3785C17.8844 35.5628 17.9626 35.7527 18.0129 35.9482C18.2195 36.7078 18.3703 37.4841 18.5434 38.2493C19.0238 40.327 20.8501 41.902 23.0842 41.9858H23.2517C25.9214 42.0863 28.1555 39.9975 28.2504 37.3333L28.1108 34.6301L28.1667 32.8261C28.1555 32.0777 27.7031 31.6141 27.1948 31.603C26.9156 31.5974 26.3515 31.6644 26.29 32.6642C26.29 32.7423 26.3068 32.3235 26.29 32.6642L26.2565 34.0604H26.1839L26.2454 31.3963C26.2956 30.8155 25.9103 30.2458 25.335 30.1676C25.0222 30.1229 24.7318 30.2234 24.5084 30.4078C24.3017 30.5809 24.1565 30.8322 24.1286 31.1282L24.0504 33.9878H23.9722L24.0392 30.1788C24.0895 29.5867 23.6594 29.0729 23.073 29.0282C22.7826 29.0003 22.5089 29.0897 22.2967 29.2684C22.0844 29.4471 21.9504 29.6984 21.9225 29.9945L21.8443 33.9096H21.7661L21.9001 26.6601C21.9504 26.0793 21.5203 25.5654 20.9339 25.5096C20.6435 25.4872 20.3698 25.5822 20.1576 25.7553C19.9453 25.9285 19.8057 26.1854 19.7778 26.4758L19.6325 33.8314" fill="#F8FCFE"/>
<path d="M23.4879 42.0533C23.4321 42.0533 23.3707 42.0533 23.3148 42.0533H23.1473C20.8406 41.9695 18.8579 40.3498 18.3384 38.1101C18.277 37.8532 18.2212 37.6019 18.1653 37.345C18.0536 36.8423 17.9419 36.3229 17.8023 35.8202C17.7576 35.6527 17.6906 35.4795 17.6068 35.2952C17.5789 35.2394 16.7802 33.6923 16.5791 33.117C16.3836 32.5585 16.3948 32.0726 16.6126 31.6705C16.9142 31.1064 17.5118 30.9444 17.5398 30.9388C18.3161 30.7098 19.0478 31.5085 19.4387 32.1843L19.5392 26.2584C19.5728 25.8842 19.7403 25.5603 20.014 25.3313C20.2821 25.1023 20.6283 24.9962 20.9858 25.0185C21.7286 25.0856 22.276 25.739 22.2145 26.4707L22.1754 28.8276C22.4491 28.6042 22.7954 28.4925 23.1417 28.5316C23.4935 28.5595 23.8175 28.7271 24.0465 28.9952C24.281 29.2688 24.3927 29.6207 24.3592 29.9837C24.3592 29.9837 24.3648 29.9837 24.3704 29.9726C24.6664 29.7268 25.035 29.6151 25.4092 29.6654C26.113 29.7603 26.6268 30.4417 26.5654 31.1901V31.2795C26.7888 31.1175 27.0569 31.0896 27.2468 31.0896C27.8555 31.1008 28.4755 31.6202 28.4922 32.5864L28.442 34.4072L28.5928 37.0825C28.5481 38.4732 27.9784 39.7354 26.9842 40.6737C26.0292 41.5673 24.8005 42.0533 23.4991 42.0533H23.4879ZM17.8023 31.4582C17.7632 31.4582 17.7241 31.4582 17.685 31.475C17.6738 31.475 17.2828 31.5867 17.0985 31.9385C16.9645 32.1955 16.9645 32.5306 17.1041 32.9327C17.2884 33.4689 18.0983 35.0271 18.1039 35.0439C18.21 35.2673 18.2826 35.4684 18.3384 35.6694C18.4781 36.1833 18.5954 36.7138 18.7071 37.2221C18.7629 37.4734 18.8188 37.7303 18.8802 37.9817C19.3438 39.9812 21.1087 41.4221 23.164 41.4891H23.3316C24.5435 41.5338 25.7052 41.0982 26.5933 40.266C27.4813 39.4338 27.9896 38.3056 28.0287 37.0881L27.8779 34.4128L27.9281 32.5808C27.917 31.9832 27.5707 31.6537 27.23 31.6481C27.0624 31.6425 26.6603 31.6369 26.6156 32.4468L26.5877 33.8375C26.5877 33.9101 26.5542 33.9827 26.4983 34.033C26.4425 34.0832 26.3643 34.1112 26.2973 34.1112H26.2247C26.0739 34.1056 25.951 33.9771 25.951 33.8263L26.0068 31.1678C26.0459 30.6931 25.7443 30.2798 25.3366 30.2239C25.1188 30.196 24.901 30.2574 24.7279 30.4026C24.5659 30.5367 24.4653 30.7266 24.4486 30.9332L24.376 33.7761C24.376 33.8542 24.3425 33.9269 24.281 33.9771C24.2196 34.0274 24.1526 34.0497 24.0688 34.0497H23.9906C23.8454 34.033 23.7337 33.9101 23.7337 33.7593L23.7895 29.9614C23.8063 29.7268 23.7449 29.5258 23.6108 29.3638C23.4768 29.2074 23.2869 29.1069 23.0802 29.0957C22.8736 29.0789 22.6669 29.1404 22.505 29.2744C22.3486 29.4085 22.248 29.5984 22.2313 29.8106L22.1643 33.7035C22.1643 33.8543 22.0414 33.9771 21.8906 33.9771H21.8124C21.7398 33.9771 21.6616 33.9492 21.6113 33.8989C21.5611 33.8487 21.5276 33.7705 21.5276 33.6979L21.6448 26.4483C21.6839 26.0015 21.36 25.6217 20.9299 25.5826C20.7289 25.5659 20.5222 25.6329 20.3603 25.767C20.1983 25.901 20.0978 26.0909 20.081 26.2975L19.9581 33.6308C19.9581 33.7649 19.8576 33.8766 19.7291 33.8989C19.5783 33.9436 19.4275 33.8598 19.3829 33.709L19.1483 32.9215C19.0031 32.4412 18.3329 31.4638 17.7911 31.4638L17.8023 31.4582Z" fill="#6A509A"/>
<path d="M26.8657 31.6311C26.8657 31.6311 27.5638 40.3104 23.7715 41.5056C23.7715 41.5056 26.229 41.595 27.5806 38.9309C27.5806 38.9309 28.2005 37.8809 27.9771 36.3673C27.9771 36.3673 27.8319 34.1332 27.8989 33.6976C27.8989 33.6976 28.3234 31.0391 26.8657 31.6255V31.6311Z" fill="#F0DFC9"/>
<g style="mix-blend-mode:multiply" opacity="0.6">
<path d="M19.6046 33.8319L19.37 33.0444C19.2081 32.4971 18.3535 31.179 17.5549 31.4136C17.5549 31.4136 16.2759 31.7431 16.7897 33.2287C16.9852 33.7928 17.8006 35.379 17.8006 35.379C17.8844 35.5633 17.9626 35.7532 18.0129 35.9487C18.2195 36.7083 18.3703 37.4846 18.5434 38.2498C19.0238 40.3275 20.8501 41.9025 23.0842 41.9863H23.2517C25.9214 42.0868 28.1555 39.9979 28.2504 37.3338L28.1108 34.6306L28.1667 32.8266C28.1555 32.0782 27.7031 31.6146 27.1948 31.6035C26.9156 31.5979 26.3515 31.6649 26.29 32.6646C26.29 32.7428 26.3068 32.3239 26.29 32.6646L26.2565 34.0609H26.1839L26.2454 31.3968C26.2956 30.816 25.9103 30.2463 25.335 30.1681C25.0222 30.1234 24.7318 30.2239 24.5084 30.4082C24.3017 30.5814 24.1565 30.8327 24.1286 31.1287L24.0504 33.9883H23.9722L24.0392 30.1792C24.0895 29.5872 23.6594 29.0734 23.073 29.0287C22.7826 29.0008 22.5089 29.0901 22.2967 29.2689C22.0844 29.4476 21.9504 29.6989 21.9225 29.9949L21.8443 33.9101H21.7661L21.9001 26.6606C21.9504 26.0798 21.5203 25.5659 20.9339 25.5101C20.6435 25.4877 20.3698 25.5827 20.1576 25.7558C19.9453 25.9289 19.8057 26.1859 19.7778 26.4763L19.6325 33.8319" fill="#FBE6D1"/>
</g>
</g>
<defs>
<clipPath id="clip0_1566_26708">
<rect width="45" height="45" fill="white" transform="translate(0 0.706055)"/>
</clipPath>
</defs>
</svg>
