<svg width="80" height="80" viewBox="0 0 80 80" fill="none" xmlns="http://www.w3.org/2000/svg">
<circle cx="40" cy="26" r="22" fill="#E2E2E2"/>
<path d="M46 19H51.325C51.5242 18.9987 51.7192 19.0577 51.8843 19.1693C52.0494 19.2808 52.1769 19.4397 52.25 19.625L54 24" stroke="#A5A3A3" stroke-width="2.28571" stroke-linecap="round" stroke-linejoin="round"/>
<path d="M26 27.002H46" stroke="#A5A3A3" stroke-width="2.28571" stroke-linecap="round" stroke-linejoin="round"/>
<path d="M47.5 36C49.1569 36 50.5 34.6569 50.5 33C50.5 31.3431 49.1569 30 47.5 30C45.8431 30 44.5 31.3431 44.5 33C44.5 34.6569 45.8431 36 47.5 36Z" stroke="#A5A3A3" stroke-width="2.28571" stroke-miterlimit="10"/>
<path d="M32.5 36C34.1569 36 35.5 34.6569 35.5 33C35.5 31.3431 34.1569 30 32.5 30C30.8431 30 29.5 31.3431 29.5 33C29.5 34.6569 30.8431 36 32.5 36Z" stroke="#A5A3A3" stroke-width="2.28571" stroke-miterlimit="10"/>
<path d="M44.5 33H35.5" stroke="#A5A3A3" stroke-width="2.28571" stroke-linecap="round" stroke-linejoin="round"/>
<path d="M29.5 33H27C26.7348 33 26.4804 32.8946 26.2929 32.7071C26.1054 32.5196 26 32.2652 26 32V18C26 17.7348 26.1054 17.4804 26.2929 17.2929C26.4804 17.1054 26.7348 17 27 17H46V30.4" stroke="#A5A3A3" stroke-width="2.28571" stroke-linecap="round" stroke-linejoin="round"/>
<path d="M46 23.998H54V31.998C54 32.2633 53.8946 32.5176 53.7071 32.7052C53.5196 32.8927 53.2652 32.998 53 32.998H50.5" stroke="#A5A3A3" stroke-width="2.28571" stroke-linecap="round" stroke-linejoin="round"/>
<path d="M10.7617 65.7871C10.7617 68.0488 11.7832 69.1797 13.8262 69.1797C15.8262 69.1797 16.8262 68.0488 16.8262 65.7871C16.8262 63.5566 15.8262 62.4414 13.8262 62.4414C11.7832 62.4414 10.7617 63.5566 10.7617 65.7871ZM9.61914 65.8223C9.61914 62.9824 11.0215 61.5625 13.8262 61.5625C16.5879 61.5625 17.9688 62.9824 17.9688 65.8223C17.9688 68.6465 16.5879 70.0586 13.8262 70.0586C11.0215 70.0586 9.61914 68.6465 9.61914 65.8223ZM19.5566 70V63.8477H20.2891L20.4824 64.6328C21.1113 64.1094 21.8027 63.8477 22.5566 63.8477C24.0918 63.8477 24.8594 64.6113 24.8594 66.1387V70H23.7754V66.1211C23.7754 65.207 23.3203 64.75 22.4102 64.75C21.7891 64.75 21.1992 65.0098 20.6406 65.5293V70H19.5566ZM29.5527 62.8516H30.2324L30.4668 63.8477H32.1309V64.7266H30.6367V68.2598C30.6367 68.834 30.8848 69.1211 31.3809 69.1211H32.1309V70H31.0996C30.0684 70 29.5527 69.4473 29.5527 68.3418V62.8516ZM33.5137 70V61.6211H34.5977V64.5156C35.1211 64.0703 35.7598 63.8477 36.5137 63.8477C38.0488 63.8477 38.8164 64.6113 38.8164 66.1387V70H37.7324V66.1211C37.7324 65.207 37.2773 64.75 36.3672 64.75C35.7461 64.75 35.1562 65.0098 34.5977 65.5293V70H33.5137ZM43.1172 63.8477C44.8672 63.8477 45.7422 64.7129 45.7422 66.4434C45.7422 66.6895 45.7246 66.9531 45.6895 67.2344H41.3711C41.3711 68.4922 42.1055 69.1211 43.5742 69.1211C44.2734 69.1211 44.8945 69.043 45.4375 68.8867V69.7656C44.8945 69.9219 44.2344 70 43.457 70C41.3438 70 40.2871 68.9512 40.2871 66.8535C40.2871 64.8496 41.2305 63.8477 43.1172 63.8477ZM41.3711 66.332H44.6992C44.6758 65.2539 44.1484 64.7148 43.1172 64.7148C42.0234 64.7148 41.4414 65.2539 41.3711 66.332ZM49.457 63.8477H50.5527L51.6426 68.6699L53.2422 63.8477H54.2207L55.9316 68.6699L56.916 63.8477H58.0645L56.459 70H55.4688L53.7051 65.4004L52.0293 70H51.0156L49.457 63.8477ZM58.8613 68.1426C58.8613 66.8809 59.6934 66.25 61.3574 66.25C61.8926 66.25 62.4277 66.2891 62.9629 66.3672V65.7871C62.9629 65.0801 62.4102 64.7266 61.3047 64.7266C60.6719 64.7266 60.0234 64.8242 59.3594 65.0195V64.1406C60.0234 63.9453 60.6719 63.8477 61.3047 63.8477C63.1328 63.8477 64.0469 64.4844 64.0469 65.7578V70H63.4375L63.0625 69.3906C62.4492 69.7969 61.7812 70 61.0586 70C59.5938 70 58.8613 69.3809 58.8613 68.1426ZM61.3574 67.1289C60.416 67.1289 59.9453 67.4609 59.9453 68.125C59.9453 68.7891 60.3164 69.1211 61.0586 69.1211C61.8086 69.1211 62.4434 68.9219 62.9629 68.5234V67.2461C62.4277 67.168 61.8926 67.1289 61.3574 67.1289ZM65.0781 63.8477H66.2559L67.9961 68.6523L69.7949 63.8477H70.9434L68.3887 70.1816C67.9355 71.2988 67.2559 71.9961 66.3496 72.2734L65.9336 71.5059C66.6211 71.2051 67.1211 70.7148 67.4336 70.0352L65.0781 63.8477Z" fill="#A5A3A3"/>
</svg>
