<svg width="80" height="80" viewBox="0 0 80 80" fill="none" xmlns="http://www.w3.org/2000/svg">
<circle cx="40" cy="26.0001" r="22" fill="#412B71"/>
<g clip-path="url(#clip0_18_8109)">
<path d="M46 19.0001H51.325C51.5242 18.9988 51.7192 19.0578 51.8843 19.1694C52.0494 19.2809 52.1769 19.4398 52.25 19.6251L54 24.0001" stroke="#FBFBFB" stroke-width="2.28571" stroke-linecap="round" stroke-linejoin="round"/>
<path d="M26 27.0021H46" stroke="#FBFBFB" stroke-width="2.28571" stroke-linecap="round" stroke-linejoin="round"/>
<path d="M47.5 36.0001C49.1569 36.0001 50.5 34.657 50.5 33.0001C50.5 31.3433 49.1569 30.0001 47.5 30.0001C45.8431 30.0001 44.5 31.3433 44.5 33.0001C44.5 34.657 45.8431 36.0001 47.5 36.0001Z" stroke="#FBFBFB" stroke-width="2.28571" stroke-miterlimit="10"/>
<path d="M32.5 36.0001C34.1569 36.0001 35.5 34.657 35.5 33.0001C35.5 31.3433 34.1569 30.0001 32.5 30.0001C30.8431 30.0001 29.5 31.3433 29.5 33.0001C29.5 34.657 30.8431 36.0001 32.5 36.0001Z" stroke="#FBFBFB" stroke-width="2.28571" stroke-miterlimit="10"/>
<path d="M44.5 33.0001H35.5" stroke="#FBFBFB" stroke-width="2.28571" stroke-linecap="round" stroke-linejoin="round"/>
<path d="M29.5 33.0001H27C26.7348 33.0001 26.4804 32.8948 26.2929 32.7072C26.1054 32.5197 26 32.2653 26 32.0001V18.0001C26 17.7349 26.1054 17.4806 26.2929 17.293C26.4804 17.1055 26.7348 17.0001 27 17.0001H46V30.4001" stroke="#FBFBFB" stroke-width="2.28571" stroke-linecap="round" stroke-linejoin="round"/>
<path d="M46 23.9982H54V31.9982C54 32.2634 53.8946 32.5177 53.7071 32.7053C53.5196 32.8928 53.2652 32.9982 53 32.9982H50.5" stroke="#FBFBFB" stroke-width="2.28571" stroke-linecap="round" stroke-linejoin="round"/>
</g>
<path d="M19.6621 65.1212C19.6621 65.7345 19.5898 66.2872 19.4453 66.7794C19.3008 67.2716 19.084 67.6915 18.7949 68.0392C18.5098 68.3829 18.1504 68.6486 17.7168 68.8361C17.2832 69.0197 16.7773 69.1115 16.1992 69.1115C15.6289 69.1115 15.1348 69.0275 14.7168 68.8595C14.3027 68.6876 13.959 68.4396 13.6855 68.1154C13.416 67.7911 13.2148 67.3888 13.082 66.9083C12.9492 66.4279 12.8828 65.8751 12.8828 65.2501C12.8828 64.6525 12.9551 64.1095 13.0996 63.6212C13.2441 63.1329 13.4609 62.7189 13.75 62.379C14.0391 62.0353 14.4004 61.7716 14.834 61.588C15.2676 61.4005 15.7734 61.3068 16.3516 61.3068C16.9102 61.3068 17.3965 61.3907 17.8105 61.5587C18.2246 61.7267 18.5684 61.9728 18.8418 62.297C19.1191 62.6173 19.3242 63.0157 19.457 63.4923C19.5938 63.965 19.6621 64.5079 19.6621 65.1212ZM18.6016 65.1915C18.6016 64.7618 18.5625 64.3634 18.4844 63.9962C18.4102 63.6251 18.2832 63.3048 18.1035 63.0353C17.9277 62.7618 17.6914 62.549 17.3945 62.3966C17.0977 62.2443 16.7305 62.1681 16.293 62.1681C15.8555 62.1681 15.4883 62.2501 15.1914 62.4142C14.8945 62.5782 14.6523 62.797 14.4648 63.0704C14.2812 63.3439 14.1484 63.6642 14.0664 64.0314C13.9883 64.3947 13.9492 64.7775 13.9492 65.1798C13.9492 65.6251 13.9863 66.0353 14.0605 66.4103C14.1348 66.7853 14.2598 67.1095 14.4355 67.3829C14.6113 67.6525 14.8457 67.8634 15.1387 68.0157C15.4355 68.1642 15.8066 68.2384 16.252 68.2384C16.6934 68.2384 17.0645 68.1564 17.3652 67.9923C17.666 67.8282 17.9082 67.6075 18.0918 67.3302C18.2754 67.049 18.4062 66.7247 18.4844 66.3575C18.5625 65.9904 18.6016 65.6017 18.6016 65.1915ZM25.6855 68.8536C25.6855 68.8849 25.6777 68.9122 25.6621 68.9357C25.6465 68.9552 25.6211 68.9728 25.5859 68.9884C25.5508 69.004 25.502 69.0157 25.4395 69.0236C25.377 69.0314 25.2988 69.0353 25.2051 69.0353C25.1074 69.0353 25.0273 69.0314 24.9648 69.0236C24.9023 69.0157 24.8535 69.004 24.8184 68.9884C24.7832 68.9728 24.7578 68.9552 24.7422 68.9357C24.7266 68.9122 24.7188 68.8849 24.7188 68.8536V65.7657C24.7188 65.465 24.6953 65.2228 24.6484 65.0392C24.6016 64.8556 24.5332 64.6974 24.4434 64.5646C24.3535 64.4318 24.2363 64.3302 24.0918 64.2599C23.9512 64.1896 23.7871 64.1544 23.5996 64.1544C23.3574 64.1544 23.1152 64.2404 22.873 64.4122C22.6309 64.5841 22.377 64.8361 22.1113 65.1681V68.8536C22.1113 68.8849 22.1035 68.9122 22.0879 68.9357C22.0723 68.9552 22.0469 68.9728 22.0117 68.9884C21.9766 69.004 21.9277 69.0157 21.8652 69.0236C21.8027 69.0314 21.7227 69.0353 21.625 69.0353C21.5312 69.0353 21.4531 69.0314 21.3906 69.0236C21.3281 69.0157 21.2773 69.004 21.2383 68.9884C21.2031 68.9728 21.1777 68.9552 21.1621 68.9357C21.1504 68.9122 21.1445 68.8849 21.1445 68.8536V63.5802C21.1445 63.549 21.1504 63.5236 21.1621 63.504C21.1738 63.4806 21.1973 63.4611 21.2324 63.4454C21.2676 63.4259 21.3125 63.4142 21.3672 63.4103C21.4219 63.4025 21.4941 63.3986 21.584 63.3986C21.6699 63.3986 21.7402 63.4025 21.7949 63.4103C21.8535 63.4142 21.8984 63.4259 21.9297 63.4454C21.9609 63.4611 21.9824 63.4806 21.9941 63.504C22.0098 63.5236 22.0176 63.549 22.0176 63.5802V64.2775C22.3145 63.9454 22.6094 63.7032 22.9023 63.5509C23.1992 63.3947 23.498 63.3165 23.7988 63.3165C24.1504 63.3165 24.4453 63.3771 24.6836 63.4982C24.9258 63.6154 25.1211 63.7736 25.2695 63.9728C25.418 64.172 25.5234 64.4064 25.5859 64.6759C25.6523 64.9415 25.6855 65.2618 25.6855 65.6368V68.8536ZM32.9102 68.4669C32.9102 68.5802 32.9023 68.67 32.8867 68.7365C32.8711 68.8029 32.8477 68.8517 32.8164 68.8829C32.7852 68.9142 32.7383 68.9435 32.6758 68.9708C32.6133 68.9982 32.541 69.0197 32.459 69.0353C32.3809 69.0548 32.2969 69.0704 32.207 69.0822C32.1172 69.0939 32.0273 69.0997 31.9375 69.0997C31.6641 69.0997 31.4297 69.0646 31.2344 68.9943C31.0391 68.92 30.8789 68.8107 30.7539 68.6661C30.6289 68.5177 30.5371 68.3322 30.4785 68.1095C30.4238 67.8829 30.3965 67.6173 30.3965 67.3126V64.2306H29.6582C29.5996 64.2306 29.5527 64.1993 29.5176 64.1368C29.4824 64.0743 29.4648 63.9728 29.4648 63.8322C29.4648 63.7579 29.4688 63.6954 29.4766 63.6447C29.4883 63.5939 29.502 63.5529 29.5176 63.5216C29.5332 63.4865 29.5527 63.463 29.5762 63.4513C29.6035 63.4357 29.6328 63.4279 29.6641 63.4279H30.3965V62.174C30.3965 62.1466 30.4023 62.1212 30.4141 62.0978C30.4297 62.0743 30.4551 62.0548 30.4902 62.0392C30.5293 62.0197 30.5801 62.006 30.6426 61.9982C30.7051 61.9904 30.7832 61.9865 30.877 61.9865C30.9746 61.9865 31.0547 61.9904 31.1172 61.9982C31.1797 62.006 31.2285 62.0197 31.2637 62.0392C31.2988 62.0548 31.3242 62.0743 31.3398 62.0978C31.3555 62.1212 31.3633 62.1466 31.3633 62.174V63.4279H32.7168C32.748 63.4279 32.7754 63.4357 32.7988 63.4513C32.8223 63.463 32.8418 63.4865 32.8574 63.5216C32.877 63.5529 32.8906 63.5939 32.8984 63.6447C32.9062 63.6954 32.9102 63.7579 32.9102 63.8322C32.9102 63.9728 32.8926 64.0743 32.8574 64.1368C32.8223 64.1993 32.7754 64.2306 32.7168 64.2306H31.3633V67.172C31.3633 67.5353 31.416 67.8107 31.5215 67.9982C31.6309 68.1818 31.8242 68.2736 32.1016 68.2736C32.1914 68.2736 32.2715 68.2657 32.3418 68.2501C32.4121 68.2306 32.4746 68.2111 32.5293 68.1915C32.584 68.172 32.6309 68.1544 32.6699 68.1388C32.709 68.1193 32.7441 68.1095 32.7754 68.1095C32.7949 68.1095 32.8125 68.1154 32.8281 68.1271C32.8477 68.1349 32.8613 68.1525 32.8691 68.1798C32.8809 68.2072 32.8906 68.2443 32.8984 68.2911C32.9062 68.338 32.9102 68.3966 32.9102 68.4669ZM38.7285 68.8536C38.7285 68.8849 38.7207 68.9122 38.7051 68.9357C38.6895 68.9552 38.6641 68.9728 38.6289 68.9884C38.5938 69.004 38.5449 69.0157 38.4824 69.0236C38.4199 69.0314 38.3418 69.0353 38.248 69.0353C38.1504 69.0353 38.0703 69.0314 38.0078 69.0236C37.9453 69.0157 37.8965 69.004 37.8613 68.9884C37.8262 68.9728 37.8008 68.9552 37.7852 68.9357C37.7695 68.9122 37.7617 68.8849 37.7617 68.8536V65.7657C37.7617 65.465 37.7383 65.2228 37.6914 65.0392C37.6445 64.8556 37.5762 64.6974 37.4863 64.5646C37.3965 64.4318 37.2793 64.3302 37.1348 64.2599C36.9941 64.1896 36.8301 64.1544 36.6426 64.1544C36.4004 64.1544 36.1582 64.2404 35.916 64.4122C35.6738 64.5841 35.4199 64.8361 35.1543 65.1681V68.8536C35.1543 68.8849 35.1465 68.9122 35.1309 68.9357C35.1152 68.9552 35.0898 68.9728 35.0547 68.9884C35.0195 69.004 34.9707 69.0157 34.9082 69.0236C34.8457 69.0314 34.7656 69.0353 34.668 69.0353C34.5742 69.0353 34.4961 69.0314 34.4336 69.0236C34.3711 69.0157 34.3203 69.004 34.2812 68.9884C34.2461 68.9728 34.2207 68.9552 34.2051 68.9357C34.1934 68.9122 34.1875 68.8849 34.1875 68.8536V61.0255C34.1875 60.9943 34.1934 60.9669 34.2051 60.9435C34.2207 60.92 34.2461 60.9005 34.2812 60.8849C34.3203 60.8693 34.3711 60.8575 34.4336 60.8497C34.4961 60.8419 34.5742 60.838 34.668 60.838C34.7656 60.838 34.8457 60.8419 34.9082 60.8497C34.9707 60.8575 35.0195 60.8693 35.0547 60.8849C35.0898 60.9005 35.1152 60.92 35.1309 60.9435C35.1465 60.9669 35.1543 60.9943 35.1543 61.0255V64.1837C35.4316 63.8907 35.7109 63.674 35.9922 63.5333C36.2734 63.3888 36.5566 63.3165 36.8418 63.3165C37.1934 63.3165 37.4883 63.3771 37.7266 63.4982C37.9688 63.6154 38.1641 63.7736 38.3125 63.9728C38.4609 64.172 38.5664 64.4064 38.6289 64.6759C38.6953 64.9415 38.7285 65.2638 38.7285 65.6427V68.8536ZM44.9922 65.9884C44.9922 66.1407 44.9531 66.2501 44.875 66.3165C44.8008 66.379 44.7148 66.4103 44.6172 66.4103H41.1602C41.1602 66.7032 41.1895 66.9669 41.248 67.2013C41.3066 67.4357 41.4043 67.6368 41.541 67.8048C41.6777 67.9728 41.8555 68.1017 42.0742 68.1915C42.293 68.2814 42.5605 68.3263 42.877 68.3263C43.127 68.3263 43.3496 68.3068 43.5449 68.2677C43.7402 68.2247 43.9082 68.1779 44.0488 68.1271C44.1934 68.0763 44.3105 68.0314 44.4004 67.9923C44.4941 67.9493 44.5645 67.9279 44.6113 67.9279C44.6387 67.9279 44.6621 67.9357 44.6816 67.9513C44.7051 67.963 44.7227 67.9825 44.7344 68.0099C44.7461 68.0372 44.7539 68.0763 44.7578 68.1271C44.7656 68.174 44.7695 68.2325 44.7695 68.3029C44.7695 68.3536 44.7676 68.3986 44.7637 68.4376C44.7598 68.4728 44.7539 68.506 44.7461 68.5372C44.7422 68.5646 44.7324 68.59 44.7168 68.6134C44.7051 68.6368 44.6875 68.6603 44.6641 68.6837C44.6445 68.7032 44.582 68.7384 44.4766 68.7892C44.3711 68.8361 44.2344 68.8829 44.0664 68.9298C43.8984 68.9767 43.7031 69.0177 43.4805 69.0529C43.2617 69.0919 43.0273 69.1115 42.7773 69.1115C42.3438 69.1115 41.9629 69.0509 41.6348 68.9298C41.3105 68.8087 41.0371 68.629 40.8145 68.3907C40.5918 68.1525 40.4238 67.8536 40.3105 67.4943C40.1973 67.1349 40.1406 66.7169 40.1406 66.2404C40.1406 65.7872 40.1992 65.381 40.3164 65.0216C40.4336 64.6583 40.6016 64.3517 40.8203 64.1017C41.043 63.8478 41.3105 63.6544 41.623 63.5216C41.9355 63.3849 42.2852 63.3165 42.6719 63.3165C43.0859 63.3165 43.4375 63.3829 43.7266 63.5157C44.0195 63.6486 44.2598 63.8282 44.4473 64.0548C44.6348 64.2775 44.7715 64.5411 44.8574 64.8458C44.9473 65.1466 44.9922 65.4689 44.9922 65.8126V65.9884ZM44.0195 65.7013C44.0312 65.1935 43.918 64.795 43.6797 64.506C43.4453 64.2169 43.0957 64.0724 42.6309 64.0724C42.3926 64.0724 42.1836 64.1173 42.0039 64.2072C41.8242 64.297 41.6738 64.4161 41.5527 64.5646C41.4316 64.713 41.3379 64.8868 41.2715 65.0861C41.2051 65.2814 41.168 65.4865 41.1602 65.7013H44.0195ZM56.5645 63.5685C56.5645 63.5958 56.5605 63.629 56.5527 63.6681C56.5449 63.7072 56.5312 63.756 56.5117 63.8146L54.959 68.8243C54.9473 68.8673 54.9277 68.9025 54.9004 68.9298C54.877 68.9572 54.8418 68.9786 54.7949 68.9943C54.752 69.0099 54.6914 69.0197 54.6133 69.0236C54.5352 69.0314 54.4375 69.0353 54.3203 69.0353C54.1992 69.0353 54.0977 69.0314 54.0156 69.0236C53.9336 69.0157 53.8672 69.004 53.8164 68.9884C53.7695 68.9728 53.7344 68.9513 53.7109 68.924C53.6875 68.8966 53.6699 68.8634 53.6582 68.8243L52.5508 64.9982L52.5391 64.9454L52.5273 64.9982L51.502 68.8243C51.4902 68.8673 51.4707 68.9025 51.4434 68.9298C51.4199 68.9572 51.3828 68.9786 51.332 68.9943C51.2812 69.0099 51.2148 69.0197 51.1328 69.0236C51.0547 69.0314 50.957 69.0353 50.8398 69.0353C50.7188 69.0353 50.6191 69.0314 50.541 69.0236C50.4668 69.0157 50.4043 69.004 50.3535 68.9884C50.3066 68.9728 50.2715 68.9513 50.248 68.924C50.2246 68.8966 50.207 68.8634 50.1953 68.8243L48.6543 63.8146C48.6348 63.756 48.6211 63.7072 48.6133 63.6681C48.6055 63.629 48.6016 63.5958 48.6016 63.5685C48.6016 63.5333 48.6094 63.506 48.625 63.4865C48.6406 63.463 48.666 63.4454 48.7012 63.4337C48.7402 63.4181 48.791 63.4083 48.8535 63.4044C48.916 63.4005 48.9922 63.3986 49.082 63.3986C49.1914 63.3986 49.2793 63.4025 49.3457 63.4103C49.4121 63.4142 49.4629 63.424 49.498 63.4396C49.5332 63.4513 49.5586 63.4708 49.5742 63.4982C49.5898 63.5216 49.6035 63.5509 49.6152 63.5861L50.8867 67.9337L50.8984 67.9865L50.9102 67.9337L52.0762 63.5861C52.084 63.5509 52.0957 63.5216 52.1113 63.4982C52.1309 63.4708 52.1582 63.4513 52.1934 63.4396C52.2285 63.424 52.2754 63.4142 52.334 63.4103C52.3965 63.4025 52.4766 63.3986 52.5742 63.3986C52.668 63.3986 52.7441 63.4025 52.8027 63.4103C52.8652 63.4142 52.9141 63.424 52.9492 63.4396C52.9844 63.4513 53.0098 63.4689 53.0254 63.4923C53.041 63.5157 53.0527 63.5431 53.0605 63.5743L54.3203 67.9337L54.332 67.9865L54.3379 67.9337L55.5918 63.5861C55.5996 63.5509 55.6113 63.5216 55.627 63.4982C55.6465 63.4708 55.6738 63.4513 55.709 63.4396C55.748 63.424 55.7988 63.4142 55.8613 63.4103C55.9277 63.4025 56.0117 63.3986 56.1133 63.3986C56.207 63.3986 56.2812 63.4005 56.3359 63.4044C56.3945 63.4083 56.4395 63.4181 56.4707 63.4337C56.5059 63.4493 56.5293 63.4669 56.541 63.4865C56.5566 63.506 56.5645 63.5333 56.5645 63.5685ZM61.5977 68.8595C61.5977 68.9064 61.582 68.9415 61.5508 68.965C61.5195 68.9884 61.4766 69.006 61.4219 69.0177C61.3672 69.0294 61.2871 69.0353 61.1816 69.0353C61.0801 69.0353 60.998 69.0294 60.9355 69.0177C60.877 69.006 60.834 68.9884 60.8066 68.965C60.7793 68.9415 60.7656 68.9064 60.7656 68.8595V68.3322C60.5352 68.5782 60.2773 68.7697 59.9922 68.9064C59.7109 69.0431 59.4121 69.1115 59.0957 69.1115C58.8184 69.1115 58.5664 69.0743 58.3398 69.0001C58.1172 68.9298 57.9258 68.8263 57.7656 68.6896C57.6094 68.5529 57.4863 68.3849 57.3965 68.1857C57.3105 67.9865 57.2676 67.7599 57.2676 67.506C57.2676 67.2091 57.3281 66.9513 57.4492 66.7325C57.5703 66.5138 57.7441 66.3322 57.9707 66.1876C58.1973 66.0431 58.4746 65.9357 58.8027 65.8654C59.1309 65.7911 59.5 65.754 59.9102 65.754H60.6367V65.3439C60.6367 65.1407 60.6152 64.9611 60.5723 64.8048C60.5293 64.6486 60.459 64.5197 60.3613 64.4181C60.2676 64.3126 60.1445 64.2345 59.9922 64.1837C59.8398 64.129 59.6523 64.1017 59.4297 64.1017C59.1914 64.1017 58.9766 64.131 58.7852 64.1896C58.5977 64.2443 58.4316 64.3068 58.2871 64.3771C58.1465 64.4435 58.0273 64.506 57.9297 64.5646C57.8359 64.6193 57.7656 64.6466 57.7188 64.6466C57.6875 64.6466 57.6602 64.6388 57.6367 64.6232C57.6133 64.6075 57.5918 64.5841 57.5723 64.5529C57.5566 64.5216 57.5449 64.4825 57.5371 64.4357C57.5293 64.3849 57.5254 64.3302 57.5254 64.2716C57.5254 64.174 57.5312 64.0978 57.543 64.0431C57.5586 63.9845 57.5918 63.9298 57.6426 63.879C57.6973 63.8282 57.7891 63.7697 57.918 63.7032C58.0469 63.6329 58.1953 63.5704 58.3633 63.5157C58.5312 63.4572 58.7148 63.4103 58.9141 63.3751C59.1133 63.3361 59.3145 63.3165 59.5176 63.3165C59.8965 63.3165 60.2188 63.3595 60.4844 63.4454C60.75 63.5314 60.9648 63.6583 61.1289 63.8263C61.293 63.9904 61.4121 64.1954 61.4863 64.4415C61.5605 64.6876 61.5977 64.9747 61.5977 65.3029V68.8595ZM60.6367 66.4513H59.8105C59.5449 66.4513 59.3145 66.4747 59.1191 66.5216C58.9238 66.5646 58.7617 66.631 58.6328 66.7208C58.5039 66.8068 58.4082 66.9122 58.3457 67.0372C58.2871 67.1583 58.2578 67.299 58.2578 67.4591C58.2578 67.7325 58.3438 67.9513 58.5156 68.1154C58.6914 68.2755 58.9355 68.3556 59.248 68.3556C59.502 68.3556 59.7363 68.2911 59.9512 68.1622C60.1699 68.0333 60.3984 67.8361 60.6367 67.5704V66.4513ZM65.5586 69.0001L64.8555 70.9396C64.832 71.0021 64.7715 71.049 64.6738 71.0802C64.5801 71.1154 64.4355 71.1329 64.2402 71.1329C64.1387 71.1329 64.0566 71.1271 63.9941 71.1154C63.9316 71.1075 63.8828 71.0919 63.8477 71.0685C63.8164 71.045 63.7988 71.0138 63.7949 70.9747C63.791 70.9357 63.8008 70.8888 63.8242 70.8341L64.5508 69.0001C64.5156 68.9845 64.4824 68.9591 64.4512 68.924C64.4199 68.8888 64.3984 68.8517 64.3867 68.8126L62.5059 63.7736C62.4746 63.6915 62.459 63.6271 62.459 63.5802C62.459 63.5333 62.4746 63.4962 62.5059 63.4689C62.5371 63.4415 62.5879 63.424 62.6582 63.4161C62.7285 63.4044 62.8223 63.3986 62.9395 63.3986C63.0566 63.3986 63.1484 63.4025 63.2148 63.4103C63.2812 63.4142 63.334 63.424 63.373 63.4396C63.4121 63.4552 63.4395 63.4786 63.4551 63.5099C63.4746 63.5372 63.4941 63.5763 63.5137 63.6271L65.0195 67.8575H65.0371L66.4902 63.6036C66.5137 63.5294 66.541 63.4825 66.5723 63.463C66.6074 63.4396 66.6582 63.424 66.7246 63.4161C66.791 63.4044 66.8867 63.3986 67.0117 63.3986C67.1211 63.3986 67.2109 63.4044 67.2812 63.4161C67.3516 63.424 67.4023 63.4415 67.4336 63.4689C67.4688 63.4962 67.4863 63.5333 67.4863 63.5802C67.4863 63.6271 67.4746 63.6857 67.4512 63.756L65.5586 69.0001Z" fill="#090909"/>
<defs>
<clipPath id="clip0_18_8109">
<rect width="32" height="32" fill="white" transform="translate(24 10.0001)"/>
</clipPath>
</defs>
</svg>
