<svg width="80" height="80" viewBox="0 0 80 80" fill="none" xmlns="http://www.w3.org/2000/svg">
<circle cx="40" cy="26.0001" r="22" fill="#592266"/>
<path d="M46 19.0001H51.325C51.5242 18.9988 51.7192 19.0578 51.8843 19.1694C52.0494 19.2809 52.1769 19.4398 52.25 19.6251L54 24.0001" stroke="white" stroke-width="2.28571" stroke-linecap="round" stroke-linejoin="round"/>
<path d="M26 27.0021H46" stroke="white" stroke-width="2.28571" stroke-linecap="round" stroke-linejoin="round"/>
<path d="M47.5 36.0001C49.1569 36.0001 50.5 34.657 50.5 33.0001C50.5 31.3433 49.1569 30.0001 47.5 30.0001C45.8431 30.0001 44.5 31.3433 44.5 33.0001C44.5 34.657 45.8431 36.0001 47.5 36.0001Z" stroke="white" stroke-width="2.28571" stroke-miterlimit="10"/>
<path d="M32.5 36.0001C34.1569 36.0001 35.5 34.657 35.5 33.0001C35.5 31.3433 34.1569 30.0001 32.5 30.0001C30.8431 30.0001 29.5 31.3433 29.5 33.0001C29.5 34.657 30.8431 36.0001 32.5 36.0001Z" stroke="white" stroke-width="2.28571" stroke-miterlimit="10"/>
<path d="M44.5 33.0001H35.5" stroke="white" stroke-width="2.28571" stroke-linecap="round" stroke-linejoin="round"/>
<path d="M29.5 33.0001H27C26.7348 33.0001 26.4804 32.8948 26.2929 32.7072C26.1054 32.5197 26 32.2653 26 32.0001V18.0001C26 17.7349 26.1054 17.4806 26.2929 17.293C26.4804 17.1055 26.7348 17.0001 27 17.0001H46V30.4001" stroke="white" stroke-width="2.28571" stroke-linecap="round" stroke-linejoin="round"/>
<path d="M46 23.9982H54V31.9982C54 32.2634 53.8946 32.5177 53.7071 32.7053C53.5196 32.8928 53.2652 32.9982 53 32.9982H50.5" stroke="white" stroke-width="2.28571" stroke-linecap="round" stroke-linejoin="round"/>
<path d="M10.7617 65.7872C10.7617 68.049 11.7832 69.1798 13.8262 69.1798C15.8262 69.1798 16.8262 68.049 16.8262 65.7872C16.8262 63.5568 15.8262 62.4415 13.8262 62.4415C11.7832 62.4415 10.7617 63.5568 10.7617 65.7872ZM9.61914 65.8224C9.61914 62.9825 11.0215 61.5626 13.8262 61.5626C16.5879 61.5626 17.9688 62.9825 17.9688 65.8224C17.9688 68.6466 16.5879 70.0587 13.8262 70.0587C11.0215 70.0587 9.61914 68.6466 9.61914 65.8224ZM19.5566 70.0001V63.8478H20.2891L20.4824 64.6329C21.1113 64.1095 21.8027 63.8478 22.5566 63.8478C24.0918 63.8478 24.8594 64.6115 24.8594 66.1388V70.0001H23.7754V66.1212C23.7754 65.2072 23.3203 64.7501 22.4102 64.7501C21.7891 64.7501 21.1992 65.0099 20.6406 65.5294V70.0001H19.5566ZM29.5527 62.8517H30.2324L30.4668 63.8478H32.1309V64.7267H30.6367V68.2599C30.6367 68.8341 30.8848 69.1212 31.3809 69.1212H32.1309V70.0001H31.0996C30.0684 70.0001 29.5527 69.4474 29.5527 68.3419V62.8517ZM33.5137 70.0001V61.6212H34.5977V64.5157C35.1211 64.0704 35.7598 63.8478 36.5137 63.8478C38.0488 63.8478 38.8164 64.6115 38.8164 66.1388V70.0001H37.7324V66.1212C37.7324 65.2072 37.2773 64.7501 36.3672 64.7501C35.7461 64.7501 35.1562 65.0099 34.5977 65.5294V70.0001H33.5137ZM43.1172 63.8478C44.8672 63.8478 45.7422 64.713 45.7422 66.4435C45.7422 66.6896 45.7246 66.9532 45.6895 67.2345H41.3711C41.3711 68.4923 42.1055 69.1212 43.5742 69.1212C44.2734 69.1212 44.8945 69.0431 45.4375 68.8868V69.7657C44.8945 69.922 44.2344 70.0001 43.457 70.0001C41.3438 70.0001 40.2871 68.9513 40.2871 66.8536C40.2871 64.8497 41.2305 63.8478 43.1172 63.8478ZM41.3711 66.3322H44.6992C44.6758 65.254 44.1484 64.715 43.1172 64.715C42.0234 64.715 41.4414 65.254 41.3711 66.3322ZM49.457 63.8478H50.5527L51.6426 68.67L53.2422 63.8478H54.2207L55.9316 68.67L56.916 63.8478H58.0645L56.459 70.0001H55.4688L53.7051 65.4005L52.0293 70.0001H51.0156L49.457 63.8478ZM58.8613 68.1427C58.8613 66.881 59.6934 66.2501 61.3574 66.2501C61.8926 66.2501 62.4277 66.2892 62.9629 66.3673V65.7872C62.9629 65.0802 62.4102 64.7267 61.3047 64.7267C60.6719 64.7267 60.0234 64.8243 59.3594 65.0197V64.1407C60.0234 63.9454 60.6719 63.8478 61.3047 63.8478C63.1328 63.8478 64.0469 64.4845 64.0469 65.7579V70.0001H63.4375L63.0625 69.3907C62.4492 69.797 61.7812 70.0001 61.0586 70.0001C59.5938 70.0001 58.8613 69.381 58.8613 68.1427ZM61.3574 67.129C60.416 67.129 59.9453 67.4611 59.9453 68.1251C59.9453 68.7892 60.3164 69.1212 61.0586 69.1212C61.8086 69.1212 62.4434 68.922 62.9629 68.5236V67.2462C62.4277 67.1681 61.8926 67.129 61.3574 67.129ZM65.0781 63.8478H66.2559L67.9961 68.6525L69.7949 63.8478H70.9434L68.3887 70.1818C67.9355 71.299 67.2559 71.9962 66.3496 72.2736L65.9336 71.506C66.6211 71.2052 67.1211 70.715 67.4336 70.0353L65.0781 63.8478Z" fill="#383838"/>
</svg>
