<svg width="32" height="32" viewBox="0 0 32 32" fill="none" xmlns="http://www.w3.org/2000/svg">
<path fill-rule="evenodd" clip-rule="evenodd" d="M16.0003 11.666C16.7367 11.666 17.3337 12.263 17.3337 12.9993V17.9993C17.3337 18.7357 16.7367 19.3327 16.0003 19.3327C15.2639 19.3327 14.667 18.7357 14.667 17.9993V12.9993C14.667 12.263 15.2639 11.666 16.0003 11.666Z" fill="#F58520"/>
<path fill-rule="evenodd" clip-rule="evenodd" d="M14.3323 3.11409C14.8384 2.82059 15.4131 2.66602 15.9982 2.66602C16.5832 2.66602 17.1579 2.82059 17.6641 3.11409C18.1691 3.40698 18.5881 3.82785 18.8786 4.33424C18.8792 4.33529 18.8798 4.33635 18.8804 4.3374L29.8779 23.333C30.1699 23.8389 30.3239 24.4126 30.3245 24.9967C30.325 25.5809 30.172 26.1549 29.8808 26.6612C29.5896 27.1676 29.1705 27.5886 28.6654 27.882C28.1603 28.1754 27.587 28.3309 27.0029 28.333L26.9982 28.333H4.99816L4.99347 28.333C4.40934 28.3309 3.83601 28.1754 3.33092 27.882C2.82582 27.5886 2.40669 27.1676 2.11552 26.6612C1.82435 26.1549 1.67136 25.5809 1.67188 24.9967C1.67239 24.4126 1.8264 23.8389 2.11847 23.333L13.1159 4.3374C13.1165 4.33635 13.1171 4.3353 13.1177 4.33424C13.4083 3.82785 13.8272 3.40698 14.3323 3.11409ZM14.2732 4.99967L15.4271 5.66771L4.42786 24.6663C4.42776 24.6665 4.42796 24.6662 4.42786 24.6663C4.36964 24.7674 4.33865 24.8825 4.33854 24.9991C4.33844 25.1159 4.36904 25.2307 4.42727 25.332C4.48551 25.4333 4.56933 25.5175 4.67035 25.5761C4.77091 25.6346 4.88498 25.6656 5.00125 25.6663H26.9951C27.1114 25.6656 27.2254 25.6346 27.326 25.5761C27.427 25.5175 27.5108 25.4333 27.5691 25.332C27.6273 25.2307 27.6579 25.1159 27.6578 24.9991C27.6577 24.8825 27.627 24.768 27.5689 24.667C27.5687 24.6668 27.569 24.6672 27.5689 24.667L16.5659 5.66194C16.5087 5.5619 16.426 5.47877 16.3263 5.42095C16.2266 5.36313 16.1134 5.33268 15.9982 5.33268C15.8829 5.33268 15.7697 5.36313 15.67 5.42095C15.5703 5.47877 15.4876 5.5619 15.4304 5.66193L14.2732 4.99967Z" fill="#F58520"/>
<path d="M16 24C16.8284 24 17.5 23.3284 17.5 22.5C17.5 21.6716 16.8284 21 16 21C15.1716 21 14.5 21.6716 14.5 22.5C14.5 23.3284 15.1716 24 16 24Z" fill="#F58520"/>
</svg>
