<svg width="10" height="10" viewBox="0 0 10 10" fill="none" xmlns="http://www.w3.org/2000/svg">
<circle cx="5" cy="5" r="5" fill="#D61D33"/>
<path d="M1.91395 2.45246C1.75258 2.29113 1.74072 2.02879 1.90282 1.86821V1.86821V1.86821C2.06803 1.70455 2.33488 1.71774 2.49978 1.88171L8.12985 7.47995C8.28792 7.63713 8.3031 7.89234 8.14676 8.05123V8.05123V8.05123C7.97062 8.23025 7.68123 8.2185 7.50363 8.04094L1.91395 2.45246Z" fill="#FAFBFC"/>
<path d="M2.56999 8.02493C2.39882 8.19777 2.11828 8.21134 1.94924 8.03641V8.03641V8.03641C1.78649 7.86799 1.80329 7.5996 1.96934 7.43443L7.58274 1.85075C7.73986 1.69446 7.99382 1.68162 8.15243 1.83641V1.83641V1.83641C8.30851 1.98873 8.29937 2.23959 8.14591 2.39454L2.56999 8.02493Z" fill="#FAFBFC"/>
</svg>
