<svg width="60" height="60" viewBox="0 0 60 60" fill="none" xmlns="http://www.w3.org/2000/svg">
<path d="M30 60C46.5685 60 60 46.5685 60 30C60 13.4315 46.5685 0 30 0C13.4315 0 0 13.4315 0 30C0 46.5685 13.4315 60 30 60Z" fill="#F3F3F3"/>
<path d="M45.2743 14.0805H45.1943V14.0405L45.2743 14.0805Z" fill="#FBFBFB"/>
<path d="M10.8105 19.052L42.2239 12.9853C44.3572 12.572 46.3439 14.212 46.3439 16.3853V19.052H10.8105Z" fill="#412B71"/>
<path d="M40.3871 7.34397L13.7859 12.2694L16.7572 28.3166L43.3584 23.3912L40.3871 7.34397Z" fill="#FBFBFB"/>
<path d="M40.3871 7.34397L13.7859 12.2694L16.7572 28.3166L43.3584 23.3912L40.3871 7.34397Z" fill="#7FC258"/>
<path d="M28.8678 21.225C30.9518 21.225 32.6411 19.5356 32.6411 17.4517C32.6411 15.3677 30.9518 13.6783 28.8678 13.6783C26.7839 13.6783 25.0945 15.3677 25.0945 17.4517C25.0945 19.5356 26.7839 21.225 28.8678 21.225Z" fill="#FBFBFB"/>
<path d="M37.9575 17.2518C38.6792 17.2518 39.2642 16.6667 39.2642 15.9451C39.2642 15.2234 38.6792 14.6384 37.9575 14.6384C37.2359 14.6384 36.6509 15.2234 36.6509 15.9451C36.6509 16.6667 37.2359 17.2518 37.9575 17.2518Z" fill="#FBFBFB"/>
<path d="M19.1968 19.9976C19.9185 19.9976 20.5035 19.4126 20.5035 18.6909C20.5035 17.9693 19.9185 17.3843 19.1968 17.3843C18.4752 17.3843 17.8901 17.9693 17.8901 18.6909C17.8901 19.4126 18.4752 19.9976 19.1968 19.9976Z" fill="#FBFBFB"/>
<path d="M29.293 17.0775L28.4663 17.0375C28.213 17.0241 28.0263 16.8508 27.973 16.6108C27.9197 16.3175 28.1197 16.0375 28.3997 15.9841L28.773 15.9175C29.0397 15.8641 29.293 16.0375 29.3463 16.3041C29.3863 16.5175 29.5863 16.6508 29.7997 16.6108C30.013 16.5708 30.1463 16.3708 30.1063 16.1575C29.9863 15.5308 29.4263 15.1041 28.7997 15.1441L28.773 14.9841C28.733 14.7708 28.533 14.6375 28.3197 14.6775C28.1063 14.7175 27.973 14.9175 28.013 15.1308L28.0397 15.3041C27.453 15.5175 27.0797 16.1308 27.1997 16.7708C27.3063 17.3575 27.813 17.7842 28.413 17.8375L29.2397 17.8775C29.493 17.8908 29.6797 18.0641 29.733 18.3041C29.7863 18.5975 29.5863 18.8775 29.3063 18.9308L28.933 18.9975C28.6663 19.0508 28.413 18.8775 28.3597 18.6108C28.3197 18.3975 28.1197 18.2641 27.9063 18.3041C27.693 18.3441 27.5597 18.5441 27.5997 18.7575C27.7197 19.3842 28.2797 19.8108 28.9063 19.7708L28.933 19.9308C28.973 20.1442 29.173 20.2775 29.3863 20.2375C29.5997 20.1975 29.733 19.9975 29.693 19.7842L29.6663 19.6108C30.253 19.3975 30.6263 18.7842 30.5063 18.1441C30.3863 17.5041 29.893 17.1175 29.293 17.0775Z" fill="#69AC43"/>
<path d="M39.0835 9.09304L15.7861 13.4067L18.2185 26.5434L41.5158 22.2297L39.0835 9.09304Z" stroke="#FBFBFB" stroke-width="0.666667" stroke-miterlimit="10"/>
<path d="M46.6095 19.6129H11.6495C10.4787 19.6129 9.52954 20.5621 9.52954 21.7329V42.6529C9.52954 43.8238 10.4787 44.7729 11.6495 44.7729H46.6095C47.7804 44.7729 48.7295 43.8238 48.7295 42.6529V21.7329C48.7295 20.5621 47.7804 19.6129 46.6095 19.6129Z" fill="#FBFBFB"/>
<g opacity="0.1">
<path d="M48.6122 19.7987H46.3589V44.572H48.6122V19.7987Z" fill="#765BA7"/>
</g>
<path d="M46.6095 19.6129H11.6495C10.4787 19.6129 9.52954 20.5621 9.52954 21.7329V42.6529C9.52954 43.8238 10.4787 44.7729 11.6495 44.7729H46.6095C47.7804 44.7729 48.7295 43.8238 48.7295 42.6529V21.7329C48.7295 20.5621 47.7804 19.6129 46.6095 19.6129Z" stroke="#765BA7" stroke-width="1.33333" stroke-miterlimit="10"/>
<path d="M38.9571 27.1989H50.4771V36.0922H38.9571C36.5837 36.0922 34.6504 34.1589 34.6504 31.7855V31.4922C34.6504 29.1189 36.5837 27.1855 38.9571 27.1855V27.1989Z" fill="#765BA7"/>
<path d="M49.384 26.7714L50.464 27.198H49.384V26.7714Z" fill="#412B71"/>
<path d="M50.464 36.0918L49.384 36.4385V36.0918H50.464Z" fill="#412B71"/>
<path d="M39.6781 33.4121C40.6575 33.4121 41.4515 32.6182 41.4515 31.6388C41.4515 30.6594 40.6575 29.8655 39.6781 29.8655C38.6987 29.8655 37.9048 30.6594 37.9048 31.6388C37.9048 32.6182 38.6987 33.4121 39.6781 33.4121Z" fill="#FBFBFB"/>
<path opacity="0.25" d="M41.4493 31.6382C41.4493 32.5848 40.6893 33.3715 39.7427 33.3982C40.396 33.0915 40.8493 32.4248 40.8493 31.6382C40.8493 30.8515 40.396 30.1848 39.7427 29.8782C40.6893 29.9048 41.4493 30.6915 41.4493 31.6382Z" fill="#765BA7"/>
<path d="M13.7859 23.5594V24.2261" stroke="#765BA7" stroke-width="0.333333" stroke-linecap="round" stroke-linejoin="round"/>
<path d="M13.7859 25.6663V39.4263" stroke="#765BA7" stroke-width="0.333333" stroke-linecap="round" stroke-linejoin="round"/>
<path d="M13.7859 40.1467V40.8134" stroke="#765BA7" stroke-width="0.333333" stroke-linecap="round" stroke-linejoin="round"/>
</svg>
