<svg width="60" height="60" viewBox="0 0 60 60" fill="none" xmlns="http://www.w3.org/2000/svg">
<rect width="60" height="60" rx="12" fill="url(#paint0_linear_360_4057)"/>
<path d="M17.8906 14H11.4906V28H15.4506V24.34H17.8906C21.7106 24.34 24.1106 22.36 24.1106 19.18C24.1106 15.98 21.7106 14 17.8906 14ZM17.6506 21.22H15.4506V17.12H17.6506C19.2906 17.12 20.1106 17.88 20.1106 19.18C20.1106 20.46 19.2906 21.22 17.6506 21.22ZM30.6838 16.98C28.9838 16.98 27.1438 17.42 25.9038 18.24L27.1838 20.82C27.9238 20.24 29.0838 19.88 30.1238 19.88C31.6238 19.88 32.3638 20.5 32.4238 21.6H30.2638C26.9038 21.6 25.4438 22.84 25.4438 24.84C25.4438 26.72 26.8838 28.18 29.4838 28.18C31.0638 28.18 32.1438 27.64 32.6838 26.6V28H36.2238V21.98C36.2238 18.54 34.2038 16.98 30.6838 16.98ZM30.5438 25.78C29.6438 25.78 29.1238 25.32 29.1238 24.68C29.1238 24.02 29.5638 23.58 30.7838 23.58H32.4238V24.52C32.1238 25.38 31.3838 25.78 30.5438 25.78ZM46.527 17.16L43.847 23.78L41.187 17.16H37.287L41.927 28.14C41.607 28.78 41.187 29.06 40.447 29.06C39.847 29.06 39.207 28.82 38.767 28.42L37.447 31.08C38.167 31.68 39.447 32.06 40.587 32.06C42.727 32.06 44.327 31.24 45.467 28.44L50.147 17.16H46.527ZM26.2745 42.54C25.5745 42.86 24.8745 43 24.1345 43C21.7745 43 20.1745 41.36 20.1745 39C20.1745 36.58 21.7745 35 24.1745 35C25.5145 35 26.6145 35.5 27.5745 36.56L30.0945 34.28C28.7145 32.62 26.5945 31.72 23.9745 31.72C19.4345 31.72 16.1745 34.74 16.1745 39C16.1745 43.26 19.4345 46.28 23.8945 46.28C25.9345 46.28 28.1545 45.66 29.7745 44.5V38.7H26.2745V42.54ZM37.8452 46.18C41.4252 46.18 43.9652 43.84 43.9652 40.56C43.9652 37.3 41.4252 34.98 37.8452 34.98C34.3052 34.98 31.7252 37.3 31.7252 40.56C31.7252 43.84 34.3052 46.18 37.8452 46.18ZM37.8452 43.16C36.5652 43.16 35.5652 42.22 35.5652 40.56C35.5652 38.92 36.5652 38 37.8452 38C39.1452 38 40.1252 38.92 40.1252 40.56C40.1252 42.22 39.1452 43.16 37.8452 43.16Z" fill="white"/>
<defs>
<linearGradient id="paint0_linear_360_4057" x1="30" y1="0" x2="30" y2="60" gradientUnits="userSpaceOnUse">
<stop stop-color="#005895"/>
<stop offset="1" stop-color="#412B71"/>
</linearGradient>
</defs>
</svg>
