<svg width="40" height="24" viewBox="0 0 40 24" fill="none" xmlns="http://www.w3.org/2000/svg">
<g clip-path="url(#clip0_160_23405)">
<rect width="40" height="24" rx="2.02154" fill="url(#paint0_linear_160_23405)"/>
<ellipse cx="15.7576" cy="19.987" rx="15.7576" ry="15.6559" fill="#DAD0DC" fill-opacity="0.1"/>
<g filter="url(#filter0_d_160_23405)">
<path d="M4.1341 15.115L4.06294 15.2363L3.78316 15.0746C3.76375 15.0627 3.7465 15.0508 3.73141 15.039C3.71632 15.0271 3.70284 15.012 3.69098 14.9937C3.70823 15.0293 3.71686 15.0686 3.71686 15.1118V15.432H3.57454V15.1134C3.57454 15.0918 3.57562 15.0719 3.57777 15.0535C3.58101 15.0352 3.58694 15.0174 3.59556 15.0002C3.5837 15.0153 3.57077 15.0287 3.55675 15.0406C3.54273 15.0525 3.52656 15.0638 3.50823 15.0746L3.23007 15.2347L3.15891 15.1134L3.43707 14.9516C3.47804 14.9269 3.51901 14.9139 3.55998 14.9128C3.53842 14.9107 3.5174 14.9069 3.49691 14.9015C3.47751 14.895 3.45756 14.8853 3.43707 14.8724L3.15729 14.7091L3.22845 14.5878L3.50823 14.7495C3.52764 14.7614 3.54489 14.7738 3.55998 14.7867C3.57508 14.7996 3.58855 14.8153 3.60041 14.8336C3.58316 14.7959 3.57454 14.7554 3.57454 14.7123V14.3921H3.71686V14.7107C3.71686 14.7322 3.71524 14.7527 3.712 14.7721C3.70985 14.7905 3.70446 14.8083 3.69583 14.8255C3.70769 14.8104 3.72063 14.7969 3.73464 14.7851C3.74866 14.7732 3.76483 14.7614 3.78316 14.7495L4.06133 14.5894L4.13248 14.7107L3.85432 14.8724C3.83599 14.8843 3.81766 14.8934 3.79933 14.8999C3.78101 14.9064 3.7616 14.9107 3.74111 14.9128C3.7616 14.915 3.78101 14.9193 3.79933 14.9258C3.81766 14.9312 3.83599 14.9398 3.85432 14.9516L4.1341 15.115ZM5.50812 15.115L5.43696 15.2363L5.15718 15.0746C5.13777 15.0627 5.12052 15.0508 5.10542 15.039C5.09033 15.0271 5.07685 15.012 5.06499 14.9937C5.08224 15.0293 5.09087 15.0686 5.09087 15.1118V15.432H4.94855V15.1134C4.94855 15.0918 4.94963 15.0719 4.95179 15.0535C4.95502 15.0352 4.96095 15.0174 4.96958 15.0002C4.95772 15.0153 4.94478 15.0287 4.93076 15.0406C4.91675 15.0525 4.90058 15.0638 4.88225 15.0746L4.60408 15.2347L4.53293 15.1134L4.81109 14.9516C4.85206 14.9269 4.89303 14.9139 4.934 14.9128C4.91244 14.9107 4.89141 14.9069 4.87093 14.9015C4.85152 14.895 4.83157 14.8853 4.81109 14.8724L4.53131 14.7091L4.60247 14.5878L4.88225 14.7495C4.90165 14.7614 4.9189 14.7738 4.934 14.7867C4.94909 14.7996 4.96257 14.8153 4.97443 14.8336C4.95718 14.7959 4.94855 14.7554 4.94855 14.7123V14.3921H5.09087V14.7107C5.09087 14.7322 5.08925 14.7527 5.08602 14.7721C5.08386 14.7905 5.07847 14.8083 5.06985 14.8255C5.08171 14.8104 5.09464 14.7969 5.10866 14.7851C5.12268 14.7732 5.13885 14.7614 5.15718 14.7495L5.43534 14.5894L5.5065 14.7107L5.22833 14.8724C5.21001 14.8843 5.19168 14.8934 5.17335 14.8999C5.15502 14.9064 5.13561 14.9107 5.11513 14.9128C5.13561 14.915 5.15502 14.9193 5.17335 14.9258C5.19168 14.9312 5.21001 14.9398 5.22833 14.9516L5.50812 15.115ZM6.88213 15.115L6.81097 15.2363L6.53119 15.0746C6.51178 15.0627 6.49453 15.0508 6.47944 15.039C6.46434 15.0271 6.45087 15.012 6.43901 14.9937C6.45626 15.0293 6.46488 15.0686 6.46488 15.1118V15.432H6.32257V15.1134C6.32257 15.0918 6.32365 15.0719 6.3258 15.0535C6.32904 15.0352 6.33497 15.0174 6.34359 15.0002C6.33173 15.0153 6.31879 15.0287 6.30478 15.0406C6.29076 15.0525 6.27459 15.0638 6.25626 15.0746L5.9781 15.2347L5.90694 15.1134L6.1851 14.9516C6.22607 14.9269 6.26704 14.9139 6.30801 14.9128C6.28645 14.9107 6.26543 14.9069 6.24494 14.9015C6.22553 14.895 6.20559 14.8853 6.1851 14.8724L5.90532 14.7091L5.97648 14.5878L6.25626 14.7495C6.27567 14.7614 6.29292 14.7738 6.30801 14.7867C6.32311 14.7996 6.33658 14.8153 6.34844 14.8336C6.33119 14.7959 6.32257 14.7554 6.32257 14.7123V14.3921H6.46488V14.7107C6.46488 14.7322 6.46327 14.7527 6.46003 14.7721C6.45788 14.7905 6.45249 14.8083 6.44386 14.8255C6.45572 14.8104 6.46866 14.7969 6.48267 14.7851C6.49669 14.7732 6.51286 14.7614 6.53119 14.7495L6.80935 14.5894L6.88051 14.7107L6.60235 14.8724C6.58402 14.8843 6.56569 14.8934 6.54736 14.8999C6.52903 14.9064 6.50963 14.9107 6.48914 14.9128C6.50963 14.915 6.52903 14.9193 6.54736 14.9258C6.56569 14.9312 6.58402 14.9398 6.60235 14.9516L6.88213 15.115ZM8.25614 15.115L8.18499 15.2363L7.9052 15.0746C7.8858 15.0627 7.86855 15.0508 7.85345 15.039C7.83836 15.0271 7.82488 15.012 7.81302 14.9937C7.83027 15.0293 7.8389 15.0686 7.8389 15.1118V15.432H7.69658V15.1134C7.69658 15.0918 7.69766 15.0719 7.69982 15.0535C7.70305 15.0352 7.70898 15.0174 7.71761 15.0002C7.70575 15.0153 7.69281 15.0287 7.67879 15.0406C7.66478 15.0525 7.6486 15.0638 7.63028 15.0746L7.35211 15.2347L7.28095 15.1134L7.55912 14.9516C7.60009 14.9269 7.64106 14.9139 7.68203 14.9128C7.66046 14.9107 7.63944 14.9069 7.61896 14.9015C7.59955 14.895 7.5796 14.8853 7.55912 14.8724L7.27934 14.7091L7.35049 14.5878L7.63028 14.7495C7.64968 14.7614 7.66693 14.7738 7.68203 14.7867C7.69712 14.7996 7.7106 14.8153 7.72246 14.8336C7.70521 14.7959 7.69658 14.7554 7.69658 14.7123V14.3921H7.8389V14.7107C7.8389 14.7322 7.83728 14.7527 7.83405 14.7721C7.83189 14.7905 7.8265 14.8083 7.81787 14.8255C7.82973 14.8104 7.84267 14.7969 7.85669 14.7851C7.8707 14.7732 7.88688 14.7614 7.9052 14.7495L8.18337 14.5894L8.25453 14.7107L7.97636 14.8724C7.95803 14.8843 7.93971 14.8934 7.92138 14.8999C7.90305 14.9064 7.88364 14.9107 7.86316 14.9128C7.88364 14.915 7.90305 14.9193 7.92138 14.9258C7.93971 14.9312 7.95803 14.9398 7.97636 14.9516L8.25614 15.115ZM10.4577 15.115L10.3866 15.2363L10.1068 15.0746C10.0874 15.0627 10.0701 15.0508 10.055 15.039C10.0399 15.0271 10.0265 15.012 10.0146 14.9937C10.0319 15.0293 10.0405 15.0686 10.0405 15.1118V15.432H9.89816V15.1134C9.89816 15.0918 9.89924 15.0719 9.9014 15.0535C9.90463 15.0352 9.91056 15.0174 9.91919 15.0002C9.90733 15.0153 9.89439 15.0287 9.88037 15.0406C9.86636 15.0525 9.85019 15.0638 9.83186 15.0746L9.55369 15.2347L9.48254 15.1134L9.7607 14.9516C9.80167 14.9269 9.84264 14.9139 9.88361 14.9128C9.86205 14.9107 9.84102 14.9069 9.82054 14.9015C9.80113 14.895 9.78118 14.8853 9.7607 14.8724L9.48092 14.7091L9.55208 14.5878L9.83186 14.7495C9.85126 14.7614 9.86851 14.7738 9.88361 14.7867C9.8987 14.7996 9.91218 14.8153 9.92404 14.8336C9.90679 14.7959 9.89816 14.7554 9.89816 14.7123V14.3921H10.0405V14.7107C10.0405 14.7322 10.0389 14.7527 10.0356 14.7721C10.0335 14.7905 10.0281 14.8083 10.0195 14.8255C10.0313 14.8104 10.0443 14.7969 10.0583 14.7851C10.0723 14.7732 10.0885 14.7614 10.1068 14.7495L10.385 14.5894L10.4561 14.7107L10.1779 14.8724C10.1596 14.8843 10.1413 14.8934 10.123 14.8999C10.1046 14.9064 10.0852 14.9107 10.0647 14.9128C10.0852 14.915 10.1046 14.9193 10.123 14.9258C10.1413 14.9312 10.1596 14.9398 10.1779 14.9516L10.4577 15.115ZM11.8317 15.115L11.7606 15.2363L11.4808 15.0746C11.4614 15.0627 11.4441 15.0508 11.429 15.039C11.414 15.0271 11.4005 15.012 11.3886 14.9937C11.4059 15.0293 11.4145 15.0686 11.4145 15.1118V15.432H11.2722V15.1134C11.2722 15.0918 11.2733 15.0719 11.2754 15.0535C11.2786 15.0352 11.2846 15.0174 11.2932 15.0002C11.2813 15.0153 11.2684 15.0287 11.2544 15.0406C11.2404 15.0525 11.2242 15.0638 11.2059 15.0746L10.9277 15.2347L10.8566 15.1134L11.1347 14.9516C11.1757 14.9269 11.2167 14.9139 11.2576 14.9128C11.2361 14.9107 11.215 14.9069 11.1946 14.9015C11.1751 14.895 11.1552 14.8853 11.1347 14.8724L10.8549 14.7091L10.9261 14.5878L11.2059 14.7495C11.2253 14.7614 11.2425 14.7738 11.2576 14.7867C11.2727 14.7996 11.2862 14.8153 11.2981 14.8336C11.2808 14.7959 11.2722 14.7554 11.2722 14.7123V14.3921H11.4145V14.7107C11.4145 14.7322 11.4129 14.7527 11.4096 14.7721C11.4075 14.7905 11.4021 14.8083 11.3935 14.8255C11.4053 14.8104 11.4183 14.7969 11.4323 14.7851C11.4463 14.7732 11.4625 14.7614 11.4808 14.7495L11.759 14.5894L11.8301 14.7107L11.552 14.8724C11.5336 14.8843 11.5153 14.8934 11.497 14.8999C11.4786 14.9064 11.4592 14.9107 11.4388 14.9128C11.4592 14.915 11.4786 14.9193 11.497 14.9258C11.5153 14.9312 11.5336 14.9398 11.552 14.9516L11.8317 15.115ZM13.2058 15.115L13.1346 15.2363L12.8548 15.0746C12.8354 15.0627 12.8182 15.0508 12.8031 15.039C12.788 15.0271 12.7745 15.012 12.7626 14.9937C12.7799 15.0293 12.7885 15.0686 12.7885 15.1118V15.432H12.6462V15.1134C12.6462 15.0918 12.6473 15.0719 12.6494 15.0535C12.6527 15.0352 12.6586 15.0174 12.6672 15.0002C12.6554 15.0153 12.6424 15.0287 12.6284 15.0406C12.6144 15.0525 12.5982 15.0638 12.5799 15.0746L12.3017 15.2347L12.2306 15.1134L12.5087 14.9516C12.5497 14.9269 12.5907 14.9139 12.6316 14.9128C12.6101 14.9107 12.5891 14.9069 12.5686 14.9015C12.5492 14.895 12.5292 14.8853 12.5087 14.8724L12.2289 14.7091L12.3001 14.5878L12.5799 14.7495C12.5993 14.7614 12.6165 14.7738 12.6316 14.7867C12.6467 14.7996 12.6602 14.8153 12.6721 14.8336C12.6548 14.7959 12.6462 14.7554 12.6462 14.7123V14.3921H12.7885V14.7107C12.7885 14.7322 12.7869 14.7527 12.7837 14.7721C12.7815 14.7905 12.7761 14.8083 12.7675 14.8255C12.7793 14.8104 12.7923 14.7969 12.8063 14.7851C12.8203 14.7732 12.8365 14.7614 12.8548 14.7495L13.133 14.5894L13.2041 14.7107L12.926 14.8724C12.9076 14.8843 12.8893 14.8934 12.871 14.8999C12.8527 14.9064 12.8333 14.9107 12.8128 14.9128C12.8333 14.915 12.8527 14.9193 12.871 14.9258C12.8893 14.9312 12.9076 14.9398 12.926 14.9516L13.2058 15.115ZM14.5798 15.115L14.5086 15.2363L14.2288 15.0746C14.2094 15.0627 14.1922 15.0508 14.1771 15.039C14.162 15.0271 14.1485 15.012 14.1366 14.9937C14.1539 15.0293 14.1625 15.0686 14.1625 15.1118V15.432H14.0202V15.1134C14.0202 15.0918 14.0213 15.0719 14.0234 15.0535C14.0267 15.0352 14.0326 15.0174 14.0412 15.0002C14.0294 15.0153 14.0164 15.0287 14.0024 15.0406C13.9884 15.0525 13.9722 15.0638 13.9539 15.0746L13.6757 15.2347L13.6046 15.1134L13.8827 14.9516C13.9237 14.9269 13.9647 14.9139 14.0057 14.9128C13.9841 14.9107 13.9631 14.9069 13.9426 14.9015C13.9232 14.895 13.9032 14.8853 13.8827 14.8724L13.603 14.7091L13.6741 14.5878L13.9539 14.7495C13.9733 14.7614 13.9906 14.7738 14.0057 14.7867C14.0207 14.7996 14.0342 14.8153 14.0461 14.8336C14.0288 14.7959 14.0202 14.7554 14.0202 14.7123V14.3921H14.1625V14.7107C14.1625 14.7322 14.1609 14.7527 14.1577 14.7721C14.1555 14.7905 14.1501 14.8083 14.1415 14.8255C14.1534 14.8104 14.1663 14.7969 14.1803 14.7851C14.1943 14.7732 14.2105 14.7614 14.2288 14.7495L14.507 14.5894L14.5782 14.7107L14.3 14.8724C14.2817 14.8843 14.2633 14.8934 14.245 14.8999C14.2267 14.9064 14.2073 14.9107 14.1868 14.9128C14.2073 14.915 14.2267 14.9193 14.245 14.9258C14.2633 14.9312 14.2817 14.9398 14.3 14.9516L14.5798 15.115ZM16.7814 15.115L16.7102 15.2363L16.4304 15.0746C16.411 15.0627 16.3938 15.0508 16.3787 15.039C16.3636 15.0271 16.3501 15.012 16.3382 14.9937C16.3555 15.0293 16.3641 15.0686 16.3641 15.1118V15.432H16.2218V15.1134C16.2218 15.0918 16.2229 15.0719 16.225 15.0535C16.2283 15.0352 16.2342 15.0174 16.2428 15.0002C16.231 15.0153 16.218 15.0287 16.204 15.0406C16.19 15.0525 16.1738 15.0638 16.1555 15.0746L15.8773 15.2347L15.8062 15.1134L16.0843 14.9516C16.1253 14.9269 16.1663 14.9139 16.2072 14.9128C16.1857 14.9107 16.1646 14.9069 16.1442 14.9015C16.1248 14.895 16.1048 14.8853 16.0843 14.8724L15.8045 14.7091L15.8757 14.5878L16.1555 14.7495C16.1749 14.7614 16.1921 14.7738 16.2072 14.7867C16.2223 14.7996 16.2358 14.8153 16.2477 14.8336C16.2304 14.7959 16.2218 14.7554 16.2218 14.7123V14.3921H16.3641V14.7107C16.3641 14.7322 16.3625 14.7527 16.3593 14.7721C16.3571 14.7905 16.3517 14.8083 16.3431 14.8255C16.3549 14.8104 16.3679 14.7969 16.3819 14.7851C16.3959 14.7732 16.4121 14.7614 16.4304 14.7495L16.7086 14.5894L16.7797 14.7107L16.5016 14.8724C16.4832 14.8843 16.4649 14.8934 16.4466 14.8999C16.4283 14.9064 16.4088 14.9107 16.3884 14.9128C16.4088 14.915 16.4283 14.9193 16.4466 14.9258C16.4649 14.9312 16.4832 14.9398 16.5016 14.9516L16.7814 15.115ZM18.1554 15.115L18.0842 15.2363L17.8044 15.0746C17.785 15.0627 17.7678 15.0508 17.7527 15.039C17.7376 15.0271 17.7241 15.012 17.7122 14.9937C17.7295 15.0293 17.7381 15.0686 17.7381 15.1118V15.432H17.5958V15.1134C17.5958 15.0918 17.5969 15.0719 17.599 15.0535C17.6023 15.0352 17.6082 15.0174 17.6168 15.0002C17.605 15.0153 17.592 15.0287 17.578 15.0406C17.564 15.0525 17.5478 15.0638 17.5295 15.0746L17.2513 15.2347L17.1802 15.1134L17.4583 14.9516C17.4993 14.9269 17.5403 14.9139 17.5812 14.9128C17.5597 14.9107 17.5387 14.9069 17.5182 14.9015C17.4988 14.895 17.4788 14.8853 17.4583 14.8724L17.1786 14.7091L17.2497 14.5878L17.5295 14.7495C17.5489 14.7614 17.5662 14.7738 17.5812 14.7867C17.5963 14.7996 17.6098 14.8153 17.6217 14.8336C17.6044 14.7959 17.5958 14.7554 17.5958 14.7123V14.3921H17.7381V14.7107C17.7381 14.7322 17.7365 14.7527 17.7333 14.7721C17.7311 14.7905 17.7257 14.8083 17.7171 14.8255C17.729 14.8104 17.7419 14.7969 17.7559 14.7851C17.7699 14.7732 17.7861 14.7614 17.8044 14.7495L18.0826 14.5894L18.1537 14.7107L17.8756 14.8724C17.8573 14.8843 17.8389 14.8934 17.8206 14.8999C17.8023 14.9064 17.7829 14.9107 17.7624 14.9128C17.7829 14.915 17.8023 14.9193 17.8206 14.9258C17.8389 14.9312 17.8573 14.9398 17.8756 14.9516L18.1554 15.115ZM19.5294 15.115L19.4582 15.2363L19.1784 15.0746C19.159 15.0627 19.1418 15.0508 19.1267 15.039C19.1116 15.0271 19.0981 15.012 19.0863 14.9937C19.1035 15.0293 19.1121 15.0686 19.1121 15.1118V15.432H18.9698V15.1134C18.9698 15.0918 18.9709 15.0719 18.9731 15.0535C18.9763 15.0352 18.9822 15.0174 18.9908 15.0002C18.979 15.0153 18.966 15.0287 18.952 15.0406C18.938 15.0525 18.9218 15.0638 18.9035 15.0746L18.6253 15.2347L18.5542 15.1134L18.8324 14.9516C18.8733 14.9269 18.9143 14.9139 18.9553 14.9128C18.9337 14.9107 18.9127 14.9069 18.8922 14.9015C18.8728 14.895 18.8528 14.8853 18.8324 14.8724L18.5526 14.7091L18.6237 14.5878L18.9035 14.7495C18.9229 14.7614 18.9402 14.7738 18.9553 14.7867C18.9704 14.7996 18.9838 14.8153 18.9957 14.8336C18.9784 14.7959 18.9698 14.7554 18.9698 14.7123V14.3921H19.1121V14.7107C19.1121 14.7322 19.1105 14.7527 19.1073 14.7721C19.1051 14.7905 19.0997 14.8083 19.0911 14.8255C19.103 14.8104 19.1159 14.7969 19.1299 14.7851C19.1439 14.7732 19.1601 14.7614 19.1784 14.7495L19.4566 14.5894L19.5278 14.7107L19.2496 14.8724C19.2313 14.8843 19.2129 14.8934 19.1946 14.8999C19.1763 14.9064 19.1569 14.9107 19.1364 14.9128C19.1569 14.915 19.1763 14.9193 19.1946 14.9258C19.2129 14.9312 19.2313 14.9398 19.2496 14.9516L19.5294 15.115ZM20.9034 15.115L20.8322 15.2363L20.5525 15.0746C20.533 15.0627 20.5158 15.0508 20.5007 15.039C20.4856 15.0271 20.4721 15.012 20.4603 14.9937C20.4775 15.0293 20.4861 15.0686 20.4861 15.1118V15.432H20.3438V15.1134C20.3438 15.0918 20.3449 15.0719 20.3471 15.0535C20.3503 15.0352 20.3562 15.0174 20.3649 15.0002C20.353 15.0153 20.3401 15.0287 20.326 15.0406C20.312 15.0525 20.2959 15.0638 20.2775 15.0746L19.9994 15.2347L19.9282 15.1134L20.2064 14.9516C20.2473 14.9269 20.2883 14.9139 20.3293 14.9128C20.3077 14.9107 20.2867 14.9069 20.2662 14.9015C20.2468 14.895 20.2269 14.8853 20.2064 14.8724L19.9266 14.7091L19.9977 14.5878L20.2775 14.7495C20.2969 14.7614 20.3142 14.7738 20.3293 14.7867C20.3444 14.7996 20.3578 14.8153 20.3697 14.8336C20.3525 14.7959 20.3438 14.7554 20.3438 14.7123V14.3921H20.4861V14.7107C20.4861 14.7322 20.4845 14.7527 20.4813 14.7721C20.4791 14.7905 20.4737 14.8083 20.4651 14.8255C20.477 14.8104 20.4899 14.7969 20.5039 14.7851C20.518 14.7732 20.5341 14.7614 20.5525 14.7495L20.8306 14.5894L20.9018 14.7107L20.6236 14.8724C20.6053 14.8843 20.587 14.8934 20.5686 14.8999C20.5503 14.9064 20.5309 14.9107 20.5104 14.9128C20.5309 14.915 20.5503 14.9193 20.5686 14.9258C20.587 14.9312 20.6053 14.9398 20.6236 14.9516L20.9034 15.115ZM23.5756 16.6077V16.8276H22.3336V16.6077H22.83V15.0277C22.83 14.9802 22.8317 14.9322 22.8349 14.8837L22.4225 15.2379C22.4085 15.2498 22.3945 15.2573 22.3805 15.2605C22.3664 15.2627 22.3535 15.2627 22.3416 15.2605C22.3298 15.2584 22.3185 15.2541 22.3077 15.2476C22.298 15.2411 22.2904 15.2341 22.285 15.2266L22.1945 15.1021L22.885 14.5053H23.1195V16.6077H23.5756ZM25.4017 16.5543C25.433 16.5543 25.4578 16.5635 25.4761 16.5818C25.4944 16.6001 25.5036 16.6239 25.5036 16.653V16.8276H23.9575V16.729C23.9575 16.7085 23.9618 16.6875 23.9704 16.6659C23.9791 16.6444 23.9925 16.6244 24.0109 16.6061L24.7532 15.8605C24.8146 15.798 24.8707 15.7382 24.9214 15.681C24.9721 15.6228 25.0152 15.5646 25.0508 15.5064C25.0863 15.4481 25.1138 15.3894 25.1332 15.3301C25.1526 15.2697 25.1623 15.2056 25.1623 15.1376C25.1623 15.0697 25.1516 15.0104 25.13 14.9597C25.1084 14.908 25.0788 14.8654 25.0411 14.832C25.0044 14.7986 24.9607 14.7738 24.9101 14.7576C24.8594 14.7403 24.8049 14.7317 24.7467 14.7317C24.6874 14.7317 24.633 14.7403 24.5834 14.7576C24.5338 14.7748 24.4896 14.7991 24.4508 14.8304C24.413 14.8605 24.3812 14.8967 24.3553 14.9387C24.3295 14.9808 24.3111 15.0271 24.3004 15.0778C24.2874 15.1155 24.2696 15.1409 24.247 15.1538C24.2254 15.1657 24.1947 15.1689 24.1548 15.1635L24.0044 15.1376C24.0195 15.032 24.0486 14.9387 24.0917 14.8578C24.1359 14.7759 24.1909 14.7074 24.2567 14.6525C24.3235 14.5975 24.3996 14.556 24.4847 14.5279C24.5699 14.4988 24.6621 14.4843 24.7613 14.4843C24.8594 14.4843 24.951 14.4988 25.0362 14.5279C25.1214 14.557 25.1952 14.5996 25.2578 14.6557C25.3203 14.7107 25.3694 14.7781 25.4049 14.8578C25.4405 14.9376 25.4583 15.0282 25.4583 15.1295C25.4583 15.2158 25.4454 15.2961 25.4195 15.3705C25.3936 15.4438 25.3586 15.5139 25.3144 15.5808C25.2702 15.6476 25.2189 15.7128 25.1607 15.7764C25.1036 15.84 25.0427 15.9042 24.978 15.9689L24.3667 16.5931C24.4098 16.5813 24.4535 16.5721 24.4977 16.5656C24.5419 16.5581 24.5845 16.5543 24.6254 16.5543H25.4017ZM25.892 15.1376C25.9071 15.032 25.9362 14.9387 25.9793 14.8578C26.0224 14.7759 26.0769 14.7074 26.1426 14.6525C26.2095 14.5975 26.2855 14.556 26.3707 14.5279C26.4569 14.4988 26.5496 14.4843 26.6488 14.4843C26.7469 14.4843 26.8375 14.4983 26.9205 14.5263C27.0035 14.5543 27.0747 14.5942 27.134 14.646C27.1944 14.6977 27.2413 14.7603 27.2747 14.8336C27.3081 14.9069 27.3248 14.9883 27.3248 15.0778C27.3248 15.1511 27.3151 15.2169 27.2957 15.2751C27.2774 15.3322 27.2504 15.3824 27.2149 15.4255C27.1804 15.4686 27.1383 15.5053 27.0887 15.5355C27.0391 15.5657 26.9836 15.5905 26.9221 15.6099C27.0731 15.6487 27.1863 15.7155 27.2618 15.8104C27.3383 15.9042 27.3766 16.0217 27.3766 16.163C27.3766 16.2697 27.3561 16.3656 27.3151 16.4508C27.2752 16.536 27.2203 16.6088 27.1502 16.6691C27.0801 16.7284 26.9982 16.7743 26.9044 16.8066C26.8116 16.8379 26.7119 16.8535 26.6052 16.8535C26.4823 16.8535 26.3771 16.8384 26.2898 16.8082C26.2025 16.777 26.1286 16.7344 26.0682 16.6805C26.0079 16.6266 25.9583 16.5629 25.9195 16.4896C25.8806 16.4152 25.8478 16.3349 25.8208 16.2487L25.9453 16.1969C25.9777 16.1829 26.0089 16.1791 26.0391 16.1856C26.0704 16.1921 26.093 16.2099 26.1071 16.239C26.1211 16.2692 26.1383 16.3053 26.1588 16.3473C26.1804 16.3894 26.2095 16.4298 26.2461 16.4686C26.2828 16.5074 26.3292 16.5403 26.3852 16.5673C26.4424 16.5942 26.5146 16.6077 26.6019 16.6077C26.6828 16.6077 26.7534 16.5948 26.8138 16.5689C26.8752 16.5419 26.9259 16.5074 26.9658 16.4654C27.0068 16.4233 27.0375 16.3764 27.058 16.3247C27.0785 16.2729 27.0887 16.2217 27.0887 16.171C27.0887 16.1085 27.0806 16.0514 27.0645 15.9996C27.0483 15.9479 27.0181 15.9031 26.9739 15.8654C26.9297 15.8276 26.8688 15.798 26.7911 15.7764C26.7146 15.7549 26.6159 15.7441 26.4952 15.7441V15.5355C26.5944 15.5344 26.6785 15.5236 26.7475 15.5031C26.8176 15.4826 26.8742 15.4546 26.9173 15.419C26.9615 15.3834 26.9933 15.3409 27.0127 15.2913C27.0332 15.2417 27.0434 15.1867 27.0434 15.1263C27.0434 15.0595 27.0327 15.0012 27.0111 14.9516C26.9906 14.9021 26.962 14.8611 26.9254 14.8287C26.8887 14.7964 26.8451 14.7721 26.7944 14.756C26.7448 14.7398 26.6909 14.7317 26.6327 14.7317C26.5744 14.7317 26.52 14.7403 26.4693 14.7576C26.4197 14.7748 26.3755 14.7991 26.3367 14.8304C26.299 14.8605 26.2672 14.8967 26.2413 14.9387C26.2154 14.9808 26.1971 15.0271 26.1863 15.0778C26.1723 15.1155 26.1545 15.1409 26.1329 15.1538C26.1125 15.1657 26.0823 15.1689 26.0424 15.1635L25.892 15.1376ZM28.7385 15.9915V15.0357C28.7385 15.0077 28.7396 14.977 28.7418 14.9436C28.7439 14.9101 28.7472 14.8762 28.7515 14.8417L27.9073 15.9915H28.7385ZM29.3418 15.9915V16.1565C29.3418 16.1737 29.3364 16.1883 29.3256 16.2002C29.3159 16.212 29.3003 16.2179 29.2787 16.2179H28.9908V16.8276H28.7385V16.2179H27.71C27.6884 16.2179 27.6696 16.212 27.6534 16.2002C27.6383 16.1872 27.6286 16.1716 27.6243 16.1533L27.5952 16.0061L28.7224 14.5101H28.9908V15.9915H29.3418Z" fill="white"/>
</g>
<rect x="2.99646" y="8.02881" width="6.03597" height="4.01434" rx="0.512789" fill="url(#paint1_radial_160_23405)"/>
<path fill-rule="evenodd" clip-rule="evenodd" d="M6.01441 8.06885L5.34375 9.11793C5.34375 9.11793 5.61202 10.0359 5.34375 10.8227L6.01441 12.0029L6.68508 10.8227C6.68508 10.8227 6.41681 10.167 6.68508 9.11793C6.68508 9.11793 6.01441 8.06885 6.01441 8.06885Z" stroke="#C7C7B6" stroke-width="0.199175" stroke-linejoin="bevel"/>
<path d="M2.99609 9.16603H5.34342" stroke="#C7C7B6" stroke-width="0.199175" stroke-linejoin="bevel"/>
<path d="M6.61853 9.16603H9.03292" stroke="#C7C7B6" stroke-width="0.199175" stroke-linejoin="bevel"/>
<path d="M2.99609 10.772H5.34342" stroke="#C7C7B6" stroke-width="0.199175" stroke-linejoin="bevel"/>
<path d="M6.61853 10.772H9.03292" stroke="#C7C7B6" stroke-width="0.199175" stroke-linejoin="bevel"/>
<g filter="url(#filter1_d_160_23405)">
<path d="M33.0659 21.1432C33.0659 21.2445 33.0548 21.3324 33.0327 21.4068C33.0112 21.4807 32.9815 21.5418 32.9438 21.5904C32.906 21.6389 32.8613 21.675 32.8095 21.6987C32.7583 21.7224 32.7033 21.7343 32.6446 21.7343C32.5853 21.7343 32.53 21.7224 32.4788 21.6987C32.4281 21.675 32.3839 21.6389 32.3462 21.5904C32.3085 21.5418 32.2788 21.4807 32.2573 21.4068C32.2357 21.3324 32.2249 21.2445 32.2249 21.1432C32.2249 21.0419 32.2357 20.954 32.2573 20.8796C32.2788 20.8052 32.3085 20.7437 32.3462 20.6952C32.3839 20.6462 32.4281 20.6098 32.4788 20.5861C32.53 20.5623 32.5853 20.5505 32.6446 20.5505C32.7033 20.5505 32.7583 20.5623 32.8095 20.5861C32.8613 20.6098 32.906 20.6462 32.9438 20.6952C32.9815 20.7437 33.0112 20.8052 33.0327 20.8796C33.0548 20.954 33.0659 21.0419 33.0659 21.1432ZM32.9163 21.1432C32.9163 21.0548 32.9087 20.9807 32.8936 20.9208C32.8791 20.8605 32.8591 20.8119 32.8338 20.7753C32.809 20.7386 32.7802 20.7125 32.7473 20.6968C32.7144 20.6807 32.6802 20.6726 32.6446 20.6726C32.609 20.6726 32.5748 20.6807 32.5419 20.6968C32.509 20.7125 32.4802 20.7386 32.4554 20.7753C32.4306 20.8119 32.4106 20.8605 32.3955 20.9208C32.381 20.9807 32.3737 21.0548 32.3737 21.1432C32.3737 21.2316 32.381 21.3057 32.3955 21.3656C32.4106 21.4254 32.4306 21.4737 32.4554 21.5103C32.4802 21.547 32.509 21.5734 32.5419 21.5896C32.5748 21.6052 32.609 21.613 32.6446 21.613C32.6802 21.613 32.7144 21.6052 32.7473 21.5896C32.7802 21.5734 32.809 21.547 32.8338 21.5103C32.8591 21.4737 32.8791 21.4254 32.8936 21.3656C32.9087 21.3057 32.9163 21.2316 32.9163 21.1432ZM33.9377 21.6122V21.7222H33.3167V21.6122H33.5649V20.8222C33.5649 20.7985 33.5657 20.7745 33.5673 20.7502L33.3611 20.9273C33.3541 20.9332 33.3471 20.937 33.3401 20.9386C33.3331 20.9397 33.3266 20.9397 33.3207 20.9386C33.3148 20.9375 33.3091 20.9354 33.3037 20.9322C33.2989 20.9289 33.2951 20.9254 33.2924 20.9216L33.2471 20.8594L33.5924 20.561H33.7097V21.6122H33.9377ZM34.2459 21.7391C34.2389 21.758 34.2278 21.772 34.2127 21.7812C34.1982 21.7904 34.1831 21.7949 34.1675 21.7949H34.1068L34.5928 20.5844C34.5993 20.5672 34.609 20.554 34.6219 20.5448C34.6354 20.5357 34.6507 20.5311 34.668 20.5311H34.7294L34.2459 21.7391ZM35.582 21.5855C35.5976 21.5855 35.61 21.5901 35.6192 21.5993C35.6283 21.6084 35.6329 21.6203 35.6329 21.6348V21.7222H34.8599V21.6728C34.8599 21.6626 34.862 21.6521 34.8663 21.6413C34.8707 21.6305 34.8774 21.6206 34.8866 21.6114L35.2577 21.2386C35.2884 21.2073 35.3165 21.1774 35.3418 21.1489C35.3671 21.1197 35.3887 21.0906 35.4065 21.0615C35.4243 21.0324 35.438 21.003 35.4477 20.9734C35.4574 20.9432 35.4623 20.9111 35.4623 20.8772C35.4623 20.8432 35.4569 20.8136 35.4461 20.7882C35.4353 20.7623 35.4205 20.741 35.4016 20.7243C35.3833 20.7076 35.3615 20.6952 35.3361 20.6871C35.3108 20.6785 35.2836 20.6742 35.2545 20.6742C35.2248 20.6742 35.1976 20.6785 35.1728 20.6871C35.148 20.6958 35.1259 20.7079 35.1065 20.7235C35.0876 20.7386 35.0717 20.7567 35.0588 20.7777C35.0459 20.7987 35.0367 20.8219 35.0313 20.8472C35.0248 20.8661 35.0159 20.8788 35.0046 20.8853C34.9938 20.8912 34.9785 20.8928 34.9585 20.8901L34.8833 20.8772C34.8909 20.8243 34.9054 20.7777 34.927 20.7373C34.9491 20.6963 34.9766 20.6621 35.0095 20.6346C35.0429 20.6071 35.0809 20.5863 35.1235 20.5723C35.1661 20.5578 35.2122 20.5505 35.2618 20.5505C35.3108 20.5505 35.3566 20.5578 35.3992 20.5723C35.4418 20.5869 35.4787 20.6082 35.51 20.6362C35.5413 20.6637 35.5658 20.6974 35.5836 20.7373C35.6014 20.7772 35.6103 20.8224 35.6103 20.8731C35.6103 20.9162 35.6038 20.9564 35.5909 20.9936C35.5779 21.0303 35.5604 21.0653 35.5383 21.0987C35.5162 21.1321 35.4906 21.1648 35.4615 21.1966C35.4329 21.2284 35.4025 21.2604 35.3701 21.2928L35.0644 21.6049C35.086 21.599 35.1078 21.5944 35.1299 21.5912C35.152 21.5874 35.1733 21.5855 35.1938 21.5855H35.582ZM36.5201 21.5855C36.5357 21.5855 36.5481 21.5901 36.5573 21.5993C36.5664 21.6084 36.571 21.6203 36.571 21.6348V21.7222H35.798V21.6728C35.798 21.6626 35.8001 21.6521 35.8045 21.6413C35.8088 21.6305 35.8155 21.6206 35.8247 21.6114L36.1958 21.2386C36.2266 21.2073 36.2546 21.1774 36.2799 21.1489C36.3053 21.1197 36.3268 21.0906 36.3446 21.0615C36.3624 21.0324 36.3762 21.003 36.3859 20.9734C36.3956 20.9432 36.4004 20.9111 36.4004 20.8772C36.4004 20.8432 36.395 20.8136 36.3842 20.7882C36.3735 20.7623 36.3586 20.741 36.3398 20.7243C36.3214 20.7076 36.2996 20.6952 36.2743 20.6871C36.2489 20.6785 36.2217 20.6742 36.1926 20.6742C36.1629 20.6742 36.1357 20.6785 36.1109 20.6871C36.0861 20.6958 36.064 20.7079 36.0446 20.7235C36.0258 20.7386 36.0098 20.7567 35.9969 20.7777C35.984 20.7987 35.9748 20.8219 35.9694 20.8472C35.9629 20.8661 35.9541 20.8788 35.9427 20.8853C35.932 20.8912 35.9166 20.8928 35.8966 20.8901L35.8214 20.8772C35.829 20.8243 35.8435 20.7777 35.8651 20.7373C35.8872 20.6963 35.9147 20.6621 35.9476 20.6346C35.981 20.6071 36.019 20.5863 36.0616 20.5723C36.1042 20.5578 36.1503 20.5505 36.1999 20.5505C36.2489 20.5505 36.2947 20.5578 36.3373 20.5723C36.3799 20.5869 36.4169 20.6082 36.4481 20.6362C36.4794 20.6637 36.5039 20.6974 36.5217 20.7373C36.5395 20.7772 36.5484 20.8224 36.5484 20.8731C36.5484 20.9162 36.5419 20.9564 36.529 20.9936C36.516 21.0303 36.4985 21.0653 36.4764 21.0987C36.4543 21.1321 36.4287 21.1648 36.3996 21.1966C36.371 21.2284 36.3406 21.2604 36.3082 21.2928L36.0026 21.6049C36.0241 21.599 36.046 21.5944 36.0681 21.5912C36.0902 21.5874 36.1115 21.5855 36.1319 21.5855H36.5201Z" fill="white"/>
</g>
<g filter="url(#filter2_d_160_23405)">
<path d="M3.95949 21.4828C3.96812 21.4828 3.97566 21.4863 3.98213 21.4933L4.0444 21.5604C3.99696 21.6154 3.93928 21.6583 3.87135 21.689C3.80397 21.7197 3.7223 21.7351 3.62634 21.7351C3.54332 21.7351 3.46785 21.7208 3.39993 21.6922C3.33201 21.6631 3.27405 21.6227 3.22608 21.571C3.1781 21.5187 3.1409 21.4561 3.11449 21.3834C3.08807 21.3106 3.07487 21.2305 3.07487 21.1432C3.07487 21.0559 3.08861 20.9758 3.1161 20.903C3.1436 20.8303 3.18214 20.7677 3.23174 20.7154C3.28187 20.6632 3.34171 20.6227 3.41125 20.5941C3.48079 20.565 3.55761 20.5505 3.6417 20.5505C3.72418 20.5505 3.79696 20.5637 3.86003 20.5901C3.9231 20.6165 3.97863 20.6524 4.02661 20.6977L3.97485 20.7696C3.97162 20.775 3.96731 20.7796 3.96192 20.7834C3.95706 20.7866 3.95033 20.7882 3.9417 20.7882C3.932 20.7882 3.92014 20.7831 3.90612 20.7729C3.89211 20.7621 3.87378 20.7502 3.85114 20.7373C3.82849 20.7243 3.80019 20.7127 3.76623 20.7025C3.73227 20.6917 3.69049 20.6863 3.6409 20.6863C3.58106 20.6863 3.52634 20.6968 3.47675 20.7179C3.42715 20.7384 3.3843 20.7683 3.34818 20.8076C3.3126 20.847 3.28484 20.895 3.26489 20.9516C3.24494 21.0082 3.23497 21.072 3.23497 21.1432C3.23497 21.2154 3.24521 21.2799 3.2657 21.3365C3.28672 21.3931 3.31502 21.441 3.3506 21.4804C3.38672 21.5192 3.42904 21.5489 3.47756 21.5693C3.52661 21.5898 3.57944 21.6001 3.63604 21.6001C3.67055 21.6001 3.70154 21.5982 3.72904 21.5944C3.75707 21.5901 3.78267 21.5836 3.80585 21.575C3.82957 21.5664 3.85141 21.5556 3.87135 21.5427C3.89184 21.5292 3.91205 21.5133 3.932 21.4949C3.94116 21.4869 3.95033 21.4828 3.95949 21.4828ZM4.84164 21.292L4.6597 20.8206C4.65431 20.8065 4.64865 20.7904 4.64272 20.772C4.63679 20.7532 4.63113 20.7332 4.62574 20.7122C4.61442 20.7559 4.60283 20.7923 4.59097 20.8214L4.40903 21.292H4.84164ZM5.16832 21.7222H5.04703C5.03301 21.7222 5.02169 21.7187 5.01307 21.7117C5.00444 21.7046 4.99797 21.6958 4.99366 21.685L4.8853 21.4052H4.36536L4.25701 21.685C4.25378 21.6947 4.24758 21.7033 4.23841 21.7108C4.22925 21.7184 4.21793 21.7222 4.20445 21.7222H4.08316L4.54649 20.5634H4.70498L5.16832 21.7222ZM5.64178 21.1246C5.68706 21.1246 5.72695 21.1192 5.76145 21.1084C5.79649 21.0971 5.8256 21.0815 5.84878 21.0615C5.8725 21.041 5.89029 21.0168 5.90215 20.9888C5.91401 20.9607 5.91994 20.9297 5.91994 20.8958C5.91994 20.8268 5.8973 20.7747 5.85202 20.7397C5.80673 20.7047 5.73881 20.6871 5.64825 20.6871H5.47682V21.1246H5.64178ZM6.17708 21.7222H6.038C6.00943 21.7222 5.9884 21.7111 5.97493 21.689L5.67412 21.275C5.66496 21.2621 5.65498 21.2529 5.6442 21.2475C5.63396 21.2416 5.61779 21.2386 5.59569 21.2386H5.47682V21.7222H5.32076V20.5634H5.64825C5.72156 20.5634 5.7849 20.571 5.83827 20.5861C5.89164 20.6006 5.93557 20.6219 5.97007 20.6499C6.00511 20.678 6.03099 20.7119 6.0477 20.7518C6.06441 20.7912 6.07277 20.8354 6.07277 20.8844C6.07277 20.9254 6.0663 20.9637 6.05336 20.9993C6.04042 21.0348 6.02156 21.0669 5.99676 21.0955C5.9725 21.1235 5.94258 21.1475 5.907 21.1675C5.87196 21.1874 5.83207 21.2025 5.78733 21.2127C5.80727 21.2241 5.82452 21.2405 5.83908 21.2621L6.17708 21.7222ZM7.33898 21.1432C7.33898 21.23 7.32524 21.309 7.29775 21.3801C7.27025 21.4513 7.23144 21.5122 7.1813 21.5629C7.13117 21.6135 7.07079 21.6529 7.00018 21.6809C6.9301 21.7084 6.85247 21.7222 6.76729 21.7222H6.33468V20.5634H6.76729C6.85247 20.5634 6.9301 20.5774 7.00018 20.6055C7.07079 20.633 7.13117 20.6723 7.1813 20.7235C7.23144 20.7742 7.27025 20.8351 7.29775 20.9063C7.32524 20.9774 7.33898 21.0564 7.33898 21.1432ZM7.17807 21.1432C7.17807 21.072 7.16837 21.0084 7.14896 20.9524C7.12955 20.8963 7.10206 20.8489 7.06648 20.81C7.0309 20.7712 6.98778 20.7416 6.9371 20.7211C6.88643 20.7006 6.82983 20.6904 6.76729 20.6904H6.49156V21.5952H6.76729C6.82983 21.5952 6.88643 21.585 6.9371 21.5645C6.98778 21.544 7.0309 21.5146 7.06648 21.4763C7.10206 21.4375 7.12955 21.3901 7.14896 21.334C7.16837 21.278 7.17807 21.2144 7.17807 21.1432ZM8.50378 20.5634V21.7222H8.34691V21.195H7.72185V21.7222H7.56498V20.5634H7.72185V21.0801H8.34691V20.5634H8.50378ZM9.87062 21.1432C9.87062 21.23 9.85687 21.3098 9.82938 21.3825C9.80189 21.4548 9.76307 21.517 9.71294 21.5693C9.66281 21.6216 9.60243 21.6623 9.53181 21.6914C9.46173 21.72 9.3841 21.7343 9.29893 21.7343C9.21376 21.7343 9.13613 21.72 9.06605 21.6914C8.99597 21.6623 8.93586 21.6216 8.88573 21.5693C8.83559 21.517 8.79678 21.4548 8.76929 21.3825C8.74179 21.3098 8.72805 21.23 8.72805 21.1432C8.72805 21.0564 8.74179 20.9769 8.76929 20.9047C8.79678 20.8319 8.83559 20.7693 8.88573 20.7171C8.93586 20.6642 8.99597 20.6233 9.06605 20.5941C9.13613 20.565 9.21376 20.5505 9.29893 20.5505C9.3841 20.5505 9.46173 20.565 9.53181 20.5941C9.60243 20.6233 9.66281 20.6642 9.71294 20.7171C9.76307 20.7693 9.80189 20.8319 9.82938 20.9047C9.85687 20.9769 9.87062 21.0564 9.87062 21.1432ZM9.70971 21.1432C9.70971 21.072 9.7 21.0082 9.6806 20.9516C9.66119 20.895 9.6337 20.8472 9.59812 20.8084C9.56254 20.7691 9.51941 20.7389 9.46874 20.7179C9.41807 20.6968 9.36146 20.6863 9.29893 20.6863C9.23694 20.6863 9.1806 20.6968 9.12993 20.7179C9.07926 20.7389 9.03586 20.7691 8.99974 20.8084C8.96416 20.8472 8.93667 20.895 8.91726 20.9516C8.89786 21.0082 8.88815 21.072 8.88815 21.1432C8.88815 21.2144 8.89786 21.2782 8.91726 21.3348C8.93667 21.3909 8.96416 21.4386 8.99974 21.478C9.03586 21.5168 9.07926 21.5467 9.12993 21.5677C9.1806 21.5882 9.23694 21.5984 9.29893 21.5984C9.36146 21.5984 9.41807 21.5882 9.46874 21.5677C9.51941 21.5467 9.56254 21.5168 9.59812 21.478C9.6337 21.4386 9.66119 21.3909 9.6806 21.3348C9.7 21.2782 9.70971 21.2144 9.70971 21.1432ZM10.7525 21.5904V21.7222H10.0951V20.5634H10.2511V21.5904H10.7525ZM11.9301 21.1432C11.9301 21.23 11.9163 21.309 11.8888 21.3801C11.8614 21.4513 11.8225 21.5122 11.7724 21.5629C11.7223 21.6135 11.6619 21.6529 11.5913 21.6809C11.5212 21.7084 11.4436 21.7222 11.3584 21.7222H10.9258V20.5634H11.3584C11.4436 20.5634 11.5212 20.5774 11.5913 20.6055C11.6619 20.633 11.7223 20.6723 11.7724 20.7235C11.8225 20.7742 11.8614 20.8351 11.8888 20.9063C11.9163 20.9774 11.9301 21.0564 11.9301 21.1432ZM11.7692 21.1432C11.7692 21.072 11.7595 21.0084 11.7401 20.9524C11.7207 20.8963 11.6932 20.8489 11.6576 20.81C11.622 20.7712 11.5789 20.7416 11.5282 20.7211C11.4775 20.7006 11.4209 20.6904 11.3584 20.6904H11.0827V21.5952H11.3584C11.4209 21.5952 11.4775 21.585 11.5282 21.5645C11.5789 21.544 11.622 21.5146 11.6576 21.4763C11.6932 21.4375 11.7207 21.3901 11.7401 21.334C11.7595 21.278 11.7692 21.2144 11.7692 21.1432ZM12.8709 21.5944L12.8701 21.7222H12.1561V20.5634H12.8701V20.6912H12.313V21.0761H12.7642V21.199H12.313V21.5944H12.8709ZM13.4105 21.1246C13.4558 21.1246 13.4957 21.1192 13.5302 21.1084C13.5652 21.0971 13.5943 21.0815 13.6175 21.0615C13.6412 21.041 13.659 21.0168 13.6709 20.9888C13.6827 20.9607 13.6886 20.9297 13.6886 20.8958C13.6886 20.8268 13.666 20.7747 13.6207 20.7397C13.5754 20.7047 13.5075 20.6871 13.417 20.6871H13.2455V21.1246H13.4105ZM13.9458 21.7222H13.8067C13.7781 21.7222 13.7571 21.7111 13.7436 21.689L13.4428 21.275C13.4337 21.2621 13.4237 21.2529 13.4129 21.2475C13.4027 21.2416 13.3865 21.2386 13.3644 21.2386H13.2455V21.7222H13.0895V20.5634H13.417C13.4903 20.5634 13.5536 20.571 13.607 20.5861C13.6603 20.6006 13.7043 20.6219 13.7388 20.6499C13.7738 20.678 13.7997 20.7119 13.8164 20.7518C13.8331 20.7912 13.8415 20.8354 13.8415 20.8844C13.8415 20.9254 13.835 20.9637 13.8221 20.9993C13.8091 21.0348 13.7903 21.0669 13.7655 21.0955C13.7412 21.1235 13.7113 21.1475 13.6757 21.1675C13.6407 21.1874 13.6008 21.2025 13.556 21.2127C13.576 21.2241 13.5932 21.2405 13.6078 21.2621L13.9458 21.7222ZM15.456 20.5634V21.7222H15.3775C15.3651 21.7222 15.3546 21.72 15.346 21.7157C15.3379 21.7114 15.3298 21.7041 15.3217 21.6939L14.6514 20.8206C14.6525 20.834 14.6533 20.8472 14.6538 20.8602C14.6544 20.8731 14.6546 20.8853 14.6546 20.8966V21.7222H14.5172V20.5634H14.598C14.605 20.5634 14.611 20.564 14.6158 20.565C14.6207 20.5656 14.625 20.5669 14.6288 20.5691C14.6325 20.5707 14.6363 20.5734 14.6401 20.5772C14.6439 20.5804 14.6479 20.5847 14.6522 20.5901L15.3226 21.4626C15.3215 21.4486 15.3204 21.4351 15.3193 21.4222C15.3188 21.4087 15.3185 21.396 15.3185 21.3842V20.5634H15.456ZM16.3676 21.292L16.1856 20.8206C16.1802 20.8065 16.1746 20.7904 16.1686 20.772C16.1627 20.7532 16.1571 20.7332 16.1517 20.7122C16.1403 20.7559 16.1288 20.7923 16.1169 20.8214L15.935 21.292H16.3676ZM16.6942 21.7222H16.573C16.5589 21.7222 16.5476 21.7187 16.539 21.7117C16.5304 21.7046 16.5239 21.6958 16.5196 21.685L16.4112 21.4052H15.8913L15.7829 21.685C15.7797 21.6947 15.7735 21.7033 15.7643 21.7108C15.7552 21.7184 15.7439 21.7222 15.7304 21.7222H15.6091L16.0724 20.5634H16.2309L16.6942 21.7222ZM18.0523 20.5634V21.7222H17.9149V20.8707C17.9149 20.8594 17.9151 20.8472 17.9157 20.8343C17.9168 20.8214 17.9178 20.8082 17.9189 20.7947L17.5211 21.5192C17.5087 21.5435 17.4898 21.5556 17.4645 21.5556H17.4418C17.4165 21.5556 17.3976 21.5435 17.3852 21.5192L16.9793 20.7915C16.9825 20.82 16.9841 20.8464 16.9841 20.8707V21.7222H16.8467V20.5634H16.9623C16.9763 20.5634 16.9871 20.5648 16.9947 20.5675C17.0022 20.5702 17.0095 20.5777 17.0165 20.5901L17.4168 21.3033C17.4232 21.3162 17.4294 21.3297 17.4354 21.3437C17.4418 21.3578 17.4478 21.372 17.4531 21.3866C17.4585 21.372 17.4642 21.3578 17.4701 21.3437C17.4761 21.3292 17.4825 21.3154 17.4895 21.3025L17.8825 20.5901C17.889 20.5777 17.896 20.5702 17.9035 20.5675C17.9116 20.5648 17.9227 20.5634 17.9367 20.5634H18.0523ZM19.0634 21.5944L19.0626 21.7222H18.3486V20.5634H19.0626V20.6912H18.5055V21.0761H18.9567V21.199H18.5055V21.5944H19.0634Z" fill="white"/>
</g>
<path d="M29.504 20.0092L29.2161 20.7222H29.0963L28.8083 20.0092H28.9148C28.9263 20.0092 28.9357 20.012 28.9429 20.0176C28.9502 20.0232 28.9556 20.0304 28.9592 20.0393L29.1273 20.4742C29.1329 20.4883 29.1382 20.5039 29.1431 20.521C29.1484 20.5378 29.1533 20.5553 29.1579 20.5738C29.1618 20.5553 29.1661 20.5378 29.1707 20.521C29.1753 20.5039 29.1804 20.4883 29.186 20.4742L29.3531 20.0393C29.3558 20.0317 29.3609 20.0248 29.3684 20.0186C29.3763 20.0123 29.3859 20.0092 29.397 20.0092H29.504ZM29.8361 20.453L29.7493 20.2158C29.745 20.2053 29.7406 20.1928 29.736 20.1783C29.7314 20.1639 29.7268 20.1482 29.7222 20.1315C29.7179 20.1482 29.7135 20.164 29.7089 20.1788C29.7043 20.1933 29.6998 20.2059 29.6955 20.2168L29.6093 20.453H29.8361ZM30.0703 20.7222H29.9677C29.9562 20.7222 29.9468 20.7194 29.9396 20.7138C29.9324 20.7079 29.927 20.7006 29.9233 20.6921L29.8701 20.5466H29.5747L29.5215 20.6921C29.5189 20.6997 29.5138 20.7066 29.5062 20.7128C29.4987 20.719 29.4893 20.7222 29.4781 20.7222H29.3746L29.6551 20.0092H29.7902L30.0703 20.7222ZM30.5001 20.6127V20.7222H30.0824V20.0092H30.2151V20.6127H30.5001ZM30.6662 20.7222H30.5331V20.0092H30.6662V20.7222ZM31.3973 20.3657C31.3973 20.418 31.3886 20.4659 31.3712 20.5097C31.3538 20.5534 31.3293 20.591 31.2977 20.6226C31.2662 20.6541 31.2282 20.6786 31.1838 20.696C31.1395 20.7135 31.0902 20.7222 31.0359 20.7222H30.7642V20.0092H31.0359C31.0902 20.0092 31.1395 20.0181 31.1838 20.0358C31.2282 20.0533 31.2662 20.0777 31.2977 20.1093C31.3293 20.1405 31.3538 20.178 31.3712 20.2217C31.3886 20.2654 31.3973 20.3134 31.3973 20.3657ZM31.2612 20.3657C31.2612 20.3266 31.256 20.2916 31.2455 20.2607C31.2353 20.2294 31.2203 20.2031 31.2006 20.1818C31.1812 20.1601 31.1575 20.1435 31.1296 20.132C31.102 20.1205 31.0708 20.1147 31.0359 20.1147H30.8974V20.6167H31.0359C31.0708 20.6167 31.102 20.6109 31.1296 20.5994C31.1575 20.5879 31.1812 20.5715 31.2006 20.5501C31.2203 20.5284 31.2353 20.5021 31.2455 20.4712C31.256 20.44 31.2612 20.4048 31.2612 20.3657ZM29.4388 21.1182H29.2238V21.7222H29.0912V21.1182H28.8762V21.0092H29.4388V21.1182ZM30.0715 21.0092V21.7222H29.9384V21.4106H29.6036V21.7222H29.4704V21.0092H29.6036V21.3159H29.9384V21.0092H30.0715ZM30.3841 21.3484C30.4091 21.3484 30.4308 21.3453 30.4492 21.3391C30.4679 21.3328 30.4832 21.3243 30.495 21.3134C30.5072 21.3022 30.5162 21.2891 30.5221 21.274C30.5281 21.2589 30.531 21.2423 30.531 21.2242C30.531 21.188 30.519 21.1602 30.495 21.1409C30.4714 21.1215 30.435 21.1118 30.3861 21.1118H30.3013V21.3484H30.3841ZM30.7253 21.7222H30.6055C30.5828 21.7222 30.5664 21.7133 30.5562 21.6955L30.4063 21.4673C30.4007 21.4587 30.3944 21.4526 30.3875 21.449C30.381 21.4454 30.3711 21.4436 30.358 21.4436H30.3013V21.7222H30.1686V21.0092H30.3861C30.4344 21.0092 30.4758 21.0143 30.5103 21.0245C30.5452 21.0344 30.5736 21.0483 30.5956 21.0664C30.618 21.0845 30.6344 21.1062 30.6449 21.1315C30.6554 21.1565 30.6607 21.1841 30.6607 21.2143C30.6607 21.2383 30.6571 21.261 30.6498 21.2824C30.6429 21.3037 30.6328 21.3231 30.6193 21.3405C30.6061 21.358 30.5897 21.3732 30.57 21.3864C30.5506 21.3995 30.5284 21.4099 30.5034 21.4175C30.512 21.4224 30.5198 21.4283 30.5271 21.4352C30.5343 21.4418 30.5409 21.4497 30.5468 21.4589L30.7253 21.7222ZM31.0218 21.6152C31.0475 21.6152 31.0703 21.6109 31.0904 21.6024C31.1107 21.5938 31.1278 21.5818 31.1416 21.5664C31.1554 21.5509 31.166 21.5322 31.1732 21.5102C31.1808 21.4881 31.1845 21.4635 31.1845 21.4362V21.0092H31.3172V21.4362C31.3172 21.4786 31.3103 21.5179 31.2965 21.554C31.283 21.5899 31.2634 21.6209 31.2378 21.6472C31.2125 21.6732 31.1816 21.6936 31.1451 21.7084C31.1086 21.7228 31.0675 21.7301 31.0218 21.7301C30.9758 21.7301 30.9346 21.7228 30.8981 21.7084C30.8616 21.6936 30.8305 21.6732 30.8049 21.6472C30.7796 21.6209 30.76 21.5899 30.7462 21.554C30.7327 21.5179 30.726 21.4786 30.726 21.4362V21.0092H30.8586V21.4357C30.8586 21.463 30.8622 21.4876 30.8695 21.5097C30.877 21.5317 30.8877 21.5506 30.9015 21.5664C30.9157 21.5818 30.9327 21.5938 30.9528 21.6024C30.9732 21.6109 30.9962 21.6152 31.0218 21.6152Z" fill="white"/>
<ellipse cx="31.3937" cy="1.69009" rx="15.7576" ry="15.6559" fill="#DAD0DC" fill-opacity="0.1"/>
</g>
<defs>
<filter id="filter0_d_160_23405" x="2.66429" y="14.1456" width="27.1706" height="3.44754" filterUnits="userSpaceOnUse" color-interpolation-filters="sRGB">
<feFlood flood-opacity="0" result="BackgroundImageFix"/>
<feColorMatrix in="SourceAlpha" type="matrix" values="0 0 0 0 0 0 0 0 0 0 0 0 0 0 0 0 0 0 127 0" result="hardAlpha"/>
<feOffset dy="0.246529"/>
<feGaussianBlur stdDeviation="0.246529"/>
<feColorMatrix type="matrix" values="0 0 0 0 0 0 0 0 0 0 0 0 0 0 0 0 0 0 0.25 0"/>
<feBlend mode="normal" in2="BackgroundImageFix" result="effect1_dropShadow_160_23405"/>
<feBlend mode="normal" in="SourceGraphic" in2="effect1_dropShadow_160_23405" result="shape"/>
</filter>
<filter id="filter1_d_160_23405" x="31.7318" y="20.2847" width="5.33231" height="2.24979" filterUnits="userSpaceOnUse" color-interpolation-filters="sRGB">
<feFlood flood-opacity="0" result="BackgroundImageFix"/>
<feColorMatrix in="SourceAlpha" type="matrix" values="0 0 0 0 0 0 0 0 0 0 0 0 0 0 0 0 0 0 127 0" result="hardAlpha"/>
<feOffset dy="0.246529"/>
<feGaussianBlur stdDeviation="0.246529"/>
<feColorMatrix type="matrix" values="0 0 0 0 0 0 0 0 0 0 0 0 0 0 0 0 0 0 0.25 0"/>
<feBlend mode="normal" in2="BackgroundImageFix" result="effect1_dropShadow_160_23405"/>
<feBlend mode="normal" in="SourceGraphic" in2="effect1_dropShadow_160_23405" result="shape"/>
</filter>
<filter id="filter2_d_160_23405" x="2.58177" y="20.3038" width="16.9748" height="2.17069" filterUnits="userSpaceOnUse" color-interpolation-filters="sRGB">
<feFlood flood-opacity="0" result="BackgroundImageFix"/>
<feColorMatrix in="SourceAlpha" type="matrix" values="0 0 0 0 0 0 0 0 0 0 0 0 0 0 0 0 0 0 127 0" result="hardAlpha"/>
<feOffset dy="0.246529"/>
<feGaussianBlur stdDeviation="0.246529"/>
<feColorMatrix type="matrix" values="0 0 0 0 0 0 0 0 0 0 0 0 0 0 0 0 0 0 0.25 0"/>
<feBlend mode="normal" in2="BackgroundImageFix" result="effect1_dropShadow_160_23405"/>
<feBlend mode="normal" in="SourceGraphic" in2="effect1_dropShadow_160_23405" result="shape"/>
</filter>
<linearGradient id="paint0_linear_160_23405" x1="0" y1="0" x2="39.845" y2="24.2546" gradientUnits="userSpaceOnUse">
<stop stop-color="#863693"/>
<stop offset="1" stop-color="#7AC1D1"/>
</linearGradient>
<radialGradient id="paint1_radial_160_23405" cx="0" cy="0" r="1" gradientUnits="userSpaceOnUse" gradientTransform="translate(6.46263 9.4911) rotate(141.369) scale(4.08782 4.05468)">
<stop stop-color="white"/>
<stop offset="1" stop-color="#DDDCDA"/>
</radialGradient>
<clipPath id="clip0_160_23405">
<rect width="40" height="24" rx="2.02154" fill="white"/>
</clipPath>
</defs>
</svg>
