<svg width="80" height="80" viewBox="0 0 80 80" fill="none" xmlns="http://www.w3.org/2000/svg">
<circle cx="40" cy="26.0001" r="22" fill="#412B71"/>
<g clip-path="url(#clip0_18_8072)">
<path d="M50.0016 37.0011H30.0016C29.7364 37.0011 29.482 36.8957 29.2945 36.7082C29.1069 36.5207 29.0016 36.2663 29.0016 36.0011V19.0011L31.0016 15.0011H49.0016L51.0016 19.0011V36.0011C51.0016 36.2663 50.8962 36.5207 50.7087 36.7082C50.5212 36.8957 50.2668 37.0011 50.0016 37.0011Z" stroke="#FBFBFB" stroke-width="2" stroke-linecap="round" stroke-linejoin="round"/>
<path d="M35.764 28.7635L40.0015 33.001L44.239 28.7635" stroke="#FBFBFB" stroke-width="2" stroke-linecap="round" stroke-linejoin="round"/>
<path d="M40.0016 23.0011V33.0011" stroke="#FBFBFB" stroke-width="2" stroke-linecap="round" stroke-linejoin="round"/>
<path d="M29.0016 19.0011H51.0016" stroke="#FBFBFB" stroke-width="2" stroke-linecap="round" stroke-linejoin="round"/>
</g>
<path d="M26.043 63.6388C26.043 64.0177 25.9805 64.3595 25.8555 64.6642C25.7305 64.9689 25.5508 65.2286 25.3164 65.4435C25.0859 65.6583 24.8008 65.8243 24.4609 65.9415C24.125 66.0587 23.7227 66.1173 23.2539 66.1173H22.3926V68.8478C22.3926 68.879 22.3828 68.9064 22.3633 68.9298C22.3477 68.9532 22.3203 68.9728 22.2812 68.9884C22.2461 69.0001 22.1953 69.0099 22.1289 69.0177C22.0664 69.0294 21.9863 69.0353 21.8887 69.0353C21.791 69.0353 21.709 69.0294 21.6426 69.0177C21.5801 69.0099 21.5293 69.0001 21.4902 68.9884C21.4512 68.9728 21.4238 68.9532 21.4082 68.9298C21.3926 68.9064 21.3848 68.879 21.3848 68.8478V61.8517C21.3848 61.6954 21.4258 61.5841 21.5078 61.5177C21.5898 61.4513 21.6816 61.4181 21.7832 61.4181H23.4062C23.5703 61.4181 23.7266 61.4259 23.875 61.4415C24.0273 61.4532 24.2051 61.4825 24.4082 61.5294C24.6152 61.5724 24.8242 61.6564 25.0352 61.7814C25.25 61.9025 25.4316 62.0529 25.5801 62.2325C25.7285 62.4122 25.8418 62.6212 25.9199 62.8595C26.002 63.0939 26.043 63.3536 26.043 63.6388ZM24.9824 63.7208C24.9824 63.4122 24.9238 63.1544 24.8066 62.9474C24.6934 62.7404 24.5508 62.5861 24.3789 62.4845C24.2109 62.3829 24.0352 62.3185 23.8516 62.2911C23.6719 62.2638 23.4961 62.2501 23.3242 62.2501H22.3926V65.2911H23.3008C23.6055 65.2911 23.8574 65.2521 24.0566 65.174C24.2598 65.0958 24.4297 64.9884 24.5664 64.8517C24.7031 64.7111 24.8066 64.545 24.877 64.3536C24.9473 64.1583 24.9824 63.9474 24.9824 63.7208ZM31.7266 65.9884C31.7266 66.1407 31.6875 66.2501 31.6094 66.3165C31.5352 66.379 31.4492 66.4103 31.3516 66.4103H27.8945C27.8945 66.7032 27.9238 66.9669 27.9824 67.2013C28.041 67.4357 28.1387 67.6368 28.2754 67.8048C28.4121 67.9728 28.5898 68.1017 28.8086 68.1915C29.0273 68.2814 29.2949 68.3263 29.6113 68.3263C29.8613 68.3263 30.084 68.3068 30.2793 68.2677C30.4746 68.2247 30.6426 68.1779 30.7832 68.1271C30.9277 68.0763 31.0449 68.0314 31.1348 67.9923C31.2285 67.9493 31.2988 67.9279 31.3457 67.9279C31.373 67.9279 31.3965 67.9357 31.416 67.9513C31.4395 67.963 31.457 67.9825 31.4688 68.0099C31.4805 68.0372 31.4883 68.0763 31.4922 68.1271C31.5 68.174 31.5039 68.2325 31.5039 68.3029C31.5039 68.3536 31.502 68.3986 31.498 68.4376C31.4941 68.4728 31.4883 68.506 31.4805 68.5372C31.4766 68.5646 31.4668 68.59 31.4512 68.6134C31.4395 68.6368 31.4219 68.6603 31.3984 68.6837C31.3789 68.7032 31.3164 68.7384 31.2109 68.7892C31.1055 68.8361 30.9688 68.8829 30.8008 68.9298C30.6328 68.9767 30.4375 69.0177 30.2148 69.0529C29.9961 69.0919 29.7617 69.1115 29.5117 69.1115C29.0781 69.1115 28.6973 69.0509 28.3691 68.9298C28.0449 68.8087 27.7715 68.629 27.5488 68.3907C27.3262 68.1525 27.1582 67.8536 27.0449 67.4943C26.9316 67.1349 26.875 66.7169 26.875 66.2404C26.875 65.7872 26.9336 65.381 27.0508 65.0216C27.168 64.6583 27.3359 64.3517 27.5547 64.1017C27.7773 63.8478 28.0449 63.6544 28.3574 63.5216C28.6699 63.3849 29.0195 63.3165 29.4062 63.3165C29.8203 63.3165 30.1719 63.3829 30.4609 63.5157C30.7539 63.6486 30.9941 63.8282 31.1816 64.0548C31.3691 64.2775 31.5059 64.5411 31.5918 64.8458C31.6816 65.1466 31.7266 65.4689 31.7266 65.8126V65.9884ZM30.7539 65.7013C30.7656 65.1935 30.6523 64.795 30.4141 64.506C30.1797 64.2169 29.8301 64.0724 29.3652 64.0724C29.127 64.0724 28.918 64.1173 28.7383 64.2072C28.5586 64.297 28.4082 64.4161 28.2871 64.5646C28.166 64.713 28.0723 64.8868 28.0059 65.0861C27.9395 65.2814 27.9023 65.4865 27.8945 65.7013H30.7539ZM37.7441 68.8536C37.7441 68.8849 37.7363 68.9122 37.7207 68.9357C37.7051 68.9552 37.6797 68.9728 37.6445 68.9884C37.6094 69.004 37.5605 69.0157 37.498 69.0236C37.4355 69.0314 37.3574 69.0353 37.2637 69.0353C37.166 69.0353 37.0859 69.0314 37.0234 69.0236C36.9609 69.0157 36.9121 69.004 36.877 68.9884C36.8418 68.9728 36.8164 68.9552 36.8008 68.9357C36.7852 68.9122 36.7773 68.8849 36.7773 68.8536V65.7657C36.7773 65.465 36.7539 65.2228 36.707 65.0392C36.6602 64.8556 36.5918 64.6974 36.502 64.5646C36.4121 64.4318 36.2949 64.3302 36.1504 64.2599C36.0098 64.1896 35.8457 64.1544 35.6582 64.1544C35.416 64.1544 35.1738 64.2404 34.9316 64.4122C34.6895 64.5841 34.4355 64.8361 34.1699 65.1681V68.8536C34.1699 68.8849 34.1621 68.9122 34.1465 68.9357C34.1309 68.9552 34.1055 68.9728 34.0703 68.9884C34.0352 69.004 33.9863 69.0157 33.9238 69.0236C33.8613 69.0314 33.7812 69.0353 33.6836 69.0353C33.5898 69.0353 33.5117 69.0314 33.4492 69.0236C33.3867 69.0157 33.3359 69.004 33.2969 68.9884C33.2617 68.9728 33.2363 68.9552 33.2207 68.9357C33.209 68.9122 33.2031 68.8849 33.2031 68.8536V63.5802C33.2031 63.549 33.209 63.5236 33.2207 63.504C33.2324 63.4806 33.2559 63.4611 33.291 63.4454C33.3262 63.4259 33.3711 63.4142 33.4258 63.4103C33.4805 63.4025 33.5527 63.3986 33.6426 63.3986C33.7285 63.3986 33.7988 63.4025 33.8535 63.4103C33.9121 63.4142 33.957 63.4259 33.9883 63.4454C34.0195 63.4611 34.041 63.4806 34.0527 63.504C34.0684 63.5236 34.0762 63.549 34.0762 63.5802V64.2775C34.373 63.9454 34.668 63.7032 34.9609 63.5509C35.2578 63.3947 35.5566 63.3165 35.8574 63.3165C36.209 63.3165 36.5039 63.3771 36.7422 63.4982C36.9844 63.6154 37.1797 63.7736 37.3281 63.9728C37.4766 64.172 37.582 64.4064 37.6445 64.6759C37.7109 64.9415 37.7441 65.2618 37.7441 65.6368V68.8536ZM44.0254 68.8536C44.0254 68.8849 44.0176 68.9122 44.002 68.9357C43.9902 68.9591 43.9668 68.9786 43.9316 68.9943C43.9004 69.006 43.8574 69.0157 43.8027 69.0236C43.748 69.0314 43.6816 69.0353 43.6035 69.0353C43.5215 69.0353 43.4531 69.0314 43.3984 69.0236C43.3438 69.0157 43.2988 69.006 43.2637 68.9943C43.2285 68.9786 43.2031 68.9591 43.1875 68.9357C43.1719 68.9122 43.1641 68.8849 43.1641 68.8536V68.1564C42.8867 68.4572 42.5977 68.6915 42.2969 68.8595C42 69.0275 41.6738 69.1115 41.3184 69.1115C40.9316 69.1115 40.6016 69.0372 40.3281 68.8888C40.0547 68.7365 39.832 68.5333 39.6602 68.2794C39.4922 68.0216 39.3691 67.7208 39.291 67.3771C39.2129 67.0294 39.1738 66.6642 39.1738 66.2814C39.1738 65.8282 39.2227 65.42 39.3203 65.0568C39.418 64.6896 39.5625 64.3771 39.7539 64.1193C39.9453 63.8615 40.1816 63.6642 40.4629 63.5275C40.748 63.3868 41.0762 63.3165 41.4473 63.3165C41.7559 63.3165 42.0371 63.3849 42.291 63.5216C42.5488 63.6544 42.8027 63.8517 43.0527 64.1134V61.049C43.0527 61.0216 43.0586 60.9962 43.0703 60.9728C43.0859 60.9454 43.1133 60.9259 43.1523 60.9142C43.1914 60.8986 43.2402 60.8868 43.2988 60.879C43.3613 60.8673 43.4395 60.8615 43.5332 60.8615C43.6309 60.8615 43.7109 60.8673 43.7734 60.879C43.8359 60.8868 43.8848 60.8986 43.9199 60.9142C43.9551 60.9259 43.9805 60.9454 43.9961 60.9728C44.0156 60.9962 44.0254 61.0216 44.0254 61.049V68.8536ZM43.0527 65.1447C42.791 64.8204 42.5371 64.5743 42.291 64.4064C42.0488 64.2345 41.7949 64.1486 41.5293 64.1486C41.2832 64.1486 41.0742 64.2072 40.9023 64.3243C40.7305 64.4415 40.5898 64.5958 40.4805 64.7872C40.375 64.9786 40.2969 65.1954 40.2461 65.4376C40.1992 65.6798 40.1758 65.9259 40.1758 66.1759C40.1758 66.4415 40.1953 66.7013 40.2344 66.9552C40.2773 67.2091 40.3496 67.4357 40.4512 67.6349C40.5527 67.8302 40.6875 67.9884 40.8555 68.1095C41.0234 68.2267 41.2344 68.2853 41.4883 68.2853C41.6172 68.2853 41.7402 68.2677 41.8574 68.2325C41.9785 68.1974 42.1016 68.1388 42.2266 68.0568C42.3516 67.9747 42.4824 67.8693 42.6191 67.7404C42.7559 67.6075 42.9004 67.4454 43.0527 67.254V65.1447ZM46.7793 68.8536C46.7793 68.8849 46.7715 68.9122 46.7559 68.9357C46.7402 68.9552 46.7148 68.9728 46.6797 68.9884C46.6445 69.004 46.5957 69.0157 46.5332 69.0236C46.4707 69.0314 46.3906 69.0353 46.293 69.0353C46.1992 69.0353 46.1211 69.0314 46.0586 69.0236C45.9961 69.0157 45.9453 69.004 45.9062 68.9884C45.8711 68.9728 45.8457 68.9552 45.8301 68.9357C45.8184 68.9122 45.8125 68.8849 45.8125 68.8536V63.5802C45.8125 63.5529 45.8184 63.5275 45.8301 63.504C45.8457 63.4806 45.8711 63.4611 45.9062 63.4454C45.9453 63.4298 45.9961 63.4181 46.0586 63.4103C46.1211 63.4025 46.1992 63.3986 46.293 63.3986C46.3906 63.3986 46.4707 63.4025 46.5332 63.4103C46.5957 63.4181 46.6445 63.4298 46.6797 63.4454C46.7148 63.4611 46.7402 63.4806 46.7559 63.504C46.7715 63.5275 46.7793 63.5529 46.7793 63.5802V68.8536ZM46.8906 61.799C46.8906 62.0255 46.8477 62.1798 46.7617 62.2618C46.6758 62.3439 46.5176 62.3849 46.2871 62.3849C46.0605 62.3849 45.9043 62.3458 45.8184 62.2677C45.7363 62.1857 45.6953 62.0333 45.6953 61.8107C45.6953 61.5841 45.7383 61.4298 45.8242 61.3478C45.9102 61.2657 46.0684 61.2247 46.2988 61.2247C46.5254 61.2247 46.6797 61.2657 46.7617 61.3478C46.8477 61.4259 46.8906 61.5763 46.8906 61.799ZM53.1074 68.8536C53.1074 68.8849 53.0996 68.9122 53.084 68.9357C53.0684 68.9552 53.043 68.9728 53.0078 68.9884C52.9727 69.004 52.9238 69.0157 52.8613 69.0236C52.7988 69.0314 52.7207 69.0353 52.627 69.0353C52.5293 69.0353 52.4492 69.0314 52.3867 69.0236C52.3242 69.0157 52.2754 69.004 52.2402 68.9884C52.2051 68.9728 52.1797 68.9552 52.1641 68.9357C52.1484 68.9122 52.1406 68.8849 52.1406 68.8536V65.7657C52.1406 65.465 52.1172 65.2228 52.0703 65.0392C52.0234 64.8556 51.9551 64.6974 51.8652 64.5646C51.7754 64.4318 51.6582 64.3302 51.5137 64.2599C51.373 64.1896 51.209 64.1544 51.0215 64.1544C50.7793 64.1544 50.5371 64.2404 50.2949 64.4122C50.0527 64.5841 49.7988 64.8361 49.5332 65.1681V68.8536C49.5332 68.8849 49.5254 68.9122 49.5098 68.9357C49.4941 68.9552 49.4688 68.9728 49.4336 68.9884C49.3984 69.004 49.3496 69.0157 49.2871 69.0236C49.2246 69.0314 49.1445 69.0353 49.0469 69.0353C48.9531 69.0353 48.875 69.0314 48.8125 69.0236C48.75 69.0157 48.6992 69.004 48.6602 68.9884C48.625 68.9728 48.5996 68.9552 48.584 68.9357C48.5723 68.9122 48.5664 68.8849 48.5664 68.8536V63.5802C48.5664 63.549 48.5723 63.5236 48.584 63.504C48.5957 63.4806 48.6191 63.4611 48.6543 63.4454C48.6895 63.4259 48.7344 63.4142 48.7891 63.4103C48.8438 63.4025 48.916 63.3986 49.0059 63.3986C49.0918 63.3986 49.1621 63.4025 49.2168 63.4103C49.2754 63.4142 49.3203 63.4259 49.3516 63.4454C49.3828 63.4611 49.4043 63.4806 49.416 63.504C49.4316 63.5236 49.4395 63.549 49.4395 63.5802V64.2775C49.7363 63.9454 50.0312 63.7032 50.3242 63.5509C50.6211 63.3947 50.9199 63.3165 51.2207 63.3165C51.5723 63.3165 51.8672 63.3771 52.1055 63.4982C52.3477 63.6154 52.543 63.7736 52.6914 63.9728C52.8398 64.172 52.9453 64.4064 53.0078 64.6759C53.0742 64.9415 53.1074 65.2618 53.1074 65.6368V68.8536ZM59.2773 63.8204C59.2773 63.9572 59.2578 64.0568 59.2188 64.1193C59.1836 64.1779 59.1367 64.2072 59.0781 64.2072H58.3223C58.459 64.3478 58.5547 64.504 58.6094 64.6759C58.6641 64.8439 58.6914 65.0197 58.6914 65.2032C58.6914 65.5079 58.6426 65.7775 58.5449 66.0118C58.4473 66.2462 58.3066 66.4454 58.123 66.6095C57.9434 66.7697 57.7285 66.8927 57.4785 66.9786C57.2285 67.0646 56.9512 67.1075 56.6465 67.1075C56.4316 67.1075 56.2266 67.0802 56.0312 67.0255C55.8398 66.9669 55.6914 66.8947 55.5859 66.8087C55.5156 66.879 55.457 66.9591 55.4102 67.049C55.3672 67.1388 55.3457 67.2423 55.3457 67.3595C55.3457 67.4962 55.4082 67.6095 55.5332 67.6993C55.6621 67.7892 55.832 67.838 56.043 67.8458L57.4199 67.9044C57.6816 67.9122 57.9219 67.9493 58.1406 68.0157C58.3594 68.0782 58.5488 68.17 58.709 68.2911C58.8691 68.4083 58.9941 68.5548 59.084 68.7306C59.1738 68.9025 59.2188 69.1036 59.2188 69.3341C59.2188 69.5763 59.168 69.8068 59.0664 70.0255C58.9648 70.2443 58.8086 70.4357 58.5977 70.5997C58.3906 70.7677 58.125 70.8986 57.8008 70.9923C57.4766 71.09 57.0938 71.1388 56.6523 71.1388C56.2266 71.1388 55.8633 71.1017 55.5625 71.0275C55.2656 70.9572 55.0215 70.8595 54.8301 70.7345C54.6387 70.6095 54.5 70.4591 54.4141 70.2833C54.3281 70.1115 54.2852 69.924 54.2852 69.7208C54.2852 69.5919 54.3008 69.4669 54.332 69.3458C54.3633 69.2247 54.4102 69.1095 54.4727 69.0001C54.5391 68.8907 54.6191 68.7872 54.7129 68.6896C54.8105 68.588 54.9219 68.4884 55.0469 68.3907C54.8555 68.2931 54.7129 68.17 54.6191 68.0216C54.5293 67.8732 54.4844 67.713 54.4844 67.5411C54.4844 67.3029 54.5332 67.09 54.6309 66.9025C54.7285 66.715 54.8496 66.547 54.9941 66.3986C54.873 66.254 54.7773 66.0919 54.707 65.9122C54.6367 65.7286 54.6016 65.5079 54.6016 65.2501C54.6016 64.9493 54.6523 64.6798 54.7539 64.4415C54.8555 64.2032 54.9961 64.0021 55.1758 63.838C55.3555 63.674 55.5703 63.549 55.8203 63.463C56.0742 63.3732 56.3496 63.3282 56.6465 63.3282C56.8066 63.3282 56.9551 63.338 57.0918 63.3575C57.2324 63.3732 57.3633 63.3966 57.4844 63.4279H59.0781C59.1445 63.4279 59.1934 63.4611 59.2246 63.5275C59.2598 63.59 59.2773 63.6876 59.2773 63.8204ZM57.7656 65.2091C57.7656 64.8497 57.666 64.5704 57.4668 64.3712C57.2715 64.1681 56.9922 64.0665 56.6289 64.0665C56.4414 64.0665 56.2773 64.0978 56.1367 64.1603C56 64.2228 55.8848 64.3087 55.791 64.4181C55.7012 64.5275 55.6328 64.6544 55.5859 64.799C55.543 64.9396 55.5215 65.088 55.5215 65.2443C55.5215 65.5919 55.6191 65.8654 55.8145 66.0646C56.0137 66.2638 56.291 66.3634 56.6465 66.3634C56.8379 66.3634 57.0039 66.3341 57.1445 66.2755C57.2852 66.213 57.4004 66.129 57.4902 66.0236C57.584 65.9142 57.6523 65.7892 57.6953 65.6486C57.7422 65.5079 57.7656 65.3615 57.7656 65.2091ZM58.252 69.3868C58.252 69.1603 58.1582 68.9865 57.9707 68.8654C57.7871 68.7404 57.5371 68.674 57.2207 68.6661L55.8555 68.6193C55.7305 68.7169 55.627 68.8107 55.5449 68.9005C55.4668 68.9865 55.4043 69.0685 55.3574 69.1466C55.3105 69.2286 55.2773 69.3087 55.2578 69.3868C55.2422 69.465 55.2344 69.545 55.2344 69.6271C55.2344 69.881 55.3633 70.0724 55.6211 70.2013C55.8789 70.3341 56.2383 70.4005 56.6992 70.4005C56.9922 70.4005 57.2363 70.3712 57.4316 70.3126C57.6309 70.2579 57.791 70.1837 57.9121 70.09C58.0332 69.9962 58.1191 69.8888 58.1699 69.7677C58.2246 69.6466 58.252 69.5197 58.252 69.3868Z" fill="#090909"/>
<defs>
<clipPath id="clip0_18_8072">
<rect width="32" height="32" fill="white" transform="translate(24 10.0001)"/>
</clipPath>
</defs>
</svg>
