<svg width="80" height="80" viewBox="0 0 80 80" fill="none" xmlns="http://www.w3.org/2000/svg">
<circle cx="40" cy="26.0001" r="22" fill="#592266"/>
<path d="M50.002 37.0011H30.002C29.7367 37.0011 29.4824 36.8957 29.2948 36.7082C29.1073 36.5207 29.002 36.2663 29.002 36.0011V19.0011L31.002 15.0011H49.002L51.002 19.0011V36.0011C51.002 36.2663 50.8966 36.5207 50.7091 36.7082C50.5215 36.8957 50.2672 37.0011 50.002 37.0011Z" stroke="white" stroke-width="2" stroke-linecap="round" stroke-linejoin="round"/>
<path d="M35.7637 28.7636L40.0012 33.0011L44.2387 28.7636" stroke="white" stroke-width="2" stroke-linecap="round" stroke-linejoin="round"/>
<path d="M40.002 23.0011V33.0011" stroke="white" stroke-width="2" stroke-linecap="round" stroke-linejoin="round"/>
<path d="M29.002 19.0011H51.002" stroke="white" stroke-width="2" stroke-linecap="round" stroke-linejoin="round"/>
<path d="M18.4082 70.0001V61.6212H21.8066C23.5176 61.6212 24.373 62.3693 24.373 63.8654C24.373 65.4943 23.2031 66.4884 20.8633 66.8478L20.6406 65.9337C22.3594 65.6798 23.2188 65.006 23.2188 63.9122C23.2188 62.9825 22.7148 62.5177 21.707 62.5177H19.4922V70.0001H18.4082ZM28.2344 63.8478C29.9844 63.8478 30.8594 64.713 30.8594 66.4435C30.8594 66.6896 30.8418 66.9532 30.8066 67.2345H26.4883C26.4883 68.4923 27.2227 69.1212 28.6914 69.1212C29.3906 69.1212 30.0117 69.0431 30.5547 68.8868V69.7657C30.0117 69.922 29.3516 70.0001 28.5742 70.0001C26.4609 70.0001 25.4043 68.9513 25.4043 66.8536C25.4043 64.8497 26.3477 63.8478 28.2344 63.8478ZM26.4883 66.3322H29.8164C29.793 65.254 29.2656 64.715 28.2344 64.715C27.1406 64.715 26.5586 65.254 26.4883 66.3322ZM32.3184 70.0001V63.8478H33.0508L33.2441 64.6329C33.873 64.1095 34.5645 63.8478 35.3184 63.8478C36.8535 63.8478 37.6211 64.6115 37.6211 66.1388V70.0001H36.5371V66.1212C36.5371 65.2072 36.082 64.7501 35.1719 64.7501C34.5508 64.7501 33.9609 65.0099 33.4023 65.5294V70.0001H32.3184ZM43.5156 65.1017C43.0781 64.8907 42.5781 64.7853 42.0156 64.7853C40.7773 64.7853 40.1582 65.4435 40.1582 66.7599C40.1582 68.3185 40.7773 69.0978 42.0156 69.0978C42.5781 69.0978 43.0781 69.0216 43.5156 68.8693V65.1017ZM44.5996 69.631C43.8535 69.8771 42.9336 70.0001 41.8398 70.0001C40.0078 70.0001 39.0918 68.9337 39.0918 66.8009C39.0918 64.8322 40.0645 63.8478 42.0098 63.8478C42.541 63.8478 43.043 63.9454 43.5156 64.1407V61.6212H44.5996V69.631ZM47.5586 63.8478V70.0001H46.4746V63.8478H47.5586ZM47.5586 61.6212V62.6466H46.4746V61.6212H47.5586ZM49.4395 70.0001V63.8478H50.1719L50.3652 64.6329C50.9941 64.1095 51.6855 63.8478 52.4395 63.8478C53.9746 63.8478 54.7422 64.6115 54.7422 66.1388V70.0001H53.6582V66.1212C53.6582 65.2072 53.2031 64.7501 52.293 64.7501C51.6719 64.7501 51.082 65.0099 50.5234 65.5294V70.0001H49.4395ZM60.6191 64.8907C60.248 64.797 59.7891 64.7501 59.2422 64.7501C57.9336 64.7501 57.2793 65.4591 57.2793 66.8771C57.2793 68.3341 57.8984 69.0626 59.1367 69.0626C59.6992 69.0626 60.1934 68.9572 60.6191 68.7462V64.8907ZM61.7031 70.0001C61.7031 71.4845 60.7598 72.2267 58.873 72.2267C58.1152 72.2267 57.4434 72.129 56.8574 71.9337V71.0548C57.4551 71.2501 58.1309 71.3478 58.8848 71.3478C60.041 71.3478 60.6191 70.8986 60.6191 70.0001V69.7072C60.1582 69.9025 59.6621 70.0001 59.1309 70.0001C57.1855 70.0001 56.2129 68.963 56.2129 66.8888C56.2129 64.8615 57.2383 63.8478 59.2891 63.8478C60.1211 63.8478 60.9258 63.9318 61.7031 64.0997V70.0001Z" fill="#383838"/>
</svg>
