<svg width="45" height="46" viewBox="0 0 45 46" fill="none" xmlns="http://www.w3.org/2000/svg">
<g clip-path="url(#clip0_65_15101)">
<mask id="mask0_65_15101" style="mask-type:luminance" maskUnits="userSpaceOnUse" x="-1" y="0" width="46" height="46">
<path d="M44.9578 0.464844H-0.0703125V45.493H44.9578V0.464844Z" fill="white"/>
</mask>
<g mask="url(#mask0_65_15101)">
<path d="M22.4438 45.493C34.875 45.493 44.9578 35.4102 44.9578 22.9789C44.9578 10.5477 34.875 0.464844 22.4438 0.464844C10.0125 0.464844 -0.0703125 10.5477 -0.0703125 22.9789C-0.0703125 35.4102 10.0125 45.493 22.4438 45.493Z" fill="#E3F2FB"/>
<path d="M33.9117 11.0328H33.8555V11.0046L33.9117 11.0328Z" fill="white"/>
</g>
<path d="M15.3273 14.021H30.3602C30.6906 14.021 30.9648 14.2882 30.9648 14.6257V29.1312C30.9648 29.5108 30.6555 29.8132 30.2828 29.8132H15.018C14.6383 29.8132 14.3359 29.5038 14.3359 29.1312V15.0265C14.3359 14.471 14.7859 14.021 15.3414 14.021H15.3273Z" fill="#F58E25"/>
<path d="M14.6816 13.9929H30.6215C30.8324 13.9929 30.9941 14.1617 30.9941 14.3656V18.2257H14.3301V14.3375C14.3301 14.1476 14.4848 13.9929 14.6746 13.9929H14.6816Z" fill="#F7A551"/>
<path d="M24.0125 13.9929H21.4109L21.3828 19.0765H24.0125V13.9929Z" fill="white"/>
<path d="M18.8996 23.4922H15.6934V28.2734H18.8996V23.4922Z" fill="#6A509B"/>
<path d="M16.3613 24.2798H17.1699" stroke="white" stroke-width="0.2" stroke-miterlimit="10" stroke-linecap="round"/>
<path d="M16.3613 24.7016L18.0418 24.6946" stroke="white" stroke-width="0.2" stroke-miterlimit="10" stroke-linecap="round"/>
<path d="M18.373 26.1851H16.2285C15.9332 26.1851 15.7012 26.4593 15.7012 26.8038V28.2733H18.9074V26.8038C18.9074 26.4593 18.6684 26.1851 18.3801 26.1851H18.373Z" fill="#563E86"/>
<path d="M16.3613 27.0359H18.0418" stroke="white" stroke-width="0.2" stroke-linecap="round" stroke-linejoin="round"/>
<path d="M24.0125 18.6546V19.3999L23.7734 19.196L23.5555 19.3999L23.3516 19.196L23.1617 19.3999L22.9859 19.196L22.7961 19.3999L22.5641 19.196L22.3742 19.3999L22.1352 19.196L21.8961 19.3788L21.7133 19.196L21.4109 19.3788L21.3828 19.2101V18.5562L24.0125 18.6546Z" fill="white"/>
<mask id="mask1_65_15101" style="mask-type:luminance" maskUnits="userSpaceOnUse" x="-1" y="0" width="47" height="46">
<path d="M22.5008 45.5282C34.9427 45.5282 45.0289 35.442 45.0289 23C45.0289 10.5581 34.9427 0.471924 22.5008 0.471924C10.0588 0.471924 -0.0273438 10.5581 -0.0273438 23C-0.0273438 35.442 10.0588 45.5282 22.5008 45.5282Z" fill="white"/>
</mask>
<g mask="url(#mask1_65_15101)">
<path d="M13.5809 30.0823L13.9806 30.0978C13.9983 29.6404 14.0129 28.9523 13.9866 28.3808C13.9736 28.0989 13.95 27.8249 13.9059 27.6173C13.885 27.5188 13.8525 27.3997 13.794 27.2985C13.7428 27.21 13.575 26.9868 13.2774 27.0463L13.2774 27.0463L13.2743 27.047C13.1002 27.0832 12.9812 27.2021 12.92 27.2709C12.8469 27.3531 12.7806 27.4525 12.7221 27.5519C12.6039 27.7525 12.4868 28.0055 12.3824 28.2539L12.3822 28.2544C12.0748 28.9887 11.6343 29.6722 11.0971 30.2742L11.0969 30.274L10.814 30.5608L10.3376 31.0439L-0.112699 38.6677L-0.599165 39.0226L-0.0834365 39.3335L5.08453 42.4483L5.38049 42.6267L5.59997 42.3598L5.29102 42.1057C5.59997 42.3598 5.59999 42.3598 5.60004 42.3597L5.60025 42.3595L5.60108 42.3584L5.60438 42.3544L5.61739 42.3386L5.66815 42.2769L5.86115 42.0419C6.02764 41.8392 6.26595 41.5488 6.55333 41.1982C7.12808 40.4969 7.89916 39.5546 8.68437 38.5905C9.46946 37.6265 10.2692 36.64 10.9011 35.8506C11.5235 35.0731 12.0042 34.461 12.1308 34.2651L11.7949 34.0479L12.1301 34.2662C12.2765 34.0414 12.501 33.8698 12.7525 33.7313C13.0655 33.5631 13.4134 33.4641 13.7818 33.4265C15.0667 33.3036 16.1062 33.0296 16.6243 32.8691L16.6244 32.869C16.8418 32.8015 17.0675 32.7167 17.2829 32.6055C17.3216 32.5867 17.3637 32.5662 17.4088 32.5442C17.9624 32.2747 18.962 31.7881 19.5909 31.5276L19.5913 31.5275C19.8532 31.4187 20.0577 31.2861 20.194 31.1196C20.3397 30.9415 20.3943 30.7389 20.3689 30.5438C20.3143 30.1254 19.9264 29.9284 19.6277 29.9284H19.6191L19.6105 29.9288L14.0558 30.1678L14.0526 30.168C14.0172 30.1698 13.9795 30.14 13.9807 30.0926L13.5809 30.0823ZM13.5809 30.0823C13.5738 30.3565 13.7988 30.5815 14.073 30.5675M13.5809 30.0823C13.6058 29.4382 13.6237 28.3472 13.5312 27.7891C13.5326 27.7879 13.5333 27.7872 13.5333 27.7871C13.5333 27.7869 13.5326 27.7874 13.5312 27.7887C13.4934 27.5611 13.4373 27.4223 13.3559 27.4385C13.2808 27.4542 13.1932 27.552 13.1011 27.6984C13.1003 27.6971 13.0999 27.6964 13.0999 27.6965C13.0998 27.6965 13.1001 27.6973 13.1007 27.699C12.9859 27.8817 12.8642 28.1399 12.7512 28.4089C12.4227 29.1936 11.9521 29.9204 11.3804 30.5575L14.073 30.5675M14.073 30.5675L19.6277 30.3284L14.073 30.5675Z" fill="#FBE6D1" stroke="#6A509A" stroke-width="0.8"/>
<path style="mix-blend-mode:multiply" opacity="0.54" d="M4.36641 39.7625C4.36641 39.7625 11.4469 32.5766 13.4859 32.4641L6.56719 41.0563L4.35938 39.7625H4.36641Z" fill="url(#paint0_linear_65_15101)" fill-opacity="0.82"/>
<path d="M31.2903 23.3433C31.3484 23.2885 31.3978 23.2413 31.4371 23.2035L40.9486 22.3791L40.9566 22.3784L40.9645 22.3774L40.9141 21.9806C40.9645 22.3774 40.9647 22.3774 40.9648 22.3774L40.9652 22.3773L40.966 22.3772L40.9679 22.377L40.973 22.3763L40.9886 22.374C41.0013 22.372 41.0185 22.3692 41.04 22.3653C41.0829 22.3576 41.1429 22.3455 41.2175 22.3274C41.3666 22.2912 41.5746 22.2308 41.8219 22.1327C42.3165 21.9364 42.9696 21.5881 43.6203 20.9788C44.2238 20.4137 44.9038 19.8088 45.4342 19.3442C45.6991 19.1121 45.9261 18.9155 46.0868 18.777C46.1672 18.7077 46.231 18.653 46.2746 18.6157L46.3244 18.573L46.3372 18.5621L46.3404 18.5594L46.3412 18.5587L46.3414 18.5586L46.3414 18.5586L46.082 18.2541L46.3414 18.5585L46.6095 18.3302L46.4169 18.0353L43.3302 13.3103L43.0138 12.826L42.6724 13.293L40.7075 15.9807C40.3497 16.4372 39.8811 16.7919 39.3467 17.0032L39.3452 17.0038C38.2222 17.4529 36.2485 18.2252 34.3578 18.8732C33.412 19.1974 32.4926 19.4885 31.7136 19.6925C30.9178 19.9009 30.3192 20.004 29.9892 19.9852L29.9673 19.9839C29.9631 19.9829 29.9587 19.9817 29.9541 19.9804C29.9011 19.966 29.8176 19.9385 29.7132 19.8881C29.5059 19.788 29.21 19.5946 28.9041 19.2232C28.6905 18.9638 28.4249 18.7869 28.1224 18.779C27.8119 18.771 27.5737 18.9436 27.4354 19.1476C27.1757 19.5307 27.1681 20.1795 27.6739 20.5573L27.9133 20.2369L27.6721 20.556C27.8842 20.7163 27.9572 20.9117 27.9814 21.067C27.9886 21.1251 27.9652 21.1848 27.9128 21.2243C27.6602 21.412 27.2192 21.7212 26.7355 21.9742C26.2347 22.2363 25.7596 22.3993 25.4175 22.3762C24.8844 22.3372 24.4075 22.8374 24.5857 23.4018L24.5857 23.4019L24.5877 23.4079C24.6383 23.5597 24.7247 23.7272 24.8645 23.9023C25.1815 24.3061 25.828 24.7982 26.5362 25.1129C27.2328 25.4226 28.124 25.6191 28.8619 25.2229C29.4724 24.895 30.1469 24.3571 30.6554 23.9169C30.9128 23.694 31.1337 23.4908 31.2903 23.3433Z" fill="#FBE6D1" stroke="#6A509A" stroke-width="0.8"/>
<path d="M34.5938 19.2244C34.5938 19.2244 38.5242 18.6057 39.5156 18.0713C40.507 17.5369 44.7117 15.9338 45.3094 18.9432L46.0969 18.2611L43.0102 13.5361L40.732 16.5736C40.732 16.5736 40.0992 17.1502 39.5016 17.3822L34.6008 19.2244H34.5938Z" fill="#FFD9B2"/>
</g>
</g>
<defs>
<linearGradient id="paint0_linear_65_15101" x1="11.1375" y1="38.954" x2="7.88906" y2="34.7704" gradientUnits="userSpaceOnUse">
<stop offset="0.26" stop-color="#EAA574"/>
<stop offset="0.7" stop-color="#F4C09D" stop-opacity="0"/>
</linearGradient>
<clipPath id="clip0_65_15101">
<rect width="45" height="45" fill="white" transform="translate(0 0.5)"/>
</clipPath>
</defs>
</svg>
