<svg xmlns="http://www.w3.org/2000/svg" width="30" height="32" viewBox="0 0 30 32">
    <g>
        <path fill="#f58520" d="M29.184 10.745l-1.5 1.455a6.524 6.524 0 0 1 0 9.455l1.5 1.455a8.193 8.193 0 0 0 0-12.364zM26.03 13.8l-1.5 1.455a2.766 2.766 0 0 1 0 3.345l1.5 1.455a4.293 4.293 0 0 0 0-6.255zM20.023 1H5a2.966 2.966 0 0 0-3 2.909v26.182A2.966 2.966 0 0 0 5 33h15.023a2.966 2.966 0 0 0 3-2.909V3.909a2.966 2.966 0 0 0-3-2.909zm0 27.636H5V5.364h15.023z" transform="translate(-2 -1)"/>
    </g>
</svg>
