<svg width="24" height="24" viewBox="0 0 24 24" fill="none" xmlns="http://www.w3.org/2000/svg">
<path fill-rule="evenodd" clip-rule="evenodd" d="M7.5 3.25C7.22386 3.25 7 3.47386 7 3.75V4.25H17V3.75C17 3.47386 16.7761 3.25 16.5 3.25H7.5ZM19 3.75C19 2.36929 17.8807 1.25 16.5 1.25H7.5C6.11929 1.25 5 2.36929 5 3.75V20.25C5 21.6307 6.11929 22.75 7.5 22.75H16.5C17.8807 22.75 19 21.6307 19 20.25V3.75ZM17 6.25H7V17.75H17V6.25ZM17 19.75H7V20.25C7 20.5261 7.22386 20.75 7.5 20.75H16.5C16.7761 20.75 17 20.5261 17 20.25V19.75Z" fill="#034B7F"/>
</svg>
