<svg width="24" height="24" viewBox="0 0 24 24" fill="none" xmlns="http://www.w3.org/2000/svg">
<path d="M4.7383 5.94764C4.65301 6.03861 4.60184 6.15802 4.60184 6.28879V20.2987C4.60184 20.2987 4.5393 22.5219 6.29054 22.6186H17.4917C17.4917 22.6186 19.3908 22.4594 19.3908 20.7195V2.80336C19.3908 2.80336 19.169 1.19995 17.7873 1.19995H9.50873C9.38365 1.19995 9.26424 1.25112 9.17896 1.3421L4.7383 5.94764Z" stroke="#034B7F" stroke-width="2" stroke-miterlimit="10" stroke-linecap="round" stroke-linejoin="round"/>
<path d="M8.21256 20.2991H15.8146C16.5253 20.2991 17.1052 19.7191 17.1052 19.0084V9.58122C17.1052 8.87048 16.5253 8.29053 15.8146 8.29053H8.21256C7.50183 8.29053 6.92188 8.87048 6.92188 9.58122V19.0141C6.92188 19.7248 7.49615 20.2991 8.21256 20.2991Z" stroke="#034B7F" stroke-width="1.5" stroke-miterlimit="10" stroke-linecap="round" stroke-linejoin="round"/>
<path d="M16.7475 14.2937H7.25781" stroke="#034B7F" stroke-width="1.2" stroke-miterlimit="10" stroke-linecap="round" stroke-linejoin="round"/>
<path d="M13.8594 8.67188V11.7252" stroke="#034B7F" stroke-width="1.2" stroke-miterlimit="10" stroke-linecap="round" stroke-linejoin="round"/>
<path d="M10.0879 8.67188V11.7252" stroke="#034B7F" stroke-width="1.2" stroke-miterlimit="10" stroke-linecap="round" stroke-linejoin="round"/>
<path d="M10.0879 14.76V17.2561" stroke="#034B7F" stroke-width="1.2" stroke-miterlimit="10" stroke-linecap="round" stroke-linejoin="round"/>
<path d="M13.8594 14.76V17.2561" stroke="#034B7F" stroke-width="1.2" stroke-miterlimit="10" stroke-linecap="round" stroke-linejoin="round"/>
<path d="M11.9746 16.8647V19.8669" stroke="#034B7F" stroke-width="1.2" stroke-miterlimit="10" stroke-linecap="round" stroke-linejoin="round"/>
</svg>
