<svg width="22" height="24" viewBox="0 0 22 24" fill="none" xmlns="http://www.w3.org/2000/svg">
<path d="M3.23658 16.9453H4.64283V18.3516H3.23658V16.9453Z" fill="#005895"/>
<path d="M6.0608 16.9453H7.46705V18.3516H6.0608V16.9453Z" fill="#005895"/>
<path d="M8.88502 16.9453H10.2913V18.3516H8.88502V16.9453Z" fill="#005895"/>
<path d="M11.7092 16.9453H13.1155V18.3516H11.7092V16.9453Z" fill="#005895"/>
<path d="M11 4.23633H15.9395V5.64258H11V4.23633Z" fill="#005895"/>
<path d="M11 7.06055H15.9395V8.4668H11V7.06055Z" fill="#005895"/>
<path d="M11 9.88477H15.9395V11.291H11V9.88477Z" fill="#005895"/>
<path d="M11 12.709H15.9395V14.1152H11V12.709Z" fill="#005895"/>
<path d="M14.5335 16.9453H15.9397V18.3516H14.5335V16.9453Z" fill="#005895"/>
<path d="M21.5881 2.11523C21.5881 0.948891 20.6393 0 19.4729 0H2.5276C1.36125 0 0.412361 0.948891 0.412361 2.11523V23.9999L3.18914 22.5253L5.35228 23.9964L7.47038 22.5557L9.58857 23.9964L11.7066 22.5558L13.8247 23.9964L15.9876 22.5253L18.7639 24V7.05469H21.5881V2.11523ZM17.3577 21.6608L15.898 20.8855L13.8246 22.2958L11.7065 20.855L9.58843 22.2958L7.47028 20.8551L5.35219 22.2958L3.27858 20.8855L1.81856 21.6608V2.11523C1.81861 1.7243 2.13666 1.40625 2.5276 1.40625H17.4803C17.4011 1.62802 17.3577 1.86661 17.3577 2.11523V21.6608ZM20.1819 5.64844H18.7639V2.11523C18.7639 1.7243 19.082 1.40625 19.4729 1.40625C19.8638 1.40625 20.1819 1.7243 20.1819 2.11523V5.64844Z" fill="#005895"/>
<path d="M8.87984 10.6552C8.87984 9.46022 7.90765 8.48804 6.71267 8.48804H5.90848C5.48891 8.48804 5.14756 8.14669 5.14756 7.72716C5.14756 7.30758 5.48891 6.96624 5.90848 6.96624H6.69425C7.11434 6.96624 7.45611 7.308 7.45611 7.72805H8.86235C8.86235 6.64111 8.05826 5.73863 7.0137 5.58371V4.57861H5.60745V5.58136C4.5545 5.72841 3.74132 6.63436 3.74132 7.72716C3.74132 8.9221 4.7135 9.89429 5.90848 9.89429H6.71267C7.13225 9.89429 7.47359 10.2356 7.47359 10.6552C7.47359 11.0748 7.13225 11.4161 6.71267 11.4161H5.89419C5.48891 11.4161 5.15919 11.0864 5.15919 10.6811H3.75294C3.75294 11.7645 4.56191 12.662 5.60745 12.8026V13.8037H7.0137V12.8011C8.06665 12.654 8.87984 11.7481 8.87984 10.6552Z" fill="#005895"/>
</svg>
