<svg width="24" height="24" viewBox="0 0 24 24" fill="none" xmlns="http://www.w3.org/2000/svg">
<g clip-path="url(#clip0_61_19594)">
<g clip-path="url(#clip1_61_19594)">
<path d="M6 7.5V3.75H18V7.5" stroke="#005895" stroke-width="2" stroke-linecap="round" stroke-linejoin="round"/>
<path d="M18 14.25H6V20.625H18V14.25Z" stroke="#005895" stroke-width="2" stroke-linecap="round" stroke-linejoin="round"/>
<path d="M6 16.5H2.625V9C2.625 8.175 3.35625 7.5 4.24687 7.5H19.7531C20.6437 7.5 21.375 8.175 21.375 9V16.5H18" stroke="#005895" stroke-width="2" stroke-linecap="round" stroke-linejoin="round"/>
<path d="M17.625 12C18.2463 12 18.75 11.4963 18.75 10.875C18.75 10.2537 18.2463 9.75 17.625 9.75C17.0037 9.75 16.5 10.2537 16.5 10.875C16.5 11.4963 17.0037 12 17.625 12Z" fill="#005895"/>
</g>
</g>
<defs>
<clipPath id="clip0_61_19594">
<rect width="24" height="24" fill="white"/>
</clipPath>
<clipPath id="clip1_61_19594">
<rect width="24" height="24" fill="white"/>
</clipPath>
</defs>
</svg>
