<svg width="24" height="25" viewBox="0 0 24 25" fill="none" xmlns="http://www.w3.org/2000/svg">
<g clip-path="url(#clip0)">
<path d="M20.4844 6.54688H19.8281V4.01562C19.8281 2.07711 18.251 0.5 16.3125 0.5H7.6875C5.74898 0.5 4.17188 2.07711 4.17188 4.01562V6.54688H3.51562C1.57711 6.54688 0 8.12398 0 10.0625V15.6875C0 17.626 1.57711 19.2031 3.51562 19.2031H4.17188V22.3906C4.17188 23.5537 5.11814 24.5 6.28125 24.5H17.7188C18.8819 24.5 19.8281 23.5537 19.8281 22.3906V19.2031H20.4844C22.4229 19.2031 24 17.626 24 15.6875V10.0625C24 8.12398 22.4229 6.54688 20.4844 6.54688ZM5.57812 4.01562C5.57812 2.85252 6.52439 1.90625 7.6875 1.90625H16.3125C17.4756 1.90625 18.4219 2.85252 18.4219 4.01562V6.54688H5.57812V4.01562ZM18.4219 22.3906C18.4219 22.7783 18.1065 23.0938 17.7188 23.0938H6.28125C5.89355 23.0938 5.57812 22.7783 5.57812 22.3906V15.4531H18.4219V22.3906ZM22.5938 15.6875C22.5938 16.8506 21.6475 17.7969 20.4844 17.7969H19.8281V15.4531H20.25C20.6383 15.4531 20.9531 15.1383 20.9531 14.75C20.9531 14.3617 20.6383 14.0469 20.25 14.0469H3.75C3.36169 14.0469 3.04688 14.3617 3.04688 14.75C3.04688 15.1383 3.36169 15.4531 3.75 15.4531H4.17188V17.7969H3.51562C2.35252 17.7969 1.40625 16.8506 1.40625 15.6875V10.0625C1.40625 8.89939 2.35252 7.95312 3.51562 7.95312H20.4844C21.6475 7.95312 22.5938 8.89939 22.5938 10.0625V15.6875Z" fill="#F58520"/>
<path d="M13.875 17.0469H10.125C9.73669 17.0469 9.42188 17.3617 9.42188 17.75C9.42188 18.1383 9.73669 18.4531 10.125 18.4531H13.875C14.2633 18.4531 14.5781 18.1383 14.5781 17.75C14.5781 17.3617 14.2633 17.0469 13.875 17.0469Z" fill="#F58520"/>
<path d="M13.875 20.0469H10.125C9.73669 20.0469 9.42188 20.3617 9.42188 20.75C9.42188 21.1383 9.73669 21.4531 10.125 21.4531H13.875C14.2633 21.4531 14.5781 21.1383 14.5781 20.75C14.5781 20.3617 14.2633 20.0469 13.875 20.0469Z" fill="#F58520"/>
<path d="M6 9.54688H3.75C3.36169 9.54688 3.04688 9.86169 3.04688 10.25C3.04688 10.6383 3.36169 10.9531 3.75 10.9531H6C6.38831 10.9531 6.70312 10.6383 6.70312 10.25C6.70312 9.86169 6.38831 9.54688 6 9.54688Z" fill="#F58520"/>
</g>
<defs>
<clipPath id="clip0">
<rect width="24" height="24" fill="white" transform="translate(0 0.5)"/>
</clipPath>
</defs>
</svg>
