<svg width="80" height="80" viewBox="0 0 80 80" fill="none" xmlns="http://www.w3.org/2000/svg">
<circle cx="40" cy="26.0001" r="22" fill="#592266"/>
<path fill-rule="evenodd" clip-rule="evenodd" d="M38.853 11.6151C39.202 11.4154 39.5972 11.3103 39.9993 11.3103C40.4015 11.3103 40.7967 11.4154 41.1457 11.6151L52.1453 17.8023C52.5039 18.006 52.8026 18.3007 53.011 18.6566C53.2195 19.0125 53.3304 19.4171 53.3327 19.8296L53.3327 19.8368L53.3327 32.1618H51.9995L53.3327 32.1689C53.3304 32.5814 53.2195 32.986 53.011 33.3419C52.8026 33.6978 52.5039 33.9925 52.1453 34.1962L52.1405 34.1989L41.1456 40.3835C40.7966 40.5832 40.4015 40.6882 39.9993 40.6882C39.5972 40.6882 39.202 40.5832 38.8531 40.3835L27.8582 34.1989L27.8534 34.1962C27.4948 33.9925 27.1961 33.6978 26.9877 33.3419C26.7792 32.986 26.6683 32.5814 26.666 32.1689L26.666 32.1618V19.8296C26.6682 19.4171 26.7792 19.0125 26.9877 18.6566C27.1961 18.3007 27.4948 18.006 27.8534 17.8023L27.8582 17.7997L38.853 11.6151ZM50.666 31.9687V20.0298L39.9993 14.0298L29.3327 20.0298V31.9687L39.9993 37.9687L50.666 31.9687Z" fill="white"/>
<path fill-rule="evenodd" clip-rule="evenodd" d="M32.8321 15.2314C33.1877 14.5866 33.9987 14.3522 34.6435 14.7079L46.7685 21.3954C47.1938 21.6299 47.4579 22.0772 47.4579 22.5629V29.0629C47.4579 29.7993 46.861 30.3962 46.1246 30.3962C45.3882 30.3962 44.7913 29.7993 44.7913 29.0629V23.3502L33.3557 17.0429C32.7108 16.6873 32.4764 15.8763 32.8321 15.2314Z" fill="white"/>
<path fill-rule="evenodd" clip-rule="evenodd" d="M26.9697 18.6776C27.3283 18.0344 28.1403 17.8036 28.7835 18.1621L40.1032 24.4718L51.2008 18.1674C51.841 17.8037 52.6549 18.0279 53.0187 18.6681C53.3824 19.3084 53.1582 20.1223 52.5179 20.4861L40.768 27.1611C40.3629 27.3912 39.8671 27.3932 39.4602 27.1664L27.4852 20.4914C26.842 20.1328 26.6112 19.3208 26.9697 18.6776Z" fill="white"/>
<path fill-rule="evenodd" clip-rule="evenodd" d="M40.1231 24.6669C40.8594 24.6731 41.4513 25.275 41.4451 26.0114L41.3326 39.3614C41.3264 40.0977 40.7245 40.6896 39.9881 40.6834C39.2518 40.6772 38.6599 40.0753 38.6661 39.3389L38.7786 25.9889C38.7848 25.2526 39.3867 24.6607 40.1231 24.6669Z" fill="white"/>
<path d="M10.7734 70.0001V61.6212H14.1719C15.8828 61.6212 16.7383 62.3693 16.7383 63.8654C16.7383 65.4943 15.5684 66.4884 13.2285 66.8478L13.0059 65.9337C14.7246 65.6798 15.584 65.006 15.584 63.9122C15.584 62.9825 15.0801 62.5177 14.0723 62.5177H11.8574V70.0001H10.7734ZM18.0625 70.0001V63.8478H18.7949L18.9883 64.6329C19.5273 64.1095 20.1758 63.8478 20.9336 63.8478V64.7501C20.1992 64.7501 19.6035 65.0099 19.1465 65.5294V70.0001H18.0625ZM22.8145 66.9005C22.8145 68.381 23.4297 69.1212 24.6602 69.1212C25.8906 69.1212 26.5059 68.381 26.5059 66.9005C26.5059 65.4513 25.8906 64.7267 24.6602 64.7267C23.4297 64.7267 22.8145 65.4513 22.8145 66.9005ZM21.7305 66.924C21.7305 64.8732 22.707 63.8478 24.6602 63.8478C26.6133 63.8478 27.5898 64.8732 27.5898 66.924C27.5898 68.9708 26.6133 69.9943 24.6602 69.9943C22.7148 69.9943 21.7383 68.9708 21.7305 66.924ZM33.6836 69.8243C33.1758 69.9415 32.6289 70.0001 32.043 70.0001C29.8555 70.0001 28.7617 68.9357 28.7617 66.8068C28.7617 64.8341 29.8555 63.8478 32.043 63.8478C32.6289 63.8478 33.1758 63.9064 33.6836 64.0236V64.9025C33.1758 64.7853 32.6094 64.7267 31.9844 64.7267C30.5586 64.7267 29.8457 65.42 29.8457 66.8068C29.8457 68.3497 30.5586 69.1212 31.9844 69.1212C32.6094 69.1212 33.1758 69.0626 33.6836 68.9454V69.8243ZM37.6035 63.8478C39.3535 63.8478 40.2285 64.713 40.2285 66.4435C40.2285 66.6896 40.2109 66.9532 40.1758 67.2345H35.8574C35.8574 68.4923 36.5918 69.1212 38.0605 69.1212C38.7598 69.1212 39.3809 69.0431 39.9238 68.8868V69.7657C39.3809 69.922 38.7207 70.0001 37.9434 70.0001C35.8301 70.0001 34.7734 68.9513 34.7734 66.8536C34.7734 64.8497 35.7168 63.8478 37.6035 63.8478ZM35.8574 66.3322H39.1855C39.1621 65.254 38.6348 64.715 37.6035 64.715C36.5098 64.715 35.9277 65.254 35.8574 66.3322ZM41.6289 69.7072V68.7697C42.3516 69.004 43.082 69.1212 43.8203 69.1212C44.8008 69.1212 45.291 68.8282 45.291 68.2423C45.291 67.6954 44.9492 67.422 44.2656 67.422H43.3867C42.0586 67.422 41.3945 66.8165 41.3945 65.6056C41.3945 64.4337 42.248 63.8478 43.9551 63.8478C44.6895 63.8478 45.418 63.9454 46.1406 64.1407V65.0782C45.418 64.8439 44.6895 64.7267 43.9551 64.7267C42.9316 64.7267 42.4199 65.0197 42.4199 65.6056C42.4199 66.1525 42.7422 66.4259 43.3867 66.4259H44.2656C45.6719 66.4259 46.375 67.0314 46.375 68.2423C46.375 69.4142 45.5234 70.0001 43.8203 70.0001C43.082 70.0001 42.3516 69.9025 41.6289 69.7072ZM47.7812 69.7072V68.7697C48.5039 69.004 49.2344 69.1212 49.9727 69.1212C50.9531 69.1212 51.4434 68.8282 51.4434 68.2423C51.4434 67.6954 51.1016 67.422 50.418 67.422H49.5391C48.2109 67.422 47.5469 66.8165 47.5469 65.6056C47.5469 64.4337 48.4004 63.8478 50.1074 63.8478C50.8418 63.8478 51.5703 63.9454 52.293 64.1407V65.0782C51.5703 64.8439 50.8418 64.7267 50.1074 64.7267C49.084 64.7267 48.5723 65.0197 48.5723 65.6056C48.5723 66.1525 48.8945 66.4259 49.5391 66.4259H50.418C51.8242 66.4259 52.5273 67.0314 52.5273 68.2423C52.5273 69.4142 51.6758 70.0001 49.9727 70.0001C49.2344 70.0001 48.5039 69.9025 47.7812 69.7072ZM55.1934 63.8478V70.0001H54.1094V63.8478H55.1934ZM55.1934 61.6212V62.6466H54.1094V61.6212H55.1934ZM57.0742 70.0001V63.8478H57.8066L58 64.6329C58.6289 64.1095 59.3203 63.8478 60.0742 63.8478C61.6094 63.8478 62.377 64.6115 62.377 66.1388V70.0001H61.293V66.1212C61.293 65.2072 60.8379 64.7501 59.9277 64.7501C59.3066 64.7501 58.7168 65.0099 58.1582 65.5294V70.0001H57.0742ZM68.2539 64.8907C67.8828 64.797 67.4238 64.7501 66.877 64.7501C65.5684 64.7501 64.9141 65.4591 64.9141 66.8771C64.9141 68.3341 65.5332 69.0626 66.7715 69.0626C67.334 69.0626 67.8281 68.9572 68.2539 68.7462V64.8907ZM69.3379 70.0001C69.3379 71.4845 68.3945 72.2267 66.5078 72.2267C65.75 72.2267 65.0781 72.129 64.4922 71.9337V71.0548C65.0898 71.2501 65.7656 71.3478 66.5195 71.3478C67.6758 71.3478 68.2539 70.8986 68.2539 70.0001V69.7072C67.793 69.9025 67.2969 70.0001 66.7656 70.0001C64.8203 70.0001 63.8477 68.963 63.8477 66.8888C63.8477 64.8615 64.873 63.8478 66.9238 63.8478C67.7559 63.8478 68.5605 63.9318 69.3379 64.0997V70.0001Z" fill="#383838"/>
</svg>
