<svg width="80" height="80" viewBox="0 0 80 80" fill="none" xmlns="http://www.w3.org/2000/svg">
<circle cx="40" cy="26.0001" r="22" fill="#412B71"/>
<g clip-path="url(#clip0_18_8091)">
<path d="M52 32.1627V19.8377C51.999 19.6596 51.9512 19.485 51.8612 19.3314C51.7712 19.1778 51.6423 19.0506 51.4875 18.9627L40.4875 12.7752C40.3393 12.6896 40.1711 12.6445 40 12.6445C39.8289 12.6445 39.6607 12.6896 39.5125 12.7752L28.5125 18.9627C28.3577 19.0506 28.2288 19.1778 28.1388 19.3314C28.0488 19.485 28.001 19.6596 28 19.8377V32.1627C28.001 32.3407 28.0488 32.5153 28.1388 32.6689C28.2288 32.8226 28.3577 32.9497 28.5125 33.0377L39.5125 39.2252C39.6607 39.3107 39.8289 39.3558 40 39.3558C40.1711 39.3558 40.3393 39.3107 40.4875 39.2252L51.4875 33.0377C51.6423 32.9497 51.7712 32.8226 51.8612 32.6689C51.9512 32.5153 51.999 32.3407 52 32.1627V32.1627Z" stroke="#FBFBFB" stroke-width="2" stroke-linecap="round" stroke-linejoin="round"/>
<path d="M46.125 29.0626V22.5626L34 15.8751" stroke="#FBFBFB" stroke-width="2" stroke-linecap="round" stroke-linejoin="round"/>
<path d="M51.8624 19.3251L40.1125 26.0001L28.1375 19.3251" stroke="#FBFBFB" stroke-width="2" stroke-linecap="round" stroke-linejoin="round"/>
<path d="M40.1125 26.0001L40 39.3501" stroke="#FBFBFB" stroke-width="2" stroke-linecap="round" stroke-linejoin="round"/>
</g>
<path d="M19.832 63.6388C19.832 64.0177 19.7695 64.3595 19.6445 64.6642C19.5195 64.9689 19.3398 65.2286 19.1055 65.4435C18.875 65.6583 18.5898 65.8243 18.25 65.9415C17.9141 66.0587 17.5117 66.1173 17.043 66.1173H16.1816V68.8478C16.1816 68.879 16.1719 68.9064 16.1523 68.9298C16.1367 68.9532 16.1094 68.9728 16.0703 68.9884C16.0352 69.0001 15.9844 69.0099 15.918 69.0177C15.8555 69.0294 15.7754 69.0353 15.6777 69.0353C15.5801 69.0353 15.498 69.0294 15.4316 69.0177C15.3691 69.0099 15.3184 69.0001 15.2793 68.9884C15.2402 68.9728 15.2129 68.9532 15.1973 68.9298C15.1816 68.9064 15.1738 68.879 15.1738 68.8478V61.8517C15.1738 61.6954 15.2148 61.5841 15.2969 61.5177C15.3789 61.4513 15.4707 61.4181 15.5723 61.4181H17.1953C17.3594 61.4181 17.5156 61.4259 17.6641 61.4415C17.8164 61.4532 17.9941 61.4825 18.1973 61.5294C18.4043 61.5724 18.6133 61.6564 18.8242 61.7814C19.0391 61.9025 19.2207 62.0529 19.3691 62.2325C19.5176 62.4122 19.6309 62.6212 19.709 62.8595C19.791 63.0939 19.832 63.3536 19.832 63.6388ZM18.7715 63.7208C18.7715 63.4122 18.7129 63.1544 18.5957 62.9474C18.4824 62.7404 18.3398 62.5861 18.168 62.4845C18 62.3829 17.8242 62.3185 17.6406 62.2911C17.4609 62.2638 17.2852 62.2501 17.1133 62.2501H16.1816V65.2911H17.0898C17.3945 65.2911 17.6465 65.2521 17.8457 65.174C18.0488 65.0958 18.2188 64.9884 18.3555 64.8517C18.4922 64.7111 18.5957 64.545 18.666 64.3536C18.7363 64.1583 18.7715 63.9474 18.7715 63.7208ZM24.3438 63.9259C24.3438 64.0118 24.3418 64.0841 24.3379 64.1427C24.334 64.2013 24.3262 64.2482 24.3145 64.2833C24.3027 64.3146 24.2871 64.34 24.2676 64.3595C24.252 64.3751 24.2285 64.3829 24.1973 64.3829C24.166 64.3829 24.127 64.3751 24.0801 64.3595C24.0371 64.34 23.9863 64.3224 23.9277 64.3068C23.873 64.2872 23.8105 64.2697 23.7402 64.254C23.6699 64.2384 23.5938 64.2306 23.5117 64.2306C23.4141 64.2306 23.3184 64.2501 23.2246 64.2892C23.1309 64.3282 23.0312 64.3927 22.9258 64.4825C22.8242 64.5724 22.7168 64.6915 22.6035 64.84C22.4902 64.9884 22.3652 65.17 22.2285 65.3849V68.8536C22.2285 68.8849 22.2207 68.9122 22.2051 68.9357C22.1895 68.9552 22.1641 68.9728 22.1289 68.9884C22.0938 69.004 22.0449 69.0157 21.9824 69.0236C21.9199 69.0314 21.8398 69.0353 21.7422 69.0353C21.6484 69.0353 21.5703 69.0314 21.5078 69.0236C21.4453 69.0157 21.3945 69.004 21.3555 68.9884C21.3203 68.9728 21.2949 68.9552 21.2793 68.9357C21.2676 68.9122 21.2617 68.8849 21.2617 68.8536V63.5802C21.2617 63.549 21.2676 63.5236 21.2793 63.504C21.291 63.4806 21.3145 63.4611 21.3496 63.4454C21.3848 63.4259 21.4297 63.4142 21.4844 63.4103C21.5391 63.4025 21.6113 63.3986 21.7012 63.3986C21.7871 63.3986 21.8574 63.4025 21.9121 63.4103C21.9707 63.4142 22.0156 63.4259 22.0469 63.4454C22.0781 63.4611 22.0996 63.4806 22.1113 63.504C22.127 63.5236 22.1348 63.549 22.1348 63.5802V64.3478C22.2793 64.1368 22.4141 63.965 22.5391 63.8322C22.668 63.6993 22.7891 63.5958 22.9023 63.5216C23.0156 63.4435 23.127 63.3907 23.2363 63.3634C23.3496 63.3322 23.4629 63.3165 23.5762 63.3165C23.627 63.3165 23.6836 63.3204 23.7461 63.3282C23.8125 63.3322 23.8809 63.3419 23.9512 63.3575C24.0215 63.3732 24.084 63.3907 24.1387 63.4103C24.1973 63.4298 24.2383 63.4493 24.2617 63.4689C24.2852 63.4884 24.3008 63.5079 24.3086 63.5275C24.3164 63.5431 24.3223 63.5646 24.3262 63.5919C24.334 63.6193 24.3379 63.6603 24.3379 63.715C24.3418 63.7657 24.3438 63.8361 24.3438 63.9259ZM30.1504 66.1583C30.1504 66.588 30.0938 66.9845 29.9805 67.3478C29.8672 67.7072 29.6973 68.0177 29.4707 68.2794C29.248 68.5411 28.9668 68.7462 28.627 68.8947C28.291 69.0392 27.9004 69.1115 27.4551 69.1115C27.0215 69.1115 26.6426 69.047 26.3184 68.9181C25.998 68.7892 25.7305 68.6017 25.5156 68.3556C25.3008 68.1095 25.1406 67.8107 25.0352 67.4591C24.9297 67.1075 24.877 66.7091 24.877 66.2638C24.877 65.8341 24.9316 65.4396 25.041 65.0802C25.1543 64.7169 25.3223 64.4044 25.5449 64.1427C25.7715 63.881 26.0527 63.6779 26.3887 63.5333C26.7246 63.3888 27.1172 63.3165 27.5664 63.3165C28 63.3165 28.377 63.381 28.6973 63.5099C29.0215 63.6388 29.291 63.8263 29.5059 64.0724C29.7207 64.3185 29.8809 64.6173 29.9863 64.9689C30.0957 65.3204 30.1504 65.7169 30.1504 66.1583ZM29.1309 66.2228C29.1309 65.9376 29.1035 65.6681 29.0488 65.4142C28.998 65.1603 28.9121 64.9376 28.791 64.7462C28.6699 64.5548 28.5059 64.4044 28.2988 64.295C28.0918 64.1818 27.834 64.1251 27.5254 64.1251C27.2402 64.1251 26.9941 64.1759 26.7871 64.2775C26.584 64.379 26.416 64.5236 26.2832 64.7111C26.1504 64.8947 26.0508 65.1134 25.9844 65.3673C25.9219 65.6212 25.8906 65.8986 25.8906 66.1993C25.8906 66.4884 25.916 66.7599 25.9668 67.0138C26.0215 67.2677 26.1094 67.4904 26.2305 67.6818C26.3555 67.8693 26.5215 68.0197 26.7285 68.1329C26.9355 68.2423 27.1934 68.297 27.502 68.297C27.7832 68.297 28.0273 68.2462 28.2344 68.1447C28.4414 68.0431 28.6113 67.9005 28.7441 67.7169C28.877 67.5333 28.9746 67.3146 29.0371 67.0607C29.0996 66.8068 29.1309 66.5275 29.1309 66.2228ZM35.3652 68.0509C35.3652 68.1173 35.3633 68.1759 35.3594 68.2267C35.3555 68.2736 35.3477 68.3146 35.3359 68.3497C35.3281 68.381 35.3164 68.4103 35.3008 68.4376C35.2891 68.4611 35.2578 68.4982 35.207 68.549C35.1602 68.5958 35.0781 68.6564 34.9609 68.7306C34.8438 68.8009 34.7109 68.8654 34.5625 68.924C34.418 68.9786 34.2598 69.0236 34.0879 69.0587C33.916 69.0939 33.7383 69.1115 33.5547 69.1115C33.1758 69.1115 32.8398 69.049 32.5469 68.924C32.2539 68.799 32.0078 68.6173 31.8086 68.379C31.6133 68.1368 31.4629 67.8419 31.3574 67.4943C31.2559 67.1427 31.2051 66.7384 31.2051 66.2814C31.2051 65.7618 31.2676 65.3165 31.3926 64.9454C31.5215 64.5704 31.6953 64.2638 31.9141 64.0255C32.1367 63.7872 32.3965 63.6115 32.6934 63.4982C32.9941 63.381 33.3184 63.3224 33.666 63.3224C33.834 63.3224 33.9961 63.338 34.1523 63.3693C34.3125 63.4005 34.459 63.4415 34.5918 63.4923C34.7246 63.5431 34.8418 63.6017 34.9434 63.6681C35.0488 63.7345 35.125 63.7911 35.1719 63.838C35.2188 63.8849 35.25 63.922 35.2656 63.9493C35.2852 63.9767 35.3008 64.0099 35.3125 64.049C35.3242 64.0841 35.332 64.1251 35.3359 64.172C35.3398 64.2189 35.3418 64.2775 35.3418 64.3478C35.3418 64.5001 35.3242 64.6075 35.2891 64.67C35.2539 64.7286 35.2109 64.7579 35.1602 64.7579C35.1016 64.7579 35.0332 64.7267 34.9551 64.6642C34.8809 64.5978 34.7852 64.5255 34.668 64.4474C34.5508 64.3693 34.4082 64.299 34.2402 64.2365C34.0762 64.17 33.8809 64.1368 33.6543 64.1368C33.1895 64.1368 32.832 64.3165 32.582 64.6759C32.3359 65.0314 32.2129 65.549 32.2129 66.2286C32.2129 66.5685 32.2441 66.8673 32.3066 67.1251C32.373 67.379 32.4688 67.5919 32.5938 67.7638C32.7188 67.9357 32.8711 68.0646 33.0508 68.1505C33.2344 68.2325 33.4434 68.2736 33.6777 68.2736C33.9004 68.2736 34.0957 68.2384 34.2637 68.1681C34.4316 68.0978 34.5762 68.0216 34.6973 67.9396C34.8223 67.8536 34.9258 67.7775 35.0078 67.7111C35.0938 67.6407 35.1602 67.6056 35.207 67.6056C35.2344 67.6056 35.2578 67.6134 35.2773 67.629C35.2969 67.6447 35.3125 67.672 35.3242 67.7111C35.3398 67.7462 35.3496 67.7931 35.3535 67.8517C35.3613 67.9064 35.3652 67.9728 35.3652 68.0509ZM41.1484 65.9884C41.1484 66.1407 41.1094 66.2501 41.0312 66.3165C40.957 66.379 40.8711 66.4103 40.7734 66.4103H37.3164C37.3164 66.7032 37.3457 66.9669 37.4043 67.2013C37.4629 67.4357 37.5605 67.6368 37.6973 67.8048C37.834 67.9728 38.0117 68.1017 38.2305 68.1915C38.4492 68.2814 38.7168 68.3263 39.0332 68.3263C39.2832 68.3263 39.5059 68.3068 39.7012 68.2677C39.8965 68.2247 40.0645 68.1779 40.2051 68.1271C40.3496 68.0763 40.4668 68.0314 40.5566 67.9923C40.6504 67.9493 40.7207 67.9279 40.7676 67.9279C40.7949 67.9279 40.8184 67.9357 40.8379 67.9513C40.8613 67.963 40.8789 67.9825 40.8906 68.0099C40.9023 68.0372 40.9102 68.0763 40.9141 68.1271C40.9219 68.174 40.9258 68.2325 40.9258 68.3029C40.9258 68.3536 40.9238 68.3986 40.9199 68.4376C40.916 68.4728 40.9102 68.506 40.9023 68.5372C40.8984 68.5646 40.8887 68.59 40.873 68.6134C40.8613 68.6368 40.8438 68.6603 40.8203 68.6837C40.8008 68.7032 40.7383 68.7384 40.6328 68.7892C40.5273 68.8361 40.3906 68.8829 40.2227 68.9298C40.0547 68.9767 39.8594 69.0177 39.6367 69.0529C39.418 69.0919 39.1836 69.1115 38.9336 69.1115C38.5 69.1115 38.1191 69.0509 37.791 68.9298C37.4668 68.8087 37.1934 68.629 36.9707 68.3907C36.748 68.1525 36.5801 67.8536 36.4668 67.4943C36.3535 67.1349 36.2969 66.7169 36.2969 66.2404C36.2969 65.7872 36.3555 65.381 36.4727 65.0216C36.5898 64.6583 36.7578 64.3517 36.9766 64.1017C37.1992 63.8478 37.4668 63.6544 37.7793 63.5216C38.0918 63.3849 38.4414 63.3165 38.8281 63.3165C39.2422 63.3165 39.5938 63.3829 39.8828 63.5157C40.1758 63.6486 40.416 63.8282 40.6035 64.0548C40.791 64.2775 40.9277 64.5411 41.0137 64.8458C41.1035 65.1466 41.1484 65.4689 41.1484 65.8126V65.9884ZM40.1758 65.7013C40.1875 65.1935 40.0742 64.795 39.8359 64.506C39.6016 64.2169 39.252 64.0724 38.7871 64.0724C38.5488 64.0724 38.3398 64.1173 38.1602 64.2072C37.9805 64.297 37.8301 64.4161 37.709 64.5646C37.5879 64.713 37.4941 64.8868 37.4277 65.0861C37.3613 65.2814 37.3242 65.4865 37.3164 65.7013H40.1758ZM45.9355 67.4181C45.9355 67.6876 45.8848 67.9279 45.7832 68.1388C45.6855 68.3497 45.5449 68.5275 45.3613 68.672C45.1777 68.8165 44.959 68.9259 44.7051 69.0001C44.4512 69.0743 44.1719 69.1115 43.8672 69.1115C43.6797 69.1115 43.5 69.0958 43.3281 69.0646C43.1602 69.0372 43.0078 69.0021 42.8711 68.9591C42.7383 68.9122 42.625 68.8654 42.5312 68.8185C42.4375 68.7677 42.3691 68.7228 42.3262 68.6837C42.2832 68.6447 42.252 68.59 42.2324 68.5197C42.2129 68.4493 42.2031 68.3536 42.2031 68.2325C42.2031 68.1583 42.207 68.0958 42.2148 68.045C42.2227 67.9943 42.2324 67.9532 42.2441 67.922C42.2559 67.8907 42.2715 67.8693 42.291 67.8575C42.3145 67.8419 42.3398 67.8341 42.3672 67.8341C42.4102 67.8341 42.4727 67.8615 42.5547 67.9161C42.6406 67.9669 42.7441 68.0236 42.8652 68.0861C42.9902 68.1486 43.1367 68.2072 43.3047 68.2618C43.4727 68.3126 43.666 68.338 43.8848 68.338C44.0488 68.338 44.1973 68.3204 44.3301 68.2853C44.4629 68.2501 44.5781 68.1993 44.6758 68.1329C44.7734 68.0626 44.8477 67.9747 44.8984 67.8693C44.9531 67.7638 44.9805 67.6388 44.9805 67.4943C44.9805 67.3458 44.9414 67.2208 44.8633 67.1193C44.7891 67.0177 44.6895 66.9279 44.5645 66.8497C44.4395 66.7716 44.2988 66.7032 44.1426 66.6447C43.9863 66.5822 43.8242 66.5177 43.6562 66.4513C43.4922 66.3849 43.3301 66.3107 43.1699 66.2286C43.0137 66.1427 42.873 66.0392 42.748 65.9181C42.623 65.797 42.5215 65.6525 42.4434 65.4845C42.3691 65.3165 42.332 65.1154 42.332 64.881C42.332 64.674 42.3711 64.4767 42.4492 64.2892C42.5312 64.0978 42.6523 63.9318 42.8125 63.7911C42.9727 63.6466 43.1719 63.5314 43.4102 63.4454C43.6523 63.3595 43.9336 63.3165 44.2539 63.3165C44.3945 63.3165 44.5352 63.3282 44.6758 63.3517C44.8164 63.3751 44.9434 63.4044 45.0566 63.4396C45.1699 63.4747 45.2656 63.5138 45.3438 63.5568C45.4258 63.5958 45.4863 63.631 45.5254 63.6622C45.5684 63.6935 45.5957 63.7208 45.6074 63.7443C45.623 63.7677 45.6328 63.795 45.6367 63.8263C45.6445 63.8536 45.6504 63.8888 45.6543 63.9318C45.6621 63.9747 45.666 64.0275 45.666 64.09C45.666 64.1564 45.6621 64.215 45.6543 64.2657C45.6504 64.3126 45.6406 64.3517 45.625 64.3829C45.6133 64.4142 45.5977 64.4376 45.5781 64.4532C45.5586 64.465 45.5371 64.4708 45.5137 64.4708C45.4785 64.4708 45.4277 64.4493 45.3613 64.4064C45.2949 64.3634 45.209 64.3185 45.1035 64.2716C44.998 64.2208 44.873 64.174 44.7285 64.131C44.5879 64.088 44.4258 64.0665 44.2422 64.0665C44.0781 64.0665 43.9336 64.0861 43.8086 64.1251C43.6836 64.1603 43.5801 64.213 43.498 64.2833C43.4199 64.3497 43.3594 64.4298 43.3164 64.5236C43.2773 64.6173 43.2578 64.7189 43.2578 64.8282C43.2578 64.9806 43.2969 65.1095 43.375 65.215C43.4531 65.3165 43.5547 65.4064 43.6797 65.4845C43.8047 65.5626 43.9473 65.6329 44.1074 65.6954C44.2676 65.7579 44.4297 65.8224 44.5938 65.8888C44.7617 65.9552 44.9258 66.0294 45.0859 66.1115C45.25 66.1935 45.3945 66.2931 45.5195 66.4103C45.6445 66.5275 45.7441 66.6681 45.8184 66.8322C45.8965 66.9962 45.9355 67.1915 45.9355 67.4181ZM50.6348 67.4181C50.6348 67.6876 50.584 67.9279 50.4824 68.1388C50.3848 68.3497 50.2441 68.5275 50.0605 68.672C49.877 68.8165 49.6582 68.9259 49.4043 69.0001C49.1504 69.0743 48.8711 69.1115 48.5664 69.1115C48.3789 69.1115 48.1992 69.0958 48.0273 69.0646C47.8594 69.0372 47.707 69.0021 47.5703 68.9591C47.4375 68.9122 47.3242 68.8654 47.2305 68.8185C47.1367 68.7677 47.0684 68.7228 47.0254 68.6837C46.9824 68.6447 46.9512 68.59 46.9316 68.5197C46.9121 68.4493 46.9023 68.3536 46.9023 68.2325C46.9023 68.1583 46.9062 68.0958 46.9141 68.045C46.9219 67.9943 46.9316 67.9532 46.9434 67.922C46.9551 67.8907 46.9707 67.8693 46.9902 67.8575C47.0137 67.8419 47.0391 67.8341 47.0664 67.8341C47.1094 67.8341 47.1719 67.8615 47.2539 67.9161C47.3398 67.9669 47.4434 68.0236 47.5645 68.0861C47.6895 68.1486 47.8359 68.2072 48.0039 68.2618C48.1719 68.3126 48.3652 68.338 48.584 68.338C48.748 68.338 48.8965 68.3204 49.0293 68.2853C49.1621 68.2501 49.2773 68.1993 49.375 68.1329C49.4727 68.0626 49.5469 67.9747 49.5977 67.8693C49.6523 67.7638 49.6797 67.6388 49.6797 67.4943C49.6797 67.3458 49.6406 67.2208 49.5625 67.1193C49.4883 67.0177 49.3887 66.9279 49.2637 66.8497C49.1387 66.7716 48.998 66.7032 48.8418 66.6447C48.6855 66.5822 48.5234 66.5177 48.3555 66.4513C48.1914 66.3849 48.0293 66.3107 47.8691 66.2286C47.7129 66.1427 47.5723 66.0392 47.4473 65.9181C47.3223 65.797 47.2207 65.6525 47.1426 65.4845C47.0684 65.3165 47.0312 65.1154 47.0312 64.881C47.0312 64.674 47.0703 64.4767 47.1484 64.2892C47.2305 64.0978 47.3516 63.9318 47.5117 63.7911C47.6719 63.6466 47.8711 63.5314 48.1094 63.4454C48.3516 63.3595 48.6328 63.3165 48.9531 63.3165C49.0938 63.3165 49.2344 63.3282 49.375 63.3517C49.5156 63.3751 49.6426 63.4044 49.7559 63.4396C49.8691 63.4747 49.9648 63.5138 50.043 63.5568C50.125 63.5958 50.1855 63.631 50.2246 63.6622C50.2676 63.6935 50.2949 63.7208 50.3066 63.7443C50.3223 63.7677 50.332 63.795 50.3359 63.8263C50.3438 63.8536 50.3496 63.8888 50.3535 63.9318C50.3613 63.9747 50.3652 64.0275 50.3652 64.09C50.3652 64.1564 50.3613 64.215 50.3535 64.2657C50.3496 64.3126 50.3398 64.3517 50.3242 64.3829C50.3125 64.4142 50.2969 64.4376 50.2773 64.4532C50.2578 64.465 50.2363 64.4708 50.2129 64.4708C50.1777 64.4708 50.127 64.4493 50.0605 64.4064C49.9941 64.3634 49.9082 64.3185 49.8027 64.2716C49.6973 64.2208 49.5723 64.174 49.4277 64.131C49.2871 64.088 49.125 64.0665 48.9414 64.0665C48.7773 64.0665 48.6328 64.0861 48.5078 64.1251C48.3828 64.1603 48.2793 64.213 48.1973 64.2833C48.1191 64.3497 48.0586 64.4298 48.0156 64.5236C47.9766 64.6173 47.957 64.7189 47.957 64.8282C47.957 64.9806 47.9961 65.1095 48.0742 65.215C48.1523 65.3165 48.2539 65.4064 48.3789 65.4845C48.5039 65.5626 48.6465 65.6329 48.8066 65.6954C48.9668 65.7579 49.1289 65.8224 49.293 65.8888C49.4609 65.9552 49.625 66.0294 49.7852 66.1115C49.9492 66.1935 50.0938 66.2931 50.2188 66.4103C50.3438 66.5275 50.4434 66.6681 50.5176 66.8322C50.5957 66.9962 50.6348 67.1915 50.6348 67.4181ZM52.9902 68.8536C52.9902 68.8849 52.9824 68.9122 52.9668 68.9357C52.9512 68.9552 52.9258 68.9728 52.8906 68.9884C52.8555 69.004 52.8066 69.0157 52.7441 69.0236C52.6816 69.0314 52.6016 69.0353 52.5039 69.0353C52.4102 69.0353 52.332 69.0314 52.2695 69.0236C52.207 69.0157 52.1562 69.004 52.1172 68.9884C52.082 68.9728 52.0566 68.9552 52.041 68.9357C52.0293 68.9122 52.0234 68.8849 52.0234 68.8536V63.5802C52.0234 63.5529 52.0293 63.5275 52.041 63.504C52.0566 63.4806 52.082 63.4611 52.1172 63.4454C52.1562 63.4298 52.207 63.4181 52.2695 63.4103C52.332 63.4025 52.4102 63.3986 52.5039 63.3986C52.6016 63.3986 52.6816 63.4025 52.7441 63.4103C52.8066 63.4181 52.8555 63.4298 52.8906 63.4454C52.9258 63.4611 52.9512 63.4806 52.9668 63.504C52.9824 63.5275 52.9902 63.5529 52.9902 63.5802V68.8536ZM53.1016 61.799C53.1016 62.0255 53.0586 62.1798 52.9727 62.2618C52.8867 62.3439 52.7285 62.3849 52.498 62.3849C52.2715 62.3849 52.1152 62.3458 52.0293 62.2677C51.9473 62.1857 51.9062 62.0333 51.9062 61.8107C51.9062 61.5841 51.9492 61.4298 52.0352 61.3478C52.1211 61.2657 52.2793 61.2247 52.5098 61.2247C52.7363 61.2247 52.8906 61.2657 52.9727 61.3478C53.0586 61.4259 53.1016 61.5763 53.1016 61.799ZM59.3184 68.8536C59.3184 68.8849 59.3105 68.9122 59.2949 68.9357C59.2793 68.9552 59.2539 68.9728 59.2188 68.9884C59.1836 69.004 59.1348 69.0157 59.0723 69.0236C59.0098 69.0314 58.9316 69.0353 58.8379 69.0353C58.7402 69.0353 58.6602 69.0314 58.5977 69.0236C58.5352 69.0157 58.4863 69.004 58.4512 68.9884C58.416 68.9728 58.3906 68.9552 58.375 68.9357C58.3594 68.9122 58.3516 68.8849 58.3516 68.8536V65.7657C58.3516 65.465 58.3281 65.2228 58.2812 65.0392C58.2344 64.8556 58.166 64.6974 58.0762 64.5646C57.9863 64.4318 57.8691 64.3302 57.7246 64.2599C57.584 64.1896 57.4199 64.1544 57.2324 64.1544C56.9902 64.1544 56.748 64.2404 56.5059 64.4122C56.2637 64.5841 56.0098 64.8361 55.7441 65.1681V68.8536C55.7441 68.8849 55.7363 68.9122 55.7207 68.9357C55.7051 68.9552 55.6797 68.9728 55.6445 68.9884C55.6094 69.004 55.5605 69.0157 55.498 69.0236C55.4355 69.0314 55.3555 69.0353 55.2578 69.0353C55.1641 69.0353 55.0859 69.0314 55.0234 69.0236C54.9609 69.0157 54.9102 69.004 54.8711 68.9884C54.8359 68.9728 54.8105 68.9552 54.7949 68.9357C54.7832 68.9122 54.7773 68.8849 54.7773 68.8536V63.5802C54.7773 63.549 54.7832 63.5236 54.7949 63.504C54.8066 63.4806 54.8301 63.4611 54.8652 63.4454C54.9004 63.4259 54.9453 63.4142 55 63.4103C55.0547 63.4025 55.127 63.3986 55.2168 63.3986C55.3027 63.3986 55.373 63.4025 55.4277 63.4103C55.4863 63.4142 55.5312 63.4259 55.5625 63.4454C55.5938 63.4611 55.6152 63.4806 55.627 63.504C55.6426 63.5236 55.6504 63.549 55.6504 63.5802V64.2775C55.9473 63.9454 56.2422 63.7032 56.5352 63.5509C56.832 63.3947 57.1309 63.3165 57.4316 63.3165C57.7832 63.3165 58.0781 63.3771 58.3164 63.4982C58.5586 63.6154 58.7539 63.7736 58.9023 63.9728C59.0508 64.172 59.1562 64.4064 59.2188 64.6759C59.2852 64.9415 59.3184 65.2618 59.3184 65.6368V68.8536ZM65.4883 63.8204C65.4883 63.9572 65.4688 64.0568 65.4297 64.1193C65.3945 64.1779 65.3477 64.2072 65.2891 64.2072H64.5332C64.6699 64.3478 64.7656 64.504 64.8203 64.6759C64.875 64.8439 64.9023 65.0197 64.9023 65.2032C64.9023 65.5079 64.8535 65.7775 64.7559 66.0118C64.6582 66.2462 64.5176 66.4454 64.334 66.6095C64.1543 66.7697 63.9395 66.8927 63.6895 66.9786C63.4395 67.0646 63.1621 67.1075 62.8574 67.1075C62.6426 67.1075 62.4375 67.0802 62.2422 67.0255C62.0508 66.9669 61.9023 66.8947 61.7969 66.8087C61.7266 66.879 61.668 66.9591 61.6211 67.049C61.5781 67.1388 61.5566 67.2423 61.5566 67.3595C61.5566 67.4962 61.6191 67.6095 61.7441 67.6993C61.873 67.7892 62.043 67.838 62.2539 67.8458L63.6309 67.9044C63.8926 67.9122 64.1328 67.9493 64.3516 68.0157C64.5703 68.0782 64.7598 68.17 64.9199 68.2911C65.0801 68.4083 65.2051 68.5548 65.2949 68.7306C65.3848 68.9025 65.4297 69.1036 65.4297 69.3341C65.4297 69.5763 65.3789 69.8068 65.2773 70.0255C65.1758 70.2443 65.0195 70.4357 64.8086 70.5997C64.6016 70.7677 64.3359 70.8986 64.0117 70.9923C63.6875 71.09 63.3047 71.1388 62.8633 71.1388C62.4375 71.1388 62.0742 71.1017 61.7734 71.0275C61.4766 70.9572 61.2324 70.8595 61.041 70.7345C60.8496 70.6095 60.7109 70.4591 60.625 70.2833C60.5391 70.1115 60.4961 69.924 60.4961 69.7208C60.4961 69.5919 60.5117 69.4669 60.543 69.3458C60.5742 69.2247 60.6211 69.1095 60.6836 69.0001C60.75 68.8907 60.8301 68.7872 60.9238 68.6896C61.0215 68.588 61.1328 68.4884 61.2578 68.3907C61.0664 68.2931 60.9238 68.17 60.8301 68.0216C60.7402 67.8732 60.6953 67.713 60.6953 67.5411C60.6953 67.3029 60.7441 67.09 60.8418 66.9025C60.9395 66.715 61.0605 66.547 61.2051 66.3986C61.084 66.254 60.9883 66.0919 60.918 65.9122C60.8477 65.7286 60.8125 65.5079 60.8125 65.2501C60.8125 64.9493 60.8633 64.6798 60.9648 64.4415C61.0664 64.2032 61.207 64.0021 61.3867 63.838C61.5664 63.674 61.7812 63.549 62.0312 63.463C62.2852 63.3732 62.5605 63.3282 62.8574 63.3282C63.0176 63.3282 63.166 63.338 63.3027 63.3575C63.4434 63.3732 63.5742 63.3966 63.6953 63.4279H65.2891C65.3555 63.4279 65.4043 63.4611 65.4355 63.5275C65.4707 63.59 65.4883 63.6876 65.4883 63.8204ZM63.9766 65.2091C63.9766 64.8497 63.877 64.5704 63.6777 64.3712C63.4824 64.1681 63.2031 64.0665 62.8398 64.0665C62.6523 64.0665 62.4883 64.0978 62.3477 64.1603C62.2109 64.2228 62.0957 64.3087 62.002 64.4181C61.9121 64.5275 61.8438 64.6544 61.7969 64.799C61.7539 64.9396 61.7324 65.088 61.7324 65.2443C61.7324 65.5919 61.8301 65.8654 62.0254 66.0646C62.2246 66.2638 62.502 66.3634 62.8574 66.3634C63.0488 66.3634 63.2148 66.3341 63.3555 66.2755C63.4961 66.213 63.6113 66.129 63.7012 66.0236C63.7949 65.9142 63.8633 65.7892 63.9062 65.6486C63.9531 65.5079 63.9766 65.3615 63.9766 65.2091ZM64.4629 69.3868C64.4629 69.1603 64.3691 68.9865 64.1816 68.8654C63.998 68.7404 63.748 68.674 63.4316 68.6661L62.0664 68.6193C61.9414 68.7169 61.8379 68.8107 61.7559 68.9005C61.6777 68.9865 61.6152 69.0685 61.5684 69.1466C61.5215 69.2286 61.4883 69.3087 61.4688 69.3868C61.4531 69.465 61.4453 69.545 61.4453 69.6271C61.4453 69.881 61.5742 70.0724 61.832 70.2013C62.0898 70.3341 62.4492 70.4005 62.9102 70.4005C63.2031 70.4005 63.4473 70.3712 63.6426 70.3126C63.8418 70.2579 64.002 70.1837 64.123 70.09C64.2441 69.9962 64.3301 69.8888 64.3809 69.7677C64.4355 69.6466 64.4629 69.5197 64.4629 69.3868Z" fill="#090909"/>
<defs>
<clipPath id="clip0_18_8091">
<rect width="32" height="32" fill="white" transform="translate(24 10.0001)"/>
</clipPath>
</defs>
</svg>
