<svg width="80" height="80" viewBox="0 0 80 80" fill="none" xmlns="http://www.w3.org/2000/svg">
<circle cx="40" cy="26" r="22" fill="#DADADA"/>
<path fill-rule="evenodd" clip-rule="evenodd" d="M38.855 11.6149C39.204 11.4153 39.5991 11.3102 40.0013 11.3102C40.4035 11.3102 40.7986 11.4153 41.1476 11.6149L52.1472 17.8022C52.5059 18.0059 52.8045 18.3006 53.013 18.6565C53.2215 19.0124 53.3324 19.417 53.3346 19.8295L53.3347 19.8366L53.3346 32.1616H52.0014L53.3346 32.1688C53.3324 32.5813 53.2215 32.9859 53.013 33.3418C52.8045 33.6977 52.5059 33.9924 52.1472 34.1961L52.1425 34.1987L41.1476 40.3834C40.7986 40.583 40.4035 40.6881 40.0013 40.6881C39.5991 40.6881 39.204 40.583 38.855 40.3834L27.8601 34.1987L27.8554 34.1961C27.4967 33.9924 27.1981 33.6977 26.9896 33.3418C26.7811 32.9859 26.6702 32.5813 26.668 32.1688L26.668 32.1616V19.8295C26.6702 19.417 26.7811 19.0124 26.9896 18.6565C27.1981 18.3006 27.4967 18.0059 27.8554 17.8022L27.8601 17.7995L38.855 11.6149ZM50.668 31.9686V20.0297L40.0013 14.0297L29.3346 20.0297V31.9686L40.0013 37.9686L50.668 31.9686Z" fill="#939699"/>
<path fill-rule="evenodd" clip-rule="evenodd" d="M32.834 15.2313C33.1897 14.5865 34.0007 14.3521 34.6455 14.7077L46.7705 21.3952C47.1958 21.6298 47.4599 22.077 47.4599 22.5627V29.0627C47.4599 29.7991 46.8629 30.3961 46.1265 30.3961C45.3902 30.3961 44.7932 29.7991 44.7932 29.0627V23.35L33.3576 17.0428C32.7128 16.6871 32.4784 15.8761 32.834 15.2313Z" fill="#939699"/>
<path fill-rule="evenodd" clip-rule="evenodd" d="M26.9697 18.6774C27.3283 18.0342 28.1403 17.8035 28.7835 18.162L40.1032 24.4717L51.2008 18.1673C51.841 17.8036 52.6549 18.0277 53.0187 18.668C53.3824 19.3083 53.1582 20.1222 52.5179 20.4859L40.768 27.1609C40.3629 27.3911 39.8671 27.3931 39.4602 27.1662L27.4852 20.4912C26.842 20.1327 26.6112 19.3206 26.9697 18.6774Z" fill="#939699"/>
<path fill-rule="evenodd" clip-rule="evenodd" d="M40.125 24.6667C40.8614 24.6729 41.4533 25.2749 41.4471 26.0112L41.3346 39.3612C41.3284 40.0976 40.7264 40.6895 39.9901 40.6833C39.2537 40.6771 38.6618 40.0751 38.668 39.3388L38.7805 25.9888C38.7867 25.2524 39.3887 24.6605 40.125 24.6667Z" fill="#939699"/>
<path d="M15.5462 66.86C15.8782 66.86 16.1702 66.816 16.4222 66.728C16.6782 66.64 16.8922 66.518 17.0642 66.362C17.2402 66.202 17.3722 66.012 17.4602 65.792C17.5482 65.572 17.5922 65.33 17.5922 65.066C17.5922 64.518 17.4222 64.09 17.0822 63.782C16.7462 63.474 16.2342 63.32 15.5462 63.32H14.1662V66.86H15.5462ZM15.5462 62.402C16.0902 62.402 16.5622 62.466 16.9622 62.594C17.3662 62.718 17.7002 62.896 17.9642 63.128C18.2282 63.36 18.4242 63.64 18.5522 63.968C18.6842 64.296 18.7502 64.662 18.7502 65.066C18.7502 65.466 18.6802 65.832 18.5402 66.164C18.4002 66.496 18.1942 66.782 17.9222 67.022C17.6542 67.262 17.3202 67.45 16.9202 67.586C16.5242 67.718 16.0662 67.784 15.5462 67.784H14.1662V71H13.0082V62.402H15.5462ZM20.86 66.14C21.052 65.724 21.288 65.4 21.568 65.168C21.848 64.932 22.19 64.814 22.594 64.814C22.722 64.814 22.844 64.828 22.96 64.856C23.08 64.884 23.186 64.928 23.278 64.988L23.2 65.786C23.176 65.886 23.116 65.936 23.02 65.936C22.964 65.936 22.882 65.924 22.774 65.9C22.666 65.876 22.544 65.864 22.408 65.864C22.216 65.864 22.044 65.892 21.892 65.948C21.744 66.004 21.61 66.088 21.49 66.2C21.374 66.308 21.268 66.444 21.172 66.608C21.08 66.768 20.996 66.952 20.92 67.16V71H19.846V64.922H20.458C20.574 64.922 20.654 64.944 20.698 64.988C20.742 65.032 20.772 65.108 20.788 65.216L20.86 66.14ZM26.533 64.826C26.977 64.826 27.377 64.9 27.733 65.048C28.089 65.196 28.393 65.406 28.645 65.678C28.897 65.95 29.089 66.28 29.221 66.668C29.357 67.052 29.425 67.482 29.425 67.958C29.425 68.438 29.357 68.87 29.221 69.254C29.089 69.638 28.897 69.966 28.645 70.238C28.393 70.51 28.089 70.72 27.733 70.868C27.377 71.012 26.977 71.084 26.533 71.084C26.085 71.084 25.681 71.012 25.321 70.868C24.965 70.72 24.661 70.51 24.409 70.238C24.157 69.966 23.963 69.638 23.827 69.254C23.695 68.87 23.629 68.438 23.629 67.958C23.629 67.482 23.695 67.052 23.827 66.668C23.963 66.28 24.157 65.95 24.409 65.678C24.661 65.406 24.965 65.196 25.321 65.048C25.681 64.9 26.085 64.826 26.533 64.826ZM26.533 70.25C27.133 70.25 27.581 70.05 27.877 69.65C28.173 69.246 28.321 68.684 28.321 67.964C28.321 67.24 28.173 66.676 27.877 66.272C27.581 65.868 27.133 65.666 26.533 65.666C26.229 65.666 25.963 65.718 25.735 65.822C25.511 65.926 25.323 66.076 25.171 66.272C25.023 66.468 24.911 66.71 24.835 66.998C24.763 67.282 24.727 67.604 24.727 67.964C24.727 68.684 24.875 69.246 25.171 69.65C25.471 70.05 25.925 70.25 26.533 70.25ZM35.0096 66.002C34.9776 66.046 34.9456 66.08 34.9136 66.104C34.8816 66.128 34.8376 66.14 34.7816 66.14C34.7216 66.14 34.6556 66.116 34.5836 66.068C34.5116 66.016 34.4216 65.96 34.3136 65.9C34.2096 65.84 34.0796 65.786 33.9236 65.738C33.7716 65.686 33.5836 65.66 33.3596 65.66C33.0596 65.66 32.7956 65.714 32.5676 65.822C32.3396 65.926 32.1476 66.078 31.9916 66.278C31.8396 66.478 31.7236 66.72 31.6436 67.004C31.5676 67.288 31.5296 67.606 31.5296 67.958C31.5296 68.326 31.5716 68.654 31.6556 68.942C31.7396 69.226 31.8576 69.466 32.0096 69.662C32.1656 69.854 32.3516 70.002 32.5676 70.106C32.7876 70.206 33.0336 70.256 33.3056 70.256C33.5656 70.256 33.7796 70.226 33.9476 70.166C34.1156 70.102 34.2536 70.032 34.3616 69.956C34.4736 69.88 34.5656 69.812 34.6376 69.752C34.7136 69.688 34.7876 69.656 34.8596 69.656C34.9476 69.656 35.0156 69.69 35.0636 69.758L35.3636 70.148C35.2316 70.312 35.0816 70.452 34.9136 70.568C34.7456 70.684 34.5636 70.782 34.3676 70.862C34.1756 70.938 33.9736 70.994 33.7616 71.03C33.5496 71.066 33.3336 71.084 33.1136 71.084C32.7336 71.084 32.3796 71.014 32.0516 70.874C31.7276 70.734 31.4456 70.532 31.2056 70.268C30.9656 70 30.7776 69.672 30.6416 69.284C30.5056 68.896 30.4376 68.454 30.4376 67.958C30.4376 67.506 30.4996 67.088 30.6236 66.704C30.7516 66.32 30.9356 65.99 31.1756 65.714C31.4196 65.434 31.7176 65.216 32.0696 65.06C32.4256 64.904 32.8336 64.826 33.2936 64.826C33.7216 64.826 34.0976 64.896 34.4216 65.036C34.7496 65.172 35.0396 65.366 35.2916 65.618L35.0096 66.002ZM40.4726 67.298C40.4726 67.05 40.4366 66.824 40.3646 66.62C40.2966 66.412 40.1946 66.234 40.0586 66.086C39.9266 65.934 39.7646 65.818 39.5726 65.738C39.3806 65.654 39.1626 65.612 38.9186 65.612C38.4066 65.612 38.0006 65.762 37.7006 66.062C37.4046 66.358 37.2206 66.77 37.1486 67.298H40.4726ZM41.3366 70.148C41.2046 70.308 41.0466 70.448 40.8626 70.568C40.6786 70.684 40.4806 70.78 40.2686 70.856C40.0606 70.932 39.8446 70.988 39.6206 71.024C39.3966 71.064 39.1746 71.084 38.9546 71.084C38.5346 71.084 38.1466 71.014 37.7906 70.874C37.4386 70.73 37.1326 70.522 36.8726 70.25C36.6166 69.974 36.4166 69.634 36.2726 69.23C36.1286 68.826 36.0566 68.362 36.0566 67.838C36.0566 67.414 36.1206 67.018 36.2486 66.65C36.3806 66.282 36.5686 65.964 36.8126 65.696C37.0566 65.424 37.3546 65.212 37.7066 65.06C38.0586 64.904 38.4546 64.826 38.8946 64.826C39.2586 64.826 39.5946 64.888 39.9026 65.012C40.2146 65.132 40.4826 65.308 40.7066 65.54C40.9346 65.768 41.1126 66.052 41.2406 66.392C41.3686 66.728 41.4326 67.112 41.4326 67.544C41.4326 67.712 41.4146 67.824 41.3786 67.88C41.3426 67.936 41.2746 67.964 41.1746 67.964H37.1126C37.1246 68.348 37.1766 68.682 37.2686 68.966C37.3646 69.25 37.4966 69.488 37.6646 69.68C37.8326 69.868 38.0326 70.01 38.2646 70.106C38.4966 70.198 38.7566 70.244 39.0446 70.244C39.3126 70.244 39.5426 70.214 39.7346 70.154C39.9306 70.09 40.0986 70.022 40.2386 69.95C40.3786 69.878 40.4946 69.812 40.5866 69.752C40.6826 69.688 40.7646 69.656 40.8326 69.656C40.9206 69.656 40.9886 69.69 41.0366 69.758L41.3366 70.148ZM46.2844 65.924C46.2364 66.012 46.1624 66.056 46.0624 66.056C46.0024 66.056 45.9344 66.034 45.8584 65.99C45.7824 65.946 45.6884 65.898 45.5764 65.846C45.4684 65.79 45.3384 65.74 45.1864 65.696C45.0344 65.648 44.8544 65.624 44.6464 65.624C44.4664 65.624 44.3044 65.648 44.1604 65.696C44.0164 65.74 43.8924 65.802 43.7884 65.882C43.6884 65.962 43.6104 66.056 43.5544 66.164C43.5024 66.268 43.4764 66.382 43.4764 66.506C43.4764 66.662 43.5204 66.792 43.6084 66.896C43.7004 67 43.8204 67.09 43.9684 67.166C44.1164 67.242 44.2844 67.31 44.4724 67.37C44.6604 67.426 44.8524 67.488 45.0484 67.556C45.2484 67.62 45.4424 67.692 45.6304 67.772C45.8184 67.852 45.9864 67.952 46.1344 68.072C46.2824 68.192 46.4004 68.34 46.4884 68.516C46.5804 68.688 46.6264 68.896 46.6264 69.14C46.6264 69.42 46.5764 69.68 46.4764 69.92C46.3764 70.156 46.2284 70.362 46.0324 70.538C45.8364 70.71 45.5964 70.846 45.3124 70.946C45.0284 71.046 44.7004 71.096 44.3284 71.096C43.9044 71.096 43.5204 71.028 43.1764 70.892C42.8324 70.752 42.5404 70.574 42.3004 70.358L42.5524 69.95C42.5844 69.898 42.6224 69.858 42.6664 69.83C42.7104 69.802 42.7664 69.788 42.8344 69.788C42.9064 69.788 42.9824 69.816 43.0624 69.872C43.1424 69.928 43.2384 69.99 43.3504 70.058C43.4664 70.126 43.6064 70.188 43.7704 70.244C43.9344 70.3 44.1384 70.328 44.3824 70.328C44.5904 70.328 44.7724 70.302 44.9284 70.25C45.0844 70.194 45.2144 70.12 45.3184 70.028C45.4224 69.936 45.4984 69.83 45.5464 69.71C45.5984 69.59 45.6244 69.462 45.6244 69.326C45.6244 69.158 45.5784 69.02 45.4864 68.912C45.3984 68.8 45.2804 68.706 45.1324 68.63C44.9844 68.55 44.8144 68.482 44.6224 68.426C44.4344 68.366 44.2404 68.304 44.0404 68.24C43.8444 68.176 43.6504 68.104 43.4584 68.024C43.2704 67.94 43.1024 67.836 42.9544 67.712C42.8064 67.588 42.6864 67.436 42.5944 67.256C42.5064 67.072 42.4624 66.85 42.4624 66.59C42.4624 66.358 42.5104 66.136 42.6064 65.924C42.7024 65.708 42.8424 65.52 43.0264 65.36C43.2104 65.196 43.4364 65.066 43.7044 64.97C43.9724 64.874 44.2784 64.826 44.6224 64.826C45.0224 64.826 45.3804 64.89 45.6964 65.018C46.0164 65.142 46.2924 65.314 46.5244 65.534L46.2844 65.924ZM51.4758 65.924C51.4278 66.012 51.3538 66.056 51.2538 66.056C51.1938 66.056 51.1258 66.034 51.0498 65.99C50.9738 65.946 50.8798 65.898 50.7678 65.846C50.6598 65.79 50.5298 65.74 50.3778 65.696C50.2258 65.648 50.0458 65.624 49.8378 65.624C49.6578 65.624 49.4958 65.648 49.3518 65.696C49.2078 65.74 49.0838 65.802 48.9798 65.882C48.8798 65.962 48.8018 66.056 48.7458 66.164C48.6938 66.268 48.6678 66.382 48.6678 66.506C48.6678 66.662 48.7118 66.792 48.7998 66.896C48.8918 67 49.0118 67.09 49.1598 67.166C49.3078 67.242 49.4758 67.31 49.6638 67.37C49.8518 67.426 50.0438 67.488 50.2398 67.556C50.4398 67.62 50.6338 67.692 50.8218 67.772C51.0098 67.852 51.1778 67.952 51.3258 68.072C51.4738 68.192 51.5918 68.34 51.6798 68.516C51.7718 68.688 51.8178 68.896 51.8178 69.14C51.8178 69.42 51.7678 69.68 51.6678 69.92C51.5678 70.156 51.4198 70.362 51.2238 70.538C51.0278 70.71 50.7878 70.846 50.5038 70.946C50.2198 71.046 49.8918 71.096 49.5198 71.096C49.0958 71.096 48.7118 71.028 48.3678 70.892C48.0238 70.752 47.7318 70.574 47.4918 70.358L47.7438 69.95C47.7758 69.898 47.8138 69.858 47.8578 69.83C47.9018 69.802 47.9578 69.788 48.0258 69.788C48.0978 69.788 48.1738 69.816 48.2538 69.872C48.3338 69.928 48.4298 69.99 48.5418 70.058C48.6578 70.126 48.7978 70.188 48.9618 70.244C49.1258 70.3 49.3298 70.328 49.5738 70.328C49.7818 70.328 49.9638 70.302 50.1198 70.25C50.2758 70.194 50.4058 70.12 50.5098 70.028C50.6138 69.936 50.6898 69.83 50.7378 69.71C50.7898 69.59 50.8158 69.462 50.8158 69.326C50.8158 69.158 50.7698 69.02 50.6778 68.912C50.5898 68.8 50.4718 68.706 50.3238 68.63C50.1758 68.55 50.0058 68.482 49.8138 68.426C49.6258 68.366 49.4318 68.304 49.2318 68.24C49.0358 68.176 48.8418 68.104 48.6498 68.024C48.4618 67.94 48.2938 67.836 48.1458 67.712C47.9978 67.588 47.8778 67.436 47.7858 67.256C47.6978 67.072 47.6538 66.85 47.6538 66.59C47.6538 66.358 47.7018 66.136 47.7978 65.924C47.8938 65.708 48.0338 65.52 48.2178 65.36C48.4018 65.196 48.6278 65.066 48.8958 64.97C49.1638 64.874 49.4698 64.826 49.8138 64.826C50.2138 64.826 50.5718 64.89 50.8878 65.018C51.2078 65.142 51.4838 65.314 51.7158 65.534L51.4758 65.924ZM54.2553 64.922V71H53.1873V64.922H54.2553ZM54.4833 63.014C54.4833 63.118 54.4613 63.216 54.4173 63.308C54.3773 63.396 54.3213 63.476 54.2493 63.548C54.1813 63.616 54.0993 63.67 54.0033 63.71C53.9112 63.75 53.8133 63.77 53.7093 63.77C53.6053 63.77 53.5073 63.75 53.4153 63.71C53.3273 63.67 53.2493 63.616 53.1813 63.548C53.1133 63.476 53.0593 63.396 53.0193 63.308C52.9793 63.216 52.9593 63.118 52.9593 63.014C52.9593 62.91 52.9793 62.812 53.0193 62.72C53.0593 62.624 53.1133 62.542 53.1813 62.474C53.2493 62.402 53.3273 62.346 53.4153 62.306C53.5073 62.266 53.6053 62.246 53.7093 62.246C53.8133 62.246 53.9112 62.266 54.0033 62.306C54.0993 62.346 54.1813 62.402 54.2493 62.474C54.3213 62.542 54.3773 62.624 54.4173 62.72C54.4613 62.812 54.4833 62.91 54.4833 63.014ZM57.0181 65.804C57.1501 65.656 57.2901 65.522 57.4381 65.402C57.5861 65.282 57.7421 65.18 57.9061 65.096C58.0741 65.008 58.2501 64.942 58.4341 64.898C58.6221 64.85 58.8241 64.826 59.0401 64.826C59.3721 64.826 59.6641 64.882 59.9161 64.994C60.1721 65.102 60.3841 65.258 60.5521 65.462C60.7241 65.662 60.8541 65.904 60.9421 66.188C61.0301 66.472 61.0741 66.786 61.0741 67.13V71H60.0001V67.13C60.0001 66.67 59.8941 66.314 59.6821 66.062C59.4741 65.806 59.1561 65.678 58.7281 65.678C58.4121 65.678 58.1161 65.754 57.8401 65.906C57.5681 66.058 57.3161 66.264 57.0841 66.524V71H56.0101V64.922H56.6521C56.8041 64.922 56.8981 64.996 56.9341 65.144L57.0181 65.804ZM64.8195 68.03C65.0355 68.03 65.2255 68 65.3895 67.94C65.5535 67.88 65.6915 67.796 65.8035 67.688C65.9155 67.58 65.9995 67.452 66.0555 67.304C66.1115 67.152 66.1395 66.986 66.1395 66.806C66.1395 66.434 66.0255 66.138 65.7975 65.918C65.5735 65.698 65.2475 65.588 64.8195 65.588C64.3875 65.588 64.0575 65.698 63.8295 65.918C63.6055 66.138 63.4935 66.434 63.4935 66.806C63.4935 66.986 63.5215 67.152 63.5775 67.304C63.6375 67.452 63.7235 67.58 63.8355 67.688C63.9475 67.796 64.0855 67.88 64.2495 67.94C64.4135 68 64.6035 68.03 64.8195 68.03ZM66.7455 71.33C66.7455 71.182 66.7035 71.062 66.6195 70.97C66.5355 70.878 66.4215 70.806 66.2775 70.754C66.1375 70.702 65.9735 70.666 65.7855 70.646C65.5975 70.622 65.3975 70.604 65.1855 70.592C64.9775 70.58 64.7655 70.568 64.5495 70.556C64.3335 70.544 64.1255 70.524 63.9255 70.496C63.7015 70.6 63.5175 70.732 63.3735 70.892C63.2335 71.048 63.1635 71.232 63.1635 71.444C63.1635 71.58 63.1975 71.706 63.2655 71.822C63.3375 71.942 63.4455 72.044 63.5895 72.128C63.7335 72.216 63.9135 72.284 64.1295 72.332C64.3495 72.384 64.6075 72.41 64.9035 72.41C65.1915 72.41 65.4495 72.384 65.6775 72.332C65.9055 72.28 66.0975 72.206 66.2535 72.11C66.4135 72.014 66.5355 71.9 66.6195 71.768C66.7035 71.636 66.7455 71.49 66.7455 71.33ZM67.8315 65.162V65.558C67.8315 65.69 67.7475 65.774 67.5795 65.81L66.8895 65.9C67.0255 66.164 67.0935 66.456 67.0935 66.776C67.0935 67.072 67.0355 67.342 66.9195 67.586C66.8075 67.826 66.6515 68.032 66.4515 68.204C66.2515 68.376 66.0115 68.508 65.7315 68.6C65.4515 68.692 65.1475 68.738 64.8195 68.738C64.5355 68.738 64.2675 68.704 64.0155 68.636C63.8875 68.716 63.7895 68.802 63.7215 68.894C63.6535 68.982 63.6195 69.072 63.6195 69.164C63.6195 69.308 63.6775 69.418 63.7935 69.494C63.9135 69.566 64.0695 69.618 64.2615 69.65C64.4535 69.682 64.6715 69.702 64.9155 69.71C65.1635 69.718 65.4155 69.732 65.6715 69.752C65.9315 69.768 66.1835 69.798 66.4275 69.842C66.6755 69.886 66.8955 69.958 67.0875 70.058C67.2795 70.158 67.4335 70.296 67.5495 70.472C67.6695 70.648 67.7295 70.876 67.7295 71.156C67.7295 71.416 67.6635 71.668 67.5315 71.912C67.4035 72.156 67.2175 72.372 66.9735 72.56C66.7295 72.752 66.4295 72.904 66.0735 73.016C65.7215 73.132 65.3235 73.19 64.8795 73.19C64.4355 73.19 64.0475 73.146 63.7155 73.058C63.3835 72.97 63.1075 72.852 62.8875 72.704C62.6675 72.556 62.5015 72.384 62.3895 72.188C62.2815 71.996 62.2275 71.794 62.2275 71.582C62.2275 71.282 62.3215 71.028 62.5095 70.82C62.6975 70.612 62.9555 70.446 63.2835 70.322C63.1035 70.242 62.9595 70.136 62.8515 70.004C62.7475 69.868 62.6955 69.686 62.6955 69.458C62.6955 69.37 62.7115 69.28 62.7435 69.188C62.7755 69.092 62.8235 68.998 62.8875 68.906C62.9555 68.81 63.0375 68.72 63.1335 68.636C63.2295 68.552 63.3415 68.478 63.4695 68.414C63.1695 68.246 62.9355 68.024 62.7675 67.748C62.5995 67.468 62.5155 67.144 62.5155 66.776C62.5155 66.48 62.5715 66.212 62.6835 65.972C62.7995 65.728 62.9595 65.522 63.1635 65.354C63.3675 65.182 63.6095 65.05 63.8895 64.958C64.1735 64.866 64.4835 64.82 64.8195 64.82C65.0835 64.82 65.3295 64.85 65.5575 64.91C65.7855 64.966 65.9935 65.05 66.1815 65.162H67.8315Z" fill="#939699"/>
</svg>
