<svg width="60" height="60" viewBox="0 0 60 60" fill="none" xmlns="http://www.w3.org/2000/svg">
<path d="M17.9966 6.02002H6V18.0294H17.9966V6.02002Z" fill="#383838"/>
<path d="M17.9966 29.9772H6V41.9866H17.9966V29.9772Z" fill="#383838"/>
<path d="M17.9966 17.9986H6V30.008H17.9966V17.9986Z" fill="white"/>
<path d="M17.9966 41.9558H6V53.9652H17.9966V41.9558Z" fill="white"/>
<path d="M42.0005 6H30.0039V18.0094H42.0005V6Z" fill="#383838"/>
<path d="M42.0005 29.9572H30.0039V41.9665H42.0005V29.9572Z" fill="#383838"/>
<path d="M42.0005 17.9786H30.0039V29.988H42.0005V17.9786Z" fill="white"/>
<path d="M42.0005 41.9358H30.0039V53.9452H42.0005V41.9358Z" fill="white"/>
<path d="M18.0083 53.9862H30.0049V41.9768H18.0083V53.9862Z" fill="#383838"/>
<path d="M18.0083 30.0237H30.0049V18.0143H18.0083V30.0237Z" fill="#383838"/>
<path d="M18.0083 42.0101H30.0049V30.0007H18.0083V42.0101Z" fill="white"/>
<path d="M18.0083 18.0475H30.0049V6.03811L18.0083 6.03811V18.0475Z" fill="white"/>
<path d="M42.0034 54H54V41.9906H42.0034V54Z" fill="#383838"/>
<path d="M42.0034 30.0476H54V18.0382H42.0034V30.0476Z" fill="#383838"/>
<path d="M42.0034 42.0239H54V30.0145H42.0034V42.0239Z" fill="white"/>
<path d="M42.0034 18.0715H54V6.06215L42.0034 6.06215V18.0715Z" fill="white"/>
</svg>
