<svg width="24" height="24" viewBox="0 0 24 24" fill="none" xmlns="http://www.w3.org/2000/svg">
<path fill-rule="evenodd" clip-rule="evenodd" d="M16.8486 9.05979C17.2298 9.4594 17.2149 10.0924 16.8153 10.4736L11.3121 15.7236C10.9255 16.0924 10.3173 16.0922 9.93099 15.723L7.18412 13.098C6.78483 12.7165 6.77047 12.0835 7.15204 11.6842C7.5336 11.2849 8.16661 11.2705 8.56589 11.6521L10.6225 13.6174L15.4347 9.02651C15.8343 8.64529 16.4673 8.66019 16.8486 9.05979Z" fill="#863399"/>
<path fill-rule="evenodd" clip-rule="evenodd" d="M12 4.00006C7.58172 4.00006 4 7.58178 4 12.0001C4 16.4183 7.58172 20.0001 12 20.0001C16.4183 20.0001 20 16.4183 20 12.0001C20 7.58178 16.4183 4.00006 12 4.00006ZM2 12.0001C2 6.47721 6.47715 2.00006 12 2.00006C17.5228 2.00006 22 6.47721 22 12.0001C22 17.5229 17.5228 22.0001 12 22.0001C6.47715 22.0001 2 17.5229 2 12.0001Z" fill="#863399"/>
</svg>
