<svg width="24" height="24" viewBox="0 0 24 24" fill="none" xmlns="http://www.w3.org/2000/svg">
<g clip-path="url(#clip0_4809_106280)">
<path d="M5.85352 15.9153H6.9668V17.0286H5.85352V15.9153Z" fill="#863399"/>
<path d="M8.08984 15.9153H9.20312V17.0286H8.08984V15.9153Z" fill="#863399"/>
<path d="M10.3262 15.9153H11.4395V17.0286H10.3262V15.9153Z" fill="#863399"/>
<path d="M12.5615 15.9153H13.6748V17.0286H12.5615V15.9153Z" fill="#863399"/>
<path d="M12 5.854H15.9104V6.96729H12V5.854Z" fill="#863399"/>
<path d="M12 8.08984H15.9104V9.20312H12V8.08984Z" fill="#863399"/>
<path d="M12 10.3257H15.9104V11.439H12V10.3257Z" fill="#863399"/>
<path d="M12 12.5615H15.9104V13.6748H12V12.5615Z" fill="#863399"/>
<path d="M14.7969 15.9153H15.9102V17.0286H14.7969V15.9153Z" fill="#863399"/>
<path d="M20.3823 4.1748C20.3823 3.25145 19.6311 2.50024 18.7078 2.50024H5.29272C4.36937 2.50024 3.61816 3.25145 3.61816 4.1748V21.5002L5.81645 20.3327L7.52894 21.4974L9.20576 20.3569L10.8827 21.4974L12.5594 20.3569L14.2362 21.4974L15.9485 20.3327L18.1465 21.5002V8.08521H20.3823V4.1748ZM17.0332 19.6483L15.8776 19.0346L14.2362 20.1511L12.5594 19.0105L10.8825 20.1511L9.20569 19.0105L7.52886 20.1511L5.88725 19.0346L4.73141 19.6484V4.1748C4.73145 3.86531 4.98323 3.61353 5.29272 3.61353H17.1303C17.0676 3.78909 17.0332 3.97798 17.0332 4.1748V19.6483ZM19.269 6.97192H18.1465V4.1748C18.1465 3.86531 18.3983 3.61353 18.7078 3.61353C19.0173 3.61353 19.269 3.86531 19.269 4.1748V6.97192Z" fill="#863399"/>
<path d="M10.3219 10.9356C10.3219 9.98961 9.55225 9.21996 8.60623 9.21996H7.96958C7.63741 9.21996 7.36718 8.94973 7.36718 8.6176C7.36718 8.28543 7.63741 8.0152 7.96958 8.0152H8.59164C8.92422 8.0152 9.19478 8.28577 9.19478 8.6183H10.3081C10.3081 7.75781 9.67149 7.04335 8.84454 6.9207V6.125H7.73126V6.91884C6.89768 7.03526 6.25391 7.75247 6.25391 8.6176C6.25391 9.56359 7.02355 10.3332 7.96958 10.3332H8.60623C8.93839 10.3332 9.20862 10.6035 9.20862 10.9356C9.20862 11.2678 8.93839 11.538 8.60623 11.538H7.95826C7.63741 11.538 7.37639 11.277 7.37639 10.9561H6.26311C6.26311 11.8138 6.90354 12.5243 7.73126 12.6357V13.4282H8.84454V12.6344C9.67813 12.518 10.3219 11.8008 10.3219 10.9356V10.9356Z" fill="#863399"/>
</g>
<defs>
<clipPath id="clip0_4809_106280">
<rect width="19" height="19" fill="white" transform="translate(2.5 2.50024)"/>
</clipPath>
</defs>
</svg>
