<svg width="36" height="36" viewBox="0 0 36 36" fill="none" xmlns="http://www.w3.org/2000/svg">
<path d="M0 18C0 8.05887 8.05887 0 18 0V0C27.9411 0 36 8.05887 36 18V18C36 27.9411 27.9411 36 18 36V36C8.05887 36 0 27.9411 0 18V18Z" fill="#863399"/>
<path fill-rule="evenodd" clip-rule="evenodd" d="M24.8514 11.149C25.2102 11.5078 25.2102 12.0895 24.8514 12.4483L12.4483 24.8514C12.0895 25.2102 11.5078 25.2102 11.149 24.8514C10.7902 24.4926 10.7902 23.9109 11.149 23.5521L23.5521 11.149C23.9109 10.7902 24.4926 10.7902 24.8514 11.149Z" fill="white"/>
<path fill-rule="evenodd" clip-rule="evenodd" d="M11.149 11.149C11.5078 10.7902 12.0895 10.7902 12.4483 11.149L24.8514 23.5521C25.2102 23.9109 25.2102 24.4926 24.8514 24.8514C24.4926 25.2102 23.9109 25.2102 23.5521 24.8514L11.149 12.4483C10.7902 12.0895 10.7902 11.5078 11.149 11.149Z" fill="white"/>
</svg>
