<svg width="33" height="33" viewBox="0 0 33 33" fill="none" xmlns="http://www.w3.org/2000/svg">
<path fill-rule="evenodd" clip-rule="evenodd" d="M16.5033 5.53776C10.6122 5.53776 5.83659 10.3134 5.83659 16.2044C5.83659 22.0955 10.6122 26.8711 16.5033 26.8711C22.3943 26.8711 27.1699 22.0955 27.1699 16.2044C27.1699 10.3134 22.3943 5.53776 16.5033 5.53776ZM3.16992 16.2044C3.16992 8.84063 9.13946 2.87109 16.5033 2.87109C23.8671 2.87109 29.8366 8.84063 29.8366 16.2044C29.8366 23.5682 23.8671 29.5378 16.5033 29.5378C9.13946 29.5378 3.16992 23.5682 3.16992 16.2044Z" fill="#D61D33"/>
<path fill-rule="evenodd" clip-rule="evenodd" d="M16.5033 8.87109C17.2396 8.87109 17.8366 9.46805 17.8366 10.2044V17.2044C17.8366 17.9408 17.2396 18.5378 16.5033 18.5378C15.7669 18.5378 15.1699 17.9408 15.1699 17.2044V10.2044C15.1699 9.46805 15.7669 8.87109 16.5033 8.87109Z" fill="#D61D33"/>
<path d="M16.5039 23.2051C17.3323 23.2051 18.0039 22.5335 18.0039 21.7051C18.0039 20.8767 17.3323 20.2051 16.5039 20.2051C15.6755 20.2051 15.0039 20.8767 15.0039 21.7051C15.0039 22.5335 15.6755 23.2051 16.5039 23.2051Z" fill="#D61D33"/>
</svg>
