<svg xmlns="http://www.w3.org/2000/svg" width="14.762" height="14.764" viewBox="0 0 14.762 14.764">
    <defs>
        <style>
            .prefix__cls-2{fill:#863399}
        </style>
    </defs>
    <g id="prefix__Group_1371" data-name="Group 1371" transform="translate(-299.739 -149.533)">
        <g id="prefix__Group_1370" data-name="Group 1370" transform="translate(299.739 149.533)">
            <path id="prefix__Path_5625" d="M299.739 158.242a1.6 1.6 0 0 1 .087-.253 1 1 0 0 1 .171-.236q3.976-3.98 7.955-7.956a.8.8 0 0 1 1.17-.019c.565.557 1.123 1.121 1.684 1.682l.023.027a1.21 1.21 0 0 0-.335 1.049 1.177 1.177 0 0 0 .389.712 1.223 1.223 0 0 0 1.668-.042l.057.055 1.614 1.613a.814.814 0 0 1 0 1.226q-3.909 3.909-7.816 7.819a1.137 1.137 0 0 1-.614.379h-.211a1.176 1.176 0 0 1-.628-.4c-.491-.5-.988-.992-1.483-1.487a.581.581 0 0 0-.072-.053 1.232 1.232 0 0 0 .04-1.693 1.193 1.193 0 0 0-.754-.383 1.21 1.21 0 0 0-.995.342l-.028-.024q-.84-.841-1.679-1.684a.874.874 0 0 1-.156-.218 1.845 1.845 0 0 1-.089-.261z" data-name="Path 5625" transform="translate(-299.739 -149.533)" style="fill:#fff"/>
            <path id="prefix__Path_5626" d="M410.767 353.238a.694.694 0 0 1-.079.145c-.088.1-.182.187-.276.277a.2.2 0 0 1-.3 0q-.425-.421-.846-.847a.2.2 0 0 1 0-.289q.138-.144.282-.282a.2.2 0 0 1 .285 0q.434.428.862.863a.551.551 0 0 1 .072.133z" class="prefix__cls-2" data-name="Path 5626" transform="translate(-405.171 -344.71)"/>
            <path id="prefix__Path_5627" d="M457.285 399.8a.732.732 0 0 1-.08.146c-.087.1-.181.187-.275.278a.2.2 0 0 1-.3 0q-.422-.418-.84-.84a.2.2 0 0 1 0-.3q.133-.138.272-.27a.2.2 0 0 1 .3 0q.428.423.85.851a.625.625 0 0 1 .073.135z" class="prefix__cls-2" data-name="Path 5627" transform="translate(-449.974 -389.556)"/>
        </g>
    </g>
</svg>
