<svg width="15" height="14" viewBox="0 0 15 14" fill="none" xmlns="http://www.w3.org/2000/svg">
<path fill-rule="evenodd" clip-rule="evenodd" d="M7.49089 1.66659C4.54537 1.66659 2.15755 4.0544 2.15755 6.99992C2.15755 9.94544 4.54537 12.3333 7.49089 12.3333C10.4364 12.3333 12.8242 9.94544 12.8242 6.99992C12.8242 4.0544 10.4364 1.66659 7.49089 1.66659ZM0.824219 6.99992C0.824219 3.31802 3.80899 0.333252 7.49089 0.333252C11.1728 0.333252 14.1576 3.31802 14.1576 6.99992C14.1576 10.6818 11.1728 13.6666 7.49089 13.6666C3.80899 13.6666 0.824219 10.6818 0.824219 6.99992Z" fill="#F3F3F3"/>
<path fill-rule="evenodd" clip-rule="evenodd" d="M6.24536 4.30395C6.49167 4.03027 6.91319 4.00809 7.18687 4.25439L9.68687 6.50439C9.82734 6.63082 9.90756 6.81093 9.90756 6.99992C9.90756 7.18891 9.82734 7.36902 9.68687 7.49545L7.18687 9.74545C6.91319 9.99176 6.49167 9.96957 6.24536 9.6959C5.99906 9.42223 6.02124 9.0007 6.29491 8.75439L8.24433 6.99992L6.29491 5.24545C6.02124 4.99915 5.99906 4.57762 6.24536 4.30395Z" fill="#F3F3F3"/>
</svg>
