<svg width="32" height="32" viewBox="0 0 32 32" fill="none" xmlns="http://www.w3.org/2000/svg">
<path d="M4.98025 10.7808C4.15325 10.7398 3.6451 10.3144 3.62207 9.65008C3.60335 9.10235 3.85527 8.70936 4.35046 8.47112C5.03999 8.13931 5.72448 7.7967 6.42049 7.47785C6.64074 7.37708 6.73214 7.26048 6.72135 7.00785C6.69832 6.4889 6.71055 5.9678 6.71559 5.44741C6.72135 4.88168 7.01429 4.59737 7.58146 4.59522C8.03779 4.59378 8.49411 4.59306 8.95044 4.59522C9.51905 4.59737 9.80624 4.88528 9.80983 5.45245C9.80983 5.56113 9.80983 5.66982 9.80983 5.826C10.3468 5.56833 10.8528 5.32649 11.358 5.08177C12.2764 4.63696 13.192 4.18711 14.1126 3.74662C14.8446 3.3961 15.6284 3.80132 15.7961 4.59234C15.8169 4.69022 15.9249 4.8097 16.0199 4.84497C17.8575 5.52083 19.6993 6.18588 21.5405 6.8531C23.5184 7.56998 25.4912 8.30341 27.477 8.99798C28.5063 9.35786 28.6517 10.5584 27.9262 11.0932C27.6915 11.2659 27.372 11.3221 27.0913 11.4315L27.0164 11.3602V11.7014C27.0164 16.8124 27.0142 21.9234 27.0207 27.0344C27.0207 27.4814 26.943 27.8931 26.5493 28.1335C26.3211 28.2731 26.0246 28.3674 25.7583 28.3689C21.7794 28.3833 17.7999 28.3782 13.8203 28.3782C11.3199 28.3782 8.81873 28.3789 6.31828 28.3782C5.4157 28.3782 4.97953 27.9399 4.97953 27.033C4.97953 21.7212 4.97953 16.4093 4.97953 11.0975C4.97953 10.9982 4.97953 10.8981 4.97953 10.7801L4.98025 10.7808ZM24.1129 12.1145C24.1129 11.8396 24.1007 11.5942 24.1165 11.3509C24.1316 11.1234 24.264 10.9701 24.5001 10.9694C24.7319 10.9687 24.8722 11.1011 24.8874 11.3415C24.8938 11.4416 24.8924 11.5423 24.8924 11.6424C24.8924 16.8362 24.8924 22.0307 24.8931 27.2244C24.8931 27.3475 24.9046 27.4699 24.9118 27.6045C25.163 27.6045 25.3818 27.6045 25.5999 27.6045C26.1426 27.6045 26.2412 27.5073 26.2412 26.9718C26.2412 21.7867 26.2412 16.6015 26.2412 11.4171C26.2412 11.3084 26.2412 11.1997 26.2412 11.0867C25.6265 10.8614 25.0284 10.639 24.4296 10.4224C20.9344 9.15849 17.4386 7.89531 13.9398 6.64005C13.8211 6.59758 13.6476 6.60982 13.5331 6.66524C11.0356 7.86436 8.54378 9.07572 6.04621 10.2741C5.82813 10.3785 5.74823 10.4929 5.74895 10.7427C5.75759 16.156 5.75543 21.5693 5.75543 26.9826C5.75543 27.0553 5.75471 27.1287 5.75759 27.2014C5.76623 27.4274 5.89578 27.5742 6.10667 27.5908C6.42841 27.616 6.75446 27.5973 7.10426 27.5973C7.10426 27.4569 7.10426 27.349 7.10426 27.241C7.10426 23.3795 7.10426 19.518 7.10426 15.6572C7.10426 14.8906 7.1021 14.1234 7.10714 13.3568C7.1093 13.0495 7.2698 12.8854 7.52676 12.9063C7.76068 12.9257 7.88664 13.092 7.88664 13.3979C7.88808 14.548 7.88664 15.6982 7.88664 16.8484C7.88664 16.9441 7.88664 17.0398 7.88664 17.1485C8.0493 17.1485 8.16734 17.1485 8.28538 17.1485C8.40343 17.1485 8.51571 17.1485 8.6539 17.1485C8.6539 16.9405 8.6539 16.7692 8.6539 16.5972C8.6539 15.9444 8.7849 15.7673 9.42188 15.5744C9.42188 15.3808 9.43412 15.18 9.41973 14.9806C9.35063 14.014 10.1323 13.2611 11.1011 13.2827C12.7983 13.3209 14.4969 13.2899 16.1948 13.2971C16.3935 13.2978 16.5007 13.2302 16.6101 13.0668C16.8419 12.7213 17.1082 12.3988 17.3551 12.0634C17.3882 12.0188 17.4069 11.954 17.4091 11.8979C17.4299 11.4732 17.4105 11.0443 17.4702 10.6254C17.5516 10.0575 17.9064 9.67959 18.3778 9.63569C19.0703 9.57163 19.6403 9.73717 19.9081 10.2439C19.9671 10.3547 20.0355 10.4814 20.0347 10.6002C20.0304 11.1896 20.0599 11.7899 19.6892 12.3082C19.5957 12.4384 19.7857 12.8897 19.9448 12.8955C20.2974 12.9084 20.6508 12.8998 21.0323 12.8998C21.0323 12.4096 21.0323 11.9555 21.0323 11.5013C21.0323 11.1393 21.1669 10.9543 21.4224 10.9622C21.6722 10.9694 21.8053 11.1616 21.8068 11.5193C21.8068 11.7151 21.8068 11.9108 21.8068 12.1145H24.1122H24.1129ZM7.90823 17.9424V21.7888H8.98571C9.08504 21.5124 9.17789 21.2584 9.26714 21.0028C9.28369 20.9553 9.30384 20.8999 9.29377 20.8546C9.21891 20.5005 9.12318 20.1506 9.06057 19.7944C8.96196 19.233 9.1455 18.7543 9.60182 18.5283C10.1049 18.2793 10.6505 18.1612 11.1551 18.5283C11.3292 18.655 11.52 18.8601 11.5553 19.0559C11.6459 19.5511 11.6524 20.0621 11.6942 20.5667C11.6999 20.6336 11.6985 20.7106 11.7309 20.7653C11.972 21.1727 12.2304 21.57 12.4621 21.9824C12.5514 22.1415 12.6514 22.1897 12.8285 22.189C14.4897 22.1818 16.1509 22.1847 17.8121 22.1854C18.8471 22.1854 19.4791 22.8181 19.4856 23.8581C19.487 24.0647 19.4856 24.2713 19.4856 24.4663C20.106 24.6599 20.2607 24.8715 20.2615 25.4913C20.2615 25.6705 20.2615 25.849 20.2615 26.0275H21.0165V17.9431H7.90823V17.9424ZM15.0079 4.93566C15.0338 4.4671 14.7934 4.30155 14.3803 4.48869C14.3472 4.50381 14.3141 4.51964 14.2817 4.53548C11.8619 5.70652 9.44132 6.87757 7.02149 8.04934C6.23407 8.43081 5.44809 8.81444 4.66068 9.19663C4.4649 9.29164 4.36342 9.44423 4.41308 9.65872C4.45843 9.85234 4.5851 9.99125 4.80103 9.97182C4.91403 9.96174 5.0256 9.90416 5.13068 9.85305C7.8708 8.52798 10.6109 7.20218 13.3475 5.87063C13.567 5.7641 13.7664 5.73531 14.0003 5.82025C16.7145 6.80703 19.4309 7.78735 22.1472 8.76982C23.758 9.35282 25.3674 9.93655 26.979 10.5181C27.2827 10.6275 27.4713 10.5555 27.5663 10.3094C27.6555 10.0776 27.5404 9.86313 27.2597 9.76165C25.9238 9.27581 24.5872 8.79357 23.2513 8.30845C20.6141 7.35045 17.9777 6.38957 15.3383 5.43589C15.0799 5.34233 14.9655 5.1919 15.0079 4.93566V4.93566ZM7.89384 27.5836H21.0158V26.8566H7.89384V27.5836ZM7.90319 25.2926V26.0311H19.4618V25.2926H7.90319V25.2926ZM21.0215 16.4014H9.44132V17.1291H21.0215V16.4014V16.4014ZM10.1733 15.591H15.9803V14.104C15.9422 14.0917 15.917 14.0766 15.8925 14.0766C14.2342 14.0752 12.5759 14.0716 10.9175 14.078C10.5908 14.0795 10.3122 14.2947 10.2503 14.6207C10.1913 14.9295 10.1978 15.2505 10.1733 15.591V15.591ZM18.6996 24.4814C18.6996 24.259 18.7003 24.0676 18.6996 23.8768C18.6967 23.2471 18.4074 22.957 17.7783 22.957C16.2546 22.9563 14.7308 22.957 13.2064 22.957C13.1178 22.957 13.0293 22.957 12.9307 22.957V24.4822H18.6996V24.4814ZM9.9214 21.4469C9.77745 21.6873 9.76737 21.981 9.92356 22.2631C10.3086 22.9556 10.7067 23.6415 11.104 24.3274C11.1414 24.3922 11.2112 24.4793 11.2709 24.4829C11.5488 24.4994 11.828 24.4901 12.1224 24.4901C12.1224 23.9762 12.1239 23.5033 12.1203 23.0297C12.1203 22.9779 12.1044 22.9196 12.0785 22.8749C11.7978 22.3848 11.5106 21.8982 11.2328 21.4066C11.1587 21.2749 11.0759 21.2821 10.9435 21.3073C10.626 21.3678 10.3022 21.398 9.9214 21.4477V21.4469ZM16.7677 15.6104C17.0585 15.6104 17.3133 15.6226 17.566 15.6032C17.6444 15.5975 17.7445 15.5226 17.7862 15.4506C18.2001 14.7431 18.6096 14.0327 19.0019 13.3137C19.0559 13.215 19.0537 13.0423 19.0048 12.9394C18.7507 12.4068 17.9899 12.3722 17.6531 12.876C17.3752 13.2928 17.114 13.7203 16.8498 14.1464C16.8088 14.2126 16.7728 14.2954 16.7713 14.3717C16.7634 14.7712 16.7677 15.1714 16.7677 15.6104V15.6104ZM21.0179 15.6003V13.6872C20.6033 13.6872 20.2039 13.6851 19.8051 13.6901C19.7583 13.6901 19.6907 13.7189 19.6691 13.7556C19.3186 14.3595 18.9731 14.9669 18.6111 15.6011H21.0172L21.0179 15.6003ZM10.287 24.4865C9.91996 23.8445 9.57879 23.2463 9.23331 22.6504C9.211 22.6122 9.14838 22.5777 9.10375 22.577C8.70572 22.5712 8.3077 22.5734 7.90823 22.5734V24.4858H10.2878L10.287 24.4865ZM24.0956 19.8534V18.7234H21.8284V19.8534H24.0956ZM24.0935 14.0528V12.9307H21.8305V14.0528H24.0935ZM21.832 14.8554V15.9804H24.0899V14.8554H21.832ZM21.8248 16.7822V17.9021H24.0884V16.7822H21.8248ZM24.0992 20.671H21.8241V21.7838H24.0992V20.671ZM24.0899 23.7135V22.5885H21.8291V23.7135H24.0899ZM24.0992 24.5239H21.8241V25.6424H24.0992V24.5239ZM24.0992 26.4716H21.8233V27.5872H24.0992V26.4716ZM7.51308 6.93731C8.01332 6.69619 8.48548 6.47091 8.95404 6.23843C8.99291 6.21899 9.03106 6.15421 9.03249 6.10959C9.04041 5.86847 9.03609 5.62663 9.03609 5.38767H7.51308V6.93731ZM18.6406 10.3612C18.4009 10.3835 18.28 10.5001 18.2433 10.7074C18.2029 10.9313 18.177 11.158 18.1454 11.3833C18.1195 11.5661 18.131 11.7748 18.3231 11.8238C18.5477 11.8813 18.8119 11.9108 19.0256 11.8439C19.2401 11.777 19.3625 10.7168 19.1811 10.5771C19.0328 10.4634 18.8234 10.4303 18.6413 10.3612H18.6406ZM10.9499 20.0564C10.9262 19.9009 10.9082 19.6339 10.8369 19.3819C10.8067 19.274 10.6793 19.1401 10.5728 19.1156C10.0589 18.9969 9.78464 19.2581 9.85158 19.7685C9.86454 19.8678 9.86957 19.9685 9.88253 20.0679C9.95379 20.6127 10.0819 20.6998 10.6203 20.5847C10.8513 20.535 10.9708 20.4054 10.9492 20.0564H10.9499Z" fill="#F58520"/>
</svg>
