<svg width="24" height="24" viewBox="0 0 24 24" fill="none" xmlns="http://www.w3.org/2000/svg">
<path fill-rule="evenodd" clip-rule="evenodd" d="M10.875 4C7.07804 4 4 7.07804 4 10.875C4 14.672 7.07804 17.75 10.875 17.75C14.672 17.75 17.75 14.672 17.75 10.875C17.75 7.07804 14.672 4 10.875 4ZM2 10.875C2 5.97347 5.97347 2 10.875 2C15.7765 2 19.75 5.97347 19.75 10.875C19.75 15.7765 15.7765 19.75 10.875 19.75C5.97347 19.75 2 15.7765 2 10.875Z" fill="#094067"/>
<path fill-rule="evenodd" clip-rule="evenodd" d="M15.7382 15.7363C16.1287 15.3457 16.7619 15.3457 17.1524 15.7363L21.7087 20.2925C22.0992 20.683 22.0992 21.3162 21.7087 21.7067C21.3181 22.0972 20.685 22.0972 20.2945 21.7067L15.7382 17.1505C15.3477 16.7599 15.3477 16.1268 15.7382 15.7363Z" fill="#094067"/>
</svg>
