<svg width="16" height="16" viewBox="0 0 16 16" fill="none" xmlns="http://www.w3.org/2000/svg">
<path fill-rule="evenodd" clip-rule="evenodd" d="M7.2526 2.66732C4.7213 2.66732 2.66927 4.71935 2.66927 7.25065C2.66927 9.78196 4.7213 11.834 7.2526 11.834C9.78391 11.834 11.8359 9.78196 11.8359 7.25065C11.8359 4.71935 9.78391 2.66732 7.2526 2.66732ZM1.33594 7.25065C1.33594 3.98297 3.98492 1.33398 7.2526 1.33398C10.5203 1.33398 13.1693 3.98297 13.1693 7.25065C13.1693 10.5183 10.5203 13.1673 7.2526 13.1673C3.98492 13.1673 1.33594 10.5183 1.33594 7.25065Z" fill="#F3F3F3"/>
<path fill-rule="evenodd" clip-rule="evenodd" d="M10.4921 10.4921C10.7525 10.2318 11.1746 10.2318 11.4349 10.4921L14.4724 13.5296C14.7328 13.79 14.7328 14.2121 14.4724 14.4724C14.2121 14.7328 13.79 14.7328 13.5296 14.4724L10.4921 11.4349C10.2318 11.1746 10.2318 10.7525 10.4921 10.4921Z" fill="#F3F3F3"/>
</svg>
