<svg width="16" height="16" viewBox="0 0 16 16" fill="none" xmlns="http://www.w3.org/2000/svg">
<path fill-rule="evenodd" clip-rule="evenodd" d="M4.58398 7.25065C4.58398 6.88246 4.88246 6.58398 5.25065 6.58398H9.25065C9.61884 6.58398 9.91732 6.88246 9.91732 7.25065C9.91732 7.61884 9.61884 7.91732 9.25065 7.91732H5.25065C4.88246 7.91732 4.58398 7.61884 4.58398 7.25065Z" fill="#005895"/>
<path fill-rule="evenodd" clip-rule="evenodd" d="M7.24675 4.58398C7.61494 4.58398 7.91341 4.88246 7.91341 5.25065V9.25065C7.91341 9.61884 7.61494 9.91732 7.24675 9.91732C6.87856 9.91732 6.58008 9.61884 6.58008 9.25065V5.25065C6.58008 4.88246 6.87856 4.58398 7.24675 4.58398Z" fill="#005895"/>
<path fill-rule="evenodd" clip-rule="evenodd" d="M7.2487 2.66732C4.71739 2.66732 2.66536 4.71935 2.66536 7.25065C2.66536 9.78196 4.71739 11.834 7.2487 11.834C9.78 11.834 11.832 9.78196 11.832 7.25065C11.832 4.71935 9.78 2.66732 7.2487 2.66732ZM1.33203 7.25065C1.33203 3.98297 3.98101 1.33398 7.2487 1.33398C10.5164 1.33398 13.1654 3.98297 13.1654 7.25065C13.1654 10.5183 10.5164 13.1673 7.2487 13.1673C3.98101 13.1673 1.33203 10.5183 1.33203 7.25065Z" fill="#005895"/>
<path fill-rule="evenodd" clip-rule="evenodd" d="M10.4902 10.4921C10.7505 10.2318 11.1726 10.2318 11.433 10.4921L14.4705 13.5296C14.7308 13.79 14.7308 14.2121 14.4705 14.4724C14.2101 14.7328 13.788 14.7328 13.5277 14.4724L10.4902 11.4349C10.2298 11.1746 10.2298 10.7525 10.4902 10.4921Z" fill="#005895"/>
</svg>
