<svg width="25" height="25" viewBox="0 0 25 25" fill="none" xmlns="http://www.w3.org/2000/svg">
<circle cx="12.5" cy="12.5" r="12.5" fill="#863399"/>
<path fill-rule="evenodd" clip-rule="evenodd" d="M11.7969 7.5C9.42378 7.5 7.5 9.42378 7.5 11.7969C7.5 14.17 9.42378 16.0938 11.7969 16.0938C14.17 16.0938 16.0938 14.17 16.0938 11.7969C16.0938 9.42378 14.17 7.5 11.7969 7.5ZM6.25 11.7969C6.25 8.73342 8.73342 6.25 11.7969 6.25C14.8603 6.25 17.3438 8.73342 17.3438 11.7969C17.3438 14.8603 14.8603 17.3438 11.7969 17.3438C8.73342 17.3438 6.25 14.8603 6.25 11.7969Z" fill="white"/>
<path fill-rule="evenodd" clip-rule="evenodd" d="M14.8354 14.8352C15.0795 14.5911 15.4752 14.5911 15.7193 14.8352L18.5669 17.6828C18.811 17.9269 18.811 18.3226 18.5669 18.5667C18.3229 18.8108 17.9271 18.8108 17.6831 18.5667L14.8354 15.719C14.5913 15.475 14.5913 15.0792 14.8354 14.8352Z" fill="white"/>
</svg>
