<svg width="32" height="32" viewBox="0 0 32 32" fill="none" xmlns="http://www.w3.org/2000/svg">
<path fill-rule="evenodd" clip-rule="evenodd" d="M15.9993 26.6663C10.1083 26.6663 5.33268 21.8907 5.33268 15.9997C5.33268 10.1086 10.1083 5.33301 15.9993 5.33301C21.8904 5.33301 26.666 10.1086 26.666 15.9997C26.666 21.8907 21.8904 26.6663 15.9993 26.6663ZM2.66602 15.9997C2.66602 23.3635 8.63555 29.333 15.9993 29.333C23.3631 29.333 29.3327 23.3635 29.3327 15.9997C29.3327 8.63588 23.3631 2.66634 15.9993 2.66634C8.63555 2.66634 2.66602 8.63588 2.66602 15.9997Z" fill="#F58520"/>
<path fill-rule="evenodd" clip-rule="evenodd" d="M15.9993 23.333C16.7357 23.333 17.3327 22.7361 17.3327 21.9997L17.3327 14.9997C17.3327 14.2633 16.7357 13.6663 15.9993 13.6663C15.263 13.6663 14.666 14.2633 14.666 14.9997L14.666 21.9997C14.666 22.7361 15.263 23.333 15.9993 23.333Z" fill="#F58520"/>
<path d="M16 9C16.8284 9 17.5 9.67157 17.5 10.5C17.5 11.3284 16.8284 12 16 12C15.1716 12 14.5 11.3284 14.5 10.5C14.5 9.67157 15.1716 9 16 9Z" fill="#F58520"/>
</svg>
