<svg width="32" height="32" viewBox="0 0 32 32" fill="none" xmlns="http://www.w3.org/2000/svg">
<g clip-path="url(#clip0_10016_61129)">
<path d="M-17.2881 39.7994C-18.2073 39.7538 -18.7721 39.281 -18.7977 38.5426C-18.8185 37.9338 -18.5385 37.497 -17.9881 37.2322C-17.2217 36.8634 -16.4609 36.4826 -15.6873 36.1282C-15.4425 36.0162 -15.3409 35.8866 -15.3529 35.6058C-15.3785 35.029 -15.3649 34.4498 -15.3593 33.8714C-15.3529 33.2426 -15.0273 32.9266 -14.3969 32.9242C-13.8897 32.9226 -13.3825 32.9218 -12.8753 32.9242C-12.2433 32.9266 -11.9241 33.2466 -11.9201 33.877C-11.9201 33.9978 -11.9201 34.1186 -11.9201 34.2922C-11.3233 34.0058 -10.7609 33.737 -10.1993 33.465C-9.17855 32.9706 -8.16095 32.4706 -7.13775 31.981C-6.32415 31.5914 -5.45295 32.0418 -5.26655 32.921C-5.24335 33.0298 -5.12335 33.1626 -5.01775 33.2018C-2.97535 33.953 -0.928147 34.6922 1.11825 35.4338C3.31665 36.2306 5.50945 37.0458 7.71665 37.8178C8.86065 38.2178 9.02225 39.5522 8.21585 40.1466C7.95505 40.3386 7.59985 40.401 7.28785 40.5226L7.20465 40.4434V40.8226C7.20465 46.5034 7.20225 52.1842 7.20945 57.865C7.20945 58.3618 7.12305 58.8194 6.68545 59.0866C6.43185 59.2418 6.10225 59.3466 5.80625 59.3482C1.38385 59.3642 -3.03935 59.3586 -7.46255 59.3586C-10.2417 59.3586 -13.0217 59.3594 -15.8009 59.3586C-16.8041 59.3586 -17.2889 58.8714 -17.2889 57.8634C-17.2889 51.9594 -17.2889 46.0554 -17.2889 40.1514C-17.2889 40.041 -17.2889 39.9298 -17.2889 39.7986L-17.2881 39.7994ZM3.97745 41.2818C3.97745 40.9762 3.96385 40.7034 3.98145 40.433C3.99825 40.1802 4.14545 40.0098 4.40785 40.009C4.66545 40.0082 4.82145 40.1554 4.83825 40.4226C4.84545 40.5338 4.84385 40.6458 4.84385 40.757C4.84385 46.5298 4.84385 52.3034 4.84465 58.0762C4.84465 58.213 4.85745 58.349 4.86545 58.4986C5.14465 58.4986 5.38785 58.4986 5.63025 58.4986C6.23345 58.4986 6.34305 58.3906 6.34305 57.7954C6.34305 52.0322 6.34305 46.269 6.34305 40.5066C6.34305 40.3858 6.34305 40.265 6.34305 40.1394C5.65985 39.889 4.99505 39.6418 4.32945 39.401C0.444652 37.9962 -3.44095 36.5922 -7.32975 35.197C-7.46175 35.1498 -7.65455 35.1634 -7.78175 35.225C-10.5577 36.5578 -13.3273 37.9042 -16.1033 39.2362C-16.3457 39.3522 -16.4345 39.4794 -16.4337 39.757C-16.4241 45.7738 -16.4265 51.7906 -16.4265 57.8074C-16.4265 57.8882 -16.4273 57.9698 -16.4241 58.0506C-16.4145 58.3018 -16.2705 58.465 -16.0361 58.4834C-15.6785 58.5114 -15.3161 58.4906 -14.9273 58.4906C-14.9273 58.3346 -14.9273 58.2146 -14.9273 58.0946C-14.9273 53.8026 -14.9273 49.5106 -14.9273 45.2194C-14.9273 44.3674 -14.9297 43.5146 -14.9241 42.6626C-14.9217 42.321 -14.7433 42.1386 -14.4577 42.1618C-14.1977 42.1834 -14.0577 42.3682 -14.0577 42.7082C-14.0561 43.9866 -14.0577 45.265 -14.0577 46.5434C-14.0577 46.6498 -14.0577 46.7562 -14.0577 46.877C-13.8769 46.877 -13.7457 46.877 -13.6145 46.877C-13.4833 46.877 -13.3585 46.877 -13.2049 46.877C-13.2049 46.6458 -13.2049 46.4554 -13.2049 46.2642C-13.2049 45.5386 -13.0593 45.3418 -12.3513 45.1274C-12.3513 44.9122 -12.3377 44.689 -12.3537 44.4674C-12.4305 43.393 -11.5617 42.5562 -10.4849 42.5802C-8.59855 42.6226 -6.71055 42.5882 -4.82335 42.5962C-4.60255 42.597 -4.48335 42.5218 -4.36175 42.3402C-4.10415 41.9562 -3.80815 41.5978 -3.53375 41.225C-3.49695 41.1754 -3.47615 41.1034 -3.47375 41.041C-3.45055 40.569 -3.47215 40.0922 -3.40575 39.6266C-3.31535 38.9954 -2.92095 38.5754 -2.39695 38.5266C-1.62735 38.4554 -0.993746 38.6394 -0.696146 39.2026C-0.630546 39.3258 -0.554547 39.4666 -0.555347 39.5986C-0.560147 40.2538 -0.527347 40.921 -0.939347 41.497C-1.04335 41.6418 -0.832147 42.1434 -0.655347 42.1498C-0.263347 42.1642 0.129453 42.1546 0.553454 42.1546C0.553454 41.6098 0.553454 41.105 0.553454 40.6002C0.553454 40.1978 0.703053 39.9922 0.987053 40.001C1.26465 40.009 1.41265 40.2226 1.41425 40.6202C1.41425 40.8378 1.41425 41.0554 1.41425 41.2818H3.97745V41.2818ZM-14.0337 47.7594V52.0346H-12.8361C-12.7257 51.7274 -12.6225 51.445 -12.5233 51.161C-12.5049 51.1082 -12.4825 51.0466 -12.4937 50.9962C-12.5769 50.6026 -12.6833 50.2138 -12.7529 49.8178C-12.8625 49.1938 -12.6585 48.6618 -12.1513 48.4106C-11.5921 48.1338 -10.9857 48.0026 -10.4249 48.4106C-10.2313 48.5514 -10.0193 48.7794 -9.98015 48.997C-9.87935 49.5474 -9.87215 50.1154 -9.82575 50.6762C-9.81935 50.7506 -9.82095 50.8362 -9.78495 50.897C-9.51695 51.3498 -9.22975 51.7914 -8.97215 52.2498C-8.87295 52.4266 -8.76175 52.4802 -8.56495 52.4794C-6.71855 52.4714 -4.87215 52.4746 -3.02575 52.4754C-1.87535 52.4754 -1.17295 53.1786 -1.16575 54.3346C-1.16415 54.5642 -1.16575 54.7938 -1.16575 55.0106C-0.476147 55.2258 -0.304147 55.461 -0.303347 56.1498C-0.303347 56.349 -0.303347 56.5474 -0.303347 56.7458H0.536653V47.7602H-14.0337V47.7594ZM-6.14255 33.3026C-6.11375 32.7818 -6.38095 32.5978 -6.84015 32.8058C-6.87695 32.8226 -6.91375 32.8402 -6.94975 32.8578C-9.63935 34.1594 -12.3297 35.461 -15.0193 36.7634C-15.8945 37.1874 -16.7681 37.6138 -17.6433 38.0386C-17.8609 38.1442 -17.9737 38.3138 -17.9185 38.5522C-17.8681 38.7674 -17.7273 38.9218 -17.4873 38.9002C-17.3617 38.889 -17.2377 38.825 -17.1209 38.7682C-14.0753 37.2954 -11.0297 35.8218 -7.98815 34.3418C-7.74415 34.2234 -7.52255 34.1914 -7.26255 34.2858C-4.24575 35.3826 -1.22655 36.4722 1.79265 37.5642C3.58305 38.2122 5.37185 38.861 7.16305 39.5074C7.50065 39.629 7.71025 39.549 7.81585 39.2754C7.91505 39.0178 7.78705 38.7794 7.47505 38.6666C5.99025 38.1266 4.50465 37.5906 3.01985 37.0514C0.0886525 35.9866 -2.84175 34.9186 -5.77535 33.8586C-6.06255 33.7546 -6.18975 33.5874 -6.14255 33.3026V33.3026ZM-14.0505 58.4754H0.534253V57.6674H-14.0497V58.4754H-14.0505ZM-14.0401 55.929V56.7498H-1.19215V55.929H-14.0393H-14.0401ZM0.541453 46.0474H-12.3297V46.8562H0.541453V46.0474ZM-11.5161 45.1466H-5.06255V43.4938C-5.10495 43.4802 -5.13295 43.4634 -5.16015 43.4634C-7.00335 43.4618 -8.84655 43.4578 -10.6897 43.465C-11.0529 43.4666 -11.3625 43.7058 -11.4313 44.0682C-11.4969 44.4114 -11.4897 44.7682 -11.5169 45.1466H-11.5161ZM-2.03935 55.0282C-2.03935 54.781 -2.03855 54.5682 -2.03935 54.3562C-2.04255 53.6562 -2.36415 53.3338 -3.06335 53.3338C-4.75695 53.333 -6.45055 53.3338 -8.14495 53.3338C-8.24335 53.3338 -8.34175 53.3338 -8.45135 53.3338V55.029H-2.04015L-2.03935 55.0282ZM-11.7961 51.6554C-11.9561 51.9226 -11.9673 52.249 -11.7937 52.5626C-11.3657 53.3322 -10.9233 54.0946 -10.4817 54.857C-10.4401 54.929 -10.3625 55.0258 -10.2961 55.0298C-9.98735 55.0482 -9.67695 55.0378 -9.34975 55.0378C-9.34975 54.4666 -9.34815 53.941 -9.35215 53.4146C-9.35215 53.357 -9.36975 53.2922 -9.39855 53.2426C-9.71055 52.6978 -10.0297 52.157 -10.3385 51.6106C-10.4209 51.4642 -10.5129 51.4722 -10.6601 51.5002C-11.0129 51.5674 -11.3729 51.601 -11.7961 51.6562V51.6554ZM-4.18655 45.1682C-3.86335 45.1682 -3.58015 45.1818 -3.29935 45.1602C-3.21215 45.1538 -3.10095 45.0706 -3.05455 44.9906C-2.59455 44.2042 -2.13935 43.4146 -1.70335 42.6154C-1.64335 42.5058 -1.64575 42.3138 -1.70015 42.1994C-1.98255 41.6074 -2.82815 41.569 -3.20255 42.129C-3.51135 42.5922 -3.80175 43.0674 -4.09535 43.541C-4.14095 43.6146 -4.18095 43.7066 -4.18255 43.7914C-4.19135 44.2354 -4.18655 44.6802 -4.18655 45.1682V45.1682ZM0.537454 45.157V43.0306C0.0766537 43.0306 -0.367347 43.0282 -0.810547 43.0338C-0.862547 43.0338 -0.937747 43.0658 -0.961747 43.1066C-1.35135 43.7778 -1.73535 44.453 -2.13775 45.1578H0.537454V45.157ZM-11.3897 55.0338C-11.7977 54.3202 -12.1769 53.6554 -12.5609 52.993C-12.5857 52.9506 -12.6553 52.9122 -12.7049 52.9114C-13.1473 52.905 -13.5897 52.9074 -14.0337 52.9074V55.033H-11.3889L-11.3897 55.0338ZM3.95825 49.8842V48.6282H1.43825V49.8842H3.95825V49.8842ZM3.95585 43.437V42.1898H1.43985V43.437H3.95505H3.95585ZM1.44225 44.329V45.5794H3.95185V44.329H1.44145H1.44225ZM1.43425 46.4706V47.7154H3.95025V46.4706H1.43345H1.43425ZM3.96225 50.793H1.43265V52.0298H3.96145V50.793H3.96225ZM3.95185 54.1746V52.9242H1.43745V54.1746H3.95025H3.95185ZM3.96225 55.0754H1.43265V56.3186H3.96145V55.0754H3.96225ZM3.96225 57.2402H1.43185V58.4802H3.96145V57.2402H3.96225ZM-14.4729 35.5274C-13.9169 35.2594 -13.3921 35.009 -12.8713 34.7506C-12.8281 34.729 -12.7857 34.657 -12.7841 34.6074C-12.7753 34.3394 -12.7801 34.0706 -12.7801 33.805H-14.4729V35.5274V35.5274ZM-2.10415 39.333C-2.37055 39.3578 -2.50495 39.4874 -2.54575 39.7178C-2.59055 39.9666 -2.61935 40.2186 -2.65455 40.469C-2.68335 40.6722 -2.67055 40.9042 -2.45695 40.9586C-2.20735 41.0226 -1.91375 41.0554 -1.67615 40.981C-1.43775 40.9066 -1.30175 39.7282 -1.50335 39.573C-1.66815 39.4466 -1.90095 39.4098 -2.10335 39.333H-2.10415ZM-10.6521 50.109C-10.6785 49.9362 -10.6985 49.6394 -10.7777 49.3594C-10.8113 49.2394 -10.9529 49.0906 -11.0713 49.0634C-11.6425 48.9314 -11.9473 49.2218 -11.8729 49.789C-11.8585 49.8994 -11.8529 50.0114 -11.8385 50.1218C-11.7593 50.7274 -11.6169 50.8242 -11.0185 50.6962C-10.7617 50.641 -10.6289 50.497 -10.6529 50.109H-10.6521Z" fill="#F58520"/>
<path d="M27.5083 20.438C26.9984 20.2757 26.7131 19.9265 26.5442 19.4379C26.331 18.8222 26.0769 18.2213 25.8375 17.6146C25.799 17.517 25.7432 17.4268 25.6957 17.3334L25.5998 17.3498C25.5998 17.4711 25.5809 17.5949 25.6022 17.7121C26.0039 19.8519 26.4114 21.9916 26.8172 24.1305C26.9065 24.6019 27.0066 25.0717 27.0771 25.5463C27.1394 25.9661 27.0246 26.0882 26.6065 26.0923C26.1162 26.0972 25.6252 26.0931 25.0792 26.0931C25.0792 26.5744 25.0792 27.0253 25.0792 27.4754C25.0792 27.7344 25.0882 27.9935 25.0751 28.2517C25.0619 28.5108 24.8914 28.7084 24.6324 28.6166C24.4856 28.5641 24.3569 28.3854 24.3454 28.2304C24.3069 27.6828 24.329 27.1302 24.3282 26.5793C24.3282 26.4342 24.3282 26.2891 24.3282 26.1194H22.4976L22.4926 26.1243C22.5041 26.831 22.491 27.5369 22.4984 28.2435C22.5008 28.4829 22.3836 28.6346 22.1573 28.6428C21.9147 28.6518 21.7728 28.5059 21.7728 28.2485C21.7728 27.6697 21.7728 27.09 21.772 26.5113C21.772 26.3907 21.772 26.2702 21.772 26.1202H19.9594C19.9594 26.3899 19.961 26.6547 19.9594 26.9195C19.9569 27.3508 19.9487 27.782 19.9496 28.2132C19.9496 28.4608 19.8389 28.637 19.5938 28.6444C19.324 28.6526 19.2052 28.46 19.2035 28.205C19.1994 27.6508 19.2019 27.0966 19.2019 26.5416C19.2019 26.4088 19.2019 26.276 19.2019 26.094C18.7026 26.094 18.2386 26.094 17.7746 26.094C17.2237 26.094 17.1064 25.9448 17.2138 25.393C17.4827 24.0043 17.7516 22.6155 18.0172 21.2267C18.2394 20.0667 18.4591 18.9066 18.6723 17.7458C18.6961 17.6162 18.6756 17.4785 18.6756 17.3449L18.5682 17.3244C18.2984 18.0188 18.023 18.7099 17.7623 19.4075C17.5934 19.8592 17.3229 20.2511 16.858 20.3634C16.1923 20.5249 15.4947 20.5446 14.8314 20.3323C14.3158 20.1667 13.9616 19.7855 13.7681 19.2723C13.5115 18.5934 13.2598 17.913 13.0049 17.2342C12.968 17.1358 12.9221 17.0399 12.7975 16.9522C12.7975 17.2391 12.7975 17.5252 12.7975 17.8122C12.7983 21.1636 12.7991 24.5142 12.8007 27.8656C12.8007 27.9517 12.7991 28.0378 12.8007 28.1247C12.8065 28.3993 12.7302 28.6477 12.4154 28.6452C12.099 28.6428 12.0408 28.3911 12.0408 28.1165C12.0432 23.6689 12.0424 19.2214 12.0416 14.7739C12.0416 14.5239 12.0719 14.282 12.3695 14.2369C12.8237 14.1681 12.7843 14.7477 12.9942 14.9477C13.8517 15.7643 14.2985 16.9071 14.3043 18.0917C14.3084 18.9984 14.6199 19.5461 15.2758 19.7002C15.73 19.8068 15.9816 19.5543 15.8611 19.1099C15.4356 17.5433 15.0134 15.9758 14.5707 14.4148C14.3395 13.5999 14.1305 12.7703 13.7993 11.9955C13.3254 10.8888 12.4523 10.1354 11.362 9.63201C11.1759 9.54593 11.0406 9.55413 10.8652 9.69268C9.93957 10.4199 8.75576 10.4207 7.83428 9.69104C7.65556 9.55003 7.52029 9.54757 7.33829 9.63201C5.92656 10.2862 4.97885 11.3553 4.55419 12.8482C3.96884 14.9059 3.41792 16.9743 2.86946 19.0427C2.82355 19.2173 2.8465 19.5002 2.958 19.601C3.07605 19.7084 3.35151 19.7133 3.53187 19.6658C3.87866 19.574 4.12214 19.328 4.25167 18.9796C4.7698 17.5851 5.2912 16.1914 5.81097 14.7969C5.83228 14.7395 5.8536 14.6813 5.87409 14.6239C5.95116 14.4042 6.05199 14.191 6.33237 14.2369C6.62833 14.2861 6.65866 14.5247 6.65866 14.7756C6.65702 17.572 6.65784 20.3692 6.65784 23.1656C6.65784 24.7675 6.65784 26.3686 6.65784 27.9705C6.65784 28.0689 6.69309 28.1927 6.64718 28.2608C6.64472 28.2648 6.64144 28.2689 6.63898 28.273C6.46682 28.5198 6.08479 28.5198 5.92082 28.2673L5.91836 28.2632C5.86754 28.1837 5.90525 28.0468 5.90525 27.9361C5.90525 24.4125 5.90525 20.8889 5.90525 17.3654C5.90525 17.226 5.90525 17.0866 5.90525 16.8407C5.26661 17.981 5.23054 19.2846 4.2984 20.1454C4.3935 20.4028 4.51811 20.6676 4.5878 20.9455C4.64928 21.1923 4.58862 21.4374 4.28529 21.4784C4.01311 21.5153 3.90407 21.3431 3.86308 21.0824C3.79913 20.6758 3.50892 20.4413 3.15967 20.4717C2.79813 20.5036 2.56039 20.7889 2.55957 21.2259C2.55465 23.505 2.55465 25.7841 2.55301 28.0632C2.55301 28.1738 2.58416 28.3108 2.53169 28.3886C2.45791 28.4985 2.31526 28.6379 2.2095 28.6321C2.08325 28.6256 1.93241 28.501 1.85206 28.3854C1.79222 28.2993 1.82173 28.1476 1.82173 28.0255C1.82009 25.7833 1.82419 23.5411 1.81845 21.2988C1.81763 20.8906 1.90207 20.5249 2.1595 20.1954C2.21934 20.1183 2.19475 19.9617 2.18245 19.8445C2.15704 19.6043 2.03324 19.3444 2.08981 19.1304C2.69566 16.8489 3.28511 14.5608 3.96966 12.3022C4.42629 10.7953 5.46091 9.72055 6.88329 9.03354C6.97019 8.99173 7.05135 8.93844 7.0284 8.88188C6.98659 7.98418 6.9456 7.08565 6.90133 6.1363C6.75048 6.1363 6.51847 6.18139 6.3168 6.12155C6.16267 6.07564 5.96018 5.91413 5.93476 5.77558C5.89377 5.54685 6.07249 5.40011 6.32827 5.40257C6.53569 5.40503 6.74392 5.40257 6.93494 5.40257C7.07923 4.96232 7.17597 4.54012 7.35223 4.15398C7.72688 3.33089 8.22861 3.1825 9.06073 3.54486C9.23535 3.62028 9.50425 3.60634 9.68133 3.52518C10.4142 3.18988 10.9537 3.33662 11.3079 4.05888C11.4628 4.37533 11.5628 4.72376 11.6456 5.06808C11.7038 5.30911 11.7825 5.4452 12.0555 5.40503C12.1875 5.38535 12.3375 5.39027 12.4556 5.41814C12.7565 5.48947 12.7565 5.63703 12.7688 5.75017C12.7729 5.78624 12.7565 6.07974 12.4564 6.11827C12.2236 6.14778 11.9744 6.13467 11.7219 6.13467C11.7866 7.07746 11.8981 7.97352 11.5505 8.86138C11.6095 8.90073 11.6637 8.94664 11.7251 8.97616C13.4755 9.81319 14.5248 11.2011 14.9864 13.0728C15.2487 14.1353 15.5611 15.1846 15.8513 16.2397C15.8701 16.3086 15.8988 16.375 15.957 16.5373C16.2054 15.9053 16.4186 15.3543 16.64 14.8059C16.8285 14.3386 16.9949 13.8582 17.2286 13.4138C17.8098 12.3095 18.6862 11.5045 19.8258 10.9905C19.9151 10.9503 20.0053 10.9101 20.0938 10.8667C20.1143 10.8568 20.1291 10.8347 20.1914 10.7765C19.6774 10.1715 19.7503 9.39098 19.6274 8.66135C19.488 7.83333 19.5806 7.05532 20.357 6.51834C20.0914 6.0658 19.9528 5.61162 20.1053 5.12137C20.2988 4.50159 20.7563 4.13841 21.3588 3.97772C22.1795 3.75883 22.9796 3.81212 23.6699 4.36796C24.3159 4.88772 24.393 5.55423 23.9462 6.51506C24.7611 7.15698 24.8258 8.00549 24.5988 8.94172C24.5414 9.17701 24.5971 9.44017 24.5373 9.67382C24.4372 10.0616 24.2856 10.4354 24.1487 10.8355C24.425 10.9757 24.7398 11.1134 25.0316 11.288C26.1154 11.9357 26.8828 12.8588 27.3443 14.0312C27.9157 15.4847 28.4716 16.9448 29.0479 18.3967C29.2201 18.8304 29.2602 19.2518 29.0758 19.7059C29.1668 19.7527 29.2504 19.7978 29.3365 19.8379C29.88 20.0913 30.1793 20.52 30.1809 21.116C30.1899 23.4689 30.1834 25.8226 30.1866 28.1755C30.1866 28.4313 30.1038 28.6354 29.8308 28.6411C29.5406 28.6477 29.4439 28.4477 29.4447 28.1697C29.4496 25.9152 29.448 23.6616 29.4472 21.4071C29.4472 21.2718 29.4545 21.1332 29.4267 21.0029C29.3562 20.675 29.1389 20.4839 28.8069 20.4733C28.4896 20.4635 28.2748 20.6381 28.1715 20.9381C28.1436 21.0185 28.1256 21.1529 28.1182 21.1865C28.0838 21.3382 27.978 21.4784 27.7592 21.4636C27.5403 21.4489 27.446 21.2579 27.423 21.1218C27.3886 20.916 27.473 20.6914 27.5132 20.438H27.5083ZM24.9513 18.3C24.4848 18.327 24.0528 18.3803 23.624 18.3639C23.3953 18.3557 23.2542 18.163 23.319 17.9089C23.3772 17.6802 23.5412 17.6121 23.7716 17.6392C24.4217 17.7179 24.8308 17.44 25.0226 16.8235C25.2021 16.2479 25.0619 15.7052 24.8799 15.1633C24.8029 14.9354 24.8365 14.7378 25.0775 14.6419C25.3218 14.5452 25.4743 14.6805 25.5752 14.8936C25.5965 14.9379 25.6096 14.9854 25.6276 15.0313C26.1556 16.3832 26.6844 17.7343 27.2123 19.0862C27.4304 19.6445 27.678 19.8248 28.0428 19.6887C28.4388 19.5403 28.5396 19.1772 28.3363 18.6287C28.3281 18.6057 28.3166 18.5836 28.3076 18.5607C27.778 17.1965 27.2451 15.8331 26.7196 14.4673C26.1671 13.0293 25.203 12.0087 23.7273 11.516C23.5633 11.461 23.3387 11.4758 23.1772 11.543C22.4779 11.8332 21.7958 11.8291 21.0973 11.5414C20.9358 11.475 20.7112 11.4618 20.5464 11.5176C19.1847 11.9734 18.2238 12.8793 17.6754 14.2017C17.2466 15.2355 16.8621 16.2873 16.4424 17.3244C16.312 17.6457 16.2809 17.9392 16.394 18.2803C16.5342 18.7041 16.6022 19.1517 16.7195 19.6682C16.8383 19.4871 16.9769 19.3378 17.0466 19.1608C17.5926 17.7761 18.1255 16.3865 18.6624 14.9985C18.7575 14.7518 18.8838 14.523 19.1978 14.6436C19.5077 14.7624 19.4552 15.0125 19.3658 15.265C19.1871 15.7716 19.0986 16.2873 19.2503 16.821C19.4077 17.3752 19.8676 17.7335 20.3939 17.6589C20.6808 17.6179 20.9153 17.6523 20.9481 17.9655C20.9842 18.3082 20.712 18.4139 20.4374 18.4024C20.0758 18.3869 19.7176 18.3139 19.3314 18.2614C18.8904 20.5815 18.4411 22.9459 17.9853 25.3438H26.2917C25.8359 22.9483 25.3858 20.5831 24.9513 18.2991V18.3ZM9.33455 6.1404C8.92874 6.1404 8.52129 6.15598 8.11712 6.13467C7.85314 6.12073 7.71459 6.21501 7.71295 6.47489C7.70803 7.03974 7.66622 7.60952 7.72688 8.16781C7.80641 8.89663 8.52785 9.46313 9.28864 9.47952C10.0888 9.49674 10.8496 8.98435 10.9504 8.24898C11.0332 7.64723 10.9791 7.02581 10.9725 6.41258C10.9701 6.20189 10.8381 6.12975 10.6258 6.13712C10.1954 6.15188 9.76495 6.14122 9.33373 6.14122L9.33455 6.1404ZM22.1254 11.029C23.0231 11.0355 23.7781 10.3215 23.8027 9.4164C23.8052 9.31392 23.6871 9.16799 23.5863 9.10897C23.1878 8.87532 22.7804 8.65315 22.3606 8.46049C22.2344 8.40228 22.036 8.4031 21.9097 8.46049C21.49 8.65397 21.0825 8.87532 20.6841 9.11061C20.5849 9.16881 20.4783 9.3213 20.4808 9.42706C20.5029 10.3174 21.2383 11.0232 22.1245 11.029H22.1254ZM23.9331 8.50886C23.9741 7.86776 23.9355 7.41112 23.4469 7.08811C22.641 6.55441 21.5105 6.56999 20.7497 7.15616C20.3447 7.46769 20.2258 7.87678 20.416 8.46459C20.744 8.28013 21.0801 8.13174 21.3695 7.91941C21.9204 7.51524 22.3418 7.51442 22.9042 7.92105C23.1952 8.13174 23.5297 8.28259 23.9331 8.50968V8.50886ZM10.9955 5.38125C10.8537 4.99758 10.7389 4.65571 10.6012 4.32287C10.5012 4.08184 10.3069 4.03183 10.0871 4.163C9.59771 4.45404 9.11976 4.44994 8.61885 4.17694C8.50981 4.11709 8.26059 4.12447 8.19828 4.20071C7.92446 4.53356 7.80805 4.93937 7.76869 5.38125H10.9963H10.9955ZM22.8542 4.75901C22.3869 4.58767 21.8729 4.58849 21.408 4.76639C21.3482 4.78934 21.29 4.81394 21.2334 4.84263C20.8399 5.03939 20.7136 5.41896 20.835 5.80838C20.9128 6.05842 21.0301 6.1732 21.3154 6.07482C21.8409 5.89446 22.3738 5.89856 22.9116 6.05432C23.2911 6.165 23.4059 6.0781 23.4756 5.68458C23.5363 5.34354 23.3821 4.99922 23.0296 4.83279C22.9722 4.80574 22.914 4.78196 22.8534 4.75983L22.8542 4.75901Z" fill="#F58520"/>
<path d="M8.98181 24.9656C8.98181 23.9064 8.98509 22.8472 8.97935 21.7888C8.97771 21.5142 9.02444 21.2723 9.35647 21.2764C9.66718 21.2805 9.71227 21.5133 9.71145 21.7724C9.70817 23.8908 9.70735 26.0084 9.71309 28.1268C9.71309 28.4064 9.65734 28.6458 9.33433 28.64C9.00313 28.6335 8.97771 28.3736 8.97853 28.1055C8.98345 27.0586 8.98099 26.0117 8.98099 24.9656H8.98181Z" fill="#F58520"/>
</g>
<defs>
<clipPath id="clip0_10016_61129">
<rect width="32" height="32" fill="white" transform="translate(0 -0.000488281)"/>
</clipPath>
</defs>
</svg>
