<svg xmlns="http://www.w3.org/2000/svg" width="13.344" height="13.344" viewBox="0 0 13.344 13.344">
    <path fill="#fff" d="M13.344 7.923v-2.5h-1.832a4.954 4.954 0 0 0-.533-1.287l1.3-1.3L10.5 1.07l-1.3 1.3a4.969 4.969 0 0 0-1.287-.533V0h-2.5v1.832a4.954 4.954 0 0 0-1.287.533l-1.3-1.3L1.07 2.839l1.3 1.3a4.969 4.969 0 0 0-.533 1.287H0v2.5h1.832a4.954 4.954 0 0 0 .533 1.284l-1.3 1.3 1.769 1.769 1.3-1.3a4.96 4.96 0 0 0 1.287.533v1.832h2.5v-1.832a4.954 4.954 0 0 0 1.287-.533l1.3 1.3 1.766-1.779-1.3-1.3a4.975 4.975 0 0 0 .533-1.287h1.832zm-6.672.834a2.085 2.085 0 1 1 2.085-2.085 2.085 2.085 0 0 1-2.085 2.085z"/>
</svg>
