<svg width="62" height="62" viewBox="0 0 62 62" fill="none" xmlns="http://www.w3.org/2000/svg">
<path d="M39.4758 34.8434C44.9769 31.7718 48.5084 25.7153 48.0658 19.0168C47.4498 9.73254 39.4237 2.71296 30.1395 3.32902C20.8552 3.94508 13.8356 11.9712 14.4517 21.2554C14.8595 27.3899 18.5038 32.5353 23.6058 35.1471" stroke="#3379A8" stroke-width="3.47074" stroke-linecap="round" stroke-linejoin="round"/>
<path d="M36.968 27.6329C39.1892 25.9409 40.6383 23.2771 40.6817 20.2663C40.7511 15.0602 36.5949 10.7911 31.3974 10.7131C26.2 10.635 21.9223 14.7999 21.8442 19.9973C21.8008 23.0949 23.2585 25.8715 25.5492 27.6156" stroke="#3379A8" stroke-width="3.47074" stroke-linecap="round" stroke-linejoin="round"/>
<path d="M28.795 46.1841L28.3524 44.6743C28.0401 43.6244 26.4088 41.0994 24.873 41.5506C24.873 41.5506 22.4261 42.184 23.4066 45.03C23.7797 46.106 25.3416 49.1516 25.3416 49.1516C25.5064 49.5073 25.6453 49.8717 25.7494 50.2448C26.1485 51.7025 26.4262 53.1863 26.7646 54.6527C27.6843 58.6267 31.1811 61.6549 35.4501 61.8024H35.7712C40.8818 61.9933 45.1682 58.0019 45.3417 52.8913L45.0727 47.7199L45.1769 44.2665C45.1595 42.8348 44.2918 41.9498 43.32 41.9237C42.782 41.9064 41.7061 42.0452 41.5846 43.9541C41.576 44.1103 41.6193 43.3034 41.5846 43.9541L41.5239 46.6266H41.3851L41.4979 41.5246C41.5933 40.414 40.8558 39.3207 39.7538 39.1732C39.1551 39.0951 38.5911 39.2773 38.1746 39.633C37.7755 39.9628 37.4978 40.4487 37.4458 41.0127L37.2983 46.4878L37.1508 46.4704L37.2809 39.1905C37.385 38.0625 36.5521 37.0734 35.4328 36.9866C34.8774 36.9259 34.3481 37.1081 33.9403 37.4465C33.5325 37.7849 33.2722 38.2708 33.2202 38.8348L33.0726 46.3229H32.9251L33.1854 32.4399C33.2809 31.3293 32.4566 30.3401 31.3373 30.236C30.782 30.1926 30.2527 30.3748 29.8535 30.7046C29.4544 31.0343 29.1767 31.5289 29.1247 32.0842L28.847 46.1667" fill="#F8FCFE"/>
<path d="M28.795 46.1841L28.3524 44.6743C28.0401 43.6244 26.4088 41.0994 24.873 41.5506C24.873 41.5506 22.4261 42.184 23.4066 45.03C23.7797 46.106 25.3416 49.1516 25.3416 49.1516C25.5064 49.5073 25.6453 49.8717 25.7494 50.2448C26.1485 51.7025 26.4262 53.1863 26.7646 54.6527C27.6843 58.6267 31.1811 61.6549 35.4501 61.8024H35.7712C40.8818 61.9933 45.1682 58.0019 45.3417 52.8913L45.0727 47.7199L45.1769 44.2665C45.1595 42.8348 44.2918 41.9498 43.32 41.9237C42.782 41.9064 41.7061 42.0452 41.5846 43.9541C41.576 44.1103 41.6193 43.3034 41.5846 43.9541L41.5239 46.6266H41.3851L41.4979 41.5246C41.5933 40.414 40.8558 39.3207 39.7538 39.1732C39.1551 39.0951 38.5911 39.2773 38.1746 39.633C37.7755 39.9628 37.4978 40.4487 37.4458 41.0127L37.2983 46.4878L37.1508 46.4704L37.2809 39.1905C37.385 38.0625 36.5521 37.0734 35.4328 36.9866C34.8774 36.9259 34.3481 37.1081 33.9403 37.4465C33.5325 37.7849 33.2722 38.2708 33.2202 38.8348L33.0726 46.3229H32.9251L33.1854 32.4399C33.2809 31.3293 32.4566 30.3401 31.3373 30.236C30.782 30.1926 30.2527 30.3748 29.8535 30.7046C29.4544 31.0343 29.1767 31.5289 29.1247 32.0842L28.847 46.1667" fill="#FBE6D1"/>
<g style="mix-blend-mode:multiply">
<path d="M42.7046 41.9671C42.7046 41.9671 44.0408 58.5833 36.7783 60.874C36.7783 60.874 41.4812 61.0475 44.0756 55.9455C44.0756 55.9455 45.2556 53.9325 44.8304 51.0344C44.8304 51.0344 44.5528 46.7567 44.6829 45.9237C44.6829 45.9237 45.4986 40.8304 42.7046 41.9584V41.9671Z" fill="#FBE6D1"/>
</g>
<path d="M28.8986 45.7762L28.4474 44.2665C28.135 43.2166 26.4951 40.7003 24.9593 41.1515C24.9593 41.1515 22.5124 41.7849 23.5016 44.6309C23.8747 45.7068 25.4452 48.7437 25.4452 48.7437C25.6101 49.0995 25.7489 49.4552 25.853 49.837C26.2522 51.2947 26.5385 52.7698 26.8856 54.2448C27.814 58.2188 31.3195 61.2297 35.5971 61.3772H35.9182C41.0289 61.5594 45.3066 57.5507 45.4627 52.44L45.1764 47.2686L45.2718 43.8066C45.2458 42.3749 44.3781 41.4899 43.4063 41.4725C42.8684 41.4638 41.7924 41.594 41.6796 43.5116C41.6709 43.6677 41.7143 42.8608 41.6796 43.5116L41.6189 46.184H41.4801L41.5842 41.082C41.6796 39.9714 40.9421 38.8868 39.8315 38.7306C39.2241 38.6525 38.6688 38.8434 38.2523 39.1992C37.8531 39.5376 37.5755 40.0148 37.5321 40.5788L37.3933 46.0539H37.2458L37.3585 38.7653C37.454 37.6373 36.6297 36.6482 35.5017 36.5614C34.9464 36.5093 34.4171 36.6829 34.0093 37.03C33.6015 37.377 33.3412 37.8542 33.2978 38.4182L33.1676 45.9151H33.0201L33.2457 32.0321C33.3412 30.9214 32.5169 29.9323 31.3889 29.8282C30.8336 29.7848 30.3043 29.967 29.9051 30.3054C29.506 30.6438 29.2283 31.1384 29.185 31.685L28.942 45.7675" stroke="#6A509A" stroke-width="0.867686" stroke-linecap="round" stroke-linejoin="round"/>
</svg>
