<svg width="64" height="64" viewBox="0 0 64 64" fill="none" xmlns="http://www.w3.org/2000/svg">
<g clip-path="url(#clip0_14_75418)">
<g opacity="0.2">
<path d="M32.6396 64.3198C50.3128 64.3198 64.6396 49.9929 64.6396 32.3198C64.6396 14.6467 50.3128 0.319824 32.6396 0.319824C14.9665 0.319824 0.639648 14.6467 0.639648 32.3198C0.639648 49.9929 14.9665 64.3198 32.6396 64.3198Z" fill="#7DCFDD"/>
</g>
<path d="M20 10C20 4.47715 15.5228 0 10 0C4.47715 0 0 4.47715 0 10C0 15.5228 4.47715 20 10 20C15.5228 20 20 15.5228 20 10Z" fill="#6A509A"/>
<path d="M12.6442 11.2809C12.6442 11.6658 12.572 12.0065 12.4237 12.3032C12.2754 12.5998 12.0749 12.8484 11.8104 13.0528C11.5458 13.2573 11.2371 13.4096 10.8723 13.5138C10.5075 13.6181 10.1106 13.6702 9.67766 13.6702C9.41709 13.6702 9.17255 13.6501 8.94004 13.6141C8.70753 13.578 8.50709 13.5299 8.3307 13.4738C8.15431 13.4176 8.00999 13.3615 7.89374 13.3014C7.77748 13.2412 7.70532 13.1972 7.66924 13.1651C7.63316 13.133 7.6051 13.0969 7.58907 13.0568C7.57303 13.0168 7.557 12.9727 7.54096 12.9165C7.52493 12.8644 7.51691 12.7963 7.5129 12.7161C7.50889 12.6359 7.50488 12.5357 7.50488 12.4234C7.50488 12.235 7.52092 12.1027 7.55299 12.0306C7.58506 11.9584 7.63317 11.9223 7.69731 11.9223C7.73739 11.9223 7.80554 11.9504 7.90176 12.0025C7.99797 12.0546 8.12224 12.1148 8.27057 12.1749C8.4229 12.235 8.59929 12.2952 8.79973 12.3473C9.00017 12.3994 9.23268 12.4275 9.48925 12.4275C9.70573 12.4275 9.89815 12.4034 10.0665 12.3513C10.2349 12.2992 10.3752 12.227 10.4915 12.1348C10.6077 12.0426 10.6959 11.9304 10.752 11.7981C10.8082 11.6658 10.8362 11.5175 10.8362 11.3571C10.8362 11.1807 10.8001 11.0204 10.732 10.876C10.6638 10.7317 10.5596 10.6115 10.4233 10.5112C10.287 10.411 10.1146 10.3308 9.90617 10.2787C9.69771 10.2226 9.45317 10.1945 9.17255 10.1945H8.50709C8.45497 10.1945 8.41088 10.1865 8.3748 10.1745C8.33872 10.1625 8.31066 10.1304 8.2866 10.0903C8.26255 10.0462 8.24652 9.98609 8.23449 9.90992C8.22246 9.83375 8.21845 9.73353 8.21845 9.60926C8.21845 9.493 8.22246 9.4008 8.23449 9.32864C8.24652 9.25648 8.25854 9.20036 8.28259 9.16027C8.30264 9.12018 8.3307 9.09212 8.36678 9.07608C8.39885 9.06005 8.43894 9.05203 8.48704 9.05203H9.15652C9.38502 9.05203 9.58947 9.02397 9.76987 8.97186C9.95026 8.91974 10.0986 8.84357 10.2189 8.74335C10.3391 8.64313 10.4313 8.52287 10.4955 8.38256C10.5596 8.24225 10.5917 8.08591 10.5917 7.91754C10.5917 7.78525 10.5716 7.66498 10.5275 7.54472C10.4834 7.42846 10.4193 7.32824 10.3351 7.24005C10.2509 7.15185 10.1387 7.08771 10.0064 7.0396C9.87009 6.9915 9.71374 6.96344 9.53335 6.96344C9.3289 6.96344 9.13246 6.99551 8.95207 7.05564C8.77167 7.11577 8.60731 7.18392 8.46299 7.25608C8.31867 7.32824 8.1944 7.39639 8.09418 7.46053C7.99396 7.52467 7.91779 7.55674 7.86969 7.55674C7.83761 7.55674 7.80955 7.54872 7.7855 7.5367C7.76145 7.52467 7.7414 7.49661 7.72537 7.45652C7.70933 7.41643 7.69731 7.36031 7.68929 7.28414C7.68127 7.20798 7.67726 7.11176 7.67726 6.9915C7.67726 6.89128 7.67726 6.8111 7.68127 6.74696C7.68528 6.68282 7.6933 6.6267 7.70532 6.5826C7.71735 6.5385 7.73339 6.50242 7.74942 6.47035C7.76546 6.43828 7.79753 6.4022 7.83361 6.36612C7.86969 6.33004 7.95387 6.27392 8.07814 6.19775C8.20242 6.12158 8.35475 6.04943 8.54317 5.97727C8.73158 5.90511 8.94405 5.84498 9.18859 5.79687C9.43313 5.74876 9.69771 5.7207 9.98233 5.7207C10.3552 5.7207 10.6839 5.7648 10.9725 5.85299C11.2611 5.94119 11.5017 6.06546 11.6981 6.22982C11.8945 6.39418 12.0429 6.59463 12.1431 6.83515C12.2433 7.07568 12.2954 7.34427 12.2954 7.64494C12.2954 7.87745 12.2674 8.09793 12.2072 8.29837C12.1471 8.49882 12.0589 8.67921 11.9467 8.83956C11.8304 8.99992 11.6901 9.13221 11.5177 9.24446C11.3453 9.3567 11.1449 9.43688 10.9204 9.493V9.50904C11.189 9.54111 11.4295 9.60926 11.646 9.71349C11.8625 9.81772 12.0429 9.95001 12.1912 10.1064C12.3395 10.2627 12.4518 10.4431 12.5319 10.6435C12.6121 10.844 12.6522 11.0564 12.6522 11.289L12.6442 11.2809Z" fill="white"/>
<g style="mix-blend-mode:multiply" opacity="0.25">
<path d="M38.3613 23.501C38.3613 23.501 43.8013 30.4418 38.5981 41.9682C38.5981 41.9682 50.9949 26.2658 38.3613 23.501Z" fill="#E0D4FF"/>
</g>
<path d="M39.9937 17.5135V17.1359L40.0161 14.9663L40.0545 10.6303C40.0577 10.1599 39.6833 9.77586 39.2129 9.77266L24.0577 9.63186C23.5873 9.62866 23.2033 10.0031 23.2001 10.4735L23.1201 19.1455C23.1169 19.6159 23.4913 19.9999 23.9617 20.0031L31.5393 20.0735L35.3281 20.1087L37.2225 20.1279H37.3281L39.9937 17.5135ZM33.1233 12.3231L33.0753 17.4847C33.0721 17.9711 32.6753 18.3583 32.1889 18.3551L25.7313 18.2943C25.2449 18.2911 24.8577 17.8943 24.8609 17.4079L24.9089 12.2463C24.9121 11.7599 25.3089 11.3727 25.7953 11.3759L32.2529 11.4367C32.7393 11.4399 33.1265 11.8367 33.1233 12.3231Z" fill="#FAFBFC"/>
<path d="M37.4691 20.4802L23.9587 20.3554C23.6387 20.3554 23.3379 20.2242 23.1139 19.997C22.8899 19.7698 22.7683 19.4658 22.7715 19.1458L22.8515 10.4738C22.8579 9.81782 23.3955 9.28662 24.0515 9.28662H24.0643L39.2195 9.42742C39.8819 9.43382 40.4131 9.97782 40.4067 10.637L40.3427 17.6642L37.4723 20.4834L37.4691 20.4802ZM24.0483 9.97782C23.7731 9.97782 23.5491 10.1986 23.5459 10.4738L23.4659 19.1458C23.4659 19.2802 23.5171 19.4082 23.6099 19.5042C23.7027 19.6002 23.8275 19.6514 23.9651 19.6546L37.1875 19.7794L39.6451 17.3666L39.7059 10.6274C39.7059 10.349 39.4851 10.1218 39.2099 10.1218L24.0547 9.98102H24.0515L24.0483 9.97782ZM32.1987 18.701H32.1859L25.7283 18.6402C25.0531 18.6338 24.5059 18.077 24.5123 17.4018L24.5603 12.2402C24.5603 11.9106 24.6947 11.6034 24.9283 11.3762C25.1619 11.1458 25.4595 11.0274 25.7987 11.0242L32.2563 11.085C32.5859 11.085 32.8899 11.2194 33.1203 11.453C33.3507 11.6866 33.4755 11.997 33.4723 12.3234L33.4243 17.485C33.4243 17.8146 33.2899 18.1218 33.0563 18.349C32.8259 18.5762 32.5219 18.701 32.1955 18.701H32.1987ZM30.8259 17.9906L32.1923 18.0034C32.3331 18.0034 32.4675 17.9522 32.5699 17.853C32.6723 17.7538 32.7267 17.6226 32.7267 17.4786L32.7747 12.317C32.7747 12.1762 32.7235 12.0418 32.6243 11.9394C32.5251 11.8402 32.3939 11.7826 32.2499 11.7826L25.7923 11.7218C25.6611 11.7314 25.5171 11.773 25.4147 11.8722C25.3155 11.9714 25.2579 12.1026 25.2579 12.2466L25.2099 17.4082C25.2099 17.6994 25.4435 17.9394 25.7347 17.9426L27.1011 17.9554L27.1075 17.101C27.1107 16.6018 27.3091 16.1378 27.6643 15.789L28.1539 16.285C27.9331 16.5026 27.8083 16.7938 27.8051 17.1074L27.7987 17.9618L30.1283 17.9842L30.1347 17.1298C30.1347 16.8162 30.0195 16.525 29.8019 16.301L30.2979 15.8114C30.6467 16.1666 30.8355 16.6338 30.8291 17.133L30.8227 17.9874L30.8259 17.9906Z" fill="#090909"/>
<path d="M25.0078 14.8286L27.9166 14.8542ZM30.115 14.8734L32.979 14.899Z" fill="#FAFBFC"/>
<path d="M32.9732 15.4242L30.1092 15.3986L30.1188 14.3522L32.9828 14.3778L32.9732 15.4242ZM27.9108 15.3762L25.002 15.3506L25.0116 14.3042L27.9204 14.3298L27.9108 15.3762Z" fill="#6A509A"/>
<path d="M25.0078 14.8286L27.9166 14.8574ZM30.115 14.8766L32.979 14.9022Z" fill="#FAFBFC"/>
<path d="M32.9732 15.4242L30.1092 15.3986L30.1188 14.3522L32.9828 14.3778L32.9732 15.4242ZM27.9108 15.3762L25.002 15.3506L25.0116 14.3042L27.9204 14.3298L27.9108 15.3762Z" fill="#6A509A"/>
<path d="M30.0827 13.7952L30.0635 15.9552L27.9035 15.936L27.9227 13.776L30.0827 13.7952ZM30.0827 13.7952L30.0731 13.6928C30.3483 13.4208 30.5211 13.0464 30.5243 12.6272L30.5339 11.4272M27.5067 11.3984L27.4971 12.5984C27.4939 13.0176 27.6571 13.3984 27.9291 13.6736" fill="#FAFBFC"/>
<path d="M30.41 16.3073L27.5524 16.2817L27.5748 13.7921C27.2996 13.4561 27.1492 13.0369 27.1524 12.5921L27.162 11.3921L27.8596 11.3985L27.85 12.5985C27.85 12.9121 27.9652 13.2033 28.1828 13.4273L29.834 13.4433C30.0548 13.2257 30.1796 12.9345 30.1828 12.6209L30.1956 11.4209L30.8932 11.4273L30.8804 12.6273C30.8772 13.0689 30.7204 13.4881 30.4388 13.8177L30.4164 16.3073H30.41ZM28.2564 15.5905L29.722 15.6033L29.7348 14.1377L28.2692 14.1249L28.2564 15.5905Z" fill="#090909"/>
<path d="M29.3089 18.2847L28.6113 18.2783L28.6305 16.0191L29.3281 16.0255L29.3089 18.2847ZM29.3505 13.7407L28.6529 13.7343L28.6721 11.4463L29.3697 11.4527L29.3505 13.7407Z" fill="#090909"/>
<path d="M31.1711 13.9679C31.4047 13.7343 31.7279 13.5935 32.0863 13.5967L33.1071 13.6063M33.0847 16.2015L32.0639 16.1919C31.7087 16.1887 31.3855 16.0415 31.1551 15.8047M26.8319 13.9295C26.6015 13.6927 26.2815 13.5455 25.9231 13.5423L24.9023 13.5327M24.8799 16.1279L25.9007 16.1375C26.2559 16.1407 26.5791 15.9999 26.8159 15.7663" fill="#FAFBFC"/>
<path d="M33.0818 16.5471L32.061 16.5375C31.6226 16.5343 31.213 16.3583 30.9058 16.0447L31.405 15.5583C31.581 15.7375 31.8146 15.8399 32.0642 15.8399L33.085 15.8495L33.0786 16.5471H33.0818ZM25.9138 16.4799H25.8978L24.877 16.4703L24.8834 15.7727L25.9042 15.7823C26.1538 15.7823 26.3906 15.6895 26.5698 15.5135L27.0594 16.0095C26.7522 16.3135 26.3458 16.4799 25.9106 16.4799H25.9138ZM31.4178 14.2143L30.9282 13.7183C31.2386 13.4111 31.645 13.2447 32.0898 13.2479L33.1106 13.2575L33.1042 13.9551L32.0834 13.9455H32.0738C31.8242 13.9455 31.5938 14.0415 31.4178 14.2143ZM26.5826 14.1695C26.4066 13.9903 26.173 13.8911 25.9202 13.8879L24.8994 13.8783L24.9058 13.1807L25.9266 13.1903C26.365 13.1935 26.7746 13.3695 27.0818 13.6831L26.5826 14.1695Z" fill="#090909"/>
<path d="M36.9407 11.308L36.9375 11.6567L38.3102 11.6694L38.3135 11.3207L36.9407 11.308Z" fill="#090909"/>
<path d="M36.9407 11.308L36.9375 11.6567L38.3102 11.6694L38.3135 11.3207L36.9407 11.308Z" fill="#090909"/>
<path d="M36.9349 12.1693L36.9316 12.5181L38.3044 12.531L38.3077 12.1822L36.9349 12.1693Z" fill="#090909"/>
<path d="M36.9349 12.1693L36.9316 12.5181L38.3044 12.531L38.3077 12.1822L36.9349 12.1693Z" fill="#090909"/>
<path d="M36.9251 13.036L36.9219 13.3848L38.2946 13.3975L38.2978 13.0487L36.9251 13.036Z" fill="#090909"/>
<path d="M36.9251 13.036L36.9219 13.3848L38.2946 13.3975L38.2978 13.0487L36.9251 13.036Z" fill="#090909"/>
<path d="M36.9222 13.9007L36.9189 14.2495L38.2917 14.2624L38.295 13.9137L36.9222 13.9007Z" fill="#090909"/>
<path d="M36.9222 13.9007L36.9189 14.2495L38.2917 14.2624L38.295 13.9137L36.9222 13.9007Z" fill="#090909"/>
<path d="M43.9262 27.9006C42.9406 23.1006 39.2958 23.1006 32.0382 23.1006H31.9582C24.7038 23.1006 21.059 23.1006 20.0702 27.9006C19.6478 29.9422 19.8622 32.1438 20.6942 34.2686C22.1246 37.9134 23.747 40.355 25.3982 41.9678C25.6414 42.211 25.8014 42.5182 25.8334 42.8606L27.1294 53.3214C27.2766 54.7454 28.3166 55.9326 29.7214 56.2334C30.0574 56.3038 30.3966 56.355 30.7326 56.3934L30.9918 59.6318C31.0366 60.1758 31.4878 60.595 32.035 60.595C32.5822 60.595 33.0334 60.1758 33.0782 59.6318L33.3406 56.3806C33.651 56.3422 33.9614 56.2974 34.2718 56.2334C35.6734 55.9326 36.7134 54.7422 36.8638 53.3214L38.1598 42.8606C38.1918 42.5182 38.355 42.211 38.595 41.9678C40.2462 40.3582 41.8718 37.9134 43.299 34.2686C44.131 32.1406 44.3454 29.939 43.923 27.9006H43.9262ZM39.0398 33.651C37.8014 36.8254 35.5742 40.611 32.0286 40.611H31.9678C28.4222 40.611 26.195 36.8254 24.9566 33.651C24.611 32.7646 24.4286 31.8558 24.4286 30.9822C24.4286 30.5598 24.4702 30.1438 24.5534 29.7374C25.0302 27.4494 26.4798 27.3566 31.9646 27.3566H32.0254C37.5134 27.3566 38.9598 27.4526 39.4366 29.7374C39.523 30.1438 39.5614 30.5598 39.5614 30.9822C39.5614 31.8558 39.3822 32.7614 39.0334 33.651H39.0398Z" fill="#FAFBFC"/>
<path d="M32.0386 61.1167C31.2258 61.1167 30.541 60.4831 30.4738 59.6735L30.2466 56.8575C30.0194 56.8255 29.8146 56.7871 29.613 56.7455C27.9906 56.3967 26.7842 55.0399 26.6114 53.3759L25.3186 42.9279C25.2898 42.6495 25.149 42.4575 25.0306 42.3391C23.1714 40.5247 21.5458 37.8719 20.2082 34.4607C19.3378 32.2399 19.1138 29.9359 19.5586 27.7951C20.6306 22.5791 24.653 22.5791 31.9554 22.5791H32.0354C39.3378 22.5791 43.3602 22.5791 44.4322 27.7951C44.877 29.9359 44.653 32.2399 43.7826 34.4607C42.445 37.8719 40.8226 40.5215 38.957 42.3423C38.845 42.4543 38.701 42.6463 38.6754 42.9119L37.3794 53.3855C37.2066 55.0431 36.0002 56.3967 34.381 56.7455C34.1922 56.7839 34.0034 56.8159 33.8274 56.8447L33.6002 59.6767C33.5362 60.4863 32.8482 61.1199 32.0354 61.1199L32.0386 61.1167ZM31.9586 23.6255C24.7682 23.6255 21.485 23.6255 20.5858 28.0063C20.1826 29.9487 20.3906 32.0479 21.1842 34.0799C22.4674 37.3503 24.0098 39.8783 25.7666 41.5935C26.109 41.9359 26.3138 42.3551 26.3586 42.8095L27.6514 53.2575C27.7794 54.4831 28.6562 55.4687 29.8338 55.7247C30.1186 55.7855 30.4258 55.8335 30.797 55.8783L31.2226 55.9295L31.517 59.5935C31.5394 59.8623 31.7666 60.0735 32.0386 60.0735C32.3106 60.0735 32.5378 59.8623 32.5602 59.5935L32.8546 55.9199L33.277 55.8687C33.5426 55.8367 33.8594 55.7919 34.1666 55.7279C35.3442 55.4751 36.221 54.4863 36.3458 53.2735L37.6418 42.8031C37.6834 42.3647 37.8882 41.9455 38.2274 41.6063C39.9906 39.8847 41.533 37.3567 42.8162 34.0863C43.6098 32.0543 43.8178 29.9551 43.4146 28.0127C42.5154 23.6319 39.2322 23.6319 32.0418 23.6319H31.9618L31.9586 23.6255ZM32.029 41.1359H31.9682C28.1218 41.1359 25.7666 37.1679 24.4706 33.8431C24.0962 32.8863 23.9074 31.9231 23.9074 30.9855C23.9074 30.5215 23.9522 30.0671 24.045 29.6351C24.6274 26.8383 26.7778 26.8383 31.9682 26.8383H32.029C37.2226 26.8383 39.3698 26.8383 39.9522 29.6351C40.0418 30.0671 40.0898 30.5215 40.0898 30.9855C40.0898 31.9231 39.901 32.8863 39.5266 33.8431C38.2274 37.1711 35.8754 41.1359 32.029 41.1359ZM31.9682 27.8815C25.9586 27.8815 25.4146 28.1791 25.069 29.8463C24.9922 30.2079 24.9538 30.5919 24.9538 30.9823C24.9538 31.7919 25.1202 32.6239 25.4434 33.4591C26.6242 36.4831 28.7138 40.0863 31.9682 40.0863H32.029C35.2834 40.0863 37.373 36.4831 38.5538 33.4591C38.8802 32.6239 39.0434 31.7887 39.0434 30.9823C39.0434 30.5887 39.005 30.2079 38.9282 29.8463C38.5474 28.0255 37.5362 27.8783 32.0258 27.8783H31.965L31.9682 27.8815Z" fill="#6A509A"/>
<path d="M32.0383 29.2544C32.0383 29.2544 32.0127 29.2544 31.9999 29.2544C31.9871 29.2544 31.9743 29.2544 31.9615 29.2544C29.7279 29.2544 27.9199 30.0416 27.9199 31.0144C27.9199 31.9872 29.7311 32.7744 31.9615 32.7744C31.9743 32.7744 31.9871 32.7744 31.9999 32.7744C32.0127 32.7744 32.0255 32.7744 32.0383 32.7744C34.2719 32.7744 36.0799 31.9872 36.0799 31.0144C36.0799 30.0416 34.2687 29.2544 32.0383 29.2544Z" fill="#090909"/>
<path d="M21.5459 15.7634H22.8003H23.9235H29.0371H30.1603H32.0419H33.1651H39.8883H41.0115H42.4547V14.2178H41.0115H39.8883H23.9235H22.8003H21.5459V15.7634Z" fill="#E36666"/>
</g>
<defs>
<clipPath id="clip0_14_75418">
<rect width="64" height="64" fill="white"/>
</clipPath>
</defs>
</svg>
