<svg width="45" height="46" viewBox="0 0 45 46" fill="none" xmlns="http://www.w3.org/2000/svg">
<g clip-path="url(#clip0_43_122869)">
<path d="M22.5 45.5001C34.9264 45.5001 45 35.4265 45 23.0001C45 10.5737 34.9264 0.500061 22.5 0.500061C10.0736 0.500061 0 10.5737 0 23.0001C0 35.4265 10.0736 45.5001 22.5 45.5001Z" fill="#E3F2FB"/>
<path d="M33.9598 11.0599H33.9V11.0301L33.9598 11.0599Z" fill="white"/>
<path d="M10.03 36.05L14.09 36.29C15.44 36.29 16.54 34.94 16.54 33.28V26.03C16.54 24.37 15.44 23.02 14.09 23.02H7.89995C7.89995 23.02 7.51996 26.69 8.05996 30.42C8.76996 35.27 10.03 36.05 10.03 36.05Z" fill="#FBFBFB"/>
<path d="M16.8901 27.1901V33.1801C16.8901 33.1801 24.9901 35.2201 26.7601 35.1101C28.5301 35.0001 28.9401 35.2101 31.1201 33.3001L36.8901 28.8601C37.4801 28.3301 37.8501 27.2401 37.3101 26.7701C36.9801 26.4801 36.4501 26.3101 35.7601 26.6201L29.7601 30.3501C29.7601 30.3501 30.2401 29.6901 30.2501 29.4401C30.3101 28.5701 30.9501 26.8501 28.7201 27.1701H26.0701C26.0701 27.1701 22.7601 24.9801 20.0001 26.4601L16.8901 26.5801V27.2001V27.1901Z" fill="#FBE6D1"/>
<path d="M20.4801 7.79013H35.0101C35.2101 7.79013 35.3701 7.95013 35.3701 8.15013V22.3001C35.3701 22.4901 35.2201 22.6401 35.0301 22.6401H20.0701C19.8801 22.6401 19.7301 22.4901 19.7301 22.3001V8.56013C19.7301 8.14013 20.0701 7.80013 20.4901 7.80013L20.4801 7.79013Z" fill="#F58E25"/>
<path d="M20.12 7.77005H34.97C35.2 7.77005 35.38 7.95005 35.38 8.18005V11.7501H19.71V8.17005C19.71 7.95005 19.89 7.77005 20.11 7.77005H20.12Z" fill="#F7A551"/>
<path d="M28.82 7.77002H26.38L26.35 12.55H28.82V7.77002Z" fill="#FBFBFB"/>
<path d="M24.02 16.7H21V21.2H24.02V16.7Z" fill="#6A509B"/>
<path d="M21.63 17.44H22.39" stroke="white" stroke-width="0.259757" stroke-miterlimit="10" stroke-linecap="round"/>
<path d="M21.63 17.84L23.21 17.83" stroke="white" stroke-width="0.259757" stroke-linecap="round" stroke-linejoin="round"/>
<path d="M23.5201 19.23H21.5001C21.2201 19.23 21.0001 19.49 21.0001 19.81V21.19H24.0201V19.81C24.0201 19.49 23.8001 19.23 23.5201 19.23Z" fill="#563E86"/>
<path d="M21.63 20.0301H23.21" stroke="white" stroke-width="0.259757" stroke-linecap="round" stroke-linejoin="round"/>
<path d="M28.82 12.15V12.85L28.6 12.66L28.4 12.85L28.2 12.66L28.02 12.85L27.86 12.66L27.68 12.85L27.46 12.66L27.28 12.85L27.06 12.66L26.83 12.83L26.66 12.66L26.38 12.83L26.35 12.67V12.06L28.82 12.15Z" fill="#FBFBFB"/>
<path d="M32.7901 28.5401L35.7501 26.6301C35.7501 26.6301 36.9301 26.0101 37.4701 27.0401C37.4701 27.0401 37.8001 27.7901 37.2601 28.4301C35.9301 29.9901 30.8601 33.5401 30.8601 33.5401C30.8601 33.5401 29.2601 35.2801 27.0501 35.1201C24.8401 34.9601 16.8901 33.2001 16.8901 33.2001V26.5901L20.0001 26.4701C20.0001 26.4701 23.0501 25.0801 26.0701 27.1801L29.1201 27.1601C29.1201 27.1601 29.1601 27.1601 29.2201 27.1701C30.9301 27.4301 30.7001 29.9801 28.9701 29.9801H23.7101" stroke="#6A509A" stroke-width="1.03903" stroke-linecap="round" stroke-linejoin="round"/>
<path d="M6.34001 36.9901C6.14001 36.9901 5.98001 36.83 5.98001 36.64C5.98001 36.44 6.13001 36.27 6.33001 36.27L14.28 36.07C14.81 36.06 15.29 35.88 15.66 35.5201C16.04 35.1501 16.26 34.64 16.26 34.1101L16.36 25.4801C16.37 24.3801 15.51 23.4801 14.44 23.4701L5.68001 23.6401C5.48001 23.6401 5.32001 23.4801 5.32001 23.2801C5.32001 23.0801 5.48001 22.9101 5.68001 22.9101L14.45 22.7401C15.93 22.7601 17.11 23.9901 17.1 25.4901L17 34.12C17 34.85 16.7 35.54 16.18 36.05C15.67 36.55 15 36.8001 14.3 36.8101L6.36001 37.01L6.34001 36.9901Z" fill="#6A509A"/>
<g style="mix-blend-mode:multiply">
<path d="M7.88982 24.2401H13.2298C14.5398 24.2401 15.7998 25.0101 16.2098 26.2601C16.2498 26.3801 16.2798 26.5101 16.3098 26.6401C16.3098 26.6401 17.0898 23.6601 14.4398 23.4501L7.87982 23.4801V24.2301L7.88982 24.2401Z" fill="#EEEBF3"/>
</g>
</g>
<defs>
<clipPath id="clip0_43_122869">
<rect width="45" height="45" fill="white" transform="translate(0 0.500061)"/>
</clipPath>
</defs>
</svg>
