<svg width="32" height="32" viewBox="0 0 32 32" fill="none" xmlns="http://www.w3.org/2000/svg">
<g clip-path="url(#clip0_10016_61134)">
<path d="M49.2881 39.7994C50.2073 39.7538 50.7721 39.281 50.7977 38.5426C50.8185 37.9338 50.5385 37.497 49.9881 37.2322C49.2217 36.8634 48.4609 36.4826 47.6873 36.1282C47.4425 36.0162 47.3409 35.8866 47.3529 35.6058C47.3785 35.029 47.3649 34.4498 47.3593 33.8714C47.3529 33.2426 47.0273 32.9266 46.3969 32.9242C45.8897 32.9226 45.3825 32.9218 44.8753 32.9242C44.2433 32.9266 43.9241 33.2466 43.9201 33.877C43.9201 33.9978 43.9201 34.1186 43.9201 34.2922C43.3233 34.0058 42.7609 33.737 42.1993 33.465C41.1785 32.9706 40.1609 32.4706 39.1377 31.981C38.3241 31.5914 37.4529 32.0418 37.2665 32.921C37.2433 33.0298 37.1233 33.1626 37.0177 33.2018C34.9753 33.953 32.9281 34.6922 30.8817 35.4338C28.6833 36.2306 26.4905 37.0458 24.2833 37.8178C23.1393 38.2178 22.9777 39.5522 23.7841 40.1466C24.0449 40.3386 24.4001 40.401 24.7121 40.5226L24.7953 40.4434V40.8226C24.7953 46.5034 24.7977 52.1842 24.7905 57.865C24.7905 58.3618 24.8769 58.8194 25.3145 59.0866C25.5681 59.2418 25.8977 59.3466 26.1937 59.3482C30.6161 59.3642 35.0393 59.3586 39.4625 59.3586C42.2417 59.3586 45.0217 59.3594 47.8009 59.3586C48.8041 59.3586 49.2889 58.8714 49.2889 57.8634C49.2889 51.9594 49.2889 46.0554 49.2889 40.1514C49.2889 40.041 49.2889 39.9298 49.2889 39.7986L49.2881 39.7994ZM28.0225 41.2818C28.0225 40.9762 28.0361 40.7034 28.0185 40.433C28.0017 40.1802 27.8545 40.0098 27.5921 40.009C27.3345 40.0082 27.1785 40.1554 27.1617 40.4226C27.1545 40.5338 27.1561 40.6458 27.1561 40.757C27.1561 46.5298 27.1561 52.3034 27.1553 58.0762C27.1553 58.213 27.1425 58.349 27.1345 58.4986C26.8553 58.4986 26.6121 58.4986 26.3697 58.4986C25.7665 58.4986 25.6569 58.3906 25.6569 57.7954C25.6569 52.0322 25.6569 46.269 25.6569 40.5066C25.6569 40.3858 25.6569 40.265 25.6569 40.1394C26.3401 39.889 27.0049 39.6418 27.6705 39.401C31.5553 37.9962 35.4409 36.5922 39.3297 35.197C39.4617 35.1498 39.6545 35.1634 39.7817 35.225C42.5577 36.5578 45.3273 37.9042 48.1033 39.2362C48.3457 39.3522 48.4345 39.4794 48.4337 39.757C48.4241 45.7738 48.4265 51.7906 48.4265 57.8074C48.4265 57.8882 48.4273 57.9698 48.4241 58.0506C48.4145 58.3018 48.2705 58.465 48.0361 58.4834C47.6785 58.5114 47.3161 58.4906 46.9273 58.4906C46.9273 58.3346 46.9273 58.2146 46.9273 58.0946C46.9273 53.8026 46.9273 49.5106 46.9273 45.2194C46.9273 44.3674 46.9297 43.5146 46.9241 42.6626C46.9217 42.321 46.7433 42.1386 46.4577 42.1618C46.1977 42.1834 46.0577 42.3682 46.0577 42.7082C46.0561 43.9866 46.0577 45.265 46.0577 46.5434C46.0577 46.6498 46.0577 46.7562 46.0577 46.877C45.8769 46.877 45.7457 46.877 45.6145 46.877C45.4833 46.877 45.3585 46.877 45.2049 46.877C45.2049 46.6458 45.2049 46.4554 45.2049 46.2642C45.2049 45.5386 45.0593 45.3418 44.3513 45.1274C44.3513 44.9122 44.3377 44.689 44.3537 44.4674C44.4305 43.393 43.5617 42.5562 42.4849 42.5802C40.5985 42.6226 38.7105 42.5882 36.8233 42.5962C36.6025 42.597 36.4833 42.5218 36.3617 42.3402C36.1041 41.9562 35.8081 41.5978 35.5337 41.225C35.4969 41.1754 35.4761 41.1034 35.4737 41.041C35.4505 40.569 35.4721 40.0922 35.4057 39.6266C35.3153 38.9954 34.9209 38.5754 34.3969 38.5266C33.6273 38.4554 32.9937 38.6394 32.6961 39.2026C32.6305 39.3258 32.5545 39.4666 32.5553 39.5986C32.5601 40.2538 32.5273 40.921 32.9393 41.497C33.0433 41.6418 32.8321 42.1434 32.6553 42.1498C32.2633 42.1642 31.8705 42.1546 31.4465 42.1546C31.4465 41.6098 31.4465 41.105 31.4465 40.6002C31.4465 40.1978 31.2969 39.9922 31.0129 40.001C30.7353 40.009 30.5873 40.2226 30.5857 40.6202C30.5857 40.8378 30.5857 41.0554 30.5857 41.2818H28.0225V41.2818ZM46.0337 47.7594V52.0346H44.8361C44.7257 51.7274 44.6225 51.445 44.5233 51.161C44.5049 51.1082 44.4825 51.0466 44.4937 50.9962C44.5769 50.6026 44.6833 50.2138 44.7529 49.8178C44.8625 49.1938 44.6585 48.6618 44.1513 48.4106C43.5921 48.1338 42.9857 48.0026 42.4249 48.4106C42.2313 48.5514 42.0193 48.7794 41.9801 48.997C41.8793 49.5474 41.8721 50.1154 41.8257 50.6762C41.8193 50.7506 41.8209 50.8362 41.7849 50.897C41.5169 51.3498 41.2297 51.7914 40.9721 52.2498C40.8729 52.4266 40.7617 52.4802 40.5649 52.4794C38.7185 52.4714 36.8721 52.4746 35.0257 52.4754C33.8753 52.4754 33.1729 53.1786 33.1657 54.3346C33.1641 54.5642 33.1657 54.7938 33.1657 55.0106C32.4761 55.2258 32.3041 55.461 32.3033 56.1498C32.3033 56.349 32.3033 56.5474 32.3033 56.7458H31.4633V47.7602H46.0337V47.7594ZM38.1425 33.3026C38.1137 32.7818 38.3809 32.5978 38.8401 32.8058C38.8769 32.8226 38.9137 32.8402 38.9497 32.8578C41.6393 34.1594 44.3297 35.461 47.0193 36.7634C47.8945 37.1874 48.7681 37.6138 49.6433 38.0386C49.8609 38.1442 49.9737 38.3138 49.9185 38.5522C49.8681 38.7674 49.7273 38.9218 49.4873 38.9002C49.3617 38.889 49.2377 38.825 49.1209 38.7682C46.0753 37.2954 43.0297 35.8218 39.9881 34.3418C39.7441 34.2234 39.5225 34.1914 39.2625 34.2858C36.2457 35.3826 33.2265 36.4722 30.2073 37.5642C28.4169 38.2122 26.6281 38.861 24.8369 39.5074C24.4993 39.629 24.2897 39.549 24.1841 39.2754C24.0849 39.0178 24.2129 38.7794 24.5249 38.6666C26.0097 38.1266 27.4953 37.5906 28.9801 37.0514C31.9113 35.9866 34.8417 34.9186 37.7753 33.8586C38.0625 33.7546 38.1897 33.5874 38.1425 33.3026V33.3026ZM46.0505 58.4754H31.4657V57.6674H46.0497V58.4754H46.0505ZM46.0401 55.929V56.7498H33.1921V55.929H46.0393H46.0401ZM31.4585 46.0474H44.3297V46.8562H31.4585V46.0474ZM43.5161 45.1466H37.0625V43.4938C37.1049 43.4802 37.1329 43.4634 37.1601 43.4634C39.0033 43.4618 40.8465 43.4578 42.6897 43.465C43.0529 43.4666 43.3625 43.7058 43.4313 44.0682C43.4969 44.4114 43.4897 44.7682 43.5169 45.1466H43.5161ZM34.0393 55.0282C34.0393 54.781 34.0385 54.5682 34.0393 54.3562C34.0425 53.6562 34.3641 53.3338 35.0633 53.3338C36.7569 53.333 38.4505 53.3338 40.1449 53.3338C40.2433 53.3338 40.3417 53.3338 40.4513 53.3338V55.029H34.0401L34.0393 55.0282ZM43.7961 51.6554C43.9561 51.9226 43.9673 52.249 43.7937 52.5626C43.3657 53.3322 42.9233 54.0946 42.4817 54.857C42.4401 54.929 42.3625 55.0258 42.2961 55.0298C41.9873 55.0482 41.6769 55.0378 41.3497 55.0378C41.3497 54.4666 41.3481 53.941 41.3521 53.4146C41.3521 53.357 41.3697 53.2922 41.3985 53.2426C41.7105 52.6978 42.0297 52.157 42.3385 51.6106C42.4209 51.4642 42.5129 51.4722 42.6601 51.5002C43.0129 51.5674 43.3729 51.601 43.7961 51.6562V51.6554ZM36.1865 45.1682C35.8633 45.1682 35.5801 45.1818 35.2993 45.1602C35.2121 45.1538 35.1009 45.0706 35.0545 44.9906C34.5945 44.2042 34.1393 43.4146 33.7033 42.6154C33.6433 42.5058 33.6457 42.3138 33.7001 42.1994C33.9825 41.6074 34.8281 41.569 35.2025 42.129C35.5113 42.5922 35.8017 43.0674 36.0953 43.541C36.1409 43.6146 36.1809 43.7066 36.1825 43.7914C36.1913 44.2354 36.1865 44.6802 36.1865 45.1682V45.1682ZM31.4625 45.157V43.0306C31.9233 43.0306 32.3673 43.0282 32.8105 43.0338C32.8625 43.0338 32.9377 43.0658 32.9617 43.1066C33.3513 43.7778 33.7353 44.453 34.1377 45.1578H31.4625V45.157ZM43.3897 55.0338C43.7977 54.3202 44.1769 53.6554 44.5609 52.993C44.5857 52.9506 44.6553 52.9122 44.7049 52.9114C45.1473 52.905 45.5897 52.9074 46.0337 52.9074V55.033H43.3889L43.3897 55.0338ZM28.0417 49.8842V48.6282H30.5617V49.8842H28.0417V49.8842ZM28.0441 43.437V42.1898H30.5601V43.437H28.0449H28.0441ZM30.5577 44.329V45.5794H28.0481V44.329H30.5585H30.5577ZM30.5657 46.4706V47.7154H28.0497V46.4706H30.5665H30.5657ZM28.0377 50.793H30.5673V52.0298H28.0385V50.793H28.0377ZM28.0481 54.1746V52.9242H30.5625V54.1746H28.0497H28.0481ZM28.0377 55.0754H30.5673V56.3186H28.0385V55.0754H28.0377ZM28.0377 57.2402H30.5681V58.4802H28.0385V57.2402H28.0377ZM46.4729 35.5274C45.9169 35.2594 45.3921 35.009 44.8713 34.7506C44.8281 34.729 44.7857 34.657 44.7841 34.6074C44.7753 34.3394 44.7801 34.0706 44.7801 33.805H46.4729V35.5274V35.5274ZM34.1041 39.333C34.3705 39.3578 34.5049 39.4874 34.5457 39.7178C34.5905 39.9666 34.6193 40.2186 34.6545 40.469C34.6833 40.6722 34.6705 40.9042 34.4569 40.9586C34.2073 41.0226 33.9137 41.0554 33.6761 40.981C33.4377 40.9066 33.3017 39.7282 33.5033 39.573C33.6681 39.4466 33.9009 39.4098 34.1033 39.333H34.1041ZM42.6521 50.109C42.6785 49.9362 42.6985 49.6394 42.7777 49.3594C42.8113 49.2394 42.9529 49.0906 43.0713 49.0634C43.6425 48.9314 43.9473 49.2218 43.8729 49.789C43.8585 49.8994 43.8529 50.0114 43.8385 50.1218C43.7593 50.7274 43.6169 50.8242 43.0185 50.6962C42.7617 50.641 42.6289 50.497 42.6529 50.109H42.6521Z" fill="#F58520"/>
<path d="M15.7842 2.271C15.3853 2.36343 14.9787 2.43154 14.5889 2.55316C13.7542 2.81308 13.0453 3.28844 12.4164 3.89099C12.2857 4.01609 12.1203 4.11686 11.9542 4.19261C10.9256 4.65964 10.3071 5.45052 10.2682 6.57361C10.214 8.12897 10.2425 9.68711 10.2571 11.2439C10.264 11.9375 10.7623 12.5727 11.4302 12.7916C11.5949 12.8458 11.6699 12.9229 11.7137 13.0918C11.9987 14.2045 12.629 15.0753 13.5811 15.7181C13.6708 15.7786 13.7187 15.9002 13.7862 15.9933C13.6889 16.0378 13.595 16.1039 13.4929 16.1233C12.563 16.3026 11.6282 16.4604 10.7011 16.6529C9.96238 16.8065 9.37513 17.2214 8.93451 17.8309C8.81845 17.9914 8.72463 18.0289 8.54254 17.9476C8.24301 17.8128 7.93096 17.7051 7.58764 17.5723V20.4085C7.47506 20.4315 7.38957 20.4489 7.30409 20.4669C6.73977 20.5879 6.30263 21.0507 6.27691 21.6248C6.24772 22.2767 6.24355 22.9313 6.26927 23.5832C6.29568 24.2664 6.73143 24.7209 7.40695 24.839C7.45838 24.8481 7.50841 24.8661 7.57791 24.8856C7.57791 25.3443 7.58486 25.8002 7.57444 26.2554C7.57096 26.4201 7.61266 26.5077 7.77807 26.5716C10.469 27.612 13.1565 28.6614 15.8475 29.7025C15.9357 29.7366 16.0601 29.7366 16.1491 29.7025C18.84 28.6614 21.5275 27.612 24.2185 26.5716C24.3846 26.5077 24.4256 26.4201 24.4221 26.2554C24.4117 25.8002 24.4186 25.3443 24.4186 24.8786C24.5055 24.8606 24.5736 24.8453 24.6431 24.8328C25.2443 24.7258 25.6946 24.2546 25.7224 23.6367C25.7509 23.0029 25.7537 22.3663 25.7308 21.7318C25.705 21.0319 25.2797 20.5781 24.5868 20.4489C24.543 20.4405 24.4999 20.4308 24.4304 20.4169V17.5689C24.0051 17.7308 23.6166 17.8781 23.2128 18.0317C22.7806 17.3777 22.21 16.9003 21.4566 16.6932C20.9757 16.5611 20.4774 16.4896 19.9861 16.3978C19.4676 16.3005 18.9478 16.2144 18.43 16.1143C18.3529 16.0997 18.2848 16.0385 18.2125 15.9989C18.2632 15.9148 18.2938 15.8001 18.3675 15.7515C19.3592 15.0961 20.0062 14.2003 20.3037 13.0473C20.3266 12.957 20.426 12.8507 20.5149 12.818C21.2898 12.531 21.7423 11.9333 21.7485 11.1146C21.7576 9.9248 21.7701 8.7336 21.7416 7.54449C21.6783 4.90149 19.6608 2.67756 17.0373 2.32451C16.9587 2.31408 16.8823 2.28907 16.8044 2.271H15.7842V2.271ZM23.5242 18.8664C23.5242 19.4126 23.5179 19.913 23.5277 20.4127C23.5305 20.5677 23.4762 20.6469 23.3414 20.7227C21.9869 21.4837 21.7756 23.365 23.0044 24.3088C23.461 24.6597 23.5833 24.9996 23.5242 25.4986C23.52 25.534 23.5186 25.5708 23.5242 25.6056C23.5603 25.8148 23.4755 25.9156 23.2719 25.9941C21.0786 26.8357 18.8901 27.6898 16.7002 28.5398C16.621 28.5704 16.5404 28.5975 16.4528 28.6294C16.4451 28.5697 16.4382 28.5433 16.4382 28.5162C16.4382 26.279 16.4403 24.0419 16.4319 21.8048C16.4319 21.6213 16.5306 21.5851 16.6599 21.5351C18.0339 21.0028 19.4078 20.4676 20.7811 19.9332C21.679 19.5836 22.5769 19.2347 23.5242 18.8657V18.8664ZM8.47443 18.8893C8.55644 18.9116 8.6176 18.9227 8.67389 18.9442C10.9048 19.8109 13.135 20.681 15.3679 21.5414C15.5396 21.6074 15.5632 21.704 15.5632 21.8617C15.559 24.0356 15.5604 26.2102 15.5597 28.3841C15.5597 28.4592 15.5493 28.5335 15.5431 28.6246C15.4242 28.5829 15.3318 28.5537 15.2414 28.5189C13.2934 27.7614 11.3461 27.0039 9.39945 26.2443C9.09366 26.1247 8.66764 26.0712 8.52308 25.844C8.3681 25.6 8.46748 25.1865 8.48208 24.8481C8.48625 24.7577 8.56339 24.6361 8.64262 24.5888C9.37721 24.1489 9.78655 23.5095 9.78933 22.654C9.79211 21.7867 9.38069 21.1383 8.63289 20.699C8.56687 20.6601 8.48347 20.5781 8.48138 20.5142C8.46957 19.9791 8.47443 19.4432 8.47443 18.8886V18.8893ZM11.1265 9.55715C11.1265 8.60642 11.1035 7.66681 11.1334 6.72928C11.1598 5.89322 11.5852 5.30666 12.3677 4.97655C12.5811 4.8862 12.7965 4.75902 12.9598 4.59709C13.8557 3.70891 14.9127 3.21478 16.1838 3.16265C18.3619 3.073 20.4489 4.71732 20.7707 6.87592C20.8923 7.69183 20.8457 8.53345 20.8742 9.36395C20.8763 9.42928 20.8631 9.49599 20.8576 9.55298C20.4336 9.53839 20.3759 9.2743 20.4288 8.93862C20.3335 8.93098 20.2641 8.91916 20.1946 8.92055C18.9624 8.94349 17.9248 8.50773 17.0859 7.60357C16.8691 7.37005 16.6543 7.13446 16.4222 6.88287C16.2749 7.07538 16.172 7.20951 16.0699 7.34364C15.6278 7.92604 15.0726 8.36248 14.3929 8.6377C13.8793 8.84549 13.3421 8.91638 12.793 8.91916C12.3927 8.92125 11.9931 8.91916 11.5643 8.91916C11.6317 9.28542 11.5553 9.53491 11.1272 9.55715H11.1265ZM16.4625 8.2631C17.3002 8.95067 18.3271 9.46449 19.5434 9.80456C19.5434 10.4321 19.5552 11.0666 19.5385 11.6998C19.5288 12.082 19.519 12.4733 19.4315 12.8423C19.027 14.5401 17.5349 15.6257 15.7634 15.5423C14.126 15.4645 12.7201 14.1885 12.5109 12.5115C12.4205 11.7887 12.4692 11.0486 12.4553 10.3161C12.4525 10.1493 12.4553 9.98317 12.4553 9.78997C14.0377 9.8824 15.3735 9.40009 16.4625 8.2631V8.2631ZM18.1319 20.0103C18.1193 19.9631 18.1082 19.945 18.1124 19.9318C18.4043 19.0506 18.701 18.1707 18.9874 17.2881C19.0319 17.1505 19.1027 17.131 19.2244 17.154C19.804 17.2631 20.3864 17.3569 20.9632 17.4778C21.5261 17.596 21.998 17.8684 22.3448 18.3737C20.9222 18.9262 19.5288 19.4675 18.1319 20.0103ZM12.9383 17.0761C13.276 18.0915 13.5888 19.0325 13.9217 20.0326C12.4615 19.4648 11.0646 18.9206 9.57736 18.3417C9.89983 18.0943 10.1306 17.8059 10.4225 17.7148C11.2425 17.4598 12.0883 17.2853 12.9383 17.0761ZM14.3185 20.1875C14.9016 19.6038 15.4729 19.0325 16.0184 18.4869C16.5584 19.0269 17.1241 19.5926 17.7086 20.1764C17.1658 20.3863 16.6133 20.6018 16.058 20.8116C16.0143 20.8283 15.9524 20.8179 15.9058 20.8005C15.3665 20.5948 14.8286 20.3849 14.3185 20.1875V20.1875ZM24.8586 22.6325C24.8586 22.9 24.8586 23.1676 24.8586 23.4352C24.8586 23.4532 24.8586 23.4706 24.8586 23.4887C24.8384 23.8098 24.6591 23.9745 24.3394 23.9654C23.6611 23.946 23.0884 23.3421 23.0884 22.645C23.0884 21.957 23.6437 21.3614 24.3137 21.3308C24.6688 21.3141 24.8481 21.4753 24.8572 21.8305C24.8641 22.098 24.8586 22.3656 24.8586 22.6332V22.6325ZM7.14008 22.6596C7.14008 22.3739 7.13243 22.0883 7.14216 21.8034C7.15328 21.4788 7.33397 21.3197 7.65783 21.3287C8.32918 21.3468 8.89559 21.9299 8.90949 22.6179C8.92339 23.3163 8.36741 23.9286 7.68633 23.9641C7.33884 23.9821 7.1505 23.8132 7.14146 23.4623C7.13451 23.1947 7.14007 22.9271 7.14077 22.6596H7.14008ZM18.1763 16.933C17.9616 17.571 17.7739 18.1297 17.5891 18.6774C17.284 18.3743 17.0004 18.0922 16.7044 17.7982C17.0651 17.5279 17.7441 17.1984 18.1242 16.9344C18.2007 16.8808 18.0179 16.9496 18.1763 16.933V16.933ZM14.4075 18.6794C14.2198 18.1172 14.0329 17.555 13.8452 16.9934C13.8668 16.9684 13.7945 17.0289 13.816 17.0038C14.372 17.2123 14.8196 17.5418 15.3047 17.7899C14.9989 18.0929 14.7153 18.3743 14.4082 18.6794H14.4075ZM14.8217 16.3353C15.6188 16.4903 16.3895 16.4861 17.17 16.3068C16.8177 16.6049 16.4577 16.8788 16.0914 17.1428C16.0504 17.1727 15.951 17.1734 15.91 17.1442C15.5431 16.8801 15.1838 16.6063 14.8217 16.3353V16.3353ZM20.4468 10.4022C20.7498 10.5746 20.8624 10.8324 20.8631 11.1264C20.8645 11.4204 20.7512 11.6782 20.4468 11.8554V10.4022ZM11.5497 10.4071V11.8534C11.2432 11.6754 11.132 11.4155 11.1362 11.1202C11.1404 10.8297 11.2481 10.5697 11.5497 10.4071V10.4071Z" fill="#F58520"/>
</g>
<defs>
<clipPath id="clip0_10016_61134">
<rect width="32" height="32" fill="white" transform="matrix(-1 0 0 1 32 -0.000488281)"/>
</clipPath>
</defs>
</svg>
