<svg width="33" height="32" viewBox="0 0 33 32" fill="none" xmlns="http://www.w3.org/2000/svg">
<path fill-rule="evenodd" clip-rule="evenodd" d="M23.3553 12.08C23.8636 12.6128 23.8438 13.4568 23.3109 13.9651L15.9734 20.9651C15.458 21.4568 14.647 21.4565 14.1319 20.9643L10.4694 17.4643C9.93703 16.9555 9.91788 16.1115 10.4266 15.5791C10.9354 15.0468 11.7794 15.0276 12.3118 15.5364L15.0539 18.1568L21.4702 12.0356C22.003 11.5273 22.847 11.5472 23.3553 12.08Z" fill="#0EB864"/>
<path fill-rule="evenodd" clip-rule="evenodd" d="M16.8906 5.33366C10.9995 5.33366 6.22392 10.1093 6.22392 16.0003C6.22392 21.8914 10.9995 26.667 16.8906 26.667C22.7816 26.667 27.5572 21.8914 27.5572 16.0003C27.5572 10.1093 22.7816 5.33366 16.8906 5.33366ZM3.55725 16.0003C3.55725 8.63653 9.52679 2.66699 16.8906 2.66699C24.2544 2.66699 30.2239 8.63653 30.2239 16.0003C30.2239 23.3641 24.2544 29.3337 16.8906 29.3337C9.52679 29.3337 3.55725 23.3641 3.55725 16.0003Z" fill="#0EB864"/>
</svg>
