<svg width="33" height="32" viewBox="0 0 33 32" fill="none" xmlns="http://www.w3.org/2000/svg">
<path fill-rule="evenodd" clip-rule="evenodd" d="M22.7854 12.079C23.2937 12.6118 23.2738 13.4558 22.741 13.9641L15.4035 20.9641C14.888 21.4559 14.077 21.4555 13.562 20.9633L9.89946 17.4633C9.36708 16.9545 9.34793 16.1105 9.85669 15.5782C10.3654 15.0458 11.2094 15.0266 11.7418 15.5354L14.4839 18.1558L20.9003 12.0346C21.4331 11.5263 22.2771 11.5462 22.7854 12.079Z" fill="#0EB864"/>
<path fill-rule="evenodd" clip-rule="evenodd" d="M16.3206 5.33268C10.4296 5.33268 5.65397 10.1083 5.65397 15.9993C5.65397 21.8904 10.4296 26.666 16.3206 26.666C22.2117 26.666 26.9873 21.8904 26.9873 15.9993C26.9873 10.1083 22.2117 5.33268 16.3206 5.33268ZM2.9873 15.9993C2.9873 8.63555 8.95684 2.66602 16.3206 2.66602C23.6844 2.66602 29.654 8.63555 29.654 15.9993C29.654 23.3631 23.6844 29.3327 16.3206 29.3327C8.95684 29.3327 2.9873 23.3631 2.9873 15.9993Z" fill="#0EB864"/>
</svg>
