<svg width="126" height="185" viewBox="0 0 126 185" fill="none" xmlns="http://www.w3.org/2000/svg">
<path d="M67.125 0.249998C75.4583 0.249998 82.9583 1.45833 89.625 3.87499C96.375 6.20832 102.125 9.49999 106.875 13.75C111.625 17.9167 115.25 22.8333 117.75 28.5C120.333 34.1667 121.625 40.2917 121.625 46.875C121.625 52.625 120.958 57.7083 119.625 62.125C118.375 66.4583 116.5 70.25 114 73.5C111.583 76.75 108.583 79.5 105 81.75C101.5 84 97.5 85.875 93 87.375C103.833 90.7917 111.917 96 117.25 103C122.583 110 125.25 118.792 125.25 129.375C125.25 138.375 123.583 146.333 120.25 153.25C116.917 160.167 112.417 166 106.75 170.75C101.083 175.417 94.5 178.958 87 181.375C79.5833 183.792 71.7083 185 63.375 185C54.2917 185 46.375 183.958 39.625 181.875C32.875 179.792 27 176.708 22 172.625C17 168.542 12.75 163.542 9.25 157.625C5.75 151.708 2.75 144.875 0.25 137.125L13.875 131.5C16.2083 130.5 18.5833 130 21 130C23.1667 130 25.0833 130.458 26.75 131.375C28.5 132.292 29.8333 133.625 30.75 135.375C32.25 138.292 33.875 141.167 35.625 144C37.4583 146.833 39.625 149.375 42.125 151.625C44.625 153.792 47.5417 155.583 50.875 157C54.2917 158.333 58.3333 159 63 159C68.25 159 72.8333 158.167 76.75 156.5C80.6667 154.75 83.9167 152.5 86.5 149.75C89.1667 147 91.125 143.958 92.375 140.625C93.7083 137.208 94.375 133.792 94.375 130.375C94.375 126.042 93.9167 122.125 93 118.625C92.0833 115.042 90.1667 112 87.25 109.5C84.3333 107 80.125 105.042 74.625 103.625C69.2083 102.208 61.9167 101.5 52.75 101.5V79.5C60.3333 79.4167 66.625 78.7083 71.625 77.375C76.625 76.0417 80.5833 74.2083 83.5 71.875C86.5 69.4583 88.5833 66.5833 89.75 63.25C90.9167 59.9167 91.5 56.25 91.5 52.25C91.5 43.6667 89.1667 37.2083 84.5 32.875C79.8333 28.4583 73.4583 26.25 65.375 26.25C58.0417 26.25 51.9583 28.2083 47.125 32.125C42.2917 35.9583 38.9167 40.9167 37 47C36 50.1667 34.625 52.4583 32.875 53.875C31.125 55.2083 28.8333 55.875 26 55.875C24.6667 55.875 23.25 55.75 21.75 55.5L5.5 52.625C6.75 43.9583 9.16667 36.375 12.75 29.875C16.3333 23.2917 20.7917 17.8333 26.125 13.5C31.5417 9.08333 37.7083 5.79166 44.625 3.62499C51.625 1.375 59.125 0.249998 67.125 0.249998Z" fill="url(#paint0_linear)"/>
<defs>
<linearGradient id="paint0_linear" x1="21.907" y1="71.2344" x2="21.907" y2="236" gradientUnits="userSpaceOnUse">
<stop stop-color="#F3F3F5"/>
<stop offset="1" stop-color="white"/>
</linearGradient>
</defs>
</svg>
