<svg width="100" height="100" viewBox="0 0 100 100" fill="none" xmlns="http://www.w3.org/2000/svg">
<path d="M79.9247 46.8803C79.7547 48.1353 79.6297 49.4003 79.4147 50.6453C78.0747 58.3253 74.4247 64.7303 68.5997 69.8753C63.6497 74.2453 57.8797 76.9353 51.3297 77.7653C41.0447 79.0703 31.9697 76.2803 24.2897 69.2903C18.9047 64.3903 15.5647 58.2903 14.1797 51.1353C10.8497 33.9203 21.8247 16.8053 38.8347 12.7453C40.6097 12.3203 42.4497 12.1703 44.2547 11.8903C44.4447 11.8603 44.6297 11.8153 44.8197 11.7803C46.1147 11.7803 47.4097 11.7803 48.7047 11.7803C49.5797 11.8853 50.4547 11.9753 51.3297 12.0953C57.8697 13.0203 63.6497 15.6303 68.5997 20.0003C74.4297 25.1453 78.0747 31.5503 79.4147 39.2303C79.6347 40.4753 79.7597 41.7403 79.9247 42.9953V46.8803ZM77.8597 44.9503C77.8697 27.7603 64.0097 13.8803 46.7997 13.8403C29.5947 13.8003 15.6647 27.7103 15.6547 44.9303C15.6447 62.1203 29.5047 76.0003 46.7147 76.0403C63.9197 76.0803 77.8497 62.1703 77.8597 44.9503Z" fill="#6A509B"/>
<path d="M77.8599 44.9506C77.8499 62.1706 63.9149 76.0756 46.7149 76.0406C29.5049 76.0006 15.6449 62.1206 15.6549 44.9306C15.6649 27.7106 29.5999 13.8056 46.7999 13.8406C64.0099 13.8806 77.8699 27.7606 77.8599 44.9506ZM73.7599 44.9806C73.8399 30.5356 62.0499 18.0706 46.9549 17.9356C32.3449 17.8056 19.8549 29.5656 19.7649 44.8356C19.6749 59.3906 31.3999 71.7956 46.5549 71.9406C61.1499 72.0806 73.6649 60.3156 73.7599 44.9806Z" fill="white"/>
<path d="M73.7597 44.9804C73.6647 60.3154 61.1447 72.0804 46.5547 71.9404C31.3947 71.7954 19.6747 59.3904 19.7647 44.8354C19.8597 29.5654 32.3497 17.8054 46.9547 17.9354C62.0497 18.0704 73.8397 30.5354 73.7597 44.9804ZM46.7197 69.9004C60.8997 69.8204 71.8247 58.3854 71.6997 44.7704C71.5747 30.8104 60.2997 19.9454 46.6297 19.9954C32.8147 20.0404 21.7347 31.3054 21.8097 45.0154C21.8847 59.2754 33.5047 69.8854 46.7197 69.9004Z" fill="#6A509B"/>
<path d="M46.7196 69.9005C33.5096 69.8855 21.8896 59.2755 21.8096 45.0155C21.7346 31.3055 32.8196 20.0405 46.6296 19.9955C60.2996 19.9505 71.5746 30.8105 71.6996 44.7705C71.8196 58.3855 60.8996 69.8205 46.7196 69.9005ZM63.7546 60.0605C62.3846 58.6605 61.0546 57.2955 59.7946 56.0005C59.3396 56.4105 58.8596 56.8405 58.5146 57.1555C59.8696 58.5505 61.1946 59.9155 62.5096 61.2705C62.9396 60.8505 63.3846 60.4205 63.7546 60.0605Z" fill="white"/>
<path d="M46.7999 22.6055V27.6555" stroke="#6A509B" stroke-width="1.5" stroke-miterlimit="10"/>
<path d="M46.7999 62.6055V67.6555" stroke="#6A509B" stroke-width="1.5" stroke-miterlimit="10"/>
<path d="M23.7746 45.1304H28.8196" stroke="#6A509B" stroke-width="1.5" stroke-miterlimit="10"/>
<path d="M30.0547 29.3052L33.5397 32.9552" stroke="#6A509B" stroke-width="1.5" stroke-miterlimit="10"/>
<path d="M69.8198 45.1803L64.7748 45.0803" stroke="#6A509B" stroke-width="1.5" stroke-miterlimit="10"/>
<path d="M63.0046 29.2703L59.5896 32.9903" stroke="#6A509B" stroke-width="1.5" stroke-miterlimit="10"/>
<path d="M33.8846 56.4353L30.4596 60.1453" stroke="#6A509B" stroke-width="1.5" stroke-miterlimit="10"/>
<path d="M60.1747 45.3555L47.1747 45.0855V31.3555" stroke="#005894" stroke-width="2" stroke-miterlimit="10"/>
<path d="M57.0049 56.5056L70.5049 50.1556C71.1249 49.8656 71.8449 49.8756 72.4549 50.1856L85.2099 56.6806C85.9599 57.0606 86.4299 57.8356 86.4199 58.6756L86.3349 69.7456C86.3349 69.7456 85.4549 85.6306 70.9749 88.2256C70.9749 88.2256 56.4699 86.0756 55.5849 68.6706L55.7299 58.4806C55.7399 57.6306 56.2349 56.8656 57.0049 56.5056Z" fill="white" stroke="#005894" stroke-width="2" stroke-miterlimit="10"/>
<path d="M72.9302 76.3205H70.2252C70.0502 76.3205 69.9002 76.2505 69.8052 76.1355C69.7302 76.0505 69.6852 75.9455 69.6852 75.8355C69.6852 75.8005 69.6852 75.7605 69.6952 75.7205L70.3902 72.7605C69.8852 72.4255 69.5552 71.8855 69.5552 71.2755C69.5552 70.2605 70.4602 69.4355 71.5802 69.4355C72.7002 69.4355 73.6052 70.2605 73.6052 71.2755C73.6052 71.8855 73.2752 72.4305 72.7702 72.7605L73.4652 75.7205C73.4652 75.7205 73.4752 75.7605 73.4752 75.7755C73.4902 75.9105 73.4452 76.0355 73.3552 76.1305C73.2552 76.2405 73.1052 76.3155 72.9352 76.3155L72.9302 76.3205ZM74.9052 66.5855H68.2552C68.2752 63.6305 68.2052 63.5155 68.3252 63.0005C68.6352 61.6255 69.9802 60.5855 71.5852 60.5855C73.1902 60.5855 74.5352 61.6255 74.8452 63.0005C74.8452 63.0005 74.8452 63.0005 74.8452 63.0055C74.9452 63.4405 75.3402 63.7455 75.7852 63.7105L76.1752 63.6805C76.7052 63.6405 77.0952 63.1455 76.9802 62.6255C76.4752 60.3205 74.2252 58.6055 71.5802 58.6055C68.5652 58.6055 66.0752 60.8305 66.0752 63.6105V66.5855H65.3552C64.6102 66.5855 64.0252 67.0705 63.8902 67.6705C63.8502 67.8455 63.8602 77.6605 63.8602 77.6705C63.8602 78.3905 64.4952 79.0305 65.3552 79.0305H77.8052C78.6652 79.0305 79.3002 78.3955 79.3002 77.6705C79.3002 77.6655 79.3052 67.8755 79.2852 67.7405C79.1802 67.1055 78.5752 66.5855 77.8052 66.5855H74.9052Z" fill="#005894"/>
<g style="mix-blend-mode:multiply" opacity="0.26">
<path d="M79.3006 70.8557C79.3006 70.8557 74.9306 78.9507 67.6606 79.0307H77.8055C77.8055 79.0307 78.9656 79.1257 79.3006 77.7757V70.8607V70.8557Z" fill="#005894"/>
</g>
</svg>
