<svg width="24" height="24" viewBox="0 0 24 24" fill="none" xmlns="http://www.w3.org/2000/svg">
<path fill-rule="evenodd" clip-rule="evenodd" d="M11.9992 17.3337C9.05367 17.3337 6.66585 14.9458 6.66585 12.0003C6.66585 9.05481 9.05367 6.66699 11.9992 6.66699C14.9447 6.66699 17.3325 9.05481 17.3325 12.0003C17.3325 14.9458 14.9447 17.3337 11.9992 17.3337ZM5.33252 12.0003C5.33252 15.6822 8.31729 18.667 11.9992 18.667C15.6811 18.667 18.6659 15.6822 18.6659 12.0003C18.6659 8.31843 15.6811 5.33366 11.9992 5.33366C8.31729 5.33366 5.33252 8.31843 5.33252 12.0003Z" fill="#005895"/>
<path fill-rule="evenodd" clip-rule="evenodd" d="M12.0004 15.667C12.3686 15.667 12.6671 15.3685 12.6671 15.0003V11.5003C12.6671 11.1321 12.3686 10.8337 12.0004 10.8337C11.6322 10.8337 11.3337 11.1321 11.3337 11.5003V15.0003C11.3337 15.3685 11.6322 15.667 12.0004 15.667Z" fill="#005895"/>
<path d="M12.0005 8.5C12.4147 8.5 12.7505 8.83579 12.7505 9.25C12.7505 9.66421 12.4147 10 12.0005 10C11.5863 10 11.2505 9.66421 11.2505 9.25C11.2505 8.83579 11.5863 8.5 12.0005 8.5Z" fill="#005895"/>
</svg>
