<svg xmlns="http://www.w3.org/2000/svg" id="tracking_icon" width="25" height="25" data-name="tracking icon" viewBox="0 0 25 25">
    <circle id="Ellipse_320" cx="12.5" cy="12.5" r="12.5" fill="#7dd0de" data-name="Ellipse 320"/>
    <g id="ic_local_shipping_24px" transform="translate(5.646 4.106)">
        <path id="Path_6083" fill="#fff" d="M10.932 6.091H9.364V4H2.045A1.049 1.049 0 0 0 1 5.045V10.8h1.045a1.568 1.568 0 1 0 3.136 0h3.137a1.568 1.568 0 1 0 3.136 0H12.5V8.182zM3.614 11.58a.784.784 0 1 1 .786-.78.783.783 0 0 1-.786.78zm7.057-4.7L11.7 8.182H9.364V6.875zm-.784 4.7a.784.784 0 1 1 .784-.784.783.783 0 0 1-.785.784z" data-name="Path 6083"/>
    </g>
</svg>
