<svg xmlns="http://www.w3.org/2000/svg" width="18.873" height="15.106" viewBox="0 0 18.873 15.106">
    <path fill="#00b8f3" fill-rule="evenodd" d="M18.873 1.79a8.317 8.317 0 0 1-2.2.6A3.871 3.871 0 0 0 18.388.261a7.831 7.831 0 0 1-2.462.932A4.031 4.031 0 0 0 13.055 0a3.861 3.861 0 0 0-3.88 3.8 3.179 3.179 0 0 0 .112.858A10.973 10.973 0 0 1 1.305.709a4.023 4.023 0 0 0-.522 1.9A3.818 3.818 0 0 0 2.5 5.781 3.533 3.533 0 0 1 .746 5.3v.037a3.493 3.493 0 0 0 .261 1.38 3.872 3.872 0 0 0 2.835 2.35 4.7 4.7 0 0 1-1.007.149 4.131 4.131 0 0 1-.709-.075 3.868 3.868 0 0 0 3.618 2.648 7.968 7.968 0 0 1-4.812 1.638c-.336 0-.6-.037-.932-.037a11.136 11.136 0 0 0 5.93 1.716 10.75 10.75 0 0 0 10.742-8.541 9.776 9.776 0 0 0 .261-2.313v-.485a8.859 8.859 0 0 0 1.94-1.977z"/>
</svg>
