<svg width="125" height="183" viewBox="0 0 125 183" fill="none" xmlns="http://www.w3.org/2000/svg">
<path d="M65.25 0.249998C73.5833 0.249998 81.2083 1.5 88.125 3.99999C95.0417 6.41666 100.958 9.87499 105.875 14.375C110.792 18.875 114.625 24.2917 117.375 30.625C120.125 36.9583 121.5 44 121.5 51.75C121.5 58.4167 120.5 64.5833 118.5 70.25C116.583 75.9167 113.958 81.3333 110.625 86.5C107.375 91.6667 103.542 96.6667 99.125 101.5C94.7083 106.333 90.0833 111.25 85.25 116.25L44.5 157.875C48.5 156.708 52.4167 155.833 56.25 155.25C60.0833 154.583 63.75 154.25 67.25 154.25H113.625C116.958 154.25 119.583 155.208 121.5 157.125C123.5 158.958 124.5 161.417 124.5 164.5V183H0.500001V172.75C0.500001 170.667 0.916667 168.5 1.75 166.25C2.66667 164 4.08333 161.917 6 160L60.875 105C65.4583 100.333 69.5417 95.875 73.125 91.625C76.7917 87.375 79.8333 83.1667 82.25 79C84.75 74.8333 86.625 70.625 87.875 66.375C89.2083 62.0417 89.875 57.5 89.875 52.75C89.875 48.4167 89.25 44.625 88 41.375C86.75 38.0417 84.9583 35.25 82.625 33C80.2917 30.75 77.5 29.0833 74.25 28C71.0833 26.8333 67.5 26.25 63.5 26.25C56.0833 26.25 49.9583 28.125 45.125 31.875C40.375 35.625 37.0417 40.6667 35.125 47C34.2083 50.1667 32.8333 52.4583 31 53.875C29.1667 55.2083 26.8333 55.875 24 55.875C22.75 55.875 21.375 55.75 19.875 55.5L3.625 52.625C4.875 43.9583 7.29167 36.375 10.875 29.875C14.4583 23.2917 18.9167 17.8333 24.25 13.5C29.6667 9.08333 35.8333 5.79166 42.75 3.62499C49.75 1.375 57.25 0.249998 65.25 0.249998Z" fill="url(#paint0_linear)"/>
<defs>
<linearGradient id="paint0_linear" x1="22.907" y1="71.2344" x2="22.907" y2="236" gradientUnits="userSpaceOnUse">
<stop stop-color="#F3F3F5"/>
<stop offset="1" stop-color="white"/>
</linearGradient>
</defs>
</svg>
