<svg width="61" height="60" viewBox="0 0 61 60" fill="none" xmlns="http://www.w3.org/2000/svg">
<ellipse cx="30.4985" cy="30.0019" rx="29.9491" ry="29.9491" fill="#B8C5F5"/>
<path d="M36.5508 22.7998V33.6945C36.5508 34.7625 35.6862 35.6327 34.6126 35.6327L25.5826 35.6214C25.3905 35.6553 25.2266 35.7683 25.1475 35.8079L22.1809 37.3618L19.2198 38.9158C18.9995 39.0288 18.7395 38.8649 18.7508 38.6163L18.8695 35.6383H18.3835C17.3155 35.6383 16.4453 34.7738 16.4453 33.7001V22.8054C16.4453 21.7374 17.3099 20.8672 18.3835 20.8672H34.6182C35.6862 20.8672 36.5564 21.7318 36.5564 22.8054L36.5508 22.7998Z" fill="#FAFBFC"/>
<path d="M19.0727 39.4969C18.9088 39.4969 18.745 39.4517 18.6037 39.3613C18.3381 39.1918 18.1855 38.9036 18.2025 38.5871L18.2986 36.1799C16.965 36.1347 15.897 35.0384 15.897 33.6936V22.7988C15.897 21.4314 17.0102 20.3125 18.3833 20.3125H34.618C35.9912 20.3125 37.1044 21.4257 37.1044 22.7988V33.6936C37.1044 35.0667 35.9912 36.1799 34.618 36.1799L25.6502 36.1686C25.5994 36.1855 25.5316 36.2251 25.4864 36.2477L25.4016 36.2929L19.4796 39.3952C19.3553 39.463 19.214 39.4969 19.0727 39.4969ZM18.3833 21.4144C17.6205 21.4144 16.9932 22.036 16.9932 22.8045V33.6992C16.9932 34.4621 17.6148 35.0893 18.3833 35.0893H19.4457L19.3157 38.2481L24.8987 35.3266C25.0456 35.2419 25.249 35.1289 25.4977 35.0836H34.618C35.3809 35.0836 36.0081 34.4621 36.0081 33.6992V22.8045C36.0081 22.0416 35.3865 21.4144 34.618 21.4144H18.3833Z" fill="#6A509B"/>
<g style="mix-blend-mode:multiply" opacity="0.1">
<path d="M34.5162 20.3338C35.9063 20.3338 37.0308 21.4583 37.0308 22.8484V33.7713C37.0308 35.1614 35.9063 36.2859 34.5162 36.2859C34.358 36.2859 34.228 36.156 34.228 35.9977V20.6163C34.228 20.4581 34.358 20.3281 34.5162 20.3281V20.3338Z" fill="#6A509B"/>
</g>
<path d="M21.48 29.4141C22.1229 29.4141 22.644 28.8929 22.644 28.25C22.644 27.6071 22.1229 27.0859 21.48 27.0859C20.8371 27.0859 20.3159 27.6071 20.3159 28.25C20.3159 28.8929 20.8371 29.4141 21.48 29.4141Z" fill="#6A509B"/>
<path d="M26.2603 29.4141C26.9031 29.4141 27.4243 28.8929 27.4243 28.25C27.4243 27.6071 26.9031 27.0859 26.2603 27.0859C25.6174 27.0859 25.0962 27.6071 25.0962 28.25C25.0962 28.8929 25.6174 29.4141 26.2603 29.4141Z" fill="#6A509B"/>
<path d="M31.3125 29.4141C31.9554 29.4141 32.4766 28.8929 32.4766 28.25C32.4766 27.6071 31.9554 27.0859 31.3125 27.0859C30.6696 27.0859 30.1484 27.6071 30.1484 28.25C30.1484 28.8929 30.6696 29.4141 31.3125 29.4141Z" fill="#6A509B"/>
<path d="M37.1496 29.6055H26.7183V36.1604H37.1496V29.6055Z" fill="#FAFBFC"/>
<path d="M47.207 32.3093V43.4527C47.207 44.289 46.5289 44.9671 45.6926 44.9671H44.8789L44.9976 47.8264C45.0089 48.0637 44.7546 48.2219 44.5455 48.1089L41.7032 46.6228L38.8608 45.1366C38.7874 45.097 38.7365 45.0405 38.7139 44.9671H29.4353C28.599 44.9671 27.9209 44.289 27.9209 43.4527V32.3093C27.9209 31.473 28.599 30.7949 29.4353 30.7949H45.6926C46.5289 30.7949 47.207 31.473 47.207 32.3093Z" fill="#FAFBFC"/>
<path d="M44.6926 48.7142C44.5513 48.7142 44.4157 48.6803 44.2857 48.6125L38.5954 45.6345C38.5389 45.6062 38.488 45.5723 38.4428 45.5328H29.4354C28.2883 45.5328 27.356 44.6004 27.356 43.4533V32.31C27.356 31.1628 28.2883 30.2305 29.4354 30.2305H45.6927C46.8399 30.2305 47.7722 31.1628 47.7722 32.31V43.4533C47.7722 44.6004 46.8399 45.5328 45.6927 45.5328H45.4667L45.5628 47.8044C45.5741 48.1208 45.4215 48.409 45.1559 48.5786C45.0146 48.669 44.8508 48.7142 44.6869 48.7142H44.6926ZM39.2169 44.6852L44.4157 47.4088L44.2913 44.4083H45.6927C46.2183 44.4083 46.6421 43.9845 46.6421 43.459V32.3156C46.6421 31.7901 46.2183 31.3663 45.6927 31.3663H29.4354C28.9099 31.3663 28.4861 31.7901 28.4861 32.3156V43.459C28.4861 43.9845 28.9099 44.4083 29.4354 44.4083H39.1265L39.2169 44.6908V44.6852Z" fill="#005894"/>
<g style="mix-blend-mode:multiply">
<path d="M45.1616 30.8066H45.4216C46.3992 30.8066 47.1959 31.6034 47.1959 32.581V43.1875C47.1959 44.1764 46.3935 44.9788 45.4046 44.9788H45.156C45.0712 44.9788 45.0034 44.911 45.0034 44.8262V30.9649C45.0034 30.8801 45.0712 30.8123 45.156 30.8123L45.1616 30.8066Z" fill="#D8E5EE"/>
</g>
<path d="M39.2853 42.3301C38.805 42.2792 38.3868 42.1549 37.98 41.991C37.1493 41.652 36.4091 41.1604 35.7253 40.5783C34.7873 39.7816 33.9905 38.8661 33.3859 37.7868C33.0695 37.2218 32.8265 36.6228 32.7078 35.9786C32.6739 35.7865 32.6909 35.6169 32.8095 35.4531C33.1994 34.8936 33.6289 34.3625 34.1318 33.8991C34.1883 33.8483 34.2448 33.803 34.307 33.7635C34.42 33.69 34.5048 33.69 34.6121 33.7861C34.663 33.8313 34.7138 33.8822 34.7534 33.9387C35.1489 34.4924 35.5106 35.0632 35.7988 35.6791C35.9514 36.0012 35.9344 36.0634 35.6632 36.3063C35.488 36.4589 35.3128 36.6171 35.1376 36.7697C35.0642 36.8319 35.0585 36.894 35.0868 36.9788C35.3524 37.8151 35.827 38.5158 36.4938 39.0752C36.9572 39.4651 37.4771 39.759 38.0591 39.9228C38.1213 39.9398 38.1608 39.9341 38.2004 39.8833C38.3529 39.7081 38.5055 39.5386 38.6581 39.3634C38.9293 39.0526 38.9858 39.0357 39.3531 39.2165C39.9465 39.5047 40.5002 39.8494 41.0371 40.2336C41.3479 40.4597 41.3592 40.584 41.0992 40.8665C40.6133 41.3977 40.0651 41.8498 39.4605 42.2397C39.3927 42.2849 39.3136 42.3075 39.2684 42.3244L39.2853 42.3301Z" fill="#005894"/>
<path d="M41.2916 37.7145H40.687C40.6644 36.7934 40.3479 35.991 39.6981 35.3299C39.0426 34.6744 38.2402 34.3466 37.3135 34.3297V33.7307C39.3591 33.6572 41.3255 35.4485 41.2973 37.7145H41.2916Z" fill="#005894"/>
<path d="M39.7544 37.707H39.1498C39.1328 37.204 38.9633 36.7689 38.6073 36.4129C38.2513 36.0569 37.8162 35.8818 37.3076 35.8648V35.2658C38.5112 35.2093 39.7714 36.2717 39.7544 37.7126V37.707Z" fill="#005894"/>
</svg>
