<svg width="24" height="24" viewBox="0 0 24 24" fill="none" xmlns="http://www.w3.org/2000/svg">
<path fill-rule="evenodd" clip-rule="evenodd" d="M12 4C9.23858 4 7 6.23858 7 9C7 11.7614 9.23858 14 12 14C14.7614 14 17 11.7614 17 9C17 6.23858 14.7614 4 12 4ZM5 9C5 5.13401 8.13401 2 12 2C15.866 2 19 5.13401 19 9C19 12.866 15.866 16 12 16C8.13401 16 5 12.866 5 9Z" fill="#094067"/>
<path fill-rule="evenodd" clip-rule="evenodd" d="M12.0002 16C10.3324 16 8.69406 16.439 7.24979 17.273C5.80552 18.1069 4.60623 19.3064 3.77249 20.7508C3.49639 21.2291 2.88481 21.393 2.4065 21.1169C1.92818 20.8408 1.76425 20.2292 2.04035 19.7509C3.04961 18.0024 4.50138 16.5505 6.24971 15.541C7.99804 14.5315 9.98132 14 12.0002 14C14.019 14 16.0023 14.5315 17.7506 15.541C19.499 16.5505 20.9507 18.0024 21.96 19.7509C22.2361 20.2292 22.0722 20.8408 21.5938 21.1169C21.1155 21.393 20.5039 21.2291 20.2278 20.7508C19.3941 19.3064 18.1948 18.1069 16.7505 17.273C15.3063 16.439 13.6679 16 12.0002 16Z" fill="#094067"/>
</svg>
