<svg width="17" height="17" viewBox="0 0 17 17" fill="none" xmlns="http://www.w3.org/2000/svg">
<path fill-rule="evenodd" clip-rule="evenodd" d="M8.60746 3.6556C6.76651 3.6556 5.27413 5.14798 5.27413 6.98893C5.27413 8.82988 6.76651 10.3223 8.60746 10.3223C10.4484 10.3223 11.9408 8.82988 11.9408 6.98893C11.9408 5.14798 10.4484 3.6556 8.60746 3.6556ZM3.9408 6.98893C3.9408 4.4116 6.03013 2.32227 8.60746 2.32227C11.1848 2.32227 13.2741 4.4116 13.2741 6.98893C13.2741 9.56626 11.1848 11.6556 8.60746 11.6556C6.03013 11.6556 3.9408 9.56626 3.9408 6.98893Z" fill="#863399"/>
<path fill-rule="evenodd" clip-rule="evenodd" d="M8.6077 11.6556C7.49586 11.6556 6.40362 11.9483 5.44078 12.5043C4.47793 13.0602 3.6784 13.8598 3.12258 14.8228C2.93851 15.1416 2.53079 15.2509 2.21192 15.0669C1.89304 14.8828 1.78375 14.4751 1.96782 14.1562C2.64066 12.9906 3.6085 12.0226 4.77406 11.3496C5.93961 10.6766 7.26179 10.3223 8.6077 10.3223C9.9536 10.3223 11.2758 10.6766 12.4413 11.3496C13.6069 12.0226 14.5747 12.9906 15.2476 14.1562C15.4316 14.4751 15.3224 14.8828 15.0035 15.0669C14.6846 15.2509 14.2769 15.1416 14.0928 14.8228C13.537 13.8598 12.7375 13.0602 11.7746 12.5043C10.8118 11.9483 9.71953 11.6556 8.6077 11.6556Z" fill="#863399"/>
</svg>
