<svg width="60" height="60" viewBox="0 0 60 60" fill="none" xmlns="http://www.w3.org/2000/svg">
<path d="M20.5266 53.0672L20.4603 53.0262L20.3846 53.0074C19.1067 52.6892 17.7846 52.5862 16.4724 52.7036C16.3846 52.7036 16.2969 52.7037 16.2091 52.7038C13.5756 52.7062 10.9393 52.7086 9.07113 50.8515C7.17814 48.9698 7.22962 46.2842 7.28082 43.6129C7.28174 43.5653 7.28265 43.5177 7.28355 43.4701C7.40425 42.1559 7.30133 40.8317 6.97995 39.5517L6.96109 39.4766L6.92039 39.4107C6.27161 38.3604 5.45473 37.4217 4.50199 36.6351C2.65908 34.8945 0.5 32.8325 0.5 30C0.5 28.5902 1.03677 27.3639 1.81594 26.2566C2.55506 25.2062 3.49011 24.292 4.36016 23.4414C4.40878 23.3938 4.45721 23.3465 4.50538 23.2993C5.45662 22.5133 6.27227 21.5757 6.92037 20.5266L6.96109 20.4607L6.97996 20.3856C7.30083 19.1072 7.40388 17.7846 7.28398 16.4719C7.28397 16.3851 7.28389 16.2983 7.28381 16.2114C7.28139 13.5872 7.27896 10.9408 9.135 9.08473C11.0536 7.16614 13.8255 7.18238 16.53 7.23328C17.8439 7.35396 19.1683 7.25231 20.4488 6.92956L20.5237 6.91069L20.5894 6.87012C21.639 6.22178 22.5755 5.4058 23.3626 4.4546C23.3987 4.41745 23.4349 4.38012 23.4713 4.34264C24.301 3.48763 25.2098 2.55113 26.2643 1.8098C27.3636 1.03699 28.5899 0.5 30 0.5C31.4098 0.5 32.6359 1.03674 33.743 1.81725C34.8037 2.56501 35.7258 3.51431 36.5832 4.39692C36.6223 4.43718 36.6613 4.4773 36.7001 4.51726C37.4862 5.46878 38.4241 6.28467 39.4734 6.93281L39.5393 6.97352L39.6144 6.99238C40.8928 7.31325 42.2154 7.41631 43.5281 7.2964C43.6157 7.29639 43.7033 7.29631 43.7909 7.29623C46.4244 7.29379 49.0607 7.29136 50.9289 9.14847C52.8583 11.0664 52.8303 13.8359 52.7793 16.5298C52.6586 17.8441 52.7615 19.1683 53.0829 20.4483L53.1017 20.5234L53.1424 20.5893C53.7904 21.6384 54.6061 22.5761 55.5574 23.3621C55.6028 23.4065 55.6485 23.4511 55.6944 23.496C56.5371 24.3193 57.4591 25.22 58.1915 26.2639C58.963 27.3634 59.5 28.5898 59.5 30C59.5 31.4098 58.9632 32.6361 58.1841 33.7434C57.4449 34.7938 56.5099 35.708 55.6398 36.5586C55.5912 36.6062 55.5428 36.6535 55.4946 36.7007C54.5434 37.4867 53.7277 38.4243 53.0797 39.4734L53.039 39.5393L53.0202 39.6144C52.6993 40.8928 52.5962 42.2154 52.7161 43.5281C52.7161 43.6149 52.7162 43.7017 52.7163 43.7886C52.7187 46.4128 52.7212 49.0592 50.8651 50.9153C48.9466 52.8338 46.1748 52.8176 43.4703 52.7667C42.1559 52.6448 40.8314 52.7478 39.5513 53.0704L39.4764 53.0893L39.4107 53.1299C38.3611 53.7782 37.4246 54.5942 36.6375 55.5454C36.6013 55.5826 36.5651 55.62 36.5286 55.6576C35.6989 56.5125 34.7902 57.4489 33.7357 58.1902C32.6364 58.963 31.4101 59.5 30 59.5C27.1656 59.5 25.1029 57.3754 23.3015 55.4847C22.515 54.5323 21.5766 53.7158 20.5266 53.0672ZM17.7186 48.5024L17.7275 48.5023L17.7364 48.5019C19.2034 48.4351 20.6692 48.6565 22.0501 49.1533C23.6798 49.9805 25.121 51.1344 26.2855 52.5422L26.297 52.5561L26.3094 52.5691C26.8551 53.1398 27.4999 53.8015 28.1145 54.3216C28.4217 54.5816 28.7342 54.8172 29.0335 54.9902C29.3213 55.1565 29.6538 55.299 29.9875 55.299C30.3211 55.299 30.6536 55.1566 30.9414 54.9903C31.2407 54.8172 31.5532 54.5816 31.8604 54.3217C32.475 53.8016 33.1198 53.1399 33.6654 52.569L33.6778 52.5561L33.6892 52.5423C34.8525 51.1361 36.2916 49.9833 37.9188 49.1563C39.7064 48.566 41.5977 48.348 43.4736 48.5131L43.4955 48.515H43.5175H43.5277C44.25 48.515 45.1327 48.515 45.9047 48.4538C46.2924 48.423 46.6678 48.3757 46.9897 48.3005C47.2942 48.2293 47.6239 48.1175 47.8561 47.9122C48.1088 47.689 48.2379 47.3469 48.3154 47.0443C48.3981 46.7217 48.446 46.3424 48.4744 45.9516C48.5303 45.1835 48.5154 44.2954 48.5031 43.5614L48.5024 43.5216L48.5021 43.5039L48.5005 43.4862C48.3354 41.6102 48.5535 39.7189 49.1437 37.9313C49.9708 36.3041 51.1235 34.8649 52.5297 33.7018L52.5436 33.6903L52.5565 33.6779C53.1273 33.1322 53.789 32.4875 54.3091 31.8728C54.5691 31.5656 54.8047 31.2532 54.9777 30.9538C55.144 30.666 55.2864 30.3335 55.2864 29.9999C55.2864 29.6662 55.144 29.3337 54.9777 29.046C54.8047 28.7466 54.5691 28.4342 54.3092 28.127C53.789 27.5123 53.1273 26.8676 52.5565 26.3219L52.5435 26.3095L52.5297 26.2981C51.1235 25.1349 49.9708 23.6958 49.1437 22.0686C48.5534 20.2808 48.3343 18.3895 48.5005 16.514L48.5025 16.492V16.4699V16.4596C48.5025 15.7374 48.5025 14.8546 48.4412 14.0826C48.4105 13.6949 48.3632 13.3195 48.2879 12.9976C48.2167 12.6931 48.1049 12.3634 47.8997 12.1312L47.525 12.4623L47.8997 12.1312C47.6771 11.8793 47.3361 11.7491 47.0333 11.6705C46.7107 11.5868 46.3314 11.5376 45.9401 11.5083C45.1565 11.4496 44.2503 11.4663 43.5049 11.485L43.4892 11.4854L43.4736 11.4868C41.598 11.6519 39.7078 11.4327 37.9186 10.8435C36.2915 10.0165 34.8524 8.86377 33.6893 7.45764L33.6778 7.44379L33.6654 7.43079C33.1197 6.86006 32.4749 6.19835 31.8603 5.67824C31.5531 5.41829 31.2407 5.18267 30.9413 5.00966C30.6536 4.84335 30.3211 4.7009 29.9875 4.7009C29.6538 4.7009 29.3213 4.84333 29.0336 5.00963C28.7342 5.18264 28.4217 5.41825 28.1145 5.67819C27.4999 6.19829 26.8551 6.86 26.3094 7.43081L26.297 7.44379L26.2856 7.45762C25.1223 8.86377 23.6833 10.0165 22.0562 10.8435C20.2669 11.4327 18.3768 11.6519 16.5012 11.4868L16.4793 11.4849H16.4573H16.4471C15.7249 11.4849 14.8421 11.4849 14.0701 11.5461C13.6824 11.5769 13.307 11.6242 12.9851 11.6994C12.6806 11.7706 12.3509 11.8824 12.1187 12.0876C11.866 12.3109 11.7369 12.653 11.6594 12.9556C11.5767 13.2782 11.5288 13.6575 11.5004 14.0482C11.4445 14.8164 11.4594 15.7046 11.4717 16.4386L11.4724 16.4783L11.4727 16.496L11.4743 16.5137C11.6394 18.3896 11.4213 20.281 10.8311 22.0686C10.004 23.6958 8.85128 25.1349 7.4451 26.2981L7.43125 26.3095L7.41825 26.322C6.84752 26.8677 6.1858 27.5124 5.6657 28.1271C5.40575 28.4343 5.17013 28.7467 4.99711 29.0461C4.8308 29.3338 4.68836 29.6663 4.68836 30C4.68836 30.3336 4.83079 30.6661 4.99709 30.9539C5.1701 31.2533 5.40571 31.5657 5.66565 31.8729C6.18576 32.4876 6.84747 33.1323 7.41829 33.678L7.43127 33.6904L7.4451 33.7018C8.85128 34.8649 10.004 36.3041 10.8311 37.9313C11.4214 39.7191 11.6405 41.6103 11.4743 43.4859L11.4723 43.5079V43.53V43.5402C11.4723 44.2625 11.4723 45.1453 11.5336 45.9172C11.5643 46.305 11.6116 46.6803 11.6869 47.0022C11.7581 47.3068 11.8699 47.6365 12.0751 47.8687C12.2984 48.1213 12.6404 48.2505 12.9431 48.328C13.2657 48.4106 13.6449 48.4585 14.0357 48.487C14.8038 48.5429 15.692 48.5279 16.4259 48.5156L16.4623 48.515L16.4657 48.5149L17.7186 48.5024Z" fill="#863399" stroke="#863399"/>
<path d="M27.4881 38.8693C26.8989 38.8706 26.3273 38.6708 25.8675 38.304L19.5862 33.2788C18.4694 32.3844 18.2897 30.7525 19.1842 29.6356C20.0787 28.5187 21.7105 28.3392 22.8274 29.2336L27.2998 32.8141L36.9606 23.1533C37.9732 22.1406 39.6164 22.1406 40.6289 23.1533C41.6414 24.1659 41.6415 25.8091 40.6289 26.8216L29.3224 38.1281C28.8337 38.6079 28.1741 38.8743 27.4881 38.8693Z" fill="#7DD0DE"/>
</svg>
