<svg width="17" height="19" viewBox="0 0 17 19" fill="none" xmlns="http://www.w3.org/2000/svg">
<path d="M2.354 13.415H3.46729V14.5283H2.354V13.415Z" fill="#F58520"/>
<path d="M4.58984 13.415H5.70312V14.5283H4.58984V13.415Z" fill="#F58520"/>
<path d="M6.82568 13.415H7.93896V14.5283H6.82568V13.415Z" fill="#F58520"/>
<path d="M9.06152 13.415H10.1748V14.5283H9.06152V13.415Z" fill="#F58520"/>
<path d="M8.5 3.35376H12.4104V4.46704H8.5V3.35376Z" fill="#F58520"/>
<path d="M8.5 5.5896H12.4104V6.70288H8.5V5.5896Z" fill="#F58520"/>
<path d="M8.5 7.82544H12.4104V8.93872H8.5V7.82544Z" fill="#F58520"/>
<path d="M8.5 10.0613H12.4104V11.1746H8.5V10.0613Z" fill="#F58520"/>
<path d="M11.2974 13.415H12.4106V14.5283H11.2974V13.415Z" fill="#F58520"/>
<path d="M16.8823 1.67456C16.8823 0.751205 16.1311 0 15.2078 0H1.79272C0.869369 0 0.118164 0.751205 0.118164 1.67456V18.9999L2.31645 17.8325L4.02894 18.9972L5.70576 17.8566L7.38266 18.9972L9.05945 17.8567L10.7362 18.9972L12.4485 17.8325L14.6465 19V5.58496H16.8823V1.67456ZM13.5332 17.1481L12.3776 16.5343L10.7362 17.6508L9.05937 16.5102L7.38255 17.6508L5.70569 16.5103L4.02886 17.6508L2.38725 16.5343L1.23141 17.1482V1.67456C1.23145 1.36507 1.48323 1.11328 1.79272 1.11328H13.6303C13.5676 1.28885 13.5332 1.47773 13.5332 1.67456V17.1481ZM15.769 4.47168H14.6465V1.67456C14.6465 1.36507 14.8983 1.11328 15.2078 1.11328C15.5173 1.11328 15.769 1.36507 15.769 1.67456V4.47168Z" fill="#F58520"/>
<path d="M6.82153 8.43539C6.82153 7.48936 6.05189 6.71971 5.10586 6.71971H4.46921C4.13705 6.71971 3.86682 6.44948 3.86682 6.11735C3.86682 5.78519 4.13705 5.51496 4.46921 5.51496H5.09128C5.42385 5.51496 5.69441 5.78552 5.69441 6.11806H6.80769C6.80769 5.25757 6.17112 4.5431 5.34418 4.42045V3.62476H4.2309V4.4186C3.39731 4.53501 2.75354 5.25222 2.75354 6.11735C2.75354 7.06335 3.52319 7.833 4.46921 7.833H5.10586C5.43803 7.833 5.70826 8.10323 5.70826 8.43539C5.70826 8.76756 5.43803 9.03779 5.10586 9.03779H4.4579C4.13705 9.03779 3.87602 8.77676 3.87602 8.45588H2.76274C2.76274 9.31359 3.40318 10.0241 4.2309 10.1354V10.9279H5.34418V10.1342C6.17776 10.0178 6.82153 9.30056 6.82153 8.43539Z" fill="#F58520"/>
</svg>
