<svg width="16" height="11" viewBox="0 0 16 11" fill="none" xmlns="http://www.w3.org/2000/svg">
<path d="M6.00001 0.739258V9.73926M1.50001 7.68926C1.49937 7.57411 1.539 7.46235 1.61204 7.37333C1.68509 7.28431 1.78695 7.22362 1.90001 7.20176C2.34971 7.10627 2.75297 6.85924 3.04233 6.502C3.33168 6.14476 3.48956 5.69898 3.48956 5.23926C3.48956 4.77953 3.33168 4.33375 3.04233 3.97651C2.75297 3.61927 2.34971 3.37224 1.90001 3.27676C1.78695 3.2549 1.68509 3.1942 1.61204 3.10518C1.539 3.01616 1.49937 2.90441 1.50001 2.78926V1.23926C1.50001 1.10665 1.55269 0.979473 1.64645 0.885705C1.74022 0.791936 1.8674 0.739258 2.00001 0.739258H14C14.1326 0.739258 14.2598 0.791936 14.3536 0.885705C14.4473 0.979473 14.5 1.10665 14.5 1.23926V2.78926C14.5006 2.90441 14.461 3.01616 14.388 3.10518C14.3149 3.1942 14.2131 3.2549 14.1 3.27676C13.6503 3.37224 13.247 3.61927 12.9577 3.97651C12.6683 4.33375 12.5105 4.77953 12.5105 5.23926C12.5105 5.69898 12.6683 6.14476 12.9577 6.502C13.247 6.85924 13.6503 7.10627 14.1 7.20176C14.2131 7.22362 14.3149 7.28431 14.388 7.37333C14.461 7.46235 14.5006 7.57411 14.5 7.68926V9.23926C14.5 9.37187 14.4473 9.49904 14.3536 9.59281C14.2598 9.68658 14.1326 9.73926 14 9.73926H2.00001C1.8674 9.73926 1.74022 9.68658 1.64645 9.59281C1.55269 9.49904 1.50001 9.37187 1.50001 9.23926V7.68926Z" stroke="#863399" stroke-width="1.3342" stroke-linecap="round" stroke-linejoin="round"/>
</svg>
