<svg width="45" height="46" viewBox="0 0 45 46" fill="none" xmlns="http://www.w3.org/2000/svg">
<path d="M22.5 45.5C34.9264 45.5 45 35.4264 45 23C45 10.5736 34.9264 0.5 22.5 0.5C10.0736 0.5 0 10.5736 0 23C0 35.4264 10.0736 45.5 22.5 45.5Z" fill="#E3F2FB"/>
<path d="M33.9604 11.06H33.9004V11.03L33.9604 11.06Z" fill="#FBFBFB"/>
<path d="M8.11133 14.7901L31.6713 10.2401C33.2713 9.93005 34.7613 11.1601 34.7613 12.7901V14.7901H8.11133Z" fill="#412B71"/>
<path d="M30.2927 6.00929L10.3418 9.70337L12.5703 21.7388L32.5211 18.0447L30.2927 6.00929Z" fill="#FBFBFB"/>
<path d="M30.2927 6.00929L10.3418 9.70337L12.5703 21.7388L32.5211 18.0447L30.2927 6.00929Z" fill="#7FC258"/>
<path d="M21.6503 16.42C23.2133 16.42 24.4803 15.153 24.4803 13.59C24.4803 12.027 23.2133 10.76 21.6503 10.76C20.0873 10.76 18.8203 12.027 18.8203 13.59C18.8203 15.153 20.0873 16.42 21.6503 16.42Z" fill="#FBFBFB"/>
<path d="M28.4702 13.44C29.0115 13.44 29.4502 13.0013 29.4502 12.46C29.4502 11.9188 29.0115 11.48 28.4702 11.48C27.929 11.48 27.4902 11.9188 27.4902 12.46C27.4902 13.0013 27.929 13.44 28.4702 13.44Z" fill="#FBFBFB"/>
<path d="M14.3999 15.5C14.9412 15.5 15.3799 15.0613 15.3799 14.52C15.3799 13.9788 14.9412 13.54 14.3999 13.54C13.8587 13.54 13.4199 13.9788 13.4199 14.52C13.4199 15.0613 13.8587 15.5 14.3999 15.5Z" fill="#FBFBFB"/>
<path d="M21.9696 13.31L21.3496 13.28C21.1596 13.27 21.0196 13.14 20.9796 12.96C20.9396 12.74 21.0896 12.53 21.2996 12.49L21.5796 12.44C21.7796 12.4 21.9696 12.53 22.0096 12.73C22.0396 12.89 22.1896 12.99 22.3496 12.96C22.5096 12.93 22.6096 12.78 22.5796 12.62C22.4896 12.15 22.0696 11.83 21.5996 11.86L21.5796 11.74C21.5496 11.58 21.3996 11.48 21.2396 11.51C21.0796 11.54 20.9796 11.69 21.0096 11.85L21.0296 11.98C20.5896 12.14 20.3096 12.6 20.3996 13.08C20.4796 13.52 20.8596 13.84 21.3096 13.88L21.9296 13.91C22.1196 13.92 22.2596 14.05 22.2996 14.23C22.3396 14.45 22.1896 14.66 21.9796 14.7L21.6996 14.75C21.4996 14.79 21.3096 14.66 21.2696 14.46C21.2396 14.3 21.0896 14.2 20.9296 14.23C20.7696 14.26 20.6696 14.41 20.6996 14.57C20.7896 15.04 21.2096 15.36 21.6796 15.33L21.6996 15.45C21.7296 15.61 21.8796 15.71 22.0396 15.68C22.1996 15.65 22.2996 15.5 22.2696 15.34L22.2496 15.21C22.6896 15.05 22.9696 14.59 22.8796 14.11C22.7896 13.63 22.4196 13.34 21.9696 13.31Z" fill="#69AC43"/>
<path d="M29.3128 7.32118L11.8398 10.5565L13.6641 20.409L31.1371 17.1737L29.3128 7.32118Z" stroke="#FBFBFB" stroke-width="0.5" stroke-miterlimit="10"/>
<path d="M34.9604 15.21H8.74039C7.86226 15.21 7.15039 15.9219 7.15039 16.8V32.49C7.15039 33.3682 7.86226 34.08 8.74039 34.08H34.9604C35.8385 34.08 36.5504 33.3682 36.5504 32.49V16.8C36.5504 15.9219 35.8385 15.21 34.9604 15.21Z" fill="#FBFBFB"/>
<g opacity="0.1">
<path d="M36.4595 15.35H34.7695V33.93H36.4595V15.35Z" fill="#765BA7"/>
</g>
<path d="M34.9604 15.21H8.74039C7.86226 15.21 7.15039 15.9219 7.15039 16.8V32.49C7.15039 33.3682 7.86226 34.08 8.74039 34.08H34.9604C35.8385 34.08 36.5504 33.3682 36.5504 32.49V16.8C36.5504 15.9219 35.8385 15.21 34.9604 15.21Z" stroke="#765BA7" stroke-miterlimit="10"/>
<path d="M29.2202 20.9H37.8602V27.57H29.2202C27.4402 27.57 25.9902 26.12 25.9902 24.34V24.12C25.9902 22.34 27.4402 20.89 29.2202 20.89V20.9Z" fill="#765BA7"/>
<path d="M37.041 20.58L37.851 20.9H37.041V20.58Z" fill="#412B71"/>
<path d="M37.851 27.57L37.041 27.83V27.57H37.851Z" fill="#412B71"/>
<path d="M29.7597 25.56C30.4942 25.56 31.0897 24.9646 31.0897 24.23C31.0897 23.4955 30.4942 22.9 29.7597 22.9C29.0251 22.9 28.4297 23.4955 28.4297 24.23C28.4297 24.9646 29.0251 25.56 29.7597 25.56Z" fill="#FBFBFB"/>
<path opacity="0.25" d="M31.0905 24.23C31.0905 24.94 30.5205 25.53 29.8105 25.55C30.3005 25.32 30.6405 24.82 30.6405 24.23C30.6405 23.64 30.3005 23.14 29.8105 22.91C30.5205 22.93 31.0905 23.52 31.0905 24.23Z" fill="#765BA7"/>
<path d="M10.3398 18.17V18.67" stroke="#765BA7" stroke-width="0.25" stroke-linecap="round" stroke-linejoin="round"/>
<path d="M10.3398 19.7501V30.0701" stroke="#765BA7" stroke-width="0.25" stroke-linecap="round" stroke-linejoin="round"/>
<path d="M10.3398 30.61V31.11" stroke="#765BA7" stroke-width="0.25" stroke-linecap="round" stroke-linejoin="round"/>
</svg>
