<svg width="45" height="46" viewBox="0 0 45 46" fill="none" xmlns="http://www.w3.org/2000/svg">
<g clip-path="url(#clip0_175_101163)">
<g opacity="0.05">
<path d="M22.5 45.5C34.9264 45.5 45 35.4264 45 23C45 10.5736 34.9264 0.5 22.5 0.5C10.0736 0.5 0 10.5736 0 23C0 35.4264 10.0736 45.5 22.5 45.5Z" fill="#383838"/>
</g>
<path d="M33.9599 11.0603H33.8999V11.0303L33.9599 11.0603Z" fill="white"/>
<path d="M36.5701 24.4003L32.1601 27.9003L20.6201 14.1603L25.3401 10.3803C27.0501 9.01031 29.5301 9.29031 30.9001 11.0003L31.5601 11.8203C29.8001 12.3503 28.5201 13.9903 28.5201 15.9203C28.5201 18.2903 30.4401 20.2103 32.8101 20.2103C34.4101 20.2103 35.8001 19.3403 36.5401 18.0403L37.1901 18.8503C38.5601 20.5603 38.2801 23.0403 36.5701 24.4103V24.4003Z" fill="white"/>
<path d="M18.7635 15.3566L9.34527 23.0956C6.90877 25.0977 6.5566 28.6959 8.55867 31.1324L12.6345 36.0926C14.6366 38.5291 18.2348 38.8813 20.6713 36.8792L30.0895 29.1402C32.526 27.1381 32.8782 23.5399 30.8761 21.1034L26.8003 16.1432C24.7982 13.7067 21.2 13.3545 18.7635 15.3566Z" fill="white"/>
<g opacity="0.46">
<path d="M36.5701 24.4003L32.1601 27.9003L20.6201 14.1603L25.3401 10.3803C27.0501 9.01031 29.5301 9.29031 30.9001 11.0003L31.5601 11.8203C29.8001 12.3503 28.5201 13.9903 28.5201 15.9203C28.5201 18.2903 30.4401 20.2103 32.8101 20.2103C34.4101 20.2103 35.8001 19.3403 36.5401 18.0403L37.1901 18.8503C38.5601 20.5603 38.2801 23.0403 36.5701 24.4103V24.4003Z" fill="#F58520"/>
</g>
<g opacity="0.1">
<path d="M35.7099 19.4204L36.4099 18.8904C37.0099 20.2604 35.8899 22.3904 34.6799 23.2704L17.8999 35.9004C16.5299 36.9304 15.3499 36.9404 13.6699 36.5804C13.6699 36.5804 14.7699 39.9704 18.4299 38.4804C22.0899 36.9904 36.9899 23.8304 36.9899 23.8304C36.9899 23.8304 39.7699 20.8704 36.4099 18.6104L35.7099 19.4204Z" fill="#863399"/>
</g>
<path d="M16.5099 39.6401C15.4399 39.6401 14.3899 39.1701 13.6799 38.2701L6.62993 29.3301C5.40993 27.7701 5.66993 25.5001 7.21993 24.2701L25.7899 9.6301C26.5399 9.0301 27.4799 8.7701 28.4399 8.8801C29.3999 8.9901 30.2499 9.47009 30.8499 10.2301L31.9499 11.6201C32.1199 11.8401 32.0799 12.1501 31.8699 12.3201C31.6499 12.4901 31.3399 12.4501 31.1699 12.2401L30.0699 10.8501C29.6399 10.3001 29.0199 9.9601 28.3299 9.8801C27.6399 9.8001 26.9599 9.9901 26.4199 10.4201L7.83993 25.0601C6.71993 25.9501 6.52993 27.5901 7.40993 28.7201L14.4599 37.6601C15.3499 38.7801 16.9899 38.9801 18.1099 38.0901L36.6699 23.4501C37.2199 23.0201 37.5599 22.4101 37.6399 21.7201C37.7199 21.0301 37.5299 20.3501 37.0999 19.8001L35.9999 18.4101C35.8299 18.1901 35.8699 17.8801 36.0799 17.7101C36.2999 17.5401 36.6099 17.5801 36.7799 17.7901L37.8799 19.1801C38.4799 19.9401 38.7399 20.8801 38.6299 21.8401C38.5199 22.7901 38.0399 23.6501 37.2799 24.2401L18.7199 38.8801C18.0599 39.4001 17.2699 39.6501 16.4899 39.6501L16.5099 39.6401Z" fill="#863399"/>
<path d="M32.74 20.7102C30.13 20.7102 28.01 18.5902 28.01 15.9802C28.01 13.9002 29.41 12.0302 31.4 11.4502C31.67 11.3702 31.94 11.5202 32.02 11.7902C32.1 12.0602 31.95 12.3302 31.68 12.4102C30.11 12.8702 29.01 14.3402 29.01 15.9802C29.01 18.0302 30.68 19.7102 32.74 19.7102C34.07 19.7102 35.31 18.9902 35.97 17.8402C36.11 17.6002 36.41 17.5202 36.65 17.6502C36.89 17.7902 36.97 18.0902 36.84 18.3302C36 19.7902 34.43 20.7102 32.74 20.7102Z" fill="#863399"/>
<path d="M30.8001 26.6999C30.6901 26.6999 30.5901 26.6499 30.5101 26.5599L28.5901 24.2499C28.4601 24.0899 28.4801 23.8499 28.6401 23.7199C28.8001 23.5899 29.0401 23.6099 29.1701 23.7699L31.0901 26.0799C31.2201 26.2399 31.2001 26.4799 31.0401 26.6099C30.9701 26.6699 30.8801 26.6999 30.8001 26.6999ZM26.9701 22.0799C26.8601 22.0799 26.7601 22.0299 26.6801 21.9399L24.7601 19.6299C24.6301 19.4699 24.6501 19.2299 24.8101 19.0999C24.9701 18.9699 25.2101 18.9899 25.3401 19.1499L27.2601 21.4599C27.3901 21.6199 27.3701 21.8599 27.2101 21.9899C27.1401 22.0499 27.0501 22.0799 26.9701 22.0799ZM23.1401 17.4599C23.0301 17.4599 22.9301 17.4099 22.8501 17.3199L20.9301 15.0099C20.8001 14.8499 20.8201 14.6099 20.9801 14.4799C21.1401 14.3499 21.3801 14.3699 21.5101 14.5299L23.4301 16.8399C23.5601 16.9999 23.5401 17.2399 23.3801 17.3699C23.3101 17.4299 23.2201 17.4599 23.1401 17.4599Z" fill="#863399"/>
<g opacity="0.1">
<path d="M10.3699 23.87L8.18989 25.82C7.52989 26.41 7.44989 27.42 8.00989 28.1L9.88989 30.41C10.0099 30.55 10.2399 30.44 10.1899 30.26C9.87989 29.02 9.51989 26.57 10.6299 24.06C10.7099 23.89 10.4999 23.73 10.3599 23.86L10.3699 23.87Z" fill="#863399"/>
</g>
<path d="M14.5199 31.8499C14.5199 31.8499 14.4799 31.9499 14.4399 32.0099C14.3999 32.0699 14.3399 32.1199 14.2799 32.1699C14.1999 32.2299 14.1199 32.2699 14.0499 32.2899C13.9699 32.3099 13.9099 32.3099 13.8599 32.2899C13.7999 32.2599 13.7199 32.2099 13.6199 32.1599C13.5199 32.1099 13.4199 32.0399 13.3099 31.9799C13.1999 31.9099 13.0799 31.8399 12.9599 31.7599C12.8399 31.6799 12.7099 31.5999 12.5899 31.5099C12.4699 31.4299 12.3499 31.3399 12.2399 31.2599C12.1299 31.1799 12.0199 31.0999 11.9299 31.0299C11.9299 30.9799 11.9599 30.9299 11.9899 30.8699C12.0199 30.8099 12.0699 30.7599 12.1199 30.7099C12.1899 30.6599 12.2599 30.6299 12.3299 30.6299C12.3999 30.6299 12.4699 30.6599 12.5599 30.7199C12.7899 30.8899 13.0199 31.0599 13.2299 31.2099C13.4499 31.3699 13.6799 31.5199 13.9099 31.6899H13.9299C13.8399 31.4199 13.7299 31.1399 13.6099 30.8399C13.4899 30.5399 13.3699 30.2499 13.2399 29.9599C13.2599 29.9199 13.2899 29.8799 13.3199 29.8399C13.3499 29.7999 13.3899 29.7599 13.4399 29.7199C13.5099 29.6699 13.5799 29.6399 13.6599 29.6299C13.7299 29.6299 13.7999 29.6599 13.8499 29.7299C13.8799 29.7699 13.9199 29.8499 13.9699 29.9599C14.0099 30.0699 14.0599 30.1899 14.1099 30.3299C14.1599 30.4699 14.2099 30.6199 14.2599 30.7799C14.3099 30.9399 14.3499 31.0899 14.3899 31.2299C14.4299 31.3699 14.4599 31.4999 14.4899 31.6199C14.5099 31.7299 14.5299 31.8199 14.5299 31.8699L14.5199 31.8499Z" fill="#F58520"/>
<path d="M16.2899 29.3897C16.3799 29.5097 16.4499 29.6397 16.4899 29.7697C16.5299 29.8997 16.5399 30.0297 16.5199 30.1497C16.4999 30.2697 16.4599 30.3897 16.3899 30.5097C16.3199 30.6197 16.2199 30.7297 16.0999 30.8197C15.9799 30.9097 15.8499 30.9797 15.7199 31.0197C15.5899 31.0597 15.4599 31.0697 15.3399 31.0597C15.2199 31.0397 15.0999 30.9997 14.9799 30.9297C14.8699 30.8597 14.7599 30.7597 14.6599 30.6297C14.5699 30.5097 14.4999 30.3797 14.4599 30.2497C14.4199 30.1197 14.4099 29.9897 14.4299 29.8697C14.4499 29.7497 14.4899 29.6297 14.5699 29.5097C14.6499 29.3897 14.7399 29.2897 14.8599 29.1997C14.9799 29.1097 15.1099 29.0397 15.2399 29.0097C15.3699 28.9697 15.4999 28.9597 15.6199 28.9797C15.7499 28.9997 15.8699 29.0397 15.9799 29.1097C16.0999 29.1797 16.1999 29.2797 16.2899 29.3997V29.3897ZM15.1499 29.5797C15.0499 29.6597 14.9999 29.7497 14.9999 29.8697C14.9999 29.9897 15.0499 30.1097 15.1599 30.2497C15.2699 30.3897 15.3799 30.4797 15.4899 30.5097C15.5999 30.5397 15.7099 30.5197 15.8099 30.4397C15.9099 30.3597 15.9599 30.2697 15.9599 30.1497C15.9599 30.0297 15.8999 29.9097 15.7999 29.7697C15.6999 29.6297 15.5899 29.5497 15.4799 29.5097C15.3699 29.4797 15.2599 29.4997 15.1599 29.5697L15.1499 29.5797Z" fill="#F58520"/>
<path d="M18.44 28.8296C18.4 28.9196 18.35 29.0196 18.26 29.1196C18.18 29.2196 18.08 29.3196 17.96 29.4096C17.85 29.4996 17.73 29.5596 17.62 29.6096C17.51 29.6596 17.4 29.6796 17.29 29.6796C17.18 29.6796 17.08 29.6496 16.98 29.5996C16.88 29.5496 16.79 29.4596 16.7 29.3496L16 28.4196C16 28.4196 16.04 28.3696 16.08 28.3296C16.11 28.2896 16.15 28.2596 16.2 28.2196C16.3 28.1496 16.38 28.1096 16.44 28.1096C16.5 28.1096 16.57 28.1496 16.64 28.2396L17.19 28.9596C17.26 29.0596 17.34 29.1096 17.42 29.1096C17.5 29.1096 17.59 29.0796 17.67 29.0196C17.73 28.9796 17.77 28.9396 17.8 28.8996C17.83 28.8596 17.85 28.8296 17.86 28.8096L16.99 27.6596C16.99 27.6596 17.03 27.6096 17.06 27.5696C17.09 27.5296 17.13 27.4996 17.18 27.4596C17.28 27.3896 17.36 27.3496 17.42 27.3496C17.49 27.3496 17.55 27.3896 17.62 27.4796L18.38 28.4896C18.46 28.5896 18.47 28.6996 18.42 28.8196L18.44 28.8296Z" fill="#F58520"/>
<path d="M18.9299 26.7201C18.8199 26.8101 18.7399 26.9201 18.7199 27.0501C18.6999 27.1901 18.7399 27.3201 18.8399 27.4701C18.9399 27.6201 19.0699 27.6901 19.1999 27.7001C19.3299 27.7101 19.4599 27.6701 19.5699 27.5801C19.6399 27.5301 19.6899 27.4701 19.7299 27.4201C19.7699 27.3701 19.7999 27.3101 19.8199 27.2601C19.8799 27.2601 19.9299 27.2601 19.9699 27.2801C20.0099 27.3001 20.0499 27.3301 20.0899 27.3701C20.1499 27.4501 20.1599 27.5501 20.1099 27.6601C20.0599 27.7701 19.9599 27.8901 19.8099 28.0001C19.6799 28.1001 19.5499 28.1701 19.4199 28.2101C19.2899 28.2601 19.1599 28.2701 19.0299 28.2601C18.8999 28.2501 18.7799 28.2101 18.6699 28.1401C18.5499 28.0701 18.4399 27.9701 18.3399 27.8301C18.2399 27.6901 18.1699 27.5501 18.1299 27.4201C18.0999 27.2801 18.0899 27.1501 18.1199 27.0301C18.1399 26.9001 18.1999 26.7801 18.2699 26.6701C18.3399 26.5601 18.4399 26.4601 18.5499 26.3801C18.6999 26.2701 18.8299 26.2101 18.9599 26.2001C19.0899 26.1901 19.1799 26.2201 19.2399 26.3001C19.2699 26.3401 19.2899 26.3801 19.2899 26.4301C19.2899 26.4801 19.2899 26.5201 19.2899 26.5601C19.2399 26.5601 19.1799 26.5801 19.1099 26.6001C19.0499 26.6201 18.9799 26.6601 18.9199 26.7101L18.9299 26.7201Z" fill="#F58520"/>
<path d="M20.97 27.0793C20.97 27.0793 20.9 27.1493 20.85 27.1893C20.75 27.2593 20.67 27.2993 20.61 27.2993C20.54 27.2993 20.48 27.2593 20.41 27.1693L18.99 25.2993C18.99 25.2993 19.03 25.2493 19.07 25.2093C19.1 25.1693 19.14 25.1393 19.19 25.0993C19.29 25.0293 19.37 24.9893 19.43 24.9893C19.49 24.9893 19.56 25.0293 19.63 25.1193L19.91 25.4893C19.94 25.4393 19.98 25.3793 20.02 25.3193C20.07 25.2593 20.12 25.2093 20.19 25.1593C20.39 24.9993 20.59 24.9393 20.79 24.9493C20.99 24.9593 21.16 25.0793 21.32 25.2793L22.05 26.2393C22.05 26.2393 22.01 26.2893 21.97 26.3193C21.94 26.3493 21.9 26.3893 21.85 26.4293C21.75 26.4993 21.67 26.5393 21.61 26.5393C21.54 26.5393 21.48 26.4993 21.41 26.4093L20.86 25.6793C20.79 25.5793 20.71 25.5293 20.63 25.5293C20.55 25.5293 20.48 25.5493 20.4 25.6093C20.35 25.6493 20.31 25.6893 20.28 25.7293C20.25 25.7693 20.22 25.8193 20.21 25.8593L21.06 26.9793C21.06 26.9793 21.02 27.0293 20.98 27.0693L20.97 27.0793Z" fill="#F58520"/>
<path d="M22.3798 25.0998C22.4798 25.1698 22.5798 25.1898 22.6798 25.1698C22.7798 25.1498 22.8798 25.0998 22.9798 25.0298C23.0698 24.9598 23.1398 24.8898 23.1998 24.7998C23.2598 24.7198 23.2998 24.6398 23.3298 24.5698C23.3798 24.5698 23.4298 24.5698 23.4698 24.5898C23.5198 24.6098 23.5598 24.6398 23.5898 24.6798C23.6298 24.7298 23.6398 24.7798 23.6398 24.8398C23.6398 24.8998 23.6198 24.9598 23.5898 25.0198C23.5598 25.0798 23.5098 25.1498 23.4498 25.2098C23.3898 25.2798 23.3098 25.3398 23.2298 25.4098C23.0998 25.4998 22.9798 25.5798 22.8398 25.6198C22.6998 25.6598 22.5798 25.6798 22.4498 25.6698C22.3198 25.6598 22.1998 25.6198 22.0698 25.5498C21.9398 25.4798 21.8298 25.3698 21.7298 25.2298C21.6298 25.0898 21.5598 24.9598 21.5298 24.8298C21.4998 24.6998 21.4898 24.5698 21.5198 24.4498C21.5398 24.3298 21.5898 24.2198 21.6598 24.1098C21.7298 24.0098 21.8198 23.9198 21.9198 23.8398C22.0298 23.7598 22.1398 23.6998 22.2598 23.6598C22.3798 23.6198 22.4898 23.6098 22.5998 23.6198C22.7098 23.6298 22.8098 23.6598 22.9098 23.7198C23.0098 23.7698 23.0998 23.8498 23.1698 23.9498C23.2198 24.0198 23.2398 24.0798 23.2298 24.1398C23.2298 24.1998 23.1898 24.2598 23.1298 24.3198L22.3998 25.0698L22.3798 25.0998ZM22.1898 24.2098C22.0998 24.2798 22.0398 24.3598 22.0298 24.4698C22.0098 24.5698 22.0298 24.6798 22.1098 24.7898L22.6398 24.2298C22.5898 24.1798 22.5298 24.1398 22.4498 24.1298C22.3698 24.1098 22.2798 24.1398 22.1898 24.2098Z" fill="#F58520"/>
<path d="M24.6099 24.2898C24.6099 24.2898 24.5699 24.3398 24.5299 24.3798C24.4999 24.4098 24.4599 24.4498 24.4099 24.4898C24.3099 24.5598 24.2299 24.5998 24.1699 24.5998C24.0999 24.5998 24.0399 24.5598 23.9699 24.4698L23.2299 23.4998C23.1799 23.4398 23.1599 23.3798 23.1599 23.3098C23.1599 23.2398 23.1699 23.1798 23.1999 23.0998C23.2399 22.9998 23.2999 22.9098 23.3799 22.8098C23.4599 22.7098 23.5499 22.6198 23.6599 22.5398C23.8799 22.3698 24.0499 22.3598 24.1599 22.5098C24.1899 22.5498 24.2099 22.5798 24.2199 22.6198C24.2299 22.6598 24.2399 22.6898 24.2399 22.7198C24.1799 22.7498 24.1199 22.7898 24.0499 22.8398C23.9899 22.8898 23.9299 22.9398 23.8799 22.9998C23.8299 23.0598 23.7899 23.1198 23.7599 23.1798L24.5999 24.2898H24.6099Z" fill="#F58520"/>
</g>
<defs>
<clipPath id="clip0_175_101163">
<rect width="45" height="45" fill="white" transform="translate(0 0.5)"/>
</clipPath>
</defs>
</svg>
