<svg width="88" height="88" viewBox="0 0 88 88" fill="none" xmlns="http://www.w3.org/2000/svg">
<g clip-path="url(#clip0_125_18940)">
<path d="M44 88C68.3005 88 88 68.3005 88 44C88 19.6995 68.3005 0 44 0C19.6995 0 0 19.6995 0 44C0 68.3005 19.6995 88 44 88Z" fill="#F3F3F3"/>
<path d="M66.4108 20.6507H66.2935V20.592L66.4108 20.6507Z" fill="#FBFBFB"/>
<path d="M71.5151 46.7377L62.8911 53.5822L40.324 26.7129L49.5542 19.3209C52.8982 16.6417 57.748 17.1893 60.4271 20.5333L61.7177 22.1369C58.276 23.1733 55.7729 26.3804 55.7729 30.1546C55.7729 34.7893 59.5275 38.544 64.1622 38.544C67.2911 38.544 70.0093 36.8426 71.4564 34.3004L72.7275 35.8844C75.4066 39.2284 74.8591 44.0782 71.5151 46.7573V46.7377Z" fill="#FBFBFB"/>
<path d="M37.17 29.2821L17.3701 44.682C12.4683 48.7099 10.9547 52.7521 15.1701 57.8821L26.9036 71.8154C31.1189 76.9454 34.4682 75.8432 39.37 71.8154L59.17 56.4154C64.0718 52.3876 65.3184 46.3011 61.1031 41.1711L52.5215 30.7275C48.3062 25.5975 42.0718 25.2543 37.17 29.2821Z" fill="#FBFBFB"/>
<g opacity="0.46">
<path d="M71.5151 46.7377L62.8911 53.5822L40.324 26.7129L49.5542 19.3209C52.8982 16.6417 57.748 17.1893 60.4271 20.5333L61.7177 22.1369C58.276 23.1733 55.7729 26.3804 55.7729 30.1546C55.7729 34.7893 59.5275 38.544 64.1622 38.544C67.2911 38.544 70.0093 36.8426 71.4564 34.3004L72.7275 35.8844C75.4066 39.2284 74.8591 44.0782 71.5151 46.7573V46.7377Z" fill="#FF972F"/>
</g>
<g opacity="0.1">
<path d="M69.8329 36.9993L71.2018 35.9628C72.3751 38.6419 70.1849 42.8073 67.8186 44.5282L35.0044 69.2268C32.3253 71.2411 30.0178 71.2606 26.7324 70.5566C26.7324 70.5566 28.8835 77.1859 36.0409 74.2722C43.1982 71.3584 72.336 45.6233 72.336 45.6233C72.336 45.6233 77.7724 39.8348 71.2018 35.4153L69.8329 36.9993Z" fill="#765BA7"/>
</g>
<path d="M32.2864 76.5404C30.1939 76.5404 28.1406 75.6213 26.7521 73.8613L12.9655 56.3786C10.5797 53.328 11.0881 48.8888 14.1193 46.4835L50.4339 17.8542C51.9006 16.6808 53.7388 16.1724 55.6161 16.3875C57.4935 16.6026 59.1557 17.5413 60.329 19.0275L62.4801 21.7457C62.8126 22.176 62.7344 22.7822 62.3237 23.1146C61.8935 23.4471 61.2873 23.3688 60.9548 22.9582L58.8037 20.24C57.9628 19.1644 56.7504 18.4995 55.401 18.3431C54.0517 18.1866 52.7219 18.5582 51.6659 19.3991L15.3317 48.0284C13.1415 49.7688 12.7699 52.976 14.4908 55.1857L28.2775 72.6684C30.0179 74.8586 33.225 75.2497 35.4153 73.5093L71.7104 44.88C72.7859 44.0391 73.4508 42.8462 73.6072 41.4968C73.7637 40.1475 73.3921 38.8177 72.5512 37.7422L70.4001 35.024C70.0677 34.5937 70.1459 33.9875 70.5566 33.6551C70.9868 33.3226 71.593 33.4008 71.9255 33.8115L74.0766 36.5297C75.2499 38.016 75.7584 39.8542 75.5433 41.7315C75.3281 43.5893 74.3895 45.2711 72.9032 46.4248L36.6081 75.0542C35.3175 76.0711 33.7726 76.56 32.2473 76.56L32.2864 76.5404Z" fill="#765BA7"/>
<path d="M64.0247 39.5216C58.9207 39.5216 54.7749 35.3758 54.7749 30.2718C54.7749 26.2042 57.5127 22.5473 61.4042 21.4131C61.9322 21.2567 62.4602 21.55 62.6167 22.078C62.7731 22.606 62.4798 23.134 61.9518 23.2904C58.8816 24.19 56.7305 27.0647 56.7305 30.2718C56.7305 34.2807 59.9962 37.566 64.0247 37.566C66.6256 37.566 69.0505 36.158 70.3411 33.9091C70.6149 33.4398 71.2016 33.2833 71.6709 33.5376C72.1402 33.8113 72.2967 34.398 72.0425 34.8673C70.3998 37.7224 67.3296 39.5216 64.0247 39.5216Z" fill="#765BA7"/>
<path d="M60.2314 51.2356C60.0163 51.2356 59.8207 51.1379 59.6643 50.9619L55.9096 46.4445C55.6554 46.1316 55.6945 45.6623 56.0074 45.4081C56.3203 45.1539 56.7896 45.193 57.0438 45.5059L60.7985 50.0232C61.0527 50.3361 61.0136 50.8054 60.7007 51.0596C60.5638 51.177 60.3878 51.2356 60.2314 51.2356ZM52.7416 42.201C52.5265 42.201 52.3309 42.1032 52.1745 41.9272L48.4198 37.4099C48.1656 37.097 48.2047 36.6276 48.5176 36.3734C48.8305 36.1192 49.2998 36.1583 49.5541 36.4712L53.3087 40.9885C53.5629 41.3014 53.5238 41.7707 53.2109 42.025C53.0741 42.1423 52.8981 42.201 52.7416 42.201ZM45.2518 33.1663C45.0367 33.1663 44.8412 33.0685 44.6847 32.8925L40.9301 28.3752C40.6758 28.0623 40.7149 27.593 41.0278 27.3387C41.3407 27.0845 41.8101 27.1236 42.0643 27.4365L45.8189 31.9539C46.0732 32.2667 46.0341 32.7361 45.7212 32.9903C45.5843 33.1076 45.4083 33.1663 45.2518 33.1663Z" fill="#765BA7"/>
<g opacity="0.1">
<path d="M20.2792 45.7009L16.0161 49.5142C14.7254 50.668 14.569 52.6431 15.6641 53.9729L19.3406 58.4902C19.5752 58.764 20.025 58.5489 19.9272 58.1969C19.321 55.772 18.617 50.9809 20.7877 46.0724C20.9441 45.74 20.5334 45.4271 20.2597 45.6813L20.2792 45.7009Z" fill="#765BA7"/>
</g>
<path d="M28.3947 61.3069C28.3947 61.3069 28.3165 61.5025 28.2383 61.6198C28.1601 61.7371 28.0427 61.8349 27.9254 61.9327C27.7689 62.05 27.6125 62.1282 27.4756 62.1674C27.3192 62.2065 27.2018 62.2065 27.1041 62.1674C26.9867 62.1087 26.8303 62.0109 26.6347 61.9131C26.4392 61.8154 26.2436 61.6785 26.0285 61.5611C25.8134 61.4242 25.5787 61.2874 25.3441 61.1309C25.1094 60.9745 24.8552 60.818 24.6205 60.642C24.3858 60.4856 24.1512 60.3096 23.9361 60.1531C23.7209 59.9967 23.5058 59.8402 23.3298 59.7034C23.3298 59.6056 23.3885 59.5078 23.4472 59.3905C23.5058 59.2731 23.6036 59.1754 23.7014 59.0776C23.8383 58.9798 23.9752 58.9211 24.1121 58.9211C24.2489 58.9211 24.3858 58.9798 24.5618 59.0971C25.0116 59.4296 25.4614 59.762 25.8721 60.0554C26.3023 60.3682 26.7521 60.6616 27.2018 60.994H27.2409C27.0649 60.466 26.8498 59.9185 26.6152 59.3318C26.3805 58.7451 26.1458 58.178 25.8916 57.6109C25.9307 57.5327 25.9894 57.4545 26.0481 57.3762C26.1067 57.298 26.1849 57.2198 26.2827 57.1416C26.4196 57.0438 26.5565 56.9851 26.7129 56.9656C26.8498 56.9656 26.9867 57.0242 27.0845 57.1611C27.1432 57.2394 27.2214 57.3958 27.3192 57.6109C27.3974 57.826 27.4952 58.0607 27.5929 58.3345C27.6907 58.6082 27.7885 58.9016 27.8863 59.2145C27.9841 59.5274 28.0623 59.8207 28.1405 60.0945C28.2187 60.3682 28.2774 60.6225 28.3361 60.8571C28.3752 61.0722 28.4143 61.2482 28.4143 61.346L28.3947 61.3069Z" fill="#FF972F"/>
<path d="M31.8566 56.4959C32.0326 56.7306 32.1695 56.9848 32.2477 57.239C32.3259 57.4932 32.3455 57.7474 32.3064 57.9821C32.2673 58.2168 32.189 58.4515 32.0522 58.6861C31.9153 58.9012 31.7197 59.1163 31.485 59.2923C31.2504 59.4683 30.9962 59.6052 30.7419 59.6835C30.4877 59.7617 30.2335 59.7812 29.9988 59.7617C29.7642 59.7226 29.5295 59.6443 29.2948 59.5075C29.0797 59.3706 28.8646 59.175 28.669 58.9208C28.493 58.6861 28.3562 58.4319 28.2779 58.1777C28.1997 57.9234 28.1802 57.6692 28.2193 57.4346C28.2584 57.1999 28.3366 56.9652 28.493 56.7306C28.6495 56.4959 28.8255 56.3003 29.0602 56.1243C29.2948 55.9483 29.549 55.8115 29.8033 55.7528C30.0575 55.6746 30.3117 55.655 30.5464 55.6941C30.8006 55.7332 31.0353 55.8115 31.2504 55.9483C31.485 56.0852 31.6806 56.2808 31.8566 56.5154V56.4959ZM29.6273 56.8674C29.4317 57.0239 29.3339 57.1999 29.3339 57.4346C29.3339 57.6692 29.4317 57.9039 29.6468 58.1777C29.8619 58.4514 30.077 58.6275 30.2922 58.6861C30.5073 58.7448 30.7224 58.7057 30.9179 58.5492C31.1135 58.3928 31.2113 58.2168 31.2113 57.9821C31.2113 57.7474 31.0939 57.5128 30.8984 57.239C30.7028 56.9652 30.4877 56.8088 30.2726 56.7306C30.0575 56.6719 29.8424 56.711 29.6468 56.8479L29.6273 56.8674Z" fill="#FF972F"/>
<path d="M36.0601 55.4011C35.9819 55.5771 35.8841 55.7726 35.7081 55.9682C35.5517 56.1637 35.3561 56.3593 35.1215 56.5353C34.9064 56.7113 34.6717 56.8286 34.4566 56.9264C34.2415 57.0242 34.0264 57.0633 33.8112 57.0633C33.5961 57.0633 33.4006 57.0046 33.205 56.9068C33.0095 56.8091 32.8335 56.6331 32.6575 56.4179L31.2886 54.5993C31.2886 54.5993 31.3668 54.5015 31.445 54.4233C31.5037 54.3451 31.5819 54.2864 31.6797 54.2082C31.8752 54.0713 32.0317 53.9931 32.149 53.9931C32.2664 53.9931 32.4032 54.0713 32.5401 54.2473L33.6157 55.6553C33.7526 55.8508 33.909 55.9486 34.0655 55.9486C34.2219 55.9486 34.3979 55.8899 34.5544 55.7726C34.6717 55.6944 34.7499 55.6162 34.8086 55.5379C34.8672 55.4597 34.9064 55.4011 34.9259 55.3619L33.2246 53.1131C33.2246 53.1131 33.3028 53.0153 33.3615 52.9371C33.4201 52.8588 33.4984 52.8002 33.5961 52.7219C33.7917 52.5851 33.9481 52.5068 34.0655 52.5068C34.2024 52.5068 34.3197 52.5851 34.4566 52.7611L35.9428 54.7362C36.0992 54.9317 36.1188 55.1468 36.021 55.3815L36.0601 55.4011Z" fill="#FF972F"/>
<path d="M37.0186 51.2747C36.8035 51.4507 36.647 51.6658 36.6079 51.92C36.5688 52.1938 36.647 52.448 36.8426 52.7413C37.0381 53.0347 37.2924 53.1716 37.5466 53.1911C37.8008 53.2107 38.055 53.1324 38.2701 52.9564C38.407 52.8587 38.5048 52.7413 38.583 52.6436C38.6613 52.5458 38.7199 52.4284 38.759 52.3307C38.8764 52.3307 38.9741 52.3307 39.0524 52.3698C39.1306 52.4089 39.2088 52.4676 39.287 52.5458C39.4044 52.7022 39.4239 52.8978 39.3261 53.1129C39.2284 53.328 39.0328 53.5627 38.7395 53.7778C38.4853 53.9733 38.231 54.1102 37.9768 54.1884C37.7226 54.2862 37.4684 54.3058 37.2141 54.2862C36.9599 54.2667 36.7253 54.1884 36.5101 54.0516C36.2755 53.9147 36.0604 53.7191 35.8648 53.4453C35.6693 53.1716 35.5324 52.8978 35.4541 52.6436C35.3955 52.3698 35.3759 52.1156 35.4346 51.8809C35.4737 51.6267 35.591 51.392 35.7279 51.1769C35.8648 50.9618 36.0604 50.7662 36.2755 50.6098C36.5688 50.3947 36.823 50.2773 37.0773 50.2578C37.3315 50.2382 37.5075 50.2969 37.6248 50.4533C37.6835 50.5316 37.7226 50.6098 37.7226 50.7076C37.7226 50.8053 37.7226 50.8836 37.7226 50.9618C37.6248 50.9618 37.5075 51.0009 37.3706 51.04C37.2533 51.0791 37.1164 51.1573 36.999 51.2551L37.0186 51.2747Z" fill="#FF972F"/>
<path d="M41.0082 51.9787C41.0082 51.9787 40.8713 52.1156 40.7736 52.1938C40.578 52.3307 40.4216 52.4089 40.3042 52.4089C40.1673 52.4089 40.05 52.3307 39.9131 52.1547L37.1362 48.4978C37.1362 48.4978 37.2145 48.4 37.2927 48.3218C37.3513 48.2436 37.4296 48.1849 37.5273 48.1067C37.7229 47.9698 37.8793 47.8916 37.9967 47.8916C38.114 47.8916 38.2509 47.9698 38.3878 48.1458L38.9353 48.8694C38.994 48.7716 39.0722 48.6542 39.1505 48.5369C39.2482 48.4196 39.346 48.3218 39.4829 48.224C39.874 47.9111 40.2651 47.7938 40.6562 47.8134C41.0473 47.8329 41.3798 48.0676 41.6927 48.4587L43.1202 50.336C43.1202 50.336 43.042 50.4338 42.9638 50.4925C42.9051 50.5511 42.8269 50.6294 42.7291 50.7076C42.5336 50.8445 42.3771 50.9227 42.2598 50.9227C42.1229 50.9227 42.0056 50.8445 41.8687 50.6685L40.7931 49.2409C40.6562 49.0454 40.4998 48.9476 40.3433 48.9476C40.1869 48.9476 40.05 48.9867 39.8936 49.104C39.7958 49.1822 39.7176 49.2605 39.6589 49.3387C39.6002 49.4169 39.5416 49.5147 39.522 49.5929L41.1842 51.7831C41.1842 51.7831 41.106 51.8809 41.0278 51.9591L41.0082 51.9787Z" fill="#FF972F"/>
<path d="M43.7653 48.1066C43.9608 48.2435 44.1564 48.2826 44.352 48.2435C44.5475 48.2044 44.7431 48.1066 44.9386 47.9697C45.1146 47.8328 45.2515 47.6959 45.3689 47.5199C45.4862 47.3635 45.5644 47.207 45.6231 47.0702C45.7209 47.0702 45.8186 47.0702 45.8968 47.1093C45.9946 47.1484 46.0729 47.207 46.1315 47.2853C46.2097 47.383 46.2293 47.4808 46.2293 47.5982C46.2293 47.7155 46.1902 47.8328 46.1315 47.9502C46.0729 48.0675 45.9751 48.2044 45.8577 48.3217C45.7404 48.4586 45.584 48.5759 45.4275 48.7128C45.1733 48.8888 44.9386 49.0453 44.6649 49.1235C44.3911 49.2017 44.1564 49.2408 43.9022 49.2213C43.648 49.2017 43.4133 49.1235 43.1591 48.9866C42.9049 48.8497 42.6897 48.6346 42.4942 48.3608C42.2986 48.087 42.1617 47.8328 42.1031 47.5786C42.0444 47.3244 42.0249 47.0702 42.0835 46.8355C42.1226 46.6008 42.2204 46.3857 42.3573 46.1706C42.4942 45.975 42.6702 45.799 42.8657 45.6426C43.0809 45.4862 43.296 45.3688 43.5306 45.2906C43.7653 45.2124 43.9804 45.1928 44.1955 45.2124C44.4106 45.2319 44.6062 45.2906 44.8017 45.4079C44.9973 45.5057 45.1733 45.6622 45.3102 45.8577C45.408 45.9946 45.4471 46.1119 45.4275 46.2293C45.4275 46.3466 45.3493 46.4639 45.232 46.5813L43.8044 48.0479L43.7653 48.1066ZM43.3937 46.3662C43.2177 46.503 43.1004 46.6595 43.0809 46.8746C43.0417 47.0702 43.0809 47.2853 43.2373 47.5004L44.2737 46.4053C44.176 46.3075 44.0586 46.2293 43.9022 46.2097C43.7457 46.1706 43.5697 46.2293 43.3937 46.3662Z" fill="#FF972F"/>
<path d="M48.1263 46.5226C48.1263 46.5226 48.0481 46.6204 47.9699 46.6986C47.9112 46.7573 47.833 46.8355 47.7352 46.9137C47.5397 47.0506 47.3832 47.1288 47.2659 47.1288C47.129 47.1288 47.0117 47.0506 46.8748 46.8746L45.4277 44.9777C45.3299 44.8604 45.2908 44.743 45.2908 44.6061C45.2908 44.4693 45.3103 44.3519 45.369 44.1955C45.4472 43.9999 45.5645 43.8239 45.721 43.6284C45.8774 43.4328 46.0534 43.2568 46.2685 43.1004C46.6988 42.7679 47.0312 42.7484 47.2463 43.0417C47.305 43.1199 47.3441 43.1786 47.3637 43.2568C47.3832 43.335 47.4028 43.3937 47.4028 43.4524C47.2854 43.511 47.1681 43.5893 47.0312 43.687C46.9139 43.7848 46.7965 43.8826 46.6988 43.9999C46.601 44.1173 46.5228 44.2346 46.4641 44.3519L48.1068 46.5226H48.1263Z" fill="#FF972F"/>
</g>
<defs>
<clipPath id="clip0_125_18940">
<rect width="88" height="88" fill="white"/>
</clipPath>
</defs>
</svg>
