<svg width="32" height="32" viewBox="0 0 32 32" fill="none" xmlns="http://www.w3.org/2000/svg">
<path fill-rule="evenodd" clip-rule="evenodd" d="M16.0001 11.6667C16.7365 11.6667 17.3334 12.2636 17.3334 13V18C17.3334 18.7364 16.7365 19.3333 16.0001 19.3333C15.2637 19.3333 14.6667 18.7364 14.6667 18V13C14.6667 12.2636 15.2637 11.6667 16.0001 11.6667Z" fill="#E68215"/>
<path fill-rule="evenodd" clip-rule="evenodd" d="M14.3323 3.11473C14.8384 2.82123 15.4131 2.66666 15.9982 2.66666C16.5832 2.66666 17.1579 2.82123 17.6641 3.11473C18.1691 3.40762 18.5881 3.82849 18.8786 4.33488C18.8792 4.33593 18.8798 4.33699 18.8804 4.33804L29.8779 23.3336C30.1699 23.8395 30.3239 24.4132 30.3245 24.9974C30.325 25.5815 30.172 26.1555 29.8808 26.6619C29.5896 27.1683 29.1705 27.5893 28.6654 27.8827C28.1603 28.1761 27.587 28.3316 27.0029 28.3336L26.9982 28.3336H4.99816L4.99347 28.3336C4.40934 28.3316 3.83601 28.1761 3.33092 27.8827C2.82582 27.5893 2.40669 27.1683 2.11552 26.6619C1.82435 26.1555 1.67136 25.5815 1.67188 24.9974C1.67239 24.4132 1.8264 23.8395 2.11847 23.3336L13.1159 4.33804C13.1165 4.33699 13.1171 4.33594 13.1177 4.33488C13.4083 3.82849 13.8272 3.40762 14.3323 3.11473ZM14.2732 5.00031L15.4271 5.66835L4.42786 24.667C4.42776 24.6672 4.42796 24.6668 4.42786 24.667C4.36964 24.768 4.33865 24.8831 4.33854 24.9997C4.33844 25.1166 4.36904 25.2314 4.42727 25.3326C4.48551 25.4339 4.56933 25.5181 4.67035 25.5768C4.77091 25.6352 4.88498 25.6663 5.00125 25.667H26.9951C27.1114 25.6663 27.2254 25.6352 27.326 25.5768C27.427 25.5181 27.5108 25.4339 27.5691 25.3326C27.6273 25.2314 27.6579 25.1166 27.6578 24.9997C27.6577 24.8832 27.627 24.7687 27.5689 24.6677C27.5687 24.6674 27.569 24.6679 27.5689 24.6677L16.5659 5.66258C16.5087 5.56255 16.426 5.47941 16.3263 5.42159C16.2266 5.36377 16.1134 5.33332 15.9982 5.33332C15.8829 5.33332 15.7697 5.36377 15.67 5.42159C15.5703 5.47941 15.4876 5.56254 15.4304 5.66257L14.2732 5.00031Z" fill="#E68215"/>
<path d="M16 24C16.8284 24 17.5 23.3284 17.5 22.5C17.5 21.6716 16.8284 21 16 21C15.1716 21 14.5 21.6716 14.5 22.5C14.5 23.3284 15.1716 24 16 24Z" fill="#E68215"/>
</svg>
