<svg xmlns="http://www.w3.org/2000/svg" width="22.08" height="22.047" viewBox="0 0 22.08 22.047">
    <defs>
        <style>
            .cls-1{fill:#25d366}
        </style>
    </defs>
    <g id="TLhadB.tif" transform="translate(-1372.048 454.558)">
        <g id="Group_1841" transform="translate(1372.048 -454.558)">
            <path id="Path_6617" d="M1372.048-444.515c.111-.565.2-1.135.336-1.693a11.021 11.021 0 0 1 11.083-8.348 11.059 11.059 0 0 1 10.429 8.789 11.042 11.042 0 0 1-9.55 13.177 2.12 2.12 0 0 0-.3.077h-1.867a.445.445 0 0 0-.122-.052 11.3 11.3 0 0 1-3.9-1.108.669.669 0 0 0-.418-.006c-1.047.264-2.089.544-3.134.811a1.608 1.608 0 0 1-2.077-2.106c.26-.956.535-1.908.77-2.87a1.313 1.313 0 0 0-.062-.706c-.234-.668-.551-1.309-.753-1.985-.2-.66-.294-1.349-.435-2.026zm21.005.955c-.033-.4-.058-.8-.1-1.193a9.961 9.961 0 0 0-11.991-8.512 10 10 0 0 0-6.691 14.452 1.445 1.445 0 0 1 .1.917c-.251 1.079-.566 2.144-.852 3.215-.171.643.135.956.775.791 1.1-.284 2.207-.562 3.3-.87a1.246 1.246 0 0 1 .976.1 9.668 9.668 0 0 0 3.956 1.066 10 10 0 0 0 10.527-9.966z" class="cls-1" transform="translate(-1372.048 454.558)"/>
            <path id="Path_6618" d="M1402.733-409.027c.154-.558.263-1.034.417-1.494a2.708 2.708 0 0 0-.247-2.257 8.3 8.3 0 0 1 4.551-11.777 7.934 7.934 0 0 1 8.626 1.877 7.87 7.87 0 0 1 2.133 8.485 8.044 8.044 0 0 1-6.623 5.737 7.826 7.826 0 0 1-5.011-.746 2.85 2.85 0 0 0-2.307-.222c-.472.159-.965.252-1.539.397zm2.2-9.946c.012.087.03.293.067.5a6.633 6.633 0 0 0 1.307 2.592 9.564 9.564 0 0 0 5.962 4.09 3.439 3.439 0 0 0 1.4.057 2.084 2.084 0 0 0 1.91-2.1.7.7 0 0 0-.252-.544c-.675-.364-1.382-.67-2.075-1a.437.437 0 0 0-.613.16c-.21.286-.455.546-.663.834a.581.581 0 0 1-.806.195 6.984 6.984 0 0 1-3.026-2.39c-.612-.85-.615-.854.028-1.659a.974.974 0 0 0 .174-1.176c-.245-.47-.411-.98-.618-1.471a1.119 1.119 0 0 0-1.837-.371 2.992 2.992 0 0 0-.961 2.283z" class="cls-1" transform="translate(-1399.242 427.723)"/>
        </g>
    </g>
</svg>
