<svg xmlns="http://www.w3.org/2000/svg" width="11.215" height="12.509" viewBox="0 0 11.215 12.509">
    <defs>
        <style>
            .prefix__cls-1{fill:none;stroke:#fff;stroke-linecap:round;stroke-linejoin:round;stroke-miterlimit:10;stroke-width:1.4px}
        </style>
    </defs>
    <g id="prefix__Group_1369" data-name="Group 1369" transform="translate(-2 -1.864)">
        <g id="prefix__Group_12" data-name="Group 12" transform="translate(2.7 2.687)">
            <path id="prefix__Path_49" d="M33.2 10.135l3.464-3.464 1.14-1.14a1.507 1.507 0 0 0 .252-2.087L37.612 3a1.522 1.522 0 0 0-2.087.252" class="prefix__cls-1" data-name="Path 49" transform="translate(-28.685 -2.687)"/>
            <path id="prefix__Line_26" d="M2.147 0L0 2.132" class="prefix__cls-1" data-name="Line 26" transform="translate(3.213 2.06)"/>
            <path id="prefix__Path_50" d="M4.921 38.2l-1.57 3.3-.651 1.245 1.318-.711 2.975-1.554c-.341.148.207-.1.207-.1-.74.352-2.723-1.203-2.279-2.18z" class="prefix__cls-1" data-name="Path 50" transform="translate(-2.7 -32.942)"/>
        </g>
        <path id="prefix__Line_27" d="M0 0L6.114 0" class="prefix__cls-1" data-name="Line 27" transform="translate(4.847 13.674)"/>
    </g>
</svg>
