<svg width="25" height="24" viewBox="0 0 25 24" fill="none" xmlns="http://www.w3.org/2000/svg">
<path fill-rule="evenodd" clip-rule="evenodd" d="M12.4996 15.248C11.5311 15.248 10.6001 15.6224 9.90129 16.2929C9.50276 16.6753 8.86973 16.6621 8.48738 16.2636C8.10503 15.8651 8.11815 15.2321 8.51668 14.8497C9.58794 13.8219 11.015 13.248 12.4996 13.248C13.9842 13.248 15.4113 13.8219 16.4825 14.8497C16.8811 15.2321 16.8942 15.8651 16.5118 16.2636C16.1295 16.6621 15.4965 16.6753 15.0979 16.2929C14.3991 15.6224 13.4681 15.248 12.4996 15.248Z" fill="#00668D"/>
<path fill-rule="evenodd" clip-rule="evenodd" d="M12.5 10.752C10.3437 10.752 8.27292 11.5949 6.72963 13.1008C6.33435 13.4865 5.70123 13.4787 5.31552 13.0834C4.92982 12.6881 4.93758 12.055 5.33287 11.6693C7.24972 9.79891 9.82181 8.75195 12.5 8.75195C15.1782 8.75195 17.7503 9.79891 19.6671 11.6693C20.0624 12.055 20.0702 12.6881 19.6845 13.0834C19.2988 13.4787 18.6657 13.4865 18.2704 13.1008C16.7271 11.5949 14.6563 10.752 12.5 10.752Z" fill="#00668D"/>
<path fill-rule="evenodd" clip-rule="evenodd" d="M12.5004 6.25195C9.15286 6.25195 5.93975 7.5691 3.55543 9.91877C3.16205 10.3064 2.5289 10.3018 2.14125 9.90841C1.7536 9.51504 1.75823 8.88189 2.15161 8.49424C4.91013 5.77582 8.6275 4.25195 12.5004 4.25195C16.3733 4.25195 20.0906 5.77582 22.8492 8.49424C23.2425 8.88189 23.2472 9.51504 22.8595 9.90841C22.4719 10.3018 21.8387 10.3064 21.4454 9.91877C19.061 7.5691 15.8479 6.25195 12.5004 6.25195Z" fill="#00668D"/>
<path d="M12.5 19.875C13.1213 19.875 13.625 19.3713 13.625 18.75C13.625 18.1287 13.1213 17.625 12.5 17.625C11.8787 17.625 11.375 18.1287 11.375 18.75C11.375 19.3713 11.8787 19.875 12.5 19.875Z" fill="#00668D"/>
</svg>
