<svg width="32" height="33" viewBox="0 0 32 33" fill="none" xmlns="http://www.w3.org/2000/svg">
<path d="M21.9082 23.7166C19.3104 28.5225 12.5201 28.3717 10.084 23.7078C9.74457 23.8404 9.40363 23.981 9.0576 24.1085C7.99181 24.5019 7.00397 25.0301 6.14289 25.7775C5.24466 26.557 4.55113 27.4712 4.30709 28.666C4.25682 28.9137 4.2408 29.1694 4.22185 29.4221C4.19854 29.7281 4.04337 29.8971 3.77237 29.8913C3.50283 29.8855 3.34256 29.7106 3.34985 29.3996C3.38117 28.0788 3.89112 26.9467 4.74564 25.964C5.77573 24.7795 7.07464 23.9825 8.51997 23.4041C9.42913 23.0405 10.3485 22.6974 11.2409 22.296C11.6736 22.1015 12.075 21.8189 12.4538 21.5282C12.8086 21.2565 12.9703 20.8645 12.9507 20.4012C12.9332 20.002 12.9572 19.6013 12.9405 19.2021C12.9361 19.0906 12.8822 18.9544 12.8035 18.8772C11.8521 17.9447 11.222 16.8294 10.8657 15.5509C10.8373 15.4489 10.7732 15.3192 10.6887 15.2777C10.0505 14.9623 9.70887 14.4348 9.55516 13.7632C9.41966 13.1687 9.41383 12.5743 9.56317 11.9813C9.69139 11.4713 10.0046 11.1457 10.5357 11.0867C11.2627 11.0058 11.7465 10.6044 12.0109 9.95461C12.2389 9.39294 12.405 8.8065 12.6003 8.23099C12.6615 8.05032 12.7168 7.86747 12.7926 7.69336C13.1583 6.85341 13.701 6.55036 14.5781 6.79367C15.0349 6.92043 15.4283 6.94229 15.8931 6.79732C16.6529 6.55983 17.3617 6.76599 17.8964 7.37501C18.327 7.86529 18.7116 8.39563 19.1188 8.90703C19.5093 9.39658 19.8837 9.9007 20.3004 10.3669C20.6443 10.7516 21.077 11.0058 21.6044 11.102C22.0743 11.1879 22.3767 11.4881 22.4633 11.9718C22.5835 12.642 22.593 13.3093 22.3854 13.9664C22.2055 14.5368 21.8674 14.9776 21.332 15.2639C21.2504 15.3076 21.1732 15.4118 21.1484 15.5028C20.7893 16.8316 20.1329 17.9826 19.1356 18.9377C19.0627 19.0076 19.0176 19.1387 19.0125 19.2436C18.9972 19.5882 19.0278 19.9357 19.0023 20.2796C18.9564 20.8995 19.2099 21.3861 19.7133 21.6877C20.3718 22.0818 21.0595 22.4388 21.7647 22.7397C23.1321 23.3225 24.5592 23.7676 25.7765 24.6658C26.8314 25.4446 27.7296 26.3494 28.2541 27.5754C28.5069 28.1662 28.6504 28.7825 28.6512 29.4272C28.6512 29.7179 28.4909 29.8862 28.2301 29.8935C27.9678 29.9008 27.7901 29.7376 27.7835 29.4535C27.7471 27.9542 27.0113 26.8171 25.9302 25.8605C25.0065 25.0424 23.9313 24.483 22.781 24.0568C22.4932 23.9497 22.2076 23.8361 21.906 23.7195L21.9082 23.7166ZM10.3376 12.9159L10.2756 12.9298C10.3645 13.2685 10.4308 13.616 10.5481 13.9446C10.6457 14.2178 10.8526 14.4436 11.144 14.4982C11.509 14.5667 11.6197 14.7925 11.6911 15.1131C12.0029 16.5045 12.687 17.6715 13.8096 18.572C15.1427 19.6414 16.65 19.7011 18.0181 18.6878C18.4078 18.3993 18.7662 18.0518 19.0802 17.6817C19.7206 16.9292 20.1103 16.0434 20.3194 15.0781C20.3696 14.8472 20.4039 14.5922 20.6989 14.5427C21.1623 14.4647 21.4041 14.1515 21.5418 13.745C21.6955 13.2897 21.7144 12.8205 21.611 12.3477C21.5637 12.1328 21.4573 12.0301 21.2278 11.9623C20.8599 11.8538 20.4775 11.7146 20.1722 11.4917C19.781 11.2062 19.427 10.8521 19.1159 10.4784C18.6169 9.87884 18.1754 9.23194 17.6902 8.62001C17.4717 8.34464 17.2255 8.08311 16.9552 7.85946C16.6317 7.59137 15.979 7.64091 15.6905 7.91118C15.4589 8.129 15.3292 8.11807 15.0422 7.96582C14.7901 7.83178 14.5133 7.73634 14.2386 7.65257C13.9997 7.57972 13.8052 7.67734 13.7047 7.90973C13.5888 8.1749 13.4861 8.44662 13.3841 8.71762C13.1481 9.34413 12.958 9.99249 12.6717 10.595C12.3285 11.3169 11.745 11.7948 10.9357 11.9521C10.4366 12.049 10.39 12.1 10.339 12.6165C10.3295 12.7156 10.3376 12.8161 10.3376 12.9159V12.9159ZM10.916 23.4245C12.1836 25.4402 13.9742 26.5089 16.3527 26.377C18.4355 26.2619 19.9996 25.2107 21.0865 23.4055C20.9743 23.3553 20.9007 23.3225 20.8271 23.2904C20.1693 23.0005 19.5268 22.6858 18.976 22.2115C18.4136 21.7271 18.1033 21.1312 18.1339 20.3743C18.1426 20.1593 18.1354 19.9437 18.1354 19.6822C16.6806 20.5068 15.2549 20.4806 13.8198 19.6589C13.8198 19.9539 13.8125 20.1899 13.8212 20.4252C13.8482 21.1523 13.5466 21.7293 13.0119 22.1933C12.8006 22.3769 12.5733 22.5503 12.33 22.688C11.882 22.9415 11.4172 23.1658 10.9167 23.4245H10.916Z" fill="#F58520"/>
<path d="M8.3543 12.1872C8.36377 12.3869 8.37106 12.5872 8.38417 12.7861C8.42205 13.3565 8.3492 13.9036 8.12556 14.4376C7.75402 15.3256 7.40289 16.2238 7.30163 17.1927C7.27613 17.4353 7.25938 17.6852 7.28633 17.9263C7.39051 18.8654 8.0039 19.4336 8.95167 19.4074C9.58254 19.3899 10.2127 19.2864 10.8399 19.1968C11.1539 19.1517 11.3593 19.2252 11.4278 19.4773C11.5029 19.7534 11.3827 19.9413 11.0636 20.0317C10.2418 20.2641 9.39969 20.3675 8.55537 20.2539C7.24772 20.0768 6.44128 19.1407 6.40121 17.8178C6.36989 16.7804 6.60519 15.7824 7.04301 14.8608C7.47938 13.9429 7.58501 13.017 7.47501 12.0299C7.29507 10.4141 7.75767 9.01174 8.93127 7.8651C9.54466 7.26627 9.99633 6.56692 10.3285 5.77577C10.6338 5.04874 11.0468 4.37707 11.7097 3.91812C12.6925 3.2377 13.7554 3.05631 14.8823 3.53056C15.0404 3.59685 15.1315 3.55023 15.248 3.47592C16.8566 2.44874 19.2125 2.62941 20.4633 3.94361C20.9179 4.4215 21.2967 5.00649 21.5823 5.60385C22.007 6.49188 22.5264 7.28959 23.1996 8.00642C23.869 8.71816 24.403 9.53262 24.481 10.5372C24.5363 11.2584 24.5101 11.9891 24.4773 12.714C24.4526 13.2516 24.5021 13.7528 24.7338 14.2503C25.2233 15.3023 25.5766 16.3979 25.5912 17.5745C25.5941 17.8353 25.5679 18.1033 25.5096 18.3576C25.2532 19.4875 24.481 20.1817 23.3256 20.275C22.5162 20.3406 21.7091 20.2692 20.9259 20.0273C20.6134 19.9304 20.5012 19.741 20.5915 19.4838C20.6877 19.2099 20.9048 19.1509 21.2115 19.2544C22.0208 19.5283 22.8557 19.5669 23.6774 19.3527C24.3222 19.1844 24.7083 18.5543 24.7199 17.7872C24.7338 16.8977 24.4737 16.0672 24.1539 15.252C23.982 14.8135 23.7226 14.3902 23.6483 13.9364C23.5543 13.3616 23.5521 12.7562 23.6097 12.1741C23.7474 10.774 23.386 9.55812 22.3887 8.56154C21.7003 7.87384 21.2115 7.07177 20.8436 6.17936C20.7023 5.83697 20.5209 5.50769 20.3278 5.19079C19.6292 4.04487 18.586 3.57354 17.2754 3.74036C16.7983 3.80083 16.332 3.97785 15.8716 4.13302C15.7179 4.18474 15.5831 4.31952 15.4629 4.43972C15.2735 4.62985 15.0579 4.68085 14.8525 4.52277C13.9113 3.79791 12.3785 4.20223 11.7389 5.0939C11.5072 5.41663 11.277 5.75465 11.127 6.11962C10.7569 7.01713 10.1996 7.77986 9.5534 8.48869C9.54102 8.5018 9.53009 8.51637 9.51698 8.52948C8.60636 9.45758 8.2443 10.5787 8.34119 11.8623C8.3492 11.9709 8.35212 12.0802 8.35722 12.1894H8.35285L8.3543 12.1872Z" fill="#F58520"/>
</svg>
